<?xml version="1.0" encoding="UTF-8" standalone="no"?>
<!DOCTYPE svg PUBLIC "-//W3C//DTD SVG 1.1//EN"
 "http://www.w3.org/Graphics/SVG/1.1/DTD/svg11.dtd">
<!-- Generated by graphviz version 2.40.1 (20161225.0304)
 -->
<!-- Title: bd_find_dozer Pages: 1 -->
<svg width="434pt" height="47pt"
 viewBox="0.00 0.00 434.00 47.00" xmlns="http://www.w3.org/2000/svg" xmlns:xlink="http://www.w3.org/1999/xlink">
<g id="graph0" class="graph" transform="scale(1 1) rotate(0) translate(4 43)">
<title>bd_find_dozer</title>
<!-- Node350 -->
<g id="node1" class="node">
<title>Node350</title>
<polygon fill="#bfbfbf" stroke="#000000" points="0,-19.5 0,-38.5 84,-38.5 84,-19.5 0,-19.5"/>
<text text-anchor="middle" x="42" y="-26.5" font-family="Helvetica,sans-Serif" font-size="10.00" fill="#000000">bd_find_dozer</text>
</g>
<!-- Node351 -->
<g id="node2" class="node">
<title>Node351</title>
<g id="a_node2"><a xlink:href="../../d3/dd5/bd_8qc.html#a273e11f9cb9528a5b2c2f83c333932ca" target="_top" xlink:title="bd_close_editor">
<polygon fill="none" stroke="#000000" points="333,-19.5 333,-38.5 426,-38.5 426,-19.5 333,-19.5"/>
<text text-anchor="middle" x="379.5" y="-26.5" font-family="Helvetica,sans-Serif" font-size="10.00" fill="#000000">bd_close_editor</text>
</a>
</g>
</g>
<!-- Node350&#45;&gt;Node351 -->
<g id="edge1" class="edge">
<title>Node350&#45;&gt;Node351</title>
<path fill="none" stroke="#191970" d="M94.1329,-29C159.4076,-29 270.2409,-29 332.84,-29"/>
<polygon fill="#191970" stroke="#191970" points="94.0622,-25.5001 84.0622,-29 94.0622,-32.5001 94.0622,-25.5001"/>
</g>
<!-- Node352 -->
<g id="node3" class="node">
<title>Node352</title>
<g id="a_node3"><a xlink:href="../../d3/dd5/bd_8qc.html#a32babbdca50e13b2b3c89df082b135e1" target="_top" xlink:title="bd_move">
<polygon fill="none" stroke="#000000" points="120,-.5 120,-19.5 182,-19.5 182,-.5 120,-.5"/>
<text text-anchor="middle" x="151" y="-7.5" font-family="Helvetica,sans-Serif" font-size="10.00" fill="#000000">bd_move</text>
</a>
</g>
</g>
<!-- Node350&#45;&gt;Node352 -->
<g id="edge2" class="edge">
<title>Node350&#45;&gt;Node352</title>
<path fill="none" stroke="#191970" d="M94.0081,-19.9344C102.8229,-18.3978 111.7249,-16.8461 119.7889,-15.4405"/>
<polygon fill="#191970" stroke="#191970" points="93.3926,-16.4888 84.1422,-21.6541 94.5948,-23.3848 93.3926,-16.4888"/>
</g>
<!-- Node353 -->
<g id="node4" class="node">
<title>Node353</title>
<g id="a_node4"><a xlink:href="../../d3/dd5/bd_8qc.html#af705b37887012620d8ad7688a8570fb1" target="_top" xlink:title="bd_do_move">
<polygon fill="none" stroke="#000000" points="218,-.5 218,-19.5 297,-19.5 297,-.5 218,-.5"/>
<text text-anchor="middle" x="257.5" y="-7.5" font-family="Helvetica,sans-Serif" font-size="10.00" fill="#000000">bd_do_move</text>
</a>
</g>
</g>
<!-- Node352&#45;&gt;Node353 -->
<g id="edge3" class="edge">
<title>Node352&#45;&gt;Node353</title>
<path fill="none" stroke="#191970" d="M192.1165,-10C200.561,-10 209.4356,-10 217.828,-10"/>
<polygon fill="#191970" stroke="#191970" points="192.0905,-6.5001 182.0905,-10 192.0905,-13.5001 192.0905,-6.5001"/>
</g>
<!-- Node353&#45;&gt;Node351 -->
<g id="edge4" class="edge">
<title>Node353&#45;&gt;Node351</title>
<path fill="none" stroke="#191970" d="M307.2456,-17.7473C315.7147,-19.0662 324.4836,-20.4319 332.8684,-21.7377"/>
<polygon fill="#191970" stroke="#191970" points="307.5294,-14.2494 297.1099,-16.1688 306.4522,-21.166 307.5294,-14.2494"/>
</g>
</g>
</svg>
