<?xml version="1.0" encoding="UTF-8" standalone="no"?>
<!DOCTYPE svg PUBLIC "-//W3C//DTD SVG 1.1//EN"
 "http://www.w3.org/Graphics/SVG/1.1/DTD/svg11.dtd">
<!-- Generated by graphviz version 2.40.1 (20161225.0304)
 -->
<!-- Title: havocbot_role_ons_offense Pages: 1 -->
<!--zoomable 116 -->
<svg id="main" version="1.1" xmlns="http://www.w3.org/2000/svg" xmlns:xlink="http://www.w3.org/1999/xlink" xml:space="preserve" onload="init(evt)">
<style type="text/css"><![CDATA[
.edge:hover path { stroke: red; }
.edge:hover polygon { stroke: red; fill: red; }
]]></style>
<script type="text/javascript"><![CDATA[
var edges = document.getElementsByTagName('g');
if (edges && edges.length) {
  for (var i=0;i<edges.length;i++) {
    if (edges[i].id.substr(0,4)=='edge') {
      edges[i].setAttribute('class','edge');
    }
  }
}
]]></script>
        <defs>
                <circle id="rim" cx="0" cy="0" r="7"/>
                <circle id="rim2" cx="0" cy="0" r="3.5"/>
                <g id="zoomPlus">
                        <use xlink:href="#rim" fill="#404040">
                                <set attributeName="fill" to="#808080" begin="zoomplus.mouseover" end="zoomplus.mouseout"/>
                        </use>
                        <path d="M-4,0h8M0,-4v8" fill="none" stroke="white" stroke-width="1.5" pointer-events="none"/>
                </g>
                <g id="zoomMin">
                        <use xlink:href="#rim" fill="#404040">
                                <set attributeName="fill" to="#808080" begin="zoomminus.mouseover" end="zoomminus.mouseout"/>
                        </use>
                        <path d="M-4,0h8" fill="none" stroke="white" stroke-width="1.5" pointer-events="none"/>
                </g>
                <g id="dirArrow">
                        <path fill="none" stroke="white" stroke-width="1.5" d="M0,-3.0v7 M-2.5,-0.5L0,-3.0L2.5,-0.5"/>
                </g>
               <g id="resetDef">
                       <use xlink:href="#rim2" fill="#404040">
                               <set attributeName="fill" to="#808080" begin="reset.mouseover" end="reset.mouseout"/>
                       </use>
               </g>
        </defs>

<script type="text/javascript">
var viewWidth = 708;
var viewHeight = 116;
var sectionId = 'dynsection-11';
</script>
<script xlink:href="../../svgpan.js"/>
<svg id="graph" class="graph">
<g id="viewport">
<title>havocbot_role_ons_offense</title>
<!-- Node171 -->
<g id="node1" class="node">
<title>Node171</title>
<polygon fill="#bfbfbf" stroke="#000000" points="0,-60.5 0,-79.5 149,-79.5 149,-60.5 0,-60.5"/>
<text text-anchor="middle" x="74.5" y="-67.5" font-family="Helvetica,sans-Serif" font-size="10.00" fill="#000000">havocbot_role_ons_offense</text>
</g>
<!-- Node172 -->
<g id="node2" class="node">
<title>Node172</title>
<g id="a_node2"><a xlink:href="../../d0/de4/sv__onslaught_8qc.html#a2162e5e10c6371e662d77220d09fad9f" target="_top" xlink:title="havocbot_goalrating\l_ons_controlpoints_attack">
<polygon fill="none" stroke="#000000" points="186.5,-77 186.5,-107 330.5,-107 330.5,-77 186.5,-77"/>
<text text-anchor="start" x="194.5" y="-95" font-family="Helvetica,sans-Serif" font-size="10.00" fill="#000000">havocbot_goalrating</text>
<text text-anchor="middle" x="258.5" y="-84" font-family="Helvetica,sans-Serif" font-size="10.00" fill="#000000">_ons_controlpoints_attack</text>
</a>
</g>
</g>
<!-- Node171&#45;&gt;Node172 -->
<g id="edge1" class="edge">
<title>Node171&#45;&gt;Node172</title>
<path fill="none" stroke="#191970" d="M159.0896,-73.3835C168.7555,-74.4882 178.5312,-75.706 187.9861,-76.9853"/>
<polygon fill="#191970" stroke="#191970" points="159.3989,-69.8964 149.0746,-72.2753 158.629,-76.854 159.3989,-69.8964"/>
</g>
<!-- Node173 -->
<g id="node3" class="node">
<title>Node173</title>
<g id="a_node3"><a xlink:href="../../d0/de4/sv__onslaught_8qc.html#a360ee86718d1d90b3d6bf02c731d164b" target="_top" xlink:title="havocbot_role_ons_setrole">
<polygon fill="none" stroke="#000000" points="185,-38.5 185,-57.5 332,-57.5 332,-38.5 185,-38.5"/>
<text text-anchor="middle" x="258.5" y="-45.5" font-family="Helvetica,sans-Serif" font-size="10.00" fill="#000000">havocbot_role_ons_setrole</text>
</a>
</g>
</g>
<!-- Node171&#45;&gt;Node173 -->
<g id="edge3" class="edge">
<title>Node171&#45;&gt;Node173</title>
<path fill="none" stroke="#191970" d="M159.0683,-59.8886C167.6306,-58.8648 176.2793,-57.8307 184.7152,-56.8221"/>
<polygon fill="#191970" stroke="#191970" points="158.5883,-56.4209 149.0746,-61.0835 159.4194,-63.3714 158.5883,-56.4209"/>
</g>
<!-- Node172&#45;&gt;Node171 -->
<g id="edge2" class="edge">
<title>Node172&#45;&gt;Node171</title>
<path fill="none" stroke="#191970" d="M176.2707,-88.8843C152.6434,-86.224 128.1467,-82.8602 109.109,-79.5495"/>
<polygon fill="#191970" stroke="#191970" points="176.0048,-92.3759 186.325,-89.9791 176.7627,-85.4171 176.0048,-92.3759"/>
</g>
<!-- Node174 -->
<g id="node4" class="node">
<title>Node174</title>
<g id="a_node4"><a xlink:href="../../d7/dd0/sv__onslaught_8qh.html#ae3892bcbd6e838183c105330ce7374a0" target="_top" xlink:title="havocbot_ons_reset_role">
<polygon fill="none" stroke="#000000" points="368,-.5 368,-19.5 506,-19.5 506,-.5 368,-.5"/>
<text text-anchor="middle" x="437" y="-7.5" font-family="Helvetica,sans-Serif" font-size="10.00" fill="#000000">havocbot_ons_reset_role</text>
</a>
</g>
</g>
<!-- Node173&#45;&gt;Node174 -->
<g id="edge4" class="edge">
<title>Node173&#45;&gt;Node174</title>
<path fill="none" stroke="#191970" d="M313.3699,-36.319C338.6836,-30.9301 368.3529,-24.6139 392.2808,-19.5201"/>
<polygon fill="#191970" stroke="#191970" points="312.5951,-32.9054 303.5431,-38.411 314.0527,-39.752 312.5951,-32.9054"/>
</g>
<!-- Node174&#45;&gt;Node171 -->
<g id="edge9" class="edge">
<title>Node174&#45;&gt;Node171</title>
<path fill="none" stroke="#191970" d="M357.6863,-10.3164C307.6463,-11.9042 241.9404,-16.5492 185,-29 152.6167,-36.081 116.9686,-50.6187 95.1557,-60.34"/>
<polygon fill="#191970" stroke="#191970" points="357.9007,-13.8118 367.7976,-10.0302 357.7025,-6.8146 357.9007,-13.8118"/>
</g>
<!-- Node175 -->
<g id="node5" class="node">
<title>Node175</title>
<g id="a_node5"><a xlink:href="../../d7/dd0/sv__onslaught_8qh.html#af54132466fbe97816d84f69960ffaf65" target="_top" xlink:title="havocbot_role_ons_assistant">
<polygon fill="none" stroke="#000000" points="542,-76.5 542,-95.5 700,-95.5 700,-76.5 542,-76.5"/>
<text text-anchor="middle" x="621" y="-83.5" font-family="Helvetica,sans-Serif" font-size="10.00" fill="#000000">havocbot_role_ons_assistant</text>
</a>
</g>
</g>
<!-- Node174&#45;&gt;Node175 -->
<g id="edge5" class="edge">
<title>Node174&#45;&gt;Node175</title>
<path fill="none" stroke="#191970" d="M460.4344,-25.0427C481.1703,-37.7785 512.615,-55.7146 542,-67 551.6131,-70.6919 562.1675,-73.8233 572.3448,-76.4135"/>
<polygon fill="#191970" stroke="#191970" points="462.0437,-21.9216 451.7064,-19.5997 458.3395,-27.8612 462.0437,-21.9216"/>
</g>
<!-- Node176 -->
<g id="node6" class="node">
<title>Node176</title>
<g id="a_node6"><a xlink:href="../../d7/dd0/sv__onslaught_8qh.html#acdf185a2c6ffdd3a60599b3f8bd44d64" target="_top" xlink:title="havocbot_role_ons_defense">
<polygon fill="none" stroke="#000000" points="545,-38.5 545,-57.5 697,-57.5 697,-38.5 545,-38.5"/>
<text text-anchor="middle" x="621" y="-45.5" font-family="Helvetica,sans-Serif" font-size="10.00" fill="#000000">havocbot_role_ons_defense</text>
</a>
</g>
</g>
<!-- Node174&#45;&gt;Node176 -->
<g id="edge7" class="edge">
<title>Node174&#45;&gt;Node176</title>
<path fill="none" stroke="#191970" d="M493.5606,-21.681C519.6542,-27.0699 550.2378,-33.3861 574.9029,-38.4799"/>
<polygon fill="#191970" stroke="#191970" points="493.9322,-18.184 483.431,-19.589 492.5164,-25.0393 493.9322,-18.184"/>
</g>
<!-- Node177 -->
<g id="node7" class="node">
<title>Node177</title>
<g id="a_node7"><a xlink:href="../../d0/de4/sv__onslaught_8qc.html#ab7605909625a2540be9c13415706209d" target="_top" xlink:title="MUTATOR_HOOKFUNCTION">
<polygon fill="none" stroke="#000000" points="546.5,-.5 546.5,-19.5 695.5,-19.5 695.5,-.5 546.5,-.5"/>
<text text-anchor="middle" x="621" y="-7.5" font-family="Helvetica,sans-Serif" font-size="10.00" fill="#000000">MUTATOR_HOOKFUNCTION</text>
</a>
</g>
</g>
<!-- Node174&#45;&gt;Node177 -->
<g id="edge10" class="edge">
<title>Node174&#45;&gt;Node177</title>
<path fill="none" stroke="#191970" d="M516.3259,-10C526.2874,-10 536.4509,-10 546.3374,-10"/>
<polygon fill="#191970" stroke="#191970" points="516.0383,-6.5001 506.0383,-10 516.0383,-13.5001 516.0383,-6.5001"/>
</g>
<!-- Node175&#45;&gt;Node173 -->
<g id="edge6" class="edge">
<title>Node175&#45;&gt;Node173</title>
<path fill="none" stroke="#191970" d="M531.5903,-78.2341C483.1375,-73.8453 422.2428,-68.0387 368,-62 355.8096,-60.6429 342.8707,-59.0893 330.3193,-57.5223"/>
<polygon fill="#191970" stroke="#191970" points="531.46,-81.7364 541.7339,-79.1487 532.0886,-74.7647 531.46,-81.7364"/>
</g>
<!-- Node176&#45;&gt;Node173 -->
<g id="edge8" class="edge">
<title>Node176&#45;&gt;Node173</title>
<path fill="none" stroke="#191970" d="M534.71,-48C473.0383,-48 390.9264,-48 332.2942,-48"/>
<polygon fill="#191970" stroke="#191970" points="534.8123,-51.5001 544.8122,-48 534.8122,-44.5001 534.8123,-51.5001"/>
</g>
</g>
</svg>
        <g id="navigator" transform="translate(0 0)" fill="#404254">
                <rect fill="#f2f5e9" fill-opacity="0.5" stroke="#606060" stroke-width=".5" x="0" y="0" width="60" height="60"/>
                <use id="zoomplus" xlink:href="#zoomPlus" x="17" y="9" onmousedown="handleZoom(evt,'in')"/>
                <use id="zoomminus" xlink:href="#zoomMin" x="42" y="9" onmousedown="handleZoom(evt,'out')"/>
                <use id="reset" xlink:href="#resetDef" x="30" y="36" onmousedown="handleReset()"/>
                <g id="arrowUp" xlink:href="#dirArrow" transform="translate(30 24)" onmousedown="handlePan(0,-1)">
                  <use xlink:href="#rim" fill="#404040">
                        <set attributeName="fill" to="#808080" begin="arrowUp.mouseover" end="arrowUp.mouseout"/>
                  </use>
                  <path fill="none" stroke="white" stroke-width="1.5" d="M0,-3.0v7 M-2.5,-0.5L0,-3.0L2.5,-0.5"/>
                </g>
                <g id="arrowRight" xlink:href="#dirArrow" transform="rotate(90) translate(36 -43)" onmousedown="handlePan(1,0)">
                  <use xlink:href="#rim" fill="#404040">
                        <set attributeName="fill" to="#808080" begin="arrowRight.mouseover" end="arrowRight.mouseout"/>
                  </use>
                  <path fill="none" stroke="white" stroke-width="1.5" d="M0,-3.0v7 M-2.5,-0.5L0,-3.0L2.5,-0.5"/>
                </g>
                <g id="arrowDown" xlink:href="#dirArrow" transform="rotate(180) translate(-30 -48)" onmousedown="handlePan(0,1)">
                  <use xlink:href="#rim" fill="#404040">
                        <set attributeName="fill" to="#808080" begin="arrowDown.mouseover" end="arrowDown.mouseout"/>
                  </use>
                  <path fill="none" stroke="white" stroke-width="1.5" d="M0,-3.0v7 M-2.5,-0.5L0,-3.0L2.5,-0.5"/>
                </g>
                <g id="arrowLeft" xlink:href="#dirArrow" transform="rotate(270) translate(-36 17)" onmousedown="handlePan(-1,0)">
                  <use xlink:href="#rim" fill="#404040">
                        <set attributeName="fill" to="#808080" begin="arrowLeft.mouseover" end="arrowLeft.mouseout"/>
                  </use>
                  <path fill="none" stroke="white" stroke-width="1.5" d="M0,-3.0v7 M-2.5,-0.5L0,-3.0L2.5,-0.5"/>
                </g>
        </g>
        <svg viewBox="0 0 15 15" width="100%" height="30px" preserveAspectRatio="xMaxYMin meet">
         <g id="arrow_out" transform="scale(0.3 0.3)">
          <a xlink:href="sv__onslaught_8qh_a01c98ce49147346d16b791a900bc9d26_icgraph_org.svg" target="_base">
           <rect id="button" ry="5" rx="5" y="6" x="6" height="38" width="38"
                fill="#f2f5e9" fill-opacity="0.5" stroke="#606060" stroke-width="1.0"/>
           <path id="arrow"
             d="M 11.500037,31.436501 C 11.940474,20.09759 22.043105,11.32322 32.158766,21.979434 L 37.068811,17.246167 C 37.068811,17.246167 37.088388,32 37.088388,32 L 22.160133,31.978069 C 22.160133,31.978069 26.997745,27.140456 26.997745,27.140456 C 18.528582,18.264221 13.291696,25.230495 11.500037,31.436501 z"
             style="fill:#404040;"/>
          </a>
         </g>
        </svg>
</svg>
