<?xml version="1.0" encoding="UTF-8" standalone="no"?>
<!DOCTYPE svg PUBLIC "-//W3C//DTD SVG 1.1//EN"
 "http://www.w3.org/Graphics/SVG/1.1/DTD/svg11.dtd">
<!-- Generated by graphviz version 2.40.1 (20161225.0304)
 -->
<!-- Title: isInvisibleString Pages: 1 -->
<svg width="335pt" height="28pt"
 viewBox="0.00 0.00 335.00 28.00" xmlns="http://www.w3.org/2000/svg" xmlns:xlink="http://www.w3.org/1999/xlink">
<g id="graph0" class="graph" transform="scale(1 1) rotate(0) translate(4 24)">
<title>isInvisibleString</title>
<!-- Node1216 -->
<g id="node1" class="node">
<title>Node1216</title>
<polygon fill="#bfbfbf" stroke="#000000" points="0,-.5 0,-19.5 95,-19.5 95,-.5 0,-.5"/>
<text text-anchor="middle" x="47.5" y="-7.5" font-family="Helvetica,sans-Serif" font-size="10.00" fill="#000000">isInvisibleString</text>
</g>
<!-- Node1217 -->
<g id="node2" class="node">
<title>Node1217</title>
<g id="a_node2"><a xlink:href="../../df/dd7/server_2client_8qc.html#ac4842064b7f7b032f654e24f1fa5a155" target="_top" xlink:title="PlayerPreThink">
<polygon fill="none" stroke="#000000" points="131,-.5 131,-19.5 221,-19.5 221,-.5 131,-.5"/>
<text text-anchor="middle" x="176" y="-7.5" font-family="Helvetica,sans-Serif" font-size="10.00" fill="#000000">PlayerPreThink</text>
</a>
</g>
</g>
<!-- Node1216&#45;&gt;Node1217 -->
<g id="edge1" class="edge">
<title>Node1216&#45;&gt;Node1217</title>
<path fill="none" stroke="#191970" d="M105.5238,-10C113.9568,-10 122.5341,-10 130.6675,-10"/>
<polygon fill="#191970" stroke="#191970" points="105.3487,-6.5001 95.3487,-10 105.3486,-13.5001 105.3487,-6.5001"/>
</g>
<!-- Node1218 -->
<g id="node3" class="node">
<title>Node1218</title>
<g id="a_node3"><a xlink:href="../../db/d95/server_2main_8qc.html#a554af7e2ac58045168dad9eca30bc8b1" target="_top" xlink:title="StartFrame">
<polygon fill="none" stroke="#000000" points="257,-.5 257,-19.5 327,-19.5 327,-.5 257,-.5"/>
<text text-anchor="middle" x="292" y="-7.5" font-family="Helvetica,sans-Serif" font-size="10.00" fill="#000000">StartFrame</text>
</a>
</g>
</g>
<!-- Node1217&#45;&gt;Node1218 -->
<g id="edge2" class="edge">
<title>Node1217&#45;&gt;Node1218</title>
<path fill="none" stroke="#191970" d="M231.2953,-10C239.983,-10 248.7519,-10 256.8198,-10"/>
<polygon fill="#191970" stroke="#191970" points="231.1808,-6.5001 221.1808,-10 231.1808,-13.5001 231.1808,-6.5001"/>
</g>
</g>
</svg>
