<?xml version="1.0" encoding="UTF-8" standalone="no"?>
<!DOCTYPE svg PUBLIC "-//W3C//DTD SVG 1.1//EN"
 "http://www.w3.org/Graphics/SVG/1.1/DTD/svg11.dtd">
<!-- Generated by graphviz version 2.36.0 (20140111.2315)
 -->
<!-- Title: common/weapons/weapon/devastator.qc Pages: 1 -->
<svg width="372pt" height="332pt"
 viewBox="0.00 0.00 372.00 332.00" xmlns="http://www.w3.org/2000/svg" xmlns:xlink="http://www.w3.org/1999/xlink">
<g id="graph0" class="graph" transform="scale(1 1) rotate(0) translate(4 328)">
<title>common/weapons/weapon/devastator.qc</title>
<!-- Node1 -->
<g id="node1" class="node"><title>Node1</title>
<polygon fill="#bfbfbf" stroke="black" points="151.5,-293 151.5,-323 284.5,-323 284.5,-293 151.5,-293"/>
<text text-anchor="start" x="159.5" y="-311" font-family="Helvetica,sans-Serif" font-size="10.00">common/weapons/weapon</text>
<text text-anchor="middle" x="218" y="-300" font-family="Helvetica,sans-Serif" font-size="10.00">/devastator.qc</text>
</g>
<!-- Node2 -->
<g id="node2" class="node"><title>Node2</title>
<g id="a_node2"><a xlink:href="../../d5/dfa/common_2weapons_2weapon_2__mod_8inc.html" target="_top" xlink:title="common/weapons/weapon\l/_mod.inc">
<polygon fill="none" stroke="black" points="151.5,-225 151.5,-255 284.5,-255 284.5,-225 151.5,-225"/>
<text text-anchor="start" x="159.5" y="-243" font-family="Helvetica,sans-Serif" font-size="10.00">common/weapons/weapon</text>
<text text-anchor="middle" x="218" y="-232" font-family="Helvetica,sans-Serif" font-size="10.00">/_mod.inc</text>
</a>
</g>
</g>
<!-- Node1&#45;&gt;Node2 -->
<g id="edge1" class="edge"><title>Node1&#45;&gt;Node2</title>
<path fill="none" stroke="midnightblue" d="M218,-282.532C218,-273.361 218,-263.245 218,-255.293"/>
<polygon fill="midnightblue" stroke="midnightblue" points="214.5,-282.679 218,-292.679 221.5,-282.679 214.5,-282.679"/>
</g>
<!-- Node3 -->
<g id="node3" class="node"><title>Node3</title>
<g id="a_node3"><a xlink:href="../../d0/d2b/weapons_2all_8qc.html" target="_top" xlink:title="common/weapons/all.qc">
<polygon fill="none" stroke="black" points="157,-168.5 157,-187.5 279,-187.5 279,-168.5 157,-168.5"/>
<text text-anchor="middle" x="218" y="-175.5" font-family="Helvetica,sans-Serif" font-size="10.00">common/weapons/all.qc</text>
</a>
</g>
</g>
<!-- Node2&#45;&gt;Node3 -->
<g id="edge2" class="edge"><title>Node2&#45;&gt;Node3</title>
<path fill="none" stroke="midnightblue" d="M218,-214.586C218,-205.074 218,-194.786 218,-187.731"/>
<polygon fill="midnightblue" stroke="midnightblue" points="214.5,-214.781 218,-224.781 221.5,-214.781 214.5,-214.781"/>
</g>
<!-- Node4 -->
<g id="node4" class="node"><title>Node4</title>
<g id="a_node4"><a xlink:href="../../de/d7e/common_2weapons_2__all_8inc.html" target="_top" xlink:title="common/weapons/_all.inc">
<polygon fill="none" stroke="black" points="77,-112.5 77,-131.5 207,-131.5 207,-112.5 77,-112.5"/>
<text text-anchor="middle" x="142" y="-119.5" font-family="Helvetica,sans-Serif" font-size="10.00">common/weapons/_all.inc</text>
</a>
</g>
</g>
<!-- Node3&#45;&gt;Node4 -->
<g id="edge3" class="edge"><title>Node3&#45;&gt;Node4</title>
<path fill="none" stroke="midnightblue" d="M197.424,-162.38C183.688,-152.62 166.075,-140.106 154.433,-131.834"/>
<polygon fill="midnightblue" stroke="midnightblue" points="195.61,-165.385 205.789,-168.324 199.665,-159.679 195.61,-165.385"/>
</g>
<!-- Node9 -->
<g id="node9" class="node"><title>Node9</title>
<g id="a_node9"><a xlink:href="../../d5/d68/common_2weapons_2__mod_8inc.html" target="_top" xlink:title="common/weapons/_mod.inc">
<polygon fill="none" stroke="black" points="225.5,-112.5 225.5,-131.5 364.5,-131.5 364.5,-112.5 225.5,-112.5"/>
<text text-anchor="middle" x="295" y="-119.5" font-family="Helvetica,sans-Serif" font-size="10.00">common/weapons/_mod.inc</text>
</a>
</g>
</g>
<!-- Node3&#45;&gt;Node9 -->
<g id="edge8" class="edge"><title>Node3&#45;&gt;Node9</title>
<path fill="none" stroke="midnightblue" d="M238.901,-162.342C252.911,-152.517 270.883,-139.913 282.659,-131.655"/>
<polygon fill="midnightblue" stroke="midnightblue" points="236.549,-159.717 230.371,-168.324 240.568,-165.448 236.549,-159.717"/>
</g>
<!-- Node5 -->
<g id="node5" class="node"><title>Node5</title>
<g id="a_node5"><a xlink:href="../../d9/d76/common_2__all_8inc.html" target="_top" xlink:title="common/_all.inc">
<polygon fill="none" stroke="black" points="98,-56.5 98,-75.5 186,-75.5 186,-56.5 98,-56.5"/>
<text text-anchor="middle" x="142" y="-63.5" font-family="Helvetica,sans-Serif" font-size="10.00">common/_all.inc</text>
</a>
</g>
</g>
<!-- Node4&#45;&gt;Node5 -->
<g id="edge4" class="edge"><title>Node4&#45;&gt;Node5</title>
<path fill="none" stroke="midnightblue" d="M142,-101.805C142,-92.9102 142,-82.7798 142,-75.7511"/>
<polygon fill="midnightblue" stroke="midnightblue" points="138.5,-102.083 142,-112.083 145.5,-102.083 138.5,-102.083"/>
</g>
<!-- Node6 -->
<g id="node6" class="node"><title>Node6</title>
<g id="a_node6"><a xlink:href="../../d3/dfc/client_2progs_8inc.html" target="_top" xlink:title="client/progs.inc">
<polygon fill="none" stroke="black" points="-0.5,-0.5 -0.5,-19.5 82.5,-19.5 82.5,-0.5 -0.5,-0.5"/>
<text text-anchor="middle" x="41" y="-7.5" font-family="Helvetica,sans-Serif" font-size="10.00">client/progs.inc</text>
</a>
</g>
</g>
<!-- Node5&#45;&gt;Node6 -->
<g id="edge5" class="edge"><title>Node5&#45;&gt;Node6</title>
<path fill="none" stroke="midnightblue" d="M116.917,-51.5895C98.243,-41.6052 73.296,-28.2672 57.1871,-19.6545"/>
<polygon fill="midnightblue" stroke="midnightblue" points="115.304,-54.6955 125.773,-56.324 118.604,-48.5224 115.304,-54.6955"/>
</g>
<!-- Node7 -->
<g id="node7" class="node"><title>Node7</title>
<g id="a_node7"><a xlink:href="../../d3/d70/menu_2progs_8inc.html" target="_top" xlink:title="menu/progs.inc">
<polygon fill="none" stroke="black" points="100.5,-0.5 100.5,-19.5 183.5,-19.5 183.5,-0.5 100.5,-0.5"/>
<text text-anchor="middle" x="142" y="-7.5" font-family="Helvetica,sans-Serif" font-size="10.00">menu/progs.inc</text>
</a>
</g>
</g>
<!-- Node5&#45;&gt;Node7 -->
<g id="edge6" class="edge"><title>Node5&#45;&gt;Node7</title>
<path fill="none" stroke="midnightblue" d="M142,-45.8045C142,-36.9102 142,-26.7798 142,-19.7511"/>
<polygon fill="midnightblue" stroke="midnightblue" points="138.5,-46.083 142,-56.083 145.5,-46.083 138.5,-46.083"/>
</g>
<!-- Node8 -->
<g id="node8" class="node"><title>Node8</title>
<g id="a_node8"><a xlink:href="../../dd/d96/server_2progs_8inc.html" target="_top" xlink:title="server/progs.inc">
<polygon fill="none" stroke="black" points="202,-0.5 202,-19.5 288,-19.5 288,-0.5 202,-0.5"/>
<text text-anchor="middle" x="245" y="-7.5" font-family="Helvetica,sans-Serif" font-size="10.00">server/progs.inc</text>
</a>
</g>
</g>
<!-- Node5&#45;&gt;Node8 -->
<g id="edge7" class="edge"><title>Node5&#45;&gt;Node8</title>
<path fill="none" stroke="midnightblue" d="M167.579,-51.5895C186.623,-41.6052 212.064,-28.2672 228.492,-19.6545"/>
<polygon fill="midnightblue" stroke="midnightblue" points="165.78,-48.5808 158.549,-56.324 169.031,-54.7805 165.78,-48.5808"/>
</g>
</g>
</svg>
