<?xml version="1.0" encoding="UTF-8" standalone="no"?>
<!DOCTYPE svg PUBLIC "-//W3C//DTD SVG 1.1//EN"
 "http://www.w3.org/Graphics/SVG/1.1/DTD/svg11.dtd">
<!-- Generated by graphviz version 2.38.0 (20140413.2041)
 -->
<!-- Title: _GameRules_scoring_add Pages: 1 -->
<!--zoomable 574 -->
<svg id="main" version="1.1" xmlns="http://www.w3.org/2000/svg" xmlns:xlink="http://www.w3.org/1999/xlink" xml:space="preserve" onload="init(evt)">
<style type="text/css"><![CDATA[
.edge:hover path { stroke: red; }
.edge:hover polygon { stroke: red; fill: red; }
]]></style>
<script type="text/javascript"><![CDATA[
var edges = document.getElementsByTagName('g');
if (edges && edges.length) {
  for (var i=0;i<edges.length;i++) {
    if (edges[i].id.substr(0,4)=='edge') {
      edges[i].setAttribute('class','edge');
    }
  }
}
]]></script>
        <defs>
                <circle id="rim" cx="0" cy="0" r="7"/>
                <circle id="rim2" cx="0" cy="0" r="3.5"/>
                <g id="zoomPlus">
                        <use xlink:href="#rim" fill="#404040">
                                <set attributeName="fill" to="#808080" begin="zoomplus.mouseover" end="zoomplus.mouseout"/>
                        </use>
                        <path d="M-4,0h8M0,-4v8" fill="none" stroke="white" stroke-width="1.5" pointer-events="none"/>
                </g>
                <g id="zoomMin">
                        <use xlink:href="#rim" fill="#404040">
                                <set attributeName="fill" to="#808080" begin="zoomminus.mouseover" end="zoomminus.mouseout"/>
                        </use>
                        <path d="M-4,0h8" fill="none" stroke="white" stroke-width="1.5" pointer-events="none"/>
                </g>
                <g id="dirArrow">
                        <path fill="none" stroke="white" stroke-width="1.5" d="M0,-3.0v7 M-2.5,-0.5L0,-3.0L2.5,-0.5"/>
                </g>
               <g id="resetDef">
                       <use xlink:href="#rim2" fill="#404040">
                               <set attributeName="fill" to="#808080" begin="reset.mouseover" end="reset.mouseout"/>
                       </use>
               </g>
        </defs>

<script type="text/javascript">
var viewWidth = 1702;
var viewHeight = 574;
var sectionId = 'dynsection-1';
</script>
<script xlink:href="../../svgpan.js"/>
<svg id="graph" class="graph">
<g id="viewport">
<title>_GameRules_scoring_add</title>
<!-- Node1 -->
<g id="node1" class="node"><title>Node1</title>
<polygon fill="#bfbfbf" stroke="black" points="0,-343.5 0,-362.5 139,-362.5 139,-343.5 0,-343.5"/>
<text text-anchor="middle" x="69.5" y="-350.5" font-family="Helvetica,sans-Serif" font-size="10.00">_GameRules_scoring_add</text>
</g>
<!-- Node2 -->
<g id="node2" class="node"><title>Node2</title>
<g id="a_node2"><a xlink:href="../../d2/d79/scores_8qc.html#aebb89cf706a7b2fe6037e3ab4e56dfe4" target="_top" xlink:title="Adds a score to the player&#39;s scores. ">
<polygon fill="none" stroke="black" points="175,-343.5 175,-362.5 273,-362.5 273,-343.5 175,-343.5"/>
<text text-anchor="middle" x="224" y="-350.5" font-family="Helvetica,sans-Serif" font-size="10.00">PlayerScore_Add</text>
</a>
</g>
</g>
<!-- Node1&#45;&gt;Node2 -->
<g id="edge1" class="edge"><title>Node1&#45;&gt;Node2</title>
<path fill="none" stroke="midnightblue" d="M139.166,-353C147.709,-353 156.381,-353 164.745,-353"/>
<polygon fill="midnightblue" stroke="midnightblue" points="164.768,-356.5 174.768,-353 164.768,-349.5 164.768,-356.5"/>
</g>
<!-- Node3 -->
<g id="node3" class="node"><title>Node3</title>
<g id="a_node3"><a xlink:href="../../d4/d0c/csprogsdefs_8qc.html#acbb54a239d76062465dccbc6a6c6e464" target="_top" xlink:title="entity">
<polygon fill="none" stroke="black" points="407,-438.5 407,-457.5 451,-457.5 451,-438.5 407,-438.5"/>
<text text-anchor="middle" x="429" y="-445.5" font-family="Helvetica,sans-Serif" font-size="10.00">entity</text>
</a>
</g>
</g>
<!-- Node2&#45;&gt;Node3 -->
<g id="edge2" class="edge"><title>Node2&#45;&gt;Node3</title>
<path fill="none" stroke="midnightblue" d="M244.846,-362.525C273.511,-376.252 328.201,-402.33 375,-424 382.184,-427.326 389.937,-430.866 397.237,-434.175"/>
<polygon fill="midnightblue" stroke="midnightblue" points="396.261,-437.575 406.815,-438.505 399.144,-431.197 396.261,-437.575"/>
</g>
<!-- Node4 -->
<g id="node4" class="node"><title>Node4</title>
<g id="a_node4"><a xlink:href="../../db/d9f/state_8qh.html#afdb90637f8a711359249291ee3b3fde6" target="_top" xlink:title="CS">
<polygon fill="none" stroke="black" points="309,-343.5 309,-362.5 339,-362.5 339,-343.5 309,-343.5"/>
<text text-anchor="middle" x="324" y="-350.5" font-family="Helvetica,sans-Serif" font-size="10.00">CS</text>
</a>
</g>
</g>
<!-- Node2&#45;&gt;Node4 -->
<g id="edge3" class="edge"><title>Node2&#45;&gt;Node4</title>
<path fill="none" stroke="midnightblue" d="M273.139,-353C281.956,-353 290.811,-353 298.56,-353"/>
<polygon fill="midnightblue" stroke="midnightblue" points="298.66,-356.5 308.66,-353 298.66,-349.5 298.66,-356.5"/>
</g>
<!-- Node12 -->
<g id="node12" class="node"><title>Node12</title>
<g id="a_node12"><a xlink:href="../../d9/d09/notifications_2all_8inc.html#ad04f6b1a4889674503c3cdad58c55da1" target="_top" xlink:title="strcat">
<polygon fill="none" stroke="black" points="1611,-186.5 1611,-205.5 1655,-205.5 1655,-186.5 1611,-186.5"/>
<text text-anchor="middle" x="1633" y="-193.5" font-family="Helvetica,sans-Serif" font-size="10.00">strcat</text>
</a>
</g>
</g>
<!-- Node2&#45;&gt;Node12 -->
<g id="edge63" class="edge"><title>Node2&#45;&gt;Node12</title>
<path fill="none" stroke="midnightblue" d="M225.791,-343.19C230.964,-286.178 265.046,-0 428,-0 428,-0 428,-0 588.5,-0 641.403,-0 1492.77,-64.5129 1536,-95 1566.55,-116.539 1544.95,-145.208 1572,-171 1580.17,-178.79 1591.12,-184.309 1601.42,-188.143"/>
<polygon fill="midnightblue" stroke="midnightblue" points="1600.4,-191.492 1610.99,-191.321 1602.61,-184.848 1600.4,-191.492"/>
</g>
<!-- Node4&#45;&gt;Node3 -->
<g id="edge5" class="edge"><title>Node4&#45;&gt;Node3</title>
<path fill="none" stroke="midnightblue" d="M329.819,-362.983C337.506,-378.002 353.859,-406.508 375,-424 381.639,-429.493 389.74,-433.991 397.59,-437.546"/>
<polygon fill="midnightblue" stroke="midnightblue" points="396.348,-440.82 406.926,-441.419 399.03,-434.354 396.348,-440.82"/>
</g>
<!-- Node5 -->
<g id="node5" class="node"><title>Node5</title>
<g id="a_node5"><a xlink:href="../../db/d9f/state_8qh.html#afc32312bf25df126b18e078bedab7837" target="_top" xlink:title="ClientState_attach">
<polygon fill="none" stroke="black" points="376,-324.5 376,-343.5 482,-343.5 482,-324.5 376,-324.5"/>
<text text-anchor="middle" x="429" y="-331.5" font-family="Helvetica,sans-Serif" font-size="10.00">ClientState_attach</text>
</a>
</g>
</g>
<!-- Node4&#45;&gt;Node5 -->
<g id="edge4" class="edge"><title>Node4&#45;&gt;Node5</title>
<path fill="none" stroke="midnightblue" d="M339.322,-350.358C346.618,-349.012 356.047,-347.273 366.023,-345.433"/>
<polygon fill="midnightblue" stroke="midnightblue" points="366.924,-348.826 376.123,-343.57 365.654,-341.942 366.924,-348.826"/>
</g>
<!-- Node6 -->
<g id="node6" class="node"><title>Node6</title>
<g id="a_node6"><a xlink:href="../../db/d9f/state_8qh.html#ae17cd2d1c2291942edc23455fc1db486" target="_top" xlink:title="ClientState_detach">
<polygon fill="none" stroke="black" points="375,-218.5 375,-237.5 483,-237.5 483,-218.5 375,-218.5"/>
<text text-anchor="middle" x="429" y="-225.5" font-family="Helvetica,sans-Serif" font-size="10.00">ClientState_detach</text>
</a>
</g>
</g>
<!-- Node4&#45;&gt;Node6 -->
<g id="edge6" class="edge"><title>Node4&#45;&gt;Node6</title>
<path fill="none" stroke="midnightblue" d="M330.249,-343.443C344.664,-322.072 385.384,-271.942 409.479,-245.15"/>
<polygon fill="midnightblue" stroke="midnightblue" points="412.188,-247.375 416.375,-237.643 407.033,-242.639 412.188,-247.375"/>
</g>
<!-- Node6&#45;&gt;Node4 -->
<g id="edge53" class="edge"><title>Node6&#45;&gt;Node4</title>
<path fill="none" stroke="midnightblue" d="M422.605,-237.773C408.1,-259.209 367.741,-308.895 343.704,-335.646"/>
<polygon fill="midnightblue" stroke="midnightblue" points="340.997,-333.42 336.815,-343.155 346.155,-338.152 340.997,-333.42"/>
</g>
<!-- Node7 -->
<g id="node7" class="node"><title>Node7</title>
<g id="a_node7"><a xlink:href="../../d9/d89/getreplies_8qc.html#a9493fdb8b379fd22c688da7be4fc7782" target="_top" xlink:title="GetCvars">
<polygon fill="none" stroke="black" points="557,-256.5 557,-275.5 618,-275.5 618,-256.5 557,-256.5"/>
<text text-anchor="middle" x="587.5" y="-263.5" font-family="Helvetica,sans-Serif" font-size="10.00">GetCvars</text>
</a>
</g>
</g>
<!-- Node6&#45;&gt;Node7 -->
<g id="edge7" class="edge"><title>Node6&#45;&gt;Node7</title>
<path fill="none" stroke="midnightblue" d="M469.492,-237.589C493.261,-243.361 523.414,-250.682 547.157,-256.447"/>
<polygon fill="midnightblue" stroke="midnightblue" points="546.359,-259.855 556.903,-258.813 548.011,-253.053 546.359,-259.855"/>
</g>
<!-- Node33 -->
<g id="node33" class="node"><title>Node33</title>
<g id="a_node33"><a xlink:href="../../d0/d3f/state_8qc.html#a34f4025222e4edd5d1dcee5b90656bec" target="_top" xlink:title="accuracy_free">
<polygon fill="none" stroke="black" points="546,-218.5 546,-237.5 629,-237.5 629,-218.5 546,-218.5"/>
<text text-anchor="middle" x="587.5" y="-225.5" font-family="Helvetica,sans-Serif" font-size="10.00">accuracy_free</text>
</a>
</g>
</g>
<!-- Node6&#45;&gt;Node33 -->
<g id="edge54" class="edge"><title>Node6&#45;&gt;Node33</title>
<path fill="none" stroke="midnightblue" d="M483.421,-228C500.286,-228 518.869,-228 535.557,-228"/>
<polygon fill="midnightblue" stroke="midnightblue" points="535.67,-231.5 545.67,-228 535.67,-224.5 535.67,-231.5"/>
</g>
<!-- Node34 -->
<g id="node34" class="node"><title>Node34</title>
<g id="a_node34"><a xlink:href="../../d0/d3f/state_8qc.html#a7fd595275a5ab3b24efdf5dc24933c46" target="_top" xlink:title="PlayerScore_Detach">
<polygon fill="none" stroke="black" points="531,-180.5 531,-199.5 644,-199.5 644,-180.5 531,-180.5"/>
<text text-anchor="middle" x="587.5" y="-187.5" font-family="Helvetica,sans-Serif" font-size="10.00">PlayerScore_Detach</text>
</a>
</g>
</g>
<!-- Node6&#45;&gt;Node34 -->
<g id="edge55" class="edge"><title>Node6&#45;&gt;Node34</title>
<path fill="none" stroke="midnightblue" d="M469.492,-218.411C490.143,-213.396 515.614,-207.212 537.512,-201.895"/>
<polygon fill="midnightblue" stroke="midnightblue" points="538.401,-205.281 547.292,-199.52 536.749,-198.479 538.401,-205.281"/>
</g>
<!-- Node35 -->
<g id="node35" class="node"><title>Node35</title>
<g id="a_node35"><a xlink:href="../../d0/d3f/state_8qc.html#a8fe4ed7866766d38e6cf3bfd1c4b239e" target="_top" xlink:title="W_HitPlotClose">
<polygon fill="none" stroke="black" points="543.5,-142.5 543.5,-161.5 631.5,-161.5 631.5,-142.5 543.5,-142.5"/>
<text text-anchor="middle" x="587.5" y="-149.5" font-family="Helvetica,sans-Serif" font-size="10.00">W_HitPlotClose</text>
</a>
</g>
</g>
<!-- Node6&#45;&gt;Node35 -->
<g id="edge56" class="edge"><title>Node6&#45;&gt;Node35</title>
<path fill="none" stroke="midnightblue" d="M442.294,-218.442C458.873,-205.959 489.707,-184.152 519,-171 524.265,-168.636 529.895,-166.496 535.574,-164.578"/>
<polygon fill="midnightblue" stroke="midnightblue" points="536.641,-167.912 545.121,-161.56 534.531,-161.237 536.641,-167.912"/>
</g>
<!-- Node36 -->
<g id="node36" class="node"><title>Node36</title>
<g id="a_node36"><a xlink:href="../../d0/d3f/state_8qc.html#a493d87cfdaad13d4de171211f5f7bc4d" target="_top" xlink:title="ClientData_Detach">
<polygon fill="none" stroke="black" points="534,-362.5 534,-381.5 641,-381.5 641,-362.5 534,-362.5"/>
<text text-anchor="middle" x="587.5" y="-369.5" font-family="Helvetica,sans-Serif" font-size="10.00">ClientData_Detach</text>
</a>
</g>
</g>
<!-- Node6&#45;&gt;Node36 -->
<g id="edge57" class="edge"><title>Node6&#45;&gt;Node36</title>
<path fill="none" stroke="midnightblue" d="M435.845,-237.759C451.824,-264.151 496.541,-336.029 519,-352 522.418,-354.43 526.132,-356.569 530.002,-358.449"/>
<polygon fill="midnightblue" stroke="midnightblue" points="528.675,-361.689 539.247,-362.386 531.418,-355.248 528.675,-361.689"/>
</g>
<!-- Node37 -->
<g id="node37" class="node"><title>Node37</title>
<g id="a_node37"><a xlink:href="../../d0/d3f/state_8qc.html#ac87f3b0e72460f99913d0a56abac6990" target="_top" xlink:title="entcs_detach">
<polygon fill="none" stroke="black" points="547,-104.5 547,-123.5 628,-123.5 628,-104.5 547,-104.5"/>
<text text-anchor="middle" x="587.5" y="-111.5" font-family="Helvetica,sans-Serif" font-size="10.00">entcs_detach</text>
</a>
</g>
</g>
<!-- Node6&#45;&gt;Node37 -->
<g id="edge59" class="edge"><title>Node6&#45;&gt;Node37</title>
<path fill="none" stroke="midnightblue" d="M436.337,-218.288C449.414,-199.03 481.341,-155.892 519,-133 524.53,-129.639 530.673,-126.854 536.938,-124.551"/>
<polygon fill="midnightblue" stroke="midnightblue" points="538.397,-127.756 546.81,-121.316 536.217,-121.105 538.397,-127.756"/>
</g>
<!-- Node38 -->
<g id="node38" class="node"><title>Node38</title>
<g id="a_node38"><a xlink:href="../../d0/d3f/state_8qc.html#ab6fc1ce2d31f2ad186b1180bda5b9021" target="_top" xlink:title="InventoryStorage_detach">
<polygon fill="none" stroke="black" points="519,-66.5 519,-85.5 656,-85.5 656,-66.5 519,-66.5"/>
<text text-anchor="middle" x="587.5" y="-73.5" font-family="Helvetica,sans-Serif" font-size="10.00">InventoryStorage_detach</text>
</a>
</g>
</g>
<!-- Node6&#45;&gt;Node38 -->
<g id="edge60" class="edge"><title>Node6&#45;&gt;Node38</title>
<path fill="none" stroke="midnightblue" d="M433.701,-218.25C443.562,-193.614 472.902,-128.45 519,-95 521.66,-93.0695 524.51,-91.3349 527.481,-89.7763"/>
<polygon fill="midnightblue" stroke="midnightblue" points="529.017,-92.923 536.682,-85.6088 526.128,-86.5466 529.017,-92.923"/>
</g>
<!-- Node39 -->
<g id="node39" class="node"><title>Node39</title>
<g id="a_node39"><a xlink:href="../../d0/d3f/state_8qc.html#ab10bcd46b240e1fd8154de39ddd5c40e" target="_top" xlink:title="bot_clientdisconnect">
<polygon fill="none" stroke="black" points="530,-28.5 530,-47.5 645,-47.5 645,-28.5 530,-28.5"/>
<text text-anchor="middle" x="587.5" y="-35.5" font-family="Helvetica,sans-Serif" font-size="10.00">bot_clientdisconnect</text>
</a>
</g>
</g>
<!-- Node6&#45;&gt;Node39 -->
<g id="edge61" class="edge"><title>Node6&#45;&gt;Node39</title>
<path fill="none" stroke="midnightblue" d="M432.204,-218.136C439.276,-188.828 464.208,-101.549 519,-57 521.258,-55.164 523.683,-53.5052 526.224,-52.0065"/>
<polygon fill="midnightblue" stroke="midnightblue" points="527.856,-55.1039 535.237,-47.5032 524.727,-48.8421 527.856,-55.1039"/>
</g>
<!-- Node40 -->
<g id="node40" class="node"><title>Node40</title>
<g id="a_node40"><a xlink:href="../../d0/d3f/state_8qc.html#abbd5a2c9639d75d5ac7e98fbd60856ab" target="_top" xlink:title="anticheat_report_to\l_eventlog">
<polygon fill="none" stroke="black" points="532,-313 532,-343 643,-343 643,-313 532,-313"/>
<text text-anchor="start" x="540" y="-331" font-family="Helvetica,sans-Serif" font-size="10.00">anticheat_report_to</text>
<text text-anchor="middle" x="587.5" y="-320" font-family="Helvetica,sans-Serif" font-size="10.00">_eventlog</text>
</a>
</g>
</g>
<!-- Node6&#45;&gt;Node40 -->
<g id="edge62" class="edge"><title>Node6&#45;&gt;Node40</title>
<path fill="none" stroke="midnightblue" d="M439.04,-237.513C454.258,-253.062 486.525,-284.082 519,-303 522.584,-305.088 526.373,-307.054 530.253,-308.896"/>
<polygon fill="midnightblue" stroke="midnightblue" points="528.861,-312.107 539.422,-312.965 531.701,-305.709 528.861,-312.107"/>
</g>
<!-- Node7&#45;&gt;Node7 -->
<g id="edge10" class="edge"><title>Node7&#45;&gt;Node7</title>
<path fill="none" stroke="midnightblue" d="M563.148,-275.757C551.301,-284.565 559.418,-294 587.5,-294 605.929,-294 615.76,-289.937 616.992,-284.654"/>
<polygon fill="midnightblue" stroke="midnightblue" points="619.886,-282.665 611.852,-275.757 613.824,-286.167 619.886,-282.665"/>
</g>
<!-- Node8 -->
<g id="node8" class="node"><title>Node8</title>
<g id="a_node8"><a xlink:href="../../d1/dd8/server_2main_8qh.html#a9974b20c57efacc64d84960329620554" target="_top" xlink:title="strcat1">
<polygon fill="none" stroke="black" points="982.5,-196.5 982.5,-215.5 1032.5,-215.5 1032.5,-196.5 982.5,-196.5"/>
<text text-anchor="middle" x="1007.5" y="-203.5" font-family="Helvetica,sans-Serif" font-size="10.00">strcat1</text>
</a>
</g>
</g>
<!-- Node7&#45;&gt;Node8 -->
<g id="edge8" class="edge"><title>Node7&#45;&gt;Node8</title>
<path fill="none" stroke="midnightblue" d="M618.226,-261.733C693.643,-250.908 892.102,-222.421 972.224,-210.92"/>
<polygon fill="midnightblue" stroke="midnightblue" points="972.877,-214.362 982.279,-209.477 971.883,-207.433 972.877,-214.362"/>
</g>
<!-- Node9 -->
<g id="node9" class="node"><title>Node9</title>
<g id="a_node9"><a xlink:href="../../d8/de2/menudefs_8qc.html#ae3e9d36eda7886f5fe58e5201291dd78" target="_top" xlink:title="argv">
<polygon fill="none" stroke="black" points="1614,-142.5 1614,-161.5 1652,-161.5 1652,-142.5 1614,-142.5"/>
<text text-anchor="middle" x="1633" y="-149.5" font-family="Helvetica,sans-Serif" font-size="10.00">argv</text>
</a>
</g>
</g>
<!-- Node7&#45;&gt;Node9 -->
<g id="edge9" class="edge"><title>Node7&#45;&gt;Node9</title>
<path fill="none" stroke="midnightblue" d="M618.206,-263.475C631.125,-261.017 645.644,-256.239 656,-247 687.533,-218.869 661.807,-188.564 692,-159 799.009,-54.2192 856.734,-38 1006.5,-38 1006.5,-38 1006.5,-38 1233.5,-38 1368.37,-38 1412.64,-7.47962 1536,-62 1571.84,-77.8387 1602.74,-112.848 1619.24,-134.233"/>
<polygon fill="midnightblue" stroke="midnightblue" points="1616.61,-136.558 1625.4,-142.469 1622.21,-132.365 1616.61,-136.558"/>
</g>
<!-- Node10 -->
<g id="node10" class="node"><title>Node10</title>
<g id="a_node10"><a xlink:href="../../d9/d89/getreplies_8qc.html#aad818a177c42603ffc7dc6e34406c050" target="_top" xlink:title="GetCvars_handleString\l_Fixup">
<polygon fill="none" stroke="black" points="721,-169 721,-199 848,-199 848,-169 721,-169"/>
<text text-anchor="start" x="729" y="-187" font-family="Helvetica,sans-Serif" font-size="10.00">GetCvars_handleString</text>
<text text-anchor="middle" x="784.5" y="-176" font-family="Helvetica,sans-Serif" font-size="10.00">_Fixup</text>
</a>
</g>
</g>
<!-- Node7&#45;&gt;Node10 -->
<g id="edge11" class="edge"><title>Node7&#45;&gt;Node10</title>
<path fill="none" stroke="midnightblue" d="M618.242,-260.787C630.449,-257.86 644.407,-253.457 656,-247 674.962,-236.439 673.266,-224.961 692,-214 699.26,-209.752 707.2,-206.016 715.273,-202.753"/>
<polygon fill="midnightblue" stroke="midnightblue" points="716.675,-205.964 724.778,-199.139 714.187,-199.421 716.675,-205.964"/>
</g>
<!-- Node13 -->
<g id="node13" class="node"><title>Node13</title>
<g id="a_node13"><a xlink:href="../../d9/d89/getreplies_8qc.html#aa4ac3dd1f661621de6a9f2bf5e6fb289" target="_top" xlink:title="W_FixWeaponOrder_ForceComplete\l_AndBuildImpulseList">
<polygon fill="none" stroke="black" points="692,-364 692,-394 877,-394 877,-364 692,-364"/>
<text text-anchor="start" x="700" y="-382" font-family="Helvetica,sans-Serif" font-size="10.00">W_FixWeaponOrder_ForceComplete</text>
<text text-anchor="middle" x="784.5" y="-371" font-family="Helvetica,sans-Serif" font-size="10.00">_AndBuildImpulseList</text>
</a>
</g>
</g>
<!-- Node7&#45;&gt;Node13 -->
<g id="edge16" class="edge"><title>Node7&#45;&gt;Node13</title>
<path fill="none" stroke="midnightblue" d="M606.362,-275.564C620.025,-282.934 639.295,-293.447 656,-303 688.217,-321.424 724.538,-343.172 750.149,-358.672"/>
<polygon fill="midnightblue" stroke="midnightblue" points="748.371,-361.687 758.736,-363.879 752,-355.701 748.371,-361.687"/>
</g>
<!-- Node31 -->
<g id="node31" class="node"><title>Node31</title>
<g id="a_node31"><a xlink:href="../../d0/d2b/weapons_2all_8qc.html#a07ee4c440c94f2f2ec9997912dfde9e9" target="_top" xlink:title="W_FixWeaponOrder_AllowIncomplete">
<polygon fill="none" stroke="black" points="913,-297.5 913,-316.5 1102,-316.5 1102,-297.5 913,-297.5"/>
<text text-anchor="middle" x="1007.5" y="-304.5" font-family="Helvetica,sans-Serif" font-size="10.00">W_FixWeaponOrder_AllowIncomplete</text>
</a>
</g>
</g>
<!-- Node7&#45;&gt;Node31 -->
<g id="edge47" class="edge"><title>Node7&#45;&gt;Node31</title>
<path fill="none" stroke="midnightblue" d="M618.345,-270.43C638.996,-273.398 667.129,-277.252 692,-280 762.173,-287.753 841.364,-294.541 902.727,-299.371"/>
<polygon fill="midnightblue" stroke="midnightblue" points="902.562,-302.869 912.805,-300.159 903.108,-295.89 902.562,-302.869"/>
</g>
<!-- Node32 -->
<g id="node32" class="node"><title>Node32</title>
<g id="a_node32"><a xlink:href="../../d9/d89/getreplies_8qc.html#a87f18211483cf0fc854225867b1e7015" target="_top" xlink:title="GetCvars_handleFloat">
<polygon fill="none" stroke="black" points="1388.5,-142.5 1388.5,-161.5 1510.5,-161.5 1510.5,-142.5 1388.5,-142.5"/>
<text text-anchor="middle" x="1449.5" y="-149.5" font-family="Helvetica,sans-Serif" font-size="10.00">GetCvars_handleFloat</text>
</a>
</g>
</g>
<!-- Node7&#45;&gt;Node32 -->
<g id="edge49" class="edge"><title>Node7&#45;&gt;Node32</title>
<path fill="none" stroke="midnightblue" d="M618.033,-265.258C670.316,-263.791 782.558,-259.948 877,-252 977.363,-243.554 1002.63,-241.398 1102,-225 1157.97,-215.764 1313.32,-181.906 1395.68,-163.726"/>
<polygon fill="midnightblue" stroke="midnightblue" points="1396.58,-167.112 1405.59,-161.536 1395.07,-160.276 1396.58,-167.112"/>
</g>
<!-- Node10&#45;&gt;Node8 -->
<g id="edge15" class="edge"><title>Node10&#45;&gt;Node8</title>
<path fill="none" stroke="midnightblue" d="M848.239,-190.245C888.541,-194.257 939.34,-199.314 972.351,-202.601"/>
<polygon fill="midnightblue" stroke="midnightblue" points="972.111,-206.094 982.409,-203.602 972.805,-199.128 972.111,-206.094"/>
</g>
<!-- Node11 -->
<g id="node11" class="node"><title>Node11</title>
<g id="a_node11"><a xlink:href="../../d9/d89/getreplies_8qc.html#a7c662280a4c259425dad12e0d007f13a" target="_top" xlink:title="GetCvars_handleString">
<polygon fill="none" stroke="black" points="1386,-104.5 1386,-123.5 1513,-123.5 1513,-104.5 1386,-104.5"/>
<text text-anchor="middle" x="1449.5" y="-111.5" font-family="Helvetica,sans-Serif" font-size="10.00">GetCvars_handleString</text>
</a>
</g>
</g>
<!-- Node10&#45;&gt;Node11 -->
<g id="edge12" class="edge"><title>Node10&#45;&gt;Node11</title>
<path fill="none" stroke="midnightblue" d="M848.172,-177.383C971.371,-164.376 1244.48,-135.54 1375.55,-121.702"/>
<polygon fill="midnightblue" stroke="midnightblue" points="1376.3,-125.142 1385.88,-120.612 1375.57,-118.181 1376.3,-125.142"/>
</g>
<!-- Node11&#45;&gt;Node9 -->
<g id="edge13" class="edge"><title>Node11&#45;&gt;Node9</title>
<path fill="none" stroke="midnightblue" d="M1496.3,-123.589C1530.01,-130.647 1574.79,-140.022 1603.51,-146.035"/>
<polygon fill="midnightblue" stroke="midnightblue" points="1603.17,-149.539 1613.67,-148.163 1604.6,-142.688 1603.17,-149.539"/>
</g>
<!-- Node11&#45;&gt;Node12 -->
<g id="edge14" class="edge"><title>Node11&#45;&gt;Node12</title>
<path fill="none" stroke="midnightblue" d="M1513.3,-123.399C1521.22,-125.884 1528.99,-129.027 1536,-133 1556.24,-144.47 1552.85,-157.795 1572,-171 1580.92,-177.149 1591.59,-182.202 1601.44,-186.116"/>
<polygon fill="midnightblue" stroke="midnightblue" points="1600.33,-189.438 1610.92,-189.649 1602.77,-182.878 1600.33,-189.438"/>
</g>
<!-- Node13&#45;&gt;Node4 -->
<g id="edge38" class="edge"><title>Node13&#45;&gt;Node4</title>
<path fill="none" stroke="midnightblue" d="M691.991,-388.655C679.899,-389.625 667.66,-390.453 656,-391 531.046,-396.867 495.803,-407.471 375,-375 365.916,-372.558 356.365,-368.706 348.073,-364.903"/>
<polygon fill="midnightblue" stroke="midnightblue" points="349.549,-361.729 339.02,-360.548 346.515,-368.037 349.549,-361.729"/>
</g>
<!-- Node14 -->
<g id="node14" class="node"><title>Node14</title>
<g id="a_node14"><a xlink:href="../../d0/d2b/weapons_2all_8qc.html#a01fb8b4722cd9503ad28af6600e7e18c" target="_top" xlink:title="W_FixWeaponOrder_ForceComplete">
<polygon fill="none" stroke="black" points="915,-391.5 915,-410.5 1100,-410.5 1100,-391.5 915,-391.5"/>
<text text-anchor="middle" x="1007.5" y="-398.5" font-family="Helvetica,sans-Serif" font-size="10.00">W_FixWeaponOrder_ForceComplete</text>
</a>
</g>
</g>
<!-- Node13&#45;&gt;Node14 -->
<g id="edge17" class="edge"><title>Node13&#45;&gt;Node14</title>
<path fill="none" stroke="midnightblue" d="M877.304,-388.139C886.449,-389.049 895.769,-389.977 905.005,-390.896"/>
<polygon fill="midnightblue" stroke="midnightblue" points="904.684,-394.382 914.982,-391.89 905.378,-387.416 904.684,-394.382"/>
</g>
<!-- Node27 -->
<g id="node27" class="node"><title>Node27</title>
<g id="a_node27"><a xlink:href="../../d0/d2b/weapons_2all_8qc.html#a6a9b42410f2d888f52a11253a2165203" target="_top" xlink:title="W_FixWeaponOrder_BuildImpulseList">
<polygon fill="none" stroke="black" points="1138,-312.5 1138,-331.5 1327,-331.5 1327,-312.5 1138,-312.5"/>
<text text-anchor="middle" x="1232.5" y="-319.5" font-family="Helvetica,sans-Serif" font-size="10.00">W_FixWeaponOrder_BuildImpulseList</text>
</a>
</g>
</g>
<!-- Node13&#45;&gt;Node27 -->
<g id="edge39" class="edge"><title>Node13&#45;&gt;Node27</title>
<path fill="none" stroke="midnightblue" d="M877.101,-367.293C956.27,-357.175 1069.78,-342.668 1146.85,-332.818"/>
<polygon fill="midnightblue" stroke="midnightblue" points="1147.53,-336.26 1157.01,-331.52 1146.64,-329.316 1147.53,-336.26"/>
</g>
<!-- Node15 -->
<g id="node15" class="node"><title>Node15</title>
<g id="a_node15"><a xlink:href="../../d8/de2/menudefs_8qc.html#ad9529df35f16daeafe8583b1ab2b42b8" target="_top" xlink:title="cvar_defstring">
<polygon fill="none" stroke="black" points="1190.5,-432.5 1190.5,-451.5 1274.5,-451.5 1274.5,-432.5 1190.5,-432.5"/>
<text text-anchor="middle" x="1232.5" y="-439.5" font-family="Helvetica,sans-Serif" font-size="10.00">cvar_defstring</text>
</a>
</g>
</g>
<!-- Node14&#45;&gt;Node15 -->
<g id="edge18" class="edge"><title>Node14&#45;&gt;Node15</title>
<path fill="none" stroke="midnightblue" d="M1060.22,-410.509C1096.29,-417.141 1144.21,-425.951 1180.19,-432.566"/>
<polygon fill="midnightblue" stroke="midnightblue" points="1180,-436.09 1190.47,-434.456 1181.27,-429.205 1180,-436.09"/>
</g>
<!-- Node16 -->
<g id="node16" class="node"><title>Node16</title>
<g id="a_node16"><a xlink:href="../../d0/d2b/weapons_2all_8qc.html#acb6d8a69c18135cd85a99ff515fe5bf6" target="_top" xlink:title="W_FixWeaponOrder">
<polygon fill="none" stroke="black" points="1179,-356.5 1179,-375.5 1286,-375.5 1286,-356.5 1179,-356.5"/>
<text text-anchor="middle" x="1232.5" y="-363.5" font-family="Helvetica,sans-Serif" font-size="10.00">W_FixWeaponOrder</text>
</a>
</g>
</g>
<!-- Node14&#45;&gt;Node16 -->
<g id="edge19" class="edge"><title>Node14&#45;&gt;Node16</title>
<path fill="none" stroke="midnightblue" d="M1069.14,-391.482C1100.1,-386.624 1137.71,-380.72 1168.94,-375.819"/>
<polygon fill="midnightblue" stroke="midnightblue" points="1169.5,-379.274 1178.83,-374.266 1168.41,-372.359 1169.5,-379.274"/>
</g>
<!-- Node23 -->
<g id="node23" class="node"><title>Node23</title>
<g id="a_node23"><a xlink:href="../../d0/d2b/weapons_2all_8qc.html#a68c8b4f04f6cf4bd80ef078f2bea8d16" target="_top" xlink:title="W_NumberWeaponOrder">
<polygon fill="none" stroke="black" points="1165.5,-394.5 1165.5,-413.5 1299.5,-413.5 1299.5,-394.5 1165.5,-394.5"/>
<text text-anchor="middle" x="1232.5" y="-401.5" font-family="Helvetica,sans-Serif" font-size="10.00">W_NumberWeaponOrder</text>
</a>
</g>
</g>
<!-- Node14&#45;&gt;Node23 -->
<g id="edge28" class="edge"><title>Node14&#45;&gt;Node23</title>
<path fill="none" stroke="midnightblue" d="M1100.17,-402.233C1118.44,-402.479 1137.46,-402.735 1155.15,-402.973"/>
<polygon fill="midnightblue" stroke="midnightblue" points="1155.36,-406.476 1165.4,-403.111 1155.45,-399.476 1155.36,-406.476"/>
</g>
<!-- Node17 -->
<g id="node17" class="node"><title>Node17</title>
<g id="a_node17"><a xlink:href="../../da/d44/common_2util_8qc.html#a1fa4c54efc174e1a6ec3545157865632" target="_top" xlink:title="fixPriorityList">
<polygon fill="none" stroke="black" points="1411,-432.5 1411,-451.5 1488,-451.5 1488,-432.5 1411,-432.5"/>
<text text-anchor="middle" x="1449.5" y="-439.5" font-family="Helvetica,sans-Serif" font-size="10.00">fixPriorityList</text>
</a>
</g>
</g>
<!-- Node16&#45;&gt;Node17 -->
<g id="edge20" class="edge"><title>Node16&#45;&gt;Node17</title>
<path fill="none" stroke="midnightblue" d="M1286.44,-370.965C1300.24,-373.781 1314.69,-378.17 1327,-385 1347.34,-396.285 1342.76,-411.53 1363,-423 1374.48,-429.507 1388.01,-433.786 1400.87,-436.599"/>
<polygon fill="midnightblue" stroke="midnightblue" points="1400.51,-440.094 1410.99,-438.556 1401.84,-433.221 1400.51,-440.094"/>
</g>
<!-- Node17&#45;&gt;Node9 -->
<g id="edge22" class="edge"><title>Node17&#45;&gt;Node9</title>
<path fill="none" stroke="midnightblue" d="M1488.04,-442.805C1504.99,-441.122 1523.89,-436.033 1536,-423 1611.22,-342.054 1504.19,-264.248 1572,-177 1579.82,-166.938 1592.41,-160.889 1604.05,-157.27"/>
<polygon fill="midnightblue" stroke="midnightblue" points="1605.11,-160.61 1613.89,-154.675 1603.32,-153.842 1605.11,-160.61"/>
</g>
<!-- Node17&#45;&gt;Node12 -->
<g id="edge24" class="edge"><title>Node17&#45;&gt;Node12</title>
<path fill="none" stroke="midnightblue" d="M1488.37,-441.134C1504.59,-438.99 1522.8,-433.999 1536,-423 1544.61,-415.826 1603.44,-268.326 1624.51,-215.014"/>
<polygon fill="midnightblue" stroke="midnightblue" points="1627.78,-216.263 1628.2,-205.677 1621.27,-213.694 1627.78,-216.263"/>
</g>
<!-- Node18 -->
<g id="node18" class="node"><title>Node18</title>
<g id="a_node18"><a xlink:href="../../d8/de2/menudefs_8qc.html#a2f6d3020689c0e872cfb455d0b2cbd4a" target="_top" xlink:title="stof">
<polygon fill="none" stroke="black" points="1615.5,-432.5 1615.5,-451.5 1650.5,-451.5 1650.5,-432.5 1615.5,-432.5"/>
<text text-anchor="middle" x="1633" y="-439.5" font-family="Helvetica,sans-Serif" font-size="10.00">stof</text>
</a>
</g>
</g>
<!-- Node17&#45;&gt;Node18 -->
<g id="edge21" class="edge"><title>Node17&#45;&gt;Node18</title>
<path fill="none" stroke="midnightblue" d="M1488.11,-442C1523.03,-442 1574.17,-442 1605.14,-442"/>
<polygon fill="midnightblue" stroke="midnightblue" points="1605.2,-445.5 1615.2,-442 1605.2,-438.5 1605.2,-445.5"/>
</g>
<!-- Node19 -->
<g id="node19" class="node"><title>Node19</title>
<g id="a_node19"><a xlink:href="../../d8/de2/menudefs_8qc.html#ad5a3e16aa960bd72d3ca37a618eea802" target="_top" xlink:title="floor">
<polygon fill="none" stroke="black" points="1614,-470.5 1614,-489.5 1652,-489.5 1652,-470.5 1614,-470.5"/>
<text text-anchor="middle" x="1633" y="-477.5" font-family="Helvetica,sans-Serif" font-size="10.00">floor</text>
</a>
</g>
</g>
<!-- Node17&#45;&gt;Node19 -->
<g id="edge23" class="edge"><title>Node17&#45;&gt;Node19</title>
<path fill="none" stroke="midnightblue" d="M1488.11,-449.874C1522.47,-457.069 1572.54,-467.551 1603.64,-474.063"/>
<polygon fill="midnightblue" stroke="midnightblue" points="1603.3,-477.566 1613.8,-476.19 1604.73,-470.715 1603.3,-477.566"/>
</g>
<!-- Node20 -->
<g id="node20" class="node"><title>Node20</title>
<g id="a_node20"><a xlink:href="../../d8/de2/menudefs_8qc.html#abbb0d86741e0056b6c04f7280c185d76" target="_top" xlink:title="ftos">
<polygon fill="none" stroke="black" points="1615.5,-508.5 1615.5,-527.5 1650.5,-527.5 1650.5,-508.5 1615.5,-508.5"/>
<text text-anchor="middle" x="1633" y="-515.5" font-family="Helvetica,sans-Serif" font-size="10.00">ftos</text>
</a>
</g>
</g>
<!-- Node17&#45;&gt;Node20 -->
<g id="edge25" class="edge"><title>Node17&#45;&gt;Node20</title>
<path fill="none" stroke="midnightblue" d="M1488.17,-448.569C1503.64,-452.264 1521.32,-457.828 1536,-466 1554.97,-476.554 1553.21,-488.134 1572,-499 1582.32,-504.969 1594.75,-509.302 1605.61,-512.308"/>
<polygon fill="midnightblue" stroke="midnightblue" points="1604.86,-515.731 1615.42,-514.795 1606.58,-508.946 1604.86,-515.731"/>
</g>
<!-- Node21 -->
<g id="node21" class="node"><title>Node21</title>
<g id="a_node21"><a xlink:href="../../d8/de2/menudefs_8qc.html#a40f6c65c8bbcfa51df783f2809a2502b" target="_top" xlink:title="substring">
<polygon fill="none" stroke="black" points="1602.5,-356.5 1602.5,-375.5 1663.5,-375.5 1663.5,-356.5 1602.5,-356.5"/>
<text text-anchor="middle" x="1633" y="-363.5" font-family="Helvetica,sans-Serif" font-size="10.00">substring</text>
</a>
</g>
</g>
<!-- Node17&#45;&gt;Node21 -->
<g id="edge26" class="edge"><title>Node17&#45;&gt;Node21</title>
<path fill="none" stroke="midnightblue" d="M1488.01,-438.556C1503.62,-435.914 1521.45,-431.246 1536,-423 1556.24,-411.53 1552.28,-397.349 1572,-385 1578.3,-381.053 1585.5,-377.861 1592.66,-375.303"/>
<polygon fill="midnightblue" stroke="midnightblue" points="1593.87,-378.588 1602.32,-372.195 1591.73,-371.924 1593.87,-378.588"/>
</g>
<!-- Node22 -->
<g id="node22" class="node"><title>Node22</title>
<g id="a_node22"><a xlink:href="../../d8/de2/menudefs_8qc.html#a274680f571a231ddf29421b93d434bfa" target="_top" xlink:title="strlen">
<polygon fill="none" stroke="black" points="1611,-394.5 1611,-413.5 1655,-413.5 1655,-394.5 1611,-394.5"/>
<text text-anchor="middle" x="1633" y="-401.5" font-family="Helvetica,sans-Serif" font-size="10.00">strlen</text>
</a>
</g>
</g>
<!-- Node17&#45;&gt;Node22 -->
<g id="edge27" class="edge"><title>Node17&#45;&gt;Node22</title>
<path fill="none" stroke="midnightblue" d="M1488.11,-434.126C1521.5,-427.134 1569.73,-417.038 1600.97,-410.497"/>
<polygon fill="midnightblue" stroke="midnightblue" points="1601.8,-413.9 1610.87,-408.425 1600.36,-407.048 1601.8,-413.9"/>
</g>
<!-- Node24 -->
<g id="node24" class="node"><title>Node24</title>
<g id="a_node24"><a xlink:href="../../da/d44/common_2util_8qc.html#ae1958a532419b5580361c8f32a53a538" target="_top" xlink:title="mapPriorityList">
<polygon fill="none" stroke="black" points="1405.5,-394.5 1405.5,-413.5 1493.5,-413.5 1493.5,-394.5 1405.5,-394.5"/>
<text text-anchor="middle" x="1449.5" y="-401.5" font-family="Helvetica,sans-Serif" font-size="10.00">mapPriorityList</text>
</a>
</g>
</g>
<!-- Node23&#45;&gt;Node24 -->
<g id="edge29" class="edge"><title>Node23&#45;&gt;Node24</title>
<path fill="none" stroke="midnightblue" d="M1299.76,-404C1330.31,-404 1366.1,-404 1394.91,-404"/>
<polygon fill="midnightblue" stroke="midnightblue" points="1395.19,-407.5 1405.19,-404 1395.19,-400.5 1395.19,-407.5"/>
</g>
<!-- Node25 -->
<g id="node25" class="node"><title>Node25</title>
<g id="a_node25"><a xlink:href="../../d0/d2b/weapons_2all_8qc.html#a6e455edb328362e8ea7fc75757394379" target="_top" xlink:title="W_NumberWeaponOrder\l_MapFunc">
<polygon fill="none" stroke="black" points="1382.5,-509 1382.5,-539 1516.5,-539 1516.5,-509 1382.5,-509"/>
<text text-anchor="start" x="1390.5" y="-527" font-family="Helvetica,sans-Serif" font-size="10.00">W_NumberWeaponOrder</text>
<text text-anchor="middle" x="1449.5" y="-516" font-family="Helvetica,sans-Serif" font-size="10.00">_MapFunc</text>
</a>
</g>
</g>
<!-- Node23&#45;&gt;Node25 -->
<g id="edge34" class="edge"><title>Node23&#45;&gt;Node25</title>
<path fill="none" stroke="midnightblue" d="M1299.61,-409.62C1309.45,-412.593 1318.96,-416.877 1327,-423 1355.14,-444.44 1336.39,-470.684 1363,-494 1367.47,-497.918 1372.49,-501.334 1377.79,-504.309"/>
<polygon fill="midnightblue" stroke="midnightblue" points="1376.43,-507.542 1386.93,-508.912 1379.57,-501.289 1376.43,-507.542"/>
</g>
<!-- Node24&#45;&gt;Node9 -->
<g id="edge31" class="edge"><title>Node24&#45;&gt;Node9</title>
<path fill="none" stroke="midnightblue" d="M1473.44,-394.445C1493.13,-385.039 1520.68,-368.768 1536,-346 1578.87,-282.286 1522.94,-236.085 1572,-177 1580.08,-167.263 1592.6,-161.259 1604.11,-157.587"/>
<polygon fill="midnightblue" stroke="midnightblue" points="1605.12,-160.941 1613.84,-154.924 1603.27,-154.19 1605.12,-160.941"/>
</g>
<!-- Node24&#45;&gt;Node12 -->
<g id="edge30" class="edge"><title>Node24&#45;&gt;Node12</title>
<path fill="none" stroke="midnightblue" d="M1469.11,-394.323C1487.59,-384.078 1515.98,-366.563 1536,-346 1575.92,-305 1608.29,-244.882 1623.17,-214.718"/>
<polygon fill="midnightblue" stroke="midnightblue" points="1626.32,-216.235 1627.53,-205.708 1620.02,-213.186 1626.32,-216.235"/>
</g>
<!-- Node24&#45;&gt;Node21 -->
<g id="edge32" class="edge"><title>Node24&#45;&gt;Node21</title>
<path fill="none" stroke="midnightblue" d="M1493.51,-394.995C1523.52,-388.712 1563.26,-380.392 1592.47,-374.276"/>
<polygon fill="midnightblue" stroke="midnightblue" points="1593.26,-377.686 1602.33,-372.211 1591.83,-370.835 1593.26,-377.686"/>
</g>
<!-- Node24&#45;&gt;Node22 -->
<g id="edge33" class="edge"><title>Node24&#45;&gt;Node22</title>
<path fill="none" stroke="midnightblue" d="M1493.51,-404C1526.38,-404 1570.92,-404 1600.51,-404"/>
<polygon fill="midnightblue" stroke="midnightblue" points="1600.69,-407.5 1610.69,-404 1600.69,-400.5 1600.69,-407.5"/>
</g>
<!-- Node25&#45;&gt;Node18 -->
<g id="edge36" class="edge"><title>Node25&#45;&gt;Node18</title>
<path fill="none" stroke="midnightblue" d="M1476.42,-508.897C1500.61,-495.211 1537.97,-475.088 1572,-461 1582.75,-456.549 1594.94,-452.513 1605.51,-449.317"/>
<polygon fill="midnightblue" stroke="midnightblue" points="1606.81,-452.583 1615.43,-446.417 1604.85,-445.864 1606.81,-452.583"/>
</g>
<!-- Node25&#45;&gt;Node20 -->
<g id="edge35" class="edge"><title>Node25&#45;&gt;Node20</title>
<path fill="none" stroke="midnightblue" d="M1516.54,-521.817C1547.16,-520.804 1581.85,-519.658 1605.15,-518.888"/>
<polygon fill="midnightblue" stroke="midnightblue" points="1605.41,-522.381 1615.29,-518.552 1605.18,-515.385 1605.41,-522.381"/>
</g>
<!-- Node26 -->
<g id="node26" class="node"><title>Node26</title>
<g id="a_node26"><a xlink:href="../../d0/d2b/weapons_2all_8qc.html#a79fb53e58c432f7bb94bc2e881f4c2b6" target="_top" xlink:title="W_UndeprecateName">
<polygon fill="none" stroke="black" points="1572,-546.5 1572,-565.5 1694,-565.5 1694,-546.5 1572,-546.5"/>
<text text-anchor="middle" x="1633" y="-553.5" font-family="Helvetica,sans-Serif" font-size="10.00">W_UndeprecateName</text>
</a>
</g>
</g>
<!-- Node25&#45;&gt;Node26 -->
<g id="edge37" class="edge"><title>Node25&#45;&gt;Node26</title>
<path fill="none" stroke="midnightblue" d="M1516.54,-535.643C1533.24,-538.588 1551.16,-541.746 1567.77,-544.675"/>
<polygon fill="midnightblue" stroke="midnightblue" points="1567.47,-548.176 1577.92,-546.465 1568.68,-541.282 1567.47,-548.176"/>
</g>
<!-- Node27&#45;&gt;Node12 -->
<g id="edge42" class="edge"><title>Node27&#45;&gt;Node12</title>
<path fill="none" stroke="midnightblue" d="M1256.49,-312.478C1275.62,-304.367 1303.42,-292.129 1327,-280 1343.47,-271.526 1345.76,-265.783 1363,-259 1436.34,-230.138 1459.32,-238.226 1536,-220 1557.72,-214.838 1582.12,-208.733 1600.89,-203.972"/>
<polygon fill="midnightblue" stroke="midnightblue" points="1601.85,-207.338 1610.68,-201.48 1600.13,-200.554 1601.85,-207.338"/>
</g>
<!-- Node27&#45;&gt;Node20 -->
<g id="edge40" class="edge"><title>Node27&#45;&gt;Node20</title>
<path fill="none" stroke="midnightblue" d="M1302.14,-331.643C1311.31,-335.297 1319.96,-340.264 1327,-347 1365.4,-383.723 1323.65,-425.296 1363,-461 1367.54,-465.12 1538.14,-499.357 1605.26,-512.703"/>
<polygon fill="midnightblue" stroke="midnightblue" points="1604.62,-516.143 1615.11,-514.658 1605.98,-509.277 1604.62,-516.143"/>
</g>
<!-- Node27&#45;&gt;Node21 -->
<g id="edge43" class="edge"><title>Node27&#45;&gt;Node21</title>
<path fill="none" stroke="midnightblue" d="M1278.26,-331.539C1303.12,-336.523 1334.65,-342.331 1363,-346 1444.03,-356.489 1539.57,-361.971 1592.19,-364.398"/>
<polygon fill="midnightblue" stroke="midnightblue" points="1592.29,-367.906 1602.44,-364.857 1592.6,-360.913 1592.29,-367.906"/>
</g>
<!-- Node28 -->
<g id="node28" class="node"><title>Node28</title>
<g id="a_node28"><a xlink:href="../../db/def/sort_8qh.html#a819f1c3300f552419896b2c53088c05c" target="_top" xlink:title="heapsort">
<polygon fill="none" stroke="black" points="1420,-268.5 1420,-287.5 1479,-287.5 1479,-268.5 1420,-268.5"/>
<text text-anchor="middle" x="1449.5" y="-275.5" font-family="Helvetica,sans-Serif" font-size="10.00">heapsort</text>
</a>
</g>
</g>
<!-- Node27&#45;&gt;Node28 -->
<g id="edge41" class="edge"><title>Node27&#45;&gt;Node28</title>
<path fill="none" stroke="midnightblue" d="M1280.15,-312.453C1318.82,-304.539 1373.15,-293.421 1409.53,-285.976"/>
<polygon fill="midnightblue" stroke="midnightblue" points="1410.65,-289.319 1419.74,-283.886 1409.24,-282.462 1410.65,-289.319"/>
</g>
<!-- Node29 -->
<g id="node29" class="node"><title>Node29</title>
<g id="a_node29"><a xlink:href="../../d0/d2b/weapons_2all_8qc.html#a66424748bad8c2bf6beda9b93b5f12d5" target="_top" xlink:title="W_FixWeaponOrder_BuildImpulse\lList_cmp">
<polygon fill="none" stroke="black" points="1363,-181 1363,-211 1536,-211 1536,-181 1363,-181"/>
<text text-anchor="start" x="1371" y="-199" font-family="Helvetica,sans-Serif" font-size="10.00">W_FixWeaponOrder_BuildImpulse</text>
<text text-anchor="middle" x="1449.5" y="-188" font-family="Helvetica,sans-Serif" font-size="10.00">List_cmp</text>
</a>
</g>
</g>
<!-- Node27&#45;&gt;Node29 -->
<g id="edge44" class="edge"><title>Node27&#45;&gt;Node29</title>
<path fill="none" stroke="midnightblue" d="M1266.32,-312.355C1285.51,-305.544 1309.34,-294.947 1327,-280 1349.02,-261.363 1340.22,-243.688 1363,-226 1368.26,-221.917 1374.12,-218.364 1380.23,-215.277"/>
<polygon fill="midnightblue" stroke="midnightblue" points="1381.72,-218.446 1389.33,-211.081 1378.79,-212.089 1381.72,-218.446"/>
</g>
<!-- Node30 -->
<g id="node30" class="node"><title>Node30</title>
<g id="a_node30"><a xlink:href="../../d0/d2b/weapons_2all_8qc.html#a5ac8701317c43bb66826e117a101f71e" target="_top" xlink:title="W_FixWeaponOrder_BuildImpulse\lList_swap">
<polygon fill="none" stroke="black" points="1363,-307 1363,-337 1536,-337 1536,-307 1363,-307"/>
<text text-anchor="start" x="1371" y="-325" font-family="Helvetica,sans-Serif" font-size="10.00">W_FixWeaponOrder_BuildImpulse</text>
<text text-anchor="middle" x="1449.5" y="-314" font-family="Helvetica,sans-Serif" font-size="10.00">List_swap</text>
</a>
</g>
</g>
<!-- Node27&#45;&gt;Node30 -->
<g id="edge46" class="edge"><title>Node27&#45;&gt;Node30</title>
<path fill="none" stroke="midnightblue" d="M1327.18,-322C1335.62,-322 1344.19,-322 1352.65,-322"/>
<polygon fill="midnightblue" stroke="midnightblue" points="1352.92,-325.5 1362.92,-322 1352.92,-318.5 1352.92,-325.5"/>
</g>
<!-- Node29&#45;&gt;Node12 -->
<g id="edge45" class="edge"><title>Node29&#45;&gt;Node12</title>
<path fill="none" stroke="midnightblue" d="M1536.2,-196C1559.26,-196 1582.76,-196 1600.72,-196"/>
<polygon fill="midnightblue" stroke="midnightblue" points="1600.86,-199.5 1610.86,-196 1600.86,-192.5 1600.86,-199.5"/>
</g>
<!-- Node31&#45;&gt;Node16 -->
<g id="edge48" class="edge"><title>Node31&#45;&gt;Node16</title>
<path fill="none" stroke="midnightblue" d="M1044.83,-316.611C1083.25,-326.777 1143.97,-342.841 1185.66,-353.871"/>
<polygon fill="midnightblue" stroke="midnightblue" points="1185,-357.317 1195.56,-356.491 1186.79,-350.55 1185,-357.317"/>
</g>
<!-- Node32&#45;&gt;Node9 -->
<g id="edge51" class="edge"><title>Node32&#45;&gt;Node9</title>
<path fill="none" stroke="midnightblue" d="M1510.68,-152C1541.97,-152 1578.73,-152 1603.52,-152"/>
<polygon fill="midnightblue" stroke="midnightblue" points="1603.69,-155.5 1613.69,-152 1603.69,-148.5 1603.69,-155.5"/>
</g>
<!-- Node32&#45;&gt;Node12 -->
<g id="edge52" class="edge"><title>Node32&#45;&gt;Node12</title>
<path fill="none" stroke="midnightblue" d="M1494.95,-161.558C1508.18,-164.49 1522.7,-167.791 1536,-171 1557.75,-176.248 1582.16,-182.609 1600.92,-187.602"/>
<polygon fill="midnightblue" stroke="midnightblue" points="1600.14,-191.017 1610.7,-190.218 1601.95,-184.254 1600.14,-191.017"/>
</g>
<!-- Node32&#45;&gt;Node18 -->
<g id="edge50" class="edge"><title>Node32&#45;&gt;Node18</title>
<path fill="none" stroke="midnightblue" d="M1510.61,-155.694C1520.2,-158.807 1529.18,-163.636 1536,-171 1612.87,-254.011 1498.86,-336.688 1572,-423 1580.25,-432.735 1593.46,-437.542 1605.39,-439.892"/>
<polygon fill="midnightblue" stroke="midnightblue" points="1604.97,-443.369 1615.38,-441.385 1606.01,-436.446 1604.97,-443.369"/>
</g>
<!-- Node36&#45;&gt;Node4 -->
<g id="edge58" class="edge"><title>Node36&#45;&gt;Node4</title>
<path fill="none" stroke="midnightblue" d="M533.97,-368.183C477.722,-364.096 390.936,-357.791 349.134,-354.754"/>
<polygon fill="midnightblue" stroke="midnightblue" points="349.287,-351.255 339.059,-354.022 348.779,-358.237 349.287,-351.255"/>
</g>
</g>
</svg>
        <g id="navigator" transform="translate(0 0)" fill="#404254">
                <rect fill="#f2f5e9" fill-opacity="0.5" stroke="#606060" stroke-width=".5" x="0" y="0" width="60" height="60"/>
                <use id="zoomplus" xlink:href="#zoomPlus" x="17" y="9" onmousedown="handleZoom(evt,'in')"/>
                <use id="zoomminus" xlink:href="#zoomMin" x="42" y="9" onmousedown="handleZoom(evt,'out')"/>
                <use id="reset" xlink:href="#resetDef" x="30" y="36" onmousedown="handleReset()"/>
                <g id="arrowUp" xlink:href="#dirArrow" transform="translate(30 24)" onmousedown="handlePan(0,-1)">
                  <use xlink:href="#rim" fill="#404040">
                        <set attributeName="fill" to="#808080" begin="arrowUp.mouseover" end="arrowUp.mouseout"/>
                  </use>
                  <path fill="none" stroke="white" stroke-width="1.5" d="M0,-3.0v7 M-2.5,-0.5L0,-3.0L2.5,-0.5"/>
                </g>
                <g id="arrowRight" xlink:href="#dirArrow" transform="rotate(90) translate(36 -43)" onmousedown="handlePan(1,0)">
                  <use xlink:href="#rim" fill="#404040">
                        <set attributeName="fill" to="#808080" begin="arrowRight.mouseover" end="arrowRight.mouseout"/>
                  </use>
                  <path fill="none" stroke="white" stroke-width="1.5" d="M0,-3.0v7 M-2.5,-0.5L0,-3.0L2.5,-0.5"/>
                </g>
                <g id="arrowDown" xlink:href="#dirArrow" transform="rotate(180) translate(-30 -48)" onmousedown="handlePan(0,1)">
                  <use xlink:href="#rim" fill="#404040">
                        <set attributeName="fill" to="#808080" begin="arrowDown.mouseover" end="arrowDown.mouseout"/>
                  </use>
                  <path fill="none" stroke="white" stroke-width="1.5" d="M0,-3.0v7 M-2.5,-0.5L0,-3.0L2.5,-0.5"/>
                </g>
                <g id="arrowLeft" xlink:href="#dirArrow" transform="rotate(270) translate(-36 17)" onmousedown="handlePan(-1,0)">
                  <use xlink:href="#rim" fill="#404040">
                        <set attributeName="fill" to="#808080" begin="arrowLeft.mouseover" end="arrowLeft.mouseout"/>
                  </use>
                  <path fill="none" stroke="white" stroke-width="1.5" d="M0,-3.0v7 M-2.5,-0.5L0,-3.0L2.5,-0.5"/>
                </g>
        </g>
        <svg viewBox="0 0 15 15" width="100%" height="30px" preserveAspectRatio="xMaxYMin meet">
         <g id="arrow_out" transform="scale(0.3 0.3)">
          <a xlink:href="sv__rules_8qc_ab9a219ab2da0e7033e154972a2c711d2_cgraph_org.svg" target="_base">
           <rect id="button" ry="5" rx="5" y="6" x="6" height="38" width="38"
                fill="#f2f5e9" fill-opacity="0.5" stroke="#606060" stroke-width="1.0"/>
           <path id="arrow"
             d="M 11.500037,31.436501 C 11.940474,20.09759 22.043105,11.32322 32.158766,21.979434 L 37.068811,17.246167 C 37.068811,17.246167 37.088388,32 37.088388,32 L 22.160133,31.978069 C 22.160133,31.978069 26.997745,27.140456 26.997745,27.140456 C 18.528582,18.264221 13.291696,25.230495 11.500037,31.436501 z"
             style="fill:#404040;"/>
          </a>
         </g>
        </svg>
</svg>
