<?xml version="1.0" encoding="UTF-8" standalone="no"?>
<!DOCTYPE svg PUBLIC "-//W3C//DTD SVG 1.1//EN"
 "http://www.w3.org/Graphics/SVG/1.1/DTD/svg11.dtd">
<!-- Generated by graphviz version 2.40.1 (20161225.0304)
 -->
<!-- Title: GameRules_teams Pages: 1 -->
<svg width="422pt" height="180pt"
 viewBox="0.00 0.00 422.00 180.00" xmlns="http://www.w3.org/2000/svg" xmlns:xlink="http://www.w3.org/1999/xlink">
<g id="graph0" class="graph" transform="scale(1 1) rotate(0) translate(4 176)">
<title>GameRules_teams</title>
<!-- Node179 -->
<g id="node1" class="node">
<title>Node179</title>
<polygon fill="#bfbfbf" stroke="#000000" points="0,-76.5 0,-95.5 108,-95.5 108,-76.5 0,-76.5"/>
<text text-anchor="middle" x="54" y="-83.5" font-family="Helvetica,sans-Serif" font-size="10.00" fill="#000000">GameRules_teams</text>
</g>
<!-- Node180 -->
<g id="node2" class="node">
<title>Node180</title>
<g id="a_node2"><a xlink:href="../../dd/dbe/world_8qc.html#a25599ad73603f2e4e2b78726400732c8" target="_top" xlink:title="InitGameplayMode">
<polygon fill="none" stroke="#000000" points="148,-152.5 148,-171.5 257,-171.5 257,-152.5 148,-152.5"/>
<text text-anchor="middle" x="202.5" y="-159.5" font-family="Helvetica,sans-Serif" font-size="10.00" fill="#000000">InitGameplayMode</text>
</a>
</g>
</g>
<!-- Node179&#45;&gt;Node180 -->
<g id="edge1" class="edge">
<title>Node179&#45;&gt;Node180</title>
<path fill="none" stroke="#191970" d="M75.2498,-101.6152C92.9558,-114.0861 119.1976,-131.3446 144,-143 151.635,-146.5879 160.1287,-149.7708 168.2241,-152.4569"/>
<polygon fill="#191970" stroke="#191970" points="76.991,-98.5575 66.8216,-95.5852 72.9179,-104.2504 76.991,-98.5575"/>
</g>
<!-- Node182 -->
<g id="node4" class="node">
<title>Node182</title>
<g id="a_node4"><a xlink:href="../../d1/d4d/sv__nexball_8qh.html#ae7d97ba4bd8d21434dc5846dcb380860" target="_top" xlink:title="nb_Initialize">
<polygon fill="none" stroke="#000000" points="164.5,-114.5 164.5,-133.5 240.5,-133.5 240.5,-114.5 164.5,-114.5"/>
<text text-anchor="middle" x="202.5" y="-121.5" font-family="Helvetica,sans-Serif" font-size="10.00" fill="#000000">nb_Initialize</text>
</a>
</g>
</g>
<!-- Node179&#45;&gt;Node182 -->
<g id="edge3" class="edge">
<title>Node179&#45;&gt;Node182</title>
<path fill="none" stroke="#191970" d="M101.3329,-98.1121C122.0146,-103.4044 145.9188,-109.5213 165.2966,-114.4799"/>
<polygon fill="#191970" stroke="#191970" points="102.0284,-94.6774 91.4728,-95.589 100.293,-101.4589 102.0284,-94.6774"/>
</g>
<!-- Node184 -->
<g id="node6" class="node">
<title>Node184</title>
<g id="a_node6"><a xlink:href="../../d7/ddf/sv__race_8qh.html#a9994c316dce5b74ff9fc150f221cd08b" target="_top" xlink:title="rc_SetLimits">
<polygon fill="none" stroke="#000000" points="164,-76.5 164,-95.5 241,-95.5 241,-76.5 164,-76.5"/>
<text text-anchor="middle" x="202.5" y="-83.5" font-family="Helvetica,sans-Serif" font-size="10.00" fill="#000000">rc_SetLimits</text>
</a>
</g>
</g>
<!-- Node179&#45;&gt;Node184 -->
<g id="edge5" class="edge">
<title>Node179&#45;&gt;Node184</title>
<path fill="none" stroke="#191970" d="M118.1011,-86C133.5996,-86 149.6993,-86 163.6304,-86"/>
<polygon fill="#191970" stroke="#191970" points="118.032,-82.5001 108.032,-86 118.032,-89.5001 118.032,-82.5001"/>
</g>
<!-- Node186 -->
<g id="node8" class="node">
<title>Node186</title>
<g id="a_node8"><a xlink:href="../../d2/ddd/sv__assault_8qh.html#a5753f4b0d3f0961028891e42b2d2f2ee" target="_top" xlink:title="REGISTER_MUTATOR">
<polygon fill="none" stroke="#000000" points="144,-38.5 144,-57.5 261,-57.5 261,-38.5 144,-38.5"/>
<text text-anchor="middle" x="202.5" y="-45.5" font-family="Helvetica,sans-Serif" font-size="10.00" fill="#000000">REGISTER_MUTATOR</text>
</a>
</g>
</g>
<!-- Node179&#45;&gt;Node186 -->
<g id="edge7" class="edge">
<title>Node179&#45;&gt;Node186</title>
<path fill="none" stroke="#191970" d="M101.3329,-73.8879C122.0146,-68.5956 145.9188,-62.4787 165.2966,-57.5201"/>
<polygon fill="#191970" stroke="#191970" points="100.293,-70.5411 91.4728,-76.411 102.0284,-77.3226 100.293,-70.5411"/>
</g>
<!-- Node187 -->
<g id="node9" class="node">
<title>Node187</title>
<g id="a_node9"><a xlink:href="../../d3/d50/sv__tdm_8qh.html#ab7bd9c8e1502111ae7952d4643288103" target="_top" xlink:title="tdm_Initialize">
<polygon fill="none" stroke="#000000" points="161,-.5 161,-19.5 244,-19.5 244,-.5 161,-.5"/>
<text text-anchor="middle" x="202.5" y="-7.5" font-family="Helvetica,sans-Serif" font-size="10.00" fill="#000000">tdm_Initialize</text>
</a>
</g>
</g>
<!-- Node179&#45;&gt;Node187 -->
<g id="edge8" class="edge">
<title>Node179&#45;&gt;Node187</title>
<path fill="none" stroke="#191970" d="M75.2498,-70.3848C92.9558,-57.9139 119.1976,-40.6554 144,-29 151.635,-25.4121 160.1287,-22.2292 168.2241,-19.5431"/>
<polygon fill="#191970" stroke="#191970" points="72.9179,-67.7496 66.8216,-76.4148 76.991,-73.4425 72.9179,-67.7496"/>
</g>
<!-- Node181 -->
<g id="node3" class="node">
<title>Node181</title>
<g id="a_node3"><a xlink:href="../../dd/dbe/world_8qc.html#aac7f083651dfcb99dbbd8afc5e339233" target="_top" xlink:title="spawnfunc">
<polygon fill="none" stroke="#000000" points="321,-152.5 321,-171.5 390,-171.5 390,-152.5 321,-152.5"/>
<text text-anchor="middle" x="355.5" y="-159.5" font-family="Helvetica,sans-Serif" font-size="10.00" fill="#000000">spawnfunc</text>
</a>
</g>
</g>
<!-- Node180&#45;&gt;Node181 -->
<g id="edge2" class="edge">
<title>Node180&#45;&gt;Node181</title>
<path fill="none" stroke="#191970" d="M267.3402,-162C285.6226,-162 304.8147,-162 320.607,-162"/>
<polygon fill="#191970" stroke="#191970" points="267.3044,-158.5001 257.3044,-162 267.3043,-165.5001 267.3044,-158.5001"/>
</g>
<!-- Node183 -->
<g id="node5" class="node">
<title>Node183</title>
<g id="a_node5"><a xlink:href="../../d1/d4d/sv__nexball_8qh.html#ab552612e0ed41a6a0a28baaa82f89f6c" target="_top" xlink:title="REGISTER_MUTATOR">
<polygon fill="none" stroke="#000000" points="297,-114.5 297,-133.5 414,-133.5 414,-114.5 297,-114.5"/>
<text text-anchor="middle" x="355.5" y="-121.5" font-family="Helvetica,sans-Serif" font-size="10.00" fill="#000000">REGISTER_MUTATOR</text>
</a>
</g>
</g>
<!-- Node182&#45;&gt;Node183 -->
<g id="edge4" class="edge">
<title>Node182&#45;&gt;Node183</title>
<path fill="none" stroke="#191970" d="M251.023,-124C265.614,-124 281.7797,-124 296.9477,-124"/>
<polygon fill="#191970" stroke="#191970" points="250.7137,-120.5001 240.7137,-124 250.7137,-127.5001 250.7137,-120.5001"/>
</g>
<!-- Node185 -->
<g id="node7" class="node">
<title>Node185</title>
<g id="a_node7"><a xlink:href="../../d7/ddf/sv__race_8qh.html#a5edf7aacc2c70ddbf9189864268228e5" target="_top" xlink:title="REGISTER_MUTATOR">
<polygon fill="none" stroke="#000000" points="297,-76.5 297,-95.5 414,-95.5 414,-76.5 297,-76.5"/>
<text text-anchor="middle" x="355.5" y="-83.5" font-family="Helvetica,sans-Serif" font-size="10.00" fill="#000000">REGISTER_MUTATOR</text>
</a>
</g>
</g>
<!-- Node184&#45;&gt;Node185 -->
<g id="edge6" class="edge">
<title>Node184&#45;&gt;Node185</title>
<path fill="none" stroke="#191970" d="M251.3578,-86C265.8544,-86 281.881,-86 296.9272,-86"/>
<polygon fill="#191970" stroke="#191970" points="251.1084,-82.5001 241.1084,-86 251.1083,-89.5001 251.1084,-82.5001"/>
</g>
<!-- Node188 -->
<g id="node10" class="node">
<title>Node188</title>
<g id="a_node10"><a xlink:href="../../d3/d50/sv__tdm_8qh.html#a68e834a3a3064a2d84cab268b1238110" target="_top" xlink:title="REGISTER_MUTATOR">
<polygon fill="none" stroke="#000000" points="297,-.5 297,-19.5 414,-19.5 414,-.5 297,-.5"/>
<text text-anchor="middle" x="355.5" y="-7.5" font-family="Helvetica,sans-Serif" font-size="10.00" fill="#000000">REGISTER_MUTATOR</text>
</a>
</g>
</g>
<!-- Node187&#45;&gt;Node188 -->
<g id="edge9" class="edge">
<title>Node187&#45;&gt;Node188</title>
<path fill="none" stroke="#191970" d="M254.4671,-10C268.0913,-10 282.8766,-10 296.8248,-10"/>
<polygon fill="#191970" stroke="#191970" points="254.308,-6.5001 244.3079,-10 254.3079,-13.5001 254.308,-6.5001"/>
</g>
</g>
</svg>
