<?xml version="1.0" encoding="UTF-8" standalone="no"?>
<!DOCTYPE svg PUBLIC "-//W3C//DTD SVG 1.1//EN"
 "http://www.w3.org/Graphics/SVG/1.1/DTD/svg11.dtd">
<!-- Generated by graphviz version 2.40.1 (20161225.0304)
 -->
<!-- Title: MUTATOR_HOOKFUNCTION Pages: 1 -->
<!--zoomable 436 -->
<svg id="main" version="1.1" xmlns="http://www.w3.org/2000/svg" xmlns:xlink="http://www.w3.org/1999/xlink" xml:space="preserve" onload="init(evt)">
<style type="text/css"><![CDATA[
.edge:hover path { stroke: red; }
.edge:hover polygon { stroke: red; fill: red; }
]]></style>
<script type="text/javascript"><![CDATA[
var edges = document.getElementsByTagName('g');
if (edges && edges.length) {
  for (var i=0;i<edges.length;i++) {
    if (edges[i].id.substr(0,4)=='edge') {
      edges[i].setAttribute('class','edge');
    }
  }
}
]]></script>
        <defs>
                <circle id="rim" cx="0" cy="0" r="7"/>
                <circle id="rim2" cx="0" cy="0" r="3.5"/>
                <g id="zoomPlus">
                        <use xlink:href="#rim" fill="#404040">
                                <set attributeName="fill" to="#808080" begin="zoomplus.mouseover" end="zoomplus.mouseout"/>
                        </use>
                        <path d="M-4,0h8M0,-4v8" fill="none" stroke="white" stroke-width="1.5" pointer-events="none"/>
                </g>
                <g id="zoomMin">
                        <use xlink:href="#rim" fill="#404040">
                                <set attributeName="fill" to="#808080" begin="zoomminus.mouseover" end="zoomminus.mouseout"/>
                        </use>
                        <path d="M-4,0h8" fill="none" stroke="white" stroke-width="1.5" pointer-events="none"/>
                </g>
                <g id="dirArrow">
                        <path fill="none" stroke="white" stroke-width="1.5" d="M0,-3.0v7 M-2.5,-0.5L0,-3.0L2.5,-0.5"/>
                </g>
               <g id="resetDef">
                       <use xlink:href="#rim2" fill="#404040">
                               <set attributeName="fill" to="#808080" begin="reset.mouseover" end="reset.mouseout"/>
                       </use>
               </g>
        </defs>

<script type="text/javascript">
var viewWidth = 943;
var viewHeight = 436;
var sectionId = 'dynsection-5';
</script>
<script xlink:href="../../svgpan.js"/>
<svg id="graph" class="graph">
<g id="viewport">
<title>MUTATOR_HOOKFUNCTION</title>
<!-- Node14 -->
<g id="node1" class="node">
<title>Node14</title>
<polygon fill="#bfbfbf" stroke="#000000" points="0,-319.3316 0,-338.3316 149,-338.3316 149,-319.3316 0,-319.3316"/>
<text text-anchor="middle" x="74.5" y="-326.3316" font-family="Helvetica,sans-Serif" font-size="10.00" fill="#000000">MUTATOR_HOOKFUNCTION</text>
</g>
<!-- Node15 -->
<g id="node2" class="node">
<title>Node15</title>
<g id="a_node2"><a xlink:href="../../d4/d0c/csprogsdefs_8qc.html#acbb54a239d76062465dccbc6a6c6e464" target="_top" xlink:title="entity">
<polygon fill="none" stroke="#000000" points="880,-172.3316 880,-191.3316 925,-191.3316 925,-172.3316 880,-172.3316"/>
<text text-anchor="middle" x="902.5" y="-179.3316" font-family="Helvetica,sans-Serif" font-size="10.00" fill="#000000">entity</text>
</a>
</g>
</g>
<!-- Node14&#45;&gt;Node15 -->
<g id="edge1" class="edge">
<title>Node14&#45;&gt;Node15</title>
<path fill="none" stroke="#191970" d="M97.5145,-338.4169C153.0413,-360.6466 299.1931,-413.8316 426.5,-413.8316 426.5,-413.8316 426.5,-413.8316 598,-413.8316 703.3858,-413.8316 751.765,-456.7374 834,-390.8316 864.3428,-366.5139 889.7629,-248.5997 898.8872,-201.4109"/>
<polygon fill="#191970" stroke="#191970" points="902.3403,-201.9865 900.7616,-191.51 895.4625,-200.6844 902.3403,-201.9865"/>
</g>
<!-- Node16 -->
<g id="node3" class="node">
<title>Node16</title>
<g id="a_node3"><a xlink:href="../../d7/d39/sv__nix_8qc.html#a71c80b0c1234dc67733b6ae5b492b009" target="_top" xlink:title="NIX_GiveCurrentWeapon">
<polygon fill="none" stroke="#000000" points="185,-253.3316 185,-272.3316 322,-272.3316 322,-253.3316 185,-253.3316"/>
<text text-anchor="middle" x="253.5" y="-260.3316" font-family="Helvetica,sans-Serif" font-size="10.00" fill="#000000">NIX_GiveCurrentWeapon</text>
</a>
</g>
</g>
<!-- Node14&#45;&gt;Node16 -->
<g id="edge2" class="edge">
<title>Node14&#45;&gt;Node16</title>
<path fill="none" stroke="#191970" d="M100.5281,-319.2346C131.5045,-307.8132 183.3801,-288.6858 218.0149,-275.9155"/>
<polygon fill="#191970" stroke="#191970" points="219.5592,-279.0765 227.7309,-272.3331 217.1375,-272.5087 219.5592,-279.0765"/>
</g>
<!-- Node16&#45;&gt;Node15 -->
<g id="edge8" class="edge">
<title>Node16&#45;&gt;Node15</title>
<path fill="none" stroke="#191970" d="M255.4936,-253.328C262.6922,-221.6901 290.5658,-119.5753 358,-77.8316 537.9119,33.5392 651.0194,19.4221 834,-86.8316 863.9042,-104.1965 884.3071,-140.4153 894.635,-162.7744"/>
<polygon fill="#191970" stroke="#191970" points="891.5585,-164.4738 898.7816,-172.2247 897.9686,-161.6611 891.5585,-164.4738"/>
</g>
<!-- Node17 -->
<g id="node4" class="node">
<title>Node17</title>
<g id="a_node4"><a xlink:href="../../d7/d39/sv__nix_8qc.html#a7855e69af6ee0d89fe8ad835500790b2" target="_top" xlink:title="NIX_ChooseNextWeapon">
<polygon fill="none" stroke="#000000" points="358,-87.3316 358,-106.3316 495,-106.3316 495,-87.3316 358,-87.3316"/>
<text text-anchor="middle" x="426.5" y="-94.3316" font-family="Helvetica,sans-Serif" font-size="10.00" fill="#000000">NIX_ChooseNextWeapon</text>
</a>
</g>
</g>
<!-- Node16&#45;&gt;Node17 -->
<g id="edge3" class="edge">
<title>Node16&#45;&gt;Node17</title>
<path fill="none" stroke="#191970" d="M263.549,-253.1892C291.9755,-225.9129 373.2189,-147.9568 409.1025,-113.5252"/>
<polygon fill="#191970" stroke="#191970" points="411.631,-115.9496 416.4233,-106.5006 406.7844,-110.8987 411.631,-115.9496"/>
</g>
<!-- Node20 -->
<g id="node7" class="node">
<title>Node20</title>
<g id="a_node7"><a xlink:href="../../d8/de2/menudefs_8qc.html#a22f100d9039928edd4e410c7d68858e7" target="_top" xlink:title="ceil">
<polygon fill="none" stroke="#000000" points="409.5,-366.3316 409.5,-385.3316 443.5,-385.3316 443.5,-366.3316 409.5,-366.3316"/>
<text text-anchor="middle" x="426.5" y="-373.3316" font-family="Helvetica,sans-Serif" font-size="10.00" fill="#000000">ceil</text>
</a>
</g>
</g>
<!-- Node16&#45;&gt;Node20 -->
<g id="edge7" class="edge">
<title>Node16&#45;&gt;Node20</title>
<path fill="none" stroke="#191970" d="M261.3654,-272.4025C277.4836,-291.3884 316.2764,-333.9533 358,-356.8316 370.808,-363.8546 386.4152,-368.445 399.4954,-371.3509"/>
<polygon fill="#191970" stroke="#191970" points="398.8476,-374.7907 409.3419,-373.3346 400.2301,-367.9285 398.8476,-374.7907"/>
</g>
<!-- Node21 -->
<g id="node8" class="node">
<title>Node21</title>
<g id="a_node8"><a xlink:href="../../d8/d06/client_2resources_8qc.html#a07f27dec0520a6bfdffc084639470886" target="_top" xlink:title="Sets the current amount of resource the given entity will have. ">
<polygon fill="none" stroke="#000000" points="559.5,-277.3316 559.5,-296.3316 636.5,-296.3316 636.5,-277.3316 559.5,-277.3316"/>
<text text-anchor="middle" x="598" y="-284.3316" font-family="Helvetica,sans-Serif" font-size="10.00" fill="#000000">SetResource</text>
</a>
</g>
</g>
<!-- Node16&#45;&gt;Node21 -->
<g id="edge9" class="edge">
<title>Node16&#45;&gt;Node21</title>
<path fill="none" stroke="#191970" d="M322.3867,-267.6307C389.4413,-272.3021 489.6588,-279.2839 548.9704,-283.4159"/>
<polygon fill="#191970" stroke="#191970" points="548.9763,-286.9247 559.1954,-284.1282 549.4629,-279.9416 548.9763,-286.9247"/>
</g>
<!-- Node22 -->
<g id="node9" class="node">
<title>Node22</title>
<g id="a_node9"><a xlink:href="../../d4/d91/server_2resources_8qc.html#ab0a657f02ad46df5e2aa7f9f38428ff8" target="_top" xlink:title="Gives an entity some resource. ">
<polygon fill="none" stroke="#000000" points="385,-310.3316 385,-329.3316 468,-329.3316 468,-310.3316 385,-310.3316"/>
<text text-anchor="middle" x="426.5" y="-317.3316" font-family="Helvetica,sans-Serif" font-size="10.00" fill="#000000">GiveResource</text>
</a>
</g>
</g>
<!-- Node16&#45;&gt;Node22 -->
<g id="edge10" class="edge">
<title>Node16&#45;&gt;Node22</title>
<path fill="none" stroke="#191970" d="M282.4563,-272.3721C311.2725,-281.8664 355.6817,-296.4984 387.5711,-307.0053"/>
<polygon fill="#191970" stroke="#191970" points="386.8562,-310.4548 397.4492,-310.2599 389.0467,-303.8063 386.8562,-310.4548"/>
</g>
<!-- Node25 -->
<g id="node12" class="node">
<title>Node25</title>
<g id="a_node12"><a xlink:href="../../d2/d62/selection_8qc.html#aba6ed323f0e8f5773f5d7de51e2d3411" target="_top" xlink:title="client_hasweapon">
<polygon fill="none" stroke="#000000" points="546,-239.3316 546,-258.3316 650,-258.3316 650,-239.3316 546,-239.3316"/>
<text text-anchor="middle" x="598" y="-246.3316" font-family="Helvetica,sans-Serif" font-size="10.00" fill="#000000">client_hasweapon</text>
</a>
</g>
</g>
<!-- Node16&#45;&gt;Node25 -->
<g id="edge15" class="edge">
<title>Node16&#45;&gt;Node25</title>
<path fill="none" stroke="#191970" d="M322.3867,-260.0321C384.6613,-257.5014 475.5392,-253.8082 535.6894,-251.3638"/>
<polygon fill="#191970" stroke="#191970" points="535.9591,-254.8558 545.8087,-250.9526 535.6748,-247.8616 535.9591,-254.8558"/>
</g>
<!-- Node32 -->
<g id="node19" class="node">
<title>Node32</title>
<g id="a_node19"><a xlink:href="../../d2/d62/selection_8qc.html#a040fef5835b1141797bcb28e880c7f5a" target="_top" xlink:title="W_SwitchWeapon">
<polygon fill="none" stroke="#000000" points="375,-196.3316 375,-215.3316 478,-215.3316 478,-196.3316 375,-196.3316"/>
<text text-anchor="middle" x="426.5" y="-203.3316" font-family="Helvetica,sans-Serif" font-size="10.00" fill="#000000">W_SwitchWeapon</text>
</a>
</g>
</g>
<!-- Node16&#45;&gt;Node32 -->
<g id="edge23" class="edge">
<title>Node16&#45;&gt;Node32</title>
<path fill="none" stroke="#191970" d="M282.4563,-253.2911C311.2725,-243.7967 355.6817,-229.1648 387.5711,-218.6579"/>
<polygon fill="#191970" stroke="#191970" points="389.0467,-221.8568 397.4492,-215.4032 386.8562,-215.2084 389.0467,-221.8568"/>
</g>
<!-- Node18 -->
<g id="node5" class="node">
<title>Node18</title>
<g id="a_node5"><a xlink:href="../../dc/d95/random_8qc.html#a3405965b1da9657276caec225d4b3acf" target="_top" xlink:title="RandomSelection_Init">
<polygon fill="none" stroke="#000000" points="536.5,-87.3316 536.5,-106.3316 659.5,-106.3316 659.5,-87.3316 536.5,-87.3316"/>
<text text-anchor="middle" x="598" y="-94.3316" font-family="Helvetica,sans-Serif" font-size="10.00" fill="#000000">RandomSelection_Init</text>
</a>
</g>
</g>
<!-- Node17&#45;&gt;Node18 -->
<g id="edge4" class="edge">
<title>Node17&#45;&gt;Node18</title>
<path fill="none" stroke="#191970" d="M495.2674,-96.8316C505.4716,-96.8316 516.01,-96.8316 526.2729,-96.8316"/>
<polygon fill="#191970" stroke="#191970" points="526.4215,-100.3317 536.4215,-96.8316 526.4214,-93.3317 526.4215,-100.3317"/>
</g>
<!-- Node19 -->
<g id="node6" class="node">
<title>Node19</title>
<g id="a_node6"><a xlink:href="../../d7/d39/sv__nix_8qc.html#a7bcb5b58de02894dfb32251eb9de36d3" target="_top" xlink:title="NIX_CanChooseWeapon">
<polygon fill="none" stroke="#000000" points="701,-96.3316 701,-115.3316 834,-115.3316 834,-96.3316 701,-96.3316"/>
<text text-anchor="middle" x="767.5" y="-103.3316" font-family="Helvetica,sans-Serif" font-size="10.00" fill="#000000">NIX_CanChooseWeapon</text>
</a>
</g>
</g>
<!-- Node17&#45;&gt;Node19 -->
<g id="edge5" class="edge">
<title>Node17&#45;&gt;Node19</title>
<path fill="none" stroke="#191970" d="M468.9713,-87.3201C487.8578,-83.5549 510.4309,-79.6863 531,-77.8316 590.3149,-72.4832 605.973,-69.9144 665,-77.8316 687.2644,-80.8179 711.54,-87.2987 730.8757,-93.2738"/>
<polygon fill="#191970" stroke="#191970" points="729.9096,-96.6391 740.5,-96.3311 732.029,-89.9677 729.9096,-96.6391"/>
</g>
<!-- Node19&#45;&gt;Node15 -->
<g id="edge6" class="edge">
<title>Node19&#45;&gt;Node15</title>
<path fill="none" stroke="#191970" d="M784.5978,-115.457C807.8269,-128.5341 849.5581,-152.0272 876.6307,-167.2681"/>
<polygon fill="#191970" stroke="#191970" points="875.1099,-170.4285 885.541,-172.2843 878.5439,-164.3286 875.1099,-170.4285"/>
</g>
<!-- Node22&#45;&gt;Node21 -->
<g id="edge14" class="edge">
<title>Node22&#45;&gt;Node21</title>
<path fill="none" stroke="#191970" d="M468.0154,-311.8432C492.5197,-307.1281 523.6606,-301.136 549.3184,-296.1989"/>
<polygon fill="#191970" stroke="#191970" points="550.0594,-299.6206 559.2179,-294.294 548.7367,-292.7467 550.0594,-299.6206"/>
</g>
<!-- Node22&#45;&gt;Node22 -->
<g id="edge12" class="edge">
<title>Node22&#45;&gt;Node22</title>
<path fill="none" stroke="#191970" d="M400.2981,-329.5886C387.5512,-338.3968 396.2852,-347.8316 426.5,-347.8316 446.8006,-347.8316 457.4044,-343.5726 458.3114,-338.1061"/>
<polygon fill="#191970" stroke="#191970" points="461.1252,-336.0151 452.7019,-329.5886 455.2791,-339.8653 461.1252,-336.0151"/>
</g>
<!-- Node23 -->
<g id="node10" class="node">
<title>Node23</title>
<g id="a_node10"><a xlink:href="../../d8/d06/client_2resources_8qc.html#a53ec0a3c5a395e2b64d468c08f49b63f" target="_top" xlink:title="Returns the current amount of resource the given entity has. ">
<polygon fill="none" stroke="#000000" points="559,-353.3316 559,-372.3316 637,-372.3316 637,-353.3316 559,-353.3316"/>
<text text-anchor="middle" x="598" y="-360.3316" font-family="Helvetica,sans-Serif" font-size="10.00" fill="#000000">GetResource</text>
</a>
</g>
</g>
<!-- Node22&#45;&gt;Node23 -->
<g id="edge11" class="edge">
<title>Node22&#45;&gt;Node23</title>
<path fill="none" stroke="#191970" d="M464.5614,-329.3747C489.7624,-335.6933 523.0209,-344.0321 550.0295,-350.804"/>
<polygon fill="#191970" stroke="#191970" points="549.494,-354.278 560.045,-353.3152 551.1965,-347.4882 549.494,-354.278"/>
</g>
<!-- Node24 -->
<g id="node11" class="node">
<title>Node24</title>
<g id="a_node11"><a xlink:href="../../d8/de2/menudefs_8qc.html#aebeeec7a2529f36483e14f76b1871271" target="_top" xlink:title="max">
<polygon fill="none" stroke="#000000" points="579,-315.3316 579,-334.3316 617,-334.3316 617,-315.3316 579,-315.3316"/>
<text text-anchor="middle" x="598" y="-322.3316" font-family="Helvetica,sans-Serif" font-size="10.00" fill="#000000">max</text>
</a>
</g>
</g>
<!-- Node22&#45;&gt;Node24 -->
<g id="edge13" class="edge">
<title>Node22&#45;&gt;Node24</title>
<path fill="none" stroke="#191970" d="M468.0154,-321.0419C499.1709,-321.9503 541.0546,-323.1714 568.757,-323.979"/>
<polygon fill="#191970" stroke="#191970" points="568.8831,-327.4841 578.9809,-324.2771 569.0872,-320.4871 568.8831,-327.4841"/>
</g>
<!-- Node26 -->
<g id="node13" class="node">
<title>Node26</title>
<g id="a_node13"><a xlink:href="../../db/d9f/state_8qh.html#afdb90637f8a711359249291ee3b3fde6" target="_top" xlink:title="CS">
<polygon fill="none" stroke="#000000" points="753,-324.3316 753,-343.3316 782,-343.3316 782,-324.3316 753,-324.3316"/>
<text text-anchor="middle" x="767.5" y="-331.3316" font-family="Helvetica,sans-Serif" font-size="10.00" fill="#000000">CS</text>
</a>
</g>
</g>
<!-- Node25&#45;&gt;Node26 -->
<g id="edge16" class="edge">
<title>Node25&#45;&gt;Node26</title>
<path fill="none" stroke="#191970" d="M646.1805,-258.4047C652.8158,-260.8687 659.2994,-263.9588 665,-267.8316 686.7649,-282.6179 679.2497,-300.0238 701,-314.8316 713.4523,-323.3093 729.6713,-328.0408 742.9742,-330.662"/>
<polygon fill="#191970" stroke="#191970" points="742.4457,-334.1222 752.89,-332.3428 743.6157,-327.2207 742.4457,-334.1222"/>
</g>
<!-- Node27 -->
<g id="node14" class="node">
<title>Node27</title>
<g id="a_node14"><a xlink:href="../../d8/de2/menudefs_8qc.html#a4ae54ed78d55acc008e6fcf8c72e779f" target="_top" xlink:title="sprint">
<polygon fill="none" stroke="#000000" points="745.5,-286.3316 745.5,-305.3316 789.5,-305.3316 789.5,-286.3316 745.5,-286.3316"/>
<text text-anchor="middle" x="767.5" y="-293.3316" font-family="Helvetica,sans-Serif" font-size="10.00" fill="#000000">sprint</text>
</a>
</g>
</g>
<!-- Node25&#45;&gt;Node27 -->
<g id="edge17" class="edge">
<title>Node25&#45;&gt;Node27</title>
<path fill="none" stroke="#191970" d="M632.3009,-258.3427C662.4142,-266.6927 705.8882,-278.7475 735.3443,-286.9152"/>
<polygon fill="#191970" stroke="#191970" points="734.5622,-290.3304 745.1338,-289.6297 736.4326,-283.5849 734.5622,-290.3304"/>
</g>
<!-- Node28 -->
<g id="node15" class="node">
<title>Node28</title>
<g id="a_node15"><a xlink:href="../../d2/d1c/weapons_2weapon_8qh.html#ac3cbbc1f9884e78a2816ff88760748d5" target="_top" xlink:title="weaponslot">
<polygon fill="none" stroke="#000000" points="731,-248.3316 731,-267.3316 804,-267.3316 804,-248.3316 731,-248.3316"/>
<text text-anchor="middle" x="767.5" y="-255.3316" font-family="Helvetica,sans-Serif" font-size="10.00" fill="#000000">weaponslot</text>
</a>
</g>
</g>
<!-- Node25&#45;&gt;Node28 -->
<g id="edge18" class="edge">
<title>Node25&#45;&gt;Node28</title>
<path fill="none" stroke="#191970" d="M650.2387,-251.6053C672.7434,-252.8003 698.8531,-254.1866 720.7146,-255.3474"/>
<polygon fill="#191970" stroke="#191970" points="720.5788,-258.845 730.7504,-255.8803 720.9501,-251.8549 720.5788,-258.845"/>
</g>
<!-- Node29 -->
<g id="node16" class="node">
<title>Node29</title>
<g id="a_node16"><a xlink:href="../../d2/d62/selection_8qc.html#a6f9b75f17639bb910d8445a136d4a837" target="_top" xlink:title="Send_WeaponComplain">
<polygon fill="none" stroke="#000000" points="702,-362.3316 702,-381.3316 833,-381.3316 833,-362.3316 702,-362.3316"/>
<text text-anchor="middle" x="767.5" y="-369.3316" font-family="Helvetica,sans-Serif" font-size="10.00" fill="#000000">Send_WeaponComplain</text>
</a>
</g>
</g>
<!-- Node25&#45;&gt;Node29 -->
<g id="edge19" class="edge">
<title>Node25&#45;&gt;Node29</title>
<path fill="none" stroke="#191970" d="M650.2006,-258.4714C655.5747,-260.9222 660.6494,-263.9907 665,-267.8316 695.7558,-294.9838 670.271,-325.649 701,-352.8316 702.928,-354.537 704.9994,-356.0901 707.1766,-357.5043"/>
<polygon fill="#191970" stroke="#191970" points="705.5609,-360.6096 716.0201,-362.2996 708.8976,-354.456 705.5609,-360.6096"/>
</g>
<!-- Node31 -->
<g id="node18" class="node">
<title>Node31</title>
<g id="a_node18"><a xlink:href="../../d2/d62/selection_8qc.html#a8ebba9ca88508abccc39d23b9c40defd" target="_top" xlink:title="Weapon_whereis">
<polygon fill="none" stroke="#000000" points="718,-210.3316 718,-229.3316 817,-229.3316 817,-210.3316 718,-210.3316"/>
<text text-anchor="middle" x="767.5" y="-217.3316" font-family="Helvetica,sans-Serif" font-size="10.00" fill="#000000">Weapon_whereis</text>
</a>
</g>
</g>
<!-- Node25&#45;&gt;Node31 -->
<g id="edge21" class="edge">
<title>Node25&#45;&gt;Node31</title>
<path fill="none" stroke="#191970" d="M650.2387,-239.894C668.4608,-236.7763 689.0464,-233.2543 707.8265,-230.0412"/>
<polygon fill="#191970" stroke="#191970" points="708.4866,-233.4792 717.7531,-228.3428 707.3061,-226.5795 708.4866,-233.4792"/>
</g>
<!-- Node30 -->
<g id="node17" class="node">
<title>Node30</title>
<g id="a_node17"><a xlink:href="../../d8/de2/menudefs_8qc.html#abd23315350cd01304b6bd77c4c5c07e6" target="_top" xlink:title="WriteByte">
<polygon fill="none" stroke="#000000" points="870,-362.3316 870,-381.3316 935,-381.3316 935,-362.3316 870,-362.3316"/>
<text text-anchor="middle" x="902.5" y="-369.3316" font-family="Helvetica,sans-Serif" font-size="10.00" fill="#000000">WriteByte</text>
</a>
</g>
</g>
<!-- Node29&#45;&gt;Node30 -->
<g id="edge20" class="edge">
<title>Node29&#45;&gt;Node30</title>
<path fill="none" stroke="#191970" d="M833.0227,-371.8316C842.0972,-371.8316 851.2194,-371.8316 859.7326,-371.8316"/>
<polygon fill="#191970" stroke="#191970" points="859.7705,-375.3317 869.7705,-371.8316 859.7704,-368.3317 859.7705,-375.3317"/>
</g>
<!-- Node31&#45;&gt;Node15 -->
<g id="edge22" class="edge">
<title>Node31&#45;&gt;Node15</title>
<path fill="none" stroke="#191970" d="M801.5662,-210.2426C822.6439,-204.3096 849.5404,-196.7387 870.2675,-190.9044"/>
<polygon fill="#191970" stroke="#191970" points="871.217,-194.2733 879.8945,-188.1946 869.3202,-187.5351 871.217,-194.2733"/>
</g>
<!-- Node32&#45;&gt;Node15 -->
<g id="edge27" class="edge">
<title>Node32&#45;&gt;Node15</title>
<path fill="none" stroke="#191970" d="M478.3465,-203.2175C576.8131,-198.2528 788.3013,-187.5895 869.6675,-183.487"/>
<polygon fill="#191970" stroke="#191970" points="870.0071,-186.9744 879.8181,-182.9752 869.6545,-179.9833 870.0071,-186.9744"/>
</g>
<!-- Node32&#45;&gt;Node25 -->
<g id="edge24" class="edge">
<title>Node32&#45;&gt;Node25</title>
<path fill="none" stroke="#191970" d="M464.5614,-215.3747C489.7624,-221.6933 523.0209,-230.0321 550.0295,-236.804"/>
<polygon fill="#191970" stroke="#191970" points="549.494,-240.278 560.045,-239.3152 551.1965,-233.4882 549.494,-240.278"/>
</g>
<!-- Node33 -->
<g id="node20" class="node">
<title>Node33</title>
<g id="a_node20"><a xlink:href="../../d2/d62/selection_8qc.html#a26a298ee4ff7a3e0706b8892030ecf1a" target="_top" xlink:title="W_SwitchWeapon_Force">
<polygon fill="none" stroke="#000000" points="531,-163.3316 531,-182.3316 665,-182.3316 665,-163.3316 531,-163.3316"/>
<text text-anchor="middle" x="598" y="-170.3316" font-family="Helvetica,sans-Serif" font-size="10.00" fill="#000000">W_SwitchWeapon_Force</text>
</a>
</g>
</g>
<!-- Node32&#45;&gt;Node33 -->
<g id="edge25" class="edge">
<title>Node32&#45;&gt;Node33</title>
<path fill="none" stroke="#191970" d="M476.1049,-196.2866C495.5695,-192.5412 518.0755,-188.2106 538.4107,-184.2977"/>
<polygon fill="#191970" stroke="#191970" points="539.3481,-187.6817 548.5066,-182.3551 538.0254,-180.8078 539.3481,-187.6817"/>
</g>
<!-- Node34 -->
<g id="node21" class="node">
<title>Node34</title>
<g id="a_node21"><a xlink:href="../../d5/de0/weaponsystem_8qc.html#ac7b6c8bdba2c394f8a3385c9bd992f9c" target="_top" xlink:title="weaponLocked">
<polygon fill="none" stroke="#000000" points="553.5,-125.3316 553.5,-144.3316 642.5,-144.3316 642.5,-125.3316 553.5,-125.3316"/>
<text text-anchor="middle" x="598" y="-132.3316" font-family="Helvetica,sans-Serif" font-size="10.00" fill="#000000">weaponLocked</text>
</a>
</g>
</g>
<!-- Node32&#45;&gt;Node34 -->
<g id="edge26" class="edge">
<title>Node32&#45;&gt;Node34</title>
<path fill="none" stroke="#191970" d="M443.437,-196.1767C463.7482,-184.8898 499.0587,-166.1848 531,-153.8316 536.9942,-151.5133 543.3879,-149.3386 549.7566,-147.3478"/>
<polygon fill="#191970" stroke="#191970" points="551.1068,-150.5972 559.6832,-144.3765 549.0994,-143.8911 551.1068,-150.5972"/>
</g>
</g>
</svg>
        <g id="navigator" transform="translate(0 0)" fill="#404254">
                <rect fill="#f2f5e9" fill-opacity="0.5" stroke="#606060" stroke-width=".5" x="0" y="0" width="60" height="60"/>
                <use id="zoomplus" xlink:href="#zoomPlus" x="17" y="9" onmousedown="handleZoom(evt,'in')"/>
                <use id="zoomminus" xlink:href="#zoomMin" x="42" y="9" onmousedown="handleZoom(evt,'out')"/>
                <use id="reset" xlink:href="#resetDef" x="30" y="36" onmousedown="handleReset()"/>
                <g id="arrowUp" xlink:href="#dirArrow" transform="translate(30 24)" onmousedown="handlePan(0,-1)">
                  <use xlink:href="#rim" fill="#404040">
                        <set attributeName="fill" to="#808080" begin="arrowUp.mouseover" end="arrowUp.mouseout"/>
                  </use>
                  <path fill="none" stroke="white" stroke-width="1.5" d="M0,-3.0v7 M-2.5,-0.5L0,-3.0L2.5,-0.5"/>
                </g>
                <g id="arrowRight" xlink:href="#dirArrow" transform="rotate(90) translate(36 -43)" onmousedown="handlePan(1,0)">
                  <use xlink:href="#rim" fill="#404040">
                        <set attributeName="fill" to="#808080" begin="arrowRight.mouseover" end="arrowRight.mouseout"/>
                  </use>
                  <path fill="none" stroke="white" stroke-width="1.5" d="M0,-3.0v7 M-2.5,-0.5L0,-3.0L2.5,-0.5"/>
                </g>
                <g id="arrowDown" xlink:href="#dirArrow" transform="rotate(180) translate(-30 -48)" onmousedown="handlePan(0,1)">
                  <use xlink:href="#rim" fill="#404040">
                        <set attributeName="fill" to="#808080" begin="arrowDown.mouseover" end="arrowDown.mouseout"/>
                  </use>
                  <path fill="none" stroke="white" stroke-width="1.5" d="M0,-3.0v7 M-2.5,-0.5L0,-3.0L2.5,-0.5"/>
                </g>
                <g id="arrowLeft" xlink:href="#dirArrow" transform="rotate(270) translate(-36 17)" onmousedown="handlePan(-1,0)">
                  <use xlink:href="#rim" fill="#404040">
                        <set attributeName="fill" to="#808080" begin="arrowLeft.mouseover" end="arrowLeft.mouseout"/>
                  </use>
                  <path fill="none" stroke="white" stroke-width="1.5" d="M0,-3.0v7 M-2.5,-0.5L0,-3.0L2.5,-0.5"/>
                </g>
        </g>
        <svg viewBox="0 0 15 15" width="100%" height="30px" preserveAspectRatio="xMaxYMin meet">
         <g id="arrow_out" transform="scale(0.3 0.3)">
          <a xlink:href="sv__nix_8qc_ac7256b175d4e46d36e04633521489e28_cgraph_org.svg" target="_base">
           <rect id="button" ry="5" rx="5" y="6" x="6" height="38" width="38"
                fill="#f2f5e9" fill-opacity="0.5" stroke="#606060" stroke-width="1.0"/>
           <path id="arrow"
             d="M 11.500037,31.436501 C 11.940474,20.09759 22.043105,11.32322 32.158766,21.979434 L 37.068811,17.246167 C 37.068811,17.246167 37.088388,32 37.088388,32 L 22.160133,31.978069 C 22.160133,31.978069 26.997745,27.140456 26.997745,27.140456 C 18.528582,18.264221 13.291696,25.230495 11.500037,31.436501 z"
             style="fill:#404040;"/>
          </a>
         </g>
        </svg>
</svg>
