<?xml version="1.0" encoding="UTF-8" standalone="no"?>
<!DOCTYPE svg PUBLIC "-//W3C//DTD SVG 1.1//EN"
 "http://www.w3.org/Graphics/SVG/1.1/DTD/svg11.dtd">
<!-- Generated by graphviz version 2.40.1 (20161225.0304)
 -->
<!-- Title: TeamScore_Add Pages: 1 -->
<svg width="350pt" height="66pt"
 viewBox="0.00 0.00 350.00 66.00" xmlns="http://www.w3.org/2000/svg" xmlns:xlink="http://www.w3.org/1999/xlink">
<g id="graph0" class="graph" transform="scale(1 1) rotate(0) translate(4 62)">
<title>TeamScore_Add</title>
<!-- Node508 -->
<g id="node1" class="node">
<title>Node508</title>
<polygon fill="#bfbfbf" stroke="#000000" points="0,-19.5 0,-38.5 94,-38.5 94,-19.5 0,-19.5"/>
<text text-anchor="middle" x="47" y="-26.5" font-family="Helvetica,sans-Serif" font-size="10.00" fill="#000000">TeamScore_Add</text>
</g>
<!-- Node509 -->
<g id="node2" class="node">
<title>Node509</title>
<g id="a_node2"><a xlink:href="../../d2/d79/scores_8qc.html#a74bac5f29749ffee855cd6a5d0e18836" target="_top" xlink:title="Adds a score to the given team. ">
<polygon fill="none" stroke="#000000" points="130,-19.5 130,-38.5 261,-38.5 261,-19.5 130,-19.5"/>
<text text-anchor="middle" x="195.5" y="-26.5" font-family="Helvetica,sans-Serif" font-size="10.00" fill="#000000">TeamScore_AddToTeam</text>
</a>
</g>
</g>
<!-- Node508&#45;&gt;Node509 -->
<g id="edge1" class="edge">
<title>Node508&#45;&gt;Node509</title>
<path fill="none" stroke="#191970" d="M94.3946,-29C102.5088,-29 111.1175,-29 119.7532,-29"/>
<polygon fill="#191970" stroke="#191970" points="119.8752,-32.5001 129.8752,-29 119.8752,-25.5001 119.8752,-32.5001"/>
</g>
<!-- Node510 -->
<g id="node3" class="node">
<title>Node510</title>
<g id="a_node3"><a xlink:href="../../d4/d0c/csprogsdefs_8qc.html#acbb54a239d76062465dccbc6a6c6e464" target="_top" xlink:title="entity">
<polygon fill="none" stroke="#000000" points="297,-38.5 297,-57.5 342,-57.5 342,-38.5 297,-38.5"/>
<text text-anchor="middle" x="319.5" y="-45.5" font-family="Helvetica,sans-Serif" font-size="10.00" fill="#000000">entity</text>
</a>
</g>
</g>
<!-- Node509&#45;&gt;Node510 -->
<g id="edge2" class="edge">
<title>Node509&#45;&gt;Node510</title>
<path fill="none" stroke="#191970" d="M257.8633,-38.5557C267.9199,-40.0966 277.9637,-41.6356 286.9364,-43.0104"/>
<polygon fill="#191970" stroke="#191970" points="286.4994,-46.4842 296.9142,-44.5393 287.5597,-39.565 286.4994,-46.4842"/>
</g>
<!-- Node511 -->
<g id="node4" class="node">
<title>Node511</title>
<g id="a_node4"><a xlink:href="../../d8/de2/menudefs_8qc.html#a56b53595c8aa15ca107c03896db91fd2" target="_top" xlink:title="error">
<polygon fill="none" stroke="#000000" points="299.5,-.5 299.5,-19.5 339.5,-19.5 339.5,-.5 299.5,-.5"/>
<text text-anchor="middle" x="319.5" y="-7.5" font-family="Helvetica,sans-Serif" font-size="10.00" fill="#000000">error</text>
</a>
</g>
</g>
<!-- Node509&#45;&gt;Node511 -->
<g id="edge3" class="edge">
<title>Node509&#45;&gt;Node511</title>
<path fill="none" stroke="#191970" d="M257.8633,-19.4443C268.8179,-17.7658 279.7574,-16.0896 289.3138,-14.6253"/>
<polygon fill="#191970" stroke="#191970" points="290.0882,-18.0476 299.4427,-13.0733 289.0279,-11.1283 290.0882,-18.0476"/>
</g>
</g>
</svg>
