<?xml version="1.0" encoding="UTF-8" standalone="no"?>
<!DOCTYPE svg PUBLIC "-//W3C//DTD SVG 1.1//EN"
 "http://www.w3.org/Graphics/SVG/1.1/DTD/svg11.dtd">
<!-- Generated by graphviz version 2.38.0 (20140413.2041)
 -->
<!-- Title: PlayerTeamScore_Add Pages: 1 -->
<!--zoomable 306 -->
<svg id="main" version="1.1" xmlns="http://www.w3.org/2000/svg" xmlns:xlink="http://www.w3.org/1999/xlink" xml:space="preserve" onload="init(evt)">
<style type="text/css"><![CDATA[
.edge:hover path { stroke: red; }
.edge:hover polygon { stroke: red; fill: red; }
]]></style>
<script type="text/javascript"><![CDATA[
var edges = document.getElementsByTagName('g');
if (edges && edges.length) {
  for (var i=0;i<edges.length;i++) {
    if (edges[i].id.substr(0,4)=='edge') {
      edges[i].setAttribute('class','edge');
    }
  }
}
]]></script>
        <defs>
                <circle id="rim" cx="0" cy="0" r="7"/>
                <circle id="rim2" cx="0" cy="0" r="3.5"/>
                <g id="zoomPlus">
                        <use xlink:href="#rim" fill="#404040">
                                <set attributeName="fill" to="#808080" begin="zoomplus.mouseover" end="zoomplus.mouseout"/>
                        </use>
                        <path d="M-4,0h8M0,-4v8" fill="none" stroke="white" stroke-width="1.5" pointer-events="none"/>
                </g>
                <g id="zoomMin">
                        <use xlink:href="#rim" fill="#404040">
                                <set attributeName="fill" to="#808080" begin="zoomminus.mouseover" end="zoomminus.mouseout"/>
                        </use>
                        <path d="M-4,0h8" fill="none" stroke="white" stroke-width="1.5" pointer-events="none"/>
                </g>
                <g id="dirArrow">
                        <path fill="none" stroke="white" stroke-width="1.5" d="M0,-3.0v7 M-2.5,-0.5L0,-3.0L2.5,-0.5"/>
                </g>
               <g id="resetDef">
                       <use xlink:href="#rim2" fill="#404040">
                               <set attributeName="fill" to="#808080" begin="reset.mouseover" end="reset.mouseout"/>
                       </use>
               </g>
        </defs>

<script type="text/javascript">
var viewWidth = 725;
var viewHeight = 306;
var sectionId = 'dynsection-16';
</script>
<script xlink:href="../../svgpan.js"/>
<svg id="graph" class="graph">
<g id="viewport">
<title>PlayerTeamScore_Add</title>
<!-- Node1 -->
<g id="node1" class="node"><title>Node1</title>
<polygon fill="#bfbfbf" stroke="black" points="0,-99.5 0,-118.5 123,-118.5 123,-99.5 0,-99.5"/>
<text text-anchor="middle" x="61.5" y="-106.5" font-family="Helvetica,sans-Serif" font-size="10.00">PlayerTeamScore_Add</text>
</g>
<!-- Node2 -->
<g id="node2" class="node"><title>Node2</title>
<g id="a_node2"><a xlink:href="../../d2/d79/scores_8qc.html#aebb89cf706a7b2fe6037e3ab4e56dfe4" target="_top" xlink:title="Adds a score to the player&#39;s scores. ">
<polygon fill="none" stroke="black" points="159,-123.5 159,-142.5 257,-142.5 257,-123.5 159,-123.5"/>
<text text-anchor="middle" x="208" y="-130.5" font-family="Helvetica,sans-Serif" font-size="10.00">PlayerScore_Add</text>
</a>
</g>
</g>
<!-- Node1&#45;&gt;Node2 -->
<g id="edge1" class="edge"><title>Node1&#45;&gt;Node2</title>
<path fill="none" stroke="midnightblue" d="M120.025,-118.554C129.504,-120.129 139.336,-121.762 148.831,-123.339"/>
<polygon fill="midnightblue" stroke="midnightblue" points="148.53,-126.837 158.968,-125.022 149.677,-119.931 148.53,-126.837"/>
</g>
<!-- Node16 -->
<g id="node16" class="node"><title>Node16</title>
<g id="a_node16"><a xlink:href="../../d2/d79/scores_8qc.html#a394bf84d67f07e376beeff4a5c6ed94c" target="_top" xlink:title="Adds a score to the player&#39;s team&#39;s scores. ">
<polygon fill="none" stroke="black" points="161,-76.5 161,-95.5 255,-95.5 255,-76.5 161,-76.5"/>
<text text-anchor="middle" x="208" y="-83.5" font-family="Helvetica,sans-Serif" font-size="10.00">TeamScore_Add</text>
</a>
</g>
</g>
<!-- Node1&#45;&gt;Node16 -->
<g id="edge18" class="edge"><title>Node1&#45;&gt;Node16</title>
<path fill="none" stroke="midnightblue" d="M122.526,-99.4457C131.765,-97.9751 141.279,-96.4607 150.44,-95.0026"/>
<polygon fill="midnightblue" stroke="midnightblue" points="151.274,-98.4141 160.599,-93.3856 150.173,-91.5011 151.274,-98.4141"/>
</g>
<!-- Node3 -->
<g id="node3" class="node"><title>Node3</title>
<g id="a_node3"><a xlink:href="../../d4/d0c/csprogsdefs_8qc.html#acbb54a239d76062465dccbc6a6c6e464" target="_top" xlink:title="entity">
<polygon fill="none" stroke="black" points="490,-95.5 490,-114.5 534,-114.5 534,-95.5 490,-95.5"/>
<text text-anchor="middle" x="512" y="-102.5" font-family="Helvetica,sans-Serif" font-size="10.00">entity</text>
</a>
</g>
</g>
<!-- Node2&#45;&gt;Node3 -->
<g id="edge2" class="edge"><title>Node2&#45;&gt;Node3</title>
<path fill="none" stroke="midnightblue" d="M257.4,-127.649C269.053,-126.406 281.468,-125.12 293,-124 359.439,-117.546 437.371,-111.001 479.723,-107.53"/>
<polygon fill="midnightblue" stroke="midnightblue" points="480.261,-110.998 489.943,-106.696 479.691,-104.021 480.261,-110.998"/>
</g>
<!-- Node4 -->
<g id="node4" class="node"><title>Node4</title>
<g id="a_node4"><a xlink:href="../../db/d9f/state_8qh.html#afdb90637f8a711359249291ee3b3fde6" target="_top" xlink:title="CS">
<polygon fill="none" stroke="black" points="342.5,-171.5 342.5,-190.5 372.5,-190.5 372.5,-171.5 342.5,-171.5"/>
<text text-anchor="middle" x="357.5" y="-178.5" font-family="Helvetica,sans-Serif" font-size="10.00">CS</text>
</a>
</g>
</g>
<!-- Node2&#45;&gt;Node4 -->
<g id="edge3" class="edge"><title>Node2&#45;&gt;Node4</title>
<path fill="none" stroke="midnightblue" d="M235.764,-142.559C252.217,-148.356 273.763,-155.804 293,-162 306.046,-166.202 320.699,-170.607 332.639,-174.116"/>
<polygon fill="midnightblue" stroke="midnightblue" points="331.744,-177.501 342.324,-176.942 333.705,-170.781 331.744,-177.501"/>
</g>
<!-- Node15 -->
<g id="node15" class="node"><title>Node15</title>
<g id="a_node15"><a xlink:href="../../d8/de2/menudefs_8qc.html#ad76dc2b2895cd23f21e008f12a686158" target="_top" xlink:title="strcat">
<polygon fill="none" stroke="black" points="335.5,-133.5 335.5,-152.5 379.5,-152.5 379.5,-133.5 335.5,-133.5"/>
<text text-anchor="middle" x="357.5" y="-140.5" font-family="Helvetica,sans-Serif" font-size="10.00">strcat</text>
</a>
</g>
</g>
<!-- Node2&#45;&gt;Node15 -->
<g id="edge17" class="edge"><title>Node2&#45;&gt;Node15</title>
<path fill="none" stroke="midnightblue" d="M257.297,-136.274C279.66,-137.79 305.581,-139.548 325.318,-140.886"/>
<polygon fill="midnightblue" stroke="midnightblue" points="325.089,-144.378 335.303,-141.563 325.563,-137.394 325.089,-144.378"/>
</g>
<!-- Node4&#45;&gt;Node3 -->
<g id="edge5" class="edge"><title>Node4&#45;&gt;Node3</title>
<path fill="none" stroke="midnightblue" d="M372.529,-177.994C385.673,-174.904 405.684,-169.486 422,-162 446.71,-150.662 472.632,-133.353 490.084,-120.784"/>
<polygon fill="midnightblue" stroke="midnightblue" points="492.39,-123.434 498.387,-114.7 488.252,-117.787 492.39,-123.434"/>
</g>
<!-- Node5 -->
<g id="node5" class="node"><title>Node5</title>
<g id="a_node5"><a xlink:href="../../db/d9f/state_8qh.html#afc32312bf25df126b18e078bedab7837" target="_top" xlink:title="ClientState_attach">
<polygon fill="none" stroke="black" points="459,-190.5 459,-209.5 565,-209.5 565,-190.5 459,-190.5"/>
<text text-anchor="middle" x="512" y="-197.5" font-family="Helvetica,sans-Serif" font-size="10.00">ClientState_attach</text>
</a>
</g>
</g>
<!-- Node4&#45;&gt;Node5 -->
<g id="edge4" class="edge"><title>Node4&#45;&gt;Node5</title>
<path fill="none" stroke="midnightblue" d="M372.573,-182.753C389.911,-184.913 420.517,-188.727 448.55,-192.219"/>
<polygon fill="midnightblue" stroke="midnightblue" points="448.375,-195.725 458.732,-193.488 449.241,-188.778 448.375,-195.725"/>
</g>
<!-- Node6 -->
<g id="node6" class="node"><title>Node6</title>
<g id="a_node6"><a xlink:href="../../db/d9f/state_8qh.html#ae17cd2d1c2291942edc23455fc1db486" target="_top" xlink:title="ClientState_detach">
<polygon fill="none" stroke="black" points="458,-152.5 458,-171.5 566,-171.5 566,-152.5 458,-152.5"/>
<text text-anchor="middle" x="512" y="-159.5" font-family="Helvetica,sans-Serif" font-size="10.00">ClientState_detach</text>
</a>
</g>
</g>
<!-- Node4&#45;&gt;Node6 -->
<g id="edge6" class="edge"><title>Node4&#45;&gt;Node6</title>
<path fill="none" stroke="midnightblue" d="M372.573,-175.133C389.714,-170.923 419.823,-166.321 447.593,-163.236"/>
<polygon fill="midnightblue" stroke="midnightblue" points="448.112,-166.701 457.69,-162.171 447.378,-159.739 448.112,-166.701"/>
</g>
<!-- Node6&#45;&gt;Node4 -->
<g id="edge8" class="edge"><title>Node6&#45;&gt;Node4</title>
<path fill="none" stroke="midnightblue" d="M479.286,-171.551C450.565,-176.816 408.864,-181.843 382.735,-183.075"/>
<polygon fill="midnightblue" stroke="midnightblue" points="382.471,-179.581 372.573,-183.36 382.668,-186.578 382.471,-179.581"/>
</g>
<!-- Node7 -->
<g id="node7" class="node"><title>Node7</title>
<g id="a_node7"><a xlink:href="../../d0/d3f/state_8qc.html#aee720441a84489b04449de94ce835994" target="_top" xlink:title="GetCvars">
<polygon fill="none" stroke="black" points="629,-190.5 629,-209.5 690,-209.5 690,-190.5 629,-190.5"/>
<text text-anchor="middle" x="659.5" y="-197.5" font-family="Helvetica,sans-Serif" font-size="10.00">GetCvars</text>
</a>
</g>
</g>
<!-- Node6&#45;&gt;Node7 -->
<g id="edge7" class="edge"><title>Node6&#45;&gt;Node7</title>
<path fill="none" stroke="midnightblue" d="M549.716,-171.589C570.792,-177.093 597.266,-184.008 618.82,-189.637"/>
<polygon fill="midnightblue" stroke="midnightblue" points="618.09,-193.063 628.65,-192.204 619.859,-186.291 618.09,-193.063"/>
</g>
<!-- Node8 -->
<g id="node8" class="node"><title>Node8</title>
<g id="a_node8"><a xlink:href="../../d0/d3f/state_8qc.html#a34f4025222e4edd5d1dcee5b90656bec" target="_top" xlink:title="accuracy_free">
<polygon fill="none" stroke="black" points="618,-152.5 618,-171.5 701,-171.5 701,-152.5 618,-152.5"/>
<text text-anchor="middle" x="659.5" y="-159.5" font-family="Helvetica,sans-Serif" font-size="10.00">accuracy_free</text>
</a>
</g>
</g>
<!-- Node6&#45;&gt;Node8 -->
<g id="edge9" class="edge"><title>Node6&#45;&gt;Node8</title>
<path fill="none" stroke="midnightblue" d="M566.353,-162C579.925,-162 594.469,-162 607.9,-162"/>
<polygon fill="midnightblue" stroke="midnightblue" points="607.919,-165.5 617.919,-162 607.919,-158.5 607.919,-165.5"/>
</g>
<!-- Node9 -->
<g id="node9" class="node"><title>Node9</title>
<g id="a_node9"><a xlink:href="../../d0/d3f/state_8qc.html#a7fd595275a5ab3b24efdf5dc24933c46" target="_top" xlink:title="PlayerScore_Detach">
<polygon fill="none" stroke="black" points="603,-114.5 603,-133.5 716,-133.5 716,-114.5 603,-114.5"/>
<text text-anchor="middle" x="659.5" y="-121.5" font-family="Helvetica,sans-Serif" font-size="10.00">PlayerScore_Detach</text>
</a>
</g>
</g>
<!-- Node6&#45;&gt;Node9 -->
<g id="edge10" class="edge"><title>Node6&#45;&gt;Node9</title>
<path fill="none" stroke="midnightblue" d="M549.716,-152.411C568.657,-147.464 591.957,-141.379 612.129,-136.111"/>
<polygon fill="midnightblue" stroke="midnightblue" points="613.257,-139.433 622.048,-133.52 611.488,-132.661 613.257,-139.433"/>
</g>
<!-- Node10 -->
<g id="node10" class="node"><title>Node10</title>
<g id="a_node10"><a xlink:href="../../d0/d3f/state_8qc.html#a8fe4ed7866766d38e6cf3bfd1c4b239e" target="_top" xlink:title="W_HitPlotClose">
<polygon fill="none" stroke="black" points="615.5,-76.5 615.5,-95.5 703.5,-95.5 703.5,-76.5 615.5,-76.5"/>
<text text-anchor="middle" x="659.5" y="-83.5" font-family="Helvetica,sans-Serif" font-size="10.00">W_HitPlotClose</text>
</a>
</g>
</g>
<!-- Node6&#45;&gt;Node10 -->
<g id="edge11" class="edge"><title>Node6&#45;&gt;Node10</title>
<path fill="none" stroke="midnightblue" d="M525.683,-152.45C542.441,-140.174 573.21,-118.801 602,-105 606.433,-102.875 611.166,-100.885 615.935,-99.0517"/>
<polygon fill="midnightblue" stroke="midnightblue" points="617.48,-102.215 625.69,-95.5186 615.096,-95.6331 617.48,-102.215"/>
</g>
<!-- Node11 -->
<g id="node11" class="node"><title>Node11</title>
<g id="a_node11"><a xlink:href="../../d0/d3f/state_8qc.html#a493d87cfdaad13d4de171211f5f7bc4d" target="_top" xlink:title="ClientData_Detach">
<polygon fill="none" stroke="black" points="606,-278.5 606,-297.5 713,-297.5 713,-278.5 606,-278.5"/>
<text text-anchor="middle" x="659.5" y="-285.5" font-family="Helvetica,sans-Serif" font-size="10.00">ClientData_Detach</text>
</a>
</g>
</g>
<!-- Node6&#45;&gt;Node11 -->
<g id="edge12" class="edge"><title>Node6&#45;&gt;Node11</title>
<path fill="none" stroke="midnightblue" d="M551.99,-171.611C557.114,-174.07 561.974,-177.148 566,-181 596.532,-210.214 571.18,-240.09 602,-269 603.686,-270.582 605.509,-272.033 607.431,-273.363"/>
<polygon fill="midnightblue" stroke="midnightblue" points="605.958,-276.552 616.381,-278.456 609.421,-270.468 605.958,-276.552"/>
</g>
<!-- Node12 -->
<g id="node12" class="node"><title>Node12</title>
<g id="a_node12"><a xlink:href="../../d0/d3f/state_8qc.html#ac87f3b0e72460f99913d0a56abac6990" target="_top" xlink:title="entcs_detach">
<polygon fill="none" stroke="black" points="619,-38.5 619,-57.5 700,-57.5 700,-38.5 619,-38.5"/>
<text text-anchor="middle" x="659.5" y="-45.5" font-family="Helvetica,sans-Serif" font-size="10.00">entcs_detach</text>
</a>
</g>
</g>
<!-- Node6&#45;&gt;Node12 -->
<g id="edge14" class="edge"><title>Node6&#45;&gt;Node12</title>
<path fill="none" stroke="midnightblue" d="M529.569,-152.468C540.717,-145.522 555.281,-135.368 566,-124 586.556,-102.2 578.439,-85.5111 602,-67 604.404,-65.1109 607.006,-63.4048 609.728,-61.8646"/>
<polygon fill="midnightblue" stroke="midnightblue" points="611.27,-65.0069 618.736,-57.4892 608.211,-58.7105 611.27,-65.0069"/>
</g>
<!-- Node13 -->
<g id="node13" class="node"><title>Node13</title>
<g id="a_node13"><a xlink:href="../../d0/d3f/state_8qc.html#ab10bcd46b240e1fd8154de39ddd5c40e" target="_top" xlink:title="bot_clientdisconnect">
<polygon fill="none" stroke="black" points="602,-0.5 602,-19.5 717,-19.5 717,-0.5 602,-0.5"/>
<text text-anchor="middle" x="659.5" y="-7.5" font-family="Helvetica,sans-Serif" font-size="10.00">bot_clientdisconnect</text>
</a>
</g>
</g>
<!-- Node6&#45;&gt;Node13 -->
<g id="edge15" class="edge"><title>Node6&#45;&gt;Node13</title>
<path fill="none" stroke="midnightblue" d="M531.591,-152.38C542.874,-145.728 556.821,-135.937 566,-124 593.523,-88.2058 569.475,-60.3179 602,-29 603.635,-27.4253 605.405,-25.981 607.275,-24.6563"/>
<polygon fill="midnightblue" stroke="midnightblue" points="609.117,-27.6341 616,-19.5804 605.597,-21.5834 609.117,-27.6341"/>
</g>
<!-- Node14 -->
<g id="node14" class="node"><title>Node14</title>
<g id="a_node14"><a xlink:href="../../d0/d3f/state_8qc.html#abbd5a2c9639d75d5ac7e98fbd60856ab" target="_top" xlink:title="anticheat_report_to\l_eventlog">
<polygon fill="none" stroke="black" points="604,-229 604,-259 715,-259 715,-229 604,-229"/>
<text text-anchor="start" x="612" y="-247" font-family="Helvetica,sans-Serif" font-size="10.00">anticheat_report_to</text>
<text text-anchor="middle" x="659.5" y="-236" font-family="Helvetica,sans-Serif" font-size="10.00">_eventlog</text>
</a>
</g>
</g>
<!-- Node6&#45;&gt;Node14 -->
<g id="edge16" class="edge"><title>Node6&#45;&gt;Node14</title>
<path fill="none" stroke="midnightblue" d="M547.205,-171.592C553.711,-174.145 560.27,-177.26 566,-181 585.481,-193.717 582.992,-205.587 602,-219 604.505,-220.767 607.154,-222.452 609.885,-224.049"/>
<polygon fill="midnightblue" stroke="midnightblue" points="608.342,-227.194 618.806,-228.854 611.661,-221.031 608.342,-227.194"/>
</g>
<!-- Node11&#45;&gt;Node4 -->
<g id="edge13" class="edge"><title>Node11&#45;&gt;Node4</title>
<path fill="none" stroke="midnightblue" d="M630.028,-278.486C621.054,-275.471 611.107,-272.112 602,-269 537.892,-247.091 521.652,-242.199 458,-219 431.962,-209.51 402.308,-198.107 382.197,-190.284"/>
<polygon fill="midnightblue" stroke="midnightblue" points="383.208,-186.922 372.619,-186.549 380.664,-193.443 383.208,-186.922"/>
</g>
<!-- Node17 -->
<g id="node17" class="node"><title>Node17</title>
<g id="a_node17"><a xlink:href="../../d2/d79/scores_8qc.html#a74bac5f29749ffee855cd6a5d0e18836" target="_top" xlink:title="Adds a score to the given team. ">
<polygon fill="none" stroke="black" points="293,-57.5 293,-76.5 422,-76.5 422,-57.5 293,-57.5"/>
<text text-anchor="middle" x="357.5" y="-64.5" font-family="Helvetica,sans-Serif" font-size="10.00">TeamScore_AddToTeam</text>
</a>
</g>
</g>
<!-- Node16&#45;&gt;Node17 -->
<g id="edge19" class="edge"><title>Node16&#45;&gt;Node17</title>
<path fill="none" stroke="midnightblue" d="M255.265,-80.0404C264.014,-78.9135 273.364,-77.7091 282.715,-76.5045"/>
<polygon fill="midnightblue" stroke="midnightblue" points="283.363,-79.9501 292.834,-75.2011 282.469,-73.0074 283.363,-79.9501"/>
</g>
<!-- Node17&#45;&gt;Node3 -->
<g id="edge20" class="edge"><title>Node17&#45;&gt;Node3</title>
<path fill="none" stroke="midnightblue" d="M396.982,-76.589C422.654,-82.9859 455.967,-91.2869 479.948,-97.2624"/>
<polygon fill="midnightblue" stroke="midnightblue" points="479.376,-100.727 489.926,-99.7487 481.069,-93.9346 479.376,-100.727"/>
</g>
</g>
</svg>
        <g id="navigator" transform="translate(0 0)" fill="#404254">
                <rect fill="#f2f5e9" fill-opacity="0.5" stroke="#606060" stroke-width=".5" x="0" y="0" width="60" height="60"/>
                <use id="zoomplus" xlink:href="#zoomPlus" x="17" y="9" onmousedown="handleZoom(evt,'in')"/>
                <use id="zoomminus" xlink:href="#zoomMin" x="42" y="9" onmousedown="handleZoom(evt,'out')"/>
                <use id="reset" xlink:href="#resetDef" x="30" y="36" onmousedown="handleReset()"/>
                <g id="arrowUp" xlink:href="#dirArrow" transform="translate(30 24)" onmousedown="handlePan(0,-1)">
                  <use xlink:href="#rim" fill="#404040">
                        <set attributeName="fill" to="#808080" begin="arrowUp.mouseover" end="arrowUp.mouseout"/>
                  </use>
                  <path fill="none" stroke="white" stroke-width="1.5" d="M0,-3.0v7 M-2.5,-0.5L0,-3.0L2.5,-0.5"/>
                </g>
                <g id="arrowRight" xlink:href="#dirArrow" transform="rotate(90) translate(36 -43)" onmousedown="handlePan(1,0)">
                  <use xlink:href="#rim" fill="#404040">
                        <set attributeName="fill" to="#808080" begin="arrowRight.mouseover" end="arrowRight.mouseout"/>
                  </use>
                  <path fill="none" stroke="white" stroke-width="1.5" d="M0,-3.0v7 M-2.5,-0.5L0,-3.0L2.5,-0.5"/>
                </g>
                <g id="arrowDown" xlink:href="#dirArrow" transform="rotate(180) translate(-30 -48)" onmousedown="handlePan(0,1)">
                  <use xlink:href="#rim" fill="#404040">
                        <set attributeName="fill" to="#808080" begin="arrowDown.mouseover" end="arrowDown.mouseout"/>
                  </use>
                  <path fill="none" stroke="white" stroke-width="1.5" d="M0,-3.0v7 M-2.5,-0.5L0,-3.0L2.5,-0.5"/>
                </g>
                <g id="arrowLeft" xlink:href="#dirArrow" transform="rotate(270) translate(-36 17)" onmousedown="handlePan(-1,0)">
                  <use xlink:href="#rim" fill="#404040">
                        <set attributeName="fill" to="#808080" begin="arrowLeft.mouseover" end="arrowLeft.mouseout"/>
                  </use>
                  <path fill="none" stroke="white" stroke-width="1.5" d="M0,-3.0v7 M-2.5,-0.5L0,-3.0L2.5,-0.5"/>
                </g>
        </g>
        <svg viewBox="0 0 15 15" width="100%" height="30px" preserveAspectRatio="xMaxYMin meet">
         <g id="arrow_out" transform="scale(0.3 0.3)">
          <a xlink:href="server_2scores_8qh_a95c06d8a35e1db6d343a7c883241444c_cgraph_org.svg" target="_base">
           <rect id="button" ry="5" rx="5" y="6" x="6" height="38" width="38"
                fill="#f2f5e9" fill-opacity="0.5" stroke="#606060" stroke-width="1.0"/>
           <path id="arrow"
             d="M 11.500037,31.436501 C 11.940474,20.09759 22.043105,11.32322 32.158766,21.979434 L 37.068811,17.246167 C 37.068811,17.246167 37.088388,32 37.088388,32 L 22.160133,31.978069 C 22.160133,31.978069 26.997745,27.140456 26.997745,27.140456 C 18.528582,18.264221 13.291696,25.230495 11.500037,31.436501 z"
             style="fill:#404040;"/>
          </a>
         </g>
        </svg>
</svg>
