<?xml version="1.0" encoding="UTF-8" standalone="no"?>
<!DOCTYPE svg PUBLIC "-//W3C//DTD SVG 1.1//EN"
 "http://www.w3.org/Graphics/SVG/1.1/DTD/svg11.dtd">
<!-- Generated by graphviz version 2.36.0 (20140111.2315)
 -->
<!-- Title: WinningConditionHelper Pages: 1 -->
<!--zoomable 248 -->
<svg id="main" version="1.1" xmlns="http://www.w3.org/2000/svg" xmlns:xlink="http://www.w3.org/1999/xlink" xml:space="preserve" onload="init(evt)">
<style type="text/css"><![CDATA[
.edge:hover path { stroke: red; }
.edge:hover polygon { stroke: red; fill: red; }
]]></style>
<script type="text/javascript"><![CDATA[
var edges = document.getElementsByTagName('g');
if (edges && edges.length) {
  for (var i=0;i<edges.length;i++) {
    if (edges[i].id.substr(0,4)=='edge') {
      edges[i].setAttribute('class','edge');
    }
  }
}
]]></script>
        <defs>
                <circle id="rim" cx="0" cy="0" r="7"/>
                <circle id="rim2" cx="0" cy="0" r="3.5"/>
                <g id="zoomPlus">
                        <use xlink:href="#rim" fill="#404040">
                                <set attributeName="fill" to="#808080" begin="zoomplus.mouseover" end="zoomplus.mouseout"/>
                        </use>
                        <path d="M-4,0h8M0,-4v8" fill="none" stroke="white" stroke-width="1.5" pointer-events="none"/>
                </g>
                <g id="zoomMin">
                        <use xlink:href="#rim" fill="#404040">
                                <set attributeName="fill" to="#808080" begin="zoomminus.mouseover" end="zoomminus.mouseout"/>
                        </use>
                        <path d="M-4,0h8" fill="none" stroke="white" stroke-width="1.5" pointer-events="none"/>
                </g>
                <g id="dirArrow">
                        <path fill="none" stroke="white" stroke-width="1.5" d="M0,-3.0v7 M-2.5,-0.5L0,-3.0L2.5,-0.5"/>
                </g>
               <g id="resetDef">
                       <use xlink:href="#rim2" fill="#404040">
                               <set attributeName="fill" to="#808080" begin="reset.mouseover" end="reset.mouseout"/>
                       </use>
               </g>
        </defs>

<script type="text/javascript">
var viewWidth = 682;
var viewHeight = 248;
var sectionId = 'dynsection-33';
</script>
<script xlink:href="../../svgpan.js"/>
<svg id="graph" class="graph">
<g id="viewport">
<title>WinningConditionHelper</title>
<!-- Node1 -->
<g id="node1" class="node"><title>Node1</title>
<polygon fill="#bfbfbf" stroke="black" points="0,-163.5 0,-182.5 122,-182.5 122,-163.5 0,-163.5"/>
<text text-anchor="middle" x="61" y="-170.5" font-family="Helvetica,sans-Serif" font-size="10.00">WinningConditionHelper</text>
</g>
<!-- Node2 -->
<g id="node2" class="node"><title>Node2</title>
<g id="a_node2"><a xlink:href="../../db/dcc/g__world_8qc.html#aac7f083651dfcb99dbbd8afc5e339233" target="_top" xlink:title="spawnfunc">
<polygon fill="none" stroke="black" points="194,-220.5 194,-239.5 258,-239.5 258,-220.5 194,-220.5"/>
<text text-anchor="middle" x="226" y="-227.5" font-family="Helvetica,sans-Serif" font-size="10.00">spawnfunc</text>
</a>
</g>
</g>
<!-- Node1&#45;&gt;Node2 -->
<g id="edge1" class="edge"><title>Node1&#45;&gt;Node2</title>
<path fill="none" stroke="midnightblue" d="M93.7036,-186.48C112.271,-194.139 136.27,-203.639 158,-211 169.566,-214.918 182.434,-218.702 193.778,-221.848"/>
<polygon fill="midnightblue" stroke="midnightblue" points="94.8411,-183.162 84.2638,-182.551 92.1515,-189.625 94.8411,-183.162"/>
</g>
<!-- Node3 -->
<g id="node3" class="node"><title>Node3</title>
<g id="a_node3"><a xlink:href="../../d7/dbb/sv__assault_8qc.html#adc4d12f7dad0d3fca008c994bb1a7e73" target="_top" xlink:title="WinningCondition_Assault">
<polygon fill="none" stroke="black" points="160.5,-182.5 160.5,-201.5 291.5,-201.5 291.5,-182.5 160.5,-182.5"/>
<text text-anchor="middle" x="226" y="-189.5" font-family="Helvetica,sans-Serif" font-size="10.00">WinningCondition_Assault</text>
</a>
</g>
</g>
<!-- Node1&#45;&gt;Node3 -->
<g id="edge2" class="edge"><title>Node1&#45;&gt;Node3</title>
<path fill="none" stroke="midnightblue" d="M132.259,-181.19C141.594,-182.278 151.13,-183.389 160.363,-184.466"/>
<polygon fill="midnightblue" stroke="midnightblue" points="132.57,-177.702 122.232,-180.021 131.76,-184.655 132.57,-177.702"/>
</g>
<!-- Node5 -->
<g id="node5" class="node"><title>Node5</title>
<g id="a_node5"><a xlink:href="../../db/da5/sv__invasion_8qc.html#a0f05297c633fd91bd5f35ae78402f338" target="_top" xlink:title="WinningCondition_Invasion">
<polygon fill="none" stroke="black" points="158.5,-144.5 158.5,-163.5 293.5,-163.5 293.5,-144.5 158.5,-144.5"/>
<text text-anchor="middle" x="226" y="-151.5" font-family="Helvetica,sans-Serif" font-size="10.00">WinningCondition_Invasion</text>
</a>
</g>
</g>
<!-- Node1&#45;&gt;Node5 -->
<g id="edge4" class="edge"><title>Node1&#45;&gt;Node5</title>
<path fill="none" stroke="midnightblue" d="M132.307,-164.805C140.977,-163.794 149.82,-162.763 158.432,-161.76"/>
<polygon fill="midnightblue" stroke="midnightblue" points="131.76,-161.345 122.232,-165.979 132.57,-168.298 131.76,-161.345"/>
</g>
<!-- Node7 -->
<g id="node7" class="node"><title>Node7</title>
<g id="a_node7"><a xlink:href="../../d7/d97/g__world_8qh.html#a78c0ed0111dcca8924305a46bbf880bd" target="_top" xlink:title="WinningCondition_Scores">
<polygon fill="none" stroke="black" points="161.5,-84.5 161.5,-103.5 290.5,-103.5 290.5,-84.5 161.5,-84.5"/>
<text text-anchor="middle" x="226" y="-91.5" font-family="Helvetica,sans-Serif" font-size="10.00">WinningCondition_Scores</text>
</a>
</g>
</g>
<!-- Node1&#45;&gt;Node7 -->
<g id="edge6" class="edge"><title>Node1&#45;&gt;Node7</title>
<path fill="none" stroke="midnightblue" d="M90.7792,-159.052C123.696,-143.098 176.714,-117.402 205.269,-103.563"/>
<polygon fill="midnightblue" stroke="midnightblue" points="89.1339,-155.96 81.6616,-163.471 92.1869,-162.259 89.1339,-155.96"/>
</g>
<!-- Node4 -->
<g id="node4" class="node"><title>Node4</title>
<g id="a_node4"><a xlink:href="../../d7/dbb/sv__assault_8qc.html#a0621c1e24e8a979d60d9a7617d84e7e5" target="_top" xlink:title="MUTATOR_HOOKFUNCTION">
<polygon fill="none" stroke="black" points="330.5,-182.5 330.5,-201.5 483.5,-201.5 483.5,-182.5 330.5,-182.5"/>
<text text-anchor="middle" x="407" y="-189.5" font-family="Helvetica,sans-Serif" font-size="10.00">MUTATOR_HOOKFUNCTION</text>
</a>
</g>
</g>
<!-- Node3&#45;&gt;Node4 -->
<g id="edge3" class="edge"><title>Node3&#45;&gt;Node4</title>
<path fill="none" stroke="midnightblue" d="M301.727,-192C311.138,-192 320.774,-192 330.201,-192"/>
<polygon fill="midnightblue" stroke="midnightblue" points="301.623,-188.5 291.623,-192 301.623,-195.5 301.623,-188.5"/>
</g>
<!-- Node6 -->
<g id="node6" class="node"><title>Node6</title>
<g id="a_node6"><a xlink:href="../../db/da5/sv__invasion_8qc.html#a3e122eba2af4eac7636cc046347e9fa8" target="_top" xlink:title="MUTATOR_HOOKFUNCTION">
<polygon fill="none" stroke="black" points="330.5,-144.5 330.5,-163.5 483.5,-163.5 483.5,-144.5 330.5,-144.5"/>
<text text-anchor="middle" x="407" y="-151.5" font-family="Helvetica,sans-Serif" font-size="10.00">MUTATOR_HOOKFUNCTION</text>
</a>
</g>
</g>
<!-- Node5&#45;&gt;Node6 -->
<g id="edge5" class="edge"><title>Node5&#45;&gt;Node6</title>
<path fill="none" stroke="midnightblue" d="M303.834,-154C312.589,-154 321.509,-154 330.25,-154"/>
<polygon fill="midnightblue" stroke="midnightblue" points="303.653,-150.5 293.653,-154 303.653,-157.5 303.653,-150.5"/>
</g>
<!-- Node8 -->
<g id="node8" class="node"><title>Node8</title>
<g id="a_node8"><a xlink:href="../../db/dec/sv__race_8qc.html#aedd0fd187ff98ac747b935a639930a4f" target="_top" xlink:title="WinningCondition_Race">
<polygon fill="none" stroke="black" points="346,-106.5 346,-125.5 468,-125.5 468,-106.5 346,-106.5"/>
<text text-anchor="middle" x="407" y="-113.5" font-family="Helvetica,sans-Serif" font-size="10.00">WinningCondition_Race</text>
</a>
</g>
</g>
<!-- Node7&#45;&gt;Node8 -->
<g id="edge7" class="edge"><title>Node7&#45;&gt;Node8</title>
<path fill="none" stroke="midnightblue" d="M300.87,-103.079C315.856,-104.921 331.446,-106.837 345.888,-108.612"/>
<polygon fill="midnightblue" stroke="midnightblue" points="300.965,-99.5644 290.613,-101.818 300.111,-106.512 300.965,-99.5644"/>
</g>
<!-- Node10 -->
<g id="node10" class="node"><title>Node10</title>
<g id="a_node10"><a xlink:href="../../db/dec/sv__race_8qc.html#a3b261b32268df9b8054fd11440ec03dd" target="_top" xlink:title="WinningCondition_Qualifying\lThenRace">
<polygon fill="none" stroke="black" points="336,-57 336,-87 478,-87 478,-57 336,-57"/>
<text text-anchor="start" x="344" y="-75" font-family="Helvetica,sans-Serif" font-size="10.00">WinningCondition_Qualifying</text>
<text text-anchor="middle" x="407" y="-64" font-family="Helvetica,sans-Serif" font-size="10.00">ThenRace</text>
</a>
</g>
</g>
<!-- Node7&#45;&gt;Node10 -->
<g id="edge9" class="edge"><title>Node7&#45;&gt;Node10</title>
<path fill="none" stroke="midnightblue" d="M300.72,-84.9394C312.353,-83.5097 324.353,-82.0348 335.901,-80.6156"/>
<polygon fill="midnightblue" stroke="midnightblue" points="300.111,-81.4879 290.613,-86.1817 300.965,-88.4356 300.111,-81.4879"/>
</g>
<!-- Node11 -->
<g id="node11" class="node"><title>Node11</title>
<g id="a_node11"><a xlink:href="../../d7/d97/g__world_8qh.html#a233af455133bc7ba4e3e100115bf2885" target="_top" xlink:title="CheckRules_World">
<polygon fill="none" stroke="black" points="356.5,-0.5 356.5,-19.5 457.5,-19.5 457.5,-0.5 356.5,-0.5"/>
<text text-anchor="middle" x="407" y="-7.5" font-family="Helvetica,sans-Serif" font-size="10.00">CheckRules_World</text>
</a>
</g>
</g>
<!-- Node7&#45;&gt;Node11 -->
<g id="edge11" class="edge"><title>Node7&#45;&gt;Node11</title>
<path fill="none" stroke="midnightblue" d="M256.694,-80.0655C293.193,-62.9374 354.158,-34.3281 385.706,-19.5235"/>
<polygon fill="midnightblue" stroke="midnightblue" points="255.099,-76.9474 247.534,-84.3641 258.073,-83.2843 255.099,-76.9474"/>
</g>
<!-- Node9 -->
<g id="node9" class="node"><title>Node9</title>
<g id="a_node9"><a xlink:href="../../db/dec/sv__race_8qc.html#ad601e69c9fca1422bb42871196dba243" target="_top" xlink:title="MUTATOR_HOOKFUNCTION">
<polygon fill="none" stroke="black" points="520.5,-84.5 520.5,-103.5 673.5,-103.5 673.5,-84.5 520.5,-84.5"/>
<text text-anchor="middle" x="597" y="-91.5" font-family="Helvetica,sans-Serif" font-size="10.00">MUTATOR_HOOKFUNCTION</text>
</a>
</g>
</g>
<!-- Node8&#45;&gt;Node9 -->
<g id="edge8" class="edge"><title>Node8&#45;&gt;Node9</title>
<path fill="none" stroke="midnightblue" d="M478.334,-107.769C492.057,-106.164 506.499,-104.473 520.385,-102.849"/>
<polygon fill="midnightblue" stroke="midnightblue" points="477.527,-104.34 468.001,-108.979 478.34,-111.292 477.527,-104.34"/>
</g>
<!-- Node10&#45;&gt;Node9 -->
<g id="edge10" class="edge"><title>Node10&#45;&gt;Node9</title>
<path fill="none" stroke="midnightblue" d="M488.128,-81.3767C498.784,-82.6236 509.683,-83.8991 520.261,-85.137"/>
<polygon fill="midnightblue" stroke="midnightblue" points="488.343,-77.8781 478.004,-80.192 487.53,-84.8306 488.343,-77.8781"/>
</g>
<!-- Node11&#45;&gt;Node11 -->
<g id="edge12" class="edge"><title>Node11&#45;&gt;Node11</title>
<path fill="none" stroke="midnightblue" d="M373.267,-27.8913C373.761,-33.5406 385.005,-38 407,-38 438.992,-38 448.24,-28.5653 434.743,-19.7571"/>
<polygon fill="midnightblue" stroke="midnightblue" points="376.146,-29.8848 379.257,-19.7571 370.509,-25.7341 376.146,-29.8848"/>
</g>
<!-- Node12 -->
<g id="node12" class="node"><title>Node12</title>
<g id="a_node12"><a xlink:href="../../d3/d4f/sv__main_8qc.html#a554af7e2ac58045168dad9eca30bc8b1" target="_top" xlink:title="StartFrame">
<polygon fill="none" stroke="black" points="564.5,-0.5 564.5,-19.5 629.5,-19.5 629.5,-0.5 564.5,-0.5"/>
<text text-anchor="middle" x="597" y="-7.5" font-family="Helvetica,sans-Serif" font-size="10.00">StartFrame</text>
</a>
</g>
</g>
<!-- Node11&#45;&gt;Node12 -->
<g id="edge13" class="edge"><title>Node11&#45;&gt;Node12</title>
<path fill="none" stroke="midnightblue" d="M468.058,-10C500.112,-10 538.249,-10 564.497,-10"/>
<polygon fill="midnightblue" stroke="midnightblue" points="467.887,-6.5001 457.887,-10 467.887,-13.5001 467.887,-6.5001"/>
</g>
</g>
</svg>
        <g id="navigator" transform="translate(0 0)" fill="#404254">
                <rect fill="#f2f5e9" fill-opacity="0.5" stroke="#606060" stroke-width=".5" x="0" y="0" width="60" height="60"/>
                <use id="zoomplus" xlink:href="#zoomPlus" x="17" y="9" onmousedown="handleZoom(evt,'in')"/>
                <use id="zoomminus" xlink:href="#zoomMin" x="42" y="9" onmousedown="handleZoom(evt,'out')"/>
                <use id="reset" xlink:href="#resetDef" x="30" y="36" onmousedown="handleReset()"/>
                <g id="arrowUp" xlink:href="#dirArrow" transform="translate(30 24)" onmousedown="handlePan(0,-1)">
                  <use xlink:href="#rim" fill="#404040">
                        <set attributeName="fill" to="#808080" begin="arrowUp.mouseover" end="arrowUp.mouseout"/>
                  </use>
                  <path fill="none" stroke="white" stroke-width="1.5" d="M0,-3.0v7 M-2.5,-0.5L0,-3.0L2.5,-0.5"/>
                </g>
                <g id="arrowRight" xlink:href="#dirArrow" transform="rotate(90) translate(36 -43)" onmousedown="handlePan(1,0)">
                  <use xlink:href="#rim" fill="#404040">
                        <set attributeName="fill" to="#808080" begin="arrowRight.mouseover" end="arrowRight.mouseout"/>
                  </use>
                  <path fill="none" stroke="white" stroke-width="1.5" d="M0,-3.0v7 M-2.5,-0.5L0,-3.0L2.5,-0.5"/>
                </g>
                <g id="arrowDown" xlink:href="#dirArrow" transform="rotate(180) translate(-30 -48)" onmousedown="handlePan(0,1)">
                  <use xlink:href="#rim" fill="#404040">
                        <set attributeName="fill" to="#808080" begin="arrowDown.mouseover" end="arrowDown.mouseout"/>
                  </use>
                  <path fill="none" stroke="white" stroke-width="1.5" d="M0,-3.0v7 M-2.5,-0.5L0,-3.0L2.5,-0.5"/>
                </g>
                <g id="arrowLeft" xlink:href="#dirArrow" transform="rotate(270) translate(-36 17)" onmousedown="handlePan(-1,0)">
                  <use xlink:href="#rim" fill="#404040">
                        <set attributeName="fill" to="#808080" begin="arrowLeft.mouseover" end="arrowLeft.mouseout"/>
                  </use>
                  <path fill="none" stroke="white" stroke-width="1.5" d="M0,-3.0v7 M-2.5,-0.5L0,-3.0L2.5,-0.5"/>
                </g>
        </g>
        <svg viewBox="0 0 15 15" width="100%" height="30px" preserveAspectRatio="xMaxYMin meet">
         <g id="arrow_out" transform="scale(0.3 0.3)">
          <a xlink:href="server_2scores_8qh_a4b24b2ecfa2e6d4914ed47ce8d16472f_icgraph_org.svg" target="_base">
           <rect id="button" ry="5" rx="5" y="6" x="6" height="38" width="38"
                fill="#f2f5e9" fill-opacity="0.5" stroke="#606060" stroke-width="1.0"/>
           <path id="arrow"
             d="M 11.500037,31.436501 C 11.940474,20.09759 22.043105,11.32322 32.158766,21.979434 L 37.068811,17.246167 C 37.068811,17.246167 37.088388,32 37.088388,32 L 22.160133,31.978069 C 22.160133,31.978069 26.997745,27.140456 26.997745,27.140456 C 18.528582,18.264221 13.291696,25.230495 11.500037,31.436501 z"
             style="fill:#404040;"/>
          </a>
         </g>
        </svg>
</svg>
