<?xml version="1.0" encoding="UTF-8" standalone="no"?>
<!DOCTYPE svg PUBLIC "-//W3C//DTD SVG 1.1//EN"
 "http://www.w3.org/Graphics/SVG/1.1/DTD/svg11.dtd">
<!-- Generated by graphviz version 2.26.3 (20100126.1600)
 -->
<!-- Title: G Pages: 1 -->
<svg width="340pt" height="270pt"
 viewBox="0.00 0.00 340.00 270.00" xmlns="http://www.w3.org/2000/svg" xmlns:xlink="http://www.w3.org/1999/xlink">
<g id="graph1" class="graph" transform="scale(1 1) rotate(0) translate(4 266)">
<title>G</title>
<!-- Node1 -->
<g id="node1" class="node"><title>Node1</title>
<polygon fill="#bfbfbf" stroke="black" points="0,-140.5 0,-161.5 94,-161.5 94,-140.5 0,-140.5"/>
<text text-anchor="middle" x="47" y="-148.5" font-family="Helvetica,sans-Serif" font-size="10.00">SUB_UseTargets</text>
</g>
<!-- Node2 -->
<g id="node3" class="node"><title>Node2</title>
<a xlink:href="../../d8/de2/menudefs_8qc.html#aa90038262dd0464a4c251487bc5efc9f" target="_top" xlink:title="centerprint">
<polygon fill="none" stroke="black" points="157,-240.5 157,-261.5 219,-261.5 219,-240.5 157,-240.5"/>
<text text-anchor="middle" x="188" y="-248.5" font-family="Helvetica,sans-Serif" font-size="10.00">centerprint</text>
</a>
</g>
<!-- Node1&#45;&gt;Node2 -->
<g id="edge2" class="edge"><title>Node1&#45;&gt;Node2</title>
<path fill="none" stroke="midnightblue" d="M55.3257,-161.585C69.1411,-178.495 98.4261,-211.662 130,-231 135.365,-234.286 141.341,-237.12 147.362,-239.536"/>
<polygon fill="midnightblue" stroke="midnightblue" points="146.184,-242.832 156.777,-242.993 148.596,-236.261 146.184,-242.832"/>
</g>
<!-- Node3 -->
<g id="node5" class="node"><title>Node3</title>
<a xlink:href="../../d6/d57/triggers_8qc.html#a1770adfe49a6c3dba50d00aa4795e748" target="_top" xlink:title="DelayThink">
<polygon fill="none" stroke="black" points="155,-200.5 155,-221.5 221,-221.5 221,-200.5 155,-200.5"/>
<text text-anchor="middle" x="188" y="-208.5" font-family="Helvetica,sans-Serif" font-size="10.00">DelayThink</text>
</a>
</g>
<!-- Node1&#45;&gt;Node3 -->
<g id="edge4" class="edge"><title>Node1&#45;&gt;Node3</title>
<path fill="none" stroke="midnightblue" d="M84.1782,-161.649C98.3534,-168.027 114.765,-175.727 130,-182 141.914,-186.905 155.52,-191.641 166.557,-196.221"/>
<polygon fill="midnightblue" stroke="midnightblue" points="165.293,-199.49 175.85,-200.384 168.155,-193.101 165.293,-199.49"/>
</g>
<!-- Node4 -->
<g id="node8" class="node"><title>Node4</title>
<a xlink:href="../../d5/df2/common_2util_8qh.html#ac5ad73cc4800e309d3b5a9147d1ce43f" target="_top" xlink:title="entity">
<polygon fill="none" stroke="black" points="167.5,-160.5 167.5,-181.5 208.5,-181.5 208.5,-160.5 167.5,-160.5"/>
<text text-anchor="middle" x="188" y="-168.5" font-family="Helvetica,sans-Serif" font-size="10.00">entity</text>
</a>
</g>
<!-- Node1&#45;&gt;Node4 -->
<g id="edge8" class="edge"><title>Node1&#45;&gt;Node4</title>
<path fill="none" stroke="midnightblue" d="M94.3432,-157.715C115.075,-160.656 138.813,-164.023 157.203,-166.632"/>
<polygon fill="midnightblue" stroke="midnightblue" points="156.957,-170.132 167.35,-168.071 157.941,-163.201 156.957,-170.132"/>
</g>
<!-- Node5 -->
<g id="node10" class="node"><title>Node5</title>
<a xlink:href="../../d8/de2/menudefs_8qc.html#a53c4a8e7afd17cad92bc00adba96bb78" target="_top" xlink:title="find">
<polygon fill="none" stroke="black" points="172,-120.5 172,-141.5 204,-141.5 204,-120.5 172,-120.5"/>
<text text-anchor="middle" x="188" y="-128.5" font-family="Helvetica,sans-Serif" font-size="10.00">find</text>
</a>
</g>
<!-- Node1&#45;&gt;Node5 -->
<g id="edge10" class="edge"><title>Node1&#45;&gt;Node5</title>
<path fill="none" stroke="midnightblue" d="M94.3432,-144.285C116.919,-141.082 143.059,-137.375 161.977,-134.691"/>
<polygon fill="midnightblue" stroke="midnightblue" points="162.528,-138.148 171.937,-133.278 161.545,-131.218 162.528,-138.148"/>
</g>
<!-- Node6 -->
<g id="node12" class="node"><title>Node6</title>
<a xlink:href="../../dc/d73/server_2miscfunctions_8qh.html#a3ad01a00f1af9d663eb5c97259434896" target="_top" xlink:title="play2">
<polygon fill="none" stroke="black" points="168,-80.5 168,-101.5 208,-101.5 208,-80.5 168,-80.5"/>
<text text-anchor="middle" x="188" y="-88.5" font-family="Helvetica,sans-Serif" font-size="10.00">play2</text>
</a>
</g>
<!-- Node1&#45;&gt;Node6 -->
<g id="edge12" class="edge"><title>Node1&#45;&gt;Node6</title>
<path fill="none" stroke="midnightblue" d="M67.1642,-140.462C83.7886,-131.974 108.109,-120.013 130,-111 139.114,-107.248 149.216,-103.595 158.403,-100.46"/>
<polygon fill="midnightblue" stroke="midnightblue" points="159.545,-103.769 167.921,-97.2816 157.327,-97.1294 159.545,-103.769"/>
</g>
<!-- Node7 -->
<g id="node14" class="node"><title>Node7</title>
<a xlink:href="../../dc/d95/random_8qc.html#a95527c538e7d69ffdd2779998fdabb42" target="_top" xlink:title="RandomSelection_Add">
<polygon fill="none" stroke="black" points="130,-40.5 130,-61.5 246,-61.5 246,-40.5 130,-40.5"/>
<text text-anchor="middle" x="188" y="-48.5" font-family="Helvetica,sans-Serif" font-size="10.00">RandomSelection_Add</text>
</a>
</g>
<!-- Node1&#45;&gt;Node7 -->
<g id="edge14" class="edge"><title>Node1&#45;&gt;Node7</title>
<path fill="none" stroke="midnightblue" d="M55.3257,-140.415C69.1411,-123.505 98.4261,-90.3376 130,-71 133.328,-68.9617 136.892,-67.0971 140.555,-65.3984"/>
<polygon fill="midnightblue" stroke="midnightblue" points="141.93,-68.6171 149.79,-61.5126 139.215,-62.1649 141.93,-68.6171"/>
</g>
<!-- Node9 -->
<g id="node18" class="node"><title>Node9</title>
<a xlink:href="../../dc/d95/random_8qc.html#a2d70d358bbf6aa8252f2aebc596d67c1" target="_top" xlink:title="RandomSelection_Init">
<polygon fill="none" stroke="black" points="131.5,-0.5 131.5,-21.5 244.5,-21.5 244.5,-0.5 131.5,-0.5"/>
<text text-anchor="middle" x="188" y="-8.5" font-family="Helvetica,sans-Serif" font-size="10.00">RandomSelection_Init</text>
</a>
</g>
<!-- Node1&#45;&gt;Node9 -->
<g id="edge18" class="edge"><title>Node1&#45;&gt;Node9</title>
<path fill="none" stroke="midnightblue" d="M51.5385,-140.332C61.9605,-117.077 89.8358,-61.4616 130,-31 132.347,-29.2199 134.864,-27.591 137.487,-26.1014"/>
<polygon fill="midnightblue" stroke="midnightblue" points="139.292,-29.1138 146.717,-21.5563 136.2,-22.8337 139.292,-29.1138"/>
</g>
<!-- Node3&#45;&gt;Node1 -->
<g id="edge6" class="edge"><title>Node3&#45;&gt;Node1</title>
<path fill="none" stroke="midnightblue" d="M154.929,-209.059C146.714,-206.493 137.978,-203.285 130,-200 107.249,-190.633 81.8745,-178.082 65.2418,-167.603"/>
<polygon fill="midnightblue" stroke="midnightblue" points="66.7871,-164.422 56.5448,-161.712 62.8613,-170.218 66.7871,-164.422"/>
</g>
<!-- Node8 -->
<g id="node16" class="node"><title>Node8</title>
<a xlink:href="../../d8/de2/menudefs_8qc.html#a663ea6aa3c4923b3e065cf91cc319f1b" target="_top" xlink:title="random">
<polygon fill="none" stroke="black" points="282.5,-40.5 282.5,-61.5 331.5,-61.5 331.5,-40.5 282.5,-40.5"/>
<text text-anchor="middle" x="307" y="-48.5" font-family="Helvetica,sans-Serif" font-size="10.00">random</text>
</a>
</g>
<!-- Node7&#45;&gt;Node8 -->
<g id="edge16" class="edge"><title>Node7&#45;&gt;Node8</title>
<path fill="none" stroke="midnightblue" d="M246.106,-51C254.966,-51 263.869,-51 272.025,-51"/>
<polygon fill="midnightblue" stroke="midnightblue" points="272.253,-54.5001 282.253,-51 272.253,-47.5001 272.253,-54.5001"/>
</g>
</g>
</svg>
