<?xml version="1.0" encoding="UTF-8" standalone="no"?>
<!DOCTYPE svg PUBLIC "-//W3C//DTD SVG 1.1//EN"
 "http://www.w3.org/Graphics/SVG/1.1/DTD/svg11.dtd">
<!-- Generated by graphviz version 2.36.0 (20140111.2315)
 -->
<!-- Title: WeaponStats_LogItem Pages: 1 -->
<svg width="196pt" height="66pt"
 viewBox="0.00 0.00 196.00 66.00" xmlns="http://www.w3.org/2000/svg" xmlns:xlink="http://www.w3.org/1999/xlink">
<g id="graph0" class="graph" transform="scale(1 1) rotate(0) translate(4 62)">
<title>WeaponStats_LogItem</title>
<!-- Node1 -->
<g id="node1" class="node"><title>Node1</title>
<polygon fill="#bfbfbf" stroke="black" points="0,-19.5 0,-38.5 116,-38.5 116,-19.5 0,-19.5"/>
<text text-anchor="middle" x="58" y="-26.5" font-family="Helvetica,sans-Serif" font-size="10.00">WeaponStats_LogItem</text>
</g>
<!-- Node2 -->
<g id="node2" class="node"><title>Node2</title>
<g id="a_node2"><a xlink:href="../../d8/de2/menudefs_8qc.html#a65fcee980f5a018b481188a84ead405f" target="_top" xlink:title="stov">
<polygon fill="none" stroke="black" points="152.5,-38.5 152.5,-57.5 187.5,-57.5 187.5,-38.5 152.5,-38.5"/>
<text text-anchor="middle" x="170" y="-45.5" font-family="Helvetica,sans-Serif" font-size="10.00">stov</text>
</a>
</g>
</g>
<!-- Node1&#45;&gt;Node2 -->
<g id="edge1" class="edge"><title>Node1&#45;&gt;Node2</title>
<path fill="none" stroke="midnightblue" d="M114.322,-38.5557C124.103,-40.245 133.87,-41.932 142.386,-43.403"/>
<polygon fill="midnightblue" stroke="midnightblue" points="141.961,-46.8814 152.411,-45.1346 143.153,-39.9835 141.961,-46.8814"/>
</g>
<!-- Node3 -->
<g id="node3" class="node"><title>Node3</title>
<g id="a_node3"><a xlink:href="../../d8/de2/menudefs_8qc.html#ab0df318f2dece7f798ff4061cd67f9d2" target="_top" xlink:title="vtos">
<polygon fill="none" stroke="black" points="152.5,-0.5 152.5,-19.5 187.5,-19.5 187.5,-0.5 152.5,-0.5"/>
<text text-anchor="middle" x="170" y="-7.5" font-family="Helvetica,sans-Serif" font-size="10.00">vtos</text>
</a>
</g>
</g>
<!-- Node1&#45;&gt;Node3 -->
<g id="edge2" class="edge"><title>Node1&#45;&gt;Node3</title>
<path fill="none" stroke="midnightblue" d="M114.322,-19.4443C124.103,-17.755 133.87,-16.068 142.386,-14.597"/>
<polygon fill="midnightblue" stroke="midnightblue" points="143.153,-18.0165 152.411,-12.8654 141.961,-11.1186 143.153,-18.0165"/>
</g>
</g>
</svg>
