<?xml version="1.0" encoding="UTF-8" standalone="no"?>
<!DOCTYPE svg PUBLIC "-//W3C//DTD SVG 1.1//EN"
 "http://www.w3.org/Graphics/SVG/1.1/DTD/svg11.dtd">
<!-- Generated by graphviz version 2.36.0 (20140111.2315)
 -->
<!-- Title: menu/xonotic/dialog_hudpanel_quickmenu.qh Pages: 1 -->
<!--zoomable 488 -->
<svg id="main" version="1.1" xmlns="http://www.w3.org/2000/svg" xmlns:xlink="http://www.w3.org/1999/xlink" xml:space="preserve" onload="init(evt)">
<style type="text/css"><![CDATA[
.edge:hover path { stroke: red; }
.edge:hover polygon { stroke: red; fill: red; }
]]></style>
<script type="text/javascript"><![CDATA[
var edges = document.getElementsByTagName('g');
if (edges && edges.length) {
  for (var i=0;i<edges.length;i++) {
    if (edges[i].id.substr(0,4)=='edge') {
      edges[i].setAttribute('class','edge');
    }
  }
}
]]></script>
        <defs>
                <circle id="rim" cx="0" cy="0" r="7"/>
                <circle id="rim2" cx="0" cy="0" r="3.5"/>
                <g id="zoomPlus">
                        <use xlink:href="#rim" fill="#404040">
                                <set attributeName="fill" to="#808080" begin="zoomplus.mouseover" end="zoomplus.mouseout"/>
                        </use>
                        <path d="M-4,0h8M0,-4v8" fill="none" stroke="white" stroke-width="1.5" pointer-events="none"/>
                </g>
                <g id="zoomMin">
                        <use xlink:href="#rim" fill="#404040">
                                <set attributeName="fill" to="#808080" begin="zoomminus.mouseover" end="zoomminus.mouseout"/>
                        </use>
                        <path d="M-4,0h8" fill="none" stroke="white" stroke-width="1.5" pointer-events="none"/>
                </g>
                <g id="dirArrow">
                        <path fill="none" stroke="white" stroke-width="1.5" d="M0,-3.0v7 M-2.5,-0.5L0,-3.0L2.5,-0.5"/>
                </g>
               <g id="resetDef">
                       <use xlink:href="#rim2" fill="#404040">
                               <set attributeName="fill" to="#808080" begin="reset.mouseover" end="reset.mouseout"/>
                       </use>
               </g>
        </defs>

<script type="text/javascript">
var viewWidth = 134;
var viewHeight = 488;
var sectionId = 'dynsection-0';
</script>
<script xlink:href="../../svgpan.js"/>
<svg id="graph" class="graph">
<g id="viewport">
<title>menu/xonotic/dialog_hudpanel_quickmenu.qh</title>
<!-- Node1 -->
<g id="node1" class="node"><title>Node1</title>
<polygon fill="#bfbfbf" stroke="black" points="-0.5,-449 -0.5,-479 126.5,-479 126.5,-449 -0.5,-449"/>
<text text-anchor="start" x="7.5" y="-467" font-family="Helvetica,sans-Serif" font-size="10.00">menu/xonotic/dialog</text>
<text text-anchor="middle" x="63" y="-456" font-family="Helvetica,sans-Serif" font-size="10.00">_hudpanel_quickmenu.qh</text>
</g>
<!-- Node2 -->
<g id="node2" class="node"><title>Node2</title>
<g id="a_node2"><a xlink:href="../../d9/d85/rootdialog_8qh.html" target="_top" xlink:title="rootdialog.qh">
<polygon fill="none" stroke="black" points="27,-392.5 27,-411.5 99,-411.5 99,-392.5 27,-392.5"/>
<text text-anchor="middle" x="63" y="-399.5" font-family="Helvetica,sans-Serif" font-size="10.00">rootdialog.qh</text>
</a>
</g>
</g>
<!-- Node1&#45;&gt;Node2 -->
<g id="edge1" class="edge"><title>Node1&#45;&gt;Node2</title>
<path fill="none" stroke="midnightblue" d="M63,-448.781C63,-440.781 63,-430.689 63,-422.017"/>
<polygon fill="midnightblue" stroke="midnightblue" points="66.5001,-421.73 63,-411.731 59.5001,-421.731 66.5001,-421.73"/>
</g>
<!-- Node3 -->
<g id="node3" class="node"><title>Node3</title>
<g id="a_node3"><a xlink:href="../../d5/d05/xonotic_2dialog_8qh.html" target="_top" xlink:title="dialog.qh">
<polygon fill="none" stroke="black" points="35,-336.5 35,-355.5 91,-355.5 91,-336.5 35,-336.5"/>
<text text-anchor="middle" x="63" y="-343.5" font-family="Helvetica,sans-Serif" font-size="10.00">dialog.qh</text>
</a>
</g>
</g>
<!-- Node2&#45;&gt;Node3 -->
<g id="edge2" class="edge"><title>Node2&#45;&gt;Node3</title>
<path fill="none" stroke="midnightblue" d="M63,-392.083C63,-385.006 63,-374.861 63,-365.986"/>
<polygon fill="midnightblue" stroke="midnightblue" points="66.5001,-365.751 63,-355.751 59.5001,-365.751 66.5001,-365.751"/>
</g>
<!-- Node4 -->
<g id="node4" class="node"><title>Node4</title>
<g id="a_node4"><a xlink:href="../../d6/d88/item_2dialog_8qh.html" target="_top" xlink:title="../item/dialog.qh">
<polygon fill="none" stroke="black" points="20,-280.5 20,-299.5 106,-299.5 106,-280.5 20,-280.5"/>
<text text-anchor="middle" x="63" y="-287.5" font-family="Helvetica,sans-Serif" font-size="10.00">../item/dialog.qh</text>
</a>
</g>
</g>
<!-- Node3&#45;&gt;Node4 -->
<g id="edge3" class="edge"><title>Node3&#45;&gt;Node4</title>
<path fill="none" stroke="midnightblue" d="M63,-336.083C63,-329.006 63,-318.861 63,-309.986"/>
<polygon fill="midnightblue" stroke="midnightblue" points="66.5001,-309.751 63,-299.751 59.5001,-309.751 66.5001,-309.751"/>
</g>
<!-- Node5 -->
<g id="node5" class="node"><title>Node5</title>
<g id="a_node5"><a xlink:href="../../d9/db7/inputcontainer_8qh.html" target="_top" xlink:title="inputcontainer.qh">
<polygon fill="none" stroke="black" points="17.5,-224.5 17.5,-243.5 108.5,-243.5 108.5,-224.5 17.5,-224.5"/>
<text text-anchor="middle" x="63" y="-231.5" font-family="Helvetica,sans-Serif" font-size="10.00">inputcontainer.qh</text>
</a>
</g>
</g>
<!-- Node4&#45;&gt;Node5 -->
<g id="edge4" class="edge"><title>Node4&#45;&gt;Node5</title>
<path fill="none" stroke="midnightblue" d="M63,-280.083C63,-273.006 63,-262.861 63,-253.986"/>
<polygon fill="midnightblue" stroke="midnightblue" points="66.5001,-253.751 63,-243.751 59.5001,-253.751 66.5001,-253.751"/>
</g>
<!-- Node6 -->
<g id="node6" class="node"><title>Node6</title>
<g id="a_node6"><a xlink:href="../../d5/d8e/container_8qh.html" target="_top" xlink:title="container.qh">
<polygon fill="none" stroke="black" points="28,-168.5 28,-187.5 98,-187.5 98,-168.5 28,-168.5"/>
<text text-anchor="middle" x="63" y="-175.5" font-family="Helvetica,sans-Serif" font-size="10.00">container.qh</text>
</a>
</g>
</g>
<!-- Node5&#45;&gt;Node6 -->
<g id="edge5" class="edge"><title>Node5&#45;&gt;Node6</title>
<path fill="none" stroke="midnightblue" d="M63,-224.083C63,-217.006 63,-206.861 63,-197.986"/>
<polygon fill="midnightblue" stroke="midnightblue" points="66.5001,-197.751 63,-187.751 59.5001,-197.751 66.5001,-197.751"/>
</g>
<!-- Node7 -->
<g id="node7" class="node"><title>Node7</title>
<g id="a_node7"><a xlink:href="../../d8/d1e/menu_2item_8qh.html" target="_top" xlink:title="menu/item.qh">
<polygon fill="none" stroke="black" points="25,-112.5 25,-131.5 101,-131.5 101,-112.5 25,-112.5"/>
<text text-anchor="middle" x="63" y="-119.5" font-family="Helvetica,sans-Serif" font-size="10.00">menu/item.qh</text>
</a>
</g>
</g>
<!-- Node6&#45;&gt;Node7 -->
<g id="edge6" class="edge"><title>Node6&#45;&gt;Node7</title>
<path fill="none" stroke="midnightblue" d="M63,-168.083C63,-161.006 63,-150.861 63,-141.986"/>
<polygon fill="midnightblue" stroke="midnightblue" points="66.5001,-141.751 63,-131.751 59.5001,-141.751 66.5001,-141.751"/>
</g>
<!-- Node8 -->
<g id="node8" class="node"><title>Node8</title>
<g id="a_node8"><a xlink:href="../../d4/dcc/skin_8qh.html" target="_top" xlink:title="skin.qh">
<polygon fill="none" stroke="black" points="39,-56.5 39,-75.5 87,-75.5 87,-56.5 39,-56.5"/>
<text text-anchor="middle" x="63" y="-63.5" font-family="Helvetica,sans-Serif" font-size="10.00">skin.qh</text>
</a>
</g>
</g>
<!-- Node7&#45;&gt;Node8 -->
<g id="edge7" class="edge"><title>Node7&#45;&gt;Node8</title>
<path fill="none" stroke="midnightblue" d="M63,-112.083C63,-105.006 63,-94.8611 63,-85.9865"/>
<polygon fill="midnightblue" stroke="midnightblue" points="66.5001,-85.751 63,-75.7511 59.5001,-85.7511 66.5001,-85.751"/>
</g>
<!-- Node9 -->
<g id="node9" class="node"><title>Node9</title>
<g id="a_node9"><a xlink:href="../../d4/d90/skin-customizables_8inc.html" target="_top" xlink:title="skin&#45;customizables.inc">
<polygon fill="none" stroke="black" points="5,-0.5 5,-19.5 121,-19.5 121,-0.5 5,-0.5"/>
<text text-anchor="middle" x="63" y="-7.5" font-family="Helvetica,sans-Serif" font-size="10.00">skin&#45;customizables.inc</text>
</a>
</g>
</g>
<!-- Node8&#45;&gt;Node9 -->
<g id="edge8" class="edge"><title>Node8&#45;&gt;Node9</title>
<path fill="none" stroke="midnightblue" d="M63,-56.083C63,-49.0059 63,-38.8611 63,-29.9865"/>
<polygon fill="midnightblue" stroke="midnightblue" points="66.5001,-29.751 63,-19.7511 59.5001,-29.7511 66.5001,-29.751"/>
</g>
</g>
</svg>
        <g id="navigator" transform="translate(0 0)" fill="#404254">
                <rect fill="#f2f5e9" fill-opacity="0.5" stroke="#606060" stroke-width=".5" x="0" y="0" width="60" height="60"/>
                <use id="zoomplus" xlink:href="#zoomPlus" x="17" y="9" onmousedown="handleZoom(evt,'in')"/>
                <use id="zoomminus" xlink:href="#zoomMin" x="42" y="9" onmousedown="handleZoom(evt,'out')"/>
                <use id="reset" xlink:href="#resetDef" x="30" y="36" onmousedown="handleReset()"/>
                <g id="arrowUp" xlink:href="#dirArrow" transform="translate(30 24)" onmousedown="handlePan(0,-1)">
                  <use xlink:href="#rim" fill="#404040">
                        <set attributeName="fill" to="#808080" begin="arrowUp.mouseover" end="arrowUp.mouseout"/>
                  </use>
                  <path fill="none" stroke="white" stroke-width="1.5" d="M0,-3.0v7 M-2.5,-0.5L0,-3.0L2.5,-0.5"/>
                </g>
                <g id="arrowRight" xlink:href="#dirArrow" transform="rotate(90) translate(36 -43)" onmousedown="handlePan(1,0)">
                  <use xlink:href="#rim" fill="#404040">
                        <set attributeName="fill" to="#808080" begin="arrowRight.mouseover" end="arrowRight.mouseout"/>
                  </use>
                  <path fill="none" stroke="white" stroke-width="1.5" d="M0,-3.0v7 M-2.5,-0.5L0,-3.0L2.5,-0.5"/>
                </g>
                <g id="arrowDown" xlink:href="#dirArrow" transform="rotate(180) translate(-30 -48)" onmousedown="handlePan(0,1)">
                  <use xlink:href="#rim" fill="#404040">
                        <set attributeName="fill" to="#808080" begin="arrowDown.mouseover" end="arrowDown.mouseout"/>
                  </use>
                  <path fill="none" stroke="white" stroke-width="1.5" d="M0,-3.0v7 M-2.5,-0.5L0,-3.0L2.5,-0.5"/>
                </g>
                <g id="arrowLeft" xlink:href="#dirArrow" transform="rotate(270) translate(-36 17)" onmousedown="handlePan(-1,0)">
                  <use xlink:href="#rim" fill="#404040">
                        <set attributeName="fill" to="#808080" begin="arrowLeft.mouseover" end="arrowLeft.mouseout"/>
                  </use>
                  <path fill="none" stroke="white" stroke-width="1.5" d="M0,-3.0v7 M-2.5,-0.5L0,-3.0L2.5,-0.5"/>
                </g>
        </g>
        <svg viewBox="0 0 15 15" width="100%" height="30px" preserveAspectRatio="xMaxYMin meet">
         <g id="arrow_out" transform="scale(0.3 0.3)">
          <a xlink:href="dialog__hudpanel__quickmenu_8qh__incl_org.svg" target="_base">
           <rect id="button" ry="5" rx="5" y="6" x="6" height="38" width="38"
                fill="#f2f5e9" fill-opacity="0.5" stroke="#606060" stroke-width="1.0"/>
           <path id="arrow"
             d="M 11.500037,31.436501 C 11.940474,20.09759 22.043105,11.32322 32.158766,21.979434 L 37.068811,17.246167 C 37.068811,17.246167 37.088388,32 37.088388,32 L 22.160133,31.978069 C 22.160133,31.978069 26.997745,27.140456 26.997745,27.140456 C 18.528582,18.264221 13.291696,25.230495 11.500037,31.436501 z"
             style="fill:#404040;"/>
          </a>
         </g>
        </svg>
</svg>
