<?xml version="1.0" encoding="UTF-8" standalone="no"?>
<!DOCTYPE svg PUBLIC "-//W3C//DTD SVG 1.1//EN"
 "http://www.w3.org/Graphics/SVG/1.1/DTD/svg11.dtd">
<!-- Generated by graphviz version 2.36.0 (20140111.2315)
 -->
<!-- Title: havocbot_moveto Pages: 1 -->
<!--zoomable 104 -->
<svg id="main" version="1.1" xmlns="http://www.w3.org/2000/svg" xmlns:xlink="http://www.w3.org/1999/xlink" xml:space="preserve" onload="init(evt)">
<style type="text/css"><![CDATA[
.edge:hover path { stroke: red; }
.edge:hover polygon { stroke: red; fill: red; }
]]></style>
<script type="text/javascript"><![CDATA[
var edges = document.getElementsByTagName('g');
if (edges && edges.length) {
  for (var i=0;i<edges.length;i++) {
    if (edges[i].id.substr(0,4)=='edge') {
      edges[i].setAttribute('class','edge');
    }
  }
}
]]></script>
        <defs>
                <circle id="rim" cx="0" cy="0" r="7"/>
                <circle id="rim2" cx="0" cy="0" r="3.5"/>
                <g id="zoomPlus">
                        <use xlink:href="#rim" fill="#404040">
                                <set attributeName="fill" to="#808080" begin="zoomplus.mouseover" end="zoomplus.mouseout"/>
                        </use>
                        <path d="M-4,0h8M0,-4v8" fill="none" stroke="white" stroke-width="1.5" pointer-events="none"/>
                </g>
                <g id="zoomMin">
                        <use xlink:href="#rim" fill="#404040">
                                <set attributeName="fill" to="#808080" begin="zoomminus.mouseover" end="zoomminus.mouseout"/>
                        </use>
                        <path d="M-4,0h8" fill="none" stroke="white" stroke-width="1.5" pointer-events="none"/>
                </g>
                <g id="dirArrow">
                        <path fill="none" stroke="white" stroke-width="1.5" d="M0,-3.0v7 M-2.5,-0.5L0,-3.0L2.5,-0.5"/>
                </g>
               <g id="resetDef">
                       <use xlink:href="#rim2" fill="#404040">
                               <set attributeName="fill" to="#808080" begin="reset.mouseover" end="reset.mouseout"/>
                       </use>
               </g>
        </defs>

<script type="text/javascript">
var viewWidth = 1012;
var viewHeight = 104;
var sectionId = 'dynsection-18';
</script>
<script xlink:href="../../svgpan.js"/>
<svg id="graph" class="graph">
<g id="viewport">
<title>havocbot_moveto</title>
<!-- Node1 -->
<g id="node1" class="node"><title>Node1</title>
<polygon fill="#bfbfbf" stroke="black" points="0,-38.5 0,-57.5 94,-57.5 94,-38.5 0,-38.5"/>
<text text-anchor="middle" x="47" y="-45.5" font-family="Helvetica,sans-Serif" font-size="10.00">havocbot_moveto</text>
</g>
<!-- Node2 -->
<g id="node2" class="node"><title>Node2</title>
<g id="a_node2"><a xlink:href="../../d8/d39/havocbot_8qh.html#a5ba0f97eb0d5ad68542d585381d00ae2" target="_top" xlink:title="havocbot_setupbot">
<polygon fill="none" stroke="black" points="130.5,-38.5 130.5,-57.5 229.5,-57.5 229.5,-38.5 130.5,-38.5"/>
<text text-anchor="middle" x="180" y="-45.5" font-family="Helvetica,sans-Serif" font-size="10.00">havocbot_setupbot</text>
</a>
</g>
</g>
<!-- Node1&#45;&gt;Node2 -->
<g id="edge1" class="edge"><title>Node1&#45;&gt;Node2</title>
<path fill="none" stroke="midnightblue" d="M104.463,-48C113.006,-48 121.758,-48 130.123,-48"/>
<polygon fill="midnightblue" stroke="midnightblue" points="104.186,-44.5001 94.1857,-48 104.186,-51.5001 104.186,-44.5001"/>
</g>
<!-- Node3 -->
<g id="node3" class="node"><title>Node3</title>
<g id="a_node3"><a xlink:href="../../d1/da9/bot_8qh.html#abd19370e4d61d3549dbbe44826531536" target="_top" xlink:title="bot_clientconnect">
<polygon fill="none" stroke="black" points="266.5,-38.5 266.5,-57.5 359.5,-57.5 359.5,-38.5 266.5,-38.5"/>
<text text-anchor="middle" x="313" y="-45.5" font-family="Helvetica,sans-Serif" font-size="10.00">bot_clientconnect</text>
</a>
</g>
</g>
<!-- Node2&#45;&gt;Node3 -->
<g id="edge2" class="edge"><title>Node2&#45;&gt;Node3</title>
<path fill="none" stroke="midnightblue" d="M239.995,-48C248.792,-48 257.747,-48 266.217,-48"/>
<polygon fill="midnightblue" stroke="midnightblue" points="239.78,-44.5001 229.78,-48 239.78,-51.5001 239.78,-44.5001"/>
</g>
<!-- Node4 -->
<g id="node4" class="node"><title>Node4</title>
<g id="a_node4"><a xlink:href="../../da/d53/cl__client_8qc.html#a085ea0b3ff57991ce31f51def68da821" target="_top" xlink:title=" ClientConnect ">
<polygon fill="none" stroke="black" points="396.5,-38.5 396.5,-57.5 475.5,-57.5 475.5,-38.5 396.5,-38.5"/>
<text text-anchor="middle" x="436" y="-45.5" font-family="Helvetica,sans-Serif" font-size="10.00">ClientConnect</text>
</a>
</g>
</g>
<!-- Node3&#45;&gt;Node4 -->
<g id="edge3" class="edge"><title>Node3&#45;&gt;Node4</title>
<path fill="none" stroke="midnightblue" d="M369.771,-48C378.741,-48 387.85,-48 396.304,-48"/>
<polygon fill="midnightblue" stroke="midnightblue" points="369.745,-44.5001 359.745,-48 369.745,-51.5001 369.745,-44.5001"/>
</g>
<!-- Node5 -->
<g id="node5" class="node"><title>Node5</title>
<g id="a_node5"><a xlink:href="../../d1/da9/bot_8qh.html#a5e30e64bee22a5e4abf3bca9ae06f8fc" target="_top" xlink:title="bot_spawn">
<polygon fill="none" stroke="black" points="512,-38.5 512,-57.5 576,-57.5 576,-38.5 512,-38.5"/>
<text text-anchor="middle" x="544" y="-45.5" font-family="Helvetica,sans-Serif" font-size="10.00">bot_spawn</text>
</a>
</g>
</g>
<!-- Node4&#45;&gt;Node5 -->
<g id="edge4" class="edge"><title>Node4&#45;&gt;Node5</title>
<path fill="none" stroke="midnightblue" d="M485.849,-48C494.719,-48 503.745,-48 511.925,-48"/>
<polygon fill="midnightblue" stroke="midnightblue" points="485.568,-44.5001 475.568,-48 485.568,-51.5001 485.568,-44.5001"/>
</g>
<!-- Node6 -->
<g id="node6" class="node"><title>Node6</title>
<g id="a_node6"><a xlink:href="../../d1/da9/bot_8qh.html#a2fee5495c041d9197ee7d76cccd1d889" target="_top" xlink:title="bot_fixcount">
<polygon fill="none" stroke="black" points="612,-38.5 612,-57.5 682,-57.5 682,-38.5 612,-38.5"/>
<text text-anchor="middle" x="647" y="-45.5" font-family="Helvetica,sans-Serif" font-size="10.00">bot_fixcount</text>
</a>
</g>
</g>
<!-- Node5&#45;&gt;Node6 -->
<g id="edge5" class="edge"><title>Node5&#45;&gt;Node6</title>
<path fill="none" stroke="midnightblue" d="M586.297,-48C594.838,-48 603.743,-48 611.989,-48"/>
<polygon fill="midnightblue" stroke="midnightblue" points="586.127,-44.5001 576.127,-48 586.127,-51.5001 586.127,-44.5001"/>
</g>
<!-- Node7 -->
<g id="node7" class="node"><title>Node7</title>
<g id="a_node7"><a xlink:href="../../d1/da9/bot_8qh.html#aca1687b4e440adf8111b9438919a0b0a" target="_top" xlink:title="bot_serverframe">
<polygon fill="none" stroke="black" points="740.5,-76.5 740.5,-95.5 827.5,-95.5 827.5,-76.5 740.5,-76.5"/>
<text text-anchor="middle" x="784" y="-83.5" font-family="Helvetica,sans-Serif" font-size="10.00">bot_serverframe</text>
</a>
</g>
</g>
<!-- Node6&#45;&gt;Node7 -->
<g id="edge6" class="edge"><title>Node6&#45;&gt;Node7</title>
<path fill="none" stroke="midnightblue" d="M691.762,-60.3183C710.311,-65.5393 731.599,-71.5316 748.945,-76.4141"/>
<polygon fill="midnightblue" stroke="midnightblue" points="692.64,-56.9295 682.066,-57.589 690.744,-63.6677 692.64,-56.9295"/>
</g>
<!-- Node9 -->
<g id="node9" class="node"><title>Node9</title>
<g id="a_node9"><a xlink:href="../../d3/df2/sv__cmd_8qc.html#a8ad5100252af97d4e86e67f233fd6578" target="_top" xlink:title="GameCommand_bot_cmd">
<polygon fill="none" stroke="black" points="718.5,-38.5 718.5,-57.5 849.5,-57.5 849.5,-38.5 718.5,-38.5"/>
<text text-anchor="middle" x="784" y="-45.5" font-family="Helvetica,sans-Serif" font-size="10.00">GameCommand_bot_cmd</text>
</a>
</g>
</g>
<!-- Node6&#45;&gt;Node9 -->
<g id="edge8" class="edge"><title>Node6&#45;&gt;Node9</title>
<path fill="none" stroke="midnightblue" d="M692.325,-48C700.688,-48 709.592,-48 718.428,-48"/>
<polygon fill="midnightblue" stroke="midnightblue" points="692.066,-44.5001 682.066,-48 692.066,-51.5001 692.066,-44.5001"/>
</g>
<!-- Node11 -->
<g id="node11" class="node"><title>Node11</title>
<g id="a_node11"><a xlink:href="../../d3/df2/sv__cmd_8qc.html#af60fdb24d415a53dadd63f3d2fe3d04c" target="_top" xlink:title="GameCommand_setbots">
<polygon fill="none" stroke="black" points="721.5,-0.5 721.5,-19.5 846.5,-19.5 846.5,-0.5 721.5,-0.5"/>
<text text-anchor="middle" x="784" y="-7.5" font-family="Helvetica,sans-Serif" font-size="10.00">GameCommand_setbots</text>
</a>
</g>
</g>
<!-- Node6&#45;&gt;Node11 -->
<g id="edge10" class="edge"><title>Node6&#45;&gt;Node11</title>
<path fill="none" stroke="midnightblue" d="M691.762,-35.6817C710.311,-30.4607 731.599,-24.4684 748.945,-19.5859"/>
<polygon fill="midnightblue" stroke="midnightblue" points="690.744,-32.3323 682.066,-38.411 692.64,-39.0705 690.744,-32.3323"/>
</g>
<!-- Node8 -->
<g id="node8" class="node"><title>Node8</title>
<g id="a_node8"><a xlink:href="../../d3/d4f/sv__main_8qc.html#a554af7e2ac58045168dad9eca30bc8b1" target="_top" xlink:title="StartFrame">
<polygon fill="none" stroke="black" points="912.5,-76.5 912.5,-95.5 977.5,-95.5 977.5,-76.5 912.5,-76.5"/>
<text text-anchor="middle" x="945" y="-83.5" font-family="Helvetica,sans-Serif" font-size="10.00">StartFrame</text>
</a>
</g>
</g>
<!-- Node7&#45;&gt;Node8 -->
<g id="edge7" class="edge"><title>Node7&#45;&gt;Node8</title>
<path fill="none" stroke="midnightblue" d="M837.914,-86C862.586,-86 891.119,-86 912.376,-86"/>
<polygon fill="midnightblue" stroke="midnightblue" points="837.609,-82.5001 827.609,-86 837.609,-89.5001 837.609,-82.5001"/>
</g>
<!-- Node10 -->
<g id="node10" class="node"><title>Node10</title>
<g id="a_node10"><a xlink:href="../../d3/df2/sv__cmd_8qc.html#a490f715d9315ed9afe87514d6e4aac02" target="_top" xlink:title="SERVER_COMMAND">
<polygon fill="none" stroke="black" points="886.5,-38.5 886.5,-57.5 1003.5,-57.5 1003.5,-38.5 886.5,-38.5"/>
<text text-anchor="middle" x="945" y="-45.5" font-family="Helvetica,sans-Serif" font-size="10.00">SERVER_COMMAND</text>
</a>
</g>
</g>
<!-- Node9&#45;&gt;Node10 -->
<g id="edge9" class="edge"><title>Node9&#45;&gt;Node10</title>
<path fill="none" stroke="midnightblue" d="M859.699,-48C868.632,-48 877.646,-48 886.288,-48"/>
<polygon fill="midnightblue" stroke="midnightblue" points="859.671,-44.5001 849.671,-48 859.671,-51.5001 859.671,-44.5001"/>
</g>
<!-- Node12 -->
<g id="node12" class="node"><title>Node12</title>
<g id="a_node12"><a xlink:href="../../d3/df2/sv__cmd_8qc.html#a53264788ea69deca9531d76139e51751" target="_top" xlink:title="SERVER_COMMAND">
<polygon fill="none" stroke="black" points="886.5,-0.5 886.5,-19.5 1003.5,-19.5 1003.5,-0.5 886.5,-0.5"/>
<text text-anchor="middle" x="945" y="-7.5" font-family="Helvetica,sans-Serif" font-size="10.00">SERVER_COMMAND</text>
</a>
</g>
</g>
<!-- Node11&#45;&gt;Node12 -->
<g id="edge11" class="edge"><title>Node11&#45;&gt;Node12</title>
<path fill="none" stroke="midnightblue" d="M857.084,-10C866.905,-10 876.879,-10 886.399,-10"/>
<polygon fill="midnightblue" stroke="midnightblue" points="856.929,-6.5001 846.929,-10 856.929,-13.5001 856.929,-6.5001"/>
</g>
</g>
</svg>
        <g id="navigator" transform="translate(0 0)" fill="#404254">
                <rect fill="#f2f5e9" fill-opacity="0.5" stroke="#606060" stroke-width=".5" x="0" y="0" width="60" height="60"/>
                <use id="zoomplus" xlink:href="#zoomPlus" x="17" y="9" onmousedown="handleZoom(evt,'in')"/>
                <use id="zoomminus" xlink:href="#zoomMin" x="42" y="9" onmousedown="handleZoom(evt,'out')"/>
                <use id="reset" xlink:href="#resetDef" x="30" y="36" onmousedown="handleReset()"/>
                <g id="arrowUp" xlink:href="#dirArrow" transform="translate(30 24)" onmousedown="handlePan(0,-1)">
                  <use xlink:href="#rim" fill="#404040">
                        <set attributeName="fill" to="#808080" begin="arrowUp.mouseover" end="arrowUp.mouseout"/>
                  </use>
                  <path fill="none" stroke="white" stroke-width="1.5" d="M0,-3.0v7 M-2.5,-0.5L0,-3.0L2.5,-0.5"/>
                </g>
                <g id="arrowRight" xlink:href="#dirArrow" transform="rotate(90) translate(36 -43)" onmousedown="handlePan(1,0)">
                  <use xlink:href="#rim" fill="#404040">
                        <set attributeName="fill" to="#808080" begin="arrowRight.mouseover" end="arrowRight.mouseout"/>
                  </use>
                  <path fill="none" stroke="white" stroke-width="1.5" d="M0,-3.0v7 M-2.5,-0.5L0,-3.0L2.5,-0.5"/>
                </g>
                <g id="arrowDown" xlink:href="#dirArrow" transform="rotate(180) translate(-30 -48)" onmousedown="handlePan(0,1)">
                  <use xlink:href="#rim" fill="#404040">
                        <set attributeName="fill" to="#808080" begin="arrowDown.mouseover" end="arrowDown.mouseout"/>
                  </use>
                  <path fill="none" stroke="white" stroke-width="1.5" d="M0,-3.0v7 M-2.5,-0.5L0,-3.0L2.5,-0.5"/>
                </g>
                <g id="arrowLeft" xlink:href="#dirArrow" transform="rotate(270) translate(-36 17)" onmousedown="handlePan(-1,0)">
                  <use xlink:href="#rim" fill="#404040">
                        <set attributeName="fill" to="#808080" begin="arrowLeft.mouseover" end="arrowLeft.mouseout"/>
                  </use>
                  <path fill="none" stroke="white" stroke-width="1.5" d="M0,-3.0v7 M-2.5,-0.5L0,-3.0L2.5,-0.5"/>
                </g>
        </g>
        <svg viewBox="0 0 15 15" width="100%" height="30px" preserveAspectRatio="xMaxYMin meet">
         <g id="arrow_out" transform="scale(0.3 0.3)">
          <a xlink:href="havocbot_8qh_a0906df9c2c0ae73a6d5ddf3f30feb666_icgraph_org.svg" target="_base">
           <rect id="button" ry="5" rx="5" y="6" x="6" height="38" width="38"
                fill="#f2f5e9" fill-opacity="0.5" stroke="#606060" stroke-width="1.0"/>
           <path id="arrow"
             d="M 11.500037,31.436501 C 11.940474,20.09759 22.043105,11.32322 32.158766,21.979434 L 37.068811,17.246167 C 37.068811,17.246167 37.088388,32 37.088388,32 L 22.160133,31.978069 C 22.160133,31.978069 26.997745,27.140456 26.997745,27.140456 C 18.528582,18.264221 13.291696,25.230495 11.500037,31.436501 z"
             style="fill:#404040;"/>
          </a>
         </g>
        </svg>
</svg>
