<?xml version="1.0" encoding="UTF-8" standalone="no"?>
<!DOCTYPE svg PUBLIC "-//W3C//DTD SVG 1.1//EN"
 "http://www.w3.org/Graphics/SVG/1.1/DTD/svg11.dtd">
<!-- Generated by graphviz version 2.36.0 (20140111.2315)
 -->
<!-- Title: sandbox_ObjectRemove Pages: 1 -->
<svg width="398pt" height="91pt"
 viewBox="0.00 0.00 398.00 91.00" xmlns="http://www.w3.org/2000/svg" xmlns:xlink="http://www.w3.org/1999/xlink">
<g id="graph0" class="graph" transform="scale(1 1) rotate(0) translate(4 87)">
<title>sandbox_ObjectRemove</title>
<!-- Node1 -->
<g id="node1" class="node"><title>Node1</title>
<polygon fill="#bfbfbf" stroke="black" points="0,-22.5 0,-41.5 124,-41.5 124,-22.5 0,-22.5"/>
<text text-anchor="middle" x="62" y="-29.5" font-family="Helvetica,sans-Serif" font-size="10.00">sandbox_ObjectRemove</text>
</g>
<!-- Node2 -->
<g id="node2" class="node"><title>Node2</title>
<g id="a_node2"><a xlink:href="../../d3/d59/sv__sandbox_8qc.html#a312a1e82cfcf0a1c5025820242b46d84" target="_top" xlink:title="sandbox_ObjectAttach\l_Remove">
<polygon fill="none" stroke="black" points="160,-39 160,-69 276,-69 276,-39 160,-39"/>
<text text-anchor="start" x="168" y="-57" font-family="Helvetica,sans-Serif" font-size="10.00">sandbox_ObjectAttach</text>
<text text-anchor="middle" x="218" y="-46" font-family="Helvetica,sans-Serif" font-size="10.00">_Remove</text>
</a>
</g>
</g>
<!-- Node1&#45;&gt;Node2 -->
<g id="edge1" class="edge"><title>Node1&#45;&gt;Node2</title>
<path fill="none" stroke="midnightblue" d="M124.307,-40.7582C132.748,-41.9639 141.451,-43.2072 149.987,-44.4267"/>
<polygon fill="midnightblue" stroke="midnightblue" points="149.511,-47.8942 159.906,-45.8437 150.501,-40.9645 149.511,-47.8942"/>
</g>
<!-- Node5 -->
<g id="node5" class="node"><title>Node5</title>
<g id="a_node5"><a xlink:href="../../d8/de2/menudefs_8qc.html#ab64c3a0e7d347975b8b7a5cd17ab0113" target="_top" xlink:title="strunzone">
<polygon fill="none" stroke="black" points="188.5,-0.5 188.5,-19.5 247.5,-19.5 247.5,-0.5 188.5,-0.5"/>
<text text-anchor="middle" x="218" y="-7.5" font-family="Helvetica,sans-Serif" font-size="10.00">strunzone</text>
</a>
</g>
</g>
<!-- Node1&#45;&gt;Node5 -->
<g id="edge4" class="edge"><title>Node1&#45;&gt;Node5</title>
<path fill="none" stroke="midnightblue" d="M124.307,-23.2418C142.472,-20.6468 161.854,-17.878 178.173,-15.5467"/>
<polygon fill="midnightblue" stroke="midnightblue" points="179.007,-18.9632 188.412,-14.0841 178.017,-12.0335 179.007,-18.9632"/>
</g>
<!-- Node3 -->
<g id="node3" class="node"><title>Node3</title>
<g id="a_node3"><a xlink:href="../../d4/dd7/movetypes_8qh.html#a8bf89be84cb481d218ff41140eacff78" target="_top" xlink:title="set_movetype">
<polygon fill="none" stroke="black" points="312,-63.5 312,-82.5 390,-82.5 390,-63.5 312,-63.5"/>
<text text-anchor="middle" x="351" y="-70.5" font-family="Helvetica,sans-Serif" font-size="10.00">set_movetype</text>
</a>
</g>
</g>
<!-- Node2&#45;&gt;Node3 -->
<g id="edge2" class="edge"><title>Node2&#45;&gt;Node3</title>
<path fill="none" stroke="midnightblue" d="M276.077,-62.2784C284.705,-63.5297 293.53,-64.8097 301.942,-66.0297"/>
<polygon fill="midnightblue" stroke="midnightblue" points="301.557,-69.5104 311.955,-67.4821 302.561,-62.5829 301.557,-69.5104"/>
</g>
<!-- Node4 -->
<g id="node4" class="node"><title>Node4</title>
<g id="a_node4"><a xlink:href="../../d4/d0c/csprogsdefs_8qc.html#a4f0b78b1785821ba47129edb68e70f9e" target="_top" xlink:title="vector">
<polygon fill="none" stroke="black" points="329,-25.5 329,-44.5 373,-44.5 373,-25.5 329,-25.5"/>
<text text-anchor="middle" x="351" y="-32.5" font-family="Helvetica,sans-Serif" font-size="10.00">vector</text>
</a>
</g>
</g>
<!-- Node2&#45;&gt;Node4 -->
<g id="edge3" class="edge"><title>Node2&#45;&gt;Node4</title>
<path fill="none" stroke="midnightblue" d="M276.077,-45.7216C290.729,-43.5965 305.952,-41.3886 318.749,-39.5326"/>
<polygon fill="midnightblue" stroke="midnightblue" points="319.468,-42.9651 328.862,-38.0659 318.463,-36.0376 319.468,-42.9651"/>
</g>
</g>
</svg>
