<?xml version="1.0" encoding="UTF-8" standalone="no"?>
<!DOCTYPE svg PUBLIC "-//W3C//DTD SVG 1.1//EN"
 "http://www.w3.org/Graphics/SVG/1.1/DTD/svg11.dtd">
<!-- Generated by graphviz version 2.38.0 (20140413.2041)
 -->
<!-- Title: sandbox_ObjectSpawn Pages: 1 -->
<!--zoomable 505 -->
<svg id="main" version="1.1" xmlns="http://www.w3.org/2000/svg" xmlns:xlink="http://www.w3.org/1999/xlink" xml:space="preserve" onload="init(evt)">
<style type="text/css"><![CDATA[
.edge:hover path { stroke: red; }
.edge:hover polygon { stroke: red; fill: red; }
]]></style>
<script type="text/javascript"><![CDATA[
var edges = document.getElementsByTagName('g');
if (edges && edges.length) {
  for (var i=0;i<edges.length;i++) {
    if (edges[i].id.substr(0,4)=='edge') {
      edges[i].setAttribute('class','edge');
    }
  }
}
]]></script>
        <defs>
                <circle id="rim" cx="0" cy="0" r="7"/>
                <circle id="rim2" cx="0" cy="0" r="3.5"/>
                <g id="zoomPlus">
                        <use xlink:href="#rim" fill="#404040">
                                <set attributeName="fill" to="#808080" begin="zoomplus.mouseover" end="zoomplus.mouseout"/>
                        </use>
                        <path d="M-4,0h8M0,-4v8" fill="none" stroke="white" stroke-width="1.5" pointer-events="none"/>
                </g>
                <g id="zoomMin">
                        <use xlink:href="#rim" fill="#404040">
                                <set attributeName="fill" to="#808080" begin="zoomminus.mouseover" end="zoomminus.mouseout"/>
                        </use>
                        <path d="M-4,0h8" fill="none" stroke="white" stroke-width="1.5" pointer-events="none"/>
                </g>
                <g id="dirArrow">
                        <path fill="none" stroke="white" stroke-width="1.5" d="M0,-3.0v7 M-2.5,-0.5L0,-3.0L2.5,-0.5"/>
                </g>
               <g id="resetDef">
                       <use xlink:href="#rim2" fill="#404040">
                               <set attributeName="fill" to="#808080" begin="reset.mouseover" end="reset.mouseout"/>
                       </use>
               </g>
        </defs>

<script type="text/javascript">
var viewWidth = 1701;
var viewHeight = 505;
var sectionId = 'dynsection-22';
</script>
<script xlink:href="../../svgpan.js"/>
<svg id="graph" class="graph">
<g id="viewport">
<title>sandbox_ObjectSpawn</title>
<!-- Node1 -->
<g id="node1" class="node"><title>Node1</title>
<polygon fill="#bfbfbf" stroke="black" points="0,-229.948 0,-248.948 125,-248.948 125,-229.948 0,-229.948"/>
<text text-anchor="middle" x="62.5" y="-236.948" font-family="Helvetica,sans-Serif" font-size="10.00">sandbox_ObjectSpawn</text>
</g>
<!-- Node2 -->
<g id="node2" class="node"><title>Node2</title>
<g id="a_node2"><a xlink:href="../../d4/d0c/csprogsdefs_8qc.html#acbb54a239d76062465dccbc6a6c6e464" target="_top" xlink:title="entity">
<polygon fill="none" stroke="black" points="1355.5,-392.948 1355.5,-411.948 1399.5,-411.948 1399.5,-392.948 1355.5,-392.948"/>
<text text-anchor="middle" x="1377.5" y="-399.948" font-family="Helvetica,sans-Serif" font-size="10.00">entity</text>
</a>
</g>
</g>
<!-- Node1&#45;&gt;Node2 -->
<g id="edge1" class="edge"><title>Node1&#45;&gt;Node2</title>
<path fill="none" stroke="midnightblue" d="M67.4593,-249.258C78.254,-274.663 110.792,-342.878 161,-375.448 246.447,-430.877 283.649,-421.448 385.5,-421.448 385.5,-421.448 385.5,-421.448 986,-421.448 1119.74,-421.448 1278.93,-410.193 1345.17,-405.008"/>
<polygon fill="midnightblue" stroke="midnightblue" points="1345.66,-408.481 1355.35,-404.201 1345.11,-401.502 1345.66,-408.481"/>
</g>
<!-- Node3 -->
<g id="node3" class="node"><title>Node3</title>
<g id="a_node3"><a xlink:href="../../d9/d51/intrusivelist_8qh.html#a1dc3261f72901c53357b5e01d94cb556" target="_top" xlink:title="Push to tail. ">
<polygon fill="none" stroke="black" points="199,-449.948 199,-468.948 256,-468.948 256,-449.948 199,-449.948"/>
<text text-anchor="middle" x="227.5" y="-456.948" font-family="Helvetica,sans-Serif" font-size="10.00">IL_PUSH</text>
</a>
</g>
</g>
<!-- Node1&#45;&gt;Node3 -->
<g id="edge2" class="edge"><title>Node1&#45;&gt;Node3</title>
<path fill="none" stroke="midnightblue" d="M65.6189,-249.163C72.9851,-280.684 100.405,-381.198 161,-435.448 168.918,-442.537 179.103,-447.586 189.072,-451.16"/>
<polygon fill="midnightblue" stroke="midnightblue" points="188.286,-454.583 198.876,-454.264 190.399,-447.909 188.286,-454.583"/>
</g>
<!-- Node5 -->
<g id="node5" class="node"><title>Node5</title>
<g id="a_node5"><a xlink:href="../../de/d55/server_2command_2common_8qc.html#a37f1c035bd3cc63c8ef7d58dd12958ee" target="_top" xlink:title="print_to">
<polygon fill="none" stroke="black" points="201,-289.948 201,-308.948 254,-308.948 254,-289.948 201,-289.948"/>
<text text-anchor="middle" x="227.5" y="-296.948" font-family="Helvetica,sans-Serif" font-size="10.00">print_to</text>
</a>
</g>
</g>
<!-- Node1&#45;&gt;Node5 -->
<g id="edge5" class="edge"><title>Node1&#45;&gt;Node5</title>
<path fill="none" stroke="midnightblue" d="M89.3278,-248.955C116.869,-259.093 160.656,-275.211 191.331,-286.503"/>
<polygon fill="midnightblue" stroke="midnightblue" points="190.2,-289.815 200.793,-289.985 192.618,-283.246 190.2,-289.815"/>
</g>
<!-- Node9 -->
<g id="node9" class="node"><title>Node9</title>
<g id="a_node9"><a xlink:href="../../d3/d59/sv__sandbox_8qc.html#a9d4540e1105a20664c2c32952ff69f98" target="_top" xlink:title="sandbox_ObjectFunction\l_Think">
<polygon fill="none" stroke="black" points="161,-175.448 161,-205.448 294,-205.448 294,-175.448 161,-175.448"/>
<text text-anchor="start" x="169" y="-193.448" font-family="Helvetica,sans-Serif" font-size="10.00">sandbox_ObjectFunction</text>
<text text-anchor="middle" x="227.5" y="-182.448" font-family="Helvetica,sans-Serif" font-size="10.00">_Think</text>
</a>
</g>
</g>
<!-- Node1&#45;&gt;Node9 -->
<g id="edge9" class="edge"><title>Node1&#45;&gt;Node9</title>
<path fill="none" stroke="midnightblue" d="M95.315,-229.884C115.591,-223.789 142.501,-215.699 166.67,-208.434"/>
<polygon fill="midnightblue" stroke="midnightblue" points="167.91,-211.716 176.479,-205.485 165.895,-205.012 167.91,-211.716"/>
</g>
<!-- Node10 -->
<g id="node10" class="node"><title>Node10</title>
<g id="a_node10"><a xlink:href="../../d3/d59/sv__sandbox_8qc.html#ad253fe6f3bcadef9bf1a5bb23afe321c" target="_top" xlink:title="sandbox_ObjectFunction\l_Touch">
<polygon fill="none" stroke="black" points="161,-224.448 161,-254.448 294,-254.448 294,-224.448 161,-224.448"/>
<text text-anchor="start" x="169" y="-242.448" font-family="Helvetica,sans-Serif" font-size="10.00">sandbox_ObjectFunction</text>
<text text-anchor="middle" x="227.5" y="-231.448" font-family="Helvetica,sans-Serif" font-size="10.00">_Touch</text>
</a>
</g>
</g>
<!-- Node1&#45;&gt;Node10 -->
<g id="edge10" class="edge"><title>Node1&#45;&gt;Node10</title>
<path fill="none" stroke="midnightblue" d="M125.123,-239.448C133.547,-239.448 142.273,-239.448 150.909,-239.448"/>
<polygon fill="midnightblue" stroke="midnightblue" points="150.983,-242.948 160.983,-239.448 150.983,-235.948 150.983,-242.948"/>
</g>
<!-- Node16 -->
<g id="node16" class="node"><title>Node16</title>
<g id="a_node16"><a xlink:href="../../d4/dd7/movetypes_8qh.html#a8bf89be84cb481d218ff41140eacff78" target="_top" xlink:title="set_movetype">
<polygon fill="none" stroke="black" points="185,-136.948 185,-155.948 270,-155.948 270,-136.948 185,-136.948"/>
<text text-anchor="middle" x="227.5" y="-143.948" font-family="Helvetica,sans-Serif" font-size="10.00">set_movetype</text>
</a>
</g>
</g>
<!-- Node1&#45;&gt;Node16 -->
<g id="edge17" class="edge"><title>Node1&#45;&gt;Node16</title>
<path fill="none" stroke="midnightblue" d="M73.7886,-229.802C90.7312,-214.389 126.113,-184.148 161,-166.448 166.23,-163.794 171.877,-161.421 177.585,-159.318"/>
<polygon fill="midnightblue" stroke="midnightblue" points="178.859,-162.581 187.188,-156.033 176.593,-155.958 178.859,-162.581"/>
</g>
<!-- Node17 -->
<g id="node17" class="node"><title>Node17</title>
<g id="a_node17"><a xlink:href="../../d5/dff/ent__cs_8qc.html#ac459a724c1fe031c6658fff554b12ea8" target="_top" xlink:title="setorigin">
<polygon fill="none" stroke="black" points="198.5,-98.9481 198.5,-117.948 256.5,-117.948 256.5,-98.9481 198.5,-98.9481"/>
<text text-anchor="middle" x="227.5" y="-105.948" font-family="Helvetica,sans-Serif" font-size="10.00">setorigin</text>
</a>
</g>
</g>
<!-- Node1&#45;&gt;Node17 -->
<g id="edge18" class="edge"><title>Node1&#45;&gt;Node17</title>
<path fill="none" stroke="midnightblue" d="M69.2176,-229.699C82.4802,-207.95 117.547,-155.203 161,-127.448 169.207,-122.206 178.902,-118.371 188.281,-115.58"/>
<polygon fill="midnightblue" stroke="midnightblue" points="189.477,-118.884 198.25,-112.944 187.687,-112.117 189.477,-118.884"/>
</g>
<!-- Node18 -->
<g id="node18" class="node"><title>Node18</title>
<g id="a_node18"><a xlink:href="../../d8/de2/menudefs_8qc.html#ae06db7c87845d853670a09a1d487b1db" target="_top" xlink:title="strzone">
<polygon fill="none" stroke="black" points="201,-60.9481 201,-79.9481 254,-79.9481 254,-60.9481 201,-60.9481"/>
<text text-anchor="middle" x="227.5" y="-67.9481" font-family="Helvetica,sans-Serif" font-size="10.00">strzone</text>
</a>
</g>
</g>
<!-- Node1&#45;&gt;Node18 -->
<g id="edge19" class="edge"><title>Node1&#45;&gt;Node18</title>
<path fill="none" stroke="midnightblue" d="M67.026,-229.666C77.1794,-202.908 109.119,-127.945 161,-89.4481 169.791,-82.925 180.775,-78.6354 191.222,-75.8168"/>
<polygon fill="midnightblue" stroke="midnightblue" points="192.04,-79.22 200.984,-73.5403 190.45,-72.4029 192.04,-79.22"/>
</g>
<!-- Node19 -->
<g id="node19" class="node"><title>Node19</title>
<g id="a_node19"><a xlink:href="../../d1/d6a/lib_2warpzone_2common_8qc.html#a37f59b6a1a00560f47d41387a3666338" target="_top" xlink:title="WarpZone_TraceLine">
<polygon fill="none" stroke="black" points="170,-346.948 170,-365.948 285,-365.948 285,-346.948 170,-346.948"/>
<text text-anchor="middle" x="227.5" y="-353.948" font-family="Helvetica,sans-Serif" font-size="10.00">WarpZone_TraceLine</text>
</a>
</g>
</g>
<!-- Node1&#45;&gt;Node19 -->
<g id="edge20" class="edge"><title>Node1&#45;&gt;Node19</title>
<path fill="none" stroke="midnightblue" d="M74.1804,-249.03C91.6731,-264.507 127.811,-295.58 161,-318.448 173.13,-326.806 187.189,-335.127 199.165,-341.843"/>
<polygon fill="midnightblue" stroke="midnightblue" points="197.8,-345.087 208.247,-346.854 201.183,-338.958 197.8,-345.087"/>
</g>
<!-- Node3&#45;&gt;Node2 -->
<g id="edge4" class="edge"><title>Node3&#45;&gt;Node2</title>
<path fill="none" stroke="midnightblue" d="M256.375,-465.49C276.696,-469.693 304.942,-475.118 330,-478.448 435.848,-492.513 462.721,-497.448 569.5,-497.448 569.5,-497.448 569.5,-497.448 986,-497.448 1123.43,-497.448 1280.54,-441.212 1345.7,-415.275"/>
<polygon fill="midnightblue" stroke="midnightblue" points="1347.39,-418.37 1355.35,-411.385 1344.77,-411.877 1347.39,-418.37"/>
</g>
<!-- Node4 -->
<g id="node4" class="node"><title>Node4</title>
<g id="a_node4"><a xlink:href="../../d9/d51/intrusivelist_8qh.html#a385bb2612b4fc3e23b299195944d8925" target="_top" xlink:title="IL_CONTAINS">
<polygon fill="none" stroke="black" points="347,-449.948 347,-468.948 426,-468.948 426,-449.948 347,-449.948"/>
<text text-anchor="middle" x="386.5" y="-456.948" font-family="Helvetica,sans-Serif" font-size="10.00">IL_CONTAINS</text>
</a>
</g>
</g>
<!-- Node3&#45;&gt;Node4 -->
<g id="edge3" class="edge"><title>Node3&#45;&gt;Node4</title>
<path fill="none" stroke="midnightblue" d="M256.207,-459.448C278.433,-459.448 310.18,-459.448 336.653,-459.448"/>
<polygon fill="midnightblue" stroke="midnightblue" points="336.881,-462.948 346.881,-459.448 336.881,-455.948 336.881,-462.948"/>
</g>
<!-- Node6 -->
<g id="node6" class="node"><title>Node6</title>
<g id="a_node6"><a xlink:href="../../d8/de2/menudefs_8qc.html#a4ae54ed78d55acc008e6fcf8c72e779f" target="_top" xlink:title="sprint">
<polygon fill="none" stroke="black" points="364.5,-335.948 364.5,-354.948 408.5,-354.948 408.5,-335.948 364.5,-335.948"/>
<text text-anchor="middle" x="386.5" y="-342.948" font-family="Helvetica,sans-Serif" font-size="10.00">sprint</text>
</a>
</g>
</g>
<!-- Node5&#45;&gt;Node6 -->
<g id="edge6" class="edge"><title>Node5&#45;&gt;Node6</title>
<path fill="none" stroke="midnightblue" d="M254.074,-306.941C281.589,-315.003 325.342,-327.822 354.723,-336.43"/>
<polygon fill="midnightblue" stroke="midnightblue" points="353.884,-339.832 364.465,-339.285 355.853,-333.114 353.884,-339.832"/>
</g>
<!-- Node7 -->
<g id="node7" class="node"><title>Node7</title>
<g id="a_node7"><a xlink:href="../../d9/d09/notifications_2all_8inc.html#ad04f6b1a4889674503c3cdad58c55da1" target="_top" xlink:title="strcat">
<polygon fill="none" stroke="black" points="364.5,-259.948 364.5,-278.948 408.5,-278.948 408.5,-259.948 364.5,-259.948"/>
<text text-anchor="middle" x="386.5" y="-266.948" font-family="Helvetica,sans-Serif" font-size="10.00">strcat</text>
</a>
</g>
</g>
<!-- Node5&#45;&gt;Node7 -->
<g id="edge7" class="edge"><title>Node5&#45;&gt;Node7</title>
<path fill="none" stroke="midnightblue" d="M254.074,-294.561C281.469,-289.327 324.961,-281.016 354.337,-275.403"/>
<polygon fill="midnightblue" stroke="midnightblue" points="355.3,-278.782 364.465,-273.467 353.986,-271.907 355.3,-278.782"/>
</g>
<!-- Node8 -->
<g id="node8" class="node"><title>Node8</title>
<g id="a_node8"><a xlink:href="../../d8/de2/menudefs_8qc.html#acf9c719e766113bad854907e87812e98" target="_top" xlink:title="print">
<polygon fill="none" stroke="black" points="367.5,-297.948 367.5,-316.948 405.5,-316.948 405.5,-297.948 367.5,-297.948"/>
<text text-anchor="middle" x="386.5" y="-304.948" font-family="Helvetica,sans-Serif" font-size="10.00">print</text>
</a>
</g>
</g>
<!-- Node5&#45;&gt;Node8 -->
<g id="edge8" class="edge"><title>Node5&#45;&gt;Node8</title>
<path fill="none" stroke="midnightblue" d="M254.074,-300.751C282.398,-302.194 327.928,-304.514 357.274,-306.01"/>
<polygon fill="midnightblue" stroke="midnightblue" points="357.127,-309.507 367.292,-306.52 357.483,-302.516 357.127,-309.507"/>
</g>
<!-- Node10&#45;&gt;Node7 -->
<g id="edge15" class="edge"><title>Node10&#45;&gt;Node7</title>
<path fill="none" stroke="midnightblue" d="M294.172,-251.997C315.048,-255.986 337.168,-260.213 354.409,-263.507"/>
<polygon fill="midnightblue" stroke="midnightblue" points="353.979,-266.988 364.459,-265.427 355.293,-260.113 353.979,-266.988"/>
</g>
<!-- Node11 -->
<g id="node11" class="node"><title>Node11</title>
<g id="a_node11"><a xlink:href="../../d8/de2/menudefs_8qc.html#a3846d117b360dccec575f96988cf3bb7" target="_top" xlink:title="bound">
<polygon fill="none" stroke="black" points="363,-183.948 363,-202.948 410,-202.948 410,-183.948 363,-183.948"/>
<text text-anchor="middle" x="386.5" y="-190.948" font-family="Helvetica,sans-Serif" font-size="10.00">bound</text>
</a>
</g>
</g>
<!-- Node10&#45;&gt;Node11 -->
<g id="edge11" class="edge"><title>Node10&#45;&gt;Node11</title>
<path fill="none" stroke="midnightblue" d="M279.908,-224.386C304.04,-217.315 332.065,-209.104 353.177,-202.919"/>
<polygon fill="midnightblue" stroke="midnightblue" points="354.325,-206.229 362.938,-200.059 352.357,-199.512 354.325,-206.229"/>
</g>
<!-- Node12 -->
<g id="node12" class="node"><title>Node12</title>
<g id="a_node12"><a xlink:href="../../d8/de2/menudefs_8qc.html#a22f100d9039928edd4e410c7d68858e7" target="_top" xlink:title="ceil">
<polygon fill="none" stroke="black" points="370.5,-145.948 370.5,-164.948 402.5,-164.948 402.5,-145.948 370.5,-145.948"/>
<text text-anchor="middle" x="386.5" y="-152.948" font-family="Helvetica,sans-Serif" font-size="10.00">ceil</text>
</a>
</g>
</g>
<!-- Node10&#45;&gt;Node12 -->
<g id="edge12" class="edge"><title>Node10&#45;&gt;Node12</title>
<path fill="none" stroke="midnightblue" d="M278.117,-224.329C283.684,-221.752 289.105,-218.802 294,-215.448 314.004,-201.741 309.85,-187.94 330,-174.448 339.17,-168.308 350.521,-163.962 360.563,-160.991"/>
<polygon fill="midnightblue" stroke="midnightblue" points="361.642,-164.325 370.408,-158.375 359.845,-157.56 361.642,-164.325"/>
</g>
<!-- Node13 -->
<g id="node13" class="node"><title>Node13</title>
<g id="a_node13"><a xlink:href="../../d8/de2/menudefs_8qc.html#abbb0d86741e0056b6c04f7280c185d76" target="_top" xlink:title="ftos">
<polygon fill="none" stroke="black" points="369,-107.948 369,-126.948 404,-126.948 404,-107.948 369,-107.948"/>
<text text-anchor="middle" x="386.5" y="-114.948" font-family="Helvetica,sans-Serif" font-size="10.00">ftos</text>
</a>
</g>
</g>
<!-- Node10&#45;&gt;Node13 -->
<g id="edge13" class="edge"><title>Node10&#45;&gt;Node13</title>
<path fill="none" stroke="midnightblue" d="M281.467,-224.421C285.999,-221.873 290.269,-218.905 294,-215.448 322.305,-189.226 301.416,-162.366 330,-136.448 338.007,-129.187 348.915,-124.681 358.941,-121.894"/>
<polygon fill="midnightblue" stroke="midnightblue" points="359.969,-125.248 368.912,-119.568 358.378,-118.431 359.969,-125.248"/>
</g>
<!-- Node14 -->
<g id="node14" class="node"><title>Node14</title>
<g id="a_node14"><a xlink:href="../../d8/de2/menudefs_8qc.html#a663ea6aa3c4923b3e065cf91cc319f1b" target="_top" xlink:title="random">
<polygon fill="none" stroke="black" points="359.5,-69.9481 359.5,-88.9481 413.5,-88.9481 413.5,-69.9481 359.5,-69.9481"/>
<text text-anchor="middle" x="386.5" y="-76.9481" font-family="Helvetica,sans-Serif" font-size="10.00">random</text>
</a>
</g>
</g>
<!-- Node10&#45;&gt;Node14 -->
<g id="edge14" class="edge"><title>Node10&#45;&gt;Node14</title>
<path fill="none" stroke="midnightblue" d="M282.896,-224.336C286.969,-221.814 290.749,-218.875 294,-215.448 331.443,-175.977 292.137,-137.517 330,-98.4481 335.311,-92.9676 342.269,-89.0676 349.454,-86.2924"/>
<polygon fill="midnightblue" stroke="midnightblue" points="350.797,-89.5377 359.259,-83.1624 348.668,-82.8692 350.797,-89.5377"/>
</g>
<!-- Node15 -->
<g id="node15" class="node"><title>Node15</title>
<g id="a_node15"><a xlink:href="../../d8/de2/menudefs_8qc.html#a79d61ab0e4126e02af8bc36d432aedaf" target="_top" xlink:title="vlen">
<polygon fill="none" stroke="black" points="368.5,-221.948 368.5,-240.948 404.5,-240.948 404.5,-221.948 368.5,-221.948"/>
<text text-anchor="middle" x="386.5" y="-228.948" font-family="Helvetica,sans-Serif" font-size="10.00">vlen</text>
</a>
</g>
</g>
<!-- Node10&#45;&gt;Node15 -->
<g id="edge16" class="edge"><title>Node10&#45;&gt;Node15</title>
<path fill="none" stroke="midnightblue" d="M294.172,-236.102C316.579,-234.96 340.418,-233.745 358.121,-232.843"/>
<polygon fill="midnightblue" stroke="midnightblue" points="358.473,-236.33 368.282,-232.325 358.117,-229.339 358.473,-236.33"/>
</g>
<!-- Node20 -->
<g id="node20" class="node"><title>Node20</title>
<g id="a_node20"><a xlink:href="../../d1/d6a/lib_2warpzone_2common_8qc.html#a9321c18dd45fa7891473f61db9ccbe93" target="_top" xlink:title="WarpZone_TraceBox">
<polygon fill="none" stroke="black" points="330,-373.948 330,-392.948 443,-392.948 443,-373.948 330,-373.948"/>
<text text-anchor="middle" x="386.5" y="-380.948" font-family="Helvetica,sans-Serif" font-size="10.00">WarpZone_TraceBox</text>
</a>
</g>
</g>
<!-- Node19&#45;&gt;Node20 -->
<g id="edge21" class="edge"><title>Node19&#45;&gt;Node20</title>
<path fill="none" stroke="midnightblue" d="M283.852,-365.967C295.578,-367.984 308.059,-370.13 320.116,-372.204"/>
<polygon fill="midnightblue" stroke="midnightblue" points="319.67,-375.678 330.118,-373.924 320.856,-368.78 319.67,-375.678"/>
</g>
<!-- Node21 -->
<g id="node21" class="node"><title>Node21</title>
<g id="a_node21"><a xlink:href="../../d1/d6a/lib_2warpzone_2common_8qc.html#a368f7c4b2bb0959e80033bce124f640d" target="_top" xlink:title="WarpZone_TraceBox_ThroughZone">
<polygon fill="none" stroke="black" points="479,-215.948 479,-234.948 662,-234.948 662,-215.948 479,-215.948"/>
<text text-anchor="middle" x="570.5" y="-222.948" font-family="Helvetica,sans-Serif" font-size="10.00">WarpZone_TraceBox_ThroughZone</text>
</a>
</g>
</g>
<!-- Node20&#45;&gt;Node21 -->
<g id="edge22" class="edge"><title>Node20&#45;&gt;Node21</title>
<path fill="none" stroke="midnightblue" d="M423.967,-373.909C430.582,-371.373 437.211,-368.25 443,-364.448 493.695,-331.151 537.465,-272.924 557.638,-243.525"/>
<polygon fill="midnightblue" stroke="midnightblue" points="560.655,-245.311 563.338,-235.061 554.849,-241.401 560.655,-245.311"/>
</g>
<!-- Node21&#45;&gt;Node2 -->
<g id="edge23" class="edge"><title>Node21&#45;&gt;Node2</title>
<path fill="none" stroke="midnightblue" d="M577.062,-235.128C592.419,-260.789 638.252,-330.495 698,-358.448 815.032,-413.202 1228.07,-406.487 1345.28,-403.393"/>
<polygon fill="midnightblue" stroke="midnightblue" points="1345.47,-406.889 1355.37,-403.115 1345.28,-399.891 1345.47,-406.889"/>
</g>
<!-- Node22 -->
<g id="node22" class="node"><title>Node22</title>
<g id="a_node22"><a xlink:href="../../da/dde/csprogsdefs_8qh.html#a2626679e4144af8478202c6c28f90cd9" target="_top" xlink:title="vector">
<polygon fill="none" stroke="black" points="1646,-124.948 1646,-143.948 1693,-143.948 1693,-124.948 1646,-124.948"/>
<text text-anchor="middle" x="1669.5" y="-131.948" font-family="Helvetica,sans-Serif" font-size="10.00">vector</text>
</a>
</g>
</g>
<!-- Node21&#45;&gt;Node22 -->
<g id="edge24" class="edge"><title>Node21&#45;&gt;Node22</title>
<path fill="none" stroke="midnightblue" d="M587.152,-234.979C610.364,-248.526 655.733,-272.777 698,-282.448 910.366,-331.039 970.146,-295.448 1188,-295.448 1188,-295.448 1188,-295.448 1378.5,-295.448 1496.44,-295.448 1611.28,-192.407 1652.49,-151.192"/>
<polygon fill="midnightblue" stroke="midnightblue" points="1655.01,-153.622 1659.53,-144.037 1650.02,-148.715 1655.01,-153.622"/>
</g>
<!-- Node23 -->
<g id="node23" class="node"><title>Node23</title>
<g id="a_node23"><a xlink:href="../../d1/d6a/lib_2warpzone_2common_8qc.html#a233e264af952b9d8e4a5ccfd7bce53c7" target="_top" xlink:title="WarpZone_Trace_InitTransform">
<polygon fill="none" stroke="black" points="700.5,-329.948 700.5,-348.948 862.5,-348.948 862.5,-329.948 700.5,-329.948"/>
<text text-anchor="middle" x="781.5" y="-336.948" font-family="Helvetica,sans-Serif" font-size="10.00">WarpZone_Trace_InitTransform</text>
</a>
</g>
</g>
<!-- Node21&#45;&gt;Node23 -->
<g id="edge25" class="edge"><title>Node21&#45;&gt;Node23</title>
<path fill="none" stroke="midnightblue" d="M582.205,-235C603.054,-253.141 651.176,-292.787 698,-315.448 707.361,-319.978 717.742,-323.821 727.894,-327.015"/>
<polygon fill="midnightblue" stroke="midnightblue" points="726.932,-330.381 737.515,-329.88 728.93,-323.672 726.932,-330.381"/>
</g>
<!-- Node25 -->
<g id="node25" class="node"><title>Node25</title>
<g id="a_node25"><a xlink:href="../../d1/d6a/lib_2warpzone_2common_8qc.html#a191c61933b716c17f4aaac24e9049664" target="_top" xlink:title="WarpZone_Find">
<polygon fill="none" stroke="black" points="737,-215.948 737,-234.948 826,-234.948 826,-215.948 737,-215.948"/>
<text text-anchor="middle" x="781.5" y="-222.948" font-family="Helvetica,sans-Serif" font-size="10.00">WarpZone_Find</text>
</a>
</g>
</g>
<!-- Node21&#45;&gt;Node25 -->
<g id="edge27" class="edge"><title>Node21&#45;&gt;Node25</title>
<path fill="none" stroke="midnightblue" d="M662.259,-225.448C684.203,-225.448 706.97,-225.448 726.598,-225.448"/>
<polygon fill="midnightblue" stroke="midnightblue" points="726.853,-228.948 736.853,-225.448 726.853,-221.948 726.853,-228.948"/>
</g>
<!-- Node28 -->
<g id="node28" class="node"><title>Node28</title>
<g id="a_node28"><a xlink:href="../../d1/d07/framework_8qc.html#aef346455b3c2def821423a45227b45dd" target="_top" xlink:title="LOG_TRACE">
<polygon fill="none" stroke="black" points="1341.5,-199.948 1341.5,-218.948 1413.5,-218.948 1413.5,-199.948 1341.5,-199.948"/>
<text text-anchor="middle" x="1377.5" y="-206.948" font-family="Helvetica,sans-Serif" font-size="10.00">LOG_TRACE</text>
</a>
</g>
</g>
<!-- Node21&#45;&gt;Node28 -->
<g id="edge45" class="edge"><title>Node21&#45;&gt;Node28</title>
<path fill="none" stroke="midnightblue" d="M580.094,-215.679C598.952,-195.077 646.415,-147.661 698,-130.448 936.452,-50.8802 1245.2,-157.24 1344.35,-196.18"/>
<polygon fill="midnightblue" stroke="midnightblue" points="1343.23,-199.5 1353.82,-199.943 1345.82,-192.996 1343.23,-199.5"/>
</g>
<!-- Node29 -->
<g id="node29" class="node"><title>Node29</title>
<g id="a_node29"><a xlink:href="../../d1/d6a/lib_2warpzone_2common_8qc.html#ade15efbb2449932e8874907371c76a39" target="_top" xlink:title="WarpZone_Trace_AddTransform">
<polygon fill="none" stroke="black" points="698,-63.9481 698,-82.9481 865,-82.9481 865,-63.9481 698,-63.9481"/>
<text text-anchor="middle" x="781.5" y="-70.9481" font-family="Helvetica,sans-Serif" font-size="10.00">WarpZone_Trace_AddTransform</text>
</a>
</g>
</g>
<!-- Node21&#45;&gt;Node29 -->
<g id="edge32" class="edge"><title>Node21&#45;&gt;Node29</title>
<path fill="none" stroke="midnightblue" d="M578.26,-215.787C595.425,-191.979 643.241,-130.064 698,-97.4481 705.635,-92.9003 714.185,-89.1694 722.81,-86.1216"/>
<polygon fill="midnightblue" stroke="midnightblue" points="724.105,-89.381 732.535,-82.9634 721.943,-82.7232 724.105,-89.381"/>
</g>
<!-- Node35 -->
<g id="node35" class="node"><title>Node35</title>
<g id="a_node35"><a xlink:href="../../d1/d6a/lib_2warpzone_2common_8qc.html#a83f110aec024c6632cd713cf64cb136e" target="_top" xlink:title="WarpZone_TransformOrigin">
<polygon fill="none" stroke="black" points="1116,-17.9481 1116,-36.9481 1262,-36.9481 1262,-17.9481 1116,-17.9481"/>
<text text-anchor="middle" x="1189" y="-24.9481" font-family="Helvetica,sans-Serif" font-size="10.00">WarpZone_TransformOrigin</text>
</a>
</g>
</g>
<!-- Node21&#45;&gt;Node35 -->
<g id="edge42" class="edge"><title>Node21&#45;&gt;Node35</title>
<path fill="none" stroke="midnightblue" d="M575.148,-215.755C587.168,-185.367 628.765,-91.7751 698,-54.4481 839.097,21.6218 1037.47,0.461842 1132.71,-16.0999"/>
<polygon fill="midnightblue" stroke="midnightblue" points="1132.24,-19.5719 1142.7,-17.8871 1133.48,-12.6812 1132.24,-19.5719"/>
</g>
<!-- Node36 -->
<g id="node36" class="node"><title>Node36</title>
<g id="a_node36"><a xlink:href="../../d1/d6a/lib_2warpzone_2common_8qc.html#a9d0c128ebb30061395684b1563d9ad4a" target="_top" xlink:title="WarpZone_MakeAllSolid">
<polygon fill="none" stroke="black" points="716,-253.948 716,-272.948 847,-272.948 847,-253.948 716,-253.948"/>
<text text-anchor="middle" x="781.5" y="-260.948" font-family="Helvetica,sans-Serif" font-size="10.00">WarpZone_MakeAllSolid</text>
</a>
</g>
</g>
<!-- Node21&#45;&gt;Node36 -->
<g id="edge44" class="edge"><title>Node21&#45;&gt;Node36</title>
<path fill="none" stroke="midnightblue" d="M623.97,-234.988C652.541,-240.183 688.08,-246.644 718.069,-252.097"/>
<polygon fill="midnightblue" stroke="midnightblue" points="717.544,-255.559 728.009,-253.904 718.796,-248.672 717.544,-255.559"/>
</g>
<!-- Node37 -->
<g id="node37" class="node"><title>Node37</title>
<g id="a_node37"><a xlink:href="../../d8/de2/menudefs_8qc.html#ab8f7213273f7de03df213240376ce9f4" target="_top" xlink:title="normalize">
<polygon fill="none" stroke="black" points="749.5,-177.948 749.5,-196.948 813.5,-196.948 813.5,-177.948 749.5,-177.948"/>
<text text-anchor="middle" x="781.5" y="-184.948" font-family="Helvetica,sans-Serif" font-size="10.00">normalize</text>
</a>
</g>
</g>
<!-- Node21&#45;&gt;Node37 -->
<g id="edge46" class="edge"><title>Node21&#45;&gt;Node37</title>
<path fill="none" stroke="midnightblue" d="M623.97,-215.908C659.648,-209.421 706.191,-200.959 739.226,-194.952"/>
<polygon fill="midnightblue" stroke="midnightblue" points="740.234,-198.327 749.446,-193.094 738.982,-191.44 740.234,-198.327"/>
</g>
<!-- Node38 -->
<g id="node38" class="node"><title>Node38</title>
<g id="a_node38"><a xlink:href="../../d1/d6a/lib_2warpzone_2common_8qc.html#a709b87db314dc8aaf6df3d3adc456b1d" target="_top" xlink:title="WarpZone_MakeAllOther">
<polygon fill="none" stroke="black" points="714.5,-139.948 714.5,-158.948 848.5,-158.948 848.5,-139.948 714.5,-139.948"/>
<text text-anchor="middle" x="781.5" y="-146.948" font-family="Helvetica,sans-Serif" font-size="10.00">WarpZone_MakeAllOther</text>
</a>
</g>
</g>
<!-- Node21&#45;&gt;Node38 -->
<g id="edge47" class="edge"><title>Node21&#45;&gt;Node38</title>
<path fill="none" stroke="midnightblue" d="M589.896,-215.768C614.114,-203.351 658.278,-181.826 698,-168.448 705.625,-165.88 713.762,-163.542 721.842,-161.452"/>
<polygon fill="midnightblue" stroke="midnightblue" points="722.767,-164.829 731.632,-159.027 721.084,-158.034 722.767,-164.829"/>
</g>
<!-- Node24 -->
<g id="node24" class="node"><title>Node24</title>
<g id="a_node24"><a xlink:href="../../d1/d6a/lib_2warpzone_2common_8qc.html#a1ffbdf285707f8412653ec2a099b8a02" target="_top" xlink:title="WarpZone_Accumulator\l_Clear">
<polygon fill="none" stroke="black" points="919.5,-324.448 919.5,-354.448 1050.5,-354.448 1050.5,-324.448 919.5,-324.448"/>
<text text-anchor="start" x="927.5" y="-342.448" font-family="Helvetica,sans-Serif" font-size="10.00">WarpZone_Accumulator</text>
<text text-anchor="middle" x="985" y="-331.448" font-family="Helvetica,sans-Serif" font-size="10.00">_Clear</text>
</a>
</g>
</g>
<!-- Node23&#45;&gt;Node24 -->
<g id="edge26" class="edge"><title>Node23&#45;&gt;Node24</title>
<path fill="none" stroke="midnightblue" d="M862.717,-339.448C877.965,-339.448 893.869,-339.448 908.95,-339.448"/>
<polygon fill="midnightblue" stroke="midnightblue" points="909.24,-342.948 919.24,-339.448 909.24,-335.948 909.24,-342.948"/>
</g>
<!-- Node26 -->
<g id="node26" class="node"><title>Node26</title>
<g id="a_node26"><a xlink:href="../../d1/d6a/lib_2warpzone_2common_8qc.html#a1b87d3cc5d237220e1d7def92aca4632" target="_top" xlink:title="WarpZoneLib_BoxTouchesBrush">
<polygon fill="none" stroke="black" points="901,-215.948 901,-234.948 1069,-234.948 1069,-215.948 901,-215.948"/>
<text text-anchor="middle" x="985" y="-222.948" font-family="Helvetica,sans-Serif" font-size="10.00">WarpZoneLib_BoxTouchesBrush</text>
</a>
</g>
</g>
<!-- Node25&#45;&gt;Node26 -->
<g id="edge28" class="edge"><title>Node25&#45;&gt;Node26</title>
<path fill="none" stroke="midnightblue" d="M826.222,-225.448C845.193,-225.448 868.186,-225.448 890.683,-225.448"/>
<polygon fill="midnightblue" stroke="midnightblue" points="890.968,-228.948 900.968,-225.448 890.968,-221.948 890.968,-228.948"/>
</g>
<!-- Node27 -->
<g id="node27" class="node"><title>Node27</title>
<g id="a_node27"><a xlink:href="../../d1/d6a/lib_2warpzone_2common_8qc.html#a4a0631162e93630a6ea1d1f7b7b33329" target="_top" xlink:title="WarpZoneLib_BoxTouchesBrush\l_Recurse">
<polygon fill="none" stroke="black" points="1105,-210.448 1105,-240.448 1273,-240.448 1273,-210.448 1105,-210.448"/>
<text text-anchor="start" x="1113" y="-228.448" font-family="Helvetica,sans-Serif" font-size="10.00">WarpZoneLib_BoxTouchesBrush</text>
<text text-anchor="middle" x="1189" y="-217.448" font-family="Helvetica,sans-Serif" font-size="10.00">_Recurse</text>
</a>
</g>
</g>
<!-- Node26&#45;&gt;Node27 -->
<g id="edge29" class="edge"><title>Node26&#45;&gt;Node27</title>
<path fill="none" stroke="midnightblue" d="M1069.04,-225.448C1077.56,-225.448 1086.26,-225.448 1094.89,-225.448"/>
<polygon fill="midnightblue" stroke="midnightblue" points="1094.96,-228.948 1104.96,-225.448 1094.96,-221.948 1094.96,-228.948"/>
</g>
<!-- Node27&#45;&gt;Node2 -->
<g id="edge30" class="edge"><title>Node27&#45;&gt;Node2</title>
<path fill="none" stroke="midnightblue" d="M1205.9,-240.539C1240.62,-273.493 1323,-351.675 1359.07,-385.91"/>
<polygon fill="midnightblue" stroke="midnightblue" points="1356.76,-388.539 1366.42,-392.885 1361.58,-383.462 1356.76,-388.539"/>
</g>
<!-- Node27&#45;&gt;Node28 -->
<g id="edge31" class="edge"><title>Node27&#45;&gt;Node28</title>
<path fill="none" stroke="midnightblue" d="M1273.16,-218.314C1292.95,-216.616 1313.35,-214.866 1330.74,-213.374"/>
<polygon fill="midnightblue" stroke="midnightblue" points="1331.49,-216.823 1341.15,-212.481 1330.89,-209.848 1331.49,-216.823"/>
</g>
<!-- Node30 -->
<g id="node30" class="node"><title>Node30</title>
<g id="a_node30"><a xlink:href="../../d1/d6a/lib_2warpzone_2common_8qc.html#af5e5f1b36ad17b8f9170a150aa5c8967" target="_top" xlink:title="WarpZone_Accumulator_Add">
<polygon fill="none" stroke="black" points="907.5,-62.9481 907.5,-81.9481 1062.5,-81.9481 1062.5,-62.9481 907.5,-62.9481"/>
<text text-anchor="middle" x="985" y="-69.9481" font-family="Helvetica,sans-Serif" font-size="10.00">WarpZone_Accumulator_Add</text>
</a>
</g>
</g>
<!-- Node29&#45;&gt;Node30 -->
<g id="edge33" class="edge"><title>Node29&#45;&gt;Node30</title>
<path fill="none" stroke="midnightblue" d="M865.039,-73.0384C875.664,-72.9857 886.568,-72.9316 897.258,-72.8785"/>
<polygon fill="midnightblue" stroke="midnightblue" points="897.443,-76.3778 907.425,-72.8281 897.408,-69.3779 897.443,-76.3778"/>
</g>
<!-- Node31 -->
<g id="node31" class="node"><title>Node31</title>
<g id="a_node31"><a xlink:href="../../d1/d6a/lib_2warpzone_2common_8qc.html#a2604ee52b90450a5de9a19d30aa8373f" target="_top" xlink:title="WarpZone_Accumulator\l_AddTransform">
<polygon fill="none" stroke="black" points="1123.5,-56.4481 1123.5,-86.4481 1254.5,-86.4481 1254.5,-56.4481 1123.5,-56.4481"/>
<text text-anchor="start" x="1131.5" y="-74.4481" font-family="Helvetica,sans-Serif" font-size="10.00">WarpZone_Accumulator</text>
<text text-anchor="middle" x="1189" y="-63.4481" font-family="Helvetica,sans-Serif" font-size="10.00">_AddTransform</text>
</a>
</g>
</g>
<!-- Node30&#45;&gt;Node31 -->
<g id="edge34" class="edge"><title>Node30&#45;&gt;Node31</title>
<path fill="none" stroke="midnightblue" d="M1062.66,-72.0686C1079.2,-71.9867 1096.67,-71.9002 1113.15,-71.8186"/>
<polygon fill="midnightblue" stroke="midnightblue" points="1113.27,-75.3181 1123.26,-71.7686 1113.24,-68.3182 1113.27,-75.3181"/>
</g>
<!-- Node31&#45;&gt;Node22 -->
<g id="edge35" class="edge"><title>Node31&#45;&gt;Node22</title>
<path fill="none" stroke="midnightblue" d="M1241.5,-86.4733C1252.27,-90.592 1263.3,-95.576 1273,-101.448 1291.57,-112.689 1288.89,-126.288 1309,-134.448 1421.58,-180.124 1570.82,-156.336 1635.87,-142.314"/>
<polygon fill="midnightblue" stroke="midnightblue" points="1636.92,-145.665 1645.93,-140.077 1635.4,-138.832 1636.92,-145.665"/>
</g>
<!-- Node32 -->
<g id="node32" class="node"><title>Node32</title>
<g id="a_node32"><a xlink:href="../../df/d13/anglestransform_8qc.html#ac06d70078794b4df23a48f86b7aabf21" target="_top" xlink:title="AnglesTransform_Multiply">
<polygon fill="none" stroke="black" points="1309,-105.948 1309,-124.948 1446,-124.948 1446,-105.948 1309,-105.948"/>
<text text-anchor="middle" x="1377.5" y="-112.948" font-family="Helvetica,sans-Serif" font-size="10.00">AnglesTransform_Multiply</text>
</a>
</g>
</g>
<!-- Node31&#45;&gt;Node32 -->
<g id="edge36" class="edge"><title>Node31&#45;&gt;Node32</title>
<path fill="none" stroke="midnightblue" d="M1253.66,-86.4673C1277.36,-92.0589 1303.91,-98.3216 1326.24,-103.591"/>
<polygon fill="midnightblue" stroke="midnightblue" points="1325.64,-107.046 1336.18,-105.936 1327.25,-100.233 1325.64,-107.046"/>
</g>
<!-- Node34 -->
<g id="node34" class="node"><title>Node34</title>
<g id="a_node34"><a xlink:href="../../df/d13/anglestransform_8qc.html#a0fdbb008cb55b09916473e7c05b0dfcc" target="_top" xlink:title="AnglesTransform_Multiply\l_GetPostShift">
<polygon fill="none" stroke="black" points="1309,-56.4481 1309,-86.4481 1446,-86.4481 1446,-56.4481 1309,-56.4481"/>
<text text-anchor="start" x="1317" y="-74.4481" font-family="Helvetica,sans-Serif" font-size="10.00">AnglesTransform_Multiply</text>
<text text-anchor="middle" x="1377.5" y="-63.4481" font-family="Helvetica,sans-Serif" font-size="10.00">_GetPostShift</text>
</a>
</g>
</g>
<!-- Node31&#45;&gt;Node34 -->
<g id="edge40" class="edge"><title>Node31&#45;&gt;Node34</title>
<path fill="none" stroke="midnightblue" d="M1254.71,-71.4481C1268.89,-71.4481 1284.06,-71.4481 1298.7,-71.4481"/>
<polygon fill="midnightblue" stroke="midnightblue" points="1298.74,-74.9482 1308.74,-71.4481 1298.74,-67.9482 1298.74,-74.9482"/>
</g>
<!-- Node32&#45;&gt;Node22 -->
<g id="edge37" class="edge"><title>Node32&#45;&gt;Node22</title>
<path fill="none" stroke="midnightblue" d="M1446.13,-119.879C1505.63,-123.777 1589.71,-129.286 1635.55,-132.289"/>
<polygon fill="midnightblue" stroke="midnightblue" points="1635.6,-135.8 1645.8,-132.961 1636.05,-128.815 1635.6,-135.8"/>
</g>
<!-- Node33 -->
<g id="node33" class="node"><title>Node33</title>
<g id="a_node33"><a xlink:href="../../df/d13/anglestransform_8qc.html#a6eef2b5d1dcd28a89fa2ab3146011775" target="_top" xlink:title="AnglesTransform_Apply">
<polygon fill="none" stroke="black" points="1482,-64.9481 1482,-83.9481 1610,-83.9481 1610,-64.9481 1482,-64.9481"/>
<text text-anchor="middle" x="1546" y="-71.9481" font-family="Helvetica,sans-Serif" font-size="10.00">AnglesTransform_Apply</text>
</a>
</g>
</g>
<!-- Node32&#45;&gt;Node33 -->
<g id="edge38" class="edge"><title>Node32&#45;&gt;Node33</title>
<path fill="none" stroke="midnightblue" d="M1417.12,-105.939C1440.78,-100.112 1471.27,-92.6039 1496.54,-86.3803"/>
<polygon fill="midnightblue" stroke="midnightblue" points="1497.43,-89.7663 1506.3,-83.9767 1495.76,-82.9693 1497.43,-89.7663"/>
</g>
<!-- Node33&#45;&gt;Node22 -->
<g id="edge39" class="edge"><title>Node33&#45;&gt;Node22</title>
<path fill="none" stroke="midnightblue" d="M1570.91,-83.9765C1582.8,-88.8955 1597.31,-95.171 1610,-101.448 1621.2,-106.988 1633.28,-113.675 1643.54,-119.576"/>
<polygon fill="midnightblue" stroke="midnightblue" points="1641.96,-122.709 1652.36,-124.719 1645.49,-116.661 1641.96,-122.709"/>
</g>
<!-- Node34&#45;&gt;Node33 -->
<g id="edge41" class="edge"><title>Node34&#45;&gt;Node33</title>
<path fill="none" stroke="midnightblue" d="M1446.22,-72.6683C1454.61,-72.8194 1463.21,-72.9744 1471.67,-73.1269"/>
<polygon fill="midnightblue" stroke="midnightblue" points="1471.84,-76.6304 1481.91,-73.3112 1471.97,-69.6315 1471.84,-76.6304"/>
</g>
<!-- Node35&#45;&gt;Node33 -->
<g id="edge43" class="edge"><title>Node35&#45;&gt;Node33</title>
<path fill="none" stroke="midnightblue" d="M1262.21,-28.9301C1313.76,-30.9289 1384.56,-35.5937 1446,-46.4481 1466.48,-50.0662 1488.81,-56.1855 1507.07,-61.7822"/>
<polygon fill="midnightblue" stroke="midnightblue" points="1506.17,-65.1678 1516.76,-64.8186 1508.26,-58.4881 1506.17,-65.1678"/>
</g>
</g>
</svg>
        <g id="navigator" transform="translate(0 0)" fill="#404254">
                <rect fill="#f2f5e9" fill-opacity="0.5" stroke="#606060" stroke-width=".5" x="0" y="0" width="60" height="60"/>
                <use id="zoomplus" xlink:href="#zoomPlus" x="17" y="9" onmousedown="handleZoom(evt,'in')"/>
                <use id="zoomminus" xlink:href="#zoomMin" x="42" y="9" onmousedown="handleZoom(evt,'out')"/>
                <use id="reset" xlink:href="#resetDef" x="30" y="36" onmousedown="handleReset()"/>
                <g id="arrowUp" xlink:href="#dirArrow" transform="translate(30 24)" onmousedown="handlePan(0,-1)">
                  <use xlink:href="#rim" fill="#404040">
                        <set attributeName="fill" to="#808080" begin="arrowUp.mouseover" end="arrowUp.mouseout"/>
                  </use>
                  <path fill="none" stroke="white" stroke-width="1.5" d="M0,-3.0v7 M-2.5,-0.5L0,-3.0L2.5,-0.5"/>
                </g>
                <g id="arrowRight" xlink:href="#dirArrow" transform="rotate(90) translate(36 -43)" onmousedown="handlePan(1,0)">
                  <use xlink:href="#rim" fill="#404040">
                        <set attributeName="fill" to="#808080" begin="arrowRight.mouseover" end="arrowRight.mouseout"/>
                  </use>
                  <path fill="none" stroke="white" stroke-width="1.5" d="M0,-3.0v7 M-2.5,-0.5L0,-3.0L2.5,-0.5"/>
                </g>
                <g id="arrowDown" xlink:href="#dirArrow" transform="rotate(180) translate(-30 -48)" onmousedown="handlePan(0,1)">
                  <use xlink:href="#rim" fill="#404040">
                        <set attributeName="fill" to="#808080" begin="arrowDown.mouseover" end="arrowDown.mouseout"/>
                  </use>
                  <path fill="none" stroke="white" stroke-width="1.5" d="M0,-3.0v7 M-2.5,-0.5L0,-3.0L2.5,-0.5"/>
                </g>
                <g id="arrowLeft" xlink:href="#dirArrow" transform="rotate(270) translate(-36 17)" onmousedown="handlePan(-1,0)">
                  <use xlink:href="#rim" fill="#404040">
                        <set attributeName="fill" to="#808080" begin="arrowLeft.mouseover" end="arrowLeft.mouseout"/>
                  </use>
                  <path fill="none" stroke="white" stroke-width="1.5" d="M0,-3.0v7 M-2.5,-0.5L0,-3.0L2.5,-0.5"/>
                </g>
        </g>
        <svg viewBox="0 0 15 15" width="100%" height="30px" preserveAspectRatio="xMaxYMin meet">
         <g id="arrow_out" transform="scale(0.3 0.3)">
          <a xlink:href="sv__sandbox_8qc_a157f5d252029765e65ab2d85e2bad7a7_cgraph_org.svg" target="_base">
           <rect id="button" ry="5" rx="5" y="6" x="6" height="38" width="38"
                fill="#f2f5e9" fill-opacity="0.5" stroke="#606060" stroke-width="1.0"/>
           <path id="arrow"
             d="M 11.500037,31.436501 C 11.940474,20.09759 22.043105,11.32322 32.158766,21.979434 L 37.068811,17.246167 C 37.068811,17.246167 37.088388,32 37.088388,32 L 22.160133,31.978069 C 22.160133,31.978069 26.997745,27.140456 26.997745,27.140456 C 18.528582,18.264221 13.291696,25.230495 11.500037,31.436501 z"
             style="fill:#404040;"/>
          </a>
         </g>
        </svg>
</svg>
