<?xml version="1.0" encoding="UTF-8" standalone="no"?>
<!DOCTYPE svg PUBLIC "-//W3C//DTD SVG 1.1//EN"
 "http://www.w3.org/Graphics/SVG/1.1/DTD/svg11.dtd">
<!-- Generated by graphviz version 2.38.0 (20140413.2041)
 -->
<!-- Title: STATIC_INIT Pages: 1 -->
<svg width="214pt" height="66pt"
 viewBox="0.00 0.00 214.00 66.00" xmlns="http://www.w3.org/2000/svg" xmlns:xlink="http://www.w3.org/1999/xlink">
<g id="graph0" class="graph" transform="scale(1 1) rotate(0) translate(4 62)">
<title>STATIC_INIT</title>
<!-- Node1 -->
<g id="node1" class="node"><title>Node1</title>
<polygon fill="#bfbfbf" stroke="black" points="0,-19.5 0,-38.5 71,-38.5 71,-19.5 0,-19.5"/>
<text text-anchor="middle" x="35.5" y="-26.5" font-family="Helvetica,sans-Serif" font-size="10.00">STATIC_INIT</text>
</g>
<!-- Node2 -->
<g id="node2" class="node"><title>Node2</title>
<g id="a_node2"><a xlink:href="../../d4/d0c/csprogsdefs_8qc.html#acbb54a239d76062465dccbc6a6c6e464" target="_top" xlink:title="entity">
<polygon fill="none" stroke="black" points="134.5,-38.5 134.5,-57.5 178.5,-57.5 178.5,-38.5 134.5,-38.5"/>
<text text-anchor="middle" x="156.5" y="-45.5" font-family="Helvetica,sans-Serif" font-size="10.00">entity</text>
</a>
</g>
</g>
<!-- Node1&#45;&gt;Node2 -->
<g id="edge1" class="edge"><title>Node1&#45;&gt;Node2</title>
<path fill="none" stroke="midnightblue" d="M71.2396,-34.5467C88.0097,-37.2242 107.974,-40.4118 124.259,-43.012"/>
<polygon fill="midnightblue" stroke="midnightblue" points="123.932,-46.504 134.359,-44.6246 125.036,-39.5916 123.932,-46.504"/>
</g>
<!-- Node3 -->
<g id="node3" class="node"><title>Node3</title>
<g id="a_node3"><a xlink:href="../../da/dc3/common_2scores_8qh.html#a7e1c9f8eb4ea61b96450dd9146770ac8" target="_top" xlink:title="REGISTRY_CHECK">
<polygon fill="none" stroke="black" points="107,-0.5 107,-19.5 206,-19.5 206,-0.5 107,-0.5"/>
<text text-anchor="middle" x="156.5" y="-7.5" font-family="Helvetica,sans-Serif" font-size="10.00">REGISTRY_CHECK</text>
</a>
</g>
</g>
<!-- Node1&#45;&gt;Node3 -->
<g id="edge2" class="edge"><title>Node1&#45;&gt;Node3</title>
<path fill="none" stroke="midnightblue" d="M71.2396,-23.4533C79.2275,-22.178 87.9401,-20.7869 96.6346,-19.3987"/>
<polygon fill="midnightblue" stroke="midnightblue" points="97.4653,-22.8105 106.788,-17.7775 96.3615,-15.898 97.4653,-22.8105"/>
</g>
</g>
</svg>
