<?xml version="1.0" encoding="UTF-8" standalone="no"?>
<!DOCTYPE svg PUBLIC "-//W3C//DTD SVG 1.1//EN"
 "http://www.w3.org/Graphics/SVG/1.1/DTD/svg11.dtd">
<!-- Generated by graphviz version 2.36.0 (20140111.2315)
 -->
<!-- Title: LocalCommand_hud Pages: 1 -->
<svg width="736pt" height="902pt"
 viewBox="0.00 0.00 736.00 902.00" xmlns="http://www.w3.org/2000/svg" xmlns:xlink="http://www.w3.org/1999/xlink">
<g id="graph0" class="graph" transform="scale(1 1) rotate(0) translate(4 898)">
<title>LocalCommand_hud</title>
<!-- Node1 -->
<g id="node1" class="node"><title>Node1</title>
<polygon fill="#bfbfbf" stroke="black" points="0,-190.5 0,-209.5 106,-209.5 106,-190.5 0,-190.5"/>
<text text-anchor="middle" x="53" y="-197.5" font-family="Helvetica,sans-Serif" font-size="10.00">LocalCommand_hud</text>
</g>
<!-- Node2 -->
<g id="node2" class="node"><title>Node2</title>
<g id="a_node2"><a xlink:href="../../d8/de2/menudefs_8qc.html#ae3e9d36eda7886f5fe58e5201291dd78" target="_top" xlink:title="argv">
<polygon fill="none" stroke="black" points="387.5,-418.5 387.5,-437.5 422.5,-437.5 422.5,-418.5 387.5,-418.5"/>
<text text-anchor="middle" x="405" y="-425.5" font-family="Helvetica,sans-Serif" font-size="10.00">argv</text>
</a>
</g>
</g>
<!-- Node1&#45;&gt;Node2 -->
<g id="edge1" class="edge"><title>Node1&#45;&gt;Node2</title>
<path fill="none" stroke="midnightblue" d="M57.2673,-209.558C66.4545,-235.037 94.9562,-305.211 142,-343 213.897,-400.753 326.154,-419.73 377.162,-425.578"/>
<polygon fill="midnightblue" stroke="midnightblue" points="377.046,-429.085 387.36,-426.663 377.787,-422.125 377.046,-429.085"/>
</g>
<!-- Node3 -->
<g id="node3" class="node"><title>Node3</title>
<g id="a_node3"><a xlink:href="../../d4/d70/cl__cmd_8qh.html#adf7f5eaa29853b5a1c54e102c7b7a61e" target="_top" xlink:title="Cmd_HUD_Help">
<polygon fill="none" stroke="black" points="173.5,-114.5 173.5,-133.5 264.5,-133.5 264.5,-114.5 173.5,-114.5"/>
<text text-anchor="middle" x="219" y="-121.5" font-family="Helvetica,sans-Serif" font-size="10.00">Cmd_HUD_Help</text>
</a>
</g>
</g>
<!-- Node1&#45;&gt;Node3 -->
<g id="edge2" class="edge"><title>Node1&#45;&gt;Node3</title>
<path fill="none" stroke="midnightblue" d="M66.08,-190.304C82.3892,-177.669 112.784,-155.694 142,-143 148.775,-140.056 156.096,-137.507 163.427,-135.316"/>
<polygon fill="midnightblue" stroke="midnightblue" points="164.682,-138.6 173.378,-132.548 162.806,-131.856 164.682,-138.6"/>
</g>
<!-- Node4 -->
<g id="node4" class="node"><title>Node4</title>
<g id="a_node4"><a xlink:href="../../d4/d70/cl__cmd_8qh.html#a6765fbcd122dbbb2ae701a5451bff4d6" target="_top" xlink:title="Cmd_HUD_SetFields">
<polygon fill="none" stroke="black" points="163,-627.5 163,-646.5 275,-646.5 275,-627.5 163,-627.5"/>
<text text-anchor="middle" x="219" y="-634.5" font-family="Helvetica,sans-Serif" font-size="10.00">Cmd_HUD_SetFields</text>
</a>
</g>
</g>
<!-- Node1&#45;&gt;Node4 -->
<g id="edge3" class="edge"><title>Node1&#45;&gt;Node4</title>
<path fill="none" stroke="midnightblue" d="M56.3369,-209.544C65.3921,-246.005 99.77,-379.749 142,-485 161.95,-534.723 191.838,-590.385 207.526,-618.542"/>
<polygon fill="midnightblue" stroke="midnightblue" points="204.496,-620.294 212.444,-627.3 210.6,-616.867 204.496,-620.294"/>
</g>
<!-- Node20 -->
<g id="node20" class="node"><title>Node20</title>
<g id="a_node20"><a xlink:href="../../d8/de2/menudefs_8qc.html#a0b350379da8a7002dee40a3598bf33c3" target="_top" xlink:title="cvar_set">
<polygon fill="none" stroke="black" points="192,-76.5 192,-95.5 246,-95.5 246,-76.5 192,-76.5"/>
<text text-anchor="middle" x="219" y="-83.5" font-family="Helvetica,sans-Serif" font-size="10.00">cvar_set</text>
</a>
</g>
</g>
<!-- Node1&#45;&gt;Node20 -->
<g id="edge24" class="edge"><title>Node1&#45;&gt;Node20</title>
<path fill="none" stroke="midnightblue" d="M59.9865,-190.489C72.6397,-171.206 104.077,-127.439 142,-105 154.007,-97.8955 168.594,-93.4339 181.765,-90.6379"/>
<polygon fill="midnightblue" stroke="midnightblue" points="182.763,-94.0121 191.949,-88.7339 181.476,-87.1314 182.763,-94.0121"/>
</g>
<!-- Node21 -->
<g id="node21" class="node"><title>Node21</title>
<g id="a_node21"><a xlink:href="../../d8/de2/menudefs_8qc.html#abbb0d86741e0056b6c04f7280c185d76" target="_top" xlink:title="ftos">
<polygon fill="none" stroke="black" points="388.5,-380.5 388.5,-399.5 421.5,-399.5 421.5,-380.5 388.5,-380.5"/>
<text text-anchor="middle" x="405" y="-387.5" font-family="Helvetica,sans-Serif" font-size="10.00">ftos</text>
</a>
</g>
</g>
<!-- Node1&#45;&gt;Node21 -->
<g id="edge25" class="edge"><title>Node1&#45;&gt;Node21</title>
<path fill="none" stroke="midnightblue" d="M60.6595,-209.671C74.0522,-228.479 106.054,-270.299 142,-295 219.087,-347.973 329.153,-375.114 378.432,-385.23"/>
<polygon fill="midnightblue" stroke="midnightblue" points="377.771,-388.667 388.261,-387.185 379.136,-381.801 377.771,-388.667"/>
</g>
<!-- Node22 -->
<g id="node22" class="node"><title>Node22</title>
<g id="a_node22"><a xlink:href="../../dc/d90/hud__config_8qc.html#a22efbfe26e334ef2923e0ee491323829" target="_top" xlink:title="HUD_Panel_ExportCfg">
<polygon fill="none" stroke="black" points="159.5,-190.5 159.5,-209.5 278.5,-209.5 278.5,-190.5 159.5,-190.5"/>
<text text-anchor="middle" x="219" y="-197.5" font-family="Helvetica,sans-Serif" font-size="10.00">HUD_Panel_ExportCfg</text>
</a>
</g>
</g>
<!-- Node1&#45;&gt;Node22 -->
<g id="edge26" class="edge"><title>Node1&#45;&gt;Node22</title>
<path fill="none" stroke="midnightblue" d="M106.342,-200C119.919,-200 134.751,-200 149.041,-200"/>
<polygon fill="midnightblue" stroke="midnightblue" points="149.324,-203.5 159.324,-200 149.324,-196.5 149.324,-203.5"/>
</g>
<!-- Node25 -->
<g id="node25" class="node"><title>Node25</title>
<g id="a_node25"><a xlink:href="../../df/d8c/cl__cmd_8qc.html#a24215331902b6304b11f3a12541f150d" target="_top" xlink:title="HUD_Radar_Show_Maximized">
<polygon fill="none" stroke="black" points="142.5,-38.5 142.5,-57.5 295.5,-57.5 295.5,-38.5 142.5,-38.5"/>
<text text-anchor="middle" x="219" y="-45.5" font-family="Helvetica,sans-Serif" font-size="10.00">HUD_Radar_Show_Maximized</text>
</a>
</g>
</g>
<!-- Node1&#45;&gt;Node25 -->
<g id="edge30" class="edge"><title>Node1&#45;&gt;Node25</title>
<path fill="none" stroke="midnightblue" d="M57.5689,-190.17C67.107,-165.346 95.6617,-99.7762 142,-67 144.72,-65.0758 147.616,-63.3459 150.629,-61.7907"/>
<polygon fill="midnightblue" stroke="midnightblue" points="152.252,-64.8993 159.959,-57.6297 149.401,-58.5062 152.252,-64.8993"/>
</g>
<!-- Node26 -->
<g id="node26" class="node"><title>Node26</title>
<g id="a_node26"><a xlink:href="../../dd/d54/bool_8qh.html#a6418201b4a27aeb560c78a60191bc9fa" target="_top" xlink:title="InterpretBoolean">
<polygon fill="none" stroke="black" points="175,-456.5 175,-475.5 263,-475.5 263,-456.5 175,-456.5"/>
<text text-anchor="middle" x="219" y="-463.5" font-family="Helvetica,sans-Serif" font-size="10.00">InterpretBoolean</text>
</a>
</g>
</g>
<!-- Node1&#45;&gt;Node26 -->
<g id="edge31" class="edge"><title>Node1&#45;&gt;Node26</title>
<path fill="none" stroke="midnightblue" d="M55.4526,-209.664C60.9139,-243.046 82.9995,-355.169 142,-423 152.832,-435.454 168.197,-445.092 182.28,-452.057"/>
<polygon fill="midnightblue" stroke="midnightblue" points="181.209,-455.419 191.753,-456.454 184.156,-449.069 181.209,-455.419"/>
</g>
<!-- Node28 -->
<g id="node28" class="node"><title>Node28</title>
<g id="a_node28"><a xlink:href="../../df/d8c/cl__cmd_8qc.html#a842da1e1b814366ffd55d4096c8123c1" target="_top" xlink:title="QuickMenu_Close">
<polygon fill="none" stroke="black" points="170.5,-152.5 170.5,-171.5 267.5,-171.5 267.5,-152.5 170.5,-152.5"/>
<text text-anchor="middle" x="219" y="-159.5" font-family="Helvetica,sans-Serif" font-size="10.00">QuickMenu_Close</text>
</a>
</g>
</g>
<!-- Node1&#45;&gt;Node28 -->
<g id="edge34" class="edge"><title>Node1&#45;&gt;Node28</title>
<path fill="none" stroke="midnightblue" d="M95.3841,-190.411C117.123,-185.374 143.957,-179.156 166.975,-173.823"/>
<polygon fill="midnightblue" stroke="midnightblue" points="167.962,-177.187 176.913,-171.52 166.381,-170.368 167.962,-177.187"/>
</g>
<!-- Node31 -->
<g id="node31" class="node"><title>Node31</title>
<g id="a_node31"><a xlink:href="../../df/d8c/cl__cmd_8qc.html#a83c6625cfcd8716e5e481969fa957f6f" target="_top" xlink:title="QuickMenu_IsOpened">
<polygon fill="none" stroke="black" points="162.5,-0.5 162.5,-19.5 275.5,-19.5 275.5,-0.5 162.5,-0.5"/>
<text text-anchor="middle" x="219" y="-7.5" font-family="Helvetica,sans-Serif" font-size="10.00">QuickMenu_IsOpened</text>
</a>
</g>
</g>
<!-- Node1&#45;&gt;Node31 -->
<g id="edge39" class="edge"><title>Node1&#45;&gt;Node31</title>
<path fill="none" stroke="midnightblue" d="M55.9893,-190.479C62.5826,-161.385 86.5301,-72.9688 142,-29 145.357,-26.3388 149.039,-24.0448 152.915,-22.0679"/>
<polygon fill="midnightblue" stroke="midnightblue" points="154.475,-25.2063 162.248,-18.0073 151.682,-18.7874 154.475,-25.2063"/>
</g>
<!-- Node32 -->
<g id="node32" class="node"><title>Node32</title>
<g id="a_node32"><a xlink:href="../../df/d8c/cl__cmd_8qc.html#a01a144926d280170380a5da597e573dc" target="_top" xlink:title="QuickMenu_Open">
<polygon fill="none" stroke="black" points="171.5,-266.5 171.5,-285.5 266.5,-285.5 266.5,-266.5 171.5,-266.5"/>
<text text-anchor="middle" x="219" y="-273.5" font-family="Helvetica,sans-Serif" font-size="10.00">QuickMenu_Open</text>
</a>
</g>
</g>
<!-- Node1&#45;&gt;Node32 -->
<g id="edge40" class="edge"><title>Node1&#45;&gt;Node32</title>
<path fill="none" stroke="midnightblue" d="M74.7707,-209.625C103.483,-222.931 155.463,-247.02 188.281,-262.228"/>
<polygon fill="midnightblue" stroke="midnightblue" points="186.853,-265.424 197.398,-266.453 189.796,-259.072 186.853,-265.424"/>
</g>
<!-- Node4&#45;&gt;Node2 -->
<g id="edge6" class="edge"><title>Node4&#45;&gt;Node2</title>
<path fill="none" stroke="midnightblue" d="M224.471,-627.349C240.904,-592.26 298.726,-472.195 332,-447 345.021,-437.141 362.725,-432.385 377.319,-430.097"/>
<polygon fill="midnightblue" stroke="midnightblue" points="377.807,-433.564 387.285,-428.83 376.923,-426.62 377.807,-433.564"/>
</g>
<!-- Node5 -->
<g id="node5" class="node"><title>Node5</title>
<g id="a_node5"><a xlink:href="../../d8/de2/menudefs_8qc.html#ae06db7c87845d853670a09a1d487b1db" target="_top" xlink:title="strzone">
<polygon fill="none" stroke="black" points="380.5,-760.5 380.5,-779.5 429.5,-779.5 429.5,-760.5 380.5,-760.5"/>
<text text-anchor="middle" x="405" y="-767.5" font-family="Helvetica,sans-Serif" font-size="10.00">strzone</text>
</a>
</g>
</g>
<!-- Node4&#45;&gt;Node5 -->
<g id="edge4" class="edge"><title>Node4&#45;&gt;Node5</title>
<path fill="none" stroke="midnightblue" d="M226.61,-646.647C242.233,-668.689 283.774,-722.994 332,-751 343.616,-757.746 357.664,-762.146 370.256,-764.993"/>
<polygon fill="midnightblue" stroke="midnightblue" points="369.912,-768.493 380.406,-767.036 371.293,-761.631 369.912,-768.493"/>
</g>
<!-- Node6 -->
<g id="node6" class="node"><title>Node6</title>
<g id="a_node6"><a xlink:href="../../d8/de2/menudefs_8qc.html#ad76dc2b2895cd23f21e008f12a686158" target="_top" xlink:title="strcat">
<polygon fill="none" stroke="black" points="554.5,-437.5 554.5,-456.5 595.5,-456.5 595.5,-437.5 554.5,-437.5"/>
<text text-anchor="middle" x="575" y="-444.5" font-family="Helvetica,sans-Serif" font-size="10.00">strcat</text>
</a>
</g>
</g>
<!-- Node4&#45;&gt;Node6 -->
<g id="edge5" class="edge"><title>Node4&#45;&gt;Node6</title>
<path fill="none" stroke="midnightblue" d="M247.057,-627.476C269.678,-619.596 302.834,-608.239 332,-599 396.487,-578.573 420.962,-592.365 478,-556 515.355,-532.184 546.65,-489.724 562.611,-465.424"/>
<polygon fill="midnightblue" stroke="midnightblue" points="565.692,-467.102 568.135,-456.793 559.796,-463.329 565.692,-467.102"/>
</g>
<!-- Node7 -->
<g id="node7" class="node"><title>Node7</title>
<g id="a_node7"><a xlink:href="../../dc/d98/client_2miscfunctions_8qc.html#a885df1dd2a0efd39301d3593b307b9be" target="_top" xlink:title="HUD_GetFontsize">
<polygon fill="none" stroke="black" points="356,-836.5 356,-855.5 454,-855.5 454,-836.5 356,-836.5"/>
<text text-anchor="middle" x="405" y="-843.5" font-family="Helvetica,sans-Serif" font-size="10.00">HUD_GetFontsize</text>
</a>
</g>
</g>
<!-- Node4&#45;&gt;Node7 -->
<g id="edge7" class="edge"><title>Node4&#45;&gt;Node7</title>
<path fill="none" stroke="midnightblue" d="M222.78,-646.67C232.3,-677.999 266.672,-777.535 332,-827 336.38,-830.317 341.291,-833.056 346.434,-835.318"/>
<polygon fill="midnightblue" stroke="midnightblue" points="345.289,-838.627 355.881,-838.895 347.769,-832.08 345.289,-838.627"/>
</g>
<!-- Node10 -->
<g id="node10" class="node"><title>Node10</title>
<g id="a_node10"><a xlink:href="../../d8/de2/menudefs_8qc.html#a40f6c65c8bbcfa51df783f2809a2502b" target="_top" xlink:title="substring">
<polygon fill="none" stroke="black" points="672,-646.5 672,-665.5 728,-665.5 728,-646.5 672,-646.5"/>
<text text-anchor="middle" x="700" y="-653.5" font-family="Helvetica,sans-Serif" font-size="10.00">substring</text>
</a>
</g>
</g>
<!-- Node4&#45;&gt;Node10 -->
<g id="edge10" class="edge"><title>Node4&#45;&gt;Node10</title>
<path fill="none" stroke="midnightblue" d="M275.415,-639.198C374.132,-643.114 577.917,-651.197 661.739,-654.522"/>
<polygon fill="midnightblue" stroke="midnightblue" points="661.688,-658.023 671.819,-654.922 661.965,-651.028 661.688,-658.023"/>
</g>
<!-- Node11 -->
<g id="node11" class="node"><title>Node11</title>
<g id="a_node11"><a xlink:href="../../d8/de2/menudefs_8qc.html#a274680f571a231ddf29421b93d434bfa" target="_top" xlink:title="strlen">
<polygon fill="none" stroke="black" points="554.5,-684.5 554.5,-703.5 595.5,-703.5 595.5,-684.5 554.5,-684.5"/>
<text text-anchor="middle" x="575" y="-691.5" font-family="Helvetica,sans-Serif" font-size="10.00">strlen</text>
</a>
</g>
</g>
<!-- Node4&#45;&gt;Node11 -->
<g id="edge11" class="edge"><title>Node4&#45;&gt;Node11</title>
<path fill="none" stroke="midnightblue" d="M247.26,-646.597C269.722,-654.123 302.554,-664.255 332,-670 407.575,-684.746 498.293,-690.662 544.22,-692.846"/>
<polygon fill="midnightblue" stroke="midnightblue" points="544.224,-696.349 554.371,-693.301 544.538,-689.356 544.224,-696.349"/>
</g>
<!-- Node12 -->
<g id="node12" class="node"><title>Node12</title>
<g id="a_node12"><a xlink:href="../../da/d44/common_2util_8qc.html#aef670b7eea9c7a403702c3afa736c41a" target="_top" xlink:title="isGametypeInFilter">
<polygon fill="none" stroke="black" points="355.5,-722.5 355.5,-741.5 454.5,-741.5 454.5,-722.5 355.5,-722.5"/>
<text text-anchor="middle" x="405" y="-729.5" font-family="Helvetica,sans-Serif" font-size="10.00">isGametypeInFilter</text>
</a>
</g>
</g>
<!-- Node4&#45;&gt;Node12 -->
<g id="edge12" class="edge"><title>Node4&#45;&gt;Node12</title>
<path fill="none" stroke="midnightblue" d="M232.844,-646.618C253.063,-661.411 293.943,-689.926 332,-708 340.834,-712.195 350.597,-715.975 360.008,-719.228"/>
<polygon fill="midnightblue" stroke="midnightblue" points="359.042,-722.595 369.635,-722.422 361.246,-715.951 359.042,-722.595"/>
</g>
<!-- Node14 -->
<g id="node14" class="node"><title>Node14</title>
<g id="a_node14"><a xlink:href="../../d8/de2/menudefs_8qc.html#ab64c3a0e7d347975b8b7a5cd17ab0113" target="_top" xlink:title="strunzone">
<polygon fill="none" stroke="black" points="545.5,-76.5 545.5,-95.5 604.5,-95.5 604.5,-76.5 545.5,-76.5"/>
<text text-anchor="middle" x="575" y="-83.5" font-family="Helvetica,sans-Serif" font-size="10.00">strunzone</text>
</a>
</g>
</g>
<!-- Node4&#45;&gt;Node14 -->
<g id="edge17" class="edge"><title>Node4&#45;&gt;Node14</title>
<path fill="none" stroke="midnightblue" d="M230.209,-627.367C248.88,-610.295 290.448,-574.767 332,-556 392.629,-528.618 431.102,-570.183 478,-523 508.337,-492.479 558.087,-187.346 570.909,-105.897"/>
<polygon fill="midnightblue" stroke="midnightblue" points="574.438,-105.983 572.526,-95.5618 567.522,-104.9 574.438,-105.983"/>
</g>
<!-- Node15 -->
<g id="node15" class="node"><title>Node15</title>
<g id="a_node15"><a xlink:href="../../d3/d07/scoreboard_8qc.html#a85799dd1dce34699edbffd4e9500277a" target="_top" xlink:title="TranslateScoresLabel">
<polygon fill="none" stroke="black" points="349.5,-608.5 349.5,-627.5 460.5,-627.5 460.5,-608.5 349.5,-608.5"/>
<text text-anchor="middle" x="405" y="-615.5" font-family="Helvetica,sans-Serif" font-size="10.00">TranslateScoresLabel</text>
</a>
</g>
</g>
<!-- Node4&#45;&gt;Node15 -->
<g id="edge18" class="edge"><title>Node4&#45;&gt;Node15</title>
<path fill="none" stroke="midnightblue" d="M275.206,-631.299C295.401,-629.214 318.429,-626.836 339.374,-624.673"/>
<polygon fill="midnightblue" stroke="midnightblue" points="339.879,-628.14 349.467,-623.631 339.16,-621.177 339.879,-628.14"/>
</g>
<!-- Node17 -->
<g id="node17" class="node"><title>Node17</title>
<g id="a_node17"><a xlink:href="../../dc/d98/client_2miscfunctions_8qc.html#aac033ec101163a655b47a24ceb78bad5" target="_top" xlink:title="stringwidth">
<polygon fill="none" stroke="black" points="373,-798.5 373,-817.5 437,-817.5 437,-798.5 373,-798.5"/>
<text text-anchor="middle" x="405" y="-805.5" font-family="Helvetica,sans-Serif" font-size="10.00">stringwidth</text>
</a>
</g>
</g>
<!-- Node4&#45;&gt;Node17 -->
<g id="edge21" class="edge"><title>Node4&#45;&gt;Node17</title>
<path fill="none" stroke="midnightblue" d="M224.21,-646.595C236.544,-673.55 275.338,-750.494 332,-789 341.075,-795.167 352.047,-799.334 362.66,-802.148"/>
<polygon fill="midnightblue" stroke="midnightblue" points="362.122,-805.616 372.653,-804.453 363.695,-798.795 362.122,-805.616"/>
</g>
<!-- Node19 -->
<g id="node19" class="node"><title>Node19</title>
<g id="a_node19"><a xlink:href="../../d5/df2/common_2util_8qh.html#a80c7379e4891614cbb9013c11eeb5d5a" target="_top" xlink:title="strtolower">
<polygon fill="none" stroke="black" points="375.5,-494.5 375.5,-513.5 434.5,-513.5 434.5,-494.5 375.5,-494.5"/>
<text text-anchor="middle" x="405" y="-501.5" font-family="Helvetica,sans-Serif" font-size="10.00">strtolower</text>
</a>
</g>
</g>
<!-- Node4&#45;&gt;Node19 -->
<g id="edge23" class="edge"><title>Node4&#45;&gt;Node19</title>
<path fill="none" stroke="midnightblue" d="M227.325,-627.37C243.784,-606.366 285.878,-556.074 332,-528 342.272,-521.747 354.371,-516.903 365.689,-513.257"/>
<polygon fill="midnightblue" stroke="midnightblue" points="366.793,-516.58 375.368,-510.356 364.784,-509.874 366.793,-516.58"/>
</g>
<!-- Node8 -->
<g id="node8" class="node"><title>Node8</title>
<g id="a_node8"><a xlink:href="../../d8/de2/menudefs_8qc.html#a65fcee980f5a018b481188a84ead405f" target="_top" xlink:title="stov">
<polygon fill="none" stroke="black" points="557.5,-874.5 557.5,-893.5 592.5,-893.5 592.5,-874.5 557.5,-874.5"/>
<text text-anchor="middle" x="575" y="-881.5" font-family="Helvetica,sans-Serif" font-size="10.00">stov</text>
</a>
</g>
</g>
<!-- Node7&#45;&gt;Node8 -->
<g id="edge8" class="edge"><title>Node7&#45;&gt;Node8</title>
<path fill="none" stroke="midnightblue" d="M448.393,-855.589C479.491,-862.623 520.767,-871.959 547.36,-877.974"/>
<polygon fill="midnightblue" stroke="midnightblue" points="546.925,-881.464 557.451,-880.257 548.47,-874.637 546.925,-881.464"/>
</g>
<!-- Node9 -->
<g id="node9" class="node"><title>Node9</title>
<g id="a_node9"><a xlink:href="../../d8/de2/menudefs_8qc.html#a6f8c7ef6ee4a4d851aaa5fd1789eab9a" target="_top" xlink:title="cvar_string">
<polygon fill="none" stroke="black" points="542.5,-836.5 542.5,-855.5 607.5,-855.5 607.5,-836.5 542.5,-836.5"/>
<text text-anchor="middle" x="575" y="-843.5" font-family="Helvetica,sans-Serif" font-size="10.00">cvar_string</text>
</a>
</g>
</g>
<!-- Node7&#45;&gt;Node9 -->
<g id="edge9" class="edge"><title>Node7&#45;&gt;Node9</title>
<path fill="none" stroke="midnightblue" d="M454.142,-846C478.805,-846 508.545,-846 532.23,-846"/>
<polygon fill="midnightblue" stroke="midnightblue" points="532.311,-849.5 542.311,-846 532.311,-842.5 532.311,-849.5"/>
</g>
<!-- Node12&#45;&gt;Node6 -->
<g id="edge13" class="edge"><title>Node12&#45;&gt;Node6</title>
<path fill="none" stroke="midnightblue" d="M414.18,-722.438C428.223,-705.766 457.393,-670.001 478,-637 515.253,-577.341 550.173,-501.379 565.64,-466.325"/>
<polygon fill="midnightblue" stroke="midnightblue" points="568.996,-467.387 569.797,-456.823 562.582,-464.582 568.996,-467.387"/>
</g>
<!-- Node12&#45;&gt;Node10 -->
<g id="edge15" class="edge"><title>Node12&#45;&gt;Node10</title>
<path fill="none" stroke="midnightblue" d="M454.863,-736.794C502.979,-739.526 577.547,-738.331 636,-713 655.761,-704.436 673.475,-687.098 685.049,-673.781"/>
<polygon fill="midnightblue" stroke="midnightblue" points="688.029,-675.671 691.727,-665.743 682.645,-671.198 688.029,-675.671"/>
</g>
<!-- Node12&#45;&gt;Node11 -->
<g id="edge16" class="edge"><title>Node12&#45;&gt;Node11</title>
<path fill="none" stroke="midnightblue" d="M448.393,-722.411C478.428,-715.617 517.957,-706.676 544.582,-700.654"/>
<polygon fill="midnightblue" stroke="midnightblue" points="545.47,-704.042 554.451,-698.422 543.925,-697.214 545.47,-704.042"/>
</g>
<!-- Node13 -->
<g id="node13" class="node"><title>Node13</title>
<g id="a_node13"><a xlink:href="../../d3/d46/mapinfo_8qc.html#a2e14ca300b05c38e142969284e000b8f" target="_top" xlink:title="MapInfo_Type_ToString">
<polygon fill="none" stroke="black" points="514.5,-760.5 514.5,-779.5 635.5,-779.5 635.5,-760.5 514.5,-760.5"/>
<text text-anchor="middle" x="575" y="-767.5" font-family="Helvetica,sans-Serif" font-size="10.00">MapInfo_Type_ToString</text>
</a>
</g>
</g>
<!-- Node12&#45;&gt;Node13 -->
<g id="edge14" class="edge"><title>Node12&#45;&gt;Node13</title>
<path fill="none" stroke="midnightblue" d="M448.393,-741.589C470.763,-746.649 498.398,-752.9 522.047,-758.249"/>
<polygon fill="midnightblue" stroke="midnightblue" points="521.386,-761.687 531.911,-760.48 522.93,-754.86 521.386,-761.687"/>
</g>
<!-- Node16 -->
<g id="node16" class="node"><title>Node16</title>
<g id="a_node16"><a xlink:href="../../d0/dfe/i18n_8qh.html#abcf7db15e6409570dd31f785c782cd0b" target="_top" xlink:title="CTX">
<polygon fill="none" stroke="black" points="556.5,-608.5 556.5,-627.5 593.5,-627.5 593.5,-608.5 556.5,-608.5"/>
<text text-anchor="middle" x="575" y="-615.5" font-family="Helvetica,sans-Serif" font-size="10.00">CTX</text>
</a>
</g>
</g>
<!-- Node15&#45;&gt;Node16 -->
<g id="edge19" class="edge"><title>Node15&#45;&gt;Node16</title>
<path fill="none" stroke="midnightblue" d="M460.545,-618C489.163,-618 523.004,-618 546.234,-618"/>
<polygon fill="midnightblue" stroke="midnightblue" points="546.409,-621.5 556.409,-618 546.409,-614.5 546.409,-621.5"/>
</g>
<!-- Node16&#45;&gt;Node10 -->
<g id="edge20" class="edge"><title>Node16&#45;&gt;Node10</title>
<path fill="none" stroke="midnightblue" d="M593.623,-623.444C611.445,-628.951 639.525,-637.626 662.218,-644.637"/>
<polygon fill="midnightblue" stroke="midnightblue" points="661.301,-648.016 671.888,-647.624 663.367,-641.328 661.301,-648.016"/>
</g>
<!-- Node18 -->
<g id="node18" class="node"><title>Node18</title>
<g id="a_node18"><a xlink:href="../../d4/d0c/csprogsdefs_8qc.html#a0f275977f6aa5a693742a397723991d0" target="_top" xlink:title="stringwidth_builtin">
<polygon fill="none" stroke="black" points="527.5,-798.5 527.5,-817.5 622.5,-817.5 622.5,-798.5 527.5,-798.5"/>
<text text-anchor="middle" x="575" y="-805.5" font-family="Helvetica,sans-Serif" font-size="10.00">stringwidth_builtin</text>
</a>
</g>
</g>
<!-- Node17&#45;&gt;Node18 -->
<g id="edge22" class="edge"><title>Node17&#45;&gt;Node18</title>
<path fill="none" stroke="midnightblue" d="M437.206,-808C459.672,-808 490.61,-808 517.382,-808"/>
<polygon fill="midnightblue" stroke="midnightblue" points="517.413,-811.5 527.413,-808 517.413,-804.5 517.413,-811.5"/>
</g>
<!-- Node22&#45;&gt;Node6 -->
<g id="edge27" class="edge"><title>Node22&#45;&gt;Node6</title>
<path fill="none" stroke="midnightblue" d="M274.24,-190.495C281.825,-188.021 289.306,-184.91 296,-181 316.088,-169.265 310.629,-152.192 332,-143 391.609,-117.36 425.662,-104.642 478,-143 525.594,-177.881 560.505,-365.559 570.842,-427.299"/>
<polygon fill="midnightblue" stroke="midnightblue" points="567.409,-427.995 572.483,-437.296 574.317,-426.861 567.409,-427.995"/>
</g>
<!-- Node23 -->
<g id="node23" class="node"><title>Node23</title>
<g id="a_node23"><a xlink:href="../../d8/de2/menudefs_8qc.html#a5231f4ff2813f7de782b67d25a9e4cf9" target="_top" xlink:title="fopen">
<polygon fill="none" stroke="black" points="384.5,-190.5 384.5,-209.5 425.5,-209.5 425.5,-190.5 384.5,-190.5"/>
<text text-anchor="middle" x="405" y="-197.5" font-family="Helvetica,sans-Serif" font-size="10.00">fopen</text>
</a>
</g>
</g>
<!-- Node22&#45;&gt;Node23 -->
<g id="edge28" class="edge"><title>Node22&#45;&gt;Node23</title>
<path fill="none" stroke="midnightblue" d="M278.725,-200C310.382,-200 348.114,-200 373.837,-200"/>
<polygon fill="midnightblue" stroke="midnightblue" points="374.074,-203.5 384.074,-200 374.074,-196.5 374.074,-203.5"/>
</g>
<!-- Node24 -->
<g id="node24" class="node"><title>Node24</title>
<g id="a_node24"><a xlink:href="../../d8/de2/menudefs_8qc.html#a1a78b46b9db5c0d6fcee5be7697afa09" target="_top" xlink:title="fclose">
<polygon fill="none" stroke="black" points="383.5,-152.5 383.5,-171.5 426.5,-171.5 426.5,-152.5 383.5,-152.5"/>
<text text-anchor="middle" x="405" y="-159.5" font-family="Helvetica,sans-Serif" font-size="10.00">fclose</text>
</a>
</g>
</g>
<!-- Node22&#45;&gt;Node24 -->
<g id="edge29" class="edge"><title>Node22&#45;&gt;Node24</title>
<path fill="none" stroke="midnightblue" d="M266.431,-190.411C299.807,-183.518 343.887,-174.415 373.05,-168.392"/>
<polygon fill="midnightblue" stroke="midnightblue" points="373.987,-171.772 383.072,-166.322 372.571,-164.917 373.987,-171.772"/>
</g>
<!-- Node26&#45;&gt;Node19 -->
<g id="edge32" class="edge"><title>Node26&#45;&gt;Node19</title>
<path fill="none" stroke="midnightblue" d="M263.14,-474.909C294.116,-481.306 335.502,-489.854 365.39,-496.026"/>
<polygon fill="midnightblue" stroke="midnightblue" points="364.946,-499.508 375.447,-498.103 366.362,-492.653 364.946,-499.508"/>
</g>
<!-- Node27 -->
<g id="node27" class="node"><title>Node27</title>
<g id="a_node27"><a xlink:href="../../d8/de2/menudefs_8qc.html#a2f6d3020689c0e872cfb455d0b2cbd4a" target="_top" xlink:title="stof">
<polygon fill="none" stroke="black" points="388.5,-456.5 388.5,-475.5 421.5,-475.5 421.5,-456.5 388.5,-456.5"/>
<text text-anchor="middle" x="405" y="-463.5" font-family="Helvetica,sans-Serif" font-size="10.00">stof</text>
</a>
</g>
</g>
<!-- Node26&#45;&gt;Node27 -->
<g id="edge33" class="edge"><title>Node26&#45;&gt;Node27</title>
<path fill="none" stroke="midnightblue" d="M263.14,-466C298.9,-466 348.534,-466 378.336,-466"/>
<polygon fill="midnightblue" stroke="midnightblue" points="378.356,-469.5 388.356,-466 378.356,-462.5 378.356,-469.5"/>
</g>
<!-- Node28&#45;&gt;Node14 -->
<g id="edge35" class="edge"><title>Node28&#45;&gt;Node14</title>
<path fill="none" stroke="midnightblue" d="M267.58,-153.963C277.319,-151.269 287.256,-147.703 296,-143 315.116,-132.719 312.185,-118.858 332,-110 398.611,-80.2215 485.573,-79.711 535.053,-82.5232"/>
<polygon fill="midnightblue" stroke="midnightblue" points="535.111,-86.0342 545.316,-83.1856 535.562,-79.0487 535.111,-86.0342"/>
</g>
<!-- Node29 -->
<g id="node29" class="node"><title>Node29</title>
<g id="a_node29"><a xlink:href="../../d8/d19/quickmenu_8qc.html#a46816c6fc535c6a13921c56e85c3ac25" target="_top" xlink:title="QuickMenu_Page_ClearEntry">
<polygon fill="none" stroke="black" points="332,-38.5 332,-57.5 478,-57.5 478,-38.5 332,-38.5"/>
<text text-anchor="middle" x="405" y="-45.5" font-family="Helvetica,sans-Serif" font-size="10.00">QuickMenu_Page_ClearEntry</text>
</a>
</g>
</g>
<!-- Node28&#45;&gt;Node29 -->
<g id="edge36" class="edge"><title>Node28&#45;&gt;Node29</title>
<path fill="none" stroke="midnightblue" d="M267.501,-156.7C277.675,-153.851 287.813,-149.53 296,-143 323.66,-120.939 305.207,-95.1059 332,-72 336.78,-67.8776 342.293,-64.4577 348.096,-61.6216"/>
<polygon fill="midnightblue" stroke="midnightblue" points="349.585,-64.7914 357.391,-57.6285 346.822,-58.3597 349.585,-64.7914"/>
</g>
<!-- Node30 -->
<g id="node30" class="node"><title>Node30</title>
<g id="a_node30"><a xlink:href="../../d8/d19/quickmenu_8qc.html#a769c8216135812ab340851b5b064775d" target="_top" xlink:title="QuickMenu_Buffer_Close">
<polygon fill="none" stroke="black" points="341,-0.5 341,-19.5 469,-19.5 469,-0.5 341,-0.5"/>
<text text-anchor="middle" x="405" y="-7.5" font-family="Helvetica,sans-Serif" font-size="10.00">QuickMenu_Buffer_Close</text>
</a>
</g>
</g>
<!-- Node28&#45;&gt;Node30 -->
<g id="edge38" class="edge"><title>Node28&#45;&gt;Node30</title>
<path fill="none" stroke="midnightblue" d="M267.532,-157.87C277.942,-154.99 288.175,-150.363 296,-143 334.697,-106.591 293.541,-65.6607 332,-29 333.509,-27.5616 335.113,-26.2291 336.795,-24.9948"/>
<polygon fill="midnightblue" stroke="midnightblue" points="338.997,-27.755 345.768,-19.606 335.394,-21.754 338.997,-27.755"/>
</g>
<!-- Node29&#45;&gt;Node14 -->
<g id="edge37" class="edge"><title>Node29&#45;&gt;Node14</title>
<path fill="none" stroke="midnightblue" d="M448.393,-57.589C475.167,-63.645 509.486,-71.4074 535.483,-77.2877"/>
<polygon fill="midnightblue" stroke="midnightblue" points="534.833,-80.729 545.358,-79.5215 536.377,-73.9015 534.833,-80.729"/>
</g>
<!-- Node32&#45;&gt;Node2 -->
<g id="edge46" class="edge"><title>Node32&#45;&gt;Node2</title>
<path fill="none" stroke="midnightblue" d="M225.339,-285.791C239.348,-310.524 279.716,-375.895 332,-409 345.578,-417.597 362.947,-422.325 377.224,-424.914"/>
<polygon fill="midnightblue" stroke="midnightblue" points="377.004,-428.422 387.424,-426.506 378.083,-421.506 377.004,-428.422"/>
</g>
<!-- Node32&#45;&gt;Node6 -->
<g id="edge47" class="edge"><title>Node32&#45;&gt;Node6</title>
<path fill="none" stroke="midnightblue" d="M266.593,-284.611C335.922,-297.677 460.045,-322.135 478,-333 517.455,-356.875 548.504,-402.763 563.728,-428.44"/>
<polygon fill="midnightblue" stroke="midnightblue" points="560.75,-430.283 568.772,-437.203 566.817,-426.791 560.75,-430.283"/>
</g>
<!-- Node32&#45;&gt;Node21 -->
<g id="edge48" class="edge"><title>Node32&#45;&gt;Node21</title>
<path fill="none" stroke="midnightblue" d="M242.675,-285.51C258.764,-293.005 280.216,-304.586 296,-319 316.756,-337.955 308.987,-354.86 332,-371 345.627,-380.557 363.759,-385.307 378.417,-387.668"/>
<polygon fill="midnightblue" stroke="midnightblue" points="377.987,-391.141 388.363,-388.999 378.916,-384.203 377.987,-391.141"/>
</g>
<!-- Node32&#45;&gt;Node23 -->
<g id="edge41" class="edge"><title>Node32&#45;&gt;Node23</title>
<path fill="none" stroke="midnightblue" d="M236.194,-266.366C257.536,-254 296.53,-232.529 332,-219 345.63,-213.801 361.232,-209.494 374.42,-206.303"/>
<polygon fill="midnightblue" stroke="midnightblue" points="375.446,-209.658 384.396,-203.987 373.863,-202.839 375.446,-209.658"/>
</g>
<!-- Node32&#45;&gt;Node24 -->
<g id="edge44" class="edge"><title>Node32&#45;&gt;Node24</title>
<path fill="none" stroke="midnightblue" d="M234.281,-266.377C249.985,-255.552 275.684,-237.106 296,-219 313.368,-203.521 311.989,-192.865 332,-181 344.46,-173.612 359.805,-169.052 373.124,-166.259"/>
<polygon fill="midnightblue" stroke="midnightblue" points="374.082,-169.641 383.277,-164.378 372.806,-162.758 374.082,-169.641"/>
</g>
<!-- Node33 -->
<g id="node33" class="node"><title>Node33</title>
<g id="a_node33"><a xlink:href="../../d8/d19/quickmenu_8qc.html#a5aab176f14a9a4bdb3dd6edae97b1ec3" target="_top" xlink:title="QuickMenu_Default">
<polygon fill="none" stroke="black" points="353.5,-342.5 353.5,-361.5 456.5,-361.5 456.5,-342.5 353.5,-342.5"/>
<text text-anchor="middle" x="405" y="-349.5" font-family="Helvetica,sans-Serif" font-size="10.00">QuickMenu_Default</text>
</a>
</g>
</g>
<!-- Node32&#45;&gt;Node33 -->
<g id="edge42" class="edge"><title>Node32&#45;&gt;Node33</title>
<path fill="none" stroke="midnightblue" d="M239.134,-285.691C261.204,-296.679 298.729,-314.78 332,-328 342.022,-331.982 352.995,-335.871 363.286,-339.319"/>
<polygon fill="midnightblue" stroke="midnightblue" points="362.298,-342.679 372.891,-342.479 364.486,-336.029 362.298,-342.679"/>
</g>
<!-- Node34 -->
<g id="node34" class="node"><title>Node34</title>
<g id="a_node34"><a xlink:href="../../d8/de2/menudefs_8qc.html#a0e7ecefd4e3af6c242077b24445e5f78" target="_top" xlink:title="fgets">
<polygon fill="none" stroke="black" points="386,-266.5 386,-285.5 424,-285.5 424,-266.5 386,-266.5"/>
<text text-anchor="middle" x="405" y="-273.5" font-family="Helvetica,sans-Serif" font-size="10.00">fgets</text>
</a>
</g>
</g>
<!-- Node32&#45;&gt;Node34 -->
<g id="edge45" class="edge"><title>Node32&#45;&gt;Node34</title>
<path fill="none" stroke="midnightblue" d="M266.907,-276C301.273,-276 346.792,-276 375.745,-276"/>
<polygon fill="midnightblue" stroke="midnightblue" points="375.972,-279.5 385.972,-276 375.972,-272.5 375.972,-279.5"/>
</g>
<!-- Node35 -->
<g id="node35" class="node"><title>Node35</title>
<g id="a_node35"><a xlink:href="../../d8/d19/quickmenu_8qc.html#a4d9e61d6cf6645a6d311f996df3d4216" target="_top" xlink:title="QuickMenu_Page_Load">
<polygon fill="none" stroke="black" points="345,-228.5 345,-247.5 465,-247.5 465,-228.5 345,-228.5"/>
<text text-anchor="middle" x="405" y="-235.5" font-family="Helvetica,sans-Serif" font-size="10.00">QuickMenu_Page_Load</text>
</a>
</g>
</g>
<!-- Node32&#45;&gt;Node35 -->
<g id="edge49" class="edge"><title>Node32&#45;&gt;Node35</title>
<path fill="none" stroke="midnightblue" d="M266.431,-266.411C291.149,-261.306 321.739,-254.989 347.792,-249.608"/>
<polygon fill="midnightblue" stroke="midnightblue" points="348.817,-252.97 357.903,-247.52 347.402,-246.115 348.817,-252.97"/>
</g>
<!-- Node33&#45;&gt;Node16 -->
<g id="edge43" class="edge"><title>Node33&#45;&gt;Node16</title>
<path fill="none" stroke="midnightblue" d="M456.747,-358.819C464.515,-361.63 471.949,-365.549 478,-371 511.547,-401.221 497.71,-423.889 514,-466 532.515,-513.863 554.822,-569.978 566.317,-598.785"/>
<polygon fill="midnightblue" stroke="midnightblue" points="563.204,-600.426 570.163,-608.415 569.705,-597.83 563.204,-600.426"/>
</g>
</g>
</svg>
