<?xml version="1.0" encoding="UTF-8" standalone="no"?>
<!DOCTYPE svg PUBLIC "-//W3C//DTD SVG 1.1//EN"
 "http://www.w3.org/Graphics/SVG/1.1/DTD/svg11.dtd">
<!-- Generated by graphviz version 2.36.0 (20140111.2315)
 -->
<!-- Title: CLIENT_COMMAND Pages: 1 -->
<svg width="790pt" height="218pt"
 viewBox="0.00 0.00 790.00 218.00" xmlns="http://www.w3.org/2000/svg" xmlns:xlink="http://www.w3.org/1999/xlink">
<g id="graph0" class="graph" transform="scale(1 1) rotate(0) translate(4 214)">
<title>CLIENT_COMMAND</title>
<!-- Node1 -->
<g id="node1" class="node"><title>Node1</title>
<polygon fill="#bfbfbf" stroke="black" points="0.5,-114.5 0.5,-133.5 111.5,-133.5 111.5,-114.5 0.5,-114.5"/>
<text text-anchor="middle" x="56" y="-121.5" font-family="Helvetica,sans-Serif" font-size="10.00">CLIENT_COMMAND</text>
</g>
<!-- Node2 -->
<g id="node2" class="node"><title>Node2</title>
<g id="a_node2"><a xlink:href="../../df/d8c/cl__cmd_8qc.html#a08467d55e8f32d8f69efe2011e00f340" target="_top" xlink:title="LocalCommand_debugmodel">
<polygon fill="none" stroke="black" points="148.5,-114.5 148.5,-133.5 291.5,-133.5 291.5,-114.5 148.5,-114.5"/>
<text text-anchor="middle" x="220" y="-121.5" font-family="Helvetica,sans-Serif" font-size="10.00">LocalCommand_debugmodel</text>
</a>
</g>
</g>
<!-- Node1&#45;&gt;Node2 -->
<g id="edge1" class="edge"><title>Node1&#45;&gt;Node2</title>
<path fill="none" stroke="midnightblue" d="M111.846,-124C120.382,-124 129.353,-124 138.319,-124"/>
<polygon fill="midnightblue" stroke="midnightblue" points="138.416,-127.5 148.416,-124 138.416,-120.5 138.416,-127.5"/>
</g>
<!-- Node3 -->
<g id="node3" class="node"><title>Node3</title>
<g id="a_node3"><a xlink:href="../../d8/de2/menudefs_8qc.html#ae3e9d36eda7886f5fe58e5201291dd78" target="_top" xlink:title="argv">
<polygon fill="none" stroke="black" points="358.5,-190.5 358.5,-209.5 393.5,-209.5 393.5,-190.5 358.5,-190.5"/>
<text text-anchor="middle" x="376" y="-197.5" font-family="Helvetica,sans-Serif" font-size="10.00">argv</text>
</a>
</g>
</g>
<!-- Node2&#45;&gt;Node3 -->
<g id="edge2" class="edge"><title>Node2&#45;&gt;Node3</title>
<path fill="none" stroke="midnightblue" d="M240.504,-133.625C268.11,-147.249 318.624,-172.178 349.273,-187.303"/>
<polygon fill="midnightblue" stroke="midnightblue" points="347.955,-190.556 358.471,-191.843 351.053,-184.279 347.955,-190.556"/>
</g>
<!-- Node4 -->
<g id="node4" class="node"><title>Node4</title>
<g id="a_node4"><a xlink:href="../../d4/d0c/csprogsdefs_8qc.html#acbb54a239d76062465dccbc6a6c6e464" target="_top" xlink:title="entity">
<polygon fill="none" stroke="black" points="482.5,-133.5 482.5,-152.5 523.5,-152.5 523.5,-133.5 482.5,-133.5"/>
<text text-anchor="middle" x="503" y="-140.5" font-family="Helvetica,sans-Serif" font-size="10.00">entity</text>
</a>
</g>
</g>
<!-- Node2&#45;&gt;Node4 -->
<g id="edge3" class="edge"><title>Node2&#45;&gt;Node4</title>
<path fill="none" stroke="midnightblue" d="M264.498,-133.512C283.839,-137.277 306.951,-141.146 328,-143 378.369,-147.437 437.259,-146.072 471.993,-144.595"/>
<polygon fill="midnightblue" stroke="midnightblue" points="472.551,-148.073 482.38,-144.119 472.23,-141.081 472.551,-148.073"/>
</g>
<!-- Node5 -->
<g id="node5" class="node"><title>Node5</title>
<g id="a_node5"><a xlink:href="../../d5/dff/ent__cs_8qc.html#ac459a724c1fe031c6658fff554b12ea8" target="_top" xlink:title="setorigin">
<polygon fill="none" stroke="black" points="349.5,-114.5 349.5,-133.5 402.5,-133.5 402.5,-114.5 349.5,-114.5"/>
<text text-anchor="middle" x="376" y="-121.5" font-family="Helvetica,sans-Serif" font-size="10.00">setorigin</text>
</a>
</g>
</g>
<!-- Node2&#45;&gt;Node5 -->
<g id="edge4" class="edge"><title>Node2&#45;&gt;Node5</title>
<path fill="none" stroke="midnightblue" d="M291.69,-124C308.072,-124 324.838,-124 338.995,-124"/>
<polygon fill="midnightblue" stroke="midnightblue" points="339.262,-127.5 349.262,-124 339.262,-120.5 339.262,-127.5"/>
</g>
<!-- Node6 -->
<g id="node6" class="node"><title>Node6</title>
<g id="a_node6"><a xlink:href="../../df/d8c/cl__cmd_8qc.html#a54daafbdbda2cf0eb8d7d53fef76cc6b" target="_top" xlink:title="DrawDebugModel">
<polygon fill="none" stroke="black" points="328.5,-38.5 328.5,-57.5 423.5,-57.5 423.5,-38.5 328.5,-38.5"/>
<text text-anchor="middle" x="376" y="-45.5" font-family="Helvetica,sans-Serif" font-size="10.00">DrawDebugModel</text>
</a>
</g>
</g>
<!-- Node2&#45;&gt;Node6 -->
<g id="edge5" class="edge"><title>Node2&#45;&gt;Node6</title>
<path fill="none" stroke="midnightblue" d="M237.769,-114.357C258.602,-102.544 295.388,-82.2267 328,-67 332.057,-65.1057 336.358,-63.2139 340.645,-61.3985"/>
<polygon fill="midnightblue" stroke="midnightblue" points="342.002,-64.6252 349.91,-57.5748 339.331,-58.1546 342.002,-64.6252"/>
</g>
<!-- Node11 -->
<g id="node11" class="node"><title>Node11</title>
<g id="a_node11"><a xlink:href="../../d9/d51/intrusivelist_8qh.html#a1dc3261f72901c53357b5e01d94cb556" target="_top" xlink:title="Push to tail. ">
<polygon fill="none" stroke="black" points="346.5,-76.5 346.5,-95.5 405.5,-95.5 405.5,-76.5 346.5,-76.5"/>
<text text-anchor="middle" x="376" y="-83.5" font-family="Helvetica,sans-Serif" font-size="10.00">IL_PUSH</text>
</a>
</g>
</g>
<!-- Node2&#45;&gt;Node11 -->
<g id="edge10" class="edge"><title>Node2&#45;&gt;Node11</title>
<path fill="none" stroke="midnightblue" d="M259.861,-114.411C283.301,-108.627 313.051,-101.286 336.437,-95.5154"/>
<polygon fill="midnightblue" stroke="midnightblue" points="337.491,-98.8606 346.361,-93.0668 335.814,-92.0645 337.491,-98.8606"/>
</g>
<!-- Node7 -->
<g id="node7" class="node"><title>Node7</title>
<g id="a_node7"><a xlink:href="../../d8/de2/menudefs_8qc.html#ad5a3e16aa960bd72d3ca37a618eea802" target="_top" xlink:title="floor">
<polygon fill="none" stroke="black" points="485.5,-38.5 485.5,-57.5 520.5,-57.5 520.5,-38.5 485.5,-38.5"/>
<text text-anchor="middle" x="503" y="-45.5" font-family="Helvetica,sans-Serif" font-size="10.00">floor</text>
</a>
</g>
</g>
<!-- Node6&#45;&gt;Node7 -->
<g id="edge6" class="edge"><title>Node6&#45;&gt;Node7</title>
<path fill="none" stroke="midnightblue" d="M423.545,-48C440.972,-48 460.173,-48 475.217,-48"/>
<polygon fill="midnightblue" stroke="midnightblue" points="475.353,-51.5001 485.353,-48 475.352,-44.5001 475.353,-51.5001"/>
</g>
<!-- Node8 -->
<g id="node8" class="node"><title>Node8</title>
<g id="a_node8"><a xlink:href="../../dc/d98/client_2miscfunctions_8qc.html#a2b66a10b61389716958bcc54b41c27e2" target="_top" xlink:title="PolyDrawModel">
<polygon fill="none" stroke="black" points="460,-0.5 460,-19.5 546,-19.5 546,-0.5 460,-0.5"/>
<text text-anchor="middle" x="503" y="-7.5" font-family="Helvetica,sans-Serif" font-size="10.00">PolyDrawModel</text>
</a>
</g>
</g>
<!-- Node6&#45;&gt;Node8 -->
<g id="edge7" class="edge"><title>Node6&#45;&gt;Node8</title>
<path fill="none" stroke="midnightblue" d="M408.543,-38.411C424.383,-33.5956 443.773,-27.7012 460.776,-22.532"/>
<polygon fill="midnightblue" stroke="midnightblue" points="461.918,-25.8433 470.467,-19.5859 459.882,-19.1459 461.918,-25.8433"/>
</g>
<!-- Node9 -->
<g id="node9" class="node"><title>Node9</title>
<g id="a_node9"><a xlink:href="../../dc/d98/client_2miscfunctions_8qc.html#ae669df9da541a3b18d623ba33615903e" target="_top" xlink:title="PolyDrawModelSurface">
<polygon fill="none" stroke="black" points="582.5,-0.5 582.5,-19.5 701.5,-19.5 701.5,-0.5 582.5,-0.5"/>
<text text-anchor="middle" x="642" y="-7.5" font-family="Helvetica,sans-Serif" font-size="10.00">PolyDrawModelSurface</text>
</a>
</g>
</g>
<!-- Node8&#45;&gt;Node9 -->
<g id="edge8" class="edge"><title>Node8&#45;&gt;Node9</title>
<path fill="none" stroke="midnightblue" d="M546.222,-10C554.505,-10 563.392,-10 572.284,-10"/>
<polygon fill="midnightblue" stroke="midnightblue" points="572.293,-13.5001 582.293,-10 572.293,-6.5001 572.293,-13.5001"/>
</g>
<!-- Node10 -->
<g id="node10" class="node"><title>Node10</title>
<g id="a_node10"><a xlink:href="../../d4/d0c/csprogsdefs_8qc.html#a4f0b78b1785821ba47129edb68e70f9e" target="_top" xlink:title="vector">
<polygon fill="none" stroke="black" points="738,-0.5 738,-19.5 782,-19.5 782,-0.5 738,-0.5"/>
<text text-anchor="middle" x="760" y="-7.5" font-family="Helvetica,sans-Serif" font-size="10.00">vector</text>
</a>
</g>
</g>
<!-- Node9&#45;&gt;Node10 -->
<g id="edge9" class="edge"><title>Node9&#45;&gt;Node10</title>
<path fill="none" stroke="midnightblue" d="M701.68,-10C710.666,-10 719.631,-10 727.712,-10"/>
<polygon fill="midnightblue" stroke="midnightblue" points="727.751,-13.5001 737.751,-10 727.751,-6.5001 727.751,-13.5001"/>
</g>
<!-- Node11&#45;&gt;Node4 -->
<g id="edge12" class="edge"><title>Node11&#45;&gt;Node4</title>
<path fill="none" stroke="midnightblue" d="M401.529,-95.5433C408.806,-98.4746 416.763,-101.779 424,-105 440.82,-112.486 459.36,-121.486 474.142,-128.848"/>
<polygon fill="midnightblue" stroke="midnightblue" points="472.75,-132.065 483.258,-133.417 475.886,-125.807 472.75,-132.065"/>
</g>
<!-- Node12 -->
<g id="node12" class="node"><title>Node12</title>
<g id="a_node12"><a xlink:href="../../d9/d51/intrusivelist_8qh.html#a385bb2612b4fc3e23b299195944d8925" target="_top" xlink:title="IL_CONTAINS">
<polygon fill="none" stroke="black" points="461.5,-76.5 461.5,-95.5 544.5,-95.5 544.5,-76.5 461.5,-76.5"/>
<text text-anchor="middle" x="503" y="-83.5" font-family="Helvetica,sans-Serif" font-size="10.00">IL_CONTAINS</text>
</a>
</g>
</g>
<!-- Node11&#45;&gt;Node12 -->
<g id="edge11" class="edge"><title>Node11&#45;&gt;Node12</title>
<path fill="none" stroke="midnightblue" d="M405.678,-86C419.03,-86 435.33,-86 450.696,-86"/>
<polygon fill="midnightblue" stroke="midnightblue" points="451.138,-89.5001 461.138,-86 451.138,-82.5001 451.138,-89.5001"/>
</g>
</g>
</svg>
