<?xml version="1.0" encoding="UTF-8" standalone="no"?>
<!DOCTYPE svg PUBLIC "-//W3C//DTD SVG 1.1//EN"
 "http://www.w3.org/Graphics/SVG/1.1/DTD/svg11.dtd">
<!-- Generated by graphviz version 2.38.0 (20140413.2041)
 -->
<!-- Title: HUD_MinigameMenu_CustomEntry Pages: 1 -->
<svg width="321pt" height="104pt"
 viewBox="0.00 0.00 321.00 104.00" xmlns="http://www.w3.org/2000/svg" xmlns:xlink="http://www.w3.org/1999/xlink">
<g id="graph0" class="graph" transform="scale(1 1) rotate(0) translate(4 100)">
<title>HUD_MinigameMenu_CustomEntry</title>
<!-- Node1 -->
<g id="node1" class="node"><title>Node1</title>
<polygon fill="#bfbfbf" stroke="black" points="0,-38.5 0,-57.5 185,-57.5 185,-38.5 0,-38.5"/>
<text text-anchor="middle" x="92.5" y="-45.5" font-family="Helvetica,sans-Serif" font-size="10.00">HUD_MinigameMenu_CustomEntry</text>
</g>
<!-- Node2 -->
<g id="node2" class="node"><title>Node2</title>
<g id="a_node2"><a xlink:href="../../d3/dd5/bd_8qc.html#a273e11f9cb9528a5b2c2f83c333932ca" target="_top" xlink:title="bd_close_editor">
<polygon fill="none" stroke="black" points="221,-76.5 221,-95.5 313,-95.5 313,-76.5 221,-76.5"/>
<text text-anchor="middle" x="267" y="-83.5" font-family="Helvetica,sans-Serif" font-size="10.00">bd_close_editor</text>
</a>
</g>
</g>
<!-- Node1&#45;&gt;Node2 -->
<g id="edge1" class="edge"><title>Node1&#45;&gt;Node2</title>
<path fill="none" stroke="midnightblue" d="M146.851,-59.7526C171.242,-65.1258 199.763,-71.4086 222.784,-76.4799"/>
<polygon fill="midnightblue" stroke="midnightblue" points="147.548,-56.3224 137.029,-57.589 146.042,-63.1584 147.548,-56.3224"/>
</g>
<!-- Node3 -->
<g id="node3" class="node"><title>Node3</title>
<g id="a_node3"><a xlink:href="../../d1/d93/pp_8qc.html#a914ec6076e44ab446779049432f84405" target="_top" xlink:title="pp_next_match">
<polygon fill="none" stroke="black" points="221.5,-38.5 221.5,-57.5 312.5,-57.5 312.5,-38.5 221.5,-38.5"/>
<text text-anchor="middle" x="267" y="-45.5" font-family="Helvetica,sans-Serif" font-size="10.00">pp_next_match</text>
</a>
</g>
</g>
<!-- Node1&#45;&gt;Node3 -->
<g id="edge2" class="edge"><title>Node1&#45;&gt;Node3</title>
<path fill="none" stroke="midnightblue" d="M195.317,-48C204.338,-48 213.124,-48 221.263,-48"/>
<polygon fill="midnightblue" stroke="midnightblue" points="195.053,-44.5001 185.053,-48 195.053,-51.5001 195.053,-44.5001"/>
</g>
<!-- Node4 -->
<g id="node4" class="node"><title>Node4</title>
<g id="a_node4"><a xlink:href="../../da/d4b/ttt_8qc.html#acbb767866f2bd0a09eae8b342a5ebc91" target="_top" xlink:title="ttt_next_match">
<polygon fill="none" stroke="black" points="222,-0.5 222,-19.5 312,-19.5 312,-0.5 222,-0.5"/>
<text text-anchor="middle" x="267" y="-7.5" font-family="Helvetica,sans-Serif" font-size="10.00">ttt_next_match</text>
</a>
</g>
</g>
<!-- Node1&#45;&gt;Node4 -->
<g id="edge3" class="edge"><title>Node1&#45;&gt;Node4</title>
<path fill="none" stroke="midnightblue" d="M146.851,-36.2474C171.242,-30.8742 199.763,-24.5914 222.784,-19.5201"/>
<polygon fill="midnightblue" stroke="midnightblue" points="146.042,-32.8416 137.029,-38.411 147.548,-39.6776 146.042,-32.8416"/>
</g>
</g>
</svg>
