<?xml version="1.0" encoding="UTF-8" standalone="no"?>
<!DOCTYPE svg PUBLIC "-//W3C//DTD SVG 1.1//EN"
 "http://www.w3.org/Graphics/SVG/1.1/DTD/svg11.dtd">
<!-- Generated by graphviz version 2.38.0 (20140413.2041)
 -->
<!-- Title: HUD_MinigameMenu_ClickJoin Pages: 1 -->
<svg width="774pt" height="356pt"
 viewBox="0.00 0.00 774.00 355.50" xmlns="http://www.w3.org/2000/svg" xmlns:xlink="http://www.w3.org/1999/xlink">
<g id="graph0" class="graph" transform="scale(1 1) rotate(0) translate(4 351.5)">
<title>HUD_MinigameMenu_ClickJoin</title>
<!-- Node1 -->
<g id="node1" class="node"><title>Node1</title>
<polygon fill="#bfbfbf" stroke="black" points="0,-164.5 0,-183.5 161,-183.5 161,-164.5 0,-164.5"/>
<text text-anchor="middle" x="80.5" y="-171.5" font-family="Helvetica,sans-Serif" font-size="10.00">HUD_MinigameMenu_ClickJoin</text>
</g>
<!-- Node2 -->
<g id="node2" class="node"><title>Node2</title>
<g id="a_node2"><a xlink:href="../../d4/d0c/csprogsdefs_8qc.html#acbb54a239d76062465dccbc6a6c6e464" target="_top" xlink:title="entity">
<polygon fill="none" stroke="black" points="672,-164.5 672,-183.5 716,-183.5 716,-164.5 672,-164.5"/>
<text text-anchor="middle" x="694" y="-171.5" font-family="Helvetica,sans-Serif" font-size="10.00">entity</text>
</a>
</g>
</g>
<!-- Node1&#45;&gt;Node2 -->
<g id="edge1" class="edge"><title>Node1&#45;&gt;Node2</title>
<path fill="none" stroke="midnightblue" d="M128.489,-183.513C149.372,-187.278 174.315,-191.147 197,-193 369.315,-207.078 413.778,-208.172 586,-193 611.725,-190.734 640.529,-185.459 661.766,-181.041"/>
<polygon fill="midnightblue" stroke="midnightblue" points="662.781,-184.404 671.831,-178.894 661.32,-177.558 662.781,-184.404"/>
</g>
<!-- Node3 -->
<g id="node3" class="node"><title>Node3</title>
<g id="a_node3"><a xlink:href="../../d8/de2/menudefs_8qc.html#a53c4a8e7afd17cad92bc00adba96bb78" target="_top" xlink:title="find">
<polygon fill="none" stroke="black" points="267,-278.5 267,-297.5 301,-297.5 301,-278.5 267,-278.5"/>
<text text-anchor="middle" x="284" y="-285.5" font-family="Helvetica,sans-Serif" font-size="10.00">find</text>
</a>
</g>
</g>
<!-- Node1&#45;&gt;Node3 -->
<g id="edge2" class="edge"><title>Node1&#45;&gt;Node3</title>
<path fill="none" stroke="midnightblue" d="M91.0826,-183.656C109.791,-201.974 153.192,-241.91 197,-264 215.912,-273.537 239.136,-279.73 256.681,-283.433"/>
<polygon fill="midnightblue" stroke="midnightblue" points="256.294,-286.924 266.782,-285.424 257.648,-280.056 256.294,-286.924"/>
</g>
<!-- Node4 -->
<g id="node4" class="node"><title>Node4</title>
<g id="a_node4"><a xlink:href="../../d5/d4a/cl__minigames__hud_8qc.html#a1875c5c56cb1e26b51eb64ae1c602ff8" target="_top" xlink:title="HUD_MinigameMenu_Click\l_ExpandCollapse">
<polygon fill="none" stroke="black" points="424.5,-241 424.5,-271 568.5,-271 568.5,-241 424.5,-241"/>
<text text-anchor="start" x="432.5" y="-259" font-family="Helvetica,sans-Serif" font-size="10.00">HUD_MinigameMenu_Click</text>
<text text-anchor="middle" x="496.5" y="-248" font-family="Helvetica,sans-Serif" font-size="10.00">_ExpandCollapse</text>
</a>
</g>
</g>
<!-- Node1&#45;&gt;Node4 -->
<g id="edge3" class="edge"><title>Node1&#45;&gt;Node4</title>
<path fill="none" stroke="midnightblue" d="M98.0825,-183.542C119.963,-195.638 160.038,-216.104 197,-226 268.816,-245.228 353.35,-252.34 414.09,-254.87"/>
<polygon fill="midnightblue" stroke="midnightblue" points="414.259,-258.379 424.386,-255.265 414.527,-251.384 414.259,-258.379"/>
</g>
<!-- Node6 -->
<g id="node6" class="node"><title>Node6</title>
<g id="a_node6"><a xlink:href="../../d5/d4a/cl__minigames__hud_8qc.html#ad83b0ec6561c90f628420274460cdc55" target="_top" xlink:title="HUD_MinigameMenu_ClickJoin\l_Entry">
<polygon fill="none" stroke="black" points="203.5,-317 203.5,-347 364.5,-347 364.5,-317 203.5,-317"/>
<text text-anchor="start" x="211.5" y="-335" font-family="Helvetica,sans-Serif" font-size="10.00">HUD_MinigameMenu_ClickJoin</text>
<text text-anchor="middle" x="284" y="-324" font-family="Helvetica,sans-Serif" font-size="10.00">_Entry</text>
</a>
</g>
</g>
<!-- Node1&#45;&gt;Node6 -->
<g id="edge6" class="edge"><title>Node1&#45;&gt;Node6</title>
<path fill="none" stroke="midnightblue" d="M87.1384,-183.709C101.896,-208.249 144.195,-273.206 197,-307 200.295,-309.108 203.772,-311.044 207.365,-312.82"/>
<polygon fill="midnightblue" stroke="midnightblue" points="205.937,-316.016 216.494,-316.915 208.802,-309.629 205.937,-316.016"/>
</g>
<!-- Node8 -->
<g id="node8" class="node"><title>Node8</title>
<g id="a_node8"><a xlink:href="../../d5/d4a/cl__minigames__hud_8qc.html#aa3806155b8445caf2a4de3b1a3a3801a" target="_top" xlink:title="HUD_MinigameMenu_InsertEntry">
<polygon fill="none" stroke="black" points="197,-164.5 197,-183.5 371,-183.5 371,-164.5 197,-164.5"/>
<text text-anchor="middle" x="284" y="-171.5" font-family="Helvetica,sans-Serif" font-size="10.00">HUD_MinigameMenu_InsertEntry</text>
</a>
</g>
</g>
<!-- Node1&#45;&gt;Node8 -->
<g id="edge9" class="edge"><title>Node1&#45;&gt;Node8</title>
<path fill="none" stroke="midnightblue" d="M161.138,-174C169.598,-174 178.266,-174 186.889,-174"/>
<polygon fill="midnightblue" stroke="midnightblue" points="186.975,-177.5 196.975,-174 186.975,-170.5 186.975,-177.5"/>
</g>
<!-- Node9 -->
<g id="node9" class="node"><title>Node9</title>
<g id="a_node9"><a xlink:href="../../d5/d4a/cl__minigames__hud_8qc.html#aadfdd927ff9cdfb93e7594562399c8e4" target="_top" xlink:title="HUD_MinigameMenu_SpawnSub\lEntry">
<polygon fill="none" stroke="black" points="197.5,-115 197.5,-145 370.5,-145 370.5,-115 197.5,-115"/>
<text text-anchor="start" x="205.5" y="-133" font-family="Helvetica,sans-Serif" font-size="10.00">HUD_MinigameMenu_SpawnSub</text>
<text text-anchor="middle" x="284" y="-122" font-family="Helvetica,sans-Serif" font-size="10.00">Entry</text>
</a>
</g>
</g>
<!-- Node1&#45;&gt;Node9 -->
<g id="edge10" class="edge"><title>Node1&#45;&gt;Node9</title>
<path fill="none" stroke="midnightblue" d="M125.222,-164.453C148.314,-159.41 177.365,-153.067 204.226,-147.201"/>
<polygon fill="midnightblue" stroke="midnightblue" points="204.984,-150.618 214.007,-145.065 203.491,-143.779 204.984,-150.618"/>
</g>
<!-- Node13 -->
<g id="node13" class="node"><title>Node13</title>
<g id="a_node13"><a xlink:href="../../d4/db7/cl__minigames_8qc.html#a668aa690502b071b56dfd97e425d8d3e" target="_top" xlink:title="minigame_texture">
<polygon fill="none" stroke="black" points="232,-76.5 232,-95.5 336,-95.5 336,-76.5 232,-76.5"/>
<text text-anchor="middle" x="284" y="-83.5" font-family="Helvetica,sans-Serif" font-size="10.00">minigame_texture</text>
</a>
</g>
</g>
<!-- Node1&#45;&gt;Node13 -->
<g id="edge16" class="edge"><title>Node1&#45;&gt;Node13</title>
<path fill="none" stroke="midnightblue" d="M94.6735,-164.421C115.429,-149.763 157.46,-121.807 197,-106 204.878,-102.851 213.368,-100.129 221.839,-97.7959"/>
<polygon fill="midnightblue" stroke="midnightblue" points="222.932,-101.128 231.736,-95.234 221.178,-94.3517 222.932,-101.128"/>
</g>
<!-- Node16 -->
<g id="node16" class="node"><title>Node16</title>
<g id="a_node16"><a xlink:href="../../d8/de2/menudefs_8qc.html#ad76dc2b2895cd23f21e008f12a686158" target="_top" xlink:title="strcat">
<polygon fill="none" stroke="black" points="262,-38.5 262,-57.5 306,-57.5 306,-38.5 262,-38.5"/>
<text text-anchor="middle" x="284" y="-45.5" font-family="Helvetica,sans-Serif" font-size="10.00">strcat</text>
</a>
</g>
</g>
<!-- Node1&#45;&gt;Node16 -->
<g id="edge19" class="edge"><title>Node1&#45;&gt;Node16</title>
<path fill="none" stroke="midnightblue" d="M88.961,-164.201C105.748,-142.892 148.81,-92.2308 197,-67 213.939,-58.1312 234.849,-53.3932 251.809,-50.8666"/>
<polygon fill="midnightblue" stroke="midnightblue" points="252.326,-54.3289 261.788,-49.5621 251.419,-47.388 252.326,-54.3289"/>
</g>
<!-- Node17 -->
<g id="node17" class="node"><title>Node17</title>
<g id="a_node17"><a xlink:href="../../d8/de2/menudefs_8qc.html#ae06db7c87845d853670a09a1d487b1db" target="_top" xlink:title="strzone">
<polygon fill="none" stroke="black" points="257.5,-0.5 257.5,-19.5 310.5,-19.5 310.5,-0.5 257.5,-0.5"/>
<text text-anchor="middle" x="284" y="-7.5" font-family="Helvetica,sans-Serif" font-size="10.00">strzone</text>
</a>
</g>
</g>
<!-- Node1&#45;&gt;Node17 -->
<g id="edge20" class="edge"><title>Node1&#45;&gt;Node17</title>
<path fill="none" stroke="midnightblue" d="M86.1688,-164.356C99.4537,-138.01 140.205,-64.4339 197,-29 211.899,-19.705 230.737,-14.9259 246.983,-12.4815"/>
<polygon fill="midnightblue" stroke="midnightblue" points="247.734,-15.9145 257.216,-11.1884 246.856,-8.96974 247.734,-15.9145"/>
</g>
<!-- Node4&#45;&gt;Node2 -->
<g id="edge4" class="edge"><title>Node4&#45;&gt;Node2</title>
<path fill="none" stroke="midnightblue" d="M545.673,-240.893C558.871,-236.424 573.093,-231.299 586,-226 613.835,-214.571 644.642,-199.31 666.024,-188.279"/>
<polygon fill="midnightblue" stroke="midnightblue" points="667.884,-191.257 675.14,-183.537 664.654,-185.047 667.884,-191.257"/>
</g>
<!-- Node5 -->
<g id="node5" class="node"><title>Node5</title>
<g id="a_node5"><a xlink:href="../../d5/d4a/cl__minigames__hud_8qc.html#a36e72384f2fcae7156722f888cd6315b" target="_top" xlink:title="HUD_MinigameMenu_Click">
<polygon fill="none" stroke="black" points="622,-276.5 622,-295.5 766,-295.5 766,-276.5 622,-276.5"/>
<text text-anchor="middle" x="694" y="-283.5" font-family="Helvetica,sans-Serif" font-size="10.00">HUD_MinigameMenu_Click</text>
</a>
</g>
</g>
<!-- Node4&#45;&gt;Node5 -->
<g id="edge5" class="edge"><title>Node4&#45;&gt;Node5</title>
<path fill="none" stroke="midnightblue" d="M568.633,-266.916C585.699,-269.534 603.938,-272.333 621.041,-274.958"/>
<polygon fill="midnightblue" stroke="midnightblue" points="620.548,-278.423 630.963,-276.48 621.61,-271.504 620.548,-278.423"/>
</g>
<!-- Node7 -->
<g id="node7" class="node"><title>Node7</title>
<g id="a_node7"><a xlink:href="../../d5/d4a/cl__minigames__hud_8qc.html#a1ba10a9b36cce92f0d8c066599961241" target="_top" xlink:title="HUD_MinigameMenu_EraseEntry">
<polygon fill="none" stroke="black" points="409.5,-306.5 409.5,-325.5 583.5,-325.5 583.5,-306.5 409.5,-306.5"/>
<text text-anchor="middle" x="496.5" y="-313.5" font-family="Helvetica,sans-Serif" font-size="10.00">HUD_MinigameMenu_EraseEntry</text>
</a>
</g>
</g>
<!-- Node6&#45;&gt;Node7 -->
<g id="edge7" class="edge"><title>Node6&#45;&gt;Node7</title>
<path fill="none" stroke="midnightblue" d="M364.581,-325.951C375.927,-325.089 387.697,-324.194 399.318,-323.311"/>
<polygon fill="midnightblue" stroke="midnightblue" points="399.772,-326.786 409.478,-322.538 399.242,-319.807 399.772,-326.786"/>
</g>
<!-- Node7&#45;&gt;Node5 -->
<g id="edge8" class="edge"><title>Node7&#45;&gt;Node5</title>
<path fill="none" stroke="midnightblue" d="M559.626,-306.467C579.138,-303.472 600.844,-300.142 620.981,-297.051"/>
<polygon fill="midnightblue" stroke="midnightblue" points="621.682,-300.485 631.036,-295.509 620.62,-293.566 621.682,-300.485"/>
</g>
<!-- Node9&#45;&gt;Node2 -->
<g id="edge12" class="edge"><title>Node9&#45;&gt;Node2</title>
<path fill="none" stroke="midnightblue" d="M370.53,-134.982C430.896,-139.015 513.591,-145.585 586,-155 611.609,-158.33 640.421,-163.53 661.691,-167.65"/>
<polygon fill="midnightblue" stroke="midnightblue" points="661.286,-171.137 671.773,-169.63 662.636,-164.268 661.286,-171.137"/>
</g>
<!-- Node10 -->
<g id="node10" class="node"><title>Node10</title>
<g id="a_node10"><a xlink:href="../../da/dde/csprogsdefs_8qh.html#a2626679e4144af8478202c6c28f90cd9" target="_top" xlink:title="vector">
<polygon fill="none" stroke="black" points="473,-164.5 473,-183.5 520,-183.5 520,-164.5 473,-164.5"/>
<text text-anchor="middle" x="496.5" y="-171.5" font-family="Helvetica,sans-Serif" font-size="10.00">vector</text>
</a>
</g>
</g>
<!-- Node9&#45;&gt;Node10 -->
<g id="edge11" class="edge"><title>Node9&#45;&gt;Node10</title>
<path fill="none" stroke="midnightblue" d="M356.853,-145.019C392.761,-152.525 434.454,-161.24 462.669,-167.137"/>
<polygon fill="midnightblue" stroke="midnightblue" points="462.278,-170.631 472.782,-169.251 463.71,-163.779 462.278,-170.631"/>
</g>
<!-- Node11 -->
<g id="node11" class="node"><title>Node11</title>
<g id="a_node11"><a xlink:href="../../d5/d4a/cl__minigames__hud_8qc.html#a68d79ea18668beea80296c26e8a2a909" target="_top" xlink:title="HUD_MinigameMenu_SpawnEntry">
<polygon fill="none" stroke="black" points="407,-88.5 407,-107.5 586,-107.5 586,-88.5 407,-88.5"/>
<text text-anchor="middle" x="496.5" y="-95.5" font-family="Helvetica,sans-Serif" font-size="10.00">HUD_MinigameMenu_SpawnEntry</text>
</a>
</g>
</g>
<!-- Node9&#45;&gt;Node11 -->
<g id="edge13" class="edge"><title>Node9&#45;&gt;Node11</title>
<path fill="none" stroke="midnightblue" d="M370.618,-116.984C387.868,-114.362 405.847,-111.629 422.613,-109.08"/>
<polygon fill="midnightblue" stroke="midnightblue" points="423.517,-112.483 432.877,-107.52 422.465,-105.563 423.517,-112.483"/>
</g>
<!-- Node11&#45;&gt;Node2 -->
<g id="edge14" class="edge"><title>Node11&#45;&gt;Node2</title>
<path fill="none" stroke="midnightblue" d="M538.985,-107.535C553.993,-111.431 570.944,-116.357 586,-122 614.344,-132.623 645.303,-148.125 666.593,-159.439"/>
<polygon fill="midnightblue" stroke="midnightblue" points="665.186,-162.656 675.651,-164.309 668.501,-156.491 665.186,-162.656"/>
</g>
<!-- Node12 -->
<g id="node12" class="node"><title>Node12</title>
<g id="a_node12"><a xlink:href="../../d8/de2/menudefs_8qc.html#a60338c2153150633178af678cf3ca57c" target="_top" xlink:title="spawn">
<polygon fill="none" stroke="black" points="670.5,-88.5 670.5,-107.5 717.5,-107.5 717.5,-88.5 670.5,-88.5"/>
<text text-anchor="middle" x="694" y="-95.5" font-family="Helvetica,sans-Serif" font-size="10.00">spawn</text>
</a>
</g>
</g>
<!-- Node11&#45;&gt;Node12 -->
<g id="edge15" class="edge"><title>Node11&#45;&gt;Node12</title>
<path fill="none" stroke="midnightblue" d="M586.098,-98C612.596,-98 639.999,-98 660.426,-98"/>
<polygon fill="midnightblue" stroke="midnightblue" points="660.431,-101.5 670.43,-98 660.43,-94.5001 660.431,-101.5"/>
</g>
<!-- Node14 -->
<g id="node14" class="node"><title>Node14</title>
<g id="a_node14"><a xlink:href="../../d4/db7/cl__minigames_8qc.html#a5f36281bd221f84e9e614d8976cd7dd1" target="_top" xlink:title="minigame_texture_skin">
<polygon fill="none" stroke="black" points="432.5,-50.5 432.5,-69.5 560.5,-69.5 560.5,-50.5 432.5,-50.5"/>
<text text-anchor="middle" x="496.5" y="-57.5" font-family="Helvetica,sans-Serif" font-size="10.00">minigame_texture_skin</text>
</a>
</g>
</g>
<!-- Node13&#45;&gt;Node14 -->
<g id="edge17" class="edge"><title>Node13&#45;&gt;Node14</title>
<path fill="none" stroke="midnightblue" d="M336.225,-79.6729C362.021,-76.4867 393.757,-72.5668 422.093,-69.0669"/>
<polygon fill="midnightblue" stroke="midnightblue" points="422.866,-72.498 432.362,-67.7985 422.008,-65.5508 422.866,-72.498"/>
</g>
<!-- Node15 -->
<g id="node15" class="node"><title>Node15</title>
<g id="a_node15"><a xlink:href="../../d8/de2/menudefs_8qc.html#a66ae6f59199ebf4780d2bf9681f2b0c7" target="_top" xlink:title="precache_pic">
<polygon fill="none" stroke="black" points="456.5,-12.5 456.5,-31.5 536.5,-31.5 536.5,-12.5 456.5,-12.5"/>
<text text-anchor="middle" x="496.5" y="-19.5" font-family="Helvetica,sans-Serif" font-size="10.00">precache_pic</text>
</a>
</g>
</g>
<!-- Node13&#45;&gt;Node15 -->
<g id="edge18" class="edge"><title>Node13&#45;&gt;Node15</title>
<path fill="none" stroke="midnightblue" d="M336.129,-78.2933C347.882,-75.5489 360.117,-71.8791 371,-67 389.009,-58.9259 388.967,-49.0204 407,-41 419.243,-35.5549 433.148,-31.6292 446.25,-28.8149"/>
<polygon fill="midnightblue" stroke="midnightblue" points="446.941,-32.2462 456.072,-26.8726 445.583,-25.3791 446.941,-32.2462"/>
</g>
</g>
</svg>
