<?xml version="1.0" encoding="UTF-8" standalone="no"?>
<!DOCTYPE svg PUBLIC "-//W3C//DTD SVG 1.1//EN"
 "http://www.w3.org/Graphics/SVG/1.1/DTD/svg11.dtd">
<!-- Generated by graphviz version 2.40.1 (20161225.0304)
 -->
<!-- Title: HUD_MinigameMenu_ClickCurrentGame Pages: 1 -->
<!--zoomable 157 -->
<svg id="main" version="1.1" xmlns="http://www.w3.org/2000/svg" xmlns:xlink="http://www.w3.org/1999/xlink" xml:space="preserve" onload="init(evt)">
<style type="text/css"><![CDATA[
.edge:hover path { stroke: red; }
.edge:hover polygon { stroke: red; fill: red; }
]]></style>
<script type="text/javascript"><![CDATA[
var edges = document.getElementsByTagName('g');
if (edges && edges.length) {
  for (var i=0;i<edges.length;i++) {
    if (edges[i].id.substr(0,4)=='edge') {
      edges[i].setAttribute('class','edge');
    }
  }
}
]]></script>
        <defs>
                <circle id="rim" cx="0" cy="0" r="7"/>
                <circle id="rim2" cx="0" cy="0" r="3.5"/>
                <g id="zoomPlus">
                        <use xlink:href="#rim" fill="#404040">
                                <set attributeName="fill" to="#808080" begin="zoomplus.mouseover" end="zoomplus.mouseout"/>
                        </use>
                        <path d="M-4,0h8M0,-4v8" fill="none" stroke="white" stroke-width="1.5" pointer-events="none"/>
                </g>
                <g id="zoomMin">
                        <use xlink:href="#rim" fill="#404040">
                                <set attributeName="fill" to="#808080" begin="zoomminus.mouseover" end="zoomminus.mouseout"/>
                        </use>
                        <path d="M-4,0h8" fill="none" stroke="white" stroke-width="1.5" pointer-events="none"/>
                </g>
                <g id="dirArrow">
                        <path fill="none" stroke="white" stroke-width="1.5" d="M0,-3.0v7 M-2.5,-0.5L0,-3.0L2.5,-0.5"/>
                </g>
               <g id="resetDef">
                       <use xlink:href="#rim2" fill="#404040">
                               <set attributeName="fill" to="#808080" begin="reset.mouseover" end="reset.mouseout"/>
                       </use>
               </g>
        </defs>

<script type="text/javascript">
var viewWidth = 652;
var viewHeight = 157;
var sectionId = 'dynsection-14';
</script>
<script xlink:href="../../svgpan.js"/>
<svg id="graph" class="graph">
<g id="viewport">
<title>HUD_MinigameMenu_ClickCurrentGame</title>
<!-- Node113 -->
<g id="node1" class="node">
<title>Node113</title>
<polygon fill="#bfbfbf" stroke="#000000" points="0,-79.5 0,-98.5 213,-98.5 213,-79.5 0,-79.5"/>
<text text-anchor="middle" x="106.5" y="-86.5" font-family="Helvetica,sans-Serif" font-size="10.00" fill="#000000">HUD_MinigameMenu_ClickCurrentGame</text>
</g>
<!-- Node114 -->
<g id="node2" class="node">
<title>Node114</title>
<g id="a_node2"><a xlink:href="../../d5/d4a/cl__minigames__hud_8qc.html#a1875c5c56cb1e26b51eb64ae1c602ff8" target="_top" xlink:title="HUD_MinigameMenu_Click\l_ExpandCollapse">
<polygon fill="none" stroke="#000000" points="263.5,-118 263.5,-148 411.5,-148 411.5,-118 263.5,-118"/>
<text text-anchor="start" x="271.5" y="-136" font-family="Helvetica,sans-Serif" font-size="10.00" fill="#000000">HUD_MinigameMenu_Click</text>
<text text-anchor="middle" x="337.5" y="-125" font-family="Helvetica,sans-Serif" font-size="10.00" fill="#000000">_ExpandCollapse</text>
</a>
</g>
</g>
<!-- Node113&#45;&gt;Node114 -->
<g id="edge1" class="edge">
<title>Node113&#45;&gt;Node114</title>
<path fill="none" stroke="#191970" d="M156.6236,-98.5473C184.8831,-103.9301 220.9282,-110.7958 253.3925,-116.9795"/>
<polygon fill="#191970" stroke="#191970" points="252.8618,-120.4413 263.3401,-118.8743 254.1717,-113.5649 252.8618,-120.4413"/>
</g>
<!-- Node117 -->
<g id="node5" class="node">
<title>Node117</title>
<g id="a_node5"><a xlink:href="../../d5/d4a/cl__minigames__hud_8qc.html#aa3806155b8445caf2a4de3b1a3a3801a" target="_top" xlink:title="HUD_MinigameMenu_InsertEntry">
<polygon fill="none" stroke="#000000" points="249,-79.5 249,-98.5 426,-98.5 426,-79.5 249,-79.5"/>
<text text-anchor="middle" x="337.5" y="-86.5" font-family="Helvetica,sans-Serif" font-size="10.00" fill="#000000">HUD_MinigameMenu_InsertEntry</text>
</a>
</g>
</g>
<!-- Node113&#45;&gt;Node117 -->
<g id="edge4" class="edge">
<title>Node113&#45;&gt;Node117</title>
<path fill="none" stroke="#191970" d="M213.2097,-89C221.6981,-89 230.2502,-89 238.6812,-89"/>
<polygon fill="#191970" stroke="#191970" points="238.8926,-92.5001 248.8926,-89 238.8925,-85.5001 238.8926,-92.5001"/>
</g>
<!-- Node118 -->
<g id="node6" class="node">
<title>Node118</title>
<g id="a_node6"><a xlink:href="../../d5/d4a/cl__minigames__hud_8qc.html#aadfdd927ff9cdfb93e7594562399c8e4" target="_top" xlink:title="HUD_MinigameMenu_SpawnSub\lEntry">
<polygon fill="none" stroke="#000000" points="250.5,-30 250.5,-60 424.5,-60 424.5,-30 250.5,-30"/>
<text text-anchor="start" x="258.5" y="-48" font-family="Helvetica,sans-Serif" font-size="10.00" fill="#000000">HUD_MinigameMenu_SpawnSub</text>
<text text-anchor="middle" x="337.5" y="-37" font-family="Helvetica,sans-Serif" font-size="10.00" fill="#000000">Entry</text>
</a>
</g>
</g>
<!-- Node113&#45;&gt;Node118 -->
<g id="edge5" class="edge">
<title>Node113&#45;&gt;Node118</title>
<path fill="none" stroke="#191970" d="M156.6236,-79.4527C183.4442,-74.344 217.2777,-67.8995 248.4072,-61.9701"/>
<polygon fill="#191970" stroke="#191970" points="249.2384,-65.3748 258.4068,-60.0654 247.9285,-58.4984 249.2384,-65.3748"/>
</g>
<!-- Node115 -->
<g id="node3" class="node">
<title>Node115</title>
<g id="a_node3"><a xlink:href="../../d4/d0c/csprogsdefs_8qc.html#acbb54a239d76062465dccbc6a6c6e464" target="_top" xlink:title="entity">
<polygon fill="none" stroke="#000000" points="530.5,-82.5 530.5,-101.5 575.5,-101.5 575.5,-82.5 530.5,-82.5"/>
<text text-anchor="middle" x="553" y="-89.5" font-family="Helvetica,sans-Serif" font-size="10.00" fill="#000000">entity</text>
</a>
</g>
</g>
<!-- Node114&#45;&gt;Node115 -->
<g id="edge2" class="edge">
<title>Node114&#45;&gt;Node115</title>
<path fill="none" stroke="#191970" d="M411.6629,-118.8901C448.7474,-111.8346 491.7298,-103.657 520.4677,-98.1894"/>
<polygon fill="#191970" stroke="#191970" points="521.204,-101.6122 530.3736,-96.3048 519.8956,-94.7356 521.204,-101.6122"/>
</g>
<!-- Node116 -->
<g id="node4" class="node">
<title>Node116</title>
<g id="a_node4"><a xlink:href="../../d5/d4a/cl__minigames__hud_8qc.html#a36e72384f2fcae7156722f888cd6315b" target="_top" xlink:title="HUD_MinigameMenu_Click">
<polygon fill="none" stroke="#000000" points="479,-123.5 479,-142.5 627,-142.5 627,-123.5 479,-123.5"/>
<text text-anchor="middle" x="553" y="-130.5" font-family="Helvetica,sans-Serif" font-size="10.00" fill="#000000">HUD_MinigameMenu_Click</text>
</a>
</g>
</g>
<!-- Node114&#45;&gt;Node116 -->
<g id="edge3" class="edge">
<title>Node114&#45;&gt;Node116</title>
<path fill="none" stroke="#191970" d="M411.6629,-133C430.033,-133 449.8503,-133 468.6665,-133"/>
<polygon fill="#191970" stroke="#191970" points="468.7005,-136.5001 478.7004,-133 468.7004,-129.5001 468.7005,-136.5001"/>
</g>
<!-- Node118&#45;&gt;Node115 -->
<g id="edge7" class="edge">
<title>Node118&#45;&gt;Node115</title>
<path fill="none" stroke="#191970" d="M406.278,-60.0003C444.513,-68.3393 490.3146,-78.3285 520.4552,-84.9021"/>
<polygon fill="#191970" stroke="#191970" points="519.9089,-88.3651 530.425,-87.0765 521.4005,-81.5259 519.9089,-88.3651"/>
</g>
<!-- Node119 -->
<g id="node7" class="node">
<title>Node119</title>
<g id="a_node7"><a xlink:href="../../da/dde/csprogsdefs_8qh.html#a2626679e4144af8478202c6c28f90cd9" target="_top" xlink:title="vector">
<polygon fill="none" stroke="#000000" points="529.5,-38.5 529.5,-57.5 576.5,-57.5 576.5,-38.5 529.5,-38.5"/>
<text text-anchor="middle" x="553" y="-45.5" font-family="Helvetica,sans-Serif" font-size="10.00" fill="#000000">vector</text>
</a>
</g>
</g>
<!-- Node118&#45;&gt;Node119 -->
<g id="edge6" class="edge">
<title>Node118&#45;&gt;Node119</title>
<path fill="none" stroke="#191970" d="M424.5309,-46.2116C457.6479,-46.6726 493.4785,-47.1714 518.8641,-47.5248"/>
<polygon fill="#191970" stroke="#191970" points="519.018,-51.0272 529.0657,-47.6668 519.1155,-44.0279 519.018,-51.0272"/>
</g>
<!-- Node120 -->
<g id="node8" class="node">
<title>Node120</title>
<g id="a_node8"><a xlink:href="../../d5/d4a/cl__minigames__hud_8qc.html#a720ff6280eba83f471cbce28b067333d" target="_top" xlink:title="HUD_MinigameMenu_SpawnEntry">
<polygon fill="none" stroke="#000000" points="462,-.5 462,-19.5 644,-19.5 644,-.5 462,-.5"/>
<text text-anchor="middle" x="553" y="-7.5" font-family="Helvetica,sans-Serif" font-size="10.00" fill="#000000">HUD_MinigameMenu_SpawnEntry</text>
</a>
</g>
</g>
<!-- Node118&#45;&gt;Node120 -->
<g id="edge8" class="edge">
<title>Node118&#45;&gt;Node120</title>
<path fill="none" stroke="#191970" d="M424.5309,-30.865C444.4337,-27.6326 465.3166,-24.2409 484.3233,-21.154"/>
<polygon fill="#191970" stroke="#191970" points="485.0632,-24.5798 494.3728,-19.5218 483.941,-17.6703 485.0632,-24.5798"/>
</g>
</g>
</svg>
        <g id="navigator" transform="translate(0 0)" fill="#404254">
                <rect fill="#f2f5e9" fill-opacity="0.5" stroke="#606060" stroke-width=".5" x="0" y="0" width="60" height="60"/>
                <use id="zoomplus" xlink:href="#zoomPlus" x="17" y="9" onmousedown="handleZoom(evt,'in')"/>
                <use id="zoomminus" xlink:href="#zoomMin" x="42" y="9" onmousedown="handleZoom(evt,'out')"/>
                <use id="reset" xlink:href="#resetDef" x="30" y="36" onmousedown="handleReset()"/>
                <g id="arrowUp" xlink:href="#dirArrow" transform="translate(30 24)" onmousedown="handlePan(0,-1)">
                  <use xlink:href="#rim" fill="#404040">
                        <set attributeName="fill" to="#808080" begin="arrowUp.mouseover" end="arrowUp.mouseout"/>
                  </use>
                  <path fill="none" stroke="white" stroke-width="1.5" d="M0,-3.0v7 M-2.5,-0.5L0,-3.0L2.5,-0.5"/>
                </g>
                <g id="arrowRight" xlink:href="#dirArrow" transform="rotate(90) translate(36 -43)" onmousedown="handlePan(1,0)">
                  <use xlink:href="#rim" fill="#404040">
                        <set attributeName="fill" to="#808080" begin="arrowRight.mouseover" end="arrowRight.mouseout"/>
                  </use>
                  <path fill="none" stroke="white" stroke-width="1.5" d="M0,-3.0v7 M-2.5,-0.5L0,-3.0L2.5,-0.5"/>
                </g>
                <g id="arrowDown" xlink:href="#dirArrow" transform="rotate(180) translate(-30 -48)" onmousedown="handlePan(0,1)">
                  <use xlink:href="#rim" fill="#404040">
                        <set attributeName="fill" to="#808080" begin="arrowDown.mouseover" end="arrowDown.mouseout"/>
                  </use>
                  <path fill="none" stroke="white" stroke-width="1.5" d="M0,-3.0v7 M-2.5,-0.5L0,-3.0L2.5,-0.5"/>
                </g>
                <g id="arrowLeft" xlink:href="#dirArrow" transform="rotate(270) translate(-36 17)" onmousedown="handlePan(-1,0)">
                  <use xlink:href="#rim" fill="#404040">
                        <set attributeName="fill" to="#808080" begin="arrowLeft.mouseover" end="arrowLeft.mouseout"/>
                  </use>
                  <path fill="none" stroke="white" stroke-width="1.5" d="M0,-3.0v7 M-2.5,-0.5L0,-3.0L2.5,-0.5"/>
                </g>
        </g>
        <svg viewBox="0 0 15 15" width="100%" height="30px" preserveAspectRatio="xMaxYMin meet">
         <g id="arrow_out" transform="scale(0.3 0.3)">
          <a xlink:href="cl__minigames__hud_8qc_a99f0bce41fdc5a77140f64f309d340ec_cgraph_org.svg" target="_base">
           <rect id="button" ry="5" rx="5" y="6" x="6" height="38" width="38"
                fill="#f2f5e9" fill-opacity="0.5" stroke="#606060" stroke-width="1.0"/>
           <path id="arrow"
             d="M 11.500037,31.436501 C 11.940474,20.09759 22.043105,11.32322 32.158766,21.979434 L 37.068811,17.246167 C 37.068811,17.246167 37.088388,32 37.088388,32 L 22.160133,31.978069 C 22.160133,31.978069 26.997745,27.140456 26.997745,27.140456 C 18.528582,18.264221 13.291696,25.230495 11.500037,31.436501 z"
             style="fill:#404040;"/>
          </a>
         </g>
        </svg>
</svg>
