<?xml version="1.0" encoding="UTF-8" standalone="no"?>
<!DOCTYPE svg PUBLIC "-//W3C//DTD SVG 1.1//EN"
 "http://www.w3.org/Graphics/SVG/1.1/DTD/svg11.dtd">
<!-- Generated by graphviz version 2.36.0 (20140111.2315)
 -->
<!-- Title: HUD_MinigameMenu_DrawColoredEntry Pages: 1 -->
<svg width="760pt" height="208pt"
 viewBox="0.00 0.00 760.00 208.00" xmlns="http://www.w3.org/2000/svg" xmlns:xlink="http://www.w3.org/1999/xlink">
<g id="graph0" class="graph" transform="scale(1 1) rotate(0) translate(4 204)">
<title>HUD_MinigameMenu_DrawColoredEntry</title>
<!-- Node1 -->
<g id="node1" class="node"><title>Node1</title>
<polygon fill="#bfbfbf" stroke="black" points="0.5,-137 0.5,-167 173.5,-167 173.5,-137 0.5,-137"/>
<text text-anchor="start" x="8.5" y="-155" font-family="Helvetica,sans-Serif" font-size="10.00">HUD_MinigameMenu_DrawColored</text>
<text text-anchor="middle" x="87" y="-144" font-family="Helvetica,sans-Serif" font-size="10.00">Entry</text>
</g>
<!-- Node2 -->
<g id="node2" class="node"><title>Node2</title>
<g id="a_node2"><a xlink:href="../../d4/db7/cl__minigames_8qc.html#a02caccc9afc8eec2f9c7ed6fc85eac95" target="_top" xlink:title="minigame_drawcolorcodedstring\l_trunc">
<polygon fill="none" stroke="black" points="210,-137 210,-167 366,-167 366,-137 210,-137"/>
<text text-anchor="start" x="218" y="-155" font-family="Helvetica,sans-Serif" font-size="10.00">minigame_drawcolorcodedstring</text>
<text text-anchor="middle" x="288" y="-144" font-family="Helvetica,sans-Serif" font-size="10.00">_trunc</text>
</a>
</g>
</g>
<!-- Node1&#45;&gt;Node2 -->
<g id="edge1" class="edge"><title>Node1&#45;&gt;Node2</title>
<path fill="none" stroke="midnightblue" d="M173.549,-152C182.256,-152 191.109,-152 199.833,-152"/>
<polygon fill="midnightblue" stroke="midnightblue" points="199.999,-155.5 209.999,-152 199.999,-148.5 199.999,-155.5"/>
</g>
<!-- Node3 -->
<g id="node3" class="node"><title>Node3</title>
<g id="a_node3"><a xlink:href="../../d8/de2/menudefs_8qc.html#a66804fbc3a76c60d59f50aa1bc4557d1" target="_top" xlink:title="drawcolorcodedstring">
<polygon fill="none" stroke="black" points="402.5,-180.5 402.5,-199.5 511.5,-199.5 511.5,-180.5 402.5,-180.5"/>
<text text-anchor="middle" x="457" y="-187.5" font-family="Helvetica,sans-Serif" font-size="10.00">drawcolorcodedstring</text>
</a>
</g>
</g>
<!-- Node2&#45;&gt;Node3 -->
<g id="edge2" class="edge"><title>Node2&#45;&gt;Node3</title>
<path fill="none" stroke="midnightblue" d="M355.003,-167.019C371.307,-170.728 388.542,-174.65 404.07,-178.184"/>
<polygon fill="midnightblue" stroke="midnightblue" points="403.473,-181.637 414,-180.443 405.026,-174.812 403.473,-181.637"/>
</g>
<!-- Node4 -->
<g id="node4" class="node"><title>Node4</title>
<g id="a_node4"><a xlink:href="../../d3/d05/hud_8qh.html#af74c7e53de726f384aa8ad37571c783a" target="_top" xlink:title="stringwidth_colors">
<polygon fill="none" stroke="black" points="409.5,-142.5 409.5,-161.5 504.5,-161.5 504.5,-142.5 409.5,-142.5"/>
<text text-anchor="middle" x="457" y="-149.5" font-family="Helvetica,sans-Serif" font-size="10.00">stringwidth_colors</text>
</a>
</g>
</g>
<!-- Node2&#45;&gt;Node4 -->
<g id="edge3" class="edge"><title>Node2&#45;&gt;Node4</title>
<path fill="none" stroke="midnightblue" d="M366.145,-152C377.17,-152 388.343,-152 398.89,-152"/>
<polygon fill="midnightblue" stroke="midnightblue" points="399.2,-155.5 409.2,-152 399.2,-148.5 399.2,-155.5"/>
</g>
<!-- Node6 -->
<g id="node6" class="node"><title>Node6</title>
<g id="a_node6"><a xlink:href="../../da/d44/common_2util_8qc.html#a73cc543cc744ae536ed0ef34b8d481c4" target="_top" xlink:title="textShortenToWidth">
<polygon fill="none" stroke="black" points="405,-85.5 405,-104.5 509,-104.5 509,-85.5 405,-85.5"/>
<text text-anchor="middle" x="457" y="-92.5" font-family="Helvetica,sans-Serif" font-size="10.00">textShortenToWidth</text>
</a>
</g>
</g>
<!-- Node2&#45;&gt;Node6 -->
<g id="edge5" class="edge"><title>Node2&#45;&gt;Node6</title>
<path fill="none" stroke="midnightblue" d="M333.314,-136.875C359.845,-127.819 393.2,-116.435 418.433,-107.822"/>
<polygon fill="midnightblue" stroke="midnightblue" points="419.683,-111.094 428.016,-104.551 417.422,-104.469 419.683,-111.094"/>
</g>
<!-- Node5 -->
<g id="node5" class="node"><title>Node5</title>
<g id="a_node5"><a xlink:href="../../d4/d0c/csprogsdefs_8qc.html#a94a1345eb27474381462657533afc25c" target="_top" xlink:title="stringwidth">
<polygon fill="none" stroke="black" points="572,-152.5 572,-171.5 636,-171.5 636,-152.5 572,-152.5"/>
<text text-anchor="middle" x="604" y="-159.5" font-family="Helvetica,sans-Serif" font-size="10.00">stringwidth</text>
</a>
</g>
</g>
<!-- Node4&#45;&gt;Node5 -->
<g id="edge4" class="edge"><title>Node4&#45;&gt;Node5</title>
<path fill="none" stroke="midnightblue" d="M504.677,-155.219C523.086,-156.489 544.05,-157.934 561.878,-159.164"/>
<polygon fill="midnightblue" stroke="midnightblue" points="561.752,-162.664 571.969,-159.86 562.233,-155.68 561.752,-162.664"/>
</g>
<!-- Node7 -->
<g id="node7" class="node"><title>Node7</title>
<g id="a_node7"><a xlink:href="../../dd/d87/effectinfo_8qc.html#a2ae584d3dad891f2ae754acead0f015a" target="_top" xlink:title="strcat">
<polygon fill="none" stroke="black" points="583.5,-114.5 583.5,-133.5 624.5,-133.5 624.5,-114.5 583.5,-114.5"/>
<text text-anchor="middle" x="604" y="-121.5" font-family="Helvetica,sans-Serif" font-size="10.00">strcat</text>
</a>
</g>
</g>
<!-- Node6&#45;&gt;Node7 -->
<g id="edge6" class="edge"><title>Node6&#45;&gt;Node7</title>
<path fill="none" stroke="midnightblue" d="M505.88,-104.576C528.153,-109.031 553.943,-114.189 573.347,-118.069"/>
<polygon fill="midnightblue" stroke="midnightblue" points="572.915,-121.552 583.407,-120.081 574.288,-114.688 572.915,-121.552"/>
</g>
<!-- Node8 -->
<g id="node8" class="node"><title>Node8</title>
<g id="a_node8"><a xlink:href="../../d8/de2/menudefs_8qc.html#a40f6c65c8bbcfa51df783f2809a2502b" target="_top" xlink:title="substring">
<polygon fill="none" stroke="black" points="696,-76.5 696,-95.5 752,-95.5 752,-76.5 696,-76.5"/>
<text text-anchor="middle" x="724" y="-83.5" font-family="Helvetica,sans-Serif" font-size="10.00">substring</text>
</a>
</g>
</g>
<!-- Node6&#45;&gt;Node8 -->
<g id="edge7" class="edge"><title>Node6&#45;&gt;Node8</title>
<path fill="none" stroke="midnightblue" d="M509.095,-93.2647C560.862,-91.5066 639.695,-88.8292 685.81,-87.263"/>
<polygon fill="midnightblue" stroke="midnightblue" points="686.087,-90.7558 695.963,-86.9182 685.85,-83.7598 686.087,-90.7558"/>
</g>
<!-- Node9 -->
<g id="node9" class="node"><title>Node9</title>
<g id="a_node9"><a xlink:href="../../da/d44/common_2util_8qc.html#ab6502642132678c20db7fd26c09ddcf0" target="_top" xlink:title="textLengthUpToWidth">
<polygon fill="none" stroke="black" points="548,-38.5 548,-57.5 660,-57.5 660,-38.5 548,-38.5"/>
<text text-anchor="middle" x="604" y="-45.5" font-family="Helvetica,sans-Serif" font-size="10.00">textLengthUpToWidth</text>
</a>
</g>
</g>
<!-- Node6&#45;&gt;Node9 -->
<g id="edge8" class="edge"><title>Node6&#45;&gt;Node9</title>
<path fill="none" stroke="midnightblue" d="M487.343,-85.4888C509.381,-78.3456 539.783,-68.491 563.887,-60.6782"/>
<polygon fill="midnightblue" stroke="midnightblue" points="565.019,-63.9905 573.452,-57.5776 562.86,-57.3316 565.019,-63.9905"/>
</g>
<!-- Node9&#45;&gt;Node8 -->
<g id="edge11" class="edge"><title>Node9&#45;&gt;Node8</title>
<path fill="none" stroke="midnightblue" d="M634.776,-57.589C650.268,-62.5779 669.356,-68.725 685.811,-74.0238"/>
<polygon fill="midnightblue" stroke="midnightblue" points="685.068,-77.4616 695.66,-77.1955 687.214,-70.7986 685.068,-77.4616"/>
</g>
<!-- Node10 -->
<g id="node10" class="node"><title>Node10</title>
<g id="a_node10"><a xlink:href="../../d8/de2/menudefs_8qc.html#a274680f571a231ddf29421b93d434bfa" target="_top" xlink:title="strlen">
<polygon fill="none" stroke="black" points="703.5,-38.5 703.5,-57.5 744.5,-57.5 744.5,-38.5 703.5,-38.5"/>
<text text-anchor="middle" x="724" y="-45.5" font-family="Helvetica,sans-Serif" font-size="10.00">strlen</text>
</a>
</g>
</g>
<!-- Node9&#45;&gt;Node10 -->
<g id="edge9" class="edge"><title>Node9&#45;&gt;Node10</title>
<path fill="none" stroke="midnightblue" d="M660.2,-48C671.564,-48 683.118,-48 693.164,-48"/>
<polygon fill="midnightblue" stroke="midnightblue" points="693.394,-51.5001 703.394,-48 693.394,-44.5001 693.394,-51.5001"/>
</g>
<!-- Node11 -->
<g id="node11" class="node"><title>Node11</title>
<g id="a_node11"><a xlink:href="../../d8/de2/menudefs_8qc.html#ad5a3e16aa960bd72d3ca37a618eea802" target="_top" xlink:title="floor">
<polygon fill="none" stroke="black" points="706.5,-0.5 706.5,-19.5 741.5,-19.5 741.5,-0.5 706.5,-0.5"/>
<text text-anchor="middle" x="724" y="-7.5" font-family="Helvetica,sans-Serif" font-size="10.00">floor</text>
</a>
</g>
</g>
<!-- Node9&#45;&gt;Node11 -->
<g id="edge10" class="edge"><title>Node9&#45;&gt;Node11</title>
<path fill="none" stroke="midnightblue" d="M634.776,-38.411C653.813,-32.2805 678.281,-24.4012 696.618,-18.496"/>
<polygon fill="midnightblue" stroke="midnightblue" points="697.914,-21.7557 706.359,-15.3589 695.768,-15.0927 697.914,-21.7557"/>
</g>
</g>
</svg>
