<?xml version="1.0" encoding="UTF-8" standalone="no"?>
<!DOCTYPE svg PUBLIC "-//W3C//DTD SVG 1.1//EN"
 "http://www.w3.org/Graphics/SVG/1.1/DTD/svg11.dtd">
<!-- Generated by graphviz version 2.38.0 (20140413.2041)
 -->
<!-- Title: buff_Waypoint_Spawn Pages: 1 -->
<svg width="1701pt" height="668pt"
 viewBox="0.00 0.00 1701.00 668.00" xmlns="http://www.w3.org/2000/svg" xmlns:xlink="http://www.w3.org/1999/xlink">
<g id="graph0" class="graph" transform="scale(1 1) rotate(0) translate(4 664)">
<title>buff_Waypoint_Spawn</title>
<!-- Node1 -->
<g id="node1" class="node"><title>Node1</title>
<polygon fill="#bfbfbf" stroke="black" points="0,-388.5 0,-407.5 119,-407.5 119,-388.5 0,-388.5"/>
<text text-anchor="middle" x="59.5" y="-395.5" font-family="Helvetica,sans-Serif" font-size="10.00">buff_Waypoint_Spawn</text>
</g>
<!-- Node2 -->
<g id="node2" class="node"><title>Node2</title>
<g id="a_node2"><a xlink:href="../../d4/d0f/buffs_8qc.html#afd7d0f110617f66bd6efce062d5d16e7" target="_top" xlink:title="buff_FirstFromFlags">
<polygon fill="none" stroke="black" points="159.5,-426.5 159.5,-445.5 267.5,-445.5 267.5,-426.5 159.5,-426.5"/>
<text text-anchor="middle" x="213.5" y="-433.5" font-family="Helvetica,sans-Serif" font-size="10.00">buff_FirstFromFlags</text>
</a>
</g>
</g>
<!-- Node1&#45;&gt;Node2 -->
<g id="edge1" class="edge"><title>Node1&#45;&gt;Node2</title>
<path fill="none" stroke="midnightblue" d="M98.856,-407.589C118.824,-412.581 143.43,-418.732 164.633,-424.033"/>
<polygon fill="midnightblue" stroke="midnightblue" points="163.869,-427.45 174.42,-426.48 165.567,-420.659 163.869,-427.45"/>
</g>
<!-- Node3 -->
<g id="node3" class="node"><title>Node3</title>
<g id="a_node3"><a xlink:href="../../d2/dac/sv__buffs_8qc.html#a6f90c6fb5218e61586d69ddef8a870d9" target="_top" xlink:title="buff_Waypoint_visible\l_for_player">
<polygon fill="none" stroke="black" points="155,-318 155,-348 272,-348 272,-318 155,-318"/>
<text text-anchor="start" x="163" y="-336" font-family="Helvetica,sans-Serif" font-size="10.00">buff_Waypoint_visible</text>
<text text-anchor="middle" x="213.5" y="-325" font-family="Helvetica,sans-Serif" font-size="10.00">_for_player</text>
</a>
</g>
</g>
<!-- Node1&#45;&gt;Node3 -->
<g id="edge2" class="edge"><title>Node1&#45;&gt;Node3</title>
<path fill="none" stroke="midnightblue" d="M82.9281,-388.409C105.163,-378.901 139.846,-364.069 167.735,-352.143"/>
<polygon fill="midnightblue" stroke="midnightblue" points="169.467,-355.209 177.285,-348.059 166.714,-348.773 169.467,-355.209"/>
</g>
<!-- Node6 -->
<g id="node6" class="node"><title>Node6</title>
<g id="a_node6"><a xlink:href="../../d4/d0c/csprogsdefs_8qc.html#acbb54a239d76062465dccbc6a6c6e464" target="_top" xlink:title="entity">
<polygon fill="none" stroke="black" points="406,-410.5 406,-429.5 450,-429.5 450,-410.5 406,-410.5"/>
<text text-anchor="middle" x="428" y="-417.5" font-family="Helvetica,sans-Serif" font-size="10.00">entity</text>
</a>
</g>
</g>
<!-- Node1&#45;&gt;Node6 -->
<g id="edge63" class="edge"><title>Node1&#45;&gt;Node6</title>
<path fill="none" stroke="midnightblue" d="M119.385,-401.535C198.029,-406.255 334.537,-414.45 395.74,-418.124"/>
<polygon fill="midnightblue" stroke="midnightblue" points="395.729,-421.629 405.921,-418.735 396.148,-414.642 395.729,-421.629"/>
</g>
<!-- Node4 -->
<g id="node4" class="node"><title>Node4</title>
<g id="a_node4"><a xlink:href="../../db/d9f/state_8qh.html#afdb90637f8a711359249291ee3b3fde6" target="_top" xlink:title="CS">
<polygon fill="none" stroke="black" points="308,-281.5 308,-300.5 338,-300.5 338,-281.5 308,-281.5"/>
<text text-anchor="middle" x="323" y="-288.5" font-family="Helvetica,sans-Serif" font-size="10.00">CS</text>
</a>
</g>
</g>
<!-- Node3&#45;&gt;Node4 -->
<g id="edge3" class="edge"><title>Node3&#45;&gt;Node4</title>
<path fill="none" stroke="midnightblue" d="M253.006,-317.956C268.177,-312.029 285.114,-305.411 298.41,-300.217"/>
<polygon fill="midnightblue" stroke="midnightblue" points="299.738,-303.455 307.779,-296.556 297.191,-296.935 299.738,-303.455"/>
</g>
<!-- Node5 -->
<g id="node5" class="node"><title>Node5</title>
<g id="a_node5"><a xlink:href="../../db/d9f/state_8qh.html#afc32312bf25df126b18e078bedab7837" target="_top" xlink:title="ClientState_attach">
<polygon fill="none" stroke="black" points="375,-281.5 375,-300.5 481,-300.5 481,-281.5 375,-281.5"/>
<text text-anchor="middle" x="428" y="-288.5" font-family="Helvetica,sans-Serif" font-size="10.00">ClientState_attach</text>
</a>
</g>
</g>
<!-- Node4&#45;&gt;Node5 -->
<g id="edge4" class="edge"><title>Node4&#45;&gt;Node5</title>
<path fill="none" stroke="midnightblue" d="M338.322,-291C345.46,-291 354.639,-291 364.375,-291"/>
<polygon fill="midnightblue" stroke="midnightblue" points="364.661,-294.5 374.661,-291 364.661,-287.5 364.661,-294.5"/>
</g>
<!-- Node4&#45;&gt;Node6 -->
<g id="edge5" class="edge"><title>Node4&#45;&gt;Node6</title>
<path fill="none" stroke="midnightblue" d="M326.219,-300.722C331.303,-320.982 345.606,-368.146 374,-396 380.254,-402.135 388.354,-406.868 396.332,-410.444"/>
<polygon fill="midnightblue" stroke="midnightblue" points="395.284,-413.795 405.869,-414.25 397.878,-407.293 395.284,-413.795"/>
</g>
<!-- Node7 -->
<g id="node7" class="node"><title>Node7</title>
<g id="a_node7"><a xlink:href="../../db/d9f/state_8qh.html#ae17cd2d1c2291942edc23455fc1db486" target="_top" xlink:title="ClientState_detach">
<polygon fill="none" stroke="black" points="374,-190.5 374,-209.5 482,-209.5 482,-190.5 374,-190.5"/>
<text text-anchor="middle" x="428" y="-197.5" font-family="Helvetica,sans-Serif" font-size="10.00">ClientState_detach</text>
</a>
</g>
</g>
<!-- Node4&#45;&gt;Node7 -->
<g id="edge6" class="edge"><title>Node4&#45;&gt;Node7</title>
<path fill="none" stroke="midnightblue" d="M330.758,-281.47C344.948,-265.7 378.471,-235.307 401.941,-216.252"/>
<polygon fill="midnightblue" stroke="midnightblue" points="404.421,-218.752 410.078,-209.794 400.07,-213.269 404.421,-218.752"/>
</g>
<!-- Node7&#45;&gt;Node4 -->
<g id="edge53" class="edge"><title>Node7&#45;&gt;Node4</title>
<path fill="none" stroke="midnightblue" d="M420.057,-209.736C405.2,-226.186 369.775,-258.175 346.349,-276.933"/>
<polygon fill="midnightblue" stroke="midnightblue" points="344.056,-274.283 338.322,-283.192 348.36,-279.803 344.056,-274.283"/>
</g>
<!-- Node8 -->
<g id="node8" class="node"><title>Node8</title>
<g id="a_node8"><a xlink:href="../../d9/d89/getreplies_8qc.html#a9493fdb8b379fd22c688da7be4fc7782" target="_top" xlink:title="GetCvars">
<polygon fill="none" stroke="black" points="556,-266.5 556,-285.5 617,-285.5 617,-266.5 556,-266.5"/>
<text text-anchor="middle" x="586.5" y="-273.5" font-family="Helvetica,sans-Serif" font-size="10.00">GetCvars</text>
</a>
</g>
</g>
<!-- Node7&#45;&gt;Node8 -->
<g id="edge7" class="edge"><title>Node7&#45;&gt;Node8</title>
<path fill="none" stroke="midnightblue" d="M441.294,-209.558C457.873,-222.041 488.707,-243.848 518,-257 526.809,-260.955 536.638,-264.283 546.01,-266.993"/>
<polygon fill="midnightblue" stroke="midnightblue" points="545.363,-270.444 555.931,-269.691 547.2,-263.689 545.363,-270.444"/>
</g>
<!-- Node34 -->
<g id="node34" class="node"><title>Node34</title>
<g id="a_node34"><a xlink:href="../../d0/d3f/state_8qc.html#a34f4025222e4edd5d1dcee5b90656bec" target="_top" xlink:title="accuracy_free">
<polygon fill="none" stroke="black" points="545,-228.5 545,-247.5 628,-247.5 628,-228.5 545,-228.5"/>
<text text-anchor="middle" x="586.5" y="-235.5" font-family="Helvetica,sans-Serif" font-size="10.00">accuracy_free</text>
</a>
</g>
</g>
<!-- Node7&#45;&gt;Node34 -->
<g id="edge54" class="edge"><title>Node7&#45;&gt;Node34</title>
<path fill="none" stroke="midnightblue" d="M468.492,-209.589C489.143,-214.604 514.614,-220.788 536.512,-226.105"/>
<polygon fill="midnightblue" stroke="midnightblue" points="535.749,-229.521 546.292,-228.48 537.401,-222.719 535.749,-229.521"/>
</g>
<!-- Node35 -->
<g id="node35" class="node"><title>Node35</title>
<g id="a_node35"><a xlink:href="../../d0/d3f/state_8qc.html#a7fd595275a5ab3b24efdf5dc24933c46" target="_top" xlink:title="PlayerScore_Detach">
<polygon fill="none" stroke="black" points="530,-190.5 530,-209.5 643,-209.5 643,-190.5 530,-190.5"/>
<text text-anchor="middle" x="586.5" y="-197.5" font-family="Helvetica,sans-Serif" font-size="10.00">PlayerScore_Detach</text>
</a>
</g>
</g>
<!-- Node7&#45;&gt;Node35 -->
<g id="edge55" class="edge"><title>Node7&#45;&gt;Node35</title>
<path fill="none" stroke="midnightblue" d="M482.421,-200C494.389,-200 507.221,-200 519.627,-200"/>
<polygon fill="midnightblue" stroke="midnightblue" points="519.92,-203.5 529.92,-200 519.92,-196.5 519.92,-203.5"/>
</g>
<!-- Node36 -->
<g id="node36" class="node"><title>Node36</title>
<g id="a_node36"><a xlink:href="../../d0/d3f/state_8qc.html#a8fe4ed7866766d38e6cf3bfd1c4b239e" target="_top" xlink:title="W_HitPlotClose">
<polygon fill="none" stroke="black" points="542.5,-152.5 542.5,-171.5 630.5,-171.5 630.5,-152.5 542.5,-152.5"/>
<text text-anchor="middle" x="586.5" y="-159.5" font-family="Helvetica,sans-Serif" font-size="10.00">W_HitPlotClose</text>
</a>
</g>
</g>
<!-- Node7&#45;&gt;Node36 -->
<g id="edge56" class="edge"><title>Node7&#45;&gt;Node36</title>
<path fill="none" stroke="midnightblue" d="M468.492,-190.411C489.143,-185.396 514.614,-179.212 536.512,-173.895"/>
<polygon fill="midnightblue" stroke="midnightblue" points="537.401,-177.281 546.292,-171.52 535.749,-170.479 537.401,-177.281"/>
</g>
<!-- Node37 -->
<g id="node37" class="node"><title>Node37</title>
<g id="a_node37"><a xlink:href="../../d0/d3f/state_8qc.html#a493d87cfdaad13d4de171211f5f7bc4d" target="_top" xlink:title="ClientData_Detach">
<polygon fill="none" stroke="black" points="533,-0.5 533,-19.5 640,-19.5 640,-0.5 533,-0.5"/>
<text text-anchor="middle" x="586.5" y="-7.5" font-family="Helvetica,sans-Serif" font-size="10.00">ClientData_Detach</text>
</a>
</g>
</g>
<!-- Node7&#45;&gt;Node37 -->
<g id="edge57" class="edge"><title>Node7&#45;&gt;Node37</title>
<path fill="none" stroke="midnightblue" d="M434.174,-190.377C443.725,-172.585 464.726,-133.317 482,-100 498.285,-68.5905 490.667,-51.465 518,-29 520.057,-27.309 522.256,-25.7683 524.557,-24.3646"/>
<polygon fill="midnightblue" stroke="midnightblue" points="526.55,-27.2758 533.854,-19.6006 523.358,-21.046 526.55,-27.2758"/>
</g>
<!-- Node38 -->
<g id="node38" class="node"><title>Node38</title>
<g id="a_node38"><a xlink:href="../../d0/d3f/state_8qc.html#ac87f3b0e72460f99913d0a56abac6990" target="_top" xlink:title="entcs_detach">
<polygon fill="none" stroke="black" points="546,-114.5 546,-133.5 627,-133.5 627,-114.5 546,-114.5"/>
<text text-anchor="middle" x="586.5" y="-121.5" font-family="Helvetica,sans-Serif" font-size="10.00">entcs_detach</text>
</a>
</g>
</g>
<!-- Node7&#45;&gt;Node38 -->
<g id="edge59" class="edge"><title>Node7&#45;&gt;Node38</title>
<path fill="none" stroke="midnightblue" d="M441.294,-190.442C457.873,-177.959 488.707,-156.152 518,-143 523.758,-140.415 529.952,-138.098 536.169,-136.046"/>
<polygon fill="midnightblue" stroke="midnightblue" points="537.378,-139.335 545.9,-133.039 535.312,-132.647 537.378,-139.335"/>
</g>
<!-- Node39 -->
<g id="node39" class="node"><title>Node39</title>
<g id="a_node39"><a xlink:href="../../d0/d3f/state_8qc.html#ab6fc1ce2d31f2ad186b1180bda5b9021" target="_top" xlink:title="InventoryStorage_detach">
<polygon fill="none" stroke="black" points="518,-76.5 518,-95.5 655,-95.5 655,-76.5 518,-76.5"/>
<text text-anchor="middle" x="586.5" y="-83.5" font-family="Helvetica,sans-Serif" font-size="10.00">InventoryStorage_detach</text>
</a>
</g>
</g>
<!-- Node7&#45;&gt;Node39 -->
<g id="edge60" class="edge"><title>Node7&#45;&gt;Node39</title>
<path fill="none" stroke="midnightblue" d="M435.337,-190.288C448.414,-171.03 480.341,-127.892 518,-105 521.57,-102.83 525.395,-100.901 529.343,-99.1861"/>
<polygon fill="midnightblue" stroke="midnightblue" points="530.651,-102.433 538.717,-95.5633 528.128,-95.9037 530.651,-102.433"/>
</g>
<!-- Node40 -->
<g id="node40" class="node"><title>Node40</title>
<g id="a_node40"><a xlink:href="../../d0/d3f/state_8qc.html#ab10bcd46b240e1fd8154de39ddd5c40e" target="_top" xlink:title="bot_clientdisconnect">
<polygon fill="none" stroke="black" points="529,-38.5 529,-57.5 644,-57.5 644,-38.5 529,-38.5"/>
<text text-anchor="middle" x="586.5" y="-45.5" font-family="Helvetica,sans-Serif" font-size="10.00">bot_clientdisconnect</text>
</a>
</g>
</g>
<!-- Node7&#45;&gt;Node40 -->
<g id="edge61" class="edge"><title>Node7&#45;&gt;Node40</title>
<path fill="none" stroke="midnightblue" d="M432.701,-190.25C442.562,-165.614 471.902,-100.45 518,-67 520.66,-65.0695 523.51,-63.3349 526.481,-61.7763"/>
<polygon fill="midnightblue" stroke="midnightblue" points="528.017,-64.923 535.682,-57.6088 525.128,-58.5466 528.017,-64.923"/>
</g>
<!-- Node41 -->
<g id="node41" class="node"><title>Node41</title>
<g id="a_node41"><a xlink:href="../../d0/d3f/state_8qc.html#abbd5a2c9639d75d5ac7e98fbd60856ab" target="_top" xlink:title="anticheat_report_to\l_eventlog">
<polygon fill="none" stroke="black" points="531,-323 531,-353 642,-353 642,-323 531,-323"/>
<text text-anchor="start" x="539" y="-341" font-family="Helvetica,sans-Serif" font-size="10.00">anticheat_report_to</text>
<text text-anchor="middle" x="586.5" y="-330" font-family="Helvetica,sans-Serif" font-size="10.00">_eventlog</text>
</a>
</g>
</g>
<!-- Node7&#45;&gt;Node41 -->
<g id="edge62" class="edge"><title>Node7&#45;&gt;Node41</title>
<path fill="none" stroke="midnightblue" d="M436.106,-209.622C455.309,-235.537 507.501,-305.358 518,-313 520.627,-314.912 523.417,-316.694 526.309,-318.351"/>
<polygon fill="midnightblue" stroke="midnightblue" points="524.741,-321.481 535.233,-322.961 527.954,-315.262 524.741,-321.481"/>
</g>
<!-- Node8&#45;&gt;Node8 -->
<g id="edge10" class="edge"><title>Node8&#45;&gt;Node8</title>
<path fill="none" stroke="midnightblue" d="M562.148,-285.757C550.301,-294.565 558.418,-304 586.5,-304 604.929,-304 614.76,-299.937 615.992,-294.654"/>
<polygon fill="midnightblue" stroke="midnightblue" points="618.886,-292.665 610.852,-285.757 612.824,-296.167 618.886,-292.665"/>
</g>
<!-- Node9 -->
<g id="node9" class="node"><title>Node9</title>
<g id="a_node9"><a xlink:href="../../d1/dd8/server_2main_8qh.html#a9974b20c57efacc64d84960329620554" target="_top" xlink:title="strcat1">
<polygon fill="none" stroke="black" points="981.5,-244.5 981.5,-263.5 1031.5,-263.5 1031.5,-244.5 981.5,-244.5"/>
<text text-anchor="middle" x="1006.5" y="-251.5" font-family="Helvetica,sans-Serif" font-size="10.00">strcat1</text>
</a>
</g>
</g>
<!-- Node8&#45;&gt;Node9 -->
<g id="edge8" class="edge"><title>Node8&#45;&gt;Node9</title>
<path fill="none" stroke="midnightblue" d="M617.226,-274.435C692.643,-270.466 891.102,-260.021 971.224,-255.804"/>
<polygon fill="midnightblue" stroke="midnightblue" points="971.476,-259.296 981.279,-255.275 971.109,-252.305 971.476,-259.296"/>
</g>
<!-- Node10 -->
<g id="node10" class="node"><title>Node10</title>
<g id="a_node10"><a xlink:href="../../d8/de2/menudefs_8qc.html#ae3e9d36eda7886f5fe58e5201291dd78" target="_top" xlink:title="argv">
<polygon fill="none" stroke="black" points="1613,-236.5 1613,-255.5 1651,-255.5 1651,-236.5 1613,-236.5"/>
<text text-anchor="middle" x="1632" y="-243.5" font-family="Helvetica,sans-Serif" font-size="10.00">argv</text>
</a>
</g>
</g>
<!-- Node8&#45;&gt;Node10 -->
<g id="edge9" class="edge"><title>Node8&#45;&gt;Node10</title>
<path fill="none" stroke="midnightblue" d="M617.135,-272.926C629.89,-270.356 644.296,-265.641 655,-257 681.609,-235.521 662.249,-207.514 691,-189 808.733,-113.184 865.467,-170 1005.5,-170 1005.5,-170 1005.5,-170 1232.5,-170 1367.21,-170 1406.28,-149.285 1535,-189 1563.49,-197.791 1592.41,-216.598 1610.95,-230.21"/>
<polygon fill="midnightblue" stroke="midnightblue" points="1609.08,-233.183 1619.17,-236.408 1613.29,-227.593 1609.08,-233.183"/>
</g>
<!-- Node11 -->
<g id="node11" class="node"><title>Node11</title>
<g id="a_node11"><a xlink:href="../../d9/d89/getreplies_8qc.html#aad818a177c42603ffc7dc6e34406c050" target="_top" xlink:title="GetCvars_handleString\l_Fixup">
<polygon fill="none" stroke="black" points="720,-199 720,-229 847,-229 847,-199 720,-199"/>
<text text-anchor="start" x="728" y="-217" font-family="Helvetica,sans-Serif" font-size="10.00">GetCvars_handleString</text>
<text text-anchor="middle" x="783.5" y="-206" font-family="Helvetica,sans-Serif" font-size="10.00">_Fixup</text>
</a>
</g>
</g>
<!-- Node8&#45;&gt;Node11 -->
<g id="edge11" class="edge"><title>Node8&#45;&gt;Node11</title>
<path fill="none" stroke="midnightblue" d="M617.21,-268.135C629.028,-264.877 642.712,-260.942 655,-257 671.198,-251.803 674.916,-249.539 691,-244 702.237,-240.13 714.29,-236.096 725.838,-232.287"/>
<polygon fill="midnightblue" stroke="midnightblue" points="726.983,-235.595 735.391,-229.149 724.799,-228.944 726.983,-235.595"/>
</g>
<!-- Node14 -->
<g id="node14" class="node"><title>Node14</title>
<g id="a_node14"><a xlink:href="../../d9/d89/getreplies_8qc.html#aa4ac3dd1f661621de6a9f2bf5e6fb289" target="_top" xlink:title="W_FixWeaponOrder_ForceComplete\l_AndBuildImpulseList">
<polygon fill="none" stroke="black" points="691,-367 691,-397 876,-397 876,-367 691,-367"/>
<text text-anchor="start" x="699" y="-385" font-family="Helvetica,sans-Serif" font-size="10.00">W_FixWeaponOrder_ForceComplete</text>
<text text-anchor="middle" x="783.5" y="-374" font-family="Helvetica,sans-Serif" font-size="10.00">_AndBuildImpulseList</text>
</a>
</g>
</g>
<!-- Node8&#45;&gt;Node14 -->
<g id="edge16" class="edge"><title>Node8&#45;&gt;Node14</title>
<path fill="none" stroke="midnightblue" d="M608.505,-285.58C622.318,-292.336 640.459,-302.096 655,-313 673.103,-326.575 671.898,-336.87 691,-349 699.642,-354.488 709.323,-359.228 719.065,-363.265"/>
<polygon fill="midnightblue" stroke="midnightblue" points="717.806,-366.531 728.393,-366.923 720.361,-360.014 717.806,-366.531"/>
</g>
<!-- Node32 -->
<g id="node32" class="node"><title>Node32</title>
<g id="a_node32"><a xlink:href="../../d0/d2b/weapons_2all_8qc.html#a07ee4c440c94f2f2ec9997912dfde9e9" target="_top" xlink:title="W_FixWeaponOrder_AllowIncomplete">
<polygon fill="none" stroke="black" points="912,-411.5 912,-430.5 1101,-430.5 1101,-411.5 912,-411.5"/>
<text text-anchor="middle" x="1006.5" y="-418.5" font-family="Helvetica,sans-Serif" font-size="10.00">W_FixWeaponOrder_AllowIncomplete</text>
</a>
</g>
</g>
<!-- Node8&#45;&gt;Node32 -->
<g id="edge47" class="edge"><title>Node8&#45;&gt;Node32</title>
<path fill="none" stroke="midnightblue" d="M615.015,-285.61C635.779,-292.722 665.03,-302.445 691,-310 772.457,-333.697 796.423,-327.6 876,-357 913.338,-370.795 954.158,-392.086 979.788,-406.275"/>
<polygon fill="midnightblue" stroke="midnightblue" points="978.393,-409.505 988.829,-411.335 981.812,-403.397 978.393,-409.505"/>
</g>
<!-- Node33 -->
<g id="node33" class="node"><title>Node33</title>
<g id="a_node33"><a xlink:href="../../d9/d89/getreplies_8qc.html#a87f18211483cf0fc854225867b1e7015" target="_top" xlink:title="GetCvars_handleFloat">
<polygon fill="none" stroke="black" points="1387.5,-236.5 1387.5,-255.5 1509.5,-255.5 1509.5,-236.5 1387.5,-236.5"/>
<text text-anchor="middle" x="1448.5" y="-243.5" font-family="Helvetica,sans-Serif" font-size="10.00">GetCvars_handleFloat</text>
</a>
</g>
</g>
<!-- Node8&#45;&gt;Node33 -->
<g id="edge49" class="edge"><title>Node8&#45;&gt;Node33</title>
<path fill="none" stroke="midnightblue" d="M617.384,-277.461C638.052,-278.396 666.189,-279.521 691,-280 873.215,-283.52 919.021,-282.915 1101,-273 1196.9,-267.775 1307.5,-258.609 1377.45,-252.423"/>
<polygon fill="midnightblue" stroke="midnightblue" points="1377.81,-255.905 1387.46,-251.533 1377.19,-248.932 1377.81,-255.905"/>
</g>
<!-- Node11&#45;&gt;Node9 -->
<g id="edge15" class="edge"><title>Node11&#45;&gt;Node9</title>
<path fill="none" stroke="midnightblue" d="M847.239,-225.355C887.541,-232.65 938.34,-241.844 971.351,-247.819"/>
<polygon fill="midnightblue" stroke="midnightblue" points="970.945,-251.303 981.409,-249.64 972.192,-244.414 970.945,-251.303"/>
</g>
<!-- Node12 -->
<g id="node12" class="node"><title>Node12</title>
<g id="a_node12"><a xlink:href="../../d9/d89/getreplies_8qc.html#a7c662280a4c259425dad12e0d007f13a" target="_top" xlink:title="GetCvars_handleString">
<polygon fill="none" stroke="black" points="1385,-198.5 1385,-217.5 1512,-217.5 1512,-198.5 1385,-198.5"/>
<text text-anchor="middle" x="1448.5" y="-205.5" font-family="Helvetica,sans-Serif" font-size="10.00">GetCvars_handleString</text>
</a>
</g>
</g>
<!-- Node11&#45;&gt;Node12 -->
<g id="edge12" class="edge"><title>Node11&#45;&gt;Node12</title>
<path fill="none" stroke="midnightblue" d="M847.172,-213.433C970.371,-212.318 1243.48,-209.846 1374.55,-208.66"/>
<polygon fill="midnightblue" stroke="midnightblue" points="1374.91,-212.157 1384.88,-208.567 1374.85,-205.157 1374.91,-212.157"/>
</g>
<!-- Node12&#45;&gt;Node10 -->
<g id="edge13" class="edge"><title>Node12&#45;&gt;Node10</title>
<path fill="none" stroke="midnightblue" d="M1495.3,-217.589C1529.01,-224.647 1573.79,-234.022 1602.51,-240.035"/>
<polygon fill="midnightblue" stroke="midnightblue" points="1602.17,-243.539 1612.67,-242.163 1603.6,-236.688 1602.17,-243.539"/>
</g>
<!-- Node13 -->
<g id="node13" class="node"><title>Node13</title>
<g id="a_node13"><a xlink:href="../../d9/d09/notifications_2all_8inc.html#ad04f6b1a4889674503c3cdad58c55da1" target="_top" xlink:title="strcat">
<polygon fill="none" stroke="black" points="1610,-302.5 1610,-321.5 1654,-321.5 1654,-302.5 1610,-302.5"/>
<text text-anchor="middle" x="1632" y="-309.5" font-family="Helvetica,sans-Serif" font-size="10.00">strcat</text>
</a>
</g>
</g>
<!-- Node12&#45;&gt;Node13 -->
<g id="edge14" class="edge"><title>Node12&#45;&gt;Node13</title>
<path fill="none" stroke="midnightblue" d="M1512.3,-217.399C1520.22,-219.884 1527.99,-223.027 1535,-227 1555.24,-238.47 1553.8,-249.34 1571,-265 1583.16,-276.073 1597.66,-287.474 1609.36,-296.275"/>
<polygon fill="midnightblue" stroke="midnightblue" points="1607.56,-299.297 1617.67,-302.449 1611.73,-293.677 1607.56,-299.297"/>
</g>
<!-- Node14&#45;&gt;Node4 -->
<g id="edge38" class="edge"><title>Node14&#45;&gt;Node4</title>
<path fill="none" stroke="midnightblue" d="M690.738,-381.155C639.441,-379.168 574.625,-374.129 518,-362 451.464,-347.748 437.806,-333.642 374,-310 365.457,-306.835 356.118,-303.305 347.849,-300.155"/>
<polygon fill="midnightblue" stroke="midnightblue" points="349.008,-296.851 338.417,-296.551 346.509,-303.39 349.008,-296.851"/>
</g>
<!-- Node15 -->
<g id="node15" class="node"><title>Node15</title>
<g id="a_node15"><a xlink:href="../../d0/d2b/weapons_2all_8qc.html#a01fb8b4722cd9503ad28af6600e7e18c" target="_top" xlink:title="W_FixWeaponOrder_ForceComplete">
<polygon fill="none" stroke="black" points="914,-449.5 914,-468.5 1099,-468.5 1099,-449.5 914,-449.5"/>
<text text-anchor="middle" x="1006.5" y="-456.5" font-family="Helvetica,sans-Serif" font-size="10.00">W_FixWeaponOrder_ForceComplete</text>
</a>
</g>
</g>
<!-- Node14&#45;&gt;Node15 -->
<g id="edge17" class="edge"><title>Node14&#45;&gt;Node15</title>
<path fill="none" stroke="midnightblue" d="M812.623,-397.036C837.979,-410.044 876.609,-428.519 912,-440 920.357,-442.711 929.264,-445.114 938.136,-447.221"/>
<polygon fill="midnightblue" stroke="midnightblue" points="937.579,-450.683 948.105,-449.474 939.123,-443.856 937.579,-450.683"/>
</g>
<!-- Node28 -->
<g id="node28" class="node"><title>Node28</title>
<g id="a_node28"><a xlink:href="../../d0/d2b/weapons_2all_8qc.html#a6a9b42410f2d888f52a11253a2165203" target="_top" xlink:title="W_FixWeaponOrder_BuildImpulseList">
<polygon fill="none" stroke="black" points="1137,-372.5 1137,-391.5 1326,-391.5 1326,-372.5 1137,-372.5"/>
<text text-anchor="middle" x="1231.5" y="-379.5" font-family="Helvetica,sans-Serif" font-size="10.00">W_FixWeaponOrder_BuildImpulseList</text>
</a>
</g>
</g>
<!-- Node14&#45;&gt;Node28 -->
<g id="edge39" class="edge"><title>Node14&#45;&gt;Node28</title>
<path fill="none" stroke="midnightblue" d="M876.101,-382C948.926,-382 1050.81,-382 1126.66,-382"/>
<polygon fill="midnightblue" stroke="midnightblue" points="1126.72,-385.5 1136.72,-382 1126.72,-378.5 1126.72,-385.5"/>
</g>
<!-- Node16 -->
<g id="node16" class="node"><title>Node16</title>
<g id="a_node16"><a xlink:href="../../d8/de2/menudefs_8qc.html#ad9529df35f16daeafe8583b1ab2b42b8" target="_top" xlink:title="cvar_defstring">
<polygon fill="none" stroke="black" points="1189.5,-449.5 1189.5,-468.5 1273.5,-468.5 1273.5,-449.5 1189.5,-449.5"/>
<text text-anchor="middle" x="1231.5" y="-456.5" font-family="Helvetica,sans-Serif" font-size="10.00">cvar_defstring</text>
</a>
</g>
</g>
<!-- Node15&#45;&gt;Node16 -->
<g id="edge18" class="edge"><title>Node15&#45;&gt;Node16</title>
<path fill="none" stroke="midnightblue" d="M1099.17,-459C1126.48,-459 1155.43,-459 1179.18,-459"/>
<polygon fill="midnightblue" stroke="midnightblue" points="1179.36,-462.5 1189.36,-459 1179.36,-455.5 1179.36,-462.5"/>
</g>
<!-- Node17 -->
<g id="node17" class="node"><title>Node17</title>
<g id="a_node17"><a xlink:href="../../d0/d2b/weapons_2all_8qc.html#acb6d8a69c18135cd85a99ff515fe5bf6" target="_top" xlink:title="W_FixWeaponOrder">
<polygon fill="none" stroke="black" points="1178,-411.5 1178,-430.5 1285,-430.5 1285,-411.5 1178,-411.5"/>
<text text-anchor="middle" x="1231.5" y="-418.5" font-family="Helvetica,sans-Serif" font-size="10.00">W_FixWeaponOrder</text>
</a>
</g>
</g>
<!-- Node15&#45;&gt;Node17 -->
<g id="edge19" class="edge"><title>Node15&#45;&gt;Node17</title>
<path fill="none" stroke="midnightblue" d="M1063.48,-449.46C1095.29,-444.041 1135.18,-437.243 1168,-431.65"/>
<polygon fill="midnightblue" stroke="midnightblue" points="1168.67,-435.086 1177.94,-429.956 1167.5,-428.185 1168.67,-435.086"/>
</g>
<!-- Node24 -->
<g id="node24" class="node"><title>Node24</title>
<g id="a_node24"><a xlink:href="../../d0/d2b/weapons_2all_8qc.html#a68c8b4f04f6cf4bd80ef078f2bea8d16" target="_top" xlink:title="W_NumberWeaponOrder">
<polygon fill="none" stroke="black" points="1164.5,-488.5 1164.5,-507.5 1298.5,-507.5 1298.5,-488.5 1164.5,-488.5"/>
<text text-anchor="middle" x="1231.5" y="-495.5" font-family="Helvetica,sans-Serif" font-size="10.00">W_NumberWeaponOrder</text>
</a>
</g>
</g>
<!-- Node15&#45;&gt;Node24 -->
<g id="edge28" class="edge"><title>Node15&#45;&gt;Node24</title>
<path fill="none" stroke="midnightblue" d="M1062.05,-468.54C1093.49,-474.038 1133.17,-480.979 1166.13,-486.743"/>
<polygon fill="midnightblue" stroke="midnightblue" points="1165.67,-490.215 1176.13,-488.491 1166.88,-483.32 1165.67,-490.215"/>
</g>
<!-- Node18 -->
<g id="node18" class="node"><title>Node18</title>
<g id="a_node18"><a xlink:href="../../da/d44/common_2util_8qc.html#a1fa4c54efc174e1a6ec3545157865632" target="_top" xlink:title="fixPriorityList">
<polygon fill="none" stroke="black" points="1410,-526.5 1410,-545.5 1487,-545.5 1487,-526.5 1410,-526.5"/>
<text text-anchor="middle" x="1448.5" y="-533.5" font-family="Helvetica,sans-Serif" font-size="10.00">fixPriorityList</text>
</a>
</g>
</g>
<!-- Node17&#45;&gt;Node18 -->
<g id="edge20" class="edge"><title>Node17&#45;&gt;Node18</title>
<path fill="none" stroke="midnightblue" d="M1285.17,-423.065C1299.59,-425.805 1314.42,-430.88 1326,-440 1355.68,-463.37 1332.53,-493.361 1362,-517 1372.68,-525.568 1386.43,-530.459 1399.76,-533.2"/>
<polygon fill="midnightblue" stroke="midnightblue" points="1399.37,-536.684 1409.82,-534.902 1400.54,-529.782 1399.37,-536.684"/>
</g>
<!-- Node18&#45;&gt;Node10 -->
<g id="edge22" class="edge"><title>Node18&#45;&gt;Node10</title>
<path fill="none" stroke="midnightblue" d="M1487.39,-536.685C1504.21,-534.941 1522.9,-529.837 1535,-517 1604.15,-443.617 1519.78,-379.855 1571,-293 1578.82,-279.739 1591.92,-268.824 1603.9,-260.862"/>
<polygon fill="midnightblue" stroke="midnightblue" points="1606.09,-263.619 1612.72,-255.358 1602.38,-257.679 1606.09,-263.619"/>
</g>
<!-- Node18&#45;&gt;Node13 -->
<g id="edge24" class="edge"><title>Node18&#45;&gt;Node13</title>
<path fill="none" stroke="midnightblue" d="M1487.18,-534.898C1503.36,-532.709 1521.59,-527.747 1535,-517 1536,-516.201 1598.84,-381.162 1622.3,-330.718"/>
<polygon fill="midnightblue" stroke="midnightblue" points="1625.51,-332.112 1626.55,-321.569 1619.16,-329.161 1625.51,-332.112"/>
</g>
<!-- Node19 -->
<g id="node19" class="node"><title>Node19</title>
<g id="a_node19"><a xlink:href="../../d8/de2/menudefs_8qc.html#a2f6d3020689c0e872cfb455d0b2cbd4a" target="_top" xlink:title="stof">
<polygon fill="none" stroke="black" points="1614.5,-564.5 1614.5,-583.5 1649.5,-583.5 1649.5,-564.5 1614.5,-564.5"/>
<text text-anchor="middle" x="1632" y="-571.5" font-family="Helvetica,sans-Serif" font-size="10.00">stof</text>
</a>
</g>
</g>
<!-- Node18&#45;&gt;Node19 -->
<g id="edge21" class="edge"><title>Node18&#45;&gt;Node19</title>
<path fill="none" stroke="midnightblue" d="M1487.11,-543.874C1522.03,-551.185 1573.17,-561.892 1604.14,-568.377"/>
<polygon fill="midnightblue" stroke="midnightblue" points="1603.69,-571.859 1614.2,-570.483 1605.13,-565.008 1603.69,-571.859"/>
</g>
<!-- Node20 -->
<g id="node20" class="node"><title>Node20</title>
<g id="a_node20"><a xlink:href="../../d8/de2/menudefs_8qc.html#ad5a3e16aa960bd72d3ca37a618eea802" target="_top" xlink:title="floor">
<polygon fill="none" stroke="black" points="1613,-526.5 1613,-545.5 1651,-545.5 1651,-526.5 1613,-526.5"/>
<text text-anchor="middle" x="1632" y="-533.5" font-family="Helvetica,sans-Serif" font-size="10.00">floor</text>
</a>
</g>
</g>
<!-- Node18&#45;&gt;Node20 -->
<g id="edge23" class="edge"><title>Node18&#45;&gt;Node20</title>
<path fill="none" stroke="midnightblue" d="M1487.11,-536C1521.47,-536 1571.54,-536 1602.64,-536"/>
<polygon fill="midnightblue" stroke="midnightblue" points="1602.8,-539.5 1612.8,-536 1602.8,-532.5 1602.8,-539.5"/>
</g>
<!-- Node21 -->
<g id="node21" class="node"><title>Node21</title>
<g id="a_node21"><a xlink:href="../../d8/de2/menudefs_8qc.html#abbb0d86741e0056b6c04f7280c185d76" target="_top" xlink:title="ftos">
<polygon fill="none" stroke="black" points="1614.5,-602.5 1614.5,-621.5 1649.5,-621.5 1649.5,-602.5 1614.5,-602.5"/>
<text text-anchor="middle" x="1632" y="-609.5" font-family="Helvetica,sans-Serif" font-size="10.00">ftos</text>
</a>
</g>
</g>
<!-- Node18&#45;&gt;Node21 -->
<g id="edge25" class="edge"><title>Node18&#45;&gt;Node21</title>
<path fill="none" stroke="midnightblue" d="M1487.17,-542.569C1502.64,-546.264 1520.32,-551.828 1535,-560 1553.97,-570.554 1552.21,-582.134 1571,-593 1581.32,-598.969 1593.75,-603.302 1604.61,-606.308"/>
<polygon fill="midnightblue" stroke="midnightblue" points="1603.86,-609.731 1614.42,-608.795 1605.58,-602.946 1603.86,-609.731"/>
</g>
<!-- Node22 -->
<g id="node22" class="node"><title>Node22</title>
<g id="a_node22"><a xlink:href="../../d8/de2/menudefs_8qc.html#a40f6c65c8bbcfa51df783f2809a2502b" target="_top" xlink:title="substring">
<polygon fill="none" stroke="black" points="1601.5,-450.5 1601.5,-469.5 1662.5,-469.5 1662.5,-450.5 1601.5,-450.5"/>
<text text-anchor="middle" x="1632" y="-457.5" font-family="Helvetica,sans-Serif" font-size="10.00">substring</text>
</a>
</g>
</g>
<!-- Node18&#45;&gt;Node22 -->
<g id="edge26" class="edge"><title>Node18&#45;&gt;Node22</title>
<path fill="none" stroke="midnightblue" d="M1487.01,-532.556C1502.62,-529.914 1520.45,-525.246 1535,-517 1555.24,-505.53 1551.28,-491.349 1571,-479 1577.3,-475.053 1584.5,-471.861 1591.66,-469.303"/>
<polygon fill="midnightblue" stroke="midnightblue" points="1592.87,-472.588 1601.32,-466.195 1590.73,-465.924 1592.87,-472.588"/>
</g>
<!-- Node23 -->
<g id="node23" class="node"><title>Node23</title>
<g id="a_node23"><a xlink:href="../../d8/de2/menudefs_8qc.html#a274680f571a231ddf29421b93d434bfa" target="_top" xlink:title="strlen">
<polygon fill="none" stroke="black" points="1610,-488.5 1610,-507.5 1654,-507.5 1654,-488.5 1610,-488.5"/>
<text text-anchor="middle" x="1632" y="-495.5" font-family="Helvetica,sans-Serif" font-size="10.00">strlen</text>
</a>
</g>
</g>
<!-- Node18&#45;&gt;Node23 -->
<g id="edge27" class="edge"><title>Node18&#45;&gt;Node23</title>
<path fill="none" stroke="midnightblue" d="M1487.11,-528.126C1520.5,-521.134 1568.73,-511.038 1599.97,-504.497"/>
<polygon fill="midnightblue" stroke="midnightblue" points="1600.8,-507.9 1609.87,-502.425 1599.36,-501.048 1600.8,-507.9"/>
</g>
<!-- Node25 -->
<g id="node25" class="node"><title>Node25</title>
<g id="a_node25"><a xlink:href="../../da/d44/common_2util_8qc.html#ae1958a532419b5580361c8f32a53a538" target="_top" xlink:title="mapPriorityList">
<polygon fill="none" stroke="black" points="1404.5,-488.5 1404.5,-507.5 1492.5,-507.5 1492.5,-488.5 1404.5,-488.5"/>
<text text-anchor="middle" x="1448.5" y="-495.5" font-family="Helvetica,sans-Serif" font-size="10.00">mapPriorityList</text>
</a>
</g>
</g>
<!-- Node24&#45;&gt;Node25 -->
<g id="edge29" class="edge"><title>Node24&#45;&gt;Node25</title>
<path fill="none" stroke="midnightblue" d="M1298.76,-498C1329.31,-498 1365.1,-498 1393.91,-498"/>
<polygon fill="midnightblue" stroke="midnightblue" points="1394.19,-501.5 1404.19,-498 1394.19,-494.5 1394.19,-501.5"/>
</g>
<!-- Node26 -->
<g id="node26" class="node"><title>Node26</title>
<g id="a_node26"><a xlink:href="../../d0/d2b/weapons_2all_8qc.html#a6e455edb328362e8ea7fc75757394379" target="_top" xlink:title="W_NumberWeaponOrder\l_MapFunc">
<polygon fill="none" stroke="black" points="1381.5,-603 1381.5,-633 1515.5,-633 1515.5,-603 1381.5,-603"/>
<text text-anchor="start" x="1389.5" y="-621" font-family="Helvetica,sans-Serif" font-size="10.00">W_NumberWeaponOrder</text>
<text text-anchor="middle" x="1448.5" y="-610" font-family="Helvetica,sans-Serif" font-size="10.00">_MapFunc</text>
</a>
</g>
</g>
<!-- Node24&#45;&gt;Node26 -->
<g id="edge34" class="edge"><title>Node24&#45;&gt;Node26</title>
<path fill="none" stroke="midnightblue" d="M1243.96,-507.578C1265.75,-525.415 1315.19,-564.08 1362,-588 1370.13,-592.153 1378.96,-595.964 1387.77,-599.375"/>
<polygon fill="midnightblue" stroke="midnightblue" points="1386.68,-602.706 1397.27,-602.917 1389.12,-596.146 1386.68,-602.706"/>
</g>
<!-- Node25&#45;&gt;Node10 -->
<g id="edge31" class="edge"><title>Node25&#45;&gt;Node10</title>
<path fill="none" stroke="midnightblue" d="M1472.67,-488.421C1492.22,-479.145 1519.45,-463.215 1535,-441 1573.82,-385.541 1534.33,-349.903 1571,-293 1579.34,-280.06 1592.49,-269.174 1604.36,-261.148"/>
<polygon fill="midnightblue" stroke="midnightblue" points="1606.54,-263.911 1613.08,-255.581 1602.77,-258.01 1606.54,-263.911"/>
</g>
<!-- Node25&#45;&gt;Node13 -->
<g id="edge30" class="edge"><title>Node25&#45;&gt;Node13</title>
<path fill="none" stroke="midnightblue" d="M1467.48,-488.448C1485.72,-478.223 1514.17,-460.777 1535,-441 1571.42,-406.417 1604.06,-356.732 1620.25,-330.25"/>
<polygon fill="midnightblue" stroke="midnightblue" points="1623.29,-331.988 1625.45,-321.615 1617.29,-328.379 1623.29,-331.988"/>
</g>
<!-- Node25&#45;&gt;Node22 -->
<g id="edge32" class="edge"><title>Node25&#45;&gt;Node22</title>
<path fill="none" stroke="midnightblue" d="M1492.51,-488.995C1522.52,-482.712 1562.26,-474.392 1591.47,-468.276"/>
<polygon fill="midnightblue" stroke="midnightblue" points="1592.26,-471.686 1601.33,-466.211 1590.83,-464.835 1592.26,-471.686"/>
</g>
<!-- Node25&#45;&gt;Node23 -->
<g id="edge33" class="edge"><title>Node25&#45;&gt;Node23</title>
<path fill="none" stroke="midnightblue" d="M1492.51,-498C1525.38,-498 1569.92,-498 1599.51,-498"/>
<polygon fill="midnightblue" stroke="midnightblue" points="1599.69,-501.5 1609.69,-498 1599.69,-494.5 1599.69,-501.5"/>
</g>
<!-- Node26&#45;&gt;Node19 -->
<g id="edge36" class="edge"><title>Node26&#45;&gt;Node19</title>
<path fill="none" stroke="midnightblue" d="M1511.45,-602.981C1543.12,-595.304 1580.01,-586.362 1604.34,-580.463"/>
<polygon fill="midnightblue" stroke="midnightblue" points="1605.37,-583.816 1614.26,-578.058 1603.72,-577.013 1605.37,-583.816"/>
</g>
<!-- Node26&#45;&gt;Node21 -->
<g id="edge35" class="edge"><title>Node26&#45;&gt;Node21</title>
<path fill="none" stroke="midnightblue" d="M1515.54,-615.817C1546.16,-614.804 1580.85,-613.658 1604.15,-612.888"/>
<polygon fill="midnightblue" stroke="midnightblue" points="1604.41,-616.381 1614.29,-612.552 1604.18,-609.385 1604.41,-616.381"/>
</g>
<!-- Node27 -->
<g id="node27" class="node"><title>Node27</title>
<g id="a_node27"><a xlink:href="../../d0/d2b/weapons_2all_8qc.html#a79fb53e58c432f7bb94bc2e881f4c2b6" target="_top" xlink:title="W_UndeprecateName">
<polygon fill="none" stroke="black" points="1571,-640.5 1571,-659.5 1693,-659.5 1693,-640.5 1571,-640.5"/>
<text text-anchor="middle" x="1632" y="-647.5" font-family="Helvetica,sans-Serif" font-size="10.00">W_UndeprecateName</text>
</a>
</g>
</g>
<!-- Node26&#45;&gt;Node27 -->
<g id="edge37" class="edge"><title>Node26&#45;&gt;Node27</title>
<path fill="none" stroke="midnightblue" d="M1515.54,-629.643C1532.24,-632.588 1550.16,-635.746 1566.77,-638.675"/>
<polygon fill="midnightblue" stroke="midnightblue" points="1566.47,-642.176 1576.92,-640.465 1567.68,-635.282 1566.47,-642.176"/>
</g>
<!-- Node28&#45;&gt;Node13 -->
<g id="edge42" class="edge"><title>Node28&#45;&gt;Node13</title>
<path fill="none" stroke="midnightblue" d="M1271.74,-372.472C1297.35,-366.438 1331.55,-358.724 1362,-353 1447.64,-336.904 1549.53,-322.717 1599.79,-316.045"/>
<polygon fill="midnightblue" stroke="midnightblue" points="1600.53,-319.477 1609.99,-314.699 1599.62,-312.537 1600.53,-319.477"/>
</g>
<!-- Node28&#45;&gt;Node21 -->
<g id="edge40" class="edge"><title>Node28&#45;&gt;Node21</title>
<path fill="none" stroke="midnightblue" d="M1311.52,-391.658C1316.81,-394.416 1321.73,-397.818 1326,-402 1375.9,-450.891 1312.06,-506.157 1362,-555 1366.38,-559.288 1537.16,-593.44 1604.29,-606.732"/>
<polygon fill="midnightblue" stroke="midnightblue" points="1604.01,-610.243 1614.5,-608.75 1605.36,-603.376 1604.01,-610.243"/>
</g>
<!-- Node28&#45;&gt;Node22 -->
<g id="edge43" class="edge"><title>Node28&#45;&gt;Node22</title>
<path fill="none" stroke="midnightblue" d="M1301.22,-391.565C1309.87,-394.233 1318.36,-397.643 1326,-402 1346.49,-413.681 1340.74,-430.783 1362,-441 1436.73,-476.909 1536.79,-472.23 1591.38,-465.933"/>
<polygon fill="midnightblue" stroke="midnightblue" points="1591.85,-469.402 1601.35,-464.706 1590.99,-462.454 1591.85,-469.402"/>
</g>
<!-- Node29 -->
<g id="node29" class="node"><title>Node29</title>
<g id="a_node29"><a xlink:href="../../db/def/sort_8qh.html#a819f1c3300f552419896b2c53088c05c" target="_top" xlink:title="heapsort">
<polygon fill="none" stroke="black" points="1419,-412.5 1419,-431.5 1478,-431.5 1478,-412.5 1419,-412.5"/>
<text text-anchor="middle" x="1448.5" y="-419.5" font-family="Helvetica,sans-Serif" font-size="10.00">heapsort</text>
</a>
</g>
</g>
<!-- Node28&#45;&gt;Node29 -->
<g id="edge41" class="edge"><title>Node28&#45;&gt;Node29</title>
<path fill="none" stroke="midnightblue" d="M1283.72,-391.53C1322.16,-398.681 1373.96,-408.318 1408.93,-414.825"/>
<polygon fill="midnightblue" stroke="midnightblue" points="1408.3,-418.266 1418.77,-416.654 1409.58,-411.384 1408.3,-418.266"/>
</g>
<!-- Node30 -->
<g id="node30" class="node"><title>Node30</title>
<g id="a_node30"><a xlink:href="../../d0/d2b/weapons_2all_8qc.html#a66424748bad8c2bf6beda9b93b5f12d5" target="_top" xlink:title="W_FixWeaponOrder_BuildImpulse\lList_cmp">
<polygon fill="none" stroke="black" points="1362,-275 1362,-305 1535,-305 1535,-275 1362,-275"/>
<text text-anchor="start" x="1370" y="-293" font-family="Helvetica,sans-Serif" font-size="10.00">W_FixWeaponOrder_BuildImpulse</text>
<text text-anchor="middle" x="1448.5" y="-282" font-family="Helvetica,sans-Serif" font-size="10.00">List_cmp</text>
</a>
</g>
</g>
<!-- Node28&#45;&gt;Node30 -->
<g id="edge44" class="edge"><title>Node28&#45;&gt;Node30</title>
<path fill="none" stroke="midnightblue" d="M1251.08,-372.312C1275.97,-359.518 1321.69,-336.664 1362,-320 1371.58,-316.038 1381.9,-312.127 1391.94,-308.503"/>
<polygon fill="midnightblue" stroke="midnightblue" points="1393.2,-311.772 1401.45,-305.125 1390.85,-305.176 1393.2,-311.772"/>
</g>
<!-- Node31 -->
<g id="node31" class="node"><title>Node31</title>
<g id="a_node31"><a xlink:href="../../d0/d2b/weapons_2all_8qc.html#a5ac8701317c43bb66826e117a101f71e" target="_top" xlink:title="W_FixWeaponOrder_BuildImpulse\lList_swap">
<polygon fill="none" stroke="black" points="1362,-363 1362,-393 1535,-393 1535,-363 1362,-363"/>
<text text-anchor="start" x="1370" y="-381" font-family="Helvetica,sans-Serif" font-size="10.00">W_FixWeaponOrder_BuildImpulse</text>
<text text-anchor="middle" x="1448.5" y="-370" font-family="Helvetica,sans-Serif" font-size="10.00">List_swap</text>
</a>
</g>
</g>
<!-- Node28&#45;&gt;Node31 -->
<g id="edge46" class="edge"><title>Node28&#45;&gt;Node31</title>
<path fill="none" stroke="midnightblue" d="M1326.18,-380.257C1334.62,-380.1 1343.19,-379.941 1351.65,-379.783"/>
<polygon fill="midnightblue" stroke="midnightblue" points="1351.98,-383.278 1361.92,-379.592 1351.85,-376.279 1351.98,-383.278"/>
</g>
<!-- Node30&#45;&gt;Node13 -->
<g id="edge45" class="edge"><title>Node30&#45;&gt;Node13</title>
<path fill="none" stroke="midnightblue" d="M1535.2,-300.388C1558.26,-303.184 1581.76,-306.032 1599.72,-308.208"/>
<polygon fill="midnightblue" stroke="midnightblue" points="1599.51,-311.709 1609.86,-309.438 1600.36,-304.76 1599.51,-311.709"/>
</g>
<!-- Node32&#45;&gt;Node17 -->
<g id="edge48" class="edge"><title>Node32&#45;&gt;Node17</title>
<path fill="none" stroke="midnightblue" d="M1101.1,-421C1123.54,-421 1146.96,-421 1167.62,-421"/>
<polygon fill="midnightblue" stroke="midnightblue" points="1167.83,-424.5 1177.83,-421 1167.83,-417.5 1167.83,-424.5"/>
</g>
<!-- Node33&#45;&gt;Node10 -->
<g id="edge51" class="edge"><title>Node33&#45;&gt;Node10</title>
<path fill="none" stroke="midnightblue" d="M1509.68,-246C1540.97,-246 1577.73,-246 1602.52,-246"/>
<polygon fill="midnightblue" stroke="midnightblue" points="1602.69,-249.5 1612.69,-246 1602.69,-242.5 1602.69,-249.5"/>
</g>
<!-- Node33&#45;&gt;Node13 -->
<g id="edge52" class="edge"><title>Node33&#45;&gt;Node13</title>
<path fill="none" stroke="midnightblue" d="M1501.6,-255.514C1512.76,-258.122 1524.38,-261.28 1535,-265 1559.87,-273.713 1586.69,-287.222 1605.64,-297.525"/>
<polygon fill="midnightblue" stroke="midnightblue" points="1604.08,-300.661 1614.53,-302.434 1607.47,-294.534 1604.08,-300.661"/>
</g>
<!-- Node33&#45;&gt;Node19 -->
<g id="edge50" class="edge"><title>Node33&#45;&gt;Node19</title>
<path fill="none" stroke="midnightblue" d="M1509.73,-249.591C1519.3,-252.714 1528.25,-257.574 1535,-265 1622.37,-361.102 1487.95,-455.148 1571,-555 1579.16,-564.811 1592.36,-569.624 1604.31,-571.959"/>
<polygon fill="midnightblue" stroke="midnightblue" points="1603.92,-575.439 1614.32,-573.435 1604.94,-568.514 1603.92,-575.439"/>
</g>
<!-- Node37&#45;&gt;Node4 -->
<g id="edge58" class="edge"><title>Node37&#45;&gt;Node4</title>
<path fill="none" stroke="midnightblue" d="M538.736,-19.5942C531.516,-22.0716 524.357,-25.1603 518,-29 438.347,-77.1155 425.967,-103.804 374,-181 354.178,-210.444 338.716,-249.02 330.51,-271.794"/>
<polygon fill="midnightblue" stroke="midnightblue" points="327.174,-270.731 327.168,-281.326 333.78,-273.047 327.174,-270.731"/>
</g>
</g>
</svg>
