<?xml version="1.0" encoding="UTF-8" standalone="no"?>
<!DOCTYPE svg PUBLIC "-//W3C//DTD SVG 1.1//EN"
 "http://www.w3.org/Graphics/SVG/1.1/DTD/svg11.dtd">
<!-- Generated by graphviz version 2.38.0 (20140413.2041)
 -->
<!-- Title: buff_Waypoint_Spawn Pages: 1 -->
<!--zoomable 306 -->
<svg id="main" version="1.1" xmlns="http://www.w3.org/2000/svg" xmlns:xlink="http://www.w3.org/1999/xlink" xml:space="preserve" onload="init(evt)">
<style type="text/css"><![CDATA[
.edge:hover path { stroke: red; }
.edge:hover polygon { stroke: red; fill: red; }
]]></style>
<script type="text/javascript"><![CDATA[
var edges = document.getElementsByTagName('g');
if (edges && edges.length) {
  for (var i=0;i<edges.length;i++) {
    if (edges[i].id.substr(0,4)=='edge') {
      edges[i].setAttribute('class','edge');
    }
  }
}
]]></script>
        <defs>
                <circle id="rim" cx="0" cy="0" r="7"/>
                <circle id="rim2" cx="0" cy="0" r="3.5"/>
                <g id="zoomPlus">
                        <use xlink:href="#rim" fill="#404040">
                                <set attributeName="fill" to="#808080" begin="zoomplus.mouseover" end="zoomplus.mouseout"/>
                        </use>
                        <path d="M-4,0h8M0,-4v8" fill="none" stroke="white" stroke-width="1.5" pointer-events="none"/>
                </g>
                <g id="zoomMin">
                        <use xlink:href="#rim" fill="#404040">
                                <set attributeName="fill" to="#808080" begin="zoomminus.mouseover" end="zoomminus.mouseout"/>
                        </use>
                        <path d="M-4,0h8" fill="none" stroke="white" stroke-width="1.5" pointer-events="none"/>
                </g>
                <g id="dirArrow">
                        <path fill="none" stroke="white" stroke-width="1.5" d="M0,-3.0v7 M-2.5,-0.5L0,-3.0L2.5,-0.5"/>
                </g>
               <g id="resetDef">
                       <use xlink:href="#rim2" fill="#404040">
                               <set attributeName="fill" to="#808080" begin="reset.mouseover" end="reset.mouseout"/>
                       </use>
               </g>
        </defs>

<script type="text/javascript">
var viewWidth = 641;
var viewHeight = 306;
var sectionId = 'dynsection-34';
</script>
<script xlink:href="../../svgpan.js"/>
<svg id="graph" class="graph">
<g id="viewport">
<title>buff_Waypoint_Spawn</title>
<!-- Node1 -->
<g id="node1" class="node"><title>Node1</title>
<polygon fill="#bfbfbf" stroke="black" points="0,-198.5 0,-217.5 119,-217.5 119,-198.5 0,-198.5"/>
<text text-anchor="middle" x="59.5" y="-205.5" font-family="Helvetica,sans-Serif" font-size="10.00">buff_Waypoint_Spawn</text>
</g>
<!-- Node2 -->
<g id="node2" class="node"><title>Node2</title>
<g id="a_node2"><a xlink:href="../../d4/d0f/buffs_8qc.html#afd7d0f110617f66bd6efce062d5d16e7" target="_top" xlink:title="buff_FirstFromFlags">
<polygon fill="none" stroke="black" points="159.5,-236.5 159.5,-255.5 267.5,-255.5 267.5,-236.5 159.5,-236.5"/>
<text text-anchor="middle" x="213.5" y="-243.5" font-family="Helvetica,sans-Serif" font-size="10.00">buff_FirstFromFlags</text>
</a>
</g>
</g>
<!-- Node1&#45;&gt;Node2 -->
<g id="edge1" class="edge"><title>Node1&#45;&gt;Node2</title>
<path fill="none" stroke="midnightblue" d="M98.856,-217.589C118.824,-222.581 143.43,-228.732 164.633,-234.033"/>
<polygon fill="midnightblue" stroke="midnightblue" points="163.869,-237.45 174.42,-236.48 165.567,-230.659 163.869,-237.45"/>
</g>
<!-- Node3 -->
<g id="node3" class="node"><title>Node3</title>
<g id="a_node3"><a xlink:href="../../d2/dac/sv__buffs_8qc.html#a6f90c6fb5218e61586d69ddef8a870d9" target="_top" xlink:title="buff_Waypoint_visible\l_for_player">
<polygon fill="none" stroke="black" points="155,-141 155,-171 272,-171 272,-141 155,-141"/>
<text text-anchor="start" x="163" y="-159" font-family="Helvetica,sans-Serif" font-size="10.00">buff_Waypoint_visible</text>
<text text-anchor="middle" x="213.5" y="-148" font-family="Helvetica,sans-Serif" font-size="10.00">_for_player</text>
</a>
</g>
</g>
<!-- Node1&#45;&gt;Node3 -->
<g id="edge2" class="edge"><title>Node1&#45;&gt;Node3</title>
<path fill="none" stroke="midnightblue" d="M88.3791,-198.462C108.039,-191.736 134.998,-182.514 158.769,-174.382"/>
<polygon fill="midnightblue" stroke="midnightblue" points="160.057,-177.64 168.385,-171.092 157.791,-171.017 160.057,-177.64"/>
</g>
<!-- Node6 -->
<g id="node6" class="node"><title>Node6</title>
<g id="a_node6"><a xlink:href="../../d4/d0c/csprogsdefs_8qc.html#acbb54a239d76062465dccbc6a6c6e464" target="_top" xlink:title="entity">
<polygon fill="none" stroke="black" points="406,-202.5 406,-221.5 450,-221.5 450,-202.5 406,-202.5"/>
<text text-anchor="middle" x="428" y="-209.5" font-family="Helvetica,sans-Serif" font-size="10.00">entity</text>
</a>
</g>
</g>
<!-- Node1&#45;&gt;Node6 -->
<g id="edge17" class="edge"><title>Node1&#45;&gt;Node6</title>
<path fill="none" stroke="midnightblue" d="M119.385,-208.643C198.029,-209.501 334.537,-210.991 395.74,-211.659"/>
<polygon fill="midnightblue" stroke="midnightblue" points="395.883,-215.16 405.921,-211.77 395.959,-208.161 395.883,-215.16"/>
</g>
<!-- Node4 -->
<g id="node4" class="node"><title>Node4</title>
<g id="a_node4"><a xlink:href="../../db/d9f/state_8qh.html#afdb90637f8a711359249291ee3b3fde6" target="_top" xlink:title="CS">
<polygon fill="none" stroke="black" points="308,-130.5 308,-149.5 338,-149.5 338,-130.5 308,-130.5"/>
<text text-anchor="middle" x="323" y="-137.5" font-family="Helvetica,sans-Serif" font-size="10.00">CS</text>
</a>
</g>
</g>
<!-- Node3&#45;&gt;Node4 -->
<g id="edge3" class="edge"><title>Node3&#45;&gt;Node4</title>
<path fill="none" stroke="midnightblue" d="M272.027,-147.438C281.12,-146.085 290.068,-144.753 297.824,-143.598"/>
<polygon fill="midnightblue" stroke="midnightblue" points="298.508,-147.035 307.884,-142.101 297.478,-140.111 298.508,-147.035"/>
</g>
<!-- Node5 -->
<g id="node5" class="node"><title>Node5</title>
<g id="a_node5"><a xlink:href="../../db/d9f/state_8qh.html#afc32312bf25df126b18e078bedab7837" target="_top" xlink:title="ClientState_attach">
<polygon fill="none" stroke="black" points="375,-164.5 375,-183.5 481,-183.5 481,-164.5 375,-164.5"/>
<text text-anchor="middle" x="428" y="-171.5" font-family="Helvetica,sans-Serif" font-size="10.00">ClientState_attach</text>
</a>
</g>
</g>
<!-- Node4&#45;&gt;Node5 -->
<g id="edge4" class="edge"><title>Node4&#45;&gt;Node5</title>
<path fill="none" stroke="midnightblue" d="M338.322,-144.728C351.167,-148.968 370.621,-155.39 388.038,-161.139"/>
<polygon fill="midnightblue" stroke="midnightblue" points="387.399,-164.613 397.992,-164.424 389.593,-157.966 387.399,-164.613"/>
</g>
<!-- Node4&#45;&gt;Node6 -->
<g id="edge5" class="edge"><title>Node4&#45;&gt;Node6</title>
<path fill="none" stroke="midnightblue" d="M330.736,-149.527C339.481,-161.258 355.793,-181.088 374,-193 380.711,-197.391 388.565,-200.919 396.139,-203.686"/>
<polygon fill="midnightblue" stroke="midnightblue" points="395.222,-207.069 405.815,-206.894 397.425,-200.425 395.222,-207.069"/>
</g>
<!-- Node7 -->
<g id="node7" class="node"><title>Node7</title>
<g id="a_node7"><a xlink:href="../../db/d9f/state_8qh.html#ae17cd2d1c2291942edc23455fc1db486" target="_top" xlink:title="ClientState_detach">
<polygon fill="none" stroke="black" points="374,-126.5 374,-145.5 482,-145.5 482,-126.5 374,-126.5"/>
<text text-anchor="middle" x="428" y="-133.5" font-family="Helvetica,sans-Serif" font-size="10.00">ClientState_detach</text>
</a>
</g>
</g>
<!-- Node4&#45;&gt;Node7 -->
<g id="edge6" class="edge"><title>Node4&#45;&gt;Node7</title>
<path fill="none" stroke="midnightblue" d="M338.322,-134.599C345.296,-133.426 354.218,-132.498 363.705,-131.868"/>
<polygon fill="midnightblue" stroke="midnightblue" points="363.942,-135.36 373.737,-131.322 363.561,-128.371 363.942,-135.36"/>
</g>
<!-- Node7&#45;&gt;Node4 -->
<g id="edge8" class="edge"><title>Node7&#45;&gt;Node4</title>
<path fill="none" stroke="midnightblue" d="M373.737,-144.815C364.843,-145.125 356.02,-145.163 348.329,-144.889"/>
<polygon fill="midnightblue" stroke="midnightblue" points="348.513,-141.394 338.322,-144.289 348.094,-148.381 348.513,-141.394"/>
</g>
<!-- Node8 -->
<g id="node8" class="node"><title>Node8</title>
<g id="a_node8"><a xlink:href="../../d0/d3f/state_8qc.html#aee720441a84489b04449de94ce835994" target="_top" xlink:title="GetCvars">
<polygon fill="none" stroke="black" points="545,-278.5 545,-297.5 606,-297.5 606,-278.5 545,-278.5"/>
<text text-anchor="middle" x="575.5" y="-285.5" font-family="Helvetica,sans-Serif" font-size="10.00">GetCvars</text>
</a>
</g>
</g>
<!-- Node7&#45;&gt;Node8 -->
<g id="edge7" class="edge"><title>Node7&#45;&gt;Node8</title>
<path fill="none" stroke="midnightblue" d="M468.818,-145.582C473.7,-148.04 478.272,-151.126 482,-155 518.844,-193.284 480.779,-231.083 518,-269 522.822,-273.912 528.953,-277.555 535.386,-280.255"/>
<polygon fill="midnightblue" stroke="midnightblue" points="534.317,-283.589 544.912,-283.576 536.622,-276.979 534.317,-283.589"/>
</g>
<!-- Node9 -->
<g id="node9" class="node"><title>Node9</title>
<g id="a_node9"><a xlink:href="../../d0/d3f/state_8qc.html#a34f4025222e4edd5d1dcee5b90656bec" target="_top" xlink:title="accuracy_free">
<polygon fill="none" stroke="black" points="534,-240.5 534,-259.5 617,-259.5 617,-240.5 534,-240.5"/>
<text text-anchor="middle" x="575.5" y="-247.5" font-family="Helvetica,sans-Serif" font-size="10.00">accuracy_free</text>
</a>
</g>
</g>
<!-- Node7&#45;&gt;Node9 -->
<g id="edge9" class="edge"><title>Node7&#45;&gt;Node9</title>
<path fill="none" stroke="midnightblue" d="M467.261,-145.557C472.608,-148.03 477.727,-151.127 482,-155 509.693,-180.1 490.059,-206.175 518,-231 519.997,-232.774 522.166,-234.384 524.451,-235.844"/>
<polygon fill="midnightblue" stroke="midnightblue" points="523.255,-239.171 533.729,-240.767 526.536,-232.988 523.255,-239.171"/>
</g>
<!-- Node10 -->
<g id="node10" class="node"><title>Node10</title>
<g id="a_node10"><a xlink:href="../../d0/d3f/state_8qc.html#a7fd595275a5ab3b24efdf5dc24933c46" target="_top" xlink:title="PlayerScore_Detach">
<polygon fill="none" stroke="black" points="519,-202.5 519,-221.5 632,-221.5 632,-202.5 519,-202.5"/>
<text text-anchor="middle" x="575.5" y="-209.5" font-family="Helvetica,sans-Serif" font-size="10.00">PlayerScore_Detach</text>
</a>
</g>
</g>
<!-- Node7&#45;&gt;Node10 -->
<g id="edge10" class="edge"><title>Node7&#45;&gt;Node10</title>
<path fill="none" stroke="midnightblue" d="M463.205,-145.592C469.711,-148.145 476.27,-151.26 482,-155 501.481,-167.717 498.394,-180.477 518,-193 521.151,-195.012 524.537,-196.835 528.03,-198.482"/>
<polygon fill="midnightblue" stroke="midnightblue" points="526.862,-201.787 537.437,-202.438 529.576,-195.335 526.862,-201.787"/>
</g>
<!-- Node11 -->
<g id="node11" class="node"><title>Node11</title>
<g id="a_node11"><a xlink:href="../../d0/d3f/state_8qc.html#a8fe4ed7866766d38e6cf3bfd1c4b239e" target="_top" xlink:title="W_HitPlotClose">
<polygon fill="none" stroke="black" points="531.5,-164.5 531.5,-183.5 619.5,-183.5 619.5,-164.5 531.5,-164.5"/>
<text text-anchor="middle" x="575.5" y="-171.5" font-family="Helvetica,sans-Serif" font-size="10.00">W_HitPlotClose</text>
</a>
</g>
</g>
<!-- Node7&#45;&gt;Node11 -->
<g id="edge11" class="edge"><title>Node7&#45;&gt;Node11</title>
<path fill="none" stroke="midnightblue" d="M465.716,-145.589C484.657,-150.536 507.957,-156.621 528.129,-161.889"/>
<polygon fill="midnightblue" stroke="midnightblue" points="527.488,-165.339 538.048,-164.48 529.257,-158.567 527.488,-165.339"/>
</g>
<!-- Node12 -->
<g id="node12" class="node"><title>Node12</title>
<g id="a_node12"><a xlink:href="../../d0/d3f/state_8qc.html#a493d87cfdaad13d4de171211f5f7bc4d" target="_top" xlink:title="ClientData_Detach">
<polygon fill="none" stroke="black" points="522,-0.5 522,-19.5 629,-19.5 629,-0.5 522,-0.5"/>
<text text-anchor="middle" x="575.5" y="-7.5" font-family="Helvetica,sans-Serif" font-size="10.00">ClientData_Detach</text>
</a>
</g>
</g>
<!-- Node7&#45;&gt;Node12 -->
<g id="edge12" class="edge"><title>Node7&#45;&gt;Node12</title>
<path fill="none" stroke="midnightblue" d="M436.684,-126.154C456.361,-101.032 507.735,-36.0333 518,-29 520.861,-27.0396 523.942,-25.2668 527.135,-23.6662"/>
<polygon fill="midnightblue" stroke="midnightblue" points="528.612,-26.8403 536.345,-19.5981 525.783,-20.4372 528.612,-26.8403"/>
</g>
<!-- Node13 -->
<g id="node13" class="node"><title>Node13</title>
<g id="a_node13"><a xlink:href="../../d0/d3f/state_8qc.html#ac87f3b0e72460f99913d0a56abac6990" target="_top" xlink:title="entcs_detach">
<polygon fill="none" stroke="black" points="535,-126.5 535,-145.5 616,-145.5 616,-126.5 535,-126.5"/>
<text text-anchor="middle" x="575.5" y="-133.5" font-family="Helvetica,sans-Serif" font-size="10.00">entcs_detach</text>
</a>
</g>
</g>
<!-- Node7&#45;&gt;Node13 -->
<g id="edge14" class="edge"><title>Node7&#45;&gt;Node13</title>
<path fill="none" stroke="midnightblue" d="M482.353,-136C496.184,-136 511.024,-136 524.666,-136"/>
<polygon fill="midnightblue" stroke="midnightblue" points="524.829,-139.5 534.829,-136 524.829,-132.5 524.829,-139.5"/>
</g>
<!-- Node14 -->
<g id="node14" class="node"><title>Node14</title>
<g id="a_node14"><a xlink:href="../../d0/d3f/state_8qc.html#ab10bcd46b240e1fd8154de39ddd5c40e" target="_top" xlink:title="bot_clientdisconnect">
<polygon fill="none" stroke="black" points="518,-88.5 518,-107.5 633,-107.5 633,-88.5 518,-88.5"/>
<text text-anchor="middle" x="575.5" y="-95.5" font-family="Helvetica,sans-Serif" font-size="10.00">bot_clientdisconnect</text>
</a>
</g>
</g>
<!-- Node7&#45;&gt;Node14 -->
<g id="edge15" class="edge"><title>Node7&#45;&gt;Node14</title>
<path fill="none" stroke="midnightblue" d="M465.716,-126.411C484.657,-121.464 507.957,-115.379 528.129,-110.111"/>
<polygon fill="midnightblue" stroke="midnightblue" points="529.257,-113.433 538.048,-107.52 527.488,-106.661 529.257,-113.433"/>
</g>
<!-- Node15 -->
<g id="node15" class="node"><title>Node15</title>
<g id="a_node15"><a xlink:href="../../d0/d3f/state_8qc.html#abbd5a2c9639d75d5ac7e98fbd60856ab" target="_top" xlink:title="anticheat_report_to\l_eventlog">
<polygon fill="none" stroke="black" points="520,-39 520,-69 631,-69 631,-39 520,-39"/>
<text text-anchor="start" x="528" y="-57" font-family="Helvetica,sans-Serif" font-size="10.00">anticheat_report_to</text>
<text text-anchor="middle" x="575.5" y="-46" font-family="Helvetica,sans-Serif" font-size="10.00">_eventlog</text>
</a>
</g>
</g>
<!-- Node7&#45;&gt;Node15 -->
<g id="edge16" class="edge"><title>Node7&#45;&gt;Node15</title>
<path fill="none" stroke="midnightblue" d="M442.479,-126.442C459.58,-114.535 490.2,-93.9392 518,-79 521.514,-77.1118 525.199,-75.2447 528.931,-73.4323"/>
<polygon fill="midnightblue" stroke="midnightblue" points="530.675,-76.4801 538.237,-69.0592 527.698,-70.1449 530.675,-76.4801"/>
</g>
<!-- Node12&#45;&gt;Node4 -->
<g id="edge13" class="edge"><title>Node12&#45;&gt;Node4</title>
<path fill="none" stroke="midnightblue" d="M542.406,-19.5829C534.32,-22.3252 525.741,-25.5238 518,-29 453.335,-58.037 382.173,-102.154 346.714,-125.044"/>
<polygon fill="midnightblue" stroke="midnightblue" points="344.571,-122.263 338.093,-130.646 348.386,-128.132 344.571,-122.263"/>
</g>
</g>
</svg>
        <g id="navigator" transform="translate(0 0)" fill="#404254">
                <rect fill="#f2f5e9" fill-opacity="0.5" stroke="#606060" stroke-width=".5" x="0" y="0" width="60" height="60"/>
                <use id="zoomplus" xlink:href="#zoomPlus" x="17" y="9" onmousedown="handleZoom(evt,'in')"/>
                <use id="zoomminus" xlink:href="#zoomMin" x="42" y="9" onmousedown="handleZoom(evt,'out')"/>
                <use id="reset" xlink:href="#resetDef" x="30" y="36" onmousedown="handleReset()"/>
                <g id="arrowUp" xlink:href="#dirArrow" transform="translate(30 24)" onmousedown="handlePan(0,-1)">
                  <use xlink:href="#rim" fill="#404040">
                        <set attributeName="fill" to="#808080" begin="arrowUp.mouseover" end="arrowUp.mouseout"/>
                  </use>
                  <path fill="none" stroke="white" stroke-width="1.5" d="M0,-3.0v7 M-2.5,-0.5L0,-3.0L2.5,-0.5"/>
                </g>
                <g id="arrowRight" xlink:href="#dirArrow" transform="rotate(90) translate(36 -43)" onmousedown="handlePan(1,0)">
                  <use xlink:href="#rim" fill="#404040">
                        <set attributeName="fill" to="#808080" begin="arrowRight.mouseover" end="arrowRight.mouseout"/>
                  </use>
                  <path fill="none" stroke="white" stroke-width="1.5" d="M0,-3.0v7 M-2.5,-0.5L0,-3.0L2.5,-0.5"/>
                </g>
                <g id="arrowDown" xlink:href="#dirArrow" transform="rotate(180) translate(-30 -48)" onmousedown="handlePan(0,1)">
                  <use xlink:href="#rim" fill="#404040">
                        <set attributeName="fill" to="#808080" begin="arrowDown.mouseover" end="arrowDown.mouseout"/>
                  </use>
                  <path fill="none" stroke="white" stroke-width="1.5" d="M0,-3.0v7 M-2.5,-0.5L0,-3.0L2.5,-0.5"/>
                </g>
                <g id="arrowLeft" xlink:href="#dirArrow" transform="rotate(270) translate(-36 17)" onmousedown="handlePan(-1,0)">
                  <use xlink:href="#rim" fill="#404040">
                        <set attributeName="fill" to="#808080" begin="arrowLeft.mouseover" end="arrowLeft.mouseout"/>
                  </use>
                  <path fill="none" stroke="white" stroke-width="1.5" d="M0,-3.0v7 M-2.5,-0.5L0,-3.0L2.5,-0.5"/>
                </g>
        </g>
        <svg viewBox="0 0 15 15" width="100%" height="30px" preserveAspectRatio="xMaxYMin meet">
         <g id="arrow_out" transform="scale(0.3 0.3)">
          <a xlink:href="sv__buffs_8qc_af41febcb8b97a071549120768e720661_cgraph_org.svg" target="_base">
           <rect id="button" ry="5" rx="5" y="6" x="6" height="38" width="38"
                fill="#f2f5e9" fill-opacity="0.5" stroke="#606060" stroke-width="1.0"/>
           <path id="arrow"
             d="M 11.500037,31.436501 C 11.940474,20.09759 22.043105,11.32322 32.158766,21.979434 L 37.068811,17.246167 C 37.068811,17.246167 37.088388,32 37.088388,32 L 22.160133,31.978069 C 22.160133,31.978069 26.997745,27.140456 26.997745,27.140456 C 18.528582,18.264221 13.291696,25.230495 11.500037,31.436501 z"
             style="fill:#404040;"/>
          </a>
         </g>
        </svg>
</svg>
