<?xml version="1.0" encoding="UTF-8" standalone="no"?>
<!DOCTYPE svg PUBLIC "-//W3C//DTD SVG 1.1//EN"
 "http://www.w3.org/Graphics/SVG/1.1/DTD/svg11.dtd">
<!-- Generated by graphviz version 2.38.0 (20140413.2041)
 -->
<!-- Title: ctf_Initialize Pages: 1 -->
<svg width="448pt" height="300pt"
 viewBox="0.00 0.00 448.00 300.00" xmlns="http://www.w3.org/2000/svg" xmlns:xlink="http://www.w3.org/1999/xlink">
<g id="graph0" class="graph" transform="scale(1 1) rotate(0) translate(4 296)">
<title>ctf_Initialize</title>
<!-- Node1 -->
<g id="node1" class="node"><title>Node1</title>
<polygon fill="#bfbfbf" stroke="black" points="0,-177.5 0,-196.5 72,-196.5 72,-177.5 0,-177.5"/>
<text text-anchor="middle" x="36" y="-184.5" font-family="Helvetica,sans-Serif" font-size="10.00">ctf_Initialize</text>
</g>
<!-- Node2 -->
<g id="node2" class="node"><title>Node2</title>
<g id="a_node2"><a xlink:href="../../dd/d0c/sv__ctf_8qc.html#aec49e925d9226a199fdab11d49df8f5f" target="_top" xlink:title="ctf_DelayedInit">
<polygon fill="none" stroke="black" points="108,-158.5 108,-177.5 195,-177.5 195,-158.5 108,-158.5"/>
<text text-anchor="middle" x="151.5" y="-165.5" font-family="Helvetica,sans-Serif" font-size="10.00">ctf_DelayedInit</text>
</a>
</g>
</g>
<!-- Node1&#45;&gt;Node2 -->
<g id="edge1" class="edge"><title>Node1&#45;&gt;Node2</title>
<path fill="none" stroke="midnightblue" d="M72.2899,-181.092C80.3348,-179.746 89.0544,-178.286 97.6539,-176.846"/>
<polygon fill="midnightblue" stroke="midnightblue" points="98.3613,-180.277 107.646,-175.174 97.2055,-173.373 98.3613,-180.277"/>
</g>
<!-- Node12 -->
<g id="node12" class="node"><title>Node12</title>
<g id="a_node12"><a xlink:href="../../d4/d54/map_8qh.html#a9ef8574526bd0fc3ba024e3ca148de85" target="_top" xlink:title="db_get">
<polygon fill="none" stroke="black" points="126.5,-234.5 126.5,-253.5 176.5,-253.5 176.5,-234.5 126.5,-234.5"/>
<text text-anchor="middle" x="151.5" y="-241.5" font-family="Helvetica,sans-Serif" font-size="10.00">db_get</text>
</a>
</g>
</g>
<!-- Node1&#45;&gt;Node12 -->
<g id="edge13" class="edge"><title>Node1&#45;&gt;Node12</title>
<path fill="none" stroke="midnightblue" d="M54.0396,-196.559C68.3129,-204.46 89.2963,-215.828 108,-225 111.572,-226.751 115.341,-228.532 119.1,-230.265"/>
<polygon fill="midnightblue" stroke="midnightblue" points="117.75,-233.496 128.303,-234.434 120.638,-227.12 117.75,-233.496"/>
</g>
<!-- Node13 -->
<g id="node13" class="node"><title>Node13</title>
<g id="a_node13"><a xlink:href="../../dc/d73/server_2miscfunctions_8qh.html#a1330c9208470a4800fb84c8810728bcb" target="_top" xlink:title="GetMapname">
<polygon fill="none" stroke="black" points="110.5,-196.5 110.5,-215.5 192.5,-215.5 192.5,-196.5 110.5,-196.5"/>
<text text-anchor="middle" x="151.5" y="-203.5" font-family="Helvetica,sans-Serif" font-size="10.00">GetMapname</text>
</a>
</g>
</g>
<!-- Node1&#45;&gt;Node13 -->
<g id="edge14" class="edge"><title>Node1&#45;&gt;Node13</title>
<path fill="none" stroke="midnightblue" d="M72.2899,-192.908C81.1787,-194.396 90.8913,-196.021 100.355,-197.606"/>
<polygon fill="midnightblue" stroke="midnightblue" points="100.036,-201.101 110.477,-199.3 101.192,-194.197 100.036,-201.101"/>
</g>
<!-- Node14 -->
<g id="node14" class="node"><title>Node14</title>
<g id="a_node14"><a xlink:href="../../dc/dc6/server_2miscfunctions_8qc.html#aef9b6a1e3d47e62ce4d96e73b3dba237" target="_top" xlink:title="InitializeEntity">
<polygon fill="none" stroke="black" points="253,-272.5 253,-291.5 335,-291.5 335,-272.5 253,-272.5"/>
<text text-anchor="middle" x="294" y="-279.5" font-family="Helvetica,sans-Serif" font-size="10.00">InitializeEntity</text>
</a>
</g>
</g>
<!-- Node1&#45;&gt;Node14 -->
<g id="edge15" class="edge"><title>Node1&#45;&gt;Node14</title>
<path fill="none" stroke="midnightblue" d="M42.597,-196.508C53.0462,-213.269 77.2723,-247.743 108,-263 150.076,-283.892 204.083,-287.173 242.868,-286.114"/>
<polygon fill="midnightblue" stroke="midnightblue" points="243.021,-289.611 252.882,-285.735 242.757,-282.616 243.021,-289.611"/>
</g>
<!-- Node15 -->
<g id="node15" class="node"><title>Node15</title>
<g id="a_node15"><a xlink:href="../../d8/de2/menudefs_8qc.html#a2f6d3020689c0e872cfb455d0b2cbd4a" target="_top" xlink:title="stof">
<polygon fill="none" stroke="black" points="134,-120.5 134,-139.5 169,-139.5 169,-120.5 134,-120.5"/>
<text text-anchor="middle" x="151.5" y="-127.5" font-family="Helvetica,sans-Serif" font-size="10.00">stof</text>
</a>
</g>
</g>
<!-- Node1&#45;&gt;Node15 -->
<g id="edge17" class="edge"><title>Node1&#45;&gt;Node15</title>
<path fill="none" stroke="midnightblue" d="M54.0396,-177.441C68.3129,-169.54 89.2963,-158.172 108,-149 113.261,-146.42 118.951,-143.778 124.405,-141.315"/>
<polygon fill="midnightblue" stroke="midnightblue" points="126.107,-144.389 133.823,-137.128 123.263,-137.992 126.107,-144.389"/>
</g>
<!-- Node16 -->
<g id="node16" class="node"><title>Node16</title>
<g id="a_node16"><a xlink:href="../../d9/d09/notifications_2all_8inc.html#ad04f6b1a4889674503c3cdad58c55da1" target="_top" xlink:title="strcat">
<polygon fill="none" stroke="black" points="129.5,-82.5 129.5,-101.5 173.5,-101.5 173.5,-82.5 129.5,-82.5"/>
<text text-anchor="middle" x="151.5" y="-89.5" font-family="Helvetica,sans-Serif" font-size="10.00">strcat</text>
</a>
</g>
</g>
<!-- Node1&#45;&gt;Node16 -->
<g id="edge18" class="edge"><title>Node1&#45;&gt;Node16</title>
<path fill="none" stroke="midnightblue" d="M43.8909,-177.437C55.5703,-161.79 80.6641,-130.511 108,-111 111.727,-108.34 115.886,-105.926 120.103,-103.781"/>
<polygon fill="midnightblue" stroke="midnightblue" points="121.686,-106.905 129.283,-99.5203 118.739,-100.555 121.686,-106.905"/>
</g>
<!-- Node3 -->
<g id="node3" class="node"><title>Node3</title>
<g id="a_node3"><a xlink:href="../../dd/d0c/sv__ctf_8qc.html#adf49379e9cbcc6fd5ea47bf9b77d78cf" target="_top" xlink:title="ctf_ScoreRules">
<polygon fill="none" stroke="black" points="251,-196.5 251,-215.5 337,-215.5 337,-196.5 251,-196.5"/>
<text text-anchor="middle" x="294" y="-203.5" font-family="Helvetica,sans-Serif" font-size="10.00">ctf_ScoreRules</text>
</a>
</g>
</g>
<!-- Node2&#45;&gt;Node3 -->
<g id="edge2" class="edge"><title>Node2&#45;&gt;Node3</title>
<path fill="none" stroke="midnightblue" d="M187.954,-177.589C206.091,-182.494 228.368,-188.52 247.733,-193.757"/>
<polygon fill="midnightblue" stroke="midnightblue" points="246.99,-197.182 257.557,-196.414 248.818,-190.425 246.99,-197.182"/>
</g>
<!-- Node4 -->
<g id="node4" class="node"><title>Node4</title>
<g id="a_node4"><a xlink:href="../../dd/d0c/sv__ctf_8qc.html#a051dbf20540414d569d6b946f26ad64d" target="_top" xlink:title="ctf_SpawnTeam">
<polygon fill="none" stroke="black" points="248.5,-158.5 248.5,-177.5 339.5,-177.5 339.5,-158.5 248.5,-158.5"/>
<text text-anchor="middle" x="294" y="-165.5" font-family="Helvetica,sans-Serif" font-size="10.00">ctf_SpawnTeam</text>
</a>
</g>
</g>
<!-- Node2&#45;&gt;Node4 -->
<g id="edge3" class="edge"><title>Node2&#45;&gt;Node4</title>
<path fill="none" stroke="midnightblue" d="M195.036,-168C208.554,-168 223.703,-168 237.972,-168"/>
<polygon fill="midnightblue" stroke="midnightblue" points="238.171,-171.5 248.171,-168 238.171,-164.5 238.171,-171.5"/>
</g>
<!-- Node5 -->
<g id="node5" class="node"><title>Node5</title>
<g id="a_node5"><a xlink:href="../../d4/d0c/csprogsdefs_8qc.html#acbb54a239d76062465dccbc6a6c6e464" target="_top" xlink:title="entity">
<polygon fill="none" stroke="black" points="394.5,-136.5 394.5,-155.5 438.5,-155.5 438.5,-136.5 394.5,-136.5"/>
<text text-anchor="middle" x="416.5" y="-143.5" font-family="Helvetica,sans-Serif" font-size="10.00">entity</text>
</a>
</g>
</g>
<!-- Node2&#45;&gt;Node5 -->
<g id="edge5" class="edge"><title>Node2&#45;&gt;Node5</title>
<path fill="none" stroke="midnightblue" d="M178.553,-158.296C184.206,-155.668 189.988,-152.551 195,-149 213.983,-135.551 209.629,-120.192 231,-111 282.443,-88.8727 303.023,-96.0857 357,-111 370.903,-114.842 384.827,-122.958 395.601,-130.408"/>
<polygon fill="midnightblue" stroke="midnightblue" points="393.695,-133.35 403.841,-136.402 397.813,-127.689 393.695,-133.35"/>
</g>
<!-- Node6 -->
<g id="node6" class="node"><title>Node6</title>
<g id="a_node6"><a xlink:href="../../d8/de2/menudefs_8qc.html#a53c4a8e7afd17cad92bc00adba96bb78" target="_top" xlink:title="find">
<polygon fill="none" stroke="black" points="277,-120.5 277,-139.5 311,-139.5 311,-120.5 277,-120.5"/>
<text text-anchor="middle" x="294" y="-127.5" font-family="Helvetica,sans-Serif" font-size="10.00">find</text>
</a>
</g>
</g>
<!-- Node2&#45;&gt;Node6 -->
<g id="edge6" class="edge"><title>Node2&#45;&gt;Node6</title>
<path fill="none" stroke="midnightblue" d="M187.954,-158.411C212.517,-151.768 244.672,-143.071 266.904,-137.058"/>
<polygon fill="midnightblue" stroke="midnightblue" points="267.912,-140.411 276.651,-134.422 266.084,-133.654 267.912,-140.411"/>
</g>
<!-- Node7 -->
<g id="node7" class="node"><title>Node7</title>
<g id="a_node7"><a xlink:href="../../dd/d0c/sv__ctf_8qc.html#a3839fed84362d2b1fae76122755013d7" target="_top" xlink:title="havocbot_ctf_calculate\l_middlepoint">
<polygon fill="none" stroke="black" points="231,-33 231,-63 357,-63 357,-33 231,-33"/>
<text text-anchor="start" x="239" y="-51" font-family="Helvetica,sans-Serif" font-size="10.00">havocbot_ctf_calculate</text>
<text text-anchor="middle" x="294" y="-40" font-family="Helvetica,sans-Serif" font-size="10.00">_middlepoint</text>
</a>
</g>
</g>
<!-- Node2&#45;&gt;Node7 -->
<g id="edge7" class="edge"><title>Node2&#45;&gt;Node7</title>
<path fill="none" stroke="midnightblue" d="M181.158,-158.442C186.156,-155.907 191.02,-152.79 195,-149 220.621,-124.601 205.751,-102.784 231,-78 234.692,-74.3759 238.907,-71.1199 243.363,-68.2111"/>
<polygon fill="midnightblue" stroke="midnightblue" points="245.31,-71.1268 252.154,-63.0397 241.76,-65.0933 245.31,-71.1268"/>
</g>
<!-- Node11 -->
<g id="node11" class="node"><title>Node11</title>
<g id="a_node11"><a xlink:href="../../d5/d14/scores__rules_8qc.html#ae01e878023ee1a5ecc45cc3d62c3895f" target="_top" xlink:title="NumTeams">
<polygon fill="none" stroke="black" points="258.5,-234.5 258.5,-253.5 329.5,-253.5 329.5,-234.5 258.5,-234.5"/>
<text text-anchor="middle" x="294" y="-241.5" font-family="Helvetica,sans-Serif" font-size="10.00">NumTeams</text>
</a>
</g>
</g>
<!-- Node2&#45;&gt;Node11 -->
<g id="edge12" class="edge"><title>Node2&#45;&gt;Node11</title>
<path fill="none" stroke="midnightblue" d="M178.553,-177.704C184.206,-180.332 189.988,-183.449 195,-187 213.983,-200.449 211.226,-212.743 231,-225 236.463,-228.386 242.573,-231.207 248.77,-233.547"/>
<polygon fill="midnightblue" stroke="midnightblue" points="247.905,-236.949 258.499,-236.838 250.148,-230.318 247.905,-236.949"/>
</g>
<!-- Node4&#45;&gt;Node5 -->
<g id="edge4" class="edge"><title>Node4&#45;&gt;Node5</title>
<path fill="none" stroke="midnightblue" d="M339.527,-159.871C354.486,-157.139 370.836,-154.155 384.522,-151.656"/>
<polygon fill="midnightblue" stroke="midnightblue" points="385.194,-155.091 394.403,-149.852 383.937,-148.205 385.194,-155.091"/>
</g>
<!-- Node7&#45;&gt;Node5 -->
<g id="edge8" class="edge"><title>Node7&#45;&gt;Node5</title>
<path fill="none" stroke="midnightblue" d="M332.516,-63.096C340.962,-67.3087 349.606,-72.3146 357,-78 375.402,-92.1501 392.208,-112.877 403.038,-127.724"/>
<polygon fill="midnightblue" stroke="midnightblue" points="400.333,-129.96 408.969,-136.097 406.045,-125.914 400.333,-129.96"/>
</g>
<!-- Node8 -->
<g id="node8" class="node"><title>Node8</title>
<g id="a_node8"><a xlink:href="../../d8/de2/menudefs_8qc.html#aebeeec7a2529f36483e14f76b1871271" target="_top" xlink:title="max">
<polygon fill="none" stroke="black" points="397.5,-38.5 397.5,-57.5 435.5,-57.5 435.5,-38.5 397.5,-38.5"/>
<text text-anchor="middle" x="416.5" y="-45.5" font-family="Helvetica,sans-Serif" font-size="10.00">max</text>
</a>
</g>
</g>
<!-- Node7&#45;&gt;Node8 -->
<g id="edge9" class="edge"><title>Node7&#45;&gt;Node8</title>
<path fill="none" stroke="midnightblue" d="M357.015,-48C367.626,-48 378.163,-48 387.31,-48"/>
<polygon fill="midnightblue" stroke="midnightblue" points="387.329,-51.5001 397.329,-48 387.329,-44.5001 387.329,-51.5001"/>
</g>
<!-- Node9 -->
<g id="node9" class="node"><title>Node9</title>
<g id="a_node9"><a xlink:href="../../da/dde/csprogsdefs_8qh.html#a2626679e4144af8478202c6c28f90cd9" target="_top" xlink:title="vector">
<polygon fill="none" stroke="black" points="393,-0.5 393,-19.5 440,-19.5 440,-0.5 393,-0.5"/>
<text text-anchor="middle" x="416.5" y="-7.5" font-family="Helvetica,sans-Serif" font-size="10.00">vector</text>
</a>
</g>
</g>
<!-- Node7&#45;&gt;Node9 -->
<g id="edge10" class="edge"><title>Node7&#45;&gt;Node9</title>
<path fill="none" stroke="midnightblue" d="M342.625,-32.9814C356.193,-28.7027 370.655,-24.1419 383.09,-20.2206"/>
<polygon fill="midnightblue" stroke="midnightblue" points="384.51,-23.4429 392.994,-17.0974 382.404,-16.767 384.51,-23.4429"/>
</g>
<!-- Node10 -->
<g id="node10" class="node"><title>Node10</title>
<g id="a_node10"><a xlink:href="../../d8/de2/menudefs_8qc.html#a79d61ab0e4126e02af8bc36d432aedaf" target="_top" xlink:title="vlen">
<polygon fill="none" stroke="black" points="398.5,-76.5 398.5,-95.5 434.5,-95.5 434.5,-76.5 398.5,-76.5"/>
<text text-anchor="middle" x="416.5" y="-83.5" font-family="Helvetica,sans-Serif" font-size="10.00">vlen</text>
</a>
</g>
</g>
<!-- Node7&#45;&gt;Node10 -->
<g id="edge11" class="edge"><title>Node7&#45;&gt;Node10</title>
<path fill="none" stroke="midnightblue" d="M342.625,-63.0186C358.247,-67.945 375.054,-73.2453 388.587,-77.5129"/>
<polygon fill="midnightblue" stroke="midnightblue" points="387.634,-80.8821 398.223,-80.5517 389.739,-74.2062 387.634,-80.8821"/>
</g>
<!-- Node14&#45;&gt;Node5 -->
<g id="edge16" class="edge"><title>Node14&#45;&gt;Node5</title>
<path fill="none" stroke="midnightblue" d="M335.133,-274.892C342.989,-272.135 350.726,-268.309 357,-263 387.491,-237.2 403.698,-191.628 410.856,-165.628"/>
<polygon fill="midnightblue" stroke="midnightblue" points="414.283,-166.355 413.385,-155.798 407.503,-164.61 414.283,-166.355"/>
</g>
</g>
</svg>
