<?xml version="1.0" encoding="UTF-8" standalone="no"?>
<!DOCTYPE svg PUBLIC "-//W3C//DTD SVG 1.1//EN"
 "http://www.w3.org/Graphics/SVG/1.1/DTD/svg11.dtd">
<!-- Generated by graphviz version 2.40.1 (20161225.0304)
 -->
<!-- Title: XonoticMediaTab_fill Pages: 1 -->
<svg width="387pt" height="47pt"
 viewBox="0.00 0.00 387.00 47.00" xmlns="http://www.w3.org/2000/svg" xmlns:xlink="http://www.w3.org/1999/xlink">
<g id="graph0" class="graph" transform="scale(1 1) rotate(0) translate(4 43)">
<title>XonoticMediaTab_fill</title>
<!-- Node3 -->
<g id="node1" class="node">
<title>Node3</title>
<polygon fill="#bfbfbf" stroke="#000000" points="0,-19.5 0,-38.5 116,-38.5 116,-19.5 0,-19.5"/>
<text text-anchor="middle" x="58" y="-26.5" font-family="Helvetica,sans-Serif" font-size="10.00" fill="#000000">XonoticMediaTab_fill</text>
</g>
<!-- Node4 -->
<g id="node2" class="node">
<title>Node4</title>
<g id="a_node2"><a xlink:href="../../d4/d0c/csprogsdefs_8qc.html#acbb54a239d76062465dccbc6a6c6e464" target="_top" xlink:title="entity">
<polygon fill="none" stroke="#000000" points="334,-19.5 334,-38.5 379,-38.5 379,-19.5 334,-19.5"/>
<text text-anchor="middle" x="356.5" y="-26.5" font-family="Helvetica,sans-Serif" font-size="10.00" fill="#000000">entity</text>
</a>
</g>
</g>
<!-- Node3&#45;&gt;Node4 -->
<g id="edge1" class="edge">
<title>Node3&#45;&gt;Node4</title>
<path fill="none" stroke="#191970" d="M116.2624,-29C178.0669,-29 273.5326,-29 323.4771,-29"/>
<polygon fill="#191970" stroke="#191970" points="323.7047,-32.5001 333.7047,-29 323.7047,-25.5001 323.7047,-32.5001"/>
</g>
<!-- Node5 -->
<g id="node3" class="node">
<title>Node5</title>
<g id="a_node3"><a xlink:href="../../dc/dcf/tabcontroller_8qc.html#a36ea716821d3a819ddd97f6fa21570e6" target="_top" xlink:title="makeXonoticTabController">
<polygon fill="none" stroke="#000000" points="152,-.5 152,-19.5 298,-19.5 298,-.5 152,-.5"/>
<text text-anchor="middle" x="225" y="-7.5" font-family="Helvetica,sans-Serif" font-size="10.00" fill="#000000">makeXonoticTabController</text>
</a>
</g>
</g>
<!-- Node3&#45;&gt;Node5 -->
<g id="edge2" class="edge">
<title>Node3&#45;&gt;Node5</title>
<path fill="none" stroke="#191970" d="M116.4085,-22.3547C124.6563,-21.4164 133.2641,-20.437 141.8667,-19.4583"/>
<polygon fill="#191970" stroke="#191970" points="142.401,-22.9202 151.9412,-18.3121 141.6096,-15.965 142.401,-22.9202"/>
</g>
<!-- Node5&#45;&gt;Node4 -->
<g id="edge3" class="edge">
<title>Node5&#45;&gt;Node4</title>
<path fill="none" stroke="#191970" d="M291.1353,-19.5557C302.4077,-21.1844 313.6651,-22.8109 323.5819,-24.2438"/>
<polygon fill="#191970" stroke="#191970" points="323.3562,-27.7474 333.7539,-25.7135 324.3573,-20.8194 323.3562,-27.7474"/>
</g>
</g>
</svg>
