<?xml version="1.0" encoding="UTF-8" standalone="no"?>
<!DOCTYPE svg PUBLIC "-//W3C//DTD SVG 1.1//EN"
 "http://www.w3.org/Graphics/SVG/1.1/DTD/svg11.dtd">
<!-- Generated by graphviz version 2.36.0 (20140111.2315)
 -->
<!-- Title: trigger_push_touch Pages: 1 -->
<!--zoomable 560 -->
<svg id="main" version="1.1" xmlns="http://www.w3.org/2000/svg" xmlns:xlink="http://www.w3.org/1999/xlink" xml:space="preserve" onload="init(evt)">
<style type="text/css"><![CDATA[
.edge:hover path { stroke: red; }
.edge:hover polygon { stroke: red; fill: red; }
]]></style>
<script type="text/javascript"><![CDATA[
var edges = document.getElementsByTagName('g');
if (edges && edges.length) {
  for (var i=0;i<edges.length;i++) {
    if (edges[i].id.substr(0,4)=='edge') {
      edges[i].setAttribute('class','edge');
    }
  }
}
]]></script>
        <defs>
                <circle id="rim" cx="0" cy="0" r="7"/>
                <circle id="rim2" cx="0" cy="0" r="3.5"/>
                <g id="zoomPlus">
                        <use xlink:href="#rim" fill="#404040">
                                <set attributeName="fill" to="#808080" begin="zoomplus.mouseover" end="zoomplus.mouseout"/>
                        </use>
                        <path d="M-4,0h8M0,-4v8" fill="none" stroke="white" stroke-width="1.5" pointer-events="none"/>
                </g>
                <g id="zoomMin">
                        <use xlink:href="#rim" fill="#404040">
                                <set attributeName="fill" to="#808080" begin="zoomminus.mouseover" end="zoomminus.mouseout"/>
                        </use>
                        <path d="M-4,0h8" fill="none" stroke="white" stroke-width="1.5" pointer-events="none"/>
                </g>
                <g id="dirArrow">
                        <path fill="none" stroke="white" stroke-width="1.5" d="M0,-3.0v7 M-2.5,-0.5L0,-3.0L2.5,-0.5"/>
                </g>
               <g id="resetDef">
                       <use xlink:href="#rim2" fill="#404040">
                               <set attributeName="fill" to="#808080" begin="reset.mouseover" end="reset.mouseout"/>
                       </use>
               </g>
        </defs>

<script type="text/javascript">
var viewWidth = 570;
var viewHeight = 560;
var sectionId = 'dynsection-4';
</script>
<script xlink:href="../../svgpan.js"/>
<svg id="graph" class="graph">
<g id="viewport">
<title>trigger_push_touch</title>
<!-- Node1 -->
<g id="node1" class="node"><title>Node1</title>
<polygon fill="#bfbfbf" stroke="black" points="0.5,-285.5 0.5,-304.5 99.5,-304.5 99.5,-285.5 0.5,-285.5"/>
<text text-anchor="middle" x="50" y="-292.5" font-family="Helvetica,sans-Serif" font-size="10.00">trigger_push_touch</text>
</g>
<!-- Node2 -->
<g id="node2" class="node"><title>Node2</title>
<g id="a_node2"><a xlink:href="../../d0/d51/animdecide_8qc.html#ada84f7ee6c4814b1cd8d979586eb61d1" target="_top" xlink:title="animdecide_setaction">
<polygon fill="none" stroke="black" points="154.5,-532.5 154.5,-551.5 265.5,-551.5 265.5,-532.5 154.5,-532.5"/>
<text text-anchor="middle" x="210" y="-539.5" font-family="Helvetica,sans-Serif" font-size="10.00">animdecide_setaction</text>
</a>
</g>
</g>
<!-- Node1&#45;&gt;Node2 -->
<g id="edge1" class="edge"><title>Node1&#45;&gt;Node2</title>
<path fill="none" stroke="midnightblue" d="M51.7889,-304.627C55.1099,-338.855 70.9636,-455.921 136,-518 140.266,-522.072 145.235,-525.453 150.537,-528.261"/>
<polygon fill="midnightblue" stroke="midnightblue" points="149.161,-531.48 159.71,-532.465 152.078,-525.117 149.161,-531.48"/>
</g>
<!-- Node3 -->
<g id="node3" class="node"><title>Node3</title>
<g id="a_node3"><a xlink:href="../../d8/de2/menudefs_8qc.html#aa90038262dd0464a4c251487bc5efc9f" target="_top" xlink:title="centerprint">
<polygon fill="none" stroke="black" points="359,-532.5 359,-551.5 421,-551.5 421,-532.5 359,-532.5"/>
<text text-anchor="middle" x="390" y="-539.5" font-family="Helvetica,sans-Serif" font-size="10.00">centerprint</text>
</a>
</g>
</g>
<!-- Node1&#45;&gt;Node3 -->
<g id="edge2" class="edge"><title>Node1&#45;&gt;Node3</title>
<path fill="none" stroke="midnightblue" d="M52.4497,-304.909C57.5531,-336.078 77.6456,-432.9 136,-481 152.415,-494.531 281.605,-521.167 348.755,-534.303"/>
<polygon fill="midnightblue" stroke="midnightblue" points="348.098,-537.741 358.582,-536.216 349.435,-530.87 348.098,-537.741"/>
</g>
<!-- Node4 -->
<g id="node4" class="node"><title>Node4</title>
<g id="a_node4"><a xlink:href="../../d4/d0c/csprogsdefs_8qc.html#acbb54a239d76062465dccbc6a6c6e464" target="_top" xlink:title="entity">
<polygon fill="none" stroke="black" points="369.5,-494.5 369.5,-513.5 410.5,-513.5 410.5,-494.5 369.5,-494.5"/>
<text text-anchor="middle" x="390" y="-501.5" font-family="Helvetica,sans-Serif" font-size="10.00">entity</text>
</a>
</g>
</g>
<!-- Node1&#45;&gt;Node4 -->
<g id="edge3" class="edge"><title>Node1&#45;&gt;Node4</title>
<path fill="none" stroke="midnightblue" d="M53.4227,-304.667C60.7524,-331.809 85.3624,-409.199 136,-447 171.24,-473.306 300.01,-492.655 359.054,-500.347"/>
<polygon fill="midnightblue" stroke="midnightblue" points="358.866,-503.851 369.229,-501.646 359.753,-496.908 358.866,-503.851"/>
</g>
<!-- Node5 -->
<g id="node5" class="node"><title>Node5</title>
<g id="a_node5"><a xlink:href="../../d8/de2/menudefs_8qc.html#a53c4a8e7afd17cad92bc00adba96bb78" target="_top" xlink:title="find">
<polygon fill="none" stroke="black" points="374,-380.5 374,-399.5 406,-399.5 406,-380.5 374,-380.5"/>
<text text-anchor="middle" x="390" y="-387.5" font-family="Helvetica,sans-Serif" font-size="10.00">find</text>
</a>
</g>
</g>
<!-- Node1&#45;&gt;Node5 -->
<g id="edge4" class="edge"><title>Node1&#45;&gt;Node5</title>
<path fill="none" stroke="midnightblue" d="M65.0725,-304.626C81.41,-315.353 109.511,-332.442 136,-342 216.2,-370.939 317.316,-383.4 363.675,-387.873"/>
<polygon fill="midnightblue" stroke="midnightblue" points="363.451,-391.367 373.73,-388.799 364.094,-384.397 363.451,-391.367"/>
</g>
<!-- Node6 -->
<g id="node6" class="node"><title>Node6</title>
<g id="a_node6"><a xlink:href="../../d1/df7/nil_8qh.html#a48cdb42ec925da155dd105031cac3f44" target="_top" xlink:title="func_null">
<polygon fill="none" stroke="black" points="182,-266.5 182,-285.5 238,-285.5 238,-266.5 182,-266.5"/>
<text text-anchor="middle" x="210" y="-273.5" font-family="Helvetica,sans-Serif" font-size="10.00">func_null</text>
</a>
</g>
</g>
<!-- Node1&#45;&gt;Node6 -->
<g id="edge5" class="edge"><title>Node1&#45;&gt;Node6</title>
<path fill="none" stroke="midnightblue" d="M99.6944,-289.144C122.915,-286.352 150.253,-283.065 171.78,-280.476"/>
<polygon fill="midnightblue" stroke="midnightblue" points="172.327,-283.935 181.837,-279.266 171.491,-276.985 172.327,-283.935"/>
</g>
<!-- Node7 -->
<g id="node7" class="node"><title>Node7</title>
<g id="a_node7"><a xlink:href="../../dc/dc6/server_2miscfunctions_8qc.html#a5b86d62af04bbd33aa2bca5635a1e2fa" target="_top" xlink:title="isPushable">
<polygon fill="none" stroke="black" points="177.5,-228.5 177.5,-247.5 242.5,-247.5 242.5,-228.5 177.5,-228.5"/>
<text text-anchor="middle" x="210" y="-235.5" font-family="Helvetica,sans-Serif" font-size="10.00">isPushable</text>
</a>
</g>
</g>
<!-- Node1&#45;&gt;Node7 -->
<g id="edge6" class="edge"><title>Node1&#45;&gt;Node7</title>
<path fill="none" stroke="midnightblue" d="M69.8741,-285.473C86.8601,-277.164 112.664,-265.19 136,-257 146.113,-253.451 157.222,-250.229 167.655,-247.488"/>
<polygon fill="midnightblue" stroke="midnightblue" points="168.566,-250.868 177.396,-245.012 166.842,-244.083 168.566,-250.868"/>
</g>
<!-- Node8 -->
<g id="node8" class="node"><title>Node8</title>
<g id="a_node8"><a xlink:href="../../dc/d95/random_8qc.html#a95527c538e7d69ffdd2779998fdabb42" target="_top" xlink:title="RandomSelection_Add">
<polygon fill="none" stroke="black" points="332,-342.5 332,-361.5 448,-361.5 448,-342.5 332,-342.5"/>
<text text-anchor="middle" x="390" y="-349.5" font-family="Helvetica,sans-Serif" font-size="10.00">RandomSelection_Add</text>
</a>
</g>
</g>
<!-- Node1&#45;&gt;Node8 -->
<g id="edge7" class="edge"><title>Node1&#45;&gt;Node8</title>
<path fill="none" stroke="midnightblue" d="M84.3024,-304.573C99.9045,-308.812 118.804,-313.597 136,-317 198.597,-329.387 270.765,-338.908 321.963,-344.87"/>
<polygon fill="midnightblue" stroke="midnightblue" points="321.579,-348.349 331.914,-346.015 322.379,-341.395 321.579,-348.349"/>
</g>
<!-- Node10 -->
<g id="node10" class="node"><title>Node10</title>
<g id="a_node10"><a xlink:href="../../dc/d95/random_8qc.html#a2d70d358bbf6aa8252f2aebc596d67c1" target="_top" xlink:title="RandomSelection_Init">
<polygon fill="none" stroke="black" points="333.5,-304.5 333.5,-323.5 446.5,-323.5 446.5,-304.5 333.5,-304.5"/>
<text text-anchor="middle" x="390" y="-311.5" font-family="Helvetica,sans-Serif" font-size="10.00">RandomSelection_Init</text>
</a>
</g>
</g>
<!-- Node1&#45;&gt;Node10 -->
<g id="edge9" class="edge"><title>Node1&#45;&gt;Node10</title>
<path fill="none" stroke="midnightblue" d="M99.7871,-297.742C158.615,-301.049 257.736,-306.621 323.265,-310.305"/>
<polygon fill="midnightblue" stroke="midnightblue" points="323.302,-313.812 333.483,-310.879 323.695,-306.823 323.302,-313.812"/>
</g>
<!-- Node11 -->
<g id="node11" class="node"><title>Node11</title>
<g id="a_node11"><a xlink:href="../../d4/dd7/movetypes_8qh.html#a8bf89be84cb481d218ff41140eacff78" target="_top" xlink:title="set_movetype">
<polygon fill="none" stroke="black" points="171,-190.5 171,-209.5 249,-209.5 249,-190.5 171,-190.5"/>
<text text-anchor="middle" x="210" y="-197.5" font-family="Helvetica,sans-Serif" font-size="10.00">set_movetype</text>
</a>
</g>
</g>
<!-- Node1&#45;&gt;Node11 -->
<g id="edge10" class="edge"><title>Node1&#45;&gt;Node11</title>
<path fill="none" stroke="midnightblue" d="M58.8631,-285.484C72.7341,-269.328 103.2,-236.583 136,-219 143.799,-214.819 152.567,-211.522 161.248,-208.932"/>
<polygon fill="midnightblue" stroke="midnightblue" points="162.221,-212.295 170.958,-206.301 160.39,-205.539 162.221,-212.295"/>
</g>
<!-- Node12 -->
<g id="node12" class="node"><title>Node12</title>
<g id="a_node12"><a xlink:href="../../d5/d95/defer_8qh.html#a82f1a723df145b0f0f7a8511a2a78a41" target="_top" xlink:title="Remove entity. ">
<polygon fill="none" stroke="black" points="170,-152.5 170,-171.5 250,-171.5 250,-152.5 170,-152.5"/>
<text text-anchor="middle" x="210" y="-159.5" font-family="Helvetica,sans-Serif" font-size="10.00">SUB_Remove</text>
</a>
</g>
</g>
<!-- Node1&#45;&gt;Node12 -->
<g id="edge11" class="edge"><title>Node1&#45;&gt;Node12</title>
<path fill="none" stroke="midnightblue" d="M55.3838,-285.311C65.9108,-263.182 94.8324,-208.705 136,-181 143.184,-176.165 151.528,-172.56 159.952,-169.873"/>
<polygon fill="midnightblue" stroke="midnightblue" points="161.123,-173.18 169.814,-167.12 159.241,-166.437 161.123,-173.18"/>
</g>
<!-- Node13 -->
<g id="node13" class="node"><title>Node13</title>
<g id="a_node13"><a xlink:href="../../d6/d57/triggers_8qc.html#a3905086b3426d8a7b89fe8eff17368c6" target="_top" xlink:title="SUB_UseTargets">
<polygon fill="none" stroke="black" points="163,-418.5 163,-437.5 257,-437.5 257,-418.5 163,-418.5"/>
<text text-anchor="middle" x="210" y="-425.5" font-family="Helvetica,sans-Serif" font-size="10.00">SUB_UseTargets</text>
</a>
</g>
</g>
<!-- Node1&#45;&gt;Node13 -->
<g id="edge12" class="edge"><title>Node1&#45;&gt;Node13</title>
<path fill="none" stroke="midnightblue" d="M55.9563,-304.718C67.2446,-325.9 96.9419,-376.523 136,-404 142.076,-408.275 148.963,-411.825 156.021,-414.764"/>
<polygon fill="midnightblue" stroke="midnightblue" points="155.098,-418.157 165.69,-418.404 157.564,-411.606 155.098,-418.157"/>
</g>
<!-- Node16 -->
<g id="node16" class="node"><title>Node16</title>
<g id="a_node16"><a xlink:href="../../d2/d9b/jumppads_8qc.html#a314c2ab38cad8dd0cbe7622152bb918d" target="_top" xlink:title="trigger_push_calculatevelocity">
<polygon fill="none" stroke="black" points="136,-114.5 136,-133.5 284,-133.5 284,-114.5 136,-114.5"/>
<text text-anchor="middle" x="210" y="-121.5" font-family="Helvetica,sans-Serif" font-size="10.00">trigger_push_calculatevelocity</text>
</a>
</g>
</g>
<!-- Node1&#45;&gt;Node16 -->
<g id="edge21" class="edge"><title>Node1&#45;&gt;Node16</title>
<path fill="none" stroke="midnightblue" d="M53.4865,-285.417C60.9841,-258.496 85.9935,-181.632 136,-143 138.332,-141.199 140.818,-139.567 143.412,-138.09"/>
<polygon fill="midnightblue" stroke="midnightblue" points="145.121,-141.151 152.589,-133.636 142.064,-134.854 145.121,-141.151"/>
</g>
<!-- Node22 -->
<g id="node22" class="node"><title>Node22</title>
<g id="a_node22"><a xlink:href="../../d0/dcd/csqcprojectile_8qc.html#a041b0a1ddf8b3bfd790cadc39e07dc7b" target="_top" xlink:title="UpdateCSQCProjectile">
<polygon fill="none" stroke="black" points="151,-76.5 151,-95.5 269,-95.5 269,-76.5 151,-76.5"/>
<text text-anchor="middle" x="210" y="-83.5" font-family="Helvetica,sans-Serif" font-size="10.00">UpdateCSQCProjectile</text>
</a>
</g>
</g>
<!-- Node1&#45;&gt;Node22 -->
<g id="edge28" class="edge"><title>Node1&#45;&gt;Node22</title>
<path fill="none" stroke="midnightblue" d="M52.3465,-285.37C57.2341,-254.163 76.9717,-154.959 136,-105 138.012,-103.297 140.158,-101.745 142.406,-100.33"/>
<polygon fill="midnightblue" stroke="midnightblue" points="144.298,-103.289 151.507,-95.5236 141.029,-97.0987 144.298,-103.289"/>
</g>
<!-- Node26 -->
<g id="node26" class="node"><title>Node26</title>
<g id="a_node26"><a xlink:href="../../d8/de2/menudefs_8qc.html#a822ea10e75a853993f2fa21149d76f4c" target="_top" xlink:title="vectoangles">
<polygon fill="none" stroke="black" points="175.5,-38.5 175.5,-57.5 244.5,-57.5 244.5,-38.5 175.5,-38.5"/>
<text text-anchor="middle" x="210" y="-45.5" font-family="Helvetica,sans-Serif" font-size="10.00">vectoangles</text>
</a>
</g>
</g>
<!-- Node1&#45;&gt;Node26 -->
<g id="edge32" class="edge"><title>Node1&#45;&gt;Node26</title>
<path fill="none" stroke="midnightblue" d="M51.5438,-285.499C54.0667,-250.656 67.6384,-128.708 136,-67 144.103,-59.6852 154.67,-55.1196 165.236,-52.2883"/>
<polygon fill="midnightblue" stroke="midnightblue" points="166.274,-55.6436 175.286,-50.0721 164.767,-48.8078 166.274,-55.6436"/>
</g>
<!-- Node9 -->
<g id="node9" class="node"><title>Node9</title>
<g id="a_node9"><a xlink:href="../../d8/de2/menudefs_8qc.html#a663ea6aa3c4923b3e065cf91cc319f1b" target="_top" xlink:title="random">
<polygon fill="none" stroke="black" points="504.5,-342.5 504.5,-361.5 553.5,-361.5 553.5,-342.5 504.5,-342.5"/>
<text text-anchor="middle" x="529" y="-349.5" font-family="Helvetica,sans-Serif" font-size="10.00">random</text>
</a>
</g>
</g>
<!-- Node8&#45;&gt;Node9 -->
<g id="edge8" class="edge"><title>Node8&#45;&gt;Node9</title>
<path fill="none" stroke="midnightblue" d="M448.307,-352C463.966,-352 480.427,-352 494.297,-352"/>
<polygon fill="midnightblue" stroke="midnightblue" points="494.342,-355.5 504.342,-352 494.342,-348.5 494.342,-355.5"/>
</g>
<!-- Node13&#45;&gt;Node3 -->
<g id="edge16" class="edge"><title>Node13&#45;&gt;Node3</title>
<path fill="none" stroke="midnightblue" d="M222.495,-437.533C236.974,-449.594 262.556,-471.077 284,-490 300.275,-504.361 301.008,-512.493 320,-523 328.969,-527.962 339.324,-531.699 349.239,-534.486"/>
<polygon fill="midnightblue" stroke="midnightblue" points="348.385,-537.88 358.94,-536.965 350.118,-531.098 348.385,-537.88"/>
</g>
<!-- Node13&#45;&gt;Node4 -->
<g id="edge13" class="edge"><title>Node13&#45;&gt;Node4</title>
<path fill="none" stroke="midnightblue" d="M250.207,-437.533C261.541,-441.165 273.639,-445.932 284,-452 302.73,-462.969 301.008,-474.493 320,-485 332.061,-491.673 346.627,-496.13 359.261,-499.039"/>
<polygon fill="midnightblue" stroke="midnightblue" points="358.819,-502.522 369.322,-501.134 360.245,-495.669 358.819,-502.522"/>
</g>
<!-- Node13&#45;&gt;Node5 -->
<g id="edge18" class="edge"><title>Node13&#45;&gt;Node5</title>
<path fill="none" stroke="midnightblue" d="M255.917,-418.411C290.072,-411.119 335.815,-401.354 363.805,-395.379"/>
<polygon fill="midnightblue" stroke="midnightblue" points="364.553,-398.798 373.602,-393.287 363.092,-391.952 364.553,-398.798"/>
</g>
<!-- Node13&#45;&gt;Node8 -->
<g id="edge20" class="edge"><title>Node13&#45;&gt;Node8</title>
<path fill="none" stroke="midnightblue" d="M226.745,-418.394C247.497,-406.057 285.428,-384.619 320,-371 325.993,-368.639 332.389,-366.455 338.778,-364.473"/>
<polygon fill="midnightblue" stroke="midnightblue" points="340.154,-367.717 348.755,-361.529 338.173,-361.003 340.154,-367.717"/>
</g>
<!-- Node13&#45;&gt;Node10 -->
<g id="edge19" class="edge"><title>Node13&#45;&gt;Node10</title>
<path fill="none" stroke="midnightblue" d="M219.271,-418.333C236.205,-399.156 276.875,-356.157 320,-333 324.225,-330.731 328.744,-328.715 333.373,-326.926"/>
<polygon fill="midnightblue" stroke="midnightblue" points="334.687,-330.175 342.968,-323.567 332.374,-323.568 334.687,-330.175"/>
</g>
<!-- Node14 -->
<g id="node14" class="node"><title>Node14</title>
<g id="a_node14"><a xlink:href="../../d6/d57/triggers_8qc.html#a1c58d77ea3f4858ed96288710690cf98" target="_top" xlink:title="DelayThink">
<polygon fill="none" stroke="black" points="357,-418.5 357,-437.5 423,-437.5 423,-418.5 357,-418.5"/>
<text text-anchor="middle" x="390" y="-425.5" font-family="Helvetica,sans-Serif" font-size="10.00">DelayThink</text>
</a>
</g>
</g>
<!-- Node13&#45;&gt;Node14 -->
<g id="edge14" class="edge"><title>Node13&#45;&gt;Node14</title>
<path fill="none" stroke="midnightblue" d="M257.303,-421.994C284.948,-420.951 319.796,-421.005 346.7,-422.155"/>
<polygon fill="midnightblue" stroke="midnightblue" points="346.795,-425.664 356.959,-422.671 347.147,-418.673 346.795,-425.664"/>
</g>
<!-- Node15 -->
<g id="node15" class="node"><title>Node15</title>
<g id="a_node15"><a xlink:href="../../dc/d73/server_2miscfunctions_8qh.html#a3ad01a00f1af9d663eb5c97259434896" target="_top" xlink:title="play2">
<polygon fill="none" stroke="black" points="370,-456.5 370,-475.5 410,-475.5 410,-456.5 370,-456.5"/>
<text text-anchor="middle" x="390" y="-463.5" font-family="Helvetica,sans-Serif" font-size="10.00">play2</text>
</a>
</g>
</g>
<!-- Node13&#45;&gt;Node15 -->
<g id="edge17" class="edge"><title>Node13&#45;&gt;Node15</title>
<path fill="none" stroke="midnightblue" d="M255.917,-437.589C288.428,-444.53 331.439,-453.712 359.644,-459.733"/>
<polygon fill="midnightblue" stroke="midnightblue" points="359.165,-463.21 369.676,-461.875 360.627,-456.364 359.165,-463.21"/>
</g>
<!-- Node14&#45;&gt;Node13 -->
<g id="edge15" class="edge"><title>Node14&#45;&gt;Node13</title>
<path fill="none" stroke="midnightblue" d="M356.959,-433.329C332.105,-434.79 297.03,-435.124 267.494,-434.333"/>
<polygon fill="midnightblue" stroke="midnightblue" points="267.41,-430.828 257.303,-434.006 267.185,-437.825 267.41,-430.828"/>
</g>
<!-- Node17 -->
<g id="node17" class="node"><title>Node17</title>
<g id="a_node17"><a xlink:href="../../d8/de2/menudefs_8qc.html#accccfae161879454243b3a8695a9bf3b" target="_top" xlink:title="fabs">
<polygon fill="none" stroke="black" points="372.5,-57.5 372.5,-76.5 407.5,-76.5 407.5,-57.5 372.5,-57.5"/>
<text text-anchor="middle" x="390" y="-64.5" font-family="Helvetica,sans-Serif" font-size="10.00">fabs</text>
</a>
</g>
</g>
<!-- Node16&#45;&gt;Node17 -->
<g id="edge22" class="edge"><title>Node16&#45;&gt;Node17</title>
<path fill="none" stroke="midnightblue" d="M254.372,-114.473C264.249,-111.82 274.599,-108.648 284,-105 300.867,-98.4557 303.18,-92.6629 320,-86 333.673,-80.5839 349.452,-76.1146 362.467,-72.8743"/>
<polygon fill="midnightblue" stroke="midnightblue" points="363.306,-76.2723 372.219,-70.5445 361.68,-69.4639 363.306,-76.2723"/>
</g>
<!-- Node18 -->
<g id="node18" class="node"><title>Node18</title>
<g id="a_node18"><a xlink:href="../../d8/de2/menudefs_8qc.html#ab8f7213273f7de03df213240376ce9f4" target="_top" xlink:title="normalize">
<polygon fill="none" stroke="black" points="360.5,-209.5 360.5,-228.5 419.5,-228.5 419.5,-209.5 360.5,-209.5"/>
<text text-anchor="middle" x="390" y="-216.5" font-family="Helvetica,sans-Serif" font-size="10.00">normalize</text>
</a>
</g>
</g>
<!-- Node16&#45;&gt;Node18 -->
<g id="edge23" class="edge"><title>Node16&#45;&gt;Node18</title>
<path fill="none" stroke="midnightblue" d="M266.464,-133.604C272.707,-136.058 278.713,-139.137 284,-143 308.192,-160.678 295.933,-182.152 320,-200 328.849,-206.562 339.845,-210.858 350.44,-213.67"/>
<polygon fill="midnightblue" stroke="midnightblue" points="349.864,-217.128 360.391,-215.937 351.418,-210.303 349.864,-217.128"/>
</g>
<!-- Node19 -->
<g id="node19" class="node"><title>Node19</title>
<g id="a_node19"><a xlink:href="../../d5/df2/common_2util_8qh.html#aa8861d172bf3f5895e7d852a3c30174e" target="_top" xlink:title="ax^2 + bx + c = 0 ">
<polygon fill="none" stroke="black" points="347.5,-171.5 347.5,-190.5 432.5,-190.5 432.5,-171.5 347.5,-171.5"/>
<text text-anchor="middle" x="390" y="-178.5" font-family="Helvetica,sans-Serif" font-size="10.00">solve_quadratic</text>
</a>
</g>
</g>
<!-- Node16&#45;&gt;Node19 -->
<g id="edge24" class="edge"><title>Node16&#45;&gt;Node19</title>
<path fill="none" stroke="midnightblue" d="M251.024,-133.523C261.803,-136.33 273.409,-139.575 284,-143 300.334,-148.282 303.89,-151.068 320,-157 330.102,-160.72 341.09,-164.611 351.266,-168.151"/>
<polygon fill="midnightblue" stroke="midnightblue" points="350.123,-171.459 360.718,-171.421 352.412,-164.844 350.123,-171.459"/>
</g>
<!-- Node20 -->
<g id="node20" class="node"><title>Node20</title>
<g id="a_node20"><a xlink:href="../../d8/de2/menudefs_8qc.html#a83f4d3f317a80e82e6b16ea61ea5efc3" target="_top" xlink:title="sqrt">
<polygon fill="none" stroke="black" points="512.5,-152.5 512.5,-171.5 545.5,-171.5 545.5,-152.5 512.5,-152.5"/>
<text text-anchor="middle" x="529" y="-159.5" font-family="Helvetica,sans-Serif" font-size="10.00">sqrt</text>
</a>
</g>
</g>
<!-- Node16&#45;&gt;Node20 -->
<g id="edge26" class="edge"><title>Node16&#45;&gt;Node20</title>
<path fill="none" stroke="midnightblue" d="M284.124,-132.766C354.013,-141.144 455.469,-153.305 502.41,-158.932"/>
<polygon fill="midnightblue" stroke="midnightblue" points="502,-162.408 512.346,-160.123 502.834,-155.458 502,-162.408"/>
</g>
<!-- Node21 -->
<g id="node21" class="node"><title>Node21</title>
<g id="a_node21"><a xlink:href="../../d8/de2/menudefs_8qc.html#a79d61ab0e4126e02af8bc36d432aedaf" target="_top" xlink:title="vlen">
<polygon fill="none" stroke="black" points="372.5,-95.5 372.5,-114.5 407.5,-114.5 407.5,-95.5 372.5,-95.5"/>
<text text-anchor="middle" x="390" y="-102.5" font-family="Helvetica,sans-Serif" font-size="10.00">vlen</text>
</a>
</g>
</g>
<!-- Node16&#45;&gt;Node21 -->
<g id="edge27" class="edge"><title>Node16&#45;&gt;Node21</title>
<path fill="none" stroke="midnightblue" d="M284.17,-116.19C311.933,-113.226 341.819,-110.036 362.549,-107.823"/>
<polygon fill="midnightblue" stroke="midnightblue" points="362.923,-111.303 372.495,-106.762 362.18,-104.343 362.923,-111.303"/>
</g>
<!-- Node19&#45;&gt;Node20 -->
<g id="edge25" class="edge"><title>Node19&#45;&gt;Node20</title>
<path fill="none" stroke="midnightblue" d="M432.849,-175.196C455.556,-172.047 482.892,-168.256 502.426,-165.547"/>
<polygon fill="midnightblue" stroke="midnightblue" points="502.973,-169.005 512.397,-164.164 502.011,-162.071 502.973,-169.005"/>
</g>
<!-- Node23 -->
<g id="node23" class="node"><title>Node23</title>
<g id="a_node23"><a xlink:href="../../d0/dcd/csqcprojectile_8qc.html#a05912564a54c4a7e671157117742557e" target="_top" xlink:title="CSQCProjectile_SendEntity">
<polygon fill="none" stroke="black" points="320,-19.5 320,-38.5 460,-38.5 460,-19.5 320,-19.5"/>
<text text-anchor="middle" x="390" y="-26.5" font-family="Helvetica,sans-Serif" font-size="10.00">CSQCProjectile_SendEntity</text>
</a>
</g>
</g>
<!-- Node22&#45;&gt;Node23 -->
<g id="edge29" class="edge"><title>Node22&#45;&gt;Node23</title>
<path fill="none" stroke="midnightblue" d="M254.372,-76.4728C264.249,-73.8199 274.599,-70.6476 284,-67 300.867,-60.4557 303.18,-54.6629 320,-48 325.989,-45.6277 332.382,-43.437 338.77,-41.4516"/>
<polygon fill="midnightblue" stroke="midnightblue" points="340.146,-44.6945 348.745,-38.5042 338.163,-37.9814 340.146,-44.6945"/>
</g>
<!-- Node24 -->
<g id="node24" class="node"><title>Node24</title>
<g id="a_node24"><a xlink:href="../../d8/de2/menudefs_8qc.html#abd23315350cd01304b6bd77c4c5c07e6" target="_top" xlink:title="WriteByte">
<polygon fill="none" stroke="black" points="499,-38.5 499,-57.5 559,-57.5 559,-38.5 499,-38.5"/>
<text text-anchor="middle" x="529" y="-45.5" font-family="Helvetica,sans-Serif" font-size="10.00">WriteByte</text>
</a>
</g>
</g>
<!-- Node23&#45;&gt;Node24 -->
<g id="edge30" class="edge"><title>Node23&#45;&gt;Node24</title>
<path fill="none" stroke="midnightblue" d="M459.901,-38.5557C469.767,-39.9239 479.622,-41.2906 488.647,-42.5422"/>
<polygon fill="midnightblue" stroke="midnightblue" points="488.425,-46.0449 498.811,-43.9519 489.387,-39.1113 488.425,-46.0449"/>
</g>
<!-- Node25 -->
<g id="node25" class="node"><title>Node25</title>
<g id="a_node25"><a xlink:href="../../d8/de2/menudefs_8qc.html#aa8c03f058fec0c574e1bba13327f5a5b" target="_top" xlink:title="WriteCoord">
<polygon fill="none" stroke="black" points="496,-0.5 496,-19.5 562,-19.5 562,-0.5 496,-0.5"/>
<text text-anchor="middle" x="529" y="-7.5" font-family="Helvetica,sans-Serif" font-size="10.00">WriteCoord</text>
</a>
</g>
</g>
<!-- Node23&#45;&gt;Node25 -->
<g id="edge31" class="edge"><title>Node23&#45;&gt;Node25</title>
<path fill="none" stroke="midnightblue" d="M459.901,-19.4443C468.709,-18.2228 477.508,-17.0025 485.716,-15.8642"/>
<polygon fill="midnightblue" stroke="midnightblue" points="486.328,-19.3129 495.752,-14.4723 485.366,-12.3793 486.328,-19.3129"/>
</g>
</g>
</svg>
        <g id="navigator" transform="translate(0 0)" fill="#404254">
                <rect fill="#f2f5e9" fill-opacity="0.5" stroke="#606060" stroke-width=".5" x="0" y="0" width="60" height="60"/>
                <use id="zoomplus" xlink:href="#zoomPlus" x="17" y="9" onmousedown="handleZoom(evt,'in')"/>
                <use id="zoomminus" xlink:href="#zoomMin" x="42" y="9" onmousedown="handleZoom(evt,'out')"/>
                <use id="reset" xlink:href="#resetDef" x="30" y="36" onmousedown="handleReset()"/>
                <g id="arrowUp" xlink:href="#dirArrow" transform="translate(30 24)" onmousedown="handlePan(0,-1)">
                  <use xlink:href="#rim" fill="#404040">
                        <set attributeName="fill" to="#808080" begin="arrowUp.mouseover" end="arrowUp.mouseout"/>
                  </use>
                  <path fill="none" stroke="white" stroke-width="1.5" d="M0,-3.0v7 M-2.5,-0.5L0,-3.0L2.5,-0.5"/>
                </g>
                <g id="arrowRight" xlink:href="#dirArrow" transform="rotate(90) translate(36 -43)" onmousedown="handlePan(1,0)">
                  <use xlink:href="#rim" fill="#404040">
                        <set attributeName="fill" to="#808080" begin="arrowRight.mouseover" end="arrowRight.mouseout"/>
                  </use>
                  <path fill="none" stroke="white" stroke-width="1.5" d="M0,-3.0v7 M-2.5,-0.5L0,-3.0L2.5,-0.5"/>
                </g>
                <g id="arrowDown" xlink:href="#dirArrow" transform="rotate(180) translate(-30 -48)" onmousedown="handlePan(0,1)">
                  <use xlink:href="#rim" fill="#404040">
                        <set attributeName="fill" to="#808080" begin="arrowDown.mouseover" end="arrowDown.mouseout"/>
                  </use>
                  <path fill="none" stroke="white" stroke-width="1.5" d="M0,-3.0v7 M-2.5,-0.5L0,-3.0L2.5,-0.5"/>
                </g>
                <g id="arrowLeft" xlink:href="#dirArrow" transform="rotate(270) translate(-36 17)" onmousedown="handlePan(-1,0)">
                  <use xlink:href="#rim" fill="#404040">
                        <set attributeName="fill" to="#808080" begin="arrowLeft.mouseover" end="arrowLeft.mouseout"/>
                  </use>
                  <path fill="none" stroke="white" stroke-width="1.5" d="M0,-3.0v7 M-2.5,-0.5L0,-3.0L2.5,-0.5"/>
                </g>
        </g>
        <svg viewBox="0 0 15 15" width="100%" height="30px" preserveAspectRatio="xMaxYMin meet">
         <g id="arrow_out" transform="scale(0.3 0.3)">
          <a xlink:href="jumppads_8qc_affeed36a4bfbccc789a223127cd20da4_cgraph_org.svg" target="_base">
           <rect id="button" ry="5" rx="5" y="6" x="6" height="38" width="38"
                fill="#f2f5e9" fill-opacity="0.5" stroke="#606060" stroke-width="1.0"/>
           <path id="arrow"
             d="M 11.500037,31.436501 C 11.940474,20.09759 22.043105,11.32322 32.158766,21.979434 L 37.068811,17.246167 C 37.068811,17.246167 37.088388,32 37.088388,32 L 22.160133,31.978069 C 22.160133,31.978069 26.997745,27.140456 26.997745,27.140456 C 18.528582,18.264221 13.291696,25.230495 11.500037,31.436501 z"
             style="fill:#404040;"/>
          </a>
         </g>
        </svg>
</svg>
