<?xml version="1.0" encoding="UTF-8" standalone="no"?>
<!DOCTYPE svg PUBLIC "-//W3C//DTD SVG 1.1//EN"
 "http://www.w3.org/Graphics/SVG/1.1/DTD/svg11.dtd">
<!-- Generated by graphviz version 2.36.0 (20140111.2315)
 -->
<!-- Title: navigation_goalrating_start Pages: 1 -->
<svg width="940pt" height="191pt"
 viewBox="0.00 0.00 940.00 191.00" xmlns="http://www.w3.org/2000/svg" xmlns:xlink="http://www.w3.org/1999/xlink">
<g id="graph0" class="graph" transform="scale(1 1) rotate(0) translate(4 187)">
<title>navigation_goalrating_start</title>
<!-- Node1 -->
<g id="node1" class="node"><title>Node1</title>
<polygon fill="#bfbfbf" stroke="black" points="0,-109 0,-139 108,-139 108,-109 0,-109"/>
<text text-anchor="start" x="8" y="-127" font-family="Helvetica,sans-Serif" font-size="10.00">navigation_goalrating</text>
<text text-anchor="middle" x="54" y="-116" font-family="Helvetica,sans-Serif" font-size="10.00">_start</text>
</g>
<!-- Node2 -->
<g id="node2" class="node"><title>Node2</title>
<g id="a_node2"><a xlink:href="../../d8/d39/havocbot_8qh.html#adeb49cf8f2443d24afe7f12f5e05cd98" target="_top" xlink:title="havocbot_moveto_refresh\l_route">
<polygon fill="none" stroke="black" points="147.5,-109 147.5,-139 276.5,-139 276.5,-109 147.5,-109"/>
<text text-anchor="start" x="155.5" y="-127" font-family="Helvetica,sans-Serif" font-size="10.00">havocbot_moveto_refresh</text>
<text text-anchor="middle" x="212" y="-116" font-family="Helvetica,sans-Serif" font-size="10.00">_route</text>
</a>
</g>
</g>
<!-- Node1&#45;&gt;Node2 -->
<g id="edge1" class="edge"><title>Node1&#45;&gt;Node2</title>
<path fill="none" stroke="midnightblue" d="M118.484,-124C128.05,-124 137.919,-124 147.486,-124"/>
<polygon fill="midnightblue" stroke="midnightblue" points="118.25,-120.5 108.25,-124 118.25,-127.5 118.25,-120.5"/>
</g>
<!-- Node6 -->
<g id="node6" class="node"><title>Node6</title>
<g id="a_node6"><a xlink:href="../../db/deb/roles_8qc.html#a4f33c76c5937f4781a5315a14158fd3f" target="_top" xlink:title="havocbot_role_generic">
<polygon fill="none" stroke="black" points="155,-158.5 155,-177.5 269,-177.5 269,-158.5 155,-158.5"/>
<text text-anchor="middle" x="212" y="-165.5" font-family="Helvetica,sans-Serif" font-size="10.00">havocbot_role_generic</text>
</a>
</g>
</g>
<!-- Node1&#45;&gt;Node6 -->
<g id="edge5" class="edge"><title>Node1&#45;&gt;Node6</title>
<path fill="none" stroke="midnightblue" d="M118.019,-141.774C138.196,-147.465 159.762,-153.548 177.041,-158.422"/>
<polygon fill="midnightblue" stroke="midnightblue" points="118.825,-138.365 108.25,-139.019 116.924,-145.102 118.825,-138.365"/>
</g>
<!-- Node9 -->
<g id="node9" class="node"><title>Node9</title>
<g id="a_node9"><a xlink:href="../../d7/dd0/sv__onslaught_8qh.html#a01c98ce49147346d16b791a900bc9d26" target="_top" xlink:title="havocbot_role_ons_offense">
<polygon fill="none" stroke="black" points="144,-70.5 144,-89.5 280,-89.5 280,-70.5 144,-70.5"/>
<text text-anchor="middle" x="212" y="-77.5" font-family="Helvetica,sans-Serif" font-size="10.00">havocbot_role_ons_offense</text>
</a>
</g>
</g>
<!-- Node1&#45;&gt;Node9 -->
<g id="edge9" class="edge"><title>Node1&#45;&gt;Node9</title>
<path fill="none" stroke="midnightblue" d="M118.019,-106.226C138.196,-100.535 159.762,-94.4516 177.041,-89.5783"/>
<polygon fill="midnightblue" stroke="midnightblue" points="116.924,-102.898 108.25,-108.981 118.825,-109.635 116.924,-102.898"/>
</g>
<!-- Node3 -->
<g id="node3" class="node"><title>Node3</title>
<g id="a_node3"><a xlink:href="../../d8/d39/havocbot_8qh.html#a220d6282b351b7a69e7ee1bfce73098f" target="_top" xlink:title="havocbot_moveto">
<polygon fill="none" stroke="black" points="502,-114.5 502,-133.5 596,-133.5 596,-114.5 502,-114.5"/>
<text text-anchor="middle" x="549" y="-121.5" font-family="Helvetica,sans-Serif" font-size="10.00">havocbot_moveto</text>
</a>
</g>
</g>
<!-- Node2&#45;&gt;Node3 -->
<g id="edge2" class="edge"><title>Node2&#45;&gt;Node3</title>
<path fill="none" stroke="midnightblue" d="M287.082,-124C352.722,-124 446.5,-124 501.928,-124"/>
<polygon fill="midnightblue" stroke="midnightblue" points="286.799,-120.5 276.799,-124 286.799,-127.5 286.799,-120.5"/>
</g>
<!-- Node4 -->
<g id="node4" class="node"><title>Node4</title>
<g id="a_node4"><a xlink:href="../../d8/d39/havocbot_8qh.html#afb882bcf6c4a44e801e4fb9eafbbf1f4" target="_top" xlink:title="havocbot_setupbot">
<polygon fill="none" stroke="black" points="675.5,-134.5 675.5,-153.5 774.5,-153.5 774.5,-134.5 675.5,-134.5"/>
<text text-anchor="middle" x="725" y="-141.5" font-family="Helvetica,sans-Serif" font-size="10.00">havocbot_setupbot</text>
</a>
</g>
</g>
<!-- Node3&#45;&gt;Node4 -->
<g id="edge3" class="edge"><title>Node3&#45;&gt;Node4</title>
<path fill="none" stroke="midnightblue" d="M606.189,-130.459C628.523,-133.026 653.968,-135.95 675.482,-138.423"/>
<polygon fill="midnightblue" stroke="midnightblue" points="606.506,-126.972 596.172,-129.307 605.707,-133.926 606.506,-126.972"/>
</g>
<!-- Node5 -->
<g id="node5" class="node"><title>Node5</title>
<g id="a_node5"><a xlink:href="../../d1/da9/bot_8qh.html#abd19370e4d61d3549dbbe44826531536" target="_top" xlink:title="bot_clientconnect">
<polygon fill="none" stroke="black" points="838.5,-134.5 838.5,-153.5 931.5,-153.5 931.5,-134.5 838.5,-134.5"/>
<text text-anchor="middle" x="885" y="-141.5" font-family="Helvetica,sans-Serif" font-size="10.00">bot_clientconnect</text>
</a>
</g>
</g>
<!-- Node4&#45;&gt;Node5 -->
<g id="edge4" class="edge"><title>Node4&#45;&gt;Node5</title>
<path fill="none" stroke="midnightblue" d="M784.916,-144C802.609,-144 821.741,-144 838.432,-144"/>
<polygon fill="midnightblue" stroke="midnightblue" points="784.694,-140.5 774.694,-144 784.694,-147.5 784.694,-140.5"/>
</g>
<!-- Node7 -->
<g id="node7" class="node"><title>Node7</title>
<g id="a_node7"><a xlink:href="../../db/deb/roles_8qc.html#ab1af65619c621606e2636b8a2fbbd18d" target="_top" xlink:title="havocbot_chooserole\l_generic">
<polygon fill="none" stroke="black" points="328.5,-153 328.5,-183 437.5,-183 437.5,-153 328.5,-153"/>
<text text-anchor="start" x="336.5" y="-171" font-family="Helvetica,sans-Serif" font-size="10.00">havocbot_chooserole</text>
<text text-anchor="middle" x="383" y="-160" font-family="Helvetica,sans-Serif" font-size="10.00">_generic</text>
</a>
</g>
</g>
<!-- Node6&#45;&gt;Node7 -->
<g id="edge6" class="edge"><title>Node6&#45;&gt;Node7</title>
<path fill="none" stroke="midnightblue" d="M279.706,-168C295.817,-168 312.832,-168 328.262,-168"/>
<polygon fill="midnightblue" stroke="midnightblue" points="279.275,-164.5 269.275,-168 279.275,-171.5 279.275,-164.5"/>
</g>
<!-- Node8 -->
<g id="node8" class="node"><title>Node8</title>
<g id="a_node8"><a xlink:href="../../db/deb/roles_8qc.html#a5f878532d323f792b8b4c306d068cc0c" target="_top" xlink:title="havocbot_chooserole">
<polygon fill="none" stroke="black" points="494.5,-155.5 494.5,-174.5 603.5,-174.5 603.5,-155.5 494.5,-155.5"/>
<text text-anchor="middle" x="549" y="-162.5" font-family="Helvetica,sans-Serif" font-size="10.00">havocbot_chooserole</text>
</a>
</g>
</g>
<!-- Node7&#45;&gt;Node8 -->
<g id="edge7" class="edge"><title>Node7&#45;&gt;Node8</title>
<path fill="none" stroke="midnightblue" d="M447.7,-166.835C463.157,-166.552 479.527,-166.253 494.46,-165.979"/>
<polygon fill="midnightblue" stroke="midnightblue" points="447.634,-163.335 437.7,-167.018 447.762,-170.334 447.634,-163.335"/>
</g>
<!-- Node8&#45;&gt;Node4 -->
<g id="edge8" class="edge"><title>Node8&#45;&gt;Node4</title>
<path fill="none" stroke="midnightblue" d="M613.744,-157.307C634.062,-154.855 656.207,-152.182 675.285,-149.879"/>
<polygon fill="midnightblue" stroke="midnightblue" points="613.134,-153.855 603.626,-158.528 613.973,-160.804 613.134,-153.855"/>
</g>
<!-- Node10 -->
<g id="node10" class="node"><title>Node10</title>
<g id="a_node10"><a xlink:href="../../d0/de4/sv__onslaught_8qc.html#a360ee86718d1d90b3d6bf02c731d164b" target="_top" xlink:title="havocbot_role_ons_setrole">
<polygon fill="none" stroke="black" points="316.5,-38.5 316.5,-57.5 449.5,-57.5 449.5,-38.5 316.5,-38.5"/>
<text text-anchor="middle" x="383" y="-45.5" font-family="Helvetica,sans-Serif" font-size="10.00">havocbot_role_ons_setrole</text>
</a>
</g>
</g>
<!-- Node9&#45;&gt;Node10 -->
<g id="edge10" class="edge"><title>Node9&#45;&gt;Node10</title>
<path fill="none" stroke="midnightblue" d="M273.081,-68.6237C292.249,-64.9943 313.251,-61.0176 331.654,-57.533"/>
<polygon fill="midnightblue" stroke="midnightblue" points="272.422,-65.1862 263.248,-70.4856 273.725,-72.064 272.422,-65.1862"/>
</g>
<!-- Node11 -->
<g id="node11" class="node"><title>Node11</title>
<g id="a_node11"><a xlink:href="../../d7/dd0/sv__onslaught_8qh.html#ae3892bcbd6e838183c105330ce7374a0" target="_top" xlink:title="havocbot_ons_reset_role">
<polygon fill="none" stroke="black" points="486.5,-76.5 486.5,-95.5 611.5,-95.5 611.5,-76.5 486.5,-76.5"/>
<text text-anchor="middle" x="549" y="-83.5" font-family="Helvetica,sans-Serif" font-size="10.00">havocbot_ons_reset_role</text>
</a>
</g>
</g>
<!-- Node10&#45;&gt;Node11 -->
<g id="edge11" class="edge"><title>Node10&#45;&gt;Node11</title>
<path fill="none" stroke="midnightblue" d="M435.341,-59.8961C458.393,-65.2374 485.221,-71.4537 506.913,-76.4799"/>
<polygon fill="midnightblue" stroke="midnightblue" points="435.916,-56.4367 425.384,-57.589 434.336,-63.256 435.916,-56.4367"/>
</g>
<!-- Node11&#45;&gt;Node9 -->
<g id="edge16" class="edge"><title>Node11&#45;&gt;Node9</title>
<path fill="none" stroke="midnightblue" d="M476.176,-84.7136C418.182,-83.6749 337.166,-82.2239 280.389,-81.207"/>
<polygon fill="midnightblue" stroke="midnightblue" points="476.302,-88.2163 486.363,-84.8961 476.427,-81.2174 476.302,-88.2163"/>
</g>
<!-- Node12 -->
<g id="node12" class="node"><title>Node12</title>
<g id="a_node12"><a xlink:href="../../d7/dd0/sv__onslaught_8qh.html#af54132466fbe97816d84f69960ffaf65" target="_top" xlink:title="havocbot_role_ons_assistant">
<polygon fill="none" stroke="black" points="653.5,-38.5 653.5,-57.5 796.5,-57.5 796.5,-38.5 653.5,-38.5"/>
<text text-anchor="middle" x="725" y="-45.5" font-family="Helvetica,sans-Serif" font-size="10.00">havocbot_role_ons_assistant</text>
</a>
</g>
</g>
<!-- Node11&#45;&gt;Node12 -->
<g id="edge12" class="edge"><title>Node11&#45;&gt;Node12</title>
<path fill="none" stroke="midnightblue" d="M603.814,-74.2474C628.418,-68.8742 657.187,-62.5914 680.408,-57.5201"/>
<polygon fill="midnightblue" stroke="midnightblue" points="602.93,-70.8579 593.908,-76.411 604.424,-77.6967 602.93,-70.8579"/>
</g>
<!-- Node13 -->
<g id="node13" class="node"><title>Node13</title>
<g id="a_node13"><a xlink:href="../../d7/dd0/sv__onslaught_8qh.html#acdf185a2c6ffdd3a60599b3f8bd44d64" target="_top" xlink:title="havocbot_role_ons_defense">
<polygon fill="none" stroke="black" points="656,-0.5 656,-19.5 794,-19.5 794,-0.5 656,-0.5"/>
<text text-anchor="middle" x="725" y="-7.5" font-family="Helvetica,sans-Serif" font-size="10.00">havocbot_role_ons_defense</text>
</a>
</g>
</g>
<!-- Node11&#45;&gt;Node13 -->
<g id="edge14" class="edge"><title>Node11&#45;&gt;Node13</title>
<path fill="none" stroke="midnightblue" d="M572.01,-70.7633C591.288,-58.025 620.451,-40.1919 648,-29 657.198,-25.2631 667.331,-22.1124 677.116,-19.5175"/>
<polygon fill="midnightblue" stroke="midnightblue" points="569.99,-67.9041 563.64,-76.3855 573.893,-73.7148 569.99,-67.9041"/>
</g>
<!-- Node14 -->
<g id="node14" class="node"><title>Node14</title>
<g id="a_node14"><a xlink:href="../../d0/de4/sv__onslaught_8qc.html#ab7605909625a2540be9c13415706209d" target="_top" xlink:title="MUTATOR_HOOKFUNCTION">
<polygon fill="none" stroke="black" points="648.5,-76.5 648.5,-95.5 801.5,-95.5 801.5,-76.5 648.5,-76.5"/>
<text text-anchor="middle" x="725" y="-83.5" font-family="Helvetica,sans-Serif" font-size="10.00">MUTATOR_HOOKFUNCTION</text>
</a>
</g>
</g>
<!-- Node11&#45;&gt;Node14 -->
<g id="edge17" class="edge"><title>Node11&#45;&gt;Node14</title>
<path fill="none" stroke="midnightblue" d="M621.947,-86C630.661,-86 639.582,-86 648.347,-86"/>
<polygon fill="midnightblue" stroke="midnightblue" points="621.836,-82.5001 611.836,-86 621.836,-89.5001 621.836,-82.5001"/>
</g>
<!-- Node12&#45;&gt;Node10 -->
<g id="edge13" class="edge"><title>Node12&#45;&gt;Node10</title>
<path fill="none" stroke="midnightblue" d="M643.314,-48C584.149,-48 504.827,-48 449.555,-48"/>
<polygon fill="midnightblue" stroke="midnightblue" points="643.371,-51.5001 653.371,-48 643.371,-44.5001 643.371,-51.5001"/>
</g>
<!-- Node13&#45;&gt;Node10 -->
<g id="edge15" class="edge"><title>Node13&#45;&gt;Node10</title>
<path fill="none" stroke="midnightblue" d="M645.646,-18.7572C586.248,-25.3959 505.557,-34.4142 449.555,-40.6732"/>
<polygon fill="midnightblue" stroke="midnightblue" points="646.183,-22.2191 655.733,-17.6299 645.406,-15.2624 646.183,-22.2191"/>
</g>
</g>
</svg>
