<?xml version="1.0" encoding="UTF-8" standalone="no"?>
<!DOCTYPE svg PUBLIC "-//W3C//DTD SVG 1.1//EN"
 "http://www.w3.org/Graphics/SVG/1.1/DTD/svg11.dtd">
<!-- Generated by graphviz version 2.26.3 (20100126.1600)
 -->
<!-- Title: G Pages: 1 -->
<!--zoomable 308 -->
<svg id="main" version="1.1" xmlns="http://www.w3.org/2000/svg" xmlns:xlink="http://www.w3.org/1999/xlink" xml:space="preserve" onload="init(evt)">
        <defs>
                <circle id="rim" cx="0" cy="0" r="7"/>
                <circle id="rim2" cx="0" cy="0" r="3.5"/>
                <g id="zoomPlus">
                        <use xlink:href="#rim" fill="#404040">
                                <set attributeName="fill" to="#808080" begin="zoomplus.mouseover" end="zoomplus.mouseout"/>
                        </use>
                        <path d="M-4,0h8M0,-4v8" fill="none" stroke="white" stroke-width="1.5" pointer-events="none"/>
                </g>
                <g id="zoomMin">
                        <use xlink:href="#rim" fill="#404040">
                                <set attributeName="fill" to="#808080" begin="zoomminus.mouseover" end="zoomminus.mouseout"/>
                        </use>
                        <path d="M-4,0h8" fill="none" stroke="white" stroke-width="1.5" pointer-events="none"/>
                </g>
                <g id="dirArrow">
                        <path fill="none" stroke="white" stroke-width="1.5" d="M0,-3.0v7 M-2.5,-0.5L0,-3.0L2.5,-0.5"/>
                </g>
               <g id="resetDef">
                       <use xlink:href="#rim2" fill="#404040">
                               <set attributeName="fill" to="#808080" begin="reset.mouseover" end="reset.mouseout"/>
                       </use>
               </g>
        </defs>

<script type="text/javascript">
var viewWidth = 2264;
var viewHeight = 308;
var sectionId = 'dynsection-13';
</script>
<script xlink:href="../../svgpan.js"/>
<svg id="graph" class="graph">
<g id="viewport">
<title>G</title>
<!-- Node1 -->
<g id="node1" class="node"><title>Node1</title>
<polygon fill="#bfbfbf" stroke="black" points="0.5,-80.5 0.5,-101.5 227.5,-101.5 227.5,-80.5 0.5,-80.5"/>
<text text-anchor="middle" x="114" y="-88.5" font-family="Helvetica,sans-Serif" font-size="10.00">navigation_findnearestwaypoint_withdist_except</text>
</g>
<!-- Node2 -->
<g id="node3" class="node"><title>Node2</title>
<a xlink:href="../../df/dd4/navigation_8qh.html#a1e85d59acc7aee165d5cb268454a594c" target="_top" xlink:title="navigation_findnearestwaypoint">
<polygon fill="none" stroke="black" points="264.5,-80.5 264.5,-101.5 417.5,-101.5 417.5,-80.5 264.5,-80.5"/>
<text text-anchor="middle" x="341" y="-88.5" font-family="Helvetica,sans-Serif" font-size="10.00">navigation_findnearestwaypoint</text>
</a>
</g>
<!-- Node1&#45;&gt;Node2 -->
<g id="edge2" class="edge"><title>Node1&#45;&gt;Node2</title>
<path fill="none" stroke="midnightblue" d="M237.983,-91C246.951,-91 255.83,-91 264.395,-91"/>
<polygon fill="midnightblue" stroke="midnightblue" points="237.833,-87.5001 227.833,-91 237.832,-94.5001 237.833,-87.5001"/>
</g>
<!-- Node3 -->
<g id="node5" class="node"><title>Node3</title>
<a xlink:href="../../df/dd4/navigation_8qh.html#a83f7ae2bad5d776cdf07b490eb5e2b5c" target="_top" xlink:title="navigation_routerating">
<polygon fill="none" stroke="black" points="480,-198.5 480,-219.5 592,-219.5 592,-198.5 480,-198.5"/>
<text text-anchor="middle" x="536" y="-206.5" font-family="Helvetica,sans-Serif" font-size="10.00">navigation_routerating</text>
</a>
</g>
<!-- Node2&#45;&gt;Node3 -->
<g id="edge4" class="edge"><title>Node2&#45;&gt;Node3</title>
<path fill="none" stroke="midnightblue" d="M367.423,-106.989C407.919,-131.495 484.235,-177.676 518.532,-198.429"/>
<polygon fill="midnightblue" stroke="midnightblue" points="369.016,-103.863 358.649,-101.68 365.392,-109.851 369.016,-103.863"/>
</g>
<!-- Node23 -->
<g id="node47" class="node"><title>Node23</title>
<a xlink:href="../../d1/d2a/waypoints_8qh.html#adc1610e5d4a39012b64c05f12d9ccd82" target="_top" xlink:title="botframe_showwaypointlinks">
<polygon fill="none" stroke="black" points="1202.5,-119.5 1202.5,-140.5 1345.5,-140.5 1345.5,-119.5 1202.5,-119.5"/>
<text text-anchor="middle" x="1274" y="-127.5" font-family="Helvetica,sans-Serif" font-size="10.00">botframe_showwaypointlinks</text>
</a>
</g>
<!-- Node2&#45;&gt;Node23 -->
<g id="edge48" class="edge"><title>Node2&#45;&gt;Node23</title>
<path fill="none" stroke="midnightblue" d="M403.444,-103.301C419.839,-106.187 437.54,-109.001 454,-111 580.022,-126.307 612.052,-130 739,-130 739,-130 739,-130 922,-130 1019.01,-130 1131.07,-130 1202.2,-130"/>
<polygon fill="midnightblue" stroke="midnightblue" points="403.888,-99.8248 393.427,-101.501 402.65,-106.714 403.888,-99.8248"/>
</g>
<!-- Node24 -->
<g id="node50" class="node"><title>Node24</title>
<a xlink:href="../../d7/dc4/waypoints_8qc.html#afe185aa6fad31214f669f13f08a37b2e" target="_top" xlink:title="botframe_autowaypoints_fix_from">
<polygon fill="none" stroke="black" points="454,-80.5 454,-101.5 618,-101.5 618,-80.5 454,-80.5"/>
<text text-anchor="middle" x="536" y="-88.5" font-family="Helvetica,sans-Serif" font-size="10.00">botframe_autowaypoints_fix_from</text>
</a>
</g>
<!-- Node2&#45;&gt;Node24 -->
<g id="edge52" class="edge"><title>Node2&#45;&gt;Node24</title>
<path fill="none" stroke="midnightblue" d="M427.68,-91C436.405,-91 445.246,-91 453.921,-91"/>
<polygon fill="midnightblue" stroke="midnightblue" points="427.51,-87.5001 417.509,-91 427.509,-94.5001 427.51,-87.5001"/>
</g>
<!-- Node27 -->
<g id="node57" class="node"><title>Node27</title>
<a xlink:href="../../d7/dc4/waypoints_8qc.html#a4f04a7e429856a63db83b70e53d92a30" target="_top" xlink:title="botframe_deleteuselesswaypoints">
<polygon fill="none" stroke="black" points="454,-40.5 454,-61.5 618,-61.5 618,-40.5 454,-40.5"/>
<text text-anchor="middle" x="536" y="-48.5" font-family="Helvetica,sans-Serif" font-size="10.00">botframe_deleteuselesswaypoints</text>
</a>
</g>
<!-- Node2&#45;&gt;Node27 -->
<g id="edge60" class="edge"><title>Node2&#45;&gt;Node27</title>
<path fill="none" stroke="midnightblue" d="M402.181,-78.45C428.724,-73.0054 459.456,-66.7014 484.77,-61.5087"/>
<polygon fill="midnightblue" stroke="midnightblue" points="401.327,-75.0523 392.234,-80.4905 402.733,-81.9096 401.327,-75.0523"/>
</g>
<!-- Node28 -->
<g id="node60" class="node"><title>Node28</title>
<a xlink:href="../../d7/d44/cl__impulse_8qc.html#ac17effaa6c759dda3832f2b91fd1b99d" target="_top" xlink:title="IMPULSE">
<polygon fill="none" stroke="black" points="505.5,-0.5 505.5,-21.5 566.5,-21.5 566.5,-0.5 505.5,-0.5"/>
<text text-anchor="middle" x="536" y="-8.5" font-family="Helvetica,sans-Serif" font-size="10.00">IMPULSE</text>
</a>
</g>
<!-- Node2&#45;&gt;Node28 -->
<g id="edge64" class="edge"><title>Node2&#45;&gt;Node28</title>
<path fill="none" stroke="midnightblue" d="M366.449,-75.1195C388.804,-61.7549 422.576,-42.9603 454,-31 470.571,-24.693 489.796,-19.88 505.465,-16.5577"/>
<polygon fill="midnightblue" stroke="midnightblue" points="364.344,-72.3023 357.607,-80.4791 367.973,-78.2885 364.344,-72.3023"/>
</g>
<!-- Node4 -->
<g id="node7" class="node"><title>Node4</title>
<a xlink:href="../../d8/d39/havocbot_8qh.html#a9b5a8ee1be8c9adb2687c3577b837383" target="_top" xlink:title="havocbot_moveto_refresh_route">
<polygon fill="none" stroke="black" points="661,-158.5 661,-179.5 817,-179.5 817,-158.5 661,-158.5"/>
<text text-anchor="middle" x="739" y="-166.5" font-family="Helvetica,sans-Serif" font-size="10.00">havocbot_moveto_refresh_route</text>
</a>
</g>
<!-- Node3&#45;&gt;Node4 -->
<g id="edge6" class="edge"><title>Node3&#45;&gt;Node4</title>
<path fill="none" stroke="midnightblue" d="M599.326,-196.522C627.041,-191.061 659.199,-184.724 685.668,-179.509"/>
<polygon fill="midnightblue" stroke="midnightblue" points="598.471,-193.123 589.336,-198.49 599.824,-199.991 598.471,-193.123"/>
</g>
<!-- Node17 -->
<g id="node33" class="node"><title>Node17</title>
<a xlink:href="../../db/deb/roles_8qc.html#ae4f7c8f7b6c8fc5c1f61f1af757ac46a" target="_top" xlink:title="havocbot_goalrating_items">
<polygon fill="none" stroke="black" points="672.5,-278.5 672.5,-299.5 805.5,-299.5 805.5,-278.5 672.5,-278.5"/>
<text text-anchor="middle" x="739" y="-286.5" font-family="Helvetica,sans-Serif" font-size="10.00">havocbot_goalrating_items</text>
</a>
</g>
<!-- Node3&#45;&gt;Node17 -->
<g id="edge32" class="edge"><title>Node3&#45;&gt;Node17</title>
<path fill="none" stroke="midnightblue" d="M562.334,-224.705C585.722,-238.083 621.183,-256.993 654,-269 663.966,-272.646 674.837,-275.794 685.373,-278.443"/>
<polygon fill="midnightblue" stroke="midnightblue" points="563.801,-221.51 553.394,-219.523 560.291,-227.566 563.801,-221.51"/>
</g>
<!-- Node21 -->
<g id="node42" class="node"><title>Node21</title>
<a xlink:href="../../d3/d92/roles_8qh.html#abc4b58297d8d6b6d307ee6d3e83ae0a4" target="_top" xlink:title="havocbot_goalrating_controlpoints">
<polygon fill="none" stroke="black" points="657,-238.5 657,-259.5 821,-259.5 821,-238.5 657,-238.5"/>
<text text-anchor="middle" x="739" y="-246.5" font-family="Helvetica,sans-Serif" font-size="10.00">havocbot_goalrating_controlpoints</text>
</a>
</g>
<!-- Node3&#45;&gt;Node21 -->
<g id="edge42" class="edge"><title>Node3&#45;&gt;Node21</title>
<path fill="none" stroke="midnightblue" d="M599.326,-221.478C627.041,-226.939 659.199,-233.276 685.668,-238.491"/>
<polygon fill="midnightblue" stroke="midnightblue" points="599.824,-218.009 589.336,-219.51 598.471,-224.877 599.824,-218.009"/>
</g>
<!-- Node22 -->
<g id="node44" class="node"><title>Node22</title>
<a xlink:href="../../db/deb/roles_8qc.html#a8108bf8494f466a7d21bbd992d3c8de3" target="_top" xlink:title="havocbot_goalrating_enemyplayers">
<polygon fill="none" stroke="black" points="654,-198.5 654,-219.5 824,-219.5 824,-198.5 654,-198.5"/>
<text text-anchor="middle" x="739" y="-206.5" font-family="Helvetica,sans-Serif" font-size="10.00">havocbot_goalrating_enemyplayers</text>
</a>
</g>
<!-- Node3&#45;&gt;Node22 -->
<g id="edge44" class="edge"><title>Node3&#45;&gt;Node22</title>
<path fill="none" stroke="midnightblue" d="M602.094,-209C618.619,-209 636.576,-209 653.88,-209"/>
<polygon fill="midnightblue" stroke="midnightblue" points="602.008,-205.5 592.008,-209 602.008,-212.5 602.008,-205.5"/>
</g>
<!-- Node5 -->
<g id="node9" class="node"><title>Node5</title>
<a xlink:href="../../d8/d39/havocbot_8qh.html#a0906df9c2c0ae73a6d5ddf3f30feb666" target="_top" xlink:title="havocbot_moveto">
<polygon fill="none" stroke="black" points="1046,-158.5 1046,-179.5 1140,-179.5 1140,-158.5 1046,-158.5"/>
<text text-anchor="middle" x="1093" y="-166.5" font-family="Helvetica,sans-Serif" font-size="10.00">havocbot_moveto</text>
</a>
</g>
<!-- Node4&#45;&gt;Node5 -->
<g id="edge8" class="edge"><title>Node4&#45;&gt;Node5</title>
<path fill="none" stroke="midnightblue" d="M827.153,-169C896.374,-169 990.071,-169 1045.75,-169"/>
<polygon fill="midnightblue" stroke="midnightblue" points="827.125,-165.5 817.125,-169 827.125,-172.5 827.125,-165.5"/>
</g>
<!-- Node6 -->
<g id="node11" class="node"><title>Node6</title>
<a xlink:href="../../d8/d39/havocbot_8qh.html#a5ba0f97eb0d5ad68542d585381d00ae2" target="_top" xlink:title="havocbot_setupbot">
<polygon fill="none" stroke="black" points="1382.5,-158.5 1382.5,-179.5 1481.5,-179.5 1481.5,-158.5 1382.5,-158.5"/>
<text text-anchor="middle" x="1432" y="-166.5" font-family="Helvetica,sans-Serif" font-size="10.00">havocbot_setupbot</text>
</a>
</g>
<!-- Node5&#45;&gt;Node6 -->
<g id="edge10" class="edge"><title>Node5&#45;&gt;Node6</title>
<path fill="none" stroke="midnightblue" d="M1150.22,-169C1215.28,-169 1320.45,-169 1382.24,-169"/>
<polygon fill="midnightblue" stroke="midnightblue" points="1150.14,-165.5 1140.14,-169 1150.14,-172.5 1150.14,-165.5"/>
</g>
<!-- Node7 -->
<g id="node13" class="node"><title>Node7</title>
<a xlink:href="../../d1/da9/bot_8qh.html#abd19370e4d61d3549dbbe44826531536" target="_top" xlink:title="bot_clientconnect">
<polygon fill="none" stroke="black" points="1518.5,-158.5 1518.5,-179.5 1611.5,-179.5 1611.5,-158.5 1518.5,-158.5"/>
<text text-anchor="middle" x="1565" y="-166.5" font-family="Helvetica,sans-Serif" font-size="10.00">bot_clientconnect</text>
</a>
</g>
<!-- Node6&#45;&gt;Node7 -->
<g id="edge12" class="edge"><title>Node6&#45;&gt;Node7</title>
<path fill="none" stroke="midnightblue" d="M1491.77,-169C1500.59,-169 1509.57,-169 1518.08,-169"/>
<polygon fill="midnightblue" stroke="midnightblue" points="1491.52,-165.5 1481.52,-169 1491.52,-172.5 1491.52,-165.5"/>
</g>
<!-- Node8 -->
<g id="node15" class="node"><title>Node8</title>
<a xlink:href="../../da/d53/cl__client_8qc.html#a085ea0b3ff57991ce31f51def68da821" target="_top" xlink:title="============= ClientConnect">
<polygon fill="none" stroke="black" points="1648.5,-158.5 1648.5,-179.5 1727.5,-179.5 1727.5,-158.5 1648.5,-158.5"/>
<text text-anchor="middle" x="1688" y="-166.5" font-family="Helvetica,sans-Serif" font-size="10.00">ClientConnect</text>
</a>
</g>
<!-- Node7&#45;&gt;Node8 -->
<g id="edge14" class="edge"><title>Node7&#45;&gt;Node8</title>
<path fill="none" stroke="midnightblue" d="M1621.58,-169C1630.59,-169 1639.75,-169 1648.27,-169"/>
<polygon fill="midnightblue" stroke="midnightblue" points="1621.5,-165.5 1611.5,-169 1621.5,-172.5 1621.5,-165.5"/>
</g>
<!-- Node9 -->
<g id="node17" class="node"><title>Node9</title>
<a xlink:href="../../d1/da9/bot_8qh.html#a5e30e64bee22a5e4abf3bca9ae06f8fc" target="_top" xlink:title="bot_spawn">
<polygon fill="none" stroke="black" points="1764,-158.5 1764,-179.5 1828,-179.5 1828,-158.5 1764,-158.5"/>
<text text-anchor="middle" x="1796" y="-166.5" font-family="Helvetica,sans-Serif" font-size="10.00">bot_spawn</text>
</a>
</g>
<!-- Node8&#45;&gt;Node9 -->
<g id="edge16" class="edge"><title>Node8&#45;&gt;Node9</title>
<path fill="none" stroke="midnightblue" d="M1737.84,-169C1746.67,-169 1755.65,-169 1763.83,-169"/>
<polygon fill="midnightblue" stroke="midnightblue" points="1737.6,-165.5 1727.6,-169 1737.6,-172.5 1737.6,-165.5"/>
</g>
<!-- Node10 -->
<g id="node19" class="node"><title>Node10</title>
<a xlink:href="../../d1/da9/bot_8qh.html#a2fee5495c041d9197ee7d76cccd1d889" target="_top" xlink:title="bot_fixcount">
<polygon fill="none" stroke="black" points="1864,-158.5 1864,-179.5 1934,-179.5 1934,-158.5 1864,-158.5"/>
<text text-anchor="middle" x="1899" y="-166.5" font-family="Helvetica,sans-Serif" font-size="10.00">bot_fixcount</text>
</a>
</g>
<!-- Node9&#45;&gt;Node10 -->
<g id="edge18" class="edge"><title>Node9&#45;&gt;Node10</title>
<path fill="none" stroke="midnightblue" d="M1838.16,-169C1846.67,-169 1855.53,-169 1863.77,-169"/>
<polygon fill="midnightblue" stroke="midnightblue" points="1838.03,-165.5 1828.03,-169 1838.03,-172.5 1838.03,-165.5"/>
</g>
<!-- Node11 -->
<g id="node21" class="node"><title>Node11</title>
<a xlink:href="../../d1/da9/bot_8qh.html#aca1687b4e440adf8111b9438919a0b0a" target="_top" xlink:title="bot_serverframe">
<polygon fill="none" stroke="black" points="1992.5,-118.5 1992.5,-139.5 2079.5,-139.5 2079.5,-118.5 1992.5,-118.5"/>
<text text-anchor="middle" x="2036" y="-126.5" font-family="Helvetica,sans-Serif" font-size="10.00">bot_serverframe</text>
</a>
</g>
<!-- Node10&#45;&gt;Node11 -->
<g id="edge20" class="edge"><title>Node10&#45;&gt;Node11</title>
<path fill="none" stroke="midnightblue" d="M1944.05,-155.846C1962.17,-150.556 1982.78,-144.539 1999.88,-139.545"/>
<polygon fill="midnightblue" stroke="midnightblue" points="1942.9,-152.537 1934.28,-158.699 1944.86,-159.256 1942.9,-152.537"/>
</g>
<!-- Node13 -->
<g id="node25" class="node"><title>Node13</title>
<a xlink:href="../../d3/df2/sv__cmd_8qc.html#a8ad5100252af97d4e86e67f233fd6578" target="_top" xlink:title="GameCommand_bot_cmd">
<polygon fill="none" stroke="black" points="1970.5,-158.5 1970.5,-179.5 2101.5,-179.5 2101.5,-158.5 1970.5,-158.5"/>
<text text-anchor="middle" x="2036" y="-166.5" font-family="Helvetica,sans-Serif" font-size="10.00">GameCommand_bot_cmd</text>
</a>
</g>
<!-- Node10&#45;&gt;Node13 -->
<g id="edge24" class="edge"><title>Node10&#45;&gt;Node13</title>
<path fill="none" stroke="midnightblue" d="M1944.45,-169C1952.73,-169 1961.52,-169 1970.25,-169"/>
<polygon fill="midnightblue" stroke="midnightblue" points="1944.28,-165.5 1934.28,-169 1944.28,-172.5 1944.28,-165.5"/>
</g>
<!-- Node15 -->
<g id="node29" class="node"><title>Node15</title>
<a xlink:href="../../d3/df2/sv__cmd_8qc.html#af60fdb24d415a53dadd63f3d2fe3d04c" target="_top" xlink:title="GameCommand_setbots">
<polygon fill="none" stroke="black" points="1973.5,-198.5 1973.5,-219.5 2098.5,-219.5 2098.5,-198.5 1973.5,-198.5"/>
<text text-anchor="middle" x="2036" y="-206.5" font-family="Helvetica,sans-Serif" font-size="10.00">GameCommand_setbots</text>
</a>
</g>
<!-- Node10&#45;&gt;Node15 -->
<g id="edge28" class="edge"><title>Node10&#45;&gt;Node15</title>
<path fill="none" stroke="midnightblue" d="M1944.05,-182.154C1962.17,-187.444 1982.78,-193.461 1999.88,-198.455"/>
<polygon fill="midnightblue" stroke="midnightblue" points="1944.86,-178.744 1934.28,-179.301 1942.9,-185.463 1944.86,-178.744"/>
</g>
<!-- Node12 -->
<g id="node23" class="node"><title>Node12</title>
<a xlink:href="../../d3/d4f/sv__main_8qc.html#a554af7e2ac58045168dad9eca30bc8b1" target="_top" xlink:title="StartFrame">
<polygon fill="none" stroke="black" points="2164.5,-118.5 2164.5,-139.5 2229.5,-139.5 2229.5,-118.5 2164.5,-118.5"/>
<text text-anchor="middle" x="2197" y="-126.5" font-family="Helvetica,sans-Serif" font-size="10.00">StartFrame</text>
</a>
</g>
<!-- Node11&#45;&gt;Node12 -->
<g id="edge22" class="edge"><title>Node11&#45;&gt;Node12</title>
<path fill="none" stroke="midnightblue" d="M2089.89,-129C2114.57,-129 2143.01,-129 2164.38,-129"/>
<polygon fill="midnightblue" stroke="midnightblue" points="2089.57,-125.5 2079.57,-129 2089.57,-132.5 2089.57,-125.5"/>
</g>
<!-- Node14 -->
<g id="node27" class="node"><title>Node14</title>
<a xlink:href="../../d3/df2/sv__cmd_8qc.html#a490f715d9315ed9afe87514d6e4aac02" target="_top" xlink:title="SERVER_COMMAND">
<polygon fill="none" stroke="black" points="2138.5,-158.5 2138.5,-179.5 2255.5,-179.5 2255.5,-158.5 2138.5,-158.5"/>
<text text-anchor="middle" x="2197" y="-166.5" font-family="Helvetica,sans-Serif" font-size="10.00">SERVER_COMMAND</text>
</a>
</g>
<!-- Node13&#45;&gt;Node14 -->
<g id="edge26" class="edge"><title>Node13&#45;&gt;Node14</title>
<path fill="none" stroke="midnightblue" d="M2112.22,-169C2121.01,-169 2129.87,-169 2138.38,-169"/>
<polygon fill="midnightblue" stroke="midnightblue" points="2111.95,-165.5 2101.95,-169 2111.95,-172.5 2111.95,-165.5"/>
</g>
<!-- Node16 -->
<g id="node31" class="node"><title>Node16</title>
<a xlink:href="../../d3/df2/sv__cmd_8qc.html#a53264788ea69deca9531d76139e51751" target="_top" xlink:title="SERVER_COMMAND">
<polygon fill="none" stroke="black" points="2138.5,-198.5 2138.5,-219.5 2255.5,-219.5 2255.5,-198.5 2138.5,-198.5"/>
<text text-anchor="middle" x="2197" y="-206.5" font-family="Helvetica,sans-Serif" font-size="10.00">SERVER_COMMAND</text>
</a>
</g>
<!-- Node15&#45;&gt;Node16 -->
<g id="edge30" class="edge"><title>Node15&#45;&gt;Node16</title>
<path fill="none" stroke="midnightblue" d="M2108.92,-209C2118.8,-209 2128.83,-209 2138.41,-209"/>
<polygon fill="midnightblue" stroke="midnightblue" points="2108.71,-205.5 2098.71,-209 2108.71,-212.5 2108.71,-205.5"/>
</g>
<!-- Node18 -->
<g id="node35" class="node"><title>Node18</title>
<a xlink:href="../../db/deb/roles_8qc.html#a3a88385fc6a33c27abe6f0898920281c" target="_top" xlink:title="havocbot_role_generic">
<polygon fill="none" stroke="black" points="865,-198.5 865,-219.5 979,-219.5 979,-198.5 865,-198.5"/>
<text text-anchor="middle" x="922" y="-206.5" font-family="Helvetica,sans-Serif" font-size="10.00">havocbot_role_generic</text>
</a>
</g>
<!-- Node17&#45;&gt;Node18 -->
<g id="edge34" class="edge"><title>Node17&#45;&gt;Node18</title>
<path fill="none" stroke="midnightblue" d="M804.787,-275.745C811.37,-273.76 817.877,-271.519 824,-269 855.918,-255.871 889.451,-233.086 907.841,-219.691"/>
<polygon fill="midnightblue" stroke="midnightblue" points="803.797,-272.388 795.125,-278.473 805.699,-279.124 803.797,-272.388"/>
</g>
<!-- Node19 -->
<g id="node37" class="node"><title>Node19</title>
<a xlink:href="../../db/deb/roles_8qc.html#a37dfb0a0d28be3fe633b34b57b82f992" target="_top" xlink:title="havocbot_chooserole_generic">
<polygon fill="none" stroke="black" points="1020,-198.5 1020,-219.5 1166,-219.5 1166,-198.5 1020,-198.5"/>
<text text-anchor="middle" x="1093" y="-206.5" font-family="Helvetica,sans-Serif" font-size="10.00">havocbot_chooserole_generic</text>
</a>
</g>
<!-- Node18&#45;&gt;Node19 -->
<g id="edge36" class="edge"><title>Node18&#45;&gt;Node19</title>
<path fill="none" stroke="midnightblue" d="M989.642,-209C999.596,-209 1009.89,-209 1019.94,-209"/>
<polygon fill="midnightblue" stroke="midnightblue" points="989.416,-205.5 979.416,-209 989.416,-212.5 989.416,-205.5"/>
</g>
<!-- Node20 -->
<g id="node39" class="node"><title>Node20</title>
<a xlink:href="../../db/deb/roles_8qc.html#aa1ee8b4dee1125e36d30aa6f6f7956ce" target="_top" xlink:title="havocbot_chooserole">
<polygon fill="none" stroke="black" points="1219.5,-197.5 1219.5,-218.5 1328.5,-218.5 1328.5,-197.5 1219.5,-197.5"/>
<text text-anchor="middle" x="1274" y="-205.5" font-family="Helvetica,sans-Serif" font-size="10.00">havocbot_chooserole</text>
</a>
</g>
<!-- Node19&#45;&gt;Node20 -->
<g id="edge38" class="edge"><title>Node19&#45;&gt;Node20</title>
<path fill="none" stroke="midnightblue" d="M1176.17,-208.541C1190.8,-208.46 1205.68,-208.377 1219.28,-208.302"/>
<polygon fill="midnightblue" stroke="midnightblue" points="1176.08,-205.041 1166.1,-208.596 1176.12,-212.041 1176.08,-205.041"/>
</g>
<!-- Node20&#45;&gt;Node6 -->
<g id="edge40" class="edge"><title>Node20&#45;&gt;Node6</title>
<path fill="none" stroke="midnightblue" d="M1326.51,-195.039C1346.87,-190.013 1369.88,-184.333 1389.21,-179.562"/>
<polygon fill="midnightblue" stroke="midnightblue" points="1325.63,-191.652 1316.76,-197.446 1327.3,-198.448 1325.63,-191.652"/>
</g>
<!-- Node22&#45;&gt;Node18 -->
<g id="edge46" class="edge"><title>Node22&#45;&gt;Node18</title>
<path fill="none" stroke="midnightblue" d="M834.124,-209C844.609,-209 855.029,-209 864.835,-209"/>
<polygon fill="midnightblue" stroke="midnightblue" points="834.071,-205.5 824.071,-209 834.071,-212.5 834.071,-205.5"/>
</g>
<!-- Node23&#45;&gt;Node11 -->
<g id="edge50" class="edge"><title>Node23&#45;&gt;Node11</title>
<path fill="none" stroke="midnightblue" d="M1356.01,-130C1414.31,-130 1494.46,-130 1565,-130 1565,-130 1565,-130 1796,-130 1864.54,-130 1944.09,-129.587 1992.21,-129.292"/>
<polygon fill="midnightblue" stroke="midnightblue" points="1355.75,-126.5 1345.75,-130 1355.75,-133.5 1355.75,-126.5"/>
</g>
<!-- Node25 -->
<g id="node52" class="node"><title>Node25</title>
<a xlink:href="../../d7/dc4/waypoints_8qc.html#a01e8fff3ff689e909ba40e64f7a65053" target="_top" xlink:title="botframe_autowaypoints_fix">
<polygon fill="none" stroke="black" points="669.5,-80.5 669.5,-101.5 808.5,-101.5 808.5,-80.5 669.5,-80.5"/>
<text text-anchor="middle" x="739" y="-88.5" font-family="Helvetica,sans-Serif" font-size="10.00">botframe_autowaypoints_fix</text>
</a>
</g>
<!-- Node24&#45;&gt;Node25 -->
<g id="edge54" class="edge"><title>Node24&#45;&gt;Node25</title>
<path fill="none" stroke="midnightblue" d="M628.664,-91C642.326,-91 656.203,-91 669.295,-91"/>
<polygon fill="midnightblue" stroke="midnightblue" points="628.275,-87.5001 618.275,-91 628.275,-94.5001 628.275,-87.5001"/>
</g>
<!-- Node26 -->
<g id="node54" class="node"><title>Node26</title>
<a xlink:href="../../d1/d2a/waypoints_8qh.html#aeffebe843059e44cb1df1bf5b6b7403c" target="_top" xlink:title="botframe_autowaypoints">
<polygon fill="none" stroke="black" points="860.5,-80.5 860.5,-101.5 983.5,-101.5 983.5,-80.5 860.5,-80.5"/>
<text text-anchor="middle" x="922" y="-88.5" font-family="Helvetica,sans-Serif" font-size="10.00">botframe_autowaypoints</text>
</a>
</g>
<!-- Node25&#45;&gt;Node26 -->
<g id="edge56" class="edge"><title>Node25&#45;&gt;Node26</title>
<path fill="none" stroke="midnightblue" d="M818.752,-91C832.663,-91 846.943,-91 860.276,-91"/>
<polygon fill="midnightblue" stroke="midnightblue" points="818.707,-87.5001 808.706,-91 818.706,-94.5001 818.707,-87.5001"/>
</g>
<!-- Node26&#45;&gt;Node11 -->
<g id="edge58" class="edge"><title>Node26&#45;&gt;Node11</title>
<path fill="none" stroke="midnightblue" d="M993.871,-91C1065.01,-91 1177.02,-91 1274,-91 1274,-91 1274,-91 1796,-91 1866.45,-91 1947.12,-107.171 1994.69,-118.415"/>
<polygon fill="midnightblue" stroke="midnightblue" points="993.679,-87.5001 983.679,-91 993.679,-94.5001 993.679,-87.5001"/>
</g>
<!-- Node27&#45;&gt;Node26 -->
<g id="edge62" class="edge"><title>Node27&#45;&gt;Node26</title>
<path fill="none" stroke="midnightblue" d="M628.241,-54.3046C684.91,-57.1027 758.879,-62.1334 824,-71 841.378,-73.3661 860.298,-76.9783 876.838,-80.4851"/>
<polygon fill="midnightblue" stroke="midnightblue" points="628.383,-50.8075 618.226,-53.8244 628.047,-57.7994 628.383,-50.8075"/>
</g>
</g>
</svg>
        <g id="navigator" transform="translate(0 0)" fill="#404254">
                <rect fill="#f2f5e9" fill-opacity="0.5" stroke="#606060" stroke-width=".5" x="0" y="0" width="60" height="60"/>
                <use id="zoomplus" xlink:href="#zoomPlus" x="17" y="9" onmousedown="handleZoom(evt,'in')"/>
                <use id="zoomminus" xlink:href="#zoomMin" x="42" y="9" onmousedown="handleZoom(evt,'out')"/>
                <use id="reset" xlink:href="#resetDef" x="30" y="36" onmousedown="handleReset()"/>
                <g id="arrowUp" xlink:href="#dirArrow" transform="translate(30 24)" onmousedown="handlePan(0,-1)">
                  <use xlink:href="#rim" fill="#404040">
                        <set attributeName="fill" to="#808080" begin="arrowUp.mouseover" end="arrowUp.mouseout"/>
                  </use>
                  <path fill="none" stroke="white" stroke-width="1.5" d="M0,-3.0v7 M-2.5,-0.5L0,-3.0L2.5,-0.5"/>
                </g>
                <g id="arrowRight" xlink:href="#dirArrow" transform="rotate(90) translate(36 -43)" onmousedown="handlePan(1,0)">
                  <use xlink:href="#rim" fill="#404040">
                        <set attributeName="fill" to="#808080" begin="arrowRight.mouseover" end="arrowRight.mouseout"/>
                  </use>
                  <path fill="none" stroke="white" stroke-width="1.5" d="M0,-3.0v7 M-2.5,-0.5L0,-3.0L2.5,-0.5"/>
                </g>
                <g id="arrowDown" xlink:href="#dirArrow" transform="rotate(180) translate(-30 -48)" onmousedown="handlePan(0,1)">
                  <use xlink:href="#rim" fill="#404040">
                        <set attributeName="fill" to="#808080" begin="arrowDown.mouseover" end="arrowDown.mouseout"/>
                  </use>
                  <path fill="none" stroke="white" stroke-width="1.5" d="M0,-3.0v7 M-2.5,-0.5L0,-3.0L2.5,-0.5"/>
                </g>
                <g id="arrowLeft" xlink:href="#dirArrow" transform="rotate(270) translate(-36 17)" onmousedown="handlePan(-1,0)">
                  <use xlink:href="#rim" fill="#404040">
                        <set attributeName="fill" to="#808080" begin="arrowLeft.mouseover" end="arrowLeft.mouseout"/>
                  </use>
                  <path fill="none" stroke="white" stroke-width="1.5" d="M0,-3.0v7 M-2.5,-0.5L0,-3.0L2.5,-0.5"/>
                </g>
        </g>
</svg>
