<?xml version="1.0" encoding="UTF-8" standalone="no"?>
<!DOCTYPE svg PUBLIC "-//W3C//DTD SVG 1.1//EN"
 "http://www.w3.org/Graphics/SVG/1.1/DTD/svg11.dtd">
<!-- Generated by graphviz version 2.36.0 (20140111.2315)
 -->
<!-- Title: navigation_pushroute Pages: 1 -->
<svg width="1158pt" height="183pt"
 viewBox="0.00 0.00 1158.00 183.00" xmlns="http://www.w3.org/2000/svg" xmlns:xlink="http://www.w3.org/1999/xlink">
<g id="graph0" class="graph" transform="scale(1 1) rotate(0) translate(4 179)">
<title>navigation_pushroute</title>
<!-- Node1 -->
<g id="node1" class="node"><title>Node1</title>
<polygon fill="#bfbfbf" stroke="black" points="0.5,-143.5 0.5,-162.5 109.5,-162.5 109.5,-143.5 0.5,-143.5"/>
<text text-anchor="middle" x="55" y="-150.5" font-family="Helvetica,sans-Serif" font-size="10.00">navigation_pushroute</text>
</g>
<!-- Node2 -->
<g id="node2" class="node"><title>Node2</title>
<g id="a_node2"><a xlink:href="../../d8/d39/havocbot_8qh.html#ade0b4e09f77eaadd022af3ee44c6a3fc" target="_top" xlink:title="havocbot_ai">
<polygon fill="none" stroke="black" points="794.5,-155.5 794.5,-174.5 863.5,-174.5 863.5,-155.5 794.5,-155.5"/>
<text text-anchor="middle" x="829" y="-162.5" font-family="Helvetica,sans-Serif" font-size="10.00">havocbot_ai</text>
</a>
</g>
</g>
<!-- Node1&#45;&gt;Node2 -->
<g id="edge1" class="edge"><title>Node1&#45;&gt;Node2</title>
<path fill="none" stroke="midnightblue" d="M120.055,-160.002C181.516,-166.109 276.983,-174 360,-174 360,-174 360,-174 528,-174 624.658,-174 738.755,-169.274 794.267,-166.672"/>
<polygon fill="midnightblue" stroke="midnightblue" points="120.039,-156.483 109.738,-158.962 119.337,-163.447 120.039,-156.483"/>
</g>
<!-- Node5 -->
<g id="node5" class="node"><title>Node5</title>
<g id="a_node5"><a xlink:href="../../df/dd4/navigation_8qh.html#a1396c70ada2a084f953954ffcc2df93a" target="_top" xlink:title="navigation_routetogoal">
<polygon fill="none" stroke="black" points="146,-102.5 146,-121.5 260,-121.5 260,-102.5 146,-102.5"/>
<text text-anchor="middle" x="203" y="-109.5" font-family="Helvetica,sans-Serif" font-size="10.00">navigation_routetogoal</text>
</a>
</g>
</g>
<!-- Node1&#45;&gt;Node5 -->
<g id="edge4" class="edge"><title>Node1&#45;&gt;Node5</title>
<path fill="none" stroke="midnightblue" d="M99.5972,-140.757C121.513,-134.602 147.675,-127.256 168.069,-121.529"/>
<polygon fill="midnightblue" stroke="midnightblue" points="98.5436,-137.417 89.8623,-143.491 100.436,-144.157 98.5436,-137.417"/>
</g>
<!-- Node3 -->
<g id="node3" class="node"><title>Node3</title>
<g id="a_node3"><a xlink:href="../../d8/d39/havocbot_8qh.html#afb882bcf6c4a44e801e4fb9eafbbf1f4" target="_top" xlink:title="havocbot_setupbot">
<polygon fill="none" stroke="black" points="920.5,-112.5 920.5,-131.5 1019.5,-131.5 1019.5,-112.5 920.5,-112.5"/>
<text text-anchor="middle" x="970" y="-119.5" font-family="Helvetica,sans-Serif" font-size="10.00">havocbot_setupbot</text>
</a>
</g>
</g>
<!-- Node2&#45;&gt;Node3 -->
<g id="edge2" class="edge"><title>Node2&#45;&gt;Node3</title>
<path fill="none" stroke="midnightblue" d="M870.427,-152.494C892.061,-145.801 918.28,-137.69 938.238,-131.516"/>
<polygon fill="midnightblue" stroke="midnightblue" points="869.368,-149.158 860.849,-155.457 871.436,-155.845 869.368,-149.158"/>
</g>
<!-- Node4 -->
<g id="node4" class="node"><title>Node4</title>
<g id="a_node4"><a xlink:href="../../d1/da9/bot_8qh.html#abd19370e4d61d3549dbbe44826531536" target="_top" xlink:title="bot_clientconnect">
<polygon fill="none" stroke="black" points="1056.5,-112.5 1056.5,-131.5 1149.5,-131.5 1149.5,-112.5 1056.5,-112.5"/>
<text text-anchor="middle" x="1103" y="-119.5" font-family="Helvetica,sans-Serif" font-size="10.00">bot_clientconnect</text>
</a>
</g>
</g>
<!-- Node3&#45;&gt;Node4 -->
<g id="edge3" class="edge"><title>Node3&#45;&gt;Node4</title>
<path fill="none" stroke="midnightblue" d="M1030,-122C1038.79,-122 1047.75,-122 1056.22,-122"/>
<polygon fill="midnightblue" stroke="midnightblue" points="1029.78,-118.5 1019.78,-122 1029.78,-125.5 1029.78,-118.5"/>
</g>
<!-- Node6 -->
<g id="node6" class="node"><title>Node6</title>
<g id="a_node6"><a xlink:href="../../d8/d39/havocbot_8qh.html#a2ffe0266a701ab73cc9cf497b75012e8" target="_top" xlink:title="havocbot_movetogoal">
<polygon fill="none" stroke="black" points="305,-123.5 305,-142.5 417,-142.5 417,-123.5 305,-123.5"/>
<text text-anchor="middle" x="361" y="-130.5" font-family="Helvetica,sans-Serif" font-size="10.00">havocbot_movetogoal</text>
</a>
</g>
</g>
<!-- Node5&#45;&gt;Node6 -->
<g id="edge5" class="edge"><title>Node5&#45;&gt;Node6</title>
<path fill="none" stroke="midnightblue" d="M270.308,-120.926C281.804,-122.474 293.648,-124.068 304.808,-125.57"/>
<polygon fill="midnightblue" stroke="midnightblue" points="270.697,-117.447 260.32,-119.581 269.763,-124.384 270.697,-117.447"/>
</g>
<!-- Node8 -->
<g id="node8" class="node"><title>Node8</title>
<g id="a_node8"><a xlink:href="../../df/dd4/navigation_8qh.html#ab6d01fa32a875613a62f92c12a06bddd" target="_top" xlink:title="navigation_goalrating_end">
<polygon fill="none" stroke="black" points="296.5,-82.5 296.5,-101.5 425.5,-101.5 425.5,-82.5 296.5,-82.5"/>
<text text-anchor="middle" x="361" y="-89.5" font-family="Helvetica,sans-Serif" font-size="10.00">navigation_goalrating_end</text>
</a>
</g>
</g>
<!-- Node5&#45;&gt;Node8 -->
<g id="edge8" class="edge"><title>Node5&#45;&gt;Node8</title>
<path fill="none" stroke="midnightblue" d="M270.329,-103.496C278.953,-102.391 287.773,-101.26 296.352,-100.16"/>
<polygon fill="midnightblue" stroke="midnightblue" points="269.793,-100.036 260.32,-104.78 270.684,-106.979 269.793,-100.036"/>
</g>
<!-- Node13 -->
<g id="node13" class="node"><title>Node13</title>
<g id="a_node13"><a xlink:href="../../df/dd4/navigation_8qh.html#a5366a30eadfa71d3b37653e469a20904" target="_top" xlink:title="navigation_unstuck">
<polygon fill="none" stroke="black" points="310.5,-22.5 310.5,-41.5 411.5,-41.5 411.5,-22.5 310.5,-22.5"/>
<text text-anchor="middle" x="361" y="-29.5" font-family="Helvetica,sans-Serif" font-size="10.00">navigation_unstuck</text>
</a>
</g>
</g>
<!-- Node5&#45;&gt;Node13 -->
<g id="edge15" class="edge"><title>Node5&#45;&gt;Node13</title>
<path fill="none" stroke="midnightblue" d="M231.95,-97.6667C263.482,-81.4964 313.905,-55.6384 341.116,-41.6841"/>
<polygon fill="midnightblue" stroke="midnightblue" points="230.118,-94.6725 222.817,-102.35 233.313,-100.901 230.118,-94.6725"/>
</g>
<!-- Node7 -->
<g id="node7" class="node"><title>Node7</title>
<g id="a_node7"><a xlink:href="../../d8/d39/havocbot_8qh.html#a220d6282b351b7a69e7ee1bfce73098f" target="_top" xlink:title="havocbot_moveto">
<polygon fill="none" stroke="black" points="636,-112.5 636,-131.5 730,-131.5 730,-112.5 636,-112.5"/>
<text text-anchor="middle" x="683" y="-119.5" font-family="Helvetica,sans-Serif" font-size="10.00">havocbot_moveto</text>
</a>
</g>
</g>
<!-- Node6&#45;&gt;Node7 -->
<g id="edge6" class="edge"><title>Node6&#45;&gt;Node7</title>
<path fill="none" stroke="midnightblue" d="M427.092,-130.762C489.195,-128.628 581.17,-125.466 635.995,-123.581"/>
<polygon fill="midnightblue" stroke="midnightblue" points="426.884,-127.267 417.01,-131.109 427.124,-134.263 426.884,-127.267"/>
</g>
<!-- Node7&#45;&gt;Node3 -->
<g id="edge7" class="edge"><title>Node7&#45;&gt;Node3</title>
<path fill="none" stroke="midnightblue" d="M740.249,-122C792.702,-122 870.149,-122 920.093,-122"/>
<polygon fill="midnightblue" stroke="midnightblue" points="740.107,-118.5 730.107,-122 740.107,-125.5 740.107,-118.5"/>
</g>
<!-- Node9 -->
<g id="node9" class="node"><title>Node9</title>
<g id="a_node9"><a xlink:href="../../d8/d39/havocbot_8qh.html#adeb49cf8f2443d24afe7f12f5e05cd98" target="_top" xlink:title="havocbot_moveto_refresh\l_route">
<polygon fill="none" stroke="black" points="462.5,-77 462.5,-107 591.5,-107 591.5,-77 462.5,-77"/>
<text text-anchor="start" x="470.5" y="-95" font-family="Helvetica,sans-Serif" font-size="10.00">havocbot_moveto_refresh</text>
<text text-anchor="middle" x="527" y="-84" font-family="Helvetica,sans-Serif" font-size="10.00">_route</text>
</a>
</g>
</g>
<!-- Node8&#45;&gt;Node9 -->
<g id="edge9" class="edge"><title>Node8&#45;&gt;Node9</title>
<path fill="none" stroke="midnightblue" d="M436.073,-92C444.828,-92 453.704,-92 462.298,-92"/>
<polygon fill="midnightblue" stroke="midnightblue" points="435.876,-88.5001 425.876,-92 435.876,-95.5001 435.876,-88.5001"/>
</g>
<!-- Node10 -->
<g id="node10" class="node"><title>Node10</title>
<g id="a_node10"><a xlink:href="../../db/deb/roles_8qc.html#a4f33c76c5937f4781a5315a14158fd3f" target="_top" xlink:title="havocbot_role_generic">
<polygon fill="none" stroke="black" points="470,-38.5 470,-57.5 584,-57.5 584,-38.5 470,-38.5"/>
<text text-anchor="middle" x="527" y="-45.5" font-family="Helvetica,sans-Serif" font-size="10.00">havocbot_role_generic</text>
</a>
</g>
</g>
<!-- Node8&#45;&gt;Node10 -->
<g id="edge11" class="edge"><title>Node8&#45;&gt;Node10</title>
<path fill="none" stroke="midnightblue" d="M407.304,-79.8453C433.547,-72.8045 466.107,-64.0688 490.484,-57.5287"/>
<polygon fill="midnightblue" stroke="midnightblue" points="406.337,-76.4808 397.586,-82.4527 408.151,-83.2417 406.337,-76.4808"/>
</g>
<!-- Node9&#45;&gt;Node7 -->
<g id="edge10" class="edge"><title>Node9&#45;&gt;Node7</title>
<path fill="none" stroke="midnightblue" d="M601.629,-106.343C613.185,-108.594 624.842,-110.865 635.557,-112.953"/>
<polygon fill="midnightblue" stroke="midnightblue" points="602.012,-102.852 591.527,-104.375 600.673,-109.723 602.012,-102.852"/>
</g>
<!-- Node11 -->
<g id="node11" class="node"><title>Node11</title>
<g id="a_node11"><a xlink:href="../../db/deb/roles_8qc.html#ab1af65619c621606e2636b8a2fbbd18d" target="_top" xlink:title="havocbot_chooserole\l_generic">
<polygon fill="none" stroke="black" points="628.5,-44 628.5,-74 737.5,-74 737.5,-44 628.5,-44"/>
<text text-anchor="start" x="636.5" y="-62" font-family="Helvetica,sans-Serif" font-size="10.00">havocbot_chooserole</text>
<text text-anchor="middle" x="683" y="-51" font-family="Helvetica,sans-Serif" font-size="10.00">_generic</text>
</a>
</g>
</g>
<!-- Node10&#45;&gt;Node11 -->
<g id="edge12" class="edge"><title>Node10&#45;&gt;Node11</title>
<path fill="none" stroke="midnightblue" d="M594.339,-52.7385C605.688,-53.5492 617.353,-54.3824 628.321,-55.1658"/>
<polygon fill="midnightblue" stroke="midnightblue" points="594.257,-49.2238 584.033,-52.0024 593.758,-56.206 594.257,-49.2238"/>
</g>
<!-- Node12 -->
<g id="node12" class="node"><title>Node12</title>
<g id="a_node12"><a xlink:href="../../db/deb/roles_8qc.html#a5f878532d323f792b8b4c306d068cc0c" target="_top" xlink:title="havocbot_chooserole">
<polygon fill="none" stroke="black" points="774.5,-62.5 774.5,-81.5 883.5,-81.5 883.5,-62.5 774.5,-62.5"/>
<text text-anchor="middle" x="829" y="-69.5" font-family="Helvetica,sans-Serif" font-size="10.00">havocbot_chooserole</text>
</a>
</g>
</g>
<!-- Node11&#45;&gt;Node12 -->
<g id="edge13" class="edge"><title>Node11&#45;&gt;Node12</title>
<path fill="none" stroke="midnightblue" d="M747.593,-64.7411C756.519,-65.5468 765.619,-66.3684 774.335,-67.1552"/>
<polygon fill="midnightblue" stroke="midnightblue" points="747.895,-61.2541 737.62,-63.8407 747.265,-68.2258 747.895,-61.2541"/>
</g>
<!-- Node12&#45;&gt;Node3 -->
<g id="edge14" class="edge"><title>Node12&#45;&gt;Node3</title>
<path fill="none" stroke="midnightblue" d="M866.197,-85.0204C889.967,-93.571 920.545,-104.57 942.153,-112.343"/>
<polygon fill="midnightblue" stroke="midnightblue" points="867.066,-81.6138 856.472,-81.5223 864.697,-88.2006 867.066,-81.6138"/>
</g>
<!-- Node14 -->
<g id="node14" class="node"><title>Node14</title>
<g id="a_node14"><a xlink:href="../../d1/da9/bot_8qh.html#a4c35713fe04bf8f6dc78a76c3b8720ac" target="_top" xlink:title="bot_think">
<polygon fill="none" stroke="black" points="499,-0.5 499,-19.5 555,-19.5 555,-0.5 499,-0.5"/>
<text text-anchor="middle" x="527" y="-7.5" font-family="Helvetica,sans-Serif" font-size="10.00">bot_think</text>
</a>
</g>
</g>
<!-- Node13&#45;&gt;Node14 -->
<g id="edge16" class="edge"><title>Node13&#45;&gt;Node14</title>
<path fill="none" stroke="midnightblue" d="M421.607,-24.004C448.082,-20.4525 477.929,-16.4485 498.907,-13.6344"/>
<polygon fill="midnightblue" stroke="midnightblue" points="421.096,-20.541 411.65,-25.3396 422.027,-27.4789 421.096,-20.541"/>
</g>
<!-- Node15 -->
<g id="node15" class="node"><title>Node15</title>
<g id="a_node15"><a xlink:href="../../db/d47/sv__physics_8qc.html#a50dd909e0a02aa3e18e75c75fffae1ec" target="_top" xlink:title="sys_phys_ai">
<polygon fill="none" stroke="black" points="647.5,-0.5 647.5,-19.5 718.5,-19.5 718.5,-0.5 647.5,-0.5"/>
<text text-anchor="middle" x="683" y="-7.5" font-family="Helvetica,sans-Serif" font-size="10.00">sys_phys_ai</text>
</a>
</g>
</g>
<!-- Node14&#45;&gt;Node15 -->
<g id="edge17" class="edge"><title>Node14&#45;&gt;Node15</title>
<path fill="none" stroke="midnightblue" d="M565.354,-10C590.298,-10 622.874,-10 647.259,-10"/>
<polygon fill="midnightblue" stroke="midnightblue" points="565.178,-6.5001 555.178,-10 565.178,-13.5001 565.178,-6.5001"/>
</g>
</g>
</svg>
