<?xml version="1.0" encoding="UTF-8" standalone="no"?>
<!DOCTYPE svg PUBLIC "-//W3C//DTD SVG 1.1//EN"
 "http://www.w3.org/Graphics/SVG/1.1/DTD/svg11.dtd">
<!-- Generated by graphviz version 2.38.0 (20140413.2041)
 -->
<!-- Title: ka_ballcarrier_waypointsprite_visible_for_player Pages: 1 -->
<!--zoomable 123 -->
<svg id="main" version="1.1" xmlns="http://www.w3.org/2000/svg" xmlns:xlink="http://www.w3.org/1999/xlink" xml:space="preserve" onload="init(evt)">
<style type="text/css"><![CDATA[
.edge:hover path { stroke: red; }
.edge:hover polygon { stroke: red; fill: red; }
]]></style>
<script type="text/javascript"><![CDATA[
var edges = document.getElementsByTagName('g');
if (edges && edges.length) {
  for (var i=0;i<edges.length;i++) {
    if (edges[i].id.substr(0,4)=='edge') {
      edges[i].setAttribute('class','edge');
    }
  }
}
]]></script>
        <defs>
                <circle id="rim" cx="0" cy="0" r="7"/>
                <circle id="rim2" cx="0" cy="0" r="3.5"/>
                <g id="zoomPlus">
                        <use xlink:href="#rim" fill="#404040">
                                <set attributeName="fill" to="#808080" begin="zoomplus.mouseover" end="zoomplus.mouseout"/>
                        </use>
                        <path d="M-4,0h8M0,-4v8" fill="none" stroke="white" stroke-width="1.5" pointer-events="none"/>
                </g>
                <g id="zoomMin">
                        <use xlink:href="#rim" fill="#404040">
                                <set attributeName="fill" to="#808080" begin="zoomminus.mouseover" end="zoomminus.mouseout"/>
                        </use>
                        <path d="M-4,0h8" fill="none" stroke="white" stroke-width="1.5" pointer-events="none"/>
                </g>
                <g id="dirArrow">
                        <path fill="none" stroke="white" stroke-width="1.5" d="M0,-3.0v7 M-2.5,-0.5L0,-3.0L2.5,-0.5"/>
                </g>
               <g id="resetDef">
                       <use xlink:href="#rim2" fill="#404040">
                               <set attributeName="fill" to="#808080" begin="reset.mouseover" end="reset.mouseout"/>
                       </use>
               </g>
        </defs>

<script type="text/javascript">
var viewWidth = 970;
var viewHeight = 123;
var sectionId = 'dynsection-7';
</script>
<script xlink:href="../../svgpan.js"/>
<svg id="graph" class="graph">
<g id="viewport">
<title>ka_ballcarrier_waypointsprite_visible_for_player</title>
<!-- Node1 -->
<g id="node1" class="node"><title>Node1</title>
<polygon fill="#bfbfbf" stroke="black" points="0,-33 0,-63 155,-63 155,-33 0,-33"/>
<text text-anchor="start" x="8" y="-51" font-family="Helvetica,sans-Serif" font-size="10.00">ka_ballcarrier_waypointsprite</text>
<text text-anchor="middle" x="77.5" y="-40" font-family="Helvetica,sans-Serif" font-size="10.00">_visible_for_player</text>
</g>
<!-- Node2 -->
<g id="node2" class="node"><title>Node2</title>
<g id="a_node2"><a xlink:href="../../de/da1/sv__keepaway_8qc.html#ac4c4fbb459ed5ae28fa62d2a8d53a5a7" target="_top" xlink:title="ka_TouchEvent">
<polygon fill="none" stroke="black" points="191,-38.5 191,-57.5 278,-57.5 278,-38.5 191,-38.5"/>
<text text-anchor="middle" x="234.5" y="-45.5" font-family="Helvetica,sans-Serif" font-size="10.00">ka_TouchEvent</text>
</a>
</g>
</g>
<!-- Node1&#45;&gt;Node2 -->
<g id="edge1" class="edge"><title>Node1&#45;&gt;Node2</title>
<path fill="none" stroke="midnightblue" d="M165.209,-48C174.13,-48 182.886,-48 190.995,-48"/>
<polygon fill="midnightblue" stroke="midnightblue" points="165.092,-44.5001 155.092,-48 165.092,-51.5001 165.092,-44.5001"/>
</g>
<!-- Node3 -->
<g id="node3" class="node"><title>Node3</title>
<g id="a_node3"><a xlink:href="../../de/da1/sv__keepaway_8qc.html#af8f0e411c8293afa501c76d2f9f5f904" target="_top" xlink:title="ka_EventLog">
<polygon fill="none" stroke="black" points="321.5,-95.5 321.5,-114.5 398.5,-114.5 398.5,-95.5 321.5,-95.5"/>
<text text-anchor="middle" x="360" y="-102.5" font-family="Helvetica,sans-Serif" font-size="10.00">ka_EventLog</text>
</a>
</g>
</g>
<!-- Node2&#45;&gt;Node3 -->
<g id="edge2" class="edge"><title>Node2&#45;&gt;Node3</title>
<path fill="none" stroke="midnightblue" d="M278.957,-61.5775C303.165,-72.0147 331.496,-85.856 347.126,-95.3362"/>
<polygon fill="midnightblue" stroke="midnightblue" points="280.148,-58.2813 269.574,-57.6192 277.427,-64.7309 280.148,-58.2813"/>
</g>
<!-- Node4 -->
<g id="node4" class="node"><title>Node4</title>
<g id="a_node4"><a xlink:href="../../da/dcc/sv__keepaway_8qh.html#a259b3a95461e18da357a2b9d7512e2e6" target="_top" xlink:title="ka_DropEvent">
<polygon fill="none" stroke="black" points="442,-57.5 442,-76.5 525,-76.5 525,-57.5 442,-57.5"/>
<text text-anchor="middle" x="483.5" y="-64.5" font-family="Helvetica,sans-Serif" font-size="10.00">ka_DropEvent</text>
</a>
</g>
</g>
<!-- Node2&#45;&gt;Node4 -->
<g id="edge13" class="edge"><title>Node2&#45;&gt;Node4</title>
<path fill="none" stroke="midnightblue" d="M288.316,-52.0628C334.291,-55.5993 399.967,-60.6513 441.919,-63.8784"/>
<polygon fill="midnightblue" stroke="midnightblue" points="288.481,-48.5652 278.242,-51.2879 287.944,-55.5446 288.481,-48.5652"/>
</g>
<!-- Node6 -->
<g id="node6" class="node"><title>Node6</title>
<g id="a_node6"><a xlink:href="../../de/da1/sv__keepaway_8qc.html#a918f60aac6917ab91d28888e6f0fade3" target="_top" xlink:title="ka_RespawnBall">
<polygon fill="none" stroke="black" points="314,-19.5 314,-38.5 406,-38.5 406,-19.5 314,-19.5"/>
<text text-anchor="middle" x="360" y="-26.5" font-family="Helvetica,sans-Serif" font-size="10.00">ka_RespawnBall</text>
</a>
</g>
</g>
<!-- Node2&#45;&gt;Node6 -->
<g id="edge6" class="edge"><title>Node2&#45;&gt;Node6</title>
<path fill="none" stroke="midnightblue" d="M270.897,-36.3833C284.315,-33.6924 299.777,-31.1956 313.966,-29.4031"/>
<polygon fill="midnightblue" stroke="midnightblue" points="270.142,-32.9656 261.089,-38.4705 271.599,-39.8123 270.142,-32.9656"/>
</g>
<!-- Node7 -->
<g id="node7" class="node"><title>Node7</title>
<g id="a_node7"><a xlink:href="../../de/da1/sv__keepaway_8qc.html#abbf02f92af7cca347d884d06e05b7399" target="_top" xlink:title="ka_SpawnBall">
<polygon fill="none" stroke="black" points="442.5,-0.5 442.5,-19.5 524.5,-19.5 524.5,-0.5 442.5,-0.5"/>
<text text-anchor="middle" x="483.5" y="-7.5" font-family="Helvetica,sans-Serif" font-size="10.00">ka_SpawnBall</text>
</a>
</g>
</g>
<!-- Node2&#45;&gt;Node7 -->
<g id="edge14" class="edge"><title>Node2&#45;&gt;Node7</title>
<path fill="none" stroke="midnightblue" d="M258.746,-33.2939C273.849,-24.6317 294.323,-14.5121 314,-10 357.055,-0.126959 407.943,-1.90102 442.443,-5.01723"/>
<polygon fill="midnightblue" stroke="midnightblue" points="256.901,-30.3191 250.091,-38.4359 260.476,-36.3371 256.901,-30.3191"/>
</g>
<!-- Node3&#45;&gt;Node2 -->
<g id="edge3" class="edge"><title>Node3&#45;&gt;Node2</title>
<path fill="none" stroke="midnightblue" d="M315.76,-91.5159C291.488,-81.0608 263.011,-67.1532 247.342,-57.6442"/>
<polygon fill="midnightblue" stroke="midnightblue" points="314.589,-94.8207 325.164,-95.4786 317.308,-88.37 314.589,-94.8207"/>
</g>
<!-- Node3&#45;&gt;Node4 -->
<g id="edge4" class="edge"><title>Node3&#45;&gt;Node4</title>
<path fill="none" stroke="midnightblue" d="M401.544,-92.3196C417.961,-87.1852 436.599,-81.3559 451.85,-76.5859"/>
<polygon fill="midnightblue" stroke="midnightblue" points="400.159,-89.0855 391.66,-95.411 402.248,-95.7664 400.159,-89.0855"/>
</g>
<!-- Node5 -->
<g id="node5" class="node"><title>Node5</title>
<g id="a_node5"><a xlink:href="../../de/da1/sv__keepaway_8qc.html#a8794086f299436c0f3ad85428fbe8e3e" target="_top" xlink:title="MUTATOR_HOOKFUNCTION">
<polygon fill="none" stroke="black" points="561,-57.5 561,-76.5 706,-76.5 706,-57.5 561,-57.5"/>
<text text-anchor="middle" x="633.5" y="-64.5" font-family="Helvetica,sans-Serif" font-size="10.00">MUTATOR_HOOKFUNCTION</text>
</a>
</g>
</g>
<!-- Node4&#45;&gt;Node5 -->
<g id="edge5" class="edge"><title>Node4&#45;&gt;Node5</title>
<path fill="none" stroke="midnightblue" d="M535.457,-67C543.654,-67 552.269,-67 560.843,-67"/>
<polygon fill="midnightblue" stroke="midnightblue" points="535.333,-63.5001 525.333,-67 535.333,-70.5001 535.333,-63.5001"/>
</g>
<!-- Node6&#45;&gt;Node2 -->
<g id="edge7" class="edge"><title>Node6&#45;&gt;Node2</title>
<path fill="none" stroke="midnightblue" d="M323.486,-40.6402C309.291,-43.4831 292.824,-46.1075 278.002,-47.9109"/>
<polygon fill="midnightblue" stroke="midnightblue" points="324.31,-44.0432 333.364,-38.5402 322.855,-37.1962 324.31,-44.0432"/>
</g>
<!-- Node6&#45;&gt;Node4 -->
<g id="edge8" class="edge"><title>Node6&#45;&gt;Node4</title>
<path fill="none" stroke="midnightblue" d="M401.544,-41.6804C417.961,-46.8148 436.599,-52.6441 451.85,-57.4141"/>
<polygon fill="midnightblue" stroke="midnightblue" points="402.248,-38.2336 391.66,-38.589 400.159,-44.9145 402.248,-38.2336"/>
</g>
<!-- Node6&#45;&gt;Node7 -->
<g id="edge9" class="edge"><title>Node6&#45;&gt;Node7</title>
<path fill="none" stroke="midnightblue" d="M416.132,-20.3785C424.989,-18.9935 434.006,-17.5835 442.422,-16.2674"/>
<polygon fill="midnightblue" stroke="midnightblue" points="415.581,-16.922 406.242,-21.9251 416.663,-23.838 415.581,-16.922"/>
</g>
<!-- Node8 -->
<g id="node8" class="node"><title>Node8</title>
<g id="a_node8"><a xlink:href="../../de/da1/sv__keepaway_8qc.html#afd0a54d0dc344ec485677235b15cd421" target="_top" xlink:title="ka_Handler_CheckBall">
<polygon fill="none" stroke="black" points="572.5,-0.5 572.5,-19.5 694.5,-19.5 694.5,-0.5 572.5,-0.5"/>
<text text-anchor="middle" x="633.5" y="-7.5" font-family="Helvetica,sans-Serif" font-size="10.00">ka_Handler_CheckBall</text>
</a>
</g>
</g>
<!-- Node7&#45;&gt;Node8 -->
<g id="edge10" class="edge"><title>Node7&#45;&gt;Node8</title>
<path fill="none" stroke="midnightblue" d="M534.874,-10C546.938,-10 559.938,-10 572.393,-10"/>
<polygon fill="midnightblue" stroke="midnightblue" points="534.551,-6.5001 524.551,-10 534.551,-13.5001 534.551,-6.5001"/>
</g>
<!-- Node9 -->
<g id="node9" class="node"><title>Node9</title>
<g id="a_node9"><a xlink:href="../../da/dcc/sv__keepaway_8qh.html#ad066a4c24559d830eee8b0e63c5e5d0e" target="_top" xlink:title="ka_Initialize">
<polygon fill="none" stroke="black" points="742,-0.5 742,-19.5 813,-19.5 813,-0.5 742,-0.5"/>
<text text-anchor="middle" x="777.5" y="-7.5" font-family="Helvetica,sans-Serif" font-size="10.00">ka_Initialize</text>
</a>
</g>
</g>
<!-- Node8&#45;&gt;Node9 -->
<g id="edge11" class="edge"><title>Node8&#45;&gt;Node9</title>
<path fill="none" stroke="midnightblue" d="M704.93,-10C717.706,-10 730.507,-10 741.678,-10"/>
<polygon fill="midnightblue" stroke="midnightblue" points="704.721,-6.5001 694.721,-10 704.721,-13.5001 704.721,-6.5001"/>
</g>
<!-- Node10 -->
<g id="node10" class="node"><title>Node10</title>
<g id="a_node10"><a xlink:href="../../da/dcc/sv__keepaway_8qh.html#a5b9c6f34b2b2004f1dd81df0ecf52a38" target="_top" xlink:title="REGISTER_MUTATOR">
<polygon fill="none" stroke="black" points="849,-0.5 849,-19.5 962,-19.5 962,-0.5 849,-0.5"/>
<text text-anchor="middle" x="905.5" y="-7.5" font-family="Helvetica,sans-Serif" font-size="10.00">REGISTER_MUTATOR</text>
</a>
</g>
</g>
<!-- Node9&#45;&gt;Node10 -->
<g id="edge12" class="edge"><title>Node9&#45;&gt;Node10</title>
<path fill="none" stroke="midnightblue" d="M823.326,-10C831.495,-10 840.11,-10 848.554,-10"/>
<polygon fill="midnightblue" stroke="midnightblue" points="823.264,-6.5001 813.264,-10 823.264,-13.5001 823.264,-6.5001"/>
</g>
</g>
</svg>
        <g id="navigator" transform="translate(0 0)" fill="#404254">
                <rect fill="#f2f5e9" fill-opacity="0.5" stroke="#606060" stroke-width=".5" x="0" y="0" width="60" height="60"/>
                <use id="zoomplus" xlink:href="#zoomPlus" x="17" y="9" onmousedown="handleZoom(evt,'in')"/>
                <use id="zoomminus" xlink:href="#zoomMin" x="42" y="9" onmousedown="handleZoom(evt,'out')"/>
                <use id="reset" xlink:href="#resetDef" x="30" y="36" onmousedown="handleReset()"/>
                <g id="arrowUp" xlink:href="#dirArrow" transform="translate(30 24)" onmousedown="handlePan(0,-1)">
                  <use xlink:href="#rim" fill="#404040">
                        <set attributeName="fill" to="#808080" begin="arrowUp.mouseover" end="arrowUp.mouseout"/>
                  </use>
                  <path fill="none" stroke="white" stroke-width="1.5" d="M0,-3.0v7 M-2.5,-0.5L0,-3.0L2.5,-0.5"/>
                </g>
                <g id="arrowRight" xlink:href="#dirArrow" transform="rotate(90) translate(36 -43)" onmousedown="handlePan(1,0)">
                  <use xlink:href="#rim" fill="#404040">
                        <set attributeName="fill" to="#808080" begin="arrowRight.mouseover" end="arrowRight.mouseout"/>
                  </use>
                  <path fill="none" stroke="white" stroke-width="1.5" d="M0,-3.0v7 M-2.5,-0.5L0,-3.0L2.5,-0.5"/>
                </g>
                <g id="arrowDown" xlink:href="#dirArrow" transform="rotate(180) translate(-30 -48)" onmousedown="handlePan(0,1)">
                  <use xlink:href="#rim" fill="#404040">
                        <set attributeName="fill" to="#808080" begin="arrowDown.mouseover" end="arrowDown.mouseout"/>
                  </use>
                  <path fill="none" stroke="white" stroke-width="1.5" d="M0,-3.0v7 M-2.5,-0.5L0,-3.0L2.5,-0.5"/>
                </g>
                <g id="arrowLeft" xlink:href="#dirArrow" transform="rotate(270) translate(-36 17)" onmousedown="handlePan(-1,0)">
                  <use xlink:href="#rim" fill="#404040">
                        <set attributeName="fill" to="#808080" begin="arrowLeft.mouseover" end="arrowLeft.mouseout"/>
                  </use>
                  <path fill="none" stroke="white" stroke-width="1.5" d="M0,-3.0v7 M-2.5,-0.5L0,-3.0L2.5,-0.5"/>
                </g>
        </g>
        <svg viewBox="0 0 15 15" width="100%" height="30px" preserveAspectRatio="xMaxYMin meet">
         <g id="arrow_out" transform="scale(0.3 0.3)">
          <a xlink:href="sv__keepaway_8qc_aba900e001d432363ed6e93c6b5499a84_icgraph_org.svg" target="_base">
           <rect id="button" ry="5" rx="5" y="6" x="6" height="38" width="38"
                fill="#f2f5e9" fill-opacity="0.5" stroke="#606060" stroke-width="1.0"/>
           <path id="arrow"
             d="M 11.500037,31.436501 C 11.940474,20.09759 22.043105,11.32322 32.158766,21.979434 L 37.068811,17.246167 C 37.068811,17.246167 37.088388,32 37.088388,32 L 22.160133,31.978069 C 22.160133,31.978069 26.997745,27.140456 26.997745,27.140456 C 18.528582,18.264221 13.291696,25.230495 11.500037,31.436501 z"
             style="fill:#404040;"/>
          </a>
         </g>
        </svg>
</svg>
