<?xml version="1.0" encoding="UTF-8" standalone="no"?>
<!DOCTYPE svg PUBLIC "-//W3C//DTD SVG 1.1//EN"
 "http://www.w3.org/Graphics/SVG/1.1/DTD/svg11.dtd">
<!-- Generated by graphviz version 2.40.1 (20161225.0304)
 -->
<!-- Title: TeamScore_SendEntity Pages: 1 -->
<svg width="240pt" height="142pt"
 viewBox="0.00 0.00 240.00 142.00" xmlns="http://www.w3.org/2000/svg" xmlns:xlink="http://www.w3.org/1999/xlink">
<g id="graph0" class="graph" transform="scale(1 1) rotate(0) translate(4 138)">
<title>TeamScore_SendEntity</title>
<!-- Node879 -->
<g id="node1" class="node">
<title>Node879</title>
<polygon fill="#bfbfbf" stroke="#000000" points="0,-57.5 0,-76.5 128,-76.5 128,-57.5 0,-57.5"/>
<text text-anchor="middle" x="64" y="-64.5" font-family="Helvetica,sans-Serif" font-size="10.00" fill="#000000">TeamScore_SendEntity</text>
</g>
<!-- Node880 -->
<g id="node2" class="node">
<title>Node880</title>
<g id="a_node2"><a xlink:href="../../d8/de2/menudefs_8qc.html#abc4199f59419099fba0efc7f78663e15" target="_top" xlink:title="eprint">
<polygon fill="none" stroke="#000000" points="175.5,-114.5 175.5,-133.5 220.5,-133.5 220.5,-114.5 175.5,-114.5"/>
<text text-anchor="middle" x="198" y="-121.5" font-family="Helvetica,sans-Serif" font-size="10.00" fill="#000000">eprint</text>
</a>
</g>
</g>
<!-- Node879&#45;&gt;Node880 -->
<g id="edge1" class="edge">
<title>Node879&#45;&gt;Node880</title>
<path fill="none" stroke="#191970" d="M86.4286,-76.5405C108.2655,-85.8294 141.6631,-100.0358 166.2296,-110.4857"/>
<polygon fill="#191970" stroke="#191970" points="164.9261,-113.7347 175.4982,-114.4284 167.6662,-107.2933 164.9261,-113.7347"/>
</g>
<!-- Node881 -->
<g id="node3" class="node">
<title>Node881</title>
<g id="a_node3"><a xlink:href="../../d8/de2/menudefs_8qc.html#abd23315350cd01304b6bd77c4c5c07e6" target="_top" xlink:title="WriteByte">
<polygon fill="none" stroke="#000000" points="165.5,-76.5 165.5,-95.5 230.5,-95.5 230.5,-76.5 165.5,-76.5"/>
<text text-anchor="middle" x="198" y="-83.5" font-family="Helvetica,sans-Serif" font-size="10.00" fill="#000000">WriteByte</text>
</a>
</g>
</g>
<!-- Node879&#45;&gt;Node881 -->
<g id="edge2" class="edge">
<title>Node879&#45;&gt;Node881</title>
<path fill="none" stroke="#191970" d="M128.2526,-76.1104C137.4211,-77.4105 146.6584,-78.7202 155.276,-79.9421"/>
<polygon fill="#191970" stroke="#191970" points="155.0417,-83.4438 165.4341,-81.3824 156.0245,-76.5131 155.0417,-83.4438"/>
</g>
<!-- Node882 -->
<g id="node4" class="node">
<title>Node882</title>
<g id="a_node4"><a xlink:href="../../d8/de2/menudefs_8qc.html#a52cb9ee43a3668c53bee4ff715da8260" target="_top" xlink:title="WriteChar">
<polygon fill="none" stroke="#000000" points="165.5,-38.5 165.5,-57.5 230.5,-57.5 230.5,-38.5 165.5,-38.5"/>
<text text-anchor="middle" x="198" y="-45.5" font-family="Helvetica,sans-Serif" font-size="10.00" fill="#000000">WriteChar</text>
</a>
</g>
</g>
<!-- Node879&#45;&gt;Node882 -->
<g id="edge3" class="edge">
<title>Node879&#45;&gt;Node882</title>
<path fill="none" stroke="#191970" d="M128.2526,-57.8896C137.4211,-56.5895 146.6584,-55.2798 155.276,-54.0579"/>
<polygon fill="#191970" stroke="#191970" points="156.0245,-57.4869 165.4341,-52.6176 155.0417,-50.5562 156.0245,-57.4869"/>
</g>
<!-- Node883 -->
<g id="node5" class="node">
<title>Node883</title>
<g id="a_node5"><a xlink:href="../../d8/de2/menudefs_8qc.html#a7bb594d808e357274edee331b5ed2d35" target="_top" xlink:title="WriteShort">
<polygon fill="none" stroke="#000000" points="164,-.5 164,-19.5 232,-19.5 232,-.5 164,-.5"/>
<text text-anchor="middle" x="198" y="-7.5" font-family="Helvetica,sans-Serif" font-size="10.00" fill="#000000">WriteShort</text>
</a>
</g>
</g>
<!-- Node879&#45;&gt;Node883 -->
<g id="edge4" class="edge">
<title>Node879&#45;&gt;Node883</title>
<path fill="none" stroke="#191970" d="M86.4286,-57.4595C108.2655,-48.1706 141.6631,-33.9642 166.2296,-23.5143"/>
<polygon fill="#191970" stroke="#191970" points="167.6662,-26.7067 175.4982,-19.5716 164.9261,-20.2653 167.6662,-26.7067"/>
</g>
</g>
</svg>
