<?xml version="1.0" encoding="UTF-8" standalone="no"?>
<!DOCTYPE svg PUBLIC "-//W3C//DTD SVG 1.1//EN"
 "http://www.w3.org/Graphics/SVG/1.1/DTD/svg11.dtd">
<!-- Generated by graphviz version 2.36.0 (20140111.2315)
 -->
<!-- Title: TeamScore_SendEntity Pages: 1 -->
<svg width="1178pt" height="484pt"
 viewBox="0.00 0.00 1178.00 484.00" xmlns="http://www.w3.org/2000/svg" xmlns:xlink="http://www.w3.org/1999/xlink">
<g id="graph0" class="graph" transform="scale(1 1) rotate(0) translate(4 480)">
<title>TeamScore_SendEntity</title>
<!-- Node1 -->
<g id="node1" class="node"><title>Node1</title>
<polygon fill="#bfbfbf" stroke="black" points="0,-228.5 0,-247.5 120,-247.5 120,-228.5 0,-228.5"/>
<text text-anchor="middle" x="60" y="-235.5" font-family="Helvetica,sans-Serif" font-size="10.00">TeamScore_SendEntity</text>
</g>
<!-- Node2 -->
<g id="node2" class="node"><title>Node2</title>
<g id="a_node2"><a xlink:href="../../d2/d79/scores_8qc.html#a5db481005e2c63c868c58b15537638a0" target="_top" xlink:title="TeamScore_Spawn">
<polygon fill="none" stroke="black" points="156,-228.5 156,-247.5 258,-247.5 258,-228.5 156,-228.5"/>
<text text-anchor="middle" x="207" y="-235.5" font-family="Helvetica,sans-Serif" font-size="10.00">TeamScore_Spawn</text>
</a>
</g>
</g>
<!-- Node1&#45;&gt;Node2 -->
<g id="edge1" class="edge"><title>Node1&#45;&gt;Node2</title>
<path fill="none" stroke="midnightblue" d="M130.657,-238C139.115,-238 147.626,-238 155.726,-238"/>
<polygon fill="midnightblue" stroke="midnightblue" points="130.395,-234.5 120.395,-238 130.395,-241.5 130.395,-234.5"/>
</g>
<!-- Node3 -->
<g id="node3" class="node"><title>Node3</title>
<g id="a_node3"><a xlink:href="../../d2/d79/scores_8qc.html#a51f0d41043a05b6682f5322b3f338abd" target="_top" xlink:title="ScoreInfo_Init">
<polygon fill="none" stroke="black" points="294.5,-228.5 294.5,-247.5 371.5,-247.5 371.5,-228.5 294.5,-228.5"/>
<text text-anchor="middle" x="333" y="-235.5" font-family="Helvetica,sans-Serif" font-size="10.00">ScoreInfo_Init</text>
</a>
</g>
</g>
<!-- Node2&#45;&gt;Node3 -->
<g id="edge2" class="edge"><title>Node2&#45;&gt;Node3</title>
<path fill="none" stroke="midnightblue" d="M268.105,-238C277.04,-238 286.028,-238 294.325,-238"/>
<polygon fill="midnightblue" stroke="midnightblue" points="268.078,-234.5 258.078,-238 268.078,-241.5 268.078,-234.5"/>
</g>
<!-- Node4 -->
<g id="node4" class="node"><title>Node4</title>
<g id="a_node4"><a xlink:href="../../d6/d4e/scores__rules_8qh.html#a70c01ecc880399b0cc5fa84520d93a05" target="_top" xlink:title="ScoreRules_basics_end">
<polygon fill="none" stroke="black" points="408,-228.5 408,-247.5 530,-247.5 530,-228.5 408,-228.5"/>
<text text-anchor="middle" x="469" y="-235.5" font-family="Helvetica,sans-Serif" font-size="10.00">ScoreRules_basics_end</text>
</a>
</g>
</g>
<!-- Node3&#45;&gt;Node4 -->
<g id="edge3" class="edge"><title>Node3&#45;&gt;Node4</title>
<path fill="none" stroke="midnightblue" d="M381.719,-238C390.161,-238 399.05,-238 407.784,-238"/>
<polygon fill="midnightblue" stroke="midnightblue" points="381.683,-234.5 371.683,-238 381.683,-241.5 381.683,-234.5"/>
</g>
<!-- Node5 -->
<g id="node5" class="node"><title>Node5</title>
<g id="a_node5"><a xlink:href="../../d0/de4/sv__onslaught_8qc.html#a14d65ec90152a736bb77ef787a7048ce" target="_top" xlink:title="ons_ScoreRules">
<polygon fill="none" stroke="black" points="583.5,-456.5 583.5,-475.5 672.5,-475.5 672.5,-456.5 583.5,-456.5"/>
<text text-anchor="middle" x="628" y="-463.5" font-family="Helvetica,sans-Serif" font-size="10.00">ons_ScoreRules</text>
</a>
</g>
</g>
<!-- Node4&#45;&gt;Node5 -->
<g id="edge4" class="edge"><title>Node4&#45;&gt;Node5</title>
<path fill="none" stroke="midnightblue" d="M473.424,-257.373C481.7,-298.461 506.661,-394.842 566,-447 570.999,-451.394 577.005,-454.772 583.272,-457.369"/>
<polygon fill="midnightblue" stroke="midnightblue" points="476.861,-256.713 471.554,-247.543 469.984,-258.02 476.861,-256.713"/>
</g>
<!-- Node9 -->
<g id="node9" class="node"><title>Node9</title>
<g id="a_node9"><a xlink:href="../../d8/d0f/gamemode__assault_8qh.html#af9ce8a13c37efdd85ac68f7b16bd7ac9" target="_top" xlink:title="assault_ScoreRules">
<polygon fill="none" stroke="black" points="576,-418.5 576,-437.5 680,-437.5 680,-418.5 576,-418.5"/>
<text text-anchor="middle" x="628" y="-425.5" font-family="Helvetica,sans-Serif" font-size="10.00">assault_ScoreRules</text>
</a>
</g>
</g>
<!-- Node4&#45;&gt;Node9 -->
<g id="edge8" class="edge"><title>Node4&#45;&gt;Node9</title>
<path fill="none" stroke="midnightblue" d="M475.611,-257.438C486.831,-292.861 515.403,-368.034 566,-409 570.828,-412.909 576.462,-416.016 582.319,-418.487"/>
<polygon fill="midnightblue" stroke="midnightblue" points="478.939,-256.352 472.681,-247.803 472.242,-258.389 478.939,-256.352"/>
</g>
<!-- Node11 -->
<g id="node11" class="node"><title>Node11</title>
<g id="a_node11"><a xlink:href="../../da/d45/gamemode__ca_8qh.html#abc82708949d45746dfb807463502eeac" target="_top" xlink:title="REGISTER_MUTATOR">
<polygon fill="none" stroke="black" points="566.5,-380.5 566.5,-399.5 689.5,-399.5 689.5,-380.5 566.5,-380.5"/>
<text text-anchor="middle" x="628" y="-387.5" font-family="Helvetica,sans-Serif" font-size="10.00">REGISTER_MUTATOR</text>
</a>
</g>
</g>
<!-- Node4&#45;&gt;Node11 -->
<g id="edge10" class="edge"><title>Node4&#45;&gt;Node11</title>
<path fill="none" stroke="midnightblue" d="M478.746,-257.051C492.963,-285.93 523.798,-340.631 566,-371 571.402,-374.887 577.623,-377.996 583.981,-380.478"/>
<polygon fill="midnightblue" stroke="midnightblue" points="481.736,-255.19 474.27,-247.672 475.419,-258.205 481.736,-255.19"/>
</g>
<!-- Node12 -->
<g id="node12" class="node"><title>Node12</title>
<g id="a_node12"><a xlink:href="../../d3/d73/gamemode__ctf_8qc.html#adf49379e9cbcc6fd5ea47bf9b77d78cf" target="_top" xlink:title="ctf_ScoreRules">
<polygon fill="none" stroke="black" points="586,-342.5 586,-361.5 670,-361.5 670,-342.5 586,-342.5"/>
<text text-anchor="middle" x="628" y="-349.5" font-family="Helvetica,sans-Serif" font-size="10.00">ctf_ScoreRules</text>
</a>
</g>
</g>
<!-- Node4&#45;&gt;Node12 -->
<g id="edge11" class="edge"><title>Node4&#45;&gt;Node12</title>
<path fill="none" stroke="midnightblue" d="M483.24,-255.491C500.202,-276.739 531.554,-312.302 566,-333 572.37,-336.828 579.584,-339.953 586.764,-342.482"/>
<polygon fill="midnightblue" stroke="midnightblue" points="485.992,-253.328 477.079,-247.6 480.475,-257.636 485.992,-253.328"/>
</g>
<!-- Node16 -->
<g id="node16" class="node"><title>Node16</title>
<g id="a_node16"><a xlink:href="../../d5/d69/gamemode__cts_8qc.html#a9b15c0c4fb2a70ddec86a6d47c026023" target="_top" xlink:title="cts_ScoreRules">
<polygon fill="none" stroke="black" points="585,-304.5 585,-323.5 671,-323.5 671,-304.5 585,-304.5"/>
<text text-anchor="middle" x="628" y="-311.5" font-family="Helvetica,sans-Serif" font-size="10.00">cts_ScoreRules</text>
</a>
</g>
</g>
<!-- Node4&#45;&gt;Node16 -->
<g id="edge15" class="edge"><title>Node4&#45;&gt;Node16</title>
<path fill="none" stroke="midnightblue" d="M492.263,-253.259C511.223,-265.747 539.522,-283.211 566,-295 574.005,-298.564 582.879,-301.738 591.322,-304.423"/>
<polygon fill="midnightblue" stroke="midnightblue" points="494.015,-250.22 483.755,-247.576 490.126,-256.041 494.015,-250.22"/>
</g>
<!-- Node19 -->
<g id="node19" class="node"><title>Node19</title>
<g id="a_node19"><a xlink:href="../../dc/d80/gamemode__domination_8qc.html#a6c0bc2c93d1ab55d4a6a4340f66e42b5" target="_top" xlink:title="ScoreRules_dom">
<polygon fill="none" stroke="black" points="582,-266.5 582,-285.5 674,-285.5 674,-266.5 582,-266.5"/>
<text text-anchor="middle" x="628" y="-273.5" font-family="Helvetica,sans-Serif" font-size="10.00">ScoreRules_dom</text>
</a>
</g>
</g>
<!-- Node4&#45;&gt;Node19 -->
<g id="edge18" class="edge"><title>Node4&#45;&gt;Node19</title>
<path fill="none" stroke="midnightblue" d="M519.447,-249.968C541.448,-255.293 566.994,-261.476 587.667,-266.48"/>
<polygon fill="midnightblue" stroke="midnightblue" points="520.16,-246.54 509.618,-247.589 518.514,-253.343 520.16,-246.54"/>
</g>
<!-- Node23 -->
<g id="node23" class="node"><title>Node23</title>
<g id="a_node23"><a xlink:href="../../db/d26/gamemode__freezetag_8qc.html#a81cb8cf59439fb9ea8fecac73e5b5cfe" target="_top" xlink:title="freezetag_ScoreRules">
<polygon fill="none" stroke="black" points="571.5,-228.5 571.5,-247.5 684.5,-247.5 684.5,-228.5 571.5,-228.5"/>
<text text-anchor="middle" x="628" y="-235.5" font-family="Helvetica,sans-Serif" font-size="10.00">freezetag_ScoreRules</text>
</a>
</g>
</g>
<!-- Node4&#45;&gt;Node23 -->
<g id="edge22" class="edge"><title>Node4&#45;&gt;Node23</title>
<path fill="none" stroke="midnightblue" d="M540.485,-238C550.807,-238 561.316,-238 571.289,-238"/>
<polygon fill="midnightblue" stroke="midnightblue" points="540.251,-234.5 530.251,-238 540.251,-241.5 540.251,-234.5"/>
</g>
<!-- Node26 -->
<g id="node26" class="node"><title>Node26</title>
<g id="a_node26"><a xlink:href="../../d5/d1f/gamemode__invasion_8qc.html#a87b629a39304c9f39c67e401071851d8" target="_top" xlink:title="invasion_ScoreRules">
<polygon fill="none" stroke="black" points="573.5,-190.5 573.5,-209.5 682.5,-209.5 682.5,-190.5 573.5,-190.5"/>
<text text-anchor="middle" x="628" y="-197.5" font-family="Helvetica,sans-Serif" font-size="10.00">invasion_ScoreRules</text>
</a>
</g>
</g>
<!-- Node4&#45;&gt;Node26 -->
<g id="edge25" class="edge"><title>Node4&#45;&gt;Node26</title>
<path fill="none" stroke="midnightblue" d="M519.447,-226.032C541.448,-220.707 566.994,-214.524 587.667,-209.52"/>
<polygon fill="midnightblue" stroke="midnightblue" points="518.514,-222.657 509.618,-228.411 520.16,-229.46 518.514,-222.657"/>
</g>
<!-- Node30 -->
<g id="node30" class="node"><title>Node30</title>
<g id="a_node30"><a xlink:href="../../d3/d5a/gamemode__keepaway_8qc.html#a300b4ce61aacb1ec436031cd9f1aeed4" target="_top" xlink:title="ka_ScoreRules">
<polygon fill="none" stroke="black" points="586.5,-152.5 586.5,-171.5 669.5,-171.5 669.5,-152.5 586.5,-152.5"/>
<text text-anchor="middle" x="628" y="-159.5" font-family="Helvetica,sans-Serif" font-size="10.00">ka_ScoreRules</text>
</a>
</g>
</g>
<!-- Node4&#45;&gt;Node30 -->
<g id="edge29" class="edge"><title>Node4&#45;&gt;Node30</title>
<path fill="none" stroke="midnightblue" d="M492.263,-222.741C511.223,-210.253 539.522,-192.789 566,-181 574.005,-177.436 582.879,-174.262 591.322,-171.577"/>
<polygon fill="midnightblue" stroke="midnightblue" points="490.126,-219.959 483.755,-228.424 494.015,-225.78 490.126,-219.959"/>
</g>
<!-- Node33 -->
<g id="node33" class="node"><title>Node33</title>
<g id="a_node33"><a xlink:href="../../de/d40/gamemode__keyhunt_8qc.html#a2d785f20712986ad16b564ca933f19e8" target="_top" xlink:title="kh_ScoreRules">
<polygon fill="none" stroke="black" points="586.5,-114.5 586.5,-133.5 669.5,-133.5 669.5,-114.5 586.5,-114.5"/>
<text text-anchor="middle" x="628" y="-121.5" font-family="Helvetica,sans-Serif" font-size="10.00">kh_ScoreRules</text>
</a>
</g>
</g>
<!-- Node4&#45;&gt;Node33 -->
<g id="edge32" class="edge"><title>Node4&#45;&gt;Node33</title>
<path fill="none" stroke="midnightblue" d="M483.24,-220.509C500.202,-199.261 531.554,-163.698 566,-143 572.37,-139.172 579.584,-136.047 586.764,-133.518"/>
<polygon fill="midnightblue" stroke="midnightblue" points="480.475,-218.364 477.079,-228.4 485.992,-222.672 480.475,-218.364"/>
</g>
<!-- Node36 -->
<g id="node36" class="node"><title>Node36</title>
<g id="a_node36"><a xlink:href="../../d7/db3/gamemode__lms_8qc.html#a19e3a98763746ecbc6d756d5675d955a" target="_top" xlink:title="lms_ScoreRules">
<polygon fill="none" stroke="black" points="583.5,-76.5 583.5,-95.5 672.5,-95.5 672.5,-76.5 583.5,-76.5"/>
<text text-anchor="middle" x="628" y="-83.5" font-family="Helvetica,sans-Serif" font-size="10.00">lms_ScoreRules</text>
</a>
</g>
</g>
<!-- Node4&#45;&gt;Node36 -->
<g id="edge35" class="edge"><title>Node4&#45;&gt;Node36</title>
<path fill="none" stroke="midnightblue" d="M478.746,-218.949C492.963,-190.07 523.798,-135.369 566,-105 571.402,-101.113 577.623,-98.0038 583.981,-95.5221"/>
<polygon fill="midnightblue" stroke="midnightblue" points="475.419,-217.795 474.27,-228.328 481.736,-220.81 475.419,-217.795"/>
</g>
<!-- Node39 -->
<g id="node39" class="node"><title>Node39</title>
<g id="a_node39"><a xlink:href="../../d5/dd7/gamemode__race_8qc.html#af9d563e6f225d1497dd79589f79e7183" target="_top" xlink:title="race_ScoreRules">
<polygon fill="none" stroke="black" points="582,-38.5 582,-57.5 674,-57.5 674,-38.5 582,-38.5"/>
<text text-anchor="middle" x="628" y="-45.5" font-family="Helvetica,sans-Serif" font-size="10.00">race_ScoreRules</text>
</a>
</g>
</g>
<!-- Node4&#45;&gt;Node39 -->
<g id="edge38" class="edge"><title>Node4&#45;&gt;Node39</title>
<path fill="none" stroke="midnightblue" d="M475.611,-218.562C486.831,-183.139 515.403,-107.966 566,-67 570.828,-63.0913 576.462,-59.9835 582.319,-57.5132"/>
<polygon fill="midnightblue" stroke="midnightblue" points="472.242,-217.611 472.681,-228.197 478.939,-219.648 472.242,-217.611"/>
</g>
<!-- Node42 -->
<g id="node42" class="node"><title>Node42</title>
<g id="a_node42"><a xlink:href="../../d6/d4e/scores__rules_8qh.html#a9b29c13c36dd33cc7f639cb97e8e6470" target="_top" xlink:title="ScoreRules_generic">
<polygon fill="none" stroke="black" points="576,-0.5 576,-19.5 680,-19.5 680,-0.5 576,-0.5"/>
<text text-anchor="middle" x="628" y="-7.5" font-family="Helvetica,sans-Serif" font-size="10.00">ScoreRules_generic</text>
</a>
</g>
</g>
<!-- Node4&#45;&gt;Node42 -->
<g id="edge41" class="edge"><title>Node4&#45;&gt;Node42</title>
<path fill="none" stroke="midnightblue" d="M473.424,-218.627C481.7,-177.539 506.661,-81.1583 566,-29 570.416,-25.1188 575.617,-22.0303 581.091,-19.5726"/>
<polygon fill="midnightblue" stroke="midnightblue" points="469.984,-217.98 471.554,-228.457 476.861,-219.287 469.984,-217.98"/>
</g>
<!-- Node6 -->
<g id="node6" class="node"><title>Node6</title>
<g id="a_node6"><a xlink:href="../../d0/de4/sv__onslaught_8qc.html#a60f84a81d6901268f0cc3a4138813956" target="_top" xlink:title="ons_DelayedInit">
<polygon fill="none" stroke="black" points="744.5,-456.5 744.5,-475.5 831.5,-475.5 831.5,-456.5 744.5,-456.5"/>
<text text-anchor="middle" x="788" y="-463.5" font-family="Helvetica,sans-Serif" font-size="10.00">ons_DelayedInit</text>
</a>
</g>
</g>
<!-- Node5&#45;&gt;Node6 -->
<g id="edge5" class="edge"><title>Node5&#45;&gt;Node6</title>
<path fill="none" stroke="midnightblue" d="M682.842,-466C702.925,-466 725.431,-466 744.369,-466"/>
<polygon fill="midnightblue" stroke="midnightblue" points="682.592,-462.5 672.592,-466 682.592,-469.5 682.592,-462.5"/>
</g>
<!-- Node7 -->
<g id="node7" class="node"><title>Node7</title>
<g id="a_node7"><a xlink:href="../../d7/dd0/sv__onslaught_8qh.html#a9d2ee66e4d6dc89a52f994e45d589222" target="_top" xlink:title="ons_Initialize">
<polygon fill="none" stroke="black" points="911,-456.5 911,-475.5 985,-475.5 985,-456.5 911,-456.5"/>
<text text-anchor="middle" x="948" y="-463.5" font-family="Helvetica,sans-Serif" font-size="10.00">ons_Initialize</text>
</a>
</g>
</g>
<!-- Node6&#45;&gt;Node7 -->
<g id="edge6" class="edge"><title>Node6&#45;&gt;Node7</title>
<path fill="none" stroke="midnightblue" d="M841.915,-466C864.586,-466 890.485,-466 910.899,-466"/>
<polygon fill="midnightblue" stroke="midnightblue" points="841.757,-462.5 831.757,-466 841.757,-469.5 841.757,-462.5"/>
</g>
<!-- Node8 -->
<g id="node8" class="node"><title>Node8</title>
<g id="a_node8"><a xlink:href="../../d7/dd0/sv__onslaught_8qh.html#a7cfc86894dfd752288cc5ca2c507e714" target="_top" xlink:title="REGISTER_MUTATOR">
<polygon fill="none" stroke="black" points="1046.5,-456.5 1046.5,-475.5 1169.5,-475.5 1169.5,-456.5 1046.5,-456.5"/>
<text text-anchor="middle" x="1108" y="-463.5" font-family="Helvetica,sans-Serif" font-size="10.00">REGISTER_MUTATOR</text>
</a>
</g>
</g>
<!-- Node7&#45;&gt;Node8 -->
<g id="edge7" class="edge"><title>Node7&#45;&gt;Node8</title>
<path fill="none" stroke="midnightblue" d="M995.403,-466C1011.38,-466 1029.52,-466 1046.46,-466"/>
<polygon fill="midnightblue" stroke="midnightblue" points="995.248,-462.5 985.248,-466 995.248,-469.5 995.248,-462.5"/>
</g>
<!-- Node10 -->
<g id="node10" class="node"><title>Node10</title>
<g id="a_node10"><a xlink:href="../../d8/d0f/gamemode__assault_8qh.html#a5753f4b0d3f0961028891e42b2d2f2ee" target="_top" xlink:title="REGISTER_MUTATOR">
<polygon fill="none" stroke="black" points="726.5,-418.5 726.5,-437.5 849.5,-437.5 849.5,-418.5 726.5,-418.5"/>
<text text-anchor="middle" x="788" y="-425.5" font-family="Helvetica,sans-Serif" font-size="10.00">REGISTER_MUTATOR</text>
</a>
</g>
</g>
<!-- Node9&#45;&gt;Node10 -->
<g id="edge9" class="edge"><title>Node9&#45;&gt;Node10</title>
<path fill="none" stroke="midnightblue" d="M690.478,-428C702.255,-428 714.578,-428 726.329,-428"/>
<polygon fill="midnightblue" stroke="midnightblue" points="690.298,-424.5 680.298,-428 690.298,-431.5 690.298,-424.5"/>
</g>
<!-- Node13 -->
<g id="node13" class="node"><title>Node13</title>
<g id="a_node13"><a xlink:href="../../d3/d73/gamemode__ctf_8qc.html#aec49e925d9226a199fdab11d49df8f5f" target="_top" xlink:title="ctf_DelayedInit">
<polygon fill="none" stroke="black" points="746.5,-342.5 746.5,-361.5 829.5,-361.5 829.5,-342.5 746.5,-342.5"/>
<text text-anchor="middle" x="788" y="-349.5" font-family="Helvetica,sans-Serif" font-size="10.00">ctf_DelayedInit</text>
</a>
</g>
</g>
<!-- Node12&#45;&gt;Node13 -->
<g id="edge12" class="edge"><title>Node12&#45;&gt;Node13</title>
<path fill="none" stroke="midnightblue" d="M680.329,-352C701.739,-352 726.254,-352 746.379,-352"/>
<polygon fill="midnightblue" stroke="midnightblue" points="680.1,-348.5 670.1,-352 680.1,-355.5 680.1,-348.5"/>
</g>
<!-- Node14 -->
<g id="node14" class="node"><title>Node14</title>
<g id="a_node14"><a xlink:href="../../d3/d73/gamemode__ctf_8qc.html#aab6870036ed34fe0117285be7ccc63d5" target="_top" xlink:title="ctf_Initialize">
<polygon fill="none" stroke="black" points="913.5,-342.5 913.5,-361.5 982.5,-361.5 982.5,-342.5 913.5,-342.5"/>
<text text-anchor="middle" x="948" y="-349.5" font-family="Helvetica,sans-Serif" font-size="10.00">ctf_Initialize</text>
</a>
</g>
</g>
<!-- Node13&#45;&gt;Node14 -->
<g id="edge13" class="edge"><title>Node13&#45;&gt;Node14</title>
<path fill="none" stroke="midnightblue" d="M839.737,-352C863.832,-352 891.969,-352 913.377,-352"/>
<polygon fill="midnightblue" stroke="midnightblue" points="839.689,-348.5 829.689,-352 839.689,-355.5 839.689,-348.5"/>
</g>
<!-- Node15 -->
<g id="node15" class="node"><title>Node15</title>
<g id="a_node15"><a xlink:href="../../d3/d73/gamemode__ctf_8qc.html#ad57a66696ffcccefbcb985fcaa04ad42" target="_top" xlink:title="REGISTER_MUTATOR">
<polygon fill="none" stroke="black" points="1046.5,-342.5 1046.5,-361.5 1169.5,-361.5 1169.5,-342.5 1046.5,-342.5"/>
<text text-anchor="middle" x="1108" y="-349.5" font-family="Helvetica,sans-Serif" font-size="10.00">REGISTER_MUTATOR</text>
</a>
</g>
</g>
<!-- Node14&#45;&gt;Node15 -->
<g id="edge14" class="edge"><title>Node14&#45;&gt;Node15</title>
<path fill="none" stroke="midnightblue" d="M992.97,-352C1009.52,-352 1028.63,-352 1046.43,-352"/>
<polygon fill="midnightblue" stroke="midnightblue" points="992.508,-348.5 982.508,-352 992.508,-355.5 992.508,-348.5"/>
</g>
<!-- Node17 -->
<g id="node17" class="node"><title>Node17</title>
<g id="a_node17"><a xlink:href="../../d9/d22/gamemode__cts_8qh.html#ac49eff46dad63fa11dfcf4c78bc0803e" target="_top" xlink:title="cts_Initialize">
<polygon fill="none" stroke="black" points="752.5,-304.5 752.5,-323.5 823.5,-323.5 823.5,-304.5 752.5,-304.5"/>
<text text-anchor="middle" x="788" y="-311.5" font-family="Helvetica,sans-Serif" font-size="10.00">cts_Initialize</text>
</a>
</g>
</g>
<!-- Node16&#45;&gt;Node17 -->
<g id="edge16" class="edge"><title>Node16&#45;&gt;Node17</title>
<path fill="none" stroke="midnightblue" d="M681.424,-314C704.722,-314 731.51,-314 752.273,-314"/>
<polygon fill="midnightblue" stroke="midnightblue" points="681.341,-310.5 671.341,-314 681.341,-317.5 681.341,-310.5"/>
</g>
<!-- Node18 -->
<g id="node18" class="node"><title>Node18</title>
<g id="a_node18"><a xlink:href="../../d9/d22/gamemode__cts_8qh.html#a59bc75362f22e48bd763858505a22d6d" target="_top" xlink:title="REGISTER_MUTATOR">
<polygon fill="none" stroke="black" points="886.5,-304.5 886.5,-323.5 1009.5,-323.5 1009.5,-304.5 886.5,-304.5"/>
<text text-anchor="middle" x="948" y="-311.5" font-family="Helvetica,sans-Serif" font-size="10.00">REGISTER_MUTATOR</text>
</a>
</g>
</g>
<!-- Node17&#45;&gt;Node18 -->
<g id="edge17" class="edge"><title>Node17&#45;&gt;Node18</title>
<path fill="none" stroke="midnightblue" d="M833.984,-314C850.253,-314 868.901,-314 886.296,-314"/>
<polygon fill="midnightblue" stroke="midnightblue" points="833.674,-310.5 823.674,-314 833.674,-317.5 833.674,-310.5"/>
</g>
<!-- Node20 -->
<g id="node20" class="node"><title>Node20</title>
<g id="a_node20"><a xlink:href="../../dc/d80/gamemode__domination_8qc.html#a0fdb17e4b1e3d53180305c2e6e355276" target="_top" xlink:title="dom_DelayedInit">
<polygon fill="none" stroke="black" points="743,-266.5 743,-285.5 833,-285.5 833,-266.5 743,-266.5"/>
<text text-anchor="middle" x="788" y="-273.5" font-family="Helvetica,sans-Serif" font-size="10.00">dom_DelayedInit</text>
</a>
</g>
</g>
<!-- Node19&#45;&gt;Node20 -->
<g id="edge19" class="edge"><title>Node19&#45;&gt;Node20</title>
<path fill="none" stroke="midnightblue" d="M684.369,-276C703.508,-276 724.685,-276 742.808,-276"/>
<polygon fill="midnightblue" stroke="midnightblue" points="684.276,-272.5 674.276,-276 684.276,-279.5 684.276,-272.5"/>
</g>
<!-- Node21 -->
<g id="node21" class="node"><title>Node21</title>
<g id="a_node21"><a xlink:href="../../d2/dbb/gamemode__domination_8qh.html#a8cec3b44ab39bf059c106e3d145e5091" target="_top" xlink:title="dom_Initialize">
<polygon fill="none" stroke="black" points="909.5,-266.5 909.5,-285.5 986.5,-285.5 986.5,-266.5 909.5,-266.5"/>
<text text-anchor="middle" x="948" y="-273.5" font-family="Helvetica,sans-Serif" font-size="10.00">dom_Initialize</text>
</a>
</g>
</g>
<!-- Node20&#45;&gt;Node21 -->
<g id="edge20" class="edge"><title>Node20&#45;&gt;Node21</title>
<path fill="none" stroke="midnightblue" d="M843.134,-276C864.95,-276 889.582,-276 909.382,-276"/>
<polygon fill="midnightblue" stroke="midnightblue" points="843.012,-272.5 833.012,-276 843.012,-279.5 843.012,-272.5"/>
</g>
<!-- Node22 -->
<g id="node22" class="node"><title>Node22</title>
<g id="a_node22"><a xlink:href="../../d2/dbb/gamemode__domination_8qh.html#a9f495b32344f6e3748615e42afa49971" target="_top" xlink:title="REGISTER_MUTATOR">
<polygon fill="none" stroke="black" points="1046.5,-266.5 1046.5,-285.5 1169.5,-285.5 1169.5,-266.5 1046.5,-266.5"/>
<text text-anchor="middle" x="1108" y="-273.5" font-family="Helvetica,sans-Serif" font-size="10.00">REGISTER_MUTATOR</text>
</a>
</g>
</g>
<!-- Node21&#45;&gt;Node22 -->
<g id="edge21" class="edge"><title>Node21&#45;&gt;Node22</title>
<path fill="none" stroke="midnightblue" d="M997.23,-276C1012.72,-276 1030.07,-276 1046.33,-276"/>
<polygon fill="midnightblue" stroke="midnightblue" points="996.845,-272.5 986.845,-276 996.845,-279.5 996.845,-272.5"/>
</g>
<!-- Node24 -->
<g id="node24" class="node"><title>Node24</title>
<g id="a_node24"><a xlink:href="../../d8/d89/gamemode__freezetag_8qh.html#a93dbe70f6f5e8c7e42c436e77d0d3348" target="_top" xlink:title="freezetag_Initialize">
<polygon fill="none" stroke="black" points="739,-228.5 739,-247.5 837,-247.5 837,-228.5 739,-228.5"/>
<text text-anchor="middle" x="788" y="-235.5" font-family="Helvetica,sans-Serif" font-size="10.00">freezetag_Initialize</text>
</a>
</g>
</g>
<!-- Node23&#45;&gt;Node24 -->
<g id="edge23" class="edge"><title>Node23&#45;&gt;Node24</title>
<path fill="none" stroke="midnightblue" d="M694.804,-238C709.576,-238 724.981,-238 738.875,-238"/>
<polygon fill="midnightblue" stroke="midnightblue" points="694.705,-234.5 684.705,-238 694.705,-241.5 694.705,-234.5"/>
</g>
<!-- Node25 -->
<g id="node25" class="node"><title>Node25</title>
<g id="a_node25"><a xlink:href="../../d8/d89/gamemode__freezetag_8qh.html#a135a5720e453dd7582a0e9b98e739cb9" target="_top" xlink:title="REGISTER_MUTATOR">
<polygon fill="none" stroke="black" points="886.5,-228.5 886.5,-247.5 1009.5,-247.5 1009.5,-228.5 886.5,-228.5"/>
<text text-anchor="middle" x="948" y="-235.5" font-family="Helvetica,sans-Serif" font-size="10.00">REGISTER_MUTATOR</text>
</a>
</g>
</g>
<!-- Node24&#45;&gt;Node25 -->
<g id="edge24" class="edge"><title>Node24&#45;&gt;Node25</title>
<path fill="none" stroke="midnightblue" d="M847.306,-238C860.071,-238 873.611,-238 886.46,-238"/>
<polygon fill="midnightblue" stroke="midnightblue" points="847.264,-234.5 837.264,-238 847.264,-241.5 847.264,-234.5"/>
</g>
<!-- Node27 -->
<g id="node27" class="node"><title>Node27</title>
<g id="a_node27"><a xlink:href="../../d5/d1f/gamemode__invasion_8qc.html#a236fd86093117aeb98743e15f440f9d3" target="_top" xlink:title="invasion_DelayedInit">
<polygon fill="none" stroke="black" points="734.5,-190.5 734.5,-209.5 841.5,-209.5 841.5,-190.5 734.5,-190.5"/>
<text text-anchor="middle" x="788" y="-197.5" font-family="Helvetica,sans-Serif" font-size="10.00">invasion_DelayedInit</text>
</a>
</g>
</g>
<!-- Node26&#45;&gt;Node27 -->
<g id="edge26" class="edge"><title>Node26&#45;&gt;Node27</title>
<path fill="none" stroke="midnightblue" d="M693.241,-200C706.915,-200 721.201,-200 734.38,-200"/>
<polygon fill="midnightblue" stroke="midnightblue" points="692.933,-196.5 682.933,-200 692.933,-203.5 692.933,-196.5"/>
</g>
<!-- Node28 -->
<g id="node28" class="node"><title>Node28</title>
<g id="a_node28"><a xlink:href="../../da/dd2/gamemode__invasion_8qh.html#a25529cc1c6aba9e850432cf8d26a5e93" target="_top" xlink:title="invasion_Initialize">
<polygon fill="none" stroke="black" points="901,-190.5 901,-209.5 995,-209.5 995,-190.5 901,-190.5"/>
<text text-anchor="middle" x="948" y="-197.5" font-family="Helvetica,sans-Serif" font-size="10.00">invasion_Initialize</text>
</a>
</g>
</g>
<!-- Node27&#45;&gt;Node28 -->
<g id="edge27" class="edge"><title>Node27&#45;&gt;Node28</title>
<path fill="none" stroke="midnightblue" d="M851.699,-200C868.147,-200 885.581,-200 900.978,-200"/>
<polygon fill="midnightblue" stroke="midnightblue" points="851.612,-196.5 841.612,-200 851.612,-203.5 851.612,-196.5"/>
</g>
<!-- Node29 -->
<g id="node29" class="node"><title>Node29</title>
<g id="a_node29"><a xlink:href="../../da/dd2/gamemode__invasion_8qh.html#a6879a53e956f0f1fd079b3015609a852" target="_top" xlink:title="REGISTER_MUTATOR">
<polygon fill="none" stroke="black" points="1046.5,-190.5 1046.5,-209.5 1169.5,-209.5 1169.5,-190.5 1046.5,-190.5"/>
<text text-anchor="middle" x="1108" y="-197.5" font-family="Helvetica,sans-Serif" font-size="10.00">REGISTER_MUTATOR</text>
</a>
</g>
</g>
<!-- Node28&#45;&gt;Node29 -->
<g id="edge28" class="edge"><title>Node28&#45;&gt;Node29</title>
<path fill="none" stroke="midnightblue" d="M1005.14,-200C1018.51,-200 1032.84,-200 1046.41,-200"/>
<polygon fill="midnightblue" stroke="midnightblue" points="1005.12,-196.5 995.125,-200 1005.12,-203.5 1005.12,-196.5"/>
</g>
<!-- Node31 -->
<g id="node31" class="node"><title>Node31</title>
<g id="a_node31"><a xlink:href="../../d1/d04/gamemode__keepaway_8qh.html#ad066a4c24559d830eee8b0e63c5e5d0e" target="_top" xlink:title="ka_Initialize">
<polygon fill="none" stroke="black" points="754,-152.5 754,-171.5 822,-171.5 822,-152.5 754,-152.5"/>
<text text-anchor="middle" x="788" y="-159.5" font-family="Helvetica,sans-Serif" font-size="10.00">ka_Initialize</text>
</a>
</g>
</g>
<!-- Node30&#45;&gt;Node31 -->
<g id="edge30" class="edge"><title>Node30&#45;&gt;Node31</title>
<path fill="none" stroke="midnightblue" d="M679.81,-162C704.083,-162 732.443,-162 753.893,-162"/>
<polygon fill="midnightblue" stroke="midnightblue" points="679.689,-158.5 669.689,-162 679.689,-165.5 679.689,-158.5"/>
</g>
<!-- Node32 -->
<g id="node32" class="node"><title>Node32</title>
<g id="a_node32"><a xlink:href="../../d1/d04/gamemode__keepaway_8qh.html#a5b9c6f34b2b2004f1dd81df0ecf52a38" target="_top" xlink:title="REGISTER_MUTATOR">
<polygon fill="none" stroke="black" points="886.5,-152.5 886.5,-171.5 1009.5,-171.5 1009.5,-152.5 886.5,-152.5"/>
<text text-anchor="middle" x="948" y="-159.5" font-family="Helvetica,sans-Serif" font-size="10.00">REGISTER_MUTATOR</text>
</a>
</g>
</g>
<!-- Node31&#45;&gt;Node32 -->
<g id="edge31" class="edge"><title>Node31&#45;&gt;Node32</title>
<path fill="none" stroke="midnightblue" d="M832.159,-162C848.904,-162 868.376,-162 886.476,-162"/>
<polygon fill="midnightblue" stroke="midnightblue" points="832.122,-158.5 822.122,-162 832.122,-165.5 832.122,-158.5"/>
</g>
<!-- Node34 -->
<g id="node34" class="node"><title>Node34</title>
<g id="a_node34"><a xlink:href="../../d8/de1/gamemode__keyhunt_8qh.html#ac072ac85d73eb7dc83d6faeca9757648" target="_top" xlink:title="kh_Initialize">
<polygon fill="none" stroke="black" points="754,-114.5 754,-133.5 822,-133.5 822,-114.5 754,-114.5"/>
<text text-anchor="middle" x="788" y="-121.5" font-family="Helvetica,sans-Serif" font-size="10.00">kh_Initialize</text>
</a>
</g>
</g>
<!-- Node33&#45;&gt;Node34 -->
<g id="edge33" class="edge"><title>Node33&#45;&gt;Node34</title>
<path fill="none" stroke="midnightblue" d="M679.81,-124C704.083,-124 732.443,-124 753.893,-124"/>
<polygon fill="midnightblue" stroke="midnightblue" points="679.689,-120.5 669.689,-124 679.689,-127.5 679.689,-120.5"/>
</g>
<!-- Node35 -->
<g id="node35" class="node"><title>Node35</title>
<g id="a_node35"><a xlink:href="../../d8/de1/gamemode__keyhunt_8qh.html#a9c7fe8777db5311111214e415999eb42" target="_top" xlink:title="REGISTER_MUTATOR">
<polygon fill="none" stroke="black" points="886.5,-114.5 886.5,-133.5 1009.5,-133.5 1009.5,-114.5 886.5,-114.5"/>
<text text-anchor="middle" x="948" y="-121.5" font-family="Helvetica,sans-Serif" font-size="10.00">REGISTER_MUTATOR</text>
</a>
</g>
</g>
<!-- Node34&#45;&gt;Node35 -->
<g id="edge34" class="edge"><title>Node34&#45;&gt;Node35</title>
<path fill="none" stroke="midnightblue" d="M832.159,-124C848.904,-124 868.376,-124 886.476,-124"/>
<polygon fill="midnightblue" stroke="midnightblue" points="832.122,-120.5 822.122,-124 832.122,-127.5 832.122,-120.5"/>
</g>
<!-- Node37 -->
<g id="node37" class="node"><title>Node37</title>
<g id="a_node37"><a xlink:href="../../d8/d2c/gamemode__lms_8qh.html#aa7327441f669f21b871d3cd035f9c4e4" target="_top" xlink:title="lms_Initialize">
<polygon fill="none" stroke="black" points="751,-76.5 751,-95.5 825,-95.5 825,-76.5 751,-76.5"/>
<text text-anchor="middle" x="788" y="-83.5" font-family="Helvetica,sans-Serif" font-size="10.00">lms_Initialize</text>
</a>
</g>
</g>
<!-- Node36&#45;&gt;Node37 -->
<g id="edge36" class="edge"><title>Node36&#45;&gt;Node37</title>
<path fill="none" stroke="midnightblue" d="M682.657,-86C705.096,-86 730.585,-86 750.754,-86"/>
<polygon fill="midnightblue" stroke="midnightblue" points="682.592,-82.5001 672.592,-86 682.592,-89.5001 682.592,-82.5001"/>
</g>
<!-- Node38 -->
<g id="node38" class="node"><title>Node38</title>
<g id="a_node38"><a xlink:href="../../d8/d2c/gamemode__lms_8qh.html#afed8449b5528e6053255d5591013eb6a" target="_top" xlink:title="REGISTER_MUTATOR">
<polygon fill="none" stroke="black" points="886.5,-76.5 886.5,-95.5 1009.5,-95.5 1009.5,-76.5 886.5,-76.5"/>
<text text-anchor="middle" x="948" y="-83.5" font-family="Helvetica,sans-Serif" font-size="10.00">REGISTER_MUTATOR</text>
</a>
</g>
</g>
<!-- Node37&#45;&gt;Node38 -->
<g id="edge37" class="edge"><title>Node37&#45;&gt;Node38</title>
<path fill="none" stroke="midnightblue" d="M835.403,-86C851.382,-86 869.518,-86 886.456,-86"/>
<polygon fill="midnightblue" stroke="midnightblue" points="835.248,-82.5001 825.248,-86 835.248,-89.5001 835.248,-82.5001"/>
</g>
<!-- Node40 -->
<g id="node40" class="node"><title>Node40</title>
<g id="a_node40"><a xlink:href="../../d7/ddc/gamemode__race_8qh.html#a1576aa6e1aed39bc358c4657222eb3f7" target="_top" xlink:title="race_Initialize">
<polygon fill="none" stroke="black" points="749.5,-38.5 749.5,-57.5 826.5,-57.5 826.5,-38.5 749.5,-38.5"/>
<text text-anchor="middle" x="788" y="-45.5" font-family="Helvetica,sans-Serif" font-size="10.00">race_Initialize</text>
</a>
</g>
</g>
<!-- Node39&#45;&gt;Node40 -->
<g id="edge39" class="edge"><title>Node39&#45;&gt;Node40</title>
<path fill="none" stroke="midnightblue" d="M684.291,-48C705.842,-48 729.987,-48 749.449,-48"/>
<polygon fill="midnightblue" stroke="midnightblue" points="684.276,-44.5001 674.276,-48 684.276,-51.5001 684.276,-44.5001"/>
</g>
<!-- Node41 -->
<g id="node41" class="node"><title>Node41</title>
<g id="a_node41"><a xlink:href="../../d7/ddc/gamemode__race_8qh.html#a5edf7aacc2c70ddbf9189864268228e5" target="_top" xlink:title="REGISTER_MUTATOR">
<polygon fill="none" stroke="black" points="886.5,-38.5 886.5,-57.5 1009.5,-57.5 1009.5,-38.5 886.5,-38.5"/>
<text text-anchor="middle" x="948" y="-45.5" font-family="Helvetica,sans-Serif" font-size="10.00">REGISTER_MUTATOR</text>
</a>
</g>
</g>
<!-- Node40&#45;&gt;Node41 -->
<g id="edge40" class="edge"><title>Node40&#45;&gt;Node41</title>
<path fill="none" stroke="midnightblue" d="M837.23,-48C852.716,-48 870.07,-48 886.329,-48"/>
<polygon fill="midnightblue" stroke="midnightblue" points="836.845,-44.5001 826.845,-48 836.845,-51.5001 836.845,-44.5001"/>
</g>
<!-- Node43 -->
<g id="node43" class="node"><title>Node43</title>
<g id="a_node43"><a xlink:href="../../d2/d76/teamplay_8qh.html#a5f4692aa7896daea45fe2a5b380ca559" target="_top" xlink:title="default_delayedinit">
<polygon fill="none" stroke="black" points="739,-0.5 739,-19.5 837,-19.5 837,-0.5 739,-0.5"/>
<text text-anchor="middle" x="788" y="-7.5" font-family="Helvetica,sans-Serif" font-size="10.00">default_delayedinit</text>
</a>
</g>
</g>
<!-- Node42&#45;&gt;Node43 -->
<g id="edge42" class="edge"><title>Node42&#45;&gt;Node43</title>
<path fill="none" stroke="midnightblue" d="M690.653,-10C706.676,-10 723.699,-10 738.908,-10"/>
<polygon fill="midnightblue" stroke="midnightblue" points="690.298,-6.5001 680.298,-10 690.298,-13.5001 690.298,-6.5001"/>
</g>
<!-- Node44 -->
<g id="node44" class="node"><title>Node44</title>
<g id="a_node44"><a xlink:href="../../d2/d76/teamplay_8qh.html#a25599ad73603f2e4e2b78726400732c8" target="_top" xlink:title="InitGameplayMode">
<polygon fill="none" stroke="black" points="899,-0.5 899,-19.5 997,-19.5 997,-0.5 899,-0.5"/>
<text text-anchor="middle" x="948" y="-7.5" font-family="Helvetica,sans-Serif" font-size="10.00">InitGameplayMode</text>
</a>
</g>
</g>
<!-- Node43&#45;&gt;Node44 -->
<g id="edge43" class="edge"><title>Node43&#45;&gt;Node44</title>
<path fill="none" stroke="midnightblue" d="M847.557,-10C864.414,-10 882.604,-10 898.76,-10"/>
<polygon fill="midnightblue" stroke="midnightblue" points="847.264,-6.5001 837.264,-10 847.264,-13.5001 847.264,-6.5001"/>
</g>
<!-- Node45 -->
<g id="node45" class="node"><title>Node45</title>
<g id="a_node45"><a xlink:href="../../db/dcc/g__world_8qc.html#aac7f083651dfcb99dbbd8afc5e339233" target="_top" xlink:title="spawnfunc">
<polygon fill="none" stroke="black" points="1076,-0.5 1076,-19.5 1140,-19.5 1140,-0.5 1076,-0.5"/>
<text text-anchor="middle" x="1108" y="-7.5" font-family="Helvetica,sans-Serif" font-size="10.00">spawnfunc</text>
</a>
</g>
</g>
<!-- Node44&#45;&gt;Node45 -->
<g id="edge44" class="edge"><title>Node44&#45;&gt;Node45</title>
<path fill="none" stroke="midnightblue" d="M1007.39,-10C1030.63,-10 1056.43,-10 1075.96,-10"/>
<polygon fill="midnightblue" stroke="midnightblue" points="1007.26,-6.5001 997.264,-10 1007.26,-13.5001 1007.26,-6.5001"/>
</g>
</g>
</svg>
