<?xml version="1.0" encoding="UTF-8" standalone="no"?>
<!DOCTYPE svg PUBLIC "-//W3C//DTD SVG 1.1//EN"
 "http://www.w3.org/Graphics/SVG/1.1/DTD/svg11.dtd">
<!-- Generated by graphviz version 2.38.0 (20140413.2041)
 -->
<!-- Title: sys_phys_simulate_simple Pages: 1 -->
<svg width="267pt" height="218pt"
 viewBox="0.00 0.00 267.00 218.00" xmlns="http://www.w3.org/2000/svg" xmlns:xlink="http://www.w3.org/1999/xlink">
<g id="graph0" class="graph" transform="scale(1 1) rotate(0) translate(4 214)">
<title>sys_phys_simulate_simple</title>
<!-- Node1 -->
<g id="node1" class="node"><title>Node1</title>
<polygon fill="#bfbfbf" stroke="black" points="0,-95.5 0,-114.5 143,-114.5 143,-95.5 0,-95.5"/>
<text text-anchor="middle" x="71.5" y="-102.5" font-family="Helvetica,sans-Serif" font-size="10.00">sys_phys_simulate_simple</text>
</g>
<!-- Node2 -->
<g id="node2" class="node"><title>Node2</title>
<g id="a_node2"><a xlink:href="../../de/dcb/vector_8qh.html#a9d1cd3b60eb67f1ec2a17fc2022e4276" target="_top" xlink:title="requires that m2&gt;m1 in all coordinates, and that m4&gt;m3 ">
<polygon fill="none" stroke="black" points="179,-190.5 179,-209.5 259,-209.5 259,-190.5 179,-190.5"/>
<text text-anchor="middle" x="219" y="-197.5" font-family="Helvetica,sans-Serif" font-size="10.00">boxesoverlap</text>
</a>
</g>
</g>
<!-- Node1&#45;&gt;Node2 -->
<g id="edge1" class="edge"><title>Node1&#45;&gt;Node2</title>
<path fill="none" stroke="midnightblue" d="M84.5099,-114.583C103.776,-129.72 143.079,-159.635 179,-181 181.696,-182.604 184.548,-184.189 187.433,-185.718"/>
<polygon fill="midnightblue" stroke="midnightblue" points="186.11,-188.972 196.611,-190.372 189.275,-182.728 186.11,-188.972"/>
</g>
<!-- Node3 -->
<g id="node3" class="node"><title>Node3</title>
<g id="a_node3"><a xlink:href="../../d4/d0c/csprogsdefs_8qc.html#acbb54a239d76062465dccbc6a6c6e464" target="_top" xlink:title="entity">
<polygon fill="none" stroke="black" points="197,-152.5 197,-171.5 241,-171.5 241,-152.5 197,-152.5"/>
<text text-anchor="middle" x="219" y="-159.5" font-family="Helvetica,sans-Serif" font-size="10.00">entity</text>
</a>
</g>
</g>
<!-- Node1&#45;&gt;Node3 -->
<g id="edge2" class="edge"><title>Node1&#45;&gt;Node3</title>
<path fill="none" stroke="midnightblue" d="M96.8534,-114.541C121.783,-124.307 160.589,-139.509 187.537,-150.066"/>
<polygon fill="midnightblue" stroke="midnightblue" points="186.293,-153.338 196.881,-153.726 188.846,-146.82 186.293,-153.338"/>
</g>
<!-- Node4 -->
<g id="node4" class="node"><title>Node4</title>
<g id="a_node4"><a xlink:href="../../d8/de2/menudefs_8qc.html#ab2ad6bdb33b4334fec83db0418cf72df" target="_top" xlink:title="min">
<polygon fill="none" stroke="black" points="201.5,-114.5 201.5,-133.5 236.5,-133.5 236.5,-114.5 201.5,-114.5"/>
<text text-anchor="middle" x="219" y="-121.5" font-family="Helvetica,sans-Serif" font-size="10.00">min</text>
</a>
</g>
</g>
<!-- Node1&#45;&gt;Node4 -->
<g id="edge3" class="edge"><title>Node1&#45;&gt;Node4</title>
<path fill="none" stroke="midnightblue" d="M143.119,-114.222C160.259,-116.46 177.556,-118.719 191.202,-120.501"/>
<polygon fill="midnightblue" stroke="midnightblue" points="190.92,-123.993 201.289,-121.818 191.827,-117.052 190.92,-123.993"/>
</g>
<!-- Node5 -->
<g id="node5" class="node"><title>Node5</title>
<g id="a_node5"><a xlink:href="../../d5/dff/ent__cs_8qc.html#ac459a724c1fe031c6658fff554b12ea8" target="_top" xlink:title="setorigin">
<polygon fill="none" stroke="black" points="190,-76.5 190,-95.5 248,-95.5 248,-76.5 190,-76.5"/>
<text text-anchor="middle" x="219" y="-83.5" font-family="Helvetica,sans-Serif" font-size="10.00">setorigin</text>
</a>
</g>
</g>
<!-- Node1&#45;&gt;Node5 -->
<g id="edge4" class="edge"><title>Node1&#45;&gt;Node5</title>
<path fill="none" stroke="midnightblue" d="M143.119,-95.7783C155.629,-94.1446 168.223,-92.5 179.42,-91.0379"/>
<polygon fill="midnightblue" stroke="midnightblue" points="180.217,-94.4637 189.679,-89.6983 179.31,-87.5227 180.217,-94.4637"/>
</g>
<!-- Node6 -->
<g id="node6" class="node"><title>Node6</title>
<g id="a_node6"><a xlink:href="../../da/dde/csprogsdefs_8qh.html#a2626679e4144af8478202c6c28f90cd9" target="_top" xlink:title="vector">
<polygon fill="none" stroke="black" points="195.5,-38.5 195.5,-57.5 242.5,-57.5 242.5,-38.5 195.5,-38.5"/>
<text text-anchor="middle" x="219" y="-45.5" font-family="Helvetica,sans-Serif" font-size="10.00">vector</text>
</a>
</g>
</g>
<!-- Node1&#45;&gt;Node6 -->
<g id="edge5" class="edge"><title>Node1&#45;&gt;Node6</title>
<path fill="none" stroke="midnightblue" d="M96.8534,-95.4595C121.351,-85.8626 159.247,-71.0167 186.124,-60.4874"/>
<polygon fill="midnightblue" stroke="midnightblue" points="187.448,-63.7278 195.483,-56.8213 184.895,-57.2101 187.448,-63.7278"/>
</g>
<!-- Node7 -->
<g id="node7" class="node"><title>Node7</title>
<g id="a_node7"><a xlink:href="../../d8/de2/menudefs_8qc.html#a79d61ab0e4126e02af8bc36d432aedaf" target="_top" xlink:title="vlen">
<polygon fill="none" stroke="black" points="201,-0.5 201,-19.5 237,-19.5 237,-0.5 201,-0.5"/>
<text text-anchor="middle" x="219" y="-7.5" font-family="Helvetica,sans-Serif" font-size="10.00">vlen</text>
</a>
</g>
</g>
<!-- Node1&#45;&gt;Node7 -->
<g id="edge6" class="edge"><title>Node1&#45;&gt;Node7</title>
<path fill="none" stroke="midnightblue" d="M84.5099,-95.4165C103.776,-80.2797 143.079,-50.3653 179,-29 183.042,-26.5961 187.432,-24.2346 191.76,-22.0378"/>
<polygon fill="midnightblue" stroke="midnightblue" points="193.525,-25.0709 200.977,-17.5392 190.455,-18.7802 193.525,-25.0709"/>
</g>
</g>
</svg>
