<?xml version="1.0" encoding="UTF-8" standalone="no"?>
<!DOCTYPE svg PUBLIC "-//W3C//DTD SVG 1.1//EN"
 "http://www.w3.org/Graphics/SVG/1.1/DTD/svg11.dtd">
<!-- Generated by graphviz version 2.38.0 (20140413.2041)
 -->
<!-- Title: XonoticGametypeList_saveCvars Pages: 1 -->
<svg width="402pt" height="142pt"
 viewBox="0.00 0.00 402.00 142.00" xmlns="http://www.w3.org/2000/svg" xmlns:xlink="http://www.w3.org/1999/xlink">
<g id="graph0" class="graph" transform="scale(1 1) rotate(0) translate(4 138)">
<title>XonoticGametypeList_saveCvars</title>
<!-- Node1 -->
<g id="node1" class="node"><title>Node1</title>
<polygon fill="#bfbfbf" stroke="black" points="0,-52 0,-82 119,-82 119,-52 0,-52"/>
<text text-anchor="start" x="8" y="-70" font-family="Helvetica,sans-Serif" font-size="10.00">XonoticGametypeList</text>
<text text-anchor="middle" x="59.5" y="-59" font-family="Helvetica,sans-Serif" font-size="10.00">_saveCvars</text>
</g>
<!-- Node2 -->
<g id="node2" class="node"><title>Node2</title>
<g id="a_node2"><a xlink:href="../../d4/d0c/csprogsdefs_8qc.html#acbb54a239d76062465dccbc6a6c6e464" target="_top" xlink:title="entity">
<polygon fill="none" stroke="black" points="206,-114.5 206,-133.5 250,-133.5 250,-114.5 206,-114.5"/>
<text text-anchor="middle" x="228" y="-121.5" font-family="Helvetica,sans-Serif" font-size="10.00">entity</text>
</a>
</g>
</g>
<!-- Node1&#45;&gt;Node2 -->
<g id="edge1" class="edge"><title>Node1&#45;&gt;Node2</title>
<path fill="none" stroke="midnightblue" d="M95.1207,-82.1245C112.836,-89.5546 134.859,-98.3216 155,-105 168.265,-109.398 183.166,-113.47 195.955,-116.707"/>
<polygon fill="midnightblue" stroke="midnightblue" points="195.14,-120.111 205.688,-119.114 196.821,-113.315 195.14,-120.111"/>
</g>
<!-- Node3 -->
<g id="node3" class="node"><title>Node3</title>
<g id="a_node3"><a xlink:href="../../df/d9b/menu_2xonotic_2util_8qc.html#a0146272636324af38d85f06953d0ab19" target="_top" xlink:title="GameType_GetID">
<polygon fill="none" stroke="black" points="178.5,-76.5 178.5,-95.5 277.5,-95.5 277.5,-76.5 178.5,-76.5"/>
<text text-anchor="middle" x="228" y="-83.5" font-family="Helvetica,sans-Serif" font-size="10.00">GameType_GetID</text>
</a>
</g>
</g>
<!-- Node1&#45;&gt;Node3 -->
<g id="edge2" class="edge"><title>Node1&#45;&gt;Node3</title>
<path fill="none" stroke="midnightblue" d="M119.202,-73.6987C135.1,-75.5129 152.31,-77.4768 168.212,-79.2915"/>
<polygon fill="midnightblue" stroke="midnightblue" points="168.115,-82.803 178.447,-80.4594 168.908,-75.8481 168.115,-82.803"/>
</g>
<!-- Node4 -->
<g id="node4" class="node"><title>Node4</title>
<g id="a_node4"><a xlink:href="../../d3/d46/mapinfo_8qc.html#a799a2e72317c8785c4b259a1c568548e" target="_top" xlink:title="MapInfo_CurrentGametype">
<polygon fill="none" stroke="black" points="155,-38.5 155,-57.5 301,-57.5 301,-38.5 155,-38.5"/>
<text text-anchor="middle" x="228" y="-45.5" font-family="Helvetica,sans-Serif" font-size="10.00">MapInfo_CurrentGametype</text>
</a>
</g>
</g>
<!-- Node1&#45;&gt;Node4 -->
<g id="edge3" class="edge"><title>Node1&#45;&gt;Node4</title>
<path fill="none" stroke="midnightblue" d="M119.202,-60.3013C127.479,-59.3568 136.111,-58.3717 144.73,-57.3882"/>
<polygon fill="midnightblue" stroke="midnightblue" points="145.28,-60.8482 154.819,-56.2369 144.487,-53.8933 145.28,-60.8482"/>
</g>
<!-- Node6 -->
<g id="node6" class="node"><title>Node6</title>
<g id="a_node6"><a xlink:href="../../d3/d46/mapinfo_8qc.html#ac43d7df975709e1184a5873609338a81" target="_top" xlink:title="MapInfo_SwitchGameType">
<polygon fill="none" stroke="black" points="158,-0.5 158,-19.5 298,-19.5 298,-0.5 158,-0.5"/>
<text text-anchor="middle" x="228" y="-7.5" font-family="Helvetica,sans-Serif" font-size="10.00">MapInfo_SwitchGameType</text>
</a>
</g>
</g>
<!-- Node1&#45;&gt;Node6 -->
<g id="edge5" class="edge"><title>Node1&#45;&gt;Node6</title>
<path fill="none" stroke="midnightblue" d="M95.1207,-51.8755C112.836,-44.4454 134.859,-35.6784 155,-29 162.167,-26.6236 169.811,-24.3425 177.342,-22.237"/>
<polygon fill="midnightblue" stroke="midnightblue" points="178.396,-25.5777 187.128,-19.577 176.56,-18.8229 178.396,-25.5777"/>
</g>
<!-- Node5 -->
<g id="node5" class="node"><title>Node5</title>
<g id="a_node5"><a xlink:href="../../d8/de2/menudefs_8qc.html#a47b9823939aa0a157d1bede7847cb488" target="_top" xlink:title="cvar">
<polygon fill="none" stroke="black" points="347,-38.5 347,-57.5 384,-57.5 384,-38.5 347,-38.5"/>
<text text-anchor="middle" x="365.5" y="-45.5" font-family="Helvetica,sans-Serif" font-size="10.00">cvar</text>
</a>
</g>
</g>
<!-- Node4&#45;&gt;Node5 -->
<g id="edge4" class="edge"><title>Node4&#45;&gt;Node5</title>
<path fill="none" stroke="midnightblue" d="M301.114,-48C313.779,-48 326.24,-48 336.717,-48"/>
<polygon fill="midnightblue" stroke="midnightblue" points="336.841,-51.5001 346.841,-48 336.841,-44.5001 336.841,-51.5001"/>
</g>
<!-- Node7 -->
<g id="node7" class="node"><title>Node7</title>
<g id="a_node7"><a xlink:href="../../d8/de2/menudefs_8qc.html#a0b350379da8a7002dee40a3598bf33c3" target="_top" xlink:title="cvar_set">
<polygon fill="none" stroke="black" points="337,-0.5 337,-19.5 394,-19.5 394,-0.5 337,-0.5"/>
<text text-anchor="middle" x="365.5" y="-7.5" font-family="Helvetica,sans-Serif" font-size="10.00">cvar_set</text>
</a>
</g>
</g>
<!-- Node6&#45;&gt;Node7 -->
<g id="edge6" class="edge"><title>Node6&#45;&gt;Node7</title>
<path fill="none" stroke="midnightblue" d="M298.338,-10C308.166,-10 317.949,-10 326.86,-10"/>
<polygon fill="midnightblue" stroke="midnightblue" points="326.87,-13.5001 336.87,-10 326.87,-6.5001 326.87,-13.5001"/>
</g>
</g>
</svg>
