<?xml version="1.0" encoding="UTF-8" standalone="no"?>
<!DOCTYPE svg PUBLIC "-//W3C//DTD SVG 1.1//EN"
 "http://www.w3.org/Graphics/SVG/1.1/DTD/svg11.dtd">
<!-- Generated by graphviz version 2.38.0 (20140413.2041)
 -->
<!-- Title: havocbot_chooserole_generic Pages: 1 -->
<svg width="628pt" height="369pt"
 viewBox="0.00 0.00 628.00 368.50" xmlns="http://www.w3.org/2000/svg" xmlns:xlink="http://www.w3.org/1999/xlink">
<g id="graph0" class="graph" transform="scale(1 1) rotate(0) translate(4 364.5)">
<title>havocbot_chooserole_generic</title>
<!-- Node1 -->
<g id="node1" class="node"><title>Node1</title>
<polygon fill="#bfbfbf" stroke="black" points="0,-137.5 0,-167.5 119,-167.5 119,-137.5 0,-137.5"/>
<text text-anchor="start" x="8" y="-155.5" font-family="Helvetica,sans-Serif" font-size="10.00">havocbot_chooserole</text>
<text text-anchor="middle" x="59.5" y="-144.5" font-family="Helvetica,sans-Serif" font-size="10.00">_generic</text>
</g>
<!-- Node2 -->
<g id="node2" class="node"><title>Node2</title>
<g id="a_node2"><a xlink:href="../../db/deb/roles_8qc.html#a4f33c76c5937f4781a5315a14158fd3f" target="_top" xlink:title="havocbot_role_generic">
<polygon fill="none" stroke="black" points="155,-143 155,-162 280,-162 280,-143 155,-143"/>
<text text-anchor="middle" x="217.5" y="-150" font-family="Helvetica,sans-Serif" font-size="10.00">havocbot_role_generic</text>
</a>
</g>
</g>
<!-- Node1&#45;&gt;Node2 -->
<g id="edge1" class="edge"><title>Node1&#45;&gt;Node2</title>
<path fill="none" stroke="midnightblue" d="M119.032,-152.5C127.421,-152.5 136.131,-152.5 144.739,-152.5"/>
<polygon fill="midnightblue" stroke="midnightblue" points="144.772,-156 154.772,-152.5 144.772,-149 144.772,-156"/>
</g>
<!-- Node3 -->
<g id="node3" class="node"><title>Node3</title>
<g id="a_node3"><a xlink:href="../../db/d15/api_8qh.html#a78fda59f169844ca11beb0f4fe2e1dbd" target="_top" xlink:title="navigation_goalrating\l_timeout">
<polygon fill="none" stroke="black" points="328,-297.5 328,-327.5 447,-327.5 447,-297.5 328,-297.5"/>
<text text-anchor="start" x="336" y="-315.5" font-family="Helvetica,sans-Serif" font-size="10.00">navigation_goalrating</text>
<text text-anchor="middle" x="387.5" y="-304.5" font-family="Helvetica,sans-Serif" font-size="10.00">_timeout</text>
</a>
</g>
</g>
<!-- Node2&#45;&gt;Node3 -->
<g id="edge2" class="edge"><title>Node2&#45;&gt;Node3</title>
<path fill="none" stroke="midnightblue" d="M222.873,-162.316C234.423,-187.148 268.176,-253.007 316,-288.5 317.856,-289.877 319.796,-291.179 321.8,-292.41"/>
<polygon fill="midnightblue" stroke="midnightblue" points="320.471,-295.67 330.931,-297.359 323.807,-289.516 320.471,-295.67"/>
</g>
<!-- Node4 -->
<g id="node4" class="node"><title>Node4</title>
<g id="a_node4"><a xlink:href="../../db/d15/api_8qh.html#a217f82a742f1066839797ec23d483547" target="_top" xlink:title="navigation_goalrating\l_start">
<polygon fill="none" stroke="black" points="328,-248.5 328,-278.5 447,-278.5 447,-248.5 328,-248.5"/>
<text text-anchor="start" x="336" y="-266.5" font-family="Helvetica,sans-Serif" font-size="10.00">navigation_goalrating</text>
<text text-anchor="middle" x="387.5" y="-255.5" font-family="Helvetica,sans-Serif" font-size="10.00">_start</text>
</a>
</g>
</g>
<!-- Node2&#45;&gt;Node4 -->
<g id="edge3" class="edge"><title>Node2&#45;&gt;Node4</title>
<path fill="none" stroke="midnightblue" d="M226.927,-162.254C242.723,-179.979 278.578,-217.657 316,-239.5 318.847,-241.162 321.827,-242.731 324.884,-244.209"/>
<polygon fill="midnightblue" stroke="midnightblue" points="323.676,-247.502 334.235,-248.373 326.523,-241.107 323.676,-247.502"/>
</g>
<!-- Node5 -->
<g id="node5" class="node"><title>Node5</title>
<g id="a_node5"><a xlink:href="../../db/deb/roles_8qc.html#a3e9df5e35d2e1a1d92cb47e72b572d4a" target="_top" xlink:title="havocbot_goalrating\l_items">
<polygon fill="none" stroke="black" points="330.5,-199.5 330.5,-229.5 444.5,-229.5 444.5,-199.5 330.5,-199.5"/>
<text text-anchor="start" x="338.5" y="-217.5" font-family="Helvetica,sans-Serif" font-size="10.00">havocbot_goalrating</text>
<text text-anchor="middle" x="387.5" y="-206.5" font-family="Helvetica,sans-Serif" font-size="10.00">_items</text>
</a>
</g>
</g>
<!-- Node2&#45;&gt;Node5 -->
<g id="edge4" class="edge"><title>Node2&#45;&gt;Node5</title>
<path fill="none" stroke="midnightblue" d="M244.382,-162.052C268.716,-171.032 305.815,-184.723 336.006,-195.865"/>
<polygon fill="midnightblue" stroke="midnightblue" points="334.948,-199.205 345.541,-199.384 337.371,-192.638 334.948,-199.205"/>
</g>
<!-- Node10 -->
<g id="node10" class="node"><title>Node10</title>
<g id="a_node10"><a xlink:href="../../db/deb/roles_8qc.html#a6456f6b6523f83904a00a909d0a87236" target="_top" xlink:title="havocbot_goalrating\l_enemyplayers">
<polygon fill="none" stroke="black" points="330.5,-137.5 330.5,-167.5 444.5,-167.5 444.5,-137.5 330.5,-137.5"/>
<text text-anchor="start" x="338.5" y="-155.5" font-family="Helvetica,sans-Serif" font-size="10.00">havocbot_goalrating</text>
<text text-anchor="middle" x="387.5" y="-144.5" font-family="Helvetica,sans-Serif" font-size="10.00">_enemyplayers</text>
</a>
</g>
</g>
<!-- Node2&#45;&gt;Node10 -->
<g id="edge9" class="edge"><title>Node2&#45;&gt;Node10</title>
<path fill="none" stroke="midnightblue" d="M280.103,-152.5C293.237,-152.5 307.159,-152.5 320.452,-152.5"/>
<polygon fill="midnightblue" stroke="midnightblue" points="320.471,-156 330.471,-152.5 320.471,-149 320.471,-156"/>
</g>
<!-- Node15 -->
<g id="node15" class="node"><title>Node15</title>
<g id="a_node15"><a xlink:href="../../db/deb/roles_8qc.html#a0375becf8030b1b6159611d74c885238" target="_top" xlink:title="havocbot_goalrating\l_waypoints">
<polygon fill="none" stroke="black" points="330.5,-88.5 330.5,-118.5 444.5,-118.5 444.5,-88.5 330.5,-88.5"/>
<text text-anchor="start" x="338.5" y="-106.5" font-family="Helvetica,sans-Serif" font-size="10.00">havocbot_goalrating</text>
<text text-anchor="middle" x="387.5" y="-95.5" font-family="Helvetica,sans-Serif" font-size="10.00">_waypoints</text>
</a>
</g>
</g>
<!-- Node2&#45;&gt;Node15 -->
<g id="edge15" class="edge"><title>Node2&#45;&gt;Node15</title>
<path fill="none" stroke="midnightblue" d="M251.291,-142.936C272.282,-136.814 300.171,-128.679 325.167,-121.389"/>
<polygon fill="midnightblue" stroke="midnightblue" points="326.325,-124.697 334.945,-118.537 324.365,-117.977 326.325,-124.697"/>
</g>
<!-- Node17 -->
<g id="node17" class="node"><title>Node17</title>
<g id="a_node17"><a xlink:href="../../db/d15/api_8qh.html#ab6d01fa32a875613a62f92c12a06bddd" target="_top" xlink:title="navigation_goalrating_end">
<polygon fill="none" stroke="black" points="316,-50 316,-69 459,-69 459,-50 316,-50"/>
<text text-anchor="middle" x="387.5" y="-57" font-family="Helvetica,sans-Serif" font-size="10.00">navigation_goalrating_end</text>
</a>
</g>
</g>
<!-- Node2&#45;&gt;Node17 -->
<g id="edge18" class="edge"><title>Node2&#45;&gt;Node17</title>
<path fill="none" stroke="midnightblue" d="M228.424,-142.833C245.126,-127.087 280.517,-95.9138 316,-78.5 320.836,-76.1265 326.01,-74.0173 331.276,-72.1503"/>
<polygon fill="midnightblue" stroke="midnightblue" points="332.377,-75.4727 340.8,-69.0461 330.208,-68.8172 332.377,-75.4727"/>
</g>
<!-- Node18 -->
<g id="node18" class="node"><title>Node18</title>
<g id="a_node18"><a xlink:href="../../db/d15/api_8qh.html#a3ac8ce540ecde9fbb20e7fa61992e841" target="_top" xlink:title="navigation_goalrating\l_timeout_set">
<polygon fill="none" stroke="black" points="328,-0.5 328,-30.5 447,-30.5 447,-0.5 328,-0.5"/>
<text text-anchor="start" x="336" y="-18.5" font-family="Helvetica,sans-Serif" font-size="10.00">navigation_goalrating</text>
<text text-anchor="middle" x="387.5" y="-7.5" font-family="Helvetica,sans-Serif" font-size="10.00">_timeout_set</text>
</a>
</g>
</g>
<!-- Node2&#45;&gt;Node18 -->
<g id="edge19" class="edge"><title>Node2&#45;&gt;Node18</title>
<path fill="none" stroke="midnightblue" d="M224.337,-142.931C237.843,-121.552 273.377,-69.5125 316,-40.5 318.878,-38.5407 321.927,-36.7176 325.079,-35.0237"/>
<polygon fill="midnightblue" stroke="midnightblue" points="326.725,-38.115 334.179,-30.5858 323.657,-31.8233 326.725,-38.115"/>
</g>
<!-- Node6 -->
<g id="node6" class="node"><title>Node6</title>
<g id="a_node6"><a xlink:href="../../da/dde/csprogsdefs_8qh.html#a2626679e4144af8478202c6c28f90cd9" target="_top" xlink:title="vector">
<polygon fill="none" stroke="black" points="534,-341 534,-360 581,-360 581,-341 534,-341"/>
<text text-anchor="middle" x="557.5" y="-348" font-family="Helvetica,sans-Serif" font-size="10.00">vector</text>
</a>
</g>
</g>
<!-- Node5&#45;&gt;Node6 -->
<g id="edge5" class="edge"><title>Node5&#45;&gt;Node6</title>
<path fill="none" stroke="midnightblue" d="M444.675,-229.169C449.901,-232.026 454.802,-235.435 459,-239.5 490.544,-270.043 462.835,-301.612 495,-331.5 502.92,-338.86 513.638,-343.37 523.908,-346.134"/>
<polygon fill="midnightblue" stroke="midnightblue" points="523.386,-349.604 533.907,-348.356 524.905,-342.77 523.386,-349.604"/>
</g>
<!-- Node7 -->
<g id="node7" class="node"><title>Node7</title>
<g id="a_node7"><a xlink:href="../../df/def/server_2items_8qc.html#a74c05dd595595612bcb3f2b9450e7591" target="_top" xlink:title="Returns whether the item is loot. ">
<polygon fill="none" stroke="black" points="521.5,-303 521.5,-322 593.5,-322 593.5,-303 521.5,-303"/>
<text text-anchor="middle" x="557.5" y="-310" font-family="Helvetica,sans-Serif" font-size="10.00">Item_IsLoot</text>
</a>
</g>
</g>
<!-- Node5&#45;&gt;Node7 -->
<g id="edge6" class="edge"><title>Node5&#45;&gt;Node7</title>
<path fill="none" stroke="midnightblue" d="M442.755,-229.606C448.53,-232.396 454.082,-235.669 459,-239.5 481.755,-257.226 471.885,-276.246 495,-293.5 500.054,-297.273 505.869,-300.305 511.863,-302.741"/>
<polygon fill="midnightblue" stroke="midnightblue" points="510.752,-306.06 521.347,-306.097 513.088,-299.461 510.752,-306.06"/>
</g>
<!-- Node8 -->
<g id="node8" class="node"><title>Node8</title>
<g id="a_node8"><a xlink:href="../../db/deb/roles_8qc.html#a03a514f72d64cab07a07c86c2323ef6e" target="_top" xlink:title="havocbot_goalrating\l_item_pickable_check\l_players">
<polygon fill="none" stroke="black" points="497,-243 497,-284 618,-284 618,-243 497,-243"/>
<text text-anchor="start" x="505" y="-272" font-family="Helvetica,sans-Serif" font-size="10.00">havocbot_goalrating</text>
<text text-anchor="start" x="505" y="-261" font-family="Helvetica,sans-Serif" font-size="10.00">_item_pickable_check</text>
<text text-anchor="middle" x="557.5" y="-250" font-family="Helvetica,sans-Serif" font-size="10.00">_players</text>
</a>
</g>
</g>
<!-- Node5&#45;&gt;Node8 -->
<g id="edge7" class="edge"><title>Node5&#45;&gt;Node8</title>
<path fill="none" stroke="midnightblue" d="M440.276,-229.601C455.127,-233.933 471.561,-238.726 487.282,-243.311"/>
<polygon fill="midnightblue" stroke="midnightblue" points="486.377,-246.693 496.957,-246.133 488.337,-239.973 486.377,-246.693"/>
</g>
<!-- Node9 -->
<g id="node9" class="node"><title>Node9</title>
<g id="a_node9"><a xlink:href="../../db/d15/api_8qh.html#a956bb41e292b7dcbfaa013f178202584" target="_top" xlink:title="navigation_routerating">
<polygon fill="none" stroke="black" points="495,-205 495,-224 620,-224 620,-205 495,-205"/>
<text text-anchor="middle" x="557.5" y="-212" font-family="Helvetica,sans-Serif" font-size="10.00">navigation_routerating</text>
</a>
</g>
</g>
<!-- Node5&#45;&gt;Node9 -->
<g id="edge8" class="edge"><title>Node5&#45;&gt;Node9</title>
<path fill="none" stroke="midnightblue" d="M444.909,-214.5C457.67,-214.5 471.388,-214.5 484.688,-214.5"/>
<polygon fill="midnightblue" stroke="midnightblue" points="484.756,-218 494.756,-214.5 484.755,-211 484.756,-218"/>
</g>
<!-- Node10&#45;&gt;Node9 -->
<g id="edge14" class="edge"><title>Node10&#45;&gt;Node9</title>
<path fill="none" stroke="midnightblue" d="M423.714,-167.586C444.328,-176.198 470.953,-186.948 495,-195.5 501.08,-197.662 507.547,-199.816 513.917,-201.855"/>
<polygon fill="midnightblue" stroke="midnightblue" points="513.187,-205.294 523.776,-204.949 515.283,-198.615 513.187,-205.294"/>
</g>
<!-- Node11 -->
<g id="node11" class="node"><title>Node11</title>
<g id="a_node11"><a xlink:href="../../db/d15/api_8qh.html#afd690dd77bb57679ecc60a80e5f38edd" target="_top" xlink:title="bot_shouldattack">
<polygon fill="none" stroke="black" points="508,-167 508,-186 607,-186 607,-167 508,-167"/>
<text text-anchor="middle" x="557.5" y="-174" font-family="Helvetica,sans-Serif" font-size="10.00">bot_shouldattack</text>
</a>
</g>
</g>
<!-- Node10&#45;&gt;Node11 -->
<g id="edge10" class="edge"><title>Node10&#45;&gt;Node11</title>
<path fill="none" stroke="midnightblue" d="M444.909,-160.558C461.961,-162.994 480.721,-165.674 497.912,-168.13"/>
<polygon fill="midnightblue" stroke="midnightblue" points="497.434,-171.597 507.828,-169.547 498.424,-164.668 497.434,-171.597"/>
</g>
<!-- Node12 -->
<g id="node12" class="node"><title>Node12</title>
<g id="a_node12"><a xlink:href="../../d8/d06/client_2resources_8qc.html#a53ec0a3c5a395e2b64d468c08f49b63f" target="_top" xlink:title="Returns the current amount of resource the given entity has. ">
<polygon fill="none" stroke="black" points="519,-129 519,-148 596,-148 596,-129 519,-129"/>
<text text-anchor="middle" x="557.5" y="-136" font-family="Helvetica,sans-Serif" font-size="10.00">GetResource</text>
</a>
</g>
</g>
<!-- Node10&#45;&gt;Node12 -->
<g id="edge11" class="edge"><title>Node10&#45;&gt;Node12</title>
<path fill="none" stroke="midnightblue" d="M444.909,-147.799C465.608,-146.074 488.822,-144.14 508.695,-142.484"/>
<polygon fill="midnightblue" stroke="midnightblue" points="509.076,-145.964 518.751,-141.646 508.495,-138.988 509.076,-145.964"/>
</g>
<!-- Node13 -->
<g id="node13" class="node"><title>Node13</title>
<g id="a_node13"><a xlink:href="../../d8/de2/menudefs_8qc.html#a3846d117b360dccec575f96988cf3bb7" target="_top" xlink:title="bound">
<polygon fill="none" stroke="black" points="534,-91 534,-110 581,-110 581,-91 534,-91"/>
<text text-anchor="middle" x="557.5" y="-98" font-family="Helvetica,sans-Serif" font-size="10.00">bound</text>
</a>
</g>
</g>
<!-- Node10&#45;&gt;Node13 -->
<g id="edge12" class="edge"><title>Node10&#45;&gt;Node13</title>
<path fill="none" stroke="midnightblue" d="M437.008,-137.46C455.196,-131.823 476.046,-125.364 495,-119.5 504.408,-116.589 514.627,-113.431 523.983,-110.54"/>
<polygon fill="midnightblue" stroke="midnightblue" points="525.196,-113.829 533.718,-107.533 523.13,-107.141 525.196,-113.829"/>
</g>
<!-- Node14 -->
<g id="node14" class="node"><title>Node14</title>
<g id="a_node14"><a xlink:href="../../d8/de2/menudefs_8qc.html#aebeeec7a2529f36483e14f76b1871271" target="_top" xlink:title="max">
<polygon fill="none" stroke="black" points="538.5,-53 538.5,-72 576.5,-72 576.5,-53 538.5,-53"/>
<text text-anchor="middle" x="557.5" y="-60" font-family="Helvetica,sans-Serif" font-size="10.00">max</text>
</a>
</g>
</g>
<!-- Node10&#45;&gt;Node14 -->
<g id="edge13" class="edge"><title>Node10&#45;&gt;Node14</title>
<path fill="none" stroke="midnightblue" d="M441.744,-137.356C447.829,-134.557 453.73,-131.293 459,-127.5 480.072,-112.336 473.62,-96.2271 495,-81.5 504.833,-74.7263 517.172,-70.2971 528.212,-67.4353"/>
<polygon fill="midnightblue" stroke="midnightblue" points="529.3,-70.7774 538.274,-65.1464 527.747,-63.9518 529.3,-70.7774"/>
</g>
<!-- Node15&#45;&gt;Node14 -->
<g id="edge16" class="edge"><title>Node15&#45;&gt;Node14</title>
<path fill="none" stroke="midnightblue" d="M444.909,-89.7335C472.888,-82.9053 505.461,-74.9559 528.166,-69.4148"/>
<polygon fill="midnightblue" stroke="midnightblue" points="529.269,-72.7486 538.154,-66.9774 527.609,-65.9482 529.269,-72.7486"/>
</g>
<!-- Node16 -->
<g id="node16" class="node"><title>Node16</title>
<g id="a_node16"><a xlink:href="../../d8/de2/menudefs_8qc.html#a663ea6aa3c4923b3e065cf91cc319f1b" target="_top" xlink:title="random">
<polygon fill="none" stroke="black" points="530.5,-15 530.5,-34 584.5,-34 584.5,-15 530.5,-15"/>
<text text-anchor="middle" x="557.5" y="-22" font-family="Helvetica,sans-Serif" font-size="10.00">random</text>
</a>
</g>
</g>
<!-- Node15&#45;&gt;Node16 -->
<g id="edge17" class="edge"><title>Node15&#45;&gt;Node16</title>
<path fill="none" stroke="midnightblue" d="M439.416,-88.4383C446.22,-85.5741 452.934,-82.27 459,-78.5 477.954,-66.7213 475.808,-54.8865 495,-43.5 502.821,-38.8599 511.884,-35.25 520.609,-32.484"/>
<polygon fill="midnightblue" stroke="midnightblue" points="521.593,-35.843 530.232,-29.71 519.654,-29.1169 521.593,-35.843"/>
</g>
</g>
</svg>
