<?xml version="1.0" encoding="UTF-8" standalone="no"?>
<!DOCTYPE svg PUBLIC "-//W3C//DTD SVG 1.1//EN"
 "http://www.w3.org/Graphics/SVG/1.1/DTD/svg11.dtd">
<!-- Generated by graphviz version 2.38.0 (20140413.2041)
 -->
<!-- Title: MUTATOR_HOOKFUNCTION Pages: 1 -->
<svg width="559pt" height="306pt"
 viewBox="0.00 0.00 559.00 306.00" xmlns="http://www.w3.org/2000/svg" xmlns:xlink="http://www.w3.org/1999/xlink">
<g id="graph0" class="graph" transform="scale(1 1) rotate(0) translate(4 302)">
<title>MUTATOR_HOOKFUNCTION</title>
<!-- Node1 -->
<g id="node1" class="node"><title>Node1</title>
<polygon fill="#bfbfbf" stroke="black" points="0,-145.5 0,-164.5 145,-164.5 145,-145.5 0,-145.5"/>
<text text-anchor="middle" x="72.5" y="-152.5" font-family="Helvetica,sans-Serif" font-size="10.00">MUTATOR_HOOKFUNCTION</text>
</g>
<!-- Node2 -->
<g id="node2" class="node"><title>Node2</title>
<g id="a_node2"><a xlink:href="../../db/d9f/state_8qh.html#afdb90637f8a711359249291ee3b3fde6" target="_top" xlink:title="CS">
<polygon fill="none" stroke="black" points="203.5,-145.5 203.5,-164.5 233.5,-164.5 233.5,-145.5 203.5,-145.5"/>
<text text-anchor="middle" x="218.5" y="-152.5" font-family="Helvetica,sans-Serif" font-size="10.00">CS</text>
</a>
</g>
</g>
<!-- Node1&#45;&gt;Node2 -->
<g id="edge1" class="edge"><title>Node1&#45;&gt;Node2</title>
<path fill="none" stroke="midnightblue" d="M145.078,-155C162.394,-155 179.742,-155 193.116,-155"/>
<polygon fill="midnightblue" stroke="midnightblue" points="193.329,-158.5 203.329,-155 193.329,-151.5 193.329,-158.5"/>
</g>
<!-- Node4 -->
<g id="node4" class="node"><title>Node4</title>
<g id="a_node4"><a xlink:href="../../d4/d0c/csprogsdefs_8qc.html#acbb54a239d76062465dccbc6a6c6e464" target="_top" xlink:title="entity">
<polygon fill="none" stroke="black" points="324,-202.5 324,-221.5 368,-221.5 368,-202.5 324,-202.5"/>
<text text-anchor="middle" x="346" y="-209.5" font-family="Helvetica,sans-Serif" font-size="10.00">entity</text>
</a>
</g>
</g>
<!-- Node1&#45;&gt;Node4 -->
<g id="edge15" class="edge"><title>Node1&#45;&gt;Node4</title>
<path fill="none" stroke="midnightblue" d="M118.943,-164.541C174.238,-176.149 266.117,-195.439 313.933,-205.478"/>
<polygon fill="midnightblue" stroke="midnightblue" points="313.485,-208.96 323.99,-207.589 314.923,-202.109 313.485,-208.96"/>
</g>
<!-- Node14 -->
<g id="node14" class="node"><title>Node14</title>
<g id="a_node14"><a xlink:href="../../df/dd7/server_2client_8qc.html#a9e0748b2f44617a221a03deb1fb93e80" target="_top" xlink:title="TRANSMUTE">
<polygon fill="none" stroke="black" points="181,-107.5 181,-126.5 256,-126.5 256,-107.5 181,-107.5"/>
<text text-anchor="middle" x="218.5" y="-114.5" font-family="Helvetica,sans-Serif" font-size="10.00">TRANSMUTE</text>
</a>
</g>
</g>
<!-- Node1&#45;&gt;Node14 -->
<g id="edge16" class="edge"><title>Node1&#45;&gt;Node14</title>
<path fill="none" stroke="midnightblue" d="M109.837,-145.411C128.583,-140.464 151.643,-134.379 171.607,-129.111"/>
<polygon fill="midnightblue" stroke="midnightblue" points="172.648,-132.456 181.424,-126.52 170.862,-125.688 172.648,-132.456"/>
</g>
<!-- Node3 -->
<g id="node3" class="node"><title>Node3</title>
<g id="a_node3"><a xlink:href="../../db/d9f/state_8qh.html#afc32312bf25df126b18e078bedab7837" target="_top" xlink:title="ClientState_attach">
<polygon fill="none" stroke="black" points="293,-164.5 293,-183.5 399,-183.5 399,-164.5 293,-164.5"/>
<text text-anchor="middle" x="346" y="-171.5" font-family="Helvetica,sans-Serif" font-size="10.00">ClientState_attach</text>
</a>
</g>
</g>
<!-- Node2&#45;&gt;Node3 -->
<g id="edge2" class="edge"><title>Node2&#45;&gt;Node3</title>
<path fill="none" stroke="midnightblue" d="M233.896,-157.18C246.065,-159.022 264.389,-161.796 282.667,-164.563"/>
<polygon fill="midnightblue" stroke="midnightblue" points="282.365,-168.057 292.776,-166.094 283.413,-161.136 282.365,-168.057"/>
</g>
<!-- Node2&#45;&gt;Node4 -->
<g id="edge3" class="edge"><title>Node2&#45;&gt;Node4</title>
<path fill="none" stroke="midnightblue" d="M233.655,-163.169C248.064,-171.304 271.179,-183.864 292,-193 299.077,-196.105 306.838,-199.105 314.185,-201.768"/>
<polygon fill="midnightblue" stroke="midnightblue" points="313.25,-205.149 323.845,-205.168 315.575,-198.546 313.25,-205.149"/>
</g>
<!-- Node5 -->
<g id="node5" class="node"><title>Node5</title>
<g id="a_node5"><a xlink:href="../../db/d9f/state_8qh.html#ae17cd2d1c2291942edc23455fc1db486" target="_top" xlink:title="ClientState_detach">
<polygon fill="none" stroke="black" points="292,-126.5 292,-145.5 400,-145.5 400,-126.5 292,-126.5"/>
<text text-anchor="middle" x="346" y="-133.5" font-family="Helvetica,sans-Serif" font-size="10.00">ClientState_detach</text>
</a>
</g>
</g>
<!-- Node2&#45;&gt;Node5 -->
<g id="edge4" class="edge"><title>Node2&#45;&gt;Node5</title>
<path fill="none" stroke="midnightblue" d="M233.896,-148.327C245.902,-145.014 263.9,-141.537 281.932,-138.798"/>
<polygon fill="midnightblue" stroke="midnightblue" points="282.518,-142.25 291.916,-137.358 281.519,-135.322 282.518,-142.25"/>
</g>
<!-- Node5&#45;&gt;Node2 -->
<g id="edge6" class="edge"><title>Node5&#45;&gt;Node2</title>
<path fill="none" stroke="midnightblue" d="M319.02,-145.524C296.955,-150.448 265.518,-155.168 243.913,-156.779"/>
<polygon fill="midnightblue" stroke="midnightblue" points="243.695,-153.285 233.896,-157.314 244.069,-160.275 243.695,-153.285"/>
</g>
<!-- Node6 -->
<g id="node6" class="node"><title>Node6</title>
<g id="a_node6"><a xlink:href="../../d0/d3f/state_8qc.html#aee720441a84489b04449de94ce835994" target="_top" xlink:title="GetCvars">
<polygon fill="none" stroke="black" points="463,-278.5 463,-297.5 524,-297.5 524,-278.5 463,-278.5"/>
<text text-anchor="middle" x="493.5" y="-285.5" font-family="Helvetica,sans-Serif" font-size="10.00">GetCvars</text>
</a>
</g>
</g>
<!-- Node5&#45;&gt;Node6 -->
<g id="edge5" class="edge"><title>Node5&#45;&gt;Node6</title>
<path fill="none" stroke="midnightblue" d="M386.818,-145.582C391.7,-148.04 396.272,-151.126 400,-155 436.844,-193.284 398.779,-231.083 436,-269 440.822,-273.912 446.953,-277.555 453.386,-280.255"/>
<polygon fill="midnightblue" stroke="midnightblue" points="452.317,-283.589 462.912,-283.576 454.622,-276.979 452.317,-283.589"/>
</g>
<!-- Node7 -->
<g id="node7" class="node"><title>Node7</title>
<g id="a_node7"><a xlink:href="../../d0/d3f/state_8qc.html#a34f4025222e4edd5d1dcee5b90656bec" target="_top" xlink:title="accuracy_free">
<polygon fill="none" stroke="black" points="452,-240.5 452,-259.5 535,-259.5 535,-240.5 452,-240.5"/>
<text text-anchor="middle" x="493.5" y="-247.5" font-family="Helvetica,sans-Serif" font-size="10.00">accuracy_free</text>
</a>
</g>
</g>
<!-- Node5&#45;&gt;Node7 -->
<g id="edge7" class="edge"><title>Node5&#45;&gt;Node7</title>
<path fill="none" stroke="midnightblue" d="M385.261,-145.557C390.608,-148.03 395.727,-151.127 400,-155 427.693,-180.1 408.059,-206.175 436,-231 437.997,-232.774 440.166,-234.384 442.451,-235.844"/>
<polygon fill="midnightblue" stroke="midnightblue" points="441.255,-239.171 451.729,-240.767 444.536,-232.988 441.255,-239.171"/>
</g>
<!-- Node8 -->
<g id="node8" class="node"><title>Node8</title>
<g id="a_node8"><a xlink:href="../../d0/d3f/state_8qc.html#a7fd595275a5ab3b24efdf5dc24933c46" target="_top" xlink:title="PlayerScore_Detach">
<polygon fill="none" stroke="black" points="437,-202.5 437,-221.5 550,-221.5 550,-202.5 437,-202.5"/>
<text text-anchor="middle" x="493.5" y="-209.5" font-family="Helvetica,sans-Serif" font-size="10.00">PlayerScore_Detach</text>
</a>
</g>
</g>
<!-- Node5&#45;&gt;Node8 -->
<g id="edge8" class="edge"><title>Node5&#45;&gt;Node8</title>
<path fill="none" stroke="midnightblue" d="M381.205,-145.592C387.711,-148.145 394.27,-151.26 400,-155 419.481,-167.717 416.394,-180.477 436,-193 439.151,-195.012 442.537,-196.835 446.03,-198.482"/>
<polygon fill="midnightblue" stroke="midnightblue" points="444.862,-201.787 455.437,-202.438 447.576,-195.335 444.862,-201.787"/>
</g>
<!-- Node9 -->
<g id="node9" class="node"><title>Node9</title>
<g id="a_node9"><a xlink:href="../../d0/d3f/state_8qc.html#a8fe4ed7866766d38e6cf3bfd1c4b239e" target="_top" xlink:title="W_HitPlotClose">
<polygon fill="none" stroke="black" points="449.5,-164.5 449.5,-183.5 537.5,-183.5 537.5,-164.5 449.5,-164.5"/>
<text text-anchor="middle" x="493.5" y="-171.5" font-family="Helvetica,sans-Serif" font-size="10.00">W_HitPlotClose</text>
</a>
</g>
</g>
<!-- Node5&#45;&gt;Node9 -->
<g id="edge9" class="edge"><title>Node5&#45;&gt;Node9</title>
<path fill="none" stroke="midnightblue" d="M383.716,-145.589C402.657,-150.536 425.957,-156.621 446.129,-161.889"/>
<polygon fill="midnightblue" stroke="midnightblue" points="445.488,-165.339 456.048,-164.48 447.257,-158.567 445.488,-165.339"/>
</g>
<!-- Node10 -->
<g id="node10" class="node"><title>Node10</title>
<g id="a_node10"><a xlink:href="../../d0/d3f/state_8qc.html#a493d87cfdaad13d4de171211f5f7bc4d" target="_top" xlink:title="ClientData_Detach">
<polygon fill="none" stroke="black" points="440,-0.5 440,-19.5 547,-19.5 547,-0.5 440,-0.5"/>
<text text-anchor="middle" x="493.5" y="-7.5" font-family="Helvetica,sans-Serif" font-size="10.00">ClientData_Detach</text>
</a>
</g>
</g>
<!-- Node5&#45;&gt;Node10 -->
<g id="edge10" class="edge"><title>Node5&#45;&gt;Node10</title>
<path fill="none" stroke="midnightblue" d="M354.684,-126.154C374.361,-101.032 425.735,-36.0333 436,-29 438.861,-27.0396 441.942,-25.2668 445.135,-23.6662"/>
<polygon fill="midnightblue" stroke="midnightblue" points="446.612,-26.8403 454.345,-19.5981 443.783,-20.4372 446.612,-26.8403"/>
</g>
<!-- Node11 -->
<g id="node11" class="node"><title>Node11</title>
<g id="a_node11"><a xlink:href="../../d0/d3f/state_8qc.html#ac87f3b0e72460f99913d0a56abac6990" target="_top" xlink:title="entcs_detach">
<polygon fill="none" stroke="black" points="453,-126.5 453,-145.5 534,-145.5 534,-126.5 453,-126.5"/>
<text text-anchor="middle" x="493.5" y="-133.5" font-family="Helvetica,sans-Serif" font-size="10.00">entcs_detach</text>
</a>
</g>
</g>
<!-- Node5&#45;&gt;Node11 -->
<g id="edge12" class="edge"><title>Node5&#45;&gt;Node11</title>
<path fill="none" stroke="midnightblue" d="M400.353,-136C414.184,-136 429.024,-136 442.666,-136"/>
<polygon fill="midnightblue" stroke="midnightblue" points="442.829,-139.5 452.829,-136 442.829,-132.5 442.829,-139.5"/>
</g>
<!-- Node12 -->
<g id="node12" class="node"><title>Node12</title>
<g id="a_node12"><a xlink:href="../../d0/d3f/state_8qc.html#ab10bcd46b240e1fd8154de39ddd5c40e" target="_top" xlink:title="bot_clientdisconnect">
<polygon fill="none" stroke="black" points="436,-88.5 436,-107.5 551,-107.5 551,-88.5 436,-88.5"/>
<text text-anchor="middle" x="493.5" y="-95.5" font-family="Helvetica,sans-Serif" font-size="10.00">bot_clientdisconnect</text>
</a>
</g>
</g>
<!-- Node5&#45;&gt;Node12 -->
<g id="edge13" class="edge"><title>Node5&#45;&gt;Node12</title>
<path fill="none" stroke="midnightblue" d="M383.716,-126.411C402.657,-121.464 425.957,-115.379 446.129,-110.111"/>
<polygon fill="midnightblue" stroke="midnightblue" points="447.257,-113.433 456.048,-107.52 445.488,-106.661 447.257,-113.433"/>
</g>
<!-- Node13 -->
<g id="node13" class="node"><title>Node13</title>
<g id="a_node13"><a xlink:href="../../d0/d3f/state_8qc.html#abbd5a2c9639d75d5ac7e98fbd60856ab" target="_top" xlink:title="anticheat_report_to\l_eventlog">
<polygon fill="none" stroke="black" points="438,-39 438,-69 549,-69 549,-39 438,-39"/>
<text text-anchor="start" x="446" y="-57" font-family="Helvetica,sans-Serif" font-size="10.00">anticheat_report_to</text>
<text text-anchor="middle" x="493.5" y="-46" font-family="Helvetica,sans-Serif" font-size="10.00">_eventlog</text>
</a>
</g>
</g>
<!-- Node5&#45;&gt;Node13 -->
<g id="edge14" class="edge"><title>Node5&#45;&gt;Node13</title>
<path fill="none" stroke="midnightblue" d="M360.479,-126.442C377.58,-114.535 408.2,-93.9392 436,-79 439.514,-77.1118 443.199,-75.2447 446.931,-73.4323"/>
<polygon fill="midnightblue" stroke="midnightblue" points="448.675,-76.4801 456.237,-69.0592 445.698,-70.1449 448.675,-76.4801"/>
</g>
<!-- Node10&#45;&gt;Node2 -->
<g id="edge11" class="edge"><title>Node10&#45;&gt;Node2</title>
<path fill="none" stroke="midnightblue" d="M460.07,-19.5945C452.072,-22.3165 443.618,-25.5028 436,-29 351.419,-67.8278 337.308,-90.718 256,-136 251.814,-138.331 247.317,-140.745 242.958,-143.038"/>
<polygon fill="midnightblue" stroke="midnightblue" points="241.076,-140.071 233.813,-147.786 244.301,-146.284 241.076,-140.071"/>
</g>
</g>
</svg>
