<?xml version="1.0" encoding="UTF-8" standalone="no"?>
<!DOCTYPE svg PUBLIC "-//W3C//DTD SVG 1.1//EN"
 "http://www.w3.org/Graphics/SVG/1.1/DTD/svg11.dtd">
<!-- Generated by graphviz version 2.38.0 (20140413.2041)
 -->
<!-- Title: CA_GetWinnerTeam Pages: 1 -->
<svg width="400pt" height="28pt"
 viewBox="0.00 0.00 400.00 28.00" xmlns="http://www.w3.org/2000/svg" xmlns:xlink="http://www.w3.org/1999/xlink">
<g id="graph0" class="graph" transform="scale(1 1) rotate(0) translate(4 24)">
<title>CA_GetWinnerTeam</title>
<!-- Node1 -->
<g id="node1" class="node"><title>Node1</title>
<polygon fill="#bfbfbf" stroke="black" points="0,-0.5 0,-19.5 110,-19.5 110,-0.5 0,-0.5"/>
<text text-anchor="middle" x="55" y="-7.5" font-family="Helvetica,sans-Serif" font-size="10.00">CA_GetWinnerTeam</text>
</g>
<!-- Node2 -->
<g id="node2" class="node"><title>Node2</title>
<g id="a_node2"><a xlink:href="../../d1/dbf/sv__clanarena_8qh.html#a5474d0511a224439e6329941c45f1bd2" target="_top" xlink:title="CA_CheckWinner">
<polygon fill="none" stroke="black" points="146,-0.5 146,-19.5 243,-19.5 243,-0.5 146,-0.5"/>
<text text-anchor="middle" x="194.5" y="-7.5" font-family="Helvetica,sans-Serif" font-size="10.00">CA_CheckWinner</text>
</a>
</g>
</g>
<!-- Node1&#45;&gt;Node2 -->
<g id="edge1" class="edge"><title>Node1&#45;&gt;Node2</title>
<path fill="none" stroke="midnightblue" d="M120.61,-10C129.09,-10 137.653,-10 145.783,-10"/>
<polygon fill="midnightblue" stroke="midnightblue" points="120.344,-6.5001 110.344,-10 120.344,-13.5001 120.344,-6.5001"/>
</g>
<!-- Node3 -->
<g id="node3" class="node"><title>Node3</title>
<g id="a_node3"><a xlink:href="../../d1/dbf/sv__clanarena_8qh.html#abc82708949d45746dfb807463502eeac" target="_top" xlink:title="REGISTER_MUTATOR">
<polygon fill="none" stroke="black" points="279,-0.5 279,-19.5 392,-19.5 392,-0.5 279,-0.5"/>
<text text-anchor="middle" x="335.5" y="-7.5" font-family="Helvetica,sans-Serif" font-size="10.00">REGISTER_MUTATOR</text>
</a>
</g>
</g>
<!-- Node2&#45;&gt;Node3 -->
<g id="edge2" class="edge"><title>Node2&#45;&gt;Node3</title>
<path fill="none" stroke="midnightblue" d="M253.463,-10C261.889,-10 270.547,-10 278.924,-10"/>
<polygon fill="midnightblue" stroke="midnightblue" points="253.336,-6.5001 243.336,-10 253.336,-13.5001 253.336,-6.5001"/>
</g>
</g>
</svg>
