<?xml version="1.0" encoding="UTF-8" standalone="no"?>
<!DOCTYPE svg PUBLIC "-//W3C//DTD SVG 1.1//EN"
 "http://www.w3.org/Graphics/SVG/1.1/DTD/svg11.dtd">
<!-- Generated by graphviz version 2.38.0 (20140413.2041)
 -->
<!-- Title: WarpZoneLib_MoveOutOfSolid Pages: 1 -->
<svg width="738pt" height="78pt"
 viewBox="0.00 0.00 738.00 77.50" xmlns="http://www.w3.org/2000/svg" xmlns:xlink="http://www.w3.org/1999/xlink">
<g id="graph0" class="graph" transform="scale(1 1) rotate(0) translate(4 73.5)">
<title>WarpZoneLib_MoveOutOfSolid</title>
<!-- Node1 -->
<g id="node1" class="node"><title>Node1</title>
<polygon fill="#bfbfbf" stroke="black" points="0,-25.5 0,-44.5 161,-44.5 161,-25.5 0,-25.5"/>
<text text-anchor="middle" x="80.5" y="-32.5" font-family="Helvetica,sans-Serif" font-size="10.00">WarpZoneLib_MoveOutOfSolid</text>
</g>
<!-- Node2 -->
<g id="node2" class="node"><title>Node2</title>
<g id="a_node2"><a xlink:href="../../d7/d2b/server_8qc.html#acc540ec5b1736673c16d2e7d5ca8b739" target="_top" xlink:title="WarpZone_Teleport">
<polygon fill="none" stroke="black" points="197,-25.5 197,-44.5 305,-44.5 305,-25.5 197,-25.5"/>
<text text-anchor="middle" x="251" y="-32.5" font-family="Helvetica,sans-Serif" font-size="10.00">WarpZone_Teleport</text>
</a>
</g>
</g>
<!-- Node1&#45;&gt;Node2 -->
<g id="edge1" class="edge"><title>Node1&#45;&gt;Node2</title>
<path fill="none" stroke="midnightblue" d="M171.507,-35C180.182,-35 188.774,-35 196.915,-35"/>
<polygon fill="midnightblue" stroke="midnightblue" points="171.309,-31.5001 161.309,-35 171.309,-38.5001 171.309,-31.5001"/>
</g>
<!-- Node3 -->
<g id="node3" class="node"><title>Node3</title>
<g id="a_node3"><a xlink:href="../../d7/d2b/server_8qc.html#a600d8b2d9c69e214ed132fff42b3e9ed" target="_top" xlink:title="WarpZone_Projectile\l_Touch">
<polygon fill="none" stroke="black" points="487,-39 487,-69 601,-69 601,-39 487,-39"/>
<text text-anchor="start" x="495" y="-57" font-family="Helvetica,sans-Serif" font-size="10.00">WarpZone_Projectile</text>
<text text-anchor="middle" x="544" y="-46" font-family="Helvetica,sans-Serif" font-size="10.00">_Touch</text>
</a>
</g>
</g>
<!-- Node2&#45;&gt;Node3 -->
<g id="edge2" class="edge"><title>Node2&#45;&gt;Node3</title>
<path fill="none" stroke="midnightblue" d="M315.303,-39.1332C366.44,-42.472 437.734,-47.127 486.856,-50.3342"/>
<polygon fill="midnightblue" stroke="midnightblue" points="315.242,-35.6219 305.036,-38.4628 314.786,-42.607 315.242,-35.6219"/>
</g>
<!-- Node4 -->
<g id="node4" class="node"><title>Node4</title>
<g id="a_node4"><a xlink:href="../../d7/d2b/server_8qc.html#aed3158abfa5d076da43023711521d169" target="_top" xlink:title="WarpZone_Touch">
<polygon fill="none" stroke="black" points="341,-6.5 341,-25.5 439,-25.5 439,-6.5 341,-6.5"/>
<text text-anchor="middle" x="390" y="-13.5" font-family="Helvetica,sans-Serif" font-size="10.00">WarpZone_Touch</text>
</a>
</g>
</g>
<!-- Node2&#45;&gt;Node4 -->
<g id="edge3" class="edge"><title>Node2&#45;&gt;Node4</title>
<path fill="none" stroke="midnightblue" d="M315.364,-26.2122C323.957,-25.0206 332.657,-23.8139 340.922,-22.6678"/>
<polygon fill="midnightblue" stroke="midnightblue" points="314.784,-22.7591 305.36,-27.5997 315.746,-29.6927 314.784,-22.7591"/>
</g>
<!-- Node4&#45;&gt;Node3 -->
<g id="edge6" class="edge"><title>Node4&#45;&gt;Node3</title>
<path fill="none" stroke="midnightblue" d="M439.488,-28.122C454.559,-31.8897 471.298,-36.0746 486.846,-39.9615"/>
<polygon fill="midnightblue" stroke="midnightblue" points="439.906,-24.6189 429.356,-25.589 438.209,-31.4099 439.906,-24.6189"/>
</g>
<!-- Node5 -->
<g id="node5" class="node"><title>Node5</title>
<g id="a_node5"><a xlink:href="../../d0/d72/lib_2warpzone_2client_8qc.html#a3ffef105e69ca5cd4e07ffeae58d80e8" target="_top" xlink:title="WarpZone_Fade_PreDraw">
<polygon fill="none" stroke="black" points="475,-0.5 475,-19.5 613,-19.5 613,-0.5 475,-0.5"/>
<text text-anchor="middle" x="544" y="-7.5" font-family="Helvetica,sans-Serif" font-size="10.00">WarpZone_Fade_PreDraw</text>
</a>
</g>
</g>
<!-- Node4&#45;&gt;Node5 -->
<g id="edge4" class="edge"><title>Node4&#45;&gt;Node5</title>
<path fill="none" stroke="midnightblue" d="M449.188,-13.7031C457.614,-13.3705 466.349,-13.0257 474.947,-12.6863"/>
<polygon fill="midnightblue" stroke="midnightblue" points="448.948,-10.2098 439.094,-14.1016 449.224,-17.2043 448.948,-10.2098"/>
</g>
<!-- Node6 -->
<g id="node6" class="node"><title>Node6</title>
<g id="a_node6"><a xlink:href="../../d0/d72/lib_2warpzone_2client_8qc.html#abdabd8f2f4e643c7ff8d28c25f700828" target="_top" xlink:title="NET_HANDLE">
<polygon fill="none" stroke="black" points="649,-0.5 649,-19.5 730,-19.5 730,-0.5 649,-0.5"/>
<text text-anchor="middle" x="689.5" y="-7.5" font-family="Helvetica,sans-Serif" font-size="10.00">NET_HANDLE</text>
</a>
</g>
</g>
<!-- Node5&#45;&gt;Node6 -->
<g id="edge5" class="edge"><title>Node5&#45;&gt;Node6</title>
<path fill="none" stroke="midnightblue" d="M623.62,-10C632.309,-10 640.863,-10 648.765,-10"/>
<polygon fill="midnightblue" stroke="midnightblue" points="623.388,-6.5001 613.388,-10 623.388,-13.5001 623.388,-6.5001"/>
</g>
</g>
</svg>
