<?xml version="1.0" encoding="UTF-8" standalone="no"?>
<!DOCTYPE svg PUBLIC "-//W3C//DTD SVG 1.1//EN"
 "http://www.w3.org/Graphics/SVG/1.1/DTD/svg11.dtd">
<!-- Generated by graphviz version 2.26.3 (20100126.1600)
 -->
<!-- Title: G Pages: 1 -->
<svg width="308pt" height="88pt"
 viewBox="0.00 0.00 308.00 88.00" xmlns="http://www.w3.org/2000/svg" xmlns:xlink="http://www.w3.org/1999/xlink">
<g id="graph1" class="graph" transform="scale(1 1) rotate(0) translate(4 84)">
<title>G</title>
<!-- Node1 -->
<g id="node1" class="node"><title>Node1</title>
<polygon fill="#bfbfbf" stroke="black" points="63,-58.5 63,-79.5 137,-79.5 137,-58.5 63,-58.5"/>
<text text-anchor="middle" x="100" y="-66.5" font-family="Helvetica,sans-Serif" font-size="10.00">client/wall.qc</text>
</g>
<!-- Node2 -->
<g id="node3" class="node"><title>Node2</title>
<a xlink:href="../../d4/db7/wall_8qh.html" target="_top" xlink:title="wall.qh">
<polygon fill="none" stroke="black" points="-0.5,-0.5 -0.5,-21.5 46.5,-21.5 46.5,-0.5 -0.5,-0.5"/>
<text text-anchor="middle" x="23" y="-8.5" font-family="Helvetica,sans-Serif" font-size="10.00">wall.qh</text>
</a>
</g>
<!-- Node1&#45;&gt;Node2 -->
<g id="edge2" class="edge"><title>Node1&#45;&gt;Node2</title>
<path fill="none" stroke="midnightblue" d="M85.877,-58.3619C74.4802,-49.7773 58.2419,-37.5459 45.1223,-27.6636"/>
<polygon fill="midnightblue" stroke="midnightblue" points="47.1268,-24.7916 37.0335,-21.5707 42.9152,-30.3829 47.1268,-24.7916"/>
</g>
<!-- Node3 -->
<g id="node5" class="node"><title>Node3</title>
<a xlink:href="../../d3/d9d/bgmscript_8qh.html" target="_top" xlink:title="bgmscript.qh">
<polygon fill="none" stroke="black" points="63.5,-0.5 63.5,-21.5 136.5,-21.5 136.5,-0.5 63.5,-0.5"/>
<text text-anchor="middle" x="100" y="-8.5" font-family="Helvetica,sans-Serif" font-size="10.00">bgmscript.qh</text>
</a>
</g>
<!-- Node1&#45;&gt;Node3 -->
<g id="edge4" class="edge"><title>Node1&#45;&gt;Node3</title>
<path fill="none" stroke="midnightblue" d="M100,-58.3619C100,-50.9219 100,-40.7427 100,-31.7276"/>
<polygon fill="midnightblue" stroke="midnightblue" points="103.5,-31.5706 100,-21.5707 96.5001,-31.5707 103.5,-31.5706"/>
</g>
<!-- Node4 -->
<g id="node7" class="node"><title>Node4</title>
<a xlink:href="../../d8/da6/interpolate_8qh.html" target="_top" xlink:title="../lib/csqcmodel/interpolate.qh">
<polygon fill="none" stroke="black" points="153.5,-0.5 153.5,-21.5 300.5,-21.5 300.5,-0.5 153.5,-0.5"/>
<text text-anchor="middle" x="227" y="-8.5" font-family="Helvetica,sans-Serif" font-size="10.00">../lib/csqcmodel/interpolate.qh</text>
</a>
</g>
<!-- Node1&#45;&gt;Node4 -->
<g id="edge6" class="edge"><title>Node1&#45;&gt;Node4</title>
<path fill="none" stroke="midnightblue" d="M122.999,-58.4966C143.013,-49.3562 172.241,-36.0082 194.619,-25.7883"/>
<polygon fill="midnightblue" stroke="midnightblue" points="196.101,-28.9592 203.743,-21.6212 193.193,-22.5918 196.101,-28.9592"/>
</g>
</g>
</svg>
