<?xml version="1.0" encoding="UTF-8" standalone="no"?>
<!DOCTYPE svg PUBLIC "-//W3C//DTD SVG 1.1//EN"
 "http://www.w3.org/Graphics/SVG/1.1/DTD/svg11.dtd">
<!-- Generated by graphviz version 2.38.0 (20140413.2041)
 -->
<!-- Title: server/spawnpoints.qh Pages: 1 -->
<svg width="1181pt" height="207pt"
 viewBox="0.00 0.00 1181.00 207.00" xmlns="http://www.w3.org/2000/svg" xmlns:xlink="http://www.w3.org/1999/xlink">
<g id="graph0" class="graph" transform="scale(1 1) rotate(0) translate(4 203)">
<title>server/spawnpoints.qh</title>
<!-- Node1 -->
<g id="node1" class="node"><title>Node1</title>
<polygon fill="#bfbfbf" stroke="black" points="584,-179.5 584,-198.5 708,-198.5 708,-179.5 584,-179.5"/>
<text text-anchor="middle" x="646" y="-186.5" font-family="Helvetica,sans-Serif" font-size="10.00">server/spawnpoints.qh</text>
</g>
<!-- Node2 -->
<g id="node2" class="node"><title>Node2</title>
<g id="a_node2"><a xlink:href="../../d7/dbb/sv__assault_8qc.html" target="_top" xlink:title="common/gamemodes/gamemode\l/assault/sv_assault.qc">
<polygon fill="none" stroke="black" points="0,-112.5 0,-142.5 182,-142.5 182,-112.5 0,-112.5"/>
<text text-anchor="start" x="8" y="-130.5" font-family="Helvetica,sans-Serif" font-size="10.00">common/gamemodes/gamemode</text>
<text text-anchor="middle" x="91" y="-119.5" font-family="Helvetica,sans-Serif" font-size="10.00">/assault/sv_assault.qc</text>
</a>
</g>
</g>
<!-- Node1&#45;&gt;Node2 -->
<g id="edge1" class="edge"><title>Node1&#45;&gt;Node2</title>
<path fill="none" stroke="midnightblue" d="M573.632,-181.864C483.772,-174.01 325.861,-159.438 191,-143 188.127,-142.65 185.208,-142.284 182.263,-141.907"/>
<polygon fill="midnightblue" stroke="midnightblue" points="573.447,-185.361 583.713,-182.742 574.054,-178.388 573.447,-185.361"/>
</g>
<!-- Node3 -->
<g id="node3" class="node"><title>Node3</title>
<g id="a_node3"><a xlink:href="../../d7/d39/sv__rules_8qc.html" target="_top" xlink:title="common/gamemodes/sv\l_rules.qc">
<polygon fill="none" stroke="black" points="200.5,-112.5 200.5,-142.5 337.5,-142.5 337.5,-112.5 200.5,-112.5"/>
<text text-anchor="start" x="208.5" y="-130.5" font-family="Helvetica,sans-Serif" font-size="10.00">common/gamemodes/sv</text>
<text text-anchor="middle" x="269" y="-119.5" font-family="Helvetica,sans-Serif" font-size="10.00">_rules.qc</text>
</a>
</g>
</g>
<!-- Node1&#45;&gt;Node3 -->
<g id="edge2" class="edge"><title>Node1&#45;&gt;Node3</title>
<path fill="none" stroke="midnightblue" d="M574.972,-178.012C514.321,-169.316 424.809,-156.083 347,-143 344.012,-142.498 340.961,-141.974 337.881,-141.438"/>
<polygon fill="midnightblue" stroke="midnightblue" points="574.806,-181.524 585.201,-179.475 575.797,-174.595 574.806,-181.524"/>
</g>
<!-- Node4 -->
<g id="node4" class="node"><title>Node4</title>
<g id="a_node4"><a xlink:href="../../df/dd7/server_2client_8qc.html" target="_top" xlink:title="server/client.qc">
<polygon fill="none" stroke="black" points="355.5,-118 355.5,-137 444.5,-137 444.5,-118 355.5,-118"/>
<text text-anchor="middle" x="400" y="-125" font-family="Helvetica,sans-Serif" font-size="10.00">server/client.qc</text>
</a>
</g>
</g>
<!-- Node1&#45;&gt;Node4 -->
<g id="edge3" class="edge"><title>Node1&#45;&gt;Node4</title>
<path fill="none" stroke="midnightblue" d="M598.029,-177.206C559.127,-168.345 502.92,-155.297 454,-143 446.563,-141.13 438.573,-139.034 431.081,-137.029"/>
<polygon fill="midnightblue" stroke="midnightblue" points="597.499,-180.675 608.026,-179.478 599.05,-173.849 597.499,-180.675"/>
</g>
<!-- Node7 -->
<g id="node7" class="node"><title>Node7</title>
<g id="a_node7"><a xlink:href="../../d5/dac/g__damage_8qc.html" target="_top" xlink:title="server/g_damage.qc">
<polygon fill="none" stroke="black" points="462.5,-118 462.5,-137 577.5,-137 577.5,-118 462.5,-118"/>
<text text-anchor="middle" x="520" y="-125" font-family="Helvetica,sans-Serif" font-size="10.00">server/g_damage.qc</text>
</a>
</g>
</g>
<!-- Node1&#45;&gt;Node7 -->
<g id="edge6" class="edge"><title>Node1&#45;&gt;Node7</title>
<path fill="none" stroke="midnightblue" d="M618.84,-175.174C594.39,-163.629 559.15,-146.987 538.019,-137.009"/>
<polygon fill="midnightblue" stroke="midnightblue" points="617.41,-178.37 627.947,-179.475 620.399,-172.04 617.41,-178.37"/>
</g>
<!-- Node8 -->
<g id="node8" class="node"><title>Node8</title>
<g id="a_node8"><a xlink:href="../../db/dcc/g__world_8qc.html" target="_top" xlink:title="server/g_world.qc">
<polygon fill="none" stroke="black" points="596,-118 596,-137 696,-137 696,-118 596,-118"/>
<text text-anchor="middle" x="646" y="-125" font-family="Helvetica,sans-Serif" font-size="10.00">server/g_world.qc</text>
</a>
</g>
</g>
<!-- Node1&#45;&gt;Node8 -->
<g id="edge8" class="edge"><title>Node1&#45;&gt;Node8</title>
<path fill="none" stroke="midnightblue" d="M646,-169.317C646,-158.496 646,-145.398 646,-137.009"/>
<polygon fill="midnightblue" stroke="midnightblue" points="642.5,-169.475 646,-179.475 649.5,-169.475 642.5,-169.475"/>
</g>
<!-- Node9 -->
<g id="node9" class="node"><title>Node9</title>
<g id="a_node9"><a xlink:href="../../df/d4a/server_2race_8qc.html" target="_top" xlink:title="server/race.qc">
<polygon fill="none" stroke="black" points="714.5,-118 714.5,-137 799.5,-137 799.5,-118 714.5,-118"/>
<text text-anchor="middle" x="757" y="-125" font-family="Helvetica,sans-Serif" font-size="10.00">server/race.qc</text>
</a>
</g>
</g>
<!-- Node1&#45;&gt;Node9 -->
<g id="edge10" class="edge"><title>Node1&#45;&gt;Node9</title>
<path fill="none" stroke="midnightblue" d="M670.79,-174.712C692.288,-163.188 722.758,-146.855 741.126,-137.009"/>
<polygon fill="midnightblue" stroke="midnightblue" points="669.064,-171.666 661.904,-179.475 672.371,-177.835 669.064,-171.666"/>
</g>
<!-- Node10 -->
<g id="node10" class="node"><title>Node10</title>
<g id="a_node10"><a xlink:href="../../d0/d41/spawnpoints_8qc.html" target="_top" xlink:title="server/spawnpoints.qc">
<polygon fill="none" stroke="black" points="817.5,-118 817.5,-137 940.5,-137 940.5,-118 817.5,-118"/>
<text text-anchor="middle" x="879" y="-125" font-family="Helvetica,sans-Serif" font-size="10.00">server/spawnpoints.qc</text>
</a>
</g>
</g>
<!-- Node1&#45;&gt;Node10 -->
<g id="edge12" class="edge"><title>Node1&#45;&gt;Node10</title>
<path fill="none" stroke="midnightblue" d="M689.199,-176.968C734.443,-165.415 804.529,-147.517 845.679,-137.009"/>
<polygon fill="midnightblue" stroke="midnightblue" points="688.206,-173.61 679.383,-179.475 689.938,-180.392 688.206,-173.61"/>
</g>
<!-- Node11 -->
<g id="node11" class="node"><title>Node11</title>
<g id="a_node11"><a xlink:href="../../db/d52/server_2__mod_8qh.html" target="_top" xlink:title="server/_mod.qh">
<polygon fill="none" stroke="black" points="959,-118 959,-137 1051,-137 1051,-118 959,-118"/>
<text text-anchor="middle" x="1005" y="-125" font-family="Helvetica,sans-Serif" font-size="10.00">server/_mod.qh</text>
</a>
</g>
</g>
<!-- Node1&#45;&gt;Node11 -->
<g id="edge14" class="edge"><title>Node1&#45;&gt;Node11</title>
<path fill="none" stroke="midnightblue" d="M718.116,-179.612C779.962,-171.874 871.282,-159.151 950,-143 958.222,-141.313 967.048,-139.148 975.17,-137.008"/>
<polygon fill="midnightblue" stroke="midnightblue" points="717.562,-176.154 708.069,-180.858 718.424,-183.1 717.562,-176.154"/>
</g>
<!-- Node12 -->
<g id="node12" class="node"><title>Node12</title>
<g id="a_node12"><a xlink:href="../../d3/d4f/sv__main_8qc.html" target="_top" xlink:title="server/sv_main.qc">
<polygon fill="none" stroke="black" points="1069,-118 1069,-137 1173,-137 1173,-118 1069,-118"/>
<text text-anchor="middle" x="1121" y="-125" font-family="Helvetica,sans-Serif" font-size="10.00">server/sv_main.qc</text>
</a>
</g>
</g>
<!-- Node1&#45;&gt;Node12 -->
<g id="edge15" class="edge"><title>Node1&#45;&gt;Node12</title>
<path fill="none" stroke="midnightblue" d="M718.131,-182.911C801.037,-176.426 940.995,-163.529 1060,-143 1069.33,-141.39 1079.37,-139.2 1088.55,-137.009"/>
<polygon fill="midnightblue" stroke="midnightblue" points="717.761,-179.429 708.06,-183.689 718.3,-186.408 717.761,-179.429"/>
</g>
<!-- Node5 -->
<g id="node5" class="node"><title>Node5</title>
<g id="a_node5"><a xlink:href="../../dc/d7f/server_2__mod_8inc.html" target="_top" xlink:title="server/_mod.inc">
<polygon fill="none" stroke="black" points="599.5,-56.5 599.5,-75.5 692.5,-75.5 692.5,-56.5 599.5,-56.5"/>
<text text-anchor="middle" x="646" y="-63.5" font-family="Helvetica,sans-Serif" font-size="10.00">server/_mod.inc</text>
</a>
</g>
</g>
<!-- Node4&#45;&gt;Node5 -->
<g id="edge4" class="edge"><title>Node4&#45;&gt;Node5</title>
<path fill="none" stroke="midnightblue" d="M440.75,-115.409C445.216,-114.238 449.7,-113.081 454,-112 507.292,-98.6036 569.23,-84.3169 608.026,-75.5219"/>
<polygon fill="midnightblue" stroke="midnightblue" points="439.85,-112.026 431.081,-117.971 441.644,-118.793 439.85,-112.026"/>
</g>
<!-- Node6 -->
<g id="node6" class="node"><title>Node6</title>
<g id="a_node6"><a xlink:href="../../dd/d96/server_2progs_8inc.html" target="_top" xlink:title="server/progs.inc">
<polygon fill="none" stroke="black" points="599.5,-0.5 599.5,-19.5 692.5,-19.5 692.5,-0.5 599.5,-0.5"/>
<text text-anchor="middle" x="646" y="-7.5" font-family="Helvetica,sans-Serif" font-size="10.00">server/progs.inc</text>
</a>
</g>
</g>
<!-- Node5&#45;&gt;Node6 -->
<g id="edge5" class="edge"><title>Node5&#45;&gt;Node6</title>
<path fill="none" stroke="midnightblue" d="M646,-45.8045C646,-36.9102 646,-26.7798 646,-19.7511"/>
<polygon fill="midnightblue" stroke="midnightblue" points="642.5,-46.083 646,-56.083 649.5,-46.083 642.5,-46.083"/>
</g>
<!-- Node7&#45;&gt;Node5 -->
<g id="edge7" class="edge"><title>Node7&#45;&gt;Node5</title>
<path fill="none" stroke="midnightblue" d="M547.16,-113.674C571.61,-102.129 606.85,-85.4875 627.981,-75.5091"/>
<polygon fill="midnightblue" stroke="midnightblue" points="545.601,-110.54 538.053,-117.975 548.59,-116.87 545.601,-110.54"/>
</g>
<!-- Node8&#45;&gt;Node5 -->
<g id="edge9" class="edge"><title>Node8&#45;&gt;Node5</title>
<path fill="none" stroke="midnightblue" d="M646,-107.817C646,-96.9962 646,-83.898 646,-75.5091"/>
<polygon fill="midnightblue" stroke="midnightblue" points="642.5,-107.975 646,-117.975 649.5,-107.975 642.5,-107.975"/>
</g>
<!-- Node9&#45;&gt;Node5 -->
<g id="edge11" class="edge"><title>Node9&#45;&gt;Node5</title>
<path fill="none" stroke="midnightblue" d="M732.21,-113.212C710.712,-101.688 680.242,-85.355 661.874,-75.5091"/>
<polygon fill="midnightblue" stroke="midnightblue" points="730.629,-116.335 741.096,-117.975 733.936,-110.166 730.629,-116.335"/>
</g>
<!-- Node10&#45;&gt;Node5 -->
<g id="edge13" class="edge"><title>Node10&#45;&gt;Node5</title>
<path fill="none" stroke="midnightblue" d="M835.801,-115.468C790.557,-103.915 720.471,-86.0173 679.321,-75.5091"/>
<polygon fill="midnightblue" stroke="midnightblue" points="835.062,-118.892 845.617,-117.975 836.794,-112.11 835.062,-118.892"/>
</g>
</g>
</svg>
