<?xml version="1.0" encoding="UTF-8" standalone="no"?>
<!DOCTYPE svg PUBLIC "-//W3C//DTD SVG 1.1//EN"
 "http://www.w3.org/Graphics/SVG/1.1/DTD/svg11.dtd">
<!-- Generated by graphviz version 2.36.0 (20140111.2315)
 -->
<!-- Title: server/bot/default/waypoints.qh Pages: 1 -->
<svg width="564pt" height="288pt"
 viewBox="0.00 0.00 564.00 288.00" xmlns="http://www.w3.org/2000/svg" xmlns:xlink="http://www.w3.org/1999/xlink">
<g id="graph0" class="graph" transform="scale(1 1) rotate(0) translate(4 284)">
<title>server/bot/default/waypoints.qh</title>
<!-- Node1 -->
<g id="node1" class="node"><title>Node1</title>
<polygon fill="#bfbfbf" stroke="black" points="220,-249 220,-279 312,-279 312,-249 220,-249"/>
<text text-anchor="start" x="228" y="-267" font-family="Helvetica,sans-Serif" font-size="10.00">server/bot/default</text>
<text text-anchor="middle" x="266" y="-256" font-family="Helvetica,sans-Serif" font-size="10.00">/waypoints.qh</text>
</g>
<!-- Node2 -->
<g id="node2" class="node"><title>Node2</title>
<g id="a_node2"><a xlink:href="../../d2/dc0/bot_8qc.html" target="_top" xlink:title="server/bot/default\l/bot.qc">
<polygon fill="none" stroke="black" points="0,-181 0,-211 92,-211 92,-181 0,-181"/>
<text text-anchor="start" x="8" y="-199" font-family="Helvetica,sans-Serif" font-size="10.00">server/bot/default</text>
<text text-anchor="middle" x="46" y="-188" font-family="Helvetica,sans-Serif" font-size="10.00">/bot.qc</text>
</a>
</g>
</g>
<!-- Node1&#45;&gt;Node2 -->
<g id="edge1" class="edge"><title>Node1&#45;&gt;Node2</title>
<path fill="none" stroke="midnightblue" d="M209.883,-246.165C173.38,-235.214 126.364,-221.109 92.0585,-210.818"/>
<polygon fill="midnightblue" stroke="midnightblue" points="209.297,-249.643 219.881,-249.164 211.308,-242.938 209.297,-249.643"/>
</g>
<!-- Node6 -->
<g id="node6" class="node"><title>Node6</title>
<g id="a_node6"><a xlink:href="../../d1/d9a/navigation_8qc.html" target="_top" xlink:title="server/bot/default\l/navigation.qc">
<polygon fill="none" stroke="black" points="110,-181 110,-211 202,-211 202,-181 110,-181"/>
<text text-anchor="start" x="118" y="-199" font-family="Helvetica,sans-Serif" font-size="10.00">server/bot/default</text>
<text text-anchor="middle" x="156" y="-188" font-family="Helvetica,sans-Serif" font-size="10.00">/navigation.qc</text>
</a>
</g>
</g>
<!-- Node1&#45;&gt;Node6 -->
<g id="edge5" class="edge"><title>Node1&#45;&gt;Node6</title>
<path fill="none" stroke="midnightblue" d="M233.71,-243.626C216.361,-233.217 195.355,-220.613 179.559,-211.135"/>
<polygon fill="midnightblue" stroke="midnightblue" points="232.027,-246.698 242.402,-248.841 235.628,-240.695 232.027,-246.698"/>
</g>
<!-- Node7 -->
<g id="node7" class="node"><title>Node7</title>
<g id="a_node7"><a xlink:href="../../d7/dc4/waypoints_8qc.html" target="_top" xlink:title="server/bot/default\l/waypoints.qc">
<polygon fill="none" stroke="black" points="220,-181 220,-211 312,-211 312,-181 220,-181"/>
<text text-anchor="start" x="228" y="-199" font-family="Helvetica,sans-Serif" font-size="10.00">server/bot/default</text>
<text text-anchor="middle" x="266" y="-188" font-family="Helvetica,sans-Serif" font-size="10.00">/waypoints.qc</text>
</a>
</g>
</g>
<!-- Node1&#45;&gt;Node7 -->
<g id="edge7" class="edge"><title>Node1&#45;&gt;Node7</title>
<path fill="none" stroke="midnightblue" d="M266,-238.532C266,-229.361 266,-219.245 266,-211.293"/>
<polygon fill="midnightblue" stroke="midnightblue" points="262.5,-238.679 266,-248.679 269.5,-238.679 262.5,-238.679"/>
</g>
<!-- Node8 -->
<g id="node8" class="node"><title>Node8</title>
<g id="a_node8"><a xlink:href="../../d2/de9/havocbot_8qc.html" target="_top" xlink:title="server/bot/default\l/havocbot/havocbot.qc">
<polygon fill="none" stroke="black" points="330,-181 330,-211 446,-211 446,-181 330,-181"/>
<text text-anchor="start" x="338" y="-199" font-family="Helvetica,sans-Serif" font-size="10.00">server/bot/default</text>
<text text-anchor="middle" x="388" y="-188" font-family="Helvetica,sans-Serif" font-size="10.00">/havocbot/havocbot.qc</text>
</a>
</g>
</g>
<!-- Node1&#45;&gt;Node8 -->
<g id="edge9" class="edge"><title>Node1&#45;&gt;Node8</title>
<path fill="none" stroke="midnightblue" d="M301.02,-244.055C320.412,-233.564 344.111,-220.743 361.871,-211.135"/>
<polygon fill="midnightblue" stroke="midnightblue" points="299.302,-241.005 292.172,-248.841 302.633,-247.162 299.302,-241.005"/>
</g>
<!-- Node10 -->
<g id="node10" class="node"><title>Node10</title>
<g id="a_node10"><a xlink:href="../../d5/db1/server_2bot_2default_2__mod_8qh.html" target="_top" xlink:title="server/bot/default\l/_mod.qh">
<polygon fill="none" stroke="black" points="464,-181 464,-211 556,-211 556,-181 464,-181"/>
<text text-anchor="start" x="472" y="-199" font-family="Helvetica,sans-Serif" font-size="10.00">server/bot/default</text>
<text text-anchor="middle" x="510" y="-188" font-family="Helvetica,sans-Serif" font-size="10.00">/_mod.qh</text>
</a>
</g>
</g>
<!-- Node1&#45;&gt;Node10 -->
<g id="edge12" class="edge"><title>Node1&#45;&gt;Node10</title>
<path fill="none" stroke="midnightblue" d="M321.903,-247.879C364.786,-236.279 423.278,-220.458 463.593,-209.553"/>
<polygon fill="midnightblue" stroke="midnightblue" points="320.921,-244.519 312.181,-250.508 322.748,-251.276 320.921,-244.519"/>
</g>
<!-- Node3 -->
<g id="node3" class="node"><title>Node3</title>
<g id="a_node3"><a xlink:href="../../d9/dfd/server_2bot_2default_2__mod_8inc.html" target="_top" xlink:title="server/bot/default\l/_mod.inc">
<polygon fill="none" stroke="black" points="139,-113 139,-143 231,-143 231,-113 139,-113"/>
<text text-anchor="start" x="147" y="-131" font-family="Helvetica,sans-Serif" font-size="10.00">server/bot/default</text>
<text text-anchor="middle" x="185" y="-120" font-family="Helvetica,sans-Serif" font-size="10.00">/_mod.inc</text>
</a>
</g>
</g>
<!-- Node2&#45;&gt;Node3 -->
<g id="edge2" class="edge"><title>Node2&#45;&gt;Node3</title>
<path fill="none" stroke="midnightblue" d="M85.0033,-176.48C107.259,-165.913 134.72,-152.874 155.23,-143.135"/>
<polygon fill="midnightblue" stroke="midnightblue" points="83.3511,-173.39 75.819,-180.841 86.3537,-179.714 83.3511,-173.39"/>
</g>
<!-- Node4 -->
<g id="node4" class="node"><title>Node4</title>
<g id="a_node4"><a xlink:href="../../dc/de1/api_8qc.html" target="_top" xlink:title="server/bot/api.qc">
<polygon fill="none" stroke="black" points="226.5,-56.5 226.5,-75.5 315.5,-75.5 315.5,-56.5 226.5,-56.5"/>
<text text-anchor="middle" x="271" y="-63.5" font-family="Helvetica,sans-Serif" font-size="10.00">server/bot/api.qc</text>
</a>
</g>
</g>
<!-- Node3&#45;&gt;Node4 -->
<g id="edge3" class="edge"><title>Node3&#45;&gt;Node4</title>
<path fill="none" stroke="midnightblue" d="M213.986,-106.777C229.233,-96.1395 247.12,-83.6602 258.737,-75.5557"/>
<polygon fill="midnightblue" stroke="midnightblue" points="211.579,-104.189 205.381,-112.781 215.585,-109.929 211.579,-104.189"/>
</g>
<!-- Node5 -->
<g id="node5" class="node"><title>Node5</title>
<g id="a_node5"><a xlink:href="../../dc/d13/server_2bot_2__mod_8inc.html" target="_top" xlink:title="server/bot/_mod.inc">
<polygon fill="none" stroke="black" points="219.5,-0.5 219.5,-19.5 322.5,-19.5 322.5,-0.5 219.5,-0.5"/>
<text text-anchor="middle" x="271" y="-7.5" font-family="Helvetica,sans-Serif" font-size="10.00">server/bot/_mod.inc</text>
</a>
</g>
</g>
<!-- Node4&#45;&gt;Node5 -->
<g id="edge4" class="edge"><title>Node4&#45;&gt;Node5</title>
<path fill="none" stroke="midnightblue" d="M271,-45.8045C271,-36.9102 271,-26.7798 271,-19.7511"/>
<polygon fill="midnightblue" stroke="midnightblue" points="267.5,-46.083 271,-56.083 274.5,-46.083 267.5,-46.083"/>
</g>
<!-- Node6&#45;&gt;Node3 -->
<g id="edge6" class="edge"><title>Node6&#45;&gt;Node3</title>
<path fill="none" stroke="midnightblue" d="M166.358,-171.426C170.49,-162.023 175.112,-151.504 178.72,-143.293"/>
<polygon fill="midnightblue" stroke="midnightblue" points="163.111,-170.116 162.293,-180.679 169.52,-172.932 163.111,-170.116"/>
</g>
<!-- Node7&#45;&gt;Node3 -->
<g id="edge8" class="edge"><title>Node7&#45;&gt;Node3</title>
<path fill="none" stroke="midnightblue" d="M240.607,-174.309C228.13,-164.143 213.419,-152.156 202.263,-143.066"/>
<polygon fill="midnightblue" stroke="midnightblue" points="238.461,-177.076 248.424,-180.679 242.883,-171.649 238.461,-177.076"/>
</g>
<!-- Node9 -->
<g id="node9" class="node"><title>Node9</title>
<g id="a_node9"><a xlink:href="../../d6/d35/server_2bot_2default_2havocbot_2__mod_8inc.html" target="_top" xlink:title="server/bot/default\l/havocbot/_mod.inc">
<polygon fill="none" stroke="black" points="307,-113 307,-143 409,-143 409,-113 307,-113"/>
<text text-anchor="start" x="315" y="-131" font-family="Helvetica,sans-Serif" font-size="10.00">server/bot/default</text>
<text text-anchor="middle" x="358" y="-120" font-family="Helvetica,sans-Serif" font-size="10.00">/havocbot/_mod.inc</text>
</a>
</g>
</g>
<!-- Node8&#45;&gt;Node9 -->
<g id="edge10" class="edge"><title>Node8&#45;&gt;Node9</title>
<path fill="none" stroke="midnightblue" d="M377.285,-171.426C373.01,-162.023 368.229,-151.504 364.497,-143.293"/>
<polygon fill="midnightblue" stroke="midnightblue" points="374.166,-173.024 381.49,-180.679 380.539,-170.127 374.166,-173.024"/>
</g>
<!-- Node9&#45;&gt;Node4 -->
<g id="edge11" class="edge"><title>Node9&#45;&gt;Node4</title>
<path fill="none" stroke="midnightblue" d="M329.109,-107.075C313.591,-96.3732 295.267,-83.736 283.406,-75.5557"/>
<polygon fill="midnightblue" stroke="midnightblue" points="327.163,-109.985 337.382,-112.781 331.137,-104.222 327.163,-109.985"/>
</g>
</g>
</svg>
