<?xml version="1.0" encoding="UTF-8" standalone="no"?>
<!DOCTYPE svg PUBLIC "-//W3C//DTD SVG 1.1//EN"
 "http://www.w3.org/Graphics/SVG/1.1/DTD/svg11.dtd">
<!-- Generated by graphviz version 2.26.3 (20100126.1600)
 -->
<!-- Title: G Pages: 1 -->
<svg width="492pt" height="70pt"
 viewBox="0.00 0.00 492.00 70.00" xmlns="http://www.w3.org/2000/svg" xmlns:xlink="http://www.w3.org/1999/xlink">
<g id="graph1" class="graph" transform="scale(1 1) rotate(0) translate(4 66)">
<title>G</title>
<!-- Node1 -->
<g id="node1" class="node"><title>Node1</title>
<polygon fill="#bfbfbf" stroke="black" points="0,-20.5 0,-41.5 126,-41.5 126,-20.5 0,-20.5"/>
<text text-anchor="middle" x="63" y="-28.5" font-family="Helvetica,sans-Serif" font-size="10.00">healtharmor_maxdamage</text>
</g>
<!-- Node2 -->
<g id="node3" class="node"><title>Node2</title>
<a xlink:href="healtharmor_8qc.html#a160501021e3210ed1258c66ae9a881ba" target="_top" xlink:title="Health/armor (#3)">
<polygon fill="none" stroke="black" points="162.5,-40.5 162.5,-61.5 261.5,-61.5 261.5,-40.5 162.5,-40.5"/>
<text text-anchor="middle" x="212" y="-48.5" font-family="Helvetica,sans-Serif" font-size="10.00">HUD_HealthArmor</text>
</a>
</g>
<!-- Node1&#45;&gt;Node2 -->
<g id="edge2" class="edge"><title>Node1&#45;&gt;Node2</title>
<path fill="none" stroke="midnightblue" d="M136.143,-40.8179C144.993,-42.0057 153.868,-43.197 162.269,-44.3247"/>
<polygon fill="midnightblue" stroke="midnightblue" points="136.566,-37.3433 126.189,-39.4818 135.635,-44.2811 136.566,-37.3433"/>
</g>
<!-- Node3 -->
<g id="node5" class="node"><title>Node3</title>
<a xlink:href="cl__client_8qc.html#afd069ce75171b7ad5b9a840f2fff8bb9" target="_top" xlink:title="PlayerPostThink">
<polygon fill="none" stroke="black" points="167.5,-0.5 167.5,-21.5 256.5,-21.5 256.5,-0.5 167.5,-0.5"/>
<text text-anchor="middle" x="212" y="-8.5" font-family="Helvetica,sans-Serif" font-size="10.00">PlayerPostThink</text>
</a>
</g>
<!-- Node1&#45;&gt;Node3 -->
<g id="edge4" class="edge"><title>Node1&#45;&gt;Node3</title>
<path fill="none" stroke="midnightblue" d="M136.282,-21.1635C146.849,-19.7452 157.448,-18.3225 167.229,-17.0096"/>
<polygon fill="midnightblue" stroke="midnightblue" points="135.635,-17.7189 126.189,-22.5182 136.566,-24.6567 135.635,-17.7189"/>
</g>
<!-- Node4 -->
<g id="node7" class="node"><title>Node4</title>
<a xlink:href="playerdemo_8qh.html#a3d6b65b19141e5215083447705deb88c" target="_top" xlink:title="playerdemo_read">
<polygon fill="none" stroke="black" points="298.5,-0.5 298.5,-21.5 389.5,-21.5 389.5,-0.5 298.5,-0.5"/>
<text text-anchor="middle" x="344" y="-8.5" font-family="Helvetica,sans-Serif" font-size="10.00">playerdemo_read</text>
</a>
</g>
<!-- Node3&#45;&gt;Node4 -->
<g id="edge6" class="edge"><title>Node3&#45;&gt;Node4</title>
<path fill="none" stroke="midnightblue" d="M266.994,-11C277.467,-11 288.319,-11 298.458,-11"/>
<polygon fill="midnightblue" stroke="midnightblue" points="266.689,-7.5001 256.689,-11 266.689,-14.5001 266.689,-7.5001"/>
</g>
<!-- Node5 -->
<g id="node9" class="node"><title>Node5</title>
<a xlink:href="player_8qc.html#a672a0ccf602525346ee1acb1337367fe" target="_top" xlink:title="PM_Main">
<polygon fill="none" stroke="black" points="426,-0.5 426,-21.5 484,-21.5 484,-0.5 426,-0.5"/>
<text text-anchor="middle" x="455" y="-8.5" font-family="Helvetica,sans-Serif" font-size="10.00">PM_Main</text>
</a>
</g>
<!-- Node4&#45;&gt;Node5 -->
<g id="edge8" class="edge"><title>Node4&#45;&gt;Node5</title>
<path fill="none" stroke="midnightblue" d="M399.877,-11C408.851,-11 417.813,-11 425.822,-11"/>
<polygon fill="midnightblue" stroke="midnightblue" points="399.789,-7.5001 389.789,-11 399.789,-14.5001 399.789,-7.5001"/>
</g>
</g>
</svg>
