<?xml version="1.0" encoding="UTF-8" standalone="no"?>
<!DOCTYPE svg PUBLIC "-//W3C//DTD SVG 1.1//EN"
 "http://www.w3.org/Graphics/SVG/1.1/DTD/svg11.dtd">
<!-- Generated by graphviz version 2.38.0 (20140413.2041)
 -->
<!-- Title: common/gamemodes Pages: 1 -->
<!--zoomable 483 -->
<svg id="main" version="1.1" xmlns="http://www.w3.org/2000/svg" xmlns:xlink="http://www.w3.org/1999/xlink" xml:space="preserve" onload="init(evt)">
<style type="text/css"><![CDATA[
.edge:hover path { stroke: red; }
.edge:hover polygon { stroke: red; fill: red; }
]]></style>
<script type="text/javascript"><![CDATA[
var edges = document.getElementsByTagName('g');
if (edges && edges.length) {
  for (var i=0;i<edges.length;i++) {
    if (edges[i].id.substr(0,4)=='edge') {
      edges[i].setAttribute('class','edge');
    }
  }
}
]]></script>
        <defs>
                <circle id="rim" cx="0" cy="0" r="7"/>
                <circle id="rim2" cx="0" cy="0" r="3.5"/>
                <g id="zoomPlus">
                        <use xlink:href="#rim" fill="#404040">
                                <set attributeName="fill" to="#808080" begin="zoomplus.mouseover" end="zoomplus.mouseout"/>
                        </use>
                        <path d="M-4,0h8M0,-4v8" fill="none" stroke="white" stroke-width="1.5" pointer-events="none"/>
                </g>
                <g id="zoomMin">
                        <use xlink:href="#rim" fill="#404040">
                                <set attributeName="fill" to="#808080" begin="zoomminus.mouseover" end="zoomminus.mouseout"/>
                        </use>
                        <path d="M-4,0h8" fill="none" stroke="white" stroke-width="1.5" pointer-events="none"/>
                </g>
                <g id="dirArrow">
                        <path fill="none" stroke="white" stroke-width="1.5" d="M0,-3.0v7 M-2.5,-0.5L0,-3.0L2.5,-0.5"/>
                </g>
               <g id="resetDef">
                       <use xlink:href="#rim2" fill="#404040">
                               <set attributeName="fill" to="#808080" begin="reset.mouseover" end="reset.mouseout"/>
                       </use>
               </g>
        </defs>

<script type="text/javascript">
var viewWidth = 852;
var viewHeight = 483;
var sectionId = 'dynsection-0';
</script>
<script xlink:href="svgpan.js"/>
<svg id="graph" class="graph">
<g id="viewport">
<title>common/gamemodes</title>
<g id="clust1" class="cluster"><title>clusterdir_bdd9a5d540de89e9fe90efdfc6973a4f</title>
<g id="a_clust1"><a xlink:href="dir_bdd9a5d540de89e9fe90efdfc6973a4f.html" target="_top" xlink:title="common">
<polygon fill="#ddddee" stroke="black" points="388,-344 388,-431 588,-431 588,-344 388,-344"/>
<text text-anchor="middle" x="488" y="-419" font-family="Helvetica,sans-Serif" font-size="10.00">common</text>
</a>
</g>
</g>
<g id="clust2" class="cluster"><title>clusterdir_9658490e6277b5140a6664b0ad39b8f9</title>
<g id="a_clust2"><a xlink:href="dir_9658490e6277b5140a6664b0ad39b8f9.html" target="_top">
<polygon fill="#eeeeff" stroke="black" points="396,-352 396,-404 580,-404 580,-352 396,-352"/>
</a>
</g>
</g>
<!-- dir_9658490e6277b5140a6664b0ad39b8f9 -->
<g id="node1" class="node"><title>dir_9658490e6277b5140a6664b0ad39b8f9</title>
<text text-anchor="middle" x="443" y="-375.5" font-family="Helvetica,sans-Serif" font-size="10.00">gamemodes</text>
</g>
<!-- dir_2c8f0fc99d1cf2e0f6564f3405184140 -->
<g id="node2" class="node"><title>dir_2c8f0fc99d1cf2e0f6564f3405184140</title>
<g id="a_node2"><a xlink:href="dir_2c8f0fc99d1cf2e0f6564f3405184140.html" target="_top" xlink:title="gamemode">
<polygon fill="white" stroke="red" points="572,-396 500,-396 500,-360 572,-360 572,-396"/>
<text text-anchor="middle" x="536" y="-375.5" font-family="Helvetica,sans-Serif" font-size="10.00">gamemode</text>
</a>
</g>
</g>
<!-- dir_041ec6f984a6b19402431933346033dd -->
<g id="node3" class="node"><title>dir_041ec6f984a6b19402431933346033dd</title>
<g id="a_node3"><a xlink:href="dir_041ec6f984a6b19402431933346033dd.html" target="_top" xlink:title="vehicles">
<polygon fill="none" stroke="red" points="298.5,-396 243.5,-396 243.5,-360 298.5,-360 298.5,-396"/>
<text text-anchor="middle" x="271" y="-375.5" font-family="Helvetica,sans-Serif" font-size="10.00">vehicles</text>
</a>
</g>
</g>
<!-- dir_2c8f0fc99d1cf2e0f6564f3405184140&#45;&gt;dir_041ec6f984a6b19402431933346033dd -->
<g id="edge21" class="edge"><title>dir_2c8f0fc99d1cf2e0f6564f3405184140&#45;&gt;dir_041ec6f984a6b19402431933346033dd</title>
<path fill="none" stroke="black" d="M523.557,-396.021C515.112,-407.222 503.123,-421.288 490,-431 474.086,-442.777 420.377,-439.061 401,-435 367.919,-428.066 332.969,-412.201 307.649,-398.964"/>
<polygon fill="black" stroke="black" points="309.248,-395.85 298.778,-394.228 305.951,-402.025 309.248,-395.85"/>
<g id="a_edge21&#45;headlabel"><a xlink:href="dir_000013_000092.html" target="_top" xlink:title="1">
<text text-anchor="middle" x="313.756" y="-392.538" font-family="Helvetica,sans-Serif" font-size="10.00">1</text>
</a>
</g>
</g>
<!-- dir_fe472327f69aa9464440251988e1566b -->
<g id="node4" class="node"><title>dir_fe472327f69aa9464440251988e1566b</title>
<g id="a_node4"><a xlink:href="dir_fe472327f69aa9464440251988e1566b.html" target="_top" xlink:title="monsters">
<polygon fill="none" stroke="red" points="356,-252 294,-252 294,-216 356,-216 356,-252"/>
<text text-anchor="middle" x="325" y="-231.5" font-family="Helvetica,sans-Serif" font-size="10.00">monsters</text>
</a>
</g>
</g>
<!-- dir_2c8f0fc99d1cf2e0f6564f3405184140&#45;&gt;dir_fe472327f69aa9464440251988e1566b -->
<g id="edge22" class="edge"><title>dir_2c8f0fc99d1cf2e0f6564f3405184140&#45;&gt;dir_fe472327f69aa9464440251988e1566b</title>
<path fill="none" stroke="black" d="M516.66,-359.889C508.88,-353.91 499.506,-347.759 490,-344 458.318,-331.472 362.261,-347.919 338,-324 321.976,-308.202 319.873,-281.99 321.095,-262.093"/>
<polygon fill="black" stroke="black" points="324.586,-262.352 322.015,-252.074 317.616,-261.712 324.586,-262.352"/>
<g id="a_edge22&#45;headlabel"><a xlink:href="dir_000013_000041.html" target="_top" xlink:title="3">
<text text-anchor="middle" x="327.085" y="-263.691" font-family="Helvetica,sans-Serif" font-size="10.00">3</text>
</a>
</g>
</g>
<!-- dir_db3a54907829b36871118d03417739cd -->
<g id="node5" class="node"><title>dir_db3a54907829b36871118d03417739cd</title>
<g id="a_node5"><a xlink:href="dir_db3a54907829b36871118d03417739cd.html" target="_top" xlink:title="client">
<polygon fill="none" stroke="red" points="563,-475 509,-475 509,-439 563,-439 563,-475"/>
<text text-anchor="middle" x="536" y="-454.5" font-family="Helvetica,sans-Serif" font-size="10.00">client</text>
</a>
</g>
</g>
<!-- dir_2c8f0fc99d1cf2e0f6564f3405184140&#45;&gt;dir_db3a54907829b36871118d03417739cd -->
<g id="edge23" class="edge"><title>dir_2c8f0fc99d1cf2e0f6564f3405184140&#45;&gt;dir_db3a54907829b36871118d03417739cd</title>
<path fill="none" stroke="black" d="M530.285,-396.041C529.251,-405.603 528.992,-417.759 529.507,-428.622"/>
<polygon fill="black" stroke="black" points="526.04,-429.202 530.28,-438.911 533.021,-428.677 526.04,-429.202"/>
<g id="a_edge23&#45;headlabel"><a xlink:href="dir_000013_000000.html" target="_top" xlink:title="5">
<text text-anchor="middle" x="522.94" y="-423.33" font-family="Helvetica,sans-Serif" font-size="10.00">5</text>
</a>
</g>
</g>
<!-- dir_e220edc87b29ed8f83fd5a560ddf76b2 -->
<g id="node6" class="node"><title>dir_e220edc87b29ed8f83fd5a560ddf76b2</title>
<g id="a_node6"><a xlink:href="dir_e220edc87b29ed8f83fd5a560ddf76b2.html" target="_top" xlink:title="items">
<polygon fill="none" stroke="red" points="339,-36 285,-36 285,-0 339,-0 339,-36"/>
<text text-anchor="middle" x="312" y="-15.5" font-family="Helvetica,sans-Serif" font-size="10.00">items</text>
</a>
</g>
</g>
<!-- dir_2c8f0fc99d1cf2e0f6564f3405184140&#45;&gt;dir_e220edc87b29ed8f83fd5a560ddf76b2 -->
<g id="edge24" class="edge"><title>dir_2c8f0fc99d1cf2e0f6564f3405184140&#45;&gt;dir_e220edc87b29ed8f83fd5a560ddf76b2</title>
<path fill="none" stroke="black" d="M572.237,-368.423C653.655,-348.1 844,-294.25 844,-235 844,-235 844,-235 844,-161 844,-58.4626 470.415,-28.0596 349.366,-20.8997"/>
<polygon fill="black" stroke="black" points="349.297,-17.3901 339.113,-20.3136 348.897,-24.3787 349.297,-17.3901"/>
<g id="a_edge24&#45;headlabel"><a xlink:href="dir_000013_000031.html" target="_top" xlink:title="1">
<text text-anchor="middle" x="353.048" y="-12.2605" font-family="Helvetica,sans-Serif" font-size="10.00">1</text>
</a>
</g>
</g>
<!-- dir_45a15a852bc80fb55f8b66b90fc237b2 -->
<g id="node7" class="node"><title>dir_45a15a852bc80fb55f8b66b90fc237b2</title>
<g id="a_node7"><a xlink:href="dir_45a15a852bc80fb55f8b66b90fc237b2.html" target="_top" xlink:title="mapobjects">
<polygon fill="none" stroke="red" points="231.5,-180 158.5,-180 158.5,-144 231.5,-144 231.5,-180"/>
<text text-anchor="middle" x="195" y="-159.5" font-family="Helvetica,sans-Serif" font-size="10.00">mapobjects</text>
</a>
</g>
</g>
<!-- dir_2c8f0fc99d1cf2e0f6564f3405184140&#45;&gt;dir_45a15a852bc80fb55f8b66b90fc237b2 -->
<g id="edge25" class="edge"><title>dir_2c8f0fc99d1cf2e0f6564f3405184140&#45;&gt;dir_45a15a852bc80fb55f8b66b90fc237b2</title>
<path fill="none" stroke="black" d="M516.689,-359.817C508.911,-353.829 499.532,-347.69 490,-344 418.643,-316.375 390.334,-351.686 319,-324 267.945,-304.184 250.153,-297.042 219,-252 206.309,-233.65 200.323,-208.892 197.503,-190.146"/>
<polygon fill="black" stroke="black" points="200.965,-189.632 196.21,-180.164 194.023,-190.531 200.965,-189.632"/>
<g id="a_edge25&#45;headlabel"><a xlink:href="dir_000013_000033.html" target="_top" xlink:title="13">
<text text-anchor="middle" x="204.243" y="-190.332" font-family="Helvetica,sans-Serif" font-size="10.00">13</text>
</a>
</g>
</g>
<!-- dir_41e1742e44e2de38b3bc91f993fed282 -->
<g id="node8" class="node"><title>dir_41e1742e44e2de38b3bc91f993fed282</title>
<g id="a_node8"><a xlink:href="dir_41e1742e44e2de38b3bc91f993fed282.html" target="_top" xlink:title="server">
<polygon fill="none" stroke="red" points="401,-324 347,-324 347,-288 401,-288 401,-324"/>
<text text-anchor="middle" x="374" y="-303.5" font-family="Helvetica,sans-Serif" font-size="10.00">server</text>
</a>
</g>
</g>
<!-- dir_2c8f0fc99d1cf2e0f6564f3405184140&#45;&gt;dir_41e1742e44e2de38b3bc91f993fed282 -->
<g id="edge26" class="edge"><title>dir_2c8f0fc99d1cf2e0f6564f3405184140&#45;&gt;dir_41e1742e44e2de38b3bc91f993fed282</title>
<path fill="none" stroke="black" d="M507.009,-359.85C498.849,-354.153 489.886,-348.199 481,-344 452.733,-330.642 440.936,-334.166 411.027,-325.421"/>
<polygon fill="black" stroke="black" points="411.715,-321.967 401.125,-322.281 409.599,-328.64 411.715,-321.967"/>
<g id="a_edge26&#45;headlabel"><a xlink:href="dir_000013_000110.html" target="_top" xlink:title="64">
<text text-anchor="middle" x="416" y="-317.847" font-family="Helvetica,sans-Serif" font-size="10.00">64</text>
</a>
</g>
</g>
<!-- dir_f54d74b0e9ac4c004ab42fc4ec4fcb87 -->
<g id="node9" class="node"><title>dir_f54d74b0e9ac4c004ab42fc4ec4fcb87</title>
<g id="a_node9"><a xlink:href="dir_f54d74b0e9ac4c004ab42fc4ec4fcb87.html" target="_top" xlink:title="effects">
<polygon fill="none" stroke="red" points="705,-180 651,-180 651,-144 705,-144 705,-180"/>
<text text-anchor="middle" x="678" y="-159.5" font-family="Helvetica,sans-Serif" font-size="10.00">effects</text>
</a>
</g>
</g>
<!-- dir_2c8f0fc99d1cf2e0f6564f3405184140&#45;&gt;dir_f54d74b0e9ac4c004ab42fc4ec4fcb87 -->
<g id="edge27" class="edge"><title>dir_2c8f0fc99d1cf2e0f6564f3405184140&#45;&gt;dir_f54d74b0e9ac4c004ab42fc4ec4fcb87</title>
<path fill="none" stroke="black" d="M560.858,-359.859C590.071,-338.281 637.642,-298.375 662,-252 672.069,-232.83 675.932,-208.481 677.354,-190.099"/>
<polygon fill="black" stroke="black" points="680.852,-190.235 677.938,-180.049 673.864,-189.83 680.852,-190.235"/>
<g id="a_edge27&#45;headlabel"><a xlink:href="dir_000013_000010.html" target="_top" xlink:title="2">
<text text-anchor="middle" x="683.479" y="-191.489" font-family="Helvetica,sans-Serif" font-size="10.00">2</text>
</a>
</g>
</g>
<!-- dir_67782cf2b73ff31781b25ce4541674e7 -->
<g id="node10" class="node"><title>dir_67782cf2b73ff31781b25ce4541674e7</title>
<g id="a_node10"><a xlink:href="dir_67782cf2b73ff31781b25ce4541674e7.html" target="_top" xlink:title="weapons">
<polygon fill="none" stroke="red" points="461.5,-108 402.5,-108 402.5,-72 461.5,-72 461.5,-108"/>
<text text-anchor="middle" x="432" y="-87.5" font-family="Helvetica,sans-Serif" font-size="10.00">weapons</text>
</a>
</g>
</g>
<!-- dir_2c8f0fc99d1cf2e0f6564f3405184140&#45;&gt;dir_67782cf2b73ff31781b25ce4541674e7 -->
<g id="edge28" class="edge"><title>dir_2c8f0fc99d1cf2e0f6564f3405184140&#45;&gt;dir_67782cf2b73ff31781b25ce4541674e7</title>
<path fill="none" stroke="black" d="M572.177,-362.935C592.242,-353.906 616.749,-340.731 635,-324 699.399,-264.961 769.781,-211.241 714,-144 683.672,-107.441 542.03,-95.9386 471.754,-92.4497"/>
<polygon fill="black" stroke="black" points="471.672,-88.9422 461.52,-91.9734 471.346,-95.9346 471.672,-88.9422"/>
<g id="a_edge28&#45;headlabel"><a xlink:href="dir_000013_000094.html" target="_top" xlink:title="1">
<text text-anchor="middle" x="475.394" y="-83.773" font-family="Helvetica,sans-Serif" font-size="10.00">1</text>
</a>
</g>
</g>
<!-- dir_97aefd0d527b934f1d99a682da8fe6a9 -->
<g id="node11" class="node"><title>dir_97aefd0d527b934f1d99a682da8fe6a9</title>
<g id="a_node11"><a xlink:href="dir_97aefd0d527b934f1d99a682da8fe6a9.html" target="_top" xlink:title="lib">
<polygon fill="none" stroke="red" points="542,-180 488,-180 488,-144 542,-144 542,-180"/>
<text text-anchor="middle" x="515" y="-159.5" font-family="Helvetica,sans-Serif" font-size="10.00">lib</text>
</a>
</g>
</g>
<!-- dir_2c8f0fc99d1cf2e0f6564f3405184140&#45;&gt;dir_97aefd0d527b934f1d99a682da8fe6a9 -->
<g id="edge29" class="edge"><title>dir_2c8f0fc99d1cf2e0f6564f3405184140&#45;&gt;dir_97aefd0d527b934f1d99a682da8fe6a9</title>
<path fill="none" stroke="black" d="M534.317,-359.849C530.684,-322.832 522.083,-235.181 517.687,-190.386"/>
<polygon fill="black" stroke="black" points="521.151,-189.843 516.691,-180.232 514.184,-190.526 521.151,-189.843"/>
<g id="a_edge29&#45;headlabel"><a xlink:href="dir_000013_000100.html" target="_top" xlink:title="1">
<text text-anchor="middle" x="524.328" y="-190.643" font-family="Helvetica,sans-Serif" font-size="10.00">1</text>
</a>
</g>
</g>
<!-- dir_9235eaa0c1d724c4ee31bc3cf0de8eae -->
<g id="node12" class="node"><title>dir_9235eaa0c1d724c4ee31bc3cf0de8eae</title>
<g id="a_node12"><a xlink:href="dir_9235eaa0c1d724c4ee31bc3cf0de8eae.html" target="_top" xlink:title="turrets">
<polygon fill="none" stroke="red" points="432,-180 378,-180 378,-144 432,-144 432,-180"/>
<text text-anchor="middle" x="405" y="-159.5" font-family="Helvetica,sans-Serif" font-size="10.00">turrets</text>
</a>
</g>
</g>
<!-- dir_2c8f0fc99d1cf2e0f6564f3405184140&#45;&gt;dir_9235eaa0c1d724c4ee31bc3cf0de8eae -->
<g id="edge30" class="edge"><title>dir_2c8f0fc99d1cf2e0f6564f3405184140&#45;&gt;dir_9235eaa0c1d724c4ee31bc3cf0de8eae</title>
<path fill="none" stroke="black" d="M525.501,-359.849C502.601,-322.44 448.048,-233.322 420.904,-188.98"/>
<polygon fill="black" stroke="black" points="423.755,-186.934 415.549,-180.232 417.785,-190.589 423.755,-186.934"/>
<g id="a_edge30&#45;headlabel"><a xlink:href="dir_000013_000090.html" target="_top" xlink:title="1">
<text text-anchor="middle" x="428.053" y="-186.017" font-family="Helvetica,sans-Serif" font-size="10.00">1</text>
</a>
</g>
</g>
<!-- dir_b67e4fc079c68e427acb7897e80486a7 -->
<g id="node13" class="node"><title>dir_b67e4fc079c68e427acb7897e80486a7</title>
<g id="a_node13"><a xlink:href="dir_b67e4fc079c68e427acb7897e80486a7.html" target="_top" xlink:title="mutators">
<polygon fill="none" stroke="red" points="625.5,-252 564.5,-252 564.5,-216 625.5,-216 625.5,-252"/>
<text text-anchor="middle" x="595" y="-231.5" font-family="Helvetica,sans-Serif" font-size="10.00">mutators</text>
</a>
</g>
</g>
<!-- dir_2c8f0fc99d1cf2e0f6564f3405184140&#45;&gt;dir_b67e4fc079c68e427acb7897e80486a7 -->
<g id="edge31" class="edge"><title>dir_2c8f0fc99d1cf2e0f6564f3405184140&#45;&gt;dir_b67e4fc079c68e427acb7897e80486a7</title>
<path fill="none" stroke="black" d="M543.117,-359.871C553.261,-335.457 571.971,-290.426 583.933,-261.635"/>
<polygon fill="black" stroke="black" points="587.253,-262.767 587.858,-252.189 580.789,-260.081 587.253,-262.767"/>
<g id="a_edge31&#45;headlabel"><a xlink:href="dir_000013_000043.html" target="_top" xlink:title="23">
<text text-anchor="middle" x="588.496" y="-264.676" font-family="Helvetica,sans-Serif" font-size="10.00">23</text>
</a>
</g>
</g>
<!-- dir_041ec6f984a6b19402431933346033dd&#45;&gt;dir_e220edc87b29ed8f83fd5a560ddf76b2 -->
<g id="edge1" class="edge"><title>dir_041ec6f984a6b19402431933346033dd&#45;&gt;dir_e220edc87b29ed8f83fd5a560ddf76b2</title>
<path fill="none" stroke="black" d="M243.357,-373.338C181.638,-363.452 38,-330.217 38,-235 38,-235 38,-235 38,-161 38,-55.5872 199.839,-28.3295 274.758,-21.3587"/>
<polygon fill="black" stroke="black" points="275.062,-24.8455 284.726,-20.5037 274.464,-17.8711 275.062,-24.8455"/>
<g id="a_edge1&#45;headlabel"><a xlink:href="dir_000092_000031.html" target="_top" xlink:title="1">
<text text-anchor="middle" x="271.723" y="-25.4815" font-family="Helvetica,sans-Serif" font-size="10.00">1</text>
</a>
</g>
</g>
<!-- dir_041ec6f984a6b19402431933346033dd&#45;&gt;dir_45a15a852bc80fb55f8b66b90fc237b2 -->
<g id="edge2" class="edge"><title>dir_041ec6f984a6b19402431933346033dd&#45;&gt;dir_45a15a852bc80fb55f8b66b90fc237b2</title>
<path fill="none" stroke="black" d="M251.862,-359.808C228.707,-337.584 190.967,-296.43 176,-252 169.063,-231.408 175.063,-207.254 182.102,-189.309"/>
<polygon fill="black" stroke="black" points="185.351,-190.612 186.044,-180.04 178.91,-187.873 185.351,-190.612"/>
<g id="a_edge2&#45;headlabel"><a xlink:href="dir_000092_000033.html" target="_top" xlink:title="3">
<text text-anchor="middle" x="186.557" y="-192.531" font-family="Helvetica,sans-Serif" font-size="10.00">3</text>
</a>
</g>
</g>
<!-- dir_041ec6f984a6b19402431933346033dd&#45;&gt;dir_41e1742e44e2de38b3bc91f993fed282 -->
<g id="edge3" class="edge"><title>dir_041ec6f984a6b19402431933346033dd&#45;&gt;dir_41e1742e44e2de38b3bc91f993fed282</title>
<path fill="none" stroke="black" d="M290.545,-359.697C304.006,-349.858 322.118,-337.489 338.085,-327.207"/>
<polygon fill="black" stroke="black" points="340.128,-330.055 346.691,-321.738 336.374,-324.147 340.128,-330.055"/>
<g id="a_edge3&#45;headlabel"><a xlink:href="dir_000092_000110.html" target="_top" xlink:title="6">
<text text-anchor="middle" x="338.616" y="-331.879" font-family="Helvetica,sans-Serif" font-size="10.00">6</text>
</a>
</g>
</g>
<!-- dir_041ec6f984a6b19402431933346033dd&#45;&gt;dir_67782cf2b73ff31781b25ce4541674e7 -->
<g id="edge4" class="edge"><title>dir_041ec6f984a6b19402431933346033dd&#45;&gt;dir_67782cf2b73ff31781b25ce4541674e7</title>
<path fill="none" stroke="black" d="M243.294,-364.752C225.964,-355.778 204.452,-342.025 191,-324 141.868,-258.163 96.53,-207.209 149,-144 179.444,-107.325 321.584,-95.8797 392.107,-92.4272"/>
<polygon fill="black" stroke="black" points="392.547,-95.9107 402.377,-91.9563 392.227,-88.9181 392.547,-95.9107"/>
<g id="a_edge4&#45;headlabel"><a xlink:href="dir_000092_000094.html" target="_top" xlink:title="4">
<text text-anchor="middle" x="389.087" y="-96.4116" font-family="Helvetica,sans-Serif" font-size="10.00">4</text>
</a>
</g>
</g>
<!-- dir_fe472327f69aa9464440251988e1566b&#45;&gt;dir_041ec6f984a6b19402431933346033dd -->
<g id="edge5" class="edge"><title>dir_fe472327f69aa9464440251988e1566b&#45;&gt;dir_041ec6f984a6b19402431933346033dd</title>
<path fill="none" stroke="black" d="M318.463,-252.189C309.166,-276.638 292.04,-321.673 281.102,-350.436"/>
<polygon fill="black" stroke="black" points="277.797,-349.28 277.514,-359.871 284.34,-351.769 277.797,-349.28"/>
<g id="a_edge5&#45;headlabel"><a xlink:href="dir_000041_000092.html" target="_top" xlink:title="1">
<text text-anchor="middle" x="276.421" y="-342.411" font-family="Helvetica,sans-Serif" font-size="10.00">1</text>
</a>
</g>
</g>
<!-- dir_fe472327f69aa9464440251988e1566b&#45;&gt;dir_e220edc87b29ed8f83fd5a560ddf76b2 -->
<g id="edge6" class="edge"><title>dir_fe472327f69aa9464440251988e1566b&#45;&gt;dir_e220edc87b29ed8f83fd5a560ddf76b2</title>
<path fill="none" stroke="black" d="M323.958,-215.849C321.709,-178.832 316.385,-91.1809 313.664,-46.3863"/>
<polygon fill="black" stroke="black" points="317.147,-46.0018 313.047,-36.2325 310.16,-46.4263 317.147,-46.0018"/>
<g id="a_edge6&#45;headlabel"><a xlink:href="dir_000041_000031.html" target="_top" xlink:title="2">
<text text-anchor="middle" x="320.199" y="-46.9177" font-family="Helvetica,sans-Serif" font-size="10.00">2</text>
</a>
</g>
</g>
<!-- dir_fe472327f69aa9464440251988e1566b&#45;&gt;dir_45a15a852bc80fb55f8b66b90fc237b2 -->
<g id="edge7" class="edge"><title>dir_fe472327f69aa9464440251988e1566b&#45;&gt;dir_45a15a852bc80fb55f8b66b90fc237b2</title>
<path fill="none" stroke="black" d="M293.862,-216.233C276.433,-206.848 254.497,-195.037 235.718,-184.925"/>
<polygon fill="black" stroke="black" points="237.251,-181.776 226.787,-180.116 233.933,-187.939 237.251,-181.776"/>
<g id="a_edge7&#45;headlabel"><a xlink:href="dir_000041_000033.html" target="_top" xlink:title="2">
<text text-anchor="middle" x="241.762" y="-178.48" font-family="Helvetica,sans-Serif" font-size="10.00">2</text>
</a>
</g>
</g>
<!-- dir_fe472327f69aa9464440251988e1566b&#45;&gt;dir_41e1742e44e2de38b3bc91f993fed282 -->
<g id="edge8" class="edge"><title>dir_fe472327f69aa9464440251988e1566b&#45;&gt;dir_41e1742e44e2de38b3bc91f993fed282</title>
<path fill="none" stroke="black" d="M342.868,-252.104C349.394,-260.214 356.515,-270.076 362.399,-279.078"/>
<polygon fill="black" stroke="black" points="359.525,-281.084 367.803,-287.697 365.456,-277.365 359.525,-281.084"/>
<g id="a_edge8&#45;headlabel"><a xlink:href="dir_000041_000110.html" target="_top" xlink:title="11">
<text text-anchor="middle" x="355.21" y="-277.047" font-family="Helvetica,sans-Serif" font-size="10.00">11</text>
</a>
</g>
</g>
<!-- dir_fe472327f69aa9464440251988e1566b&#45;&gt;dir_67782cf2b73ff31781b25ce4541674e7 -->
<g id="edge9" class="edge"><title>dir_fe472327f69aa9464440251988e1566b&#45;&gt;dir_67782cf2b73ff31781b25ce4541674e7</title>
<path fill="none" stroke="black" d="M331.072,-215.739C338.241,-196.88 351.445,-166.375 369,-144 377.577,-133.068 388.726,-122.795 399.255,-114.258"/>
<polygon fill="black" stroke="black" points="401.421,-117.008 407.134,-108.085 397.104,-111.497 401.421,-117.008"/>
<g id="a_edge9&#45;headlabel"><a xlink:href="dir_000041_000094.html" target="_top" xlink:title="5">
<text text-anchor="middle" x="400.342" y="-118.96" font-family="Helvetica,sans-Serif" font-size="10.00">5</text>
</a>
</g>
</g>
<!-- dir_fe472327f69aa9464440251988e1566b&#45;&gt;dir_97aefd0d527b934f1d99a682da8fe6a9 -->
<g id="edge10" class="edge"><title>dir_fe472327f69aa9464440251988e1566b&#45;&gt;dir_97aefd0d527b934f1d99a682da8fe6a9</title>
<path fill="none" stroke="black" d="M356.375,-221.441C389.902,-209.089 442.997,-189.527 478.404,-176.483"/>
<polygon fill="black" stroke="black" points="479.718,-179.729 487.891,-172.987 477.298,-173.16 479.718,-179.729"/>
<g id="a_edge10&#45;headlabel"><a xlink:href="dir_000041_000100.html" target="_top" xlink:title="2">
<text text-anchor="middle" x="477.326" y="-181.136" font-family="Helvetica,sans-Serif" font-size="10.00">2</text>
</a>
</g>
</g>
<!-- dir_fe472327f69aa9464440251988e1566b&#45;&gt;dir_9235eaa0c1d724c4ee31bc3cf0de8eae -->
<g id="edge11" class="edge"><title>dir_fe472327f69aa9464440251988e1566b&#45;&gt;dir_9235eaa0c1d724c4ee31bc3cf0de8eae</title>
<path fill="none" stroke="black" d="M344.775,-215.697C354.754,-206.965 367.011,-196.24 377.857,-186.75"/>
<polygon fill="black" stroke="black" points="380.231,-189.323 385.452,-180.104 375.622,-184.055 380.231,-189.323"/>
<g id="a_edge11&#45;headlabel"><a xlink:href="dir_000041_000090.html" target="_top" xlink:title="2">
<text text-anchor="middle" x="379.396" y="-191.327" font-family="Helvetica,sans-Serif" font-size="10.00">2</text>
</a>
</g>
</g>
<!-- dir_db3a54907829b36871118d03417739cd&#45;&gt;dir_9658490e6277b5140a6664b0ad39b8f9 -->
<g id="edge14" class="edge"><title>dir_db3a54907829b36871118d03417739cd&#45;&gt;dir_9658490e6277b5140a6664b0ad39b8f9</title>
<path fill="none" stroke="black" d="M508.935,-442.797C502.799,-439.312 496.48,-435.308 491,-431 480.99,-423.13 471.217,-413.11 463.131,-403.97"/>
<polygon fill="black" stroke="black" points="465.665,-401.548 456.495,-396.241 460.354,-406.108 465.665,-401.548"/>
<g id="a_edge14&#45;headlabel"><a xlink:href="dir_000000_000012.html" target="_top" xlink:title="6">
<text text-anchor="middle" x="470.161" y="-399.926" font-family="Helvetica,sans-Serif" font-size="10.00">6</text>
</a>
</g>
</g>
<!-- dir_db3a54907829b36871118d03417739cd&#45;&gt;dir_2c8f0fc99d1cf2e0f6564f3405184140 -->
<g id="edge13" class="edge"><title>dir_db3a54907829b36871118d03417739cd&#45;&gt;dir_2c8f0fc99d1cf2e0f6564f3405184140</title>
<path fill="none" stroke="black" d="M541.72,-438.911C542.751,-429.341 543.008,-417.183 542.491,-406.323"/>
<polygon fill="black" stroke="black" points="545.957,-405.749 541.715,-396.041 538.977,-406.276 545.957,-405.749"/>
<g id="a_edge13&#45;headlabel"><a xlink:href="dir_000000_000013.html" target="_top" xlink:title="2">
<text text-anchor="middle" x="549.059" y="-406.62" font-family="Helvetica,sans-Serif" font-size="10.00">2</text>
</a>
</g>
</g>
<!-- dir_db3a54907829b36871118d03417739cd&#45;&gt;dir_041ec6f984a6b19402431933346033dd -->
<g id="edge12" class="edge"><title>dir_db3a54907829b36871118d03417739cd&#45;&gt;dir_041ec6f984a6b19402431933346033dd</title>
<path fill="none" stroke="black" d="M508.761,-453.196C479.476,-449.739 431.767,-442.819 392,-431 362.913,-422.355 331.465,-408.698 307.921,-397.549"/>
<polygon fill="black" stroke="black" points="309.196,-394.279 298.666,-393.104 306.165,-400.589 309.196,-394.279"/>
<g id="a_edge12&#45;headlabel"><a xlink:href="dir_000000_000092.html" target="_top" xlink:title="5">
<text text-anchor="middle" x="313.665" y="-390.776" font-family="Helvetica,sans-Serif" font-size="10.00">5</text>
</a>
</g>
</g>
<!-- dir_db3a54907829b36871118d03417739cd&#45;&gt;dir_e220edc87b29ed8f83fd5a560ddf76b2 -->
<g id="edge15" class="edge"><title>dir_db3a54907829b36871118d03417739cd&#45;&gt;dir_e220edc87b29ed8f83fd5a560ddf76b2</title>
<path fill="none" stroke="black" d="M508.912,-456.008C435.912,-455.733 236.461,-452.935 175,-431 85.2224,-398.959 0,-402.324 0,-307 0,-307 0,-307 0,-161 0,-41.556 191.77,-22.119 274.617,-19.295"/>
<polygon fill="black" stroke="black" points="274.958,-22.787 284.858,-19.0124 274.765,-15.7897 274.958,-22.787"/>
<g id="a_edge15&#45;headlabel"><a xlink:href="dir_000000_000031.html" target="_top" xlink:title="5">
<text text-anchor="middle" x="271.443" y="-23.2243" font-family="Helvetica,sans-Serif" font-size="10.00">5</text>
</a>
</g>
</g>
<!-- dir_db3a54907829b36871118d03417739cd&#45;&gt;dir_45a15a852bc80fb55f8b66b90fc237b2 -->
<g id="edge16" class="edge"><title>dir_db3a54907829b36871118d03417739cd&#45;&gt;dir_45a15a852bc80fb55f8b66b90fc237b2</title>
<path fill="none" stroke="black" d="M508.944,-455.366C438.954,-453.502 255.855,-447.125 234,-431 165.892,-380.751 181.504,-335.71 169,-252 166.636,-236.176 165.383,-231.586 169,-216 171.098,-206.959 174.966,-197.681 179.088,-189.467"/>
<polygon fill="black" stroke="black" points="182.314,-190.857 183.954,-180.389 176.145,-187.55 182.314,-190.857"/>
<g id="a_edge16&#45;headlabel"><a xlink:href="dir_000000_000033.html" target="_top" xlink:title="5">
<text text-anchor="middle" x="183.119" y="-192.866" font-family="Helvetica,sans-Serif" font-size="10.00">5</text>
</a>
</g>
</g>
<!-- dir_db3a54907829b36871118d03417739cd&#45;&gt;dir_f54d74b0e9ac4c004ab42fc4ec4fcb87 -->
<g id="edge17" class="edge"><title>dir_db3a54907829b36871118d03417739cd&#45;&gt;dir_f54d74b0e9ac4c004ab42fc4ec4fcb87</title>
<path fill="none" stroke="black" d="M563.015,-453.36C592.922,-449.896 638.561,-442.825 651,-431 717.25,-368.021 698.071,-244.971 685.297,-190.302"/>
<polygon fill="black" stroke="black" points="688.631,-189.2 682.855,-180.318 681.831,-190.863 688.631,-189.2"/>
<g id="a_edge17&#45;headlabel"><a xlink:href="dir_000000_000010.html" target="_top" xlink:title="9">
<text text-anchor="middle" x="692.243" y="-189.517" font-family="Helvetica,sans-Serif" font-size="10.00">9</text>
</a>
</g>
</g>
<!-- dir_db3a54907829b36871118d03417739cd&#45;&gt;dir_67782cf2b73ff31781b25ce4541674e7 -->
<g id="edge18" class="edge"><title>dir_db3a54907829b36871118d03417739cd&#45;&gt;dir_67782cf2b73ff31781b25ce4541674e7</title>
<path fill="none" stroke="black" d="M563.087,-455.037C601.608,-453.098 669.497,-447.393 687,-431 781.557,-342.438 821.426,-243.118 738,-144 704.385,-104.062 546.542,-94.2187 471.64,-91.793"/>
<polygon fill="black" stroke="black" points="471.742,-88.2946 461.643,-91.4976 471.535,-95.2916 471.742,-88.2946"/>
<g id="a_edge18&#45;headlabel"><a xlink:href="dir_000000_000094.html" target="_top" xlink:title="6">
<text text-anchor="middle" x="475.419" y="-83.0627" font-family="Helvetica,sans-Serif" font-size="10.00">6</text>
</a>
</g>
</g>
<!-- dir_db3a54907829b36871118d03417739cd&#45;&gt;dir_97aefd0d527b934f1d99a682da8fe6a9 -->
<g id="edge19" class="edge"><title>dir_db3a54907829b36871118d03417739cd&#45;&gt;dir_97aefd0d527b934f1d99a682da8fe6a9</title>
<path fill="none" stroke="black" d="M563.272,-453.995C579.612,-451.294 599.403,-445.097 611,-431 672.054,-356.786 686.335,-296.6 634,-216 616.01,-188.294 579.81,-174.951 552.036,-168.599"/>
<polygon fill="black" stroke="black" points="552.737,-165.17 542.234,-166.562 551.313,-172.024 552.737,-165.17"/>
<g id="a_edge19&#45;headlabel"><a xlink:href="dir_000000_000100.html" target="_top" xlink:title="33">
<text text-anchor="middle" x="556.834" y="-160.622" font-family="Helvetica,sans-Serif" font-size="10.00">33</text>
</a>
</g>
</g>
<!-- dir_db3a54907829b36871118d03417739cd&#45;&gt;dir_b67e4fc079c68e427acb7897e80486a7 -->
<g id="edge20" class="edge"><title>dir_db3a54907829b36871118d03417739cd&#45;&gt;dir_b67e4fc079c68e427acb7897e80486a7</title>
<path fill="none" stroke="black" d="M563.079,-447.79C571.134,-443.988 579.107,-438.578 584,-431 617.517,-379.091 609.078,-302.403 601.298,-262.068"/>
<polygon fill="black" stroke="black" points="604.705,-261.257 599.259,-252.169 597.849,-262.669 604.705,-261.257"/>
<g id="a_edge20&#45;headlabel"><a xlink:href="dir_000000_000043.html" target="_top" xlink:title="8">
<text text-anchor="middle" x="608.211" y="-261.705" font-family="Helvetica,sans-Serif" font-size="10.00">8</text>
</a>
</g>
</g>
<!-- dir_41e1742e44e2de38b3bc91f993fed282&#45;&gt;dir_2c8f0fc99d1cf2e0f6564f3405184140 -->
<g id="edge34" class="edge"><title>dir_41e1742e44e2de38b3bc91f993fed282&#45;&gt;dir_2c8f0fc99d1cf2e0f6564f3405184140</title>
<path fill="none" stroke="black" d="M401.01,-315.315C408.535,-318.265 416.556,-321.477 424,-324 456.672,-335.075 467.809,-329.261 499,-344 504.693,-346.69 510.417,-350.1 515.659,-353.702"/>
<polygon fill="black" stroke="black" points="513.822,-356.697 523.937,-359.85 517.996,-351.078 513.822,-356.697"/>
<g id="a_edge34&#45;headlabel"><a xlink:href="dir_000110_000013.html" target="_top" xlink:title="3">
<text text-anchor="middle" x="509.243" y="-354.333" font-family="Helvetica,sans-Serif" font-size="10.00">3</text>
</a>
</g>
</g>
<!-- dir_41e1742e44e2de38b3bc91f993fed282&#45;&gt;dir_041ec6f984a6b19402431933346033dd -->
<g id="edge32" class="edge"><title>dir_41e1742e44e2de38b3bc91f993fed282&#45;&gt;dir_041ec6f984a6b19402431933346033dd</title>
<path fill="none" stroke="black" d="M354.584,-324.209C341.228,-333.976 323.253,-346.26 307.339,-356.52"/>
<polygon fill="black" stroke="black" points="305.311,-353.662 298.753,-361.983 309.069,-359.568 305.311,-353.662"/>
<g id="a_edge32&#45;headlabel"><a xlink:href="dir_000110_000092.html" target="_top" xlink:title="12">
<text text-anchor="middle" x="306.82" y="-346.837" font-family="Helvetica,sans-Serif" font-size="10.00">12</text>
</a>
</g>
</g>
<!-- dir_41e1742e44e2de38b3bc91f993fed282&#45;&gt;dir_fe472327f69aa9464440251988e1566b -->
<g id="edge33" class="edge"><title>dir_41e1742e44e2de38b3bc91f993fed282&#45;&gt;dir_fe472327f69aa9464440251988e1566b</title>
<path fill="none" stroke="black" d="M355.972,-287.697C349.436,-279.559 342.321,-269.689 336.457,-260.701"/>
<polygon fill="black" stroke="black" points="339.349,-258.725 331.078,-252.104 333.415,-262.438 339.349,-258.725"/>
<g id="a_edge33&#45;headlabel"><a xlink:href="dir_000110_000041.html" target="_top" xlink:title="14">
<text text-anchor="middle" x="343.663" y="-257.766" font-family="Helvetica,sans-Serif" font-size="10.00">14</text>
</a>
</g>
</g>
<!-- dir_41e1742e44e2de38b3bc91f993fed282&#45;&gt;dir_e220edc87b29ed8f83fd5a560ddf76b2 -->
<g id="edge35" class="edge"><title>dir_41e1742e44e2de38b3bc91f993fed282&#45;&gt;dir_e220edc87b29ed8f83fd5a560ddf76b2</title>
<path fill="none" stroke="black" d="M346.867,-297.015C325.843,-289.238 298.152,-275.139 285,-252 247.131,-185.374 279.53,-90.7904 299.35,-45.3584"/>
<polygon fill="black" stroke="black" points="302.567,-46.7378 303.477,-36.1821 296.183,-43.8665 302.567,-46.7378"/>
<g id="a_edge35&#45;headlabel"><a xlink:href="dir_000110_000031.html" target="_top" xlink:title="14">
<text text-anchor="middle" x="303.682" y="-48.6807" font-family="Helvetica,sans-Serif" font-size="10.00">14</text>
</a>
</g>
</g>
<!-- dir_41e1742e44e2de38b3bc91f993fed282&#45;&gt;dir_45a15a852bc80fb55f8b66b90fc237b2 -->
<g id="edge36" class="edge"><title>dir_41e1742e44e2de38b3bc91f993fed282&#45;&gt;dir_45a15a852bc80fb55f8b66b90fc237b2</title>
<path fill="none" stroke="black" d="M346.766,-298.193C320.245,-290.487 279.953,-275.808 252,-252 231.924,-234.901 216.425,-208.951 206.691,-189.476"/>
<polygon fill="black" stroke="black" points="209.738,-187.736 202.257,-180.234 203.427,-190.764 209.738,-187.736"/>
<g id="a_edge36&#45;headlabel"><a xlink:href="dir_000110_000033.html" target="_top" xlink:title="53">
<text text-anchor="middle" x="213.853" y="-187.249" font-family="Helvetica,sans-Serif" font-size="10.00">53</text>
</a>
</g>
</g>
<!-- dir_41e1742e44e2de38b3bc91f993fed282&#45;&gt;dir_f54d74b0e9ac4c004ab42fc4ec4fcb87 -->
<g id="edge37" class="edge"><title>dir_41e1742e44e2de38b3bc91f993fed282&#45;&gt;dir_f54d74b0e9ac4c004ab42fc4ec4fcb87</title>
<path fill="none" stroke="black" d="M401.084,-302.492C460.032,-296.565 597.596,-280.042 634,-252 653.768,-236.773 665.249,-210.307 671.494,-190.182"/>
<polygon fill="black" stroke="black" points="674.927,-190.906 674.299,-180.33 668.194,-188.989 674.927,-190.906"/>
<g id="a_edge37&#45;headlabel"><a xlink:href="dir_000110_000010.html" target="_top" xlink:title="12">
<text text-anchor="middle" x="676.674" y="-192.64" font-family="Helvetica,sans-Serif" font-size="10.00">12</text>
</a>
</g>
</g>
<!-- dir_41e1742e44e2de38b3bc91f993fed282&#45;&gt;dir_67782cf2b73ff31781b25ce4541674e7 -->
<g id="edge38" class="edge"><title>dir_41e1742e44e2de38b3bc91f993fed282&#45;&gt;dir_67782cf2b73ff31781b25ce4541674e7</title>
<path fill="none" stroke="black" d="M386.835,-287.955C403.28,-264.915 430.869,-221.881 441,-180 445.922,-159.654 443.166,-136.06 439.453,-118.279"/>
<polygon fill="black" stroke="black" points="442.807,-117.249 437.142,-108.296 435.987,-118.827 442.807,-117.249"/>
<g id="a_edge38&#45;headlabel"><a xlink:href="dir_000110_000094.html" target="_top" xlink:title="60">
<text text-anchor="middle" x="446.383" y="-117.611" font-family="Helvetica,sans-Serif" font-size="10.00">60</text>
</a>
</g>
</g>
<!-- dir_41e1742e44e2de38b3bc91f993fed282&#45;&gt;dir_97aefd0d527b934f1d99a682da8fe6a9 -->
<g id="edge39" class="edge"><title>dir_41e1742e44e2de38b3bc91f993fed282&#45;&gt;dir_97aefd0d527b934f1d99a682da8fe6a9</title>
<path fill="none" stroke="black" d="M401.262,-296.11C423.307,-287.735 453.882,-273.27 474,-252 490.548,-234.504 501.332,-209.144 507.666,-189.967"/>
<polygon fill="black" stroke="black" points="511.042,-190.895 510.658,-180.307 504.356,-188.824 511.042,-190.895"/>
<g id="a_edge39&#45;headlabel"><a xlink:href="dir_000110_000100.html" target="_top" xlink:title="37">
<text text-anchor="middle" x="512.691" y="-192.669" font-family="Helvetica,sans-Serif" font-size="10.00">37</text>
</a>
</g>
</g>
<!-- dir_41e1742e44e2de38b3bc91f993fed282&#45;&gt;dir_9235eaa0c1d724c4ee31bc3cf0de8eae -->
<g id="edge40" class="edge"><title>dir_41e1742e44e2de38b3bc91f993fed282&#45;&gt;dir_9235eaa0c1d724c4ee31bc3cf0de8eae</title>
<path fill="none" stroke="black" d="M377.739,-287.871C383.046,-263.564 392.814,-218.819 399.103,-190.013"/>
<polygon fill="black" stroke="black" points="402.534,-190.706 401.247,-180.189 395.695,-189.213 402.534,-190.706"/>
<g id="a_edge40&#45;headlabel"><a xlink:href="dir_000110_000090.html" target="_top" xlink:title="1">
<text text-anchor="middle" x="404.541" y="-192.323" font-family="Helvetica,sans-Serif" font-size="10.00">1</text>
</a>
</g>
</g>
<!-- dir_41e1742e44e2de38b3bc91f993fed282&#45;&gt;dir_b67e4fc079c68e427acb7897e80486a7 -->
<g id="edge41" class="edge"><title>dir_41e1742e44e2de38b3bc91f993fed282&#45;&gt;dir_b67e4fc079c68e427acb7897e80486a7</title>
<path fill="none" stroke="black" d="M401.207,-294.821C439.686,-281.884 509.904,-259.624 554.496,-246.211"/>
<polygon fill="black" stroke="black" points="555.569,-249.544 564.148,-243.328 553.565,-242.836 555.569,-249.544"/>
<g id="a_edge41&#45;headlabel"><a xlink:href="dir_000110_000043.html" target="_top" xlink:title="16">
<text text-anchor="middle" x="552.937" y="-250.793" font-family="Helvetica,sans-Serif" font-size="10.00">16</text>
</a>
</g>
</g>
<!-- dir_67782cf2b73ff31781b25ce4541674e7&#45;&gt;dir_e220edc87b29ed8f83fd5a560ddf76b2 -->
<g id="edge42" class="edge"><title>dir_67782cf2b73ff31781b25ce4541674e7&#45;&gt;dir_e220edc87b29ed8f83fd5a560ddf76b2</title>
<path fill="none" stroke="black" d="M402.645,-71.8761C386.1,-62.2252 365.307,-50.0956 347.81,-39.8891"/>
<polygon fill="black" stroke="black" points="349.402,-36.7658 339,-34.7503 345.875,-42.8123 349.402,-36.7658"/>
<g id="a_edge42&#45;headlabel"><a xlink:href="dir_000094_000031.html" target="_top" xlink:title="2">
<text text-anchor="middle" x="353.937" y="-33.6245" font-family="Helvetica,sans-Serif" font-size="10.00">2</text>
</a>
</g>
</g>
<!-- dir_9235eaa0c1d724c4ee31bc3cf0de8eae&#45;&gt;dir_67782cf2b73ff31781b25ce4541674e7 -->
<g id="edge43" class="edge"><title>dir_9235eaa0c1d724c4ee31bc3cf0de8eae&#45;&gt;dir_67782cf2b73ff31781b25ce4541674e7</title>
<path fill="none" stroke="black" d="M411.674,-143.697C414.715,-135.813 418.383,-126.304 421.761,-117.546"/>
<polygon fill="black" stroke="black" points="425.069,-118.694 425.403,-108.104 418.538,-116.175 425.069,-118.694"/>
<g id="a_edge43&#45;headlabel"><a xlink:href="dir_000090_000094.html" target="_top" xlink:title="1">
<text text-anchor="middle" x="426.425" y="-120.569" font-family="Helvetica,sans-Serif" font-size="10.00">1</text>
</a>
</g>
</g>
<!-- dir_b67e4fc079c68e427acb7897e80486a7&#45;&gt;dir_e220edc87b29ed8f83fd5a560ddf76b2 -->
<g id="edge44" class="edge"><title>dir_b67e4fc079c68e427acb7897e80486a7&#45;&gt;dir_e220edc87b29ed8f83fd5a560ddf76b2</title>
<path fill="none" stroke="black" d="M595.527,-215.802C595.299,-196.722 592.436,-165.76 578,-144 525.576,-64.9821 409.085,-34.815 349.173,-24.2148"/>
<polygon fill="black" stroke="black" points="349.46,-20.7142 339.019,-22.5107 348.302,-27.6177 349.46,-20.7142"/>
<g id="a_edge44&#45;headlabel"><a xlink:href="dir_000043_000031.html" target="_top" xlink:title="5">
<text text-anchor="middle" x="353.475" y="-16.009" font-family="Helvetica,sans-Serif" font-size="10.00">5</text>
</a>
</g>
</g>
<!-- dir_b67e4fc079c68e427acb7897e80486a7&#45;&gt;dir_45a15a852bc80fb55f8b66b90fc237b2 -->
<g id="edge45" class="edge"><title>dir_b67e4fc079c68e427acb7897e80486a7&#45;&gt;dir_45a15a852bc80fb55f8b66b90fc237b2</title>
<path fill="none" stroke="black" d="M564.277,-227.623C494.558,-215.423 324.031,-185.58 241.396,-171.119"/>
<polygon fill="black" stroke="black" points="241.982,-167.669 231.529,-169.392 240.776,-174.564 241.982,-167.669"/>
<g id="a_edge45&#45;headlabel"><a xlink:href="dir_000043_000033.html" target="_top" xlink:title="2">
<text text-anchor="middle" x="246.012" y="-162.992" font-family="Helvetica,sans-Serif" font-size="10.00">2</text>
</a>
</g>
</g>
<!-- dir_b67e4fc079c68e427acb7897e80486a7&#45;&gt;dir_41e1742e44e2de38b3bc91f993fed282 -->
<g id="edge46" class="edge"><title>dir_b67e4fc079c68e427acb7897e80486a7&#45;&gt;dir_41e1742e44e2de38b3bc91f993fed282</title>
<path fill="none" stroke="black" d="M564.362,-246.329C524.166,-259.767 454.011,-281.966 410.934,-294.86"/>
<polygon fill="black" stroke="black" points="409.716,-291.571 401.126,-297.772 411.708,-298.281 409.716,-291.571"/>
<g id="a_edge46&#45;headlabel"><a xlink:href="dir_000043_000110.html" target="_top" xlink:title="9">
<text text-anchor="middle" x="412.354" y="-285.326" font-family="Helvetica,sans-Serif" font-size="10.00">9</text>
</a>
</g>
</g>
<!-- dir_b67e4fc079c68e427acb7897e80486a7&#45;&gt;dir_f54d74b0e9ac4c004ab42fc4ec4fcb87 -->
<g id="edge47" class="edge"><title>dir_b67e4fc079c68e427acb7897e80486a7&#45;&gt;dir_f54d74b0e9ac4c004ab42fc4ec4fcb87</title>
<path fill="none" stroke="black" d="M615.517,-215.697C625.869,-206.965 638.586,-196.24 649.839,-186.75"/>
<polygon fill="black" stroke="black" points="652.331,-189.227 657.719,-180.104 647.818,-183.876 652.331,-189.227"/>
<g id="a_edge47&#45;headlabel"><a xlink:href="dir_000043_000010.html" target="_top" xlink:title="1">
<text text-anchor="middle" x="651.414" y="-191.215" font-family="Helvetica,sans-Serif" font-size="10.00">1</text>
</a>
</g>
</g>
<!-- dir_b67e4fc079c68e427acb7897e80486a7&#45;&gt;dir_67782cf2b73ff31781b25ce4541674e7 -->
<g id="edge48" class="edge"><title>dir_b67e4fc079c68e427acb7897e80486a7&#45;&gt;dir_67782cf2b73ff31781b25ce4541674e7</title>
<path fill="none" stroke="black" d="M590.38,-215.792C584.306,-196.121 571.883,-164.061 551,-144 528.826,-122.699 496.642,-109.075 471.334,-100.981"/>
<polygon fill="black" stroke="black" points="472.244,-97.5998 461.658,-98.0454 470.211,-104.298 472.244,-97.5998"/>
<g id="a_edge48&#45;headlabel"><a xlink:href="dir_000043_000094.html" target="_top" xlink:title="2">
<text text-anchor="middle" x="476.508" y="-93.4265" font-family="Helvetica,sans-Serif" font-size="10.00">2</text>
</a>
</g>
</g>
<!-- dir_b67e4fc079c68e427acb7897e80486a7&#45;&gt;dir_97aefd0d527b934f1d99a682da8fe6a9 -->
<g id="edge49" class="edge"><title>dir_b67e4fc079c68e427acb7897e80486a7&#45;&gt;dir_97aefd0d527b934f1d99a682da8fe6a9</title>
<path fill="none" stroke="black" d="M575.225,-215.697C565.246,-206.965 552.989,-196.24 542.143,-186.75"/>
<polygon fill="black" stroke="black" points="544.378,-184.055 534.548,-180.104 539.769,-189.323 544.378,-184.055"/>
<g id="a_edge49&#45;headlabel"><a xlink:href="dir_000043_000100.html" target="_top" xlink:title="1">
<text text-anchor="middle" x="548.953" y="-181.786" font-family="Helvetica,sans-Serif" font-size="10.00">1</text>
</a>
</g>
</g>
</g>
</svg>
        <g id="navigator" transform="translate(0 0)" fill="#404254">
                <rect fill="#f2f5e9" fill-opacity="0.5" stroke="#606060" stroke-width=".5" x="0" y="0" width="60" height="60"/>
                <use id="zoomplus" xlink:href="#zoomPlus" x="17" y="9" onmousedown="handleZoom(evt,'in')"/>
                <use id="zoomminus" xlink:href="#zoomMin" x="42" y="9" onmousedown="handleZoom(evt,'out')"/>
                <use id="reset" xlink:href="#resetDef" x="30" y="36" onmousedown="handleReset()"/>
                <g id="arrowUp" xlink:href="#dirArrow" transform="translate(30 24)" onmousedown="handlePan(0,-1)">
                  <use xlink:href="#rim" fill="#404040">
                        <set attributeName="fill" to="#808080" begin="arrowUp.mouseover" end="arrowUp.mouseout"/>
                  </use>
                  <path fill="none" stroke="white" stroke-width="1.5" d="M0,-3.0v7 M-2.5,-0.5L0,-3.0L2.5,-0.5"/>
                </g>
                <g id="arrowRight" xlink:href="#dirArrow" transform="rotate(90) translate(36 -43)" onmousedown="handlePan(1,0)">
                  <use xlink:href="#rim" fill="#404040">
                        <set attributeName="fill" to="#808080" begin="arrowRight.mouseover" end="arrowRight.mouseout"/>
                  </use>
                  <path fill="none" stroke="white" stroke-width="1.5" d="M0,-3.0v7 M-2.5,-0.5L0,-3.0L2.5,-0.5"/>
                </g>
                <g id="arrowDown" xlink:href="#dirArrow" transform="rotate(180) translate(-30 -48)" onmousedown="handlePan(0,1)">
                  <use xlink:href="#rim" fill="#404040">
                        <set attributeName="fill" to="#808080" begin="arrowDown.mouseover" end="arrowDown.mouseout"/>
                  </use>
                  <path fill="none" stroke="white" stroke-width="1.5" d="M0,-3.0v7 M-2.5,-0.5L0,-3.0L2.5,-0.5"/>
                </g>
                <g id="arrowLeft" xlink:href="#dirArrow" transform="rotate(270) translate(-36 17)" onmousedown="handlePan(-1,0)">
                  <use xlink:href="#rim" fill="#404040">
                        <set attributeName="fill" to="#808080" begin="arrowLeft.mouseover" end="arrowLeft.mouseout"/>
                  </use>
                  <path fill="none" stroke="white" stroke-width="1.5" d="M0,-3.0v7 M-2.5,-0.5L0,-3.0L2.5,-0.5"/>
                </g>
        </g>
        <svg viewBox="0 0 15 15" width="100%" height="30px" preserveAspectRatio="xMaxYMin meet">
         <g id="arrow_out" transform="scale(0.3 0.3)">
          <a xlink:href="dir_9658490e6277b5140a6664b0ad39b8f9_dep_org.svg" target="_base">
           <rect id="button" ry="5" rx="5" y="6" x="6" height="38" width="38"
                fill="#f2f5e9" fill-opacity="0.5" stroke="#606060" stroke-width="1.0"/>
           <path id="arrow"
             d="M 11.500037,31.436501 C 11.940474,20.09759 22.043105,11.32322 32.158766,21.979434 L 37.068811,17.246167 C 37.068811,17.246167 37.088388,32 37.088388,32 L 22.160133,31.978069 C 22.160133,31.978069 26.997745,27.140456 26.997745,27.140456 C 18.528582,18.264221 13.291696,25.230495 11.500037,31.436501 z"
             style="fill:#404040;"/>
          </a>
         </g>
        </svg>
</svg>
