<?xml version="1.0" encoding="UTF-8" standalone="no"?>
<!DOCTYPE svg PUBLIC "-//W3C//DTD SVG 1.1//EN"
 "http://www.w3.org/Graphics/SVG/1.1/DTD/svg11.dtd">
<!-- Generated by graphviz version 2.26.3 (20100126.1600)
 -->
<!-- Title: G Pages: 1 -->
<svg width="276pt" height="30pt"
 viewBox="0.00 0.00 276.00 30.00" xmlns="http://www.w3.org/2000/svg" xmlns:xlink="http://www.w3.org/1999/xlink">
<g id="graph1" class="graph" transform="scale(1 1) rotate(0) translate(4 26)">
<title>G</title>
<!-- Node1 -->
<g id="node1" class="node"><title>Node1</title>
<polygon fill="#bfbfbf" stroke="black" points="0,-0.5 0,-21.5 62,-21.5 62,-0.5 0,-0.5"/>
<text text-anchor="middle" x="31" y="-8.5" font-family="Helvetica,sans-Serif" font-size="10.00">clientstate</text>
</g>
<!-- Node2 -->
<g id="node3" class="node"><title>Node2</title>
<a xlink:href="menu_8qc.html#afa7ffdd1355d130cff49d2b0415d80e6" target="_top" xlink:title="m_gamestatus">
<polygon fill="none" stroke="black" points="98.5,-0.5 98.5,-21.5 179.5,-21.5 179.5,-0.5 98.5,-0.5"/>
<text text-anchor="middle" x="139" y="-8.5" font-family="Helvetica,sans-Serif" font-size="10.00">m_gamestatus</text>
</a>
</g>
<!-- Node1&#45;&gt;Node2 -->
<g id="edge2" class="edge"><title>Node1&#45;&gt;Node2</title>
<path fill="none" stroke="midnightblue" d="M72.3035,-11C80.7852,-11 89.7099,-11 98.1746,-11"/>
<polygon fill="midnightblue" stroke="midnightblue" points="72.2381,-7.5001 62.2381,-11 72.238,-14.5001 72.2381,-7.5001"/>
</g>
<!-- Node3 -->
<g id="node5" class="node"><title>Node3</title>
<a xlink:href="menu_8qc.html#a844e5015c7d134d4dc7a682948215763" target="_top" xlink:title="m_draw">
<polygon fill="none" stroke="black" points="216.5,-0.5 216.5,-21.5 267.5,-21.5 267.5,-0.5 216.5,-0.5"/>
<text text-anchor="middle" x="242" y="-8.5" font-family="Helvetica,sans-Serif" font-size="10.00">m_draw</text>
</a>
</g>
<!-- Node2&#45;&gt;Node3 -->
<g id="edge4" class="edge"><title>Node2&#45;&gt;Node3</title>
<path fill="none" stroke="midnightblue" d="M189.989,-11C199.158,-11 208.349,-11 216.399,-11"/>
<polygon fill="midnightblue" stroke="midnightblue" points="189.708,-7.5001 179.708,-11 189.708,-14.5001 189.708,-7.5001"/>
</g>
</g>
</svg>
