<?xml version="1.0" encoding="UTF-8" standalone="no"?>
<!DOCTYPE svg PUBLIC "-//W3C//DTD SVG 1.1//EN"
 "http://www.w3.org/Graphics/SVG/1.1/DTD/svg11.dtd">
<!-- Generated by graphviz version 2.26.3 (20100126.1600)
 -->
<!-- Title: G Pages: 1 -->
<svg width="354pt" height="320pt"
 viewBox="0.00 0.00 354.11 320.00" xmlns="http://www.w3.org/2000/svg" xmlns:xlink="http://www.w3.org/1999/xlink">
<g id="graph1" class="graph" transform="scale(1 1) rotate(0) translate(4 316)">
<title>G</title>
<!-- Node1 -->
<g id="node1" class="node"><title>Node1</title>
<polygon fill="#bfbfbf" stroke="black" points="85.6058,-290.5 85.6058,-311.5 166.606,-311.5 166.606,-290.5 85.6058,-290.5"/>
<text text-anchor="middle" x="126.106" y="-298.5" font-family="Helvetica,sans-Serif" font-size="10.00">menu/menu.qh</text>
</g>
<!-- Node2 -->
<g id="node3" class="node"><title>Node2</title>
<a xlink:href="animhost_8qc.html" target="_top" xlink:title="menu/anim/animhost.qc">
<polygon fill="none" stroke="black" points="65.6058,-232.5 65.6058,-253.5 186.606,-253.5 186.606,-232.5 65.6058,-232.5"/>
<text text-anchor="middle" x="126.106" y="-240.5" font-family="Helvetica,sans-Serif" font-size="10.00">menu/anim/animhost.qc</text>
</a>
</g>
<!-- Node1&#45;&gt;Node2 -->
<g id="edge2" class="edge"><title>Node1&#45;&gt;Node2</title>
<path fill="none" stroke="midnightblue" d="M126.106,-280.191C126.106,-271.168 126.106,-260.994 126.106,-253.571"/>
<polygon fill="midnightblue" stroke="midnightblue" points="122.606,-280.362 126.106,-290.362 129.606,-280.362 122.606,-280.362"/>
</g>
<!-- Node5 -->
<g id="node9" class="node"><title>Node5</title>
<a xlink:href="menu__cmd_8qc.html" target="_top" xlink:title="menu/command/menu_cmd.qc">
<polygon fill="none" stroke="black" points="125.606,-58.5 125.606,-79.5 276.606,-79.5 276.606,-58.5 125.606,-58.5"/>
<text text-anchor="middle" x="201.106" y="-66.5" font-family="Helvetica,sans-Serif" font-size="10.00">menu/command/menu_cmd.qc</text>
</a>
</g>
<!-- Node1&#45;&gt;Node5 -->
<g id="edge16" class="edge"><title>Node1&#45;&gt;Node5</title>
<path fill="none" stroke="midnightblue" d="M161.337,-285.634C174.293,-278.08 187.617,-267.622 195.106,-254 227.305,-195.426 211.141,-109.906 203.948,-79.895"/>
<polygon fill="midnightblue" stroke="midnightblue" points="159.639,-282.572 152.502,-290.402 162.964,-288.732 159.639,-282.572"/>
</g>
<!-- Node6 -->
<g id="node11" class="node"><title>Node6</title>
<a xlink:href="menu_2command_2all_8qc.html" target="_top" xlink:title="menu/command/all.qc">
<polygon fill="none" stroke="black" points="43.6058,-0.5 43.6058,-21.5 156.606,-21.5 156.606,-0.5 43.6058,-0.5"/>
<text text-anchor="middle" x="100.106" y="-8.5" font-family="Helvetica,sans-Serif" font-size="10.00">menu/command/all.qc</text>
</a>
</g>
<!-- Node1&#45;&gt;Node6 -->
<g id="edge14" class="edge"><title>Node1&#45;&gt;Node6</title>
<path fill="none" stroke="midnightblue" d="M89.9834,-286.201C52.7516,-268.264 0.1058,-234.202 0.1058,-185 0.1058,-185 0.1058,-185 0.1058,-127 0.1058,-95.1919 -0.3174,-83.1891 19.1058,-58 32.1115,-41.1335 53.017,-29.2216 70.3317,-21.6101"/>
<polygon fill="midnightblue" stroke="midnightblue" points="88.5308,-289.385 99.0756,-290.413 91.4733,-283.034 88.5308,-289.385"/>
</g>
<!-- Node7 -->
<g id="node13" class="node"><title>Node7</title>
<a xlink:href="menu_8qc.html" target="_top" xlink:title="menu/menu.qc">
<polygon fill="none" stroke="black" points="27.6058,-58.5 27.6058,-79.5 108.606,-79.5 108.606,-58.5 27.6058,-58.5"/>
<text text-anchor="middle" x="68.1058" y="-66.5" font-family="Helvetica,sans-Serif" font-size="10.00">menu/menu.qc</text>
</a>
</g>
<!-- Node1&#45;&gt;Node7 -->
<g id="edge18" class="edge"><title>Node1&#45;&gt;Node7</title>
<path fill="none" stroke="midnightblue" d="M90.3551,-285.583C77.46,-278.06 64.3174,-267.638 57.1058,-254 25.8218,-194.839 52.636,-109.686 63.7912,-79.8331"/>
<polygon fill="midnightblue" stroke="midnightblue" points="88.7034,-288.669 99.1669,-290.332 92.0243,-282.506 88.7034,-288.669"/>
</g>
<!-- Node8 -->
<g id="node18" class="node"><title>Node8</title>
<a xlink:href="menu_2xonotic_2util_8qc.html" target="_top" xlink:title="menu/xonotic/util.qc">
<polygon fill="none" stroke="black" points="242.106,-232.5 242.106,-253.5 346.106,-253.5 346.106,-232.5 242.106,-232.5"/>
<text text-anchor="middle" x="294.106" y="-240.5" font-family="Helvetica,sans-Serif" font-size="10.00">menu/xonotic/util.qc</text>
</a>
</g>
<!-- Node1&#45;&gt;Node8 -->
<g id="edge20" class="edge"><title>Node1&#45;&gt;Node8</title>
<path fill="none" stroke="midnightblue" d="M166.24,-287.144C196.136,-276.823 236.337,-262.944 263.625,-253.523"/>
<polygon fill="midnightblue" stroke="midnightblue" points="164.84,-283.925 156.529,-290.497 167.124,-290.542 164.84,-283.925"/>
</g>
<!-- Node3 -->
<g id="node5" class="node"><title>Node3</title>
<a xlink:href="classes_8inc.html" target="_top" xlink:title="menu/classes.inc">
<polygon fill="none" stroke="black" points="79.6058,-174.5 79.6058,-195.5 172.606,-195.5 172.606,-174.5 79.6058,-174.5"/>
<text text-anchor="middle" x="126.106" y="-182.5" font-family="Helvetica,sans-Serif" font-size="10.00">menu/classes.inc</text>
</a>
</g>
<!-- Node2&#45;&gt;Node3 -->
<g id="edge4" class="edge"><title>Node2&#45;&gt;Node3</title>
<path fill="none" stroke="midnightblue" d="M126.106,-222.191C126.106,-213.168 126.106,-202.994 126.106,-195.571"/>
<polygon fill="midnightblue" stroke="midnightblue" points="122.606,-222.362 126.106,-232.362 129.606,-222.362 122.606,-222.362"/>
</g>
<!-- Node4 -->
<g id="node7" class="node"><title>Node4</title>
<a xlink:href="classes_8qc.html" target="_top" xlink:title="menu/classes.qc">
<polygon fill="none" stroke="black" points="80.6058,-116.5 80.6058,-137.5 171.606,-137.5 171.606,-116.5 80.6058,-116.5"/>
<text text-anchor="middle" x="126.106" y="-124.5" font-family="Helvetica,sans-Serif" font-size="10.00">menu/classes.qc</text>
</a>
</g>
<!-- Node3&#45;&gt;Node4 -->
<g id="edge6" class="edge"><title>Node3&#45;&gt;Node4</title>
<path fill="none" stroke="midnightblue" d="M126.106,-164.191C126.106,-155.168 126.106,-144.994 126.106,-137.571"/>
<polygon fill="midnightblue" stroke="midnightblue" points="122.606,-164.362 126.106,-174.362 129.606,-164.362 122.606,-164.362"/>
</g>
<!-- Node4&#45;&gt;Node5 -->
<g id="edge8" class="edge"><title>Node4&#45;&gt;Node5</title>
<path fill="none" stroke="midnightblue" d="M148.12,-109.975C160.85,-100.132 176.466,-88.0545 187.437,-79.5707"/>
<polygon fill="midnightblue" stroke="midnightblue" points="145.631,-107.476 139.862,-116.362 149.914,-113.013 145.631,-107.476"/>
</g>
<!-- Node4&#45;&gt;Node7 -->
<g id="edge12" class="edge"><title>Node4&#45;&gt;Node7</title>
<path fill="none" stroke="midnightblue" d="M108.224,-109.118C98.5435,-99.4377 86.9156,-87.8098 78.6765,-79.5707"/>
<polygon fill="midnightblue" stroke="midnightblue" points="105.922,-111.766 115.468,-116.362 110.871,-106.816 105.922,-111.766"/>
</g>
<!-- Node5&#45;&gt;Node6 -->
<g id="edge10" class="edge"><title>Node5&#45;&gt;Node6</title>
<path fill="none" stroke="midnightblue" d="M173.904,-53.379C156.354,-43.3011 133.997,-30.4624 118.513,-21.5707"/>
<polygon fill="midnightblue" stroke="midnightblue" points="172.166,-56.4171 182.581,-58.3619 175.652,-50.3468 172.166,-56.4171"/>
</g>
</g>
</svg>
