<?xml version="1.0" encoding="UTF-8" standalone="no"?>
<!DOCTYPE svg PUBLIC "-//W3C//DTD SVG 1.1//EN"
 "http://www.w3.org/Graphics/SVG/1.1/DTD/svg11.dtd">
<!-- Generated by graphviz version 2.26.3 (20100126.1600)
 -->
<!-- Title: G Pages: 1 -->
<svg width="208pt" height="110pt"
 viewBox="0.00 0.00 208.00 110.00" xmlns="http://www.w3.org/2000/svg" xmlns:xlink="http://www.w3.org/1999/xlink">
<g id="graph1" class="graph" transform="scale(1 1) rotate(0) translate(4 106)">
<title>G</title>
<!-- Node1 -->
<g id="node1" class="node"><title>Node1</title>
<polygon fill="#bfbfbf" stroke="black" points="0.5,-40.5 0.5,-61.5 61.5,-61.5 61.5,-40.5 0.5,-40.5"/>
<text text-anchor="middle" x="31" y="-48.5" font-family="Helvetica,sans-Serif" font-size="10.00">path_build</text>
</g>
<!-- Node2 -->
<g id="node3" class="node"><title>Node2</title>
<a xlink:href="pathlib_8qh.html#aa96406bb9db6a09e54828c46b76cacd2" target="_top" xlink:title="buildpath_nodefilter">
<polygon fill="none" stroke="black" points="98.5,-80.5 98.5,-101.5 199.5,-101.5 199.5,-80.5 98.5,-80.5"/>
<text text-anchor="middle" x="149" y="-88.5" font-family="Helvetica,sans-Serif" font-size="10.00">buildpath_nodefilter</text>
</a>
</g>
<!-- Node1&#45;&gt;Node2 -->
<g id="edge2" class="edge"><title>Node1&#45;&gt;Node2</title>
<path fill="none" stroke="midnightblue" d="M61.6951,-61.4051C75.8112,-66.1903 92.7604,-71.9357 107.954,-77.0861"/>
<polygon fill="midnightblue" stroke="midnightblue" points="107.043,-80.4728 117.637,-80.3685 109.29,-73.8434 107.043,-80.4728"/>
</g>
<!-- Node3 -->
<g id="node5" class="node"><title>Node3</title>
<a xlink:href="common_2util_8qh.html#ac5ad73cc4800e309d3b5a9147d1ce43f" target="_top" xlink:title="entity">
<polygon fill="none" stroke="black" points="128.5,-40.5 128.5,-61.5 169.5,-61.5 169.5,-40.5 128.5,-40.5"/>
<text text-anchor="middle" x="149" y="-48.5" font-family="Helvetica,sans-Serif" font-size="10.00">entity</text>
</a>
</g>
<!-- Node1&#45;&gt;Node3 -->
<g id="edge4" class="edge"><title>Node1&#45;&gt;Node3</title>
<path fill="none" stroke="midnightblue" d="M61.6951,-51C79.1125,-51 100.843,-51 118.267,-51"/>
<polygon fill="midnightblue" stroke="midnightblue" points="118.482,-54.5001 128.482,-51 118.482,-47.5001 118.482,-54.5001"/>
</g>
<!-- Node4 -->
<g id="node7" class="node"><title>Node4</title>
<a xlink:href="menudefs_8qc.html#a60338c2153150633178af678cf3ca57c" target="_top" xlink:title="spawn">
<polygon fill="none" stroke="black" points="126.5,-0.5 126.5,-21.5 171.5,-21.5 171.5,-0.5 126.5,-0.5"/>
<text text-anchor="middle" x="149" y="-8.5" font-family="Helvetica,sans-Serif" font-size="10.00">spawn</text>
</a>
</g>
<!-- Node1&#45;&gt;Node4 -->
<g id="edge6" class="edge"><title>Node1&#45;&gt;Node4</title>
<path fill="none" stroke="midnightblue" d="M61.6951,-40.5949C78.5918,-34.8672 99.5475,-27.7635 116.693,-21.9516"/>
<polygon fill="midnightblue" stroke="midnightblue" points="117.941,-25.2243 126.288,-18.6991 115.693,-18.5948 117.941,-25.2243"/>
</g>
</g>
</svg>
