<?xml version="1.0" encoding="UTF-8" standalone="no"?>
<!DOCTYPE svg PUBLIC "-//W3C//DTD SVG 1.1//EN"
 "http://www.w3.org/Graphics/SVG/1.1/DTD/svg11.dtd">
<!-- Generated by graphviz version 2.26.3 (20100126.1600)
 -->
<!-- Title: G Pages: 1 -->
<!--zoomable 176 -->
<svg id="main" version="1.1" xmlns="http://www.w3.org/2000/svg" xmlns:xlink="http://www.w3.org/1999/xlink" xml:space="preserve" onload="init(evt)">
        <defs>
                <circle id="rim" cx="0" cy="0" r="7"/>
                <circle id="rim2" cx="0" cy="0" r="3.5"/>
                <g id="zoomPlus">
                        <use xlink:href="#rim" fill="#404040">
                                <set attributeName="fill" to="#808080" begin="zoomplus.mouseover" end="zoomplus.mouseout"/>
                        </use>
                        <path d="M-4,0h8M0,-4v8" fill="none" stroke="white" stroke-width="1.5" pointer-events="none"/>
                </g>
                <g id="zoomMin">
                        <use xlink:href="#rim" fill="#404040">
                                <set attributeName="fill" to="#808080" begin="zoomminus.mouseover" end="zoomminus.mouseout"/>
                        </use>
                        <path d="M-4,0h8" fill="none" stroke="white" stroke-width="1.5" pointer-events="none"/>
                </g>
                <g id="dirArrow">
                        <path fill="none" stroke="white" stroke-width="1.5" d="M0,-3.0v7 M-2.5,-0.5L0,-3.0L2.5,-0.5"/>
                </g>
               <g id="resetDef">
                       <use xlink:href="#rim2" fill="#404040">
                               <set attributeName="fill" to="#808080" begin="reset.mouseover" end="reset.mouseout"/>
                       </use>
               </g>
        </defs>

<script type="text/javascript">
var viewWidth = 1342;
var viewHeight = 176;
var sectionId = 'dynsection-4';
</script>
<script xlink:href="svgpan.js"/>
<svg id="graph" class="graph">
<g id="viewport">
<title>G</title>
<!-- Node1 -->
<g id="node1" class="node"><title>Node1</title>
<polygon fill="#bfbfbf" stroke="black" points="0,-66.5 0,-87.5 104,-87.5 104,-66.5 0,-66.5"/>
<text text-anchor="middle" x="52" y="-74.5" font-family="Helvetica,sans-Serif" font-size="10.00">Monster_FindTarget</text>
</g>
<!-- Node2 -->
<g id="node3" class="node"><title>Node2</title>
<a xlink:href="sv__monsters_8qc.html#a37f7dbf3b68666c1a9348403d38490b8" target="_top" xlink:title="Monster_Move">
<polygon fill="none" stroke="black" points="140.5,-66.5 140.5,-87.5 221.5,-87.5 221.5,-66.5 140.5,-66.5"/>
<text text-anchor="middle" x="181" y="-74.5" font-family="Helvetica,sans-Serif" font-size="10.00">Monster_Move</text>
</a>
</g>
<!-- Node1&#45;&gt;Node2 -->
<g id="edge2" class="edge"><title>Node1&#45;&gt;Node2</title>
<path fill="none" stroke="midnightblue" d="M114.348,-77C123.135,-77 131.974,-77 140.214,-77"/>
<polygon fill="midnightblue" stroke="midnightblue" points="114.097,-73.5001 104.097,-77 114.097,-80.5001 114.097,-73.5001"/>
</g>
<!-- Node3 -->
<g id="node5" class="node"><title>Node3</title>
<a xlink:href="sv__monsters_8qc.html#a8c66322a41d4de7d89953ee99fa3f753" target="_top" xlink:title="Monster_Think">
<polygon fill="none" stroke="black" points="258.5,-66.5 258.5,-87.5 339.5,-87.5 339.5,-66.5 258.5,-66.5"/>
<text text-anchor="middle" x="299" y="-74.5" font-family="Helvetica,sans-Serif" font-size="10.00">Monster_Think</text>
</a>
</g>
<!-- Node2&#45;&gt;Node3 -->
<g id="edge4" class="edge"><title>Node2&#45;&gt;Node3</title>
<path fill="none" stroke="midnightblue" d="M231.834,-77C240.684,-77 249.784,-77 258.316,-77"/>
<polygon fill="midnightblue" stroke="midnightblue" points="231.609,-73.5001 221.609,-77 231.609,-80.5001 231.609,-73.5001"/>
</g>
<!-- Node4 -->
<g id="node7" class="node"><title>Node4</title>
<a xlink:href="sv__monsters_8qc.html#ae8583f9bde31f60a7137868d603e2b58" target="_top" xlink:title="Monster_Spawn_Setup">
<polygon fill="none" stroke="black" points="376,-66.5 376,-87.5 494,-87.5 494,-66.5 376,-66.5"/>
<text text-anchor="middle" x="435" y="-74.5" font-family="Helvetica,sans-Serif" font-size="10.00">Monster_Spawn_Setup</text>
</a>
</g>
<!-- Node3&#45;&gt;Node4 -->
<g id="edge6" class="edge"><title>Node3&#45;&gt;Node4</title>
<path fill="none" stroke="midnightblue" d="M349.907,-77C358.375,-77 367.221,-77 375.872,-77"/>
<polygon fill="midnightblue" stroke="midnightblue" points="349.805,-73.5001 339.804,-77 349.804,-80.5001 349.805,-73.5001"/>
</g>
<!-- Node5 -->
<g id="node9" class="node"><title>Node5</title>
<a xlink:href="sv__monsters_8qh.html#a473e551b6c76c0037bbcfe0c4742b4e9" target="_top" xlink:title="Monster_Spawn">
<polygon fill="none" stroke="black" points="530.5,-66.5 530.5,-87.5 617.5,-87.5 617.5,-66.5 530.5,-66.5"/>
<text text-anchor="middle" x="574" y="-74.5" font-family="Helvetica,sans-Serif" font-size="10.00">Monster_Spawn</text>
</a>
</g>
<!-- Node4&#45;&gt;Node5 -->
<g id="edge8" class="edge"><title>Node4&#45;&gt;Node5</title>
<path fill="none" stroke="midnightblue" d="M504.628,-77C513.41,-77 522.189,-77 530.404,-77"/>
<polygon fill="midnightblue" stroke="midnightblue" points="504.352,-73.5001 494.352,-77 504.352,-80.5001 504.352,-73.5001"/>
</g>
<!-- Node6 -->
<g id="node11" class="node"><title>Node6</title>
<a xlink:href="spawn_8qh.html#a6d9ad964837b7b9cbcd971dcab774b49" target="_top" xlink:title="spawnmonster">
<polygon fill="none" stroke="black" points="663,-146.5 663,-167.5 743,-167.5 743,-146.5 663,-146.5"/>
<text text-anchor="middle" x="703" y="-154.5" font-family="Helvetica,sans-Serif" font-size="10.00">spawnmonster</text>
</a>
</g>
<!-- Node5&#45;&gt;Node6 -->
<g id="edge10" class="edge"><title>Node5&#45;&gt;Node6</title>
<path fill="none" stroke="midnightblue" d="M593.958,-94.2518C609.567,-107.164 632.207,-124.651 654,-137 660.156,-140.488 667.041,-143.687 673.661,-146.455"/>
<polygon fill="midnightblue" stroke="midnightblue" points="595.966,-91.3674 586.059,-87.6111 591.461,-96.7254 595.966,-91.3674"/>
</g>
<!-- Node9 -->
<g id="node17" class="node"><title>Node9</title>
<a xlink:href="sv__monsters_8qc.html#a78277889e372693f721a50d524e365f7" target="_top" xlink:title="Monster_Respawn">
<polygon fill="none" stroke="black" points="654,-106.5 654,-127.5 752,-127.5 752,-106.5 654,-106.5"/>
<text text-anchor="middle" x="703" y="-114.5" font-family="Helvetica,sans-Serif" font-size="10.00">Monster_Respawn</text>
</a>
</g>
<!-- Node5&#45;&gt;Node9 -->
<g id="edge16" class="edge"><title>Node5&#45;&gt;Node9</title>
<path fill="none" stroke="midnightblue" d="M617.477,-90.4814C634.24,-95.6792 653.13,-101.537 668.885,-106.422"/>
<polygon fill="midnightblue" stroke="midnightblue" points="618.481,-87.1283 607.893,-87.5095 616.408,-93.8142 618.481,-87.1283"/>
</g>
<!-- Node14 -->
<g id="node28" class="node"><title>Node14</title>
<a xlink:href="sv__monsters_8qc.html#a8f241ff894916ce48d0262369b526fef" target="_top" xlink:title="Monster_Appear">
<polygon fill="none" stroke="black" points="659,-66.5 659,-87.5 747,-87.5 747,-66.5 659,-66.5"/>
<text text-anchor="middle" x="703" y="-74.5" font-family="Helvetica,sans-Serif" font-size="10.00">Monster_Appear</text>
</a>
</g>
<!-- Node5&#45;&gt;Node14 -->
<g id="edge28" class="edge"><title>Node5&#45;&gt;Node14</title>
<path fill="none" stroke="midnightblue" d="M627.858,-77C638.209,-77 648.936,-77 658.933,-77"/>
<polygon fill="midnightblue" stroke="midnightblue" points="627.674,-73.5001 617.674,-77 627.673,-80.5001 627.674,-73.5001"/>
</g>
<!-- Node7 -->
<g id="node13" class="node"><title>Node7</title>
<a xlink:href="server_2command_2common_8qc.html#a31c9eecd432f1aaee8637466cb8c1bea" target="_top" xlink:title="CommonCommand_editmob">
<polygon fill="none" stroke="black" points="788.5,-146.5 788.5,-167.5 929.5,-167.5 929.5,-146.5 788.5,-146.5"/>
<text text-anchor="middle" x="859" y="-154.5" font-family="Helvetica,sans-Serif" font-size="10.00">CommonCommand_editmob</text>
</a>
</g>
<!-- Node6&#45;&gt;Node7 -->
<g id="edge12" class="edge"><title>Node6&#45;&gt;Node7</title>
<path fill="none" stroke="midnightblue" d="M753.198,-157C764.418,-157 776.521,-157 788.394,-157"/>
<polygon fill="midnightblue" stroke="midnightblue" points="753.174,-153.5 743.174,-157 753.174,-160.5 753.174,-153.5"/>
</g>
<!-- Node8 -->
<g id="node15" class="node"><title>Node8</title>
<a xlink:href="server_2command_2common_8qh.html#a61ca75686b7681834a8efe7af123bf2b" target="_top" xlink:title="COMMON_COMMAND">
<polygon fill="none" stroke="black" points="966,-146.5 966,-167.5 1088,-167.5 1088,-146.5 966,-146.5"/>
<text text-anchor="middle" x="1027" y="-154.5" font-family="Helvetica,sans-Serif" font-size="10.00">COMMON_COMMAND</text>
</a>
</g>
<!-- Node7&#45;&gt;Node8 -->
<g id="edge14" class="edge"><title>Node7&#45;&gt;Node8</title>
<path fill="none" stroke="midnightblue" d="M939.964,-157C948.693,-157 957.466,-157 965.904,-157"/>
<polygon fill="midnightblue" stroke="midnightblue" points="939.76,-153.5 929.76,-157 939.76,-160.5 939.76,-153.5"/>
</g>
<!-- Node10 -->
<g id="node19" class="node"><title>Node10</title>
<a xlink:href="sv__monsters_8qc.html#a64003301dcc44254935df433ea236780" target="_top" xlink:title="Monster_Dead_Fade">
<polygon fill="none" stroke="black" points="805.5,-97.5 805.5,-118.5 912.5,-118.5 912.5,-97.5 805.5,-97.5"/>
<text text-anchor="middle" x="859" y="-105.5" font-family="Helvetica,sans-Serif" font-size="10.00">Monster_Dead_Fade</text>
</a>
</g>
<!-- Node9&#45;&gt;Node10 -->
<g id="edge18" class="edge"><title>Node9&#45;&gt;Node10</title>
<path fill="none" stroke="midnightblue" d="M762.454,-113.57C776.564,-112.756 791.535,-111.892 805.368,-111.094"/>
<polygon fill="midnightblue" stroke="midnightblue" points="762.141,-110.082 752.359,-114.152 762.544,-117.07 762.141,-110.082"/>
</g>
<!-- Node11 -->
<g id="node21" class="node"><title>Node11</title>
<a xlink:href="sv__monsters_8qc.html#abd168e6f5bc604139f9332b0215ad541" target="_top" xlink:title="Monster_Dead_Think">
<polygon fill="none" stroke="black" points="972,-79.5 972,-100.5 1082,-100.5 1082,-79.5 972,-79.5"/>
<text text-anchor="middle" x="1027" y="-87.5" font-family="Helvetica,sans-Serif" font-size="10.00">Monster_Dead_Think</text>
</a>
</g>
<!-- Node10&#45;&gt;Node11 -->
<g id="edge20" class="edge"><title>Node10&#45;&gt;Node11</title>
<path fill="none" stroke="midnightblue" d="M923.019,-101.141C939.115,-99.4162 956.251,-97.5803 971.87,-95.9068"/>
<polygon fill="midnightblue" stroke="midnightblue" points="922.188,-97.7097 912.618,-102.255 922.934,-104.67 922.188,-97.7097"/>
</g>
<!-- Node12 -->
<g id="node23" class="node"><title>Node12</title>
<a xlink:href="sv__monsters_8qc.html#a9fe966953fdc6ae52562b48fe4776295" target="_top" xlink:title="Monster_Dead">
<polygon fill="none" stroke="black" points="1124,-45.5 1124,-66.5 1204,-66.5 1204,-45.5 1124,-45.5"/>
<text text-anchor="middle" x="1164" y="-53.5" font-family="Helvetica,sans-Serif" font-size="10.00">Monster_Dead</text>
</a>
</g>
<!-- Node11&#45;&gt;Node12 -->
<g id="edge22" class="edge"><title>Node11&#45;&gt;Node12</title>
<path fill="none" stroke="midnightblue" d="M1079.55,-76.9575C1094.23,-73.3163 1109.93,-69.4187 1123.77,-65.9843"/>
<polygon fill="midnightblue" stroke="midnightblue" points="1078.46,-73.6229 1069.6,-79.4286 1080.15,-80.4168 1078.46,-73.6229"/>
</g>
<!-- Node13 -->
<g id="node25" class="node"><title>Node13</title>
<a xlink:href="sv__monsters_8qc.html#a100d851a4f02e4bd6177462aad0a9d1f" target="_top" xlink:title="Monster_Damage">
<polygon fill="none" stroke="black" points="1240,-17.5 1240,-38.5 1334,-38.5 1334,-17.5 1240,-17.5"/>
<text text-anchor="middle" x="1287" y="-25.5" font-family="Helvetica,sans-Serif" font-size="10.00">Monster_Damage</text>
</a>
</g>
<!-- Node12&#45;&gt;Node13 -->
<g id="edge24" class="edge"><title>Node12&#45;&gt;Node13</title>
<path fill="none" stroke="midnightblue" d="M1214.03,-44.6102C1222.84,-42.6065 1231.96,-40.5289 1240.66,-38.5494"/>
<polygon fill="midnightblue" stroke="midnightblue" points="1213.25,-41.1993 1204.27,-46.8318 1214.8,-48.0247 1213.25,-41.1993"/>
</g>
<!-- Node13&#45;&gt;Node5 -->
<g id="edge26" class="edge"><title>Node13&#45;&gt;Node5</title>
<path fill="none" stroke="midnightblue" d="M1229.59,-18.2414C1177.03,-10.1614 1097.02,-3.33067e-15 1027,-0 859,-0 859,-0 859,-0 758.287,-1.42109e-14 644.269,-45.3666 596.709,-66.4549"/>
<polygon fill="midnightblue" stroke="midnightblue" points="1229.3,-21.739 1239.72,-19.826 1230.38,-14.823 1229.3,-21.739"/>
</g>
<!-- Node15 -->
<g id="node30" class="node"><title>Node15</title>
<a xlink:href="sv__monsters_8qc.html#a0c5d94fd195b12611f3bd45c0546bfca" target="_top" xlink:title="Monster_Appear_Check">
<polygon fill="none" stroke="black" points="798,-38.5 798,-59.5 920,-59.5 920,-38.5 798,-38.5"/>
<text text-anchor="middle" x="859" y="-46.5" font-family="Helvetica,sans-Serif" font-size="10.00">Monster_Appear_Check</text>
</a>
</g>
<!-- Node14&#45;&gt;Node15 -->
<g id="edge30" class="edge"><title>Node14&#45;&gt;Node15</title>
<path fill="none" stroke="midnightblue" d="M757.201,-67.2717C771.128,-64.7719 786.175,-62.0711 800.318,-59.5326"/>
<polygon fill="midnightblue" stroke="midnightblue" points="756.51,-63.8395 747.286,-69.0512 757.747,-70.7294 756.51,-63.8395"/>
</g>
<!-- Node15&#45;&gt;Node5 -->
<g id="edge32" class="edge"><title>Node15&#45;&gt;Node5</title>
<path fill="none" stroke="midnightblue" d="M787.624,-48.1899C748.07,-48.6409 698.112,-50.694 654,-57 639.261,-59.107 623.294,-62.8029 609.53,-66.4489"/>
<polygon fill="midnightblue" stroke="midnightblue" points="787.735,-51.6892 797.706,-48.1069 787.677,-44.6895 787.735,-51.6892"/>
</g>
</g>
</svg>
        <g id="navigator" transform="translate(0 0)" fill="#404254">
                <rect fill="#f2f5e9" fill-opacity="0.5" stroke="#606060" stroke-width=".5" x="0" y="0" width="60" height="60"/>
                <use id="zoomplus" xlink:href="#zoomPlus" x="17" y="9" onmousedown="handleZoom(evt,'in')"/>
                <use id="zoomminus" xlink:href="#zoomMin" x="42" y="9" onmousedown="handleZoom(evt,'out')"/>
                <use id="reset" xlink:href="#resetDef" x="30" y="36" onmousedown="handleReset()"/>
                <g id="arrowUp" xlink:href="#dirArrow" transform="translate(30 24)" onmousedown="handlePan(0,-1)">
                  <use xlink:href="#rim" fill="#404040">
                        <set attributeName="fill" to="#808080" begin="arrowUp.mouseover" end="arrowUp.mouseout"/>
                  </use>
                  <path fill="none" stroke="white" stroke-width="1.5" d="M0,-3.0v7 M-2.5,-0.5L0,-3.0L2.5,-0.5"/>
                </g>
                <g id="arrowRight" xlink:href="#dirArrow" transform="rotate(90) translate(36 -43)" onmousedown="handlePan(1,0)">
                  <use xlink:href="#rim" fill="#404040">
                        <set attributeName="fill" to="#808080" begin="arrowRight.mouseover" end="arrowRight.mouseout"/>
                  </use>
                  <path fill="none" stroke="white" stroke-width="1.5" d="M0,-3.0v7 M-2.5,-0.5L0,-3.0L2.5,-0.5"/>
                </g>
                <g id="arrowDown" xlink:href="#dirArrow" transform="rotate(180) translate(-30 -48)" onmousedown="handlePan(0,1)">
                  <use xlink:href="#rim" fill="#404040">
                        <set attributeName="fill" to="#808080" begin="arrowDown.mouseover" end="arrowDown.mouseout"/>
                  </use>
                  <path fill="none" stroke="white" stroke-width="1.5" d="M0,-3.0v7 M-2.5,-0.5L0,-3.0L2.5,-0.5"/>
                </g>
                <g id="arrowLeft" xlink:href="#dirArrow" transform="rotate(270) translate(-36 17)" onmousedown="handlePan(-1,0)">
                  <use xlink:href="#rim" fill="#404040">
                        <set attributeName="fill" to="#808080" begin="arrowLeft.mouseover" end="arrowLeft.mouseout"/>
                  </use>
                  <path fill="none" stroke="white" stroke-width="1.5" d="M0,-3.0v7 M-2.5,-0.5L0,-3.0L2.5,-0.5"/>
                </g>
        </g>
</svg>
