<?xml version="1.0" encoding="UTF-8" standalone="no"?>
<!DOCTYPE svg PUBLIC "-//W3C//DTD SVG 1.1//EN"
 "http://www.w3.org/Graphics/SVG/1.1/DTD/svg11.dtd">
<!-- Generated by graphviz version 2.36.0 (20140111.2315)
 -->
<!-- Title: client/view.qh Pages: 1 -->
<!--zoomable 544 -->
<svg id="main" version="1.1" xmlns="http://www.w3.org/2000/svg" xmlns:xlink="http://www.w3.org/1999/xlink" xml:space="preserve" onload="init(evt)">
<style type="text/css"><![CDATA[
.edge:hover path { stroke: red; }
.edge:hover polygon { stroke: red; fill: red; }
]]></style>
<script type="text/javascript"><![CDATA[
var edges = document.getElementsByTagName('g');
if (edges && edges.length) {
  for (var i=0;i<edges.length;i++) {
    if (edges[i].id.substr(0,4)=='edge') {
      edges[i].setAttribute('class','edge');
    }
  }
}
]]></script>
        <defs>
                <circle id="rim" cx="0" cy="0" r="7"/>
                <circle id="rim2" cx="0" cy="0" r="3.5"/>
                <g id="zoomPlus">
                        <use xlink:href="#rim" fill="#404040">
                                <set attributeName="fill" to="#808080" begin="zoomplus.mouseover" end="zoomplus.mouseout"/>
                        </use>
                        <path d="M-4,0h8M0,-4v8" fill="none" stroke="white" stroke-width="1.5" pointer-events="none"/>
                </g>
                <g id="zoomMin">
                        <use xlink:href="#rim" fill="#404040">
                                <set attributeName="fill" to="#808080" begin="zoomminus.mouseover" end="zoomminus.mouseout"/>
                        </use>
                        <path d="M-4,0h8" fill="none" stroke="white" stroke-width="1.5" pointer-events="none"/>
                </g>
                <g id="dirArrow">
                        <path fill="none" stroke="white" stroke-width="1.5" d="M0,-3.0v7 M-2.5,-0.5L0,-3.0L2.5,-0.5"/>
                </g>
               <g id="resetDef">
                       <use xlink:href="#rim2" fill="#404040">
                               <set attributeName="fill" to="#808080" begin="reset.mouseover" end="reset.mouseout"/>
                       </use>
               </g>
        </defs>

<script type="text/javascript">
var viewWidth = 902;
var viewHeight = 544;
var sectionId = 'dynsection-0';
</script>
<script xlink:href="../../svgpan.js"/>
<svg id="graph" class="graph">
<g id="viewport">
<title>client/view.qh</title>
<!-- Node1 -->
<g id="node1" class="node"><title>Node1</title>
<polygon fill="#bfbfbf" stroke="black" points="653.5,-516.5 653.5,-535.5 730.5,-535.5 730.5,-516.5 653.5,-516.5"/>
<text text-anchor="middle" x="692" y="-523.5" font-family="Helvetica,sans-Serif" font-size="10.00">client/view.qh</text>
</g>
<!-- Node2 -->
<g id="node2" class="node"><title>Node2</title>
<g id="a_node2"><a xlink:href="../../d2/d1c/weapons_2weapon_8qh.html" target="_top" xlink:title="common/weapons/weapon.qh">
<polygon fill="none" stroke="black" points="619,-460.5 619,-479.5 765,-479.5 765,-460.5 619,-460.5"/>
<text text-anchor="middle" x="692" y="-467.5" font-family="Helvetica,sans-Serif" font-size="10.00">common/weapons/weapon.qh</text>
</a>
</g>
</g>
<!-- Node1&#45;&gt;Node2 -->
<g id="edge1" class="edge"><title>Node1&#45;&gt;Node2</title>
<path fill="none" stroke="midnightblue" d="M692,-516.083C692,-509.006 692,-498.861 692,-489.986"/>
<polygon fill="midnightblue" stroke="midnightblue" points="695.5,-489.751 692,-479.751 688.5,-489.751 695.5,-489.751"/>
</g>
<!-- Node3 -->
<g id="node3" class="node"><title>Node3</title>
<g id="a_node3"><a xlink:href="../../d4/d3c/common_2resources_8qh.html" target="_top" xlink:title="Header file that describes resource types. ">
<polygon fill="none" stroke="black" points="418.5,-404.5 418.5,-423.5 531.5,-423.5 531.5,-404.5 418.5,-404.5"/>
<text text-anchor="middle" x="475" y="-411.5" font-family="Helvetica,sans-Serif" font-size="10.00">common/resources.qh</text>
</a>
</g>
</g>
<!-- Node2&#45;&gt;Node3 -->
<g id="edge2" class="edge"><title>Node2&#45;&gt;Node3</title>
<path fill="none" stroke="midnightblue" d="M657.616,-460.444C620.078,-451.102 559.869,-436.119 518.933,-425.933"/>
<polygon fill="midnightblue" stroke="midnightblue" points="519.773,-422.535 509.223,-423.516 518.082,-429.328 519.773,-422.535"/>
</g>
<!-- Node4 -->
<g id="node4" class="node"><title>Node4</title>
<g id="a_node4"><a xlink:href="../../de/dda/pickup_8qh.html" target="_top" xlink:title="common/items/item/pickup.qh">
<polygon fill="none" stroke="black" points="462,-168.5 462,-187.5 610,-187.5 610,-168.5 462,-168.5"/>
<text text-anchor="middle" x="536" y="-175.5" font-family="Helvetica,sans-Serif" font-size="10.00">common/items/item/pickup.qh</text>
</a>
</g>
</g>
<!-- Node2&#45;&gt;Node4 -->
<g id="edge3" class="edge"><title>Node2&#45;&gt;Node4</title>
<path fill="none" stroke="midnightblue" d="M704.099,-460.303C726.909,-442.792 774,-400.845 774,-353 774,-353 774,-353 774,-289 774,-258.902 777.134,-244.395 755,-224 735.323,-205.869 673.326,-194.216 620.296,-187.321"/>
<polygon fill="midnightblue" stroke="midnightblue" points="620.527,-183.823 610.169,-186.047 619.653,-190.768 620.527,-183.823"/>
</g>
<!-- Node6 -->
<g id="node6" class="node"><title>Node6</title>
<g id="a_node6"><a xlink:href="../../d7/d5c/common_2stats_8qh.html" target="_top" xlink:title="common/stats.qh">
<polygon fill="none" stroke="black" points="802,-404.5 802,-423.5 894,-423.5 894,-404.5 802,-404.5"/>
<text text-anchor="middle" x="848" y="-411.5" font-family="Helvetica,sans-Serif" font-size="10.00">common/stats.qh</text>
</a>
</g>
</g>
<!-- Node2&#45;&gt;Node6 -->
<g id="edge5" class="edge"><title>Node2&#45;&gt;Node6</title>
<path fill="none" stroke="midnightblue" d="M716.719,-460.444C742.848,-451.399 784.259,-437.064 813.576,-426.916"/>
<polygon fill="midnightblue" stroke="midnightblue" points="815.092,-430.095 823.397,-423.516 812.802,-423.48 815.092,-430.095"/>
</g>
<!-- Node7 -->
<g id="node7" class="node"><title>Node7</title>
<g id="a_node7"><a xlink:href="../../df/df3/common_2items_2__mod_8qh.html" target="_top" xlink:title="common/items/_mod.qh">
<polygon fill="none" stroke="black" points="550,-404.5 550,-423.5 672,-423.5 672,-404.5 550,-404.5"/>
<text text-anchor="middle" x="611" y="-411.5" font-family="Helvetica,sans-Serif" font-size="10.00">common/items/_mod.qh</text>
</a>
</g>
</g>
<!-- Node2&#45;&gt;Node7 -->
<g id="edge6" class="edge"><title>Node2&#45;&gt;Node7</title>
<path fill="none" stroke="midnightblue" d="M678.986,-460.324C666.468,-451.979 647.318,-439.212 632.529,-429.352"/>
<polygon fill="midnightblue" stroke="midnightblue" points="634.244,-426.289 623.982,-423.655 630.361,-432.114 634.244,-426.289"/>
</g>
<!-- Node5 -->
<g id="node5" class="node"><title>Node5</title>
<g id="a_node5"><a xlink:href="../../d7/d7c/common_2items_2item_8qh.html" target="_top" xlink:title="common/items/item.qh">
<polygon fill="none" stroke="black" points="448,-112.5 448,-131.5 564,-131.5 564,-112.5 448,-112.5"/>
<text text-anchor="middle" x="506" y="-119.5" font-family="Helvetica,sans-Serif" font-size="10.00">common/items/item.qh</text>
</a>
</g>
</g>
<!-- Node4&#45;&gt;Node5 -->
<g id="edge4" class="edge"><title>Node4&#45;&gt;Node5</title>
<path fill="none" stroke="midnightblue" d="M531.046,-168.083C526.896,-160.613 520.847,-149.724 515.733,-140.52"/>
<polygon fill="midnightblue" stroke="midnightblue" points="518.778,-138.793 510.862,-131.751 512.659,-142.192 518.778,-138.793"/>
</g>
<!-- Node8 -->
<g id="node8" class="node"><title>Node8</title>
<g id="a_node8"><a xlink:href="../../d0/d7e/items_2all_8qh.html" target="_top" xlink:title="common/items/all.qh">
<polygon fill="none" stroke="black" points="266.5,-168.5 266.5,-187.5 373.5,-187.5 373.5,-168.5 266.5,-168.5"/>
<text text-anchor="middle" x="320" y="-175.5" font-family="Helvetica,sans-Serif" font-size="10.00">common/items/all.qh</text>
</a>
</g>
</g>
<!-- Node7&#45;&gt;Node8 -->
<g id="edge7" class="edge"><title>Node7&#45;&gt;Node8</title>
<path fill="none" stroke="midnightblue" d="M555.928,-404.446C461.74,-388.569 276.15,-351.42 238,-300 217.874,-272.873 220.795,-253.068 238,-224 246.973,-208.84 263.067,-198.448 278.635,-191.504"/>
<polygon fill="midnightblue" stroke="midnightblue" points="280.248,-194.627 288.191,-187.615 277.61,-188.143 280.248,-194.627"/>
</g>
<!-- Node16 -->
<g id="node16" class="node"><title>Node16</title>
<g id="a_node16"><a xlink:href="../../d9/dd1/common_2items_2item_2__mod_8qh.html" target="_top" xlink:title="common/items/item/\l_mod.qh">
<polygon fill="none" stroke="black" points="483,-337 483,-367 589,-367 589,-337 483,-337"/>
<text text-anchor="start" x="491" y="-355" font-family="Helvetica,sans-Serif" font-size="10.00">common/items/item/</text>
<text text-anchor="middle" x="536" y="-344" font-family="Helvetica,sans-Serif" font-size="10.00">_mod.qh</text>
</a>
</g>
</g>
<!-- Node7&#45;&gt;Node16 -->
<g id="edge16" class="edge"><title>Node7&#45;&gt;Node16</title>
<path fill="none" stroke="midnightblue" d="M600.254,-404.403C590.192,-396.353 574.766,-384.013 561.551,-373.441"/>
<polygon fill="midnightblue" stroke="midnightblue" points="563.671,-370.655 553.676,-367.141 559.298,-376.121 563.671,-370.655"/>
</g>
<!-- Node8&#45;&gt;Node5 -->
<g id="edge15" class="edge"><title>Node8&#45;&gt;Node5</title>
<path fill="none" stroke="midnightblue" d="M349.472,-168.444C381.171,-159.241 431.732,-144.562 466.775,-134.388"/>
<polygon fill="midnightblue" stroke="midnightblue" points="468.038,-137.666 476.666,-131.516 466.086,-130.943 468.038,-137.666"/>
</g>
<!-- Node9 -->
<g id="node9" class="node"><title>Node9</title>
<g id="a_node9"><a xlink:href="../../d9/df2/common_2command_2__mod_8qh.html" target="_top" xlink:title="common/command/_mod.qh">
<polygon fill="none" stroke="black" points="250,-112.5 250,-131.5 390,-131.5 390,-112.5 250,-112.5"/>
<text text-anchor="middle" x="320" y="-119.5" font-family="Helvetica,sans-Serif" font-size="10.00">common/command/_mod.qh</text>
</a>
</g>
</g>
<!-- Node8&#45;&gt;Node9 -->
<g id="edge8" class="edge"><title>Node8&#45;&gt;Node9</title>
<path fill="none" stroke="midnightblue" d="M320,-168.083C320,-161.006 320,-150.861 320,-141.986"/>
<polygon fill="midnightblue" stroke="midnightblue" points="323.5,-141.751 320,-131.751 316.5,-141.751 323.5,-141.751"/>
</g>
<!-- Node10 -->
<g id="node10" class="node"><title>Node10</title>
<g id="a_node10"><a xlink:href="../../d7/d88/generic_8qh.html" target="_top" xlink:title="common/command/generic.qh">
<polygon fill="none" stroke="black" points="0,-56.5 0,-75.5 148,-75.5 148,-56.5 0,-56.5"/>
<text text-anchor="middle" x="74" y="-63.5" font-family="Helvetica,sans-Serif" font-size="10.00">common/command/generic.qh</text>
</a>
</g>
</g>
<!-- Node9&#45;&gt;Node10 -->
<g id="edge9" class="edge"><title>Node9&#45;&gt;Node10</title>
<path fill="none" stroke="midnightblue" d="M281.021,-112.444C238.106,-103.023 169.054,-87.8656 122.631,-77.6752"/>
<polygon fill="midnightblue" stroke="midnightblue" points="123.315,-74.242 112.797,-75.5164 121.814,-81.0792 123.315,-74.242"/>
</g>
<!-- Node12 -->
<g id="node12" class="node"><title>Node12</title>
<g id="a_node12"><a xlink:href="../../d8/d96/markup_8qh.html" target="_top" xlink:title="common/command/markup.qh">
<polygon fill="none" stroke="black" points="166.5,-56.5 166.5,-75.5 315.5,-75.5 315.5,-56.5 166.5,-56.5"/>
<text text-anchor="middle" x="241" y="-63.5" font-family="Helvetica,sans-Serif" font-size="10.00">common/command/markup.qh</text>
</a>
</g>
</g>
<!-- Node9&#45;&gt;Node12 -->
<g id="edge11" class="edge"><title>Node9&#45;&gt;Node12</title>
<path fill="none" stroke="midnightblue" d="M307.307,-112.324C295.099,-103.979 276.422,-91.2122 261.997,-81.3524"/>
<polygon fill="midnightblue" stroke="midnightblue" points="263.892,-78.4082 253.661,-75.6545 259.942,-84.1871 263.892,-78.4082"/>
</g>
<!-- Node13 -->
<g id="node13" class="node"><title>Node13</title>
<g id="a_node13"><a xlink:href="../../d4/dab/common_2command_2reg_8qh.html" target="_top" xlink:title="common/command/reg.qh">
<polygon fill="none" stroke="black" points="334,-56.5 334,-75.5 464,-75.5 464,-56.5 334,-56.5"/>
<text text-anchor="middle" x="399" y="-63.5" font-family="Helvetica,sans-Serif" font-size="10.00">common/command/reg.qh</text>
</a>
</g>
</g>
<!-- Node9&#45;&gt;Node13 -->
<g id="edge12" class="edge"><title>Node9&#45;&gt;Node13</title>
<path fill="none" stroke="midnightblue" d="M332.693,-112.324C344.901,-103.979 363.578,-91.2122 378.003,-81.3524"/>
<polygon fill="midnightblue" stroke="midnightblue" points="380.058,-84.1871 386.339,-75.6545 376.108,-78.4082 380.058,-84.1871"/>
</g>
<!-- Node15 -->
<g id="node15" class="node"><title>Node15</title>
<g id="a_node15"><a xlink:href="../../d4/db4/rpn_8qh.html" target="_top" xlink:title="common/command/rpn.qh">
<polygon fill="none" stroke="black" points="482,-56.5 482,-75.5 612,-75.5 612,-56.5 482,-56.5"/>
<text text-anchor="middle" x="547" y="-63.5" font-family="Helvetica,sans-Serif" font-size="10.00">common/command/rpn.qh</text>
</a>
</g>
</g>
<!-- Node9&#45;&gt;Node15 -->
<g id="edge14" class="edge"><title>Node9&#45;&gt;Node15</title>
<path fill="none" stroke="midnightblue" d="M355.969,-112.444C395.319,-103.083 458.487,-88.0561 501.314,-77.868"/>
<polygon fill="midnightblue" stroke="midnightblue" points="502.281,-81.2358 511.199,-75.5164 500.661,-74.4258 502.281,-81.2358"/>
</g>
<!-- Node11 -->
<g id="node11" class="node"><title>Node11</title>
<g id="a_node11"><a xlink:href="../../d0/d8b/common_2constants_8qh.html" target="_top" xlink:title="common/constants.qh">
<polygon fill="none" stroke="black" points="17.5,-0.5 17.5,-19.5 130.5,-19.5 130.5,-0.5 17.5,-0.5"/>
<text text-anchor="middle" x="74" y="-7.5" font-family="Helvetica,sans-Serif" font-size="10.00">common/constants.qh</text>
</a>
</g>
</g>
<!-- Node10&#45;&gt;Node11 -->
<g id="edge10" class="edge"><title>Node10&#45;&gt;Node11</title>
<path fill="none" stroke="midnightblue" d="M74,-56.083C74,-49.0059 74,-38.8611 74,-29.9865"/>
<polygon fill="midnightblue" stroke="midnightblue" points="77.5001,-29.751 74,-19.7511 70.5001,-29.7511 77.5001,-29.751"/>
</g>
<!-- Node14 -->
<g id="node14" class="node"><title>Node14</title>
<g id="a_node14"><a xlink:href="../../d9/da1/common_2command_2command_8qh.html" target="_top" xlink:title="command.qh">
<polygon fill="none" stroke="black" points="362.5,-0.5 362.5,-19.5 435.5,-19.5 435.5,-0.5 362.5,-0.5"/>
<text text-anchor="middle" x="399" y="-7.5" font-family="Helvetica,sans-Serif" font-size="10.00">command.qh</text>
</a>
</g>
</g>
<!-- Node13&#45;&gt;Node14 -->
<g id="edge13" class="edge"><title>Node13&#45;&gt;Node14</title>
<path fill="none" stroke="midnightblue" d="M399,-56.083C399,-49.0059 399,-38.8611 399,-29.9865"/>
<polygon fill="midnightblue" stroke="midnightblue" points="402.5,-29.751 399,-19.7511 395.5,-29.7511 402.5,-29.751"/>
</g>
<!-- Node16&#45;&gt;Node4 -->
<g id="edge28" class="edge"><title>Node16&#45;&gt;Node4</title>
<path fill="none" stroke="midnightblue" d="M574.702,-336.966C591.137,-328.856 608.635,-316.853 618,-300 622.318,-292.23 620.972,-288.377 618,-280 614.49,-270.108 572.845,-221.331 550.295,-195.354"/>
<polygon fill="midnightblue" stroke="midnightblue" points="552.923,-193.043 543.717,-187.799 547.644,-197.639 552.923,-193.043"/>
</g>
<!-- Node17 -->
<g id="node17" class="node"><title>Node17</title>
<g id="a_node17"><a xlink:href="../../de/d43/common_2items_2item_2ammo_8qh.html" target="_top" xlink:title="common/items/item/ammo.qh">
<polygon fill="none" stroke="black" points="247,-224.5 247,-243.5 393,-243.5 393,-224.5 247,-224.5"/>
<text text-anchor="middle" x="320" y="-231.5" font-family="Helvetica,sans-Serif" font-size="10.00">common/items/item/ammo.qh</text>
</a>
</g>
</g>
<!-- Node16&#45;&gt;Node17 -->
<g id="edge17" class="edge"><title>Node16&#45;&gt;Node17</title>
<path fill="none" stroke="midnightblue" d="M482.947,-349.529C407.666,-346.196 275.663,-335.335 246,-300 228.789,-279.498 260.298,-259.765 287.378,-247.526"/>
<polygon fill="midnightblue" stroke="midnightblue" points="288.883,-250.689 296.684,-243.521 286.115,-244.259 288.883,-250.689"/>
</g>
<!-- Node18 -->
<g id="node18" class="node"><title>Node18</title>
<g id="a_node18"><a xlink:href="../../d7/d60/armor_8qh.html" target="_top" xlink:title="common/items/item/armor.qh">
<polygon fill="none" stroke="black" points="602,-224.5 602,-243.5 746,-243.5 746,-224.5 602,-224.5"/>
<text text-anchor="middle" x="674" y="-231.5" font-family="Helvetica,sans-Serif" font-size="10.00">common/items/item/armor.qh</text>
</a>
</g>
</g>
<!-- Node16&#45;&gt;Node18 -->
<g id="edge20" class="edge"><title>Node16&#45;&gt;Node18</title>
<path fill="none" stroke="midnightblue" d="M589.039,-337.574C610.726,-329.743 634.533,-317.792 651,-300 662.805,-287.245 668.618,-268.051 671.438,-253.824"/>
<polygon fill="midnightblue" stroke="midnightblue" points="674.934,-254.134 673.116,-243.697 668.028,-252.99 674.934,-254.134"/>
</g>
<!-- Node19 -->
<g id="node19" class="node"><title>Node19</title>
<g id="a_node19"><a xlink:href="../../da/d6a/health_8qh.html" target="_top" xlink:title="common/items/item/health.qh">
<polygon fill="none" stroke="black" points="463,-280.5 463,-299.5 609,-299.5 609,-280.5 463,-280.5"/>
<text text-anchor="middle" x="536" y="-287.5" font-family="Helvetica,sans-Serif" font-size="10.00">common/items/item/health.qh</text>
</a>
</g>
</g>
<!-- Node16&#45;&gt;Node19 -->
<g id="edge22" class="edge"><title>Node16&#45;&gt;Node19</title>
<path fill="none" stroke="midnightblue" d="M536,-336.781C536,-328.781 536,-318.689 536,-310.017"/>
<polygon fill="midnightblue" stroke="midnightblue" points="539.5,-309.73 536,-299.731 532.5,-309.731 539.5,-309.73"/>
</g>
<!-- Node20 -->
<g id="node20" class="node"><title>Node20</title>
<g id="a_node20"><a xlink:href="../../d2/d37/jetpack_8qh.html" target="_top" xlink:title="common/items/item/jetpack.qh">
<polygon fill="none" stroke="black" points="255.5,-280.5 255.5,-299.5 406.5,-299.5 406.5,-280.5 255.5,-280.5"/>
<text text-anchor="middle" x="331" y="-287.5" font-family="Helvetica,sans-Serif" font-size="10.00">common/items/item/jetpack.qh</text>
</a>
</g>
</g>
<!-- Node16&#45;&gt;Node20 -->
<g id="edge24" class="edge"><title>Node16&#45;&gt;Node20</title>
<path fill="none" stroke="midnightblue" d="M487.937,-336.933C452.008,-326.417 403.509,-312.222 369.98,-302.409"/>
<polygon fill="midnightblue" stroke="midnightblue" points="370.666,-298.963 360.085,-299.513 368.699,-305.681 370.666,-298.963"/>
</g>
<!-- Node21 -->
<g id="node21" class="node"><title>Node21</title>
<g id="a_node21"><a xlink:href="../../d6/d88/powerup_8qh.html" target="_top" xlink:title="powerup.qh">
<polygon fill="none" stroke="black" points="411.5,-224.5 411.5,-243.5 478.5,-243.5 478.5,-224.5 411.5,-224.5"/>
<text text-anchor="middle" x="445" y="-231.5" font-family="Helvetica,sans-Serif" font-size="10.00">powerup.qh</text>
</a>
</g>
</g>
<!-- Node16&#45;&gt;Node21 -->
<g id="edge29" class="edge"><title>Node16&#45;&gt;Node21</title>
<path fill="none" stroke="midnightblue" d="M499.598,-336.981C483.039,-328.723 464.775,-316.591 454,-300 445.177,-286.415 443.379,-267.869 443.523,-254.063"/>
<polygon fill="midnightblue" stroke="midnightblue" points="447.032,-253.944 443.99,-243.795 440.04,-253.625 447.032,-253.944"/>
</g>
<!-- Node17&#45;&gt;Node4 -->
<g id="edge18" class="edge"><title>Node17&#45;&gt;Node4</title>
<path fill="none" stroke="midnightblue" d="M354.226,-224.444C391.512,-215.122 451.269,-200.183 492.011,-189.997"/>
<polygon fill="midnightblue" stroke="midnightblue" points="493.082,-193.337 501.934,-187.516 491.384,-186.546 493.082,-193.337"/>
</g>
<!-- Node17&#45;&gt;Node8 -->
<g id="edge19" class="edge"><title>Node17&#45;&gt;Node8</title>
<path fill="none" stroke="midnightblue" d="M320,-224.083C320,-217.006 320,-206.861 320,-197.986"/>
<polygon fill="midnightblue" stroke="midnightblue" points="323.5,-197.751 320,-187.751 316.5,-197.751 323.5,-197.751"/>
</g>
<!-- Node18&#45;&gt;Node4 -->
<g id="edge21" class="edge"><title>Node18&#45;&gt;Node4</title>
<path fill="none" stroke="midnightblue" d="M652.133,-224.444C629.221,-215.478 593.025,-201.314 567.134,-191.183"/>
<polygon fill="midnightblue" stroke="midnightblue" points="568.352,-187.901 557.764,-187.516 565.801,-194.42 568.352,-187.901"/>
</g>
<!-- Node19&#45;&gt;Node4 -->
<g id="edge23" class="edge"><title>Node19&#45;&gt;Node4</title>
<path fill="none" stroke="midnightblue" d="M536,-280.368C536,-262.617 536,-221.666 536,-197.597"/>
<polygon fill="midnightblue" stroke="midnightblue" points="539.5,-197.591 536,-187.591 532.5,-197.591 539.5,-197.591"/>
</g>
<!-- Node20&#45;&gt;Node17 -->
<g id="edge25" class="edge"><title>Node20&#45;&gt;Node17</title>
<path fill="none" stroke="midnightblue" d="M329.184,-280.083C327.726,-272.927 325.629,-262.635 323.807,-253.691"/>
<polygon fill="midnightblue" stroke="midnightblue" points="327.208,-252.851 321.783,-243.751 320.349,-254.248 327.208,-252.851"/>
</g>
<!-- Node20&#45;&gt;Node21 -->
<g id="edge26" class="edge"><title>Node20&#45;&gt;Node21</title>
<path fill="none" stroke="midnightblue" d="M349.064,-280.444C367.575,-271.675 396.581,-257.935 417.855,-247.858"/>
<polygon fill="midnightblue" stroke="midnightblue" points="419.482,-250.96 427.021,-243.516 416.485,-244.634 419.482,-250.96"/>
</g>
<!-- Node21&#45;&gt;Node4 -->
<g id="edge27" class="edge"><title>Node21&#45;&gt;Node4</title>
<path fill="none" stroke="midnightblue" d="M459.621,-224.324C473.949,-215.822 496.013,-202.729 512.749,-192.797"/>
<polygon fill="midnightblue" stroke="midnightblue" points="514.602,-195.768 521.416,-187.655 511.03,-189.748 514.602,-195.768"/>
</g>
</g>
</svg>
        <g id="navigator" transform="translate(0 0)" fill="#404254">
                <rect fill="#f2f5e9" fill-opacity="0.5" stroke="#606060" stroke-width=".5" x="0" y="0" width="60" height="60"/>
                <use id="zoomplus" xlink:href="#zoomPlus" x="17" y="9" onmousedown="handleZoom(evt,'in')"/>
                <use id="zoomminus" xlink:href="#zoomMin" x="42" y="9" onmousedown="handleZoom(evt,'out')"/>
                <use id="reset" xlink:href="#resetDef" x="30" y="36" onmousedown="handleReset()"/>
                <g id="arrowUp" xlink:href="#dirArrow" transform="translate(30 24)" onmousedown="handlePan(0,-1)">
                  <use xlink:href="#rim" fill="#404040">
                        <set attributeName="fill" to="#808080" begin="arrowUp.mouseover" end="arrowUp.mouseout"/>
                  </use>
                  <path fill="none" stroke="white" stroke-width="1.5" d="M0,-3.0v7 M-2.5,-0.5L0,-3.0L2.5,-0.5"/>
                </g>
                <g id="arrowRight" xlink:href="#dirArrow" transform="rotate(90) translate(36 -43)" onmousedown="handlePan(1,0)">
                  <use xlink:href="#rim" fill="#404040">
                        <set attributeName="fill" to="#808080" begin="arrowRight.mouseover" end="arrowRight.mouseout"/>
                  </use>
                  <path fill="none" stroke="white" stroke-width="1.5" d="M0,-3.0v7 M-2.5,-0.5L0,-3.0L2.5,-0.5"/>
                </g>
                <g id="arrowDown" xlink:href="#dirArrow" transform="rotate(180) translate(-30 -48)" onmousedown="handlePan(0,1)">
                  <use xlink:href="#rim" fill="#404040">
                        <set attributeName="fill" to="#808080" begin="arrowDown.mouseover" end="arrowDown.mouseout"/>
                  </use>
                  <path fill="none" stroke="white" stroke-width="1.5" d="M0,-3.0v7 M-2.5,-0.5L0,-3.0L2.5,-0.5"/>
                </g>
                <g id="arrowLeft" xlink:href="#dirArrow" transform="rotate(270) translate(-36 17)" onmousedown="handlePan(-1,0)">
                  <use xlink:href="#rim" fill="#404040">
                        <set attributeName="fill" to="#808080" begin="arrowLeft.mouseover" end="arrowLeft.mouseout"/>
                  </use>
                  <path fill="none" stroke="white" stroke-width="1.5" d="M0,-3.0v7 M-2.5,-0.5L0,-3.0L2.5,-0.5"/>
                </g>
        </g>
        <svg viewBox="0 0 15 15" width="100%" height="30px" preserveAspectRatio="xMaxYMin meet">
         <g id="arrow_out" transform="scale(0.3 0.3)">
          <a xlink:href="view_8qh__incl_org.svg" target="_base">
           <rect id="button" ry="5" rx="5" y="6" x="6" height="38" width="38"
                fill="#f2f5e9" fill-opacity="0.5" stroke="#606060" stroke-width="1.0"/>
           <path id="arrow"
             d="M 11.500037,31.436501 C 11.940474,20.09759 22.043105,11.32322 32.158766,21.979434 L 37.068811,17.246167 C 37.068811,17.246167 37.088388,32 37.088388,32 L 22.160133,31.978069 C 22.160133,31.978069 26.997745,27.140456 26.997745,27.140456 C 18.528582,18.264221 13.291696,25.230495 11.500037,31.436501 z"
             style="fill:#404040;"/>
          </a>
         </g>
        </svg>
</svg>
