<?xml version="1.0" encoding="UTF-8" standalone="no"?>
<!DOCTYPE svg PUBLIC "-//W3C//DTD SVG 1.1//EN"
 "http://www.w3.org/Graphics/SVG/1.1/DTD/svg11.dtd">
<!-- Generated by graphviz version 2.40.1 (20161225.0304)
 -->
<!-- Title: makeXonoticCheckBoxEx_T Pages: 1 -->
<!--zoomable 648 -->
<svg id="main" version="1.1" xmlns="http://www.w3.org/2000/svg" xmlns:xlink="http://www.w3.org/1999/xlink" xml:space="preserve" onload="init(evt)">
<style type="text/css"><![CDATA[
.edge:hover path { stroke: red; }
.edge:hover polygon { stroke: red; fill: red; }
]]></style>
<script type="text/javascript"><![CDATA[
var edges = document.getElementsByTagName('g');
if (edges && edges.length) {
  for (var i=0;i<edges.length;i++) {
    if (edges[i].id.substr(0,4)=='edge') {
      edges[i].setAttribute('class','edge');
    }
  }
}
]]></script>
        <defs>
                <circle id="rim" cx="0" cy="0" r="7"/>
                <circle id="rim2" cx="0" cy="0" r="3.5"/>
                <g id="zoomPlus">
                        <use xlink:href="#rim" fill="#404040">
                                <set attributeName="fill" to="#808080" begin="zoomplus.mouseover" end="zoomplus.mouseout"/>
                        </use>
                        <path d="M-4,0h8M0,-4v8" fill="none" stroke="white" stroke-width="1.5" pointer-events="none"/>
                </g>
                <g id="zoomMin">
                        <use xlink:href="#rim" fill="#404040">
                                <set attributeName="fill" to="#808080" begin="zoomminus.mouseover" end="zoomminus.mouseout"/>
                        </use>
                        <path d="M-4,0h8" fill="none" stroke="white" stroke-width="1.5" pointer-events="none"/>
                </g>
                <g id="dirArrow">
                        <path fill="none" stroke="white" stroke-width="1.5" d="M0,-3.0v7 M-2.5,-0.5L0,-3.0L2.5,-0.5"/>
                </g>
               <g id="resetDef">
                       <use xlink:href="#rim2" fill="#404040">
                               <set attributeName="fill" to="#808080" begin="reset.mouseover" end="reset.mouseout"/>
                       </use>
               </g>
        </defs>

<script type="text/javascript">
var viewWidth = 923;
var viewHeight = 648;
var sectionId = 'dynsection-6';
</script>
<script xlink:href="../../svgpan.js"/>
<svg id="graph" class="graph">
<g id="viewport">
<title>makeXonoticCheckBoxEx_T</title>
<!-- Node33 -->
<g id="node1" class="node">
<title>Node33</title>
<polygon fill="#bfbfbf" stroke="#000000" points="0,-88.5 0,-107.5 153,-107.5 153,-88.5 0,-88.5"/>
<text text-anchor="middle" x="76.5" y="-95.5" font-family="Helvetica,sans-Serif" font-size="10.00" fill="#000000">makeXonoticCheckBoxEx_T</text>
</g>
<!-- Node34 -->
<g id="node2" class="node">
<title>Node34</title>
<g id="a_node2"><a xlink:href="../../d8/d76/xonotic_2checkbox_8qh.html#a7dc2985c3982e5fb466f48215abb8069" target="_top" xlink:title="makeXonoticCheckBox_T">
<polygon fill="none" stroke="#000000" points="189.5,-107.5 189.5,-126.5 330.5,-126.5 330.5,-107.5 189.5,-107.5"/>
<text text-anchor="middle" x="260" y="-114.5" font-family="Helvetica,sans-Serif" font-size="10.00" fill="#000000">makeXonoticCheckBox_T</text>
</a>
</g>
</g>
<!-- Node33&#45;&gt;Node34 -->
<g id="edge1" class="edge">
<title>Node33&#45;&gt;Node34</title>
<path fill="none" stroke="#191970" d="M163.4312,-107.001C172.1366,-107.9024 180.9,-108.8098 189.4068,-109.6906"/>
<polygon fill="#191970" stroke="#191970" points="163.5646,-103.4962 153.2573,-105.9476 162.8436,-110.459 163.5646,-103.4962"/>
</g>
<!-- Node56 -->
<g id="node24" class="node">
<title>Node56</title>
<g id="a_node24"><a xlink:href="../../d8/d76/xonotic_2checkbox_8qh.html#ae01b150bc158d5b5fb5ee649324b9706" target="_top" xlink:title="makeXonoticCheckBoxEx">
<polygon fill="none" stroke="#000000" points="189,-69.5 189,-88.5 331,-88.5 331,-69.5 189,-69.5"/>
<text text-anchor="middle" x="260" y="-76.5" font-family="Helvetica,sans-Serif" font-size="10.00" fill="#000000">makeXonoticCheckBoxEx</text>
</a>
</g>
</g>
<!-- Node33&#45;&gt;Node56 -->
<g id="edge25" class="edge">
<title>Node33&#45;&gt;Node56</title>
<path fill="none" stroke="#191970" d="M163.2637,-89.0163C171.8256,-88.1298 180.4456,-87.2372 188.8243,-86.3697"/>
<polygon fill="#191970" stroke="#191970" points="162.8436,-85.541 153.2573,-90.0524 163.5646,-92.5038 162.8436,-85.541"/>
</g>
<!-- Node35 -->
<g id="node3" class="node">
<title>Node35</title>
<g id="a_node3"><a xlink:href="../../df/d9b/menu_2xonotic_2util_8qc.html#ae6725ad239c958cb43c1254ea3be7554" target="_top" xlink:title="makeXonoticCheckBox">
<polygon fill="none" stroke="#000000" points="367,-107.5 367,-126.5 497,-126.5 497,-107.5 367,-107.5"/>
<text text-anchor="middle" x="432" y="-114.5" font-family="Helvetica,sans-Serif" font-size="10.00" fill="#000000">makeXonoticCheckBox</text>
</a>
</g>
</g>
<!-- Node34&#45;&gt;Node35 -->
<g id="edge2" class="edge">
<title>Node34&#45;&gt;Node35</title>
<path fill="none" stroke="#191970" d="M341.0185,-117C349.6377,-117 358.3237,-117 366.7289,-117"/>
<polygon fill="#191970" stroke="#191970" points="340.952,-113.5001 330.952,-117 340.952,-120.5001 340.952,-113.5001"/>
</g>
<!-- Node36 -->
<g id="node4" class="node">
<title>Node36</title>
<g id="a_node4"><a xlink:href="../../df/d97/menu_2xonotic_2util_8qh.html#abdff541f37ea94922175cdd851cbd474" target="_top" xlink:title="dialog_hudpanel_main\l_checkbox">
<polygon fill="none" stroke="#000000" points="547,-349 547,-379 674,-379 674,-349 547,-349"/>
<text text-anchor="start" x="555" y="-367" font-family="Helvetica,sans-Serif" font-size="10.00" fill="#000000">dialog_hudpanel_main</text>
<text text-anchor="middle" x="610.5" y="-356" font-family="Helvetica,sans-Serif" font-size="10.00" fill="#000000">_checkbox</text>
</a>
</g>
</g>
<!-- Node35&#45;&gt;Node36 -->
<g id="edge3" class="edge">
<title>Node35&#45;&gt;Node36</title>
<path fill="none" stroke="#191970" d="M444.9358,-134.8999C478.5285,-181.384 568.0981,-305.3262 599.4645,-348.7296"/>
<polygon fill="#191970" stroke="#191970" points="447.6915,-132.7377 438.9974,-126.6827 442.018,-136.8378 447.6915,-132.7377"/>
</g>
<!-- Node41 -->
<g id="node9" class="node">
<title>Node41</title>
<g id="a_node9"><a xlink:href="../../d3/d83/dialog__hudpanel__healtharmor_8qc.html#a2ee44621eb3b7f0305e67f156a0550cc" target="_top" xlink:title="XonoticHUDHealthArmorDialog_fill">
<polygon fill="none" stroke="#000000" points="726,-620.5 726,-639.5 913,-639.5 913,-620.5 726,-620.5"/>
<text text-anchor="middle" x="819.5" y="-627.5" font-family="Helvetica,sans-Serif" font-size="10.00" fill="#000000">XonoticHUDHealthArmorDialog_fill</text>
</a>
</g>
</g>
<!-- Node35&#45;&gt;Node41 -->
<g id="edge22" class="edge">
<title>Node35&#45;&gt;Node41</title>
<path fill="none" stroke="#191970" d="M436.7894,-136.9208C448.501,-183.3865 481.4515,-301.6249 533,-389 599.1373,-501.1031 611.5901,-545.3855 724,-611 730.5698,-614.8349 737.7808,-617.9086 745.2046,-620.3703"/>
<polygon fill="#191970" stroke="#191970" points="440.1223,-135.8179 434.3272,-126.9485 433.3264,-137.4959 440.1223,-135.8179"/>
</g>
<!-- Node45 -->
<g id="node13" class="node">
<title>Node45</title>
<g id="a_node13"><a xlink:href="../../d2/dce/dialog__hudpanel__powerups_8qc.html#a2db7b4af42002188cf03660c88108ddf" target="_top" xlink:title="XonoticHUDPowerupsDialog_fill">
<polygon fill="none" stroke="#000000" points="733.5,-126.5 733.5,-145.5 905.5,-145.5 905.5,-126.5 733.5,-126.5"/>
<text text-anchor="middle" x="819.5" y="-133.5" font-family="Helvetica,sans-Serif" font-size="10.00" fill="#000000">XonoticHUDPowerupsDialog_fill</text>
</a>
</g>
</g>
<!-- Node35&#45;&gt;Node45 -->
<g id="edge23" class="edge">
<title>Node35&#45;&gt;Node45</title>
<path fill="none" stroke="#191970" d="M507.4319,-120.6986C572.1663,-123.8727 665.4559,-128.4469 733.1614,-131.7666"/>
<polygon fill="#191970" stroke="#191970" points="507.4554,-117.1956 497.2959,-120.2016 507.1125,-124.1872 507.4554,-117.1956"/>
</g>
<!-- Node51 -->
<g id="node19" class="node">
<title>Node51</title>
<g id="a_node19"><a xlink:href="../../df/d97/menu_2xonotic_2util_8qh.html#a8eb356644d69441dba461bca0bb3ab9e" target="_top" xlink:title="GameType_GetIcon">
<polygon fill="none" stroke="#000000" points="555,-88.5 555,-107.5 666,-107.5 666,-88.5 555,-88.5"/>
<text text-anchor="middle" x="610.5" y="-95.5" font-family="Helvetica,sans-Serif" font-size="10.00" fill="#000000">GameType_GetIcon</text>
</a>
</g>
</g>
<!-- Node35&#45;&gt;Node51 -->
<g id="edge18" class="edge">
<title>Node35&#45;&gt;Node51</title>
<path fill="none" stroke="#191970" d="M507.5298,-108.9604C523.4119,-107.2699 539.8879,-105.5161 554.8807,-103.9203"/>
<polygon fill="#191970" stroke="#191970" points="506.7736,-105.521 497.2003,-110.0599 507.5146,-112.4817 506.7736,-105.521"/>
</g>
<!-- Node54 -->
<g id="node22" class="node">
<title>Node54</title>
<g id="a_node22"><a xlink:href="../../d8/d8a/classXonoticDamageTextSettings.html#ae6054321a604dd735d87aac890d72f12" target="_top" xlink:title="XonoticDamageTextSettings\l::fill">
<polygon fill="none" stroke="#000000" points="533,-39 533,-69 688,-69 688,-39 533,-39"/>
<text text-anchor="start" x="541" y="-57" font-family="Helvetica,sans-Serif" font-size="10.00" fill="#000000">XonoticDamageTextSettings</text>
<text text-anchor="middle" x="610.5" y="-46" font-family="Helvetica,sans-Serif" font-size="10.00" fill="#000000">::fill</text>
</a>
</g>
</g>
<!-- Node35&#45;&gt;Node54 -->
<g id="edge21" class="edge">
<title>Node35&#45;&gt;Node54</title>
<path fill="none" stroke="#191970" d="M465.7661,-103.8347C485.3212,-96.3261 510.4548,-86.8725 533,-79 542.4766,-75.6909 552.6579,-72.2944 562.424,-69.1134"/>
<polygon fill="#191970" stroke="#191970" points="464.443,-100.5936 456.3717,-107.4568 466.9613,-107.1249 464.443,-100.5936"/>
</g>
<!-- Node55 -->
<g id="node23" class="node">
<title>Node55</title>
<g id="a_node23"><a xlink:href="../../dd/d94/dialog__multiplayer__join_8qc.html#aedce3aeaa9449e5837b1fd8627adc4ac" target="_top" xlink:title="XonoticServerListTab_fill">
<polygon fill="none" stroke="#000000" points="542.5,-.5 542.5,-19.5 678.5,-19.5 678.5,-.5 542.5,-.5"/>
<text text-anchor="middle" x="610.5" y="-7.5" font-family="Helvetica,sans-Serif" font-size="10.00" fill="#000000">XonoticServerListTab_fill</text>
</a>
</g>
</g>
<!-- Node35&#45;&gt;Node55 -->
<g id="edge24" class="edge">
<title>Node35&#45;&gt;Node55</title>
<path fill="none" stroke="#191970" d="M446.7744,-99.9121C465.026,-79.8957 497.9819,-47.1673 533,-29 540.5011,-25.1084 548.8278,-21.9927 557.1607,-19.5039"/>
<polygon fill="#191970" stroke="#191970" points="444.1478,-97.5987 440.1008,-107.3902 449.3705,-102.2596 444.1478,-97.5987"/>
</g>
<!-- Node37 -->
<g id="node5" class="node">
<title>Node37</title>
<g id="a_node5"><a xlink:href="../../d4/d70/dialog__hudpanel__ammo_8qc.html#a1a787d5077990f45582d4f5a4f89e696" target="_top" xlink:title="XonoticHUDAmmoDialog_fill">
<polygon fill="none" stroke="#000000" points="741,-582.5 741,-601.5 898,-601.5 898,-582.5 741,-582.5"/>
<text text-anchor="middle" x="819.5" y="-589.5" font-family="Helvetica,sans-Serif" font-size="10.00" fill="#000000">XonoticHUDAmmoDialog_fill</text>
</a>
</g>
</g>
<!-- Node36&#45;&gt;Node37 -->
<g id="edge4" class="edge">
<title>Node36&#45;&gt;Node37</title>
<path fill="none" stroke="#191970" d="M623.9797,-388.2504C639.5324,-416.2933 665.8146,-463.8768 688,-505 704.2363,-535.0959 696.5743,-552.5742 724,-573 729.152,-576.837 734.8787,-579.9536 740.896,-582.479"/>
<polygon fill="#191970" stroke="#191970" points="626.8634,-386.2338 618.9503,-379.1888 620.743,-389.6309 626.8634,-386.2338"/>
</g>
<!-- Node38 -->
<g id="node6" class="node">
<title>Node38</title>
<g id="a_node6"><a xlink:href="../../d5/d8d/dialog__hudpanel__centerprint_8qc.html#a317ec7741f97dd7c349a91202ee93756" target="_top" xlink:title="XonoticHUDCenterprintDialog_fill">
<polygon fill="none" stroke="#000000" points="730,-544.5 730,-563.5 909,-563.5 909,-544.5 730,-544.5"/>
<text text-anchor="middle" x="819.5" y="-551.5" font-family="Helvetica,sans-Serif" font-size="10.00" fill="#000000">XonoticHUDCenterprintDialog_fill</text>
</a>
</g>
</g>
<!-- Node36&#45;&gt;Node38 -->
<g id="edge5" class="edge">
<title>Node36&#45;&gt;Node38</title>
<path fill="none" stroke="#191970" d="M619.7593,-389.0432C635.184,-427.0572 669.8949,-498.7262 724,-535 729.7569,-538.8596 736.1194,-541.9703 742.7458,-544.4729"/>
<polygon fill="#191970" stroke="#191970" points="622.8344,-387.2987 615.92,-379.2711 616.3192,-389.8584 622.8344,-387.2987"/>
</g>
<!-- Node39 -->
<g id="node7" class="node">
<title>Node39</title>
<g id="a_node7"><a xlink:href="../../d5/da7/dialog__hudpanel__chat_8qc.html#a97bba5cf1e62015d82292c0d6efccf42" target="_top" xlink:title="XonoticHUDChatDialog_fill">
<polygon fill="none" stroke="#000000" points="746,-506.5 746,-525.5 893,-525.5 893,-506.5 746,-506.5"/>
<text text-anchor="middle" x="819.5" y="-513.5" font-family="Helvetica,sans-Serif" font-size="10.00" fill="#000000">XonoticHUDChatDialog_fill</text>
</a>
</g>
</g>
<!-- Node36&#45;&gt;Node39 -->
<g id="edge6" class="edge">
<title>Node36&#45;&gt;Node39</title>
<path fill="none" stroke="#191970" d="M623.9511,-387.9718C642.3776,-418.4411 678.4379,-470.282 724,-497 730.7079,-500.9336 738.0887,-504.067 745.6838,-506.5608"/>
<polygon fill="#191970" stroke="#191970" points="626.9035,-386.0879 618.8077,-379.2534 620.8744,-389.6447 626.9035,-386.0879"/>
</g>
<!-- Node40 -->
<g id="node8" class="node">
<title>Node40</title>
<g id="a_node8"><a xlink:href="../../d0/dce/dialog__hudpanel__engineinfo_8qc.html#aa8257b75872a748b8bf8fd5efd29425a" target="_top" xlink:title="XonoticHUDEngineInfoDialog_fill">
<polygon fill="none" stroke="#000000" points="731.5,-468.5 731.5,-487.5 907.5,-487.5 907.5,-468.5 731.5,-468.5"/>
<text text-anchor="middle" x="819.5" y="-475.5" font-family="Helvetica,sans-Serif" font-size="10.00" fill="#000000">XonoticHUDEngineInfoDialog_fill</text>
</a>
</g>
</g>
<!-- Node36&#45;&gt;Node40 -->
<g id="edge7" class="edge">
<title>Node36&#45;&gt;Node40</title>
<path fill="none" stroke="#191970" d="M630.7207,-386.5166C651.8003,-408.522 686.891,-441.2276 724,-459 732.1569,-462.9065 741.0753,-466.01 750.0808,-468.4756"/>
<polygon fill="#191970" stroke="#191970" points="633.266,-384.1142 623.8686,-379.2213 628.1637,-388.9065 633.266,-384.1142"/>
</g>
<!-- Node36&#45;&gt;Node41 -->
<g id="edge8" class="edge">
<title>Node36&#45;&gt;Node41</title>
<path fill="none" stroke="#191970" d="M625.2358,-387.7435C641.9069,-415.2534 669.1801,-462.283 688,-505 708.0596,-550.531 686.5912,-578.197 724,-611 728.3215,-614.7894 733.1797,-617.9074 738.3557,-620.4655"/>
<polygon fill="#191970" stroke="#191970" points="628.2153,-385.9069 620.0161,-379.1968 622.2413,-389.5554 628.2153,-385.9069"/>
</g>
<!-- Node42 -->
<g id="node10" class="node">
<title>Node42</title>
<g id="a_node10"><a xlink:href="../../df/db7/dialog__hudpanel__infomessages_8qc.html#a304017651328a5ba234a6885af156c40" target="_top" xlink:title="XonoticHUDInfoMessagesDialog_fill">
<polygon fill="none" stroke="#000000" points="724,-430.5 724,-449.5 915,-449.5 915,-430.5 724,-430.5"/>
<text text-anchor="middle" x="819.5" y="-437.5" font-family="Helvetica,sans-Serif" font-size="10.00" fill="#000000">XonoticHUDInfoMessagesDialog_fill</text>
</a>
</g>
</g>
<!-- Node36&#45;&gt;Node42 -->
<g id="edge9" class="edge">
<title>Node36&#45;&gt;Node42</title>
<path fill="none" stroke="#191970" d="M644.7181,-384.2323C666.7126,-396.4591 696.2643,-411.472 724,-421 735.0315,-424.7897 747.0542,-427.9167 758.7323,-430.4631"/>
<polygon fill="#191970" stroke="#191970" points="646.2106,-381.0557 635.7819,-379.1869 642.769,-387.1512 646.2106,-381.0557"/>
</g>
<!-- Node43 -->
<g id="node11" class="node">
<title>Node43</title>
<g id="a_node11"><a xlink:href="../../d9/d12/dialog__hudpanel__modicons_8qc.html#ac73511dfa791a5caeb005cdde13be83b" target="_top" xlink:title="XonoticHUDModIconsDialog_fill">
<polygon fill="none" stroke="#000000" points="734.5,-392.5 734.5,-411.5 904.5,-411.5 904.5,-392.5 734.5,-392.5"/>
<text text-anchor="middle" x="819.5" y="-399.5" font-family="Helvetica,sans-Serif" font-size="10.00" fill="#000000">XonoticHUDModIconsDialog_fill</text>
</a>
</g>
</g>
<!-- Node36&#45;&gt;Node43 -->
<g id="edge10" class="edge">
<title>Node36&#45;&gt;Node43</title>
<path fill="none" stroke="#191970" d="M684.0042,-377.3644C711.4283,-382.3506 741.9838,-387.9061 767.1271,-392.4777"/>
<polygon fill="#191970" stroke="#191970" points="684.523,-373.9014 674.0581,-375.556 683.2707,-380.7885 684.523,-373.9014"/>
</g>
<!-- Node44 -->
<g id="node12" class="node">
<title>Node44</title>
<g id="a_node12"><a xlink:href="../../d5/db2/dialog__hudpanel__notification_8qc.html#ab31627f8b7c7a82a9d458011f2184631" target="_top" xlink:title="XonoticHUDNotificationDialog_fill">
<polygon fill="none" stroke="#000000" points="729,-354.5 729,-373.5 910,-373.5 910,-354.5 729,-354.5"/>
<text text-anchor="middle" x="819.5" y="-361.5" font-family="Helvetica,sans-Serif" font-size="10.00" fill="#000000">XonoticHUDNotificationDialog_fill</text>
</a>
</g>
</g>
<!-- Node36&#45;&gt;Node44 -->
<g id="edge11" class="edge">
<title>Node36&#45;&gt;Node44</title>
<path fill="none" stroke="#191970" d="M684.3769,-364C698.7789,-364 714.032,-364 728.9028,-364"/>
<polygon fill="#191970" stroke="#191970" points="684.0582,-360.5001 674.0581,-364 684.0581,-367.5001 684.0582,-360.5001"/>
</g>
<!-- Node36&#45;&gt;Node45 -->
<g id="edge12" class="edge">
<title>Node36&#45;&gt;Node45</title>
<path fill="none" stroke="#191970" d="M616.51,-339.2643C628.671,-294.8092 660.5976,-201.6994 724,-155 729.1722,-151.1903 734.9132,-148.093 740.9401,-145.5806"/>
<polygon fill="#191970" stroke="#191970" points="613.1163,-338.4078 613.9602,-348.969 619.8865,-340.1866 613.1163,-338.4078"/>
</g>
<!-- Node46 -->
<g id="node14" class="node">
<title>Node46</title>
<g id="a_node14"><a xlink:href="../../d6/d40/dialog__hudpanel__racetimer_8qc.html#a36cfdc6003a7544ff324c3c0236884e6" target="_top" xlink:title="XonoticHUDRaceTimerDialog_fill">
<polygon fill="none" stroke="#000000" points="731,-316.5 731,-335.5 908,-335.5 908,-316.5 731,-316.5"/>
<text text-anchor="middle" x="819.5" y="-323.5" font-family="Helvetica,sans-Serif" font-size="10.00" fill="#000000">XonoticHUDRaceTimerDialog_fill</text>
</a>
</g>
</g>
<!-- Node36&#45;&gt;Node46 -->
<g id="edge13" class="edge">
<title>Node36&#45;&gt;Node46</title>
<path fill="none" stroke="#191970" d="M684.0042,-350.6356C711.4283,-345.6494 741.9838,-340.0939 767.1271,-335.5223"/>
<polygon fill="#191970" stroke="#191970" points="683.2707,-347.2115 674.0581,-352.444 684.523,-354.0986 683.2707,-347.2115"/>
</g>
<!-- Node47 -->
<g id="node15" class="node">
<title>Node47</title>
<g id="a_node15"><a xlink:href="../../d0/ddb/dialog__hudpanel__score_8qc.html#ab6248ca6ec09851ebcdcc63344ca41bb" target="_top" xlink:title="XonoticHUDScoreDialog_fill">
<polygon fill="none" stroke="#000000" points="743.5,-278.5 743.5,-297.5 895.5,-297.5 895.5,-278.5 743.5,-278.5"/>
<text text-anchor="middle" x="819.5" y="-285.5" font-family="Helvetica,sans-Serif" font-size="10.00" fill="#000000">XonoticHUDScoreDialog_fill</text>
</a>
</g>
</g>
<!-- Node36&#45;&gt;Node47 -->
<g id="edge14" class="edge">
<title>Node36&#45;&gt;Node47</title>
<path fill="none" stroke="#191970" d="M644.7181,-343.7677C666.7126,-331.5409 696.2643,-316.528 724,-307 735.0315,-303.2103 747.0542,-300.0833 758.7323,-297.5369"/>
<polygon fill="#191970" stroke="#191970" points="642.769,-340.8488 635.7819,-348.8131 646.2106,-346.9443 642.769,-340.8488"/>
</g>
<!-- Node48 -->
<g id="node16" class="node">
<title>Node48</title>
<g id="a_node16"><a xlink:href="../../d3/d0f/dialog__hudpanel__timer_8qc.html#a96f8200bf3f24902a133023702f3e43a" target="_top" xlink:title="XonoticHUDTimerDialog_fill">
<polygon fill="none" stroke="#000000" points="743,-240.5 743,-259.5 896,-259.5 896,-240.5 743,-240.5"/>
<text text-anchor="middle" x="819.5" y="-247.5" font-family="Helvetica,sans-Serif" font-size="10.00" fill="#000000">XonoticHUDTimerDialog_fill</text>
</a>
</g>
</g>
<!-- Node36&#45;&gt;Node48 -->
<g id="edge15" class="edge">
<title>Node36&#45;&gt;Node48</title>
<path fill="none" stroke="#191970" d="M630.7207,-341.4834C651.8003,-319.478 686.891,-286.7724 724,-269 732.1569,-265.0935 741.0753,-261.99 750.0808,-259.5244"/>
<polygon fill="#191970" stroke="#191970" points="628.1637,-339.0935 623.8686,-348.7787 633.266,-343.8858 628.1637,-339.0935"/>
</g>
<!-- Node49 -->
<g id="node17" class="node">
<title>Node49</title>
<g id="a_node17"><a xlink:href="../../d9/d8b/dialog__hudpanel__vote_8qc.html#a99db81b12f29535edee78548db09a83f" target="_top" xlink:title="XonoticHUDVoteDialog_fill">
<polygon fill="none" stroke="#000000" points="746.5,-202.5 746.5,-221.5 892.5,-221.5 892.5,-202.5 746.5,-202.5"/>
<text text-anchor="middle" x="819.5" y="-209.5" font-family="Helvetica,sans-Serif" font-size="10.00" fill="#000000">XonoticHUDVoteDialog_fill</text>
</a>
</g>
</g>
<!-- Node36&#45;&gt;Node49 -->
<g id="edge16" class="edge">
<title>Node36&#45;&gt;Node49</title>
<path fill="none" stroke="#191970" d="M623.9511,-340.0282C642.3776,-309.5589 678.4379,-257.718 724,-231 730.8538,-226.9809 738.4099,-223.7971 746.1795,-221.2775"/>
<polygon fill="#191970" stroke="#191970" points="620.8744,-338.3553 618.8077,-348.7466 626.9035,-341.9121 620.8744,-338.3553"/>
</g>
<!-- Node50 -->
<g id="node18" class="node">
<title>Node50</title>
<g id="a_node18"><a xlink:href="../../d5/d23/dialog__hudpanel__weapons_8qc.html#aee76c4f17e6e2862e822223192dddb97" target="_top" xlink:title="XonoticHUDWeaponsDialog_fill">
<polygon fill="none" stroke="#000000" points="735,-164.5 735,-183.5 904,-183.5 904,-164.5 735,-164.5"/>
<text text-anchor="middle" x="819.5" y="-171.5" font-family="Helvetica,sans-Serif" font-size="10.00" fill="#000000">XonoticHUDWeaponsDialog_fill</text>
</a>
</g>
</g>
<!-- Node36&#45;&gt;Node50 -->
<g id="edge17" class="edge">
<title>Node36&#45;&gt;Node50</title>
<path fill="none" stroke="#191970" d="M619.7593,-338.9568C635.184,-300.9428 669.8949,-229.2738 724,-193 729.7569,-189.1404 736.1194,-186.0297 742.7458,-183.5271"/>
<polygon fill="#191970" stroke="#191970" points="616.3192,-338.1416 615.92,-348.7289 622.8344,-340.7013 616.3192,-338.1416"/>
</g>
<!-- Node52 -->
<g id="node20" class="node">
<title>Node52</title>
<g id="a_node20"><a xlink:href="../../d2/db8/gametypelist_8qc.html#a5268feb06cc5314e1f2a458147ae43ba" target="_top" xlink:title="XonoticGametypeList\l_configureXonoticGametypeList">
<polygon fill="none" stroke="#000000" points="733.5,-77 733.5,-107 905.5,-107 905.5,-77 733.5,-77"/>
<text text-anchor="start" x="741.5" y="-95" font-family="Helvetica,sans-Serif" font-size="10.00" fill="#000000">XonoticGametypeList</text>
<text text-anchor="middle" x="819.5" y="-84" font-family="Helvetica,sans-Serif" font-size="10.00" fill="#000000">_configureXonoticGametypeList</text>
</a>
</g>
</g>
<!-- Node51&#45;&gt;Node52 -->
<g id="edge19" class="edge">
<title>Node51&#45;&gt;Node52</title>
<path fill="none" stroke="#191970" d="M676.3423,-96.1098C694.3849,-95.5918 714.2173,-95.0225 733.2202,-94.4769"/>
<polygon fill="#191970" stroke="#191970" points="676.129,-92.6144 666.2336,-96.4 676.33,-99.6115 676.129,-92.6144"/>
</g>
<!-- Node53 -->
<g id="node21" class="node">
<title>Node53</title>
<g id="a_node21"><a xlink:href="../../d2/db8/gametypelist_8qc.html#a6e40fa703f86c8349adb82ee9ae53e68" target="_top" xlink:title="XonoticGametypeList\l_drawListBoxItem">
<polygon fill="none" stroke="#000000" points="758.5,-28 758.5,-58 880.5,-58 880.5,-28 758.5,-28"/>
<text text-anchor="start" x="766.5" y="-46" font-family="Helvetica,sans-Serif" font-size="10.00" fill="#000000">XonoticGametypeList</text>
<text text-anchor="middle" x="819.5" y="-35" font-family="Helvetica,sans-Serif" font-size="10.00" fill="#000000">_drawListBoxItem</text>
</a>
</g>
</g>
<!-- Node51&#45;&gt;Node53 -->
<g id="edge20" class="edge">
<title>Node51&#45;&gt;Node53</title>
<path fill="none" stroke="#191970" d="M658.7481,-85.8994C668.4547,-83.3665 678.5694,-80.6562 688,-78 704.1037,-73.4642 707.882,-71.4847 724,-67 735.1171,-63.9068 747.0111,-60.7762 758.4994,-57.843"/>
<polygon fill="#191970" stroke="#191970" points="657.6315,-82.5729 648.8262,-88.4652 659.384,-89.35 657.6315,-82.5729"/>
</g>
</g>
</svg>
        <g id="navigator" transform="translate(0 0)" fill="#404254">
                <rect fill="#f2f5e9" fill-opacity="0.5" stroke="#606060" stroke-width=".5" x="0" y="0" width="60" height="60"/>
                <use id="zoomplus" xlink:href="#zoomPlus" x="17" y="9" onmousedown="handleZoom(evt,'in')"/>
                <use id="zoomminus" xlink:href="#zoomMin" x="42" y="9" onmousedown="handleZoom(evt,'out')"/>
                <use id="reset" xlink:href="#resetDef" x="30" y="36" onmousedown="handleReset()"/>
                <g id="arrowUp" xlink:href="#dirArrow" transform="translate(30 24)" onmousedown="handlePan(0,-1)">
                  <use xlink:href="#rim" fill="#404040">
                        <set attributeName="fill" to="#808080" begin="arrowUp.mouseover" end="arrowUp.mouseout"/>
                  </use>
                  <path fill="none" stroke="white" stroke-width="1.5" d="M0,-3.0v7 M-2.5,-0.5L0,-3.0L2.5,-0.5"/>
                </g>
                <g id="arrowRight" xlink:href="#dirArrow" transform="rotate(90) translate(36 -43)" onmousedown="handlePan(1,0)">
                  <use xlink:href="#rim" fill="#404040">
                        <set attributeName="fill" to="#808080" begin="arrowRight.mouseover" end="arrowRight.mouseout"/>
                  </use>
                  <path fill="none" stroke="white" stroke-width="1.5" d="M0,-3.0v7 M-2.5,-0.5L0,-3.0L2.5,-0.5"/>
                </g>
                <g id="arrowDown" xlink:href="#dirArrow" transform="rotate(180) translate(-30 -48)" onmousedown="handlePan(0,1)">
                  <use xlink:href="#rim" fill="#404040">
                        <set attributeName="fill" to="#808080" begin="arrowDown.mouseover" end="arrowDown.mouseout"/>
                  </use>
                  <path fill="none" stroke="white" stroke-width="1.5" d="M0,-3.0v7 M-2.5,-0.5L0,-3.0L2.5,-0.5"/>
                </g>
                <g id="arrowLeft" xlink:href="#dirArrow" transform="rotate(270) translate(-36 17)" onmousedown="handlePan(-1,0)">
                  <use xlink:href="#rim" fill="#404040">
                        <set attributeName="fill" to="#808080" begin="arrowLeft.mouseover" end="arrowLeft.mouseout"/>
                  </use>
                  <path fill="none" stroke="white" stroke-width="1.5" d="M0,-3.0v7 M-2.5,-0.5L0,-3.0L2.5,-0.5"/>
                </g>
        </g>
        <svg viewBox="0 0 15 15" width="100%" height="30px" preserveAspectRatio="xMaxYMin meet">
         <g id="arrow_out" transform="scale(0.3 0.3)">
          <a xlink:href="xonotic_2checkbox_8qh_ac556c363097bb2c326f8681f5b38e28a_icgraph_org.svg" target="_base">
           <rect id="button" ry="5" rx="5" y="6" x="6" height="38" width="38"
                fill="#f2f5e9" fill-opacity="0.5" stroke="#606060" stroke-width="1.0"/>
           <path id="arrow"
             d="M 11.500037,31.436501 C 11.940474,20.09759 22.043105,11.32322 32.158766,21.979434 L 37.068811,17.246167 C 37.068811,17.246167 37.088388,32 37.088388,32 L 22.160133,31.978069 C 22.160133,31.978069 26.997745,27.140456 26.997745,27.140456 C 18.528582,18.264221 13.291696,25.230495 11.500037,31.436501 z"
             style="fill:#404040;"/>
          </a>
         </g>
        </svg>
</svg>
