<?xml version="1.0" encoding="UTF-8" standalone="no"?>
<!DOCTYPE svg PUBLIC "-//W3C//DTD SVG 1.1//EN"
 "http://www.w3.org/Graphics/SVG/1.1/DTD/svg11.dtd">
<!-- Generated by graphviz version 2.36.0 (20140111.2315)
 -->
<!-- Title: WeaponStats_Shutdown Pages: 1 -->
<!--zoomable 484 -->
<svg id="main" version="1.1" xmlns="http://www.w3.org/2000/svg" xmlns:xlink="http://www.w3.org/1999/xlink" xml:space="preserve" onload="init(evt)">
<style type="text/css"><![CDATA[
.edge:hover path { stroke: red; }
.edge:hover polygon { stroke: red; fill: red; }
]]></style>
<script type="text/javascript"><![CDATA[
var edges = document.getElementsByTagName('g');
if (edges && edges.length) {
  for (var i=0;i<edges.length;i++) {
    if (edges[i].id.substr(0,4)=='edge') {
      edges[i].setAttribute('class','edge');
    }
  }
}
]]></script>
        <defs>
                <circle id="rim" cx="0" cy="0" r="7"/>
                <circle id="rim2" cx="0" cy="0" r="3.5"/>
                <g id="zoomPlus">
                        <use xlink:href="#rim" fill="#404040">
                                <set attributeName="fill" to="#808080" begin="zoomplus.mouseover" end="zoomplus.mouseout"/>
                        </use>
                        <path d="M-4,0h8M0,-4v8" fill="none" stroke="white" stroke-width="1.5" pointer-events="none"/>
                </g>
                <g id="zoomMin">
                        <use xlink:href="#rim" fill="#404040">
                                <set attributeName="fill" to="#808080" begin="zoomminus.mouseover" end="zoomminus.mouseout"/>
                        </use>
                        <path d="M-4,0h8" fill="none" stroke="white" stroke-width="1.5" pointer-events="none"/>
                </g>
                <g id="dirArrow">
                        <path fill="none" stroke="white" stroke-width="1.5" d="M0,-3.0v7 M-2.5,-0.5L0,-3.0L2.5,-0.5"/>
                </g>
               <g id="resetDef">
                       <use xlink:href="#rim2" fill="#404040">
                               <set attributeName="fill" to="#808080" begin="reset.mouseover" end="reset.mouseout"/>
                       </use>
               </g>
        </defs>

<script type="text/javascript">
var viewWidth = 678;
var viewHeight = 484;
var sectionId = 'dynsection-9';
</script>
<script xlink:href="../../svgpan.js"/>
<svg id="graph" class="graph">
<g id="viewport">
<title>WeaponStats_Shutdown</title>
<!-- Node1 -->
<g id="node1" class="node"><title>Node1</title>
<polygon fill="#bfbfbf" stroke="black" points="0.5,-309.5 0.5,-328.5 125.5,-328.5 125.5,-309.5 0.5,-309.5"/>
<text text-anchor="middle" x="63" y="-316.5" font-family="Helvetica,sans-Serif" font-size="10.00">WeaponStats_Shutdown</text>
</g>
<!-- Node2 -->
<g id="node2" class="node"><title>Node2</title>
<g id="a_node2"><a xlink:href="../../d6/d38/urllib_8qc.html#af96ac51d0d690e3c6f52c736fdec7f5e" target="_top" xlink:title="url_multi_fopen">
<polygon fill="none" stroke="black" points="162.5,-361.5 162.5,-380.5 245.5,-380.5 245.5,-361.5 162.5,-361.5"/>
<text text-anchor="middle" x="204" y="-368.5" font-family="Helvetica,sans-Serif" font-size="10.00">url_multi_fopen</text>
</a>
</g>
</g>
<!-- Node1&#45;&gt;Node2 -->
<g id="edge1" class="edge"><title>Node1&#45;&gt;Node2</title>
<path fill="none" stroke="midnightblue" d="M89.4947,-328.538C111.4,-336.732 143.213,-348.634 167.589,-357.753"/>
<polygon fill="midnightblue" stroke="midnightblue" points="166.604,-361.121 177.196,-361.347 169.056,-354.565 166.604,-361.121"/>
</g>
<!-- Node12 -->
<g id="node12" class="node"><title>Node12</title>
<g id="a_node12"><a xlink:href="../../d6/d57/weaponstats_8qc.html#a456ded6f061320557b90765d8d34c0f3" target="_top" xlink:title="WeaponStats_ready">
<polygon fill="none" stroke="black" points="282.5,-171.5 282.5,-190.5 387.5,-190.5 387.5,-171.5 282.5,-171.5"/>
<text text-anchor="middle" x="335" y="-178.5" font-family="Helvetica,sans-Serif" font-size="10.00">WeaponStats_ready</text>
</a>
</g>
</g>
<!-- Node1&#45;&gt;Node12 -->
<g id="edge16" class="edge"><title>Node1&#45;&gt;Node12</title>
<path fill="none" stroke="midnightblue" d="M82.9859,-309.296C129.865,-285.335 251.28,-223.279 306.243,-195.187"/>
<polygon fill="midnightblue" stroke="midnightblue" points="308.082,-198.178 315.394,-190.51 304.896,-191.945 308.082,-198.178"/>
</g>
<!-- Node3 -->
<g id="node3" class="node"><title>Node3</title>
<g id="a_node3"><a xlink:href="../../d8/de2/menudefs_8qc.html#ae3e9d36eda7886f5fe58e5201291dd78" target="_top" xlink:title="argv">
<polygon fill="none" stroke="black" points="450.5,-304.5 450.5,-323.5 485.5,-323.5 485.5,-304.5 450.5,-304.5"/>
<text text-anchor="middle" x="468" y="-311.5" font-family="Helvetica,sans-Serif" font-size="10.00">argv</text>
</a>
</g>
</g>
<!-- Node2&#45;&gt;Node3 -->
<g id="edge2" class="edge"><title>Node2&#45;&gt;Node3</title>
<path fill="none" stroke="midnightblue" d="M220.262,-361.423C235.34,-352.465 259.366,-339.518 282,-333 336.548,-317.291 403.427,-314.198 439.973,-313.801"/>
<polygon fill="midnightblue" stroke="midnightblue" points="440.31,-317.3 450.294,-313.753 440.278,-310.3 440.31,-317.3"/>
</g>
<!-- Node4 -->
<g id="node4" class="node"><title>Node4</title>
<g id="a_node4"><a xlink:href="../../d4/d0c/csprogsdefs_8qc.html#acbb54a239d76062465dccbc6a6c6e464" target="_top" xlink:title="entity">
<polygon fill="none" stroke="black" points="588.5,-418.5 588.5,-437.5 629.5,-437.5 629.5,-418.5 588.5,-418.5"/>
<text text-anchor="middle" x="609" y="-425.5" font-family="Helvetica,sans-Serif" font-size="10.00">entity</text>
</a>
</g>
</g>
<!-- Node2&#45;&gt;Node4 -->
<g id="edge3" class="edge"><title>Node2&#45;&gt;Node4</title>
<path fill="none" stroke="midnightblue" d="M232.487,-380.559C247.041,-385.276 265.311,-390.656 282,-394 389.717,-415.584 520.369,-423.95 578.104,-426.759"/>
<polygon fill="midnightblue" stroke="midnightblue" points="578.181,-430.266 588.333,-427.235 578.506,-423.274 578.181,-430.266"/>
</g>
<!-- Node5 -->
<g id="node5" class="node"><title>Node5</title>
<g id="a_node5"><a xlink:href="../../d8/de2/menudefs_8qc.html#ae06db7c87845d853670a09a1d487b1db" target="_top" xlink:title="strzone">
<polygon fill="none" stroke="black" points="584.5,-456.5 584.5,-475.5 633.5,-475.5 633.5,-456.5 584.5,-456.5"/>
<text text-anchor="middle" x="609" y="-463.5" font-family="Helvetica,sans-Serif" font-size="10.00">strzone</text>
</a>
</g>
</g>
<!-- Node2&#45;&gt;Node5 -->
<g id="edge4" class="edge"><title>Node2&#45;&gt;Node5</title>
<path fill="none" stroke="midnightblue" d="M217.876,-380.592C232.589,-391.043 257.773,-407.416 282,-416 384.337,-452.262 513.923,-462.237 574.249,-464.972"/>
<polygon fill="midnightblue" stroke="midnightblue" points="574.209,-468.474 584.345,-465.391 574.499,-461.48 574.209,-468.474"/>
</g>
<!-- Node6 -->
<g id="node6" class="node"><title>Node6</title>
<g id="a_node6"><a xlink:href="../../d6/d38/urllib_8qc.html#a6ca98e8b34af149de1f3f2c0caf12e5f" target="_top" xlink:title="url_multi_ready">
<polygon fill="none" stroke="black" points="293.5,-342.5 293.5,-361.5 376.5,-361.5 376.5,-342.5 293.5,-342.5"/>
<text text-anchor="middle" x="335" y="-349.5" font-family="Helvetica,sans-Serif" font-size="10.00">url_multi_ready</text>
</a>
</g>
</g>
<!-- Node2&#45;&gt;Node6 -->
<g id="edge5" class="edge"><title>Node2&#45;&gt;Node6</title>
<path fill="none" stroke="midnightblue" d="M245.816,-364.988C257.696,-363.239 270.82,-361.306 283.233,-359.477"/>
<polygon fill="midnightblue" stroke="midnightblue" points="284.066,-362.892 293.449,-357.973 283.046,-355.967 284.066,-362.892"/>
</g>
<!-- Node8 -->
<g id="node8" class="node"><title>Node8</title>
<g id="a_node8"><a xlink:href="../../d6/d38/urllib_8qc.html#ab557f597fc98aa01dcca2b55a9d1fedb" target="_top" xlink:title="url_single_fopen">
<polygon fill="none" stroke="black" points="424.5,-380.5 424.5,-399.5 511.5,-399.5 511.5,-380.5 424.5,-380.5"/>
<text text-anchor="middle" x="468" y="-387.5" font-family="Helvetica,sans-Serif" font-size="10.00">url_single_fopen</text>
</a>
</g>
</g>
<!-- Node2&#45;&gt;Node8 -->
<g id="edge15" class="edge"><title>Node2&#45;&gt;Node8</title>
<path fill="none" stroke="midnightblue" d="M245.65,-373.948C290.871,-377.227 364.099,-382.538 413.837,-386.145"/>
<polygon fill="midnightblue" stroke="midnightblue" points="413.849,-389.655 424.076,-386.887 414.355,-382.673 413.849,-389.655"/>
</g>
<!-- Node6&#45;&gt;Node3 -->
<g id="edge6" class="edge"><title>Node6&#45;&gt;Node3</title>
<path fill="none" stroke="midnightblue" d="M369.057,-342.411C391.233,-335.978 420.046,-327.62 440.67,-321.638"/>
<polygon fill="midnightblue" stroke="midnightblue" points="441.722,-324.977 450.351,-318.83 439.771,-318.254 441.722,-324.977"/>
</g>
<!-- Node7 -->
<g id="node7" class="node"><title>Node7</title>
<g id="a_node7"><a xlink:href="../../d8/de2/menudefs_8qc.html#ab64c3a0e7d347975b8b7a5cd17ab0113" target="_top" xlink:title="strunzone">
<polygon fill="none" stroke="black" points="579.5,-342.5 579.5,-361.5 638.5,-361.5 638.5,-342.5 579.5,-342.5"/>
<text text-anchor="middle" x="609" y="-349.5" font-family="Helvetica,sans-Serif" font-size="10.00">strunzone</text>
</a>
</g>
</g>
<!-- Node6&#45;&gt;Node7 -->
<g id="edge7" class="edge"><title>Node6&#45;&gt;Node7</title>
<path fill="none" stroke="midnightblue" d="M376.721,-352C428.606,-352 517.672,-352 568.812,-352"/>
<polygon fill="midnightblue" stroke="midnightblue" points="569.122,-355.5 579.122,-352 569.122,-348.5 569.122,-355.5"/>
</g>
<!-- Node6&#45;&gt;Node8 -->
<g id="edge8" class="edge"><title>Node6&#45;&gt;Node8</title>
<path fill="none" stroke="midnightblue" d="M369.057,-361.589C385.813,-366.449 406.358,-372.409 424.297,-377.613"/>
<polygon fill="midnightblue" stroke="midnightblue" points="423.375,-380.99 433.954,-380.414 425.325,-374.267 423.375,-380.99"/>
</g>
<!-- Node8&#45;&gt;Node4 -->
<g id="edge10" class="edge"><title>Node8&#45;&gt;Node4</title>
<path fill="none" stroke="midnightblue" d="M504.076,-399.589C527.126,-405.891 556.936,-414.04 578.714,-419.994"/>
<polygon fill="midnightblue" stroke="midnightblue" points="577.829,-423.38 588.398,-422.641 579.675,-416.628 577.829,-423.38"/>
</g>
<!-- Node8&#45;&gt;Node5 -->
<g id="edge14" class="edge"><title>Node8&#45;&gt;Node5</title>
<path fill="none" stroke="midnightblue" d="M479.78,-399.515C494.35,-411.951 521.557,-433.706 548,-447 556.299,-451.172 565.702,-454.669 574.561,-457.478"/>
<polygon fill="midnightblue" stroke="midnightblue" points="573.661,-460.862 584.244,-460.357 575.657,-454.152 573.661,-460.862"/>
</g>
<!-- Node8&#45;&gt;Node7 -->
<g id="edge13" class="edge"><title>Node8&#45;&gt;Node7</title>
<path fill="none" stroke="midnightblue" d="M504.076,-380.411C524.119,-374.931 549.273,-368.055 569.813,-362.44"/>
<polygon fill="midnightblue" stroke="midnightblue" points="570.76,-365.809 579.483,-359.796 568.914,-359.057 570.76,-365.809"/>
</g>
<!-- Node9 -->
<g id="node9" class="node"><title>Node9</title>
<g id="a_node9"><a xlink:href="../../d8/de2/menudefs_8qc.html#a0b350379da8a7002dee40a3598bf33c3" target="_top" xlink:title="cvar_set">
<polygon fill="none" stroke="black" points="582,-304.5 582,-323.5 636,-323.5 636,-304.5 582,-304.5"/>
<text text-anchor="middle" x="609" y="-311.5" font-family="Helvetica,sans-Serif" font-size="10.00">cvar_set</text>
</a>
</g>
</g>
<!-- Node8&#45;&gt;Node9 -->
<g id="edge9" class="edge"><title>Node8&#45;&gt;Node9</title>
<path fill="none" stroke="midnightblue" d="M479.78,-380.485C494.35,-368.049 521.557,-346.294 548,-333 555.565,-329.197 564.048,-325.955 572.2,-323.283"/>
<polygon fill="midnightblue" stroke="midnightblue" points="573.362,-326.588 581.895,-320.308 571.308,-319.896 573.362,-326.588"/>
</g>
<!-- Node10 -->
<g id="node10" class="node"><title>Node10</title>
<g id="a_node10"><a xlink:href="../../d8/de2/menudefs_8qc.html#a5231f4ff2813f7de782b67d25a9e4cf9" target="_top" xlink:title="fopen">
<polygon fill="none" stroke="black" points="588.5,-380.5 588.5,-399.5 629.5,-399.5 629.5,-380.5 588.5,-380.5"/>
<text text-anchor="middle" x="609" y="-387.5" font-family="Helvetica,sans-Serif" font-size="10.00">fopen</text>
</a>
</g>
</g>
<!-- Node8&#45;&gt;Node10 -->
<g id="edge11" class="edge"><title>Node8&#45;&gt;Node10</title>
<path fill="none" stroke="midnightblue" d="M511.839,-390C533.376,-390 558.94,-390 578.294,-390"/>
<polygon fill="midnightblue" stroke="midnightblue" points="578.343,-393.5 588.343,-390 578.343,-386.5 578.343,-393.5"/>
</g>
<!-- Node11 -->
<g id="node11" class="node"><title>Node11</title>
<g id="a_node11"><a xlink:href="../../d8/de2/menudefs_8qc.html#abbb0d86741e0056b6c04f7280c185d76" target="_top" xlink:title="ftos">
<polygon fill="none" stroke="black" points="592.5,-266.5 592.5,-285.5 625.5,-285.5 625.5,-266.5 592.5,-266.5"/>
<text text-anchor="middle" x="609" y="-273.5" font-family="Helvetica,sans-Serif" font-size="10.00">ftos</text>
</a>
</g>
</g>
<!-- Node8&#45;&gt;Node11 -->
<g id="edge12" class="edge"><title>Node8&#45;&gt;Node11</title>
<path fill="none" stroke="midnightblue" d="M475.895,-380.395C491.611,-358.733 530.109,-307.028 548,-295 558.239,-288.117 571.118,-283.609 582.317,-280.721"/>
<polygon fill="midnightblue" stroke="midnightblue" points="583.426,-284.058 592.398,-278.423 581.87,-277.233 583.426,-284.058"/>
</g>
<!-- Node12&#45;&gt;Node3 -->
<g id="edge17" class="edge"><title>Node12&#45;&gt;Node3</title>
<path fill="none" stroke="midnightblue" d="M341.141,-190.551C353.07,-211.925 384.642,-264.154 424,-295 429.021,-298.935 434.984,-302.238 440.845,-304.928"/>
<polygon fill="midnightblue" stroke="midnightblue" points="439.852,-308.305 450.431,-308.881 442.521,-301.833 439.852,-308.305"/>
</g>
<!-- Node12&#45;&gt;Node11 -->
<g id="edge18" class="edge"><title>Node12&#45;&gt;Node11</title>
<path fill="none" stroke="midnightblue" d="M356.373,-190.538C374.049,-198.633 400.43,-210.289 424,-219 479.673,-239.576 546.589,-259.019 582.401,-269.01"/>
<polygon fill="midnightblue" stroke="midnightblue" points="581.485,-272.388 592.056,-271.684 583.353,-265.642 581.485,-272.388"/>
</g>
<!-- Node13 -->
<g id="node13" class="node"><title>Node13</title>
<g id="a_node13"><a xlink:href="../../db/dcc/g__world_8qc.html#a7bd98f24d513342b45d7ec36af6564be" target="_top" xlink:title="GetGametype">
<polygon fill="none" stroke="black" points="429.5,-114.5 429.5,-133.5 506.5,-133.5 506.5,-114.5 429.5,-114.5"/>
<text text-anchor="middle" x="468" y="-121.5" font-family="Helvetica,sans-Serif" font-size="10.00">GetGametype</text>
</a>
</g>
</g>
<!-- Node12&#45;&gt;Node13 -->
<g id="edge19" class="edge"><title>Node12&#45;&gt;Node13</title>
<path fill="none" stroke="midnightblue" d="M357.926,-171.459C379.18,-162.212 411.636,-148.09 435.622,-137.653"/>
<polygon fill="midnightblue" stroke="midnightblue" points="437.229,-140.771 445.002,-133.572 434.436,-134.352 437.229,-140.771"/>
</g>
<!-- Node15 -->
<g id="node15" class="node"><title>Node15</title>
<g id="a_node15"><a xlink:href="../../db/dcc/g__world_8qc.html#a1330c9208470a4800fb84c8810728bcb" target="_top" xlink:title="GetMapname">
<polygon fill="none" stroke="black" points="430.5,-76.5 430.5,-95.5 505.5,-95.5 505.5,-76.5 430.5,-76.5"/>
<text text-anchor="middle" x="468" y="-83.5" font-family="Helvetica,sans-Serif" font-size="10.00">GetMapname</text>
</a>
</g>
</g>
<!-- Node12&#45;&gt;Node15 -->
<g id="edge21" class="edge"><title>Node12&#45;&gt;Node15</title>
<path fill="none" stroke="midnightblue" d="M345.519,-171.06C360.884,-155.434 392.613,-124.863 424,-105 426.759,-103.254 429.705,-101.59 432.713,-100.025"/>
<polygon fill="midnightblue" stroke="midnightblue" points="434.311,-103.14 441.796,-95.6424 431.269,-96.8356 434.311,-103.14"/>
</g>
<!-- Node16 -->
<g id="node16" class="node"><title>Node16</title>
<g id="a_node16"><a xlink:href="../../d8/de2/menudefs_8qc.html#a65fcee980f5a018b481188a84ead405f" target="_top" xlink:title="stov">
<polygon fill="none" stroke="black" points="450.5,-38.5 450.5,-57.5 485.5,-57.5 485.5,-38.5 450.5,-38.5"/>
<text text-anchor="middle" x="468" y="-45.5" font-family="Helvetica,sans-Serif" font-size="10.00">stov</text>
</a>
</g>
</g>
<!-- Node12&#45;&gt;Node16 -->
<g id="edge22" class="edge"><title>Node12&#45;&gt;Node16</title>
<path fill="none" stroke="midnightblue" d="M341.141,-171.449C353.07,-150.075 384.642,-97.8455 424,-67 429.021,-63.0652 434.984,-59.7621 440.845,-57.0717"/>
<polygon fill="midnightblue" stroke="midnightblue" points="442.521,-60.1669 450.431,-53.119 439.852,-53.6955 442.521,-60.1669"/>
</g>
<!-- Node17 -->
<g id="node17" class="node"><title>Node17</title>
<g id="a_node17"><a xlink:href="../../d8/de2/menudefs_8qc.html#ad76dc2b2895cd23f21e008f12a686158" target="_top" xlink:title="strcat">
<polygon fill="none" stroke="black" points="447.5,-0.5 447.5,-19.5 488.5,-19.5 488.5,-0.5 447.5,-0.5"/>
<text text-anchor="middle" x="468" y="-7.5" font-family="Helvetica,sans-Serif" font-size="10.00">strcat</text>
</a>
</g>
</g>
<!-- Node12&#45;&gt;Node17 -->
<g id="edge23" class="edge"><title>Node12&#45;&gt;Node17</title>
<path fill="none" stroke="midnightblue" d="M339.141,-171.439C348.199,-145.223 376.782,-71.3444 424,-29 427.999,-25.4139 432.784,-22.4159 437.686,-19.9407"/>
<polygon fill="midnightblue" stroke="midnightblue" points="439.337,-23.0379 447.082,-15.8077 436.519,-16.6303 439.337,-23.0379"/>
</g>
<!-- Node18 -->
<g id="node18" class="node"><title>Node18</title>
<g id="a_node18"><a xlink:href="../../d6/d38/urllib_8qc.html#ab062e9d27a0765ef339e418fed302413" target="_top" xlink:title="url_fclose">
<polygon fill="none" stroke="black" points="438.5,-266.5 438.5,-285.5 497.5,-285.5 497.5,-266.5 438.5,-266.5"/>
<text text-anchor="middle" x="468" y="-273.5" font-family="Helvetica,sans-Serif" font-size="10.00">url_fclose</text>
</a>
</g>
</g>
<!-- Node12&#45;&gt;Node18 -->
<g id="edge24" class="edge"><title>Node12&#45;&gt;Node18</title>
<path fill="none" stroke="midnightblue" d="M346.652,-190.591C362.756,-204.856 394.555,-232.115 424,-252 428.782,-255.23 434.032,-258.425 439.171,-261.379"/>
<polygon fill="midnightblue" stroke="midnightblue" points="437.735,-264.585 448.174,-266.392 441.14,-258.469 437.735,-264.585"/>
</g>
<!-- Node20 -->
<g id="node20" class="node"><title>Node20</title>
<g id="a_node20"><a xlink:href="../../d6/d38/urllib_8qc.html#a6874e918daa5d41240e63aa77536483f" target="_top" xlink:title="url_fgets">
<polygon fill="none" stroke="black" points="441,-190.5 441,-209.5 495,-209.5 495,-190.5 441,-190.5"/>
<text text-anchor="middle" x="468" y="-197.5" font-family="Helvetica,sans-Serif" font-size="10.00">url_fgets</text>
</a>
</g>
</g>
<!-- Node12&#45;&gt;Node20 -->
<g id="edge29" class="edge"><title>Node12&#45;&gt;Node20</title>
<path fill="none" stroke="midnightblue" d="M387.775,-188.509C402.108,-190.588 417.36,-192.8 430.615,-194.723"/>
<polygon fill="midnightblue" stroke="midnightblue" points="430.362,-198.223 440.761,-196.194 431.367,-191.295 430.362,-198.223"/>
</g>
<!-- Node22 -->
<g id="node22" class="node"><title>Node22</title>
<g id="a_node22"><a xlink:href="../../d6/d38/urllib_8qc.html#a6419075e93159f94633814942bfb04be" target="_top" xlink:title="url_fputs">
<polygon fill="none" stroke="black" points="441,-152.5 441,-171.5 495,-171.5 495,-152.5 441,-152.5"/>
<text text-anchor="middle" x="468" y="-159.5" font-family="Helvetica,sans-Serif" font-size="10.00">url_fputs</text>
</a>
</g>
</g>
<!-- Node12&#45;&gt;Node22 -->
<g id="edge31" class="edge"><title>Node12&#45;&gt;Node22</title>
<path fill="none" stroke="midnightblue" d="M387.775,-173.491C402.108,-171.412 417.36,-169.2 430.615,-167.277"/>
<polygon fill="midnightblue" stroke="midnightblue" points="431.367,-170.705 440.761,-165.806 430.362,-163.777 431.367,-170.705"/>
</g>
<!-- Node14 -->
<g id="node14" class="node"><title>Node14</title>
<g id="a_node14"><a xlink:href="../../d3/d46/mapinfo_8qc.html#a3f161ef2731e7a99667785631c18ae4b" target="_top" xlink:title="MapInfo_Type_ToString">
<polygon fill="none" stroke="black" points="548.5,-114.5 548.5,-133.5 669.5,-133.5 669.5,-114.5 548.5,-114.5"/>
<text text-anchor="middle" x="609" y="-121.5" font-family="Helvetica,sans-Serif" font-size="10.00">MapInfo_Type_ToString</text>
</a>
</g>
</g>
<!-- Node13&#45;&gt;Node14 -->
<g id="edge20" class="edge"><title>Node13&#45;&gt;Node14</title>
<path fill="none" stroke="midnightblue" d="M506.615,-124C516.465,-124 527.404,-124 538.349,-124"/>
<polygon fill="midnightblue" stroke="midnightblue" points="538.371,-127.5 548.371,-124 538.371,-120.5 538.371,-127.5"/>
</g>
<!-- Node18&#45;&gt;Node7 -->
<g id="edge28" class="edge"><title>Node18&#45;&gt;Node7</title>
<path fill="none" stroke="midnightblue" d="M495.363,-285.668C501.082,-288.298 506.931,-291.425 512,-295 531.012,-308.408 528.283,-320.651 548,-333 554.567,-337.113 562.101,-340.406 569.561,-343.017"/>
<polygon fill="midnightblue" stroke="midnightblue" points="568.65,-346.399 579.239,-346.068 570.754,-339.723 568.65,-346.399"/>
</g>
<!-- Node18&#45;&gt;Node9 -->
<g id="edge25" class="edge"><title>Node18&#45;&gt;Node9</title>
<path fill="none" stroke="midnightblue" d="M497.801,-283.874C519.274,-289.744 548.751,-297.802 571.815,-304.108"/>
<polygon fill="midnightblue" stroke="midnightblue" points="571.018,-307.518 581.587,-306.779 572.864,-300.766 571.018,-307.518"/>
</g>
<!-- Node18&#45;&gt;Node11 -->
<g id="edge27" class="edge"><title>Node18&#45;&gt;Node11</title>
<path fill="none" stroke="midnightblue" d="M497.801,-276C522.626,-276 558.148,-276 582.092,-276"/>
<polygon fill="midnightblue" stroke="midnightblue" points="582.199,-279.5 592.199,-276 582.199,-272.5 582.199,-279.5"/>
</g>
<!-- Node19 -->
<g id="node19" class="node"><title>Node19</title>
<g id="a_node19"><a xlink:href="../../d8/de2/menudefs_8qc.html#a1a78b46b9db5c0d6fcee5be7697afa09" target="_top" xlink:title="fclose">
<polygon fill="none" stroke="black" points="587.5,-228.5 587.5,-247.5 630.5,-247.5 630.5,-228.5 587.5,-228.5"/>
<text text-anchor="middle" x="609" y="-235.5" font-family="Helvetica,sans-Serif" font-size="10.00">fclose</text>
</a>
</g>
</g>
<!-- Node18&#45;&gt;Node19 -->
<g id="edge26" class="edge"><title>Node18&#45;&gt;Node19</title>
<path fill="none" stroke="midnightblue" d="M497.801,-268.126C521.075,-261.764 553.752,-252.83 577.475,-246.345"/>
<polygon fill="midnightblue" stroke="midnightblue" points="578.636,-249.656 587.359,-243.643 576.79,-242.904 578.636,-249.656"/>
</g>
<!-- Node21 -->
<g id="node21" class="node"><title>Node21</title>
<g id="a_node21"><a xlink:href="../../d8/de2/menudefs_8qc.html#a0e7ecefd4e3af6c242077b24445e5f78" target="_top" xlink:title="fgets">
<polygon fill="none" stroke="black" points="590,-190.5 590,-209.5 628,-209.5 628,-190.5 590,-190.5"/>
<text text-anchor="middle" x="609" y="-197.5" font-family="Helvetica,sans-Serif" font-size="10.00">fgets</text>
</a>
</g>
</g>
<!-- Node20&#45;&gt;Node21 -->
<g id="edge30" class="edge"><title>Node20&#45;&gt;Node21</title>
<path fill="none" stroke="midnightblue" d="M495.145,-200C519.259,-200 554.966,-200 579.732,-200"/>
<polygon fill="midnightblue" stroke="midnightblue" points="579.935,-203.5 589.935,-200 579.935,-196.5 579.935,-203.5"/>
</g>
<!-- Node23 -->
<g id="node23" class="node"><title>Node23</title>
<g id="a_node23"><a xlink:href="../../d8/de2/menudefs_8qc.html#a33a318a59e2648521862f24200a821df" target="_top" xlink:title="fputs">
<polygon fill="none" stroke="black" points="590,-152.5 590,-171.5 628,-171.5 628,-152.5 590,-152.5"/>
<text text-anchor="middle" x="609" y="-159.5" font-family="Helvetica,sans-Serif" font-size="10.00">fputs</text>
</a>
</g>
</g>
<!-- Node22&#45;&gt;Node23 -->
<g id="edge32" class="edge"><title>Node22&#45;&gt;Node23</title>
<path fill="none" stroke="midnightblue" d="M495.145,-162C519.259,-162 554.966,-162 579.732,-162"/>
<polygon fill="midnightblue" stroke="midnightblue" points="579.935,-165.5 589.935,-162 579.935,-158.5 579.935,-165.5"/>
</g>
</g>
</svg>
        <g id="navigator" transform="translate(0 0)" fill="#404254">
                <rect fill="#f2f5e9" fill-opacity="0.5" stroke="#606060" stroke-width=".5" x="0" y="0" width="60" height="60"/>
                <use id="zoomplus" xlink:href="#zoomPlus" x="17" y="9" onmousedown="handleZoom(evt,'in')"/>
                <use id="zoomminus" xlink:href="#zoomMin" x="42" y="9" onmousedown="handleZoom(evt,'out')"/>
                <use id="reset" xlink:href="#resetDef" x="30" y="36" onmousedown="handleReset()"/>
                <g id="arrowUp" xlink:href="#dirArrow" transform="translate(30 24)" onmousedown="handlePan(0,-1)">
                  <use xlink:href="#rim" fill="#404040">
                        <set attributeName="fill" to="#808080" begin="arrowUp.mouseover" end="arrowUp.mouseout"/>
                  </use>
                  <path fill="none" stroke="white" stroke-width="1.5" d="M0,-3.0v7 M-2.5,-0.5L0,-3.0L2.5,-0.5"/>
                </g>
                <g id="arrowRight" xlink:href="#dirArrow" transform="rotate(90) translate(36 -43)" onmousedown="handlePan(1,0)">
                  <use xlink:href="#rim" fill="#404040">
                        <set attributeName="fill" to="#808080" begin="arrowRight.mouseover" end="arrowRight.mouseout"/>
                  </use>
                  <path fill="none" stroke="white" stroke-width="1.5" d="M0,-3.0v7 M-2.5,-0.5L0,-3.0L2.5,-0.5"/>
                </g>
                <g id="arrowDown" xlink:href="#dirArrow" transform="rotate(180) translate(-30 -48)" onmousedown="handlePan(0,1)">
                  <use xlink:href="#rim" fill="#404040">
                        <set attributeName="fill" to="#808080" begin="arrowDown.mouseover" end="arrowDown.mouseout"/>
                  </use>
                  <path fill="none" stroke="white" stroke-width="1.5" d="M0,-3.0v7 M-2.5,-0.5L0,-3.0L2.5,-0.5"/>
                </g>
                <g id="arrowLeft" xlink:href="#dirArrow" transform="rotate(270) translate(-36 17)" onmousedown="handlePan(-1,0)">
                  <use xlink:href="#rim" fill="#404040">
                        <set attributeName="fill" to="#808080" begin="arrowLeft.mouseover" end="arrowLeft.mouseout"/>
                  </use>
                  <path fill="none" stroke="white" stroke-width="1.5" d="M0,-3.0v7 M-2.5,-0.5L0,-3.0L2.5,-0.5"/>
                </g>
        </g>
        <svg viewBox="0 0 15 15" width="100%" height="30px" preserveAspectRatio="xMaxYMin meet">
         <g id="arrow_out" transform="scale(0.3 0.3)">
          <a xlink:href="weaponstats_8qh_aa8f9d7c732fe1401e1ee110adfafa840_cgraph_org.svg" target="_base">
           <rect id="button" ry="5" rx="5" y="6" x="6" height="38" width="38"
                fill="#f2f5e9" fill-opacity="0.5" stroke="#606060" stroke-width="1.0"/>
           <path id="arrow"
             d="M 11.500037,31.436501 C 11.940474,20.09759 22.043105,11.32322 32.158766,21.979434 L 37.068811,17.246167 C 37.068811,17.246167 37.088388,32 37.088388,32 L 22.160133,31.978069 C 22.160133,31.978069 26.997745,27.140456 26.997745,27.140456 C 18.528582,18.264221 13.291696,25.230495 11.500037,31.436501 z"
             style="fill:#404040;"/>
          </a>
         </g>
        </svg>
</svg>
