<?xml version="1.0" encoding="UTF-8" standalone="no"?>
<!DOCTYPE svg PUBLIC "-//W3C//DTD SVG 1.1//EN"
 "http://www.w3.org/Graphics/SVG/1.1/DTD/svg11.dtd">
<!-- Generated by graphviz version 2.36.0 (20140111.2315)
 -->
<!-- Title: CSQCPlayer_PredictTo Pages: 1 -->
<svg width="1512pt" height="889pt"
 viewBox="0.00 0.00 1512.00 889.00" xmlns="http://www.w3.org/2000/svg" xmlns:xlink="http://www.w3.org/1999/xlink">
<g id="graph0" class="graph" transform="scale(1 1) rotate(0) translate(4 885)">
<title>CSQCPlayer_PredictTo</title>
<!-- Node1 -->
<g id="node1" class="node"><title>Node1</title>
<polygon fill="#bfbfbf" stroke="black" points="0.5,-377.5 0.5,-396.5 121.5,-396.5 121.5,-377.5 0.5,-377.5"/>
<text text-anchor="middle" x="61" y="-384.5" font-family="Helvetica,sans-Serif" font-size="10.00">CSQCPlayer_PredictTo</text>
</g>
<!-- Node2 -->
<g id="node2" class="node"><title>Node2</title>
<g id="a_node2"><a xlink:href="../../d7/da2/cl__player_8qc.html#a22375b90f268008d67bfeabd8d3833ea" target="_top" xlink:title="CSQCPlayer_GetPrediction\lErrorO">
<polygon fill="none" stroke="black" points="159,-465 159,-495 297,-495 297,-465 159,-465"/>
<text text-anchor="start" x="167" y="-483" font-family="Helvetica,sans-Serif" font-size="10.00">CSQCPlayer_GetPrediction</text>
<text text-anchor="middle" x="228" y="-472" font-family="Helvetica,sans-Serif" font-size="10.00">ErrorO</text>
</a>
</g>
</g>
<!-- Node1&#45;&gt;Node2 -->
<g id="edge1" class="edge"><title>Node1&#45;&gt;Node2</title>
<path fill="none" stroke="midnightblue" d="M73.4566,-396.678C90.8168,-410.967 125.243,-437.865 158,-455 162.047,-457.117 166.313,-459.131 170.658,-461.03"/>
<polygon fill="midnightblue" stroke="midnightblue" points="169.662,-464.406 180.241,-464.997 172.34,-457.938 169.662,-464.406"/>
</g>
<!-- Node3 -->
<g id="node3" class="node"><title>Node3</title>
<g id="a_node3"><a xlink:href="../../d7/da2/cl__player_8qc.html#ae6c6adf3117fa51e69a8693b38227b52" target="_top" xlink:title="CSQCPlayer_GetPrediction\lErrorV">
<polygon fill="none" stroke="black" points="159,-416 159,-446 297,-446 297,-416 159,-416"/>
<text text-anchor="start" x="167" y="-434" font-family="Helvetica,sans-Serif" font-size="10.00">CSQCPlayer_GetPrediction</text>
<text text-anchor="middle" x="228" y="-423" font-family="Helvetica,sans-Serif" font-size="10.00">ErrorV</text>
</a>
</g>
</g>
<!-- Node1&#45;&gt;Node3 -->
<g id="edge2" class="edge"><title>Node1&#45;&gt;Node3</title>
<path fill="none" stroke="midnightblue" d="M97.8025,-396.547C116.214,-401.457 139.251,-407.6 160.755,-413.335"/>
<polygon fill="midnightblue" stroke="midnightblue" points="159.941,-416.74 170.505,-415.935 161.744,-409.976 159.941,-416.74"/>
</g>
<!-- Node4 -->
<g id="node4" class="node"><title>Node4</title>
<g id="a_node4"><a xlink:href="../../d7/da2/cl__player_8qc.html#a5e5489226ac71cfd158e9f17eeeaa139" target="_top" xlink:title="CSQCPlayer_Physics">
<polygon fill="none" stroke="black" points="171,-377.5 171,-396.5 285,-396.5 285,-377.5 171,-377.5"/>
<text text-anchor="middle" x="228" y="-384.5" font-family="Helvetica,sans-Serif" font-size="10.00">CSQCPlayer_Physics</text>
</a>
</g>
</g>
<!-- Node1&#45;&gt;Node4 -->
<g id="edge3" class="edge"><title>Node1&#45;&gt;Node4</title>
<path fill="none" stroke="midnightblue" d="M121.569,-387C134.243,-387 147.701,-387 160.611,-387"/>
<polygon fill="midnightblue" stroke="midnightblue" points="160.822,-390.5 170.822,-387 160.822,-383.5 160.822,-390.5"/>
</g>
<!-- Node36 -->
<g id="node36" class="node"><title>Node36</title>
<g id="a_node36"><a xlink:href="../../d7/da2/cl__player_8qc.html#aeb2615290a152d9a6597f66296a5c399" target="_top" xlink:title="CSQCPlayer_SetMinsMaxs">
<polygon fill="none" stroke="black" points="158.5,-339.5 158.5,-358.5 297.5,-358.5 297.5,-339.5 158.5,-339.5"/>
<text text-anchor="middle" x="228" y="-346.5" font-family="Helvetica,sans-Serif" font-size="10.00">CSQCPlayer_SetMinsMaxs</text>
</a>
</g>
</g>
<!-- Node1&#45;&gt;Node36 -->
<g id="edge65" class="edge"><title>Node1&#45;&gt;Node36</title>
<path fill="none" stroke="midnightblue" d="M103.636,-377.411C125.508,-372.374 152.506,-366.156 175.664,-360.823"/>
<polygon fill="midnightblue" stroke="midnightblue" points="176.704,-364.175 185.663,-358.52 175.133,-357.354 176.704,-364.175"/>
</g>
<!-- Node37 -->
<g id="node37" class="node"><title>Node37</title>
<g id="a_node37"><a xlink:href="../../d7/da2/cl__player_8qc.html#aa0d9624853912644329129207b693e30" target="_top" xlink:title="CSQCPlayer_Unpredict">
<polygon fill="none" stroke="black" points="167.5,-301.5 167.5,-320.5 288.5,-320.5 288.5,-301.5 167.5,-301.5"/>
<text text-anchor="middle" x="228" y="-308.5" font-family="Helvetica,sans-Serif" font-size="10.00">CSQCPlayer_Unpredict</text>
</a>
</g>
</g>
<!-- Node1&#45;&gt;Node37 -->
<g id="edge66" class="edge"><title>Node1&#45;&gt;Node37</title>
<path fill="none" stroke="midnightblue" d="M75.3762,-377.48C93.3872,-365.04 126.787,-343.28 158,-330 163.493,-327.663 169.355,-325.534 175.254,-323.617"/>
<polygon fill="midnightblue" stroke="midnightblue" points="176.615,-326.861 185.157,-320.592 174.57,-320.166 176.615,-326.861"/>
</g>
<!-- Node5 -->
<g id="node5" class="node"><title>Node5</title>
<g id="a_node5"><a xlink:href="../../d2/db1/movetypes_8qc.html#a14cb5c9b8cf5efc10f5e55f9ae63b556" target="_top" xlink:title="_Movetype_CheckWater">
<polygon fill="none" stroke="black" points="881.5,-38.5 881.5,-57.5 1006.5,-57.5 1006.5,-38.5 881.5,-38.5"/>
<text text-anchor="middle" x="944" y="-45.5" font-family="Helvetica,sans-Serif" font-size="10.00">_Movetype_CheckWater</text>
</a>
</g>
</g>
<!-- Node4&#45;&gt;Node5 -->
<g id="edge4" class="edge"><title>Node4&#45;&gt;Node5</title>
<path fill="none" stroke="midnightblue" d="M275.013,-377.398C282.917,-374.894 290.873,-371.8 298,-368 316.632,-358.067 317.192,-349.78 334,-337 485.502,-221.803 514.266,-172.081 690,-99 748.471,-74.6842 819.49,-61.6727 871.382,-54.8949"/>
<polygon fill="midnightblue" stroke="midnightblue" points="872.012,-58.3433 881.497,-53.6209 871.137,-51.3981 872.012,-58.3433"/>
</g>
<!-- Node6 -->
<g id="node6" class="node"><title>Node6</title>
<g id="a_node6"><a xlink:href="../../d4/d0c/csprogsdefs_8qc.html#a4f0b78b1785821ba47129edb68e70f9e" target="_top" xlink:title="vector">
<polygon fill="none" stroke="black" points="1445,-342.5 1445,-361.5 1489,-361.5 1489,-342.5 1445,-342.5"/>
<text text-anchor="middle" x="1467" y="-349.5" font-family="Helvetica,sans-Serif" font-size="10.00">vector</text>
</a>
</g>
</g>
<!-- Node4&#45;&gt;Node6 -->
<g id="edge64" class="edge"><title>Node4&#45;&gt;Node6</title>
<path fill="none" stroke="midnightblue" d="M277.67,-396.608C284.862,-399.274 291.895,-402.672 298,-407 476.584,-533.602 365.093,-808 584,-808 584,-808 584,-808 1140,-808 1279.66,-808 1315.09,-738.226 1394,-623 1449.78,-541.554 1462.37,-419.101 1465.19,-371.707"/>
<polygon fill="midnightblue" stroke="midnightblue" points="1468.69,-371.745 1465.71,-361.58 1461.7,-371.388 1468.69,-371.745"/>
</g>
<!-- Node7 -->
<g id="node7" class="node"><title>Node7</title>
<g id="a_node7"><a xlink:href="../../d7/da2/cl__player_8qc.html#ae8571989265a08324908238d6859e4f3" target="_top" xlink:title="CSQC_ClientMovement\l_PlayerMove_Frame">
<polygon fill="none" stroke="black" points="346,-347 346,-377 468,-377 468,-347 346,-347"/>
<text text-anchor="start" x="354" y="-365" font-family="Helvetica,sans-Serif" font-size="10.00">CSQC_ClientMovement</text>
<text text-anchor="middle" x="407" y="-354" font-family="Helvetica,sans-Serif" font-size="10.00">_PlayerMove_Frame</text>
</a>
</g>
</g>
<!-- Node4&#45;&gt;Node7 -->
<g id="edge6" class="edge"><title>Node4&#45;&gt;Node7</title>
<path fill="none" stroke="midnightblue" d="M285.004,-379.09C301.024,-376.827 318.693,-374.332 335.464,-371.963"/>
<polygon fill="midnightblue" stroke="midnightblue" points="336.355,-375.372 345.767,-370.507 335.376,-368.44 336.355,-375.372"/>
</g>
<!-- Node8 -->
<g id="node8" class="node"><title>Node8</title>
<g id="a_node8"><a xlink:href="../../d2/db1/movetypes_8qc.html#a9dc4beb8296f404512228731929339d3" target="_top" xlink:title="Movetype_Physics_NoMatch\lTicrate">
<polygon fill="none" stroke="black" points="334.5,-396 334.5,-426 479.5,-426 479.5,-396 334.5,-396"/>
<text text-anchor="start" x="342.5" y="-414" font-family="Helvetica,sans-Serif" font-size="10.00">Movetype_Physics_NoMatch</text>
<text text-anchor="middle" x="407" y="-403" font-family="Helvetica,sans-Serif" font-size="10.00">Ticrate</text>
</a>
</g>
</g>
<!-- Node4&#45;&gt;Node8 -->
<g id="edge7" class="edge"><title>Node4&#45;&gt;Node8</title>
<path fill="none" stroke="midnightblue" d="M285.004,-394.594C297.514,-396.29 311.029,-398.123 324.337,-399.927"/>
<polygon fill="midnightblue" stroke="midnightblue" points="324.074,-403.423 334.454,-401.299 325.015,-396.487 324.074,-403.423"/>
</g>
<!-- Node5&#45;&gt;Node6 -->
<g id="edge5" class="edge"><title>Node5&#45;&gt;Node6</title>
<path fill="none" stroke="midnightblue" d="M1006.82,-41.8859C1115.87,-32.4836 1336.35,-20.1086 1394,-67 1435.85,-101.038 1457.68,-273.216 1464.02,-332.168"/>
<polygon fill="midnightblue" stroke="midnightblue" points="1460.56,-332.79 1465.08,-342.374 1467.52,-332.065 1460.56,-332.79"/>
</g>
<!-- Node9 -->
<g id="node9" class="node"><title>Node9</title>
<g id="a_node9"><a xlink:href="../../d2/db1/movetypes_8qc.html#a49dc89e672be0a131f3c6d719bd4661e" target="_top" xlink:title="_Movetype_Physics_Client\lFrame">
<polygon fill="none" stroke="black" points="517,-374 517,-404 653,-404 653,-374 517,-374"/>
<text text-anchor="start" x="525" y="-392" font-family="Helvetica,sans-Serif" font-size="10.00">_Movetype_Physics_Client</text>
<text text-anchor="middle" x="585" y="-381" font-family="Helvetica,sans-Serif" font-size="10.00">Frame</text>
</a>
</g>
</g>
<!-- Node8&#45;&gt;Node9 -->
<g id="edge8" class="edge"><title>Node8&#45;&gt;Node9</title>
<path fill="none" stroke="midnightblue" d="M479.586,-402.052C488.506,-400.937 497.659,-399.793 506.661,-398.667"/>
<polygon fill="midnightblue" stroke="midnightblue" points="507.251,-402.121 516.74,-397.407 506.383,-395.175 507.251,-402.121"/>
</g>
<!-- Node35 -->
<g id="node35" class="node"><title>Node35</title>
<g id="a_node35"><a xlink:href="../../d2/db1/movetypes_8qc.html#a8ce6e27c196235e413e903d20b2ac126" target="_top" xlink:title="_Movetype_Physics_Frame">
<polygon fill="none" stroke="black" points="516,-423.5 516,-442.5 654,-442.5 654,-423.5 516,-423.5"/>
<text text-anchor="middle" x="585" y="-430.5" font-family="Helvetica,sans-Serif" font-size="10.00">_Movetype_Physics_Frame</text>
</a>
</g>
</g>
<!-- Node8&#45;&gt;Node35 -->
<g id="edge57" class="edge"><title>Node8&#45;&gt;Node35</title>
<path fill="none" stroke="midnightblue" d="M479.586,-419.948C488.205,-421.026 497.041,-422.13 505.749,-423.219"/>
<polygon fill="midnightblue" stroke="midnightblue" points="505.534,-426.719 515.891,-424.486 506.402,-419.773 505.534,-426.719"/>
</g>
<!-- Node9&#45;&gt;Node5 -->
<g id="edge9" class="edge"><title>Node9&#45;&gt;Node5</title>
<path fill="none" stroke="midnightblue" d="M594.635,-373.619C611.192,-344.755 649.385,-281.134 690,-234 756.744,-156.543 772.745,-132.3 860,-79 871.925,-71.7157 885.838,-65.6975 898.827,-60.9642"/>
<polygon fill="midnightblue" stroke="midnightblue" points="900.232,-64.1813 908.531,-57.5953 897.936,-57.5685 900.232,-64.1813"/>
</g>
<!-- Node10 -->
<g id="node10" class="node"><title>Node10</title>
<g id="a_node10"><a xlink:href="../../d2/db1/movetypes_8qc.html#a1c681fcc84c5196534b06c2430e184ee" target="_top" xlink:title="_Movetype_LinkEdict">
<polygon fill="none" stroke="black" points="1084,-613.5 1084,-632.5 1194,-632.5 1194,-613.5 1084,-613.5"/>
<text text-anchor="middle" x="1139" y="-620.5" font-family="Helvetica,sans-Serif" font-size="10.00">_Movetype_LinkEdict</text>
</a>
</g>
</g>
<!-- Node9&#45;&gt;Node10 -->
<g id="edge10" class="edge"><title>Node9&#45;&gt;Node10</title>
<path fill="none" stroke="midnightblue" d="M635.244,-404.003C641.786,-406.876 648.22,-410.198 654,-414 667.887,-423.135 844.727,-624.44 860,-631 896.999,-646.892 1003.8,-638.679 1073.74,-631.026"/>
<polygon fill="midnightblue" stroke="midnightblue" points="1074.23,-634.493 1083.78,-629.904 1073.45,-627.536 1074.23,-634.493"/>
</g>
<!-- Node14 -->
<g id="node14" class="node"><title>Node14</title>
<g id="a_node14"><a xlink:href="../../d3/d45/physics_2movetypes_2follow_8qc.html#a205b11844120bb8f225d7479e7e38023" target="_top" xlink:title="_Movetype_Physics_Follow">
<polygon fill="none" stroke="black" points="874.5,-722.5 874.5,-741.5 1013.5,-741.5 1013.5,-722.5 874.5,-722.5"/>
<text text-anchor="middle" x="944" y="-729.5" font-family="Helvetica,sans-Serif" font-size="10.00">_Movetype_Physics_Follow</text>
</a>
</g>
</g>
<!-- Node9&#45;&gt;Node14 -->
<g id="edge15" class="edge"><title>Node9&#45;&gt;Node14</title>
<path fill="none" stroke="midnightblue" d="M643.105,-404.208C647.198,-406.949 650.919,-410.183 654,-414 726.166,-503.406 612.944,-584.773 690,-670 733.489,-718.101 807.635,-731.769 864.45,-734.486"/>
<polygon fill="midnightblue" stroke="midnightblue" points="864.362,-737.985 874.486,-734.862 864.624,-730.99 864.362,-737.985"/>
</g>
<!-- Node16 -->
<g id="node16" class="node"><title>Node16</title>
<g id="a_node16"><a xlink:href="../../d9/d61/step_8qc.html#a0a14f8cfdb8ee1552e28910ad5121bd8" target="_top" xlink:title="_Movetype_Physics_Step">
<polygon fill="none" stroke="black" points="691.5,-421.5 691.5,-440.5 822.5,-440.5 822.5,-421.5 691.5,-421.5"/>
<text text-anchor="middle" x="757" y="-428.5" font-family="Helvetica,sans-Serif" font-size="10.00">_Movetype_Physics_Step</text>
</a>
</g>
</g>
<!-- Node9&#45;&gt;Node16 -->
<g id="edge19" class="edge"><title>Node9&#45;&gt;Node16</title>
<path fill="none" stroke="midnightblue" d="M646.894,-404.044C666.841,-408.973 688.719,-414.378 707.614,-419.046"/>
<polygon fill="midnightblue" stroke="midnightblue" points="706.936,-422.483 717.483,-421.484 708.615,-415.688 706.936,-422.483"/>
</g>
<!-- Node27 -->
<g id="node27" class="node"><title>Node27</title>
<g id="a_node27"><a xlink:href="../../dc/d7e/toss_8qc.html#ad040ac65da399e22d3850e1c1268984c" target="_top" xlink:title="_Movetype_Physics_Toss">
<polygon fill="none" stroke="black" points="691,-380.5 691,-399.5 823,-399.5 823,-380.5 691,-380.5"/>
<text text-anchor="middle" x="757" y="-387.5" font-family="Helvetica,sans-Serif" font-size="10.00">_Movetype_Physics_Toss</text>
</a>
</g>
</g>
<!-- Node9&#45;&gt;Node27 -->
<g id="edge33" class="edge"><title>Node9&#45;&gt;Node27</title>
<path fill="none" stroke="midnightblue" d="M653.189,-389.395C662.224,-389.448 671.541,-389.503 680.706,-389.557"/>
<polygon fill="midnightblue" stroke="midnightblue" points="680.944,-393.058 690.965,-389.617 680.985,-386.059 680.944,-393.058"/>
</g>
<!-- Node33 -->
<g id="node33" class="node"><title>Node33</title>
<g id="a_node33"><a xlink:href="../../de/d57/walk_8qc.html#a3b19a847af98335e060aba36c450a6b1" target="_top" xlink:title="_Movetype_Physics_Walk">
<polygon fill="none" stroke="black" points="690.5,-295.5 690.5,-314.5 823.5,-314.5 823.5,-295.5 690.5,-295.5"/>
<text text-anchor="middle" x="757" y="-302.5" font-family="Helvetica,sans-Serif" font-size="10.00">_Movetype_Physics_Walk</text>
</a>
</g>
</g>
<!-- Node9&#45;&gt;Node33 -->
<g id="edge46" class="edge"><title>Node9&#45;&gt;Node33</title>
<path fill="none" stroke="midnightblue" d="M616.393,-373.982C647.761,-358.483 696.337,-334.481 727.133,-319.264"/>
<polygon fill="midnightblue" stroke="midnightblue" points="729.048,-322.222 736.463,-314.654 725.947,-315.946 729.048,-322.222"/>
</g>
<!-- Node10&#45;&gt;Node6 -->
<g id="edge14" class="edge"><title>Node10&#45;&gt;Node6</title>
<path fill="none" stroke="midnightblue" d="M1169.32,-613.383C1220.47,-595.351 1326.98,-552.12 1394,-485 1427.41,-451.538 1449.45,-399.335 1459.58,-371.319"/>
<polygon fill="midnightblue" stroke="midnightblue" points="1463,-372.136 1462.98,-361.542 1456.39,-369.835 1463,-372.136"/>
</g>
<!-- Node11 -->
<g id="node11" class="node"><title>Node11</title>
<g id="a_node11"><a xlink:href="../../d2/db1/movetypes_8qc.html#a9eab855e43664a019197c6c63e17698b" target="_top" xlink:title="_Movetype_LinkEdict\l_TouchAreaGrid">
<polygon fill="none" stroke="black" points="1267,-837 1267,-867 1377,-867 1377,-837 1267,-837"/>
<text text-anchor="start" x="1275" y="-855" font-family="Helvetica,sans-Serif" font-size="10.00">_Movetype_LinkEdict</text>
<text text-anchor="middle" x="1322" y="-844" font-family="Helvetica,sans-Serif" font-size="10.00">_TouchAreaGrid</text>
</a>
</g>
</g>
<!-- Node10&#45;&gt;Node11 -->
<g id="edge11" class="edge"><title>Node10&#45;&gt;Node11</title>
<path fill="none" stroke="midnightblue" d="M1147.55,-632.548C1174.11,-666.156 1263.78,-779.603 1302.71,-828.858"/>
<polygon fill="midnightblue" stroke="midnightblue" points="1299.99,-831.058 1308.93,-836.733 1305.48,-826.718 1299.99,-831.058"/>
</g>
<!-- Node12 -->
<g id="node12" class="node"><title>Node12</title>
<g id="a_node12"><a xlink:href="../../d5/df2/common_2util_8qh.html#a3385b15af8ffd7f5c33d2fbb3a9eb237" target="_top" xlink:title="requires that m2&gt;m1 in all coordinates, and that m4&gt;m3 ">
<polygon fill="none" stroke="black" points="1430,-823.5 1430,-842.5 1504,-842.5 1504,-823.5 1430,-823.5"/>
<text text-anchor="middle" x="1467" y="-830.5" font-family="Helvetica,sans-Serif" font-size="10.00">boxesoverlap</text>
</a>
</g>
</g>
<!-- Node11&#45;&gt;Node12 -->
<g id="edge12" class="edge"><title>Node11&#45;&gt;Node12</title>
<path fill="none" stroke="midnightblue" d="M1377.06,-844.817C1391.05,-842.958 1405.99,-840.973 1419.56,-839.171"/>
<polygon fill="midnightblue" stroke="midnightblue" points="1420.17,-842.62 1429.62,-837.833 1419.25,-835.681 1420.17,-842.62"/>
</g>
<!-- Node13 -->
<g id="node13" class="node"><title>Node13</title>
<g id="a_node13"><a xlink:href="../../d8/de2/menudefs_8qc.html#a79d61ab0e4126e02af8bc36d432aedaf" target="_top" xlink:title="vlen">
<polygon fill="none" stroke="black" points="1449.5,-861.5 1449.5,-880.5 1484.5,-880.5 1484.5,-861.5 1449.5,-861.5"/>
<text text-anchor="middle" x="1467" y="-868.5" font-family="Helvetica,sans-Serif" font-size="10.00">vlen</text>
</a>
</g>
</g>
<!-- Node11&#45;&gt;Node13 -->
<g id="edge13" class="edge"><title>Node11&#45;&gt;Node13</title>
<path fill="none" stroke="midnightblue" d="M1377.06,-859.183C1398.28,-862.003 1421.69,-865.112 1439.16,-867.434"/>
<polygon fill="midnightblue" stroke="midnightblue" points="1438.82,-870.92 1449.2,-868.768 1439.75,-863.981 1438.82,-870.92"/>
</g>
<!-- Node14&#45;&gt;Node6 -->
<g id="edge18" class="edge"><title>Node14&#45;&gt;Node6</title>
<path fill="none" stroke="midnightblue" d="M1013.77,-730.951C1069.8,-727.858 1149.87,-718.241 1214,-690 1307.76,-648.711 1334,-629.04 1394,-546 1434.42,-490.055 1454.73,-408.815 1462.34,-371.757"/>
<polygon fill="midnightblue" stroke="midnightblue" points="1465.81,-372.239 1464.3,-361.752 1458.94,-370.891 1465.81,-372.239"/>
</g>
<!-- Node14&#45;&gt;Node10 -->
<g id="edge16" class="edge"><title>Node14&#45;&gt;Node10</title>
<path fill="none" stroke="midnightblue" d="M995.745,-722.375C1006.91,-718.912 1018.29,-714.25 1028,-708 1048.67,-694.695 1045.11,-681.731 1064,-666 1077.36,-654.877 1093.97,-644.939 1108.06,-637.427"/>
<polygon fill="midnightblue" stroke="midnightblue" points="1110.07,-640.329 1117.34,-632.629 1106.85,-634.11 1110.07,-640.329"/>
</g>
<!-- Node15 -->
<g id="node15" class="node"><title>Node15</title>
<g id="a_node15"><a xlink:href="../../d4/d0c/csprogsdefs_8qc.html#acbb54a239d76062465dccbc6a6c6e464" target="_top" xlink:title="entity">
<polygon fill="none" stroke="black" points="1301.5,-456.5 1301.5,-475.5 1342.5,-475.5 1342.5,-456.5 1301.5,-456.5"/>
<text text-anchor="middle" x="1322" y="-463.5" font-family="Helvetica,sans-Serif" font-size="10.00">entity</text>
</a>
</g>
</g>
<!-- Node14&#45;&gt;Node15 -->
<g id="edge17" class="edge"><title>Node14&#45;&gt;Node15</title>
<path fill="none" stroke="midnightblue" d="M1013.65,-722.838C1072.26,-712.026 1156.02,-689.151 1214,-642 1267.3,-598.653 1300.86,-521.24 1314.3,-485.308"/>
<polygon fill="midnightblue" stroke="midnightblue" points="1317.71,-486.166 1317.82,-475.571 1311.12,-483.785 1317.71,-486.166"/>
</g>
<!-- Node16&#45;&gt;Node10 -->
<g id="edge32" class="edge"><title>Node16&#45;&gt;Node10</title>
<path fill="none" stroke="midnightblue" d="M760.557,-440.801C768.924,-470.671 798.544,-560.843 860,-599 924.388,-638.977 1013.9,-639.055 1073.79,-633.071"/>
<polygon fill="midnightblue" stroke="midnightblue" points="1074.31,-636.535 1083.87,-631.978 1073.55,-629.576 1074.31,-636.535"/>
</g>
<!-- Node17 -->
<g id="node17" class="node"><title>Node17</title>
<g id="a_node17"><a xlink:href="../../d2/db1/movetypes_8qc.html#a339edb79ca2ee708f1d39819496794bf" target="_top" xlink:title="_Movetype_CheckVelocity">
<polygon fill="none" stroke="black" points="877,-228.5 877,-247.5 1011,-247.5 1011,-228.5 877,-228.5"/>
<text text-anchor="middle" x="944" y="-235.5" font-family="Helvetica,sans-Serif" font-size="10.00">_Movetype_CheckVelocity</text>
</a>
</g>
</g>
<!-- Node16&#45;&gt;Node17 -->
<g id="edge20" class="edge"><title>Node16&#45;&gt;Node17</title>
<path fill="none" stroke="midnightblue" d="M805.211,-421.441C812.167,-418.379 818.747,-414.337 824,-409 861.271,-371.132 828.378,-337.699 860,-295 873.518,-276.747 894.696,-262.339 912.276,-252.574"/>
<polygon fill="midnightblue" stroke="midnightblue" points="914.404,-255.408 921.601,-247.633 911.126,-249.223 914.404,-255.408"/>
</g>
<!-- Node18 -->
<g id="node18" class="node"><title>Node18</title>
<g id="a_node18"><a xlink:href="../../d2/db1/movetypes_8qc.html#aa9a451c248f6edd8b206c427c6c9eea5" target="_top" xlink:title="_Movetype_CheckWaterTransition">
<polygon fill="none" stroke="black" points="860.5,-570.5 860.5,-589.5 1027.5,-589.5 1027.5,-570.5 860.5,-570.5"/>
<text text-anchor="middle" x="944" y="-577.5" font-family="Helvetica,sans-Serif" font-size="10.00">_Movetype_CheckWaterTransition</text>
</a>
</g>
</g>
<!-- Node16&#45;&gt;Node18 -->
<g id="edge21" class="edge"><title>Node16&#45;&gt;Node18</title>
<path fill="none" stroke="midnightblue" d="M762.619,-440.672C774.806,-465.086 810.339,-529.499 860,-561 863.345,-563.122 866.899,-565.008 870.582,-566.684"/>
<polygon fill="midnightblue" stroke="midnightblue" points="869.371,-569.969 879.956,-570.432 871.97,-563.469 869.371,-569.969"/>
</g>
<!-- Node19 -->
<g id="node19" class="node"><title>Node19</title>
<g id="a_node19"><a xlink:href="../../d2/db1/movetypes_8qc.html#a79e4edd38f331d8a2df4fe27b9df91cf" target="_top" xlink:title="_Movetype_FlyMove">
<polygon fill="none" stroke="black" points="890.5,-304.5 890.5,-323.5 997.5,-323.5 997.5,-304.5 890.5,-304.5"/>
<text text-anchor="middle" x="944" y="-311.5" font-family="Helvetica,sans-Serif" font-size="10.00">_Movetype_FlyMove</text>
</a>
</g>
</g>
<!-- Node16&#45;&gt;Node19 -->
<g id="edge22" class="edge"><title>Node16&#45;&gt;Node19</title>
<path fill="none" stroke="midnightblue" d="M794.242,-421.455C804.187,-418.165 814.767,-414.017 824,-409 864.134,-387.193 904.301,-351.547 926.174,-330.677"/>
<polygon fill="midnightblue" stroke="midnightblue" points="928.62,-333.179 933.371,-323.709 923.751,-328.15 928.62,-333.179"/>
</g>
<!-- Node19&#45;&gt;Node6 -->
<g id="edge31" class="edge"><title>Node19&#45;&gt;Node6</title>
<path fill="none" stroke="midnightblue" d="M997.581,-317.64C1051.81,-321.411 1138.82,-327.511 1214,-333 1293.53,-338.807 1387.16,-345.946 1434.77,-349.598"/>
<polygon fill="midnightblue" stroke="midnightblue" points="1434.52,-353.089 1444.76,-350.365 1435.06,-346.109 1434.52,-353.089"/>
</g>
<!-- Node20 -->
<g id="node20" class="node"><title>Node20</title>
<g id="a_node20"><a xlink:href="../../d2/db1/movetypes_8qc.html#a8eb028ddd5ef1d5b4fa30afe433e74ae" target="_top" xlink:title="_Movetype_ClipVelocity">
<polygon fill="none" stroke="black" points="1078,-342.5 1078,-361.5 1200,-361.5 1200,-342.5 1078,-342.5"/>
<text text-anchor="middle" x="1139" y="-349.5" font-family="Helvetica,sans-Serif" font-size="10.00">_Movetype_ClipVelocity</text>
</a>
</g>
</g>
<!-- Node19&#45;&gt;Node20 -->
<g id="edge23" class="edge"><title>Node19&#45;&gt;Node20</title>
<path fill="none" stroke="midnightblue" d="M993.702,-323.589C1019.86,-328.739 1052.28,-335.123 1079.77,-340.534"/>
<polygon fill="midnightblue" stroke="midnightblue" points="1079.16,-343.982 1089.65,-342.48 1080.51,-337.114 1079.16,-343.982"/>
</g>
<!-- Node21 -->
<g id="node21" class="node"><title>Node21</title>
<g id="a_node21"><a xlink:href="../../d2/db1/movetypes_8qc.html#a87faffe8e9d50ad4b76370c75e8dc91b" target="_top" xlink:title="_Movetype_PushEntity">
<polygon fill="none" stroke="black" points="1080,-76.5 1080,-95.5 1198,-95.5 1198,-76.5 1080,-76.5"/>
<text text-anchor="middle" x="1139" y="-83.5" font-family="Helvetica,sans-Serif" font-size="10.00">_Movetype_PushEntity</text>
</a>
</g>
</g>
<!-- Node19&#45;&gt;Node21 -->
<g id="edge24" class="edge"><title>Node19&#45;&gt;Node21</title>
<path fill="none" stroke="midnightblue" d="M997.789,-306.96C1008.86,-303.376 1019.68,-298.012 1028,-290 1064.75,-254.608 1039.97,-226.006 1064,-181 1079.88,-151.253 1105.13,-121.278 1121.63,-103.171"/>
<polygon fill="midnightblue" stroke="midnightblue" points="1124.3,-105.442 1128.54,-95.7301 1119.17,-100.681 1124.3,-105.442"/>
</g>
<!-- Node25 -->
<g id="node25" class="node"><title>Node25</title>
<g id="a_node25"><a xlink:href="../../d8/de2/menudefs_8qc.html#accccfae161879454243b3a8695a9bf3b" target="_top" xlink:title="fabs">
<polygon fill="none" stroke="black" points="1121.5,-190.5 1121.5,-209.5 1156.5,-209.5 1156.5,-190.5 1121.5,-190.5"/>
<text text-anchor="middle" x="1139" y="-197.5" font-family="Helvetica,sans-Serif" font-size="10.00">fabs</text>
</a>
</g>
</g>
<!-- Node19&#45;&gt;Node25 -->
<g id="edge29" class="edge"><title>Node19&#45;&gt;Node25</title>
<path fill="none" stroke="midnightblue" d="M992.178,-304.412C1004.3,-300.875 1017.01,-296.17 1028,-290 1046.92,-279.372 1047.39,-270.969 1064,-257 1081.33,-242.431 1101.76,-226.801 1116.76,-215.6"/>
<polygon fill="midnightblue" stroke="midnightblue" points="1118.96,-218.329 1124.9,-209.558 1114.79,-212.708 1118.96,-218.329"/>
</g>
<!-- Node26 -->
<g id="node26" class="node"><title>Node26</title>
<g id="a_node26"><a xlink:href="../../d8/de2/menudefs_8qc.html#a83f4d3f317a80e82e6b16ea61ea5efc3" target="_top" xlink:title="sqrt">
<polygon fill="none" stroke="black" points="1122.5,-266.5 1122.5,-285.5 1155.5,-285.5 1155.5,-266.5 1122.5,-266.5"/>
<text text-anchor="middle" x="1139" y="-273.5" font-family="Helvetica,sans-Serif" font-size="10.00">sqrt</text>
</a>
</g>
</g>
<!-- Node19&#45;&gt;Node26 -->
<g id="edge30" class="edge"><title>Node19&#45;&gt;Node26</title>
<path fill="none" stroke="midnightblue" d="M993.702,-304.411C1031.3,-297.009 1081.84,-287.058 1112.05,-281.11"/>
<polygon fill="midnightblue" stroke="midnightblue" points="1113.06,-284.478 1122.2,-279.112 1111.71,-277.61 1113.06,-284.478"/>
</g>
<!-- Node22 -->
<g id="node22" class="node"><title>Node22</title>
<g id="a_node22"><a xlink:href="../../d2/db1/movetypes_8qc.html#aec8e38c6a6af79893d641f0ae53a2042" target="_top" xlink:title="_Movetype_Impact">
<polygon fill="none" stroke="black" points="1272,-76.5 1272,-95.5 1372,-95.5 1372,-76.5 1272,-76.5"/>
<text text-anchor="middle" x="1322" y="-83.5" font-family="Helvetica,sans-Serif" font-size="10.00">_Movetype_Impact</text>
</a>
</g>
</g>
<!-- Node21&#45;&gt;Node22 -->
<g id="edge25" class="edge"><title>Node21&#45;&gt;Node22</title>
<path fill="none" stroke="midnightblue" d="M1198.27,-86C1218.6,-86 1241.43,-86 1261.84,-86"/>
<polygon fill="midnightblue" stroke="midnightblue" points="1261.95,-89.5001 1271.95,-86 1261.95,-82.5001 1261.95,-89.5001"/>
</g>
<!-- Node23 -->
<g id="node23" class="node"><title>Node23</title>
<g id="a_node23"><a xlink:href="../../d2/db1/movetypes_8qc.html#a2ad725bc81de4f1ffff07adfb63a64c1" target="_top" xlink:title="_Movetype_PushEntityTrace">
<polygon fill="none" stroke="black" points="1250.5,-0.5 1250.5,-19.5 1393.5,-19.5 1393.5,-0.5 1250.5,-0.5"/>
<text text-anchor="middle" x="1322" y="-7.5" font-family="Helvetica,sans-Serif" font-size="10.00">_Movetype_PushEntityTrace</text>
</a>
</g>
</g>
<!-- Node21&#45;&gt;Node23 -->
<g id="edge26" class="edge"><title>Node21&#45;&gt;Node23</title>
<path fill="none" stroke="midnightblue" d="M1162.92,-76.3745C1194.75,-63.0119 1252.47,-38.7735 1288.67,-23.5771"/>
<polygon fill="midnightblue" stroke="midnightblue" points="1290.4,-26.6459 1298.26,-19.5473 1287.69,-20.1917 1290.4,-26.6459"/>
</g>
<!-- Node23&#45;&gt;Node6 -->
<g id="edge28" class="edge"><title>Node23&#45;&gt;Node6</title>
<path fill="none" stroke="midnightblue" d="M1373.13,-19.6546C1380.97,-23.0801 1388.34,-27.7188 1394,-34 1434.41,-78.8201 1457.46,-269.593 1464.03,-332.089"/>
<polygon fill="midnightblue" stroke="midnightblue" points="1460.56,-332.61 1465.06,-342.202 1467.52,-331.897 1460.56,-332.61"/>
</g>
<!-- Node24 -->
<g id="node24" class="node"><title>Node24</title>
<g id="a_node24"><a xlink:href="../../d8/de2/menudefs_8qc.html#aebeeec7a2529f36483e14f76b1871271" target="_top" xlink:title="max">
<polygon fill="none" stroke="black" points="1449.5,-0.5 1449.5,-19.5 1484.5,-19.5 1484.5,-0.5 1449.5,-0.5"/>
<text text-anchor="middle" x="1467" y="-7.5" font-family="Helvetica,sans-Serif" font-size="10.00">max</text>
</a>
</g>
</g>
<!-- Node23&#45;&gt;Node24 -->
<g id="edge27" class="edge"><title>Node23&#45;&gt;Node24</title>
<path fill="none" stroke="midnightblue" d="M1393.66,-10C1409.93,-10 1426.26,-10 1439.28,-10"/>
<polygon fill="midnightblue" stroke="midnightblue" points="1439.36,-13.5001 1449.36,-10 1439.36,-6.5001 1439.36,-13.5001"/>
</g>
<!-- Node27&#45;&gt;Node6 -->
<g id="edge45" class="edge"><title>Node27&#45;&gt;Node6</title>
<path fill="none" stroke="midnightblue" d="M823.353,-387.967C911.923,-385.055 1074.98,-379.135 1214,-371 1293.61,-366.342 1387.2,-358.721 1434.79,-354.692"/>
<polygon fill="midnightblue" stroke="midnightblue" points="1435.11,-358.178 1444.78,-353.842 1434.52,-351.203 1435.11,-358.178"/>
</g>
<!-- Node27&#45;&gt;Node17 -->
<g id="edge34" class="edge"><title>Node27&#45;&gt;Node17</title>
<path fill="none" stroke="midnightblue" d="M769.165,-380.481C783.054,-368.291 807.005,-346.091 824,-324 843.429,-298.745 834.889,-281.614 860,-262 865.48,-257.719 871.698,-254.202 878.205,-251.312"/>
<polygon fill="midnightblue" stroke="midnightblue" points="879.864,-254.421 887.896,-247.511 877.308,-247.904 879.864,-254.421"/>
</g>
<!-- Node27&#45;&gt;Node18 -->
<g id="edge35" class="edge"><title>Node27&#45;&gt;Node18</title>
<path fill="none" stroke="midnightblue" d="M806.201,-399.556C812.867,-402.62 819.097,-406.663 824,-412 870.091,-462.17 811.538,-513.117 860,-561 861.301,-562.286 862.671,-563.492 864.099,-564.622"/>
<polygon fill="midnightblue" stroke="midnightblue" points="862.557,-567.795 872.85,-570.308 866.371,-561.925 862.557,-567.795"/>
</g>
<!-- Node27&#45;&gt;Node20 -->
<g id="edge36" class="edge"><title>Node27&#45;&gt;Node20</title>
<path fill="none" stroke="midnightblue" d="M823.236,-380.549C835.44,-378.922 848.098,-377.33 860,-376 930.591,-368.114 1011.52,-361.388 1067.78,-357.081"/>
<polygon fill="midnightblue" stroke="midnightblue" points="1068.28,-360.552 1077.99,-356.305 1067.75,-353.573 1068.28,-360.552"/>
</g>
<!-- Node27&#45;&gt;Node21 -->
<g id="edge37" class="edge"><title>Node27&#45;&gt;Node21</title>
<path fill="none" stroke="midnightblue" d="M767.909,-380.208C791.367,-357.112 849.142,-300.738 860,-295 927.683,-259.232 968.255,-304.864 1028,-257 1057.17,-233.631 1044.4,-212.823 1064,-181 1081.78,-152.134 1106.73,-121.719 1122.63,-103.3"/>
<polygon fill="midnightblue" stroke="midnightblue" points="1125.3,-105.564 1129.24,-95.7295 1120.02,-100.96 1125.3,-105.564"/>
</g>
<!-- Node28 -->
<g id="node28" class="node"><title>Node28</title>
<g id="a_node28"><a xlink:href="../../d2/db1/movetypes_8qc.html#ab024873d80d2f0654e96629b7b47fd6a" target="_top" xlink:title="_Movetype_UnstickEntity">
<polygon fill="none" stroke="black" points="879.5,-456.5 879.5,-475.5 1008.5,-475.5 1008.5,-456.5 879.5,-456.5"/>
<text text-anchor="middle" x="944" y="-463.5" font-family="Helvetica,sans-Serif" font-size="10.00">_Movetype_UnstickEntity</text>
</a>
</g>
</g>
<!-- Node27&#45;&gt;Node28 -->
<g id="edge38" class="edge"><title>Node27&#45;&gt;Node28</title>
<path fill="none" stroke="midnightblue" d="M794.655,-399.532C804.5,-402.804 814.926,-406.945 824,-412 842.195,-422.136 841.605,-432.233 860,-442 868.555,-446.542 878.074,-450.32 887.527,-453.43"/>
<polygon fill="midnightblue" stroke="midnightblue" points="886.725,-456.844 897.312,-456.433 888.779,-450.153 886.725,-456.844"/>
</g>
<!-- Node32 -->
<g id="node32" class="node"><title>Node32</title>
<g id="a_node32"><a xlink:href="../../d8/de2/menudefs_8qc.html#ab2ad6bdb33b4334fec83db0418cf72df" target="_top" xlink:title="min">
<polygon fill="none" stroke="black" points="928,-532.5 928,-551.5 960,-551.5 960,-532.5 928,-532.5"/>
<text text-anchor="middle" x="944" y="-539.5" font-family="Helvetica,sans-Serif" font-size="10.00">min</text>
</a>
</g>
</g>
<!-- Node27&#45;&gt;Node32 -->
<g id="edge44" class="edge"><title>Node27&#45;&gt;Node32</title>
<path fill="none" stroke="midnightblue" d="M804.776,-399.51C811.867,-402.578 818.604,-406.635 824,-412 859.281,-447.082 824.02,-483.636 860,-518 875.433,-532.74 899.349,-538.509 917.551,-540.726"/>
<polygon fill="midnightblue" stroke="midnightblue" points="917.478,-544.234 927.76,-541.679 918.129,-537.265 917.478,-544.234"/>
</g>
<!-- Node28&#45;&gt;Node10 -->
<g id="edge39" class="edge"><title>Node28&#45;&gt;Node10</title>
<path fill="none" stroke="midnightblue" d="M1001.69,-475.604C1011.16,-479.034 1020.37,-483.687 1028,-490 1055.25,-512.562 1041.99,-533.298 1064,-561 1078.6,-579.381 1099.38,-596.208 1115.2,-607.679"/>
<polygon fill="midnightblue" stroke="midnightblue" points="1113.22,-610.567 1123.41,-613.477 1117.26,-604.849 1113.22,-610.567"/>
</g>
<!-- Node29 -->
<g id="node29" class="node"><title>Node29</title>
<g id="a_node29"><a xlink:href="../../d2/db1/movetypes_8qc.html#a3863efa2a85eff29702da92d456dcacb" target="_top" xlink:title="_Movetype_TestEntityPosition">
<polygon fill="none" stroke="black" points="1064,-456.5 1064,-475.5 1214,-475.5 1214,-456.5 1064,-456.5"/>
<text text-anchor="middle" x="1139" y="-463.5" font-family="Helvetica,sans-Serif" font-size="10.00">_Movetype_TestEntityPosition</text>
</a>
</g>
</g>
<!-- Node28&#45;&gt;Node29 -->
<g id="edge40" class="edge"><title>Node28&#45;&gt;Node29</title>
<path fill="none" stroke="midnightblue" d="M1008.73,-466C1023.09,-466 1038.56,-466 1053.62,-466"/>
<polygon fill="midnightblue" stroke="midnightblue" points="1053.96,-469.5 1063.96,-466 1053.96,-462.5 1053.96,-469.5"/>
</g>
<!-- Node30 -->
<g id="node30" class="node"><title>Node30</title>
<g id="a_node30"><a xlink:href="../../d8/de2/menudefs_8qc.html#a3b90997eb01a44ab00ec2bbbacbaf3e7" target="_top" xlink:title="etof">
<polygon fill="none" stroke="black" points="1122.5,-532.5 1122.5,-551.5 1155.5,-551.5 1155.5,-532.5 1122.5,-532.5"/>
<text text-anchor="middle" x="1139" y="-539.5" font-family="Helvetica,sans-Serif" font-size="10.00">etof</text>
</a>
</g>
</g>
<!-- Node28&#45;&gt;Node30 -->
<g id="edge42" class="edge"><title>Node28&#45;&gt;Node30</title>
<path fill="none" stroke="midnightblue" d="M992.178,-475.588C1004.3,-479.125 1017.01,-483.83 1028,-490 1046.92,-500.628 1044.92,-512.658 1064,-523 1079.01,-531.137 1097.64,-535.895 1112.45,-538.615"/>
<polygon fill="midnightblue" stroke="midnightblue" points="1112.02,-542.091 1122.46,-540.254 1113.16,-535.183 1112.02,-542.091"/>
</g>
<!-- Node31 -->
<g id="node31" class="node"><title>Node31</title>
<g id="a_node31"><a xlink:href="../../d8/de2/menudefs_8qc.html#ab0df318f2dece7f798ff4061cd67f9d2" target="_top" xlink:title="vtos">
<polygon fill="none" stroke="black" points="1121.5,-494.5 1121.5,-513.5 1156.5,-513.5 1156.5,-494.5 1121.5,-494.5"/>
<text text-anchor="middle" x="1139" y="-501.5" font-family="Helvetica,sans-Serif" font-size="10.00">vtos</text>
</a>
</g>
</g>
<!-- Node28&#45;&gt;Node31 -->
<g id="edge43" class="edge"><title>Node28&#45;&gt;Node31</title>
<path fill="none" stroke="midnightblue" d="M993.702,-475.589C1031.06,-482.945 1081.21,-492.818 1111.48,-498.778"/>
<polygon fill="midnightblue" stroke="midnightblue" points="1110.82,-502.215 1121.3,-500.713 1112.17,-495.347 1110.82,-502.215"/>
</g>
<!-- Node29&#45;&gt;Node15 -->
<g id="edge41" class="edge"><title>Node29&#45;&gt;Node15</title>
<path fill="none" stroke="midnightblue" d="M1214.14,-466C1241.08,-466 1270.01,-466 1290.97,-466"/>
<polygon fill="midnightblue" stroke="midnightblue" points="1291.15,-469.5 1301.15,-466 1291.15,-462.5 1291.15,-469.5"/>
</g>
<!-- Node33&#45;&gt;Node5 -->
<g id="edge48" class="edge"><title>Node33&#45;&gt;Node5</title>
<path fill="none" stroke="midnightblue" d="M781.732,-295.383C796.195,-288.292 813.8,-277.224 824,-262 871.839,-190.598 802.156,-135.568 860,-72 863.568,-68.0788 867.733,-64.7829 872.262,-62.0144"/>
<polygon fill="midnightblue" stroke="midnightblue" points="874.081,-65.0141 881.359,-57.3145 870.868,-58.7951 874.081,-65.0141"/>
</g>
<!-- Node33&#45;&gt;Node6 -->
<g id="edge56" class="edge"><title>Node33&#45;&gt;Node6</title>
<path fill="none" stroke="midnightblue" d="M773.34,-295.4C788.148,-285.43 810.287,-268.566 824,-249 850.391,-211.343 822.249,-178.257 860,-152 921.298,-109.366 953.556,-146.231 1028,-152 1111.42,-158.464 1136.16,-150.322 1214,-181 1311.36,-219.371 1408.8,-300.623 1448.01,-335.515"/>
<polygon fill="midnightblue" stroke="midnightblue" points="1445.69,-338.14 1455.47,-342.224 1450.37,-332.935 1445.69,-338.14"/>
</g>
<!-- Node33&#45;&gt;Node10 -->
<g id="edge50" class="edge"><title>Node33&#45;&gt;Node10</title>
<path fill="none" stroke="midnightblue" d="M770.763,-314.576C785.577,-326.326 809.788,-347.591 824,-371 851.574,-416.418 820.895,-449.029 860,-485 916.341,-536.827 961.469,-485.133 1028,-523 1048.22,-534.508 1047.06,-545.059 1064,-561 1081.35,-577.321 1102.24,-594.627 1117.39,-606.796"/>
<polygon fill="midnightblue" stroke="midnightblue" points="1115.58,-609.827 1125.58,-613.32 1119.94,-604.352 1115.58,-609.827"/>
</g>
<!-- Node33&#45;&gt;Node15 -->
<g id="edge54" class="edge"><title>Node33&#45;&gt;Node15</title>
<path fill="none" stroke="midnightblue" d="M791.532,-314.589C893.057,-343.622 1196,-430.253 1291.69,-457.618"/>
<polygon fill="midnightblue" stroke="midnightblue" points="1290.73,-460.984 1301.31,-460.368 1292.65,-454.253 1290.73,-460.984"/>
</g>
<!-- Node33&#45;&gt;Node17 -->
<g id="edge47" class="edge"><title>Node33&#45;&gt;Node17</title>
<path fill="none" stroke="midnightblue" d="M778.815,-295.375C799.231,-286.137 831.377,-272.132 860,-262 871.71,-257.855 884.529,-253.88 896.515,-250.399"/>
<polygon fill="midnightblue" stroke="midnightblue" points="897.686,-253.705 906.344,-247.599 895.768,-246.973 897.686,-253.705"/>
</g>
<!-- Node33&#45;&gt;Node19 -->
<g id="edge49" class="edge"><title>Node33&#45;&gt;Node19</title>
<path fill="none" stroke="midnightblue" d="M823.745,-308.198C842.062,-309.089 861.91,-310.055 880.061,-310.938"/>
<polygon fill="midnightblue" stroke="midnightblue" points="880.08,-314.443 890.238,-311.433 880.42,-307.451 880.08,-314.443"/>
</g>
<!-- Node33&#45;&gt;Node21 -->
<g id="edge51" class="edge"><title>Node33&#45;&gt;Node21</title>
<path fill="none" stroke="midnightblue" d="M781.177,-295.383C795.606,-288.233 813.379,-277.101 824,-262 863.939,-205.214 807.45,-155.368 860,-110 890.319,-83.8249 997.469,-81.4517 1069.54,-83.0521"/>
<polygon fill="midnightblue" stroke="midnightblue" points="1069.82,-86.5602 1079.9,-83.3147 1070,-79.5625 1069.82,-86.5602"/>
</g>
<!-- Node33&#45;&gt;Node25 -->
<g id="edge55" class="edge"><title>Node33&#45;&gt;Node25</title>
<path fill="none" stroke="midnightblue" d="M778.723,-295.49C793.007,-288.066 811.581,-276.572 824,-262 849.553,-232.016 826.967,-202.467 860,-181 939.263,-129.489 1059.49,-167.685 1111.97,-188.653"/>
<polygon fill="midnightblue" stroke="midnightblue" points="1110.66,-191.9 1121.24,-192.464 1113.32,-185.425 1110.66,-191.9"/>
</g>
<!-- Node33&#45;&gt;Node28 -->
<g id="edge52" class="edge"><title>Node33&#45;&gt;Node28</title>
<path fill="none" stroke="midnightblue" d="M769.866,-314.79C784.031,-326.911 807.83,-348.697 824,-371 844.768,-399.644 832.747,-419.438 860,-442 865.004,-446.143 870.691,-449.571 876.687,-452.408"/>
<polygon fill="midnightblue" stroke="midnightblue" points="875.73,-455.8 886.308,-456.396 878.41,-449.333 875.73,-455.8"/>
</g>
<!-- Node34 -->
<g id="node34" class="node"><title>Node34</title>
<g id="a_node34"><a xlink:href="../../d2/db1/movetypes_8qc.html#ad797154b1325fa6f3b8aa5d2224d77b5" target="_top" xlink:title="_Movetype_WallFriction">
<polygon fill="none" stroke="black" points="883,-190.5 883,-209.5 1005,-209.5 1005,-190.5 883,-190.5"/>
<text text-anchor="middle" x="944" y="-197.5" font-family="Helvetica,sans-Serif" font-size="10.00">_Movetype_WallFriction</text>
</a>
</g>
</g>
<!-- Node33&#45;&gt;Node34 -->
<g id="edge53" class="edge"><title>Node33&#45;&gt;Node34</title>
<path fill="none" stroke="midnightblue" d="M775.812,-295.344C789.697,-287.372 809.063,-275.25 824,-262 842.646,-245.46 838.743,-232.015 860,-219 864.117,-216.479 868.534,-214.292 873.108,-212.395"/>
<polygon fill="midnightblue" stroke="midnightblue" points="874.484,-215.619 882.671,-208.894 872.077,-209.046 874.484,-215.619"/>
</g>
<!-- Node35&#45;&gt;Node5 -->
<g id="edge58" class="edge"><title>Node35&#45;&gt;Node5</title>
<path fill="none" stroke="midnightblue" d="M638.821,-423.484C644.439,-420.799 649.671,-417.372 654,-413 695.28,-371.312 657.075,-334.558 690,-286 732.156,-223.828 780.089,-243.945 824,-183 852.593,-143.315 825.834,-114.003 860,-79 867.409,-71.4091 876.85,-65.6583 886.689,-61.3072"/>
<polygon fill="midnightblue" stroke="midnightblue" points="888.18,-64.4817 896.192,-57.5499 885.606,-57.972 888.18,-64.4817"/>
</g>
<!-- Node35&#45;&gt;Node10 -->
<g id="edge59" class="edge"><title>Node35&#45;&gt;Node10</title>
<path fill="none" stroke="midnightblue" d="M586.682,-442.535C589.917,-479.765 607.24,-615.939 690,-670 752.884,-711.077 957.792,-696.693 1028,-670 1048.01,-662.392 1044.85,-647.567 1064,-638 1067.3,-636.35 1070.77,-634.882 1074.33,-633.576"/>
<polygon fill="midnightblue" stroke="midnightblue" points="1075.48,-636.882 1083.93,-630.48 1073.33,-630.221 1075.48,-636.882"/>
</g>
<!-- Node35&#45;&gt;Node14 -->
<g id="edge60" class="edge"><title>Node35&#45;&gt;Node14</title>
<path fill="none" stroke="midnightblue" d="M585.601,-442.634C584.364,-486.778 585.749,-670.784 690,-746 756.389,-793.899 859.949,-764.762 911.558,-745.277"/>
<polygon fill="midnightblue" stroke="midnightblue" points="913.114,-748.427 921.16,-741.534 910.572,-741.905 913.114,-748.427"/>
</g>
<!-- Node35&#45;&gt;Node16 -->
<g id="edge61" class="edge"><title>Node35&#45;&gt;Node16</title>
<path fill="none" stroke="midnightblue" d="M654.166,-432.198C663.092,-432.093 672.277,-431.985 681.304,-431.879"/>
<polygon fill="midnightblue" stroke="midnightblue" points="681.448,-435.377 691.406,-431.76 681.366,-428.378 681.448,-435.377"/>
</g>
<!-- Node35&#45;&gt;Node27 -->
<g id="edge62" class="edge"><title>Node35&#45;&gt;Node27</title>
<path fill="none" stroke="midnightblue" d="M623.729,-423.457C648.709,-417.138 681.677,-408.799 708.449,-402.028"/>
<polygon fill="midnightblue" stroke="midnightblue" points="709.541,-405.362 718.377,-399.516 707.824,-398.576 709.541,-405.362"/>
</g>
<!-- Node35&#45;&gt;Node33 -->
<g id="edge63" class="edge"><title>Node35&#45;&gt;Node33</title>
<path fill="none" stroke="midnightblue" d="M631.859,-423.468C639.594,-420.771 647.284,-417.344 654,-413 674.644,-399.648 673.295,-389.039 690,-371 706.015,-353.706 725.137,-334.758 738.666,-321.618"/>
<polygon fill="midnightblue" stroke="midnightblue" points="741.161,-324.075 745.92,-314.609 736.297,-319.041 741.161,-324.075"/>
</g>
</g>
</svg>
