<?xml version="1.0" encoding="UTF-8" standalone="no"?>
<!DOCTYPE svg PUBLIC "-//W3C//DTD SVG 1.1//EN"
 "http://www.w3.org/Graphics/SVG/1.1/DTD/svg11.dtd">
<!-- Generated by graphviz version 2.36.0 (20140111.2315)
 -->
<!-- Title: boxToGlobal Pages: 1 -->
<!--zoomable 351 -->
<svg id="main" version="1.1" xmlns="http://www.w3.org/2000/svg" xmlns:xlink="http://www.w3.org/1999/xlink" xml:space="preserve" onload="init(evt)">
<style type="text/css"><![CDATA[
.edge:hover path { stroke: red; }
.edge:hover polygon { stroke: red; fill: red; }
]]></style>
<script type="text/javascript"><![CDATA[
var edges = document.getElementsByTagName('g');
if (edges && edges.length) {
  for (var i=0;i<edges.length;i++) {
    if (edges[i].id.substr(0,4)=='edge') {
      edges[i].setAttribute('class','edge');
    }
  }
}
]]></script>
        <defs>
                <circle id="rim" cx="0" cy="0" r="7"/>
                <circle id="rim2" cx="0" cy="0" r="3.5"/>
                <g id="zoomPlus">
                        <use xlink:href="#rim" fill="#404040">
                                <set attributeName="fill" to="#808080" begin="zoomplus.mouseover" end="zoomplus.mouseout"/>
                        </use>
                        <path d="M-4,0h8M0,-4v8" fill="none" stroke="white" stroke-width="1.5" pointer-events="none"/>
                </g>
                <g id="zoomMin">
                        <use xlink:href="#rim" fill="#404040">
                                <set attributeName="fill" to="#808080" begin="zoomminus.mouseover" end="zoomminus.mouseout"/>
                        </use>
                        <path d="M-4,0h8" fill="none" stroke="white" stroke-width="1.5" pointer-events="none"/>
                </g>
                <g id="dirArrow">
                        <path fill="none" stroke="white" stroke-width="1.5" d="M0,-3.0v7 M-2.5,-0.5L0,-3.0L2.5,-0.5"/>
                </g>
               <g id="resetDef">
                       <use xlink:href="#rim2" fill="#404040">
                               <set attributeName="fill" to="#808080" begin="reset.mouseover" end="reset.mouseout"/>
                       </use>
               </g>
        </defs>

<script type="text/javascript">
var viewWidth = 806;
var viewHeight = 351;
var sectionId = 'dynsection-1';
</script>
<script xlink:href="../../svgpan.js"/>
<svg id="graph" class="graph">
<g id="viewport">
<title>boxToGlobal</title>
<!-- Node1 -->
<g id="node1" class="node"><title>Node1</title>
<polygon fill="#bfbfbf" stroke="black" points="0.5,-133.5 0.5,-152.5 71.5,-152.5 71.5,-133.5 0.5,-133.5"/>
<text text-anchor="middle" x="36" y="-140.5" font-family="Helvetica,sans-Serif" font-size="10.00">boxToGlobal</text>
</g>
<!-- Node2 -->
<g id="node2" class="node"><title>Node2</title>
<g id="a_node2"><a xlink:href="../../d9/d62/menu_2draw_8qh.html#ae64aac37d55a26279dca938d8ca2e76e" target="_top" xlink:title="draw_BorderPicture">
<polygon fill="none" stroke="black" points="117,-285.5 117,-304.5 219,-304.5 219,-285.5 117,-285.5"/>
<text text-anchor="middle" x="168" y="-292.5" font-family="Helvetica,sans-Serif" font-size="10.00">draw_BorderPicture</text>
</a>
</g>
</g>
<!-- Node1&#45;&gt;Node2 -->
<g id="edge1" class="edge"><title>Node1&#45;&gt;Node2</title>
<path fill="none" stroke="midnightblue" d="M43.134,-162.486C52.7626,-190.148 73.9231,-240.788 108,-271 114.951,-277.162 123.692,-281.864 132.301,-285.401"/>
<polygon fill="midnightblue" stroke="midnightblue" points="46.3848,-161.17 39.9061,-152.787 39.7429,-163.38 46.3848,-161.17"/>
</g>
<!-- Node6 -->
<g id="node6" class="node"><title>Node6</title>
<g id="a_node6"><a xlink:href="../../d9/d62/menu_2draw_8qh.html#aab8b9ebf8f70fb2aba148b1d1167350a" target="_top" xlink:title="draw_ButtonPicture">
<polygon fill="none" stroke="black" points="117,-76.5 117,-95.5 219,-95.5 219,-76.5 117,-76.5"/>
<text text-anchor="middle" x="168" y="-83.5" font-family="Helvetica,sans-Serif" font-size="10.00">draw_ButtonPicture</text>
</a>
</g>
</g>
<!-- Node1&#45;&gt;Node6 -->
<g id="edge5" class="edge"><title>Node1&#45;&gt;Node6</title>
<path fill="none" stroke="midnightblue" d="M66.0231,-129.121C78.8274,-123.099 94.0967,-116.055 108,-110 119.355,-105.055 132.067,-99.8433 142.776,-95.5445"/>
<polygon fill="midnightblue" stroke="midnightblue" points="64.3199,-126.055 56.7755,-133.494 67.312,-132.383 64.3199,-126.055"/>
</g>
<!-- Node7 -->
<g id="node7" class="node"><title>Node7</title>
<g id="a_node7"><a xlink:href="../../d9/d62/menu_2draw_8qh.html#ab748bef7e2060d302493a2522b696fc5" target="_top" xlink:title="draw_drawMousePointer">
<polygon fill="none" stroke="black" points="586,-247.5 586,-266.5 710,-266.5 710,-247.5 586,-247.5"/>
<text text-anchor="middle" x="648" y="-254.5" font-family="Helvetica,sans-Serif" font-size="10.00">draw_drawMousePointer</text>
</a>
</g>
</g>
<!-- Node1&#45;&gt;Node7 -->
<g id="edge6" class="edge"><title>Node1&#45;&gt;Node7</title>
<path fill="none" stroke="midnightblue" d="M48.0541,-161.192C60.2313,-179.389 81.6292,-206.427 108,-219 190.984,-258.564 462.85,-259.821 585.73,-258.236"/>
<polygon fill="midnightblue" stroke="midnightblue" points="50.8929,-159.135 42.5492,-152.606 45,-162.913 50.8929,-159.135"/>
</g>
<!-- Node8 -->
<g id="node8" class="node"><title>Node8</title>
<g id="a_node8"><a xlink:href="../../d9/d62/menu_2draw_8qh.html#ae1fc75c93136d527f4c296ce527311da" target="_top" xlink:title="draw_Fill">
<polygon fill="none" stroke="black" points="305,-133.5 305,-152.5 361,-152.5 361,-133.5 305,-133.5"/>
<text text-anchor="middle" x="333" y="-140.5" font-family="Helvetica,sans-Serif" font-size="10.00">draw_Fill</text>
</a>
</g>
</g>
<!-- Node1&#45;&gt;Node8 -->
<g id="edge8" class="edge"><title>Node1&#45;&gt;Node8</title>
<path fill="none" stroke="midnightblue" d="M81.9754,-143C144.027,-143 253.982,-143 304.824,-143"/>
<polygon fill="midnightblue" stroke="midnightblue" points="81.7078,-139.5 71.7077,-143 81.7077,-146.5 81.7078,-139.5"/>
</g>
<!-- Node13 -->
<g id="node13" class="node"><title>Node13</title>
<g id="a_node13"><a xlink:href="../../d9/d62/menu_2draw_8qh.html#a267bea2ddb66f16087b6fe65ca2fcd4d" target="_top" xlink:title="draw_Picture">
<polygon fill="none" stroke="black" points="296,-57.5 296,-76.5 370,-76.5 370,-57.5 296,-57.5"/>
<text text-anchor="middle" x="333" y="-64.5" font-family="Helvetica,sans-Serif" font-size="10.00">draw_Picture</text>
</a>
</g>
</g>
<!-- Node1&#45;&gt;Node13 -->
<g id="edge16" class="edge"><title>Node1&#45;&gt;Node13</title>
<path fill="none" stroke="midnightblue" d="M81.5144,-136.14C120.519,-129.658 178.542,-118.866 228,-105 256.319,-97.0601 287.936,-85.0376 308.794,-76.6484"/>
<polygon fill="midnightblue" stroke="midnightblue" points="80.8365,-132.705 71.5332,-137.774 81.9673,-139.613 80.8365,-132.705"/>
</g>
<!-- Node16 -->
<g id="node16" class="node"><title>Node16</title>
<g id="a_node16"><a xlink:href="../../d9/d62/menu_2draw_8qh.html#afe94047bbecfa66eb72ad97ed820c857" target="_top" xlink:title="draw_SetClipRect">
<polygon fill="none" stroke="black" points="120,-38.5 120,-57.5 216,-57.5 216,-38.5 120,-38.5"/>
<text text-anchor="middle" x="168" y="-45.5" font-family="Helvetica,sans-Serif" font-size="10.00">draw_SetClipRect</text>
</a>
</g>
</g>
<!-- Node1&#45;&gt;Node16 -->
<g id="edge20" class="edge"><title>Node1&#45;&gt;Node16</title>
<path fill="none" stroke="midnightblue" d="M49.3565,-125.239C62.1759,-108.053 83.7225,-82.4065 108,-67 113.997,-63.1945 120.823,-60.0883 127.652,-57.5738"/>
<polygon fill="midnightblue" stroke="midnightblue" points="46.5093,-123.203 43.48,-133.356 52.1793,-127.308 46.5093,-123.203"/>
</g>
<!-- Node17 -->
<g id="node17" class="node"><title>Node17</title>
<g id="a_node17"><a xlink:href="../../d9/d62/menu_2draw_8qh.html#a430e71f1efe03c30a147e3e8405228d5" target="_top" xlink:title="draw_Text">
<polygon fill="none" stroke="black" points="137,-190.5 137,-209.5 199,-209.5 199,-190.5 137,-190.5"/>
<text text-anchor="middle" x="168" y="-197.5" font-family="Helvetica,sans-Serif" font-size="10.00">draw_Text</text>
</a>
</g>
</g>
<!-- Node1&#45;&gt;Node17 -->
<g id="edge21" class="edge"><title>Node1&#45;&gt;Node17</title>
<path fill="none" stroke="midnightblue" d="M66.0231,-156.879C78.8274,-162.901 94.0967,-169.945 108,-176 119.355,-180.945 132.067,-186.157 142.776,-190.455"/>
<polygon fill="midnightblue" stroke="midnightblue" points="67.312,-153.617 56.7755,-152.506 64.3199,-159.945 67.312,-153.617"/>
</g>
<!-- Node20 -->
<g id="node20" class="node"><title>Node20</title>
<g id="a_node20"><a xlink:href="../../d9/d62/menu_2draw_8qh.html#a7ac520c41682e2cf64d61115522ddaba" target="_top" xlink:title="draw_VertButtonPicture">
<polygon fill="none" stroke="black" points="108,-0.5 108,-19.5 228,-19.5 228,-0.5 108,-0.5"/>
<text text-anchor="middle" x="168" y="-7.5" font-family="Helvetica,sans-Serif" font-size="10.00">draw_VertButtonPicture</text>
</a>
</g>
</g>
<!-- Node1&#45;&gt;Node20 -->
<g id="edge28" class="edge"><title>Node1&#45;&gt;Node20</title>
<path fill="none" stroke="midnightblue" d="M44.0111,-123.902C54.2521,-98.5988 75.6714,-54.2285 108,-29 112.92,-25.1602 118.64,-22.085 124.544,-19.6251"/>
<polygon fill="midnightblue" stroke="midnightblue" points="40.6543,-122.878 40.3073,-133.468 47.182,-125.406 40.6543,-122.878"/>
</g>
<!-- Node3 -->
<g id="node3" class="node"><title>Node3</title>
<g id="a_node3"><a xlink:href="../../de/d3d/cl__minigames_8qh.html#a3f50d48603ccc5c4949bf5d84b0daa78" target="_top" xlink:title="minigame_hud_simpleboard">
<polygon fill="none" stroke="black" points="264.5,-323.5 264.5,-342.5 401.5,-342.5 401.5,-323.5 264.5,-323.5"/>
<text text-anchor="middle" x="333" y="-330.5" font-family="Helvetica,sans-Serif" font-size="10.00">minigame_hud_simpleboard</text>
</a>
</g>
</g>
<!-- Node2&#45;&gt;Node3 -->
<g id="edge2" class="edge"><title>Node2&#45;&gt;Node3</title>
<path fill="none" stroke="midnightblue" d="M220.028,-306.896C242.939,-312.237 269.604,-318.454 291.164,-323.48"/>
<polygon fill="midnightblue" stroke="midnightblue" points="220.665,-303.451 210.132,-304.589 219.076,-310.268 220.665,-303.451"/>
</g>
<!-- Node4 -->
<g id="node4" class="node"><title>Node4</title>
<g id="a_node4"><a xlink:href="../../df/dc2/menu_8qc.html#a43f8369c5856585967a58a0041298975" target="_top" xlink:title="m_tooltip">
<polygon fill="none" stroke="black" points="305,-285.5 305,-304.5 361,-304.5 361,-285.5 305,-285.5"/>
<text text-anchor="middle" x="333" y="-292.5" font-family="Helvetica,sans-Serif" font-size="10.00">m_tooltip</text>
</a>
</g>
</g>
<!-- Node2&#45;&gt;Node4 -->
<g id="edge3" class="edge"><title>Node2&#45;&gt;Node4</title>
<path fill="none" stroke="midnightblue" d="M229.383,-295C255.341,-295 284.368,-295 304.908,-295"/>
<polygon fill="midnightblue" stroke="midnightblue" points="229.235,-291.5 219.235,-295 229.235,-298.5 229.235,-291.5"/>
</g>
<!-- Node5 -->
<g id="node5" class="node"><title>Node5</title>
<g id="a_node5"><a xlink:href="../../df/dc2/menu_8qc.html#a844e5015c7d134d4dc7a682948215763" target="_top" xlink:title="m_draw">
<polygon fill="none" stroke="black" points="746.5,-171.5 746.5,-190.5 797.5,-190.5 797.5,-171.5 746.5,-171.5"/>
<text text-anchor="middle" x="772" y="-178.5" font-family="Helvetica,sans-Serif" font-size="10.00">m_draw</text>
</a>
</g>
</g>
<!-- Node4&#45;&gt;Node5 -->
<g id="edge4" class="edge"><title>Node4&#45;&gt;Node5</title>
<path fill="none" stroke="midnightblue" d="M371.268,-303.605C442.56,-317.93 600.853,-339.255 710,-276 743.408,-256.639 761.522,-210.819 768.097,-190.727"/>
<polygon fill="midnightblue" stroke="midnightblue" points="371.9,-300.161 361.397,-301.553 370.475,-307.015 371.9,-300.161"/>
</g>
<!-- Node7&#45;&gt;Node5 -->
<g id="edge7" class="edge"><title>Node7&#45;&gt;Node5</title>
<path fill="none" stroke="midnightblue" d="M698.361,-243.775C702.399,-242.053 706.332,-240.133 710,-238 731.801,-225.322 752.147,-203.545 762.944,-190.896"/>
<polygon fill="midnightblue" stroke="midnightblue" points="696.901,-240.587 688.825,-247.444 699.415,-247.12 696.901,-240.587"/>
</g>
<!-- Node8&#45;&gt;Node5 -->
<g id="edge14" class="edge"><title>Node8&#45;&gt;Node5</title>
<path fill="none" stroke="midnightblue" d="M354.93,-127.375C375.033,-113.414 406.866,-93.9726 438,-86 486.222,-73.6519 500.56,-80.2096 550,-86 622.593,-94.5022 645.592,-89.4511 710,-124 732.48,-136.058 752.882,-158.478 763.438,-171.313"/>
<polygon fill="midnightblue" stroke="midnightblue" points="352.672,-124.686 346.563,-133.343 356.737,-130.385 352.672,-124.686"/>
</g>
<!-- Node9 -->
<g id="node9" class="node"><title>Node9</title>
<g id="a_node9"><a xlink:href="../../df/d9b/menu_2xonotic_2util_8qc.html#a48ddbc4143946234b2a42d4cf1112dc4" target="_top" xlink:title="you have to define this for pre&#45;menu initialization. ">
<polygon fill="none" stroke="black" points="460,-133.5 460,-152.5 528,-152.5 528,-133.5 460,-133.5"/>
<text text-anchor="middle" x="494" y="-140.5" font-family="Helvetica,sans-Serif" font-size="10.00">preMenuInit</text>
</a>
</g>
</g>
<!-- Node8&#45;&gt;Node9 -->
<g id="edge9" class="edge"><title>Node8&#45;&gt;Node9</title>
<path fill="none" stroke="midnightblue" d="M371.51,-143C398.369,-143 434.195,-143 459.974,-143"/>
<polygon fill="midnightblue" stroke="midnightblue" points="371.333,-139.5 361.333,-143 371.333,-146.5 371.333,-139.5"/>
</g>
<!-- Node11 -->
<g id="node11" class="node"><title>Node11</title>
<g id="a_node11"><a xlink:href="../../df/d9b/menu_2xonotic_2util_8qc.html#a3d10a92a0b5efff2067efd3580ece642" target="_top" xlink:title="this is run before the menu is drawn. ">
<polygon fill="none" stroke="black" points="455.5,-171.5 455.5,-190.5 532.5,-190.5 532.5,-171.5 455.5,-171.5"/>
<text text-anchor="middle" x="494" y="-178.5" font-family="Helvetica,sans-Serif" font-size="10.00">preMenuDraw</text>
</a>
</g>
</g>
<!-- Node8&#45;&gt;Node11 -->
<g id="edge12" class="edge"><title>Node8&#45;&gt;Node11</title>
<path fill="none" stroke="midnightblue" d="M371.293,-151.913C396.598,-157.96 429.937,-165.928 455.322,-171.995"/>
<polygon fill="midnightblue" stroke="midnightblue" points="371.873,-148.453 361.333,-149.532 370.246,-155.261 371.873,-148.453"/>
</g>
<!-- Node12 -->
<g id="node12" class="node"><title>Node12</title>
<g id="a_node12"><a xlink:href="../../de/d48/dialog__settings__game_8qc.html#ac3fd7b051191504b974767cdc3d38b24" target="_top" xlink:title="if">
<polygon fill="none" stroke="black" points="479.5,-95.5 479.5,-114.5 508.5,-114.5 508.5,-95.5 479.5,-95.5"/>
<text text-anchor="middle" x="494" y="-102.5" font-family="Helvetica,sans-Serif" font-size="10.00">if</text>
</a>
</g>
</g>
<!-- Node8&#45;&gt;Node12 -->
<g id="edge15" class="edge"><title>Node8&#45;&gt;Node12</title>
<path fill="none" stroke="midnightblue" d="M371.092,-134.135C405.674,-125.87 455.391,-113.988 479.23,-108.291"/>
<polygon fill="midnightblue" stroke="midnightblue" points="370.246,-130.739 361.333,-136.468 371.873,-137.547 370.246,-130.739"/>
</g>
<!-- Node10 -->
<g id="node10" class="node"><title>Node10</title>
<g id="a_node10"><a xlink:href="../../df/dc2/menu_8qc.html#a417e4db3d0fe2387b648a1ed3326341f" target="_top" xlink:title="m_init_delayed">
<polygon fill="none" stroke="black" points="607,-133.5 607,-152.5 689,-152.5 689,-133.5 607,-133.5"/>
<text text-anchor="middle" x="648" y="-140.5" font-family="Helvetica,sans-Serif" font-size="10.00">m_init_delayed</text>
</a>
</g>
</g>
<!-- Node9&#45;&gt;Node10 -->
<g id="edge10" class="edge"><title>Node9&#45;&gt;Node10</title>
<path fill="none" stroke="midnightblue" d="M538.551,-143C560.097,-143 585.928,-143 606.975,-143"/>
<polygon fill="midnightblue" stroke="midnightblue" points="538.357,-139.5 528.357,-143 538.357,-146.5 538.357,-139.5"/>
</g>
<!-- Node10&#45;&gt;Node5 -->
<g id="edge11" class="edge"><title>Node10&#45;&gt;Node5</title>
<path fill="none" stroke="midnightblue" d="M689.586,-155.642C708.378,-161.495 730.092,-168.258 746.367,-173.327"/>
<polygon fill="midnightblue" stroke="midnightblue" points="690.374,-152.221 679.786,-152.589 688.292,-158.905 690.374,-152.221"/>
</g>
<!-- Node11&#45;&gt;Node5 -->
<g id="edge13" class="edge"><title>Node11&#45;&gt;Node5</title>
<path fill="none" stroke="midnightblue" d="M542.719,-181C601.875,-181 700.473,-181 746.248,-181"/>
<polygon fill="midnightblue" stroke="midnightblue" points="542.51,-177.5 532.51,-181 542.51,-184.5 542.51,-177.5"/>
</g>
<!-- Node14 -->
<g id="node14" class="node"><title>Node14</title>
<g id="a_node14"><a xlink:href="../../df/dc2/menu_8qc.html#aacf8d50c65c5bd72b4bfe16ebe41af76" target="_top" xlink:title="draw_Picture_Aligned">
<polygon fill="none" stroke="black" points="438.5,-19.5 438.5,-38.5 549.5,-38.5 549.5,-19.5 438.5,-19.5"/>
<text text-anchor="middle" x="494" y="-26.5" font-family="Helvetica,sans-Serif" font-size="10.00">draw_Picture_Aligned</text>
</a>
</g>
</g>
<!-- Node13&#45;&gt;Node14 -->
<g id="edge17" class="edge"><title>Node13&#45;&gt;Node14</title>
<path fill="none" stroke="midnightblue" d="M380.017,-56.0023C403.161,-50.4711 430.937,-43.8328 453.156,-38.5223"/>
<polygon fill="midnightblue" stroke="midnightblue" points="378.992,-52.6485 370.08,-58.3772 380.619,-59.4568 378.992,-52.6485"/>
</g>
<!-- Node15 -->
<g id="node15" class="node"><title>Node15</title>
<g id="a_node15"><a xlink:href="../../df/dc2/menu_8qc.html#abb122747ce3abb1b3feef039f875adbe" target="_top" xlink:title="drawBackground">
<polygon fill="none" stroke="black" points="603.5,-19.5 603.5,-38.5 692.5,-38.5 692.5,-19.5 603.5,-19.5"/>
<text text-anchor="middle" x="648" y="-26.5" font-family="Helvetica,sans-Serif" font-size="10.00">drawBackground</text>
</a>
</g>
</g>
<!-- Node14&#45;&gt;Node15 -->
<g id="edge18" class="edge"><title>Node14&#45;&gt;Node15</title>
<path fill="none" stroke="midnightblue" d="M560.295,-29C574.775,-29 589.784,-29 603.163,-29"/>
<polygon fill="midnightblue" stroke="midnightblue" points="559.876,-25.5001 549.875,-29 559.875,-32.5001 559.876,-25.5001"/>
</g>
<!-- Node15&#45;&gt;Node5 -->
<g id="edge19" class="edge"><title>Node15&#45;&gt;Node5</title>
<path fill="none" stroke="midnightblue" d="M695.844,-43.0727C700.975,-45.8392 705.838,-49.1194 710,-53 746.548,-87.0795 763.49,-147.597 768.938,-171.195"/>
<polygon fill="midnightblue" stroke="midnightblue" points="696.948,-39.7243 686.41,-38.6295 693.966,-46.057 696.948,-39.7243"/>
</g>
<!-- Node17&#45;&gt;Node4 -->
<g id="edge27" class="edge"><title>Node17&#45;&gt;Node4</title>
<path fill="none" stroke="midnightblue" d="M194.336,-214.766C228.083,-234.435 286.843,-268.681 315.43,-285.343"/>
<polygon fill="midnightblue" stroke="midnightblue" points="195.928,-211.643 185.526,-209.632 192.404,-217.691 195.928,-211.643"/>
</g>
<!-- Node18 -->
<g id="node18" class="node"><title>Node18</title>
<g id="a_node18"><a xlink:href="../../d9/d62/menu_2draw_8qh.html#a347cc6fa1234ea432234300e426a7393" target="_top" xlink:title="draw_CenterText">
<polygon fill="none" stroke="black" points="287,-180.5 287,-199.5 379,-199.5 379,-180.5 287,-180.5"/>
<text text-anchor="middle" x="333" y="-187.5" font-family="Helvetica,sans-Serif" font-size="10.00">draw_CenterText</text>
</a>
</g>
</g>
<!-- Node17&#45;&gt;Node18 -->
<g id="edge22" class="edge"><title>Node17&#45;&gt;Node18</title>
<path fill="none" stroke="midnightblue" d="M209.267,-197.53C232.773,-196.088 262.493,-194.264 286.799,-192.773"/>
<polygon fill="midnightblue" stroke="midnightblue" points="209.044,-194.037 199.277,-198.143 209.473,-201.024 209.044,-194.037"/>
</g>
<!-- Node18&#45;&gt;Node9 -->
<g id="edge23" class="edge"><title>Node18&#45;&gt;Node9</title>
<path fill="none" stroke="midnightblue" d="M375.943,-177.602C402.439,-169.77 436.162,-159.801 460.599,-152.578"/>
<polygon fill="midnightblue" stroke="midnightblue" points="374.774,-174.298 366.176,-180.489 376.758,-181.01 374.774,-174.298"/>
</g>
<!-- Node18&#45;&gt;Node11 -->
<g id="edge26" class="edge"><title>Node18&#45;&gt;Node11</title>
<path fill="none" stroke="midnightblue" d="M389.266,-186.872C411.071,-185.638 435.565,-184.251 455.275,-183.135"/>
<polygon fill="midnightblue" stroke="midnightblue" points="388.924,-183.385 379.138,-187.445 389.32,-190.374 388.924,-183.385"/>
</g>
<!-- Node19 -->
<g id="node19" class="node"><title>Node19</title>
<g id="a_node19"><a xlink:href="../../df/d9b/menu_2xonotic_2util_8qc.html#a7a28b2aedbcabdb5e69a23eaf843e669" target="_top" xlink:title="this is run just after the menu is drawn (or not). ">
<polygon fill="none" stroke="black" points="606.5,-209.5 606.5,-228.5 689.5,-228.5 689.5,-209.5 606.5,-209.5"/>
<text text-anchor="middle" x="648" y="-216.5" font-family="Helvetica,sans-Serif" font-size="10.00">postMenuDraw</text>
</a>
</g>
</g>
<!-- Node18&#45;&gt;Node19 -->
<g id="edge24" class="edge"><title>Node18&#45;&gt;Node19</title>
<path fill="none" stroke="midnightblue" d="M389.17,-195.359C404.94,-196.876 422.148,-198.517 438,-200 496.404,-205.463 564.011,-211.569 606.145,-215.349"/>
<polygon fill="midnightblue" stroke="midnightblue" points="389.333,-191.858 379.043,-194.383 388.661,-198.826 389.333,-191.858"/>
</g>
<!-- Node19&#45;&gt;Node5 -->
<g id="edge25" class="edge"><title>Node19&#45;&gt;Node5</title>
<path fill="none" stroke="midnightblue" d="M689.586,-206.358C708.378,-200.505 730.092,-193.742 746.367,-188.673"/>
<polygon fill="midnightblue" stroke="midnightblue" points="688.292,-203.095 679.786,-209.411 690.374,-209.779 688.292,-203.095"/>
</g>
</g>
</svg>
        <g id="navigator" transform="translate(0 0)" fill="#404254">
                <rect fill="#f2f5e9" fill-opacity="0.5" stroke="#606060" stroke-width=".5" x="0" y="0" width="60" height="60"/>
                <use id="zoomplus" xlink:href="#zoomPlus" x="17" y="9" onmousedown="handleZoom(evt,'in')"/>
                <use id="zoomminus" xlink:href="#zoomMin" x="42" y="9" onmousedown="handleZoom(evt,'out')"/>
                <use id="reset" xlink:href="#resetDef" x="30" y="36" onmousedown="handleReset()"/>
                <g id="arrowUp" xlink:href="#dirArrow" transform="translate(30 24)" onmousedown="handlePan(0,-1)">
                  <use xlink:href="#rim" fill="#404040">
                        <set attributeName="fill" to="#808080" begin="arrowUp.mouseover" end="arrowUp.mouseout"/>
                  </use>
                  <path fill="none" stroke="white" stroke-width="1.5" d="M0,-3.0v7 M-2.5,-0.5L0,-3.0L2.5,-0.5"/>
                </g>
                <g id="arrowRight" xlink:href="#dirArrow" transform="rotate(90) translate(36 -43)" onmousedown="handlePan(1,0)">
                  <use xlink:href="#rim" fill="#404040">
                        <set attributeName="fill" to="#808080" begin="arrowRight.mouseover" end="arrowRight.mouseout"/>
                  </use>
                  <path fill="none" stroke="white" stroke-width="1.5" d="M0,-3.0v7 M-2.5,-0.5L0,-3.0L2.5,-0.5"/>
                </g>
                <g id="arrowDown" xlink:href="#dirArrow" transform="rotate(180) translate(-30 -48)" onmousedown="handlePan(0,1)">
                  <use xlink:href="#rim" fill="#404040">
                        <set attributeName="fill" to="#808080" begin="arrowDown.mouseover" end="arrowDown.mouseout"/>
                  </use>
                  <path fill="none" stroke="white" stroke-width="1.5" d="M0,-3.0v7 M-2.5,-0.5L0,-3.0L2.5,-0.5"/>
                </g>
                <g id="arrowLeft" xlink:href="#dirArrow" transform="rotate(270) translate(-36 17)" onmousedown="handlePan(-1,0)">
                  <use xlink:href="#rim" fill="#404040">
                        <set attributeName="fill" to="#808080" begin="arrowLeft.mouseover" end="arrowLeft.mouseout"/>
                  </use>
                  <path fill="none" stroke="white" stroke-width="1.5" d="M0,-3.0v7 M-2.5,-0.5L0,-3.0L2.5,-0.5"/>
                </g>
        </g>
        <svg viewBox="0 0 15 15" width="100%" height="30px" preserveAspectRatio="xMaxYMin meet">
         <g id="arrow_out" transform="scale(0.3 0.3)">
          <a xlink:href="menu_2draw_8qh_a453c1305f36130ac71a44415feae70a1_icgraph_org.svg" target="_base">
           <rect id="button" ry="5" rx="5" y="6" x="6" height="38" width="38"
                fill="#f2f5e9" fill-opacity="0.5" stroke="#606060" stroke-width="1.0"/>
           <path id="arrow"
             d="M 11.500037,31.436501 C 11.940474,20.09759 22.043105,11.32322 32.158766,21.979434 L 37.068811,17.246167 C 37.068811,17.246167 37.088388,32 37.088388,32 L 22.160133,31.978069 C 22.160133,31.978069 26.997745,27.140456 26.997745,27.140456 C 18.528582,18.264221 13.291696,25.230495 11.500037,31.436501 z"
             style="fill:#404040;"/>
          </a>
         </g>
        </svg>
</svg>
