<?xml version="1.0" encoding="UTF-8" standalone="no"?>
<!DOCTYPE svg PUBLIC "-//W3C//DTD SVG 1.1//EN"
 "http://www.w3.org/Graphics/SVG/1.1/DTD/svg11.dtd">
<!-- Generated by graphviz version 2.38.0 (20140413.2041)
 -->
<!-- Title: common/mutators/mutator/buffs/buffs.qh Pages: 1 -->
<svg width="942pt" height="408pt"
 viewBox="0.00 0.00 942.00 408.00" xmlns="http://www.w3.org/2000/svg" xmlns:xlink="http://www.w3.org/1999/xlink">
<g id="graph0" class="graph" transform="scale(1 1) rotate(0) translate(4 404)">
<title>common/mutators/mutator/buffs/buffs.qh</title>
<!-- Node1 -->
<g id="node1" class="node"><title>Node1</title>
<polygon fill="#bfbfbf" stroke="black" points="417,-369.5 417,-399.5 566,-399.5 566,-369.5 417,-369.5"/>
<text text-anchor="start" x="425" y="-387.5" font-family="Helvetica,sans-Serif" font-size="10.00">common/mutators/mutator</text>
<text text-anchor="middle" x="491.5" y="-376.5" font-family="Helvetica,sans-Serif" font-size="10.00">/buffs/buffs.qh</text>
</g>
<!-- Node2 -->
<g id="node2" class="node"><title>Node2</title>
<g id="a_node2"><a xlink:href="../../d4/d0f/buffs_8qc.html" target="_top" xlink:title="common/mutators/mutator\l/buffs/buffs.qc">
<polygon fill="none" stroke="black" points="0,-302.5 0,-332.5 149,-332.5 149,-302.5 0,-302.5"/>
<text text-anchor="start" x="8" y="-320.5" font-family="Helvetica,sans-Serif" font-size="10.00">common/mutators/mutator</text>
<text text-anchor="middle" x="74.5" y="-309.5" font-family="Helvetica,sans-Serif" font-size="10.00">/buffs/buffs.qc</text>
</a>
</g>
</g>
<!-- Node1&#45;&gt;Node2 -->
<g id="edge1" class="edge"><title>Node1&#45;&gt;Node2</title>
<path fill="none" stroke="midnightblue" d="M406.639,-371.217C339.081,-361.306 242.148,-346.791 157.5,-333 154.757,-332.553 151.964,-332.093 149.143,-331.623"/>
<polygon fill="midnightblue" stroke="midnightblue" points="406.404,-374.72 416.806,-372.706 407.418,-367.793 406.404,-374.72"/>
</g>
<!-- Node10 -->
<g id="node10" class="node"><title>Node10</title>
<g id="a_node10"><a xlink:href="../../d0/d37/common_2mutators_2mutator_2buffs_2__mod_8qh.html" target="_top" xlink:title="common/mutators/mutator\l/buffs/_mod.qh">
<polygon fill="none" stroke="black" points="167,-302.5 167,-332.5 316,-332.5 316,-302.5 167,-302.5"/>
<text text-anchor="start" x="175" y="-320.5" font-family="Helvetica,sans-Serif" font-size="10.00">common/mutators/mutator</text>
<text text-anchor="middle" x="241.5" y="-309.5" font-family="Helvetica,sans-Serif" font-size="10.00">/buffs/_mod.qh</text>
</a>
</g>
</g>
<!-- Node1&#45;&gt;Node10 -->
<g id="edge9" class="edge"><title>Node1&#45;&gt;Node10</title>
<path fill="none" stroke="midnightblue" d="M427.72,-366.917C386.923,-356.31 334.572,-342.699 295.773,-332.611"/>
<polygon fill="midnightblue" stroke="midnightblue" points="427.003,-370.347 437.562,-369.476 428.764,-363.572 427.003,-370.347"/>
</g>
<!-- Node13 -->
<g id="node13" class="node"><title>Node13</title>
<g id="a_node13"><a xlink:href="../../d5/d7f/cl__buffs_8qh.html" target="_top" xlink:title="common/mutators/mutator\l/buffs/cl_buffs.qh">
<polygon fill="none" stroke="black" points="334,-302.5 334,-332.5 483,-332.5 483,-302.5 334,-302.5"/>
<text text-anchor="start" x="342" y="-320.5" font-family="Helvetica,sans-Serif" font-size="10.00">common/mutators/mutator</text>
<text text-anchor="middle" x="408.5" y="-309.5" font-family="Helvetica,sans-Serif" font-size="10.00">/buffs/cl_buffs.qh</text>
</a>
</g>
</g>
<!-- Node1&#45;&gt;Node13 -->
<g id="edge12" class="edge"><title>Node1&#45;&gt;Node13</title>
<path fill="none" stroke="midnightblue" d="M465.537,-363.168C452.845,-353.228 437.888,-341.514 426.475,-332.577"/>
<polygon fill="midnightblue" stroke="midnightblue" points="463.459,-365.986 473.49,-369.396 467.775,-360.475 463.459,-365.986"/>
</g>
<!-- Node15 -->
<g id="node15" class="node"><title>Node15</title>
<g id="a_node15"><a xlink:href="../../d8/dd8/sv__buffs_8qh.html" target="_top" xlink:title="common/mutators/mutator\l/buffs/sv_buffs.qh">
<polygon fill="none" stroke="black" points="501,-302.5 501,-332.5 650,-332.5 650,-302.5 501,-302.5"/>
<text text-anchor="start" x="509" y="-320.5" font-family="Helvetica,sans-Serif" font-size="10.00">common/mutators/mutator</text>
<text text-anchor="middle" x="575.5" y="-309.5" font-family="Helvetica,sans-Serif" font-size="10.00">/buffs/sv_buffs.qh</text>
</a>
</g>
</g>
<!-- Node1&#45;&gt;Node15 -->
<g id="edge14" class="edge"><title>Node1&#45;&gt;Node15</title>
<path fill="none" stroke="midnightblue" d="M517.776,-363.168C530.62,-353.228 545.758,-341.514 557.309,-332.577"/>
<polygon fill="midnightblue" stroke="midnightblue" points="515.494,-360.508 509.727,-369.396 519.777,-366.044 515.494,-360.508"/>
</g>
<!-- Node17 -->
<g id="node17" class="node"><title>Node17</title>
<g id="a_node17"><a xlink:href="../../d5/dac/g__damage_8qc.html" target="_top" xlink:title="server/g_damage.qc">
<polygon fill="none" stroke="black" points="668,-241 668,-260 783,-260 783,-241 668,-241"/>
<text text-anchor="middle" x="725.5" y="-248" font-family="Helvetica,sans-Serif" font-size="10.00">server/g_damage.qc</text>
</a>
</g>
</g>
<!-- Node1&#45;&gt;Node17 -->
<g id="edge16" class="edge"><title>Node1&#45;&gt;Node17</title>
<path fill="none" stroke="midnightblue" d="M576.022,-368.241C603.85,-360.617 633.93,-349.387 658.5,-333 688.063,-313.283 711.296,-276.646 720.816,-260.056"/>
<polygon fill="midnightblue" stroke="midnightblue" points="575.073,-364.872 566.285,-370.79 576.846,-371.643 575.073,-364.872"/>
</g>
<!-- Node19 -->
<g id="node19" class="node"><title>Node19</title>
<g id="a_node19"><a xlink:href="../../df/d42/quake3_8qc.html" target="_top" xlink:title="server/compat/quake3.qc">
<polygon fill="none" stroke="black" points="764,-308 764,-327 903,-327 903,-308 764,-308"/>
<text text-anchor="middle" x="833.5" y="-315" font-family="Helvetica,sans-Serif" font-size="10.00">server/compat/quake3.qc</text>
</a>
</g>
</g>
<!-- Node1&#45;&gt;Node19 -->
<g id="edge19" class="edge"><title>Node1&#45;&gt;Node19</title>
<path fill="none" stroke="midnightblue" d="M575.451,-367.544C642.759,-354.752 734.604,-337.296 788.626,-327.029"/>
<polygon fill="midnightblue" stroke="midnightblue" points="574.458,-364.17 565.288,-369.476 575.766,-371.047 574.458,-364.17"/>
</g>
<!-- Node3 -->
<g id="node3" class="node"><title>Node3</title>
<g id="a_node3"><a xlink:href="../../df/d84/common_2mutators_2mutator_2buffs_2__mod_8inc.html" target="_top" xlink:title="common/mutators/mutator\l/buffs/_mod.inc">
<polygon fill="none" stroke="black" points="0,-235.5 0,-265.5 149,-265.5 149,-235.5 0,-235.5"/>
<text text-anchor="start" x="8" y="-253.5" font-family="Helvetica,sans-Serif" font-size="10.00">common/mutators/mutator</text>
<text text-anchor="middle" x="74.5" y="-242.5" font-family="Helvetica,sans-Serif" font-size="10.00">/buffs/_mod.inc</text>
</a>
</g>
</g>
<!-- Node2&#45;&gt;Node3 -->
<g id="edge2" class="edge"><title>Node2&#45;&gt;Node3</title>
<path fill="none" stroke="midnightblue" d="M74.5,-292.108C74.5,-283.154 74.5,-273.323 74.5,-265.577"/>
<polygon fill="midnightblue" stroke="midnightblue" points="71.0001,-292.396 74.5,-302.396 78.0001,-292.396 71.0001,-292.396"/>
</g>
<!-- Node4 -->
<g id="node4" class="node"><title>Node4</title>
<g id="a_node4"><a xlink:href="../../df/d27/common_2mutators_2mutator_2__mod_8inc.html" target="_top" xlink:title="common/mutators/mutator\l/_mod.inc">
<polygon fill="none" stroke="black" points="0,-168.5 0,-198.5 149,-198.5 149,-168.5 0,-168.5"/>
<text text-anchor="start" x="8" y="-186.5" font-family="Helvetica,sans-Serif" font-size="10.00">common/mutators/mutator</text>
<text text-anchor="middle" x="74.5" y="-175.5" font-family="Helvetica,sans-Serif" font-size="10.00">/_mod.inc</text>
</a>
</g>
</g>
<!-- Node3&#45;&gt;Node4 -->
<g id="edge3" class="edge"><title>Node3&#45;&gt;Node4</title>
<path fill="none" stroke="midnightblue" d="M74.5,-225.108C74.5,-216.154 74.5,-206.323 74.5,-198.577"/>
<polygon fill="midnightblue" stroke="midnightblue" points="71.0001,-225.396 74.5,-235.396 78.0001,-225.396 71.0001,-225.396"/>
</g>
<!-- Node5 -->
<g id="node5" class="node"><title>Node5</title>
<g id="a_node5"><a xlink:href="../../df/d6e/common_2mutators_2__mod_8inc.html" target="_top" xlink:title="common/mutators/_mod.inc">
<polygon fill="none" stroke="black" points="214,-112.5 214,-131.5 367,-131.5 367,-112.5 214,-112.5"/>
<text text-anchor="middle" x="290.5" y="-119.5" font-family="Helvetica,sans-Serif" font-size="10.00">common/mutators/_mod.inc</text>
</a>
</g>
</g>
<!-- Node4&#45;&gt;Node5 -->
<g id="edge4" class="edge"><title>Node4&#45;&gt;Node5</title>
<path fill="none" stroke="midnightblue" d="M135.195,-165.781C175.711,-154.62 227.298,-140.41 259.62,-131.506"/>
<polygon fill="midnightblue" stroke="midnightblue" points="134.127,-162.445 125.415,-168.475 135.986,-169.193 134.127,-162.445"/>
</g>
<!-- Node6 -->
<g id="node6" class="node"><title>Node6</title>
<g id="a_node6"><a xlink:href="../../d9/d76/common_2__all_8inc.html" target="_top" xlink:title="common/_all.inc">
<polygon fill="none" stroke="black" points="351,-56.5 351,-75.5 446,-75.5 446,-56.5 351,-56.5"/>
<text text-anchor="middle" x="398.5" y="-63.5" font-family="Helvetica,sans-Serif" font-size="10.00">common/_all.inc</text>
</a>
</g>
</g>
<!-- Node5&#45;&gt;Node6 -->
<g id="edge5" class="edge"><title>Node5&#45;&gt;Node6</title>
<path fill="none" stroke="midnightblue" d="M317.048,-107.726C337.046,-97.7271 363.887,-84.3065 381.191,-75.6545"/>
<polygon fill="midnightblue" stroke="midnightblue" points="315.231,-104.721 307.852,-112.324 318.362,-110.982 315.231,-104.721"/>
</g>
<!-- Node7 -->
<g id="node7" class="node"><title>Node7</title>
<g id="a_node7"><a xlink:href="../../d3/dfc/client_2progs_8inc.html" target="_top" xlink:title="client/progs.inc">
<polygon fill="none" stroke="black" points="300,-0.5 300,-19.5 389,-19.5 389,-0.5 300,-0.5"/>
<text text-anchor="middle" x="344.5" y="-7.5" font-family="Helvetica,sans-Serif" font-size="10.00">client/progs.inc</text>
</a>
</g>
</g>
<!-- Node6&#45;&gt;Node7 -->
<g id="edge6" class="edge"><title>Node6&#45;&gt;Node7</title>
<path fill="none" stroke="midnightblue" d="M382.502,-49.0024C372.933,-39.4329 361.139,-27.6389 353.251,-19.7511"/>
<polygon fill="midnightblue" stroke="midnightblue" points="380.037,-51.4868 389.583,-56.083 384.987,-46.537 380.037,-51.4868"/>
</g>
<!-- Node8 -->
<g id="node8" class="node"><title>Node8</title>
<g id="a_node8"><a xlink:href="../../d3/d70/menu_2progs_8inc.html" target="_top" xlink:title="menu/progs.inc">
<polygon fill="none" stroke="black" points="407,-0.5 407,-19.5 498,-19.5 498,-0.5 407,-0.5"/>
<text text-anchor="middle" x="452.5" y="-7.5" font-family="Helvetica,sans-Serif" font-size="10.00">menu/progs.inc</text>
</a>
</g>
</g>
<!-- Node6&#45;&gt;Node8 -->
<g id="edge7" class="edge"><title>Node6&#45;&gt;Node8</title>
<path fill="none" stroke="midnightblue" d="M414.498,-49.0024C424.067,-39.4329 435.861,-27.6389 443.749,-19.7511"/>
<polygon fill="midnightblue" stroke="midnightblue" points="412.013,-46.537 407.417,-56.083 416.963,-51.4868 412.013,-46.537"/>
</g>
<!-- Node9 -->
<g id="node9" class="node"><title>Node9</title>
<g id="a_node9"><a xlink:href="../../dd/d96/server_2progs_8inc.html" target="_top" xlink:title="server/progs.inc">
<polygon fill="none" stroke="black" points="570,-0.5 570,-19.5 663,-19.5 663,-0.5 570,-0.5"/>
<text text-anchor="middle" x="616.5" y="-7.5" font-family="Helvetica,sans-Serif" font-size="10.00">server/progs.inc</text>
</a>
</g>
</g>
<!-- Node6&#45;&gt;Node9 -->
<g id="edge8" class="edge"><title>Node6&#45;&gt;Node9</title>
<path fill="none" stroke="midnightblue" d="M442.812,-54.0237C483.992,-43.8232 544.473,-28.8414 582.119,-19.5164"/>
<polygon fill="midnightblue" stroke="midnightblue" points="441.908,-50.6417 433.043,-56.4435 443.591,-57.4364 441.908,-50.6417"/>
</g>
<!-- Node11 -->
<g id="node11" class="node"><title>Node11</title>
<g id="a_node11"><a xlink:href="../../d2/d47/common_2mutators_2mutator_2__mod_8qh.html" target="_top" xlink:title="common/mutators/mutator\l/_mod.qh">
<polygon fill="none" stroke="black" points="167,-235.5 167,-265.5 316,-265.5 316,-235.5 167,-235.5"/>
<text text-anchor="start" x="175" y="-253.5" font-family="Helvetica,sans-Serif" font-size="10.00">common/mutators/mutator</text>
<text text-anchor="middle" x="241.5" y="-242.5" font-family="Helvetica,sans-Serif" font-size="10.00">/_mod.qh</text>
</a>
</g>
</g>
<!-- Node10&#45;&gt;Node11 -->
<g id="edge10" class="edge"><title>Node10&#45;&gt;Node11</title>
<path fill="none" stroke="midnightblue" d="M241.5,-292.108C241.5,-283.154 241.5,-273.323 241.5,-265.577"/>
<polygon fill="midnightblue" stroke="midnightblue" points="238,-292.396 241.5,-302.396 245,-292.396 238,-292.396"/>
</g>
<!-- Node12 -->
<g id="node12" class="node"><title>Node12</title>
<g id="a_node12"><a xlink:href="../../de/d5d/common_2mutators_2__mod_8qh.html" target="_top" xlink:title="common/mutators/_mod.qh">
<polygon fill="none" stroke="black" points="167.5,-174 167.5,-193 319.5,-193 319.5,-174 167.5,-174"/>
<text text-anchor="middle" x="243.5" y="-181" font-family="Helvetica,sans-Serif" font-size="10.00">common/mutators/_mod.qh</text>
</a>
</g>
</g>
<!-- Node11&#45;&gt;Node12 -->
<g id="edge11" class="edge"><title>Node11&#45;&gt;Node12</title>
<path fill="none" stroke="midnightblue" d="M242.246,-225.25C242.592,-214.017 242.981,-201.377 243.232,-193.195"/>
<polygon fill="midnightblue" stroke="midnightblue" points="238.743,-225.293 241.934,-235.396 245.74,-225.508 238.743,-225.293"/>
</g>
<!-- Node14 -->
<g id="node14" class="node"><title>Node14</title>
<g id="a_node14"><a xlink:href="../../d0/d77/cl__buffs_8qc.html" target="_top" xlink:title="common/mutators/mutator\l/buffs/cl_buffs.qc">
<polygon fill="none" stroke="black" points="334,-235.5 334,-265.5 483,-265.5 483,-235.5 334,-235.5"/>
<text text-anchor="start" x="342" y="-253.5" font-family="Helvetica,sans-Serif" font-size="10.00">common/mutators/mutator</text>
<text text-anchor="middle" x="408.5" y="-242.5" font-family="Helvetica,sans-Serif" font-size="10.00">/buffs/cl_buffs.qc</text>
</a>
</g>
</g>
<!-- Node13&#45;&gt;Node14 -->
<g id="edge13" class="edge"><title>Node13&#45;&gt;Node14</title>
<path fill="none" stroke="midnightblue" d="M408.5,-292.108C408.5,-283.154 408.5,-273.323 408.5,-265.577"/>
<polygon fill="midnightblue" stroke="midnightblue" points="405,-292.396 408.5,-302.396 412,-292.396 405,-292.396"/>
</g>
<!-- Node16 -->
<g id="node16" class="node"><title>Node16</title>
<g id="a_node16"><a xlink:href="../../d2/dac/sv__buffs_8qc.html" target="_top" xlink:title="common/mutators/mutator\l/buffs/sv_buffs.qc">
<polygon fill="none" stroke="black" points="501,-235.5 501,-265.5 650,-265.5 650,-235.5 501,-235.5"/>
<text text-anchor="start" x="509" y="-253.5" font-family="Helvetica,sans-Serif" font-size="10.00">common/mutators/mutator</text>
<text text-anchor="middle" x="575.5" y="-242.5" font-family="Helvetica,sans-Serif" font-size="10.00">/buffs/sv_buffs.qc</text>
</a>
</g>
</g>
<!-- Node15&#45;&gt;Node16 -->
<g id="edge15" class="edge"><title>Node15&#45;&gt;Node16</title>
<path fill="none" stroke="midnightblue" d="M575.5,-292.108C575.5,-283.154 575.5,-273.323 575.5,-265.577"/>
<polygon fill="midnightblue" stroke="midnightblue" points="572,-292.396 575.5,-302.396 579,-292.396 572,-292.396"/>
</g>
<!-- Node18 -->
<g id="node18" class="node"><title>Node18</title>
<g id="a_node18"><a xlink:href="../../dc/d7f/server_2__mod_8inc.html" target="_top" xlink:title="server/_mod.inc">
<polygon fill="none" stroke="black" points="679,-174 679,-193 772,-193 772,-174 679,-174"/>
<text text-anchor="middle" x="725.5" y="-181" font-family="Helvetica,sans-Serif" font-size="10.00">server/_mod.inc</text>
</a>
</g>
</g>
<!-- Node17&#45;&gt;Node18 -->
<g id="edge17" class="edge"><title>Node17&#45;&gt;Node18</title>
<path fill="none" stroke="midnightblue" d="M725.5,-230.537C725.5,-218.17 725.5,-202.62 725.5,-193.127"/>
<polygon fill="midnightblue" stroke="midnightblue" points="722,-230.734 725.5,-240.734 729,-230.734 722,-230.734"/>
</g>
<!-- Node18&#45;&gt;Node9 -->
<g id="edge18" class="edge"><title>Node18&#45;&gt;Node9</title>
<path fill="none" stroke="midnightblue" d="M714.531,-165.241C691.519,-129.035 638.924,-46.2822 621.915,-19.5194"/>
<polygon fill="midnightblue" stroke="midnightblue" points="711.627,-167.197 719.945,-173.76 717.535,-163.442 711.627,-167.197"/>
</g>
<!-- Node20 -->
<g id="node20" class="node"><title>Node20</title>
<g id="a_node20"><a xlink:href="../../dc/dd0/server_2compat_2__mod_8inc.html" target="_top" xlink:title="server/compat/_mod.inc">
<polygon fill="none" stroke="black" points="801,-241 801,-260 934,-260 934,-241 801,-241"/>
<text text-anchor="middle" x="867.5" y="-248" font-family="Helvetica,sans-Serif" font-size="10.00">server/compat/_mod.inc</text>
</a>
</g>
</g>
<!-- Node19&#45;&gt;Node20 -->
<g id="edge20" class="edge"><title>Node19&#45;&gt;Node20</title>
<path fill="none" stroke="midnightblue" d="M842.83,-298.663C849.387,-286.128 857.87,-269.91 862.987,-260.127"/>
<polygon fill="midnightblue" stroke="midnightblue" points="839.619,-297.251 838.085,-307.734 845.822,-300.495 839.619,-297.251"/>
</g>
<!-- Node20&#45;&gt;Node18 -->
<g id="edge21" class="edge"><title>Node20&#45;&gt;Node18</title>
<path fill="none" stroke="midnightblue" d="M839.346,-236.613C811.221,-223.739 768.768,-204.306 744.434,-193.167"/>
<polygon fill="midnightblue" stroke="midnightblue" points="838.094,-239.889 848.643,-240.869 841.008,-233.524 838.094,-239.889"/>
</g>
</g>
</svg>
