<?xml version="1.0" encoding="UTF-8" standalone="no"?>
<!DOCTYPE svg PUBLIC "-//W3C//DTD SVG 1.1//EN"
 "http://www.w3.org/Graphics/SVG/1.1/DTD/svg11.dtd">
<!-- Generated by graphviz version 2.36.0 (20140111.2315)
 -->
<!-- Title: common/minigames/minigame/all.qh Pages: 1 -->
<svg width="497pt" height="96pt"
 viewBox="0.00 0.00 497.00 96.00" xmlns="http://www.w3.org/2000/svg" xmlns:xlink="http://www.w3.org/1999/xlink">
<g id="graph0" class="graph" transform="scale(1 1) rotate(0) translate(4 92)">
<title>common/minigames/minigame/all.qh</title>
<!-- Node1 -->
<g id="node1" class="node"><title>Node1</title>
<polygon fill="#bfbfbf" stroke="black" points="169.5,-57 169.5,-87 318.5,-87 318.5,-57 169.5,-57"/>
<text text-anchor="start" x="177.5" y="-75" font-family="Helvetica,sans-Serif" font-size="10.00">common/minigames/minigame</text>
<text text-anchor="middle" x="244" y="-64" font-family="Helvetica,sans-Serif" font-size="10.00">/all.qh</text>
</g>
<!-- Node2 -->
<g id="node2" class="node"><title>Node2</title>
<g id="a_node2"><a xlink:href="../../db/d8b/nmm_8qc.html" target="_top" xlink:title="nmm.qc">
<polygon fill="none" stroke="black" points="0,-0.5 0,-19.5 52,-19.5 52,-0.5 0,-0.5"/>
<text text-anchor="middle" x="26" y="-7.5" font-family="Helvetica,sans-Serif" font-size="10.00">nmm.qc</text>
</a>
</g>
</g>
<!-- Node1&#45;&gt;Node2 -->
<g id="edge1" class="edge"><title>Node1&#45;&gt;Node2</title>
<path fill="none" stroke="midnightblue" d="M192.889,-56.9327C152.685,-45.8673 97.6786,-30.728 61.9943,-20.9067"/>
<polygon fill="midnightblue" stroke="midnightblue" points="62.5948,-17.4419 52.0245,-18.1627 60.7372,-24.1909 62.5948,-17.4419"/>
</g>
<!-- Node3 -->
<g id="node3" class="node"><title>Node3</title>
<g id="a_node3"><a xlink:href="../../da/d4b/ttt_8qc.html" target="_top" xlink:title="ttt.qc">
<polygon fill="none" stroke="black" points="70.5,-0.5 70.5,-19.5 109.5,-19.5 109.5,-0.5 70.5,-0.5"/>
<text text-anchor="middle" x="90" y="-7.5" font-family="Helvetica,sans-Serif" font-size="10.00">ttt.qc</text>
</a>
</g>
</g>
<!-- Node1&#45;&gt;Node3 -->
<g id="edge2" class="edge"><title>Node1&#45;&gt;Node3</title>
<path fill="none" stroke="midnightblue" d="M207.894,-56.9327C180.895,-46.4138 144.448,-32.2135 119.259,-22.3996"/>
<polygon fill="midnightblue" stroke="midnightblue" points="120.46,-19.1113 109.872,-18.7422 117.919,-25.6338 120.46,-19.1113"/>
</g>
<!-- Node4 -->
<g id="node4" class="node"><title>Node4</title>
<g id="a_node4"><a xlink:href="../../d5/d00/c4_8qc.html" target="_top" xlink:title="c4.qc">
<polygon fill="none" stroke="black" points="127.5,-0.5 127.5,-19.5 168.5,-19.5 168.5,-0.5 127.5,-0.5"/>
<text text-anchor="middle" x="148" y="-7.5" font-family="Helvetica,sans-Serif" font-size="10.00">c4.qc</text>
</a>
</g>
</g>
<!-- Node1&#45;&gt;Node4 -->
<g id="edge3" class="edge"><title>Node1&#45;&gt;Node4</title>
<path fill="none" stroke="midnightblue" d="M221.249,-56.7808C205.913,-47.1958 185.77,-34.6062 170.489,-25.0555"/>
<polygon fill="midnightblue" stroke="midnightblue" points="172.024,-21.8877 161.689,-19.5557 168.314,-27.8237 172.024,-21.8877"/>
</g>
<!-- Node5 -->
<g id="node5" class="node"><title>Node5</title>
<g id="a_node5"><a xlink:href="../../d7/de3/pong_8qc.html" target="_top" xlink:title="pong.qc">
<polygon fill="none" stroke="black" points="186.5,-0.5 186.5,-19.5 237.5,-19.5 237.5,-0.5 186.5,-0.5"/>
<text text-anchor="middle" x="212" y="-7.5" font-family="Helvetica,sans-Serif" font-size="10.00">pong.qc</text>
</a>
</g>
</g>
<!-- Node1&#45;&gt;Node5 -->
<g id="edge4" class="edge"><title>Node1&#45;&gt;Node5</title>
<path fill="none" stroke="midnightblue" d="M236.416,-56.7808C231.91,-48.3318 226.159,-37.5481 221.37,-28.5693"/>
<polygon fill="midnightblue" stroke="midnightblue" points="224.45,-26.907 216.656,-19.7305 218.274,-30.2012 224.45,-26.907"/>
</g>
<!-- Node6 -->
<g id="node6" class="node"><title>Node6</title>
<g id="a_node6"><a xlink:href="../../d8/d1b/ps_8qc.html" target="_top" xlink:title="ps.qc">
<polygon fill="none" stroke="black" points="255.5,-0.5 255.5,-19.5 296.5,-19.5 296.5,-0.5 255.5,-0.5"/>
<text text-anchor="middle" x="276" y="-7.5" font-family="Helvetica,sans-Serif" font-size="10.00">ps.qc</text>
</a>
</g>
</g>
<!-- Node1&#45;&gt;Node6 -->
<g id="edge5" class="edge"><title>Node1&#45;&gt;Node6</title>
<path fill="none" stroke="midnightblue" d="M251.584,-56.7808C256.09,-48.3318 261.841,-37.5481 266.63,-28.5693"/>
<polygon fill="midnightblue" stroke="midnightblue" points="269.726,-30.2012 271.344,-19.7305 263.55,-26.907 269.726,-30.2012"/>
</g>
<!-- Node7 -->
<g id="node7" class="node"><title>Node7</title>
<g id="a_node7"><a xlink:href="../../d1/d93/pp_8qc.html" target="_top" xlink:title="pp.qc">
<polygon fill="none" stroke="black" points="314.5,-0.5 314.5,-19.5 355.5,-19.5 355.5,-0.5 314.5,-0.5"/>
<text text-anchor="middle" x="335" y="-7.5" font-family="Helvetica,sans-Serif" font-size="10.00">pp.qc</text>
</a>
</g>
</g>
<!-- Node1&#45;&gt;Node7 -->
<g id="edge6" class="edge"><title>Node1&#45;&gt;Node7</title>
<path fill="none" stroke="midnightblue" d="M265.566,-56.7808C279.966,-47.2862 298.837,-34.8434 313.271,-25.3267"/>
<polygon fill="midnightblue" stroke="midnightblue" points="315.602,-27.9823 322.024,-19.5557 311.749,-22.1383 315.602,-27.9823"/>
</g>
<!-- Node8 -->
<g id="node8" class="node"><title>Node8</title>
<g id="a_node8"><a xlink:href="../../d1/dff/snake_8qc.html" target="_top" xlink:title="snake.qc">
<polygon fill="none" stroke="black" points="374,-0.5 374,-19.5 430,-19.5 430,-0.5 374,-0.5"/>
<text text-anchor="middle" x="402" y="-7.5" font-family="Helvetica,sans-Serif" font-size="10.00">snake.qc</text>
</a>
</g>
</g>
<!-- Node1&#45;&gt;Node8 -->
<g id="edge7" class="edge"><title>Node1&#45;&gt;Node8</title>
<path fill="none" stroke="midnightblue" d="M281.044,-56.9327C307.938,-46.7196 343.972,-33.036 369.699,-23.2664"/>
<polygon fill="midnightblue" stroke="midnightblue" points="371.247,-26.4222 379.353,-19.6 368.762,-19.8782 371.247,-26.4222"/>
</g>
<!-- Node9 -->
<g id="node9" class="node"><title>Node9</title>
<g id="a_node9"><a xlink:href="../../d3/dd5/bd_8qc.html" target="_top" xlink:title="bd.qc">
<polygon fill="none" stroke="black" points="448.5,-0.5 448.5,-19.5 489.5,-19.5 489.5,-0.5 448.5,-0.5"/>
<text text-anchor="middle" x="469" y="-7.5" font-family="Helvetica,sans-Serif" font-size="10.00">bd.qc</text>
</a>
</g>
</g>
<!-- Node1&#45;&gt;Node9 -->
<g id="edge8" class="edge"><title>Node1&#45;&gt;Node9</title>
<path fill="none" stroke="midnightblue" d="M298.872,-56.9725C337.777,-46.9298 391.177,-32.9492 438,-20 438.209,-19.9421 438.419,-19.8839 438.63,-19.8254"/>
<polygon fill="midnightblue" stroke="midnightblue" points="439.675,-23.1673 448.344,-17.0764 437.769,-16.4319 439.675,-23.1673"/>
</g>
</g>
</svg>
