<?xml version="1.0" encoding="UTF-8" standalone="no"?>
<!DOCTYPE svg PUBLIC "-//W3C//DTD SVG 1.1//EN"
 "http://www.w3.org/Graphics/SVG/1.1/DTD/svg11.dtd">
<!-- Generated by graphviz version 2.36.0 (20140111.2315)
 -->
<!-- Title: GENERIC_COMMAND Pages: 1 -->
<svg width="232pt" height="66pt"
 viewBox="0.00 0.00 232.00 66.00" xmlns="http://www.w3.org/2000/svg" xmlns:xlink="http://www.w3.org/1999/xlink">
<g id="graph0" class="graph" transform="scale(1 1) rotate(0) translate(4 62)">
<title>GENERIC_COMMAND</title>
<!-- Node1 -->
<g id="node1" class="node"><title>Node1</title>
<polygon fill="#bfbfbf" stroke="black" points="0,-19.5 0,-38.5 122,-38.5 122,-19.5 0,-19.5"/>
<text text-anchor="middle" x="61" y="-26.5" font-family="Helvetica,sans-Serif" font-size="10.00">GENERIC_COMMAND</text>
</g>
<!-- Node2 -->
<g id="node2" class="node"><title>Node2</title>
<g id="a_node2"><a xlink:href="../../d7/d7c/common_2items_2item_8qh.html#ae302aa82565a3721ffb781350f49b7af" target="_top" xlink:title="LOG_INFO">
<polygon fill="none" stroke="black" points="158,-38.5 158,-57.5 224,-57.5 224,-38.5 158,-38.5"/>
<text text-anchor="middle" x="191" y="-45.5" font-family="Helvetica,sans-Serif" font-size="10.00">LOG_INFO</text>
</a>
</g>
</g>
<!-- Node1&#45;&gt;Node2 -->
<g id="edge1" class="edge"><title>Node1&#45;&gt;Node2</title>
<path fill="none" stroke="midnightblue" d="M122.252,-37.9436C130.914,-39.2295 139.669,-40.529 147.877,-41.7474"/>
<polygon fill="midnightblue" stroke="midnightblue" points="147.529,-45.2341 157.935,-43.2404 148.557,-38.3099 147.529,-45.2341"/>
</g>
<!-- Node3 -->
<g id="node3" class="node"><title>Node3</title>
<g id="a_node3"><a xlink:href="../../dd/d87/effectinfo_8qc.html#a2ae584d3dad891f2ae754acead0f015a" target="_top" xlink:title="strcat">
<polygon fill="none" stroke="black" points="170.5,-0.5 170.5,-19.5 211.5,-19.5 211.5,-0.5 170.5,-0.5"/>
<text text-anchor="middle" x="191" y="-7.5" font-family="Helvetica,sans-Serif" font-size="10.00">strcat</text>
</a>
</g>
</g>
<!-- Node1&#45;&gt;Node3 -->
<g id="edge2" class="edge"><title>Node1&#45;&gt;Node3</title>
<path fill="none" stroke="midnightblue" d="M122.252,-20.0564C135.421,-18.1016 148.802,-16.1153 160.156,-14.43"/>
<polygon fill="midnightblue" stroke="midnightblue" points="160.968,-17.8478 170.346,-12.9174 159.94,-10.9237 160.968,-17.8478"/>
</g>
</g>
</svg>
