<?xml version="1.0" encoding="UTF-8" standalone="no"?>
<!DOCTYPE svg PUBLIC "-//W3C//DTD SVG 1.1//EN"
 "http://www.w3.org/Graphics/SVG/1.1/DTD/svg11.dtd">
<!-- Generated by graphviz version 2.40.1 (20161225.0304)
 -->
<!-- Title: textLengthUpToLength Pages: 1 -->
<!--zoomable 161 -->
<svg id="main" version="1.1" xmlns="http://www.w3.org/2000/svg" xmlns:xlink="http://www.w3.org/1999/xlink" xml:space="preserve" onload="init(evt)">
<style type="text/css"><![CDATA[
.edge:hover path { stroke: red; }
.edge:hover polygon { stroke: red; fill: red; }
]]></style>
<script type="text/javascript"><![CDATA[
var edges = document.getElementsByTagName('g');
if (edges && edges.length) {
  for (var i=0;i<edges.length;i++) {
    if (edges[i].id.substr(0,4)=='edge') {
      edges[i].setAttribute('class','edge');
    }
  }
}
]]></script>
        <defs>
                <circle id="rim" cx="0" cy="0" r="7"/>
                <circle id="rim2" cx="0" cy="0" r="3.5"/>
                <g id="zoomPlus">
                        <use xlink:href="#rim" fill="#404040">
                                <set attributeName="fill" to="#808080" begin="zoomplus.mouseover" end="zoomplus.mouseout"/>
                        </use>
                        <path d="M-4,0h8M0,-4v8" fill="none" stroke="white" stroke-width="1.5" pointer-events="none"/>
                </g>
                <g id="zoomMin">
                        <use xlink:href="#rim" fill="#404040">
                                <set attributeName="fill" to="#808080" begin="zoomminus.mouseover" end="zoomminus.mouseout"/>
                        </use>
                        <path d="M-4,0h8" fill="none" stroke="white" stroke-width="1.5" pointer-events="none"/>
                </g>
                <g id="dirArrow">
                        <path fill="none" stroke="white" stroke-width="1.5" d="M0,-3.0v7 M-2.5,-0.5L0,-3.0L2.5,-0.5"/>
                </g>
               <g id="resetDef">
                       <use xlink:href="#rim2" fill="#404040">
                               <set attributeName="fill" to="#808080" begin="reset.mouseover" end="reset.mouseout"/>
                       </use>
               </g>
        </defs>

<script type="text/javascript">
var viewWidth = 578;
var viewHeight = 161;
var sectionId = 'dynsection-47';
</script>
<script xlink:href="../../svgpan.js"/>
<svg id="graph" class="graph">
<g id="viewport">
<title>textLengthUpToLength</title>
<!-- Node2009 -->
<g id="node1" class="node">
<title>Node2009</title>
<polygon fill="#bfbfbf" stroke="#000000" points="0,-38.5 0,-57.5 126,-57.5 126,-38.5 0,-38.5"/>
<text text-anchor="middle" x="63" y="-45.5" font-family="Helvetica,sans-Serif" font-size="10.00" fill="#000000">textLengthUpToLength</text>
</g>
<!-- Node2010 -->
<g id="node2" class="node">
<title>Node2010</title>
<g id="a_node2"><a xlink:href="../../d5/df2/common_2util_8qh.html#a0c6829767aa2400e49284b242c194d95" target="_top" xlink:title="getWrappedLineLen">
<polygon fill="none" stroke="#000000" points="164,-76.5 164,-95.5 277,-95.5 277,-76.5 164,-76.5"/>
<text text-anchor="middle" x="220.5" y="-83.5" font-family="Helvetica,sans-Serif" font-size="10.00" fill="#000000">getWrappedLineLen</text>
</a>
</g>
</g>
<!-- Node2009&#45;&gt;Node2010 -->
<g id="edge1" class="edge">
<title>Node2009&#45;&gt;Node2010</title>
<path fill="none" stroke="#191970" d="M112.6041,-59.968C134.6753,-65.2931 160.3027,-71.4762 181.0419,-76.4799"/>
<polygon fill="#191970" stroke="#191970" points="113.2859,-56.5321 102.7439,-57.589 111.6441,-63.3369 113.2859,-56.5321"/>
</g>
<!-- Node2016 -->
<g id="node8" class="node">
<title>Node2016</title>
<g id="a_node8"><a xlink:href="../../df/dd7/server_2client_8qc.html#ac4842064b7f7b032f654e24f1fa5a155" target="_top" xlink:title="PlayerPreThink">
<polygon fill="none" stroke="#000000" points="175.5,-38.5 175.5,-57.5 265.5,-57.5 265.5,-38.5 175.5,-38.5"/>
<text text-anchor="middle" x="220.5" y="-45.5" font-family="Helvetica,sans-Serif" font-size="10.00" fill="#000000">PlayerPreThink</text>
</a>
</g>
</g>
<!-- Node2009&#45;&gt;Node2016 -->
<g id="edge7" class="edge">
<title>Node2009&#45;&gt;Node2016</title>
<path fill="none" stroke="#191970" d="M136.2583,-48C149.5585,-48 163.0687,-48 175.2613,-48"/>
<polygon fill="#191970" stroke="#191970" points="136.1538,-44.5001 126.1538,-48 136.1537,-51.5001 136.1538,-44.5001"/>
</g>
<!-- Node2018 -->
<g id="node10" class="node">
<title>Node2018</title>
<g id="a_node10"><a xlink:href="../../d5/df2/common_2util_8qh.html#a5f119916e6e7513d8e7375c84a2e5dcf" target="_top" xlink:title="textShortenToLength">
<polygon fill="none" stroke="#000000" points="162,-.5 162,-19.5 279,-19.5 279,-.5 162,-.5"/>
<text text-anchor="middle" x="220.5" y="-7.5" font-family="Helvetica,sans-Serif" font-size="10.00" fill="#000000">textShortenToLength</text>
</a>
</g>
</g>
<!-- Node2009&#45;&gt;Node2018 -->
<g id="edge9" class="edge">
<title>Node2009&#45;&gt;Node2018</title>
<path fill="none" stroke="#191970" d="M112.6041,-36.032C134.6753,-30.7069 160.3027,-24.5238 181.0419,-19.5201"/>
<polygon fill="#191970" stroke="#191970" points="111.6441,-32.6631 102.7439,-38.411 113.2859,-39.4679 111.6441,-32.6631"/>
</g>
<!-- Node2011 -->
<g id="node3" class="node">
<title>Node2011</title>
<g id="a_node3"><a xlink:href="../../d1/d9c/server_2chat_8qh.html#abb0f165077ac886332b821ac30314b8a" target="_top" xlink:title="message &quot;&quot;: do not say, just test flood control return value: 1 = accept 0 = reject &#45;1 = fake accept ...">
<polygon fill="none" stroke="#000000" points="332.5,-76.5 332.5,-95.5 367.5,-95.5 367.5,-76.5 332.5,-76.5"/>
<text text-anchor="middle" x="350" y="-83.5" font-family="Helvetica,sans-Serif" font-size="10.00" fill="#000000">Say</text>
</a>
</g>
</g>
<!-- Node2010&#45;&gt;Node2011 -->
<g id="edge2" class="edge">
<title>Node2010&#45;&gt;Node2011</title>
<path fill="none" stroke="#191970" d="M287.5837,-86C304.1188,-86 320.4507,-86 332.2588,-86"/>
<polygon fill="#191970" stroke="#191970" points="287.3006,-82.5001 277.3006,-86 287.3006,-89.5001 287.3006,-82.5001"/>
</g>
<!-- Node2012 -->
<g id="node4" class="node">
<title>Node2012</title>
<g id="a_node4"><a xlink:href="../../d8/d1d/cmd_8qc.html#abbf460d51ea76590ef45741995425f19" target="_top" xlink:title="ClientCommand_say">
<polygon fill="none" stroke="#000000" points="436.5,-133.5 436.5,-152.5 554.5,-152.5 554.5,-133.5 436.5,-133.5"/>
<text text-anchor="middle" x="495.5" y="-140.5" font-family="Helvetica,sans-Serif" font-size="10.00" fill="#000000">ClientCommand_say</text>
</a>
</g>
</g>
<!-- Node2011&#45;&gt;Node2012 -->
<g id="edge3" class="edge">
<title>Node2011&#45;&gt;Node2012</title>
<path fill="none" stroke="#191970" d="M373.9107,-100.6729C387.3661,-108.4446 404.6939,-117.6649 421,-124 430.4559,-127.6737 440.8634,-130.8408 450.8241,-133.4781"/>
<polygon fill="#191970" stroke="#191970" points="375.6655,-97.6444 365.2743,-95.5771 372.1083,-103.6733 375.6655,-97.6444"/>
</g>
<!-- Node2013 -->
<g id="node5" class="node">
<title>Node2013</title>
<g id="a_node5"><a xlink:href="../../d8/d1d/cmd_8qc.html#ad58ae118ed5046354465c83ab676637e" target="_top" xlink:title="ClientCommand_say_team">
<polygon fill="none" stroke="#000000" points="421,-95.5 421,-114.5 570,-114.5 570,-95.5 421,-95.5"/>
<text text-anchor="middle" x="495.5" y="-102.5" font-family="Helvetica,sans-Serif" font-size="10.00" fill="#000000">ClientCommand_say_team</text>
</a>
</g>
</g>
<!-- Node2011&#45;&gt;Node2013 -->
<g id="edge4" class="edge">
<title>Node2011&#45;&gt;Node2013</title>
<path fill="none" stroke="#191970" d="M377.6054,-89.6048C390.5388,-91.2937 406.62,-93.3937 422.7042,-95.494"/>
<polygon fill="#191970" stroke="#191970" points="377.9197,-86.1162 367.5507,-88.2918 377.0133,-93.0573 377.9197,-86.1162"/>
</g>
<!-- Node2014 -->
<g id="node6" class="node">
<title>Node2014</title>
<g id="a_node6"><a xlink:href="../../d8/d1d/cmd_8qc.html#a6a487ac8c19cb81bdc5e6be5c57e2567" target="_top" xlink:title="ClientCommand_tell">
<polygon fill="none" stroke="#000000" points="437.5,-57.5 437.5,-76.5 553.5,-76.5 553.5,-57.5 437.5,-57.5"/>
<text text-anchor="middle" x="495.5" y="-64.5" font-family="Helvetica,sans-Serif" font-size="10.00" fill="#000000">ClientCommand_tell</text>
</a>
</g>
</g>
<!-- Node2011&#45;&gt;Node2014 -->
<g id="edge5" class="edge">
<title>Node2011&#45;&gt;Node2014</title>
<path fill="none" stroke="#191970" d="M377.7881,-82.3713C394.6364,-80.1712 416.7773,-77.2799 437.306,-74.5992"/>
<polygon fill="#191970" stroke="#191970" points="377.0133,-78.9427 367.5507,-83.7082 377.9197,-85.8838 377.0133,-78.9427"/>
</g>
<!-- Node2015 -->
<g id="node7" class="node">
<title>Node2015</title>
<g id="a_node7"><a xlink:href="../../d7/d8c/server_2matrix_8qc.html#af5102d8297bde7ad33c004e9f81e6e3b" target="_top" xlink:title="MX_Handle">
<polygon fill="none" stroke="#000000" points="460,-19.5 460,-38.5 531,-38.5 531,-19.5 460,-19.5"/>
<text text-anchor="middle" x="495.5" y="-26.5" font-family="Helvetica,sans-Serif" font-size="10.00" fill="#000000">MX_Handle</text>
</a>
</g>
</g>
<!-- Node2011&#45;&gt;Node2015 -->
<g id="edge6" class="edge">
<title>Node2011&#45;&gt;Node2015</title>
<path fill="none" stroke="#191970" d="M376.7069,-71.5131C395.8337,-61.1695 418.6202,-48.9246 421,-48 433.3176,-43.2145 447.2499,-39.2888 459.7059,-36.2736"/>
<polygon fill="#191970" stroke="#191970" points="374.8445,-68.5413 367.7168,-76.3802 378.1772,-74.6971 374.8445,-68.5413"/>
</g>
<!-- Node2017 -->
<g id="node9" class="node">
<title>Node2017</title>
<g id="a_node9"><a xlink:href="../../db/d95/server_2main_8qc.html#a554af7e2ac58045168dad9eca30bc8b1" target="_top" xlink:title="StartFrame">
<polygon fill="none" stroke="#000000" points="315,-38.5 315,-57.5 385,-57.5 385,-38.5 315,-38.5"/>
<text text-anchor="middle" x="350" y="-45.5" font-family="Helvetica,sans-Serif" font-size="10.00" fill="#000000">StartFrame</text>
</a>
</g>
</g>
<!-- Node2016&#45;&gt;Node2017 -->
<g id="edge8" class="edge">
<title>Node2016&#45;&gt;Node2017</title>
<path fill="none" stroke="#191970" d="M276.1397,-48C289.2292,-48 302.8256,-48 314.7312,-48"/>
<polygon fill="#191970" stroke="#191970" points="275.7928,-44.5001 265.7928,-48 275.7928,-51.5001 275.7928,-44.5001"/>
</g>
</g>
</svg>
        <g id="navigator" transform="translate(0 0)" fill="#404254">
                <rect fill="#f2f5e9" fill-opacity="0.5" stroke="#606060" stroke-width=".5" x="0" y="0" width="60" height="60"/>
                <use id="zoomplus" xlink:href="#zoomPlus" x="17" y="9" onmousedown="handleZoom(evt,'in')"/>
                <use id="zoomminus" xlink:href="#zoomMin" x="42" y="9" onmousedown="handleZoom(evt,'out')"/>
                <use id="reset" xlink:href="#resetDef" x="30" y="36" onmousedown="handleReset()"/>
                <g id="arrowUp" xlink:href="#dirArrow" transform="translate(30 24)" onmousedown="handlePan(0,-1)">
                  <use xlink:href="#rim" fill="#404040">
                        <set attributeName="fill" to="#808080" begin="arrowUp.mouseover" end="arrowUp.mouseout"/>
                  </use>
                  <path fill="none" stroke="white" stroke-width="1.5" d="M0,-3.0v7 M-2.5,-0.5L0,-3.0L2.5,-0.5"/>
                </g>
                <g id="arrowRight" xlink:href="#dirArrow" transform="rotate(90) translate(36 -43)" onmousedown="handlePan(1,0)">
                  <use xlink:href="#rim" fill="#404040">
                        <set attributeName="fill" to="#808080" begin="arrowRight.mouseover" end="arrowRight.mouseout"/>
                  </use>
                  <path fill="none" stroke="white" stroke-width="1.5" d="M0,-3.0v7 M-2.5,-0.5L0,-3.0L2.5,-0.5"/>
                </g>
                <g id="arrowDown" xlink:href="#dirArrow" transform="rotate(180) translate(-30 -48)" onmousedown="handlePan(0,1)">
                  <use xlink:href="#rim" fill="#404040">
                        <set attributeName="fill" to="#808080" begin="arrowDown.mouseover" end="arrowDown.mouseout"/>
                  </use>
                  <path fill="none" stroke="white" stroke-width="1.5" d="M0,-3.0v7 M-2.5,-0.5L0,-3.0L2.5,-0.5"/>
                </g>
                <g id="arrowLeft" xlink:href="#dirArrow" transform="rotate(270) translate(-36 17)" onmousedown="handlePan(-1,0)">
                  <use xlink:href="#rim" fill="#404040">
                        <set attributeName="fill" to="#808080" begin="arrowLeft.mouseover" end="arrowLeft.mouseout"/>
                  </use>
                  <path fill="none" stroke="white" stroke-width="1.5" d="M0,-3.0v7 M-2.5,-0.5L0,-3.0L2.5,-0.5"/>
                </g>
        </g>
        <svg viewBox="0 0 15 15" width="100%" height="30px" preserveAspectRatio="xMaxYMin meet">
         <g id="arrow_out" transform="scale(0.3 0.3)">
          <a xlink:href="common_2util_8qh_a1bdccada8e15a2921dd2ee0a7464ad65_icgraph_org.svg" target="_base">
           <rect id="button" ry="5" rx="5" y="6" x="6" height="38" width="38"
                fill="#f2f5e9" fill-opacity="0.5" stroke="#606060" stroke-width="1.0"/>
           <path id="arrow"
             d="M 11.500037,31.436501 C 11.940474,20.09759 22.043105,11.32322 32.158766,21.979434 L 37.068811,17.246167 C 37.068811,17.246167 37.088388,32 37.088388,32 L 22.160133,31.978069 C 22.160133,31.978069 26.997745,27.140456 26.997745,27.140456 C 18.528582,18.264221 13.291696,25.230495 11.500037,31.436501 z"
             style="fill:#404040;"/>
          </a>
         </g>
        </svg>
</svg>
