<?xml version="1.0" encoding="UTF-8" standalone="no"?>
<!DOCTYPE svg PUBLIC "-//W3C//DTD SVG 1.1//EN"
 "http://www.w3.org/Graphics/SVG/1.1/DTD/svg11.dtd">
<!-- Generated by graphviz version 2.38.0 (20140413.2041)
 -->
<!-- Title: saveCvarsCallback Pages: 1 -->
<svg width="415pt" height="28pt"
 viewBox="0.00 0.00 415.00 28.00" xmlns="http://www.w3.org/2000/svg" xmlns:xlink="http://www.w3.org/1999/xlink">
<g id="graph0" class="graph" transform="scale(1 1) rotate(0) translate(4 24)">
<title>saveCvarsCallback</title>
<!-- Node1 -->
<g id="node1" class="node"><title>Node1</title>
<polygon fill="#bfbfbf" stroke="black" points="0,-0.5 0,-19.5 106,-19.5 106,-0.5 0,-0.5"/>
<text text-anchor="middle" x="53" y="-7.5" font-family="Helvetica,sans-Serif" font-size="10.00">saveCvarsCallback</text>
</g>
<!-- Node2 -->
<g id="node2" class="node"><title>Node2</title>
<g id="a_node2"><a xlink:href="../../df/d97/menu_2xonotic_2util_8qh.html#a83c60685c744483c0e12bba8bfa18d79" target="_top" xlink:title="makeCallback">
<polygon fill="none" stroke="black" points="142,-0.5 142,-19.5 225,-19.5 225,-0.5 142,-0.5"/>
<text text-anchor="middle" x="183.5" y="-7.5" font-family="Helvetica,sans-Serif" font-size="10.00">makeCallback</text>
</a>
</g>
</g>
<!-- Node1&#45;&gt;Node2 -->
<g id="edge1" class="edge"><title>Node1&#45;&gt;Node2</title>
<path fill="none" stroke="midnightblue" d="M116.328,-10C124.95,-10 133.617,-10 141.709,-10"/>
<polygon fill="midnightblue" stroke="midnightblue" points="116.266,-6.5001 106.266,-10 116.266,-13.5001 116.266,-6.5001"/>
</g>
<!-- Node3 -->
<g id="node3" class="node"><title>Node3</title>
<g id="a_node3"><a xlink:href="../../d7/de3/dialog__multiplayer__create_8qc.html#a24e3f12ce458ad9114f67e09d8863862" target="_top" xlink:title="XonoticServerCreateTab_fill">
<polygon fill="none" stroke="black" points="261,-0.5 261,-19.5 407,-19.5 407,-0.5 261,-0.5"/>
<text text-anchor="middle" x="334" y="-7.5" font-family="Helvetica,sans-Serif" font-size="10.00">XonoticServerCreateTab_fill</text>
</a>
</g>
</g>
<!-- Node2&#45;&gt;Node3 -->
<g id="edge2" class="edge"><title>Node2&#45;&gt;Node3</title>
<path fill="none" stroke="midnightblue" d="M235.245,-10C243.48,-10 252.146,-10 260.776,-10"/>
<polygon fill="midnightblue" stroke="midnightblue" points="235.078,-6.5001 225.078,-10 235.078,-13.5001 235.078,-6.5001"/>
</g>
</g>
</svg>
