<?xml version="1.0" encoding="UTF-8" standalone="no"?>
<!DOCTYPE svg PUBLIC "-//W3C//DTD SVG 1.1//EN"
 "http://www.w3.org/Graphics/SVG/1.1/DTD/svg11.dtd">
<!-- Generated by graphviz version 2.40.1 (20161225.0304)
 -->
<!-- Title: common/items/item/pickup.qc Pages: 1 -->
<svg width="684pt" height="308pt"
 viewBox="0.00 0.00 684.00 308.00" xmlns="http://www.w3.org/2000/svg" xmlns:xlink="http://www.w3.org/1999/xlink">
<g id="graph0" class="graph" transform="scale(1 1) rotate(0) translate(4 304)">
<title>common/items/item/pickup.qc</title>
<!-- Node0 -->
<g id="node1" class="node">
<title>Node0</title>
<polygon fill="#bfbfbf" stroke="#000000" points="161,-280.5 161,-299.5 326,-299.5 326,-280.5 161,-280.5"/>
<text text-anchor="middle" x="243.5" y="-287.5" font-family="Helvetica,sans-Serif" font-size="10.00" fill="#000000">common/items/item/pickup.qc</text>
</g>
<!-- Node1 -->
<g id="node2" class="node">
<title>Node1</title>
<g id="a_node2"><a xlink:href="../../de/dda/pickup_8qh.html" target="_top" xlink:title="pickup.qh">
<polygon fill="none" stroke="#000000" points="159.5,-168.5 159.5,-187.5 223.5,-187.5 223.5,-168.5 159.5,-168.5"/>
<text text-anchor="middle" x="191.5" y="-175.5" font-family="Helvetica,sans-Serif" font-size="10.00" fill="#000000">pickup.qh</text>
</a>
</g>
</g>
<!-- Node0&#45;&gt;Node1 -->
<g id="edge1" class="edge">
<title>Node0&#45;&gt;Node1</title>
<path fill="none" stroke="#191970" d="M235.1022,-280.3984C227.7024,-271.5003 217.1014,-257.6206 210.5,-244 203.3495,-229.2464 198.399,-211.3013 195.348,-197.8493"/>
<polygon fill="#191970" stroke="#191970" points="198.7119,-196.8385 193.2253,-187.775 191.8623,-198.2818 198.7119,-196.8385"/>
</g>
<!-- Node3 -->
<g id="node4" class="node">
<title>Node3</title>
<g id="a_node4"><a xlink:href="../../dc/d9d/inventory_8qh.html" target="_top" xlink:title="common/items/inventory.qh">
<polygon fill="none" stroke="#000000" points="220,-224.5 220,-243.5 373,-243.5 373,-224.5 220,-224.5"/>
<text text-anchor="middle" x="296.5" y="-231.5" font-family="Helvetica,sans-Serif" font-size="10.00" fill="#000000">common/items/inventory.qh</text>
</a>
</g>
</g>
<!-- Node0&#45;&gt;Node3 -->
<g id="edge3" class="edge">
<title>Node0&#45;&gt;Node3</title>
<path fill="none" stroke="#191970" d="M252.7319,-280.2455C260.3317,-272.2155 271.2877,-260.6394 280.3368,-251.0781"/>
<polygon fill="#191970" stroke="#191970" points="283.0421,-253.3115 287.3739,-243.6427 277.958,-248.4998 283.0421,-253.3115"/>
</g>
<!-- Node2 -->
<g id="node3" class="node">
<title>Node2</title>
<g id="a_node3"><a xlink:href="../../d7/d7c/common_2items_2item_8qh.html" target="_top" xlink:title="common/items/item.qh">
<polygon fill="none" stroke="#000000" points="126,-112.5 126,-131.5 257,-131.5 257,-112.5 126,-112.5"/>
<text text-anchor="middle" x="191.5" y="-119.5" font-family="Helvetica,sans-Serif" font-size="10.00" fill="#000000">common/items/item.qh</text>
</a>
</g>
</g>
<!-- Node1&#45;&gt;Node2 -->
<g id="edge2" class="edge">
<title>Node1&#45;&gt;Node2</title>
<path fill="none" stroke="#191970" d="M191.5,-168.2455C191.5,-160.9382 191.5,-150.6944 191.5,-141.7046"/>
<polygon fill="#191970" stroke="#191970" points="195.0001,-141.6426 191.5,-131.6427 188.0001,-141.6427 195.0001,-141.6426"/>
</g>
<!-- Node4 -->
<g id="node5" class="node">
<title>Node4</title>
<g id="a_node5"><a xlink:href="../../d0/d7e/items_2all_8qh.html" target="_top" xlink:title="all.qh">
<polygon fill="none" stroke="#000000" points="274.5,-168.5 274.5,-187.5 318.5,-187.5 318.5,-168.5 274.5,-168.5"/>
<text text-anchor="middle" x="296.5" y="-175.5" font-family="Helvetica,sans-Serif" font-size="10.00" fill="#000000">all.qh</text>
</a>
</g>
</g>
<!-- Node3&#45;&gt;Node4 -->
<g id="edge4" class="edge">
<title>Node3&#45;&gt;Node4</title>
<path fill="none" stroke="#191970" d="M296.5,-224.2455C296.5,-216.9382 296.5,-206.6944 296.5,-197.7046"/>
<polygon fill="#191970" stroke="#191970" points="300.0001,-197.6426 296.5,-187.6427 293.0001,-197.6427 300.0001,-197.6426"/>
</g>
<!-- Node4&#45;&gt;Node2 -->
<g id="edge12" class="edge">
<title>Node4&#45;&gt;Node2</title>
<path fill="none" stroke="#191970" d="M278.2104,-168.2455C261.7238,-159.4527 237.2648,-146.4079 218.5235,-136.4125"/>
<polygon fill="#191970" stroke="#191970" points="220.0506,-133.2604 209.58,-131.6427 216.7565,-139.4368 220.0506,-133.2604"/>
</g>
<!-- Node5 -->
<g id="node6" class="node">
<title>Node5</title>
<g id="a_node6"><a xlink:href="../../d9/df2/common_2command_2__mod_8qh.html" target="_top" xlink:title="common/command/_mod.qh">
<polygon fill="none" stroke="#000000" points="275.5,-112.5 275.5,-131.5 431.5,-131.5 431.5,-112.5 275.5,-112.5"/>
<text text-anchor="middle" x="353.5" y="-119.5" font-family="Helvetica,sans-Serif" font-size="10.00" fill="#000000">common/command/_mod.qh</text>
</a>
</g>
</g>
<!-- Node4&#45;&gt;Node5 -->
<g id="edge5" class="edge">
<title>Node4&#45;&gt;Node5</title>
<path fill="none" stroke="#191970" d="M306.4286,-168.2455C314.6838,-160.1352 326.6209,-148.4075 336.4082,-138.7919"/>
<polygon fill="#191970" stroke="#191970" points="339.0046,-141.1476 343.6851,-131.6427 334.0989,-136.1542 339.0046,-141.1476"/>
</g>
<!-- Node6 -->
<g id="node7" class="node">
<title>Node6</title>
<g id="a_node7"><a xlink:href="../../d7/d88/generic_8qh.html" target="_top" xlink:title="common/command/generic.qh">
<polygon fill="none" stroke="#000000" points="0,-56.5 0,-75.5 165,-75.5 165,-56.5 0,-56.5"/>
<text text-anchor="middle" x="82.5" y="-63.5" font-family="Helvetica,sans-Serif" font-size="10.00" fill="#000000">common/command/generic.qh</text>
</a>
</g>
</g>
<!-- Node5&#45;&gt;Node6 -->
<g id="edge6" class="edge">
<title>Node5&#45;&gt;Node6</title>
<path fill="none" stroke="#191970" d="M307.2214,-112.4369C260.5495,-102.7925 188.4551,-87.8948 138.5669,-77.5858"/>
<polygon fill="#191970" stroke="#191970" points="139.0892,-74.1198 128.5878,-75.5237 137.6726,-80.975 139.0892,-74.1198"/>
</g>
<!-- Node8 -->
<g id="node9" class="node">
<title>Node8</title>
<g id="a_node9"><a xlink:href="../../d8/d96/markup_8qh.html" target="_top" xlink:title="common/command/markup.qh">
<polygon fill="none" stroke="#000000" points="183,-56.5 183,-75.5 350,-75.5 350,-56.5 183,-56.5"/>
<text text-anchor="middle" x="266.5" y="-63.5" font-family="Helvetica,sans-Serif" font-size="10.00" fill="#000000">common/command/markup.qh</text>
</a>
</g>
</g>
<!-- Node5&#45;&gt;Node8 -->
<g id="edge8" class="edge">
<title>Node5&#45;&gt;Node8</title>
<path fill="none" stroke="#191970" d="M338.3458,-112.2455C324.9973,-103.6534 305.3414,-91.0014 289.9617,-81.1018"/>
<polygon fill="#191970" stroke="#191970" points="291.7836,-78.1121 281.4806,-75.6427 287.9949,-83.9982 291.7836,-78.1121"/>
</g>
<!-- Node9 -->
<g id="node10" class="node">
<title>Node9</title>
<g id="a_node10"><a xlink:href="../../d4/dab/common_2command_2reg_8qh.html" target="_top" xlink:title="common/command/reg.qh">
<polygon fill="none" stroke="#000000" points="368,-56.5 368,-75.5 513,-75.5 513,-56.5 368,-56.5"/>
<text text-anchor="middle" x="440.5" y="-63.5" font-family="Helvetica,sans-Serif" font-size="10.00" fill="#000000">common/command/reg.qh</text>
</a>
</g>
</g>
<!-- Node5&#45;&gt;Node9 -->
<g id="edge9" class="edge">
<title>Node5&#45;&gt;Node9</title>
<path fill="none" stroke="#191970" d="M368.6542,-112.2455C382.0027,-103.6534 401.6586,-91.0014 417.0383,-81.1018"/>
<polygon fill="#191970" stroke="#191970" points="419.0051,-83.9982 425.5194,-75.6427 415.2164,-78.1121 419.0051,-83.9982"/>
</g>
<!-- Node11 -->
<g id="node12" class="node">
<title>Node11</title>
<g id="a_node12"><a xlink:href="../../d4/db4/rpn_8qh.html" target="_top" xlink:title="common/command/rpn.qh">
<polygon fill="none" stroke="#000000" points="531,-56.5 531,-75.5 676,-75.5 676,-56.5 531,-56.5"/>
<text text-anchor="middle" x="603.5" y="-63.5" font-family="Helvetica,sans-Serif" font-size="10.00" fill="#000000">common/command/rpn.qh</text>
</a>
</g>
</g>
<!-- Node5&#45;&gt;Node11 -->
<g id="edge11" class="edge">
<title>Node5&#45;&gt;Node11</title>
<path fill="none" stroke="#191970" d="M396.1925,-112.4369C439.0679,-102.8328 505.2005,-88.0191 551.2002,-77.7152"/>
<polygon fill="#191970" stroke="#191970" points="551.9905,-81.1249 560.9836,-75.5237 550.4604,-74.2942 551.9905,-81.1249"/>
</g>
<!-- Node7 -->
<g id="node8" class="node">
<title>Node7</title>
<g id="a_node8"><a xlink:href="../../db/d2a/constants_8qh.html" target="_top" xlink:title="common/constants.qh">
<polygon fill="none" stroke="#000000" points="20,-.5 20,-19.5 145,-19.5 145,-.5 20,-.5"/>
<text text-anchor="middle" x="82.5" y="-7.5" font-family="Helvetica,sans-Serif" font-size="10.00" fill="#000000">common/constants.qh</text>
</a>
</g>
</g>
<!-- Node6&#45;&gt;Node7 -->
<g id="edge7" class="edge">
<title>Node6&#45;&gt;Node7</title>
<path fill="none" stroke="#191970" d="M82.5,-56.2455C82.5,-48.9382 82.5,-38.6944 82.5,-29.7046"/>
<polygon fill="#191970" stroke="#191970" points="86.0001,-29.6426 82.5,-19.6427 79.0001,-29.6427 86.0001,-29.6426"/>
</g>
<!-- Node10 -->
<g id="node11" class="node">
<title>Node10</title>
<g id="a_node11"><a xlink:href="../../d9/da1/common_2command_2command_8qh.html" target="_top" xlink:title="command.qh">
<polygon fill="none" stroke="#000000" points="400.5,-.5 400.5,-19.5 480.5,-19.5 480.5,-.5 400.5,-.5"/>
<text text-anchor="middle" x="440.5" y="-7.5" font-family="Helvetica,sans-Serif" font-size="10.00" fill="#000000">command.qh</text>
</a>
</g>
</g>
<!-- Node9&#45;&gt;Node10 -->
<g id="edge10" class="edge">
<title>Node9&#45;&gt;Node10</title>
<path fill="none" stroke="#191970" d="M440.5,-56.2455C440.5,-48.9382 440.5,-38.6944 440.5,-29.7046"/>
<polygon fill="#191970" stroke="#191970" points="444.0001,-29.6426 440.5,-19.6427 437.0001,-29.6427 444.0001,-29.6426"/>
</g>
</g>
</svg>
