<?xml version="1.0" encoding="UTF-8" standalone="no"?>
<!DOCTYPE svg PUBLIC "-//W3C//DTD SVG 1.1//EN"
 "http://www.w3.org/Graphics/SVG/1.1/DTD/svg11.dtd">
<!-- Generated by graphviz version 2.40.1 (20161225.0304)
 -->
<!-- Title: Portal_TeleportPlayer Pages: 1 -->
<!--zoomable 544 -->
<svg id="main" version="1.1" xmlns="http://www.w3.org/2000/svg" xmlns:xlink="http://www.w3.org/1999/xlink" xml:space="preserve" onload="init(evt)">
<style type="text/css"><![CDATA[
.edge:hover path { stroke: red; }
.edge:hover polygon { stroke: red; fill: red; }
]]></style>
<script type="text/javascript"><![CDATA[
var edges = document.getElementsByTagName('g');
if (edges && edges.length) {
  for (var i=0;i<edges.length;i++) {
    if (edges[i].id.substr(0,4)=='edge') {
      edges[i].setAttribute('class','edge');
    }
  }
}
]]></script>
        <defs>
                <circle id="rim" cx="0" cy="0" r="7"/>
                <circle id="rim2" cx="0" cy="0" r="3.5"/>
                <g id="zoomPlus">
                        <use xlink:href="#rim" fill="#404040">
                                <set attributeName="fill" to="#808080" begin="zoomplus.mouseover" end="zoomplus.mouseout"/>
                        </use>
                        <path d="M-4,0h8M0,-4v8" fill="none" stroke="white" stroke-width="1.5" pointer-events="none"/>
                </g>
                <g id="zoomMin">
                        <use xlink:href="#rim" fill="#404040">
                                <set attributeName="fill" to="#808080" begin="zoomminus.mouseover" end="zoomminus.mouseout"/>
                        </use>
                        <path d="M-4,0h8" fill="none" stroke="white" stroke-width="1.5" pointer-events="none"/>
                </g>
                <g id="dirArrow">
                        <path fill="none" stroke="white" stroke-width="1.5" d="M0,-3.0v7 M-2.5,-0.5L0,-3.0L2.5,-0.5"/>
                </g>
               <g id="resetDef">
                       <use xlink:href="#rim2" fill="#404040">
                               <set attributeName="fill" to="#808080" begin="reset.mouseover" end="reset.mouseout"/>
                       </use>
               </g>
        </defs>

<script type="text/javascript">
var viewWidth = 833;
var viewHeight = 544;
var sectionId = 'dynsection-46';
</script>
<script xlink:href="../../svgpan.js"/>
<svg id="graph" class="graph">
<g id="viewport">
<title>Portal_TeleportPlayer</title>
<!-- Node1956 -->
<g id="node1" class="node">
<title>Node1956</title>
<polygon fill="#bfbfbf" stroke="#000000" points="0,-316.5 0,-335.5 120,-335.5 120,-316.5 0,-316.5"/>
<text text-anchor="middle" x="60" y="-323.5" font-family="Helvetica,sans-Serif" font-size="10.00" fill="#000000">Portal_TeleportPlayer</text>
</g>
<!-- Node1957 -->
<g id="node2" class="node">
<title>Node1957</title>
<g id="a_node2"><a xlink:href="../../df/d13/anglestransform_8qc.html#a6eef2b5d1dcd28a89fa2ab3146011775" target="_top" xlink:title="AnglesTransform_Apply">
<polygon fill="none" stroke="#000000" points="579,-430.5 579,-449.5 710,-449.5 710,-430.5 579,-430.5"/>
<text text-anchor="middle" x="644.5" y="-437.5" font-family="Helvetica,sans-Serif" font-size="10.00" fill="#000000">AnglesTransform_Apply</text>
</a>
</g>
</g>
<!-- Node1956&#45;&gt;Node1957 -->
<g id="edge1" class="edge">
<title>Node1956&#45;&gt;Node1957</title>
<path fill="none" stroke="#191970" d="M80.9231,-335.5463C100.0887,-343.9308 129.4324,-355.8725 156,-363 299.3603,-401.4603 471.8762,-423.091 568.7886,-433.0827"/>
<polygon fill="#191970" stroke="#191970" points="568.486,-436.5699 578.7889,-434.1 569.1945,-429.6058 568.486,-436.5699"/>
</g>
<!-- Node1958 -->
<g id="node3" class="node">
<title>Node1958</title>
<g id="a_node3"><a xlink:href="../../da/dde/csprogsdefs_8qh.html#a2626679e4144af8478202c6c28f90cd9" target="_top" xlink:title="vector">
<polygon fill="none" stroke="#000000" points="766,-411.5 766,-430.5 813,-430.5 813,-411.5 766,-411.5"/>
<text text-anchor="middle" x="789.5" y="-418.5" font-family="Helvetica,sans-Serif" font-size="10.00" fill="#000000">vector</text>
</a>
</g>
</g>
<!-- Node1956&#45;&gt;Node1958 -->
<g id="edge33" class="edge">
<title>Node1956&#45;&gt;Node1958</title>
<path fill="none" stroke="#191970" d="M120.111,-321.9436C261.7395,-313.3049 612.392,-297.5363 718,-345 744.7348,-357.0155 766.2363,-384.201 778.4405,-402.5815"/>
<polygon fill="#191970" stroke="#191970" points="775.6383,-404.6979 783.9534,-411.2637 781.5477,-400.9456 775.6383,-404.6979"/>
</g>
<!-- Node1959 -->
<g id="node4" class="node">
<title>Node1959</title>
<g id="a_node4"><a xlink:href="../../df/d13/anglestransform_8qc.html#ae62e4ce9337df904e78bc661778ba4e0" target="_top" xlink:title="AnglesTransform_ApplyToAngles">
<polygon fill="none" stroke="#000000" points="156,-442.5 156,-461.5 331,-461.5 331,-442.5 156,-442.5"/>
<text text-anchor="middle" x="243.5" y="-449.5" font-family="Helvetica,sans-Serif" font-size="10.00" fill="#000000">AnglesTransform_ApplyToAngles</text>
</a>
</g>
</g>
<!-- Node1956&#45;&gt;Node1959 -->
<g id="edge3" class="edge">
<title>Node1956&#45;&gt;Node1959</title>
<path fill="none" stroke="#191970" d="M66.1972,-335.5118C79.878,-355.734 114.7438,-403.1745 156,-428 163.5509,-432.5437 171.9803,-436.2476 180.5437,-439.2619"/>
<polygon fill="#191970" stroke="#191970" points="179.6378,-442.6471 190.2293,-442.38 181.783,-435.9838 179.6378,-442.6471"/>
</g>
<!-- Node1961 -->
<g id="node6" class="node">
<title>Node1961</title>
<g id="a_node6"><a xlink:href="../../d8/de2/menudefs_8qc.html#a3846d117b360dccec575f96988cf3bb7" target="_top" xlink:title="bound">
<polygon fill="none" stroke="#000000" points="220,-183.5 220,-202.5 267,-202.5 267,-183.5 220,-183.5"/>
<text text-anchor="middle" x="243.5" y="-190.5" font-family="Helvetica,sans-Serif" font-size="10.00" fill="#000000">bound</text>
</a>
</g>
</g>
<!-- Node1956&#45;&gt;Node1961 -->
<g id="edge7" class="edge">
<title>Node1956&#45;&gt;Node1961</title>
<path fill="none" stroke="#191970" d="M65.2213,-316.1923C77.6788,-293.8123 111.4559,-238.8444 156,-212 172.0976,-202.2988 192.5073,-197.5231 209.5653,-195.1842"/>
<polygon fill="#191970" stroke="#191970" points="210.1499,-198.6402 219.6846,-194.0206 209.3502,-191.686 210.1499,-198.6402"/>
</g>
<!-- Node1962 -->
<g id="node7" class="node">
<title>Node1962</title>
<g id="a_node7"><a xlink:href="../../d8/de2/menudefs_8qc.html#ab8f7213273f7de03df213240376ce9f4" target="_top" xlink:title="normalize">
<polygon fill="none" stroke="#000000" points="211,-145.5 211,-164.5 276,-164.5 276,-145.5 211,-145.5"/>
<text text-anchor="middle" x="243.5" y="-152.5" font-family="Helvetica,sans-Serif" font-size="10.00" fill="#000000">normalize</text>
</a>
</g>
</g>
<!-- Node1956&#45;&gt;Node1962 -->
<g id="edge8" class="edge">
<title>Node1956&#45;&gt;Node1962</title>
<path fill="none" stroke="#191970" d="M63.1152,-316.2933C72.3906,-289.0452 102.5572,-211.404 156,-174 168.9346,-164.9472 185.3781,-160.0869 200.5105,-157.5175"/>
<polygon fill="#191970" stroke="#191970" points="201.3033,-160.9405 210.7181,-156.0812 200.3279,-154.0088 201.3033,-160.9405"/>
</g>
<!-- Node1963 -->
<g id="node8" class="node">
<title>Node1963</title>
<g id="a_node8"><a xlink:href="../../de/de8/portals_8qc.html#a7620840c6a2c2d6e4d5a0ceca8b7a840" target="_top" xlink:title="PlayerEdgeDistance">
<polygon fill="none" stroke="#000000" points="587.5,-506.5 587.5,-525.5 701.5,-525.5 701.5,-506.5 587.5,-506.5"/>
<text text-anchor="middle" x="644.5" y="-513.5" font-family="Helvetica,sans-Serif" font-size="10.00" fill="#000000">PlayerEdgeDistance</text>
</a>
</g>
</g>
<!-- Node1956&#45;&gt;Node1963 -->
<g id="edge9" class="edge">
<title>Node1956&#45;&gt;Node1963</title>
<path fill="none" stroke="#191970" d="M63.0432,-335.5932C72.129,-362.4641 101.8446,-438.617 156,-471 288.9011,-550.4701 479.4286,-539.7565 578.6914,-526.8739"/>
<polygon fill="#191970" stroke="#191970" points="579.437,-530.3051 588.8804,-525.5019 578.5028,-523.3677 579.437,-530.3051"/>
</g>
<!-- Node1964 -->
<g id="node9" class="node">
<title>Node1964</title>
<g id="a_node9"><a xlink:href="../../de/de8/portals_8qc.html#a088684099ef22cff92da827e28df7407" target="_top" xlink:title="Portal_ApplyTransformToPlayer\lAngle">
<polygon fill="none" stroke="#000000" points="367,-355 367,-385 535,-385 535,-355 367,-355"/>
<text text-anchor="start" x="375" y="-373" font-family="Helvetica,sans-Serif" font-size="10.00" fill="#000000">Portal_ApplyTransformToPlayer</text>
<text text-anchor="middle" x="451" y="-362" font-family="Helvetica,sans-Serif" font-size="10.00" fill="#000000">Angle</text>
</a>
</g>
</g>
<!-- Node1956&#45;&gt;Node1964 -->
<g id="edge11" class="edge">
<title>Node1956&#45;&gt;Node1964</title>
<path fill="none" stroke="#191970" d="M120.118,-335.1765C131.9977,-336.8742 144.3827,-338.5629 156,-340 222.9928,-348.2873 298.7535,-355.9558 356.7236,-361.4651"/>
<polygon fill="#191970" stroke="#191970" points="356.6821,-364.9767 366.9672,-362.4337 357.3412,-358.0078 356.6821,-364.9767"/>
</g>
<!-- Node1966 -->
<g id="node11" class="node">
<title>Node1966</title>
<g id="a_node11"><a xlink:href="../../d8/d06/client_2resources_8qc.html#aac64e7b0dde144256d4f447c8a4ba3d0" target="_top" xlink:title="Sets the resource amount of an entity without calling any hooks. ">
<polygon fill="none" stroke="#000000" points="187,-107.5 187,-126.5 300,-126.5 300,-107.5 187,-107.5"/>
<text text-anchor="middle" x="243.5" y="-114.5" font-family="Helvetica,sans-Serif" font-size="10.00" fill="#000000">SetResourceExplicit</text>
</a>
</g>
</g>
<!-- Node1956&#45;&gt;Node1966 -->
<g id="edge15" class="edge">
<title>Node1956&#45;&gt;Node1966</title>
<path fill="none" stroke="#191970" d="M61.8526,-316.2431C68.3892,-284.6483 93.4419,-184.39 156,-136 162.2247,-131.185 169.4094,-127.5314 176.9308,-124.7681"/>
<polygon fill="#191970" stroke="#191970" points="178.1057,-128.0676 186.5913,-121.7236 176.0016,-121.3913 178.1057,-128.0676"/>
</g>
<!-- Node1967 -->
<g id="node12" class="node">
<title>Node1967</title>
<g id="a_node12"><a xlink:href="../../d0/d6b/teleporters_8qc.html#ab3fd6d0aedddaa968142b4ea0bb6c041" target="_top" xlink:title="TeleportPlayer">
<polygon fill="none" stroke="#000000" points="200.5,-221.5 200.5,-240.5 286.5,-240.5 286.5,-221.5 200.5,-221.5"/>
<text text-anchor="middle" x="243.5" y="-228.5" font-family="Helvetica,sans-Serif" font-size="10.00" fill="#000000">TeleportPlayer</text>
</a>
</g>
</g>
<!-- Node1956&#45;&gt;Node1967 -->
<g id="edge16" class="edge">
<title>Node1956&#45;&gt;Node1967</title>
<path fill="none" stroke="#191970" d="M78.6048,-316.3681C111.1116,-299.539 178.3798,-264.7134 216.182,-245.1428"/>
<polygon fill="#191970" stroke="#191970" points="217.8475,-248.2219 225.1188,-240.5162 214.6292,-242.0056 217.8475,-248.2219"/>
</g>
<!-- Node1957&#45;&gt;Node1958 -->
<g id="edge2" class="edge">
<title>Node1957&#45;&gt;Node1958</title>
<path fill="none" stroke="#191970" d="M710.212,-431.3895C725.9395,-429.3286 742.0968,-427.2114 755.6885,-425.4305"/>
<polygon fill="#191970" stroke="#191970" points="756.5211,-428.8514 765.9816,-424.0817 755.6115,-421.9107 756.5211,-428.8514"/>
</g>
<!-- Node1960 -->
<g id="node5" class="node">
<title>Node1960</title>
<g id="a_node5"><a xlink:href="../../df/d13/anglestransform_8qc.html#ac06d70078794b4df23a48f86b7aabf21" target="_top" xlink:title="AnglesTransform_Multiply">
<polygon fill="none" stroke="#000000" points="379.5,-442.5 379.5,-461.5 522.5,-461.5 522.5,-442.5 379.5,-442.5"/>
<text text-anchor="middle" x="451" y="-449.5" font-family="Helvetica,sans-Serif" font-size="10.00" fill="#000000">AnglesTransform_Multiply</text>
</a>
</g>
</g>
<!-- Node1959&#45;&gt;Node1960 -->
<g id="edge4" class="edge">
<title>Node1959&#45;&gt;Node1960</title>
<path fill="none" stroke="#191970" d="M331.1979,-452C343.7278,-452 356.5777,-452 368.9928,-452"/>
<polygon fill="#191970" stroke="#191970" points="369.3026,-455.5001 379.3026,-452 369.3025,-448.5001 369.3026,-455.5001"/>
</g>
<!-- Node1960&#45;&gt;Node1957 -->
<g id="edge5" class="edge">
<title>Node1960&#45;&gt;Node1957</title>
<path fill="none" stroke="#191970" d="M522.5025,-447.5657C537.4602,-446.6381 553.2836,-445.6568 568.4014,-444.7193"/>
<polygon fill="#191970" stroke="#191970" points="568.9714,-448.1908 578.7355,-444.0784 568.5381,-441.2042 568.9714,-448.1908"/>
</g>
<!-- Node1960&#45;&gt;Node1958 -->
<g id="edge6" class="edge">
<title>Node1960&#45;&gt;Node1958</title>
<path fill="none" stroke="#191970" d="M503.3295,-461.5234C557.8211,-469.5611 645.2226,-477.1382 718,-459 735.843,-454.553 754.1201,-444.7287 767.7287,-436.1836"/>
<polygon fill="#191970" stroke="#191970" points="769.886,-438.955 776.3415,-430.554 766.0561,-433.0956 769.886,-438.955"/>
</g>
<!-- Node1963&#45;&gt;Node1958 -->
<g id="edge10" class="edge">
<title>Node1963&#45;&gt;Node1958</title>
<path fill="none" stroke="#191970" d="M685.2766,-506.396C696.356,-502.8148 708.0363,-498.0917 718,-492 741.1713,-477.8333 762.5343,-454.7372 775.7605,-438.7522"/>
<polygon fill="#191970" stroke="#191970" points="778.6922,-440.6915 782.231,-430.7051 773.237,-436.305 778.6922,-440.6915"/>
</g>
<!-- Node1964&#45;&gt;Node1957 -->
<g id="edge12" class="edge">
<title>Node1964&#45;&gt;Node1957</title>
<path fill="none" stroke="#191970" d="M495.2655,-385.1068C508.1529,-389.694 522.2043,-394.88 535,-400 551.256,-406.5046 554.6564,-409.7188 571,-416 581.255,-419.9412 592.4653,-423.8155 602.9719,-427.2627"/>
<polygon fill="#191970" stroke="#191970" points="602.1839,-430.686 612.7755,-430.4252 604.333,-424.0241 602.1839,-430.686"/>
</g>
<!-- Node1964&#45;&gt;Node1958 -->
<g id="edge13" class="edge">
<title>Node1964&#45;&gt;Node1958</title>
<path fill="none" stroke="#191970" d="M535.1091,-382.6723C606.2184,-393.3859 704.4405,-408.1845 755.5357,-415.8828"/>
<polygon fill="#191970" stroke="#191970" points="755.2869,-419.3847 765.6968,-417.4137 756.3299,-412.4628 755.2869,-419.3847"/>
</g>
<!-- Node1965 -->
<g id="node10" class="node">
<title>Node1965</title>
<g id="a_node10"><a xlink:href="../../d8/de2/menudefs_8qc.html#a5ae2f838da18fe5ea81151c4e3735220" target="_top" xlink:title="vectoyaw">
<polygon fill="none" stroke="#000000" points="612.5,-354.5 612.5,-373.5 676.5,-373.5 676.5,-354.5 612.5,-354.5"/>
<text text-anchor="middle" x="644.5" y="-361.5" font-family="Helvetica,sans-Serif" font-size="10.00" fill="#000000">vectoyaw</text>
</a>
</g>
</g>
<!-- Node1964&#45;&gt;Node1965 -->
<g id="edge14" class="edge">
<title>Node1964&#45;&gt;Node1965</title>
<path fill="none" stroke="#191970" d="M535.0277,-367.3945C558.1976,-366.676 582.358,-365.9269 602.0687,-365.3157"/>
<polygon fill="#191970" stroke="#191970" points="602.3466,-368.8089 612.2333,-365.0005 602.1296,-361.8122 602.3466,-368.8089"/>
</g>
<!-- Node1967&#45;&gt;Node1958 -->
<g id="edge32" class="edge">
<title>Node1967&#45;&gt;Node1958</title>
<path fill="none" stroke="#191970" d="M269.6444,-240.5225C294.4014,-249.1845 332.7748,-261.698 367,-269 520.7069,-301.7935 584.513,-229.0394 718,-312 751.8064,-333.0103 772.909,-376.5983 782.8069,-401.8252"/>
<polygon fill="#191970" stroke="#191970" points="779.5995,-403.2417 786.3673,-411.3932 786.16,-400.8004 779.5995,-403.2417"/>
</g>
<!-- Node1968 -->
<g id="node13" class="node">
<title>Node1968</title>
<g id="a_node13"><a xlink:href="../../db/d15/api_8qh.html#ab8a774722467f5e4d60086ab429df89b" target="_top" xlink:title="bot_aim_reset">
<polygon fill="none" stroke="#000000" points="408,-38.5 408,-57.5 494,-57.5 494,-38.5 408,-38.5"/>
<text text-anchor="middle" x="451" y="-45.5" font-family="Helvetica,sans-Serif" font-size="10.00" fill="#000000">bot_aim_reset</text>
</a>
</g>
</g>
<!-- Node1967&#45;&gt;Node1968 -->
<g id="edge17" class="edge">
<title>Node1967&#45;&gt;Node1968</title>
<path fill="none" stroke="#191970" d="M286.6921,-230.8343C302.465,-228.6092 319.2893,-223.3699 331,-212 378.6407,-165.7458 319.5592,-113.4592 367,-67 375.3448,-58.8279 386.4184,-53.874 397.7784,-50.9351"/>
<polygon fill="#191970" stroke="#191970" points="398.704,-54.3173 407.7738,-48.841 397.2686,-47.466 398.704,-54.3173"/>
</g>
<!-- Node1969 -->
<g id="node14" class="node">
<title>Node1969</title>
<g id="a_node14"><a xlink:href="../../d4/d0c/csprogsdefs_8qc.html#acbb54a239d76062465dccbc6a6c6e464" target="_top" xlink:title="entity">
<polygon fill="none" stroke="#000000" points="428.5,-.5 428.5,-19.5 473.5,-19.5 473.5,-.5 428.5,-.5"/>
<text text-anchor="middle" x="451" y="-7.5" font-family="Helvetica,sans-Serif" font-size="10.00" fill="#000000">entity</text>
</a>
</g>
</g>
<!-- Node1967&#45;&gt;Node1969 -->
<g id="edge18" class="edge">
<title>Node1967&#45;&gt;Node1969</title>
<path fill="none" stroke="#191970" d="M286.5356,-231.1925C302.4786,-229.0446 319.4632,-223.765 331,-212 389.0369,-152.8153 309.2188,-88.4344 367,-29 380.0328,-15.5943 400.3757,-10.7517 417.7776,-9.3052"/>
<polygon fill="#191970" stroke="#191970" points="418.3244,-12.7827 428.1411,-8.7972 417.9817,-5.7911 418.3244,-12.7827"/>
</g>
<!-- Node1970 -->
<g id="node15" class="node">
<title>Node1970</title>
<g id="a_node15"><a xlink:href="../../dc/d95/random_8qc.html#a3405965b1da9657276caec225d4b3acf" target="_top" xlink:title="RandomSelection_Init">
<polygon fill="none" stroke="#000000" points="389.5,-240.5 389.5,-259.5 512.5,-259.5 512.5,-240.5 389.5,-240.5"/>
<text text-anchor="middle" x="451" y="-247.5" font-family="Helvetica,sans-Serif" font-size="10.00" fill="#000000">RandomSelection_Init</text>
</a>
</g>
</g>
<!-- Node1967&#45;&gt;Node1970 -->
<g id="edge19" class="edge">
<title>Node1967&#45;&gt;Node1970</title>
<path fill="none" stroke="#191970" d="M286.7462,-234.9599C313.424,-237.4027 348.3057,-240.5967 379.0592,-243.4127"/>
<polygon fill="#191970" stroke="#191970" points="379.0351,-246.925 389.3126,-244.3515 379.6735,-239.9542 379.0351,-246.925"/>
</g>
<!-- Node1971 -->
<g id="node16" class="node">
<title>Node1971</title>
<g id="a_node16"><a xlink:href="../../dc/d3d/csqcmodel__hooks_8qc.html#a62e1ac6caa59233c184e5c92b09198c0" target="_top" xlink:title="Reset_ArcBeam">
<polygon fill="none" stroke="#000000" points="404.5,-202.5 404.5,-221.5 497.5,-221.5 497.5,-202.5 404.5,-202.5"/>
<text text-anchor="middle" x="451" y="-209.5" font-family="Helvetica,sans-Serif" font-size="10.00" fill="#000000">Reset_ArcBeam</text>
</a>
</g>
</g>
<!-- Node1967&#45;&gt;Node1971 -->
<g id="edge20" class="edge">
<title>Node1967&#45;&gt;Node1971</title>
<path fill="none" stroke="#191970" d="M286.7462,-227.0401C317.8539,-224.1917 360.1163,-220.3219 393.9814,-217.221"/>
<polygon fill="#191970" stroke="#191970" points="394.5609,-220.6827 404.2,-216.2853 393.9225,-213.7118 394.5609,-220.6827"/>
</g>
<!-- Node1972 -->
<g id="node17" class="node">
<title>Node1972</title>
<g id="a_node17"><a xlink:href="../../d5/dff/ent__cs_8qc.html#ac459a724c1fe031c6658fff554b12ea8" target="_top" xlink:title="setorigin">
<polygon fill="none" stroke="#000000" points="421.5,-164.5 421.5,-183.5 480.5,-183.5 480.5,-164.5 421.5,-164.5"/>
<text text-anchor="middle" x="451" y="-171.5" font-family="Helvetica,sans-Serif" font-size="10.00" fill="#000000">setorigin</text>
</a>
</g>
</g>
<!-- Node1967&#45;&gt;Node1972 -->
<g id="edge21" class="edge">
<title>Node1967&#45;&gt;Node1972</title>
<path fill="none" stroke="#191970" d="M286.8849,-224.0038C301.1705,-221.0634 316.9802,-217.1132 331,-212 347.9965,-205.8011 350.0303,-199.2721 367,-193 381.1066,-187.7861 397.0959,-183.7362 411.3106,-180.7405"/>
<polygon fill="#191970" stroke="#191970" points="412.1756,-184.1369 421.2952,-178.7439 410.803,-177.2728 412.1756,-184.1369"/>
</g>
<!-- Node1973 -->
<g id="node18" class="node">
<title>Node1973</title>
<g id="a_node18"><a xlink:href="../../d0/dcd/csqcprojectile_8qc.html#ae4d3ae90944ee0a34a21572d58c16df0" target="_top" xlink:title="UpdateCSQCProjectileAfter\lTeleport">
<polygon fill="none" stroke="#000000" points="376.5,-115 376.5,-145 525.5,-145 525.5,-115 376.5,-115"/>
<text text-anchor="start" x="384.5" y="-133" font-family="Helvetica,sans-Serif" font-size="10.00" fill="#000000">UpdateCSQCProjectileAfter</text>
<text text-anchor="middle" x="451" y="-122" font-family="Helvetica,sans-Serif" font-size="10.00" fill="#000000">Teleport</text>
</a>
</g>
</g>
<!-- Node1967&#45;&gt;Node1973 -->
<g id="edge22" class="edge">
<title>Node1967&#45;&gt;Node1973</title>
<path fill="none" stroke="#191970" d="M286.7411,-228.4396C301.804,-225.8591 318.137,-221.0027 331,-212 355.5479,-194.8192 343.1176,-173.0944 367,-155 369.4672,-153.1307 372.0728,-151.4006 374.7792,-149.7995"/>
<polygon fill="#191970" stroke="#191970" points="376.4882,-152.8553 383.7193,-145.1118 373.2376,-146.6559 376.4882,-152.8553"/>
</g>
<!-- Node1977 -->
<g id="node22" class="node">
<title>Node1977</title>
<g id="a_node22"><a xlink:href="../../df/d26/server_2items_2items_8qc.html#a6239507bd78a445cd952a33ee3af4d7f" target="_top" xlink:title="UpdateItemAfterTeleport">
<polygon fill="none" stroke="#000000" points="382.5,-76.5 382.5,-95.5 519.5,-95.5 519.5,-76.5 382.5,-76.5"/>
<text text-anchor="middle" x="451" y="-83.5" font-family="Helvetica,sans-Serif" font-size="10.00" fill="#000000">UpdateItemAfterTeleport</text>
</a>
</g>
</g>
<!-- Node1967&#45;&gt;Node1977 -->
<g id="edge26" class="edge">
<title>Node1967&#45;&gt;Node1977</title>
<path fill="none" stroke="#191970" d="M286.6535,-230.244C302.2354,-227.9184 318.938,-222.7644 331,-212 368.1215,-178.8722 330.2103,-139.4959 367,-106 369.1823,-104.0131 371.5258,-102.2134 373.9927,-100.5841"/>
<polygon fill="#191970" stroke="#191970" points="375.7695,-103.6007 382.801,-95.6755 372.362,-97.4861 375.7695,-103.6007"/>
</g>
<!-- Node1974 -->
<g id="node19" class="node">
<title>Node1974</title>
<g id="a_node19"><a xlink:href="../../d0/dcd/csqcprojectile_8qc.html#a05912564a54c4a7e671157117742557e" target="_top" xlink:title="CSQCProjectile_SendEntity">
<polygon fill="none" stroke="#000000" points="571,-120.5 571,-139.5 718,-139.5 718,-120.5 571,-120.5"/>
<text text-anchor="middle" x="644.5" y="-127.5" font-family="Helvetica,sans-Serif" font-size="10.00" fill="#000000">CSQCProjectile_SendEntity</text>
</a>
</g>
</g>
<!-- Node1973&#45;&gt;Node1974 -->
<g id="edge23" class="edge">
<title>Node1973&#45;&gt;Node1974</title>
<path fill="none" stroke="#191970" d="M525.5354,-130C537.0635,-130 549.0364,-130 560.7503,-130"/>
<polygon fill="#191970" stroke="#191970" points="560.9601,-133.5001 570.9601,-130 560.96,-126.5001 560.9601,-133.5001"/>
</g>
<!-- Node1975 -->
<g id="node20" class="node">
<title>Node1975</title>
<g id="a_node20"><a xlink:href="../../d8/de2/menudefs_8qc.html#abd23315350cd01304b6bd77c4c5c07e6" target="_top" xlink:title="WriteByte">
<polygon fill="none" stroke="#000000" points="757,-82.5 757,-101.5 822,-101.5 822,-82.5 757,-82.5"/>
<text text-anchor="middle" x="789.5" y="-89.5" font-family="Helvetica,sans-Serif" font-size="10.00" fill="#000000">WriteByte</text>
</a>
</g>
</g>
<!-- Node1974&#45;&gt;Node1975 -->
<g id="edge24" class="edge">
<title>Node1974&#45;&gt;Node1975</title>
<path fill="none" stroke="#191970" d="M681.527,-120.4805C693.2011,-117.4651 706.1433,-114.1078 718,-111 727.4056,-108.5347 737.5009,-105.8659 747.0555,-103.3296"/>
<polygon fill="#191970" stroke="#191970" points="748,-106.7002 756.7652,-100.7485 746.2016,-99.9351 748,-106.7002"/>
</g>
<!-- Node1976 -->
<g id="node21" class="node">
<title>Node1976</title>
<g id="a_node21"><a xlink:href="../../d8/de2/menudefs_8qc.html#aa8c03f058fec0c574e1bba13327f5a5b" target="_top" xlink:title="WriteCoord">
<polygon fill="none" stroke="#000000" points="754,-120.5 754,-139.5 825,-139.5 825,-120.5 754,-120.5"/>
<text text-anchor="middle" x="789.5" y="-127.5" font-family="Helvetica,sans-Serif" font-size="10.00" fill="#000000">WriteCoord</text>
</a>
</g>
</g>
<!-- Node1974&#45;&gt;Node1976 -->
<g id="edge25" class="edge">
<title>Node1974&#45;&gt;Node1976</title>
<path fill="none" stroke="#191970" d="M718.2744,-130C726.8359,-130 735.3737,-130 743.4101,-130"/>
<polygon fill="#191970" stroke="#191970" points="743.6457,-133.5001 753.6457,-130 743.6456,-126.5001 743.6457,-133.5001"/>
</g>
<!-- Node1978 -->
<g id="node23" class="node">
<title>Node1978</title>
<g id="a_node23"><a xlink:href="../../df/d26/server_2items_2items_8qc.html#a5170a5bfa440c6f8184412ebdf03db7b" target="_top" xlink:title="ItemSend">
<polygon fill="none" stroke="#000000" points="613,-44.5 613,-63.5 676,-63.5 676,-44.5 613,-44.5"/>
<text text-anchor="middle" x="644.5" y="-51.5" font-family="Helvetica,sans-Serif" font-size="10.00" fill="#000000">ItemSend</text>
</a>
</g>
</g>
<!-- Node1977&#45;&gt;Node1978 -->
<g id="edge27" class="edge">
<title>Node1977&#45;&gt;Node1978</title>
<path fill="none" stroke="#191970" d="M508.5325,-76.4856C538.7602,-71.4867 575.1359,-65.4711 602.6538,-60.9203"/>
<polygon fill="#191970" stroke="#191970" points="603.4404,-64.3378 612.7353,-59.2531 602.2983,-57.4316 603.4404,-64.3378"/>
</g>
<!-- Node1981 -->
<g id="node26" class="node">
<title>Node1981</title>
<g id="a_node26"><a xlink:href="../../df/d26/server_2items_2items_8qc.html#a5b8f21a495331612074c7e7b253f1fda" target="_top" xlink:title="ItemUpdate">
<polygon fill="none" stroke="#000000" points="607.5,-82.5 607.5,-101.5 681.5,-101.5 681.5,-82.5 607.5,-82.5"/>
<text text-anchor="middle" x="644.5" y="-89.5" font-family="Helvetica,sans-Serif" font-size="10.00" fill="#000000">ItemUpdate</text>
</a>
</g>
</g>
<!-- Node1977&#45;&gt;Node1981 -->
<g id="edge31" class="edge">
<title>Node1977&#45;&gt;Node1981</title>
<path fill="none" stroke="#191970" d="M519.7657,-88.1323C545.3883,-88.9268 573.876,-89.8101 597.1508,-90.5318"/>
<polygon fill="#191970" stroke="#191970" points="597.3451,-94.0394 607.4488,-90.8511 597.5621,-87.0428 597.3451,-94.0394"/>
</g>
<!-- Node1978&#45;&gt;Node1975 -->
<g id="edge28" class="edge">
<title>Node1978&#45;&gt;Node1975</title>
<path fill="none" stroke="#191970" d="M676.3491,-62.183C689.28,-65.5184 704.3584,-69.4243 718,-73 727.4056,-75.4653 737.5009,-78.1341 747.0555,-80.6704"/>
<polygon fill="#191970" stroke="#191970" points="746.2016,-84.0649 756.7652,-83.2515 748,-77.2998 746.2016,-84.0649"/>
</g>
<!-- Node1979 -->
<g id="node24" class="node">
<title>Node1979</title>
<g id="a_node24"><a xlink:href="../../d8/de2/menudefs_8qc.html#a7bb594d808e357274edee331b5ed2d35" target="_top" xlink:title="WriteShort">
<polygon fill="none" stroke="#000000" points="755.5,-6.5 755.5,-25.5 823.5,-25.5 823.5,-6.5 755.5,-6.5"/>
<text text-anchor="middle" x="789.5" y="-13.5" font-family="Helvetica,sans-Serif" font-size="10.00" fill="#000000">WriteShort</text>
</a>
</g>
</g>
<!-- Node1978&#45;&gt;Node1979 -->
<g id="edge29" class="edge">
<title>Node1978&#45;&gt;Node1979</title>
<path fill="none" stroke="#191970" d="M676.3209,-45.6607C696.6353,-40.3369 723.2499,-33.3621 745.5661,-27.5137"/>
<polygon fill="#191970" stroke="#191970" points="746.6929,-30.8367 755.4789,-24.9159 744.9183,-24.0654 746.6929,-30.8367"/>
</g>
<!-- Node1980 -->
<g id="node25" class="node">
<title>Node1980</title>
<g id="a_node25"><a xlink:href="../../d8/de2/menudefs_8qc.html#a44e0d1ac6d9e4b633d85ad82f408f516" target="_top" xlink:title="WriteString">
<polygon fill="none" stroke="#000000" points="754,-44.5 754,-63.5 825,-63.5 825,-44.5 754,-44.5"/>
<text text-anchor="middle" x="789.5" y="-51.5" font-family="Helvetica,sans-Serif" font-size="10.00" fill="#000000">WriteString</text>
</a>
</g>
</g>
<!-- Node1978&#45;&gt;Node1980 -->
<g id="edge30" class="edge">
<title>Node1978&#45;&gt;Node1980</title>
<path fill="none" stroke="#191970" d="M676.3209,-54C696.112,-54 721.8828,-54 743.833,-54"/>
<polygon fill="#191970" stroke="#191970" points="743.9355,-57.5001 753.9355,-54 743.9354,-50.5001 743.9355,-57.5001"/>
</g>
</g>
</svg>
        <g id="navigator" transform="translate(0 0)" fill="#404254">
                <rect fill="#f2f5e9" fill-opacity="0.5" stroke="#606060" stroke-width=".5" x="0" y="0" width="60" height="60"/>
                <use id="zoomplus" xlink:href="#zoomPlus" x="17" y="9" onmousedown="handleZoom(evt,'in')"/>
                <use id="zoomminus" xlink:href="#zoomMin" x="42" y="9" onmousedown="handleZoom(evt,'out')"/>
                <use id="reset" xlink:href="#resetDef" x="30" y="36" onmousedown="handleReset()"/>
                <g id="arrowUp" xlink:href="#dirArrow" transform="translate(30 24)" onmousedown="handlePan(0,-1)">
                  <use xlink:href="#rim" fill="#404040">
                        <set attributeName="fill" to="#808080" begin="arrowUp.mouseover" end="arrowUp.mouseout"/>
                  </use>
                  <path fill="none" stroke="white" stroke-width="1.5" d="M0,-3.0v7 M-2.5,-0.5L0,-3.0L2.5,-0.5"/>
                </g>
                <g id="arrowRight" xlink:href="#dirArrow" transform="rotate(90) translate(36 -43)" onmousedown="handlePan(1,0)">
                  <use xlink:href="#rim" fill="#404040">
                        <set attributeName="fill" to="#808080" begin="arrowRight.mouseover" end="arrowRight.mouseout"/>
                  </use>
                  <path fill="none" stroke="white" stroke-width="1.5" d="M0,-3.0v7 M-2.5,-0.5L0,-3.0L2.5,-0.5"/>
                </g>
                <g id="arrowDown" xlink:href="#dirArrow" transform="rotate(180) translate(-30 -48)" onmousedown="handlePan(0,1)">
                  <use xlink:href="#rim" fill="#404040">
                        <set attributeName="fill" to="#808080" begin="arrowDown.mouseover" end="arrowDown.mouseout"/>
                  </use>
                  <path fill="none" stroke="white" stroke-width="1.5" d="M0,-3.0v7 M-2.5,-0.5L0,-3.0L2.5,-0.5"/>
                </g>
                <g id="arrowLeft" xlink:href="#dirArrow" transform="rotate(270) translate(-36 17)" onmousedown="handlePan(-1,0)">
                  <use xlink:href="#rim" fill="#404040">
                        <set attributeName="fill" to="#808080" begin="arrowLeft.mouseover" end="arrowLeft.mouseout"/>
                  </use>
                  <path fill="none" stroke="white" stroke-width="1.5" d="M0,-3.0v7 M-2.5,-0.5L0,-3.0L2.5,-0.5"/>
                </g>
        </g>
        <svg viewBox="0 0 15 15" width="100%" height="30px" preserveAspectRatio="xMaxYMin meet">
         <g id="arrow_out" transform="scale(0.3 0.3)">
          <a xlink:href="portals_8qc_a276352c74c587f8bb0dc9508b8dff108_cgraph_org.svg" target="_base">
           <rect id="button" ry="5" rx="5" y="6" x="6" height="38" width="38"
                fill="#f2f5e9" fill-opacity="0.5" stroke="#606060" stroke-width="1.0"/>
           <path id="arrow"
             d="M 11.500037,31.436501 C 11.940474,20.09759 22.043105,11.32322 32.158766,21.979434 L 37.068811,17.246167 C 37.068811,17.246167 37.088388,32 37.088388,32 L 22.160133,31.978069 C 22.160133,31.978069 26.997745,27.140456 26.997745,27.140456 C 18.528582,18.264221 13.291696,25.230495 11.500037,31.436501 z"
             style="fill:#404040;"/>
          </a>
         </g>
        </svg>
</svg>
