<?xml version="1.0" encoding="UTF-8" standalone="no"?>
<!DOCTYPE svg PUBLIC "-//W3C//DTD SVG 1.1//EN"
 "http://www.w3.org/Graphics/SVG/1.1/DTD/svg11.dtd">
<!-- Generated by graphviz version 2.36.0 (20140111.2315)
 -->
<!-- Title: Portal_Think Pages: 1 -->
<!--zoomable 653 -->
<svg id="main" version="1.1" xmlns="http://www.w3.org/2000/svg" xmlns:xlink="http://www.w3.org/1999/xlink" xml:space="preserve" onload="init(evt)">
<style type="text/css"><![CDATA[
.edge:hover path { stroke: red; }
.edge:hover polygon { stroke: red; fill: red; }
]]></style>
<script type="text/javascript"><![CDATA[
var edges = document.getElementsByTagName('g');
if (edges && edges.length) {
  for (var i=0;i<edges.length;i++) {
    if (edges[i].id.substr(0,4)=='edge') {
      edges[i].setAttribute('class','edge');
    }
  }
}
]]></script>
        <defs>
                <circle id="rim" cx="0" cy="0" r="7"/>
                <circle id="rim2" cx="0" cy="0" r="3.5"/>
                <g id="zoomPlus">
                        <use xlink:href="#rim" fill="#404040">
                                <set attributeName="fill" to="#808080" begin="zoomplus.mouseover" end="zoomplus.mouseout"/>
                        </use>
                        <path d="M-4,0h8M0,-4v8" fill="none" stroke="white" stroke-width="1.5" pointer-events="none"/>
                </g>
                <g id="zoomMin">
                        <use xlink:href="#rim" fill="#404040">
                                <set attributeName="fill" to="#808080" begin="zoomminus.mouseover" end="zoomminus.mouseout"/>
                        </use>
                        <path d="M-4,0h8" fill="none" stroke="white" stroke-width="1.5" pointer-events="none"/>
                </g>
                <g id="dirArrow">
                        <path fill="none" stroke="white" stroke-width="1.5" d="M0,-3.0v7 M-2.5,-0.5L0,-3.0L2.5,-0.5"/>
                </g>
               <g id="resetDef">
                       <use xlink:href="#rim2" fill="#404040">
                               <set attributeName="fill" to="#808080" begin="reset.mouseover" end="reset.mouseout"/>
                       </use>
               </g>
        </defs>

<script type="text/javascript">
var viewWidth = 936;
var viewHeight = 653;
var sectionId = 'dynsection-48';
</script>
<script xlink:href="../../svgpan.js"/>
<svg id="graph" class="graph">
<g id="viewport">
<title>Portal_Think</title>
<!-- Node1 -->
<g id="node1" class="node"><title>Node1</title>
<polygon fill="#bfbfbf" stroke="black" points="0.5,-456.5 0.5,-475.5 71.5,-475.5 71.5,-456.5 0.5,-456.5"/>
<text text-anchor="middle" x="36" y="-463.5" font-family="Helvetica,sans-Serif" font-size="10.00">Portal_Think</text>
</g>
<!-- Node2 -->
<g id="node2" class="node"><title>Node2</title>
<g id="a_node2"><a xlink:href="../../d5/df2/common_2util_8qh.html#ac5ad73cc4800e309d3b5a9147d1ce43f" target="_top" xlink:title="entity">
<polygon fill="none" stroke="black" points="671.5,-608.5 671.5,-627.5 712.5,-627.5 712.5,-608.5 671.5,-608.5"/>
<text text-anchor="middle" x="692" y="-615.5" font-family="Helvetica,sans-Serif" font-size="10.00">entity</text>
</a>
</g>
</g>
<!-- Node1&#45;&gt;Node2 -->
<g id="edge1" class="edge"><title>Node1&#45;&gt;Node2</title>
<path fill="none" stroke="midnightblue" d="M41.5058,-475.782C50.9501,-495.167 74.7313,-538.521 108,-561 286.932,-681.9 570.138,-641.452 661.529,-624.141"/>
<polygon fill="midnightblue" stroke="midnightblue" points="662.318,-627.553 671.464,-622.205 660.979,-620.682 662.318,-627.553"/>
</g>
<!-- Node3 -->
<g id="node3" class="node"><title>Node3</title>
<g id="a_node3"><a xlink:href="../../d8/de2/menudefs_8qc.html#a56b53595c8aa15ca107c03896db91fd2" target="_top" xlink:title="error">
<polygon fill="none" stroke="black" points="153,-295.5 153,-314.5 189,-314.5 189,-295.5 153,-295.5"/>
<text text-anchor="middle" x="171" y="-302.5" font-family="Helvetica,sans-Serif" font-size="10.00">error</text>
</a>
</g>
</g>
<!-- Node1&#45;&gt;Node3 -->
<g id="edge2" class="edge"><title>Node1&#45;&gt;Node3</title>
<path fill="none" stroke="midnightblue" d="M39.0207,-456.435C44.9052,-430.951 64.4452,-360.854 108,-324 117.838,-315.676 131.274,-310.997 143.123,-308.368"/>
<polygon fill="midnightblue" stroke="midnightblue" points="143.799,-311.802 152.998,-306.545 142.529,-304.919 143.799,-311.802"/>
</g>
<!-- Node4 -->
<g id="node4" class="node"><title>Node4</title>
<g id="a_node4"><a xlink:href="../../de/de8/portals_8qc.html#a19a716fc7b82b007e67a749adb19b80e" target="_top" xlink:title="Portal_Remove">
<polygon fill="none" stroke="black" points="129,-532.5 129,-551.5 213,-551.5 213,-532.5 129,-532.5"/>
<text text-anchor="middle" x="171" y="-539.5" font-family="Helvetica,sans-Serif" font-size="10.00">Portal_Remove</text>
</a>
</g>
</g>
<!-- Node1&#45;&gt;Node4 -->
<g id="edge3" class="edge"><title>Node1&#45;&gt;Node4</title>
<path fill="none" stroke="midnightblue" d="M53.8445,-475.625C76.7295,-488.703 117.842,-512.196 144.514,-527.437"/>
<polygon fill="midnightblue" stroke="midnightblue" points="142.873,-530.53 153.292,-532.453 146.346,-524.452 142.873,-530.53"/>
</g>
<!-- Node11 -->
<g id="node11" class="node"><title>Node11</title>
<g id="a_node11"><a xlink:href="../../de/de8/portals_8qc.html#a4beb37fda501a020154b70c076fec6a5" target="_top" xlink:title="Portal_Think_TryTeleport\lPlayer">
<polygon fill="none" stroke="black" points="108,-334 108,-364 234,-364 234,-334 108,-334"/>
<text text-anchor="start" x="116" y="-352" font-family="Helvetica,sans-Serif" font-size="10.00">Portal_Think_TryTeleport</text>
<text text-anchor="middle" x="171" y="-341" font-family="Helvetica,sans-Serif" font-size="10.00">Player</text>
</a>
</g>
</g>
<!-- Node1&#45;&gt;Node11 -->
<g id="edge13" class="edge"><title>Node1&#45;&gt;Node11</title>
<path fill="none" stroke="midnightblue" d="M47.8839,-456.425C68.9794,-437.868 115.915,-396.578 145.065,-370.935"/>
<polygon fill="midnightblue" stroke="midnightblue" points="147.582,-373.383 152.779,-364.15 142.959,-368.127 147.582,-373.383"/>
</g>
<!-- Node13 -->
<g id="node13" class="node"><title>Node13</title>
<g id="a_node13"><a xlink:href="../../d4/d0c/csprogsdefs_8qc.html#a4f0b78b1785821ba47129edb68e70f9e" target="_top" xlink:title="vector">
<polygon fill="none" stroke="black" points="845,-304.5 845,-323.5 889,-323.5 889,-304.5 845,-304.5"/>
<text text-anchor="middle" x="867" y="-311.5" font-family="Helvetica,sans-Serif" font-size="10.00">vector</text>
</a>
</g>
</g>
<!-- Node1&#45;&gt;Node13 -->
<g id="edge40" class="edge"><title>Node1&#45;&gt;Node13</title>
<path fill="none" stroke="midnightblue" d="M71.9016,-466C125.927,-466 233.067,-466 324,-466 324,-466 324,-466 498,-466 619.183,-466 664.1,-505.912 770,-447 816.08,-421.366 845.725,-363.232 858.602,-333.024"/>
<polygon fill="midnightblue" stroke="midnightblue" points="861.909,-334.184 862.457,-323.603 855.43,-331.533 861.909,-334.184"/>
</g>
<!-- Node4&#45;&gt;Node2 -->
<g id="edge4" class="edge"><title>Node4&#45;&gt;Node2</title>
<path fill="none" stroke="midnightblue" d="M192.551,-551.645C212.058,-560.394 242.415,-572.967 270,-580 413.102,-616.488 591.367,-619.092 661.089,-618.536"/>
<polygon fill="midnightblue" stroke="midnightblue" points="661.364,-622.034 671.325,-618.425 661.288,-615.034 661.364,-622.034"/>
</g>
<!-- Node5 -->
<g id="node5" class="node"><title>Node5</title>
<g id="a_node5"><a xlink:href="../../de/de8/portals_8qc.html#a609b1151ce1ef7aedb50a1c7e1cba5cf" target="_top" xlink:title="Portal_Disconnect">
<polygon fill="none" stroke="black" points="276.5,-532.5 276.5,-551.5 373.5,-551.5 373.5,-532.5 276.5,-532.5"/>
<text text-anchor="middle" x="325" y="-539.5" font-family="Helvetica,sans-Serif" font-size="10.00">Portal_Disconnect</text>
</a>
</g>
</g>
<!-- Node4&#45;&gt;Node5 -->
<g id="edge5" class="edge"><title>Node4&#45;&gt;Node5</title>
<path fill="none" stroke="midnightblue" d="M213.133,-542C229.45,-542 248.503,-542 266.166,-542"/>
<polygon fill="midnightblue" stroke="midnightblue" points="266.374,-545.5 276.374,-542 266.374,-538.5 266.374,-545.5"/>
</g>
<!-- Node6 -->
<g id="node6" class="node"><title>Node6</title>
<g id="a_node6"><a xlink:href="../../de/de8/portals_8qc.html#ae1ac08fabc3ed8dfd831cc32a5c2af6c" target="_top" xlink:title="Portal_MakeBrokenPortal">
<polygon fill="none" stroke="black" points="433,-570.5 433,-589.5 561,-589.5 561,-570.5 433,-570.5"/>
<text text-anchor="middle" x="497" y="-577.5" font-family="Helvetica,sans-Serif" font-size="10.00">Portal_MakeBrokenPortal</text>
</a>
</g>
</g>
<!-- Node4&#45;&gt;Node6 -->
<g id="edge8" class="edge"><title>Node4&#45;&gt;Node6</title>
<path fill="none" stroke="midnightblue" d="M213.321,-551.035C230.744,-554.578 251.288,-558.407 270,-561 320.838,-568.044 378.496,-572.841 422.85,-575.852"/>
<polygon fill="midnightblue" stroke="midnightblue" points="422.753,-579.354 432.963,-576.524 423.217,-572.369 422.753,-579.354"/>
</g>
<!-- Node8 -->
<g id="node8" class="node"><title>Node8</title>
<g id="a_node8"><a xlink:href="../../d2/dc2/subs_8qc.html#aaee12b410e85192641c50f8eeeef532f" target="_top" xlink:title="SUB_SetFade">
<polygon fill="none" stroke="black" points="285,-494.5 285,-513.5 365,-513.5 365,-494.5 285,-494.5"/>
<text text-anchor="middle" x="325" y="-501.5" font-family="Helvetica,sans-Serif" font-size="10.00">SUB_SetFade</text>
</a>
</g>
</g>
<!-- Node4&#45;&gt;Node8 -->
<g id="edge9" class="edge"><title>Node4&#45;&gt;Node8</title>
<path fill="none" stroke="midnightblue" d="M210.356,-532.411C230.324,-527.419 254.93,-521.268 276.133,-515.967"/>
<polygon fill="midnightblue" stroke="midnightblue" points="277.067,-519.341 285.92,-513.52 275.369,-512.55 277.067,-519.341"/>
</g>
<!-- Node5&#45;&gt;Node6 -->
<g id="edge6" class="edge"><title>Node5&#45;&gt;Node6</title>
<path fill="none" stroke="midnightblue" d="M368.898,-551.589C391.534,-556.649 419.498,-562.9 443.429,-568.249"/>
<polygon fill="midnightblue" stroke="midnightblue" points="442.888,-571.714 453.41,-570.48 444.415,-564.883 442.888,-571.714"/>
</g>
<!-- Node7 -->
<g id="node7" class="node"><title>Node7</title>
<g id="a_node7"><a xlink:href="../../d1/df7/nil_8qh.html#a48cdb42ec925da155dd105031cac3f44" target="_top" xlink:title="func_null">
<polygon fill="none" stroke="black" points="664,-570.5 664,-589.5 720,-589.5 720,-570.5 664,-570.5"/>
<text text-anchor="middle" x="692" y="-577.5" font-family="Helvetica,sans-Serif" font-size="10.00">func_null</text>
</a>
</g>
</g>
<!-- Node6&#45;&gt;Node7 -->
<g id="edge7" class="edge"><title>Node6&#45;&gt;Node7</title>
<path fill="none" stroke="midnightblue" d="M561.195,-580C591.728,-580 627.331,-580 653.519,-580"/>
<polygon fill="midnightblue" stroke="midnightblue" points="653.77,-583.5 663.77,-580 653.77,-576.5 653.77,-583.5"/>
</g>
<!-- Node9 -->
<g id="node9" class="node"><title>Node9</title>
<g id="a_node9"><a xlink:href="../../d2/dc2/subs_8qc.html#a0266c131f6e1ab13c5763bd4f80ca487" target="_top" xlink:title="SUB_SetFade_Think">
<polygon fill="none" stroke="black" points="442.5,-504.5 442.5,-523.5 551.5,-523.5 551.5,-504.5 442.5,-504.5"/>
<text text-anchor="middle" x="497" y="-511.5" font-family="Helvetica,sans-Serif" font-size="10.00">SUB_SetFade_Think</text>
</a>
</g>
</g>
<!-- Node8&#45;&gt;Node9 -->
<g id="edge10" class="edge"><title>Node8&#45;&gt;Node9</title>
<path fill="none" stroke="midnightblue" d="M365.001,-506.294C384.893,-507.464 409.595,-508.917 432.169,-510.245"/>
<polygon fill="midnightblue" stroke="midnightblue" points="432.178,-513.752 442.366,-510.845 432.589,-506.764 432.178,-513.752"/>
</g>
<!-- Node9&#45;&gt;Node9 -->
<g id="edge11" class="edge"><title>Node9&#45;&gt;Node9</title>
<path fill="none" stroke="midnightblue" d="M470.49,-523.757C457.593,-532.565 466.43,-542 497,-542 517.539,-542 528.268,-537.741 529.186,-532.275"/>
<polygon fill="midnightblue" stroke="midnightblue" points="531.968,-530.138 523.51,-523.757 526.143,-534.02 531.968,-530.138"/>
</g>
<!-- Node10 -->
<g id="node10" class="node"><title>Node10</title>
<g id="a_node10"><a xlink:href="../../d2/dc2/subs_8qc.html#ad0806fe42eadae7a1a7a48660cbbd755" target="_top" xlink:title="SUB_VanishOrRemove">
<polygon fill="none" stroke="black" points="632,-532.5 632,-551.5 752,-551.5 752,-532.5 632,-532.5"/>
<text text-anchor="middle" x="692" y="-539.5" font-family="Helvetica,sans-Serif" font-size="10.00">SUB_VanishOrRemove</text>
</a>
</g>
</g>
<!-- Node9&#45;&gt;Node10 -->
<g id="edge12" class="edge"><title>Node9&#45;&gt;Node10</title>
<path fill="none" stroke="midnightblue" d="M551.505,-521.762C573.273,-524.92 598.709,-528.611 621.856,-531.969"/>
<polygon fill="midnightblue" stroke="midnightblue" points="621.564,-535.463 631.963,-533.435 622.569,-528.535 621.564,-535.463"/>
</g>
<!-- Node12 -->
<g id="node12" class="node"><title>Node12</title>
<g id="a_node12"><a xlink:href="../../de/de8/portals_8qc.html#a0ca576360dad6d1ba5c16681b25f958a" target="_top" xlink:title="Portal_WillHitPlane">
<polygon fill="none" stroke="black" points="274.5,-95.5 274.5,-114.5 375.5,-114.5 375.5,-95.5 274.5,-95.5"/>
<text text-anchor="middle" x="325" y="-102.5" font-family="Helvetica,sans-Serif" font-size="10.00">Portal_WillHitPlane</text>
</a>
</g>
</g>
<!-- Node11&#45;&gt;Node12 -->
<g id="edge14" class="edge"><title>Node11&#45;&gt;Node12</title>
<path fill="none" stroke="midnightblue" d="M220.76,-333.906C225.591,-331.12 230.13,-327.844 234,-324 263.828,-294.369 303.454,-172.254 318.173,-124.381"/>
<polygon fill="midnightblue" stroke="midnightblue" points="321.579,-125.209 321.143,-114.623 314.883,-123.171 321.579,-125.209"/>
</g>
<!-- Node16 -->
<g id="node16" class="node"><title>Node16</title>
<g id="a_node16"><a xlink:href="../../de/de8/portals_8qc.html#a919a724c4997049c1316cda5adb99d52" target="_top" xlink:title="Portal_TeleportPlayer">
<polygon fill="none" stroke="black" points="270,-285.5 270,-304.5 380,-304.5 380,-285.5 270,-285.5"/>
<text text-anchor="middle" x="325" y="-292.5" font-family="Helvetica,sans-Serif" font-size="10.00">Portal_TeleportPlayer</text>
</a>
</g>
</g>
<!-- Node11&#45;&gt;Node16 -->
<g id="edge18" class="edge"><title>Node11&#45;&gt;Node16</title>
<path fill="none" stroke="midnightblue" d="M214.34,-333.958C237.346,-325.785 265.507,-315.78 287.531,-307.956"/>
<polygon fill="midnightblue" stroke="midnightblue" points="288.927,-311.175 297.178,-304.529 286.583,-304.579 288.927,-311.175"/>
</g>
<!-- Node12&#45;&gt;Node13 -->
<g id="edge15" class="edge"><title>Node12&#45;&gt;Node13</title>
<path fill="none" stroke="midnightblue" d="M375.546,-101.822C462.344,-98.6393 644.579,-102.793 770,-181 814.528,-208.766 844.693,-265.471 858.101,-295.067"/>
<polygon fill="midnightblue" stroke="midnightblue" points="854.93,-296.551 862.141,-304.313 861.344,-293.749 854.93,-296.551"/>
</g>
<!-- Node14 -->
<g id="node14" class="node"><title>Node14</title>
<g id="a_node14"><a xlink:href="../../d8/de2/menudefs_8qc.html#ab2ad6bdb33b4334fec83db0418cf72df" target="_top" xlink:title="min">
<polygon fill="none" stroke="black" points="481,-38.5 481,-57.5 513,-57.5 513,-38.5 481,-38.5"/>
<text text-anchor="middle" x="497" y="-45.5" font-family="Helvetica,sans-Serif" font-size="10.00">min</text>
</a>
</g>
</g>
<!-- Node12&#45;&gt;Node14 -->
<g id="edge16" class="edge"><title>Node12&#45;&gt;Node14</title>
<path fill="none" stroke="midnightblue" d="M350.69,-95.4933C368.695,-88.6717 393.736,-79.4138 416,-72 434.22,-65.9326 454.999,-59.7197 470.813,-55.1357"/>
<polygon fill="midnightblue" stroke="midnightblue" points="472.231,-58.37 480.876,-52.2442 470.298,-51.6422 472.231,-58.37"/>
</g>
<!-- Node15 -->
<g id="node15" class="node"><title>Node15</title>
<g id="a_node15"><a xlink:href="../../d8/de2/menudefs_8qc.html#a79d61ab0e4126e02af8bc36d432aedaf" target="_top" xlink:title="vlen">
<polygon fill="none" stroke="black" points="479.5,-0.5 479.5,-19.5 514.5,-19.5 514.5,-0.5 479.5,-0.5"/>
<text text-anchor="middle" x="497" y="-7.5" font-family="Helvetica,sans-Serif" font-size="10.00">vlen</text>
</a>
</g>
</g>
<!-- Node12&#45;&gt;Node15 -->
<g id="edge17" class="edge"><title>Node12&#45;&gt;Node15</title>
<path fill="none" stroke="midnightblue" d="M334.411,-95.4273C349.226,-79.1869 381.673,-46.317 416,-29 432.569,-20.6415 452.94,-15.8725 468.979,-13.2028"/>
<polygon fill="midnightblue" stroke="midnightblue" points="469.913,-16.6026 479.291,-11.6717 468.885,-9.67847 469.913,-16.6026"/>
</g>
<!-- Node16&#45;&gt;Node13 -->
<g id="edge39" class="edge"><title>Node16&#45;&gt;Node13</title>
<path fill="none" stroke="midnightblue" d="M342.926,-304.577C360.539,-313.949 389.236,-327.581 416,-333 486.568,-347.287 506.039,-335.371 578,-333 671.473,-329.92 781.733,-321.232 834.618,-316.75"/>
<polygon fill="midnightblue" stroke="midnightblue" points="835.042,-320.227 844.707,-315.887 834.445,-313.252 835.042,-320.227"/>
</g>
<!-- Node17 -->
<g id="node17" class="node"><title>Node17</title>
<g id="a_node17"><a xlink:href="../../df/d13/anglestransform_8qc.html#a6eef2b5d1dcd28a89fa2ab3146011775" target="_top" xlink:title="AnglesTransform_Apply">
<polygon fill="none" stroke="black" points="806.5,-114.5 806.5,-133.5 927.5,-133.5 927.5,-114.5 806.5,-114.5"/>
<text text-anchor="middle" x="867" y="-121.5" font-family="Helvetica,sans-Serif" font-size="10.00">AnglesTransform_Apply</text>
</a>
</g>
</g>
<!-- Node16&#45;&gt;Node17 -->
<g id="edge19" class="edge"><title>Node16&#45;&gt;Node17</title>
<path fill="none" stroke="midnightblue" d="M330.404,-285.267C341.255,-262.549 371.652,-206.055 416,-181 536.277,-113.049 703.02,-111.459 796.069,-117.191"/>
<polygon fill="midnightblue" stroke="midnightblue" points="796.007,-120.694 806.216,-117.863 796.469,-113.709 796.007,-120.694"/>
</g>
<!-- Node18 -->
<g id="node18" class="node"><title>Node18</title>
<g id="a_node18"><a xlink:href="../../df/d13/anglestransform_8qc.html#ae62e4ce9337df904e78bc661778ba4e0" target="_top" xlink:title="AnglesTransform_ApplyToAngles">
<polygon fill="none" stroke="black" points="416,-190.5 416,-209.5 578,-209.5 578,-190.5 416,-190.5"/>
<text text-anchor="middle" x="497" y="-197.5" font-family="Helvetica,sans-Serif" font-size="10.00">AnglesTransform_ApplyToAngles</text>
</a>
</g>
</g>
<!-- Node16&#45;&gt;Node18 -->
<g id="edge20" class="edge"><title>Node16&#45;&gt;Node18</title>
<path fill="none" stroke="midnightblue" d="M334.411,-285.427C349.226,-269.187 381.673,-236.317 416,-219 420.66,-216.649 425.621,-214.582 430.701,-212.766"/>
<polygon fill="midnightblue" stroke="midnightblue" points="432.134,-215.981 440.572,-209.574 429.98,-209.321 432.134,-215.981"/>
</g>
<!-- Node20 -->
<g id="node20" class="node"><title>Node20</title>
<g id="a_node20"><a xlink:href="../../d8/de2/menudefs_8qc.html#a3846d117b360dccec575f96988cf3bb7" target="_top" xlink:title="bound">
<polygon fill="none" stroke="black" points="475.5,-304.5 475.5,-323.5 518.5,-323.5 518.5,-304.5 475.5,-304.5"/>
<text text-anchor="middle" x="497" y="-311.5" font-family="Helvetica,sans-Serif" font-size="10.00">bound</text>
</a>
</g>
</g>
<!-- Node16&#45;&gt;Node20 -->
<g id="edge24" class="edge"><title>Node16&#45;&gt;Node20</title>
<path fill="none" stroke="midnightblue" d="M380.256,-301.064C408.233,-304.191 441.344,-307.891 464.969,-310.532"/>
<polygon fill="midnightblue" stroke="midnightblue" points="464.777,-314.032 475.104,-311.665 465.555,-307.075 464.777,-314.032"/>
</g>
<!-- Node21 -->
<g id="node21" class="node"><title>Node21</title>
<g id="a_node21"><a xlink:href="../../d7/d7c/common_2items_2item_8qh.html#ae302aa82565a3721ffb781350f49b7af" target="_top" xlink:title="LOG_INFO">
<polygon fill="none" stroke="black" points="464,-266.5 464,-285.5 530,-285.5 530,-266.5 464,-266.5"/>
<text text-anchor="middle" x="497" y="-273.5" font-family="Helvetica,sans-Serif" font-size="10.00">LOG_INFO</text>
</a>
</g>
</g>
<!-- Node16&#45;&gt;Node21 -->
<g id="edge25" class="edge"><title>Node16&#45;&gt;Node21</title>
<path fill="none" stroke="midnightblue" d="M380.256,-288.936C403.912,-286.292 431.24,-283.238 453.399,-280.761"/>
<polygon fill="midnightblue" stroke="midnightblue" points="453.954,-284.221 463.503,-279.632 453.177,-277.264 453.954,-284.221"/>
</g>
<!-- Node22 -->
<g id="node22" class="node"><title>Node22</title>
<g id="a_node22"><a xlink:href="../../d8/de2/menudefs_8qc.html#ab8f7213273f7de03df213240376ce9f4" target="_top" xlink:title="normalize">
<polygon fill="none" stroke="black" points="467.5,-228.5 467.5,-247.5 526.5,-247.5 526.5,-228.5 467.5,-228.5"/>
<text text-anchor="middle" x="497" y="-235.5" font-family="Helvetica,sans-Serif" font-size="10.00">normalize</text>
</a>
</g>
</g>
<!-- Node16&#45;&gt;Node22 -->
<g id="edge26" class="edge"><title>Node16&#45;&gt;Node22</title>
<path fill="none" stroke="midnightblue" d="M346.007,-285.416C364.007,-277.07 391.338,-265.073 416,-257 429.298,-252.647 444.14,-248.842 457.395,-245.804"/>
<polygon fill="midnightblue" stroke="midnightblue" points="458.166,-249.218 467.17,-243.633 456.649,-242.384 458.166,-249.218"/>
</g>
<!-- Node23 -->
<g id="node23" class="node"><title>Node23</title>
<g id="a_node23"><a xlink:href="../../de/de8/portals_8qc.html#a7620840c6a2c2d6e4d5a0ceca8b7a840" target="_top" xlink:title="PlayerEdgeDistance">
<polygon fill="none" stroke="black" points="639,-342.5 639,-361.5 745,-361.5 745,-342.5 639,-342.5"/>
<text text-anchor="middle" x="692" y="-349.5" font-family="Helvetica,sans-Serif" font-size="10.00">PlayerEdgeDistance</text>
</a>
</g>
</g>
<!-- Node16&#45;&gt;Node23 -->
<g id="edge27" class="edge"><title>Node16&#45;&gt;Node23</title>
<path fill="none" stroke="midnightblue" d="M333.965,-304.511C348.344,-320.847 380.464,-353.67 416,-366 494.232,-393.143 592.5,-377.145 647.872,-363.96"/>
<polygon fill="midnightblue" stroke="midnightblue" points="648.824,-367.33 657.698,-361.542 647.151,-360.533 648.824,-367.33"/>
</g>
<!-- Node24 -->
<g id="node24" class="node"><title>Node24</title>
<g id="a_node24"><a xlink:href="../../de/de8/portals_8qc.html#a088684099ef22cff92da827e28df7407" target="_top" xlink:title="Portal_ApplyTransformToPlayer\lAngle">
<polygon fill="none" stroke="black" points="614.5,-65 614.5,-95 769.5,-95 769.5,-65 614.5,-65"/>
<text text-anchor="start" x="622.5" y="-83" font-family="Helvetica,sans-Serif" font-size="10.00">Portal_ApplyTransformToPlayer</text>
<text text-anchor="middle" x="692" y="-72" font-family="Helvetica,sans-Serif" font-size="10.00">Angle</text>
</a>
</g>
</g>
<!-- Node16&#45;&gt;Node24 -->
<g id="edge29" class="edge"><title>Node16&#45;&gt;Node24</title>
<path fill="none" stroke="midnightblue" d="M327.426,-285.248C332.6,-253.713 353.497,-153.996 416,-110 470.183,-71.8606 545.837,-66.1168 604.082,-68.9281"/>
<polygon fill="midnightblue" stroke="midnightblue" points="604.192,-72.4401 614.377,-69.5218 604.595,-65.4517 604.192,-72.4401"/>
</g>
<!-- Node26 -->
<g id="node26" class="node"><title>Node26</title>
<g id="a_node26"><a xlink:href="../../d0/d6b/teleporters_8qc.html#ab3fd6d0aedddaa968142b4ea0bb6c041" target="_top" xlink:title="TeleportPlayer">
<polygon fill="none" stroke="black" points="457,-418.5 457,-437.5 537,-437.5 537,-418.5 457,-418.5"/>
<text text-anchor="middle" x="497" y="-425.5" font-family="Helvetica,sans-Serif" font-size="10.00">TeleportPlayer</text>
</a>
</g>
</g>
<!-- Node16&#45;&gt;Node26 -->
<g id="edge33" class="edge"><title>Node16&#45;&gt;Node26</title>
<path fill="none" stroke="midnightblue" d="M331.347,-304.788C343.498,-326.108 375.312,-376.991 416,-404 425.342,-410.201 436.34,-414.846 447.14,-418.309"/>
<polygon fill="midnightblue" stroke="midnightblue" points="446.371,-421.73 456.951,-421.167 448.329,-415.01 446.371,-421.73"/>
</g>
<!-- Node19 -->
<g id="node19" class="node"><title>Node19</title>
<g id="a_node19"><a xlink:href="../../df/d13/anglestransform_8qc.html#ac06d70078794b4df23a48f86b7aabf21" target="_top" xlink:title="AnglesTransform_Multiply">
<polygon fill="none" stroke="black" points="627,-190.5 627,-209.5 757,-209.5 757,-190.5 627,-190.5"/>
<text text-anchor="middle" x="692" y="-197.5" font-family="Helvetica,sans-Serif" font-size="10.00">AnglesTransform_Multiply</text>
</a>
</g>
</g>
<!-- Node18&#45;&gt;Node19 -->
<g id="edge21" class="edge"><title>Node18&#45;&gt;Node19</title>
<path fill="none" stroke="midnightblue" d="M578.173,-200C591.003,-200 604.23,-200 616.91,-200"/>
<polygon fill="midnightblue" stroke="midnightblue" points="616.944,-203.5 626.944,-200 616.944,-196.5 616.944,-203.5"/>
</g>
<!-- Node19&#45;&gt;Node13 -->
<g id="edge23" class="edge"><title>Node19&#45;&gt;Node13</title>
<path fill="none" stroke="midnightblue" d="M707.452,-209.523C737.398,-229.256 806.449,-274.758 842.744,-298.675"/>
<polygon fill="midnightblue" stroke="midnightblue" points="840.946,-301.682 851.222,-304.262 844.798,-295.837 840.946,-301.682"/>
</g>
<!-- Node19&#45;&gt;Node17 -->
<g id="edge22" class="edge"><title>Node19&#45;&gt;Node17</title>
<path fill="none" stroke="midnightblue" d="M714.911,-190.375C745.328,-177.012 800.502,-152.773 835.094,-137.577"/>
<polygon fill="midnightblue" stroke="midnightblue" points="836.52,-140.774 844.267,-133.547 833.704,-134.365 836.52,-140.774"/>
</g>
<!-- Node23&#45;&gt;Node13 -->
<g id="edge28" class="edge"><title>Node23&#45;&gt;Node13</title>
<path fill="none" stroke="midnightblue" d="M736.655,-342.411C767.366,-335.665 807.715,-326.802 835.125,-320.782"/>
<polygon fill="midnightblue" stroke="midnightblue" points="835.933,-324.188 844.949,-318.624 834.431,-317.351 835.933,-324.188"/>
</g>
<!-- Node24&#45;&gt;Node13 -->
<g id="edge31" class="edge"><title>Node24&#45;&gt;Node13</title>
<path fill="none" stroke="midnightblue" d="M713.624,-95.1895C730.159,-108.037 753.283,-127.573 770,-148 809.574,-196.355 842.721,-263.034 857.594,-295.177"/>
<polygon fill="midnightblue" stroke="midnightblue" points="854.435,-296.684 861.766,-304.333 860.805,-293.781 854.435,-296.684"/>
</g>
<!-- Node24&#45;&gt;Node17 -->
<g id="edge30" class="edge"><title>Node24&#45;&gt;Node17</title>
<path fill="none" stroke="midnightblue" d="M752.053,-95.0192C773.84,-100.56 798.218,-106.761 818.818,-112"/>
<polygon fill="midnightblue" stroke="midnightblue" points="818.045,-115.415 828.599,-114.488 819.77,-108.631 818.045,-115.415"/>
</g>
<!-- Node25 -->
<g id="node25" class="node"><title>Node25</title>
<g id="a_node25"><a xlink:href="../../d8/de2/menudefs_8qc.html#a5ae2f838da18fe5ea81151c4e3735220" target="_top" xlink:title="vectoyaw">
<polygon fill="none" stroke="black" points="837.5,-70.5 837.5,-89.5 896.5,-89.5 896.5,-70.5 837.5,-70.5"/>
<text text-anchor="middle" x="867" y="-77.5" font-family="Helvetica,sans-Serif" font-size="10.00">vectoyaw</text>
</a>
</g>
</g>
<!-- Node24&#45;&gt;Node25 -->
<g id="edge32" class="edge"><title>Node24&#45;&gt;Node25</title>
<path fill="none" stroke="midnightblue" d="M769.636,-80C789.545,-80 810.16,-80 827.188,-80"/>
<polygon fill="midnightblue" stroke="midnightblue" points="827.289,-83.5001 837.289,-80 827.289,-76.5001 827.289,-83.5001"/>
</g>
<!-- Node26&#45;&gt;Node2 -->
<g id="edge34" class="edge"><title>Node26&#45;&gt;Node2</title>
<path fill="none" stroke="midnightblue" d="M514.059,-437.631C532.018,-449.167 560.832,-470.089 578,-495 605.756,-535.275 577.87,-566.028 614,-599 626.643,-610.538 645.164,-615.351 660.873,-617.249"/>
<polygon fill="midnightblue" stroke="midnightblue" points="660.928,-620.767 671.193,-618.144 661.533,-613.793 660.928,-620.767"/>
</g>
<!-- Node26&#45;&gt;Node13 -->
<g id="edge38" class="edge"><title>Node26&#45;&gt;Node13</title>
<path fill="none" stroke="midnightblue" d="M537.207,-421.42C601.867,-410.296 727.904,-387.385 770,-371 797.32,-360.366 825.868,-342.401 844.657,-329.479"/>
<polygon fill="midnightblue" stroke="midnightblue" points="846.87,-332.202 853.048,-323.595 842.851,-326.471 846.87,-332.202"/>
</g>
<!-- Node27 -->
<g id="node27" class="node"><title>Node27</title>
<g id="a_node27"><a xlink:href="../../dc/d95/random_8qc.html#a95527c538e7d69ffdd2779998fdabb42" target="_top" xlink:title="RandomSelection_Add">
<polygon fill="none" stroke="black" points="634,-494.5 634,-513.5 750,-513.5 750,-494.5 634,-494.5"/>
<text text-anchor="middle" x="692" y="-501.5" font-family="Helvetica,sans-Serif" font-size="10.00">RandomSelection_Add</text>
</a>
</g>
</g>
<!-- Node26&#45;&gt;Node27 -->
<g id="edge35" class="edge"><title>Node26&#45;&gt;Node27</title>
<path fill="none" stroke="midnightblue" d="M522.444,-437.625C556.523,-451.045 618.457,-475.434 657.015,-490.617"/>
<polygon fill="midnightblue" stroke="midnightblue" points="656.168,-494.045 666.755,-494.453 658.733,-487.532 656.168,-494.045"/>
</g>
<!-- Node29 -->
<g id="node29" class="node"><title>Node29</title>
<g id="a_node29"><a xlink:href="../../dc/d95/random_8qc.html#a2d70d358bbf6aa8252f2aebc596d67c1" target="_top" xlink:title="RandomSelection_Init">
<polygon fill="none" stroke="black" points="635.5,-418.5 635.5,-437.5 748.5,-437.5 748.5,-418.5 635.5,-418.5"/>
<text text-anchor="middle" x="692" y="-425.5" font-family="Helvetica,sans-Serif" font-size="10.00">RandomSelection_Init</text>
</a>
</g>
</g>
<!-- Node26&#45;&gt;Node29 -->
<g id="edge37" class="edge"><title>Node26&#45;&gt;Node29</title>
<path fill="none" stroke="midnightblue" d="M537.056,-428C562.28,-428 595.736,-428 625.015,-428"/>
<polygon fill="midnightblue" stroke="midnightblue" points="625.176,-431.5 635.176,-428 625.176,-424.5 625.176,-431.5"/>
</g>
<!-- Node28 -->
<g id="node28" class="node"><title>Node28</title>
<g id="a_node28"><a xlink:href="../../d8/de2/menudefs_8qc.html#a663ea6aa3c4923b3e065cf91cc319f1b" target="_top" xlink:title="random">
<polygon fill="none" stroke="black" points="842.5,-494.5 842.5,-513.5 891.5,-513.5 891.5,-494.5 842.5,-494.5"/>
<text text-anchor="middle" x="867" y="-501.5" font-family="Helvetica,sans-Serif" font-size="10.00">random</text>
</a>
</g>
</g>
<!-- Node27&#45;&gt;Node28 -->
<g id="edge36" class="edge"><title>Node27&#45;&gt;Node28</title>
<path fill="none" stroke="midnightblue" d="M750.126,-504C777.267,-504 808.786,-504 832.093,-504"/>
<polygon fill="midnightblue" stroke="midnightblue" points="832.179,-507.5 842.179,-504 832.179,-500.5 832.179,-507.5"/>
</g>
</g>
</svg>
        <g id="navigator" transform="translate(0 0)" fill="#404254">
                <rect fill="#f2f5e9" fill-opacity="0.5" stroke="#606060" stroke-width=".5" x="0" y="0" width="60" height="60"/>
                <use id="zoomplus" xlink:href="#zoomPlus" x="17" y="9" onmousedown="handleZoom(evt,'in')"/>
                <use id="zoomminus" xlink:href="#zoomMin" x="42" y="9" onmousedown="handleZoom(evt,'out')"/>
                <use id="reset" xlink:href="#resetDef" x="30" y="36" onmousedown="handleReset()"/>
                <g id="arrowUp" xlink:href="#dirArrow" transform="translate(30 24)" onmousedown="handlePan(0,-1)">
                  <use xlink:href="#rim" fill="#404040">
                        <set attributeName="fill" to="#808080" begin="arrowUp.mouseover" end="arrowUp.mouseout"/>
                  </use>
                  <path fill="none" stroke="white" stroke-width="1.5" d="M0,-3.0v7 M-2.5,-0.5L0,-3.0L2.5,-0.5"/>
                </g>
                <g id="arrowRight" xlink:href="#dirArrow" transform="rotate(90) translate(36 -43)" onmousedown="handlePan(1,0)">
                  <use xlink:href="#rim" fill="#404040">
                        <set attributeName="fill" to="#808080" begin="arrowRight.mouseover" end="arrowRight.mouseout"/>
                  </use>
                  <path fill="none" stroke="white" stroke-width="1.5" d="M0,-3.0v7 M-2.5,-0.5L0,-3.0L2.5,-0.5"/>
                </g>
                <g id="arrowDown" xlink:href="#dirArrow" transform="rotate(180) translate(-30 -48)" onmousedown="handlePan(0,1)">
                  <use xlink:href="#rim" fill="#404040">
                        <set attributeName="fill" to="#808080" begin="arrowDown.mouseover" end="arrowDown.mouseout"/>
                  </use>
                  <path fill="none" stroke="white" stroke-width="1.5" d="M0,-3.0v7 M-2.5,-0.5L0,-3.0L2.5,-0.5"/>
                </g>
                <g id="arrowLeft" xlink:href="#dirArrow" transform="rotate(270) translate(-36 17)" onmousedown="handlePan(-1,0)">
                  <use xlink:href="#rim" fill="#404040">
                        <set attributeName="fill" to="#808080" begin="arrowLeft.mouseover" end="arrowLeft.mouseout"/>
                  </use>
                  <path fill="none" stroke="white" stroke-width="1.5" d="M0,-3.0v7 M-2.5,-0.5L0,-3.0L2.5,-0.5"/>
                </g>
        </g>
        <svg viewBox="0 0 15 15" width="100%" height="30px" preserveAspectRatio="xMaxYMin meet">
         <g id="arrow_out" transform="scale(0.3 0.3)">
          <a xlink:href="portals_8qc_ad780f6ad3b5d53853e81e6224cf2e1b9_cgraph_org.svg" target="_base">
           <rect id="button" ry="5" rx="5" y="6" x="6" height="38" width="38"
                fill="#f2f5e9" fill-opacity="0.5" stroke="#606060" stroke-width="1.0"/>
           <path id="arrow"
             d="M 11.500037,31.436501 C 11.940474,20.09759 22.043105,11.32322 32.158766,21.979434 L 37.068811,17.246167 C 37.068811,17.246167 37.088388,32 37.088388,32 L 22.160133,31.978069 C 22.160133,31.978069 26.997745,27.140456 26.997745,27.140456 C 18.528582,18.264221 13.291696,25.230495 11.500037,31.436501 z"
             style="fill:#404040;"/>
          </a>
         </g>
        </svg>
</svg>
