<?xml version="1.0" encoding="UTF-8" standalone="no"?>
<!DOCTYPE svg PUBLIC "-//W3C//DTD SVG 1.1//EN"
 "http://www.w3.org/Graphics/SVG/1.1/DTD/svg11.dtd">
<!-- Generated by graphviz version 2.36.0 (20140111.2315)
 -->
<!-- Title: CL_ExteriorWeaponentity_Think Pages: 1 -->
<svg width="560pt" height="38pt"
 viewBox="0.00 0.00 560.00 38.00" xmlns="http://www.w3.org/2000/svg" xmlns:xlink="http://www.w3.org/1999/xlink">
<g id="graph0" class="graph" transform="scale(1 1) rotate(0) translate(4 34)">
<title>CL_ExteriorWeaponentity_Think</title>
<!-- Node1 -->
<g id="node1" class="node"><title>Node1</title>
<polygon fill="#bfbfbf" stroke="black" points="0,-0 0,-30 128,-30 128,-0 0,-0"/>
<text text-anchor="start" x="8" y="-18" font-family="Helvetica,sans-Serif" font-size="10.00">CL_ExteriorWeaponentity</text>
<text text-anchor="middle" x="64" y="-7" font-family="Helvetica,sans-Serif" font-size="10.00">_Think</text>
</g>
<!-- Node2 -->
<g id="node2" class="node"><title>Node2</title>
<g id="a_node2"><a xlink:href="../../da/db7/weaponsystem_8qh.html#aa6d337210081fd47ddca43564d7bf9c3" target="_top" xlink:title="CL_SpawnWeaponentity">
<polygon fill="none" stroke="black" points="164.5,-5.5 164.5,-24.5 289.5,-24.5 289.5,-5.5 164.5,-5.5"/>
<text text-anchor="middle" x="227" y="-12.5" font-family="Helvetica,sans-Serif" font-size="10.00">CL_SpawnWeaponentity</text>
</a>
</g>
</g>
<!-- Node1&#45;&gt;Node2 -->
<g id="edge1" class="edge"><title>Node1&#45;&gt;Node2</title>
<path fill="none" stroke="midnightblue" d="M138.305,-15C147.005,-15 155.817,-15 164.331,-15"/>
<polygon fill="midnightblue" stroke="midnightblue" points="138.169,-11.5001 128.169,-15 138.169,-18.5001 138.169,-11.5001"/>
</g>
<!-- Node3 -->
<g id="node3" class="node"><title>Node3</title>
<g id="a_node3"><a xlink:href="../../df/dd7/server_2client_8qc.html#a996803179cd9557a7b4d806d08cc74f3" target="_top" xlink:title="PutPlayerInServer">
<polygon fill="none" stroke="black" points="326,-5.5 326,-24.5 422,-24.5 422,-5.5 326,-5.5"/>
<text text-anchor="middle" x="374" y="-12.5" font-family="Helvetica,sans-Serif" font-size="10.00">PutPlayerInServer</text>
</a>
</g>
</g>
<!-- Node2&#45;&gt;Node3 -->
<g id="edge2" class="edge"><title>Node2&#45;&gt;Node3</title>
<path fill="none" stroke="midnightblue" d="M300.109,-15C308.823,-15 317.544,-15 325.769,-15"/>
<polygon fill="midnightblue" stroke="midnightblue" points="299.914,-11.5001 289.914,-15 299.914,-18.5001 299.914,-11.5001"/>
</g>
<!-- Node4 -->
<g id="node4" class="node"><title>Node4</title>
<g id="a_node4"><a xlink:href="../../df/dd7/server_2client_8qc.html#ac8cee1fb565123245189b49f1ab94951" target="_top" xlink:title="Called when a client spawns in the server. ">
<polygon fill="none" stroke="black" points="458,-5.5 458,-24.5 552,-24.5 552,-5.5 458,-5.5"/>
<text text-anchor="middle" x="505" y="-12.5" font-family="Helvetica,sans-Serif" font-size="10.00">PutClientInServer</text>
</a>
</g>
</g>
<!-- Node3&#45;&gt;Node4 -->
<g id="edge3" class="edge"><title>Node3&#45;&gt;Node4</title>
<path fill="none" stroke="midnightblue" d="M432.566,-15C441.08,-15 449.757,-15 457.994,-15"/>
<polygon fill="midnightblue" stroke="midnightblue" points="432.302,-11.5001 422.302,-15 432.302,-18.5001 432.302,-11.5001"/>
</g>
</g>
</svg>
