<?xml version="1.0" encoding="UTF-8" standalone="no"?>
<!DOCTYPE svg PUBLIC "-//W3C//DTD SVG 1.1//EN"
 "http://www.w3.org/Graphics/SVG/1.1/DTD/svg11.dtd">
<!-- Generated by graphviz version 2.36.0 (20140111.2315)
 -->
<!-- Title: CL_Weaponentity_Think Pages: 1 -->
<!--zoomable 256 -->
<svg id="main" version="1.1" xmlns="http://www.w3.org/2000/svg" xmlns:xlink="http://www.w3.org/1999/xlink" xml:space="preserve" onload="init(evt)">
<style type="text/css"><![CDATA[
.edge:hover path { stroke: red; }
.edge:hover polygon { stroke: red; fill: red; }
]]></style>
<script type="text/javascript"><![CDATA[
var edges = document.getElementsByTagName('g');
if (edges && edges.length) {
  for (var i=0;i<edges.length;i++) {
    if (edges[i].id.substr(0,4)=='edge') {
      edges[i].setAttribute('class','edge');
    }
  }
}
]]></script>
        <defs>
                <circle id="rim" cx="0" cy="0" r="7"/>
                <circle id="rim2" cx="0" cy="0" r="3.5"/>
                <g id="zoomPlus">
                        <use xlink:href="#rim" fill="#404040">
                                <set attributeName="fill" to="#808080" begin="zoomplus.mouseover" end="zoomplus.mouseout"/>
                        </use>
                        <path d="M-4,0h8M0,-4v8" fill="none" stroke="white" stroke-width="1.5" pointer-events="none"/>
                </g>
                <g id="zoomMin">
                        <use xlink:href="#rim" fill="#404040">
                                <set attributeName="fill" to="#808080" begin="zoomminus.mouseover" end="zoomminus.mouseout"/>
                        </use>
                        <path d="M-4,0h8" fill="none" stroke="white" stroke-width="1.5" pointer-events="none"/>
                </g>
                <g id="dirArrow">
                        <path fill="none" stroke="white" stroke-width="1.5" d="M0,-3.0v7 M-2.5,-0.5L0,-3.0L2.5,-0.5"/>
                </g>
               <g id="resetDef">
                       <use xlink:href="#rim2" fill="#404040">
                               <set attributeName="fill" to="#808080" begin="reset.mouseover" end="reset.mouseout"/>
                       </use>
               </g>
        </defs>

<script type="text/javascript">
var viewWidth = 544;
var viewHeight = 256;
var sectionId = 'dynsection-9';
</script>
<script xlink:href="../../svgpan.js"/>
<svg id="graph" class="graph">
<g id="viewport">
<title>CL_Weaponentity_Think</title>
<!-- Node1 -->
<g id="node1" class="node"><title>Node1</title>
<polygon fill="#bfbfbf" stroke="black" points="0,-114.5 0,-133.5 124,-133.5 124,-114.5 0,-114.5"/>
<text text-anchor="middle" x="62" y="-121.5" font-family="Helvetica,sans-Serif" font-size="10.00">CL_Weaponentity_Think</text>
</g>
<!-- Node2 -->
<g id="node2" class="node"><title>Node2</title>
<g id="a_node2"><a xlink:href="../../de/dfa/common_2weapons_2all_8qc.html#a4f6a7bf5708e48f775f9142afd9d6dc1" target="_top" xlink:title="supported formats: ">
<polygon fill="none" stroke="black" points="160.5,-114.5 160.5,-133.5 303.5,-133.5 303.5,-114.5 160.5,-114.5"/>
<text text-anchor="middle" x="232" y="-121.5" font-family="Helvetica,sans-Serif" font-size="10.00">CL_WeaponEntity_SetModel</text>
</a>
</g>
</g>
<!-- Node1&#45;&gt;Node2 -->
<g id="edge1" class="edge"><title>Node1&#45;&gt;Node2</title>
<path fill="none" stroke="midnightblue" d="M124.127,-124C132.556,-124 141.318,-124 150.036,-124"/>
<polygon fill="midnightblue" stroke="midnightblue" points="150.227,-127.5 160.227,-124 150.227,-120.5 150.227,-127.5"/>
</g>
<!-- Node3 -->
<g id="node3" class="node"><title>Node3</title>
<g id="a_node3"><a xlink:href="../../db/df4/common_2monsters_2all_8inc.html#afb8bc3000982cfa33e8babf4ee2209ce" target="_top" xlink:title="animfixfps">
<polygon fill="none" stroke="black" points="367,-228.5 367,-247.5 429,-247.5 429,-228.5 367,-228.5"/>
<text text-anchor="middle" x="398" y="-235.5" font-family="Helvetica,sans-Serif" font-size="10.00">animfixfps</text>
</a>
</g>
</g>
<!-- Node2&#45;&gt;Node3 -->
<g id="edge2" class="edge"><title>Node2&#45;&gt;Node3</title>
<path fill="none" stroke="midnightblue" d="M241.445,-133.775C258.34,-152.766 298.271,-194.891 340,-219 345.265,-222.042 351.089,-224.684 356.942,-226.95"/>
<polygon fill="midnightblue" stroke="midnightblue" points="356.135,-230.377 366.73,-230.414 358.47,-223.778 356.135,-230.377"/>
</g>
<!-- Node4 -->
<g id="node4" class="node"><title>Node4</title>
<g id="a_node4"><a xlink:href="../../da/d44/common_2util_8qc.html#a77d276d801f4e93f46fefac297900ea7" target="_top" xlink:title="compressShotOrigin">
<polygon fill="none" stroke="black" points="345.5,-190.5 345.5,-209.5 450.5,-209.5 450.5,-190.5 345.5,-190.5"/>
<text text-anchor="middle" x="398" y="-197.5" font-family="Helvetica,sans-Serif" font-size="10.00">compressShotOrigin</text>
</a>
</g>
</g>
<!-- Node2&#45;&gt;Node4 -->
<g id="edge3" class="edge"><title>Node2&#45;&gt;Node4</title>
<path fill="none" stroke="midnightblue" d="M248.898,-133.559C269.44,-145.653 306.542,-166.632 340,-181 345.032,-183.161 350.397,-185.235 355.748,-187.166"/>
<polygon fill="midnightblue" stroke="midnightblue" points="354.692,-190.504 365.287,-190.477 356.987,-183.891 354.692,-190.504"/>
</g>
<!-- Node8 -->
<g id="node8" class="node"><title>Node8</title>
<g id="a_node8"><a xlink:href="../../da/d44/common_2util_8qc.html#afe420388fd9f6c6070930c07addde6f2" target="_top" xlink:title="decompressShotOrigin">
<polygon fill="none" stroke="black" points="340,-152.5 340,-171.5 456,-171.5 456,-152.5 340,-152.5"/>
<text text-anchor="middle" x="398" y="-159.5" font-family="Helvetica,sans-Serif" font-size="10.00">decompressShotOrigin</text>
</a>
</g>
</g>
<!-- Node2&#45;&gt;Node8 -->
<g id="edge7" class="edge"><title>Node2&#45;&gt;Node8</title>
<path fill="none" stroke="midnightblue" d="M274.384,-133.589C296.123,-138.626 322.957,-144.844 345.975,-150.177"/>
<polygon fill="midnightblue" stroke="midnightblue" points="345.381,-153.632 355.913,-152.48 346.962,-146.813 345.381,-153.632"/>
</g>
<!-- Node9 -->
<g id="node9" class="node"><title>Node9</title>
<g id="a_node9"><a xlink:href="../../d4/d0c/csprogsdefs_8qc.html#a4f0b78b1785821ba47129edb68e70f9e" target="_top" xlink:title="vector">
<polygon fill="none" stroke="black" points="492,-114.5 492,-133.5 536,-133.5 536,-114.5 492,-114.5"/>
<text text-anchor="middle" x="514" y="-121.5" font-family="Helvetica,sans-Serif" font-size="10.00">vector</text>
</a>
</g>
</g>
<!-- Node2&#45;&gt;Node9 -->
<g id="edge11" class="edge"><title>Node2&#45;&gt;Node9</title>
<path fill="none" stroke="midnightblue" d="M303.656,-124C361.006,-124 439.127,-124 481.881,-124"/>
<polygon fill="midnightblue" stroke="midnightblue" points="481.955,-127.5 491.954,-124 481.954,-120.5 481.955,-127.5"/>
</g>
<!-- Node10 -->
<g id="node10" class="node"><title>Node10</title>
<g id="a_node10"><a xlink:href="../../db/d9f/state_8qh.html#a917978fc72821486ab248ab4253cf6e8" target="_top" xlink:title="STAT">
<polygon fill="none" stroke="black" points="377,-76.5 377,-95.5 419,-95.5 419,-76.5 377,-76.5"/>
<text text-anchor="middle" x="398" y="-83.5" font-family="Helvetica,sans-Serif" font-size="10.00">STAT</text>
</a>
</g>
</g>
<!-- Node2&#45;&gt;Node10 -->
<g id="edge9" class="edge"><title>Node2&#45;&gt;Node10</title>
<path fill="none" stroke="midnightblue" d="M274.384,-114.411C303.074,-107.763 340.637,-99.0597 366.59,-93.0463"/>
<polygon fill="midnightblue" stroke="midnightblue" points="367.65,-96.3933 376.602,-90.7263 366.07,-89.574 367.65,-96.3933"/>
</g>
<!-- Node11 -->
<g id="node11" class="node"><title>Node11</title>
<g id="a_node11"><a xlink:href="../../d8/de2/menudefs_8qc.html#ad76dc2b2895cd23f21e008f12a686158" target="_top" xlink:title="strcat">
<polygon fill="none" stroke="black" points="493.5,-19.5 493.5,-38.5 534.5,-38.5 534.5,-19.5 493.5,-19.5"/>
<text text-anchor="middle" x="514" y="-26.5" font-family="Helvetica,sans-Serif" font-size="10.00">strcat</text>
</a>
</g>
</g>
<!-- Node2&#45;&gt;Node11 -->
<g id="edge10" class="edge"><title>Node2&#45;&gt;Node11</title>
<path fill="none" stroke="midnightblue" d="M247.976,-114.315C268.126,-101.691 305.436,-79.7286 340,-67 388.641,-49.0877 448.231,-38.289 483.264,-33.002"/>
<polygon fill="midnightblue" stroke="midnightblue" points="483.918,-36.4436 493.308,-31.5363 482.908,-29.517 483.918,-36.4436"/>
</g>
<!-- Node12 -->
<g id="node12" class="node"><title>Node12</title>
<g id="a_node12"><a xlink:href="../../de/dfa/common_2weapons_2all_8qc.html#a259e403c09376539bec67dda6a1164bc" target="_top" xlink:title="W_Model">
<polygon fill="none" stroke="black" points="369,-0.5 369,-19.5 427,-19.5 427,-0.5 369,-0.5"/>
<text text-anchor="middle" x="398" y="-7.5" font-family="Helvetica,sans-Serif" font-size="10.00">W_Model</text>
</a>
</g>
</g>
<!-- Node2&#45;&gt;Node12 -->
<g id="edge12" class="edge"><title>Node2&#45;&gt;Node12</title>
<path fill="none" stroke="midnightblue" d="M242.264,-114.497C259.933,-96.7837 300.241,-58.3174 340,-34 346.36,-30.1099 353.464,-26.5644 360.44,-23.4627"/>
<polygon fill="midnightblue" stroke="midnightblue" points="361.938,-26.6295 369.791,-19.5176 359.217,-20.18 361.938,-26.6295"/>
</g>
<!-- Node5 -->
<g id="node5" class="node"><title>Node5</title>
<g id="a_node5"><a xlink:href="../../d8/de2/menudefs_8qc.html#a3846d117b360dccec575f96988cf3bb7" target="_top" xlink:title="bound">
<polygon fill="none" stroke="black" points="492.5,-228.5 492.5,-247.5 535.5,-247.5 535.5,-228.5 492.5,-228.5"/>
<text text-anchor="middle" x="514" y="-235.5" font-family="Helvetica,sans-Serif" font-size="10.00">bound</text>
</a>
</g>
</g>
<!-- Node4&#45;&gt;Node5 -->
<g id="edge4" class="edge"><title>Node4&#45;&gt;Node5</title>
<path fill="none" stroke="midnightblue" d="M427.767,-209.589C444.372,-215.124 465.255,-222.085 482.193,-227.731"/>
<polygon fill="midnightblue" stroke="midnightblue" points="481.563,-231.21 492.157,-231.052 483.777,-224.57 481.563,-231.21"/>
</g>
<!-- Node6 -->
<g id="node6" class="node"><title>Node6</title>
<g id="a_node6"><a xlink:href="../../d8/de2/menudefs_8qc.html#ab8b85fda1f4e4157ff583a91373b2f71" target="_top" xlink:title="rint">
<polygon fill="none" stroke="black" points="499,-190.5 499,-209.5 529,-209.5 529,-190.5 499,-190.5"/>
<text text-anchor="middle" x="514" y="-197.5" font-family="Helvetica,sans-Serif" font-size="10.00">rint</text>
</a>
</g>
</g>
<!-- Node4&#45;&gt;Node6 -->
<g id="edge5" class="edge"><title>Node4&#45;&gt;Node6</title>
<path fill="none" stroke="midnightblue" d="M450.663,-200C463.918,-200 477.562,-200 488.693,-200"/>
<polygon fill="midnightblue" stroke="midnightblue" points="488.878,-203.5 498.878,-200 488.878,-196.5 488.878,-203.5"/>
</g>
<!-- Node7 -->
<g id="node7" class="node"><title>Node7</title>
<g id="a_node7"><a xlink:href="../../d8/de2/menudefs_8qc.html#ab0df318f2dece7f798ff4061cd67f9d2" target="_top" xlink:title="vtos">
<polygon fill="none" stroke="black" points="496.5,-152.5 496.5,-171.5 531.5,-171.5 531.5,-152.5 496.5,-152.5"/>
<text text-anchor="middle" x="514" y="-159.5" font-family="Helvetica,sans-Serif" font-size="10.00">vtos</text>
</a>
</g>
</g>
<!-- Node4&#45;&gt;Node7 -->
<g id="edge6" class="edge"><title>Node4&#45;&gt;Node7</title>
<path fill="none" stroke="midnightblue" d="M427.767,-190.411C445.852,-184.383 469.011,-176.663 486.623,-170.792"/>
<polygon fill="midnightblue" stroke="midnightblue" points="487.891,-174.059 496.271,-167.576 485.677,-167.418 487.891,-174.059"/>
</g>
<!-- Node8&#45;&gt;Node9 -->
<g id="edge8" class="edge"><title>Node8&#45;&gt;Node9</title>
<path fill="none" stroke="midnightblue" d="M427.767,-152.411C444.263,-146.912 464.98,-140.007 481.859,-134.38"/>
<polygon fill="midnightblue" stroke="midnightblue" points="483.42,-137.55 491.8,-131.067 481.206,-130.909 483.42,-137.55"/>
</g>
<!-- Node12&#45;&gt;Node11 -->
<g id="edge13" class="edge"><title>Node12&#45;&gt;Node11</title>
<path fill="none" stroke="midnightblue" d="M427.18,-14.6966C444.216,-17.536 465.913,-21.1521 483.228,-24.038"/>
<polygon fill="midnightblue" stroke="midnightblue" points="482.923,-27.5353 493.362,-25.727 484.074,-20.6306 482.923,-27.5353"/>
</g>
</g>
</svg>
        <g id="navigator" transform="translate(0 0)" fill="#404254">
                <rect fill="#f2f5e9" fill-opacity="0.5" stroke="#606060" stroke-width=".5" x="0" y="0" width="60" height="60"/>
                <use id="zoomplus" xlink:href="#zoomPlus" x="17" y="9" onmousedown="handleZoom(evt,'in')"/>
                <use id="zoomminus" xlink:href="#zoomMin" x="42" y="9" onmousedown="handleZoom(evt,'out')"/>
                <use id="reset" xlink:href="#resetDef" x="30" y="36" onmousedown="handleReset()"/>
                <g id="arrowUp" xlink:href="#dirArrow" transform="translate(30 24)" onmousedown="handlePan(0,-1)">
                  <use xlink:href="#rim" fill="#404040">
                        <set attributeName="fill" to="#808080" begin="arrowUp.mouseover" end="arrowUp.mouseout"/>
                  </use>
                  <path fill="none" stroke="white" stroke-width="1.5" d="M0,-3.0v7 M-2.5,-0.5L0,-3.0L2.5,-0.5"/>
                </g>
                <g id="arrowRight" xlink:href="#dirArrow" transform="rotate(90) translate(36 -43)" onmousedown="handlePan(1,0)">
                  <use xlink:href="#rim" fill="#404040">
                        <set attributeName="fill" to="#808080" begin="arrowRight.mouseover" end="arrowRight.mouseout"/>
                  </use>
                  <path fill="none" stroke="white" stroke-width="1.5" d="M0,-3.0v7 M-2.5,-0.5L0,-3.0L2.5,-0.5"/>
                </g>
                <g id="arrowDown" xlink:href="#dirArrow" transform="rotate(180) translate(-30 -48)" onmousedown="handlePan(0,1)">
                  <use xlink:href="#rim" fill="#404040">
                        <set attributeName="fill" to="#808080" begin="arrowDown.mouseover" end="arrowDown.mouseout"/>
                  </use>
                  <path fill="none" stroke="white" stroke-width="1.5" d="M0,-3.0v7 M-2.5,-0.5L0,-3.0L2.5,-0.5"/>
                </g>
                <g id="arrowLeft" xlink:href="#dirArrow" transform="rotate(270) translate(-36 17)" onmousedown="handlePan(-1,0)">
                  <use xlink:href="#rim" fill="#404040">
                        <set attributeName="fill" to="#808080" begin="arrowLeft.mouseover" end="arrowLeft.mouseout"/>
                  </use>
                  <path fill="none" stroke="white" stroke-width="1.5" d="M0,-3.0v7 M-2.5,-0.5L0,-3.0L2.5,-0.5"/>
                </g>
        </g>
        <svg viewBox="0 0 15 15" width="100%" height="30px" preserveAspectRatio="xMaxYMin meet">
         <g id="arrow_out" transform="scale(0.3 0.3)">
          <a xlink:href="weaponsystem_8qc_a551cc3e1b433769d803fe4d2f6607d3b_cgraph_org.svg" target="_base">
           <rect id="button" ry="5" rx="5" y="6" x="6" height="38" width="38"
                fill="#f2f5e9" fill-opacity="0.5" stroke="#606060" stroke-width="1.0"/>
           <path id="arrow"
             d="M 11.500037,31.436501 C 11.940474,20.09759 22.043105,11.32322 32.158766,21.979434 L 37.068811,17.246167 C 37.068811,17.246167 37.088388,32 37.088388,32 L 22.160133,31.978069 C 22.160133,31.978069 26.997745,27.140456 26.997745,27.140456 C 18.528582,18.264221 13.291696,25.230495 11.500037,31.436501 z"
             style="fill:#404040;"/>
          </a>
         </g>
        </svg>
</svg>
