<?xml version="1.0" encoding="UTF-8" standalone="no"?>
<!DOCTYPE svg PUBLIC "-//W3C//DTD SVG 1.1//EN"
 "http://www.w3.org/Graphics/SVG/1.1/DTD/svg11.dtd">
<!-- Generated by graphviz version 2.38.0 (20140413.2041)
 -->
<!-- Title: weapon_thinkf Pages: 1 -->
<svg width="331pt" height="160pt"
 viewBox="0.00 0.00 331.00 160.00" xmlns="http://www.w3.org/2000/svg" xmlns:xlink="http://www.w3.org/1999/xlink">
<g id="graph0" class="graph" transform="scale(1 1) rotate(0) translate(4 156)">
<title>weapon_thinkf</title>
<!-- Node1 -->
<g id="node1" class="node"><title>Node1</title>
<polygon fill="#bfbfbf" stroke="black" points="0,-38.5 0,-57.5 85,-57.5 85,-38.5 0,-38.5"/>
<text text-anchor="middle" x="42.5" y="-45.5" font-family="Helvetica,sans-Serif" font-size="10.00">weapon_thinkf</text>
</g>
<!-- Node2 -->
<g id="node2" class="node"><title>Node2</title>
<g id="a_node2"><a xlink:href="../../d0/d51/animdecide_8qc.html#ada84f7ee6c4814b1cd8d979586eb61d1" target="_top" xlink:title="animdecide_setaction">
<polygon fill="none" stroke="black" points="121,-132.5 121,-151.5 243,-151.5 243,-132.5 121,-132.5"/>
<text text-anchor="middle" x="182" y="-139.5" font-family="Helvetica,sans-Serif" font-size="10.00">animdecide_setaction</text>
</a>
</g>
</g>
<!-- Node1&#45;&gt;Node2 -->
<g id="edge1" class="edge"><title>Node1&#45;&gt;Node2</title>
<path fill="none" stroke="midnightblue" d="M52.1644,-57.7889C65.6412,-72.526 92.9995,-100.54 121,-118 127.349,-121.959 134.461,-125.483 141.509,-128.532"/>
<polygon fill="midnightblue" stroke="midnightblue" points="140.419,-131.867 151.001,-132.389 143.055,-125.382 140.419,-131.867"/>
</g>
<!-- Node3 -->
<g id="node3" class="node"><title>Node3</title>
<g id="a_node3"><a xlink:href="../../d4/d0c/csprogsdefs_8qc.html#acbb54a239d76062465dccbc6a6c6e464" target="_top" xlink:title="entity">
<polygon fill="none" stroke="black" points="279,-66.5 279,-85.5 323,-85.5 323,-66.5 279,-66.5"/>
<text text-anchor="middle" x="301" y="-73.5" font-family="Helvetica,sans-Serif" font-size="10.00">entity</text>
</a>
</g>
</g>
<!-- Node1&#45;&gt;Node3 -->
<g id="edge2" class="edge"><title>Node1&#45;&gt;Node3</title>
<path fill="none" stroke="midnightblue" d="M58.4897,-57.6555C73.5826,-66.759 97.8792,-79.7639 121,-85 171.822,-96.5095 232.753,-89.1091 268.818,-82.614"/>
<polygon fill="midnightblue" stroke="midnightblue" points="269.563,-86.0352 278.738,-80.7362 268.261,-79.1574 269.563,-86.0352"/>
</g>
<!-- Node4 -->
<g id="node4" class="node"><title>Node4</title>
<g id="a_node4"><a xlink:href="../../d5/de0/weaponsystem_8qc.html#a66ca3d9dc1f3bc5a039abad59d986d40" target="_top" xlink:title="w_ready">
<polygon fill="none" stroke="black" points="154,-38.5 154,-57.5 210,-57.5 210,-38.5 154,-38.5"/>
<text text-anchor="middle" x="182" y="-45.5" font-family="Helvetica,sans-Serif" font-size="10.00">w_ready</text>
</a>
</g>
</g>
<!-- Node1&#45;&gt;Node4 -->
<g id="edge3" class="edge"><title>Node1&#45;&gt;Node4</title>
<path fill="none" stroke="midnightblue" d="M85.1277,-41.7404C103.761,-41.0314 125.559,-41.0912 143.659,-41.9197"/>
<polygon fill="midnightblue" stroke="midnightblue" points="143.654,-45.425 153.836,-42.4964 144.05,-38.4362 143.654,-45.425"/>
</g>
<!-- Node5 -->
<g id="node5" class="node"><title>Node5</title>
<g id="a_node5"><a xlink:href="../../d5/de0/weaponsystem_8qc.html#aa9037cea3d518282ee50064ec34e3c4a" target="_top" xlink:title="W_WeaponRateFactor">
<polygon fill="none" stroke="black" points="122.5,-0.5 122.5,-19.5 241.5,-19.5 241.5,-0.5 122.5,-0.5"/>
<text text-anchor="middle" x="182" y="-7.5" font-family="Helvetica,sans-Serif" font-size="10.00">W_WeaponRateFactor</text>
</a>
</g>
</g>
<!-- Node1&#45;&gt;Node5 -->
<g id="edge7" class="edge"><title>Node1&#45;&gt;Node5</title>
<path fill="none" stroke="midnightblue" d="M78.1971,-38.411C95.8656,-33.5281 117.549,-27.5357 136.439,-22.315"/>
<polygon fill="midnightblue" stroke="midnightblue" points="137.608,-25.6233 146.314,-19.5859 135.743,-18.8762 137.608,-25.6233"/>
</g>
<!-- Node4&#45;&gt;Node1 -->
<g id="edge6" class="edge"><title>Node4&#45;&gt;Node1</title>
<path fill="none" stroke="midnightblue" d="M153.836,-53.5036C137.147,-54.655 115.221,-55.0087 95.3147,-54.5646"/>
<polygon fill="midnightblue" stroke="midnightblue" points="95.228,-51.0605 85.1277,-54.2596 95.0184,-58.0574 95.228,-51.0605"/>
</g>
<!-- Node4&#45;&gt;Node3 -->
<g id="edge4" class="edge"><title>Node4&#45;&gt;Node3</title>
<path fill="none" stroke="midnightblue" d="M210.136,-54.4941C227.711,-58.7002 250.649,-64.1895 268.951,-68.5694"/>
<polygon fill="midnightblue" stroke="midnightblue" points="268.306,-72.0139 278.846,-70.9375 269.935,-65.2061 268.306,-72.0139"/>
</g>
<!-- Node4&#45;&gt;Node4 -->
<g id="edge5" class="edge"><title>Node4&#45;&gt;Node4</title>
<path fill="none" stroke="midnightblue" d="M163.813,-57.7571C154.965,-66.5653 161.027,-76 182,-76 195.436,-76 202.752,-72.128 203.949,-67.0292"/>
<polygon fill="midnightblue" stroke="midnightblue" points="207.19,-65.7074 200.187,-57.7571 200.704,-68.3393 207.19,-65.7074"/>
</g>
</g>
</svg>
