<?xml version="1.0" encoding="UTF-8" standalone="no"?>
<!DOCTYPE svg PUBLIC "-//W3C//DTD SVG 1.1//EN"
 "http://www.w3.org/Graphics/SVG/1.1/DTD/svg11.dtd">
<!-- Generated by graphviz version 2.38.0 (20140413.2041)
 -->
<!-- Title: W_Reload Pages: 1 -->
<svg width="168pt" height="46pt"
 viewBox="0.00 0.00 168.00 46.00" xmlns="http://www.w3.org/2000/svg" xmlns:xlink="http://www.w3.org/1999/xlink">
<g id="graph0" class="graph" transform="scale(1 1) rotate(0) translate(4 42)">
<title>W_Reload</title>
<!-- Node1 -->
<g id="node1" class="node"><title>Node1</title>
<polygon fill="#bfbfbf" stroke="black" points="0,-0.5 0,-19.5 62,-19.5 62,-0.5 0,-0.5"/>
<text text-anchor="middle" x="31" y="-7.5" font-family="Helvetica,sans-Serif" font-size="10.00">W_Reload</text>
</g>
<!-- Node2 -->
<g id="node2" class="node"><title>Node2</title>
<g id="a_node2"><a xlink:href="../../da/db7/weaponsystem_8qh.html#a20be965c42ea2fe958748c6971f93a78" target="_top" xlink:title="W_Reload">
<polygon fill="none" stroke="black" points="98,-0.5 98,-19.5 160,-19.5 160,-0.5 98,-0.5"/>
<text text-anchor="middle" x="129" y="-7.5" font-family="Helvetica,sans-Serif" font-size="10.00">W_Reload</text>
</a>
</g>
</g>
<!-- Node1&#45;&gt;Node2 -->
<g id="edge1" class="edge"><title>Node1&#45;&gt;Node2</title>
<path fill="none" stroke="midnightblue" d="M72.3497,-10C80.9425,-10 89.871,-10 97.9952,-10"/>
<polygon fill="midnightblue" stroke="midnightblue" points="72.1116,-6.5001 62.1116,-10 72.1116,-13.5001 72.1116,-6.5001"/>
</g>
<!-- Node2&#45;&gt;Node2 -->
<g id="edge2" class="edge"><title>Node2&#45;&gt;Node2</title>
<path fill="none" stroke="midnightblue" d="M110.853,-29.4C112.065,-34.3146 118.114,-38 129,-38 146.418,-38 151.453,-28.5653 144.105,-19.7571"/>
<polygon fill="midnightblue" stroke="midnightblue" points="114.224,-30.3468 113.895,-19.7571 107.548,-28.2404 114.224,-30.3468"/>
</g>
</g>
</svg>
