<?xml version="1.0" encoding="UTF-8" standalone="no"?>
<!DOCTYPE svg PUBLIC "-//W3C//DTD SVG 1.1//EN"
 "http://www.w3.org/Graphics/SVG/1.1/DTD/svg11.dtd">
<!-- Generated by graphviz version 2.40.1 (20161225.0304)
 -->
<!-- Title: weapon_prepareattack_checkammo Pages: 1 -->
<svg width="563pt" height="39pt"
 viewBox="0.00 0.00 563.00 39.00" xmlns="http://www.w3.org/2000/svg" xmlns:xlink="http://www.w3.org/1999/xlink">
<g id="graph0" class="graph" transform="scale(1 1) rotate(0) translate(4 35)">
<title>weapon_prepareattack_checkammo</title>
<!-- Node353 -->
<g id="node1" class="node">
<title>Node353</title>
<polygon fill="#bfbfbf" stroke="#000000" points="0,-.5 0,-30.5 128,-30.5 128,-.5 0,-.5"/>
<text text-anchor="start" x="8" y="-18.5" font-family="Helvetica,sans-Serif" font-size="10.00" fill="#000000">weapon_prepareattack</text>
<text text-anchor="middle" x="64" y="-7.5" font-family="Helvetica,sans-Serif" font-size="10.00" fill="#000000">_checkammo</text>
</g>
<!-- Node354 -->
<g id="node2" class="node">
<title>Node354</title>
<g id="a_node2"><a xlink:href="../../d2/d62/selection_8qc.html#ac84b5920c2121ae19b3e269c60244bfd" target="_top" xlink:title="W_SwitchToOtherWeapon">
<polygon fill="none" stroke="#000000" points="164,-6 164,-25 304,-25 304,-6 164,-6"/>
<text text-anchor="middle" x="234" y="-13" font-family="Helvetica,sans-Serif" font-size="10.00" fill="#000000">W_SwitchToOtherWeapon</text>
</a>
</g>
</g>
<!-- Node353&#45;&gt;Node354 -->
<g id="edge1" class="edge">
<title>Node353&#45;&gt;Node354</title>
<path fill="none" stroke="#191970" d="M128.2697,-15.5C136.6497,-15.5 145.316,-15.5 153.915,-15.5"/>
<polygon fill="#191970" stroke="#191970" points="153.9575,-19.0001 163.9574,-15.5 153.9574,-12.0001 153.9575,-19.0001"/>
</g>
<!-- Node355 -->
<g id="node3" class="node">
<title>Node355</title>
<g id="a_node3"><a xlink:href="../../d2/d62/selection_8qc.html#a26a298ee4ff7a3e0706b8892030ecf1a" target="_top" xlink:title="W_SwitchWeapon_Force">
<polygon fill="none" stroke="#000000" points="340,-6 340,-25 474,-25 474,-6 340,-6"/>
<text text-anchor="middle" x="407" y="-13" font-family="Helvetica,sans-Serif" font-size="10.00" fill="#000000">W_SwitchWeapon_Force</text>
</a>
</g>
</g>
<!-- Node354&#45;&gt;Node355 -->
<g id="edge2" class="edge">
<title>Node354&#45;&gt;Node355</title>
<path fill="none" stroke="#191970" d="M304.3657,-15.5C312.679,-15.5 321.1983,-15.5 329.6019,-15.5"/>
<polygon fill="#191970" stroke="#191970" points="329.7732,-19.0001 339.7732,-15.5 329.7731,-12.0001 329.7732,-19.0001"/>
</g>
<!-- Node356 -->
<g id="node4" class="node">
<title>Node356</title>
<g id="a_node4"><a xlink:href="../../d4/d0c/csprogsdefs_8qc.html#acbb54a239d76062465dccbc6a6c6e464" target="_top" xlink:title="entity">
<polygon fill="none" stroke="#000000" points="510,-6 510,-25 555,-25 555,-6 510,-6"/>
<text text-anchor="middle" x="532.5" y="-13" font-family="Helvetica,sans-Serif" font-size="10.00" fill="#000000">entity</text>
</a>
</g>
</g>
<!-- Node355&#45;&gt;Node356 -->
<g id="edge3" class="edge">
<title>Node355&#45;&gt;Node356</title>
<path fill="none" stroke="#191970" d="M474.1589,-15.5C482.9735,-15.5 491.6715,-15.5 499.5526,-15.5"/>
<polygon fill="#191970" stroke="#191970" points="499.7275,-19.0001 509.7274,-15.5 499.7274,-12.0001 499.7275,-19.0001"/>
</g>
</g>
</svg>
