<?xml version="1.0" encoding="UTF-8" standalone="no"?>
<!DOCTYPE svg PUBLIC "-//W3C//DTD SVG 1.1//EN"
 "http://www.w3.org/Graphics/SVG/1.1/DTD/svg11.dtd">
<!-- Generated by graphviz version 2.36.0 (20140111.2315)
 -->
<!-- Title: W_WeaponSpeedFactor Pages: 1 -->
<svg width="598pt" height="115pt"
 viewBox="0.00 0.00 598.00 115.00" xmlns="http://www.w3.org/2000/svg" xmlns:xlink="http://www.w3.org/1999/xlink">
<g id="graph0" class="graph" transform="scale(1 1) rotate(0) translate(4 111)">
<title>W_WeaponSpeedFactor</title>
<!-- Node1 -->
<g id="node1" class="node"><title>Node1</title>
<polygon fill="#bfbfbf" stroke="black" points="0.5,-68.5 0.5,-87.5 123.5,-87.5 123.5,-68.5 0.5,-68.5"/>
<text text-anchor="middle" x="62" y="-75.5" font-family="Helvetica,sans-Serif" font-size="10.00">W_WeaponSpeedFactor</text>
</g>
<!-- Node2 -->
<g id="node2" class="node"><title>Node2</title>
<g id="a_node2"><a xlink:href="../../d3/d5a/aim_8qh.html#ae876c215515375799091388af5fc15ae" target="_top" xlink:title="bot_aim">
<polygon fill="none" stroke="black" points="209.5,-87.5 209.5,-106.5 260.5,-106.5 260.5,-87.5 209.5,-87.5"/>
<text text-anchor="middle" x="235" y="-94.5" font-family="Helvetica,sans-Serif" font-size="10.00">bot_aim</text>
</a>
</g>
</g>
<!-- Node1&#45;&gt;Node2 -->
<g id="edge1" class="edge"><title>Node1&#45;&gt;Node2</title>
<path fill="none" stroke="midnightblue" d="M133.894,-85.8771C160.62,-88.8467 189.308,-92.0343 209.092,-94.2325"/>
<polygon fill="midnightblue" stroke="midnightblue" points="134.095,-82.378 123.77,-84.7522 133.322,-89.3352 134.095,-82.378"/>
</g>
<!-- Node3 -->
<g id="node3" class="node"><title>Node3</title>
<g id="a_node3"><a xlink:href="../../d4/d3f/tracing_8qh.html#a01fdafeeb02668e5b55cce3baccf9d01" target="_top" xlink:title="W_CalculateProjectileVelocity">
<polygon fill="none" stroke="black" points="160.5,-49.5 160.5,-68.5 309.5,-68.5 309.5,-49.5 160.5,-49.5"/>
<text text-anchor="middle" x="235" y="-56.5" font-family="Helvetica,sans-Serif" font-size="10.00">W_CalculateProjectileVelocity</text>
</a>
</g>
</g>
<!-- Node1&#45;&gt;Node3 -->
<g id="edge2" class="edge"><title>Node1&#45;&gt;Node3</title>
<path fill="none" stroke="midnightblue" d="M133.873,-70.1252C142.581,-69.1577 151.497,-68.167 160.246,-67.1949"/>
<polygon fill="midnightblue" stroke="midnightblue" points="133.322,-66.6648 123.77,-71.2478 134.095,-73.622 133.322,-66.6648"/>
</g>
<!-- Node4 -->
<g id="node4" class="node"><title>Node4</title>
<g id="a_node4"><a xlink:href="../../d4/d53/server_2impulse_8qc.html#a4c563bf06c68b4282ae4d7bf0d8d4fb8" target="_top" xlink:title="IMPULSE">
<polygon fill="none" stroke="black" points="370.5,-87.5 370.5,-106.5 431.5,-106.5 431.5,-87.5 370.5,-87.5"/>
<text text-anchor="middle" x="401" y="-94.5" font-family="Helvetica,sans-Serif" font-size="10.00">IMPULSE</text>
</a>
</g>
</g>
<!-- Node3&#45;&gt;Node4 -->
<g id="edge3" class="edge"><title>Node3&#45;&gt;Node4</title>
<path fill="none" stroke="midnightblue" d="M287.177,-70.8581C314.488,-77.1863 347.139,-84.7516 370.271,-90.1116"/>
<polygon fill="midnightblue" stroke="midnightblue" points="287.916,-67.4367 277.384,-68.589 286.336,-74.256 287.916,-67.4367"/>
</g>
<!-- Node5 -->
<g id="node5" class="node"><title>Node5</title>
<g id="a_node5"><a xlink:href="../../de/d4e/sv__weapon_8qc.html#a6ebbc410dd700d781fac2901f86ca558" target="_top" xlink:title="W_Nexball_Attack">
<polygon fill="none" stroke="black" points="352,-49.5 352,-68.5 450,-68.5 450,-49.5 352,-49.5"/>
<text text-anchor="middle" x="401" y="-56.5" font-family="Helvetica,sans-Serif" font-size="10.00">W_Nexball_Attack</text>
</a>
</g>
</g>
<!-- Node3&#45;&gt;Node5 -->
<g id="edge4" class="edge"><title>Node3&#45;&gt;Node5</title>
<path fill="none" stroke="midnightblue" d="M319.919,-59C330.901,-59 341.836,-59 351.937,-59"/>
<polygon fill="midnightblue" stroke="midnightblue" points="319.844,-55.5001 309.844,-59 319.844,-62.5001 319.844,-55.5001"/>
</g>
<!-- Node6 -->
<g id="node6" class="node"><title>Node6</title>
<g id="a_node6"><a xlink:href="../../d4/d3f/tracing_8qh.html#a55f8f2b1828413bfb123a5fcb61b9f8e" target="_top" xlink:title="W_SetupProjVelocity\l_Explicit">
<polygon fill="none" stroke="black" points="346,-0 346,-30 456,-30 456,-0 346,-0"/>
<text text-anchor="start" x="354" y="-18" font-family="Helvetica,sans-Serif" font-size="10.00">W_SetupProjVelocity</text>
<text text-anchor="middle" x="401" y="-7" font-family="Helvetica,sans-Serif" font-size="10.00">_Explicit</text>
</a>
</g>
</g>
<!-- Node3&#45;&gt;Node6 -->
<g id="edge5" class="edge"><title>Node3&#45;&gt;Node6</title>
<path fill="none" stroke="midnightblue" d="M281.354,-46.8319C301.302,-41.4799 324.893,-35.1505 345.764,-29.5511"/>
<polygon fill="midnightblue" stroke="midnightblue" points="280.337,-43.4808 271.586,-49.4527 282.151,-50.2417 280.337,-43.4808"/>
</g>
<!-- Node7 -->
<g id="node7" class="node"><title>Node7</title>
<g id="a_node7"><a xlink:href="../../d7/de2/g__hook_8qc.html#ae2567f613b4799b5612e9c755231e62f" target="_top" xlink:title="FireGrapplingHook">
<polygon fill="none" stroke="black" points="492,-5.5 492,-24.5 590,-24.5 590,-5.5 492,-5.5"/>
<text text-anchor="middle" x="541" y="-12.5" font-family="Helvetica,sans-Serif" font-size="10.00">FireGrapplingHook</text>
</a>
</g>
</g>
<!-- Node6&#45;&gt;Node7 -->
<g id="edge6" class="edge"><title>Node6&#45;&gt;Node7</title>
<path fill="none" stroke="midnightblue" d="M466.196,-15C474.824,-15 483.554,-15 491.84,-15"/>
<polygon fill="midnightblue" stroke="midnightblue" points="466.145,-11.5001 456.145,-15 466.145,-18.5001 466.145,-11.5001"/>
</g>
</g>
</svg>
