<?xml version="1.0" encoding="UTF-8" standalone="no"?>
<!DOCTYPE svg PUBLIC "-//W3C//DTD SVG 1.1//EN"
 "http://www.w3.org/Graphics/SVG/1.1/DTD/svg11.dtd">
<!-- Generated by graphviz version 2.36.0 (20140111.2315)
 -->
<!-- Title: weapon_prepareattack Pages: 1 -->
<svg width="844pt" height="283pt"
 viewBox="0.00 0.00 844.00 283.39" xmlns="http://www.w3.org/2000/svg" xmlns:xlink="http://www.w3.org/1999/xlink">
<g id="graph0" class="graph" transform="scale(1 1) rotate(0) translate(4 279.392)">
<title>weapon_prepareattack</title>
<!-- Node1 -->
<g id="node1" class="node"><title>Node1</title>
<polygon fill="#bfbfbf" stroke="black" points="0.5,-114.5 0.5,-133.5 115.5,-133.5 115.5,-114.5 0.5,-114.5"/>
<text text-anchor="middle" x="58" y="-121.5" font-family="Helvetica,sans-Serif" font-size="10.00">weapon_prepareattack</text>
</g>
<!-- Node2 -->
<g id="node2" class="node"><title>Node2</title>
<g id="a_node2"><a xlink:href="../../d5/de0/weaponsystem_8qc.html#ab2f890a6e9e47bd09060607fa6ea4add" target="_top" xlink:title="weapon_prepareattack\l_check">
<polygon fill="none" stroke="black" points="160.5,-147 160.5,-177 275.5,-177 275.5,-147 160.5,-147"/>
<text text-anchor="start" x="168.5" y="-165" font-family="Helvetica,sans-Serif" font-size="10.00">weapon_prepareattack</text>
<text text-anchor="middle" x="218" y="-154" font-family="Helvetica,sans-Serif" font-size="10.00">_check</text>
</a>
</g>
</g>
<!-- Node1&#45;&gt;Node2 -->
<g id="edge1" class="edge"><title>Node1&#45;&gt;Node2</title>
<path fill="none" stroke="midnightblue" d="M98.8701,-133.589C114.46,-137.338 132.769,-141.742 150.257,-145.948"/>
<polygon fill="midnightblue" stroke="midnightblue" points="149.891,-149.46 160.433,-148.395 151.528,-142.654 149.891,-149.46"/>
</g>
<!-- Node10 -->
<g id="node10" class="node"><title>Node10</title>
<g id="a_node10"><a xlink:href="../../d5/de0/weaponsystem_8qc.html#a8333b89e537957bfd5529a40b6c3a19d" target="_top" xlink:title="weapon_prepareattack_do">
<polygon fill="none" stroke="black" points="152.5,-76.5 152.5,-95.5 283.5,-95.5 283.5,-76.5 152.5,-76.5"/>
<text text-anchor="middle" x="218" y="-83.5" font-family="Helvetica,sans-Serif" font-size="10.00">weapon_prepareattack_do</text>
</a>
</g>
</g>
<!-- Node1&#45;&gt;Node10 -->
<g id="edge13" class="edge"><title>Node1&#45;&gt;Node10</title>
<path fill="none" stroke="midnightblue" d="M98.8701,-114.411C119.72,-109.396 145.435,-103.212 167.543,-97.8947"/>
<polygon fill="midnightblue" stroke="midnightblue" points="168.512,-101.261 177.417,-95.5201 166.875,-94.4555 168.512,-101.261"/>
</g>
<!-- Node3 -->
<g id="node3" class="node"><title>Node3</title>
<g id="a_node3"><a xlink:href="../../d5/de0/weaponsystem_8qc.html#ab1051ecc5d2a6cf50ed74473d4d5d7d5" target="_top" xlink:title="weapon_prepareattack\l_checkammo">
<polygon fill="none" stroke="black" points="320.5,-191 320.5,-221 435.5,-221 435.5,-191 320.5,-191"/>
<text text-anchor="start" x="328.5" y="-209" font-family="Helvetica,sans-Serif" font-size="10.00">weapon_prepareattack</text>
<text text-anchor="middle" x="378" y="-198" font-family="Helvetica,sans-Serif" font-size="10.00">_checkammo</text>
</a>
</g>
</g>
<!-- Node2&#45;&gt;Node3 -->
<g id="edge2" class="edge"><title>Node2&#45;&gt;Node3</title>
<path fill="none" stroke="midnightblue" d="M272.933,-177.019C285.953,-180.645 299.987,-184.553 313.405,-188.29"/>
<polygon fill="midnightblue" stroke="midnightblue" points="312.47,-191.663 323.042,-190.974 314.348,-184.919 312.47,-191.663"/>
</g>
<!-- Node4 -->
<g id="node4" class="node"><title>Node4</title>
<g id="a_node4"><a xlink:href="../../d5/df2/common_2util_8qh.html#ac5ad73cc4800e309d3b5a9147d1ce43f" target="_top" xlink:title="entity">
<polygon fill="none" stroke="black" points="518.5,-120.5 518.5,-139.5 559.5,-139.5 559.5,-120.5 518.5,-120.5"/>
<text text-anchor="middle" x="539" y="-127.5" font-family="Helvetica,sans-Serif" font-size="10.00">entity</text>
</a>
</g>
</g>
<!-- Node2&#45;&gt;Node4 -->
<g id="edge12" class="edge"><title>Node2&#45;&gt;Node4</title>
<path fill="none" stroke="midnightblue" d="M275.715,-157.65C319.532,-154.14 381.666,-148.839 436,-143 460.486,-140.369 488.202,-136.798 508.556,-134.065"/>
<polygon fill="midnightblue" stroke="midnightblue" points="509.033,-137.532 518.473,-132.721 508.093,-130.596 509.033,-137.532"/>
</g>
<!-- Node6 -->
<g id="node6" class="node"><title>Node6</title>
<g id="a_node6"><a xlink:href="../../db/d9f/state_8qh.html#a02ebe47b47f40c32e29c0062de888b7f" target="_top" xlink:title="PS">
<polygon fill="none" stroke="black" points="806,-177.5 806,-196.5 836,-196.5 836,-177.5 806,-177.5"/>
<text text-anchor="middle" x="821" y="-184.5" font-family="Helvetica,sans-Serif" font-size="10.00">PS</text>
</a>
</g>
</g>
<!-- Node2&#45;&gt;Node6 -->
<g id="edge10" class="edge"><title>Node2&#45;&gt;Node6</title>
<path fill="none" stroke="midnightblue" d="M236.755,-177.05C256.026,-192.61 288.307,-216.482 320,-230 437.695,-280.202 479.889,-284.643 606,-263 678.054,-250.634 758.003,-216.308 796.606,-198.323"/>
<polygon fill="midnightblue" stroke="midnightblue" points="798.381,-201.355 805.929,-193.92 795.392,-195.025 798.381,-201.355"/>
</g>
<!-- Node9 -->
<g id="node9" class="node"><title>Node9</title>
<g id="a_node9"><a xlink:href="../../dc/d1c/weapon_8qh.html#ac3cbbc1f9884e78a2816ff88760748d5" target="_top" xlink:title="weaponslot">
<polygon fill="none" stroke="black" points="345,-114.5 345,-133.5 411,-133.5 411,-114.5 345,-114.5"/>
<text text-anchor="middle" x="378" y="-121.5" font-family="Helvetica,sans-Serif" font-size="10.00">weaponslot</text>
</a>
</g>
</g>
<!-- Node2&#45;&gt;Node9 -->
<g id="edge11" class="edge"><title>Node2&#45;&gt;Node9</title>
<path fill="none" stroke="midnightblue" d="M275.595,-148.388C295.17,-143.681 316.745,-138.492 334.944,-134.115"/>
<polygon fill="midnightblue" stroke="midnightblue" points="335.769,-137.516 344.673,-131.775 334.132,-130.71 335.769,-137.516"/>
</g>
<!-- Node3&#45;&gt;Node4 -->
<g id="edge3" class="edge"><title>Node3&#45;&gt;Node4</title>
<path fill="none" stroke="midnightblue" d="M409.679,-190.994C418.349,-186.449 427.683,-181.261 436,-176 452.903,-165.309 454.096,-157.913 472,-149 483.393,-143.328 496.759,-139.083 508.472,-136.061"/>
<polygon fill="midnightblue" stroke="midnightblue" points="509.341,-139.452 518.248,-133.715 507.708,-132.645 509.341,-139.452"/>
</g>
<!-- Node5 -->
<g id="node5" class="node"><title>Node5</title>
<g id="a_node5"><a xlink:href="../../d8/de2/menudefs_8qc.html#a53c4a8e7afd17cad92bc00adba96bb78" target="_top" xlink:title="find">
<polygon fill="none" stroke="black" points="523,-234.5 523,-253.5 555,-253.5 555,-234.5 523,-234.5"/>
<text text-anchor="middle" x="539" y="-241.5" font-family="Helvetica,sans-Serif" font-size="10.00">find</text>
</a>
</g>
</g>
<!-- Node3&#45;&gt;Node5 -->
<g id="edge4" class="edge"><title>Node3&#45;&gt;Node5</title>
<path fill="none" stroke="midnightblue" d="M435.505,-219.504C461.957,-225.826 492.125,-233.036 512.845,-237.988"/>
<polygon fill="midnightblue" stroke="midnightblue" points="512.21,-241.435 522.75,-240.355 513.837,-234.627 512.21,-241.435"/>
</g>
<!-- Node3&#45;&gt;Node6 -->
<g id="edge5" class="edge"><title>Node3&#45;&gt;Node6</title>
<path fill="none" stroke="midnightblue" d="M435.75,-203.555C532.93,-199.368 727.327,-190.993 795.608,-188.051"/>
<polygon fill="midnightblue" stroke="midnightblue" points="795.96,-191.539 805.8,-187.612 795.659,-184.546 795.96,-191.539"/>
</g>
<!-- Node7 -->
<g id="node7" class="node"><title>Node7</title>
<g id="a_node7"><a xlink:href="../../d2/d62/selection_8qc.html#ac439f2f447cacc3d096a80b1cb97577b" target="_top" xlink:title="W_SwitchToOtherWeapon">
<polygon fill="none" stroke="black" points="472.5,-158.5 472.5,-177.5 605.5,-177.5 605.5,-158.5 472.5,-158.5"/>
<text text-anchor="middle" x="539" y="-165.5" font-family="Helvetica,sans-Serif" font-size="10.00">W_SwitchToOtherWeapon</text>
</a>
</g>
</g>
<!-- Node3&#45;&gt;Node7 -->
<g id="edge6" class="edge"><title>Node3&#45;&gt;Node7</title>
<path fill="none" stroke="midnightblue" d="M435.505,-192.496C452.654,-188.397 471.365,-183.925 488.051,-179.937"/>
<polygon fill="midnightblue" stroke="midnightblue" points="489.234,-183.253 498.147,-177.525 487.607,-176.445 489.234,-183.253"/>
</g>
<!-- Node7&#45;&gt;Node6 -->
<g id="edge7" class="edge"><title>Node7&#45;&gt;Node6</title>
<path fill="none" stroke="midnightblue" d="M581.444,-158.489C599.876,-154.724 621.911,-150.855 642,-149 698.648,-143.769 716.088,-130.838 770,-149 782.657,-153.264 794.65,-162.148 803.716,-170.255"/>
<polygon fill="midnightblue" stroke="midnightblue" points="801.495,-172.973 811.154,-177.326 806.318,-167.899 801.495,-172.973"/>
</g>
<!-- Node8 -->
<g id="node8" class="node"><title>Node8</title>
<g id="a_node8"><a xlink:href="../../d2/d62/selection_8qc.html#a8beecc8cbc5c9ee4e0dc90a2be1198e3" target="_top" xlink:title="W_SwitchWeapon_Force">
<polygon fill="none" stroke="black" points="642,-158.5 642,-177.5 770,-177.5 770,-158.5 642,-158.5"/>
<text text-anchor="middle" x="706" y="-165.5" font-family="Helvetica,sans-Serif" font-size="10.00">W_SwitchWeapon_Force</text>
</a>
</g>
</g>
<!-- Node7&#45;&gt;Node8 -->
<g id="edge8" class="edge"><title>Node7&#45;&gt;Node8</title>
<path fill="none" stroke="midnightblue" d="M605.686,-168C614.277,-168 623.122,-168 631.827,-168"/>
<polygon fill="midnightblue" stroke="midnightblue" points="631.958,-171.5 641.958,-168 631.958,-164.5 631.958,-171.5"/>
</g>
<!-- Node8&#45;&gt;Node6 -->
<g id="edge9" class="edge"><title>Node8&#45;&gt;Node6</title>
<path fill="none" stroke="midnightblue" d="M763.831,-177.556C775.05,-179.442 786.251,-181.325 795.665,-182.908"/>
<polygon fill="midnightblue" stroke="midnightblue" points="795.348,-186.404 805.79,-184.611 796.509,-179.501 795.348,-186.404"/>
</g>
<!-- Node10&#45;&gt;Node4 -->
<g id="edge14" class="edge"><title>Node10&#45;&gt;Node4</title>
<path fill="none" stroke="midnightblue" d="M283.892,-89.0804C327.185,-91.7727 385.257,-96.6106 436,-105 460.662,-109.077 488.164,-115.958 508.39,-121.47"/>
<polygon fill="midnightblue" stroke="midnightblue" points="507.679,-124.904 518.25,-124.205 509.55,-118.159 507.679,-124.904"/>
</g>
<!-- Node10&#45;&gt;Node9 -->
<g id="edge16" class="edge"><title>Node10&#45;&gt;Node9</title>
<path fill="none" stroke="midnightblue" d="M258.87,-95.589C282.147,-101.187 311.489,-108.244 335.105,-113.924"/>
<polygon fill="midnightblue" stroke="midnightblue" points="334.301,-117.33 344.842,-116.266 335.938,-110.524 334.301,-117.33"/>
</g>
<!-- Node11 -->
<g id="node11" class="node"><title>Node11</title>
<g id="a_node11"><a xlink:href="../../d8/de2/menudefs_8qc.html#ab2ad6bdb33b4334fec83db0418cf72df" target="_top" xlink:title="min">
<polygon fill="none" stroke="black" points="362,-0.5 362,-19.5 394,-19.5 394,-0.5 362,-0.5"/>
<text text-anchor="middle" x="378" y="-7.5" font-family="Helvetica,sans-Serif" font-size="10.00">min</text>
</a>
</g>
</g>
<!-- Node10&#45;&gt;Node11 -->
<g id="edge15" class="edge"><title>Node10&#45;&gt;Node11</title>
<path fill="none" stroke="midnightblue" d="M233.926,-76.3668C253.231,-64.1948 288.163,-43.1325 320,-29 330.189,-24.4768 341.806,-20.4188 351.881,-17.2259"/>
<polygon fill="midnightblue" stroke="midnightblue" points="353.157,-20.496 361.699,-14.2285 351.113,-13.8011 353.157,-20.496"/>
</g>
<!-- Node12 -->
<g id="node12" class="node"><title>Node12</title>
<g id="a_node12"><a xlink:href="../../d5/de0/weaponsystem_8qc.html#ada198b7d2c4a23e3476772e6e16828d7" target="_top" xlink:title="W_WeaponRateFactor">
<polygon fill="none" stroke="black" points="320,-38.5 320,-57.5 436,-57.5 436,-38.5 320,-38.5"/>
<text text-anchor="middle" x="378" y="-45.5" font-family="Helvetica,sans-Serif" font-size="10.00">W_WeaponRateFactor</text>
</a>
</g>
</g>
<!-- Node10&#45;&gt;Node12 -->
<g id="edge17" class="edge"><title>Node10&#45;&gt;Node12</title>
<path fill="none" stroke="midnightblue" d="M258.87,-76.411C279.72,-71.3965 305.435,-65.2119 327.543,-59.8947"/>
<polygon fill="midnightblue" stroke="midnightblue" points="328.512,-63.2615 337.417,-57.5201 326.875,-56.4555 328.512,-63.2615"/>
</g>
</g>
</svg>
