<?xml version="1.0" encoding="UTF-8" standalone="no"?>
<!DOCTYPE svg PUBLIC "-//W3C//DTD SVG 1.1//EN"
 "http://www.w3.org/Graphics/SVG/1.1/DTD/svg11.dtd">
<!-- Generated by graphviz version 2.36.0 (20140111.2315)
 -->
<!-- Title: server/teamplay.qh Pages: 1 -->
<!--zoomable 332 -->
<svg id="main" version="1.1" xmlns="http://www.w3.org/2000/svg" xmlns:xlink="http://www.w3.org/1999/xlink" xml:space="preserve" onload="init(evt)">
<style type="text/css"><![CDATA[
.edge:hover path { stroke: red; }
.edge:hover polygon { stroke: red; fill: red; }
]]></style>
<script type="text/javascript"><![CDATA[
var edges = document.getElementsByTagName('g');
if (edges && edges.length) {
  for (var i=0;i<edges.length;i++) {
    if (edges[i].id.substr(0,4)=='edge') {
      edges[i].setAttribute('class','edge');
    }
  }
}
]]></script>
        <defs>
                <circle id="rim" cx="0" cy="0" r="7"/>
                <circle id="rim2" cx="0" cy="0" r="3.5"/>
                <g id="zoomPlus">
                        <use xlink:href="#rim" fill="#404040">
                                <set attributeName="fill" to="#808080" begin="zoomplus.mouseover" end="zoomplus.mouseout"/>
                        </use>
                        <path d="M-4,0h8M0,-4v8" fill="none" stroke="white" stroke-width="1.5" pointer-events="none"/>
                </g>
                <g id="zoomMin">
                        <use xlink:href="#rim" fill="#404040">
                                <set attributeName="fill" to="#808080" begin="zoomminus.mouseover" end="zoomminus.mouseout"/>
                        </use>
                        <path d="M-4,0h8" fill="none" stroke="white" stroke-width="1.5" pointer-events="none"/>
                </g>
                <g id="dirArrow">
                        <path fill="none" stroke="white" stroke-width="1.5" d="M0,-3.0v7 M-2.5,-0.5L0,-3.0L2.5,-0.5"/>
                </g>
               <g id="resetDef">
                       <use xlink:href="#rim2" fill="#404040">
                               <set attributeName="fill" to="#808080" begin="reset.mouseover" end="reset.mouseout"/>
                       </use>
               </g>
        </defs>

<script type="text/javascript">
var viewWidth = 1572;
var viewHeight = 332;
var sectionId = 'dynsection-0';
</script>
<script xlink:href="../../svgpan.js"/>
<svg id="graph" class="graph">
<g id="viewport">
<title>server/teamplay.qh</title>
<!-- Node1 -->
<g id="node1" class="node"><title>Node1</title>
<polygon fill="#bfbfbf" stroke="black" points="772,-304.5 772,-323.5 872,-323.5 872,-304.5 772,-304.5"/>
<text text-anchor="middle" x="822" y="-311.5" font-family="Helvetica,sans-Serif" font-size="10.00">server/teamplay.qh</text>
</g>
<!-- Node2 -->
<g id="node2" class="node"><title>Node2</title>
<g id="a_node2"><a xlink:href="../../dd/d0c/sv__ctf_8qc.html" target="_top" xlink:title="common/gamemodes/gamemode\l/ctf/sv_ctf.qc">
<polygon fill="none" stroke="black" points="-0.5,-237 -0.5,-267 160.5,-267 160.5,-237 -0.5,-237"/>
<text text-anchor="start" x="7.5" y="-255" font-family="Helvetica,sans-Serif" font-size="10.00">common/gamemodes/gamemode</text>
<text text-anchor="middle" x="80" y="-244" font-family="Helvetica,sans-Serif" font-size="10.00">/ctf/sv_ctf.qc</text>
</a>
</g>
</g>
<!-- Node1&#45;&gt;Node2 -->
<g id="edge1" class="edge"><title>Node1&#45;&gt;Node2</title>
<path fill="none" stroke="midnightblue" d="M761.829,-310.83C646.494,-306.232 386.441,-293.753 169,-268 166.355,-267.687 163.668,-267.349 160.958,-266.991"/>
<polygon fill="midnightblue" stroke="midnightblue" points="761.741,-314.329 771.871,-311.224 762.016,-307.334 761.741,-314.329"/>
</g>
<!-- Node3 -->
<g id="node3" class="node"><title>Node3</title>
<g id="a_node3"><a xlink:href="../../d3/de3/sv__domination_8qc.html" target="_top" xlink:title="common/gamemodes/gamemode\l/domination/sv_domination.qc">
<polygon fill="none" stroke="black" points="178.5,-237 178.5,-267 339.5,-267 339.5,-237 178.5,-237"/>
<text text-anchor="start" x="186.5" y="-255" font-family="Helvetica,sans-Serif" font-size="10.00">common/gamemodes/gamemode</text>
<text text-anchor="middle" x="259" y="-244" font-family="Helvetica,sans-Serif" font-size="10.00">/domination/sv_domination.qc</text>
</a>
</g>
</g>
<!-- Node1&#45;&gt;Node3 -->
<g id="edge2" class="edge"><title>Node1&#45;&gt;Node3</title>
<path fill="none" stroke="midnightblue" d="M761.79,-308.635C671.774,-301.801 496.867,-287.332 349,-268 346.016,-267.61 342.979,-267.195 339.913,-266.761"/>
<polygon fill="midnightblue" stroke="midnightblue" points="761.578,-312.129 771.813,-309.391 762.105,-305.149 761.578,-312.129"/>
</g>
<!-- Node4 -->
<g id="node4" class="node"><title>Node4</title>
<g id="a_node4"><a xlink:href="../../db/da5/sv__invasion_8qc.html" target="_top" xlink:title="common/gamemodes/gamemode\l/invasion/sv_invasion.qc">
<polygon fill="none" stroke="black" points="357.5,-237 357.5,-267 518.5,-267 518.5,-237 357.5,-237"/>
<text text-anchor="start" x="365.5" y="-255" font-family="Helvetica,sans-Serif" font-size="10.00">common/gamemodes/gamemode</text>
<text text-anchor="middle" x="438" y="-244" font-family="Helvetica,sans-Serif" font-size="10.00">/invasion/sv_invasion.qc</text>
</a>
</g>
</g>
<!-- Node1&#45;&gt;Node4 -->
<g id="edge3" class="edge"><title>Node1&#45;&gt;Node4</title>
<path fill="none" stroke="midnightblue" d="M761.801,-304.025C702.35,-295.104 608.856,-280.925 528,-268 525.028,-267.525 522.001,-267.038 518.945,-266.543"/>
<polygon fill="midnightblue" stroke="midnightblue" points="761.359,-307.497 771.768,-305.519 762.397,-300.575 761.359,-307.497"/>
</g>
<!-- Node5 -->
<g id="node5" class="node"><title>Node5</title>
<g id="a_node5"><a xlink:href="../../d7/d39/sv__rules_8qc.html" target="_top" xlink:title="common/gamemodes/sv\l_rules.qc">
<polygon fill="none" stroke="black" points="537,-237 537,-267 661,-267 661,-237 537,-237"/>
<text text-anchor="start" x="545" y="-255" font-family="Helvetica,sans-Serif" font-size="10.00">common/gamemodes/sv</text>
<text text-anchor="middle" x="599" y="-244" font-family="Helvetica,sans-Serif" font-size="10.00">_rules.qc</text>
</a>
</g>
</g>
<!-- Node1&#45;&gt;Node5 -->
<g id="edge4" class="edge"><title>Node1&#45;&gt;Node5</title>
<path fill="none" stroke="midnightblue" d="M780.211,-301.756C743.669,-291.924 690.445,-277.604 651.127,-267.025"/>
<polygon fill="midnightblue" stroke="midnightblue" points="779.484,-305.185 790.05,-304.403 781.302,-298.425 779.484,-305.185"/>
</g>
<!-- Node6 -->
<g id="node6" class="node"><title>Node6</title>
<g id="a_node6"><a xlink:href="../../df/dd7/server_2client_8qc.html" target="_top" xlink:title="server/client.qc">
<polygon fill="none" stroke="black" points="574.5,-112.5 574.5,-131.5 657.5,-131.5 657.5,-112.5 574.5,-112.5"/>
<text text-anchor="middle" x="616" y="-119.5" font-family="Helvetica,sans-Serif" font-size="10.00">server/client.qc</text>
</a>
</g>
</g>
<!-- Node1&#45;&gt;Node6 -->
<g id="edge5" class="edge"><title>Node1&#45;&gt;Node6</title>
<path fill="none" stroke="midnightblue" d="M787.728,-300.833C766.889,-292.795 740.121,-281.307 718,-268 697.272,-255.531 645.781,-220.537 633,-200 619.401,-178.149 616.608,-146.865 616.083,-131.787"/>
<polygon fill="midnightblue" stroke="midnightblue" points="786.549,-304.129 797.141,-304.386 789.021,-297.58 786.549,-304.129"/>
</g>
<!-- Node9 -->
<g id="node9" class="node"><title>Node9</title>
<g id="a_node9"><a xlink:href="../../dc/d55/clientkill_8qc.html" target="_top" xlink:title="server/clientkill.qc">
<polygon fill="none" stroke="black" points="641.5,-174.5 641.5,-193.5 736.5,-193.5 736.5,-174.5 641.5,-174.5"/>
<text text-anchor="middle" x="689" y="-181.5" font-family="Helvetica,sans-Serif" font-size="10.00">server/clientkill.qc</text>
</a>
</g>
</g>
<!-- Node1&#45;&gt;Node9 -->
<g id="edge8" class="edge"><title>Node1&#45;&gt;Node9</title>
<path fill="none" stroke="midnightblue" d="M795.938,-299.544C781.766,-291.504 764.438,-280.446 751,-268 725.663,-244.535 703.457,-209.58 693.937,-193.569"/>
<polygon fill="midnightblue" stroke="midnightblue" points="794.275,-302.624 804.724,-304.376 797.648,-296.49 794.275,-302.624"/>
</g>
<!-- Node10 -->
<g id="node10" class="node"><title>Node10</title>
<g id="a_node10"><a xlink:href="../../db/dcc/g__world_8qc.html" target="_top" xlink:title="server/g_world.qc">
<polygon fill="none" stroke="black" points="715,-112.5 715,-131.5 809,-131.5 809,-112.5 715,-112.5"/>
<text text-anchor="middle" x="762" y="-119.5" font-family="Helvetica,sans-Serif" font-size="10.00">server/g_world.qc</text>
</a>
</g>
</g>
<!-- Node1&#45;&gt;Node10 -->
<g id="edge10" class="edge"><title>Node1&#45;&gt;Node10</title>
<path fill="none" stroke="midnightblue" d="M815.573,-294.748C807.798,-272.477 794.453,-233.631 784,-200 776.325,-175.306 768.189,-145.848 764.314,-131.584"/>
<polygon fill="midnightblue" stroke="midnightblue" points="812.294,-295.974 818.905,-304.254 818.9,-293.659 812.294,-295.974"/>
</g>
<!-- Node11 -->
<g id="node11" class="node"><title>Node11</title>
<g id="a_node11"><a xlink:href="../../db/d9b/server_2player_8qc.html" target="_top" xlink:title="server/player.qc">
<polygon fill="none" stroke="black" points="793,-174.5 793,-193.5 879,-193.5 879,-174.5 793,-174.5"/>
<text text-anchor="middle" x="836" y="-181.5" font-family="Helvetica,sans-Serif" font-size="10.00">server/player.qc</text>
</a>
</g>
</g>
<!-- Node1&#45;&gt;Node11 -->
<g id="edge12" class="edge"><title>Node1&#45;&gt;Node11</title>
<path fill="none" stroke="midnightblue" d="M824.075,-294.029C827.162,-265.803 832.84,-213.892 835.068,-193.522"/>
<polygon fill="midnightblue" stroke="midnightblue" points="820.57,-293.881 822.962,-304.202 827.529,-294.642 820.57,-293.881"/>
</g>
<!-- Node12 -->
<g id="node12" class="node"><title>Node12</title>
<g id="a_node12"><a xlink:href="../../d5/d14/scores__rules_8qc.html" target="_top" xlink:title="server/scores_rules.qc">
<polygon fill="none" stroke="black" points="865,-112.5 865,-131.5 981,-131.5 981,-112.5 865,-112.5"/>
<text text-anchor="middle" x="923" y="-119.5" font-family="Helvetica,sans-Serif" font-size="10.00">server/scores_rules.qc</text>
</a>
</g>
</g>
<!-- Node1&#45;&gt;Node12 -->
<g id="edge14" class="edge"><title>Node1&#45;&gt;Node12</title>
<path fill="none" stroke="midnightblue" d="M832.74,-295.876C846.288,-274.001 869.988,-234.8 888,-200 900.555,-175.744 913.342,-146.087 919.397,-131.682"/>
<polygon fill="midnightblue" stroke="midnightblue" points="829.76,-294.041 827.444,-304.379 835.702,-297.741 829.76,-294.041"/>
</g>
<!-- Node13 -->
<g id="node13" class="node"><title>Node13</title>
<g id="a_node13"><a xlink:href="../../de/d4f/teamplay_8qc.html" target="_top" xlink:title="server/teamplay.qc">
<polygon fill="none" stroke="black" points="935,-174.5 935,-193.5 1035,-193.5 1035,-174.5 935,-174.5"/>
<text text-anchor="middle" x="985" y="-181.5" font-family="Helvetica,sans-Serif" font-size="10.00">server/teamplay.qc</text>
</a>
</g>
</g>
<!-- Node1&#45;&gt;Node13 -->
<g id="edge16" class="edge"><title>Node1&#45;&gt;Node13</title>
<path fill="none" stroke="midnightblue" d="M840.297,-297.829C859.307,-282.148 889.996,-257.058 917,-236 936.55,-220.755 959.726,-203.555 973.349,-193.532"/>
<polygon fill="midnightblue" stroke="midnightblue" points="837.918,-295.255 832.44,-304.324 842.377,-300.651 837.918,-295.255"/>
</g>
<!-- Node14 -->
<g id="node14" class="node"><title>Node14</title>
<g id="a_node14"><a xlink:href="../../d2/dc0/bot_8qc.html" target="_top" xlink:title="server/bot/default\l/bot.qc">
<polygon fill="none" stroke="black" points="926,-237 926,-267 1018,-267 1018,-237 926,-237"/>
<text text-anchor="start" x="934" y="-255" font-family="Helvetica,sans-Serif" font-size="10.00">server/bot/default</text>
<text text-anchor="middle" x="972" y="-244" font-family="Helvetica,sans-Serif" font-size="10.00">/bot.qc</text>
</a>
</g>
</g>
<!-- Node1&#45;&gt;Node14 -->
<g id="edge18" class="edge"><title>Node1&#45;&gt;Node14</title>
<path fill="none" stroke="midnightblue" d="M852.994,-300.602C877.429,-290.828 911.507,-277.197 936.937,-267.025"/>
<polygon fill="midnightblue" stroke="midnightblue" points="851.476,-297.44 843.491,-304.403 854.076,-303.939 851.476,-297.44"/>
</g>
<!-- Node17 -->
<g id="node17" class="node"><title>Node17</title>
<g id="a_node17"><a xlink:href="../../d8/d1d/cmd_8qc.html" target="_top" xlink:title="server/command/cmd.qc">
<polygon fill="none" stroke="black" points="1036.5,-242.5 1036.5,-261.5 1161.5,-261.5 1161.5,-242.5 1036.5,-242.5"/>
<text text-anchor="middle" x="1099" y="-249.5" font-family="Helvetica,sans-Serif" font-size="10.00">server/command/cmd.qc</text>
</a>
</g>
</g>
<!-- Node1&#45;&gt;Node17 -->
<g id="edge22" class="edge"><title>Node1&#45;&gt;Node17</title>
<path fill="none" stroke="midnightblue" d="M871.395,-302.301C925.229,-290.64 1010.27,-272.219 1059.74,-261.503"/>
<polygon fill="midnightblue" stroke="midnightblue" points="870.426,-298.929 861.393,-304.467 871.907,-305.771 870.426,-298.929"/>
</g>
<!-- Node19 -->
<g id="node19" class="node"><title>Node19</title>
<g id="a_node19"><a xlink:href="../../d1/dad/server_2command_2vote_8qc.html" target="_top" xlink:title="server/command/vote.qc">
<polygon fill="none" stroke="black" points="1179.5,-242.5 1179.5,-261.5 1304.5,-261.5 1304.5,-242.5 1179.5,-242.5"/>
<text text-anchor="middle" x="1242" y="-249.5" font-family="Helvetica,sans-Serif" font-size="10.00">server/command/vote.qc</text>
</a>
</g>
</g>
<!-- Node1&#45;&gt;Node19 -->
<g id="edge25" class="edge"><title>Node1&#45;&gt;Node19</title>
<path fill="none" stroke="midnightblue" d="M882.351,-306.62C951.916,-298.936 1069.58,-284.928 1170,-268 1180.95,-266.154 1192.78,-263.83 1203.62,-261.566"/>
<polygon fill="midnightblue" stroke="midnightblue" points="881.586,-303.183 872.027,-307.753 882.349,-310.141 881.586,-303.183"/>
</g>
<!-- Node20 -->
<g id="node20" class="node"><title>Node20</title>
<g id="a_node20"><a xlink:href="../../db/d52/server_2__mod_8qh.html" target="_top" xlink:title="server/_mod.qh">
<polygon fill="none" stroke="black" points="1322,-242.5 1322,-261.5 1406,-261.5 1406,-242.5 1322,-242.5"/>
<text text-anchor="middle" x="1364" y="-249.5" font-family="Helvetica,sans-Serif" font-size="10.00">server/_mod.qh</text>
</a>
</g>
</g>
<!-- Node1&#45;&gt;Node20 -->
<g id="edge27" class="edge"><title>Node1&#45;&gt;Node20</title>
<path fill="none" stroke="midnightblue" d="M882.369,-311.244C975.533,-307.689 1159.63,-297.294 1313,-268 1321.43,-266.39 1330.47,-263.97 1338.56,-261.541"/>
<polygon fill="midnightblue" stroke="midnightblue" points="882.146,-307.75 872.282,-311.616 882.404,-314.745 882.146,-307.75"/>
</g>
<!-- Node21 -->
<g id="node21" class="node"><title>Node21</title>
<g id="a_node21"><a xlink:href="../../d3/df2/sv__cmd_8qc.html" target="_top" xlink:title="server/command/sv_cmd.qc">
<polygon fill="none" stroke="black" points="1424,-242.5 1424,-261.5 1564,-261.5 1564,-242.5 1424,-242.5"/>
<text text-anchor="middle" x="1494" y="-249.5" font-family="Helvetica,sans-Serif" font-size="10.00">server/command/sv_cmd.qc</text>
</a>
</g>
</g>
<!-- Node1&#45;&gt;Node21 -->
<g id="edge28" class="edge"><title>Node1&#45;&gt;Node21</title>
<path fill="none" stroke="midnightblue" d="M882.394,-310.595C989.735,-305.834 1220.64,-293.398 1414,-268 1426.75,-266.325 1440.54,-263.946 1453.03,-261.574"/>
<polygon fill="midnightblue" stroke="midnightblue" points="881.925,-307.112 872.087,-311.045 882.231,-314.105 881.925,-307.112"/>
</g>
<!-- Node7 -->
<g id="node7" class="node"><title>Node7</title>
<g id="a_node7"><a xlink:href="../../dc/d7f/server_2__mod_8inc.html" target="_top" xlink:title="server/_mod.inc">
<polygon fill="none" stroke="black" points="837,-56.5 837,-75.5 923,-75.5 923,-56.5 837,-56.5"/>
<text text-anchor="middle" x="880" y="-63.5" font-family="Helvetica,sans-Serif" font-size="10.00">server/_mod.inc</text>
</a>
</g>
</g>
<!-- Node6&#45;&gt;Node7 -->
<g id="edge6" class="edge"><title>Node6&#45;&gt;Node7</title>
<path fill="none" stroke="midnightblue" d="M667.475,-110.471C717.334,-100.273 791.999,-85.0003 838.266,-75.5364"/>
<polygon fill="midnightblue" stroke="midnightblue" points="666.636,-107.07 657.54,-112.503 668.039,-113.928 666.636,-107.07"/>
</g>
<!-- Node8 -->
<g id="node8" class="node"><title>Node8</title>
<g id="a_node8"><a xlink:href="../../dd/d96/server_2progs_8inc.html" target="_top" xlink:title="server/progs.inc">
<polygon fill="none" stroke="black" points="837,-0.5 837,-19.5 923,-19.5 923,-0.5 837,-0.5"/>
<text text-anchor="middle" x="880" y="-7.5" font-family="Helvetica,sans-Serif" font-size="10.00">server/progs.inc</text>
</a>
</g>
</g>
<!-- Node7&#45;&gt;Node8 -->
<g id="edge7" class="edge"><title>Node7&#45;&gt;Node8</title>
<path fill="none" stroke="midnightblue" d="M880,-45.8045C880,-36.9102 880,-26.7798 880,-19.7511"/>
<polygon fill="midnightblue" stroke="midnightblue" points="876.5,-46.083 880,-56.083 883.5,-46.083 876.5,-46.083"/>
</g>
<!-- Node9&#45;&gt;Node7 -->
<g id="edge9" class="edge"><title>Node9&#45;&gt;Node7</title>
<path fill="none" stroke="midnightblue" d="M688.462,-163.946C689.072,-147.986 692.565,-125.68 706,-112 724.092,-93.5785 791.513,-80.168 836.922,-72.9886"/>
<polygon fill="midnightblue" stroke="midnightblue" points="684.961,-164.219 688.427,-174.231 691.961,-164.243 684.961,-164.219"/>
</g>
<!-- Node10&#45;&gt;Node7 -->
<g id="edge11" class="edge"><title>Node10&#45;&gt;Node7</title>
<path fill="none" stroke="midnightblue" d="M789.9,-108.232C811.973,-98.1312 842.176,-84.3091 861.39,-75.5164"/>
<polygon fill="midnightblue" stroke="midnightblue" points="788.334,-105.1 780.697,-112.444 791.247,-111.465 788.334,-105.1"/>
</g>
<!-- Node11&#45;&gt;Node7 -->
<g id="edge13" class="edge"><title>Node11&#45;&gt;Node7</title>
<path fill="none" stroke="midnightblue" d="M839.997,-164.734C843.454,-150.178 848.996,-129.422 856,-112 861.285,-98.8559 869.338,-84.5638 874.636,-75.6931"/>
<polygon fill="midnightblue" stroke="midnightblue" points="836.581,-163.971 837.77,-174.499 843.406,-165.527 836.581,-163.971"/>
</g>
<!-- Node12&#45;&gt;Node7 -->
<g id="edge15" class="edge"><title>Node12&#45;&gt;Node7</title>
<path fill="none" stroke="midnightblue" d="M909.578,-104.144C902.086,-94.7357 893.063,-83.4046 886.968,-75.7511"/>
<polygon fill="midnightblue" stroke="midnightblue" points="906.932,-106.44 915.899,-112.083 912.408,-102.08 906.932,-106.44"/>
</g>
<!-- Node13&#45;&gt;Node7 -->
<g id="edge17" class="edge"><title>Node13&#45;&gt;Node7</title>
<path fill="none" stroke="midnightblue" d="M991.815,-164.378C996.168,-149.027 999.275,-127.358 989,-112 974.315,-90.0495 946.752,-78.7945 923.019,-73.0297"/>
<polygon fill="midnightblue" stroke="midnightblue" points="988.366,-163.666 988.598,-174.259 995.022,-165.833 988.366,-163.666"/>
</g>
<!-- Node15 -->
<g id="node15" class="node"><title>Node15</title>
<g id="a_node15"><a xlink:href="../../d9/dfd/server_2bot_2default_2__mod_8inc.html" target="_top" xlink:title="server/bot/default\l/_mod.inc">
<polygon fill="none" stroke="black" points="1053,-169 1053,-199 1145,-199 1145,-169 1053,-169"/>
<text text-anchor="start" x="1061" y="-187" font-family="Helvetica,sans-Serif" font-size="10.00">server/bot/default</text>
<text text-anchor="middle" x="1099" y="-176" font-family="Helvetica,sans-Serif" font-size="10.00">/_mod.inc</text>
</a>
</g>
</g>
<!-- Node14&#45;&gt;Node15 -->
<g id="edge19" class="edge"><title>Node14&#45;&gt;Node15</title>
<path fill="none" stroke="midnightblue" d="M1008.18,-232.197C1028.42,-221.68 1053.23,-208.787 1071.8,-199.135"/>
<polygon fill="midnightblue" stroke="midnightblue" points="1006.5,-229.124 999.245,-236.841 1009.73,-235.336 1006.5,-229.124"/>
</g>
<!-- Node16 -->
<g id="node16" class="node"><title>Node16</title>
<g id="a_node16"><a xlink:href="../../dc/d13/server_2bot_2__mod_8inc.html" target="_top" xlink:title="server/bot/_mod.inc">
<polygon fill="none" stroke="black" points="1042.5,-112.5 1042.5,-131.5 1145.5,-131.5 1145.5,-112.5 1042.5,-112.5"/>
<text text-anchor="middle" x="1094" y="-119.5" font-family="Helvetica,sans-Serif" font-size="10.00">server/bot/_mod.inc</text>
</a>
</g>
</g>
<!-- Node15&#45;&gt;Node16 -->
<g id="edge20" class="edge"><title>Node15&#45;&gt;Node16</title>
<path fill="none" stroke="midnightblue" d="M1096.97,-158.586C1096.17,-149.074 1095.32,-138.786 1094.73,-131.731"/>
<polygon fill="midnightblue" stroke="midnightblue" points="1093.5,-159.106 1097.82,-168.781 1100.47,-158.525 1093.5,-159.106"/>
</g>
<!-- Node16&#45;&gt;Node7 -->
<g id="edge21" class="edge"><title>Node16&#45;&gt;Node7</title>
<path fill="none" stroke="midnightblue" d="M1050.24,-109.959C1009.83,-99.7598 950.627,-84.8217 913.75,-75.5164"/>
<polygon fill="midnightblue" stroke="midnightblue" points="1049.54,-113.39 1060.09,-112.444 1051.25,-106.603 1049.54,-113.39"/>
</g>
<!-- Node18 -->
<g id="node18" class="node"><title>Node18</title>
<g id="a_node18"><a xlink:href="../../d8/db6/server_2command_2__mod_8inc.html" target="_top" xlink:title="server/command/_mod.inc">
<polygon fill="none" stroke="black" points="1163,-174.5 1163,-193.5 1295,-193.5 1295,-174.5 1163,-174.5"/>
<text text-anchor="middle" x="1229" y="-181.5" font-family="Helvetica,sans-Serif" font-size="10.00">server/command/_mod.inc</text>
</a>
</g>
</g>
<!-- Node17&#45;&gt;Node18 -->
<g id="edge23" class="edge"><title>Node17&#45;&gt;Node18</title>
<path fill="none" stroke="midnightblue" d="M1125.22,-237.689C1151.1,-224.55 1189.91,-204.848 1212,-193.63"/>
<polygon fill="midnightblue" stroke="midnightblue" points="1123.33,-234.724 1116,-242.372 1126.5,-240.966 1123.33,-234.724"/>
</g>
<!-- Node18&#45;&gt;Node7 -->
<g id="edge24" class="edge"><title>Node18&#45;&gt;Node7</title>
<path fill="none" stroke="midnightblue" d="M1216.19,-166.01C1202.66,-149.39 1179.75,-124.771 1154,-112 1078.85,-74.7322 979.278,-67.3364 923.198,-66.4222"/>
<polygon fill="midnightblue" stroke="midnightblue" points="1213.77,-168.594 1222.7,-174.294 1219.27,-164.268 1213.77,-168.594"/>
</g>
<!-- Node19&#45;&gt;Node18 -->
<g id="edge26" class="edge"><title>Node19&#45;&gt;Node18</title>
<path fill="none" stroke="midnightblue" d="M1238.34,-232.425C1235.85,-219.798 1232.68,-203.662 1230.74,-193.841"/>
<polygon fill="midnightblue" stroke="midnightblue" points="1234.93,-233.237 1240.3,-242.372 1241.8,-231.884 1234.93,-233.237"/>
</g>
</g>
</svg>
        <g id="navigator" transform="translate(0 0)" fill="#404254">
                <rect fill="#f2f5e9" fill-opacity="0.5" stroke="#606060" stroke-width=".5" x="0" y="0" width="60" height="60"/>
                <use id="zoomplus" xlink:href="#zoomPlus" x="17" y="9" onmousedown="handleZoom(evt,'in')"/>
                <use id="zoomminus" xlink:href="#zoomMin" x="42" y="9" onmousedown="handleZoom(evt,'out')"/>
                <use id="reset" xlink:href="#resetDef" x="30" y="36" onmousedown="handleReset()"/>
                <g id="arrowUp" xlink:href="#dirArrow" transform="translate(30 24)" onmousedown="handlePan(0,-1)">
                  <use xlink:href="#rim" fill="#404040">
                        <set attributeName="fill" to="#808080" begin="arrowUp.mouseover" end="arrowUp.mouseout"/>
                  </use>
                  <path fill="none" stroke="white" stroke-width="1.5" d="M0,-3.0v7 M-2.5,-0.5L0,-3.0L2.5,-0.5"/>
                </g>
                <g id="arrowRight" xlink:href="#dirArrow" transform="rotate(90) translate(36 -43)" onmousedown="handlePan(1,0)">
                  <use xlink:href="#rim" fill="#404040">
                        <set attributeName="fill" to="#808080" begin="arrowRight.mouseover" end="arrowRight.mouseout"/>
                  </use>
                  <path fill="none" stroke="white" stroke-width="1.5" d="M0,-3.0v7 M-2.5,-0.5L0,-3.0L2.5,-0.5"/>
                </g>
                <g id="arrowDown" xlink:href="#dirArrow" transform="rotate(180) translate(-30 -48)" onmousedown="handlePan(0,1)">
                  <use xlink:href="#rim" fill="#404040">
                        <set attributeName="fill" to="#808080" begin="arrowDown.mouseover" end="arrowDown.mouseout"/>
                  </use>
                  <path fill="none" stroke="white" stroke-width="1.5" d="M0,-3.0v7 M-2.5,-0.5L0,-3.0L2.5,-0.5"/>
                </g>
                <g id="arrowLeft" xlink:href="#dirArrow" transform="rotate(270) translate(-36 17)" onmousedown="handlePan(-1,0)">
                  <use xlink:href="#rim" fill="#404040">
                        <set attributeName="fill" to="#808080" begin="arrowLeft.mouseover" end="arrowLeft.mouseout"/>
                  </use>
                  <path fill="none" stroke="white" stroke-width="1.5" d="M0,-3.0v7 M-2.5,-0.5L0,-3.0L2.5,-0.5"/>
                </g>
        </g>
        <svg viewBox="0 0 15 15" width="100%" height="30px" preserveAspectRatio="xMaxYMin meet">
         <g id="arrow_out" transform="scale(0.3 0.3)">
          <a xlink:href="teamplay_8qh__dep__incl_org.svg" target="_base">
           <rect id="button" ry="5" rx="5" y="6" x="6" height="38" width="38"
                fill="#f2f5e9" fill-opacity="0.5" stroke="#606060" stroke-width="1.0"/>
           <path id="arrow"
             d="M 11.500037,31.436501 C 11.940474,20.09759 22.043105,11.32322 32.158766,21.979434 L 37.068811,17.246167 C 37.068811,17.246167 37.088388,32 37.088388,32 L 22.160133,31.978069 C 22.160133,31.978069 26.997745,27.140456 26.997745,27.140456 C 18.528582,18.264221 13.291696,25.230495 11.500037,31.436501 z"
             style="fill:#404040;"/>
          </a>
         </g>
        </svg>
</svg>
