<?xml version="1.0" encoding="UTF-8" standalone="no"?>
<!DOCTYPE svg PUBLIC "-//W3C//DTD SVG 1.1//EN"
 "http://www.w3.org/Graphics/SVG/1.1/DTD/svg11.dtd">
<!-- Generated by graphviz version 2.38.0 (20140413.2041)
 -->
<!-- Title: calc_followmodel_ofs Pages: 1 -->
<svg width="553pt" height="66pt"
 viewBox="0.00 0.00 553.00 66.00" xmlns="http://www.w3.org/2000/svg" xmlns:xlink="http://www.w3.org/1999/xlink">
<g id="graph0" class="graph" transform="scale(1 1) rotate(0) translate(4 62)">
<title>calc_followmodel_ofs</title>
<!-- Node1 -->
<g id="node1" class="node"><title>Node1</title>
<polygon fill="#bfbfbf" stroke="black" points="0,-19.5 0,-38.5 116,-38.5 116,-19.5 0,-19.5"/>
<text text-anchor="middle" x="58" y="-26.5" font-family="Helvetica,sans-Serif" font-size="10.00">calc_followmodel_ofs</text>
</g>
<!-- Node2 -->
<g id="node2" class="node"><title>Node2</title>
<g id="a_node2"><a xlink:href="../../d3/d05/hud_8qh.html#ad7ec85390e221721fcceeff66b7f663f" target="_top" xlink:title="Hud_Dynamic_Frame">
<polygon fill="none" stroke="black" points="152,-38.5 152,-57.5 271,-57.5 271,-38.5 152,-38.5"/>
<text text-anchor="middle" x="211.5" y="-45.5" font-family="Helvetica,sans-Serif" font-size="10.00">Hud_Dynamic_Frame</text>
</a>
</g>
</g>
<!-- Node1&#45;&gt;Node2 -->
<g id="edge1" class="edge"><title>Node1&#45;&gt;Node2</title>
<path fill="none" stroke="midnightblue" d="M126.224,-37.4307C134.778,-38.5035 143.479,-39.5948 151.884,-40.6488"/>
<polygon fill="midnightblue" stroke="midnightblue" points="126.633,-33.9548 116.276,-36.1831 125.762,-40.9003 126.633,-33.9548"/>
</g>
<!-- Node5 -->
<g id="node5" class="node"><title>Node5</title>
<g id="a_node5"><a xlink:href="../../d6/dd3/view_8qc.html#ae5dc3684cbb64e6740ca3f1dd8e97b33" target="_top" xlink:title="viewmodel_animate">
<polygon fill="none" stroke="black" points="155.5,-0.5 155.5,-19.5 267.5,-19.5 267.5,-0.5 155.5,-0.5"/>
<text text-anchor="middle" x="211.5" y="-7.5" font-family="Helvetica,sans-Serif" font-size="10.00">viewmodel_animate</text>
</a>
</g>
</g>
<!-- Node1&#45;&gt;Node5 -->
<g id="edge4" class="edge"><title>Node1&#45;&gt;Node5</title>
<path fill="none" stroke="midnightblue" d="M126.248,-20.5663C135.908,-19.3548 145.754,-18.1199 155.149,-16.9418"/>
<polygon fill="midnightblue" stroke="midnightblue" points="125.762,-17.0997 116.276,-21.8169 126.633,-24.0452 125.762,-17.0997"/>
</g>
<!-- Node3 -->
<g id="node3" class="node"><title>Node3</title>
<g id="a_node3"><a xlink:href="../../d6/dd3/view_8qc.html#a018a6576512f5f15b72f6a1a732d2af0" target="_top" xlink:title="HUD_Draw">
<polygon fill="none" stroke="black" points="320.5,-38.5 320.5,-57.5 388.5,-57.5 388.5,-38.5 320.5,-38.5"/>
<text text-anchor="middle" x="354.5" y="-45.5" font-family="Helvetica,sans-Serif" font-size="10.00">HUD_Draw</text>
</a>
</g>
</g>
<!-- Node2&#45;&gt;Node3 -->
<g id="edge2" class="edge"><title>Node2&#45;&gt;Node3</title>
<path fill="none" stroke="midnightblue" d="M281.39,-48C294.946,-48 308.581,-48 320.29,-48"/>
<polygon fill="midnightblue" stroke="midnightblue" points="281.072,-44.5001 271.072,-48 281.072,-51.5001 281.072,-44.5001"/>
</g>
<!-- Node4 -->
<g id="node4" class="node"><title>Node4</title>
<g id="a_node4"><a xlink:href="../../d6/dd3/view_8qc.html#a7b9e2c12c6a461c93afb197bd1a93c8f" target="_top" xlink:title="CSQC_UpdateView">
<polygon fill="none" stroke="black" points="438,-19.5 438,-38.5 545,-38.5 545,-19.5 438,-19.5"/>
<text text-anchor="middle" x="491.5" y="-26.5" font-family="Helvetica,sans-Serif" font-size="10.00">CSQC_UpdateView</text>
</a>
</g>
</g>
<!-- Node3&#45;&gt;Node4 -->
<g id="edge3" class="edge"><title>Node3&#45;&gt;Node4</title>
<path fill="none" stroke="midnightblue" d="M398.649,-41.9272C411.112,-40.1731 424.856,-38.2388 437.83,-36.4128"/>
<polygon fill="midnightblue" stroke="midnightblue" points="397.939,-38.4925 388.525,-43.3521 398.915,-45.4242 397.939,-38.4925"/>
</g>
<!-- Node6 -->
<g id="node6" class="node"><title>Node6</title>
<g id="a_node6"><a xlink:href="../../d6/dd3/view_8qc.html#ac393da9659f9d96ef1e25885cd495e2f" target="_top" xlink:title="viewmodel_draw">
<polygon fill="none" stroke="black" points="307,-0.5 307,-19.5 402,-19.5 402,-0.5 307,-0.5"/>
<text text-anchor="middle" x="354.5" y="-7.5" font-family="Helvetica,sans-Serif" font-size="10.00">viewmodel_draw</text>
</a>
</g>
</g>
<!-- Node5&#45;&gt;Node6 -->
<g id="edge5" class="edge"><title>Node5&#45;&gt;Node6</title>
<path fill="none" stroke="midnightblue" d="M277.959,-10C287.761,-10 297.695,-10 306.996,-10"/>
<polygon fill="midnightblue" stroke="midnightblue" points="277.822,-6.5001 267.822,-10 277.822,-13.5001 277.822,-6.5001"/>
</g>
<!-- Node6&#45;&gt;Node4 -->
<g id="edge6" class="edge"><title>Node6&#45;&gt;Node4</title>
<path fill="none" stroke="midnightblue" d="M412.427,-18.0119C420.818,-19.1929 429.434,-20.4055 437.736,-21.574"/>
<polygon fill="midnightblue" stroke="midnightblue" points="412.728,-14.5199 402.338,-16.592 411.752,-21.4516 412.728,-14.5199"/>
</g>
</g>
</svg>
