<?xml version="1.0" encoding="UTF-8" standalone="no"?>
<!DOCTYPE svg PUBLIC "-//W3C//DTD SVG 1.1//EN"
 "http://www.w3.org/Graphics/SVG/1.1/DTD/svg11.dtd">
<!-- Generated by graphviz version 2.38.0 (20140413.2041)
 -->
<!-- Title: SUB_CalcMove_Bezier Pages: 1 -->
<svg width="1440pt" height="446pt"
 viewBox="0.00 0.00 1440.00 446.00" xmlns="http://www.w3.org/2000/svg" xmlns:xlink="http://www.w3.org/1999/xlink">
<g id="graph0" class="graph" transform="scale(1 1) rotate(0) translate(4 442)">
<title>SUB_CalcMove_Bezier</title>
<!-- Node1 -->
<g id="node1" class="node"><title>Node1</title>
<polygon fill="#bfbfbf" stroke="black" points="0,-247.5 0,-266.5 124,-266.5 124,-247.5 0,-247.5"/>
<text text-anchor="middle" x="62" y="-254.5" font-family="Helvetica,sans-Serif" font-size="10.00">SUB_CalcMove_Bezier</text>
</g>
<!-- Node2 -->
<g id="node2" class="node"><title>Node2</title>
<g id="a_node2"><a xlink:href="../../db/d2f/subs_8qh.html#adf72da94012ed6f3ee8d3d25a6634e2b" target="_top" xlink:title="SUB_CalcMove">
<polygon fill="none" stroke="black" points="160,-190.5 160,-209.5 249,-209.5 249,-190.5 160,-190.5"/>
<text text-anchor="middle" x="204.5" y="-197.5" font-family="Helvetica,sans-Serif" font-size="10.00">SUB_CalcMove</text>
</a>
</g>
</g>
<!-- Node1&#45;&gt;Node2 -->
<g id="edge1" class="edge"><title>Node1&#45;&gt;Node2</title>
<path fill="none" stroke="midnightblue" d="M95.8841,-243.659C121.653,-233.205 156.882,-218.913 179.907,-209.572"/>
<polygon fill="midnightblue" stroke="midnightblue" points="94.4672,-240.457 86.5165,-247.459 97.0988,-246.943 94.4672,-240.457"/>
</g>
<!-- Node14 -->
<g id="node14" class="node"><title>Node14</title>
<g id="a_node14"><a xlink:href="../../de/d2e/train_8qc.html#a887ad93d45858763031e3816a1a0923d" target="_top" xlink:title="train_next">
<polygon fill="none" stroke="black" points="304.5,-380.5 304.5,-399.5 369.5,-399.5 369.5,-380.5 304.5,-380.5"/>
<text text-anchor="middle" x="337" y="-387.5" font-family="Helvetica,sans-Serif" font-size="10.00">train_next</text>
</a>
</g>
</g>
<!-- Node1&#45;&gt;Node14 -->
<g id="edge36" class="edge"><title>Node1&#45;&gt;Node14</title>
<path fill="none" stroke="midnightblue" d="M91.9367,-271.097C147.666,-298.247 268.581,-357.155 316.178,-380.343"/>
<polygon fill="midnightblue" stroke="midnightblue" points="93.1563,-267.798 82.6335,-266.565 90.0905,-274.091 93.1563,-267.798"/>
</g>
<!-- Node3 -->
<g id="node3" class="node"><title>Node3</title>
<g id="a_node3"><a xlink:href="../../d6/d9c/door_8qc.html#ab1bcfdc401011109dbfbec373e08244d" target="_top" xlink:title="door_go_down">
<polygon fill="none" stroke="black" points="294,-133.5 294,-152.5 380,-152.5 380,-133.5 294,-133.5"/>
<text text-anchor="middle" x="337" y="-140.5" font-family="Helvetica,sans-Serif" font-size="10.00">door_go_down</text>
</a>
</g>
</g>
<!-- Node2&#45;&gt;Node3 -->
<g id="edge2" class="edge"><title>Node2&#45;&gt;Node3</title>
<path fill="none" stroke="midnightblue" d="M236.678,-186.382C260.554,-175.954 292.889,-161.83 314.086,-152.572"/>
<polygon fill="midnightblue" stroke="midnightblue" points="235.106,-183.249 227.343,-190.459 237.908,-189.664 235.106,-183.249"/>
</g>
<!-- Node13 -->
<g id="node13" class="node"><title>Node13</title>
<g id="a_node13"><a xlink:href="../../d6/d9c/door_8qc.html#aff3250044af884a25a96e74e6f42ae24" target="_top" xlink:title="door_go_up">
<polygon fill="none" stroke="black" points="568,-114.5 568,-133.5 641,-133.5 641,-114.5 568,-114.5"/>
<text text-anchor="middle" x="604.5" y="-121.5" font-family="Helvetica,sans-Serif" font-size="10.00">door_go_up</text>
</a>
</g>
</g>
<!-- Node2&#45;&gt;Node13 -->
<g id="edge18" class="edge"><title>Node2&#45;&gt;Node13</title>
<path fill="none" stroke="midnightblue" d="M218.402,-182.354C232.571,-164.432 257.059,-137.459 285,-124 384.194,-76.2193 422.825,-90.7417 532,-105 546.264,-106.863 561.733,-110.732 574.622,-114.496"/>
<polygon fill="midnightblue" stroke="midnightblue" points="215.6,-180.256 212.305,-190.326 221.16,-184.509 215.6,-180.256"/>
</g>
<!-- Node2&#45;&gt;Node14 -->
<g id="edge19" class="edge"><title>Node2&#45;&gt;Node14</title>
<path fill="none" stroke="midnightblue" d="M217.907,-218.063C244.925,-257.401 308.334,-349.719 329.206,-380.108"/>
<polygon fill="midnightblue" stroke="midnightblue" points="220.698,-215.945 212.151,-209.683 214.928,-219.908 220.698,-215.945"/>
</g>
<!-- Node16 -->
<g id="node16" class="node"><title>Node16</title>
<g id="a_node16"><a xlink:href="../../d0/d1a/platforms_8qh.html#a9574d891d234463bb42d94f88607b988" target="_top" xlink:title="plat_go_down">
<polygon fill="none" stroke="black" points="296,-285.5 296,-304.5 378,-304.5 378,-285.5 296,-285.5"/>
<text text-anchor="middle" x="337" y="-292.5" font-family="Helvetica,sans-Serif" font-size="10.00">plat_go_down</text>
</a>
</g>
</g>
<!-- Node2&#45;&gt;Node16 -->
<g id="edge22" class="edge"><title>Node2&#45;&gt;Node16</title>
<path fill="none" stroke="midnightblue" d="M227.104,-215.727C254.335,-235.55 300.296,-269.008 322.793,-285.386"/>
<polygon fill="midnightblue" stroke="midnightblue" points="229.119,-212.865 218.974,-209.809 224.999,-218.524 229.119,-212.865"/>
</g>
<!-- Node19 -->
<g id="node19" class="node"><title>Node19</title>
<g id="a_node19"><a xlink:href="../../d0/d1a/platforms_8qh.html#a6693325a5179add8d074ce9869972142" target="_top" xlink:title="plat_go_up">
<polygon fill="none" stroke="black" points="570,-228.5 570,-247.5 639,-247.5 639,-228.5 570,-228.5"/>
<text text-anchor="middle" x="604.5" y="-235.5" font-family="Helvetica,sans-Serif" font-size="10.00">plat_go_up</text>
</a>
</g>
</g>
<!-- Node2&#45;&gt;Node19 -->
<g id="edge34" class="edge"><title>Node2&#45;&gt;Node19</title>
<path fill="none" stroke="midnightblue" d="M259.119,-199.821C324.103,-200.361 436.741,-203.732 532,-219 545.697,-221.195 560.562,-224.92 573.173,-228.493"/>
<polygon fill="midnightblue" stroke="midnightblue" points="259.131,-196.321 249.108,-199.757 259.086,-203.321 259.131,-196.321"/>
</g>
<!-- Node26 -->
<g id="node26" class="node"><title>Node26</title>
<g id="a_node26"><a xlink:href="../../db/d2f/subs_8qh.html#ab98375d0b27a874a6dfb67d8ec295610" target="_top" xlink:title="SUB_CalcMoveEnt">
<polygon fill="none" stroke="black" points="285,-0.5 285,-19.5 389,-19.5 389,-0.5 285,-0.5"/>
<text text-anchor="middle" x="337" y="-7.5" font-family="Helvetica,sans-Serif" font-size="10.00">SUB_CalcMoveEnt</text>
</a>
</g>
</g>
<!-- Node2&#45;&gt;Node26 -->
<g id="edge35" class="edge"><title>Node2&#45;&gt;Node26</title>
<path fill="none" stroke="midnightblue" d="M210.228,-180.409C219.319,-146.513 242.225,-76.4851 285,-34 291.11,-27.9316 299.045,-23.1993 306.83,-19.6016"/>
<polygon fill="midnightblue" stroke="midnightblue" points="206.753,-179.872 207.666,-190.427 213.535,-181.606 206.753,-179.872"/>
</g>
<!-- Node4 -->
<g id="node4" class="node"><title>Node4</title>
<g id="a_node4"><a xlink:href="../../d6/d9c/door_8qc.html#a8d938ad27fd52df3dcc1494048b0b852" target="_top" xlink:title="door_blocked">
<polygon fill="none" stroke="black" points="688.5,-76.5 688.5,-95.5 768.5,-95.5 768.5,-76.5 688.5,-76.5"/>
<text text-anchor="middle" x="728.5" y="-83.5" font-family="Helvetica,sans-Serif" font-size="10.00">door_blocked</text>
</a>
</g>
</g>
<!-- Node3&#45;&gt;Node4 -->
<g id="edge3" class="edge"><title>Node3&#45;&gt;Node4</title>
<path fill="none" stroke="midnightblue" d="M364.229,-128.665C381.072,-120.195 403.707,-110.149 425,-105 517.32,-82.675 629.838,-82.3862 688.176,-84.1576"/>
<polygon fill="midnightblue" stroke="midnightblue" points="362.309,-125.717 355.035,-133.42 365.525,-131.935 362.309,-125.717"/>
</g>
<!-- Node6 -->
<g id="node6" class="node"><title>Node6</title>
<g id="a_node6"><a xlink:href="../../d6/d9c/door_8qc.html#ae87674ba0b9d41767ee95397dabe1029" target="_top" xlink:title="door_fire">
<polygon fill="none" stroke="black" points="699,-152.5 699,-171.5 758,-171.5 758,-152.5 699,-152.5"/>
<text text-anchor="middle" x="728.5" y="-159.5" font-family="Helvetica,sans-Serif" font-size="10.00">door_fire</text>
</a>
</g>
</g>
<!-- Node3&#45;&gt;Node6 -->
<g id="edge5" class="edge"><title>Node3&#45;&gt;Node6</title>
<path fill="none" stroke="midnightblue" d="M390.05,-145.539C473.252,-149.598 633.474,-157.413 698.757,-160.598"/>
<polygon fill="midnightblue" stroke="midnightblue" points="390.212,-142.043 380.053,-145.051 389.871,-149.035 390.212,-142.043"/>
</g>
<!-- Node12 -->
<g id="node12" class="node"><title>Node12</title>
<g id="a_node12"><a xlink:href="../../d6/d9c/door_8qc.html#afbebfb6226c33715b304c0e6afa30ce4" target="_top" xlink:title="door_hit_top">
<polygon fill="none" stroke="black" points="440,-114.5 440,-133.5 517,-133.5 517,-114.5 440,-114.5"/>
<text text-anchor="middle" x="478.5" y="-121.5" font-family="Helvetica,sans-Serif" font-size="10.00">door_hit_top</text>
</a>
</g>
</g>
<!-- Node3&#45;&gt;Node12 -->
<g id="edge14" class="edge"><title>Node3&#45;&gt;Node12</title>
<path fill="none" stroke="midnightblue" d="M390.241,-135.885C406.659,-133.649 424.461,-131.224 439.677,-129.151"/>
<polygon fill="midnightblue" stroke="midnightblue" points="389.669,-132.43 380.233,-137.248 390.614,-139.366 389.669,-132.43"/>
</g>
<!-- Node5 -->
<g id="node5" class="node"><title>Node5</title>
<g id="a_node5"><a xlink:href="../../d6/d9c/door_8qc.html#a4efd6e741580a4f4c8a1d24b4bc0d2c2" target="_top" xlink:title="door_reset">
<polygon fill="none" stroke="black" points="1364,-133.5 1364,-152.5 1432,-152.5 1432,-133.5 1364,-133.5"/>
<text text-anchor="middle" x="1398" y="-140.5" font-family="Helvetica,sans-Serif" font-size="10.00">door_reset</text>
</a>
</g>
</g>
<!-- Node4&#45;&gt;Node5 -->
<g id="edge4" class="edge"><title>Node4&#45;&gt;Node5</title>
<path fill="none" stroke="midnightblue" d="M779.067,-86C841.119,-86 950.67,-86 1044.5,-86 1044.5,-86 1044.5,-86 1182.5,-86 1247.72,-86 1266.03,-84.6944 1328,-105 1348.4,-111.685 1369.73,-124.463 1383.18,-133.346"/>
<polygon fill="midnightblue" stroke="midnightblue" points="778.787,-82.5001 768.787,-86 778.787,-89.5001 778.787,-82.5001"/>
</g>
<!-- Node7 -->
<g id="node7" class="node"><title>Node7</title>
<g id="a_node7"><a xlink:href="../../d6/d9c/door_8qc.html#a337674d43d5772b78184bf240a40f104" target="_top" xlink:title="door_use">
<polygon fill="none" stroke="black" points="855.5,-152.5 855.5,-171.5 916.5,-171.5 916.5,-152.5 855.5,-152.5"/>
<text text-anchor="middle" x="886" y="-159.5" font-family="Helvetica,sans-Serif" font-size="10.00">door_use</text>
</a>
</g>
</g>
<!-- Node6&#45;&gt;Node7 -->
<g id="edge6" class="edge"><title>Node6&#45;&gt;Node7</title>
<path fill="none" stroke="midnightblue" d="M768.266,-162C795.225,-162 830.619,-162 855.337,-162"/>
<polygon fill="midnightblue" stroke="midnightblue" points="768.021,-158.5 758.021,-162 768.021,-165.5 768.021,-158.5"/>
</g>
<!-- Node7&#45;&gt;Node5 -->
<g id="edge9" class="edge"><title>Node7&#45;&gt;Node5</title>
<path fill="none" stroke="midnightblue" d="M926.876,-168.249C946.449,-171.078 970.407,-174.187 992,-176 1140.89,-188.499 1182.65,-199.594 1328,-165 1342.19,-161.623 1357.69,-156.789 1370.39,-152.513"/>
<polygon fill="midnightblue" stroke="midnightblue" points="927.191,-164.757 916.787,-166.76 926.169,-171.682 927.191,-164.757"/>
</g>
<!-- Node8 -->
<g id="node8" class="node"><title>Node8</title>
<g id="a_node8"><a xlink:href="../../d6/d9c/door_8qc.html#a9da97d701a5bd1d7d23f76c29bb6dfc0" target="_top" xlink:title="door_damage">
<polygon fill="none" stroke="black" points="1140,-152.5 1140,-171.5 1223,-171.5 1223,-152.5 1140,-152.5"/>
<text text-anchor="middle" x="1181.5" y="-159.5" font-family="Helvetica,sans-Serif" font-size="10.00">door_damage</text>
</a>
</g>
</g>
<!-- Node7&#45;&gt;Node8 -->
<g id="edge7" class="edge"><title>Node7&#45;&gt;Node8</title>
<path fill="none" stroke="midnightblue" d="M926.976,-162C982.85,-162 1083.74,-162 1139.93,-162"/>
<polygon fill="midnightblue" stroke="midnightblue" points="926.758,-158.5 916.758,-162 926.757,-165.5 926.758,-158.5"/>
</g>
<!-- Node9 -->
<g id="node9" class="node"><title>Node9</title>
<g id="a_node9"><a xlink:href="../../d6/d9c/door_8qc.html#a573f6f3810e73517c4e7b78d5febb9f6" target="_top" xlink:title="door_trigger_touch">
<polygon fill="none" stroke="black" points="992,-114.5 992,-133.5 1099,-133.5 1099,-114.5 992,-114.5"/>
<text text-anchor="middle" x="1045.5" y="-121.5" font-family="Helvetica,sans-Serif" font-size="10.00">door_trigger_touch</text>
</a>
</g>
</g>
<!-- Node7&#45;&gt;Node9 -->
<g id="edge10" class="edge"><title>Node7&#45;&gt;Node9</title>
<path fill="none" stroke="midnightblue" d="M926.457,-152.48C950.419,-146.699 980.907,-139.343 1004.9,-133.555"/>
<polygon fill="midnightblue" stroke="midnightblue" points="925.525,-149.105 916.625,-154.852 927.167,-155.909 925.525,-149.105"/>
</g>
<!-- Node8&#45;&gt;Node5 -->
<g id="edge8" class="edge"><title>Node8&#45;&gt;Node5</title>
<path fill="none" stroke="midnightblue" d="M1233.29,-157.501C1273.7,-153.921 1329.08,-149.016 1363.95,-145.928"/>
<polygon fill="midnightblue" stroke="midnightblue" points="1232.75,-154.035 1223.1,-158.404 1233.37,-161.008 1232.75,-154.035"/>
</g>
<!-- Node10 -->
<g id="node10" class="node"><title>Node10</title>
<g id="a_node10"><a xlink:href="../../d6/d9c/door_8qc.html#ac89ee5393ec1d28f59b822a7e4b35d9e" target="_top" xlink:title="door_spawnfield">
<polygon fill="none" stroke="black" points="1135,-114.5 1135,-133.5 1228,-133.5 1228,-114.5 1135,-114.5"/>
<text text-anchor="middle" x="1181.5" y="-121.5" font-family="Helvetica,sans-Serif" font-size="10.00">door_spawnfield</text>
</a>
</g>
</g>
<!-- Node9&#45;&gt;Node10 -->
<g id="edge11" class="edge"><title>Node9&#45;&gt;Node10</title>
<path fill="none" stroke="midnightblue" d="M1109.09,-124C1117.68,-124 1126.37,-124 1134.6,-124"/>
<polygon fill="midnightblue" stroke="midnightblue" points="1109.08,-120.5 1099.08,-124 1109.08,-127.5 1109.08,-120.5"/>
</g>
<!-- Node11 -->
<g id="node11" class="node"><title>Node11</title>
<g id="a_node11"><a xlink:href="../../d6/d9c/door_8qc.html#a9b3dfef6f936841d5afaf00fe2875afa" target="_top" xlink:title="LinkDoors">
<polygon fill="none" stroke="black" points="1264,-114.5 1264,-133.5 1328,-133.5 1328,-114.5 1264,-114.5"/>
<text text-anchor="middle" x="1296" y="-121.5" font-family="Helvetica,sans-Serif" font-size="10.00">LinkDoors</text>
</a>
</g>
</g>
<!-- Node10&#45;&gt;Node11 -->
<g id="edge12" class="edge"><title>Node10&#45;&gt;Node11</title>
<path fill="none" stroke="midnightblue" d="M1238.42,-124C1247.13,-124 1255.84,-124 1263.74,-124"/>
<polygon fill="midnightblue" stroke="midnightblue" points="1238.26,-120.5 1228.26,-124 1238.26,-127.5 1238.26,-120.5"/>
</g>
<!-- Node11&#45;&gt;Node5 -->
<g id="edge13" class="edge"><title>Node11&#45;&gt;Node5</title>
<path fill="none" stroke="midnightblue" d="M1337.97,-131.784C1346.58,-133.42 1355.56,-135.127 1363.85,-136.701"/>
<polygon fill="midnightblue" stroke="midnightblue" points="1338.57,-128.336 1328.09,-129.908 1337.26,-135.213 1338.57,-128.336"/>
</g>
<!-- Node12&#45;&gt;Node13 -->
<g id="edge15" class="edge"><title>Node12&#45;&gt;Node13</title>
<path fill="none" stroke="midnightblue" d="M527.137,-124C540.644,-124 555.114,-124 567.786,-124"/>
<polygon fill="midnightblue" stroke="midnightblue" points="527.041,-120.5 517.041,-124 527.041,-127.5 527.041,-120.5"/>
</g>
<!-- Node13&#45;&gt;Node4 -->
<g id="edge16" class="edge"><title>Node13&#45;&gt;Node4</title>
<path fill="none" stroke="midnightblue" d="M646.211,-111.32C662.695,-106.185 681.41,-100.356 696.724,-95.5859"/>
<polygon fill="midnightblue" stroke="midnightblue" points="644.792,-108.095 636.286,-114.411 646.874,-114.779 644.792,-108.095"/>
</g>
<!-- Node13&#45;&gt;Node6 -->
<g id="edge17" class="edge"><title>Node13&#45;&gt;Node6</title>
<path fill="none" stroke="midnightblue" d="M646.118,-136.652C663.384,-142.03 683.112,-148.174 698.819,-153.067"/>
<polygon fill="midnightblue" stroke="midnightblue" points="646.874,-133.221 636.286,-133.589 644.792,-139.905 646.874,-133.221"/>
</g>
<!-- Node15 -->
<g id="node15" class="node"><title>Node15</title>
<g id="a_node15"><a xlink:href="../../de/d2e/train_8qc.html#a5b28eb19effb650df0babea0df07810f" target="_top" xlink:title="train_wait">
<polygon fill="none" stroke="black" points="447.5,-418.5 447.5,-437.5 509.5,-437.5 509.5,-418.5 447.5,-418.5"/>
<text text-anchor="middle" x="478.5" y="-425.5" font-family="Helvetica,sans-Serif" font-size="10.00">train_wait</text>
</a>
</g>
</g>
<!-- Node14&#45;&gt;Node15 -->
<g id="edge20" class="edge"><title>Node14&#45;&gt;Node15</title>
<path fill="none" stroke="midnightblue" d="M379.515,-395.076C406.196,-401.312 439.509,-410.899 459.613,-418.432"/>
<polygon fill="midnightblue" stroke="midnightblue" points="380.179,-391.638 369.655,-392.862 378.645,-398.468 380.179,-391.638"/>
</g>
<!-- Node15&#45;&gt;Node14 -->
<g id="edge21" class="edge"><title>Node15&#45;&gt;Node14</title>
<path fill="none" stroke="midnightblue" d="M437.484,-423.272C410.591,-417.056 376.441,-407.264 355.952,-399.592"/>
<polygon fill="midnightblue" stroke="midnightblue" points="436.873,-426.721 447.393,-425.467 438.387,-419.887 436.873,-426.721"/>
</g>
<!-- Node17 -->
<g id="node17" class="node"><title>Node17</title>
<g id="a_node17"><a xlink:href="../../d0/d1a/platforms_8qh.html#a6c6317fd5daed89f2a4fd761565a5714" target="_top" xlink:title="plat_crush">
<polygon fill="none" stroke="black" points="695.5,-285.5 695.5,-304.5 761.5,-304.5 761.5,-285.5 695.5,-285.5"/>
<text text-anchor="middle" x="728.5" y="-292.5" font-family="Helvetica,sans-Serif" font-size="10.00">plat_crush</text>
</a>
</g>
</g>
<!-- Node16&#45;&gt;Node17 -->
<g id="edge23" class="edge"><title>Node16&#45;&gt;Node17</title>
<path fill="none" stroke="midnightblue" d="M388.704,-295C470.095,-295 627.609,-295 695.302,-295"/>
<polygon fill="midnightblue" stroke="midnightblue" points="388.216,-291.5 378.216,-295 388.216,-298.5 388.216,-291.5"/>
</g>
<!-- Node18 -->
<g id="node18" class="node"><title>Node18</title>
<g id="a_node18"><a xlink:href="../../d1/d08/platforms_8qc.html#acb0f1d2255974b76895ebafac4d8bd16" target="_top" xlink:title="plat_hit_top">
<polygon fill="none" stroke="black" points="442,-228.5 442,-247.5 515,-247.5 515,-228.5 442,-228.5"/>
<text text-anchor="middle" x="478.5" y="-235.5" font-family="Helvetica,sans-Serif" font-size="10.00">plat_hit_top</text>
</a>
</g>
</g>
<!-- Node16&#45;&gt;Node18 -->
<g id="edge24" class="edge"><title>Node16&#45;&gt;Node18</title>
<path fill="none" stroke="midnightblue" d="M368.174,-281.248C384.823,-273.806 405.932,-264.606 425,-257 433.103,-253.768 441.997,-250.46 450.125,-247.529"/>
<polygon fill="midnightblue" stroke="midnightblue" points="366.621,-278.109 358.936,-285.402 369.492,-284.494 366.621,-278.109"/>
</g>
<!-- Node22 -->
<g id="node22" class="node"><title>Node22</title>
<g id="a_node22"><a xlink:href="../../d0/d1a/platforms_8qh.html#a83d9da1182ae8db2d73dbf2ea1aef766" target="_top" xlink:title="plat_outside_touch">
<polygon fill="none" stroke="black" points="425,-266.5 425,-285.5 532,-285.5 532,-266.5 425,-266.5"/>
<text text-anchor="middle" x="478.5" y="-273.5" font-family="Helvetica,sans-Serif" font-size="10.00">plat_outside_touch</text>
</a>
</g>
</g>
<!-- Node16&#45;&gt;Node22 -->
<g id="edge29" class="edge"><title>Node16&#45;&gt;Node22</title>
<path fill="none" stroke="midnightblue" d="M388.475,-288.125C400.274,-286.518 412.872,-284.802 424.767,-283.182"/>
<polygon fill="midnightblue" stroke="midnightblue" points="387.785,-284.687 378.349,-289.504 388.73,-291.623 387.785,-284.687"/>
</g>
<!-- Node23 -->
<g id="node23" class="node"><title>Node23</title>
<g id="a_node23"><a xlink:href="../../d0/d1a/platforms_8qh.html#a9ea0c4bf592308ee089a459c0bc0c3d2" target="_top" xlink:title="plat_trigger_use">
<polygon fill="none" stroke="black" points="431.5,-380.5 431.5,-399.5 525.5,-399.5 525.5,-380.5 431.5,-380.5"/>
<text text-anchor="middle" x="478.5" y="-387.5" font-family="Helvetica,sans-Serif" font-size="10.00">plat_trigger_use</text>
</a>
</g>
</g>
<!-- Node16&#45;&gt;Node23 -->
<g id="edge30" class="edge"><title>Node16&#45;&gt;Node23</title>
<path fill="none" stroke="midnightblue" d="M353.913,-312.222C370.336,-329.141 397.383,-354.721 425,-371 431.263,-374.692 438.362,-377.851 445.27,-380.473"/>
<polygon fill="midnightblue" stroke="midnightblue" points="356.177,-309.524 346.749,-304.691 351.105,-314.348 356.177,-309.524"/>
</g>
<!-- Node25 -->
<g id="node25" class="node"><title>Node25</title>
<g id="a_node25"><a xlink:href="../../d1/d08/platforms_8qc.html#a1ba5fd84a80ede4a14b6d2b848cb6a2a" target="_top" xlink:title="plat_use">
<polygon fill="none" stroke="black" points="450,-342.5 450,-361.5 507,-361.5 507,-342.5 450,-342.5"/>
<text text-anchor="middle" x="478.5" y="-349.5" font-family="Helvetica,sans-Serif" font-size="10.00">plat_use</text>
</a>
</g>
</g>
<!-- Node16&#45;&gt;Node25 -->
<g id="edge32" class="edge"><title>Node16&#45;&gt;Node25</title>
<path fill="none" stroke="midnightblue" d="M370.65,-308.341C396.235,-318.795 431.214,-333.087 454.075,-342.428"/>
<polygon fill="midnightblue" stroke="midnightblue" points="371.93,-305.083 361.349,-304.541 369.282,-311.563 371.93,-305.083"/>
</g>
<!-- Node18&#45;&gt;Node19 -->
<g id="edge25" class="edge"><title>Node18&#45;&gt;Node19</title>
<path fill="none" stroke="midnightblue" d="M525.428,-238C540.086,-238 556.031,-238 569.668,-238"/>
<polygon fill="midnightblue" stroke="midnightblue" points="525.033,-234.5 515.033,-238 525.033,-241.5 525.033,-234.5"/>
</g>
<!-- Node19&#45;&gt;Node17 -->
<g id="edge28" class="edge"><title>Node19&#45;&gt;Node17</title>
<path fill="none" stroke="midnightblue" d="M635.245,-251.897C657.504,-262.297 687.373,-276.252 707.013,-285.428"/>
<polygon fill="midnightblue" stroke="midnightblue" points="636.462,-248.603 625.92,-247.541 633.498,-254.944 636.462,-248.603"/>
</g>
<!-- Node20 -->
<g id="node20" class="node"><title>Node20</title>
<g id="a_node20"><a xlink:href="../../d0/d1a/platforms_8qh.html#af1745ccc6ccfebfccc05a1bc9839b1f4" target="_top" xlink:title="plat_center_touch">
<polygon fill="none" stroke="black" points="677,-228.5 677,-247.5 780,-247.5 780,-228.5 677,-228.5"/>
<text text-anchor="middle" x="728.5" y="-235.5" font-family="Helvetica,sans-Serif" font-size="10.00">plat_center_touch</text>
</a>
</g>
</g>
<!-- Node19&#45;&gt;Node20 -->
<g id="edge26" class="edge"><title>Node19&#45;&gt;Node20</title>
<path fill="none" stroke="midnightblue" d="M649.262,-238C658.117,-238 667.499,-238 676.575,-238"/>
<polygon fill="midnightblue" stroke="midnightblue" points="649.16,-234.5 639.16,-238 649.16,-241.5 649.16,-234.5"/>
</g>
<!-- Node21 -->
<g id="node21" class="node"><title>Node21</title>
<g id="a_node21"><a xlink:href="../../d1/d08/platforms_8qc.html#a461a9546d5500a4f4bb4ee350099a500" target="_top" xlink:title="plat_spawn_inside_trigger">
<polygon fill="none" stroke="black" points="816,-228.5 816,-247.5 956,-247.5 956,-228.5 816,-228.5"/>
<text text-anchor="middle" x="886" y="-235.5" font-family="Helvetica,sans-Serif" font-size="10.00">plat_spawn_inside_trigger</text>
</a>
</g>
</g>
<!-- Node20&#45;&gt;Node21 -->
<g id="edge27" class="edge"><title>Node20&#45;&gt;Node21</title>
<path fill="none" stroke="midnightblue" d="M790.438,-238C798.787,-238 807.408,-238 815.89,-238"/>
<polygon fill="midnightblue" stroke="midnightblue" points="790.417,-234.5 780.417,-238 790.416,-241.5 790.417,-234.5"/>
</g>
<!-- Node24 -->
<g id="node24" class="node"><title>Node24</title>
<g id="a_node24"><a xlink:href="../../d1/d08/platforms_8qc.html#ad31395eeb93f5d3f550e8ecfeaf90ce5" target="_top" xlink:title="plat_reset">
<polygon fill="none" stroke="black" points="572,-361.5 572,-380.5 637,-380.5 637,-361.5 572,-361.5"/>
<text text-anchor="middle" x="604.5" y="-368.5" font-family="Helvetica,sans-Serif" font-size="10.00">plat_reset</text>
</a>
</g>
</g>
<!-- Node23&#45;&gt;Node24 -->
<g id="edge31" class="edge"><title>Node23&#45;&gt;Node24</title>
<path fill="none" stroke="midnightblue" d="M535.581,-381.407C548.071,-379.493 560.885,-377.53 571.969,-375.831"/>
<polygon fill="midnightblue" stroke="midnightblue" points="535.028,-377.951 525.673,-382.925 536.088,-384.87 535.028,-377.951"/>
</g>
<!-- Node25&#45;&gt;Node24 -->
<g id="edge33" class="edge"><title>Node25&#45;&gt;Node24</title>
<path fill="none" stroke="midnightblue" d="M517.387,-357.805C534.757,-360.467 555.117,-363.586 571.678,-366.124"/>
<polygon fill="midnightblue" stroke="midnightblue" points="517.434,-354.272 507.02,-356.217 516.374,-361.191 517.434,-354.272"/>
</g>
</g>
</svg>
