<?xml version="1.0" encoding="UTF-8" standalone="no"?>
<!DOCTYPE svg PUBLIC "-//W3C//DTD SVG 1.1//EN"
 "http://www.w3.org/Graphics/SVG/1.1/DTD/svg11.dtd">
<!-- Generated by graphviz version 2.26.3 (20100126.1600)
 -->
<!-- Title: G Pages: 1 -->
<svg width="284pt" height="70pt"
 viewBox="0.00 0.00 284.00 70.00" xmlns="http://www.w3.org/2000/svg" xmlns:xlink="http://www.w3.org/1999/xlink">
<g id="graph1" class="graph" transform="scale(1 1) rotate(0) translate(4 66)">
<title>G</title>
<!-- Node1 -->
<g id="node1" class="node"><title>Node1</title>
<polygon fill="#bfbfbf" stroke="black" points="0.5,-20.5 0.5,-41.5 143.5,-41.5 143.5,-20.5 0.5,-20.5"/>
<text text-anchor="middle" x="72" y="-28.5" font-family="Helvetica,sans-Serif" font-size="10.00">pathlib_expandnode_octagon</text>
</g>
<!-- Node2 -->
<g id="node3" class="node"><title>Node2</title>
<a xlink:href="../../dd/d70/pathlib_8qh.html#ac360a3457c62cec062c5180eb5751509" target="_top" xlink:title="pathlib_makenode">
<polygon fill="none" stroke="black" points="180.5,-40.5 180.5,-61.5 275.5,-61.5 275.5,-40.5 180.5,-40.5"/>
<text text-anchor="middle" x="228" y="-48.5" font-family="Helvetica,sans-Serif" font-size="10.00">pathlib_makenode</text>
</a>
</g>
<!-- Node1&#45;&gt;Node2 -->
<g id="edge2" class="edge"><title>Node1&#45;&gt;Node2</title>
<path fill="none" stroke="midnightblue" d="M143.608,-40.1805C152.589,-41.3319 161.684,-42.4979 170.411,-43.6169"/>
<polygon fill="midnightblue" stroke="midnightblue" points="170.096,-47.105 180.46,-44.9051 170.986,-40.1618 170.096,-47.105"/>
</g>
<!-- Node3 -->
<g id="node5" class="node"><title>Node3</title>
<a xlink:href="../../d4/d0c/csprogsdefs_8qc.html#a4f0b78b1785821ba47129edb68e70f9e" target="_top" xlink:title="vector">
<polygon fill="none" stroke="black" points="206,-0.5 206,-21.5 250,-21.5 250,-0.5 206,-0.5"/>
<text text-anchor="middle" x="228" y="-8.5" font-family="Helvetica,sans-Serif" font-size="10.00">vector</text>
</a>
</g>
<!-- Node1&#45;&gt;Node3 -->
<g id="edge4" class="edge"><title>Node1&#45;&gt;Node3</title>
<path fill="none" stroke="midnightblue" d="M143.608,-21.8195C161.784,-19.4893 180.426,-17.0993 195.55,-15.1602"/>
<polygon fill="midnightblue" stroke="midnightblue" points="196.411,-18.5786 205.884,-13.8353 195.521,-11.6355 196.411,-18.5786"/>
</g>
</g>
</svg>
