<?xml version="1.0" encoding="UTF-8" standalone="no"?>
<!DOCTYPE svg PUBLIC "-//W3C//DTD SVG 1.1//EN"
 "http://www.w3.org/Graphics/SVG/1.1/DTD/svg11.dtd">
<!-- Generated by graphviz version 2.36.0 (20140111.2315)
 -->
<!-- Title: Weapon::wr_setup Pages: 1 -->
<svg width="580pt" height="28pt"
 viewBox="0.00 0.00 580.00 28.00" xmlns="http://www.w3.org/2000/svg" xmlns:xlink="http://www.w3.org/1999/xlink">
<g id="graph0" class="graph" transform="scale(1 1) rotate(0) translate(4 24)">
<title>Weapon::wr_setup</title>
<!-- Node1 -->
<g id="node1" class="node"><title>Node1</title>
<polygon fill="#bfbfbf" stroke="black" points="0,-0.5 0,-19.5 98,-19.5 98,-0.5 0,-0.5"/>
<text text-anchor="middle" x="49" y="-7.5" font-family="Helvetica,sans-Serif" font-size="10.00">Weapon::wr_setup</text>
</g>
<!-- Node2 -->
<g id="node2" class="node"><title>Node2</title>
<g id="a_node2"><a xlink:href="../../da/db7/weaponsystem_8qh.html#ab30371fc4eb86efcfbb9ee8a3863f932" target="_top" xlink:title="W_WeaponFrame">
<polygon fill="none" stroke="black" points="134.5,-0.5 134.5,-19.5 229.5,-19.5 229.5,-0.5 134.5,-0.5"/>
<text text-anchor="middle" x="182" y="-7.5" font-family="Helvetica,sans-Serif" font-size="10.00">W_WeaponFrame</text>
</a>
</g>
</g>
<!-- Node1&#45;&gt;Node2 -->
<g id="edge1" class="edge"><title>Node1&#45;&gt;Node2</title>
<path fill="none" stroke="midnightblue" d="M108.174,-10C116.911,-10 125.824,-10 134.281,-10"/>
<polygon fill="midnightblue" stroke="midnightblue" points="108.036,-6.5001 98.0357,-10 108.036,-13.5001 108.036,-6.5001"/>
</g>
<!-- Node3 -->
<g id="node3" class="node"><title>Node3</title>
<g id="a_node3"><a xlink:href="../../da/d53/cl__client_8qc.html#a29ca770d01fe7827ac339d6eeea2e733" target="_top" xlink:title="PlayerPreThink">
<polygon fill="none" stroke="black" points="266.5,-0.5 266.5,-19.5 349.5,-19.5 349.5,-0.5 266.5,-0.5"/>
<text text-anchor="middle" x="308" y="-7.5" font-family="Helvetica,sans-Serif" font-size="10.00">PlayerPreThink</text>
</a>
</g>
</g>
<!-- Node2&#45;&gt;Node3 -->
<g id="edge2" class="edge"><title>Node2&#45;&gt;Node3</title>
<path fill="none" stroke="midnightblue" d="M239.595,-10C248.607,-10 257.773,-10 266.323,-10"/>
<polygon fill="midnightblue" stroke="midnightblue" points="239.526,-6.5001 229.526,-10 239.526,-13.5001 239.526,-6.5001"/>
</g>
<!-- Node4 -->
<g id="node4" class="node"><title>Node4</title>
<g id="a_node4"><a xlink:href="../../d5/dd1/playerdemo_8qh.html#a3d6b65b19141e5215083447705deb88c" target="_top" xlink:title="playerdemo_read">
<polygon fill="none" stroke="black" points="386.5,-0.5 386.5,-19.5 477.5,-19.5 477.5,-0.5 386.5,-0.5"/>
<text text-anchor="middle" x="432" y="-7.5" font-family="Helvetica,sans-Serif" font-size="10.00">playerdemo_read</text>
</a>
</g>
</g>
<!-- Node3&#45;&gt;Node4 -->
<g id="edge3" class="edge"><title>Node3&#45;&gt;Node4</title>
<path fill="none" stroke="midnightblue" d="M359.793,-10C368.609,-10 377.717,-10 386.354,-10"/>
<polygon fill="midnightblue" stroke="midnightblue" points="359.624,-6.5001 349.624,-10 359.624,-13.5001 359.624,-6.5001"/>
</g>
<!-- Node5 -->
<g id="node5" class="node"><title>Node5</title>
<g id="a_node5"><a xlink:href="../../dc/ddd/player_8qc.html#a672a0ccf602525346ee1acb1337367fe" target="_top" xlink:title="PM_Main">
<polygon fill="none" stroke="black" points="514,-0.5 514,-19.5 572,-19.5 572,-0.5 514,-0.5"/>
<text text-anchor="middle" x="543" y="-7.5" font-family="Helvetica,sans-Serif" font-size="10.00">PM_Main</text>
</a>
</g>
</g>
<!-- Node4&#45;&gt;Node5 -->
<g id="edge4" class="edge"><title>Node4&#45;&gt;Node5</title>
<path fill="none" stroke="midnightblue" d="M487.781,-10C496.799,-10 505.805,-10 513.815,-10"/>
<polygon fill="midnightblue" stroke="midnightblue" points="487.649,-6.5001 477.649,-10 487.649,-13.5001 487.649,-6.5001"/>
</g>
</g>
</svg>
