<?xml version="1.0" encoding="UTF-8" standalone="no"?>
<!DOCTYPE svg PUBLIC "-//W3C//DTD SVG 1.1//EN"
 "http://www.w3.org/Graphics/SVG/1.1/DTD/svg11.dtd">
<!-- Generated by graphviz version 2.36.0 (20140111.2315)
 -->
<!-- Title: Monster::mr_think Pages: 1 -->
<svg width="1184pt" height="133pt"
 viewBox="0.00 0.00 1184.00 133.09" xmlns="http://www.w3.org/2000/svg" xmlns:xlink="http://www.w3.org/1999/xlink">
<g id="graph0" class="graph" transform="scale(1 1) rotate(0) translate(4 129.089)">
<title>Monster::mr_think</title>
<!-- Node1 -->
<g id="node1" class="node"><title>Node1</title>
<polygon fill="#bfbfbf" stroke="black" points="0.5,-48.5893 0.5,-67.5893 95.5,-67.5893 95.5,-48.5893 0.5,-48.5893"/>
<text text-anchor="middle" x="48" y="-55.5893" font-family="Helvetica,sans-Serif" font-size="10.00">Monster::mr_think</text>
</g>
<!-- Node2 -->
<g id="node2" class="node"><title>Node2</title>
<g id="a_node2"><a xlink:href="../../da/d4e/sv__monsters_8qc.html#af743ad44b5406594d65a3cc6cc434503" target="_top" xlink:title="Monster_Think">
<polygon fill="none" stroke="black" points="132.5,-48.5893 132.5,-67.5893 213.5,-67.5893 213.5,-48.5893 132.5,-48.5893"/>
<text text-anchor="middle" x="173" y="-55.5893" font-family="Helvetica,sans-Serif" font-size="10.00">Monster_Think</text>
</a>
</g>
</g>
<!-- Node1&#45;&gt;Node2 -->
<g id="edge1" class="edge"><title>Node1&#45;&gt;Node2</title>
<path fill="none" stroke="midnightblue" d="M105.578,-58.0893C114.594,-58.0893 123.752,-58.0893 132.27,-58.0893"/>
<polygon fill="midnightblue" stroke="midnightblue" points="105.501,-54.5894 95.501,-58.0893 105.501,-61.5894 105.501,-54.5894"/>
</g>
<!-- Node3 -->
<g id="node3" class="node"><title>Node3</title>
<g id="a_node3"><a xlink:href="../../da/d4e/sv__monsters_8qc.html#ae8583f9bde31f60a7137868d603e2b58" target="_top" xlink:title="Monster_Spawn_Setup">
<polygon fill="none" stroke="black" points="250,-48.5893 250,-67.5893 368,-67.5893 368,-48.5893 250,-48.5893"/>
<text text-anchor="middle" x="309" y="-55.5893" font-family="Helvetica,sans-Serif" font-size="10.00">Monster_Spawn_Setup</text>
</a>
</g>
</g>
<!-- Node2&#45;&gt;Node3 -->
<g id="edge2" class="edge"><title>Node2&#45;&gt;Node3</title>
<path fill="none" stroke="midnightblue" d="M223.879,-58.0893C232.297,-58.0893 241.102,-58.0893 249.711,-58.0893"/>
<polygon fill="midnightblue" stroke="midnightblue" points="223.842,-54.5894 213.842,-58.0893 223.842,-61.5894 223.842,-54.5894"/>
</g>
<!-- Node4 -->
<g id="node4" class="node"><title>Node4</title>
<g id="a_node4"><a xlink:href="../../d8/dc1/sv__monsters_8qh.html#a1e264a94238b71678a588bef93292d8a" target="_top" xlink:title="Monster_Spawn">
<polygon fill="none" stroke="black" points="404.5,-48.5893 404.5,-67.5893 491.5,-67.5893 491.5,-48.5893 404.5,-48.5893"/>
<text text-anchor="middle" x="448" y="-55.5893" font-family="Helvetica,sans-Serif" font-size="10.00">Monster_Spawn</text>
</a>
</g>
</g>
<!-- Node3&#45;&gt;Node4 -->
<g id="edge3" class="edge"><title>Node3&#45;&gt;Node4</title>
<path fill="none" stroke="midnightblue" d="M378.385,-58.0893C387.177,-58.0893 395.972,-58.0893 404.19,-58.0893"/>
<polygon fill="midnightblue" stroke="midnightblue" points="378.1,-54.5894 368.1,-58.0893 378.1,-61.5894 378.1,-54.5894"/>
</g>
<!-- Node5 -->
<g id="node5" class="node"><title>Node5</title>
<g id="a_node5"><a xlink:href="../../da/d4e/sv__monsters_8qc.html#ae9c174dd3b336a7270caba2894224d0f" target="_top" xlink:title="Monster_Appear">
<polygon fill="none" stroke="black" points="533,-105.589 533,-124.589 621,-124.589 621,-105.589 533,-105.589"/>
<text text-anchor="middle" x="577" y="-112.589" font-family="Helvetica,sans-Serif" font-size="10.00">Monster_Appear</text>
</a>
</g>
</g>
<!-- Node4&#45;&gt;Node5 -->
<g id="edge4" class="edge"><title>Node4&#45;&gt;Node5</title>
<path fill="none" stroke="midnightblue" d="M479.652,-71.8467C502.857,-82.2612 534.136,-96.3002 554.674,-105.518"/>
<polygon fill="midnightblue" stroke="midnightblue" points="480.813,-68.5315 470.257,-67.6298 477.947,-74.9177 480.813,-68.5315"/>
</g>
<!-- Node7 -->
<g id="node7" class="node"><title>Node7</title>
<g id="a_node7"><a xlink:href="../../da/d4e/sv__monsters_8qc.html#a2b57b31035d01a69ccd6e8c6970ed5dd" target="_top" xlink:title="Monster_Respawn">
<polygon fill="none" stroke="black" points="528,-29.5893 528,-48.5893 626,-48.5893 626,-29.5893 528,-29.5893"/>
<text text-anchor="middle" x="577" y="-36.5893" font-family="Helvetica,sans-Serif" font-size="10.00">Monster_Respawn</text>
</a>
</g>
</g>
<!-- Node4&#45;&gt;Node7 -->
<g id="edge7" class="edge"><title>Node4&#45;&gt;Node7</title>
<path fill="none" stroke="midnightblue" d="M501.702,-50.2047C510.416,-48.9011 519.409,-47.5557 527.999,-46.2705"/>
<polygon fill="midnightblue" stroke="midnightblue" points="501.015,-46.7686 491.642,-51.7097 502.05,-53.6915 501.015,-46.7686"/>
</g>
<!-- Node6 -->
<g id="node6" class="node"><title>Node6</title>
<g id="a_node6"><a xlink:href="../../da/d4e/sv__monsters_8qc.html#a0c5d94fd195b12611f3bd45c0546bfca" target="_top" xlink:title="Monster_Appear_Check">
<polygon fill="none" stroke="black" points="662,-86.5893 662,-105.589 784,-105.589 784,-86.5893 662,-86.5893"/>
<text text-anchor="middle" x="723" y="-93.5893" font-family="Helvetica,sans-Serif" font-size="10.00">Monster_Appear_Check</text>
</a>
</g>
</g>
<!-- Node5&#45;&gt;Node6 -->
<g id="edge5" class="edge"><title>Node5&#45;&gt;Node6</title>
<path fill="none" stroke="midnightblue" d="M631.326,-108.053C641.247,-106.744 651.677,-105.368 661.788,-104.034"/>
<polygon fill="midnightblue" stroke="midnightblue" points="630.661,-104.611 621.205,-109.389 631.577,-111.55 630.661,-104.611"/>
</g>
<!-- Node6&#45;&gt;Node4 -->
<g id="edge6" class="edge"><title>Node6&#45;&gt;Node4</title>
<path fill="none" stroke="midnightblue" d="M651.7,-86.304C601.086,-79.2587 534.447,-69.9831 491.656,-64.0268"/>
<polygon fill="midnightblue" stroke="midnightblue" points="651.533,-89.8144 661.92,-87.7266 652.498,-82.8812 651.533,-89.8144"/>
</g>
<!-- Node8 -->
<g id="node8" class="node"><title>Node8</title>
<g id="a_node8"><a xlink:href="../../da/d4e/sv__monsters_8qc.html#a64003301dcc44254935df433ea236780" target="_top" xlink:title="Monster_Dead_Fade">
<polygon fill="none" stroke="black" points="669.5,-29.5893 669.5,-48.5893 776.5,-48.5893 776.5,-29.5893 669.5,-29.5893"/>
<text text-anchor="middle" x="723" y="-36.5893" font-family="Helvetica,sans-Serif" font-size="10.00">Monster_Dead_Fade</text>
</a>
</g>
</g>
<!-- Node7&#45;&gt;Node8 -->
<g id="edge8" class="edge"><title>Node7&#45;&gt;Node8</title>
<path fill="none" stroke="midnightblue" d="M636.518,-39.0893C647.29,-39.0893 658.48,-39.0893 669.076,-39.0893"/>
<polygon fill="midnightblue" stroke="midnightblue" points="636.351,-35.5894 626.351,-39.0893 636.35,-42.5894 636.351,-35.5894"/>
</g>
<!-- Node9 -->
<g id="node9" class="node"><title>Node9</title>
<g id="a_node9"><a xlink:href="../../da/d4e/sv__monsters_8qc.html#a304ebddf2011e967eb6e3d0da5b4a760" target="_top" xlink:title="Monster_Dead_Think">
<polygon fill="none" stroke="black" points="820,-29.5893 820,-48.5893 930,-48.5893 930,-29.5893 820,-29.5893"/>
<text text-anchor="middle" x="875" y="-36.5893" font-family="Helvetica,sans-Serif" font-size="10.00">Monster_Dead_Think</text>
</a>
</g>
</g>
<!-- Node8&#45;&gt;Node9 -->
<g id="edge9" class="edge"><title>Node8&#45;&gt;Node9</title>
<path fill="none" stroke="midnightblue" d="M787.162,-39.0893C798.022,-39.0893 809.222,-39.0893 819.819,-39.0893"/>
<polygon fill="midnightblue" stroke="midnightblue" points="786.884,-35.5894 776.884,-39.0893 786.884,-42.5894 786.884,-35.5894"/>
</g>
<!-- Node10 -->
<g id="node10" class="node"><title>Node10</title>
<g id="a_node10"><a xlink:href="../../da/d4e/sv__monsters_8qc.html#a9fe966953fdc6ae52562b48fe4776295" target="_top" xlink:title="Monster_Dead">
<polygon fill="none" stroke="black" points="966,-29.5893 966,-48.5893 1046,-48.5893 1046,-29.5893 966,-29.5893"/>
<text text-anchor="middle" x="1006" y="-36.5893" font-family="Helvetica,sans-Serif" font-size="10.00">Monster_Dead</text>
</a>
</g>
</g>
<!-- Node9&#45;&gt;Node10 -->
<g id="edge10" class="edge"><title>Node9&#45;&gt;Node10</title>
<path fill="none" stroke="midnightblue" d="M940.401,-39.0893C949.009,-39.0893 957.62,-39.0893 965.619,-39.0893"/>
<polygon fill="midnightblue" stroke="midnightblue" points="940.334,-35.5894 930.334,-39.0893 940.334,-42.5894 940.334,-35.5894"/>
</g>
<!-- Node11 -->
<g id="node11" class="node"><title>Node11</title>
<g id="a_node11"><a xlink:href="../../da/d4e/sv__monsters_8qc.html#a07727352fce183ccb8e2db2f168ad393" target="_top" xlink:title="Monster_Damage">
<polygon fill="none" stroke="black" points="1082,-10.5893 1082,-29.5893 1176,-29.5893 1176,-10.5893 1082,-10.5893"/>
<text text-anchor="middle" x="1129" y="-17.5893" font-family="Helvetica,sans-Serif" font-size="10.00">Monster_Damage</text>
</a>
</g>
</g>
<!-- Node10&#45;&gt;Node11 -->
<g id="edge11" class="edge"><title>Node10&#45;&gt;Node11</title>
<path fill="none" stroke="midnightblue" d="M1056.34,-31.3421C1064.74,-30.0231 1073.43,-28.6575 1081.75,-27.3516"/>
<polygon fill="midnightblue" stroke="midnightblue" points="1055.62,-27.9116 1046.29,-32.9206 1056.71,-34.8269 1055.62,-27.9116"/>
</g>
<!-- Node11&#45;&gt;Node4 -->
<g id="edge12" class="edge"><title>Node11&#45;&gt;Node4</title>
<path fill="none" stroke="midnightblue" d="M1071.47,-13.3831C1020.46,-7.91417 943.316,-1.08933 876,-1.08933 722,-1.08933 722,-1.08933 722,-1.08933 635.365,-1.08933 611.427,3.26799 528,-20.0893 504.844,-26.5725 480.178,-39.528 464.687,-48.4969"/>
<polygon fill="midnightblue" stroke="midnightblue" points="1071.31,-16.8862 1081.63,-14.4915 1072.07,-9.92751 1071.31,-16.8862"/>
</g>
</g>
</svg>
