<?xml version="1.0" encoding="UTF-8" standalone="no"?>
<!DOCTYPE svg PUBLIC "-//W3C//DTD SVG 1.1//EN"
 "http://www.w3.org/Graphics/SVG/1.1/DTD/svg11.dtd">
<!-- Generated by graphviz version 2.36.0 (20140111.2315)
 -->
<!-- Title: Monster::mr_death Pages: 1 -->
<!--zoomable 170 -->
<svg id="main" version="1.1" xmlns="http://www.w3.org/2000/svg" xmlns:xlink="http://www.w3.org/1999/xlink" xml:space="preserve" onload="init(evt)">
<style type="text/css"><![CDATA[
.edge:hover path { stroke: red; }
.edge:hover polygon { stroke: red; fill: red; }
]]></style>
<script type="text/javascript"><![CDATA[
var edges = document.getElementsByTagName('g');
if (edges && edges.length) {
  for (var i=0;i<edges.length;i++) {
    if (edges[i].id.substr(0,4)=='edge') {
      edges[i].setAttribute('class','edge');
    }
  }
}
]]></script>
        <defs>
                <circle id="rim" cx="0" cy="0" r="7"/>
                <circle id="rim2" cx="0" cy="0" r="3.5"/>
                <g id="zoomPlus">
                        <use xlink:href="#rim" fill="#404040">
                                <set attributeName="fill" to="#808080" begin="zoomplus.mouseover" end="zoomplus.mouseout"/>
                        </use>
                        <path d="M-4,0h8M0,-4v8" fill="none" stroke="white" stroke-width="1.5" pointer-events="none"/>
                </g>
                <g id="zoomMin">
                        <use xlink:href="#rim" fill="#404040">
                                <set attributeName="fill" to="#808080" begin="zoomminus.mouseover" end="zoomminus.mouseout"/>
                        </use>
                        <path d="M-4,0h8" fill="none" stroke="white" stroke-width="1.5" pointer-events="none"/>
                </g>
                <g id="dirArrow">
                        <path fill="none" stroke="white" stroke-width="1.5" d="M0,-3.0v7 M-2.5,-0.5L0,-3.0L2.5,-0.5"/>
                </g>
               <g id="resetDef">
                       <use xlink:href="#rim2" fill="#404040">
                               <set attributeName="fill" to="#808080" begin="reset.mouseover" end="reset.mouseout"/>
                       </use>
               </g>
        </defs>

<script type="text/javascript">
var viewWidth = 934;
var viewHeight = 170;
var sectionId = 'dynsection-4';
</script>
<script xlink:href="../../svgpan.js"/>
<svg id="graph" class="graph">
<g id="viewport">
<title>Monster::mr_death</title>
<!-- Node1 -->
<g id="node1" class="node"><title>Node1</title>
<polygon fill="#bfbfbf" stroke="black" points="0,-18.5 0,-37.5 98,-37.5 98,-18.5 0,-18.5"/>
<text text-anchor="middle" x="49" y="-25.5" font-family="Helvetica,sans-Serif" font-size="10.00">Monster::mr_death</text>
</g>
<!-- Node2 -->
<g id="node2" class="node"><title>Node2</title>
<g id="a_node2"><a xlink:href="../../da/d4e/sv__monsters_8qc.html#a9fe966953fdc6ae52562b48fe4776295" target="_top" xlink:title="Monster_Dead">
<polygon fill="none" stroke="black" points="134,-18.5 134,-37.5 214,-37.5 214,-18.5 134,-18.5"/>
<text text-anchor="middle" x="174" y="-25.5" font-family="Helvetica,sans-Serif" font-size="10.00">Monster_Dead</text>
</a>
</g>
</g>
<!-- Node1&#45;&gt;Node2 -->
<g id="edge1" class="edge"><title>Node1&#45;&gt;Node2</title>
<path fill="none" stroke="midnightblue" d="M108.376,-28C117.061,-28 125.83,-28 133.987,-28"/>
<polygon fill="midnightblue" stroke="midnightblue" points="108.26,-24.5001 98.2598,-28 108.26,-31.5001 108.26,-24.5001"/>
</g>
<!-- Node3 -->
<g id="node3" class="node"><title>Node3</title>
<g id="a_node3"><a xlink:href="../../da/d4e/sv__monsters_8qc.html#a100d851a4f02e4bd6177462aad0a9d1f" target="_top" xlink:title="Monster_Damage">
<polygon fill="none" stroke="black" points="250,-47.5 250,-66.5 344,-66.5 344,-47.5 250,-47.5"/>
<text text-anchor="middle" x="297" y="-54.5" font-family="Helvetica,sans-Serif" font-size="10.00">Monster_Damage</text>
</a>
</g>
</g>
<!-- Node2&#45;&gt;Node3 -->
<g id="edge2" class="edge"><title>Node2&#45;&gt;Node3</title>
<path fill="none" stroke="midnightblue" d="M224.247,-39.8029C234.835,-42.3407 245.901,-44.9927 256.083,-47.4331"/>
<polygon fill="midnightblue" stroke="midnightblue" points="224.826,-36.3426 214.285,-37.4155 223.194,-43.1498 224.826,-36.3426"/>
</g>
<!-- Node4 -->
<g id="node4" class="node"><title>Node4</title>
<g id="a_node4"><a xlink:href="../../d8/dc1/sv__monsters_8qh.html#a473e551b6c76c0037bbcfe0c4742b4e9" target="_top" xlink:title="Monster_Spawn">
<polygon fill="none" stroke="black" points="380.5,-66.5 380.5,-85.5 467.5,-85.5 467.5,-66.5 380.5,-66.5"/>
<text text-anchor="middle" x="424" y="-73.5" font-family="Helvetica,sans-Serif" font-size="10.00">Monster_Spawn</text>
</a>
</g>
</g>
<!-- Node3&#45;&gt;Node4 -->
<g id="edge3" class="edge"><title>Node3&#45;&gt;Node4</title>
<path fill="none" stroke="midnightblue" d="M354.323,-65.5611C363.054,-66.8882 371.946,-68.2399 380.311,-69.5113"/>
<polygon fill="midnightblue" stroke="midnightblue" points="354.603,-62.0635 344.19,-64.0209 353.551,-68.984 354.603,-62.0635"/>
</g>
<!-- Node5 -->
<g id="node5" class="node"><title>Node5</title>
<g id="a_node5"><a xlink:href="../../da/d4e/sv__monsters_8qc.html#a8f241ff894916ce48d0262369b526fef" target="_top" xlink:title="Monster_Appear">
<polygon fill="none" stroke="black" points="509,-142.5 509,-161.5 597,-161.5 597,-142.5 509,-142.5"/>
<text text-anchor="middle" x="553" y="-149.5" font-family="Helvetica,sans-Serif" font-size="10.00">Monster_Appear</text>
</a>
</g>
</g>
<!-- Node4&#45;&gt;Node5 -->
<g id="edge4" class="edge"><title>Node4&#45;&gt;Node5</title>
<path fill="none" stroke="midnightblue" d="M446.828,-91.3753C462.448,-102.127 484.141,-116.553 504,-128 512.879,-133.118 522.99,-138.269 531.635,-142.479"/>
<polygon fill="midnightblue" stroke="midnightblue" points="448.602,-88.3467 438.392,-85.5196 444.611,-94.0971 448.602,-88.3467"/>
</g>
<!-- Node7 -->
<g id="node7" class="node"><title>Node7</title>
<g id="a_node7"><a xlink:href="../../da/d4e/sv__monsters_8qc.html#a78277889e372693f721a50d524e365f7" target="_top" xlink:title="Monster_Respawn">
<polygon fill="none" stroke="black" points="504,-66.5 504,-85.5 602,-85.5 602,-66.5 504,-66.5"/>
<text text-anchor="middle" x="553" y="-73.5" font-family="Helvetica,sans-Serif" font-size="10.00">Monster_Respawn</text>
</a>
</g>
</g>
<!-- Node4&#45;&gt;Node7 -->
<g id="edge7" class="edge"><title>Node4&#45;&gt;Node7</title>
<path fill="none" stroke="midnightblue" d="M477.702,-76C486.416,-76 495.409,-76 503.999,-76"/>
<polygon fill="midnightblue" stroke="midnightblue" points="477.642,-72.5001 467.642,-76 477.642,-79.5001 477.642,-72.5001"/>
</g>
<!-- Node10 -->
<g id="node10" class="node"><title>Node10</title>
<g id="a_node10"><a xlink:href="../../d0/d37/spawn_8qh.html#a6d9ad964837b7b9cbcd971dcab774b49" target="_top" xlink:title="spawnmonster">
<polygon fill="none" stroke="black" points="513,-28.5 513,-47.5 593,-47.5 593,-28.5 513,-28.5"/>
<text text-anchor="middle" x="553" y="-35.5" font-family="Helvetica,sans-Serif" font-size="10.00">spawnmonster</text>
</a>
</g>
</g>
<!-- Node4&#45;&gt;Node10 -->
<g id="edge11" class="edge"><title>Node4&#45;&gt;Node10</title>
<path fill="none" stroke="midnightblue" d="M466.894,-63.4647C484.171,-58.2952 503.871,-52.4009 519.963,-47.5859"/>
<polygon fill="midnightblue" stroke="midnightblue" points="465.624,-60.1912 457.047,-66.411 467.631,-66.8975 465.624,-60.1912"/>
</g>
<!-- Node6 -->
<g id="node6" class="node"><title>Node6</title>
<g id="a_node6"><a xlink:href="../../da/d4e/sv__monsters_8qc.html#a0c5d94fd195b12611f3bd45c0546bfca" target="_top" xlink:title="Monster_Appear_Check">
<polygon fill="none" stroke="black" points="648,-123.5 648,-142.5 770,-142.5 770,-123.5 648,-123.5"/>
<text text-anchor="middle" x="709" y="-130.5" font-family="Helvetica,sans-Serif" font-size="10.00">Monster_Appear_Check</text>
</a>
</g>
</g>
<!-- Node5&#45;&gt;Node6 -->
<g id="edge5" class="edge"><title>Node5&#45;&gt;Node6</title>
<path fill="none" stroke="midnightblue" d="M607.492,-145.4C620.497,-143.796 634.491,-142.069 647.784,-140.429"/>
<polygon fill="midnightblue" stroke="midnightblue" points="606.804,-141.959 597.307,-146.657 607.661,-148.906 606.804,-141.959"/>
</g>
<!-- Node6&#45;&gt;Node4 -->
<g id="edge6" class="edge"><title>Node6&#45;&gt;Node4</title>
<path fill="none" stroke="midnightblue" d="M642.513,-121.692C602.418,-114.548 550.123,-104.835 504,-95 490.618,-92.1464 476.035,-88.7274 463.082,-85.5812"/>
<polygon fill="midnightblue" stroke="midnightblue" points="641.974,-125.151 652.432,-123.452 643.197,-118.259 641.974,-125.151"/>
</g>
<!-- Node8 -->
<g id="node8" class="node"><title>Node8</title>
<g id="a_node8"><a xlink:href="../../da/d4e/sv__monsters_8qc.html#a64003301dcc44254935df433ea236780" target="_top" xlink:title="Monster_Dead_Fade">
<polygon fill="none" stroke="black" points="655.5,-66.5 655.5,-85.5 762.5,-85.5 762.5,-66.5 655.5,-66.5"/>
<text text-anchor="middle" x="709" y="-73.5" font-family="Helvetica,sans-Serif" font-size="10.00">Monster_Dead_Fade</text>
</a>
</g>
</g>
<!-- Node7&#45;&gt;Node8 -->
<g id="edge8" class="edge"><title>Node7&#45;&gt;Node8</title>
<path fill="none" stroke="midnightblue" d="M612.391,-76C626.5,-76 641.495,-76 655.324,-76"/>
<polygon fill="midnightblue" stroke="midnightblue" points="612.304,-72.5001 602.304,-76 612.304,-79.5001 612.304,-72.5001"/>
</g>
<!-- Node9 -->
<g id="node9" class="node"><title>Node9</title>
<g id="a_node9"><a xlink:href="../../da/d4e/sv__monsters_8qc.html#abd168e6f5bc604139f9332b0215ad541" target="_top" xlink:title="Monster_Dead_Think">
<polygon fill="none" stroke="black" points="816,-28.5 816,-47.5 926,-47.5 926,-28.5 816,-28.5"/>
<text text-anchor="middle" x="871" y="-35.5" font-family="Helvetica,sans-Serif" font-size="10.00">Monster_Dead_Think</text>
</a>
</g>
</g>
<!-- Node8&#45;&gt;Node9 -->
<g id="edge9" class="edge"><title>Node8&#45;&gt;Node9</title>
<path fill="none" stroke="midnightblue" d="M760.392,-64.032C782.813,-58.7069 808.847,-52.5238 829.916,-47.5201"/>
<polygon fill="midnightblue" stroke="midnightblue" points="759.295,-60.6949 750.375,-66.411 760.913,-67.5055 759.295,-60.6949"/>
</g>
<!-- Node9&#45;&gt;Node2 -->
<g id="edge10" class="edge"><title>Node9&#45;&gt;Node2</title>
<path fill="none" stroke="midnightblue" d="M819.772,-26.2452C806.867,-23.5425 792.966,-20.9061 780,-19 680.273,-4.33911 654.799,-6.17215e-15 554,-0 423,-0 423,-0 423,-0 348.907,-3.55271e-15 263.145,-12.4931 214.361,-20.7893"/>
<polygon fill="midnightblue" stroke="midnightblue" points="819.358,-29.7362 829.87,-28.4142 820.828,-22.8923 819.358,-29.7362"/>
</g>
<!-- Node11 -->
<g id="node11" class="node"><title>Node11</title>
<g id="a_node11"><a xlink:href="../../de/d55/server_2command_2common_8qc.html#a31c9eecd432f1aaee8637466cb8c1bea" target="_top" xlink:title="CommonCommand_editmob">
<polygon fill="none" stroke="black" points="638.5,-28.5 638.5,-47.5 779.5,-47.5 779.5,-28.5 638.5,-28.5"/>
<text text-anchor="middle" x="709" y="-35.5" font-family="Helvetica,sans-Serif" font-size="10.00">CommonCommand_editmob</text>
</a>
</g>
</g>
<!-- Node10&#45;&gt;Node11 -->
<g id="edge12" class="edge"><title>Node10&#45;&gt;Node11</title>
<path fill="none" stroke="midnightblue" d="M603.568,-38C614.636,-38 626.574,-38 638.285,-38"/>
<polygon fill="midnightblue" stroke="midnightblue" points="603.259,-34.5001 593.259,-38 603.259,-41.5001 603.259,-34.5001"/>
</g>
</g>
</svg>
        <g id="navigator" transform="translate(0 0)" fill="#404254">
                <rect fill="#f2f5e9" fill-opacity="0.5" stroke="#606060" stroke-width=".5" x="0" y="0" width="60" height="60"/>
                <use id="zoomplus" xlink:href="#zoomPlus" x="17" y="9" onmousedown="handleZoom(evt,'in')"/>
                <use id="zoomminus" xlink:href="#zoomMin" x="42" y="9" onmousedown="handleZoom(evt,'out')"/>
                <use id="reset" xlink:href="#resetDef" x="30" y="36" onmousedown="handleReset()"/>
                <g id="arrowUp" xlink:href="#dirArrow" transform="translate(30 24)" onmousedown="handlePan(0,-1)">
                  <use xlink:href="#rim" fill="#404040">
                        <set attributeName="fill" to="#808080" begin="arrowUp.mouseover" end="arrowUp.mouseout"/>
                  </use>
                  <path fill="none" stroke="white" stroke-width="1.5" d="M0,-3.0v7 M-2.5,-0.5L0,-3.0L2.5,-0.5"/>
                </g>
                <g id="arrowRight" xlink:href="#dirArrow" transform="rotate(90) translate(36 -43)" onmousedown="handlePan(1,0)">
                  <use xlink:href="#rim" fill="#404040">
                        <set attributeName="fill" to="#808080" begin="arrowRight.mouseover" end="arrowRight.mouseout"/>
                  </use>
                  <path fill="none" stroke="white" stroke-width="1.5" d="M0,-3.0v7 M-2.5,-0.5L0,-3.0L2.5,-0.5"/>
                </g>
                <g id="arrowDown" xlink:href="#dirArrow" transform="rotate(180) translate(-30 -48)" onmousedown="handlePan(0,1)">
                  <use xlink:href="#rim" fill="#404040">
                        <set attributeName="fill" to="#808080" begin="arrowDown.mouseover" end="arrowDown.mouseout"/>
                  </use>
                  <path fill="none" stroke="white" stroke-width="1.5" d="M0,-3.0v7 M-2.5,-0.5L0,-3.0L2.5,-0.5"/>
                </g>
                <g id="arrowLeft" xlink:href="#dirArrow" transform="rotate(270) translate(-36 17)" onmousedown="handlePan(-1,0)">
                  <use xlink:href="#rim" fill="#404040">
                        <set attributeName="fill" to="#808080" begin="arrowLeft.mouseover" end="arrowLeft.mouseout"/>
                  </use>
                  <path fill="none" stroke="white" stroke-width="1.5" d="M0,-3.0v7 M-2.5,-0.5L0,-3.0L2.5,-0.5"/>
                </g>
        </g>
        <svg viewBox="0 0 15 15" width="100%" height="30px" preserveAspectRatio="xMaxYMin meet">
         <g id="arrow_out" transform="scale(0.3 0.3)">
          <a xlink:href="classMonster_a6dcca2c26e36342b5286873a74793cae_icgraph_org.svg" target="_base">
           <rect id="button" ry="5" rx="5" y="6" x="6" height="38" width="38"
                fill="#f2f5e9" fill-opacity="0.5" stroke="#606060" stroke-width="1.0"/>
           <path id="arrow"
             d="M 11.500037,31.436501 C 11.940474,20.09759 22.043105,11.32322 32.158766,21.979434 L 37.068811,17.246167 C 37.068811,17.246167 37.088388,32 37.088388,32 L 22.160133,31.978069 C 22.160133,31.978069 26.997745,27.140456 26.997745,27.140456 C 18.528582,18.264221 13.291696,25.230495 11.500037,31.436501 z"
             style="fill:#404040;"/>
          </a>
         </g>
        </svg>
</svg>
