<?xml version="1.0" encoding="UTF-8" standalone="no"?>
<!DOCTYPE svg PUBLIC "-//W3C//DTD SVG 1.1//EN"
 "http://www.w3.org/Graphics/SVG/1.1/DTD/svg11.dtd">
<!-- Generated by graphviz version 2.36.0 (20140111.2315)
 -->
<!-- Title: Monster::mr_pain Pages: 1 -->
<svg width="962pt" height="190pt"
 viewBox="0.00 0.00 962.00 190.08" xmlns="http://www.w3.org/2000/svg" xmlns:xlink="http://www.w3.org/1999/xlink">
<g id="graph0" class="graph" transform="scale(1 1) rotate(0) translate(4 186.079)">
<title>Monster::mr_pain</title>
<!-- Node1 -->
<g id="node1" class="node"><title>Node1</title>
<polygon fill="#bfbfbf" stroke="black" points="0,-29.5789 0,-48.5789 92,-48.5789 92,-29.5789 0,-29.5789"/>
<text text-anchor="middle" x="46" y="-36.5789" font-family="Helvetica,sans-Serif" font-size="10.00">Monster::mr_pain</text>
</g>
<!-- Node2 -->
<g id="node2" class="node"><title>Node2</title>
<g id="a_node2"><a xlink:href="../../da/d4e/sv__monsters_8qc.html#a100d851a4f02e4bd6177462aad0a9d1f" target="_top" xlink:title="Monster_Damage">
<polygon fill="none" stroke="black" points="128,-29.5789 128,-48.5789 222,-48.5789 222,-29.5789 128,-29.5789"/>
<text text-anchor="middle" x="175" y="-36.5789" font-family="Helvetica,sans-Serif" font-size="10.00">Monster_Damage</text>
</a>
</g>
</g>
<!-- Node1&#45;&gt;Node2 -->
<g id="edge1" class="edge"><title>Node1&#45;&gt;Node2</title>
<path fill="none" stroke="midnightblue" d="M102.33,-39.0789C110.804,-39.0789 119.475,-39.0789 127.726,-39.0789"/>
<polygon fill="midnightblue" stroke="midnightblue" points="102.133,-35.579 92.133,-39.0789 102.133,-42.579 102.133,-35.579"/>
</g>
<!-- Node3 -->
<g id="node3" class="node"><title>Node3</title>
<g id="a_node3"><a xlink:href="../../d8/dc1/sv__monsters_8qh.html#a473e551b6c76c0037bbcfe0c4742b4e9" target="_top" xlink:title="Monster_Spawn">
<polygon fill="none" stroke="black" points="258.5,-86.5789 258.5,-105.579 345.5,-105.579 345.5,-86.5789 258.5,-86.5789"/>
<text text-anchor="middle" x="302" y="-93.5789" font-family="Helvetica,sans-Serif" font-size="10.00">Monster_Spawn</text>
</a>
</g>
</g>
<!-- Node2&#45;&gt;Node3 -->
<g id="edge2" class="edge"><title>Node2&#45;&gt;Node3</title>
<path fill="none" stroke="midnightblue" d="M206.17,-52.8363C229.009,-63.2508 259.796,-77.2897 280.01,-86.5072"/>
<polygon fill="midnightblue" stroke="midnightblue" points="207.473,-49.5839 196.922,-48.6194 204.569,-55.953 207.473,-49.5839"/>
</g>
<!-- Node4 -->
<g id="node4" class="node"><title>Node4</title>
<g id="a_node4"><a xlink:href="../../da/d4e/sv__monsters_8qc.html#ae9c174dd3b336a7270caba2894224d0f" target="_top" xlink:title="Monster_Appear">
<polygon fill="none" stroke="black" points="387,-162.579 387,-181.579 475,-181.579 475,-162.579 387,-162.579"/>
<text text-anchor="middle" x="431" y="-169.579" font-family="Helvetica,sans-Serif" font-size="10.00">Monster_Appear</text>
</a>
</g>
</g>
<!-- Node3&#45;&gt;Node4 -->
<g id="edge3" class="edge"><title>Node3&#45;&gt;Node4</title>
<path fill="none" stroke="midnightblue" d="M324.828,-111.454C340.448,-122.206 362.141,-136.632 382,-148.079 390.879,-153.197 400.99,-158.348 409.635,-162.558"/>
<polygon fill="midnightblue" stroke="midnightblue" points="326.602,-108.426 316.392,-105.599 322.611,-114.176 326.602,-108.426"/>
</g>
<!-- Node6 -->
<g id="node6" class="node"><title>Node6</title>
<g id="a_node6"><a xlink:href="../../da/d4e/sv__monsters_8qc.html#a2b57b31035d01a69ccd6e8c6970ed5dd" target="_top" xlink:title="Monster_Respawn">
<polygon fill="none" stroke="black" points="382,-86.5789 382,-105.579 480,-105.579 480,-86.5789 382,-86.5789"/>
<text text-anchor="middle" x="431" y="-93.5789" font-family="Helvetica,sans-Serif" font-size="10.00">Monster_Respawn</text>
</a>
</g>
</g>
<!-- Node3&#45;&gt;Node6 -->
<g id="edge6" class="edge"><title>Node3&#45;&gt;Node6</title>
<path fill="none" stroke="midnightblue" d="M355.702,-96.0789C364.416,-96.0789 373.409,-96.0789 381.999,-96.0789"/>
<polygon fill="midnightblue" stroke="midnightblue" points="355.642,-92.579 345.642,-96.0789 355.642,-99.579 355.642,-92.579"/>
</g>
<!-- Node10 -->
<g id="node10" class="node"><title>Node10</title>
<g id="a_node10"><a xlink:href="../../d0/de9/monsters_2spawn_8qh.html#a6d9ad964837b7b9cbcd971dcab774b49" target="_top" xlink:title="spawnmonster">
<polygon fill="none" stroke="black" points="391,-48.5789 391,-67.5789 471,-67.5789 471,-48.5789 391,-48.5789"/>
<text text-anchor="middle" x="431" y="-55.5789" font-family="Helvetica,sans-Serif" font-size="10.00">spawnmonster</text>
</a>
</g>
</g>
<!-- Node3&#45;&gt;Node10 -->
<g id="edge11" class="edge"><title>Node3&#45;&gt;Node10</title>
<path fill="none" stroke="midnightblue" d="M344.894,-83.5436C362.171,-78.3741 381.871,-72.4798 397.963,-67.6648"/>
<polygon fill="midnightblue" stroke="midnightblue" points="343.624,-80.2701 335.047,-86.4899 345.631,-86.9764 343.624,-80.2701"/>
</g>
<!-- Node5 -->
<g id="node5" class="node"><title>Node5</title>
<g id="a_node5"><a xlink:href="../../da/d4e/sv__monsters_8qc.html#a0c5d94fd195b12611f3bd45c0546bfca" target="_top" xlink:title="Monster_Appear_Check">
<polygon fill="none" stroke="black" points="534,-162.579 534,-181.579 656,-181.579 656,-162.579 534,-162.579"/>
<text text-anchor="middle" x="595" y="-169.579" font-family="Helvetica,sans-Serif" font-size="10.00">Monster_Appear_Check</text>
</a>
</g>
</g>
<!-- Node4&#45;&gt;Node5 -->
<g id="edge4" class="edge"><title>Node4&#45;&gt;Node5</title>
<path fill="none" stroke="midnightblue" d="M485.782,-172.079C501.148,-172.079 517.992,-172.079 533.719,-172.079"/>
<polygon fill="midnightblue" stroke="midnightblue" points="485.413,-168.579 475.413,-172.079 485.413,-175.579 485.413,-168.579"/>
</g>
<!-- Node5&#45;&gt;Node3 -->
<g id="edge5" class="edge"><title>Node5&#45;&gt;Node3</title>
<path fill="none" stroke="midnightblue" d="M547.394,-159.907C489.594,-144.811 392.266,-119.392 339.561,-105.627"/>
<polygon fill="midnightblue" stroke="midnightblue" points="546.8,-163.369 557.36,-162.51 548.569,-156.596 546.8,-163.369"/>
</g>
<!-- Node7 -->
<g id="node7" class="node"><title>Node7</title>
<g id="a_node7"><a xlink:href="../../da/d4e/sv__monsters_8qc.html#a64003301dcc44254935df433ea236780" target="_top" xlink:title="Monster_Dead_Fade">
<polygon fill="none" stroke="black" points="541.5,-105.579 541.5,-124.579 648.5,-124.579 648.5,-105.579 541.5,-105.579"/>
<text text-anchor="middle" x="595" y="-112.579" font-family="Helvetica,sans-Serif" font-size="10.00">Monster_Dead_Fade</text>
</a>
</g>
</g>
<!-- Node6&#45;&gt;Node7 -->
<g id="edge7" class="edge"><title>Node6&#45;&gt;Node7</title>
<path fill="none" stroke="midnightblue" d="M490.359,-102.923C507.063,-104.883 525.165,-107.006 541.495,-108.921"/>
<polygon fill="midnightblue" stroke="midnightblue" points="490.506,-99.4168 480.167,-101.728 489.691,-106.369 490.506,-99.4168"/>
</g>
<!-- Node8 -->
<g id="node8" class="node"><title>Node8</title>
<g id="a_node8"><a xlink:href="../../da/d4e/sv__monsters_8qc.html#a304ebddf2011e967eb6e3d0da5b4a760" target="_top" xlink:title="Monster_Dead_Think">
<polygon fill="none" stroke="black" points="719,-86.5789 719,-105.579 829,-105.579 829,-86.5789 719,-86.5789"/>
<text text-anchor="middle" x="774" y="-93.5789" font-family="Helvetica,sans-Serif" font-size="10.00">Monster_Dead_Think</text>
</a>
</g>
</g>
<!-- Node7&#45;&gt;Node8 -->
<g id="edge8" class="edge"><title>Node7&#45;&gt;Node8</title>
<path fill="none" stroke="midnightblue" d="M658.689,-108.35C678.297,-106.245 699.758,-103.941 718.736,-101.904"/>
<polygon fill="midnightblue" stroke="midnightblue" points="658.196,-104.882 648.627,-109.43 658.943,-111.842 658.196,-104.882"/>
</g>
<!-- Node9 -->
<g id="node9" class="node"><title>Node9</title>
<g id="a_node9"><a xlink:href="../../da/d4e/sv__monsters_8qc.html#a9fe966953fdc6ae52562b48fe4776295" target="_top" xlink:title="Monster_Dead">
<polygon fill="none" stroke="black" points="874,-38.5789 874,-57.5789 954,-57.5789 954,-38.5789 874,-38.5789"/>
<text text-anchor="middle" x="914" y="-45.5789" font-family="Helvetica,sans-Serif" font-size="10.00">Monster_Dead</text>
</a>
</g>
</g>
<!-- Node8&#45;&gt;Node9 -->
<g id="edge9" class="edge"><title>Node8&#45;&gt;Node9</title>
<path fill="none" stroke="midnightblue" d="M812.079,-83.1819C835.18,-75.1466 864.405,-64.9814 885.453,-57.6604"/>
<polygon fill="midnightblue" stroke="midnightblue" points="810.89,-79.8897 802.595,-86.4807 813.19,-86.5012 810.89,-79.8897"/>
</g>
<!-- Node9&#45;&gt;Node2 -->
<g id="edge10" class="edge"><title>Node9&#45;&gt;Node2</title>
<path fill="none" stroke="midnightblue" d="M882.879,-34.6392C869.411,-29.2076 853.178,-23.4385 838,-20.0789 732.663,3.23665 703.887,-1.07888 596,-1.07888 430,-1.07888 430,-1.07888 430,-1.07888 353.309,-1.07888 265.012,-18.2327 215.324,-29.4899"/>
<polygon fill="midnightblue" stroke="midnightblue" points="881.565,-37.8834 892.142,-38.4954 884.255,-31.421 881.565,-37.8834"/>
</g>
<!-- Node11 -->
<g id="node11" class="node"><title>Node11</title>
<g id="a_node11"><a xlink:href="../../de/d55/server_2command_2common_8qc.html#a31c9eecd432f1aaee8637466cb8c1bea" target="_top" xlink:title="CommonCommand_editmob">
<polygon fill="none" stroke="black" points="524.5,-67.5789 524.5,-86.5789 665.5,-86.5789 665.5,-67.5789 524.5,-67.5789"/>
<text text-anchor="middle" x="595" y="-74.5789" font-family="Helvetica,sans-Serif" font-size="10.00">CommonCommand_editmob</text>
</a>
</g>
</g>
<!-- Node10&#45;&gt;Node11 -->
<g id="edge12" class="edge"><title>Node10&#45;&gt;Node11</title>
<path fill="none" stroke="midnightblue" d="M481.313,-63.8625C494.92,-65.4584 509.943,-67.2203 524.464,-68.9234"/>
<polygon fill="midnightblue" stroke="midnightblue" points="481.555,-60.367 471.216,-62.6783 480.74,-67.3194 481.555,-60.367"/>
</g>
<!-- Node12 -->
<g id="node12" class="node"><title>Node12</title>
<g id="a_node12"><a xlink:href="../../d5/d1f/gamemode__invasion_8qc.html#a22fee24ee369a9b96b574f26ec9f9ab3" target="_top" xlink:title="invasion_SpawnChosenMonster">
<polygon fill="none" stroke="black" points="516.5,-29.5789 516.5,-48.5789 673.5,-48.5789 673.5,-29.5789 516.5,-29.5789"/>
<text text-anchor="middle" x="595" y="-36.5789" font-family="Helvetica,sans-Serif" font-size="10.00">invasion_SpawnChosenMonster</text>
</a>
</g>
</g>
<!-- Node10&#45;&gt;Node12 -->
<g id="edge13" class="edge"><title>Node10&#45;&gt;Node12</title>
<path fill="none" stroke="midnightblue" d="M481.159,-52.3134C492.312,-51.0053 504.422,-49.5849 516.433,-48.1763"/>
<polygon fill="midnightblue" stroke="midnightblue" points="480.74,-48.8384 471.216,-53.4795 481.555,-55.7907 480.74,-48.8384"/>
</g>
<!-- Node13 -->
<g id="node13" class="node"><title>Node13</title>
<g id="a_node13"><a xlink:href="../../d5/d1f/gamemode__invasion_8qc.html#ac1638633f4da1a28f12acdc96dfbc7df" target="_top" xlink:title="invasion_SpawnMonsters">
<polygon fill="none" stroke="black" points="710,-29.5789 710,-48.5789 838,-48.5789 838,-29.5789 710,-29.5789"/>
<text text-anchor="middle" x="774" y="-36.5789" font-family="Helvetica,sans-Serif" font-size="10.00">invasion_SpawnMonsters</text>
</a>
</g>
</g>
<!-- Node12&#45;&gt;Node13 -->
<g id="edge14" class="edge"><title>Node12&#45;&gt;Node13</title>
<path fill="none" stroke="midnightblue" d="M683.868,-39.0789C692.605,-39.0789 701.351,-39.0789 709.765,-39.0789"/>
<polygon fill="midnightblue" stroke="midnightblue" points="683.635,-35.579 673.635,-39.0789 683.635,-42.579 683.635,-35.579"/>
</g>
</g>
</svg>
