<?xml version="1.0" encoding="UTF-8" standalone="no"?>
<!DOCTYPE svg PUBLIC "-//W3C//DTD SVG 1.1//EN"
 "http://www.w3.org/Graphics/SVG/1.1/DTD/svg11.dtd">
<!-- Generated by graphviz version 2.36.0 (20140111.2315)
 -->
<!-- Title: Monster::mr_setup Pages: 1 -->
<svg width="1088pt" height="173pt"
 viewBox="0.00 0.00 1088.00 173.25" xmlns="http://www.w3.org/2000/svg" xmlns:xlink="http://www.w3.org/1999/xlink">
<g id="graph0" class="graph" transform="scale(1 1) rotate(0) translate(4 169.247)">
<title>Monster::mr_setup</title>
<!-- Node1 -->
<g id="node1" class="node"><title>Node1</title>
<polygon fill="#bfbfbf" stroke="black" points="0,-69.747 0,-88.747 98,-88.747 98,-69.747 0,-69.747"/>
<text text-anchor="middle" x="49" y="-76.747" font-family="Helvetica,sans-Serif" font-size="10.00">Monster::mr_setup</text>
</g>
<!-- Node2 -->
<g id="node2" class="node"><title>Node2</title>
<g id="a_node2"><a xlink:href="../../da/d4e/sv__monsters_8qc.html#ae8583f9bde31f60a7137868d603e2b58" target="_top" xlink:title="Monster_Spawn_Setup">
<polygon fill="none" stroke="black" points="134,-69.747 134,-88.747 252,-88.747 252,-69.747 134,-69.747"/>
<text text-anchor="middle" x="193" y="-76.747" font-family="Helvetica,sans-Serif" font-size="10.00">Monster_Spawn_Setup</text>
</a>
</g>
</g>
<!-- Node1&#45;&gt;Node2 -->
<g id="edge1" class="edge"><title>Node1&#45;&gt;Node2</title>
<path fill="none" stroke="midnightblue" d="M108.244,-79.247C116.711,-79.247 125.427,-79.247 133.891,-79.247"/>
<polygon fill="midnightblue" stroke="midnightblue" points="108.075,-75.7471 98.0747,-79.247 108.075,-82.7471 108.075,-75.7471"/>
</g>
<!-- Node3 -->
<g id="node3" class="node"><title>Node3</title>
<g id="a_node3"><a xlink:href="../../d8/dc1/sv__monsters_8qh.html#a473e551b6c76c0037bbcfe0c4742b4e9" target="_top" xlink:title="Monster_Spawn">
<polygon fill="none" stroke="black" points="288.5,-69.747 288.5,-88.747 375.5,-88.747 375.5,-69.747 288.5,-69.747"/>
<text text-anchor="middle" x="332" y="-76.747" font-family="Helvetica,sans-Serif" font-size="10.00">Monster_Spawn</text>
</a>
</g>
</g>
<!-- Node2&#45;&gt;Node3 -->
<g id="edge2" class="edge"><title>Node2&#45;&gt;Node3</title>
<path fill="none" stroke="midnightblue" d="M262.385,-79.247C271.177,-79.247 279.972,-79.247 288.19,-79.247"/>
<polygon fill="midnightblue" stroke="midnightblue" points="262.1,-75.7471 252.1,-79.247 262.1,-82.7471 262.1,-75.7471"/>
</g>
<!-- Node4 -->
<g id="node4" class="node"><title>Node4</title>
<g id="a_node4"><a xlink:href="../../da/d4e/sv__monsters_8qc.html#a8f241ff894916ce48d0262369b526fef" target="_top" xlink:title="Monster_Appear">
<polygon fill="none" stroke="black" points="417,-145.747 417,-164.747 505,-164.747 505,-145.747 417,-145.747"/>
<text text-anchor="middle" x="461" y="-152.747" font-family="Helvetica,sans-Serif" font-size="10.00">Monster_Appear</text>
</a>
</g>
</g>
<!-- Node3&#45;&gt;Node4 -->
<g id="edge3" class="edge"><title>Node3&#45;&gt;Node4</title>
<path fill="none" stroke="midnightblue" d="M354.828,-94.6222C370.448,-105.374 392.141,-119.8 412,-131.247 420.879,-136.365 430.99,-141.516 439.635,-145.726"/>
<polygon fill="midnightblue" stroke="midnightblue" points="356.602,-91.5937 346.392,-88.7666 352.611,-97.3441 356.602,-91.5937"/>
</g>
<!-- Node6 -->
<g id="node6" class="node"><title>Node6</title>
<g id="a_node6"><a xlink:href="../../da/d4e/sv__monsters_8qc.html#a78277889e372693f721a50d524e365f7" target="_top" xlink:title="Monster_Respawn">
<polygon fill="none" stroke="black" points="412,-69.747 412,-88.747 510,-88.747 510,-69.747 412,-69.747"/>
<text text-anchor="middle" x="461" y="-76.747" font-family="Helvetica,sans-Serif" font-size="10.00">Monster_Respawn</text>
</a>
</g>
</g>
<!-- Node3&#45;&gt;Node6 -->
<g id="edge6" class="edge"><title>Node3&#45;&gt;Node6</title>
<path fill="none" stroke="midnightblue" d="M385.702,-79.247C394.416,-79.247 403.409,-79.247 411.999,-79.247"/>
<polygon fill="midnightblue" stroke="midnightblue" points="385.642,-75.7471 375.642,-79.247 385.642,-82.7471 385.642,-75.7471"/>
</g>
<!-- Node11 -->
<g id="node11" class="node"><title>Node11</title>
<g id="a_node11"><a xlink:href="../../d0/d37/spawn_8qh.html#a6d9ad964837b7b9cbcd971dcab774b49" target="_top" xlink:title="spawnmonster">
<polygon fill="none" stroke="black" points="421,-31.747 421,-50.747 501,-50.747 501,-31.747 421,-31.747"/>
<text text-anchor="middle" x="461" y="-38.747" font-family="Helvetica,sans-Serif" font-size="10.00">spawnmonster</text>
</a>
</g>
</g>
<!-- Node3&#45;&gt;Node11 -->
<g id="edge12" class="edge"><title>Node3&#45;&gt;Node11</title>
<path fill="none" stroke="midnightblue" d="M374.894,-66.7117C392.171,-61.5422 411.871,-55.6479 427.963,-50.8329"/>
<polygon fill="midnightblue" stroke="midnightblue" points="373.624,-63.4382 365.047,-69.658 375.631,-70.1445 373.624,-63.4382"/>
</g>
<!-- Node5 -->
<g id="node5" class="node"><title>Node5</title>
<g id="a_node5"><a xlink:href="../../da/d4e/sv__monsters_8qc.html#a0c5d94fd195b12611f3bd45c0546bfca" target="_top" xlink:title="Monster_Appear_Check">
<polygon fill="none" stroke="black" points="556,-126.747 556,-145.747 678,-145.747 678,-126.747 556,-126.747"/>
<text text-anchor="middle" x="617" y="-133.747" font-family="Helvetica,sans-Serif" font-size="10.00">Monster_Appear_Check</text>
</a>
</g>
</g>
<!-- Node4&#45;&gt;Node5 -->
<g id="edge4" class="edge"><title>Node4&#45;&gt;Node5</title>
<path fill="none" stroke="midnightblue" d="M515.492,-148.647C528.497,-147.043 542.491,-145.316 555.784,-143.676"/>
<polygon fill="midnightblue" stroke="midnightblue" points="514.804,-145.206 505.307,-149.904 515.661,-152.153 514.804,-145.206"/>
</g>
<!-- Node5&#45;&gt;Node3 -->
<g id="edge5" class="edge"><title>Node5&#45;&gt;Node3</title>
<path fill="none" stroke="midnightblue" d="M550.513,-124.939C510.418,-117.795 458.123,-108.082 412,-98.247 398.618,-95.3933 384.035,-91.9744 371.082,-88.8282"/>
<polygon fill="midnightblue" stroke="midnightblue" points="549.974,-128.398 560.432,-126.699 551.197,-121.506 549.974,-128.398"/>
</g>
<!-- Node7 -->
<g id="node7" class="node"><title>Node7</title>
<g id="a_node7"><a xlink:href="../../da/d4e/sv__monsters_8qc.html#a64003301dcc44254935df433ea236780" target="_top" xlink:title="Monster_Dead_Fade">
<polygon fill="none" stroke="black" points="563.5,-69.747 563.5,-88.747 670.5,-88.747 670.5,-69.747 563.5,-69.747"/>
<text text-anchor="middle" x="617" y="-76.747" font-family="Helvetica,sans-Serif" font-size="10.00">Monster_Dead_Fade</text>
</a>
</g>
</g>
<!-- Node6&#45;&gt;Node7 -->
<g id="edge7" class="edge"><title>Node6&#45;&gt;Node7</title>
<path fill="none" stroke="midnightblue" d="M520.391,-79.247C534.5,-79.247 549.495,-79.247 563.324,-79.247"/>
<polygon fill="midnightblue" stroke="midnightblue" points="520.304,-75.7471 510.304,-79.247 520.304,-82.7471 520.304,-75.7471"/>
</g>
<!-- Node8 -->
<g id="node8" class="node"><title>Node8</title>
<g id="a_node8"><a xlink:href="../../da/d4e/sv__monsters_8qc.html#abd168e6f5bc604139f9332b0215ad541" target="_top" xlink:title="Monster_Dead_Think">
<polygon fill="none" stroke="black" points="724,-59.747 724,-78.747 834,-78.747 834,-59.747 724,-59.747"/>
<text text-anchor="middle" x="779" y="-66.747" font-family="Helvetica,sans-Serif" font-size="10.00">Monster_Dead_Think</text>
</a>
</g>
</g>
<!-- Node7&#45;&gt;Node8 -->
<g id="edge8" class="edge"><title>Node7&#45;&gt;Node8</title>
<path fill="none" stroke="midnightblue" d="M680.993,-75.3099C695.164,-74.4242 710.081,-73.4919 723.853,-72.6312"/>
<polygon fill="midnightblue" stroke="midnightblue" points="680.596,-71.8278 670.833,-75.9449 681.032,-78.8142 680.596,-71.8278"/>
</g>
<!-- Node9 -->
<g id="node9" class="node"><title>Node9</title>
<g id="a_node9"><a xlink:href="../../da/d4e/sv__monsters_8qc.html#a9fe966953fdc6ae52562b48fe4776295" target="_top" xlink:title="Monster_Dead">
<polygon fill="none" stroke="black" points="870,-40.747 870,-59.747 950,-59.747 950,-40.747 870,-40.747"/>
<text text-anchor="middle" x="910" y="-47.747" font-family="Helvetica,sans-Serif" font-size="10.00">Monster_Dead</text>
</a>
</g>
</g>
<!-- Node8&#45;&gt;Node9 -->
<g id="edge9" class="edge"><title>Node8&#45;&gt;Node9</title>
<path fill="none" stroke="midnightblue" d="M844.401,-59.7615C853.009,-58.4937 861.62,-57.2254 869.619,-56.0472"/>
<polygon fill="midnightblue" stroke="midnightblue" points="843.717,-56.3245 834.334,-61.2443 844.737,-63.2497 843.717,-56.3245"/>
</g>
<!-- Node10 -->
<g id="node10" class="node"><title>Node10</title>
<g id="a_node10"><a xlink:href="../../da/d4e/sv__monsters_8qc.html#a100d851a4f02e4bd6177462aad0a9d1f" target="_top" xlink:title="Monster_Damage">
<polygon fill="none" stroke="black" points="986,-16.747 986,-35.747 1080,-35.747 1080,-16.747 986,-16.747"/>
<text text-anchor="middle" x="1033" y="-23.747" font-family="Helvetica,sans-Serif" font-size="10.00">Monster_Damage</text>
</a>
</g>
</g>
<!-- Node9&#45;&gt;Node10 -->
<g id="edge10" class="edge"><title>Node9&#45;&gt;Node10</title>
<path fill="none" stroke="midnightblue" d="M960.338,-40.461C968.738,-38.7949 977.435,-37.0699 985.751,-35.4204"/>
<polygon fill="midnightblue" stroke="midnightblue" points="959.413,-37.0761 950.285,-42.4549 960.775,-43.9423 959.413,-37.0761"/>
</g>
<!-- Node10&#45;&gt;Node3 -->
<g id="edge11" class="edge"><title>Node10&#45;&gt;Node3</title>
<path fill="none" stroke="midnightblue" d="M975.516,-18.1289C924.532,-11.5086 847.404,-3.24698 780,-3.24698 616,-3.24698 616,-3.24698 616,-3.24698 524.941,-3.24698 497.256,9.74094 412,-22.247 383.814,-32.8223 356.631,-56.2485 342.683,-69.5421"/>
<polygon fill="midnightblue" stroke="midnightblue" points="975.297,-21.6304 985.67,-19.4706 976.215,-14.6907 975.297,-21.6304"/>
</g>
<!-- Node12 -->
<g id="node12" class="node"><title>Node12</title>
<g id="a_node12"><a xlink:href="../../de/d55/server_2command_2common_8qc.html#a31c9eecd432f1aaee8637466cb8c1bea" target="_top" xlink:title="CommonCommand_editmob">
<polygon fill="none" stroke="black" points="546.5,-31.747 546.5,-50.747 687.5,-50.747 687.5,-31.747 546.5,-31.747"/>
<text text-anchor="middle" x="617" y="-38.747" font-family="Helvetica,sans-Serif" font-size="10.00">CommonCommand_editmob</text>
</a>
</g>
</g>
<!-- Node11&#45;&gt;Node12 -->
<g id="edge13" class="edge"><title>Node11&#45;&gt;Node12</title>
<path fill="none" stroke="midnightblue" d="M511.568,-41.247C522.636,-41.247 534.574,-41.247 546.285,-41.247"/>
<polygon fill="midnightblue" stroke="midnightblue" points="511.259,-37.7471 501.259,-41.247 511.259,-44.7471 511.259,-37.7471"/>
</g>
</g>
</svg>
