<?xml version="1.0" encoding="UTF-8" standalone="no"?>
<!DOCTYPE svg PUBLIC "-//W3C//DTD SVG 1.1//EN"
 "http://www.w3.org/Graphics/SVG/1.1/DTD/svg11.dtd">
<!-- Generated by graphviz version 2.36.0 (20140111.2315)
 -->
<!-- Title: common/deathtypes/_mod.inc Pages: 1 -->
<svg width="1084pt" height="388pt"
 viewBox="0.00 0.00 1084.00 388.00" xmlns="http://www.w3.org/2000/svg" xmlns:xlink="http://www.w3.org/1999/xlink">
<g id="graph0" class="graph" transform="scale(1 1) rotate(0) translate(4 384)">
<title>common/deathtypes/_mod.inc</title>
<!-- Node1 -->
<g id="node1" class="node"><title>Node1</title>
<polygon fill="#bfbfbf" stroke="black" points="763,-349 763,-379 871,-379 871,-349 763,-349"/>
<text text-anchor="start" x="771" y="-367" font-family="Helvetica,sans-Serif" font-size="10.00">common/deathtypes/</text>
<text text-anchor="middle" x="817" y="-356" font-family="Helvetica,sans-Serif" font-size="10.00">_mod.inc</text>
</g>
<!-- Node2 -->
<g id="node2" class="node"><title>Node2</title>
<g id="a_node2"><a xlink:href="../../db/d5f/deathtypes_2all_8qc.html" target="_top" xlink:title="common/deathtypes/all.qc">
<polygon fill="none" stroke="black" points="751.5,-292.5 751.5,-311.5 882.5,-311.5 882.5,-292.5 751.5,-292.5"/>
<text text-anchor="middle" x="817" y="-299.5" font-family="Helvetica,sans-Serif" font-size="10.00">common/deathtypes/all.qc</text>
</a>
</g>
</g>
<!-- Node1&#45;&gt;Node2 -->
<g id="edge1" class="edge"><title>Node1&#45;&gt;Node2</title>
<path fill="none" stroke="midnightblue" d="M817,-348.781C817,-340.781 817,-330.689 817,-322.017"/>
<polygon fill="midnightblue" stroke="midnightblue" points="820.5,-321.73 817,-311.731 813.5,-321.731 820.5,-321.73"/>
</g>
<!-- Node3 -->
<g id="node3" class="node"><title>Node3</title>
<g id="a_node3"><a xlink:href="../../d9/d4f/deathtypes_2all_8qh.html" target="_top" xlink:title="all.qh">
<polygon fill="none" stroke="black" points="797,-236.5 797,-255.5 837,-255.5 837,-236.5 797,-236.5"/>
<text text-anchor="middle" x="817" y="-243.5" font-family="Helvetica,sans-Serif" font-size="10.00">all.qh</text>
</a>
</g>
</g>
<!-- Node2&#45;&gt;Node3 -->
<g id="edge2" class="edge"><title>Node2&#45;&gt;Node3</title>
<path fill="none" stroke="midnightblue" d="M817,-292.083C817,-285.006 817,-274.861 817,-265.986"/>
<polygon fill="midnightblue" stroke="midnightblue" points="820.5,-265.751 817,-255.751 813.5,-265.751 820.5,-265.751"/>
</g>
<!-- Node4 -->
<g id="node4" class="node"><title>Node4</title>
<g id="a_node4"><a xlink:href="../../dc/d8f/notifications_2all_8qh.html" target="_top" xlink:title="common/notifications\l/all.qh">
<polygon fill="none" stroke="black" points="715,-169 715,-199 825,-199 825,-169 715,-169"/>
<text text-anchor="start" x="723" y="-187" font-family="Helvetica,sans-Serif" font-size="10.00">common/notifications</text>
<text text-anchor="middle" x="770" y="-176" font-family="Helvetica,sans-Serif" font-size="10.00">/all.qh</text>
</a>
</g>
</g>
<!-- Node3&#45;&gt;Node4 -->
<g id="edge3" class="edge"><title>Node3&#45;&gt;Node4</title>
<path fill="none" stroke="midnightblue" d="M810.266,-236.403C804.317,-228.809 795.377,-217.396 787.431,-207.252"/>
<polygon fill="midnightblue" stroke="midnightblue" points="789.999,-204.855 781.077,-199.141 784.488,-209.171 789.999,-204.855"/>
</g>
<!-- Node16 -->
<g id="node16" class="node"><title>Node16</title>
<g id="a_node16"><a xlink:href="../../dd/d06/deathtypes_2all_8inc.html" target="_top" xlink:title="all.inc">
<polygon fill="none" stroke="black" points="843,-174.5 843,-193.5 885,-193.5 885,-174.5 843,-174.5"/>
<text text-anchor="middle" x="864" y="-181.5" font-family="Helvetica,sans-Serif" font-size="10.00">all.inc</text>
</a>
</g>
</g>
<!-- Node3&#45;&gt;Node16 -->
<g id="edge16" class="edge"><title>Node3&#45;&gt;Node16</title>
<path fill="none" stroke="midnightblue" d="M823.734,-236.403C830.784,-227.403 842.035,-213.041 850.854,-201.782"/>
<polygon fill="midnightblue" stroke="midnightblue" points="853.867,-203.611 857.279,-193.581 848.357,-199.295 853.867,-203.611"/>
</g>
<!-- Node5 -->
<g id="node5" class="node"><title>Node5</title>
<g id="a_node5"><a xlink:href="../../d9/df2/common_2command_2__mod_8qh.html" target="_top" xlink:title="common/command/_mod.qh">
<polygon fill="none" stroke="black" points="310,-112.5 310,-131.5 450,-131.5 450,-112.5 310,-112.5"/>
<text text-anchor="middle" x="380" y="-119.5" font-family="Helvetica,sans-Serif" font-size="10.00">common/command/_mod.qh</text>
</a>
</g>
</g>
<!-- Node4&#45;&gt;Node5 -->
<g id="edge4" class="edge"><title>Node4&#45;&gt;Node5</title>
<path fill="none" stroke="midnightblue" d="M714.95,-174.531C644.16,-163.64 521.365,-144.748 445.747,-133.115"/>
<polygon fill="midnightblue" stroke="midnightblue" points="445.816,-129.584 435.4,-131.523 444.752,-136.503 445.816,-129.584"/>
</g>
<!-- Node7 -->
<g id="node7" class="node"><title>Node7</title>
<g id="a_node7"><a xlink:href="../../d0/d8b/common_2constants_8qh.html" target="_top" xlink:title="common/constants.qh">
<polygon fill="none" stroke="black" points="531.5,-0.5 531.5,-19.5 644.5,-19.5 644.5,-0.5 531.5,-0.5"/>
<text text-anchor="middle" x="588" y="-7.5" font-family="Helvetica,sans-Serif" font-size="10.00">common/constants.qh</text>
</a>
</g>
</g>
<!-- Node4&#45;&gt;Node7 -->
<g id="edge11" class="edge"><title>Node4&#45;&gt;Node7</title>
<path fill="none" stroke="midnightblue" d="M721.033,-168.939C699.66,-160.87 675.533,-148.907 658,-132 630.815,-105.786 639.445,-88.3737 620,-56 614.2,-46.3439 606.983,-36.0718 600.871,-27.7834"/>
<polygon fill="midnightblue" stroke="midnightblue" points="603.597,-25.5848 594.793,-19.6912 598,-29.7889 603.597,-25.5848"/>
</g>
<!-- Node12 -->
<g id="node12" class="node"><title>Node12</title>
<g id="a_node12"><a xlink:href="../../db/d07/teams_8qh.html" target="_top" xlink:title="common/teams.qh">
<polygon fill="none" stroke="black" points="667,-112.5 667,-131.5 765,-131.5 765,-112.5 667,-112.5"/>
<text text-anchor="middle" x="716" y="-119.5" font-family="Helvetica,sans-Serif" font-size="10.00">common/teams.qh</text>
</a>
</g>
</g>
<!-- Node4&#45;&gt;Node12 -->
<g id="edge12" class="edge"><title>Node4&#45;&gt;Node12</title>
<path fill="none" stroke="midnightblue" d="M757.203,-168.781C749.275,-159.972 739.064,-148.626 730.79,-139.433"/>
<polygon fill="midnightblue" stroke="midnightblue" points="733.149,-136.822 723.857,-131.731 727.946,-141.505 733.149,-136.822"/>
</g>
<!-- Node13 -->
<g id="node13" class="node"><title>Node13</title>
<g id="a_node13"><a xlink:href="../../d5/df2/common_2util_8qh.html" target="_top" xlink:title="common/util.qh">
<polygon fill="none" stroke="black" points="783.5,-112.5 783.5,-131.5 866.5,-131.5 866.5,-112.5 783.5,-112.5"/>
<text text-anchor="middle" x="825" y="-119.5" font-family="Helvetica,sans-Serif" font-size="10.00">common/util.qh</text>
</a>
</g>
</g>
<!-- Node4&#45;&gt;Node13 -->
<g id="edge13" class="edge"><title>Node4&#45;&gt;Node13</title>
<path fill="none" stroke="midnightblue" d="M783.034,-168.781C791.191,-159.882 801.722,-148.394 810.194,-139.152"/>
<polygon fill="midnightblue" stroke="midnightblue" points="812.82,-141.467 816.997,-131.731 807.66,-136.737 812.82,-141.467"/>
</g>
<!-- Node14 -->
<g id="node14" class="node"><title>Node14</title>
<g id="a_node14"><a xlink:href="../../d0/df5/sound_8qh.html" target="_top" xlink:title="common/sounds/sound.qh">
<polygon fill="none" stroke="black" points="884.5,-112.5 884.5,-131.5 1015.5,-131.5 1015.5,-112.5 884.5,-112.5"/>
<text text-anchor="middle" x="950" y="-119.5" font-family="Helvetica,sans-Serif" font-size="10.00">common/sounds/sound.qh</text>
</a>
</g>
</g>
<!-- Node4&#45;&gt;Node14 -->
<g id="edge14" class="edge"><title>Node4&#45;&gt;Node14</title>
<path fill="none" stroke="midnightblue" d="M812.202,-168.933C843.341,-158.553 885.234,-144.589 914.625,-134.792"/>
<polygon fill="midnightblue" stroke="midnightblue" points="916.082,-137.995 924.462,-131.513 913.868,-131.355 916.082,-137.995"/>
</g>
<!-- Node15 -->
<g id="node15" class="node"><title>Node15</title>
<g id="a_node15"><a xlink:href="../../d9/d09/notifications_2all_8inc.html" target="_top" xlink:title="all.inc">
<polygon fill="none" stroke="black" points="1034,-112.5 1034,-131.5 1076,-131.5 1076,-112.5 1034,-112.5"/>
<text text-anchor="middle" x="1055" y="-119.5" font-family="Helvetica,sans-Serif" font-size="10.00">all.inc</text>
</a>
</g>
</g>
<!-- Node4&#45;&gt;Node15 -->
<g id="edge15" class="edge"><title>Node4&#45;&gt;Node15</title>
<path fill="none" stroke="midnightblue" d="M825.124,-169.922C828.124,-169.26 831.097,-168.615 834,-168 918.081,-150.19 940.414,-152.004 1024,-132 1024.1,-131.976 1024.2,-131.953 1024.3,-131.929"/>
<polygon fill="midnightblue" stroke="midnightblue" points="1024.94,-135.38 1033.73,-129.466 1023.17,-128.607 1024.94,-135.38"/>
</g>
<!-- Node6 -->
<g id="node6" class="node"><title>Node6</title>
<g id="a_node6"><a xlink:href="../../d7/d88/generic_8qh.html" target="_top" xlink:title="common/command/generic.qh">
<polygon fill="none" stroke="black" points="463,-56.5 463,-75.5 611,-75.5 611,-56.5 463,-56.5"/>
<text text-anchor="middle" x="537" y="-63.5" font-family="Helvetica,sans-Serif" font-size="10.00">common/command/generic.qh</text>
</a>
</g>
</g>
<!-- Node5&#45;&gt;Node6 -->
<g id="edge5" class="edge"><title>Node5&#45;&gt;Node6</title>
<path fill="none" stroke="midnightblue" d="M404.877,-112.444C431.289,-103.359 473.215,-88.9388 502.742,-78.7831"/>
<polygon fill="midnightblue" stroke="midnightblue" points="503.921,-82.0787 512.239,-75.5164 501.645,-75.4593 503.921,-82.0787"/>
</g>
<!-- Node8 -->
<g id="node8" class="node"><title>Node8</title>
<g id="a_node8"><a xlink:href="../../d8/d96/markup_8qh.html" target="_top" xlink:title="common/command/markup.qh">
<polygon fill="none" stroke="black" points="-0.5,-56.5 -0.5,-75.5 148.5,-75.5 148.5,-56.5 -0.5,-56.5"/>
<text text-anchor="middle" x="74" y="-63.5" font-family="Helvetica,sans-Serif" font-size="10.00">common/command/markup.qh</text>
</a>
</g>
</g>
<!-- Node5&#45;&gt;Node8 -->
<g id="edge7" class="edge"><title>Node5&#45;&gt;Node8</title>
<path fill="none" stroke="midnightblue" d="M331.513,-112.444C277.461,-102.905 190.072,-87.4834 132.327,-77.293"/>
<polygon fill="midnightblue" stroke="midnightblue" points="132.716,-73.8076 122.26,-75.5164 131.499,-80.7011 132.716,-73.8076"/>
</g>
<!-- Node9 -->
<g id="node9" class="node"><title>Node9</title>
<g id="a_node9"><a xlink:href="../../d4/dab/common_2command_2reg_8qh.html" target="_top" xlink:title="common/command/reg.qh">
<polygon fill="none" stroke="black" points="167,-56.5 167,-75.5 297,-75.5 297,-56.5 167,-56.5"/>
<text text-anchor="middle" x="232" y="-63.5" font-family="Helvetica,sans-Serif" font-size="10.00">common/command/reg.qh</text>
</a>
</g>
</g>
<!-- Node5&#45;&gt;Node9 -->
<g id="edge8" class="edge"><title>Node5&#45;&gt;Node9</title>
<path fill="none" stroke="midnightblue" d="M356.549,-112.444C331.867,-103.438 292.815,-89.1891 265.023,-79.049"/>
<polygon fill="midnightblue" stroke="midnightblue" points="265.935,-75.6561 255.341,-75.5164 263.536,-82.2321 265.935,-75.6561"/>
</g>
<!-- Node11 -->
<g id="node11" class="node"><title>Node11</title>
<g id="a_node11"><a xlink:href="../../d4/db4/rpn_8qh.html" target="_top" xlink:title="common/command/rpn.qh">
<polygon fill="none" stroke="black" points="315,-56.5 315,-75.5 445,-75.5 445,-56.5 315,-56.5"/>
<text text-anchor="middle" x="380" y="-63.5" font-family="Helvetica,sans-Serif" font-size="10.00">common/command/rpn.qh</text>
</a>
</g>
</g>
<!-- Node5&#45;&gt;Node11 -->
<g id="edge10" class="edge"><title>Node5&#45;&gt;Node11</title>
<path fill="none" stroke="midnightblue" d="M380,-112.083C380,-105.006 380,-94.8611 380,-85.9865"/>
<polygon fill="midnightblue" stroke="midnightblue" points="383.5,-85.751 380,-75.7511 376.5,-85.7511 383.5,-85.751"/>
</g>
<!-- Node6&#45;&gt;Node7 -->
<g id="edge6" class="edge"><title>Node6&#45;&gt;Node7</title>
<path fill="none" stroke="midnightblue" d="M545.422,-56.083C552.848,-48.2195 563.852,-36.5688 572.812,-27.0813"/>
<polygon fill="midnightblue" stroke="midnightblue" points="575.413,-29.4244 579.735,-19.7511 570.324,-24.618 575.413,-29.4244"/>
</g>
<!-- Node10 -->
<g id="node10" class="node"><title>Node10</title>
<g id="a_node10"><a xlink:href="../../d9/da1/common_2command_2command_8qh.html" target="_top" xlink:title="command.qh">
<polygon fill="none" stroke="black" points="195.5,-0.5 195.5,-19.5 268.5,-19.5 268.5,-0.5 195.5,-0.5"/>
<text text-anchor="middle" x="232" y="-7.5" font-family="Helvetica,sans-Serif" font-size="10.00">command.qh</text>
</a>
</g>
</g>
<!-- Node9&#45;&gt;Node10 -->
<g id="edge9" class="edge"><title>Node9&#45;&gt;Node10</title>
<path fill="none" stroke="midnightblue" d="M232,-56.083C232,-49.0059 232,-38.8611 232,-29.9865"/>
<polygon fill="midnightblue" stroke="midnightblue" points="235.5,-29.751 232,-19.7511 228.5,-29.7511 235.5,-29.751"/>
</g>
</g>
</svg>
