<?xml version="1.0" encoding="UTF-8" standalone="no"?>
<!DOCTYPE svg PUBLIC "-//W3C//DTD SVG 1.1//EN"
 "http://www.w3.org/Graphics/SVG/1.1/DTD/svg11.dtd">
<!-- Generated by graphviz version 2.36.0 (20140111.2315)
 -->
<!-- Title: MakeRaceString Pages: 1 -->
<svg width="236pt" height="104pt"
 viewBox="0.00 0.00 236.00 104.00" xmlns="http://www.w3.org/2000/svg" xmlns:xlink="http://www.w3.org/1999/xlink">
<g id="graph0" class="graph" transform="scale(1 1) rotate(0) translate(4 100)">
<title>MakeRaceString</title>
<!-- Node1 -->
<g id="node1" class="node"><title>Node1</title>
<polygon fill="#bfbfbf" stroke="black" points="0.5,-38.5 0.5,-57.5 89.5,-57.5 89.5,-38.5 0.5,-38.5"/>
<text text-anchor="middle" x="45" y="-45.5" font-family="Helvetica,sans-Serif" font-size="10.00">MakeRaceString</text>
</g>
<!-- Node2 -->
<g id="node2" class="node"><title>Node2</title>
<g id="a_node2"><a xlink:href="../../d2/db4/string_8qh.html#a18d360dae8acec6fc943d884ad153f8d" target="_top" xlink:title="ColorTranslateRGB">
<polygon fill="none" stroke="black" points="126,-76.5 126,-95.5 228,-95.5 228,-76.5 126,-76.5"/>
<text text-anchor="middle" x="177" y="-83.5" font-family="Helvetica,sans-Serif" font-size="10.00">ColorTranslateRGB</text>
</a>
</g>
</g>
<!-- Node1&#45;&gt;Node2 -->
<g id="edge1" class="edge"><title>Node1&#45;&gt;Node2</title>
<path fill="none" stroke="midnightblue" d="M78.8045,-57.589C95.2783,-62.4044 115.443,-68.2988 133.127,-73.468"/>
<polygon fill="midnightblue" stroke="midnightblue" points="132.626,-76.9677 143.206,-76.4141 134.59,-70.2489 132.626,-76.9677"/>
</g>
<!-- Node3 -->
<g id="node3" class="node"><title>Node3</title>
<g id="a_node3"><a xlink:href="../../d2/db4/string_8qh.html#a49cb9df0e85f064315fa093ad9c9ef80" target="_top" xlink:title="converts a number to a string with the indicated number of decimals ">
<polygon fill="none" stroke="black" points="138.5,-38.5 138.5,-57.5 215.5,-57.5 215.5,-38.5 138.5,-38.5"/>
<text text-anchor="middle" x="177" y="-45.5" font-family="Helvetica,sans-Serif" font-size="10.00">ftos_decimals</text>
</a>
</g>
</g>
<!-- Node1&#45;&gt;Node3 -->
<g id="edge2" class="edge"><title>Node1&#45;&gt;Node3</title>
<path fill="none" stroke="midnightblue" d="M89.6498,-48C101.982,-48 115.468,-48 128.038,-48"/>
<polygon fill="midnightblue" stroke="midnightblue" points="128.337,-51.5001 138.337,-48 128.337,-44.5001 128.337,-51.5001"/>
</g>
<!-- Node4 -->
<g id="node4" class="node"><title>Node4</title>
<g id="a_node4"><a xlink:href="../../d8/de2/menudefs_8qc.html#ad76dc2b2895cd23f21e008f12a686158" target="_top" xlink:title="strcat">
<polygon fill="none" stroke="black" points="156.5,-0.5 156.5,-19.5 197.5,-19.5 197.5,-0.5 156.5,-0.5"/>
<text text-anchor="middle" x="177" y="-7.5" font-family="Helvetica,sans-Serif" font-size="10.00">strcat</text>
</a>
</g>
</g>
<!-- Node1&#45;&gt;Node4 -->
<g id="edge3" class="edge"><title>Node1&#45;&gt;Node4</title>
<path fill="none" stroke="midnightblue" d="M78.8045,-38.411C99.5575,-32.3447 126.168,-24.5661 146.297,-18.6823"/>
<polygon fill="midnightblue" stroke="midnightblue" points="147.551,-21.9624 156.167,-15.7972 145.587,-15.2435 147.551,-21.9624"/>
</g>
</g>
</svg>
