<?xml version="1.0" encoding="UTF-8" standalone="no"?>
<!DOCTYPE svg PUBLIC "-//W3C//DTD SVG 1.1//EN"
 "http://www.w3.org/Graphics/SVG/1.1/DTD/svg11.dtd">
<!-- Generated by graphviz version 2.40.1 (20161225.0304)
 -->
<!-- Title: GENERIC_COMMAND Pages: 1 -->
<svg width="761pt" height="78pt"
 viewBox="0.00 0.00 761.00 77.50" xmlns="http://www.w3.org/2000/svg" xmlns:xlink="http://www.w3.org/1999/xlink">
<g id="graph0" class="graph" transform="scale(1 1) rotate(0) translate(4 73.5)">
<title>GENERIC_COMMAND</title>
<!-- Node125 -->
<g id="node1" class="node">
<title>Node125</title>
<polygon fill="#bfbfbf" stroke="#000000" points="0,-28 0,-47 118,-47 118,-28 0,-28"/>
<text text-anchor="middle" x="59" y="-35" font-family="Helvetica,sans-Serif" font-size="10.00" fill="#000000">GENERIC_COMMAND</text>
</g>
<!-- Node126 -->
<g id="node2" class="node">
<title>Node126</title>
<g id="a_node2"><a xlink:href="../../df/da7/generic_8qc.html#a0a2b35dea5d192e46d5ca7e112ba1942" target="_top" xlink:title="GenericCommand_restartnotifs">
<polygon fill="none" stroke="#000000" points="154,-28 154,-47 324,-47 324,-28 154,-28"/>
<text text-anchor="middle" x="239" y="-35" font-family="Helvetica,sans-Serif" font-size="10.00" fill="#000000">GenericCommand_restartnotifs</text>
</a>
</g>
</g>
<!-- Node125&#45;&gt;Node126 -->
<g id="edge1" class="edge">
<title>Node125&#45;&gt;Node126</title>
<path fill="none" stroke="#191970" d="M118.4376,-37.5C126.6074,-37.5 135.1584,-37.5 143.7736,-37.5"/>
<polygon fill="#191970" stroke="#191970" points="143.8974,-41.0001 153.8974,-37.5 143.8974,-34.0001 143.8974,-41.0001"/>
</g>
<!-- Node127 -->
<g id="node3" class="node">
<title>Node127</title>
<g id="a_node3"><a xlink:href="../../d8/d79/notifications_2all_8qc.html#ab2ba4995bd0ca717f5a1612dcea04e08" target="_top" xlink:title="Destroy_All_Notifications">
<polygon fill="none" stroke="#000000" points="360,-28 360,-47 500,-47 500,-28 360,-28"/>
<text text-anchor="middle" x="430" y="-35" font-family="Helvetica,sans-Serif" font-size="10.00" fill="#000000">Destroy_All_Notifications</text>
</a>
</g>
</g>
<!-- Node126&#45;&gt;Node127 -->
<g id="edge2" class="edge">
<title>Node126&#45;&gt;Node127</title>
<path fill="none" stroke="#191970" d="M324.166,-37.5C332.6528,-37.5 341.2497,-37.5 349.6845,-37.5"/>
<polygon fill="#191970" stroke="#191970" points="349.8744,-41.0001 359.8744,-37.5 349.8743,-34.0001 349.8744,-41.0001"/>
</g>
<!-- Node128 -->
<g id="node4" class="node">
<title>Node128</title>
<g id="a_node4"><a xlink:href="../../d4/dbb/centerprint_8qc.html#a133aa7316ffde4bb1306801d51d80422" target="_top" xlink:title="centerprint_KillAll">
<polygon fill="none" stroke="#000000" points="542,-50 542,-69 646,-69 646,-50 542,-50"/>
<text text-anchor="middle" x="594" y="-57" font-family="Helvetica,sans-Serif" font-size="10.00" fill="#000000">centerprint_KillAll</text>
</a>
</g>
</g>
<!-- Node127&#45;&gt;Node128 -->
<g id="edge3" class="edge">
<title>Node127&#45;&gt;Node128</title>
<path fill="none" stroke="#191970" d="M500.0265,-46.8938C510.4737,-48.2952 521.1859,-49.7322 531.465,-51.1112"/>
<polygon fill="#191970" stroke="#191970" points="531.1972,-54.6065 541.5738,-52.4672 532.128,-47.6687 531.1972,-54.6065"/>
</g>
<!-- Node129 -->
<g id="node5" class="node">
<title>Node129</title>
<g id="a_node5"><a xlink:href="../../d8/d79/notifications_2all_8qc.html#a3928a6ac0250db86d0e96cae9f44b7f4" target="_top" xlink:title="Destroy_Notification\l_Entity">
<polygon fill="none" stroke="#000000" points="536,-.5 536,-30.5 652,-30.5 652,-.5 536,-.5"/>
<text text-anchor="start" x="544" y="-18.5" font-family="Helvetica,sans-Serif" font-size="10.00" fill="#000000">Destroy_Notification</text>
<text text-anchor="middle" x="594" y="-7.5" font-family="Helvetica,sans-Serif" font-size="10.00" fill="#000000">_Entity</text>
</a>
</g>
</g>
<!-- Node127&#45;&gt;Node129 -->
<g id="edge4" class="edge">
<title>Node127&#45;&gt;Node129</title>
<path fill="none" stroke="#191970" d="M500.0265,-28.1062C508.5992,-26.9562 517.3503,-25.7823 525.8941,-24.6362"/>
<polygon fill="#191970" stroke="#191970" points="526.3597,-28.1051 535.8055,-23.3066 525.4289,-21.1673 526.3597,-28.1051"/>
</g>
<!-- Node130 -->
<g id="node6" class="node">
<title>Node130</title>
<g id="a_node6"><a xlink:href="../../d8/de2/menudefs_8qc.html#ab64c3a0e7d347975b8b7a5cd17ab0113" target="_top" xlink:title="strunzone">
<polygon fill="none" stroke="#000000" points="688,-6 688,-25 753,-25 753,-6 688,-6"/>
<text text-anchor="middle" x="720.5" y="-13" font-family="Helvetica,sans-Serif" font-size="10.00" fill="#000000">strunzone</text>
</a>
</g>
</g>
<!-- Node129&#45;&gt;Node130 -->
<g id="edge5" class="edge">
<title>Node129&#45;&gt;Node130</title>
<path fill="none" stroke="#191970" d="M652.0667,-15.5C660.7437,-15.5 669.5517,-15.5 677.8315,-15.5"/>
<polygon fill="#191970" stroke="#191970" points="677.9873,-19.0001 687.9873,-15.5 677.9873,-12.0001 677.9873,-19.0001"/>
</g>
</g>
</svg>
