<?xml version="1.0" encoding="UTF-8" standalone="no"?>
<!DOCTYPE svg PUBLIC "-//W3C//DTD SVG 1.1//EN"
 "http://www.w3.org/Graphics/SVG/1.1/DTD/svg11.dtd">
<!-- Generated by graphviz version 2.26.3 (20100126.1600)
 -->
<!-- Title: G Pages: 1 -->
<!--zoomable 124 -->
<svg id="main" version="1.1" xmlns="http://www.w3.org/2000/svg" xmlns:xlink="http://www.w3.org/1999/xlink" xml:space="preserve" onload="init(evt)">
        <defs>
                <circle id="rim" cx="0" cy="0" r="7"/>
                <circle id="rim2" cx="0" cy="0" r="3.5"/>
                <g id="zoomPlus">
                        <use xlink:href="#rim" fill="#404040">
                                <set attributeName="fill" to="#808080" begin="zoomplus.mouseover" end="zoomplus.mouseout"/>
                        </use>
                        <path d="M-4,0h8M0,-4v8" fill="none" stroke="white" stroke-width="1.5" pointer-events="none"/>
                </g>
                <g id="zoomMin">
                        <use xlink:href="#rim" fill="#404040">
                                <set attributeName="fill" to="#808080" begin="zoomminus.mouseover" end="zoomminus.mouseout"/>
                        </use>
                        <path d="M-4,0h8" fill="none" stroke="white" stroke-width="1.5" pointer-events="none"/>
                </g>
                <g id="dirArrow">
                        <path fill="none" stroke="white" stroke-width="1.5" d="M0,-3.0v7 M-2.5,-0.5L0,-3.0L2.5,-0.5"/>
                </g>
               <g id="resetDef">
                       <use xlink:href="#rim2" fill="#404040">
                               <set attributeName="fill" to="#808080" begin="reset.mouseover" end="reset.mouseout"/>
                       </use>
               </g>
        </defs>

<script type="text/javascript">
var viewWidth = 896;
var viewHeight = 124;
var sectionId = 'dynsection-88';
</script>
<script xlink:href="../../svgpan.js"/>
<svg id="graph" class="graph">
<g id="viewport">
<title>G</title>
<!-- Node1 -->
<g id="node1" class="node"><title>Node1</title>
<polygon fill="#bfbfbf" stroke="black" points="0.5,-4.4057 0.5,-25.4057 79.5,-25.4057 79.5,-4.4057 0.5,-4.4057"/>
<text text-anchor="middle" x="40" y="-12.4057" font-family="Helvetica,sans-Serif" font-size="10.00">SpectateCopy</text>
</g>
<!-- Node2 -->
<g id="node3" class="node"><title>Node2</title>
<a xlink:href="../../da/d53/cl__client_8qc.html#ac45ffbdfca81ff2210af750292d31d1c" target="_top" xlink:title="SpectateUpdate">
<polygon fill="none" stroke="black" points="116.5,-4.4057 116.5,-25.4057 203.5,-25.4057 203.5,-4.4057 116.5,-4.4057"/>
<text text-anchor="middle" x="160" y="-12.4057" font-family="Helvetica,sans-Serif" font-size="10.00">SpectateUpdate</text>
</a>
</g>
<!-- Node1&#45;&gt;Node2 -->
<g id="edge2" class="edge"><title>Node1&#45;&gt;Node2</title>
<path fill="none" stroke="midnightblue" d="M89.7657,-14.9057C98.5625,-14.9057 107.662,-14.9057 116.277,-14.9057"/>
<polygon fill="midnightblue" stroke="midnightblue" points="89.6251,-11.4058 79.6251,-14.9057 89.625,-18.4058 89.6251,-11.4058"/>
</g>
<!-- Node3 -->
<g id="node5" class="node"><title>Node3</title>
<a xlink:href="../../da/d53/cl__client_8qc.html#a48110739769578cbca3f3b0fda4eaab5" target="_top" xlink:title="SpectateSet">
<polygon fill="none" stroke="black" points="240.5,-34.4057 240.5,-55.4057 311.5,-55.4057 311.5,-34.4057 240.5,-34.4057"/>
<text text-anchor="middle" x="276" y="-42.4057" font-family="Helvetica,sans-Serif" font-size="10.00">SpectateSet</text>
</a>
</g>
<!-- Node2&#45;&gt;Node3 -->
<g id="edge4" class="edge"><title>Node2&#45;&gt;Node3</title>
<path fill="none" stroke="midnightblue" d="M210.772,-28.0363C220.788,-30.6268 231.097,-33.2929 240.478,-35.719"/>
<polygon fill="midnightblue" stroke="midnightblue" points="211.455,-24.598 200.897,-25.4826 209.702,-31.375 211.455,-24.598"/>
</g>
<!-- Node10 -->
<g id="node19" class="node"><title>Node10</title>
<a xlink:href="../../da/d53/cl__client_8qc.html#ad8da0a9fe659937bdc32cca6de631f76" target="_top" xlink:title="SpectatorThink">
<polygon fill="none" stroke="black" points="462.5,-14.4057 462.5,-35.4057 545.5,-35.4057 545.5,-14.4057 462.5,-14.4057"/>
<text text-anchor="middle" x="504" y="-22.4057" font-family="Helvetica,sans-Serif" font-size="10.00">SpectatorThink</text>
</a>
</g>
<!-- Node2&#45;&gt;Node10 -->
<g id="edge26" class="edge"><title>Node2&#45;&gt;Node10</title>
<path fill="none" stroke="midnightblue" d="M213.988,-7.75168C267.89,-1.81147 352.99,4.30555 426,-4.9057 440.841,-6.77806 456.902,-10.5792 470.571,-14.3697"/>
<polygon fill="midnightblue" stroke="midnightblue" points="213.506,-4.28388 203.966,-8.89385 214.299,-11.2389 213.506,-4.28388"/>
</g>
<!-- Node4 -->
<g id="node7" class="node"><title>Node4</title>
<a xlink:href="../../d1/d30/cl__client_8qh.html#a54cf6a680fa2bb3fca1e906659e883a7" target="_top" xlink:title="Spectate">
<polygon fill="none" stroke="black" points="359,-94.4057 359,-115.406 415,-115.406 415,-94.4057 359,-94.4057"/>
<text text-anchor="middle" x="387" y="-102.406" font-family="Helvetica,sans-Serif" font-size="10.00">Spectate</text>
</a>
</g>
<!-- Node3&#45;&gt;Node4 -->
<g id="edge6" class="edge"><title>Node3&#45;&gt;Node4</title>
<path fill="none" stroke="midnightblue" d="M303.299,-60.3516C316.708,-67.8671 333.139,-76.9702 348,-84.9057 353.772,-87.9882 360.068,-91.2567 365.883,-94.2384"/>
<polygon fill="midnightblue" stroke="midnightblue" points="304.987,-57.2856 294.555,-55.4362 301.557,-63.3875 304.987,-57.2856"/>
</g>
<!-- Node5 -->
<g id="node9" class="node"><title>Node5</title>
<a xlink:href="../../da/d53/cl__client_8qc.html#adf2b6b12446bbdea9a0f4dfe90b2e6e5" target="_top" xlink:title="SpectateNext">
<polygon fill="none" stroke="black" points="348.5,-54.4057 348.5,-75.4057 425.5,-75.4057 425.5,-54.4057 348.5,-54.4057"/>
<text text-anchor="middle" x="387" y="-62.4057" font-family="Helvetica,sans-Serif" font-size="10.00">SpectateNext</text>
</a>
</g>
<!-- Node3&#45;&gt;Node5 -->
<g id="edge8" class="edge"><title>Node3&#45;&gt;Node5</title>
<path fill="none" stroke="midnightblue" d="M321.834,-53.1641C330.617,-54.7466 339.733,-56.3891 348.265,-57.9265"/>
<polygon fill="midnightblue" stroke="midnightblue" points="322.194,-49.6727 311.732,-51.3439 320.953,-56.5618 322.194,-49.6727"/>
</g>
<!-- Node11 -->
<g id="node22" class="node"><title>Node11</title>
<a xlink:href="../../da/d53/cl__client_8qc.html#a10545a7a5802895f03ec3217fe51ec0c" target="_top" xlink:title="SpectatePrev">
<polygon fill="none" stroke="black" points="349,-14.4057 349,-35.4057 425,-35.4057 425,-14.4057 349,-14.4057"/>
<text text-anchor="middle" x="387" y="-22.4057" font-family="Helvetica,sans-Serif" font-size="10.00">SpectatePrev</text>
</a>
</g>
<!-- Node3&#45;&gt;Node11 -->
<g id="edge22" class="edge"><title>Node3&#45;&gt;Node11</title>
<path fill="none" stroke="midnightblue" d="M321.657,-36.6792C330.627,-35.063 339.951,-33.3829 348.652,-31.8153"/>
<polygon fill="midnightblue" stroke="midnightblue" points="320.953,-33.2496 311.732,-38.4675 322.194,-40.1387 320.953,-33.2496"/>
</g>
<!-- Node6 -->
<g id="node11" class="node"><title>Node6</title>
<a xlink:href="../../da/d53/cl__client_8qc.html#a804476ddd6bb726d04ee110b4a9a9248" target="_top" xlink:title="ObserverThink">
<polygon fill="none" stroke="black" points="464,-54.4057 464,-75.4057 544,-75.4057 544,-54.4057 464,-54.4057"/>
<text text-anchor="middle" x="504" y="-62.4057" font-family="Helvetica,sans-Serif" font-size="10.00">ObserverThink</text>
</a>
</g>
<!-- Node5&#45;&gt;Node6 -->
<g id="edge10" class="edge"><title>Node5&#45;&gt;Node6</title>
<path fill="none" stroke="midnightblue" d="M435.925,-64.9057C445.21,-64.9057 454.825,-64.9057 463.802,-64.9057"/>
<polygon fill="midnightblue" stroke="midnightblue" points="435.634,-61.4058 425.634,-64.9057 435.634,-68.4058 435.634,-61.4058"/>
</g>
<!-- Node5&#45;&gt;Node10 -->
<g id="edge18" class="edge"><title>Node5&#45;&gt;Node10</title>
<path fill="none" stroke="midnightblue" d="M427.288,-51.1322C442.276,-46.0079 459.036,-40.2778 473.059,-35.4839"/>
<polygon fill="midnightblue" stroke="midnightblue" points="426.07,-47.8493 417.74,-54.3962 428.335,-54.4729 426.07,-47.8493"/>
</g>
<!-- Node7 -->
<g id="node13" class="node"><title>Node7</title>
<a xlink:href="../../da/d53/cl__client_8qc.html#a29ca770d01fe7827ac339d6eeea2e733" target="_top" xlink:title="PlayerPreThink">
<polygon fill="none" stroke="black" points="582.5,-34.4057 582.5,-55.4057 665.5,-55.4057 665.5,-34.4057 582.5,-34.4057"/>
<text text-anchor="middle" x="624" y="-42.4057" font-family="Helvetica,sans-Serif" font-size="10.00">PlayerPreThink</text>
</a>
</g>
<!-- Node6&#45;&gt;Node7 -->
<g id="edge12" class="edge"><title>Node6&#45;&gt;Node7</title>
<path fill="none" stroke="midnightblue" d="M554.275,-56.5265C563.634,-54.9668 573.316,-53.353 582.38,-51.8424"/>
<polygon fill="midnightblue" stroke="midnightblue" points="553.581,-53.0939 544.292,-58.1903 554.731,-59.9987 553.581,-53.0939"/>
</g>
<!-- Node8 -->
<g id="node15" class="node"><title>Node8</title>
<a xlink:href="../../d5/dd1/playerdemo_8qh.html#a3d6b65b19141e5215083447705deb88c" target="_top" xlink:title="playerdemo_read">
<polygon fill="none" stroke="black" points="702.5,-34.4057 702.5,-55.4057 793.5,-55.4057 793.5,-34.4057 702.5,-34.4057"/>
<text text-anchor="middle" x="748" y="-42.4057" font-family="Helvetica,sans-Serif" font-size="10.00">playerdemo_read</text>
</a>
</g>
<!-- Node7&#45;&gt;Node8 -->
<g id="edge14" class="edge"><title>Node7&#45;&gt;Node8</title>
<path fill="none" stroke="midnightblue" d="M675.828,-44.9057C684.659,-44.9057 693.773,-44.9057 702.427,-44.9057"/>
<polygon fill="midnightblue" stroke="midnightblue" points="675.635,-41.4058 665.635,-44.9057 675.635,-48.4058 675.635,-41.4058"/>
</g>
<!-- Node9 -->
<g id="node17" class="node"><title>Node9</title>
<a xlink:href="../../dc/ddd/player_8qc.html#a672a0ccf602525346ee1acb1337367fe" target="_top" xlink:title="PM_Main">
<polygon fill="none" stroke="black" points="830,-34.4057 830,-55.4057 888,-55.4057 888,-34.4057 830,-34.4057"/>
<text text-anchor="middle" x="859" y="-42.4057" font-family="Helvetica,sans-Serif" font-size="10.00">PM_Main</text>
</a>
</g>
<!-- Node8&#45;&gt;Node9 -->
<g id="edge16" class="edge"><title>Node8&#45;&gt;Node9</title>
<path fill="none" stroke="midnightblue" d="M803.877,-44.9057C812.851,-44.9057 821.813,-44.9057 829.822,-44.9057"/>
<polygon fill="midnightblue" stroke="midnightblue" points="803.789,-41.4058 793.789,-44.9057 803.789,-48.4058 803.789,-41.4058"/>
</g>
<!-- Node10&#45;&gt;Node7 -->
<g id="edge20" class="edge"><title>Node10&#45;&gt;Node7</title>
<path fill="none" stroke="midnightblue" d="M555.603,-33.5061C564.567,-35.0002 573.787,-36.5369 582.44,-37.9791"/>
<polygon fill="midnightblue" stroke="midnightblue" points="556.073,-30.0363 545.633,-31.8446 554.922,-36.941 556.073,-30.0363"/>
</g>
<!-- Node11&#45;&gt;Node10 -->
<g id="edge24" class="edge"><title>Node11&#45;&gt;Node10</title>
<path fill="none" stroke="midnightblue" d="M435.568,-24.9057C444.473,-24.9057 453.695,-24.9057 462.374,-24.9057"/>
<polygon fill="midnightblue" stroke="midnightblue" points="435.31,-21.4058 425.31,-24.9057 435.31,-28.4058 435.31,-21.4058"/>
</g>
</g>
</svg>
        <g id="navigator" transform="translate(0 0)" fill="#404254">
                <rect fill="#f2f5e9" fill-opacity="0.5" stroke="#606060" stroke-width=".5" x="0" y="0" width="60" height="60"/>
                <use id="zoomplus" xlink:href="#zoomPlus" x="17" y="9" onmousedown="handleZoom(evt,'in')"/>
                <use id="zoomminus" xlink:href="#zoomMin" x="42" y="9" onmousedown="handleZoom(evt,'out')"/>
                <use id="reset" xlink:href="#resetDef" x="30" y="36" onmousedown="handleReset()"/>
                <g id="arrowUp" xlink:href="#dirArrow" transform="translate(30 24)" onmousedown="handlePan(0,-1)">
                  <use xlink:href="#rim" fill="#404040">
                        <set attributeName="fill" to="#808080" begin="arrowUp.mouseover" end="arrowUp.mouseout"/>
                  </use>
                  <path fill="none" stroke="white" stroke-width="1.5" d="M0,-3.0v7 M-2.5,-0.5L0,-3.0L2.5,-0.5"/>
                </g>
                <g id="arrowRight" xlink:href="#dirArrow" transform="rotate(90) translate(36 -43)" onmousedown="handlePan(1,0)">
                  <use xlink:href="#rim" fill="#404040">
                        <set attributeName="fill" to="#808080" begin="arrowRight.mouseover" end="arrowRight.mouseout"/>
                  </use>
                  <path fill="none" stroke="white" stroke-width="1.5" d="M0,-3.0v7 M-2.5,-0.5L0,-3.0L2.5,-0.5"/>
                </g>
                <g id="arrowDown" xlink:href="#dirArrow" transform="rotate(180) translate(-30 -48)" onmousedown="handlePan(0,1)">
                  <use xlink:href="#rim" fill="#404040">
                        <set attributeName="fill" to="#808080" begin="arrowDown.mouseover" end="arrowDown.mouseout"/>
                  </use>
                  <path fill="none" stroke="white" stroke-width="1.5" d="M0,-3.0v7 M-2.5,-0.5L0,-3.0L2.5,-0.5"/>
                </g>
                <g id="arrowLeft" xlink:href="#dirArrow" transform="rotate(270) translate(-36 17)" onmousedown="handlePan(-1,0)">
                  <use xlink:href="#rim" fill="#404040">
                        <set attributeName="fill" to="#808080" begin="arrowLeft.mouseover" end="arrowLeft.mouseout"/>
                  </use>
                  <path fill="none" stroke="white" stroke-width="1.5" d="M0,-3.0v7 M-2.5,-0.5L0,-3.0L2.5,-0.5"/>
                </g>
        </g>
</svg>
