<?xml version="1.0" encoding="UTF-8" standalone="no"?>
<!DOCTYPE svg PUBLIC "-//W3C//DTD SVG 1.1//EN"
 "http://www.w3.org/Graphics/SVG/1.1/DTD/svg11.dtd">
<!-- Generated by graphviz version 2.36.0 (20140111.2315)
 -->
<!-- Title: player_powerups Pages: 1 -->
<svg width="440pt" height="28pt"
 viewBox="0.00 0.00 440.00 28.00" xmlns="http://www.w3.org/2000/svg" xmlns:xlink="http://www.w3.org/1999/xlink">
<g id="graph0" class="graph" transform="scale(1 1) rotate(0) translate(4 24)">
<title>player_powerups</title>
<!-- Node1 -->
<g id="node1" class="node"><title>Node1</title>
<polygon fill="#bfbfbf" stroke="black" points="0,-0.5 0,-19.5 90,-19.5 90,-0.5 0,-0.5"/>
<text text-anchor="middle" x="45" y="-7.5" font-family="Helvetica,sans-Serif" font-size="10.00">player_powerups</text>
</g>
<!-- Node2 -->
<g id="node2" class="node"><title>Node2</title>
<g id="a_node2"><a xlink:href="../../da/d53/cl__client_8qc.html#a29ca770d01fe7827ac339d6eeea2e733" target="_top" xlink:title="PlayerPreThink">
<polygon fill="none" stroke="black" points="126.5,-0.5 126.5,-19.5 209.5,-19.5 209.5,-0.5 126.5,-0.5"/>
<text text-anchor="middle" x="168" y="-7.5" font-family="Helvetica,sans-Serif" font-size="10.00">PlayerPreThink</text>
</a>
</g>
</g>
<!-- Node1&#45;&gt;Node2 -->
<g id="edge1" class="edge"><title>Node1&#45;&gt;Node2</title>
<path fill="none" stroke="midnightblue" d="M100.233,-10C109.037,-10 118.02,-10 126.425,-10"/>
<polygon fill="midnightblue" stroke="midnightblue" points="100.026,-6.5001 90.0261,-10 100.026,-13.5001 100.026,-6.5001"/>
</g>
<!-- Node3 -->
<g id="node3" class="node"><title>Node3</title>
<g id="a_node3"><a xlink:href="../../d5/dd1/playerdemo_8qh.html#a3d6b65b19141e5215083447705deb88c" target="_top" xlink:title="playerdemo_read">
<polygon fill="none" stroke="black" points="246.5,-0.5 246.5,-19.5 337.5,-19.5 337.5,-0.5 246.5,-0.5"/>
<text text-anchor="middle" x="292" y="-7.5" font-family="Helvetica,sans-Serif" font-size="10.00">playerdemo_read</text>
</a>
</g>
</g>
<!-- Node2&#45;&gt;Node3 -->
<g id="edge2" class="edge"><title>Node2&#45;&gt;Node3</title>
<path fill="none" stroke="midnightblue" d="M219.793,-10C228.609,-10 237.717,-10 246.354,-10"/>
<polygon fill="midnightblue" stroke="midnightblue" points="219.624,-6.5001 209.624,-10 219.624,-13.5001 219.624,-6.5001"/>
</g>
<!-- Node4 -->
<g id="node4" class="node"><title>Node4</title>
<g id="a_node4"><a xlink:href="../../dc/ddd/player_8qc.html#a672a0ccf602525346ee1acb1337367fe" target="_top" xlink:title="PM_Main">
<polygon fill="none" stroke="black" points="374,-0.5 374,-19.5 432,-19.5 432,-0.5 374,-0.5"/>
<text text-anchor="middle" x="403" y="-7.5" font-family="Helvetica,sans-Serif" font-size="10.00">PM_Main</text>
</a>
</g>
</g>
<!-- Node3&#45;&gt;Node4 -->
<g id="edge3" class="edge"><title>Node3&#45;&gt;Node4</title>
<path fill="none" stroke="midnightblue" d="M347.781,-10C356.799,-10 365.805,-10 373.815,-10"/>
<polygon fill="midnightblue" stroke="midnightblue" points="347.649,-6.5001 337.649,-10 347.649,-13.5001 347.649,-6.5001"/>
</g>
</g>
</svg>
