<?xml version="1.0" encoding="UTF-8" standalone="no"?>
<!DOCTYPE svg PUBLIC "-//W3C//DTD SVG 1.1//EN"
 "http://www.w3.org/Graphics/SVG/1.1/DTD/svg11.dtd">
<!-- Generated by graphviz version 2.36.0 (20140111.2315)
 -->
<!-- Title: server/bot/scripting.qh Pages: 1 -->
<!--zoomable 220 -->
<svg id="main" version="1.1" xmlns="http://www.w3.org/2000/svg" xmlns:xlink="http://www.w3.org/1999/xlink" xml:space="preserve" onload="init(evt)">
<style type="text/css"><![CDATA[
.edge:hover path { stroke: red; }
.edge:hover polygon { stroke: red; fill: red; }
]]></style>
<script type="text/javascript"><![CDATA[
var edges = document.getElementsByTagName('g');
if (edges && edges.length) {
  for (var i=0;i<edges.length;i++) {
    if (edges[i].id.substr(0,4)=='edge') {
      edges[i].setAttribute('class','edge');
    }
  }
}
]]></script>
        <defs>
                <circle id="rim" cx="0" cy="0" r="7"/>
                <circle id="rim2" cx="0" cy="0" r="3.5"/>
                <g id="zoomPlus">
                        <use xlink:href="#rim" fill="#404040">
                                <set attributeName="fill" to="#808080" begin="zoomplus.mouseover" end="zoomplus.mouseout"/>
                        </use>
                        <path d="M-4,0h8M0,-4v8" fill="none" stroke="white" stroke-width="1.5" pointer-events="none"/>
                </g>
                <g id="zoomMin">
                        <use xlink:href="#rim" fill="#404040">
                                <set attributeName="fill" to="#808080" begin="zoomminus.mouseover" end="zoomminus.mouseout"/>
                        </use>
                        <path d="M-4,0h8" fill="none" stroke="white" stroke-width="1.5" pointer-events="none"/>
                </g>
                <g id="dirArrow">
                        <path fill="none" stroke="white" stroke-width="1.5" d="M0,-3.0v7 M-2.5,-0.5L0,-3.0L2.5,-0.5"/>
                </g>
               <g id="resetDef">
                       <use xlink:href="#rim2" fill="#404040">
                               <set attributeName="fill" to="#808080" begin="reset.mouseover" end="reset.mouseout"/>
                       </use>
               </g>
        </defs>

<script type="text/javascript">
var viewWidth = 509;
var viewHeight = 220;
var sectionId = 'dynsection-0';
</script>
<script xlink:href="../../svgpan.js"/>
<svg id="graph" class="graph">
<g id="viewport">
<title>server/bot/scripting.qh</title>
<!-- Node1 -->
<g id="node1" class="node"><title>Node1</title>
<polygon fill="#bfbfbf" stroke="black" points="171.5,-192.5 171.5,-211.5 284.5,-211.5 284.5,-192.5 171.5,-192.5"/>
<text text-anchor="middle" x="228" y="-199.5" font-family="Helvetica,sans-Serif" font-size="10.00">server/bot/scripting.qh</text>
</g>
<!-- Node2 -->
<g id="node2" class="node"><title>Node2</title>
<g id="a_node2"><a xlink:href="../../d2/dc0/bot_8qc.html" target="_top" xlink:title="server/bot/bot.qc">
<polygon fill="none" stroke="black" points="0,-130.5 0,-149.5 90,-149.5 90,-130.5 0,-130.5"/>
<text text-anchor="middle" x="45" y="-137.5" font-family="Helvetica,sans-Serif" font-size="10.00">server/bot/bot.qc</text>
</a>
</g>
</g>
<!-- Node1&#45;&gt;Node2 -->
<g id="edge1" class="edge"><title>Node1&#45;&gt;Node2</title>
<path fill="none" stroke="midnightblue" d="M192.263,-189.283C156.692,-177.62 102.947,-159.999 71.1708,-149.581"/>
<polygon fill="midnightblue" stroke="midnightblue" points="191.188,-192.614 201.781,-192.403 193.369,-185.962 191.188,-192.614"/>
</g>
<!-- Node5 -->
<g id="node5" class="node"><title>Node5</title>
<g id="a_node5"><a xlink:href="../../d6/d27/scripting_8qc.html" target="_top" xlink:title="server/bot/scripting.qc">
<polygon fill="none" stroke="black" points="108.5,-130.5 108.5,-149.5 221.5,-149.5 221.5,-130.5 108.5,-130.5"/>
<text text-anchor="middle" x="165" y="-137.5" font-family="Helvetica,sans-Serif" font-size="10.00">server/bot/scripting.qc</text>
</a>
</g>
</g>
<!-- Node1&#45;&gt;Node5 -->
<g id="edge4" class="edge"><title>Node1&#45;&gt;Node5</title>
<path fill="none" stroke="midnightblue" d="M211.402,-185.193C199.433,-173.793 183.734,-158.841 174.01,-149.581"/>
<polygon fill="midnightblue" stroke="midnightblue" points="209.318,-188.041 218.974,-192.403 214.146,-182.972 209.318,-188.041"/>
</g>
<!-- Node6 -->
<g id="node6" class="node"><title>Node6</title>
<g id="a_node6"><a xlink:href="../../d2/de9/havocbot_8qc.html" target="_top" xlink:title="server/bot/havocbot\l/havocbot.qc">
<polygon fill="none" stroke="black" points="239.5,-125 239.5,-155 342.5,-155 342.5,-125 239.5,-125"/>
<text text-anchor="start" x="247.5" y="-143" font-family="Helvetica,sans-Serif" font-size="10.00">server/bot/havocbot</text>
<text text-anchor="middle" x="291" y="-132" font-family="Helvetica,sans-Serif" font-size="10.00">/havocbot.qc</text>
</a>
</g>
</g>
<!-- Node1&#45;&gt;Node6 -->
<g id="edge6" class="edge"><title>Node1&#45;&gt;Node6</title>
<path fill="none" stroke="midnightblue" d="M244.55,-185.238C254.351,-175.904 266.666,-164.176 276.152,-155.141"/>
<polygon fill="midnightblue" stroke="midnightblue" points="241.854,-182.972 237.026,-192.403 246.682,-188.041 241.854,-182.972"/>
</g>
<!-- Node8 -->
<g id="node8" class="node"><title>Node8</title>
<g id="a_node8"><a xlink:href="../../d3/df2/sv__cmd_8qc.html" target="_top" xlink:title="server/command/sv_cmd.qc">
<polygon fill="none" stroke="black" points="361,-130.5 361,-149.5 501,-149.5 501,-130.5 361,-130.5"/>
<text text-anchor="middle" x="431" y="-137.5" font-family="Helvetica,sans-Serif" font-size="10.00">server/command/sv_cmd.qc</text>
</a>
</g>
</g>
<!-- Node1&#45;&gt;Node8 -->
<g id="edge9" class="edge"><title>Node1&#45;&gt;Node8</title>
<path fill="none" stroke="midnightblue" d="M266.886,-189.507C306.336,-177.847 366.494,-160.066 401.969,-149.581"/>
<polygon fill="midnightblue" stroke="midnightblue" points="265.683,-186.212 257.085,-192.403 267.667,-192.925 265.683,-186.212"/>
</g>
<!-- Node3 -->
<g id="node3" class="node"><title>Node3</title>
<g id="a_node3"><a xlink:href="../../dc/d13/server_2bot_2__mod_8inc.html" target="_top" xlink:title="server/bot/_mod.inc">
<polygon fill="none" stroke="black" points="113.5,-62.5 113.5,-81.5 216.5,-81.5 216.5,-62.5 113.5,-62.5"/>
<text text-anchor="middle" x="165" y="-69.5" font-family="Helvetica,sans-Serif" font-size="10.00">server/bot/_mod.inc</text>
</a>
</g>
</g>
<!-- Node2&#45;&gt;Node3 -->
<g id="edge2" class="edge"><title>Node2&#45;&gt;Node3</title>
<path fill="none" stroke="midnightblue" d="M69.5184,-125.515C93.406,-112.377 129.003,-92.7981 149.308,-81.6305"/>
<polygon fill="midnightblue" stroke="midnightblue" points="67.7633,-122.486 60.6879,-130.372 71.1368,-128.619 67.7633,-122.486"/>
</g>
<!-- Node4 -->
<g id="node4" class="node"><title>Node4</title>
<g id="a_node4"><a xlink:href="../../dd/d96/server_2progs_8inc.html" target="_top" xlink:title="server/progs.inc">
<polygon fill="none" stroke="black" points="248,-0.5 248,-19.5 334,-19.5 334,-0.5 248,-0.5"/>
<text text-anchor="middle" x="291" y="-7.5" font-family="Helvetica,sans-Serif" font-size="10.00">server/progs.inc</text>
</a>
</g>
</g>
<!-- Node3&#45;&gt;Node4 -->
<g id="edge3" class="edge"><title>Node3&#45;&gt;Node4</title>
<path fill="none" stroke="midnightblue" d="M192.16,-58.0664C216.61,-46.4239 251.85,-29.6429 272.981,-19.5806"/>
<polygon fill="midnightblue" stroke="midnightblue" points="190.577,-54.9441 183.053,-62.4035 193.586,-61.2641 190.577,-54.9441"/>
</g>
<!-- Node5&#45;&gt;Node3 -->
<g id="edge5" class="edge"><title>Node5&#45;&gt;Node3</title>
<path fill="none" stroke="midnightblue" d="M165,-120.041C165,-107.472 165,-91.5631 165,-81.8411"/>
<polygon fill="midnightblue" stroke="midnightblue" points="161.5,-120.372 165,-130.372 168.5,-120.372 161.5,-120.372"/>
</g>
<!-- Node7 -->
<g id="node7" class="node"><title>Node7</title>
<g id="a_node7"><a xlink:href="../../d8/d4f/server_2bot_2havocbot_2__mod_8inc.html" target="_top" xlink:title="server/bot/havocbot\l/_mod.inc">
<polygon fill="none" stroke="black" points="239.5,-57 239.5,-87 342.5,-87 342.5,-57 239.5,-57"/>
<text text-anchor="start" x="247.5" y="-75" font-family="Helvetica,sans-Serif" font-size="10.00">server/bot/havocbot</text>
<text text-anchor="middle" x="291" y="-64" font-family="Helvetica,sans-Serif" font-size="10.00">/_mod.inc</text>
</a>
</g>
</g>
<!-- Node6&#45;&gt;Node7 -->
<g id="edge7" class="edge"><title>Node6&#45;&gt;Node7</title>
<path fill="none" stroke="midnightblue" d="M291,-114.532C291,-105.361 291,-95.2449 291,-87.2931"/>
<polygon fill="midnightblue" stroke="midnightblue" points="287.5,-114.679 291,-124.679 294.5,-114.679 287.5,-114.679"/>
</g>
<!-- Node7&#45;&gt;Node4 -->
<g id="edge8" class="edge"><title>Node7&#45;&gt;Node4</title>
<path fill="none" stroke="midnightblue" d="M291,-46.5858C291,-37.0743 291,-26.7864 291,-19.7305"/>
<polygon fill="midnightblue" stroke="midnightblue" points="287.5,-46.7808 291,-56.7808 294.5,-46.7809 287.5,-46.7808"/>
</g>
<!-- Node9 -->
<g id="node9" class="node"><title>Node9</title>
<g id="a_node9"><a xlink:href="../../d8/db6/server_2command_2__mod_8inc.html" target="_top" xlink:title="server/command/_mod.inc">
<polygon fill="none" stroke="black" points="363,-62.5 363,-81.5 495,-81.5 495,-62.5 363,-62.5"/>
<text text-anchor="middle" x="429" y="-69.5" font-family="Helvetica,sans-Serif" font-size="10.00">server/command/_mod.inc</text>
</a>
</g>
</g>
<!-- Node8&#45;&gt;Node9 -->
<g id="edge10" class="edge"><title>Node8&#45;&gt;Node9</title>
<path fill="none" stroke="midnightblue" d="M430.425,-120.041C430.045,-107.472 429.563,-91.5631 429.268,-81.8411"/>
<polygon fill="midnightblue" stroke="midnightblue" points="426.937,-120.482 430.739,-130.372 433.934,-120.27 426.937,-120.482"/>
</g>
<!-- Node9&#45;&gt;Node4 -->
<g id="edge11" class="edge"><title>Node9&#45;&gt;Node4</title>
<path fill="none" stroke="midnightblue" d="M399.961,-58.3743C373.159,-46.7215 334.083,-29.7319 310.735,-19.5806"/>
<polygon fill="midnightblue" stroke="midnightblue" points="398.662,-61.6259 409.228,-62.4035 401.453,-55.2064 398.662,-61.6259"/>
</g>
</g>
</svg>
        <g id="navigator" transform="translate(0 0)" fill="#404254">
                <rect fill="#f2f5e9" fill-opacity="0.5" stroke="#606060" stroke-width=".5" x="0" y="0" width="60" height="60"/>
                <use id="zoomplus" xlink:href="#zoomPlus" x="17" y="9" onmousedown="handleZoom(evt,'in')"/>
                <use id="zoomminus" xlink:href="#zoomMin" x="42" y="9" onmousedown="handleZoom(evt,'out')"/>
                <use id="reset" xlink:href="#resetDef" x="30" y="36" onmousedown="handleReset()"/>
                <g id="arrowUp" xlink:href="#dirArrow" transform="translate(30 24)" onmousedown="handlePan(0,-1)">
                  <use xlink:href="#rim" fill="#404040">
                        <set attributeName="fill" to="#808080" begin="arrowUp.mouseover" end="arrowUp.mouseout"/>
                  </use>
                  <path fill="none" stroke="white" stroke-width="1.5" d="M0,-3.0v7 M-2.5,-0.5L0,-3.0L2.5,-0.5"/>
                </g>
                <g id="arrowRight" xlink:href="#dirArrow" transform="rotate(90) translate(36 -43)" onmousedown="handlePan(1,0)">
                  <use xlink:href="#rim" fill="#404040">
                        <set attributeName="fill" to="#808080" begin="arrowRight.mouseover" end="arrowRight.mouseout"/>
                  </use>
                  <path fill="none" stroke="white" stroke-width="1.5" d="M0,-3.0v7 M-2.5,-0.5L0,-3.0L2.5,-0.5"/>
                </g>
                <g id="arrowDown" xlink:href="#dirArrow" transform="rotate(180) translate(-30 -48)" onmousedown="handlePan(0,1)">
                  <use xlink:href="#rim" fill="#404040">
                        <set attributeName="fill" to="#808080" begin="arrowDown.mouseover" end="arrowDown.mouseout"/>
                  </use>
                  <path fill="none" stroke="white" stroke-width="1.5" d="M0,-3.0v7 M-2.5,-0.5L0,-3.0L2.5,-0.5"/>
                </g>
                <g id="arrowLeft" xlink:href="#dirArrow" transform="rotate(270) translate(-36 17)" onmousedown="handlePan(-1,0)">
                  <use xlink:href="#rim" fill="#404040">
                        <set attributeName="fill" to="#808080" begin="arrowLeft.mouseover" end="arrowLeft.mouseout"/>
                  </use>
                  <path fill="none" stroke="white" stroke-width="1.5" d="M0,-3.0v7 M-2.5,-0.5L0,-3.0L2.5,-0.5"/>
                </g>
        </g>
        <svg viewBox="0 0 15 15" width="100%" height="30px" preserveAspectRatio="xMaxYMin meet">
         <g id="arrow_out" transform="scale(0.3 0.3)">
          <a xlink:href="scripting_8qh__dep__incl_org.svg" target="_base">
           <rect id="button" ry="5" rx="5" y="6" x="6" height="38" width="38"
                fill="#f2f5e9" fill-opacity="0.5" stroke="#606060" stroke-width="1.0"/>
           <path id="arrow"
             d="M 11.500037,31.436501 C 11.940474,20.09759 22.043105,11.32322 32.158766,21.979434 L 37.068811,17.246167 C 37.068811,17.246167 37.088388,32 37.088388,32 L 22.160133,31.978069 C 22.160133,31.978069 26.997745,27.140456 26.997745,27.140456 C 18.528582,18.264221 13.291696,25.230495 11.500037,31.436501 z"
             style="fill:#404040;"/>
          </a>
         </g>
        </svg>
</svg>
