<?xml version="1.0" encoding="UTF-8" standalone="no"?>
<!DOCTYPE svg PUBLIC "-//W3C//DTD SVG 1.1//EN"
 "http://www.w3.org/Graphics/SVG/1.1/DTD/svg11.dtd">
<!-- Generated by graphviz version 2.36.0 (20140111.2315)
 -->
<!-- Title: race_SendRankings Pages: 1 -->
<!--zoomable 142 -->
<svg id="main" version="1.1" xmlns="http://www.w3.org/2000/svg" xmlns:xlink="http://www.w3.org/1999/xlink" xml:space="preserve" onload="init(evt)">
<style type="text/css"><![CDATA[
.edge:hover path { stroke: red; }
.edge:hover polygon { stroke: red; fill: red; }
]]></style>
<script type="text/javascript"><![CDATA[
var edges = document.getElementsByTagName('g');
if (edges && edges.length) {
  for (var i=0;i<edges.length;i++) {
    if (edges[i].id.substr(0,4)=='edge') {
      edges[i].setAttribute('class','edge');
    }
  }
}
]]></script>
        <defs>
                <circle id="rim" cx="0" cy="0" r="7"/>
                <circle id="rim2" cx="0" cy="0" r="3.5"/>
                <g id="zoomPlus">
                        <use xlink:href="#rim" fill="#404040">
                                <set attributeName="fill" to="#808080" begin="zoomplus.mouseover" end="zoomplus.mouseout"/>
                        </use>
                        <path d="M-4,0h8M0,-4v8" fill="none" stroke="white" stroke-width="1.5" pointer-events="none"/>
                </g>
                <g id="zoomMin">
                        <use xlink:href="#rim" fill="#404040">
                                <set attributeName="fill" to="#808080" begin="zoomminus.mouseover" end="zoomminus.mouseout"/>
                        </use>
                        <path d="M-4,0h8" fill="none" stroke="white" stroke-width="1.5" pointer-events="none"/>
                </g>
                <g id="dirArrow">
                        <path fill="none" stroke="white" stroke-width="1.5" d="M0,-3.0v7 M-2.5,-0.5L0,-3.0L2.5,-0.5"/>
                </g>
               <g id="resetDef">
                       <use xlink:href="#rim2" fill="#404040">
                               <set attributeName="fill" to="#808080" begin="reset.mouseover" end="reset.mouseout"/>
                       </use>
               </g>
        </defs>

<script type="text/javascript">
var viewWidth = 938;
var viewHeight = 142;
var sectionId = 'dynsection-32';
</script>
<script xlink:href="../../svgpan.js"/>
<svg id="graph" class="graph">
<g id="viewport">
<title>race_SendRankings</title>
<!-- Node1 -->
<g id="node1" class="node"><title>Node1</title>
<polygon fill="#bfbfbf" stroke="black" points="0,-76.5 0,-95.5 104,-95.5 104,-76.5 0,-76.5"/>
<text text-anchor="middle" x="52" y="-83.5" font-family="Helvetica,sans-Serif" font-size="10.00">race_SendRankings</text>
</g>
<!-- Node2 -->
<g id="node2" class="node"><title>Node2</title>
<g id="a_node2"><a xlink:href="../../dd/d0c/sv__ctf_8qc.html#aa47b180045747876872b4cc9fab905bb" target="_top" xlink:title="MUTATOR_HOOKFUNCTION">
<polygon fill="none" stroke="black" points="140.5,-114.5 140.5,-133.5 293.5,-133.5 293.5,-114.5 140.5,-114.5"/>
<text text-anchor="middle" x="217" y="-121.5" font-family="Helvetica,sans-Serif" font-size="10.00">MUTATOR_HOOKFUNCTION</text>
</a>
</g>
</g>
<!-- Node1&#45;&gt;Node2 -->
<g id="edge1" class="edge"><title>Node1&#45;&gt;Node2</title>
<path fill="none" stroke="midnightblue" d="M104.028,-97.8961C126.939,-103.237 153.604,-109.454 175.164,-114.48"/>
<polygon fill="midnightblue" stroke="midnightblue" points="104.665,-94.4509 94.1318,-95.589 103.076,-101.268 104.665,-94.4509"/>
</g>
<!-- Node3 -->
<g id="node3" class="node"><title>Node3</title>
<g id="a_node3"><a xlink:href="../../d6/d3b/race_8qc.html#af35cd3e1bbf19485a279b9820a49bd3d" target="_top" xlink:title="race_deleteTime">
<polygon fill="none" stroke="black" points="172.5,-76.5 172.5,-95.5 261.5,-95.5 261.5,-76.5 172.5,-76.5"/>
<text text-anchor="middle" x="217" y="-83.5" font-family="Helvetica,sans-Serif" font-size="10.00">race_deleteTime</text>
</a>
</g>
</g>
<!-- Node1&#45;&gt;Node3 -->
<g id="edge2" class="edge"><title>Node1&#45;&gt;Node3</title>
<path fill="none" stroke="midnightblue" d="M114.366,-86C133.696,-86 154.639,-86 172.462,-86"/>
<polygon fill="midnightblue" stroke="midnightblue" points="114.127,-82.5001 104.127,-86 114.127,-89.5001 114.127,-82.5001"/>
</g>
<!-- Node6 -->
<g id="node6" class="node"><title>Node6</title>
<g id="a_node6"><a xlink:href="../../d4/d1b/race_8qh.html#ad40c8cd52859377201760075057590a0" target="_top" xlink:title="race_setTime">
<polygon fill="none" stroke="black" points="179,-38.5 179,-57.5 255,-57.5 255,-38.5 179,-38.5"/>
<text text-anchor="middle" x="217" y="-45.5" font-family="Helvetica,sans-Serif" font-size="10.00">race_setTime</text>
</a>
</g>
</g>
<!-- Node1&#45;&gt;Node6 -->
<g id="edge5" class="edge"><title>Node1&#45;&gt;Node6</title>
<path fill="none" stroke="midnightblue" d="M103.884,-74.1375C128.127,-68.4858 156.598,-61.8483 178.783,-56.6763"/>
<polygon fill="midnightblue" stroke="midnightblue" points="103.076,-70.7319 94.1318,-76.411 104.665,-77.5491 103.076,-70.7319"/>
</g>
<!-- Node4 -->
<g id="node4" class="node"><title>Node4</title>
<g id="a_node4"><a xlink:href="../../d3/df2/sv__cmd_8qc.html#a202e10dfef1e09e4a11ba333dd496ba6" target="_top" xlink:title="GameCommand_delrec">
<polygon fill="none" stroke="black" points="330.5,-76.5 330.5,-95.5 449.5,-95.5 449.5,-76.5 330.5,-76.5"/>
<text text-anchor="middle" x="390" y="-83.5" font-family="Helvetica,sans-Serif" font-size="10.00">GameCommand_delrec</text>
</a>
</g>
</g>
<!-- Node3&#45;&gt;Node4 -->
<g id="edge3" class="edge"><title>Node3&#45;&gt;Node4</title>
<path fill="none" stroke="midnightblue" d="M271.677,-86C290.313,-86 311.302,-86 330.321,-86"/>
<polygon fill="midnightblue" stroke="midnightblue" points="271.593,-82.5001 261.593,-86 271.593,-89.5001 271.593,-82.5001"/>
</g>
<!-- Node5 -->
<g id="node5" class="node"><title>Node5</title>
<g id="a_node5"><a xlink:href="../../d3/df2/sv__cmd_8qc.html#a718fc3474d05a465fda24f97862bc484" target="_top" xlink:title="SERVER_COMMAND">
<polygon fill="none" stroke="black" points="486.5,-76.5 486.5,-95.5 603.5,-95.5 603.5,-76.5 486.5,-76.5"/>
<text text-anchor="middle" x="545" y="-83.5" font-family="Helvetica,sans-Serif" font-size="10.00">SERVER_COMMAND</text>
</a>
</g>
</g>
<!-- Node4&#45;&gt;Node5 -->
<g id="edge4" class="edge"><title>Node4&#45;&gt;Node5</title>
<path fill="none" stroke="midnightblue" d="M460.003,-86C468.844,-86 477.819,-86 486.45,-86"/>
<polygon fill="midnightblue" stroke="midnightblue" points="459.716,-82.5001 449.716,-86 459.716,-89.5001 459.716,-82.5001"/>
</g>
<!-- Node7 -->
<g id="node7" class="node"><title>Node7</title>
<g id="a_node7"><a xlink:href="../../dd/d0c/sv__ctf_8qc.html#aba1e98b6d35915f2dd8d9ec564f69c4f" target="_top" xlink:title="ctf_CaptureRecord">
<polygon fill="none" stroke="black" points="340.5,-38.5 340.5,-57.5 439.5,-57.5 439.5,-38.5 340.5,-38.5"/>
<text text-anchor="middle" x="390" y="-45.5" font-family="Helvetica,sans-Serif" font-size="10.00">ctf_CaptureRecord</text>
</a>
</g>
</g>
<!-- Node6&#45;&gt;Node7 -->
<g id="edge6" class="edge"><title>Node6&#45;&gt;Node7</title>
<path fill="none" stroke="midnightblue" d="M265.131,-48C288.499,-48 316.692,-48 340.274,-48"/>
<polygon fill="midnightblue" stroke="midnightblue" points="265.104,-44.5001 255.104,-48 265.104,-51.5001 265.104,-44.5001"/>
</g>
<!-- Node12 -->
<g id="node12" class="node"><title>Node12</title>
<g id="a_node12"><a xlink:href="../../d6/d3b/race_8qc.html#a67d4330e2cc2507d55de968501e8de67" target="_top" xlink:title="race_SendTime">
<polygon fill="none" stroke="black" points="347.5,-0.5 347.5,-19.5 432.5,-19.5 432.5,-0.5 347.5,-0.5"/>
<text text-anchor="middle" x="390" y="-7.5" font-family="Helvetica,sans-Serif" font-size="10.00">race_SendTime</text>
</a>
</g>
</g>
<!-- Node6&#45;&gt;Node12 -->
<g id="edge11" class="edge"><title>Node6&#45;&gt;Node12</title>
<path fill="none" stroke="midnightblue" d="M265.042,-37.5462C290.855,-31.8099 322.577,-24.7608 347.468,-19.2294"/>
<polygon fill="midnightblue" stroke="midnightblue" points="264.107,-34.1685 255.104,-39.7546 265.626,-41.0018 264.107,-34.1685"/>
</g>
<!-- Node8 -->
<g id="node8" class="node"><title>Node8</title>
<g id="a_node8"><a xlink:href="../../dd/d0c/sv__ctf_8qc.html#a25811e1a3df660687ed3240c93c5643e" target="_top" xlink:title="ctf_Handle_Capture">
<polygon fill="none" stroke="black" points="493,-38.5 493,-57.5 597,-57.5 597,-38.5 493,-38.5"/>
<text text-anchor="middle" x="545" y="-45.5" font-family="Helvetica,sans-Serif" font-size="10.00">ctf_Handle_Capture</text>
</a>
</g>
</g>
<!-- Node7&#45;&gt;Node8 -->
<g id="edge7" class="edge"><title>Node7&#45;&gt;Node8</title>
<path fill="none" stroke="midnightblue" d="M449.982,-48C464.17,-48 479.209,-48 492.998,-48"/>
<polygon fill="midnightblue" stroke="midnightblue" points="449.831,-44.5001 439.831,-48 449.831,-51.5001 449.831,-44.5001"/>
</g>
<!-- Node9 -->
<g id="node9" class="node"><title>Node9</title>
<g id="a_node9"><a xlink:href="../../dd/d0c/sv__ctf_8qc.html#a8edcce745140a0191b957e969f8a2cfb" target="_top" xlink:title="ctf_FlagThink">
<polygon fill="none" stroke="black" points="640,-38.5 640,-57.5 716,-57.5 716,-38.5 640,-38.5"/>
<text text-anchor="middle" x="678" y="-45.5" font-family="Helvetica,sans-Serif" font-size="10.00">ctf_FlagThink</text>
</a>
</g>
</g>
<!-- Node8&#45;&gt;Node9 -->
<g id="edge8" class="edge"><title>Node8&#45;&gt;Node9</title>
<path fill="none" stroke="midnightblue" d="M607.146,-48C618.26,-48 629.542,-48 639.704,-48"/>
<polygon fill="midnightblue" stroke="midnightblue" points="607.023,-44.5001 597.023,-48 607.023,-51.5001 607.023,-44.5001"/>
</g>
<!-- Node10 -->
<g id="node10" class="node"><title>Node10</title>
<g id="a_node10"><a xlink:href="../../dd/d0c/sv__ctf_8qc.html#ae4da0b9f3b47d57388ba498d2baed651" target="_top" xlink:title="ctf_FlagSetup">
<polygon fill="none" stroke="black" points="752.5,-38.5 752.5,-57.5 829.5,-57.5 829.5,-38.5 752.5,-38.5"/>
<text text-anchor="middle" x="791" y="-45.5" font-family="Helvetica,sans-Serif" font-size="10.00">ctf_FlagSetup</text>
</a>
</g>
</g>
<!-- Node9&#45;&gt;Node10 -->
<g id="edge9" class="edge"><title>Node9&#45;&gt;Node10</title>
<path fill="none" stroke="midnightblue" d="M726.279,-48C734.957,-48 743.909,-48 752.261,-48"/>
<polygon fill="midnightblue" stroke="midnightblue" points="726.27,-44.5001 716.27,-48 726.27,-51.5001 726.27,-44.5001"/>
</g>
<!-- Node11 -->
<g id="node11" class="node"><title>Node11</title>
<g id="a_node11"><a xlink:href="../../dd/d0c/sv__ctf_8qc.html#a2a2129ef74628a0c8bef5d48a016e3e0" target="_top" xlink:title="spawnfunc">
<polygon fill="none" stroke="black" points="866,-38.5 866,-57.5 930,-57.5 930,-38.5 866,-38.5"/>
<text text-anchor="middle" x="898" y="-45.5" font-family="Helvetica,sans-Serif" font-size="10.00">spawnfunc</text>
</a>
</g>
</g>
<!-- Node10&#45;&gt;Node11 -->
<g id="edge10" class="edge"><title>Node10&#45;&gt;Node11</title>
<path fill="none" stroke="midnightblue" d="M839.843,-48C848.68,-48 857.695,-48 865.875,-48"/>
<polygon fill="midnightblue" stroke="midnightblue" points="839.611,-44.5001 829.611,-48 839.611,-51.5001 839.611,-44.5001"/>
</g>
</g>
</svg>
        <g id="navigator" transform="translate(0 0)" fill="#404254">
                <rect fill="#f2f5e9" fill-opacity="0.5" stroke="#606060" stroke-width=".5" x="0" y="0" width="60" height="60"/>
                <use id="zoomplus" xlink:href="#zoomPlus" x="17" y="9" onmousedown="handleZoom(evt,'in')"/>
                <use id="zoomminus" xlink:href="#zoomMin" x="42" y="9" onmousedown="handleZoom(evt,'out')"/>
                <use id="reset" xlink:href="#resetDef" x="30" y="36" onmousedown="handleReset()"/>
                <g id="arrowUp" xlink:href="#dirArrow" transform="translate(30 24)" onmousedown="handlePan(0,-1)">
                  <use xlink:href="#rim" fill="#404040">
                        <set attributeName="fill" to="#808080" begin="arrowUp.mouseover" end="arrowUp.mouseout"/>
                  </use>
                  <path fill="none" stroke="white" stroke-width="1.5" d="M0,-3.0v7 M-2.5,-0.5L0,-3.0L2.5,-0.5"/>
                </g>
                <g id="arrowRight" xlink:href="#dirArrow" transform="rotate(90) translate(36 -43)" onmousedown="handlePan(1,0)">
                  <use xlink:href="#rim" fill="#404040">
                        <set attributeName="fill" to="#808080" begin="arrowRight.mouseover" end="arrowRight.mouseout"/>
                  </use>
                  <path fill="none" stroke="white" stroke-width="1.5" d="M0,-3.0v7 M-2.5,-0.5L0,-3.0L2.5,-0.5"/>
                </g>
                <g id="arrowDown" xlink:href="#dirArrow" transform="rotate(180) translate(-30 -48)" onmousedown="handlePan(0,1)">
                  <use xlink:href="#rim" fill="#404040">
                        <set attributeName="fill" to="#808080" begin="arrowDown.mouseover" end="arrowDown.mouseout"/>
                  </use>
                  <path fill="none" stroke="white" stroke-width="1.5" d="M0,-3.0v7 M-2.5,-0.5L0,-3.0L2.5,-0.5"/>
                </g>
                <g id="arrowLeft" xlink:href="#dirArrow" transform="rotate(270) translate(-36 17)" onmousedown="handlePan(-1,0)">
                  <use xlink:href="#rim" fill="#404040">
                        <set attributeName="fill" to="#808080" begin="arrowLeft.mouseover" end="arrowLeft.mouseout"/>
                  </use>
                  <path fill="none" stroke="white" stroke-width="1.5" d="M0,-3.0v7 M-2.5,-0.5L0,-3.0L2.5,-0.5"/>
                </g>
        </g>
        <svg viewBox="0 0 15 15" width="100%" height="30px" preserveAspectRatio="xMaxYMin meet">
         <g id="arrow_out" transform="scale(0.3 0.3)">
          <a xlink:href="race_8qh_a2b2a6102f551e81871f8b1e030a2e9e0_icgraph_org.svg" target="_base">
           <rect id="button" ry="5" rx="5" y="6" x="6" height="38" width="38"
                fill="#f2f5e9" fill-opacity="0.5" stroke="#606060" stroke-width="1.0"/>
           <path id="arrow"
             d="M 11.500037,31.436501 C 11.940474,20.09759 22.043105,11.32322 32.158766,21.979434 L 37.068811,17.246167 C 37.068811,17.246167 37.088388,32 37.088388,32 L 22.160133,31.978069 C 22.160133,31.978069 26.997745,27.140456 26.997745,27.140456 C 18.528582,18.264221 13.291696,25.230495 11.500037,31.436501 z"
             style="fill:#404040;"/>
          </a>
         </g>
        </svg>
</svg>
