<?xml version="1.0" encoding="UTF-8" standalone="no"?>
<!DOCTYPE svg PUBLIC "-//W3C//DTD SVG 1.1//EN"
 "http://www.w3.org/Graphics/SVG/1.1/DTD/svg11.dtd">
<!-- Generated by graphviz version 2.36.0 (20140111.2315)
 -->
<!-- Title: race_setTime Pages: 1 -->
<svg width="686pt" height="66pt"
 viewBox="0.00 0.00 686.00 66.00" xmlns="http://www.w3.org/2000/svg" xmlns:xlink="http://www.w3.org/1999/xlink">
<g id="graph0" class="graph" transform="scale(1 1) rotate(0) translate(4 62)">
<title>race_setTime</title>
<!-- Node1 -->
<g id="node1" class="node"><title>Node1</title>
<polygon fill="#bfbfbf" stroke="black" points="0,-19.5 0,-38.5 76,-38.5 76,-19.5 0,-19.5"/>
<text text-anchor="middle" x="38" y="-26.5" font-family="Helvetica,sans-Serif" font-size="10.00">race_setTime</text>
</g>
<!-- Node2 -->
<g id="node2" class="node"><title>Node2</title>
<g id="a_node2"><a xlink:href="../../dd/d0c/sv__ctf_8qc.html#aba1e98b6d35915f2dd8d9ec564f69c4f" target="_top" xlink:title="ctf_CaptureRecord">
<polygon fill="none" stroke="black" points="112.5,-38.5 112.5,-57.5 211.5,-57.5 211.5,-38.5 112.5,-38.5"/>
<text text-anchor="middle" x="162" y="-45.5" font-family="Helvetica,sans-Serif" font-size="10.00">ctf_CaptureRecord</text>
</a>
</g>
</g>
<!-- Node1&#45;&gt;Node2 -->
<g id="edge1" class="edge"><title>Node1&#45;&gt;Node2</title>
<path fill="none" stroke="midnightblue" d="M86.3896,-36.3803C94.8778,-37.7023 103.737,-39.0819 112.262,-40.4096"/>
<polygon fill="midnightblue" stroke="midnightblue" points="86.6864,-32.8845 76.2669,-34.8039 85.6092,-39.8011 86.6864,-32.8845"/>
</g>
<!-- Node7 -->
<g id="node7" class="node"><title>Node7</title>
<g id="a_node7"><a xlink:href="../../d6/d3b/race_8qc.html#a67d4330e2cc2507d55de968501e8de67" target="_top" xlink:title="race_SendTime">
<polygon fill="none" stroke="black" points="119.5,-0.5 119.5,-19.5 204.5,-19.5 204.5,-0.5 119.5,-0.5"/>
<text text-anchor="middle" x="162" y="-7.5" font-family="Helvetica,sans-Serif" font-size="10.00">race_SendTime</text>
</a>
</g>
</g>
<!-- Node1&#45;&gt;Node7 -->
<g id="edge6" class="edge"><title>Node1&#45;&gt;Node7</title>
<path fill="none" stroke="midnightblue" d="M86.4242,-21.6143C97.2605,-19.9266 108.699,-18.1452 119.276,-16.498"/>
<polygon fill="midnightblue" stroke="midnightblue" points="85.6092,-18.1989 76.2669,-23.1961 86.6864,-25.1155 85.6092,-18.1989"/>
</g>
<!-- Node3 -->
<g id="node3" class="node"><title>Node3</title>
<g id="a_node3"><a xlink:href="../../dd/d0c/sv__ctf_8qc.html#a25811e1a3df660687ed3240c93c5643e" target="_top" xlink:title="ctf_Handle_Capture">
<polygon fill="none" stroke="black" points="248,-38.5 248,-57.5 352,-57.5 352,-38.5 248,-38.5"/>
<text text-anchor="middle" x="300" y="-45.5" font-family="Helvetica,sans-Serif" font-size="10.00">ctf_Handle_Capture</text>
</a>
</g>
</g>
<!-- Node2&#45;&gt;Node3 -->
<g id="edge2" class="edge"><title>Node2&#45;&gt;Node3</title>
<path fill="none" stroke="midnightblue" d="M221.782,-48C230.467,-48 239.357,-48 247.87,-48"/>
<polygon fill="midnightblue" stroke="midnightblue" points="221.715,-44.5001 211.715,-48 221.715,-51.5001 221.715,-44.5001"/>
</g>
<!-- Node4 -->
<g id="node4" class="node"><title>Node4</title>
<g id="a_node4"><a xlink:href="../../dd/d0c/sv__ctf_8qc.html#a8edcce745140a0191b957e969f8a2cfb" target="_top" xlink:title="ctf_FlagThink">
<polygon fill="none" stroke="black" points="388,-38.5 388,-57.5 464,-57.5 464,-38.5 388,-38.5"/>
<text text-anchor="middle" x="426" y="-45.5" font-family="Helvetica,sans-Serif" font-size="10.00">ctf_FlagThink</text>
</a>
</g>
</g>
<!-- Node3&#45;&gt;Node4 -->
<g id="edge3" class="edge"><title>Node3&#45;&gt;Node4</title>
<path fill="none" stroke="midnightblue" d="M362.375,-48C371.126,-48 379.893,-48 387.98,-48"/>
<polygon fill="midnightblue" stroke="midnightblue" points="362.151,-44.5001 352.151,-48 362.151,-51.5001 362.151,-44.5001"/>
</g>
<!-- Node5 -->
<g id="node5" class="node"><title>Node5</title>
<g id="a_node5"><a xlink:href="../../dd/d0c/sv__ctf_8qc.html#ae4da0b9f3b47d57388ba498d2baed651" target="_top" xlink:title="ctf_FlagSetup">
<polygon fill="none" stroke="black" points="500.5,-38.5 500.5,-57.5 577.5,-57.5 577.5,-38.5 500.5,-38.5"/>
<text text-anchor="middle" x="539" y="-45.5" font-family="Helvetica,sans-Serif" font-size="10.00">ctf_FlagSetup</text>
</a>
</g>
</g>
<!-- Node4&#45;&gt;Node5 -->
<g id="edge4" class="edge"><title>Node4&#45;&gt;Node5</title>
<path fill="none" stroke="midnightblue" d="M474.279,-48C482.957,-48 491.909,-48 500.261,-48"/>
<polygon fill="midnightblue" stroke="midnightblue" points="474.27,-44.5001 464.27,-48 474.27,-51.5001 474.27,-44.5001"/>
</g>
<!-- Node6 -->
<g id="node6" class="node"><title>Node6</title>
<g id="a_node6"><a xlink:href="../../dd/d0c/sv__ctf_8qc.html#a2a2129ef74628a0c8bef5d48a016e3e0" target="_top" xlink:title="spawnfunc">
<polygon fill="none" stroke="black" points="614,-38.5 614,-57.5 678,-57.5 678,-38.5 614,-38.5"/>
<text text-anchor="middle" x="646" y="-45.5" font-family="Helvetica,sans-Serif" font-size="10.00">spawnfunc</text>
</a>
</g>
</g>
<!-- Node5&#45;&gt;Node6 -->
<g id="edge5" class="edge"><title>Node5&#45;&gt;Node6</title>
<path fill="none" stroke="midnightblue" d="M587.843,-48C596.68,-48 605.695,-48 613.875,-48"/>
<polygon fill="midnightblue" stroke="midnightblue" points="587.611,-44.5001 577.611,-48 587.611,-51.5001 587.611,-44.5001"/>
</g>
</g>
</svg>
