<?xml version="1.0" encoding="UTF-8" standalone="no"?>
<!DOCTYPE svg PUBLIC "-//W3C//DTD SVG 1.1//EN"
 "http://www.w3.org/Graphics/SVG/1.1/DTD/svg11.dtd">
<!-- Generated by graphviz version 2.40.1 (20161225.0304)
 -->
<!-- Title: Get_Notif_TypeName Pages: 1 -->
<!--zoomable 301 -->
<svg id="main" version="1.1" xmlns="http://www.w3.org/2000/svg" xmlns:xlink="http://www.w3.org/1999/xlink" xml:space="preserve" onload="init(evt)">
<style type="text/css"><![CDATA[
.edge:hover path { stroke: red; }
.edge:hover polygon { stroke: red; fill: red; }
]]></style>
<script type="text/javascript"><![CDATA[
var edges = document.getElementsByTagName('g');
if (edges && edges.length) {
  for (var i=0;i<edges.length;i++) {
    if (edges[i].id.substr(0,4)=='edge') {
      edges[i].setAttribute('class','edge');
    }
  }
}
]]></script>
        <defs>
                <circle id="rim" cx="0" cy="0" r="7"/>
                <circle id="rim2" cx="0" cy="0" r="3.5"/>
                <g id="zoomPlus">
                        <use xlink:href="#rim" fill="#404040">
                                <set attributeName="fill" to="#808080" begin="zoomplus.mouseover" end="zoomplus.mouseout"/>
                        </use>
                        <path d="M-4,0h8M0,-4v8" fill="none" stroke="white" stroke-width="1.5" pointer-events="none"/>
                </g>
                <g id="zoomMin">
                        <use xlink:href="#rim" fill="#404040">
                                <set attributeName="fill" to="#808080" begin="zoomminus.mouseover" end="zoomminus.mouseout"/>
                        </use>
                        <path d="M-4,0h8" fill="none" stroke="white" stroke-width="1.5" pointer-events="none"/>
                </g>
                <g id="dirArrow">
                        <path fill="none" stroke="white" stroke-width="1.5" d="M0,-3.0v7 M-2.5,-0.5L0,-3.0L2.5,-0.5"/>
                </g>
               <g id="resetDef">
                       <use xlink:href="#rim2" fill="#404040">
                               <set attributeName="fill" to="#808080" begin="reset.mouseover" end="reset.mouseout"/>
                       </use>
               </g>
        </defs>

<script type="text/javascript">
var viewWidth = 1162;
var viewHeight = 301;
var sectionId = 'dynsection-16';
</script>
<script xlink:href="../../svgpan.js"/>
<svg id="graph" class="graph">
<g id="viewport">
<title>Get_Notif_TypeName</title>
<!-- Node72 -->
<g id="node1" class="node">
<title>Node72</title>
<polygon fill="#bfbfbf" stroke="#000000" points="0,-120.5 0,-139.5 120,-139.5 120,-120.5 0,-120.5"/>
<text text-anchor="middle" x="60" y="-127.5" font-family="Helvetica,sans-Serif" font-size="10.00" fill="#000000">Get_Notif_TypeName</text>
</g>
<!-- Node73 -->
<g id="node2" class="node">
<title>Node73</title>
<g id="a_node2"><a xlink:href="../../dc/d8f/notifications_2all_8qh.html#aebba04739a8cedbc68c1561271936be9" target="_top" xlink:title="Create_Notification\l_Entity_Annce">
<polygon fill="none" stroke="#000000" points="156,-262 156,-292 266,-292 266,-262 156,-262"/>
<text text-anchor="start" x="164" y="-280" font-family="Helvetica,sans-Serif" font-size="10.00" fill="#000000">Create_Notification</text>
<text text-anchor="middle" x="211" y="-269" font-family="Helvetica,sans-Serif" font-size="10.00" fill="#000000">_Entity_Annce</text>
</a>
</g>
</g>
<!-- Node72&#45;&gt;Node73 -->
<g id="edge1" class="edge">
<title>Node72&#45;&gt;Node73</title>
<path fill="none" stroke="#191970" d="M70.4017,-148.5712C85.9762,-174.9229 117.6626,-223.2608 156,-253 160.2805,-256.3205 165.0914,-259.2823 170.0405,-261.8941"/>
<polygon fill="#191970" stroke="#191970" points="73.2723,-146.5431 65.2412,-139.6328 67.2101,-150.0431 73.2723,-146.5431"/>
</g>
<!-- Node74 -->
<g id="node3" class="node">
<title>Node74</title>
<g id="a_node3"><a xlink:href="../../dc/d8f/notifications_2all_8qh.html#a682b66e5aae4a02b19ba825760896610" target="_top" xlink:title="Create_Notification\l_Entity_Choice">
<polygon fill="none" stroke="#000000" points="156,-213 156,-243 266,-243 266,-213 156,-213"/>
<text text-anchor="start" x="164" y="-231" font-family="Helvetica,sans-Serif" font-size="10.00" fill="#000000">Create_Notification</text>
<text text-anchor="middle" x="211" y="-220" font-family="Helvetica,sans-Serif" font-size="10.00" fill="#000000">_Entity_Choice</text>
</a>
</g>
</g>
<!-- Node72&#45;&gt;Node74 -->
<g id="edge2" class="edge">
<title>Node72&#45;&gt;Node74</title>
<path fill="none" stroke="#191970" d="M78.3017,-146.3153C96.9299,-162.3737 127.0985,-186.9074 156,-204 161.3804,-207.182 167.2599,-210.1908 173.1091,-212.9328"/>
<polygon fill="#191970" stroke="#191970" points="80.4354,-143.5318 70.6009,-139.5906 75.8311,-148.8045 80.4354,-143.5318"/>
</g>
<!-- Node75 -->
<g id="node4" class="node">
<title>Node75</title>
<g id="a_node4"><a xlink:href="../../dc/d8f/notifications_2all_8qh.html#a0271f2897012f4c89692ef7cea9745da" target="_top" xlink:title="Create_Notification\l_Entity_InfoCenter">
<polygon fill="none" stroke="#000000" points="156,-164 156,-194 266,-194 266,-164 156,-164"/>
<text text-anchor="start" x="164" y="-182" font-family="Helvetica,sans-Serif" font-size="10.00" fill="#000000">Create_Notification</text>
<text text-anchor="middle" x="211" y="-171" font-family="Helvetica,sans-Serif" font-size="10.00" fill="#000000">_Entity_InfoCenter</text>
</a>
</g>
</g>
<!-- Node72&#45;&gt;Node75 -->
<g id="edge3" class="edge">
<title>Node72&#45;&gt;Node75</title>
<path fill="none" stroke="#191970" d="M99.1991,-142.7202C119.2203,-149.2172 143.7109,-157.1645 164.6616,-163.963"/>
<polygon fill="#191970" stroke="#191970" points="100.0648,-139.3216 89.4728,-139.564 97.9042,-145.9798 100.0648,-139.3216"/>
</g>
<!-- Node76 -->
<g id="node5" class="node">
<title>Node76</title>
<g id="a_node5"><a xlink:href="../../dc/d8f/notifications_2all_8qh.html#a35cfe798defcaf81e37f8ca4a779f6f2" target="_top" xlink:title="Create_Notification\l_Entity_Multi">
<polygon fill="none" stroke="#000000" points="156,-115 156,-145 266,-145 266,-115 156,-115"/>
<text text-anchor="start" x="164" y="-133" font-family="Helvetica,sans-Serif" font-size="10.00" fill="#000000">Create_Notification</text>
<text text-anchor="middle" x="211" y="-122" font-family="Helvetica,sans-Serif" font-size="10.00" fill="#000000">_Entity_Multi</text>
</a>
</g>
</g>
<!-- Node72&#45;&gt;Node76 -->
<g id="edge4" class="edge">
<title>Node72&#45;&gt;Node76</title>
<path fill="none" stroke="#191970" d="M130.2035,-130C138.8589,-130 147.6076,-130 155.9916,-130"/>
<polygon fill="#191970" stroke="#191970" points="130.1131,-126.5001 120.1131,-130 130.113,-133.5001 130.1131,-126.5001"/>
</g>
<!-- Node77 -->
<g id="node6" class="node">
<title>Node77</title>
<g id="a_node6"><a xlink:href="../../dc/d8f/notifications_2all_8qh.html#a5880c6fc61675845e6b4159eec215879" target="_top" xlink:title="Get_Notif_Ent">
<polygon fill="none" stroke="#000000" points="169,-76.5 169,-95.5 253,-95.5 253,-76.5 169,-76.5"/>
<text text-anchor="middle" x="211" y="-83.5" font-family="Helvetica,sans-Serif" font-size="10.00" fill="#000000">Get_Notif_Ent</text>
</a>
</g>
</g>
<!-- Node72&#45;&gt;Node77 -->
<g id="edge5" class="edge">
<title>Node72&#45;&gt;Node77</title>
<path fill="none" stroke="#191970" d="M102.6737,-117.5653C126.6665,-110.574 156.1515,-101.9823 178.2992,-95.5287"/>
<polygon fill="#191970" stroke="#191970" points="101.3863,-114.2948 92.7648,-120.4527 103.3446,-121.0153 101.3863,-114.2948"/>
</g>
<!-- Node78 -->
<g id="node7" class="node">
<title>Node78</title>
<g id="a_node7"><a xlink:href="../../dc/d8f/notifications_2all_8qh.html#ab191ea2d6864d62cf12f82140b351f66" target="_top" xlink:title="glue for networking, forwards to Local_Notification ">
<polygon fill="none" stroke="#000000" points="302,-38.5 302,-57.5 441,-57.5 441,-38.5 302,-38.5"/>
<text text-anchor="middle" x="371.5" y="-45.5" font-family="Helvetica,sans-Serif" font-size="10.00" fill="#000000">Local_Notification_WOVA</text>
</a>
</g>
</g>
<!-- Node72&#45;&gt;Node78 -->
<g id="edge17" class="edge">
<title>Node72&#45;&gt;Node78</title>
<path fill="none" stroke="#191970" d="M78.6093,-113.7059C96.927,-98.7111 126.3851,-77.2879 156,-67 202.8316,-50.7311 258.663,-46.188 301.7619,-45.6039"/>
<polygon fill="#191970" stroke="#191970" points="75.9617,-111.3592 70.56,-120.4736 80.4665,-116.717 75.9617,-111.3592"/>
</g>
<!-- Node79 -->
<g id="node8" class="node">
<title>Node79</title>
<g id="a_node8"><a xlink:href="../../dc/d8f/notifications_2all_8qh.html#a4533800e729b98bacf130e45337d6e50" target="_top" xlink:title="Local_Notification">
<polygon fill="none" stroke="#000000" points="477,-38.5 477,-57.5 581,-57.5 581,-38.5 477,-38.5"/>
<text text-anchor="middle" x="529" y="-45.5" font-family="Helvetica,sans-Serif" font-size="10.00" fill="#000000">Local_Notification</text>
</a>
</g>
</g>
<!-- Node72&#45;&gt;Node79 -->
<g id="edge16" class="edge">
<title>Node72&#45;&gt;Node79</title>
<path fill="none" stroke="#191970" d="M73.455,-112.2813C90.2564,-91.6473 121.0742,-58.4266 156,-43 271.2242,7.8942 426.6735,-21.4332 494.7122,-38.4613"/>
<polygon fill="#191970" stroke="#191970" points="70.5989,-110.2503 67.1415,-120.2652 76.0896,-114.5923 70.5989,-110.2503"/>
</g>
<!-- Node77&#45;&gt;Node78 -->
<g id="edge6" class="edge">
<title>Node77&#45;&gt;Node78</title>
<path fill="none" stroke="#191970" d="M261.2453,-74.1039C283.8052,-68.7626 310.0609,-62.5463 331.2903,-57.5201"/>
<polygon fill="#191970" stroke="#191970" points="260.4255,-70.7012 251.5009,-76.411 262.0383,-77.5129 260.4255,-70.7012"/>
</g>
<!-- Node78&#45;&gt;Node78 -->
<g id="edge15" class="edge">
<title>Node78&#45;&gt;Node78</title>
<path fill="none" stroke="#191970" d="M342.3809,-66.6539C343.5981,-71.9368 353.3044,-76 371.5,-76 399.2266,-76 407.2413,-66.5653 395.5441,-57.7571"/>
<polygon fill="#191970" stroke="#191970" points="345.5412,-68.1775 347.4559,-57.7571 339.4609,-64.7091 345.5412,-68.1775"/>
</g>
<!-- Node78&#45;&gt;Node79 -->
<g id="edge7" class="edge">
<title>Node78&#45;&gt;Node79</title>
<path fill="none" stroke="#191970" d="M451.2352,-41.2505C459.9353,-41.2588 468.6192,-41.3769 476.8624,-41.6049"/>
<polygon fill="#191970" stroke="#191970" points="451.0262,-37.7512 441.0403,-41.2912 451.0542,-44.7511 451.0262,-37.7512"/>
</g>
<!-- Node79&#45;&gt;Node78 -->
<g id="edge14" class="edge">
<title>Node79&#45;&gt;Node78</title>
<path fill="none" stroke="#191970" d="M466.7306,-54.6169C458.2943,-54.755 449.5938,-54.7856 441.0403,-54.7088"/>
<polygon fill="#191970" stroke="#191970" points="466.9414,-58.1132 476.8624,-54.3951 466.7881,-51.1149 466.9414,-58.1132"/>
</g>
<!-- Node80 -->
<g id="node9" class="node">
<title>Node80</title>
<g id="a_node9"><a xlink:href="../../da/df4/announcer_8qc.html#a972b888aa4fd3cae1116a4007198882e" target="_top" xlink:title="Announcer_Countdown">
<polygon fill="none" stroke="#000000" points="617,-76.5 617,-95.5 745,-95.5 745,-76.5 617,-76.5"/>
<text text-anchor="middle" x="681" y="-83.5" font-family="Helvetica,sans-Serif" font-size="10.00" fill="#000000">Announcer_Countdown</text>
</a>
</g>
</g>
<!-- Node79&#45;&gt;Node80 -->
<g id="edge8" class="edge">
<title>Node79&#45;&gt;Node80</title>
<path fill="none" stroke="#191970" d="M577.16,-60.04C598.3951,-65.3488 622.995,-71.4988 642.9198,-76.4799"/>
<polygon fill="#191970" stroke="#191970" points="577.9063,-56.6189 567.356,-57.589 576.2085,-63.4099 577.9063,-56.6189"/>
</g>
<!-- Node81 -->
<g id="node10" class="node">
<title>Node81</title>
<g id="a_node10"><a xlink:href="../../da/df4/announcer_8qc.html#a6429db50567f691e555d27cb8a1bdb97" target="_top" xlink:title="Announcer_Gamestart">
<polygon fill="none" stroke="#000000" points="781,-57.5 781,-76.5 906,-76.5 906,-57.5 781,-57.5"/>
<text text-anchor="middle" x="843.5" y="-64.5" font-family="Helvetica,sans-Serif" font-size="10.00" fill="#000000">Announcer_Gamestart</text>
</a>
</g>
</g>
<!-- Node79&#45;&gt;Node81 -->
<g id="edge12" class="edge">
<title>Node79&#45;&gt;Node81</title>
<path fill="none" stroke="#191970" d="M591.5801,-51.7807C646.4679,-55.0966 725.8679,-59.8934 780.7932,-63.2117"/>
<polygon fill="#191970" stroke="#191970" points="591.4792,-48.2683 581.2863,-51.1588 591.057,-55.2555 591.4792,-48.2683"/>
</g>
<!-- Node84 -->
<g id="node13" class="node">
<title>Node84</title>
<g id="a_node13"><a xlink:href="../../df/d30/client_2main_8qc.html#a6df675d5ce651f8a28f9d6a958c42b37" target="_top" xlink:title="NET_HANDLE">
<polygon fill="none" stroke="#000000" points="640,-.5 640,-19.5 722,-19.5 722,-.5 640,-.5"/>
<text text-anchor="middle" x="681" y="-7.5" font-family="Helvetica,sans-Serif" font-size="10.00" fill="#000000">NET_HANDLE</text>
</a>
</g>
</g>
<!-- Node79&#45;&gt;Node84 -->
<g id="edge13" class="edge">
<title>Node79&#45;&gt;Node84</title>
<path fill="none" stroke="#191970" d="M577.16,-35.96C598.3951,-30.6512 622.995,-24.5012 642.9198,-19.5201"/>
<polygon fill="#191970" stroke="#191970" points="576.2085,-32.5901 567.356,-38.411 577.9063,-39.3811 576.2085,-32.5901"/>
</g>
<!-- Node80&#45;&gt;Node81 -->
<g id="edge9" class="edge">
<title>Node80&#45;&gt;Node81</title>
<path fill="none" stroke="#191970" d="M755.1991,-77.3244C763.7568,-76.3238 772.4197,-75.3109 780.804,-74.3306"/>
<polygon fill="#191970" stroke="#191970" points="754.7501,-73.853 745.2243,-78.4907 755.5631,-80.8056 754.7501,-73.853"/>
</g>
<!-- Node82 -->
<g id="node11" class="node">
<title>Node82</title>
<g id="a_node11"><a xlink:href="../../df/d71/announcer_8qh.html#abb5b4637e37634b1b1ccc43540b8b369" target="_top" xlink:title="Announcer">
<polygon fill="none" stroke="#000000" points="942,-57.5 942,-76.5 1010,-76.5 1010,-57.5 942,-57.5"/>
<text text-anchor="middle" x="976" y="-64.5" font-family="Helvetica,sans-Serif" font-size="10.00" fill="#000000">Announcer</text>
</a>
</g>
</g>
<!-- Node81&#45;&gt;Node82 -->
<g id="edge10" class="edge">
<title>Node81&#45;&gt;Node82</title>
<path fill="none" stroke="#191970" d="M916.3551,-67C925.2687,-67 934.0213,-67 941.9586,-67"/>
<polygon fill="#191970" stroke="#191970" points="916.2578,-63.5001 906.2578,-67 916.2578,-70.5001 916.2578,-63.5001"/>
</g>
<!-- Node83 -->
<g id="node12" class="node">
<title>Node83</title>
<g id="a_node12"><a xlink:href="../../d6/dd3/view_8qc.html#a7b9e2c12c6a461c93afb197bd1a93c8f" target="_top" xlink:title="CSQC_UpdateView">
<polygon fill="none" stroke="#000000" points="1046,-57.5 1046,-76.5 1154,-76.5 1154,-57.5 1046,-57.5"/>
<text text-anchor="middle" x="1100" y="-64.5" font-family="Helvetica,sans-Serif" font-size="10.00" fill="#000000">CSQC_UpdateView</text>
</a>
</g>
</g>
<!-- Node82&#45;&gt;Node83 -->
<g id="edge11" class="edge">
<title>Node82&#45;&gt;Node83</title>
<path fill="none" stroke="#191970" d="M1020.3864,-67C1028.6502,-67 1037.3693,-67 1045.8866,-67"/>
<polygon fill="#191970" stroke="#191970" points="1020.2118,-63.5001 1010.2118,-67 1020.2118,-70.5001 1020.2118,-63.5001"/>
</g>
</g>
</svg>
        <g id="navigator" transform="translate(0 0)" fill="#404254">
                <rect fill="#f2f5e9" fill-opacity="0.5" stroke="#606060" stroke-width=".5" x="0" y="0" width="60" height="60"/>
                <use id="zoomplus" xlink:href="#zoomPlus" x="17" y="9" onmousedown="handleZoom(evt,'in')"/>
                <use id="zoomminus" xlink:href="#zoomMin" x="42" y="9" onmousedown="handleZoom(evt,'out')"/>
                <use id="reset" xlink:href="#resetDef" x="30" y="36" onmousedown="handleReset()"/>
                <g id="arrowUp" xlink:href="#dirArrow" transform="translate(30 24)" onmousedown="handlePan(0,-1)">
                  <use xlink:href="#rim" fill="#404040">
                        <set attributeName="fill" to="#808080" begin="arrowUp.mouseover" end="arrowUp.mouseout"/>
                  </use>
                  <path fill="none" stroke="white" stroke-width="1.5" d="M0,-3.0v7 M-2.5,-0.5L0,-3.0L2.5,-0.5"/>
                </g>
                <g id="arrowRight" xlink:href="#dirArrow" transform="rotate(90) translate(36 -43)" onmousedown="handlePan(1,0)">
                  <use xlink:href="#rim" fill="#404040">
                        <set attributeName="fill" to="#808080" begin="arrowRight.mouseover" end="arrowRight.mouseout"/>
                  </use>
                  <path fill="none" stroke="white" stroke-width="1.5" d="M0,-3.0v7 M-2.5,-0.5L0,-3.0L2.5,-0.5"/>
                </g>
                <g id="arrowDown" xlink:href="#dirArrow" transform="rotate(180) translate(-30 -48)" onmousedown="handlePan(0,1)">
                  <use xlink:href="#rim" fill="#404040">
                        <set attributeName="fill" to="#808080" begin="arrowDown.mouseover" end="arrowDown.mouseout"/>
                  </use>
                  <path fill="none" stroke="white" stroke-width="1.5" d="M0,-3.0v7 M-2.5,-0.5L0,-3.0L2.5,-0.5"/>
                </g>
                <g id="arrowLeft" xlink:href="#dirArrow" transform="rotate(270) translate(-36 17)" onmousedown="handlePan(-1,0)">
                  <use xlink:href="#rim" fill="#404040">
                        <set attributeName="fill" to="#808080" begin="arrowLeft.mouseover" end="arrowLeft.mouseout"/>
                  </use>
                  <path fill="none" stroke="white" stroke-width="1.5" d="M0,-3.0v7 M-2.5,-0.5L0,-3.0L2.5,-0.5"/>
                </g>
        </g>
        <svg viewBox="0 0 15 15" width="100%" height="30px" preserveAspectRatio="xMaxYMin meet">
         <g id="arrow_out" transform="scale(0.3 0.3)">
          <a xlink:href="notifications_2all_8qh_aac2b36f59983f5ae089d0e9c1f8831fb_icgraph_org.svg" target="_base">
           <rect id="button" ry="5" rx="5" y="6" x="6" height="38" width="38"
                fill="#f2f5e9" fill-opacity="0.5" stroke="#606060" stroke-width="1.0"/>
           <path id="arrow"
             d="M 11.500037,31.436501 C 11.940474,20.09759 22.043105,11.32322 32.158766,21.979434 L 37.068811,17.246167 C 37.068811,17.246167 37.088388,32 37.088388,32 L 22.160133,31.978069 C 22.160133,31.978069 26.997745,27.140456 26.997745,27.140456 C 18.528582,18.264221 13.291696,25.230495 11.500037,31.436501 z"
             style="fill:#404040;"/>
          </a>
         </g>
        </svg>
</svg>
