<?xml version="1.0" encoding="UTF-8" standalone="no"?>
<!DOCTYPE svg PUBLIC "-//W3C//DTD SVG 1.1//EN"
 "http://www.w3.org/Graphics/SVG/1.1/DTD/svg11.dtd">
<!-- Generated by graphviz version 2.36.0 (20140111.2315)
 -->
<!-- Title: NET_HANDLE Pages: 1 -->
<!--zoomable 218 -->
<svg id="main" version="1.1" xmlns="http://www.w3.org/2000/svg" xmlns:xlink="http://www.w3.org/1999/xlink" xml:space="preserve" onload="init(evt)">
<style type="text/css"><![CDATA[
.edge:hover path { stroke: red; }
.edge:hover polygon { stroke: red; fill: red; }
]]></style>
<script type="text/javascript"><![CDATA[
var edges = document.getElementsByTagName('g');
if (edges && edges.length) {
  for (var i=0;i<edges.length;i++) {
    if (edges[i].id.substr(0,4)=='edge') {
      edges[i].setAttribute('class','edge');
    }
  }
}
]]></script>
        <defs>
                <circle id="rim" cx="0" cy="0" r="7"/>
                <circle id="rim2" cx="0" cy="0" r="3.5"/>
                <g id="zoomPlus">
                        <use xlink:href="#rim" fill="#404040">
                                <set attributeName="fill" to="#808080" begin="zoomplus.mouseover" end="zoomplus.mouseout"/>
                        </use>
                        <path d="M-4,0h8M0,-4v8" fill="none" stroke="white" stroke-width="1.5" pointer-events="none"/>
                </g>
                <g id="zoomMin">
                        <use xlink:href="#rim" fill="#404040">
                                <set attributeName="fill" to="#808080" begin="zoomminus.mouseover" end="zoomminus.mouseout"/>
                        </use>
                        <path d="M-4,0h8" fill="none" stroke="white" stroke-width="1.5" pointer-events="none"/>
                </g>
                <g id="dirArrow">
                        <path fill="none" stroke="white" stroke-width="1.5" d="M0,-3.0v7 M-2.5,-0.5L0,-3.0L2.5,-0.5"/>
                </g>
               <g id="resetDef">
                       <use xlink:href="#rim2" fill="#404040">
                               <set attributeName="fill" to="#808080" begin="reset.mouseover" end="reset.mouseout"/>
                       </use>
               </g>
        </defs>

<script type="text/javascript">
var viewWidth = 820;
var viewHeight = 218;
var sectionId = 'dynsection-9';
</script>
<script xlink:href="../../svgpan.js"/>
<svg id="graph" class="graph">
<g id="viewport">
<title>NET_HANDLE</title>
<!-- Node1 -->
<g id="node1" class="node"><title>Node1</title>
<polygon fill="#bfbfbf" stroke="black" points="0.5,-152.5 0.5,-171.5 83.5,-171.5 83.5,-152.5 0.5,-152.5"/>
<text text-anchor="middle" x="42" y="-159.5" font-family="Helvetica,sans-Serif" font-size="10.00">NET_HANDLE</text>
</g>
<!-- Node2 -->
<g id="node2" class="node"><title>Node2</title>
<g id="a_node2"><a xlink:href="../../df/d07/cl__generator_8qc.html#aced13174db9e81330e2463cb1eef84ff" target="_top" xlink:title="generator_changeteam">
<polygon fill="none" stroke="black" points="120,-190.5 120,-209.5 236,-209.5 236,-190.5 120,-190.5"/>
<text text-anchor="middle" x="178" y="-197.5" font-family="Helvetica,sans-Serif" font-size="10.00">generator_changeteam</text>
</a>
</g>
</g>
<!-- Node1&#45;&gt;Node2 -->
<g id="edge1" class="edge"><title>Node1&#45;&gt;Node2</title>
<path fill="none" stroke="midnightblue" d="M76.8139,-171.589C94.0326,-176.472 115.164,-182.464 133.573,-187.685"/>
<polygon fill="midnightblue" stroke="midnightblue" points="132.621,-191.053 143.197,-190.414 134.531,-184.319 132.621,-191.053"/>
</g>
<!-- Node4 -->
<g id="node4" class="node"><title>Node4</title>
<g id="a_node4"><a xlink:href="../../df/d07/cl__generator_8qc.html#aea3e5c54f8850f0e619b63d8a29e1685" target="_top" xlink:title="generator_construct">
<polygon fill="none" stroke="black" points="126.5,-152.5 126.5,-171.5 229.5,-171.5 229.5,-152.5 126.5,-152.5"/>
<text text-anchor="middle" x="178" y="-159.5" font-family="Helvetica,sans-Serif" font-size="10.00">generator_construct</text>
</a>
</g>
</g>
<!-- Node1&#45;&gt;Node4 -->
<g id="edge3" class="edge"><title>Node1&#45;&gt;Node4</title>
<path fill="none" stroke="midnightblue" d="M83.5681,-162C93.83,-162 105.077,-162 116.102,-162"/>
<polygon fill="midnightblue" stroke="midnightblue" points="116.13,-165.5 126.13,-162 116.13,-158.5 116.13,-165.5"/>
</g>
<!-- Node15 -->
<g id="node15" class="node"><title>Node15</title>
<g id="a_node15"><a xlink:href="../../df/d07/cl__generator_8qc.html#a17113ca9f8dc87e435cd5941bfcb71f2" target="_top" xlink:title="generator_damage">
<polygon fill="none" stroke="black" points="129.5,-114.5 129.5,-133.5 226.5,-133.5 226.5,-114.5 129.5,-114.5"/>
<text text-anchor="middle" x="178" y="-121.5" font-family="Helvetica,sans-Serif" font-size="10.00">generator_damage</text>
</a>
</g>
</g>
<!-- Node1&#45;&gt;Node15 -->
<g id="edge18" class="edge"><title>Node1&#45;&gt;Node15</title>
<path fill="none" stroke="midnightblue" d="M76.8139,-152.411C94.0326,-147.528 115.164,-141.536 133.573,-136.315"/>
<polygon fill="midnightblue" stroke="midnightblue" points="134.531,-139.681 143.197,-133.586 132.621,-132.947 134.531,-139.681"/>
</g>
<!-- Node3 -->
<g id="node3" class="node"><title>Node3</title>
<g id="a_node3"><a xlink:href="../../db/d07/teams_8qh.html#a40887618c0a56497f855f5631aa428d9" target="_top" xlink:title="Team_ColorRGB">
<polygon fill="none" stroke="black" points="272,-190.5 272,-209.5 364,-209.5 364,-190.5 272,-190.5"/>
<text text-anchor="middle" x="318" y="-197.5" font-family="Helvetica,sans-Serif" font-size="10.00">Team_ColorRGB</text>
</a>
</g>
</g>
<!-- Node2&#45;&gt;Node3 -->
<g id="edge2" class="edge"><title>Node2&#45;&gt;Node3</title>
<path fill="none" stroke="midnightblue" d="M236.326,-200C244.749,-200 253.412,-200 261.791,-200"/>
<polygon fill="midnightblue" stroke="midnightblue" points="261.838,-203.5 271.838,-200 261.837,-196.5 261.838,-203.5"/>
</g>
<!-- Node5 -->
<g id="node5" class="node"><title>Node5</title>
<g id="a_node5"><a xlink:href="../../df/d07/cl__generator_8qc.html#a9d3002c4116ca5cdfd4f80ac929b88f2" target="_top" xlink:title="generator_draw">
<polygon fill="none" stroke="black" points="276.5,-57.5 276.5,-76.5 359.5,-76.5 359.5,-57.5 276.5,-57.5"/>
<text text-anchor="middle" x="318" y="-64.5" font-family="Helvetica,sans-Serif" font-size="10.00">generator_draw</text>
</a>
</g>
</g>
<!-- Node4&#45;&gt;Node5 -->
<g id="edge4" class="edge"><title>Node4&#45;&gt;Node5</title>
<path fill="none" stroke="midnightblue" d="M215.613,-152.407C222.625,-149.854 229.728,-146.739 236,-143 262.617,-127.13 287.736,-101.236 302.749,-84.1562"/>
<polygon fill="midnightblue" stroke="midnightblue" points="305.41,-86.4295 309.269,-76.5625 300.099,-81.8693 305.41,-86.4295"/>
</g>
<!-- Node9 -->
<g id="node9" class="node"><title>Node9</title>
<g id="a_node9"><a xlink:href="../../d4/dd7/movetypes_8qh.html#a8bf89be84cb481d218ff41140eacff78" target="_top" xlink:title="set_movetype">
<polygon fill="none" stroke="black" points="591,-190.5 591,-209.5 669,-209.5 669,-190.5 591,-190.5"/>
<text text-anchor="middle" x="630" y="-197.5" font-family="Helvetica,sans-Serif" font-size="10.00">set_movetype</text>
</a>
</g>
</g>
<!-- Node4&#45;&gt;Node9 -->
<g id="edge17" class="edge"><title>Node4&#45;&gt;Node9</title>
<path fill="none" stroke="midnightblue" d="M229.746,-166.285C317.214,-173.671 495.206,-188.702 580.847,-195.934"/>
<polygon fill="midnightblue" stroke="midnightblue" points="580.562,-199.422 590.821,-196.776 581.151,-192.447 580.562,-199.422"/>
</g>
<!-- Node6 -->
<g id="node6" class="node"><title>Node6</title>
<g id="a_node6"><a xlink:href="../../df/d07/cl__generator_8qc.html#a7945b6c27743d9c111ffd61a56cc36ae" target="_top" xlink:title="ons_generator_ray_spawn">
<polygon fill="none" stroke="black" points="400.5,-76.5 400.5,-95.5 531.5,-95.5 531.5,-76.5 400.5,-76.5"/>
<text text-anchor="middle" x="466" y="-83.5" font-family="Helvetica,sans-Serif" font-size="10.00">ons_generator_ray_spawn</text>
</a>
</g>
</g>
<!-- Node5&#45;&gt;Node6 -->
<g id="edge5" class="edge"><title>Node5&#45;&gt;Node6</title>
<path fill="none" stroke="midnightblue" d="M359.669,-72.2926C369.26,-73.5407 379.784,-74.9103 390.355,-76.2859"/>
<polygon fill="midnightblue" stroke="midnightblue" points="390.106,-79.783 400.474,-77.6028 391.009,-72.8415 390.106,-79.783"/>
</g>
<!-- Node10 -->
<g id="node10" class="node"><title>Node10</title>
<g id="a_node10"><a xlink:href="../../d8/de2/menudefs_8qc.html#a663ea6aa3c4923b3e065cf91cc319f1b" target="_top" xlink:title="random">
<polygon fill="none" stroke="black" points="605.5,-0.5 605.5,-19.5 654.5,-19.5 654.5,-0.5 605.5,-0.5"/>
<text text-anchor="middle" x="630" y="-7.5" font-family="Helvetica,sans-Serif" font-size="10.00">random</text>
</a>
</g>
</g>
<!-- Node5&#45;&gt;Node10 -->
<g id="edge14" class="edge"><title>Node5&#45;&gt;Node10</title>
<path fill="none" stroke="midnightblue" d="M359.871,-59.9195C402.778,-52.4368 472.186,-40.1928 532,-29 552.966,-25.0767 576.44,-20.4841 595.043,-16.797"/>
<polygon fill="midnightblue" stroke="midnightblue" points="595.978,-20.1797 605.104,-14.7973 594.613,-13.314 595.978,-20.1797"/>
</g>
<!-- Node14 -->
<g id="node14" class="node"><title>Node14</title>
<g id="a_node14"><a xlink:href="../../de/dcb/vector_8qh.html#afa1e5c0be263a77e0c71292ab0a4dd74" target="_top" xlink:title="randompos">
<polygon fill="none" stroke="black" points="433.5,-0.5 433.5,-19.5 498.5,-19.5 498.5,-0.5 433.5,-0.5"/>
<text text-anchor="middle" x="466" y="-7.5" font-family="Helvetica,sans-Serif" font-size="10.00">randompos</text>
</a>
</g>
</g>
<!-- Node5&#45;&gt;Node14 -->
<g id="edge15" class="edge"><title>Node5&#45;&gt;Node14</title>
<path fill="none" stroke="midnightblue" d="M341.962,-57.4081C358.135,-50.7107 380.324,-41.6383 400,-34 409.322,-30.3814 419.443,-26.5823 428.862,-23.1015"/>
<polygon fill="midnightblue" stroke="midnightblue" points="430.181,-26.3454 438.36,-19.6102 427.766,-19.7752 430.181,-26.3454"/>
</g>
<!-- Node7 -->
<g id="node7" class="node"><title>Node7</title>
<g id="a_node7"><a xlink:href="../../d4/d0c/csprogsdefs_8qc.html#acbb54a239d76062465dccbc6a6c6e464" target="_top" xlink:title="entity">
<polygon fill="none" stroke="black" points="749.5,-114.5 749.5,-133.5 790.5,-133.5 790.5,-114.5 749.5,-114.5"/>
<text text-anchor="middle" x="770" y="-121.5" font-family="Helvetica,sans-Serif" font-size="10.00">entity</text>
</a>
</g>
</g>
<!-- Node6&#45;&gt;Node7 -->
<g id="edge6" class="edge"><title>Node6&#45;&gt;Node7</title>
<path fill="none" stroke="midnightblue" d="M512.859,-95.5468C530.092,-98.8915 549.891,-102.446 568,-105 628.437,-113.523 699.651,-119.242 739.02,-122.028"/>
<polygon fill="midnightblue" stroke="midnightblue" points="739.026,-125.537 749.244,-122.736 739.509,-118.554 739.026,-125.537"/>
</g>
<!-- Node8 -->
<g id="node8" class="node"><title>Node8</title>
<g id="a_node8"><a xlink:href="../../d8/de2/menudefs_8qc.html#aa156cc8dd51c39572de799ab8a0dd8d0" target="_top" xlink:title="randomvec">
<polygon fill="none" stroke="black" points="597.5,-76.5 597.5,-95.5 662.5,-95.5 662.5,-76.5 597.5,-76.5"/>
<text text-anchor="middle" x="630" y="-83.5" font-family="Helvetica,sans-Serif" font-size="10.00">randomvec</text>
</a>
</g>
</g>
<!-- Node6&#45;&gt;Node8 -->
<g id="edge7" class="edge"><title>Node6&#45;&gt;Node8</title>
<path fill="none" stroke="midnightblue" d="M531.958,-86C550.62,-86 570.465,-86 587.314,-86"/>
<polygon fill="midnightblue" stroke="midnightblue" points="587.38,-89.5001 597.38,-86 587.38,-82.5001 587.38,-89.5001"/>
</g>
<!-- Node6&#45;&gt;Node9 -->
<g id="edge8" class="edge"><title>Node6&#45;&gt;Node9</title>
<path fill="none" stroke="midnightblue" d="M477.111,-95.6237C502.172,-119.462 565.336,-179.445 568,-181 572.152,-183.424 576.647,-185.571 581.249,-187.467"/>
<polygon fill="midnightblue" stroke="midnightblue" points="580.179,-190.803 590.772,-191.012 582.621,-184.243 580.179,-190.803"/>
</g>
<!-- Node6&#45;&gt;Node10 -->
<g id="edge9" class="edge"><title>Node6&#45;&gt;Node10</title>
<path fill="none" stroke="midnightblue" d="M500.548,-76.4064C511.019,-72.6896 522.347,-67.8894 532,-62 550.529,-50.6953 549.185,-39.8215 568,-29 576.473,-24.1265 586.342,-20.3568 595.64,-17.5085"/>
<polygon fill="midnightblue" stroke="midnightblue" points="596.728,-20.8384 605.414,-14.7707 594.84,-14.0979 596.728,-20.8384"/>
</g>
<!-- Node11 -->
<g id="node11" class="node"><title>Node11</title>
<g id="a_node11"><a xlink:href="../../df/d07/cl__generator_8qc.html#af238202f58cac7d9f856cab9edbd9dbe" target="_top" xlink:title="ons_generator_ray_draw">
<polygon fill="none" stroke="black" points="568.5,-38.5 568.5,-57.5 691.5,-57.5 691.5,-38.5 568.5,-38.5"/>
<text text-anchor="middle" x="630" y="-45.5" font-family="Helvetica,sans-Serif" font-size="10.00">ons_generator_ray_draw</text>
</a>
</g>
</g>
<!-- Node6&#45;&gt;Node11 -->
<g id="edge10" class="edge"><title>Node6&#45;&gt;Node11</title>
<path fill="none" stroke="midnightblue" d="M507.879,-76.411C529.353,-71.3739 555.86,-65.1562 578.597,-59.8229"/>
<polygon fill="midnightblue" stroke="midnightblue" points="579.478,-63.2113 588.415,-57.5201 577.879,-56.3963 579.478,-63.2113"/>
</g>
<!-- Node12 -->
<g id="node12" class="node"><title>Node12</title>
<g id="a_node12"><a xlink:href="../../d9/d51/intrusivelist_8qh.html#a44ed93b6aaca72d222ce263898d152b4" target="_top" xlink:title="Push to tail. ">
<polygon fill="none" stroke="black" points="600.5,-152.5 600.5,-171.5 659.5,-171.5 659.5,-152.5 600.5,-152.5"/>
<text text-anchor="middle" x="630" y="-159.5" font-family="Helvetica,sans-Serif" font-size="10.00">IL_PUSH</text>
</a>
</g>
</g>
<!-- Node6&#45;&gt;Node12 -->
<g id="edge11" class="edge"><title>Node6&#45;&gt;Node12</title>
<path fill="none" stroke="midnightblue" d="M484.255,-95.5591C504.157,-106.426 537.996,-124.415 568,-138 576.122,-141.677 584.986,-145.352 593.377,-148.68"/>
<polygon fill="midnightblue" stroke="midnightblue" points="592.349,-152.036 602.937,-152.409 594.892,-145.515 592.349,-152.036"/>
</g>
<!-- Node12&#45;&gt;Node7 -->
<g id="edge13" class="edge"><title>Node12&#45;&gt;Node7</title>
<path fill="none" stroke="midnightblue" d="M659.594,-154.126C682.976,-147.688 715.916,-138.617 739.532,-132.114"/>
<polygon fill="midnightblue" stroke="midnightblue" points="740.631,-135.442 749.342,-129.413 738.772,-128.693 740.631,-135.442"/>
</g>
<!-- Node13 -->
<g id="node13" class="node"><title>Node13</title>
<g id="a_node13"><a xlink:href="../../d9/d51/intrusivelist_8qh.html#a03533687dbcda21ca9480b3e4b13fb34" target="_top" xlink:title="IL_CONTAINS">
<polygon fill="none" stroke="black" points="728.5,-152.5 728.5,-171.5 811.5,-171.5 811.5,-152.5 728.5,-152.5"/>
<text text-anchor="middle" x="770" y="-159.5" font-family="Helvetica,sans-Serif" font-size="10.00">IL_CONTAINS</text>
</a>
</g>
</g>
<!-- Node12&#45;&gt;Node13 -->
<g id="edge12" class="edge"><title>Node12&#45;&gt;Node13</title>
<path fill="none" stroke="midnightblue" d="M659.594,-162C676.535,-162 698.495,-162 718.29,-162"/>
<polygon fill="midnightblue" stroke="midnightblue" points="718.406,-165.5 728.406,-162 718.406,-158.5 718.406,-165.5"/>
</g>
<!-- Node14&#45;&gt;Node10 -->
<g id="edge16" class="edge"><title>Node14&#45;&gt;Node10</title>
<path fill="none" stroke="midnightblue" d="M498.62,-10C526.38,-10 566.655,-10 595.08,-10"/>
<polygon fill="midnightblue" stroke="midnightblue" points="595.344,-13.5001 605.344,-10 595.344,-6.5001 595.344,-13.5001"/>
</g>
</g>
</svg>
        <g id="navigator" transform="translate(0 0)" fill="#404254">
                <rect fill="#f2f5e9" fill-opacity="0.5" stroke="#606060" stroke-width=".5" x="0" y="0" width="60" height="60"/>
                <use id="zoomplus" xlink:href="#zoomPlus" x="17" y="9" onmousedown="handleZoom(evt,'in')"/>
                <use id="zoomminus" xlink:href="#zoomMin" x="42" y="9" onmousedown="handleZoom(evt,'out')"/>
                <use id="reset" xlink:href="#resetDef" x="30" y="36" onmousedown="handleReset()"/>
                <g id="arrowUp" xlink:href="#dirArrow" transform="translate(30 24)" onmousedown="handlePan(0,-1)">
                  <use xlink:href="#rim" fill="#404040">
                        <set attributeName="fill" to="#808080" begin="arrowUp.mouseover" end="arrowUp.mouseout"/>
                  </use>
                  <path fill="none" stroke="white" stroke-width="1.5" d="M0,-3.0v7 M-2.5,-0.5L0,-3.0L2.5,-0.5"/>
                </g>
                <g id="arrowRight" xlink:href="#dirArrow" transform="rotate(90) translate(36 -43)" onmousedown="handlePan(1,0)">
                  <use xlink:href="#rim" fill="#404040">
                        <set attributeName="fill" to="#808080" begin="arrowRight.mouseover" end="arrowRight.mouseout"/>
                  </use>
                  <path fill="none" stroke="white" stroke-width="1.5" d="M0,-3.0v7 M-2.5,-0.5L0,-3.0L2.5,-0.5"/>
                </g>
                <g id="arrowDown" xlink:href="#dirArrow" transform="rotate(180) translate(-30 -48)" onmousedown="handlePan(0,1)">
                  <use xlink:href="#rim" fill="#404040">
                        <set attributeName="fill" to="#808080" begin="arrowDown.mouseover" end="arrowDown.mouseout"/>
                  </use>
                  <path fill="none" stroke="white" stroke-width="1.5" d="M0,-3.0v7 M-2.5,-0.5L0,-3.0L2.5,-0.5"/>
                </g>
                <g id="arrowLeft" xlink:href="#dirArrow" transform="rotate(270) translate(-36 17)" onmousedown="handlePan(-1,0)">
                  <use xlink:href="#rim" fill="#404040">
                        <set attributeName="fill" to="#808080" begin="arrowLeft.mouseover" end="arrowLeft.mouseout"/>
                  </use>
                  <path fill="none" stroke="white" stroke-width="1.5" d="M0,-3.0v7 M-2.5,-0.5L0,-3.0L2.5,-0.5"/>
                </g>
        </g>
        <svg viewBox="0 0 15 15" width="100%" height="30px" preserveAspectRatio="xMaxYMin meet">
         <g id="arrow_out" transform="scale(0.3 0.3)">
          <a xlink:href="cl__generator_8qc_afc31ff14aad2253b9fe8ce7091cab781_cgraph_org.svg" target="_base">
           <rect id="button" ry="5" rx="5" y="6" x="6" height="38" width="38"
                fill="#f2f5e9" fill-opacity="0.5" stroke="#606060" stroke-width="1.0"/>
           <path id="arrow"
             d="M 11.500037,31.436501 C 11.940474,20.09759 22.043105,11.32322 32.158766,21.979434 L 37.068811,17.246167 C 37.068811,17.246167 37.088388,32 37.088388,32 L 22.160133,31.978069 C 22.160133,31.978069 26.997745,27.140456 26.997745,27.140456 C 18.528582,18.264221 13.291696,25.230495 11.500037,31.436501 z"
             style="fill:#404040;"/>
          </a>
         </g>
        </svg>
</svg>
