<?xml version="1.0" encoding="UTF-8" standalone="no"?>
<!DOCTYPE svg PUBLIC "-//W3C//DTD SVG 1.1//EN"
 "http://www.w3.org/Graphics/SVG/1.1/DTD/svg11.dtd">
<!-- Generated by graphviz version 2.36.0 (20140111.2315)
 -->
<!-- Title: Item_CreateLoot Pages: 1 -->
<svg width="670pt" height="155pt"
 viewBox="0.00 0.00 670.00 155.00" xmlns="http://www.w3.org/2000/svg" xmlns:xlink="http://www.w3.org/1999/xlink">
<g id="graph0" class="graph" transform="scale(1 1) rotate(0) translate(4 151)">
<title>Item_CreateLoot</title>
<!-- Node1 -->
<g id="node1" class="node"><title>Node1</title>
<polygon fill="#bfbfbf" stroke="black" points="0.5,-70.5 0.5,-89.5 89.5,-89.5 89.5,-70.5 0.5,-70.5"/>
<text text-anchor="middle" x="45" y="-77.5" font-family="Helvetica,sans-Serif" font-size="10.00">Item_CreateLoot</text>
</g>
<!-- Node2 -->
<g id="node2" class="node"><title>Node2</title>
<g id="a_node2"><a xlink:href="../../d4/d0c/csprogsdefs_8qc.html#acbb54a239d76062465dccbc6a6c6e464" target="_top" xlink:title="entity">
<polygon fill="none" stroke="black" points="153.5,-108.5 153.5,-127.5 194.5,-127.5 194.5,-108.5 153.5,-108.5"/>
<text text-anchor="middle" x="174" y="-115.5" font-family="Helvetica,sans-Serif" font-size="10.00">entity</text>
</a>
</g>
</g>
<!-- Node1&#45;&gt;Node2 -->
<g id="edge1" class="edge"><title>Node1&#45;&gt;Node2</title>
<path fill="none" stroke="midnightblue" d="M78.0475,-89.589C98.1964,-95.6178 123.998,-103.338 143.618,-109.209"/>
<polygon fill="midnightblue" stroke="midnightblue" points="142.668,-112.578 153.252,-112.091 144.675,-105.871 142.668,-112.578"/>
</g>
<!-- Node3 -->
<g id="node3" class="node"><title>Node3</title>
<g id="a_node3"><a xlink:href="../../df/def/server_2items_8qc.html#a89f5174a26e743b85637afa34f5a6f81" target="_top" xlink:title="Initializes the loot item. ">
<polygon fill="none" stroke="black" points="126,-70.5 126,-89.5 222,-89.5 222,-70.5 126,-70.5"/>
<text text-anchor="middle" x="174" y="-77.5" font-family="Helvetica,sans-Serif" font-size="10.00">Item_InitializeLoot</text>
</a>
</g>
</g>
<!-- Node1&#45;&gt;Node3 -->
<g id="edge2" class="edge"><title>Node1&#45;&gt;Node3</title>
<path fill="none" stroke="midnightblue" d="M89.7062,-80C98.0607,-80 106.923,-80 115.63,-80"/>
<polygon fill="midnightblue" stroke="midnightblue" points="115.741,-83.5001 125.741,-80 115.741,-76.5001 115.741,-83.5001"/>
</g>
<!-- Node11 -->
<g id="node11" class="node"><title>Node11</title>
<g id="a_node11"><a xlink:href="../../d8/de2/menudefs_8qc.html#a60338c2153150633178af678cf3ca57c" target="_top" xlink:title="spawn">
<polygon fill="none" stroke="black" points="151.5,-32.5 151.5,-51.5 196.5,-51.5 196.5,-32.5 151.5,-32.5"/>
<text text-anchor="middle" x="174" y="-39.5" font-family="Helvetica,sans-Serif" font-size="10.00">spawn</text>
</a>
</g>
</g>
<!-- Node1&#45;&gt;Node11 -->
<g id="edge11" class="edge"><title>Node1&#45;&gt;Node11</title>
<path fill="none" stroke="midnightblue" d="M78.0475,-70.411C97.4811,-64.5962 122.173,-57.2081 141.506,-51.4235"/>
<polygon fill="midnightblue" stroke="midnightblue" points="142.771,-54.6982 151.348,-48.4785 140.765,-47.992 142.771,-54.6982"/>
</g>
<!-- Node4 -->
<g id="node4" class="node"><title>Node4</title>
<g id="a_node4"><a xlink:href="../../df/def/server_2items_8qc.html#a95b5587513272c12b9d401ba026d7550" target="_top" xlink:title="Sets the item loot status. ">
<polygon fill="none" stroke="black" points="260.5,-127.5 260.5,-146.5 335.5,-146.5 335.5,-127.5 260.5,-127.5"/>
<text text-anchor="middle" x="298" y="-134.5" font-family="Helvetica,sans-Serif" font-size="10.00">Item_SetLoot</text>
</a>
</g>
</g>
<!-- Node3&#45;&gt;Node4 -->
<g id="edge3" class="edge"><title>Node3&#45;&gt;Node4</title>
<path fill="none" stroke="midnightblue" d="M200.082,-89.5922C207.227,-92.472 214.976,-95.7369 222,-99 238.408,-106.622 241.866,-109.815 258,-118 261.186,-119.616 264.531,-121.286 267.866,-122.934"/>
<polygon fill="midnightblue" stroke="midnightblue" points="266.578,-126.201 277.098,-127.458 269.658,-119.915 266.578,-126.201"/>
</g>
<!-- Node5 -->
<g id="node5" class="node"><title>Node5</title>
<g id="a_node5"><a xlink:href="../../d5/dff/ent__cs_8qc.html#ac459a724c1fe031c6658fff554b12ea8" target="_top" xlink:title="setorigin">
<polygon fill="none" stroke="black" points="271.5,-89.5 271.5,-108.5 324.5,-108.5 324.5,-89.5 271.5,-89.5"/>
<text text-anchor="middle" x="298" y="-96.5" font-family="Helvetica,sans-Serif" font-size="10.00">setorigin</text>
</a>
</g>
</g>
<!-- Node3&#45;&gt;Node5 -->
<g id="edge4" class="edge"><title>Node3&#45;&gt;Node5</title>
<path fill="none" stroke="midnightblue" d="M222.168,-87.3459C235.134,-89.3651 248.979,-91.5213 261.19,-93.4231"/>
<polygon fill="midnightblue" stroke="midnightblue" points="261.018,-96.9384 271.438,-95.019 262.095,-90.0217 261.018,-96.9384"/>
</g>
<!-- Node6 -->
<g id="node6" class="node"><title>Node6</title>
<g id="a_node6"><a xlink:href="../../df/def/server_2items_8qc.html#a1abbc2840126cee768cba2d54dca5e62" target="_top" xlink:title="Initializes the item according to class name. ">
<polygon fill="none" stroke="black" points="259.5,-51.5 259.5,-70.5 336.5,-70.5 336.5,-51.5 259.5,-51.5"/>
<text text-anchor="middle" x="298" y="-58.5" font-family="Helvetica,sans-Serif" font-size="10.00">Item_Initialize</text>
</a>
</g>
</g>
<!-- Node3&#45;&gt;Node6 -->
<g id="edge5" class="edge"><title>Node3&#45;&gt;Node6</title>
<path fill="none" stroke="midnightblue" d="M222.168,-72.6541C231.132,-71.2581 240.517,-69.7965 249.492,-68.3988"/>
<polygon fill="midnightblue" stroke="midnightblue" points="250.063,-71.8521 259.406,-66.8549 248.986,-64.9354 250.063,-71.8521"/>
</g>
<!-- Node8 -->
<g id="node8" class="node"><title>Node8</title>
<g id="a_node8"><a xlink:href="../../d2/dc2/subs_8qc.html#aaee12b410e85192641c50f8eeeef532f" target="_top" xlink:title="SUB_SetFade">
<polygon fill="none" stroke="black" points="258,-9.5 258,-28.5 338,-28.5 338,-9.5 258,-9.5"/>
<text text-anchor="middle" x="298" y="-16.5" font-family="Helvetica,sans-Serif" font-size="10.00">SUB_SetFade</text>
</a>
</g>
</g>
<!-- Node3&#45;&gt;Node8 -->
<g id="edge7" class="edge"><title>Node3&#45;&gt;Node8</title>
<path fill="none" stroke="midnightblue" d="M200.623,-70.3234C207.632,-67.4926 215.176,-64.2741 222,-61 231.625,-56.3825 253.915,-43.8092 271.708,-33.6143"/>
<polygon fill="midnightblue" stroke="midnightblue" points="273.586,-36.5718 280.512,-28.5545 270.098,-30.5027 273.586,-36.5718"/>
</g>
<!-- Node7 -->
<g id="node7" class="node"><title>Node7</title>
<g id="a_node7"><a xlink:href="../../d5/d26/server_2defs_8qh.html#a60096e5c98b3b608470b6130fce0b405" target="_top" xlink:title="weapon_defaultspawnfunc">
<polygon fill="none" stroke="black" points="374,-56.5 374,-75.5 506,-75.5 506,-56.5 374,-56.5"/>
<text text-anchor="middle" x="440" y="-63.5" font-family="Helvetica,sans-Serif" font-size="10.00">weapon_defaultspawnfunc</text>
</a>
</g>
</g>
<!-- Node6&#45;&gt;Node7 -->
<g id="edge6" class="edge"><title>Node6&#45;&gt;Node7</title>
<path fill="none" stroke="midnightblue" d="M336.517,-62.3399C344.964,-62.6416 354.221,-62.9722 363.608,-63.3074"/>
<polygon fill="midnightblue" stroke="midnightblue" points="363.694,-66.8126 373.813,-63.6719 363.944,-59.8171 363.694,-66.8126"/>
</g>
<!-- Node9 -->
<g id="node9" class="node"><title>Node9</title>
<g id="a_node9"><a xlink:href="../../d2/dc2/subs_8qc.html#a90e45de578dd2a4e3ea4cbc3c20008b1" target="_top" xlink:title="SUB_SetFade_Think">
<polygon fill="none" stroke="black" points="385.5,-0.5 385.5,-19.5 494.5,-19.5 494.5,-0.5 385.5,-0.5"/>
<text text-anchor="middle" x="440" y="-7.5" font-family="Helvetica,sans-Serif" font-size="10.00">SUB_SetFade_Think</text>
</a>
</g>
</g>
<!-- Node8&#45;&gt;Node9 -->
<g id="edge8" class="edge"><title>Node8&#45;&gt;Node9</title>
<path fill="none" stroke="midnightblue" d="M338.37,-16.469C349.857,-15.7306 362.715,-14.904 375.299,-14.0951"/>
<polygon fill="midnightblue" stroke="midnightblue" points="375.546,-17.5865 385.301,-13.4521 375.097,-10.6009 375.546,-17.5865"/>
</g>
<!-- Node9&#45;&gt;Node9 -->
<g id="edge9" class="edge"><title>Node9&#45;&gt;Node9</title>
<path fill="none" stroke="midnightblue" d="M418.114,-19.7571C407.466,-28.5653 414.762,-38 440,-38 456.563,-38 465.398,-33.9368 466.506,-28.6539"/>
<polygon fill="midnightblue" stroke="midnightblue" points="469.601,-27.0192 461.886,-19.7571 463.388,-30.2449 469.601,-27.0192"/>
</g>
<!-- Node10 -->
<g id="node10" class="node"><title>Node10</title>
<g id="a_node10"><a xlink:href="../../d2/dc2/subs_8qc.html#ad0806fe42eadae7a1a7a48660cbbd755" target="_top" xlink:title="SUB_VanishOrRemove">
<polygon fill="none" stroke="black" points="542,-0.5 542,-19.5 662,-19.5 662,-0.5 542,-0.5"/>
<text text-anchor="middle" x="602" y="-7.5" font-family="Helvetica,sans-Serif" font-size="10.00">SUB_VanishOrRemove</text>
</a>
</g>
</g>
<!-- Node9&#45;&gt;Node10 -->
<g id="edge10" class="edge"><title>Node9&#45;&gt;Node10</title>
<path fill="none" stroke="midnightblue" d="M494.723,-10C506.567,-10 519.276,-10 531.64,-10"/>
<polygon fill="midnightblue" stroke="midnightblue" points="531.918,-13.5001 541.918,-10 531.918,-6.5001 531.918,-13.5001"/>
</g>
</g>
</svg>
