<?xml version="1.0" encoding="UTF-8" standalone="no"?>
<!DOCTYPE svg PUBLIC "-//W3C//DTD SVG 1.1//EN"
 "http://www.w3.org/Graphics/SVG/1.1/DTD/svg11.dtd">
<!-- Generated by graphviz version 2.36.0 (20140111.2315)
 -->
<!-- Title: MapInfo_Type_Description Pages: 1 -->
<!--zoomable 153 -->
<svg id="main" version="1.1" xmlns="http://www.w3.org/2000/svg" xmlns:xlink="http://www.w3.org/1999/xlink" xml:space="preserve" onload="init(evt)">
<style type="text/css"><![CDATA[
.edge:hover path { stroke: red; }
.edge:hover polygon { stroke: red; fill: red; }
]]></style>
<script type="text/javascript"><![CDATA[
var edges = document.getElementsByTagName('g');
if (edges && edges.length) {
  for (var i=0;i<edges.length;i++) {
    if (edges[i].id.substr(0,4)=='edge') {
      edges[i].setAttribute('class','edge');
    }
  }
}
]]></script>
        <defs>
                <circle id="rim" cx="0" cy="0" r="7"/>
                <circle id="rim2" cx="0" cy="0" r="3.5"/>
                <g id="zoomPlus">
                        <use xlink:href="#rim" fill="#404040">
                                <set attributeName="fill" to="#808080" begin="zoomplus.mouseover" end="zoomplus.mouseout"/>
                        </use>
                        <path d="M-4,0h8M0,-4v8" fill="none" stroke="white" stroke-width="1.5" pointer-events="none"/>
                </g>
                <g id="zoomMin">
                        <use xlink:href="#rim" fill="#404040">
                                <set attributeName="fill" to="#808080" begin="zoomminus.mouseover" end="zoomminus.mouseout"/>
                        </use>
                        <path d="M-4,0h8" fill="none" stroke="white" stroke-width="1.5" pointer-events="none"/>
                </g>
                <g id="dirArrow">
                        <path fill="none" stroke="white" stroke-width="1.5" d="M0,-3.0v7 M-2.5,-0.5L0,-3.0L2.5,-0.5"/>
                </g>
               <g id="resetDef">
                       <use xlink:href="#rim2" fill="#404040">
                               <set attributeName="fill" to="#808080" begin="reset.mouseover" end="reset.mouseout"/>
                       </use>
               </g>
        </defs>

<script type="text/javascript">
var viewWidth = 1236;
var viewHeight = 153;
var sectionId = 'dynsection-75';
</script>
<script xlink:href="../../svgpan.js"/>
<svg id="graph" class="graph">
<g id="viewport">
<title>MapInfo_Type_Description</title>
<!-- Node1 -->
<g id="node1" class="node"><title>Node1</title>
<polygon fill="#bfbfbf" stroke="black" points="0,-27.5 0,-46.5 134,-46.5 134,-27.5 0,-27.5"/>
<text text-anchor="middle" x="67" y="-34.5" font-family="Helvetica,sans-Serif" font-size="10.00">MapInfo_Type_Description</text>
</g>
<!-- Node2 -->
<g id="node2" class="node"><title>Node2</title>
<g id="a_node2"><a xlink:href="../../d4/d0d/client_2mapvoting_8qc.html#a2d18123ee9cdfee569be86229f2cf9aa" target="_top" xlink:title="GameTypeVote_ReadOption">
<polygon fill="none" stroke="black" points="170,-49.5 170,-68.5 312,-68.5 312,-49.5 170,-49.5"/>
<text text-anchor="middle" x="241" y="-56.5" font-family="Helvetica,sans-Serif" font-size="10.00">GameTypeVote_ReadOption</text>
</a>
</g>
</g>
<!-- Node1&#45;&gt;Node2 -->
<g id="edge1" class="edge"><title>Node1&#45;&gt;Node2</title>
<path fill="none" stroke="midnightblue" d="M144.024,-46.7239C152.626,-47.8243 161.364,-48.9419 169.886,-50.0319"/>
<polygon fill="midnightblue" stroke="midnightblue" points="144.371,-43.24 134.008,-45.4429 143.483,-50.1834 144.371,-43.24"/>
</g>
<!-- Node12 -->
<g id="node12" class="node"><title>Node12</title>
<g id="a_node12"><a xlink:href="../../d2/db8/gametypelist_8qc.html#a9f8776239bf151378989aca163d9323c" target="_top" xlink:title="XonoticGametypeList\l_focusedItemChangeNotify">
<polygon fill="none" stroke="black" points="173,-0 173,-30 309,-30 309,-0 173,-0"/>
<text text-anchor="start" x="181" y="-18" font-family="Helvetica,sans-Serif" font-size="10.00">XonoticGametypeList</text>
<text text-anchor="middle" x="241" y="-7" font-family="Helvetica,sans-Serif" font-size="10.00">_focusedItemChangeNotify</text>
</a>
</g>
</g>
<!-- Node1&#45;&gt;Node12 -->
<g id="edge14" class="edge"><title>Node1&#45;&gt;Node12</title>
<path fill="none" stroke="midnightblue" d="M143.929,-27.2882C153.527,-26.0605 163.295,-24.8111 172.746,-23.6023"/>
<polygon fill="midnightblue" stroke="midnightblue" points="143.483,-23.8166 134.008,-28.5571 144.371,-30.76 143.483,-23.8166"/>
</g>
<!-- Node3 -->
<g id="node3" class="node"><title>Node3</title>
<g id="a_node3"><a xlink:href="../../d4/d0d/client_2mapvoting_8qc.html#a8c437df1e36d1d6bc2c656765173f4b1" target="_top" xlink:title="MapVote_Init">
<polygon fill="none" stroke="black" points="348,-49.5 348,-68.5 422,-68.5 422,-49.5 348,-49.5"/>
<text text-anchor="middle" x="385" y="-56.5" font-family="Helvetica,sans-Serif" font-size="10.00">MapVote_Init</text>
</a>
</g>
</g>
<!-- Node2&#45;&gt;Node3 -->
<g id="edge2" class="edge"><title>Node2&#45;&gt;Node3</title>
<path fill="none" stroke="midnightblue" d="M322.233,-59C331.101,-59 339.774,-59 347.685,-59"/>
<polygon fill="midnightblue" stroke="midnightblue" points="322.168,-55.5001 312.168,-59 322.168,-62.5001 322.168,-55.5001"/>
</g>
<!-- Node4 -->
<g id="node4" class="node"><title>Node4</title>
<g id="a_node4"><a xlink:href="../../d2/d76/server_2mapvoting_8qc.html#af51679015526b11c6c6f6ba11cb5b7e4" target="_top" xlink:title="MapVote_Finished">
<polygon fill="none" stroke="black" points="458,-87.5 458,-106.5 556,-106.5 556,-87.5 458,-87.5"/>
<text text-anchor="middle" x="507" y="-94.5" font-family="Helvetica,sans-Serif" font-size="10.00">MapVote_Finished</text>
</a>
</g>
</g>
<!-- Node3&#45;&gt;Node4 -->
<g id="edge3" class="edge"><title>Node3&#45;&gt;Node4</title>
<path fill="none" stroke="midnightblue" d="M426.043,-71.6804C442.257,-76.8148 460.666,-82.6441 475.729,-87.4141"/>
<polygon fill="midnightblue" stroke="midnightblue" points="426.871,-68.2713 416.281,-68.589 424.758,-74.9447 426.871,-68.2713"/>
</g>
<!-- Node6 -->
<g id="node6" class="node"><title>Node6</title>
<g id="a_node6"><a xlink:href="../../d3/d53/server_2mapvoting_8qh.html#a55a404e632b9599200cdd019f8c03964" target="_top" xlink:title="MapVote_Think">
<polygon fill="none" stroke="black" points="902.5,-87.5 902.5,-106.5 987.5,-106.5 987.5,-87.5 902.5,-87.5"/>
<text text-anchor="middle" x="945" y="-94.5" font-family="Helvetica,sans-Serif" font-size="10.00">MapVote_Think</text>
</a>
</g>
</g>
<!-- Node3&#45;&gt;Node6 -->
<g id="edge12" class="edge"><title>Node3&#45;&gt;Node6</title>
<path fill="none" stroke="midnightblue" d="M432.243,-57.7833C518.158,-56.1969 708.026,-55.8589 866,-78 881.045,-80.1087 897.419,-83.8662 911.262,-87.4861"/>
<polygon fill="midnightblue" stroke="midnightblue" points="431.974,-54.2879 422.045,-57.9868 432.113,-61.2865 431.974,-54.2879"/>
</g>
<!-- Node11 -->
<g id="node11" class="node"><title>Node11</title>
<g id="a_node11"><a xlink:href="../../d4/d0d/client_2mapvoting_8qc.html#aa02a7858026ab986e154231aae514df0" target="_top" xlink:title="NET_HANDLE">
<polygon fill="none" stroke="black" points="465.5,-11.5 465.5,-30.5 548.5,-30.5 548.5,-11.5 465.5,-11.5"/>
<text text-anchor="middle" x="507" y="-18.5" font-family="Helvetica,sans-Serif" font-size="10.00">NET_HANDLE</text>
</a>
</g>
</g>
<!-- Node3&#45;&gt;Node11 -->
<g id="edge13" class="edge"><title>Node3&#45;&gt;Node11</title>
<path fill="none" stroke="midnightblue" d="M426.043,-46.3196C442.257,-41.1852 460.666,-35.3559 475.729,-30.5859"/>
<polygon fill="midnightblue" stroke="midnightblue" points="424.758,-43.0553 416.281,-49.411 426.871,-49.7287 424.758,-43.0553"/>
</g>
<!-- Node5 -->
<g id="node5" class="node"><title>Node5</title>
<g id="a_node5"><a xlink:href="../../d3/d53/server_2mapvoting_8qh.html#a9e23e88fcace6381b529ac8060f0ad26" target="_top" xlink:title="GameTypeVote_Start">
<polygon fill="none" stroke="black" points="754.5,-125.5 754.5,-144.5 865.5,-144.5 865.5,-125.5 754.5,-125.5"/>
<text text-anchor="middle" x="810" y="-132.5" font-family="Helvetica,sans-Serif" font-size="10.00">GameTypeVote_Start</text>
</a>
</g>
</g>
<!-- Node4&#45;&gt;Node5 -->
<g id="edge4" class="edge"><title>Node4&#45;&gt;Node5</title>
<path fill="none" stroke="midnightblue" d="M554.864,-108.776C566.905,-111.477 579.882,-114.108 592,-116 646.927,-124.576 710.324,-129.568 754.354,-132.264"/>
<polygon fill="midnightblue" stroke="midnightblue" points="555.539,-105.34 545.009,-106.505 553.967,-112.161 555.539,-105.34"/>
</g>
<!-- Node9 -->
<g id="node9" class="node"><title>Node9</title>
<g id="a_node9"><a xlink:href="../../d2/d76/server_2mapvoting_8qc.html#a76e4720691beeecd37b230f0157c4527" target="_top" xlink:title="MapVote_CheckRules_2">
<polygon fill="none" stroke="black" points="592.5,-87.5 592.5,-106.5 717.5,-106.5 717.5,-87.5 592.5,-87.5"/>
<text text-anchor="middle" x="655" y="-94.5" font-family="Helvetica,sans-Serif" font-size="10.00">MapVote_CheckRules_2</text>
</a>
</g>
</g>
<!-- Node4&#45;&gt;Node9 -->
<g id="edge9" class="edge"><title>Node4&#45;&gt;Node9</title>
<path fill="none" stroke="midnightblue" d="M566.425,-97C574.938,-97 583.727,-97 592.302,-97"/>
<polygon fill="midnightblue" stroke="midnightblue" points="566.211,-93.5001 556.21,-97 566.21,-100.5 566.211,-93.5001"/>
</g>
<!-- Node5&#45;&gt;Node6 -->
<g id="edge5" class="edge"><title>Node5&#45;&gt;Node6</title>
<path fill="none" stroke="midnightblue" d="M854.367,-122.609C872.581,-117.406 893.439,-111.446 910.449,-106.586"/>
<polygon fill="midnightblue" stroke="midnightblue" points="853.215,-119.298 844.562,-125.411 855.138,-126.029 853.215,-119.298"/>
</g>
<!-- Node7 -->
<g id="node7" class="node"><title>Node7</title>
<g id="a_node7"><a xlink:href="../../d7/d97/g__world_8qh.html#a233af455133bc7ba4e3e100115bf2885" target="_top" xlink:title="CheckRules_World">
<polygon fill="none" stroke="black" points="1024.5,-87.5 1024.5,-106.5 1125.5,-106.5 1125.5,-87.5 1024.5,-87.5"/>
<text text-anchor="middle" x="1075" y="-94.5" font-family="Helvetica,sans-Serif" font-size="10.00">CheckRules_World</text>
</a>
</g>
</g>
<!-- Node6&#45;&gt;Node7 -->
<g id="edge6" class="edge"><title>Node6&#45;&gt;Node7</title>
<path fill="none" stroke="midnightblue" d="M997.642,-97C1006.39,-97 1015.46,-97 1024.17,-97"/>
<polygon fill="midnightblue" stroke="midnightblue" points="997.558,-93.5001 987.558,-97 997.558,-100.5 997.558,-93.5001"/>
</g>
<!-- Node7&#45;&gt;Node7 -->
<g id="edge7" class="edge"><title>Node7&#45;&gt;Node7</title>
<path fill="none" stroke="midnightblue" d="M1052.68,-116.029C1053.9,-121.128 1061.34,-125 1075,-125 1096.33,-125 1102.49,-115.565 1093.5,-106.757"/>
<polygon fill="midnightblue" stroke="midnightblue" points="1055.93,-117.336 1056.5,-106.757 1049.45,-114.666 1055.93,-117.336"/>
</g>
<!-- Node8 -->
<g id="node8" class="node"><title>Node8</title>
<g id="a_node8"><a xlink:href="../../d3/d4f/sv__main_8qc.html#a554af7e2ac58045168dad9eca30bc8b1" target="_top" xlink:title="StartFrame">
<polygon fill="none" stroke="black" points="1162.5,-87.5 1162.5,-106.5 1227.5,-106.5 1227.5,-87.5 1162.5,-87.5"/>
<text text-anchor="middle" x="1195" y="-94.5" font-family="Helvetica,sans-Serif" font-size="10.00">StartFrame</text>
</a>
</g>
</g>
<!-- Node7&#45;&gt;Node8 -->
<g id="edge8" class="edge"><title>Node7&#45;&gt;Node8</title>
<path fill="none" stroke="midnightblue" d="M1135.91,-97C1144.98,-97 1154.02,-97 1162.17,-97"/>
<polygon fill="midnightblue" stroke="midnightblue" points="1135.7,-93.5001 1125.7,-97 1135.7,-100.5 1135.7,-93.5001"/>
</g>
<!-- Node10 -->
<g id="node10" class="node"><title>Node10</title>
<g id="a_node10"><a xlink:href="../../d2/d76/server_2mapvoting_8qc.html#a5ac2229ef4b363054b5b66d314e89437" target="_top" xlink:title="MapVote_Tick">
<polygon fill="none" stroke="black" points="770,-87.5 770,-106.5 850,-106.5 850,-87.5 770,-87.5"/>
<text text-anchor="middle" x="810" y="-94.5" font-family="Helvetica,sans-Serif" font-size="10.00">MapVote_Tick</text>
</a>
</g>
</g>
<!-- Node9&#45;&gt;Node10 -->
<g id="edge10" class="edge"><title>Node9&#45;&gt;Node10</title>
<path fill="none" stroke="midnightblue" d="M728.186,-97C742.553,-97 757.124,-97 769.863,-97"/>
<polygon fill="midnightblue" stroke="midnightblue" points="727.79,-93.5001 717.79,-97 727.79,-100.5 727.79,-93.5001"/>
</g>
<!-- Node10&#45;&gt;Node6 -->
<g id="edge11" class="edge"><title>Node10&#45;&gt;Node6</title>
<path fill="none" stroke="midnightblue" d="M860.467,-97C874.234,-97 889.045,-97 902.317,-97"/>
<polygon fill="midnightblue" stroke="midnightblue" points="860.185,-93.5001 850.185,-97 860.185,-100.5 860.185,-93.5001"/>
</g>
</g>
</svg>
        <g id="navigator" transform="translate(0 0)" fill="#404254">
                <rect fill="#f2f5e9" fill-opacity="0.5" stroke="#606060" stroke-width=".5" x="0" y="0" width="60" height="60"/>
                <use id="zoomplus" xlink:href="#zoomPlus" x="17" y="9" onmousedown="handleZoom(evt,'in')"/>
                <use id="zoomminus" xlink:href="#zoomMin" x="42" y="9" onmousedown="handleZoom(evt,'out')"/>
                <use id="reset" xlink:href="#resetDef" x="30" y="36" onmousedown="handleReset()"/>
                <g id="arrowUp" xlink:href="#dirArrow" transform="translate(30 24)" onmousedown="handlePan(0,-1)">
                  <use xlink:href="#rim" fill="#404040">
                        <set attributeName="fill" to="#808080" begin="arrowUp.mouseover" end="arrowUp.mouseout"/>
                  </use>
                  <path fill="none" stroke="white" stroke-width="1.5" d="M0,-3.0v7 M-2.5,-0.5L0,-3.0L2.5,-0.5"/>
                </g>
                <g id="arrowRight" xlink:href="#dirArrow" transform="rotate(90) translate(36 -43)" onmousedown="handlePan(1,0)">
                  <use xlink:href="#rim" fill="#404040">
                        <set attributeName="fill" to="#808080" begin="arrowRight.mouseover" end="arrowRight.mouseout"/>
                  </use>
                  <path fill="none" stroke="white" stroke-width="1.5" d="M0,-3.0v7 M-2.5,-0.5L0,-3.0L2.5,-0.5"/>
                </g>
                <g id="arrowDown" xlink:href="#dirArrow" transform="rotate(180) translate(-30 -48)" onmousedown="handlePan(0,1)">
                  <use xlink:href="#rim" fill="#404040">
                        <set attributeName="fill" to="#808080" begin="arrowDown.mouseover" end="arrowDown.mouseout"/>
                  </use>
                  <path fill="none" stroke="white" stroke-width="1.5" d="M0,-3.0v7 M-2.5,-0.5L0,-3.0L2.5,-0.5"/>
                </g>
                <g id="arrowLeft" xlink:href="#dirArrow" transform="rotate(270) translate(-36 17)" onmousedown="handlePan(-1,0)">
                  <use xlink:href="#rim" fill="#404040">
                        <set attributeName="fill" to="#808080" begin="arrowLeft.mouseover" end="arrowLeft.mouseout"/>
                  </use>
                  <path fill="none" stroke="white" stroke-width="1.5" d="M0,-3.0v7 M-2.5,-0.5L0,-3.0L2.5,-0.5"/>
                </g>
        </g>
        <svg viewBox="0 0 15 15" width="100%" height="30px" preserveAspectRatio="xMaxYMin meet">
         <g id="arrow_out" transform="scale(0.3 0.3)">
          <a xlink:href="mapinfo_8qc_a64dec8604825bec73d85cbc37a1e75ae_icgraph_org.svg" target="_base">
           <rect id="button" ry="5" rx="5" y="6" x="6" height="38" width="38"
                fill="#f2f5e9" fill-opacity="0.5" stroke="#606060" stroke-width="1.0"/>
           <path id="arrow"
             d="M 11.500037,31.436501 C 11.940474,20.09759 22.043105,11.32322 32.158766,21.979434 L 37.068811,17.246167 C 37.068811,17.246167 37.088388,32 37.088388,32 L 22.160133,31.978069 C 22.160133,31.978069 26.997745,27.140456 26.997745,27.140456 C 18.528582,18.264221 13.291696,25.230495 11.500037,31.436501 z"
             style="fill:#404040;"/>
          </a>
         </g>
        </svg>
</svg>
