<?xml version="1.0" encoding="UTF-8" standalone="no"?>
<!DOCTYPE svg PUBLIC "-//W3C//DTD SVG 1.1//EN"
 "http://www.w3.org/Graphics/SVG/1.1/DTD/svg11.dtd">
<!-- Generated by graphviz version 2.38.0 (20140413.2041)
 -->
<!-- Title: MapInfo_Cache_Store Pages: 1 -->
<svg width="215pt" height="142pt"
 viewBox="0.00 0.00 215.00 142.00" xmlns="http://www.w3.org/2000/svg" xmlns:xlink="http://www.w3.org/1999/xlink">
<g id="graph0" class="graph" transform="scale(1 1) rotate(0) translate(4 138)">
<title>MapInfo_Cache_Store</title>
<!-- Node1 -->
<g id="node1" class="node"><title>Node1</title>
<polygon fill="#bfbfbf" stroke="black" points="0,-57.5 0,-76.5 121,-76.5 121,-57.5 0,-57.5"/>
<text text-anchor="middle" x="60.5" y="-64.5" font-family="Helvetica,sans-Serif" font-size="10.00">MapInfo_Cache_Store</text>
</g>
<!-- Node2 -->
<g id="node2" class="node"><title>Node2</title>
<g id="a_node2"><a xlink:href="../../d4/d54/map_8qh.html#a9ef8574526bd0fc3ba024e3ca148de85" target="_top" xlink:title="db_get">
<polygon fill="none" stroke="black" points="157,-114.5 157,-133.5 207,-133.5 207,-114.5 157,-114.5"/>
<text text-anchor="middle" x="182" y="-121.5" font-family="Helvetica,sans-Serif" font-size="10.00">db_get</text>
</a>
</g>
</g>
<!-- Node1&#45;&gt;Node2 -->
<g id="edge1" class="edge"><title>Node1&#45;&gt;Node2</title>
<path fill="none" stroke="midnightblue" d="M81.5016,-76.5405C100.717,-85.7061 129.97,-99.6595 151.791,-110.068"/>
<polygon fill="midnightblue" stroke="midnightblue" points="150.4,-113.282 160.933,-114.428 153.414,-106.964 150.4,-113.282"/>
</g>
<!-- Node3 -->
<g id="node3" class="node"><title>Node3</title>
<g id="a_node3"><a xlink:href="../../d4/d54/map_8qh.html#ac189c2086b07ba1ebaf3e630390ae0af" target="_top" xlink:title="db_put">
<polygon fill="none" stroke="black" points="157,-76.5 157,-95.5 207,-95.5 207,-76.5 157,-76.5"/>
<text text-anchor="middle" x="182" y="-83.5" font-family="Helvetica,sans-Serif" font-size="10.00">db_put</text>
</a>
</g>
</g>
<!-- Node1&#45;&gt;Node3 -->
<g id="edge2" class="edge"><title>Node1&#45;&gt;Node3</title>
<path fill="none" stroke="midnightblue" d="M121.25,-76.5C130.013,-77.8933 138.777,-79.2867 146.786,-80.5601"/>
<polygon fill="midnightblue" stroke="midnightblue" points="146.392,-84.0413 156.817,-82.1551 147.491,-77.1282 146.392,-84.0413"/>
</g>
<!-- Node4 -->
<g id="node4" class="node"><title>Node4</title>
<g id="a_node4"><a xlink:href="../../d8/de2/menudefs_8qc.html#abbb0d86741e0056b6c04f7280c185d76" target="_top" xlink:title="ftos">
<polygon fill="none" stroke="black" points="164.5,-38.5 164.5,-57.5 199.5,-57.5 199.5,-38.5 164.5,-38.5"/>
<text text-anchor="middle" x="182" y="-45.5" font-family="Helvetica,sans-Serif" font-size="10.00">ftos</text>
</a>
</g>
</g>
<!-- Node1&#45;&gt;Node4 -->
<g id="edge3" class="edge"><title>Node1&#45;&gt;Node4</title>
<path fill="none" stroke="midnightblue" d="M121.25,-57.5C132.905,-55.6469 144.561,-53.7937 154.442,-52.2226"/>
<polygon fill="midnightblue" stroke="midnightblue" points="155.058,-55.6688 164.384,-50.6419 153.958,-48.7556 155.058,-55.6688"/>
</g>
<!-- Node5 -->
<g id="node5" class="node"><title>Node5</title>
<g id="a_node5"><a xlink:href="../../d8/de2/menudefs_8qc.html#a2f6d3020689c0e872cfb455d0b2cbd4a" target="_top" xlink:title="stof">
<polygon fill="none" stroke="black" points="164.5,-0.5 164.5,-19.5 199.5,-19.5 199.5,-0.5 164.5,-0.5"/>
<text text-anchor="middle" x="182" y="-7.5" font-family="Helvetica,sans-Serif" font-size="10.00">stof</text>
</a>
</g>
</g>
<!-- Node1&#45;&gt;Node5 -->
<g id="edge4" class="edge"><title>Node1&#45;&gt;Node5</title>
<path fill="none" stroke="midnightblue" d="M81.5016,-57.4595C101.759,-47.797 133.172,-32.8134 155.272,-22.2721"/>
<polygon fill="midnightblue" stroke="midnightblue" points="156.886,-25.3801 164.405,-17.9158 153.872,-19.062 156.886,-25.3801"/>
</g>
</g>
</svg>
