<?xml version="1.0" encoding="UTF-8" standalone="no"?>
<!DOCTYPE svg PUBLIC "-//W3C//DTD SVG 1.1//EN"
 "http://www.w3.org/Graphics/SVG/1.1/DTD/svg11.dtd">
<!-- Generated by graphviz version 2.36.0 (20140111.2315)
 -->
<!-- Title: _MapInfo_GlobItem Pages: 1 -->
<svg width="1820pt" height="712pt"
 viewBox="0.00 0.00 1820.00 712.00" xmlns="http://www.w3.org/2000/svg" xmlns:xlink="http://www.w3.org/1999/xlink">
<g id="graph0" class="graph" transform="scale(1 1) rotate(0) translate(4 708)">
<title>_MapInfo_GlobItem</title>
<!-- Node1 -->
<g id="node1" class="node"><title>Node1</title>
<polygon fill="#bfbfbf" stroke="black" points="0,-304.5 0,-323.5 102,-323.5 102,-304.5 0,-304.5"/>
<text text-anchor="middle" x="51" y="-311.5" font-family="Helvetica,sans-Serif" font-size="10.00">_MapInfo_GlobItem</text>
</g>
<!-- Node2 -->
<g id="node2" class="node"><title>Node2</title>
<g id="a_node2"><a xlink:href="../../d3/d46/mapinfo_8qc.html#a99eaeaa292df03c1333d95546ca3eeb8" target="_top" xlink:title="_MapInfo_FilterList_cmp">
<polygon fill="none" stroke="black" points="142,-285.5 142,-304.5 266,-304.5 266,-285.5 142,-285.5"/>
<text text-anchor="middle" x="204" y="-292.5" font-family="Helvetica,sans-Serif" font-size="10.00">_MapInfo_FilterList_cmp</text>
</a>
</g>
</g>
<!-- Node1&#45;&gt;Node2 -->
<g id="edge1" class="edge"><title>Node1&#45;&gt;Node2</title>
<path fill="none" stroke="midnightblue" d="M112.287,-306.414C122.039,-305.187 132.145,-303.916 141.916,-302.686"/>
<polygon fill="midnightblue" stroke="midnightblue" points="111.766,-302.952 102.281,-307.673 112.64,-309.897 111.766,-302.952"/>
</g>
<!-- Node3 -->
<g id="node3" class="node"><title>Node3</title>
<g id="a_node3"><a xlink:href="../../d3/d46/mapinfo_8qc.html#a4054b1cf8cc3d1ce500244cc55e2ff73" target="_top" xlink:title="MapInfo_FilterGametype">
<polygon fill="none" stroke="black" points="306,-323.5 306,-342.5 430,-342.5 430,-323.5 306,-323.5"/>
<text text-anchor="middle" x="368" y="-330.5" font-family="Helvetica,sans-Serif" font-size="10.00">MapInfo_FilterGametype</text>
</a>
</g>
</g>
<!-- Node1&#45;&gt;Node3 -->
<g id="edge55" class="edge"><title>Node1&#45;&gt;Node3</title>
<path fill="none" stroke="midnightblue" d="M112.319,-317.638C167.905,-320.991 250,-325.943 305.848,-329.311"/>
<polygon fill="midnightblue" stroke="midnightblue" points="112.454,-314.14 102.261,-317.032 112.032,-321.127 112.454,-314.14"/>
</g>
<!-- Node26 -->
<g id="node26" class="node"><title>Node26</title>
<g id="a_node26"><a xlink:href="../../d2/d9e/mapinfo_8qh.html#a958c67794067cc79a20c6d9589e479fb" target="_top" xlink:title="MapInfo_ListAllowedMaps">
<polygon fill="none" stroke="black" points="472.5,-532.5 472.5,-551.5 603.5,-551.5 603.5,-532.5 472.5,-532.5"/>
<text text-anchor="middle" x="538" y="-539.5" font-family="Helvetica,sans-Serif" font-size="10.00">MapInfo_ListAllowedMaps</text>
</a>
</g>
</g>
<!-- Node1&#45;&gt;Node26 -->
<g id="edge64" class="edge"><title>Node1&#45;&gt;Node26</title>
<path fill="none" stroke="midnightblue" d="M76.8437,-328.844C139.918,-366.014 312.163,-464.305 466,-523 475.418,-526.593 485.785,-529.778 495.618,-532.465"/>
<polygon fill="midnightblue" stroke="midnightblue" points="78.3989,-325.698 68.0104,-323.617 74.8338,-331.722 78.3989,-325.698"/>
</g>
<!-- Node28 -->
<g id="node28" class="node"><title>Node28</title>
<g id="a_node28"><a xlink:href="../../d2/d9e/mapinfo_8qh.html#ae69a4c53b1ca85efba2e6695a81309d0" target="_top" xlink:title="MapInfo_ListAllAllowedMaps">
<polygon fill="none" stroke="black" points="466.5,-114.5 466.5,-133.5 609.5,-133.5 609.5,-114.5 466.5,-114.5"/>
<text text-anchor="middle" x="538" y="-121.5" font-family="Helvetica,sans-Serif" font-size="10.00">MapInfo_ListAllAllowedMaps</text>
</a>
</g>
</g>
<!-- Node1&#45;&gt;Node28 -->
<g id="edge63" class="edge"><title>Node1&#45;&gt;Node28</title>
<path fill="none" stroke="midnightblue" d="M83.089,-300.08C99.4031,-292.822 119.743,-283.845 138,-276 283.149,-213.627 315.164,-185.979 466,-139 472.495,-136.977 479.41,-135.14 486.277,-133.501"/>
<polygon fill="midnightblue" stroke="midnightblue" points="81.2148,-297.083 73.5061,-304.352 84.0648,-303.477 81.2148,-297.083"/>
</g>
<!-- Node41 -->
<g id="node41" class="node"><title>Node41</title>
<g id="a_node41"><a xlink:href="../../d2/d9e/mapinfo_8qh.html#a40688770d8068d3eff551e12e10d47f9" target="_top" xlink:title="MapInfo_BSPName_ByID">
<polygon fill="none" stroke="black" points="138.5,-114.5 138.5,-133.5 269.5,-133.5 269.5,-114.5 138.5,-114.5"/>
<text text-anchor="middle" x="204" y="-121.5" font-family="Helvetica,sans-Serif" font-size="10.00">MapInfo_BSPName_ByID</text>
</a>
</g>
</g>
<!-- Node1&#45;&gt;Node41 -->
<g id="edge46" class="edge"><title>Node1&#45;&gt;Node41</title>
<path fill="none" stroke="midnightblue" d="M57.0616,-294.452C66.9235,-260.102 91.8928,-188.705 138,-148 145.124,-141.711 154.041,-137.017 162.966,-133.534"/>
<polygon fill="midnightblue" stroke="midnightblue" points="53.6531,-293.647 54.3829,-304.216 60.4037,-295.499 53.6531,-293.647"/>
</g>
<!-- Node46 -->
<g id="node46" class="node"><title>Node46</title>
<g id="a_node46"><a xlink:href="../../d2/d9e/mapinfo_8qh.html#a2e3301affec153d90ce78646a8a8dd2f" target="_top" xlink:title="MapInfo_FindName">
<polygon fill="none" stroke="black" points="153,-535.5 153,-554.5 255,-554.5 255,-535.5 153,-535.5"/>
<text text-anchor="middle" x="204" y="-542.5" font-family="Helvetica,sans-Serif" font-size="10.00">MapInfo_FindName</text>
</a>
</g>
</g>
<!-- Node1&#45;&gt;Node46 -->
<g id="edge56" class="edge"><title>Node1&#45;&gt;Node46</title>
<path fill="none" stroke="midnightblue" d="M59.5903,-333.066C72.8301,-365.108 102.182,-431.05 138,-480 154.021,-501.895 177.428,-523.374 191.346,-535.335"/>
<polygon fill="midnightblue" stroke="midnightblue" points="62.7396,-331.519 55.7318,-323.573 56.2547,-334.155 62.7396,-331.519"/>
</g>
<!-- Node2&#45;&gt;Node3 -->
<g id="edge2" class="edge"><title>Node2&#45;&gt;Node3</title>
<path fill="none" stroke="midnightblue" d="M255.715,-306.896C278.486,-312.237 304.987,-318.454 326.415,-323.48"/>
<polygon fill="midnightblue" stroke="midnightblue" points="256.415,-303.465 245.879,-304.589 254.816,-310.28 256.415,-303.465"/>
</g>
<!-- Node40 -->
<g id="node40" class="node"><title>Node40</title>
<g id="a_node40"><a xlink:href="../../d2/d9e/mapinfo_8qh.html#a4c0e831add5d3d38dc1c6acb57beabd4" target="_top" xlink:title="MapInfo_FilterString">
<polygon fill="none" stroke="black" points="486,-76.5 486,-95.5 590,-95.5 590,-76.5 486,-76.5"/>
<text text-anchor="middle" x="538" y="-83.5" font-family="Helvetica,sans-Serif" font-size="10.00">MapInfo_FilterString</text>
</a>
</g>
</g>
<!-- Node2&#45;&gt;Node40 -->
<g id="edge45" class="edge"><title>Node2&#45;&gt;Node40</title>
<path fill="none" stroke="midnightblue" d="M222.921,-278.233C263.187,-241.447 365.208,-153.113 466,-105 473.946,-101.207 482.766,-98.0786 491.412,-95.5317"/>
<polygon fill="midnightblue" stroke="midnightblue" points="220.481,-275.722 215.499,-285.072 225.224,-280.87 220.481,-275.722"/>
</g>
<!-- Node4 -->
<g id="node4" class="node"><title>Node4</title>
<g id="a_node4"><a xlink:href="../../d3/d53/server_2mapvoting_8qh.html#a13d33aa977bdf38b8384785376590f49" target="_top" xlink:title="GameTypeVote_MapInfo\l_FixName">
<polygon fill="none" stroke="black" points="475.5,-571 475.5,-601 600.5,-601 600.5,-571 475.5,-571"/>
<text text-anchor="start" x="483.5" y="-589" font-family="Helvetica,sans-Serif" font-size="10.00">GameTypeVote_MapInfo</text>
<text text-anchor="middle" x="538" y="-578" font-family="Helvetica,sans-Serif" font-size="10.00">_FixName</text>
</a>
</g>
</g>
<!-- Node3&#45;&gt;Node4 -->
<g id="edge3" class="edge"><title>Node3&#45;&gt;Node4</title>
<path fill="none" stroke="midnightblue" d="M371.93,-352.754C379.437,-396.485 403.377,-502.244 466,-561 470.098,-564.845 474.822,-568.104 479.847,-570.864"/>
<polygon fill="midnightblue" stroke="midnightblue" points="375.375,-352.131 370.328,-342.815 368.464,-353.245 375.375,-352.131"/>
</g>
<!-- Node10 -->
<g id="node10" class="node"><title>Node10</title>
<g id="a_node10"><a xlink:href="../../d3/d53/server_2mapvoting_8qh.html#ae506e95f8873824304a1f765f616231f" target="_top" xlink:title="MapVote_Start">
<polygon fill="none" stroke="black" points="497,-304.5 497,-323.5 579,-323.5 579,-304.5 497,-304.5"/>
<text text-anchor="middle" x="538" y="-311.5" font-family="Helvetica,sans-Serif" font-size="10.00">MapVote_Start</text>
</a>
</g>
</g>
<!-- Node3&#45;&gt;Node10 -->
<g id="edge9" class="edge"><title>Node3&#45;&gt;Node10</title>
<path fill="none" stroke="midnightblue" d="M440.159,-324.952C459.549,-322.759 479.874,-320.461 496.869,-318.539"/>
<polygon fill="midnightblue" stroke="midnightblue" points="439.67,-321.485 430.127,-326.087 440.457,-328.441 439.67,-321.485"/>
</g>
<!-- Node17 -->
<g id="node17" class="node"><title>Node17</title>
<g id="a_node17"><a xlink:href="../../d3/d53/server_2mapvoting_8qh.html#a55a404e632b9599200cdd019f8c03964" target="_top" xlink:title="MapVote_Think">
<polygon fill="none" stroke="black" points="1486.5,-247.5 1486.5,-266.5 1571.5,-266.5 1571.5,-247.5 1486.5,-247.5"/>
<text text-anchor="middle" x="1529" y="-254.5" font-family="Helvetica,sans-Serif" font-size="10.00">MapVote_Think</text>
</a>
</g>
</g>
<!-- Node3&#45;&gt;Node17 -->
<g id="edge17" class="edge"><title>Node3&#45;&gt;Node17</title>
<path fill="none" stroke="midnightblue" d="M397.759,-319.098C416.69,-310.613 442.27,-300.392 466,-295 578.119,-269.522 609.023,-276 724,-276 724,-276 724,-276 1240,-276 1327.69,-276 1430.07,-267.121 1486.08,-261.503"/>
<polygon fill="midnightblue" stroke="midnightblue" points="396.14,-315.99 388.51,-323.341 399.059,-322.352 396.14,-315.99"/>
</g>
<!-- Node18 -->
<g id="node18" class="node"><title>Node18</title>
<g id="a_node18"><a xlink:href="../../d2/d76/server_2mapvoting_8qc.html#ac97d0f5a2d1ca2d158e76b6a58f53f85" target="_top" xlink:title="GameTypeVote_SetGametype">
<polygon fill="none" stroke="black" points="650,-228.5 650,-247.5 800,-247.5 800,-228.5 650,-228.5"/>
<text text-anchor="middle" x="725" y="-235.5" font-family="Helvetica,sans-Serif" font-size="10.00">GameTypeVote_SetGametype</text>
</a>
</g>
</g>
<!-- Node3&#45;&gt;Node18 -->
<g id="edge19" class="edge"><title>Node3&#45;&gt;Node18</title>
<path fill="none" stroke="midnightblue" d="M391.453,-317.548C403.055,-309.469 417.389,-299.341 430,-290 446.288,-277.935 447.153,-269.46 466,-262 524.768,-238.738 596.741,-233.781 649.724,-234.043"/>
<polygon fill="midnightblue" stroke="midnightblue" points="389.41,-314.706 383.187,-323.28 393.399,-320.458 389.41,-314.706"/>
</g>
<!-- Node24 -->
<g id="node24" class="node"><title>Node24</title>
<g id="a_node24"><a xlink:href="../../df/da7/generic_8qc.html#a8ccf667ca0a34f9ed5287facb87f69d3" target="_top" xlink:title="GenericCommand_maplist">
<polygon fill="none" stroke="black" points="472,-494.5 472,-513.5 604,-513.5 604,-494.5 472,-494.5"/>
<text text-anchor="middle" x="538" y="-501.5" font-family="Helvetica,sans-Serif" font-size="10.00">GenericCommand_maplist</text>
</a>
</g>
</g>
<!-- Node3&#45;&gt;Node24 -->
<g id="edge27" class="edge"><title>Node3&#45;&gt;Node24</title>
<path fill="none" stroke="midnightblue" d="M375.892,-352.233C388.536,-384.71 418.577,-450.268 466,-485 471.25,-488.845 477.226,-491.912 483.431,-494.359"/>
<polygon fill="midnightblue" stroke="midnightblue" points="379.06,-350.714 372.271,-342.58 372.506,-353.172 379.06,-350.714"/>
</g>
<!-- Node3&#45;&gt;Node26 -->
<g id="edge29" class="edge"><title>Node3&#45;&gt;Node26</title>
<path fill="none" stroke="midnightblue" d="M378.618,-351.699C390.659,-375.126 411.905,-416.507 430,-452 446.07,-483.52 438.523,-500.712 466,-523 470.757,-526.858 476.226,-529.938 481.973,-532.395"/>
<polygon fill="midnightblue" stroke="midnightblue" points="381.602,-349.849 373.917,-342.556 375.377,-353.05 381.602,-349.849"/>
</g>
<!-- Node3&#45;&gt;Node28 -->
<g id="edge32" class="edge"><title>Node3&#45;&gt;Node28</title>
<path fill="none" stroke="midnightblue" d="M398.358,-318.237C409.774,-311.14 422.004,-301.624 430,-290 466.899,-236.358 421.784,-195.791 466,-148 471.832,-141.696 479.376,-137.048 487.362,-133.62"/>
<polygon fill="midnightblue" stroke="midnightblue" points="396.358,-315.351 389.474,-323.404 399.878,-321.402 396.358,-315.351"/>
</g>
<!-- Node29 -->
<g id="node29" class="node"><title>Node29</title>
<g id="a_node29"><a xlink:href="../../df/d9b/menu_2xonotic_2util_8qc.html#a48ddbc4143946234b2a42d4cf1112dc4" target="_top" xlink:title="you have to define this for pre&#45;menu initialization. ">
<polygon fill="none" stroke="black" points="504,-456.5 504,-475.5 572,-475.5 572,-456.5 504,-456.5"/>
<text text-anchor="middle" x="538" y="-463.5" font-family="Helvetica,sans-Serif" font-size="10.00">preMenuInit</text>
</a>
</g>
</g>
<!-- Node3&#45;&gt;Node29 -->
<g id="edge33" class="edge"><title>Node3&#45;&gt;Node29</title>
<path fill="none" stroke="midnightblue" d="M379.577,-351.319C395.195,-376.708 426.848,-422.255 466,-447 477.326,-454.158 491.305,-458.641 503.856,-461.438"/>
<polygon fill="midnightblue" stroke="midnightblue" points="382.533,-349.443 374.394,-342.661 376.527,-353.039 382.533,-349.443"/>
</g>
<!-- Node32 -->
<g id="node32" class="node"><title>Node32</title>
<g id="a_node32"><a xlink:href="../../d3/df2/sv__cmd_8qc.html#a17ace92462a5ddeddcc1a63a09f4082a" target="_top" xlink:title="make_mapinfo_Think">
<polygon fill="none" stroke="black" points="483,-418.5 483,-437.5 593,-437.5 593,-418.5 483,-418.5"/>
<text text-anchor="middle" x="538" y="-425.5" font-family="Helvetica,sans-Serif" font-size="10.00">make_mapinfo_Think</text>
</a>
</g>
</g>
<!-- Node3&#45;&gt;Node32 -->
<g id="edge36" class="edge"><title>Node3&#45;&gt;Node32</title>
<path fill="none" stroke="midnightblue" d="M387.649,-349.36C406.381,-365.114 436.607,-388.738 466,-404 477.201,-409.816 490.108,-414.67 501.819,-418.457"/>
<polygon fill="midnightblue" stroke="midnightblue" points="389.772,-346.57 379.896,-342.734 385.224,-351.892 389.772,-346.57"/>
</g>
<!-- Node35 -->
<g id="node35" class="node"><title>Node35</title>
<g id="a_node35"><a xlink:href="../../d3/df2/sv__cmd_8qc.html#ad4078d87842792033e4239a247ab8679" target="_top" xlink:title="GameCommand_gametype">
<polygon fill="none" stroke="black" points="657,-95.5 657,-114.5 793,-114.5 793,-95.5 657,-95.5"/>
<text text-anchor="middle" x="725" y="-102.5" font-family="Helvetica,sans-Serif" font-size="10.00">GameCommand_gametype</text>
</a>
</g>
</g>
<!-- Node3&#45;&gt;Node35 -->
<g id="edge39" class="edge"><title>Node3&#45;&gt;Node35</title>
<path fill="none" stroke="midnightblue" d="M375.879,-313.749C388.504,-281.246 418.517,-215.65 466,-181 519.468,-141.983 546.571,-161.92 610,-143 639.988,-134.055 673.972,-122.546 696.975,-114.549"/>
<polygon fill="midnightblue" stroke="midnightblue" points="372.49,-312.818 372.264,-323.411 379.046,-315.272 372.49,-312.818"/>
</g>
<!-- Node37 -->
<g id="node37" class="node"><title>Node37</title>
<g id="a_node37"><a xlink:href="../../db/dcc/g__world_8qc.html#a0ed61c678e0012da2e2f6d4d0ecbffc1" target="_top" xlink:title="GotoFirstMap">
<polygon fill="none" stroke="black" points="500,-342.5 500,-361.5 576,-361.5 576,-342.5 500,-342.5"/>
<text text-anchor="middle" x="538" y="-349.5" font-family="Helvetica,sans-Serif" font-size="10.00">GotoFirstMap</text>
</a>
</g>
</g>
<!-- Node3&#45;&gt;Node37 -->
<g id="edge41" class="edge"><title>Node3&#45;&gt;Node37</title>
<path fill="none" stroke="midnightblue" d="M440.071,-341.038C460.545,-343.353 482.068,-345.787 499.618,-347.772"/>
<polygon fill="midnightblue" stroke="midnightblue" points="440.457,-337.559 430.127,-339.913 439.67,-344.515 440.457,-337.559"/>
</g>
<!-- Node38 -->
<g id="node38" class="node"><title>Node38</title>
<g id="a_node38"><a xlink:href="../../db/dcc/g__world_8qc.html#a61bd70129e557ffad13fa1c21a5d9af3" target="_top" xlink:title="spawnfunc">
<polygon fill="none" stroke="black" points="693,-380.5 693,-399.5 757,-399.5 757,-380.5 693,-380.5"/>
<text text-anchor="middle" x="725" y="-387.5" font-family="Helvetica,sans-Serif" font-size="10.00">spawnfunc</text>
</a>
</g>
</g>
<!-- Node3&#45;&gt;Node38 -->
<g id="edge43" class="edge"><title>Node3&#45;&gt;Node38</title>
<path fill="none" stroke="midnightblue" d="M397.759,-346.902C416.69,-355.387 442.27,-365.608 466,-371 546.366,-389.262 644.08,-391.106 692.98,-390.686"/>
<polygon fill="midnightblue" stroke="midnightblue" points="399.059,-343.648 388.51,-342.659 396.14,-350.01 399.059,-343.648"/>
</g>
<!-- Node39 -->
<g id="node39" class="node"><title>Node39</title>
<g id="a_node39"><a xlink:href="../../db/dcc/g__world_8qc.html#af8f462400b6e203393394085ab5bc7d1" target="_top" xlink:title="RestoreGame">
<polygon fill="none" stroke="black" points="499.5,-190.5 499.5,-209.5 576.5,-209.5 576.5,-190.5 499.5,-190.5"/>
<text text-anchor="middle" x="538" y="-197.5" font-family="Helvetica,sans-Serif" font-size="10.00">RestoreGame</text>
</a>
</g>
</g>
<!-- Node3&#45;&gt;Node39 -->
<g id="edge44" class="edge"><title>Node3&#45;&gt;Node39</title>
<path fill="none" stroke="midnightblue" d="M395.767,-317.937C407.268,-310.56 420.271,-300.913 430,-290 452.234,-265.058 440.416,-245.492 466,-224 475.464,-216.049 487.682,-210.694 499.306,-207.103"/>
<polygon fill="midnightblue" stroke="midnightblue" points="393.647,-315.131 386.956,-323.346 397.31,-321.096 393.647,-315.131"/>
</g>
<!-- Node5 -->
<g id="node5" class="node"><title>Node5</title>
<g id="a_node5"><a xlink:href="../../db/dcc/g__world_8qc.html#a456cb75445f7a05a80d7a6f3d2e2f8ae" target="_top" xlink:title="GotoMap">
<polygon fill="none" stroke="black" points="697,-570.5 697,-589.5 753,-589.5 753,-570.5 697,-570.5"/>
<text text-anchor="middle" x="725" y="-577.5" font-family="Helvetica,sans-Serif" font-size="10.00">GotoMap</text>
</a>
</g>
</g>
<!-- Node4&#45;&gt;Node5 -->
<g id="edge4" class="edge"><title>Node4&#45;&gt;Node5</title>
<path fill="none" stroke="midnightblue" d="M610.689,-583.675C640.843,-582.697 674.109,-581.618 696.749,-580.884"/>
<polygon fill="midnightblue" stroke="midnightblue" points="610.484,-580.18 600.602,-584.002 610.711,-587.176 610.484,-580.18"/>
</g>
<!-- Node8 -->
<g id="node8" class="node"><title>Node8</title>
<g id="a_node8"><a xlink:href="../../d2/d76/server_2mapvoting_8qc.html#a028eeda6f56d8c254e5cba68275432e8" target="_top" xlink:title="MapVote_Suggest">
<polygon fill="none" stroke="black" points="676.5,-608.5 676.5,-627.5 773.5,-627.5 773.5,-608.5 676.5,-608.5"/>
<text text-anchor="middle" x="725" y="-615.5" font-family="Helvetica,sans-Serif" font-size="10.00">MapVote_Suggest</text>
</a>
</g>
</g>
<!-- Node4&#45;&gt;Node8 -->
<g id="edge7" class="edge"><title>Node4&#45;&gt;Node8</title>
<path fill="none" stroke="midnightblue" d="M610.601,-598.385C632.66,-602.201 656.392,-606.306 676.416,-609.769"/>
<polygon fill="midnightblue" stroke="midnightblue" points="611.053,-594.911 600.602,-596.656 609.859,-601.809 611.053,-594.911"/>
</g>
<!-- Node6 -->
<g id="node6" class="node"><title>Node6</title>
<g id="a_node6"><a xlink:href="../../d3/df2/sv__cmd_8qc.html#ad2ffdcee1efaf21c7bcb725df8f443c7" target="_top" xlink:title="GameCommand_gotomap">
<polygon fill="none" stroke="black" points="847.5,-570.5 847.5,-589.5 978.5,-589.5 978.5,-570.5 847.5,-570.5"/>
<text text-anchor="middle" x="913" y="-577.5" font-family="Helvetica,sans-Serif" font-size="10.00">GameCommand_gotomap</text>
</a>
</g>
</g>
<!-- Node5&#45;&gt;Node6 -->
<g id="edge5" class="edge"><title>Node5&#45;&gt;Node6</title>
<path fill="none" stroke="midnightblue" d="M763.147,-580C787.152,-580 819.042,-580 847.146,-580"/>
<polygon fill="midnightblue" stroke="midnightblue" points="763.046,-576.5 753.046,-580 763.046,-583.5 763.046,-576.5"/>
</g>
<!-- Node7 -->
<g id="node7" class="node"><title>Node7</title>
<g id="a_node7"><a xlink:href="../../d3/df2/sv__cmd_8qc.html#a69ce89299f404a790d80ba01b58751ec" target="_top" xlink:title="SERVER_COMMAND">
<polygon fill="none" stroke="black" points="1022.5,-570.5 1022.5,-589.5 1139.5,-589.5 1139.5,-570.5 1022.5,-570.5"/>
<text text-anchor="middle" x="1081" y="-577.5" font-family="Helvetica,sans-Serif" font-size="10.00">SERVER_COMMAND</text>
</a>
</g>
</g>
<!-- Node6&#45;&gt;Node7 -->
<g id="edge6" class="edge"><title>Node6&#45;&gt;Node7</title>
<path fill="none" stroke="midnightblue" d="M988.872,-580C1000.08,-580 1011.5,-580 1022.28,-580"/>
<polygon fill="midnightblue" stroke="midnightblue" points="988.655,-576.5 978.655,-580 988.655,-583.5 988.655,-576.5"/>
</g>
<!-- Node9 -->
<g id="node9" class="node"><title>Node9</title>
<g id="a_node9"><a xlink:href="../../d8/d1d/cmd_8qc.html#a7077467f868879fe6d297b43e6a0e7b2" target="_top" xlink:title="ClientCommand_suggestmap">
<polygon fill="none" stroke="black" points="840,-608.5 840,-627.5 986,-627.5 986,-608.5 840,-608.5"/>
<text text-anchor="middle" x="913" y="-615.5" font-family="Helvetica,sans-Serif" font-size="10.00">ClientCommand_suggestmap</text>
</a>
</g>
</g>
<!-- Node8&#45;&gt;Node9 -->
<g id="edge8" class="edge"><title>Node8&#45;&gt;Node9</title>
<path fill="none" stroke="midnightblue" d="M784.027,-618C801.653,-618 821.24,-618 839.684,-618"/>
<polygon fill="midnightblue" stroke="midnightblue" points="783.9,-614.5 773.9,-618 783.9,-621.5 783.9,-614.5"/>
</g>
<!-- Node11 -->
<g id="node11" class="node"><title>Node11</title>
<g id="a_node11"><a xlink:href="../../d7/d97/g__world_8qh.html#a233af455133bc7ba4e3e100115bf2885" target="_top" xlink:title="CheckRules_World">
<polygon fill="none" stroke="black" points="1608.5,-304.5 1608.5,-323.5 1709.5,-323.5 1709.5,-304.5 1608.5,-304.5"/>
<text text-anchor="middle" x="1659" y="-311.5" font-family="Helvetica,sans-Serif" font-size="10.00">CheckRules_World</text>
</a>
</g>
</g>
<!-- Node10&#45;&gt;Node11 -->
<g id="edge10" class="edge"><title>Node10&#45;&gt;Node11</title>
<path fill="none" stroke="midnightblue" d="M589.174,-324.025C607.05,-327.3 627.366,-330.687 646,-333 763.62,-347.603 793.477,-352 912,-352 912,-352 912,-352 1395,-352 1474.35,-352 1565.8,-334.846 1617.26,-323.589"/>
<polygon fill="midnightblue" stroke="midnightblue" points="589.716,-320.566 579.243,-322.172 588.431,-327.447 589.716,-320.566"/>
</g>
<!-- Node13 -->
<g id="node13" class="node"><title>Node13</title>
<g id="a_node13"><a xlink:href="../../d7/d97/g__world_8qh.html#aa6b50a885a57559948d95c846fa9a6b3" target="_top" xlink:title="IntermissionThink">
<polygon fill="none" stroke="black" points="678,-304.5 678,-323.5 772,-323.5 772,-304.5 678,-304.5"/>
<text text-anchor="middle" x="725" y="-311.5" font-family="Helvetica,sans-Serif" font-size="10.00">IntermissionThink</text>
</a>
</g>
</g>
<!-- Node10&#45;&gt;Node13 -->
<g id="edge13" class="edge"><title>Node10&#45;&gt;Node13</title>
<path fill="none" stroke="midnightblue" d="M589.368,-314C616.933,-314 650.847,-314 677.74,-314"/>
<polygon fill="midnightblue" stroke="midnightblue" points="589.142,-310.5 579.142,-314 589.142,-317.5 589.142,-310.5"/>
</g>
<!-- Node11&#45;&gt;Node11 -->
<g id="edge11" class="edge"><title>Node11&#45;&gt;Node11</title>
<path fill="none" stroke="midnightblue" d="M1636.68,-333.029C1637.9,-338.128 1645.34,-342 1659,-342 1680.33,-342 1686.49,-332.565 1677.5,-323.757"/>
<polygon fill="midnightblue" stroke="midnightblue" points="1639.93,-334.336 1640.5,-323.757 1633.45,-331.666 1639.93,-334.336"/>
</g>
<!-- Node12 -->
<g id="node12" class="node"><title>Node12</title>
<g id="a_node12"><a xlink:href="../../d3/d4f/sv__main_8qc.html#a554af7e2ac58045168dad9eca30bc8b1" target="_top" xlink:title="StartFrame">
<polygon fill="none" stroke="black" points="1746.5,-304.5 1746.5,-323.5 1811.5,-323.5 1811.5,-304.5 1746.5,-304.5"/>
<text text-anchor="middle" x="1779" y="-311.5" font-family="Helvetica,sans-Serif" font-size="10.00">StartFrame</text>
</a>
</g>
</g>
<!-- Node11&#45;&gt;Node12 -->
<g id="edge12" class="edge"><title>Node11&#45;&gt;Node12</title>
<path fill="none" stroke="midnightblue" d="M1719.91,-314C1728.98,-314 1738.02,-314 1746.17,-314"/>
<polygon fill="midnightblue" stroke="midnightblue" points="1719.7,-310.5 1709.7,-314 1719.7,-317.5 1719.7,-310.5"/>
</g>
<!-- Node14 -->
<g id="node14" class="node"><title>Node14</title>
<g id="a_node14"><a xlink:href="../../da/d53/cl__client_8qc.html#a29ca770d01fe7827ac339d6eeea2e733" target="_top" xlink:title="PlayerPreThink">
<polygon fill="none" stroke="black" points="871.5,-304.5 871.5,-323.5 954.5,-323.5 954.5,-304.5 871.5,-304.5"/>
<text text-anchor="middle" x="913" y="-311.5" font-family="Helvetica,sans-Serif" font-size="10.00">PlayerPreThink</text>
</a>
</g>
</g>
<!-- Node13&#45;&gt;Node14 -->
<g id="edge14" class="edge"><title>Node13&#45;&gt;Node14</title>
<path fill="none" stroke="midnightblue" d="M782.707,-314C811.265,-314 845.237,-314 871.19,-314"/>
<polygon fill="midnightblue" stroke="midnightblue" points="782.456,-310.5 772.456,-314 782.456,-317.5 782.456,-310.5"/>
</g>
<!-- Node15 -->
<g id="node15" class="node"><title>Node15</title>
<g id="a_node15"><a xlink:href="../../d5/dd1/playerdemo_8qh.html#a3d6b65b19141e5215083447705deb88c" target="_top" xlink:title="playerdemo_read">
<polygon fill="none" stroke="black" points="1035.5,-304.5 1035.5,-323.5 1126.5,-323.5 1126.5,-304.5 1035.5,-304.5"/>
<text text-anchor="middle" x="1081" y="-311.5" font-family="Helvetica,sans-Serif" font-size="10.00">playerdemo_read</text>
</a>
</g>
</g>
<!-- Node14&#45;&gt;Node15 -->
<g id="edge15" class="edge"><title>Node14&#45;&gt;Node15</title>
<path fill="none" stroke="midnightblue" d="M964.686,-314C987.265,-314 1013.62,-314 1035.44,-314"/>
<polygon fill="midnightblue" stroke="midnightblue" points="964.608,-310.5 954.608,-314 964.608,-317.5 964.608,-310.5"/>
</g>
<!-- Node16 -->
<g id="node16" class="node"><title>Node16</title>
<g id="a_node16"><a xlink:href="../../dc/ddd/player_8qc.html#a672a0ccf602525346ee1acb1337367fe" target="_top" xlink:title="PM_Main">
<polygon fill="none" stroke="black" points="1210,-304.5 1210,-323.5 1268,-323.5 1268,-304.5 1210,-304.5"/>
<text text-anchor="middle" x="1239" y="-311.5" font-family="Helvetica,sans-Serif" font-size="10.00">PM_Main</text>
</a>
</g>
</g>
<!-- Node15&#45;&gt;Node16 -->
<g id="edge16" class="edge"><title>Node15&#45;&gt;Node16</title>
<path fill="none" stroke="midnightblue" d="M1136.71,-314C1161.45,-314 1189.64,-314 1209.99,-314"/>
<polygon fill="midnightblue" stroke="midnightblue" points="1136.7,-310.5 1126.7,-314 1136.7,-317.5 1136.7,-310.5"/>
</g>
<!-- Node17&#45;&gt;Node11 -->
<g id="edge18" class="edge"><title>Node17&#45;&gt;Node11</title>
<path fill="none" stroke="midnightblue" d="M1560.58,-270.618C1584,-281.046 1615.71,-295.17 1636.51,-304.428"/>
<polygon fill="midnightblue" stroke="midnightblue" points="1561.98,-267.411 1551.42,-266.541 1559.14,-273.806 1561.98,-267.411"/>
</g>
<!-- Node19 -->
<g id="node19" class="node"><title>Node19</title>
<g id="a_node19"><a xlink:href="../../d3/d53/server_2mapvoting_8qh.html#a3e88f2b64efebdb02a339e5494f1b0ac" target="_top" xlink:title="GameTypeVote_Finished">
<polygon fill="none" stroke="black" points="849.5,-228.5 849.5,-247.5 976.5,-247.5 976.5,-228.5 849.5,-228.5"/>
<text text-anchor="middle" x="913" y="-235.5" font-family="Helvetica,sans-Serif" font-size="10.00">GameTypeVote_Finished</text>
</a>
</g>
</g>
<!-- Node18&#45;&gt;Node19 -->
<g id="edge20" class="edge"><title>Node18&#45;&gt;Node19</title>
<path fill="none" stroke="midnightblue" d="M810.069,-238C823.259,-238 836.692,-238 849.291,-238"/>
<polygon fill="midnightblue" stroke="midnightblue" points="810.047,-234.5 800.047,-238 810.047,-241.5 810.047,-234.5"/>
</g>
<!-- Node20 -->
<g id="node20" class="node"><title>Node20</title>
<g id="a_node20"><a xlink:href="../../d2/d76/server_2mapvoting_8qc.html#af51679015526b11c6c6f6ba11cb5b7e4" target="_top" xlink:title="MapVote_Finished">
<polygon fill="none" stroke="black" points="1032,-228.5 1032,-247.5 1130,-247.5 1130,-228.5 1032,-228.5"/>
<text text-anchor="middle" x="1081" y="-235.5" font-family="Helvetica,sans-Serif" font-size="10.00">MapVote_Finished</text>
</a>
</g>
</g>
<!-- Node19&#45;&gt;Node20 -->
<g id="edge21" class="edge"><title>Node19&#45;&gt;Node20</title>
<path fill="none" stroke="midnightblue" d="M987.156,-238C1002.32,-238 1017.92,-238 1031.91,-238"/>
<polygon fill="midnightblue" stroke="midnightblue" points="986.758,-234.5 976.757,-238 986.757,-241.5 986.758,-234.5"/>
</g>
<!-- Node21 -->
<g id="node21" class="node"><title>Node21</title>
<g id="a_node21"><a xlink:href="../../d3/d53/server_2mapvoting_8qh.html#a9e23e88fcace6381b529ac8060f0ad26" target="_top" xlink:title="GameTypeVote_Start">
<polygon fill="none" stroke="black" points="1338.5,-190.5 1338.5,-209.5 1449.5,-209.5 1449.5,-190.5 1338.5,-190.5"/>
<text text-anchor="middle" x="1394" y="-197.5" font-family="Helvetica,sans-Serif" font-size="10.00">GameTypeVote_Start</text>
</a>
</g>
</g>
<!-- Node20&#45;&gt;Node21 -->
<g id="edge22" class="edge"><title>Node20&#45;&gt;Node21</title>
<path fill="none" stroke="midnightblue" d="M1134.09,-226.39C1147.68,-223.658 1162.34,-220.972 1176,-219 1231.02,-211.056 1294.41,-205.97 1338.41,-203.08"/>
<polygon fill="midnightblue" stroke="midnightblue" points="1133.03,-223.034 1123.94,-228.476 1134.44,-229.891 1133.03,-223.034"/>
</g>
<!-- Node22 -->
<g id="node22" class="node"><title>Node22</title>
<g id="a_node22"><a xlink:href="../../d2/d76/server_2mapvoting_8qc.html#a76e4720691beeecd37b230f0157c4527" target="_top" xlink:title="MapVote_CheckRules_2">
<polygon fill="none" stroke="black" points="1176.5,-228.5 1176.5,-247.5 1301.5,-247.5 1301.5,-228.5 1176.5,-228.5"/>
<text text-anchor="middle" x="1239" y="-235.5" font-family="Helvetica,sans-Serif" font-size="10.00">MapVote_CheckRules_2</text>
</a>
</g>
</g>
<!-- Node20&#45;&gt;Node22 -->
<g id="edge24" class="edge"><title>Node20&#45;&gt;Node22</title>
<path fill="none" stroke="midnightblue" d="M1140.22,-238C1151.98,-238 1164.39,-238 1176.27,-238"/>
<polygon fill="midnightblue" stroke="midnightblue" points="1140.08,-234.5 1130.08,-238 1140.08,-241.5 1140.08,-234.5"/>
</g>
<!-- Node21&#45;&gt;Node17 -->
<g id="edge23" class="edge"><title>Node21&#45;&gt;Node17</title>
<path fill="none" stroke="midnightblue" d="M1434.17,-212.878C1439.53,-214.829 1444.93,-216.896 1450,-219 1471.01,-227.71 1494.37,-239.366 1510,-247.462"/>
<polygon fill="midnightblue" stroke="midnightblue" points="1435.24,-209.545 1424.65,-209.508 1432.91,-216.144 1435.24,-209.545"/>
</g>
<!-- Node23 -->
<g id="node23" class="node"><title>Node23</title>
<g id="a_node23"><a xlink:href="../../d2/d76/server_2mapvoting_8qc.html#a5ac2229ef4b363054b5b66d314e89437" target="_top" xlink:title="MapVote_Tick">
<polygon fill="none" stroke="black" points="1354,-228.5 1354,-247.5 1434,-247.5 1434,-228.5 1354,-228.5"/>
<text text-anchor="middle" x="1394" y="-235.5" font-family="Helvetica,sans-Serif" font-size="10.00">MapVote_Tick</text>
</a>
</g>
</g>
<!-- Node22&#45;&gt;Node23 -->
<g id="edge25" class="edge"><title>Node22&#45;&gt;Node23</title>
<path fill="none" stroke="midnightblue" d="M1312.19,-238C1326.55,-238 1341.12,-238 1353.86,-238"/>
<polygon fill="midnightblue" stroke="midnightblue" points="1311.79,-234.5 1301.79,-238 1311.79,-241.5 1311.79,-234.5"/>
</g>
<!-- Node23&#45;&gt;Node17 -->
<g id="edge26" class="edge"><title>Node23&#45;&gt;Node17</title>
<path fill="none" stroke="midnightblue" d="M1444.47,-245.067C1458.23,-247.033 1473.05,-249.149 1486.32,-251.045"/>
<polygon fill="midnightblue" stroke="midnightblue" points="1444.58,-241.547 1434.19,-243.598 1443.59,-248.477 1444.58,-241.547"/>
</g>
<!-- Node25 -->
<g id="node25" class="node"><title>Node25</title>
<g id="a_node25"><a xlink:href="../../df/da7/generic_8qc.html#af96c68d767d38bddfc69ea2a50a41c10" target="_top" xlink:title="GENERIC_COMMAND">
<polygon fill="none" stroke="black" points="664,-494.5 664,-513.5 786,-513.5 786,-494.5 664,-494.5"/>
<text text-anchor="middle" x="725" y="-501.5" font-family="Helvetica,sans-Serif" font-size="10.00">GENERIC_COMMAND</text>
</a>
</g>
</g>
<!-- Node24&#45;&gt;Node25 -->
<g id="edge28" class="edge"><title>Node24&#45;&gt;Node25</title>
<path fill="none" stroke="midnightblue" d="M614.337,-504C630.765,-504 647.941,-504 663.694,-504"/>
<polygon fill="midnightblue" stroke="midnightblue" points="614.224,-500.5 604.224,-504 614.224,-507.5 614.224,-500.5"/>
</g>
<!-- Node26&#45;&gt;Node18 -->
<g id="edge31" class="edge"><title>Node26&#45;&gt;Node18</title>
<path fill="none" stroke="midnightblue" d="M606.612,-526.349C607.801,-525.3 608.933,-524.185 610,-523 678.639,-446.756 592.539,-382.558 646,-295 659.373,-273.098 684.622,-257.016 702.775,-247.62"/>
<polygon fill="midnightblue" stroke="midnightblue" points="604.23,-523.744 598.048,-532.348 608.246,-529.477 604.23,-523.744"/>
</g>
<!-- Node27 -->
<g id="node27" class="node"><title>Node27</title>
<g id="a_node27"><a xlink:href="../../d2/d76/server_2mapvoting_8qc.html#a8c437df1e36d1d6bc2c656765173f4b1" target="_top" xlink:title="MapVote_Init">
<polygon fill="none" stroke="black" points="688,-532.5 688,-551.5 762,-551.5 762,-532.5 688,-532.5"/>
<text text-anchor="middle" x="725" y="-539.5" font-family="Helvetica,sans-Serif" font-size="10.00">MapVote_Init</text>
</a>
</g>
</g>
<!-- Node26&#45;&gt;Node27 -->
<g id="edge30" class="edge"><title>Node26&#45;&gt;Node27</title>
<path fill="none" stroke="midnightblue" d="M613.769,-542C639.341,-542 666.791,-542 687.901,-542"/>
<polygon fill="midnightblue" stroke="midnightblue" points="613.704,-538.5 603.704,-542 613.704,-545.5 613.704,-538.5"/>
</g>
<!-- Node30 -->
<g id="node30" class="node"><title>Node30</title>
<g id="a_node30"><a xlink:href="../../df/dc2/menu_8qc.html#a417e4db3d0fe2387b648a1ed3326341f" target="_top" xlink:title="m_init_delayed">
<polygon fill="none" stroke="black" points="684,-456.5 684,-475.5 766,-475.5 766,-456.5 684,-456.5"/>
<text text-anchor="middle" x="725" y="-463.5" font-family="Helvetica,sans-Serif" font-size="10.00">m_init_delayed</text>
</a>
</g>
</g>
<!-- Node29&#45;&gt;Node30 -->
<g id="edge34" class="edge"><title>Node29&#45;&gt;Node30</title>
<path fill="none" stroke="midnightblue" d="M582.463,-466C613.122,-466 653.892,-466 683.799,-466"/>
<polygon fill="midnightblue" stroke="midnightblue" points="582.074,-462.5 572.074,-466 582.074,-469.5 582.074,-462.5"/>
</g>
<!-- Node31 -->
<g id="node31" class="node"><title>Node31</title>
<g id="a_node31"><a xlink:href="../../df/dc2/menu_8qc.html#a844e5015c7d134d4dc7a682948215763" target="_top" xlink:title="m_draw">
<polygon fill="none" stroke="black" points="887.5,-456.5 887.5,-475.5 938.5,-475.5 938.5,-456.5 887.5,-456.5"/>
<text text-anchor="middle" x="913" y="-463.5" font-family="Helvetica,sans-Serif" font-size="10.00">m_draw</text>
</a>
</g>
</g>
<!-- Node30&#45;&gt;Node31 -->
<g id="edge35" class="edge"><title>Node30&#45;&gt;Node31</title>
<path fill="none" stroke="midnightblue" d="M776.665,-466C812.619,-466 859.305,-466 887.389,-466"/>
<polygon fill="midnightblue" stroke="midnightblue" points="776.359,-462.5 766.359,-466 776.359,-469.5 776.359,-462.5"/>
</g>
<!-- Node33 -->
<g id="node33" class="node"><title>Node33</title>
<g id="a_node33"><a xlink:href="../../d3/df2/sv__cmd_8qc.html#ae4a3c514bbb6ac8031f6318e7028f429" target="_top" xlink:title="GameCommand_make_mapinfo">
<polygon fill="none" stroke="black" points="646.5,-418.5 646.5,-437.5 803.5,-437.5 803.5,-418.5 646.5,-418.5"/>
<text text-anchor="middle" x="725" y="-425.5" font-family="Helvetica,sans-Serif" font-size="10.00">GameCommand_make_mapinfo</text>
</a>
</g>
</g>
<!-- Node32&#45;&gt;Node33 -->
<g id="edge37" class="edge"><title>Node32&#45;&gt;Node33</title>
<path fill="none" stroke="midnightblue" d="M603.373,-428C617.194,-428 631.941,-428 646.209,-428"/>
<polygon fill="midnightblue" stroke="midnightblue" points="603.007,-424.5 593.007,-428 603.007,-431.5 603.007,-424.5"/>
</g>
<!-- Node34 -->
<g id="node34" class="node"><title>Node34</title>
<g id="a_node34"><a xlink:href="../../d3/df2/sv__cmd_8qc.html#ab8fdd59f80b6f2eb4b52c3f2e12b81e1" target="_top" xlink:title="SERVER_COMMAND">
<polygon fill="none" stroke="black" points="854.5,-418.5 854.5,-437.5 971.5,-437.5 971.5,-418.5 854.5,-418.5"/>
<text text-anchor="middle" x="913" y="-425.5" font-family="Helvetica,sans-Serif" font-size="10.00">SERVER_COMMAND</text>
</a>
</g>
</g>
<!-- Node33&#45;&gt;Node34 -->
<g id="edge38" class="edge"><title>Node33&#45;&gt;Node34</title>
<path fill="none" stroke="midnightblue" d="M813.585,-428C827.453,-428 841.481,-428 854.432,-428"/>
<polygon fill="midnightblue" stroke="midnightblue" points="813.534,-424.5 803.534,-428 813.534,-431.5 813.534,-424.5"/>
</g>
<!-- Node36 -->
<g id="node36" class="node"><title>Node36</title>
<g id="a_node36"><a xlink:href="../../d3/df2/sv__cmd_8qc.html#aa0d21453e760d15968284cd410b4ceca" target="_top" xlink:title="SERVER_COMMAND">
<polygon fill="none" stroke="black" points="854.5,-95.5 854.5,-114.5 971.5,-114.5 971.5,-95.5 854.5,-95.5"/>
<text text-anchor="middle" x="913" y="-102.5" font-family="Helvetica,sans-Serif" font-size="10.00">SERVER_COMMAND</text>
</a>
</g>
</g>
<!-- Node35&#45;&gt;Node36 -->
<g id="edge40" class="edge"><title>Node35&#45;&gt;Node36</title>
<path fill="none" stroke="midnightblue" d="M803.158,-105C820.331,-105 838.247,-105 854.47,-105"/>
<polygon fill="midnightblue" stroke="midnightblue" points="803.15,-101.5 793.15,-105 803.15,-108.5 803.15,-101.5"/>
</g>
<!-- Node37&#45;&gt;Node38 -->
<g id="edge42" class="edge"><title>Node37&#45;&gt;Node38</title>
<path fill="none" stroke="midnightblue" d="M586.447,-361.746C619.864,-368.61 663.661,-377.606 692.761,-383.583"/>
<polygon fill="midnightblue" stroke="midnightblue" points="586.937,-358.274 576.438,-359.69 585.529,-365.13 586.937,-358.274"/>
</g>
<!-- Node42 -->
<g id="node42" class="node"><title>Node42</title>
<g id="a_node42"><a xlink:href="../../d2/d9e/mapinfo_8qh.html#ac2c63cea45c3e0443ccf5e0e4e97c79c" target="_top" xlink:title="MapInfo_Get_ByID">
<polygon fill="none" stroke="black" points="317.5,-57.5 317.5,-76.5 418.5,-76.5 418.5,-57.5 317.5,-57.5"/>
<text text-anchor="middle" x="368" y="-64.5" font-family="Helvetica,sans-Serif" font-size="10.00">MapInfo_Get_ByID</text>
</a>
</g>
</g>
<!-- Node41&#45;&gt;Node42 -->
<g id="edge47" class="edge"><title>Node41&#45;&gt;Node42</title>
<path fill="none" stroke="midnightblue" d="M241.744,-111.072C271.552,-100.584 312.898,-86.0361 339.796,-76.5716"/>
<polygon fill="midnightblue" stroke="midnightblue" points="240.387,-107.839 232.115,-114.459 242.71,-114.442 240.387,-107.839"/>
</g>
<!-- Node42&#45;&gt;Node40 -->
<g id="edge48" class="edge"><title>Node42&#45;&gt;Node40</title>
<path fill="none" stroke="midnightblue" d="M429.061,-73.7926C447.621,-75.8917 467.883,-78.1832 485.787,-80.2081"/>
<polygon fill="midnightblue" stroke="midnightblue" points="429.281,-70.2952 418.951,-72.6492 428.494,-77.2509 429.281,-70.2952"/>
</g>
<!-- Node43 -->
<g id="node43" class="node"><title>Node43</title>
<g id="a_node43"><a xlink:href="../../d2/de3/getreplies_8qh.html#a7e4a34fe079ee89797a6399b10e0d23e" target="_top" xlink:title="getladder">
<polygon fill="none" stroke="black" points="510,-0.5 510,-19.5 566,-19.5 566,-0.5 510,-0.5"/>
<text text-anchor="middle" x="538" y="-7.5" font-family="Helvetica,sans-Serif" font-size="10.00">getladder</text>
</a>
</g>
</g>
<!-- Node42&#45;&gt;Node43 -->
<g id="edge49" class="edge"><title>Node42&#45;&gt;Node43</title>
<path fill="none" stroke="midnightblue" d="M400.747,-53.5249C419.534,-45.8129 443.905,-36.2589 466,-29 480.305,-24.3004 496.507,-19.8964 509.819,-16.514"/>
<polygon fill="midnightblue" stroke="midnightblue" points="399.372,-50.3062 391.474,-57.368 402.052,-56.7729 399.372,-50.3062"/>
</g>
<!-- Node45 -->
<g id="node45" class="node"><title>Node45</title>
<g id="a_node45"><a xlink:href="../../d2/de3/getreplies_8qh.html#aa4fceeef60a806f478f69ab080bdb930" target="_top" xlink:title="getlsmaps">
<polygon fill="none" stroke="black" points="507,-38.5 507,-57.5 569,-57.5 569,-38.5 507,-38.5"/>
<text text-anchor="middle" x="538" y="-45.5" font-family="Helvetica,sans-Serif" font-size="10.00">getlsmaps</text>
</a>
</g>
</g>
<!-- Node42&#45;&gt;Node45 -->
<g id="edge51" class="edge"><title>Node42&#45;&gt;Node45</title>
<path fill="none" stroke="midnightblue" d="M428.9,-60.2256C455.371,-57.2319 485.329,-53.8438 506.983,-51.3948"/>
<polygon fill="midnightblue" stroke="midnightblue" points="428.494,-56.7491 418.951,-61.3508 429.281,-63.7048 428.494,-56.7491"/>
</g>
<!-- Node44 -->
<g id="node44" class="node"><title>Node44</title>
<g id="a_node44"><a xlink:href="../../db/dcc/g__world_8qc.html#aac7f083651dfcb99dbbd8afc5e339233" target="_top" xlink:title="spawnfunc">
<polygon fill="none" stroke="black" points="693,-19.5 693,-38.5 757,-38.5 757,-19.5 693,-19.5"/>
<text text-anchor="middle" x="725" y="-26.5" font-family="Helvetica,sans-Serif" font-size="10.00">spawnfunc</text>
</a>
</g>
</g>
<!-- Node43&#45;&gt;Node44 -->
<g id="edge50" class="edge"><title>Node43&#45;&gt;Node44</title>
<path fill="none" stroke="midnightblue" d="M576.38,-13.839C610.632,-17.3568 660.755,-22.5046 692.879,-25.8038"/>
<polygon fill="midnightblue" stroke="midnightblue" points="576.603,-10.3436 566.297,-12.8035 575.887,-17.3069 576.603,-10.3436"/>
</g>
<!-- Node45&#45;&gt;Node18 -->
<g id="edge52" class="edge"><title>Node45&#45;&gt;Node18</title>
<path fill="none" stroke="midnightblue" d="M578.897,-53.2041C589.729,-56.0142 600.952,-60.3404 610,-67 634.132,-84.7608 629.537,-98.9648 646,-124 671.693,-163.072 703.501,-208.765 717.201,-228.322"/>
<polygon fill="midnightblue" stroke="midnightblue" points="579.656,-49.7874 569.134,-51.0262 578.132,-56.6195 579.656,-49.7874"/>
</g>
<!-- Node45&#45;&gt;Node35 -->
<g id="edge53" class="edge"><title>Node45&#45;&gt;Node35</title>
<path fill="none" stroke="midnightblue" d="M579.017,-58.2565C589.159,-60.9798 600.009,-64.001 610,-67 639.972,-75.9968 673.96,-87.4968 696.967,-95.4777"/>
<polygon fill="midnightblue" stroke="midnightblue" points="579.732,-54.8253 569.169,-55.6443 577.937,-61.5913 579.732,-54.8253"/>
</g>
<!-- Node45&#45;&gt;Node44 -->
<g id="edge54" class="edge"><title>Node45&#45;&gt;Node44</title>
<path fill="none" stroke="midnightblue" d="M579.248,-43.8665C613.407,-40.3582 661.715,-35.3968 692.951,-32.1888"/>
<polygon fill="midnightblue" stroke="midnightblue" points="578.725,-40.4016 569.135,-44.905 579.44,-47.365 578.725,-40.4016"/>
</g>
<!-- Node47 -->
<g id="node47" class="node"><title>Node47</title>
<g id="a_node47"><a xlink:href="../../d2/d9e/mapinfo_8qh.html#afd54ae0b76b590f1ac89e5cacdac3e37" target="_top" xlink:title="MapInfo_FixName">
<polygon fill="none" stroke="black" points="319.5,-576.5 319.5,-595.5 416.5,-595.5 416.5,-576.5 319.5,-576.5"/>
<text text-anchor="middle" x="368" y="-583.5" font-family="Helvetica,sans-Serif" font-size="10.00">MapInfo_FixName</text>
</a>
</g>
</g>
<!-- Node46&#45;&gt;Node47 -->
<g id="edge57" class="edge"><title>Node46&#45;&gt;Node47</title>
<path fill="none" stroke="midnightblue" d="M252.392,-556.994C276.907,-563.199 306.415,-570.667 329.35,-576.471"/>
<polygon fill="midnightblue" stroke="midnightblue" points="253.126,-553.57 242.573,-554.509 251.409,-560.356 253.126,-553.57"/>
</g>
<!-- Node47&#45;&gt;Node4 -->
<g id="edge62" class="edge"><title>Node47&#45;&gt;Node4</title>
<path fill="none" stroke="midnightblue" d="M426.771,-586C442.445,-586 459.473,-586 475.352,-586"/>
<polygon fill="midnightblue" stroke="midnightblue" points="426.693,-582.5 416.693,-586 426.693,-589.5 426.693,-582.5"/>
</g>
<!-- Node48 -->
<g id="node48" class="node"><title>Node48</title>
<g id="a_node48"><a xlink:href="../../d1/dad/server_2command_2vote_8qc.html#a68ec0616e963b3729f1d702e2a593c53" target="_top" xlink:title="ValidateMap">
<polygon fill="none" stroke="black" points="502.5,-633.5 502.5,-652.5 573.5,-652.5 573.5,-633.5 502.5,-633.5"/>
<text text-anchor="middle" x="538" y="-640.5" font-family="Helvetica,sans-Serif" font-size="10.00">ValidateMap</text>
</a>
</g>
</g>
<!-- Node47&#45;&gt;Node48 -->
<g id="edge58" class="edge"><title>Node47&#45;&gt;Node48</title>
<path fill="none" stroke="midnightblue" d="M406.702,-598.792C437.644,-609.29 480.772,-623.923 508.789,-633.428"/>
<polygon fill="midnightblue" stroke="midnightblue" points="407.714,-595.439 397.119,-595.541 405.465,-602.068 407.714,-595.439"/>
</g>
<!-- Node49 -->
<g id="node49" class="node"><title>Node49</title>
<g id="a_node49"><a xlink:href="../../d1/dad/server_2command_2vote_8qc.html#aab1e8a5bcb59d84dc544b44f98bfd267" target="_top" xlink:title="VoteCommand_parse">
<polygon fill="none" stroke="black" points="669.5,-646.5 669.5,-665.5 780.5,-665.5 780.5,-646.5 669.5,-646.5"/>
<text text-anchor="middle" x="725" y="-653.5" font-family="Helvetica,sans-Serif" font-size="10.00">VoteCommand_parse</text>
</a>
</g>
</g>
<!-- Node48&#45;&gt;Node49 -->
<g id="edge59" class="edge"><title>Node48&#45;&gt;Node49</title>
<path fill="none" stroke="midnightblue" d="M584.015,-646.163C609.737,-647.971 642.181,-650.251 669.356,-652.16"/>
<polygon fill="midnightblue" stroke="midnightblue" points="584.018,-642.655 573.797,-645.445 583.527,-649.638 584.018,-642.655"/>
</g>
<!-- Node50 -->
<g id="node50" class="node"><title>Node50</title>
<g id="a_node50"><a xlink:href="../../d1/dad/server_2command_2vote_8qc.html#a3cea7e5f9eb477984809aa33562e2434" target="_top" xlink:title="VoteCommand_call">
<polygon fill="none" stroke="black" points="862,-684.5 862,-703.5 964,-703.5 964,-684.5 862,-684.5"/>
<text text-anchor="middle" x="913" y="-691.5" font-family="Helvetica,sans-Serif" font-size="10.00">VoteCommand_call</text>
</a>
</g>
</g>
<!-- Node49&#45;&gt;Node50 -->
<g id="edge60" class="edge"><title>Node49&#45;&gt;Node50</title>
<path fill="none" stroke="midnightblue" d="M782.825,-667.61C809.279,-673.014 840.358,-679.364 865.402,-684.48"/>
<polygon fill="midnightblue" stroke="midnightblue" points="783.434,-664.162 772.936,-665.589 782.033,-671.02 783.434,-664.162"/>
</g>
<!-- Node51 -->
<g id="node51" class="node"><title>Node51</title>
<g id="a_node51"><a xlink:href="../../d1/dad/server_2command_2vote_8qc.html#afc5d81170122263e3548af3ce2537e7f" target="_top" xlink:title="VoteCommand_master">
<polygon fill="none" stroke="black" points="854.5,-646.5 854.5,-665.5 971.5,-665.5 971.5,-646.5 854.5,-646.5"/>
<text text-anchor="middle" x="913" y="-653.5" font-family="Helvetica,sans-Serif" font-size="10.00">VoteCommand_master</text>
</a>
</g>
</g>
<!-- Node49&#45;&gt;Node51 -->
<g id="edge61" class="edge"><title>Node49&#45;&gt;Node51</title>
<path fill="none" stroke="midnightblue" d="M790.808,-656C811.438,-656 834.112,-656 854.212,-656"/>
<polygon fill="midnightblue" stroke="midnightblue" points="790.549,-652.5 780.549,-656 790.549,-659.5 790.549,-652.5"/>
</g>
</g>
</svg>
