<?xml version="1.0" encoding="UTF-8" standalone="no"?>
<!DOCTYPE svg PUBLIC "-//W3C//DTD SVG 1.1//EN"
 "http://www.w3.org/Graphics/SVG/1.1/DTD/svg11.dtd">
<!-- Generated by graphviz version 2.36.0 (20140111.2315)
 -->
<!-- Title: _MapInfo_Parse_Settemp Pages: 1 -->
<svg width="476pt" height="440pt"
 viewBox="0.00 0.00 476.00 439.51" xmlns="http://www.w3.org/2000/svg" xmlns:xlink="http://www.w3.org/1999/xlink">
<g id="graph0" class="graph" transform="scale(1 1) rotate(0) translate(4 435.512)">
<title>_MapInfo_Parse_Settemp</title>
<!-- Node1 -->
<g id="node1" class="node"><title>Node1</title>
<polygon fill="#bfbfbf" stroke="black" points="0,-209.5 0,-228.5 130,-228.5 130,-209.5 0,-209.5"/>
<text text-anchor="middle" x="65" y="-216.5" font-family="Helvetica,sans-Serif" font-size="10.00">_MapInfo_Parse_Settemp</text>
</g>
<!-- Node2 -->
<g id="node2" class="node"><title>Node2</title>
<g id="a_node2"><a xlink:href="../../d2/db4/string_8qh.html#a766f4b81552e758f7ca3655399355c07" target="_top" xlink:title="returns first word ">
<polygon fill="none" stroke="black" points="322,-380.5 322,-399.5 352,-399.5 352,-380.5 322,-380.5"/>
<text text-anchor="middle" x="337" y="-387.5" font-family="Helvetica,sans-Serif" font-size="10.00">car</text>
</a>
</g>
</g>
<!-- Node1&#45;&gt;Node2 -->
<g id="edge1" class="edge"><title>Node1&#45;&gt;Node2</title>
<path fill="none" stroke="midnightblue" d="M69.0485,-228.6C78.3868,-256.255 109.452,-336.323 166,-371 211.46,-398.878 276.787,-396.995 311.743,-393.386"/>
<polygon fill="midnightblue" stroke="midnightblue" points="312.437,-396.828 321.962,-392.189 311.623,-389.876 312.437,-396.828"/>
</g>
<!-- Node3 -->
<g id="node3" class="node"><title>Node3</title>
<g id="a_node3"><a xlink:href="../../d8/de2/menudefs_8qc.html#a40f6c65c8bbcfa51df783f2809a2502b" target="_top" xlink:title="substring">
<polygon fill="none" stroke="black" points="412,-361.5 412,-380.5 468,-380.5 468,-361.5 412,-361.5"/>
<text text-anchor="middle" x="440" y="-368.5" font-family="Helvetica,sans-Serif" font-size="10.00">substring</text>
</a>
</g>
</g>
<!-- Node1&#45;&gt;Node3 -->
<g id="edge20" class="edge"><title>Node1&#45;&gt;Node3</title>
<path fill="none" stroke="midnightblue" d="M68.1529,-228.905C75.4852,-259.986 102.634,-355.954 166,-397 244.463,-447.825 285.936,-434.059 376,-409 391.69,-404.635 407.378,-395.192 419.175,-386.812"/>
<polygon fill="midnightblue" stroke="midnightblue" points="421.439,-389.49 427.373,-380.712 417.26,-383.873 421.439,-389.49"/>
</g>
<!-- Node4 -->
<g id="node4" class="node"><title>Node4</title>
<g id="a_node4"><a xlink:href="../../d2/db4/string_8qh.html#a20e463732b6df287bf0a3108a223fe06" target="_top" xlink:title="returns all but first word ">
<polygon fill="none" stroke="black" points="322,-266.5 322,-285.5 352,-285.5 352,-266.5 322,-266.5"/>
<text text-anchor="middle" x="337" y="-273.5" font-family="Helvetica,sans-Serif" font-size="10.00">cdr</text>
</a>
</g>
</g>
<!-- Node1&#45;&gt;Node4 -->
<g id="edge3" class="edge"><title>Node1&#45;&gt;Node4</title>
<path fill="none" stroke="midnightblue" d="M74.433,-228.639C90.2911,-245.942 126.53,-281.704 166,-295 216.029,-311.853 278.548,-296.14 312.089,-284.962"/>
<polygon fill="midnightblue" stroke="midnightblue" points="313.617,-288.135 321.908,-281.539 311.313,-281.526 313.617,-288.135"/>
</g>
<!-- Node6 -->
<g id="node6" class="node"><title>Node6</title>
<g id="a_node6"><a xlink:href="../../d8/de2/menudefs_8qc.html#a47b9823939aa0a157d1bede7847cb488" target="_top" xlink:title="cvar">
<polygon fill="none" stroke="black" points="196.5,-266.5 196.5,-285.5 231.5,-285.5 231.5,-266.5 196.5,-266.5"/>
<text text-anchor="middle" x="214" y="-273.5" font-family="Helvetica,sans-Serif" font-size="10.00">cvar</text>
</a>
</g>
</g>
<!-- Node1&#45;&gt;Node6 -->
<g id="edge6" class="edge"><title>Node1&#45;&gt;Node6</title>
<path fill="none" stroke="midnightblue" d="M90.6045,-228.541C117.13,-238.826 159.205,-255.141 186.459,-265.709"/>
<polygon fill="midnightblue" stroke="midnightblue" points="185.527,-269.101 196.116,-269.453 188.058,-262.575 185.527,-269.101"/>
</g>
<!-- Node7 -->
<g id="node7" class="node"><title>Node7</title>
<g id="a_node7"><a xlink:href="../../da/d44/common_2util_8qc.html#ac77daa35318f74748eb10eda07e7dd49" target="_top" xlink:title="cvar_settemp">
<polygon fill="none" stroke="black" points="176,-190.5 176,-209.5 252,-209.5 252,-190.5 176,-190.5"/>
<text text-anchor="middle" x="214" y="-197.5" font-family="Helvetica,sans-Serif" font-size="10.00">cvar_settemp</text>
</a>
</g>
</g>
<!-- Node1&#45;&gt;Node7 -->
<g id="edge7" class="edge"><title>Node1&#45;&gt;Node7</title>
<path fill="none" stroke="midnightblue" d="M130.049,-210.722C142.014,-209.175 154.32,-207.584 165.668,-206.118"/>
<polygon fill="midnightblue" stroke="midnightblue" points="166.315,-209.563 175.784,-204.81 165.418,-202.621 166.315,-209.563"/>
</g>
<!-- Node8 -->
<g id="node8" class="node"><title>Node8</title>
<g id="a_node8"><a xlink:href="../../d1/d07/framework_8qc.html#aef346455b3c2def821423a45227b45dd" target="_top" xlink:title="LOG_TRACE">
<polygon fill="none" stroke="black" points="298.5,-209.5 298.5,-228.5 375.5,-228.5 375.5,-209.5 298.5,-209.5"/>
<text text-anchor="middle" x="337" y="-216.5" font-family="Helvetica,sans-Serif" font-size="10.00">LOG_TRACE</text>
</a>
</g>
</g>
<!-- Node1&#45;&gt;Node8 -->
<g id="edge13" class="edge"><title>Node1&#45;&gt;Node8</title>
<path fill="none" stroke="midnightblue" d="M130.329,-219C178.847,-219 244.327,-219 288.25,-219"/>
<polygon fill="midnightblue" stroke="midnightblue" points="288.378,-222.5 298.378,-219 288.378,-215.5 288.378,-222.5"/>
</g>
<!-- Node9 -->
<g id="node9" class="node"><title>Node9</title>
<g id="a_node9"><a xlink:href="../../d5/df2/common_2util_8qh.html#a0304bd2b494c1405dc2a4971dcbc480c" target="_top" xlink:title="cvar_value_issafe">
<polygon fill="none" stroke="black" points="166.5,-152.5 166.5,-171.5 261.5,-171.5 261.5,-152.5 166.5,-152.5"/>
<text text-anchor="middle" x="214" y="-159.5" font-family="Helvetica,sans-Serif" font-size="10.00">cvar_value_issafe</text>
</a>
</g>
</g>
<!-- Node1&#45;&gt;Node9 -->
<g id="edge9" class="edge"><title>Node1&#45;&gt;Node9</title>
<path fill="none" stroke="midnightblue" d="M90.6045,-209.459C114.772,-200.088 151.847,-185.712 178.861,-175.238"/>
<polygon fill="midnightblue" stroke="midnightblue" points="180.257,-178.45 188.315,-171.572 177.726,-171.924 180.257,-178.45"/>
</g>
<!-- Node10 -->
<g id="node10" class="node"><title>Node10</title>
<g id="a_node10"><a xlink:href="../../d8/de2/menudefs_8qc.html#a1a78b46b9db5c0d6fcee5be7697afa09" target="_top" xlink:title="fclose">
<polygon fill="none" stroke="black" points="192.5,-114.5 192.5,-133.5 235.5,-133.5 235.5,-114.5 192.5,-114.5"/>
<text text-anchor="middle" x="214" y="-121.5" font-family="Helvetica,sans-Serif" font-size="10.00">fclose</text>
</a>
</g>
</g>
<!-- Node1&#45;&gt;Node10 -->
<g id="edge10" class="edge"><title>Node1&#45;&gt;Node10</title>
<path fill="none" stroke="midnightblue" d="M76.7169,-209.306C94.3248,-193.75 130.932,-162.94 166,-143 171.293,-139.99 177.159,-137.219 182.9,-134.778"/>
<polygon fill="midnightblue" stroke="midnightblue" points="184.345,-137.97 192.322,-130.997 181.738,-131.473 184.345,-137.97"/>
</g>
<!-- Node11 -->
<g id="node11" class="node"><title>Node11</title>
<g id="a_node11"><a xlink:href="../../d8/de2/menudefs_8qc.html#a0e7ecefd4e3af6c242077b24445e5f78" target="_top" xlink:title="fgets">
<polygon fill="none" stroke="black" points="195,-76.5 195,-95.5 233,-95.5 233,-76.5 195,-76.5"/>
<text text-anchor="middle" x="214" y="-83.5" font-family="Helvetica,sans-Serif" font-size="10.00">fgets</text>
</a>
</g>
</g>
<!-- Node1&#45;&gt;Node11 -->
<g id="edge11" class="edge"><title>Node1&#45;&gt;Node11</title>
<path fill="none" stroke="midnightblue" d="M72.0989,-209.398C86.182,-187.917 123.068,-135.485 166,-105 171.786,-100.892 178.589,-97.4866 185.195,-94.7492"/>
<polygon fill="midnightblue" stroke="midnightblue" points="186.465,-98.011 194.591,-91.2123 183.999,-91.4598 186.465,-98.011"/>
</g>
<!-- Node12 -->
<g id="node12" class="node"><title>Node12</title>
<g id="a_node12"><a xlink:href="../../d8/de2/menudefs_8qc.html#a5231f4ff2813f7de782b67d25a9e4cf9" target="_top" xlink:title="fopen">
<polygon fill="none" stroke="black" points="193.5,-38.5 193.5,-57.5 234.5,-57.5 234.5,-38.5 193.5,-38.5"/>
<text text-anchor="middle" x="214" y="-45.5" font-family="Helvetica,sans-Serif" font-size="10.00">fopen</text>
</a>
</g>
</g>
<!-- Node1&#45;&gt;Node12 -->
<g id="edge12" class="edge"><title>Node1&#45;&gt;Node12</title>
<path fill="none" stroke="midnightblue" d="M69.8689,-209.365C80.9278,-182.961 115.182,-108.646 166,-67 171.182,-62.7532 177.438,-59.352 183.671,-56.669"/>
<polygon fill="midnightblue" stroke="midnightblue" points="185.178,-59.8411 193.29,-53.0258 182.698,-53.295 185.178,-59.8411"/>
</g>
<!-- Node13 -->
<g id="node13" class="node"><title>Node13</title>
<g id="a_node13"><a xlink:href="../../da/d44/common_2util_8qc.html#a46c92afa65e4bfbf80594927f615bd86" target="_top" xlink:title="matchacl">
<polygon fill="none" stroke="black" points="186,-342.5 186,-361.5 242,-361.5 242,-342.5 186,-342.5"/>
<text text-anchor="middle" x="214" y="-349.5" font-family="Helvetica,sans-Serif" font-size="10.00">matchacl</text>
</a>
</g>
</g>
<!-- Node1&#45;&gt;Node13 -->
<g id="edge14" class="edge"><title>Node1&#45;&gt;Node13</title>
<path fill="none" stroke="midnightblue" d="M72.8411,-228.509C87.841,-248.847 125.529,-297.216 166,-328 170.558,-331.467 175.691,-334.671 180.848,-337.535"/>
<polygon fill="midnightblue" stroke="midnightblue" points="179.548,-340.803 190.036,-342.304 182.773,-334.591 179.548,-340.803"/>
</g>
<!-- Node14 -->
<g id="node14" class="node"><title>Node14</title>
<g id="a_node14"><a xlink:href="../../d8/de2/menudefs_8qc.html#ad76dc2b2895cd23f21e008f12a686158" target="_top" xlink:title="strcat">
<polygon fill="none" stroke="black" points="193.5,-0.5 193.5,-19.5 234.5,-19.5 234.5,-0.5 193.5,-0.5"/>
<text text-anchor="middle" x="214" y="-7.5" font-family="Helvetica,sans-Serif" font-size="10.00">strcat</text>
</a>
</g>
</g>
<!-- Node1&#45;&gt;Node14 -->
<g id="edge19" class="edge"><title>Node1&#45;&gt;Node14</title>
<path fill="none" stroke="midnightblue" d="M68.5321,-209.227C76.9902,-178.424 107.113,-82.2574 166,-29 171.055,-24.4284 177.352,-20.884 183.678,-18.1637"/>
<polygon fill="midnightblue" stroke="midnightblue" points="185.305,-21.2935 193.467,-14.5381 182.873,-14.7293 185.305,-21.2935"/>
</g>
<!-- Node2&#45;&gt;Node3 -->
<g id="edge2" class="edge"><title>Node2&#45;&gt;Node3</title>
<path fill="none" stroke="midnightblue" d="M352.044,-387.358C364.912,-384.937 384.542,-381.245 401.897,-377.98"/>
<polygon fill="midnightblue" stroke="midnightblue" points="402.604,-381.408 411.784,-376.12 401.31,-374.529 402.604,-381.408"/>
</g>
<!-- Node4&#45;&gt;Node3 -->
<g id="edge4" class="edge"><title>Node4&#45;&gt;Node3</title>
<path fill="none" stroke="midnightblue" d="M348.428,-285.809C365.679,-302.035 400.342,-334.638 421.427,-354.471"/>
<polygon fill="midnightblue" stroke="midnightblue" points="419.097,-357.084 428.779,-361.386 423.893,-351.985 419.097,-357.084"/>
</g>
<!-- Node5 -->
<g id="node5" class="node"><title>Node5</title>
<g id="a_node5"><a xlink:href="../../d8/de2/menudefs_8qc.html#a274680f571a231ddf29421b93d434bfa" target="_top" xlink:title="strlen">
<polygon fill="none" stroke="black" points="419.5,-285.5 419.5,-304.5 460.5,-304.5 460.5,-285.5 419.5,-285.5"/>
<text text-anchor="middle" x="440" y="-292.5" font-family="Helvetica,sans-Serif" font-size="10.00">strlen</text>
</a>
</g>
</g>
<!-- Node4&#45;&gt;Node5 -->
<g id="edge5" class="edge"><title>Node4&#45;&gt;Node5</title>
<path fill="none" stroke="midnightblue" d="M352.044,-278.642C366.77,-281.412 390.353,-285.849 409.246,-289.403"/>
<polygon fill="midnightblue" stroke="midnightblue" points="408.699,-292.861 419.174,-291.27 409.993,-285.982 408.699,-292.861"/>
</g>
<!-- Node7&#45;&gt;Node8 -->
<g id="edge8" class="edge"><title>Node7&#45;&gt;Node8</title>
<path fill="none" stroke="midnightblue" d="M252.291,-205.856C263.57,-207.627 276.116,-209.597 287.992,-211.462"/>
<polygon fill="midnightblue" stroke="midnightblue" points="287.784,-214.972 298.206,-213.065 288.87,-208.056 287.784,-214.972"/>
</g>
<!-- Node13&#45;&gt;Node2 -->
<g id="edge15" class="edge"><title>Node13&#45;&gt;Node2</title>
<path fill="none" stroke="midnightblue" d="M242.155,-360.528C263.159,-367.124 291.962,-376.17 312.099,-382.494"/>
<polygon fill="midnightblue" stroke="midnightblue" points="311.163,-385.868 321.752,-385.525 313.26,-379.19 311.163,-385.868"/>
</g>
<!-- Node13&#45;&gt;Node3 -->
<g id="edge17" class="edge"><title>Node13&#45;&gt;Node3</title>
<path fill="none" stroke="midnightblue" d="M242.02,-354.292C281.878,-357.673 356.571,-364.008 401.647,-367.832"/>
<polygon fill="midnightblue" stroke="midnightblue" points="401.624,-371.342 411.885,-368.7 402.216,-364.367 401.624,-371.342"/>
</g>
<!-- Node13&#45;&gt;Node4 -->
<g id="edge16" class="edge"><title>Node13&#45;&gt;Node4</title>
<path fill="none" stroke="midnightblue" d="M236.059,-342.306C244.339,-338.223 253.806,-333.213 262,-328 279.102,-317.12 281.411,-311.648 298,-300 302.789,-296.637 308.034,-293.185 313.056,-289.984"/>
<polygon fill="midnightblue" stroke="midnightblue" points="315.09,-292.84 321.709,-284.568 311.376,-286.907 315.09,-292.84"/>
</g>
<!-- Node13&#45;&gt;Node5 -->
<g id="edge18" class="edge"><title>Node13&#45;&gt;Node5</title>
<path fill="none" stroke="midnightblue" d="M242.02,-345.124C284.356,-334.351 365.991,-313.578 409.695,-302.457"/>
<polygon fill="midnightblue" stroke="midnightblue" points="410.607,-305.837 419.435,-299.979 408.88,-299.053 410.607,-305.837"/>
</g>
</g>
</svg>
