<?xml version="1.0" encoding="UTF-8" standalone="no"?>
<!DOCTYPE svg PUBLIC "-//W3C//DTD SVG 1.1//EN"
 "http://www.w3.org/Graphics/SVG/1.1/DTD/svg11.dtd">
<!-- Generated by graphviz version 2.40.1 (20161225.0304)
 -->
<!-- Title: XonoticCrosshairPicker_cellIsValid Pages: 1 -->
<svg width="414pt" height="39pt"
 viewBox="0.00 0.00 414.00 39.00" xmlns="http://www.w3.org/2000/svg" xmlns:xlink="http://www.w3.org/1999/xlink">
<g id="graph0" class="graph" transform="scale(1 1) rotate(0) translate(4 35)">
<title>XonoticCrosshairPicker_cellIsValid</title>
<!-- Node32 -->
<g id="node1" class="node">
<title>Node32</title>
<polygon fill="#bfbfbf" stroke="#000000" points="0,-.5 0,-30.5 129,-30.5 129,-.5 0,-.5"/>
<text text-anchor="start" x="8" y="-18.5" font-family="Helvetica,sans-Serif" font-size="10.00" fill="#000000">XonoticCrosshairPicker</text>
<text text-anchor="middle" x="64.5" y="-7.5" font-family="Helvetica,sans-Serif" font-size="10.00" fill="#000000">_cellIsValid</text>
</g>
<!-- Node33 -->
<g id="node2" class="node">
<title>Node33</title>
<g id="a_node2"><a xlink:href="../../d6/dea/crosshairpicker_8qc.html#ac9f68b3a09a11b8d871fd5da29b4e68a" target="_top" xlink:title="crosshairpicker_cellToCrosshair">
<polygon fill="none" stroke="#000000" points="165,-6 165,-25 335,-25 335,-6 165,-6"/>
<text text-anchor="middle" x="250" y="-13" font-family="Helvetica,sans-Serif" font-size="10.00" fill="#000000">crosshairpicker_cellToCrosshair</text>
</a>
</g>
</g>
<!-- Node32&#45;&gt;Node33 -->
<g id="edge1" class="edge">
<title>Node32&#45;&gt;Node33</title>
<path fill="none" stroke="#191970" d="M129.1185,-15.5C137.3853,-15.5 145.9815,-15.5 154.6082,-15.5"/>
<polygon fill="#191970" stroke="#191970" points="154.7313,-19.0001 164.7312,-15.5 154.7312,-12.0001 154.7313,-19.0001"/>
</g>
<!-- Node34 -->
<g id="node3" class="node">
<title>Node34</title>
<g id="a_node3"><a xlink:href="../../d8/de2/menudefs_8qc.html#abbb0d86741e0056b6c04f7280c185d76" target="_top" xlink:title="ftos">
<polygon fill="none" stroke="#000000" points="371,-6 371,-25 406,-25 406,-6 371,-6"/>
<text text-anchor="middle" x="388.5" y="-13" font-family="Helvetica,sans-Serif" font-size="10.00" fill="#000000">ftos</text>
</a>
</g>
</g>
<!-- Node33&#45;&gt;Node34 -->
<g id="edge2" class="edge">
<title>Node33&#45;&gt;Node34</title>
<path fill="none" stroke="#191970" d="M335.3484,-15.5C344.4291,-15.5 353.1188,-15.5 360.745,-15.5"/>
<polygon fill="#191970" stroke="#191970" points="360.7477,-19.0001 370.7477,-15.5 360.7477,-12.0001 360.7477,-19.0001"/>
</g>
</g>
</svg>
