<?xml version="1.0" encoding="UTF-8" standalone="no"?>
<!DOCTYPE svg PUBLIC "-//W3C//DTD SVG 1.1//EN"
 "http://www.w3.org/Graphics/SVG/1.1/DTD/svg11.dtd">
<!-- Generated by graphviz version 2.36.0 (20140111.2315)
 -->
<!-- Title: DrawAmmoItem Pages: 1 -->
<svg width="394pt" height="275pt"
 viewBox="0.00 0.00 394.00 275.00" xmlns="http://www.w3.org/2000/svg" xmlns:xlink="http://www.w3.org/1999/xlink">
<g id="graph0" class="graph" transform="scale(1 1) rotate(0) translate(4 271)">
<title>DrawAmmoItem</title>
<!-- Node1 -->
<g id="node1" class="node"><title>Node1</title>
<polygon fill="#bfbfbf" stroke="black" points="0,-152.5 0,-171.5 88,-171.5 88,-152.5 0,-152.5"/>
<text text-anchor="middle" x="44" y="-159.5" font-family="Helvetica,sans-Serif" font-size="10.00">DrawAmmoItem</text>
</g>
<!-- Node2 -->
<g id="node2" class="node"><title>Node2</title>
<g id="a_node2"><a xlink:href="../../d8/de2/menudefs_8qc.html#a3846d117b360dccec575f96988cf3bb7" target="_top" xlink:title="bound">
<polygon fill="none" stroke="black" points="178.5,-247.5 178.5,-266.5 221.5,-266.5 221.5,-247.5 178.5,-247.5"/>
<text text-anchor="middle" x="200" y="-254.5" font-family="Helvetica,sans-Serif" font-size="10.00">bound</text>
</a>
</g>
</g>
<!-- Node1&#45;&gt;Node2 -->
<g id="edge1" class="edge"><title>Node1&#45;&gt;Node2</title>
<path fill="none" stroke="midnightblue" d="M52.1403,-171.56C64.7788,-187.782 92.7228,-220.625 124,-238 137.474,-245.485 153.938,-250.077 168.004,-252.866"/>
<polygon fill="midnightblue" stroke="midnightblue" points="167.748,-256.375 178.204,-254.666 168.964,-249.482 167.748,-256.375"/>
</g>
<!-- Node3 -->
<g id="node3" class="node"><title>Node3</title>
<g id="a_node3"><a xlink:href="../../dc/d98/client_2miscfunctions_8qc.html#a0ded0b9dc55f9f344b7b5f7fc9a487b8" target="_top" xlink:title="drawstring_aspect">
<polygon fill="none" stroke="black" points="152,-209.5 152,-228.5 248,-228.5 248,-209.5 152,-209.5"/>
<text text-anchor="middle" x="200" y="-216.5" font-family="Helvetica,sans-Serif" font-size="10.00">drawstring_aspect</text>
</a>
</g>
</g>
<!-- Node1&#45;&gt;Node3 -->
<g id="edge2" class="edge"><title>Node1&#45;&gt;Node3</title>
<path fill="none" stroke="midnightblue" d="M62.4451,-171.646C78.1686,-180.033 102.112,-192.054 124,-200 130.771,-202.458 137.996,-204.72 145.188,-206.76"/>
<polygon fill="midnightblue" stroke="midnightblue" points="144.361,-210.162 154.929,-209.402 146.194,-203.406 144.361,-210.162"/>
</g>
<!-- Node5 -->
<g id="node5" class="node"><title>Node5</title>
<g id="a_node5"><a xlink:href="../../d8/de2/menudefs_8qc.html#abbb0d86741e0056b6c04f7280c185d76" target="_top" xlink:title="ftos">
<polygon fill="none" stroke="black" points="183.5,-171.5 183.5,-190.5 216.5,-190.5 216.5,-171.5 183.5,-171.5"/>
<text text-anchor="middle" x="200" y="-178.5" font-family="Helvetica,sans-Serif" font-size="10.00">ftos</text>
</a>
</g>
</g>
<!-- Node1&#45;&gt;Node5 -->
<g id="edge4" class="edge"><title>Node1&#45;&gt;Node5</title>
<path fill="none" stroke="midnightblue" d="M88.3074,-167.343C115.648,-170.716 150.049,-174.961 173.183,-177.815"/>
<polygon fill="midnightblue" stroke="midnightblue" points="172.901,-181.306 183.254,-179.057 173.758,-174.359 172.901,-181.306"/>
</g>
<!-- Node6 -->
<g id="node6" class="node"><title>Node6</title>
<g id="a_node6"><a xlink:href="../../d0/d2b/weapons_2all_8qc.html#ab168af5e2615b44e7d6bb07022b09886" target="_top" xlink:title="GetAmmoPicture">
<polygon fill="none" stroke="black" points="154,-133.5 154,-152.5 246,-152.5 246,-133.5 154,-133.5"/>
<text text-anchor="middle" x="200" y="-140.5" font-family="Helvetica,sans-Serif" font-size="10.00">GetAmmoPicture</text>
</a>
</g>
</g>
<!-- Node1&#45;&gt;Node6 -->
<g id="edge5" class="edge"><title>Node1&#45;&gt;Node6</title>
<path fill="none" stroke="midnightblue" d="M88.3074,-156.657C105.572,-154.527 125.651,-152.05 143.931,-149.794"/>
<polygon fill="midnightblue" stroke="midnightblue" points="144.377,-153.266 153.873,-148.568 143.519,-146.319 144.377,-153.266"/>
</g>
<!-- Node7 -->
<g id="node7" class="node"><title>Node7</title>
<g id="a_node7"><a xlink:href="../../d7/d15/hud_8qc.html#a41b7823d1cc3d0f46d9780fadf782eba" target="_top" xlink:title="HUD_Panel_DrawProgressBar">
<polygon fill="none" stroke="black" points="124,-95.5 124,-114.5 276,-114.5 276,-95.5 124,-95.5"/>
<text text-anchor="middle" x="200" y="-102.5" font-family="Helvetica,sans-Serif" font-size="10.00">HUD_Panel_DrawProgressBar</text>
</a>
</g>
</g>
<!-- Node1&#45;&gt;Node7 -->
<g id="edge6" class="edge"><title>Node1&#45;&gt;Node7</title>
<path fill="none" stroke="midnightblue" d="M62.4451,-152.354C78.1686,-143.967 102.112,-131.946 124,-124 130.771,-121.542 137.996,-119.28 145.188,-117.24"/>
<polygon fill="midnightblue" stroke="midnightblue" points="146.194,-120.594 154.929,-114.598 144.361,-113.838 146.194,-120.594"/>
</g>
<!-- Node13 -->
<g id="node13" class="node"><title>Node13</title>
<g id="a_node13"><a xlink:href="../../da/dde/csprogsdefs_8qh.html#a2626679e4144af8478202c6c28f90cd9" target="_top" xlink:title="vector">
<polygon fill="none" stroke="black" points="327,-0.5 327,-19.5 371,-19.5 371,-0.5 327,-0.5"/>
<text text-anchor="middle" x="349" y="-7.5" font-family="Helvetica,sans-Serif" font-size="10.00">vector</text>
</a>
</g>
</g>
<!-- Node1&#45;&gt;Node13 -->
<g id="edge13" class="edge"><title>Node1&#45;&gt;Node13</title>
<path fill="none" stroke="midnightblue" d="M52.4973,-152.444C65.4571,-136.524 93.5958,-104.498 124,-86 187.01,-47.6646 271.861,-25.712 316.893,-16.0234"/>
<polygon fill="midnightblue" stroke="midnightblue" points="317.852,-19.3989 326.924,-13.9276 316.42,-12.5468 317.852,-19.3989"/>
</g>
<!-- Node4 -->
<g id="node4" class="node"><title>Node4</title>
<g id="a_node4"><a xlink:href="../../d8/de2/menudefs_8qc.html#ae8ecd1beaa4d05a475bf27bbf7e0868c" target="_top" xlink:title="drawstring">
<polygon fill="none" stroke="black" points="318,-228.5 318,-247.5 380,-247.5 380,-228.5 318,-228.5"/>
<text text-anchor="middle" x="349" y="-235.5" font-family="Helvetica,sans-Serif" font-size="10.00">drawstring</text>
</a>
</g>
</g>
<!-- Node3&#45;&gt;Node4 -->
<g id="edge3" class="edge"><title>Node3&#45;&gt;Node4</title>
<path fill="none" stroke="midnightblue" d="M248.321,-225.116C267.494,-227.594 289.401,-230.426 307.785,-232.802"/>
<polygon fill="midnightblue" stroke="midnightblue" points="307.509,-236.296 317.875,-234.106 308.407,-229.353 307.509,-236.296"/>
</g>
<!-- Node8 -->
<g id="node8" class="node"><title>Node8</title>
<g id="a_node8"><a xlink:href="../../d4/d0c/csprogsdefs_8qc.html#a07c016e00e6f80d5012980202d770138" target="_top" xlink:title="drawsubpic">
<polygon fill="none" stroke="black" points="316,-190.5 316,-209.5 382,-209.5 382,-190.5 316,-190.5"/>
<text text-anchor="middle" x="349" y="-197.5" font-family="Helvetica,sans-Serif" font-size="10.00">drawsubpic</text>
</a>
</g>
</g>
<!-- Node7&#45;&gt;Node8 -->
<g id="edge7" class="edge"><title>Node7&#45;&gt;Node8</title>
<path fill="none" stroke="midnightblue" d="M258.36,-114.595C264.638,-117.052 270.673,-120.134 276,-124 300.25,-141.599 290.006,-160.652 312,-181 313.478,-182.368 315.074,-183.667 316.742,-184.895"/>
<polygon fill="midnightblue" stroke="midnightblue" points="315.163,-188.038 325.482,-190.439 318.913,-182.127 315.163,-188.038"/>
</g>
<!-- Node9 -->
<g id="node9" class="node"><title>Node9</title>
<g id="a_node9"><a xlink:href="../../dc/d98/client_2miscfunctions_8qc.html#ad1170f4358213040ad74b041ef75e2fe" target="_top" xlink:title="HUD_Scale">
<polygon fill="none" stroke="black" points="314.5,-152.5 314.5,-171.5 383.5,-171.5 383.5,-152.5 314.5,-152.5"/>
<text text-anchor="middle" x="349" y="-159.5" font-family="Helvetica,sans-Serif" font-size="10.00">HUD_Scale</text>
</a>
</g>
</g>
<!-- Node7&#45;&gt;Node9 -->
<g id="edge8" class="edge"><title>Node7&#45;&gt;Node9</title>
<path fill="none" stroke="midnightblue" d="M245.961,-114.54C255.99,-117.176 266.471,-120.338 276,-124 276.154,-124.059 300.57,-136.949 320.924,-147.699"/>
<polygon fill="midnightblue" stroke="midnightblue" points="319.412,-150.858 329.889,-152.433 322.681,-144.668 319.412,-150.858"/>
</g>
<!-- Node10 -->
<g id="node10" class="node"><title>Node10</title>
<g id="a_node10"><a xlink:href="../../dc/d98/client_2miscfunctions_8qc.html#a4e66eb737719c91d2c0f0da2d896f6d0" target="_top" xlink:title="HUD_Shift">
<polygon fill="none" stroke="black" points="316.5,-114.5 316.5,-133.5 381.5,-133.5 381.5,-114.5 316.5,-114.5"/>
<text text-anchor="middle" x="349" y="-121.5" font-family="Helvetica,sans-Serif" font-size="10.00">HUD_Shift</text>
</a>
</g>
</g>
<!-- Node7&#45;&gt;Node10 -->
<g id="edge9" class="edge"><title>Node7&#45;&gt;Node10</title>
<path fill="none" stroke="midnightblue" d="M274.931,-114.556C285.642,-115.94 296.34,-117.323 306.117,-118.587"/>
<polygon fill="midnightblue" stroke="midnightblue" points="305.955,-122.095 316.321,-119.905 306.852,-115.152 305.955,-122.095"/>
</g>
<!-- Node11 -->
<g id="node11" class="node"><title>Node11</title>
<g id="a_node11"><a xlink:href="../../d8/de2/menudefs_8qc.html#a66ae6f59199ebf4780d2bf9681f2b0c7" target="_top" xlink:title="precache_pic">
<polygon fill="none" stroke="black" points="312,-76.5 312,-95.5 386,-95.5 386,-76.5 312,-76.5"/>
<text text-anchor="middle" x="349" y="-83.5" font-family="Helvetica,sans-Serif" font-size="10.00">precache_pic</text>
</a>
</g>
</g>
<!-- Node7&#45;&gt;Node11 -->
<g id="edge10" class="edge"><title>Node7&#45;&gt;Node11</title>
<path fill="none" stroke="midnightblue" d="M274.931,-95.4443C284.08,-94.2618 293.22,-93.0804 301.785,-91.9734"/>
<polygon fill="midnightblue" stroke="midnightblue" points="302.439,-95.4181 311.907,-90.665 301.541,-88.4758 302.439,-95.4181"/>
</g>
<!-- Node12 -->
<g id="node12" class="node"><title>Node12</title>
<g id="a_node12"><a xlink:href="../../d8/de2/menudefs_8qc.html#ad76dc2b2895cd23f21e008f12a686158" target="_top" xlink:title="strcat">
<polygon fill="none" stroke="black" points="328.5,-38.5 328.5,-57.5 369.5,-57.5 369.5,-38.5 328.5,-38.5"/>
<text text-anchor="middle" x="349" y="-45.5" font-family="Helvetica,sans-Serif" font-size="10.00">strcat</text>
</a>
</g>
</g>
<!-- Node7&#45;&gt;Node12 -->
<g id="edge11" class="edge"><title>Node7&#45;&gt;Node12</title>
<path fill="none" stroke="midnightblue" d="M225.604,-95.4595C251.373,-85.4675 291.817,-69.7851 319.092,-59.2094"/>
<polygon fill="midnightblue" stroke="midnightblue" points="320.434,-62.4427 328.493,-55.5641 317.904,-55.9162 320.434,-62.4427"/>
</g>
<!-- Node7&#45;&gt;Node13 -->
<g id="edge12" class="edge"><title>Node7&#45;&gt;Node13</title>
<path fill="none" stroke="midnightblue" d="M220.208,-95.4977C235.802,-87.4331 258.067,-75.1096 276,-62 293.522,-49.1904 294.257,-41.5014 312,-29 314.123,-27.5041 316.379,-26.0462 318.685,-24.6461"/>
<polygon fill="midnightblue" stroke="midnightblue" points="320.673,-27.5428 327.656,-19.5752 317.228,-21.4488 320.673,-27.5428"/>
</g>
</g>
</svg>
