<?xml version="1.0" encoding="UTF-8" standalone="no"?>
<!DOCTYPE svg PUBLIC "-//W3C//DTD SVG 1.1//EN"
 "http://www.w3.org/Graphics/SVG/1.1/DTD/svg11.dtd">
<!-- Generated by graphviz version 2.36.0 (20140111.2315)
 -->
<!-- Title: DrawNadeProgressBar Pages: 1 -->
<svg width="424pt" height="180pt"
 viewBox="0.00 0.00 424.00 180.00" xmlns="http://www.w3.org/2000/svg" xmlns:xlink="http://www.w3.org/1999/xlink">
<g id="graph0" class="graph" transform="scale(1 1) rotate(0) translate(4 176)">
<title>DrawNadeProgressBar</title>
<!-- Node1 -->
<g id="node1" class="node"><title>Node1</title>
<polygon fill="#bfbfbf" stroke="black" points="0.5,-76.5 0.5,-95.5 117.5,-95.5 117.5,-76.5 0.5,-76.5"/>
<text text-anchor="middle" x="59" y="-83.5" font-family="Helvetica,sans-Serif" font-size="10.00">DrawNadeProgressBar</text>
</g>
<!-- Node2 -->
<g id="node2" class="node"><title>Node2</title>
<g id="a_node2"><a xlink:href="../../d7/d15/hud_8qc.html#a41b7823d1cc3d0f46d9780fadf782eba" target="_top" xlink:title="HUD_Panel_DrawProgressBar">
<polygon fill="none" stroke="black" points="154,-76.5 154,-95.5 306,-95.5 306,-76.5 154,-76.5"/>
<text text-anchor="middle" x="230" y="-83.5" font-family="Helvetica,sans-Serif" font-size="10.00">HUD_Panel_DrawProgressBar</text>
</a>
</g>
</g>
<!-- Node1&#45;&gt;Node2 -->
<g id="edge1" class="edge"><title>Node1&#45;&gt;Node2</title>
<path fill="none" stroke="midnightblue" d="M117.688,-86C126.163,-86 135.041,-86 143.927,-86"/>
<polygon fill="midnightblue" stroke="midnightblue" points="143.942,-89.5001 153.942,-86 143.942,-82.5001 143.942,-89.5001"/>
</g>
<!-- Node3 -->
<g id="node3" class="node"><title>Node3</title>
<g id="a_node3"><a xlink:href="../../d4/d0c/csprogsdefs_8qc.html#a07c016e00e6f80d5012980202d770138" target="_top" xlink:title="drawsubpic">
<polygon fill="none" stroke="black" points="346,-152.5 346,-171.5 412,-171.5 412,-152.5 346,-152.5"/>
<text text-anchor="middle" x="379" y="-159.5" font-family="Helvetica,sans-Serif" font-size="10.00">drawsubpic</text>
</a>
</g>
</g>
<!-- Node2&#45;&gt;Node3 -->
<g id="edge2" class="edge"><title>Node2&#45;&gt;Node3</title>
<path fill="none" stroke="midnightblue" d="M249.618,-95.6255C275.132,-108.817 321.147,-132.607 350.6,-147.834"/>
<polygon fill="midnightblue" stroke="midnightblue" points="349.043,-150.969 359.534,-152.453 352.258,-144.751 349.043,-150.969"/>
</g>
<!-- Node4 -->
<g id="node4" class="node"><title>Node4</title>
<g id="a_node4"><a xlink:href="../../d7/d1d/model_8qh.html#a61af9d6854722dad5d5e433009d21a0a" target="_top" xlink:title="if">
<polygon fill="none" stroke="black" points="364.5,-114.5 364.5,-133.5 393.5,-133.5 393.5,-114.5 364.5,-114.5"/>
<text text-anchor="middle" x="379" y="-121.5" font-family="Helvetica,sans-Serif" font-size="10.00">if</text>
</a>
</g>
</g>
<!-- Node2&#45;&gt;Node4 -->
<g id="edge3" class="edge"><title>Node2&#45;&gt;Node4</title>
<path fill="none" stroke="midnightblue" d="M268.094,-95.589C295.237,-102.606 331.242,-111.913 354.516,-117.929"/>
<polygon fill="midnightblue" stroke="midnightblue" points="353.679,-121.328 364.237,-120.442 355.431,-114.551 353.679,-121.328"/>
</g>
<!-- Node5 -->
<g id="node5" class="node"><title>Node5</title>
<g id="a_node5"><a xlink:href="../../d8/de2/menudefs_8qc.html#a66ae6f59199ebf4780d2bf9681f2b0c7" target="_top" xlink:title="precache_pic">
<polygon fill="none" stroke="black" points="342,-76.5 342,-95.5 416,-95.5 416,-76.5 342,-76.5"/>
<text text-anchor="middle" x="379" y="-83.5" font-family="Helvetica,sans-Serif" font-size="10.00">precache_pic</text>
</a>
</g>
</g>
<!-- Node2&#45;&gt;Node5 -->
<g id="edge4" class="edge"><title>Node2&#45;&gt;Node5</title>
<path fill="none" stroke="midnightblue" d="M306.223,-86C314.964,-86 323.673,-86 331.855,-86"/>
<polygon fill="midnightblue" stroke="midnightblue" points="331.899,-89.5001 341.899,-86 331.899,-82.5001 331.899,-89.5001"/>
</g>
<!-- Node6 -->
<g id="node6" class="node"><title>Node6</title>
<g id="a_node6"><a xlink:href="../../dd/d87/effectinfo_8qc.html#a2ae584d3dad891f2ae754acead0f015a" target="_top" xlink:title="strcat">
<polygon fill="none" stroke="black" points="358.5,-38.5 358.5,-57.5 399.5,-57.5 399.5,-38.5 358.5,-38.5"/>
<text text-anchor="middle" x="379" y="-45.5" font-family="Helvetica,sans-Serif" font-size="10.00">strcat</text>
</a>
</g>
</g>
<!-- Node2&#45;&gt;Node6 -->
<g id="edge5" class="edge"><title>Node2&#45;&gt;Node6</title>
<path fill="none" stroke="midnightblue" d="M268.094,-76.411C292.877,-70.0046 325.047,-61.6885 348.17,-55.7111"/>
<polygon fill="midnightblue" stroke="midnightblue" points="349.293,-59.0361 358.098,-53.1446 347.541,-52.2588 349.293,-59.0361"/>
</g>
<!-- Node7 -->
<g id="node7" class="node"><title>Node7</title>
<g id="a_node7"><a xlink:href="../../d4/d0c/csprogsdefs_8qc.html#a4f0b78b1785821ba47129edb68e70f9e" target="_top" xlink:title="vector">
<polygon fill="none" stroke="black" points="357,-0.5 357,-19.5 401,-19.5 401,-0.5 357,-0.5"/>
<text text-anchor="middle" x="379" y="-7.5" font-family="Helvetica,sans-Serif" font-size="10.00">vector</text>
</a>
</g>
</g>
<!-- Node2&#45;&gt;Node7 -->
<g id="edge6" class="edge"><title>Node2&#45;&gt;Node7</title>
<path fill="none" stroke="midnightblue" d="M249.618,-76.3745C275.132,-63.1832 321.147,-39.3932 350.6,-24.166"/>
<polygon fill="midnightblue" stroke="midnightblue" points="352.258,-27.249 359.534,-19.5473 349.043,-21.0309 352.258,-27.249"/>
</g>
</g>
</svg>
