<?xml version="1.0" encoding="UTF-8" standalone="no"?>
<!DOCTYPE svg PUBLIC "-//W3C//DTD SVG 1.1//EN"
 "http://www.w3.org/Graphics/SVG/1.1/DTD/svg11.dtd">
<!-- Generated by graphviz version 2.36.0 (20140111.2315)
 -->
<!-- Title: HUD_DrawScoreboardAccuracyStats Pages: 1 -->
<svg width="424pt" height="38pt"
 viewBox="0.00 0.00 424.00 38.00" xmlns="http://www.w3.org/2000/svg" xmlns:xlink="http://www.w3.org/1999/xlink">
<g id="graph0" class="graph" transform="scale(1 1) rotate(0) translate(4 34)">
<title>HUD_DrawScoreboardAccuracyStats</title>
<!-- Node1 -->
<g id="node1" class="node"><title>Node1</title>
<polygon fill="#bfbfbf" stroke="black" points="0,-0 0,-30 158,-30 158,-0 0,-0"/>
<text text-anchor="start" x="8" y="-18" font-family="Helvetica,sans-Serif" font-size="10.00">HUD_DrawScoreboardAccuracy</text>
<text text-anchor="middle" x="79" y="-7" font-family="Helvetica,sans-Serif" font-size="10.00">Stats</text>
</g>
<!-- Node2 -->
<g id="node2" class="node"><title>Node2</title>
<g id="a_node2"><a xlink:href="../../d4/d2b/scoreboard_8qh.html#ab60ffe946c4c5bcfe944603871475f20" target="_top" xlink:title="HUD_DrawScoreboard">
<polygon fill="none" stroke="black" points="194.5,-5.5 194.5,-24.5 311.5,-24.5 311.5,-5.5 194.5,-5.5"/>
<text text-anchor="middle" x="253" y="-12.5" font-family="Helvetica,sans-Serif" font-size="10.00">HUD_DrawScoreboard</text>
</a>
</g>
</g>
<!-- Node1&#45;&gt;Node2 -->
<g id="edge1" class="edge"><title>Node1&#45;&gt;Node2</title>
<path fill="none" stroke="midnightblue" d="M168.199,-15C177.062,-15 185.895,-15 194.319,-15"/>
<polygon fill="midnightblue" stroke="midnightblue" points="168.199,-11.5001 158.199,-15 168.199,-18.5001 168.199,-11.5001"/>
</g>
<!-- Node3 -->
<g id="node3" class="node"><title>Node3</title>
<g id="a_node3"><a xlink:href="../../d6/dd3/view_8qc.html#a018a6576512f5f15b72f6a1a732d2af0" target="_top" xlink:title="HUD_Draw">
<polygon fill="none" stroke="black" points="348,-5.5 348,-24.5 416,-24.5 416,-5.5 348,-5.5"/>
<text text-anchor="middle" x="382" y="-12.5" font-family="Helvetica,sans-Serif" font-size="10.00">HUD_Draw</text>
</a>
</g>
</g>
<!-- Node2&#45;&gt;Node3 -->
<g id="edge2" class="edge"><title>Node2&#45;&gt;Node3</title>
<path fill="none" stroke="midnightblue" d="M321.813,-15C330.89,-15 339.849,-15 347.943,-15"/>
<polygon fill="midnightblue" stroke="midnightblue" points="321.555,-11.5001 311.555,-15 321.555,-18.5001 321.555,-11.5001"/>
</g>
</g>
</svg>
