<?xml version="1.0" encoding="UTF-8" standalone="no"?>
<!DOCTYPE svg PUBLIC "-//W3C//DTD SVG 1.1//EN"
 "http://www.w3.org/Graphics/SVG/1.1/DTD/svg11.dtd">
<!-- Generated by graphviz version 2.36.0 (20140111.2315)
 -->
<!-- Title: HUD_DrawScoreboardRankings Pages: 1 -->
<svg width="418pt" height="246pt"
 viewBox="0.00 0.00 418.00 246.00" xmlns="http://www.w3.org/2000/svg" xmlns:xlink="http://www.w3.org/1999/xlink">
<g id="graph0" class="graph" transform="scale(1 1) rotate(0) translate(4 242)">
<title>HUD_DrawScoreboardRankings</title>
<!-- Node1 -->
<g id="node1" class="node"><title>Node1</title>
<polygon fill="#bfbfbf" stroke="black" points="0,-123.5 0,-142.5 158,-142.5 158,-123.5 0,-123.5"/>
<text text-anchor="middle" x="79" y="-130.5" font-family="Helvetica,sans-Serif" font-size="10.00">HUD_DrawScoreboardRankings</text>
</g>
<!-- Node2 -->
<g id="node2" class="node"><title>Node2</title>
<g id="a_node2"><a xlink:href="../../d7/de1/counting_8qh.html#af1015767343e4d592f051c16a8be2a9e" target="_top" xlink:title="count_ordinal">
<polygon fill="none" stroke="black" points="212,-218.5 212,-237.5 286,-237.5 286,-218.5 212,-218.5"/>
<text text-anchor="middle" x="249" y="-225.5" font-family="Helvetica,sans-Serif" font-size="10.00">count_ordinal</text>
</a>
</g>
</g>
<!-- Node1&#45;&gt;Node2 -->
<g id="edge1" class="edge"><title>Node1&#45;&gt;Node2</title>
<path fill="none" stroke="midnightblue" d="M92.031,-142.506C112.174,-158.07 154.418,-189.233 194,-209 198.112,-211.054 202.501,-212.985 206.933,-214.772"/>
<polygon fill="midnightblue" stroke="midnightblue" points="206.019,-218.169 216.61,-218.444 208.502,-211.624 206.019,-218.169"/>
</g>
<!-- Node4 -->
<g id="node4" class="node"><title>Node4</title>
<g id="a_node4"><a xlink:href="../../dc/d98/client_2miscfunctions_8qc.html#a6d052d69b73c05b41ab3c1636778baa7" target="_top" xlink:title="drawborderlines">
<polygon fill="none" stroke="black" points="206.5,-180.5 206.5,-199.5 291.5,-199.5 291.5,-180.5 206.5,-180.5"/>
<text text-anchor="middle" x="249" y="-187.5" font-family="Helvetica,sans-Serif" font-size="10.00">drawborderlines</text>
</a>
</g>
</g>
<!-- Node1&#45;&gt;Node4 -->
<g id="edge3" class="edge"><title>Node1&#45;&gt;Node4</title>
<path fill="none" stroke="midnightblue" d="M108.119,-142.541C136.103,-152.035 179.228,-166.667 210.196,-177.174"/>
<polygon fill="midnightblue" stroke="midnightblue" points="209.194,-180.53 219.789,-180.428 211.444,-173.901 209.194,-180.53"/>
</g>
<!-- Node5 -->
<g id="node5" class="node"><title>Node5</title>
<g id="a_node5"><a xlink:href="../../d8/de2/menudefs_8qc.html#a189158f8c2db3797e9bb00cc53e80988" target="_top" xlink:title="drawfill">
<polygon fill="none" stroke="black" points="351.5,-171.5 351.5,-190.5 398.5,-190.5 398.5,-171.5 351.5,-171.5"/>
<text text-anchor="middle" x="375" y="-178.5" font-family="Helvetica,sans-Serif" font-size="10.00">drawfill</text>
</a>
</g>
</g>
<!-- Node1&#45;&gt;Node5 -->
<g id="edge6" class="edge"><title>Node1&#45;&gt;Node5</title>
<path fill="none" stroke="midnightblue" d="M138.436,-142.541C199.281,-152.474 292.399,-167.677 341.344,-175.668"/>
<polygon fill="midnightblue" stroke="midnightblue" points="340.941,-179.149 351.374,-177.306 342.069,-172.24 340.941,-179.149"/>
</g>
<!-- Node6 -->
<g id="node6" class="node"><title>Node6</title>
<g id="a_node6"><a xlink:href="../../d8/de2/menudefs_8qc.html#a66804fbc3a76c60d59f50aa1bc4557d1" target="_top" xlink:title="drawcolorcodedstring">
<polygon fill="none" stroke="black" points="194.5,-104.5 194.5,-123.5 303.5,-123.5 303.5,-104.5 194.5,-104.5"/>
<text text-anchor="middle" x="249" y="-111.5" font-family="Helvetica,sans-Serif" font-size="10.00">drawcolorcodedstring</text>
</a>
</g>
</g>
<!-- Node1&#45;&gt;Node6 -->
<g id="edge5" class="edge"><title>Node1&#45;&gt;Node6</title>
<path fill="none" stroke="midnightblue" d="M158.098,-124.167C166.749,-123.189 175.483,-122.201 183.932,-121.246"/>
<polygon fill="midnightblue" stroke="midnightblue" points="184.528,-124.701 194.071,-120.099 183.741,-117.745 184.528,-124.701"/>
</g>
<!-- Node7 -->
<g id="node7" class="node"><title>Node7</title>
<g id="a_node7"><a xlink:href="../../dc/d98/client_2miscfunctions_8qc.html#a33af47a87fc160c47fdc3dd5cb1eb82e" target="_top" xlink:title="drawpic_tiled">
<polygon fill="none" stroke="black" points="212,-66.5 212,-85.5 286,-85.5 286,-66.5 212,-66.5"/>
<text text-anchor="middle" x="249" y="-73.5" font-family="Helvetica,sans-Serif" font-size="10.00">drawpic_tiled</text>
</a>
</g>
</g>
<!-- Node1&#45;&gt;Node7 -->
<g id="edge7" class="edge"><title>Node1&#45;&gt;Node7</title>
<path fill="none" stroke="midnightblue" d="M108.119,-123.459C136.103,-113.965 179.228,-99.3332 210.196,-88.8263"/>
<polygon fill="midnightblue" stroke="midnightblue" points="211.444,-92.0991 219.789,-85.5716 209.194,-85.4702 211.444,-92.0991"/>
</g>
<!-- Node12 -->
<g id="node12" class="node"><title>Node12</title>
<g id="a_node12"><a xlink:href="../../d8/de2/menudefs_8qc.html#ae8ecd1beaa4d05a475bf27bbf7e0868c" target="_top" xlink:title="drawstring">
<polygon fill="none" stroke="black" points="218,-28.5 218,-47.5 280,-47.5 280,-28.5 218,-28.5"/>
<text text-anchor="middle" x="249" y="-35.5" font-family="Helvetica,sans-Serif" font-size="10.00">drawstring</text>
</a>
</g>
</g>
<!-- Node1&#45;&gt;Node12 -->
<g id="edge12" class="edge"><title>Node1&#45;&gt;Node12</title>
<path fill="none" stroke="midnightblue" d="M92.031,-123.494C112.174,-107.93 154.418,-76.7669 194,-57 198.551,-54.7271 203.441,-52.6036 208.353,-50.6605"/>
<polygon fill="midnightblue" stroke="midnightblue" points="209.597,-53.9319 217.741,-47.1544 207.148,-47.3742 209.597,-53.9319"/>
</g>
<!-- Node3 -->
<g id="node3" class="node"><title>Node3</title>
<g id="a_node3"><a xlink:href="../../d8/de2/menudefs_8qc.html#ad5a3e16aa960bd72d3ca37a618eea802" target="_top" xlink:title="floor">
<polygon fill="none" stroke="black" points="357.5,-218.5 357.5,-237.5 392.5,-237.5 392.5,-218.5 357.5,-218.5"/>
<text text-anchor="middle" x="375" y="-225.5" font-family="Helvetica,sans-Serif" font-size="10.00">floor</text>
</a>
</g>
</g>
<!-- Node2&#45;&gt;Node3 -->
<g id="edge2" class="edge"><title>Node2&#45;&gt;Node3</title>
<path fill="none" stroke="midnightblue" d="M286.199,-228C305.708,-228 329.365,-228 347.205,-228"/>
<polygon fill="midnightblue" stroke="midnightblue" points="347.216,-231.5 357.216,-228 347.216,-224.5 347.216,-231.5"/>
</g>
<!-- Node4&#45;&gt;Node5 -->
<g id="edge4" class="edge"><title>Node4&#45;&gt;Node5</title>
<path fill="none" stroke="midnightblue" d="M291.635,-186.978C307.87,-185.8 326.201,-184.469 341.441,-183.363"/>
<polygon fill="midnightblue" stroke="midnightblue" points="341.714,-186.853 351.434,-182.638 341.207,-179.871 341.714,-186.853"/>
</g>
<!-- Node8 -->
<g id="node8" class="node"><title>Node8</title>
<g id="a_node8"><a xlink:href="../../d4/d0c/csprogsdefs_8qc.html#a07c016e00e6f80d5012980202d770138" target="_top" xlink:title="drawsubpic">
<polygon fill="none" stroke="black" points="342,-114.5 342,-133.5 408,-133.5 408,-114.5 342,-114.5"/>
<text text-anchor="middle" x="375" y="-121.5" font-family="Helvetica,sans-Serif" font-size="10.00">drawsubpic</text>
</a>
</g>
</g>
<!-- Node7&#45;&gt;Node8 -->
<g id="edge8" class="edge"><title>Node7&#45;&gt;Node8</title>
<path fill="none" stroke="midnightblue" d="M278.133,-85.5731C286.492,-88.5052 295.646,-91.8027 304,-95 316.573,-99.8123 330.281,-105.412 342.207,-110.4"/>
<polygon fill="midnightblue" stroke="midnightblue" points="341.167,-113.76 351.741,-114.415 343.884,-107.308 341.167,-113.76"/>
</g>
<!-- Node9 -->
<g id="node9" class="node"><title>Node9</title>
<g id="a_node9"><a xlink:href="../../dc/d98/client_2miscfunctions_8qc.html#ad1170f4358213040ad74b041ef75e2fe" target="_top" xlink:title="HUD_Scale">
<polygon fill="none" stroke="black" points="340.5,-76.5 340.5,-95.5 409.5,-95.5 409.5,-76.5 340.5,-76.5"/>
<text text-anchor="middle" x="375" y="-83.5" font-family="Helvetica,sans-Serif" font-size="10.00">HUD_Scale</text>
</a>
</g>
</g>
<!-- Node7&#45;&gt;Node9 -->
<g id="edge9" class="edge"><title>Node7&#45;&gt;Node9</title>
<path fill="none" stroke="midnightblue" d="M286.199,-78.9193C299.89,-80.0234 315.623,-81.2922 329.955,-82.448"/>
<polygon fill="midnightblue" stroke="midnightblue" points="329.846,-85.9504 340.095,-83.2657 330.408,-78.9731 329.846,-85.9504"/>
</g>
<!-- Node10 -->
<g id="node10" class="node"><title>Node10</title>
<g id="a_node10"><a xlink:href="../../dc/d98/client_2miscfunctions_8qc.html#a4e66eb737719c91d2c0f0da2d896f6d0" target="_top" xlink:title="HUD_Shift">
<polygon fill="none" stroke="black" points="342.5,-38.5 342.5,-57.5 407.5,-57.5 407.5,-38.5 342.5,-38.5"/>
<text text-anchor="middle" x="375" y="-45.5" font-family="Helvetica,sans-Serif" font-size="10.00">HUD_Shift</text>
</a>
</g>
</g>
<!-- Node7&#45;&gt;Node10 -->
<g id="edge10" class="edge"><title>Node7&#45;&gt;Node10</title>
<path fill="none" stroke="midnightblue" d="M286.199,-67.826C300.603,-64.5734 317.269,-60.8102 332.185,-57.4421"/>
<polygon fill="midnightblue" stroke="midnightblue" points="333.199,-60.8013 342.183,-55.1846 331.657,-53.9732 333.199,-60.8013"/>
</g>
<!-- Node11 -->
<g id="node11" class="node"><title>Node11</title>
<g id="a_node11"><a xlink:href="../../d8/de2/menudefs_8qc.html#ab2ad6bdb33b4334fec83db0418cf72df" target="_top" xlink:title="min">
<polygon fill="none" stroke="black" points="359,-0.5 359,-19.5 391,-19.5 391,-0.5 359,-0.5"/>
<text text-anchor="middle" x="375" y="-7.5" font-family="Helvetica,sans-Serif" font-size="10.00">min</text>
</a>
</g>
</g>
<!-- Node7&#45;&gt;Node11 -->
<g id="edge11" class="edge"><title>Node7&#45;&gt;Node11</title>
<path fill="none" stroke="midnightblue" d="M282.715,-66.3971C289.918,-63.7639 297.37,-60.6191 304,-57 321.791,-47.2878 323.104,-40.1983 340,-29 343.174,-26.8963 346.597,-24.7988 350.005,-22.8065"/>
<polygon fill="midnightblue" stroke="midnightblue" points="351.818,-25.8028 358.814,-17.8466 348.383,-19.7032 351.818,-25.8028"/>
</g>
</g>
</svg>
