<?xml version="1.0" encoding="UTF-8" standalone="no"?>
<!DOCTYPE svg PUBLIC "-//W3C//DTD SVG 1.1//EN"
 "http://www.w3.org/Graphics/SVG/1.1/DTD/svg11.dtd">
<!-- Generated by graphviz version 2.36.0 (20140111.2315)
 -->
<!-- Title: pathlib_mknode Pages: 1 -->
<svg width="416pt" height="180pt"
 viewBox="0.00 0.00 416.00 180.00" xmlns="http://www.w3.org/2000/svg" xmlns:xlink="http://www.w3.org/1999/xlink">
<g id="graph0" class="graph" transform="scale(1 1) rotate(0) translate(4 176)">
<title>pathlib_mknode</title>
<!-- Node1 -->
<g id="node1" class="node"><title>Node1</title>
<polygon fill="#bfbfbf" stroke="black" points="0.5,-76.5 0.5,-95.5 85.5,-95.5 85.5,-76.5 0.5,-76.5"/>
<text text-anchor="middle" x="43" y="-83.5" font-family="Helvetica,sans-Serif" font-size="10.00">pathlib_mknode</text>
</g>
<!-- Node2 -->
<g id="node2" class="node"><title>Node2</title>
<g id="a_node2"><a xlink:href="../../d4/d0c/csprogsdefs_8qc.html#acbb54a239d76062465dccbc6a6c6e464" target="_top" xlink:title="entity">
<polygon fill="none" stroke="black" points="281.5,-114.5 281.5,-133.5 322.5,-133.5 322.5,-114.5 281.5,-114.5"/>
<text text-anchor="middle" x="302" y="-121.5" font-family="Helvetica,sans-Serif" font-size="10.00">entity</text>
</a>
</g>
</g>
<!-- Node1&#45;&gt;Node2 -->
<g id="edge1" class="edge"><title>Node1&#45;&gt;Node2</title>
<path fill="none" stroke="midnightblue" d="M85.6369,-93.8255C97.3785,-95.9365 110.175,-98.1469 122,-100 174.355,-108.204 235.602,-116.037 271.18,-120.412"/>
<polygon fill="midnightblue" stroke="midnightblue" points="271.008,-123.917 281.358,-121.655 271.857,-116.969 271.008,-123.917"/>
</g>
<!-- Node3 -->
<g id="node3" class="node"><title>Node3</title>
<g id="a_node3"><a xlink:href="../../dd/d1e/utility_8qc.html#ad7e0fa93ffe2ec3f34de96e7f86b90af" target="_top" xlink:title="pathlib_nodeatpoint">
<polygon fill="none" stroke="black" points="123.5,-152.5 123.5,-171.5 224.5,-171.5 224.5,-152.5 123.5,-152.5"/>
<text text-anchor="middle" x="174" y="-159.5" font-family="Helvetica,sans-Serif" font-size="10.00">pathlib_nodeatpoint</text>
</a>
</g>
</g>
<!-- Node1&#45;&gt;Node3 -->
<g id="edge2" class="edge"><title>Node1&#45;&gt;Node3</title>
<path fill="none" stroke="midnightblue" d="M57.1453,-95.6402C72.35,-106.581 98.3316,-124.639 122,-138 128.183,-141.491 134.959,-144.931 141.494,-148.068"/>
<polygon fill="midnightblue" stroke="midnightblue" points="140.259,-151.354 150.8,-152.42 143.224,-145.013 140.259,-151.354"/>
</g>
<!-- Node6 -->
<g id="node6" class="node"><title>Node6</title>
<g id="a_node6"><a xlink:href="../../d6/d35/debug_8qc.html#adc85103f78c9ba4288aff7bcf480950e" target="_top" xlink:title="pathlib_showsquare">
<polygon fill="none" stroke="black" points="122.5,-38.5 122.5,-57.5 225.5,-57.5 225.5,-38.5 122.5,-38.5"/>
<text text-anchor="middle" x="174" y="-45.5" font-family="Helvetica,sans-Serif" font-size="10.00">pathlib_showsquare</text>
</a>
</g>
</g>
<!-- Node1&#45;&gt;Node6 -->
<g id="edge6" class="edge"><title>Node1&#45;&gt;Node6</title>
<path fill="none" stroke="midnightblue" d="M76.5521,-76.411C92.8993,-71.5956 112.909,-65.7012 130.457,-60.532"/>
<polygon fill="midnightblue" stroke="midnightblue" points="131.855,-63.7691 140.458,-57.5859 129.877,-57.0543 131.855,-63.7691"/>
</g>
<!-- Node7 -->
<g id="node7" class="node"><title>Node7</title>
<g id="a_node7"><a xlink:href="../../d8/de2/menudefs_8qc.html#a60338c2153150633178af678cf3ca57c" target="_top" xlink:title="spawn">
<polygon fill="none" stroke="black" points="279.5,-76.5 279.5,-95.5 324.5,-95.5 324.5,-76.5 279.5,-76.5"/>
<text text-anchor="middle" x="302" y="-83.5" font-family="Helvetica,sans-Serif" font-size="10.00">spawn</text>
</a>
</g>
</g>
<!-- Node1&#45;&gt;Node7 -->
<g id="edge11" class="edge"><title>Node1&#45;&gt;Node7</title>
<path fill="none" stroke="midnightblue" d="M85.5771,-86C136.846,-86 222.868,-86 269.18,-86"/>
<polygon fill="midnightblue" stroke="midnightblue" points="269.244,-89.5001 279.244,-86 269.244,-82.5001 269.244,-89.5001"/>
</g>
<!-- Node8 -->
<g id="node8" class="node"><title>Node8</title>
<g id="a_node8"><a xlink:href="../../d5/d95/defer_8qh.html#a82f1a723df145b0f0f7a8511a2a78a41" target="_top" xlink:title="Remove entity. ">
<polygon fill="none" stroke="black" points="262,-0.5 262,-19.5 342,-19.5 342,-0.5 262,-0.5"/>
<text text-anchor="middle" x="302" y="-7.5" font-family="Helvetica,sans-Serif" font-size="10.00">SUB_Remove</text>
</a>
</g>
</g>
<!-- Node1&#45;&gt;Node8 -->
<g id="edge12" class="edge"><title>Node1&#45;&gt;Node8</title>
<path fill="none" stroke="midnightblue" d="M53.5541,-76.3442C67.3184,-63.109 94.1489,-39.7517 122,-29 163.838,-12.8487 215.02,-8.83485 251.921,-8.42595"/>
<polygon fill="midnightblue" stroke="midnightblue" points="251.941,-11.926 261.931,-8.39912 251.922,-4.92603 251.941,-11.926"/>
</g>
<!-- Node3&#45;&gt;Node2 -->
<g id="edge3" class="edge"><title>Node3&#45;&gt;Node2</title>
<path fill="none" stroke="midnightblue" d="M206.795,-152.411C226.694,-146.41 252.149,-138.733 271.581,-132.872"/>
<polygon fill="midnightblue" stroke="midnightblue" points="272.844,-136.147 281.408,-129.909 270.823,-129.445 272.844,-136.147"/>
</g>
<!-- Node4 -->
<g id="node4" class="node"><title>Node4</title>
<g id="a_node4"><a xlink:href="../../d0/d79/math_8qh.html#a87ab6b8926bb5587a28d323202f59791" target="_top" xlink:title="fsnap">
<polygon fill="none" stroke="black" points="281.5,-152.5 281.5,-171.5 322.5,-171.5 322.5,-152.5 281.5,-152.5"/>
<text text-anchor="middle" x="302" y="-159.5" font-family="Helvetica,sans-Serif" font-size="10.00">fsnap</text>
</a>
</g>
</g>
<!-- Node3&#45;&gt;Node4 -->
<g id="edge4" class="edge"><title>Node3&#45;&gt;Node4</title>
<path fill="none" stroke="midnightblue" d="M224.799,-162C240.43,-162 257.198,-162 271.013,-162"/>
<polygon fill="midnightblue" stroke="midnightblue" points="271.382,-165.5 281.382,-162 271.382,-158.5 271.382,-165.5"/>
</g>
<!-- Node5 -->
<g id="node5" class="node"><title>Node5</title>
<g id="a_node5"><a xlink:href="../../d8/de2/menudefs_8qc.html#ab8b85fda1f4e4157ff583a91373b2f71" target="_top" xlink:title="rint">
<polygon fill="none" stroke="black" points="378,-152.5 378,-171.5 408,-171.5 408,-152.5 378,-152.5"/>
<text text-anchor="middle" x="393" y="-159.5" font-family="Helvetica,sans-Serif" font-size="10.00">rint</text>
</a>
</g>
</g>
<!-- Node4&#45;&gt;Node5 -->
<g id="edge5" class="edge"><title>Node4&#45;&gt;Node5</title>
<path fill="none" stroke="midnightblue" d="M322.752,-162C336.056,-162 353.686,-162 367.828,-162"/>
<polygon fill="midnightblue" stroke="midnightblue" points="367.833,-165.5 377.833,-162 367.833,-158.5 367.833,-165.5"/>
</g>
<!-- Node6&#45;&gt;Node2 -->
<g id="edge7" class="edge"><title>Node6&#45;&gt;Node2</title>
<path fill="none" stroke="midnightblue" d="M188.525,-57.6341C205.354,-69.4385 235.153,-89.7467 262,-105 265.27,-106.858 268.749,-108.714 272.229,-110.498"/>
<polygon fill="midnightblue" stroke="midnightblue" points="270.795,-113.694 281.308,-115.005 273.908,-107.424 270.795,-113.694"/>
</g>
<!-- Node6&#45;&gt;Node7 -->
<g id="edge8" class="edge"><title>Node6&#45;&gt;Node7</title>
<path fill="none" stroke="midnightblue" d="M206.795,-57.589C225.952,-63.3665 250.259,-70.6972 269.384,-76.465"/>
<polygon fill="midnightblue" stroke="midnightblue" points="268.549,-79.8688 279.133,-79.4053 270.57,-73.1669 268.549,-79.8688"/>
</g>
<!-- Node6&#45;&gt;Node8 -->
<g id="edge9" class="edge"><title>Node6&#45;&gt;Node8</title>
<path fill="none" stroke="midnightblue" d="M206.795,-38.411C222.762,-33.5956 242.307,-27.7012 259.447,-22.532"/>
<polygon fill="midnightblue" stroke="midnightblue" points="260.652,-25.8244 269.215,-19.5859 258.63,-19.1225 260.652,-25.8244"/>
</g>
<!-- Node9 -->
<g id="node9" class="node"><title>Node9</title>
<g id="a_node9"><a xlink:href="../../d8/de2/menudefs_8qc.html#a822ea10e75a853993f2fa21149d76f4c" target="_top" xlink:title="vectoangles">
<polygon fill="none" stroke="black" points="267.5,-38.5 267.5,-57.5 336.5,-57.5 336.5,-38.5 267.5,-38.5"/>
<text text-anchor="middle" x="302" y="-45.5" font-family="Helvetica,sans-Serif" font-size="10.00">vectoangles</text>
</a>
</g>
</g>
<!-- Node6&#45;&gt;Node9 -->
<g id="edge10" class="edge"><title>Node6&#45;&gt;Node9</title>
<path fill="none" stroke="midnightblue" d="M225.523,-48C235.991,-48 246.937,-48 257.143,-48"/>
<polygon fill="midnightblue" stroke="midnightblue" points="257.459,-51.5001 267.459,-48 257.459,-44.5001 257.459,-51.5001"/>
</g>
</g>
</svg>
