<?xml version="1.0" encoding="UTF-8" standalone="no"?>
<!DOCTYPE svg PUBLIC "-//W3C//DTD SVG 1.1//EN"
 "http://www.w3.org/Graphics/SVG/1.1/DTD/svg11.dtd">
<!-- Generated by graphviz version 2.36.0 (20140111.2315)
 -->
<!-- Title: pathlib_mknode Pages: 1 -->
<svg width="376pt" height="47pt"
 viewBox="0.00 0.00 376.00 47.00" xmlns="http://www.w3.org/2000/svg" xmlns:xlink="http://www.w3.org/1999/xlink">
<g id="graph0" class="graph" transform="scale(1 1) rotate(0) translate(4 43)">
<title>pathlib_mknode</title>
<!-- Node1 -->
<g id="node1" class="node"><title>Node1</title>
<polygon fill="#bfbfbf" stroke="black" points="0.5,-19.5 0.5,-38.5 85.5,-38.5 85.5,-19.5 0.5,-19.5"/>
<text text-anchor="middle" x="43" y="-26.5" font-family="Helvetica,sans-Serif" font-size="10.00">pathlib_mknode</text>
</g>
<!-- Node2 -->
<g id="node2" class="node"><title>Node2</title>
<g id="a_node2"><a xlink:href="../../df/d4c/server_2pathlib_2main_8qc.html#a50572e73e7e27b5eb8e52c539109a13e" target="_top" xlink:title="pathlib_astar">
<polygon fill="none" stroke="black" points="296,-19.5 296,-38.5 368,-38.5 368,-19.5 296,-19.5"/>
<text text-anchor="middle" x="332" y="-26.5" font-family="Helvetica,sans-Serif" font-size="10.00">pathlib_astar</text>
</a>
</g>
</g>
<!-- Node1&#45;&gt;Node2 -->
<g id="edge1" class="edge"><title>Node1&#45;&gt;Node2</title>
<path fill="none" stroke="midnightblue" d="M95.7789,-29C153.709,-29 245.968,-29 295.989,-29"/>
<polygon fill="midnightblue" stroke="midnightblue" points="95.7323,-25.5001 85.7323,-29 95.7322,-32.5001 95.7323,-25.5001"/>
</g>
<!-- Node3 -->
<g id="node3" class="node"><title>Node3</title>
<g id="a_node3"><a xlink:href="../../df/d4c/server_2pathlib_2main_8qc.html#a1967ff2f3a64bdc15af8370dac37c9c4" target="_top" xlink:title="pathlib_makenode_adaptive">
<polygon fill="none" stroke="black" points="122.5,-0.5 122.5,-19.5 259.5,-19.5 259.5,-0.5 122.5,-0.5"/>
<text text-anchor="middle" x="191" y="-7.5" font-family="Helvetica,sans-Serif" font-size="10.00">pathlib_makenode_adaptive</text>
</a>
</g>
</g>
<!-- Node1&#45;&gt;Node3 -->
<g id="edge2" class="edge"><title>Node1&#45;&gt;Node3</title>
<path fill="none" stroke="midnightblue" d="M95.9791,-22.2356C104.491,-21.1278 113.42,-19.9658 122.247,-18.8172"/>
<polygon fill="midnightblue" stroke="midnightblue" points="95.3024,-18.7941 85.8377,-23.5554 96.2058,-25.7355 95.3024,-18.7941"/>
</g>
<!-- Node3&#45;&gt;Node2 -->
<g id="edge3" class="edge"><title>Node3&#45;&gt;Node2</title>
<path fill="none" stroke="midnightblue" d="M270.03,-20.666C278.984,-21.89 287.747,-23.0877 295.711,-24.1763"/>
<polygon fill="midnightblue" stroke="midnightblue" points="270.253,-17.164 259.871,-19.2774 269.305,-24.0995 270.253,-17.164"/>
</g>
</g>
</svg>
