<?xml version="1.0" encoding="UTF-8" standalone="no"?>
<!DOCTYPE svg PUBLIC "-//W3C//DTD SVG 1.1//EN"
 "http://www.w3.org/Graphics/SVG/1.1/DTD/svg11.dtd">
<!-- Generated by graphviz version 2.36.0 (20140111.2315)
 -->
<!-- Title: HUD_MinigameMenu_CurrentButton Pages: 1 -->
<!--zoomable 695 -->
<svg id="main" version="1.1" xmlns="http://www.w3.org/2000/svg" xmlns:xlink="http://www.w3.org/1999/xlink" xml:space="preserve" onload="init(evt)">
<style type="text/css"><![CDATA[
.edge:hover path { stroke: red; }
.edge:hover polygon { stroke: red; fill: red; }
]]></style>
<script type="text/javascript"><![CDATA[
var edges = document.getElementsByTagName('g');
if (edges && edges.length) {
  for (var i=0;i<edges.length;i++) {
    if (edges[i].id.substr(0,4)=='edge') {
      edges[i].setAttribute('class','edge');
    }
  }
}
]]></script>
        <defs>
                <circle id="rim" cx="0" cy="0" r="7"/>
                <circle id="rim2" cx="0" cy="0" r="3.5"/>
                <g id="zoomPlus">
                        <use xlink:href="#rim" fill="#404040">
                                <set attributeName="fill" to="#808080" begin="zoomplus.mouseover" end="zoomplus.mouseout"/>
                        </use>
                        <path d="M-4,0h8M0,-4v8" fill="none" stroke="white" stroke-width="1.5" pointer-events="none"/>
                </g>
                <g id="zoomMin">
                        <use xlink:href="#rim" fill="#404040">
                                <set attributeName="fill" to="#808080" begin="zoomminus.mouseover" end="zoomminus.mouseout"/>
                        </use>
                        <path d="M-4,0h8" fill="none" stroke="white" stroke-width="1.5" pointer-events="none"/>
                </g>
                <g id="dirArrow">
                        <path fill="none" stroke="white" stroke-width="1.5" d="M0,-3.0v7 M-2.5,-0.5L0,-3.0L2.5,-0.5"/>
                </g>
               <g id="resetDef">
                       <use xlink:href="#rim2" fill="#404040">
                               <set attributeName="fill" to="#808080" begin="reset.mouseover" end="reset.mouseout"/>
                       </use>
               </g>
        </defs>

<script type="text/javascript">
var viewWidth = 1188;
var viewHeight = 695;
var sectionId = 'dynsection-5';
</script>
<script xlink:href="../../svgpan.js"/>
<svg id="graph" class="graph">
<g id="viewport">
<title>HUD_MinigameMenu_CurrentButton</title>
<!-- Node1 -->
<g id="node1" class="node"><title>Node1</title>
<polygon fill="#bfbfbf" stroke="black" points="0,-185 0,-215 148,-215 148,-185 0,-185"/>
<text text-anchor="start" x="8" y="-203" font-family="Helvetica,sans-Serif" font-size="10.00">HUD_MinigameMenu_Current</text>
<text text-anchor="middle" x="74" y="-192" font-family="Helvetica,sans-Serif" font-size="10.00">Button</text>
</g>
<!-- Node2 -->
<g id="node2" class="node"><title>Node2</title>
<g id="a_node2"><a xlink:href="../../d4/d0c/csprogsdefs_8qc.html#acbb54a239d76062465dccbc6a6c6e464" target="_top" xlink:title="entity">
<polygon fill="none" stroke="black" points="1080.5,-404.5 1080.5,-423.5 1121.5,-423.5 1121.5,-404.5 1080.5,-404.5"/>
<text text-anchor="middle" x="1101" y="-411.5" font-family="Helvetica,sans-Serif" font-size="10.00">entity</text>
</a>
</g>
</g>
<!-- Node1&#45;&gt;Node2 -->
<g id="edge1" class="edge"><title>Node1&#45;&gt;Node2</title>
<path fill="none" stroke="midnightblue" d="M78.2491,-215.174C87.6477,-255.698 118.47,-367.794 184,-433 292.963,-541.424 344.283,-578 498,-578 498,-578 498,-578 699,-578 829.593,-578 869.6,-574.207 986,-515 1027.38,-493.953 1065.62,-454.269 1085.57,-431.411"/>
<polygon fill="midnightblue" stroke="midnightblue" points="1088.45,-433.426 1092.28,-423.549 1083.13,-428.879 1088.45,-433.426"/>
</g>
<!-- Node3 -->
<g id="node3" class="node"><title>Node3</title>
<g id="a_node3"><a xlink:href="../../d5/d4a/cl__minigames__hud_8qc.html#a36e72384f2fcae7156722f888cd6315b" target="_top" xlink:title="HUD_MinigameMenu_Click">
<polygon fill="none" stroke="black" points="832,-92.5 832,-111.5 970,-111.5 970,-92.5 832,-92.5"/>
<text text-anchor="middle" x="901" y="-99.5" font-family="Helvetica,sans-Serif" font-size="10.00">HUD_MinigameMenu_Click</text>
</a>
</g>
</g>
<!-- Node1&#45;&gt;Node3 -->
<g id="edge2" class="edge"><title>Node1&#45;&gt;Node3</title>
<path fill="none" stroke="midnightblue" d="M131.559,-184.989C148.344,-180.947 166.831,-176.898 184,-174 305.071,-153.567 662.328,-122.065 821.704,-108.538"/>
<polygon fill="midnightblue" stroke="midnightblue" points="822.242,-112.005 831.911,-107.673 821.651,-105.03 822.242,-112.005"/>
</g>
<!-- Node4 -->
<g id="node4" class="node"><title>Node4</title>
<g id="a_node4"><a xlink:href="../../d5/d4a/cl__minigames__hud_8qc.html#a99f0bce41fdc5a77140f64f309d340ec" target="_top" xlink:title="HUD_MinigameMenu_ClickCurrentGame">
<polygon fill="none" stroke="black" points="184.5,-332.5 184.5,-351.5 381.5,-351.5 381.5,-332.5 184.5,-332.5"/>
<text text-anchor="middle" x="283" y="-339.5" font-family="Helvetica,sans-Serif" font-size="10.00">HUD_MinigameMenu_ClickCurrentGame</text>
</a>
</g>
</g>
<!-- Node1&#45;&gt;Node4 -->
<g id="edge3" class="edge"><title>Node1&#45;&gt;Node4</title>
<path fill="none" stroke="midnightblue" d="M97.1526,-215.196C136.908,-242.468 219.92,-299.414 259.748,-326.735"/>
<polygon fill="midnightblue" stroke="midnightblue" points="257.78,-329.629 268.006,-332.4 261.739,-323.857 257.78,-329.629"/>
</g>
<!-- Node6 -->
<g id="node6" class="node"><title>Node6</title>
<g id="a_node6"><a xlink:href="../../d5/d4a/cl__minigames__hud_8qc.html#aa3806155b8445caf2a4de3b1a3a3801a" target="_top" xlink:title="HUD_MinigameMenu_InsertEntry">
<polygon fill="none" stroke="black" points="616,-530.5 616,-549.5 780,-549.5 780,-530.5 616,-530.5"/>
<text text-anchor="middle" x="698" y="-537.5" font-family="Helvetica,sans-Serif" font-size="10.00">HUD_MinigameMenu_InsertEntry</text>
</a>
</g>
</g>
<!-- Node1&#45;&gt;Node6 -->
<g id="edge37" class="edge"><title>Node1&#45;&gt;Node6</title>
<path fill="none" stroke="midnightblue" d="M82.1028,-215.037C97.1993,-245.719 135.132,-316.402 184,-361 271.718,-441.054 306.065,-450.332 418,-490 478.694,-511.509 550.237,-524.093 605.68,-531.257"/>
<polygon fill="midnightblue" stroke="midnightblue" points="605.48,-534.759 615.838,-532.532 606.352,-527.814 605.48,-534.759"/>
</g>
<!-- Node9 -->
<g id="node9" class="node"><title>Node9</title>
<g id="a_node9"><a xlink:href="../../d5/d4a/cl__minigames__hud_8qc.html#a68d79ea18668beea80296c26e8a2a909" target="_top" xlink:title="HUD_MinigameMenu_SpawnEntry">
<polygon fill="none" stroke="black" points="816.5,-606.5 816.5,-625.5 985.5,-625.5 985.5,-606.5 816.5,-606.5"/>
<text text-anchor="middle" x="901" y="-613.5" font-family="Helvetica,sans-Serif" font-size="10.00">HUD_MinigameMenu_SpawnEntry</text>
</a>
</g>
</g>
<!-- Node1&#45;&gt;Node9 -->
<g id="edge38" class="edge"><title>Node1&#45;&gt;Node9</title>
<path fill="none" stroke="midnightblue" d="M76.8808,-215.435C85.331,-281.994 122.097,-543.304 184,-592 391.098,-754.914 745.782,-664.621 861.946,-628.638"/>
<polygon fill="midnightblue" stroke="midnightblue" points="863.313,-631.877 871.802,-625.537 861.212,-625.2 863.313,-631.877"/>
</g>
<!-- Node14 -->
<g id="node14" class="node"><title>Node14</title>
<g id="a_node14"><a xlink:href="../../d5/d4a/cl__minigames__hud_8qc.html#a99e723ab8b6ed89a42df35b13fc1681a" target="_top" xlink:title="HUD_MinigameMenu_Close">
<polygon fill="none" stroke="black" points="830.5,-130.5 830.5,-149.5 971.5,-149.5 971.5,-130.5 830.5,-130.5"/>
<text text-anchor="middle" x="901" y="-137.5" font-family="Helvetica,sans-Serif" font-size="10.00">HUD_MinigameMenu_Close</text>
</a>
</g>
</g>
<!-- Node1&#45;&gt;Node14 -->
<g id="edge34" class="edge"><title>Node1&#45;&gt;Node14</title>
<path fill="none" stroke="midnightblue" d="M148.213,-194.675C302.565,-183.45 660.273,-157.435 820.216,-145.802"/>
<polygon fill="midnightblue" stroke="midnightblue" points="820.741,-149.274 830.461,-145.057 820.233,-142.292 820.741,-149.274"/>
</g>
<!-- Node21 -->
<g id="node21" class="node"><title>Node21</title>
<g id="a_node21"><a xlink:href="../../d8/de2/menudefs_8qc.html#ae06db7c87845d853670a09a1d487b1db" target="_top" xlink:title="strzone">
<polygon fill="none" stroke="black" points="673.5,-228.5 673.5,-247.5 722.5,-247.5 722.5,-228.5 673.5,-228.5"/>
<text text-anchor="middle" x="698" y="-235.5" font-family="Helvetica,sans-Serif" font-size="10.00">strzone</text>
</a>
</g>
</g>
<!-- Node1&#45;&gt;Node21 -->
<g id="edge43" class="edge"><title>Node1&#45;&gt;Node21</title>
<path fill="none" stroke="midnightblue" d="M148.202,-210.229C160.149,-211.66 172.406,-212.986 184,-214 364.209,-229.762 580.998,-235.615 663.192,-237.365"/>
<polygon fill="midnightblue" stroke="midnightblue" points="663.363,-240.869 673.433,-237.576 663.508,-233.871 663.363,-240.869"/>
</g>
<!-- Node23 -->
<g id="node23" class="node"><title>Node23</title>
<g id="a_node23"><a xlink:href="../../d5/d4a/cl__minigames__hud_8qc.html#a1ba10a9b36cce92f0d8c066599961241" target="_top" xlink:title="HUD_MinigameMenu_EraseEntry">
<polygon fill="none" stroke="black" points="201,-76.5 201,-95.5 365,-95.5 365,-76.5 201,-76.5"/>
<text text-anchor="middle" x="283" y="-83.5" font-family="Helvetica,sans-Serif" font-size="10.00">HUD_MinigameMenu_EraseEntry</text>
</a>
</g>
</g>
<!-- Node1&#45;&gt;Node23 -->
<g id="edge35" class="edge"><title>Node1&#45;&gt;Node23</title>
<path fill="none" stroke="midnightblue" d="M88.9716,-184.802C108.354,-164.649 145.398,-129.375 184,-110 193.589,-105.187 204.199,-101.303 214.793,-98.1797"/>
<polygon fill="midnightblue" stroke="midnightblue" points="215.771,-101.541 224.488,-95.5198 213.919,-94.7904 215.771,-101.541"/>
</g>
<!-- Node24 -->
<g id="node24" class="node"><title>Node24</title>
<g id="a_node24"><a xlink:href="../../d4/db7/cl__minigames_8qc.html#a668aa690502b071b56dfd97e425d8d3e" target="_top" xlink:title="minigame_texture">
<polygon fill="none" stroke="black" points="236,-38.5 236,-57.5 330,-57.5 330,-38.5 236,-38.5"/>
<text text-anchor="middle" x="283" y="-45.5" font-family="Helvetica,sans-Serif" font-size="10.00">minigame_texture</text>
</a>
</g>
</g>
<!-- Node1&#45;&gt;Node24 -->
<g id="edge39" class="edge"><title>Node1&#45;&gt;Node24</title>
<path fill="none" stroke="midnightblue" d="M82.8013,-184.725C98.0744,-156.495 134.774,-96.3656 184,-67 196.456,-59.5696 211.241,-54.9668 225.501,-52.137"/>
<polygon fill="midnightblue" stroke="midnightblue" points="226.489,-55.5186 235.751,-50.3747 225.303,-48.6198 226.489,-55.5186"/>
</g>
<!-- Node27 -->
<g id="node27" class="node"><title>Node27</title>
<g id="a_node27"><a xlink:href="../../d8/de2/menudefs_8qc.html#ad76dc2b2895cd23f21e008f12a686158" target="_top" xlink:title="strcat">
<polygon fill="none" stroke="black" points="262.5,-0.5 262.5,-19.5 303.5,-19.5 303.5,-0.5 262.5,-0.5"/>
<text text-anchor="middle" x="283" y="-7.5" font-family="Helvetica,sans-Serif" font-size="10.00">strcat</text>
</a>
</g>
</g>
<!-- Node1&#45;&gt;Node27 -->
<g id="edge42" class="edge"><title>Node1&#45;&gt;Node27</title>
<path fill="none" stroke="midnightblue" d="M80.0083,-184.718C92.0021,-150.698 125.784,-68.6066 184,-29 204.011,-15.3856 231.354,-10.9709 252.074,-9.77012"/>
<polygon fill="midnightblue" stroke="midnightblue" points="252.365,-13.262 262.232,-9.40346 252.112,-6.26657 252.365,-13.262"/>
</g>
<!-- Node5 -->
<g id="node5" class="node"><title>Node5</title>
<g id="a_node5"><a xlink:href="../../d5/d4a/cl__minigames__hud_8qc.html#a1875c5c56cb1e26b51eb64ae1c602ff8" target="_top" xlink:title="HUD_MinigameMenu_Click\l_ExpandCollapse">
<polygon fill="none" stroke="black" points="629,-267 629,-297 767,-297 767,-267 629,-267"/>
<text text-anchor="start" x="637" y="-285" font-family="Helvetica,sans-Serif" font-size="10.00">HUD_MinigameMenu_Click</text>
<text text-anchor="middle" x="698" y="-274" font-family="Helvetica,sans-Serif" font-size="10.00">_ExpandCollapse</text>
</a>
</g>
</g>
<!-- Node4&#45;&gt;Node5 -->
<g id="edge4" class="edge"><title>Node4&#45;&gt;Node5</title>
<path fill="none" stroke="midnightblue" d="M349.441,-332.493C422.472,-321.883 540.592,-304.723 618.527,-293.4"/>
<polygon fill="midnightblue" stroke="midnightblue" points="619.381,-296.813 628.773,-291.912 618.374,-289.886 619.381,-296.813"/>
</g>
<!-- Node4&#45;&gt;Node6 -->
<g id="edge7" class="edge"><title>Node4&#45;&gt;Node6</title>
<path fill="none" stroke="midnightblue" d="M294.746,-351.761C316.603,-371.22 368.377,-415.348 418,-443 500.479,-488.961 525.98,-491.513 616,-520 624.925,-522.824 634.505,-525.497 643.842,-527.915"/>
<polygon fill="midnightblue" stroke="midnightblue" points="643.283,-531.383 653.835,-530.434 644.993,-524.596 643.283,-531.383"/>
</g>
<!-- Node7 -->
<g id="node7" class="node"><title>Node7</title>
<g id="a_node7"><a xlink:href="../../d5/d4a/cl__minigames__hud_8qc.html#aadfdd927ff9cdfb93e7594562399c8e4" target="_top" xlink:title="HUD_MinigameMenu_SpawnSub\lEntry">
<polygon fill="none" stroke="black" points="616.5,-481 616.5,-511 779.5,-511 779.5,-481 616.5,-481"/>
<text text-anchor="start" x="624.5" y="-499" font-family="Helvetica,sans-Serif" font-size="10.00">HUD_MinigameMenu_SpawnSub</text>
<text text-anchor="middle" x="698" y="-488" font-family="Helvetica,sans-Serif" font-size="10.00">Entry</text>
</a>
</g>
</g>
<!-- Node4&#45;&gt;Node7 -->
<g id="edge8" class="edge"><title>Node4&#45;&gt;Node7</title>
<path fill="none" stroke="midnightblue" d="M307.134,-351.646C360.894,-373.918 498.616,-430.138 616,-471 622.537,-473.276 629.406,-475.559 636.264,-477.77"/>
<polygon fill="midnightblue" stroke="midnightblue" points="635.674,-481.255 646.265,-480.949 637.795,-474.584 635.674,-481.255"/>
</g>
<!-- Node11 -->
<g id="node11" class="node"><title>Node11</title>
<g id="a_node11"><a xlink:href="../../d5/d4a/cl__minigames__hud_8qc.html#aa219a6c66935bb8fb4a90d03015a039e" target="_top" xlink:title="HUD_MinigameMenu_ClickQuit">
<polygon fill="none" stroke="black" points="421,-270.5 421,-289.5 577,-289.5 577,-270.5 421,-270.5"/>
<text text-anchor="middle" x="499" y="-277.5" font-family="Helvetica,sans-Serif" font-size="10.00">HUD_MinigameMenu_ClickQuit</text>
</a>
</g>
</g>
<!-- Node4&#45;&gt;Node11 -->
<g id="edge14" class="edge"><title>Node4&#45;&gt;Node11</title>
<path fill="none" stroke="midnightblue" d="M316.969,-332.448C354.12,-321.685 414.626,-304.155 455.349,-292.357"/>
<polygon fill="midnightblue" stroke="midnightblue" points="456.363,-295.707 464.994,-289.562 454.415,-288.984 456.363,-295.707"/>
</g>
<!-- Node19 -->
<g id="node19" class="node"><title>Node19</title>
<g id="a_node19"><a xlink:href="../../d5/d4a/cl__minigames__hud_8qc.html#a17e7d1f6bf523351611e6c90d7a6aa15" target="_top" xlink:title="HUD_MinigameMenu_ClickInvite">
<polygon fill="none" stroke="black" points="418,-360.5 418,-379.5 580,-379.5 580,-360.5 418,-360.5"/>
<text text-anchor="middle" x="499" y="-367.5" font-family="Helvetica,sans-Serif" font-size="10.00">HUD_MinigameMenu_ClickInvite</text>
</a>
</g>
</g>
<!-- Node4&#45;&gt;Node19 -->
<g id="edge25" class="edge"><title>Node4&#45;&gt;Node19</title>
<path fill="none" stroke="midnightblue" d="M356.749,-351.519C375.529,-353.976 395.882,-356.639 415.135,-359.158"/>
<polygon fill="midnightblue" stroke="midnightblue" points="414.719,-362.633 425.089,-360.46 415.627,-355.692 414.719,-362.633"/>
</g>
<!-- Node5&#45;&gt;Node2 -->
<g id="edge5" class="edge"><title>Node5&#45;&gt;Node2</title>
<path fill="none" stroke="midnightblue" d="M744.609,-297.014C827.592,-324.33 1001.08,-381.439 1070.43,-404.266"/>
<polygon fill="midnightblue" stroke="midnightblue" points="1069.67,-407.7 1080.26,-407.502 1071.86,-401.051 1069.67,-407.7"/>
</g>
<!-- Node5&#45;&gt;Node3 -->
<g id="edge6" class="edge"><title>Node5&#45;&gt;Node3</title>
<path fill="none" stroke="midnightblue" d="M767.133,-267.039C771.855,-264.242 776.229,-260.928 780,-257 823.306,-211.899 770.992,-164.402 816,-121 818.169,-118.908 820.518,-117.028 823.004,-115.339"/>
<polygon fill="midnightblue" stroke="midnightblue" points="824.937,-118.267 831.925,-110.303 821.496,-112.171 824.937,-118.267"/>
</g>
<!-- Node7&#45;&gt;Node2 -->
<g id="edge10" class="edge"><title>Node7&#45;&gt;Node2</title>
<path fill="none" stroke="midnightblue" d="M772.55,-480.96C861.892,-462.69 1008.37,-432.738 1070.57,-420.017"/>
<polygon fill="midnightblue" stroke="midnightblue" points="1071.4,-423.42 1080.5,-417.988 1070,-416.562 1071.4,-423.42"/>
</g>
<!-- Node8 -->
<g id="node8" class="node"><title>Node8</title>
<g id="a_node8"><a xlink:href="../../d4/d0c/csprogsdefs_8qc.html#a4f0b78b1785821ba47129edb68e70f9e" target="_top" xlink:title="vector">
<polygon fill="none" stroke="black" points="879,-486.5 879,-505.5 923,-505.5 923,-486.5 879,-486.5"/>
<text text-anchor="middle" x="901" y="-493.5" font-family="Helvetica,sans-Serif" font-size="10.00">vector</text>
</a>
</g>
</g>
<!-- Node7&#45;&gt;Node8 -->
<g id="edge9" class="edge"><title>Node7&#45;&gt;Node8</title>
<path fill="none" stroke="midnightblue" d="M779.596,-496C810.851,-496 844.782,-496 868.633,-496"/>
<polygon fill="midnightblue" stroke="midnightblue" points="868.837,-499.5 878.837,-496 868.837,-492.5 868.837,-499.5"/>
</g>
<!-- Node7&#45;&gt;Node9 -->
<g id="edge11" class="edge"><title>Node7&#45;&gt;Node9</title>
<path fill="none" stroke="midnightblue" d="M757.143,-511.062C765.013,-513.926 772.837,-517.23 780,-521 820.836,-542.494 861.493,-578.547 883.42,-599.513"/>
<polygon fill="midnightblue" stroke="midnightblue" points="881.004,-602.045 890.617,-606.5 885.88,-597.023 881.004,-602.045"/>
</g>
<!-- Node9&#45;&gt;Node2 -->
<g id="edge12" class="edge"><title>Node9&#45;&gt;Node2</title>
<path fill="none" stroke="midnightblue" d="M957.104,-606.439C967.343,-603.004 977.483,-598.338 986,-592 1042.81,-549.729 1078.74,-470.058 1093,-433.379"/>
<polygon fill="midnightblue" stroke="midnightblue" points="1096.34,-434.443 1096.59,-423.851 1089.79,-431.977 1096.34,-434.443"/>
</g>
<!-- Node10 -->
<g id="node10" class="node"><title>Node10</title>
<g id="a_node10"><a xlink:href="../../d8/de2/menudefs_8qc.html#a60338c2153150633178af678cf3ca57c" target="_top" xlink:title="spawn">
<polygon fill="none" stroke="black" points="1078.5,-606.5 1078.5,-625.5 1123.5,-625.5 1123.5,-606.5 1078.5,-606.5"/>
<text text-anchor="middle" x="1101" y="-613.5" font-family="Helvetica,sans-Serif" font-size="10.00">spawn</text>
</a>
</g>
</g>
<!-- Node9&#45;&gt;Node10 -->
<g id="edge13" class="edge"><title>Node9&#45;&gt;Node10</title>
<path fill="none" stroke="midnightblue" d="M985.683,-616C1014.89,-616 1045.92,-616 1068.27,-616"/>
<polygon fill="midnightblue" stroke="midnightblue" points="1068.5,-619.5 1078.5,-616 1068.5,-612.5 1068.5,-619.5"/>
</g>
<!-- Node12 -->
<g id="node12" class="node"><title>Node12</title>
<g id="a_node12"><a xlink:href="../../d4/db7/cl__minigames_8qc.html#a494190b92b736511115345e0437821b6" target="_top" xlink:title="deactivate_minigame">
<polygon fill="none" stroke="black" points="643.5,-190.5 643.5,-209.5 752.5,-209.5 752.5,-190.5 643.5,-190.5"/>
<text text-anchor="middle" x="698" y="-197.5" font-family="Helvetica,sans-Serif" font-size="10.00">deactivate_minigame</text>
</a>
</g>
</g>
<!-- Node11&#45;&gt;Node12 -->
<g id="edge15" class="edge"><title>Node11&#45;&gt;Node12</title>
<path fill="none" stroke="midnightblue" d="M515.177,-270.407C536.796,-257.122 578.056,-233.164 616,-219 622.791,-216.465 630.033,-214.194 637.288,-212.18"/>
<polygon fill="midnightblue" stroke="midnightblue" points="638.362,-215.517 647.147,-209.593 636.586,-208.746 638.362,-215.517"/>
</g>
<!-- Node12&#45;&gt;Node1 -->
<g id="edge21" class="edge"><title>Node12&#45;&gt;Node1</title>
<path fill="none" stroke="midnightblue" d="M643.145,-200C534.444,-200 288.148,-200 158.455,-200"/>
<polygon fill="midnightblue" stroke="midnightblue" points="158.18,-196.5 148.18,-200 158.18,-203.5 158.18,-196.5"/>
</g>
<!-- Node12&#45;&gt;Node2 -->
<g id="edge16" class="edge"><title>Node12&#45;&gt;Node2</title>
<path fill="none" stroke="midnightblue" d="M752.839,-209.188C762.137,-211.735 771.529,-214.952 780,-219 798.289,-227.739 798.494,-236.782 816,-247 886.716,-288.276 916.099,-275.359 986,-318 1024,-341.18 1062.4,-376.555 1083.51,-397.27"/>
<polygon fill="midnightblue" stroke="midnightblue" points="1081.16,-399.866 1090.72,-404.435 1086.1,-394.902 1081.16,-399.866"/>
</g>
<!-- Node13 -->
<g id="node13" class="node"><title>Node13</title>
<g id="a_node13"><a xlink:href="../../d8/de2/menudefs_8qc.html#a2c3f32b0e9064cc939b864a94b372584" target="_top" xlink:title="findentity">
<polygon fill="none" stroke="black" points="873,-218.5 873,-237.5 929,-237.5 929,-218.5 873,-218.5"/>
<text text-anchor="middle" x="901" y="-225.5" font-family="Helvetica,sans-Serif" font-size="10.00">findentity</text>
</a>
</g>
</g>
<!-- Node12&#45;&gt;Node13 -->
<g id="edge17" class="edge"><title>Node12&#45;&gt;Node13</title>
<path fill="none" stroke="midnightblue" d="M752.6,-207.467C787.394,-212.314 831.854,-218.507 862.804,-222.819"/>
<polygon fill="midnightblue" stroke="midnightblue" points="862.362,-226.291 872.749,-224.204 863.327,-219.358 862.362,-226.291"/>
</g>
<!-- Node12&#45;&gt;Node14 -->
<g id="edge18" class="edge"><title>Node12&#45;&gt;Node14</title>
<path fill="none" stroke="midnightblue" d="M735.685,-190.417C749.709,-186.42 765.749,-181.439 780,-176 796.531,-169.69 799.271,-164.764 816,-159 823.537,-156.403 831.579,-154.063 839.588,-151.987"/>
<polygon fill="midnightblue" stroke="midnightblue" points="840.437,-155.383 849.305,-149.585 838.757,-148.587 840.437,-155.383"/>
</g>
<!-- Node16 -->
<g id="node16" class="node"><title>Node16</title>
<g id="a_node16"><a xlink:href="../../d4/db7/cl__minigames_8qc.html#a775740889d351d8b6fb7caa3369b35b0" target="_top" xlink:title="minigame_autoclean\l_entity">
<polygon fill="none" stroke="black" points="848,-169 848,-199 954,-199 954,-169 848,-169"/>
<text text-anchor="start" x="856" y="-187" font-family="Helvetica,sans-Serif" font-size="10.00">minigame_autoclean</text>
<text text-anchor="middle" x="901" y="-176" font-family="Helvetica,sans-Serif" font-size="10.00">_entity</text>
</a>
</g>
</g>
<!-- Node12&#45;&gt;Node16 -->
<g id="edge22" class="edge"><title>Node12&#45;&gt;Node16</title>
<path fill="none" stroke="midnightblue" d="M752.6,-195.733C778.793,-193.648 810.465,-191.127 837.727,-188.957"/>
<polygon fill="midnightblue" stroke="midnightblue" points="838.248,-192.427 847.938,-188.144 837.692,-185.449 838.248,-192.427"/>
</g>
<!-- Node14&#45;&gt;Node2 -->
<g id="edge20" class="edge"><title>Node14&#45;&gt;Node2</title>
<path fill="none" stroke="midnightblue" d="M971.743,-149.039C976.971,-151.66 981.824,-154.93 986,-159 1032.63,-204.439 995.082,-241.717 1022,-301 1038.72,-337.818 1067.53,-375.457 1085.06,-396.664"/>
<polygon fill="midnightblue" stroke="midnightblue" points="1082.49,-399.047 1091.61,-404.449 1087.85,-394.542 1082.49,-399.047"/>
</g>
<!-- Node15 -->
<g id="node15" class="node"><title>Node15</title>
<g id="a_node15"><a xlink:href="../../d5/d4a/cl__minigames__hud_8qc.html#ab1c5f554f29bac879163c40cc284d949" target="_top" xlink:title="HUD_MinigameMenu_IsOpened">
<polygon fill="none" stroke="black" points="1022,-130.5 1022,-149.5 1180,-149.5 1180,-130.5 1022,-130.5"/>
<text text-anchor="middle" x="1101" y="-137.5" font-family="Helvetica,sans-Serif" font-size="10.00">HUD_MinigameMenu_IsOpened</text>
</a>
</g>
</g>
<!-- Node14&#45;&gt;Node15 -->
<g id="edge19" class="edge"><title>Node14&#45;&gt;Node15</title>
<path fill="none" stroke="midnightblue" d="M971.529,-140C984.493,-140 998.199,-140 1011.64,-140"/>
<polygon fill="midnightblue" stroke="midnightblue" points="1011.85,-143.5 1021.85,-140 1011.85,-136.5 1011.85,-143.5"/>
</g>
<!-- Node17 -->
<g id="node17" class="node"><title>Node17</title>
<g id="a_node17"><a xlink:href="../../d8/de2/menudefs_8qc.html#abbb0d86741e0056b6c04f7280c185d76" target="_top" xlink:title="ftos">
<polygon fill="none" stroke="black" points="1084.5,-272.5 1084.5,-291.5 1117.5,-291.5 1117.5,-272.5 1084.5,-272.5"/>
<text text-anchor="middle" x="1101" y="-279.5" font-family="Helvetica,sans-Serif" font-size="10.00">ftos</text>
</a>
</g>
</g>
<!-- Node16&#45;&gt;Node17 -->
<g id="edge23" class="edge"><title>Node16&#45;&gt;Node17</title>
<path fill="none" stroke="midnightblue" d="M954.367,-197.111C965.037,-200.466 976.039,-204.439 986,-209 1020.74,-224.91 1057.34,-250.058 1079.42,-266.292"/>
<polygon fill="midnightblue" stroke="midnightblue" points="1077.57,-269.276 1087.68,-272.446 1081.75,-263.664 1077.57,-269.276"/>
</g>
<!-- Node18 -->
<g id="node18" class="node"><title>Node18</title>
<g id="a_node18"><a xlink:href="../../d8/de2/menudefs_8qc.html#a3b90997eb01a44ab00ec2bbbacbaf3e7" target="_top" xlink:title="etof">
<polygon fill="none" stroke="black" points="1084.5,-174.5 1084.5,-193.5 1117.5,-193.5 1117.5,-174.5 1084.5,-174.5"/>
<text text-anchor="middle" x="1101" y="-181.5" font-family="Helvetica,sans-Serif" font-size="10.00">etof</text>
</a>
</g>
</g>
<!-- Node16&#45;&gt;Node18 -->
<g id="edge24" class="edge"><title>Node16&#45;&gt;Node18</title>
<path fill="none" stroke="midnightblue" d="M954.022,-184C992.596,-184 1043.56,-184 1073.94,-184"/>
<polygon fill="midnightblue" stroke="midnightblue" points="1074.14,-187.5 1084.14,-184 1074.14,-180.5 1074.14,-187.5"/>
</g>
<!-- Node19&#45;&gt;Node2 -->
<g id="edge27" class="edge"><title>Node19&#45;&gt;Node2</title>
<path fill="none" stroke="midnightblue" d="M538.143,-379.524C560.647,-384.732 589.772,-390.767 616,-394 786.646,-415.037 993.419,-415.229 1069.78,-414.453"/>
<polygon fill="midnightblue" stroke="midnightblue" points="1070.12,-417.949 1080.08,-414.334 1070.04,-410.95 1070.12,-417.949"/>
</g>
<!-- Node19&#45;&gt;Node5 -->
<g id="edge26" class="edge"><title>Node19&#45;&gt;Node5</title>
<path fill="none" stroke="midnightblue" d="M527.336,-360.404C543.115,-354.455 563.115,-346.205 580,-337 597.103,-327.676 598.729,-321.01 616,-312 623.825,-307.918 632.332,-304.127 640.796,-300.71"/>
<polygon fill="midnightblue" stroke="midnightblue" points="642.243,-303.902 650.293,-297.014 639.705,-297.379 642.243,-303.902"/>
</g>
<!-- Node19&#45;&gt;Node6 -->
<g id="edge33" class="edge"><title>Node19&#45;&gt;Node6</title>
<path fill="none" stroke="midnightblue" d="M507.543,-379.798C533.127,-413.023 615.069,-519.394 616,-520 619.859,-522.514 624.01,-524.711 628.319,-526.633"/>
<polygon fill="midnightblue" stroke="midnightblue" points="627.368,-530.02 637.956,-530.414 629.925,-523.503 627.368,-530.02"/>
</g>
<!-- Node19&#45;&gt;Node7 -->
<g id="edge29" class="edge"><title>Node19&#45;&gt;Node7</title>
<path fill="none" stroke="midnightblue" d="M518.814,-379.664C535.943,-389.027 561.332,-404.372 580,-422 599.648,-440.554 593.979,-455.337 616,-471 618.698,-472.919 621.548,-474.694 624.502,-476.336"/>
<polygon fill="midnightblue" stroke="midnightblue" points="623.114,-479.554 633.627,-480.869 626.229,-473.285 623.114,-479.554"/>
</g>
<!-- Node19&#45;&gt;Node17 -->
<g id="edge32" class="edge"><title>Node19&#45;&gt;Node17</title>
<path fill="none" stroke="midnightblue" d="M540.371,-360.439C562.598,-355.393 590.725,-349.361 616,-345 790.339,-314.92 1002.24,-292.001 1074.47,-284.569"/>
<polygon fill="midnightblue" stroke="midnightblue" points="1074.87,-288.046 1084.47,-283.548 1074.16,-281.082 1074.87,-288.046"/>
</g>
<!-- Node20 -->
<g id="node20" class="node"><title>Node20</title>
<g id="a_node20"><a xlink:href="../../d8/de2/menudefs_8qc.html#ae4cf1ba5867cb0c1c0e74926ff8b0a5c" target="_top" xlink:title="findfloat">
<polygon fill="none" stroke="black" points="672.5,-442.5 672.5,-461.5 723.5,-461.5 723.5,-442.5 672.5,-442.5"/>
<text text-anchor="middle" x="698" y="-449.5" font-family="Helvetica,sans-Serif" font-size="10.00">findfloat</text>
</a>
</g>
</g>
<!-- Node19&#45;&gt;Node20 -->
<g id="edge28" class="edge"><title>Node19&#45;&gt;Node20</title>
<path fill="none" stroke="midnightblue" d="M516.863,-379.614C539.065,-391.993 579.557,-413.619 616,-428 630.821,-433.848 647.649,-439.055 662.112,-443.111"/>
<polygon fill="midnightblue" stroke="midnightblue" points="661.594,-446.598 672.163,-445.854 663.437,-439.845 661.594,-446.598"/>
</g>
<!-- Node19&#45;&gt;Node21 -->
<g id="edge30" class="edge"><title>Node19&#45;&gt;Node21</title>
<path fill="none" stroke="midnightblue" d="M511.843,-360.361C527.869,-347.127 557.09,-322.309 580,-299 597.234,-281.466 594.993,-269.773 616,-257 630.139,-248.403 647.845,-243.696 663.094,-241.118"/>
<polygon fill="midnightblue" stroke="midnightblue" points="663.791,-244.554 673.184,-239.652 662.785,-237.626 663.791,-244.554"/>
</g>
<!-- Node22 -->
<g id="node22" class="node"><title>Node22</title>
<g id="a_node22"><a xlink:href="../../d5/d4a/cl__minigames__hud_8qc.html#a708f9f80831a6dd7ed3cd40944c9b6d8" target="_top" xlink:title="HUD_MinigameMenu_ClickInvite\l_Entry">
<polygon fill="none" stroke="black" points="617,-355 617,-385 779,-385 779,-355 617,-355"/>
<text text-anchor="start" x="625" y="-373" font-family="Helvetica,sans-Serif" font-size="10.00">HUD_MinigameMenu_ClickInvite</text>
<text text-anchor="middle" x="698" y="-362" font-family="Helvetica,sans-Serif" font-size="10.00">_Entry</text>
</a>
</g>
</g>
<!-- Node19&#45;&gt;Node22 -->
<g id="edge31" class="edge"><title>Node19&#45;&gt;Node22</title>
<path fill="none" stroke="midnightblue" d="M580.127,-370C588.951,-370 597.978,-370 606.912,-370"/>
<polygon fill="midnightblue" stroke="midnightblue" points="606.944,-373.5 616.944,-370 606.944,-366.5 606.944,-373.5"/>
</g>
<!-- Node23&#45;&gt;Node3 -->
<g id="edge36" class="edge"><title>Node23&#45;&gt;Node3</title>
<path fill="none" stroke="midnightblue" d="M365.165,-88.1082C484.088,-91.1971 704.254,-96.9157 821.591,-99.9634"/>
<polygon fill="midnightblue" stroke="midnightblue" points="821.841,-103.471 831.928,-100.232 822.023,-96.4733 821.841,-103.471"/>
</g>
<!-- Node25 -->
<g id="node25" class="node"><title>Node25</title>
<g id="a_node25"><a xlink:href="../../d4/db7/cl__minigames_8qc.html#a5f36281bd221f84e9e614d8976cd7dd1" target="_top" xlink:title="minigame_texture_skin">
<polygon fill="none" stroke="black" points="440.5,-0.5 440.5,-19.5 557.5,-19.5 557.5,-0.5 440.5,-0.5"/>
<text text-anchor="middle" x="499" y="-7.5" font-family="Helvetica,sans-Serif" font-size="10.00">minigame_texture_skin</text>
</a>
</g>
</g>
<!-- Node24&#45;&gt;Node25 -->
<g id="edge40" class="edge"><title>Node24&#45;&gt;Node25</title>
<path fill="none" stroke="midnightblue" d="M330.171,-39.8013C360.57,-34.4034 400.778,-27.2636 434.218,-21.3258"/>
<polygon fill="midnightblue" stroke="midnightblue" points="435.126,-24.7195 444.36,-19.5249 433.902,-17.8273 435.126,-24.7195"/>
</g>
<!-- Node26 -->
<g id="node26" class="node"><title>Node26</title>
<g id="a_node26"><a xlink:href="../../d8/de2/menudefs_8qc.html#a66ae6f59199ebf4780d2bf9681f2b0c7" target="_top" xlink:title="precache_pic">
<polygon fill="none" stroke="black" points="462,-38.5 462,-57.5 536,-57.5 536,-38.5 462,-38.5"/>
<text text-anchor="middle" x="499" y="-45.5" font-family="Helvetica,sans-Serif" font-size="10.00">precache_pic</text>
</a>
</g>
</g>
<!-- Node24&#45;&gt;Node26 -->
<g id="edge41" class="edge"><title>Node24&#45;&gt;Node26</title>
<path fill="none" stroke="midnightblue" d="M330.171,-48C366.069,-48 415.646,-48 451.602,-48"/>
<polygon fill="midnightblue" stroke="midnightblue" points="451.825,-51.5001 461.825,-48 451.825,-44.5001 451.825,-51.5001"/>
</g>
</g>
</svg>
        <g id="navigator" transform="translate(0 0)" fill="#404254">
                <rect fill="#f2f5e9" fill-opacity="0.5" stroke="#606060" stroke-width=".5" x="0" y="0" width="60" height="60"/>
                <use id="zoomplus" xlink:href="#zoomPlus" x="17" y="9" onmousedown="handleZoom(evt,'in')"/>
                <use id="zoomminus" xlink:href="#zoomMin" x="42" y="9" onmousedown="handleZoom(evt,'out')"/>
                <use id="reset" xlink:href="#resetDef" x="30" y="36" onmousedown="handleReset()"/>
                <g id="arrowUp" xlink:href="#dirArrow" transform="translate(30 24)" onmousedown="handlePan(0,-1)">
                  <use xlink:href="#rim" fill="#404040">
                        <set attributeName="fill" to="#808080" begin="arrowUp.mouseover" end="arrowUp.mouseout"/>
                  </use>
                  <path fill="none" stroke="white" stroke-width="1.5" d="M0,-3.0v7 M-2.5,-0.5L0,-3.0L2.5,-0.5"/>
                </g>
                <g id="arrowRight" xlink:href="#dirArrow" transform="rotate(90) translate(36 -43)" onmousedown="handlePan(1,0)">
                  <use xlink:href="#rim" fill="#404040">
                        <set attributeName="fill" to="#808080" begin="arrowRight.mouseover" end="arrowRight.mouseout"/>
                  </use>
                  <path fill="none" stroke="white" stroke-width="1.5" d="M0,-3.0v7 M-2.5,-0.5L0,-3.0L2.5,-0.5"/>
                </g>
                <g id="arrowDown" xlink:href="#dirArrow" transform="rotate(180) translate(-30 -48)" onmousedown="handlePan(0,1)">
                  <use xlink:href="#rim" fill="#404040">
                        <set attributeName="fill" to="#808080" begin="arrowDown.mouseover" end="arrowDown.mouseout"/>
                  </use>
                  <path fill="none" stroke="white" stroke-width="1.5" d="M0,-3.0v7 M-2.5,-0.5L0,-3.0L2.5,-0.5"/>
                </g>
                <g id="arrowLeft" xlink:href="#dirArrow" transform="rotate(270) translate(-36 17)" onmousedown="handlePan(-1,0)">
                  <use xlink:href="#rim" fill="#404040">
                        <set attributeName="fill" to="#808080" begin="arrowLeft.mouseover" end="arrowLeft.mouseout"/>
                  </use>
                  <path fill="none" stroke="white" stroke-width="1.5" d="M0,-3.0v7 M-2.5,-0.5L0,-3.0L2.5,-0.5"/>
                </g>
        </g>
        <svg viewBox="0 0 15 15" width="100%" height="30px" preserveAspectRatio="xMaxYMin meet">
         <g id="arrow_out" transform="scale(0.3 0.3)">
          <a xlink:href="cl__minigames_8qc_a9fe5e1ecd85619f47457c738cb30229c_cgraph_org.svg" target="_base">
           <rect id="button" ry="5" rx="5" y="6" x="6" height="38" width="38"
                fill="#f2f5e9" fill-opacity="0.5" stroke="#606060" stroke-width="1.0"/>
           <path id="arrow"
             d="M 11.500037,31.436501 C 11.940474,20.09759 22.043105,11.32322 32.158766,21.979434 L 37.068811,17.246167 C 37.068811,17.246167 37.088388,32 37.088388,32 L 22.160133,31.978069 C 22.160133,31.978069 26.997745,27.140456 26.997745,27.140456 C 18.528582,18.264221 13.291696,25.230495 11.500037,31.436501 z"
             style="fill:#404040;"/>
          </a>
         </g>
        </svg>
</svg>
