<?xml version="1.0" encoding="UTF-8" standalone="no"?>
<!DOCTYPE svg PUBLIC "-//W3C//DTD SVG 1.1//EN"
 "http://www.w3.org/Graphics/SVG/1.1/DTD/svg11.dtd">
<!-- Generated by graphviz version 2.40.1 (20161225.0304)
 -->
<!-- Title: _json_parse_false Pages: 1 -->
<svg width="1301pt" height="123pt"
 viewBox="0.00 0.00 1301.00 123.00" xmlns="http://www.w3.org/2000/svg" xmlns:xlink="http://www.w3.org/1999/xlink">
<g id="graph0" class="graph" transform="scale(1 1) rotate(0) translate(4 119)">
<title>_json_parse_false</title>
<!-- Node30 -->
<g id="node1" class="node">
<title>Node30</title>
<polygon fill="#bfbfbf" stroke="#000000" points="0,-57.5 0,-76.5 104,-76.5 104,-57.5 0,-57.5"/>
<text text-anchor="middle" x="52" y="-64.5" font-family="Helvetica,sans-Serif" font-size="10.00" fill="#000000">_json_parse_false</text>
</g>
<!-- Node31 -->
<g id="node2" class="node">
<title>Node31</title>
<g id="a_node2"><a xlink:href="../../d6/dce/json_8qc.html#adead87cee3e506639f48fd8002425f03" target="_top" xlink:title="_json_parse_value">
<polygon fill="none" stroke="#000000" points="140,-57.5 140,-76.5 247,-76.5 247,-57.5 140,-57.5"/>
<text text-anchor="middle" x="193.5" y="-64.5" font-family="Helvetica,sans-Serif" font-size="10.00" fill="#000000">_json_parse_value</text>
</a>
</g>
</g>
<!-- Node30&#45;&gt;Node31 -->
<g id="edge1" class="edge">
<title>Node30&#45;&gt;Node31</title>
<path fill="none" stroke="#191970" d="M114.3979,-67C122.7776,-67 131.3158,-67 139.5334,-67"/>
<polygon fill="#191970" stroke="#191970" points="114.2874,-63.5001 104.2874,-67 114.2873,-70.5001 114.2874,-63.5001"/>
</g>
<!-- Node32 -->
<g id="node3" class="node">
<title>Node32</title>
<g id="a_node3"><a xlink:href="../../d6/dce/json_8qc.html#a546c5b108abfad43d4a7fc51e594577e" target="_top" xlink:title="_json_parse_pair">
<polygon fill="none" stroke="#000000" points="286.5,-95.5 286.5,-114.5 384.5,-114.5 384.5,-95.5 286.5,-95.5"/>
<text text-anchor="middle" x="335.5" y="-102.5" font-family="Helvetica,sans-Serif" font-size="10.00" fill="#000000">_json_parse_pair</text>
</a>
</g>
</g>
<!-- Node31&#45;&gt;Node32 -->
<g id="edge2" class="edge">
<title>Node31&#45;&gt;Node32</title>
<path fill="none" stroke="#191970" d="M238.9929,-79.1742C258.6284,-84.4287 281.2657,-90.4866 299.6789,-95.4141"/>
<polygon fill="#191970" stroke="#191970" points="239.8975,-75.7931 229.3326,-76.589 238.0879,-82.5552 239.8975,-75.7931"/>
</g>
<!-- Node43 -->
<g id="node14" class="node">
<title>Node43</title>
<g id="a_node14"><a xlink:href="../../d6/dce/json_8qc.html#a39be0737379c77263b5a9bfde329a22c" target="_top" xlink:title="_json_parse_array">
<polygon fill="none" stroke="#000000" points="283,-57.5 283,-76.5 388,-76.5 388,-57.5 283,-57.5"/>
<text text-anchor="middle" x="335.5" y="-64.5" font-family="Helvetica,sans-Serif" font-size="10.00" fill="#000000">_json_parse_array</text>
</a>
</g>
</g>
<!-- Node31&#45;&gt;Node43 -->
<g id="edge19" class="edge">
<title>Node31&#45;&gt;Node43</title>
<path fill="none" stroke="#191970" d="M257.3967,-60.2801C265.8512,-60.2082 274.4413,-60.2651 282.6812,-60.4507"/>
<polygon fill="#191970" stroke="#191970" points="257.131,-56.7836 247.1841,-60.4317 257.235,-63.7828 257.131,-56.7836"/>
</g>
<!-- Node33 -->
<g id="node4" class="node">
<title>Node33</title>
<g id="a_node4"><a xlink:href="../../d6/dce/json_8qc.html#afee78f851a0e0c714cbc2fac22bfac51" target="_top" xlink:title="_json_parse_members">
<polygon fill="none" stroke="#000000" points="424,-76.5 424,-95.5 550,-95.5 550,-76.5 424,-76.5"/>
<text text-anchor="middle" x="487" y="-83.5" font-family="Helvetica,sans-Serif" font-size="10.00" fill="#000000">_json_parse_members</text>
</a>
</g>
</g>
<!-- Node32&#45;&gt;Node33 -->
<g id="edge3" class="edge">
<title>Node32&#45;&gt;Node33</title>
<path fill="none" stroke="#191970" d="M394.8753,-97.5536C404.424,-96.3561 414.3372,-95.1128 423.9681,-93.905"/>
<polygon fill="#191970" stroke="#191970" points="394.1744,-94.114 384.6877,-98.8312 395.0455,-101.0596 394.1744,-94.114"/>
</g>
<!-- Node34 -->
<g id="node5" class="node">
<title>Node34</title>
<g id="a_node5"><a xlink:href="../../d6/dce/json_8qc.html#a98398cae773f760d132dc677942c64bc" target="_top" xlink:title="parse a json object ">
<polygon fill="none" stroke="#000000" points="586,-38.5 586,-57.5 696,-57.5 696,-38.5 586,-38.5"/>
<text text-anchor="middle" x="641" y="-45.5" font-family="Helvetica,sans-Serif" font-size="10.00" fill="#000000">_json_parse_object</text>
</a>
</g>
</g>
<!-- Node33&#45;&gt;Node34 -->
<g id="edge4" class="edge">
<title>Node33&#45;&gt;Node34</title>
<path fill="none" stroke="#191970" d="M535.7937,-73.96C557.3082,-68.6512 582.2318,-62.5012 602.4187,-57.5201"/>
<polygon fill="#191970" stroke="#191970" points="534.731,-70.6172 525.8607,-76.411 536.408,-77.4133 534.731,-70.6172"/>
</g>
<!-- Node34&#45;&gt;Node31 -->
<g id="edge5" class="edge">
<title>Node34&#45;&gt;Node31</title>
<path fill="none" stroke="#191970" d="M575.659,-43.9189C503.7278,-40.3753 384.7768,-37.3159 283,-48 265.3066,-49.8574 245.9641,-53.7263 229.802,-57.4911"/>
<polygon fill="#191970" stroke="#191970" points="575.7572,-47.4284 585.9229,-44.4437 576.1147,-40.4376 575.7572,-47.4284"/>
</g>
<!-- Node35 -->
<g id="node6" class="node">
<title>Node35</title>
<g id="a_node6"><a xlink:href="../../d6/dce/json_8qc.html#a90a3dd158f872c0c5ebaa20b79b47d53" target="_top" xlink:title="TEST">
<polygon fill="none" stroke="#000000" points="744,-76.5 744,-95.5 785,-95.5 785,-76.5 744,-76.5"/>
<text text-anchor="middle" x="764.5" y="-83.5" font-family="Helvetica,sans-Serif" font-size="10.00" fill="#000000">TEST</text>
</a>
</g>
</g>
<!-- Node34&#45;&gt;Node35 -->
<g id="edge6" class="edge">
<title>Node34&#45;&gt;Node35</title>
<path fill="none" stroke="#191970" d="M681.7271,-60.5314C702.5195,-66.9291 726.923,-74.4378 743.8202,-79.637"/>
<polygon fill="#191970" stroke="#191970" points="682.7514,-57.1847 672.1643,-57.589 680.6927,-63.8752 682.7514,-57.1847"/>
</g>
<!-- Node36 -->
<g id="node7" class="node">
<title>Node36</title>
<g id="a_node7"><a xlink:href="../../d0/d44/lib_2matrix_2matrix_8qc.html#a134e449f3a13ea7e215d14ff291ed084" target="_top" xlink:title="MX_Messages_">
<polygon fill="none" stroke="#000000" points="833,-38.5 833,-57.5 923,-57.5 923,-38.5 833,-38.5"/>
<text text-anchor="middle" x="878" y="-45.5" font-family="Helvetica,sans-Serif" font-size="10.00" fill="#000000">MX_Messages_</text>
</a>
</g>
</g>
<!-- Node34&#45;&gt;Node36 -->
<g id="edge7" class="edge">
<title>Node34&#45;&gt;Node36</title>
<path fill="none" stroke="#191970" d="M706.5222,-48C746.7487,-48 797.2314,-48 832.9778,-48"/>
<polygon fill="#191970" stroke="#191970" points="706.2669,-44.5001 696.2669,-48 706.2668,-51.5001 706.2669,-44.5001"/>
</g>
<!-- Node41 -->
<g id="node12" class="node">
<title>Node41</title>
<g id="a_node12"><a xlink:href="../../d0/d44/lib_2matrix_2matrix_8qc.html#a4bb51267cc7dc0a82d1f26e5e3af6cfc" target="_top" xlink:title="MX_Sync_">
<polygon fill="none" stroke="#000000" points="732,-.5 732,-19.5 797,-19.5 797,-.5 732,-.5"/>
<text text-anchor="middle" x="764.5" y="-7.5" font-family="Helvetica,sans-Serif" font-size="10.00" fill="#000000">MX_Sync_</text>
</a>
</g>
</g>
<!-- Node34&#45;&gt;Node41 -->
<g id="edge14" class="edge">
<title>Node34&#45;&gt;Node41</title>
<path fill="none" stroke="#191970" d="M681.7397,-35.4647C698.5405,-30.2952 717.697,-24.4009 733.3457,-19.5859"/>
<polygon fill="#191970" stroke="#191970" points="680.6927,-32.1248 672.1643,-38.411 682.7514,-38.8153 680.6927,-32.1248"/>
</g>
<!-- Node37 -->
<g id="node8" class="node">
<title>Node37</title>
<g id="a_node8"><a xlink:href="../../d0/d44/lib_2matrix_2matrix_8qc.html#a3bd0634b13a3c2a3f42786cd5266689f" target="_top" xlink:title="MX_Nick_">
<polygon fill="none" stroke="#000000" points="969.5,-76.5 969.5,-95.5 1033.5,-95.5 1033.5,-76.5 969.5,-76.5"/>
<text text-anchor="middle" x="1001.5" y="-83.5" font-family="Helvetica,sans-Serif" font-size="10.00" fill="#000000">MX_Nick_</text>
</a>
</g>
</g>
<!-- Node36&#45;&gt;Node37 -->
<g id="edge8" class="edge">
<title>Node36&#45;&gt;Node37</title>
<path fill="none" stroke="#191970" d="M918.7397,-60.5353C935.5405,-65.7048 954.697,-71.5991 970.3457,-76.4141"/>
<polygon fill="#191970" stroke="#191970" points="919.7514,-57.1847 909.1643,-57.589 917.6927,-63.8752 919.7514,-57.1847"/>
</g>
<!-- Node40 -->
<g id="node11" class="node">
<title>Node40</title>
<g id="a_node11"><a xlink:href="../../d5/d95/lib_2matrix_2matrix_8qh.html#a4422bbecfdc42523f559b11b0e0a1695" target="_top" xlink:title="MX_Messages">
<polygon fill="none" stroke="#000000" points="959,-38.5 959,-57.5 1044,-57.5 1044,-38.5 959,-38.5"/>
<text text-anchor="middle" x="1001.5" y="-45.5" font-family="Helvetica,sans-Serif" font-size="10.00" fill="#000000">MX_Messages</text>
</a>
</g>
</g>
<!-- Node36&#45;&gt;Node40 -->
<g id="edge11" class="edge">
<title>Node36&#45;&gt;Node40</title>
<path fill="none" stroke="#191970" d="M933.48,-41.281C941.9376,-41.1971 950.5536,-41.2835 958.6848,-41.5403"/>
<polygon fill="#191970" stroke="#191970" points="933.2197,-37.7851 923.2856,-41.4679 933.3481,-44.7839 933.2197,-37.7851"/>
</g>
<!-- Node38 -->
<g id="node9" class="node">
<title>Node38</title>
<g id="a_node9"><a xlink:href="../../d5/d95/lib_2matrix_2matrix_8qh.html#a0c24e49fdad79752430af7e5213b8474" target="_top" xlink:title="MX_Nick">
<polygon fill="none" stroke="#000000" points="1080,-76.5 1080,-95.5 1139,-95.5 1139,-76.5 1080,-76.5"/>
<text text-anchor="middle" x="1109.5" y="-83.5" font-family="Helvetica,sans-Serif" font-size="10.00" fill="#000000">MX_Nick</text>
</a>
</g>
</g>
<!-- Node37&#45;&gt;Node38 -->
<g id="edge9" class="edge">
<title>Node37&#45;&gt;Node38</title>
<path fill="none" stroke="#191970" d="M1043.9206,-86C1055.9612,-86 1068.8077,-86 1079.9104,-86"/>
<polygon fill="#191970" stroke="#191970" points="1043.6112,-82.5001 1033.6112,-86 1043.6111,-89.5001 1043.6112,-82.5001"/>
</g>
<!-- Node39 -->
<g id="node10" class="node">
<title>Node39</title>
<g id="a_node10"><a xlink:href="../../d8/d86/command_8qc.html#afd66b1b8e65bd101740ff14dd4208db5" target="_top" xlink:title="GENERIC_COMMAND">
<polygon fill="none" stroke="#000000" points="1175,-38.5 1175,-57.5 1293,-57.5 1293,-38.5 1175,-38.5"/>
<text text-anchor="middle" x="1234" y="-45.5" font-family="Helvetica,sans-Serif" font-size="10.00" fill="#000000">GENERIC_COMMAND</text>
</a>
</g>
</g>
<!-- Node38&#45;&gt;Node39 -->
<g id="edge10" class="edge">
<title>Node38&#45;&gt;Node39</title>
<path fill="none" stroke="#191970" d="M1148.8353,-73.994C1166.1551,-68.7077 1186.2254,-62.5818 1202.5306,-57.6051"/>
<polygon fill="#191970" stroke="#191970" points="1147.5474,-70.7277 1139.0048,-76.9945 1149.5909,-77.4227 1147.5474,-70.7277"/>
</g>
<!-- Node40&#45;&gt;Node36 -->
<g id="edge13" class="edge">
<title>Node40&#45;&gt;Node36</title>
<path fill="none" stroke="#191970" d="M948.5693,-54.6884C940.1502,-54.8067 931.5078,-54.7546 923.2856,-54.5321"/>
<polygon fill="#191970" stroke="#191970" points="948.7665,-58.185 958.6848,-54.4597 948.6081,-51.1868 948.7665,-58.185"/>
</g>
<!-- Node40&#45;&gt;Node39 -->
<g id="edge12" class="edge">
<title>Node40&#45;&gt;Node39</title>
<path fill="none" stroke="#191970" d="M1054.4193,-48C1090.334,-48 1137.856,-48 1174.9923,-48"/>
<polygon fill="#191970" stroke="#191970" points="1054.1441,-44.5001 1044.1441,-48 1054.144,-51.5001 1054.1441,-44.5001"/>
</g>
<!-- Node41&#45;&gt;Node36 -->
<g id="edge15" class="edge">
<title>Node41&#45;&gt;Node36</title>
<path fill="none" stroke="#191970" d="M802.809,-22.8259C818.0383,-27.9247 835.2556,-33.6891 849.3683,-38.4141"/>
<polygon fill="#191970" stroke="#191970" points="803.7347,-19.445 793.1408,-19.589 801.5123,-26.0828 803.7347,-19.445"/>
</g>
<!-- Node42 -->
<g id="node13" class="node">
<title>Node42</title>
<g id="a_node13"><a xlink:href="../../d5/d95/lib_2matrix_2matrix_8qh.html#a768b3240e34255af819d0b64f060ab11" target="_top" xlink:title="MX_Sync">
<polygon fill="none" stroke="#000000" points="848,-.5 848,-19.5 908,-19.5 908,-.5 848,-.5"/>
<text text-anchor="middle" x="878" y="-7.5" font-family="Helvetica,sans-Serif" font-size="10.00" fill="#000000">MX_Sync</text>
</a>
</g>
</g>
<!-- Node41&#45;&gt;Node42 -->
<g id="edge16" class="edge">
<title>Node41&#45;&gt;Node42</title>
<path fill="none" stroke="#191970" d="M807.0995,-3.4401C820.6398,-3.0693 835.3282,-3.241 847.8053,-3.9551"/>
<polygon fill="#191970" stroke="#191970" points="806.8819,.0542 797.0245,-3.8294 807.1523,-6.9406 806.8819,.0542"/>
</g>
<!-- Node42&#45;&gt;Node39 -->
<g id="edge17" class="edge">
<title>Node42&#45;&gt;Node39</title>
<path fill="none" stroke="#191970" d="M918.313,-14.3031C980.9732,-20.9915 1102.0676,-33.9173 1174.7036,-41.6706"/>
<polygon fill="#191970" stroke="#191970" points="918.3606,-10.7884 908.0455,-13.2071 917.6175,-17.7488 918.3606,-10.7884"/>
</g>
<!-- Node42&#45;&gt;Node41 -->
<g id="edge18" class="edge">
<title>Node42&#45;&gt;Node41</title>
<path fill="none" stroke="#191970" d="M837.4945,-16.498C824.2136,-16.9207 809.6365,-16.8116 797.0245,-16.1706"/>
<polygon fill="#191970" stroke="#191970" points="837.9687,-19.9806 847.8053,-16.0449 837.6613,-12.9873 837.9687,-19.9806"/>
</g>
<!-- Node43&#45;&gt;Node31 -->
<g id="edge20" class="edge">
<title>Node43&#45;&gt;Node31</title>
<path fill="none" stroke="#191970" d="M272.4893,-73.7119C264.0449,-73.7928 255.4479,-73.7449 247.1841,-73.5683"/>
<polygon fill="#191970" stroke="#191970" points="272.7383,-77.2084 282.6812,-73.5493 272.6266,-70.2093 272.7383,-77.2084"/>
</g>
</g>
</svg>
