<?xml version="1.0" encoding="UTF-8" standalone="no"?>
<!DOCTYPE svg PUBLIC "-//W3C//DTD SVG 1.1//EN"
 "http://www.w3.org/Graphics/SVG/1.1/DTD/svg11.dtd">
<!-- Generated by graphviz version 2.36.0 (20140111.2315)
 -->
<!-- Title: _json_parse_members Pages: 1 -->
<svg width="528pt" height="85pt"
 viewBox="0.00 0.00 528.00 85.00" xmlns="http://www.w3.org/2000/svg" xmlns:xlink="http://www.w3.org/1999/xlink">
<g id="graph0" class="graph" transform="scale(1 1) rotate(0) translate(4 81)">
<title>_json_parse_members</title>
<!-- Node1 -->
<g id="node1" class="node"><title>Node1</title>
<polygon fill="#bfbfbf" stroke="black" points="0.5,-0.5 0.5,-19.5 115.5,-19.5 115.5,-0.5 0.5,-0.5"/>
<text text-anchor="middle" x="58" y="-7.5" font-family="Helvetica,sans-Serif" font-size="10.00">_json_parse_members</text>
</g>
<!-- Node2 -->
<g id="node2" class="node"><title>Node2</title>
<g id="a_node2"><a xlink:href="../../d6/dce/json_8qc.html#a359fbdcf866dd60e6da049cb12649570" target="_top" xlink:title="parse a json object ">
<polygon fill="none" stroke="black" points="152.5,-19.5 152.5,-38.5 253.5,-38.5 253.5,-19.5 152.5,-19.5"/>
<text text-anchor="middle" x="203" y="-26.5" font-family="Helvetica,sans-Serif" font-size="10.00">_json_parse_object</text>
</a>
</g>
</g>
<!-- Node1&#45;&gt;Node2 -->
<g id="edge1" class="edge"><title>Node1&#45;&gt;Node2</title>
<path fill="none" stroke="midnightblue" d="M125.613,-18.8507C134.622,-20.0476 143.734,-21.2583 152.374,-22.4064"/>
<polygon fill="midnightblue" stroke="midnightblue" points="125.891,-15.357 115.517,-17.5093 124.969,-22.296 125.891,-15.357"/>
</g>
<!-- Node3 -->
<g id="node3" class="node"><title>Node3</title>
<g id="a_node3"><a xlink:href="../../d6/dce/json_8qc.html#a7c960e40b4a2c8bffcefd66d9f8db63b" target="_top" xlink:title="_json_parse_value">
<polygon fill="none" stroke="black" points="290,-57.5 290,-76.5 388,-76.5 388,-57.5 290,-57.5"/>
<text text-anchor="middle" x="339" y="-64.5" font-family="Helvetica,sans-Serif" font-size="10.00">_json_parse_value</text>
</a>
</g>
</g>
<!-- Node2&#45;&gt;Node3 -->
<g id="edge2" class="edge"><title>Node2&#45;&gt;Node3</title>
<path fill="none" stroke="midnightblue" d="M247.438,-41.3183C265.849,-46.5393 286.98,-52.5316 304.197,-57.4141"/>
<polygon fill="midnightblue" stroke="midnightblue" points="248.389,-37.9501 237.814,-38.589 246.48,-44.6845 248.389,-37.9501"/>
</g>
<!-- Node6 -->
<g id="node6" class="node"><title>Node6</title>
<g id="a_node6"><a xlink:href="../../d6/dce/json_8qc.html#a90a3dd158f872c0c5ebaa20b79b47d53" target="_top" xlink:title="TEST">
<polygon fill="none" stroke="black" points="318,-19.5 318,-38.5 360,-38.5 360,-19.5 318,-19.5"/>
<text text-anchor="middle" x="339" y="-26.5" font-family="Helvetica,sans-Serif" font-size="10.00">TEST</text>
</a>
</g>
</g>
<!-- Node2&#45;&gt;Node6 -->
<g id="edge7" class="edge"><title>Node2&#45;&gt;Node6</title>
<path fill="none" stroke="midnightblue" d="M263.557,-29C282.972,-29 303.231,-29 317.704,-29"/>
<polygon fill="midnightblue" stroke="midnightblue" points="263.516,-25.5001 253.516,-29 263.516,-32.5001 263.516,-25.5001"/>
</g>
<!-- Node4 -->
<g id="node4" class="node"><title>Node4</title>
<g id="a_node4"><a xlink:href="../../d6/dce/json_8qc.html#a1538d23bab56eff6e62f5f828a8fff61" target="_top" xlink:title="_json_parse_pair">
<polygon fill="none" stroke="black" points="427,-0.5 427,-19.5 517,-19.5 517,-0.5 427,-0.5"/>
<text text-anchor="middle" x="472" y="-7.5" font-family="Helvetica,sans-Serif" font-size="10.00">_json_parse_pair</text>
</a>
</g>
</g>
<!-- Node3&#45;&gt;Node4 -->
<g id="edge3" class="edge"><title>Node3&#45;&gt;Node4</title>
<path fill="none" stroke="midnightblue" d="M374.324,-53.667C378.937,-51.8012 383.595,-49.8788 388,-48 409.721,-38.7364 434.274,-27.3833 451.005,-19.5112"/>
<polygon fill="midnightblue" stroke="midnightblue" points="373.003,-50.4258 365.014,-57.3854 375.599,-56.9265 373.003,-50.4258"/>
</g>
<!-- Node5 -->
<g id="node5" class="node"><title>Node5</title>
<g id="a_node5"><a xlink:href="../../d6/dce/json_8qc.html#ad734dbbb42baa4756440fde5cf210c20" target="_top" xlink:title="_json_parse_array">
<polygon fill="none" stroke="black" points="424,-57.5 424,-76.5 520,-76.5 520,-57.5 424,-57.5"/>
<text text-anchor="middle" x="472" y="-64.5" font-family="Helvetica,sans-Serif" font-size="10.00">_json_parse_array</text>
</a>
</g>
</g>
<!-- Node3&#45;&gt;Node5 -->
<g id="edge5" class="edge"><title>Node3&#45;&gt;Node5</title>
<path fill="none" stroke="midnightblue" d="M398.047,-60.289C406.675,-60.1984 415.477,-60.2657 423.845,-60.491"/>
<polygon fill="midnightblue" stroke="midnightblue" points="397.972,-56.7897 388.036,-60.4679 398.097,-63.7886 397.972,-56.7897"/>
</g>
<!-- Node4&#45;&gt;Node1 -->
<g id="edge4" class="edge"><title>Node4&#45;&gt;Node1</title>
<path fill="none" stroke="midnightblue" d="M416.593,-10C338.493,-10 195.289,-10 115.854,-10"/>
<polygon fill="midnightblue" stroke="midnightblue" points="416.707,-13.5001 426.707,-10 416.707,-6.5001 416.707,-13.5001"/>
</g>
<!-- Node5&#45;&gt;Node3 -->
<g id="edge6" class="edge"><title>Node5&#45;&gt;Node3</title>
<path fill="none" stroke="midnightblue" d="M413.578,-73.7042C405.052,-73.8014 396.342,-73.744 388.036,-73.5321"/>
<polygon fill="midnightblue" stroke="midnightblue" points="413.913,-77.1985 423.845,-73.509 413.78,-70.1998 413.913,-77.1985"/>
</g>
</g>
</svg>
