<?xml version="1.0" encoding="UTF-8" standalone="no"?>
<!DOCTYPE svg PUBLIC "-//W3C//DTD SVG 1.1//EN"
 "http://www.w3.org/Graphics/SVG/1.1/DTD/svg11.dtd">
<!-- Generated by graphviz version 2.36.0 (20140111.2315)
 -->
<!-- Title: spawnfunc Pages: 1 -->
<svg width="450pt" height="294pt"
 viewBox="0.00 0.00 450.00 294.00" xmlns="http://www.w3.org/2000/svg" xmlns:xlink="http://www.w3.org/1999/xlink">
<g id="graph0" class="graph" transform="scale(1 1) rotate(0) translate(4 290)">
<title>spawnfunc</title>
<!-- Node1 -->
<g id="node1" class="node"><title>Node1</title>
<polygon fill="#bfbfbf" stroke="black" points="0,-133.5 0,-152.5 64,-152.5 64,-133.5 0,-133.5"/>
<text text-anchor="middle" x="32" y="-140.5" font-family="Helvetica,sans-Serif" font-size="10.00">spawnfunc</text>
</g>
<!-- Node2 -->
<g id="node2" class="node"><title>Node2</title>
<g id="a_node2"><a xlink:href="../../d0/d41/spawnpoints_8qc.html#abb661914e057e88f5191457801e406ab" target="_top" xlink:title="relocate_spawnpoint">
<polygon fill="none" stroke="black" points="100,-133.5 100,-152.5 206,-152.5 206,-133.5 100,-133.5"/>
<text text-anchor="middle" x="153" y="-140.5" font-family="Helvetica,sans-Serif" font-size="10.00">relocate_spawnpoint</text>
</a>
</g>
</g>
<!-- Node1&#45;&gt;Node2 -->
<g id="edge1" class="edge"><title>Node1&#45;&gt;Node2</title>
<path fill="none" stroke="midnightblue" d="M64.2658,-143C72.0861,-143 80.7534,-143 89.5073,-143"/>
<polygon fill="midnightblue" stroke="midnightblue" points="89.7778,-146.5 99.7778,-143 89.7778,-139.5 89.7778,-146.5"/>
</g>
<!-- Node3 -->
<g id="node3" class="node"><title>Node3</title>
<g id="a_node3"><a xlink:href="../../d4/d0c/csprogsdefs_8qc.html#acbb54a239d76062465dccbc6a6c6e464" target="_top" xlink:title="entity">
<polygon fill="none" stroke="black" points="270.5,-266.5 270.5,-285.5 311.5,-285.5 311.5,-266.5 270.5,-266.5"/>
<text text-anchor="middle" x="291" y="-273.5" font-family="Helvetica,sans-Serif" font-size="10.00">entity</text>
</a>
</g>
</g>
<!-- Node2&#45;&gt;Node3 -->
<g id="edge2" class="edge"><title>Node2&#45;&gt;Node3</title>
<path fill="none" stroke="midnightblue" d="M159.055,-152.662C170.809,-174.265 202.046,-226.931 242,-257 247.451,-261.103 253.905,-264.445 260.283,-267.117"/>
<polygon fill="midnightblue" stroke="midnightblue" points="259.495,-270.559 270.088,-270.777 261.943,-264.001 259.495,-270.559"/>
</g>
<!-- Node4 -->
<g id="node4" class="node"><title>Node4</title>
<g id="a_node4"><a xlink:href="../../d8/de2/menudefs_8qc.html#abbb0d86741e0056b6c04f7280c185d76" target="_top" xlink:title="ftos">
<polygon fill="none" stroke="black" points="274.5,-228.5 274.5,-247.5 307.5,-247.5 307.5,-228.5 274.5,-228.5"/>
<text text-anchor="middle" x="291" y="-235.5" font-family="Helvetica,sans-Serif" font-size="10.00">ftos</text>
</a>
</g>
</g>
<!-- Node2&#45;&gt;Node4 -->
<g id="edge3" class="edge"><title>Node2&#45;&gt;Node4</title>
<path fill="none" stroke="midnightblue" d="M162.937,-152.576C177.983,-168.242 209.885,-199.547 242,-219 249.036,-223.262 257.196,-226.91 264.771,-229.837"/>
<polygon fill="midnightblue" stroke="midnightblue" points="263.652,-233.154 274.247,-233.259 266.031,-226.57 263.652,-233.154"/>
</g>
<!-- Node5 -->
<g id="node5" class="node"><title>Node5</title>
<g id="a_node5"><a xlink:href="../../d8/de2/menudefs_8qc.html#a92abfb3919bea2ad0405516d4a4b652b" target="_top" xlink:title="objerror">
<polygon fill="none" stroke="black" points="266.5,-190.5 266.5,-209.5 315.5,-209.5 315.5,-190.5 266.5,-190.5"/>
<text text-anchor="middle" x="291" y="-197.5" font-family="Helvetica,sans-Serif" font-size="10.00">objerror</text>
</a>
</g>
</g>
<!-- Node2&#45;&gt;Node5 -->
<g id="edge4" class="edge"><title>Node2&#45;&gt;Node5</title>
<path fill="none" stroke="midnightblue" d="M175.62,-152.556C193.385,-160.355 219.242,-171.585 242,-181 246.744,-182.963 251.768,-184.998 256.709,-186.976"/>
<polygon fill="midnightblue" stroke="midnightblue" points="255.429,-190.233 266.015,-190.673 258.014,-183.728 255.429,-190.233"/>
</g>
<!-- Node6 -->
<g id="node6" class="node"><title>Node6</title>
<g id="a_node6"><a xlink:href="../../d8/de2/menudefs_8qc.html#a663ea6aa3c4923b3e065cf91cc319f1b" target="_top" xlink:title="random">
<polygon fill="none" stroke="black" points="266.5,-152.5 266.5,-171.5 315.5,-171.5 315.5,-152.5 266.5,-152.5"/>
<text text-anchor="middle" x="291" y="-159.5" font-family="Helvetica,sans-Serif" font-size="10.00">random</text>
</a>
</g>
</g>
<!-- Node2&#45;&gt;Node6 -->
<g id="edge5" class="edge"><title>Node2&#45;&gt;Node6</title>
<path fill="none" stroke="midnightblue" d="M206.192,-150.292C222.99,-152.638 241.151,-155.175 256.258,-157.286"/>
<polygon fill="midnightblue" stroke="midnightblue" points="255.786,-160.754 266.174,-158.671 256.755,-153.821 255.786,-160.754"/>
</g>
<!-- Node7 -->
<g id="node7" class="node"><title>Node7</title>
<g id="a_node7"><a xlink:href="../../d0/d41/spawnpoints_8qc.html#ae47757443ac52584f873fc96e53c756c" target="_top" xlink:title="SpawnPoint_Send">
<polygon fill="none" stroke="black" points="242.5,-114.5 242.5,-133.5 339.5,-133.5 339.5,-114.5 242.5,-114.5"/>
<text text-anchor="middle" x="291" y="-121.5" font-family="Helvetica,sans-Serif" font-size="10.00">SpawnPoint_Send</text>
</a>
</g>
</g>
<!-- Node2&#45;&gt;Node7 -->
<g id="edge6" class="edge"><title>Node2&#45;&gt;Node7</title>
<path fill="none" stroke="midnightblue" d="M206.192,-135.708C214.699,-134.52 223.555,-133.283 232.187,-132.077"/>
<polygon fill="midnightblue" stroke="midnightblue" points="232.763,-135.53 242.183,-130.68 231.795,-128.598 232.763,-135.53"/>
</g>
<!-- Node10 -->
<g id="node10" class="node"><title>Node10</title>
<g id="a_node10"><a xlink:href="../../d0/d41/spawnpoints_8qc.html#a0accdd5b9d6078c8bba127799e0364e0" target="_top" xlink:title="spawnpoint_think">
<polygon fill="none" stroke="black" points="245,-76.5 245,-95.5 337,-95.5 337,-76.5 245,-76.5"/>
<text text-anchor="middle" x="291" y="-83.5" font-family="Helvetica,sans-Serif" font-size="10.00">spawnpoint_think</text>
</a>
</g>
</g>
<!-- Node2&#45;&gt;Node10 -->
<g id="edge9" class="edge"><title>Node2&#45;&gt;Node10</title>
<path fill="none" stroke="midnightblue" d="M175.62,-133.444C193.385,-125.645 219.242,-114.415 242,-105 246.524,-103.128 251.303,-101.19 256.021,-99.2997"/>
<polygon fill="midnightblue" stroke="midnightblue" points="257.524,-102.469 265.523,-95.5212 254.937,-95.9644 257.524,-102.469"/>
</g>
<!-- Node11 -->
<g id="node11" class="node"><title>Node11</title>
<g id="a_node11"><a xlink:href="../../d0/d41/spawnpoints_8qc.html#a2a7af8ac3ec4cc48b002997881b2a491" target="_top" xlink:title="spawnpoint_use">
<polygon fill="none" stroke="black" points="247.5,-38.5 247.5,-57.5 334.5,-57.5 334.5,-38.5 247.5,-38.5"/>
<text text-anchor="middle" x="291" y="-45.5" font-family="Helvetica,sans-Serif" font-size="10.00">spawnpoint_use</text>
</a>
</g>
</g>
<!-- Node2&#45;&gt;Node11 -->
<g id="edge10" class="edge"><title>Node2&#45;&gt;Node11</title>
<path fill="none" stroke="midnightblue" d="M162.937,-133.424C177.983,-117.758 209.885,-86.4534 242,-67 245.176,-65.0759 248.582,-63.2768 252.06,-61.6128"/>
<polygon fill="midnightblue" stroke="midnightblue" points="253.585,-64.7654 261.325,-57.5301 250.763,-58.3597 253.585,-64.7654"/>
</g>
<!-- Node12 -->
<g id="node12" class="node"><title>Node12</title>
<g id="a_node12"><a xlink:href="../../d8/de2/menudefs_8qc.html#ab0df318f2dece7f798ff4061cd67f9d2" target="_top" xlink:title="vtos">
<polygon fill="none" stroke="black" points="273.5,-0.5 273.5,-19.5 308.5,-19.5 308.5,-0.5 273.5,-0.5"/>
<text text-anchor="middle" x="291" y="-7.5" font-family="Helvetica,sans-Serif" font-size="10.00">vtos</text>
</a>
</g>
</g>
<!-- Node2&#45;&gt;Node12 -->
<g id="edge11" class="edge"><title>Node2&#45;&gt;Node12</title>
<path fill="none" stroke="midnightblue" d="M159.055,-133.338C170.809,-111.735 202.046,-59.0691 242,-29 248.473,-24.1285 256.359,-20.3284 263.853,-17.4505"/>
<polygon fill="midnightblue" stroke="midnightblue" points="265.014,-20.7526 273.328,-14.1857 262.733,-14.1345 265.014,-20.7526"/>
</g>
<!-- Node8 -->
<g id="node8" class="node"><title>Node8</title>
<g id="a_node8"><a xlink:href="../../d8/de2/menudefs_8qc.html#abd23315350cd01304b6bd77c4c5c07e6" target="_top" xlink:title="WriteByte">
<polygon fill="none" stroke="black" points="379,-133.5 379,-152.5 439,-152.5 439,-133.5 379,-133.5"/>
<text text-anchor="middle" x="409" y="-140.5" font-family="Helvetica,sans-Serif" font-size="10.00">WriteByte</text>
</a>
</g>
</g>
<!-- Node7&#45;&gt;Node8 -->
<g id="edge7" class="edge"><title>Node7&#45;&gt;Node8</title>
<path fill="none" stroke="midnightblue" d="M339.516,-131.783C349.154,-133.361 359.191,-135.005 368.515,-136.533"/>
<polygon fill="midnightblue" stroke="midnightblue" points="368.245,-140.035 378.679,-138.197 369.376,-133.127 368.245,-140.035"/>
</g>
<!-- Node9 -->
<g id="node9" class="node"><title>Node9</title>
<g id="a_node9"><a xlink:href="../../d8/de2/menudefs_8qc.html#aa8c03f058fec0c574e1bba13327f5a5b" target="_top" xlink:title="WriteCoord">
<polygon fill="none" stroke="black" points="376,-95.5 376,-114.5 442,-114.5 442,-95.5 376,-95.5"/>
<text text-anchor="middle" x="409" y="-102.5" font-family="Helvetica,sans-Serif" font-size="10.00">WriteCoord</text>
</a>
</g>
</g>
<!-- Node7&#45;&gt;Node9 -->
<g id="edge8" class="edge"><title>Node7&#45;&gt;Node9</title>
<path fill="none" stroke="midnightblue" d="M339.516,-116.217C348.235,-114.789 357.28,-113.308 365.829,-111.907"/>
<polygon fill="midnightblue" stroke="midnightblue" points="366.652,-115.319 375.955,-110.249 365.52,-108.411 366.652,-115.319"/>
</g>
</g>
</svg>
