<?xml version="1.0" encoding="UTF-8" standalone="no"?>
<!DOCTYPE svg PUBLIC "-//W3C//DTD SVG 1.1//EN"
 "http://www.w3.org/Graphics/SVG/1.1/DTD/svg11.dtd">
<!-- Generated by graphviz version 2.40.1 (20161225.0304)
 -->
<!-- Title: spawnpoint_reset Pages: 1 -->
<svg width="370pt" height="28pt"
 viewBox="0.00 0.00 370.00 28.00" xmlns="http://www.w3.org/2000/svg" xmlns:xlink="http://www.w3.org/1999/xlink">
<g id="graph0" class="graph" transform="scale(1 1) rotate(0) translate(4 24)">
<title>spawnpoint_reset</title>
<!-- Node1215 -->
<g id="node1" class="node">
<title>Node1215</title>
<polygon fill="#bfbfbf" stroke="#000000" points="0,-.5 0,-19.5 103,-19.5 103,-.5 0,-.5"/>
<text text-anchor="middle" x="51.5" y="-7.5" font-family="Helvetica,sans-Serif" font-size="10.00" fill="#000000">spawnpoint_reset</text>
</g>
<!-- Node1216 -->
<g id="node2" class="node">
<title>Node1216</title>
<g id="a_node2"><a xlink:href="../../d0/d41/spawnpoints_8qc.html#abb661914e057e88f5191457801e406ab" target="_top" xlink:title="relocate_spawnpoint">
<polygon fill="none" stroke="#000000" points="139,-.5 139,-19.5 257,-19.5 257,-.5 139,-.5"/>
<text text-anchor="middle" x="198" y="-7.5" font-family="Helvetica,sans-Serif" font-size="10.00" fill="#000000">relocate_spawnpoint</text>
</a>
</g>
</g>
<!-- Node1215&#45;&gt;Node1216 -->
<g id="edge1" class="edge">
<title>Node1215&#45;&gt;Node1216</title>
<path fill="none" stroke="#191970" d="M113.3173,-10C121.7623,-10 130.4153,-10 138.812,-10"/>
<polygon fill="#191970" stroke="#191970" points="113.1505,-6.5001 103.1504,-10 113.1504,-13.5001 113.1505,-6.5001"/>
</g>
<!-- Node1217 -->
<g id="node3" class="node">
<title>Node1217</title>
<g id="a_node3"><a xlink:href="../../d4/dd1/spawnpoints_8qh.html#a572fb1292ba23838d08e19ed54227679" target="_top" xlink:title="spawnfunc">
<polygon fill="none" stroke="#000000" points="293,-.5 293,-19.5 362,-19.5 362,-.5 293,-.5"/>
<text text-anchor="middle" x="327.5" y="-7.5" font-family="Helvetica,sans-Serif" font-size="10.00" fill="#000000">spawnfunc</text>
</a>
</g>
</g>
<!-- Node1216&#45;&gt;Node1217 -->
<g id="edge2" class="edge">
<title>Node1216&#45;&gt;Node1217</title>
<path fill="none" stroke="#191970" d="M267.1594,-10C276.0896,-10 284.9075,-10 292.9293,-10"/>
<polygon fill="#191970" stroke="#191970" points="267.0656,-6.5001 257.0656,-10 267.0656,-13.5001 267.0656,-6.5001"/>
</g>
</g>
</svg>
