<?xml version="1.0" encoding="UTF-8" standalone="no"?>
<!DOCTYPE svg PUBLIC "-//W3C//DTD SVG 1.1//EN"
 "http://www.w3.org/Graphics/SVG/1.1/DTD/svg11.dtd">
<!-- Generated by graphviz version 2.38.0 (20140413.2041)
 -->
<!-- Title: menu/xonotic/playlist.qh Pages: 1 -->
<svg width="651pt" height="263pt"
 viewBox="0.00 0.00 651.00 263.00" xmlns="http://www.w3.org/2000/svg" xmlns:xlink="http://www.w3.org/1999/xlink">
<g id="graph0" class="graph" transform="scale(1 1) rotate(0) translate(4 259)">
<title>menu/xonotic/playlist.qh</title>
<!-- Node1 -->
<g id="node1" class="node"><title>Node1</title>
<polygon fill="#bfbfbf" stroke="black" points="282,-235.5 282,-254.5 415,-254.5 415,-235.5 282,-235.5"/>
<text text-anchor="middle" x="348.5" y="-242.5" font-family="Helvetica,sans-Serif" font-size="10.00">menu/xonotic/playlist.qh</text>
</g>
<!-- Node2 -->
<g id="node2" class="node"><title>Node2</title>
<g id="a_node2"><a xlink:href="../../d6/d3e/dialog__multiplayer__media__musicplayer_8qc.html" target="_top" xlink:title="menu/xonotic/dialog\l_multiplayer_media_musicplayer.qc">
<polygon fill="none" stroke="black" points="0,-168.5 0,-198.5 187,-198.5 187,-168.5 0,-168.5"/>
<text text-anchor="start" x="8" y="-186.5" font-family="Helvetica,sans-Serif" font-size="10.00">menu/xonotic/dialog</text>
<text text-anchor="middle" x="93.5" y="-175.5" font-family="Helvetica,sans-Serif" font-size="10.00">_multiplayer_media_musicplayer.qc</text>
</a>
</g>
</g>
<!-- Node1&#45;&gt;Node2 -->
<g id="edge1" class="edge"><title>Node1&#45;&gt;Node2</title>
<path fill="none" stroke="midnightblue" d="M302.081,-233.169C260.415,-223.447 199.004,-209.118 153.598,-198.523"/>
<polygon fill="midnightblue" stroke="midnightblue" points="301.431,-236.611 311.965,-235.475 303.022,-229.794 301.431,-236.611"/>
</g>
<!-- Node6 -->
<g id="node6" class="node"><title>Node6</title>
<g id="a_node6"><a xlink:href="../../d8/d29/playlist_8qc.html" target="_top" xlink:title="menu/xonotic/playlist.qc">
<polygon fill="none" stroke="black" points="205.5,-174 205.5,-193 337.5,-193 337.5,-174 205.5,-174"/>
<text text-anchor="middle" x="271.5" y="-181" font-family="Helvetica,sans-Serif" font-size="10.00">menu/xonotic/playlist.qc</text>
</a>
</g>
</g>
<!-- Node1&#45;&gt;Node6 -->
<g id="edge5" class="edge"><title>Node1&#45;&gt;Node6</title>
<path fill="none" stroke="midnightblue" d="M329.468,-229.294C314.698,-217.88 294.739,-202.458 282.512,-193.009"/>
<polygon fill="midnightblue" stroke="midnightblue" points="327.415,-232.13 337.468,-235.475 331.695,-226.591 327.415,-232.13"/>
</g>
<!-- Node7 -->
<g id="node7" class="node"><title>Node7</title>
<g id="a_node7"><a xlink:href="../../d9/dc5/soundlist_8qc.html" target="_top" xlink:title="menu/xonotic/soundlist.qc">
<polygon fill="none" stroke="black" points="355.5,-174 355.5,-193 497.5,-193 497.5,-174 355.5,-174"/>
<text text-anchor="middle" x="426.5" y="-181" font-family="Helvetica,sans-Serif" font-size="10.00">menu/xonotic/soundlist.qc</text>
</a>
</g>
</g>
<!-- Node1&#45;&gt;Node7 -->
<g id="edge7" class="edge"><title>Node1&#45;&gt;Node7</title>
<path fill="none" stroke="midnightblue" d="M367.779,-229.294C382.741,-217.88 402.959,-202.458 415.345,-193.009"/>
<polygon fill="midnightblue" stroke="midnightblue" points="365.504,-226.627 359.675,-235.475 369.749,-232.193 365.504,-226.627"/>
</g>
<!-- Node8 -->
<g id="node8" class="node"><title>Node8</title>
<g id="a_node8"><a xlink:href="../../d5/d14/menu_2xonotic_2__mod_8qh.html" target="_top" xlink:title="menu/xonotic/_mod.qh">
<polygon fill="none" stroke="black" points="516,-174 516,-193 643,-193 643,-174 516,-174"/>
<text text-anchor="middle" x="579.5" y="-181" font-family="Helvetica,sans-Serif" font-size="10.00">menu/xonotic/_mod.qh</text>
</a>
</g>
</g>
<!-- Node1&#45;&gt;Node8 -->
<g id="edge9" class="edge"><title>Node1&#45;&gt;Node8</title>
<path fill="none" stroke="midnightblue" d="M391.328,-232.968C436.184,-221.415 505.668,-203.517 546.465,-193.009"/>
<polygon fill="midnightblue" stroke="midnightblue" points="390.408,-229.591 381.597,-235.475 392.154,-236.37 390.408,-229.591"/>
</g>
<!-- Node3 -->
<g id="node3" class="node"><title>Node3</title>
<g id="a_node3"><a xlink:href="../../d5/d74/menu_2xonotic_2__mod_8inc.html" target="_top" xlink:title="menu/xonotic/_mod.inc">
<polygon fill="none" stroke="black" points="207.5,-112.5 207.5,-131.5 335.5,-131.5 335.5,-112.5 207.5,-112.5"/>
<text text-anchor="middle" x="271.5" y="-119.5" font-family="Helvetica,sans-Serif" font-size="10.00">menu/xonotic/_mod.inc</text>
</a>
</g>
</g>
<!-- Node2&#45;&gt;Node3 -->
<g id="edge2" class="edge"><title>Node2&#45;&gt;Node3</title>
<path fill="none" stroke="midnightblue" d="M145.201,-165.218C178.243,-154.173 219.659,-140.329 245.859,-131.571"/>
<polygon fill="midnightblue" stroke="midnightblue" points="144.058,-161.91 135.684,-168.399 146.277,-168.548 144.058,-161.91"/>
</g>
<!-- Node4 -->
<g id="node4" class="node"><title>Node4</title>
<g id="a_node4"><a xlink:href="../../dc/d05/menu_2__mod_8inc.html" target="_top" xlink:title="menu/_mod.inc">
<polygon fill="none" stroke="black" points="226,-56.5 226,-75.5 317,-75.5 317,-56.5 226,-56.5"/>
<text text-anchor="middle" x="271.5" y="-63.5" font-family="Helvetica,sans-Serif" font-size="10.00">menu/_mod.inc</text>
</a>
</g>
</g>
<!-- Node3&#45;&gt;Node4 -->
<g id="edge3" class="edge"><title>Node3&#45;&gt;Node4</title>
<path fill="none" stroke="midnightblue" d="M271.5,-101.805C271.5,-92.9102 271.5,-82.7798 271.5,-75.7511"/>
<polygon fill="midnightblue" stroke="midnightblue" points="268,-102.083 271.5,-112.083 275,-102.083 268,-102.083"/>
</g>
<!-- Node5 -->
<g id="node5" class="node"><title>Node5</title>
<g id="a_node5"><a xlink:href="../../d3/d70/menu_2progs_8inc.html" target="_top" xlink:title="menu/progs.inc">
<polygon fill="none" stroke="black" points="226,-0.5 226,-19.5 317,-19.5 317,-0.5 226,-0.5"/>
<text text-anchor="middle" x="271.5" y="-7.5" font-family="Helvetica,sans-Serif" font-size="10.00">menu/progs.inc</text>
</a>
</g>
</g>
<!-- Node4&#45;&gt;Node5 -->
<g id="edge4" class="edge"><title>Node4&#45;&gt;Node5</title>
<path fill="none" stroke="midnightblue" d="M271.5,-45.8045C271.5,-36.9102 271.5,-26.7798 271.5,-19.7511"/>
<polygon fill="midnightblue" stroke="midnightblue" points="268,-46.083 271.5,-56.083 275,-46.083 268,-46.083"/>
</g>
<!-- Node6&#45;&gt;Node3 -->
<g id="edge6" class="edge"><title>Node6&#45;&gt;Node3</title>
<path fill="none" stroke="midnightblue" d="M271.5,-163.817C271.5,-152.996 271.5,-139.898 271.5,-131.509"/>
<polygon fill="midnightblue" stroke="midnightblue" points="268,-163.975 271.5,-173.975 275,-163.975 268,-163.975"/>
</g>
<!-- Node7&#45;&gt;Node3 -->
<g id="edge8" class="edge"><title>Node7&#45;&gt;Node3</title>
<path fill="none" stroke="midnightblue" d="M394.673,-170.282C364.552,-158.72 320.121,-141.664 293.667,-131.509"/>
<polygon fill="midnightblue" stroke="midnightblue" points="393.702,-173.659 404.292,-173.975 396.211,-167.124 393.702,-173.659"/>
</g>
<!-- Node9 -->
<g id="node9" class="node"><title>Node9</title>
<g id="a_node9"><a xlink:href="../../db/d31/menu_2__mod_8qh.html" target="_top" xlink:title="menu/_mod.qh">
<polygon fill="none" stroke="black" points="535,-112.5 535,-131.5 624,-131.5 624,-112.5 535,-112.5"/>
<text text-anchor="middle" x="579.5" y="-119.5" font-family="Helvetica,sans-Serif" font-size="10.00">menu/_mod.qh</text>
</a>
</g>
</g>
<!-- Node8&#45;&gt;Node9 -->
<g id="edge10" class="edge"><title>Node8&#45;&gt;Node9</title>
<path fill="none" stroke="midnightblue" d="M579.5,-163.817C579.5,-152.996 579.5,-139.898 579.5,-131.509"/>
<polygon fill="midnightblue" stroke="midnightblue" points="576,-163.975 579.5,-173.975 583,-163.975 576,-163.975"/>
</g>
</g>
</svg>
