<?xml version="1.0" encoding="UTF-8" standalone="no"?>
<!DOCTYPE svg PUBLIC "-//W3C//DTD SVG 1.1//EN"
 "http://www.w3.org/Graphics/SVG/1.1/DTD/svg11.dtd">
<!-- Generated by graphviz version 2.36.0 (20140111.2315)
 -->
<!-- Title: XonoticRootDialog Pages: 1 -->
<!--zoomable 684 -->
<svg id="main" version="1.1" xmlns="http://www.w3.org/2000/svg" xmlns:xlink="http://www.w3.org/1999/xlink" xml:space="preserve" onload="init(evt)">
<style type="text/css"><![CDATA[
.edge:hover path { stroke: red; }
.edge:hover polygon { stroke: red; fill: red; }
]]></style>
<script type="text/javascript"><![CDATA[
var edges = document.getElementsByTagName('g');
if (edges && edges.length) {
  for (var i=0;i<edges.length;i++) {
    if (edges[i].id.substr(0,4)=='edge') {
      edges[i].setAttribute('class','edge');
    }
  }
}
]]></script>
        <defs>
                <circle id="rim" cx="0" cy="0" r="7"/>
                <circle id="rim2" cx="0" cy="0" r="3.5"/>
                <g id="zoomPlus">
                        <use xlink:href="#rim" fill="#404040">
                                <set attributeName="fill" to="#808080" begin="zoomplus.mouseover" end="zoomplus.mouseout"/>
                        </use>
                        <path d="M-4,0h8M0,-4v8" fill="none" stroke="white" stroke-width="1.5" pointer-events="none"/>
                </g>
                <g id="zoomMin">
                        <use xlink:href="#rim" fill="#404040">
                                <set attributeName="fill" to="#808080" begin="zoomminus.mouseover" end="zoomminus.mouseout"/>
                        </use>
                        <path d="M-4,0h8" fill="none" stroke="white" stroke-width="1.5" pointer-events="none"/>
                </g>
                <g id="dirArrow">
                        <path fill="none" stroke="white" stroke-width="1.5" d="M0,-3.0v7 M-2.5,-0.5L0,-3.0L2.5,-0.5"/>
                </g>
               <g id="resetDef">
                       <use xlink:href="#rim2" fill="#404040">
                               <set attributeName="fill" to="#808080" begin="reset.mouseover" end="reset.mouseout"/>
                       </use>
               </g>
        </defs>

<script type="text/javascript">
var viewWidth = 907;
var viewHeight = 684;
var sectionId = 'dynsection-1';
</script>
<script xlink:href="../../svgpan.js"/>
<svg id="graph" class="graph">
<g id="viewport">
<title>XonoticRootDialog</title>
<!-- Node1 -->
<g id="node1" class="node"><title>Node1</title>
<polygon fill="#bfbfbf" stroke="black" points="384,-0.5 384,-19.5 482,-19.5 482,-0.5 384,-0.5"/>
<text text-anchor="middle" x="433" y="-7.5" font-family="Helvetica,sans-Serif" font-size="10.00">XonoticRootDialog</text>
</g>
<!-- Node2 -->
<g id="node2" class="node"><title>Node2</title>
<g id="a_node2"><a xlink:href="../../d5/d95/classXonoticDialog.html" target="_top" xlink:title="XonoticDialog">
<polygon fill="none" stroke="black" points="394.5,-58.5 394.5,-77.5 471.5,-77.5 471.5,-58.5 394.5,-58.5"/>
<text text-anchor="middle" x="433" y="-65.5" font-family="Helvetica,sans-Serif" font-size="10.00">XonoticDialog</text>
</a>
</g>
</g>
<!-- Node2&#45;&gt;Node1 -->
<g id="edge1" class="edge"><title>Node2&#45;&gt;Node1</title>
<path fill="none" stroke="midnightblue" d="M433,-47.953C433,-38.2875 433,-27.0312 433,-19.5052"/>
<polygon fill="midnightblue" stroke="midnightblue" points="429.5,-48.25 433,-58.25 436.5,-48.25 429.5,-48.25"/>
</g>
<!-- Node3 -->
<g id="node3" class="node"><title>Node3</title>
<g id="a_node3"><a xlink:href="../../dc/d06/classDialog.html" target="_top" xlink:title="Dialog">
<polygon fill="none" stroke="black" points="411,-116.5 411,-135.5 455,-135.5 455,-116.5 411,-116.5"/>
<text text-anchor="middle" x="433" y="-123.5" font-family="Helvetica,sans-Serif" font-size="10.00">Dialog</text>
</a>
</g>
</g>
<!-- Node3&#45;&gt;Node2 -->
<g id="edge2" class="edge"><title>Node3&#45;&gt;Node2</title>
<path fill="none" stroke="midnightblue" d="M433,-105.953C433,-96.2875 433,-85.0312 433,-77.5052"/>
<polygon fill="midnightblue" stroke="midnightblue" points="429.5,-106.25 433,-116.25 436.5,-106.25 429.5,-106.25"/>
</g>
<!-- Node4 -->
<g id="node4" class="node"><title>Node4</title>
<g id="a_node4"><a xlink:href="../../d8/da4/classInputContainer.html" target="_top" xlink:title="InputContainer">
<polygon fill="none" stroke="black" points="393,-174.5 393,-193.5 473,-193.5 473,-174.5 393,-174.5"/>
<text text-anchor="middle" x="433" y="-181.5" font-family="Helvetica,sans-Serif" font-size="10.00">InputContainer</text>
</a>
</g>
</g>
<!-- Node4&#45;&gt;Node3 -->
<g id="edge3" class="edge"><title>Node4&#45;&gt;Node3</title>
<path fill="none" stroke="midnightblue" d="M433,-163.953C433,-154.287 433,-143.031 433,-135.505"/>
<polygon fill="midnightblue" stroke="midnightblue" points="429.5,-164.25 433,-174.25 436.5,-164.25 429.5,-164.25"/>
</g>
<!-- Node5 -->
<g id="node5" class="node"><title>Node5</title>
<g id="a_node5"><a xlink:href="../../d0/d7b/classContainer.html" target="_top" xlink:title="Container">
<polygon fill="none" stroke="black" points="403.5,-413.5 403.5,-432.5 462.5,-432.5 462.5,-413.5 403.5,-413.5"/>
<text text-anchor="middle" x="433" y="-420.5" font-family="Helvetica,sans-Serif" font-size="10.00">Container</text>
</a>
</g>
</g>
<!-- Node5&#45;&gt;Node4 -->
<g id="edge4" class="edge"><title>Node5&#45;&gt;Node4</title>
<path fill="none" stroke="midnightblue" d="M433,-402.983C433,-354.49 433,-227.647 433,-193.545"/>
<polygon fill="midnightblue" stroke="midnightblue" points="429.5,-403.284 433,-413.284 436.5,-403.284 429.5,-403.284"/>
</g>
<!-- Node6 -->
<g id="node6" class="node"><title>Node6</title>
<g id="a_node6"><a xlink:href="../../d0/dae/classItem.html" target="_top" xlink:title="Item">
<polygon fill="none" stroke="black" points="415,-544.5 415,-563.5 451,-563.5 451,-544.5 415,-544.5"/>
<text text-anchor="middle" x="433" y="-551.5" font-family="Helvetica,sans-Serif" font-size="10.00">Item</text>
</a>
</g>
</g>
<!-- Node6&#45;&gt;Node5 -->
<g id="edge5" class="edge"><title>Node6&#45;&gt;Node5</title>
<path fill="none" stroke="midnightblue" d="M433,-533.88C433,-505.434 433,-453.118 433,-432.589"/>
<polygon fill="midnightblue" stroke="midnightblue" points="429.5,-534.133 433,-544.133 436.5,-534.133 429.5,-534.133"/>
</g>
<!-- Node7 -->
<g id="node7" class="node"><title>Node7</title>
<g id="a_node7"><a xlink:href="../../d8/d4b/classObject.html" target="_top" xlink:title="Object">
<polygon fill="none" stroke="black" points="374.5,-656.5 374.5,-675.5 419.5,-675.5 419.5,-656.5 374.5,-656.5"/>
<text text-anchor="middle" x="397" y="-663.5" font-family="Helvetica,sans-Serif" font-size="10.00">Object</text>
</a>
</g>
</g>
<!-- Node7&#45;&gt;Node6 -->
<g id="edge6" class="edge"><title>Node7&#45;&gt;Node6</title>
<path fill="none" stroke="midnightblue" d="M399.043,-646.224C401.021,-631.649 404.674,-611.109 411,-594 415.098,-582.917 422.085,-571.246 427.086,-563.593"/>
<polygon fill="midnightblue" stroke="midnightblue" points="395.531,-646.106 397.797,-656.456 402.48,-646.952 395.531,-646.106"/>
</g>
<!-- Node8 -->
<g id="node8" class="node"><title>Node8</title>
<polygon fill="none" stroke="#bfbfbf" points="76.5,-656.5 76.5,-675.5 117.5,-675.5 117.5,-656.5 76.5,-656.5"/>
<text text-anchor="middle" x="97" y="-663.5" font-family="Helvetica,sans-Serif" font-size="10.00">string</text>
</g>
<!-- Node8&#45;&gt;Node2 -->
<g id="edge19" class="edge"><title>Node8&#45;&gt;Node2</title>
<path fill="none" stroke="#9a32cd" stroke-dasharray="5,2" d="M72.2443,-651.213C43.5054,-633.172 0,-598.653 0,-555 0,-555 0,-555 0,-125 0,-85.442 287.913,-73.1617 394.193,-69.9761"/>
<polygon fill="#9a32cd" stroke="#9a32cd" points="70.6115,-654.316 80.9824,-656.482 74.2262,-648.321 70.6115,-654.316"/>
<text text-anchor="middle" x="41" y="-281" font-family="Helvetica,sans-Serif" font-size="10.00"> closeButtonImage</text>
<text text-anchor="middle" x="41" y="-270" font-family="Helvetica,sans-Serif" font-size="10.00">backgroundImage</text>
</g>
<!-- Node8&#45;&gt;Node3 -->
<g id="edge15" class="edge"><title>Node8&#45;&gt;Node3</title>
<path fill="none" stroke="#9a32cd" stroke-dasharray="5,2" d="M97,-646.251C97,-624.357 97,-587.052 97,-555 97,-555 97,-555 97,-183 97,-151.065 336.203,-133.153 410.954,-128.335"/>
<polygon fill="#9a32cd" stroke="#9a32cd" points="93.5001,-646.442 97,-656.442 100.5,-646.442 93.5001,-646.442"/>
<text text-anchor="middle" x="138" y="-431.5" font-family="Helvetica,sans-Serif" font-size="10.00"> closeButtonImage</text>
<text text-anchor="middle" x="138" y="-420.5" font-family="Helvetica,sans-Serif" font-size="10.00">title</text>
<text text-anchor="middle" x="138" y="-409.5" font-family="Helvetica,sans-Serif" font-size="10.00">backgroundImage</text>
</g>
<!-- Node8&#45;&gt;Node6 -->
<g id="edge7" class="edge"><title>Node8&#45;&gt;Node6</title>
<path fill="none" stroke="#9a32cd" stroke-dasharray="5,2" d="M126.647,-652.509C164.919,-636.819 233.873,-610.016 295,-594 341.225,-581.888 356.526,-593.479 401,-576 408.669,-572.986 416.416,-567.965 422.367,-563.588"/>
<polygon fill="#9a32cd" stroke="#9a32cd" points="125.055,-649.38 117.149,-656.434 127.728,-655.85 125.055,-649.38"/>
<text text-anchor="middle" x="310" y="-613.5" font-family="Helvetica,sans-Serif" font-size="10.00"> tooltip</text>
</g>
<!-- Node9 -->
<g id="node9" class="node"><title>Node9</title>
<polygon fill="none" stroke="#bfbfbf" points="505,-656.5 505,-675.5 549,-675.5 549,-656.5 505,-656.5"/>
<text text-anchor="middle" x="527" y="-663.5" font-family="Helvetica,sans-Serif" font-size="10.00">vector</text>
</g>
<!-- Node9&#45;&gt;Node3 -->
<g id="edge16" class="edge"><title>Node9&#45;&gt;Node3</title>
<path fill="none" stroke="#9a32cd" stroke-dasharray="5,2" d="M558.621,-653.448C566.108,-649.494 573.504,-644.405 579,-638 610.277,-601.554 607.613,-579.419 600,-532 573.442,-366.587 571.318,-315.736 482,-174 472.196,-158.443 456.145,-144.393 445.101,-135.79"/>
<polygon fill="#9a32cd" stroke="#9a32cd" points="556.788,-650.442 549.226,-657.862 559.765,-656.777 556.788,-650.442"/>
<text text-anchor="middle" x="622" y="-437" font-family="Helvetica,sans-Serif" font-size="10.00"> itemSpacing</text>
<text text-anchor="middle" x="622" y="-426" font-family="Helvetica,sans-Serif" font-size="10.00">itemSize</text>
<text text-anchor="middle" x="622" y="-415" font-family="Helvetica,sans-Serif" font-size="10.00">color</text>
<text text-anchor="middle" x="622" y="-404" font-family="Helvetica,sans-Serif" font-size="10.00">itemOrigin</text>
</g>
<!-- Node9&#45;&gt;Node6 -->
<g id="edge8" class="edge"><title>Node9&#45;&gt;Node6</title>
<path fill="none" stroke="#9a32cd" stroke-dasharray="5,2" d="M494.782,-665.297C473.006,-663.591 445.645,-657.331 431,-638 414.289,-615.94 423.769,-580.283 429.554,-563.833"/>
<polygon fill="#9a32cd" stroke="#9a32cd" points="494.781,-668.801 504.944,-665.805 495.131,-661.81 494.781,-668.801"/>
<text text-anchor="middle" x="443" y="-619" font-family="Helvetica,sans-Serif" font-size="10.00"> size</text>
<text text-anchor="middle" x="443" y="-608" font-family="Helvetica,sans-Serif" font-size="10.00">origin</text>
</g>
<!-- Node10 -->
<g id="node10" class="node"><title>Node10</title>
<polygon fill="none" stroke="#bfbfbf" points="284.5,-656.5 284.5,-675.5 325.5,-675.5 325.5,-656.5 284.5,-656.5"/>
<text text-anchor="middle" x="305" y="-663.5" font-family="Helvetica,sans-Serif" font-size="10.00">entity</text>
</g>
<!-- Node10&#45;&gt;Node3 -->
<g id="edge17" class="edge"><title>Node10&#45;&gt;Node3</title>
<path fill="none" stroke="#9a32cd" stroke-dasharray="5,2" d="M274.385,-661.532C258.544,-658.124 240.224,-651.373 229,-638 204.949,-609.346 215,-592.41 215,-555 215,-555 215,-555 215,-183 215,-142.849 355.475,-131.074 410.897,-127.991"/>
<polygon fill="#9a32cd" stroke="#9a32cd" points="273.875,-664.996 284.337,-663.324 275.116,-658.107 273.875,-664.996"/>
<text text-anchor="middle" x="242.5" y="-426" font-family="Helvetica,sans-Serif" font-size="10.00"> closeButton</text>
<text text-anchor="middle" x="242.5" y="-415" font-family="Helvetica,sans-Serif" font-size="10.00">frame</text>
</g>
<!-- Node10&#45;&gt;Node4 -->
<g id="edge13" class="edge"><title>Node10&#45;&gt;Node4</title>
<path fill="none" stroke="#9a32cd" stroke-dasharray="5,2" d="M299.669,-646.362C291.745,-615.852 278.924,-553.488 290,-502 318.061,-371.555 404.244,-230.086 427.286,-193.841"/>
<polygon fill="#9a32cd" stroke="#9a32cd" points="296.4,-647.678 302.406,-656.406 303.154,-645.838 296.4,-647.678"/>
<text text-anchor="middle" x="336.5" y="-505.5" font-family="Helvetica,sans-Serif" font-size="10.00"> mouseFocusedChild</text>
</g>
<!-- Node10&#45;&gt;Node5 -->
<g id="edge11" class="edge"><title>Node10&#45;&gt;Node5</title>
<path fill="none" stroke="#9a32cd" stroke-dasharray="5,2" d="M306.359,-646.338C309.331,-618.286 318.705,-565.03 348,-532 360.667,-517.718 373.233,-527.226 387,-514 411.802,-490.173 425.59,-450.075 430.691,-432.587"/>
<polygon fill="#9a32cd" stroke="#9a32cd" points="302.866,-646.106 305.46,-656.378 309.838,-646.73 302.866,-646.106"/>
<text text-anchor="middle" x="377" y="-568" font-family="Helvetica,sans-Serif" font-size="10.00"> firstChild</text>
<text text-anchor="middle" x="377" y="-557" font-family="Helvetica,sans-Serif" font-size="10.00">savedFocus</text>
<text text-anchor="middle" x="377" y="-546" font-family="Helvetica,sans-Serif" font-size="10.00">lastChild</text>
<text text-anchor="middle" x="377" y="-535" font-family="Helvetica,sans-Serif" font-size="10.00">focusedChild</text>
</g>
<!-- Node10&#45;&gt;Node6 -->
<g id="edge9" class="edge"><title>Node10&#45;&gt;Node6</title>
<path fill="none" stroke="#9a32cd" stroke-dasharray="5,2" d="M319.795,-648.5C322.856,-645.046 326.047,-641.416 329,-638 345.711,-618.672 346.025,-609.933 366,-594 379.675,-583.092 385.889,-584.811 401,-576 407.544,-572.184 414.606,-567.603 420.426,-563.694"/>
<polygon fill="#9a32cd" stroke="#9a32cd" points="317.103,-646.26 313.062,-656.054 322.329,-650.918 317.103,-646.26"/>
<text text-anchor="middle" x="381.5" y="-613.5" font-family="Helvetica,sans-Serif" font-size="10.00"> parent</text>
</g>
<!-- Node11 -->
<g id="node11" class="node"><title>Node11</title>
<polygon fill="none" stroke="#bfbfbf" points="634.5,-656.5 634.5,-675.5 669.5,-675.5 669.5,-656.5 634.5,-656.5"/>
<text text-anchor="middle" x="652" y="-663.5" font-family="Helvetica,sans-Serif" font-size="10.00">float</text>
</g>
<!-- Node11&#45;&gt;Node2 -->
<g id="edge20" class="edge"><title>Node11&#45;&gt;Node2</title>
<path fill="none" stroke="#9a32cd" stroke-dasharray="5,2" d="M679.632,-659.507C725.893,-648.525 814,-619.182 814,-555 814,-555 814,-555 814,-125 814,-90.6525 568.49,-75.3634 471.629,-70.668"/>
<polygon fill="#9a32cd" stroke="#9a32cd" points="678.637,-656.144 669.645,-661.747 680.169,-662.974 678.637,-656.144"/>
<text text-anchor="middle" x="856.5" y="-336" font-family="Helvetica,sans-Serif" font-size="10.00"> columnSpacing</text>
<text text-anchor="middle" x="856.5" y="-325" font-family="Helvetica,sans-Serif" font-size="10.00">marginBottom</text>
<text text-anchor="middle" x="856.5" y="-314" font-family="Helvetica,sans-Serif" font-size="10.00">titleFontSize</text>
<text text-anchor="middle" x="856.5" y="-303" font-family="Helvetica,sans-Serif" font-size="10.00">marginTop</text>
<text text-anchor="middle" x="856.5" y="-292" font-family="Helvetica,sans-Serif" font-size="10.00">borderLines</text>
<text text-anchor="middle" x="856.5" y="-281" font-family="Helvetica,sans-Serif" font-size="10.00">marginLeft</text>
<text text-anchor="middle" x="856.5" y="-270" font-family="Helvetica,sans-Serif" font-size="10.00">zoomedOutTitleBar</text>
<text text-anchor="middle" x="856.5" y="-259" font-family="Helvetica,sans-Serif" font-size="10.00">marginRight</text>
<text text-anchor="middle" x="856.5" y="-248" font-family="Helvetica,sans-Serif" font-size="10.00">alpha</text>
<text text-anchor="start" x="814" y="-237" font-family="Helvetica,sans-Serif" font-size="10.00">zoomedOutTitleBar</text>
<text text-anchor="middle" x="856.5" y="-226" font-family="Helvetica,sans-Serif" font-size="10.00">Position</text>
<text text-anchor="middle" x="856.5" y="-215" font-family="Helvetica,sans-Serif" font-size="10.00">...</text>
</g>
<!-- Node11&#45;&gt;Node3 -->
<g id="edge18" class="edge"><title>Node11&#45;&gt;Node3</title>
<path fill="none" stroke="#9a32cd" stroke-dasharray="5,2" d="M668.646,-648.995C687.608,-628.96 716,-592.673 716,-555 716,-555 716,-555 716,-183 716,-129.91 521.921,-126.346 455.207,-126.689"/>
<polygon fill="#9a32cd" stroke="#9a32cd" points="665.964,-646.73 661.443,-656.311 670.953,-651.64 665.964,-646.73"/>
<text text-anchor="middle" x="751" y="-475.5" font-family="Helvetica,sans-Serif" font-size="10.00"> columnSpacing</text>
<text text-anchor="middle" x="751" y="-464.5" font-family="Helvetica,sans-Serif" font-size="10.00">marginBottom</text>
<text text-anchor="middle" x="751" y="-453.5" font-family="Helvetica,sans-Serif" font-size="10.00">intendedWidth</text>
<text text-anchor="middle" x="751" y="-442.5" font-family="Helvetica,sans-Serif" font-size="10.00">titleFontSize</text>
<text text-anchor="middle" x="751" y="-431.5" font-family="Helvetica,sans-Serif" font-size="10.00">marginTop</text>
<text text-anchor="middle" x="751" y="-420.5" font-family="Helvetica,sans-Serif" font-size="10.00">currentColumn</text>
<text text-anchor="middle" x="751" y="-409.5" font-family="Helvetica,sans-Serif" font-size="10.00">borderLines</text>
<text text-anchor="middle" x="751" y="-398.5" font-family="Helvetica,sans-Serif" font-size="10.00">marginLeft</text>
<text text-anchor="middle" x="751" y="-387.5" font-family="Helvetica,sans-Serif" font-size="10.00">intendedHeight</text>
<text text-anchor="middle" x="751" y="-376.5" font-family="Helvetica,sans-Serif" font-size="10.00">firstColumn</text>
<text text-anchor="middle" x="751" y="-365.5" font-family="Helvetica,sans-Serif" font-size="10.00">...</text>
</g>
<!-- Node11&#45;&gt;Node4 -->
<g id="edge14" class="edge"><title>Node11&#45;&gt;Node4</title>
<path fill="none" stroke="#9a32cd" stroke-dasharray="5,2" d="M652.298,-645.979C652.934,-587.664 652.694,-412.297 628,-362 586.894,-278.276 487.474,-215.59 448.78,-193.579"/>
<polygon fill="#9a32cd" stroke="#9a32cd" points="648.794,-646.24 652.162,-656.286 655.794,-646.333 648.794,-646.24"/>
<text text-anchor="middle" x="675.5" y="-505.5" font-family="Helvetica,sans-Serif" font-size="10.00"> isTabRoot</text>
</g>
<!-- Node11&#45;&gt;Node5 -->
<g id="edge12" class="edge"><title>Node11&#45;&gt;Node5</title>
<path fill="none" stroke="#9a32cd" stroke-dasharray="5,2" d="M637.232,-648.748C594.743,-601.991 473.174,-468.209 440.93,-432.726"/>
<polygon fill="#9a32cd" stroke="#9a32cd" points="634.89,-651.376 644.206,-656.423 640.071,-646.668 634.89,-651.376"/>
<text text-anchor="middle" x="591" y="-557" font-family="Helvetica,sans-Serif" font-size="10.00"> focusable</text>
<text text-anchor="middle" x="591" y="-546" font-family="Helvetica,sans-Serif" font-size="10.00">shown</text>
</g>
<!-- Node11&#45;&gt;Node6 -->
<g id="edge10" class="edge"><title>Node11&#45;&gt;Node6</title>
<path fill="none" stroke="#9a32cd" stroke-dasharray="5,2" d="M624.115,-662.062C577.982,-656.998 489.677,-646.363 478,-638 460.061,-625.151 465.533,-613.39 455,-594 449.285,-583.48 442.485,-571.504 437.973,-563.63"/>
<polygon fill="#9a32cd" stroke="#9a32cd" points="624.017,-665.572 634.336,-663.169 624.771,-658.613 624.017,-665.572"/>
<text text-anchor="middle" x="526.5" y="-630" font-family="Helvetica,sans-Serif" font-size="10.00"> allowFocusSound</text>
<text text-anchor="middle" x="526.5" y="-619" font-family="Helvetica,sans-Serif" font-size="10.00">focused</text>
<text text-anchor="middle" x="526.5" y="-608" font-family="Helvetica,sans-Serif" font-size="10.00">focusable</text>
<text text-anchor="middle" x="526.5" y="-597" font-family="Helvetica,sans-Serif" font-size="10.00">preferredFocusPriority</text>
</g>
</g>
</svg>
        <g id="navigator" transform="translate(0 0)" fill="#404254">
                <rect fill="#f2f5e9" fill-opacity="0.5" stroke="#606060" stroke-width=".5" x="0" y="0" width="60" height="60"/>
                <use id="zoomplus" xlink:href="#zoomPlus" x="17" y="9" onmousedown="handleZoom(evt,'in')"/>
                <use id="zoomminus" xlink:href="#zoomMin" x="42" y="9" onmousedown="handleZoom(evt,'out')"/>
                <use id="reset" xlink:href="#resetDef" x="30" y="36" onmousedown="handleReset()"/>
                <g id="arrowUp" xlink:href="#dirArrow" transform="translate(30 24)" onmousedown="handlePan(0,-1)">
                  <use xlink:href="#rim" fill="#404040">
                        <set attributeName="fill" to="#808080" begin="arrowUp.mouseover" end="arrowUp.mouseout"/>
                  </use>
                  <path fill="none" stroke="white" stroke-width="1.5" d="M0,-3.0v7 M-2.5,-0.5L0,-3.0L2.5,-0.5"/>
                </g>
                <g id="arrowRight" xlink:href="#dirArrow" transform="rotate(90) translate(36 -43)" onmousedown="handlePan(1,0)">
                  <use xlink:href="#rim" fill="#404040">
                        <set attributeName="fill" to="#808080" begin="arrowRight.mouseover" end="arrowRight.mouseout"/>
                  </use>
                  <path fill="none" stroke="white" stroke-width="1.5" d="M0,-3.0v7 M-2.5,-0.5L0,-3.0L2.5,-0.5"/>
                </g>
                <g id="arrowDown" xlink:href="#dirArrow" transform="rotate(180) translate(-30 -48)" onmousedown="handlePan(0,1)">
                  <use xlink:href="#rim" fill="#404040">
                        <set attributeName="fill" to="#808080" begin="arrowDown.mouseover" end="arrowDown.mouseout"/>
                  </use>
                  <path fill="none" stroke="white" stroke-width="1.5" d="M0,-3.0v7 M-2.5,-0.5L0,-3.0L2.5,-0.5"/>
                </g>
                <g id="arrowLeft" xlink:href="#dirArrow" transform="rotate(270) translate(-36 17)" onmousedown="handlePan(-1,0)">
                  <use xlink:href="#rim" fill="#404040">
                        <set attributeName="fill" to="#808080" begin="arrowLeft.mouseover" end="arrowLeft.mouseout"/>
                  </use>
                  <path fill="none" stroke="white" stroke-width="1.5" d="M0,-3.0v7 M-2.5,-0.5L0,-3.0L2.5,-0.5"/>
                </g>
        </g>
        <svg viewBox="0 0 15 15" width="100%" height="30px" preserveAspectRatio="xMaxYMin meet">
         <g id="arrow_out" transform="scale(0.3 0.3)">
          <a xlink:href="classXonoticRootDialog__coll__graph_org.svg" target="_base">
           <rect id="button" ry="5" rx="5" y="6" x="6" height="38" width="38"
                fill="#f2f5e9" fill-opacity="0.5" stroke="#606060" stroke-width="1.0"/>
           <path id="arrow"
             d="M 11.500037,31.436501 C 11.940474,20.09759 22.043105,11.32322 32.158766,21.979434 L 37.068811,17.246167 C 37.068811,17.246167 37.088388,32 37.088388,32 L 22.160133,31.978069 C 22.160133,31.978069 26.997745,27.140456 26.997745,27.140456 C 18.528582,18.264221 13.291696,25.230495 11.500037,31.436501 z"
             style="fill:#404040;"/>
          </a>
         </g>
        </svg>
</svg>
