<?xml version="1.0" encoding="UTF-8" standalone="no"?>
<!DOCTYPE svg PUBLIC "-//W3C//DTD SVG 1.1//EN"
 "http://www.w3.org/Graphics/SVG/1.1/DTD/svg11.dtd">
<!-- Generated by graphviz version 2.36.0 (20140111.2315)
 -->
<!-- Title: ctf_RespawnFlag Pages: 1 -->
<svg width="488pt" height="142pt"
 viewBox="0.00 0.00 488.00 142.00" xmlns="http://www.w3.org/2000/svg" xmlns:xlink="http://www.w3.org/1999/xlink">
<g id="graph0" class="graph" transform="scale(1 1) rotate(0) translate(4 138)">
<title>ctf_RespawnFlag</title>
<!-- Node1 -->
<g id="node1" class="node"><title>Node1</title>
<polygon fill="#bfbfbf" stroke="black" points="0.5,-38.5 0.5,-57.5 93.5,-57.5 93.5,-38.5 0.5,-38.5"/>
<text text-anchor="middle" x="47" y="-45.5" font-family="Helvetica,sans-Serif" font-size="10.00">ctf_RespawnFlag</text>
</g>
<!-- Node2 -->
<g id="node2" class="node"><title>Node2</title>
<g id="a_node2"><a xlink:href="../../d3/d73/gamemode__ctf_8qc.html#ad25a4c3adb77bc10b56f43000ede7b9a" target="_top" xlink:title="ctf_CheckStalemate">
<polygon fill="none" stroke="black" points="130,-76.5 130,-95.5 236,-95.5 236,-76.5 130,-76.5"/>
<text text-anchor="middle" x="183" y="-83.5" font-family="Helvetica,sans-Serif" font-size="10.00">ctf_CheckStalemate</text>
</a>
</g>
</g>
<!-- Node1&#45;&gt;Node2 -->
<g id="edge1" class="edge"><title>Node1&#45;&gt;Node2</title>
<path fill="none" stroke="midnightblue" d="M81.8139,-57.589C99.0326,-62.4719 120.164,-68.4643 138.573,-73.685"/>
<polygon fill="midnightblue" stroke="midnightblue" points="137.621,-77.053 148.197,-76.4141 139.531,-70.3185 137.621,-77.053"/>
</g>
<!-- Node5 -->
<g id="node5" class="node"><title>Node5</title>
<g id="a_node5"><a xlink:href="../../d3/d73/gamemode__ctf_8qc.html#aa01f814e4ab6e29b53dbf54585f7268e" target="_top" xlink:title="ctf_FakeTimeLimit">
<polygon fill="none" stroke="black" points="134,-38.5 134,-57.5 232,-57.5 232,-38.5 134,-38.5"/>
<text text-anchor="middle" x="183" y="-45.5" font-family="Helvetica,sans-Serif" font-size="10.00">ctf_FakeTimeLimit</text>
</a>
</g>
</g>
<!-- Node1&#45;&gt;Node5 -->
<g id="edge5" class="edge"><title>Node1&#45;&gt;Node5</title>
<path fill="none" stroke="midnightblue" d="M93.7404,-48C103.307,-48 113.518,-48 123.475,-48"/>
<polygon fill="midnightblue" stroke="midnightblue" points="123.722,-51.5001 133.722,-48 123.722,-44.5001 123.722,-51.5001"/>
</g>
<!-- Node8 -->
<g id="node8" class="node"><title>Node8</title>
<g id="a_node8"><a xlink:href="../../d4/dd7/movetypes_8qh.html#a8bf89be84cb481d218ff41140eacff78" target="_top" xlink:title="set_movetype">
<polygon fill="none" stroke="black" points="144,-0.5 144,-19.5 222,-19.5 222,-0.5 144,-0.5"/>
<text text-anchor="middle" x="183" y="-7.5" font-family="Helvetica,sans-Serif" font-size="10.00">set_movetype</text>
</a>
</g>
</g>
<!-- Node1&#45;&gt;Node8 -->
<g id="edge8" class="edge"><title>Node1&#45;&gt;Node8</title>
<path fill="none" stroke="midnightblue" d="M81.8139,-38.411C99.0326,-33.5281 120.164,-27.5357 138.573,-22.315"/>
<polygon fill="midnightblue" stroke="midnightblue" points="139.531,-25.6815 148.197,-19.5859 137.621,-18.947 139.531,-25.6815"/>
</g>
<!-- Node3 -->
<g id="node3" class="node"><title>Node3</title>
<g id="a_node3"><a xlink:href="../../d3/d73/gamemode__ctf_8qc.html#a7a47b33d1dbec111614579feb8646515" target="_top" xlink:title="ctf_Stalemate_Customize">
<polygon fill="none" stroke="black" points="272,-114.5 272,-133.5 402,-133.5 402,-114.5 272,-114.5"/>
<text text-anchor="middle" x="337" y="-121.5" font-family="Helvetica,sans-Serif" font-size="10.00">ctf_Stalemate_Customize</text>
</a>
</g>
</g>
<!-- Node2&#45;&gt;Node3 -->
<g id="edge2" class="edge"><title>Node2&#45;&gt;Node3</title>
<path fill="none" stroke="midnightblue" d="M222.356,-95.589C242.324,-100.581 266.93,-106.732 288.133,-112.033"/>
<polygon fill="midnightblue" stroke="midnightblue" points="287.369,-115.45 297.92,-114.48 289.067,-108.659 287.369,-115.45"/>
</g>
<!-- Node4 -->
<g id="node4" class="node"><title>Node4</title>
<g id="a_node4"><a xlink:href="../../d4/d0c/csprogsdefs_8qc.html#acbb54a239d76062465dccbc6a6c6e464" target="_top" xlink:title="entity">
<polygon fill="none" stroke="black" points="438.5,-95.5 438.5,-114.5 479.5,-114.5 479.5,-95.5 438.5,-95.5"/>
<text text-anchor="middle" x="459" y="-102.5" font-family="Helvetica,sans-Serif" font-size="10.00">entity</text>
</a>
</g>
</g>
<!-- Node2&#45;&gt;Node4 -->
<g id="edge4" class="edge"><title>Node2&#45;&gt;Node4</title>
<path fill="none" stroke="midnightblue" d="M236.182,-89.6185C293.106,-93.5657 382.238,-99.7464 428.269,-102.938"/>
<polygon fill="midnightblue" stroke="midnightblue" points="428.252,-106.445 438.47,-103.646 428.736,-99.4622 428.252,-106.445"/>
</g>
<!-- Node3&#45;&gt;Node4 -->
<g id="edge3" class="edge"><title>Node3&#45;&gt;Node4</title>
<path fill="none" stroke="midnightblue" d="M398.352,-114.444C408.755,-112.797 419.144,-111.152 428.268,-109.708"/>
<polygon fill="midnightblue" stroke="midnightblue" points="428.993,-113.136 438.323,-108.116 427.899,-106.223 428.993,-113.136"/>
</g>
<!-- Node6 -->
<g id="node6" class="node"><title>Node6</title>
<g id="a_node6"><a xlink:href="../../d8/de2/menudefs_8qc.html#abd23315350cd01304b6bd77c4c5c07e6" target="_top" xlink:title="WriteByte">
<polygon fill="none" stroke="black" points="307,-38.5 307,-57.5 367,-57.5 367,-38.5 307,-38.5"/>
<text text-anchor="middle" x="337" y="-45.5" font-family="Helvetica,sans-Serif" font-size="10.00">WriteByte</text>
</a>
</g>
</g>
<!-- Node5&#45;&gt;Node6 -->
<g id="edge6" class="edge"><title>Node5&#45;&gt;Node6</title>
<path fill="none" stroke="midnightblue" d="M232.094,-48C252.884,-48 276.91,-48 296.619,-48"/>
<polygon fill="midnightblue" stroke="midnightblue" points="296.783,-51.5001 306.783,-48 296.783,-44.5001 296.783,-51.5001"/>
</g>
<!-- Node7 -->
<g id="node7" class="node"><title>Node7</title>
<g id="a_node7"><a xlink:href="../../d8/de2/menudefs_8qc.html#aa8c03f058fec0c574e1bba13327f5a5b" target="_top" xlink:title="WriteCoord">
<polygon fill="none" stroke="black" points="304,-0.5 304,-19.5 370,-19.5 370,-0.5 304,-0.5"/>
<text text-anchor="middle" x="337" y="-7.5" font-family="Helvetica,sans-Serif" font-size="10.00">WriteCoord</text>
</a>
</g>
</g>
<!-- Node5&#45;&gt;Node7 -->
<g id="edge7" class="edge"><title>Node5&#45;&gt;Node7</title>
<path fill="none" stroke="midnightblue" d="M222.356,-38.411C244.168,-32.958 271.515,-26.1213 293.916,-20.521"/>
<polygon fill="midnightblue" stroke="midnightblue" points="294.97,-23.8652 303.823,-18.0443 293.272,-17.0742 294.97,-23.8652"/>
</g>
</g>
</svg>
