<?xml version="1.0" encoding="UTF-8" standalone="no"?>
<!DOCTYPE svg PUBLIC "-//W3C//DTD SVG 1.1//EN"
 "http://www.w3.org/Graphics/SVG/1.1/DTD/svg11.dtd">
<!-- Generated by graphviz version 2.36.0 (20140111.2315)
 -->
<!-- Title: ctf_Handle_Pickup Pages: 1 -->
<svg width="628pt" height="522pt"
 viewBox="0.00 0.00 628.00 522.00" xmlns="http://www.w3.org/2000/svg" xmlns:xlink="http://www.w3.org/1999/xlink">
<g id="graph0" class="graph" transform="scale(1 1) rotate(0) translate(4 518)">
<title>ctf_Handle_Pickup</title>
<!-- Node1 -->
<g id="node1" class="node"><title>Node1</title>
<polygon fill="#bfbfbf" stroke="black" points="0.5,-190.5 0.5,-209.5 99.5,-209.5 99.5,-190.5 0.5,-190.5"/>
<text text-anchor="middle" x="50" y="-197.5" font-family="Helvetica,sans-Serif" font-size="10.00">ctf_Handle_Pickup</text>
</g>
<!-- Node2 -->
<g id="node2" class="node"><title>Node2</title>
<g id="a_node2"><a xlink:href="../../d8/de2/menudefs_8qc.html#a3846d117b360dccec575f96988cf3bb7" target="_top" xlink:title="bound">
<polygon fill="none" stroke="black" points="177.5,-456.5 177.5,-475.5 220.5,-475.5 220.5,-456.5 177.5,-456.5"/>
<text text-anchor="middle" x="199" y="-463.5" font-family="Helvetica,sans-Serif" font-size="10.00">bound</text>
</a>
</g>
</g>
<!-- Node1&#45;&gt;Node2 -->
<g id="edge1" class="edge"><title>Node1&#45;&gt;Node2</title>
<path fill="none" stroke="midnightblue" d="M51.5974,-209.805C54.3072,-245.814 68.4486,-372.283 136,-442 144.425,-450.695 156.354,-456.294 167.502,-459.874"/>
<polygon fill="midnightblue" stroke="midnightblue" points="166.825,-463.318 177.397,-462.625 168.7,-456.574 166.825,-463.318"/>
</g>
<!-- Node3 -->
<g id="node3" class="node"><title>Node3</title>
<g id="a_node3"><a xlink:href="../../d3/d73/gamemode__ctf_8qc.html#a264d7917e181391f10ec1fc629a3470b" target="_top" xlink:title="ctf_EventLog">
<polygon fill="none" stroke="black" points="162,-342.5 162,-361.5 236,-361.5 236,-342.5 162,-342.5"/>
<text text-anchor="middle" x="199" y="-349.5" font-family="Helvetica,sans-Serif" font-size="10.00">ctf_EventLog</text>
</a>
</g>
</g>
<!-- Node1&#45;&gt;Node3 -->
<g id="edge2" class="edge"><title>Node1&#45;&gt;Node3</title>
<path fill="none" stroke="midnightblue" d="M59.8453,-209.543C75.1991,-226.069 107.84,-261.024 136,-290 150.969,-305.403 168.271,-322.66 180.787,-335.049"/>
<polygon fill="midnightblue" stroke="midnightblue" points="178.675,-337.882 188.249,-342.42 183.594,-332.902 178.675,-337.882"/>
</g>
<!-- Node4 -->
<g id="node4" class="node"><title>Node4</title>
<g id="a_node4"><a xlink:href="../../d8/de2/menudefs_8qc.html#abbb0d86741e0056b6c04f7280c185d76" target="_top" xlink:title="ftos">
<polygon fill="none" stroke="black" points="489.5,-494.5 489.5,-513.5 522.5,-513.5 522.5,-494.5 489.5,-494.5"/>
<text text-anchor="middle" x="506" y="-501.5" font-family="Helvetica,sans-Serif" font-size="10.00">ftos</text>
</a>
</g>
</g>
<!-- Node1&#45;&gt;Node4 -->
<g id="edge23" class="edge"><title>Node1&#45;&gt;Node4</title>
<path fill="none" stroke="midnightblue" d="M53.114,-209.68C59.8931,-238.475 83.7666,-324.47 136,-371 240.065,-463.702 413.577,-493.186 478.986,-501.283"/>
<polygon fill="midnightblue" stroke="midnightblue" points="478.879,-504.795 489.219,-502.482 479.694,-497.842 478.879,-504.795"/>
</g>
<!-- Node14 -->
<g id="node14" class="node"><title>Node14</title>
<g id="a_node14"><a xlink:href="../../d3/d73/gamemode__ctf_8qc.html#aa01f814e4ab6e29b53dbf54585f7268e" target="_top" xlink:title="ctf_FakeTimeLimit">
<polygon fill="none" stroke="black" points="150,-190.5 150,-209.5 248,-209.5 248,-190.5 150,-190.5"/>
<text text-anchor="middle" x="199" y="-197.5" font-family="Helvetica,sans-Serif" font-size="10.00">ctf_FakeTimeLimit</text>
</a>
</g>
</g>
<!-- Node1&#45;&gt;Node14 -->
<g id="edge14" class="edge"><title>Node1&#45;&gt;Node14</title>
<path fill="none" stroke="midnightblue" d="M99.5407,-200C112.21,-200 126.003,-200 139.144,-200"/>
<polygon fill="midnightblue" stroke="midnightblue" points="139.51,-203.5 149.51,-200 139.51,-196.5 139.51,-203.5"/>
</g>
<!-- Node17 -->
<g id="node17" class="node"><title>Node17</title>
<g id="a_node17"><a xlink:href="../../d3/d73/gamemode__ctf_8qc.html#a63e95cf7355d0785a115d73192b69365" target="_top" xlink:title="ctf_FlagcarrierWaypoints">
<polygon fill="none" stroke="black" points="136.5,-228.5 136.5,-247.5 261.5,-247.5 261.5,-228.5 136.5,-228.5"/>
<text text-anchor="middle" x="199" y="-235.5" font-family="Helvetica,sans-Serif" font-size="10.00">ctf_FlagcarrierWaypoints</text>
</a>
</g>
</g>
<!-- Node1&#45;&gt;Node17 -->
<g id="edge17" class="edge"><title>Node1&#45;&gt;Node17</title>
<path fill="none" stroke="midnightblue" d="M88.0943,-209.589C107.318,-214.558 130.986,-220.677 151.429,-225.961"/>
<polygon fill="midnightblue" stroke="midnightblue" points="150.615,-229.366 161.172,-228.48 152.367,-222.588 150.615,-229.366"/>
</g>
<!-- Node21 -->
<g id="node21" class="node"><title>Node21</title>
<g id="a_node21"><a xlink:href="../../d8/de2/menudefs_8qc.html#ad5a3e16aa960bd72d3ca37a618eea802" target="_top" xlink:title="floor">
<polygon fill="none" stroke="black" points="181.5,-152.5 181.5,-171.5 216.5,-171.5 216.5,-152.5 181.5,-152.5"/>
<text text-anchor="middle" x="199" y="-159.5" font-family="Helvetica,sans-Serif" font-size="10.00">floor</text>
</a>
</g>
</g>
<!-- Node1&#45;&gt;Node21 -->
<g id="edge22" class="edge"><title>Node1&#45;&gt;Node21</title>
<path fill="none" stroke="midnightblue" d="M88.0943,-190.411C114.057,-183.7 148.128,-174.892 171.41,-168.874"/>
<polygon fill="midnightblue" stroke="midnightblue" points="172.475,-172.214 181.28,-166.322 170.723,-165.436 172.475,-172.214"/>
</g>
<!-- Node22 -->
<g id="node22" class="node"><title>Node22</title>
<g id="a_node22"><a xlink:href="../../d1/d07/framework_8qc.html#aef346455b3c2def821423a45227b45dd" target="_top" xlink:title="LOG_TRACE">
<polygon fill="none" stroke="black" points="160.5,-114.5 160.5,-133.5 237.5,-133.5 237.5,-114.5 160.5,-114.5"/>
<text text-anchor="middle" x="199" y="-121.5" font-family="Helvetica,sans-Serif" font-size="10.00">LOG_TRACE</text>
</a>
</g>
</g>
<!-- Node1&#45;&gt;Node22 -->
<g id="edge24" class="edge"><title>Node1&#45;&gt;Node22</title>
<path fill="none" stroke="midnightblue" d="M62.983,-190.29C78.8472,-177.841 108.082,-156.281 136,-143 140.708,-140.76 145.742,-138.709 150.83,-136.851"/>
<polygon fill="midnightblue" stroke="midnightblue" points="152.271,-140.058 160.608,-133.519 150.013,-133.432 152.271,-140.058"/>
</g>
<!-- Node23 -->
<g id="node23" class="node"><title>Node23</title>
<g id="a_node23"><a xlink:href="../../d3/d73/gamemode__ctf_8qc.html#a6787cb86b4d6cd7f96bcf069a5a9f6d3" target="_top" xlink:title="nades_GiveBonus">
<polygon fill="none" stroke="black" points="151,-76.5 151,-95.5 247,-95.5 247,-76.5 151,-76.5"/>
<text text-anchor="middle" x="199" y="-83.5" font-family="Helvetica,sans-Serif" font-size="10.00">nades_GiveBonus</text>
</a>
</g>
</g>
<!-- Node1&#45;&gt;Node23 -->
<g id="edge25" class="edge"><title>Node1&#45;&gt;Node23</title>
<path fill="none" stroke="midnightblue" d="M56.9863,-190.35C69.3572,-171.204 99.6469,-128.257 136,-105 139.174,-102.969 142.578,-101.145 146.097,-99.5078"/>
<polygon fill="midnightblue" stroke="midnightblue" points="147.687,-102.638 155.604,-95.597 145.024,-96.1646 147.687,-102.638"/>
</g>
<!-- Node24 -->
<g id="node24" class="node"><title>Node24</title>
<g id="a_node24"><a xlink:href="../../d2/d79/scores_8qc.html#aebb89cf706a7b2fe6037e3ab4e56dfe4" target="_top" xlink:title="Adds a score to the player&#39;s scores. ">
<polygon fill="none" stroke="black" points="317,-266.5 317,-285.5 409,-285.5 409,-266.5 317,-266.5"/>
<text text-anchor="middle" x="363" y="-273.5" font-family="Helvetica,sans-Serif" font-size="10.00">PlayerScore_Add</text>
</a>
</g>
</g>
<!-- Node1&#45;&gt;Node24 -->
<g id="edge26" class="edge"><title>Node1&#45;&gt;Node24</title>
<path fill="none" stroke="midnightblue" d="M61.2981,-209.512C76.3886,-222.801 105.988,-246.475 136,-257 191.788,-276.564 259.877,-279.715 306.647,-278.976"/>
<polygon fill="midnightblue" stroke="midnightblue" points="306.96,-282.47 316.879,-278.747 306.803,-275.472 306.96,-282.47"/>
</g>
<!-- Node25 -->
<g id="node25" class="node"><title>Node25</title>
<g id="a_node25"><a xlink:href="../../d4/dd7/movetypes_8qh.html#a8bf89be84cb481d218ff41140eacff78" target="_top" xlink:title="set_movetype">
<polygon fill="none" stroke="black" points="160,-38.5 160,-57.5 238,-57.5 238,-38.5 160,-38.5"/>
<text text-anchor="middle" x="199" y="-45.5" font-family="Helvetica,sans-Serif" font-size="10.00">set_movetype</text>
</a>
</g>
</g>
<!-- Node1&#45;&gt;Node25 -->
<g id="edge29" class="edge"><title>Node1&#45;&gt;Node25</title>
<path fill="none" stroke="midnightblue" d="M54.4506,-190.314C63.6717,-165.828 91.2703,-100.986 136,-67 140.37,-63.6797 145.324,-60.935 150.481,-58.667"/>
<polygon fill="midnightblue" stroke="midnightblue" points="151.802,-61.9091 159.901,-55.0782 149.31,-55.3678 151.802,-61.9091"/>
</g>
<!-- Node26 -->
<g id="node26" class="node"><title>Node26</title>
<g id="a_node26"><a xlink:href="../../db/d07/teams_8qh.html#a8d03f41980a641a39e8cdafc391b4a53" target="_top" xlink:title="Team_ColorCode">
<polygon fill="none" stroke="black" points="152.5,-0.5 152.5,-19.5 245.5,-19.5 245.5,-0.5 152.5,-0.5"/>
<text text-anchor="middle" x="199" y="-7.5" font-family="Helvetica,sans-Serif" font-size="10.00">Team_ColorCode</text>
</a>
</g>
</g>
<!-- Node1&#45;&gt;Node26 -->
<g id="edge30" class="edge"><title>Node1&#45;&gt;Node26</title>
<path fill="none" stroke="midnightblue" d="M53.0107,-190.201C59.5013,-161.074 82.6521,-74.2479 136,-29 138.254,-27.0885 140.697,-25.3692 143.268,-23.8228"/>
<polygon fill="midnightblue" stroke="midnightblue" points="145.061,-26.8383 152.406,-19.2033 141.903,-20.5911 145.061,-26.8383"/>
</g>
<!-- Node3&#45;&gt;Node4 -->
<g id="edge3" class="edge"><title>Node3&#45;&gt;Node4</title>
<path fill="none" stroke="midnightblue" d="M236.068,-360.112C296.479,-373.947 413.012,-401.792 428,-414 455.432,-436.343 438.545,-460.428 464,-485 468.484,-489.328 474.133,-492.8 479.792,-495.53"/>
<polygon fill="midnightblue" stroke="midnightblue" points="478.547,-498.803 489.122,-499.444 481.255,-492.348 478.547,-498.803"/>
</g>
<!-- Node5 -->
<g id="node5" class="node"><title>Node5</title>
<g id="a_node5"><a xlink:href="../../dc/dc6/server_2miscfunctions_8qc.html#ad8252ef534185c1cbbde32e65a01a5b3" target="_top" xlink:title="GameLogEcho">
<polygon fill="none" stroke="black" points="322.5,-342.5 322.5,-361.5 403.5,-361.5 403.5,-342.5 322.5,-342.5"/>
<text text-anchor="middle" x="363" y="-349.5" font-family="Helvetica,sans-Serif" font-size="10.00">GameLogEcho</text>
</a>
</g>
</g>
<!-- Node3&#45;&gt;Node5 -->
<g id="edge4" class="edge"><title>Node3&#45;&gt;Node5</title>
<path fill="none" stroke="midnightblue" d="M236.356,-352C258.722,-352 287.691,-352 312.176,-352"/>
<polygon fill="midnightblue" stroke="midnightblue" points="312.362,-355.5 322.362,-352 312.362,-348.5 312.362,-355.5"/>
</g>
<!-- Node5&#45;&gt;Node4 -->
<g id="edge10" class="edge"><title>Node5&#45;&gt;Node4</title>
<path fill="none" stroke="midnightblue" d="M403.829,-360.728C412.705,-364.244 421.422,-369.155 428,-376 463.351,-412.786 430.057,-446.912 464,-485 468.213,-489.728 473.846,-493.363 479.583,-496.125"/>
<polygon fill="midnightblue" stroke="midnightblue" points="478.525,-499.472 489.107,-499.986 481.155,-492.985 478.525,-499.472"/>
</g>
<!-- Node6 -->
<g id="node6" class="node"><title>Node6</title>
<g id="a_node6"><a xlink:href="../../d8/de2/menudefs_8qc.html#a0b350379da8a7002dee40a3598bf33c3" target="_top" xlink:title="cvar_set">
<polygon fill="none" stroke="black" points="479,-456.5 479,-475.5 533,-475.5 533,-456.5 479,-456.5"/>
<text text-anchor="middle" x="506" y="-463.5" font-family="Helvetica,sans-Serif" font-size="10.00">cvar_set</text>
</a>
</g>
</g>
<!-- Node5&#45;&gt;Node6 -->
<g id="edge5" class="edge"><title>Node5&#45;&gt;Node6</title>
<path fill="none" stroke="midnightblue" d="M403.46,-361.587C412.247,-365.068 421.015,-369.747 428,-376 454.361,-399.598 438.545,-422.428 464,-447 465.827,-448.764 467.848,-450.386 469.985,-451.873"/>
<polygon fill="midnightblue" stroke="midnightblue" points="468.236,-454.905 478.63,-456.959 471.786,-448.872 468.236,-454.905"/>
</g>
<!-- Node7 -->
<g id="node7" class="node"><title>Node7</title>
<g id="a_node7"><a xlink:href="../../db/d9b/server_2player_8qc.html#a0390f6703ace29f61655694b8821d84a" target="_top" xlink:title="print(), but only print if the server is not local ">
<polygon fill="none" stroke="black" points="464.5,-418.5 464.5,-437.5 547.5,-437.5 547.5,-418.5 464.5,-418.5"/>
<text text-anchor="middle" x="506" y="-425.5" font-family="Helvetica,sans-Serif" font-size="10.00">dedicated_print</text>
</a>
</g>
</g>
<!-- Node5&#45;&gt;Node7 -->
<g id="edge6" class="edge"><title>Node5&#45;&gt;Node7</title>
<path fill="none" stroke="midnightblue" d="M396.699,-361.542C407.101,-365.279 418.391,-370.104 428,-376 446.5,-387.352 445.94,-396.961 464,-409 466.448,-410.632 469.058,-412.193 471.731,-413.67"/>
<polygon fill="midnightblue" stroke="midnightblue" points="470.415,-416.927 480.914,-418.343 473.589,-410.688 470.415,-416.927"/>
</g>
<!-- Node9 -->
<g id="node9" class="node"><title>Node9</title>
<g id="a_node9"><a xlink:href="../../d8/de2/menudefs_8qc.html#a5231f4ff2813f7de782b67d25a9e4cf9" target="_top" xlink:title="fopen">
<polygon fill="none" stroke="black" points="485.5,-380.5 485.5,-399.5 526.5,-399.5 526.5,-380.5 485.5,-380.5"/>
<text text-anchor="middle" x="506" y="-387.5" font-family="Helvetica,sans-Serif" font-size="10.00">fopen</text>
</a>
</g>
</g>
<!-- Node5&#45;&gt;Node9 -->
<g id="edge8" class="edge"><title>Node5&#45;&gt;Node9</title>
<path fill="none" stroke="midnightblue" d="M399.58,-361.589C422.962,-367.891 453.201,-376.04 475.292,-381.994"/>
<polygon fill="midnightblue" stroke="midnightblue" points="474.55,-385.418 485.116,-384.641 476.371,-378.659 474.55,-385.418"/>
</g>
<!-- Node10 -->
<g id="node10" class="node"><title>Node10</title>
<g id="a_node10"><a xlink:href="../../d8/de2/menudefs_8qc.html#a33a318a59e2648521862f24200a821df" target="_top" xlink:title="fputs">
<polygon fill="none" stroke="black" points="487,-342.5 487,-361.5 525,-361.5 525,-342.5 487,-342.5"/>
<text text-anchor="middle" x="506" y="-349.5" font-family="Helvetica,sans-Serif" font-size="10.00">fputs</text>
</a>
</g>
</g>
<!-- Node5&#45;&gt;Node10 -->
<g id="edge9" class="edge"><title>Node5&#45;&gt;Node10</title>
<path fill="none" stroke="midnightblue" d="M403.652,-352C426.819,-352 455.522,-352 476.462,-352"/>
<polygon fill="midnightblue" stroke="midnightblue" points="476.633,-355.5 486.633,-352 476.633,-348.5 476.633,-355.5"/>
</g>
<!-- Node11 -->
<g id="node11" class="node"><title>Node11</title>
<g id="a_node11"><a xlink:href="../../d8/de2/menudefs_8qc.html#ad76dc2b2895cd23f21e008f12a686158" target="_top" xlink:title="strcat">
<polygon fill="none" stroke="black" points="485.5,-228.5 485.5,-247.5 526.5,-247.5 526.5,-228.5 485.5,-228.5"/>
<text text-anchor="middle" x="506" y="-235.5" font-family="Helvetica,sans-Serif" font-size="10.00">strcat</text>
</a>
</g>
</g>
<!-- Node5&#45;&gt;Node11 -->
<g id="edge11" class="edge"><title>Node5&#45;&gt;Node11</title>
<path fill="none" stroke="midnightblue" d="M375.594,-342.194C388.622,-331.057 410.268,-312.194 428,-295 444.702,-278.805 445.109,-270.578 464,-257 467.757,-254.3 471.958,-251.836 476.2,-249.642"/>
<polygon fill="midnightblue" stroke="midnightblue" points="477.857,-252.73 485.394,-245.285 474.859,-246.404 477.857,-252.73"/>
</g>
<!-- Node12 -->
<g id="node12" class="node"><title>Node12</title>
<g id="a_node12"><a xlink:href="../../d8/de2/menudefs_8qc.html#a274680f571a231ddf29421b93d434bfa" target="_top" xlink:title="strlen">
<polygon fill="none" stroke="black" points="485.5,-304.5 485.5,-323.5 526.5,-323.5 526.5,-304.5 485.5,-304.5"/>
<text text-anchor="middle" x="506" y="-311.5" font-family="Helvetica,sans-Serif" font-size="10.00">strlen</text>
</a>
</g>
</g>
<!-- Node5&#45;&gt;Node12 -->
<g id="edge12" class="edge"><title>Node5&#45;&gt;Node12</title>
<path fill="none" stroke="midnightblue" d="M399.58,-342.411C422.962,-336.109 453.201,-327.96 475.292,-322.006"/>
<polygon fill="midnightblue" stroke="midnightblue" points="476.371,-325.341 485.116,-319.359 474.55,-318.582 476.371,-325.341"/>
</g>
<!-- Node13 -->
<g id="node13" class="node"><title>Node13</title>
<g id="a_node13"><a xlink:href="../../d8/de2/menudefs_8qc.html#a40f6c65c8bbcfa51df783f2809a2502b" target="_top" xlink:title="substring">
<polygon fill="none" stroke="black" points="478,-266.5 478,-285.5 534,-285.5 534,-266.5 478,-266.5"/>
<text text-anchor="middle" x="506" y="-273.5" font-family="Helvetica,sans-Serif" font-size="10.00">substring</text>
</a>
</g>
</g>
<!-- Node5&#45;&gt;Node13 -->
<g id="edge13" class="edge"><title>Node5&#45;&gt;Node13</title>
<path fill="none" stroke="midnightblue" d="M379.707,-342.5C399.212,-330.831 433.627,-310.659 464,-295 467.334,-293.281 470.853,-291.542 474.371,-289.849"/>
<polygon fill="midnightblue" stroke="midnightblue" points="475.999,-292.951 483.556,-285.525 473.017,-286.618 475.999,-292.951"/>
</g>
<!-- Node8 -->
<g id="node8" class="node"><title>Node8</title>
<g id="a_node8"><a xlink:href="../../d8/de2/menudefs_8qc.html#acf9c719e766113bad854907e87812e98" target="_top" xlink:title="print">
<polygon fill="none" stroke="black" points="584.5,-418.5 584.5,-437.5 619.5,-437.5 619.5,-418.5 584.5,-418.5"/>
<text text-anchor="middle" x="602" y="-425.5" font-family="Helvetica,sans-Serif" font-size="10.00">print</text>
</a>
</g>
</g>
<!-- Node7&#45;&gt;Node8 -->
<g id="edge7" class="edge"><title>Node7&#45;&gt;Node8</title>
<path fill="none" stroke="midnightblue" d="M547.683,-428C556.653,-428 565.936,-428 574.192,-428"/>
<polygon fill="midnightblue" stroke="midnightblue" points="574.342,-431.5 584.342,-428 574.342,-424.5 574.342,-431.5"/>
</g>
<!-- Node15 -->
<g id="node15" class="node"><title>Node15</title>
<g id="a_node15"><a xlink:href="../../d8/de2/menudefs_8qc.html#abd23315350cd01304b6bd77c4c5c07e6" target="_top" xlink:title="WriteByte">
<polygon fill="none" stroke="black" points="333,-114.5 333,-133.5 393,-133.5 393,-114.5 333,-114.5"/>
<text text-anchor="middle" x="363" y="-121.5" font-family="Helvetica,sans-Serif" font-size="10.00">WriteByte</text>
</a>
</g>
</g>
<!-- Node14&#45;&gt;Node15 -->
<g id="edge15" class="edge"><title>Node14&#45;&gt;Node15</title>
<path fill="none" stroke="midnightblue" d="M241.652,-190.491C248.722,-187.978 255.78,-184.855 262,-181 281.774,-168.743 278.173,-155.17 298,-143 305.679,-138.286 314.597,-134.683 323.292,-131.951"/>
<polygon fill="midnightblue" stroke="midnightblue" points="324.267,-135.313 332.937,-129.224 322.362,-128.577 324.267,-135.313"/>
</g>
<!-- Node16 -->
<g id="node16" class="node"><title>Node16</title>
<g id="a_node16"><a xlink:href="../../d8/de2/menudefs_8qc.html#aa8c03f058fec0c574e1bba13327f5a5b" target="_top" xlink:title="WriteCoord">
<polygon fill="none" stroke="black" points="330,-76.5 330,-95.5 396,-95.5 396,-76.5 330,-76.5"/>
<text text-anchor="middle" x="363" y="-83.5" font-family="Helvetica,sans-Serif" font-size="10.00">WriteCoord</text>
</a>
</g>
</g>
<!-- Node14&#45;&gt;Node16 -->
<g id="edge16" class="edge"><title>Node14&#45;&gt;Node16</title>
<path fill="none" stroke="midnightblue" d="M246.613,-190.467C252.184,-188.003 257.486,-184.902 262,-181 290.274,-156.555 269.619,-129.32 298,-105 304.32,-99.5846 312.129,-95.7123 320.096,-92.9435"/>
<polygon fill="midnightblue" stroke="midnightblue" points="321.198,-96.2675 329.801,-90.084 319.22,-89.5529 321.198,-96.2675"/>
</g>
<!-- Node18 -->
<g id="node18" class="node"><title>Node18</title>
<g id="a_node18"><a xlink:href="../../d3/d73/gamemode__ctf_8qc.html#ae7166d51e1e58830fd1a43b93781b835" target="_top" xlink:title="ctf_Return_Customize">
<polygon fill="none" stroke="black" points="305.5,-152.5 305.5,-171.5 420.5,-171.5 420.5,-152.5 305.5,-152.5"/>
<text text-anchor="middle" x="363" y="-159.5" font-family="Helvetica,sans-Serif" font-size="10.00">ctf_Return_Customize</text>
</a>
</g>
</g>
<!-- Node17&#45;&gt;Node18 -->
<g id="edge18" class="edge"><title>Node17&#45;&gt;Node18</title>
<path fill="none" stroke="midnightblue" d="M241.652,-228.491C248.722,-225.978 255.78,-222.855 262,-219 281.774,-206.743 278.173,-193.17 298,-181 301.403,-178.911 305.05,-177.04 308.812,-175.367"/>
<polygon fill="midnightblue" stroke="midnightblue" points="310.32,-178.534 318.332,-171.601 307.745,-172.025 310.32,-178.534"/>
</g>
<!-- Node19 -->
<g id="node19" class="node"><title>Node19</title>
<g id="a_node19"><a xlink:href="../../d3/d73/gamemode__ctf_8qc.html#a7a47b33d1dbec111614579feb8646515" target="_top" xlink:title="ctf_Stalemate_Customize">
<polygon fill="none" stroke="black" points="298,-190.5 298,-209.5 428,-209.5 428,-190.5 298,-190.5"/>
<text text-anchor="middle" x="363" y="-197.5" font-family="Helvetica,sans-Serif" font-size="10.00">ctf_Stalemate_Customize</text>
</a>
</g>
</g>
<!-- Node17&#45;&gt;Node19 -->
<g id="edge19" class="edge"><title>Node17&#45;&gt;Node19</title>
<path fill="none" stroke="midnightblue" d="M240.879,-228.411C262.353,-223.374 288.86,-217.156 311.597,-211.823"/>
<polygon fill="midnightblue" stroke="midnightblue" points="312.478,-215.211 321.415,-209.52 310.879,-208.396 312.478,-215.211"/>
</g>
<!-- Node20 -->
<g id="node20" class="node"><title>Node20</title>
<g id="a_node20"><a xlink:href="../../d4/d0c/csprogsdefs_8qc.html#acbb54a239d76062465dccbc6a6c6e464" target="_top" xlink:title="entity">
<polygon fill="none" stroke="black" points="485.5,-190.5 485.5,-209.5 526.5,-209.5 526.5,-190.5 485.5,-190.5"/>
<text text-anchor="middle" x="506" y="-197.5" font-family="Helvetica,sans-Serif" font-size="10.00">entity</text>
</a>
</g>
</g>
<!-- Node17&#45;&gt;Node20 -->
<g id="edge21" class="edge"><title>Node17&#45;&gt;Node20</title>
<path fill="none" stroke="midnightblue" d="M261.773,-235.508C307.826,-233.009 372.144,-228.159 428,-219 443.854,-216.4 461.252,-212.223 475.493,-208.447"/>
<polygon fill="midnightblue" stroke="midnightblue" points="476.506,-211.799 485.237,-205.796 474.669,-205.044 476.506,-211.799"/>
</g>
<!-- Node19&#45;&gt;Node20 -->
<g id="edge20" class="edge"><title>Node19&#45;&gt;Node20</title>
<path fill="none" stroke="midnightblue" d="M428.311,-200C444.587,-200 461.307,-200 474.964,-200"/>
<polygon fill="midnightblue" stroke="midnightblue" points="475.193,-203.5 485.193,-200 475.193,-196.5 475.193,-203.5"/>
</g>
<!-- Node24&#45;&gt;Node11 -->
<g id="edge28" class="edge"><title>Node24&#45;&gt;Node11</title>
<path fill="none" stroke="midnightblue" d="M399.58,-266.411C422.962,-260.109 453.201,-251.96 475.292,-246.006"/>
<polygon fill="midnightblue" stroke="midnightblue" points="476.371,-249.341 485.116,-243.359 474.55,-242.582 476.371,-249.341"/>
</g>
<!-- Node24&#45;&gt;Node20 -->
<g id="edge27" class="edge"><title>Node24&#45;&gt;Node20</title>
<path fill="none" stroke="midnightblue" d="M396.699,-266.458C407.101,-262.721 418.391,-257.896 428,-252 446.5,-240.648 445.94,-231.039 464,-219 467.774,-216.484 471.934,-214.136 476.114,-212.008"/>
<polygon fill="midnightblue" stroke="midnightblue" points="477.618,-215.168 485.153,-207.72 474.618,-208.844 477.618,-215.168"/>
</g>
</g>
</svg>
