<?xml version="1.0" encoding="UTF-8" standalone="no"?>
<!DOCTYPE svg PUBLIC "-//W3C//DTD SVG 1.1//EN"
 "http://www.w3.org/Graphics/SVG/1.1/DTD/svg11.dtd">
<!-- Generated by graphviz version 2.36.0 (20140111.2315)
 -->
<!-- Title: MUTATOR_HOOKFUNCTION Pages: 1 -->
<svg width="340pt" height="218pt"
 viewBox="0.00 0.00 340.00 218.00" xmlns="http://www.w3.org/2000/svg" xmlns:xlink="http://www.w3.org/1999/xlink">
<g id="graph0" class="graph" transform="scale(1 1) rotate(0) translate(4 214)">
<title>MUTATOR_HOOKFUNCTION</title>
<!-- Node1 -->
<g id="node1" class="node"><title>Node1</title>
<polygon fill="#bfbfbf" stroke="black" points="0.5,-95.5 0.5,-114.5 153.5,-114.5 153.5,-95.5 0.5,-95.5"/>
<text text-anchor="middle" x="77" y="-102.5" font-family="Helvetica,sans-Serif" font-size="10.00">MUTATOR_HOOKFUNCTION</text>
</g>
<!-- Node2 -->
<g id="node2" class="node"><title>Node2</title>
<g id="a_node2"><a xlink:href="../../db/d9f/state_8qh.html#afdb90637f8a711359249291ee3b3fde6" target="_top" xlink:title="CS">
<polygon fill="none" stroke="black" points="204.5,-190.5 204.5,-209.5 235.5,-209.5 235.5,-190.5 204.5,-190.5"/>
<text text-anchor="middle" x="220" y="-197.5" font-family="Helvetica,sans-Serif" font-size="10.00">CS</text>
</a>
</g>
</g>
<!-- Node1&#45;&gt;Node2 -->
<g id="edge1" class="edge"><title>Node1&#45;&gt;Node2</title>
<path fill="none" stroke="midnightblue" d="M92.2958,-114.632C116.787,-131.133 166.958,-164.936 196.285,-184.696"/>
<polygon fill="midnightblue" stroke="midnightblue" points="194.417,-187.658 204.666,-190.343 198.329,-181.852 194.417,-187.658"/>
</g>
<!-- Node3 -->
<g id="node3" class="node"><title>Node3</title>
<g id="a_node3"><a xlink:href="../../d4/d54/map_8qh.html#ac189c2086b07ba1ebaf3e630390ae0af" target="_top" xlink:title="db_put">
<polygon fill="none" stroke="black" points="286,-152.5 286,-171.5 332,-171.5 332,-152.5 286,-152.5"/>
<text text-anchor="middle" x="309" y="-159.5" font-family="Helvetica,sans-Serif" font-size="10.00">db_put</text>
</a>
</g>
</g>
<!-- Node1&#45;&gt;Node3 -->
<g id="edge2" class="edge"><title>Node1&#45;&gt;Node3</title>
<path fill="none" stroke="midnightblue" d="M102.556,-114.662C125.014,-123.177 159.311,-135.38 190,-143 218.594,-150.1 251.769,-155.169 275.648,-158.276"/>
<polygon fill="midnightblue" stroke="midnightblue" points="275.234,-161.751 285.592,-159.526 276.107,-154.806 275.234,-161.751"/>
</g>
<!-- Node4 -->
<g id="node4" class="node"><title>Node4</title>
<g id="a_node4"><a xlink:href="../../d4/d0c/csprogsdefs_8qc.html#acbb54a239d76062465dccbc6a6c6e464" target="_top" xlink:title="entity">
<polygon fill="none" stroke="black" points="199.5,-38.5 199.5,-57.5 240.5,-57.5 240.5,-38.5 199.5,-38.5"/>
<text text-anchor="middle" x="220" y="-45.5" font-family="Helvetica,sans-Serif" font-size="10.00">entity</text>
</a>
</g>
</g>
<!-- Node1&#45;&gt;Node4 -->
<g id="edge3" class="edge"><title>Node1&#45;&gt;Node4</title>
<path fill="none" stroke="midnightblue" d="M101.6,-95.4595C125.931,-85.6237 163.901,-70.2742 190.035,-59.7092"/>
<polygon fill="midnightblue" stroke="midnightblue" points="191.46,-62.9086 199.419,-55.9158 188.836,-56.4188 191.46,-62.9086"/>
</g>
<!-- Node5 -->
<g id="node5" class="node"><title>Node5</title>
<g id="a_node5"><a xlink:href="../../d8/de2/menudefs_8qc.html#ad76dc2b2895cd23f21e008f12a686158" target="_top" xlink:title="strcat">
<polygon fill="none" stroke="black" points="288.5,-76.5 288.5,-95.5 329.5,-95.5 329.5,-76.5 288.5,-76.5"/>
<text text-anchor="middle" x="309" y="-83.5" font-family="Helvetica,sans-Serif" font-size="10.00">strcat</text>
</a>
</g>
</g>
<!-- Node1&#45;&gt;Node5 -->
<g id="edge4" class="edge"><title>Node1&#45;&gt;Node5</title>
<path fill="none" stroke="midnightblue" d="M153.629,-98.7524C196.027,-95.2499 246.544,-91.0768 277.951,-88.4823"/>
<polygon fill="midnightblue" stroke="midnightblue" points="278.541,-91.9456 288.219,-87.6341 277.964,-84.9694 278.541,-91.9456"/>
</g>
<!-- Node6 -->
<g id="node6" class="node"><title>Node6</title>
<g id="a_node6"><a xlink:href="../../d8/de2/menudefs_8qc.html#ae06db7c87845d853670a09a1d487b1db" target="_top" xlink:title="strzone">
<polygon fill="none" stroke="black" points="195.5,-0.5 195.5,-19.5 244.5,-19.5 244.5,-0.5 195.5,-0.5"/>
<text text-anchor="middle" x="220" y="-7.5" font-family="Helvetica,sans-Serif" font-size="10.00">strzone</text>
</a>
</g>
</g>
<!-- Node1&#45;&gt;Node6 -->
<g id="edge5" class="edge"><title>Node1&#45;&gt;Node6</title>
<path fill="none" stroke="midnightblue" d="M92.0947,-95.3286C113.278,-80.8178 154.613,-52.5962 190,-29 191.872,-27.7519 193.815,-26.4633 195.769,-25.1726"/>
<polygon fill="midnightblue" stroke="midnightblue" points="197.783,-28.0374 204.217,-19.6197 193.938,-22.188 197.783,-28.0374"/>
</g>
<!-- Node7 -->
<g id="node7" class="node"><title>Node7</title>
<g id="a_node7"><a xlink:href="../../dc/dc6/server_2miscfunctions_8qc.html#a943d9da424f168efb8d407b4de9833a2" target="_top" xlink:title="uid2name">
<polygon fill="none" stroke="black" points="190.5,-114.5 190.5,-133.5 249.5,-133.5 249.5,-114.5 190.5,-114.5"/>
<text text-anchor="middle" x="220" y="-121.5" font-family="Helvetica,sans-Serif" font-size="10.00">uid2name</text>
</a>
</g>
</g>
<!-- Node1&#45;&gt;Node7 -->
<g id="edge6" class="edge"><title>Node1&#45;&gt;Node7</title>
<path fill="none" stroke="midnightblue" d="M148.913,-114.556C159.69,-116.008 170.455,-117.458 180.199,-118.772"/>
<polygon fill="midnightblue" stroke="midnightblue" points="179.947,-122.269 190.324,-120.136 180.882,-115.332 179.947,-122.269"/>
</g>
<!-- Node7&#45;&gt;Node3 -->
<g id="edge8" class="edge"><title>Node7&#45;&gt;Node3</title>
<path fill="none" stroke="midnightblue" d="M242.954,-133.589C253.154,-138.044 265.47,-143.423 276.628,-148.297"/>
<polygon fill="midnightblue" stroke="midnightblue" points="275.488,-151.619 286.053,-152.414 278.29,-145.204 275.488,-151.619"/>
</g>
<!-- Node7&#45;&gt;Node5 -->
<g id="edge9" class="edge"><title>Node7&#45;&gt;Node5</title>
<path fill="none" stroke="midnightblue" d="M242.954,-114.411C253.887,-109.636 267.249,-103.799 279.012,-98.6616"/>
<polygon fill="midnightblue" stroke="midnightblue" points="280.665,-101.759 288.428,-94.5487 277.863,-95.344 280.665,-101.759"/>
</g>
<!-- Node8 -->
<g id="node8" class="node"><title>Node8</title>
<g id="a_node8"><a xlink:href="../../d4/d54/map_8qh.html#a9ef8574526bd0fc3ba024e3ca148de85" target="_top" xlink:title="db_get">
<polygon fill="none" stroke="black" points="286,-114.5 286,-133.5 332,-133.5 332,-114.5 286,-114.5"/>
<text text-anchor="middle" x="309" y="-121.5" font-family="Helvetica,sans-Serif" font-size="10.00">db_get</text>
</a>
</g>
</g>
<!-- Node7&#45;&gt;Node8 -->
<g id="edge7" class="edge"><title>Node7&#45;&gt;Node8</title>
<path fill="none" stroke="midnightblue" d="M249.97,-124C258.172,-124 267.153,-124 275.547,-124"/>
<polygon fill="midnightblue" stroke="midnightblue" points="275.761,-127.5 285.761,-124 275.761,-120.5 275.761,-127.5"/>
</g>
</g>
</svg>
