<?xml version="1.0" encoding="UTF-8" standalone="no"?>
<!DOCTYPE svg PUBLIC "-//W3C//DTD SVG 1.1//EN"
 "http://www.w3.org/Graphics/SVG/1.1/DTD/svg11.dtd">
<!-- Generated by graphviz version 2.26.3 (20100126.1600)
 -->
<!-- Title: G Pages: 1 -->
<svg width="218pt" height="270pt"
 viewBox="0.00 0.00 218.00 270.00" xmlns="http://www.w3.org/2000/svg" xmlns:xlink="http://www.w3.org/1999/xlink">
<g id="graph1" class="graph" transform="scale(1 1) rotate(0) translate(4 266)">
<title>G</title>
<!-- Node1 -->
<g id="node1" class="node"><title>Node1</title>
<polygon fill="#bfbfbf" stroke="black" points="0.5,-120.5 0.5,-141.5 89.5,-141.5 89.5,-120.5 0.5,-120.5"/>
<text text-anchor="middle" x="45" y="-128.5" font-family="Helvetica,sans-Serif" font-size="10.00">getcommandkey</text>
</g>
<!-- Node2 -->
<g id="node3" class="node"><title>Node2</title>
<a xlink:href="../../d8/de2/menudefs_8qc.html#ae3e9d36eda7886f5fe58e5201291dd78" target="_top" xlink:title="argv">
<polygon fill="none" stroke="black" points="150.5,-240.5 150.5,-261.5 185.5,-261.5 185.5,-240.5 150.5,-240.5"/>
<text text-anchor="middle" x="168" y="-248.5" font-family="Helvetica,sans-Serif" font-size="10.00">argv</text>
</a>
</g>
<!-- Node1&#45;&gt;Node2 -->
<g id="edge2" class="edge"><title>Node1&#45;&gt;Node2</title>
<path fill="none" stroke="midnightblue" d="M51.338,-141.648C63.5887,-161.478 92.3024,-204.456 126,-231 130.52,-234.561 135.778,-237.689 141.012,-240.349"/>
<polygon fill="midnightblue" stroke="midnightblue" points="139.699,-243.598 150.244,-244.625 142.641,-237.246 139.699,-243.598"/>
</g>
<!-- Node3 -->
<g id="node5" class="node"><title>Node3</title>
<a xlink:href="../../d5/df2/common_2util_8qh.html#a670fd3f9a229fc1532145c01a4d2b15b" target="_top" xlink:title="db_get">
<polygon fill="none" stroke="black" points="145,-200.5 145,-221.5 191,-221.5 191,-200.5 145,-200.5"/>
<text text-anchor="middle" x="168" y="-208.5" font-family="Helvetica,sans-Serif" font-size="10.00">db_get</text>
</a>
</g>
<!-- Node1&#45;&gt;Node3 -->
<g id="edge4" class="edge"><title>Node1&#45;&gt;Node3</title>
<path fill="none" stroke="midnightblue" d="M57.6477,-141.577C73.1464,-154.248 100.498,-175.679 126,-191 129.163,-192.9 132.535,-194.759 135.94,-196.531"/>
<polygon fill="midnightblue" stroke="midnightblue" points="134.398,-199.673 144.911,-200.987 137.512,-193.404 134.398,-199.673"/>
</g>
<!-- Node4 -->
<g id="node7" class="node"><title>Node4</title>
<a xlink:href="../../d5/df2/common_2util_8qh.html#ae5419c646d89ed2845be766723b0cb6f" target="_top" xlink:title="db_put">
<polygon fill="none" stroke="black" points="145,-160.5 145,-181.5 191,-181.5 191,-160.5 145,-160.5"/>
<text text-anchor="middle" x="168" y="-168.5" font-family="Helvetica,sans-Serif" font-size="10.00">db_put</text>
</a>
</g>
<!-- Node1&#45;&gt;Node4 -->
<g id="edge6" class="edge"><title>Node1&#45;&gt;Node4</title>
<path fill="none" stroke="midnightblue" d="M77.3168,-141.51C95.1306,-147.303 117.197,-154.479 135.102,-160.301"/>
<polygon fill="midnightblue" stroke="midnightblue" points="134.241,-163.702 144.833,-163.466 136.406,-157.045 134.241,-163.702"/>
</g>
<!-- Node5 -->
<g id="node9" class="node"><title>Node5</title>
<a xlink:href="../../d8/de2/menudefs_8qc.html#a6430688f24d17bc9b9c3eea2cc586bc3" target="_top" xlink:title="keynumtostring">
<polygon fill="none" stroke="black" points="126.5,-120.5 126.5,-141.5 209.5,-141.5 209.5,-120.5 126.5,-120.5"/>
<text text-anchor="middle" x="168" y="-128.5" font-family="Helvetica,sans-Serif" font-size="10.00">keynumtostring</text>
</a>
</g>
<!-- Node1&#45;&gt;Node5 -->
<g id="edge8" class="edge"><title>Node1&#45;&gt;Node5</title>
<path fill="none" stroke="midnightblue" d="M89.7538,-131C98.3442,-131 107.406,-131 116.198,-131"/>
<polygon fill="midnightblue" stroke="midnightblue" points="116.348,-134.5 126.348,-131 116.348,-127.5 116.348,-134.5"/>
</g>
<!-- Node6 -->
<g id="node11" class="node"><title>Node6</title>
<a xlink:href="../../d8/de2/menudefs_8qc.html#a2f6d3020689c0e872cfb455d0b2cbd4a" target="_top" xlink:title="stof">
<polygon fill="none" stroke="black" points="151.5,-80.5 151.5,-101.5 184.5,-101.5 184.5,-80.5 151.5,-80.5"/>
<text text-anchor="middle" x="168" y="-88.5" font-family="Helvetica,sans-Serif" font-size="10.00">stof</text>
</a>
</g>
<!-- Node1&#45;&gt;Node6 -->
<g id="edge10" class="edge"><title>Node1&#45;&gt;Node6</title>
<path fill="none" stroke="midnightblue" d="M77.3168,-120.49C97.3755,-113.967 122.826,-105.691 141.656,-99.5671"/>
<polygon fill="midnightblue" stroke="midnightblue" points="142.932,-102.833 151.36,-96.4115 140.768,-96.1757 142.932,-102.833"/>
</g>
<!-- Node7 -->
<g id="node13" class="node"><title>Node7</title>
<a xlink:href="../../d8/de2/menudefs_8qc.html#ad76dc2b2895cd23f21e008f12a686158" target="_top" xlink:title="strcat">
<polygon fill="none" stroke="black" points="147.5,-40.5 147.5,-61.5 188.5,-61.5 188.5,-40.5 147.5,-40.5"/>
<text text-anchor="middle" x="168" y="-48.5" font-family="Helvetica,sans-Serif" font-size="10.00">strcat</text>
</a>
</g>
<!-- Node1&#45;&gt;Node7 -->
<g id="edge12" class="edge"><title>Node1&#45;&gt;Node7</title>
<path fill="none" stroke="midnightblue" d="M57.6477,-120.423C73.1464,-107.752 100.498,-86.3209 126,-71 129.738,-68.7541 133.768,-66.5658 137.801,-64.5107"/>
<polygon fill="midnightblue" stroke="midnightblue" points="139.619,-67.5181 147.077,-59.9929 136.554,-61.2247 139.619,-67.5181"/>
</g>
<!-- Node8 -->
<g id="node15" class="node"><title>Node8</title>
<a xlink:href="../../d8/de2/menudefs_8qc.html#adbf0a401c10df5580b133d71bc6d8ff4" target="_top" xlink:title="tokenize">
<polygon fill="none" stroke="black" points="141.5,-0.5 141.5,-21.5 194.5,-21.5 194.5,-0.5 141.5,-0.5"/>
<text text-anchor="middle" x="168" y="-8.5" font-family="Helvetica,sans-Serif" font-size="10.00">tokenize</text>
</a>
</g>
<!-- Node1&#45;&gt;Node8 -->
<g id="edge14" class="edge"><title>Node1&#45;&gt;Node8</title>
<path fill="none" stroke="midnightblue" d="M51.338,-120.352C63.5887,-100.522 92.3024,-57.544 126,-31 127.998,-29.4258 130.141,-27.9362 132.362,-26.5342"/>
<polygon fill="midnightblue" stroke="midnightblue" points="134.183,-29.5254 141.177,-21.5673 130.747,-23.4268 134.183,-29.5254"/>
</g>
</g>
</svg>
