<?xml version="1.0" encoding="UTF-8" standalone="no"?>
<!DOCTYPE svg PUBLIC "-//W3C//DTD SVG 1.1//EN"
 "http://www.w3.org/Graphics/SVG/1.1/DTD/svg11.dtd">
<!-- Generated by graphviz version 2.38.0 (20140413.2041)
 -->
<!-- Title: RegisterTeam Pages: 1 -->
<svg width="837pt" height="180pt"
 viewBox="0.00 0.00 837.00 180.00" xmlns="http://www.w3.org/2000/svg" xmlns:xlink="http://www.w3.org/1999/xlink">
<g id="graph0" class="graph" transform="scale(1 1) rotate(0) translate(4 176)">
<title>RegisterTeam</title>
<!-- Node1 -->
<g id="node1" class="node"><title>Node1</title>
<polygon fill="#bfbfbf" stroke="black" points="0,-95.5 0,-114.5 80,-114.5 80,-95.5 0,-95.5"/>
<text text-anchor="middle" x="40" y="-102.5" font-family="Helvetica,sans-Serif" font-size="10.00">RegisterTeam</text>
</g>
<!-- Node2 -->
<g id="node2" class="node"><title>Node2</title>
<g id="a_node2"><a xlink:href="../../d0/d2a/client_2main_8qh.html#ab1762d75cc18535fa62c519ff652e0c9" target="_top" xlink:title="GetTeam">
<polygon fill="none" stroke="black" points="116,-95.5 116,-114.5 175,-114.5 175,-95.5 116,-95.5"/>
<text text-anchor="middle" x="145.5" y="-102.5" font-family="Helvetica,sans-Serif" font-size="10.00">GetTeam</text>
</a>
</g>
</g>
<!-- Node1&#45;&gt;Node2 -->
<g id="edge1" class="edge"><title>Node1&#45;&gt;Node2</title>
<path fill="none" stroke="midnightblue" d="M90.3398,-105C99.1262,-105 108.005,-105 115.961,-105"/>
<polygon fill="midnightblue" stroke="midnightblue" points="90.1289,-101.5 80.1289,-105 90.1289,-108.5 90.1289,-101.5"/>
</g>
<!-- Node3 -->
<g id="node3" class="node"><title>Node3</title>
<g id="a_node3"><a xlink:href="../../df/d30/client_2main_8qc.html#ae7a71c50fddc1b6cede7022e0304a3fe" target="_top" xlink:title="CSQC_Init">
<polygon fill="none" stroke="black" points="234,-152.5 234,-171.5 298,-171.5 298,-152.5 234,-152.5"/>
<text text-anchor="middle" x="266" y="-159.5" font-family="Helvetica,sans-Serif" font-size="10.00">CSQC_Init</text>
</a>
</g>
</g>
<!-- Node2&#45;&gt;Node3 -->
<g id="edge2" class="edge"><title>Node2&#45;&gt;Node3</title>
<path fill="none" stroke="midnightblue" d="M169.459,-120.001C181.52,-127.497 196.726,-136.361 211,-143 218.479,-146.479 226.785,-149.699 234.595,-152.463"/>
<polygon fill="midnightblue" stroke="midnightblue" points="171.239,-116.985 160.917,-114.594 167.495,-122.899 171.239,-116.985"/>
</g>
<!-- Node4 -->
<g id="node4" class="node"><title>Node4</title>
<g id="a_node4"><a xlink:href="../../df/d21/infomessages_8qc.html#a34ab7f0b1f8fc8af94288e83c3f42798" target="_top" xlink:title="HUD_InfoMessages">
<polygon fill="none" stroke="black" points="211,-114.5 211,-133.5 321,-133.5 321,-114.5 211,-114.5"/>
<text text-anchor="middle" x="266" y="-121.5" font-family="Helvetica,sans-Serif" font-size="10.00">HUD_InfoMessages</text>
</a>
</g>
</g>
<!-- Node2&#45;&gt;Node4 -->
<g id="edge3" class="edge"><title>Node2&#45;&gt;Node4</title>
<path fill="none" stroke="midnightblue" d="M185.13,-111.194C193.275,-112.5 202.015,-113.901 210.616,-115.28"/>
<polygon fill="midnightblue" stroke="midnightblue" points="185.614,-107.727 175.186,-109.599 184.505,-114.638 185.614,-107.727"/>
</g>
<!-- Node5 -->
<g id="node5" class="node"><title>Node5</title>
<g id="a_node5"><a xlink:href="../../df/d30/client_2main_8qc.html#a62cc679b39b73d92f0d09114fb2c20e2" target="_top" xlink:title="NET_HANDLE">
<polygon fill="none" stroke="black" points="225.5,-76.5 225.5,-95.5 306.5,-95.5 306.5,-76.5 225.5,-76.5"/>
<text text-anchor="middle" x="266" y="-83.5" font-family="Helvetica,sans-Serif" font-size="10.00">NET_HANDLE</text>
</a>
</g>
</g>
<!-- Node2&#45;&gt;Node5 -->
<g id="edge4" class="edge"><title>Node2&#45;&gt;Node5</title>
<path fill="none" stroke="midnightblue" d="M185.151,-98.8028C198.044,-96.7356 212.422,-94.4302 225.387,-92.3515"/>
<polygon fill="midnightblue" stroke="midnightblue" points="184.505,-95.3615 175.186,-100.401 185.614,-102.273 184.505,-95.3615"/>
</g>
<!-- Node6 -->
<g id="node6" class="node"><title>Node6</title>
<g id="a_node6"><a xlink:href="../../d0/d2a/client_2main_8qh.html#a18c0737ff9239ccd46eb0a835a399a3d" target="_top" xlink:title="SetTeam">
<polygon fill="none" stroke="black" points="236.5,-38.5 236.5,-57.5 295.5,-57.5 295.5,-38.5 236.5,-38.5"/>
<text text-anchor="middle" x="266" y="-45.5" font-family="Helvetica,sans-Serif" font-size="10.00">SetTeam</text>
</a>
</g>
</g>
<!-- Node2&#45;&gt;Node6 -->
<g id="edge5" class="edge"><title>Node2&#45;&gt;Node6</title>
<path fill="none" stroke="midnightblue" d="M169.459,-89.9993C181.52,-82.5027 196.726,-73.6392 211,-67 219.02,-63.2696 227.99,-59.8366 236.281,-56.9451"/>
<polygon fill="midnightblue" stroke="midnightblue" points="167.495,-87.1005 160.917,-95.4062 171.239,-93.0153 167.495,-87.1005"/>
</g>
<!-- Node7 -->
<g id="node7" class="node"><title>Node7</title>
<g id="a_node7"><a xlink:href="../../d4/d2b/scoreboard_8qh.html#a786ae1643fa32d62926c79d548105082" target="_top" xlink:title="Scoreboard_UpdatePlayerTeams">
<polygon fill="none" stroke="black" points="357,-76.5 357,-95.5 530,-95.5 530,-76.5 357,-76.5"/>
<text text-anchor="middle" x="443.5" y="-83.5" font-family="Helvetica,sans-Serif" font-size="10.00">Scoreboard_UpdatePlayerTeams</text>
</a>
</g>
</g>
<!-- Node6&#45;&gt;Node7 -->
<g id="edge6" class="edge"><title>Node6&#45;&gt;Node7</title>
<path fill="none" stroke="midnightblue" d="M305.598,-56.3574C333.022,-62.2953 369.9,-70.2803 398.471,-76.4667"/>
<polygon fill="midnightblue" stroke="midnightblue" points="306.102,-52.8855 295.588,-54.1899 304.621,-59.7269 306.102,-52.8855"/>
</g>
<!-- Node11 -->
<g id="node11" class="node"><title>Node11</title>
<g id="a_node11"><a xlink:href="../../df/d30/client_2main_8qc.html#a937ea7da9d0d850374c39c3bd67a4dfe" target="_top" xlink:title="Playerchecker_Think">
<polygon fill="none" stroke="black" points="387,-38.5 387,-57.5 500,-57.5 500,-38.5 387,-38.5"/>
<text text-anchor="middle" x="443.5" y="-45.5" font-family="Helvetica,sans-Serif" font-size="10.00">Playerchecker_Think</text>
</a>
</g>
</g>
<!-- Node6&#45;&gt;Node11 -->
<g id="edge10" class="edge"><title>Node6&#45;&gt;Node11</title>
<path fill="none" stroke="midnightblue" d="M305.673,-48C329.53,-48 360.522,-48 386.976,-48"/>
<polygon fill="midnightblue" stroke="midnightblue" points="305.588,-44.5001 295.588,-48 305.588,-51.5001 305.588,-44.5001"/>
</g>
<!-- Node15 -->
<g id="node15" class="node"><title>Node15</title>
<g id="a_node15"><a xlink:href="../../df/d30/client_2main_8qc.html#a55741734b1484ff2d8f3d76de5e7dc2f" target="_top" xlink:title="Ent_RemovePlayerScore">
<polygon fill="none" stroke="black" points="377,-0.5 377,-19.5 510,-19.5 510,-0.5 377,-0.5"/>
<text text-anchor="middle" x="443.5" y="-7.5" font-family="Helvetica,sans-Serif" font-size="10.00">Ent_RemovePlayerScore</text>
</a>
</g>
</g>
<!-- Node6&#45;&gt;Node15 -->
<g id="edge14" class="edge"><title>Node6&#45;&gt;Node15</title>
<path fill="none" stroke="midnightblue" d="M305.598,-39.6426C333.022,-33.7047 369.9,-25.7197 398.471,-19.5333"/>
<polygon fill="midnightblue" stroke="midnightblue" points="304.621,-36.2731 295.588,-41.8101 306.102,-43.1145 304.621,-36.2731"/>
</g>
<!-- Node8 -->
<g id="node8" class="node"><title>Node8</title>
<g id="a_node8"><a xlink:href="../../d6/d8f/score_8qc.html#a8266d5d080761ce457b269fd0a6a22c1" target="_top" xlink:title="HUD_Score_Rankings">
<polygon fill="none" stroke="black" points="566,-114.5 566,-133.5 686,-133.5 686,-114.5 566,-114.5"/>
<text text-anchor="middle" x="626" y="-121.5" font-family="Helvetica,sans-Serif" font-size="10.00">HUD_Score_Rankings</text>
</a>
</g>
</g>
<!-- Node7&#45;&gt;Node8 -->
<g id="edge7" class="edge"><title>Node7&#45;&gt;Node8</title>
<path fill="none" stroke="midnightblue" d="M499.985,-97.681C525.582,-103.07 555.584,-109.386 579.78,-114.48"/>
<polygon fill="midnightblue" stroke="midnightblue" points="500.554,-94.2243 490.048,-95.589 499.112,-101.074 500.554,-94.2243"/>
</g>
<!-- Node10 -->
<g id="node10" class="node"><title>Node10</title>
<g id="a_node10"><a xlink:href="../../d4/d2b/scoreboard_8qh.html#a74fe9da906a0dda510849ac57116bba3" target="_top" xlink:title="Scoreboard_Draw">
<polygon fill="none" stroke="black" points="575.5,-76.5 575.5,-95.5 676.5,-95.5 676.5,-76.5 575.5,-76.5"/>
<text text-anchor="middle" x="626" y="-83.5" font-family="Helvetica,sans-Serif" font-size="10.00">Scoreboard_Draw</text>
</a>
</g>
</g>
<!-- Node7&#45;&gt;Node10 -->
<g id="edge9" class="edge"><title>Node7&#45;&gt;Node10</title>
<path fill="none" stroke="midnightblue" d="M540.411,-86C552.484,-86 564.421,-86 575.354,-86"/>
<polygon fill="midnightblue" stroke="midnightblue" points="540.257,-82.5001 530.257,-86 540.257,-89.5001 540.257,-82.5001"/>
</g>
<!-- Node9 -->
<g id="node9" class="node"><title>Node9</title>
<g id="a_node9"><a xlink:href="../../d6/d8f/score_8qc.html#af299e2a5219b4b963a923527b78ed9a7" target="_top" xlink:title="HUD_Score">
<polygon fill="none" stroke="black" points="739.5,-114.5 739.5,-133.5 811.5,-133.5 811.5,-114.5 739.5,-114.5"/>
<text text-anchor="middle" x="775.5" y="-121.5" font-family="Helvetica,sans-Serif" font-size="10.00">HUD_Score</text>
</a>
</g>
</g>
<!-- Node8&#45;&gt;Node9 -->
<g id="edge8" class="edge"><title>Node8&#45;&gt;Node9</title>
<path fill="none" stroke="midnightblue" d="M696.34,-124C711.165,-124 726.229,-124 739.123,-124"/>
<polygon fill="midnightblue" stroke="midnightblue" points="696.144,-120.5 686.144,-124 696.144,-127.5 696.144,-120.5"/>
</g>
<!-- Node12 -->
<g id="node12" class="node"><title>Node12</title>
<g id="a_node12"><a xlink:href="../../d0/d2a/client_2main_8qh.html#a46ab77a8e6731f82b57ed43c3fe5eeea" target="_top" xlink:title="PostInit">
<polygon fill="none" stroke="black" points="600,-38.5 600,-57.5 652,-57.5 652,-38.5 600,-38.5"/>
<text text-anchor="middle" x="626" y="-45.5" font-family="Helvetica,sans-Serif" font-size="10.00">PostInit</text>
</a>
</g>
</g>
<!-- Node11&#45;&gt;Node12 -->
<g id="edge11" class="edge"><title>Node11&#45;&gt;Node12</title>
<path fill="none" stroke="midnightblue" d="M510.498,-48C541.613,-48 576.881,-48 599.954,-48"/>
<polygon fill="midnightblue" stroke="midnightblue" points="510.129,-44.5001 500.129,-48 510.129,-51.5001 510.129,-44.5001"/>
</g>
<!-- Node13 -->
<g id="node13" class="node"><title>Node13</title>
<g id="a_node13"><a xlink:href="../../d6/dd3/view_8qc.html#a7b9e2c12c6a461c93afb197bd1a93c8f" target="_top" xlink:title="CSQC_UpdateView">
<polygon fill="none" stroke="black" points="722,-57.5 722,-76.5 829,-76.5 829,-57.5 722,-57.5"/>
<text text-anchor="middle" x="775.5" y="-64.5" font-family="Helvetica,sans-Serif" font-size="10.00">CSQC_UpdateView</text>
</a>
</g>
</g>
<!-- Node12&#45;&gt;Node13 -->
<g id="edge12" class="edge"><title>Node12&#45;&gt;Node13</title>
<path fill="none" stroke="midnightblue" d="M661.993,-52.5076C679.843,-54.8068 701.923,-57.6511 721.783,-60.2093"/>
<polygon fill="midnightblue" stroke="midnightblue" points="662.387,-49.0294 652.021,-51.2231 661.492,-55.9721 662.387,-49.0294"/>
</g>
<!-- Node14 -->
<g id="node14" class="node"><title>Node14</title>
<g id="a_node14"><a xlink:href="../../df/d30/client_2main_8qc.html#a457fb0914a984ccdfa934d4b5376b495" target="_top" xlink:title="NET_HANDLE">
<polygon fill="none" stroke="black" points="735,-19.5 735,-38.5 816,-38.5 816,-19.5 735,-19.5"/>
<text text-anchor="middle" x="775.5" y="-26.5" font-family="Helvetica,sans-Serif" font-size="10.00">NET_HANDLE</text>
</a>
</g>
</g>
<!-- Node12&#45;&gt;Node14 -->
<g id="edge13" class="edge"><title>Node12&#45;&gt;Node14</title>
<path fill="none" stroke="midnightblue" d="M662.2,-43.4657C684.07,-40.6486 712.231,-37.021 734.882,-34.1034"/>
<polygon fill="midnightblue" stroke="midnightblue" points="661.492,-40.0279 652.021,-44.7769 662.387,-46.9706 661.492,-40.0279"/>
</g>
<!-- Node16 -->
<g id="node16" class="node"><title>Node16</title>
<g id="a_node16"><a xlink:href="../../df/d30/client_2main_8qc.html#a354256327d864c9cb61a6a33dcc7e9f3" target="_top" xlink:title="NET_HANDLE">
<polygon fill="none" stroke="black" points="585.5,-0.5 585.5,-19.5 666.5,-19.5 666.5,-0.5 585.5,-0.5"/>
<text text-anchor="middle" x="626" y="-7.5" font-family="Helvetica,sans-Serif" font-size="10.00">NET_HANDLE</text>
</a>
</g>
</g>
<!-- Node15&#45;&gt;Node16 -->
<g id="edge15" class="edge"><title>Node15&#45;&gt;Node16</title>
<path fill="none" stroke="midnightblue" d="M520.342,-10C542.699,-10 566.267,-10 585.366,-10"/>
<polygon fill="midnightblue" stroke="midnightblue" points="520.175,-6.5001 510.175,-10 520.175,-13.5001 520.175,-6.5001"/>
</g>
</g>
</svg>
