<?xml version="1.0" encoding="UTF-8" standalone="no"?>
<!DOCTYPE svg PUBLIC "-//W3C//DTD SVG 1.1//EN"
 "http://www.w3.org/Graphics/SVG/1.1/DTD/svg11.dtd">
<!-- Generated by graphviz version 2.36.0 (20140111.2315)
 -->
<!-- Title: Drag_Update Pages: 1 -->
<svg width="626pt" height="66pt"
 viewBox="0.00 0.00 626.00 66.00" xmlns="http://www.w3.org/2000/svg" xmlns:xlink="http://www.w3.org/1999/xlink">
<g id="graph0" class="graph" transform="scale(1 1) rotate(0) translate(4 62)">
<title>Drag_Update</title>
<!-- Node1 -->
<g id="node1" class="node"><title>Node1</title>
<polygon fill="#bfbfbf" stroke="black" points="0,-19.5 0,-38.5 74,-38.5 74,-19.5 0,-19.5"/>
<text text-anchor="middle" x="37" y="-26.5" font-family="Helvetica,sans-Serif" font-size="10.00">Drag_Update</text>
</g>
<!-- Node2 -->
<g id="node2" class="node"><title>Node2</title>
<g id="a_node2"><a xlink:href="../../d6/de9/cheats_8qc.html#a5fc7c576740d16f6075adccdc64c84a1" target="_top" xlink:title="Drag">
<polygon fill="none" stroke="black" points="110,-19.5 110,-38.5 148,-38.5 148,-19.5 110,-19.5"/>
<text text-anchor="middle" x="129" y="-26.5" font-family="Helvetica,sans-Serif" font-size="10.00">Drag</text>
</a>
</g>
</g>
<!-- Node1&#45;&gt;Node2 -->
<g id="edge1" class="edge"><title>Node1&#45;&gt;Node2</title>
<path fill="none" stroke="midnightblue" d="M84.3258,-29C93.437,-29 102.476,-29 109.946,-29"/>
<polygon fill="midnightblue" stroke="midnightblue" points="84.0879,-25.5001 74.0879,-29 84.0878,-32.5001 84.0879,-25.5001"/>
</g>
<!-- Node3 -->
<g id="node3" class="node"><title>Node3</title>
<g id="a_node3"><a xlink:href="../../d3/dca/cheats_8qh.html#ab12ab680ff52099e78d6e3a7968815dc" target="_top" xlink:title="CheatFrame">
<polygon fill="none" stroke="black" points="184.5,-19.5 184.5,-38.5 255.5,-38.5 255.5,-19.5 184.5,-19.5"/>
<text text-anchor="middle" x="220" y="-26.5" font-family="Helvetica,sans-Serif" font-size="10.00">CheatFrame</text>
</a>
</g>
</g>
<!-- Node2&#45;&gt;Node3 -->
<g id="edge2" class="edge"><title>Node2&#45;&gt;Node3</title>
<path fill="none" stroke="midnightblue" d="M158.033,-29C166.414,-29 175.703,-29 184.451,-29"/>
<polygon fill="midnightblue" stroke="midnightblue" points="158.011,-25.5001 148.01,-29 158.01,-32.5001 158.011,-25.5001"/>
</g>
<!-- Node4 -->
<g id="node4" class="node"><title>Node4</title>
<g id="a_node4"><a xlink:href="../../df/dd7/server_2client_8qc.html#a35da2ff46a7d16ee6dd935fc1e65a72c" target="_top" xlink:title="PlayerPostThink">
<polygon fill="none" stroke="black" points="292.5,-19.5 292.5,-38.5 381.5,-38.5 381.5,-19.5 292.5,-19.5"/>
<text text-anchor="middle" x="337" y="-26.5" font-family="Helvetica,sans-Serif" font-size="10.00">PlayerPostThink</text>
</a>
</g>
</g>
<!-- Node3&#45;&gt;Node4 -->
<g id="edge3" class="edge"><title>Node3&#45;&gt;Node4</title>
<path fill="none" stroke="midnightblue" d="M265.514,-29C274.251,-29 283.41,-29 292.126,-29"/>
<polygon fill="midnightblue" stroke="midnightblue" points="265.504,-25.5001 255.504,-29 265.504,-32.5001 265.504,-25.5001"/>
</g>
<!-- Node5 -->
<g id="node5" class="node"><title>Node5</title>
<g id="a_node5"><a xlink:href="../../d5/dd1/playerdemo_8qh.html#a3d6b65b19141e5215083447705deb88c" target="_top" xlink:title="playerdemo_read">
<polygon fill="none" stroke="black" points="418.5,-38.5 418.5,-57.5 509.5,-57.5 509.5,-38.5 418.5,-38.5"/>
<text text-anchor="middle" x="464" y="-45.5" font-family="Helvetica,sans-Serif" font-size="10.00">playerdemo_read</text>
</a>
</g>
</g>
<!-- Node4&#45;&gt;Node5 -->
<g id="edge4" class="edge"><title>Node4&#45;&gt;Node5</title>
<path fill="none" stroke="midnightblue" d="M391.891,-37.1914C400.682,-38.5277 409.706,-39.8993 418.247,-41.1976"/>
<polygon fill="midnightblue" stroke="midnightblue" points="392.131,-33.6878 381.719,-35.6453 391.079,-40.6084 392.131,-33.6878"/>
</g>
<!-- Node7 -->
<g id="node7" class="node"><title>Node7</title>
<g id="a_node7"><a xlink:href="../../d3/d4f/sv__main_8qc.html#a554af7e2ac58045168dad9eca30bc8b1" target="_top" xlink:title="StartFrame">
<polygon fill="none" stroke="black" points="431.5,-0.5 431.5,-19.5 496.5,-19.5 496.5,-0.5 431.5,-0.5"/>
<text text-anchor="middle" x="464" y="-7.5" font-family="Helvetica,sans-Serif" font-size="10.00">StartFrame</text>
</a>
</g>
</g>
<!-- Node4&#45;&gt;Node7 -->
<g id="edge6" class="edge"><title>Node4&#45;&gt;Node7</title>
<path fill="none" stroke="midnightblue" d="M391.863,-20.8128C405.323,-18.7669 419.328,-16.6381 431.316,-14.816"/>
<polygon fill="midnightblue" stroke="midnightblue" points="391.079,-17.3916 381.719,-22.3547 392.131,-24.3122 391.079,-17.3916"/>
</g>
<!-- Node6 -->
<g id="node6" class="node"><title>Node6</title>
<g id="a_node6"><a xlink:href="../../db/d47/sv__physics_8qc.html#a50dd909e0a02aa3e18e75c75fffae1ec" target="_top" xlink:title="sys_phys_ai">
<polygon fill="none" stroke="black" points="546.5,-38.5 546.5,-57.5 617.5,-57.5 617.5,-38.5 546.5,-38.5"/>
<text text-anchor="middle" x="582" y="-45.5" font-family="Helvetica,sans-Serif" font-size="10.00">sys_phys_ai</text>
</a>
</g>
</g>
<!-- Node5&#45;&gt;Node6 -->
<g id="edge5" class="edge"><title>Node5&#45;&gt;Node6</title>
<path fill="none" stroke="midnightblue" d="M519.615,-48C528.642,-48 537.779,-48 546.147,-48"/>
<polygon fill="midnightblue" stroke="midnightblue" points="519.517,-44.5001 509.517,-48 519.517,-51.5001 519.517,-44.5001"/>
</g>
</g>
</svg>
