<?xml version="1.0" encoding="UTF-8" standalone="no"?>
<!DOCTYPE svg PUBLIC "-//W3C//DTD SVG 1.1//EN"
 "http://www.w3.org/Graphics/SVG/1.1/DTD/svg11.dtd">
<!-- Generated by graphviz version 2.36.0 (20140111.2315)
 -->
<!-- Title: _Promise_done Pages: 1 -->
<!--zoomable 218 -->
<svg id="main" version="1.1" xmlns="http://www.w3.org/2000/svg" xmlns:xlink="http://www.w3.org/1999/xlink" xml:space="preserve" onload="init(evt)">
<style type="text/css"><![CDATA[
.edge:hover path { stroke: red; }
.edge:hover polygon { stroke: red; fill: red; }
]]></style>
<script type="text/javascript"><![CDATA[
var edges = document.getElementsByTagName('g');
if (edges && edges.length) {
  for (var i=0;i<edges.length;i++) {
    if (edges[i].id.substr(0,4)=='edge') {
      edges[i].setAttribute('class','edge');
    }
  }
}
]]></script>
        <defs>
                <circle id="rim" cx="0" cy="0" r="7"/>
                <circle id="rim2" cx="0" cy="0" r="3.5"/>
                <g id="zoomPlus">
                        <use xlink:href="#rim" fill="#404040">
                                <set attributeName="fill" to="#808080" begin="zoomplus.mouseover" end="zoomplus.mouseout"/>
                        </use>
                        <path d="M-4,0h8M0,-4v8" fill="none" stroke="white" stroke-width="1.5" pointer-events="none"/>
                </g>
                <g id="zoomMin">
                        <use xlink:href="#rim" fill="#404040">
                                <set attributeName="fill" to="#808080" begin="zoomminus.mouseover" end="zoomminus.mouseout"/>
                        </use>
                        <path d="M-4,0h8" fill="none" stroke="white" stroke-width="1.5" pointer-events="none"/>
                </g>
                <g id="dirArrow">
                        <path fill="none" stroke="white" stroke-width="1.5" d="M0,-3.0v7 M-2.5,-0.5L0,-3.0L2.5,-0.5"/>
                </g>
               <g id="resetDef">
                       <use xlink:href="#rim2" fill="#404040">
                               <set attributeName="fill" to="#808080" begin="reset.mouseover" end="reset.mouseout"/>
                       </use>
               </g>
        </defs>

<script type="text/javascript">
var viewWidth = 638;
var viewHeight = 218;
var sectionId = 'dynsection-3';
</script>
<script xlink:href="../../svgpan.js"/>
<svg id="graph" class="graph">
<g id="viewport">
<title>_Promise_done</title>
<!-- Node1 -->
<g id="node1" class="node"><title>Node1</title>
<polygon fill="#bfbfbf" stroke="black" points="0,-133.5 0,-152.5 84,-152.5 84,-133.5 0,-133.5"/>
<text text-anchor="middle" x="42" y="-140.5" font-family="Helvetica,sans-Serif" font-size="10.00">_Promise_done</text>
</g>
<!-- Node2 -->
<g id="node2" class="node"><title>Node2</title>
<g id="a_node2"><a xlink:href="../../d2/dce/promise_8qc.html#af9453e8f8c98191bbbc4cd1ee0430b42" target="_top" xlink:title="_Promise_then">
<polygon fill="none" stroke="black" points="120,-95.5 120,-114.5 202,-114.5 202,-95.5 120,-95.5"/>
<text text-anchor="middle" x="161" y="-102.5" font-family="Helvetica,sans-Serif" font-size="10.00">_Promise_then</text>
</a>
</g>
</g>
<!-- Node1&#45;&gt;Node2 -->
<g id="edge1" class="edge"><title>Node1&#45;&gt;Node2</title>
<path fill="none" stroke="midnightblue" d="M82.0424,-130.32C97.8509,-125.185 115.799,-119.356 130.485,-114.586"/>
<polygon fill="midnightblue" stroke="midnightblue" points="80.9538,-126.993 72.524,-133.411 83.1162,-133.651 80.9538,-126.993"/>
</g>
<!-- Node3 -->
<g id="node3" class="node"><title>Node3</title>
<g id="a_node3"><a xlink:href="../../d2/dce/promise_8qc.html#a48d362965d51dfa6285586ab7a28df59" target="_top" xlink:title="_Promise_handle">
<polygon fill="none" stroke="black" points="238,-190.5 238,-209.5 330,-209.5 330,-190.5 238,-190.5"/>
<text text-anchor="middle" x="284" y="-197.5" font-family="Helvetica,sans-Serif" font-size="10.00">_Promise_handle</text>
</a>
</g>
</g>
<!-- Node2&#45;&gt;Node3 -->
<g id="edge2" class="edge"><title>Node2&#45;&gt;Node3</title>
<path fill="none" stroke="midnightblue" d="M177.933,-122.261C192.602,-137.547 215.444,-159.874 238,-176 245.491,-181.355 254.322,-186.321 262.168,-190.329"/>
<polygon fill="midnightblue" stroke="midnightblue" points="180.089,-119.445 170.678,-114.577 174.999,-124.251 180.089,-119.445"/>
</g>
<!-- Node9 -->
<g id="node9" class="node"><title>Node9</title>
<g id="a_node9"><a xlink:href="../../da/d22/promise_8qh.html#afef87df20c280f56e5dd3fe27f5fdc7a" target="_top" xlink:title="Promise_then_">
<polygon fill="none" stroke="black" points="243,-38.5 243,-57.5 325,-57.5 325,-38.5 243,-38.5"/>
<text text-anchor="middle" x="284" y="-45.5" font-family="Helvetica,sans-Serif" font-size="10.00">Promise_then_</text>
</a>
</g>
</g>
<!-- Node2&#45;&gt;Node9 -->
<g id="edge11" class="edge"><title>Node2&#45;&gt;Node9</title>
<path fill="none" stroke="midnightblue" d="M191.501,-91.1029C213.578,-80.7028 243.202,-66.748 262.681,-57.5716"/>
<polygon fill="midnightblue" stroke="midnightblue" points="189.808,-88.0316 182.253,-95.4595 192.791,-94.3641 189.808,-88.0316"/>
</g>
<!-- Node10 -->
<g id="node10" class="node"><title>Node10</title>
<g id="a_node10"><a xlink:href="../../d2/dce/promise_8qc.html#a32d6c9ec840f039aae137c6edceb546f" target="_top" xlink:title="Promise_catch_">
<polygon fill="none" stroke="black" points="240.5,-0.5 240.5,-19.5 327.5,-19.5 327.5,-0.5 240.5,-0.5"/>
<text text-anchor="middle" x="284" y="-7.5" font-family="Helvetica,sans-Serif" font-size="10.00">Promise_catch_</text>
</a>
</g>
</g>
<!-- Node2&#45;&gt;Node10 -->
<g id="edge12" class="edge"><title>Node2&#45;&gt;Node10</title>
<path fill="none" stroke="midnightblue" d="M176.028,-87.4769C190.21,-70.6786 213.482,-45.5037 238,-29 243.347,-25.4011 249.485,-22.2645 255.473,-19.6328"/>
<polygon fill="midnightblue" stroke="midnightblue" points="173.148,-85.4674 169.481,-95.4076 178.546,-89.9235 173.148,-85.4674"/>
</g>
<!-- Node3&#45;&gt;Node1 -->
<g id="edge10" class="edge"><title>Node3&#45;&gt;Node1</title>
<path fill="none" stroke="midnightblue" d="M232.967,-188.117C188.509,-177.558 124.358,-162.323 83.1706,-152.541"/>
<polygon fill="midnightblue" stroke="midnightblue" points="232.16,-191.523 242.698,-190.428 233.778,-184.712 232.16,-191.523"/>
</g>
<!-- Node4 -->
<g id="node4" class="node"><title>Node4</title>
<g id="a_node4"><a xlink:href="../../da/d22/promise_8qh.html#aaab1dd94269610e354c33055e929b3f6" target="_top" xlink:title="notify all Promise_then subscribers that this promise has resolved ">
<polygon fill="none" stroke="black" points="366.5,-114.5 366.5,-133.5 455.5,-133.5 455.5,-114.5 366.5,-114.5"/>
<text text-anchor="middle" x="411" y="-121.5" font-family="Helvetica,sans-Serif" font-size="10.00">Promise_resolve</text>
</a>
</g>
</g>
<!-- Node3&#45;&gt;Node4 -->
<g id="edge3" class="edge"><title>Node3&#45;&gt;Node4</title>
<path fill="none" stroke="midnightblue" d="M309.433,-185.145C334.562,-169.867 372.951,-146.526 394.297,-133.547"/>
<polygon fill="midnightblue" stroke="midnightblue" points="307.558,-182.189 300.831,-190.375 311.194,-188.17 307.558,-182.189"/>
</g>
<!-- Node7 -->
<g id="node7" class="node"><title>Node7</title>
<g id="a_node7"><a xlink:href="../../da/d22/promise_8qh.html#ae12b23201cf9adb064ef3b63efd0bf9c" target="_top" xlink:title="notify all Promise_catch subscribers that this promise has rejected ">
<polygon fill="none" stroke="black" points="370,-190.5 370,-209.5 452,-209.5 452,-190.5 370,-190.5"/>
<text text-anchor="middle" x="411" y="-197.5" font-family="Helvetica,sans-Serif" font-size="10.00">Promise_reject</text>
</a>
</g>
</g>
<!-- Node3&#45;&gt;Node7 -->
<g id="edge7" class="edge"><title>Node3&#45;&gt;Node7</title>
<path fill="none" stroke="midnightblue" d="M340.363,-200C350.31,-200 360.502,-200 369.912,-200"/>
<polygon fill="midnightblue" stroke="midnightblue" points="340.128,-196.5 330.128,-200 340.128,-203.5 340.128,-196.5"/>
</g>
<!-- Node5 -->
<g id="node5" class="node"><title>Node5</title>
<g id="a_node5"><a xlink:href="../../d2/dce/promise_8qc.html#a4d6e6610fd5fd2a773c4f8094183197f" target="_top" xlink:title="_Promise_onResolve\l_default">
<polygon fill="none" stroke="black" points="506,-71 506,-101 616,-101 616,-71 506,-71"/>
<text text-anchor="start" x="514" y="-89" font-family="Helvetica,sans-Serif" font-size="10.00">_Promise_onResolve</text>
<text text-anchor="middle" x="561" y="-78" font-family="Helvetica,sans-Serif" font-size="10.00">_default</text>
</a>
</g>
</g>
<!-- Node4&#45;&gt;Node5 -->
<g id="edge4" class="edge"><title>Node4&#45;&gt;Node5</title>
<path fill="none" stroke="midnightblue" d="M459.315,-111.852C474.145,-108.044 490.626,-103.812 505.888,-99.8936"/>
<polygon fill="midnightblue" stroke="midnightblue" points="458.162,-108.534 449.347,-114.411 459.903,-115.314 458.162,-108.534"/>
</g>
<!-- Node6 -->
<g id="node6" class="node"><title>Node6</title>
<g id="a_node6"><a xlink:href="../../da/d22/promise_8qh.html#ab999fdc28b80c39fdc6e15eda160bdce" target="_top" xlink:title="Promise_sleep">
<polygon fill="none" stroke="black" points="520.5,-120.5 520.5,-139.5 601.5,-139.5 601.5,-120.5 520.5,-120.5"/>
<text text-anchor="middle" x="561" y="-127.5" font-family="Helvetica,sans-Serif" font-size="10.00">Promise_sleep</text>
</a>
</g>
</g>
<!-- Node4&#45;&gt;Node6 -->
<g id="edge6" class="edge"><title>Node4&#45;&gt;Node6</title>
<path fill="none" stroke="midnightblue" d="M465.693,-126.177C483.716,-126.907 503.482,-127.709 520.241,-128.388"/>
<polygon fill="midnightblue" stroke="midnightblue" points="465.738,-122.676 455.604,-125.768 465.454,-129.67 465.738,-122.676"/>
</g>
<!-- Node5&#45;&gt;Node2 -->
<g id="edge5" class="edge"><title>Node5&#45;&gt;Node2</title>
<path fill="none" stroke="midnightblue" d="M495.95,-89.0577C413.176,-93.0092 271.502,-99.7725 202.353,-103.074"/>
<polygon fill="midnightblue" stroke="midnightblue" points="496.168,-92.5513 505.99,-88.5784 495.834,-85.5593 496.168,-92.5513"/>
</g>
<!-- Node8 -->
<g id="node8" class="node"><title>Node8</title>
<g id="a_node8"><a xlink:href="../../d2/dce/promise_8qc.html#a583965515881d4efa458e23c03df45b5" target="_top" xlink:title="_Promise_onReject_default">
<polygon fill="none" stroke="black" points="492.5,-174.5 492.5,-193.5 629.5,-193.5 629.5,-174.5 492.5,-174.5"/>
<text text-anchor="middle" x="561" y="-181.5" font-family="Helvetica,sans-Serif" font-size="10.00">_Promise_onReject_default</text>
</a>
</g>
</g>
<!-- Node7&#45;&gt;Node8 -->
<g id="edge8" class="edge"><title>Node7&#45;&gt;Node8</title>
<path fill="none" stroke="midnightblue" d="M462.251,-194.567C471.902,-193.524 482.156,-192.416 492.254,-191.324"/>
<polygon fill="midnightblue" stroke="midnightblue" points="461.617,-191.116 452.051,-195.67 462.369,-198.075 461.617,-191.116"/>
</g>
<!-- Node8&#45;&gt;Node2 -->
<g id="edge9" class="edge"><title>Node8&#45;&gt;Node2</title>
<path fill="none" stroke="midnightblue" d="M501.971,-172.482C420.216,-156.254 273.21,-127.074 202.353,-113.01"/>
<polygon fill="midnightblue" stroke="midnightblue" points="501.36,-175.929 511.85,-174.443 502.723,-169.063 501.36,-175.929"/>
</g>
</g>
</svg>
        <g id="navigator" transform="translate(0 0)" fill="#404254">
                <rect fill="#f2f5e9" fill-opacity="0.5" stroke="#606060" stroke-width=".5" x="0" y="0" width="60" height="60"/>
                <use id="zoomplus" xlink:href="#zoomPlus" x="17" y="9" onmousedown="handleZoom(evt,'in')"/>
                <use id="zoomminus" xlink:href="#zoomMin" x="42" y="9" onmousedown="handleZoom(evt,'out')"/>
                <use id="reset" xlink:href="#resetDef" x="30" y="36" onmousedown="handleReset()"/>
                <g id="arrowUp" xlink:href="#dirArrow" transform="translate(30 24)" onmousedown="handlePan(0,-1)">
                  <use xlink:href="#rim" fill="#404040">
                        <set attributeName="fill" to="#808080" begin="arrowUp.mouseover" end="arrowUp.mouseout"/>
                  </use>
                  <path fill="none" stroke="white" stroke-width="1.5" d="M0,-3.0v7 M-2.5,-0.5L0,-3.0L2.5,-0.5"/>
                </g>
                <g id="arrowRight" xlink:href="#dirArrow" transform="rotate(90) translate(36 -43)" onmousedown="handlePan(1,0)">
                  <use xlink:href="#rim" fill="#404040">
                        <set attributeName="fill" to="#808080" begin="arrowRight.mouseover" end="arrowRight.mouseout"/>
                  </use>
                  <path fill="none" stroke="white" stroke-width="1.5" d="M0,-3.0v7 M-2.5,-0.5L0,-3.0L2.5,-0.5"/>
                </g>
                <g id="arrowDown" xlink:href="#dirArrow" transform="rotate(180) translate(-30 -48)" onmousedown="handlePan(0,1)">
                  <use xlink:href="#rim" fill="#404040">
                        <set attributeName="fill" to="#808080" begin="arrowDown.mouseover" end="arrowDown.mouseout"/>
                  </use>
                  <path fill="none" stroke="white" stroke-width="1.5" d="M0,-3.0v7 M-2.5,-0.5L0,-3.0L2.5,-0.5"/>
                </g>
                <g id="arrowLeft" xlink:href="#dirArrow" transform="rotate(270) translate(-36 17)" onmousedown="handlePan(-1,0)">
                  <use xlink:href="#rim" fill="#404040">
                        <set attributeName="fill" to="#808080" begin="arrowLeft.mouseover" end="arrowLeft.mouseout"/>
                  </use>
                  <path fill="none" stroke="white" stroke-width="1.5" d="M0,-3.0v7 M-2.5,-0.5L0,-3.0L2.5,-0.5"/>
                </g>
        </g>
        <svg viewBox="0 0 15 15" width="100%" height="30px" preserveAspectRatio="xMaxYMin meet">
         <g id="arrow_out" transform="scale(0.3 0.3)">
          <a xlink:href="promise_8qc_aff2abba48c267700b8c3331dca058ae6_icgraph_org.svg" target="_base">
           <rect id="button" ry="5" rx="5" y="6" x="6" height="38" width="38"
                fill="#f2f5e9" fill-opacity="0.5" stroke="#606060" stroke-width="1.0"/>
           <path id="arrow"
             d="M 11.500037,31.436501 C 11.940474,20.09759 22.043105,11.32322 32.158766,21.979434 L 37.068811,17.246167 C 37.068811,17.246167 37.088388,32 37.088388,32 L 22.160133,31.978069 C 22.160133,31.978069 26.997745,27.140456 26.997745,27.140456 C 18.528582,18.264221 13.291696,25.230495 11.500037,31.436501 z"
             style="fill:#404040;"/>
          </a>
         </g>
        </svg>
</svg>
