<?xml version="1.0" encoding="UTF-8" standalone="no"?>
<!DOCTYPE svg PUBLIC "-//W3C//DTD SVG 1.1//EN"
 "http://www.w3.org/Graphics/SVG/1.1/DTD/svg11.dtd">
<!-- Generated by graphviz version 2.36.0 (20140111.2315)
 -->
<!-- Title: _Promise_done Pages: 1 -->
<svg width="638pt" height="218pt"
 viewBox="0.00 0.00 638.00 218.00" xmlns="http://www.w3.org/2000/svg" xmlns:xlink="http://www.w3.org/1999/xlink">
<g id="graph0" class="graph" transform="scale(1 1) rotate(0) translate(4 214)">
<title>_Promise_done</title>
<!-- Node1 -->
<g id="node1" class="node"><title>Node1</title>
<polygon fill="#bfbfbf" stroke="black" points="0,-133.5 0,-152.5 84,-152.5 84,-133.5 0,-133.5"/>
<text text-anchor="middle" x="42" y="-140.5" font-family="Helvetica,sans-Serif" font-size="10.00">_Promise_done</text>
</g>
<!-- Node2 -->
<g id="node2" class="node"><title>Node2</title>
<g id="a_node2"><a xlink:href="../../d2/dce/promise_8qc.html#af9453e8f8c98191bbbc4cd1ee0430b42" target="_top" xlink:title="_Promise_then">
<polygon fill="none" stroke="black" points="120,-95.5 120,-114.5 202,-114.5 202,-95.5 120,-95.5"/>
<text text-anchor="middle" x="161" y="-102.5" font-family="Helvetica,sans-Serif" font-size="10.00">_Promise_then</text>
</a>
</g>
</g>
<!-- Node1&#45;&gt;Node2 -->
<g id="edge1" class="edge"><title>Node1&#45;&gt;Node2</title>
<path fill="none" stroke="midnightblue" d="M82.0424,-130.32C97.8509,-125.185 115.799,-119.356 130.485,-114.586"/>
<polygon fill="midnightblue" stroke="midnightblue" points="80.9538,-126.993 72.524,-133.411 83.1162,-133.651 80.9538,-126.993"/>
</g>
<!-- Node3 -->
<g id="node3" class="node"><title>Node3</title>
<g id="a_node3"><a xlink:href="../../d2/dce/promise_8qc.html#a48d362965d51dfa6285586ab7a28df59" target="_top" xlink:title="_Promise_handle">
<polygon fill="none" stroke="black" points="238,-190.5 238,-209.5 330,-209.5 330,-190.5 238,-190.5"/>
<text text-anchor="middle" x="284" y="-197.5" font-family="Helvetica,sans-Serif" font-size="10.00">_Promise_handle</text>
</a>
</g>
</g>
<!-- Node2&#45;&gt;Node3 -->
<g id="edge2" class="edge"><title>Node2&#45;&gt;Node3</title>
<path fill="none" stroke="midnightblue" d="M177.933,-122.261C192.602,-137.547 215.444,-159.874 238,-176 245.491,-181.355 254.322,-186.321 262.168,-190.329"/>
<polygon fill="midnightblue" stroke="midnightblue" points="180.089,-119.445 170.678,-114.577 174.999,-124.251 180.089,-119.445"/>
</g>
<!-- Node9 -->
<g id="node9" class="node"><title>Node9</title>
<g id="a_node9"><a xlink:href="../../da/d22/promise_8qh.html#afef87df20c280f56e5dd3fe27f5fdc7a" target="_top" xlink:title="Promise_then_">
<polygon fill="none" stroke="black" points="243,-38.5 243,-57.5 325,-57.5 325,-38.5 243,-38.5"/>
<text text-anchor="middle" x="284" y="-45.5" font-family="Helvetica,sans-Serif" font-size="10.00">Promise_then_</text>
</a>
</g>
</g>
<!-- Node2&#45;&gt;Node9 -->
<g id="edge11" class="edge"><title>Node2&#45;&gt;Node9</title>
<path fill="none" stroke="midnightblue" d="M191.501,-91.1029C213.578,-80.7028 243.202,-66.748 262.681,-57.5716"/>
<polygon fill="midnightblue" stroke="midnightblue" points="189.808,-88.0316 182.253,-95.4595 192.791,-94.3641 189.808,-88.0316"/>
</g>
<!-- Node10 -->
<g id="node10" class="node"><title>Node10</title>
<g id="a_node10"><a xlink:href="../../d2/dce/promise_8qc.html#a32d6c9ec840f039aae137c6edceb546f" target="_top" xlink:title="Promise_catch_">
<polygon fill="none" stroke="black" points="240.5,-0.5 240.5,-19.5 327.5,-19.5 327.5,-0.5 240.5,-0.5"/>
<text text-anchor="middle" x="284" y="-7.5" font-family="Helvetica,sans-Serif" font-size="10.00">Promise_catch_</text>
</a>
</g>
</g>
<!-- Node2&#45;&gt;Node10 -->
<g id="edge12" class="edge"><title>Node2&#45;&gt;Node10</title>
<path fill="none" stroke="midnightblue" d="M176.028,-87.4769C190.21,-70.6786 213.482,-45.5037 238,-29 243.347,-25.4011 249.485,-22.2645 255.473,-19.6328"/>
<polygon fill="midnightblue" stroke="midnightblue" points="173.148,-85.4674 169.481,-95.4076 178.546,-89.9235 173.148,-85.4674"/>
</g>
<!-- Node3&#45;&gt;Node1 -->
<g id="edge10" class="edge"><title>Node3&#45;&gt;Node1</title>
<path fill="none" stroke="midnightblue" d="M232.967,-188.117C188.509,-177.558 124.358,-162.323 83.1706,-152.541"/>
<polygon fill="midnightblue" stroke="midnightblue" points="232.16,-191.523 242.698,-190.428 233.778,-184.712 232.16,-191.523"/>
</g>
<!-- Node4 -->
<g id="node4" class="node"><title>Node4</title>
<g id="a_node4"><a xlink:href="../../da/d22/promise_8qh.html#aaab1dd94269610e354c33055e929b3f6" target="_top" xlink:title="notify all Promise_then subscribers that this promise has resolved ">
<polygon fill="none" stroke="black" points="366.5,-114.5 366.5,-133.5 455.5,-133.5 455.5,-114.5 366.5,-114.5"/>
<text text-anchor="middle" x="411" y="-121.5" font-family="Helvetica,sans-Serif" font-size="10.00">Promise_resolve</text>
</a>
</g>
</g>
<!-- Node3&#45;&gt;Node4 -->
<g id="edge3" class="edge"><title>Node3&#45;&gt;Node4</title>
<path fill="none" stroke="midnightblue" d="M309.433,-185.145C334.562,-169.867 372.951,-146.526 394.297,-133.547"/>
<polygon fill="midnightblue" stroke="midnightblue" points="307.558,-182.189 300.831,-190.375 311.194,-188.17 307.558,-182.189"/>
</g>
<!-- Node7 -->
<g id="node7" class="node"><title>Node7</title>
<g id="a_node7"><a xlink:href="../../da/d22/promise_8qh.html#ae12b23201cf9adb064ef3b63efd0bf9c" target="_top" xlink:title="notify all Promise_catch subscribers that this promise has rejected ">
<polygon fill="none" stroke="black" points="370,-190.5 370,-209.5 452,-209.5 452,-190.5 370,-190.5"/>
<text text-anchor="middle" x="411" y="-197.5" font-family="Helvetica,sans-Serif" font-size="10.00">Promise_reject</text>
</a>
</g>
</g>
<!-- Node3&#45;&gt;Node7 -->
<g id="edge7" class="edge"><title>Node3&#45;&gt;Node7</title>
<path fill="none" stroke="midnightblue" d="M340.363,-200C350.31,-200 360.502,-200 369.912,-200"/>
<polygon fill="midnightblue" stroke="midnightblue" points="340.128,-196.5 330.128,-200 340.128,-203.5 340.128,-196.5"/>
</g>
<!-- Node5 -->
<g id="node5" class="node"><title>Node5</title>
<g id="a_node5"><a xlink:href="../../d2/dce/promise_8qc.html#a4d6e6610fd5fd2a773c4f8094183197f" target="_top" xlink:title="_Promise_onResolve\l_default">
<polygon fill="none" stroke="black" points="506,-71 506,-101 616,-101 616,-71 506,-71"/>
<text text-anchor="start" x="514" y="-89" font-family="Helvetica,sans-Serif" font-size="10.00">_Promise_onResolve</text>
<text text-anchor="middle" x="561" y="-78" font-family="Helvetica,sans-Serif" font-size="10.00">_default</text>
</a>
</g>
</g>
<!-- Node4&#45;&gt;Node5 -->
<g id="edge4" class="edge"><title>Node4&#45;&gt;Node5</title>
<path fill="none" stroke="midnightblue" d="M459.315,-111.852C474.145,-108.044 490.626,-103.812 505.888,-99.8936"/>
<polygon fill="midnightblue" stroke="midnightblue" points="458.162,-108.534 449.347,-114.411 459.903,-115.314 458.162,-108.534"/>
</g>
<!-- Node6 -->
<g id="node6" class="node"><title>Node6</title>
<g id="a_node6"><a xlink:href="../../da/d22/promise_8qh.html#ab999fdc28b80c39fdc6e15eda160bdce" target="_top" xlink:title="Promise_sleep">
<polygon fill="none" stroke="black" points="520.5,-120.5 520.5,-139.5 601.5,-139.5 601.5,-120.5 520.5,-120.5"/>
<text text-anchor="middle" x="561" y="-127.5" font-family="Helvetica,sans-Serif" font-size="10.00">Promise_sleep</text>
</a>
</g>
</g>
<!-- Node4&#45;&gt;Node6 -->
<g id="edge6" class="edge"><title>Node4&#45;&gt;Node6</title>
<path fill="none" stroke="midnightblue" d="M465.693,-126.177C483.716,-126.907 503.482,-127.709 520.241,-128.388"/>
<polygon fill="midnightblue" stroke="midnightblue" points="465.738,-122.676 455.604,-125.768 465.454,-129.67 465.738,-122.676"/>
</g>
<!-- Node5&#45;&gt;Node2 -->
<g id="edge5" class="edge"><title>Node5&#45;&gt;Node2</title>
<path fill="none" stroke="midnightblue" d="M495.95,-89.0577C413.176,-93.0092 271.502,-99.7725 202.353,-103.074"/>
<polygon fill="midnightblue" stroke="midnightblue" points="496.168,-92.5513 505.99,-88.5784 495.834,-85.5593 496.168,-92.5513"/>
</g>
<!-- Node8 -->
<g id="node8" class="node"><title>Node8</title>
<g id="a_node8"><a xlink:href="../../d2/dce/promise_8qc.html#a583965515881d4efa458e23c03df45b5" target="_top" xlink:title="_Promise_onReject_default">
<polygon fill="none" stroke="black" points="492.5,-174.5 492.5,-193.5 629.5,-193.5 629.5,-174.5 492.5,-174.5"/>
<text text-anchor="middle" x="561" y="-181.5" font-family="Helvetica,sans-Serif" font-size="10.00">_Promise_onReject_default</text>
</a>
</g>
</g>
<!-- Node7&#45;&gt;Node8 -->
<g id="edge8" class="edge"><title>Node7&#45;&gt;Node8</title>
<path fill="none" stroke="midnightblue" d="M462.251,-194.567C471.902,-193.524 482.156,-192.416 492.254,-191.324"/>
<polygon fill="midnightblue" stroke="midnightblue" points="461.617,-191.116 452.051,-195.67 462.369,-198.075 461.617,-191.116"/>
</g>
<!-- Node8&#45;&gt;Node2 -->
<g id="edge9" class="edge"><title>Node8&#45;&gt;Node2</title>
<path fill="none" stroke="midnightblue" d="M501.971,-172.482C420.216,-156.254 273.21,-127.074 202.353,-113.01"/>
<polygon fill="midnightblue" stroke="midnightblue" points="501.36,-175.929 511.85,-174.443 502.723,-169.063 501.36,-175.929"/>
</g>
</g>
</svg>
