<?xml version="1.0" encoding="UTF-8" standalone="no"?>
<!DOCTYPE svg PUBLIC "-//W3C//DTD SVG 1.1//EN"
 "http://www.w3.org/Graphics/SVG/1.1/DTD/svg11.dtd">
<!-- Generated by graphviz version 2.36.0 (20140111.2315)
 -->
<!-- Title: Promise_reject Pages: 1 -->
<svg width="710pt" height="284pt"
 viewBox="0.00 0.00 710.00 284.00" xmlns="http://www.w3.org/2000/svg" xmlns:xlink="http://www.w3.org/1999/xlink">
<g id="graph0" class="graph" transform="scale(1 1) rotate(0) translate(4 280)">
<title>Promise_reject</title>
<!-- Node1 -->
<g id="node1" class="node"><title>Node1</title>
<polygon fill="#bfbfbf" stroke="black" points="0,-28.5 0,-47.5 82,-47.5 82,-28.5 0,-28.5"/>
<text text-anchor="middle" x="41" y="-35.5" font-family="Helvetica,sans-Serif" font-size="10.00">Promise_reject</text>
</g>
<!-- Node2 -->
<g id="node2" class="node"><title>Node2</title>
<g id="a_node2"><a xlink:href="../../d2/dce/promise_8qc.html#a48d362965d51dfa6285586ab7a28df59" target="_top" xlink:title="_Promise_handle">
<polygon fill="none" stroke="black" points="118,-123.5 118,-142.5 210,-142.5 210,-123.5 118,-123.5"/>
<text text-anchor="middle" x="164" y="-130.5" font-family="Helvetica,sans-Serif" font-size="10.00">_Promise_handle</text>
</a>
</g>
</g>
<!-- Node1&#45;&gt;Node2 -->
<g id="edge1" class="edge"><title>Node1&#45;&gt;Node2</title>
<path fill="none" stroke="midnightblue" d="M54.4934,-47.8089C75.3424,-64.1779 117.42,-97.214 142.611,-116.992"/>
<polygon fill="midnightblue" stroke="midnightblue" points="140.728,-119.964 150.755,-123.386 145.051,-114.458 140.728,-119.964"/>
</g>
<!-- Node8 -->
<g id="node8" class="node"><title>Node8</title>
<g id="a_node8"><a xlink:href="../../d2/dce/promise_8qc.html#a712a7e556da708f2c2de4a0bf5fcaae9" target="_top" xlink:title="unref">
<polygon fill="none" stroke="black" points="664,-31.5 664,-50.5 702,-50.5 702,-31.5 664,-31.5"/>
<text text-anchor="middle" x="683" y="-38.5" font-family="Helvetica,sans-Serif" font-size="10.00">unref</text>
</a>
</g>
</g>
<!-- Node1&#45;&gt;Node8 -->
<g id="edge15" class="edge"><title>Node1&#45;&gt;Node8</title>
<path fill="none" stroke="midnightblue" d="M79.7538,-28.411C127.463,-17.1538 212.261,-0 286,-0 286,-0 286,-0 434,-0 514.77,-0 608.38,-21.4307 654.045,-33.3042"/>
<polygon fill="midnightblue" stroke="midnightblue" points="653.252,-36.7148 663.814,-35.8902 655.043,-29.9478 653.252,-36.7148"/>
</g>
<!-- Node3 -->
<g id="node3" class="node"><title>Node3</title>
<g id="a_node3"><a xlink:href="../../d2/dce/promise_8qc.html#af9453e8f8c98191bbbc4cd1ee0430b42" target="_top" xlink:title="_Promise_then">
<polygon fill="none" stroke="black" points="246,-66.5 246,-85.5 328,-85.5 328,-66.5 246,-66.5"/>
<text text-anchor="middle" x="287" y="-73.5" font-family="Helvetica,sans-Serif" font-size="10.00">_Promise_then</text>
</a>
</g>
</g>
<!-- Node2&#45;&gt;Node3 -->
<g id="edge2" class="edge"><title>Node2&#45;&gt;Node3</title>
<path fill="none" stroke="midnightblue" d="M185.253,-123.459C204.709,-114.294 234.33,-100.341 256.424,-89.9324"/>
<polygon fill="midnightblue" stroke="midnightblue" points="258.126,-92.9995 265.681,-85.5716 255.143,-86.667 258.126,-92.9995"/>
</g>
<!-- Node9 -->
<g id="node9" class="node"><title>Node9</title>
<g id="a_node9"><a xlink:href="../../d1/df7/nil_8qh.html#a48cdb42ec925da155dd105031cac3f44" target="_top" xlink:title="func_null">
<polygon fill="none" stroke="black" points="259,-104.5 259,-123.5 315,-123.5 315,-104.5 259,-104.5"/>
<text text-anchor="middle" x="287" y="-111.5" font-family="Helvetica,sans-Serif" font-size="10.00">func_null</text>
</a>
</g>
</g>
<!-- Node2&#45;&gt;Node9 -->
<g id="edge11" class="edge"><title>Node2&#45;&gt;Node9</title>
<path fill="none" stroke="midnightblue" d="M210.056,-125.925C222.864,-123.914 236.662,-121.747 248.938,-119.82"/>
<polygon fill="midnightblue" stroke="midnightblue" points="249.5,-123.274 258.836,-118.265 248.414,-116.359 249.5,-123.274"/>
</g>
<!-- Node10 -->
<g id="node10" class="node"><title>Node10</title>
<g id="a_node10"><a xlink:href="../../d9/d51/intrusivelist_8qh.html#a1dc3261f72901c53357b5e01d94cb556" target="_top" xlink:title="Push to tail. ">
<polygon fill="none" stroke="black" points="257.5,-218.5 257.5,-237.5 316.5,-237.5 316.5,-218.5 257.5,-218.5"/>
<text text-anchor="middle" x="287" y="-225.5" font-family="Helvetica,sans-Serif" font-size="10.00">IL_PUSH</text>
</a>
</g>
</g>
<!-- Node2&#45;&gt;Node10 -->
<g id="edge12" class="edge"><title>Node2&#45;&gt;Node10</title>
<path fill="none" stroke="midnightblue" d="M174.987,-142.814C189.807,-157.123 218.803,-184.168 246,-204 250.306,-207.14 255.042,-210.252 259.702,-213.143"/>
<polygon fill="midnightblue" stroke="midnightblue" points="258.06,-216.239 268.437,-218.378 261.659,-210.235 258.06,-216.239"/>
</g>
<!-- Node4 -->
<g id="node4" class="node"><title>Node4</title>
<g id="a_node4"><a xlink:href="../../d2/dce/promise_8qc.html#aff2abba48c267700b8c3331dca058ae6" target="_top" xlink:title="_Promise_done">
<polygon fill="none" stroke="black" points="391,-129.5 391,-148.5 475,-148.5 475,-129.5 391,-129.5"/>
<text text-anchor="middle" x="433" y="-136.5" font-family="Helvetica,sans-Serif" font-size="10.00">_Promise_done</text>
</a>
</g>
</g>
<!-- Node3&#45;&gt;Node4 -->
<g id="edge3" class="edge"><title>Node3&#45;&gt;Node4</title>
<path fill="none" stroke="midnightblue" d="M309.871,-85.5683C334.081,-96.1606 373.305,-113.321 400.751,-125.329"/>
<polygon fill="midnightblue" stroke="midnightblue" points="399.359,-128.54 409.924,-129.342 402.165,-122.127 399.359,-128.54"/>
</g>
<!-- Node5 -->
<g id="node5" class="node"><title>Node5</title>
<g id="a_node5"><a xlink:href="../../d2/dce/promise_8qc.html#a583965515881d4efa458e23c03df45b5" target="_top" xlink:title="_Promise_onReject_default">
<polygon fill="none" stroke="black" points="364.5,-28.5 364.5,-47.5 501.5,-47.5 501.5,-28.5 364.5,-28.5"/>
<text text-anchor="middle" x="433" y="-35.5" font-family="Helvetica,sans-Serif" font-size="10.00">_Promise_onReject_default</text>
</a>
</g>
</g>
<!-- Node3&#45;&gt;Node5 -->
<g id="edge5" class="edge"><title>Node3&#45;&gt;Node5</title>
<path fill="none" stroke="midnightblue" d="M324.337,-66.411C343.083,-61.4642 366.143,-55.3789 386.107,-50.1108"/>
<polygon fill="midnightblue" stroke="midnightblue" points="387.148,-53.4558 395.924,-47.5201 385.362,-46.6875 387.148,-53.4558"/>
</g>
<!-- Node6 -->
<g id="node6" class="node"><title>Node6</title>
<g id="a_node6"><a xlink:href="../../d2/dce/promise_8qc.html#a4d6e6610fd5fd2a773c4f8094183197f" target="_top" xlink:title="_Promise_onResolve\l_default">
<polygon fill="none" stroke="black" points="378,-67 378,-97 488,-97 488,-67 378,-67"/>
<text text-anchor="start" x="386" y="-85" font-family="Helvetica,sans-Serif" font-size="10.00">_Promise_onResolve</text>
<text text-anchor="middle" x="433" y="-74" font-family="Helvetica,sans-Serif" font-size="10.00">_default</text>
</a>
</g>
</g>
<!-- Node3&#45;&gt;Node6 -->
<g id="edge7" class="edge"><title>Node3&#45;&gt;Node6</title>
<path fill="none" stroke="midnightblue" d="M328.112,-77.6713C340.38,-78.1825 354.197,-78.7582 367.652,-79.3189"/>
<polygon fill="midnightblue" stroke="midnightblue" points="367.703,-82.8239 377.84,-79.7433 367.995,-75.83 367.703,-82.8239"/>
</g>
<!-- Node4&#45;&gt;Node2 -->
<g id="edge4" class="edge"><title>Node4&#45;&gt;Node2</title>
<path fill="none" stroke="midnightblue" d="M390.876,-138.076C345.195,-137.049 271.208,-135.387 220.438,-134.246"/>
<polygon fill="midnightblue" stroke="midnightblue" points="220.369,-130.743 210.293,-134.018 220.212,-137.742 220.369,-130.743"/>
</g>
<!-- Node5&#45;&gt;Node1 -->
<g id="edge6" class="edge"><title>Node5&#45;&gt;Node1</title>
<path fill="none" stroke="midnightblue" d="M364.306,-38C286.877,-38 161.883,-38 92.4996,-38"/>
<polygon fill="midnightblue" stroke="midnightblue" points="92.268,-34.5001 82.2679,-38 92.2679,-41.5001 92.268,-34.5001"/>
</g>
<!-- Node7 -->
<g id="node7" class="node"><title>Node7</title>
<g id="a_node7"><a xlink:href="../../d2/dce/promise_8qc.html#aaab1dd94269610e354c33055e929b3f6" target="_top" xlink:title="notify all Promise_then subscribers that this promise has resolved ">
<polygon fill="none" stroke="black" points="538.5,-72.5 538.5,-91.5 627.5,-91.5 627.5,-72.5 538.5,-72.5"/>
<text text-anchor="middle" x="583" y="-79.5" font-family="Helvetica,sans-Serif" font-size="10.00">Promise_resolve</text>
</a>
</g>
</g>
<!-- Node6&#45;&gt;Node7 -->
<g id="edge8" class="edge"><title>Node6&#45;&gt;Node7</title>
<path fill="none" stroke="midnightblue" d="M488.269,-82C501.289,-82 515.187,-82 528.185,-82"/>
<polygon fill="midnightblue" stroke="midnightblue" points="528.383,-85.5001 538.383,-82 528.383,-78.5001 528.383,-85.5001"/>
</g>
<!-- Node7&#45;&gt;Node2 -->
<g id="edge9" class="edge"><title>Node7&#45;&gt;Node2</title>
<path fill="none" stroke="midnightblue" d="M575.719,-91.5866C563.789,-108.804 535.982,-144.432 502,-158 399.08,-199.093 264.563,-165.932 201.113,-145.724"/>
<polygon fill="midnightblue" stroke="midnightblue" points="202.148,-142.38 191.555,-142.605 199.976,-149.035 202.148,-142.38"/>
</g>
<!-- Node7&#45;&gt;Node8 -->
<g id="edge10" class="edge"><title>Node7&#45;&gt;Node8</title>
<path fill="none" stroke="midnightblue" d="M606.729,-72.4907C621.016,-66.5139 639.531,-58.7675 654.624,-52.4534"/>
<polygon fill="midnightblue" stroke="midnightblue" points="656.094,-55.6323 663.968,-48.5439 653.392,-49.1747 656.094,-55.6323"/>
</g>
<!-- Node11 -->
<g id="node11" class="node"><title>Node11</title>
<g id="a_node11"><a xlink:href="../../d4/d0c/csprogsdefs_8qc.html#acbb54a239d76062465dccbc6a6c6e464" target="_top" xlink:title="entity">
<polygon fill="none" stroke="black" points="412.5,-218.5 412.5,-237.5 453.5,-237.5 453.5,-218.5 412.5,-218.5"/>
<text text-anchor="middle" x="433" y="-225.5" font-family="Helvetica,sans-Serif" font-size="10.00">entity</text>
</a>
</g>
</g>
<!-- Node10&#45;&gt;Node11 -->
<g id="edge13" class="edge"><title>Node10&#45;&gt;Node11</title>
<path fill="none" stroke="midnightblue" d="M316.794,-228C341.643,-228 377.386,-228 402.452,-228"/>
<polygon fill="midnightblue" stroke="midnightblue" points="402.478,-231.5 412.478,-228 402.478,-224.5 402.478,-231.5"/>
</g>
<!-- Node12 -->
<g id="node12" class="node"><title>Node12</title>
<g id="a_node12"><a xlink:href="../../d9/d51/intrusivelist_8qh.html#a385bb2612b4fc3e23b299195944d8925" target="_top" xlink:title="IL_CONTAINS">
<polygon fill="none" stroke="black" points="391.5,-256.5 391.5,-275.5 474.5,-275.5 474.5,-256.5 391.5,-256.5"/>
<text text-anchor="middle" x="433" y="-263.5" font-family="Helvetica,sans-Serif" font-size="10.00">IL_CONTAINS</text>
</a>
</g>
</g>
<!-- Node10&#45;&gt;Node12 -->
<g id="edge14" class="edge"><title>Node10&#45;&gt;Node12</title>
<path fill="none" stroke="midnightblue" d="M316.794,-235.599C336.599,-240.825 363.324,-247.877 386.048,-253.874"/>
<polygon fill="midnightblue" stroke="midnightblue" points="385.276,-257.29 395.838,-256.457 387.062,-250.521 385.276,-257.29"/>
</g>
</g>
</svg>
