<?xml version="1.0" encoding="UTF-8" standalone="no"?>
<!DOCTYPE svg PUBLIC "-//W3C//DTD SVG 1.1//EN"
 "http://www.w3.org/Graphics/SVG/1.1/DTD/svg11.dtd">
<!-- Generated by graphviz version 2.36.0 (20140111.2315)
 -->
<!-- Title: client/mapvoting.qc Pages: 1 -->
<svg width="3138pt" height="644pt"
 viewBox="0.00 0.00 3138.00 644.00" xmlns="http://www.w3.org/2000/svg" xmlns:xlink="http://www.w3.org/1999/xlink">
<g id="graph0" class="graph" transform="scale(1 1) rotate(0) translate(4 640)">
<title>client/mapvoting.qc</title>
<!-- Node1 -->
<g id="node1" class="node"><title>Node1</title>
<polygon fill="#bfbfbf" stroke="black" points="2914.5,-616.5 2914.5,-635.5 3015.5,-635.5 3015.5,-616.5 2914.5,-616.5"/>
<text text-anchor="middle" x="2965" y="-623.5" font-family="Helvetica,sans-Serif" font-size="10.00">client/mapvoting.qc</text>
</g>
<!-- Node2 -->
<g id="node2" class="node"><title>Node2</title>
<g id="a_node2"><a xlink:href="../../dd/d1a/client_2mapvoting_8qh.html" target="_top" xlink:title="mapvoting.qh">
<polygon fill="none" stroke="black" points="3054.5,-224.5 3054.5,-243.5 3129.5,-243.5 3129.5,-224.5 3054.5,-224.5"/>
<text text-anchor="middle" x="3092" y="-231.5" font-family="Helvetica,sans-Serif" font-size="10.00">mapvoting.qh</text>
</a>
</g>
</g>
<!-- Node1&#45;&gt;Node2 -->
<g id="edge1" class="edge"><title>Node1&#45;&gt;Node2</title>
<path fill="none" stroke="midnightblue" d="M3015.78,-618.072C3041.75,-612.058 3072.01,-600.852 3092,-580 3112.92,-558.183 3112,-545.225 3112,-515 3112,-515 3112,-515 3112,-345 3112,-312.438 3103.41,-275.315 3097.49,-253.592"/>
<polygon fill="midnightblue" stroke="midnightblue" points="3100.79,-252.408 3094.7,-243.742 3094.06,-254.317 3100.79,-252.408"/>
</g>
<!-- Node4 -->
<g id="node4" class="node"><title>Node4</title>
<g id="a_node4"><a xlink:href="../../d6/d86/client_2hud_2all_8qh.html" target="_top" xlink:title="hud/all.qh">
<polygon fill="none" stroke="black" points="2779.5,-504.5 2779.5,-523.5 2838.5,-523.5 2838.5,-504.5 2779.5,-504.5"/>
<text text-anchor="middle" x="2809" y="-511.5" font-family="Helvetica,sans-Serif" font-size="10.00">hud/all.qh</text>
</a>
</g>
</g>
<!-- Node1&#45;&gt;Node4 -->
<g id="edge3" class="edge"><title>Node1&#45;&gt;Node4</title>
<path fill="none" stroke="midnightblue" d="M2914.22,-619.963C2885.34,-614.542 2850.54,-603.299 2828,-580 2816.13,-567.733 2811.61,-548.473 2809.93,-534.098"/>
<polygon fill="midnightblue" stroke="midnightblue" points="2813.39,-533.527 2809.09,-523.843 2806.41,-534.094 2813.39,-533.527"/>
</g>
<!-- Node46 -->
<g id="node46" class="node"><title>Node46</title>
<g id="a_node46"><a xlink:href="../../d4/d2b/scoreboard_8qh.html" target="_top" xlink:title="hud/panel/scoreboard.qh">
<polygon fill="none" stroke="black" points="2837.5,-560.5 2837.5,-579.5 2960.5,-579.5 2960.5,-560.5 2837.5,-560.5"/>
<text text-anchor="middle" x="2899" y="-567.5" font-family="Helvetica,sans-Serif" font-size="10.00">hud/panel/scoreboard.qh</text>
</a>
</g>
</g>
<!-- Node1&#45;&gt;Node46 -->
<g id="edge51" class="edge"><title>Node1&#45;&gt;Node46</title>
<path fill="none" stroke="midnightblue" d="M2954.4,-616.324C2944.54,-608.263 2929.65,-596.077 2917.78,-586.369"/>
<polygon fill="midnightblue" stroke="midnightblue" points="2919.75,-583.457 2909.8,-579.834 2915.32,-588.875 2919.75,-583.457"/>
</g>
<!-- Node51 -->
<g id="node51" class="node"><title>Node51</title>
<g id="a_node51"><a xlink:href="../../d2/d9e/mapinfo_8qh.html" target="_top" xlink:title="common/mapinfo.qh">
<polygon fill="none" stroke="black" points="2978.5,-560.5 2978.5,-579.5 3083.5,-579.5 3083.5,-560.5 2978.5,-560.5"/>
<text text-anchor="middle" x="3031" y="-567.5" font-family="Helvetica,sans-Serif" font-size="10.00">common/mapinfo.qh</text>
</a>
</g>
</g>
<!-- Node1&#45;&gt;Node51 -->
<g id="edge58" class="edge"><title>Node1&#45;&gt;Node51</title>
<path fill="none" stroke="midnightblue" d="M2975.6,-616.324C2985.46,-608.263 3000.35,-596.077 3012.22,-586.369"/>
<polygon fill="midnightblue" stroke="midnightblue" points="3014.68,-588.875 3020.2,-579.834 3010.25,-583.457 3014.68,-588.875"/>
</g>
<!-- Node3 -->
<g id="node3" class="node"><title>Node3</title>
<g id="a_node3"><a xlink:href="../../d0/d8b/common_2constants_8qh.html" target="_top" xlink:title="common/constants.qh">
<polygon fill="none" stroke="black" points="2919.5,-0.5 2919.5,-19.5 3032.5,-19.5 3032.5,-0.5 2919.5,-0.5"/>
<text text-anchor="middle" x="2976" y="-7.5" font-family="Helvetica,sans-Serif" font-size="10.00">common/constants.qh</text>
</a>
</g>
</g>
<!-- Node2&#45;&gt;Node3 -->
<g id="edge2" class="edge"><title>Node2&#45;&gt;Node3</title>
<path fill="none" stroke="midnightblue" d="M3087.45,-224.297C3070.24,-191.356 3008.87,-73.898 2985.3,-28.8052"/>
<polygon fill="midnightblue" stroke="midnightblue" points="2988.38,-27.1258 2980.64,-19.8837 2982.17,-30.3677 2988.38,-27.1258"/>
</g>
<!-- Node5 -->
<g id="node5" class="node"><title>Node5</title>
<g id="a_node5"><a xlink:href="../../d3/d05/hud_8qh.html" target="_top" xlink:title="hud.qh">
<polygon fill="none" stroke="black" points="2819,-448.5 2819,-467.5 2865,-467.5 2865,-448.5 2819,-448.5"/>
<text text-anchor="middle" x="2842" y="-455.5" font-family="Helvetica,sans-Serif" font-size="10.00">hud.qh</text>
</a>
</g>
</g>
<!-- Node4&#45;&gt;Node5 -->
<g id="edge4" class="edge"><title>Node4&#45;&gt;Node5</title>
<path fill="none" stroke="midnightblue" d="M2814.45,-504.083C2819.01,-496.613 2825.67,-485.724 2831.29,-476.52"/>
<polygon fill="midnightblue" stroke="midnightblue" points="2834.42,-478.109 2836.65,-467.751 2828.45,-474.459 2834.42,-478.109"/>
</g>
<!-- Node45 -->
<g id="node45" class="node"><title>Node45</title>
<g id="a_node45"><a xlink:href="../../dd/dcd/hud__config_8qh.html" target="_top" xlink:title="hud_config.qh">
<polygon fill="none" stroke="black" points="2723.5,-448.5 2723.5,-467.5 2800.5,-467.5 2800.5,-448.5 2723.5,-448.5"/>
<text text-anchor="middle" x="2762" y="-455.5" font-family="Helvetica,sans-Serif" font-size="10.00">hud_config.qh</text>
</a>
</g>
</g>
<!-- Node4&#45;&gt;Node45 -->
<g id="edge50" class="edge"><title>Node4&#45;&gt;Node45</title>
<path fill="none" stroke="midnightblue" d="M2801.24,-504.083C2794.46,-496.298 2784.46,-484.801 2776.24,-475.367"/>
<polygon fill="midnightblue" stroke="midnightblue" points="2778.82,-472.996 2769.62,-467.751 2773.54,-477.592 2778.82,-472.996"/>
</g>
<!-- Node6 -->
<g id="node6" class="node"><title>Node6</title>
<g id="a_node6"><a xlink:href="../../de/d81/common_2weapons_2all_8qh.html" target="_top" xlink:title="common/weapons/all.qh">
<polygon fill="none" stroke="black" points="2660,-392.5 2660,-411.5 2782,-411.5 2782,-392.5 2660,-392.5"/>
<text text-anchor="middle" x="2721" y="-399.5" font-family="Helvetica,sans-Serif" font-size="10.00">common/weapons/all.qh</text>
</a>
</g>
</g>
<!-- Node5&#45;&gt;Node6 -->
<g id="edge5" class="edge"><title>Node5&#45;&gt;Node6</title>
<path fill="none" stroke="midnightblue" d="M2822.83,-448.444C2803.09,-439.636 2772.11,-425.812 2749.51,-415.722"/>
<polygon fill="midnightblue" stroke="midnightblue" points="2750.64,-412.396 2740.08,-411.516 2747.79,-418.788 2750.64,-412.396"/>
</g>
<!-- Node7 -->
<g id="node7" class="node"><title>Node7</title>
<g id="a_node7"><a xlink:href="../../d9/d2a/common_2command_2all_8qh.html" target="_top" xlink:title="common/command/all.qh">
<polygon fill="none" stroke="black" points="2694,-112.5 2694,-131.5 2820,-131.5 2820,-112.5 2694,-112.5"/>
<text text-anchor="middle" x="2757" y="-119.5" font-family="Helvetica,sans-Serif" font-size="10.00">common/command/all.qh</text>
</a>
</g>
</g>
<!-- Node6&#45;&gt;Node7 -->
<g id="edge6" class="edge"><title>Node6&#45;&gt;Node7</title>
<path fill="none" stroke="midnightblue" d="M2722.63,-392.38C2725.88,-374.971 2733.27,-334.35 2738,-300 2745.89,-242.737 2752.39,-174.67 2755.32,-142.15"/>
<polygon fill="midnightblue" stroke="midnightblue" points="2758.84,-142.134 2756.24,-131.863 2751.87,-141.514 2758.84,-142.134"/>
</g>
<!-- Node12 -->
<g id="node12" class="node"><title>Node12</title>
<g id="a_node12"><a xlink:href="../../d7/d5c/common_2stats_8qh.html" target="_top" xlink:title="common/stats.qh">
<polygon fill="none" stroke="black" points="2637,-280.5 2637,-299.5 2729,-299.5 2729,-280.5 2637,-280.5"/>
<text text-anchor="middle" x="2683" y="-287.5" font-family="Helvetica,sans-Serif" font-size="10.00">common/stats.qh</text>
</a>
</g>
</g>
<!-- Node6&#45;&gt;Node12 -->
<g id="edge12" class="edge"><title>Node6&#45;&gt;Node12</title>
<path fill="none" stroke="midnightblue" d="M2718.02,-392.368C2711.86,-374.537 2697.61,-333.295 2689.31,-309.272"/>
<polygon fill="midnightblue" stroke="midnightblue" points="2692.54,-307.9 2685.97,-299.591 2685.93,-310.186 2692.54,-307.9"/>
</g>
<!-- Node13 -->
<g id="node13" class="node"><title>Node13</title>
<g id="a_node13"><a xlink:href="../../d2/d3b/weapons_2config_8qh.html" target="_top" xlink:title="config.qh">
<polygon fill="none" stroke="black" points="2749,-336.5 2749,-355.5 2805,-355.5 2805,-336.5 2749,-336.5"/>
<text text-anchor="middle" x="2777" y="-343.5" font-family="Helvetica,sans-Serif" font-size="10.00">config.qh</text>
</a>
</g>
</g>
<!-- Node6&#45;&gt;Node13 -->
<g id="edge13" class="edge"><title>Node6&#45;&gt;Node13</title>
<path fill="none" stroke="midnightblue" d="M2730,-392.324C2738.19,-384.42 2750.51,-372.548 2760.47,-362.938"/>
<polygon fill="midnightblue" stroke="midnightblue" points="2763.07,-365.295 2767.84,-355.834 2758.21,-360.256 2763.07,-365.295"/>
</g>
<!-- Node14 -->
<g id="node14" class="node"><title>Node14</title>
<g id="a_node14"><a xlink:href="../../dc/d1c/weapon_8qh.html" target="_top" xlink:title="weapon.qh">
<polygon fill="none" stroke="black" points="2584,-336.5 2584,-355.5 2648,-355.5 2648,-336.5 2584,-336.5"/>
<text text-anchor="middle" x="2616" y="-343.5" font-family="Helvetica,sans-Serif" font-size="10.00">weapon.qh</text>
</a>
</g>
</g>
<!-- Node6&#45;&gt;Node14 -->
<g id="edge14" class="edge"><title>Node6&#45;&gt;Node14</title>
<path fill="none" stroke="midnightblue" d="M2704.13,-392.324C2687.29,-383.664 2661.19,-370.242 2641.76,-360.249"/>
<polygon fill="midnightblue" stroke="midnightblue" points="2643.32,-357.116 2632.83,-355.655 2640.12,-363.341 2643.32,-357.116"/>
</g>
<!-- Node19 -->
<g id="node19" class="node"><title>Node19</title>
<g id="a_node19"><a xlink:href="../../db/d81/calculations_8qh.html" target="_top" xlink:title="calculations.qh">
<polygon fill="none" stroke="black" points="2823,-336.5 2823,-355.5 2905,-355.5 2905,-336.5 2823,-336.5"/>
<text text-anchor="middle" x="2864" y="-343.5" font-family="Helvetica,sans-Serif" font-size="10.00">calculations.qh</text>
</a>
</g>
</g>
<!-- Node6&#45;&gt;Node19 -->
<g id="edge24" class="edge"><title>Node6&#45;&gt;Node19</title>
<path fill="none" stroke="midnightblue" d="M2743.66,-392.444C2767.4,-383.478 2804.91,-369.314 2831.74,-359.183"/>
<polygon fill="midnightblue" stroke="midnightblue" points="2833.33,-362.324 2841.45,-355.516 2830.86,-355.775 2833.33,-362.324"/>
</g>
<!-- Node20 -->
<g id="node20" class="node"><title>Node20</title>
<g id="a_node20"><a xlink:href="../../d7/d39/common_2models_2all_8qh.html" target="_top" xlink:title="common/models/all.qh">
<polygon fill="none" stroke="black" points="30.5,-336.5 30.5,-355.5 145.5,-355.5 145.5,-336.5 30.5,-336.5"/>
<text text-anchor="middle" x="88" y="-343.5" font-family="Helvetica,sans-Serif" font-size="10.00">common/models/all.qh</text>
</a>
</g>
</g>
<!-- Node6&#45;&gt;Node20 -->
<g id="edge25" class="edge"><title>Node6&#45;&gt;Node20</title>
<path fill="none" stroke="midnightblue" d="M2659.79,-399.745C2306.09,-392.491 526.621,-355.996 155.78,-348.39"/>
<polygon fill="midnightblue" stroke="midnightblue" points="155.805,-344.89 145.735,-348.184 155.661,-351.888 155.805,-344.89"/>
</g>
<!-- Node23 -->
<g id="node23" class="node"><title>Node23</title>
<g id="a_node23"><a xlink:href="../../d5/df2/common_2util_8qh.html" target="_top" xlink:title="common/util.qh">
<polygon fill="none" stroke="black" points="3000.5,-336.5 3000.5,-355.5 3083.5,-355.5 3083.5,-336.5 3000.5,-336.5"/>
<text text-anchor="middle" x="3042" y="-343.5" font-family="Helvetica,sans-Serif" font-size="10.00">common/util.qh</text>
</a>
</g>
</g>
<!-- Node6&#45;&gt;Node23 -->
<g id="edge28" class="edge"><title>Node6&#45;&gt;Node23</title>
<path fill="none" stroke="midnightblue" d="M2773.04,-392.478C2825.3,-383.885 2908.43,-370.125 2990.28,-356.11"/>
<polygon fill="midnightblue" stroke="midnightblue" points="2990.99,-359.539 3000.26,-354.4 2989.81,-352.64 2990.99,-359.539"/>
</g>
<!-- Node24 -->
<g id="node24" class="node"><title>Node24</title>
<g id="a_node24"><a xlink:href="../../d9/d0d/common_2weapons_2all_8inc.html" target="_top" xlink:title="all.inc">
<polygon fill="none" stroke="black" points="1293,-336.5 1293,-355.5 1335,-355.5 1335,-336.5 1293,-336.5"/>
<text text-anchor="middle" x="1314" y="-343.5" font-family="Helvetica,sans-Serif" font-size="10.00">all.inc</text>
</a>
</g>
</g>
<!-- Node6&#45;&gt;Node24 -->
<g id="edge29" class="edge"><title>Node6&#45;&gt;Node24</title>
<path fill="none" stroke="midnightblue" d="M2659.64,-398.645C2416.28,-389.305 1523.64,-355.046 1345.17,-348.196"/>
<polygon fill="midnightblue" stroke="midnightblue" points="1345.27,-344.698 1335.14,-347.811 1345,-351.692 1345.27,-344.698"/>
</g>
<!-- Node8 -->
<g id="node8" class="node"><title>Node8</title>
<g id="a_node8"><a xlink:href="../../d9/da1/common_2command_2command_8qh.html" target="_top" xlink:title="command.qh">
<polygon fill="none" stroke="black" points="2634.5,-56.5 2634.5,-75.5 2707.5,-75.5 2707.5,-56.5 2634.5,-56.5"/>
<text text-anchor="middle" x="2671" y="-63.5" font-family="Helvetica,sans-Serif" font-size="10.00">command.qh</text>
</a>
</g>
</g>
<!-- Node7&#45;&gt;Node8 -->
<g id="edge7" class="edge"><title>Node7&#45;&gt;Node8</title>
<path fill="none" stroke="midnightblue" d="M2743.18,-112.324C2729.77,-103.9 2709.18,-90.9709 2693.41,-81.0741"/>
<polygon fill="midnightblue" stroke="midnightblue" points="2695.11,-78.0081 2684.78,-75.6545 2691.39,-83.9364 2695.11,-78.0081"/>
</g>
<!-- Node9 -->
<g id="node9" class="node"><title>Node9</title>
<g id="a_node9"><a xlink:href="../../d7/d88/generic_8qh.html" target="_top" xlink:title="generic.qh">
<polygon fill="none" stroke="black" points="2906,-56.5 2906,-75.5 2968,-75.5 2968,-56.5 2906,-56.5"/>
<text text-anchor="middle" x="2937" y="-63.5" font-family="Helvetica,sans-Serif" font-size="10.00">generic.qh</text>
</a>
</g>
</g>
<!-- Node7&#45;&gt;Node9 -->
<g id="edge8" class="edge"><title>Node7&#45;&gt;Node9</title>
<path fill="none" stroke="midnightblue" d="M2785.52,-112.444C2816.07,-103.28 2864.71,-88.6876 2898.6,-78.5192"/>
<polygon fill="midnightblue" stroke="midnightblue" points="2900.04,-81.7424 2908.61,-75.5164 2898.03,-75.0376 2900.04,-81.7424"/>
</g>
<!-- Node10 -->
<g id="node10" class="node"><title>Node10</title>
<g id="a_node10"><a xlink:href="../../d8/d96/markup_8qh.html" target="_top" xlink:title="markup.qh">
<polygon fill="none" stroke="black" points="2726,-56.5 2726,-75.5 2788,-75.5 2788,-56.5 2726,-56.5"/>
<text text-anchor="middle" x="2757" y="-63.5" font-family="Helvetica,sans-Serif" font-size="10.00">markup.qh</text>
</a>
</g>
</g>
<!-- Node7&#45;&gt;Node10 -->
<g id="edge10" class="edge"><title>Node7&#45;&gt;Node10</title>
<path fill="none" stroke="midnightblue" d="M2757,-112.083C2757,-105.006 2757,-94.8611 2757,-85.9865"/>
<polygon fill="midnightblue" stroke="midnightblue" points="2760.5,-85.751 2757,-75.7511 2753.5,-85.7511 2760.5,-85.751"/>
</g>
<!-- Node11 -->
<g id="node11" class="node"><title>Node11</title>
<g id="a_node11"><a xlink:href="../../d4/db4/rpn_8qh.html" target="_top" xlink:title="rpn.qh">
<polygon fill="none" stroke="black" points="2806,-56.5 2806,-75.5 2850,-75.5 2850,-56.5 2806,-56.5"/>
<text text-anchor="middle" x="2828" y="-63.5" font-family="Helvetica,sans-Serif" font-size="10.00">rpn.qh</text>
</a>
</g>
</g>
<!-- Node7&#45;&gt;Node11 -->
<g id="edge11" class="edge"><title>Node7&#45;&gt;Node11</title>
<path fill="none" stroke="midnightblue" d="M2768.41,-112.324C2779.11,-104.185 2795.34,-91.8395 2808.16,-82.0874"/>
<polygon fill="midnightblue" stroke="midnightblue" points="2810.54,-84.6734 2816.39,-75.8339 2806.31,-79.1018 2810.54,-84.6734"/>
</g>
<!-- Node9&#45;&gt;Node3 -->
<g id="edge9" class="edge"><title>Node9&#45;&gt;Node3</title>
<path fill="none" stroke="midnightblue" d="M2943.44,-56.083C2948.95,-48.4554 2957.03,-37.2645 2963.76,-27.9408"/>
<polygon fill="midnightblue" stroke="midnightblue" points="2966.66,-29.9071 2969.68,-19.7511 2960.99,-25.8087 2966.66,-29.9071"/>
</g>
<!-- Node14&#45;&gt;Node12 -->
<g id="edge22" class="edge"><title>Node14&#45;&gt;Node12</title>
<path fill="none" stroke="midnightblue" d="M2626.76,-336.324C2636.77,-328.263 2651.89,-316.077 2663.93,-306.369"/>
<polygon fill="midnightblue" stroke="midnightblue" points="2666.45,-308.834 2672.04,-299.834 2662.06,-303.384 2666.45,-308.834"/>
</g>
<!-- Node15 -->
<g id="node15" class="node"><title>Node15</title>
<g id="a_node15"><a xlink:href="../../de/dda/pickup_8qh.html" target="_top" xlink:title="common/items/item/pickup.qh">
<polygon fill="none" stroke="black" points="2433,-280.5 2433,-299.5 2581,-299.5 2581,-280.5 2433,-280.5"/>
<text text-anchor="middle" x="2507" y="-287.5" font-family="Helvetica,sans-Serif" font-size="10.00">common/items/item/pickup.qh</text>
</a>
</g>
</g>
<!-- Node14&#45;&gt;Node15 -->
<g id="edge15" class="edge"><title>Node14&#45;&gt;Node15</title>
<path fill="none" stroke="midnightblue" d="M2598.49,-336.324C2580.93,-327.625 2553.67,-314.12 2533.47,-304.113"/>
<polygon fill="midnightblue" stroke="midnightblue" points="2534.98,-300.958 2524.47,-299.655 2531.88,-307.23 2534.98,-300.958"/>
</g>
<!-- Node17 -->
<g id="node17" class="node"><title>Node17</title>
<g id="a_node17"><a xlink:href="../../d3/dc0/common_2items_2all_8qh.html" target="_top" xlink:title="all.qh">
<polygon fill="none" stroke="black" points="2541,-168.5 2541,-187.5 2581,-187.5 2581,-168.5 2541,-168.5"/>
<text text-anchor="middle" x="2561" y="-175.5" font-family="Helvetica,sans-Serif" font-size="10.00">all.qh</text>
</a>
</g>
</g>
<!-- Node14&#45;&gt;Node17 -->
<g id="edge23" class="edge"><title>Node14&#45;&gt;Node17</title>
<path fill="none" stroke="midnightblue" d="M2615.1,-336.492C2612.75,-316.315 2605.45,-264.245 2589,-224 2585,-214.223 2578.96,-204.165 2573.51,-196.045"/>
<polygon fill="midnightblue" stroke="midnightblue" points="2576.35,-194.002 2567.75,-187.818 2570.62,-198.017 2576.35,-194.002"/>
</g>
<!-- Node16 -->
<g id="node16" class="node"><title>Node16</title>
<g id="a_node16"><a xlink:href="../../dc/d9d/inventory_8qh.html" target="_top" xlink:title="common/items/inventory.qh">
<polygon fill="none" stroke="black" points="2443.5,-224.5 2443.5,-243.5 2580.5,-243.5 2580.5,-224.5 2443.5,-224.5"/>
<text text-anchor="middle" x="2512" y="-231.5" font-family="Helvetica,sans-Serif" font-size="10.00">common/items/inventory.qh</text>
</a>
</g>
</g>
<!-- Node15&#45;&gt;Node16 -->
<g id="edge16" class="edge"><title>Node15&#45;&gt;Node16</title>
<path fill="none" stroke="midnightblue" d="M2502.66,-280.083C2501.81,-272.927 2502.33,-262.635 2503.81,-253.691"/>
<polygon fill="midnightblue" stroke="midnightblue" points="2507.27,-254.277 2506.06,-243.751 2500.44,-252.733 2507.27,-254.277"/>
</g>
<!-- Node18 -->
<g id="node18" class="node"><title>Node18</title>
<g id="a_node18"><a xlink:href="../../d7/d7c/common_2items_2item_8qh.html" target="_top" xlink:title="item.qh">
<polygon fill="none" stroke="black" points="2463.5,-112.5 2463.5,-131.5 2512.5,-131.5 2512.5,-112.5 2463.5,-112.5"/>
<text text-anchor="middle" x="2488" y="-119.5" font-family="Helvetica,sans-Serif" font-size="10.00">item.qh</text>
</a>
</g>
</g>
<!-- Node15&#45;&gt;Node18 -->
<g id="edge21" class="edge"><title>Node15&#45;&gt;Node18</title>
<path fill="none" stroke="midnightblue" d="M2480.79,-280.414C2464.15,-273.445 2443.94,-261.809 2434,-244 2413.75,-207.728 2448.94,-162.419 2471.43,-138.872"/>
<polygon fill="midnightblue" stroke="midnightblue" points="2473.92,-141.332 2478.47,-131.765 2468.95,-136.405 2473.92,-141.332"/>
</g>
<!-- Node16&#45;&gt;Node15 -->
<g id="edge20" class="edge"><title>Node16&#45;&gt;Node15</title>
<path fill="none" stroke="midnightblue" d="M2516.32,-243.751C2517.19,-250.858 2516.68,-261.136 2515.22,-270.101"/>
<polygon fill="midnightblue" stroke="midnightblue" points="2511.76,-269.56 2512.99,-280.083 2518.59,-271.087 2511.76,-269.56"/>
</g>
<!-- Node16&#45;&gt;Node17 -->
<g id="edge17" class="edge"><title>Node16&#45;&gt;Node17</title>
<path fill="none" stroke="midnightblue" d="M2520.09,-224.083C2527.16,-216.298 2537.59,-204.801 2546.15,-195.367"/>
<polygon fill="midnightblue" stroke="midnightblue" points="2548.93,-197.509 2553.06,-187.751 2543.75,-192.805 2548.93,-197.509"/>
</g>
<!-- Node17&#45;&gt;Node7 -->
<g id="edge18" class="edge"><title>Node17&#45;&gt;Node7</title>
<path fill="none" stroke="midnightblue" d="M2581.24,-171.424C2612.95,-162.686 2674.99,-145.593 2716.23,-134.233"/>
<polygon fill="midnightblue" stroke="midnightblue" points="2717.26,-137.578 2725.98,-131.548 2715.4,-130.83 2717.26,-137.578"/>
</g>
<!-- Node17&#45;&gt;Node18 -->
<g id="edge19" class="edge"><title>Node17&#45;&gt;Node18</title>
<path fill="none" stroke="midnightblue" d="M2549.27,-168.324C2538.16,-160.107 2521.26,-147.602 2508.02,-137.807"/>
<polygon fill="midnightblue" stroke="midnightblue" points="2510.06,-134.967 2499.94,-131.834 2505.9,-140.595 2510.06,-134.967"/>
</g>
<!-- Node21 -->
<g id="node21" class="node"><title>Node21</title>
<g id="a_node21"><a xlink:href="../../d7/d1d/model_8qh.html" target="_top" xlink:title="model.qh">
<polygon fill="none" stroke="black" points="60,-280.5 60,-299.5 116,-299.5 116,-280.5 60,-280.5"/>
<text text-anchor="middle" x="88" y="-287.5" font-family="Helvetica,sans-Serif" font-size="10.00">model.qh</text>
</a>
</g>
</g>
<!-- Node20&#45;&gt;Node21 -->
<g id="edge26" class="edge"><title>Node20&#45;&gt;Node21</title>
<path fill="none" stroke="midnightblue" d="M88,-336.083C88,-329.006 88,-318.861 88,-309.986"/>
<polygon fill="midnightblue" stroke="midnightblue" points="91.5001,-309.751 88,-299.751 84.5001,-309.751 91.5001,-309.751"/>
</g>
<!-- Node22 -->
<g id="node22" class="node"><title>Node22</title>
<g id="a_node22"><a xlink:href="../../d3/d09/common_2models_2all_8inc.html" target="_top" xlink:title="all.inc">
<polygon fill="none" stroke="black" points="0,-280.5 0,-299.5 42,-299.5 42,-280.5 0,-280.5"/>
<text text-anchor="middle" x="21" y="-287.5" font-family="Helvetica,sans-Serif" font-size="10.00">all.inc</text>
</a>
</g>
</g>
<!-- Node20&#45;&gt;Node22 -->
<g id="edge27" class="edge"><title>Node20&#45;&gt;Node22</title>
<path fill="none" stroke="midnightblue" d="M77.2353,-336.324C67.2339,-328.263 52.1135,-316.077 40.0695,-306.369"/>
<polygon fill="midnightblue" stroke="midnightblue" points="41.9429,-303.384 31.9606,-299.834 37.5502,-308.834 41.9429,-303.384"/>
</g>
<!-- Node25 -->
<g id="node25" class="node"><title>Node25</title>
<g id="a_node25"><a xlink:href="../../d0/d3f/blaster_8qc.html" target="_top" xlink:title="weapon/blaster.qc">
<polygon fill="none" stroke="black" points="1372,-280.5 1372,-299.5 1468,-299.5 1468,-280.5 1372,-280.5"/>
<text text-anchor="middle" x="1420" y="-287.5" font-family="Helvetica,sans-Serif" font-size="10.00">weapon/blaster.qc</text>
</a>
</g>
</g>
<!-- Node24&#45;&gt;Node25 -->
<g id="edge30" class="edge"><title>Node24&#45;&gt;Node25</title>
<path fill="none" stroke="midnightblue" d="M1331.03,-336.324C1348.03,-327.664 1374.38,-314.242 1393.99,-304.249"/>
<polygon fill="midnightblue" stroke="midnightblue" points="1395.69,-307.312 1403.01,-299.655 1392.51,-301.075 1395.69,-307.312"/>
</g>
<!-- Node26 -->
<g id="node26" class="node"><title>Node26</title>
<g id="a_node26"><a xlink:href="../../d8/d12/shotgun_8qc.html" target="_top" xlink:title="weapon/shotgun.qc">
<polygon fill="none" stroke="black" points="1486.5,-280.5 1486.5,-299.5 1587.5,-299.5 1587.5,-280.5 1486.5,-280.5"/>
<text text-anchor="middle" x="1537" y="-287.5" font-family="Helvetica,sans-Serif" font-size="10.00">weapon/shotgun.qc</text>
</a>
</g>
</g>
<!-- Node24&#45;&gt;Node26 -->
<g id="edge31" class="edge"><title>Node24&#45;&gt;Node26</title>
<path fill="none" stroke="midnightblue" d="M1335.38,-339.822C1371.31,-331.123 1444.52,-313.395 1492.13,-301.865"/>
<polygon fill="midnightblue" stroke="midnightblue" points="1492.98,-305.26 1501.88,-299.505 1491.34,-298.457 1492.98,-305.26"/>
</g>
<!-- Node27 -->
<g id="node27" class="node"><title>Node27</title>
<g id="a_node27"><a xlink:href="../../da/d3b/weapons_2weapon_2machinegun_8qc.html" target="_top" xlink:title="weapon/machinegun.qc">
<polygon fill="none" stroke="black" points="1605.5,-280.5 1605.5,-299.5 1724.5,-299.5 1724.5,-280.5 1605.5,-280.5"/>
<text text-anchor="middle" x="1665" y="-287.5" font-family="Helvetica,sans-Serif" font-size="10.00">weapon/machinegun.qc</text>
</a>
</g>
</g>
<!-- Node24&#45;&gt;Node27 -->
<g id="edge32" class="edge"><title>Node24&#45;&gt;Node27</title>
<path fill="none" stroke="midnightblue" d="M1335.17,-341.744C1386.41,-333.861 1518.83,-313.488 1599.44,-301.086"/>
<polygon fill="midnightblue" stroke="midnightblue" points="1600.14,-304.52 1609.49,-299.54 1599.07,-297.602 1600.14,-304.52"/>
</g>
<!-- Node28 -->
<g id="node28" class="node"><title>Node28</title>
<g id="a_node28"><a xlink:href="../../d0/da3/mortar_8qc.html" target="_top" xlink:title="weapon/mortar.qc">
<polygon fill="none" stroke="black" points="1742.5,-280.5 1742.5,-299.5 1837.5,-299.5 1837.5,-280.5 1742.5,-280.5"/>
<text text-anchor="middle" x="1790" y="-287.5" font-family="Helvetica,sans-Serif" font-size="10.00">weapon/mortar.qc</text>
</a>
</g>
</g>
<!-- Node24&#45;&gt;Node28 -->
<g id="edge33" class="edge"><title>Node24&#45;&gt;Node28</title>
<path fill="none" stroke="midnightblue" d="M1335.41,-343.079C1395.93,-337.57 1573.57,-320.847 1732.48,-300.005"/>
<polygon fill="midnightblue" stroke="midnightblue" points="1732.98,-303.469 1742.44,-298.69 1732.07,-296.529 1732.98,-303.469"/>
</g>
<!-- Node29 -->
<g id="node29" class="node"><title>Node29</title>
<g id="a_node29"><a xlink:href="../../d4/dd6/minelayer_8qc.html" target="_top" xlink:title="weapon/minelayer.qc">
<polygon fill="none" stroke="black" points="1855.5,-280.5 1855.5,-299.5 1964.5,-299.5 1964.5,-280.5 1855.5,-280.5"/>
<text text-anchor="middle" x="1910" y="-287.5" font-family="Helvetica,sans-Serif" font-size="10.00">weapon/minelayer.qc</text>
</a>
</g>
</g>
<!-- Node24&#45;&gt;Node29 -->
<g id="edge34" class="edge"><title>Node24&#45;&gt;Node29</title>
<path fill="none" stroke="midnightblue" d="M1335.33,-343.622C1406.17,-338.954 1640.25,-322.814 1845.17,-300.032"/>
<polygon fill="midnightblue" stroke="midnightblue" points="1845.66,-303.499 1855.21,-298.908 1844.89,-296.542 1845.66,-303.499"/>
</g>
<!-- Node30 -->
<g id="node30" class="node"><title>Node30</title>
<g id="a_node30"><a xlink:href="../../dc/d96/electro_8qc.html" target="_top" xlink:title="weapon/electro.qc">
<polygon fill="none" stroke="black" points="1983,-280.5 1983,-299.5 2079,-299.5 2079,-280.5 1983,-280.5"/>
<text text-anchor="middle" x="2031" y="-287.5" font-family="Helvetica,sans-Serif" font-size="10.00">weapon/electro.qc</text>
</a>
</g>
</g>
<!-- Node24&#45;&gt;Node30 -->
<g id="edge35" class="edge"><title>Node24&#45;&gt;Node30</title>
<path fill="none" stroke="midnightblue" d="M1335.11,-344.218C1417.19,-341.038 1722.84,-327.898 1973,-300 1973.1,-299.989 1973.2,-299.977 1973.3,-299.966"/>
<polygon fill="midnightblue" stroke="midnightblue" points="1973.44,-303.476 1982.94,-298.783 1972.58,-296.528 1973.44,-303.476"/>
</g>
<!-- Node31 -->
<g id="node31" class="node"><title>Node31</title>
<g id="a_node31"><a xlink:href="../../de/dc0/crylink_8qc.html" target="_top" xlink:title="weapon/crylink.qc">
<polygon fill="none" stroke="black" points="2097.5,-280.5 2097.5,-299.5 2192.5,-299.5 2192.5,-280.5 2097.5,-280.5"/>
<text text-anchor="middle" x="2145" y="-287.5" font-family="Helvetica,sans-Serif" font-size="10.00">weapon/crylink.qc</text>
</a>
</g>
</g>
<!-- Node24&#45;&gt;Node31 -->
<g id="edge36" class="edge"><title>Node24&#45;&gt;Node31</title>
<path fill="none" stroke="midnightblue" d="M1335.3,-344.531C1425.18,-342.392 1782.42,-332.28 2087.1,-299.974"/>
<polygon fill="midnightblue" stroke="midnightblue" points="2087.89,-303.41 2097.46,-298.865 2087.15,-296.45 2087.89,-303.41"/>
</g>
<!-- Node32 -->
<g id="node32" class="node"><title>Node32</title>
<g id="a_node32"><a xlink:href="../../dc/def/vortex_8qc.html" target="_top" xlink:title="weapon/vortex.qc">
<polygon fill="none" stroke="black" points="2211,-280.5 2211,-299.5 2305,-299.5 2305,-280.5 2211,-280.5"/>
<text text-anchor="middle" x="2258" y="-287.5" font-family="Helvetica,sans-Serif" font-size="10.00">weapon/vortex.qc</text>
</a>
</g>
</g>
<!-- Node24&#45;&gt;Node32 -->
<g id="edge37" class="edge"><title>Node24&#45;&gt;Node32</title>
<path fill="none" stroke="midnightblue" d="M1335.02,-344.755C1432.25,-343.45 1848.29,-335.997 2200.63,-299.9"/>
<polygon fill="midnightblue" stroke="midnightblue" points="2201.19,-303.362 2210.77,-298.851 2200.47,-296.399 2201.19,-303.362"/>
</g>
<!-- Node33 -->
<g id="node33" class="node"><title>Node33</title>
<g id="a_node33"><a xlink:href="../../d9/d06/hagar_8qc.html" target="_top" xlink:title="weapon/hagar.qc">
<polygon fill="none" stroke="black" points="2323.5,-280.5 2323.5,-299.5 2414.5,-299.5 2414.5,-280.5 2323.5,-280.5"/>
<text text-anchor="middle" x="2369" y="-287.5" font-family="Helvetica,sans-Serif" font-size="10.00">weapon/hagar.qc</text>
</a>
</g>
</g>
<!-- Node24&#45;&gt;Node33 -->
<g id="edge38" class="edge"><title>Node24&#45;&gt;Node33</title>
<path fill="none" stroke="midnightblue" d="M1335.18,-344.966C1440.08,-344.61 1914.51,-340.765 2313.44,-299.912"/>
<polygon fill="midnightblue" stroke="midnightblue" points="2313.85,-303.388 2323.44,-298.878 2313.13,-296.425 2313.85,-303.388"/>
</g>
<!-- Node34 -->
<g id="node34" class="node"><title>Node34</title>
<g id="a_node34"><a xlink:href="../../d9/d5d/devastator_8qc.html" target="_top" xlink:title="weapon/devastator.qc">
<polygon fill="none" stroke="black" points="134.5,-280.5 134.5,-299.5 247.5,-299.5 247.5,-280.5 134.5,-280.5"/>
<text text-anchor="middle" x="191" y="-287.5" font-family="Helvetica,sans-Serif" font-size="10.00">weapon/devastator.qc</text>
</a>
</g>
</g>
<!-- Node24&#45;&gt;Node34 -->
<g id="edge39" class="edge"><title>Node24&#45;&gt;Node34</title>
<path fill="none" stroke="midnightblue" d="M1292.71,-344.846C1184.02,-343.906 680.06,-337.669 257.647,-300.066"/>
<polygon fill="midnightblue" stroke="midnightblue" points="257.957,-296.58 247.684,-299.172 257.331,-303.552 257.957,-296.58"/>
</g>
<!-- Node35 -->
<g id="node35" class="node"><title>Node35</title>
<g id="a_node35"><a xlink:href="../../d9/d28/porto_8qc.html" target="_top" xlink:title="weapon/porto.qc">
<polygon fill="none" stroke="black" points="265.5,-280.5 265.5,-299.5 354.5,-299.5 354.5,-280.5 265.5,-280.5"/>
<text text-anchor="middle" x="310" y="-287.5" font-family="Helvetica,sans-Serif" font-size="10.00">weapon/porto.qc</text>
</a>
</g>
</g>
<!-- Node24&#45;&gt;Node35 -->
<g id="edge40" class="edge"><title>Node24&#45;&gt;Node35</title>
<path fill="none" stroke="midnightblue" d="M1292.84,-344.944C1191.1,-344.481 741.968,-340.202 364.783,-300.069"/>
<polygon fill="midnightblue" stroke="midnightblue" points="365.083,-296.581 354.766,-298.993 364.335,-303.541 365.083,-296.581"/>
</g>
<!-- Node36 -->
<g id="node36" class="node"><title>Node36</title>
<g id="a_node36"><a xlink:href="../../df/d42/vaporizer_8qc.html" target="_top" xlink:title="weapon/vaporizer.qc">
<polygon fill="none" stroke="black" points="372.5,-280.5 372.5,-299.5 479.5,-299.5 479.5,-280.5 372.5,-280.5"/>
<text text-anchor="middle" x="426" y="-287.5" font-family="Helvetica,sans-Serif" font-size="10.00">weapon/vaporizer.qc</text>
</a>
</g>
</g>
<!-- Node24&#45;&gt;Node36 -->
<g id="edge41" class="edge"><title>Node24&#45;&gt;Node36</title>
<path fill="none" stroke="midnightblue" d="M1292.89,-344.547C1199.65,-342.4 815.393,-332.034 489.832,-300.1"/>
<polygon fill="midnightblue" stroke="midnightblue" points="490.028,-296.603 479.732,-299.101 489.339,-303.569 490.028,-296.603"/>
</g>
<!-- Node37 -->
<g id="node37" class="node"><title>Node37</title>
<g id="a_node37"><a xlink:href="../../dd/df1/weapons_2weapon_2hook_8qc.html" target="_top" xlink:title="weapon/hook.qc">
<polygon fill="none" stroke="black" points="497,-280.5 497,-299.5 585,-299.5 585,-280.5 497,-280.5"/>
<text text-anchor="middle" x="541" y="-287.5" font-family="Helvetica,sans-Serif" font-size="10.00">weapon/hook.qc</text>
</a>
</g>
</g>
<!-- Node24&#45;&gt;Node37 -->
<g id="edge42" class="edge"><title>Node24&#45;&gt;Node37</title>
<path fill="none" stroke="midnightblue" d="M1292.72,-344.492C1206.78,-342.271 876.811,-332.089 595.193,-300.015"/>
<polygon fill="midnightblue" stroke="midnightblue" points="595.531,-296.531 585.196,-298.865 594.731,-303.485 595.531,-296.531"/>
</g>
<!-- Node38 -->
<g id="node38" class="node"><title>Node38</title>
<g id="a_node38"><a xlink:href="../../d1/dc9/hlac_8qc.html" target="_top" xlink:title="weapon/hlac.qc">
<polygon fill="none" stroke="black" points="603.5,-280.5 603.5,-299.5 688.5,-299.5 688.5,-280.5 603.5,-280.5"/>
<text text-anchor="middle" x="646" y="-287.5" font-family="Helvetica,sans-Serif" font-size="10.00">weapon/hlac.qc</text>
</a>
</g>
</g>
<!-- Node24&#45;&gt;Node38 -->
<g id="edge43" class="edge"><title>Node24&#45;&gt;Node38</title>
<path fill="none" stroke="midnightblue" d="M1292.92,-344.213C1215.3,-341.159 938.01,-328.858 698.456,-299.922"/>
<polygon fill="midnightblue" stroke="midnightblue" points="698.867,-296.447 688.517,-298.71 698.019,-303.395 698.867,-296.447"/>
</g>
<!-- Node39 -->
<g id="node39" class="node"><title>Node39</title>
<g id="a_node39"><a xlink:href="../../d1/df6/tuba_8qc.html" target="_top" xlink:title="weapon/tuba.qc">
<polygon fill="none" stroke="black" points="707,-280.5 707,-299.5 793,-299.5 793,-280.5 707,-280.5"/>
<text text-anchor="middle" x="750" y="-287.5" font-family="Helvetica,sans-Serif" font-size="10.00">weapon/tuba.qc</text>
</a>
</g>
</g>
<!-- Node24&#45;&gt;Node39 -->
<g id="edge44" class="edge"><title>Node24&#45;&gt;Node39</title>
<path fill="none" stroke="midnightblue" d="M1292.96,-343.785C1224.15,-339.677 999.43,-325.213 803.011,-300.028"/>
<polygon fill="midnightblue" stroke="midnightblue" points="803.455,-296.557 793.088,-298.744 802.556,-303.499 803.455,-296.557"/>
</g>
<!-- Node40 -->
<g id="node40" class="node"><title>Node40</title>
<g id="a_node40"><a xlink:href="../../da/d5e/rifle_8qc.html" target="_top" xlink:title="weapon/rifle.qc">
<polygon fill="none" stroke="black" points="811.5,-280.5 811.5,-299.5 894.5,-299.5 894.5,-280.5 811.5,-280.5"/>
<text text-anchor="middle" x="853" y="-287.5" font-family="Helvetica,sans-Serif" font-size="10.00">weapon/rifle.qc</text>
</a>
</g>
</g>
<!-- Node24&#45;&gt;Node40 -->
<g id="edge45" class="edge"><title>Node24&#45;&gt;Node40</title>
<path fill="none" stroke="midnightblue" d="M1292.98,-343.215C1233.62,-338.067 1059.53,-322.218 904.865,-300.189"/>
<polygon fill="midnightblue" stroke="midnightblue" points="905.103,-296.688 894.707,-298.729 904.107,-303.616 905.103,-296.688"/>
</g>
<!-- Node41 -->
<g id="node41" class="node"><title>Node41</title>
<g id="a_node41"><a xlink:href="../../d8/d43/fireball_8qc.html" target="_top" xlink:title="weapon/fireball.qc">
<polygon fill="none" stroke="black" points="912.5,-280.5 912.5,-299.5 1007.5,-299.5 1007.5,-280.5 912.5,-280.5"/>
<text text-anchor="middle" x="960" y="-287.5" font-family="Helvetica,sans-Serif" font-size="10.00">weapon/fireball.qc</text>
</a>
</g>
</g>
<!-- Node24&#45;&gt;Node41 -->
<g id="edge46" class="edge"><title>Node24&#45;&gt;Node41</title>
<path fill="none" stroke="midnightblue" d="M1292.75,-341.826C1245.42,-334.748 1127.51,-317.063 1017.52,-300.072"/>
<polygon fill="midnightblue" stroke="midnightblue" points="1018,-296.605 1007.58,-298.536 1016.93,-303.523 1018,-296.605"/>
</g>
<!-- Node42 -->
<g id="node42" class="node"><title>Node42</title>
<g id="a_node42"><a xlink:href="../../dc/d7e/seeker_8qc.html" target="_top" xlink:title="weapon/seeker.qc">
<polygon fill="none" stroke="black" points="1026,-280.5 1026,-299.5 1122,-299.5 1122,-280.5 1026,-280.5"/>
<text text-anchor="middle" x="1074" y="-287.5" font-family="Helvetica,sans-Serif" font-size="10.00">weapon/seeker.qc</text>
</a>
</g>
</g>
<!-- Node24&#45;&gt;Node42 -->
<g id="edge47" class="edge"><title>Node24&#45;&gt;Node42</title>
<path fill="none" stroke="midnightblue" d="M1292.7,-340.208C1254.63,-331.641 1174.02,-313.506 1122.02,-301.805"/>
<polygon fill="midnightblue" stroke="midnightblue" points="1122.55,-298.336 1112.02,-299.556 1121.01,-305.165 1122.55,-298.336"/>
</g>
<!-- Node43 -->
<g id="node43" class="node"><title>Node43</title>
<g id="a_node43"><a xlink:href="../../d3/d3d/shockwave_8qc.html" target="_top" xlink:title="weapon/shockwave.qc">
<polygon fill="none" stroke="black" points="1140,-280.5 1140,-299.5 1256,-299.5 1256,-280.5 1140,-280.5"/>
<text text-anchor="middle" x="1198" y="-287.5" font-family="Helvetica,sans-Serif" font-size="10.00">weapon/shockwave.qc</text>
</a>
</g>
</g>
<!-- Node24&#45;&gt;Node43 -->
<g id="edge48" class="edge"><title>Node24&#45;&gt;Node43</title>
<path fill="none" stroke="midnightblue" d="M1295.62,-336.444C1276.78,-327.675 1247.27,-313.935 1225.62,-303.858"/>
<polygon fill="midnightblue" stroke="midnightblue" points="1226.84,-300.564 1216.29,-299.516 1223.88,-306.91 1226.84,-300.564"/>
</g>
<!-- Node44 -->
<g id="node44" class="node"><title>Node44</title>
<g id="a_node44"><a xlink:href="../../da/d11/arc_8qc.html" target="_top" xlink:title="weapon/arc.qc">
<polygon fill="none" stroke="black" points="1274,-280.5 1274,-299.5 1354,-299.5 1354,-280.5 1274,-280.5"/>
<text text-anchor="middle" x="1314" y="-287.5" font-family="Helvetica,sans-Serif" font-size="10.00">weapon/arc.qc</text>
</a>
</g>
</g>
<!-- Node24&#45;&gt;Node44 -->
<g id="edge49" class="edge"><title>Node24&#45;&gt;Node44</title>
<path fill="none" stroke="midnightblue" d="M1314,-336.083C1314,-329.006 1314,-318.861 1314,-309.986"/>
<polygon fill="midnightblue" stroke="midnightblue" points="1317.5,-309.751 1314,-299.751 1310.5,-309.751 1317.5,-309.751"/>
</g>
<!-- Node47 -->
<g id="node47" class="node"><title>Node47</title>
<g id="a_node47"><a xlink:href="../../dd/df9/panel_8qh.html" target="_top" xlink:title="../panel.qh">
<polygon fill="none" stroke="black" points="2862,-504.5 2862,-523.5 2924,-523.5 2924,-504.5 2862,-504.5"/>
<text text-anchor="middle" x="2893" y="-511.5" font-family="Helvetica,sans-Serif" font-size="10.00">../panel.qh</text>
</a>
</g>
</g>
<!-- Node46&#45;&gt;Node47 -->
<g id="edge52" class="edge"><title>Node46&#45;&gt;Node47</title>
<path fill="none" stroke="midnightblue" d="M2898.01,-560.083C2897.21,-552.927 2896.07,-542.635 2895.08,-533.691"/>
<polygon fill="midnightblue" stroke="midnightblue" points="2898.56,-533.303 2893.97,-523.751 2891.6,-534.076 2898.56,-533.303"/>
</g>
<!-- Node47&#45;&gt;Node5 -->
<g id="edge53" class="edge"><title>Node47&#45;&gt;Node5</title>
<path fill="none" stroke="midnightblue" d="M2884.58,-504.083C2877.15,-496.22 2866.15,-484.569 2857.19,-475.081"/>
<polygon fill="midnightblue" stroke="midnightblue" points="2859.68,-472.618 2850.26,-467.751 2854.59,-477.424 2859.68,-472.618"/>
</g>
<!-- Node47&#45;&gt;Node45 -->
<g id="edge54" class="edge"><title>Node47&#45;&gt;Node45</title>
<path fill="none" stroke="midnightblue" d="M2872.24,-504.444C2850.68,-495.557 2816.74,-481.563 2792.21,-471.451"/>
<polygon fill="midnightblue" stroke="midnightblue" points="2793.24,-468.092 2782.66,-467.516 2790.57,-474.563 2793.24,-468.092"/>
</g>
<!-- Node48 -->
<g id="node48" class="node"><title>Node48</title>
<g id="a_node48"><a xlink:href="../../d8/d0e/client_2mutators_2events_8qh.html" target="_top" xlink:title="client/mutators/events.qh">
<polygon fill="none" stroke="black" points="2883.5,-448.5 2883.5,-467.5 3010.5,-467.5 3010.5,-448.5 2883.5,-448.5"/>
<text text-anchor="middle" x="2947" y="-455.5" font-family="Helvetica,sans-Serif" font-size="10.00">client/mutators/events.qh</text>
</a>
</g>
</g>
<!-- Node47&#45;&gt;Node48 -->
<g id="edge55" class="edge"><title>Node47&#45;&gt;Node48</title>
<path fill="none" stroke="midnightblue" d="M2901.92,-504.083C2909.78,-496.22 2921.43,-484.569 2930.92,-475.081"/>
<polygon fill="midnightblue" stroke="midnightblue" points="2933.65,-477.297 2938.25,-467.751 2928.7,-472.347 2933.65,-477.297"/>
</g>
<!-- Node49 -->
<g id="node49" class="node"><title>Node49</title>
<g id="a_node49"><a xlink:href="../../db/d38/base_8qh.html" target="_top" xlink:title="common/mutators/base.qh">
<polygon fill="none" stroke="black" points="2880.5,-392.5 2880.5,-411.5 3013.5,-411.5 3013.5,-392.5 2880.5,-392.5"/>
<text text-anchor="middle" x="2947" y="-399.5" font-family="Helvetica,sans-Serif" font-size="10.00">common/mutators/base.qh</text>
</a>
</g>
</g>
<!-- Node48&#45;&gt;Node49 -->
<g id="edge56" class="edge"><title>Node48&#45;&gt;Node49</title>
<path fill="none" stroke="midnightblue" d="M2947,-448.083C2947,-441.006 2947,-430.861 2947,-421.986"/>
<polygon fill="midnightblue" stroke="midnightblue" points="2950.5,-421.751 2947,-411.751 2943.5,-421.751 2950.5,-421.751"/>
</g>
<!-- Node50 -->
<g id="node50" class="node"><title>Node50</title>
<g id="a_node50"><a xlink:href="../../d4/d95/common_2mutators_2events_8qh.html" target="_top" xlink:title="events.qh">
<polygon fill="none" stroke="black" points="2923.5,-336.5 2923.5,-355.5 2982.5,-355.5 2982.5,-336.5 2923.5,-336.5"/>
<text text-anchor="middle" x="2953" y="-343.5" font-family="Helvetica,sans-Serif" font-size="10.00">events.qh</text>
</a>
</g>
</g>
<!-- Node49&#45;&gt;Node50 -->
<g id="edge57" class="edge"><title>Node49&#45;&gt;Node50</title>
<path fill="none" stroke="midnightblue" d="M2947.99,-392.083C2948.79,-384.927 2949.93,-374.635 2950.92,-365.691"/>
<polygon fill="midnightblue" stroke="midnightblue" points="2954.4,-366.076 2952.03,-355.751 2947.44,-365.303 2954.4,-366.076"/>
</g>
<!-- Node51&#45;&gt;Node23 -->
<g id="edge59" class="edge"><title>Node51&#45;&gt;Node23</title>
<path fill="none" stroke="midnightblue" d="M3031.43,-560.297C3033.05,-527.633 3038.79,-411.866 3041.06,-365.957"/>
<polygon fill="midnightblue" stroke="midnightblue" points="3044.56,-366.045 3041.56,-355.884 3037.57,-365.698 3044.56,-366.045"/>
</g>
</g>
</svg>
