<?xml version="1.0" encoding="UTF-8" standalone="no"?>
<!DOCTYPE svg PUBLIC "-//W3C//DTD SVG 1.1//EN"
 "http://www.w3.org/Graphics/SVG/1.1/DTD/svg11.dtd">
<!-- Generated by graphviz version 2.40.1 (20161225.0304)
 -->
<!-- Title: SUB_CalcAngleMoveDone Pages: 1 -->
<svg width="1802pt" height="352pt"
 viewBox="0.00 0.00 1802.00 351.74" xmlns="http://www.w3.org/2000/svg" xmlns:xlink="http://www.w3.org/1999/xlink">
<g id="graph0" class="graph" transform="scale(1 1) rotate(0) translate(4 347.7418)">
<title>SUB_CalcAngleMoveDone</title>
<!-- Node12 -->
<g id="node1" class="node">
<title>Node12</title>
<polygon fill="#bfbfbf" stroke="#000000" points="0,-264.0904 0,-283.0904 143,-283.0904 143,-264.0904 0,-264.0904"/>
<text text-anchor="middle" x="71.5" y="-271.0904" font-family="Helvetica,sans-Serif" font-size="10.00" fill="#000000">SUB_CalcAngleMoveDone</text>
</g>
<!-- Node12&#45;&gt;Node12 -->
<g id="edge6" class="edge">
<title>Node12&#45;&gt;Node12</title>
<path fill="none" stroke="#191970" d="M43.1275,-292.2444C44.3135,-297.5272 53.771,-301.5904 71.5,-301.5904 98.5156,-301.5904 106.3248,-292.1557 94.9276,-283.3475"/>
<polygon fill="#191970" stroke="#191970" points="46.2735,-293.7885 48.0724,-283.3475 40.1551,-290.3879 46.2735,-293.7885"/>
</g>
<!-- Node13 -->
<g id="node2" class="node">
<title>Node13</title>
<g id="a_node2"><a xlink:href="../../db/d2f/subs_8qh.html#a9f52f1ab3e5f360bfe0de175c3f16e6c" target="_top" xlink:title="SUB_CalcAngleMove">
<polygon fill="none" stroke="#000000" points="308,-283.0904 308,-302.0904 425,-302.0904 425,-283.0904 308,-283.0904"/>
<text text-anchor="middle" x="366.5" y="-290.0904" font-family="Helvetica,sans-Serif" font-size="10.00" fill="#000000">SUB_CalcAngleMove</text>
</a>
</g>
</g>
<!-- Node12&#45;&gt;Node13 -->
<g id="edge1" class="edge">
<title>Node12&#45;&gt;Node13</title>
<path fill="none" stroke="#191970" d="M153.5492,-278.875C202.5454,-282.0306 263.6277,-285.9648 307.7931,-288.8093"/>
<polygon fill="#191970" stroke="#191970" points="153.4922,-275.3641 143.2879,-278.2141 153.0422,-282.3496 153.4922,-275.3641"/>
</g>
<!-- Node17 -->
<g id="node6" class="node">
<title>Node17</title>
<g id="a_node6"><a xlink:href="../../db/d2f/subs_8qh.html#a8ed167ee1a9e29cad462eccfe9a7ca09" target="_top" xlink:title="SUB_NullThink">
<polygon fill="none" stroke="#000000" points="179,-245.0904 179,-264.0904 268,-264.0904 268,-245.0904 179,-245.0904"/>
<text text-anchor="middle" x="223.5" y="-252.0904" font-family="Helvetica,sans-Serif" font-size="10.00" fill="#000000">SUB_NullThink</text>
</a>
</g>
</g>
<!-- Node12&#45;&gt;Node17 -->
<g id="edge7" class="edge">
<title>Node12&#45;&gt;Node17</title>
<path fill="none" stroke="#191970" d="M153.0377,-263.3982C161.8697,-262.2942 170.6014,-261.2028 178.7523,-260.1839"/>
<polygon fill="#191970" stroke="#191970" points="152.5378,-259.9334 143.0491,-264.6468 153.4061,-266.8793 152.5378,-259.9334"/>
</g>
<!-- Node14 -->
<g id="node3" class="node">
<title>Node14</title>
<g id="a_node3"><a xlink:href="../../db/d2f/subs_8qh.html#a59257f95f3d7671625c35a3e3a4afbc8" target="_top" xlink:title="SUB_CalcAngleMoveEnt">
<polygon fill="none" stroke="#000000" points="465,-321.0904 465,-340.0904 598,-340.0904 598,-321.0904 465,-321.0904"/>
<text text-anchor="middle" x="531.5" y="-328.0904" font-family="Helvetica,sans-Serif" font-size="10.00" fill="#000000">SUB_CalcAngleMoveEnt</text>
</a>
</g>
</g>
<!-- Node13&#45;&gt;Node14 -->
<g id="edge2" class="edge">
<title>Node13&#45;&gt;Node14</title>
<path fill="none" stroke="#191970" d="M418.154,-304.4865C441.3465,-309.8278 468.3383,-316.0441 490.1629,-321.0704"/>
<polygon fill="#191970" stroke="#191970" points="418.6669,-301.0131 408.1365,-302.1794 417.0959,-307.8345 418.6669,-301.0131"/>
</g>
<!-- Node15 -->
<g id="node4" class="node">
<title>Node15</title>
<g id="a_node4"><a xlink:href="../../de/d2e/train_8qc.html#a5b28eb19effb650df0babea0df07810f" target="_top" xlink:title="train_wait">
<polygon fill="none" stroke="#000000" points="499,-283.0904 499,-302.0904 564,-302.0904 564,-283.0904 499,-283.0904"/>
<text text-anchor="middle" x="531.5" y="-290.0904" font-family="Helvetica,sans-Serif" font-size="10.00" fill="#000000">train_wait</text>
</a>
</g>
</g>
<!-- Node13&#45;&gt;Node15 -->
<g id="edge3" class="edge">
<title>Node13&#45;&gt;Node15</title>
<path fill="none" stroke="#191970" d="M435.1716,-292.5904C457.271,-292.5904 480.733,-292.5904 498.969,-292.5904"/>
<polygon fill="#191970" stroke="#191970" points="435.1374,-289.0905 425.1374,-292.5904 435.1374,-296.0905 435.1374,-289.0905"/>
</g>
<!-- Node16 -->
<g id="node5" class="node">
<title>Node16</title>
<g id="a_node5"><a xlink:href="../../de/d2e/train_8qc.html#a887ad93d45858763031e3816a1a0923d" target="_top" xlink:title="train_next">
<polygon fill="none" stroke="#000000" points="653.5,-283.0904 653.5,-302.0904 719.5,-302.0904 719.5,-283.0904 653.5,-283.0904"/>
<text text-anchor="middle" x="686.5" y="-290.0904" font-family="Helvetica,sans-Serif" font-size="10.00" fill="#000000">train_next</text>
</a>
</g>
</g>
<!-- Node15&#45;&gt;Node16 -->
<g id="edge4" class="edge">
<title>Node15&#45;&gt;Node16</title>
<path fill="none" stroke="#191970" d="M574.6464,-286.4682C599.5635,-285.4953 630.4205,-285.6532 653.409,-286.9421"/>
<polygon fill="#191970" stroke="#191970" points="574.1949,-282.9856 564.3715,-286.9544 574.5258,-289.9778 574.1949,-282.9856"/>
</g>
<!-- Node16&#45;&gt;Node15 -->
<g id="edge5" class="edge">
<title>Node16&#45;&gt;Node15</title>
<path fill="none" stroke="#191970" d="M643.1153,-298.7219C618.1605,-299.6876 587.3098,-299.5225 564.3715,-298.2264"/>
<polygon fill="#191970" stroke="#191970" points="643.5842,-302.2038 653.409,-298.2388 643.2559,-295.2115 643.5842,-302.2038"/>
</g>
<!-- Node18 -->
<g id="node7" class="node">
<title>Node18</title>
<g id="a_node7"><a xlink:href="../../db/d2f/subs_8qh.html#af3e9ed532069ed0ac58d81c4275535bb" target="_top" xlink:title="SUB_CalcMove_Bezier">
<polygon fill="none" stroke="#000000" points="304,-245.0904 304,-264.0904 429,-264.0904 429,-245.0904 304,-245.0904"/>
<text text-anchor="middle" x="366.5" y="-252.0904" font-family="Helvetica,sans-Serif" font-size="10.00" fill="#000000">SUB_CalcMove_Bezier</text>
</a>
</g>
</g>
<!-- Node17&#45;&gt;Node18 -->
<g id="edge8" class="edge">
<title>Node17&#45;&gt;Node18</title>
<path fill="none" stroke="#191970" d="M278.3825,-254.5904C286.7626,-254.5904 295.4652,-254.5904 303.9943,-254.5904"/>
<polygon fill="#191970" stroke="#191970" points="278.3538,-251.0905 268.3537,-254.5904 278.3537,-258.0905 278.3538,-251.0905"/>
</g>
<!-- Node18&#45;&gt;Node16 -->
<g id="edge9" class="edge">
<title>Node18&#45;&gt;Node16</title>
<path fill="none" stroke="#191970" d="M439.2635,-258.1383C485.0019,-260.967 545.1495,-265.782 598,-273.5904 616.4997,-276.3237 636.9235,-280.6214 653.4852,-284.4385"/>
<polygon fill="#191970" stroke="#191970" points="439.3345,-254.6364 429.1425,-257.5302 438.9145,-261.6238 439.3345,-254.6364"/>
</g>
<!-- Node19 -->
<g id="node8" class="node">
<title>Node19</title>
<g id="a_node8"><a xlink:href="../../db/d2f/subs_8qh.html#adf72da94012ed6f3ee8d3d25a6634e2b" target="_top" xlink:title="SUB_CalcMove">
<polygon fill="none" stroke="#000000" points="487,-207.0904 487,-226.0904 576,-226.0904 576,-207.0904 487,-207.0904"/>
<text text-anchor="middle" x="531.5" y="-214.0904" font-family="Helvetica,sans-Serif" font-size="10.00" fill="#000000">SUB_CalcMove</text>
</a>
</g>
</g>
<!-- Node18&#45;&gt;Node19 -->
<g id="edge10" class="edge">
<title>Node18&#45;&gt;Node19</title>
<path fill="none" stroke="#191970" d="M418.154,-242.6944C441.3465,-237.3531 468.3383,-231.1368 490.1629,-226.1105"/>
<polygon fill="#191970" stroke="#191970" points="417.0959,-239.3464 408.1365,-245.0014 418.6669,-246.1678 417.0959,-239.3464"/>
</g>
<!-- Node19&#45;&gt;Node16 -->
<g id="edge28" class="edge">
<title>Node19&#45;&gt;Node16</title>
<path fill="none" stroke="#191970" d="M575.7795,-229.7823C583.4355,-232.8371 591.1332,-236.4354 598,-240.5904 616.5702,-251.827 615.4348,-262.3457 634,-273.5904 640.1353,-277.3065 647.1103,-280.4618 653.927,-283.07"/>
<polygon fill="#191970" stroke="#191970" points="576.7626,-226.4136 566.1699,-226.2025 574.319,-232.9733 576.7626,-226.4136"/>
</g>
<!-- Node20 -->
<g id="node9" class="node">
<title>Node20</title>
<g id="a_node9"><a xlink:href="../../d6/d9c/door_8qc.html#ab1bcfdc401011109dbfbec373e08244d" target="_top" xlink:title="door_go_down">
<polygon fill="none" stroke="#000000" points="643,-245.0904 643,-264.0904 730,-264.0904 730,-245.0904 643,-245.0904"/>
<text text-anchor="middle" x="686.5" y="-252.0904" font-family="Helvetica,sans-Serif" font-size="10.00" fill="#000000">door_go_down</text>
</a>
</g>
</g>
<!-- Node19&#45;&gt;Node20 -->
<g id="edge11" class="edge">
<title>Node19&#45;&gt;Node20</title>
<path fill="none" stroke="#191970" d="M580.6105,-228.6304C602.2647,-233.9392 627.3502,-240.0892 647.6682,-245.0704"/>
<polygon fill="#191970" stroke="#191970" points="581.1588,-225.1613 570.613,-226.1794 579.492,-231.9599 581.1588,-225.1613"/>
</g>
<!-- Node30 -->
<g id="node19" class="node">
<title>Node30</title>
<g id="a_node19"><a xlink:href="../../d6/d9c/door_8qc.html#aff3250044af884a25a96e74e6f42ae24" target="_top" xlink:title="door_go_up">
<polygon fill="none" stroke="#000000" points="920,-283.0904 920,-302.0904 993,-302.0904 993,-283.0904 920,-283.0904"/>
<text text-anchor="middle" x="956.5" y="-290.0904" font-family="Helvetica,sans-Serif" font-size="10.00" fill="#000000">door_go_up</text>
</a>
</g>
</g>
<!-- Node19&#45;&gt;Node30 -->
<g id="edge27" class="edge">
<title>Node19&#45;&gt;Node30</title>
<path fill="none" stroke="#191970" d="M586.3341,-219.1394C628.3555,-221.6883 687.6511,-226.5746 739,-235.5904 807.052,-247.539 884.9751,-270.2134 926.5877,-283.0698"/>
<polygon fill="#191970" stroke="#191970" points="586.4928,-215.6428 576.3063,-218.5556 586.0859,-222.631 586.4928,-215.6428"/>
</g>
<!-- Node31 -->
<g id="node20" class="node">
<title>Node31</title>
<g id="a_node20"><a xlink:href="../../d0/d1a/platforms_8qh.html#a9574d891d234463bb42d94f88607b988" target="_top" xlink:title="plat_go_down">
<polygon fill="none" stroke="#000000" points="644.5,-112.0904 644.5,-131.0904 728.5,-131.0904 728.5,-112.0904 644.5,-112.0904"/>
<text text-anchor="middle" x="686.5" y="-119.0904" font-family="Helvetica,sans-Serif" font-size="10.00" fill="#000000">plat_go_down</text>
</a>
</g>
</g>
<!-- Node19&#45;&gt;Node31 -->
<g id="edge29" class="edge">
<title>Node19&#45;&gt;Node31</title>
<path fill="none" stroke="#191970" d="M556.005,-201.5713C588.1604,-181.8631 643.675,-147.838 670.7432,-131.2478"/>
<polygon fill="#191970" stroke="#191970" points="553.9123,-198.7487 547.2152,-206.9585 557.5702,-204.717 553.9123,-198.7487"/>
</g>
<!-- Node34 -->
<g id="node23" class="node">
<title>Node34</title>
<g id="a_node23"><a xlink:href="../../d0/d1a/platforms_8qh.html#a6693325a5179add8d074ce9869972142" target="_top" xlink:title="plat_go_up">
<polygon fill="none" stroke="#000000" points="921.5,-17.0904 921.5,-36.0904 991.5,-36.0904 991.5,-17.0904 921.5,-17.0904"/>
<text text-anchor="middle" x="956.5" y="-24.0904" font-family="Helvetica,sans-Serif" font-size="10.00" fill="#000000">plat_go_up</text>
</a>
</g>
</g>
<!-- Node19&#45;&gt;Node34 -->
<g id="edge41" class="edge">
<title>Node19&#45;&gt;Node34</title>
<path fill="none" stroke="#191970" d="M543.8899,-198.6316C575.8151,-154.3017 666.0638,-40.8649 775,-7.5904 827.7231,8.5138 892.6242,-6.0512 928.7921,-17.0342"/>
<polygon fill="#191970" stroke="#191970" points="540.8958,-196.8036 537.9769,-206.9884 546.6101,-200.8468 540.8958,-196.8036"/>
</g>
<!-- Node41 -->
<g id="node30" class="node">
<title>Node41</title>
<g id="a_node30"><a xlink:href="../../db/d2f/subs_8qh.html#ab98375d0b27a874a6dfb67d8ec295610" target="_top" xlink:title="SUB_CalcMoveEnt">
<polygon fill="none" stroke="#000000" points="634,-169.0904 634,-188.0904 739,-188.0904 739,-169.0904 634,-169.0904"/>
<text text-anchor="middle" x="686.5" y="-176.0904" font-family="Helvetica,sans-Serif" font-size="10.00" fill="#000000">SUB_CalcMoveEnt</text>
</a>
</g>
</g>
<!-- Node19&#45;&gt;Node41 -->
<g id="edge42" class="edge">
<title>Node19&#45;&gt;Node41</title>
<path fill="none" stroke="#191970" d="M580.6105,-204.5504C602.2647,-199.2417 627.3502,-193.0917 647.6682,-188.1105"/>
<polygon fill="#191970" stroke="#191970" points="579.492,-201.2209 570.613,-207.0014 581.1588,-208.0196 579.492,-201.2209"/>
</g>
<!-- Node21 -->
<g id="node10" class="node">
<title>Node21</title>
<g id="a_node10"><a xlink:href="../../d6/d9c/door_8qc.html#a8d938ad27fd52df3dcc1494048b0b852" target="_top" xlink:title="door_blocked">
<polygon fill="none" stroke="#000000" points="1040,-321.0904 1040,-340.0904 1122,-340.0904 1122,-321.0904 1040,-321.0904"/>
<text text-anchor="middle" x="1081" y="-328.0904" font-family="Helvetica,sans-Serif" font-size="10.00" fill="#000000">door_blocked</text>
</a>
</g>
</g>
<!-- Node20&#45;&gt;Node21 -->
<g id="edge12" class="edge">
<title>Node20&#45;&gt;Node21</title>
<path fill="none" stroke="#191970" d="M729.5454,-268.2522C732.8382,-269.8695 736.0314,-271.6462 739,-273.5904 758.462,-286.3366 753.9239,-301.7398 775,-311.5904 862.1585,-352.3268 978.7847,-345.0107 1039.8173,-337.1899"/>
<polygon fill="#191970" stroke="#191970" points="730.6688,-264.923 720.1053,-264.1093 727.8557,-271.333 730.6688,-264.923"/>
</g>
<!-- Node23 -->
<g id="node12" class="node">
<title>Node23</title>
<g id="a_node12"><a xlink:href="../../d6/d9c/door_8qc.html#ae87674ba0b9d41767ee95397dabe1029" target="_top" xlink:title="door_fire">
<polygon fill="none" stroke="#000000" points="1051.5,-245.0904 1051.5,-264.0904 1110.5,-264.0904 1110.5,-245.0904 1051.5,-245.0904"/>
<text text-anchor="middle" x="1081" y="-252.0904" font-family="Helvetica,sans-Serif" font-size="10.00" fill="#000000">door_fire</text>
</a>
</g>
</g>
<!-- Node20&#45;&gt;Node23 -->
<g id="edge14" class="edge">
<title>Node20&#45;&gt;Node23</title>
<path fill="none" stroke="#191970" d="M740.3706,-254.5904C824.7193,-254.5904 985.1519,-254.5904 1051.3244,-254.5904"/>
<polygon fill="#191970" stroke="#191970" points="740.2257,-251.0905 730.2257,-254.5904 740.2257,-258.0905 740.2257,-251.0905"/>
</g>
<!-- Node29 -->
<g id="node18" class="node">
<title>Node29</title>
<g id="a_node18"><a xlink:href="../../d6/d9c/door_8qc.html#afbebfb6226c33715b304c0e6afa30ce4" target="_top" xlink:title="door_hit_top">
<polygon fill="none" stroke="#000000" points="791,-283.0904 791,-302.0904 868,-302.0904 868,-283.0904 791,-283.0904"/>
<text text-anchor="middle" x="829.5" y="-290.0904" font-family="Helvetica,sans-Serif" font-size="10.00" fill="#000000">door_hit_top</text>
</a>
</g>
</g>
<!-- Node20&#45;&gt;Node29 -->
<g id="edge23" class="edge">
<title>Node20&#45;&gt;Node29</title>
<path fill="none" stroke="#191970" d="M732.3133,-266.7646C752.0871,-272.0192 774.8838,-278.077 793.4266,-283.0045"/>
<polygon fill="#191970" stroke="#191970" points="733.1484,-263.3651 722.5849,-264.1794 731.3506,-270.1303 733.1484,-263.3651"/>
</g>
<!-- Node22 -->
<g id="node11" class="node">
<title>Node22</title>
<g id="a_node11"><a xlink:href="../../d6/d9c/door_8qc.html#a4efd6e741580a4f4c8a1d24b4bc0d2c2" target="_top" xlink:title="door_reset">
<polygon fill="none" stroke="#000000" points="1726,-264.0904 1726,-283.0904 1794,-283.0904 1794,-264.0904 1726,-264.0904"/>
<text text-anchor="middle" x="1760" y="-271.0904" font-family="Helvetica,sans-Serif" font-size="10.00" fill="#000000">door_reset</text>
</a>
</g>
</g>
<!-- Node21&#45;&gt;Node22 -->
<g id="edge13" class="edge">
<title>Node21&#45;&gt;Node22</title>
<path fill="none" stroke="#191970" d="M1132.3276,-330.5904C1195.8733,-330.5904 1307.4166,-330.5904 1403,-330.5904 1403,-330.5904 1403,-330.5904 1541,-330.5904 1615.4499,-330.5904 1699.6794,-299.3575 1738.4156,-283.131"/>
<polygon fill="#191970" stroke="#191970" points="1132.1721,-327.0905 1122.1721,-330.5904 1132.172,-334.0905 1132.1721,-327.0905"/>
</g>
<!-- Node24 -->
<g id="node13" class="node">
<title>Node24</title>
<g id="a_node13"><a xlink:href="../../d6/d9c/door_8qc.html#a337674d43d5772b78184bf240a40f104" target="_top" xlink:title="door_use">
<polygon fill="none" stroke="#000000" points="1210.5,-245.0904 1210.5,-264.0904 1271.5,-264.0904 1271.5,-245.0904 1210.5,-245.0904"/>
<text text-anchor="middle" x="1241" y="-252.0904" font-family="Helvetica,sans-Serif" font-size="10.00" fill="#000000">door_use</text>
</a>
</g>
</g>
<!-- Node23&#45;&gt;Node24 -->
<g id="edge15" class="edge">
<title>Node23&#45;&gt;Node24</title>
<path fill="none" stroke="#191970" d="M1120.8692,-254.5904C1148.5636,-254.5904 1184.917,-254.5904 1210.35,-254.5904"/>
<polygon fill="#191970" stroke="#191970" points="1120.7198,-251.0905 1110.7198,-254.5904 1120.7198,-258.0905 1120.7198,-251.0905"/>
</g>
<!-- Node24&#45;&gt;Node22 -->
<g id="edge18" class="edge">
<title>Node24&#45;&gt;Node22</title>
<path fill="none" stroke="#191970" d="M1281.3407,-245.7738C1301.5448,-241.7982 1326.4477,-237.5591 1349,-235.5904 1499.9814,-222.4109 1543.1063,-198.2901 1690,-235.5904 1711.4442,-241.0357 1733.4269,-254.5181 1746.8983,-263.8642"/>
<polygon fill="#191970" stroke="#191970" points="1280.6457,-242.3434 1271.5366,-247.7541 1282.0316,-249.2049 1280.6457,-242.3434"/>
</g>
<!-- Node25 -->
<g id="node14" class="node">
<title>Node25</title>
<g id="a_node14"><a xlink:href="../../d6/d9c/door_8qc.html#a9da97d701a5bd1d7d23f76c29bb6dfc0" target="_top" xlink:title="door_damage">
<polygon fill="none" stroke="#000000" points="1499.5,-283.0904 1499.5,-302.0904 1582.5,-302.0904 1582.5,-283.0904 1499.5,-283.0904"/>
<text text-anchor="middle" x="1541" y="-290.0904" font-family="Helvetica,sans-Serif" font-size="10.00" fill="#000000">door_damage</text>
</a>
</g>
</g>
<!-- Node24&#45;&gt;Node25 -->
<g id="edge16" class="edge">
<title>Node24&#45;&gt;Node25</title>
<path fill="none" stroke="#191970" d="M1281.7252,-262.5039C1301.9054,-266.2339 1326.6746,-270.5264 1349,-273.5904 1400.6028,-280.6725 1460.3568,-286.1613 1499.3202,-289.3793"/>
<polygon fill="#191970" stroke="#191970" points="1282.101,-259.0136 1271.6278,-260.6142 1280.8132,-265.8941 1282.101,-259.0136"/>
</g>
<!-- Node26 -->
<g id="node15" class="node">
<title>Node26</title>
<g id="a_node15"><a xlink:href="../../d6/d9c/door_8qc.html#a573f6f3810e73517c4e7b78d5febb9f6" target="_top" xlink:title="door_trigger_touch">
<polygon fill="none" stroke="#000000" points="1349,-245.0904 1349,-264.0904 1457,-264.0904 1457,-245.0904 1349,-245.0904"/>
<text text-anchor="middle" x="1403" y="-252.0904" font-family="Helvetica,sans-Serif" font-size="10.00" fill="#000000">door_trigger_touch</text>
</a>
</g>
</g>
<!-- Node24&#45;&gt;Node26 -->
<g id="edge19" class="edge">
<title>Node24&#45;&gt;Node26</title>
<path fill="none" stroke="#191970" d="M1282.0277,-254.5904C1302.3415,-254.5904 1327.1315,-254.5904 1348.9693,-254.5904"/>
<polygon fill="#191970" stroke="#191970" points="1281.8523,-251.0905 1271.8523,-254.5904 1281.8522,-258.0905 1281.8523,-251.0905"/>
</g>
<!-- Node25&#45;&gt;Node22 -->
<g id="edge17" class="edge">
<title>Node25&#45;&gt;Node22</title>
<path fill="none" stroke="#191970" d="M1592.8234,-288.0943C1633.9878,-284.523 1690.3709,-279.6313 1725.9906,-276.541"/>
<polygon fill="#191970" stroke="#191970" points="1592.3677,-284.6206 1582.7077,-288.972 1592.9728,-291.5944 1592.3677,-284.6206"/>
</g>
<!-- Node27 -->
<g id="node16" class="node">
<title>Node27</title>
<g id="a_node16"><a xlink:href="../../d6/d9c/door_8qc.html#ac89ee5393ec1d28f59b822a7e4b35d9e" target="_top" xlink:title="door_spawnfield">
<polygon fill="none" stroke="#000000" points="1493,-245.0904 1493,-264.0904 1589,-264.0904 1589,-245.0904 1493,-245.0904"/>
<text text-anchor="middle" x="1541" y="-252.0904" font-family="Helvetica,sans-Serif" font-size="10.00" fill="#000000">door_spawnfield</text>
</a>
</g>
</g>
<!-- Node26&#45;&gt;Node27 -->
<g id="edge20" class="edge">
<title>Node26&#45;&gt;Node27</title>
<path fill="none" stroke="#191970" d="M1467.1956,-254.5904C1475.8242,-254.5904 1484.5535,-254.5904 1492.8403,-254.5904"/>
<polygon fill="#191970" stroke="#191970" points="1467.1452,-251.0905 1457.1452,-254.5904 1467.1451,-258.0905 1467.1452,-251.0905"/>
</g>
<!-- Node28 -->
<g id="node17" class="node">
<title>Node28</title>
<g id="a_node17"><a xlink:href="../../d6/d9c/door_8qc.html#a9b3dfef6f936841d5afaf00fe2875afa" target="_top" xlink:title="LinkDoors">
<polygon fill="none" stroke="#000000" points="1625,-245.0904 1625,-264.0904 1690,-264.0904 1690,-245.0904 1625,-245.0904"/>
<text text-anchor="middle" x="1657.5" y="-252.0904" font-family="Helvetica,sans-Serif" font-size="10.00" fill="#000000">LinkDoors</text>
</a>
</g>
</g>
<!-- Node27&#45;&gt;Node28 -->
<g id="edge21" class="edge">
<title>Node27&#45;&gt;Node28</title>
<path fill="none" stroke="#191970" d="M1599.306,-254.5904C1608.076,-254.5904 1616.8444,-254.5904 1624.8158,-254.5904"/>
<polygon fill="#191970" stroke="#191970" points="1599.0576,-251.0905 1589.0576,-254.5904 1599.0576,-258.0905 1599.0576,-251.0905"/>
</g>
<!-- Node28&#45;&gt;Node22 -->
<g id="edge22" class="edge">
<title>Node28&#45;&gt;Node22</title>
<path fill="none" stroke="#191970" d="M1700.0773,-262.4828C1708.6617,-264.0741 1717.5806,-265.7273 1725.8323,-267.2569"/>
<polygon fill="#191970" stroke="#191970" points="1700.6839,-259.0357 1690.2135,-260.6544 1699.408,-265.9185 1700.6839,-259.0357"/>
</g>
<!-- Node29&#45;&gt;Node30 -->
<g id="edge24" class="edge">
<title>Node29&#45;&gt;Node30</title>
<path fill="none" stroke="#191970" d="M878.5263,-292.5904C892.207,-292.5904 906.8344,-292.5904 919.6811,-292.5904"/>
<polygon fill="#191970" stroke="#191970" points="878.2943,-289.0905 868.2943,-292.5904 878.2942,-296.0905 878.2943,-289.0905"/>
</g>
<!-- Node30&#45;&gt;Node21 -->
<g id="edge25" class="edge">
<title>Node30&#45;&gt;Node21</title>
<path fill="none" stroke="#191970" d="M997.5696,-305.1257C1014.5064,-310.2952 1033.8181,-316.1895 1049.5934,-321.0045"/>
<polygon fill="#191970" stroke="#191970" points="998.5028,-301.7512 987.9166,-302.1794 996.4593,-308.4463 998.5028,-301.7512"/>
</g>
<!-- Node30&#45;&gt;Node23 -->
<g id="edge26" class="edge">
<title>Node30&#45;&gt;Node23</title>
<path fill="none" stroke="#191970" d="M997.8743,-279.9621C1015.3574,-274.6259 1035.325,-268.5314 1051.3077,-263.6531"/>
<polygon fill="#191970" stroke="#191970" points="996.4593,-276.7346 987.9166,-283.0014 998.5028,-283.4296 996.4593,-276.7346"/>
</g>
<!-- Node32 -->
<g id="node21" class="node">
<title>Node32</title>
<g id="a_node21"><a xlink:href="../../d0/d1a/platforms_8qh.html#a6c6317fd5daed89f2a4fd761565a5714" target="_top" xlink:title="plat_crush">
<polygon fill="none" stroke="#000000" points="1047.5,-112.0904 1047.5,-131.0904 1114.5,-131.0904 1114.5,-112.0904 1047.5,-112.0904"/>
<text text-anchor="middle" x="1081" y="-119.0904" font-family="Helvetica,sans-Serif" font-size="10.00" fill="#000000">plat_crush</text>
</a>
</g>
</g>
<!-- Node31&#45;&gt;Node32 -->
<g id="edge30" class="edge">
<title>Node31&#45;&gt;Node32</title>
<path fill="none" stroke="#191970" d="M711.9833,-135.8228C729.1946,-144.5961 752.7509,-155.0157 775,-159.5904 876.2017,-180.3988 998.7329,-148.2338 1052.9122,-131.1424"/>
<polygon fill="#191970" stroke="#191970" points="713.603,-132.7201 703.1228,-131.1656 710.3462,-138.9164 713.603,-132.7201"/>
</g>
<!-- Node33 -->
<g id="node22" class="node">
<title>Node33</title>
<g id="a_node22"><a xlink:href="../../d1/d08/platforms_8qc.html#acb0f1d2255974b76895ebafac4d8bd16" target="_top" xlink:title="plat_hit_top">
<polygon fill="none" stroke="#000000" points="792.5,-17.0904 792.5,-36.0904 866.5,-36.0904 866.5,-17.0904 792.5,-17.0904"/>
<text text-anchor="middle" x="829.5" y="-24.0904" font-family="Helvetica,sans-Serif" font-size="10.00" fill="#000000">plat_hit_top</text>
</a>
</g>
</g>
<!-- Node31&#45;&gt;Node33 -->
<g id="edge31" class="edge">
<title>Node31&#45;&gt;Node33</title>
<path fill="none" stroke="#191970" d="M702.7045,-104.3161C719.4232,-87.3563 746.947,-61.7459 775,-45.5904 781.4257,-41.89 788.6904,-38.7412 795.7721,-36.1345"/>
<polygon fill="#191970" stroke="#191970" points="699.8404,-102.2434 695.4102,-111.8676 704.8751,-107.1067 699.8404,-102.2434"/>
</g>
<!-- Node37 -->
<g id="node26" class="node">
<title>Node37</title>
<g id="a_node26"><a xlink:href="../../d0/d1a/platforms_8qh.html#a83d9da1182ae8db2d73dbf2ea1aef766" target="_top" xlink:title="plat_outside_touch">
<polygon fill="none" stroke="#000000" points="775,-55.0904 775,-74.0904 884,-74.0904 884,-55.0904 775,-55.0904"/>
<text text-anchor="middle" x="829.5" y="-62.0904" font-family="Helvetica,sans-Serif" font-size="10.00" fill="#000000">plat_outside_touch</text>
</a>
</g>
</g>
<!-- Node31&#45;&gt;Node37 -->
<g id="edge36" class="edge">
<title>Node31&#45;&gt;Node37</title>
<path fill="none" stroke="#191970" d="M717.1816,-107.788C734.1139,-100.3301 755.5864,-91.1317 775,-83.5904 783.3129,-80.3613 792.4329,-77.081 800.794,-74.1753"/>
<polygon fill="#191970" stroke="#191970" points="715.5105,-104.7002 707.7866,-111.9523 718.3471,-111.0997 715.5105,-104.7002"/>
</g>
<!-- Node38 -->
<g id="node27" class="node">
<title>Node38</title>
<g id="a_node27"><a xlink:href="../../d0/d1a/platforms_8qh.html#a9ea0c4bf592308ee089a459c0bc0c3d2" target="_top" xlink:title="plat_trigger_use">
<polygon fill="none" stroke="#000000" points="782,-131.0904 782,-150.0904 877,-150.0904 877,-131.0904 782,-131.0904"/>
<text text-anchor="middle" x="829.5" y="-138.0904" font-family="Helvetica,sans-Serif" font-size="10.00" fill="#000000">plat_trigger_use</text>
</a>
</g>
</g>
<!-- Node31&#45;&gt;Node38 -->
<g id="edge37" class="edge">
<title>Node31&#45;&gt;Node38</title>
<path fill="none" stroke="#191970" d="M738.6927,-128.5251C752.8223,-130.4025 768.0392,-132.4243 781.9017,-134.2662"/>
<polygon fill="#191970" stroke="#191970" points="739.0052,-125.036 728.6313,-127.1883 738.0831,-131.975 739.0052,-125.036"/>
</g>
<!-- Node40 -->
<g id="node29" class="node">
<title>Node40</title>
<g id="a_node29"><a xlink:href="../../d1/d08/platforms_8qc.html#a1ba5fd84a80ede4a14b6d2b848cb6a2a" target="_top" xlink:title="plat_use">
<polygon fill="none" stroke="#000000" points="800.5,-93.0904 800.5,-112.0904 858.5,-112.0904 858.5,-93.0904 800.5,-93.0904"/>
<text text-anchor="middle" x="829.5" y="-100.0904" font-family="Helvetica,sans-Serif" font-size="10.00" fill="#000000">plat_use</text>
</a>
</g>
</g>
<!-- Node31&#45;&gt;Node40 -->
<g id="edge39" class="edge">
<title>Node31&#45;&gt;Node40</title>
<path fill="none" stroke="#191970" d="M738.6217,-114.6652C759.4299,-111.9004 782.6066,-108.821 800.3463,-106.464"/>
<polygon fill="#191970" stroke="#191970" points="738.0831,-111.2059 728.6313,-115.9926 739.0052,-118.1449 738.0831,-111.2059"/>
</g>
<!-- Node33&#45;&gt;Node34 -->
<g id="edge32" class="edge">
<title>Node33&#45;&gt;Node34</title>
<path fill="none" stroke="#191970" d="M876.5859,-26.5904C891.4042,-26.5904 907.503,-26.5904 921.3421,-26.5904"/>
<polygon fill="#191970" stroke="#191970" points="876.5751,-23.0905 866.5751,-26.5904 876.575,-30.0905 876.5751,-23.0905"/>
</g>
<!-- Node34&#45;&gt;Node32 -->
<g id="edge35" class="edge">
<title>Node34&#45;&gt;Node32</title>
<path fill="none" stroke="#191970" d="M977.4489,-42.5755C1003.4685,-62.4298 1047.0302,-95.6697 1068.4006,-111.9764"/>
<polygon fill="#191970" stroke="#191970" points="979.4279,-39.683 969.3548,-36.3993 975.1815,-45.248 979.4279,-39.683"/>
</g>
<!-- Node35 -->
<g id="node24" class="node">
<title>Node35</title>
<g id="a_node24"><a xlink:href="../../d0/d1a/platforms_8qh.html#af1745ccc6ccfebfccc05a1bc9839b1f4" target="_top" xlink:title="plat_center_touch">
<polygon fill="none" stroke="#000000" points="1029,-17.0904 1029,-36.0904 1133,-36.0904 1133,-17.0904 1029,-17.0904"/>
<text text-anchor="middle" x="1081" y="-24.0904" font-family="Helvetica,sans-Serif" font-size="10.00" fill="#000000">plat_center_touch</text>
</a>
</g>
</g>
<!-- Node34&#45;&gt;Node35 -->
<g id="edge33" class="edge">
<title>Node34&#45;&gt;Node35</title>
<path fill="none" stroke="#191970" d="M1001.5415,-26.5904C1010.3191,-26.5904 1019.5921,-26.5904 1028.5842,-26.5904"/>
<polygon fill="#191970" stroke="#191970" points="1001.5115,-23.0905 991.5115,-26.5904 1001.5115,-30.0905 1001.5115,-23.0905"/>
</g>
<!-- Node36 -->
<g id="node25" class="node">
<title>Node36</title>
<g id="a_node25"><a xlink:href="../../d1/d08/platforms_8qc.html#a461a9546d5500a4f4bb4ee350099a500" target="_top" xlink:title="plat_spawn_inside_trigger">
<polygon fill="none" stroke="#000000" points="1169,-17.0904 1169,-36.0904 1313,-36.0904 1313,-17.0904 1169,-17.0904"/>
<text text-anchor="middle" x="1241" y="-24.0904" font-family="Helvetica,sans-Serif" font-size="10.00" fill="#000000">plat_spawn_inside_trigger</text>
</a>
</g>
</g>
<!-- Node35&#45;&gt;Node36 -->
<g id="edge34" class="edge">
<title>Node35&#45;&gt;Node36</title>
<path fill="none" stroke="#191970" d="M1143.6486,-26.5904C1151.8783,-26.5904 1160.3653,-26.5904 1168.7383,-26.5904"/>
<polygon fill="#191970" stroke="#191970" points="1143.39,-23.0905 1133.39,-26.5904 1143.39,-30.0905 1143.39,-23.0905"/>
</g>
<!-- Node39 -->
<g id="node28" class="node">
<title>Node39</title>
<g id="a_node28"><a xlink:href="../../d1/d08/platforms_8qc.html#ad31395eeb93f5d3f550e8ecfeaf90ce5" target="_top" xlink:title="plat_reset">
<polygon fill="none" stroke="#000000" points="924,-112.0904 924,-131.0904 989,-131.0904 989,-112.0904 924,-112.0904"/>
<text text-anchor="middle" x="956.5" y="-119.0904" font-family="Helvetica,sans-Serif" font-size="10.00" fill="#000000">plat_reset</text>
</a>
</g>
</g>
<!-- Node38&#45;&gt;Node39 -->
<g id="edge38" class="edge">
<title>Node38&#45;&gt;Node39</title>
<path fill="none" stroke="#191970" d="M887.0919,-131.9743C899.6164,-130.1006 912.4501,-128.1806 923.6214,-126.5093"/>
<polygon fill="#191970" stroke="#191970" points="886.5235,-128.5203 877.1514,-133.4615 887.5593,-135.4433 886.5235,-128.5203"/>
</g>
<!-- Node40&#45;&gt;Node39 -->
<g id="edge40" class="edge">
<title>Node40&#45;&gt;Node39</title>
<path fill="none" stroke="#191970" d="M868.671,-108.4507C886.3857,-111.1009 907.0764,-114.1964 923.9245,-116.7169"/>
<polygon fill="#191970" stroke="#191970" points="869.0442,-104.9676 858.6364,-106.9494 868.0084,-111.8906 869.0442,-104.9676"/>
</g>
</g>
</svg>
