<?xml version="1.0" encoding="UTF-8" standalone="no"?>
<!DOCTYPE svg PUBLIC "-//W3C//DTD SVG 1.1//EN"
 "http://www.w3.org/Graphics/SVG/1.1/DTD/svg11.dtd">
<!-- Generated by graphviz version 2.36.0 (20140111.2315)
 -->
<!-- Title: HUD_Panel_DrawHighlight Pages: 1 -->
<svg width="402pt" height="47pt"
 viewBox="0.00 0.00 402.00 47.00" xmlns="http://www.w3.org/2000/svg" xmlns:xlink="http://www.w3.org/1999/xlink">
<g id="graph0" class="graph" transform="scale(1 1) rotate(0) translate(4 43)">
<title>HUD_Panel_DrawHighlight</title>
<!-- Node1 -->
<g id="node1" class="node"><title>Node1</title>
<polygon fill="#bfbfbf" stroke="black" points="0,-19.5 0,-38.5 136,-38.5 136,-19.5 0,-19.5"/>
<text text-anchor="middle" x="68" y="-26.5" font-family="Helvetica,sans-Serif" font-size="10.00">HUD_Panel_DrawHighlight</text>
</g>
<!-- Node2 -->
<g id="node2" class="node"><title>Node2</title>
<g id="a_node2"><a xlink:href="../../d6/d8f/score_8qc.html#af299e2a5219b4b963a923527b78ed9a7" target="_top" xlink:title="HUD_Score">
<polygon fill="none" stroke="black" points="324,-19.5 324,-38.5 394,-38.5 394,-19.5 324,-19.5"/>
<text text-anchor="middle" x="359" y="-26.5" font-family="Helvetica,sans-Serif" font-size="10.00">HUD_Score</text>
</a>
</g>
</g>
<!-- Node1&#45;&gt;Node2 -->
<g id="edge1" class="edge"><title>Node1&#45;&gt;Node2</title>
<path fill="none" stroke="midnightblue" d="M146.224,-29C203.997,-29 280.239,-29 323.713,-29"/>
<polygon fill="midnightblue" stroke="midnightblue" points="146.029,-25.5001 136.029,-29 146.029,-32.5001 146.029,-25.5001"/>
</g>
<!-- Node3 -->
<g id="node3" class="node"><title>Node3</title>
<g id="a_node3"><a xlink:href="../../d6/d8f/score_8qc.html#a8266d5d080761ce457b269fd0a6a22c1" target="_top" xlink:title="HUD_Score_Rankings">
<polygon fill="none" stroke="black" points="172,-0.5 172,-19.5 288,-19.5 288,-0.5 172,-0.5"/>
<text text-anchor="middle" x="230" y="-7.5" font-family="Helvetica,sans-Serif" font-size="10.00">HUD_Score_Rankings</text>
</a>
</g>
</g>
<!-- Node1&#45;&gt;Node3 -->
<g id="edge2" class="edge"><title>Node1&#45;&gt;Node3</title>
<path fill="none" stroke="midnightblue" d="M146.4,-19.8087C154.963,-18.7919 163.565,-17.7705 171.813,-16.7909"/>
<polygon fill="midnightblue" stroke="midnightblue" points="145.908,-16.3425 136.391,-20.9974 146.734,-23.2936 145.908,-16.3425"/>
</g>
<!-- Node3&#45;&gt;Node2 -->
<g id="edge3" class="edge"><title>Node3&#45;&gt;Node2</title>
<path fill="none" stroke="midnightblue" d="M298.154,-20.0467C306.982,-21.3674 315.715,-22.6739 323.669,-23.8638"/>
<polygon fill="midnightblue" stroke="midnightblue" points="298.592,-16.5733 288.184,-18.5551 297.556,-23.4963 298.592,-16.5733"/>
</g>
</g>
</svg>
