<?xml version="1.0" encoding="UTF-8" standalone="no"?>
<!DOCTYPE svg PUBLIC "-//W3C//DTD SVG 1.1//EN"
 "http://www.w3.org/Graphics/SVG/1.1/DTD/svg11.dtd">
<!-- Generated by graphviz version 2.36.0 (20140111.2315)
 -->
<!-- Title: common/mutators/mutator/buffs/cl_buffs.qh Pages: 1 -->
<svg width="433pt" height="208pt"
 viewBox="0.00 0.00 433.00 208.00" xmlns="http://www.w3.org/2000/svg" xmlns:xlink="http://www.w3.org/1999/xlink">
<g id="graph0" class="graph" transform="scale(1 1) rotate(0) translate(4 204)">
<title>common/mutators/mutator/buffs/cl_buffs.qh</title>
<!-- Node1 -->
<g id="node1" class="node"><title>Node1</title>
<polygon fill="#bfbfbf" stroke="black" points="158.5,-169 158.5,-199 289.5,-199 289.5,-169 158.5,-169"/>
<text text-anchor="start" x="166.5" y="-187" font-family="Helvetica,sans-Serif" font-size="10.00">common/mutators/mutator</text>
<text text-anchor="middle" x="224" y="-176" font-family="Helvetica,sans-Serif" font-size="10.00">/buffs/cl_buffs.qh</text>
</g>
<!-- Node2 -->
<g id="node2" class="node"><title>Node2</title>
<g id="a_node2"><a xlink:href="../../d6/d85/buffs_8qh.html" target="_top" xlink:title="buffs.qh">
<polygon fill="none" stroke="black" points="198,-112.5 198,-131.5 250,-131.5 250,-112.5 198,-112.5"/>
<text text-anchor="middle" x="224" y="-119.5" font-family="Helvetica,sans-Serif" font-size="10.00">buffs.qh</text>
</a>
</g>
</g>
<!-- Node1&#45;&gt;Node2 -->
<g id="edge1" class="edge"><title>Node1&#45;&gt;Node2</title>
<path fill="none" stroke="midnightblue" d="M224,-168.781C224,-160.781 224,-150.689 224,-142.017"/>
<polygon fill="midnightblue" stroke="midnightblue" points="227.5,-141.73 224,-131.731 220.5,-141.731 227.5,-141.73"/>
</g>
<!-- Node3 -->
<g id="node3" class="node"><title>Node3</title>
<g id="a_node3"><a xlink:href="../../db/d07/teams_8qh.html" target="_top" xlink:title="common/teams.qh">
<polygon fill="none" stroke="black" points="-1,-56.5 -1,-75.5 97,-75.5 97,-56.5 -1,-56.5"/>
<text text-anchor="middle" x="48" y="-63.5" font-family="Helvetica,sans-Serif" font-size="10.00">common/teams.qh</text>
</a>
</g>
</g>
<!-- Node2&#45;&gt;Node3 -->
<g id="edge2" class="edge"><title>Node2&#45;&gt;Node3</title>
<path fill="none" stroke="midnightblue" d="M197.651,-112.916C168.017,-103.823 119.637,-88.9795 85.9363,-78.6395"/>
<polygon fill="midnightblue" stroke="midnightblue" points="86.5725,-75.1738 75.9857,-75.5865 84.5192,-81.8659 86.5725,-75.1738"/>
</g>
<!-- Node4 -->
<g id="node4" class="node"><title>Node4</title>
<g id="a_node4"><a xlink:href="../../d5/df2/common_2util_8qh.html" target="_top" xlink:title="common/util.qh">
<polygon fill="none" stroke="black" points="115.5,-56.5 115.5,-75.5 198.5,-75.5 198.5,-56.5 115.5,-56.5"/>
<text text-anchor="middle" x="157" y="-63.5" font-family="Helvetica,sans-Serif" font-size="10.00">common/util.qh</text>
</a>
</g>
</g>
<!-- Node2&#45;&gt;Node4 -->
<g id="edge3" class="edge"><title>Node2&#45;&gt;Node4</title>
<path fill="none" stroke="midnightblue" d="M213.235,-112.324C203.234,-104.263 188.113,-92.0765 176.07,-82.3695"/>
<polygon fill="midnightblue" stroke="midnightblue" points="177.943,-79.3841 167.961,-75.8339 173.55,-84.8343 177.943,-79.3841"/>
</g>
<!-- Node5 -->
<g id="node5" class="node"><title>Node5</title>
<g id="a_node5"><a xlink:href="../../de/dda/pickup_8qh.html" target="_top" xlink:title="common/items/item/pickup.qh">
<polygon fill="none" stroke="black" points="217,-56.5 217,-75.5 365,-75.5 365,-56.5 217,-56.5"/>
<text text-anchor="middle" x="291" y="-63.5" font-family="Helvetica,sans-Serif" font-size="10.00">common/items/item/pickup.qh</text>
</a>
</g>
</g>
<!-- Node2&#45;&gt;Node5 -->
<g id="edge4" class="edge"><title>Node2&#45;&gt;Node5</title>
<path fill="none" stroke="midnightblue" d="M234.765,-112.324C244.766,-104.263 259.887,-92.0765 271.93,-82.3695"/>
<polygon fill="midnightblue" stroke="midnightblue" points="274.45,-84.8343 280.039,-75.8339 270.057,-79.3841 274.45,-84.8343"/>
</g>
<!-- Node7 -->
<g id="node7" class="node"><title>Node7</title>
<g id="a_node7"><a xlink:href="../../d0/da7/mutators_2mutator_2buffs_2all_8inc.html" target="_top" xlink:title="all.inc">
<polygon fill="none" stroke="black" points="383,-56.5 383,-75.5 425,-75.5 425,-56.5 383,-56.5"/>
<text text-anchor="middle" x="404" y="-63.5" font-family="Helvetica,sans-Serif" font-size="10.00">all.inc</text>
</a>
</g>
</g>
<!-- Node2&#45;&gt;Node7 -->
<g id="edge6" class="edge"><title>Node2&#45;&gt;Node7</title>
<path fill="none" stroke="midnightblue" d="M250.174,-113.148C282.832,-103.351 338.591,-86.6228 373.251,-76.2248"/>
<polygon fill="midnightblue" stroke="midnightblue" points="374.283,-79.5693 382.856,-73.3433 372.272,-72.8645 374.283,-79.5693"/>
</g>
<!-- Node6 -->
<g id="node6" class="node"><title>Node6</title>
<g id="a_node6"><a xlink:href="../../d7/d7c/common_2items_2item_8qh.html" target="_top" xlink:title="common/items/item.qh">
<polygon fill="none" stroke="black" points="233,-0.5 233,-19.5 349,-19.5 349,-0.5 233,-0.5"/>
<text text-anchor="middle" x="291" y="-7.5" font-family="Helvetica,sans-Serif" font-size="10.00">common/items/item.qh</text>
</a>
</g>
</g>
<!-- Node5&#45;&gt;Node6 -->
<g id="edge5" class="edge"><title>Node5&#45;&gt;Node6</title>
<path fill="none" stroke="midnightblue" d="M291,-56.083C291,-49.0059 291,-38.8611 291,-29.9865"/>
<polygon fill="midnightblue" stroke="midnightblue" points="294.5,-29.751 291,-19.7511 287.5,-29.7511 294.5,-29.751"/>
</g>
</g>
</svg>
