<?xml version="1.0" encoding="UTF-8" standalone="no"?>
<!DOCTYPE svg PUBLIC "-//W3C//DTD SVG 1.1//EN"
 "http://www.w3.org/Graphics/SVG/1.1/DTD/svg11.dtd">
<!-- Generated by graphviz version 2.36.0 (20140111.2315)
 -->
<!-- Title: weapons_start Pages: 1 -->
<svg width="600pt" height="136pt"
 viewBox="0.00 0.00 600.00 136.00" xmlns="http://www.w3.org/2000/svg" xmlns:xlink="http://www.w3.org/1999/xlink">
<g id="graph0" class="graph" transform="scale(1 1) rotate(0) translate(4 132)">
<title>weapons_start</title>
<!-- Node1 -->
<g id="node1" class="node"><title>Node1</title>
<polygon fill="#bfbfbf" stroke="black" points="0,-54.5 0,-73.5 80,-73.5 80,-54.5 0,-54.5"/>
<text text-anchor="middle" x="40" y="-61.5" font-family="Helvetica,sans-Serif" font-size="10.00">weapons_start</text>
</g>
<!-- Node2 -->
<g id="node2" class="node"><title>Node2</title>
<g id="a_node2"><a xlink:href="../../dc/dc6/server_2miscfunctions_8qc.html#a7f0150e78f1bcf0f515e35ed1d37248a" target="_top" xlink:title="weaponarena_available\l_all_update">
<polygon fill="none" stroke="black" points="116,-98 116,-128 234,-128 234,-98 116,-98"/>
<text text-anchor="start" x="124" y="-116" font-family="Helvetica,sans-Serif" font-size="10.00">weaponarena_available</text>
<text text-anchor="middle" x="175" y="-105" font-family="Helvetica,sans-Serif" font-size="10.00">_all_update</text>
</a>
</g>
</g>
<!-- Node1&#45;&gt;Node2 -->
<g id="edge1" class="edge"><title>Node1&#45;&gt;Node2</title>
<path fill="none" stroke="midnightblue" d="M76.7403,-77.1675C94.1443,-83.5795 115.153,-91.3197 133.185,-97.963"/>
<polygon fill="midnightblue" stroke="midnightblue" points="77.5529,-73.7369 66.9595,-73.564 75.1329,-80.3053 77.5529,-73.7369"/>
</g>
<!-- Node6 -->
<g id="node6" class="node"><title>Node6</title>
<g id="a_node6"><a xlink:href="../../dc/dc6/server_2miscfunctions_8qc.html#aacf644c20fb5179c50b7df7b4e1d76be" target="_top" xlink:title="weaponarena_available\l_devall_update">
<polygon fill="none" stroke="black" points="116,-49 116,-79 234,-79 234,-49 116,-49"/>
<text text-anchor="start" x="124" y="-67" font-family="Helvetica,sans-Serif" font-size="10.00">weaponarena_available</text>
<text text-anchor="middle" x="175" y="-56" font-family="Helvetica,sans-Serif" font-size="10.00">_devall_update</text>
</a>
</g>
</g>
<!-- Node1&#45;&gt;Node6 -->
<g id="edge5" class="edge"><title>Node1&#45;&gt;Node6</title>
<path fill="none" stroke="midnightblue" d="M90.4362,-64C98.7229,-64 107.389,-64 115.87,-64"/>
<polygon fill="midnightblue" stroke="midnightblue" points="90.1851,-60.5001 80.185,-64 90.185,-67.5001 90.1851,-60.5001"/>
</g>
<!-- Node7 -->
<g id="node7" class="node"><title>Node7</title>
<g id="a_node7"><a xlink:href="../../dc/dc6/server_2miscfunctions_8qc.html#ac98809136138fdcf12ac65171a489783" target="_top" xlink:title="weaponarena_available\l_most_update">
<polygon fill="none" stroke="black" points="116,-0 116,-30 234,-30 234,-0 116,-0"/>
<text text-anchor="start" x="124" y="-18" font-family="Helvetica,sans-Serif" font-size="10.00">weaponarena_available</text>
<text text-anchor="middle" x="175" y="-7" font-family="Helvetica,sans-Serif" font-size="10.00">_most_update</text>
</a>
</g>
</g>
<!-- Node1&#45;&gt;Node7 -->
<g id="edge7" class="edge"><title>Node1&#45;&gt;Node7</title>
<path fill="none" stroke="midnightblue" d="M76.7403,-50.8325C94.1443,-44.4205 115.153,-36.6803 133.185,-30.037"/>
<polygon fill="midnightblue" stroke="midnightblue" points="75.1329,-47.6947 66.9595,-54.436 77.5529,-54.2631 75.1329,-47.6947"/>
</g>
<!-- Node3 -->
<g id="node3" class="node"><title>Node3</title>
<g id="a_node3"><a xlink:href="../../dc/d73/server_2miscfunctions_8qh.html#adac48834b44f2430043098916e291251" target="_top" xlink:title="readplayerstartcvars">
<polygon fill="none" stroke="black" points="270.5,-54.5 270.5,-73.5 375.5,-73.5 375.5,-54.5 270.5,-54.5"/>
<text text-anchor="middle" x="323" y="-61.5" font-family="Helvetica,sans-Serif" font-size="10.00">readplayerstartcvars</text>
</a>
</g>
</g>
<!-- Node2&#45;&gt;Node3 -->
<g id="edge2" class="edge"><title>Node2&#45;&gt;Node3</title>
<path fill="none" stroke="midnightblue" d="M230.626,-94.6667C251.99,-87.4963 275.601,-79.5722 293.469,-73.5754"/>
<polygon fill="midnightblue" stroke="midnightblue" points="229.363,-91.3986 220.996,-97.8986 231.59,-98.0349 229.363,-91.3986"/>
</g>
<!-- Node4 -->
<g id="node4" class="node"><title>Node4</title>
<g id="a_node4"><a xlink:href="../../dc/d73/server_2miscfunctions_8qh.html#ae29e06e5cb547b4c30dcb593cf967fdb" target="_top" xlink:title="readlevelcvars">
<polygon fill="none" stroke="black" points="412,-54.5 412,-73.5 492,-73.5 492,-54.5 412,-54.5"/>
<text text-anchor="middle" x="452" y="-61.5" font-family="Helvetica,sans-Serif" font-size="10.00">readlevelcvars</text>
</a>
</g>
</g>
<!-- Node3&#45;&gt;Node4 -->
<g id="edge3" class="edge"><title>Node3&#45;&gt;Node4</title>
<path fill="none" stroke="midnightblue" d="M385.666,-64C394.584,-64 403.55,-64 411.86,-64"/>
<polygon fill="midnightblue" stroke="midnightblue" points="385.656,-60.5001 375.656,-64 385.656,-67.5001 385.656,-60.5001"/>
</g>
<!-- Node5 -->
<g id="node5" class="node"><title>Node5</title>
<g id="a_node5"><a xlink:href="../../db/dcc/g__world_8qc.html#aac7f083651dfcb99dbbd8afc5e339233" target="_top" xlink:title="spawnfunc">
<polygon fill="none" stroke="black" points="528,-54.5 528,-73.5 592,-73.5 592,-54.5 528,-54.5"/>
<text text-anchor="middle" x="560" y="-61.5" font-family="Helvetica,sans-Serif" font-size="10.00">spawnfunc</text>
</a>
</g>
</g>
<!-- Node4&#45;&gt;Node5 -->
<g id="edge4" class="edge"><title>Node4&#45;&gt;Node5</title>
<path fill="none" stroke="midnightblue" d="M502.298,-64C511.027,-64 519.89,-64 527.935,-64"/>
<polygon fill="midnightblue" stroke="midnightblue" points="502.169,-60.5001 492.169,-64 502.169,-67.5001 502.169,-60.5001"/>
</g>
<!-- Node6&#45;&gt;Node3 -->
<g id="edge6" class="edge"><title>Node6&#45;&gt;Node3</title>
<path fill="none" stroke="midnightblue" d="M244.288,-64C253.009,-64 261.819,-64 270.219,-64"/>
<polygon fill="midnightblue" stroke="midnightblue" points="244.123,-60.5001 234.123,-64 244.123,-67.5001 244.123,-60.5001"/>
</g>
<!-- Node7&#45;&gt;Node3 -->
<g id="edge8" class="edge"><title>Node7&#45;&gt;Node3</title>
<path fill="none" stroke="midnightblue" d="M230.626,-33.3333C251.99,-40.5037 275.601,-48.4278 293.469,-54.4246"/>
<polygon fill="midnightblue" stroke="midnightblue" points="231.59,-29.9651 220.996,-30.1014 229.363,-36.6014 231.59,-29.9651"/>
</g>
</g>
</svg>
