<?xml version="1.0" encoding="UTF-8" standalone="no"?>
<!DOCTYPE svg PUBLIC "-//W3C//DTD SVG 1.1//EN"
 "http://www.w3.org/Graphics/SVG/1.1/DTD/svg11.dtd">
<!-- Generated by graphviz version 2.36.0 (20140111.2315)
 -->
<!-- Title: MoveToRandomLocationWithinBounds Pages: 1 -->
<svg width="328pt" height="408pt"
 viewBox="0.00 0.00 328.00 408.00" xmlns="http://www.w3.org/2000/svg" xmlns:xlink="http://www.w3.org/1999/xlink">
<g id="graph0" class="graph" transform="scale(1 1) rotate(0) translate(4 404)">
<title>MoveToRandomLocationWithinBounds</title>
<!-- Node1 -->
<g id="node1" class="node"><title>Node1</title>
<polygon fill="#bfbfbf" stroke="black" points="0.5,-185 0.5,-215 153.5,-215 153.5,-185 0.5,-185"/>
<text text-anchor="start" x="8.5" y="-203" font-family="Helvetica,sans-Serif" font-size="10.00">MoveToRandomLocationWithin</text>
<text text-anchor="middle" x="77" y="-192" font-family="Helvetica,sans-Serif" font-size="10.00">Bounds</text>
</g>
<!-- Node2 -->
<g id="node2" class="node"><title>Node2</title>
<g id="a_node2"><a xlink:href="../../d4/d0c/csprogsdefs_8qc.html#a94c5b969ccc333b040b402d69d3338a2" target="_top" xlink:title="checkpvs">
<polygon fill="none" stroke="black" points="225.5,-380.5 225.5,-399.5 284.5,-399.5 284.5,-380.5 225.5,-380.5"/>
<text text-anchor="middle" x="255" y="-387.5" font-family="Helvetica,sans-Serif" font-size="10.00">checkpvs</text>
</a>
</g>
</g>
<!-- Node1&#45;&gt;Node2 -->
<g id="edge1" class="edge"><title>Node1&#45;&gt;Node2</title>
<path fill="none" stroke="midnightblue" d="M83.6585,-215.135C96.9109,-248.494 133.202,-328.732 190,-371 197.431,-376.53 206.46,-380.459 215.365,-383.248"/>
<polygon fill="midnightblue" stroke="midnightblue" points="214.707,-386.696 225.275,-385.936 216.54,-379.94 214.707,-386.696"/>
</g>
<!-- Node3 -->
<g id="node3" class="node"><title>Node3</title>
<g id="a_node3"><a xlink:href="../../d4/d0c/csprogsdefs_8qc.html#acbb54a239d76062465dccbc6a6c6e464" target="_top" xlink:title="entity">
<polygon fill="none" stroke="black" points="234.5,-342.5 234.5,-361.5 275.5,-361.5 275.5,-342.5 234.5,-342.5"/>
<text text-anchor="middle" x="255" y="-349.5" font-family="Helvetica,sans-Serif" font-size="10.00">entity</text>
</a>
</g>
</g>
<!-- Node1&#45;&gt;Node3 -->
<g id="edge2" class="edge"><title>Node1&#45;&gt;Node3</title>
<path fill="none" stroke="midnightblue" d="M86.6657,-215.26C103.16,-242.925 141.764,-301.415 190,-333 200.245,-339.708 212.935,-344.116 224.307,-346.979"/>
<polygon fill="midnightblue" stroke="midnightblue" points="223.75,-350.441 234.271,-349.196 225.27,-343.608 223.75,-350.441"/>
</g>
<!-- Node4 -->
<g id="node4" class="node"><title>Node4</title>
<g id="a_node4"><a xlink:href="../../d8/de2/menudefs_8qc.html#a53c4a8e7afd17cad92bc00adba96bb78" target="_top" xlink:title="find">
<polygon fill="none" stroke="black" points="239,-304.5 239,-323.5 271,-323.5 271,-304.5 239,-304.5"/>
<text text-anchor="middle" x="255" y="-311.5" font-family="Helvetica,sans-Serif" font-size="10.00">find</text>
</a>
</g>
</g>
<!-- Node1&#45;&gt;Node4 -->
<g id="edge3" class="edge"><title>Node1&#45;&gt;Node4</title>
<path fill="none" stroke="midnightblue" d="M91.7399,-215.068C111.529,-235.909 150.085,-273.4 190,-295 202.063,-301.528 216.649,-306.08 228.848,-309.089"/>
<polygon fill="midnightblue" stroke="midnightblue" points="228.304,-312.555 238.83,-311.347 229.848,-305.727 228.304,-312.555"/>
</g>
<!-- Node5 -->
<g id="node5" class="node"><title>Node5</title>
<g id="a_node5"><a xlink:href="../../d8/de2/menudefs_8qc.html#a54329982495386f61974e026b9ce1f1b" target="_top" xlink:title="findflags">
<polygon fill="none" stroke="black" points="228.5,-266.5 228.5,-285.5 281.5,-285.5 281.5,-266.5 228.5,-266.5"/>
<text text-anchor="middle" x="255" y="-273.5" font-family="Helvetica,sans-Serif" font-size="10.00">findflags</text>
</a>
</g>
</g>
<!-- Node1&#45;&gt;Node5 -->
<g id="edge4" class="edge"><title>Node1&#45;&gt;Node5</title>
<path fill="none" stroke="midnightblue" d="M104.518,-215.235C126.819,-227.619 159.807,-244.952 190,-257 199.091,-260.628 209.15,-263.93 218.547,-266.726"/>
<polygon fill="midnightblue" stroke="midnightblue" points="217.831,-270.162 228.408,-269.553 219.76,-263.433 217.831,-270.162"/>
</g>
<!-- Node6 -->
<g id="node6" class="node"><title>Node6</title>
<g id="a_node6"><a xlink:href="../../d8/de2/menudefs_8qc.html#abbb0d86741e0056b6c04f7280c185d76" target="_top" xlink:title="ftos">
<polygon fill="none" stroke="black" points="238.5,-228.5 238.5,-247.5 271.5,-247.5 271.5,-228.5 238.5,-228.5"/>
<text text-anchor="middle" x="255" y="-235.5" font-family="Helvetica,sans-Serif" font-size="10.00">ftos</text>
</a>
</g>
</g>
<!-- Node1&#45;&gt;Node6 -->
<g id="edge5" class="edge"><title>Node1&#45;&gt;Node6</title>
<path fill="none" stroke="midnightblue" d="M147.56,-215.019C176,-221.159 207.131,-227.88 228.336,-232.459"/>
<polygon fill="midnightblue" stroke="midnightblue" points="227.659,-235.893 238.173,-234.583 229.137,-229.051 227.659,-235.893"/>
</g>
<!-- Node7 -->
<g id="node7" class="node"><title>Node7</title>
<g id="a_node7"><a xlink:href="../../d1/d07/framework_8qc.html#aef346455b3c2def821423a45227b45dd" target="_top" xlink:title="LOG_TRACE">
<polygon fill="none" stroke="black" points="216.5,-190.5 216.5,-209.5 293.5,-209.5 293.5,-190.5 216.5,-190.5"/>
<text text-anchor="middle" x="255" y="-197.5" font-family="Helvetica,sans-Serif" font-size="10.00">LOG_TRACE</text>
</a>
</g>
</g>
<!-- Node1&#45;&gt;Node7 -->
<g id="edge6" class="edge"><title>Node1&#45;&gt;Node7</title>
<path fill="none" stroke="midnightblue" d="M153.661,-200C171.392,-200 189.805,-200 205.943,-200"/>
<polygon fill="midnightblue" stroke="midnightblue" points="206.19,-203.5 216.19,-200 206.19,-196.5 206.19,-203.5"/>
</g>
<!-- Node8 -->
<g id="node8" class="node"><title>Node8</title>
<g id="a_node8"><a xlink:href="../../d8/de2/menudefs_8qc.html#ab8f7213273f7de03df213240376ce9f4" target="_top" xlink:title="normalize">
<polygon fill="none" stroke="black" points="225.5,-152.5 225.5,-171.5 284.5,-171.5 284.5,-152.5 225.5,-152.5"/>
<text text-anchor="middle" x="255" y="-159.5" font-family="Helvetica,sans-Serif" font-size="10.00">normalize</text>
</a>
</g>
</g>
<!-- Node1&#45;&gt;Node8 -->
<g id="edge7" class="edge"><title>Node1&#45;&gt;Node8</title>
<path fill="none" stroke="midnightblue" d="M147.56,-184.981C170.634,-180 195.478,-174.635 215.357,-170.343"/>
<polygon fill="midnightblue" stroke="midnightblue" points="216.227,-173.736 225.263,-168.205 214.75,-166.894 216.227,-173.736"/>
</g>
<!-- Node9 -->
<g id="node9" class="node"><title>Node9</title>
<g id="a_node9"><a xlink:href="../../d8/de2/menudefs_8qc.html#a663ea6aa3c4923b3e065cf91cc319f1b" target="_top" xlink:title="random">
<polygon fill="none" stroke="black" points="230.5,-114.5 230.5,-133.5 279.5,-133.5 279.5,-114.5 230.5,-114.5"/>
<text text-anchor="middle" x="255" y="-121.5" font-family="Helvetica,sans-Serif" font-size="10.00">random</text>
</a>
</g>
</g>
<!-- Node1&#45;&gt;Node9 -->
<g id="edge8" class="edge"><title>Node1&#45;&gt;Node9</title>
<path fill="none" stroke="midnightblue" d="M104.518,-184.765C126.819,-172.381 159.807,-155.048 190,-143 199.667,-139.142 210.428,-135.653 220.325,-132.748"/>
<polygon fill="midnightblue" stroke="midnightblue" points="221.575,-136.032 230.245,-129.942 219.669,-129.297 221.575,-136.032"/>
</g>
<!-- Node10 -->
<g id="node10" class="node"><title>Node10</title>
<g id="a_node10"><a xlink:href="../../d5/d26/server_2defs_8qh.html#a099ad087f6b1981b1c6333cf4a62334a" target="_top" xlink:title="tracebox_hits_trigger_hurt">
<polygon fill="none" stroke="black" points="190.5,-76.5 190.5,-95.5 319.5,-95.5 319.5,-76.5 190.5,-76.5"/>
<text text-anchor="middle" x="255" y="-83.5" font-family="Helvetica,sans-Serif" font-size="10.00">tracebox_hits_trigger_hurt</text>
</a>
</g>
</g>
<!-- Node1&#45;&gt;Node10 -->
<g id="edge9" class="edge"><title>Node1&#45;&gt;Node10</title>
<path fill="none" stroke="midnightblue" d="M91.7399,-184.932C111.529,-164.091 150.085,-126.6 190,-105 194.176,-102.74 198.655,-100.717 203.232,-98.9125"/>
<polygon fill="midnightblue" stroke="midnightblue" points="204.473,-102.186 212.701,-95.5104 202.106,-95.5979 204.473,-102.186"/>
</g>
<!-- Node11 -->
<g id="node11" class="node"><title>Node11</title>
<g id="a_node11"><a xlink:href="../../d8/de2/menudefs_8qc.html#a822ea10e75a853993f2fa21149d76f4c" target="_top" xlink:title="vectoangles">
<polygon fill="none" stroke="black" points="220.5,-38.5 220.5,-57.5 289.5,-57.5 289.5,-38.5 220.5,-38.5"/>
<text text-anchor="middle" x="255" y="-45.5" font-family="Helvetica,sans-Serif" font-size="10.00">vectoangles</text>
</a>
</g>
</g>
<!-- Node1&#45;&gt;Node11 -->
<g id="edge10" class="edge"><title>Node1&#45;&gt;Node11</title>
<path fill="none" stroke="midnightblue" d="M86.6657,-184.74C103.16,-157.075 141.764,-98.5851 190,-67 196.266,-62.8967 203.448,-59.6543 210.682,-57.0996"/>
<polygon fill="midnightblue" stroke="midnightblue" points="212.002,-60.3539 220.5,-54.026 209.911,-53.6736 212.002,-60.3539"/>
</g>
<!-- Node12 -->
<g id="node12" class="node"><title>Node12</title>
<g id="a_node12"><a xlink:href="../../d8/de2/menudefs_8qc.html#a79d61ab0e4126e02af8bc36d432aedaf" target="_top" xlink:title="vlen">
<polygon fill="none" stroke="black" points="237.5,-0.5 237.5,-19.5 272.5,-19.5 272.5,-0.5 237.5,-0.5"/>
<text text-anchor="middle" x="255" y="-7.5" font-family="Helvetica,sans-Serif" font-size="10.00">vlen</text>
</a>
</g>
</g>
<!-- Node1&#45;&gt;Node12 -->
<g id="edge11" class="edge"><title>Node1&#45;&gt;Node12</title>
<path fill="none" stroke="midnightblue" d="M83.6585,-184.865C96.9109,-151.506 133.202,-71.2676 190,-29 200.787,-20.9723 214.942,-16.3185 227.196,-13.6293"/>
<polygon fill="midnightblue" stroke="midnightblue" points="228.154,-17.011 237.343,-11.7364 226.87,-10.1297 228.154,-17.011"/>
</g>
</g>
</svg>
