<?xml version="1.0" encoding="UTF-8" standalone="no"?>
<!DOCTYPE svg PUBLIC "-//W3C//DTD SVG 1.1//EN"
 "http://www.w3.org/Graphics/SVG/1.1/DTD/svg11.dtd">
<!-- Generated by graphviz version 2.36.0 (20140111.2315)
 -->
<!-- Title: crosshair_trace Pages: 1 -->
<!--zoomable 142 -->
<svg id="main" version="1.1" xmlns="http://www.w3.org/2000/svg" xmlns:xlink="http://www.w3.org/1999/xlink" xml:space="preserve" onload="init(evt)">
<style type="text/css"><![CDATA[
.edge:hover path { stroke: red; }
.edge:hover polygon { stroke: red; fill: red; }
]]></style>
<script type="text/javascript"><![CDATA[
var edges = document.getElementsByTagName('g');
if (edges && edges.length) {
  for (var i=0;i<edges.length;i++) {
    if (edges[i].id.substr(0,4)=='edge') {
      edges[i].setAttribute('class','edge');
    }
  }
}
]]></script>
        <defs>
                <circle id="rim" cx="0" cy="0" r="7"/>
                <circle id="rim2" cx="0" cy="0" r="3.5"/>
                <g id="zoomPlus">
                        <use xlink:href="#rim" fill="#404040">
                                <set attributeName="fill" to="#808080" begin="zoomplus.mouseover" end="zoomplus.mouseout"/>
                        </use>
                        <path d="M-4,0h8M0,-4v8" fill="none" stroke="white" stroke-width="1.5" pointer-events="none"/>
                </g>
                <g id="zoomMin">
                        <use xlink:href="#rim" fill="#404040">
                                <set attributeName="fill" to="#808080" begin="zoomminus.mouseover" end="zoomminus.mouseout"/>
                        </use>
                        <path d="M-4,0h8" fill="none" stroke="white" stroke-width="1.5" pointer-events="none"/>
                </g>
                <g id="dirArrow">
                        <path fill="none" stroke="white" stroke-width="1.5" d="M0,-3.0v7 M-2.5,-0.5L0,-3.0L2.5,-0.5"/>
                </g>
               <g id="resetDef">
                       <use xlink:href="#rim2" fill="#404040">
                               <set attributeName="fill" to="#808080" begin="reset.mouseover" end="reset.mouseout"/>
                       </use>
               </g>
        </defs>

<script type="text/javascript">
var viewWidth = 1320;
var viewHeight = 142;
var sectionId = 'dynsection-6';
</script>
<script xlink:href="../../svgpan.js"/>
<svg id="graph" class="graph">
<g id="viewport">
<title>crosshair_trace</title>
<!-- Node1 -->
<g id="node1" class="node"><title>Node1</title>
<polygon fill="#bfbfbf" stroke="black" points="0.5,-57.5 0.5,-76.5 83.5,-76.5 83.5,-57.5 0.5,-57.5"/>
<text text-anchor="middle" x="42" y="-64.5" font-family="Helvetica,sans-Serif" font-size="10.00">crosshair_trace</text>
</g>
<!-- Node2 -->
<g id="node2" class="node"><title>Node2</title>
<g id="a_node2"><a xlink:href="../../d3/dca/cheats_8qh.html#a1549477544784a0c7e5134dbd72b3a28" target="_top" xlink:title="CheatCommand">
<polygon fill="none" stroke="black" points="160,-76.5 160,-95.5 248,-95.5 248,-76.5 160,-76.5"/>
<text text-anchor="middle" x="204" y="-83.5" font-family="Helvetica,sans-Serif" font-size="10.00">CheatCommand</text>
</a>
</g>
</g>
<!-- Node1&#45;&gt;Node2 -->
<g id="edge1" class="edge"><title>Node1&#45;&gt;Node2</title>
<path fill="none" stroke="midnightblue" d="M93.9091,-73.0455C115.105,-75.5625 139.455,-78.4541 159.765,-80.8659"/>
<polygon fill="midnightblue" stroke="midnightblue" points="94.1317,-69.5474 83.7887,-71.8437 93.3062,-76.4985 94.1317,-69.5474"/>
</g>
<!-- Node18 -->
<g id="node18" class="node"><title>Node18</title>
<g id="a_node18"><a xlink:href="../../dc/d73/server_2miscfunctions_8qh.html#a9890a696168a390303c18532e659a7b9" target="_top" xlink:title="crosshair_trace_plusvisibletriggers">
<polygon fill="none" stroke="black" points="120.5,-38.5 120.5,-57.5 287.5,-57.5 287.5,-38.5 120.5,-38.5"/>
<text text-anchor="middle" x="204" y="-45.5" font-family="Helvetica,sans-Serif" font-size="10.00">crosshair_trace_plusvisibletriggers</text>
</a>
</g>
</g>
<!-- Node1&#45;&gt;Node18 -->
<g id="edge18" class="edge"><title>Node1&#45;&gt;Node18</title>
<path fill="none" stroke="midnightblue" d="M93.9022,-60.9554C103.112,-59.8617 112.917,-58.6973 122.728,-57.5323"/>
<polygon fill="midnightblue" stroke="midnightblue" points="93.3062,-57.5015 83.7887,-62.1563 94.1317,-64.4526 93.3062,-57.5015"/>
</g>
<!-- Node3 -->
<g id="node3" class="node"><title>Node3</title>
<g id="a_node3"><a xlink:href="../../d3/dca/cheats_8qh.html#a73c94da2bf38acf3536154e899458024" target="_top" xlink:title="CheatImpulse">
<polygon fill="none" stroke="black" points="351.5,-76.5 351.5,-95.5 428.5,-95.5 428.5,-76.5 351.5,-76.5"/>
<text text-anchor="middle" x="390" y="-83.5" font-family="Helvetica,sans-Serif" font-size="10.00">CheatImpulse</text>
</a>
</g>
</g>
<!-- Node2&#45;&gt;Node3 -->
<g id="edge2" class="edge"><title>Node2&#45;&gt;Node3</title>
<path fill="none" stroke="midnightblue" d="M258.383,-86C288.198,-86 324.623,-86 351.426,-86"/>
<polygon fill="midnightblue" stroke="midnightblue" points="258.14,-82.5001 248.14,-86 258.14,-89.5001 258.14,-82.5001"/>
</g>
<!-- Node11 -->
<g id="node11" class="node"><title>Node11</title>
<g id="a_node11"><a xlink:href="../../d8/d1d/cmd_8qc.html#a015860def0a51a057a4a80c048a1eb97" target="_top" xlink:title="SV_ParseClientCommand">
<polygon fill="none" stroke="black" points="324.5,-114.5 324.5,-133.5 455.5,-133.5 455.5,-114.5 324.5,-114.5"/>
<text text-anchor="middle" x="390" y="-121.5" font-family="Helvetica,sans-Serif" font-size="10.00">SV_ParseClientCommand</text>
</a>
</g>
</g>
<!-- Node2&#45;&gt;Node11 -->
<g id="edge11" class="edge"><title>Node2&#45;&gt;Node11</title>
<path fill="none" stroke="midnightblue" d="M258.128,-96.9721C284.943,-102.51 317.157,-109.163 342.914,-114.482"/>
<polygon fill="midnightblue" stroke="midnightblue" points="258.641,-93.5043 248.14,-94.9093 257.225,-100.36 258.641,-93.5043"/>
</g>
<!-- Node4 -->
<g id="node4" class="node"><title>Node4</title>
<g id="a_node4"><a xlink:href="../../dc/ddd/player_8qc.html#aba6bcdf9b4bf24fa41a76f0cca28fa9b" target="_top" xlink:title="SpecialCommand">
<polygon fill="none" stroke="black" points="496,-76.5 496,-95.5 590,-95.5 590,-76.5 496,-76.5"/>
<text text-anchor="middle" x="543" y="-83.5" font-family="Helvetica,sans-Serif" font-size="10.00">SpecialCommand</text>
</a>
</g>
</g>
<!-- Node3&#45;&gt;Node4 -->
<g id="edge3" class="edge"><title>Node3&#45;&gt;Node4</title>
<path fill="none" stroke="midnightblue" d="M438.837,-86C457.071,-86 477.804,-86 495.875,-86"/>
<polygon fill="midnightblue" stroke="midnightblue" points="438.714,-82.5001 428.714,-86 438.714,-89.5001 438.714,-82.5001"/>
</g>
<!-- Node7 -->
<g id="node7" class="node"><title>Node7</title>
<g id="a_node7"><a xlink:href="../../d4/dd3/cl__impulse_8qh.html#a592fd33e424a2e05854957b679c37e1b" target="_top" xlink:title="ImpulseCommands">
<polygon fill="none" stroke="black" points="492.5,-38.5 492.5,-57.5 593.5,-57.5 593.5,-38.5 492.5,-38.5"/>
<text text-anchor="middle" x="543" y="-45.5" font-family="Helvetica,sans-Serif" font-size="10.00">ImpulseCommands</text>
</a>
</g>
</g>
<!-- Node3&#45;&gt;Node7 -->
<g id="edge6" class="edge"><title>Node3&#45;&gt;Node7</title>
<path fill="none" stroke="midnightblue" d="M438.496,-74.0474C459.696,-68.7123 484.328,-62.5135 504.243,-57.5017"/>
<polygon fill="midnightblue" stroke="midnightblue" points="437.558,-70.6743 428.714,-76.509 439.266,-77.4627 437.558,-70.6743"/>
</g>
<!-- Node5 -->
<g id="node5" class="node"><title>Node5</title>
<g id="a_node5"><a xlink:href="../../dc/ddd/player_8qc.html#a9eee2f2f5f376f53befdf1537abe179d" target="_top" xlink:title="PM_check_specialcommand">
<polygon fill="none" stroke="black" points="634,-76.5 634,-95.5 776,-95.5 776,-76.5 634,-76.5"/>
<text text-anchor="middle" x="705" y="-83.5" font-family="Helvetica,sans-Serif" font-size="10.00">PM_check_specialcommand</text>
</a>
</g>
</g>
<!-- Node4&#45;&gt;Node5 -->
<g id="edge4" class="edge"><title>Node4&#45;&gt;Node5</title>
<path fill="none" stroke="midnightblue" d="M600.386,-86C611.158,-86 622.558,-86 633.703,-86"/>
<polygon fill="midnightblue" stroke="midnightblue" points="600.279,-82.5001 590.279,-86 600.279,-89.5001 600.279,-82.5001"/>
</g>
<!-- Node6 -->
<g id="node6" class="node"><title>Node6</title>
<g id="a_node6"><a xlink:href="../../dc/ddd/player_8qc.html#a672a0ccf602525346ee1acb1337367fe" target="_top" xlink:title="PM_Main">
<polygon fill="none" stroke="black" points="982,-38.5 982,-57.5 1040,-57.5 1040,-38.5 982,-38.5"/>
<text text-anchor="middle" x="1011" y="-45.5" font-family="Helvetica,sans-Serif" font-size="10.00">PM_Main</text>
</a>
</g>
</g>
<!-- Node5&#45;&gt;Node6 -->
<g id="edge5" class="edge"><title>Node5&#45;&gt;Node6</title>
<path fill="none" stroke="midnightblue" d="M786.133,-83.144C831.535,-80.6156 889.235,-75.8726 940,-67 954.017,-64.5501 969.298,-60.5611 981.997,-56.869"/>
<polygon fill="midnightblue" stroke="midnightblue" points="785.851,-79.6539 776.052,-83.6804 786.224,-86.644 785.851,-79.6539"/>
</g>
<!-- Node8 -->
<g id="node8" class="node"><title>Node8</title>
<g id="a_node8"><a xlink:href="../../da/d53/cl__client_8qc.html#afd069ce75171b7ad5b9a840f2fff8bb9" target="_top" xlink:title="PlayerPostThink">
<polygon fill="none" stroke="black" points="660.5,-0.5 660.5,-19.5 749.5,-19.5 749.5,-0.5 660.5,-0.5"/>
<text text-anchor="middle" x="705" y="-7.5" font-family="Helvetica,sans-Serif" font-size="10.00">PlayerPostThink</text>
</a>
</g>
</g>
<!-- Node7&#45;&gt;Node8 -->
<g id="edge7" class="edge"><title>Node7&#45;&gt;Node8</title>
<path fill="none" stroke="midnightblue" d="M594.392,-36.032C616.813,-30.7069 642.847,-24.5238 663.916,-19.5201"/>
<polygon fill="midnightblue" stroke="midnightblue" points="593.295,-32.6949 584.375,-38.411 594.913,-39.5055 593.295,-32.6949"/>
</g>
<!-- Node9 -->
<g id="node9" class="node"><title>Node9</title>
<g id="a_node9"><a xlink:href="../../d5/dd1/playerdemo_8qh.html#a3d6b65b19141e5215083447705deb88c" target="_top" xlink:title="playerdemo_read">
<polygon fill="none" stroke="black" points="832.5,-0.5 832.5,-19.5 923.5,-19.5 923.5,-0.5 832.5,-0.5"/>
<text text-anchor="middle" x="878" y="-7.5" font-family="Helvetica,sans-Serif" font-size="10.00">playerdemo_read</text>
</a>
</g>
</g>
<!-- Node8&#45;&gt;Node9 -->
<g id="edge8" class="edge"><title>Node8&#45;&gt;Node9</title>
<path fill="none" stroke="midnightblue" d="M759.687,-10C783.031,-10 810.066,-10 832.295,-10"/>
<polygon fill="midnightblue" stroke="midnightblue" points="759.593,-6.5001 749.593,-10 759.593,-13.5001 759.593,-6.5001"/>
</g>
<!-- Node10 -->
<g id="node10" class="node"><title>Node10</title>
<g id="a_node10"><a xlink:href="../../d3/d4f/sv__main_8qc.html#a554af7e2ac58045168dad9eca30bc8b1" target="_top" xlink:title="StartFrame">
<polygon fill="none" stroke="black" points="845.5,-38.5 845.5,-57.5 910.5,-57.5 910.5,-38.5 845.5,-38.5"/>
<text text-anchor="middle" x="878" y="-45.5" font-family="Helvetica,sans-Serif" font-size="10.00">StartFrame</text>
</a>
</g>
</g>
<!-- Node8&#45;&gt;Node10 -->
<g id="edge10" class="edge"><title>Node8&#45;&gt;Node10</title>
<path fill="none" stroke="midnightblue" d="M758.921,-21.7602C787.278,-28.0617 821.256,-35.6124 845.468,-40.9929"/>
<polygon fill="midnightblue" stroke="midnightblue" points="759.672,-18.3417 749.151,-19.589 758.153,-25.175 759.672,-18.3417"/>
</g>
<!-- Node9&#45;&gt;Node6 -->
<g id="edge9" class="edge"><title>Node9&#45;&gt;Node6</title>
<path fill="none" stroke="midnightblue" d="M921.741,-22.3983C941.461,-28.1184 964.323,-34.7501 981.837,-39.8305"/>
<polygon fill="midnightblue" stroke="midnightblue" points="922.636,-19.0136 912.057,-19.589 920.686,-25.7364 922.636,-19.0136"/>
</g>
<!-- Node12 -->
<g id="node12" class="node"><title>Node12</title>
<g id="a_node12"><a xlink:href="../../d6/d27/scripting_8qc.html#a9337e576a1412382ff54132dd8d46b28" target="_top" xlink:title="bot_cmd_cc">
<polygon fill="none" stroke="black" points="508,-114.5 508,-133.5 578,-133.5 578,-114.5 508,-114.5"/>
<text text-anchor="middle" x="543" y="-121.5" font-family="Helvetica,sans-Serif" font-size="10.00">bot_cmd_cc</text>
</a>
</g>
</g>
<!-- Node11&#45;&gt;Node12 -->
<g id="edge12" class="edge"><title>Node11&#45;&gt;Node12</title>
<path fill="none" stroke="midnightblue" d="M466.044,-124C480.721,-124 495.42,-124 507.924,-124"/>
<polygon fill="midnightblue" stroke="midnightblue" points="465.914,-120.5 455.914,-124 465.914,-127.5 465.914,-120.5"/>
</g>
<!-- Node13 -->
<g id="node13" class="node"><title>Node13</title>
<g id="a_node13"><a xlink:href="../../d6/d27/scripting_8qc.html#aaca537ca751853fba4204c751942df21" target="_top" xlink:title="bot_execute_commands_once">
<polygon fill="none" stroke="black" points="630.5,-114.5 630.5,-133.5 779.5,-133.5 779.5,-114.5 630.5,-114.5"/>
<text text-anchor="middle" x="705" y="-121.5" font-family="Helvetica,sans-Serif" font-size="10.00">bot_execute_commands_once</text>
</a>
</g>
</g>
<!-- Node12&#45;&gt;Node13 -->
<g id="edge13" class="edge"><title>Node12&#45;&gt;Node13</title>
<path fill="none" stroke="midnightblue" d="M588.379,-124C601.381,-124 615.962,-124 630.273,-124"/>
<polygon fill="midnightblue" stroke="midnightblue" points="588.324,-120.5 578.324,-124 588.324,-127.5 588.324,-120.5"/>
</g>
<!-- Node14 -->
<g id="node14" class="node"><title>Node14</title>
<g id="a_node14"><a xlink:href="../../d8/d14/scripting_8qh.html#abad1d3e4714ca1832aab73ee2b8862ea" target="_top" xlink:title="bot_execute_commands">
<polygon fill="none" stroke="black" points="816.5,-114.5 816.5,-133.5 939.5,-133.5 939.5,-114.5 816.5,-114.5"/>
<text text-anchor="middle" x="878" y="-121.5" font-family="Helvetica,sans-Serif" font-size="10.00">bot_execute_commands</text>
</a>
</g>
</g>
<!-- Node13&#45;&gt;Node14 -->
<g id="edge14" class="edge"><title>Node13&#45;&gt;Node14</title>
<path fill="none" stroke="midnightblue" d="M789.665,-124C798.687,-124 807.736,-124 816.411,-124"/>
<polygon fill="midnightblue" stroke="midnightblue" points="789.512,-120.5 779.512,-124 789.512,-127.5 789.512,-120.5"/>
</g>
<!-- Node15 -->
<g id="node15" class="node"><title>Node15</title>
<g id="a_node15"><a xlink:href="../../d8/d39/havocbot_8qh.html#ade0b4e09f77eaadd022af3ee44c6a3fc" target="_top" xlink:title="havocbot_ai">
<polygon fill="none" stroke="black" points="976.5,-114.5 976.5,-133.5 1045.5,-133.5 1045.5,-114.5 976.5,-114.5"/>
<text text-anchor="middle" x="1011" y="-121.5" font-family="Helvetica,sans-Serif" font-size="10.00">havocbot_ai</text>
</a>
</g>
</g>
<!-- Node14&#45;&gt;Node15 -->
<g id="edge15" class="edge"><title>Node14&#45;&gt;Node15</title>
<path fill="none" stroke="midnightblue" d="M949.576,-124C958.83,-124 967.949,-124 976.187,-124"/>
<polygon fill="midnightblue" stroke="midnightblue" points="949.515,-120.5 939.515,-124 949.515,-127.5 949.515,-120.5"/>
</g>
<!-- Node16 -->
<g id="node16" class="node"><title>Node16</title>
<g id="a_node16"><a xlink:href="../../d8/d39/havocbot_8qh.html#afb882bcf6c4a44e801e4fb9eafbbf1f4" target="_top" xlink:title="havocbot_setupbot">
<polygon fill="none" stroke="black" points="1082.5,-114.5 1082.5,-133.5 1181.5,-133.5 1181.5,-114.5 1082.5,-114.5"/>
<text text-anchor="middle" x="1132" y="-121.5" font-family="Helvetica,sans-Serif" font-size="10.00">havocbot_setupbot</text>
</a>
</g>
</g>
<!-- Node15&#45;&gt;Node16 -->
<g id="edge16" class="edge"><title>Node15&#45;&gt;Node16</title>
<path fill="none" stroke="midnightblue" d="M1056.01,-124C1064.63,-124 1073.72,-124 1082.47,-124"/>
<polygon fill="midnightblue" stroke="midnightblue" points="1055.78,-120.5 1045.78,-124 1055.78,-127.5 1055.78,-120.5"/>
</g>
<!-- Node17 -->
<g id="node17" class="node"><title>Node17</title>
<g id="a_node17"><a xlink:href="../../d1/da9/bot_8qh.html#abd19370e4d61d3549dbbe44826531536" target="_top" xlink:title="bot_clientconnect">
<polygon fill="none" stroke="black" points="1218.5,-114.5 1218.5,-133.5 1311.5,-133.5 1311.5,-114.5 1218.5,-114.5"/>
<text text-anchor="middle" x="1265" y="-121.5" font-family="Helvetica,sans-Serif" font-size="10.00">bot_clientconnect</text>
</a>
</g>
</g>
<!-- Node16&#45;&gt;Node17 -->
<g id="edge17" class="edge"><title>Node16&#45;&gt;Node17</title>
<path fill="none" stroke="midnightblue" d="M1192,-124C1200.79,-124 1209.75,-124 1218.22,-124"/>
<polygon fill="midnightblue" stroke="midnightblue" points="1191.78,-120.5 1181.78,-124 1191.78,-127.5 1191.78,-120.5"/>
</g>
<!-- Node19 -->
<g id="node19" class="node"><title>Node19</title>
<g id="a_node19"><a xlink:href="../../d3/dca/cheats_8qh.html#a1bbaa847b251c4569c98328d90db330c" target="_top" xlink:title="CheatFrame">
<polygon fill="none" stroke="black" points="507.5,-0.5 507.5,-19.5 578.5,-19.5 578.5,-0.5 507.5,-0.5"/>
<text text-anchor="middle" x="543" y="-7.5" font-family="Helvetica,sans-Serif" font-size="10.00">CheatFrame</text>
</a>
</g>
</g>
<!-- Node18&#45;&gt;Node19 -->
<g id="edge19" class="edge"><title>Node18&#45;&gt;Node19</title>
<path fill="none" stroke="midnightblue" d="M269.565,-36.831C287.183,-34.0184 306.295,-31.1821 324,-29 388.476,-21.0533 464.084,-15.2454 507.184,-12.2647"/>
<polygon fill="midnightblue" stroke="midnightblue" points="268.698,-33.4257 259.386,-38.4792 269.817,-40.3357 268.698,-33.4257"/>
</g>
<!-- Node20 -->
<g id="node20" class="node"><title>Node20</title>
<g id="a_node20"><a xlink:href="../../d6/de9/cheats_8qc.html#a5fc7c576740d16f6075adccdc64c84a1" target="_top" xlink:title="Drag">
<polygon fill="none" stroke="black" points="371,-38.5 371,-57.5 409,-57.5 409,-38.5 371,-38.5"/>
<text text-anchor="middle" x="390" y="-45.5" font-family="Helvetica,sans-Serif" font-size="10.00">Drag</text>
</a>
</g>
</g>
<!-- Node18&#45;&gt;Node20 -->
<g id="edge21" class="edge"><title>Node18&#45;&gt;Node20</title>
<path fill="none" stroke="midnightblue" d="M297.834,-48C325.702,-48 353.467,-48 370.902,-48"/>
<polygon fill="midnightblue" stroke="midnightblue" points="297.581,-44.5001 287.581,-48 297.581,-51.5001 297.581,-44.5001"/>
</g>
<!-- Node19&#45;&gt;Node8 -->
<g id="edge20" class="edge"><title>Node19&#45;&gt;Node8</title>
<path fill="none" stroke="midnightblue" d="M588.974,-10C611.36,-10 638.306,-10 660.489,-10"/>
<polygon fill="midnightblue" stroke="midnightblue" points="588.718,-6.5001 578.718,-10 588.718,-13.5001 588.718,-6.5001"/>
</g>
<!-- Node20&#45;&gt;Node19 -->
<g id="edge22" class="edge"><title>Node20&#45;&gt;Node19</title>
<path fill="none" stroke="midnightblue" d="M419.137,-40.9192C444.089,-34.6398 480.619,-25.4468 507.361,-18.717"/>
<polygon fill="midnightblue" stroke="midnightblue" points="418.058,-37.5816 409.214,-43.4163 419.766,-44.3699 418.058,-37.5816"/>
</g>
</g>
</svg>
        <g id="navigator" transform="translate(0 0)" fill="#404254">
                <rect fill="#f2f5e9" fill-opacity="0.5" stroke="#606060" stroke-width=".5" x="0" y="0" width="60" height="60"/>
                <use id="zoomplus" xlink:href="#zoomPlus" x="17" y="9" onmousedown="handleZoom(evt,'in')"/>
                <use id="zoomminus" xlink:href="#zoomMin" x="42" y="9" onmousedown="handleZoom(evt,'out')"/>
                <use id="reset" xlink:href="#resetDef" x="30" y="36" onmousedown="handleReset()"/>
                <g id="arrowUp" xlink:href="#dirArrow" transform="translate(30 24)" onmousedown="handlePan(0,-1)">
                  <use xlink:href="#rim" fill="#404040">
                        <set attributeName="fill" to="#808080" begin="arrowUp.mouseover" end="arrowUp.mouseout"/>
                  </use>
                  <path fill="none" stroke="white" stroke-width="1.5" d="M0,-3.0v7 M-2.5,-0.5L0,-3.0L2.5,-0.5"/>
                </g>
                <g id="arrowRight" xlink:href="#dirArrow" transform="rotate(90) translate(36 -43)" onmousedown="handlePan(1,0)">
                  <use xlink:href="#rim" fill="#404040">
                        <set attributeName="fill" to="#808080" begin="arrowRight.mouseover" end="arrowRight.mouseout"/>
                  </use>
                  <path fill="none" stroke="white" stroke-width="1.5" d="M0,-3.0v7 M-2.5,-0.5L0,-3.0L2.5,-0.5"/>
                </g>
                <g id="arrowDown" xlink:href="#dirArrow" transform="rotate(180) translate(-30 -48)" onmousedown="handlePan(0,1)">
                  <use xlink:href="#rim" fill="#404040">
                        <set attributeName="fill" to="#808080" begin="arrowDown.mouseover" end="arrowDown.mouseout"/>
                  </use>
                  <path fill="none" stroke="white" stroke-width="1.5" d="M0,-3.0v7 M-2.5,-0.5L0,-3.0L2.5,-0.5"/>
                </g>
                <g id="arrowLeft" xlink:href="#dirArrow" transform="rotate(270) translate(-36 17)" onmousedown="handlePan(-1,0)">
                  <use xlink:href="#rim" fill="#404040">
                        <set attributeName="fill" to="#808080" begin="arrowLeft.mouseover" end="arrowLeft.mouseout"/>
                  </use>
                  <path fill="none" stroke="white" stroke-width="1.5" d="M0,-3.0v7 M-2.5,-0.5L0,-3.0L2.5,-0.5"/>
                </g>
        </g>
        <svg viewBox="0 0 15 15" width="100%" height="30px" preserveAspectRatio="xMaxYMin meet">
         <g id="arrow_out" transform="scale(0.3 0.3)">
          <a xlink:href="server_2miscfunctions_8qc_a8292725ec840a49d42ef6453aaf838f6_icgraph_org.svg" target="_base">
           <rect id="button" ry="5" rx="5" y="6" x="6" height="38" width="38"
                fill="#f2f5e9" fill-opacity="0.5" stroke="#606060" stroke-width="1.0"/>
           <path id="arrow"
             d="M 11.500037,31.436501 C 11.940474,20.09759 22.043105,11.32322 32.158766,21.979434 L 37.068811,17.246167 C 37.068811,17.246167 37.088388,32 37.088388,32 L 22.160133,31.978069 C 22.160133,31.978069 26.997745,27.140456 26.997745,27.140456 C 18.528582,18.264221 13.291696,25.230495 11.500037,31.436501 z"
             style="fill:#404040;"/>
          </a>
         </g>
        </svg>
</svg>
