<?xml version="1.0" encoding="UTF-8" standalone="no"?>
<!DOCTYPE svg PUBLIC "-//W3C//DTD SVG 1.1//EN"
 "http://www.w3.org/Graphics/SVG/1.1/DTD/svg11.dtd">
<!-- Generated by graphviz version 2.36.0 (20140111.2315)
 -->
<!-- Title: remove_safely Pages: 1 -->
<svg width="322pt" height="28pt"
 viewBox="0.00 0.00 322.00 28.00" xmlns="http://www.w3.org/2000/svg" xmlns:xlink="http://www.w3.org/1999/xlink">
<g id="graph0" class="graph" transform="scale(1 1) rotate(0) translate(4 24)">
<title>remove_safely</title>
<!-- Node1 -->
<g id="node1" class="node"><title>Node1</title>
<polygon fill="#bfbfbf" stroke="black" points="0,-0.5 0,-19.5 80,-19.5 80,-0.5 0,-0.5"/>
<text text-anchor="middle" x="40" y="-7.5" font-family="Helvetica,sans-Serif" font-size="10.00">remove_safely</text>
</g>
<!-- Node2 -->
<g id="node2" class="node"><title>Node2</title>
<g id="a_node2"><a xlink:href="../../dc/dc6/server_2miscfunctions_8qc.html#a512d742bedcc9a27b9fa5fe4b3d9ab86" target="_top" xlink:title="make_safe_for_remove">
<polygon fill="none" stroke="black" points="116.5,-0.5 116.5,-19.5 235.5,-19.5 235.5,-0.5 116.5,-0.5"/>
<text text-anchor="middle" x="176" y="-7.5" font-family="Helvetica,sans-Serif" font-size="10.00">make_safe_for_remove</text>
</a>
</g>
</g>
<!-- Node1&#45;&gt;Node2 -->
<g id="edge1" class="edge"><title>Node1&#45;&gt;Node2</title>
<path fill="none" stroke="midnightblue" d="M80.1186,-10C88.3692,-10 97.3064,-10 106.285,-10"/>
<polygon fill="midnightblue" stroke="midnightblue" points="106.405,-13.5001 116.405,-10 106.405,-6.5001 106.405,-13.5001"/>
</g>
<!-- Node3 -->
<g id="node3" class="node"><title>Node3</title>
<g id="a_node3"><a xlink:href="../../d5/df2/common_2util_8qh.html#ac5ad73cc4800e309d3b5a9147d1ce43f" target="_top" xlink:title="entity">
<polygon fill="none" stroke="black" points="272.5,-0.5 272.5,-19.5 313.5,-19.5 313.5,-0.5 272.5,-0.5"/>
<text text-anchor="middle" x="293" y="-7.5" font-family="Helvetica,sans-Serif" font-size="10.00">entity</text>
</a>
</g>
</g>
<!-- Node2&#45;&gt;Node3 -->
<g id="edge2" class="edge"><title>Node2&#45;&gt;Node3</title>
<path fill="none" stroke="midnightblue" d="M235.511,-10C244.77,-10 253.994,-10 262.223,-10"/>
<polygon fill="midnightblue" stroke="midnightblue" points="262.386,-13.5001 272.386,-10 262.386,-6.5001 262.386,-13.5001"/>
</g>
</g>
</svg>
