<?xml version="1.0" encoding="UTF-8" standalone="no"?>
<!DOCTYPE svg PUBLIC "-//W3C//DTD SVG 1.1//EN"
 "http://www.w3.org/Graphics/SVG/1.1/DTD/svg11.dtd">
<!-- Generated by graphviz version 2.38.0 (20140413.2041)
 -->
<!-- Title: nades_GiveBonus Pages: 1 -->
<svg width="1362pt" height="174pt"
 viewBox="0.00 0.00 1362.00 173.83" xmlns="http://www.w3.org/2000/svg" xmlns:xlink="http://www.w3.org/1999/xlink">
<g id="graph0" class="graph" transform="scale(1 1) rotate(0) translate(4 169.834)">
<title>nades_GiveBonus</title>
<!-- Node1 -->
<g id="node1" class="node"><title>Node1</title>
<polygon fill="#bfbfbf" stroke="black" points="0,-42.5 0,-61.5 102,-61.5 102,-42.5 0,-42.5"/>
<text text-anchor="middle" x="51" y="-49.5" font-family="Helvetica,sans-Serif" font-size="10.00">nades_GiveBonus</text>
</g>
<!-- Node2 -->
<g id="node2" class="node"><title>Node2</title>
<g id="a_node2"><a xlink:href="../../da/d2c/sv__keyhunt_8qc.html#afd18b0575ca03a9b7f7226e0775ac61f" target="_top" xlink:title="kh_FinishRound">
<polygon fill="none" stroke="black" points="138,-66.5 138,-85.5 227,-85.5 227,-66.5 138,-66.5"/>
<text text-anchor="middle" x="182.5" y="-73.5" font-family="Helvetica,sans-Serif" font-size="10.00">kh_FinishRound</text>
</a>
</g>
</g>
<!-- Node1&#45;&gt;Node2 -->
<g id="edge1" class="edge"><title>Node1&#45;&gt;Node2</title>
<path fill="none" stroke="midnightblue" d="M112.163,-63.1499C120.837,-64.7575 129.622,-66.3855 137.89,-67.9178"/>
<polygon fill="midnightblue" stroke="midnightblue" points="112.538,-59.66 102.068,-61.279 111.263,-66.5428 112.538,-59.66"/>
</g>
<!-- Node15 -->
<g id="node15" class="node"><title>Node15</title>
<g id="a_node15"><a xlink:href="../../da/d2c/sv__keyhunt_8qc.html#adc6f8b980a6e61293b34501088d91004" target="_top" xlink:title="kh_WinnerTeam">
<polygon fill="none" stroke="black" points="263,-0.5 263,-19.5 354,-19.5 354,-0.5 263,-0.5"/>
<text text-anchor="middle" x="308.5" y="-7.5" font-family="Helvetica,sans-Serif" font-size="10.00">kh_WinnerTeam</text>
</a>
</g>
</g>
<!-- Node1&#45;&gt;Node15 -->
<g id="edge23" class="edge"><title>Node1&#45;&gt;Node15</title>
<path fill="none" stroke="midnightblue" d="M112.069,-42.1256C158.31,-34.5244 221.184,-24.1889 262.992,-17.3164"/>
<polygon fill="midnightblue" stroke="midnightblue" points="111.474,-38.6765 102.174,-43.7523 112.609,-45.5838 111.474,-38.6765"/>
</g>
<!-- Node3 -->
<g id="node3" class="node"><title>Node3</title>
<g id="a_node3"><a xlink:href="../../da/d2c/sv__keyhunt_8qc.html#a8b7a8051b363358a9e65fe55b263a7d7" target="_top" xlink:title="kh_finalize">
<polygon fill="none" stroke="black" points="275.5,-114.5 275.5,-133.5 341.5,-133.5 341.5,-114.5 275.5,-114.5"/>
<text text-anchor="middle" x="308.5" y="-121.5" font-family="Helvetica,sans-Serif" font-size="10.00">kh_finalize</text>
</a>
</g>
</g>
<!-- Node2&#45;&gt;Node3 -->
<g id="edge2" class="edge"><title>Node2&#45;&gt;Node3</title>
<path fill="none" stroke="midnightblue" d="M217.654,-89.2209C238.277,-97.2041 264.089,-107.196 282.748,-114.418"/>
<polygon fill="midnightblue" stroke="midnightblue" points="218.884,-85.9442 208.295,-85.5982 216.357,-92.4721 218.884,-85.9442"/>
</g>
<!-- Node5 -->
<g id="node5" class="node"><title>Node5</title>
<g id="a_node5"><a xlink:href="../../da/d2c/sv__keyhunt_8qc.html#a30b7c67b8d46ae780725e7bd1236b269" target="_top" xlink:title="kh_LoserTeam">
<polygon fill="none" stroke="black" points="266,-38.5 266,-57.5 351,-57.5 351,-38.5 266,-38.5"/>
<text text-anchor="middle" x="308.5" y="-45.5" font-family="Helvetica,sans-Serif" font-size="10.00">kh_LoserTeam</text>
</a>
</g>
</g>
<!-- Node2&#45;&gt;Node5 -->
<g id="edge4" class="edge"><title>Node2&#45;&gt;Node5</title>
<path fill="none" stroke="midnightblue" d="M235.707,-64.2114C245.744,-61.9449 256.132,-59.5991 265.784,-57.4198"/>
<polygon fill="midnightblue" stroke="midnightblue" points="234.81,-60.8256 225.827,-66.4423 236.352,-67.6537 234.81,-60.8256"/>
</g>
<!-- Node2&#45;&gt;Node15 -->
<g id="edge21" class="edge"><title>Node2&#45;&gt;Node15</title>
<path fill="none" stroke="midnightblue" d="M206.904,-61.0699C222.505,-51.3923 243.629,-38.8089 263,-29 269.445,-25.7364 276.582,-22.5213 283.218,-19.6904"/>
<polygon fill="midnightblue" stroke="midnightblue" points="205.029,-58.1148 198.412,-66.3893 208.744,-64.0472 205.029,-58.1148"/>
</g>
<!-- Node4 -->
<g id="node4" class="node"><title>Node4</title>
<g id="a_node4"><a xlink:href="../../da/d2c/sv__keyhunt_8qc.html#af0205f884b65245c59767ebaf4ac57d0" target="_top" xlink:title="MUTATOR_HOOKFUNCTION">
<polygon fill="none" stroke="black" points="390,-114.5 390,-133.5 535,-133.5 535,-114.5 390,-114.5"/>
<text text-anchor="middle" x="462.5" y="-121.5" font-family="Helvetica,sans-Serif" font-size="10.00">MUTATOR_HOOKFUNCTION</text>
</a>
</g>
</g>
<!-- Node3&#45;&gt;Node4 -->
<g id="edge3" class="edge"><title>Node3&#45;&gt;Node4</title>
<path fill="none" stroke="midnightblue" d="M351.762,-124C363.62,-124 376.852,-124 389.909,-124"/>
<polygon fill="midnightblue" stroke="midnightblue" points="351.735,-120.5 341.735,-124 351.735,-127.5 351.735,-120.5"/>
</g>
<!-- Node6 -->
<g id="node6" class="node"><title>Node6</title>
<g id="a_node6"><a xlink:href="../../da/d2c/sv__keyhunt_8qc.html#a37649830a26962d6bd939ecf9c50c8e2" target="_top" xlink:title="kh_Key_Think">
<polygon fill="none" stroke="black" points="422.5,-38.5 422.5,-57.5 502.5,-57.5 502.5,-38.5 422.5,-38.5"/>
<text text-anchor="middle" x="462.5" y="-45.5" font-family="Helvetica,sans-Serif" font-size="10.00">kh_Key_Think</text>
</a>
</g>
</g>
<!-- Node5&#45;&gt;Node6 -->
<g id="edge5" class="edge"><title>Node5&#45;&gt;Node6</title>
<path fill="none" stroke="midnightblue" d="M361.234,-48C381.24,-48 403.752,-48 422.369,-48"/>
<polygon fill="midnightblue" stroke="midnightblue" points="361.035,-44.5001 351.035,-48 361.035,-51.5001 361.035,-44.5001"/>
</g>
<!-- Node7 -->
<g id="node7" class="node"><title>Node7</title>
<g id="a_node7"><a xlink:href="../../da/d2c/sv__keyhunt_8qc.html#a0cc4d42896731a9e2d7621b4df9f416f" target="_top" xlink:title="kh_Key_Spawn">
<polygon fill="none" stroke="black" points="571,-38.5 571,-57.5 657,-57.5 657,-38.5 571,-38.5"/>
<text text-anchor="middle" x="614" y="-45.5" font-family="Helvetica,sans-Serif" font-size="10.00">kh_Key_Spawn</text>
</a>
</g>
</g>
<!-- Node6&#45;&gt;Node7 -->
<g id="edge6" class="edge"><title>Node6&#45;&gt;Node7</title>
<path fill="none" stroke="midnightblue" d="M512.912,-48C531.66,-48 552.821,-48 570.84,-48"/>
<polygon fill="midnightblue" stroke="midnightblue" points="512.779,-44.5001 502.779,-48 512.779,-51.5001 512.779,-44.5001"/>
</g>
<!-- Node8 -->
<g id="node8" class="node"><title>Node8</title>
<g id="a_node8"><a xlink:href="../../db/d62/sv__keyhunt_8qh.html#ad10ed989b4f6a7ccbba89f62fc1705ac" target="_top" xlink:title="kh_StartRound">
<polygon fill="none" stroke="black" points="693,-76.5 693,-95.5 779,-95.5 779,-76.5 693,-76.5"/>
<text text-anchor="middle" x="736" y="-83.5" font-family="Helvetica,sans-Serif" font-size="10.00">kh_StartRound</text>
</a>
</g>
</g>
<!-- Node7&#45;&gt;Node8 -->
<g id="edge7" class="edge"><title>Node7&#45;&gt;Node8</title>
<path fill="none" stroke="midnightblue" d="M655.043,-60.6804C671.257,-65.8148 689.666,-71.6441 704.729,-76.4141"/>
<polygon fill="midnightblue" stroke="midnightblue" points="655.871,-57.2713 645.281,-57.589 653.758,-63.9447 655.871,-57.2713"/>
</g>
<!-- Node8&#45;&gt;Node2 -->
<g id="edge8" class="edge"><title>Node8&#45;&gt;Node2</title>
<path fill="none" stroke="midnightblue" d="M682.748,-85.0525C574.543,-83.0905 327.687,-78.6144 227.236,-76.793"/>
<polygon fill="midnightblue" stroke="midnightblue" points="682.715,-88.5524 692.777,-85.2344 682.842,-81.5536 682.715,-88.5524"/>
</g>
<!-- Node9 -->
<g id="node9" class="node"><title>Node9</title>
<g id="a_node9"><a xlink:href="../../da/d2c/sv__keyhunt_8qc.html#acf9057b87b552cb3a114c36616cc86c5" target="_top" xlink:title="kh_WaitForPlayers">
<polygon fill="none" stroke="black" points="815,-76.5 815,-95.5 917,-95.5 917,-76.5 815,-76.5"/>
<text text-anchor="middle" x="866" y="-83.5" font-family="Helvetica,sans-Serif" font-size="10.00">kh_WaitForPlayers</text>
</a>
</g>
</g>
<!-- Node8&#45;&gt;Node9 -->
<g id="edge9" class="edge"><title>Node8&#45;&gt;Node9</title>
<path fill="none" stroke="midnightblue" d="M789.337,-79.3506C797.739,-79.2042 806.419,-79.2176 814.77,-79.3908"/>
<polygon fill="midnightblue" stroke="midnightblue" points="789.174,-75.8536 779.267,-79.6085 789.353,-82.8513 789.174,-75.8536"/>
</g>
<!-- Node9&#45;&gt;Node8 -->
<g id="edge19" class="edge"><title>Node9&#45;&gt;Node8</title>
<path fill="none" stroke="midnightblue" d="M804.742,-92.7397C796.132,-92.787 787.432,-92.6709 779.267,-92.3915"/>
<polygon fill="midnightblue" stroke="midnightblue" points="804.816,-96.2392 814.77,-92.6092 804.725,-89.2398 804.816,-96.2392"/>
</g>
<!-- Node10 -->
<g id="node10" class="node"><title>Node10</title>
<g id="a_node10"><a xlink:href="../../db/d62/sv__keyhunt_8qh.html#a531e55e732864eae875e27be2261f406" target="_top" xlink:title="kh_Controller_SetThink">
<polygon fill="none" stroke="black" points="962.5,-114.5 962.5,-133.5 1088.5,-133.5 1088.5,-114.5 962.5,-114.5"/>
<text text-anchor="middle" x="1025.5" y="-121.5" font-family="Helvetica,sans-Serif" font-size="10.00">kh_Controller_SetThink</text>
</a>
</g>
</g>
<!-- Node9&#45;&gt;Node10 -->
<g id="edge10" class="edge"><title>Node9&#45;&gt;Node10</title>
<path fill="none" stroke="midnightblue" d="M927.152,-93.9329C954.44,-100.009 984.889,-107.985 1004.35,-114.446"/>
<polygon fill="midnightblue" stroke="midnightblue" points="927.782,-90.4883 917.267,-91.7867 926.297,-97.3289 927.782,-90.4883"/>
</g>
<!-- Node11 -->
<g id="node11" class="node"><title>Node11</title>
<g id="a_node11"><a xlink:href="../../db/d62/sv__keyhunt_8qh.html#ac072ac85d73eb7dc83d6faeca9757648" target="_top" xlink:title="kh_Initialize">
<polygon fill="none" stroke="black" points="1134,-38.5 1134,-57.5 1205,-57.5 1205,-38.5 1134,-38.5"/>
<text text-anchor="middle" x="1169.5" y="-45.5" font-family="Helvetica,sans-Serif" font-size="10.00">kh_Initialize</text>
</a>
</g>
</g>
<!-- Node9&#45;&gt;Node11 -->
<g id="edge18" class="edge"><title>Node9&#45;&gt;Node11</title>
<path fill="none" stroke="midnightblue" d="M915.345,-74.1683C927.573,-71.4936 940.721,-68.8896 953,-67 1016.48,-57.2317 1091.31,-52.0358 1134,-49.6623"/>
<polygon fill="midnightblue" stroke="midnightblue" points="914.319,-70.8114 905.329,-76.4175 915.853,-77.6413 914.319,-70.8114"/>
</g>
<!-- Node13 -->
<g id="node13" class="node"><title>Node13</title>
<g id="a_node13"><a xlink:href="../../da/d2c/sv__keyhunt_8qc.html#a416281629c18b21a1b7b31732c9bcc56" target="_top" xlink:title="kh_Controller_Think">
<polygon fill="none" stroke="black" points="970.5,-0.5 970.5,-19.5 1080.5,-19.5 1080.5,-0.5 970.5,-0.5"/>
<text text-anchor="middle" x="1025.5" y="-7.5" font-family="Helvetica,sans-Serif" font-size="10.00">kh_Controller_Think</text>
</a>
</g>
</g>
<!-- Node9&#45;&gt;Node13 -->
<g id="edge16" class="edge"><title>Node9&#45;&gt;Node13</title>
<path fill="none" stroke="midnightblue" d="M889.388,-70.5843C906.317,-59.3992 930.426,-44.4582 953,-34 965.118,-28.3858 978.931,-23.4354 991.163,-19.511"/>
<polygon fill="midnightblue" stroke="midnightblue" points="887.132,-67.8828 880.776,-76.3596 891.031,-73.6965 887.132,-67.8828"/>
</g>
<!-- Node14 -->
<g id="node14" class="node"><title>Node14</title>
<g id="a_node14"><a xlink:href="../../da/d2c/sv__keyhunt_8qc.html#ace346d591bd46596d2f80f111b3ea948" target="_top" xlink:title="MUTATOR_HOOKFUNCTION">
<polygon fill="none" stroke="black" points="953,-76.5 953,-95.5 1098,-95.5 1098,-76.5 953,-76.5"/>
<text text-anchor="middle" x="1025.5" y="-83.5" font-family="Helvetica,sans-Serif" font-size="10.00">MUTATOR_HOOKFUNCTION</text>
</a>
</g>
</g>
<!-- Node9&#45;&gt;Node14 -->
<g id="edge20" class="edge"><title>Node9&#45;&gt;Node14</title>
<path fill="none" stroke="midnightblue" d="M927.305,-86C935.676,-86 944.342,-86 952.895,-86"/>
<polygon fill="midnightblue" stroke="midnightblue" points="927.267,-82.5001 917.267,-86 927.267,-89.5001 927.267,-82.5001"/>
</g>
<!-- Node10&#45;&gt;Node2 -->
<g id="edge11" class="edge"><title>Node10&#45;&gt;Node2</title>
<path fill="none" stroke="midnightblue" d="M969.944,-135.554C912.325,-146.734 818.692,-162 737,-162 461.5,-162 461.5,-162 461.5,-162 372.875,-162 344.703,-177.337 263,-143 232.382,-130.132 204.708,-101.15 191.563,-85.8647"/>
<polygon fill="midnightblue" stroke="midnightblue" points="970.787,-138.956 979.922,-133.589 969.434,-132.088 970.787,-138.956"/>
</g>
<!-- Node10&#45;&gt;Node8 -->
<g id="edge13" class="edge"><title>Node10&#45;&gt;Node8</title>
<path fill="none" stroke="midnightblue" d="M952.254,-120.103C911.72,-117.253 860.334,-112.534 815,-105 800.564,-102.601 784.848,-98.9733 771.331,-95.5287"/>
<polygon fill="midnightblue" stroke="midnightblue" points="952.101,-123.6 962.315,-120.788 952.576,-116.616 952.101,-123.6"/>
</g>
<!-- Node10&#45;&gt;Node9 -->
<g id="edge12" class="edge"><title>Node10&#45;&gt;Node9</title>
<path fill="none" stroke="midnightblue" d="M952.379,-113.328C928.555,-107.734 903.917,-101.114 887.268,-95.5924"/>
<polygon fill="midnightblue" stroke="midnightblue" points="951.626,-116.746 962.156,-115.576 953.195,-109.924 951.626,-116.746"/>
</g>
<!-- Node10&#45;&gt;Node11 -->
<g id="edge14" class="edge"><title>Node10&#45;&gt;Node11</title>
<path fill="none" stroke="midnightblue" d="M1083.44,-111.244C1088.47,-109.411 1093.39,-107.339 1098,-105 1122.7,-92.4587 1146.76,-70.2203 1159.39,-57.546"/>
<polygon fill="midnightblue" stroke="midnightblue" points="1082.09,-108.006 1073.7,-114.479 1084.3,-114.649 1082.09,-108.006"/>
</g>
<!-- Node12 -->
<g id="node12" class="node"><title>Node12</title>
<g id="a_node12"><a xlink:href="../../db/d62/sv__keyhunt_8qh.html#a9c7fe8777db5311111214e415999eb42" target="_top" xlink:title="REGISTER_MUTATOR">
<polygon fill="none" stroke="black" points="1241,-38.5 1241,-57.5 1354,-57.5 1354,-38.5 1241,-38.5"/>
<text text-anchor="middle" x="1297.5" y="-45.5" font-family="Helvetica,sans-Serif" font-size="10.00">REGISTER_MUTATOR</text>
</a>
</g>
</g>
<!-- Node11&#45;&gt;Node12 -->
<g id="edge15" class="edge"><title>Node11&#45;&gt;Node12</title>
<path fill="none" stroke="midnightblue" d="M1215.33,-48C1223.5,-48 1232.11,-48 1240.55,-48"/>
<polygon fill="midnightblue" stroke="midnightblue" points="1215.26,-44.5001 1205.26,-48 1215.26,-51.5001 1215.26,-44.5001"/>
</g>
<!-- Node13&#45;&gt;Node11 -->
<g id="edge17" class="edge"><title>Node13&#45;&gt;Node11</title>
<path fill="none" stroke="midnightblue" d="M1072.14,-22.2148C1092.1,-27.5538 1115.12,-33.7157 1133.66,-38.6768"/>
<polygon fill="midnightblue" stroke="midnightblue" points="1072.9,-18.7931 1062.33,-19.589 1071.09,-25.5552 1072.9,-18.7931"/>
</g>
<!-- Node15&#45;&gt;Node6 -->
<g id="edge22" class="edge"><title>Node15&#45;&gt;Node6</title>
<path fill="none" stroke="midnightblue" d="M357.66,-22.04C378.895,-27.3488 403.495,-33.4988 423.42,-38.4799"/>
<polygon fill="midnightblue" stroke="midnightblue" points="358.406,-18.6189 347.856,-19.589 356.709,-25.4099 358.406,-18.6189"/>
</g>
</g>
</svg>
