<?xml version="1.0" encoding="UTF-8" standalone="no"?>
<!DOCTYPE svg PUBLIC "-//W3C//DTD SVG 1.1//EN"
 "http://www.w3.org/Graphics/SVG/1.1/DTD/svg11.dtd">
<!-- Generated by graphviz version 2.36.0 (20140111.2315)
 -->
<!-- Title: havocbot_goalrating_kh Pages: 1 -->
<!--zoomable 143 -->
<svg id="main" version="1.1" xmlns="http://www.w3.org/2000/svg" xmlns:xlink="http://www.w3.org/1999/xlink" xml:space="preserve" onload="init(evt)">
<style type="text/css"><![CDATA[
.edge:hover path { stroke: red; }
.edge:hover polygon { stroke: red; fill: red; }
]]></style>
<script type="text/javascript"><![CDATA[
var edges = document.getElementsByTagName('g');
if (edges && edges.length) {
  for (var i=0;i<edges.length;i++) {
    if (edges[i].id.substr(0,4)=='edge') {
      edges[i].setAttribute('class','edge');
    }
  }
}
]]></script>
        <defs>
                <circle id="rim" cx="0" cy="0" r="7"/>
                <circle id="rim2" cx="0" cy="0" r="3.5"/>
                <g id="zoomPlus">
                        <use xlink:href="#rim" fill="#404040">
                                <set attributeName="fill" to="#808080" begin="zoomplus.mouseover" end="zoomplus.mouseout"/>
                        </use>
                        <path d="M-4,0h8M0,-4v8" fill="none" stroke="white" stroke-width="1.5" pointer-events="none"/>
                </g>
                <g id="zoomMin">
                        <use xlink:href="#rim" fill="#404040">
                                <set attributeName="fill" to="#808080" begin="zoomminus.mouseover" end="zoomminus.mouseout"/>
                        </use>
                        <path d="M-4,0h8" fill="none" stroke="white" stroke-width="1.5" pointer-events="none"/>
                </g>
                <g id="dirArrow">
                        <path fill="none" stroke="white" stroke-width="1.5" d="M0,-3.0v7 M-2.5,-0.5L0,-3.0L2.5,-0.5"/>
                </g>
               <g id="resetDef">
                       <use xlink:href="#rim2" fill="#404040">
                               <set attributeName="fill" to="#808080" begin="reset.mouseover" end="reset.mouseout"/>
                       </use>
               </g>
        </defs>

<script type="text/javascript">
var viewWidth = 996;
var viewHeight = 143;
var sectionId = 'dynsection-2';
</script>
<script xlink:href="../../svgpan.js"/>
<svg id="graph" class="graph">
<g id="viewport">
<title>havocbot_goalrating_kh</title>
<!-- Node1 -->
<g id="node1" class="node"><title>Node1</title>
<polygon fill="#bfbfbf" stroke="black" points="0.5,-53.7872 0.5,-72.7872 119.5,-72.7872 119.5,-53.7872 0.5,-53.7872"/>
<text text-anchor="middle" x="60" y="-60.7872" font-family="Helvetica,sans-Serif" font-size="10.00">havocbot_goalrating_kh</text>
</g>
<!-- Node2 -->
<g id="node2" class="node"><title>Node2</title>
<g id="a_node2"><a xlink:href="../../da/d2c/sv__keyhunt_8qc.html#a2a698368f19c7c5ebf583513d0b51b4b" target="_top" xlink:title="havocbot_role_kh_carrier">
<polygon fill="none" stroke="black" points="156.5,-30.7872 156.5,-49.7872 281.5,-49.7872 281.5,-30.7872 156.5,-30.7872"/>
<text text-anchor="middle" x="219" y="-37.7872" font-family="Helvetica,sans-Serif" font-size="10.00">havocbot_role_kh_carrier</text>
</a>
</g>
</g>
<!-- Node1&#45;&gt;Node2 -->
<g id="edge1" class="edge"><title>Node1&#45;&gt;Node2</title>
<path fill="none" stroke="midnightblue" d="M129.806,-53.2073C138.658,-51.9106 147.677,-50.5894 156.403,-49.311"/>
<polygon fill="midnightblue" stroke="midnightblue" points="129.295,-49.7448 119.908,-54.6574 130.309,-56.6709 129.295,-49.7448"/>
</g>
<!-- Node3 -->
<g id="node3" class="node"><title>Node3</title>
<g id="a_node3"><a xlink:href="../../da/d2c/sv__keyhunt_8qc.html#ae96b15ad211db1ea8f4da4aca4347233" target="_top" xlink:title="havocbot_role_kh_defense">
<polygon fill="none" stroke="black" points="318.5,-115.787 318.5,-134.787 451.5,-134.787 451.5,-115.787 318.5,-115.787"/>
<text text-anchor="middle" x="385" y="-122.787" font-family="Helvetica,sans-Serif" font-size="10.00">havocbot_role_kh_defense</text>
</a>
</g>
</g>
<!-- Node1&#45;&gt;Node3 -->
<g id="edge13" class="edge"><title>Node1&#45;&gt;Node3</title>
<path fill="none" stroke="midnightblue" d="M89.8016,-77.2271C108.29,-85.5623 133.053,-95.6061 156,-101.287 209.704,-114.583 272.306,-120.516 318.312,-123.162"/>
<polygon fill="midnightblue" stroke="midnightblue" points="91.0347,-73.9415 80.4879,-72.9337 88.1042,-80.2987 91.0347,-73.9415"/>
</g>
<!-- Node4 -->
<g id="node4" class="node"><title>Node4</title>
<g id="a_node4"><a xlink:href="../../da/d2c/sv__keyhunt_8qc.html#ab5a5bdb816a9263865ef7cdcd0e517d1" target="_top" xlink:title="havocbot_role_kh_freelancer">
<polygon fill="none" stroke="black" points="488.5,-53.7872 488.5,-72.7872 629.5,-72.7872 629.5,-53.7872 488.5,-53.7872"/>
<text text-anchor="middle" x="559" y="-60.7872" font-family="Helvetica,sans-Serif" font-size="10.00">havocbot_role_kh_freelancer</text>
</a>
</g>
</g>
<!-- Node1&#45;&gt;Node4 -->
<g id="edge14" class="edge"><title>Node1&#45;&gt;Node4</title>
<path fill="none" stroke="midnightblue" d="M129.849,-68.0668C207.978,-72.7888 339.211,-78.5957 452,-73.2872 463.725,-72.7354 476.155,-71.8421 488.219,-70.8106"/>
<polygon fill="midnightblue" stroke="midnightblue" points="129.849,-64.5603 119.653,-67.4384 129.418,-71.547 129.849,-64.5603"/>
</g>
<!-- Node5 -->
<g id="node5" class="node"><title>Node5</title>
<g id="a_node5"><a xlink:href="../../da/d2c/sv__keyhunt_8qc.html#a05fc29853c73faa635782df0536b3812" target="_top" xlink:title="havocbot_role_kh_offense">
<polygon fill="none" stroke="black" points="666.5,-21.7872 666.5,-40.7872 797.5,-40.7872 797.5,-21.7872 666.5,-21.7872"/>
<text text-anchor="middle" x="732" y="-28.7872" font-family="Helvetica,sans-Serif" font-size="10.00">havocbot_role_kh_offense</text>
</a>
</g>
</g>
<!-- Node1&#45;&gt;Node5 -->
<g id="edge15" class="edge"><title>Node1&#45;&gt;Node5</title>
<path fill="none" stroke="midnightblue" d="M86.0856,-48.7319C104.696,-38.811 131.059,-26.5546 156,-21.2872 341.361,17.8596 567.84,-6.5196 672.647,-21.7595"/>
<polygon fill="midnightblue" stroke="midnightblue" points="84.1923,-45.7785 77.1091,-53.6576 87.5598,-51.9153 84.1923,-45.7785"/>
</g>
<!-- Node2&#45;&gt;Node3 -->
<g id="edge2" class="edge"><title>Node2&#45;&gt;Node3</title>
<path fill="none" stroke="midnightblue" d="M247.717,-54.6528C281.18,-71.9964 336.541,-100.689 365.322,-115.606"/>
<polygon fill="midnightblue" stroke="midnightblue" points="248.983,-51.3668 238.494,-49.8726 245.762,-57.5817 248.983,-51.3668"/>
</g>
<!-- Node2&#45;&gt;Node4 -->
<g id="edge12" class="edge"><title>Node2&#45;&gt;Node4</title>
<path fill="none" stroke="midnightblue" d="M291.906,-39.5384C352.813,-42.1106 439.183,-48.0887 496.822,-53.7851"/>
<polygon fill="midnightblue" stroke="midnightblue" points="291.733,-36.0288 281.601,-39.1269 291.454,-43.0233 291.733,-36.0288"/>
</g>
<!-- Node2&#45;&gt;Node5 -->
<g id="edge11" class="edge"><title>Node2&#45;&gt;Node5</title>
<path fill="none" stroke="midnightblue" d="M291.926,-39.0204C391.691,-37.2633 570.574,-34.1127 666.327,-32.4263"/>
<polygon fill="midnightblue" stroke="midnightblue" points="291.575,-35.526 281.639,-39.2016 291.699,-42.5249 291.575,-35.526"/>
</g>
<!-- Node3&#45;&gt;Node4 -->
<g id="edge3" class="edge"><title>Node3&#45;&gt;Node4</title>
<path fill="none" stroke="midnightblue" d="M410.429,-111.597C437.561,-99.7542 481.88,-83.4264 514.88,-72.8897"/>
<polygon fill="midnightblue" stroke="midnightblue" points="408.936,-108.431 401.264,-115.738 411.818,-114.81 408.936,-108.431"/>
</g>
<!-- Node6 -->
<g id="node6" class="node"><title>Node6</title>
<g id="a_node6"><a xlink:href="../../da/d2c/sv__keyhunt_8qc.html#a99489a4e3940f96c042720774c32948d" target="_top" xlink:title="MUTATOR_HOOKFUNCTION">
<polygon fill="none" stroke="black" points="834.5,-59.7872 834.5,-78.7872 987.5,-78.7872 987.5,-59.7872 834.5,-59.7872"/>
<text text-anchor="middle" x="911" y="-66.7872" font-family="Helvetica,sans-Serif" font-size="10.00">MUTATOR_HOOKFUNCTION</text>
</a>
</g>
</g>
<!-- Node3&#45;&gt;Node6 -->
<g id="edge10" class="edge"><title>Node3&#45;&gt;Node6</title>
<path fill="none" stroke="midnightblue" d="M461.542,-117.214C560.939,-106.591 734.65,-88.0269 834.184,-77.3897"/>
<polygon fill="midnightblue" stroke="midnightblue" points="461.141,-113.737 451.57,-118.28 461.885,-120.697 461.141,-113.737"/>
</g>
<!-- Node4&#45;&gt;Node2 -->
<g id="edge4" class="edge"><title>Node4&#45;&gt;Node2</title>
<path fill="none" stroke="midnightblue" d="M477.966,-63.6795C417.703,-60.9423 336.329,-55.2389 281.209,-49.7924"/>
<polygon fill="midnightblue" stroke="midnightblue" points="478.062,-67.1869 488.204,-64.1242 478.365,-60.1935 478.062,-67.1869"/>
</g>
<!-- Node4&#45;&gt;Node3 -->
<g id="edge5" class="edge"><title>Node4&#45;&gt;Node3</title>
<path fill="none" stroke="midnightblue" d="M533.447,-77.0314C506.261,-88.8891 461.926,-105.217 428.959,-115.736"/>
<polygon fill="midnightblue" stroke="midnightblue" points="534.96,-80.1886 542.635,-72.8841 532.08,-73.8085 534.96,-80.1886"/>
</g>
<!-- Node4&#45;&gt;Node5 -->
<g id="edge6" class="edge"><title>Node4&#45;&gt;Node5</title>
<path fill="none" stroke="midnightblue" d="M594.71,-51.2374C615.252,-46.2874 641.929,-40.9565 666.228,-36.8377"/>
<polygon fill="midnightblue" stroke="midnightblue" points="593.713,-47.8789 584.865,-53.7061 595.416,-54.6687 593.713,-47.8789"/>
</g>
<!-- Node4&#45;&gt;Node6 -->
<g id="edge9" class="edge"><title>Node4&#45;&gt;Node6</title>
<path fill="none" stroke="midnightblue" d="M639.848,-64.6561C698.194,-65.6563 776.816,-67.0041 834.195,-67.9877"/>
<polygon fill="midnightblue" stroke="midnightblue" points="639.626,-61.1518 629.567,-64.4798 639.506,-68.1508 639.626,-61.1518"/>
</g>
<!-- Node5&#45;&gt;Node4 -->
<g id="edge7" class="edge"><title>Node5&#45;&gt;Node4</title>
<path fill="none" stroke="midnightblue" d="M696.47,-43.2936C677.241,-47.9332 652.596,-52.9119 629.552,-56.9161"/>
<polygon fill="midnightblue" stroke="midnightblue" points="697.426,-46.6624 706.272,-40.8325 695.721,-39.8731 697.426,-46.6624"/>
</g>
<!-- Node5&#45;&gt;Node6 -->
<g id="edge8" class="edge"><title>Node5&#45;&gt;Node6</title>
<path fill="none" stroke="midnightblue" d="M787.742,-43.0398C812.77,-48.413 842.035,-54.6958 865.657,-59.7672"/>
<polygon fill="midnightblue" stroke="midnightblue" points="788.176,-39.5533 777.665,-40.8762 786.707,-46.3974 788.176,-39.5533"/>
</g>
</g>
</svg>
        <g id="navigator" transform="translate(0 0)" fill="#404254">
                <rect fill="#f2f5e9" fill-opacity="0.5" stroke="#606060" stroke-width=".5" x="0" y="0" width="60" height="60"/>
                <use id="zoomplus" xlink:href="#zoomPlus" x="17" y="9" onmousedown="handleZoom(evt,'in')"/>
                <use id="zoomminus" xlink:href="#zoomMin" x="42" y="9" onmousedown="handleZoom(evt,'out')"/>
                <use id="reset" xlink:href="#resetDef" x="30" y="36" onmousedown="handleReset()"/>
                <g id="arrowUp" xlink:href="#dirArrow" transform="translate(30 24)" onmousedown="handlePan(0,-1)">
                  <use xlink:href="#rim" fill="#404040">
                        <set attributeName="fill" to="#808080" begin="arrowUp.mouseover" end="arrowUp.mouseout"/>
                  </use>
                  <path fill="none" stroke="white" stroke-width="1.5" d="M0,-3.0v7 M-2.5,-0.5L0,-3.0L2.5,-0.5"/>
                </g>
                <g id="arrowRight" xlink:href="#dirArrow" transform="rotate(90) translate(36 -43)" onmousedown="handlePan(1,0)">
                  <use xlink:href="#rim" fill="#404040">
                        <set attributeName="fill" to="#808080" begin="arrowRight.mouseover" end="arrowRight.mouseout"/>
                  </use>
                  <path fill="none" stroke="white" stroke-width="1.5" d="M0,-3.0v7 M-2.5,-0.5L0,-3.0L2.5,-0.5"/>
                </g>
                <g id="arrowDown" xlink:href="#dirArrow" transform="rotate(180) translate(-30 -48)" onmousedown="handlePan(0,1)">
                  <use xlink:href="#rim" fill="#404040">
                        <set attributeName="fill" to="#808080" begin="arrowDown.mouseover" end="arrowDown.mouseout"/>
                  </use>
                  <path fill="none" stroke="white" stroke-width="1.5" d="M0,-3.0v7 M-2.5,-0.5L0,-3.0L2.5,-0.5"/>
                </g>
                <g id="arrowLeft" xlink:href="#dirArrow" transform="rotate(270) translate(-36 17)" onmousedown="handlePan(-1,0)">
                  <use xlink:href="#rim" fill="#404040">
                        <set attributeName="fill" to="#808080" begin="arrowLeft.mouseover" end="arrowLeft.mouseout"/>
                  </use>
                  <path fill="none" stroke="white" stroke-width="1.5" d="M0,-3.0v7 M-2.5,-0.5L0,-3.0L2.5,-0.5"/>
                </g>
        </g>
        <svg viewBox="0 0 15 15" width="100%" height="30px" preserveAspectRatio="xMaxYMin meet">
         <g id="arrow_out" transform="scale(0.3 0.3)">
          <a xlink:href="sv__keyhunt_8qc_ae955d4effbbc7642be80664ccb7fdaad_icgraph_org.svg" target="_base">
           <rect id="button" ry="5" rx="5" y="6" x="6" height="38" width="38"
                fill="#f2f5e9" fill-opacity="0.5" stroke="#606060" stroke-width="1.0"/>
           <path id="arrow"
             d="M 11.500037,31.436501 C 11.940474,20.09759 22.043105,11.32322 32.158766,21.979434 L 37.068811,17.246167 C 37.068811,17.246167 37.088388,32 37.088388,32 L 22.160133,31.978069 C 22.160133,31.978069 26.997745,27.140456 26.997745,27.140456 C 18.528582,18.264221 13.291696,25.230495 11.500037,31.436501 z"
             style="fill:#404040;"/>
          </a>
         </g>
        </svg>
</svg>
