<?xml version="1.0" encoding="UTF-8" standalone="no"?>
<!DOCTYPE svg PUBLIC "-//W3C//DTD SVG 1.1//EN"
 "http://www.w3.org/Graphics/SVG/1.1/DTD/svg11.dtd">
<!-- Generated by graphviz version 2.38.0 (20140413.2041)
 -->
<!-- Title: MUTATOR_HOOKFUNCTION Pages: 1 -->
<!--zoomable 797 -->
<svg id="main" version="1.1" xmlns="http://www.w3.org/2000/svg" xmlns:xlink="http://www.w3.org/1999/xlink" xml:space="preserve" onload="init(evt)">
<style type="text/css"><![CDATA[
.edge:hover path { stroke: red; }
.edge:hover polygon { stroke: red; fill: red; }
]]></style>
<script type="text/javascript"><![CDATA[
var edges = document.getElementsByTagName('g');
if (edges && edges.length) {
  for (var i=0;i<edges.length;i++) {
    if (edges[i].id.substr(0,4)=='edge') {
      edges[i].setAttribute('class','edge');
    }
  }
}
]]></script>
        <defs>
                <circle id="rim" cx="0" cy="0" r="7"/>
                <circle id="rim2" cx="0" cy="0" r="3.5"/>
                <g id="zoomPlus">
                        <use xlink:href="#rim" fill="#404040">
                                <set attributeName="fill" to="#808080" begin="zoomplus.mouseover" end="zoomplus.mouseout"/>
                        </use>
                        <path d="M-4,0h8M0,-4v8" fill="none" stroke="white" stroke-width="1.5" pointer-events="none"/>
                </g>
                <g id="zoomMin">
                        <use xlink:href="#rim" fill="#404040">
                                <set attributeName="fill" to="#808080" begin="zoomminus.mouseover" end="zoomminus.mouseout"/>
                        </use>
                        <path d="M-4,0h8" fill="none" stroke="white" stroke-width="1.5" pointer-events="none"/>
                </g>
                <g id="dirArrow">
                        <path fill="none" stroke="white" stroke-width="1.5" d="M0,-3.0v7 M-2.5,-0.5L0,-3.0L2.5,-0.5"/>
                </g>
               <g id="resetDef">
                       <use xlink:href="#rim2" fill="#404040">
                               <set attributeName="fill" to="#808080" begin="reset.mouseover" end="reset.mouseout"/>
                       </use>
               </g>
        </defs>

<script type="text/javascript">
var viewWidth = 1234;
var viewHeight = 797;
var sectionId = 'dynsection-76';
</script>
<script xlink:href="../../svgpan.js"/>
<svg id="graph" class="graph">
<g id="viewport">
<title>MUTATOR_HOOKFUNCTION</title>
<!-- Node1 -->
<g id="node1" class="node"><title>Node1</title>
<polygon fill="#bfbfbf" stroke="black" points="0,-703.5 0,-722.5 145,-722.5 145,-703.5 0,-703.5"/>
<text text-anchor="middle" x="72.5" y="-710.5" font-family="Helvetica,sans-Serif" font-size="10.00">MUTATOR_HOOKFUNCTION</text>
</g>
<!-- Node2 -->
<g id="node2" class="node"><title>Node2</title>
<g id="a_node2"><a xlink:href="../../d4/d0c/csprogsdefs_8qc.html#acbb54a239d76062465dccbc6a6c6e464" target="_top" xlink:title="entity">
<polygon fill="none" stroke="black" points="1141.5,-291.5 1141.5,-310.5 1185.5,-310.5 1185.5,-291.5 1141.5,-291.5"/>
<text text-anchor="middle" x="1163.5" y="-298.5" font-family="Helvetica,sans-Serif" font-size="10.00">entity</text>
</a>
</g>
</g>
<!-- Node1&#45;&gt;Node2 -->
<g id="edge1" class="edge"><title>Node1&#45;&gt;Node2</title>
<path fill="none" stroke="midnightblue" d="M95.2984,-722.671C116.713,-731.796 150.518,-745.206 181,-753 288.693,-780.536 317.342,-789 428.5,-789 428.5,-789 428.5,-789 795.5,-789 929.07,-789 988.532,-765.515 1065,-656 1150.98,-532.86 1005.52,-435.933 1101,-320 1108.45,-310.952 1120.12,-306.129 1131.3,-303.587"/>
<polygon fill="midnightblue" stroke="midnightblue" points="1132.05,-307.01 1141.3,-301.839 1130.84,-300.114 1132.05,-307.01"/>
</g>
<!-- Node3 -->
<g id="node3" class="node"><title>Node3</title>
<g id="a_node3"><a xlink:href="../../da/d2c/sv__keyhunt_8qc.html#ae96b15ad211db1ea8f4da4aca4347233" target="_top" xlink:title="havocbot_role_kh_defense">
<polygon fill="none" stroke="black" points="181,-294.5 181,-313.5 325,-313.5 325,-294.5 181,-294.5"/>
<text text-anchor="middle" x="253" y="-301.5" font-family="Helvetica,sans-Serif" font-size="10.00">havocbot_role_kh_defense</text>
</a>
</g>
</g>
<!-- Node1&#45;&gt;Node3 -->
<g id="edge2" class="edge"><title>Node1&#45;&gt;Node3</title>
<path fill="none" stroke="midnightblue" d="M77.7363,-703.293C100.884,-650.256 212.173,-395.255 243.675,-323.075"/>
<polygon fill="midnightblue" stroke="midnightblue" points="246.932,-324.363 247.724,-313.797 240.516,-321.563 246.932,-324.363"/>
</g>
<!-- Node8 -->
<g id="node8" class="node"><title>Node8</title>
<g id="a_node8"><a xlink:href="../../da/d2c/sv__keyhunt_8qc.html#ab5a5bdb816a9263865ef7cdcd0e517d1" target="_top" xlink:title="havocbot_role_kh_freelancer">
<polygon fill="none" stroke="black" points="534,-290.5 534,-309.5 688,-309.5 688,-290.5 534,-290.5"/>
<text text-anchor="middle" x="611" y="-297.5" font-family="Helvetica,sans-Serif" font-size="10.00">havocbot_role_kh_freelancer</text>
</a>
</g>
</g>
<!-- Node1&#45;&gt;Node8 -->
<g id="edge43" class="edge"><title>Node1&#45;&gt;Node8</title>
<path fill="none" stroke="midnightblue" d="M85.9719,-703.399C156.093,-649.42 501.222,-383.738 589.438,-315.829"/>
<polygon fill="midnightblue" stroke="midnightblue" points="591.807,-318.422 597.596,-309.548 587.537,-312.875 591.807,-318.422"/>
</g>
<!-- Node9 -->
<g id="node9" class="node"><title>Node9</title>
<g id="a_node9"><a xlink:href="../../da/d2c/sv__keyhunt_8qc.html#a05fc29853c73faa635782df0536b3812" target="_top" xlink:title="havocbot_role_kh_offense">
<polygon fill="none" stroke="black" points="724,-247.5 724,-266.5 865,-266.5 865,-247.5 724,-247.5"/>
<text text-anchor="middle" x="794.5" y="-254.5" font-family="Helvetica,sans-Serif" font-size="10.00">havocbot_role_kh_offense</text>
</a>
</g>
</g>
<!-- Node1&#45;&gt;Node9 -->
<g id="edge44" class="edge"><title>Node1&#45;&gt;Node9</title>
<path fill="none" stroke="midnightblue" d="M74.5936,-703.351C81.3072,-645.766 118.722,-347.862 181,-285 338.673,-125.849 651.066,-209.454 757.218,-244.234"/>
<polygon fill="midnightblue" stroke="midnightblue" points="756.241,-247.598 766.835,-247.438 758.454,-240.957 756.241,-247.598"/>
</g>
<!-- Node16 -->
<g id="node16" class="node"><title>Node16</title>
<g id="a_node16"><a xlink:href="../../d8/de2/menudefs_8qc.html#a663ea6aa3c4923b3e065cf91cc319f1b" target="_top" xlink:title="random">
<polygon fill="none" stroke="black" points="956,-627.5 956,-646.5 1010,-646.5 1010,-627.5 956,-627.5"/>
<text text-anchor="middle" x="983" y="-634.5" font-family="Helvetica,sans-Serif" font-size="10.00">random</text>
</a>
</g>
</g>
<!-- Node1&#45;&gt;Node16 -->
<g id="edge45" class="edge"><title>Node1&#45;&gt;Node16</title>
<path fill="none" stroke="midnightblue" d="M128.343,-722.54C197.923,-733.796 321.733,-751 428.5,-751 428.5,-751 428.5,-751 612,-751 746.028,-751 895.742,-681.837 955.393,-651.254"/>
<polygon fill="midnightblue" stroke="midnightblue" points="957.238,-654.239 964.499,-646.523 954.012,-648.027 957.238,-654.239"/>
</g>
<!-- Node4 -->
<g id="node4" class="node"><title>Node4</title>
<g id="a_node4"><a xlink:href="../../da/d2c/sv__keyhunt_8qc.html#ae955d4effbbc7642be80664ccb7fdaad" target="_top" xlink:title="havocbot_goalrating_kh">
<polygon fill="none" stroke="black" points="917.5,-291.5 917.5,-310.5 1048.5,-310.5 1048.5,-291.5 917.5,-291.5"/>
<text text-anchor="middle" x="983" y="-298.5" font-family="Helvetica,sans-Serif" font-size="10.00">havocbot_goalrating_kh</text>
</a>
</g>
</g>
<!-- Node3&#45;&gt;Node4 -->
<g id="edge3" class="edge"><title>Node3&#45;&gt;Node4</title>
<path fill="none" stroke="midnightblue" d="M292.864,-313.512C313.05,-317.971 338.201,-322.784 361,-325 434.596,-332.154 686.089,-341.665 865,-324 887.661,-321.763 912.45,-317.201 933.354,-312.727"/>
<polygon fill="midnightblue" stroke="midnightblue" points="934.261,-316.111 943.277,-310.547 932.759,-309.274 934.261,-316.111"/>
</g>
<!-- Node7 -->
<g id="node7" class="node"><title>Node7</title>
<g id="a_node7"><a xlink:href="../../da/d2c/sv__keyhunt_8qc.html#a2a698368f19c7c5ebf583513d0b51b4b" target="_top" xlink:title="havocbot_role_kh_carrier">
<polygon fill="none" stroke="black" points="361,-247.5 361,-266.5 498,-266.5 498,-247.5 361,-247.5"/>
<text text-anchor="middle" x="429.5" y="-254.5" font-family="Helvetica,sans-Serif" font-size="10.00">havocbot_role_kh_carrier</text>
</a>
</g>
</g>
<!-- Node3&#45;&gt;Node7 -->
<g id="edge7" class="edge"><title>Node3&#45;&gt;Node7</title>
<path fill="none" stroke="midnightblue" d="M289.313,-294.489C316.305,-287.219 353.726,-277.14 382.969,-269.263"/>
<polygon fill="midnightblue" stroke="midnightblue" points="384.195,-272.558 392.941,-266.578 382.375,-265.799 384.195,-272.558"/>
</g>
<!-- Node3&#45;&gt;Node8 -->
<g id="edge36" class="edge"><title>Node3&#45;&gt;Node8</title>
<path fill="none" stroke="midnightblue" d="M325.186,-297.674C382.251,-295.532 462.557,-294.509 523.356,-295.086"/>
<polygon fill="midnightblue" stroke="midnightblue" points="523.665,-298.589 533.703,-295.202 523.743,-291.59 523.665,-298.589"/>
</g>
<!-- Node10 -->
<g id="node10" class="node"><title>Node10</title>
<g id="a_node10"><a xlink:href="../../da/d2c/sv__keyhunt_8qc.html#a1acc2a31bfed7c384b5de6e4bc1e4c22" target="_top" xlink:title="kh_Key_AllOwnedByWhichTeam">
<polygon fill="none" stroke="black" points="901,-171.5 901,-190.5 1065,-190.5 1065,-171.5 901,-171.5"/>
<text text-anchor="middle" x="983" y="-178.5" font-family="Helvetica,sans-Serif" font-size="10.00">kh_Key_AllOwnedByWhichTeam</text>
</a>
</g>
</g>
<!-- Node3&#45;&gt;Node10 -->
<g id="edge37" class="edge"><title>Node3&#45;&gt;Node10</title>
<path fill="none" stroke="midnightblue" d="M258.906,-294.463C271.833,-270.457 309.414,-207.561 361,-181 560.631,-78.2123 642.828,-113.481 865,-146 893.508,-150.173 924.718,-159.777 947.728,-167.872"/>
<polygon fill="midnightblue" stroke="midnightblue" points="946.776,-171.248 957.37,-171.343 949.147,-164.662 946.776,-171.248"/>
</g>
<!-- Node12 -->
<g id="node12" class="node"><title>Node12</title>
<g id="a_node12"><a xlink:href="../../db/d15/api_8qh.html#ab6d01fa32a875613a62f92c12a06bddd" target="_top" xlink:title="navigation_goalrating_end">
<polygon fill="none" stroke="black" points="911.5,-0.5 911.5,-19.5 1054.5,-19.5 1054.5,-0.5 911.5,-0.5"/>
<text text-anchor="middle" x="983" y="-7.5" font-family="Helvetica,sans-Serif" font-size="10.00">navigation_goalrating_end</text>
</a>
</g>
</g>
<!-- Node3&#45;&gt;Node12 -->
<g id="edge38" class="edge"><title>Node3&#45;&gt;Node12</title>
<path fill="none" stroke="midnightblue" d="M256.799,-294.373C266.117,-264.089 299.055,-169.994 361,-123 521.864,-0.961639 772.876,3.93975 900.928,-2.897"/>
<polygon fill="midnightblue" stroke="midnightblue" points="900.873,-6.39949 911.056,-3.47618 901.272,0.589099 900.873,-6.39949"/>
</g>
<!-- Node13 -->
<g id="node13" class="node"><title>Node13</title>
<g id="a_node13"><a xlink:href="../../db/d15/api_8qh.html#a217f82a742f1066839797ec23d483547" target="_top" xlink:title="navigation_goalrating\l_start">
<polygon fill="none" stroke="black" points="923.5,-210 923.5,-240 1042.5,-240 1042.5,-210 923.5,-210"/>
<text text-anchor="start" x="931.5" y="-228" font-family="Helvetica,sans-Serif" font-size="10.00">navigation_goalrating</text>
<text text-anchor="middle" x="983" y="-217" font-family="Helvetica,sans-Serif" font-size="10.00">_start</text>
</a>
</g>
</g>
<!-- Node3&#45;&gt;Node13 -->
<g id="edge39" class="edge"><title>Node3&#45;&gt;Node13</title>
<path fill="none" stroke="midnightblue" d="M267.32,-294.482C287.054,-280.688 325.554,-254.941 361,-238 434.559,-202.843 453.64,-190.753 534,-177 549.224,-174.395 860.519,-176.725 865,-178 883.036,-183.13 883.909,-192.286 901,-200 906.03,-202.27 911.325,-204.412 916.699,-206.414"/>
<polygon fill="midnightblue" stroke="midnightblue" points="915.822,-209.816 926.416,-209.864 918.164,-203.22 915.822,-209.816"/>
</g>
<!-- Node14 -->
<g id="node14" class="node"><title>Node14</title>
<g id="a_node14"><a xlink:href="../../db/d15/api_8qh.html#a78fda59f169844ca11beb0f4fe2e1dbd" target="_top" xlink:title="navigation_goalrating\l_timeout">
<polygon fill="none" stroke="black" points="923.5,-375 923.5,-405 1042.5,-405 1042.5,-375 923.5,-375"/>
<text text-anchor="start" x="931.5" y="-393" font-family="Helvetica,sans-Serif" font-size="10.00">navigation_goalrating</text>
<text text-anchor="middle" x="983" y="-382" font-family="Helvetica,sans-Serif" font-size="10.00">_timeout</text>
</a>
</g>
</g>
<!-- Node3&#45;&gt;Node14 -->
<g id="edge40" class="edge"><title>Node3&#45;&gt;Node14</title>
<path fill="none" stroke="midnightblue" d="M274.81,-313.525C296.011,-322.761 330.077,-336.327 361,-343 558.233,-385.561 797.912,-391.046 913.343,-390.893"/>
<polygon fill="midnightblue" stroke="midnightblue" points="913.46,-394.393 923.45,-390.865 913.441,-387.393 913.46,-394.393"/>
</g>
<!-- Node15 -->
<g id="node15" class="node"><title>Node15</title>
<g id="a_node15"><a xlink:href="../../db/d15/api_8qh.html#a3ac8ce540ecde9fbb20e7fa61992e841" target="_top" xlink:title="navigation_goalrating\l_timeout_set">
<polygon fill="none" stroke="black" points="923.5,-489 923.5,-519 1042.5,-519 1042.5,-489 923.5,-489"/>
<text text-anchor="start" x="931.5" y="-507" font-family="Helvetica,sans-Serif" font-size="10.00">navigation_goalrating</text>
<text text-anchor="middle" x="983" y="-496" font-family="Helvetica,sans-Serif" font-size="10.00">_timeout_set</text>
</a>
</g>
</g>
<!-- Node3&#45;&gt;Node15 -->
<g id="edge41" class="edge"><title>Node3&#45;&gt;Node15</title>
<path fill="none" stroke="midnightblue" d="M266.763,-313.711C286.104,-327.957 324.465,-354.408 361,-369 552.708,-445.566 795.909,-482.326 912.929,-496.566"/>
<polygon fill="midnightblue" stroke="midnightblue" points="912.829,-500.079 923.175,-497.794 913.662,-493.129 912.829,-500.079"/>
</g>
<!-- Node3&#45;&gt;Node16 -->
<g id="edge42" class="edge"><title>Node3&#45;&gt;Node16</title>
<path fill="none" stroke="midnightblue" d="M261.874,-313.681C278.357,-333.388 318.501,-378.53 361,-405 564.093,-531.495 846.865,-605.54 945.969,-628.902"/>
<polygon fill="midnightblue" stroke="midnightblue" points="945.255,-632.329 955.789,-631.192 946.845,-625.512 945.255,-632.329"/>
</g>
<!-- Node4&#45;&gt;Node2 -->
<g id="edge4" class="edge"><title>Node4&#45;&gt;Node2</title>
<path fill="none" stroke="midnightblue" d="M1048.69,-301C1076.77,-301 1108.37,-301 1131.13,-301"/>
<polygon fill="midnightblue" stroke="midnightblue" points="1131.23,-304.5 1141.23,-301 1131.23,-297.5 1131.23,-304.5"/>
</g>
<!-- Node5 -->
<g id="node5" class="node"><title>Node5</title>
<g id="a_node5"><a xlink:href="../../d7/dd0/sv__onslaught_8qh.html#a3e9df5e35d2e1a1d92cb47e72b572d4a" target="_top" xlink:title="havocbot_goalrating\l_items">
<polygon fill="none" stroke="black" points="1106.5,-242 1106.5,-272 1220.5,-272 1220.5,-242 1106.5,-242"/>
<text text-anchor="start" x="1114.5" y="-260" font-family="Helvetica,sans-Serif" font-size="10.00">havocbot_goalrating</text>
<text text-anchor="middle" x="1163.5" y="-249" font-family="Helvetica,sans-Serif" font-size="10.00">_items</text>
</a>
</g>
</g>
<!-- Node4&#45;&gt;Node5 -->
<g id="edge5" class="edge"><title>Node4&#45;&gt;Node5</title>
<path fill="none" stroke="midnightblue" d="M1022.73,-291.453C1044.28,-286.142 1071.67,-279.388 1096.5,-273.27"/>
<polygon fill="midnightblue" stroke="midnightblue" points="1097.35,-276.664 1106.22,-270.872 1095.68,-269.867 1097.35,-276.664"/>
</g>
<!-- Node6 -->
<g id="node6" class="node"><title>Node6</title>
<g id="a_node6"><a xlink:href="../../db/d15/api_8qh.html#a956bb41e292b7dcbfaa013f178202584" target="_top" xlink:title="navigation_routerating">
<polygon fill="none" stroke="black" points="1101,-329.5 1101,-348.5 1226,-348.5 1226,-329.5 1101,-329.5"/>
<text text-anchor="middle" x="1163.5" y="-336.5" font-family="Helvetica,sans-Serif" font-size="10.00">navigation_routerating</text>
</a>
</g>
</g>
<!-- Node4&#45;&gt;Node6 -->
<g id="edge6" class="edge"><title>Node4&#45;&gt;Node6</title>
<path fill="none" stroke="midnightblue" d="M1029.04,-310.589C1053.02,-315.694 1082.7,-322.011 1107.97,-327.392"/>
<polygon fill="midnightblue" stroke="midnightblue" points="1107.27,-330.821 1117.78,-329.48 1108.73,-323.974 1107.27,-330.821"/>
</g>
<!-- Node7&#45;&gt;Node4 -->
<g id="edge8" class="edge"><title>Node7&#45;&gt;Node4</title>
<path fill="none" stroke="midnightblue" d="M471.728,-247.45C549.854,-231.041 724.244,-202.513 865,-238 901.177,-247.121 938.337,-269.859 960.801,-285.37"/>
<polygon fill="midnightblue" stroke="midnightblue" points="959.023,-288.4 969.209,-291.316 963.065,-282.684 959.023,-288.4"/>
</g>
<!-- Node7&#45;&gt;Node8 -->
<g id="edge9" class="edge"><title>Node7&#45;&gt;Node8</title>
<path fill="none" stroke="midnightblue" d="M497.594,-266.518C525.746,-272.767 557.079,-280.718 579.498,-287.473"/>
<polygon fill="midnightblue" stroke="midnightblue" points="578.538,-290.84 589.127,-290.481 580.626,-284.158 578.538,-290.84"/>
</g>
<!-- Node7&#45;&gt;Node10 -->
<g id="edge31" class="edge"><title>Node7&#45;&gt;Node10</title>
<path fill="none" stroke="midnightblue" d="M438.683,-247.423C454.757,-229.441 492.519,-191.162 534,-177 670.162,-130.511 843.459,-153.295 929.131,-169.514"/>
<polygon fill="midnightblue" stroke="midnightblue" points="928.653,-172.986 939.136,-171.454 929.986,-166.114 928.653,-172.986"/>
</g>
<!-- Node7&#45;&gt;Node12 -->
<g id="edge32" class="edge"><title>Node7&#45;&gt;Node12</title>
<path fill="none" stroke="midnightblue" d="M436.798,-247.487C451.344,-226.254 489.464,-174.693 534,-147 651.455,-73.9652 810.549,-37.5081 904.135,-21.2608"/>
<polygon fill="midnightblue" stroke="midnightblue" points="904.828,-24.6932 914.099,-19.5644 903.653,-17.7925 904.828,-24.6932"/>
</g>
<!-- Node7&#45;&gt;Node13 -->
<g id="edge33" class="edge"><title>Node7&#45;&gt;Node13</title>
<path fill="none" stroke="midnightblue" d="M464.027,-247.436C475.167,-243.648 487.42,-238.798 498,-233 515.775,-223.259 514.827,-211.578 534,-205 664.117,-160.356 828.036,-186.866 917.113,-207.576"/>
<polygon fill="midnightblue" stroke="midnightblue" points="916.534,-211.036 927.072,-209.94 918.151,-204.225 916.534,-211.036"/>
</g>
<!-- Node7&#45;&gt;Node14 -->
<g id="edge34" class="edge"><title>Node7&#45;&gt;Node14</title>
<path fill="none" stroke="midnightblue" d="M443.169,-266.51C461.989,-280.178 498.898,-305.24 534,-319 661.778,-369.091 823.214,-383.886 913.257,-388.227"/>
<polygon fill="midnightblue" stroke="midnightblue" points="913.196,-391.728 923.344,-388.684 913.513,-384.735 913.196,-391.728"/>
</g>
<!-- Node7&#45;&gt;Node15 -->
<g id="edge35" class="edge"><title>Node7&#45;&gt;Node15</title>
<path fill="none" stroke="midnightblue" d="M438.034,-266.52C453.825,-285.873 492.39,-330.08 534,-355 657.359,-428.877 822.021,-471.471 913.454,-490.965"/>
<polygon fill="midnightblue" stroke="midnightblue" points="912.916,-494.429 923.422,-493.061 914.356,-487.578 912.916,-494.429"/>
</g>
<!-- Node8&#45;&gt;Node3 -->
<g id="edge12" class="edge"><title>Node8&#45;&gt;Node3</title>
<path fill="none" stroke="midnightblue" d="M533.703,-306.513C475.305,-308.588 394.926,-309.53 335.315,-308.859"/>
<polygon fill="midnightblue" stroke="midnightblue" points="335.231,-305.358 325.186,-308.726 335.14,-312.357 335.231,-305.358"/>
</g>
<!-- Node8&#45;&gt;Node4 -->
<g id="edge10" class="edge"><title>Node8&#45;&gt;Node4</title>
<path fill="none" stroke="midnightblue" d="M688.163,-306.945C700.146,-307.8 712.403,-308.535 724,-309 786.616,-311.512 802.37,-311.139 865,-309 878.672,-308.533 893.227,-307.76 907.26,-306.874"/>
<polygon fill="midnightblue" stroke="midnightblue" points="907.616,-310.358 917.366,-306.212 907.158,-303.373 907.616,-310.358"/>
</g>
<!-- Node8&#45;&gt;Node7 -->
<g id="edge11" class="edge"><title>Node8&#45;&gt;Node7</title>
<path fill="none" stroke="midnightblue" d="M542.896,-290.48C514.776,-284.237 483.482,-276.297 461.071,-269.548"/>
<polygon fill="midnightblue" stroke="midnightblue" points="462.031,-266.181 451.442,-266.541 459.944,-272.863 462.031,-266.181"/>
</g>
<!-- Node8&#45;&gt;Node9 -->
<g id="edge13" class="edge"><title>Node8&#45;&gt;Node9</title>
<path fill="none" stroke="midnightblue" d="M633.176,-290.459C653.507,-283.915 685.482,-275.617 715.545,-268.779"/>
<polygon fill="midnightblue" stroke="midnightblue" points="716.653,-272.118 725.648,-266.52 715.125,-265.286 716.653,-272.118"/>
</g>
<!-- Node8&#45;&gt;Node10 -->
<g id="edge25" class="edge"><title>Node8&#45;&gt;Node10</title>
<path fill="none" stroke="midnightblue" d="M626.203,-290.366C646.858,-276.777 686.789,-252.071 724,-238 782.427,-215.907 851.695,-201.19 903.74,-192.253"/>
<polygon fill="midnightblue" stroke="midnightblue" points="904.631,-195.652 913.911,-190.542 903.469,-188.749 904.631,-195.652"/>
</g>
<!-- Node8&#45;&gt;Node12 -->
<g id="edge26" class="edge"><title>Node8&#45;&gt;Node12</title>
<path fill="none" stroke="midnightblue" d="M621.52,-290.396C640.395,-271.529 684.184,-228.628 724,-196 807.083,-127.915 912.875,-55.9021 958.889,-25.2451"/>
<polygon fill="midnightblue" stroke="midnightblue" points="960.877,-28.1266 967.271,-19.6785 957.004,-22.2956 960.877,-28.1266"/>
</g>
<!-- Node8&#45;&gt;Node13 -->
<g id="edge27" class="edge"><title>Node8&#45;&gt;Node13</title>
<path fill="none" stroke="midnightblue" d="M688.08,-299.029C738.882,-296.866 806.796,-291.037 865,-276 892.783,-268.822 922.397,-255.856 944.88,-244.794"/>
<polygon fill="midnightblue" stroke="midnightblue" points="946.684,-247.805 954.053,-240.192 943.545,-241.548 946.684,-247.805"/>
</g>
<!-- Node8&#45;&gt;Node14 -->
<g id="edge28" class="edge"><title>Node8&#45;&gt;Node14</title>
<path fill="none" stroke="midnightblue" d="M651.246,-309.546C713.633,-324.721 836.242,-354.545 913.386,-373.31"/>
<polygon fill="midnightblue" stroke="midnightblue" points="912.949,-376.806 923.492,-375.768 914.603,-370.004 912.949,-376.806"/>
</g>
<!-- Node8&#45;&gt;Node15 -->
<g id="edge29" class="edge"><title>Node8&#45;&gt;Node15</title>
<path fill="none" stroke="midnightblue" d="M629.35,-309.566C686.188,-340.904 867.608,-440.93 945.693,-483.982"/>
<polygon fill="midnightblue" stroke="midnightblue" points="944.24,-487.178 954.687,-488.941 947.62,-481.048 944.24,-487.178"/>
</g>
<!-- Node8&#45;&gt;Node16 -->
<g id="edge30" class="edge"><title>Node8&#45;&gt;Node16</title>
<path fill="none" stroke="midnightblue" d="M620.709,-309.618C639.174,-329.876 683.861,-378.183 724,-416 809.518,-496.571 918.179,-585.578 962.174,-621.097"/>
<polygon fill="midnightblue" stroke="midnightblue" points="960.102,-623.922 970.085,-627.47 964.493,-618.471 960.102,-623.922"/>
</g>
<!-- Node9&#45;&gt;Node4 -->
<g id="edge14" class="edge"><title>Node9&#45;&gt;Node4</title>
<path fill="none" stroke="midnightblue" d="M835.968,-266.547C864.073,-273.178 901.716,-282.059 931.744,-289.143"/>
<polygon fill="midnightblue" stroke="midnightblue" points="931.075,-292.581 941.611,-291.471 932.682,-285.769 931.075,-292.581"/>
</g>
<!-- Node9&#45;&gt;Node7 -->
<g id="edge15" class="edge"><title>Node9&#45;&gt;Node7</title>
<path fill="none" stroke="midnightblue" d="M723.818,-257C662.187,-257 572.374,-257 508.391,-257"/>
<polygon fill="midnightblue" stroke="midnightblue" points="508.352,-253.5 498.352,-257 508.352,-260.5 508.352,-253.5"/>
</g>
<!-- Node9&#45;&gt;Node8 -->
<g id="edge16" class="edge"><title>Node9&#45;&gt;Node8</title>
<path fill="none" stroke="midnightblue" d="M772.395,-266.519C752.067,-273.066 720.054,-281.374 689.956,-288.221"/>
<polygon fill="midnightblue" stroke="midnightblue" points="688.837,-284.885 679.842,-290.482 690.365,-291.716 688.837,-284.885"/>
</g>
<!-- Node9&#45;&gt;Node10 -->
<g id="edge17" class="edge"><title>Node9&#45;&gt;Node10</title>
<path fill="none" stroke="midnightblue" d="M810.273,-247.376C830.146,-234.82 866.94,-212.932 901,-200 907.777,-197.427 915.01,-195.132 922.26,-193.106"/>
<polygon fill="midnightblue" stroke="midnightblue" points="923.337,-196.442 932.115,-190.508 921.553,-189.673 923.337,-196.442"/>
</g>
<!-- Node9&#45;&gt;Node12 -->
<g id="edge20" class="edge"><title>Node9&#45;&gt;Node12</title>
<path fill="none" stroke="midnightblue" d="M802.811,-247.317C830.897,-210.12 932.116,-76.0668 968.694,-27.6225"/>
<polygon fill="midnightblue" stroke="midnightblue" points="971.507,-29.7054 974.74,-19.6158 965.92,-25.4873 971.507,-29.7054"/>
</g>
<!-- Node9&#45;&gt;Node13 -->
<g id="edge21" class="edge"><title>Node9&#45;&gt;Node13</title>
<path fill="none" stroke="midnightblue" d="M850.951,-247.486C870.513,-244.129 892.747,-240.314 913.274,-236.792"/>
<polygon fill="midnightblue" stroke="midnightblue" points="913.93,-240.231 923.194,-235.09 912.746,-233.332 913.93,-240.231"/>
</g>
<!-- Node9&#45;&gt;Node14 -->
<g id="edge22" class="edge"><title>Node9&#45;&gt;Node14</title>
<path fill="none" stroke="midnightblue" d="M808.913,-266.565C838.777,-287.862 911.347,-339.615 952.409,-368.897"/>
<polygon fill="midnightblue" stroke="midnightblue" points="950.492,-371.829 960.666,-374.786 954.556,-366.13 950.492,-371.829"/>
</g>
<!-- Node9&#45;&gt;Node15 -->
<g id="edge23" class="edge"><title>Node9&#45;&gt;Node15</title>
<path fill="none" stroke="midnightblue" d="M801.241,-266.522C816.438,-291.5 859.404,-360.651 901,-414 919.719,-438.008 943.181,-463.655 960.029,-481.404"/>
<polygon fill="midnightblue" stroke="midnightblue" points="957.823,-484.161 967.264,-488.968 962.882,-479.322 957.823,-484.161"/>
</g>
<!-- Node9&#45;&gt;Node16 -->
<g id="edge24" class="edge"><title>Node9&#45;&gt;Node16</title>
<path fill="none" stroke="midnightblue" d="M798.263,-266.774C808.683,-302.888 847.734,-431.684 901,-528 920.254,-562.816 949.32,-599.095 966.897,-619.779"/>
<polygon fill="midnightblue" stroke="midnightblue" points="964.276,-622.099 973.451,-627.396 969.581,-617.533 964.276,-622.099"/>
</g>
<!-- Node10&#45;&gt;Node2 -->
<g id="edge18" class="edge"><title>Node10&#45;&gt;Node2</title>
<path fill="none" stroke="midnightblue" d="M1049.38,-190.524C1055.01,-193.021 1060.33,-196.131 1065,-200 1095.35,-225.122 1071.74,-254.626 1101,-281 1109.41,-288.576 1120.73,-293.286 1131.36,-296.214"/>
<polygon fill="midnightblue" stroke="midnightblue" points="1130.7,-299.653 1141.23,-298.509 1132.29,-292.835 1130.7,-299.653"/>
</g>
<!-- Node11 -->
<g id="node11" class="node"><title>Node11</title>
<g id="a_node11"><a xlink:href="../../d5/d14/scores__rules_8qc.html#ae01e878023ee1a5ecc45cc3d62c3895f" target="_top" xlink:title="NumTeams">
<polygon fill="none" stroke="black" points="1128,-171.5 1128,-190.5 1199,-190.5 1199,-171.5 1128,-171.5"/>
<text text-anchor="middle" x="1163.5" y="-178.5" font-family="Helvetica,sans-Serif" font-size="10.00">NumTeams</text>
</a>
</g>
</g>
<!-- Node10&#45;&gt;Node11 -->
<g id="edge19" class="edge"><title>Node10&#45;&gt;Node11</title>
<path fill="none" stroke="midnightblue" d="M1065.15,-181C1083.29,-181 1101.87,-181 1117.87,-181"/>
<polygon fill="midnightblue" stroke="midnightblue" points="1117.98,-184.5 1127.98,-181 1117.98,-177.5 1117.98,-184.5"/>
</g>
</g>
</svg>
        <g id="navigator" transform="translate(0 0)" fill="#404254">
                <rect fill="#f2f5e9" fill-opacity="0.5" stroke="#606060" stroke-width=".5" x="0" y="0" width="60" height="60"/>
                <use id="zoomplus" xlink:href="#zoomPlus" x="17" y="9" onmousedown="handleZoom(evt,'in')"/>
                <use id="zoomminus" xlink:href="#zoomMin" x="42" y="9" onmousedown="handleZoom(evt,'out')"/>
                <use id="reset" xlink:href="#resetDef" x="30" y="36" onmousedown="handleReset()"/>
                <g id="arrowUp" xlink:href="#dirArrow" transform="translate(30 24)" onmousedown="handlePan(0,-1)">
                  <use xlink:href="#rim" fill="#404040">
                        <set attributeName="fill" to="#808080" begin="arrowUp.mouseover" end="arrowUp.mouseout"/>
                  </use>
                  <path fill="none" stroke="white" stroke-width="1.5" d="M0,-3.0v7 M-2.5,-0.5L0,-3.0L2.5,-0.5"/>
                </g>
                <g id="arrowRight" xlink:href="#dirArrow" transform="rotate(90) translate(36 -43)" onmousedown="handlePan(1,0)">
                  <use xlink:href="#rim" fill="#404040">
                        <set attributeName="fill" to="#808080" begin="arrowRight.mouseover" end="arrowRight.mouseout"/>
                  </use>
                  <path fill="none" stroke="white" stroke-width="1.5" d="M0,-3.0v7 M-2.5,-0.5L0,-3.0L2.5,-0.5"/>
                </g>
                <g id="arrowDown" xlink:href="#dirArrow" transform="rotate(180) translate(-30 -48)" onmousedown="handlePan(0,1)">
                  <use xlink:href="#rim" fill="#404040">
                        <set attributeName="fill" to="#808080" begin="arrowDown.mouseover" end="arrowDown.mouseout"/>
                  </use>
                  <path fill="none" stroke="white" stroke-width="1.5" d="M0,-3.0v7 M-2.5,-0.5L0,-3.0L2.5,-0.5"/>
                </g>
                <g id="arrowLeft" xlink:href="#dirArrow" transform="rotate(270) translate(-36 17)" onmousedown="handlePan(-1,0)">
                  <use xlink:href="#rim" fill="#404040">
                        <set attributeName="fill" to="#808080" begin="arrowLeft.mouseover" end="arrowLeft.mouseout"/>
                  </use>
                  <path fill="none" stroke="white" stroke-width="1.5" d="M0,-3.0v7 M-2.5,-0.5L0,-3.0L2.5,-0.5"/>
                </g>
        </g>
        <svg viewBox="0 0 15 15" width="100%" height="30px" preserveAspectRatio="xMaxYMin meet">
         <g id="arrow_out" transform="scale(0.3 0.3)">
          <a xlink:href="sv__keyhunt_8qc_a99489a4e3940f96c042720774c32948d_cgraph_org.svg" target="_base">
           <rect id="button" ry="5" rx="5" y="6" x="6" height="38" width="38"
                fill="#f2f5e9" fill-opacity="0.5" stroke="#606060" stroke-width="1.0"/>
           <path id="arrow"
             d="M 11.500037,31.436501 C 11.940474,20.09759 22.043105,11.32322 32.158766,21.979434 L 37.068811,17.246167 C 37.068811,17.246167 37.088388,32 37.088388,32 L 22.160133,31.978069 C 22.160133,31.978069 26.997745,27.140456 26.997745,27.140456 C 18.528582,18.264221 13.291696,25.230495 11.500037,31.436501 z"
             style="fill:#404040;"/>
          </a>
         </g>
        </svg>
</svg>
