<?xml version="1.0" encoding="UTF-8" standalone="no"?>
<!DOCTYPE svg PUBLIC "-//W3C//DTD SVG 1.1//EN"
 "http://www.w3.org/Graphics/SVG/1.1/DTD/svg11.dtd">
<!-- Generated by graphviz version 2.40.1 (20161225.0304)
 -->
<!-- Title: XonoticTabController_makeTabButton_T Pages: 1 -->
<svg width="368pt" height="81pt"
 viewBox="0.00 0.00 368.00 80.71" xmlns="http://www.w3.org/2000/svg" xmlns:xlink="http://www.w3.org/1999/xlink">
<g id="graph0" class="graph" transform="scale(1 1) rotate(0) translate(4 76.7123)">
<title>XonoticTabController_makeTabButton_T</title>
<!-- Node15 -->
<g id="node1" class="node">
<title>Node15</title>
<polygon fill="#bfbfbf" stroke="#000000" points="0,-33 0,-63 118,-63 118,-33 0,-33"/>
<text text-anchor="start" x="8" y="-51" font-family="Helvetica,sans-Serif" font-size="10.00" fill="#000000">XonoticTabController</text>
<text text-anchor="middle" x="59" y="-40" font-family="Helvetica,sans-Serif" font-size="10.00" fill="#000000">_makeTabButton_T</text>
</g>
<!-- Node16 -->
<g id="node2" class="node">
<title>Node16</title>
<g id="a_node2"><a xlink:href="../../d4/d0c/csprogsdefs_8qc.html#acbb54a239d76062465dccbc6a6c6e464" target="_top" xlink:title="entity">
<polygon fill="none" stroke="#000000" points="315,-38.5 315,-57.5 360,-57.5 360,-38.5 315,-38.5"/>
<text text-anchor="middle" x="337.5" y="-45.5" font-family="Helvetica,sans-Serif" font-size="10.00" fill="#000000">entity</text>
</a>
</g>
</g>
<!-- Node15&#45;&gt;Node16 -->
<g id="edge1" class="edge">
<title>Node15&#45;&gt;Node16</title>
<path fill="none" stroke="#191970" d="M118.0204,-61.6778C129.8715,-63.8935 142.2835,-65.8398 154,-67 209.2852,-72.4743 224.1279,-75.6875 279,-67 287.7179,-65.6198 296.9047,-63.1501 305.3489,-60.4384"/>
<polygon fill="#191970" stroke="#191970" points="306.5154,-63.7385 314.8478,-57.1946 304.2533,-57.1141 306.5154,-63.7385"/>
</g>
<!-- Node17 -->
<g id="node3" class="node">
<title>Node17</title>
<g id="a_node3"><a xlink:href="../../d8/de2/menudefs_8qc.html#a56b53595c8aa15ca107c03896db91fd2" target="_top" xlink:title="error">
<polygon fill="none" stroke="#000000" points="196.5,-38.5 196.5,-57.5 236.5,-57.5 236.5,-38.5 196.5,-38.5"/>
<text text-anchor="middle" x="216.5" y="-45.5" font-family="Helvetica,sans-Serif" font-size="10.00" fill="#000000">error</text>
</a>
</g>
</g>
<!-- Node15&#45;&gt;Node17 -->
<g id="edge2" class="edge">
<title>Node15&#45;&gt;Node17</title>
<path fill="none" stroke="#191970" d="M118.0953,-48C141.3684,-48 167.0881,-48 186.395,-48"/>
<polygon fill="#191970" stroke="#191970" points="186.4051,-51.5001 196.4051,-48 186.405,-44.5001 186.4051,-51.5001"/>
</g>
<!-- Node18 -->
<g id="node4" class="node">
<title>Node18</title>
<g id="a_node4"><a xlink:href="../../df/d28/menu_2xonotic_2button_8qc.html#a72620f04a2403e2eb73a5f210a9c60eb" target="_top" xlink:title="makeXonoticButton_T">
<polygon fill="none" stroke="#000000" points="154,-.5 154,-19.5 279,-19.5 279,-.5 154,-.5"/>
<text text-anchor="middle" x="216.5" y="-7.5" font-family="Helvetica,sans-Serif" font-size="10.00" fill="#000000">makeXonoticButton_T</text>
</a>
</g>
</g>
<!-- Node15&#45;&gt;Node18 -->
<g id="edge3" class="edge">
<title>Node15&#45;&gt;Node18</title>
<path fill="none" stroke="#191970" d="M118.0953,-33.7421C134.1344,-29.8723 151.3355,-25.7222 166.7988,-21.9914"/>
<polygon fill="#191970" stroke="#191970" points="167.7796,-25.3553 176.6798,-19.6074 166.1378,-18.5505 167.7796,-25.3553"/>
</g>
<!-- Node18&#45;&gt;Node16 -->
<g id="edge4" class="edge">
<title>Node18&#45;&gt;Node16</title>
<path fill="none" stroke="#191970" d="M248.3312,-19.5497C258.1752,-22.5371 269.0465,-25.871 279,-29 287.4934,-31.67 296.6596,-34.6162 305.1594,-37.3754"/>
<polygon fill="#191970" stroke="#191970" points="304.1588,-40.7304 314.7511,-40.5009 306.3275,-34.0749 304.1588,-40.7304"/>
</g>
</g>
</svg>
