<?xml version="1.0" encoding="UTF-8" standalone="no"?>
<!DOCTYPE svg PUBLIC "-//W3C//DTD SVG 1.1//EN"
 "http://www.w3.org/Graphics/SVG/1.1/DTD/svg11.dtd">
<!-- Generated by graphviz version 2.36.0 (20140111.2315)
 -->
<!-- Title: _Movetype_Physics_ClientFrame Pages: 1 -->
<!--zoomable 737 -->
<svg id="main" version="1.1" xmlns="http://www.w3.org/2000/svg" xmlns:xlink="http://www.w3.org/1999/xlink" xml:space="preserve" onload="init(evt)">
<style type="text/css"><![CDATA[
.edge:hover path { stroke: red; }
.edge:hover polygon { stroke: red; fill: red; }
]]></style>
<script type="text/javascript"><![CDATA[
var edges = document.getElementsByTagName('g');
if (edges && edges.length) {
  for (var i=0;i<edges.length;i++) {
    if (edges[i].id.substr(0,4)=='edge') {
      edges[i].setAttribute('class','edge');
    }
  }
}
]]></script>
        <defs>
                <circle id="rim" cx="0" cy="0" r="7"/>
                <circle id="rim2" cx="0" cy="0" r="3.5"/>
                <g id="zoomPlus">
                        <use xlink:href="#rim" fill="#404040">
                                <set attributeName="fill" to="#808080" begin="zoomplus.mouseover" end="zoomplus.mouseout"/>
                        </use>
                        <path d="M-4,0h8M0,-4v8" fill="none" stroke="white" stroke-width="1.5" pointer-events="none"/>
                </g>
                <g id="zoomMin">
                        <use xlink:href="#rim" fill="#404040">
                                <set attributeName="fill" to="#808080" begin="zoomminus.mouseover" end="zoomminus.mouseout"/>
                        </use>
                        <path d="M-4,0h8" fill="none" stroke="white" stroke-width="1.5" pointer-events="none"/>
                </g>
                <g id="dirArrow">
                        <path fill="none" stroke="white" stroke-width="1.5" d="M0,-3.0v7 M-2.5,-0.5L0,-3.0L2.5,-0.5"/>
                </g>
               <g id="resetDef">
                       <use xlink:href="#rim2" fill="#404040">
                               <set attributeName="fill" to="#808080" begin="reset.mouseover" end="reset.mouseout"/>
                       </use>
               </g>
        </defs>

<script type="text/javascript">
var viewWidth = 994;
var viewHeight = 737;
var sectionId = 'dynsection-14';
</script>
<script xlink:href="../../svgpan.js"/>
<svg id="graph" class="graph">
<g id="viewport">
<title>_Movetype_Physics_ClientFrame</title>
<!-- Node1 -->
<g id="node1" class="node"><title>Node1</title>
<polygon fill="#bfbfbf" stroke="black" points="0,-318 0,-348 136,-348 136,-318 0,-318"/>
<text text-anchor="start" x="8" y="-336" font-family="Helvetica,sans-Serif" font-size="10.00">_Movetype_Physics_Client</text>
<text text-anchor="middle" x="68" y="-325" font-family="Helvetica,sans-Serif" font-size="10.00">Frame</text>
</g>
<!-- Node2 -->
<g id="node2" class="node"><title>Node2</title>
<g id="a_node2"><a xlink:href="../../d2/db1/movetypes_8qc.html#a14cb5c9b8cf5efc10f5e55f9ae63b556" target="_top" xlink:title="_Movetype_CheckWater">
<polygon fill="none" stroke="black" points="363.5,-228.5 363.5,-247.5 488.5,-247.5 488.5,-228.5 363.5,-228.5"/>
<text text-anchor="middle" x="426" y="-235.5" font-family="Helvetica,sans-Serif" font-size="10.00">_Movetype_CheckWater</text>
</a>
</g>
</g>
<!-- Node1&#45;&gt;Node2 -->
<g id="edge1" class="edge"><title>Node1&#45;&gt;Node2</title>
<path fill="none" stroke="midnightblue" d="M106.27,-317.899C125.664,-310.387 149.884,-301.54 172,-295 236.562,-275.908 312.021,-259.672 363.619,-249.47"/>
<polygon fill="midnightblue" stroke="midnightblue" points="364.47,-252.87 373.61,-247.511 363.123,-246.001 364.47,-252.87"/>
</g>
<!-- Node4 -->
<g id="node4" class="node"><title>Node4</title>
<g id="a_node4"><a xlink:href="../../d2/db1/movetypes_8qc.html#a1c681fcc84c5196534b06c2430e184ee" target="_top" xlink:title="_Movetype_LinkEdict">
<polygon fill="none" stroke="black" points="566,-570.5 566,-589.5 676,-589.5 676,-570.5 566,-570.5"/>
<text text-anchor="middle" x="621" y="-577.5" font-family="Helvetica,sans-Serif" font-size="10.00">_Movetype_LinkEdict</text>
</a>
</g>
</g>
<!-- Node1&#45;&gt;Node4 -->
<g id="edge3" class="edge"><title>Node1&#45;&gt;Node4</title>
<path fill="none" stroke="midnightblue" d="M78.8311,-348.322C110.198,-395.587 213.422,-539 342,-590 379.44,-604.85 486.108,-596.104 555.899,-588.206"/>
<polygon fill="midnightblue" stroke="midnightblue" points="556.383,-591.673 565.916,-587.049 555.58,-584.719 556.383,-591.673"/>
</g>
<!-- Node9 -->
<g id="node9" class="node"><title>Node9</title>
<g id="a_node9"><a xlink:href="../../d3/d45/physics_2movetypes_2follow_8qc.html#a205b11844120bb8f225d7479e7e38023" target="_top" xlink:title="_Movetype_Physics_Follow">
<polygon fill="none" stroke="black" points="356.5,-646.5 356.5,-665.5 495.5,-665.5 495.5,-646.5 356.5,-646.5"/>
<text text-anchor="middle" x="426" y="-653.5" font-family="Helvetica,sans-Serif" font-size="10.00">_Movetype_Physics_Follow</text>
</a>
</g>
</g>
<!-- Node1&#45;&gt;Node9 -->
<g id="edge9" class="edge"><title>Node1&#45;&gt;Node9</title>
<path fill="none" stroke="midnightblue" d="M68.9469,-348.283C69.684,-398.469 79.4584,-559.162 172,-632 227.159,-675.415 311.475,-674.137 367.403,-666.949"/>
<polygon fill="midnightblue" stroke="midnightblue" points="368.078,-670.388 377.502,-665.547 367.116,-663.455 368.078,-670.388"/>
</g>
<!-- Node11 -->
<g id="node11" class="node"><title>Node11</title>
<g id="a_node11"><a xlink:href="../../d9/d61/step_8qc.html#a0a14f8cfdb8ee1552e28910ad5121bd8" target="_top" xlink:title="_Movetype_Physics_Step">
<polygon fill="none" stroke="black" points="173.5,-304.5 173.5,-323.5 304.5,-323.5 304.5,-304.5 173.5,-304.5"/>
<text text-anchor="middle" x="239" y="-311.5" font-family="Helvetica,sans-Serif" font-size="10.00">_Movetype_Physics_Step</text>
</a>
</g>
</g>
<!-- Node1&#45;&gt;Node11 -->
<g id="edge13" class="edge"><title>Node1&#45;&gt;Node11</title>
<path fill="none" stroke="midnightblue" d="M136.279,-325.436C145.174,-324.436 154.334,-323.406 163.344,-322.393"/>
<polygon fill="midnightblue" stroke="midnightblue" points="163.883,-325.855 173.429,-321.259 163.101,-318.899 163.883,-325.855"/>
</g>
<!-- Node22 -->
<g id="node22" class="node"><title>Node22</title>
<g id="a_node22"><a xlink:href="../../dc/d7e/toss_8qc.html#ad040ac65da399e22d3850e1c1268984c" target="_top" xlink:title="_Movetype_Physics_Toss">
<polygon fill="none" stroke="black" points="173,-133.5 173,-152.5 305,-152.5 305,-133.5 173,-133.5"/>
<text text-anchor="middle" x="239" y="-140.5" font-family="Helvetica,sans-Serif" font-size="10.00">_Movetype_Physics_Toss</text>
</a>
</g>
</g>
<!-- Node1&#45;&gt;Node22 -->
<g id="edge27" class="edge"><title>Node1&#45;&gt;Node22</title>
<path fill="none" stroke="midnightblue" d="M82.5443,-317.773C113.58,-282.881 189.683,-197.32 222.512,-160.413"/>
<polygon fill="midnightblue" stroke="midnightblue" points="225.496,-162.324 229.527,-152.526 220.266,-157.672 225.496,-162.324"/>
</g>
<!-- Node28 -->
<g id="node28" class="node"><title>Node28</title>
<g id="a_node28"><a xlink:href="../../de/d57/walk_8qc.html#a3b19a847af98335e060aba36c450a6b1" target="_top" xlink:title="_Movetype_Physics_Walk">
<polygon fill="none" stroke="black" points="172.5,-342.5 172.5,-361.5 305.5,-361.5 305.5,-342.5 172.5,-342.5"/>
<text text-anchor="middle" x="239" y="-349.5" font-family="Helvetica,sans-Serif" font-size="10.00">_Movetype_Physics_Walk</text>
</a>
</g>
</g>
<!-- Node1&#45;&gt;Node28 -->
<g id="edge40" class="edge"><title>Node1&#45;&gt;Node28</title>
<path fill="none" stroke="midnightblue" d="M136.279,-340.564C144.813,-341.523 153.593,-342.51 162.248,-343.484"/>
<polygon fill="midnightblue" stroke="midnightblue" points="162.002,-346.978 172.33,-344.617 162.784,-340.022 162.002,-346.978"/>
</g>
<!-- Node3 -->
<g id="node3" class="node"><title>Node3</title>
<g id="a_node3"><a xlink:href="../../d4/d0c/csprogsdefs_8qc.html#a4f0b78b1785821ba47129edb68e70f9e" target="_top" xlink:title="vector">
<polygon fill="none" stroke="black" points="927,-266.5 927,-285.5 971,-285.5 971,-266.5 927,-266.5"/>
<text text-anchor="middle" x="949" y="-273.5" font-family="Helvetica,sans-Serif" font-size="10.00">vector</text>
</a>
</g>
</g>
<!-- Node2&#45;&gt;Node3 -->
<g id="edge2" class="edge"><title>Node2&#45;&gt;Node3</title>
<path fill="none" stroke="midnightblue" d="M488.606,-238.595C575.348,-240.045 738.287,-245.014 876,-262 889.428,-263.656 904.113,-266.349 916.697,-268.933"/>
<polygon fill="midnightblue" stroke="midnightblue" points="916.192,-272.404 926.701,-271.053 917.643,-265.556 916.192,-272.404"/>
</g>
<!-- Node4&#45;&gt;Node3 -->
<g id="edge8" class="edge"><title>Node4&#45;&gt;Node3</title>
<path fill="none" stroke="midnightblue" d="M641.834,-589.637C688.452,-610.741 806.304,-654.87 876,-599 924.003,-560.519 942.08,-360.356 946.706,-295.971"/>
<polygon fill="midnightblue" stroke="midnightblue" points="950.225,-295.815 947.418,-285.599 943.241,-295.336 950.225,-295.815"/>
</g>
<!-- Node5 -->
<g id="node5" class="node"><title>Node5</title>
<g id="a_node5"><a xlink:href="../../d2/db1/movetypes_8qc.html#a9eab855e43664a019197c6c63e17698b" target="_top" xlink:title="_Movetype_LinkEdict\l_TouchAreaGrid">
<polygon fill="none" stroke="black" points="749,-685 749,-715 859,-715 859,-685 749,-685"/>
<text text-anchor="start" x="757" y="-703" font-family="Helvetica,sans-Serif" font-size="10.00">_Movetype_LinkEdict</text>
<text text-anchor="middle" x="804" y="-692" font-family="Helvetica,sans-Serif" font-size="10.00">_TouchAreaGrid</text>
</a>
</g>
</g>
<!-- Node4&#45;&gt;Node5 -->
<g id="edge4" class="edge"><title>Node4&#45;&gt;Node5</title>
<path fill="none" stroke="midnightblue" d="M636.506,-589.617C665.752,-609.007 732.366,-653.171 771.898,-679.38"/>
<polygon fill="midnightblue" stroke="midnightblue" points="770.106,-682.391 780.374,-685 773.974,-676.557 770.106,-682.391"/>
</g>
<!-- Node8 -->
<g id="node8" class="node"><title>Node8</title>
<g id="a_node8"><a xlink:href="../../d5/dff/ent__cs_8qc.html#ac459a724c1fe031c6658fff554b12ea8" target="_top" xlink:title="setorigin">
<polygon fill="none" stroke="black" points="777.5,-570.5 777.5,-589.5 830.5,-589.5 830.5,-570.5 777.5,-570.5"/>
<text text-anchor="middle" x="804" y="-577.5" font-family="Helvetica,sans-Serif" font-size="10.00">setorigin</text>
</a>
</g>
</g>
<!-- Node4&#45;&gt;Node8 -->
<g id="edge7" class="edge"><title>Node4&#45;&gt;Node8</title>
<path fill="none" stroke="midnightblue" d="M676.306,-580C705.776,-580 741.376,-580 767.325,-580"/>
<polygon fill="midnightblue" stroke="midnightblue" points="767.46,-583.5 777.46,-580 767.46,-576.5 767.46,-583.5"/>
</g>
<!-- Node6 -->
<g id="node6" class="node"><title>Node6</title>
<g id="a_node6"><a xlink:href="../../de/dcb/vector_8qh.html#a9d1cd3b60eb67f1ec2a17fc2022e4276" target="_top" xlink:title="requires that m2&gt;m1 in all coordinates, and that m4&gt;m3 ">
<polygon fill="none" stroke="black" points="912,-709.5 912,-728.5 986,-728.5 986,-709.5 912,-709.5"/>
<text text-anchor="middle" x="949" y="-716.5" font-family="Helvetica,sans-Serif" font-size="10.00">boxesoverlap</text>
</a>
</g>
</g>
<!-- Node5&#45;&gt;Node6 -->
<g id="edge5" class="edge"><title>Node5&#45;&gt;Node6</title>
<path fill="none" stroke="midnightblue" d="M859.062,-707.183C873.054,-709.042 887.995,-711.027 901.558,-712.829"/>
<polygon fill="midnightblue" stroke="midnightblue" points="901.249,-716.319 911.623,-714.167 902.171,-709.38 901.249,-716.319"/>
</g>
<!-- Node7 -->
<g id="node7" class="node"><title>Node7</title>
<g id="a_node7"><a xlink:href="../../d8/de2/menudefs_8qc.html#a79d61ab0e4126e02af8bc36d432aedaf" target="_top" xlink:title="vlen">
<polygon fill="none" stroke="black" points="931.5,-671.5 931.5,-690.5 966.5,-690.5 966.5,-671.5 931.5,-671.5"/>
<text text-anchor="middle" x="949" y="-678.5" font-family="Helvetica,sans-Serif" font-size="10.00">vlen</text>
</a>
</g>
</g>
<!-- Node5&#45;&gt;Node7 -->
<g id="edge6" class="edge"><title>Node5&#45;&gt;Node7</title>
<path fill="none" stroke="midnightblue" d="M859.062,-692.817C880.284,-689.997 903.688,-686.888 921.159,-684.566"/>
<polygon fill="midnightblue" stroke="midnightblue" points="921.746,-688.019 931.198,-683.232 920.824,-681.08 921.746,-688.019"/>
</g>
<!-- Node9&#45;&gt;Node3 -->
<g id="edge12" class="edge"><title>Node9&#45;&gt;Node3</title>
<path fill="none" stroke="midnightblue" d="M495.716,-661.297C607.302,-668.348 820.996,-674.902 876,-627 926.665,-582.878 943.091,-363.322 946.987,-295.795"/>
<polygon fill="midnightblue" stroke="midnightblue" points="950.489,-295.841 947.541,-285.665 943.5,-295.459 950.489,-295.841"/>
</g>
<!-- Node9&#45;&gt;Node4 -->
<g id="edge10" class="edge"><title>Node9&#45;&gt;Node4</title>
<path fill="none" stroke="midnightblue" d="M471.694,-646.423C484.449,-642.809 498.105,-638.061 510,-632 528.06,-622.797 528.09,-613.492 546,-604 554.238,-599.634 563.414,-595.878 572.423,-592.719"/>
<polygon fill="midnightblue" stroke="midnightblue" points="573.685,-595.989 582.081,-589.527 571.488,-589.342 573.685,-595.989"/>
</g>
<!-- Node10 -->
<g id="node10" class="node"><title>Node10</title>
<g id="a_node10"><a xlink:href="../../d4/d0c/csprogsdefs_8qc.html#acbb54a239d76062465dccbc6a6c6e464" target="_top" xlink:title="entity">
<polygon fill="none" stroke="black" points="783.5,-494.5 783.5,-513.5 824.5,-513.5 824.5,-494.5 783.5,-494.5"/>
<text text-anchor="middle" x="804" y="-501.5" font-family="Helvetica,sans-Serif" font-size="10.00">entity</text>
</a>
</g>
</g>
<!-- Node9&#45;&gt;Node10 -->
<g id="edge11" class="edge"><title>Node9&#45;&gt;Node10</title>
<path fill="none" stroke="midnightblue" d="M493.957,-646.474C561.976,-635.978 662.004,-618.043 696,-599 716.297,-587.63 714.89,-576.763 732,-561 747.982,-546.277 767.273,-530.93 781.71,-519.874"/>
<polygon fill="midnightblue" stroke="midnightblue" points="784.146,-522.42 790,-513.589 779.917,-516.842 784.146,-522.42"/>
</g>
<!-- Node11&#45;&gt;Node4 -->
<g id="edge25" class="edge"><title>Node11&#45;&gt;Node4</title>
<path fill="none" stroke="midnightblue" d="M290.605,-323.609C296.171,-326.062 301.457,-329.139 306,-333 334.481,-357.202 312.831,-385.631 342,-409 401.745,-456.864 444.781,-406.915 510,-447 522.42,-454.634 579.525,-527.521 606.199,-562.04"/>
<polygon fill="midnightblue" stroke="midnightblue" points="603.69,-564.518 612.568,-570.301 609.234,-560.244 603.69,-564.518"/>
</g>
<!-- Node12 -->
<g id="node12" class="node"><title>Node12</title>
<g id="a_node12"><a xlink:href="../../d2/db1/movetypes_8qc.html#a339edb79ca2ee708f1d39819496794bf" target="_top" xlink:title="_Movetype_CheckVelocity">
<polygon fill="none" stroke="black" points="359,-190.5 359,-209.5 493,-209.5 493,-190.5 359,-190.5"/>
<text text-anchor="middle" x="426" y="-197.5" font-family="Helvetica,sans-Serif" font-size="10.00">_Movetype_CheckVelocity</text>
</a>
</g>
</g>
<!-- Node11&#45;&gt;Node12 -->
<g id="edge14" class="edge"><title>Node11&#45;&gt;Node12</title>
<path fill="none" stroke="midnightblue" d="M247.277,-304.452C262.566,-285.101 300.094,-241.216 342,-219 346.457,-216.637 351.201,-214.567 356.075,-212.753"/>
<polygon fill="midnightblue" stroke="midnightblue" points="357.2,-216.067 365.57,-209.571 354.976,-209.43 357.2,-216.067"/>
</g>
<!-- Node13 -->
<g id="node13" class="node"><title>Node13</title>
<g id="a_node13"><a xlink:href="../../d2/db1/movetypes_8qc.html#a79e4edd38f331d8a2df4fe27b9df91cf" target="_top" xlink:title="_Movetype_FlyMove">
<polygon fill="none" stroke="black" points="372.5,-304.5 372.5,-323.5 479.5,-323.5 479.5,-304.5 372.5,-304.5"/>
<text text-anchor="middle" x="426" y="-311.5" font-family="Helvetica,sans-Serif" font-size="10.00">_Movetype_FlyMove</text>
</a>
</g>
</g>
<!-- Node11&#45;&gt;Node13 -->
<g id="edge15" class="edge"><title>Node11&#45;&gt;Node13</title>
<path fill="none" stroke="midnightblue" d="M304.704,-314C323.342,-314 343.64,-314 362.163,-314"/>
<polygon fill="midnightblue" stroke="midnightblue" points="362.25,-317.5 372.249,-314 362.249,-310.5 362.25,-317.5"/>
</g>
<!-- Node21 -->
<g id="node21" class="node"><title>Node21</title>
<g id="a_node21"><a xlink:href="../../d2/db1/movetypes_8qc.html#aa9a451c248f6edd8b206c427c6c9eea5" target="_top" xlink:title="_Movetype_CheckWaterTransition">
<polygon fill="none" stroke="black" points="342.5,-152.5 342.5,-171.5 509.5,-171.5 509.5,-152.5 342.5,-152.5"/>
<text text-anchor="middle" x="426" y="-159.5" font-family="Helvetica,sans-Serif" font-size="10.00">_Movetype_CheckWaterTransition</text>
</a>
</g>
</g>
<!-- Node11&#45;&gt;Node21 -->
<g id="edge26" class="edge"><title>Node11&#45;&gt;Node21</title>
<path fill="none" stroke="midnightblue" d="M244.381,-304.468C256.249,-279.772 291.559,-213.388 342,-181 345.333,-178.86 348.878,-176.959 352.554,-175.272"/>
<polygon fill="midnightblue" stroke="midnightblue" points="353.946,-178.485 361.914,-171.502 351.33,-171.992 353.946,-178.485"/>
</g>
<!-- Node13&#45;&gt;Node3 -->
<g id="edge24" class="edge"><title>Node13&#45;&gt;Node3</title>
<path fill="none" stroke="midnightblue" d="M478.674,-304.468C499.518,-300.958 523.836,-297.286 546,-295 683.551,-280.813 848.687,-277.206 916.546,-276.299"/>
<polygon fill="midnightblue" stroke="midnightblue" points="916.627,-279.799 926.583,-276.176 916.54,-272.799 916.627,-279.799"/>
</g>
<!-- Node14 -->
<g id="node14" class="node"><title>Node14</title>
<g id="a_node14"><a xlink:href="../../d2/db1/movetypes_8qc.html#a8eb028ddd5ef1d5b4fa30afe433e74ae" target="_top" xlink:title="_Movetype_ClipVelocity">
<polygon fill="none" stroke="black" points="560,-171.5 560,-190.5 682,-190.5 682,-171.5 560,-171.5"/>
<text text-anchor="middle" x="621" y="-178.5" font-family="Helvetica,sans-Serif" font-size="10.00">_Movetype_ClipVelocity</text>
</a>
</g>
</g>
<!-- Node13&#45;&gt;Node14 -->
<g id="edge16" class="edge"><title>Node13&#45;&gt;Node14</title>
<path fill="none" stroke="midnightblue" d="M475.21,-304.445C487.068,-300.932 499.395,-296.23 510,-290 531.533,-277.35 579.744,-225.655 604.572,-198.248"/>
<polygon fill="midnightblue" stroke="midnightblue" points="607.377,-200.364 611.471,-190.592 602.177,-195.678 607.377,-200.364"/>
</g>
<!-- Node15 -->
<g id="node15" class="node"><title>Node15</title>
<g id="a_node15"><a xlink:href="../../d2/db1/movetypes_8qc.html#a87faffe8e9d50ad4b76370c75e8dc91b" target="_top" xlink:title="_Movetype_PushEntity">
<polygon fill="none" stroke="black" points="562,-95.5 562,-114.5 680,-114.5 680,-95.5 562,-95.5"/>
<text text-anchor="middle" x="621" y="-102.5" font-family="Helvetica,sans-Serif" font-size="10.00">_Movetype_PushEntity</text>
</a>
</g>
</g>
<!-- Node13&#45;&gt;Node15 -->
<g id="edge17" class="edge"><title>Node13&#45;&gt;Node15</title>
<path fill="none" stroke="midnightblue" d="M479.624,-307.369C490.832,-303.775 501.757,-298.303 510,-290 551.634,-248.06 512.91,-210.963 546,-162 557.917,-144.366 577.064,-129.832 592.896,-119.854"/>
<polygon fill="midnightblue" stroke="midnightblue" points="594.996,-122.675 601.755,-114.516 591.383,-116.679 594.996,-122.675"/>
</g>
<!-- Node19 -->
<g id="node19" class="node"><title>Node19</title>
<g id="a_node19"><a xlink:href="../../d8/de2/menudefs_8qc.html#accccfae161879454243b3a8695a9bf3b" target="_top" xlink:title="fabs">
<polygon fill="none" stroke="black" points="603.5,-342.5 603.5,-361.5 638.5,-361.5 638.5,-342.5 603.5,-342.5"/>
<text text-anchor="middle" x="621" y="-349.5" font-family="Helvetica,sans-Serif" font-size="10.00">fabs</text>
</a>
</g>
</g>
<!-- Node13&#45;&gt;Node19 -->
<g id="edge22" class="edge"><title>Node13&#45;&gt;Node19</title>
<path fill="none" stroke="midnightblue" d="M475.702,-323.589C513.062,-330.945 563.208,-340.818 593.48,-346.778"/>
<polygon fill="midnightblue" stroke="midnightblue" points="592.817,-350.215 603.305,-348.713 594.169,-343.347 592.817,-350.215"/>
</g>
<!-- Node20 -->
<g id="node20" class="node"><title>Node20</title>
<g id="a_node20"><a xlink:href="../../d8/de2/menudefs_8qc.html#a83f4d3f317a80e82e6b16ea61ea5efc3" target="_top" xlink:title="sqrt">
<polygon fill="none" stroke="black" points="604.5,-304.5 604.5,-323.5 637.5,-323.5 637.5,-304.5 604.5,-304.5"/>
<text text-anchor="middle" x="621" y="-311.5" font-family="Helvetica,sans-Serif" font-size="10.00">sqrt</text>
</a>
</g>
</g>
<!-- Node13&#45;&gt;Node20 -->
<g id="edge23" class="edge"><title>Node13&#45;&gt;Node20</title>
<path fill="none" stroke="midnightblue" d="M479.738,-314C516.949,-314 565.174,-314 594.29,-314"/>
<polygon fill="midnightblue" stroke="midnightblue" points="594.451,-317.5 604.451,-314 594.451,-310.5 594.451,-317.5"/>
</g>
<!-- Node16 -->
<g id="node16" class="node"><title>Node16</title>
<g id="a_node16"><a xlink:href="../../d2/db1/movetypes_8qc.html#a2ad725bc81de4f1ffff07adfb63a64c1" target="_top" xlink:title="_Movetype_PushEntityTrace">
<polygon fill="none" stroke="black" points="732.5,-0.5 732.5,-19.5 875.5,-19.5 875.5,-0.5 732.5,-0.5"/>
<text text-anchor="middle" x="804" y="-7.5" font-family="Helvetica,sans-Serif" font-size="10.00">_Movetype_PushEntityTrace</text>
</a>
</g>
</g>
<!-- Node15&#45;&gt;Node16 -->
<g id="edge18" class="edge"><title>Node15&#45;&gt;Node16</title>
<path fill="none" stroke="midnightblue" d="M640.351,-95.3681C672.279,-78.6103 738.205,-44.0083 775.579,-24.3924"/>
<polygon fill="midnightblue" stroke="midnightblue" points="777.641,-27.2627 784.869,-19.5162 774.388,-21.0645 777.641,-27.2627"/>
</g>
<!-- Node18 -->
<g id="node18" class="node"><title>Node18</title>
<g id="a_node18"><a xlink:href="../../d2/db1/movetypes_8qc.html#aec8e38c6a6af79893d641f0ae53a2042" target="_top" xlink:title="_Movetype_Impact">
<polygon fill="none" stroke="black" points="754,-95.5 754,-114.5 854,-114.5 854,-95.5 754,-95.5"/>
<text text-anchor="middle" x="804" y="-102.5" font-family="Helvetica,sans-Serif" font-size="10.00">_Movetype_Impact</text>
</a>
</g>
</g>
<!-- Node15&#45;&gt;Node18 -->
<g id="edge21" class="edge"><title>Node15&#45;&gt;Node18</title>
<path fill="none" stroke="midnightblue" d="M680.266,-105C700.6,-105 723.431,-105 743.837,-105"/>
<polygon fill="midnightblue" stroke="midnightblue" points="743.948,-108.5 753.948,-105 743.948,-101.5 743.948,-108.5"/>
</g>
<!-- Node16&#45;&gt;Node3 -->
<g id="edge19" class="edge"><title>Node16&#45;&gt;Node3</title>
<path fill="none" stroke="midnightblue" d="M853.698,-19.5127C861.972,-22.9501 869.86,-27.6296 876,-34 937.135,-97.4261 946.656,-210.408 947.924,-256.052"/>
<polygon fill="midnightblue" stroke="midnightblue" points="944.426,-256.195 948.095,-266.134 951.425,-256.076 944.426,-256.195"/>
</g>
<!-- Node17 -->
<g id="node17" class="node"><title>Node17</title>
<g id="a_node17"><a xlink:href="../../d8/de2/menudefs_8qc.html#aebeeec7a2529f36483e14f76b1871271" target="_top" xlink:title="max">
<polygon fill="none" stroke="black" points="931.5,-0.5 931.5,-19.5 966.5,-19.5 966.5,-0.5 931.5,-0.5"/>
<text text-anchor="middle" x="949" y="-7.5" font-family="Helvetica,sans-Serif" font-size="10.00">max</text>
</a>
</g>
</g>
<!-- Node16&#45;&gt;Node17 -->
<g id="edge20" class="edge"><title>Node16&#45;&gt;Node17</title>
<path fill="none" stroke="midnightblue" d="M875.662,-10C891.934,-10 908.264,-10 921.28,-10"/>
<polygon fill="midnightblue" stroke="midnightblue" points="921.36,-13.5001 931.36,-10 921.36,-6.5001 921.36,-13.5001"/>
</g>
<!-- Node22&#45;&gt;Node3 -->
<g id="edge29" class="edge"><title>Node22&#45;&gt;Node3</title>
<path fill="none" stroke="midnightblue" d="M255.9,-133.323C275.39,-122.028 309.807,-103.891 342,-96 430.333,-74.3477 873.337,-84.1612 876,-86 932.925,-125.304 944.887,-215.884 947.369,-256.119"/>
<polygon fill="midnightblue" stroke="midnightblue" points="943.88,-256.435 947.854,-266.256 950.872,-256.101 943.88,-256.435"/>
</g>
<!-- Node22&#45;&gt;Node12 -->
<g id="edge28" class="edge"><title>Node22&#45;&gt;Node12</title>
<path fill="none" stroke="midnightblue" d="M263.2,-152.641C283.683,-160.911 314.482,-172.764 342,-181 350.437,-183.525 359.443,-185.904 368.295,-188.068"/>
<polygon fill="midnightblue" stroke="midnightblue" points="367.648,-191.512 378.186,-190.417 369.265,-184.701 367.648,-191.512"/>
</g>
<!-- Node22&#45;&gt;Node14 -->
<g id="edge38" class="edge"><title>Node22&#45;&gt;Node14</title>
<path fill="none" stroke="midnightblue" d="M305.148,-136.995C360.148,-133.354 440.773,-131.38 510,-143 537.82,-147.67 568.013,-158.549 589.717,-167.475"/>
<polygon fill="midnightblue" stroke="midnightblue" points="588.477,-170.751 599.052,-171.41 591.196,-164.3 588.477,-170.751"/>
</g>
<!-- Node22&#45;&gt;Node15 -->
<g id="edge30" class="edge"><title>Node22&#45;&gt;Node15</title>
<path fill="none" stroke="midnightblue" d="M263.009,-133.393C283.369,-125.419 314.096,-114.659 342,-110 412.708,-98.194 494.933,-98.4028 551.518,-100.66"/>
<polygon fill="midnightblue" stroke="midnightblue" points="551.635,-104.168 561.777,-101.103 551.937,-97.1745 551.635,-104.168"/>
</g>
<!-- Node22&#45;&gt;Node21 -->
<g id="edge39" class="edge"><title>Node22&#45;&gt;Node21</title>
<path fill="none" stroke="midnightblue" d="M305.224,-149.699C313.916,-150.591 322.961,-151.52 332.012,-152.45"/>
<polygon fill="midnightblue" stroke="midnightblue" points="331.91,-155.958 342.216,-153.498 332.625,-148.994 331.91,-155.958"/>
</g>
<!-- Node23 -->
<g id="node23" class="node"><title>Node23</title>
<g id="a_node23"><a xlink:href="../../d2/db1/movetypes_8qc.html#ab024873d80d2f0654e96629b7b47fd6a" target="_top" xlink:title="_Movetype_UnstickEntity">
<polygon fill="none" stroke="black" points="361.5,-380.5 361.5,-399.5 490.5,-399.5 490.5,-380.5 361.5,-380.5"/>
<text text-anchor="middle" x="426" y="-387.5" font-family="Helvetica,sans-Serif" font-size="10.00">_Movetype_UnstickEntity</text>
</a>
</g>
</g>
<!-- Node22&#45;&gt;Node23 -->
<g id="edge31" class="edge"><title>Node22&#45;&gt;Node23</title>
<path fill="none" stroke="midnightblue" d="M243.309,-152.671C253.837,-182.384 289.02,-273.9 342,-333 357.555,-350.352 379.418,-365.089 396.8,-375.229"/>
<polygon fill="midnightblue" stroke="midnightblue" points="395.498,-378.513 405.928,-380.377 398.937,-372.416 395.498,-378.513"/>
</g>
<!-- Node27 -->
<g id="node27" class="node"><title>Node27</title>
<g id="a_node27"><a xlink:href="../../d8/de2/menudefs_8qc.html#ab2ad6bdb33b4334fec83db0418cf72df" target="_top" xlink:title="min">
<polygon fill="none" stroke="black" points="410,-0.5 410,-19.5 442,-19.5 442,-0.5 410,-0.5"/>
<text text-anchor="middle" x="426" y="-7.5" font-family="Helvetica,sans-Serif" font-size="10.00">min</text>
</a>
</g>
</g>
<!-- Node22&#45;&gt;Node27 -->
<g id="edge37" class="edge"><title>Node22&#45;&gt;Node27</title>
<path fill="none" stroke="midnightblue" d="M246.379,-133.205C260.786,-111.87 298.032,-60.9583 342,-34 359.791,-23.0918 382.758,-16.9516 400.021,-13.6186"/>
<polygon fill="midnightblue" stroke="midnightblue" points="400.686,-17.0556 409.936,-11.8887 399.483,-10.1598 400.686,-17.0556"/>
</g>
<!-- Node23&#45;&gt;Node4 -->
<g id="edge36" class="edge"><title>Node23&#45;&gt;Node4</title>
<path fill="none" stroke="midnightblue" d="M483.692,-399.604C493.164,-403.034 502.374,-407.687 510,-414 537.253,-436.562 527.041,-455.128 546,-485 564.264,-513.777 589.277,-544.43 605.036,-562.899"/>
<polygon fill="midnightblue" stroke="midnightblue" points="602.388,-565.187 611.568,-570.476 607.69,-560.617 602.388,-565.187"/>
</g>
<!-- Node24 -->
<g id="node24" class="node"><title>Node24</title>
<g id="a_node24"><a xlink:href="../../d2/db1/movetypes_8qc.html#a3863efa2a85eff29702da92d456dcacb" target="_top" xlink:title="_Movetype_TestEntityPosition">
<polygon fill="none" stroke="black" points="546,-456.5 546,-475.5 696,-475.5 696,-456.5 546,-456.5"/>
<text text-anchor="middle" x="621" y="-463.5" font-family="Helvetica,sans-Serif" font-size="10.00">_Movetype_TestEntityPosition</text>
</a>
</g>
</g>
<!-- Node23&#45;&gt;Node24 -->
<g id="edge32" class="edge"><title>Node23&#45;&gt;Node24</title>
<path fill="none" stroke="midnightblue" d="M474.178,-399.588C486.301,-403.125 499.014,-407.83 510,-414 528.925,-424.628 526.917,-436.658 546,-447 550.224,-449.289 554.733,-451.311 559.364,-453.095"/>
<polygon fill="midnightblue" stroke="midnightblue" points="558.39,-456.461 568.985,-456.433 560.684,-449.848 558.39,-456.461"/>
</g>
<!-- Node25 -->
<g id="node25" class="node"><title>Node25</title>
<g id="a_node25"><a xlink:href="../../d8/de2/menudefs_8qc.html#a3b90997eb01a44ab00ec2bbbacbaf3e7" target="_top" xlink:title="etof">
<polygon fill="none" stroke="black" points="604.5,-418.5 604.5,-437.5 637.5,-437.5 637.5,-418.5 604.5,-418.5"/>
<text text-anchor="middle" x="621" y="-425.5" font-family="Helvetica,sans-Serif" font-size="10.00">etof</text>
</a>
</g>
</g>
<!-- Node23&#45;&gt;Node25 -->
<g id="edge34" class="edge"><title>Node23&#45;&gt;Node25</title>
<path fill="none" stroke="midnightblue" d="M475.702,-399.589C513.296,-406.991 563.839,-416.942 594.048,-422.89"/>
<polygon fill="midnightblue" stroke="midnightblue" points="593.708,-426.39 604.196,-424.888 595.06,-419.522 593.708,-426.39"/>
</g>
<!-- Node26 -->
<g id="node26" class="node"><title>Node26</title>
<g id="a_node26"><a xlink:href="../../d8/de2/menudefs_8qc.html#ab0df318f2dece7f798ff4061cd67f9d2" target="_top" xlink:title="vtos">
<polygon fill="none" stroke="black" points="603.5,-380.5 603.5,-399.5 638.5,-399.5 638.5,-380.5 603.5,-380.5"/>
<text text-anchor="middle" x="621" y="-387.5" font-family="Helvetica,sans-Serif" font-size="10.00">vtos</text>
</a>
</g>
</g>
<!-- Node23&#45;&gt;Node26 -->
<g id="edge35" class="edge"><title>Node23&#45;&gt;Node26</title>
<path fill="none" stroke="midnightblue" d="M490.73,-390C525.509,-390 566.731,-390 593.114,-390"/>
<polygon fill="midnightblue" stroke="midnightblue" points="593.45,-393.5 603.45,-390 593.45,-386.5 593.45,-393.5"/>
</g>
<!-- Node24&#45;&gt;Node10 -->
<g id="edge33" class="edge"><title>Node24&#45;&gt;Node10</title>
<path fill="none" stroke="midnightblue" d="M667.674,-475.589C700.879,-482.56 744.854,-491.793 773.527,-497.812"/>
<polygon fill="midnightblue" stroke="midnightblue" points="772.844,-501.245 783.35,-499.875 774.283,-494.395 772.844,-501.245"/>
</g>
<!-- Node28&#45;&gt;Node2 -->
<g id="edge43" class="edge"><title>Node28&#45;&gt;Node2</title>
<path fill="none" stroke="midnightblue" d="M290.17,-342.417C295.875,-339.96 301.314,-336.875 306,-333 333.266,-310.454 314.747,-284.562 342,-262 347.004,-257.857 352.691,-254.429 358.687,-251.592"/>
<polygon fill="midnightblue" stroke="midnightblue" points="360.41,-254.667 368.308,-247.604 357.73,-248.2 360.41,-254.667"/>
</g>
<!-- Node28&#45;&gt;Node3 -->
<g id="edge41" class="edge"><title>Node28&#45;&gt;Node3</title>
<path fill="none" stroke="midnightblue" d="M245.567,-361.897C264.581,-395.536 326.628,-503.892 342,-513 393.056,-543.249 828.826,-559.004 876,-523 912.961,-494.791 937.424,-349.105 945.272,-295.674"/>
<polygon fill="midnightblue" stroke="midnightblue" points="948.74,-296.144 946.693,-285.749 941.811,-295.152 948.74,-296.144"/>
</g>
<!-- Node28&#45;&gt;Node4 -->
<g id="edge46" class="edge"><title>Node28&#45;&gt;Node4</title>
<path fill="none" stroke="midnightblue" d="M241.51,-361.865C247.275,-395.752 271.247,-507.944 342,-556 406.021,-599.484 498.402,-598.042 558.814,-590.812"/>
<polygon fill="midnightblue" stroke="midnightblue" points="559.495,-594.253 568.967,-589.506 558.602,-587.31 559.495,-594.253"/>
</g>
<!-- Node28&#45;&gt;Node10 -->
<g id="edge47" class="edge"><title>Node28&#45;&gt;Node10</title>
<path fill="none" stroke="midnightblue" d="M243.905,-361.702C254.845,-387.416 288.541,-457.245 342,-485 417.318,-524.103 683.769,-511.492 773.361,-505.985"/>
<polygon fill="midnightblue" stroke="midnightblue" points="773.626,-509.476 783.385,-505.353 773.185,-502.489 773.626,-509.476"/>
</g>
<!-- Node28&#45;&gt;Node12 -->
<g id="edge44" class="edge"><title>Node28&#45;&gt;Node12</title>
<path fill="none" stroke="midnightblue" d="M292.444,-342.349C297.425,-339.895 302.072,-336.828 306,-333 344.048,-295.913 302.942,-255.022 342,-219 344.445,-216.745 347.101,-214.74 349.913,-212.958"/>
<polygon fill="midnightblue" stroke="midnightblue" points="351.572,-216.04 358.758,-208.254 348.285,-209.859 351.572,-216.04"/>
</g>
<!-- Node28&#45;&gt;Node13 -->
<g id="edge45" class="edge"><title>Node28&#45;&gt;Node13</title>
<path fill="none" stroke="midnightblue" d="M286.683,-342.411C311.646,-337.284 342.564,-330.933 368.834,-325.537"/>
<polygon fill="midnightblue" stroke="midnightblue" points="369.561,-328.961 378.652,-323.52 368.153,-322.104 369.561,-328.961"/>
</g>
<!-- Node28&#45;&gt;Node15 -->
<g id="edge49" class="edge"><title>Node28&#45;&gt;Node15</title>
<path fill="none" stroke="midnightblue" d="M285.379,-342.421C292.555,-339.936 299.684,-336.841 306,-333 325.878,-320.912 321.781,-306.508 342,-295 408.531,-257.133 452.221,-307.219 510,-257 544.079,-227.38 519.096,-198.261 546,-162 558.763,-144.799 578.054,-130.175 593.739,-120.047"/>
<polygon fill="midnightblue" stroke="midnightblue" points="595.833,-122.867 602.482,-114.618 592.14,-116.92 595.833,-122.867"/>
</g>
<!-- Node28&#45;&gt;Node19 -->
<g id="edge48" class="edge"><title>Node28&#45;&gt;Node19</title>
<path fill="none" stroke="midnightblue" d="M305.757,-352C390.547,-352 534.123,-352 593.291,-352"/>
<polygon fill="midnightblue" stroke="midnightblue" points="593.324,-355.5 603.324,-352 593.324,-348.5 593.324,-355.5"/>
</g>
<!-- Node28&#45;&gt;Node23 -->
<g id="edge42" class="edge"><title>Node28&#45;&gt;Node23</title>
<path fill="none" stroke="midnightblue" d="M286.683,-361.589C311.646,-366.716 342.564,-373.067 368.834,-378.463"/>
<polygon fill="midnightblue" stroke="midnightblue" points="368.153,-381.896 378.652,-380.48 369.561,-375.039 368.153,-381.896"/>
</g>
<!-- Node29 -->
<g id="node29" class="node"><title>Node29</title>
<g id="a_node29"><a xlink:href="../../d2/db1/movetypes_8qc.html#ad797154b1325fa6f3b8aa5d2224d77b5" target="_top" xlink:title="_Movetype_WallFriction">
<polygon fill="none" stroke="black" points="365,-456.5 365,-475.5 487,-475.5 487,-456.5 365,-456.5"/>
<text text-anchor="middle" x="426" y="-463.5" font-family="Helvetica,sans-Serif" font-size="10.00">_Movetype_WallFriction</text>
</a>
</g>
</g>
<!-- Node28&#45;&gt;Node29 -->
<g id="edge50" class="edge"><title>Node28&#45;&gt;Node29</title>
<path fill="none" stroke="midnightblue" d="M248.233,-361.683C264.363,-380.047 302.049,-420.059 342,-442 350.294,-446.555 359.541,-450.323 368.767,-453.414"/>
<polygon fill="midnightblue" stroke="midnightblue" points="367.745,-456.762 378.334,-456.396 369.828,-450.079 367.745,-456.762"/>
</g>
</g>
</svg>
        <g id="navigator" transform="translate(0 0)" fill="#404254">
                <rect fill="#f2f5e9" fill-opacity="0.5" stroke="#606060" stroke-width=".5" x="0" y="0" width="60" height="60"/>
                <use id="zoomplus" xlink:href="#zoomPlus" x="17" y="9" onmousedown="handleZoom(evt,'in')"/>
                <use id="zoomminus" xlink:href="#zoomMin" x="42" y="9" onmousedown="handleZoom(evt,'out')"/>
                <use id="reset" xlink:href="#resetDef" x="30" y="36" onmousedown="handleReset()"/>
                <g id="arrowUp" xlink:href="#dirArrow" transform="translate(30 24)" onmousedown="handlePan(0,-1)">
                  <use xlink:href="#rim" fill="#404040">
                        <set attributeName="fill" to="#808080" begin="arrowUp.mouseover" end="arrowUp.mouseout"/>
                  </use>
                  <path fill="none" stroke="white" stroke-width="1.5" d="M0,-3.0v7 M-2.5,-0.5L0,-3.0L2.5,-0.5"/>
                </g>
                <g id="arrowRight" xlink:href="#dirArrow" transform="rotate(90) translate(36 -43)" onmousedown="handlePan(1,0)">
                  <use xlink:href="#rim" fill="#404040">
                        <set attributeName="fill" to="#808080" begin="arrowRight.mouseover" end="arrowRight.mouseout"/>
                  </use>
                  <path fill="none" stroke="white" stroke-width="1.5" d="M0,-3.0v7 M-2.5,-0.5L0,-3.0L2.5,-0.5"/>
                </g>
                <g id="arrowDown" xlink:href="#dirArrow" transform="rotate(180) translate(-30 -48)" onmousedown="handlePan(0,1)">
                  <use xlink:href="#rim" fill="#404040">
                        <set attributeName="fill" to="#808080" begin="arrowDown.mouseover" end="arrowDown.mouseout"/>
                  </use>
                  <path fill="none" stroke="white" stroke-width="1.5" d="M0,-3.0v7 M-2.5,-0.5L0,-3.0L2.5,-0.5"/>
                </g>
                <g id="arrowLeft" xlink:href="#dirArrow" transform="rotate(270) translate(-36 17)" onmousedown="handlePan(-1,0)">
                  <use xlink:href="#rim" fill="#404040">
                        <set attributeName="fill" to="#808080" begin="arrowLeft.mouseover" end="arrowLeft.mouseout"/>
                  </use>
                  <path fill="none" stroke="white" stroke-width="1.5" d="M0,-3.0v7 M-2.5,-0.5L0,-3.0L2.5,-0.5"/>
                </g>
        </g>
        <svg viewBox="0 0 15 15" width="100%" height="30px" preserveAspectRatio="xMaxYMin meet">
         <g id="arrow_out" transform="scale(0.3 0.3)">
          <a xlink:href="movetypes_8qc_a49dc89e672be0a131f3c6d719bd4661e_cgraph_org.svg" target="_base">
           <rect id="button" ry="5" rx="5" y="6" x="6" height="38" width="38"
                fill="#f2f5e9" fill-opacity="0.5" stroke="#606060" stroke-width="1.0"/>
           <path id="arrow"
             d="M 11.500037,31.436501 C 11.940474,20.09759 22.043105,11.32322 32.158766,21.979434 L 37.068811,17.246167 C 37.068811,17.246167 37.088388,32 37.088388,32 L 22.160133,31.978069 C 22.160133,31.978069 26.997745,27.140456 26.997745,27.140456 C 18.528582,18.264221 13.291696,25.230495 11.500037,31.436501 z"
             style="fill:#404040;"/>
          </a>
         </g>
        </svg>
</svg>
