<?xml version="1.0" encoding="UTF-8" standalone="no"?>
<!DOCTYPE svg PUBLIC "-//W3C//DTD SVG 1.1//EN"
 "http://www.w3.org/Graphics/SVG/1.1/DTD/svg11.dtd">
<!-- Generated by graphviz version 2.36.0 (20140111.2315)
 -->
<!-- Title: hslimage_color Pages: 1 -->
<svg width="404pt" height="66pt"
 viewBox="0.00 0.00 404.00 66.00" xmlns="http://www.w3.org/2000/svg" xmlns:xlink="http://www.w3.org/1999/xlink">
<g id="graph0" class="graph" transform="scale(1 1) rotate(0) translate(4 62)">
<title>hslimage_color</title>
<!-- Node1 -->
<g id="node1" class="node"><title>Node1</title>
<polygon fill="#bfbfbf" stroke="black" points="0,-19.5 0,-38.5 82,-38.5 82,-19.5 0,-19.5"/>
<text text-anchor="middle" x="41" y="-26.5" font-family="Helvetica,sans-Serif" font-size="10.00">hslimage_color</text>
</g>
<!-- Node2 -->
<g id="node2" class="node"><title>Node2</title>
<g id="a_node2"><a xlink:href="../../de/d11/color_8qh.html#ab4bf0e2d75127f30c63ee68b7c2cb117" target="_top" xlink:title="hsl_to_rgb">
<polygon fill="none" stroke="black" points="118,-19.5 118,-38.5 180,-38.5 180,-19.5 118,-19.5"/>
<text text-anchor="middle" x="149" y="-26.5" font-family="Helvetica,sans-Serif" font-size="10.00">hsl_to_rgb</text>
</a>
</g>
</g>
<!-- Node1&#45;&gt;Node2 -->
<g id="edge1" class="edge"><title>Node1&#45;&gt;Node2</title>
<path fill="none" stroke="midnightblue" d="M82.0741,-29C90.401,-29 99.1813,-29 107.523,-29"/>
<polygon fill="midnightblue" stroke="midnightblue" points="107.786,-32.5001 117.786,-29 107.786,-25.5001 107.786,-32.5001"/>
</g>
<!-- Node3 -->
<g id="node3" class="node"><title>Node3</title>
<g id="a_node3"><a xlink:href="../../de/d11/color_8qh.html#ab1f4bdefce01b10ac1672dabfeb6727e" target="_top" xlink:title="hue_mi_ma_to_rgb">
<polygon fill="none" stroke="black" points="216.5,-19.5 216.5,-38.5 315.5,-38.5 315.5,-19.5 216.5,-19.5"/>
<text text-anchor="middle" x="266" y="-26.5" font-family="Helvetica,sans-Serif" font-size="10.00">hue_mi_ma_to_rgb</text>
</a>
</g>
</g>
<!-- Node2&#45;&gt;Node3 -->
<g id="edge2" class="edge"><title>Node2&#45;&gt;Node3</title>
<path fill="none" stroke="midnightblue" d="M180.215,-29C188.241,-29 197.191,-29 206.183,-29"/>
<polygon fill="midnightblue" stroke="midnightblue" points="206.308,-32.5001 216.308,-29 206.308,-25.5001 206.308,-32.5001"/>
</g>
<!-- Node4 -->
<g id="node4" class="node"><title>Node4</title>
<g id="a_node4"><a xlink:href="../../d8/de2/menudefs_8qc.html#ad5a3e16aa960bd72d3ca37a618eea802" target="_top" xlink:title="floor">
<polygon fill="none" stroke="black" points="356.5,-38.5 356.5,-57.5 391.5,-57.5 391.5,-38.5 356.5,-38.5"/>
<text text-anchor="middle" x="374" y="-45.5" font-family="Helvetica,sans-Serif" font-size="10.00">floor</text>
</a>
</g>
</g>
<!-- Node3&#45;&gt;Node4 -->
<g id="edge3" class="edge"><title>Node3&#45;&gt;Node4</title>
<path fill="none" stroke="midnightblue" d="M315.657,-37.7215C326.14,-39.6006 336.852,-41.5207 346.137,-43.1848"/>
<polygon fill="midnightblue" stroke="midnightblue" points="345.82,-46.6838 356.281,-45.0032 347.055,-39.7936 345.82,-46.6838"/>
</g>
<!-- Node5 -->
<g id="node5" class="node"><title>Node5</title>
<g id="a_node5"><a xlink:href="../../da/dde/csprogsdefs_8qh.html#a2626679e4144af8478202c6c28f90cd9" target="_top" xlink:title="vector">
<polygon fill="none" stroke="black" points="352,-0.5 352,-19.5 396,-19.5 396,-0.5 352,-0.5"/>
<text text-anchor="middle" x="374" y="-7.5" font-family="Helvetica,sans-Serif" font-size="10.00">vector</text>
</a>
</g>
</g>
<!-- Node3&#45;&gt;Node5 -->
<g id="edge4" class="edge"><title>Node3&#45;&gt;Node5</title>
<path fill="none" stroke="midnightblue" d="M315.657,-20.2785C324.611,-18.6734 333.732,-17.0385 341.988,-15.5587"/>
<polygon fill="midnightblue" stroke="midnightblue" points="342.68,-18.9906 351.905,-13.7811 341.445,-12.1004 342.68,-18.9906"/>
</g>
</g>
</svg>
