<?xml version="1.0" encoding="UTF-8" standalone="no"?>
<!DOCTYPE svg PUBLIC "-//W3C//DTD SVG 1.1//EN"
 "http://www.w3.org/Graphics/SVG/1.1/DTD/svg11.dtd">
<!-- Generated by graphviz version 2.36.0 (20140111.2315)
 -->
<!-- Title: IL_UNSHIFT Pages: 1 -->
<svg width="202pt" height="66pt"
 viewBox="0.00 0.00 202.00 66.00" xmlns="http://www.w3.org/2000/svg" xmlns:xlink="http://www.w3.org/1999/xlink">
<g id="graph0" class="graph" transform="scale(1 1) rotate(0) translate(4 62)">
<title>IL_UNSHIFT</title>
<!-- Node1 -->
<g id="node1" class="node"><title>Node1</title>
<polygon fill="#bfbfbf" stroke="black" points="0,-19.5 0,-38.5 74,-38.5 74,-19.5 0,-19.5"/>
<text text-anchor="middle" x="37" y="-26.5" font-family="Helvetica,sans-Serif" font-size="10.00">IL_UNSHIFT</text>
</g>
<!-- Node2 -->
<g id="node2" class="node"><title>Node2</title>
<g id="a_node2"><a xlink:href="../../d4/d0c/csprogsdefs_8qc.html#acbb54a239d76062465dccbc6a6c6e464" target="_top" xlink:title="entity">
<polygon fill="none" stroke="black" points="131.5,-38.5 131.5,-57.5 172.5,-57.5 172.5,-38.5 131.5,-38.5"/>
<text text-anchor="middle" x="152" y="-45.5" font-family="Helvetica,sans-Serif" font-size="10.00">entity</text>
</a>
</g>
</g>
<!-- Node1&#45;&gt;Node2 -->
<g id="edge1" class="edge"><title>Node1&#45;&gt;Node2</title>
<path fill="none" stroke="midnightblue" d="M74.0646,-35.064C89.3452,-37.6333 106.931,-40.5901 121.428,-43.0278"/>
<polygon fill="midnightblue" stroke="midnightblue" points="120.92,-46.4914 131.362,-44.6981 122.081,-39.5883 120.92,-46.4914"/>
</g>
<!-- Node3 -->
<g id="node3" class="node"><title>Node3</title>
<g id="a_node3"><a xlink:href="../../d9/d51/intrusivelist_8qh.html#a03533687dbcda21ca9480b3e4b13fb34" target="_top" xlink:title="IL_CONTAINS">
<polygon fill="none" stroke="black" points="110.5,-0.5 110.5,-19.5 193.5,-19.5 193.5,-0.5 110.5,-0.5"/>
<text text-anchor="middle" x="152" y="-7.5" font-family="Helvetica,sans-Serif" font-size="10.00">IL_CONTAINS</text>
</a>
</g>
</g>
<!-- Node1&#45;&gt;Node3 -->
<g id="edge2" class="edge"><title>Node1&#45;&gt;Node3</title>
<path fill="none" stroke="midnightblue" d="M74.0646,-22.936C82.4179,-21.5315 91.46,-20.0111 100.31,-18.5231"/>
<polygon fill="midnightblue" stroke="midnightblue" points="100.892,-21.9745 110.173,-16.8647 99.7313,-15.0714 100.892,-21.9745"/>
</g>
</g>
</svg>
