<?xml version="1.0" encoding="UTF-8" standalone="no"?>
<!DOCTYPE svg PUBLIC "-//W3C//DTD SVG 1.1//EN"
 "http://www.w3.org/Graphics/SVG/1.1/DTD/svg11.dtd">
<!-- Generated by graphviz version 2.36.0 (20140111.2315)
 -->
<!-- Title: solve_quadratic Pages: 1 -->
<svg width="1096pt" height="420pt"
 viewBox="0.00 0.00 1096.00 420.00" xmlns="http://www.w3.org/2000/svg" xmlns:xlink="http://www.w3.org/1999/xlink">
<g id="graph0" class="graph" transform="scale(1 1) rotate(0) translate(4 416)">
<title>solve_quadratic</title>
<!-- Node1 -->
<g id="node1" class="node"><title>Node1</title>
<polygon fill="#bfbfbf" stroke="black" points="0.5,-101.5 0.5,-120.5 85.5,-120.5 85.5,-101.5 0.5,-101.5"/>
<text text-anchor="middle" x="43" y="-108.5" font-family="Helvetica,sans-Serif" font-size="10.00">solve_quadratic</text>
</g>
<!-- Node2 -->
<g id="node2" class="node"><title>Node2</title>
<g id="a_node2"><a xlink:href="../../d5/df2/common_2util_8qh.html#abc3e5951852a453cfd754b340b898427" target="_top" xlink:title="get_shotvelocity">
<polygon fill="none" stroke="black" points="152,-161.5 152,-180.5 240,-180.5 240,-161.5 152,-161.5"/>
<text text-anchor="middle" x="196" y="-168.5" font-family="Helvetica,sans-Serif" font-size="10.00">get_shotvelocity</text>
</a>
</g>
</g>
<!-- Node1&#45;&gt;Node2 -->
<g id="edge1" class="edge"><title>Node1&#45;&gt;Node2</title>
<path fill="none" stroke="midnightblue" d="M70.7081,-125.335C85.5533,-132.963 104.51,-142.155 122,-149 133.957,-153.679 147.333,-157.971 159.336,-161.497"/>
<polygon fill="midnightblue" stroke="midnightblue" points="72.0885,-122.107 61.6032,-120.588 68.8522,-128.314 72.0885,-122.107"/>
</g>
<!-- Node20 -->
<g id="node20" class="node"><title>Node20</title>
<g id="a_node20"><a xlink:href="../../d5/df2/common_2util_8qh.html#a49bf75a4ee9889876bd90bb6527b6650" target="_top" xlink:title="solve_shotdirection">
<polygon fill="none" stroke="black" points="145.5,-120.5 145.5,-139.5 246.5,-139.5 246.5,-120.5 145.5,-120.5"/>
<text text-anchor="middle" x="196" y="-127.5" font-family="Helvetica,sans-Serif" font-size="10.00">solve_shotdirection</text>
</a>
</g>
</g>
<!-- Node1&#45;&gt;Node20 -->
<g id="edge20" class="edge"><title>Node1&#45;&gt;Node20</title>
<path fill="none" stroke="midnightblue" d="M95.9338,-117.535C111.964,-119.552 129.57,-121.767 145.436,-123.763"/>
<polygon fill="midnightblue" stroke="midnightblue" points="96.0199,-114.018 85.6611,-116.242 95.1459,-120.963 96.0199,-114.018"/>
</g>
<!-- Node21 -->
<g id="node21" class="node"><title>Node21</title>
<g id="a_node21"><a xlink:href="../../d3/d4f/sv__main_8qc.html#a554af7e2ac58045168dad9eca30bc8b1" target="_top" xlink:title="StartFrame">
<polygon fill="none" stroke="black" points="163.5,-82.5 163.5,-101.5 228.5,-101.5 228.5,-82.5 163.5,-82.5"/>
<text text-anchor="middle" x="196" y="-89.5" font-family="Helvetica,sans-Serif" font-size="10.00">StartFrame</text>
</a>
</g>
</g>
<!-- Node1&#45;&gt;Node21 -->
<g id="edge21" class="edge"><title>Node1&#45;&gt;Node21</title>
<path fill="none" stroke="midnightblue" d="M95.6833,-104.497C118.042,-101.683 143.506,-98.4794 163.052,-96.02"/>
<polygon fill="midnightblue" stroke="midnightblue" points="95.1459,-101.037 85.6611,-105.758 96.0199,-107.982 95.1459,-101.037"/>
</g>
<!-- Node22 -->
<g id="node22" class="node"><title>Node22</title>
<g id="a_node22"><a xlink:href="../../d9/de7/jumppads_8qh.html#aac42770aa9202c7131759aa3341b4899" target="_top" xlink:title="trigger_push_calculatevelocity">
<polygon fill="none" stroke="black" points="122,-38.5 122,-57.5 270,-57.5 270,-38.5 122,-38.5"/>
<text text-anchor="middle" x="196" y="-45.5" font-family="Helvetica,sans-Serif" font-size="10.00">trigger_push_calculatevelocity</text>
</a>
</g>
</g>
<!-- Node1&#45;&gt;Node22 -->
<g id="edge22" class="edge"><title>Node1&#45;&gt;Node22</title>
<path fill="none" stroke="midnightblue" d="M71.1052,-96.7721C85.9365,-89.2484 104.754,-80.122 122,-73 135.744,-67.3241 151.294,-61.8702 164.499,-57.5128"/>
<polygon fill="midnightblue" stroke="midnightblue" points="69.2912,-93.769 61.9913,-101.448 72.4864,-99.9973 69.2912,-93.769"/>
</g>
<!-- Node3 -->
<g id="node3" class="node"><title>Node3</title>
<g id="a_node3"><a xlink:href="../../d4/d3f/tracing_8qh.html#a01fdafeeb02668e5b55cce3baccf9d01" target="_top" xlink:title="W_CalculateProjectileVelocity">
<polygon fill="none" stroke="black" points="306.5,-164.5 306.5,-183.5 455.5,-183.5 455.5,-164.5 306.5,-164.5"/>
<text text-anchor="middle" x="381" y="-171.5" font-family="Helvetica,sans-Serif" font-size="10.00">W_CalculateProjectileVelocity</text>
</a>
</g>
</g>
<!-- Node2&#45;&gt;Node3 -->
<g id="edge2" class="edge"><title>Node2&#45;&gt;Node3</title>
<path fill="none" stroke="midnightblue" d="M250.844,-171.883C268.167,-172.167 287.671,-172.486 306.173,-172.79"/>
<polygon fill="midnightblue" stroke="midnightblue" points="250.425,-168.375 240.368,-171.711 250.31,-175.374 250.425,-168.375"/>
</g>
<!-- Node4 -->
<g id="node4" class="node"><title>Node4</title>
<g id="a_node4"><a xlink:href="../../dd/d0c/sv__ctf_8qc.html#ac3752a0a10eae50c841c11564b380513" target="_top" xlink:title="ctf_Handle_Throw">
<polygon fill="none" stroke="black" points="502,-316.5 502,-335.5 598,-335.5 598,-316.5 502,-316.5"/>
<text text-anchor="middle" x="550" y="-323.5" font-family="Helvetica,sans-Serif" font-size="10.00">ctf_Handle_Throw</text>
</a>
</g>
</g>
<!-- Node3&#45;&gt;Node4 -->
<g id="edge3" class="edge"><title>Node3&#45;&gt;Node4</title>
<path fill="none" stroke="midnightblue" d="M400.006,-190.389C434.914,-222.161 510.797,-291.228 538.557,-316.495"/>
<polygon fill="midnightblue" stroke="midnightblue" points="402.198,-187.651 392.447,-183.508 397.486,-192.828 402.198,-187.651"/>
</g>
<!-- Node12 -->
<g id="node12" class="node"><title>Node12</title>
<g id="a_node12"><a xlink:href="../../da/d2c/sv__keyhunt_8qc.html#a3195fb7f198ff78955159887597a2a3b" target="_top" xlink:title="kh_Key_DropOne">
<polygon fill="none" stroke="black" points="503,-240.5 503,-259.5 597,-259.5 597,-240.5 503,-240.5"/>
<text text-anchor="middle" x="550" y="-247.5" font-family="Helvetica,sans-Serif" font-size="10.00">kh_Key_DropOne</text>
</a>
</g>
</g>
<!-- Node3&#45;&gt;Node12 -->
<g id="edge12" class="edge"><title>Node3&#45;&gt;Node12</title>
<path fill="none" stroke="midnightblue" d="M407.369,-188.593C429.32,-200.866 462.144,-218.38 492,-231 500.071,-234.411 508.982,-237.63 517.313,-240.414"/>
<polygon fill="midnightblue" stroke="midnightblue" points="408.812,-185.388 398.383,-183.521 405.371,-191.484 408.812,-185.388"/>
</g>
<!-- Node14 -->
<g id="node14" class="node"><title>Node14</title>
<g id="a_node14"><a xlink:href="../../da/d2c/sv__keyhunt_8qc.html#ad739070280b4ac5432bf5f6f5a7f1e30" target="_top" xlink:title="kh_Key_DropAll">
<polygon fill="none" stroke="black" points="506.5,-202.5 506.5,-221.5 593.5,-221.5 593.5,-202.5 506.5,-202.5"/>
<text text-anchor="middle" x="550" y="-209.5" font-family="Helvetica,sans-Serif" font-size="10.00">kh_Key_DropAll</text>
</a>
</g>
</g>
<!-- Node3&#45;&gt;Node14 -->
<g id="edge14" class="edge"><title>Node3&#45;&gt;Node14</title>
<path fill="none" stroke="midnightblue" d="M433.965,-185.824C457.509,-191.182 484.974,-197.431 507.162,-202.48"/>
<polygon fill="midnightblue" stroke="midnightblue" points="434.668,-182.395 424.141,-183.589 433.115,-189.221 434.668,-182.395"/>
</g>
<!-- Node16 -->
<g id="node16" class="node"><title>Node16</title>
<g id="a_node16"><a xlink:href="../../de/d4e/sv__weapon_8qc.html#a6ebbc410dd700d781fac2901f86ca558" target="_top" xlink:title="W_Nexball_Attack">
<polygon fill="none" stroke="black" points="501,-164.5 501,-183.5 599,-183.5 599,-164.5 501,-164.5"/>
<text text-anchor="middle" x="550" y="-171.5" font-family="Helvetica,sans-Serif" font-size="10.00">W_Nexball_Attack</text>
</a>
</g>
</g>
<!-- Node3&#45;&gt;Node16 -->
<g id="edge16" class="edge"><title>Node3&#45;&gt;Node16</title>
<path fill="none" stroke="midnightblue" d="M465.753,-174C477.704,-174 489.648,-174 500.606,-174"/>
<polygon fill="midnightblue" stroke="midnightblue" points="465.735,-170.5 455.735,-174 465.735,-177.5 465.735,-170.5"/>
</g>
<!-- Node17 -->
<g id="node17" class="node"><title>Node17</title>
<g id="a_node17"><a xlink:href="../../d4/d53/server_2impulse_8qc.html#a4c563bf06c68b4282ae4d7bf0d8d4fb8" target="_top" xlink:title="IMPULSE">
<polygon fill="none" stroke="black" points="519.5,-126.5 519.5,-145.5 580.5,-145.5 580.5,-126.5 519.5,-126.5"/>
<text text-anchor="middle" x="550" y="-133.5" font-family="Helvetica,sans-Serif" font-size="10.00">IMPULSE</text>
</a>
</g>
</g>
<!-- Node3&#45;&gt;Node17 -->
<g id="edge17" class="edge"><title>Node3&#45;&gt;Node17</title>
<path fill="none" stroke="midnightblue" d="M434.18,-162.127C462.183,-155.755 495.68,-148.133 519.246,-142.77"/>
<polygon fill="midnightblue" stroke="midnightblue" points="433.115,-158.779 424.141,-164.411 434.668,-165.605 433.115,-158.779"/>
</g>
<!-- Node18 -->
<g id="node18" class="node"><title>Node18</title>
<g id="a_node18"><a xlink:href="../../d4/d3f/tracing_8qh.html#a55f8f2b1828413bfb123a5fcb61b9f8e" target="_top" xlink:title="W_SetupProjVelocity\l_Explicit">
<polygon fill="none" stroke="black" points="495,-77 495,-107 605,-107 605,-77 495,-77"/>
<text text-anchor="start" x="503" y="-95" font-family="Helvetica,sans-Serif" font-size="10.00">W_SetupProjVelocity</text>
<text text-anchor="middle" x="550" y="-84" font-family="Helvetica,sans-Serif" font-size="10.00">_Explicit</text>
</a>
</g>
</g>
<!-- Node3&#45;&gt;Node18 -->
<g id="edge18" class="edge"><title>Node3&#45;&gt;Node18</title>
<path fill="none" stroke="midnightblue" d="M408.542,-159.632C430.672,-147.801 463.131,-130.793 492,-117 498.923,-113.693 506.39,-110.297 513.567,-107.116"/>
<polygon fill="midnightblue" stroke="midnightblue" points="406.887,-156.548 399.731,-164.361 410.197,-162.716 406.887,-156.548"/>
</g>
<!-- Node5 -->
<g id="node5" class="node"><title>Node5</title>
<g id="a_node5"><a xlink:href="../../dd/d0c/sv__ctf_8qc.html#a8edcce745140a0191b957e969f8a2cfb" target="_top" xlink:title="ctf_FlagThink">
<polygon fill="none" stroke="black" points="683,-392.5 683,-411.5 759,-411.5 759,-392.5 683,-392.5"/>
<text text-anchor="middle" x="721" y="-399.5" font-family="Helvetica,sans-Serif" font-size="10.00">ctf_FlagThink</text>
</a>
</g>
</g>
<!-- Node4&#45;&gt;Node5 -->
<g id="edge4" class="edge"><title>Node4&#45;&gt;Node5</title>
<path fill="none" stroke="midnightblue" d="M572.016,-341.47C590.238,-354.234 617.74,-371.977 644,-383 656.29,-388.159 670.308,-392.152 682.929,-395.116"/>
<polygon fill="midnightblue" stroke="midnightblue" points="574.036,-338.612 563.862,-335.656 569.972,-344.312 574.036,-338.612"/>
</g>
<!-- Node8 -->
<g id="node8" class="node"><title>Node8</title>
<g id="a_node8"><a xlink:href="../../dd/d0c/sv__ctf_8qc.html#aa395d9b23fb8f306da8fba5841d0c960" target="_top" xlink:title="ctf_RemovePlayer">
<polygon fill="none" stroke="black" points="672,-316.5 672,-335.5 770,-335.5 770,-316.5 672,-316.5"/>
<text text-anchor="middle" x="721" y="-323.5" font-family="Helvetica,sans-Serif" font-size="10.00">ctf_RemovePlayer</text>
</a>
</g>
</g>
<!-- Node4&#45;&gt;Node8 -->
<g id="edge7" class="edge"><title>Node4&#45;&gt;Node8</title>
<path fill="none" stroke="midnightblue" d="M608.29,-326C628.904,-326 651.936,-326 671.707,-326"/>
<polygon fill="midnightblue" stroke="midnightblue" points="608.076,-322.5 598.076,-326 608.076,-329.5 608.076,-322.5"/>
</g>
<!-- Node10 -->
<g id="node10" class="node"><title>Node10</title>
<g id="a_node10"><a xlink:href="../../dd/d0c/sv__ctf_8qc.html#afb2c59bc3b1ee0e0518cc645b93ddaff" target="_top" xlink:title="ctf_Reset">
<polygon fill="none" stroke="black" points="691.5,-354.5 691.5,-373.5 750.5,-373.5 750.5,-354.5 691.5,-354.5"/>
<text text-anchor="middle" x="721" y="-361.5" font-family="Helvetica,sans-Serif" font-size="10.00">ctf_Reset</text>
</a>
</g>
</g>
<!-- Node4&#45;&gt;Node10 -->
<g id="edge9" class="edge"><title>Node4&#45;&gt;Node10</title>
<path fill="none" stroke="midnightblue" d="M603.629,-337.834C632.624,-344.353 667.484,-352.192 691.445,-357.579"/>
<polygon fill="midnightblue" stroke="midnightblue" points="604.17,-334.368 593.646,-335.589 602.634,-341.198 604.17,-334.368"/>
</g>
<!-- Node11 -->
<g id="node11" class="node"><title>Node11</title>
<g id="a_node11"><a xlink:href="../../dd/d0c/sv__ctf_8qc.html#a1302d7a2b6b1a14904d2cd3d2cfb34f6" target="_top" xlink:title="MUTATOR_HOOKFUNCTION">
<polygon fill="none" stroke="black" points="644.5,-278.5 644.5,-297.5 797.5,-297.5 797.5,-278.5 644.5,-278.5"/>
<text text-anchor="middle" x="721" y="-285.5" font-family="Helvetica,sans-Serif" font-size="10.00">MUTATOR_HOOKFUNCTION</text>
</a>
</g>
</g>
<!-- Node4&#45;&gt;Node11 -->
<g id="edge11" class="edge"><title>Node4&#45;&gt;Node11</title>
<path fill="none" stroke="midnightblue" d="M603.587,-314.176C627.413,-308.818 655.207,-302.569 677.661,-297.52"/>
<polygon fill="midnightblue" stroke="midnightblue" points="602.634,-310.802 593.646,-316.411 604.17,-317.632 602.634,-310.802"/>
</g>
<!-- Node6 -->
<g id="node6" class="node"><title>Node6</title>
<g id="a_node6"><a xlink:href="../../dd/d0c/sv__ctf_8qc.html#ae4da0b9f3b47d57388ba498d2baed651" target="_top" xlink:title="ctf_FlagSetup">
<polygon fill="none" stroke="black" points="872.5,-373.5 872.5,-392.5 949.5,-392.5 949.5,-373.5 872.5,-373.5"/>
<text text-anchor="middle" x="911" y="-380.5" font-family="Helvetica,sans-Serif" font-size="10.00">ctf_FlagSetup</text>
</a>
</g>
</g>
<!-- Node5&#45;&gt;Node6 -->
<g id="edge5" class="edge"><title>Node5&#45;&gt;Node6</title>
<path fill="none" stroke="midnightblue" d="M769.131,-397.237C801.024,-394.014 842.592,-389.813 872.291,-386.811"/>
<polygon fill="midnightblue" stroke="midnightblue" points="768.74,-393.758 759.143,-398.246 769.444,-400.723 768.74,-393.758"/>
</g>
<!-- Node7 -->
<g id="node7" class="node"><title>Node7</title>
<g id="a_node7"><a xlink:href="../../dd/d0c/sv__ctf_8qc.html#a2a2129ef74628a0c8bef5d48a016e3e0" target="_top" xlink:title="spawnfunc">
<polygon fill="none" stroke="black" points="1024,-373.5 1024,-392.5 1088,-392.5 1088,-373.5 1024,-373.5"/>
<text text-anchor="middle" x="1056" y="-380.5" font-family="Helvetica,sans-Serif" font-size="10.00">spawnfunc</text>
</a>
</g>
</g>
<!-- Node6&#45;&gt;Node7 -->
<g id="edge6" class="edge"><title>Node6&#45;&gt;Node7</title>
<path fill="none" stroke="midnightblue" d="M959.676,-383C980.85,-383 1005.17,-383 1023.95,-383"/>
<polygon fill="midnightblue" stroke="midnightblue" points="959.572,-379.5 949.572,-383 959.572,-386.5 959.572,-379.5"/>
</g>
<!-- Node9 -->
<g id="node9" class="node"><title>Node9</title>
<g id="a_node9"><a xlink:href="../../dd/d0c/sv__ctf_8qc.html#a84e217ec8d3a0d610c08fca44308afda" target="_top" xlink:title="MUTATOR_HOOKFUNCTION">
<polygon fill="none" stroke="black" points="834.5,-316.5 834.5,-335.5 987.5,-335.5 987.5,-316.5 834.5,-316.5"/>
<text text-anchor="middle" x="911" y="-323.5" font-family="Helvetica,sans-Serif" font-size="10.00">MUTATOR_HOOKFUNCTION</text>
</a>
</g>
</g>
<!-- Node8&#45;&gt;Node9 -->
<g id="edge8" class="edge"><title>Node8&#45;&gt;Node9</title>
<path fill="none" stroke="midnightblue" d="M780.737,-326C797.728,-326 816.516,-326 834.382,-326"/>
<polygon fill="midnightblue" stroke="midnightblue" points="780.415,-322.5 770.415,-326 780.415,-329.5 780.415,-322.5"/>
</g>
<!-- Node10&#45;&gt;Node6 -->
<g id="edge10" class="edge"><title>Node10&#45;&gt;Node6</title>
<path fill="none" stroke="midnightblue" d="M760.652,-367.906C793.371,-371.213 839.986,-375.924 872.402,-379.2"/>
<polygon fill="midnightblue" stroke="midnightblue" points="760.854,-364.409 750.553,-366.886 760.151,-371.374 760.854,-364.409"/>
</g>
<!-- Node13 -->
<g id="node13" class="node"><title>Node13</title>
<g id="a_node13"><a xlink:href="../../da/d2c/sv__keyhunt_8qc.html#a0c4b3f90846ae47f1373f5abf1e6cf11" target="_top" xlink:title="MUTATOR_HOOKFUNCTION">
<polygon fill="none" stroke="black" points="644.5,-240.5 644.5,-259.5 797.5,-259.5 797.5,-240.5 644.5,-240.5"/>
<text text-anchor="middle" x="721" y="-247.5" font-family="Helvetica,sans-Serif" font-size="10.00">MUTATOR_HOOKFUNCTION</text>
</a>
</g>
</g>
<!-- Node12&#45;&gt;Node13 -->
<g id="edge13" class="edge"><title>Node12&#45;&gt;Node13</title>
<path fill="none" stroke="midnightblue" d="M607.347,-250C619.191,-250 631.868,-250 644.29,-250"/>
<polygon fill="midnightblue" stroke="midnightblue" points="607.18,-246.5 597.18,-250 607.18,-253.5 607.18,-246.5"/>
</g>
<!-- Node15 -->
<g id="node15" class="node"><title>Node15</title>
<g id="a_node15"><a xlink:href="../../da/d2c/sv__keyhunt_8qc.html#a0762849f04090d517155ac123bbcd625" target="_top" xlink:title="MUTATOR_HOOKFUNCTION">
<polygon fill="none" stroke="black" points="644.5,-202.5 644.5,-221.5 797.5,-221.5 797.5,-202.5 644.5,-202.5"/>
<text text-anchor="middle" x="721" y="-209.5" font-family="Helvetica,sans-Serif" font-size="10.00">MUTATOR_HOOKFUNCTION</text>
</a>
</g>
</g>
<!-- Node14&#45;&gt;Node15 -->
<g id="edge15" class="edge"><title>Node14&#45;&gt;Node15</title>
<path fill="none" stroke="midnightblue" d="M603.728,-212C616.644,-212 630.72,-212 644.474,-212"/>
<polygon fill="midnightblue" stroke="midnightblue" points="603.646,-208.5 593.646,-212 603.646,-215.5 603.646,-208.5"/>
</g>
<!-- Node19 -->
<g id="node19" class="node"><title>Node19</title>
<g id="a_node19"><a xlink:href="../../d7/de2/g__hook_8qc.html#ae2567f613b4799b5612e9c755231e62f" target="_top" xlink:title="FireGrapplingHook">
<polygon fill="none" stroke="black" points="672,-82.5 672,-101.5 770,-101.5 770,-82.5 672,-82.5"/>
<text text-anchor="middle" x="721" y="-89.5" font-family="Helvetica,sans-Serif" font-size="10.00">FireGrapplingHook</text>
</a>
</g>
</g>
<!-- Node18&#45;&gt;Node19 -->
<g id="edge19" class="edge"><title>Node18&#45;&gt;Node19</title>
<path fill="none" stroke="midnightblue" d="M615.636,-92C634.357,-92 654.457,-92 671.971,-92"/>
<polygon fill="midnightblue" stroke="midnightblue" points="615.403,-88.5001 605.403,-92 615.403,-95.5001 615.403,-88.5001"/>
</g>
<!-- Node23 -->
<g id="node23" class="node"><title>Node23</title>
<g id="a_node23"><a xlink:href="../../d2/d9b/jumppads_8qc.html#ae9271783043a000e2b18d8be9543c580" target="_top" xlink:title="jumppad_push">
<polygon fill="none" stroke="black" points="341,-38.5 341,-57.5 421,-57.5 421,-38.5 341,-38.5"/>
<text text-anchor="middle" x="381" y="-45.5" font-family="Helvetica,sans-Serif" font-size="10.00">jumppad_push</text>
</a>
</g>
</g>
<!-- Node22&#45;&gt;Node23 -->
<g id="edge23" class="edge"><title>Node22&#45;&gt;Node23</title>
<path fill="none" stroke="midnightblue" d="M280.12,-48C301.311,-48 323.107,-48 340.91,-48"/>
<polygon fill="midnightblue" stroke="midnightblue" points="280.115,-44.5001 270.115,-48 280.115,-51.5001 280.115,-44.5001"/>
</g>
<!-- Node25 -->
<g id="node25" class="node"><title>Node25</title>
<g id="a_node25"><a xlink:href="../../d9/de7/jumppads_8qh.html#a8395a082e3537066195813075d3ec553" target="_top" xlink:title="if (item != NULL) returns true if the item can be reached by using this jumppad, false otherwise if (...">
<polygon fill="none" stroke="black" points="335,-0.5 335,-19.5 427,-19.5 427,-0.5 335,-0.5"/>
<text text-anchor="middle" x="381" y="-7.5" font-family="Helvetica,sans-Serif" font-size="10.00">trigger_push_test</text>
</a>
</g>
</g>
<!-- Node22&#45;&gt;Node25 -->
<g id="edge25" class="edge"><title>Node22&#45;&gt;Node25</title>
<path fill="none" stroke="midnightblue" d="M252.985,-36.3747C279.218,-30.9273 310.062,-24.5226 334.786,-19.3887"/>
<polygon fill="midnightblue" stroke="midnightblue" points="252.258,-32.9509 243.179,-38.411 253.681,-39.8047 252.258,-32.9509"/>
</g>
<!-- Node24 -->
<g id="node24" class="node"><title>Node24</title>
<g id="a_node24"><a xlink:href="../../d9/de7/jumppads_8qh.html#affeed36a4bfbccc789a223127cd20da4" target="_top" xlink:title="trigger_push_touch">
<polygon fill="none" stroke="black" points="500.5,-38.5 500.5,-57.5 599.5,-57.5 599.5,-38.5 500.5,-38.5"/>
<text text-anchor="middle" x="550" y="-45.5" font-family="Helvetica,sans-Serif" font-size="10.00">trigger_push_touch</text>
</a>
</g>
</g>
<!-- Node23&#45;&gt;Node24 -->
<g id="edge24" class="edge"><title>Node23&#45;&gt;Node24</title>
<path fill="none" stroke="midnightblue" d="M431.186,-48C452.96,-48 478.503,-48 500.229,-48"/>
<polygon fill="midnightblue" stroke="midnightblue" points="431.154,-44.5001 421.154,-48 431.154,-51.5001 431.154,-44.5001"/>
</g>
<!-- Node26 -->
<g id="node26" class="node"><title>Node26</title>
<g id="a_node26"><a xlink:href="../../d9/de7/jumppads_8qh.html#a66ad79d10244774bb2ebf5c354538d26" target="_top" xlink:title="trigger_push_findtarget">
<polygon fill="none" stroke="black" points="492,-0.5 492,-19.5 608,-19.5 608,-0.5 492,-0.5"/>
<text text-anchor="middle" x="550" y="-7.5" font-family="Helvetica,sans-Serif" font-size="10.00">trigger_push_findtarget</text>
</a>
</g>
</g>
<!-- Node25&#45;&gt;Node26 -->
<g id="edge26" class="edge"><title>Node25&#45;&gt;Node26</title>
<path fill="none" stroke="midnightblue" d="M437.258,-10C454.77,-10 474.159,-10 491.804,-10"/>
<polygon fill="midnightblue" stroke="midnightblue" points="437.193,-6.5001 427.193,-10 437.193,-13.5001 437.193,-6.5001"/>
</g>
</g>
</svg>
