<?xml version="1.0" encoding="UTF-8" standalone="no"?>
<!DOCTYPE svg PUBLIC "-//W3C//DTD SVG 1.1//EN"
 "http://www.w3.org/Graphics/SVG/1.1/DTD/svg11.dtd">
<!-- Generated by graphviz version 2.36.0 (20140111.2315)
 -->
<!-- Title: MapInfo_LoadMap Pages: 1 -->
<svg width="1116pt" height="180pt"
 viewBox="0.00 0.00 1116.00 180.00" xmlns="http://www.w3.org/2000/svg" xmlns:xlink="http://www.w3.org/1999/xlink">
<g id="graph0" class="graph" transform="scale(1 1) rotate(0) translate(4 176)">
<title>MapInfo_LoadMap</title>
<!-- Node1 -->
<g id="node1" class="node"><title>Node1</title>
<polygon fill="#bfbfbf" stroke="black" points="0.5,-95.5 0.5,-114.5 97.5,-114.5 97.5,-95.5 0.5,-95.5"/>
<text text-anchor="middle" x="49" y="-102.5" font-family="Helvetica,sans-Serif" font-size="10.00">MapInfo_LoadMap</text>
</g>
<!-- Node2 -->
<g id="node2" class="node"><title>Node2</title>
<g id="a_node2"><a xlink:href="../../db/d73/campaign__setup_8qc.html#aaa64dc89313bcf520b231ef1f80bee48" target="_top" xlink:title="CampaignSetup">
<polygon fill="none" stroke="black" points="151,-152.5 151,-171.5 237,-171.5 237,-152.5 151,-152.5"/>
<text text-anchor="middle" x="194" y="-159.5" font-family="Helvetica,sans-Serif" font-size="10.00">CampaignSetup</text>
</a>
</g>
</g>
<!-- Node1&#45;&gt;Node2 -->
<g id="edge1" class="edge"><title>Node1&#45;&gt;Node2</title>
<path fill="none" stroke="midnightblue" d="M78.7942,-119.002C94.8532,-126.563 115.326,-135.796 134,-143 142.735,-146.37 152.347,-149.643 161.231,-152.497"/>
<polygon fill="midnightblue" stroke="midnightblue" points="79.955,-115.679 69.4212,-114.544 76.9481,-122 79.955,-115.679"/>
</g>
<!-- Node3 -->
<g id="node3" class="node"><title>Node3</title>
<g id="a_node3"><a xlink:href="../../da/d41/dialog__singleplayer_8qc.html#a688fce87e81db4573d97935bb9e2cd8c" target="_top" xlink:title="InstantAction_LoadMap">
<polygon fill="none" stroke="black" points="134.5,-114.5 134.5,-133.5 253.5,-133.5 253.5,-114.5 134.5,-114.5"/>
<text text-anchor="middle" x="194" y="-121.5" font-family="Helvetica,sans-Serif" font-size="10.00">InstantAction_LoadMap</text>
</a>
</g>
</g>
<!-- Node1&#45;&gt;Node3 -->
<g id="edge2" class="edge"><title>Node1&#45;&gt;Node3</title>
<path fill="none" stroke="midnightblue" d="M107.756,-112.674C116.533,-113.84 125.598,-115.044 134.393,-116.213"/>
<polygon fill="midnightblue" stroke="midnightblue" points="107.991,-109.174 97.6169,-111.327 107.069,-116.113 107.991,-109.174"/>
</g>
<!-- Node5 -->
<g id="node5" class="node"><title>Node5</title>
<g id="a_node5"><a xlink:href="../../d7/d97/g__world_8qh.html#a95bbd6b9aa214a845cb50bbbb44cb939" target="_top" xlink:title="Map_Goto">
<polygon fill="none" stroke="black" points="163,-76.5 163,-95.5 225,-95.5 225,-76.5 163,-76.5"/>
<text text-anchor="middle" x="194" y="-83.5" font-family="Helvetica,sans-Serif" font-size="10.00">Map_Goto</text>
</a>
</g>
</g>
<!-- Node1&#45;&gt;Node5 -->
<g id="edge4" class="edge"><title>Node1&#45;&gt;Node5</title>
<path fill="none" stroke="midnightblue" d="M107.614,-97.3451C126.454,-94.8418 146.632,-92.1607 162.641,-90.0338"/>
<polygon fill="midnightblue" stroke="midnightblue" points="107.069,-93.8866 97.6169,-98.6733 107.991,-100.826 107.069,-93.8866"/>
</g>
<!-- Node13 -->
<g id="node13" class="node"><title>Node13</title>
<g id="a_node13"><a xlink:href="../../d6/dbf/maplist_8qh.html#afd87bfe54f2f033ab0047e24d8e18e26" target="_top" xlink:title="MapList_LoadMap">
<polygon fill="none" stroke="black" points="146,-38.5 146,-57.5 242,-57.5 242,-38.5 146,-38.5"/>
<text text-anchor="middle" x="194" y="-45.5" font-family="Helvetica,sans-Serif" font-size="10.00">MapList_LoadMap</text>
</a>
</g>
</g>
<!-- Node1&#45;&gt;Node13 -->
<g id="edge14" class="edge"><title>Node1&#45;&gt;Node13</title>
<path fill="none" stroke="midnightblue" d="M78.7942,-90.9978C94.8532,-83.4369 115.326,-74.204 134,-67 142.735,-63.6303 152.347,-60.3566 161.231,-57.5028"/>
<polygon fill="midnightblue" stroke="midnightblue" points="76.9481,-88.0001 69.4212,-95.4563 79.955,-94.3213 76.9481,-88.0001"/>
</g>
<!-- Node4 -->
<g id="node4" class="node"><title>Node4</title>
<g id="a_node4"><a xlink:href="../../da/d41/dialog__singleplayer_8qc.html#a845e97e974f104e8b4edcb06a3e8aa73" target="_top" xlink:title="XonoticSingleplayerDialog_fill">
<polygon fill="none" stroke="black" points="290,-114.5 290,-133.5 436,-133.5 436,-114.5 290,-114.5"/>
<text text-anchor="middle" x="363" y="-121.5" font-family="Helvetica,sans-Serif" font-size="10.00">XonoticSingleplayerDialog_fill</text>
</a>
</g>
</g>
<!-- Node3&#45;&gt;Node4 -->
<g id="edge3" class="edge"><title>Node3&#45;&gt;Node4</title>
<path fill="none" stroke="midnightblue" d="M264.127,-124C272.633,-124 281.344,-124 289.893,-124"/>
<polygon fill="midnightblue" stroke="midnightblue" points="263.878,-120.5 253.878,-124 263.878,-127.5 263.878,-120.5"/>
</g>
<!-- Node6 -->
<g id="node6" class="node"><title>Node6</title>
<g id="a_node6"><a xlink:href="../../d2/d76/server_2mapvoting_8qc.html#af51679015526b11c6c6f6ba11cb5b7e4" target="_top" xlink:title="MapVote_Finished">
<polygon fill="none" stroke="black" points="314,-76.5 314,-95.5 412,-95.5 412,-76.5 314,-76.5"/>
<text text-anchor="middle" x="363" y="-83.5" font-family="Helvetica,sans-Serif" font-size="10.00">MapVote_Finished</text>
</a>
</g>
</g>
<!-- Node5&#45;&gt;Node6 -->
<g id="edge5" class="edge"><title>Node5&#45;&gt;Node6</title>
<path fill="none" stroke="midnightblue" d="M235.298,-86C258.978,-86 289.057,-86 313.965,-86"/>
<polygon fill="midnightblue" stroke="midnightblue" points="235.242,-82.5001 225.242,-86 235.242,-89.5001 235.242,-82.5001"/>
</g>
<!-- Node7 -->
<g id="node7" class="node"><title>Node7</title>
<g id="a_node7"><a xlink:href="../../d3/d53/server_2mapvoting_8qh.html#a9e23e88fcace6381b529ac8060f0ad26" target="_top" xlink:title="GameTypeVote_Start">
<polygon fill="none" stroke="black" points="634.5,-95.5 634.5,-114.5 745.5,-114.5 745.5,-95.5 634.5,-95.5"/>
<text text-anchor="middle" x="690" y="-102.5" font-family="Helvetica,sans-Serif" font-size="10.00">GameTypeVote_Start</text>
</a>
</g>
</g>
<!-- Node6&#45;&gt;Node7 -->
<g id="edge6" class="edge"><title>Node6&#45;&gt;Node7</title>
<path fill="none" stroke="midnightblue" d="M422.409,-89.4147C482.606,-92.9339 575.713,-98.377 634.453,-101.811"/>
<polygon fill="midnightblue" stroke="midnightblue" points="422.492,-85.9137 412.305,-88.824 422.084,-92.9017 422.492,-85.9137"/>
</g>
<!-- Node11 -->
<g id="node11" class="node"><title>Node11</title>
<g id="a_node11"><a xlink:href="../../d2/d76/server_2mapvoting_8qc.html#a76e4720691beeecd37b230f0157c4527" target="_top" xlink:title="MapVote_CheckRules_2">
<polygon fill="none" stroke="black" points="472.5,-57.5 472.5,-76.5 597.5,-76.5 597.5,-57.5 472.5,-57.5"/>
<text text-anchor="middle" x="535" y="-64.5" font-family="Helvetica,sans-Serif" font-size="10.00">MapVote_CheckRules_2</text>
</a>
</g>
</g>
<!-- Node6&#45;&gt;Node11 -->
<g id="edge11" class="edge"><title>Node6&#45;&gt;Node11</title>
<path fill="none" stroke="midnightblue" d="M422.57,-79.4539C438.606,-77.6617 456.035,-75.7137 472.243,-73.9023"/>
<polygon fill="midnightblue" stroke="midnightblue" points="421.81,-76.017 412.26,-80.6062 422.587,-82.9737 421.81,-76.017"/>
</g>
<!-- Node8 -->
<g id="node8" class="node"><title>Node8</title>
<g id="a_node8"><a xlink:href="../../d3/d53/server_2mapvoting_8qh.html#a55a404e632b9599200cdd019f8c03964" target="_top" xlink:title="MapVote_Think">
<polygon fill="none" stroke="black" points="782.5,-76.5 782.5,-95.5 867.5,-95.5 867.5,-76.5 782.5,-76.5"/>
<text text-anchor="middle" x="825" y="-83.5" font-family="Helvetica,sans-Serif" font-size="10.00">MapVote_Think</text>
</a>
</g>
</g>
<!-- Node7&#45;&gt;Node8 -->
<g id="edge7" class="edge"><title>Node7&#45;&gt;Node8</title>
<path fill="none" stroke="midnightblue" d="M755.928,-95.7245C764.887,-94.4447 773.884,-93.1594 782.269,-91.9616"/>
<polygon fill="midnightblue" stroke="midnightblue" points="755.269,-92.2832 745.864,-97.1623 756.259,-99.2128 755.269,-92.2832"/>
</g>
<!-- Node9 -->
<g id="node9" class="node"><title>Node9</title>
<g id="a_node9"><a xlink:href="../../d7/d97/g__world_8qh.html#a233af455133bc7ba4e3e100115bf2885" target="_top" xlink:title="CheckRules_World">
<polygon fill="none" stroke="black" points="904.5,-76.5 904.5,-95.5 1005.5,-95.5 1005.5,-76.5 904.5,-76.5"/>
<text text-anchor="middle" x="955" y="-83.5" font-family="Helvetica,sans-Serif" font-size="10.00">CheckRules_World</text>
</a>
</g>
</g>
<!-- Node8&#45;&gt;Node9 -->
<g id="edge8" class="edge"><title>Node8&#45;&gt;Node9</title>
<path fill="none" stroke="midnightblue" d="M877.642,-86C886.393,-86 895.465,-86 904.168,-86"/>
<polygon fill="midnightblue" stroke="midnightblue" points="877.558,-82.5001 867.558,-86 877.558,-89.5001 877.558,-82.5001"/>
</g>
<!-- Node9&#45;&gt;Node9 -->
<g id="edge9" class="edge"><title>Node9&#45;&gt;Node9</title>
<path fill="none" stroke="midnightblue" d="M932.679,-105.029C933.896,-110.128 941.337,-114 955,-114 976.328,-114 982.493,-104.565 973.495,-95.7571"/>
<polygon fill="midnightblue" stroke="midnightblue" points="935.926,-106.336 936.505,-95.7571 929.455,-103.666 935.926,-106.336"/>
</g>
<!-- Node10 -->
<g id="node10" class="node"><title>Node10</title>
<g id="a_node10"><a xlink:href="../../d3/d4f/sv__main_8qc.html#a554af7e2ac58045168dad9eca30bc8b1" target="_top" xlink:title="StartFrame">
<polygon fill="none" stroke="black" points="1042.5,-76.5 1042.5,-95.5 1107.5,-95.5 1107.5,-76.5 1042.5,-76.5"/>
<text text-anchor="middle" x="1075" y="-83.5" font-family="Helvetica,sans-Serif" font-size="10.00">StartFrame</text>
</a>
</g>
</g>
<!-- Node9&#45;&gt;Node10 -->
<g id="edge10" class="edge"><title>Node9&#45;&gt;Node10</title>
<path fill="none" stroke="midnightblue" d="M1015.91,-86C1024.98,-86 1034.02,-86 1042.17,-86"/>
<polygon fill="midnightblue" stroke="midnightblue" points="1015.7,-82.5001 1005.7,-86 1015.7,-89.5001 1015.7,-82.5001"/>
</g>
<!-- Node12 -->
<g id="node12" class="node"><title>Node12</title>
<g id="a_node12"><a xlink:href="../../d2/d76/server_2mapvoting_8qc.html#a5ac2229ef4b363054b5b66d314e89437" target="_top" xlink:title="MapVote_Tick">
<polygon fill="none" stroke="black" points="650,-57.5 650,-76.5 730,-76.5 730,-57.5 650,-57.5"/>
<text text-anchor="middle" x="690" y="-64.5" font-family="Helvetica,sans-Serif" font-size="10.00">MapVote_Tick</text>
</a>
</g>
</g>
<!-- Node11&#45;&gt;Node12 -->
<g id="edge12" class="edge"><title>Node11&#45;&gt;Node12</title>
<path fill="none" stroke="midnightblue" d="M608.186,-67C622.553,-67 637.124,-67 649.863,-67"/>
<polygon fill="midnightblue" stroke="midnightblue" points="607.79,-63.5001 597.79,-67 607.79,-70.5001 607.79,-63.5001"/>
</g>
<!-- Node12&#45;&gt;Node8 -->
<g id="edge13" class="edge"><title>Node12&#45;&gt;Node8</title>
<path fill="none" stroke="midnightblue" d="M740.467,-74.0666C754.234,-76.0334 769.045,-78.1493 782.317,-80.0453"/>
<polygon fill="midnightblue" stroke="midnightblue" points="740.58,-70.5473 730.185,-72.5979 739.59,-77.477 740.58,-70.5473"/>
</g>
<!-- Node14 -->
<g id="node14" class="node"><title>Node14</title>
<g id="a_node14"><a xlink:href="../../d7/de3/dialog__multiplayer__create_8qc.html#a24e3f12ce458ad9114f67e09d8863862" target="_top" xlink:title="XonoticServerCreateTab_fill">
<polygon fill="none" stroke="black" points="293.5,-38.5 293.5,-57.5 432.5,-57.5 432.5,-38.5 293.5,-38.5"/>
<text text-anchor="middle" x="363" y="-45.5" font-family="Helvetica,sans-Serif" font-size="10.00">XonoticServerCreateTab_fill</text>
</a>
</g>
</g>
<!-- Node13&#45;&gt;Node14 -->
<g id="edge15" class="edge"><title>Node13&#45;&gt;Node14</title>
<path fill="none" stroke="midnightblue" d="M252.674,-48C265.76,-48 279.784,-48 293.276,-48"/>
<polygon fill="midnightblue" stroke="midnightblue" points="252.409,-44.5001 242.409,-48 252.409,-51.5001 252.409,-44.5001"/>
</g>
<!-- Node15 -->
<g id="node15" class="node"><title>Node15</title>
<g id="a_node15"><a xlink:href="../../df/d7d/dialog__multiplayer__create__mapinfo_8qc.html#acce086669cf0b84947e048b16b4ead4a" target="_top" xlink:title="XonoticMapInfoDialog_fill">
<polygon fill="none" stroke="black" points="299,-0.5 299,-19.5 427,-19.5 427,-0.5 299,-0.5"/>
<text text-anchor="middle" x="363" y="-7.5" font-family="Helvetica,sans-Serif" font-size="10.00">XonoticMapInfoDialog_fill</text>
</a>
</g>
</g>
<!-- Node13&#45;&gt;Node15 -->
<g id="edge16" class="edge"><title>Node13&#45;&gt;Node15</title>
<path fill="none" stroke="midnightblue" d="M246.965,-36.1757C270.509,-30.8184 297.974,-24.5689 320.162,-19.5201"/>
<polygon fill="midnightblue" stroke="midnightblue" points="246.115,-32.7794 237.141,-38.411 247.668,-39.6049 246.115,-32.7794"/>
</g>
</g>
</svg>
