<?xml version="1.0" encoding="UTF-8" standalone="no"?>
<!DOCTYPE svg PUBLIC "-//W3C//DTD SVG 1.1//EN"
 "http://www.w3.org/Graphics/SVG/1.1/DTD/svg11.dtd">
<!-- Generated by graphviz version 2.36.0 (20140111.2315)
 -->
<!-- Title: common/triggers/trigger/viewloc.qh Pages: 1 -->
<!--zoomable 400 -->
<svg id="main" version="1.1" xmlns="http://www.w3.org/2000/svg" xmlns:xlink="http://www.w3.org/1999/xlink" xml:space="preserve" onload="init(evt)">
<style type="text/css"><![CDATA[
.edge:hover path { stroke: red; }
.edge:hover polygon { stroke: red; fill: red; }
]]></style>
<script type="text/javascript"><![CDATA[
var edges = document.getElementsByTagName('g');
if (edges && edges.length) {
  for (var i=0;i<edges.length;i++) {
    if (edges[i].id.substr(0,4)=='edge') {
      edges[i].setAttribute('class','edge');
    }
  }
}
]]></script>
        <defs>
                <circle id="rim" cx="0" cy="0" r="7"/>
                <circle id="rim2" cx="0" cy="0" r="3.5"/>
                <g id="zoomPlus">
                        <use xlink:href="#rim" fill="#404040">
                                <set attributeName="fill" to="#808080" begin="zoomplus.mouseover" end="zoomplus.mouseout"/>
                        </use>
                        <path d="M-4,0h8M0,-4v8" fill="none" stroke="white" stroke-width="1.5" pointer-events="none"/>
                </g>
                <g id="zoomMin">
                        <use xlink:href="#rim" fill="#404040">
                                <set attributeName="fill" to="#808080" begin="zoomminus.mouseover" end="zoomminus.mouseout"/>
                        </use>
                        <path d="M-4,0h8" fill="none" stroke="white" stroke-width="1.5" pointer-events="none"/>
                </g>
                <g id="dirArrow">
                        <path fill="none" stroke="white" stroke-width="1.5" d="M0,-3.0v7 M-2.5,-0.5L0,-3.0L2.5,-0.5"/>
                </g>
               <g id="resetDef">
                       <use xlink:href="#rim2" fill="#404040">
                               <set attributeName="fill" to="#808080" begin="reset.mouseover" end="reset.mouseout"/>
                       </use>
               </g>
        </defs>

<script type="text/javascript">
var viewWidth = 507;
var viewHeight = 400;
var sectionId = 'dynsection-0';
</script>
<script xlink:href="../../svgpan.js"/>
<svg id="graph" class="graph">
<g id="viewport">
<title>common/triggers/trigger/viewloc.qh</title>
<!-- Node1 -->
<g id="node1" class="node"><title>Node1</title>
<polygon fill="#bfbfbf" stroke="black" points="301.5,-361 301.5,-391 420.5,-391 420.5,-361 301.5,-361"/>
<text text-anchor="start" x="309.5" y="-379" font-family="Helvetica,sans-Serif" font-size="10.00">common/triggers/trigger</text>
<text text-anchor="middle" x="361" y="-368" font-family="Helvetica,sans-Serif" font-size="10.00">/viewloc.qh</text>
</g>
<!-- Node2 -->
<g id="node2" class="node"><title>Node2</title>
<g id="a_node2"><a xlink:href="../../d5/d5f/trigger_2include_8qh.html" target="_top" xlink:title="common/triggers/trigger\l/include.qh">
<polygon fill="none" stroke="black" points="229.5,-293 229.5,-323 348.5,-323 348.5,-293 229.5,-293"/>
<text text-anchor="start" x="237.5" y="-311" font-family="Helvetica,sans-Serif" font-size="10.00">common/triggers/trigger</text>
<text text-anchor="middle" x="289" y="-300" font-family="Helvetica,sans-Serif" font-size="10.00">/include.qh</text>
</a>
</g>
</g>
<!-- Node1&#45;&gt;Node2 -->
<g id="edge1" class="edge"><title>Node1&#45;&gt;Node2</title>
<path fill="none" stroke="midnightblue" d="M337.847,-353.776C326.975,-343.81 314.304,-332.196 304.592,-323.293"/>
<polygon fill="midnightblue" stroke="midnightblue" points="335.64,-356.502 345.377,-360.679 340.371,-351.342 335.64,-356.502"/>
</g>
<!-- Node14 -->
<g id="node14" class="node"><title>Node14</title>
<g id="a_node14"><a xlink:href="../../d1/d25/lib_2csqcmodel_2cl__player_8qc.html" target="_top" xlink:title="lib/csqcmodel/cl_player.qc">
<polygon fill="none" stroke="black" points="367,-298.5 367,-317.5 499,-317.5 499,-298.5 367,-298.5"/>
<text text-anchor="middle" x="433" y="-305.5" font-family="Helvetica,sans-Serif" font-size="10.00">lib/csqcmodel/cl_player.qc</text>
</a>
</g>
</g>
<!-- Node1&#45;&gt;Node14 -->
<g id="edge17" class="edge"><title>Node1&#45;&gt;Node14</title>
<path fill="none" stroke="midnightblue" d="M384.071,-353.852C397.365,-341.666 413.371,-326.993 423.369,-317.828"/>
<polygon fill="midnightblue" stroke="midnightblue" points="381.629,-351.342 376.623,-360.679 386.36,-356.502 381.629,-351.342"/>
</g>
<!-- Node3 -->
<g id="node3" class="node"><title>Node3</title>
<g id="a_node3"><a xlink:href="../../d9/d7e/include_8qh.html" target="_top" xlink:title="common/triggers/include.qh">
<polygon fill="none" stroke="black" points="121.5,-230.5 121.5,-249.5 258.5,-249.5 258.5,-230.5 121.5,-230.5"/>
<text text-anchor="middle" x="190" y="-237.5" font-family="Helvetica,sans-Serif" font-size="10.00">common/triggers/include.qh</text>
</a>
</g>
</g>
<!-- Node2&#45;&gt;Node3 -->
<g id="edge2" class="edge"><title>Node2&#45;&gt;Node3</title>
<path fill="none" stroke="midnightblue" d="M259.008,-287.005C240.279,-274.52 217.116,-259.077 202.957,-249.638"/>
<polygon fill="midnightblue" stroke="midnightblue" points="257.256,-290.044 267.518,-292.679 261.139,-284.22 257.256,-290.044"/>
</g>
<!-- Node13 -->
<g id="node13" class="node"><title>Node13</title>
<g id="a_node13"><a xlink:href="../../d1/df1/trigger_2include_8qc.html" target="_top" xlink:title="common/triggers/trigger\l/include.qc">
<polygon fill="none" stroke="black" points="276.5,-225 276.5,-255 395.5,-255 395.5,-225 276.5,-225"/>
<text text-anchor="start" x="284.5" y="-243" font-family="Helvetica,sans-Serif" font-size="10.00">common/triggers/trigger</text>
<text text-anchor="middle" x="336" y="-232" font-family="Helvetica,sans-Serif" font-size="10.00">/include.qc</text>
</a>
</g>
</g>
<!-- Node2&#45;&gt;Node13 -->
<g id="edge15" class="edge"><title>Node2&#45;&gt;Node13</title>
<path fill="none" stroke="midnightblue" d="M305.155,-284.314C312.009,-274.689 319.79,-263.763 325.822,-255.293"/>
<polygon fill="midnightblue" stroke="midnightblue" points="302.148,-282.503 299.198,-292.679 307.85,-286.564 302.148,-282.503"/>
</g>
<!-- Node4 -->
<g id="node4" class="node"><title>Node4</title>
<g id="a_node4"><a xlink:href="../../df/d30/client_2main_8qc.html" target="_top" xlink:title="client/main.qc">
<polygon fill="none" stroke="black" points="222.5,-112.5 222.5,-131.5 299.5,-131.5 299.5,-112.5 222.5,-112.5"/>
<text text-anchor="middle" x="261" y="-119.5" font-family="Helvetica,sans-Serif" font-size="10.00">client/main.qc</text>
</a>
</g>
</g>
<!-- Node3&#45;&gt;Node4 -->
<g id="edge3" class="edge"><title>Node3&#45;&gt;Node4</title>
<path fill="none" stroke="midnightblue" d="M200.575,-221.723C216.026,-196.478 244.194,-150.458 255.794,-131.505"/>
<polygon fill="midnightblue" stroke="midnightblue" points="197.572,-219.925 195.337,-230.281 203.542,-223.579 197.572,-219.925"/>
</g>
<!-- Node6 -->
<g id="node6" class="node"><title>Node6</title>
<g id="a_node6"><a xlink:href="../../dc/ddd/player_8qc.html" target="_top" xlink:title="common/physics/player.qc">
<polygon fill="none" stroke="black" points="77,-168.5 77,-187.5 211,-187.5 211,-168.5 77,-168.5"/>
<text text-anchor="middle" x="144" y="-175.5" font-family="Helvetica,sans-Serif" font-size="10.00">common/physics/player.qc</text>
</a>
</g>
</g>
<!-- Node3&#45;&gt;Node6 -->
<g id="edge5" class="edge"><title>Node3&#45;&gt;Node6</title>
<path fill="none" stroke="midnightblue" d="M177.118,-222.198C168.484,-210.936 157.474,-196.574 150.578,-187.581"/>
<polygon fill="midnightblue" stroke="midnightblue" points="174.547,-224.597 183.409,-230.403 180.103,-220.338 174.547,-224.597"/>
</g>
<!-- Node11 -->
<g id="node11" class="node"><title>Node11</title>
<g id="a_node11"><a xlink:href="../../d8/dfa/include_8qc.html" target="_top" xlink:title="common/triggers/include.qc">
<polygon fill="none" stroke="black" points="267.5,-168.5 267.5,-187.5 404.5,-187.5 404.5,-168.5 267.5,-168.5"/>
<text text-anchor="middle" x="336" y="-175.5" font-family="Helvetica,sans-Serif" font-size="10.00">common/triggers/include.qc</text>
</a>
</g>
</g>
<!-- Node3&#45;&gt;Node11 -->
<g id="edge11" class="edge"><title>Node3&#45;&gt;Node11</title>
<path fill="none" stroke="midnightblue" d="M220.35,-226.527C248.715,-214.871 290.311,-197.776 315.121,-187.581"/>
<polygon fill="midnightblue" stroke="midnightblue" points="218.837,-223.365 210.918,-230.403 221.498,-229.84 218.837,-223.365"/>
</g>
<!-- Node12 -->
<g id="node12" class="node"><title>Node12</title>
<g id="a_node12"><a xlink:href="../../dc/d16/server_2cl__player_8qc.html" target="_top" xlink:title="server/cl_player.qc">
<polygon fill="none" stroke="black" points="-0.5,-56.5 -0.5,-75.5 98.5,-75.5 98.5,-56.5 -0.5,-56.5"/>
<text text-anchor="middle" x="49" y="-63.5" font-family="Helvetica,sans-Serif" font-size="10.00">server/cl_player.qc</text>
</a>
</g>
</g>
<!-- Node3&#45;&gt;Node12 -->
<g id="edge13" class="edge"><title>Node3&#45;&gt;Node12</title>
<path fill="none" stroke="midnightblue" d="M131.31,-227.504C108.221,-220.035 83.5616,-207.833 68,-188 41.2223,-153.872 45.0564,-97.2994 47.7188,-75.7248"/>
<polygon fill="midnightblue" stroke="midnightblue" points="130.494,-230.913 141.078,-230.423 132.499,-224.206 130.494,-230.913"/>
</g>
<!-- Node5 -->
<g id="node5" class="node"><title>Node5</title>
<g id="a_node5"><a xlink:href="../../d3/dfc/client_2progs_8inc.html" target="_top" xlink:title="client/progs.inc">
<polygon fill="none" stroke="black" points="220.5,-0.5 220.5,-19.5 303.5,-19.5 303.5,-0.5 220.5,-0.5"/>
<text text-anchor="middle" x="262" y="-7.5" font-family="Helvetica,sans-Serif" font-size="10.00">client/progs.inc</text>
</a>
</g>
</g>
<!-- Node4&#45;&gt;Node5 -->
<g id="edge4" class="edge"><title>Node4&#45;&gt;Node5</title>
<path fill="none" stroke="midnightblue" d="M261.17,-102.348C261.389,-78.2538 261.761,-37.3079 261.922,-19.5914"/>
<polygon fill="midnightblue" stroke="midnightblue" points="257.67,-102.337 261.078,-112.368 264.669,-102.401 257.67,-102.337"/>
</g>
<!-- Node7 -->
<g id="node7" class="node"><title>Node7</title>
<g id="a_node7"><a xlink:href="../../d7/de4/common_2physics_2all_8inc.html" target="_top" xlink:title="common/physics/all.inc">
<polygon fill="none" stroke="black" points="84.5,-112.5 84.5,-131.5 203.5,-131.5 203.5,-112.5 84.5,-112.5"/>
<text text-anchor="middle" x="144" y="-119.5" font-family="Helvetica,sans-Serif" font-size="10.00">common/physics/all.inc</text>
</a>
</g>
</g>
<!-- Node6&#45;&gt;Node7 -->
<g id="edge6" class="edge"><title>Node6&#45;&gt;Node7</title>
<path fill="none" stroke="midnightblue" d="M144,-157.805C144,-148.91 144,-138.78 144,-131.751"/>
<polygon fill="midnightblue" stroke="midnightblue" points="140.5,-158.083 144,-168.083 147.5,-158.083 140.5,-158.083"/>
</g>
<!-- Node8 -->
<g id="node8" class="node"><title>Node8</title>
<g id="a_node8"><a xlink:href="../../d9/d76/common_2__all_8inc.html" target="_top" xlink:title="common/_all.inc">
<polygon fill="none" stroke="black" points="117,-56.5 117,-75.5 205,-75.5 205,-56.5 117,-56.5"/>
<text text-anchor="middle" x="161" y="-63.5" font-family="Helvetica,sans-Serif" font-size="10.00">common/_all.inc</text>
</a>
</g>
</g>
<!-- Node7&#45;&gt;Node8 -->
<g id="edge7" class="edge"><title>Node7&#45;&gt;Node8</title>
<path fill="none" stroke="midnightblue" d="M149.857,-102.396C152.701,-93.362 155.983,-82.936 158.245,-75.7511"/>
<polygon fill="midnightblue" stroke="midnightblue" points="146.472,-101.493 146.807,-112.083 153.149,-103.596 146.472,-101.493"/>
</g>
<!-- Node8&#45;&gt;Node5 -->
<g id="edge8" class="edge"><title>Node8&#45;&gt;Node5</title>
<path fill="none" stroke="midnightblue" d="M186.083,-51.5895C204.757,-41.6052 229.704,-28.2672 245.813,-19.6545"/>
<polygon fill="midnightblue" stroke="midnightblue" points="184.396,-48.5224 177.227,-56.324 187.696,-54.6955 184.396,-48.5224"/>
</g>
<!-- Node9 -->
<g id="node9" class="node"><title>Node9</title>
<g id="a_node9"><a xlink:href="../../d3/d70/menu_2progs_8inc.html" target="_top" xlink:title="menu/progs.inc">
<polygon fill="none" stroke="black" points="119.5,-0.5 119.5,-19.5 202.5,-19.5 202.5,-0.5 119.5,-0.5"/>
<text text-anchor="middle" x="161" y="-7.5" font-family="Helvetica,sans-Serif" font-size="10.00">menu/progs.inc</text>
</a>
</g>
</g>
<!-- Node8&#45;&gt;Node9 -->
<g id="edge9" class="edge"><title>Node8&#45;&gt;Node9</title>
<path fill="none" stroke="midnightblue" d="M161,-45.8045C161,-36.9102 161,-26.7798 161,-19.7511"/>
<polygon fill="midnightblue" stroke="midnightblue" points="157.5,-46.083 161,-56.083 164.5,-46.083 157.5,-46.083"/>
</g>
<!-- Node10 -->
<g id="node10" class="node"><title>Node10</title>
<g id="a_node10"><a xlink:href="../../dd/d96/server_2progs_8inc.html" target="_top" xlink:title="server/progs.inc">
<polygon fill="none" stroke="black" points="11,-0.5 11,-19.5 97,-19.5 97,-0.5 11,-0.5"/>
<text text-anchor="middle" x="54" y="-7.5" font-family="Helvetica,sans-Serif" font-size="10.00">server/progs.inc</text>
</a>
</g>
</g>
<!-- Node8&#45;&gt;Node10 -->
<g id="edge10" class="edge"><title>Node8&#45;&gt;Node10</title>
<path fill="none" stroke="midnightblue" d="M134.698,-51.7261C114.885,-41.7271 88.2925,-28.3065 71.1487,-19.6545"/>
<polygon fill="midnightblue" stroke="midnightblue" points="133.304,-54.9431 143.809,-56.324 136.458,-48.6938 133.304,-54.9431"/>
</g>
<!-- Node11&#45;&gt;Node8 -->
<g id="edge12" class="edge"><title>Node11&#45;&gt;Node8</title>
<path fill="none" stroke="midnightblue" d="M332.503,-158.599C328.808,-144.022 321.564,-124.153 308,-112 279.573,-86.5321 237.037,-75.4754 205.023,-70.6766"/>
<polygon fill="midnightblue" stroke="midnightblue" points="329.114,-159.485 334.682,-168.499 335.95,-157.98 329.114,-159.485"/>
</g>
<!-- Node12&#45;&gt;Node10 -->
<g id="edge14" class="edge"><title>Node12&#45;&gt;Node10</title>
<path fill="none" stroke="midnightblue" d="M50.75,-46.1005C51.58,-37.1357 52.5317,-26.8579 53.1897,-19.7511"/>
<polygon fill="midnightblue" stroke="midnightblue" points="47.2626,-45.8029 49.8256,-56.083 54.2328,-46.4483 47.2626,-45.8029"/>
</g>
<!-- Node13&#45;&gt;Node11 -->
<g id="edge16" class="edge"><title>Node13&#45;&gt;Node11</title>
<path fill="none" stroke="midnightblue" d="M336,-214.586C336,-205.074 336,-194.786 336,-187.731"/>
<polygon fill="midnightblue" stroke="midnightblue" points="332.5,-214.781 336,-224.781 339.5,-214.781 332.5,-214.781"/>
</g>
<!-- Node14&#45;&gt;Node5 -->
<g id="edge18" class="edge"><title>Node14&#45;&gt;Node5</title>
<path fill="none" stroke="midnightblue" d="M433,-288.081C433,-263.103 433,-217.752 433,-179 433,-179 433,-179 433,-121 433,-59.7554 354.456,-31.0003 303.831,-18.8273"/>
<polygon fill="midnightblue" stroke="midnightblue" points="429.5,-288.309 433,-298.309 436.5,-288.309 429.5,-288.309"/>
</g>
</g>
</svg>
        <g id="navigator" transform="translate(0 0)" fill="#404254">
                <rect fill="#f2f5e9" fill-opacity="0.5" stroke="#606060" stroke-width=".5" x="0" y="0" width="60" height="60"/>
                <use id="zoomplus" xlink:href="#zoomPlus" x="17" y="9" onmousedown="handleZoom(evt,'in')"/>
                <use id="zoomminus" xlink:href="#zoomMin" x="42" y="9" onmousedown="handleZoom(evt,'out')"/>
                <use id="reset" xlink:href="#resetDef" x="30" y="36" onmousedown="handleReset()"/>
                <g id="arrowUp" xlink:href="#dirArrow" transform="translate(30 24)" onmousedown="handlePan(0,-1)">
                  <use xlink:href="#rim" fill="#404040">
                        <set attributeName="fill" to="#808080" begin="arrowUp.mouseover" end="arrowUp.mouseout"/>
                  </use>
                  <path fill="none" stroke="white" stroke-width="1.5" d="M0,-3.0v7 M-2.5,-0.5L0,-3.0L2.5,-0.5"/>
                </g>
                <g id="arrowRight" xlink:href="#dirArrow" transform="rotate(90) translate(36 -43)" onmousedown="handlePan(1,0)">
                  <use xlink:href="#rim" fill="#404040">
                        <set attributeName="fill" to="#808080" begin="arrowRight.mouseover" end="arrowRight.mouseout"/>
                  </use>
                  <path fill="none" stroke="white" stroke-width="1.5" d="M0,-3.0v7 M-2.5,-0.5L0,-3.0L2.5,-0.5"/>
                </g>
                <g id="arrowDown" xlink:href="#dirArrow" transform="rotate(180) translate(-30 -48)" onmousedown="handlePan(0,1)">
                  <use xlink:href="#rim" fill="#404040">
                        <set attributeName="fill" to="#808080" begin="arrowDown.mouseover" end="arrowDown.mouseout"/>
                  </use>
                  <path fill="none" stroke="white" stroke-width="1.5" d="M0,-3.0v7 M-2.5,-0.5L0,-3.0L2.5,-0.5"/>
                </g>
                <g id="arrowLeft" xlink:href="#dirArrow" transform="rotate(270) translate(-36 17)" onmousedown="handlePan(-1,0)">
                  <use xlink:href="#rim" fill="#404040">
                        <set attributeName="fill" to="#808080" begin="arrowLeft.mouseover" end="arrowLeft.mouseout"/>
                  </use>
                  <path fill="none" stroke="white" stroke-width="1.5" d="M0,-3.0v7 M-2.5,-0.5L0,-3.0L2.5,-0.5"/>
                </g>
        </g>
        <svg viewBox="0 0 15 15" width="100%" height="30px" preserveAspectRatio="xMaxYMin meet">
         <g id="arrow_out" transform="scale(0.3 0.3)">
          <a xlink:href="triggers_2trigger_2viewloc_8qh__dep__incl_org.svg" target="_base">
           <rect id="button" ry="5" rx="5" y="6" x="6" height="38" width="38"
                fill="#f2f5e9" fill-opacity="0.5" stroke="#606060" stroke-width="1.0"/>
           <path id="arrow"
             d="M 11.500037,31.436501 C 11.940474,20.09759 22.043105,11.32322 32.158766,21.979434 L 37.068811,17.246167 C 37.068811,17.246167 37.088388,32 37.088388,32 L 22.160133,31.978069 C 22.160133,31.978069 26.997745,27.140456 26.997745,27.140456 C 18.528582,18.264221 13.291696,25.230495 11.500037,31.436501 z"
             style="fill:#404040;"/>
          </a>
         </g>
        </svg>
</svg>
