<?xml version="1.0" encoding="UTF-8" standalone="no"?>
<!DOCTYPE svg PUBLIC "-//W3C//DTD SVG 1.1//EN"
 "http://www.w3.org/Graphics/SVG/1.1/DTD/svg11.dtd">
<!-- Generated by graphviz version 2.36.0 (20140111.2315)
 -->
<!-- Title: MoveToRandomLocationWithinBounds Pages: 1 -->
<svg width="1014pt" height="104pt"
 viewBox="0.00 0.00 1014.00 104.00" xmlns="http://www.w3.org/2000/svg" xmlns:xlink="http://www.w3.org/1999/xlink">
<g id="graph0" class="graph" transform="scale(1 1) rotate(0) translate(4 100)">
<title>MoveToRandomLocationWithinBounds</title>
<!-- Node1 -->
<g id="node1" class="node"><title>Node1</title>
<polygon fill="#bfbfbf" stroke="black" points="0.5,-52 0.5,-82 153.5,-82 153.5,-52 0.5,-52"/>
<text text-anchor="start" x="8.5" y="-70" font-family="Helvetica,sans-Serif" font-size="10.00">MoveToRandomLocationWithin</text>
<text text-anchor="middle" x="77" y="-59" font-family="Helvetica,sans-Serif" font-size="10.00">Bounds</text>
</g>
<!-- Node2 -->
<g id="node2" class="node"><title>Node2</title>
<g id="a_node2"><a xlink:href="../../dc/d73/server_2miscfunctions_8qh.html#aa93bfe50de097cc229818a2822f45a45" target="_top" xlink:title="MoveToRandomMapLocation">
<polygon fill="none" stroke="black" points="190,-57.5 190,-76.5 334,-76.5 334,-57.5 190,-57.5"/>
<text text-anchor="middle" x="262" y="-64.5" font-family="Helvetica,sans-Serif" font-size="10.00">MoveToRandomMapLocation</text>
</a>
</g>
</g>
<!-- Node1&#45;&gt;Node2 -->
<g id="edge1" class="edge"><title>Node1&#45;&gt;Node2</title>
<path fill="none" stroke="midnightblue" d="M163.861,-67C172.513,-67 181.233,-67 189.709,-67"/>
<polygon fill="midnightblue" stroke="midnightblue" points="163.754,-63.5001 153.754,-67 163.754,-70.5001 163.754,-63.5001"/>
</g>
<!-- Node3 -->
<g id="node3" class="node"><title>Node3</title>
<g id="a_node3"><a xlink:href="../../d3/dca/cheats_8qh.html#a73c94da2bf38acf3536154e899458024" target="_top" xlink:title="CheatImpulse">
<polygon fill="none" stroke="black" points="370.5,-57.5 370.5,-76.5 447.5,-76.5 447.5,-57.5 370.5,-57.5"/>
<text text-anchor="middle" x="409" y="-64.5" font-family="Helvetica,sans-Serif" font-size="10.00">CheatImpulse</text>
</a>
</g>
</g>
<!-- Node2&#45;&gt;Node3 -->
<g id="edge2" class="edge"><title>Node2&#45;&gt;Node3</title>
<path fill="none" stroke="midnightblue" d="M344.43,-67C353.424,-67 362.232,-67 370.289,-67"/>
<polygon fill="midnightblue" stroke="midnightblue" points="344.226,-63.5001 334.226,-67 344.226,-70.5001 344.226,-63.5001"/>
</g>
<!-- Node4 -->
<g id="node4" class="node"><title>Node4</title>
<g id="a_node4"><a xlink:href="../../dc/ddd/player_8qc.html#aba6bcdf9b4bf24fa41a76f0cca28fa9b" target="_top" xlink:title="SpecialCommand">
<polygon fill="none" stroke="black" points="488,-76.5 488,-95.5 582,-95.5 582,-76.5 488,-76.5"/>
<text text-anchor="middle" x="535" y="-83.5" font-family="Helvetica,sans-Serif" font-size="10.00">SpecialCommand</text>
</a>
</g>
</g>
<!-- Node3&#45;&gt;Node4 -->
<g id="edge3" class="edge"><title>Node3&#45;&gt;Node4</title>
<path fill="none" stroke="midnightblue" d="M457.633,-74.2986C467.541,-75.8168 477.968,-77.4144 487.823,-78.9245"/>
<polygon fill="midnightblue" stroke="midnightblue" points="457.955,-70.8072 447.541,-72.7522 456.895,-77.7265 457.955,-70.8072"/>
</g>
<!-- Node7 -->
<g id="node7" class="node"><title>Node7</title>
<g id="a_node7"><a xlink:href="../../d4/dd3/cl__impulse_8qh.html#a592fd33e424a2e05854957b679c37e1b" target="_top" xlink:title="ImpulseCommands">
<polygon fill="none" stroke="black" points="484.5,-38.5 484.5,-57.5 585.5,-57.5 585.5,-38.5 484.5,-38.5"/>
<text text-anchor="middle" x="535" y="-45.5" font-family="Helvetica,sans-Serif" font-size="10.00">ImpulseCommands</text>
</a>
</g>
</g>
<!-- Node3&#45;&gt;Node7 -->
<g id="edge6" class="edge"><title>Node3&#45;&gt;Node7</title>
<path fill="none" stroke="midnightblue" d="M457.559,-59.7127C466.29,-58.3749 475.425,-56.9752 484.219,-55.6277"/>
<polygon fill="midnightblue" stroke="midnightblue" points="456.895,-56.2735 447.541,-61.2478 457.955,-63.1928 456.895,-56.2735"/>
</g>
<!-- Node5 -->
<g id="node5" class="node"><title>Node5</title>
<g id="a_node5"><a xlink:href="../../dc/ddd/player_8qc.html#a9eee2f2f5f376f53befdf1537abe179d" target="_top" xlink:title="PM_check_specialcommand">
<polygon fill="none" stroke="black" points="622,-76.5 622,-95.5 764,-95.5 764,-76.5 622,-76.5"/>
<text text-anchor="middle" x="693" y="-83.5" font-family="Helvetica,sans-Serif" font-size="10.00">PM_check_specialcommand</text>
</a>
</g>
</g>
<!-- Node4&#45;&gt;Node5 -->
<g id="edge4" class="edge"><title>Node4&#45;&gt;Node5</title>
<path fill="none" stroke="midnightblue" d="M592.501,-86C602.021,-86 612.004,-86 621.82,-86"/>
<polygon fill="midnightblue" stroke="midnightblue" points="592.383,-82.5001 582.383,-86 592.383,-89.5001 592.383,-82.5001"/>
</g>
<!-- Node6 -->
<g id="node6" class="node"><title>Node6</title>
<g id="a_node6"><a xlink:href="../../db/d47/sv__physics_8qc.html#a042dfde0db60e8645ae713d3de8d5641" target="_top" xlink:title="sys_phys_override">
<polygon fill="none" stroke="black" points="800,-76.5 800,-95.5 898,-95.5 898,-76.5 800,-76.5"/>
<text text-anchor="middle" x="849" y="-83.5" font-family="Helvetica,sans-Serif" font-size="10.00">sys_phys_override</text>
</a>
</g>
</g>
<!-- Node5&#45;&gt;Node6 -->
<g id="edge5" class="edge"><title>Node5&#45;&gt;Node6</title>
<path fill="none" stroke="midnightblue" d="M774.44,-86C783.129,-86 791.759,-86 799.887,-86"/>
<polygon fill="midnightblue" stroke="midnightblue" points="774.24,-82.5001 764.24,-86 774.24,-89.5001 774.24,-82.5001"/>
</g>
<!-- Node8 -->
<g id="node8" class="node"><title>Node8</title>
<g id="a_node8"><a xlink:href="../../da/d53/cl__client_8qc.html#a35da2ff46a7d16ee6dd935fc1e65a72c" target="_top" xlink:title="PlayerPostThink">
<polygon fill="none" stroke="black" points="648.5,-38.5 648.5,-57.5 737.5,-57.5 737.5,-38.5 648.5,-38.5"/>
<text text-anchor="middle" x="693" y="-45.5" font-family="Helvetica,sans-Serif" font-size="10.00">PlayerPostThink</text>
</a>
</g>
</g>
<!-- Node7&#45;&gt;Node8 -->
<g id="edge7" class="edge"><title>Node7&#45;&gt;Node8</title>
<path fill="none" stroke="midnightblue" d="M595.913,-48C613.409,-48 632.191,-48 648.466,-48"/>
<polygon fill="midnightblue" stroke="midnightblue" points="595.788,-44.5001 585.788,-48 595.788,-51.5001 595.788,-44.5001"/>
</g>
<!-- Node9 -->
<g id="node9" class="node"><title>Node9</title>
<g id="a_node9"><a xlink:href="../../d5/dd1/playerdemo_8qh.html#a3d6b65b19141e5215083447705deb88c" target="_top" xlink:title="playerdemo_read">
<polygon fill="none" stroke="black" points="803.5,-38.5 803.5,-57.5 894.5,-57.5 894.5,-38.5 803.5,-38.5"/>
<text text-anchor="middle" x="849" y="-45.5" font-family="Helvetica,sans-Serif" font-size="10.00">playerdemo_read</text>
</a>
</g>
</g>
<!-- Node8&#45;&gt;Node9 -->
<g id="edge8" class="edge"><title>Node8&#45;&gt;Node9</title>
<path fill="none" stroke="midnightblue" d="M747.857,-48C765.995,-48 786.022,-48 803.37,-48"/>
<polygon fill="midnightblue" stroke="midnightblue" points="747.718,-44.5001 737.718,-48 747.718,-51.5001 747.718,-44.5001"/>
</g>
<!-- Node11 -->
<g id="node11" class="node"><title>Node11</title>
<g id="a_node11"><a xlink:href="../../d3/d4f/sv__main_8qc.html#a554af7e2ac58045168dad9eca30bc8b1" target="_top" xlink:title="StartFrame">
<polygon fill="none" stroke="black" points="816.5,-0.5 816.5,-19.5 881.5,-19.5 881.5,-0.5 816.5,-0.5"/>
<text text-anchor="middle" x="849" y="-7.5" font-family="Helvetica,sans-Serif" font-size="10.00">StartFrame</text>
</a>
</g>
</g>
<!-- Node8&#45;&gt;Node11 -->
<g id="edge10" class="edge"><title>Node8&#45;&gt;Node11</title>
<path fill="none" stroke="midnightblue" d="M742.877,-35.9394C766.932,-30.0038 795.232,-23.0206 816.406,-17.7959"/>
<polygon fill="midnightblue" stroke="midnightblue" points="741.731,-32.6172 732.861,-38.411 743.408,-39.4133 741.731,-32.6172"/>
</g>
<!-- Node10 -->
<g id="node10" class="node"><title>Node10</title>
<g id="a_node10"><a xlink:href="../../db/d47/sv__physics_8qc.html#a50dd909e0a02aa3e18e75c75fffae1ec" target="_top" xlink:title="sys_phys_ai">
<polygon fill="none" stroke="black" points="934.5,-38.5 934.5,-57.5 1005.5,-57.5 1005.5,-38.5 934.5,-38.5"/>
<text text-anchor="middle" x="970" y="-45.5" font-family="Helvetica,sans-Serif" font-size="10.00">sys_phys_ai</text>
</a>
</g>
</g>
<!-- Node9&#45;&gt;Node10 -->
<g id="edge9" class="edge"><title>Node9&#45;&gt;Node10</title>
<path fill="none" stroke="midnightblue" d="M904.906,-48C914.852,-48 924.971,-48 934.141,-48"/>
<polygon fill="midnightblue" stroke="midnightblue" points="904.65,-44.5001 894.65,-48 904.65,-51.5001 904.65,-44.5001"/>
</g>
</g>
</svg>
