<?xml version="1.0" encoding="UTF-8" standalone="no"?>
<!DOCTYPE svg PUBLIC "-//W3C//DTD SVG 1.1//EN"
 "http://www.w3.org/Graphics/SVG/1.1/DTD/svg11.dtd">
<!-- Generated by graphviz version 2.36.0 (20140111.2315)
 -->
<!-- Title: traceline_antilag Pages: 1 -->
<svg width="1444pt" height="142pt"
 viewBox="0.00 0.00 1444.00 142.00" xmlns="http://www.w3.org/2000/svg" xmlns:xlink="http://www.w3.org/1999/xlink">
<g id="graph0" class="graph" transform="scale(1 1) rotate(0) translate(4 138)">
<title>traceline_antilag</title>
<!-- Node1 -->
<g id="node1" class="node"><title>Node1</title>
<polygon fill="#bfbfbf" stroke="black" points="0.5,-57.5 0.5,-76.5 87.5,-76.5 87.5,-57.5 0.5,-57.5"/>
<text text-anchor="middle" x="44" y="-64.5" font-family="Helvetica,sans-Serif" font-size="10.00">traceline_antilag</text>
</g>
<!-- Node2 -->
<g id="node2" class="node"><title>Node2</title>
<g id="a_node2"><a xlink:href="../../dc/d73/server_2miscfunctions_8qh.html#a8292725ec840a49d42ef6453aaf838f6" target="_top" xlink:title="crosshair_trace">
<polygon fill="none" stroke="black" points="124.5,-57.5 124.5,-76.5 207.5,-76.5 207.5,-57.5 124.5,-57.5"/>
<text text-anchor="middle" x="166" y="-64.5" font-family="Helvetica,sans-Serif" font-size="10.00">crosshair_trace</text>
</a>
</g>
</g>
<!-- Node1&#45;&gt;Node2 -->
<g id="edge1" class="edge"><title>Node1&#45;&gt;Node2</title>
<path fill="none" stroke="midnightblue" d="M97.8377,-67C106.641,-67 115.653,-67 124.101,-67"/>
<polygon fill="midnightblue" stroke="midnightblue" points="97.6454,-63.5001 87.6454,-67 97.6454,-70.5001 97.6454,-63.5001"/>
</g>
<!-- Node3 -->
<g id="node3" class="node"><title>Node3</title>
<g id="a_node3"><a xlink:href="../../d3/dca/cheats_8qh.html#ac53fffd966f05ef378732308046c04ee" target="_top" xlink:title="CheatCommand">
<polygon fill="none" stroke="black" points="284,-76.5 284,-95.5 372,-95.5 372,-76.5 284,-76.5"/>
<text text-anchor="middle" x="328" y="-83.5" font-family="Helvetica,sans-Serif" font-size="10.00">CheatCommand</text>
</a>
</g>
</g>
<!-- Node2&#45;&gt;Node3 -->
<g id="edge2" class="edge"><title>Node2&#45;&gt;Node3</title>
<path fill="none" stroke="midnightblue" d="M217.909,-73.0455C239.105,-75.5625 263.455,-78.4541 283.765,-80.8659"/>
<polygon fill="midnightblue" stroke="midnightblue" points="218.132,-69.5474 207.789,-71.8437 217.306,-76.4985 218.132,-69.5474"/>
</g>
<!-- Node19 -->
<g id="node19" class="node"><title>Node19</title>
<g id="a_node19"><a xlink:href="../../dc/d73/server_2miscfunctions_8qh.html#a9890a696168a390303c18532e659a7b9" target="_top" xlink:title="crosshair_trace_plusvisibletriggers">
<polygon fill="none" stroke="black" points="244.5,-38.5 244.5,-57.5 411.5,-57.5 411.5,-38.5 244.5,-38.5"/>
<text text-anchor="middle" x="328" y="-45.5" font-family="Helvetica,sans-Serif" font-size="10.00">crosshair_trace_plusvisibletriggers</text>
</a>
</g>
</g>
<!-- Node2&#45;&gt;Node19 -->
<g id="edge19" class="edge"><title>Node2&#45;&gt;Node19</title>
<path fill="none" stroke="midnightblue" d="M217.902,-60.9554C227.112,-59.8617 236.917,-58.6973 246.728,-57.5323"/>
<polygon fill="midnightblue" stroke="midnightblue" points="217.306,-57.5015 207.789,-62.1563 218.132,-64.4526 217.306,-57.5015"/>
</g>
<!-- Node4 -->
<g id="node4" class="node"><title>Node4</title>
<g id="a_node4"><a xlink:href="../../d3/dca/cheats_8qh.html#aacea9518ce703b1172d78adb96a08f55" target="_top" xlink:title="CheatImpulse">
<polygon fill="none" stroke="black" points="475.5,-76.5 475.5,-95.5 552.5,-95.5 552.5,-76.5 475.5,-76.5"/>
<text text-anchor="middle" x="514" y="-83.5" font-family="Helvetica,sans-Serif" font-size="10.00">CheatImpulse</text>
</a>
</g>
</g>
<!-- Node3&#45;&gt;Node4 -->
<g id="edge3" class="edge"><title>Node3&#45;&gt;Node4</title>
<path fill="none" stroke="midnightblue" d="M382.383,-86C412.198,-86 448.623,-86 475.426,-86"/>
<polygon fill="midnightblue" stroke="midnightblue" points="382.14,-82.5001 372.14,-86 382.14,-89.5001 382.14,-82.5001"/>
</g>
<!-- Node12 -->
<g id="node12" class="node"><title>Node12</title>
<g id="a_node12"><a xlink:href="../../d8/d1d/cmd_8qc.html#a015860def0a51a057a4a80c048a1eb97" target="_top" xlink:title="SV_ParseClientCommand">
<polygon fill="none" stroke="black" points="448.5,-114.5 448.5,-133.5 579.5,-133.5 579.5,-114.5 448.5,-114.5"/>
<text text-anchor="middle" x="514" y="-121.5" font-family="Helvetica,sans-Serif" font-size="10.00">SV_ParseClientCommand</text>
</a>
</g>
</g>
<!-- Node3&#45;&gt;Node12 -->
<g id="edge12" class="edge"><title>Node3&#45;&gt;Node12</title>
<path fill="none" stroke="midnightblue" d="M382.128,-96.9721C408.943,-102.51 441.157,-109.163 466.914,-114.482"/>
<polygon fill="midnightblue" stroke="midnightblue" points="382.641,-93.5043 372.14,-94.9093 381.225,-100.36 382.641,-93.5043"/>
</g>
<!-- Node5 -->
<g id="node5" class="node"><title>Node5</title>
<g id="a_node5"><a xlink:href="../../dc/ddd/player_8qc.html#ab1c6a2350d6e48de21a74b5906aadc59" target="_top" xlink:title="SpecialCommand">
<polygon fill="none" stroke="black" points="620,-76.5 620,-95.5 714,-95.5 714,-76.5 620,-76.5"/>
<text text-anchor="middle" x="667" y="-83.5" font-family="Helvetica,sans-Serif" font-size="10.00">SpecialCommand</text>
</a>
</g>
</g>
<!-- Node4&#45;&gt;Node5 -->
<g id="edge4" class="edge"><title>Node4&#45;&gt;Node5</title>
<path fill="none" stroke="midnightblue" d="M562.837,-86C581.071,-86 601.804,-86 619.875,-86"/>
<polygon fill="midnightblue" stroke="midnightblue" points="562.714,-82.5001 552.714,-86 562.714,-89.5001 562.714,-82.5001"/>
</g>
<!-- Node8 -->
<g id="node8" class="node"><title>Node8</title>
<g id="a_node8"><a xlink:href="../../d4/dd3/cl__impulse_8qh.html#a592fd33e424a2e05854957b679c37e1b" target="_top" xlink:title="ImpulseCommands">
<polygon fill="none" stroke="black" points="616.5,-38.5 616.5,-57.5 717.5,-57.5 717.5,-38.5 616.5,-38.5"/>
<text text-anchor="middle" x="667" y="-45.5" font-family="Helvetica,sans-Serif" font-size="10.00">ImpulseCommands</text>
</a>
</g>
</g>
<!-- Node4&#45;&gt;Node8 -->
<g id="edge7" class="edge"><title>Node4&#45;&gt;Node8</title>
<path fill="none" stroke="midnightblue" d="M562.496,-74.0474C583.696,-68.7123 608.328,-62.5135 628.243,-57.5017"/>
<polygon fill="midnightblue" stroke="midnightblue" points="561.558,-70.6743 552.714,-76.509 563.266,-77.4627 561.558,-70.6743"/>
</g>
<!-- Node6 -->
<g id="node6" class="node"><title>Node6</title>
<g id="a_node6"><a xlink:href="../../dc/ddd/player_8qc.html#a68320b4ee595524fe7130848e33b4edb" target="_top" xlink:title="PM_check_specialcommand">
<polygon fill="none" stroke="black" points="758,-76.5 758,-95.5 900,-95.5 900,-76.5 758,-76.5"/>
<text text-anchor="middle" x="829" y="-83.5" font-family="Helvetica,sans-Serif" font-size="10.00">PM_check_specialcommand</text>
</a>
</g>
</g>
<!-- Node5&#45;&gt;Node6 -->
<g id="edge5" class="edge"><title>Node5&#45;&gt;Node6</title>
<path fill="none" stroke="midnightblue" d="M724.386,-86C735.158,-86 746.558,-86 757.703,-86"/>
<polygon fill="midnightblue" stroke="midnightblue" points="724.279,-82.5001 714.279,-86 724.279,-89.5001 724.279,-82.5001"/>
</g>
<!-- Node7 -->
<g id="node7" class="node"><title>Node7</title>
<g id="a_node7"><a xlink:href="../../dc/ddd/player_8qc.html#a672a0ccf602525346ee1acb1337367fe" target="_top" xlink:title="PM_Main">
<polygon fill="none" stroke="black" points="1106,-38.5 1106,-57.5 1164,-57.5 1164,-38.5 1106,-38.5"/>
<text text-anchor="middle" x="1135" y="-45.5" font-family="Helvetica,sans-Serif" font-size="10.00">PM_Main</text>
</a>
</g>
</g>
<!-- Node6&#45;&gt;Node7 -->
<g id="edge6" class="edge"><title>Node6&#45;&gt;Node7</title>
<path fill="none" stroke="midnightblue" d="M910.133,-83.144C955.535,-80.6156 1013.24,-75.8726 1064,-67 1078.02,-64.5501 1093.3,-60.5611 1106,-56.869"/>
<polygon fill="midnightblue" stroke="midnightblue" points="909.851,-79.6539 900.052,-83.6804 910.224,-86.644 909.851,-79.6539"/>
</g>
<!-- Node9 -->
<g id="node9" class="node"><title>Node9</title>
<g id="a_node9"><a xlink:href="../../da/d53/cl__client_8qc.html#afd069ce75171b7ad5b9a840f2fff8bb9" target="_top" xlink:title="PlayerPostThink">
<polygon fill="none" stroke="black" points="784.5,-0.5 784.5,-19.5 873.5,-19.5 873.5,-0.5 784.5,-0.5"/>
<text text-anchor="middle" x="829" y="-7.5" font-family="Helvetica,sans-Serif" font-size="10.00">PlayerPostThink</text>
</a>
</g>
</g>
<!-- Node8&#45;&gt;Node9 -->
<g id="edge8" class="edge"><title>Node8&#45;&gt;Node9</title>
<path fill="none" stroke="midnightblue" d="M718.392,-36.032C740.813,-30.7069 766.847,-24.5238 787.916,-19.5201"/>
<polygon fill="midnightblue" stroke="midnightblue" points="717.295,-32.6949 708.375,-38.411 718.913,-39.5055 717.295,-32.6949"/>
</g>
<!-- Node10 -->
<g id="node10" class="node"><title>Node10</title>
<g id="a_node10"><a xlink:href="../../d5/dd1/playerdemo_8qh.html#a3d6b65b19141e5215083447705deb88c" target="_top" xlink:title="playerdemo_read">
<polygon fill="none" stroke="black" points="956.5,-0.5 956.5,-19.5 1047.5,-19.5 1047.5,-0.5 956.5,-0.5"/>
<text text-anchor="middle" x="1002" y="-7.5" font-family="Helvetica,sans-Serif" font-size="10.00">playerdemo_read</text>
</a>
</g>
</g>
<!-- Node9&#45;&gt;Node10 -->
<g id="edge9" class="edge"><title>Node9&#45;&gt;Node10</title>
<path fill="none" stroke="midnightblue" d="M883.687,-10C907.031,-10 934.066,-10 956.295,-10"/>
<polygon fill="midnightblue" stroke="midnightblue" points="883.593,-6.5001 873.593,-10 883.593,-13.5001 883.593,-6.5001"/>
</g>
<!-- Node11 -->
<g id="node11" class="node"><title>Node11</title>
<g id="a_node11"><a xlink:href="../../d3/d4f/sv__main_8qc.html#a554af7e2ac58045168dad9eca30bc8b1" target="_top" xlink:title="StartFrame">
<polygon fill="none" stroke="black" points="969.5,-38.5 969.5,-57.5 1034.5,-57.5 1034.5,-38.5 969.5,-38.5"/>
<text text-anchor="middle" x="1002" y="-45.5" font-family="Helvetica,sans-Serif" font-size="10.00">StartFrame</text>
</a>
</g>
</g>
<!-- Node9&#45;&gt;Node11 -->
<g id="edge11" class="edge"><title>Node9&#45;&gt;Node11</title>
<path fill="none" stroke="midnightblue" d="M882.921,-21.7602C911.278,-28.0617 945.256,-35.6124 969.468,-40.9929"/>
<polygon fill="midnightblue" stroke="midnightblue" points="883.672,-18.3417 873.151,-19.589 882.153,-25.175 883.672,-18.3417"/>
</g>
<!-- Node10&#45;&gt;Node7 -->
<g id="edge10" class="edge"><title>Node10&#45;&gt;Node7</title>
<path fill="none" stroke="midnightblue" d="M1045.74,-22.3983C1065.46,-28.1184 1088.32,-34.7501 1105.84,-39.8305"/>
<polygon fill="midnightblue" stroke="midnightblue" points="1046.64,-19.0136 1036.06,-19.589 1044.69,-25.7364 1046.64,-19.0136"/>
</g>
<!-- Node13 -->
<g id="node13" class="node"><title>Node13</title>
<g id="a_node13"><a xlink:href="../../d6/d27/scripting_8qc.html#a9337e576a1412382ff54132dd8d46b28" target="_top" xlink:title="bot_cmd_cc">
<polygon fill="none" stroke="black" points="632,-114.5 632,-133.5 702,-133.5 702,-114.5 632,-114.5"/>
<text text-anchor="middle" x="667" y="-121.5" font-family="Helvetica,sans-Serif" font-size="10.00">bot_cmd_cc</text>
</a>
</g>
</g>
<!-- Node12&#45;&gt;Node13 -->
<g id="edge13" class="edge"><title>Node12&#45;&gt;Node13</title>
<path fill="none" stroke="midnightblue" d="M590.044,-124C604.721,-124 619.42,-124 631.924,-124"/>
<polygon fill="midnightblue" stroke="midnightblue" points="589.914,-120.5 579.914,-124 589.914,-127.5 589.914,-120.5"/>
</g>
<!-- Node14 -->
<g id="node14" class="node"><title>Node14</title>
<g id="a_node14"><a xlink:href="../../d6/d27/scripting_8qc.html#aaca537ca751853fba4204c751942df21" target="_top" xlink:title="bot_execute_commands_once">
<polygon fill="none" stroke="black" points="754.5,-114.5 754.5,-133.5 903.5,-133.5 903.5,-114.5 754.5,-114.5"/>
<text text-anchor="middle" x="829" y="-121.5" font-family="Helvetica,sans-Serif" font-size="10.00">bot_execute_commands_once</text>
</a>
</g>
</g>
<!-- Node13&#45;&gt;Node14 -->
<g id="edge14" class="edge"><title>Node13&#45;&gt;Node14</title>
<path fill="none" stroke="midnightblue" d="M712.379,-124C725.381,-124 739.962,-124 754.273,-124"/>
<polygon fill="midnightblue" stroke="midnightblue" points="712.324,-120.5 702.324,-124 712.324,-127.5 712.324,-120.5"/>
</g>
<!-- Node15 -->
<g id="node15" class="node"><title>Node15</title>
<g id="a_node15"><a xlink:href="../../d8/d14/scripting_8qh.html#abad1d3e4714ca1832aab73ee2b8862ea" target="_top" xlink:title="bot_execute_commands">
<polygon fill="none" stroke="black" points="940.5,-114.5 940.5,-133.5 1063.5,-133.5 1063.5,-114.5 940.5,-114.5"/>
<text text-anchor="middle" x="1002" y="-121.5" font-family="Helvetica,sans-Serif" font-size="10.00">bot_execute_commands</text>
</a>
</g>
</g>
<!-- Node14&#45;&gt;Node15 -->
<g id="edge15" class="edge"><title>Node14&#45;&gt;Node15</title>
<path fill="none" stroke="midnightblue" d="M913.665,-124C922.687,-124 931.736,-124 940.411,-124"/>
<polygon fill="midnightblue" stroke="midnightblue" points="913.512,-120.5 903.512,-124 913.512,-127.5 913.512,-120.5"/>
</g>
<!-- Node16 -->
<g id="node16" class="node"><title>Node16</title>
<g id="a_node16"><a xlink:href="../../d8/d39/havocbot_8qh.html#ade0b4e09f77eaadd022af3ee44c6a3fc" target="_top" xlink:title="havocbot_ai">
<polygon fill="none" stroke="black" points="1100.5,-114.5 1100.5,-133.5 1169.5,-133.5 1169.5,-114.5 1100.5,-114.5"/>
<text text-anchor="middle" x="1135" y="-121.5" font-family="Helvetica,sans-Serif" font-size="10.00">havocbot_ai</text>
</a>
</g>
</g>
<!-- Node15&#45;&gt;Node16 -->
<g id="edge16" class="edge"><title>Node15&#45;&gt;Node16</title>
<path fill="none" stroke="midnightblue" d="M1073.58,-124C1082.83,-124 1091.95,-124 1100.19,-124"/>
<polygon fill="midnightblue" stroke="midnightblue" points="1073.52,-120.5 1063.52,-124 1073.51,-127.5 1073.52,-120.5"/>
</g>
<!-- Node17 -->
<g id="node17" class="node"><title>Node17</title>
<g id="a_node17"><a xlink:href="../../d8/d39/havocbot_8qh.html#afb882bcf6c4a44e801e4fb9eafbbf1f4" target="_top" xlink:title="havocbot_setupbot">
<polygon fill="none" stroke="black" points="1206.5,-114.5 1206.5,-133.5 1305.5,-133.5 1305.5,-114.5 1206.5,-114.5"/>
<text text-anchor="middle" x="1256" y="-121.5" font-family="Helvetica,sans-Serif" font-size="10.00">havocbot_setupbot</text>
</a>
</g>
</g>
<!-- Node16&#45;&gt;Node17 -->
<g id="edge17" class="edge"><title>Node16&#45;&gt;Node17</title>
<path fill="none" stroke="midnightblue" d="M1180.01,-124C1188.63,-124 1197.72,-124 1206.47,-124"/>
<polygon fill="midnightblue" stroke="midnightblue" points="1179.78,-120.5 1169.78,-124 1179.78,-127.5 1179.78,-120.5"/>
</g>
<!-- Node18 -->
<g id="node18" class="node"><title>Node18</title>
<g id="a_node18"><a xlink:href="../../d1/da9/bot_8qh.html#abd19370e4d61d3549dbbe44826531536" target="_top" xlink:title="bot_clientconnect">
<polygon fill="none" stroke="black" points="1342.5,-114.5 1342.5,-133.5 1435.5,-133.5 1435.5,-114.5 1342.5,-114.5"/>
<text text-anchor="middle" x="1389" y="-121.5" font-family="Helvetica,sans-Serif" font-size="10.00">bot_clientconnect</text>
</a>
</g>
</g>
<!-- Node17&#45;&gt;Node18 -->
<g id="edge18" class="edge"><title>Node17&#45;&gt;Node18</title>
<path fill="none" stroke="midnightblue" d="M1316,-124C1324.79,-124 1333.75,-124 1342.22,-124"/>
<polygon fill="midnightblue" stroke="midnightblue" points="1315.78,-120.5 1305.78,-124 1315.78,-127.5 1315.78,-120.5"/>
</g>
<!-- Node20 -->
<g id="node20" class="node"><title>Node20</title>
<g id="a_node20"><a xlink:href="../../d3/dca/cheats_8qh.html#a1bbaa847b251c4569c98328d90db330c" target="_top" xlink:title="CheatFrame">
<polygon fill="none" stroke="black" points="631.5,-0.5 631.5,-19.5 702.5,-19.5 702.5,-0.5 631.5,-0.5"/>
<text text-anchor="middle" x="667" y="-7.5" font-family="Helvetica,sans-Serif" font-size="10.00">CheatFrame</text>
</a>
</g>
</g>
<!-- Node19&#45;&gt;Node20 -->
<g id="edge20" class="edge"><title>Node19&#45;&gt;Node20</title>
<path fill="none" stroke="midnightblue" d="M393.565,-36.831C411.183,-34.0184 430.295,-31.1821 448,-29 512.476,-21.0533 588.084,-15.2454 631.184,-12.2647"/>
<polygon fill="midnightblue" stroke="midnightblue" points="392.698,-33.4257 383.386,-38.4792 393.817,-40.3357 392.698,-33.4257"/>
</g>
<!-- Node21 -->
<g id="node21" class="node"><title>Node21</title>
<g id="a_node21"><a xlink:href="../../d6/de9/cheats_8qc.html#a940f207b5aa10d28fac7be04948950c5" target="_top" xlink:title="Drag">
<polygon fill="none" stroke="black" points="495,-38.5 495,-57.5 533,-57.5 533,-38.5 495,-38.5"/>
<text text-anchor="middle" x="514" y="-45.5" font-family="Helvetica,sans-Serif" font-size="10.00">Drag</text>
</a>
</g>
</g>
<!-- Node19&#45;&gt;Node21 -->
<g id="edge22" class="edge"><title>Node19&#45;&gt;Node21</title>
<path fill="none" stroke="midnightblue" d="M421.834,-48C449.702,-48 477.467,-48 494.902,-48"/>
<polygon fill="midnightblue" stroke="midnightblue" points="421.581,-44.5001 411.581,-48 421.581,-51.5001 421.581,-44.5001"/>
</g>
<!-- Node20&#45;&gt;Node9 -->
<g id="edge21" class="edge"><title>Node20&#45;&gt;Node9</title>
<path fill="none" stroke="midnightblue" d="M712.974,-10C735.36,-10 762.306,-10 784.489,-10"/>
<polygon fill="midnightblue" stroke="midnightblue" points="712.718,-6.5001 702.718,-10 712.718,-13.5001 712.718,-6.5001"/>
</g>
<!-- Node21&#45;&gt;Node20 -->
<g id="edge23" class="edge"><title>Node21&#45;&gt;Node20</title>
<path fill="none" stroke="midnightblue" d="M543.137,-40.9192C568.089,-34.6398 604.619,-25.4468 631.361,-18.717"/>
<polygon fill="midnightblue" stroke="midnightblue" points="542.058,-37.5816 533.214,-43.4163 543.766,-44.3699 542.058,-37.5816"/>
</g>
</g>
</svg>
