<?xml version="1.0" encoding="UTF-8" standalone="no"?>
<!DOCTYPE svg PUBLIC "-//W3C//DTD SVG 1.1//EN"
 "http://www.w3.org/Graphics/SVG/1.1/DTD/svg11.dtd">
<!-- Generated by graphviz version 2.36.0 (20140111.2315)
 -->
<!-- Title: traceline_antilag Pages: 1 -->
<!--zoomable 623 -->
<svg id="main" version="1.1" xmlns="http://www.w3.org/2000/svg" xmlns:xlink="http://www.w3.org/1999/xlink" xml:space="preserve" onload="init(evt)">
<style type="text/css"><![CDATA[
.edge:hover path { stroke: red; }
.edge:hover polygon { stroke: red; fill: red; }
]]></style>
<script type="text/javascript"><![CDATA[
var edges = document.getElementsByTagName('g');
if (edges && edges.length) {
  for (var i=0;i<edges.length;i++) {
    if (edges[i].id.substr(0,4)=='edge') {
      edges[i].setAttribute('class','edge');
    }
  }
}
]]></script>
        <defs>
                <circle id="rim" cx="0" cy="0" r="7"/>
                <circle id="rim2" cx="0" cy="0" r="3.5"/>
                <g id="zoomPlus">
                        <use xlink:href="#rim" fill="#404040">
                                <set attributeName="fill" to="#808080" begin="zoomplus.mouseover" end="zoomplus.mouseout"/>
                        </use>
                        <path d="M-4,0h8M0,-4v8" fill="none" stroke="white" stroke-width="1.5" pointer-events="none"/>
                </g>
                <g id="zoomMin">
                        <use xlink:href="#rim" fill="#404040">
                                <set attributeName="fill" to="#808080" begin="zoomminus.mouseover" end="zoomminus.mouseout"/>
                        </use>
                        <path d="M-4,0h8" fill="none" stroke="white" stroke-width="1.5" pointer-events="none"/>
                </g>
                <g id="dirArrow">
                        <path fill="none" stroke="white" stroke-width="1.5" d="M0,-3.0v7 M-2.5,-0.5L0,-3.0L2.5,-0.5"/>
                </g>
               <g id="resetDef">
                       <use xlink:href="#rim2" fill="#404040">
                               <set attributeName="fill" to="#808080" begin="reset.mouseover" end="reset.mouseout"/>
                       </use>
               </g>
        </defs>

<script type="text/javascript">
var viewWidth = 1680;
var viewHeight = 623;
var sectionId = 'dynsection-67';
</script>
<script xlink:href="../../svgpan.js"/>
<svg id="graph" class="graph">
<g id="viewport">
<title>traceline_antilag</title>
<!-- Node1 -->
<g id="node1" class="node"><title>Node1</title>
<polygon fill="#bfbfbf" stroke="black" points="0.5,-19.5 0.5,-38.5 87.5,-38.5 87.5,-19.5 0.5,-19.5"/>
<text text-anchor="middle" x="44" y="-26.5" font-family="Helvetica,sans-Serif" font-size="10.00">traceline_antilag</text>
</g>
<!-- Node2 -->
<g id="node2" class="node"><title>Node2</title>
<g id="a_node2"><a xlink:href="../../db/d9f/state_8qh.html#afdb90637f8a711359249291ee3b3fde6" target="_top" xlink:title="CS">
<polygon fill="none" stroke="black" points="660.5,-0.5 660.5,-19.5 691.5,-19.5 691.5,-0.5 660.5,-0.5"/>
<text text-anchor="middle" x="676" y="-7.5" font-family="Helvetica,sans-Serif" font-size="10.00">CS</text>
</a>
</g>
</g>
<!-- Node1&#45;&gt;Node2 -->
<g id="edge1" class="edge"><title>Node1&#45;&gt;Node2</title>
<path fill="none" stroke="midnightblue" d="M87.8072,-27.709C209.418,-24.0414 554.343,-13.6389 650.083,-10.7515"/>
<polygon fill="midnightblue" stroke="midnightblue" points="650.364,-14.2447 660.253,-10.4447 650.152,-7.24787 650.364,-14.2447"/>
</g>
<!-- Node3 -->
<g id="node3" class="node"><title>Node3</title>
<g id="a_node3"><a xlink:href="../../d4/dd8/antilag_8qc.html#ae2572b5fa7a3e76a4ff54cd41a55cf04" target="_top" xlink:title="traceline_antilag_force">
<polygon fill="none" stroke="black" points="124,-38.5 124,-57.5 238,-57.5 238,-38.5 124,-38.5"/>
<text text-anchor="middle" x="181" y="-45.5" font-family="Helvetica,sans-Serif" font-size="10.00">traceline_antilag_force</text>
</a>
</g>
</g>
<!-- Node1&#45;&gt;Node3 -->
<g id="edge2" class="edge"><title>Node1&#45;&gt;Node3</title>
<path fill="none" stroke="midnightblue" d="M87.7148,-35.0117C96.0214,-36.1808 104.909,-37.4317 113.768,-38.6785"/>
<polygon fill="midnightblue" stroke="midnightblue" points="113.335,-42.152 123.725,-40.0799 114.311,-35.2203 113.335,-42.152"/>
</g>
<!-- Node4 -->
<g id="node4" class="node"><title>Node4</title>
<g id="a_node4"><a xlink:href="../../d4/dd8/antilag_8qc.html#a16360420959782f6972ac30eec10327a" target="_top" xlink:title="tracebox_antilag_force_wz">
<polygon fill="none" stroke="black" points="274.5,-38.5 274.5,-57.5 407.5,-57.5 407.5,-38.5 274.5,-38.5"/>
<text text-anchor="middle" x="341" y="-45.5" font-family="Helvetica,sans-Serif" font-size="10.00">tracebox_antilag_force_wz</text>
</a>
</g>
</g>
<!-- Node3&#45;&gt;Node4 -->
<g id="edge3" class="edge"><title>Node3&#45;&gt;Node4</title>
<path fill="none" stroke="midnightblue" d="M238.15,-48C246.565,-48 255.359,-48 264.102,-48"/>
<polygon fill="midnightblue" stroke="midnightblue" points="264.316,-51.5001 274.316,-48 264.316,-44.5001 264.316,-51.5001"/>
</g>
<!-- Node5 -->
<g id="node5" class="node"><title>Node5</title>
<g id="a_node5"><a xlink:href="../../d4/dd8/antilag_8qc.html#a49f979cfa6c28c22aa67a1b903160407" target="_top" xlink:title="antilag_takeback_all">
<polygon fill="none" stroke="black" points="446.5,-76.5 446.5,-95.5 551.5,-95.5 551.5,-76.5 446.5,-76.5"/>
<text text-anchor="middle" x="499" y="-83.5" font-family="Helvetica,sans-Serif" font-size="10.00">antilag_takeback_all</text>
</a>
</g>
</g>
<!-- Node4&#45;&gt;Node5 -->
<g id="edge4" class="edge"><title>Node4&#45;&gt;Node5</title>
<path fill="none" stroke="midnightblue" d="M381.365,-57.589C401.951,-62.6035 427.34,-68.7881 449.169,-74.1053"/>
<polygon fill="midnightblue" stroke="midnightblue" points="448.373,-77.5137 458.918,-76.4799 450.03,-70.7126 448.373,-77.5137"/>
</g>
<!-- Node12 -->
<g id="node12" class="node"><title>Node12</title>
<g id="a_node12"><a xlink:href="../../d1/d6a/lib_2warpzone_2common_8qc.html#a9321c18dd45fa7891473f61db9ccbe93" target="_top" xlink:title="WarpZone_TraceBox">
<polygon fill="none" stroke="black" points="444.5,-228.5 444.5,-247.5 553.5,-247.5 553.5,-228.5 444.5,-228.5"/>
<text text-anchor="middle" x="499" y="-235.5" font-family="Helvetica,sans-Serif" font-size="10.00">WarpZone_TraceBox</text>
</a>
</g>
</g>
<!-- Node4&#45;&gt;Node12 -->
<g id="edge13" class="edge"><title>Node4&#45;&gt;Node12</title>
<path fill="none" stroke="midnightblue" d="M349.951,-57.6833C374.772,-87.9143 451.089,-180.865 483.355,-220.163"/>
<polygon fill="midnightblue" stroke="midnightblue" points="480.828,-222.601 489.878,-228.108 486.238,-218.159 480.828,-222.601"/>
</g>
<!-- Node31 -->
<g id="node31" class="node"><title>Node31</title>
<g id="a_node31"><a xlink:href="../../d4/dd8/antilag_8qc.html#afcf6e9ced03532b6cd318254ef7117b8" target="_top" xlink:title="antilag_restore_all">
<polygon fill="none" stroke="black" points="451.5,-38.5 451.5,-57.5 546.5,-57.5 546.5,-38.5 451.5,-38.5"/>
<text text-anchor="middle" x="499" y="-45.5" font-family="Helvetica,sans-Serif" font-size="10.00">antilag_restore_all</text>
</a>
</g>
</g>
<!-- Node4&#45;&gt;Node31 -->
<g id="edge39" class="edge"><title>Node4&#45;&gt;Node31</title>
<path fill="none" stroke="midnightblue" d="M407.706,-48C418.812,-48 430.259,-48 441.116,-48"/>
<polygon fill="midnightblue" stroke="midnightblue" points="441.314,-51.5001 451.314,-48 441.314,-44.5001 441.314,-51.5001"/>
</g>
<!-- Node5&#45;&gt;Node2 -->
<g id="edge12" class="edge"><title>Node5&#45;&gt;Node2</title>
<path fill="none" stroke="midnightblue" d="M534.852,-76.48C541.481,-73.9215 548.163,-70.7856 554,-67 573.519,-54.3407 569.766,-40.4822 590,-29 608.514,-18.4935 632.371,-13.7966 650.096,-11.697"/>
<polygon fill="midnightblue" stroke="midnightblue" points="650.628,-15.1615 660.236,-10.6966 649.941,-8.19535 650.628,-15.1615"/>
</g>
<!-- Node6 -->
<g id="node6" class="node"><title>Node6</title>
<g id="a_node6"><a xlink:href="../../d4/dd8/antilag_8qc.html#ae42be1431ef90dedfc2cb8bf7b792bfd" target="_top" xlink:title="antilag_takeback">
<polygon fill="none" stroke="black" points="631,-94.5 631,-113.5 721,-113.5 721,-94.5 631,-94.5"/>
<text text-anchor="middle" x="676" y="-101.5" font-family="Helvetica,sans-Serif" font-size="10.00">antilag_takeback</text>
</a>
</g>
</g>
<!-- Node5&#45;&gt;Node6 -->
<g id="edge5" class="edge"><title>Node5&#45;&gt;Node6</title>
<path fill="none" stroke="midnightblue" d="M551.559,-91.3032C573.319,-93.5413 598.667,-96.1486 620.713,-98.4161"/>
<polygon fill="midnightblue" stroke="midnightblue" points="620.605,-101.923 630.911,-99.4651 621.321,-94.9602 620.605,-101.923"/>
</g>
<!-- Node6&#45;&gt;Node6 -->
<g id="edge6" class="edge"><title>Node6&#45;&gt;Node6</title>
<path fill="none" stroke="midnightblue" d="M648.873,-113.757C635.677,-122.565 644.719,-132 676,-132 697.506,-132 708.5,-127.541 708.983,-121.891"/>
<polygon fill="midnightblue" stroke="midnightblue" points="711.81,-119.827 703.127,-113.757 706.129,-123.917 711.81,-119.827"/>
</g>
<!-- Node7 -->
<g id="node7" class="node"><title>Node7</title>
<g id="a_node7"><a xlink:href="../../d4/d0c/csprogsdefs_8qc.html#a4f0b78b1785821ba47129edb68e70f9e" target="_top" xlink:title="vector">
<polygon fill="none" stroke="black" points="1589,-475.5 1589,-494.5 1633,-494.5 1633,-475.5 1589,-475.5"/>
<text text-anchor="middle" x="1611" y="-482.5" font-family="Helvetica,sans-Serif" font-size="10.00">vector</text>
</a>
</g>
</g>
<!-- Node6&#45;&gt;Node7 -->
<g id="edge7" class="edge"><title>Node6&#45;&gt;Node7</title>
<path fill="none" stroke="midnightblue" d="M721.286,-100.657C794.167,-95.4511 943.981,-86 1071,-86 1071,-86 1071,-86 1269,-86 1401.03,-86 1430.8,-151.486 1514,-254 1568.27,-320.861 1596.06,-422.728 1605.84,-465.264"/>
<polygon fill="midnightblue" stroke="midnightblue" points="1602.45,-466.171 1608.03,-475.178 1609.29,-464.658 1602.45,-466.171"/>
</g>
<!-- Node8 -->
<g id="node8" class="node"><title>Node8</title>
<g id="a_node8"><a xlink:href="../../d4/dd8/antilag_8qc.html#a655b5399f3832b3ecd9a7659ef624b4a" target="_top" xlink:title="antilag_takebackorigin">
<polygon fill="none" stroke="black" points="820.5,-114.5 820.5,-133.5 933.5,-133.5 933.5,-114.5 820.5,-114.5"/>
<text text-anchor="middle" x="877" y="-121.5" font-family="Helvetica,sans-Serif" font-size="10.00">antilag_takebackorigin</text>
</a>
</g>
</g>
<!-- Node6&#45;&gt;Node8 -->
<g id="edge8" class="edge"><title>Node6&#45;&gt;Node8</title>
<path fill="none" stroke="midnightblue" d="M721.165,-108.439C747.284,-111.064 780.863,-114.438 810.07,-117.374"/>
<polygon fill="midnightblue" stroke="midnightblue" points="809.899,-120.874 820.199,-118.392 810.599,-113.909 809.899,-120.874"/>
</g>
<!-- Node11 -->
<g id="node11" class="node"><title>Node11</title>
<g id="a_node11"><a xlink:href="../../d5/dff/ent__cs_8qc.html#ac459a724c1fe031c6658fff554b12ea8" target="_top" xlink:title="setorigin">
<polygon fill="none" stroke="black" points="850.5,-38.5 850.5,-57.5 903.5,-57.5 903.5,-38.5 850.5,-38.5"/>
<text text-anchor="middle" x="877" y="-45.5" font-family="Helvetica,sans-Serif" font-size="10.00">setorigin</text>
</a>
</g>
</g>
<!-- Node6&#45;&gt;Node11 -->
<g id="edge11" class="edge"><title>Node6&#45;&gt;Node11</title>
<path fill="none" stroke="midnightblue" d="M721.387,-95.1911C734.548,-92.2805 748.933,-88.8031 762,-85 778.334,-80.2461 781.866,-77.3918 798,-72 811.814,-67.3837 827.11,-62.6049 840.472,-58.5385"/>
<polygon fill="midnightblue" stroke="midnightblue" points="841.695,-61.8251 850.256,-55.5822 839.671,-55.1244 841.695,-61.8251"/>
</g>
<!-- Node9 -->
<g id="node9" class="node"><title>Node9</title>
<g id="a_node9"><a xlink:href="../../d4/dd8/antilag_8qc.html#a44007160659f27ebf8bfabc0071b9e3a" target="_top" xlink:title="antilag_find">
<polygon fill="none" stroke="black" points="1039,-114.5 1039,-133.5 1105,-133.5 1105,-114.5 1039,-114.5"/>
<text text-anchor="middle" x="1072" y="-121.5" font-family="Helvetica,sans-Serif" font-size="10.00">antilag_find</text>
</a>
</g>
</g>
<!-- Node8&#45;&gt;Node9 -->
<g id="edge9" class="edge"><title>Node8&#45;&gt;Node9</title>
<path fill="none" stroke="midnightblue" d="M933.565,-124C963.879,-124 1000.81,-124 1028.75,-124"/>
<polygon fill="midnightblue" stroke="midnightblue" points="1028.99,-127.5 1038.99,-124 1028.99,-120.5 1028.99,-127.5"/>
</g>
<!-- Node10 -->
<g id="node10" class="node"><title>Node10</title>
<g id="a_node10"><a xlink:href="../../d0/d79/math_8qh.html#aba3066b97e95d3930e9205fdb186ba2e" target="_top" xlink:title="lerpv">
<polygon fill="none" stroke="black" points="1053,-152.5 1053,-171.5 1091,-171.5 1091,-152.5 1053,-152.5"/>
<text text-anchor="middle" x="1072" y="-159.5" font-family="Helvetica,sans-Serif" font-size="10.00">lerpv</text>
</a>
</g>
</g>
<!-- Node8&#45;&gt;Node10 -->
<g id="edge10" class="edge"><title>Node8&#45;&gt;Node10</title>
<path fill="none" stroke="midnightblue" d="M926.702,-133.589C963.462,-140.827 1012.6,-150.502 1043.01,-156.489"/>
<polygon fill="midnightblue" stroke="midnightblue" points="1042.44,-159.944 1052.93,-158.442 1043.79,-153.076 1042.44,-159.944"/>
</g>
<!-- Node13 -->
<g id="node13" class="node"><title>Node13</title>
<g id="a_node13"><a xlink:href="../../d1/d6a/lib_2warpzone_2common_8qc.html#a368f7c4b2bb0959e80033bce124f640d" target="_top" xlink:title="WarpZone_TraceBox_ThroughZone">
<polygon fill="none" stroke="black" points="590.5,-342.5 590.5,-361.5 761.5,-361.5 761.5,-342.5 590.5,-342.5"/>
<text text-anchor="middle" x="676" y="-349.5" font-family="Helvetica,sans-Serif" font-size="10.00">WarpZone_TraceBox_ThroughZone</text>
</a>
</g>
</g>
<!-- Node12&#45;&gt;Node13 -->
<g id="edge14" class="edge"><title>Node12&#45;&gt;Node13</title>
<path fill="none" stroke="midnightblue" d="M514.619,-247.523C544.911,-267.256 614.761,-312.758 651.475,-336.675"/>
<polygon fill="midnightblue" stroke="midnightblue" points="649.762,-339.736 660.051,-342.262 653.583,-333.871 649.762,-339.736"/>
</g>
<!-- Node13&#45;&gt;Node7 -->
<g id="edge15" class="edge"><title>Node13&#45;&gt;Node7</title>
<path fill="none" stroke="midnightblue" d="M687.314,-361.763C707.026,-379.763 752.176,-417.901 798,-435 912.407,-477.692 948.887,-466 1071,-466 1071,-466 1071,-466 1269,-466 1383.15,-466 1518.46,-476.745 1578.55,-482.074"/>
<polygon fill="midnightblue" stroke="midnightblue" points="1578.6,-485.593 1588.87,-483.003 1579.23,-478.621 1578.6,-485.593"/>
</g>
<!-- Node14 -->
<g id="node14" class="node"><title>Node14</title>
<g id="a_node14"><a xlink:href="../../d4/d0c/csprogsdefs_8qc.html#acbb54a239d76062465dccbc6a6c6e464" target="_top" xlink:title="entity">
<polygon fill="none" stroke="black" points="1428.5,-263.5 1428.5,-282.5 1469.5,-282.5 1469.5,-263.5 1428.5,-263.5"/>
<text text-anchor="middle" x="1449" y="-270.5" font-family="Helvetica,sans-Serif" font-size="10.00">entity</text>
</a>
</g>
</g>
<!-- Node13&#45;&gt;Node14 -->
<g id="edge16" class="edge"><title>Node13&#45;&gt;Node14</title>
<path fill="none" stroke="midnightblue" d="M681.903,-342.495C695.852,-316.647 738.616,-245.256 798,-219 941.895,-155.377 995.307,-204.824 1152,-219 1250.56,-227.917 1365.35,-253.209 1418.37,-265.757"/>
<polygon fill="midnightblue" stroke="midnightblue" points="1417.88,-269.239 1428.42,-268.159 1419.51,-262.431 1417.88,-269.239"/>
</g>
<!-- Node15 -->
<g id="node15" class="node"><title>Node15</title>
<g id="a_node15"><a xlink:href="../../d1/d6a/lib_2warpzone_2common_8qc.html#a233e264af952b9d8e4a5ccfd7bce53c7" target="_top" xlink:title="WarpZone_Trace_InitTransform">
<polygon fill="none" stroke="black" points="799.5,-228.5 799.5,-247.5 954.5,-247.5 954.5,-228.5 799.5,-228.5"/>
<text text-anchor="middle" x="877" y="-235.5" font-family="Helvetica,sans-Serif" font-size="10.00">WarpZone_Trace_InitTransform</text>
</a>
</g>
</g>
<!-- Node13&#45;&gt;Node15 -->
<g id="edge17" class="edge"><title>Node13&#45;&gt;Node15</title>
<path fill="none" stroke="midnightblue" d="M686.357,-342.266C705.47,-322.967 751.156,-279.76 798,-257 802.936,-254.602 808.199,-252.492 813.572,-250.638"/>
<polygon fill="midnightblue" stroke="midnightblue" points="814.826,-253.913 823.313,-247.571 812.724,-247.236 814.826,-253.913"/>
</g>
<!-- Node17 -->
<g id="node17" class="node"><title>Node17</title>
<g id="a_node17"><a xlink:href="../../d1/d6a/lib_2warpzone_2common_8qc.html#a191c61933b716c17f4aaac24e9049664" target="_top" xlink:title="WarpZone_Find">
<polygon fill="none" stroke="black" points="834,-380.5 834,-399.5 920,-399.5 920,-380.5 834,-380.5"/>
<text text-anchor="middle" x="877" y="-387.5" font-family="Helvetica,sans-Serif" font-size="10.00">WarpZone_Find</text>
</a>
</g>
</g>
<!-- Node13&#45;&gt;Node17 -->
<g id="edge19" class="edge"><title>Node13&#45;&gt;Node17</title>
<path fill="none" stroke="midnightblue" d="M726.959,-361.54C756.543,-367.189 793.971,-374.336 823.919,-380.055"/>
<polygon fill="midnightblue" stroke="midnightblue" points="823.287,-383.497 833.766,-381.935 824.6,-376.622 823.287,-383.497"/>
</g>
<!-- Node20 -->
<g id="node20" class="node"><title>Node20</title>
<g id="a_node20"><a xlink:href="../../d1/d07/framework_8qc.html#aef346455b3c2def821423a45227b45dd" target="_top" xlink:title="LOG_TRACE">
<polygon fill="none" stroke="black" points="1410.5,-396.5 1410.5,-415.5 1487.5,-415.5 1487.5,-396.5 1410.5,-396.5"/>
<text text-anchor="middle" x="1449" y="-403.5" font-family="Helvetica,sans-Serif" font-size="10.00">LOG_TRACE</text>
</a>
</g>
</g>
<!-- Node13&#45;&gt;Node20 -->
<g id="edge36" class="edge"><title>Node13&#45;&gt;Node20</title>
<path fill="none" stroke="midnightblue" d="M691.876,-361.675C713.961,-375.401 757.211,-399.874 798,-409 1018.57,-458.351 1291.88,-428.643 1400.39,-413.376"/>
<polygon fill="midnightblue" stroke="midnightblue" points="1400.96,-416.829 1410.37,-411.947 1399.97,-409.9 1400.96,-416.829"/>
</g>
<!-- Node21 -->
<g id="node21" class="node"><title>Node21</title>
<g id="a_node21"><a xlink:href="../../d1/d6a/lib_2warpzone_2common_8qc.html#ade15efbb2449932e8874907371c76a39" target="_top" xlink:title="WarpZone_Trace_AddTransform">
<polygon fill="none" stroke="black" points="798,-499.5 798,-518.5 956,-518.5 956,-499.5 798,-499.5"/>
<text text-anchor="middle" x="877" y="-506.5" font-family="Helvetica,sans-Serif" font-size="10.00">WarpZone_Trace_AddTransform</text>
</a>
</g>
</g>
<!-- Node13&#45;&gt;Node21 -->
<g id="edge24" class="edge"><title>Node13&#45;&gt;Node21</title>
<path fill="none" stroke="midnightblue" d="M683.755,-361.781C700.482,-385.326 746.237,-445.735 798,-480 807.784,-486.476 819.209,-491.762 830.251,-495.961"/>
<polygon fill="midnightblue" stroke="midnightblue" points="829.21,-499.305 839.804,-499.373 831.564,-492.713 829.21,-499.305"/>
</g>
<!-- Node27 -->
<g id="node27" class="node"><title>Node27</title>
<g id="a_node27"><a xlink:href="../../d1/d6a/lib_2warpzone_2common_8qc.html#a83f110aec024c6632cd713cf64cb136e" target="_top" xlink:title="WarpZone_TransformOrigin">
<polygon fill="none" stroke="black" points="1199.5,-593.5 1199.5,-612.5 1336.5,-612.5 1336.5,-593.5 1199.5,-593.5"/>
<text text-anchor="middle" x="1268" y="-600.5" font-family="Helvetica,sans-Serif" font-size="10.00">WarpZone_TransformOrigin</text>
</a>
</g>
</g>
<!-- Node13&#45;&gt;Node27 -->
<g id="edge33" class="edge"><title>Node13&#45;&gt;Node27</title>
<path fill="none" stroke="midnightblue" d="M680.443,-361.658C691.805,-391.986 731.232,-485.81 798,-528 918.512,-604.15 1090.15,-611.653 1188.89,-608.498"/>
<polygon fill="midnightblue" stroke="midnightblue" points="1189.23,-611.988 1199.1,-608.125 1188.98,-604.993 1189.23,-611.988"/>
</g>
<!-- Node28 -->
<g id="node28" class="node"><title>Node28</title>
<g id="a_node28"><a xlink:href="../../d1/d6a/lib_2warpzone_2common_8qc.html#a9d0c128ebb30061395684b1563d9ad4a" target="_top" xlink:title="WarpZone_MakeAllSolid">
<polygon fill="none" stroke="black" points="815,-342.5 815,-361.5 939,-361.5 939,-342.5 815,-342.5"/>
<text text-anchor="middle" x="877" y="-349.5" font-family="Helvetica,sans-Serif" font-size="10.00">WarpZone_MakeAllSolid</text>
</a>
</g>
</g>
<!-- Node13&#45;&gt;Node28 -->
<g id="edge35" class="edge"><title>Node13&#45;&gt;Node28</title>
<path fill="none" stroke="midnightblue" d="M761.682,-352C776.069,-352 790.878,-352 804.87,-352"/>
<polygon fill="midnightblue" stroke="midnightblue" points="804.896,-355.5 814.896,-352 804.896,-348.5 804.896,-355.5"/>
</g>
<!-- Node29 -->
<g id="node29" class="node"><title>Node29</title>
<g id="a_node29"><a xlink:href="../../d8/de2/menudefs_8qc.html#ab8f7213273f7de03df213240376ce9f4" target="_top" xlink:title="normalize">
<polygon fill="none" stroke="black" points="847.5,-304.5 847.5,-323.5 906.5,-323.5 906.5,-304.5 847.5,-304.5"/>
<text text-anchor="middle" x="877" y="-311.5" font-family="Helvetica,sans-Serif" font-size="10.00">normalize</text>
</a>
</g>
</g>
<!-- Node13&#45;&gt;Node29 -->
<g id="edge37" class="edge"><title>Node13&#45;&gt;Node29</title>
<path fill="none" stroke="midnightblue" d="M726.959,-342.46C761.094,-335.942 805.673,-327.429 837.154,-321.418"/>
<polygon fill="midnightblue" stroke="midnightblue" points="838.128,-324.795 847.294,-319.482 836.815,-317.919 838.128,-324.795"/>
</g>
<!-- Node30 -->
<g id="node30" class="node"><title>Node30</title>
<g id="a_node30"><a xlink:href="../../d1/d6a/lib_2warpzone_2common_8qc.html#a709b87db314dc8aaf6df3d3adc456b1d" target="_top" xlink:title="WarpZone_MakeAllOther">
<polygon fill="none" stroke="black" points="814,-266.5 814,-285.5 940,-285.5 940,-266.5 814,-266.5"/>
<text text-anchor="middle" x="877" y="-273.5" font-family="Helvetica,sans-Serif" font-size="10.00">WarpZone_MakeAllOther</text>
</a>
</g>
</g>
<!-- Node13&#45;&gt;Node30 -->
<g id="edge38" class="edge"><title>Node13&#45;&gt;Node30</title>
<path fill="none" stroke="midnightblue" d="M694.564,-342.345C717.695,-329.955 759.903,-308.459 798,-295 805.127,-292.482 812.736,-290.178 820.301,-288.111"/>
<polygon fill="midnightblue" stroke="midnightblue" points="821.387,-291.445 830.178,-285.531 819.618,-284.672 821.387,-291.445"/>
</g>
<!-- Node16 -->
<g id="node16" class="node"><title>Node16</title>
<g id="a_node16"><a xlink:href="../../d1/d6a/lib_2warpzone_2common_8qc.html#a1ffbdf285707f8412653ec2a099b8a02" target="_top" xlink:title="WarpZone_Accumulator\l_Clear">
<polygon fill="none" stroke="black" points="1011,-229 1011,-259 1133,-259 1133,-229 1011,-229"/>
<text text-anchor="start" x="1019" y="-247" font-family="Helvetica,sans-Serif" font-size="10.00">WarpZone_Accumulator</text>
<text text-anchor="middle" x="1072" y="-236" font-family="Helvetica,sans-Serif" font-size="10.00">_Clear</text>
</a>
</g>
</g>
<!-- Node15&#45;&gt;Node16 -->
<g id="edge18" class="edge"><title>Node15&#45;&gt;Node16</title>
<path fill="none" stroke="midnightblue" d="M954.556,-240.38C969.777,-240.853 985.69,-241.348 1000.69,-241.814"/>
<polygon fill="midnightblue" stroke="midnightblue" points="1000.8,-245.319 1010.91,-242.132 1001.02,-238.323 1000.8,-245.319"/>
</g>
<!-- Node18 -->
<g id="node18" class="node"><title>Node18</title>
<g id="a_node18"><a xlink:href="../../d1/d6a/lib_2warpzone_2common_8qc.html#a1b87d3cc5d237220e1d7def92aca4632" target="_top" xlink:title="WarpZoneLib_BoxTouchesBrush">
<polygon fill="none" stroke="black" points="992,-377.5 992,-396.5 1152,-396.5 1152,-377.5 992,-377.5"/>
<text text-anchor="middle" x="1072" y="-384.5" font-family="Helvetica,sans-Serif" font-size="10.00">WarpZoneLib_BoxTouchesBrush</text>
</a>
</g>
</g>
<!-- Node17&#45;&gt;Node18 -->
<g id="edge20" class="edge"><title>Node17&#45;&gt;Node18</title>
<path fill="none" stroke="midnightblue" d="M920.355,-389.342C938.459,-389.06 960.323,-388.72 981.712,-388.388"/>
<polygon fill="midnightblue" stroke="midnightblue" points="981.877,-391.886 991.822,-388.231 981.769,-384.887 981.877,-391.886"/>
</g>
<!-- Node19 -->
<g id="node19" class="node"><title>Node19</title>
<g id="a_node19"><a xlink:href="../../d1/d6a/lib_2warpzone_2common_8qc.html#a4a0631162e93630a6ea1d1f7b7b33329" target="_top" xlink:title="WarpZoneLib_BoxTouchesBrush\l_Recurse">
<polygon fill="none" stroke="black" points="1188,-369 1188,-399 1348,-399 1348,-369 1188,-369"/>
<text text-anchor="start" x="1196" y="-387" font-family="Helvetica,sans-Serif" font-size="10.00">WarpZoneLib_BoxTouchesBrush</text>
<text text-anchor="middle" x="1268" y="-376" font-family="Helvetica,sans-Serif" font-size="10.00">_Recurse</text>
</a>
</g>
</g>
<!-- Node18&#45;&gt;Node19 -->
<g id="edge21" class="edge"><title>Node18&#45;&gt;Node19</title>
<path fill="none" stroke="midnightblue" d="M1152.19,-385.775C1160.53,-385.646 1169.05,-385.515 1177.5,-385.384"/>
<polygon fill="midnightblue" stroke="midnightblue" points="1177.81,-388.88 1187.75,-385.225 1177.7,-381.881 1177.81,-388.88"/>
</g>
<!-- Node19&#45;&gt;Node14 -->
<g id="edge22" class="edge"><title>Node19&#45;&gt;Node14</title>
<path fill="none" stroke="midnightblue" d="M1293.51,-368.799C1327.65,-347.632 1389.14,-309.5 1423.35,-288.287"/>
<polygon fill="midnightblue" stroke="midnightblue" points="1425.57,-291.026 1432.23,-282.781 1421.88,-285.077 1425.57,-291.026"/>
</g>
<!-- Node19&#45;&gt;Node20 -->
<g id="edge23" class="edge"><title>Node19&#45;&gt;Node20</title>
<path fill="none" stroke="midnightblue" d="M1348.03,-393.714C1365.7,-395.885 1383.93,-398.125 1399.89,-400.087"/>
<polygon fill="midnightblue" stroke="midnightblue" points="1399.68,-403.587 1410.03,-401.334 1400.53,-396.64 1399.68,-403.587"/>
</g>
<!-- Node22 -->
<g id="node22" class="node"><title>Node22</title>
<g id="a_node22"><a xlink:href="../../d1/d6a/lib_2warpzone_2common_8qc.html#af5e5f1b36ad17b8f9170a150aa5c8967" target="_top" xlink:title="WarpZone_Accumulator_Add">
<polygon fill="none" stroke="black" points="1000,-518.5 1000,-537.5 1144,-537.5 1144,-518.5 1000,-518.5"/>
<text text-anchor="middle" x="1072" y="-525.5" font-family="Helvetica,sans-Serif" font-size="10.00">WarpZone_Accumulator_Add</text>
</a>
</g>
</g>
<!-- Node21&#45;&gt;Node22 -->
<g id="edge25" class="edge"><title>Node21&#45;&gt;Node22</title>
<path fill="none" stroke="midnightblue" d="M956.222,-516.701C967.262,-517.787 978.634,-518.907 989.729,-519.999"/>
<polygon fill="midnightblue" stroke="midnightblue" points="989.53,-523.496 999.825,-520.993 990.216,-516.53 989.53,-523.496"/>
</g>
<!-- Node23 -->
<g id="node23" class="node"><title>Node23</title>
<g id="a_node23"><a xlink:href="../../d1/d6a/lib_2warpzone_2common_8qc.html#a2604ee52b90450a5de9a19d30aa8373f" target="_top" xlink:title="WarpZone_Accumulator\l_AddTransform">
<polygon fill="none" stroke="black" points="1207,-522 1207,-552 1329,-552 1329,-522 1207,-522"/>
<text text-anchor="start" x="1215" y="-540" font-family="Helvetica,sans-Serif" font-size="10.00">WarpZone_Accumulator</text>
<text text-anchor="middle" x="1268" y="-529" font-family="Helvetica,sans-Serif" font-size="10.00">_AddTransform</text>
</a>
</g>
</g>
<!-- Node22&#45;&gt;Node23 -->
<g id="edge26" class="edge"><title>Node22&#45;&gt;Node23</title>
<path fill="none" stroke="midnightblue" d="M1144.14,-531.3C1161.15,-532.09 1179.31,-532.932 1196.31,-533.72"/>
<polygon fill="midnightblue" stroke="midnightblue" points="1196.57,-537.236 1206.72,-534.203 1196.89,-530.244 1196.57,-537.236"/>
</g>
<!-- Node23&#45;&gt;Node7 -->
<g id="edge27" class="edge"><title>Node23&#45;&gt;Node7</title>
<path fill="none" stroke="midnightblue" d="M1329.18,-527.823C1402.11,-516.702 1522.22,-498.385 1578.75,-489.766"/>
<polygon fill="midnightblue" stroke="midnightblue" points="1579.5,-493.192 1588.86,-488.224 1578.44,-486.272 1579.5,-493.192"/>
</g>
<!-- Node24 -->
<g id="node24" class="node"><title>Node24</title>
<g id="a_node24"><a xlink:href="../../df/d13/anglestransform_8qc.html#ac06d70078794b4df23a48f86b7aabf21" target="_top" xlink:title="AnglesTransform_Multiply">
<polygon fill="none" stroke="black" points="1384,-532.5 1384,-551.5 1514,-551.5 1514,-532.5 1384,-532.5"/>
<text text-anchor="middle" x="1449" y="-539.5" font-family="Helvetica,sans-Serif" font-size="10.00">AnglesTransform_Multiply</text>
</a>
</g>
</g>
<!-- Node23&#45;&gt;Node24 -->
<g id="edge28" class="edge"><title>Node23&#45;&gt;Node24</title>
<path fill="none" stroke="midnightblue" d="M1329.1,-538.679C1343.38,-539.078 1358.78,-539.508 1373.61,-539.922"/>
<polygon fill="midnightblue" stroke="midnightblue" points="1373.67,-543.425 1383.76,-540.206 1373.86,-536.428 1373.67,-543.425"/>
</g>
<!-- Node26 -->
<g id="node26" class="node"><title>Node26</title>
<g id="a_node26"><a xlink:href="../../df/d13/anglestransform_8qc.html#a0fdbb008cb55b09916473e7c05b0dfcc" target="_top" xlink:title="AnglesTransform_Multiply\l_GetPostShift">
<polygon fill="none" stroke="black" points="1384,-571 1384,-601 1514,-601 1514,-571 1384,-571"/>
<text text-anchor="start" x="1392" y="-589" font-family="Helvetica,sans-Serif" font-size="10.00">AnglesTransform_Multiply</text>
<text text-anchor="middle" x="1449" y="-578" font-family="Helvetica,sans-Serif" font-size="10.00">_GetPostShift</text>
</a>
</g>
</g>
<!-- Node23&#45;&gt;Node26 -->
<g id="edge31" class="edge"><title>Node23&#45;&gt;Node26</title>
<path fill="none" stroke="midnightblue" d="M1324.17,-552.101C1342.88,-557.225 1363.96,-562.996 1383.35,-568.303"/>
<polygon fill="midnightblue" stroke="midnightblue" points="1382.45,-571.684 1393.02,-570.948 1384.29,-564.932 1382.45,-571.684"/>
</g>
<!-- Node24&#45;&gt;Node7 -->
<g id="edge29" class="edge"><title>Node24&#45;&gt;Node7</title>
<path fill="none" stroke="midnightblue" d="M1476.78,-532.459C1505.07,-522.38 1549.62,-506.51 1579.31,-495.932"/>
<polygon fill="midnightblue" stroke="midnightblue" points="1580.52,-499.217 1588.77,-492.564 1578.17,-492.623 1580.52,-499.217"/>
</g>
<!-- Node25 -->
<g id="node25" class="node"><title>Node25</title>
<g id="a_node25"><a xlink:href="../../df/d13/anglestransform_8qc.html#a6eef2b5d1dcd28a89fa2ab3146011775" target="_top" xlink:title="AnglesTransform_Apply">
<polygon fill="none" stroke="black" points="1550.5,-576.5 1550.5,-595.5 1671.5,-595.5 1671.5,-576.5 1550.5,-576.5"/>
<text text-anchor="middle" x="1611" y="-583.5" font-family="Helvetica,sans-Serif" font-size="10.00">AnglesTransform_Apply</text>
</a>
</g>
</g>
<!-- Node24&#45;&gt;Node25 -->
<g id="edge30" class="edge"><title>Node24&#45;&gt;Node25</title>
<path fill="none" stroke="midnightblue" d="M1484.72,-551.547C1508.41,-558.063 1540,-566.751 1565.54,-573.772"/>
<polygon fill="midnightblue" stroke="midnightblue" points="1564.78,-577.194 1575.35,-576.471 1566.64,-570.445 1564.78,-577.194"/>
</g>
<!-- Node26&#45;&gt;Node25 -->
<g id="edge32" class="edge"><title>Node26&#45;&gt;Node25</title>
<path fill="none" stroke="midnightblue" d="M1514.16,-586C1522.78,-586 1531.66,-586 1540.37,-586"/>
<polygon fill="midnightblue" stroke="midnightblue" points="1540.5,-589.5 1550.5,-586 1540.5,-582.5 1540.5,-589.5"/>
</g>
<!-- Node27&#45;&gt;Node25 -->
<g id="edge34" class="edge"><title>Node27&#45;&gt;Node25</title>
<path fill="none" stroke="midnightblue" d="M1336.59,-610.385C1385.93,-614.453 1454.35,-617.344 1514,-610 1532.67,-607.701 1552.94,-602.978 1570.01,-598.324"/>
<polygon fill="midnightblue" stroke="midnightblue" points="1570.98,-601.687 1579.66,-595.611 1569.09,-594.948 1570.98,-601.687"/>
</g>
<!-- Node31&#45;&gt;Node2 -->
<g id="edge43" class="edge"><title>Node31&#45;&gt;Node2</title>
<path fill="none" stroke="midnightblue" d="M544.16,-38.411C577.77,-31.1128 622.794,-21.3362 650.306,-15.3622"/>
<polygon fill="midnightblue" stroke="midnightblue" points="651.238,-18.7413 660.268,-13.1989 649.753,-11.9007 651.238,-18.7413"/>
</g>
<!-- Node32 -->
<g id="node32" class="node"><title>Node32</title>
<g id="a_node32"><a xlink:href="../../d4/dd8/antilag_8qc.html#ae0fbe788776aa76ba7139d692e9c7adb" target="_top" xlink:title="antilag_restore">
<polygon fill="none" stroke="black" points="636,-38.5 636,-57.5 716,-57.5 716,-38.5 636,-38.5"/>
<text text-anchor="middle" x="676" y="-45.5" font-family="Helvetica,sans-Serif" font-size="10.00">antilag_restore</text>
</a>
</g>
</g>
<!-- Node31&#45;&gt;Node32 -->
<g id="edge40" class="edge"><title>Node31&#45;&gt;Node32</title>
<path fill="none" stroke="midnightblue" d="M546.897,-48C571.259,-48 601.016,-48 625.717,-48"/>
<polygon fill="midnightblue" stroke="midnightblue" points="625.963,-51.5001 635.963,-48 625.963,-44.5001 625.963,-51.5001"/>
</g>
<!-- Node32&#45;&gt;Node11 -->
<g id="edge42" class="edge"><title>Node32&#45;&gt;Node11</title>
<path fill="none" stroke="midnightblue" d="M716.316,-48C752.347,-48 805.243,-48 840.141,-48"/>
<polygon fill="midnightblue" stroke="midnightblue" points="840.355,-51.5001 850.355,-48 840.355,-44.5001 840.355,-51.5001"/>
</g>
<!-- Node32&#45;&gt;Node32 -->
<g id="edge41" class="edge"><title>Node32&#45;&gt;Node32</title>
<path fill="none" stroke="midnightblue" d="M648.873,-57.7571C635.677,-66.5653 644.719,-76 676,-76 697.506,-76 708.5,-71.5406 708.983,-65.8913"/>
<polygon fill="midnightblue" stroke="midnightblue" points="711.81,-63.8273 703.127,-57.7571 706.129,-67.9175 711.81,-63.8273"/>
</g>
</g>
</svg>
        <g id="navigator" transform="translate(0 0)" fill="#404254">
                <rect fill="#f2f5e9" fill-opacity="0.5" stroke="#606060" stroke-width=".5" x="0" y="0" width="60" height="60"/>
                <use id="zoomplus" xlink:href="#zoomPlus" x="17" y="9" onmousedown="handleZoom(evt,'in')"/>
                <use id="zoomminus" xlink:href="#zoomMin" x="42" y="9" onmousedown="handleZoom(evt,'out')"/>
                <use id="reset" xlink:href="#resetDef" x="30" y="36" onmousedown="handleReset()"/>
                <g id="arrowUp" xlink:href="#dirArrow" transform="translate(30 24)" onmousedown="handlePan(0,-1)">
                  <use xlink:href="#rim" fill="#404040">
                        <set attributeName="fill" to="#808080" begin="arrowUp.mouseover" end="arrowUp.mouseout"/>
                  </use>
                  <path fill="none" stroke="white" stroke-width="1.5" d="M0,-3.0v7 M-2.5,-0.5L0,-3.0L2.5,-0.5"/>
                </g>
                <g id="arrowRight" xlink:href="#dirArrow" transform="rotate(90) translate(36 -43)" onmousedown="handlePan(1,0)">
                  <use xlink:href="#rim" fill="#404040">
                        <set attributeName="fill" to="#808080" begin="arrowRight.mouseover" end="arrowRight.mouseout"/>
                  </use>
                  <path fill="none" stroke="white" stroke-width="1.5" d="M0,-3.0v7 M-2.5,-0.5L0,-3.0L2.5,-0.5"/>
                </g>
                <g id="arrowDown" xlink:href="#dirArrow" transform="rotate(180) translate(-30 -48)" onmousedown="handlePan(0,1)">
                  <use xlink:href="#rim" fill="#404040">
                        <set attributeName="fill" to="#808080" begin="arrowDown.mouseover" end="arrowDown.mouseout"/>
                  </use>
                  <path fill="none" stroke="white" stroke-width="1.5" d="M0,-3.0v7 M-2.5,-0.5L0,-3.0L2.5,-0.5"/>
                </g>
                <g id="arrowLeft" xlink:href="#dirArrow" transform="rotate(270) translate(-36 17)" onmousedown="handlePan(-1,0)">
                  <use xlink:href="#rim" fill="#404040">
                        <set attributeName="fill" to="#808080" begin="arrowLeft.mouseover" end="arrowLeft.mouseout"/>
                  </use>
                  <path fill="none" stroke="white" stroke-width="1.5" d="M0,-3.0v7 M-2.5,-0.5L0,-3.0L2.5,-0.5"/>
                </g>
        </g>
        <svg viewBox="0 0 15 15" width="100%" height="30px" preserveAspectRatio="xMaxYMin meet">
         <g id="arrow_out" transform="scale(0.3 0.3)">
          <a xlink:href="server_2miscfunctions_8qh_a5edf83b72581bc3ed7f4b512f534fbfe_cgraph_org.svg" target="_base">
           <rect id="button" ry="5" rx="5" y="6" x="6" height="38" width="38"
                fill="#f2f5e9" fill-opacity="0.5" stroke="#606060" stroke-width="1.0"/>
           <path id="arrow"
             d="M 11.500037,31.436501 C 11.940474,20.09759 22.043105,11.32322 32.158766,21.979434 L 37.068811,17.246167 C 37.068811,17.246167 37.088388,32 37.088388,32 L 22.160133,31.978069 C 22.160133,31.978069 26.997745,27.140456 26.997745,27.140456 C 18.528582,18.264221 13.291696,25.230495 11.500037,31.436501 z"
             style="fill:#404040;"/>
          </a>
         </g>
        </svg>
</svg>
