<?xml version="1.0" encoding="UTF-8" standalone="no"?>
<!DOCTYPE svg PUBLIC "-//W3C//DTD SVG 1.1//EN"
 "http://www.w3.org/Graphics/SVG/1.1/DTD/svg11.dtd">
<!-- Generated by graphviz version 2.36.0 (20140111.2315)
 -->
<!-- Title: menu/menu.qh Pages: 1 -->
<!--zoomable 196 -->
<svg id="main" version="1.1" xmlns="http://www.w3.org/2000/svg" xmlns:xlink="http://www.w3.org/1999/xlink" xml:space="preserve" onload="init(evt)">
<style type="text/css"><![CDATA[
.edge:hover path { stroke: red; }
.edge:hover polygon { stroke: red; fill: red; }
]]></style>
<script type="text/javascript"><![CDATA[
var edges = document.getElementsByTagName('g');
if (edges && edges.length) {
  for (var i=0;i<edges.length;i++) {
    if (edges[i].id.substr(0,4)=='edge') {
      edges[i].setAttribute('class','edge');
    }
  }
}
]]></script>
        <defs>
                <circle id="rim" cx="0" cy="0" r="7"/>
                <circle id="rim2" cx="0" cy="0" r="3.5"/>
                <g id="zoomPlus">
                        <use xlink:href="#rim" fill="#404040">
                                <set attributeName="fill" to="#808080" begin="zoomplus.mouseover" end="zoomplus.mouseout"/>
                        </use>
                        <path d="M-4,0h8M0,-4v8" fill="none" stroke="white" stroke-width="1.5" pointer-events="none"/>
                </g>
                <g id="zoomMin">
                        <use xlink:href="#rim" fill="#404040">
                                <set attributeName="fill" to="#808080" begin="zoomminus.mouseover" end="zoomminus.mouseout"/>
                        </use>
                        <path d="M-4,0h8" fill="none" stroke="white" stroke-width="1.5" pointer-events="none"/>
                </g>
                <g id="dirArrow">
                        <path fill="none" stroke="white" stroke-width="1.5" d="M0,-3.0v7 M-2.5,-0.5L0,-3.0L2.5,-0.5"/>
                </g>
               <g id="resetDef">
                       <use xlink:href="#rim2" fill="#404040">
                               <set attributeName="fill" to="#808080" begin="reset.mouseover" end="reset.mouseout"/>
                       </use>
               </g>
        </defs>

<script type="text/javascript">
var viewWidth = 1020;
var viewHeight = 196;
var sectionId = 'dynsection-1';
</script>
<script xlink:href="../../svgpan.js"/>
<svg id="graph" class="graph">
<g id="viewport">
<title>menu/menu.qh</title>
<!-- Node1 -->
<g id="node1" class="node"><title>Node1</title>
<polygon fill="#bfbfbf" stroke="black" points="417.5,-168.5 417.5,-187.5 498.5,-187.5 498.5,-168.5 417.5,-168.5"/>
<text text-anchor="middle" x="458" y="-175.5" font-family="Helvetica,sans-Serif" font-size="10.00">menu/menu.qh</text>
</g>
<!-- Node2 -->
<g id="node2" class="node"><title>Node2</title>
<g id="a_node2"><a xlink:href="../../d5/d98/menu_2__all_8qh.html" target="_top" xlink:title="menu/_all.qh">
<polygon fill="none" stroke="black" points="0,-112.5 0,-131.5 72,-131.5 72,-112.5 0,-112.5"/>
<text text-anchor="middle" x="36" y="-119.5" font-family="Helvetica,sans-Serif" font-size="10.00">menu/_all.qh</text>
</a>
</g>
</g>
<!-- Node1&#45;&gt;Node2 -->
<g id="edge1" class="edge"><title>Node1&#45;&gt;Node2</title>
<path fill="none" stroke="midnightblue" d="M407.179,-172.214C334.599,-165.09 197.175,-150.522 81,-132 78.1676,-131.548 75.2419,-131.046 72.3051,-130.516"/>
<polygon fill="midnightblue" stroke="midnightblue" points="407.114,-175.725 417.407,-173.211 407.793,-168.758 407.114,-175.725"/>
</g>
<!-- Node3 -->
<g id="node3" class="node"><title>Node3</title>
<g id="a_node3"><a xlink:href="../../df/dc2/menu_8qc.html" target="_top" xlink:title="menu/menu.qc">
<polygon fill="none" stroke="black" points="90.5,-112.5 90.5,-131.5 171.5,-131.5 171.5,-112.5 90.5,-112.5"/>
<text text-anchor="middle" x="131" y="-119.5" font-family="Helvetica,sans-Serif" font-size="10.00">menu/menu.qc</text>
</a>
</g>
</g>
<!-- Node1&#45;&gt;Node3 -->
<g id="edge2" class="edge"><title>Node1&#45;&gt;Node3</title>
<path fill="none" stroke="midnightblue" d="M407.468,-169.15C351.718,-160.412 259.372,-145.712 180,-132 177.273,-131.529 174.461,-131.035 171.63,-130.531"/>
<polygon fill="midnightblue" stroke="midnightblue" points="407.019,-172.622 417.44,-170.71 408.102,-165.706 407.019,-172.622"/>
</g>
<!-- Node6 -->
<g id="node6" class="node"><title>Node6</title>
<g id="a_node6"><a xlink:href="../../de/d64/animation_8qc.html" target="_top" xlink:title="menu/anim/animation.qc">
<polygon fill="none" stroke="black" points="189.5,-112.5 189.5,-131.5 312.5,-131.5 312.5,-112.5 189.5,-112.5"/>
<text text-anchor="middle" x="251" y="-119.5" font-family="Helvetica,sans-Serif" font-size="10.00">menu/anim/animation.qc</text>
</a>
</g>
</g>
<!-- Node1&#45;&gt;Node6 -->
<g id="edge5" class="edge"><title>Node1&#45;&gt;Node6</title>
<path fill="none" stroke="midnightblue" d="M415.178,-165.829C376.094,-155.633 319.165,-140.782 283.646,-131.516"/>
<polygon fill="midnightblue" stroke="midnightblue" points="414.641,-169.306 425.2,-168.444 416.408,-162.533 414.641,-169.306"/>
</g>
<!-- Node8 -->
<g id="node8" class="node"><title>Node8</title>
<g id="a_node8"><a xlink:href="../../d7/d8a/animhost_8qc.html" target="_top" xlink:title="menu/anim/animhost.qc">
<polygon fill="none" stroke="black" points="330.5,-112.5 330.5,-131.5 451.5,-131.5 451.5,-112.5 330.5,-112.5"/>
<text text-anchor="middle" x="391" y="-119.5" font-family="Helvetica,sans-Serif" font-size="10.00">menu/anim/animhost.qc</text>
</a>
</g>
</g>
<!-- Node1&#45;&gt;Node8 -->
<g id="edge8" class="edge"><title>Node1&#45;&gt;Node8</title>
<path fill="none" stroke="midnightblue" d="M439.165,-161.82C427.162,-152.145 412.028,-139.948 401.961,-131.834"/>
<polygon fill="midnightblue" stroke="midnightblue" points="437.253,-164.774 447.235,-168.324 441.646,-159.324 437.253,-164.774"/>
</g>
<!-- Node9 -->
<g id="node9" class="node"><title>Node9</title>
<g id="a_node9"><a xlink:href="../../d3/da9/easing_8qc.html" target="_top" xlink:title="menu/anim/easing.qc">
<polygon fill="none" stroke="black" points="470,-112.5 470,-131.5 580,-131.5 580,-112.5 470,-112.5"/>
<text text-anchor="middle" x="525" y="-119.5" font-family="Helvetica,sans-Serif" font-size="10.00">menu/anim/easing.qc</text>
</a>
</g>
</g>
<!-- Node1&#45;&gt;Node9 -->
<g id="edge10" class="edge"><title>Node1&#45;&gt;Node9</title>
<path fill="none" stroke="midnightblue" d="M476.835,-161.82C488.838,-152.145 503.972,-139.948 514.039,-131.834"/>
<polygon fill="midnightblue" stroke="midnightblue" points="474.354,-159.324 468.765,-168.324 478.747,-164.774 474.354,-159.324"/>
</g>
<!-- Node10 -->
<g id="node10" class="node"><title>Node10</title>
<g id="a_node10"><a xlink:href="../../d2/d58/keyframe_8qc.html" target="_top" xlink:title="menu/anim/keyframe.qc">
<polygon fill="none" stroke="black" points="598,-112.5 598,-131.5 720,-131.5 720,-112.5 598,-112.5"/>
<text text-anchor="middle" x="659" y="-119.5" font-family="Helvetica,sans-Serif" font-size="10.00">menu/anim/keyframe.qc</text>
</a>
</g>
</g>
<!-- Node1&#45;&gt;Node10 -->
<g id="edge12" class="edge"><title>Node1&#45;&gt;Node10</title>
<path fill="none" stroke="midnightblue" d="M499.581,-165.829C537.531,-155.633 592.81,-140.782 627.3,-131.516"/>
<polygon fill="midnightblue" stroke="midnightblue" points="498.598,-162.469 489.849,-168.444 500.415,-169.229 498.598,-162.469"/>
</g>
<!-- Node11 -->
<g id="node11" class="node"><title>Node11</title>
<g id="a_node11"><a xlink:href="../../d7/d47/menu__cmd_8qc.html" target="_top" xlink:title="menu/command/menu_cmd.qc">
<polygon fill="none" stroke="black" points="738.5,-112.5 738.5,-131.5 889.5,-131.5 889.5,-112.5 738.5,-112.5"/>
<text text-anchor="middle" x="814" y="-119.5" font-family="Helvetica,sans-Serif" font-size="10.00">menu/command/menu_cmd.qc</text>
</a>
</g>
</g>
<!-- Node1&#45;&gt;Node11 -->
<g id="edge14" class="edge"><title>Node1&#45;&gt;Node11</title>
<path fill="none" stroke="midnightblue" d="M508.994,-169.265C574.966,-159.258 689.515,-141.883 757.891,-131.511"/>
<polygon fill="midnightblue" stroke="midnightblue" points="508.2,-165.845 498.838,-170.806 509.25,-172.766 508.2,-165.845"/>
</g>
<!-- Node13 -->
<g id="node13" class="node"><title>Node13</title>
<g id="a_node13"><a xlink:href="../../df/d9b/menu_2xonotic_2util_8qc.html" target="_top" xlink:title="menu/xonotic/util.qc">
<polygon fill="none" stroke="black" points="908,-112.5 908,-131.5 1012,-131.5 1012,-112.5 908,-112.5"/>
<text text-anchor="middle" x="960" y="-119.5" font-family="Helvetica,sans-Serif" font-size="10.00">menu/xonotic/util.qc</text>
</a>
</g>
</g>
<!-- Node1&#45;&gt;Node13 -->
<g id="edge17" class="edge"><title>Node1&#45;&gt;Node13</title>
<path fill="none" stroke="midnightblue" d="M508.753,-172.511C590.73,-165.104 757.319,-149.397 898,-132 901.238,-131.6 904.569,-131.169 907.926,-130.722"/>
<polygon fill="midnightblue" stroke="midnightblue" points="508.354,-169.033 498.708,-173.416 508.982,-176.005 508.354,-169.033"/>
</g>
<!-- Node4 -->
<g id="node4" class="node"><title>Node4</title>
<g id="a_node4"><a xlink:href="../../dc/d05/menu_2__mod_8inc.html" target="_top" xlink:title="menu/_mod.inc">
<polygon fill="none" stroke="black" points="230.5,-56.5 230.5,-75.5 313.5,-75.5 313.5,-56.5 230.5,-56.5"/>
<text text-anchor="middle" x="272" y="-63.5" font-family="Helvetica,sans-Serif" font-size="10.00">menu/_mod.inc</text>
</a>
</g>
</g>
<!-- Node3&#45;&gt;Node4 -->
<g id="edge3" class="edge"><title>Node3&#45;&gt;Node4</title>
<path fill="none" stroke="midnightblue" d="M162.929,-108.772C189.414,-98.6287 226.392,-84.4669 249.763,-75.5164"/>
<polygon fill="midnightblue" stroke="midnightblue" points="161.429,-105.599 153.342,-112.444 163.932,-112.136 161.429,-105.599"/>
</g>
<!-- Node5 -->
<g id="node5" class="node"><title>Node5</title>
<g id="a_node5"><a xlink:href="../../d3/d70/menu_2progs_8inc.html" target="_top" xlink:title="menu/progs.inc">
<polygon fill="none" stroke="black" points="570.5,-0.5 570.5,-19.5 653.5,-19.5 653.5,-0.5 570.5,-0.5"/>
<text text-anchor="middle" x="612" y="-7.5" font-family="Helvetica,sans-Serif" font-size="10.00">menu/progs.inc</text>
</a>
</g>
</g>
<!-- Node4&#45;&gt;Node5 -->
<g id="edge4" class="edge"><title>Node4&#45;&gt;Node5</title>
<path fill="none" stroke="midnightblue" d="M323.681,-56.7919C391.177,-46.0719 508.038,-27.5116 570.235,-17.6333"/>
<polygon fill="midnightblue" stroke="midnightblue" points="323.018,-53.3532 313.691,-58.3785 324.116,-60.2666 323.018,-53.3532"/>
</g>
<!-- Node7 -->
<g id="node7" class="node"><title>Node7</title>
<g id="a_node7"><a xlink:href="../../d2/d02/menu_2anim_2__mod_8inc.html" target="_top" xlink:title="menu/anim/_mod.inc">
<polygon fill="none" stroke="black" points="471.5,-56.5 471.5,-75.5 578.5,-75.5 578.5,-56.5 471.5,-56.5"/>
<text text-anchor="middle" x="525" y="-63.5" font-family="Helvetica,sans-Serif" font-size="10.00">menu/anim/_mod.inc</text>
</a>
</g>
</g>
<!-- Node6&#45;&gt;Node7 -->
<g id="edge6" class="edge"><title>Node6&#45;&gt;Node7</title>
<path fill="none" stroke="midnightblue" d="M304.413,-110.473C356.197,-100.268 433.771,-84.9794 481.787,-75.5164"/>
<polygon fill="midnightblue" stroke="midnightblue" points="303.551,-107.076 294.416,-112.444 304.904,-113.944 303.551,-107.076"/>
</g>
<!-- Node7&#45;&gt;Node5 -->
<g id="edge7" class="edge"><title>Node7&#45;&gt;Node5</title>
<path fill="none" stroke="midnightblue" d="M547.716,-50.9005C563.669,-40.9986 584.497,-28.0705 598.057,-19.6545"/>
<polygon fill="midnightblue" stroke="midnightblue" points="545.629,-48.0765 538.978,-56.324 549.32,-54.024 545.629,-48.0765"/>
</g>
<!-- Node8&#45;&gt;Node7 -->
<g id="edge9" class="edge"><title>Node8&#45;&gt;Node7</title>
<path fill="none" stroke="midnightblue" d="M421.677,-108.638C446.823,-98.504 481.754,-84.4274 503.867,-75.5164"/>
<polygon fill="midnightblue" stroke="midnightblue" points="420.2,-105.459 412.233,-112.444 422.816,-111.952 420.2,-105.459"/>
</g>
<!-- Node9&#45;&gt;Node7 -->
<g id="edge11" class="edge"><title>Node9&#45;&gt;Node7</title>
<path fill="none" stroke="midnightblue" d="M525,-101.805C525,-92.9102 525,-82.7798 525,-75.7511"/>
<polygon fill="midnightblue" stroke="midnightblue" points="521.5,-102.083 525,-112.083 528.5,-102.083 521.5,-102.083"/>
</g>
<!-- Node10&#45;&gt;Node7 -->
<g id="edge13" class="edge"><title>Node10&#45;&gt;Node7</title>
<path fill="none" stroke="midnightblue" d="M628.323,-108.638C603.177,-98.504 568.246,-84.4274 546.133,-75.5164"/>
<polygon fill="midnightblue" stroke="midnightblue" points="627.184,-111.952 637.767,-112.444 629.8,-105.459 627.184,-111.952"/>
</g>
<!-- Node12 -->
<g id="node12" class="node"><title>Node12</title>
<g id="a_node12"><a xlink:href="../../de/d53/menu_2command_2__mod_8inc.html" target="_top" xlink:title="menu/command/_mod.inc">
<polygon fill="none" stroke="black" points="635.5,-56.5 635.5,-75.5 764.5,-75.5 764.5,-56.5 635.5,-56.5"/>
<text text-anchor="middle" x="700" y="-63.5" font-family="Helvetica,sans-Serif" font-size="10.00">menu/command/_mod.inc</text>
</a>
</g>
</g>
<!-- Node11&#45;&gt;Node12 -->
<g id="edge15" class="edge"><title>Node11&#45;&gt;Node12</title>
<path fill="none" stroke="midnightblue" d="M786.758,-108.096C765.46,-98.0073 736.458,-84.2697 717.979,-75.5164"/>
<polygon fill="midnightblue" stroke="midnightblue" points="785.401,-111.326 795.936,-112.444 788.397,-105 785.401,-111.326"/>
</g>
<!-- Node12&#45;&gt;Node5 -->
<g id="edge16" class="edge"><title>Node12&#45;&gt;Node5</title>
<path fill="none" stroke="midnightblue" d="M677.023,-50.9005C660.887,-40.9986 639.819,-28.0705 626.104,-19.6545"/>
<polygon fill="midnightblue" stroke="midnightblue" points="675.507,-54.0769 685.861,-56.324 679.169,-48.1106 675.507,-54.0769"/>
</g>
<!-- Node14 -->
<g id="node14" class="node"><title>Node14</title>
<g id="a_node14"><a xlink:href="../../d5/d74/menu_2xonotic_2__mod_8inc.html" target="_top" xlink:title="menu/xonotic/_mod.inc">
<polygon fill="none" stroke="black" points="861,-56.5 861,-75.5 979,-75.5 979,-56.5 861,-56.5"/>
<text text-anchor="middle" x="920" y="-63.5" font-family="Helvetica,sans-Serif" font-size="10.00">menu/xonotic/_mod.inc</text>
</a>
</g>
</g>
<!-- Node13&#45;&gt;Node14 -->
<g id="edge18" class="edge"><title>Node13&#45;&gt;Node14</title>
<path fill="none" stroke="midnightblue" d="M947.3,-103.855C940.374,-94.5048 932.094,-83.3265 926.482,-75.7511"/>
<polygon fill="midnightblue" stroke="midnightblue" points="944.63,-106.131 953.395,-112.083 950.255,-101.964 944.63,-106.131"/>
</g>
<!-- Node14&#45;&gt;Node5 -->
<g id="edge19" class="edge"><title>Node14&#45;&gt;Node5</title>
<path fill="none" stroke="midnightblue" d="M860.992,-54.6545C800.244,-44.0038 707.136,-27.6796 653.661,-18.3042"/>
<polygon fill="midnightblue" stroke="midnightblue" points="860.742,-58.164 871.196,-56.4435 861.951,-51.2691 860.742,-58.164"/>
</g>
</g>
</svg>
        <g id="navigator" transform="translate(0 0)" fill="#404254">
                <rect fill="#f2f5e9" fill-opacity="0.5" stroke="#606060" stroke-width=".5" x="0" y="0" width="60" height="60"/>
                <use id="zoomplus" xlink:href="#zoomPlus" x="17" y="9" onmousedown="handleZoom(evt,'in')"/>
                <use id="zoomminus" xlink:href="#zoomMin" x="42" y="9" onmousedown="handleZoom(evt,'out')"/>
                <use id="reset" xlink:href="#resetDef" x="30" y="36" onmousedown="handleReset()"/>
                <g id="arrowUp" xlink:href="#dirArrow" transform="translate(30 24)" onmousedown="handlePan(0,-1)">
                  <use xlink:href="#rim" fill="#404040">
                        <set attributeName="fill" to="#808080" begin="arrowUp.mouseover" end="arrowUp.mouseout"/>
                  </use>
                  <path fill="none" stroke="white" stroke-width="1.5" d="M0,-3.0v7 M-2.5,-0.5L0,-3.0L2.5,-0.5"/>
                </g>
                <g id="arrowRight" xlink:href="#dirArrow" transform="rotate(90) translate(36 -43)" onmousedown="handlePan(1,0)">
                  <use xlink:href="#rim" fill="#404040">
                        <set attributeName="fill" to="#808080" begin="arrowRight.mouseover" end="arrowRight.mouseout"/>
                  </use>
                  <path fill="none" stroke="white" stroke-width="1.5" d="M0,-3.0v7 M-2.5,-0.5L0,-3.0L2.5,-0.5"/>
                </g>
                <g id="arrowDown" xlink:href="#dirArrow" transform="rotate(180) translate(-30 -48)" onmousedown="handlePan(0,1)">
                  <use xlink:href="#rim" fill="#404040">
                        <set attributeName="fill" to="#808080" begin="arrowDown.mouseover" end="arrowDown.mouseout"/>
                  </use>
                  <path fill="none" stroke="white" stroke-width="1.5" d="M0,-3.0v7 M-2.5,-0.5L0,-3.0L2.5,-0.5"/>
                </g>
                <g id="arrowLeft" xlink:href="#dirArrow" transform="rotate(270) translate(-36 17)" onmousedown="handlePan(-1,0)">
                  <use xlink:href="#rim" fill="#404040">
                        <set attributeName="fill" to="#808080" begin="arrowLeft.mouseover" end="arrowLeft.mouseout"/>
                  </use>
                  <path fill="none" stroke="white" stroke-width="1.5" d="M0,-3.0v7 M-2.5,-0.5L0,-3.0L2.5,-0.5"/>
                </g>
        </g>
        <svg viewBox="0 0 15 15" width="100%" height="30px" preserveAspectRatio="xMaxYMin meet">
         <g id="arrow_out" transform="scale(0.3 0.3)">
          <a xlink:href="menu_8qh__dep__incl_org.svg" target="_base">
           <rect id="button" ry="5" rx="5" y="6" x="6" height="38" width="38"
                fill="#f2f5e9" fill-opacity="0.5" stroke="#606060" stroke-width="1.0"/>
           <path id="arrow"
             d="M 11.500037,31.436501 C 11.940474,20.09759 22.043105,11.32322 32.158766,21.979434 L 37.068811,17.246167 C 37.068811,17.246167 37.088388,32 37.088388,32 L 22.160133,31.978069 C 22.160133,31.978069 26.997745,27.140456 26.997745,27.140456 C 18.528582,18.264221 13.291696,25.230495 11.500037,31.436501 z"
             style="fill:#404040;"/>
          </a>
         </g>
        </svg>
</svg>
