<?xml version="1.0" encoding="UTF-8" standalone="no"?>
<!DOCTYPE svg PUBLIC "-//W3C//DTD SVG 1.1//EN"
 "http://www.w3.org/Graphics/SVG/1.1/DTD/svg11.dtd">
<!-- Generated by graphviz version 2.38.0 (20140413.2041)
 -->
<!-- Title: server/command/common.qh Pages: 1 -->
<svg width="2396pt" height="319pt"
 viewBox="0.00 0.00 2395.50 319.00" xmlns="http://www.w3.org/2000/svg" xmlns:xlink="http://www.w3.org/1999/xlink">
<g id="graph0" class="graph" transform="scale(1 1) rotate(0) translate(4 315)">
<title>server/command/common.qh</title>
<!-- Node1 -->
<g id="node1" class="node"><title>Node1</title>
<polygon fill="#bfbfbf" stroke="black" points="959.5,-291.5 959.5,-310.5 1118.5,-310.5 1118.5,-291.5 959.5,-291.5"/>
<text text-anchor="middle" x="1039" y="-298.5" font-family="Helvetica,sans-Serif" font-size="10.00">server/command/common.qh</text>
</g>
<!-- Node2 -->
<g id="node2" class="node"><title>Node2</title>
<g id="a_node2"><a xlink:href="../../d2/d9b/server_2command_2__mod_8qh.html" target="_top" xlink:title="server/command/_mod.qh">
<polygon fill="none" stroke="black" points="350.5,-235.5 350.5,-254.5 493.5,-254.5 493.5,-235.5 350.5,-235.5"/>
<text text-anchor="middle" x="422" y="-242.5" font-family="Helvetica,sans-Serif" font-size="10.00">server/command/_mod.qh</text>
</a>
</g>
</g>
<!-- Node1&#45;&gt;Node2 -->
<g id="edge1" class="edge"><title>Node1&#45;&gt;Node2</title>
<path fill="none" stroke="midnightblue" d="M949.122,-292.134C825.863,-281.346 606.821,-262.176 493.832,-252.287"/>
<polygon fill="midnightblue" stroke="midnightblue" points="949.019,-295.638 959.286,-293.023 949.629,-288.665 949.019,-295.638"/>
</g>
<!-- Node10 -->
<g id="node10" class="node"><title>Node10</title>
<g id="a_node10"><a xlink:href="../../d3/df2/sv__cmd_8qc.html" target="_top" xlink:title="server/command/sv_cmd.qc">
<polygon fill="none" stroke="black" points="498,-174 498,-193 650,-193 650,-174 498,-174"/>
<text text-anchor="middle" x="574" y="-181" font-family="Helvetica,sans-Serif" font-size="10.00">server/command/sv_cmd.qc</text>
</a>
</g>
</g>
<!-- Node1&#45;&gt;Node10 -->
<g id="edge48" class="edge"><title>Node1&#45;&gt;Node10</title>
<path fill="none" stroke="midnightblue" d="M949.103,-294.28C856.558,-287.462 719.154,-274.484 670,-255 633.284,-240.446 597.916,-208.365 582.323,-193.012"/>
<polygon fill="midnightblue" stroke="midnightblue" points="949.088,-297.788 959.315,-295.021 949.594,-290.806 949.088,-297.788"/>
</g>
<!-- Node11 -->
<g id="node11" class="node"><title>Node11</title>
<g id="a_node11"><a xlink:href="../../d6/d29/anticheat_8qc.html" target="_top" xlink:title="server/anticheat.qc">
<polygon fill="none" stroke="black" points="449.5,-112.5 449.5,-131.5 558.5,-131.5 558.5,-112.5 449.5,-112.5"/>
<text text-anchor="middle" x="504" y="-119.5" font-family="Helvetica,sans-Serif" font-size="10.00">server/anticheat.qc</text>
</a>
</g>
</g>
<!-- Node1&#45;&gt;Node11 -->
<g id="edge11" class="edge"><title>Node1&#45;&gt;Node11</title>
<path fill="none" stroke="midnightblue" d="M965.872,-289.862C921.767,-282.617 864.85,-271.249 816,-255 760.917,-236.678 747.265,-229.705 698,-199 679.209,-187.288 678.67,-178.167 659,-168 624.649,-150.244 582.291,-138.555 550.541,-131.551"/>
<polygon fill="midnightblue" stroke="midnightblue" points="965.507,-293.349 975.936,-291.481 966.618,-286.437 965.507,-293.349"/>
</g>
<!-- Node12 -->
<g id="node12" class="node"><title>Node12</title>
<g id="a_node12"><a xlink:href="../../d0/dc4/server_2chat_8qc.html" target="_top" xlink:title="server/chat.qc">
<polygon fill="none" stroke="black" points="576.5,-112.5 576.5,-131.5 661.5,-131.5 661.5,-112.5 576.5,-112.5"/>
<text text-anchor="middle" x="619" y="-119.5" font-family="Helvetica,sans-Serif" font-size="10.00">server/chat.qc</text>
</a>
</g>
</g>
<!-- Node1&#45;&gt;Node12 -->
<g id="edge13" class="edge"><title>Node1&#45;&gt;Node12</title>
<path fill="none" stroke="midnightblue" d="M977.939,-289.514C941.248,-282.15 894.06,-270.778 854,-255 848.136,-252.69 685.618,-160.731 634.344,-131.692"/>
<polygon fill="midnightblue" stroke="midnightblue" points="977.508,-292.997 987.995,-291.486 978.855,-286.127 977.508,-292.997"/>
</g>
<!-- Node13 -->
<g id="node13" class="node"><title>Node13</title>
<g id="a_node13"><a xlink:href="../../df/dd7/server_2client_8qc.html" target="_top" xlink:title="server/client.qc">
<polygon fill="none" stroke="black" points="679.5,-112.5 679.5,-131.5 768.5,-131.5 768.5,-112.5 679.5,-112.5"/>
<text text-anchor="middle" x="724" y="-119.5" font-family="Helvetica,sans-Serif" font-size="10.00">server/client.qc</text>
</a>
</g>
</g>
<!-- Node1&#45;&gt;Node13 -->
<g id="edge15" class="edge"><title>Node1&#45;&gt;Node13</title>
<path fill="none" stroke="midnightblue" d="M984.856,-289.074C955.44,-281.848 919.045,-270.76 889,-255 821.753,-219.725 755.376,-155.192 732.43,-131.78"/>
<polygon fill="midnightblue" stroke="midnightblue" points="984.409,-292.565 994.948,-291.47 986.027,-285.755 984.409,-292.565"/>
</g>
<!-- Node14 -->
<g id="node14" class="node"><title>Node14</title>
<g id="a_node14"><a xlink:href="../../d7/de6/server_2hook_8qc.html" target="_top" xlink:title="server/hook.qc">
<polygon fill="none" stroke="black" points="786.5,-112.5 786.5,-131.5 873.5,-131.5 873.5,-112.5 786.5,-112.5"/>
<text text-anchor="middle" x="830" y="-119.5" font-family="Helvetica,sans-Serif" font-size="10.00">server/hook.qc</text>
</a>
</g>
</g>
<!-- Node1&#45;&gt;Node14 -->
<g id="edge17" class="edge"><title>Node1&#45;&gt;Node14</title>
<path fill="none" stroke="midnightblue" d="M982.771,-288.79C959.084,-281.979 932.351,-271.335 912,-255 868.449,-220.043 841.714,-155.313 833.076,-131.815"/>
<polygon fill="midnightblue" stroke="midnightblue" points="982.141,-292.245 992.709,-291.48 983.97,-285.488 982.141,-292.245"/>
</g>
<!-- Node15 -->
<g id="node15" class="node"><title>Node15</title>
<g id="a_node15"><a xlink:href="../../d4/d53/server_2impulse_8qc.html" target="_top" xlink:title="server/impulse.qc">
<polygon fill="none" stroke="black" points="891.5,-112.5 891.5,-131.5 992.5,-131.5 992.5,-112.5 891.5,-112.5"/>
<text text-anchor="middle" x="942" y="-119.5" font-family="Helvetica,sans-Serif" font-size="10.00">server/impulse.qc</text>
</a>
</g>
</g>
<!-- Node1&#45;&gt;Node15 -->
<g id="edge19" class="edge"><title>Node1&#45;&gt;Node15</title>
<path fill="none" stroke="midnightblue" d="M1002.49,-287.873C965.259,-273.311 909.582,-244.933 885,-199 878.499,-186.852 878.992,-180.399 885,-168 893.028,-151.435 910.438,-139.128 923.918,-131.61"/>
<polygon fill="midnightblue" stroke="midnightblue" points="1001.4,-291.203 1011.99,-291.448 1003.87,-284.651 1001.4,-291.203"/>
</g>
<!-- Node16 -->
<g id="node16" class="node"><title>Node16</title>
<g id="a_node16"><a xlink:href="../../db/d95/server_2main_8qc.html" target="_top" xlink:title="server/main.qc">
<polygon fill="none" stroke="black" points="894,-174 894,-193 982,-193 982,-174 894,-174"/>
<text text-anchor="middle" x="938" y="-181" font-family="Helvetica,sans-Serif" font-size="10.00">server/main.qc</text>
</a>
</g>
</g>
<!-- Node1&#45;&gt;Node16 -->
<g id="edge21" class="edge"><title>Node1&#45;&gt;Node16</title>
<path fill="none" stroke="midnightblue" d="M1019.54,-285.112C1009.3,-276.811 996.854,-265.958 987,-255 968.661,-234.607 951.371,-207.108 943.096,-193.254"/>
<polygon fill="midnightblue" stroke="midnightblue" points="1017.51,-287.968 1027.52,-291.432 1021.85,-282.48 1017.51,-287.968"/>
</g>
<!-- Node17 -->
<g id="node17" class="node"><title>Node17</title>
<g id="a_node17"><a xlink:href="../../dc/dc6/server_2miscfunctions_8qc.html" target="_top" xlink:title="server/miscfunctions.qc">
<polygon fill="none" stroke="black" points="1049,-112.5 1049,-131.5 1179,-131.5 1179,-112.5 1049,-112.5"/>
<text text-anchor="middle" x="1114" y="-119.5" font-family="Helvetica,sans-Serif" font-size="10.00">server/miscfunctions.qc</text>
</a>
</g>
</g>
<!-- Node1&#45;&gt;Node17 -->
<g id="edge23" class="edge"><title>Node1&#45;&gt;Node17</title>
<path fill="none" stroke="midnightblue" d="M1031.4,-281.815C1021.42,-254.854 1007.55,-203.633 1029,-168 1040.11,-149.547 1061.61,-138.265 1080.2,-131.612"/>
<polygon fill="midnightblue" stroke="midnightblue" points="1028.16,-283.147 1035.07,-291.177 1034.68,-280.589 1028.16,-283.147"/>
</g>
<!-- Node18 -->
<g id="node18" class="node"><title>Node18</title>
<g id="a_node18"><a xlink:href="../../db/d9b/server_2player_8qc.html" target="_top" xlink:title="server/player.qc">
<polygon fill="none" stroke="black" points="1038,-174 1038,-193 1130,-193 1130,-174 1038,-174"/>
<text text-anchor="middle" x="1084" y="-181" font-family="Helvetica,sans-Serif" font-size="10.00">server/player.qc</text>
</a>
</g>
</g>
<!-- Node1&#45;&gt;Node18 -->
<g id="edge25" class="edge"><title>Node1&#45;&gt;Node18</title>
<path fill="none" stroke="midnightblue" d="M1045.62,-281.451C1050.34,-268.407 1056.89,-250.573 1063,-235 1068.83,-220.15 1076.05,-203.042 1080.33,-193.035"/>
<polygon fill="midnightblue" stroke="midnightblue" points="1042.23,-280.531 1042.15,-291.126 1048.82,-282.898 1042.23,-280.531"/>
</g>
<!-- Node19 -->
<g id="node19" class="node"><title>Node19</title>
<g id="a_node19"><a xlink:href="../../d2/d79/scores_8qc.html" target="_top" xlink:title="server/scores.qc">
<polygon fill="none" stroke="black" points="1235.5,-112.5 1235.5,-131.5 1330.5,-131.5 1330.5,-112.5 1235.5,-112.5"/>
<text text-anchor="middle" x="1283" y="-119.5" font-family="Helvetica,sans-Serif" font-size="10.00">server/scores.qc</text>
</a>
</g>
</g>
<!-- Node1&#45;&gt;Node19 -->
<g id="edge27" class="edge"><title>Node1&#45;&gt;Node19</title>
<path fill="none" stroke="midnightblue" d="M1051.48,-283.018C1062.27,-269.073 1078.79,-249.354 1096,-235 1152.08,-188.214 1229.89,-148.315 1264.79,-131.51"/>
<polygon fill="midnightblue" stroke="midnightblue" points="1048.51,-281.144 1045.28,-291.233 1054.1,-285.365 1048.51,-281.144"/>
</g>
<!-- Node20 -->
<g id="node20" class="node"><title>Node20</title>
<g id="a_node20"><a xlink:href="../../dd/dbe/world_8qc.html" target="_top" xlink:title="server/world.qc">
<polygon fill="none" stroke="black" points="1105.5,-235.5 1105.5,-254.5 1194.5,-254.5 1194.5,-235.5 1105.5,-235.5"/>
<text text-anchor="middle" x="1150" y="-242.5" font-family="Helvetica,sans-Serif" font-size="10.00">server/world.qc</text>
</a>
</g>
</g>
<!-- Node1&#45;&gt;Node20 -->
<g id="edge29" class="edge"><title>Node1&#45;&gt;Node20</title>
<path fill="none" stroke="midnightblue" d="M1066.01,-286.862C1086.59,-276.849 1114.34,-263.346 1132.21,-254.655"/>
<polygon fill="midnightblue" stroke="midnightblue" points="1064.3,-283.802 1056.83,-291.324 1067.36,-290.097 1064.3,-283.802"/>
</g>
<!-- Node21 -->
<g id="node21" class="node"><title>Node21</title>
<g id="a_node21"><a xlink:href="../../dd/d31/banning_8qc.html" target="_top" xlink:title="server/command/banning.qc">
<polygon fill="none" stroke="black" points="1213,-235.5 1213,-254.5 1367,-254.5 1367,-235.5 1213,-235.5"/>
<text text-anchor="middle" x="1290" y="-242.5" font-family="Helvetica,sans-Serif" font-size="10.00">server/command/banning.qc</text>
</a>
</g>
</g>
<!-- Node1&#45;&gt;Node21 -->
<g id="edge31" class="edge"><title>Node1&#45;&gt;Node21</title>
<path fill="none" stroke="midnightblue" d="M1088.82,-289.281C1136.25,-279.077 1206.7,-263.92 1250.41,-254.516"/>
<polygon fill="midnightblue" stroke="midnightblue" points="1087.81,-285.918 1078.77,-291.444 1089.28,-292.762 1087.81,-285.918"/>
</g>
<!-- Node23 -->
<g id="node23" class="node"><title>Node23</title>
<g id="a_node23"><a xlink:href="../../d8/d1d/cmd_8qc.html" target="_top" xlink:title="server/command/cmd.qc">
<polygon fill="none" stroke="black" points="1385.5,-235.5 1385.5,-254.5 1522.5,-254.5 1522.5,-235.5 1385.5,-235.5"/>
<text text-anchor="middle" x="1454" y="-242.5" font-family="Helvetica,sans-Serif" font-size="10.00">server/command/cmd.qc</text>
</a>
</g>
</g>
<!-- Node1&#45;&gt;Node23 -->
<g id="edge34" class="edge"><title>Node1&#45;&gt;Node23</title>
<path fill="none" stroke="midnightblue" d="M1115.05,-290.105C1193.42,-279.907 1314.31,-264.177 1388.55,-254.516"/>
<polygon fill="midnightblue" stroke="midnightblue" points="1114.22,-286.682 1104.76,-291.444 1115.13,-293.624 1114.22,-286.682"/>
</g>
<!-- Node24 -->
<g id="node24" class="node"><title>Node24</title>
<g id="a_node24"><a xlink:href="../../de/d55/server_2command_2common_8qc.html" target="_top" xlink:title="server/command/common.qc">
<polygon fill="none" stroke="black" points="1541,-235.5 1541,-254.5 1699,-254.5 1699,-235.5 1541,-235.5"/>
<text text-anchor="middle" x="1620" y="-242.5" font-family="Helvetica,sans-Serif" font-size="10.00">server/command/common.qc</text>
</a>
</g>
</g>
<!-- Node1&#45;&gt;Node24 -->
<g id="edge36" class="edge"><title>Node1&#45;&gt;Node24</title>
<path fill="none" stroke="midnightblue" d="M1128.93,-292.035C1227.59,-283.236 1390.61,-268.518 1531,-255 1534.25,-254.687 1537.56,-254.366 1540.91,-254.038"/>
<polygon fill="midnightblue" stroke="midnightblue" points="1128.35,-288.573 1118.7,-292.947 1128.97,-295.545 1128.35,-288.573"/>
</g>
<!-- Node25 -->
<g id="node25" class="node"><title>Node25</title>
<g id="a_node25"><a xlink:href="../../d1/dad/server_2command_2vote_8qc.html" target="_top" xlink:title="server/command/vote.qc">
<polygon fill="none" stroke="black" points="1717.5,-235.5 1717.5,-254.5 1854.5,-254.5 1854.5,-235.5 1717.5,-235.5"/>
<text text-anchor="middle" x="1786" y="-242.5" font-family="Helvetica,sans-Serif" font-size="10.00">server/command/vote.qc</text>
</a>
</g>
</g>
<!-- Node1&#45;&gt;Node25 -->
<g id="edge38" class="edge"><title>Node1&#45;&gt;Node25</title>
<path fill="none" stroke="midnightblue" d="M1128.83,-295.322C1257.35,-288.32 1501.03,-273.891 1708,-255 1710.99,-254.727 1714.04,-254.435 1717.11,-254.129"/>
<polygon fill="midnightblue" stroke="midnightblue" points="1128.45,-291.838 1118.65,-295.875 1128.83,-298.828 1128.45,-291.838"/>
</g>
<!-- Node26 -->
<g id="node26" class="node"><title>Node26</title>
<g id="a_node26"><a xlink:href="../../df/d4c/server_2pathlib_2main_8qc.html" target="_top" xlink:title="server/pathlib/main.qc">
<polygon fill="none" stroke="black" points="1872.5,-235.5 1872.5,-254.5 1995.5,-254.5 1995.5,-235.5 1872.5,-235.5"/>
<text text-anchor="middle" x="1934" y="-242.5" font-family="Helvetica,sans-Serif" font-size="10.00">server/pathlib/main.qc</text>
</a>
</g>
</g>
<!-- Node1&#45;&gt;Node26 -->
<g id="edge40" class="edge"><title>Node1&#45;&gt;Node26</title>
<path fill="none" stroke="midnightblue" d="M1128.87,-297.197C1280.48,-291.998 1596.59,-279.128 1863,-255 1866.09,-254.72 1869.26,-254.409 1872.46,-254.075"/>
<polygon fill="midnightblue" stroke="midnightblue" points="1128.56,-293.706 1118.68,-297.544 1128.79,-300.702 1128.56,-293.706"/>
</g>
<!-- Node28 -->
<g id="node28" class="node"><title>Node28</title>
<g id="a_node28"><a xlink:href="../../d0/dcd/csqcprojectile_8qc.html" target="_top" xlink:title="server/weapons/csqcprojectile.qc">
<polygon fill="none" stroke="black" points="2014,-235.5 2014,-254.5 2188,-254.5 2188,-235.5 2014,-235.5"/>
<text text-anchor="middle" x="2101" y="-242.5" font-family="Helvetica,sans-Serif" font-size="10.00">server/weapons/csqcprojectile.qc</text>
</a>
</g>
</g>
<!-- Node1&#45;&gt;Node28 -->
<g id="edge43" class="edge"><title>Node1&#45;&gt;Node28</title>
<path fill="none" stroke="midnightblue" d="M1128.79,-297.225C1299.57,-291.635 1682.9,-277.588 2005,-255 2007.92,-254.795 2010.89,-254.576 2013.89,-254.346"/>
<polygon fill="midnightblue" stroke="midnightblue" points="1128.47,-293.733 1118.59,-297.557 1128.7,-300.73 1128.47,-293.733"/>
</g>
<!-- Node30 -->
<g id="node30" class="node"><title>Node30</title>
<g id="a_node30"><a xlink:href="../../d5/de0/weaponsystem_8qc.html" target="_top" xlink:title="server/weapons/weaponsystem.qc">
<polygon fill="none" stroke="black" points="2206.5,-235.5 2206.5,-254.5 2387.5,-254.5 2387.5,-235.5 2206.5,-235.5"/>
<text text-anchor="middle" x="2297" y="-242.5" font-family="Helvetica,sans-Serif" font-size="10.00">server/weapons/weaponsystem.qc</text>
</a>
</g>
</g>
<!-- Node1&#45;&gt;Node30 -->
<g id="edge46" class="edge"><title>Node1&#45;&gt;Node30</title>
<path fill="none" stroke="midnightblue" d="M1128.93,-298.064C1323.75,-293.528 1799.3,-280.607 2197,-255 2200.04,-254.804 2203.14,-254.593 2206.26,-254.369"/>
<polygon fill="midnightblue" stroke="midnightblue" points="1128.66,-294.569 1118.75,-298.3 1128.82,-301.568 1128.66,-294.569"/>
</g>
<!-- Node3 -->
<g id="node3" class="node"><title>Node3</title>
<g id="a_node3"><a xlink:href="../../dc/d0d/sv__lms_8qc.html" target="_top" xlink:title="common/gamemodes/gamemode\l/lms/sv_lms.qc">
<polygon fill="none" stroke="black" points="0,-168.5 0,-198.5 182,-198.5 182,-168.5 0,-168.5"/>
<text text-anchor="start" x="8" y="-186.5" font-family="Helvetica,sans-Serif" font-size="10.00">common/gamemodes/gamemode</text>
<text text-anchor="middle" x="91" y="-175.5" font-family="Helvetica,sans-Serif" font-size="10.00">/lms/sv_lms.qc</text>
</a>
</g>
</g>
<!-- Node2&#45;&gt;Node3 -->
<g id="edge2" class="edge"><title>Node2&#45;&gt;Node3</title>
<path fill="none" stroke="midnightblue" d="M364.468,-233.658C310.364,-223.933 228.945,-209.297 169.01,-198.523"/>
<polygon fill="midnightblue" stroke="midnightblue" points="364.114,-237.151 374.576,-235.475 365.353,-230.261 364.114,-237.151"/>
</g>
<!-- Node4 -->
<g id="node4" class="node"><title>Node4</title>
<g id="a_node4"><a xlink:href="../../da/d4e/sv__monsters_8qc.html" target="_top" xlink:title="common/monsters/sv\l_monsters.qc">
<polygon fill="none" stroke="black" points="200,-168.5 200,-198.5 322,-198.5 322,-168.5 200,-168.5"/>
<text text-anchor="start" x="208" y="-186.5" font-family="Helvetica,sans-Serif" font-size="10.00">common/monsters/sv</text>
<text text-anchor="middle" x="261" y="-175.5" font-family="Helvetica,sans-Serif" font-size="10.00">_monsters.qc</text>
</a>
</g>
</g>
<!-- Node2&#45;&gt;Node4 -->
<g id="edge3" class="edge"><title>Node2&#45;&gt;Node4</title>
<path fill="none" stroke="midnightblue" d="M389.463,-231.976C363.287,-222.302 326.461,-208.692 298.945,-198.523"/>
<polygon fill="midnightblue" stroke="midnightblue" points="388.339,-235.292 398.933,-235.475 390.766,-228.726 388.339,-235.292"/>
</g>
<!-- Node5 -->
<g id="node5" class="node"><title>Node5</title>
<g id="a_node5"><a xlink:href="../../df/d7d/tests_8qh.html" target="_top" xlink:title="server/tests.qh">
<polygon fill="none" stroke="black" points="340.5,-174 340.5,-193 429.5,-193 429.5,-174 340.5,-174"/>
<text text-anchor="middle" x="385" y="-181" font-family="Helvetica,sans-Serif" font-size="10.00">server/tests.qh</text>
</a>
</g>
</g>
<!-- Node2&#45;&gt;Node5 -->
<g id="edge4" class="edge"><title>Node2&#45;&gt;Node5</title>
<path fill="none" stroke="midnightblue" d="M411.224,-226.671C404.344,-215.608 395.728,-201.751 390.291,-193.009"/>
<polygon fill="midnightblue" stroke="midnightblue" points="408.446,-228.831 416.699,-235.475 414.39,-225.135 408.446,-228.831"/>
</g>
<!-- Node9 -->
<g id="node9" class="node"><title>Node9</title>
<g id="a_node9"><a xlink:href="../../db/d52/server_2__mod_8qh.html" target="_top" xlink:title="server/_mod.qh">
<polygon fill="none" stroke="black" points="339,-112.5 339,-131.5 431,-131.5 431,-112.5 339,-112.5"/>
<text text-anchor="middle" x="385" y="-119.5" font-family="Helvetica,sans-Serif" font-size="10.00">server/_mod.qh</text>
</a>
</g>
</g>
<!-- Node2&#45;&gt;Node9 -->
<g id="edge9" class="edge"><title>Node2&#45;&gt;Node9</title>
<path fill="none" stroke="midnightblue" d="M431.955,-225.952C439.298,-210.083 446.64,-186.671 438,-168 430.497,-151.787 413.955,-139.28 401.334,-131.613"/>
<polygon fill="midnightblue" stroke="midnightblue" points="428.685,-224.662 427.297,-235.166 434.932,-227.82 428.685,-224.662"/>
</g>
<!-- Node2&#45;&gt;Node10 -->
<g id="edge10" class="edge"><title>Node2&#45;&gt;Node10</title>
<path fill="none" stroke="midnightblue" d="M453.211,-231.782C482.749,-220.22 526.32,-203.164 552.263,-193.009"/>
<polygon fill="midnightblue" stroke="midnightblue" points="451.814,-228.571 443.778,-235.475 454.366,-235.089 451.814,-228.571"/>
</g>
<!-- Node6 -->
<g id="node6" class="node"><title>Node6</title>
<g id="a_node6"><a xlink:href="../../dd/dde/tests_8qc.html" target="_top" xlink:title="server/tests.qc">
<polygon fill="none" stroke="black" points="233,-112.5 233,-131.5 321,-131.5 321,-112.5 233,-112.5"/>
<text text-anchor="middle" x="277" y="-119.5" font-family="Helvetica,sans-Serif" font-size="10.00">server/tests.qc</text>
</a>
</g>
</g>
<!-- Node5&#45;&gt;Node6 -->
<g id="edge5" class="edge"><title>Node5&#45;&gt;Node6</title>
<path fill="none" stroke="midnightblue" d="M360.598,-169.056C339.698,-157.542 310.237,-141.311 292.445,-131.509"/>
<polygon fill="midnightblue" stroke="midnightblue" points="359.079,-172.215 369.526,-173.975 362.456,-166.084 359.079,-172.215"/>
</g>
<!-- Node5&#45;&gt;Node9 -->
<g id="edge8" class="edge"><title>Node5&#45;&gt;Node9</title>
<path fill="none" stroke="midnightblue" d="M385,-163.817C385,-152.996 385,-139.898 385,-131.509"/>
<polygon fill="midnightblue" stroke="midnightblue" points="381.5,-163.975 385,-173.975 388.5,-163.975 381.5,-163.975"/>
</g>
<!-- Node7 -->
<g id="node7" class="node"><title>Node7</title>
<g id="a_node7"><a xlink:href="../../dc/d7f/server_2__mod_8inc.html" target="_top" xlink:title="server/_mod.inc">
<polygon fill="none" stroke="black" points="1020.5,-56.5 1020.5,-75.5 1113.5,-75.5 1113.5,-56.5 1020.5,-56.5"/>
<text text-anchor="middle" x="1067" y="-63.5" font-family="Helvetica,sans-Serif" font-size="10.00">server/_mod.inc</text>
</a>
</g>
</g>
<!-- Node6&#45;&gt;Node7 -->
<g id="edge6" class="edge"><title>Node6&#45;&gt;Node7</title>
<path fill="none" stroke="midnightblue" d="M331.447,-111.958C597.726,-81.8247 905.025,-71.2368 1020.28,-68.1146"/>
<polygon fill="midnightblue" stroke="midnightblue" points="330.733,-108.517 321.196,-113.131 331.529,-115.472 330.733,-108.517"/>
</g>
<!-- Node8 -->
<g id="node8" class="node"><title>Node8</title>
<g id="a_node8"><a xlink:href="../../dd/d96/server_2progs_8inc.html" target="_top" xlink:title="server/progs.inc">
<polygon fill="none" stroke="black" points="1020.5,-0.5 1020.5,-19.5 1113.5,-19.5 1113.5,-0.5 1020.5,-0.5"/>
<text text-anchor="middle" x="1067" y="-7.5" font-family="Helvetica,sans-Serif" font-size="10.00">server/progs.inc</text>
</a>
</g>
</g>
<!-- Node7&#45;&gt;Node8 -->
<g id="edge7" class="edge"><title>Node7&#45;&gt;Node8</title>
<path fill="none" stroke="midnightblue" d="M1067,-45.8045C1067,-36.9102 1067,-26.7798 1067,-19.7511"/>
<polygon fill="midnightblue" stroke="midnightblue" points="1063.5,-46.083 1067,-56.083 1070.5,-46.083 1063.5,-46.083"/>
</g>
<!-- Node11&#45;&gt;Node7 -->
<g id="edge12" class="edge"><title>Node11&#45;&gt;Node7</title>
<path fill="none" stroke="midnightblue" d="M568.625,-111.861C740.953,-92.0424 933.561,-76.8515 1020.39,-70.3793"/>
<polygon fill="midnightblue" stroke="midnightblue" points="568.144,-108.393 558.613,-113.02 568.949,-115.347 568.144,-108.393"/>
</g>
<!-- Node12&#45;&gt;Node7 -->
<g id="edge14" class="edge"><title>Node12&#45;&gt;Node7</title>
<path fill="none" stroke="midnightblue" d="M671.838,-111.807C803.875,-92.9445 948.029,-78.2858 1020.43,-71.337"/>
<polygon fill="midnightblue" stroke="midnightblue" points="670.944,-108.399 661.545,-113.289 671.942,-115.328 670.944,-108.399"/>
</g>
<!-- Node13&#45;&gt;Node7 -->
<g id="edge16" class="edge"><title>Node13&#45;&gt;Node7</title>
<path fill="none" stroke="midnightblue" d="M778.482,-111.776C869.735,-96.9979 964.928,-82.4273 1020.26,-74.0436"/>
<polygon fill="midnightblue" stroke="midnightblue" points="777.835,-108.335 768.525,-113.392 778.957,-115.245 777.835,-108.335"/>
</g>
<!-- Node14&#45;&gt;Node7 -->
<g id="edge18" class="edge"><title>Node14&#45;&gt;Node7</title>
<path fill="none" stroke="midnightblue" d="M877.324,-110.217C922.108,-100.013 988.436,-84.9006 1029.62,-75.5164"/>
<polygon fill="midnightblue" stroke="midnightblue" points="876.526,-106.809 867.553,-112.444 878.081,-113.634 876.526,-106.809"/>
</g>
<!-- Node15&#45;&gt;Node7 -->
<g id="edge20" class="edge"><title>Node15&#45;&gt;Node7</title>
<path fill="none" stroke="midnightblue" d="M971.241,-108.368C994.65,-98.2553 1026.84,-84.3486 1047.29,-75.5164"/>
<polygon fill="midnightblue" stroke="midnightblue" points="969.599,-105.265 961.807,-112.444 972.375,-111.691 969.599,-105.265"/>
</g>
<!-- Node16&#45;&gt;Node7 -->
<g id="edge22" class="edge"><title>Node16&#45;&gt;Node7</title>
<path fill="none" stroke="midnightblue" d="M957.475,-167.719C970.142,-157.905 986.87,-144.562 1001,-132 1022.63,-112.766 1046.47,-88.4448 1058.72,-75.6993"/>
<polygon fill="midnightblue" stroke="midnightblue" points="955.233,-165.028 949.437,-173.897 959.498,-170.578 955.233,-165.028"/>
</g>
<!-- Node17&#45;&gt;Node7 -->
<g id="edge24" class="edge"><title>Node17&#45;&gt;Node7</title>
<path fill="none" stroke="midnightblue" d="M1099.58,-104.431C1091.34,-94.9673 1081.35,-83.4827 1074.62,-75.7511"/>
<polygon fill="midnightblue" stroke="midnightblue" points="1097.03,-106.838 1106.24,-112.083 1102.31,-102.242 1097.03,-106.838"/>
</g>
<!-- Node18&#45;&gt;Node7 -->
<g id="edge26" class="edge"><title>Node18&#45;&gt;Node7</title>
<path fill="none" stroke="midnightblue" d="M1129.49,-170.984C1165.63,-159.499 1207.17,-139.588 1188,-112 1171.31,-87.9826 1140.19,-76.7579 1113.69,-71.5246"/>
<polygon fill="midnightblue" stroke="midnightblue" points="1128.06,-167.76 1119.5,-174 1130.08,-174.462 1128.06,-167.76"/>
</g>
<!-- Node19&#45;&gt;Node7 -->
<g id="edge28" class="edge"><title>Node19&#45;&gt;Node7</title>
<path fill="none" stroke="midnightblue" d="M1238.84,-109.959C1198.04,-99.7598 1138.29,-84.8217 1101.07,-75.5164"/>
<polygon fill="midnightblue" stroke="midnightblue" points="1238.22,-113.414 1248.77,-112.444 1239.92,-106.623 1238.22,-113.414"/>
</g>
<!-- Node20&#45;&gt;Node7 -->
<g id="edge30" class="edge"><title>Node20&#45;&gt;Node7</title>
<path fill="none" stroke="midnightblue" d="M1194.82,-232.706C1264.81,-213.001 1387.3,-168.948 1339,-112 1310.63,-78.5543 1183.5,-69.9329 1113.54,-67.7338"/>
<polygon fill="midnightblue" stroke="midnightblue" points="1193.61,-229.408 1184.9,-235.435 1195.47,-236.157 1193.61,-229.408"/>
</g>
<!-- Node22 -->
<g id="node22" class="node"><title>Node22</title>
<g id="a_node22"><a xlink:href="../../d8/db6/server_2command_2__mod_8inc.html" target="_top" xlink:title="server/command/_mod.inc">
<polygon fill="none" stroke="black" points="1387.5,-174 1387.5,-193 1532.5,-193 1532.5,-174 1387.5,-174"/>
<text text-anchor="middle" x="1460" y="-181" font-family="Helvetica,sans-Serif" font-size="10.00">server/command/_mod.inc</text>
</a>
</g>
</g>
<!-- Node21&#45;&gt;Node22 -->
<g id="edge32" class="edge"><title>Node21&#45;&gt;Node22</title>
<path fill="none" stroke="midnightblue" d="M1324.05,-232.083C1357.09,-220.517 1406.42,-203.252 1435.69,-193.009"/>
<polygon fill="midnightblue" stroke="midnightblue" points="1322.64,-228.868 1314.36,-235.475 1324.95,-235.475 1322.64,-228.868"/>
</g>
<!-- Node22&#45;&gt;Node7 -->
<g id="edge33" class="edge"><title>Node22&#45;&gt;Node7</title>
<path fill="none" stroke="midnightblue" d="M1445.47,-166.475C1429.45,-149.92 1402.07,-124.755 1373,-112 1286.95,-74.2406 1175.55,-67.0768 1113.67,-66.3237"/>
<polygon fill="midnightblue" stroke="midnightblue" points="1442.98,-168.934 1452.38,-173.818 1448.07,-164.137 1442.98,-168.934"/>
</g>
<!-- Node23&#45;&gt;Node22 -->
<g id="edge35" class="edge"><title>Node23&#45;&gt;Node22</title>
<path fill="none" stroke="midnightblue" d="M1455.88,-225.317C1456.98,-214.496 1458.3,-201.398 1459.14,-193.009"/>
<polygon fill="midnightblue" stroke="midnightblue" points="1452.38,-225.174 1454.86,-235.475 1459.35,-225.877 1452.38,-225.174"/>
</g>
<!-- Node24&#45;&gt;Node22 -->
<g id="edge37" class="edge"><title>Node24&#45;&gt;Node22</title>
<path fill="none" stroke="midnightblue" d="M1587.55,-231.933C1556.45,-220.368 1510.31,-203.208 1482.88,-193.009"/>
<polygon fill="midnightblue" stroke="midnightblue" points="1586.48,-235.27 1597.08,-235.475 1588.92,-228.709 1586.48,-235.27"/>
</g>
<!-- Node25&#45;&gt;Node22 -->
<g id="edge39" class="edge"><title>Node25&#45;&gt;Node22</title>
<path fill="none" stroke="midnightblue" d="M1729.11,-233.617C1665.98,-222.094 1565.28,-203.716 1506.62,-193.009"/>
<polygon fill="midnightblue" stroke="midnightblue" points="1728.83,-237.123 1739.29,-235.475 1730.08,-230.236 1728.83,-237.123"/>
</g>
<!-- Node27 -->
<g id="node27" class="node"><title>Node27</title>
<g id="a_node27"><a xlink:href="../../d8/d52/server_2pathlib_2__mod_8inc.html" target="_top" xlink:title="server/pathlib/_mod.inc">
<polygon fill="none" stroke="black" points="1726,-174 1726,-193 1854,-193 1854,-174 1726,-174"/>
<text text-anchor="middle" x="1790" y="-181" font-family="Helvetica,sans-Serif" font-size="10.00">server/pathlib/_mod.inc</text>
</a>
</g>
</g>
<!-- Node26&#45;&gt;Node27 -->
<g id="edge41" class="edge"><title>Node26&#45;&gt;Node27</title>
<path fill="none" stroke="midnightblue" d="M1904.07,-231.631C1876.09,-220.072 1835.06,-203.12 1810.59,-193.009"/>
<polygon fill="midnightblue" stroke="midnightblue" points="1902.79,-234.891 1913.37,-235.475 1905.46,-228.422 1902.79,-234.891"/>
</g>
<!-- Node27&#45;&gt;Node7 -->
<g id="edge42" class="edge"><title>Node27&#45;&gt;Node7</title>
<path fill="none" stroke="midnightblue" d="M1736.81,-171.99C1662.33,-157.464 1522.67,-130.903 1403,-112 1299.96,-95.7236 1178.53,-80.4135 1113.57,-72.5344"/>
<polygon fill="midnightblue" stroke="midnightblue" points="1736.39,-175.475 1746.87,-173.958 1737.73,-168.605 1736.39,-175.475"/>
</g>
<!-- Node29 -->
<g id="node29" class="node"><title>Node29</title>
<g id="a_node29"><a xlink:href="../../d0/d70/server_2weapons_2__mod_8inc.html" target="_top" xlink:title="server/weapons/_mod.inc">
<polygon fill="none" stroke="black" points="2032,-174 2032,-193 2170,-193 2170,-174 2032,-174"/>
<text text-anchor="middle" x="2101" y="-181" font-family="Helvetica,sans-Serif" font-size="10.00">server/weapons/_mod.inc</text>
</a>
</g>
</g>
<!-- Node28&#45;&gt;Node29 -->
<g id="edge44" class="edge"><title>Node28&#45;&gt;Node29</title>
<path fill="none" stroke="midnightblue" d="M2101,-225.317C2101,-214.496 2101,-201.398 2101,-193.009"/>
<polygon fill="midnightblue" stroke="midnightblue" points="2097.5,-225.475 2101,-235.475 2104.5,-225.475 2097.5,-225.475"/>
</g>
<!-- Node29&#45;&gt;Node7 -->
<g id="edge45" class="edge"><title>Node29&#45;&gt;Node7</title>
<path fill="none" stroke="midnightblue" d="M2021.55,-173.468C1902.84,-159.988 1672.14,-133.852 1476,-112 1344.66,-97.3668 1189.55,-80.3827 1113.62,-72.0874"/>
<polygon fill="midnightblue" stroke="midnightblue" points="2021.31,-176.963 2031.64,-174.614 2022.1,-170.007 2021.31,-176.963"/>
</g>
<!-- Node30&#45;&gt;Node29 -->
<g id="edge47" class="edge"><title>Node30&#45;&gt;Node29</title>
<path fill="none" stroke="midnightblue" d="M2259.21,-232.529C2221.12,-220.965 2163.21,-203.385 2129.03,-193.009"/>
<polygon fill="midnightblue" stroke="midnightblue" points="2258.33,-235.919 2268.92,-235.475 2260.37,-229.221 2258.33,-235.919"/>
</g>
</g>
</svg>
