<?xml version="1.0" encoding="UTF-8" standalone="no"?>
<!DOCTYPE svg PUBLIC "-//W3C//DTD SVG 1.1//EN"
 "http://www.w3.org/Graphics/SVG/1.1/DTD/svg11.dtd">
<!-- Generated by graphviz version 2.36.0 (20140111.2315)
 -->
<!-- Title: XonoticColorpickerString_draw Pages: 1 -->
<svg width="514pt" height="332pt"
 viewBox="0.00 0.00 514.00 332.00" xmlns="http://www.w3.org/2000/svg" xmlns:xlink="http://www.w3.org/1999/xlink">
<g id="graph0" class="graph" transform="scale(1 1) rotate(0) translate(4 328)">
<title>XonoticColorpickerString_draw</title>
<!-- Node1 -->
<g id="node1" class="node"><title>Node1</title>
<polygon fill="#bfbfbf" stroke="black" points="0.5,-95.5 0.5,-114.5 151.5,-114.5 151.5,-95.5 0.5,-95.5"/>
<text text-anchor="middle" x="76" y="-102.5" font-family="Helvetica,sans-Serif" font-size="10.00">XonoticColorpickerString_draw</text>
</g>
<!-- Node2 -->
<g id="node2" class="node"><title>Node2</title>
<g id="a_node2"><a xlink:href="../../d6/db1/draw_8qc.html#a5fbe1f25dc4a998ac4e41ba6802253f3" target="_top" xlink:title="draw_Picture">
<polygon fill="none" stroke="black" points="198,-228.5 198,-247.5 272,-247.5 272,-228.5 198,-228.5"/>
<text text-anchor="middle" x="235" y="-235.5" font-family="Helvetica,sans-Serif" font-size="10.00">draw_Picture</text>
</a>
</g>
</g>
<!-- Node1&#45;&gt;Node2 -->
<g id="edge1" class="edge"><title>Node1&#45;&gt;Node2</title>
<path fill="none" stroke="midnightblue" d="M88.2911,-114.565C114.866,-137.078 181.611,-193.62 214.736,-221.68"/>
<polygon fill="midnightblue" stroke="midnightblue" points="212.495,-224.37 222.388,-228.163 217.02,-219.028 212.495,-224.37"/>
</g>
<!-- Node6 -->
<g id="node6" class="node"><title>Node6</title>
<g id="a_node6"><a xlink:href="../../d8/de2/menudefs_8qc.html#ad76dc2b2895cd23f21e008f12a686158" target="_top" xlink:title="strcat">
<polygon fill="none" stroke="black" points="457.5,-123.5 457.5,-142.5 498.5,-142.5 498.5,-123.5 457.5,-123.5"/>
<text text-anchor="middle" x="478" y="-130.5" font-family="Helvetica,sans-Serif" font-size="10.00">strcat</text>
</a>
</g>
</g>
<!-- Node1&#45;&gt;Node6 -->
<g id="edge13" class="edge"><title>Node1&#45;&gt;Node6</title>
<path fill="none" stroke="midnightblue" d="M151.768,-110.234C240.72,-116.46 384.975,-126.558 447.042,-130.903"/>
<polygon fill="midnightblue" stroke="midnightblue" points="447.083,-134.414 457.303,-131.621 447.572,-127.431 447.083,-134.414"/>
</g>
<!-- Node10 -->
<g id="node10" class="node"><title>Node10</title>
<g id="a_node10"><a xlink:href="../../d6/db1/draw_8qc.html#a9b98cfffc443113a6eedb91f922160e0" target="_top" xlink:title="draw_PictureSize">
<polygon fill="none" stroke="black" points="188.5,-152.5 188.5,-171.5 281.5,-171.5 281.5,-152.5 188.5,-152.5"/>
<text text-anchor="middle" x="235" y="-159.5" font-family="Helvetica,sans-Serif" font-size="10.00">draw_PictureSize</text>
</a>
</g>
</g>
<!-- Node1&#45;&gt;Node10 -->
<g id="edge9" class="edge"><title>Node1&#45;&gt;Node10</title>
<path fill="none" stroke="midnightblue" d="M103.278,-114.541C129.203,-123.953 169.035,-138.414 197.917,-148.9"/>
<polygon fill="midnightblue" stroke="midnightblue" points="197.042,-152.306 207.636,-152.428 199.431,-145.726 197.042,-152.306"/>
</g>
<!-- Node12 -->
<g id="node12" class="node"><title>Node12</title>
<g id="a_node12"><a xlink:href="../../d6/db1/draw_8qc.html#aae12e9efe4b2ff652987ec77bbb1e82e" target="_top" xlink:title="globalToBoxSize">
<polygon fill="none" stroke="black" points="190,-76.5 190,-95.5 280,-95.5 280,-76.5 190,-76.5"/>
<text text-anchor="middle" x="235" y="-83.5" font-family="Helvetica,sans-Serif" font-size="10.00">globalToBoxSize</text>
</a>
</g>
</g>
<!-- Node1&#45;&gt;Node12 -->
<g id="edge12" class="edge"><title>Node1&#45;&gt;Node12</title>
<path fill="none" stroke="midnightblue" d="M151.822,-95.9452C161.232,-94.8063 170.714,-93.6588 179.723,-92.5685"/>
<polygon fill="midnightblue" stroke="midnightblue" points="180.159,-96.0414 189.666,-91.3653 179.318,-89.0921 180.159,-96.0414"/>
</g>
<!-- Node13 -->
<g id="node13" class="node"><title>Node13</title>
<g id="a_node13"><a xlink:href="../../d4/d4e/datasource_8qc.html#a5e231c2d4088fbd6bc4c29add962230f" target="_top" xlink:title="SUPER">
<polygon fill="none" stroke="black" points="209,-38.5 209,-57.5 261,-57.5 261,-38.5 209,-38.5"/>
<text text-anchor="middle" x="235" y="-45.5" font-family="Helvetica,sans-Serif" font-size="10.00">SUPER</text>
</a>
</g>
</g>
<!-- Node1&#45;&gt;Node13 -->
<g id="edge14" class="edge"><title>Node1&#45;&gt;Node13</title>
<path fill="none" stroke="midnightblue" d="M103.278,-95.4595C129.593,-85.9056 170.237,-71.1495 199.215,-60.6291"/>
<polygon fill="midnightblue" stroke="midnightblue" points="200.73,-63.8026 208.935,-57.1 198.341,-57.2228 200.73,-63.8026"/>
</g>
<!-- Node14 -->
<g id="node14" class="node"><title>Node14</title>
<g id="a_node14"><a xlink:href="../../d4/d0c/csprogsdefs_8qc.html#a4f0b78b1785821ba47129edb68e70f9e" target="_top" xlink:title="vector">
<polygon fill="none" stroke="black" points="213,-0.5 213,-19.5 257,-19.5 257,-0.5 213,-0.5"/>
<text text-anchor="middle" x="235" y="-7.5" font-family="Helvetica,sans-Serif" font-size="10.00">vector</text>
</a>
</g>
</g>
<!-- Node1&#45;&gt;Node14 -->
<g id="edge15" class="edge"><title>Node1&#45;&gt;Node14</title>
<path fill="none" stroke="midnightblue" d="M89.1096,-95.4503C108.954,-80.0962 150.001,-49.564 188,-29 192.939,-26.3269 198.336,-23.7864 203.639,-21.4834"/>
<polygon fill="midnightblue" stroke="midnightblue" points="205.068,-24.68 212.966,-17.6172 202.387,-18.2136 205.068,-24.68"/>
</g>
<!-- Node3 -->
<g id="node3" class="node"><title>Node3</title>
<g id="a_node3"><a xlink:href="../../d6/db1/draw_8qc.html#ad9ed2a82efe01e29eb48ff32dace86db" target="_top" xlink:title="boxToGlobal">
<polygon fill="none" stroke="black" points="330.5,-304.5 330.5,-323.5 401.5,-323.5 401.5,-304.5 330.5,-304.5"/>
<text text-anchor="middle" x="366" y="-311.5" font-family="Helvetica,sans-Serif" font-size="10.00">boxToGlobal</text>
</a>
</g>
</g>
<!-- Node2&#45;&gt;Node3 -->
<g id="edge2" class="edge"><title>Node2&#45;&gt;Node3</title>
<path fill="none" stroke="midnightblue" d="M247.95,-247.59C263.445,-259.716 291.618,-280.731 318,-295 321.472,-296.878 325.169,-298.681 328.907,-300.377"/>
<polygon fill="midnightblue" stroke="midnightblue" points="327.606,-303.627 338.175,-304.358 330.368,-297.196 327.606,-303.627"/>
</g>
<!-- Node4 -->
<g id="node4" class="node"><title>Node4</title>
<g id="a_node4"><a xlink:href="../../d6/db1/draw_8qc.html#ab8f2b0e7558bdad2ae9d4eadbb278257" target="_top" xlink:title="boxToGlobalSize">
<polygon fill="none" stroke="black" points="320.5,-266.5 320.5,-285.5 411.5,-285.5 411.5,-266.5 320.5,-266.5"/>
<text text-anchor="middle" x="366" y="-273.5" font-family="Helvetica,sans-Serif" font-size="10.00">boxToGlobalSize</text>
</a>
</g>
</g>
<!-- Node2&#45;&gt;Node4 -->
<g id="edge3" class="edge"><title>Node2&#45;&gt;Node4</title>
<path fill="none" stroke="midnightblue" d="M268.552,-247.589C284.899,-252.404 304.909,-258.299 322.457,-263.468"/>
<polygon fill="midnightblue" stroke="midnightblue" points="321.877,-266.946 332.458,-266.414 323.855,-260.231 321.877,-266.946"/>
</g>
<!-- Node5 -->
<g id="node5" class="node"><title>Node5</title>
<g id="a_node5"><a xlink:href="../../da/d44/common_2util_8qc.html#a6ae03133beaeec492cebebfa5a815214" target="_top" xlink:title="draw_UseSkinFor">
<polygon fill="none" stroke="black" points="318.5,-190.5 318.5,-209.5 413.5,-209.5 413.5,-190.5 318.5,-190.5"/>
<text text-anchor="middle" x="366" y="-197.5" font-family="Helvetica,sans-Serif" font-size="10.00">draw_UseSkinFor</text>
</a>
</g>
</g>
<!-- Node2&#45;&gt;Node5 -->
<g id="edge4" class="edge"><title>Node2&#45;&gt;Node5</title>
<path fill="none" stroke="midnightblue" d="M268.552,-228.411C284.899,-223.596 304.909,-217.701 322.457,-212.532"/>
<polygon fill="midnightblue" stroke="midnightblue" points="323.855,-215.769 332.458,-209.586 321.877,-209.054 323.855,-215.769"/>
</g>
<!-- Node9 -->
<g id="node9" class="node"><title>Node9</title>
<g id="a_node9"><a xlink:href="../../d8/de2/menudefs_8qc.html#aa466300ee80f2134cac8e75a7364ca31" target="_top" xlink:title="drawpic">
<polygon fill="none" stroke="black" points="341,-228.5 341,-247.5 391,-247.5 391,-228.5 341,-228.5"/>
<text text-anchor="middle" x="366" y="-235.5" font-family="Helvetica,sans-Serif" font-size="10.00">drawpic</text>
</a>
</g>
</g>
<!-- Node2&#45;&gt;Node9 -->
<g id="edge8" class="edge"><title>Node2&#45;&gt;Node9</title>
<path fill="none" stroke="midnightblue" d="M272.277,-238C290.592,-238 312.688,-238 330.716,-238"/>
<polygon fill="midnightblue" stroke="midnightblue" points="330.801,-241.5 340.801,-238 330.801,-234.5 330.801,-241.5"/>
</g>
<!-- Node5&#45;&gt;Node6 -->
<g id="edge5" class="edge"><title>Node5&#45;&gt;Node6</title>
<path fill="none" stroke="midnightblue" d="M394.423,-190.347C400.997,-187.646 407.881,-184.484 414,-181 429.769,-172.021 446.022,-159.544 458.069,-149.561"/>
<polygon fill="midnightblue" stroke="midnightblue" points="460.662,-151.952 466.031,-142.819 456.138,-146.61 460.662,-151.952"/>
</g>
<!-- Node7 -->
<g id="node7" class="node"><title>Node7</title>
<g id="a_node7"><a xlink:href="../../d8/de2/menudefs_8qc.html#a274680f571a231ddf29421b93d434bfa" target="_top" xlink:title="strlen">
<polygon fill="none" stroke="black" points="457.5,-180.5 457.5,-199.5 498.5,-199.5 498.5,-180.5 457.5,-180.5"/>
<text text-anchor="middle" x="478" y="-187.5" font-family="Helvetica,sans-Serif" font-size="10.00">strlen</text>
</a>
</g>
</g>
<!-- Node5&#45;&gt;Node7 -->
<g id="edge6" class="edge"><title>Node5&#45;&gt;Node7</title>
<path fill="none" stroke="midnightblue" d="M413.65,-195.759C425.036,-194.724 436.911,-193.644 447.262,-192.703"/>
<polygon fill="midnightblue" stroke="midnightblue" points="447.769,-196.172 457.411,-191.781 447.136,-189.201 447.769,-196.172"/>
</g>
<!-- Node8 -->
<g id="node8" class="node"><title>Node8</title>
<g id="a_node8"><a xlink:href="../../d8/de2/menudefs_8qc.html#a40f6c65c8bbcfa51df783f2809a2502b" target="_top" xlink:title="substring">
<polygon fill="none" stroke="black" points="450,-218.5 450,-237.5 506,-237.5 506,-218.5 450,-218.5"/>
<text text-anchor="middle" x="478" y="-225.5" font-family="Helvetica,sans-Serif" font-size="10.00">substring</text>
</a>
</g>
</g>
<!-- Node5&#45;&gt;Node8 -->
<g id="edge7" class="edge"><title>Node5&#45;&gt;Node8</title>
<path fill="none" stroke="midnightblue" d="M404.548,-209.558C415.889,-212.445 428.335,-215.612 439.662,-218.496"/>
<polygon fill="midnightblue" stroke="midnightblue" points="439.132,-221.972 449.686,-221.047 440.859,-215.189 439.132,-221.972"/>
</g>
<!-- Node10&#45;&gt;Node5 -->
<g id="edge10" class="edge"><title>Node10&#45;&gt;Node5</title>
<path fill="none" stroke="midnightblue" d="M268.552,-171.589C284.899,-176.404 304.909,-182.299 322.457,-187.468"/>
<polygon fill="midnightblue" stroke="midnightblue" points="321.877,-190.946 332.458,-190.414 323.855,-184.231 321.877,-190.946"/>
</g>
<!-- Node11 -->
<g id="node11" class="node"><title>Node11</title>
<g id="a_node11"><a xlink:href="../../d4/d0c/csprogsdefs_8qc.html#a72f9ddc46de7b813af944893871761e7" target="_top" xlink:title="drawgetimagesize">
<polygon fill="none" stroke="black" points="318.5,-152.5 318.5,-171.5 413.5,-171.5 413.5,-152.5 318.5,-152.5"/>
<text text-anchor="middle" x="366" y="-159.5" font-family="Helvetica,sans-Serif" font-size="10.00">drawgetimagesize</text>
</a>
</g>
</g>
<!-- Node10&#45;&gt;Node11 -->
<g id="edge11" class="edge"><title>Node10&#45;&gt;Node11</title>
<path fill="none" stroke="midnightblue" d="M281.844,-162C290.38,-162 299.393,-162 308.212,-162"/>
<polygon fill="midnightblue" stroke="midnightblue" points="308.434,-165.5 318.434,-162 308.434,-158.5 308.434,-165.5"/>
</g>
</g>
</svg>
