<?xml version="1.0" encoding="UTF-8" standalone="no"?>
<!DOCTYPE svg PUBLIC "-//W3C//DTD SVG 1.1//EN"
 "http://www.w3.org/Graphics/SVG/1.1/DTD/svg11.dtd">
<!-- Generated by graphviz version 2.36.0 (20140111.2315)
 -->
<!-- Title: MUTATOR_HOOKFUNCTION Pages: 1 -->
<svg width="706pt" height="332pt"
 viewBox="0.00 0.00 706.00 332.00" xmlns="http://www.w3.org/2000/svg" xmlns:xlink="http://www.w3.org/1999/xlink">
<g id="graph0" class="graph" transform="scale(1 1) rotate(0) translate(4 328)">
<title>MUTATOR_HOOKFUNCTION</title>
<!-- Node1 -->
<g id="node1" class="node"><title>Node1</title>
<polygon fill="#bfbfbf" stroke="black" points="0.5,-123.5 0.5,-142.5 153.5,-142.5 153.5,-123.5 0.5,-123.5"/>
<text text-anchor="middle" x="77" y="-130.5" font-family="Helvetica,sans-Serif" font-size="10.00">MUTATOR_HOOKFUNCTION</text>
</g>
<!-- Node2 -->
<g id="node2" class="node"><title>Node2</title>
<g id="a_node2"><a xlink:href="../../d4/d0c/csprogsdefs_8qc.html#acbb54a239d76062465dccbc6a6c6e464" target="_top" xlink:title="entity">
<polygon fill="none" stroke="black" points="638.5,-228.5 638.5,-247.5 679.5,-247.5 679.5,-228.5 638.5,-228.5"/>
<text text-anchor="middle" x="659" y="-235.5" font-family="Helvetica,sans-Serif" font-size="10.00">entity</text>
</a>
</g>
</g>
<!-- Node1&#45;&gt;Node2 -->
<g id="edge1" class="edge"><title>Node1&#45;&gt;Node2</title>
<path fill="none" stroke="midnightblue" d="M106.458,-142.556C151.038,-157.158 240.286,-184.911 318,-200 431.348,-222.007 568.61,-232.504 628.105,-236.281"/>
<polygon fill="midnightblue" stroke="midnightblue" points="628.088,-239.786 638.285,-236.909 628.52,-232.8 628.088,-239.786"/>
</g>
<!-- Node3 -->
<g id="node3" class="node"><title>Node3</title>
<g id="a_node3"><a xlink:href="../../db/d26/gamemode__freezetag_8qc.html#a3d98e12186be74e89930885ca4b6c4c5" target="_top" xlink:title="freezetag_count_alive\l_players">
<polygon fill="none" stroke="black" points="318,-74 318,-104 430,-104 430,-74 318,-74"/>
<text text-anchor="start" x="326" y="-92" font-family="Helvetica,sans-Serif" font-size="10.00">freezetag_count_alive</text>
<text text-anchor="middle" x="374" y="-81" font-family="Helvetica,sans-Serif" font-size="10.00">_players</text>
</a>
</g>
</g>
<!-- Node1&#45;&gt;Node3 -->
<g id="edge2" class="edge"><title>Node1&#45;&gt;Node3</title>
<path fill="none" stroke="midnightblue" d="M132.062,-123.467C150.43,-120.324 171.09,-116.895 190,-114 228.946,-108.038 272.664,-102.04 307.601,-97.4138"/>
<polygon fill="midnightblue" stroke="midnightblue" points="308.22,-100.862 317.677,-96.0853 307.305,-93.9225 308.22,-100.862"/>
</g>
<!-- Node4 -->
<g id="node4" class="node"><title>Node4</title>
<g id="a_node4"><a xlink:href="../../db/d26/gamemode__freezetag_8qc.html#ac6cbd41d5275a595f81c748f405fef7a" target="_top" xlink:title="freezetag_Freeze">
<polygon fill="none" stroke="black" points="190,-123.5 190,-142.5 282,-142.5 282,-123.5 190,-123.5"/>
<text text-anchor="middle" x="236" y="-130.5" font-family="Helvetica,sans-Serif" font-size="10.00">freezetag_Freeze</text>
</a>
</g>
</g>
<!-- Node1&#45;&gt;Node4 -->
<g id="edge3" class="edge"><title>Node1&#45;&gt;Node4</title>
<path fill="none" stroke="midnightblue" d="M153.741,-133C162.549,-133 171.403,-133 179.86,-133"/>
<polygon fill="midnightblue" stroke="midnightblue" points="179.948,-136.5 189.948,-133 179.948,-129.5 179.948,-136.5"/>
</g>
<!-- Node4&#45;&gt;Node3 -->
<g id="edge17" class="edge"><title>Node4&#45;&gt;Node3</title>
<path fill="none" stroke="midnightblue" d="M266.51,-123.453C281.138,-118.72 299.31,-112.841 316.477,-107.287"/>
<polygon fill="midnightblue" stroke="midnightblue" points="317.997,-110.474 326.434,-104.065 315.842,-103.814 317.997,-110.474"/>
</g>
<!-- Node5 -->
<g id="node5" class="node"><title>Node5</title>
<g id="a_node5"><a xlink:href="../../d5/dac/g__damage_8qc.html#a2d30d51fdeb3f05c8ade32e74ca54a7c" target="_top" xlink:title="Freeze">
<polygon fill="none" stroke="black" points="350.5,-123.5 350.5,-142.5 397.5,-142.5 397.5,-123.5 350.5,-123.5"/>
<text text-anchor="middle" x="374" y="-130.5" font-family="Helvetica,sans-Serif" font-size="10.00">Freeze</text>
</a>
</g>
</g>
<!-- Node4&#45;&gt;Node5 -->
<g id="edge4" class="edge"><title>Node4&#45;&gt;Node5</title>
<path fill="none" stroke="midnightblue" d="M282.286,-133C301.227,-133 322.824,-133 340.193,-133"/>
<polygon fill="midnightblue" stroke="midnightblue" points="340.399,-136.5 350.399,-133 340.399,-129.5 340.399,-136.5"/>
</g>
<!-- Node12 -->
<g id="node12" class="node"><title>Node12</title>
<g id="a_node12"><a xlink:href="../../db/d26/gamemode__freezetag_8qc.html#a93cb74d10f623856d7c09250f69f4aac" target="_top" xlink:title="freezetag_Add_Score">
<polygon fill="none" stroke="black" points="319,-171.5 319,-190.5 429,-190.5 429,-171.5 319,-171.5"/>
<text text-anchor="middle" x="374" y="-178.5" font-family="Helvetica,sans-Serif" font-size="10.00">freezetag_Add_Score</text>
</a>
</g>
</g>
<!-- Node4&#45;&gt;Node12 -->
<g id="edge12" class="edge"><title>Node4&#45;&gt;Node12</title>
<path fill="none" stroke="midnightblue" d="M264.195,-142.598C284.857,-149.891 313.496,-159.998 336.205,-168.014"/>
<polygon fill="midnightblue" stroke="midnightblue" points="335.258,-171.391 345.852,-171.418 337.587,-164.79 335.258,-171.391"/>
</g>
<!-- Node5&#45;&gt;Node2 -->
<g id="edge5" class="edge"><title>Node5&#45;&gt;Node2</title>
<path fill="none" stroke="midnightblue" d="M393.334,-142.665C404.029,-148.303 417.779,-155.553 430,-162 446.002,-170.441 449.247,-174.17 466,-181 521.92,-203.797 590.332,-221.896 628.55,-231.18"/>
<polygon fill="midnightblue" stroke="midnightblue" points="627.954,-234.636 638.494,-233.561 629.584,-227.828 627.954,-234.636"/>
</g>
<!-- Node6 -->
<g id="node6" class="node"><title>Node6</title>
<g id="a_node6"><a xlink:href="../../d8/de2/menudefs_8qc.html#ad5a3e16aa960bd72d3ca37a618eea802" target="_top" xlink:title="floor">
<polygon fill="none" stroke="black" points="507.5,-114.5 507.5,-133.5 542.5,-133.5 542.5,-114.5 507.5,-114.5"/>
<text text-anchor="middle" x="525" y="-121.5" font-family="Helvetica,sans-Serif" font-size="10.00">floor</text>
</a>
</g>
</g>
<!-- Node5&#45;&gt;Node6 -->
<g id="edge6" class="edge"><title>Node5&#45;&gt;Node6</title>
<path fill="none" stroke="midnightblue" d="M397.63,-131.633C424.34,-130.02 468.708,-127.34 497.137,-125.623"/>
<polygon fill="midnightblue" stroke="midnightblue" points="497.411,-129.113 507.182,-125.016 496.989,-122.125 497.411,-129.113"/>
</g>
<!-- Node7 -->
<g id="node7" class="node"><title>Node7</title>
<g id="a_node7"><a xlink:href="../../d5/dac/g__damage_8qc.html#a24aaf696797544264665df5f05253d1c" target="_top" xlink:title="Ice_Think">
<polygon fill="none" stroke="black" points="495.5,-76.5 495.5,-95.5 554.5,-95.5 554.5,-76.5 495.5,-76.5"/>
<text text-anchor="middle" x="525" y="-83.5" font-family="Helvetica,sans-Serif" font-size="10.00">Ice_Think</text>
</a>
</g>
</g>
<!-- Node5&#45;&gt;Node7 -->
<g id="edge7" class="edge"><title>Node5&#45;&gt;Node7</title>
<path fill="none" stroke="midnightblue" d="M397.63,-125.862C420.904,-118.52 457.588,-106.949 485.448,-98.1605"/>
<polygon fill="midnightblue" stroke="midnightblue" points="486.789,-101.408 495.273,-95.0616 484.683,-94.7321 486.789,-101.408"/>
</g>
<!-- Node8 -->
<g id="node8" class="node"><title>Node8</title>
<g id="a_node8"><a xlink:href="../../d8/de2/menudefs_8qc.html#a663ea6aa3c4923b3e065cf91cc319f1b" target="_top" xlink:title="random">
<polygon fill="none" stroke="black" points="500.5,-38.5 500.5,-57.5 549.5,-57.5 549.5,-38.5 500.5,-38.5"/>
<text text-anchor="middle" x="525" y="-45.5" font-family="Helvetica,sans-Serif" font-size="10.00">random</text>
</a>
</g>
</g>
<!-- Node5&#45;&gt;Node8 -->
<g id="edge8" class="edge"><title>Node5&#45;&gt;Node8</title>
<path fill="none" stroke="midnightblue" d="M397.527,-127.889C408.064,-124.76 420.379,-119.982 430,-113 451.011,-97.7522 444.746,-81.9075 466,-67 473.295,-61.8833 482.056,-58.078 490.532,-55.2746"/>
<polygon fill="midnightblue" stroke="midnightblue" points="491.637,-58.5982 500.248,-52.4254 489.667,-51.8811 491.637,-58.5982"/>
</g>
<!-- Node9 -->
<g id="node9" class="node"><title>Node9</title>
<g id="a_node9"><a xlink:href="../../d7/de2/g__hook_8qc.html#a5caabf7067e846f30e860f42354bbf10" target="_top" xlink:title="RemoveGrapplingHook">
<polygon fill="none" stroke="black" points="466,-0.5 466,-19.5 584,-19.5 584,-0.5 466,-0.5"/>
<text text-anchor="middle" x="525" y="-7.5" font-family="Helvetica,sans-Serif" font-size="10.00">RemoveGrapplingHook</text>
</a>
</g>
</g>
<!-- Node5&#45;&gt;Node9 -->
<g id="edge9" class="edge"><title>Node5&#45;&gt;Node9</title>
<path fill="none" stroke="midnightblue" d="M397.573,-129.156C408.501,-126.294 421.14,-121.376 430,-113 459.515,-85.0962 436.039,-56.4249 466,-29 467.715,-27.4305 469.561,-25.9905 471.505,-24.6692"/>
<polygon fill="midnightblue" stroke="midnightblue" points="473.527,-27.5483 480.537,-19.6042 470.103,-21.4428 473.527,-27.5483"/>
</g>
<!-- Node11 -->
<g id="node11" class="node"><title>Node11</title>
<g id="a_node11"><a xlink:href="../../db/d07/teams_8qh.html#a40887618c0a56497f855f5631aa428d9" target="_top" xlink:title="Team_ColorRGB">
<polygon fill="none" stroke="black" points="479,-152.5 479,-171.5 571,-171.5 571,-152.5 479,-152.5"/>
<text text-anchor="middle" x="525" y="-159.5" font-family="Helvetica,sans-Serif" font-size="10.00">Team_ColorRGB</text>
</a>
</g>
</g>
<!-- Node5&#45;&gt;Node11 -->
<g id="edge11" class="edge"><title>Node5&#45;&gt;Node11</title>
<path fill="none" stroke="midnightblue" d="M397.63,-137.404C416.52,-141.081 444.242,-146.477 468.912,-151.278"/>
<polygon fill="midnightblue" stroke="midnightblue" points="468.419,-154.748 478.903,-153.223 469.756,-147.877 468.419,-154.748"/>
</g>
<!-- Node10 -->
<g id="node10" class="node"><title>Node10</title>
<g id="a_node10"><a xlink:href="../../d4/dd7/movetypes_8qh.html#a8bf89be84cb481d218ff41140eacff78" target="_top" xlink:title="set_movetype">
<polygon fill="none" stroke="black" points="620,-0.5 620,-19.5 698,-19.5 698,-0.5 620,-0.5"/>
<text text-anchor="middle" x="659" y="-7.5" font-family="Helvetica,sans-Serif" font-size="10.00">set_movetype</text>
</a>
</g>
</g>
<!-- Node9&#45;&gt;Node10 -->
<g id="edge10" class="edge"><title>Node9&#45;&gt;Node10</title>
<path fill="none" stroke="midnightblue" d="M584.281,-10C592.731,-10 601.352,-10 609.579,-10"/>
<polygon fill="midnightblue" stroke="midnightblue" points="609.748,-13.5001 619.748,-10 609.748,-6.5001 609.748,-13.5001"/>
</g>
<!-- Node13 -->
<g id="node13" class="node"><title>Node13</title>
<g id="a_node13"><a xlink:href="../../d2/d79/scores_8qc.html#aebb89cf706a7b2fe6037e3ab4e56dfe4" target="_top" xlink:title="Adds a score to the player&#39;s scores. ">
<polygon fill="none" stroke="black" points="479,-266.5 479,-285.5 571,-285.5 571,-266.5 479,-266.5"/>
<text text-anchor="middle" x="525" y="-273.5" font-family="Helvetica,sans-Serif" font-size="10.00">PlayerScore_Add</text>
</a>
</g>
</g>
<!-- Node12&#45;&gt;Node13 -->
<g id="edge13" class="edge"><title>Node12&#45;&gt;Node13</title>
<path fill="none" stroke="midnightblue" d="M390.107,-190.632C416.099,-207.204 469.462,-241.228 500.396,-260.951"/>
<polygon fill="midnightblue" stroke="midnightblue" points="498.54,-263.918 508.853,-266.343 502.303,-258.015 498.54,-263.918"/>
</g>
<!-- Node13&#45;&gt;Node2 -->
<g id="edge14" class="edge"><title>Node13&#45;&gt;Node2</title>
<path fill="none" stroke="midnightblue" d="M559.309,-266.411C580.609,-260.279 607.986,-252.398 628.5,-246.493"/>
<polygon fill="midnightblue" stroke="midnightblue" points="629.606,-249.816 638.247,-243.686 627.669,-243.09 629.606,-249.816"/>
</g>
<!-- Node14 -->
<g id="node14" class="node"><title>Node14</title>
<g id="a_node14"><a xlink:href="../../d8/de2/menudefs_8qc.html#a0476dbfc79dac7770dfaa5c8d780a87d" target="_top" xlink:title="pow">
<polygon fill="none" stroke="black" points="641.5,-304.5 641.5,-323.5 676.5,-323.5 676.5,-304.5 641.5,-304.5"/>
<text text-anchor="middle" x="659" y="-311.5" font-family="Helvetica,sans-Serif" font-size="10.00">pow</text>
</a>
</g>
</g>
<!-- Node13&#45;&gt;Node14 -->
<g id="edge15" class="edge"><title>Node13&#45;&gt;Node14</title>
<path fill="none" stroke="midnightblue" d="M559.309,-285.589C581.654,-292.022 610.687,-300.38 631.469,-306.362"/>
<polygon fill="midnightblue" stroke="midnightblue" points="630.645,-309.767 641.224,-309.17 632.582,-303.04 630.645,-309.767"/>
</g>
<!-- Node15 -->
<g id="node15" class="node"><title>Node15</title>
<g id="a_node15"><a xlink:href="../../d8/de2/menudefs_8qc.html#ad76dc2b2895cd23f21e008f12a686158" target="_top" xlink:title="strcat">
<polygon fill="none" stroke="black" points="638.5,-266.5 638.5,-285.5 679.5,-285.5 679.5,-266.5 638.5,-266.5"/>
<text text-anchor="middle" x="659" y="-273.5" font-family="Helvetica,sans-Serif" font-size="10.00">strcat</text>
</a>
</g>
</g>
<!-- Node13&#45;&gt;Node15 -->
<g id="edge16" class="edge"><title>Node13&#45;&gt;Node15</title>
<path fill="none" stroke="midnightblue" d="M571.058,-276C589.805,-276 611.068,-276 627.873,-276"/>
<polygon fill="midnightblue" stroke="midnightblue" points="628.201,-279.5 638.201,-276 628.201,-272.5 628.201,-279.5"/>
</g>
</g>
</svg>
