<?xml version="1.0" encoding="UTF-8" standalone="no"?>
<!DOCTYPE svg PUBLIC "-//W3C//DTD SVG 1.1//EN"
 "http://www.w3.org/Graphics/SVG/1.1/DTD/svg11.dtd">
<!-- Generated by graphviz version 2.36.0 (20140111.2315)
 -->
<!-- Title: MUTATOR_HOOKFUNCTION Pages: 1 -->
<!--zoomable 503 -->
<svg id="main" version="1.1" xmlns="http://www.w3.org/2000/svg" xmlns:xlink="http://www.w3.org/1999/xlink" xml:space="preserve" onload="init(evt)">
<style type="text/css"><![CDATA[
.edge:hover path { stroke: red; }
.edge:hover polygon { stroke: red; fill: red; }
]]></style>
<script type="text/javascript"><![CDATA[
var edges = document.getElementsByTagName('g');
if (edges && edges.length) {
  for (var i=0;i<edges.length;i++) {
    if (edges[i].id.substr(0,4)=='edge') {
      edges[i].setAttribute('class','edge');
    }
  }
}
]]></script>
        <defs>
                <circle id="rim" cx="0" cy="0" r="7"/>
                <circle id="rim2" cx="0" cy="0" r="3.5"/>
                <g id="zoomPlus">
                        <use xlink:href="#rim" fill="#404040">
                                <set attributeName="fill" to="#808080" begin="zoomplus.mouseover" end="zoomplus.mouseout"/>
                        </use>
                        <path d="M-4,0h8M0,-4v8" fill="none" stroke="white" stroke-width="1.5" pointer-events="none"/>
                </g>
                <g id="zoomMin">
                        <use xlink:href="#rim" fill="#404040">
                                <set attributeName="fill" to="#808080" begin="zoomminus.mouseover" end="zoomminus.mouseout"/>
                        </use>
                        <path d="M-4,0h8" fill="none" stroke="white" stroke-width="1.5" pointer-events="none"/>
                </g>
                <g id="dirArrow">
                        <path fill="none" stroke="white" stroke-width="1.5" d="M0,-3.0v7 M-2.5,-0.5L0,-3.0L2.5,-0.5"/>
                </g>
               <g id="resetDef">
                       <use xlink:href="#rim2" fill="#404040">
                               <set attributeName="fill" to="#808080" begin="reset.mouseover" end="reset.mouseout"/>
                       </use>
               </g>
        </defs>

<script type="text/javascript">
var viewWidth = 788;
var viewHeight = 503;
var sectionId = 'dynsection-32';
</script>
<script xlink:href="../../svgpan.js"/>
<svg id="graph" class="graph">
<g id="viewport">
<title>MUTATOR_HOOKFUNCTION</title>
<!-- Node1 -->
<g id="node1" class="node"><title>Node1</title>
<polygon fill="#bfbfbf" stroke="black" points="0.5,-285.5 0.5,-304.5 153.5,-304.5 153.5,-285.5 0.5,-285.5"/>
<text text-anchor="middle" x="77" y="-292.5" font-family="Helvetica,sans-Serif" font-size="10.00">MUTATOR_HOOKFUNCTION</text>
</g>
<!-- Node2 -->
<g id="node2" class="node"><title>Node2</title>
<g id="a_node2"><a xlink:href="../../d4/d0c/csprogsdefs_8qc.html#acbb54a239d76062465dccbc6a6c6e464" target="_top" xlink:title="entity">
<polygon fill="none" stroke="black" points="717.5,-342.5 717.5,-361.5 758.5,-361.5 758.5,-342.5 717.5,-342.5"/>
<text text-anchor="middle" x="738" y="-349.5" font-family="Helvetica,sans-Serif" font-size="10.00">entity</text>
</a>
</g>
</g>
<!-- Node1&#45;&gt;Node2 -->
<g id="edge1" class="edge"><title>Node1&#45;&gt;Node2</title>
<path fill="none" stroke="midnightblue" d="M100.929,-304.561C123.402,-313.751 158.738,-327.722 190,-338 389.559,-403.609 454.935,-433.57 660,-388 678.671,-383.851 698.173,-374.675 712.879,-366.626"/>
<polygon fill="midnightblue" stroke="midnightblue" points="714.826,-369.546 721.794,-361.564 711.37,-363.459 714.826,-369.546"/>
</g>
<!-- Node3 -->
<g id="node3" class="node"><title>Node3</title>
<g id="a_node3"><a xlink:href="../../db/d26/gamemode__freezetag_8qc.html#a93cb74d10f623856d7c09250f69f4aac" target="_top" xlink:title="freezetag_Add_Score">
<polygon fill="none" stroke="black" points="347,-456.5 347,-475.5 457,-475.5 457,-456.5 347,-456.5"/>
<text text-anchor="middle" x="402" y="-463.5" font-family="Helvetica,sans-Serif" font-size="10.00">freezetag_Add_Score</text>
</a>
</g>
</g>
<!-- Node1&#45;&gt;Node3 -->
<g id="edge2" class="edge"><title>Node1&#45;&gt;Node3</title>
<path fill="none" stroke="midnightblue" d="M82.043,-304.697C93.9394,-331.863 131.691,-408.886 190,-442 234.465,-467.252 292.683,-472.186 336.701,-471.407"/>
<polygon fill="midnightblue" stroke="midnightblue" points="336.817,-474.905 346.716,-471.127 336.622,-467.908 336.817,-474.905"/>
</g>
<!-- Node7 -->
<g id="node7" class="node"><title>Node7</title>
<g id="a_node7"><a xlink:href="../../db/d26/gamemode__freezetag_8qc.html#a3d98e12186be74e89930885ca4b6c4c5" target="_top" xlink:title="freezetag_count_alive\l_players">
<polygon fill="none" stroke="black" points="346,-179 346,-209 458,-209 458,-179 346,-179"/>
<text text-anchor="start" x="354" y="-197" font-family="Helvetica,sans-Serif" font-size="10.00">freezetag_count_alive</text>
<text text-anchor="middle" x="402" y="-186" font-family="Helvetica,sans-Serif" font-size="10.00">_players</text>
</a>
</g>
</g>
<!-- Node1&#45;&gt;Node7 -->
<g id="edge7" class="edge"><title>Node1&#45;&gt;Node7</title>
<path fill="none" stroke="midnightblue" d="M93.7247,-285.296C114.869,-272.652 153.981,-250.667 190,-238 237.55,-221.277 293.479,-209.971 335.804,-203.011"/>
<polygon fill="midnightblue" stroke="midnightblue" points="336.391,-206.461 345.709,-201.42 335.281,-199.55 336.391,-206.461"/>
</g>
<!-- Node8 -->
<g id="node8" class="node"><title>Node8</title>
<g id="a_node8"><a xlink:href="../../db/d26/gamemode__freezetag_8qc.html#ac6cbd41d5275a595f81c748f405fef7a" target="_top" xlink:title="freezetag_Freeze">
<polygon fill="none" stroke="black" points="195,-247.5 195,-266.5 287,-266.5 287,-247.5 195,-247.5"/>
<text text-anchor="middle" x="241" y="-254.5" font-family="Helvetica,sans-Serif" font-size="10.00">freezetag_Freeze</text>
</a>
</g>
</g>
<!-- Node1&#45;&gt;Node8 -->
<g id="edge8" class="edge"><title>Node1&#45;&gt;Node8</title>
<path fill="none" stroke="midnightblue" d="M118.879,-285.411C140.353,-280.374 166.86,-274.156 189.597,-268.823"/>
<polygon fill="midnightblue" stroke="midnightblue" points="190.478,-272.211 199.415,-266.52 188.879,-265.396 190.478,-272.211"/>
</g>
<!-- Node18 -->
<g id="node18" class="node"><title>Node18</title>
<g id="a_node18"><a xlink:href="../../db/d26/gamemode__freezetag_8qc.html#a815df653448834dad10357124b337731" target="_top" xlink:title="freezetag_LastPlayerForTeam\l_Notify">
<polygon fill="none" stroke="black" points="328,-337 328,-367 476,-367 476,-337 328,-337"/>
<text text-anchor="start" x="336" y="-355" font-family="Helvetica,sans-Serif" font-size="10.00">freezetag_LastPlayerForTeam</text>
<text text-anchor="middle" x="402" y="-344" font-family="Helvetica,sans-Serif" font-size="10.00">_Notify</text>
</a>
</g>
</g>
<!-- Node1&#45;&gt;Node18 -->
<g id="edge23" class="edge"><title>Node1&#45;&gt;Node18</title>
<path fill="none" stroke="midnightblue" d="M132.063,-304.541C182.824,-313.498 259.5,-327.029 318.009,-337.355"/>
<polygon fill="midnightblue" stroke="midnightblue" points="317.517,-340.822 327.973,-339.113 318.733,-333.928 317.517,-340.822"/>
</g>
<!-- Node20 -->
<g id="node20" class="node"><title>Node20</title>
<g id="a_node20"><a xlink:href="../../db/d26/gamemode__freezetag_8qc.html#af1bed3fb86fc2e983e247cc0307a4107" target="_top" xlink:title="freezetag_Unfreeze">
<polygon fill="none" stroke="black" points="190,-113.5 190,-132.5 292,-132.5 292,-113.5 190,-113.5"/>
<text text-anchor="middle" x="241" y="-120.5" font-family="Helvetica,sans-Serif" font-size="10.00">freezetag_Unfreeze</text>
</a>
</g>
</g>
<!-- Node1&#45;&gt;Node20 -->
<g id="edge27" class="edge"><title>Node1&#45;&gt;Node20</title>
<path fill="none" stroke="midnightblue" d="M87.174,-285.26C113.572,-257.233 189.978,-176.109 223.69,-140.317"/>
<polygon fill="midnightblue" stroke="midnightblue" points="226.618,-142.313 230.927,-132.633 221.522,-137.513 226.618,-142.313"/>
</g>
<!-- Node4 -->
<g id="node4" class="node"><title>Node4</title>
<g id="a_node4"><a xlink:href="../../d2/d79/scores_8qc.html#aebb89cf706a7b2fe6037e3ab4e56dfe4" target="_top" xlink:title="Adds a score to the player&#39;s scores. ">
<polygon fill="none" stroke="black" points="540,-456.5 540,-475.5 632,-475.5 632,-456.5 540,-456.5"/>
<text text-anchor="middle" x="586" y="-463.5" font-family="Helvetica,sans-Serif" font-size="10.00">PlayerScore_Add</text>
</a>
</g>
</g>
<!-- Node3&#45;&gt;Node4 -->
<g id="edge3" class="edge"><title>Node3&#45;&gt;Node4</title>
<path fill="none" stroke="midnightblue" d="M457.113,-466C480.011,-466 506.661,-466 529.687,-466"/>
<polygon fill="midnightblue" stroke="midnightblue" points="529.986,-469.5 539.986,-466 529.986,-462.5 529.986,-469.5"/>
</g>
<!-- Node4&#45;&gt;Node2 -->
<g id="edge4" class="edge"><title>Node4&#45;&gt;Node2</title>
<path fill="none" stroke="midnightblue" d="M629.352,-456.377C639.894,-452.854 650.801,-448.164 660,-442 688.462,-422.928 712.492,-390.559 725.803,-370.28"/>
<polygon fill="midnightblue" stroke="midnightblue" points="728.876,-371.97 731.295,-361.655 722.971,-368.21 728.876,-371.97"/>
</g>
<!-- Node5 -->
<g id="node5" class="node"><title>Node5</title>
<g id="a_node5"><a xlink:href="../../d8/de2/menudefs_8qc.html#a0476dbfc79dac7770dfaa5c8d780a87d" target="_top" xlink:title="pow">
<polygon fill="none" stroke="black" points="720.5,-437.5 720.5,-456.5 755.5,-456.5 755.5,-437.5 720.5,-437.5"/>
<text text-anchor="middle" x="738" y="-444.5" font-family="Helvetica,sans-Serif" font-size="10.00">pow</text>
</a>
</g>
</g>
<!-- Node4&#45;&gt;Node5 -->
<g id="edge5" class="edge"><title>Node4&#45;&gt;Node5</title>
<path fill="none" stroke="midnightblue" d="M632.005,-460.299C657.548,-457.064 688.648,-453.125 710.343,-450.377"/>
<polygon fill="midnightblue" stroke="midnightblue" points="710.981,-453.824 720.462,-449.095 710.102,-446.879 710.981,-453.824"/>
</g>
<!-- Node6 -->
<g id="node6" class="node"><title>Node6</title>
<g id="a_node6"><a xlink:href="../../d8/de2/menudefs_8qc.html#ad76dc2b2895cd23f21e008f12a686158" target="_top" xlink:title="strcat">
<polygon fill="none" stroke="black" points="717.5,-475.5 717.5,-494.5 758.5,-494.5 758.5,-475.5 717.5,-475.5"/>
<text text-anchor="middle" x="738" y="-482.5" font-family="Helvetica,sans-Serif" font-size="10.00">strcat</text>
</a>
</g>
</g>
<!-- Node4&#45;&gt;Node6 -->
<g id="edge6" class="edge"><title>Node4&#45;&gt;Node6</title>
<path fill="none" stroke="midnightblue" d="M632.005,-471.701C656.367,-474.786 685.784,-478.513 707.275,-481.235"/>
<polygon fill="midnightblue" stroke="midnightblue" points="707.066,-484.736 717.426,-482.521 707.945,-477.792 707.066,-484.736"/>
</g>
<!-- Node8&#45;&gt;Node3 -->
<g id="edge21" class="edge"><title>Node8&#45;&gt;Node3</title>
<path fill="none" stroke="midnightblue" d="M248.733,-266.696C262.998,-287.155 297.465,-336.135 328,-376 347.66,-401.667 371.404,-430.575 386.357,-448.541"/>
<polygon fill="midnightblue" stroke="midnightblue" points="383.839,-450.986 392.935,-456.419 389.212,-446.5 383.839,-450.986"/>
</g>
<!-- Node8&#45;&gt;Node7 -->
<g id="edge22" class="edge"><title>Node8&#45;&gt;Node7</title>
<path fill="none" stroke="midnightblue" d="M262.296,-247.439C279.592,-239.435 305.199,-227.923 328,-219 333.731,-216.757 339.755,-214.515 345.784,-212.344"/>
<polygon fill="midnightblue" stroke="midnightblue" points="346.961,-215.64 355.219,-209.003 344.624,-209.042 346.961,-215.64"/>
</g>
<!-- Node9 -->
<g id="node9" class="node"><title>Node9</title>
<g id="a_node9"><a xlink:href="../../d5/dac/g__damage_8qc.html#a2d30d51fdeb3f05c8ade32e74ca54a7c" target="_top" xlink:title="Freeze">
<polygon fill="none" stroke="black" points="378.5,-228.5 378.5,-247.5 425.5,-247.5 425.5,-228.5 378.5,-228.5"/>
<text text-anchor="middle" x="402" y="-235.5" font-family="Helvetica,sans-Serif" font-size="10.00">Freeze</text>
</a>
</g>
</g>
<!-- Node8&#45;&gt;Node9 -->
<g id="edge9" class="edge"><title>Node8&#45;&gt;Node9</title>
<path fill="none" stroke="midnightblue" d="M287.138,-251.606C312.934,-248.524 344.707,-244.727 368.129,-241.928"/>
<polygon fill="midnightblue" stroke="midnightblue" points="368.737,-245.38 378.251,-240.718 367.906,-238.43 368.737,-245.38"/>
</g>
<!-- Node9&#45;&gt;Node2 -->
<g id="edge10" class="edge"><title>Node9&#45;&gt;Node2</title>
<path fill="none" stroke="midnightblue" d="M425.654,-241.775C480.247,-251.07 617.688,-275.71 660,-295 682.266,-305.151 704.371,-322.461 719.146,-335.348"/>
<polygon fill="midnightblue" stroke="midnightblue" points="717.162,-338.269 726.944,-342.337 721.834,-333.057 717.162,-338.269"/>
</g>
<!-- Node10 -->
<g id="node10" class="node"><title>Node10</title>
<g id="a_node10"><a xlink:href="../../d8/de2/menudefs_8qc.html#ad5a3e16aa960bd72d3ca37a618eea802" target="_top" xlink:title="floor">
<polygon fill="none" stroke="black" points="568.5,-228.5 568.5,-247.5 603.5,-247.5 603.5,-228.5 568.5,-228.5"/>
<text text-anchor="middle" x="586" y="-235.5" font-family="Helvetica,sans-Serif" font-size="10.00">floor</text>
</a>
</g>
</g>
<!-- Node9&#45;&gt;Node10 -->
<g id="edge11" class="edge"><title>Node9&#45;&gt;Node10</title>
<path fill="none" stroke="midnightblue" d="M425.682,-238C459.275,-238 522.138,-238 558.038,-238"/>
<polygon fill="midnightblue" stroke="midnightblue" points="558.252,-241.5 568.252,-238 558.252,-234.5 558.252,-241.5"/>
</g>
<!-- Node11 -->
<g id="node11" class="node"><title>Node11</title>
<g id="a_node11"><a xlink:href="../../d5/dac/g__damage_8qc.html#a24aaf696797544264665df5f05253d1c" target="_top" xlink:title="Ice_Think">
<polygon fill="none" stroke="black" points="556.5,-190.5 556.5,-209.5 615.5,-209.5 615.5,-190.5 556.5,-190.5"/>
<text text-anchor="middle" x="586" y="-197.5" font-family="Helvetica,sans-Serif" font-size="10.00">Ice_Think</text>
</a>
</g>
</g>
<!-- Node9&#45;&gt;Node11 -->
<g id="edge12" class="edge"><title>Node9&#45;&gt;Node11</title>
<path fill="none" stroke="midnightblue" d="M425.682,-233.264C455.906,-226.954 509.825,-215.696 546.481,-208.042"/>
<polygon fill="midnightblue" stroke="midnightblue" points="547.255,-211.456 556.329,-205.986 545.824,-204.604 547.255,-211.456"/>
</g>
<!-- Node12 -->
<g id="node12" class="node"><title>Node12</title>
<g id="a_node12"><a xlink:href="../../d9/d51/intrusivelist_8qh.html#a5a0a1c75d41d69b06a84854967fe9c14" target="_top" xlink:title="Remove any element, anywhere in the list. ">
<polygon fill="none" stroke="black" points="549,-304.5 549,-323.5 623,-323.5 623,-304.5 549,-304.5"/>
<text text-anchor="middle" x="586" y="-311.5" font-family="Helvetica,sans-Serif" font-size="10.00">IL_REMOVE</text>
</a>
</g>
</g>
<!-- Node9&#45;&gt;Node12 -->
<g id="edge13" class="edge"><title>Node9&#45;&gt;Node12</title>
<path fill="none" stroke="midnightblue" d="M421.195,-247.562C442.581,-258.592 479.307,-276.889 512,-290 522.04,-294.026 533.044,-297.91 543.394,-301.337"/>
<polygon fill="midnightblue" stroke="midnightblue" points="542.471,-304.717 553.063,-304.473 544.631,-298.059 542.471,-304.717"/>
</g>
<!-- Node13 -->
<g id="node13" class="node"><title>Node13</title>
<g id="a_node13"><a xlink:href="../../d8/de2/menudefs_8qc.html#a663ea6aa3c4923b3e065cf91cc319f1b" target="_top" xlink:title="random">
<polygon fill="none" stroke="black" points="561.5,-152.5 561.5,-171.5 610.5,-171.5 610.5,-152.5 561.5,-152.5"/>
<text text-anchor="middle" x="586" y="-159.5" font-family="Helvetica,sans-Serif" font-size="10.00">random</text>
</a>
</g>
</g>
<!-- Node9&#45;&gt;Node13 -->
<g id="edge15" class="edge"><title>Node9&#45;&gt;Node13</title>
<path fill="none" stroke="midnightblue" d="M425.607,-234.985C440.68,-232.236 460.497,-227.151 476,-218 495.758,-206.337 492.168,-192.537 512,-181 523.969,-174.038 538.504,-169.585 551.444,-166.757"/>
<polygon fill="midnightblue" stroke="midnightblue" points="552.252,-170.166 561.399,-164.821 550.915,-163.295 552.252,-170.166"/>
</g>
<!-- Node14 -->
<g id="node14" class="node"><title>Node14</title>
<g id="a_node14"><a xlink:href="../../d7/de2/g__hook_8qc.html#a64ba7a609a960c8d06b3c23e6c4d80f4" target="_top" xlink:title="RemoveGrapplingHooks">
<polygon fill="none" stroke="black" points="524.5,-76.5 524.5,-95.5 647.5,-95.5 647.5,-76.5 524.5,-76.5"/>
<text text-anchor="middle" x="586" y="-83.5" font-family="Helvetica,sans-Serif" font-size="10.00">RemoveGrapplingHooks</text>
</a>
</g>
</g>
<!-- Node9&#45;&gt;Node14 -->
<g id="edge16" class="edge"><title>Node9&#45;&gt;Node14</title>
<path fill="none" stroke="midnightblue" d="M425.527,-237.321C441.55,-235.661 462.538,-230.921 476,-218 514.027,-181.501 473.74,-141.255 512,-105 513.661,-103.426 515.434,-101.979 517.298,-100.648"/>
<polygon fill="midnightblue" stroke="midnightblue" points="519.142,-103.624 525.976,-95.5276 515.585,-97.5955 519.142,-103.624"/>
</g>
<!-- Node16 -->
<g id="node16" class="node"><title>Node16</title>
<g id="a_node16"><a xlink:href="../../d7/de2/g__hook_8qc.html#a50f68d93243e10c5a552caae3c7a2413" target="_top" xlink:title="RemoveHook">
<polygon fill="none" stroke="black" points="547.5,-38.5 547.5,-57.5 624.5,-57.5 624.5,-38.5 547.5,-38.5"/>
<text text-anchor="middle" x="586" y="-45.5" font-family="Helvetica,sans-Serif" font-size="10.00">RemoveHook</text>
</a>
</g>
</g>
<!-- Node9&#45;&gt;Node16 -->
<g id="edge18" class="edge"><title>Node9&#45;&gt;Node16</title>
<path fill="none" stroke="midnightblue" d="M425.818,-237.613C441.986,-236.099 463.028,-231.413 476,-218 523.964,-168.408 463.72,-116.284 512,-67 518.87,-59.9874 527.975,-55.4526 537.419,-52.5456"/>
<polygon fill="midnightblue" stroke="midnightblue" points="538.452,-55.895 547.302,-50.07 536.751,-49.1047 538.452,-55.895"/>
</g>
<!-- Node17 -->
<g id="node17" class="node"><title>Node17</title>
<g id="a_node17"><a xlink:href="../../db/d07/teams_8qh.html#a40887618c0a56497f855f5631aa428d9" target="_top" xlink:title="Team_ColorRGB">
<polygon fill="none" stroke="black" points="540,-114.5 540,-133.5 632,-133.5 632,-114.5 540,-114.5"/>
<text text-anchor="middle" x="586" y="-121.5" font-family="Helvetica,sans-Serif" font-size="10.00">Team_ColorRGB</text>
</a>
</g>
</g>
<!-- Node9&#45;&gt;Node17 -->
<g id="edge20" class="edge"><title>Node9&#45;&gt;Node17</title>
<path fill="none" stroke="midnightblue" d="M425.681,-236.662C441.366,-234.662 461.874,-229.786 476,-218 504.39,-194.312 483.459,-166.506 512,-143 517.298,-138.637 523.486,-135.264 529.977,-132.659"/>
<polygon fill="midnightblue" stroke="midnightblue" points="531.302,-135.905 539.637,-129.365 529.043,-129.28 531.302,-135.905"/>
</g>
<!-- Node12&#45;&gt;Node2 -->
<g id="edge14" class="edge"><title>Node12&#45;&gt;Node2</title>
<path fill="none" stroke="midnightblue" d="M623.311,-323.199C648.99,-329.704 683.003,-338.321 707.115,-344.429"/>
<polygon fill="midnightblue" stroke="midnightblue" points="706.557,-347.898 717.11,-346.961 708.276,-341.113 706.557,-347.898"/>
</g>
<!-- Node15 -->
<g id="node15" class="node"><title>Node15</title>
<g id="a_node15"><a xlink:href="../../d4/dd7/movetypes_8qh.html#a8bf89be84cb481d218ff41140eacff78" target="_top" xlink:title="set_movetype">
<polygon fill="none" stroke="black" points="699,-57.5 699,-76.5 777,-76.5 777,-57.5 699,-57.5"/>
<text text-anchor="middle" x="738" y="-64.5" font-family="Helvetica,sans-Serif" font-size="10.00">set_movetype</text>
</a>
</g>
</g>
<!-- Node14&#45;&gt;Node15 -->
<g id="edge17" class="edge"><title>Node14&#45;&gt;Node15</title>
<path fill="none" stroke="midnightblue" d="M647.578,-78.3267C661.18,-76.6039 675.439,-74.7977 688.474,-73.1466"/>
<polygon fill="midnightblue" stroke="midnightblue" points="689.149,-76.5892 698.63,-71.8602 688.269,-69.6447 689.149,-76.5892"/>
</g>
<!-- Node16&#45;&gt;Node15 -->
<g id="edge19" class="edge"><title>Node16&#45;&gt;Node15</title>
<path fill="none" stroke="midnightblue" d="M624.851,-52.7945C644.229,-55.2491 668.034,-58.2643 688.719,-60.8845"/>
<polygon fill="midnightblue" stroke="midnightblue" points="688.54,-64.3896 698.9,-62.174 689.419,-57.4451 688.54,-64.3896"/>
</g>
<!-- Node18&#45;&gt;Node2 -->
<g id="edge24" class="edge"><title>Node18&#45;&gt;Node2</title>
<path fill="none" stroke="midnightblue" d="M476.063,-366.52C488.027,-368.383 500.326,-369.99 512,-371 577.533,-376.669 594.703,-378.937 660,-371 675.948,-369.061 693.354,-364.943 707.576,-361.035"/>
<polygon fill="midnightblue" stroke="midnightblue" points="708.647,-364.369 717.303,-358.26 706.727,-357.637 708.647,-364.369"/>
</g>
<!-- Node19 -->
<g id="node19" class="node"><title>Node19</title>
<g id="a_node19"><a xlink:href="../../db/d26/gamemode__freezetag_8qc.html#aee1dac91a06305051bdcfbef40a659d0" target="_top" xlink:title="freezetag_LastPlayerForTeam">
<polygon fill="none" stroke="black" points="512,-342.5 512,-361.5 660,-361.5 660,-342.5 512,-342.5"/>
<text text-anchor="middle" x="586" y="-349.5" font-family="Helvetica,sans-Serif" font-size="10.00">freezetag_LastPlayerForTeam</text>
</a>
</g>
</g>
<!-- Node18&#45;&gt;Node19 -->
<g id="edge25" class="edge"><title>Node18&#45;&gt;Node19</title>
<path fill="none" stroke="midnightblue" d="M476.24,-352C484.596,-352 493.161,-352 501.636,-352"/>
<polygon fill="midnightblue" stroke="midnightblue" points="501.91,-355.5 511.91,-352 501.91,-348.5 501.91,-355.5"/>
</g>
<!-- Node19&#45;&gt;Node2 -->
<g id="edge26" class="edge"><title>Node19&#45;&gt;Node2</title>
<path fill="none" stroke="midnightblue" d="M660.242,-352C676.908,-352 693.689,-352 707.292,-352"/>
<polygon fill="midnightblue" stroke="midnightblue" points="707.457,-355.5 717.457,-352 707.457,-348.5 707.457,-355.5"/>
</g>
<!-- Node21 -->
<g id="node21" class="node"><title>Node21</title>
<g id="a_node21"><a xlink:href="../../d5/dac/g__damage_8qc.html#a705ff21e2e789e10d1eeb3bd16f97c86" target="_top" xlink:title="Unfreeze">
<polygon fill="none" stroke="black" points="374,-38.5 374,-57.5 430,-57.5 430,-38.5 374,-38.5"/>
<text text-anchor="middle" x="402" y="-45.5" font-family="Helvetica,sans-Serif" font-size="10.00">Unfreeze</text>
</a>
</g>
</g>
<!-- Node20&#45;&gt;Node21 -->
<g id="edge28" class="edge"><title>Node20&#45;&gt;Node21</title>
<path fill="none" stroke="midnightblue" d="M262.461,-113.349C290.129,-100.298 339.653,-76.9373 371.385,-61.9694"/>
<polygon fill="midnightblue" stroke="midnightblue" points="373.066,-65.0461 380.618,-57.6144 370.08,-58.7151 373.066,-65.0461"/>
</g>
<!-- Node21&#45;&gt;Node16 -->
<g id="edge32" class="edge"><title>Node21&#45;&gt;Node16</title>
<path fill="none" stroke="midnightblue" d="M430.247,-48C458.466,-48 503.12,-48 537.224,-48"/>
<polygon fill="midnightblue" stroke="midnightblue" points="537.44,-51.5001 547.44,-48 537.439,-44.5001 537.44,-51.5001"/>
</g>
<!-- Node22 -->
<g id="node22" class="node"><title>Node22</title>
<g id="a_node22"><a xlink:href="../../d9/d51/intrusivelist_8qh.html#a44ed93b6aaca72d222ce263898d152b4" target="_top" xlink:title="Push to tail. ">
<polygon fill="none" stroke="black" points="556.5,-0.5 556.5,-19.5 615.5,-19.5 615.5,-0.5 556.5,-0.5"/>
<text text-anchor="middle" x="586" y="-7.5" font-family="Helvetica,sans-Serif" font-size="10.00">IL_PUSH</text>
</a>
</g>
</g>
<!-- Node21&#45;&gt;Node22 -->
<g id="edge29" class="edge"><title>Node21&#45;&gt;Node22</title>
<path fill="none" stroke="midnightblue" d="M430.247,-42.311C461.114,-35.8662 511.648,-25.3153 546.527,-18.0329"/>
<polygon fill="midnightblue" stroke="midnightblue" points="547.29,-21.449 556.364,-15.979 545.86,-14.5968 547.29,-21.449"/>
</g>
<!-- Node22&#45;&gt;Node2 -->
<g id="edge30" class="edge"><title>Node22&#45;&gt;Node2</title>
<path fill="none" stroke="midnightblue" d="M615.784,-10.6476C630.872,-12.5021 648.545,-17.3062 660,-29 703.104,-73.0016 727.901,-268.617 734.918,-332.062"/>
<polygon fill="midnightblue" stroke="midnightblue" points="731.471,-332.736 736.022,-342.304 738.43,-331.986 731.471,-332.736"/>
</g>
<!-- Node23 -->
<g id="node23" class="node"><title>Node23</title>
<g id="a_node23"><a xlink:href="../../d9/d51/intrusivelist_8qh.html#a03533687dbcda21ca9480b3e4b13fb34" target="_top" xlink:title="IL_CONTAINS">
<polygon fill="none" stroke="black" points="696.5,-0.5 696.5,-19.5 779.5,-19.5 779.5,-0.5 696.5,-0.5"/>
<text text-anchor="middle" x="738" y="-7.5" font-family="Helvetica,sans-Serif" font-size="10.00">IL_CONTAINS</text>
</a>
</g>
</g>
<!-- Node22&#45;&gt;Node23 -->
<g id="edge31" class="edge"><title>Node22&#45;&gt;Node23</title>
<path fill="none" stroke="midnightblue" d="M615.567,-10C635.485,-10 662.606,-10 686.166,-10"/>
<polygon fill="midnightblue" stroke="midnightblue" points="686.356,-13.5001 696.356,-10 686.356,-6.5001 686.356,-13.5001"/>
</g>
</g>
</svg>
        <g id="navigator" transform="translate(0 0)" fill="#404254">
                <rect fill="#f2f5e9" fill-opacity="0.5" stroke="#606060" stroke-width=".5" x="0" y="0" width="60" height="60"/>
                <use id="zoomplus" xlink:href="#zoomPlus" x="17" y="9" onmousedown="handleZoom(evt,'in')"/>
                <use id="zoomminus" xlink:href="#zoomMin" x="42" y="9" onmousedown="handleZoom(evt,'out')"/>
                <use id="reset" xlink:href="#resetDef" x="30" y="36" onmousedown="handleReset()"/>
                <g id="arrowUp" xlink:href="#dirArrow" transform="translate(30 24)" onmousedown="handlePan(0,-1)">
                  <use xlink:href="#rim" fill="#404040">
                        <set attributeName="fill" to="#808080" begin="arrowUp.mouseover" end="arrowUp.mouseout"/>
                  </use>
                  <path fill="none" stroke="white" stroke-width="1.5" d="M0,-3.0v7 M-2.5,-0.5L0,-3.0L2.5,-0.5"/>
                </g>
                <g id="arrowRight" xlink:href="#dirArrow" transform="rotate(90) translate(36 -43)" onmousedown="handlePan(1,0)">
                  <use xlink:href="#rim" fill="#404040">
                        <set attributeName="fill" to="#808080" begin="arrowRight.mouseover" end="arrowRight.mouseout"/>
                  </use>
                  <path fill="none" stroke="white" stroke-width="1.5" d="M0,-3.0v7 M-2.5,-0.5L0,-3.0L2.5,-0.5"/>
                </g>
                <g id="arrowDown" xlink:href="#dirArrow" transform="rotate(180) translate(-30 -48)" onmousedown="handlePan(0,1)">
                  <use xlink:href="#rim" fill="#404040">
                        <set attributeName="fill" to="#808080" begin="arrowDown.mouseover" end="arrowDown.mouseout"/>
                  </use>
                  <path fill="none" stroke="white" stroke-width="1.5" d="M0,-3.0v7 M-2.5,-0.5L0,-3.0L2.5,-0.5"/>
                </g>
                <g id="arrowLeft" xlink:href="#dirArrow" transform="rotate(270) translate(-36 17)" onmousedown="handlePan(-1,0)">
                  <use xlink:href="#rim" fill="#404040">
                        <set attributeName="fill" to="#808080" begin="arrowLeft.mouseover" end="arrowLeft.mouseout"/>
                  </use>
                  <path fill="none" stroke="white" stroke-width="1.5" d="M0,-3.0v7 M-2.5,-0.5L0,-3.0L2.5,-0.5"/>
                </g>
        </g>
        <svg viewBox="0 0 15 15" width="100%" height="30px" preserveAspectRatio="xMaxYMin meet">
         <g id="arrow_out" transform="scale(0.3 0.3)">
          <a xlink:href="gamemode__freezetag_8qc_ad5ca08e00dc5a1d87a6c529e52c76018_cgraph_org.svg" target="_base">
           <rect id="button" ry="5" rx="5" y="6" x="6" height="38" width="38"
                fill="#f2f5e9" fill-opacity="0.5" stroke="#606060" stroke-width="1.0"/>
           <path id="arrow"
             d="M 11.500037,31.436501 C 11.940474,20.09759 22.043105,11.32322 32.158766,21.979434 L 37.068811,17.246167 C 37.068811,17.246167 37.088388,32 37.088388,32 L 22.160133,31.978069 C 22.160133,31.978069 26.997745,27.140456 26.997745,27.140456 C 18.528582,18.264221 13.291696,25.230495 11.500037,31.436501 z"
             style="fill:#404040;"/>
          </a>
         </g>
        </svg>
</svg>
