<?xml version="1.0" encoding="UTF-8" standalone="no"?>
<!DOCTYPE svg PUBLIC "-//W3C//DTD SVG 1.1//EN"
 "http://www.w3.org/Graphics/SVG/1.1/DTD/svg11.dtd">
<!-- Generated by graphviz version 2.36.0 (20140111.2315)
 -->
<!-- Title: as_round_think Pages: 1 -->
<svg width="900pt" height="541pt"
 viewBox="0.00 0.00 900.00 541.00" xmlns="http://www.w3.org/2000/svg" xmlns:xlink="http://www.w3.org/1999/xlink">
<g id="graph0" class="graph" transform="scale(1 1) rotate(0) translate(4 537)">
<title>as_round_think</title>
<!-- Node1 -->
<g id="node1" class="node"><title>Node1</title>
<polygon fill="#bfbfbf" stroke="black" points="0.5,-342.5 0.5,-361.5 83.5,-361.5 83.5,-342.5 0.5,-342.5"/>
<text text-anchor="middle" x="42" y="-349.5" font-family="Helvetica,sans-Serif" font-size="10.00">as_round_think</text>
</g>
<!-- Node2 -->
<g id="node2" class="node"><title>Node2</title>
<g id="a_node2"><a xlink:href="../../d9/d8e/gamemode__assault_8qc.html#a04d93982d839a10d20cb7453aa9050bc" target="_top" xlink:title="assault_new_round">
<polygon fill="none" stroke="black" points="120.5,-342.5 120.5,-361.5 221.5,-361.5 221.5,-342.5 120.5,-342.5"/>
<text text-anchor="middle" x="171" y="-349.5" font-family="Helvetica,sans-Serif" font-size="10.00">assault_new_round</text>
</a>
</g>
</g>
<!-- Node1&#45;&gt;Node2 -->
<g id="edge1" class="edge"><title>Node1&#45;&gt;Node2</title>
<path fill="none" stroke="midnightblue" d="M83.5328,-352C91.9717,-352 101.036,-352 110.007,-352"/>
<polygon fill="midnightblue" stroke="midnightblue" points="110.057,-355.5 120.057,-352 110.057,-348.5 110.057,-355.5"/>
</g>
<!-- Node3 -->
<g id="node3" class="node"><title>Node3</title>
<g id="a_node3"><a xlink:href="../../d8/de2/menudefs_8qc.html#a0b350379da8a7002dee40a3598bf33c3" target="_top" xlink:title="cvar_set">
<polygon fill="none" stroke="black" points="584,-513.5 584,-532.5 638,-532.5 638,-513.5 584,-513.5"/>
<text text-anchor="middle" x="611" y="-520.5" font-family="Helvetica,sans-Serif" font-size="10.00">cvar_set</text>
</a>
</g>
</g>
<!-- Node2&#45;&gt;Node3 -->
<g id="edge2" class="edge"><title>Node2&#45;&gt;Node3</title>
<path fill="none" stroke="midnightblue" d="M184.689,-361.532C201.105,-373.632 230.826,-394.762 258,-410 317.674,-443.462 333.231,-451.962 398,-474 458.295,-494.515 531.123,-509.261 573.824,-516.939"/>
<polygon fill="midnightblue" stroke="midnightblue" points="573.292,-520.399 583.748,-518.694 574.51,-513.506 573.292,-520.399"/>
</g>
<!-- Node4 -->
<g id="node4" class="node"><title>Node4</title>
<g id="a_node4"><a xlink:href="../../d8/de2/menudefs_8qc.html#abbb0d86741e0056b6c04f7280c185d76" target="_top" xlink:title="ftos">
<polygon fill="none" stroke="black" points="594.5,-475.5 594.5,-494.5 627.5,-494.5 627.5,-475.5 594.5,-475.5"/>
<text text-anchor="middle" x="611" y="-482.5" font-family="Helvetica,sans-Serif" font-size="10.00">ftos</text>
</a>
</g>
</g>
<!-- Node2&#45;&gt;Node4 -->
<g id="edge3" class="edge"><title>Node2&#45;&gt;Node4</title>
<path fill="none" stroke="midnightblue" d="M200.436,-361.555C243.173,-375.831 326.575,-403.365 398,-425 465.043,-445.308 544.657,-467.266 584.546,-478.12"/>
<polygon fill="midnightblue" stroke="midnightblue" points="583.683,-481.512 594.251,-480.755 585.518,-474.757 583.683,-481.512"/>
</g>
<!-- Node5 -->
<g id="node5" class="node"><title>Node5</title>
<g id="a_node5"><a xlink:href="../../d8/de2/menudefs_8qc.html#a22f100d9039928edd4e410c7d68858e7" target="_top" xlink:title="ceil">
<polygon fill="none" stroke="black" points="294,-190.5 294,-209.5 326,-209.5 326,-190.5 294,-190.5"/>
<text text-anchor="middle" x="310" y="-197.5" font-family="Helvetica,sans-Serif" font-size="10.00">ceil</text>
</a>
</g>
</g>
<!-- Node2&#45;&gt;Node5 -->
<g id="edge4" class="edge"><title>Node2&#45;&gt;Node5</title>
<path fill="none" stroke="midnightblue" d="M175.647,-342.471C185.342,-318.351 214.053,-254.3 258,-219 265.518,-212.961 275.148,-208.717 284.011,-205.797"/>
<polygon fill="midnightblue" stroke="midnightblue" points="285.251,-209.082 293.89,-202.949 283.312,-202.356 285.251,-209.082"/>
</g>
<!-- Node6 -->
<g id="node6" class="node"><title>Node6</title>
<g id="a_node6"><a xlink:href="../../d1/dad/server_2command_2vote_8qc.html#a6b7b78c23e6cfd78e7d1e09d1e44ed9d" target="_top" xlink:title="ReadyRestart_force">
<polygon fill="none" stroke="black" points="258,-228.5 258,-247.5 362,-247.5 362,-228.5 258,-228.5"/>
<text text-anchor="middle" x="310" y="-235.5" font-family="Helvetica,sans-Serif" font-size="10.00">ReadyRestart_force</text>
</a>
</g>
</g>
<!-- Node2&#45;&gt;Node6 -->
<g id="edge5" class="edge"><title>Node2&#45;&gt;Node6</title>
<path fill="none" stroke="midnightblue" d="M183.681,-342.28C207.238,-322.678 260.656,-278.228 289.559,-254.177"/>
<polygon fill="midnightblue" stroke="midnightblue" points="291.901,-256.782 297.349,-247.695 287.423,-251.401 291.901,-256.782"/>
</g>
<!-- Node6&#45;&gt;Node3 -->
<g id="edge8" class="edge"><title>Node6&#45;&gt;Node3</title>
<path fill="none" stroke="midnightblue" d="M313.15,-247.838C320.195,-278.001 345.224,-370.437 398,-425 447.14,-475.805 527.654,-502.86 574.031,-514.952"/>
<polygon fill="midnightblue" stroke="midnightblue" points="573.388,-518.399 583.94,-517.443 575.095,-511.611 573.388,-518.399"/>
</g>
<!-- Node6&#45;&gt;Node4 -->
<g id="edge10" class="edge"><title>Node6&#45;&gt;Node4</title>
<path fill="none" stroke="midnightblue" d="M313.916,-247.743C322.389,-274.423 349.527,-349.378 398,-390 441.422,-426.39 469.495,-403.726 518,-433 536.583,-444.215 535.323,-454.943 554,-466 563.311,-471.512 574.446,-475.706 584.326,-478.733"/>
<polygon fill="midnightblue" stroke="midnightblue" points="583.464,-482.126 594.039,-481.471 585.363,-475.388 583.464,-482.126"/>
</g>
<!-- Node7 -->
<g id="node7" class="node"><title>Node7</title>
<g id="a_node7"><a xlink:href="../../d8/de2/menudefs_8qc.html#a687c7bf27ba894ccc52063de9fa79a38" target="_top" xlink:title="bprint">
<polygon fill="none" stroke="black" points="437.5,-247.5 437.5,-266.5 478.5,-266.5 478.5,-247.5 437.5,-247.5"/>
<text text-anchor="middle" x="458" y="-254.5" font-family="Helvetica,sans-Serif" font-size="10.00">bprint</text>
</a>
</g>
</g>
<!-- Node6&#45;&gt;Node7 -->
<g id="edge6" class="edge"><title>Node6&#45;&gt;Node7</title>
<path fill="none" stroke="midnightblue" d="M362.064,-244.645C383.887,-247.485 408.594,-250.701 427.331,-253.139"/>
<polygon fill="midnightblue" stroke="midnightblue" points="426.97,-256.621 437.338,-254.441 427.874,-249.68 426.97,-256.621"/>
</g>
<!-- Node8 -->
<g id="node8" class="node"><title>Node8</title>
<g id="a_node8"><a xlink:href="../../db/d9f/state_8qh.html#afdb90637f8a711359249291ee3b3fde6" target="_top" xlink:title="CS">
<polygon fill="none" stroke="black" points="743.5,-209.5 743.5,-228.5 774.5,-228.5 774.5,-209.5 743.5,-209.5"/>
<text text-anchor="middle" x="759" y="-216.5" font-family="Helvetica,sans-Serif" font-size="10.00">CS</text>
</a>
</g>
</g>
<!-- Node6&#45;&gt;Node8 -->
<g id="edge7" class="edge"><title>Node6&#45;&gt;Node8</title>
<path fill="none" stroke="midnightblue" d="M362.277,-235.82C458.272,-231.74 661.82,-223.088 732.884,-220.068"/>
<polygon fill="midnightblue" stroke="midnightblue" points="733.273,-223.554 743.116,-219.633 732.976,-216.561 733.273,-223.554"/>
</g>
<!-- Node9 -->
<g id="node9" class="node"><title>Node9</title>
<g id="a_node9"><a xlink:href="../../d4/d0c/csprogsdefs_8qc.html#acbb54a239d76062465dccbc6a6c6e464" target="_top" xlink:title="entity">
<polygon fill="none" stroke="black" points="850.5,-133.5 850.5,-152.5 891.5,-152.5 891.5,-133.5 850.5,-133.5"/>
<text text-anchor="middle" x="871" y="-140.5" font-family="Helvetica,sans-Serif" font-size="10.00">entity</text>
</a>
</g>
</g>
<!-- Node6&#45;&gt;Node9 -->
<g id="edge9" class="edge"><title>Node6&#45;&gt;Node9</title>
<path fill="none" stroke="midnightblue" d="M346.11,-228.402C351.771,-225.906 357.306,-222.812 362,-219 385.26,-200.112 372.055,-176.988 398,-162 473.404,-118.44 748.519,-134.076 840.111,-140.671"/>
<polygon fill="midnightblue" stroke="midnightblue" points="840.114,-144.181 850.345,-141.426 840.629,-137.2 840.114,-144.181"/>
</g>
<!-- Node10 -->
<g id="node10" class="node"><title>Node10</title>
<g id="a_node10"><a xlink:href="../../dc/dc6/server_2miscfunctions_8qc.html#ad8252ef534185c1cbbde32e65a01a5b3" target="_top" xlink:title="GameLogEcho">
<polygon fill="none" stroke="black" points="417.5,-361.5 417.5,-380.5 498.5,-380.5 498.5,-361.5 417.5,-361.5"/>
<text text-anchor="middle" x="458" y="-368.5" font-family="Helvetica,sans-Serif" font-size="10.00">GameLogEcho</text>
</a>
</g>
</g>
<!-- Node6&#45;&gt;Node10 -->
<g id="edge11" class="edge"><title>Node6&#45;&gt;Node10</title>
<path fill="none" stroke="midnightblue" d="M321.5,-247.565C346.108,-269.982 407.757,-326.141 438.692,-354.322"/>
<polygon fill="midnightblue" stroke="midnightblue" points="436.452,-357.016 446.201,-361.163 441.166,-351.841 436.452,-357.016"/>
</g>
<!-- Node18 -->
<g id="node18" class="node"><title>Node18</title>
<g id="a_node18"><a xlink:href="../../d1/dad/server_2command_2vote_8qc.html#a8d1f0d6bff6c0f65f7f206d4445d0f56" target="_top" xlink:title="Nagger_ReadyCounted">
<polygon fill="none" stroke="black" points="398.5,-57.5 398.5,-76.5 517.5,-76.5 517.5,-57.5 398.5,-57.5"/>
<text text-anchor="middle" x="458" y="-64.5" font-family="Helvetica,sans-Serif" font-size="10.00">Nagger_ReadyCounted</text>
</a>
</g>
</g>
<!-- Node6&#45;&gt;Node18 -->
<g id="edge21" class="edge"><title>Node6&#45;&gt;Node18</title>
<path fill="none" stroke="midnightblue" d="M349.184,-228.457C353.959,-225.991 358.416,-222.893 362,-219 402.029,-175.526 358.621,-135.064 398,-91 401.325,-87.2793 405.311,-84.1246 409.622,-81.452"/>
<polygon fill="midnightblue" stroke="midnightblue" points="411.596,-84.3682 418.818,-76.6162 408.338,-78.1725 411.596,-84.3682"/>
</g>
<!-- Node19 -->
<g id="node19" class="node"><title>Node19</title>
<g id="a_node19"><a xlink:href="../../d1/dad/server_2command_2vote_8qc.html#ac42f429ba6ba4289fa7af9310f40a0a4" target="_top" xlink:title="ReadyRestart_think">
<polygon fill="none" stroke="black" points="406,-171.5 406,-190.5 510,-190.5 510,-171.5 406,-171.5"/>
<text text-anchor="middle" x="458" y="-178.5" font-family="Helvetica,sans-Serif" font-size="10.00">ReadyRestart_think</text>
</a>
</g>
</g>
<!-- Node6&#45;&gt;Node19 -->
<g id="edge22" class="edge"><title>Node6&#45;&gt;Node19</title>
<path fill="none" stroke="midnightblue" d="M336.99,-228.454C345.024,-225.466 353.891,-222.132 362,-219 382.788,-210.971 406.016,-201.686 424.3,-194.303"/>
<polygon fill="midnightblue" stroke="midnightblue" points="425.68,-197.521 433.637,-190.526 423.054,-191.032 425.68,-197.521"/>
</g>
<!-- Node20 -->
<g id="node20" class="node"><title>Node20</title>
<g id="a_node20"><a xlink:href="../../d1/dad/server_2command_2vote_8qc.html#ab44a3a2f93e542242bc295411367283f" target="_top" xlink:title="reset_map">
<polygon fill="none" stroke="black" points="580,-95.5 580,-114.5 642,-114.5 642,-95.5 580,-95.5"/>
<text text-anchor="middle" x="611" y="-102.5" font-family="Helvetica,sans-Serif" font-size="10.00">reset_map</text>
</a>
</g>
</g>
<!-- Node6&#45;&gt;Node20 -->
<g id="edge29" class="edge"><title>Node6&#45;&gt;Node20</title>
<path fill="none" stroke="midnightblue" d="M348.036,-228.481C353.152,-226.003 358.011,-222.895 362,-219 392.825,-188.903 363.743,-155.124 398,-129 447.563,-91.2042 523.567,-92.7265 569.837,-98.2082"/>
<polygon fill="midnightblue" stroke="midnightblue" points="569.433,-101.685 579.801,-99.5046 570.336,-94.7436 569.433,-101.685"/>
</g>
<!-- Node23 -->
<g id="node23" class="node"><title>Node23</title>
<g id="a_node23"><a xlink:href="../../d1/dad/server_2command_2vote_8qc.html#a72ded287363c9dfdb4770d72cc3917a4" target="_top" xlink:title="VoteReset">
<polygon fill="none" stroke="black" points="426.5,-19.5 426.5,-38.5 489.5,-38.5 489.5,-19.5 426.5,-19.5"/>
<text text-anchor="middle" x="458" y="-26.5" font-family="Helvetica,sans-Serif" font-size="10.00">VoteReset</text>
</a>
</g>
</g>
<!-- Node6&#45;&gt;Node23 -->
<g id="edge30" class="edge"><title>Node6&#45;&gt;Node23</title>
<path fill="none" stroke="midnightblue" d="M349.931,-228.402C354.477,-225.947 358.671,-222.867 362,-219 412.675,-160.143 346.012,-105.7 398,-48 403.002,-42.4487 409.631,-38.5111 416.637,-35.7201"/>
<polygon fill="midnightblue" stroke="midnightblue" points="417.875,-38.9979 426.306,-32.581 415.714,-32.3399 417.875,-38.9979"/>
</g>
<!-- Node10&#45;&gt;Node3 -->
<g id="edge12" class="edge"><title>Node10&#45;&gt;Node3</title>
<path fill="none" stroke="midnightblue" d="M463.249,-380.603C474.475,-404.894 507.301,-469.316 554,-504 560.006,-508.461 567.131,-511.922 574.251,-514.591"/>
<polygon fill="midnightblue" stroke="midnightblue" points="573.258,-517.948 583.851,-517.758 575.451,-511.301 573.258,-517.948"/>
</g>
<!-- Node10&#45;&gt;Node4 -->
<g id="edge17" class="edge"><title>Node10&#45;&gt;Node4</title>
<path fill="none" stroke="midnightblue" d="M494.163,-380.552C502.67,-384.077 511.247,-388.785 518,-395 544.033,-418.959 527.269,-442.822 554,-466 562.494,-473.365 573.967,-477.905 584.317,-480.69"/>
<polygon fill="midnightblue" stroke="midnightblue" points="583.612,-484.119 594.14,-482.93 585.168,-477.294 583.612,-484.119"/>
</g>
<!-- Node11 -->
<g id="node11" class="node"><title>Node11</title>
<g id="a_node11"><a xlink:href="../../db/d9b/server_2player_8qc.html#a0390f6703ace29f61655694b8821d84a" target="_top" xlink:title="print(), but only print if the server is not local ">
<polygon fill="none" stroke="black" points="569.5,-437.5 569.5,-456.5 652.5,-456.5 652.5,-437.5 569.5,-437.5"/>
<text text-anchor="middle" x="611" y="-444.5" font-family="Helvetica,sans-Serif" font-size="10.00">dedicated_print</text>
</a>
</g>
</g>
<!-- Node10&#45;&gt;Node11 -->
<g id="edge13" class="edge"><title>Node10&#45;&gt;Node11</title>
<path fill="none" stroke="midnightblue" d="M488.216,-380.52C498.05,-384.33 508.842,-389.206 518,-395 536.342,-406.606 535.323,-416.943 554,-428 557.578,-430.118 561.425,-432.042 565.368,-433.779"/>
<polygon fill="midnightblue" stroke="midnightblue" points="564.071,-437.03 574.655,-437.499 566.674,-430.532 564.071,-437.03"/>
</g>
<!-- Node13 -->
<g id="node13" class="node"><title>Node13</title>
<g id="a_node13"><a xlink:href="../../d8/de2/menudefs_8qc.html#a5231f4ff2813f7de782b67d25a9e4cf9" target="_top" xlink:title="fopen">
<polygon fill="none" stroke="black" points="590.5,-399.5 590.5,-418.5 631.5,-418.5 631.5,-399.5 590.5,-399.5"/>
<text text-anchor="middle" x="611" y="-406.5" font-family="Helvetica,sans-Serif" font-size="10.00">fopen</text>
</a>
</g>
</g>
<!-- Node10&#45;&gt;Node13 -->
<g id="edge15" class="edge"><title>Node10&#45;&gt;Node13</title>
<path fill="none" stroke="midnightblue" d="M497.104,-380.589C522.98,-387.101 556.696,-395.586 580.524,-401.582"/>
<polygon fill="midnightblue" stroke="midnightblue" points="579.843,-405.02 590.395,-404.066 581.551,-398.232 579.843,-405.02"/>
</g>
<!-- Node14 -->
<g id="node14" class="node"><title>Node14</title>
<g id="a_node14"><a xlink:href="../../d8/de2/menudefs_8qc.html#a33a318a59e2648521862f24200a821df" target="_top" xlink:title="fputs">
<polygon fill="none" stroke="black" points="592,-361.5 592,-380.5 630,-380.5 630,-361.5 592,-361.5"/>
<text text-anchor="middle" x="611" y="-368.5" font-family="Helvetica,sans-Serif" font-size="10.00">fputs</text>
</a>
</g>
</g>
<!-- Node10&#45;&gt;Node14 -->
<g id="edge16" class="edge"><title>Node10&#45;&gt;Node14</title>
<path fill="none" stroke="midnightblue" d="M498.673,-371C524.623,-371 557.922,-371 581.316,-371"/>
<polygon fill="midnightblue" stroke="midnightblue" points="581.617,-374.5 591.617,-371 581.617,-367.5 581.617,-374.5"/>
</g>
<!-- Node15 -->
<g id="node15" class="node"><title>Node15</title>
<g id="a_node15"><a xlink:href="../../d8/de2/menudefs_8qc.html#ad76dc2b2895cd23f21e008f12a686158" target="_top" xlink:title="strcat">
<polygon fill="none" stroke="black" points="590.5,-323.5 590.5,-342.5 631.5,-342.5 631.5,-323.5 590.5,-323.5"/>
<text text-anchor="middle" x="611" y="-330.5" font-family="Helvetica,sans-Serif" font-size="10.00">strcat</text>
</a>
</g>
</g>
<!-- Node10&#45;&gt;Node15 -->
<g id="edge18" class="edge"><title>Node10&#45;&gt;Node15</title>
<path fill="none" stroke="midnightblue" d="M497.104,-361.411C522.98,-354.899 556.696,-346.414 580.524,-340.418"/>
<polygon fill="midnightblue" stroke="midnightblue" points="581.551,-343.768 590.395,-337.934 579.843,-336.98 581.551,-343.768"/>
</g>
<!-- Node16 -->
<g id="node16" class="node"><title>Node16</title>
<g id="a_node16"><a xlink:href="../../d8/de2/menudefs_8qc.html#a274680f571a231ddf29421b93d434bfa" target="_top" xlink:title="strlen">
<polygon fill="none" stroke="black" points="590.5,-285.5 590.5,-304.5 631.5,-304.5 631.5,-285.5 590.5,-285.5"/>
<text text-anchor="middle" x="611" y="-292.5" font-family="Helvetica,sans-Serif" font-size="10.00">strlen</text>
</a>
</g>
</g>
<!-- Node10&#45;&gt;Node16 -->
<g id="edge19" class="edge"><title>Node10&#45;&gt;Node16</title>
<path fill="none" stroke="midnightblue" d="M472.962,-361.32C491.037,-349.099 523.807,-327.985 554,-314 562.437,-310.092 571.912,-306.572 580.636,-303.653"/>
<polygon fill="midnightblue" stroke="midnightblue" points="581.97,-306.901 590.424,-300.517 579.833,-300.235 581.97,-306.901"/>
</g>
<!-- Node17 -->
<g id="node17" class="node"><title>Node17</title>
<g id="a_node17"><a xlink:href="../../d8/de2/menudefs_8qc.html#a40f6c65c8bbcfa51df783f2809a2502b" target="_top" xlink:title="substring">
<polygon fill="none" stroke="black" points="583,-247.5 583,-266.5 639,-266.5 639,-247.5 583,-247.5"/>
<text text-anchor="middle" x="611" y="-254.5" font-family="Helvetica,sans-Serif" font-size="10.00">substring</text>
</a>
</g>
</g>
<!-- Node10&#45;&gt;Node17 -->
<g id="edge20" class="edge"><title>Node10&#45;&gt;Node17</title>
<path fill="none" stroke="midnightblue" d="M466.032,-361.479C480.472,-342.565 515.374,-300.015 554,-276 559.917,-272.321 566.631,-269.258 573.305,-266.742"/>
<polygon fill="midnightblue" stroke="midnightblue" points="574.628,-269.989 582.957,-263.44 572.362,-263.366 574.628,-269.989"/>
</g>
<!-- Node12 -->
<g id="node12" class="node"><title>Node12</title>
<g id="a_node12"><a xlink:href="../../d8/de2/menudefs_8qc.html#acf9c719e766113bad854907e87812e98" target="_top" xlink:title="print">
<polygon fill="none" stroke="black" points="741.5,-437.5 741.5,-456.5 776.5,-456.5 776.5,-437.5 741.5,-437.5"/>
<text text-anchor="middle" x="759" y="-444.5" font-family="Helvetica,sans-Serif" font-size="10.00">print</text>
</a>
</g>
</g>
<!-- Node11&#45;&gt;Node12 -->
<g id="edge14" class="edge"><title>Node11&#45;&gt;Node12</title>
<path fill="none" stroke="midnightblue" d="M652.669,-447C677.644,-447 708.945,-447 730.911,-447"/>
<polygon fill="midnightblue" stroke="midnightblue" points="731.17,-450.5 741.17,-447 731.17,-443.5 731.17,-450.5"/>
</g>
<!-- Node19&#45;&gt;Node20 -->
<g id="edge23" class="edge"><title>Node19&#45;&gt;Node20</title>
<path fill="none" stroke="midnightblue" d="M478.124,-171.375C504.333,-158.183 551.6,-134.393 581.854,-119.166"/>
<polygon fill="midnightblue" stroke="midnightblue" points="583.672,-122.169 591.031,-114.547 580.525,-115.917 583.672,-122.169"/>
</g>
<!-- Node22 -->
<g id="node22" class="node"><title>Node22</title>
<g id="a_node22"><a xlink:href="../../d2/d79/scores_8qc.html#a584dd2db99794927527b7a4cec056bf1" target="_top" xlink:title="Clear ALL scores (for ready&#45;restart). ">
<polygon fill="none" stroke="black" points="570,-171.5 570,-190.5 652,-190.5 652,-171.5 570,-171.5"/>
<text text-anchor="middle" x="611" y="-178.5" font-family="Helvetica,sans-Serif" font-size="10.00">Score_ClearAll</text>
</a>
</g>
</g>
<!-- Node19&#45;&gt;Node22 -->
<g id="edge26" class="edge"><title>Node19&#45;&gt;Node22</title>
<path fill="none" stroke="midnightblue" d="M510.122,-181C526.124,-181 543.763,-181 559.708,-181"/>
<polygon fill="midnightblue" stroke="midnightblue" points="559.906,-184.5 569.906,-181 559.906,-177.5 559.906,-184.5"/>
</g>
<!-- Node21 -->
<g id="node21" class="node"><title>Node21</title>
<g id="a_node21"><a xlink:href="../../db/dfc/round__handler_8qc.html#a9f9012d50d940fe62137392d78988b0f" target="_top" xlink:title="round_handler_Reset">
<polygon fill="none" stroke="black" points="704.5,-95.5 704.5,-114.5 813.5,-114.5 813.5,-95.5 704.5,-95.5"/>
<text text-anchor="middle" x="759" y="-102.5" font-family="Helvetica,sans-Serif" font-size="10.00">round_handler_Reset</text>
</a>
</g>
</g>
<!-- Node20&#45;&gt;Node21 -->
<g id="edge24" class="edge"><title>Node20&#45;&gt;Node21</title>
<path fill="none" stroke="midnightblue" d="M642.251,-105C657.333,-105 676.173,-105 694.245,-105"/>
<polygon fill="midnightblue" stroke="midnightblue" points="694.469,-108.5 704.469,-105 694.469,-101.5 694.469,-108.5"/>
</g>
<!-- Node21&#45;&gt;Node9 -->
<g id="edge25" class="edge"><title>Node21&#45;&gt;Node9</title>
<path fill="none" stroke="midnightblue" d="M787.758,-114.589C803.886,-120.161 824.195,-127.177 840.596,-132.842"/>
<polygon fill="midnightblue" stroke="midnightblue" points="839.636,-136.214 850.231,-136.171 841.922,-129.597 839.636,-136.214"/>
</g>
<!-- Node22&#45;&gt;Node8 -->
<g id="edge28" class="edge"><title>Node22&#45;&gt;Node8</title>
<path fill="none" stroke="midnightblue" d="M648.842,-190.589C675.361,-197.491 710.396,-206.61 733.535,-212.632"/>
<polygon fill="midnightblue" stroke="midnightblue" points="732.697,-216.031 743.256,-215.163 734.461,-209.257 732.697,-216.031"/>
</g>
<!-- Node22&#45;&gt;Node9 -->
<g id="edge27" class="edge"><title>Node22&#45;&gt;Node9</title>
<path fill="none" stroke="midnightblue" d="M652.085,-177.746C693.005,-174.072 758.25,-167.238 814,-157 822.689,-155.404 832.035,-153.247 840.554,-151.105"/>
<polygon fill="midnightblue" stroke="midnightblue" points="841.638,-154.44 850.436,-148.538 839.878,-147.665 841.638,-154.44"/>
</g>
<!-- Node24 -->
<g id="node24" class="node"><title>Node24</title>
<g id="a_node24"><a xlink:href="../../d1/dad/server_2command_2vote_8qc.html#a9c49c9479913e0acfad979107e6ee3f7" target="_top" xlink:title="Nagger_VoteChanged">
<polygon fill="none" stroke="black" points="554.5,-38.5 554.5,-57.5 667.5,-57.5 667.5,-38.5 554.5,-38.5"/>
<text text-anchor="middle" x="611" y="-45.5" font-family="Helvetica,sans-Serif" font-size="10.00">Nagger_VoteChanged</text>
</a>
</g>
</g>
<!-- Node23&#45;&gt;Node24 -->
<g id="edge31" class="edge"><title>Node23&#45;&gt;Node24</title>
<path fill="none" stroke="midnightblue" d="M489.557,-32.8449C505.336,-34.8303 525.232,-37.3338 544.282,-39.7309"/>
<polygon fill="midnightblue" stroke="midnightblue" points="544.084,-43.2335 554.443,-41.0094 544.958,-36.2883 544.084,-43.2335"/>
</g>
<!-- Node25 -->
<g id="node25" class="node"><title>Node25</title>
<g id="a_node25"><a xlink:href="../../d8/de2/menudefs_8qc.html#ab64c3a0e7d347975b8b7a5cd17ab0113" target="_top" xlink:title="strunzone">
<polygon fill="none" stroke="black" points="581.5,-0.5 581.5,-19.5 640.5,-19.5 640.5,-0.5 581.5,-0.5"/>
<text text-anchor="middle" x="611" y="-7.5" font-family="Helvetica,sans-Serif" font-size="10.00">strunzone</text>
</a>
</g>
</g>
<!-- Node23&#45;&gt;Node25 -->
<g id="edge32" class="edge"><title>Node23&#45;&gt;Node25</title>
<path fill="none" stroke="midnightblue" d="M489.557,-25.1551C513.113,-22.1911 545.845,-18.0725 571.242,-14.8768"/>
<polygon fill="midnightblue" stroke="midnightblue" points="571.794,-18.3351 581.279,-13.6139 570.92,-11.3898 571.794,-18.3351"/>
</g>
</g>
</svg>
