<?xml version="1.0" encoding="UTF-8" standalone="no"?>
<!DOCTYPE svg PUBLIC "-//W3C//DTD SVG 1.1//EN"
 "http://www.w3.org/Graphics/SVG/1.1/DTD/svg11.dtd">
<!-- Generated by graphviz version 2.36.0 (20140111.2315)
 -->
<!-- Title: menu/anim/_mod.inc Pages: 1 -->
<svg width="720pt" height="364pt"
 viewBox="0.00 0.00 720.00 364.00" xmlns="http://www.w3.org/2000/svg" xmlns:xlink="http://www.w3.org/1999/xlink">
<g id="graph0" class="graph" transform="scale(1 1) rotate(0) translate(4 360)">
<title>menu/anim/_mod.inc</title>
<!-- Node1 -->
<g id="node1" class="node"><title>Node1</title>
<polygon fill="#bfbfbf" stroke="black" points="209.5,-336.5 209.5,-355.5 316.5,-355.5 316.5,-336.5 209.5,-336.5"/>
<text text-anchor="middle" x="263" y="-343.5" font-family="Helvetica,sans-Serif" font-size="10.00">menu/anim/_mod.inc</text>
</g>
<!-- Node2 -->
<g id="node2" class="node"><title>Node2</title>
<g id="a_node2"><a xlink:href="../../de/d64/animation_8qc.html" target="_top" xlink:title="menu/anim/animation.qc">
<polygon fill="none" stroke="black" points="-0.5,-280.5 -0.5,-299.5 122.5,-299.5 122.5,-280.5 -0.5,-280.5"/>
<text text-anchor="middle" x="61" y="-287.5" font-family="Helvetica,sans-Serif" font-size="10.00">menu/anim/animation.qc</text>
</a>
</g>
</g>
<!-- Node1&#45;&gt;Node2 -->
<g id="edge1" class="edge"><title>Node1&#45;&gt;Node2</title>
<path fill="none" stroke="midnightblue" d="M230.992,-336.444C196.271,-327.162 140.712,-312.309 102.623,-302.127"/>
<polygon fill="midnightblue" stroke="midnightblue" points="103.422,-298.718 92.8578,-299.516 101.615,-305.48 103.422,-298.718"/>
</g>
<!-- Node11 -->
<g id="node11" class="node"><title>Node11</title>
<g id="a_node11"><a xlink:href="../../d7/d8a/animhost_8qc.html" target="_top" xlink:title="menu/anim/animhost.qc">
<polygon fill="none" stroke="black" points="409.5,-280.5 409.5,-299.5 530.5,-299.5 530.5,-280.5 409.5,-280.5"/>
<text text-anchor="middle" x="470" y="-287.5" font-family="Helvetica,sans-Serif" font-size="10.00">menu/anim/animhost.qc</text>
</a>
</g>
</g>
<!-- Node1&#45;&gt;Node11 -->
<g id="edge10" class="edge"><title>Node1&#45;&gt;Node11</title>
<path fill="none" stroke="midnightblue" d="M295.8,-336.444C331.38,-327.162 388.314,-312.309 427.347,-302.127"/>
<polygon fill="midnightblue" stroke="midnightblue" points="428.561,-305.427 437.354,-299.516 426.794,-298.654 428.561,-305.427"/>
</g>
<!-- Node15 -->
<g id="node15" class="node"><title>Node15</title>
<g id="a_node15"><a xlink:href="../../d3/da9/easing_8qc.html" target="_top" xlink:title="menu/anim/easing.qc">
<polygon fill="none" stroke="black" points="141,-280.5 141,-299.5 251,-299.5 251,-280.5 141,-280.5"/>
<text text-anchor="middle" x="196" y="-287.5" font-family="Helvetica,sans-Serif" font-size="10.00">menu/anim/easing.qc</text>
</a>
</g>
</g>
<!-- Node1&#45;&gt;Node15 -->
<g id="edge17" class="edge"><title>Node1&#45;&gt;Node15</title>
<path fill="none" stroke="midnightblue" d="M252.235,-336.324C242.234,-328.263 227.113,-316.077 215.07,-306.369"/>
<polygon fill="midnightblue" stroke="midnightblue" points="216.943,-303.384 206.961,-299.834 212.55,-308.834 216.943,-303.384"/>
</g>
<!-- Node18 -->
<g id="node18" class="node"><title>Node18</title>
<g id="a_node18"><a xlink:href="../../d2/d58/keyframe_8qc.html" target="_top" xlink:title="menu/anim/keyframe.qc">
<polygon fill="none" stroke="black" points="269,-280.5 269,-299.5 391,-299.5 391,-280.5 269,-280.5"/>
<text text-anchor="middle" x="330" y="-287.5" font-family="Helvetica,sans-Serif" font-size="10.00">menu/anim/keyframe.qc</text>
</a>
</g>
</g>
<!-- Node1&#45;&gt;Node18 -->
<g id="edge23" class="edge"><title>Node1&#45;&gt;Node18</title>
<path fill="none" stroke="midnightblue" d="M273.765,-336.324C283.766,-328.263 298.887,-316.077 310.93,-306.369"/>
<polygon fill="midnightblue" stroke="midnightblue" points="313.45,-308.834 319.039,-299.834 309.057,-303.384 313.45,-308.834"/>
</g>
<!-- Node3 -->
<g id="node3" class="node"><title>Node3</title>
<g id="a_node3"><a xlink:href="../../d8/dec/animation_8qh.html" target="_top" xlink:title="animation.qh">
<polygon fill="none" stroke="black" points="86,-168.5 86,-187.5 158,-187.5 158,-168.5 86,-168.5"/>
<text text-anchor="middle" x="122" y="-175.5" font-family="Helvetica,sans-Serif" font-size="10.00">animation.qh</text>
</a>
</g>
</g>
<!-- Node2&#45;&gt;Node3 -->
<g id="edge2" class="edge"><title>Node2&#45;&gt;Node3</title>
<path fill="none" stroke="midnightblue" d="M62.8472,-280.135C65.7945,-267.183 72.3405,-242.607 83,-224 89.0896,-213.37 97.898,-202.939 105.603,-194.8"/>
<polygon fill="midnightblue" stroke="midnightblue" points="108.27,-197.081 112.8,-187.503 103.286,-192.166 108.27,-197.081"/>
</g>
<!-- Node4 -->
<g id="node4" class="node"><title>Node4</title>
<g id="a_node4"><a xlink:href="../../d0/d41/menu_8qh.html" target="_top" xlink:title="../menu.qh">
<polygon fill="none" stroke="black" points="297.5,-224.5 297.5,-243.5 360.5,-243.5 360.5,-224.5 297.5,-224.5"/>
<text text-anchor="middle" x="329" y="-231.5" font-family="Helvetica,sans-Serif" font-size="10.00">../menu.qh</text>
</a>
</g>
</g>
<!-- Node2&#45;&gt;Node4 -->
<g id="edge3" class="edge"><title>Node2&#45;&gt;Node4</title>
<path fill="none" stroke="midnightblue" d="M103.465,-280.444C153.865,-270.288 237.358,-253.465 287.383,-243.385"/>
<polygon fill="midnightblue" stroke="midnightblue" points="288.112,-246.809 297.224,-241.403 286.73,-239.947 288.112,-246.809"/>
</g>
<!-- Node5 -->
<g id="node5" class="node"><title>Node5</title>
<g id="a_node5"><a xlink:href="../../d9/d62/menu_2draw_8qh.html" target="_top" xlink:title="draw.qh">
<polygon fill="none" stroke="black" points="176.5,-168.5 176.5,-187.5 227.5,-187.5 227.5,-168.5 176.5,-168.5"/>
<text text-anchor="middle" x="202" y="-175.5" font-family="Helvetica,sans-Serif" font-size="10.00">draw.qh</text>
</a>
</g>
</g>
<!-- Node4&#45;&gt;Node5 -->
<g id="edge4" class="edge"><title>Node4&#45;&gt;Node5</title>
<path fill="none" stroke="midnightblue" d="M308.876,-224.444C287.976,-215.557 255.065,-201.563 231.284,-191.451"/>
<polygon fill="midnightblue" stroke="midnightblue" points="232.602,-188.208 222.029,-187.516 229.862,-194.65 232.602,-188.208"/>
</g>
<!-- Node6 -->
<g id="node6" class="node"><title>Node6</title>
<g id="a_node6"><a xlink:href="../../d4/dcc/skin_8qh.html" target="_top" xlink:title="skin.qh">
<polygon fill="none" stroke="black" points="350,-56.5 350,-75.5 398,-75.5 398,-56.5 350,-56.5"/>
<text text-anchor="middle" x="374" y="-63.5" font-family="Helvetica,sans-Serif" font-size="10.00">skin.qh</text>
</a>
</g>
</g>
<!-- Node4&#45;&gt;Node6 -->
<g id="edge5" class="edge"><title>Node4&#45;&gt;Node6</title>
<path fill="none" stroke="midnightblue" d="M312.367,-224.464C299.512,-216.841 282.661,-204.356 275,-188 271.23,-179.95 271.639,-176.229 275,-168 290.475,-130.106 327.776,-98.7361 351.915,-81.4618"/>
<polygon fill="midnightblue" stroke="midnightblue" points="354.224,-84.1201 360.449,-75.5472 350.237,-78.3667 354.224,-84.1201"/>
</g>
<!-- Node8 -->
<g id="node8" class="node"><title>Node8</title>
<g id="a_node8"><a xlink:href="../../df/d97/menu_2xonotic_2util_8qh.html" target="_top" xlink:title="xonotic/util.qh">
<polygon fill="none" stroke="black" points="284.5,-168.5 284.5,-187.5 361.5,-187.5 361.5,-168.5 284.5,-168.5"/>
<text text-anchor="middle" x="323" y="-175.5" font-family="Helvetica,sans-Serif" font-size="10.00">xonotic/util.qh</text>
</a>
</g>
</g>
<!-- Node4&#45;&gt;Node8 -->
<g id="edge7" class="edge"><title>Node4&#45;&gt;Node8</title>
<path fill="none" stroke="midnightblue" d="M328.009,-224.083C327.214,-216.927 326.071,-206.635 325.077,-197.691"/>
<polygon fill="midnightblue" stroke="midnightblue" points="328.555,-197.303 323.972,-187.751 321.598,-198.076 328.555,-197.303"/>
</g>
<!-- Node9 -->
<g id="node9" class="node"><title>Node9</title>
<g id="a_node9"><a xlink:href="../../d0/d8b/common_2constants_8qh.html" target="_top" xlink:title="common/constants.qh">
<polygon fill="none" stroke="black" points="379.5,-168.5 379.5,-187.5 492.5,-187.5 492.5,-168.5 379.5,-168.5"/>
<text text-anchor="middle" x="436" y="-175.5" font-family="Helvetica,sans-Serif" font-size="10.00">common/constants.qh</text>
</a>
</g>
</g>
<!-- Node4&#45;&gt;Node9 -->
<g id="edge8" class="edge"><title>Node4&#45;&gt;Node9</title>
<path fill="none" stroke="midnightblue" d="M346.191,-224.324C363.351,-215.664 389.946,-202.242 409.747,-192.249"/>
<polygon fill="midnightblue" stroke="midnightblue" points="411.501,-195.285 418.851,-187.655 408.347,-189.035 411.501,-195.285"/>
</g>
<!-- Node10 -->
<g id="node10" class="node"><title>Node10</title>
<g id="a_node10"><a xlink:href="../../d5/df2/common_2util_8qh.html" target="_top" xlink:title="common/util.qh">
<polygon fill="none" stroke="black" points="510.5,-168.5 510.5,-187.5 593.5,-187.5 593.5,-168.5 510.5,-168.5"/>
<text text-anchor="middle" x="552" y="-175.5" font-family="Helvetica,sans-Serif" font-size="10.00">common/util.qh</text>
</a>
</g>
</g>
<!-- Node4&#45;&gt;Node10 -->
<g id="edge9" class="edge"><title>Node4&#45;&gt;Node10</title>
<path fill="none" stroke="midnightblue" d="M360.95,-225.263C399.193,-216.003 463.486,-200.434 506.807,-189.944"/>
<polygon fill="midnightblue" stroke="midnightblue" points="507.902,-193.28 516.798,-187.524 506.255,-186.476 507.902,-193.28"/>
</g>
<!-- Node7 -->
<g id="node7" class="node"><title>Node7</title>
<g id="a_node7"><a xlink:href="../../d4/d90/skin-customizables_8inc.html" target="_top" xlink:title="skin&#45;customizables.inc">
<polygon fill="none" stroke="black" points="316,-0.5 316,-19.5 432,-19.5 432,-0.5 316,-0.5"/>
<text text-anchor="middle" x="374" y="-7.5" font-family="Helvetica,sans-Serif" font-size="10.00">skin&#45;customizables.inc</text>
</a>
</g>
</g>
<!-- Node6&#45;&gt;Node7 -->
<g id="edge6" class="edge"><title>Node6&#45;&gt;Node7</title>
<path fill="none" stroke="midnightblue" d="M374,-56.083C374,-49.0059 374,-38.8611 374,-29.9865"/>
<polygon fill="midnightblue" stroke="midnightblue" points="377.5,-29.751 374,-19.7511 370.5,-29.7511 377.5,-29.751"/>
</g>
<!-- Node11&#45;&gt;Node3 -->
<g id="edge16" class="edge"><title>Node11&#45;&gt;Node3</title>
<path fill="none" stroke="midnightblue" d="M422.721,-280.441C385.444,-272.951 332.506,-260.657 288,-244 269.756,-237.172 266.887,-231.715 249,-224 219.419,-211.242 184.911,-199.187 159.337,-190.772"/>
<polygon fill="midnightblue" stroke="midnightblue" points="160.25,-187.388 149.658,-187.62 158.083,-194.044 160.25,-187.388"/>
</g>
<!-- Node11&#45;&gt;Node4 -->
<g id="edge15" class="edge"><title>Node11&#45;&gt;Node4</title>
<path fill="none" stroke="midnightblue" d="M447.658,-280.444C424.247,-271.478 387.264,-257.314 360.81,-247.183"/>
<polygon fill="midnightblue" stroke="midnightblue" points="361.828,-243.824 351.237,-243.516 359.324,-250.361 361.828,-243.824"/>
</g>
<!-- Node12 -->
<g id="node12" class="node"><title>Node12</title>
<g id="a_node12"><a xlink:href="../../d6/d93/animhost_8qh.html" target="_top" xlink:title="animhost.qh">
<polygon fill="none" stroke="black" points="530,-224.5 530,-243.5 600,-243.5 600,-224.5 530,-224.5"/>
<text text-anchor="middle" x="565" y="-231.5" font-family="Helvetica,sans-Serif" font-size="10.00">animhost.qh</text>
</a>
</g>
</g>
<!-- Node11&#45;&gt;Node12 -->
<g id="edge11" class="edge"><title>Node11&#45;&gt;Node12</title>
<path fill="none" stroke="midnightblue" d="M485.263,-280.324C500.221,-271.822 523.255,-258.729 540.727,-248.797"/>
<polygon fill="midnightblue" stroke="midnightblue" points="542.81,-251.639 549.774,-243.655 539.351,-245.553 542.81,-251.639"/>
</g>
<!-- Node13 -->
<g id="node13" class="node"><title>Node13</title>
<g id="a_node13"><a xlink:href="../../d5/d8e/container_8qh.html" target="_top" xlink:title="../item/container.qh">
<polygon fill="none" stroke="black" points="611.5,-168.5 611.5,-187.5 712.5,-187.5 712.5,-168.5 611.5,-168.5"/>
<text text-anchor="middle" x="662" y="-175.5" font-family="Helvetica,sans-Serif" font-size="10.00">../item/container.qh</text>
</a>
</g>
</g>
<!-- Node12&#45;&gt;Node13 -->
<g id="edge12" class="edge"><title>Node12&#45;&gt;Node13</title>
<path fill="none" stroke="midnightblue" d="M580.585,-224.324C595.999,-215.743 619.812,-202.486 637.71,-192.522"/>
<polygon fill="midnightblue" stroke="midnightblue" points="639.419,-195.577 646.454,-187.655 636.014,-189.461 639.419,-195.577"/>
</g>
<!-- Node14 -->
<g id="node14" class="node"><title>Node14</title>
<g id="a_node14"><a xlink:href="../../d8/d1e/menu_2item_8qh.html" target="_top" xlink:title="menu/item.qh">
<polygon fill="none" stroke="black" points="454,-112.5 454,-131.5 530,-131.5 530,-112.5 454,-112.5"/>
<text text-anchor="middle" x="492" y="-119.5" font-family="Helvetica,sans-Serif" font-size="10.00">menu/item.qh</text>
</a>
</g>
</g>
<!-- Node13&#45;&gt;Node14 -->
<g id="edge13" class="edge"><title>Node13&#45;&gt;Node14</title>
<path fill="none" stroke="midnightblue" d="M635.063,-168.444C606.34,-159.32 560.671,-144.813 528.679,-134.651"/>
<polygon fill="midnightblue" stroke="midnightblue" points="529.401,-131.208 518.811,-131.516 527.282,-137.88 529.401,-131.208"/>
</g>
<!-- Node14&#45;&gt;Node6 -->
<g id="edge14" class="edge"><title>Node14&#45;&gt;Node6</title>
<path fill="none" stroke="midnightblue" d="M473.303,-112.444C454.056,-103.636 423.848,-89.8116 401.8,-79.722"/>
<polygon fill="midnightblue" stroke="midnightblue" points="403.16,-76.4951 392.61,-75.5164 400.247,-82.8603 403.16,-76.4951"/>
</g>
<!-- Node15&#45;&gt;Node4 -->
<g id="edge20" class="edge"><title>Node15&#45;&gt;Node4</title>
<path fill="none" stroke="midnightblue" d="M217.074,-280.444C239.06,-271.517 273.734,-257.439 298.664,-247.317"/>
<polygon fill="midnightblue" stroke="midnightblue" points="300.076,-250.521 308.024,-243.516 297.442,-244.035 300.076,-250.521"/>
</g>
<!-- Node16 -->
<g id="node16" class="node"><title>Node16</title>
<g id="a_node16"><a xlink:href="../../df/dfd/easing_8qh.html" target="_top" xlink:title="easing.qh">
<polygon fill="none" stroke="black" points="92.5,-224.5 92.5,-243.5 151.5,-243.5 151.5,-224.5 92.5,-224.5"/>
<text text-anchor="middle" x="122" y="-231.5" font-family="Helvetica,sans-Serif" font-size="10.00">easing.qh</text>
</a>
</g>
</g>
<!-- Node15&#45;&gt;Node16 -->
<g id="edge18" class="edge"><title>Node15&#45;&gt;Node16</title>
<path fill="none" stroke="midnightblue" d="M184.111,-280.324C172.85,-272.107 155.713,-259.602 142.291,-249.807"/>
<polygon fill="midnightblue" stroke="midnightblue" points="144.247,-246.901 134.106,-243.834 140.12,-252.556 144.247,-246.901"/>
</g>
<!-- Node17 -->
<g id="node17" class="node"><title>Node17</title>
<g id="a_node17"><a xlink:href="../../df/dac/keyframe_8qh.html" target="_top" xlink:title="keyframe.qh">
<polygon fill="none" stroke="black" points="169.5,-224.5 169.5,-243.5 240.5,-243.5 240.5,-224.5 169.5,-224.5"/>
<text text-anchor="middle" x="205" y="-231.5" font-family="Helvetica,sans-Serif" font-size="10.00">keyframe.qh</text>
</a>
</g>
</g>
<!-- Node15&#45;&gt;Node17 -->
<g id="edge21" class="edge"><title>Node15&#45;&gt;Node17</title>
<path fill="none" stroke="midnightblue" d="M197.486,-280.083C198.679,-272.927 200.394,-262.635 201.885,-253.691"/>
<polygon fill="midnightblue" stroke="midnightblue" points="205.35,-254.19 203.541,-243.751 198.445,-253.04 205.35,-254.19"/>
</g>
<!-- Node16&#45;&gt;Node3 -->
<g id="edge19" class="edge"><title>Node16&#45;&gt;Node3</title>
<path fill="none" stroke="midnightblue" d="M122,-224.083C122,-217.006 122,-206.861 122,-197.986"/>
<polygon fill="midnightblue" stroke="midnightblue" points="125.5,-197.751 122,-187.751 118.5,-197.751 125.5,-197.751"/>
</g>
<!-- Node17&#45;&gt;Node3 -->
<g id="edge22" class="edge"><title>Node17&#45;&gt;Node3</title>
<path fill="none" stroke="midnightblue" d="M191.665,-224.324C178.838,-215.979 159.215,-203.212 144.06,-193.352"/>
<polygon fill="midnightblue" stroke="midnightblue" points="145.593,-190.174 135.302,-187.655 141.776,-196.042 145.593,-190.174"/>
</g>
<!-- Node18&#45;&gt;Node4 -->
<g id="edge25" class="edge"><title>Node18&#45;&gt;Node4</title>
<path fill="none" stroke="midnightblue" d="M329.835,-280.083C329.704,-273.006 329.516,-262.861 329.352,-253.986"/>
<polygon fill="midnightblue" stroke="midnightblue" points="332.847,-253.685 329.162,-243.751 325.848,-253.814 332.847,-253.685"/>
</g>
<!-- Node18&#45;&gt;Node13 -->
<g id="edge27" class="edge"><title>Node18&#45;&gt;Node13</title>
<path fill="none" stroke="midnightblue" d="M354.674,-280.435C391.02,-267.857 461.121,-243.742 521,-224 556.255,-212.377 596.622,-199.541 625.105,-190.563"/>
<polygon fill="midnightblue" stroke="midnightblue" points="626.168,-193.898 634.656,-187.557 624.067,-187.221 626.168,-193.898"/>
</g>
<!-- Node18&#45;&gt;Node16 -->
<g id="edge26" class="edge"><title>Node18&#45;&gt;Node16</title>
<path fill="none" stroke="midnightblue" d="M297.042,-280.444C260.265,-270.896 200.784,-255.454 161.533,-245.263"/>
<polygon fill="midnightblue" stroke="midnightblue" points="162.33,-241.854 151.771,-242.729 160.571,-248.63 162.33,-241.854"/>
</g>
<!-- Node18&#45;&gt;Node17 -->
<g id="edge24" class="edge"><title>Node18&#45;&gt;Node17</title>
<path fill="none" stroke="midnightblue" d="M310.193,-280.444C289.713,-271.596 257.517,-257.687 234.135,-247.586"/>
<polygon fill="midnightblue" stroke="midnightblue" points="235.282,-244.269 224.714,-243.516 232.506,-250.695 235.282,-244.269"/>
</g>
</g>
</svg>
