<?xml version="1.0" encoding="UTF-8" standalone="no"?>
<!DOCTYPE svg PUBLIC "-//W3C//DTD SVG 1.1//EN"
 "http://www.w3.org/Graphics/SVG/1.1/DTD/svg11.dtd">
<!-- Generated by graphviz version 2.36.0 (20140111.2315)
 -->
<!-- Title: client/hud/panel/powerups.qh Pages: 1 -->
<svg width="335pt" height="252pt"
 viewBox="0.00 0.00 335.00 252.00" xmlns="http://www.w3.org/2000/svg" xmlns:xlink="http://www.w3.org/1999/xlink">
<g id="graph0" class="graph" transform="scale(1 1) rotate(0) translate(4 248)">
<title>client/hud/panel/powerups.qh</title>
<!-- Node1 -->
<g id="node1" class="node"><title>Node1</title>
<polygon fill="#bfbfbf" stroke="black" points="117.5,-224.5 117.5,-243.5 260.5,-243.5 260.5,-224.5 117.5,-224.5"/>
<text text-anchor="middle" x="189" y="-231.5" font-family="Helvetica,sans-Serif" font-size="10.00">client/hud/panel/powerups.qh</text>
</g>
<!-- Node2 -->
<g id="node2" class="node"><title>Node2</title>
<g id="a_node2"><a xlink:href="../../df/db0/powerups_8qc.html" target="_top" xlink:title="client/hud/panel/powerups.qc">
<polygon fill="none" stroke="black" points="41.5,-168.5 41.5,-187.5 184.5,-187.5 184.5,-168.5 41.5,-168.5"/>
<text text-anchor="middle" x="113" y="-175.5" font-family="Helvetica,sans-Serif" font-size="10.00">client/hud/panel/powerups.qc</text>
</a>
</g>
</g>
<!-- Node1&#45;&gt;Node2 -->
<g id="edge1" class="edge"><title>Node1&#45;&gt;Node2</title>
<path fill="none" stroke="midnightblue" d="M168.424,-218.38C154.688,-208.62 137.075,-196.106 125.433,-187.834"/>
<polygon fill="midnightblue" stroke="midnightblue" points="166.61,-221.385 176.789,-224.324 170.665,-215.679 166.61,-221.385"/>
</g>
<!-- Node7 -->
<g id="node7" class="node"><title>Node7</title>
<g id="a_node7"><a xlink:href="../../d1/d06/client_2hud_2panel_2__mod_8qh.html" target="_top" xlink:title="client/hud/panel/_mod.qh">
<polygon fill="none" stroke="black" points="202.5,-168.5 202.5,-187.5 327.5,-187.5 327.5,-168.5 202.5,-168.5"/>
<text text-anchor="middle" x="265" y="-175.5" font-family="Helvetica,sans-Serif" font-size="10.00">client/hud/panel/_mod.qh</text>
</a>
</g>
</g>
<!-- Node1&#45;&gt;Node7 -->
<g id="edge6" class="edge"><title>Node1&#45;&gt;Node7</title>
<path fill="none" stroke="midnightblue" d="M209.576,-218.38C223.312,-208.62 240.925,-196.106 252.567,-187.834"/>
<polygon fill="midnightblue" stroke="midnightblue" points="207.335,-215.679 201.211,-224.324 211.39,-221.385 207.335,-215.679"/>
</g>
<!-- Node3 -->
<g id="node3" class="node"><title>Node3</title>
<g id="a_node3"><a xlink:href="../../dd/d5f/client_2hud_2all_8inc.html" target="_top" xlink:title="client/hud/all.inc">
<polygon fill="none" stroke="black" points="6.5,-112.5 6.5,-131.5 93.5,-131.5 93.5,-112.5 6.5,-112.5"/>
<text text-anchor="middle" x="50" y="-119.5" font-family="Helvetica,sans-Serif" font-size="10.00">client/hud/all.inc</text>
</a>
</g>
</g>
<!-- Node2&#45;&gt;Node3 -->
<g id="edge2" class="edge"><title>Node2&#45;&gt;Node3</title>
<path fill="none" stroke="midnightblue" d="M94.9601,-161.537C83.7269,-151.909 69.6809,-139.869 60.3062,-131.834"/>
<polygon fill="midnightblue" stroke="midnightblue" points="93.0076,-164.473 102.878,-168.324 97.5632,-159.159 93.0076,-164.473"/>
</g>
<!-- Node6 -->
<g id="node6" class="node"><title>Node6</title>
<g id="a_node6"><a xlink:href="../../d8/d93/client_2hud_2panel_2__mod_8inc.html" target="_top" xlink:title="client/hud/panel/_mod.inc">
<polygon fill="none" stroke="black" points="112,-112.5 112,-131.5 240,-131.5 240,-112.5 112,-112.5"/>
<text text-anchor="middle" x="176" y="-119.5" font-family="Helvetica,sans-Serif" font-size="10.00">client/hud/panel/_mod.inc</text>
</a>
</g>
</g>
<!-- Node2&#45;&gt;Node6 -->
<g id="edge5" class="edge"><title>Node2&#45;&gt;Node6</title>
<path fill="none" stroke="midnightblue" d="M131.04,-161.537C142.273,-151.909 156.319,-139.869 165.694,-131.834"/>
<polygon fill="midnightblue" stroke="midnightblue" points="128.437,-159.159 123.122,-168.324 132.992,-164.473 128.437,-159.159"/>
</g>
<!-- Node4 -->
<g id="node4" class="node"><title>Node4</title>
<g id="a_node4"><a xlink:href="../../d7/d15/hud_8qc.html" target="_top" xlink:title="client/hud/hud.qc">
<polygon fill="none" stroke="black" points="4.5,-56.5 4.5,-75.5 95.5,-75.5 95.5,-56.5 4.5,-56.5"/>
<text text-anchor="middle" x="50" y="-63.5" font-family="Helvetica,sans-Serif" font-size="10.00">client/hud/hud.qc</text>
</a>
</g>
</g>
<!-- Node3&#45;&gt;Node4 -->
<g id="edge3" class="edge"><title>Node3&#45;&gt;Node4</title>
<path fill="none" stroke="midnightblue" d="M50,-101.805C50,-92.9102 50,-82.7798 50,-75.7511"/>
<polygon fill="midnightblue" stroke="midnightblue" points="46.5001,-102.083 50,-112.083 53.5001,-102.083 46.5001,-102.083"/>
</g>
<!-- Node5 -->
<g id="node5" class="node"><title>Node5</title>
<g id="a_node5"><a xlink:href="../../db/dab/client_2hud_2__mod_8inc.html" target="_top" xlink:title="client/hud/_mod.inc">
<polygon fill="none" stroke="black" points="-0.5,-0.5 -0.5,-19.5 100.5,-19.5 100.5,-0.5 -0.5,-0.5"/>
<text text-anchor="middle" x="50" y="-7.5" font-family="Helvetica,sans-Serif" font-size="10.00">client/hud/_mod.inc</text>
</a>
</g>
</g>
<!-- Node4&#45;&gt;Node5 -->
<g id="edge4" class="edge"><title>Node4&#45;&gt;Node5</title>
<path fill="none" stroke="midnightblue" d="M50,-45.8045C50,-36.9102 50,-26.7798 50,-19.7511"/>
<polygon fill="midnightblue" stroke="midnightblue" points="46.5001,-46.083 50,-56.083 53.5001,-46.083 46.5001,-46.083"/>
</g>
</g>
</svg>
