<?xml version="1.0" encoding="UTF-8" standalone="no"?>
<!DOCTYPE svg PUBLIC "-//W3C//DTD SVG 1.1//EN"
 "http://www.w3.org/Graphics/SVG/1.1/DTD/svg11.dtd">
<!-- Generated by graphviz version 2.38.0 (20140413.2041)
 -->
<!-- Title: Client::Client Pages: 1 -->
<svg width="675pt" height="610pt"
 viewBox="0.00 0.00 675.00 610.00" xmlns="http://www.w3.org/2000/svg" xmlns:xlink="http://www.w3.org/1999/xlink">
<g id="graph0" class="graph" transform="scale(1 1) rotate(0) translate(4 606)">
<title>Client::Client</title>
<!-- Node1 -->
<g id="node1" class="node"><title>Node1</title>
<polygon fill="#bfbfbf" stroke="black" points="0,-285.5 0,-304.5 77,-304.5 77,-285.5 0,-285.5"/>
<text text-anchor="middle" x="38.5" y="-292.5" font-family="Helvetica,sans-Serif" font-size="10.00">Client::Client</text>
</g>
<!-- Node2 -->
<g id="node2" class="node"><title>Node2</title>
<g id="a_node2"><a xlink:href="../../d8/de2/server_2client_8qh.html#afc32312bf25df126b18e078bedab7837" target="_top" xlink:title="ClientState_attach">
<polygon fill="none" stroke="black" points="113,-285.5 113,-304.5 219,-304.5 219,-285.5 113,-285.5"/>
<text text-anchor="middle" x="166" y="-292.5" font-family="Helvetica,sans-Serif" font-size="10.00">ClientState_attach</text>
</a>
</g>
</g>
<!-- Node1&#45;&gt;Node2 -->
<g id="edge1" class="edge"><title>Node1&#45;&gt;Node2</title>
<path fill="none" stroke="midnightblue" d="M77.1541,-295C85.2497,-295 94.0124,-295 102.762,-295"/>
<polygon fill="midnightblue" stroke="midnightblue" points="102.986,-298.5 112.986,-295 102.986,-291.5 102.986,-298.5"/>
</g>
<!-- Node3 -->
<g id="node3" class="node"><title>Node3</title>
<g id="a_node3"><a xlink:href="../../d0/d3f/state_8qc.html#a34f4025222e4edd5d1dcee5b90656bec" target="_top" xlink:title="accuracy_free">
<polygon fill="none" stroke="black" points="281,-582.5 281,-601.5 364,-601.5 364,-582.5 281,-582.5"/>
<text text-anchor="middle" x="322.5" y="-589.5" font-family="Helvetica,sans-Serif" font-size="10.00">accuracy_free</text>
</a>
</g>
</g>
<!-- Node2&#45;&gt;Node3 -->
<g id="edge2" class="edge"><title>Node2&#45;&gt;Node3</title>
<path fill="none" stroke="midnightblue" d="M166.983,-304.527C167.45,-343.814 174.598,-494.839 255,-573 259.633,-577.504 265.257,-580.954 271.25,-583.594"/>
<polygon fill="midnightblue" stroke="midnightblue" points="270.288,-586.969 280.882,-587.111 272.689,-580.393 270.288,-586.969"/>
</g>
<!-- Node4 -->
<g id="node4" class="node"><title>Node4</title>
<g id="a_node4"><a xlink:href="../../d0/d3f/state_8qc.html#a28f9af38c062e963a41ab42e2a60e12b" target="_top" xlink:title="accuracy_init">
<polygon fill="none" stroke="black" points="283,-544.5 283,-563.5 362,-563.5 362,-544.5 283,-544.5"/>
<text text-anchor="middle" x="322.5" y="-551.5" font-family="Helvetica,sans-Serif" font-size="10.00">accuracy_init</text>
</a>
</g>
</g>
<!-- Node2&#45;&gt;Node4 -->
<g id="edge3" class="edge"><title>Node2&#45;&gt;Node4</title>
<path fill="none" stroke="midnightblue" d="M167.557,-304.941C170.148,-341.409 184.134,-469.137 255,-535 260.141,-539.778 266.401,-543.365 273.002,-546.055"/>
<polygon fill="midnightblue" stroke="midnightblue" points="272.23,-549.489 282.825,-549.389 274.481,-542.861 272.23,-549.489"/>
</g>
<!-- Node5 -->
<g id="node5" class="node"><title>Node5</title>
<g id="a_node5"><a xlink:href="../../d0/d3f/state_8qc.html#a620f7cf1b6c95a9c13fb4ee6c0476309" target="_top" xlink:title="anticheat_init">
<polygon fill="none" stroke="black" points="282,-506.5 282,-525.5 363,-525.5 363,-506.5 282,-506.5"/>
<text text-anchor="middle" x="322.5" y="-513.5" font-family="Helvetica,sans-Serif" font-size="10.00">anticheat_init</text>
</a>
</g>
</g>
<!-- Node2&#45;&gt;Node5 -->
<g id="edge4" class="edge"><title>Node2&#45;&gt;Node5</title>
<path fill="none" stroke="midnightblue" d="M168.287,-304.715C173.11,-337.169 193.121,-442.824 255,-497 259.921,-501.308 265.758,-504.643 271.899,-507.224"/>
<polygon fill="midnightblue" stroke="midnightblue" points="271.116,-510.66 281.711,-510.691 273.448,-504.059 271.116,-510.66"/>
</g>
<!-- Node6 -->
<g id="node6" class="node"><title>Node6</title>
<g id="a_node6"><a xlink:href="../../d0/d3f/state_8qc.html#abbd5a2c9639d75d5ac7e98fbd60856ab" target="_top" xlink:title="anticheat_report_to\l_eventlog">
<polygon fill="none" stroke="black" points="267,-457 267,-487 378,-487 378,-457 267,-457"/>
<text text-anchor="start" x="275" y="-475" font-family="Helvetica,sans-Serif" font-size="10.00">anticheat_report_to</text>
<text text-anchor="middle" x="322.5" y="-464" font-family="Helvetica,sans-Serif" font-size="10.00">_eventlog</text>
</a>
</g>
</g>
<!-- Node2&#45;&gt;Node6 -->
<g id="edge5" class="edge"><title>Node2&#45;&gt;Node6</title>
<path fill="none" stroke="midnightblue" d="M170.017,-304.704C178.758,-331.283 206.605,-406.006 255,-447 256.976,-448.674 259.076,-450.242 261.265,-451.709"/>
<polygon fill="midnightblue" stroke="midnightblue" points="259.688,-454.842 270.084,-456.886 263.231,-448.805 259.688,-454.842"/>
</g>
<!-- Node7 -->
<g id="node7" class="node"><title>Node7</title>
<g id="a_node7"><a xlink:href="../../d0/d3f/state_8qc.html#ab10bcd46b240e1fd8154de39ddd5c40e" target="_top" xlink:title="bot_clientdisconnect">
<polygon fill="none" stroke="black" points="265,-418.5 265,-437.5 380,-437.5 380,-418.5 265,-418.5"/>
<text text-anchor="middle" x="322.5" y="-425.5" font-family="Helvetica,sans-Serif" font-size="10.00">bot_clientdisconnect</text>
</a>
</g>
</g>
<!-- Node2&#45;&gt;Node7 -->
<g id="edge6" class="edge"><title>Node2&#45;&gt;Node7</title>
<path fill="none" stroke="midnightblue" d="M172.282,-304.629C184.271,-325.63 215.58,-375.919 255,-404 260.911,-408.211 267.638,-411.756 274.49,-414.72"/>
<polygon fill="midnightblue" stroke="midnightblue" points="273.259,-417.997 283.846,-418.408 275.826,-411.484 273.259,-417.997"/>
</g>
<!-- Node8 -->
<g id="node8" class="node"><title>Node8</title>
<g id="a_node8"><a xlink:href="../../d0/d3f/state_8qc.html#ae1ed9a146c5c791944277a4ff2c890c6" target="_top" xlink:title="ClientData_Attach">
<polygon fill="none" stroke="black" points="270.5,-342.5 270.5,-361.5 374.5,-361.5 374.5,-342.5 270.5,-342.5"/>
<text text-anchor="middle" x="322.5" y="-349.5" font-family="Helvetica,sans-Serif" font-size="10.00">ClientData_Attach</text>
</a>
</g>
</g>
<!-- Node2&#45;&gt;Node8 -->
<g id="edge7" class="edge"><title>Node2&#45;&gt;Node8</title>
<path fill="none" stroke="midnightblue" d="M192.385,-304.614C209.947,-311.243 233.868,-320.225 255,-328 264.849,-331.624 275.537,-335.504 285.405,-339.065"/>
<polygon fill="midnightblue" stroke="midnightblue" points="284.343,-342.403 294.938,-342.499 286.715,-335.817 284.343,-342.403"/>
</g>
<!-- Node12 -->
<g id="node12" class="node"><title>Node12</title>
<g id="a_node12"><a xlink:href="../../d4/d0c/csprogsdefs_8qc.html#acbb54a239d76062465dccbc6a6c6e464" target="_top" xlink:title="entity">
<polygon fill="none" stroke="black" points="596,-418.5 596,-437.5 640,-437.5 640,-418.5 596,-418.5"/>
<text text-anchor="middle" x="618" y="-425.5" font-family="Helvetica,sans-Serif" font-size="10.00">entity</text>
</a>
</g>
</g>
<!-- Node2&#45;&gt;Node12 -->
<g id="edge22" class="edge"><title>Node2&#45;&gt;Node12</title>
<path fill="none" stroke="midnightblue" d="M174.816,-304.594C188.918,-321.173 220.388,-354.947 255,-371 313.982,-398.356 509.529,-418.363 585.982,-425.319"/>
<polygon fill="midnightblue" stroke="midnightblue" points="585.68,-428.806 595.953,-426.214 586.305,-421.834 585.68,-428.806"/>
</g>
<!-- Node15 -->
<g id="node15" class="node"><title>Node15</title>
<g id="a_node15"><a xlink:href="../../d0/d3f/state_8qc.html#a493d87cfdaad13d4de171211f5f7bc4d" target="_top" xlink:title="ClientData_Detach">
<polygon fill="none" stroke="black" points="426,-266.5 426,-285.5 533,-285.5 533,-266.5 426,-266.5"/>
<text text-anchor="middle" x="479.5" y="-273.5" font-family="Helvetica,sans-Serif" font-size="10.00">ClientData_Detach</text>
</a>
</g>
</g>
<!-- Node2&#45;&gt;Node15 -->
<g id="edge15" class="edge"><title>Node2&#45;&gt;Node15</title>
<path fill="none" stroke="midnightblue" d="M219.432,-298.114C264.727,-300.061 331.866,-301.17 390,-295 403.947,-293.52 418.926,-290.762 432.522,-287.798"/>
<polygon fill="midnightblue" stroke="midnightblue" points="433.632,-291.135 442.61,-285.509 432.083,-284.309 433.632,-291.135"/>
</g>
<!-- Node16 -->
<g id="node16" class="node"><title>Node16</title>
<g id="a_node16"><a xlink:href="../../d0/d3f/state_8qc.html#ae55541fef89bf17be7eedf1e1b8d9c91" target="_top" xlink:title="DecodeLevelParms">
<polygon fill="none" stroke="black" points="268.5,-266.5 268.5,-285.5 376.5,-285.5 376.5,-266.5 268.5,-266.5"/>
<text text-anchor="middle" x="322.5" y="-273.5" font-family="Helvetica,sans-Serif" font-size="10.00">DecodeLevelParms</text>
</a>
</g>
</g>
<!-- Node2&#45;&gt;Node16 -->
<g id="edge17" class="edge"><title>Node2&#45;&gt;Node16</title>
<path fill="none" stroke="midnightblue" d="M219.307,-288.567C231.809,-287.03 245.289,-285.372 258.227,-283.781"/>
<polygon fill="midnightblue" stroke="midnightblue" points="258.96,-287.217 268.458,-282.523 258.106,-280.27 258.96,-287.217"/>
</g>
<!-- Node18 -->
<g id="node18" class="node"><title>Node18</title>
<g id="a_node18"><a xlink:href="../../d0/d3f/state_8qc.html#ad3d6ec59a6310645b11d417739f69552" target="_top" xlink:title="entcs_attach">
<polygon fill="none" stroke="black" points="283,-228.5 283,-247.5 362,-247.5 362,-228.5 283,-228.5"/>
<text text-anchor="middle" x="322.5" y="-235.5" font-family="Helvetica,sans-Serif" font-size="10.00">entcs_attach</text>
</a>
</g>
</g>
<!-- Node2&#45;&gt;Node18 -->
<g id="edge20" class="edge"><title>Node2&#45;&gt;Node18</title>
<path fill="none" stroke="midnightblue" d="M186.975,-285.493C204.621,-277.308 231.178,-265.506 255,-257 261.458,-254.694 268.344,-252.471 275.146,-250.41"/>
<polygon fill="midnightblue" stroke="midnightblue" points="276.386,-253.693 284.991,-247.513 274.41,-246.978 276.386,-253.693"/>
</g>
<!-- Node19 -->
<g id="node19" class="node"><title>Node19</title>
<g id="a_node19"><a xlink:href="../../d0/d3f/state_8qc.html#ac87f3b0e72460f99913d0a56abac6990" target="_top" xlink:title="entcs_detach">
<polygon fill="none" stroke="black" points="282,-190.5 282,-209.5 363,-209.5 363,-190.5 282,-190.5"/>
<text text-anchor="middle" x="322.5" y="-197.5" font-family="Helvetica,sans-Serif" font-size="10.00">entcs_detach</text>
</a>
</g>
</g>
<!-- Node2&#45;&gt;Node19 -->
<g id="edge21" class="edge"><title>Node2&#45;&gt;Node19</title>
<path fill="none" stroke="midnightblue" d="M175.494,-285.323C190.141,-269.225 221.788,-236.943 255,-219 260.279,-216.148 266.03,-213.686 271.869,-211.569"/>
<polygon fill="midnightblue" stroke="midnightblue" points="273.307,-214.781 281.71,-208.327 271.116,-208.132 273.307,-214.781"/>
</g>
<!-- Node20 -->
<g id="node20" class="node"><title>Node20</title>
<g id="a_node20"><a xlink:href="../../d0/d3f/state_8qc.html#ad0b0563adf5b008f56dd29f3adccccef" target="_top" xlink:title="InventoryStorage_attach">
<polygon fill="none" stroke="black" points="255,-152.5 255,-171.5 390,-171.5 390,-152.5 255,-152.5"/>
<text text-anchor="middle" x="322.5" y="-159.5" font-family="Helvetica,sans-Serif" font-size="10.00">InventoryStorage_attach</text>
</a>
</g>
</g>
<!-- Node2&#45;&gt;Node20 -->
<g id="edge23" class="edge"><title>Node2&#45;&gt;Node20</title>
<path fill="none" stroke="midnightblue" d="M171.681,-285.381C182.878,-263.396 213.406,-209.204 255,-181 258.062,-178.924 261.351,-177.072 264.766,-175.421"/>
<polygon fill="midnightblue" stroke="midnightblue" points="266.189,-178.619 274.038,-171.502 263.464,-172.171 266.189,-178.619"/>
</g>
<!-- Node21 -->
<g id="node21" class="node"><title>Node21</title>
<g id="a_node21"><a xlink:href="../../d0/d3f/state_8qc.html#aa66ef3aa59e752ea23954561082a6ac6" target="_top" xlink:title="PlayerScore_Attach">
<polygon fill="none" stroke="black" points="267.5,-114.5 267.5,-133.5 377.5,-133.5 377.5,-114.5 267.5,-114.5"/>
<text text-anchor="middle" x="322.5" y="-121.5" font-family="Helvetica,sans-Serif" font-size="10.00">PlayerScore_Attach</text>
</a>
</g>
</g>
<!-- Node2&#45;&gt;Node21 -->
<g id="edge24" class="edge"><title>Node2&#45;&gt;Node21</title>
<path fill="none" stroke="midnightblue" d="M169.727,-285.473C177.891,-258.698 204.739,-182.181 255,-143 257.431,-141.105 260.043,-139.399 262.776,-137.863"/>
<polygon fill="midnightblue" stroke="midnightblue" points="264.337,-140.996 271.838,-133.513 261.309,-134.685 264.337,-140.996"/>
</g>
<!-- Node22 -->
<g id="node22" class="node"><title>Node22</title>
<g id="a_node22"><a xlink:href="../../d0/d3f/state_8qc.html#a7fd595275a5ab3b24efdf5dc24933c46" target="_top" xlink:title="PlayerScore_Detach">
<polygon fill="none" stroke="black" points="266,-76.5 266,-95.5 379,-95.5 379,-76.5 266,-76.5"/>
<text text-anchor="middle" x="322.5" y="-83.5" font-family="Helvetica,sans-Serif" font-size="10.00">PlayerScore_Detach</text>
</a>
</g>
</g>
<!-- Node2&#45;&gt;Node22 -->
<g id="edge25" class="edge"><title>Node2&#45;&gt;Node22</title>
<path fill="none" stroke="midnightblue" d="M168.555,-285.419C174.11,-254.364 195.886,-155.572 255,-105 256.996,-103.293 259.136,-101.738 261.382,-100.323"/>
<polygon fill="midnightblue" stroke="midnightblue" points="263.267,-103.286 270.481,-95.5274 260.003,-97.0936 263.267,-103.286"/>
</g>
<!-- Node23 -->
<g id="node23" class="node"><title>Node23</title>
<g id="a_node23"><a xlink:href="../../d0/d3f/state_8qc.html#a8fe4ed7866766d38e6cf3bfd1c4b239e" target="_top" xlink:title="W_HitPlotClose">
<polygon fill="none" stroke="black" points="278.5,-38.5 278.5,-57.5 366.5,-57.5 366.5,-38.5 278.5,-38.5"/>
<text text-anchor="middle" x="322.5" y="-45.5" font-family="Helvetica,sans-Serif" font-size="10.00">W_HitPlotClose</text>
</a>
</g>
</g>
<!-- Node2&#45;&gt;Node23 -->
<g id="edge26" class="edge"><title>Node2&#45;&gt;Node23</title>
<path fill="none" stroke="midnightblue" d="M167.772,-285.062C171.061,-249.746 187.031,-129.108 255,-67 259.1,-63.2539 263.888,-60.2413 268.984,-57.8193"/>
<polygon fill="midnightblue" stroke="midnightblue" points="270.408,-61.0193 278.403,-54.0669 267.818,-54.5163 270.408,-61.0193"/>
</g>
<!-- Node24 -->
<g id="node24" class="node"><title>Node24</title>
<g id="a_node24"><a xlink:href="../../d0/d3f/state_8qc.html#aecf787c37dd491650911b4afd9e342ba" target="_top" xlink:title="W_HitPlotOpen">
<polygon fill="none" stroke="black" points="279,-0.5 279,-19.5 366,-19.5 366,-0.5 279,-0.5"/>
<text text-anchor="middle" x="322.5" y="-7.5" font-family="Helvetica,sans-Serif" font-size="10.00">W_HitPlotOpen</text>
</a>
</g>
</g>
<!-- Node2&#45;&gt;Node24 -->
<g id="edge27" class="edge"><title>Node2&#45;&gt;Node24</title>
<path fill="none" stroke="midnightblue" d="M167.143,-285.357C168.251,-246.938 177.613,-103.263 255,-29 259.115,-25.051 263.993,-21.9133 269.208,-19.4219"/>
<polygon fill="midnightblue" stroke="midnightblue" points="270.857,-22.5332 278.868,-15.5995 268.282,-16.0242 270.857,-22.5332"/>
</g>
<!-- Node9 -->
<g id="node9" class="node"><title>Node9</title>
<g id="a_node9"><a xlink:href="../../df/dd7/server_2client_8qc.html#aff186c20f705125efa07fdd452114768" target="_top" xlink:title="ClientData_Send">
<polygon fill="none" stroke="black" points="431,-342.5 431,-361.5 528,-361.5 528,-342.5 431,-342.5"/>
<text text-anchor="middle" x="479.5" y="-349.5" font-family="Helvetica,sans-Serif" font-size="10.00">ClientData_Send</text>
</a>
</g>
</g>
<!-- Node8&#45;&gt;Node9 -->
<g id="edge8" class="edge"><title>Node8&#45;&gt;Node9</title>
<path fill="none" stroke="midnightblue" d="M374.682,-352C389.37,-352 405.488,-352 420.552,-352"/>
<polygon fill="midnightblue" stroke="midnightblue" points="420.782,-355.5 430.782,-352 420.782,-348.5 420.782,-355.5"/>
</g>
<!-- Node11 -->
<g id="node11" class="node"><title>Node11</title>
<g id="a_node11"><a xlink:href="../../db/d9f/state_8qh.html#afdb90637f8a711359249291ee3b3fde6" target="_top" xlink:title="CS">
<polygon fill="none" stroke="black" points="603,-266.5 603,-285.5 633,-285.5 633,-266.5 603,-266.5"/>
<text text-anchor="middle" x="618" y="-273.5" font-family="Helvetica,sans-Serif" font-size="10.00">CS</text>
</a>
</g>
</g>
<!-- Node8&#45;&gt;Node11 -->
<g id="edge14" class="edge"><title>Node8&#45;&gt;Node11</title>
<path fill="none" stroke="midnightblue" d="M360.375,-342.452C421.463,-326.633 541.988,-295.424 593.141,-282.178"/>
<polygon fill="midnightblue" stroke="midnightblue" points="594.154,-285.531 602.957,-279.636 592.399,-278.755 594.154,-285.531"/>
</g>
<!-- Node10 -->
<g id="node10" class="node"><title>Node10</title>
<g id="a_node10"><a xlink:href="../../df/dd7/server_2client_8qc.html#a21041e5d38139f4b7da1e1eb951aba0d" target="_top" xlink:title="CountSpectators">
<polygon fill="none" stroke="black" points="569,-304.5 569,-323.5 667,-323.5 667,-304.5 569,-304.5"/>
<text text-anchor="middle" x="618" y="-311.5" font-family="Helvetica,sans-Serif" font-size="10.00">CountSpectators</text>
</a>
</g>
</g>
<!-- Node9&#45;&gt;Node10 -->
<g id="edge9" class="edge"><title>Node9&#45;&gt;Node10</title>
<path fill="none" stroke="midnightblue" d="M514.945,-342.411C532.485,-337.528 554.01,-331.536 572.763,-326.315"/>
<polygon fill="midnightblue" stroke="midnightblue" points="573.871,-329.64 582.566,-323.586 571.994,-322.896 573.871,-329.64"/>
</g>
<!-- Node9&#45;&gt;Node11 -->
<g id="edge10" class="edge"><title>Node9&#45;&gt;Node11</title>
<path fill="none" stroke="midnightblue" d="M505.654,-342.41C514.612,-338.508 524.563,-333.592 533,-328 551.091,-316.008 550.604,-306.519 569,-295 576.478,-290.318 585.302,-286.427 593.331,-283.412"/>
<polygon fill="midnightblue" stroke="midnightblue" points="594.628,-286.666 602.916,-280.066 592.321,-280.057 594.628,-286.666"/>
</g>
<!-- Node9&#45;&gt;Node12 -->
<g id="edge11" class="edge"><title>Node9&#45;&gt;Node12</title>
<path fill="none" stroke="midnightblue" d="M505.654,-361.59C514.612,-365.492 524.563,-370.408 533,-376 551.091,-387.992 550.604,-397.481 569,-409 574.256,-412.291 580.176,-415.191 586.019,-417.671"/>
<polygon fill="midnightblue" stroke="midnightblue" points="585.059,-421.053 595.647,-421.442 587.612,-414.536 585.059,-421.053"/>
</g>
<!-- Node13 -->
<g id="node13" class="node"><title>Node13</title>
<g id="a_node13"><a xlink:href="../../d8/de2/menudefs_8qc.html#abd23315350cd01304b6bd77c4c5c07e6" target="_top" xlink:title="WriteByte">
<polygon fill="none" stroke="black" points="587,-380.5 587,-399.5 649,-399.5 649,-380.5 587,-380.5"/>
<text text-anchor="middle" x="618" y="-387.5" font-family="Helvetica,sans-Serif" font-size="10.00">WriteByte</text>
</a>
</g>
</g>
<!-- Node9&#45;&gt;Node13 -->
<g id="edge12" class="edge"><title>Node9&#45;&gt;Node13</title>
<path fill="none" stroke="midnightblue" d="M514.945,-361.589C533.776,-366.831 557.201,-373.353 576.857,-378.825"/>
<polygon fill="midnightblue" stroke="midnightblue" points="576.176,-382.268 586.749,-381.578 578.054,-375.525 576.176,-382.268"/>
</g>
<!-- Node14 -->
<g id="node14" class="node"><title>Node14</title>
<g id="a_node14"><a xlink:href="../../df/dd7/server_2client_8qc.html#a199cb8defbbeacacf578f7c12b16004f" target="_top" xlink:title="WriteSpectators">
<polygon fill="none" stroke="black" points="572,-342.5 572,-361.5 664,-361.5 664,-342.5 572,-342.5"/>
<text text-anchor="middle" x="618" y="-349.5" font-family="Helvetica,sans-Serif" font-size="10.00">WriteSpectators</text>
</a>
</g>
</g>
<!-- Node9&#45;&gt;Node14 -->
<g id="edge13" class="edge"><title>Node9&#45;&gt;Node14</title>
<path fill="none" stroke="midnightblue" d="M528.241,-352C539.072,-352 550.662,-352 561.773,-352"/>
<polygon fill="midnightblue" stroke="midnightblue" points="561.808,-355.5 571.808,-352 561.808,-348.5 561.808,-355.5"/>
</g>
<!-- Node15&#45;&gt;Node11 -->
<g id="edge16" class="edge"><title>Node15&#45;&gt;Node11</title>
<path fill="none" stroke="midnightblue" d="M533.274,-276C553.633,-276 575.932,-276 592.394,-276"/>
<polygon fill="midnightblue" stroke="midnightblue" points="592.763,-279.5 602.763,-276 592.763,-272.5 592.763,-279.5"/>
</g>
<!-- Node16&#45;&gt;Node11 -->
<g id="edge18" class="edge"><title>Node16&#45;&gt;Node11</title>
<path fill="none" stroke="midnightblue" d="M365.149,-266.489C383.673,-262.724 405.815,-258.855 426,-257 473.356,-252.648 485.738,-251.722 533,-257 553.478,-259.287 576.251,-264.618 592.914,-269.053"/>
<polygon fill="midnightblue" stroke="midnightblue" points="592.326,-272.521 602.896,-271.797 594.181,-265.771 592.326,-272.521"/>
</g>
<!-- Node17 -->
<g id="node17" class="node"><title>Node17</title>
<g id="a_node17"><a xlink:href="../../d8/de2/menudefs_8qc.html#aebeeec7a2529f36483e14f76b1871271" target="_top" xlink:title="max">
<polygon fill="none" stroke="black" points="460.5,-190.5 460.5,-209.5 498.5,-209.5 498.5,-190.5 460.5,-190.5"/>
<text text-anchor="middle" x="479.5" y="-197.5" font-family="Helvetica,sans-Serif" font-size="10.00">max</text>
</a>
</g>
</g>
<!-- Node16&#45;&gt;Node17 -->
<g id="edge19" class="edge"><title>Node16&#45;&gt;Node17</title>
<path fill="none" stroke="midnightblue" d="M367.942,-266.417C375.55,-263.911 383.189,-260.811 390,-257 408.942,-246.402 407.909,-235.992 426,-224 433.685,-218.906 442.627,-214.374 450.93,-210.657"/>
<polygon fill="midnightblue" stroke="midnightblue" points="452.437,-213.819 460.269,-206.684 449.697,-207.378 452.437,-213.819"/>
</g>
</g>
</svg>
