<?xml version="1.0" encoding="UTF-8" standalone="no"?>
<!DOCTYPE svg PUBLIC "-//W3C//DTD SVG 1.1//EN"
 "http://www.w3.org/Graphics/SVG/1.1/DTD/svg11.dtd">
<!-- Generated by graphviz version 2.36.0 (20140111.2315)
 -->
<!-- Title: antilag_takeback Pages: 1 -->
<svg width="2050pt" height="230pt"
 viewBox="0.00 0.00 2050.00 230.00" xmlns="http://www.w3.org/2000/svg" xmlns:xlink="http://www.w3.org/1999/xlink">
<g id="graph0" class="graph" transform="scale(1 1) rotate(0) translate(4 226)">
<title>antilag_takeback</title>
<!-- Node1 -->
<g id="node1" class="node"><title>Node1</title>
<polygon fill="#bfbfbf" stroke="black" points="0,-38.5 0,-57.5 90,-57.5 90,-38.5 0,-38.5"/>
<text text-anchor="middle" x="45" y="-45.5" font-family="Helvetica,sans-Serif" font-size="10.00">antilag_takeback</text>
</g>
<!-- Node1&#45;&gt;Node1 -->
<g id="edge1" class="edge"><title>Node1&#45;&gt;Node1</title>
<path fill="none" stroke="midnightblue" d="M20.0745,-67.0292C21.4341,-72.128 29.7426,-76 45,-76 68.8164,-76 75.7008,-66.5653 65.6533,-57.7571"/>
<polygon fill="midnightblue" stroke="midnightblue" points="23.3407,-68.304 24.3467,-57.7571 16.9831,-65.3747 23.3407,-68.304"/>
</g>
<!-- Node2 -->
<g id="node2" class="node"><title>Node2</title>
<g id="a_node2"><a xlink:href="../../d0/dd2/antilag_8qh.html#a49f979cfa6c28c22aa67a1b903160407" target="_top" xlink:title="antilag_takeback_all">
<polygon fill="none" stroke="black" points="126.5,-76.5 126.5,-95.5 231.5,-95.5 231.5,-76.5 126.5,-76.5"/>
<text text-anchor="middle" x="179" y="-83.5" font-family="Helvetica,sans-Serif" font-size="10.00">antilag_takeback_all</text>
</a>
</g>
</g>
<!-- Node1&#45;&gt;Node2 -->
<g id="edge2" class="edge"><title>Node1&#45;&gt;Node2</title>
<path fill="none" stroke="midnightblue" d="M89.0409,-60.3906C107.118,-65.5945 127.819,-71.5541 144.701,-76.4141"/>
<polygon fill="midnightblue" stroke="midnightblue" points="89.8872,-56.9921 79.3092,-57.589 87.9506,-63.7189 89.8872,-56.9921"/>
</g>
<!-- Node24 -->
<g id="node24" class="node"><title>Node24</title>
<g id="a_node24"><a xlink:href="../../dc/d8b/hitplot_8qh.html#aa359fe907f8329debabde7dfeb217ff0" target="_top" xlink:title="W_HitPlotAnalysis">
<polygon fill="none" stroke="black" points="614.5,-0.5 614.5,-19.5 713.5,-19.5 713.5,-0.5 614.5,-0.5"/>
<text text-anchor="middle" x="664" y="-7.5" font-family="Helvetica,sans-Serif" font-size="10.00">W_HitPlotAnalysis</text>
</a>
</g>
</g>
<!-- Node1&#45;&gt;Node24 -->
<g id="edge37" class="edge"><title>Node1&#45;&gt;Node24</title>
<path fill="none" stroke="midnightblue" d="M100.706,-44.6307C219.822,-37.2946 501.038,-19.975 614.388,-12.9939"/>
<polygon fill="midnightblue" stroke="midnightblue" points="100.139,-41.1589 90.3731,-45.2671 100.569,-48.1457 100.139,-41.1589"/>
</g>
<!-- Node3 -->
<g id="node3" class="node"><title>Node3</title>
<g id="a_node3"><a xlink:href="../../d0/dd2/antilag_8qh.html#a16360420959782f6972ac30eec10327a" target="_top" xlink:title="tracebox_antilag_force_wz">
<polygon fill="none" stroke="black" points="268.5,-76.5 268.5,-95.5 401.5,-95.5 401.5,-76.5 268.5,-76.5"/>
<text text-anchor="middle" x="335" y="-83.5" font-family="Helvetica,sans-Serif" font-size="10.00">tracebox_antilag_force_wz</text>
</a>
</g>
</g>
<!-- Node2&#45;&gt;Node3 -->
<g id="edge3" class="edge"><title>Node2&#45;&gt;Node3</title>
<path fill="none" stroke="midnightblue" d="M241.844,-86C250.609,-86 259.648,-86 268.48,-86"/>
<polygon fill="midnightblue" stroke="midnightblue" points="241.708,-82.5001 231.708,-86 241.708,-89.5001 241.708,-82.5001"/>
</g>
<!-- Node33 -->
<g id="node33" class="node"><title>Node33</title>
<g id="a_node33"><a xlink:href="../../d4/d3f/tracing_8qh.html#a9b83ae72305e6981aae3a78f1f75a13d" target="_top" xlink:title="fireBullet">
<polygon fill="none" stroke="black" points="307.5,-114.5 307.5,-133.5 362.5,-133.5 362.5,-114.5 307.5,-114.5"/>
<text text-anchor="middle" x="335" y="-121.5" font-family="Helvetica,sans-Serif" font-size="10.00">fireBullet</text>
</a>
</g>
</g>
<!-- Node2&#45;&gt;Node33 -->
<g id="edge36" class="edge"><title>Node2&#45;&gt;Node33</title>
<path fill="none" stroke="midnightblue" d="M228.899,-98.066C254.846,-104.468 285.726,-112.088 307.274,-117.405"/>
<polygon fill="midnightblue" stroke="midnightblue" points="229.408,-94.5867 218.861,-95.589 227.731,-101.383 229.408,-94.5867"/>
</g>
<!-- Node4 -->
<g id="node4" class="node"><title>Node4</title>
<g id="a_node4"><a xlink:href="../../d0/dd2/antilag_8qh.html#ae2572b5fa7a3e76a4ff54cd41a55cf04" target="_top" xlink:title="traceline_antilag_force">
<polygon fill="none" stroke="black" points="450,-114.5 450,-133.5 564,-133.5 564,-114.5 450,-114.5"/>
<text text-anchor="middle" x="507" y="-121.5" font-family="Helvetica,sans-Serif" font-size="10.00">traceline_antilag_force</text>
</a>
</g>
</g>
<!-- Node3&#45;&gt;Node4 -->
<g id="edge4" class="edge"><title>Node3&#45;&gt;Node4</title>
<path fill="none" stroke="midnightblue" d="M388.898,-97.8243C412.865,-103.182 440.824,-109.431 463.41,-114.48"/>
<polygon fill="midnightblue" stroke="midnightblue" points="389.421,-94.3548 378.898,-95.589 387.894,-101.186 389.421,-94.3548"/>
</g>
<!-- Node26 -->
<g id="node26" class="node"><title>Node26</title>
<g id="a_node26"><a xlink:href="../../d0/dd2/antilag_8qh.html#a098ba0cc6ccdbc147f0bf68b30238cc5" target="_top" xlink:title="tracebox_antilag">
<polygon fill="none" stroke="black" points="620,-38.5 620,-57.5 708,-57.5 708,-38.5 620,-38.5"/>
<text text-anchor="middle" x="664" y="-45.5" font-family="Helvetica,sans-Serif" font-size="10.00">tracebox_antilag</text>
</a>
</g>
</g>
<!-- Node3&#45;&gt;Node26 -->
<g id="edge27" class="edge"><title>Node3&#45;&gt;Node26</title>
<path fill="none" stroke="midnightblue" d="M391.904,-74.5455C406.833,-71.7722 422.988,-69.0268 438,-67 500.935,-58.5027 574.32,-53.1512 619.726,-50.3669"/>
<polygon fill="midnightblue" stroke="midnightblue" points="390.968,-71.1606 381.795,-76.4614 392.272,-78.0382 390.968,-71.1606"/>
</g>
<!-- Node27 -->
<g id="node27" class="node"><title>Node27</title>
<g id="a_node27"><a xlink:href="../../d0/dd2/antilag_8qh.html#ad351eda3d83e3ac892325b85272f5f1b" target="_top" xlink:title="WarpZone_traceline\l_antilag_force">
<polygon fill="none" stroke="black" points="455,-153 455,-183 559,-183 559,-153 455,-153"/>
<text text-anchor="start" x="463" y="-171" font-family="Helvetica,sans-Serif" font-size="10.00">WarpZone_traceline</text>
<text text-anchor="middle" x="507" y="-160" font-family="Helvetica,sans-Serif" font-size="10.00">_antilag_force</text>
</a>
</g>
</g>
<!-- Node3&#45;&gt;Node27 -->
<g id="edge29" class="edge"><title>Node3&#45;&gt;Node27</title>
<path fill="none" stroke="midnightblue" d="M390.706,-99.2021C394.637,-100.915 398.447,-102.839 402,-105 421.878,-117.088 418.57,-130.205 438,-143 443.673,-146.736 449.978,-150.008 456.396,-152.846"/>
<polygon fill="midnightblue" stroke="midnightblue" points="391.968,-95.9375 381.379,-95.5789 389.433,-102.462 391.968,-95.9375"/>
</g>
<!-- Node32 -->
<g id="node32" class="node"><title>Node32</title>
<g id="a_node32"><a xlink:href="../../d0/dd2/antilag_8qh.html#a9cacf5619ae2d9d345af6f30d59cc9c8" target="_top" xlink:title="WarpZone_tracebox_antilag">
<polygon fill="none" stroke="black" points="438,-76.5 438,-95.5 576,-95.5 576,-76.5 438,-76.5"/>
<text text-anchor="middle" x="507" y="-83.5" font-family="Helvetica,sans-Serif" font-size="10.00">WarpZone_tracebox_antilag</text>
</a>
</g>
</g>
<!-- Node3&#45;&gt;Node32 -->
<g id="edge35" class="edge"><title>Node3&#45;&gt;Node32</title>
<path fill="none" stroke="midnightblue" d="M411.842,-86C420.528,-86 429.343,-86 437.919,-86"/>
<polygon fill="midnightblue" stroke="midnightblue" points="411.726,-82.5001 401.726,-86 411.726,-89.5001 411.726,-82.5001"/>
</g>
<!-- Node5 -->
<g id="node5" class="node"><title>Node5</title>
<g id="a_node5"><a xlink:href="../../dc/d73/server_2miscfunctions_8qh.html#a5edf83b72581bc3ed7f4b512f534fbfe" target="_top" xlink:title="traceline_antilag">
<polygon fill="none" stroke="black" points="620.5,-114.5 620.5,-133.5 707.5,-133.5 707.5,-114.5 620.5,-114.5"/>
<text text-anchor="middle" x="664" y="-121.5" font-family="Helvetica,sans-Serif" font-size="10.00">traceline_antilag</text>
</a>
</g>
</g>
<!-- Node4&#45;&gt;Node5 -->
<g id="edge5" class="edge"><title>Node4&#45;&gt;Node5</title>
<path fill="none" stroke="midnightblue" d="M574.524,-124C590.108,-124 606.297,-124 620.5,-124"/>
<polygon fill="midnightblue" stroke="midnightblue" points="574.397,-120.5 564.397,-124 574.397,-127.5 574.397,-120.5"/>
</g>
<!-- Node4&#45;&gt;Node24 -->
<g id="edge24" class="edge"><title>Node4&#45;&gt;Node24</title>
<path fill="none" stroke="midnightblue" d="M569.589,-109.643C571.842,-108.237 573.991,-106.694 576,-105 604.576,-80.9093 584.463,-54.2714 612,-29 616.177,-25.1668 621.197,-22.0867 626.437,-19.6173"/>
<polygon fill="midnightblue" stroke="midnightblue" points="567.709,-106.677 560.473,-114.415 570.955,-112.879 567.709,-106.677"/>
</g>
<!-- Node25 -->
<g id="node25" class="node"><title>Node25</title>
<g id="a_node25"><a xlink:href="../../d4/d3f/tracing_8qh.html#a52cf4ee852e785e8283028712ce0a57f" target="_top" xlink:title="W_SetupShot_Dir_Projectile\lSize_Range">
<polygon fill="none" stroke="black" points="752.5,-49 752.5,-79 893.5,-79 893.5,-49 752.5,-49"/>
<text text-anchor="start" x="760.5" y="-67" font-family="Helvetica,sans-Serif" font-size="10.00">W_SetupShot_Dir_Projectile</text>
<text text-anchor="middle" x="823" y="-56" font-family="Helvetica,sans-Serif" font-size="10.00">Size_Range</text>
</a>
</g>
</g>
<!-- Node4&#45;&gt;Node25 -->
<g id="edge26" class="edge"><title>Node4&#45;&gt;Node25</title>
<path fill="none" stroke="midnightblue" d="M567.612,-112.609C620.214,-102.558 696.922,-87.9002 752.338,-77.3111"/>
<polygon fill="midnightblue" stroke="midnightblue" points="566.92,-109.178 557.754,-114.493 568.233,-116.054 566.92,-109.178"/>
</g>
<!-- Node6 -->
<g id="node6" class="node"><title>Node6</title>
<g id="a_node6"><a xlink:href="../../dc/d73/server_2miscfunctions_8qh.html#a8292725ec840a49d42ef6453aaf838f6" target="_top" xlink:title="crosshair_trace">
<polygon fill="none" stroke="black" points="781.5,-114.5 781.5,-133.5 864.5,-133.5 864.5,-114.5 781.5,-114.5"/>
<text text-anchor="middle" x="823" y="-121.5" font-family="Helvetica,sans-Serif" font-size="10.00">crosshair_trace</text>
</a>
</g>
</g>
<!-- Node5&#45;&gt;Node6 -->
<g id="edge6" class="edge"><title>Node5&#45;&gt;Node6</title>
<path fill="none" stroke="midnightblue" d="M718.11,-124C738.759,-124 762.035,-124 781.313,-124"/>
<polygon fill="midnightblue" stroke="midnightblue" points="717.901,-120.5 707.901,-124 717.901,-127.5 717.901,-120.5"/>
</g>
<!-- Node7 -->
<g id="node7" class="node"><title>Node7</title>
<g id="a_node7"><a xlink:href="../../d3/dca/cheats_8qh.html#a1549477544784a0c7e5134dbd72b3a28" target="_top" xlink:title="CheatCommand">
<polygon fill="none" stroke="black" points="930,-114.5 930,-133.5 1018,-133.5 1018,-114.5 930,-114.5"/>
<text text-anchor="middle" x="974" y="-121.5" font-family="Helvetica,sans-Serif" font-size="10.00">CheatCommand</text>
</a>
</g>
</g>
<!-- Node6&#45;&gt;Node7 -->
<g id="edge7" class="edge"><title>Node6&#45;&gt;Node7</title>
<path fill="none" stroke="midnightblue" d="M874.735,-124C892.702,-124 912.728,-124 929.991,-124"/>
<polygon fill="midnightblue" stroke="midnightblue" points="874.715,-120.5 864.715,-124 874.715,-127.5 874.715,-120.5"/>
</g>
<!-- Node8 -->
<g id="node8" class="node"><title>Node8</title>
<g id="a_node8"><a xlink:href="../../d3/dca/cheats_8qh.html#a73c94da2bf38acf3536154e899458024" target="_top" xlink:title="CheatImpulse">
<polygon fill="none" stroke="black" points="1081.5,-133.5 1081.5,-152.5 1158.5,-152.5 1158.5,-133.5 1081.5,-133.5"/>
<text text-anchor="middle" x="1120" y="-140.5" font-family="Helvetica,sans-Serif" font-size="10.00">CheatImpulse</text>
</a>
</g>
</g>
<!-- Node7&#45;&gt;Node8 -->
<g id="edge8" class="edge"><title>Node7&#45;&gt;Node8</title>
<path fill="none" stroke="midnightblue" d="M1028.33,-131.036C1045.89,-133.353 1065.04,-135.88 1081.2,-138.012"/>
<polygon fill="midnightblue" stroke="midnightblue" points="1028.58,-127.539 1018.2,-129.701 1027.66,-134.479 1028.58,-127.539"/>
</g>
<!-- Node17 -->
<g id="node17" class="node"><title>Node17</title>
<g id="a_node17"><a xlink:href="../../d8/d1d/cmd_8qc.html#a67c2dd926692b0635c83bcef05983b3b" target="_top" xlink:title="SV_ParseClientCommand">
<polygon fill="none" stroke="black" points="1054.5,-95.5 1054.5,-114.5 1185.5,-114.5 1185.5,-95.5 1054.5,-95.5"/>
<text text-anchor="middle" x="1120" y="-102.5" font-family="Helvetica,sans-Serif" font-size="10.00">SV_ParseClientCommand</text>
</a>
</g>
</g>
<!-- Node7&#45;&gt;Node17 -->
<g id="edge17" class="edge"><title>Node7&#45;&gt;Node17</title>
<path fill="none" stroke="midnightblue" d="M1028.3,-116.967C1036.75,-115.852 1045.58,-114.688 1054.26,-113.542"/>
<polygon fill="midnightblue" stroke="midnightblue" points="1027.66,-113.521 1018.2,-118.299 1028.58,-120.461 1027.66,-113.521"/>
</g>
<!-- Node9 -->
<g id="node9" class="node"><title>Node9</title>
<g id="a_node9"><a xlink:href="../../d3/dd1/server_2impulse_8qh.html#a592fd33e424a2e05854957b679c37e1b" target="_top" xlink:title="ImpulseCommands">
<polygon fill="none" stroke="black" points="1222.5,-133.5 1222.5,-152.5 1323.5,-152.5 1323.5,-133.5 1222.5,-133.5"/>
<text text-anchor="middle" x="1273" y="-140.5" font-family="Helvetica,sans-Serif" font-size="10.00">ImpulseCommands</text>
</a>
</g>
</g>
<!-- Node8&#45;&gt;Node9 -->
<g id="edge9" class="edge"><title>Node8&#45;&gt;Node9</title>
<path fill="none" stroke="midnightblue" d="M1168.98,-143C1185.96,-143 1205.11,-143 1222.24,-143"/>
<polygon fill="midnightblue" stroke="midnightblue" points="1168.71,-139.5 1158.71,-143 1168.71,-146.5 1168.71,-139.5"/>
</g>
<!-- Node10 -->
<g id="node10" class="node"><title>Node10</title>
<g id="a_node10"><a xlink:href="../../dd/d0c/sv__ctf_8qc.html#a8edcce745140a0191b957e969f8a2cfb" target="_top" xlink:title="ctf_FlagThink">
<polygon fill="none" stroke="black" points="1397,-181.5 1397,-200.5 1473,-200.5 1473,-181.5 1397,-181.5"/>
<text text-anchor="middle" x="1435" y="-188.5" font-family="Helvetica,sans-Serif" font-size="10.00">ctf_FlagThink</text>
</a>
</g>
</g>
<!-- Node9&#45;&gt;Node10 -->
<g id="edge10" class="edge"><title>Node9&#45;&gt;Node10</title>
<path fill="none" stroke="midnightblue" d="M1310.17,-155.86C1325.47,-161.124 1343.52,-167.113 1360,-172 1371.95,-175.545 1385.11,-179.048 1396.97,-182.062"/>
<polygon fill="midnightblue" stroke="midnightblue" points="1311.16,-152.498 1300.57,-152.525 1308.87,-159.111 1311.16,-152.498"/>
</g>
<!-- Node13 -->
<g id="node13" class="node"><title>Node13</title>
<g id="a_node13"><a xlink:href="../../df/dd7/server_2client_8qc.html#a35da2ff46a7d16ee6dd935fc1e65a72c" target="_top" xlink:title="PlayerPostThink">
<polygon fill="none" stroke="black" points="1390.5,-143.5 1390.5,-162.5 1479.5,-162.5 1479.5,-143.5 1390.5,-143.5"/>
<text text-anchor="middle" x="1435" y="-150.5" font-family="Helvetica,sans-Serif" font-size="10.00">PlayerPostThink</text>
</a>
</g>
</g>
<!-- Node9&#45;&gt;Node13 -->
<g id="edge13" class="edge"><title>Node9&#45;&gt;Node13</title>
<path fill="none" stroke="midnightblue" d="M1333.94,-146.746C1352.63,-147.914 1372.88,-149.18 1390.24,-150.265"/>
<polygon fill="midnightblue" stroke="midnightblue" points="1333.95,-143.24 1323.75,-146.109 1333.51,-150.226 1333.95,-143.24"/>
</g>
<!-- Node15 -->
<g id="node15" class="node"><title>Node15</title>
<g id="a_node15"><a xlink:href="../../df/dd7/server_2client_8qc.html#a996803179cd9557a7b4d806d08cc74f3" target="_top" xlink:title="PutPlayerInServer">
<polygon fill="none" stroke="black" points="1387,-105.5 1387,-124.5 1483,-124.5 1483,-105.5 1387,-105.5"/>
<text text-anchor="middle" x="1435" y="-112.5" font-family="Helvetica,sans-Serif" font-size="10.00">PutPlayerInServer</text>
</a>
</g>
</g>
<!-- Node9&#45;&gt;Node15 -->
<g id="edge15" class="edge"><title>Node9&#45;&gt;Node15</title>
<path fill="none" stroke="midnightblue" d="M1333.85,-132.526C1351.32,-129.469 1370.17,-126.171 1386.74,-123.27"/>
<polygon fill="midnightblue" stroke="midnightblue" points="1332.99,-129.123 1323.75,-134.294 1334.2,-136.018 1332.99,-129.123"/>
</g>
<!-- Node11 -->
<g id="node11" class="node"><title>Node11</title>
<g id="a_node11"><a xlink:href="../../dd/d0c/sv__ctf_8qc.html#ae4da0b9f3b47d57388ba498d2baed651" target="_top" xlink:title="ctf_FlagSetup">
<polygon fill="none" stroke="black" points="1569.5,-181.5 1569.5,-200.5 1646.5,-200.5 1646.5,-181.5 1569.5,-181.5"/>
<text text-anchor="middle" x="1608" y="-188.5" font-family="Helvetica,sans-Serif" font-size="10.00">ctf_FlagSetup</text>
</a>
</g>
</g>
<!-- Node10&#45;&gt;Node11 -->
<g id="edge11" class="edge"><title>Node10&#45;&gt;Node11</title>
<path fill="none" stroke="midnightblue" d="M1483.17,-191C1510.33,-191 1544,-191 1569.38,-191"/>
<polygon fill="midnightblue" stroke="midnightblue" points="1483.1,-187.5 1473.1,-191 1483.1,-194.5 1483.1,-187.5"/>
</g>
<!-- Node12 -->
<g id="node12" class="node"><title>Node12</title>
<g id="a_node12"><a xlink:href="../../dd/d0c/sv__ctf_8qc.html#a2a2129ef74628a0c8bef5d48a016e3e0" target="_top" xlink:title="spawnfunc">
<polygon fill="none" stroke="black" points="1709,-181.5 1709,-200.5 1773,-200.5 1773,-181.5 1709,-181.5"/>
<text text-anchor="middle" x="1741" y="-188.5" font-family="Helvetica,sans-Serif" font-size="10.00">spawnfunc</text>
</a>
</g>
</g>
<!-- Node11&#45;&gt;Node12 -->
<g id="edge12" class="edge"><title>Node11&#45;&gt;Node12</title>
<path fill="none" stroke="midnightblue" d="M1656.99,-191C1674.22,-191 1693.2,-191 1708.65,-191"/>
<polygon fill="midnightblue" stroke="midnightblue" points="1656.54,-187.5 1646.54,-191 1656.54,-194.5 1656.54,-187.5"/>
</g>
<!-- Node14 -->
<g id="node14" class="node"><title>Node14</title>
<g id="a_node14"><a xlink:href="../../d3/d4f/sv__main_8qc.html#a554af7e2ac58045168dad9eca30bc8b1" target="_top" xlink:title="StartFrame">
<polygon fill="none" stroke="black" points="1575.5,-143.5 1575.5,-162.5 1640.5,-162.5 1640.5,-143.5 1575.5,-143.5"/>
<text text-anchor="middle" x="1608" y="-150.5" font-family="Helvetica,sans-Serif" font-size="10.00">StartFrame</text>
</a>
</g>
</g>
<!-- Node13&#45;&gt;Node14 -->
<g id="edge14" class="edge"><title>Node13&#45;&gt;Node14</title>
<path fill="none" stroke="midnightblue" d="M1489.7,-153C1517.85,-153 1551.38,-153 1575.36,-153"/>
<polygon fill="midnightblue" stroke="midnightblue" points="1489.59,-149.5 1479.59,-153 1489.59,-156.5 1489.59,-149.5"/>
</g>
<!-- Node16 -->
<g id="node16" class="node"><title>Node16</title>
<g id="a_node16"><a xlink:href="../../df/dd7/server_2client_8qc.html#ac8cee1fb565123245189b49f1ab94951" target="_top" xlink:title="Called when a client spawns in the server. ">
<polygon fill="none" stroke="black" points="1561,-105.5 1561,-124.5 1655,-124.5 1655,-105.5 1561,-105.5"/>
<text text-anchor="middle" x="1608" y="-112.5" font-family="Helvetica,sans-Serif" font-size="10.00">PutClientInServer</text>
</a>
</g>
</g>
<!-- Node15&#45;&gt;Node16 -->
<g id="edge16" class="edge"><title>Node15&#45;&gt;Node16</title>
<path fill="none" stroke="midnightblue" d="M1493.38,-115C1515.34,-115 1540.08,-115 1560.86,-115"/>
<polygon fill="midnightblue" stroke="midnightblue" points="1493.18,-111.5 1483.18,-115 1493.18,-118.5 1493.18,-111.5"/>
</g>
<!-- Node18 -->
<g id="node18" class="node"><title>Node18</title>
<g id="a_node18"><a xlink:href="../../d6/d27/scripting_8qc.html#a9337e576a1412382ff54132dd8d46b28" target="_top" xlink:title="bot_cmd_cc">
<polygon fill="none" stroke="black" points="1238,-76.5 1238,-95.5 1308,-95.5 1308,-76.5 1238,-76.5"/>
<text text-anchor="middle" x="1273" y="-83.5" font-family="Helvetica,sans-Serif" font-size="10.00">bot_cmd_cc</text>
</a>
</g>
</g>
<!-- Node17&#45;&gt;Node18 -->
<g id="edge18" class="edge"><title>Node17&#45;&gt;Node18</title>
<path fill="none" stroke="midnightblue" d="M1196.04,-95.5574C1210.72,-93.7107 1225.42,-91.861 1237.92,-90.2877"/>
<polygon fill="midnightblue" stroke="midnightblue" points="1195.4,-92.1109 1185.91,-96.832 1196.27,-99.0561 1195.4,-92.1109"/>
</g>
<!-- Node19 -->
<g id="node19" class="node"><title>Node19</title>
<g id="a_node19"><a xlink:href="../../d6/d27/scripting_8qc.html#aaca537ca751853fba4204c751942df21" target="_top" xlink:title="bot_execute_commands_once">
<polygon fill="none" stroke="black" points="1360.5,-67.5 1360.5,-86.5 1509.5,-86.5 1509.5,-67.5 1360.5,-67.5"/>
<text text-anchor="middle" x="1435" y="-74.5" font-family="Helvetica,sans-Serif" font-size="10.00">bot_execute_commands_once</text>
</a>
</g>
</g>
<!-- Node18&#45;&gt;Node19 -->
<g id="edge19" class="edge"><title>Node18&#45;&gt;Node19</title>
<path fill="none" stroke="midnightblue" d="M1318.38,-83.5037C1331.38,-82.7723 1345.96,-81.9521 1360.27,-81.1471"/>
<polygon fill="midnightblue" stroke="midnightblue" points="1318.11,-80.0131 1308.32,-84.0693 1318.5,-87.002 1318.11,-80.0131"/>
</g>
<!-- Node20 -->
<g id="node20" class="node"><title>Node20</title>
<g id="a_node20"><a xlink:href="../../d8/d14/scripting_8qh.html#abad1d3e4714ca1832aab73ee2b8862ea" target="_top" xlink:title="bot_execute_commands">
<polygon fill="none" stroke="black" points="1546.5,-67.5 1546.5,-86.5 1669.5,-86.5 1669.5,-67.5 1546.5,-67.5"/>
<text text-anchor="middle" x="1608" y="-74.5" font-family="Helvetica,sans-Serif" font-size="10.00">bot_execute_commands</text>
</a>
</g>
</g>
<!-- Node19&#45;&gt;Node20 -->
<g id="edge20" class="edge"><title>Node19&#45;&gt;Node20</title>
<path fill="none" stroke="midnightblue" d="M1519.67,-77C1528.69,-77 1537.74,-77 1546.41,-77"/>
<polygon fill="midnightblue" stroke="midnightblue" points="1519.51,-73.5001 1509.51,-77 1519.51,-80.5001 1519.51,-73.5001"/>
</g>
<!-- Node21 -->
<g id="node21" class="node"><title>Node21</title>
<g id="a_node21"><a xlink:href="../../d8/d39/havocbot_8qh.html#ade0b4e09f77eaadd022af3ee44c6a3fc" target="_top" xlink:title="havocbot_ai">
<polygon fill="none" stroke="black" points="1706.5,-67.5 1706.5,-86.5 1775.5,-86.5 1775.5,-67.5 1706.5,-67.5"/>
<text text-anchor="middle" x="1741" y="-74.5" font-family="Helvetica,sans-Serif" font-size="10.00">havocbot_ai</text>
</a>
</g>
</g>
<!-- Node20&#45;&gt;Node21 -->
<g id="edge21" class="edge"><title>Node20&#45;&gt;Node21</title>
<path fill="none" stroke="midnightblue" d="M1679.58,-77C1688.83,-77 1697.95,-77 1706.19,-77"/>
<polygon fill="midnightblue" stroke="midnightblue" points="1679.52,-73.5001 1669.52,-77 1679.51,-80.5001 1679.52,-73.5001"/>
</g>
<!-- Node22 -->
<g id="node22" class="node"><title>Node22</title>
<g id="a_node22"><a xlink:href="../../d8/d39/havocbot_8qh.html#afb882bcf6c4a44e801e4fb9eafbbf1f4" target="_top" xlink:title="havocbot_setupbot">
<polygon fill="none" stroke="black" points="1812.5,-67.5 1812.5,-86.5 1911.5,-86.5 1911.5,-67.5 1812.5,-67.5"/>
<text text-anchor="middle" x="1862" y="-74.5" font-family="Helvetica,sans-Serif" font-size="10.00">havocbot_setupbot</text>
</a>
</g>
</g>
<!-- Node21&#45;&gt;Node22 -->
<g id="edge22" class="edge"><title>Node21&#45;&gt;Node22</title>
<path fill="none" stroke="midnightblue" d="M1786.01,-77C1794.63,-77 1803.72,-77 1812.47,-77"/>
<polygon fill="midnightblue" stroke="midnightblue" points="1785.78,-73.5001 1775.78,-77 1785.78,-80.5001 1785.78,-73.5001"/>
</g>
<!-- Node23 -->
<g id="node23" class="node"><title>Node23</title>
<g id="a_node23"><a xlink:href="../../d1/da9/bot_8qh.html#abd19370e4d61d3549dbbe44826531536" target="_top" xlink:title="bot_clientconnect">
<polygon fill="none" stroke="black" points="1948.5,-67.5 1948.5,-86.5 2041.5,-86.5 2041.5,-67.5 1948.5,-67.5"/>
<text text-anchor="middle" x="1995" y="-74.5" font-family="Helvetica,sans-Serif" font-size="10.00">bot_clientconnect</text>
</a>
</g>
</g>
<!-- Node22&#45;&gt;Node23 -->
<g id="edge23" class="edge"><title>Node22&#45;&gt;Node23</title>
<path fill="none" stroke="midnightblue" d="M1922,-77C1930.79,-77 1939.75,-77 1948.22,-77"/>
<polygon fill="midnightblue" stroke="midnightblue" points="1921.78,-73.5001 1911.78,-77 1921.78,-80.5001 1921.78,-73.5001"/>
</g>
<!-- Node24&#45;&gt;Node25 -->
<g id="edge25" class="edge"><title>Node24&#45;&gt;Node25</title>
<path fill="none" stroke="midnightblue" d="M702.365,-22.8517C725.161,-30.6922 754.406,-40.7512 778.276,-48.9611"/>
<polygon fill="midnightblue" stroke="midnightblue" points="703.302,-19.4727 692.707,-19.5298 701.025,-26.0921 703.302,-19.4727"/>
</g>
<!-- Node26&#45;&gt;Node25 -->
<g id="edge28" class="edge"><title>Node26&#45;&gt;Node25</title>
<path fill="none" stroke="midnightblue" d="M718.49,-53.4512C729.363,-54.5593 740.95,-55.7401 752.289,-56.8957"/>
<polygon fill="midnightblue" stroke="midnightblue" points="718.62,-49.9464 708.317,-52.4144 717.91,-56.9103 718.62,-49.9464"/>
</g>
<!-- Node28 -->
<g id="node28" class="node"><title>Node28</title>
<g id="a_node28"><a xlink:href="../../dc/d73/server_2miscfunctions_8qh.html#aa349f780b5d2d608e278935b6e4c60db" target="_top" xlink:title="WarpZone_traceline\l_antilag">
<polygon fill="none" stroke="black" points="612,-153 612,-183 716,-183 716,-153 612,-153"/>
<text text-anchor="start" x="620" y="-171" font-family="Helvetica,sans-Serif" font-size="10.00">WarpZone_traceline</text>
<text text-anchor="middle" x="664" y="-160" font-family="Helvetica,sans-Serif" font-size="10.00">_antilag</text>
</a>
</g>
</g>
<!-- Node27&#45;&gt;Node28 -->
<g id="edge30" class="edge"><title>Node27&#45;&gt;Node28</title>
<path fill="none" stroke="midnightblue" d="M569.292,-168C583.396,-168 598.251,-168 611.871,-168"/>
<polygon fill="midnightblue" stroke="midnightblue" points="569.182,-164.5 559.182,-168 569.182,-171.5 569.182,-164.5"/>
</g>
<!-- Node28&#45;&gt;Node25 -->
<g id="edge32" class="edge"><title>Node28&#45;&gt;Node25</title>
<path fill="none" stroke="midnightblue" d="M708.735,-147.896C711.25,-146.332 713.691,-144.698 716,-143 734.742,-129.217 733.781,-119.468 752,-105 764.353,-95.1906 779.295,-86.1167 792.197,-79.0124"/>
<polygon fill="midnightblue" stroke="midnightblue" points="706.911,-144.907 699.989,-152.929 710.402,-150.974 706.911,-144.907"/>
</g>
<!-- Node29 -->
<g id="node29" class="node"><title>Node29</title>
<g id="a_node29"><a xlink:href="../../d4/d3f/tracing_8qh.html#a87e5fe4c23732ae4ad1facb488e243ce" target="_top" xlink:title="FireRailgunBullet">
<polygon fill="none" stroke="black" points="777.5,-202.5 777.5,-221.5 868.5,-221.5 868.5,-202.5 777.5,-202.5"/>
<text text-anchor="middle" x="823" y="-209.5" font-family="Helvetica,sans-Serif" font-size="10.00">FireRailgunBullet</text>
</a>
</g>
</g>
<!-- Node28&#45;&gt;Node29 -->
<g id="edge31" class="edge"><title>Node28&#45;&gt;Node29</title>
<path fill="none" stroke="midnightblue" d="M726.198,-185.151C747.132,-191.018 769.794,-197.369 787.818,-202.42"/>
<polygon fill="midnightblue" stroke="midnightblue" points="726.981,-181.736 716.408,-182.407 725.092,-188.476 726.981,-181.736"/>
</g>
<!-- Node30 -->
<g id="node30" class="node"><title>Node30</title>
<g id="a_node30"><a xlink:href="../../dc/d73/server_2miscfunctions_8qh.html#ae60e63a20482389086630191d5d8d336" target="_top" xlink:title="WarpZone_crosshair\l_trace">
<polygon fill="none" stroke="black" points="769.5,-153 769.5,-183 876.5,-183 876.5,-153 769.5,-153"/>
<text text-anchor="start" x="777.5" y="-171" font-family="Helvetica,sans-Serif" font-size="10.00">WarpZone_crosshair</text>
<text text-anchor="middle" x="823" y="-160" font-family="Helvetica,sans-Serif" font-size="10.00">_trace</text>
</a>
</g>
</g>
<!-- Node28&#45;&gt;Node30 -->
<g id="edge33" class="edge"><title>Node28&#45;&gt;Node30</title>
<path fill="none" stroke="midnightblue" d="M726.556,-168C740.72,-168 755.657,-168 769.401,-168"/>
<polygon fill="midnightblue" stroke="midnightblue" points="726.408,-164.5 716.408,-168 726.408,-171.5 726.408,-164.5"/>
</g>
<!-- Node31 -->
<g id="node31" class="node"><title>Node31</title>
<g id="a_node31"><a xlink:href="../../d4/d53/server_2impulse_8qc.html#a27f0ad82125c1eaf612f245357ac704a" target="_top" xlink:title="IMPULSE">
<polygon fill="none" stroke="black" points="943.5,-158.5 943.5,-177.5 1004.5,-177.5 1004.5,-158.5 943.5,-158.5"/>
<text text-anchor="middle" x="974" y="-165.5" font-family="Helvetica,sans-Serif" font-size="10.00">IMPULSE</text>
</a>
</g>
</g>
<!-- Node30&#45;&gt;Node31 -->
<g id="edge34" class="edge"><title>Node30&#45;&gt;Node31</title>
<path fill="none" stroke="midnightblue" d="M886.694,-168C906.382,-168 927.198,-168 943.454,-168"/>
<polygon fill="midnightblue" stroke="midnightblue" points="886.532,-164.5 876.532,-168 886.532,-171.5 886.532,-164.5"/>
</g>
</g>
</svg>
