<?xml version="1.0" encoding="UTF-8" standalone="no"?>
<!DOCTYPE svg PUBLIC "-//W3C//DTD SVG 1.1//EN"
 "http://www.w3.org/Graphics/SVG/1.1/DTD/svg11.dtd">
<!-- Generated by graphviz version 2.38.0 (20140413.2041)
 -->
<!-- Title: Teleport_Find Pages: 1 -->
<svg width="602pt" height="66pt"
 viewBox="0.00 0.00 602.00 66.00" xmlns="http://www.w3.org/2000/svg" xmlns:xlink="http://www.w3.org/1999/xlink">
<g id="graph0" class="graph" transform="scale(1 1) rotate(0) translate(4 62)">
<title>Teleport_Find</title>
<!-- Node1 -->
<g id="node1" class="node"><title>Node1</title>
<polygon fill="#bfbfbf" stroke="black" points="0,-19.5 0,-38.5 78,-38.5 78,-19.5 0,-19.5"/>
<text text-anchor="middle" x="39" y="-26.5" font-family="Helvetica,sans-Serif" font-size="10.00">Teleport_Find</text>
</g>
<!-- Node2 -->
<g id="node2" class="node"><title>Node2</title>
<g id="a_node2"><a xlink:href="../../d1/d6a/lib_2warpzone_2common_8qc.html#a1b87d3cc5d237220e1d7def92aca4632" target="_top" xlink:title="WarpZoneLib_BoxTouchesBrush">
<polygon fill="none" stroke="black" points="114,-19.5 114,-38.5 282,-38.5 282,-19.5 114,-19.5"/>
<text text-anchor="middle" x="198" y="-26.5" font-family="Helvetica,sans-Serif" font-size="10.00">WarpZoneLib_BoxTouchesBrush</text>
</a>
</g>
</g>
<!-- Node1&#45;&gt;Node2 -->
<g id="edge1" class="edge"><title>Node1&#45;&gt;Node2</title>
<path fill="none" stroke="midnightblue" d="M78.0053,-29C85.9177,-29 94.5859,-29 103.523,-29"/>
<polygon fill="midnightblue" stroke="midnightblue" points="103.702,-32.5001 113.702,-29 103.702,-25.5001 103.702,-32.5001"/>
</g>
<!-- Node3 -->
<g id="node3" class="node"><title>Node3</title>
<g id="a_node3"><a xlink:href="../../d1/d6a/lib_2warpzone_2common_8qc.html#a4a0631162e93630a6ea1d1f7b7b33329" target="_top" xlink:title="WarpZoneLib_BoxTouchesBrush\l_Recurse">
<polygon fill="none" stroke="black" points="318,-14 318,-44 486,-44 486,-14 318,-14"/>
<text text-anchor="start" x="326" y="-32" font-family="Helvetica,sans-Serif" font-size="10.00">WarpZoneLib_BoxTouchesBrush</text>
<text text-anchor="middle" x="402" y="-21" font-family="Helvetica,sans-Serif" font-size="10.00">_Recurse</text>
</a>
</g>
</g>
<!-- Node2&#45;&gt;Node3 -->
<g id="edge2" class="edge"><title>Node2&#45;&gt;Node3</title>
<path fill="none" stroke="midnightblue" d="M282.036,-29C290.561,-29 299.262,-29 307.887,-29"/>
<polygon fill="midnightblue" stroke="midnightblue" points="307.96,-32.5001 317.96,-29 307.96,-25.5001 307.96,-32.5001"/>
</g>
<!-- Node4 -->
<g id="node4" class="node"><title>Node4</title>
<g id="a_node4"><a xlink:href="../../d4/d0c/csprogsdefs_8qc.html#acbb54a239d76062465dccbc6a6c6e464" target="_top" xlink:title="entity">
<polygon fill="none" stroke="black" points="536,-38.5 536,-57.5 580,-57.5 580,-38.5 536,-38.5"/>
<text text-anchor="middle" x="558" y="-45.5" font-family="Helvetica,sans-Serif" font-size="10.00">entity</text>
</a>
</g>
</g>
<!-- Node3&#45;&gt;Node4 -->
<g id="edge3" class="edge"><title>Node3&#45;&gt;Node4</title>
<path fill="none" stroke="midnightblue" d="M486.31,-39.2785C500.418,-41.0191 514.241,-42.7245 525.868,-44.1591"/>
<polygon fill="midnightblue" stroke="midnightblue" points="525.521,-47.6427 535.875,-45.3936 526.378,-40.6954 525.521,-47.6427"/>
</g>
<!-- Node5 -->
<g id="node5" class="node"><title>Node5</title>
<g id="a_node5"><a xlink:href="../../d1/d07/framework_8qc.html#aef346455b3c2def821423a45227b45dd" target="_top" xlink:title="LOG_TRACE">
<polygon fill="none" stroke="black" points="522,-0.5 522,-19.5 594,-19.5 594,-0.5 522,-0.5"/>
<text text-anchor="middle" x="558" y="-7.5" font-family="Helvetica,sans-Serif" font-size="10.00">LOG_TRACE</text>
</a>
</g>
</g>
<!-- Node3&#45;&gt;Node5 -->
<g id="edge4" class="edge"><title>Node3&#45;&gt;Node5</title>
<path fill="none" stroke="midnightblue" d="M486.31,-18.7215C494.983,-17.6515 503.548,-16.5947 511.562,-15.606"/>
<polygon fill="midnightblue" stroke="midnightblue" points="512.246,-19.0483 521.742,-14.35 511.388,-12.101 512.246,-19.0483"/>
</g>
</g>
</svg>
