<?xml version="1.0" encoding="UTF-8" standalone="no"?>
<!DOCTYPE svg PUBLIC "-//W3C//DTD SVG 1.1//EN"
 "http://www.w3.org/Graphics/SVG/1.1/DTD/svg11.dtd">
<!-- Generated by graphviz version 2.40.1 (20161225.0304)
 -->
<!-- Title: TeleportPlayer Pages: 1 -->
<!--zoomable 306 -->
<svg id="main" version="1.1" xmlns="http://www.w3.org/2000/svg" xmlns:xlink="http://www.w3.org/1999/xlink" xml:space="preserve" onload="init(evt)">
<style type="text/css"><![CDATA[
.edge:hover path { stroke: red; }
.edge:hover polygon { stroke: red; fill: red; }
]]></style>
<script type="text/javascript"><![CDATA[
var edges = document.getElementsByTagName('g');
if (edges && edges.length) {
  for (var i=0;i<edges.length;i++) {
    if (edges[i].id.substr(0,4)=='edge') {
      edges[i].setAttribute('class','edge');
    }
  }
}
]]></script>
        <defs>
                <circle id="rim" cx="0" cy="0" r="7"/>
                <circle id="rim2" cx="0" cy="0" r="3.5"/>
                <g id="zoomPlus">
                        <use xlink:href="#rim" fill="#404040">
                                <set attributeName="fill" to="#808080" begin="zoomplus.mouseover" end="zoomplus.mouseout"/>
                        </use>
                        <path d="M-4,0h8M0,-4v8" fill="none" stroke="white" stroke-width="1.5" pointer-events="none"/>
                </g>
                <g id="zoomMin">
                        <use xlink:href="#rim" fill="#404040">
                                <set attributeName="fill" to="#808080" begin="zoomminus.mouseover" end="zoomminus.mouseout"/>
                        </use>
                        <path d="M-4,0h8" fill="none" stroke="white" stroke-width="1.5" pointer-events="none"/>
                </g>
                <g id="dirArrow">
                        <path fill="none" stroke="white" stroke-width="1.5" d="M0,-3.0v7 M-2.5,-0.5L0,-3.0L2.5,-0.5"/>
                </g>
               <g id="resetDef">
                       <use xlink:href="#rim2" fill="#404040">
                               <set attributeName="fill" to="#808080" begin="reset.mouseover" end="reset.mouseout"/>
                       </use>
               </g>
        </defs>

<script type="text/javascript">
var viewWidth = 569;
var viewHeight = 306;
var sectionId = 'dynsection-8';
</script>
<script xlink:href="../../svgpan.js"/>
<svg id="graph" class="graph">
<g id="viewport">
<title>TeleportPlayer</title>
<!-- Node115 -->
<g id="node1" class="node">
<title>Node115</title>
<polygon fill="#bfbfbf" stroke="#000000" points="0,-145.5 0,-164.5 86,-164.5 86,-145.5 0,-145.5"/>
<text text-anchor="middle" x="43" y="-152.5" font-family="Helvetica,sans-Serif" font-size="10.00" fill="#000000">TeleportPlayer</text>
</g>
<!-- Node116 -->
<g id="node2" class="node">
<title>Node116</title>
<g id="a_node2"><a xlink:href="../../db/d15/api_8qh.html#ab8a774722467f5e4d60086ab429df89b" target="_top" xlink:title="bot_aim_reset">
<polygon fill="none" stroke="#000000" points="153.5,-278.5 153.5,-297.5 239.5,-297.5 239.5,-278.5 153.5,-278.5"/>
<text text-anchor="middle" x="196.5" y="-285.5" font-family="Helvetica,sans-Serif" font-size="10.00" fill="#000000">bot_aim_reset</text>
</a>
</g>
</g>
<!-- Node115&#45;&gt;Node116 -->
<g id="edge1" class="edge">
<title>Node115&#45;&gt;Node116</title>
<path fill="none" stroke="#191970" d="M46.8687,-164.7007C56.2202,-186.8555 82.2533,-241.3825 122,-269 128.4742,-273.4985 135.9266,-276.9327 143.5612,-279.5541"/>
<polygon fill="#191970" stroke="#191970" points="142.6855,-282.9453 153.2691,-282.4589 144.6921,-276.2391 142.6855,-282.9453"/>
</g>
<!-- Node117 -->
<g id="node3" class="node">
<title>Node117</title>
<g id="a_node3"><a xlink:href="../../d4/d0c/csprogsdefs_8qc.html#acbb54a239d76062465dccbc6a6c6e464" target="_top" xlink:title="entity">
<polygon fill="none" stroke="#000000" points="174,-240.5 174,-259.5 219,-259.5 219,-240.5 174,-240.5"/>
<text text-anchor="middle" x="196.5" y="-247.5" font-family="Helvetica,sans-Serif" font-size="10.00" fill="#000000">entity</text>
</a>
</g>
</g>
<!-- Node115&#45;&gt;Node117 -->
<g id="edge2" class="edge">
<title>Node115&#45;&gt;Node117</title>
<path fill="none" stroke="#191970" d="M50.1433,-164.555C62.7862,-180.7687 90.7367,-213.5996 122,-231 134.8259,-238.1386 150.3799,-242.6502 163.9515,-245.4745"/>
<polygon fill="#191970" stroke="#191970" points="163.3935,-248.9307 173.8653,-247.3209 164.6752,-242.049 163.3935,-248.9307"/>
</g>
<!-- Node118 -->
<g id="node4" class="node">
<title>Node118</title>
<g id="a_node4"><a xlink:href="../../dc/d95/random_8qc.html#a3405965b1da9657276caec225d4b3acf" target="_top" xlink:title="RandomSelection_Init">
<polygon fill="none" stroke="#000000" points="135,-202.5 135,-221.5 258,-221.5 258,-202.5 135,-202.5"/>
<text text-anchor="middle" x="196.5" y="-209.5" font-family="Helvetica,sans-Serif" font-size="10.00" fill="#000000">RandomSelection_Init</text>
</a>
</g>
</g>
<!-- Node115&#45;&gt;Node118 -->
<g id="edge3" class="edge">
<title>Node115&#45;&gt;Node118</title>
<path fill="none" stroke="#191970" d="M60.4482,-164.637C76.1737,-173.0187 100.1182,-185.0367 122,-193 128.8125,-195.4793 136.0877,-197.7617 143.3226,-199.8193"/>
<polygon fill="#191970" stroke="#191970" points="142.5481,-203.2358 153.1162,-202.4831 144.3854,-196.4812 142.5481,-203.2358"/>
</g>
<!-- Node119 -->
<g id="node5" class="node">
<title>Node119</title>
<g id="a_node5"><a xlink:href="../../dc/d3d/csqcmodel__hooks_8qc.html#a62e1ac6caa59233c184e5c92b09198c0" target="_top" xlink:title="Reset_ArcBeam">
<polygon fill="none" stroke="#000000" points="150,-164.5 150,-183.5 243,-183.5 243,-164.5 150,-164.5"/>
<text text-anchor="middle" x="196.5" y="-171.5" font-family="Helvetica,sans-Serif" font-size="10.00" fill="#000000">Reset_ArcBeam</text>
</a>
</g>
</g>
<!-- Node115&#45;&gt;Node119 -->
<g id="edge4" class="edge">
<title>Node115&#45;&gt;Node119</title>
<path fill="none" stroke="#191970" d="M86.1668,-160.3431C102.7711,-162.3984 121.9877,-164.777 139.685,-166.9675"/>
<polygon fill="#191970" stroke="#191970" points="139.5438,-170.4767 149.898,-168.2317 140.4037,-163.5297 139.5438,-170.4767"/>
</g>
<!-- Node120 -->
<g id="node6" class="node">
<title>Node120</title>
<g id="a_node6"><a xlink:href="../../d5/dff/ent__cs_8qc.html#ac459a724c1fe031c6658fff554b12ea8" target="_top" xlink:title="setorigin">
<polygon fill="none" stroke="#000000" points="167,-126.5 167,-145.5 226,-145.5 226,-126.5 167,-126.5"/>
<text text-anchor="middle" x="196.5" y="-133.5" font-family="Helvetica,sans-Serif" font-size="10.00" fill="#000000">setorigin</text>
</a>
</g>
</g>
<!-- Node115&#45;&gt;Node120 -->
<g id="edge5" class="edge">
<title>Node115&#45;&gt;Node120</title>
<path fill="none" stroke="#191970" d="M86.1668,-149.6569C108.2662,-146.9214 134.9929,-143.6133 156.6062,-140.938"/>
<polygon fill="#191970" stroke="#191970" points="157.2686,-144.3828 166.7629,-139.6808 156.4087,-137.4358 157.2686,-144.3828"/>
</g>
<!-- Node121 -->
<g id="node7" class="node">
<title>Node121</title>
<g id="a_node7"><a xlink:href="../../d0/dcd/csqcprojectile_8qc.html#ae4d3ae90944ee0a34a21572d58c16df0" target="_top" xlink:title="UpdateCSQCProjectileAfter\lTeleport">
<polygon fill="none" stroke="#000000" points="122,-77 122,-107 271,-107 271,-77 122,-77"/>
<text text-anchor="start" x="130" y="-95" font-family="Helvetica,sans-Serif" font-size="10.00" fill="#000000">UpdateCSQCProjectileAfter</text>
<text text-anchor="middle" x="196.5" y="-84" font-family="Helvetica,sans-Serif" font-size="10.00" fill="#000000">Teleport</text>
</a>
</g>
</g>
<!-- Node115&#45;&gt;Node121 -->
<g id="edge6" class="edge">
<title>Node115&#45;&gt;Node121</title>
<path fill="none" stroke="#191970" d="M61.2234,-145.4332C77.0502,-137.3192 100.71,-125.6533 122,-117 127.4248,-114.7951 133.1248,-112.6268 138.8552,-110.5448"/>
<polygon fill="#191970" stroke="#191970" points="140.2287,-113.7713 148.4845,-107.1312 137.8898,-107.1736 140.2287,-113.7713"/>
</g>
<!-- Node125 -->
<g id="node11" class="node">
<title>Node125</title>
<g id="a_node11"><a xlink:href="../../df/d26/server_2items_2items_8qc.html#a6239507bd78a445cd952a33ee3af4d7f" target="_top" xlink:title="UpdateItemAfterTeleport">
<polygon fill="none" stroke="#000000" points="128,-38.5 128,-57.5 265,-57.5 265,-38.5 128,-38.5"/>
<text text-anchor="middle" x="196.5" y="-45.5" font-family="Helvetica,sans-Serif" font-size="10.00" fill="#000000">UpdateItemAfterTeleport</text>
</a>
</g>
</g>
<!-- Node115&#45;&gt;Node125 -->
<g id="edge10" class="edge">
<title>Node115&#45;&gt;Node125</title>
<path fill="none" stroke="#191970" d="M49.0742,-145.2322C60.8436,-127.14 88.5623,-88.405 122,-68 126.319,-65.3644 130.9858,-63.0711 135.8038,-61.0765"/>
<polygon fill="#191970" stroke="#191970" points="137.0402,-64.351 145.2035,-57.5975 134.6103,-57.7862 137.0402,-64.351"/>
</g>
<!-- Node130 -->
<g id="node16" class="node">
<title>Node130</title>
<g id="a_node16"><a xlink:href="../../da/dde/csprogsdefs_8qh.html#a2626679e4144af8478202c6c28f90cd9" target="_top" xlink:title="vector">
<polygon fill="none" stroke="#000000" points="173,-.5 173,-19.5 220,-19.5 220,-.5 173,-.5"/>
<text text-anchor="middle" x="196.5" y="-7.5" font-family="Helvetica,sans-Serif" font-size="10.00" fill="#000000">vector</text>
</a>
</g>
</g>
<!-- Node115&#45;&gt;Node130 -->
<g id="edge16" class="edge">
<title>Node115&#45;&gt;Node130</title>
<path fill="none" stroke="#191970" d="M46.1873,-145.358C54.5475,-121.6217 79.4479,-60.041 122,-29 133.7727,-20.412 149.0532,-15.6933 162.7085,-13.1057"/>
<polygon fill="#191970" stroke="#191970" points="163.4207,-16.5366 172.7491,-11.5135 162.3243,-9.623 163.4207,-16.5366"/>
</g>
<!-- Node122 -->
<g id="node8" class="node">
<title>Node122</title>
<g id="a_node8"><a xlink:href="../../d0/dcd/csqcprojectile_8qc.html#a05912564a54c4a7e671157117742557e" target="_top" xlink:title="CSQCProjectile_SendEntity">
<polygon fill="none" stroke="#000000" points="307,-82.5 307,-101.5 454,-101.5 454,-82.5 307,-82.5"/>
<text text-anchor="middle" x="380.5" y="-89.5" font-family="Helvetica,sans-Serif" font-size="10.00" fill="#000000">CSQCProjectile_SendEntity</text>
</a>
</g>
</g>
<!-- Node121&#45;&gt;Node122 -->
<g id="edge7" class="edge">
<title>Node121&#45;&gt;Node122</title>
<path fill="none" stroke="#191970" d="M271.0746,-92C279.4316,-92 287.9877,-92 296.4533,-92"/>
<polygon fill="#191970" stroke="#191970" points="296.7152,-95.5001 306.7152,-92 296.7152,-88.5001 296.7152,-95.5001"/>
</g>
<!-- Node123 -->
<g id="node9" class="node">
<title>Node123</title>
<g id="a_node9"><a xlink:href="../../d8/de2/menudefs_8qc.html#abd23315350cd01304b6bd77c4c5c07e6" target="_top" xlink:title="WriteByte">
<polygon fill="none" stroke="#000000" points="493,-79.5 493,-98.5 558,-98.5 558,-79.5 493,-79.5"/>
<text text-anchor="middle" x="525.5" y="-86.5" font-family="Helvetica,sans-Serif" font-size="10.00" fill="#000000">WriteByte</text>
</a>
</g>
</g>
<!-- Node122&#45;&gt;Node123 -->
<g id="edge8" class="edge">
<title>Node122&#45;&gt;Node123</title>
<path fill="none" stroke="#191970" d="M454.2744,-90.4736C464.0296,-90.2718 473.7541,-90.0706 482.741,-89.8847"/>
<polygon fill="#191970" stroke="#191970" points="482.9843,-93.3805 492.9098,-89.6743 482.8395,-86.382 482.9843,-93.3805"/>
</g>
<!-- Node124 -->
<g id="node10" class="node">
<title>Node124</title>
<g id="a_node10"><a xlink:href="../../d8/de2/menudefs_8qc.html#aa8c03f058fec0c574e1bba13327f5a5b" target="_top" xlink:title="WriteCoord">
<polygon fill="none" stroke="#000000" points="490,-117.5 490,-136.5 561,-136.5 561,-117.5 490,-117.5"/>
<text text-anchor="middle" x="525.5" y="-124.5" font-family="Helvetica,sans-Serif" font-size="10.00" fill="#000000">WriteCoord</text>
</a>
</g>
</g>
<!-- Node122&#45;&gt;Node124 -->
<g id="edge9" class="edge">
<title>Node122&#45;&gt;Node124</title>
<path fill="none" stroke="#191970" d="M420.1219,-101.5639C438.6871,-106.0452 460.9014,-111.4072 480.1373,-116.0504"/>
<polygon fill="#191970" stroke="#191970" points="479.3477,-119.4602 489.8898,-118.4044 480.9902,-112.6557 479.3477,-119.4602"/>
</g>
<!-- Node126 -->
<g id="node12" class="node">
<title>Node126</title>
<g id="a_node12"><a xlink:href="../../df/d26/server_2items_2items_8qc.html#a5170a5bfa440c6f8184412ebdf03db7b" target="_top" xlink:title="ItemSend">
<polygon fill="none" stroke="#000000" points="349,-41.5 349,-60.5 412,-60.5 412,-41.5 349,-41.5"/>
<text text-anchor="middle" x="380.5" y="-48.5" font-family="Helvetica,sans-Serif" font-size="10.00" fill="#000000">ItemSend</text>
</a>
</g>
</g>
<!-- Node125&#45;&gt;Node126 -->
<g id="edge11" class="edge">
<title>Node125&#45;&gt;Node126</title>
<path fill="none" stroke="#191970" d="M265.0148,-49.1171C289.7764,-49.5208 316.9705,-49.9642 338.7468,-50.3192"/>
<polygon fill="#191970" stroke="#191970" points="338.9116,-53.8223 348.9673,-50.4859 339.0258,-46.8232 338.9116,-53.8223"/>
</g>
<!-- Node129 -->
<g id="node15" class="node">
<title>Node129</title>
<g id="a_node15"><a xlink:href="../../df/d26/server_2items_2items_8qc.html#a5b8f21a495331612074c7e7b253f1fda" target="_top" xlink:title="ItemUpdate">
<polygon fill="none" stroke="#000000" points="343.5,-3.5 343.5,-22.5 417.5,-22.5 417.5,-3.5 343.5,-3.5"/>
<text text-anchor="middle" x="380.5" y="-10.5" font-family="Helvetica,sans-Serif" font-size="10.00" fill="#000000">ItemUpdate</text>
</a>
</g>
</g>
<!-- Node125&#45;&gt;Node129 -->
<g id="edge15" class="edge">
<title>Node125&#45;&gt;Node129</title>
<path fill="none" stroke="#191970" d="M246.7788,-38.4361C273.7382,-33.308 306.7616,-27.0263 333.2456,-21.9886"/>
<polygon fill="#191970" stroke="#191970" points="334.2473,-25.3609 343.4171,-20.0538 332.9392,-18.4842 334.2473,-25.3609"/>
</g>
<!-- Node126&#45;&gt;Node123 -->
<g id="edge12" class="edge">
<title>Node126&#45;&gt;Node123</title>
<path fill="none" stroke="#191970" d="M412.3209,-59.3393C433.0899,-64.7822 460.4442,-71.9509 483.0577,-77.8772"/>
<polygon fill="#191970" stroke="#191970" points="482.188,-81.2674 492.7487,-80.4169 483.9626,-74.4961 482.188,-81.2674"/>
</g>
<!-- Node127 -->
<g id="node13" class="node">
<title>Node127</title>
<g id="a_node13"><a xlink:href="../../d8/de2/menudefs_8qc.html#a7bb594d808e357274edee331b5ed2d35" target="_top" xlink:title="WriteShort">
<polygon fill="none" stroke="#000000" points="491.5,-41.5 491.5,-60.5 559.5,-60.5 559.5,-41.5 491.5,-41.5"/>
<text text-anchor="middle" x="525.5" y="-48.5" font-family="Helvetica,sans-Serif" font-size="10.00" fill="#000000">WriteShort</text>
</a>
</g>
</g>
<!-- Node126&#45;&gt;Node127 -->
<g id="edge13" class="edge">
<title>Node126&#45;&gt;Node127</title>
<path fill="none" stroke="#191970" d="M412.3209,-51C432.5438,-51 459.0102,-51 481.2642,-51"/>
<polygon fill="#191970" stroke="#191970" points="481.4789,-54.5001 491.4789,-51 481.4789,-47.5001 481.4789,-54.5001"/>
</g>
<!-- Node128 -->
<g id="node14" class="node">
<title>Node128</title>
<g id="a_node14"><a xlink:href="../../d8/de2/menudefs_8qc.html#a44e0d1ac6d9e4b633d85ad82f408f516" target="_top" xlink:title="WriteString">
<polygon fill="none" stroke="#000000" points="490,-3.5 490,-22.5 561,-22.5 561,-3.5 490,-3.5"/>
<text text-anchor="middle" x="525.5" y="-10.5" font-family="Helvetica,sans-Serif" font-size="10.00" fill="#000000">WriteString</text>
</a>
</g>
</g>
<!-- Node126&#45;&gt;Node128 -->
<g id="edge14" class="edge">
<title>Node126&#45;&gt;Node128</title>
<path fill="none" stroke="#191970" d="M412.3491,-42.817C425.28,-39.4816 440.3584,-35.5757 454,-32 462.3942,-29.7998 471.3377,-27.4375 479.956,-25.152"/>
<polygon fill="#191970" stroke="#191970" points="481.1048,-28.4683 489.8713,-22.5185 479.3079,-21.7028 481.1048,-28.4683"/>
</g>
</g>
</svg>
        <g id="navigator" transform="translate(0 0)" fill="#404254">
                <rect fill="#f2f5e9" fill-opacity="0.5" stroke="#606060" stroke-width=".5" x="0" y="0" width="60" height="60"/>
                <use id="zoomplus" xlink:href="#zoomPlus" x="17" y="9" onmousedown="handleZoom(evt,'in')"/>
                <use id="zoomminus" xlink:href="#zoomMin" x="42" y="9" onmousedown="handleZoom(evt,'out')"/>
                <use id="reset" xlink:href="#resetDef" x="30" y="36" onmousedown="handleReset()"/>
                <g id="arrowUp" xlink:href="#dirArrow" transform="translate(30 24)" onmousedown="handlePan(0,-1)">
                  <use xlink:href="#rim" fill="#404040">
                        <set attributeName="fill" to="#808080" begin="arrowUp.mouseover" end="arrowUp.mouseout"/>
                  </use>
                  <path fill="none" stroke="white" stroke-width="1.5" d="M0,-3.0v7 M-2.5,-0.5L0,-3.0L2.5,-0.5"/>
                </g>
                <g id="arrowRight" xlink:href="#dirArrow" transform="rotate(90) translate(36 -43)" onmousedown="handlePan(1,0)">
                  <use xlink:href="#rim" fill="#404040">
                        <set attributeName="fill" to="#808080" begin="arrowRight.mouseover" end="arrowRight.mouseout"/>
                  </use>
                  <path fill="none" stroke="white" stroke-width="1.5" d="M0,-3.0v7 M-2.5,-0.5L0,-3.0L2.5,-0.5"/>
                </g>
                <g id="arrowDown" xlink:href="#dirArrow" transform="rotate(180) translate(-30 -48)" onmousedown="handlePan(0,1)">
                  <use xlink:href="#rim" fill="#404040">
                        <set attributeName="fill" to="#808080" begin="arrowDown.mouseover" end="arrowDown.mouseout"/>
                  </use>
                  <path fill="none" stroke="white" stroke-width="1.5" d="M0,-3.0v7 M-2.5,-0.5L0,-3.0L2.5,-0.5"/>
                </g>
                <g id="arrowLeft" xlink:href="#dirArrow" transform="rotate(270) translate(-36 17)" onmousedown="handlePan(-1,0)">
                  <use xlink:href="#rim" fill="#404040">
                        <set attributeName="fill" to="#808080" begin="arrowLeft.mouseover" end="arrowLeft.mouseout"/>
                  </use>
                  <path fill="none" stroke="white" stroke-width="1.5" d="M0,-3.0v7 M-2.5,-0.5L0,-3.0L2.5,-0.5"/>
                </g>
        </g>
        <svg viewBox="0 0 15 15" width="100%" height="30px" preserveAspectRatio="xMaxYMin meet">
         <g id="arrow_out" transform="scale(0.3 0.3)">
          <a xlink:href="teleporters_8qc_ab3fd6d0aedddaa968142b4ea0bb6c041_cgraph_org.svg" target="_base">
           <rect id="button" ry="5" rx="5" y="6" x="6" height="38" width="38"
                fill="#f2f5e9" fill-opacity="0.5" stroke="#606060" stroke-width="1.0"/>
           <path id="arrow"
             d="M 11.500037,31.436501 C 11.940474,20.09759 22.043105,11.32322 32.158766,21.979434 L 37.068811,17.246167 C 37.068811,17.246167 37.088388,32 37.088388,32 L 22.160133,31.978069 C 22.160133,31.978069 26.997745,27.140456 26.997745,27.140456 C 18.528582,18.264221 13.291696,25.230495 11.500037,31.436501 z"
             style="fill:#404040;"/>
          </a>
         </g>
        </svg>
</svg>
