<?xml version="1.0" encoding="UTF-8" standalone="no"?>
<!DOCTYPE svg PUBLIC "-//W3C//DTD SVG 1.1//EN"
 "http://www.w3.org/Graphics/SVG/1.1/DTD/svg11.dtd">
<!-- Generated by graphviz version 2.26.3 (20100126.1600)
 -->
<!-- Title: G Pages: 1 -->
<!--zoomable 146 -->
<svg id="main" version="1.1" xmlns="http://www.w3.org/2000/svg" xmlns:xlink="http://www.w3.org/1999/xlink" xml:space="preserve" onload="init(evt)">
        <defs>
                <circle id="rim" cx="0" cy="0" r="7"/>
                <circle id="rim2" cx="0" cy="0" r="3.5"/>
                <g id="zoomPlus">
                        <use xlink:href="#rim" fill="#404040">
                                <set attributeName="fill" to="#808080" begin="zoomplus.mouseover" end="zoomplus.mouseout"/>
                        </use>
                        <path d="M-4,0h8M0,-4v8" fill="none" stroke="white" stroke-width="1.5" pointer-events="none"/>
                </g>
                <g id="zoomMin">
                        <use xlink:href="#rim" fill="#404040">
                                <set attributeName="fill" to="#808080" begin="zoomminus.mouseover" end="zoomminus.mouseout"/>
                        </use>
                        <path d="M-4,0h8" fill="none" stroke="white" stroke-width="1.5" pointer-events="none"/>
                </g>
                <g id="dirArrow">
                        <path fill="none" stroke="white" stroke-width="1.5" d="M0,-3.0v7 M-2.5,-0.5L0,-3.0L2.5,-0.5"/>
                </g>
               <g id="resetDef">
                       <use xlink:href="#rim2" fill="#404040">
                               <set attributeName="fill" to="#808080" begin="reset.mouseover" end="reset.mouseout"/>
                       </use>
               </g>
        </defs>

<script type="text/javascript">
var viewWidth = 552;
var viewHeight = 146;
var sectionId = 'dynsection-0';
</script>
<script xlink:href="../../svgpan.js"/>
<svg id="graph" class="graph">
<g id="viewport">
<title>G</title>
<!-- Node1 -->
<g id="node1" class="node"><title>Node1</title>
<polygon fill="#bfbfbf" stroke="black" points="194.5,-116.5 194.5,-137.5 323.5,-137.5 323.5,-116.5 194.5,-116.5"/>
<text text-anchor="middle" x="259" y="-124.5" font-family="Helvetica,sans-Serif" font-size="10.00">common/effects/qc/all.inc</text>
</g>
<!-- Node2 -->
<g id="node3" class="node"><title>Node2</title>
<a xlink:href="../../d2/d63/casings_8qc.html" target="_top" xlink:title="casings.qc">
<polygon fill="none" stroke="black" points="0,-58.5 0,-79.5 64,-79.5 64,-58.5 0,-58.5"/>
<text text-anchor="middle" x="32" y="-66.5" font-family="Helvetica,sans-Serif" font-size="10.00">casings.qc</text>
</a>
</g>
<!-- Node1&#45;&gt;Node2 -->
<g id="edge2" class="edge"><title>Node1&#45;&gt;Node2</title>
<path fill="none" stroke="midnightblue" d="M216.478,-116.443C180.886,-107.564 128.503,-94.3994 74.0456,-80.2499"/>
<polygon fill="midnightblue" stroke="midnightblue" points="74.7764,-76.8235 64.2172,-77.6913 73.0129,-83.5977 74.7764,-76.8235"/>
</g>
<!-- Node3 -->
<g id="node5" class="node"><title>Node3</title>
<a xlink:href="../../d9/ddd/damageeffects_8qc.html" target="_top" xlink:title="damageeffects.qc">
<polygon fill="none" stroke="black" points="81.5,-58.5 81.5,-79.5 176.5,-79.5 176.5,-58.5 81.5,-58.5"/>
<text text-anchor="middle" x="129" y="-66.5" font-family="Helvetica,sans-Serif" font-size="10.00">damageeffects.qc</text>
</a>
</g>
<!-- Node1&#45;&gt;Node3 -->
<g id="edge4" class="edge"><title>Node1&#45;&gt;Node3</title>
<path fill="none" stroke="midnightblue" d="M235.458,-116.497C214.971,-107.356 185.053,-94.0082 162.146,-83.7883"/>
<polygon fill="midnightblue" stroke="midnightblue" points="163.365,-80.4994 152.806,-79.6212 160.512,-86.892 163.365,-80.4994"/>
</g>
<!-- Node4 -->
<g id="node7" class="node"><title>Node4</title>
<a xlink:href="../../d9/d7f/gibs_8qc.html" target="_top" xlink:title="gibs.qc">
<polygon fill="none" stroke="black" points="194,-58.5 194,-79.5 242,-79.5 242,-58.5 194,-58.5"/>
<text text-anchor="middle" x="218" y="-66.5" font-family="Helvetica,sans-Serif" font-size="10.00">gibs.qc</text>
</a>
</g>
<!-- Node1&#45;&gt;Node4 -->
<g id="edge6" class="edge"><title>Node1&#45;&gt;Node4</title>
<path fill="none" stroke="midnightblue" d="M251.48,-116.362C245.874,-108.431 238.068,-97.3885 231.403,-87.9606"/>
<polygon fill="midnightblue" stroke="midnightblue" points="234.103,-85.7161 225.472,-79.5707 228.387,-89.7568 234.103,-85.7161"/>
</g>
<!-- Node5 -->
<g id="node9" class="node"><title>Node5</title>
<a xlink:href="../../d9/d45/globalsound_8qc.html" target="_top" xlink:title="globalsound.qc">
<polygon fill="none" stroke="black" points="260,-58.5 260,-79.5 342,-79.5 342,-58.5 260,-58.5"/>
<text text-anchor="middle" x="301" y="-66.5" font-family="Helvetica,sans-Serif" font-size="10.00">globalsound.qc</text>
</a>
</g>
<!-- Node1&#45;&gt;Node5 -->
<g id="edge8" class="edge"><title>Node1&#45;&gt;Node5</title>
<path fill="none" stroke="midnightblue" d="M266.703,-116.362C272.446,-108.431 280.443,-97.3885 287.27,-87.9606"/>
<polygon fill="midnightblue" stroke="midnightblue" points="290.315,-89.7229 293.345,-79.5707 284.645,-85.6173 290.315,-89.7229"/>
</g>
<!-- Node8 -->
<g id="node15" class="node"><title>Node8</title>
<a xlink:href="../../d1/df8/lightningarc_8qc.html" target="_top" xlink:title="lightningarc.qc">
<polygon fill="none" stroke="black" points="360,-58.5 360,-79.5 440,-79.5 440,-58.5 360,-58.5"/>
<text text-anchor="middle" x="400" y="-66.5" font-family="Helvetica,sans-Serif" font-size="10.00">lightningarc.qc</text>
</a>
</g>
<!-- Node1&#45;&gt;Node8 -->
<g id="edge14" class="edge"><title>Node1&#45;&gt;Node8</title>
<path fill="none" stroke="midnightblue" d="M284.534,-116.497C306.953,-107.275 339.785,-93.7695 364.713,-83.5153"/>
<polygon fill="midnightblue" stroke="midnightblue" points="366.263,-86.6623 374.179,-79.6212 363.6,-80.1886 366.263,-86.6623"/>
</g>
<!-- Node9 -->
<g id="node17" class="node"><title>Node9</title>
<a xlink:href="../../dc/d20/modeleffects_8qc.html" target="_top" xlink:title="modeleffects.qc">
<polygon fill="none" stroke="black" points="458,-58.5 458,-79.5 544,-79.5 544,-58.5 458,-58.5"/>
<text text-anchor="middle" x="501" y="-66.5" font-family="Helvetica,sans-Serif" font-size="10.00">modeleffects.qc</text>
</a>
</g>
<!-- Node1&#45;&gt;Node9 -->
<g id="edge16" class="edge"><title>Node1&#45;&gt;Node9</title>
<path fill="none" stroke="midnightblue" d="M302.824,-116.497C343.64,-106.714 404.562,-92.1131 448.075,-81.6845"/>
<polygon fill="midnightblue" stroke="midnightblue" points="449,-85.0621 457.909,-79.3277 447.368,-78.2549 449,-85.0621"/>
</g>
<!-- Node6 -->
<g id="node11" class="node"><title>Node6</title>
<a xlink:href="../../df/d6e/globalsound_8qh.html" target="_top" xlink:title="globalsound.qh">
<polygon fill="none" stroke="black" points="205,-0.5 205,-21.5 287,-21.5 287,-0.5 205,-0.5"/>
<text text-anchor="middle" x="246" y="-8.5" font-family="Helvetica,sans-Serif" font-size="10.00">globalsound.qh</text>
</a>
</g>
<!-- Node5&#45;&gt;Node6 -->
<g id="edge10" class="edge"><title>Node5&#45;&gt;Node6</title>
<path fill="none" stroke="midnightblue" d="M290.912,-58.3619C283.159,-50.1861 272.27,-38.7025 263.155,-29.0907"/>
<polygon fill="midnightblue" stroke="midnightblue" points="265.445,-26.4186 256.024,-21.5707 260.365,-31.2352 265.445,-26.4186"/>
</g>
<!-- Node7 -->
<g id="node13" class="node"><title>Node7</title>
<a xlink:href="../../db/d18/ent__cs_8qh.html" target="_top" xlink:title="common/ent_cs.qh">
<polygon fill="none" stroke="black" points="305,-0.5 305,-21.5 405,-21.5 405,-0.5 305,-0.5"/>
<text text-anchor="middle" x="355" y="-8.5" font-family="Helvetica,sans-Serif" font-size="10.00">common/ent_cs.qh</text>
</a>
</g>
<!-- Node5&#45;&gt;Node7 -->
<g id="edge12" class="edge"><title>Node5&#45;&gt;Node7</title>
<path fill="none" stroke="midnightblue" d="M310.904,-58.3619C318.516,-50.1861 329.208,-38.7025 338.157,-29.0907"/>
<polygon fill="midnightblue" stroke="midnightblue" points="340.906,-31.2746 345.158,-21.5707 335.783,-26.5046 340.906,-31.2746"/>
</g>
</g>
</svg>
        <g id="navigator" transform="translate(0 0)" fill="#404254">
                <rect fill="#f2f5e9" fill-opacity="0.5" stroke="#606060" stroke-width=".5" x="0" y="0" width="60" height="60"/>
                <use id="zoomplus" xlink:href="#zoomPlus" x="17" y="9" onmousedown="handleZoom(evt,'in')"/>
                <use id="zoomminus" xlink:href="#zoomMin" x="42" y="9" onmousedown="handleZoom(evt,'out')"/>
                <use id="reset" xlink:href="#resetDef" x="30" y="36" onmousedown="handleReset()"/>
                <g id="arrowUp" xlink:href="#dirArrow" transform="translate(30 24)" onmousedown="handlePan(0,-1)">
                  <use xlink:href="#rim" fill="#404040">
                        <set attributeName="fill" to="#808080" begin="arrowUp.mouseover" end="arrowUp.mouseout"/>
                  </use>
                  <path fill="none" stroke="white" stroke-width="1.5" d="M0,-3.0v7 M-2.5,-0.5L0,-3.0L2.5,-0.5"/>
                </g>
                <g id="arrowRight" xlink:href="#dirArrow" transform="rotate(90) translate(36 -43)" onmousedown="handlePan(1,0)">
                  <use xlink:href="#rim" fill="#404040">
                        <set attributeName="fill" to="#808080" begin="arrowRight.mouseover" end="arrowRight.mouseout"/>
                  </use>
                  <path fill="none" stroke="white" stroke-width="1.5" d="M0,-3.0v7 M-2.5,-0.5L0,-3.0L2.5,-0.5"/>
                </g>
                <g id="arrowDown" xlink:href="#dirArrow" transform="rotate(180) translate(-30 -48)" onmousedown="handlePan(0,1)">
                  <use xlink:href="#rim" fill="#404040">
                        <set attributeName="fill" to="#808080" begin="arrowDown.mouseover" end="arrowDown.mouseout"/>
                  </use>
                  <path fill="none" stroke="white" stroke-width="1.5" d="M0,-3.0v7 M-2.5,-0.5L0,-3.0L2.5,-0.5"/>
                </g>
                <g id="arrowLeft" xlink:href="#dirArrow" transform="rotate(270) translate(-36 17)" onmousedown="handlePan(-1,0)">
                  <use xlink:href="#rim" fill="#404040">
                        <set attributeName="fill" to="#808080" begin="arrowLeft.mouseover" end="arrowLeft.mouseout"/>
                  </use>
                  <path fill="none" stroke="white" stroke-width="1.5" d="M0,-3.0v7 M-2.5,-0.5L0,-3.0L2.5,-0.5"/>
                </g>
        </g>
</svg>
