<?xml version="1.0" encoding="UTF-8" standalone="no"?>
<!DOCTYPE svg PUBLIC "-//W3C//DTD SVG 1.1//EN"
 "http://www.w3.org/Graphics/SVG/1.1/DTD/svg11.dtd">
<!-- Generated by graphviz version 2.36.0 (20140111.2315)
 -->
<!-- Title: door_trigger_touch Pages: 1 -->
<svg width="1420pt" height="596pt"
 viewBox="0.00 0.00 1420.00 596.28" xmlns="http://www.w3.org/2000/svg" xmlns:xlink="http://www.w3.org/1999/xlink">
<g id="graph0" class="graph" transform="scale(1 1) rotate(0) translate(4 592.284)">
<title>door_trigger_touch</title>
<!-- Node1 -->
<g id="node1" class="node"><title>Node1</title>
<polygon fill="#bfbfbf" stroke="black" points="0.5,-464.784 0.5,-483.784 97.5,-483.784 97.5,-464.784 0.5,-464.784"/>
<text text-anchor="middle" x="49" y="-471.784" font-family="Helvetica,sans-Serif" font-size="10.00">door_trigger_touch</text>
</g>
<!-- Node2 -->
<g id="node2" class="node"><title>Node2</title>
<g id="a_node2"><a xlink:href="../../d6/d9c/door_8qc.html#a442c07929af7af860cd6e92fb41b1ed3" target="_top" xlink:title="door_check_keys">
<polygon fill="none" stroke="black" points="134.5,-521.784 134.5,-540.784 227.5,-540.784 227.5,-521.784 134.5,-521.784"/>
<text text-anchor="middle" x="181" y="-528.784" font-family="Helvetica,sans-Serif" font-size="10.00">door_check_keys</text>
</a>
</g>
</g>
<!-- Node1&#45;&gt;Node2 -->
<g id="edge1" class="edge"><title>Node1&#45;&gt;Node2</title>
<path fill="none" stroke="midnightblue" d="M71.7591,-483.824C92.8504,-493.072 125.058,-507.194 148.861,-517.631"/>
<polygon fill="midnightblue" stroke="midnightblue" points="147.606,-520.902 158.17,-521.712 150.417,-514.491 147.606,-520.902"/>
</g>
<!-- Node7 -->
<g id="node7" class="node"><title>Node7</title>
<g id="a_node7"><a xlink:href="../../d6/d9c/door_8qc.html#a337674d43d5772b78184bf240a40f104" target="_top" xlink:title="door_use">
<polygon fill="none" stroke="black" points="153,-407.784 153,-426.784 209,-426.784 209,-407.784 153,-407.784"/>
<text text-anchor="middle" x="181" y="-414.784" font-family="Helvetica,sans-Serif" font-size="10.00">door_use</text>
</a>
</g>
</g>
<!-- Node1&#45;&gt;Node7 -->
<g id="edge6" class="edge"><title>Node1&#45;&gt;Node7</title>
<path fill="none" stroke="midnightblue" d="M71.7591,-464.743C92.8504,-455.496 125.058,-441.374 148.861,-430.937"/>
<polygon fill="midnightblue" stroke="midnightblue" points="150.417,-434.077 158.17,-426.855 147.606,-427.666 150.417,-434.077"/>
</g>
<!-- Node3 -->
<g id="node3" class="node"><title>Node3</title>
<g id="a_node3"><a xlink:href="../../d7/da4/item__key_8qc.html#afdfd0f20ed686bb7ad013a01f5aded19" target="_top" xlink:title="item_keys_keylist">
<polygon fill="none" stroke="black" points="264.5,-521.784 264.5,-540.784 359.5,-540.784 359.5,-521.784 264.5,-521.784"/>
<text text-anchor="middle" x="312" y="-528.784" font-family="Helvetica,sans-Serif" font-size="10.00">item_keys_keylist</text>
</a>
</g>
</g>
<!-- Node2&#45;&gt;Node3 -->
<g id="edge2" class="edge"><title>Node2&#45;&gt;Node3</title>
<path fill="none" stroke="midnightblue" d="M227.844,-531.284C236.38,-531.284 245.393,-531.284 254.212,-531.284"/>
<polygon fill="midnightblue" stroke="midnightblue" points="254.434,-534.784 264.434,-531.284 254.434,-527.784 254.434,-534.784"/>
</g>
<!-- Node6 -->
<g id="node6" class="node"><title>Node6</title>
<g id="a_node6"><a xlink:href="../../dc/d73/server_2miscfunctions_8qh.html#a3ad01a00f1af9d663eb5c97259434896" target="_top" xlink:title="play2">
<polygon fill="none" stroke="black" points="876,-559.784 876,-578.784 916,-578.784 916,-559.784 876,-559.784"/>
<text text-anchor="middle" x="896" y="-566.784" font-family="Helvetica,sans-Serif" font-size="10.00">play2</text>
</a>
</g>
</g>
<!-- Node2&#45;&gt;Node6 -->
<g id="edge5" class="edge"><title>Node2&#45;&gt;Node6</title>
<path fill="none" stroke="midnightblue" d="M208.303,-540.824C255.464,-557.051 357.823,-588.284 447,-588.284 447,-588.284 447,-588.284 591,-588.284 691.924,-588.284 811.328,-577.724 865.565,-572.349"/>
<polygon fill="midnightblue" stroke="midnightblue" points="866.22,-575.801 875.82,-571.317 865.519,-568.836 866.22,-575.801"/>
</g>
<!-- Node4 -->
<g id="node4" class="node"><title>Node4</title>
<g id="a_node4"><a xlink:href="../../d8/de2/menudefs_8qc.html#ad76dc2b2895cd23f21e008f12a686158" target="_top" xlink:title="strcat">
<polygon fill="none" stroke="black" points="427.5,-540.784 427.5,-559.784 468.5,-559.784 468.5,-540.784 427.5,-540.784"/>
<text text-anchor="middle" x="448" y="-547.784" font-family="Helvetica,sans-Serif" font-size="10.00">strcat</text>
</a>
</g>
</g>
<!-- Node3&#45;&gt;Node4 -->
<g id="edge3" class="edge"><title>Node3&#45;&gt;Node4</title>
<path fill="none" stroke="midnightblue" d="M359.867,-537.929C378.811,-540.615 400.124,-543.637 416.928,-546.02"/>
<polygon fill="midnightblue" stroke="midnightblue" points="416.858,-549.545 427.25,-547.484 417.841,-542.614 416.858,-549.545"/>
</g>
<!-- Node5 -->
<g id="node5" class="node"><title>Node5</title>
<g id="a_node5"><a xlink:href="../../d5/d52/bits_8qh.html#a4e505c95c58bad3078989c9ce70999b5" target="_top" xlink:title="lowestbit">
<polygon fill="none" stroke="black" points="420,-502.784 420,-521.784 476,-521.784 476,-502.784 420,-502.784"/>
<text text-anchor="middle" x="448" y="-509.784" font-family="Helvetica,sans-Serif" font-size="10.00">lowestbit</text>
</a>
</g>
</g>
<!-- Node3&#45;&gt;Node5 -->
<g id="edge4" class="edge"><title>Node3&#45;&gt;Node5</title>
<path fill="none" stroke="midnightblue" d="M359.867,-524.639C376.178,-522.326 394.245,-519.764 409.678,-517.576"/>
<polygon fill="midnightblue" stroke="midnightblue" points="410.479,-520.997 419.888,-516.128 409.496,-514.067 410.479,-520.997"/>
</g>
<!-- Node8 -->
<g id="node8" class="node"><title>Node8</title>
<g id="a_node8"><a xlink:href="../../d6/d9c/door_8qc.html#ae87674ba0b9d41767ee95397dabe1029" target="_top" xlink:title="door_fire">
<polygon fill="none" stroke="black" points="285,-350.784 285,-369.784 339,-369.784 339,-350.784 285,-350.784"/>
<text text-anchor="middle" x="312" y="-357.784" font-family="Helvetica,sans-Serif" font-size="10.00">door_fire</text>
</a>
</g>
</g>
<!-- Node7&#45;&gt;Node8 -->
<g id="edge7" class="edge"><title>Node7&#45;&gt;Node8</title>
<path fill="none" stroke="midnightblue" d="M203.592,-407.743C224.521,-398.496 256.481,-384.374 280.101,-373.937"/>
<polygon fill="midnightblue" stroke="midnightblue" points="281.606,-377.099 289.338,-369.855 278.776,-370.696 281.606,-377.099"/>
</g>
<!-- Node9 -->
<g id="node9" class="node"><title>Node9</title>
<g id="a_node9"><a xlink:href="../../d6/d9c/door_8qc.html#ab1bcfdc401011109dbfbec373e08244d" target="_top" xlink:title="door_go_down">
<polygon fill="none" stroke="black" points="699,-165.784 699,-184.784 779,-184.784 779,-165.784 699,-165.784"/>
<text text-anchor="middle" x="739" y="-172.784" font-family="Helvetica,sans-Serif" font-size="10.00">door_go_down</text>
</a>
</g>
</g>
<!-- Node8&#45;&gt;Node9 -->
<g id="edge8" class="edge"><title>Node8&#45;&gt;Node9</title>
<path fill="none" stroke="midnightblue" d="M320.963,-350.542C334.705,-334.3 364.45,-301.57 396,-282.284 490.541,-224.491 619.074,-195.322 688.538,-182.922"/>
<polygon fill="midnightblue" stroke="midnightblue" points="689.505,-186.307 698.757,-181.144 688.305,-179.411 689.505,-186.307"/>
</g>
<!-- Node13 -->
<g id="node13" class="node"><title>Node13</title>
<g id="a_node13"><a xlink:href="../../d8/de2/menudefs_8qc.html#a92abfb3919bea2ad0405516d4a4b652b" target="_top" xlink:title="objerror">
<polygon fill="none" stroke="black" points="1193.5,-350.784 1193.5,-369.784 1242.5,-369.784 1242.5,-350.784 1193.5,-350.784"/>
<text text-anchor="middle" x="1218" y="-357.784" font-family="Helvetica,sans-Serif" font-size="10.00">objerror</text>
</a>
</g>
</g>
<!-- Node8&#45;&gt;Node13 -->
<g id="edge60" class="edge"><title>Node8&#45;&gt;Node13</title>
<path fill="none" stroke="midnightblue" d="M339.258,-360.284C388.319,-360.284 497.24,-360.284 589,-360.284 589,-360.284 589,-360.284 897,-360.284 1001.34,-360.284 1124.82,-360.284 1183.19,-360.284"/>
<polygon fill="midnightblue" stroke="midnightblue" points="1183.31,-363.784 1193.31,-360.284 1183.31,-356.784 1183.31,-363.784"/>
</g>
<!-- Node18 -->
<g id="node18" class="node"><title>Node18</title>
<g id="a_node18"><a xlink:href="../../d4/d0c/csprogsdefs_8qc.html#acbb54a239d76062465dccbc6a6c6e464" target="_top" xlink:title="entity">
<polygon fill="none" stroke="black" points="1346.5,-187.784 1346.5,-206.784 1387.5,-206.784 1387.5,-187.784 1346.5,-187.784"/>
<text text-anchor="middle" x="1367" y="-194.784" font-family="Helvetica,sans-Serif" font-size="10.00">entity</text>
</a>
</g>
</g>
<!-- Node8&#45;&gt;Node18 -->
<g id="edge59" class="edge"><title>Node8&#45;&gt;Node18</title>
<path fill="none" stroke="midnightblue" d="M315.398,-350.669C329.961,-294.787 411.884,-14.2838 589,-14.2838 589,-14.2838 589,-14.2838 1055,-14.2838 1158.01,-14.2838 1202.9,27.5949 1286,-33.2838 1320.09,-58.257 1303.37,-83.3547 1322,-121.284 1331.92,-141.49 1345.04,-163.671 1354.36,-178.826"/>
<polygon fill="midnightblue" stroke="midnightblue" points="1351.61,-181.036 1359.87,-187.679 1357.56,-177.339 1351.61,-181.036"/>
</g>
<!-- Node25 -->
<g id="node25" class="node"><title>Node25</title>
<g id="a_node25"><a xlink:href="../../d6/d9c/door_8qc.html#a470a5faec700ecb1ff4f6d79be629593" target="_top" xlink:title="door_go_up">
<polygon fill="none" stroke="black" points="414.5,-291.784 414.5,-310.784 481.5,-310.784 481.5,-291.784 414.5,-291.784"/>
<text text-anchor="middle" x="448" y="-298.784" font-family="Helvetica,sans-Serif" font-size="10.00">door_go_up</text>
</a>
</g>
</g>
<!-- Node8&#45;&gt;Node25 -->
<g id="edge31" class="edge"><title>Node8&#45;&gt;Node25</title>
<path fill="none" stroke="midnightblue" d="M334.828,-350.673C356.826,-340.987 390.984,-325.947 415.83,-315.008"/>
<polygon fill="midnightblue" stroke="midnightblue" points="417.44,-318.123 425.182,-310.89 414.619,-311.717 417.44,-318.123"/>
</g>
<!-- Node27 -->
<g id="node27" class="node"><title>Node27</title>
<g id="a_node27"><a xlink:href="../../d6/d9c/door_8qc.html#ad0b1e3533df44b379cdf452f95983d31" target="_top" xlink:title="door_rotating_go_down">
<polygon fill="none" stroke="black" points="680.5,-464.784 680.5,-483.784 797.5,-483.784 797.5,-464.784 680.5,-464.784"/>
<text text-anchor="middle" x="739" y="-471.784" font-family="Helvetica,sans-Serif" font-size="10.00">door_rotating_go_down</text>
</a>
</g>
</g>
<!-- Node8&#45;&gt;Node27 -->
<g id="edge53" class="edge"><title>Node8&#45;&gt;Node27</title>
<path fill="none" stroke="midnightblue" d="M324.332,-369.934C339.646,-382.518 368.238,-404.437 396,-417.284 484.775,-458.365 598.657,-470.259 669.996,-473.467"/>
<polygon fill="midnightblue" stroke="midnightblue" points="670.072,-476.973 680.205,-473.88 670.354,-469.979 670.072,-476.973"/>
</g>
<!-- Node37 -->
<g id="node37" class="node"><title>Node37</title>
<g id="a_node37"><a xlink:href="../../d6/d9c/door_8qc.html#aac6d3628600265920c578a004ea7fab7" target="_top" xlink:title="door_rotating_go_up">
<polygon fill="none" stroke="black" points="396,-388.784 396,-407.784 500,-407.784 500,-388.784 396,-388.784"/>
<text text-anchor="middle" x="448" y="-395.784" font-family="Helvetica,sans-Serif" font-size="10.00">door_rotating_go_up</text>
</a>
</g>
</g>
<!-- Node8&#45;&gt;Node37 -->
<g id="edge54" class="edge"><title>Node8&#45;&gt;Node37</title>
<path fill="none" stroke="midnightblue" d="M339.155,-367.701C357.434,-372.884 382.272,-379.928 403.504,-385.949"/>
<polygon fill="midnightblue" stroke="midnightblue" points="402.704,-389.36 413.279,-388.721 404.614,-382.626 402.704,-389.36"/>
</g>
<!-- Node10 -->
<g id="node10" class="node"><title>Node10</title>
<g id="a_node10"><a xlink:href="../../d6/d9c/door_8qc.html#a4dab5a6c37fd9d7e8dc27ac97d82b91a" target="_top" xlink:title="door_hit_bottom">
<polygon fill="none" stroke="black" points="853,-122.784 853,-141.784 939,-141.784 939,-122.784 853,-122.784"/>
<text text-anchor="middle" x="896" y="-129.784" font-family="Helvetica,sans-Serif" font-size="10.00">door_hit_bottom</text>
</a>
</g>
</g>
<!-- Node9&#45;&gt;Node10 -->
<g id="edge9" class="edge"><title>Node9&#45;&gt;Node10</title>
<path fill="none" stroke="midnightblue" d="M774.4,-165.741C796.975,-159.478 826.705,-151.23 850.998,-144.491"/>
<polygon fill="midnightblue" stroke="midnightblue" points="851.996,-147.846 860.697,-141.8 850.125,-141.101 851.996,-147.846"/>
</g>
<!-- Node11 -->
<g id="node11" class="node"><title>Node11</title>
<g id="a_node11"><a xlink:href="../../d2/dc2/subs_8qc.html#adf72da94012ed6f3ee8d3d25a6634e2b" target="_top" xlink:title="SUB_CalcMove">
<polygon fill="none" stroke="black" points="852.5,-160.784 852.5,-179.784 939.5,-179.784 939.5,-160.784 852.5,-160.784"/>
<text text-anchor="middle" x="896" y="-167.784" font-family="Helvetica,sans-Serif" font-size="10.00">SUB_CalcMove</text>
</a>
</g>
</g>
<!-- Node9&#45;&gt;Node11 -->
<g id="edge10" class="edge"><title>Node9&#45;&gt;Node11</title>
<path fill="none" stroke="midnightblue" d="M779.113,-174.022C798.216,-173.406 821.483,-172.655 842.142,-171.989"/>
<polygon fill="midnightblue" stroke="midnightblue" points="842.475,-175.48 852.357,-171.659 842.25,-168.484 842.475,-175.48"/>
</g>
<!-- Node12 -->
<g id="node12" class="node"><title>Node12</title>
<g id="a_node12"><a xlink:href="../../d4/d0c/csprogsdefs_8qc.html#a4f0b78b1785821ba47129edb68e70f9e" target="_top" xlink:title="vector">
<polygon fill="none" stroke="black" points="1345,-312.784 1345,-331.784 1389,-331.784 1389,-312.784 1345,-312.784"/>
<text text-anchor="middle" x="1367" y="-319.784" font-family="Helvetica,sans-Serif" font-size="10.00">vector</text>
</a>
</g>
</g>
<!-- Node11&#45;&gt;Node12 -->
<g id="edge11" class="edge"><title>Node11&#45;&gt;Node12</title>
<path fill="none" stroke="midnightblue" d="M939.769,-179.589C946.229,-182.102 952.547,-185.278 958,-189.284 980.653,-205.926 971.998,-223.789 994,-241.284 1052.4,-287.718 1077.41,-286.056 1150,-303.284 1214.36,-318.557 1292.12,-321.815 1334.57,-322.357"/>
<polygon fill="midnightblue" stroke="midnightblue" points="1334.8,-325.858 1344.83,-322.442 1334.86,-318.859 1334.8,-325.858"/>
</g>
<!-- Node11&#45;&gt;Node13 -->
<g id="edge12" class="edge"><title>Node11&#45;&gt;Node13</title>
<path fill="none" stroke="midnightblue" d="M939.613,-177.79C946.395,-180.517 952.859,-184.229 958,-189.284 994.381,-225.05 957.073,-263.081 994,-298.284 1021.26,-324.267 1128.13,-345.436 1183.43,-354.914"/>
<polygon fill="midnightblue" stroke="midnightblue" points="1183.01,-358.391 1193.45,-356.598 1184.17,-351.488 1183.01,-358.391"/>
</g>
<!-- Node14 -->
<g id="node14" class="node"><title>Node14</title>
<g id="a_node14"><a xlink:href="../../d2/dc2/subs_8qc.html#a03279c1cb9d39ce02457862222cfb9eb" target="_top" xlink:title="SUB_CalcMoveDone">
<polygon fill="none" stroke="black" points="1163,-42.7838 1163,-61.7838 1273,-61.7838 1273,-42.7838 1163,-42.7838"/>
<text text-anchor="middle" x="1218" y="-49.7838" font-family="Helvetica,sans-Serif" font-size="10.00">SUB_CalcMoveDone</text>
</a>
</g>
</g>
<!-- Node11&#45;&gt;Node14 -->
<g id="edge13" class="edge"><title>Node11&#45;&gt;Node14</title>
<path fill="none" stroke="midnightblue" d="M929.099,-160.702C938.457,-157.797 948.672,-154.516 958,-151.284 1040.13,-122.829 1135.25,-85.2638 1184.18,-65.5952"/>
<polygon fill="midnightblue" stroke="midnightblue" points="1185.65,-68.7772 1193.61,-61.7937 1183.03,-62.2843 1185.65,-68.7772"/>
</g>
<!-- Node16 -->
<g id="node16" class="node"><title>Node16</title>
<g id="a_node16"><a xlink:href="../../d8/de2/menudefs_8qc.html#a79d61ab0e4126e02af8bc36d432aedaf" target="_top" xlink:title="vlen">
<polygon fill="none" stroke="black" points="1200.5,-274.784 1200.5,-293.784 1235.5,-293.784 1235.5,-274.784 1200.5,-274.784"/>
<text text-anchor="middle" x="1218" y="-281.784" font-family="Helvetica,sans-Serif" font-size="10.00">vlen</text>
</a>
</g>
</g>
<!-- Node11&#45;&gt;Node16 -->
<g id="edge16" class="edge"><title>Node11&#45;&gt;Node16</title>
<path fill="none" stroke="midnightblue" d="M929.115,-179.822C938.473,-182.726 948.684,-186.018 958,-189.284 1044.45,-219.591 1063.37,-234.49 1150,-264.284 1163.27,-268.849 1178.22,-273.37 1190.63,-276.956"/>
<polygon fill="midnightblue" stroke="midnightblue" points="1189.78,-280.354 1200.36,-279.728 1191.7,-273.622 1189.78,-280.354"/>
</g>
<!-- Node17 -->
<g id="node17" class="node"><title>Node17</title>
<g id="a_node17"><a xlink:href="../../d2/dc2/subs_8qc.html#af3e9ed532069ed0ac58d81c4275535bb" target="_top" xlink:title="SUB_CalcMove_Bezier">
<polygon fill="none" stroke="black" points="994,-173.784 994,-192.784 1114,-192.784 1114,-173.784 994,-173.784"/>
<text text-anchor="middle" x="1054" y="-180.784" font-family="Helvetica,sans-Serif" font-size="10.00">SUB_CalcMove_Bezier</text>
</a>
</g>
</g>
<!-- Node11&#45;&gt;Node17 -->
<g id="edge17" class="edge"><title>Node11&#45;&gt;Node17</title>
<path fill="none" stroke="midnightblue" d="M939.628,-173.836C953.188,-174.966 968.557,-176.247 983.505,-177.493"/>
<polygon fill="midnightblue" stroke="midnightblue" points="983.503,-181.004 993.759,-178.347 984.084,-174.029 983.503,-181.004"/>
</g>
<!-- Node14&#45;&gt;Node14 -->
<g id="edge15" class="edge"><title>Node14&#45;&gt;Node14</title>
<path fill="none" stroke="midnightblue" d="M1195.19,-62.0409C1184.09,-70.8491 1191.7,-80.2838 1218,-80.2838 1235.26,-80.2838 1244.47,-76.2206 1245.63,-70.9378"/>
<polygon fill="midnightblue" stroke="midnightblue" points="1248.65,-69.1698 1240.81,-62.0409 1242.49,-72.5015 1248.65,-69.1698"/>
</g>
<!-- Node15 -->
<g id="node15" class="node"><title>Node15</title>
<g id="a_node15"><a xlink:href="../../d5/dff/ent__cs_8qc.html#ac459a724c1fe031c6658fff554b12ea8" target="_top" xlink:title="setorigin">
<polygon fill="none" stroke="black" points="1340.5,-92.7838 1340.5,-111.784 1393.5,-111.784 1393.5,-92.7838 1340.5,-92.7838"/>
<text text-anchor="middle" x="1367" y="-99.7838" font-family="Helvetica,sans-Serif" font-size="10.00">setorigin</text>
</a>
</g>
</g>
<!-- Node14&#45;&gt;Node15 -->
<g id="edge14" class="edge"><title>Node14&#45;&gt;Node15</title>
<path fill="none" stroke="midnightblue" d="M1247,-61.8061C1270.68,-69.8605 1304.74,-81.4486 1330.37,-90.1638"/>
<polygon fill="midnightblue" stroke="midnightblue" points="1329.49,-93.5609 1340.08,-93.4676 1331.74,-86.9337 1329.49,-93.5609"/>
</g>
<!-- Node17&#45;&gt;Node13 -->
<g id="edge19" class="edge"><title>Node17&#45;&gt;Node13</title>
<path fill="none" stroke="midnightblue" d="M1061.57,-192.824C1076.24,-213.831 1113.28,-265.24 1150,-303.284 1164.49,-318.297 1182.6,-333.523 1196.34,-344.457"/>
<polygon fill="midnightblue" stroke="midnightblue" points="1194.23,-347.249 1204.25,-350.67 1198.55,-341.742 1194.23,-347.249"/>
</g>
<!-- Node17&#45;&gt;Node14 -->
<g id="edge20" class="edge"><title>Node17&#45;&gt;Node14</title>
<path fill="none" stroke="midnightblue" d="M1063.16,-173.6C1078.73,-155.503 1114.33,-115.971 1150,-89.2838 1161.42,-80.7415 1175.04,-72.8592 1187,-66.5847"/>
<polygon fill="midnightblue" stroke="midnightblue" points="1188.85,-69.5718 1196.17,-61.9155 1185.68,-63.3338 1188.85,-69.5718"/>
</g>
<!-- Node17&#45;&gt;Node16 -->
<g id="edge21" class="edge"><title>Node17&#45;&gt;Node16</title>
<path fill="none" stroke="midnightblue" d="M1073.61,-192.884C1085.79,-199.647 1101.67,-209.409 1114,-220.284 1132.95,-236.994 1128.97,-250.277 1150,-264.284 1162,-272.275 1177.28,-277.156 1190.22,-280.093"/>
<polygon fill="midnightblue" stroke="midnightblue" points="1189.92,-283.602 1200.41,-282.128 1191.29,-276.738 1189.92,-283.602"/>
</g>
<!-- Node17&#45;&gt;Node18 -->
<g id="edge18" class="edge"><title>Node17&#45;&gt;Node18</title>
<path fill="none" stroke="midnightblue" d="M1114.23,-185.95C1180.54,-188.935 1285.35,-193.653 1336.27,-195.945"/>
<polygon fill="midnightblue" stroke="midnightblue" points="1336.14,-199.443 1346.28,-196.396 1336.45,-192.45 1336.14,-199.443"/>
</g>
<!-- Node19 -->
<g id="node19" class="node"><title>Node19</title>
<g id="a_node19"><a xlink:href="../../d2/dc2/subs_8qc.html#a3a60987a3ea76236af8eff0d6f65d6cb" target="_top" xlink:title="SUB_CalcMove_controller\l_setbezier">
<polygon fill="none" stroke="black" points="1152,-137.284 1152,-167.284 1284,-167.284 1284,-137.284 1152,-137.284"/>
<text text-anchor="start" x="1160" y="-155.284" font-family="Helvetica,sans-Serif" font-size="10.00">SUB_CalcMove_controller</text>
<text text-anchor="middle" x="1218" y="-144.284" font-family="Helvetica,sans-Serif" font-size="10.00">_setbezier</text>
</a>
</g>
</g>
<!-- Node17&#45;&gt;Node19 -->
<g id="edge22" class="edge"><title>Node17&#45;&gt;Node19</title>
<path fill="none" stroke="midnightblue" d="M1104.93,-173.73C1116.59,-171.498 1129.27,-169.072 1141.76,-166.681"/>
<polygon fill="midnightblue" stroke="midnightblue" points="1142.55,-170.093 1151.72,-164.776 1141.24,-163.218 1142.55,-170.093"/>
</g>
<!-- Node20 -->
<g id="node20" class="node"><title>Node20</title>
<g id="a_node20"><a xlink:href="../../d2/dc2/subs_8qc.html#a44f0cc6d8a3712d8968f0271dcc6dcb4" target="_top" xlink:title="SUB_CalcMove_controller\l_think">
<polygon fill="none" stroke="black" points="1152,-225.284 1152,-255.284 1284,-255.284 1284,-225.284 1152,-225.284"/>
<text text-anchor="start" x="1160" y="-243.284" font-family="Helvetica,sans-Serif" font-size="10.00">SUB_CalcMove_controller</text>
<text text-anchor="middle" x="1218" y="-232.284" font-family="Helvetica,sans-Serif" font-size="10.00">_think</text>
</a>
</g>
</g>
<!-- Node17&#45;&gt;Node20 -->
<g id="edge24" class="edge"><title>Node17&#45;&gt;Node20</title>
<path fill="none" stroke="midnightblue" d="M1082.12,-192.824C1104.6,-200.734 1137.21,-212.209 1164.74,-221.895"/>
<polygon fill="midnightblue" stroke="midnightblue" points="1163.64,-225.219 1174.24,-225.237 1165.96,-218.616 1163.64,-225.219"/>
</g>
<!-- Node24 -->
<g id="node24" class="node"><title>Node24</title>
<g id="a_node24"><a xlink:href="../../d2/dc2/subs_8qc.html#a8ed167ee1a9e29cad462eccfe9a7ca09" target="_top" xlink:title="SUB_NullThink">
<polygon fill="none" stroke="black" points="1176,-98.7838 1176,-117.784 1260,-117.784 1260,-98.7838 1176,-98.7838"/>
<text text-anchor="middle" x="1218" y="-105.784" font-family="Helvetica,sans-Serif" font-size="10.00">SUB_NullThink</text>
</a>
</g>
</g>
<!-- Node17&#45;&gt;Node24 -->
<g id="edge30" class="edge"><title>Node17&#45;&gt;Node24</title>
<path fill="none" stroke="midnightblue" d="M1068.57,-173.763C1086.49,-161.553 1119.38,-140.394 1150,-127.284 1155.48,-124.937 1161.34,-122.789 1167.22,-120.85"/>
<polygon fill="midnightblue" stroke="midnightblue" points="1168.58,-124.095 1177.09,-117.787 1166.5,-117.409 1168.58,-124.095"/>
</g>
<!-- Node19&#45;&gt;Node15 -->
<g id="edge23" class="edge"><title>Node19&#45;&gt;Node15</title>
<path fill="none" stroke="midnightblue" d="M1263.1,-137.282C1284.76,-129.916 1310.5,-121.162 1330.81,-114.252"/>
<polygon fill="midnightblue" stroke="midnightblue" points="1331.97,-117.556 1340.31,-111.023 1329.71,-110.929 1331.97,-117.556"/>
</g>
<!-- Node20&#45;&gt;Node12 -->
<g id="edge25" class="edge"><title>Node20&#45;&gt;Node12</title>
<path fill="none" stroke="midnightblue" d="M1265.3,-255.326C1272.41,-258.266 1279.53,-261.598 1286,-265.284 1303.85,-275.45 1305.31,-282.306 1322,-294.284 1328.03,-298.611 1334.71,-303.037 1341,-307.056"/>
<polygon fill="midnightblue" stroke="midnightblue" points="1339.5,-310.244 1349.83,-312.594 1343.22,-304.315 1339.5,-310.244"/>
</g>
<!-- Node20&#45;&gt;Node18 -->
<g id="edge29" class="edge"><title>Node20&#45;&gt;Node18</title>
<path fill="none" stroke="midnightblue" d="M1270.41,-225.245C1292.49,-218.787 1317.49,-211.473 1336.39,-205.945"/>
<polygon fill="midnightblue" stroke="midnightblue" points="1337.59,-209.241 1346.2,-203.075 1335.62,-202.523 1337.59,-209.241"/>
</g>
<!-- Node21 -->
<g id="node21" class="node"><title>Node21</title>
<g id="a_node21"><a xlink:href="../../d5/df2/common_2util_8qh.html#ab749e3e330fc880590f606e9dae87c23" target="_top" xlink:title="cubic_speedfunc">
<polygon fill="none" stroke="black" points="1322,-227.784 1322,-246.784 1412,-246.784 1412,-227.784 1322,-227.784"/>
<text text-anchor="middle" x="1367" y="-234.784" font-family="Helvetica,sans-Serif" font-size="10.00">cubic_speedfunc</text>
</a>
</g>
</g>
<!-- Node20&#45;&gt;Node21 -->
<g id="edge26" class="edge"><title>Node20&#45;&gt;Node21</title>
<path fill="none" stroke="midnightblue" d="M1284.33,-238.951C1293.48,-238.764 1302.8,-238.574 1311.72,-238.392"/>
<polygon fill="midnightblue" stroke="midnightblue" points="1312.03,-241.886 1321.96,-238.183 1311.89,-234.887 1312.03,-241.886"/>
</g>
<!-- Node22 -->
<g id="node22" class="node"><title>Node22</title>
<g id="a_node22"><a xlink:href="../../d8/de2/menudefs_8qc.html#a822ea10e75a853993f2fa21149d76f4c" target="_top" xlink:title="vectoangles">
<polygon fill="none" stroke="black" points="1332.5,-265.784 1332.5,-284.784 1401.5,-284.784 1401.5,-265.784 1332.5,-265.784"/>
<text text-anchor="middle" x="1367" y="-272.784" font-family="Helvetica,sans-Serif" font-size="10.00">vectoangles</text>
</a>
</g>
</g>
<!-- Node20&#45;&gt;Node22 -->
<g id="edge27" class="edge"><title>Node20&#45;&gt;Node22</title>
<path fill="none" stroke="midnightblue" d="M1282.19,-255.33C1295.83,-258.576 1309.94,-261.936 1322.61,-264.953"/>
<polygon fill="midnightblue" stroke="midnightblue" points="1321.89,-268.378 1332.42,-267.29 1323.51,-261.569 1321.89,-268.378"/>
</g>
<!-- Node23 -->
<g id="node23" class="node"><title>Node23</title>
<g id="a_node23"><a xlink:href="../../d8/de2/menudefs_8qc.html#ad5a3e16aa960bd72d3ca37a618eea802" target="_top" xlink:title="floor">
<polygon fill="none" stroke="black" points="1349.5,-407.784 1349.5,-426.784 1384.5,-426.784 1384.5,-407.784 1349.5,-407.784"/>
<text text-anchor="middle" x="1367" y="-414.784" font-family="Helvetica,sans-Serif" font-size="10.00">floor</text>
</a>
</g>
</g>
<!-- Node20&#45;&gt;Node23 -->
<g id="edge28" class="edge"><title>Node20&#45;&gt;Node23</title>
<path fill="none" stroke="midnightblue" d="M1271.8,-255.355C1276.94,-258.14 1281.79,-261.421 1286,-265.284 1313.53,-290.562 1304.62,-308.194 1322,-341.284 1332.47,-361.214 1345.5,-383.437 1354.65,-398.678"/>
<polygon fill="midnightblue" stroke="midnightblue" points="1351.87,-400.845 1360.04,-407.59 1357.86,-397.222 1351.87,-400.845"/>
</g>
<!-- Node25&#45;&gt;Node11 -->
<g id="edge43" class="edge"><title>Node25&#45;&gt;Node11</title>
<path fill="none" stroke="midnightblue" d="M468.343,-291.779C485.744,-283.483 512.165,-271.518 536,-263.284 565.474,-253.101 755.946,-205.067 846.853,-182.305"/>
<polygon fill="midnightblue" stroke="midnightblue" points="847.792,-185.678 856.643,-179.854 846.092,-178.887 847.792,-185.678"/>
</g>
<!-- Node26 -->
<g id="node26" class="node"><title>Node26</title>
<g id="a_node26"><a xlink:href="../../d6/d9c/door_8qc.html#afbebfb6226c33715b304c0e6afa30ce4" target="_top" xlink:title="door_hit_top">
<polygon fill="none" stroke="black" points="555,-272.784 555,-291.784 625,-291.784 625,-272.784 555,-272.784"/>
<text text-anchor="middle" x="590" y="-279.784" font-family="Helvetica,sans-Serif" font-size="10.00">door_hit_top</text>
</a>
</g>
</g>
<!-- Node25&#45;&gt;Node26 -->
<g id="edge32" class="edge"><title>Node25&#45;&gt;Node26</title>
<path fill="none" stroke="midnightblue" d="M481.824,-296.829C500.63,-294.277 524.478,-291.04 544.902,-288.269"/>
<polygon fill="midnightblue" stroke="midnightblue" points="545.482,-291.722 554.92,-286.909 544.54,-284.786 545.482,-291.722"/>
</g>
<!-- Node31 -->
<g id="node31" class="node"><title>Node31</title>
<g id="a_node31"><a xlink:href="../../d6/d57/triggers_8qc.html#a3905086b3426d8a7b89fe8eff17368c6" target="_top" xlink:title="SUB_UseTargets">
<polygon fill="none" stroke="black" points="543,-310.784 543,-329.784 637,-329.784 637,-310.784 543,-310.784"/>
<text text-anchor="middle" x="590" y="-317.784" font-family="Helvetica,sans-Serif" font-size="10.00">SUB_UseTargets</text>
</a>
</g>
</g>
<!-- Node25&#45;&gt;Node31 -->
<g id="edge44" class="edge"><title>Node25&#45;&gt;Node31</title>
<path fill="none" stroke="midnightblue" d="M481.824,-305.738C497.025,-307.801 515.521,-310.312 532.84,-312.662"/>
<polygon fill="midnightblue" stroke="midnightblue" points="532.487,-316.146 542.867,-314.023 533.429,-309.21 532.487,-316.146"/>
</g>
<!-- Node26&#45;&gt;Node9 -->
<g id="edge33" class="edge"><title>Node26&#45;&gt;Node9</title>
<path fill="none" stroke="midnightblue" d="M604.305,-272.6C629.777,-254.058 685.639,-213.397 716.482,-190.946"/>
<polygon fill="midnightblue" stroke="midnightblue" points="718.806,-193.584 724.831,-184.869 714.687,-187.924 718.806,-193.584"/>
</g>
<!-- Node26&#45;&gt;Node27 -->
<g id="edge34" class="edge"><title>Node26&#45;&gt;Node27</title>
<path fill="none" stroke="midnightblue" d="M625.224,-290.411C631.945,-293.1 638.582,-296.64 644,-301.284 693.626,-343.822 721.561,-419.335 732.522,-454.828"/>
<polygon fill="midnightblue" stroke="midnightblue" points="729.185,-455.886 735.384,-464.478 735.896,-453.895 729.185,-455.886"/>
</g>
<!-- Node28 -->
<g id="node28" class="node"><title>Node28</title>
<g id="a_node28"><a xlink:href="../../d6/d9c/door_8qc.html#ace748e7903e525e33c72f0a971a0bece" target="_top" xlink:title="door_rotating_hit_bottom">
<polygon fill="none" stroke="black" points="834,-464.784 834,-483.784 958,-483.784 958,-464.784 834,-464.784"/>
<text text-anchor="middle" x="896" y="-471.784" font-family="Helvetica,sans-Serif" font-size="10.00">door_rotating_hit_bottom</text>
</a>
</g>
</g>
<!-- Node27&#45;&gt;Node28 -->
<g id="edge35" class="edge"><title>Node27&#45;&gt;Node28</title>
<path fill="none" stroke="midnightblue" d="M797.716,-474.284C806.192,-474.284 815.005,-474.284 823.714,-474.284"/>
<polygon fill="midnightblue" stroke="midnightblue" points="823.862,-477.784 833.862,-474.284 823.862,-470.784 823.862,-477.784"/>
</g>
<!-- Node29 -->
<g id="node29" class="node"><title>Node29</title>
<g id="a_node29"><a xlink:href="../../d2/dc2/subs_8qc.html#a9f52f1ab3e5f360bfe0de175c3f16e6c" target="_top" xlink:title="SUB_CalcAngleMove">
<polygon fill="none" stroke="black" points="998,-426.784 998,-445.784 1110,-445.784 1110,-426.784 998,-426.784"/>
<text text-anchor="middle" x="1054" y="-433.784" font-family="Helvetica,sans-Serif" font-size="10.00">SUB_CalcAngleMove</text>
</a>
</g>
</g>
<!-- Node27&#45;&gt;Node29 -->
<g id="edge36" class="edge"><title>Node27&#45;&gt;Node29</title>
<path fill="none" stroke="midnightblue" d="M771.318,-483.821C814.239,-495.369 893.379,-511.183 958,-493.284 986.673,-485.342 1015.38,-466.186 1033.61,-452.268"/>
<polygon fill="midnightblue" stroke="midnightblue" points="1035.98,-454.861 1041.67,-445.929 1031.65,-449.358 1035.98,-454.861"/>
</g>
<!-- Node29&#45;&gt;Node12 -->
<g id="edge39" class="edge"><title>Node29&#45;&gt;Node12</title>
<path fill="none" stroke="midnightblue" d="M1110.43,-441.425C1159.32,-443.508 1231.11,-440.433 1286,-412.284 1317.46,-396.153 1342.26,-362.063 1355.48,-340.778"/>
<polygon fill="midnightblue" stroke="midnightblue" points="1358.59,-342.39 1360.72,-332.01 1352.58,-338.799 1358.59,-342.39"/>
</g>
<!-- Node29&#45;&gt;Node13 -->
<g id="edge37" class="edge"><title>Node29&#45;&gt;Node13</title>
<path fill="none" stroke="midnightblue" d="M1075.52,-426.658C1103.76,-413.41 1154.79,-389.471 1187.22,-374.253"/>
<polygon fill="midnightblue" stroke="midnightblue" points="1189.08,-377.247 1196.65,-369.831 1186.11,-370.91 1189.08,-377.247"/>
</g>
<!-- Node29&#45;&gt;Node16 -->
<g id="edge40" class="edge"><title>Node29&#45;&gt;Node16</title>
<path fill="none" stroke="midnightblue" d="M1064.19,-426.589C1080.88,-409.109 1117.43,-371.335 1150,-341.284 1165.43,-327.048 1183.61,-311.665 1197.13,-300.471"/>
<polygon fill="midnightblue" stroke="midnightblue" points="1199.39,-303.148 1204.89,-294.091 1194.94,-297.742 1199.39,-303.148"/>
</g>
<!-- Node29&#45;&gt;Node23 -->
<g id="edge38" class="edge"><title>Node29&#45;&gt;Node23</title>
<path fill="none" stroke="midnightblue" d="M1100.61,-445.831C1147.54,-454.078 1222.55,-462.857 1286,-450.284 1304.86,-446.547 1324.85,-438.3 1340.14,-430.986"/>
<polygon fill="midnightblue" stroke="midnightblue" points="1342.04,-433.95 1349.44,-426.371 1338.93,-427.679 1342.04,-433.95"/>
</g>
<!-- Node30 -->
<g id="node30" class="node"><title>Node30</title>
<g id="a_node30"><a xlink:href="../../d2/dc2/subs_8qc.html#afa53bb9aaf31d08e9b3e68b0b215596c" target="_top" xlink:title="SUB_CalcAngleMoveDone">
<polygon fill="none" stroke="black" points="1150.5,-502.784 1150.5,-521.784 1285.5,-521.784 1285.5,-502.784 1150.5,-502.784"/>
<text text-anchor="middle" x="1218" y="-509.784" font-family="Helvetica,sans-Serif" font-size="10.00">SUB_CalcAngleMoveDone</text>
</a>
</g>
</g>
<!-- Node29&#45;&gt;Node30 -->
<g id="edge41" class="edge"><title>Node29&#45;&gt;Node30</title>
<path fill="none" stroke="midnightblue" d="M1070.75,-445.903C1089.28,-456.987 1121.19,-475.335 1150,-488.284 1158.77,-492.227 1168.41,-495.991 1177.56,-499.32"/>
<polygon fill="midnightblue" stroke="midnightblue" points="1176.66,-502.712 1187.25,-502.751 1178.99,-496.114 1176.66,-502.712"/>
</g>
<!-- Node30&#45;&gt;Node30 -->
<g id="edge42" class="edge"><title>Node30&#45;&gt;Node30</title>
<path fill="none" stroke="midnightblue" d="M1195.19,-522.041C1184.09,-530.849 1191.7,-540.284 1218,-540.284 1235.26,-540.284 1244.47,-536.221 1245.63,-530.938"/>
<polygon fill="midnightblue" stroke="midnightblue" points="1248.65,-529.17 1240.81,-522.041 1242.49,-532.501 1248.65,-529.17"/>
</g>
<!-- Node32 -->
<g id="node32" class="node"><title>Node32</title>
<g id="a_node32"><a xlink:href="../../d6/d57/triggers_8qc.html#aecde2ff58098fdd6d2d87d27dfea8282" target="_top" xlink:title="SUB_UseTargets_Ex">
<polygon fill="none" stroke="black" points="683.5,-310.784 683.5,-329.784 794.5,-329.784 794.5,-310.784 683.5,-310.784"/>
<text text-anchor="middle" x="739" y="-317.784" font-family="Helvetica,sans-Serif" font-size="10.00">SUB_UseTargets_Ex</text>
</a>
</g>
</g>
<!-- Node31&#45;&gt;Node32 -->
<g id="edge45" class="edge"><title>Node31&#45;&gt;Node32</title>
<path fill="none" stroke="midnightblue" d="M637.108,-320.284C648.554,-320.284 661.034,-320.284 673.193,-320.284"/>
<polygon fill="midnightblue" stroke="midnightblue" points="673.3,-323.784 683.3,-320.284 673.3,-316.784 673.3,-323.784"/>
</g>
<!-- Node32&#45;&gt;Node6 -->
<g id="edge50" class="edge"><title>Node32&#45;&gt;Node6</title>
<path fill="none" stroke="midnightblue" d="M744.521,-330.006C757.177,-356.878 794.619,-434.088 834,-493.284 847.944,-514.244 866.287,-536.514 879.204,-551.49"/>
<polygon fill="midnightblue" stroke="midnightblue" points="876.895,-554.168 886.108,-559.4 882.169,-549.565 876.895,-554.168"/>
</g>
<!-- Node32&#45;&gt;Node18 -->
<g id="edge46" class="edge"><title>Node32&#45;&gt;Node18</title>
<path fill="none" stroke="midnightblue" d="M773.581,-329.884C879.866,-359.376 1206.57,-442.918 1286,-379.284 1343.22,-333.442 1276.31,-275.631 1322,-218.284 1325.92,-213.364 1331.27,-209.531 1336.89,-206.569"/>
<polygon fill="midnightblue" stroke="midnightblue" points="1338.67,-209.609 1346.4,-202.366 1335.84,-203.206 1338.67,-209.609"/>
</g>
<!-- Node33 -->
<g id="node33" class="node"><title>Node33</title>
<g id="a_node33"><a xlink:href="../../d6/d57/triggers_8qc.html#a1c58d77ea3f4858ed96288710690cf98" target="_top" xlink:title="DelayThink">
<polygon fill="none" stroke="black" points="863,-198.784 863,-217.784 929,-217.784 929,-198.784 863,-198.784"/>
<text text-anchor="middle" x="896" y="-205.784" font-family="Helvetica,sans-Serif" font-size="10.00">DelayThink</text>
</a>
</g>
</g>
<!-- Node32&#45;&gt;Node33 -->
<g id="edge47" class="edge"><title>Node32&#45;&gt;Node33</title>
<path fill="none" stroke="midnightblue" d="M769.639,-310.764C779.49,-306.55 789.981,-300.808 798,-293.284 822.367,-270.421 808.16,-248.467 834,-227.284 839.661,-222.643 846.458,-219.132 853.429,-216.476"/>
<polygon fill="midnightblue" stroke="midnightblue" points="854.535,-219.797 862.951,-213.361 852.358,-213.144 854.535,-219.797"/>
</g>
<!-- Node34 -->
<g id="node34" class="node"><title>Node34</title>
<g id="a_node34"><a xlink:href="../../d8/de2/menudefs_8qc.html#aa90038262dd0464a4c251487bc5efc9f" target="_top" xlink:title="centerprint">
<polygon fill="none" stroke="black" points="865,-274.784 865,-293.784 927,-293.784 927,-274.784 865,-274.784"/>
<text text-anchor="middle" x="896" y="-281.784" font-family="Helvetica,sans-Serif" font-size="10.00">centerprint</text>
</a>
</g>
</g>
<!-- Node32&#45;&gt;Node34 -->
<g id="edge49" class="edge"><title>Node32&#45;&gt;Node34</title>
<path fill="none" stroke="midnightblue" d="M781.13,-310.731C803.996,-305.42 832.325,-298.841 855.006,-293.573"/>
<polygon fill="midnightblue" stroke="midnightblue" points="856.041,-296.926 864.99,-291.254 854.457,-290.107 856.041,-296.926"/>
</g>
<!-- Node35 -->
<g id="node35" class="node"><title>Node35</title>
<g id="a_node35"><a xlink:href="../../d8/de2/menudefs_8qc.html#a53c4a8e7afd17cad92bc00adba96bb78" target="_top" xlink:title="find">
<polygon fill="none" stroke="black" points="880,-236.784 880,-255.784 912,-255.784 912,-236.784 880,-236.784"/>
<text text-anchor="middle" x="896" y="-243.784" font-family="Helvetica,sans-Serif" font-size="10.00">find</text>
</a>
</g>
</g>
<!-- Node32&#45;&gt;Node35 -->
<g id="edge51" class="edge"><title>Node32&#45;&gt;Node35</title>
<path fill="none" stroke="midnightblue" d="M763.765,-310.67C774.511,-305.961 787.194,-299.884 798,-293.284 815.298,-282.717 816.035,-274.671 834,-265.284 845.29,-259.385 858.727,-254.954 870.112,-251.863"/>
<polygon fill="midnightblue" stroke="midnightblue" points="871.033,-255.24 879.871,-249.396 869.318,-248.453 871.033,-255.24"/>
</g>
<!-- Node36 -->
<g id="node36" class="node"><title>Node36</title>
<g id="a_node36"><a xlink:href="../../dc/d95/random_8qc.html#a2d70d358bbf6aa8252f2aebc596d67c1" target="_top" xlink:title="RandomSelection_Init">
<polygon fill="none" stroke="black" points="839.5,-312.784 839.5,-331.784 952.5,-331.784 952.5,-312.784 839.5,-312.784"/>
<text text-anchor="middle" x="896" y="-319.784" font-family="Helvetica,sans-Serif" font-size="10.00">RandomSelection_Init</text>
</a>
</g>
</g>
<!-- Node32&#45;&gt;Node36 -->
<g id="edge52" class="edge"><title>Node32&#45;&gt;Node36</title>
<path fill="none" stroke="midnightblue" d="M794.647,-320.989C805.838,-321.133 817.726,-321.287 829.259,-321.436"/>
<polygon fill="midnightblue" stroke="midnightblue" points="829.231,-324.935 839.276,-321.565 829.322,-317.936 829.231,-324.935"/>
</g>
<!-- Node33&#45;&gt;Node31 -->
<g id="edge48" class="edge"><title>Node33&#45;&gt;Node31</title>
<path fill="none" stroke="midnightblue" d="M862.887,-217.828C853.53,-220.733 843.318,-224.023 834,-227.284 748.465,-257.221 728.884,-269.546 644,-301.284 638.735,-303.252 633.162,-305.295 627.684,-307.279"/>
<polygon fill="midnightblue" stroke="midnightblue" points="626.238,-304.08 618.014,-310.759 628.609,-310.666 626.238,-304.08"/>
</g>
<!-- Node37&#45;&gt;Node29 -->
<g id="edge57" class="edge"><title>Node37&#45;&gt;Node29</title>
<path fill="none" stroke="midnightblue" d="M500.236,-401.507C609.702,-408.394 866.256,-424.535 987.423,-432.158"/>
<polygon fill="midnightblue" stroke="midnightblue" points="987.465,-435.668 997.665,-432.803 987.905,-428.681 987.465,-435.668"/>
</g>
<!-- Node37&#45;&gt;Node31 -->
<g id="edge58" class="edge"><title>Node37&#45;&gt;Node31</title>
<path fill="none" stroke="midnightblue" d="M466.167,-388.72C490.308,-375.27 534.491,-350.653 562.766,-334.9"/>
<polygon fill="midnightblue" stroke="midnightblue" points="564.661,-337.851 571.693,-329.926 561.254,-331.736 564.661,-337.851"/>
</g>
<!-- Node38 -->
<g id="node38" class="node"><title>Node38</title>
<g id="a_node38"><a xlink:href="../../d6/d9c/door_8qc.html#ab45d7a6a8e7aa74534c866de88c80603" target="_top" xlink:title="door_rotating_hit_top">
<polygon fill="none" stroke="black" points="536.5,-426.784 536.5,-445.784 643.5,-445.784 643.5,-426.784 536.5,-426.784"/>
<text text-anchor="middle" x="590" y="-433.784" font-family="Helvetica,sans-Serif" font-size="10.00">door_rotating_hit_top</text>
</a>
</g>
</g>
<!-- Node37&#45;&gt;Node38 -->
<g id="edge55" class="edge"><title>Node37&#45;&gt;Node38</title>
<path fill="none" stroke="midnightblue" d="M484.328,-407.873C502.401,-412.778 524.598,-418.803 543.895,-424.041"/>
<polygon fill="midnightblue" stroke="midnightblue" points="543.116,-427.456 553.683,-426.698 544.949,-420.701 543.116,-427.456"/>
</g>
<!-- Node38&#45;&gt;Node27 -->
<g id="edge56" class="edge"><title>Node38&#45;&gt;Node27</title>
<path fill="none" stroke="midnightblue" d="M628.094,-445.873C647.318,-450.842 670.986,-456.961 691.429,-462.245"/>
<polygon fill="midnightblue" stroke="midnightblue" points="690.615,-465.65 701.172,-464.764 692.367,-458.872 690.615,-465.65"/>
</g>
</g>
</svg>
