<?xml version="1.0" encoding="UTF-8" standalone="no"?>
<!DOCTYPE svg PUBLIC "-//W3C//DTD SVG 1.1//EN"
 "http://www.w3.org/Graphics/SVG/1.1/DTD/svg11.dtd">
<!-- Generated by graphviz version 2.36.0 (20140111.2315)
 -->
<!-- Title: IsFlying Pages: 1 -->
<svg width="1304pt" height="220pt"
 viewBox="0.00 0.00 1304.00 220.00" xmlns="http://www.w3.org/2000/svg" xmlns:xlink="http://www.w3.org/1999/xlink">
<g id="graph0" class="graph" transform="scale(1 1) rotate(0) translate(4 216)">
<title>IsFlying</title>
<!-- Node1 -->
<g id="node1" class="node"><title>Node1</title>
<polygon fill="#bfbfbf" stroke="black" points="0.5,-31.5 0.5,-50.5 51.5,-50.5 51.5,-31.5 0.5,-31.5"/>
<text text-anchor="middle" x="26" y="-38.5" font-family="Helvetica,sans-Serif" font-size="10.00">IsFlying</text>
</g>
<!-- Node2 -->
<g id="node2" class="node"><title>Node2</title>
<g id="a_node2"><a xlink:href="../../dd/de4/g__damage_8qh.html#ad1d833615f56d11e3c3a9facc944aaf6" target="_top" xlink:title="Damage">
<polygon fill="none" stroke="black" points="88.5,-72.5 88.5,-91.5 141.5,-91.5 141.5,-72.5 88.5,-72.5"/>
<text text-anchor="middle" x="115" y="-79.5" font-family="Helvetica,sans-Serif" font-size="10.00">Damage</text>
</a>
</g>
</g>
<!-- Node1&#45;&gt;Node2 -->
<g id="edge1" class="edge"><title>Node1&#45;&gt;Node2</title>
<path fill="none" stroke="midnightblue" d="M56.5308,-54.9168C68.7375,-60.6694 82.586,-67.1957 93.6298,-72.4003"/>
<polygon fill="midnightblue" stroke="midnightblue" points="57.7161,-51.6063 47.1782,-50.5093 54.732,-57.9384 57.7161,-51.6063"/>
</g>
<!-- Node20 -->
<g id="node20" class="node"><title>Node20</title>
<g id="a_node20"><a xlink:href="../../dc/ddd/player_8qc.html#a672a0ccf602525346ee1acb1337367fe" target="_top" xlink:title="PM_Main">
<polygon fill="none" stroke="black" points="1104,-28.5 1104,-47.5 1162,-47.5 1162,-28.5 1104,-28.5"/>
<text text-anchor="middle" x="1133" y="-35.5" font-family="Helvetica,sans-Serif" font-size="10.00">PM_Main</text>
</a>
</g>
</g>
<!-- Node1&#45;&gt;Node20 -->
<g id="edge28" class="edge"><title>Node1&#45;&gt;Node20</title>
<path fill="none" stroke="midnightblue" d="M61.2867,-30.3233C103.401,-18.1752 177.232,-0 242,-0 242,-0 242,-0 828,-0 933.228,-0 960.405,-0.533937 1064,-19 1077.27,-21.3662 1091.7,-25.2069 1103.83,-28.8181"/>
<polygon fill="midnightblue" stroke="midnightblue" points="60.1444,-27.011 51.5392,-33.1917 62.1205,-33.7262 60.1444,-27.011"/>
</g>
<!-- Node2&#45;&gt;Node2 -->
<g id="edge2" class="edge"><title>Node2&#45;&gt;Node2</title>
<path fill="none" stroke="midnightblue" d="M98.7045,-101.4C99.7928,-106.315 105.225,-110 115,-110 130.641,-110 135.162,-100.565 128.563,-91.7571"/>
<polygon fill="midnightblue" stroke="midnightblue" points="102.078,-102.332 101.437,-91.7571 95.3431,-100.424 102.078,-102.332"/>
</g>
<!-- Node3 -->
<g id="node3" class="node"><title>Node3</title>
<g id="a_node3"><a xlink:href="../../dd/de4/g__damage_8qh.html#abd4b4c82626ed46a05b72420db7257a1" target="_top" xlink:title="Fire_ApplyDamage">
<polygon fill="none" stroke="black" points="193,-129.5 193,-148.5 293,-148.5 293,-129.5 193,-129.5"/>
<text text-anchor="middle" x="243" y="-136.5" font-family="Helvetica,sans-Serif" font-size="10.00">Fire_ApplyDamage</text>
</a>
</g>
</g>
<!-- Node2&#45;&gt;Node3 -->
<g id="edge3" class="edge"><title>Node2&#45;&gt;Node3</title>
<path fill="none" stroke="midnightblue" d="M146.411,-95.7574C169.433,-106.172 200.466,-120.211 220.842,-129.428"/>
<polygon fill="midnightblue" stroke="midnightblue" points="147.643,-92.4734 137.09,-91.5405 144.758,-98.8511 147.643,-92.4734"/>
</g>
<!-- Node11 -->
<g id="node11" class="node"><title>Node11</title>
<g id="a_node11"><a xlink:href="../../dd/de4/g__damage_8qh.html#ac0534ca58f7521ce132a0694ffeb629a" target="_top" xlink:title="RadiusDamageForSource">
<polygon fill="none" stroke="black" points="178.5,-72.5 178.5,-91.5 307.5,-91.5 307.5,-72.5 178.5,-72.5"/>
<text text-anchor="middle" x="243" y="-79.5" font-family="Helvetica,sans-Serif" font-size="10.00">RadiusDamageForSource</text>
</a>
</g>
</g>
<!-- Node2&#45;&gt;Node11 -->
<g id="edge12" class="edge"><title>Node2&#45;&gt;Node11</title>
<path fill="none" stroke="midnightblue" d="M151.891,-82C160.233,-82 169.358,-82 178.497,-82"/>
<polygon fill="midnightblue" stroke="midnightblue" points="151.802,-78.5001 141.802,-82 151.802,-85.5001 151.802,-78.5001"/>
</g>
<!-- Node4 -->
<g id="node4" class="node"><title>Node4</title>
<g id="a_node4"><a xlink:href="../../dd/de4/g__damage_8qh.html#ac8e7365380b51642cac52fd3e70733aa" target="_top" xlink:title="fireburner_think">
<polygon fill="none" stroke="black" points="347.5,-186.5 347.5,-205.5 430.5,-205.5 430.5,-186.5 347.5,-186.5"/>
<text text-anchor="middle" x="389" y="-193.5" font-family="Helvetica,sans-Serif" font-size="10.00">fireburner_think</text>
</a>
</g>
</g>
<!-- Node3&#45;&gt;Node4 -->
<g id="edge4" class="edge"><title>Node3&#45;&gt;Node4</title>
<path fill="none" stroke="midnightblue" d="M277.703,-152.341C304.114,-162.795 340.221,-177.087 363.819,-186.428"/>
<polygon fill="midnightblue" stroke="midnightblue" points="278.689,-148.967 268.102,-148.541 276.112,-155.475 278.689,-148.967"/>
</g>
<!-- Node10 -->
<g id="node10" class="node"><title>Node10</title>
<g id="a_node10"><a xlink:href="../../da/d53/cl__client_8qc.html#a4b793ead3ecba4010f267f2a20373890" target="_top" xlink:title="player_powerups">
<polygon fill="none" stroke="black" points="344,-148.5 344,-167.5 434,-167.5 434,-148.5 344,-148.5"/>
<text text-anchor="middle" x="389" y="-155.5" font-family="Helvetica,sans-Serif" font-size="10.00">player_powerups</text>
</a>
</g>
</g>
<!-- Node3&#45;&gt;Node10 -->
<g id="edge11" class="edge"><title>Node3&#45;&gt;Node10</title>
<path fill="none" stroke="midnightblue" d="M303.37,-146.834C316.93,-148.623 331.107,-150.493 343.895,-152.181"/>
<polygon fill="midnightblue" stroke="midnightblue" points="303.526,-143.324 293.154,-145.486 302.61,-150.264 303.526,-143.324"/>
</g>
<!-- Node5 -->
<g id="node5" class="node"><title>Node5</title>
<g id="a_node5"><a xlink:href="../../dd/de4/g__damage_8qh.html#a6fa1a68d8d18ee269438276ad351c0e9" target="_top" xlink:title="Fire_AddDamage">
<polygon fill="none" stroke="black" points="473,-186.5 473,-205.5 565,-205.5 565,-186.5 473,-186.5"/>
<text text-anchor="middle" x="519" y="-193.5" font-family="Helvetica,sans-Serif" font-size="10.00">Fire_AddDamage</text>
</a>
</g>
</g>
<!-- Node4&#45;&gt;Node5 -->
<g id="edge5" class="edge"><title>Node4&#45;&gt;Node5</title>
<path fill="none" stroke="midnightblue" d="M441.085,-196C451.521,-196 462.435,-196 472.654,-196"/>
<polygon fill="midnightblue" stroke="midnightblue" points="440.852,-192.5 430.852,-196 440.852,-199.5 440.852,-192.5"/>
</g>
<!-- Node5&#45;&gt;Node3 -->
<g id="edge10" class="edge"><title>Node5&#45;&gt;Node3</title>
<path fill="none" stroke="midnightblue" d="M500.753,-179.666C484.837,-165.802 459.823,-146.934 434,-139 387.807,-124.807 332.26,-126.858 293.194,-131.21"/>
<polygon fill="midnightblue" stroke="midnightblue" points="498.43,-182.284 508.204,-186.375 503.115,-177.082 498.43,-182.284"/>
</g>
<!-- Node6 -->
<g id="node6" class="node"><title>Node6</title>
<g id="a_node6"><a xlink:href="../../d3/d4f/sv__main_8qc.html#ab040f482f9f20fab4279b2f2caf806c8" target="_top" xlink:title="CreatureFrame_hotliquids">
<polygon fill="none" stroke="black" points="604,-192.5 604,-211.5 732,-211.5 732,-192.5 604,-192.5"/>
<text text-anchor="middle" x="668" y="-199.5" font-family="Helvetica,sans-Serif" font-size="10.00">CreatureFrame_hotliquids</text>
</a>
</g>
</g>
<!-- Node5&#45;&gt;Node6 -->
<g id="edge6" class="edge"><title>Node5&#45;&gt;Node6</title>
<path fill="none" stroke="midnightblue" d="M575.507,-198.266C584.726,-198.642 594.346,-199.035 603.739,-199.418"/>
<polygon fill="midnightblue" stroke="midnightblue" points="575.439,-194.76 565.304,-197.849 575.153,-201.754 575.439,-194.76"/>
</g>
<!-- Node7 -->
<g id="node7" class="node"><title>Node7</title>
<g id="a_node7"><a xlink:href="../../d3/d4f/sv__main_8qc.html#a76853aeafe130f8c85d194596b3475c6" target="_top" xlink:title="CreatureFrame_Liquids">
<polygon fill="none" stroke="black" points="768,-181.5 768,-200.5 886,-200.5 886,-181.5 768,-181.5"/>
<text text-anchor="middle" x="827" y="-188.5" font-family="Helvetica,sans-Serif" font-size="10.00">CreatureFrame_Liquids</text>
</a>
</g>
</g>
<!-- Node6&#45;&gt;Node7 -->
<g id="edge7" class="edge"><title>Node6&#45;&gt;Node7</title>
<path fill="none" stroke="midnightblue" d="M742.401,-196.857C750.969,-196.257 759.618,-195.651 767.938,-195.068"/>
<polygon fill="midnightblue" stroke="midnightblue" points="742.136,-193.367 732.405,-197.558 742.626,-200.35 742.136,-193.367"/>
</g>
<!-- Node8 -->
<g id="node8" class="node"><title>Node8</title>
<g id="a_node8"><a xlink:href="../../d3/d4f/sv__main_8qc.html#ad554e5161275ecc9b8656a805c57a010" target="_top" xlink:title="CreatureFrame_All">
<polygon fill="none" stroke="black" points="944,-163.5 944,-182.5 1042,-182.5 1042,-163.5 944,-163.5"/>
<text text-anchor="middle" x="993" y="-170.5" font-family="Helvetica,sans-Serif" font-size="10.00">CreatureFrame_All</text>
</a>
</g>
</g>
<!-- Node7&#45;&gt;Node8 -->
<g id="edge8" class="edge"><title>Node7&#45;&gt;Node8</title>
<path fill="none" stroke="midnightblue" d="M896.608,-183.47C912.512,-181.724 929.107,-179.903 943.911,-178.278"/>
<polygon fill="midnightblue" stroke="midnightblue" points="895.84,-180.033 886.282,-184.603 896.604,-186.991 895.84,-180.033"/>
</g>
<!-- Node9 -->
<g id="node9" class="node"><title>Node9</title>
<g id="a_node9"><a xlink:href="../../d3/d4f/sv__main_8qc.html#a554af7e2ac58045168dad9eca30bc8b1" target="_top" xlink:title="StartFrame">
<polygon fill="none" stroke="black" points="1100.5,-137.5 1100.5,-156.5 1165.5,-156.5 1165.5,-137.5 1100.5,-137.5"/>
<text text-anchor="middle" x="1133" y="-144.5" font-family="Helvetica,sans-Serif" font-size="10.00">StartFrame</text>
</a>
</g>
</g>
<!-- Node8&#45;&gt;Node9 -->
<g id="edge9" class="edge"><title>Node8&#45;&gt;Node9</title>
<path fill="none" stroke="midnightblue" d="M1052.38,-162.001C1068.85,-158.897 1086.15,-155.637 1100.4,-152.953"/>
<polygon fill="midnightblue" stroke="midnightblue" points="1051.44,-158.615 1042.27,-163.906 1052.74,-165.494 1051.44,-158.615"/>
</g>
<!-- Node12 -->
<g id="node12" class="node"><title>Node12</title>
<g id="a_node12"><a xlink:href="../../dd/de4/g__damage_8qh.html#a377b547a7053468290f13dffb6342b89" target="_top" xlink:title="RadiusDamage">
<polygon fill="none" stroke="black" points="347,-72.5 347,-91.5 431,-91.5 431,-72.5 347,-72.5"/>
<text text-anchor="middle" x="389" y="-79.5" font-family="Helvetica,sans-Serif" font-size="10.00">RadiusDamage</text>
</a>
</g>
</g>
<!-- Node11&#45;&gt;Node12 -->
<g id="edge13" class="edge"><title>Node11&#45;&gt;Node12</title>
<path fill="none" stroke="midnightblue" d="M317.881,-82C327.78,-82 337.632,-82 346.687,-82"/>
<polygon fill="midnightblue" stroke="midnightblue" points="317.58,-78.5001 307.58,-82 317.58,-85.5001 317.58,-78.5001"/>
</g>
<!-- Node13 -->
<g id="node13" class="node"><title>Node13</title>
<g id="a_node13"><a xlink:href="../../da/d10/sv__vehicles_8qc.html#a49866c50c6ad916515cc5cd47d745fd8" target="_top" xlink:title="vehicles_projectile\l_explode">
<polygon fill="none" stroke="black" points="470.5,-105 470.5,-135 567.5,-135 567.5,-105 470.5,-105"/>
<text text-anchor="start" x="478.5" y="-123" font-family="Helvetica,sans-Serif" font-size="10.00">vehicles_projectile</text>
<text text-anchor="middle" x="519" y="-112" font-family="Helvetica,sans-Serif" font-size="10.00">_explode</text>
</a>
</g>
</g>
<!-- Node12&#45;&gt;Node13 -->
<g id="edge14" class="edge"><title>Node12&#45;&gt;Node13</title>
<path fill="none" stroke="midnightblue" d="M432.198,-94.5276C444.371,-98.1413 457.738,-102.11 470.224,-105.816"/>
<polygon fill="midnightblue" stroke="midnightblue" points="432.882,-91.0798 422.3,-91.589 430.89,-97.7903 432.882,-91.0798"/>
</g>
<!-- Node16 -->
<g id="node16" class="node"><title>Node16</title>
<g id="a_node16"><a xlink:href="../../d3/dca/cheats_8qh.html#a73c94da2bf38acf3536154e899458024" target="_top" xlink:title="CheatImpulse">
<polygon fill="none" stroke="black" points="480.5,-66.5 480.5,-85.5 557.5,-85.5 557.5,-66.5 480.5,-66.5"/>
<text text-anchor="middle" x="519" y="-73.5" font-family="Helvetica,sans-Serif" font-size="10.00">CheatImpulse</text>
</a>
</g>
</g>
<!-- Node12&#45;&gt;Node16 -->
<g id="edge18" class="edge"><title>Node12&#45;&gt;Node16</title>
<path fill="none" stroke="midnightblue" d="M441.435,-79.589C454.438,-78.9795 468.161,-78.3362 480.342,-77.7652"/>
<polygon fill="midnightblue" stroke="midnightblue" points="441.03,-76.104 431.205,-80.0685 441.358,-83.0964 441.03,-76.104"/>
</g>
<!-- Node14 -->
<g id="node14" class="node"><title>Node14</title>
<g id="a_node14"><a xlink:href="../../da/d10/sv__vehicles_8qc.html#a6e5c573964dc1f64a84660225655a8db" target="_top" xlink:title="vehicles_projectile">
<polygon fill="none" stroke="black" points="778.5,-121.5 778.5,-140.5 875.5,-140.5 875.5,-121.5 778.5,-121.5"/>
<text text-anchor="middle" x="827" y="-128.5" font-family="Helvetica,sans-Serif" font-size="10.00">vehicles_projectile</text>
</a>
</g>
</g>
<!-- Node13&#45;&gt;Node14 -->
<g id="edge15" class="edge"><title>Node13&#45;&gt;Node14</title>
<path fill="none" stroke="midnightblue" d="M573.747,-137.742C583.702,-140.344 594.087,-142.612 604,-144 663.646,-152.354 733.035,-145.699 778.145,-139.225"/>
<polygon fill="midnightblue" stroke="midnightblue" points="574.54,-134.331 563.969,-135.05 572.681,-141.079 574.54,-134.331"/>
</g>
<!-- Node15 -->
<g id="node15" class="node"><title>Node15</title>
<g id="a_node15"><a xlink:href="../../da/d10/sv__vehicles_8qc.html#ad8fab4bff1fd3bd8871f5141c39085ad" target="_top" xlink:title="vehicles_projectile\l_explode_use">
<polygon fill="none" stroke="black" points="619.5,-105 619.5,-135 716.5,-135 716.5,-105 619.5,-105"/>
<text text-anchor="start" x="627.5" y="-123" font-family="Helvetica,sans-Serif" font-size="10.00">vehicles_projectile</text>
<text text-anchor="middle" x="668" y="-112" font-family="Helvetica,sans-Serif" font-size="10.00">_explode_use</text>
</a>
</g>
</g>
<!-- Node13&#45;&gt;Node15 -->
<g id="edge16" class="edge"><title>Node13&#45;&gt;Node15</title>
<path fill="none" stroke="midnightblue" d="M578.003,-120C591.677,-120 606.1,-120 619.261,-120"/>
<polygon fill="midnightblue" stroke="midnightblue" points="577.727,-116.5 567.727,-120 577.727,-123.5 577.727,-116.5"/>
</g>
<!-- Node15&#45;&gt;Node14 -->
<g id="edge17" class="edge"><title>Node15&#45;&gt;Node14</title>
<path fill="none" stroke="midnightblue" d="M726.87,-124.055C743.811,-125.242 762.132,-126.525 778.36,-127.662"/>
<polygon fill="midnightblue" stroke="midnightblue" points="726.751,-120.538 716.531,-123.33 726.262,-127.521 726.751,-120.538"/>
</g>
<!-- Node17 -->
<g id="node17" class="node"><title>Node17</title>
<g id="a_node17"><a xlink:href="../../d4/dd3/cl__impulse_8qh.html#a592fd33e424a2e05854957b679c37e1b" target="_top" xlink:title="ImpulseCommands">
<polygon fill="none" stroke="black" points="617.5,-66.5 617.5,-85.5 718.5,-85.5 718.5,-66.5 617.5,-66.5"/>
<text text-anchor="middle" x="668" y="-73.5" font-family="Helvetica,sans-Serif" font-size="10.00">ImpulseCommands</text>
</a>
</g>
</g>
<!-- Node16&#45;&gt;Node17 -->
<g id="edge19" class="edge"><title>Node16&#45;&gt;Node17</title>
<path fill="none" stroke="midnightblue" d="M567.957,-76C583.777,-76 601.401,-76 617.346,-76"/>
<polygon fill="midnightblue" stroke="midnightblue" points="567.856,-72.5001 557.856,-76 567.856,-79.5001 567.856,-72.5001"/>
</g>
<!-- Node22 -->
<g id="node22" class="node"><title>Node22</title>
<g id="a_node22"><a xlink:href="../../dc/ddd/player_8qc.html#aba6bcdf9b4bf24fa41a76f0cca28fa9b" target="_top" xlink:title="SpecialCommand">
<polygon fill="none" stroke="black" points="780,-28.5 780,-47.5 874,-47.5 874,-28.5 780,-28.5"/>
<text text-anchor="middle" x="827" y="-35.5" font-family="Helvetica,sans-Serif" font-size="10.00">SpecialCommand</text>
</a>
</g>
</g>
<!-- Node16&#45;&gt;Node22 -->
<g id="edge25" class="edge"><title>Node16&#45;&gt;Node22</title>
<path fill="none" stroke="midnightblue" d="M566.861,-64.2074C578.902,-61.5065 591.88,-58.8803 604,-57 664.396,-47.6302 734.805,-42.5888 779.861,-40.102"/>
<polygon fill="midnightblue" stroke="midnightblue" points="565.964,-60.8223 557.006,-66.4791 567.537,-67.6434 565.964,-60.8223"/>
</g>
<!-- Node18 -->
<g id="node18" class="node"><title>Node18</title>
<g id="a_node18"><a xlink:href="../../da/d53/cl__client_8qc.html#a35da2ff46a7d16ee6dd935fc1e65a72c" target="_top" xlink:title="PlayerPostThink">
<polygon fill="none" stroke="black" points="782.5,-66.5 782.5,-85.5 871.5,-85.5 871.5,-66.5 782.5,-66.5"/>
<text text-anchor="middle" x="827" y="-73.5" font-family="Helvetica,sans-Serif" font-size="10.00">PlayerPostThink</text>
</a>
</g>
</g>
<!-- Node17&#45;&gt;Node18 -->
<g id="edge20" class="edge"><title>Node17&#45;&gt;Node18</title>
<path fill="none" stroke="midnightblue" d="M728.973,-76C746.777,-76 765.929,-76 782.475,-76"/>
<polygon fill="midnightblue" stroke="midnightblue" points="728.676,-72.5001 718.676,-76 728.676,-79.5001 728.676,-72.5001"/>
</g>
<!-- Node18&#45;&gt;Node9 -->
<g id="edge24" class="edge"><title>Node18&#45;&gt;Node9</title>
<path fill="none" stroke="midnightblue" d="M878.424,-87.7767C941.511,-102.511 1047.64,-127.298 1100.34,-139.606"/>
<polygon fill="midnightblue" stroke="midnightblue" points="879.217,-84.3678 868.683,-85.5017 877.625,-91.1844 879.217,-84.3678"/>
</g>
<!-- Node19 -->
<g id="node19" class="node"><title>Node19</title>
<g id="a_node19"><a xlink:href="../../d5/dd1/playerdemo_8qh.html#a3d6b65b19141e5215083447705deb88c" target="_top" xlink:title="playerdemo_read">
<polygon fill="none" stroke="black" points="947.5,-66.5 947.5,-85.5 1038.5,-85.5 1038.5,-66.5 947.5,-66.5"/>
<text text-anchor="middle" x="993" y="-73.5" font-family="Helvetica,sans-Serif" font-size="10.00">playerdemo_read</text>
</a>
</g>
</g>
<!-- Node18&#45;&gt;Node19 -->
<g id="edge21" class="edge"><title>Node18&#45;&gt;Node19</title>
<path fill="none" stroke="midnightblue" d="M881.699,-76C902.971,-76 927.14,-76 947.421,-76"/>
<polygon fill="midnightblue" stroke="midnightblue" points="881.518,-72.5001 871.518,-76 881.518,-79.5001 881.518,-72.5001"/>
</g>
<!-- Node19&#45;&gt;Node20 -->
<g id="edge22" class="edge"><title>Node19&#45;&gt;Node20</title>
<path fill="none" stroke="midnightblue" d="M1039.16,-63.7963C1047.42,-61.5469 1055.97,-59.2107 1064,-57 1077.12,-53.3872 1091.64,-49.3353 1103.89,-45.9043"/>
<polygon fill="midnightblue" stroke="midnightblue" points="1038,-60.4837 1029.27,-66.4826 1039.83,-67.2389 1038,-60.4837"/>
</g>
<!-- Node21 -->
<g id="node21" class="node"><title>Node21</title>
<g id="a_node21"><a xlink:href="../../dd/d77/ecs_2systems_2physics_8qc.html#a497a408e59dc1f5697ed3f902dde1f3c" target="_top" xlink:title="sys_phys_update">
<polygon fill="none" stroke="black" points="1202.5,-28.5 1202.5,-47.5 1295.5,-47.5 1295.5,-28.5 1202.5,-28.5"/>
<text text-anchor="middle" x="1249" y="-35.5" font-family="Helvetica,sans-Serif" font-size="10.00">sys_phys_update</text>
</a>
</g>
</g>
<!-- Node20&#45;&gt;Node21 -->
<g id="edge23" class="edge"><title>Node20&#45;&gt;Node21</title>
<path fill="none" stroke="midnightblue" d="M1172.29,-38C1181.95,-38 1192.42,-38 1202.4,-38"/>
<polygon fill="midnightblue" stroke="midnightblue" points="1172.18,-34.5001 1162.18,-38 1172.18,-41.5001 1172.18,-34.5001"/>
</g>
<!-- Node23 -->
<g id="node23" class="node"><title>Node23</title>
<g id="a_node23"><a xlink:href="../../dc/ddd/player_8qc.html#a9eee2f2f5f376f53befdf1537abe179d" target="_top" xlink:title="PM_check_specialcommand">
<polygon fill="none" stroke="black" points="922,-28.5 922,-47.5 1064,-47.5 1064,-28.5 922,-28.5"/>
<text text-anchor="middle" x="993" y="-35.5" font-family="Helvetica,sans-Serif" font-size="10.00">PM_check_specialcommand</text>
</a>
</g>
</g>
<!-- Node22&#45;&gt;Node23 -->
<g id="edge26" class="edge"><title>Node22&#45;&gt;Node23</title>
<path fill="none" stroke="midnightblue" d="M884.434,-38C896.442,-38 909.264,-38 921.717,-38"/>
<polygon fill="midnightblue" stroke="midnightblue" points="884.12,-34.5001 874.12,-38 884.12,-41.5001 884.12,-34.5001"/>
</g>
<!-- Node23&#45;&gt;Node20 -->
<g id="edge27" class="edge"><title>Node23&#45;&gt;Node20</title>
<path fill="none" stroke="midnightblue" d="M1074.42,-38C1084.99,-38 1095.19,-38 1103.99,-38"/>
<polygon fill="midnightblue" stroke="midnightblue" points="1074.21,-34.5001 1064.21,-38 1074.21,-41.5001 1074.21,-34.5001"/>
</g>
</g>
</svg>
