<?xml version="1.0" encoding="UTF-8" standalone="no"?>
<!DOCTYPE svg PUBLIC "-//W3C//DTD SVG 1.1//EN"
 "http://www.w3.org/Graphics/SVG/1.1/DTD/svg11.dtd">
<!-- Generated by graphviz version 2.36.0 (20140111.2315)
 -->
<!-- Title: server/anticheat.qh Pages: 1 -->
<!--zoomable 196 -->
<svg id="main" version="1.1" xmlns="http://www.w3.org/2000/svg" xmlns:xlink="http://www.w3.org/1999/xlink" xml:space="preserve" onload="init(evt)">
<style type="text/css"><![CDATA[
.edge:hover path { stroke: red; }
.edge:hover polygon { stroke: red; fill: red; }
]]></style>
<script type="text/javascript"><![CDATA[
var edges = document.getElementsByTagName('g');
if (edges && edges.length) {
  for (var i=0;i<edges.length;i++) {
    if (edges[i].id.substr(0,4)=='edge') {
      edges[i].setAttribute('class','edge');
    }
  }
}
]]></script>
        <defs>
                <circle id="rim" cx="0" cy="0" r="7"/>
                <circle id="rim2" cx="0" cy="0" r="3.5"/>
                <g id="zoomPlus">
                        <use xlink:href="#rim" fill="#404040">
                                <set attributeName="fill" to="#808080" begin="zoomplus.mouseover" end="zoomplus.mouseout"/>
                        </use>
                        <path d="M-4,0h8M0,-4v8" fill="none" stroke="white" stroke-width="1.5" pointer-events="none"/>
                </g>
                <g id="zoomMin">
                        <use xlink:href="#rim" fill="#404040">
                                <set attributeName="fill" to="#808080" begin="zoomminus.mouseover" end="zoomminus.mouseout"/>
                        </use>
                        <path d="M-4,0h8" fill="none" stroke="white" stroke-width="1.5" pointer-events="none"/>
                </g>
                <g id="dirArrow">
                        <path fill="none" stroke="white" stroke-width="1.5" d="M0,-3.0v7 M-2.5,-0.5L0,-3.0L2.5,-0.5"/>
                </g>
               <g id="resetDef">
                       <use xlink:href="#rim2" fill="#404040">
                               <set attributeName="fill" to="#808080" begin="reset.mouseover" end="reset.mouseout"/>
                       </use>
               </g>
        </defs>

<script type="text/javascript">
var viewWidth = 546;
var viewHeight = 196;
var sectionId = 'dynsection-0';
</script>
<script xlink:href="../../svgpan.js"/>
<svg id="graph" class="graph">
<g id="viewport">
<title>server/anticheat.qh</title>
<!-- Node1 -->
<g id="node1" class="node"><title>Node1</title>
<polygon fill="#bfbfbf" stroke="black" points="191,-168.5 191,-187.5 291,-187.5 291,-168.5 191,-168.5"/>
<text text-anchor="middle" x="241" y="-175.5" font-family="Helvetica,sans-Serif" font-size="10.00">server/anticheat.qh</text>
</g>
<!-- Node2 -->
<g id="node2" class="node"><title>Node2</title>
<g id="a_node2"><a xlink:href="../../d6/d29/anticheat_8qc.html" target="_top" xlink:title="server/anticheat.qc">
<polygon fill="none" stroke="black" points="0,-56.5 0,-75.5 100,-75.5 100,-56.5 0,-56.5"/>
<text text-anchor="middle" x="50" y="-63.5" font-family="Helvetica,sans-Serif" font-size="10.00">server/anticheat.qc</text>
</a>
</g>
</g>
<!-- Node1&#45;&gt;Node2 -->
<g id="edge1" class="edge"><title>Node1&#45;&gt;Node2</title>
<path fill="none" stroke="midnightblue" d="M214.096,-164.029C196.5,-155.354 173.128,-143.467 153,-132 119.745,-113.056 82.0258,-88.4067 62.7788,-75.59"/>
<polygon fill="midnightblue" stroke="midnightblue" points="212.7,-167.242 223.22,-168.495 215.777,-160.955 212.7,-167.242"/>
</g>
<!-- Node4 -->
<g id="node4" class="node"><title>Node4</title>
<g id="a_node4"><a xlink:href="../../da/d53/cl__client_8qc.html" target="_top" xlink:title="server/cl_client.qc">
<polygon fill="none" stroke="black" points="118,-56.5 118,-75.5 214,-75.5 214,-56.5 118,-56.5"/>
<text text-anchor="middle" x="166" y="-63.5" font-family="Helvetica,sans-Serif" font-size="10.00">server/cl_client.qc</text>
</a>
</g>
</g>
<!-- Node1&#45;&gt;Node4 -->
<g id="edge3" class="edge"><title>Node1&#45;&gt;Node4</title>
<path fill="none" stroke="midnightblue" d="M201.795,-164.46C186.578,-157.457 170.736,-147.03 162,-132 151.66,-114.21 158.044,-88.8619 162.599,-75.6942"/>
<polygon fill="midnightblue" stroke="midnightblue" points="200.545,-167.731 211.119,-168.387 203.262,-161.28 200.545,-167.731"/>
</g>
<!-- Node5 -->
<g id="node5" class="node"><title>Node5</title>
<g id="a_node5"><a xlink:href="../../d3/df2/sv__cmd_8qc.html" target="_top" xlink:title="server/command/sv_cmd.qc">
<polygon fill="none" stroke="black" points="171,-112.5 171,-131.5 311,-131.5 311,-112.5 171,-112.5"/>
<text text-anchor="middle" x="241" y="-119.5" font-family="Helvetica,sans-Serif" font-size="10.00">server/command/sv_cmd.qc</text>
</a>
</g>
</g>
<!-- Node1&#45;&gt;Node5 -->
<g id="edge5" class="edge"><title>Node1&#45;&gt;Node5</title>
<path fill="none" stroke="midnightblue" d="M241,-157.805C241,-148.91 241,-138.78 241,-131.751"/>
<polygon fill="midnightblue" stroke="midnightblue" points="237.5,-158.083 241,-168.083 244.5,-158.083 237.5,-158.083"/>
</g>
<!-- Node7 -->
<g id="node7" class="node"><title>Node7</title>
<g id="a_node7"><a xlink:href="../../db/dcc/g__world_8qc.html" target="_top" xlink:title="server/g_world.qc">
<polygon fill="none" stroke="black" points="329,-112.5 329,-131.5 423,-131.5 423,-112.5 329,-112.5"/>
<text text-anchor="middle" x="376" y="-119.5" font-family="Helvetica,sans-Serif" font-size="10.00">server/g_world.qc</text>
</a>
</g>
</g>
<!-- Node1&#45;&gt;Node7 -->
<g id="edge8" class="edge"><title>Node1&#45;&gt;Node7</title>
<path fill="none" stroke="midnightblue" d="M271.906,-164.638C297.24,-154.504 332.431,-140.427 354.709,-131.516"/>
<polygon fill="midnightblue" stroke="midnightblue" points="270.376,-161.48 262.391,-168.444 272.976,-167.979 270.376,-161.48"/>
</g>
<!-- Node8 -->
<g id="node8" class="node"><title>Node8</title>
<g id="a_node8"><a xlink:href="../../d3/d4f/sv__main_8qc.html" target="_top" xlink:title="server/sv_main.qc">
<polygon fill="none" stroke="black" points="441.5,-112.5 441.5,-131.5 538.5,-131.5 538.5,-112.5 441.5,-112.5"/>
<text text-anchor="middle" x="490" y="-119.5" font-family="Helvetica,sans-Serif" font-size="10.00">server/sv_main.qc</text>
</a>
</g>
</g>
<!-- Node1&#45;&gt;Node8 -->
<g id="edge10" class="edge"><title>Node1&#45;&gt;Node8</title>
<path fill="none" stroke="midnightblue" d="M290.424,-166.281C337.479,-156.077 407.367,-140.92 450.73,-131.516"/>
<polygon fill="midnightblue" stroke="midnightblue" points="289.486,-162.904 280.455,-168.444 290.969,-169.745 289.486,-162.904"/>
</g>
<!-- Node3 -->
<g id="node3" class="node"><title>Node3</title>
<g id="a_node3"><a xlink:href="../../dd/d96/server_2progs_8inc.html" target="_top" xlink:title="server/progs.inc">
<polygon fill="none" stroke="black" points="247,-0.5 247,-19.5 333,-19.5 333,-0.5 247,-0.5"/>
<text text-anchor="middle" x="290" y="-7.5" font-family="Helvetica,sans-Serif" font-size="10.00">server/progs.inc</text>
</a>
</g>
</g>
<!-- Node2&#45;&gt;Node3 -->
<g id="edge2" class="edge"><title>Node2&#45;&gt;Node3</title>
<path fill="none" stroke="midnightblue" d="M97.9234,-54.2172C143.274,-44.0134 210.442,-28.9006 252.149,-19.5164"/>
<polygon fill="midnightblue" stroke="midnightblue" points="97.0165,-50.8337 88.0287,-56.4435 98.5531,-57.663 97.0165,-50.8337"/>
</g>
<!-- Node4&#45;&gt;Node3 -->
<g id="edge4" class="edge"><title>Node4&#45;&gt;Node3</title>
<path fill="none" stroke="midnightblue" d="M195.007,-52.3678C218.229,-42.2553 250.163,-28.3486 270.444,-19.5164"/>
<polygon fill="midnightblue" stroke="midnightblue" points="193.419,-49.2419 185.648,-56.4435 196.214,-55.6597 193.419,-49.2419"/>
</g>
<!-- Node6 -->
<g id="node6" class="node"><title>Node6</title>
<g id="a_node6"><a xlink:href="../../d0/d3a/server_2command_2all_8qc.html" target="_top" xlink:title="server/command/all.qc">
<polygon fill="none" stroke="black" points="232,-56.5 232,-75.5 348,-75.5 348,-56.5 232,-56.5"/>
<text text-anchor="middle" x="290" y="-63.5" font-family="Helvetica,sans-Serif" font-size="10.00">server/command/all.qc</text>
</a>
</g>
</g>
<!-- Node5&#45;&gt;Node6 -->
<g id="edge6" class="edge"><title>Node5&#45;&gt;Node6</title>
<path fill="none" stroke="midnightblue" d="M256.034,-104.431C264.622,-94.9673 275.043,-83.4827 282.059,-75.7511"/>
<polygon fill="midnightblue" stroke="midnightblue" points="253.219,-102.325 249.091,-112.083 258.403,-107.029 253.219,-102.325"/>
</g>
<!-- Node6&#45;&gt;Node3 -->
<g id="edge7" class="edge"><title>Node6&#45;&gt;Node3</title>
<path fill="none" stroke="midnightblue" d="M290,-45.8045C290,-36.9102 290,-26.7798 290,-19.7511"/>
<polygon fill="midnightblue" stroke="midnightblue" points="286.5,-46.083 290,-56.083 293.5,-46.083 286.5,-46.083"/>
</g>
<!-- Node7&#45;&gt;Node3 -->
<g id="edge9" class="edge"><title>Node7&#45;&gt;Node3</title>
<path fill="none" stroke="midnightblue" d="M373.564,-101.893C371.029,-88.0654 365.964,-69.511 356,-56 343.9,-39.5928 323.934,-27.1906 309.126,-19.6037"/>
<polygon fill="midnightblue" stroke="midnightblue" points="370.167,-102.831 375.15,-112.181 377.086,-101.765 370.167,-102.831"/>
</g>
<!-- Node8&#45;&gt;Node3 -->
<g id="edge11" class="edge"><title>Node8&#45;&gt;Node3</title>
<path fill="none" stroke="midnightblue" d="M466.648,-107.357C443.702,-94.0295 407.628,-73.2844 376,-56 352.193,-42.9898 324.316,-28.5454 306.904,-19.6167"/>
<polygon fill="midnightblue" stroke="midnightblue" points="464.935,-110.41 475.338,-112.415 468.456,-104.36 464.935,-110.41"/>
</g>
</g>
</svg>
        <g id="navigator" transform="translate(0 0)" fill="#404254">
                <rect fill="#f2f5e9" fill-opacity="0.5" stroke="#606060" stroke-width=".5" x="0" y="0" width="60" height="60"/>
                <use id="zoomplus" xlink:href="#zoomPlus" x="17" y="9" onmousedown="handleZoom(evt,'in')"/>
                <use id="zoomminus" xlink:href="#zoomMin" x="42" y="9" onmousedown="handleZoom(evt,'out')"/>
                <use id="reset" xlink:href="#resetDef" x="30" y="36" onmousedown="handleReset()"/>
                <g id="arrowUp" xlink:href="#dirArrow" transform="translate(30 24)" onmousedown="handlePan(0,-1)">
                  <use xlink:href="#rim" fill="#404040">
                        <set attributeName="fill" to="#808080" begin="arrowUp.mouseover" end="arrowUp.mouseout"/>
                  </use>
                  <path fill="none" stroke="white" stroke-width="1.5" d="M0,-3.0v7 M-2.5,-0.5L0,-3.0L2.5,-0.5"/>
                </g>
                <g id="arrowRight" xlink:href="#dirArrow" transform="rotate(90) translate(36 -43)" onmousedown="handlePan(1,0)">
                  <use xlink:href="#rim" fill="#404040">
                        <set attributeName="fill" to="#808080" begin="arrowRight.mouseover" end="arrowRight.mouseout"/>
                  </use>
                  <path fill="none" stroke="white" stroke-width="1.5" d="M0,-3.0v7 M-2.5,-0.5L0,-3.0L2.5,-0.5"/>
                </g>
                <g id="arrowDown" xlink:href="#dirArrow" transform="rotate(180) translate(-30 -48)" onmousedown="handlePan(0,1)">
                  <use xlink:href="#rim" fill="#404040">
                        <set attributeName="fill" to="#808080" begin="arrowDown.mouseover" end="arrowDown.mouseout"/>
                  </use>
                  <path fill="none" stroke="white" stroke-width="1.5" d="M0,-3.0v7 M-2.5,-0.5L0,-3.0L2.5,-0.5"/>
                </g>
                <g id="arrowLeft" xlink:href="#dirArrow" transform="rotate(270) translate(-36 17)" onmousedown="handlePan(-1,0)">
                  <use xlink:href="#rim" fill="#404040">
                        <set attributeName="fill" to="#808080" begin="arrowLeft.mouseover" end="arrowLeft.mouseout"/>
                  </use>
                  <path fill="none" stroke="white" stroke-width="1.5" d="M0,-3.0v7 M-2.5,-0.5L0,-3.0L2.5,-0.5"/>
                </g>
        </g>
        <svg viewBox="0 0 15 15" width="100%" height="30px" preserveAspectRatio="xMaxYMin meet">
         <g id="arrow_out" transform="scale(0.3 0.3)">
          <a xlink:href="anticheat_8qh__dep__incl_org.svg" target="_base">
           <rect id="button" ry="5" rx="5" y="6" x="6" height="38" width="38"
                fill="#f2f5e9" fill-opacity="0.5" stroke="#606060" stroke-width="1.0"/>
           <path id="arrow"
             d="M 11.500037,31.436501 C 11.940474,20.09759 22.043105,11.32322 32.158766,21.979434 L 37.068811,17.246167 C 37.068811,17.246167 37.088388,32 37.088388,32 L 22.160133,31.978069 C 22.160133,31.978069 26.997745,27.140456 26.997745,27.140456 C 18.528582,18.264221 13.291696,25.230495 11.500037,31.436501 z"
             style="fill:#404040;"/>
          </a>
         </g>
        </svg>
</svg>
