<?xml version="1.0" encoding="UTF-8" standalone="no"?>
<!DOCTYPE svg PUBLIC "-//W3C//DTD SVG 1.1//EN"
 "http://www.w3.org/Graphics/SVG/1.1/DTD/svg11.dtd">
<!-- Generated by graphviz version 2.36.0 (20140111.2315)
 -->
<!-- Title: menu/xonotic/colorpicker.qh Pages: 1 -->
<!--zoomable 276 -->
<svg id="main" version="1.1" xmlns="http://www.w3.org/2000/svg" xmlns:xlink="http://www.w3.org/1999/xlink" xml:space="preserve" onload="init(evt)">
<style type="text/css"><![CDATA[
.edge:hover path { stroke: red; }
.edge:hover polygon { stroke: red; fill: red; }
]]></style>
<script type="text/javascript"><![CDATA[
var edges = document.getElementsByTagName('g');
if (edges && edges.length) {
  for (var i=0;i<edges.length;i++) {
    if (edges[i].id.substr(0,4)=='edge') {
      edges[i].setAttribute('class','edge');
    }
  }
}
]]></script>
        <defs>
                <circle id="rim" cx="0" cy="0" r="7"/>
                <circle id="rim2" cx="0" cy="0" r="3.5"/>
                <g id="zoomPlus">
                        <use xlink:href="#rim" fill="#404040">
                                <set attributeName="fill" to="#808080" begin="zoomplus.mouseover" end="zoomplus.mouseout"/>
                        </use>
                        <path d="M-4,0h8M0,-4v8" fill="none" stroke="white" stroke-width="1.5" pointer-events="none"/>
                </g>
                <g id="zoomMin">
                        <use xlink:href="#rim" fill="#404040">
                                <set attributeName="fill" to="#808080" begin="zoomminus.mouseover" end="zoomminus.mouseout"/>
                        </use>
                        <path d="M-4,0h8" fill="none" stroke="white" stroke-width="1.5" pointer-events="none"/>
                </g>
                <g id="dirArrow">
                        <path fill="none" stroke="white" stroke-width="1.5" d="M0,-3.0v7 M-2.5,-0.5L0,-3.0L2.5,-0.5"/>
                </g>
               <g id="resetDef">
                       <use xlink:href="#rim2" fill="#404040">
                               <set attributeName="fill" to="#808080" begin="reset.mouseover" end="reset.mouseout"/>
                       </use>
               </g>
        </defs>

<script type="text/javascript">
var viewWidth = 798;
var viewHeight = 276;
var sectionId = 'dynsection-1';
</script>
<script xlink:href="../../svgpan.js"/>
<svg id="graph" class="graph">
<g id="viewport">
<title>menu/xonotic/colorpicker.qh</title>
<!-- Node1 -->
<g id="node1" class="node"><title>Node1</title>
<polygon fill="#bfbfbf" stroke="black" points="381.69,-248.5 381.69,-267.5 520.69,-267.5 520.69,-248.5 381.69,-248.5"/>
<text text-anchor="middle" x="451.19" y="-255.5" font-family="Helvetica,sans-Serif" font-size="10.00">menu/xonotic/colorpicker.qh</text>
</g>
<!-- Node2 -->
<g id="node2" class="node"><title>Node2</title>
<g id="a_node2"><a xlink:href="../../d6/d4c/colorpicker_8qc.html" target="_top" xlink:title="menu/xonotic/colorpicker.qc">
<polygon fill="none" stroke="black" points="42.6901,-186.5 42.6901,-205.5 181.69,-205.5 181.69,-186.5 42.6901,-186.5"/>
<text text-anchor="middle" x="112.19" y="-193.5" font-family="Helvetica,sans-Serif" font-size="10.00">menu/xonotic/colorpicker.qc</text>
</a>
</g>
</g>
<!-- Node1&#45;&gt;Node2 -->
<g id="edge1" class="edge"><title>Node1&#45;&gt;Node2</title>
<path fill="none" stroke="midnightblue" d="M392.781,-246.662C327.024,-235.024 221.404,-216.33 160.234,-205.503"/>
<polygon fill="midnightblue" stroke="midnightblue" points="392.523,-250.171 402.98,-248.467 393.743,-243.278 392.523,-250.171"/>
</g>
<!-- Node5 -->
<g id="node5" class="node"><title>Node5</title>
<g id="a_node5"><a xlink:href="../../d1/d6c/colorpicker__string_8qh.html" target="_top" xlink:title="menu/xonotic/colorpicker\l_string.qh">
<polygon fill="none" stroke="black" points="304.69,-181 304.69,-211 429.69,-211 429.69,-181 304.69,-181"/>
<text text-anchor="start" x="312.69" y="-199" font-family="Helvetica,sans-Serif" font-size="10.00">menu/xonotic/colorpicker</text>
<text text-anchor="middle" x="367.19" y="-188" font-family="Helvetica,sans-Serif" font-size="10.00">_string.qh</text>
</a>
</g>
</g>
<!-- Node1&#45;&gt;Node5 -->
<g id="edge4" class="edge"><title>Node1&#45;&gt;Node5</title>
<path fill="none" stroke="midnightblue" d="M430.674,-242.346C417.375,-232.846 400.142,-220.537 386.987,-211.141"/>
<polygon fill="midnightblue" stroke="midnightblue" points="428.983,-245.439 439.155,-248.403 433.052,-239.743 428.983,-245.439"/>
</g>
<!-- Node11 -->
<g id="node11" class="node"><title>Node11</title>
<g id="a_node11"><a xlink:href="../../d3/dbd/dialog__firstrun_8qc.html" target="_top" xlink:title="menu/xonotic/dialog\l_firstrun.qc">
<polygon fill="none" stroke="black" points="483.19,-181 483.19,-211 587.19,-211 587.19,-181 483.19,-181"/>
<text text-anchor="start" x="491.19" y="-199" font-family="Helvetica,sans-Serif" font-size="10.00">menu/xonotic/dialog</text>
<text text-anchor="middle" x="535.19" y="-188" font-family="Helvetica,sans-Serif" font-size="10.00">_firstrun.qc</text>
</a>
</g>
</g>
<!-- Node1&#45;&gt;Node11 -->
<g id="edge15" class="edge"><title>Node1&#45;&gt;Node11</title>
<path fill="none" stroke="midnightblue" d="M471.706,-242.346C485.006,-232.846 502.238,-220.537 515.393,-211.141"/>
<polygon fill="midnightblue" stroke="midnightblue" points="469.328,-239.743 463.225,-248.403 473.397,-245.439 469.328,-239.743"/>
</g>
<!-- Node12 -->
<g id="node12" class="node"><title>Node12</title>
<g id="a_node12"><a xlink:href="../../d2/dd3/dialog__multiplayer__profile_8qc.html" target="_top" xlink:title="menu/xonotic/dialog\l_multiplayer_profile.qc">
<polygon fill="none" stroke="black" points="676.19,-181 676.19,-211 790.19,-211 790.19,-181 676.19,-181"/>
<text text-anchor="start" x="684.19" y="-199" font-family="Helvetica,sans-Serif" font-size="10.00">menu/xonotic/dialog</text>
<text text-anchor="middle" x="733.19" y="-188" font-family="Helvetica,sans-Serif" font-size="10.00">_multiplayer_profile.qc</text>
</a>
</g>
</g>
<!-- Node1&#45;&gt;Node12 -->
<g id="edge17" class="edge"><title>Node1&#45;&gt;Node12</title>
<path fill="none" stroke="midnightblue" d="M501.35,-246.328C550.37,-235.898 624.897,-220.041 676.148,-209.137"/>
<polygon fill="midnightblue" stroke="midnightblue" points="500.347,-242.963 491.294,-248.467 501.804,-249.809 500.347,-242.963"/>
</g>
<!-- Node3 -->
<g id="node3" class="node"><title>Node3</title>
<g id="a_node3"><a xlink:href="../../d5/d74/menu_2xonotic_2__mod_8inc.html" target="_top" xlink:title="menu/xonotic/_mod.inc">
<polygon fill="none" stroke="black" points="351.19,-56.5 351.19,-75.5 469.19,-75.5 469.19,-56.5 351.19,-56.5"/>
<text text-anchor="middle" x="410.19" y="-63.5" font-family="Helvetica,sans-Serif" font-size="10.00">menu/xonotic/_mod.inc</text>
</a>
</g>
</g>
<!-- Node2&#45;&gt;Node3 -->
<g id="edge2" class="edge"><title>Node2&#45;&gt;Node3</title>
<path fill="none" stroke="midnightblue" d="M75.3494,-183.036C35.4898,-168.231 -19.0728,-141.359 7.19014,-112 29.6906,-86.8473 244.582,-74.1279 351.03,-69.3277"/>
<polygon fill="midnightblue" stroke="midnightblue" points="74.2611,-186.364 84.8556,-186.446 76.625,-179.775 74.2611,-186.364"/>
</g>
<!-- Node4 -->
<g id="node4" class="node"><title>Node4</title>
<g id="a_node4"><a xlink:href="../../d3/d70/menu_2progs_8inc.html" target="_top" xlink:title="menu/progs.inc">
<polygon fill="none" stroke="black" points="368.69,-0.5 368.69,-19.5 451.69,-19.5 451.69,-0.5 368.69,-0.5"/>
<text text-anchor="middle" x="410.19" y="-7.5" font-family="Helvetica,sans-Serif" font-size="10.00">menu/progs.inc</text>
</a>
</g>
</g>
<!-- Node3&#45;&gt;Node4 -->
<g id="edge3" class="edge"><title>Node3&#45;&gt;Node4</title>
<path fill="none" stroke="midnightblue" d="M410.19,-45.8045C410.19,-36.9102 410.19,-26.7798 410.19,-19.7511"/>
<polygon fill="midnightblue" stroke="midnightblue" points="406.69,-46.083 410.19,-56.083 413.69,-46.083 406.69,-46.083"/>
</g>
<!-- Node6 -->
<g id="node6" class="node"><title>Node6</title>
<g id="a_node6"><a xlink:href="../../db/df7/colorpicker__string_8qc.html" target="_top" xlink:title="menu/xonotic/colorpicker\l_string.qc">
<polygon fill="none" stroke="black" points="16.6901,-113 16.6901,-143 141.69,-143 141.69,-113 16.6901,-113"/>
<text text-anchor="start" x="24.6901" y="-131" font-family="Helvetica,sans-Serif" font-size="10.00">menu/xonotic/colorpicker</text>
<text text-anchor="middle" x="79.1901" y="-120" font-family="Helvetica,sans-Serif" font-size="10.00">_string.qc</text>
</a>
</g>
</g>
<!-- Node5&#45;&gt;Node6 -->
<g id="edge5" class="edge"><title>Node5&#45;&gt;Node6</title>
<path fill="none" stroke="midnightblue" d="M295.81,-178.642C248.107,-167.71 186,-153.477 140.526,-143.056"/>
<polygon fill="midnightblue" stroke="midnightblue" points="295.231,-182.1 305.76,-180.922 296.795,-175.277 295.231,-182.1"/>
</g>
<!-- Node7 -->
<g id="node7" class="node"><title>Node7</title>
<g id="a_node7"><a xlink:href="../../d5/d23/dialog__hudpanel__weapons_8qc.html" target="_top" xlink:title="menu/xonotic/dialog\l_hudpanel_weapons.qc">
<polygon fill="none" stroke="black" points="159.69,-113 159.69,-143 278.69,-143 278.69,-113 159.69,-113"/>
<text text-anchor="start" x="167.69" y="-131" font-family="Helvetica,sans-Serif" font-size="10.00">menu/xonotic/dialog</text>
<text text-anchor="middle" x="219.19" y="-120" font-family="Helvetica,sans-Serif" font-size="10.00">_hudpanel_weapons.qc</text>
</a>
</g>
</g>
<!-- Node5&#45;&gt;Node7 -->
<g id="edge7" class="edge"><title>Node5&#45;&gt;Node7</title>
<path fill="none" stroke="midnightblue" d="M326.263,-176.749C302.368,-166.093 272.682,-152.855 250.633,-143.022"/>
<polygon fill="midnightblue" stroke="midnightblue" points="324.882,-179.965 335.44,-180.841 327.733,-173.572 324.882,-179.965"/>
</g>
<!-- Node8 -->
<g id="node8" class="node"><title>Node8</title>
<g id="a_node8"><a xlink:href="../../dd/dac/dialog__hudsetup__exit_8qc.html" target="_top" xlink:title="menu/xonotic/dialog\l_hudsetup_exit.qc">
<polygon fill="none" stroke="black" points="297.19,-113 297.19,-143 401.19,-143 401.19,-113 297.19,-113"/>
<text text-anchor="start" x="305.19" y="-131" font-family="Helvetica,sans-Serif" font-size="10.00">menu/xonotic/dialog</text>
<text text-anchor="middle" x="349.19" y="-120" font-family="Helvetica,sans-Serif" font-size="10.00">_hudsetup_exit.qc</text>
</a>
</g>
</g>
<!-- Node5&#45;&gt;Node8 -->
<g id="edge9" class="edge"><title>Node5&#45;&gt;Node8</title>
<path fill="none" stroke="midnightblue" d="M360.599,-170.831C358.076,-161.581 355.28,-151.331 353.088,-143.293"/>
<polygon fill="midnightblue" stroke="midnightblue" points="357.276,-171.952 363.284,-180.679 364.03,-170.11 357.276,-171.952"/>
</g>
<!-- Node9 -->
<g id="node9" class="node"><title>Node9</title>
<g id="a_node9"><a xlink:href="../../d7/d21/dialog__sandboxtools_8qc.html" target="_top" xlink:title="menu/xonotic/dialog\l_sandboxtools.qc">
<polygon fill="none" stroke="black" points="419.19,-113 419.19,-143 523.19,-143 523.19,-113 419.19,-113"/>
<text text-anchor="start" x="427.19" y="-131" font-family="Helvetica,sans-Serif" font-size="10.00">menu/xonotic/dialog</text>
<text text-anchor="middle" x="471.19" y="-120" font-family="Helvetica,sans-Serif" font-size="10.00">_sandboxtools.qc</text>
</a>
</g>
</g>
<!-- Node5&#45;&gt;Node9 -->
<g id="edge11" class="edge"><title>Node5&#45;&gt;Node9</title>
<path fill="none" stroke="midnightblue" d="M398.171,-175.339C414.486,-164.986 434.119,-152.526 448.916,-143.135"/>
<polygon fill="midnightblue" stroke="midnightblue" points="396.069,-172.528 389.501,-180.841 399.819,-178.438 396.069,-172.528"/>
</g>
<!-- Node10 -->
<g id="node10" class="node"><title>Node10</title>
<g id="a_node10"><a xlink:href="../../df/dbd/dialog__settings__game__crosshair_8qc.html" target="_top" xlink:title="menu/xonotic/dialog\l_settings_game_crosshair.qc">
<polygon fill="none" stroke="black" points="541.19,-113 541.19,-143 685.19,-143 685.19,-113 541.19,-113"/>
<text text-anchor="start" x="549.19" y="-131" font-family="Helvetica,sans-Serif" font-size="10.00">menu/xonotic/dialog</text>
<text text-anchor="middle" x="613.19" y="-120" font-family="Helvetica,sans-Serif" font-size="10.00">_settings_game_crosshair.qc</text>
</a>
</g>
</g>
<!-- Node5&#45;&gt;Node10 -->
<g id="edge13" class="edge"><title>Node5&#45;&gt;Node10</title>
<path fill="none" stroke="midnightblue" d="M429.443,-178.298C470.015,-167.413 522.363,-153.368 560.799,-143.056"/>
<polygon fill="midnightblue" stroke="midnightblue" points="428.413,-174.95 419.662,-180.922 430.227,-181.711 428.413,-174.95"/>
</g>
<!-- Node6&#45;&gt;Node3 -->
<g id="edge6" class="edge"><title>Node6&#45;&gt;Node3</title>
<path fill="none" stroke="midnightblue" d="M151.722,-111.74C228.475,-97.1168 306.851,-83.8724 357.302,-75.5675"/>
<polygon fill="midnightblue" stroke="midnightblue" points="151.048,-108.306 141.885,-113.624 152.365,-115.181 151.048,-108.306"/>
</g>
<!-- Node7&#45;&gt;Node3 -->
<g id="edge8" class="edge"><title>Node7&#45;&gt;Node3</title>
<path fill="none" stroke="midnightblue" d="M273.788,-109.849C309.559,-98.6118 354.77,-84.4096 383.091,-75.5127"/>
<polygon fill="midnightblue" stroke="midnightblue" points="272.463,-106.597 263.971,-112.933 274.56,-113.275 272.463,-106.597"/>
</g>
<!-- Node8&#45;&gt;Node3 -->
<g id="edge10" class="edge"><title>Node8&#45;&gt;Node3</title>
<path fill="none" stroke="midnightblue" d="M370.924,-105.622C381.394,-95.3242 393.369,-83.5451 401.314,-75.7305"/>
<polygon fill="midnightblue" stroke="midnightblue" points="368.321,-103.273 363.646,-112.781 373.23,-108.264 368.321,-103.273"/>
</g>
<!-- Node9&#45;&gt;Node3 -->
<g id="edge12" class="edge"><title>Node9&#45;&gt;Node3</title>
<path fill="none" stroke="midnightblue" d="M449.456,-105.622C438.986,-95.3242 427.011,-83.5451 419.066,-75.7305"/>
<polygon fill="midnightblue" stroke="midnightblue" points="447.15,-108.264 456.734,-112.781 452.059,-103.273 447.15,-108.264"/>
</g>
<!-- Node10&#45;&gt;Node3 -->
<g id="edge14" class="edge"><title>Node10&#45;&gt;Node3</title>
<path fill="none" stroke="midnightblue" d="M555.649,-109.993C517.555,-98.7333 469.221,-84.4476 438.991,-75.5127"/>
<polygon fill="midnightblue" stroke="midnightblue" points="555.014,-113.455 565.596,-112.933 556.998,-106.742 555.014,-113.455"/>
</g>
<!-- Node11&#45;&gt;Node3 -->
<g id="edge16" class="edge"><title>Node11&#45;&gt;Node3</title>
<path fill="none" stroke="midnightblue" d="M597.133,-185.137C654.679,-173.375 726.927,-150.332 694.19,-112 665.863,-78.8316 543.875,-69.9773 469.294,-67.6981"/>
<polygon fill="midnightblue" stroke="midnightblue" points="596.454,-181.703 587.316,-187.066 597.804,-188.572 596.454,-181.703"/>
</g>
<!-- Node12&#45;&gt;Node3 -->
<g id="edge18" class="edge"><title>Node12&#45;&gt;Node3</title>
<path fill="none" stroke="midnightblue" d="M734.146,-170.718C733.482,-151.933 729.281,-126.719 713.19,-112 678.511,-80.2784 547.281,-70.9087 469.354,-68.1475"/>
<polygon fill="midnightblue" stroke="midnightblue" points="730.647,-170.923 734.191,-180.908 737.647,-170.893 730.647,-170.923"/>
</g>
</g>
</svg>
        <g id="navigator" transform="translate(0 0)" fill="#404254">
                <rect fill="#f2f5e9" fill-opacity="0.5" stroke="#606060" stroke-width=".5" x="0" y="0" width="60" height="60"/>
                <use id="zoomplus" xlink:href="#zoomPlus" x="17" y="9" onmousedown="handleZoom(evt,'in')"/>
                <use id="zoomminus" xlink:href="#zoomMin" x="42" y="9" onmousedown="handleZoom(evt,'out')"/>
                <use id="reset" xlink:href="#resetDef" x="30" y="36" onmousedown="handleReset()"/>
                <g id="arrowUp" xlink:href="#dirArrow" transform="translate(30 24)" onmousedown="handlePan(0,-1)">
                  <use xlink:href="#rim" fill="#404040">
                        <set attributeName="fill" to="#808080" begin="arrowUp.mouseover" end="arrowUp.mouseout"/>
                  </use>
                  <path fill="none" stroke="white" stroke-width="1.5" d="M0,-3.0v7 M-2.5,-0.5L0,-3.0L2.5,-0.5"/>
                </g>
                <g id="arrowRight" xlink:href="#dirArrow" transform="rotate(90) translate(36 -43)" onmousedown="handlePan(1,0)">
                  <use xlink:href="#rim" fill="#404040">
                        <set attributeName="fill" to="#808080" begin="arrowRight.mouseover" end="arrowRight.mouseout"/>
                  </use>
                  <path fill="none" stroke="white" stroke-width="1.5" d="M0,-3.0v7 M-2.5,-0.5L0,-3.0L2.5,-0.5"/>
                </g>
                <g id="arrowDown" xlink:href="#dirArrow" transform="rotate(180) translate(-30 -48)" onmousedown="handlePan(0,1)">
                  <use xlink:href="#rim" fill="#404040">
                        <set attributeName="fill" to="#808080" begin="arrowDown.mouseover" end="arrowDown.mouseout"/>
                  </use>
                  <path fill="none" stroke="white" stroke-width="1.5" d="M0,-3.0v7 M-2.5,-0.5L0,-3.0L2.5,-0.5"/>
                </g>
                <g id="arrowLeft" xlink:href="#dirArrow" transform="rotate(270) translate(-36 17)" onmousedown="handlePan(-1,0)">
                  <use xlink:href="#rim" fill="#404040">
                        <set attributeName="fill" to="#808080" begin="arrowLeft.mouseover" end="arrowLeft.mouseout"/>
                  </use>
                  <path fill="none" stroke="white" stroke-width="1.5" d="M0,-3.0v7 M-2.5,-0.5L0,-3.0L2.5,-0.5"/>
                </g>
        </g>
        <svg viewBox="0 0 15 15" width="100%" height="30px" preserveAspectRatio="xMaxYMin meet">
         <g id="arrow_out" transform="scale(0.3 0.3)">
          <a xlink:href="colorpicker_8qh__dep__incl_org.svg" target="_base">
           <rect id="button" ry="5" rx="5" y="6" x="6" height="38" width="38"
                fill="#f2f5e9" fill-opacity="0.5" stroke="#606060" stroke-width="1.0"/>
           <path id="arrow"
             d="M 11.500037,31.436501 C 11.940474,20.09759 22.043105,11.32322 32.158766,21.979434 L 37.068811,17.246167 C 37.068811,17.246167 37.088388,32 37.088388,32 L 22.160133,31.978069 C 22.160133,31.978069 26.997745,27.140456 26.997745,27.140456 C 18.528582,18.264221 13.291696,25.230495 11.500037,31.436501 z"
             style="fill:#404040;"/>
          </a>
         </g>
        </svg>
</svg>
