<?xml version="1.0" encoding="UTF-8" standalone="no"?>
<!DOCTYPE svg PUBLIC "-//W3C//DTD SVG 1.1//EN"
 "http://www.w3.org/Graphics/SVG/1.1/DTD/svg11.dtd">
<!-- Generated by graphviz version 2.36.0 (20140111.2315)
 -->
<!-- Title: XonoticHUDScoreDialog_fill Pages: 1 -->
<svg width="566pt" height="88pt"
 viewBox="0.00 0.00 566.00 88.40" xmlns="http://www.w3.org/2000/svg" xmlns:xlink="http://www.w3.org/1999/xlink">
<g id="graph0" class="graph" transform="scale(1 1) rotate(0) translate(4 84.3987)">
<title>XonoticHUDScoreDialog_fill</title>
<!-- Node1 -->
<g id="node1" class="node"><title>Node1</title>
<polygon fill="#bfbfbf" stroke="black" points="0,-38.5 0,-57.5 140,-57.5 140,-38.5 0,-38.5"/>
<text text-anchor="middle" x="70" y="-45.5" font-family="Helvetica,sans-Serif" font-size="10.00">XonoticHUDScoreDialog_fill</text>
</g>
<!-- Node2 -->
<g id="node2" class="node"><title>Node2</title>
<g id="a_node2"><a xlink:href="../../d4/d0c/csprogsdefs_8qc.html#acbb54a239d76062465dccbc6a6c6e464" target="_top" xlink:title="entity">
<polygon fill="none" stroke="black" points="516.5,-38.5 516.5,-57.5 557.5,-57.5 557.5,-38.5 516.5,-38.5"/>
<text text-anchor="middle" x="537" y="-45.5" font-family="Helvetica,sans-Serif" font-size="10.00">entity</text>
</a>
</g>
</g>
<!-- Node1&#45;&gt;Node2 -->
<g id="edge1" class="edge"><title>Node1&#45;&gt;Node2</title>
<path fill="none" stroke="midnightblue" d="M113.677,-57.5115C132.654,-61.2768 155.335,-65.1454 176,-67 310.57,-79.0773 346.692,-88.9989 480,-67 488.955,-65.5222 498.404,-62.7992 506.937,-59.8672"/>
<polygon fill="midnightblue" stroke="midnightblue" points="508.258,-63.111 516.449,-56.3915 505.855,-56.5361 508.258,-63.111"/>
</g>
<!-- Node3 -->
<g id="node3" class="node"><title>Node3</title>
<g id="a_node3"><a xlink:href="../../d9/dad/xonotic_2radiobutton_8qc.html#ab245ab8e3e2d665a4f6d467524269c58" target="_top" xlink:title="makeXonoticRadioButton">
<polygon fill="none" stroke="black" points="176,-38.5 176,-57.5 304,-57.5 304,-38.5 176,-38.5"/>
<text text-anchor="middle" x="240" y="-45.5" font-family="Helvetica,sans-Serif" font-size="10.00">makeXonoticRadioButton</text>
</a>
</g>
</g>
<!-- Node1&#45;&gt;Node3 -->
<g id="edge2" class="edge"><title>Node1&#45;&gt;Node3</title>
<path fill="none" stroke="midnightblue" d="M140.302,-48C148.656,-48 157.209,-48 165.619,-48"/>
<polygon fill="midnightblue" stroke="midnightblue" points="165.782,-51.5001 175.782,-48 165.782,-44.5001 165.782,-51.5001"/>
</g>
<!-- Node5 -->
<g id="node5" class="node"><title>Node5</title>
<g id="a_node5"><a xlink:href="../../d2/d67/textlabel_8qc.html#a68172c3fa4df12de97eddc774ab7425d" target="_top" xlink:title="makeXonoticTextLabel">
<polygon fill="none" stroke="black" points="352,-0.5 352,-19.5 468,-19.5 468,-0.5 352,-0.5"/>
<text text-anchor="middle" x="410" y="-7.5" font-family="Helvetica,sans-Serif" font-size="10.00">makeXonoticTextLabel</text>
</a>
</g>
</g>
<!-- Node1&#45;&gt;Node5 -->
<g id="edge5" class="edge"><title>Node1&#45;&gt;Node5</title>
<path fill="none" stroke="midnightblue" d="M118.15,-38.4557C136.187,-35.0713 156.989,-31.4892 176,-29 231.675,-21.7105 295.223,-16.7507 341.875,-13.7316"/>
<polygon fill="midnightblue" stroke="midnightblue" points="342.103,-17.2242 351.861,-13.0982 341.66,-10.2383 342.103,-17.2242"/>
</g>
<!-- Node4 -->
<g id="node4" class="node"><title>Node4</title>
<g id="a_node4"><a xlink:href="../../d9/dad/xonotic_2radiobutton_8qc.html#ad6246d3b924142cee4128a6ab7d4bbd4" target="_top" xlink:title="makeXonoticRadioButton_T">
<polygon fill="none" stroke="black" points="340.5,-38.5 340.5,-57.5 479.5,-57.5 479.5,-38.5 340.5,-38.5"/>
<text text-anchor="middle" x="410" y="-45.5" font-family="Helvetica,sans-Serif" font-size="10.00">makeXonoticRadioButton_T</text>
</a>
</g>
</g>
<!-- Node3&#45;&gt;Node4 -->
<g id="edge3" class="edge"><title>Node3&#45;&gt;Node4</title>
<path fill="none" stroke="midnightblue" d="M304.035,-48C312.534,-48 321.339,-48 330.07,-48"/>
<polygon fill="midnightblue" stroke="midnightblue" points="330.264,-51.5001 340.264,-48 330.264,-44.5001 330.264,-51.5001"/>
</g>
<!-- Node4&#45;&gt;Node2 -->
<g id="edge4" class="edge"><title>Node4&#45;&gt;Node2</title>
<path fill="none" stroke="midnightblue" d="M479.716,-48C489.104,-48 498.304,-48 506.455,-48"/>
<polygon fill="midnightblue" stroke="midnightblue" points="506.496,-51.5001 516.496,-48 506.496,-44.5001 506.496,-51.5001"/>
</g>
<!-- Node5&#45;&gt;Node2 -->
<g id="edge6" class="edge"><title>Node5&#45;&gt;Node2</title>
<path fill="none" stroke="midnightblue" d="M447.284,-19.5637C457.868,-22.4689 469.429,-25.7542 480,-29 488.747,-31.6857 498.191,-34.8042 506.787,-37.7287"/>
<polygon fill="midnightblue" stroke="midnightblue" points="505.8,-41.0906 516.395,-41.0352 508.078,-34.4716 505.8,-41.0906"/>
</g>
</g>
</svg>
