<?xml version="1.0" encoding="UTF-8" standalone="no"?>
<!DOCTYPE svg PUBLIC "-//W3C//DTD SVG 1.1//EN"
 "http://www.w3.org/Graphics/SVG/1.1/DTD/svg11.dtd">
<!-- Generated by graphviz version 2.38.0 (20140413.2041)
 -->
<!-- Title: server/sv_main.qh Pages: 1 -->
<!--zoomable 263 -->
<svg id="main" version="1.1" xmlns="http://www.w3.org/2000/svg" xmlns:xlink="http://www.w3.org/1999/xlink" xml:space="preserve" onload="init(evt)">
<style type="text/css"><![CDATA[
.edge:hover path { stroke: red; }
.edge:hover polygon { stroke: red; fill: red; }
]]></style>
<script type="text/javascript"><![CDATA[
var edges = document.getElementsByTagName('g');
if (edges && edges.length) {
  for (var i=0;i<edges.length;i++) {
    if (edges[i].id.substr(0,4)=='edge') {
      edges[i].setAttribute('class','edge');
    }
  }
}
]]></script>
        <defs>
                <circle id="rim" cx="0" cy="0" r="7"/>
                <circle id="rim2" cx="0" cy="0" r="3.5"/>
                <g id="zoomPlus">
                        <use xlink:href="#rim" fill="#404040">
                                <set attributeName="fill" to="#808080" begin="zoomplus.mouseover" end="zoomplus.mouseout"/>
                        </use>
                        <path d="M-4,0h8M0,-4v8" fill="none" stroke="white" stroke-width="1.5" pointer-events="none"/>
                </g>
                <g id="zoomMin">
                        <use xlink:href="#rim" fill="#404040">
                                <set attributeName="fill" to="#808080" begin="zoomminus.mouseover" end="zoomminus.mouseout"/>
                        </use>
                        <path d="M-4,0h8" fill="none" stroke="white" stroke-width="1.5" pointer-events="none"/>
                </g>
                <g id="dirArrow">
                        <path fill="none" stroke="white" stroke-width="1.5" d="M0,-3.0v7 M-2.5,-0.5L0,-3.0L2.5,-0.5"/>
                </g>
               <g id="resetDef">
                       <use xlink:href="#rim2" fill="#404040">
                               <set attributeName="fill" to="#808080" begin="reset.mouseover" end="reset.mouseout"/>
                       </use>
               </g>
        </defs>

<script type="text/javascript">
var viewWidth = 1012;
var viewHeight = 263;
var sectionId = 'dynsection-0';
</script>
<script xlink:href="../../svgpan.js"/>
<svg id="graph" class="graph">
<g id="viewport">
<title>server/sv_main.qh</title>
<!-- Node1 -->
<g id="node1" class="node"><title>Node1</title>
<polygon fill="#bfbfbf" stroke="black" points="474,-235.5 474,-254.5 578,-254.5 578,-235.5 474,-235.5"/>
<text text-anchor="middle" x="526" y="-242.5" font-family="Helvetica,sans-Serif" font-size="10.00">server/sv_main.qh</text>
</g>
<!-- Node2 -->
<g id="node2" class="node"><title>Node2</title>
<g id="a_node2"><a xlink:href="../../da/d4e/sv__monsters_8qc.html" target="_top" xlink:title="common/monsters/sv\l_monsters.qc">
<polygon fill="none" stroke="black" points="0,-168.5 0,-198.5 122,-198.5 122,-168.5 0,-168.5"/>
<text text-anchor="start" x="8" y="-186.5" font-family="Helvetica,sans-Serif" font-size="10.00">common/monsters/sv</text>
<text text-anchor="middle" x="61" y="-175.5" font-family="Helvetica,sans-Serif" font-size="10.00">_monsters.qc</text>
</a>
</g>
</g>
<!-- Node1&#45;&gt;Node2 -->
<g id="edge1" class="edge"><title>Node1&#45;&gt;Node2</title>
<path fill="none" stroke="midnightblue" d="M463.738,-238.591C385.883,-231.436 248.643,-217.535 132,-199 128.77,-198.487 125.463,-197.928 122.129,-197.339"/>
<polygon fill="midnightblue" stroke="midnightblue" points="463.581,-242.091 473.858,-239.513 464.217,-235.12 463.581,-242.091"/>
</g>
<!-- Node3 -->
<g id="node3" class="node"><title>Node3</title>
<g id="a_node3"><a xlink:href="../../d2/dac/sv__buffs_8qc.html" target="_top" xlink:title="common/mutators/mutator\l/buffs/sv_buffs.qc">
<polygon fill="none" stroke="black" points="140.5,-168.5 140.5,-198.5 289.5,-198.5 289.5,-168.5 140.5,-168.5"/>
<text text-anchor="start" x="148.5" y="-186.5" font-family="Helvetica,sans-Serif" font-size="10.00">common/mutators/mutator</text>
<text text-anchor="middle" x="215" y="-175.5" font-family="Helvetica,sans-Serif" font-size="10.00">/buffs/sv_buffs.qc</text>
</a>
</g>
</g>
<!-- Node1&#45;&gt;Node3 -->
<g id="edge2" class="edge"><title>Node1&#45;&gt;Node3</title>
<path fill="none" stroke="midnightblue" d="M471.309,-233.537C420.474,-223.811 344.375,-209.252 288.297,-198.523"/>
<polygon fill="midnightblue" stroke="midnightblue" points="470.962,-237.034 481.441,-235.475 472.277,-230.158 470.962,-237.034"/>
</g>
<!-- Node4 -->
<g id="node4" class="node"><title>Node4</title>
<g id="a_node4"><a xlink:href="../../da/d10/sv__vehicles_8qc.html" target="_top" xlink:title="common/vehicles/sv\l_vehicles.qc">
<polygon fill="none" stroke="black" points="308,-168.5 308,-198.5 422,-198.5 422,-168.5 308,-168.5"/>
<text text-anchor="start" x="316" y="-186.5" font-family="Helvetica,sans-Serif" font-size="10.00">common/vehicles/sv</text>
<text text-anchor="middle" x="365" y="-175.5" font-family="Helvetica,sans-Serif" font-size="10.00">_vehicles.qc</text>
</a>
</g>
</g>
<!-- Node1&#45;&gt;Node4 -->
<g id="edge3" class="edge"><title>Node1&#45;&gt;Node4</title>
<path fill="none" stroke="midnightblue" d="M493.463,-231.976C467.287,-222.302 430.461,-208.692 402.945,-198.523"/>
<polygon fill="midnightblue" stroke="midnightblue" points="492.339,-235.292 502.933,-235.475 494.766,-228.726 492.339,-235.292"/>
</g>
<!-- Node5 -->
<g id="node5" class="node"><title>Node5</title>
<g id="a_node5"><a xlink:href="../../d6/d29/anticheat_8qc.html" target="_top" xlink:title="server/anticheat.qc">
<polygon fill="none" stroke="black" points="157.5,-112.5 157.5,-131.5 266.5,-131.5 266.5,-112.5 157.5,-112.5"/>
<text text-anchor="middle" x="212" y="-119.5" font-family="Helvetica,sans-Serif" font-size="10.00">server/anticheat.qc</text>
</a>
</g>
</g>
<!-- Node1&#45;&gt;Node5 -->
<g id="edge4" class="edge"><title>Node1&#45;&gt;Node5</title>
<path fill="none" stroke="midnightblue" d="M505.054,-229.787C492.801,-221.232 477.196,-209.913 464,-199 448.493,-186.175 448.864,-177.264 431,-168 402.917,-153.437 321.811,-139.175 266.589,-130.736"/>
<polygon fill="midnightblue" stroke="midnightblue" points="503.084,-232.68 513.301,-235.483 507.062,-226.92 503.084,-232.68"/>
</g>
<!-- Node8 -->
<g id="node8" class="node"><title>Node8</title>
<g id="a_node8"><a xlink:href="../../d6/de9/cheats_8qc.html" target="_top" xlink:title="server/cheats.qc">
<polygon fill="none" stroke="black" points="285,-112.5 285,-131.5 381,-131.5 381,-112.5 285,-112.5"/>
<text text-anchor="middle" x="333" y="-119.5" font-family="Helvetica,sans-Serif" font-size="10.00">server/cheats.qc</text>
</a>
</g>
</g>
<!-- Node1&#45;&gt;Node8 -->
<g id="edge7" class="edge"><title>Node1&#45;&gt;Node8</title>
<path fill="none" stroke="midnightblue" d="M515.744,-226.417C504.904,-209.263 486.305,-183.546 464,-168 437.761,-149.712 403.428,-138.28 376.492,-131.517"/>
<polygon fill="midnightblue" stroke="midnightblue" points="513.012,-228.661 521.199,-235.386 518.993,-225.023 513.012,-228.661"/>
</g>
<!-- Node9 -->
<g id="node9" class="node"><title>Node9</title>
<g id="a_node9"><a xlink:href="../../df/dd7/server_2client_8qc.html" target="_top" xlink:title="server/client.qc">
<polygon fill="none" stroke="black" points="399.5,-112.5 399.5,-131.5 488.5,-131.5 488.5,-112.5 399.5,-112.5"/>
<text text-anchor="middle" x="444" y="-119.5" font-family="Helvetica,sans-Serif" font-size="10.00">server/client.qc</text>
</a>
</g>
</g>
<!-- Node1&#45;&gt;Node9 -->
<g id="edge9" class="edge"><title>Node1&#45;&gt;Node9</title>
<path fill="none" stroke="midnightblue" d="M523.332,-225.348C520.289,-209.048 514.08,-185.343 502,-168 491,-152.209 472.798,-139.39 459.716,-131.531"/>
<polygon fill="midnightblue" stroke="midnightblue" points="519.889,-225.981 524.967,-235.28 526.797,-224.844 519.889,-225.981"/>
</g>
<!-- Node10 -->
<g id="node10" class="node"><title>Node10</title>
<g id="a_node10"><a xlink:href="../../d5/dac/g__damage_8qc.html" target="_top" xlink:title="server/g_damage.qc">
<polygon fill="none" stroke="black" points="506.5,-112.5 506.5,-131.5 621.5,-131.5 621.5,-112.5 506.5,-112.5"/>
<text text-anchor="middle" x="564" y="-119.5" font-family="Helvetica,sans-Serif" font-size="10.00">server/g_damage.qc</text>
</a>
</g>
</g>
<!-- Node1&#45;&gt;Node10 -->
<g id="edge11" class="edge"><title>Node1&#45;&gt;Node10</title>
<path fill="none" stroke="midnightblue" d="M531.747,-225.7C540.07,-199.197 555.154,-151.169 561.292,-131.623"/>
<polygon fill="midnightblue" stroke="midnightblue" points="528.39,-224.709 528.733,-235.298 535.068,-226.806 528.39,-224.709"/>
</g>
<!-- Node11 -->
<g id="node11" class="node"><title>Node11</title>
<g id="a_node11"><a xlink:href="../../dc/dc6/server_2miscfunctions_8qc.html" target="_top" xlink:title="server/miscfunctions.qc">
<polygon fill="none" stroke="black" points="640,-112.5 640,-131.5 770,-131.5 770,-112.5 640,-112.5"/>
<text text-anchor="middle" x="705" y="-119.5" font-family="Helvetica,sans-Serif" font-size="10.00">server/miscfunctions.qc</text>
</a>
</g>
</g>
<!-- Node1&#45;&gt;Node11 -->
<g id="edge13" class="edge"><title>Node1&#45;&gt;Node11</title>
<path fill="none" stroke="midnightblue" d="M543.115,-228.714C561.596,-212.598 592.259,-186.965 621,-168 642.68,-153.694 669.362,-140.01 686.756,-131.566"/>
<polygon fill="midnightblue" stroke="midnightblue" points="540.725,-226.156 535.532,-235.391 545.351,-231.409 540.725,-226.156"/>
</g>
<!-- Node12 -->
<g id="node12" class="node"><title>Node12</title>
<g id="a_node12"><a xlink:href="../../db/d9b/server_2player_8qc.html" target="_top" xlink:title="server/player.qc">
<polygon fill="none" stroke="black" points="630,-174 630,-193 722,-193 722,-174 630,-174"/>
<text text-anchor="middle" x="676" y="-181" font-family="Helvetica,sans-Serif" font-size="10.00">server/player.qc</text>
</a>
</g>
</g>
<!-- Node1&#45;&gt;Node12 -->
<g id="edge15" class="edge"><title>Node1&#45;&gt;Node12</title>
<path fill="none" stroke="midnightblue" d="M556.801,-231.782C585.95,-220.22 628.948,-203.164 654.549,-193.009"/>
<polygon fill="midnightblue" stroke="midnightblue" points="555.496,-228.534 547.491,-235.475 558.077,-235.041 555.496,-228.534"/>
</g>
<!-- Node13 -->
<g id="node13" class="node"><title>Node13</title>
<g id="a_node13"><a xlink:href="../../d7/d31/tracing_8qc.html" target="_top" xlink:title="server/weapons/tracing.qc">
<polygon fill="none" stroke="black" points="740,-174 740,-193 882,-193 882,-174 740,-174"/>
<text text-anchor="middle" x="811" y="-181" font-family="Helvetica,sans-Serif" font-size="10.00">server/weapons/tracing.qc</text>
</a>
</g>
</g>
<!-- Node1&#45;&gt;Node13 -->
<g id="edge17" class="edge"><title>Node1&#45;&gt;Node13</title>
<path fill="none" stroke="midnightblue" d="M576.762,-233.402C632.015,-221.867 719.274,-203.65 770.242,-193.009"/>
<polygon fill="midnightblue" stroke="midnightblue" points="575.907,-230.005 566.834,-235.475 577.338,-236.857 575.907,-230.005"/>
</g>
<!-- Node15 -->
<g id="node15" class="node"><title>Node15</title>
<g id="a_node15"><a xlink:href="../../d3/d4f/sv__main_8qc.html" target="_top" xlink:title="server/sv_main.qc">
<polygon fill="none" stroke="black" points="900,-174 900,-193 1004,-193 1004,-174 900,-174"/>
<text text-anchor="middle" x="952" y="-181" font-family="Helvetica,sans-Serif" font-size="10.00">server/sv_main.qc</text>
</a>
</g>
</g>
<!-- Node1&#45;&gt;Node15 -->
<g id="edge20" class="edge"><title>Node1&#45;&gt;Node15</title>
<path fill="none" stroke="midnightblue" d="M588.64,-238.406C661.598,-231.399 785.588,-217.966 891,-199 900.106,-197.362 909.89,-195.213 918.898,-193.073"/>
<polygon fill="midnightblue" stroke="midnightblue" points="587.878,-234.962 578.255,-239.393 588.541,-241.931 587.878,-234.962"/>
</g>
<!-- Node6 -->
<g id="node6" class="node"><title>Node6</title>
<g id="a_node6"><a xlink:href="../../dc/d7f/server_2__mod_8inc.html" target="_top" xlink:title="server/_mod.inc">
<polygon fill="none" stroke="black" points="517.5,-56.5 517.5,-75.5 610.5,-75.5 610.5,-56.5 517.5,-56.5"/>
<text text-anchor="middle" x="564" y="-63.5" font-family="Helvetica,sans-Serif" font-size="10.00">server/_mod.inc</text>
</a>
</g>
</g>
<!-- Node5&#45;&gt;Node6 -->
<g id="edge5" class="edge"><title>Node5&#45;&gt;Node6</title>
<path fill="none" stroke="midnightblue" d="M276.603,-111.089C346.324,-100.393 455.646,-83.6224 517.419,-74.1459"/>
<polygon fill="midnightblue" stroke="midnightblue" points="275.967,-107.646 266.614,-112.622 277.029,-114.565 275.967,-107.646"/>
</g>
<!-- Node7 -->
<g id="node7" class="node"><title>Node7</title>
<g id="a_node7"><a xlink:href="../../dd/d96/server_2progs_8inc.html" target="_top" xlink:title="server/progs.inc">
<polygon fill="none" stroke="black" points="517.5,-0.5 517.5,-19.5 610.5,-19.5 610.5,-0.5 517.5,-0.5"/>
<text text-anchor="middle" x="564" y="-7.5" font-family="Helvetica,sans-Serif" font-size="10.00">server/progs.inc</text>
</a>
</g>
</g>
<!-- Node6&#45;&gt;Node7 -->
<g id="edge6" class="edge"><title>Node6&#45;&gt;Node7</title>
<path fill="none" stroke="midnightblue" d="M564,-45.8045C564,-36.9102 564,-26.7798 564,-19.7511"/>
<polygon fill="midnightblue" stroke="midnightblue" points="560.5,-46.083 564,-56.083 567.5,-46.083 560.5,-46.083"/>
</g>
<!-- Node8&#45;&gt;Node6 -->
<g id="edge8" class="edge"><title>Node8&#45;&gt;Node6</title>
<path fill="none" stroke="midnightblue" d="M379.402,-110.153C423.047,-99.95 487.51,-84.8809 527.569,-75.5164"/>
<polygon fill="midnightblue" stroke="midnightblue" points="378.543,-106.759 369.603,-112.444 380.137,-113.575 378.543,-106.759"/>
</g>
<!-- Node9&#45;&gt;Node6 -->
<g id="edge10" class="edge"><title>Node9&#45;&gt;Node6</title>
<path fill="none" stroke="midnightblue" d="M472.373,-108.232C494.82,-98.1312 525.535,-84.3091 545.075,-75.5164"/>
<polygon fill="midnightblue" stroke="midnightblue" points="470.697,-105.148 463.014,-112.444 473.57,-111.532 470.697,-105.148"/>
</g>
<!-- Node10&#45;&gt;Node6 -->
<g id="edge12" class="edge"><title>Node10&#45;&gt;Node6</title>
<path fill="none" stroke="midnightblue" d="M564,-101.805C564,-92.9102 564,-82.7798 564,-75.7511"/>
<polygon fill="midnightblue" stroke="midnightblue" points="560.5,-102.083 564,-112.083 567.5,-102.083 560.5,-102.083"/>
</g>
<!-- Node11&#45;&gt;Node6 -->
<g id="edge14" class="edge"><title>Node11&#45;&gt;Node6</title>
<path fill="none" stroke="midnightblue" d="M673.071,-108.772C646.586,-98.6287 609.608,-84.4669 586.237,-75.5164"/>
<polygon fill="midnightblue" stroke="midnightblue" points="672.068,-112.136 682.658,-112.444 674.571,-105.599 672.068,-112.136"/>
</g>
<!-- Node12&#45;&gt;Node6 -->
<g id="edge16" class="edge"><title>Node12&#45;&gt;Node6</title>
<path fill="none" stroke="midnightblue" d="M719.617,-170.97C756.611,-159.052 800.51,-138.479 779,-112 758.201,-86.3967 667.327,-74.8472 610.587,-70.0495"/>
<polygon fill="midnightblue" stroke="midnightblue" points="718.445,-167.669 709.917,-173.956 720.504,-174.359 718.445,-167.669"/>
</g>
<!-- Node14 -->
<g id="node14" class="node"><title>Node14</title>
<g id="a_node14"><a xlink:href="../../d0/d70/server_2weapons_2__mod_8inc.html" target="_top" xlink:title="server/weapons/_mod.inc">
<polygon fill="none" stroke="black" points="826,-112.5 826,-131.5 964,-131.5 964,-112.5 826,-112.5"/>
<text text-anchor="middle" x="895" y="-119.5" font-family="Helvetica,sans-Serif" font-size="10.00">server/weapons/_mod.inc</text>
</a>
</g>
</g>
<!-- Node13&#45;&gt;Node14 -->
<g id="edge18" class="edge"><title>Node13&#45;&gt;Node14</title>
<path fill="none" stroke="midnightblue" d="M831.311,-168.113C847.467,-156.669 869.523,-141.046 882.987,-131.509"/>
<polygon fill="midnightblue" stroke="midnightblue" points="829.172,-165.339 823.035,-173.975 833.218,-171.051 829.172,-165.339"/>
</g>
<!-- Node14&#45;&gt;Node6 -->
<g id="edge19" class="edge"><title>Node14&#45;&gt;Node6</title>
<path fill="none" stroke="midnightblue" d="M832.497,-110.803C767.915,-100.267 668.601,-84.0649 610.589,-74.6006"/>
<polygon fill="midnightblue" stroke="midnightblue" points="832.119,-114.288 842.552,-112.444 833.246,-107.379 832.119,-114.288"/>
</g>
</g>
</svg>
        <g id="navigator" transform="translate(0 0)" fill="#404254">
                <rect fill="#f2f5e9" fill-opacity="0.5" stroke="#606060" stroke-width=".5" x="0" y="0" width="60" height="60"/>
                <use id="zoomplus" xlink:href="#zoomPlus" x="17" y="9" onmousedown="handleZoom(evt,'in')"/>
                <use id="zoomminus" xlink:href="#zoomMin" x="42" y="9" onmousedown="handleZoom(evt,'out')"/>
                <use id="reset" xlink:href="#resetDef" x="30" y="36" onmousedown="handleReset()"/>
                <g id="arrowUp" xlink:href="#dirArrow" transform="translate(30 24)" onmousedown="handlePan(0,-1)">
                  <use xlink:href="#rim" fill="#404040">
                        <set attributeName="fill" to="#808080" begin="arrowUp.mouseover" end="arrowUp.mouseout"/>
                  </use>
                  <path fill="none" stroke="white" stroke-width="1.5" d="M0,-3.0v7 M-2.5,-0.5L0,-3.0L2.5,-0.5"/>
                </g>
                <g id="arrowRight" xlink:href="#dirArrow" transform="rotate(90) translate(36 -43)" onmousedown="handlePan(1,0)">
                  <use xlink:href="#rim" fill="#404040">
                        <set attributeName="fill" to="#808080" begin="arrowRight.mouseover" end="arrowRight.mouseout"/>
                  </use>
                  <path fill="none" stroke="white" stroke-width="1.5" d="M0,-3.0v7 M-2.5,-0.5L0,-3.0L2.5,-0.5"/>
                </g>
                <g id="arrowDown" xlink:href="#dirArrow" transform="rotate(180) translate(-30 -48)" onmousedown="handlePan(0,1)">
                  <use xlink:href="#rim" fill="#404040">
                        <set attributeName="fill" to="#808080" begin="arrowDown.mouseover" end="arrowDown.mouseout"/>
                  </use>
                  <path fill="none" stroke="white" stroke-width="1.5" d="M0,-3.0v7 M-2.5,-0.5L0,-3.0L2.5,-0.5"/>
                </g>
                <g id="arrowLeft" xlink:href="#dirArrow" transform="rotate(270) translate(-36 17)" onmousedown="handlePan(-1,0)">
                  <use xlink:href="#rim" fill="#404040">
                        <set attributeName="fill" to="#808080" begin="arrowLeft.mouseover" end="arrowLeft.mouseout"/>
                  </use>
                  <path fill="none" stroke="white" stroke-width="1.5" d="M0,-3.0v7 M-2.5,-0.5L0,-3.0L2.5,-0.5"/>
                </g>
        </g>
        <svg viewBox="0 0 15 15" width="100%" height="30px" preserveAspectRatio="xMaxYMin meet">
         <g id="arrow_out" transform="scale(0.3 0.3)">
          <a xlink:href="sv__main_8qh__dep__incl_org.svg" target="_base">
           <rect id="button" ry="5" rx="5" y="6" x="6" height="38" width="38"
                fill="#f2f5e9" fill-opacity="0.5" stroke="#606060" stroke-width="1.0"/>
           <path id="arrow"
             d="M 11.500037,31.436501 C 11.940474,20.09759 22.043105,11.32322 32.158766,21.979434 L 37.068811,17.246167 C 37.068811,17.246167 37.088388,32 37.088388,32 L 22.160133,31.978069 C 22.160133,31.978069 26.997745,27.140456 26.997745,27.140456 C 18.528582,18.264221 13.291696,25.230495 11.500037,31.436501 z"
             style="fill:#404040;"/>
          </a>
         </g>
        </svg>
</svg>
