<?xml version="1.0" encoding="UTF-8" standalone="no"?>
<!DOCTYPE svg PUBLIC "-//W3C//DTD SVG 1.1//EN"
 "http://www.w3.org/Graphics/SVG/1.1/DTD/svg11.dtd">
<!-- Generated by graphviz version 2.40.1 (20161225.0304)
 -->
<!-- Title: GameTypeVote_Type_FromString Pages: 1 -->
<svg width="361pt" height="104pt"
 viewBox="0.00 0.00 361.00 104.00" xmlns="http://www.w3.org/2000/svg" xmlns:xlink="http://www.w3.org/1999/xlink">
<g id="graph0" class="graph" transform="scale(1 1) rotate(0) translate(4 100)">
<title>GameTypeVote_Type_FromString</title>
<!-- Node548 -->
<g id="node1" class="node">
<title>Node548</title>
<polygon fill="#bfbfbf" stroke="#000000" points="0,-38.5 0,-57.5 176,-57.5 176,-38.5 0,-38.5"/>
<text text-anchor="middle" x="88" y="-45.5" font-family="Helvetica,sans-Serif" font-size="10.00" fill="#000000">GameTypeVote_Type_FromString</text>
</g>
<!-- Node549 -->
<g id="node2" class="node">
<title>Node549</title>
<g id="a_node2"><a xlink:href="../../d8/de2/menudefs_8qc.html#a6f8c7ef6ee4a4d851aaa5fd1789eab9a" target="_top" xlink:title="cvar_string">
<polygon fill="none" stroke="#000000" points="247,-76.5 247,-95.5 318,-95.5 318,-76.5 247,-76.5"/>
<text text-anchor="middle" x="282.5" y="-83.5" font-family="Helvetica,sans-Serif" font-size="10.00" fill="#000000">cvar_string</text>
</a>
</g>
</g>
<!-- Node548&#45;&gt;Node549 -->
<g id="edge1" class="edge">
<title>Node548&#45;&gt;Node549</title>
<path fill="none" stroke="#191970" d="M136.8295,-57.54C167.5639,-63.5446 206.9608,-71.2417 237.0323,-77.1168"/>
<polygon fill="#191970" stroke="#191970" points="236.3613,-80.5519 246.8469,-79.0344 237.7036,-73.6817 236.3613,-80.5519"/>
</g>
<!-- Node550 -->
<g id="node3" class="node">
<title>Node550</title>
<g id="a_node3"><a xlink:href="../../d3/d46/mapinfo_8qc.html#a4980eeee73ad664197402caae5c509f9" target="_top" xlink:title="MapInfo_Type_FromString">
<polygon fill="none" stroke="#000000" points="212,-38.5 212,-57.5 353,-57.5 353,-38.5 212,-38.5"/>
<text text-anchor="middle" x="282.5" y="-45.5" font-family="Helvetica,sans-Serif" font-size="10.00" fill="#000000">MapInfo_Type_FromString</text>
</a>
</g>
</g>
<!-- Node548&#45;&gt;Node550 -->
<g id="edge2" class="edge">
<title>Node548&#45;&gt;Node550</title>
<path fill="none" stroke="#191970" d="M176.1447,-48C184.6482,-48 193.2453,-48 201.673,-48"/>
<polygon fill="#191970" stroke="#191970" points="201.8513,-51.5001 211.8513,-48 201.8512,-44.5001 201.8513,-51.5001"/>
</g>
<!-- Node551 -->
<g id="node4" class="node">
<title>Node551</title>
<g id="a_node4"><a xlink:href="../../d9/d09/notifications_2all_8inc.html#a8a4ab6ed091bc35be38330ff398b42b8" target="_top" xlink:title="strcat">
<polygon fill="none" stroke="#000000" points="260.5,-.5 260.5,-19.5 304.5,-19.5 304.5,-.5 260.5,-.5"/>
<text text-anchor="middle" x="282.5" y="-7.5" font-family="Helvetica,sans-Serif" font-size="10.00" fill="#000000">strcat</text>
</a>
</g>
</g>
<!-- Node548&#45;&gt;Node551 -->
<g id="edge3" class="edge">
<title>Node548&#45;&gt;Node551</title>
<path fill="none" stroke="#191970" d="M136.8295,-38.46C172.262,-31.5375 219.2077,-22.3656 250.1045,-16.3292"/>
<polygon fill="#191970" stroke="#191970" points="251.1753,-19.6862 260.3186,-14.3336 249.833,-12.8161 251.1753,-19.6862"/>
</g>
</g>
</svg>
