<?xml version="1.0" encoding="UTF-8" standalone="no"?>
<!DOCTYPE svg PUBLIC "-//W3C//DTD SVG 1.1//EN"
 "http://www.w3.org/Graphics/SVG/1.1/DTD/svg11.dtd">
<!-- Generated by graphviz version 2.38.0 (20140413.2041)
 -->
<!-- Title: GameTypeVote_AvailabilityStatus Pages: 1 -->
<svg width="859pt" height="52pt"
 viewBox="0.00 0.00 859.00 51.50" xmlns="http://www.w3.org/2000/svg" xmlns:xlink="http://www.w3.org/1999/xlink">
<g id="graph0" class="graph" transform="scale(1 1) rotate(0) translate(4 47.5)">
<title>GameTypeVote_AvailabilityStatus</title>
<!-- Node1 -->
<g id="node1" class="node"><title>Node1</title>
<polygon fill="#bfbfbf" stroke="black" points="0,-0.5 0,-30.5 143,-30.5 143,-0.5 0,-0.5"/>
<text text-anchor="start" x="8" y="-18.5" font-family="Helvetica,sans-Serif" font-size="10.00">GameTypeVote_Availability</text>
<text text-anchor="middle" x="71.5" y="-7.5" font-family="Helvetica,sans-Serif" font-size="10.00">Status</text>
</g>
<!-- Node2 -->
<g id="node2" class="node"><title>Node2</title>
<g id="a_node2"><a xlink:href="../../d2/d76/server_2mapvoting_8qc.html#af481d3d1aad9744bcd9fa4d4889b2a20" target="_top" xlink:title="GameTypeVote_AddVotable">
<polygon fill="none" stroke="black" points="179,-6 179,-25 328,-25 328,-6 179,-6"/>
<text text-anchor="middle" x="253.5" y="-13" font-family="Helvetica,sans-Serif" font-size="10.00">GameTypeVote_AddVotable</text>
</a>
</g>
</g>
<!-- Node1&#45;&gt;Node2 -->
<g id="edge1" class="edge"><title>Node1&#45;&gt;Node2</title>
<path fill="none" stroke="midnightblue" d="M153.383,-15.5C161.854,-15.5 170.435,-15.5 178.82,-15.5"/>
<polygon fill="midnightblue" stroke="midnightblue" points="153.124,-12.0001 143.124,-15.5 153.124,-19.0001 153.124,-12.0001"/>
</g>
<!-- Node3 -->
<g id="node3" class="node"><title>Node3</title>
<g id="a_node3"><a xlink:href="../../d3/d53/server_2mapvoting_8qh.html#a9e23e88fcace6381b529ac8060f0ad26" target="_top" xlink:title="GameTypeVote_Start">
<polygon fill="none" stroke="black" points="364,-6 364,-25 482,-25 482,-6 364,-6"/>
<text text-anchor="middle" x="423" y="-13" font-family="Helvetica,sans-Serif" font-size="10.00">GameTypeVote_Start</text>
</a>
</g>
</g>
<!-- Node2&#45;&gt;Node3 -->
<g id="edge2" class="edge"><title>Node2&#45;&gt;Node3</title>
<path fill="none" stroke="midnightblue" d="M338.479,-15.5C347.035,-15.5 355.588,-15.5 363.78,-15.5"/>
<polygon fill="midnightblue" stroke="midnightblue" points="338.456,-12.0001 328.456,-15.5 338.455,-19.0001 338.456,-12.0001"/>
</g>
<!-- Node4 -->
<g id="node4" class="node"><title>Node4</title>
<g id="a_node4"><a xlink:href="../../d3/d53/server_2mapvoting_8qh.html#a55a404e632b9599200cdd019f8c03964" target="_top" xlink:title="MapVote_Think">
<polygon fill="none" stroke="black" points="518,-6 518,-25 607,-25 607,-6 518,-6"/>
<text text-anchor="middle" x="562.5" y="-13" font-family="Helvetica,sans-Serif" font-size="10.00">MapVote_Think</text>
</a>
</g>
</g>
<!-- Node3&#45;&gt;Node4 -->
<g id="edge3" class="edge"><title>Node3&#45;&gt;Node4</title>
<path fill="none" stroke="midnightblue" d="M492.385,-15.5C500.997,-15.5 509.616,-15.5 517.702,-15.5"/>
<polygon fill="midnightblue" stroke="midnightblue" points="492.312,-12.0001 482.312,-15.5 492.312,-19.0001 492.312,-12.0001"/>
</g>
<!-- Node5 -->
<g id="node5" class="node"><title>Node5</title>
<g id="a_node5"><a xlink:href="../../d7/d97/g__world_8qh.html#a233af455133bc7ba4e3e100115bf2885" target="_top" xlink:title="CheckRules_World">
<polygon fill="none" stroke="black" points="643,-6 643,-25 744,-25 744,-6 643,-6"/>
<text text-anchor="middle" x="693.5" y="-13" font-family="Helvetica,sans-Serif" font-size="10.00">CheckRules_World</text>
</a>
</g>
</g>
<!-- Node4&#45;&gt;Node5 -->
<g id="edge4" class="edge"><title>Node4&#45;&gt;Node5</title>
<path fill="none" stroke="midnightblue" d="M617.266,-15.5C625.674,-15.5 634.333,-15.5 642.648,-15.5"/>
<polygon fill="midnightblue" stroke="midnightblue" points="617.174,-12.0001 607.174,-15.5 617.173,-19.0001 617.174,-12.0001"/>
</g>
<!-- Node5&#45;&gt;Node5 -->
<g id="edge5" class="edge"><title>Node5&#45;&gt;Node5</title>
<path fill="none" stroke="midnightblue" d="M670.807,-34.5292C672.044,-39.628 679.609,-43.5 693.5,-43.5 715.184,-43.5 721.452,-34.0653 712.304,-25.2571"/>
<polygon fill="midnightblue" stroke="midnightblue" points="674.055,-35.8325 674.696,-25.2571 667.6,-33.1246 674.055,-35.8325"/>
</g>
<!-- Node6 -->
<g id="node6" class="node"><title>Node6</title>
<g id="a_node6"><a xlink:href="../../d3/d4f/sv__main_8qc.html#a554af7e2ac58045168dad9eca30bc8b1" target="_top" xlink:title="StartFrame">
<polygon fill="none" stroke="black" points="780,-6 780,-25 851,-25 851,-6 780,-6"/>
<text text-anchor="middle" x="815.5" y="-13" font-family="Helvetica,sans-Serif" font-size="10.00">StartFrame</text>
</a>
</g>
</g>
<!-- Node5&#45;&gt;Node6 -->
<g id="edge6" class="edge"><title>Node5&#45;&gt;Node6</title>
<path fill="none" stroke="midnightblue" d="M754.226,-15.5C762.977,-15.5 771.736,-15.5 779.758,-15.5"/>
<polygon fill="midnightblue" stroke="midnightblue" points="754.001,-12.0001 744.001,-15.5 754.001,-19.0001 754.001,-12.0001"/>
</g>
</g>
</svg>
