<?xml version="1.0" encoding="UTF-8" standalone="no"?>
<!DOCTYPE svg PUBLIC "-//W3C//DTD SVG 1.1//EN"
 "http://www.w3.org/Graphics/SVG/1.1/DTD/svg11.dtd">
<!-- Generated by graphviz version 2.36.0 (20140111.2315)
 -->
<!-- Title: MapVote_CheckRules_2 Pages: 1 -->
<svg width="612pt" height="46pt"
 viewBox="0.00 0.00 612.00 46.00" xmlns="http://www.w3.org/2000/svg" xmlns:xlink="http://www.w3.org/1999/xlink">
<g id="graph0" class="graph" transform="scale(1 1) rotate(0) translate(4 42)">
<title>MapVote_CheckRules_2</title>
<!-- Node1 -->
<g id="node1" class="node"><title>Node1</title>
<polygon fill="#bfbfbf" stroke="black" points="0.5,-0.5 0.5,-19.5 125.5,-19.5 125.5,-0.5 0.5,-0.5"/>
<text text-anchor="middle" x="63" y="-7.5" font-family="Helvetica,sans-Serif" font-size="10.00">MapVote_CheckRules_2</text>
</g>
<!-- Node2 -->
<g id="node2" class="node"><title>Node2</title>
<g id="a_node2"><a xlink:href="../../d2/d76/server_2mapvoting_8qc.html#a5ac2229ef4b363054b5b66d314e89437" target="_top" xlink:title="MapVote_Tick">
<polygon fill="none" stroke="black" points="162,-0.5 162,-19.5 242,-19.5 242,-0.5 162,-0.5"/>
<text text-anchor="middle" x="202" y="-7.5" font-family="Helvetica,sans-Serif" font-size="10.00">MapVote_Tick</text>
</a>
</g>
</g>
<!-- Node1&#45;&gt;Node2 -->
<g id="edge1" class="edge"><title>Node1&#45;&gt;Node2</title>
<path fill="none" stroke="midnightblue" d="M135.741,-10C144.647,-10 153.48,-10 161.635,-10"/>
<polygon fill="midnightblue" stroke="midnightblue" points="135.687,-6.5001 125.687,-10 135.687,-13.5001 135.687,-6.5001"/>
</g>
<!-- Node3 -->
<g id="node3" class="node"><title>Node3</title>
<g id="a_node3"><a xlink:href="../../d3/d53/server_2mapvoting_8qh.html#a55a404e632b9599200cdd019f8c03964" target="_top" xlink:title="MapVote_Think">
<polygon fill="none" stroke="black" points="278.5,-0.5 278.5,-19.5 363.5,-19.5 363.5,-0.5 278.5,-0.5"/>
<text text-anchor="middle" x="321" y="-7.5" font-family="Helvetica,sans-Serif" font-size="10.00">MapVote_Think</text>
</a>
</g>
</g>
<!-- Node2&#45;&gt;Node3 -->
<g id="edge2" class="edge"><title>Node2&#45;&gt;Node3</title>
<path fill="none" stroke="midnightblue" d="M252.533,-10C261.083,-10 269.894,-10 278.213,-10"/>
<polygon fill="midnightblue" stroke="midnightblue" points="252.285,-6.5001 242.285,-10 252.285,-13.5001 252.285,-6.5001"/>
</g>
<!-- Node4 -->
<g id="node4" class="node"><title>Node4</title>
<g id="a_node4"><a xlink:href="../../d7/d97/g__world_8qh.html#a233af455133bc7ba4e3e100115bf2885" target="_top" xlink:title="CheckRules_World">
<polygon fill="none" stroke="black" points="400.5,-0.5 400.5,-19.5 501.5,-19.5 501.5,-0.5 400.5,-0.5"/>
<text text-anchor="middle" x="451" y="-7.5" font-family="Helvetica,sans-Serif" font-size="10.00">CheckRules_World</text>
</a>
</g>
</g>
<!-- Node3&#45;&gt;Node4 -->
<g id="edge3" class="edge"><title>Node3&#45;&gt;Node4</title>
<path fill="none" stroke="midnightblue" d="M373.642,-10C382.393,-10 391.465,-10 400.168,-10"/>
<polygon fill="midnightblue" stroke="midnightblue" points="373.558,-6.5001 363.558,-10 373.558,-13.5001 373.558,-6.5001"/>
</g>
<!-- Node4&#45;&gt;Node4 -->
<g id="edge4" class="edge"><title>Node4&#45;&gt;Node4</title>
<path fill="none" stroke="midnightblue" d="M428.679,-29.0292C429.896,-34.128 437.337,-38 451,-38 472.328,-38 478.493,-28.5653 469.495,-19.7571"/>
<polygon fill="midnightblue" stroke="midnightblue" points="431.926,-30.3361 432.505,-19.7571 425.455,-27.6661 431.926,-30.3361"/>
</g>
<!-- Node5 -->
<g id="node5" class="node"><title>Node5</title>
<g id="a_node5"><a xlink:href="../../d3/d4f/sv__main_8qc.html#a554af7e2ac58045168dad9eca30bc8b1" target="_top" xlink:title="StartFrame">
<polygon fill="none" stroke="black" points="538.5,-0.5 538.5,-19.5 603.5,-19.5 603.5,-0.5 538.5,-0.5"/>
<text text-anchor="middle" x="571" y="-7.5" font-family="Helvetica,sans-Serif" font-size="10.00">StartFrame</text>
</a>
</g>
</g>
<!-- Node4&#45;&gt;Node5 -->
<g id="edge5" class="edge"><title>Node4&#45;&gt;Node5</title>
<path fill="none" stroke="midnightblue" d="M511.907,-10C520.976,-10 530.017,-10 538.172,-10"/>
<polygon fill="midnightblue" stroke="midnightblue" points="511.701,-6.5001 501.701,-10 511.701,-13.5001 511.701,-6.5001"/>
</g>
</g>
</svg>
