<?xml version="1.0" encoding="UTF-8" standalone="no"?>
<!DOCTYPE svg PUBLIC "-//W3C//DTD SVG 1.1//EN"
 "http://www.w3.org/Graphics/SVG/1.1/DTD/svg11.dtd">
<!-- Generated by graphviz version 2.40.1 (20161225.0304)
 -->
<!-- Title: havocbot_role_ft_offense Pages: 1 -->
<svg width="668pt" height="463pt"
 viewBox="0.00 0.00 668.00 463.17" xmlns="http://www.w3.org/2000/svg" xmlns:xlink="http://www.w3.org/1999/xlink">
<g id="graph0" class="graph" transform="scale(1 1) rotate(0) translate(4 459.1672)">
<title>havocbot_role_ft_offense</title>
<!-- Node611 -->
<g id="node1" class="node">
<title>Node611</title>
<polygon fill="#bfbfbf" stroke="#000000" points="0,-239.1672 0,-258.1672 140,-258.1672 140,-239.1672 0,-239.1672"/>
<text text-anchor="middle" x="70" y="-246.1672" font-family="Helvetica,sans-Serif" font-size="10.00" fill="#000000">havocbot_role_ft_offense</text>
</g>
<!-- Node612 -->
<g id="node2" class="node">
<title>Node612</title>
<g id="a_node2"><a xlink:href="../../d7/dd0/sv__onslaught_8qh.html#a6456f6b6523f83904a00a909d0a87236" target="_top" xlink:title="havocbot_goalrating\l_enemyplayers">
<polygon fill="none" stroke="#000000" points="365,-424.6672 365,-454.6672 481,-454.6672 481,-424.6672 365,-424.6672"/>
<text text-anchor="start" x="373" y="-442.6672" font-family="Helvetica,sans-Serif" font-size="10.00" fill="#000000">havocbot_goalrating</text>
<text text-anchor="middle" x="423" y="-431.6672" font-family="Helvetica,sans-Serif" font-size="10.00" fill="#000000">_enemyplayers</text>
</a>
</g>
</g>
<!-- Node611&#45;&gt;Node612 -->
<g id="edge1" class="edge">
<title>Node611&#45;&gt;Node612</title>
<path fill="none" stroke="#191970" d="M77.1072,-258.4133C92.7269,-279.1762 132.1638,-328.1184 176,-355.6672 231.5726,-390.5918 303.3746,-412.8931 355.2258,-425.6716"/>
<polygon fill="#191970" stroke="#191970" points="354.4512,-429.085 364.9928,-428.0244 356.0906,-422.2797 354.4512,-429.085"/>
</g>
<!-- Node613 -->
<g id="node3" class="node">
<title>Node613</title>
<g id="a_node3"><a xlink:href="../../d3/d60/sv__freezetag_8qc.html#a8b206aa86ef6e67947f0ee30df3a7ea2" target="_top" xlink:title="havocbot_goalrating\l_ft_freeplayers">
<polygon fill="none" stroke="#000000" points="365,-375.6672 365,-405.6672 481,-405.6672 481,-375.6672 365,-375.6672"/>
<text text-anchor="start" x="373" y="-393.6672" font-family="Helvetica,sans-Serif" font-size="10.00" fill="#000000">havocbot_goalrating</text>
<text text-anchor="middle" x="423" y="-382.6672" font-family="Helvetica,sans-Serif" font-size="10.00" fill="#000000">_ft_freeplayers</text>
</a>
</g>
</g>
<!-- Node611&#45;&gt;Node613 -->
<g id="edge2" class="edge">
<title>Node611&#45;&gt;Node613</title>
<path fill="none" stroke="#191970" d="M82.0085,-258.3604C100.9477,-273.2262 139.3777,-301.71 176,-318.6672 233.9488,-345.4993 304.209,-364.8176 354.9559,-376.6459"/>
<polygon fill="#191970" stroke="#191970" points="354.3063,-380.0877 364.8356,-378.9117 355.8711,-373.2648 354.3063,-380.0877"/>
</g>
<!-- Node617 -->
<g id="node7" class="node">
<title>Node617</title>
<g id="a_node7"><a xlink:href="../../d7/dd0/sv__onslaught_8qh.html#a3e9df5e35d2e1a1d92cb47e72b572d4a" target="_top" xlink:title="havocbot_goalrating\l_items">
<polygon fill="none" stroke="#000000" points="365,-326.6672 365,-356.6672 481,-356.6672 481,-326.6672 365,-326.6672"/>
<text text-anchor="start" x="373" y="-344.6672" font-family="Helvetica,sans-Serif" font-size="10.00" fill="#000000">havocbot_goalrating</text>
<text text-anchor="middle" x="423" y="-333.6672" font-family="Helvetica,sans-Serif" font-size="10.00" fill="#000000">_items</text>
</a>
</g>
</g>
<!-- Node611&#45;&gt;Node617 -->
<g id="edge6" class="edge">
<title>Node611&#45;&gt;Node617</title>
<path fill="none" stroke="#191970" d="M92.4115,-258.2454C113.6405,-267.0484 146.5629,-280.0076 176,-288.6672 235.6355,-306.2104 304.9497,-320.5742 354.945,-329.9015"/>
<polygon fill="#191970" stroke="#191970" points="354.5242,-333.3829 364.9936,-331.7569 355.7954,-326.4992 354.5242,-333.3829"/>
</g>
<!-- Node618 -->
<g id="node8" class="node">
<title>Node618</title>
<g id="a_node8"><a xlink:href="../../db/d15/api_8qh.html#a0375becf8030b1b6159611d74c885238" target="_top" xlink:title="havocbot_goalrating\l_waypoints">
<polygon fill="none" stroke="#000000" points="365,-277.6672 365,-307.6672 481,-307.6672 481,-277.6672 365,-277.6672"/>
<text text-anchor="start" x="373" y="-295.6672" font-family="Helvetica,sans-Serif" font-size="10.00" fill="#000000">havocbot_goalrating</text>
<text text-anchor="middle" x="423" y="-284.6672" font-family="Helvetica,sans-Serif" font-size="10.00" fill="#000000">_waypoints</text>
</a>
</g>
</g>
<!-- Node611&#45;&gt;Node618 -->
<g id="edge7" class="edge">
<title>Node611&#45;&gt;Node618</title>
<path fill="none" stroke="#191970" d="M118.6886,-258.1999C136.6529,-261.5042 157.2068,-265.0358 176,-267.6672 236.2995,-276.1104 305.2639,-282.8481 354.9682,-287.1915"/>
<polygon fill="#191970" stroke="#191970" points="354.6934,-290.6807 364.9577,-288.0548 355.2962,-283.7067 354.6934,-290.6807"/>
</g>
<!-- Node620 -->
<g id="node10" class="node">
<title>Node620</title>
<g id="a_node10"><a xlink:href="../../d8/de2/menudefs_8qc.html#a663ea6aa3c4923b3e065cf91cc319f1b" target="_top" xlink:title="random">
<polygon fill="none" stroke="#000000" points="569,-239.1672 569,-258.1672 623,-258.1672 623,-239.1672 569,-239.1672"/>
<text text-anchor="middle" x="596" y="-246.1672" font-family="Helvetica,sans-Serif" font-size="10.00" fill="#000000">random</text>
</a>
</g>
</g>
<!-- Node611&#45;&gt;Node620 -->
<g id="edge25" class="edge">
<title>Node611&#45;&gt;Node620</title>
<path fill="none" stroke="#191970" d="M73.1407,-238.7762C83.0031,-209.4244 116.303,-122.2774 176,-80.6672 293.4532,1.2004 374.5829,32.1976 496,-43.6672 562.8959,-85.4657 586.2328,-186.3377 593.2955,-229.0425"/>
<polygon fill="#191970" stroke="#191970" points="589.8487,-229.657 594.8185,-239.0139 596.7684,-228.6001 589.8487,-229.657"/>
</g>
<!-- Node621 -->
<g id="node11" class="node">
<title>Node621</title>
<g id="a_node11"><a xlink:href="../../d3/d60/sv__freezetag_8qc.html#a9930fe7ce4013e24518d15e21ab3e9bc" target="_top" xlink:title="havocbot_role_ft_freeing">
<polygon fill="none" stroke="#000000" points="176,-239.1672 176,-258.1672 314,-258.1672 314,-239.1672 176,-239.1672"/>
<text text-anchor="middle" x="245" y="-246.1672" font-family="Helvetica,sans-Serif" font-size="10.00" fill="#000000">havocbot_role_ft_freeing</text>
</a>
</g>
</g>
<!-- Node611&#45;&gt;Node621 -->
<g id="edge10" class="edge">
<title>Node611&#45;&gt;Node621</title>
<path fill="none" stroke="#191970" d="M140.1709,-242.0363C148.6458,-241.9185 157.3467,-241.8881 165.938,-241.9452"/>
<polygon fill="#191970" stroke="#191970" points="165.9162,-245.4451 175.9531,-242.0525 165.9912,-238.4455 165.9162,-245.4451"/>
</g>
<!-- Node622 -->
<g id="node12" class="node">
<title>Node622</title>
<g id="a_node12"><a xlink:href="../../db/d15/api_8qh.html#ab6d01fa32a875613a62f92c12a06bddd" target="_top" xlink:title="navigation_goalrating_end">
<polygon fill="none" stroke="#000000" points="350,-201.1672 350,-220.1672 496,-220.1672 496,-201.1672 350,-201.1672"/>
<text text-anchor="middle" x="423" y="-208.1672" font-family="Helvetica,sans-Serif" font-size="10.00" fill="#000000">navigation_goalrating_end</text>
</a>
</g>
</g>
<!-- Node611&#45;&gt;Node622 -->
<g id="edge21" class="edge">
<title>Node611&#45;&gt;Node622</title>
<path fill="none" stroke="#191970" d="M117.3331,-239.1327C135.6024,-235.729 156.7128,-232.1313 176,-229.6672 230.3664,-222.7217 291.8127,-217.9828 339.8183,-214.9748"/>
<polygon fill="#191970" stroke="#191970" points="340.084,-218.4652 349.8508,-214.3591 339.6551,-211.4784 340.084,-218.4652"/>
</g>
<!-- Node623 -->
<g id="node13" class="node">
<title>Node623</title>
<g id="a_node13"><a xlink:href="../../db/d15/api_8qh.html#a217f82a742f1066839797ec23d483547" target="_top" xlink:title="navigation_goalrating\l_start">
<polygon fill="none" stroke="#000000" points="361.5,-151.6672 361.5,-181.6672 484.5,-181.6672 484.5,-151.6672 361.5,-151.6672"/>
<text text-anchor="start" x="369.5" y="-169.6672" font-family="Helvetica,sans-Serif" font-size="10.00" fill="#000000">navigation_goalrating</text>
<text text-anchor="middle" x="423" y="-158.6672" font-family="Helvetica,sans-Serif" font-size="10.00" fill="#000000">_start</text>
</a>
</g>
</g>
<!-- Node611&#45;&gt;Node623 -->
<g id="edge22" class="edge">
<title>Node611&#45;&gt;Node623</title>
<path fill="none" stroke="#191970" d="M94.9637,-239.0555C116.251,-231.1344 147.7956,-220.0424 176,-212.6672 234.3323,-197.414 301.6833,-185.2216 351.3072,-177.2317"/>
<polygon fill="#191970" stroke="#191970" points="351.977,-180.6692 361.3024,-175.6405 350.8765,-173.7563 351.977,-180.6692"/>
</g>
<!-- Node624 -->
<g id="node14" class="node">
<title>Node624</title>
<g id="a_node14"><a xlink:href="../../db/d15/api_8qh.html#a78fda59f169844ca11beb0f4fe2e1dbd" target="_top" xlink:title="navigation_goalrating\l_timeout">
<polygon fill="none" stroke="#000000" points="361.5,-102.6672 361.5,-132.6672 484.5,-132.6672 484.5,-102.6672 361.5,-102.6672"/>
<text text-anchor="start" x="369.5" y="-120.6672" font-family="Helvetica,sans-Serif" font-size="10.00" fill="#000000">navigation_goalrating</text>
<text text-anchor="middle" x="423" y="-109.6672" font-family="Helvetica,sans-Serif" font-size="10.00" fill="#000000">_timeout</text>
</a>
</g>
</g>
<!-- Node611&#45;&gt;Node624 -->
<g id="edge23" class="edge">
<title>Node611&#45;&gt;Node624</title>
<path fill="none" stroke="#191970" d="M81.958,-238.9558C100.8296,-224.0925 139.1707,-195.7395 176,-179.6672 232.6038,-154.9655 300.9769,-138.7612 351.4221,-129.1356"/>
<polygon fill="#191970" stroke="#191970" points="352.0759,-132.5741 361.2633,-127.2977 350.7907,-125.6931 352.0759,-132.5741"/>
</g>
<!-- Node625 -->
<g id="node15" class="node">
<title>Node625</title>
<g id="a_node15"><a xlink:href="../../db/d15/api_8qh.html#a3ac8ce540ecde9fbb20e7fa61992e841" target="_top" xlink:title="navigation_goalrating\l_timeout_set">
<polygon fill="none" stroke="#000000" points="361.5,-53.6672 361.5,-83.6672 484.5,-83.6672 484.5,-53.6672 361.5,-53.6672"/>
<text text-anchor="start" x="369.5" y="-71.6672" font-family="Helvetica,sans-Serif" font-size="10.00" fill="#000000">navigation_goalrating</text>
<text text-anchor="middle" x="423" y="-60.6672" font-family="Helvetica,sans-Serif" font-size="10.00" fill="#000000">_timeout_set</text>
</a>
</g>
</g>
<!-- Node611&#45;&gt;Node625 -->
<g id="edge24" class="edge">
<title>Node611&#45;&gt;Node625</title>
<path fill="none" stroke="#191970" d="M76.1004,-238.9203C90.5606,-216.6528 129.2368,-161.8074 176,-133.6672 229.7844,-101.302 299.6145,-84.8553 351.298,-76.6187"/>
<polygon fill="#191970" stroke="#191970" points="352.0256,-80.0483 361.3826,-75.0786 350.9688,-73.1285 352.0256,-80.0483"/>
</g>
<!-- Node614 -->
<g id="node4" class="node">
<title>Node614</title>
<g id="a_node4"><a xlink:href="../../d4/d0c/csprogsdefs_8qc.html#acbb54a239d76062465dccbc6a6c6e464" target="_top" xlink:title="entity">
<polygon fill="none" stroke="#000000" points="573.5,-343.1672 573.5,-362.1672 618.5,-362.1672 618.5,-343.1672 573.5,-343.1672"/>
<text text-anchor="middle" x="596" y="-350.1672" font-family="Helvetica,sans-Serif" font-size="10.00" fill="#000000">entity</text>
</a>
</g>
</g>
<!-- Node613&#45;&gt;Node614 -->
<g id="edge3" class="edge">
<title>Node613&#45;&gt;Node614</title>
<path fill="none" stroke="#191970" d="M481.0878,-377.9081C508.4976,-371.8874 540.1893,-364.9262 563.3396,-359.8412"/>
<polygon fill="#191970" stroke="#191970" points="564.3129,-363.2109 573.3291,-357.647 562.8111,-356.3739 564.3129,-363.2109"/>
</g>
<!-- Node615 -->
<g id="node5" class="node">
<title>Node615</title>
<g id="a_node5"><a xlink:href="../../d8/d06/client_2resources_8qc.html#a53ec0a3c5a395e2b64d468c08f49b63f" target="_top" xlink:title="Returns the current amount of resource the given entity has. ">
<polygon fill="none" stroke="#000000" points="557,-419.1672 557,-438.1672 635,-438.1672 635,-419.1672 557,-419.1672"/>
<text text-anchor="middle" x="596" y="-426.1672" font-family="Helvetica,sans-Serif" font-size="10.00" fill="#000000">GetResource</text>
</a>
</g>
</g>
<!-- Node613&#45;&gt;Node615 -->
<g id="edge4" class="edge">
<title>Node613&#45;&gt;Node615</title>
<path fill="none" stroke="#191970" d="M481.0878,-403.4264C502.5144,-408.1328 526.5576,-413.414 547.0918,-417.9244"/>
<polygon fill="#191970" stroke="#191970" points="546.3455,-421.3438 556.8635,-420.0708 547.8473,-414.5068 546.3455,-421.3438"/>
</g>
<!-- Node616 -->
<g id="node6" class="node">
<title>Node616</title>
<g id="a_node6"><a xlink:href="../../db/d15/api_8qh.html#a956bb41e292b7dcbfaa013f178202584" target="_top" xlink:title="navigation_routerating">
<polygon fill="none" stroke="#000000" points="532,-381.1672 532,-400.1672 660,-400.1672 660,-381.1672 532,-381.1672"/>
<text text-anchor="middle" x="596" y="-388.1672" font-family="Helvetica,sans-Serif" font-size="10.00" fill="#000000">navigation_routerating</text>
</a>
</g>
</g>
<!-- Node613&#45;&gt;Node616 -->
<g id="edge5" class="edge">
<title>Node613&#45;&gt;Node616</title>
<path fill="none" stroke="#191970" d="M481.0878,-390.6672C494.0726,-390.6672 508.0183,-390.6672 521.5617,-390.6672"/>
<polygon fill="#191970" stroke="#191970" points="521.8175,-394.1673 531.8174,-390.6672 521.8174,-387.1673 521.8175,-394.1673"/>
</g>
<!-- Node619 -->
<g id="node9" class="node">
<title>Node619</title>
<g id="a_node9"><a xlink:href="../../d8/de2/menudefs_8qc.html#aebeeec7a2529f36483e14f76b1871271" target="_top" xlink:title="max">
<polygon fill="none" stroke="#000000" points="577,-283.1672 577,-302.1672 615,-302.1672 615,-283.1672 577,-283.1672"/>
<text text-anchor="middle" x="596" y="-290.1672" font-family="Helvetica,sans-Serif" font-size="10.00" fill="#000000">max</text>
</a>
</g>
</g>
<!-- Node618&#45;&gt;Node619 -->
<g id="edge8" class="edge">
<title>Node618&#45;&gt;Node619</title>
<path fill="none" stroke="#191970" d="M481.0878,-292.6672C509.73,-292.6672 543.0477,-292.6672 566.4092,-292.6672"/>
<polygon fill="#191970" stroke="#191970" points="566.7013,-296.1673 576.7013,-292.6672 566.7013,-289.1673 566.7013,-296.1673"/>
</g>
<!-- Node618&#45;&gt;Node620 -->
<g id="edge9" class="edge">
<title>Node618&#45;&gt;Node620</title>
<path fill="none" stroke="#191970" d="M481.0878,-277.8935C506.7951,-271.3552 536.269,-263.8589 558.9301,-258.0954"/>
<polygon fill="#191970" stroke="#191970" points="559.9958,-261.4359 568.8246,-255.5789 558.2704,-254.6519 559.9958,-261.4359"/>
</g>
<!-- Node621&#45;&gt;Node611 -->
<g id="edge15" class="edge">
<title>Node621&#45;&gt;Node611</title>
<path fill="none" stroke="#191970" d="M175.9531,-255.282C167.4989,-255.4076 158.8038,-255.4457 150.2034,-255.3963"/>
<polygon fill="#191970" stroke="#191970" points="150.2047,-251.8963 140.1709,-255.2982 150.1361,-258.8959 150.2047,-251.8963"/>
</g>
<!-- Node621&#45;&gt;Node612 -->
<g id="edge11" class="edge">
<title>Node621&#45;&gt;Node612</title>
<path fill="none" stroke="#191970" d="M248.3155,-258.2077C258.6559,-286.5703 293.0719,-371.1582 350,-415.6672 351.836,-417.1027 353.7613,-418.454 355.7552,-419.7259"/>
<polygon fill="#191970" stroke="#191970" points="354.434,-422.9965 364.8726,-424.8094 357.8429,-416.8826 354.434,-422.9965"/>
</g>
<!-- Node621&#45;&gt;Node613 -->
<g id="edge12" class="edge">
<title>Node621&#45;&gt;Node613</title>
<path fill="none" stroke="#191970" d="M251.0755,-258.4799C265.4681,-280.9319 303.9142,-336.4317 350,-366.6672 352.4052,-368.2452 354.9231,-369.7277 357.5177,-371.1194"/>
<polygon fill="#191970" stroke="#191970" points="356.0566,-374.3007 366.5823,-375.5093 359.1077,-368.0006 356.0566,-374.3007"/>
</g>
<!-- Node621&#45;&gt;Node617 -->
<g id="edge13" class="edge">
<title>Node621&#45;&gt;Node617</title>
<path fill="none" stroke="#191970" d="M257.2854,-258.3063C276.2583,-272.8196 314.2442,-300.4169 350,-317.6672 353.7849,-319.4933 357.7437,-321.2333 361.7762,-322.8809"/>
<polygon fill="#191970" stroke="#191970" points="360.6827,-326.2106 371.272,-326.5542 363.2083,-319.682 360.6827,-326.2106"/>
</g>
<!-- Node621&#45;&gt;Node618 -->
<g id="edge14" class="edge">
<title>Node621&#45;&gt;Node618</title>
<path fill="none" stroke="#191970" d="M283.6233,-258.2146C304.4725,-263.3683 330.8211,-269.8814 354.9821,-275.8538"/>
<polygon fill="#191970" stroke="#191970" points="354.2762,-279.2846 364.8239,-278.2866 355.956,-272.4891 354.2762,-279.2846"/>
</g>
<!-- Node621&#45;&gt;Node620 -->
<g id="edge20" class="edge">
<title>Node621&#45;&gt;Node620</title>
<path fill="none" stroke="#191970" d="M314.3463,-248.6672C387.6986,-248.6672 500.6811,-248.6672 558.7385,-248.6672"/>
<polygon fill="#191970" stroke="#191970" points="558.918,-252.1673 568.9179,-248.6672 558.9179,-245.1673 558.918,-252.1673"/>
</g>
<!-- Node621&#45;&gt;Node622 -->
<g id="edge16" class="edge">
<title>Node621&#45;&gt;Node622</title>
<path fill="none" stroke="#191970" d="M289.9169,-239.0782C313.8292,-233.9734 343.4214,-227.6559 368.6249,-222.2754"/>
<polygon fill="#191970" stroke="#191970" points="369.3572,-225.698 378.4061,-220.1873 367.8957,-218.8523 369.3572,-225.698"/>
</g>
<!-- Node621&#45;&gt;Node623 -->
<g id="edge17" class="edge">
<title>Node621&#45;&gt;Node623</title>
<path fill="none" stroke="#191970" d="M260.5934,-239.1258C280.7427,-227.0507 317.1427,-206.0907 350,-191.6672 354.9832,-189.4797 360.2232,-187.357 365.513,-185.3334"/>
<polygon fill="#191970" stroke="#191970" points="366.8804,-188.5594 375.0436,-181.8057 364.4505,-181.9947 366.8804,-188.5594"/>
</g>
<!-- Node621&#45;&gt;Node624 -->
<g id="edge18" class="edge">
<title>Node621&#45;&gt;Node624</title>
<path fill="none" stroke="#191970" d="M252.0355,-239.0051C267.4989,-218.4225 306.5472,-169.9125 350,-142.6672 353.1957,-140.6635 356.5714,-138.7982 360.049,-137.065"/>
<polygon fill="#191970" stroke="#191970" points="361.7933,-140.1163 369.4385,-132.7814 358.8878,-133.7477 361.7933,-140.1163"/>
</g>
<!-- Node621&#45;&gt;Node625 -->
<g id="edge19" class="edge">
<title>Node621&#45;&gt;Node625</title>
<path fill="none" stroke="#191970" d="M248.8607,-239.0837C260.1988,-212.126 296.0311,-134.9222 350,-93.6672 352.3448,-91.8749 354.8266,-90.2058 357.4045,-88.6522"/>
<polygon fill="#191970" stroke="#191970" points="359.3098,-91.6025 366.4803,-83.8029 356.0109,-85.4286 359.3098,-91.6025"/>
</g>
</g>
</svg>
