<?xml version="1.0" encoding="UTF-8" standalone="no"?>
<!DOCTYPE svg PUBLIC "-//W3C//DTD SVG 1.1//EN"
 "http://www.w3.org/Graphics/SVG/1.1/DTD/svg11.dtd">
<!-- Generated by graphviz version 2.38.0 (20140413.2041)
 -->
<!-- Title: CopyBody Pages: 1 -->
<!--zoomable 180 -->
<svg id="main" version="1.1" xmlns="http://www.w3.org/2000/svg" xmlns:xlink="http://www.w3.org/1999/xlink" xml:space="preserve" onload="init(evt)">
<style type="text/css"><![CDATA[
.edge:hover path { stroke: red; }
.edge:hover polygon { stroke: red; fill: red; }
]]></style>
<script type="text/javascript"><![CDATA[
var edges = document.getElementsByTagName('g');
if (edges && edges.length) {
  for (var i=0;i<edges.length;i++) {
    if (edges[i].id.substr(0,4)=='edge') {
      edges[i].setAttribute('class','edge');
    }
  }
}
]]></script>
        <defs>
                <circle id="rim" cx="0" cy="0" r="7"/>
                <circle id="rim2" cx="0" cy="0" r="3.5"/>
                <g id="zoomPlus">
                        <use xlink:href="#rim" fill="#404040">
                                <set attributeName="fill" to="#808080" begin="zoomplus.mouseover" end="zoomplus.mouseout"/>
                        </use>
                        <path d="M-4,0h8M0,-4v8" fill="none" stroke="white" stroke-width="1.5" pointer-events="none"/>
                </g>
                <g id="zoomMin">
                        <use xlink:href="#rim" fill="#404040">
                                <set attributeName="fill" to="#808080" begin="zoomminus.mouseover" end="zoomminus.mouseout"/>
                        </use>
                        <path d="M-4,0h8" fill="none" stroke="white" stroke-width="1.5" pointer-events="none"/>
                </g>
                <g id="dirArrow">
                        <path fill="none" stroke="white" stroke-width="1.5" d="M0,-3.0v7 M-2.5,-0.5L0,-3.0L2.5,-0.5"/>
                </g>
               <g id="resetDef">
                       <use xlink:href="#rim2" fill="#404040">
                               <set attributeName="fill" to="#808080" begin="reset.mouseover" end="reset.mouseout"/>
                       </use>
               </g>
        </defs>

<script type="text/javascript">
var viewWidth = 917;
var viewHeight = 180;
var sectionId = 'dynsection-5';
</script>
<script xlink:href="../../svgpan.js"/>
<svg id="graph" class="graph">
<g id="viewport">
<title>CopyBody</title>
<!-- Node1 -->
<g id="node1" class="node"><title>Node1</title>
<polygon fill="#bfbfbf" stroke="black" points="0,-28.5 0,-47.5 65,-47.5 65,-28.5 0,-28.5"/>
<text text-anchor="middle" x="32.5" y="-35.5" font-family="Helvetica,sans-Serif" font-size="10.00">CopyBody</text>
</g>
<!-- Node2 -->
<g id="node2" class="node"><title>Node2</title>
<g id="a_node2"><a xlink:href="../../d3/dca/cheats_8qh.html#a73c94da2bf38acf3536154e899458024" target="_top" xlink:title="CheatImpulse">
<polygon fill="none" stroke="black" points="202,-47.5 202,-66.5 285,-66.5 285,-47.5 202,-47.5"/>
<text text-anchor="middle" x="243.5" y="-54.5" font-family="Helvetica,sans-Serif" font-size="10.00">CheatImpulse</text>
</a>
</g>
</g>
<!-- Node1&#45;&gt;Node2 -->
<g id="edge1" class="edge"><title>Node1&#45;&gt;Node2</title>
<path fill="none" stroke="midnightblue" d="M55.0788,-53.4822C67.7807,-61.6302 84.5403,-70.7847 101,-75 139.863,-84.9528 186.204,-75.101 214.996,-66.5241"/>
<polygon fill="midnightblue" stroke="midnightblue" points="56.8662,-50.467 46.6094,-47.8122 52.972,-56.2838 56.8662,-50.467"/>
</g>
<!-- Node14 -->
<g id="node14" class="node"><title>Node14</title>
<g id="a_node14"><a xlink:href="../../da/dc1/server_2player_8qh.html#af2cf7e359cda23b596ac40cda3f9ba87" target="_top" xlink:title="CopyBody">
<polygon fill="none" stroke="black" points="101,-28.5 101,-47.5 166,-47.5 166,-28.5 101,-28.5"/>
<text text-anchor="middle" x="133.5" y="-35.5" font-family="Helvetica,sans-Serif" font-size="10.00">CopyBody</text>
</a>
</g>
</g>
<!-- Node1&#45;&gt;Node14 -->
<g id="edge14" class="edge"><title>Node1&#45;&gt;Node14</title>
<path fill="none" stroke="midnightblue" d="M75.307,-38C83.8639,-38 92.7352,-38 100.864,-38"/>
<polygon fill="midnightblue" stroke="midnightblue" points="75.0964,-34.5001 65.0964,-38 75.0964,-41.5001 75.0964,-34.5001"/>
</g>
<!-- Node15 -->
<g id="node15" class="node"><title>Node15</title>
<g id="a_node15"><a xlink:href="../../df/dd7/server_2client_8qc.html#a9892fecc7414ccaabfbcd27e4cd56692" target="_top" xlink:title="respawn">
<polygon fill="none" stroke="black" points="215.5,-0.5 215.5,-19.5 271.5,-19.5 271.5,-0.5 215.5,-0.5"/>
<text text-anchor="middle" x="243.5" y="-7.5" font-family="Helvetica,sans-Serif" font-size="10.00">respawn</text>
</a>
</g>
</g>
<!-- Node1&#45;&gt;Node15 -->
<g id="edge21" class="edge"><title>Node1&#45;&gt;Node15</title>
<path fill="none" stroke="midnightblue" d="M72.237,-25.5892C81.5694,-23.0197 91.57,-20.6085 101,-19 140.431,-12.274 186.817,-10.4605 215.441,-10.0331"/>
<polygon fill="midnightblue" stroke="midnightblue" points="71.0744,-22.2816 62.4312,-28.4091 73.009,-29.009 71.0744,-22.2816"/>
</g>
<!-- Node3 -->
<g id="node3" class="node"><title>Node3</title>
<g id="a_node3"><a xlink:href="../../d3/dd1/server_2impulse_8qh.html#a592fd33e424a2e05854957b679c37e1b" target="_top" xlink:title="ImpulseCommands">
<polygon fill="none" stroke="black" points="321,-104.5 321,-123.5 431,-123.5 431,-104.5 321,-104.5"/>
<text text-anchor="middle" x="376" y="-111.5" font-family="Helvetica,sans-Serif" font-size="10.00">ImpulseCommands</text>
</a>
</g>
</g>
<!-- Node2&#45;&gt;Node3 -->
<g id="edge2" class="edge"><title>Node2&#45;&gt;Node3</title>
<path fill="none" stroke="midnightblue" d="M275.678,-70.6181C299.554,-81.0465 331.889,-95.1697 353.086,-104.428"/>
<polygon fill="midnightblue" stroke="midnightblue" points="276.908,-67.3358 266.343,-66.5405 274.106,-73.7506 276.908,-67.3358"/>
</g>
<!-- Node12 -->
<g id="node12" class="node"><title>Node12</title>
<g id="a_node12"><a xlink:href="../../d2/d0a/common_2physics_2player_8qc.html#a3e975b1ebc6b2bf9066537dd0842faa8" target="_top" xlink:title="CheckPlayerJump">
<polygon fill="none" stroke="black" points="326.5,-47.5 326.5,-66.5 425.5,-66.5 425.5,-47.5 326.5,-47.5"/>
<text text-anchor="middle" x="376" y="-54.5" font-family="Helvetica,sans-Serif" font-size="10.00">CheckPlayerJump</text>
</a>
</g>
</g>
<!-- Node2&#45;&gt;Node12 -->
<g id="edge11" class="edge"><title>Node2&#45;&gt;Node12</title>
<path fill="none" stroke="midnightblue" d="M295.088,-57C305.309,-57 316.037,-57 326.195,-57"/>
<polygon fill="midnightblue" stroke="midnightblue" points="295.076,-53.5001 285.076,-57 295.076,-60.5001 295.076,-53.5001"/>
</g>
<!-- Node4 -->
<g id="node4" class="node"><title>Node4</title>
<g id="a_node4"><a xlink:href="../../dd/d0c/sv__ctf_8qc.html#a8edcce745140a0191b957e969f8a2cfb" target="_top" xlink:title="ctf_FlagThink">
<polygon fill="none" stroke="black" points="478.5,-152.5 478.5,-171.5 556.5,-171.5 556.5,-152.5 478.5,-152.5"/>
<text text-anchor="middle" x="517.5" y="-159.5" font-family="Helvetica,sans-Serif" font-size="10.00">ctf_FlagThink</text>
</a>
</g>
</g>
<!-- Node3&#45;&gt;Node4 -->
<g id="edge3" class="edge"><title>Node3&#45;&gt;Node4</title>
<path fill="none" stroke="midnightblue" d="M414.482,-126.897C437.834,-134.932 467.377,-145.098 488.654,-152.418"/>
<polygon fill="midnightblue" stroke="midnightblue" points="415.489,-123.542 404.895,-123.598 413.212,-130.161 415.489,-123.542"/>
</g>
<!-- Node8 -->
<g id="node8" class="node"><title>Node8</title>
<g id="a_node8"><a xlink:href="../../df/dd7/server_2client_8qc.html#a35da2ff46a7d16ee6dd935fc1e65a72c" target="_top" xlink:title="PlayerPostThink">
<polygon fill="none" stroke="black" points="471.5,-76.5 471.5,-95.5 563.5,-95.5 563.5,-76.5 471.5,-76.5"/>
<text text-anchor="middle" x="517.5" y="-83.5" font-family="Helvetica,sans-Serif" font-size="10.00">PlayerPostThink</text>
</a>
</g>
</g>
<!-- Node3&#45;&gt;Node8 -->
<g id="edge7" class="edge"><title>Node3&#45;&gt;Node8</title>
<path fill="none" stroke="midnightblue" d="M434.752,-102.408C446.999,-99.9499 459.756,-97.3895 471.449,-95.0425"/>
<polygon fill="midnightblue" stroke="midnightblue" points="433.733,-99.0427 424.618,-104.442 435.111,-105.906 433.733,-99.0427"/>
</g>
<!-- Node10 -->
<g id="node10" class="node"><title>Node10</title>
<g id="a_node10"><a xlink:href="../../df/dd7/server_2client_8qc.html#a996803179cd9557a7b4d806d08cc74f3" target="_top" xlink:title="PutPlayerInServer">
<polygon fill="none" stroke="black" points="467,-114.5 467,-133.5 568,-133.5 568,-114.5 467,-114.5"/>
<text text-anchor="middle" x="517.5" y="-121.5" font-family="Helvetica,sans-Serif" font-size="10.00">PutPlayerInServer</text>
</a>
</g>
</g>
<!-- Node3&#45;&gt;Node10 -->
<g id="edge9" class="edge"><title>Node3&#45;&gt;Node10</title>
<path fill="none" stroke="midnightblue" d="M441.535,-118.626C449.968,-119.231 458.502,-119.842 466.642,-120.426"/>
<polygon fill="midnightblue" stroke="midnightblue" points="441.558,-115.119 431.334,-117.895 441.058,-122.101 441.558,-115.119"/>
</g>
<!-- Node5 -->
<g id="node5" class="node"><title>Node5</title>
<g id="a_node5"><a xlink:href="../../dd/d0c/sv__ctf_8qc.html#ae4da0b9f3b47d57388ba498d2baed651" target="_top" xlink:title="ctf_FlagSetup">
<polygon fill="none" stroke="black" points="612.5,-152.5 612.5,-171.5 694.5,-171.5 694.5,-152.5 612.5,-152.5"/>
<text text-anchor="middle" x="653.5" y="-159.5" font-family="Helvetica,sans-Serif" font-size="10.00">ctf_FlagSetup</text>
</a>
</g>
</g>
<!-- Node4&#45;&gt;Node5 -->
<g id="edge4" class="edge"><title>Node4&#45;&gt;Node5</title>
<path fill="none" stroke="midnightblue" d="M566.679,-162C581.701,-162 598.096,-162 612.494,-162"/>
<polygon fill="midnightblue" stroke="midnightblue" points="566.541,-158.5 556.541,-162 566.541,-165.5 566.541,-158.5"/>
</g>
<!-- Node6 -->
<g id="node6" class="node"><title>Node6</title>
<g id="a_node6"><a xlink:href="../../dd/d0c/sv__ctf_8qc.html#a2a2129ef74628a0c8bef5d48a016e3e0" target="_top" xlink:title="spawnfunc">
<polygon fill="none" stroke="black" points="739,-152.5 739,-171.5 806,-171.5 806,-152.5 739,-152.5"/>
<text text-anchor="middle" x="772.5" y="-159.5" font-family="Helvetica,sans-Serif" font-size="10.00">spawnfunc</text>
</a>
</g>
</g>
<!-- Node5&#45;&gt;Node6 -->
<g id="edge5" class="edge"><title>Node5&#45;&gt;Node6</title>
<path fill="none" stroke="midnightblue" d="M704.765,-162C716.326,-162 728.325,-162 738.907,-162"/>
<polygon fill="midnightblue" stroke="midnightblue" points="704.765,-158.5 694.765,-162 704.765,-165.5 704.765,-158.5"/>
</g>
<!-- Node7 -->
<g id="node7" class="node"><title>Node7</title>
<g id="a_node7"><a xlink:href="../../dd/d0c/sv__ctf_8qc.html#a4cc8588d830f40446ced8de6190b6639" target="_top" xlink:title="spawnfunc">
<polygon fill="none" stroke="black" points="842,-152.5 842,-171.5 909,-171.5 909,-152.5 842,-152.5"/>
<text text-anchor="middle" x="875.5" y="-159.5" font-family="Helvetica,sans-Serif" font-size="10.00">spawnfunc</text>
</a>
</g>
</g>
<!-- Node6&#45;&gt;Node7 -->
<g id="edge6" class="edge"><title>Node6&#45;&gt;Node7</title>
<path fill="none" stroke="midnightblue" d="M816.201,-162C824.732,-162 833.568,-162 841.702,-162"/>
<polygon fill="midnightblue" stroke="midnightblue" points="816.013,-158.5 806.013,-162 816.013,-165.5 816.013,-158.5"/>
</g>
<!-- Node9 -->
<g id="node9" class="node"><title>Node9</title>
<g id="a_node9"><a xlink:href="../../d3/d4f/sv__main_8qc.html#a554af7e2ac58045168dad9eca30bc8b1" target="_top" xlink:title="StartFrame">
<polygon fill="none" stroke="black" points="618,-38.5 618,-57.5 689,-57.5 689,-38.5 618,-38.5"/>
<text text-anchor="middle" x="653.5" y="-45.5" font-family="Helvetica,sans-Serif" font-size="10.00">StartFrame</text>
</a>
</g>
</g>
<!-- Node8&#45;&gt;Node9 -->
<g id="edge8" class="edge"><title>Node8&#45;&gt;Node9</title>
<path fill="none" stroke="midnightblue" d="M561.938,-73.6817C580.349,-68.4607 601.48,-62.4684 618.697,-57.5859"/>
<polygon fill="midnightblue" stroke="midnightblue" points="560.98,-70.3155 552.314,-76.411 562.889,-77.0499 560.98,-70.3155"/>
</g>
<!-- Node11 -->
<g id="node11" class="node"><title>Node11</title>
<g id="a_node11"><a xlink:href="../../df/dd7/server_2client_8qc.html#ac8cee1fb565123245189b49f1ab94951" target="_top" xlink:title="Called when a client spawns in the server. ">
<polygon fill="none" stroke="black" points="604,-114.5 604,-133.5 703,-133.5 703,-114.5 604,-114.5"/>
<text text-anchor="middle" x="653.5" y="-121.5" font-family="Helvetica,sans-Serif" font-size="10.00">PutClientInServer</text>
</a>
</g>
</g>
<!-- Node10&#45;&gt;Node11 -->
<g id="edge10" class="edge"><title>Node10&#45;&gt;Node11</title>
<path fill="none" stroke="midnightblue" d="M578.254,-124C586.742,-124 595.386,-124 603.634,-124"/>
<polygon fill="midnightblue" stroke="midnightblue" points="578.016,-120.5 568.016,-124 578.016,-127.5 578.016,-120.5"/>
</g>
<!-- Node13 -->
<g id="node13" class="node"><title>Node13</title>
<g id="a_node13"><a xlink:href="../../d3/d4f/sv__main_8qc.html#a497a408e59dc1f5697ed3f902dde1f3c" target="_top" xlink:title="sys_phys_update">
<polygon fill="none" stroke="black" points="468,-38.5 468,-57.5 567,-57.5 567,-38.5 468,-38.5"/>
<text text-anchor="middle" x="517.5" y="-45.5" font-family="Helvetica,sans-Serif" font-size="10.00">sys_phys_update</text>
</a>
</g>
</g>
<!-- Node12&#45;&gt;Node13 -->
<g id="edge12" class="edge"><title>Node12&#45;&gt;Node13</title>
<path fill="none" stroke="midnightblue" d="M435.898,-53.2001C446.587,-52.5105 457.624,-51.7984 467.973,-51.1308"/>
<polygon fill="midnightblue" stroke="midnightblue" points="435.544,-49.7156 425.79,-53.8522 435.995,-56.7011 435.544,-49.7156"/>
</g>
<!-- Node13&#45;&gt;Node9 -->
<g id="edge13" class="edge"><title>Node13&#45;&gt;Node9</title>
<path fill="none" stroke="midnightblue" d="M577.636,-48C591.374,-48 605.56,-48 617.839,-48"/>
<polygon fill="midnightblue" stroke="midnightblue" points="577.256,-44.5001 567.256,-48 577.256,-51.5001 577.256,-44.5001"/>
</g>
<!-- Node14&#45;&gt;Node2 -->
<g id="edge20" class="edge"><title>Node14&#45;&gt;Node2</title>
<path fill="none" stroke="midnightblue" d="M176.081,-45.3151C184.546,-46.8044 193.442,-48.3695 201.874,-49.8529"/>
<polygon fill="midnightblue" stroke="midnightblue" points="176.484,-41.8323 166.028,-43.5467 175.271,-48.7265 176.484,-41.8323"/>
</g>
<!-- Node14&#45;&gt;Node14 -->
<g id="edge15" class="edge"><title>Node14&#45;&gt;Node14</title>
<path fill="none" stroke="midnightblue" d="M114.982,-57.4C116.219,-62.3146 122.392,-66 133.5,-66 151.273,-66 156.411,-56.5653 148.913,-47.7571"/>
<polygon fill="midnightblue" stroke="midnightblue" points="118.354,-58.3485 118.087,-47.7571 111.691,-56.2032 118.354,-58.3485"/>
</g>
<!-- Node14&#45;&gt;Node15 -->
<g id="edge16" class="edge"><title>Node14&#45;&gt;Node15</title>
<path fill="none" stroke="midnightblue" d="M175.833,-27.2841C188.999,-23.8707 203.229,-20.1814 215.148,-17.0913"/>
<polygon fill="midnightblue" stroke="midnightblue" points="174.83,-23.9283 166.028,-29.826 176.587,-30.7043 174.83,-23.9283"/>
</g>
<!-- Node16 -->
<g id="node16" class="node"><title>Node16</title>
<g id="a_node16"><a xlink:href="../../df/dd7/server_2client_8qc.html#aa07f86bdc6b9c9a812296f5c5ff48f95" target="_top" xlink:title="PlayerThink">
<polygon fill="none" stroke="black" points="340.5,-0.5 340.5,-19.5 411.5,-19.5 411.5,-0.5 340.5,-0.5"/>
<text text-anchor="middle" x="376" y="-7.5" font-family="Helvetica,sans-Serif" font-size="10.00">PlayerThink</text>
</a>
</g>
</g>
<!-- Node15&#45;&gt;Node16 -->
<g id="edge17" class="edge"><title>Node15&#45;&gt;Node16</title>
<path fill="none" stroke="midnightblue" d="M281.589,-10C299.95,-10 321.992,-10 340.053,-10"/>
<polygon fill="midnightblue" stroke="midnightblue" points="281.54,-6.5001 271.54,-10 281.54,-13.5001 281.54,-6.5001"/>
</g>
<!-- Node17 -->
<g id="node17" class="node"><title>Node17</title>
<g id="a_node17"><a xlink:href="../../df/dd7/server_2client_8qc.html#ac4842064b7f7b032f654e24f1fa5a155" target="_top" xlink:title="PlayerPreThink">
<polygon fill="none" stroke="black" points="474.5,-0.5 474.5,-19.5 560.5,-19.5 560.5,-0.5 474.5,-0.5"/>
<text text-anchor="middle" x="517.5" y="-7.5" font-family="Helvetica,sans-Serif" font-size="10.00">PlayerPreThink</text>
</a>
</g>
</g>
<!-- Node16&#45;&gt;Node17 -->
<g id="edge18" class="edge"><title>Node16&#45;&gt;Node17</title>
<path fill="none" stroke="midnightblue" d="M421.99,-10C438.814,-10 457.846,-10 474.399,-10"/>
<polygon fill="midnightblue" stroke="midnightblue" points="421.842,-6.5001 411.842,-10 421.842,-13.5001 421.842,-6.5001"/>
</g>
<!-- Node17&#45;&gt;Node9 -->
<g id="edge19" class="edge"><title>Node17&#45;&gt;Node9</title>
<path fill="none" stroke="midnightblue" d="M561.938,-22.3183C580.349,-27.5393 601.48,-33.5316 618.697,-38.4141"/>
<polygon fill="midnightblue" stroke="midnightblue" points="562.889,-18.9501 552.314,-19.589 560.98,-25.6845 562.889,-18.9501"/>
</g>
</g>
</svg>
        <g id="navigator" transform="translate(0 0)" fill="#404254">
                <rect fill="#f2f5e9" fill-opacity="0.5" stroke="#606060" stroke-width=".5" x="0" y="0" width="60" height="60"/>
                <use id="zoomplus" xlink:href="#zoomPlus" x="17" y="9" onmousedown="handleZoom(evt,'in')"/>
                <use id="zoomminus" xlink:href="#zoomMin" x="42" y="9" onmousedown="handleZoom(evt,'out')"/>
                <use id="reset" xlink:href="#resetDef" x="30" y="36" onmousedown="handleReset()"/>
                <g id="arrowUp" xlink:href="#dirArrow" transform="translate(30 24)" onmousedown="handlePan(0,-1)">
                  <use xlink:href="#rim" fill="#404040">
                        <set attributeName="fill" to="#808080" begin="arrowUp.mouseover" end="arrowUp.mouseout"/>
                  </use>
                  <path fill="none" stroke="white" stroke-width="1.5" d="M0,-3.0v7 M-2.5,-0.5L0,-3.0L2.5,-0.5"/>
                </g>
                <g id="arrowRight" xlink:href="#dirArrow" transform="rotate(90) translate(36 -43)" onmousedown="handlePan(1,0)">
                  <use xlink:href="#rim" fill="#404040">
                        <set attributeName="fill" to="#808080" begin="arrowRight.mouseover" end="arrowRight.mouseout"/>
                  </use>
                  <path fill="none" stroke="white" stroke-width="1.5" d="M0,-3.0v7 M-2.5,-0.5L0,-3.0L2.5,-0.5"/>
                </g>
                <g id="arrowDown" xlink:href="#dirArrow" transform="rotate(180) translate(-30 -48)" onmousedown="handlePan(0,1)">
                  <use xlink:href="#rim" fill="#404040">
                        <set attributeName="fill" to="#808080" begin="arrowDown.mouseover" end="arrowDown.mouseout"/>
                  </use>
                  <path fill="none" stroke="white" stroke-width="1.5" d="M0,-3.0v7 M-2.5,-0.5L0,-3.0L2.5,-0.5"/>
                </g>
                <g id="arrowLeft" xlink:href="#dirArrow" transform="rotate(270) translate(-36 17)" onmousedown="handlePan(-1,0)">
                  <use xlink:href="#rim" fill="#404040">
                        <set attributeName="fill" to="#808080" begin="arrowLeft.mouseover" end="arrowLeft.mouseout"/>
                  </use>
                  <path fill="none" stroke="white" stroke-width="1.5" d="M0,-3.0v7 M-2.5,-0.5L0,-3.0L2.5,-0.5"/>
                </g>
        </g>
        <svg viewBox="0 0 15 15" width="100%" height="30px" preserveAspectRatio="xMaxYMin meet">
         <g id="arrow_out" transform="scale(0.3 0.3)">
          <a xlink:href="server_2player_8qc_af2cf7e359cda23b596ac40cda3f9ba87_icgraph_org.svg" target="_base">
           <rect id="button" ry="5" rx="5" y="6" x="6" height="38" width="38"
                fill="#f2f5e9" fill-opacity="0.5" stroke="#606060" stroke-width="1.0"/>
           <path id="arrow"
             d="M 11.500037,31.436501 C 11.940474,20.09759 22.043105,11.32322 32.158766,21.979434 L 37.068811,17.246167 C 37.068811,17.246167 37.088388,32 37.088388,32 L 22.160133,31.978069 C 22.160133,31.978069 26.997745,27.140456 26.997745,27.140456 C 18.528582,18.264221 13.291696,25.230495 11.500037,31.436501 z"
             style="fill:#404040;"/>
          </a>
         </g>
        </svg>
</svg>
