<?xml version="1.0" encoding="UTF-8" standalone="no"?>
<!DOCTYPE svg PUBLIC "-//W3C//DTD SVG 1.1//EN"
 "http://www.w3.org/Graphics/SVG/1.1/DTD/svg11.dtd">
<!-- Generated by graphviz version 2.36.0 (20140111.2315)
 -->
<!-- Title: Gametype Pages: 1 -->
<!--zoomable 560 -->
<svg id="main" version="1.1" xmlns="http://www.w3.org/2000/svg" xmlns:xlink="http://www.w3.org/1999/xlink" xml:space="preserve" onload="init(evt)">
<style type="text/css"><![CDATA[
.edge:hover path { stroke: red; }
.edge:hover polygon { stroke: red; fill: red; }
]]></style>
<script type="text/javascript"><![CDATA[
var edges = document.getElementsByTagName('g');
if (edges && edges.length) {
  for (var i=0;i<edges.length;i++) {
    if (edges[i].id.substr(0,4)=='edge') {
      edges[i].setAttribute('class','edge');
    }
  }
}
]]></script>
        <defs>
                <circle id="rim" cx="0" cy="0" r="7"/>
                <circle id="rim2" cx="0" cy="0" r="3.5"/>
                <g id="zoomPlus">
                        <use xlink:href="#rim" fill="#404040">
                                <set attributeName="fill" to="#808080" begin="zoomplus.mouseover" end="zoomplus.mouseout"/>
                        </use>
                        <path d="M-4,0h8M0,-4v8" fill="none" stroke="white" stroke-width="1.5" pointer-events="none"/>
                </g>
                <g id="zoomMin">
                        <use xlink:href="#rim" fill="#404040">
                                <set attributeName="fill" to="#808080" begin="zoomminus.mouseover" end="zoomminus.mouseout"/>
                        </use>
                        <path d="M-4,0h8" fill="none" stroke="white" stroke-width="1.5" pointer-events="none"/>
                </g>
                <g id="dirArrow">
                        <path fill="none" stroke="white" stroke-width="1.5" d="M0,-3.0v7 M-2.5,-0.5L0,-3.0L2.5,-0.5"/>
                </g>
               <g id="resetDef">
                       <use xlink:href="#rim2" fill="#404040">
                               <set attributeName="fill" to="#808080" begin="reset.mouseover" end="reset.mouseout"/>
                       </use>
               </g>
        </defs>

<script type="text/javascript">
var viewWidth = 284;
var viewHeight = 560;
var sectionId = 'dynsection-0';
</script>
<script xlink:href="../../svgpan.js"/>
<svg id="graph" class="graph">
<g id="viewport">
<title>Gametype</title>
<!-- Node1 -->
<g id="node1" class="node"><title>Node1</title>
<polygon fill="#bfbfbf" stroke="black" points="82,-266.5 82,-285.5 144,-285.5 144,-266.5 82,-266.5"/>
<text text-anchor="middle" x="113" y="-273.5" font-family="Helvetica,sans-Serif" font-size="10.00">Gametype</text>
</g>
<!-- Node3 -->
<g id="node3" class="node"><title>Node3</title>
<g id="a_node3"><a xlink:href="../../d1/dd9/classAssault.html" target="_top" xlink:title="Assault">
<polygon fill="none" stroke="black" points="203,-532.5 203,-551.5 253,-551.5 253,-532.5 203,-532.5"/>
<text text-anchor="middle" x="228" y="-539.5" font-family="Helvetica,sans-Serif" font-size="10.00">Assault</text>
</a>
</g>
</g>
<!-- Node1&#45;&gt;Node3 -->
<g id="edge2" class="edge"><title>Node1&#45;&gt;Node3</title>
<path fill="none" stroke="midnightblue" d="M113.648,-296.069C113.926,-342.045 120.922,-456.165 180,-523 185.946,-529.726 194.615,-534.109 202.893,-536.947"/>
<polygon fill="midnightblue" stroke="midnightblue" points="117.149,-295.935 113.695,-285.919 110.149,-295.903 117.149,-295.935"/>
</g>
<!-- Node4 -->
<g id="node4" class="node"><title>Node4</title>
<g id="a_node4"><a xlink:href="../../da/dd1/classCaptureTheFlag.html" target="_top" xlink:title="CaptureTheFlag">
<polygon fill="none" stroke="black" points="185,-494.5 185,-513.5 271,-513.5 271,-494.5 185,-494.5"/>
<text text-anchor="middle" x="228" y="-501.5" font-family="Helvetica,sans-Serif" font-size="10.00">CaptureTheFlag</text>
</a>
</g>
</g>
<!-- Node1&#45;&gt;Node4 -->
<g id="edge3" class="edge"><title>Node1&#45;&gt;Node4</title>
<path fill="none" stroke="midnightblue" d="M114.829,-295.972C117.566,-336.721 129.342,-430.212 180,-485 183.585,-488.877 188.071,-491.981 192.84,-494.46"/>
<polygon fill="midnightblue" stroke="midnightblue" points="118.31,-295.534 114.263,-285.743 111.321,-295.921 118.31,-295.534"/>
</g>
<!-- Node5 -->
<g id="node5" class="node"><title>Node5</title>
<g id="a_node5"><a xlink:href="../../da/def/classClanArena.html" target="_top" xlink:title="ClanArena">
<polygon fill="none" stroke="black" points="197,-456.5 197,-475.5 259,-475.5 259,-456.5 197,-456.5"/>
<text text-anchor="middle" x="228" y="-463.5" font-family="Helvetica,sans-Serif" font-size="10.00">ClanArena</text>
</a>
</g>
</g>
<!-- Node1&#45;&gt;Node5 -->
<g id="edge4" class="edge"><title>Node1&#45;&gt;Node5</title>
<path fill="none" stroke="midnightblue" d="M116.478,-295.883C121.847,-330.919 137.682,-404.008 180,-447 184.692,-451.767 190.741,-455.378 196.927,-458.1"/>
<polygon fill="midnightblue" stroke="midnightblue" points="119.885,-294.977 115.035,-285.558 112.953,-295.946 119.885,-294.977"/>
</g>
<!-- Node6 -->
<g id="node6" class="node"><title>Node6</title>
<g id="a_node6"><a xlink:href="../../d8/dd3/classDeathmatch.html" target="_top" xlink:title="Deathmatch">
<polygon fill="none" stroke="black" points="193,-418.5 193,-437.5 263,-437.5 263,-418.5 193,-418.5"/>
<text text-anchor="middle" x="228" y="-425.5" font-family="Helvetica,sans-Serif" font-size="10.00">Deathmatch</text>
</a>
</g>
</g>
<!-- Node1&#45;&gt;Node6 -->
<g id="edge5" class="edge"><title>Node1&#45;&gt;Node6</title>
<path fill="none" stroke="midnightblue" d="M118.984,-295.824C127.14,-324.47 145.943,-377.453 180,-409 184.132,-412.828 189.136,-415.929 194.317,-418.428"/>
<polygon fill="midnightblue" stroke="midnightblue" points="122.267,-294.556 116.288,-285.81 115.508,-296.376 122.267,-294.556"/>
</g>
<!-- Node7 -->
<g id="node7" class="node"><title>Node7</title>
<g id="a_node7"><a xlink:href="../../d2/d88/classDomination.html" target="_top" xlink:title="Domination">
<polygon fill="none" stroke="black" points="195,-380.5 195,-399.5 261,-399.5 261,-380.5 195,-380.5"/>
<text text-anchor="middle" x="228" y="-387.5" font-family="Helvetica,sans-Serif" font-size="10.00">Domination</text>
</a>
</g>
</g>
<!-- Node1&#45;&gt;Node7 -->
<g id="edge6" class="edge"><title>Node1&#45;&gt;Node7</title>
<path fill="none" stroke="midnightblue" d="M122.937,-294.981C133.759,-316.135 153.837,-350.106 180,-371 184.677,-374.735 190.185,-377.826 195.753,-380.352"/>
<polygon fill="midnightblue" stroke="midnightblue" points="125.942,-293.161 118.382,-285.739 119.664,-296.256 125.942,-293.161"/>
</g>
<!-- Node8 -->
<g id="node8" class="node"><title>Node8</title>
<g id="a_node8"><a xlink:href="../../d1/de2/classFreezeTag.html" target="_top" xlink:title="FreezeTag">
<polygon fill="none" stroke="black" points="196.5,-342.5 196.5,-361.5 259.5,-361.5 259.5,-342.5 196.5,-342.5"/>
<text text-anchor="middle" x="228" y="-349.5" font-family="Helvetica,sans-Serif" font-size="10.00">FreezeTag</text>
</a>
</g>
</g>
<!-- Node1&#45;&gt;Node8 -->
<g id="edge7" class="edge"><title>Node1&#45;&gt;Node8</title>
<path fill="none" stroke="midnightblue" d="M130.136,-292.635C142.813,-305 161.382,-321.629 180,-333 185.859,-336.578 192.511,-339.74 198.928,-342.406"/>
<polygon fill="midnightblue" stroke="midnightblue" points="132.608,-290.157 123.057,-285.572 127.664,-295.113 132.608,-290.157"/>
</g>
<!-- Node9 -->
<g id="node9" class="node"><title>Node9</title>
<g id="a_node9"><a xlink:href="../../d2/d26/classInvasion.html" target="_top" xlink:title="Invasion">
<polygon fill="none" stroke="black" points="201.5,-304.5 201.5,-323.5 254.5,-323.5 254.5,-304.5 201.5,-304.5"/>
<text text-anchor="middle" x="228" y="-311.5" font-family="Helvetica,sans-Serif" font-size="10.00">Invasion</text>
</a>
</g>
</g>
<!-- Node1&#45;&gt;Node9 -->
<g id="edge8" class="edge"><title>Node1&#45;&gt;Node9</title>
<path fill="none" stroke="midnightblue" d="M152.216,-288.852C168.348,-294.276 186.708,-300.451 201.199,-305.324"/>
<polygon fill="midnightblue" stroke="midnightblue" points="153.109,-285.459 142.515,-285.589 150.877,-292.094 153.109,-285.459"/>
</g>
<!-- Node10 -->
<g id="node10" class="node"><title>Node10</title>
<g id="a_node10"><a xlink:href="../../d0/d55/classKeepaway.html" target="_top" xlink:title="Keepaway">
<polygon fill="none" stroke="black" points="197,-266.5 197,-285.5 259,-285.5 259,-266.5 197,-266.5"/>
<text text-anchor="middle" x="228" y="-273.5" font-family="Helvetica,sans-Serif" font-size="10.00">Keepaway</text>
</a>
</g>
</g>
<!-- Node1&#45;&gt;Node10 -->
<g id="edge9" class="edge"><title>Node1&#45;&gt;Node10</title>
<path fill="none" stroke="midnightblue" d="M154.558,-276C168.433,-276 183.705,-276 196.634,-276"/>
<polygon fill="midnightblue" stroke="midnightblue" points="154.282,-272.5 144.282,-276 154.282,-279.5 154.282,-272.5"/>
</g>
<!-- Node11 -->
<g id="node11" class="node"><title>Node11</title>
<g id="a_node11"><a xlink:href="../../d8/dcc/classKeyHunt.html" target="_top" xlink:title="KeyHunt">
<polygon fill="none" stroke="black" points="200.5,-228.5 200.5,-247.5 255.5,-247.5 255.5,-228.5 200.5,-228.5"/>
<text text-anchor="middle" x="228" y="-235.5" font-family="Helvetica,sans-Serif" font-size="10.00">KeyHunt</text>
</a>
</g>
</g>
<!-- Node1&#45;&gt;Node11 -->
<g id="edge10" class="edge"><title>Node1&#45;&gt;Node11</title>
<path fill="none" stroke="midnightblue" d="M152.071,-263.197C167.955,-257.856 186.022,-251.78 200.435,-246.933"/>
<polygon fill="midnightblue" stroke="midnightblue" points="150.877,-259.906 142.515,-266.411 153.109,-266.541 150.877,-259.906"/>
</g>
<!-- Node12 -->
<g id="node12" class="node"><title>Node12</title>
<g id="a_node12"><a xlink:href="../../d3/d09/classLastManStanding.html" target="_top" xlink:title="LastManStanding">
<polygon fill="none" stroke="black" points="182,-190.5 182,-209.5 274,-209.5 274,-190.5 182,-190.5"/>
<text text-anchor="middle" x="228" y="-197.5" font-family="Helvetica,sans-Serif" font-size="10.00">LastManStanding</text>
</a>
</g>
</g>
<!-- Node1&#45;&gt;Node12 -->
<g id="edge11" class="edge"><title>Node1&#45;&gt;Node12</title>
<path fill="none" stroke="midnightblue" d="M130.136,-259.365C142.813,-247 161.382,-230.371 180,-219 185.859,-215.422 192.511,-212.26 198.928,-209.594"/>
<polygon fill="midnightblue" stroke="midnightblue" points="127.664,-256.887 123.057,-266.428 132.608,-261.843 127.664,-256.887"/>
</g>
<!-- Node13 -->
<g id="node13" class="node"><title>Node13</title>
<g id="a_node13"><a xlink:href="../../dd/de4/classNexBall.html" target="_top" xlink:title="NexBall">
<polygon fill="none" stroke="black" points="202.5,-152.5 202.5,-171.5 253.5,-171.5 253.5,-152.5 202.5,-152.5"/>
<text text-anchor="middle" x="228" y="-159.5" font-family="Helvetica,sans-Serif" font-size="10.00">NexBall</text>
</a>
</g>
</g>
<!-- Node1&#45;&gt;Node13 -->
<g id="edge12" class="edge"><title>Node1&#45;&gt;Node13</title>
<path fill="none" stroke="midnightblue" d="M122.937,-257.019C133.759,-235.865 153.837,-201.894 180,-181 186.465,-175.837 194.519,-171.904 202.123,-168.994"/>
<polygon fill="midnightblue" stroke="midnightblue" points="119.664,-255.744 118.382,-266.261 125.942,-258.839 119.664,-255.744"/>
</g>
<!-- Node14 -->
<g id="node14" class="node"><title>Node14</title>
<g id="a_node14"><a xlink:href="../../d0/dab/classOnslaught.html" target="_top" xlink:title="Onslaught">
<polygon fill="none" stroke="black" points="197.5,-114.5 197.5,-133.5 258.5,-133.5 258.5,-114.5 197.5,-114.5"/>
<text text-anchor="middle" x="228" y="-121.5" font-family="Helvetica,sans-Serif" font-size="10.00">Onslaught</text>
</a>
</g>
</g>
<!-- Node1&#45;&gt;Node14 -->
<g id="edge13" class="edge"><title>Node1&#45;&gt;Node14</title>
<path fill="none" stroke="midnightblue" d="M118.984,-256.176C127.14,-227.53 145.943,-174.547 180,-143 184.907,-138.454 191.043,-134.933 197.246,-132.229"/>
<polygon fill="midnightblue" stroke="midnightblue" points="115.508,-255.624 116.288,-266.19 122.267,-257.444 115.508,-255.624"/>
</g>
<!-- Node15 -->
<g id="node15" class="node"><title>Node15</title>
<g id="a_node15"><a xlink:href="../../dd/dd0/classRace.html" target="_top" xlink:title="Race">
<polygon fill="none" stroke="black" points="208,-76.5 208,-95.5 248,-95.5 248,-76.5 208,-76.5"/>
<text text-anchor="middle" x="228" y="-83.5" font-family="Helvetica,sans-Serif" font-size="10.00">Race</text>
</a>
</g>
</g>
<!-- Node1&#45;&gt;Node15 -->
<g id="edge14" class="edge"><title>Node1&#45;&gt;Node15</title>
<path fill="none" stroke="midnightblue" d="M116.478,-256.117C121.847,-221.081 137.682,-147.992 180,-105 187.409,-97.4731 198.199,-92.8278 207.573,-90.0166"/>
<polygon fill="midnightblue" stroke="midnightblue" points="112.953,-256.054 115.035,-266.442 119.885,-257.023 112.953,-256.054"/>
</g>
<!-- Node16 -->
<g id="node16" class="node"><title>Node16</title>
<g id="a_node16"><a xlink:href="../../d6/d96/classRaceCTS.html" target="_top" xlink:title="RaceCTS">
<polygon fill="none" stroke="black" points="198,-38.5 198,-57.5 258,-57.5 258,-38.5 198,-38.5"/>
<text text-anchor="middle" x="228" y="-45.5" font-family="Helvetica,sans-Serif" font-size="10.00">RaceCTS</text>
</a>
</g>
</g>
<!-- Node1&#45;&gt;Node16 -->
<g id="edge15" class="edge"><title>Node1&#45;&gt;Node16</title>
<path fill="none" stroke="midnightblue" d="M114.829,-256.028C117.566,-215.279 129.342,-121.788 180,-67 184.78,-61.8302 191.162,-58.0361 197.679,-55.2627"/>
<polygon fill="midnightblue" stroke="midnightblue" points="111.321,-256.079 114.263,-266.257 118.31,-256.466 111.321,-256.079"/>
</g>
<!-- Node17 -->
<g id="node17" class="node"><title>Node17</title>
<g id="a_node17"><a xlink:href="../../d6/df8/classTeamDeathmatch.html" target="_top" xlink:title="TeamDeathmatch">
<polygon fill="none" stroke="black" points="180.5,-0.5 180.5,-19.5 275.5,-19.5 275.5,-0.5 180.5,-0.5"/>
<text text-anchor="middle" x="228" y="-7.5" font-family="Helvetica,sans-Serif" font-size="10.00">TeamDeathmatch</text>
</a>
</g>
</g>
<!-- Node1&#45;&gt;Node17 -->
<g id="edge16" class="edge"><title>Node1&#45;&gt;Node17</title>
<path fill="none" stroke="midnightblue" d="M113.648,-255.931C113.926,-209.955 120.922,-95.8353 180,-29 183.381,-25.1753 187.642,-22.1084 192.212,-19.6522"/>
<polygon fill="midnightblue" stroke="midnightblue" points="110.149,-256.097 113.695,-266.081 117.149,-256.065 110.149,-256.097"/>
</g>
<!-- Node2 -->
<g id="node2" class="node"><title>Node2</title>
<g id="a_node2"><a xlink:href="../../d8/d4b/classObject.html" target="_top" xlink:title="Object">
<polygon fill="none" stroke="black" points="0.5,-266.5 0.5,-285.5 45.5,-285.5 45.5,-266.5 0.5,-266.5"/>
<text text-anchor="middle" x="23" y="-273.5" font-family="Helvetica,sans-Serif" font-size="10.00">Object</text>
</a>
</g>
</g>
<!-- Node2&#45;&gt;Node1 -->
<g id="edge1" class="edge"><title>Node2&#45;&gt;Node1</title>
<path fill="none" stroke="midnightblue" d="M56.0023,-276C64.4454,-276 73.5266,-276 81.8673,-276"/>
<polygon fill="midnightblue" stroke="midnightblue" points="55.7528,-272.5 45.7528,-276 55.7528,-279.5 55.7528,-272.5"/>
</g>
</g>
</svg>
        <g id="navigator" transform="translate(0 0)" fill="#404254">
                <rect fill="#f2f5e9" fill-opacity="0.5" stroke="#606060" stroke-width=".5" x="0" y="0" width="60" height="60"/>
                <use id="zoomplus" xlink:href="#zoomPlus" x="17" y="9" onmousedown="handleZoom(evt,'in')"/>
                <use id="zoomminus" xlink:href="#zoomMin" x="42" y="9" onmousedown="handleZoom(evt,'out')"/>
                <use id="reset" xlink:href="#resetDef" x="30" y="36" onmousedown="handleReset()"/>
                <g id="arrowUp" xlink:href="#dirArrow" transform="translate(30 24)" onmousedown="handlePan(0,-1)">
                  <use xlink:href="#rim" fill="#404040">
                        <set attributeName="fill" to="#808080" begin="arrowUp.mouseover" end="arrowUp.mouseout"/>
                  </use>
                  <path fill="none" stroke="white" stroke-width="1.5" d="M0,-3.0v7 M-2.5,-0.5L0,-3.0L2.5,-0.5"/>
                </g>
                <g id="arrowRight" xlink:href="#dirArrow" transform="rotate(90) translate(36 -43)" onmousedown="handlePan(1,0)">
                  <use xlink:href="#rim" fill="#404040">
                        <set attributeName="fill" to="#808080" begin="arrowRight.mouseover" end="arrowRight.mouseout"/>
                  </use>
                  <path fill="none" stroke="white" stroke-width="1.5" d="M0,-3.0v7 M-2.5,-0.5L0,-3.0L2.5,-0.5"/>
                </g>
                <g id="arrowDown" xlink:href="#dirArrow" transform="rotate(180) translate(-30 -48)" onmousedown="handlePan(0,1)">
                  <use xlink:href="#rim" fill="#404040">
                        <set attributeName="fill" to="#808080" begin="arrowDown.mouseover" end="arrowDown.mouseout"/>
                  </use>
                  <path fill="none" stroke="white" stroke-width="1.5" d="M0,-3.0v7 M-2.5,-0.5L0,-3.0L2.5,-0.5"/>
                </g>
                <g id="arrowLeft" xlink:href="#dirArrow" transform="rotate(270) translate(-36 17)" onmousedown="handlePan(-1,0)">
                  <use xlink:href="#rim" fill="#404040">
                        <set attributeName="fill" to="#808080" begin="arrowLeft.mouseover" end="arrowLeft.mouseout"/>
                  </use>
                  <path fill="none" stroke="white" stroke-width="1.5" d="M0,-3.0v7 M-2.5,-0.5L0,-3.0L2.5,-0.5"/>
                </g>
        </g>
        <svg viewBox="0 0 15 15" width="100%" height="30px" preserveAspectRatio="xMaxYMin meet">
         <g id="arrow_out" transform="scale(0.3 0.3)">
          <a xlink:href="classGametype__inherit__graph_org.svg" target="_base">
           <rect id="button" ry="5" rx="5" y="6" x="6" height="38" width="38"
                fill="#f2f5e9" fill-opacity="0.5" stroke="#606060" stroke-width="1.0"/>
           <path id="arrow"
             d="M 11.500037,31.436501 C 11.940474,20.09759 22.043105,11.32322 32.158766,21.979434 L 37.068811,17.246167 C 37.068811,17.246167 37.088388,32 37.088388,32 L 22.160133,31.978069 C 22.160133,31.978069 26.997745,27.140456 26.997745,27.140456 C 18.528582,18.264221 13.291696,25.230495 11.500037,31.436501 z"
             style="fill:#404040;"/>
          </a>
         </g>
        </svg>
</svg>
