<?xml version="1.0" encoding="UTF-8" standalone="no"?>
<!DOCTYPE svg PUBLIC "-//W3C//DTD SVG 1.1//EN"
 "http://www.w3.org/Graphics/SVG/1.1/DTD/svg11.dtd">
<!-- Generated by graphviz version 2.36.0 (20140111.2315)
 -->
<!-- Title: weapon_defaultspawnfunc Pages: 1 -->
<!--zoomable 248 -->
<svg id="main" version="1.1" xmlns="http://www.w3.org/2000/svg" xmlns:xlink="http://www.w3.org/1999/xlink" xml:space="preserve" onload="init(evt)">
<style type="text/css"><![CDATA[
.edge:hover path { stroke: red; }
.edge:hover polygon { stroke: red; fill: red; }
]]></style>
<script type="text/javascript"><![CDATA[
var edges = document.getElementsByTagName('g');
if (edges && edges.length) {
  for (var i=0;i<edges.length;i++) {
    if (edges[i].id.substr(0,4)=='edge') {
      edges[i].setAttribute('class','edge');
    }
  }
}
]]></script>
        <defs>
                <circle id="rim" cx="0" cy="0" r="7"/>
                <circle id="rim2" cx="0" cy="0" r="3.5"/>
                <g id="zoomPlus">
                        <use xlink:href="#rim" fill="#404040">
                                <set attributeName="fill" to="#808080" begin="zoomplus.mouseover" end="zoomplus.mouseout"/>
                        </use>
                        <path d="M-4,0h8M0,-4v8" fill="none" stroke="white" stroke-width="1.5" pointer-events="none"/>
                </g>
                <g id="zoomMin">
                        <use xlink:href="#rim" fill="#404040">
                                <set attributeName="fill" to="#808080" begin="zoomminus.mouseover" end="zoomminus.mouseout"/>
                        </use>
                        <path d="M-4,0h8" fill="none" stroke="white" stroke-width="1.5" pointer-events="none"/>
                </g>
                <g id="dirArrow">
                        <path fill="none" stroke="white" stroke-width="1.5" d="M0,-3.0v7 M-2.5,-0.5L0,-3.0L2.5,-0.5"/>
                </g>
               <g id="resetDef">
                       <use xlink:href="#rim2" fill="#404040">
                               <set attributeName="fill" to="#808080" begin="reset.mouseover" end="reset.mouseout"/>
                       </use>
               </g>
        </defs>

<script type="text/javascript">
var viewWidth = 682;
var viewHeight = 248;
var sectionId = 'dynsection-3';
</script>
<script xlink:href="../../svgpan.js"/>
<svg id="graph" class="graph">
<g id="viewport">
<title>weapon_defaultspawnfunc</title>
<!-- Node1 -->
<g id="node1" class="node"><title>Node1</title>
<polygon fill="#bfbfbf" stroke="black" points="0,-114.5 0,-133.5 132,-133.5 132,-114.5 0,-114.5"/>
<text text-anchor="middle" x="66" y="-121.5" font-family="Helvetica,sans-Serif" font-size="10.00">weapon_defaultspawnfunc</text>
</g>
<!-- Node2 -->
<g id="node2" class="node"><title>Node2</title>
<g id="a_node2"><a xlink:href="../../d8/de2/menudefs_8qc.html#ae3e9d36eda7886f5fe58e5201291dd78" target="_top" xlink:title="argv">
<polygon fill="none" stroke="black" points="383.5,-220.5 383.5,-239.5 418.5,-239.5 418.5,-220.5 383.5,-220.5"/>
<text text-anchor="middle" x="401" y="-227.5" font-family="Helvetica,sans-Serif" font-size="10.00">argv</text>
</a>
</g>
</g>
<!-- Node1&#45;&gt;Node2 -->
<g id="edge1" class="edge"><title>Node1&#45;&gt;Node2</title>
<path fill="none" stroke="midnightblue" d="M76.5749,-133.644C93.4065,-149.944 130.12,-182.664 168,-198 238.007,-226.344 328.57,-230.403 372.998,-230.496"/>
<polygon fill="midnightblue" stroke="midnightblue" points="373.275,-233.995 383.258,-230.447 373.241,-226.995 373.275,-233.995"/>
</g>
<!-- Node3 -->
<g id="node3" class="node"><title>Node3</title>
<g id="a_node3"><a xlink:href="../../d8/de2/menudefs_8qc.html#a1196d544e0b4dbb479f05cc4c6cc5516" target="_top" xlink:title="copyentity">
<polygon fill="none" stroke="black" points="370,-154.5 370,-173.5 432,-173.5 432,-154.5 370,-154.5"/>
<text text-anchor="middle" x="401" y="-161.5" font-family="Helvetica,sans-Serif" font-size="10.00">copyentity</text>
</a>
</g>
</g>
<!-- Node1&#45;&gt;Node3 -->
<g id="edge2" class="edge"><title>Node1&#45;&gt;Node3</title>
<path fill="none" stroke="midnightblue" d="M79.4854,-133.712C97.719,-147.214 133.255,-171.012 168,-180 233.729,-197.003 313.212,-184.764 360.018,-174.364"/>
<polygon fill="midnightblue" stroke="midnightblue" points="360.816,-177.772 369.775,-172.116 359.244,-170.95 360.816,-177.772"/>
</g>
<!-- Node4 -->
<g id="node4" class="node"><title>Node4</title>
<g id="a_node4"><a xlink:href="../../d4/d0c/csprogsdefs_8qc.html#acbb54a239d76062465dccbc6a6c6e464" target="_top" xlink:title="entity">
<polygon fill="none" stroke="black" points="380.5,-102.5 380.5,-121.5 421.5,-121.5 421.5,-102.5 380.5,-102.5"/>
<text text-anchor="middle" x="401" y="-109.5" font-family="Helvetica,sans-Serif" font-size="10.00">entity</text>
</a>
</g>
</g>
<!-- Node1&#45;&gt;Node4 -->
<g id="edge3" class="edge"><title>Node1&#45;&gt;Node4</title>
<path fill="none" stroke="midnightblue" d="M132.393,-121.644C204.337,-119.051 316.815,-114.998 370.092,-113.078"/>
<polygon fill="midnightblue" stroke="midnightblue" points="370.36,-116.57 380.227,-112.713 370.108,-109.575 370.36,-116.57"/>
</g>
<!-- Node5 -->
<g id="node5" class="node"><title>Node5</title>
<g id="a_node5"><a xlink:href="../../d8/de2/menudefs_8qc.html#a60338c2153150633178af678cf3ca57c" target="_top" xlink:title="spawn">
<polygon fill="none" stroke="black" points="378.5,-57.5 378.5,-76.5 423.5,-76.5 423.5,-57.5 378.5,-57.5"/>
<text text-anchor="middle" x="401" y="-64.5" font-family="Helvetica,sans-Serif" font-size="10.00">spawn</text>
</a>
</g>
</g>
<!-- Node1&#45;&gt;Node5 -->
<g id="edge4" class="edge"><title>Node1&#45;&gt;Node5</title>
<path fill="none" stroke="midnightblue" d="M122.737,-114.459C193.008,-102.431 311.455,-82.1563 368.039,-72.4708"/>
<polygon fill="midnightblue" stroke="midnightblue" points="368.913,-75.8722 378.179,-70.7351 367.732,-68.9725 368.913,-75.8722"/>
</g>
<!-- Node6 -->
<g id="node6" class="node"><title>Node6</title>
<g id="a_node6"><a xlink:href="../../dc/dab/spawning_8qc.html#ac7b155ae9b6d6ccef4940bf9ef0b5dc9" target="_top" xlink:title="W_Apply_Weaponreplace">
<polygon fill="none" stroke="black" points="336.5,-19.5 336.5,-38.5 465.5,-38.5 465.5,-19.5 336.5,-19.5"/>
<text text-anchor="middle" x="401" y="-26.5" font-family="Helvetica,sans-Serif" font-size="10.00">W_Apply_Weaponreplace</text>
</a>
</g>
</g>
<!-- Node1&#45;&gt;Node6 -->
<g id="edge5" class="edge"><title>Node1&#45;&gt;Node6</title>
<path fill="none" stroke="midnightblue" d="M86.7121,-114.337C106.778,-104.806 138.975,-90.3454 168,-81 223.09,-63.2621 287.429,-49.3555 334.36,-40.4044"/>
<polygon fill="midnightblue" stroke="midnightblue" points="335.219,-43.8042 344.399,-38.5145 333.924,-36.9251 335.219,-43.8042"/>
</g>
<!-- Node10 -->
<g id="node10" class="node"><title>Node10</title>
<g id="a_node10"><a xlink:href="../../dc/dab/spawning_8qc.html#a60096e5c98b3b608470b6130fce0b405" target="_top" xlink:title="weapon_defaultspawnfunc">
<polygon fill="none" stroke="black" points="168,-133.5 168,-152.5 300,-152.5 300,-133.5 168,-133.5"/>
<text text-anchor="middle" x="234" y="-140.5" font-family="Helvetica,sans-Serif" font-size="10.00">weapon_defaultspawnfunc</text>
</a>
</g>
</g>
<!-- Node1&#45;&gt;Node10 -->
<g id="edge9" class="edge"><title>Node1&#45;&gt;Node10</title>
<path fill="none" stroke="midnightblue" d="M132.131,-131.455C140.553,-132.419 149.232,-133.412 157.8,-134.393"/>
<polygon fill="midnightblue" stroke="midnightblue" points="157.451,-137.876 167.784,-135.536 158.247,-130.921 157.451,-137.876"/>
</g>
<!-- Node7 -->
<g id="node7" class="node"><title>Node7</title>
<g id="a_node7"><a xlink:href="../../d2/db4/string_8qh.html#a48c1e587c8b1f8f085a25f0a6ea14774" target="_top" xlink:title="cons">
<polygon fill="none" stroke="black" points="530,-38.5 530,-57.5 568,-57.5 568,-38.5 530,-38.5"/>
<text text-anchor="middle" x="549" y="-45.5" font-family="Helvetica,sans-Serif" font-size="10.00">cons</text>
</a>
</g>
</g>
<!-- Node6&#45;&gt;Node7 -->
<g id="edge6" class="edge"><title>Node6&#45;&gt;Node7</title>
<path fill="none" stroke="midnightblue" d="M465.613,-37.2784C484.593,-39.7485 504.435,-42.3305 519.889,-44.3417"/>
<polygon fill="midnightblue" stroke="midnightblue" points="519.455,-47.8146 529.823,-45.6344 520.358,-40.8731 519.455,-47.8146"/>
</g>
<!-- Node9 -->
<g id="node9" class="node"><title>Node9</title>
<g id="a_node9"><a xlink:href="../../de/d81/common_2weapons_2all_8qh.html#a6174c2c4939972dd04eac76d91e9906b" target="_top" xlink:title="Weapons_fromstr">
<polygon fill="none" stroke="black" points="502,-0.5 502,-19.5 596,-19.5 596,-0.5 502,-0.5"/>
<text text-anchor="middle" x="549" y="-7.5" font-family="Helvetica,sans-Serif" font-size="10.00">Weapons_fromstr</text>
</a>
</g>
</g>
<!-- Node6&#45;&gt;Node9 -->
<g id="edge8" class="edge"><title>Node6&#45;&gt;Node9</title>
<path fill="none" stroke="midnightblue" d="M465.613,-20.7216C474.245,-19.5983 483.054,-18.4518 491.549,-17.3464"/>
<polygon fill="midnightblue" stroke="midnightblue" points="492.255,-20.784 501.72,-16.0227 491.352,-13.8426 492.255,-20.784"/>
</g>
<!-- Node8 -->
<g id="node8" class="node"><title>Node8</title>
<g id="a_node8"><a xlink:href="../../d8/de2/menudefs_8qc.html#ad76dc2b2895cd23f21e008f12a686158" target="_top" xlink:title="strcat">
<polygon fill="none" stroke="black" points="632.5,-38.5 632.5,-57.5 673.5,-57.5 673.5,-38.5 632.5,-38.5"/>
<text text-anchor="middle" x="653" y="-45.5" font-family="Helvetica,sans-Serif" font-size="10.00">strcat</text>
</a>
</g>
</g>
<!-- Node7&#45;&gt;Node8 -->
<g id="edge7" class="edge"><title>Node7&#45;&gt;Node8</title>
<path fill="none" stroke="midnightblue" d="M568.236,-48C583.136,-48 604.507,-48 621.933,-48"/>
<polygon fill="midnightblue" stroke="midnightblue" points="622.18,-51.5001 632.18,-48 622.18,-44.5001 622.18,-51.5001"/>
</g>
<!-- Node10&#45;&gt;Node2 -->
<g id="edge10" class="edge"><title>Node10&#45;&gt;Node2</title>
<path fill="none" stroke="midnightblue" d="M253.288,-152.643C282.613,-168.105 340.266,-198.504 373.907,-216.242"/>
<polygon fill="midnightblue" stroke="midnightblue" points="372.639,-219.53 383.118,-221.098 375.904,-213.338 372.639,-219.53"/>
</g>
<!-- Node10&#45;&gt;Node3 -->
<g id="edge11" class="edge"><title>Node10&#45;&gt;Node3</title>
<path fill="none" stroke="midnightblue" d="M300.212,-151.3C320.242,-153.849 341.696,-156.579 359.558,-158.853"/>
<polygon fill="midnightblue" stroke="midnightblue" points="359.26,-162.343 369.622,-160.134 360.144,-155.399 359.26,-162.343"/>
</g>
<!-- Node10&#45;&gt;Node4 -->
<g id="edge12" class="edge"><title>Node10&#45;&gt;Node4</title>
<path fill="none" stroke="midnightblue" d="M285.852,-133.446C313.606,-128.232 346.993,-121.959 370.467,-117.549"/>
<polygon fill="midnightblue" stroke="midnightblue" points="371.318,-120.95 380.5,-115.664 370.025,-114.07 371.318,-120.95"/>
</g>
<!-- Node10&#45;&gt;Node5 -->
<g id="edge13" class="edge"><title>Node10&#45;&gt;Node5</title>
<path fill="none" stroke="midnightblue" d="M253.419,-133.37C273.517,-122.983 306.737,-106.166 336,-93 346.718,-88.1777 358.609,-83.2373 369.204,-78.9759"/>
<polygon fill="midnightblue" stroke="midnightblue" points="370.503,-82.2262 378.5,-75.2761 367.914,-75.7225 370.503,-82.2262"/>
</g>
<!-- Node10&#45;&gt;Node6 -->
<g id="edge14" class="edge"><title>Node10&#45;&gt;Node6</title>
<path fill="none" stroke="midnightblue" d="M242.539,-133.373C258.003,-114.269 295.303,-71.3931 336,-48 339.731,-45.8556 343.725,-43.9336 347.829,-42.2146"/>
<polygon fill="midnightblue" stroke="midnightblue" points="349.403,-45.3619 357.528,-38.5628 346.936,-38.8108 349.403,-45.3619"/>
</g>
<!-- Node10&#45;&gt;Node10 -->
<g id="edge15" class="edge"><title>Node10&#45;&gt;Node10</title>
<path fill="none" stroke="midnightblue" d="M208.415,-152.757C195.968,-161.565 204.496,-171 234,-171 253.823,-171 264.177,-166.741 265.063,-161.275"/>
<polygon fill="midnightblue" stroke="midnightblue" points="267.938,-159.275 259.585,-152.757 262.051,-163.061 267.938,-159.275"/>
</g>
</g>
</svg>
        <g id="navigator" transform="translate(0 0)" fill="#404254">
                <rect fill="#f2f5e9" fill-opacity="0.5" stroke="#606060" stroke-width=".5" x="0" y="0" width="60" height="60"/>
                <use id="zoomplus" xlink:href="#zoomPlus" x="17" y="9" onmousedown="handleZoom(evt,'in')"/>
                <use id="zoomminus" xlink:href="#zoomMin" x="42" y="9" onmousedown="handleZoom(evt,'out')"/>
                <use id="reset" xlink:href="#resetDef" x="30" y="36" onmousedown="handleReset()"/>
                <g id="arrowUp" xlink:href="#dirArrow" transform="translate(30 24)" onmousedown="handlePan(0,-1)">
                  <use xlink:href="#rim" fill="#404040">
                        <set attributeName="fill" to="#808080" begin="arrowUp.mouseover" end="arrowUp.mouseout"/>
                  </use>
                  <path fill="none" stroke="white" stroke-width="1.5" d="M0,-3.0v7 M-2.5,-0.5L0,-3.0L2.5,-0.5"/>
                </g>
                <g id="arrowRight" xlink:href="#dirArrow" transform="rotate(90) translate(36 -43)" onmousedown="handlePan(1,0)">
                  <use xlink:href="#rim" fill="#404040">
                        <set attributeName="fill" to="#808080" begin="arrowRight.mouseover" end="arrowRight.mouseout"/>
                  </use>
                  <path fill="none" stroke="white" stroke-width="1.5" d="M0,-3.0v7 M-2.5,-0.5L0,-3.0L2.5,-0.5"/>
                </g>
                <g id="arrowDown" xlink:href="#dirArrow" transform="rotate(180) translate(-30 -48)" onmousedown="handlePan(0,1)">
                  <use xlink:href="#rim" fill="#404040">
                        <set attributeName="fill" to="#808080" begin="arrowDown.mouseover" end="arrowDown.mouseout"/>
                  </use>
                  <path fill="none" stroke="white" stroke-width="1.5" d="M0,-3.0v7 M-2.5,-0.5L0,-3.0L2.5,-0.5"/>
                </g>
                <g id="arrowLeft" xlink:href="#dirArrow" transform="rotate(270) translate(-36 17)" onmousedown="handlePan(-1,0)">
                  <use xlink:href="#rim" fill="#404040">
                        <set attributeName="fill" to="#808080" begin="arrowLeft.mouseover" end="arrowLeft.mouseout"/>
                  </use>
                  <path fill="none" stroke="white" stroke-width="1.5" d="M0,-3.0v7 M-2.5,-0.5L0,-3.0L2.5,-0.5"/>
                </g>
        </g>
        <svg viewBox="0 0 15 15" width="100%" height="30px" preserveAspectRatio="xMaxYMin meet">
         <g id="arrow_out" transform="scale(0.3 0.3)">
          <a xlink:href="spawning_8qh_a60096e5c98b3b608470b6130fce0b405_cgraph_org.svg" target="_base">
           <rect id="button" ry="5" rx="5" y="6" x="6" height="38" width="38"
                fill="#f2f5e9" fill-opacity="0.5" stroke="#606060" stroke-width="1.0"/>
           <path id="arrow"
             d="M 11.500037,31.436501 C 11.940474,20.09759 22.043105,11.32322 32.158766,21.979434 L 37.068811,17.246167 C 37.068811,17.246167 37.088388,32 37.088388,32 L 22.160133,31.978069 C 22.160133,31.978069 26.997745,27.140456 26.997745,27.140456 C 18.528582,18.264221 13.291696,25.230495 11.500037,31.436501 z"
             style="fill:#404040;"/>
          </a>
         </g>
        </svg>
</svg>
