<?xml version="1.0" encoding="UTF-8" standalone="no"?>
<!DOCTYPE svg PUBLIC "-//W3C//DTD SVG 1.1//EN"
 "http://www.w3.org/Graphics/SVG/1.1/DTD/svg11.dtd">
<!-- Generated by graphviz version 2.40.1 (20161225.0304)
 -->
<!-- Title: XonoticPicmipSlider Pages: 1 -->
<svg width="122pt" height="364pt"
 viewBox="0.00 0.00 122.00 364.00" xmlns="http://www.w3.org/2000/svg" xmlns:xlink="http://www.w3.org/1999/xlink">
<g id="graph0" class="graph" transform="scale(1 1) rotate(0) translate(4 360)">
<title>XonoticPicmipSlider</title>
<!-- Node0 -->
<g id="node1" class="node">
<title>Node0</title>
<polygon fill="#bfbfbf" stroke="#000000" points="0,-.5 0,-19.5 114,-19.5 114,-.5 0,-.5"/>
<text text-anchor="middle" x="57" y="-7.5" font-family="Helvetica,sans-Serif" font-size="10.00" fill="#000000">XonoticPicmipSlider</text>
</g>
<!-- Node1 -->
<g id="node2" class="node">
<title>Node1</title>
<g id="a_node2"><a xlink:href="../../d0/d15/classXonoticTextSlider.html" target="_top" xlink:title="XonoticTextSlider">
<polygon fill="none" stroke="#000000" points="6.5,-56.5 6.5,-75.5 107.5,-75.5 107.5,-56.5 6.5,-56.5"/>
<text text-anchor="middle" x="57" y="-63.5" font-family="Helvetica,sans-Serif" font-size="10.00" fill="#000000">XonoticTextSlider</text>
</a>
</g>
</g>
<!-- Node1&#45;&gt;Node0 -->
<g id="edge1" class="edge">
<title>Node1&#45;&gt;Node0</title>
<path fill="none" stroke="#191970" d="M57,-46.1575C57,-37.155 57,-26.9199 57,-19.6427"/>
<polygon fill="#191970" stroke="#191970" points="53.5001,-46.2455 57,-56.2455 60.5001,-46.2456 53.5001,-46.2455"/>
</g>
<!-- Node2 -->
<g id="node3" class="node">
<title>Node2</title>
<g id="a_node3"><a xlink:href="../../db/db4/classTextSlider.html" target="_top" xlink:title="TextSlider">
<polygon fill="none" stroke="#000000" points="24.5,-112.5 24.5,-131.5 89.5,-131.5 89.5,-112.5 24.5,-112.5"/>
<text text-anchor="middle" x="57" y="-119.5" font-family="Helvetica,sans-Serif" font-size="10.00" fill="#000000">TextSlider</text>
</a>
</g>
</g>
<!-- Node2&#45;&gt;Node1 -->
<g id="edge2" class="edge">
<title>Node2&#45;&gt;Node1</title>
<path fill="none" stroke="#191970" d="M57,-102.1575C57,-93.155 57,-82.9199 57,-75.6427"/>
<polygon fill="#191970" stroke="#191970" points="53.5001,-102.2455 57,-112.2455 60.5001,-102.2456 53.5001,-102.2455"/>
</g>
<!-- Node3 -->
<g id="node4" class="node">
<title>Node3</title>
<g id="a_node4"><a xlink:href="../../d3/dbe/classSlider.html" target="_top" xlink:title="Slider">
<polygon fill="none" stroke="#000000" points="35,-168.5 35,-187.5 79,-187.5 79,-168.5 35,-168.5"/>
<text text-anchor="middle" x="57" y="-175.5" font-family="Helvetica,sans-Serif" font-size="10.00" fill="#000000">Slider</text>
</a>
</g>
</g>
<!-- Node3&#45;&gt;Node2 -->
<g id="edge3" class="edge">
<title>Node3&#45;&gt;Node2</title>
<path fill="none" stroke="#191970" d="M57,-158.1575C57,-149.155 57,-138.9199 57,-131.6427"/>
<polygon fill="#191970" stroke="#191970" points="53.5001,-158.2455 57,-168.2455 60.5001,-158.2456 53.5001,-158.2455"/>
</g>
<!-- Node4 -->
<g id="node5" class="node">
<title>Node4</title>
<g id="a_node5"><a xlink:href="../../d3/d1b/classLabel.html" target="_top" xlink:title="Label">
<polygon fill="none" stroke="#000000" points="35.5,-224.5 35.5,-243.5 78.5,-243.5 78.5,-224.5 35.5,-224.5"/>
<text text-anchor="middle" x="57" y="-231.5" font-family="Helvetica,sans-Serif" font-size="10.00" fill="#000000">Label</text>
</a>
</g>
</g>
<!-- Node4&#45;&gt;Node3 -->
<g id="edge4" class="edge">
<title>Node4&#45;&gt;Node3</title>
<path fill="none" stroke="#191970" d="M57,-214.1575C57,-205.155 57,-194.9199 57,-187.6427"/>
<polygon fill="#191970" stroke="#191970" points="53.5001,-214.2455 57,-224.2455 60.5001,-214.2456 53.5001,-214.2455"/>
</g>
<!-- Node5 -->
<g id="node6" class="node">
<title>Node5</title>
<g id="a_node6"><a xlink:href="../../d7/dce/classMenuItem.html" target="_top" xlink:title="MenuItem">
<polygon fill="none" stroke="#000000" points="24.5,-280.5 24.5,-299.5 89.5,-299.5 89.5,-280.5 24.5,-280.5"/>
<text text-anchor="middle" x="57" y="-287.5" font-family="Helvetica,sans-Serif" font-size="10.00" fill="#000000">MenuItem</text>
</a>
</g>
</g>
<!-- Node5&#45;&gt;Node4 -->
<g id="edge5" class="edge">
<title>Node5&#45;&gt;Node4</title>
<path fill="none" stroke="#191970" d="M57,-270.1575C57,-261.155 57,-250.9199 57,-243.6427"/>
<polygon fill="#191970" stroke="#191970" points="53.5001,-270.2455 57,-280.2455 60.5001,-270.2456 53.5001,-270.2455"/>
</g>
<!-- Node6 -->
<g id="node7" class="node">
<title>Node6</title>
<g id="a_node7"><a xlink:href="../../d8/d4b/classObject.html" target="_top" xlink:title="Object">
<polygon fill="none" stroke="#000000" points="33,-336.5 33,-355.5 81,-355.5 81,-336.5 33,-336.5"/>
<text text-anchor="middle" x="57" y="-343.5" font-family="Helvetica,sans-Serif" font-size="10.00" fill="#000000">Object</text>
</a>
</g>
</g>
<!-- Node6&#45;&gt;Node5 -->
<g id="edge6" class="edge">
<title>Node6&#45;&gt;Node5</title>
<path fill="none" stroke="#191970" d="M57,-326.1575C57,-317.155 57,-306.9199 57,-299.6427"/>
<polygon fill="#191970" stroke="#191970" points="53.5001,-326.2455 57,-336.2455 60.5001,-326.2456 53.5001,-326.2455"/>
</g>
</g>
</svg>
