<?xml version="1.0" encoding="UTF-8" standalone="no"?>
<!DOCTYPE svg PUBLIC "-//W3C//DTD SVG 1.1//EN"
 "http://www.w3.org/Graphics/SVG/1.1/DTD/svg11.dtd">
<!-- Generated by graphviz version 2.38.0 (20140413.2041)
 -->
<!-- Title: ammo_pickupevalfunc Pages: 1 -->
<svg width="297pt" height="66pt"
 viewBox="0.00 0.00 297.00 66.00" xmlns="http://www.w3.org/2000/svg" xmlns:xlink="http://www.w3.org/1999/xlink">
<g id="graph0" class="graph" transform="scale(1 1) rotate(0) translate(4 62)">
<title>ammo_pickupevalfunc</title>
<!-- Node1 -->
<g id="node1" class="node"><title>Node1</title>
<polygon fill="#bfbfbf" stroke="black" points="0,-19.5 0,-38.5 124,-38.5 124,-19.5 0,-19.5"/>
<text text-anchor="middle" x="62" y="-26.5" font-family="Helvetica,sans-Serif" font-size="10.00">ammo_pickupevalfunc</text>
</g>
<!-- Node2 -->
<g id="node2" class="node"><title>Node2</title>
<g id="a_node2"><a xlink:href="../../d2/d37/jetpack_8qh.html#a0f7fe7df8798aa0299de91d2d412a143" target="_top" xlink:title="REGISTER_ITEM">
<polygon fill="none" stroke="black" points="180,-38.5 180,-57.5 269,-57.5 269,-38.5 180,-38.5"/>
<text text-anchor="middle" x="224.5" y="-45.5" font-family="Helvetica,sans-Serif" font-size="10.00">REGISTER_ITEM</text>
</a>
</g>
</g>
<!-- Node1&#45;&gt;Node2 -->
<g id="edge1" class="edge"><title>Node1&#45;&gt;Node2</title>
<path fill="none" stroke="midnightblue" d="M134.28,-37.4382C149.856,-39.282 165.887,-41.1798 179.989,-42.8491"/>
<polygon fill="midnightblue" stroke="midnightblue" points="134.478,-33.9372 124.136,-36.2373 133.655,-40.8887 134.478,-33.9372"/>
</g>
<!-- Node3 -->
<g id="node3" class="node"><title>Node3</title>
<g id="a_node3"><a xlink:href="../../d0/d7d/server_2items_2items_8qh.html#a741b98407a951c06ad50f67aec8d55c2" target="_top" xlink:title="weapon_pickupevalfunc">
<polygon fill="none" stroke="black" points="160,-0.5 160,-19.5 289,-19.5 289,-0.5 160,-0.5"/>
<text text-anchor="middle" x="224.5" y="-7.5" font-family="Helvetica,sans-Serif" font-size="10.00">weapon_pickupevalfunc</text>
</a>
</g>
</g>
<!-- Node1&#45;&gt;Node3 -->
<g id="edge2" class="edge"><title>Node1&#45;&gt;Node3</title>
<path fill="none" stroke="midnightblue" d="M134.115,-20.5814C142.691,-19.5661 151.409,-18.5342 159.868,-17.5328"/>
<polygon fill="midnightblue" stroke="midnightblue" points="133.655,-17.1113 124.136,-21.7627 134.478,-24.0628 133.655,-17.1113"/>
</g>
</g>
</svg>
