<?xml version="1.0" encoding="UTF-8" standalone="no"?>
<!DOCTYPE svg PUBLIC "-//W3C//DTD SVG 1.1//EN"
 "http://www.w3.org/Graphics/SVG/1.1/DTD/svg11.dtd">
<!-- Generated by graphviz version 2.36.0 (20140111.2315)
 -->
<!-- Title: W_PreviousWeapon Pages: 1 -->
<svg width="820pt" height="371pt"
 viewBox="0.00 0.00 820.00 371.09" xmlns="http://www.w3.org/2000/svg" xmlns:xlink="http://www.w3.org/1999/xlink">
<g id="graph0" class="graph" transform="scale(1 1) rotate(0) translate(4 367.095)">
<title>W_PreviousWeapon</title>
<!-- Node1 -->
<g id="node1" class="node"><title>Node1</title>
<polygon fill="#bfbfbf" stroke="black" points="0,-304.5 0,-323.5 106,-323.5 106,-304.5 0,-304.5"/>
<text text-anchor="middle" x="53" y="-311.5" font-family="Helvetica,sans-Serif" font-size="10.00">W_PreviousWeapon</text>
</g>
<!-- Node2 -->
<g id="node2" class="node"><title>Node2</title>
<g id="a_node2"><a xlink:href="../../db/d9f/state_8qh.html#afdb90637f8a711359249291ee3b3fde6" target="_top" xlink:title="CS">
<polygon fill="none" stroke="black" points="633.5,-304.5 633.5,-323.5 664.5,-323.5 664.5,-304.5 633.5,-304.5"/>
<text text-anchor="middle" x="649" y="-311.5" font-family="Helvetica,sans-Serif" font-size="10.00">CS</text>
</a>
</g>
</g>
<!-- Node1&#45;&gt;Node2 -->
<g id="edge1" class="edge"><title>Node1&#45;&gt;Node2</title>
<path fill="none" stroke="midnightblue" d="M92.2977,-323.528C175.526,-342.802 378.85,-382.124 546,-352 573.809,-346.988 603.932,-334.866 624.177,-325.65"/>
<polygon fill="midnightblue" stroke="midnightblue" points="625.69,-328.807 633.269,-321.404 622.727,-322.465 625.69,-328.807"/>
</g>
<!-- Node3 -->
<g id="node3" class="node"><title>Node3</title>
<g id="a_node3"><a xlink:href="../../d2/d62/selection_8qc.html#a6feb08ba7d01d611762b08aeb5dd7dd6" target="_top" xlink:title="W_CycleWeapon">
<polygon fill="none" stroke="black" points="142.5,-228.5 142.5,-247.5 235.5,-247.5 235.5,-228.5 142.5,-228.5"/>
<text text-anchor="middle" x="189" y="-235.5" font-family="Helvetica,sans-Serif" font-size="10.00">W_CycleWeapon</text>
</a>
</g>
</g>
<!-- Node1&#45;&gt;Node3 -->
<g id="edge2" class="edge"><title>Node1&#45;&gt;Node3</title>
<path fill="none" stroke="midnightblue" d="M70.9712,-304.375C94.0282,-291.297 135.45,-267.804 162.322,-252.563"/>
<polygon fill="midnightblue" stroke="midnightblue" points="164.195,-255.525 171.167,-247.547 160.742,-249.436 164.195,-255.525"/>
</g>
<!-- Node4 -->
<g id="node4" class="node"><title>Node4</title>
<g id="a_node4"><a xlink:href="../../d2/d62/selection_8qc.html#adf3e13e24e532932c0396c15ad5d1228" target="_top" xlink:title="W_GetCycleWeapon">
<polygon fill="none" stroke="black" points="272.5,-114.5 272.5,-133.5 381.5,-133.5 381.5,-114.5 272.5,-114.5"/>
<text text-anchor="middle" x="327" y="-121.5" font-family="Helvetica,sans-Serif" font-size="10.00">W_GetCycleWeapon</text>
</a>
</g>
</g>
<!-- Node3&#45;&gt;Node4 -->
<g id="edge3" class="edge"><title>Node3&#45;&gt;Node4</title>
<path fill="none" stroke="midnightblue" d="M201.595,-228.28C224.981,-208.678 278.009,-164.228 306.701,-140.177"/>
<polygon fill="midnightblue" stroke="midnightblue" points="309.019,-142.801 314.434,-133.695 304.522,-137.437 309.019,-142.801"/>
</g>
<!-- Node19 -->
<g id="node19" class="node"><title>Node19</title>
<g id="a_node19"><a xlink:href="../../d2/d62/selection_8qc.html#a040fef5835b1141797bcb28e880c7f5a" target="_top" xlink:title="W_SwitchWeapon">
<polygon fill="none" stroke="black" points="278,-228.5 278,-247.5 376,-247.5 376,-228.5 278,-228.5"/>
<text text-anchor="middle" x="327" y="-235.5" font-family="Helvetica,sans-Serif" font-size="10.00">W_SwitchWeapon</text>
</a>
</g>
</g>
<!-- Node3&#45;&gt;Node19 -->
<g id="edge20" class="edge"><title>Node3&#45;&gt;Node19</title>
<path fill="none" stroke="midnightblue" d="M235.664,-238C245.956,-238 257.017,-238 267.746,-238"/>
<polygon fill="midnightblue" stroke="midnightblue" points="267.896,-241.5 277.896,-238 267.896,-234.5 267.896,-241.5"/>
</g>
<!-- Node5 -->
<g id="node5" class="node"><title>Node5</title>
<g id="a_node5"><a xlink:href="../../d2/db4/string_8qh.html#a2070f8704d8eb36e69d6d129330758cb" target="_top" xlink:title="returns first word ">
<polygon fill="none" stroke="black" points="467,-95.5 467,-114.5 497,-114.5 497,-95.5 467,-95.5"/>
<text text-anchor="middle" x="482" y="-102.5" font-family="Helvetica,sans-Serif" font-size="10.00">car</text>
</a>
</g>
</g>
<!-- Node4&#45;&gt;Node5 -->
<g id="edge4" class="edge"><title>Node4&#45;&gt;Node5</title>
<path fill="none" stroke="midnightblue" d="M381.512,-117.355C407.105,-114.176 436.483,-110.528 456.643,-108.025"/>
<polygon fill="midnightblue" stroke="midnightblue" points="457.32,-111.468 466.812,-106.762 456.457,-104.521 457.32,-111.468"/>
</g>
<!-- Node7 -->
<g id="node7" class="node"><title>Node7</title>
<g id="a_node7"><a xlink:href="../../d2/db4/string_8qh.html#a6a42b8e34a0b2f8c73ed10b4735e41de" target="_top" xlink:title="returns all but first word ">
<polygon fill="none" stroke="black" points="467,-57.5 467,-76.5 497,-76.5 497,-57.5 467,-57.5"/>
<text text-anchor="middle" x="482" y="-64.5" font-family="Helvetica,sans-Serif" font-size="10.00">cdr</text>
</a>
</g>
</g>
<!-- Node4&#45;&gt;Node7 -->
<g id="edge6" class="edge"><title>Node4&#45;&gt;Node7</title>
<path fill="none" stroke="midnightblue" d="M348.843,-114.452C366.925,-106.35 393.909,-94.6907 418,-86 430.8,-81.3826 445.327,-76.9488 457.203,-73.5273"/>
<polygon fill="midnightblue" stroke="midnightblue" points="458.176,-76.8895 466.847,-70.802 456.272,-70.1533 458.176,-76.8895"/>
</g>
<!-- Node9 -->
<g id="node9" class="node"><title>Node9</title>
<g id="a_node9"><a xlink:href="../../d2/d62/selection_8qc.html#aba6ed323f0e8f5773f5d7de51e2d3411" target="_top" xlink:title="client_hasweapon">
<polygon fill="none" stroke="black" points="434.5,-133.5 434.5,-152.5 529.5,-152.5 529.5,-133.5 434.5,-133.5"/>
<text text-anchor="middle" x="482" y="-140.5" font-family="Helvetica,sans-Serif" font-size="10.00">client_hasweapon</text>
</a>
</g>
</g>
<!-- Node4&#45;&gt;Node9 -->
<g id="edge9" class="edge"><title>Node4&#45;&gt;Node9</title>
<path fill="none" stroke="midnightblue" d="M381.512,-130.645C395.381,-132.368 410.36,-134.228 424.382,-135.969"/>
<polygon fill="midnightblue" stroke="midnightblue" points="424.039,-139.453 434.394,-137.212 424.901,-132.507 424.039,-139.453"/>
</g>
<!-- Node17 -->
<g id="node17" class="node"><title>Node17</title>
<g id="a_node17"><a xlink:href="../../d4/d0c/csprogsdefs_8qc.html#acbb54a239d76062465dccbc6a6c6e464" target="_top" xlink:title="entity">
<polygon fill="none" stroke="black" points="461.5,-171.5 461.5,-190.5 502.5,-190.5 502.5,-171.5 461.5,-171.5"/>
<text text-anchor="middle" x="482" y="-178.5" font-family="Helvetica,sans-Serif" font-size="10.00">entity</text>
</a>
</g>
</g>
<!-- Node4&#45;&gt;Node17 -->
<g id="edge18" class="edge"><title>Node4&#45;&gt;Node17</title>
<path fill="none" stroke="midnightblue" d="M348.843,-133.548C366.925,-141.65 393.909,-153.309 418,-162 428.831,-165.907 440.899,-169.683 451.551,-172.825"/>
<polygon fill="midnightblue" stroke="midnightblue" points="450.664,-176.212 461.243,-175.627 452.608,-169.487 450.664,-176.212"/>
</g>
<!-- Node18 -->
<g id="node18" class="node"><title>Node18</title>
<g id="a_node18"><a xlink:href="../../d8/de2/menudefs_8qc.html#a2f6d3020689c0e872cfb455d0b2cbd4a" target="_top" xlink:title="stof">
<polygon fill="none" stroke="black" points="465.5,-19.5 465.5,-38.5 498.5,-38.5 498.5,-19.5 465.5,-19.5"/>
<text text-anchor="middle" x="482" y="-26.5" font-family="Helvetica,sans-Serif" font-size="10.00">stof</text>
</a>
</g>
</g>
<!-- Node4&#45;&gt;Node18 -->
<g id="edge19" class="edge"><title>Node4&#45;&gt;Node18</title>
<path fill="none" stroke="midnightblue" d="M336.764,-114.387C351.857,-98.3832 384.385,-66.2368 418,-48 429.65,-41.6797 443.679,-37.1858 455.539,-34.1609"/>
<polygon fill="midnightblue" stroke="midnightblue" points="456.353,-37.565 465.288,-31.8719 454.753,-30.7504 456.353,-37.565"/>
</g>
<!-- Node6 -->
<g id="node6" class="node"><title>Node6</title>
<g id="a_node6"><a xlink:href="../../d8/de2/menudefs_8qc.html#a40f6c65c8bbcfa51df783f2809a2502b" target="_top" xlink:title="substring">
<polygon fill="none" stroke="black" points="621,-38.5 621,-57.5 677,-57.5 677,-38.5 621,-38.5"/>
<text text-anchor="middle" x="649" y="-45.5" font-family="Helvetica,sans-Serif" font-size="10.00">substring</text>
</a>
</g>
</g>
<!-- Node5&#45;&gt;Node6 -->
<g id="edge5" class="edge"><title>Node5&#45;&gt;Node6</title>
<path fill="none" stroke="midnightblue" d="M497.031,-101.599C509.978,-98.2679 529.617,-92.7201 546,-86 562.738,-79.134 565.219,-73.7603 582,-67 591.276,-63.2633 601.557,-59.9357 611.19,-57.1503"/>
<polygon fill="midnightblue" stroke="midnightblue" points="612.224,-60.4956 620.925,-54.4494 610.353,-53.7505 612.224,-60.4956"/>
</g>
<!-- Node7&#45;&gt;Node6 -->
<g id="edge8" class="edge"><title>Node7&#45;&gt;Node6</title>
<path fill="none" stroke="midnightblue" d="M497.068,-65.3801C521.965,-62.5132 574.553,-56.4575 610.584,-52.3085"/>
<polygon fill="midnightblue" stroke="midnightblue" points="611.194,-55.7615 620.728,-51.1405 610.393,-48.8075 611.194,-55.7615"/>
</g>
<!-- Node8 -->
<g id="node8" class="node"><title>Node8</title>
<g id="a_node8"><a xlink:href="../../d8/de2/menudefs_8qc.html#a274680f571a231ddf29421b93d434bfa" target="_top" xlink:title="strlen">
<polygon fill="none" stroke="black" points="628.5,-0.5 628.5,-19.5 669.5,-19.5 669.5,-0.5 628.5,-0.5"/>
<text text-anchor="middle" x="649" y="-7.5" font-family="Helvetica,sans-Serif" font-size="10.00">strlen</text>
</a>
</g>
</g>
<!-- Node7&#45;&gt;Node8 -->
<g id="edge7" class="edge"><title>Node7&#45;&gt;Node8</title>
<path fill="none" stroke="midnightblue" d="M497.031,-63.5993C509.978,-60.2679 529.617,-54.7201 546,-48 562.738,-41.134 565.219,-35.7603 582,-29 593.601,-24.3266 606.775,-20.2932 618.286,-17.1598"/>
<polygon fill="midnightblue" stroke="midnightblue" points="619.507,-20.4583 628.297,-14.5428 617.737,-13.6859 619.507,-20.4583"/>
</g>
<!-- Node9&#45;&gt;Node2 -->
<g id="edge10" class="edge"><title>Node9&#45;&gt;Node2</title>
<path fill="none" stroke="midnightblue" d="M529.794,-151.128C535.821,-153.798 541.462,-157.33 546,-162 588.679,-205.916 539.045,-251.354 582,-295 592.691,-305.863 609.161,-310.615 622.974,-312.65"/>
<polygon fill="midnightblue" stroke="midnightblue" points="623.002,-316.173 633.32,-313.765 623.752,-309.214 623.002,-316.173"/>
</g>
<!-- Node10 -->
<g id="node10" class="node"><title>Node10</title>
<g id="a_node10"><a xlink:href="../../dc/d73/server_2miscfunctions_8qh.html#a3ad01a00f1af9d663eb5c97259434896" target="_top" xlink:title="play2">
<polygon fill="none" stroke="black" points="629,-152.5 629,-171.5 669,-171.5 669,-152.5 629,-152.5"/>
<text text-anchor="middle" x="649" y="-159.5" font-family="Helvetica,sans-Serif" font-size="10.00">play2</text>
</a>
</g>
</g>
<!-- Node9&#45;&gt;Node10 -->
<g id="edge11" class="edge"><title>Node9&#45;&gt;Node10</title>
<path fill="none" stroke="midnightblue" d="M529.841,-148.394C558.391,-151.681 593.996,-155.781 618.619,-158.617"/>
<polygon fill="midnightblue" stroke="midnightblue" points="618.435,-162.119 628.77,-159.786 619.236,-155.165 618.435,-162.119"/>
</g>
<!-- Node11 -->
<g id="node11" class="node"><title>Node11</title>
<g id="a_node11"><a xlink:href="../../d2/d62/selection_8qc.html#a6f9b75f17639bb910d8445a136d4a837" target="_top" xlink:title="Send_WeaponComplain">
<polygon fill="none" stroke="black" points="588,-114.5 588,-133.5 710,-133.5 710,-114.5 588,-114.5"/>
<text text-anchor="middle" x="649" y="-121.5" font-family="Helvetica,sans-Serif" font-size="10.00">Send_WeaponComplain</text>
</a>
</g>
</g>
<!-- Node9&#45;&gt;Node11 -->
<g id="edge12" class="edge"><title>Node9&#45;&gt;Node11</title>
<path fill="none" stroke="midnightblue" d="M529.841,-137.606C544.753,-135.889 561.59,-133.95 577.781,-132.086"/>
<polygon fill="midnightblue" stroke="midnightblue" points="578.222,-135.558 587.756,-130.937 577.422,-128.604 578.222,-135.558"/>
</g>
<!-- Node13 -->
<g id="node13" class="node"><title>Node13</title>
<g id="a_node13"><a xlink:href="../../d8/de2/menudefs_8qc.html#a4ae54ed78d55acc008e6fcf8c72e779f" target="_top" xlink:title="sprint">
<polygon fill="none" stroke="black" points="628.5,-76.5 628.5,-95.5 669.5,-95.5 669.5,-76.5 628.5,-76.5"/>
<text text-anchor="middle" x="649" y="-83.5" font-family="Helvetica,sans-Serif" font-size="10.00">sprint</text>
</a>
</g>
</g>
<!-- Node9&#45;&gt;Node13 -->
<g id="edge14" class="edge"><title>Node9&#45;&gt;Node13</title>
<path fill="none" stroke="midnightblue" d="M519.068,-133.426C527.988,-130.703 537.439,-127.512 546,-124 562.738,-117.134 565.219,-111.76 582,-105 593.601,-100.327 606.775,-96.2932 618.286,-93.1598"/>
<polygon fill="midnightblue" stroke="midnightblue" points="619.507,-96.4583 628.297,-90.5428 617.737,-89.6859 619.507,-96.4583"/>
</g>
<!-- Node14 -->
<g id="node14" class="node"><title>Node14</title>
<g id="a_node14"><a xlink:href="../../d2/d1c/weapons_2weapon_8qh.html#ac3cbbc1f9884e78a2816ff88760748d5" target="_top" xlink:title="weaponslot">
<polygon fill="none" stroke="black" points="616,-266.5 616,-285.5 682,-285.5 682,-266.5 616,-266.5"/>
<text text-anchor="middle" x="649" y="-273.5" font-family="Helvetica,sans-Serif" font-size="10.00">weaponslot</text>
</a>
</g>
</g>
<!-- Node9&#45;&gt;Node14 -->
<g id="edge15" class="edge"><title>Node9&#45;&gt;Node14</title>
<path fill="none" stroke="midnightblue" d="M529.71,-151.679C535.676,-154.272 541.322,-157.636 546,-162 579.015,-192.802 548.792,-226.407 582,-257 588.69,-263.163 597.254,-267.341 605.981,-270.168"/>
<polygon fill="midnightblue" stroke="midnightblue" points="605.245,-273.595 615.812,-272.821 607.069,-266.837 605.245,-273.595"/>
</g>
<!-- Node15 -->
<g id="node15" class="node"><title>Node15</title>
<g id="a_node15"><a xlink:href="../../dc/de5/classWeapon.html#ab1963e9f2e85c7c11304531a7a8e4313" target="_top" xlink:title="(SERVER) checks ammo for weapon primary ">
<polygon fill="none" stroke="black" points="582.5,-228.5 582.5,-247.5 715.5,-247.5 715.5,-228.5 582.5,-228.5"/>
<text text-anchor="middle" x="649" y="-235.5" font-family="Helvetica,sans-Serif" font-size="10.00">Weapon::wr_checkammo1</text>
</a>
</g>
</g>
<!-- Node9&#45;&gt;Node15 -->
<g id="edge16" class="edge"><title>Node9&#45;&gt;Node15</title>
<path fill="none" stroke="midnightblue" d="M528.951,-152.579C535.029,-155.04 540.908,-158.127 546,-162 569.849,-180.138 558.037,-201.013 582,-219 584.494,-220.872 587.168,-222.56 589.958,-224.082"/>
<polygon fill="midnightblue" stroke="midnightblue" points="588.649,-227.333 599.19,-228.399 591.614,-220.993 588.649,-227.333"/>
</g>
<!-- Node16 -->
<g id="node16" class="node"><title>Node16</title>
<g id="a_node16"><a xlink:href="../../dc/de5/classWeapon.html#a8adc0f68d514782dc8fe0a1d5af3b310" target="_top" xlink:title="(SERVER) checks ammo for weapon second ">
<polygon fill="none" stroke="black" points="582.5,-190.5 582.5,-209.5 715.5,-209.5 715.5,-190.5 582.5,-190.5"/>
<text text-anchor="middle" x="649" y="-197.5" font-family="Helvetica,sans-Serif" font-size="10.00">Weapon::wr_checkammo2</text>
</a>
</g>
</g>
<!-- Node9&#45;&gt;Node16 -->
<g id="edge17" class="edge"><title>Node9&#45;&gt;Node16</title>
<path fill="none" stroke="midnightblue" d="M519.068,-152.574C527.988,-155.297 537.439,-158.488 546,-162 562.738,-168.866 565.219,-174.24 582,-181 587.806,-183.339 594.007,-185.518 600.196,-187.504"/>
<polygon fill="midnightblue" stroke="midnightblue" points="599.267,-190.88 609.854,-190.461 601.317,-184.186 599.267,-190.88"/>
</g>
<!-- Node12 -->
<g id="node12" class="node"><title>Node12</title>
<g id="a_node12"><a xlink:href="../../d8/de2/menudefs_8qc.html#abd23315350cd01304b6bd77c4c5c07e6" target="_top" xlink:title="WriteByte">
<polygon fill="none" stroke="black" points="752,-114.5 752,-133.5 812,-133.5 812,-114.5 752,-114.5"/>
<text text-anchor="middle" x="782" y="-121.5" font-family="Helvetica,sans-Serif" font-size="10.00">WriteByte</text>
</a>
</g>
</g>
<!-- Node11&#45;&gt;Node12 -->
<g id="edge13" class="edge"><title>Node11&#45;&gt;Node12</title>
<path fill="none" stroke="midnightblue" d="M710.132,-124C720.915,-124 731.893,-124 741.887,-124"/>
<polygon fill="midnightblue" stroke="midnightblue" points="741.896,-127.5 751.896,-124 741.896,-120.5 741.896,-127.5"/>
</g>
<!-- Node19&#45;&gt;Node2 -->
<g id="edge24" class="edge"><title>Node19&#45;&gt;Node2</title>
<path fill="none" stroke="midnightblue" d="M376.275,-242.044C421.179,-246.82 489.466,-256.693 546,-276 563.121,-281.847 565.219,-288.24 582,-295 595.393,-300.395 610.883,-304.938 623.49,-308.227"/>
<polygon fill="midnightblue" stroke="midnightblue" points="622.741,-311.647 633.292,-310.686 624.444,-304.858 622.741,-311.647"/>
</g>
<!-- Node19&#45;&gt;Node9 -->
<g id="edge21" class="edge"><title>Node19&#45;&gt;Node9</title>
<path fill="none" stroke="midnightblue" d="M336.764,-228.387C351.857,-212.383 384.385,-180.237 418,-162 422.006,-159.827 426.293,-157.87 430.676,-156.114"/>
<polygon fill="midnightblue" stroke="midnightblue" points="432.158,-159.299 440.354,-152.586 429.76,-152.722 432.158,-159.299"/>
</g>
<!-- Node19&#45;&gt;Node17 -->
<g id="edge25" class="edge"><title>Node19&#45;&gt;Node17</title>
<path fill="none" stroke="midnightblue" d="M348.843,-228.452C366.925,-220.35 393.909,-208.691 418,-200 428.831,-196.093 440.899,-192.317 451.551,-189.175"/>
<polygon fill="midnightblue" stroke="midnightblue" points="452.608,-192.513 461.243,-186.373 450.664,-185.788 452.608,-192.513"/>
</g>
<!-- Node20 -->
<g id="node20" class="node"><title>Node20</title>
<g id="a_node20"><a xlink:href="../../d2/d62/selection_8qc.html#a26a298ee4ff7a3e0706b8892030ecf1a" target="_top" xlink:title="W_SwitchWeapon_Force">
<polygon fill="none" stroke="black" points="418,-209.5 418,-228.5 546,-228.5 546,-209.5 418,-209.5"/>
<text text-anchor="middle" x="482" y="-216.5" font-family="Helvetica,sans-Serif" font-size="10.00">W_SwitchWeapon_Force</text>
</a>
</g>
</g>
<!-- Node19&#45;&gt;Node20 -->
<g id="edge22" class="edge"><title>Node19&#45;&gt;Node20</title>
<path fill="none" stroke="midnightblue" d="M376.41,-231.988C386.362,-230.752 397.05,-229.425 407.657,-228.108"/>
<polygon fill="midnightblue" stroke="midnightblue" points="408.283,-231.557 417.775,-226.851 407.42,-224.611 408.283,-231.557"/>
</g>
<!-- Node21 -->
<g id="node21" class="node"><title>Node21</title>
<g id="a_node21"><a xlink:href="../../d5/de0/weaponsystem_8qc.html#ac7b6c8bdba2c394f8a3385c9bd992f9c" target="_top" xlink:title="weaponLocked">
<polygon fill="none" stroke="black" points="441,-323.5 441,-342.5 523,-342.5 523,-323.5 441,-323.5"/>
<text text-anchor="middle" x="482" y="-330.5" font-family="Helvetica,sans-Serif" font-size="10.00">weaponLocked</text>
</a>
</g>
</g>
<!-- Node19&#45;&gt;Node21 -->
<g id="edge23" class="edge"><title>Node19&#45;&gt;Node21</title>
<path fill="none" stroke="midnightblue" d="M336.764,-247.613C351.857,-263.617 384.385,-295.763 418,-314 422.173,-316.264 426.652,-318.294 431.228,-320.106"/>
<polygon fill="midnightblue" stroke="midnightblue" points="430.093,-323.417 440.687,-323.524 432.472,-316.834 430.093,-323.417"/>
</g>
<!-- Node22 -->
<g id="node22" class="node"><title>Node22</title>
<g id="a_node22"><a xlink:href="../../dc/de5/classWeapon.html#a30558a4b50b31b3794b4b6b41acc8151" target="_top" xlink:title="(SERVER) handles reloading for weapon ">
<polygon fill="none" stroke="black" points="431.5,-285.5 431.5,-304.5 532.5,-304.5 532.5,-285.5 431.5,-285.5"/>
<text text-anchor="middle" x="482" y="-292.5" font-family="Helvetica,sans-Serif" font-size="10.00">Weapon::wr_reload</text>
</a>
</g>
</g>
<!-- Node19&#45;&gt;Node22 -->
<g id="edge26" class="edge"><title>Node19&#45;&gt;Node22</title>
<path fill="none" stroke="midnightblue" d="M353.609,-247.541C378.873,-256.953 417.69,-271.414 445.837,-281.9"/>
<polygon fill="midnightblue" stroke="midnightblue" points="444.715,-285.217 455.308,-285.428 447.159,-278.657 444.715,-285.217"/>
</g>
</g>
</svg>
