<?xml version="1.0" encoding="UTF-8" standalone="no"?>
<!DOCTYPE svg PUBLIC "-//W3C//DTD SVG 1.1//EN"
 "http://www.w3.org/Graphics/SVG/1.1/DTD/svg11.dtd">
<!-- Generated by graphviz version 2.36.0 (20140111.2315)
 -->
<!-- Title: ka_RespawnBall Pages: 1 -->
<!--zoomable 833 -->
<svg id="main" version="1.1" xmlns="http://www.w3.org/2000/svg" xmlns:xlink="http://www.w3.org/1999/xlink" xml:space="preserve" onload="init(evt)">
<style type="text/css"><![CDATA[
.edge:hover path { stroke: red; }
.edge:hover polygon { stroke: red; fill: red; }
]]></style>
<script type="text/javascript"><![CDATA[
var edges = document.getElementsByTagName('g');
if (edges && edges.length) {
  for (var i=0;i<edges.length;i++) {
    if (edges[i].id.substr(0,4)=='edge') {
      edges[i].setAttribute('class','edge');
    }
  }
}
]]></script>
        <defs>
                <circle id="rim" cx="0" cy="0" r="7"/>
                <circle id="rim2" cx="0" cy="0" r="3.5"/>
                <g id="zoomPlus">
                        <use xlink:href="#rim" fill="#404040">
                                <set attributeName="fill" to="#808080" begin="zoomplus.mouseover" end="zoomplus.mouseout"/>
                        </use>
                        <path d="M-4,0h8M0,-4v8" fill="none" stroke="white" stroke-width="1.5" pointer-events="none"/>
                </g>
                <g id="zoomMin">
                        <use xlink:href="#rim" fill="#404040">
                                <set attributeName="fill" to="#808080" begin="zoomminus.mouseover" end="zoomminus.mouseout"/>
                        </use>
                        <path d="M-4,0h8" fill="none" stroke="white" stroke-width="1.5" pointer-events="none"/>
                </g>
                <g id="dirArrow">
                        <path fill="none" stroke="white" stroke-width="1.5" d="M0,-3.0v7 M-2.5,-0.5L0,-3.0L2.5,-0.5"/>
                </g>
               <g id="resetDef">
                       <use xlink:href="#rim2" fill="#404040">
                               <set attributeName="fill" to="#808080" begin="reset.mouseover" end="reset.mouseout"/>
                       </use>
               </g>
        </defs>

<script type="text/javascript">
var viewWidth = 852;
var viewHeight = 833;
var sectionId = 'dynsection-17';
</script>
<script xlink:href="../../svgpan.js"/>
<svg id="graph" class="graph">
<g id="viewport">
<title>ka_RespawnBall</title>
<!-- Node1 -->
<g id="node1" class="node"><title>Node1</title>
<polygon fill="#bfbfbf" stroke="black" points="0,-382.5 0,-401.5 90,-401.5 90,-382.5 0,-382.5"/>
<text text-anchor="middle" x="45" y="-389.5" font-family="Helvetica,sans-Serif" font-size="10.00">ka_RespawnBall</text>
</g>
<!-- Node2 -->
<g id="node2" class="node"><title>Node2</title>
<g id="a_node2"><a xlink:href="../../d4/d0c/csprogsdefs_8qc.html#acbb54a239d76062465dccbc6a6c6e464" target="_top" xlink:title="entity">
<polygon fill="none" stroke="black" points="784.5,-275.5 784.5,-294.5 825.5,-294.5 825.5,-275.5 784.5,-275.5"/>
<text text-anchor="middle" x="805" y="-282.5" font-family="Helvetica,sans-Serif" font-size="10.00">entity</text>
</a>
</g>
</g>
<!-- Node1&#45;&gt;Node2 -->
<g id="edge1" class="edge"><title>Node1&#45;&gt;Node2</title>
<path fill="none" stroke="midnightblue" d="M90.0598,-395.253C204.939,-403.301 511.521,-421.9 610,-399 681.604,-382.349 752.767,-328.577 785.445,-301.256"/>
<polygon fill="midnightblue" stroke="midnightblue" points="787.908,-303.756 793.257,-294.611 783.372,-298.425 787.908,-303.756"/>
</g>
<!-- Node3 -->
<g id="node3" class="node"><title>Node3</title>
<g id="a_node3"><a xlink:href="../../d3/d5a/gamemode__keepaway_8qc.html#ac4c4fbb459ed5ae28fa62d2a8d53a5a7" target="_top" xlink:title="ka_TouchEvent">
<polygon fill="none" stroke="black" points="155.5,-524.5 155.5,-543.5 240.5,-543.5 240.5,-524.5 155.5,-524.5"/>
<text text-anchor="middle" x="198" y="-531.5" font-family="Helvetica,sans-Serif" font-size="10.00">ka_TouchEvent</text>
</a>
</g>
</g>
<!-- Node1&#45;&gt;Node3 -->
<g id="edge2" class="edge"><title>Node1&#45;&gt;Node3</title>
<path fill="none" stroke="midnightblue" d="M60.7534,-401.663C89.9215,-425.675 154.599,-486.53 183.078,-516.796"/>
<polygon fill="midnightblue" stroke="midnightblue" points="180.759,-519.447 190.091,-524.465 185.925,-514.723 180.759,-519.447"/>
</g>
<!-- Node4 -->
<g id="node4" class="node"><title>Node4</title>
<g id="a_node4"><a xlink:href="../../d5/dff/ent__cs_8qc.html#ac459a724c1fe031c6658fff554b12ea8" target="_top" xlink:title="setorigin">
<polygon fill="none" stroke="black" points="356.5,-710.5 356.5,-729.5 409.5,-729.5 409.5,-710.5 356.5,-710.5"/>
<text text-anchor="middle" x="383" y="-717.5" font-family="Helvetica,sans-Serif" font-size="10.00">setorigin</text>
</a>
</g>
</g>
<!-- Node1&#45;&gt;Node4 -->
<g id="edge54" class="edge"><title>Node1&#45;&gt;Node4</title>
<path fill="none" stroke="midnightblue" d="M46.8866,-401.803C50.4339,-435.643 66.4384,-549.079 126,-615 185.149,-680.464 291.193,-706.04 346.399,-715.268"/>
<polygon fill="midnightblue" stroke="midnightblue" points="345.989,-718.746 356.414,-716.854 347.085,-711.833 345.989,-718.746"/>
</g>
<!-- Node5 -->
<g id="node5" class="node"><title>Node5</title>
<g id="a_node5"><a xlink:href="../../d4/dd7/movetypes_8qh.html#a8bf89be84cb481d218ff41140eacff78" target="_top" xlink:title="set_movetype">
<polygon fill="none" stroke="black" points="344,-672.5 344,-691.5 422,-691.5 422,-672.5 344,-672.5"/>
<text text-anchor="middle" x="383" y="-679.5" font-family="Helvetica,sans-Serif" font-size="10.00">set_movetype</text>
</a>
</g>
</g>
<!-- Node1&#45;&gt;Node5 -->
<g id="edge53" class="edge"><title>Node1&#45;&gt;Node5</title>
<path fill="none" stroke="midnightblue" d="M48.7573,-401.809C56.7412,-428.765 82.1431,-505.133 126,-553 189.336,-622.128 219.528,-626.769 306,-663 314.844,-666.706 324.582,-669.811 334.05,-672.367"/>
<polygon fill="midnightblue" stroke="midnightblue" points="333.217,-675.766 343.77,-674.832 334.938,-668.981 333.217,-675.766"/>
</g>
<!-- Node22 -->
<g id="node22" class="node"><title>Node22</title>
<g id="a_node22"><a xlink:href="../../dc/dc6/server_2miscfunctions_8qc.html#aa93bfe50de097cc229818a2822f45a45" target="_top" xlink:title="MoveToRandomMapLocation">
<polygon fill="none" stroke="black" points="126,-341.5 126,-360.5 270,-360.5 270,-341.5 126,-341.5"/>
<text text-anchor="middle" x="198" y="-348.5" font-family="Helvetica,sans-Serif" font-size="10.00">MoveToRandomMapLocation</text>
</a>
</g>
</g>
<!-- Node1&#45;&gt;Node22 -->
<g id="edge27" class="edge"><title>Node1&#45;&gt;Node22</title>
<path fill="none" stroke="midnightblue" d="M81.022,-382.491C102.196,-376.742 129.4,-369.355 152.139,-363.181"/>
<polygon fill="midnightblue" stroke="midnightblue" points="153.173,-366.527 161.907,-360.529 151.339,-359.771 153.173,-366.527"/>
</g>
<!-- Node26 -->
<g id="node26" class="node"><title>Node26</title>
<g id="a_node26"><a xlink:href="../../d4/d0c/csprogsdefs_8qc.html#a4f0b78b1785821ba47129edb68e70f9e" target="_top" xlink:title="vector">
<polygon fill="none" stroke="black" points="783,-85.5 783,-104.5 827,-104.5 827,-85.5 783,-85.5"/>
<text text-anchor="middle" x="805" y="-92.5" font-family="Helvetica,sans-Serif" font-size="10.00">vector</text>
</a>
</g>
</g>
<!-- Node1&#45;&gt;Node26 -->
<g id="edge55" class="edge"><title>Node1&#45;&gt;Node26</title>
<path fill="none" stroke="midnightblue" d="M47.3352,-382.124C52.2418,-349 71.8929,-240.057 126,-171 210.387,-63.2959 245.174,-0 382,-0 382,-0 382,-0 554,-0 642.893,-0 738.651,-53.133 781.288,-79.9269"/>
<polygon fill="midnightblue" stroke="midnightblue" points="779.482,-82.9266 789.792,-85.3681 783.255,-77.0303 779.482,-82.9266"/>
</g>
<!-- Node27 -->
<g id="node27" class="node"><title>Node27</title>
<g id="a_node27"><a xlink:href="../../db/d15/api_8qh.html#a5848061af05382b84c2d5231c59759f1" target="_top" xlink:title="navigation_dynamicgoal_set">
<polygon fill="none" stroke="black" points="128,-180.5 128,-199.5 268,-199.5 268,-180.5 128,-180.5"/>
<text text-anchor="middle" x="198" y="-187.5" font-family="Helvetica,sans-Serif" font-size="10.00">navigation_dynamicgoal_set</text>
</a>
</g>
</g>
<!-- Node1&#45;&gt;Node27 -->
<g id="edge33" class="edge"><title>Node1&#45;&gt;Node27</title>
<path fill="none" stroke="midnightblue" d="M47.2727,-382.32C51.8035,-351.861 69.9943,-257.146 126,-209 127.947,-207.326 130.027,-205.798 132.207,-204.403"/>
<polygon fill="midnightblue" stroke="midnightblue" points="133.888,-207.473 141.039,-199.656 130.574,-201.307 133.888,-207.473"/>
</g>
<!-- Node28 -->
<g id="node28" class="node"><title>Node28</title>
<g id="a_node28"><a xlink:href="../../d0/d41/spawnpoints_8qc.html#a71804b6dc31803f43afa105a34e35d04" target="_top" xlink:title="SelectSpawnPoint">
<polygon fill="none" stroke="black" points="149.5,-218.5 149.5,-237.5 246.5,-237.5 246.5,-218.5 149.5,-218.5"/>
<text text-anchor="middle" x="198" y="-225.5" font-family="Helvetica,sans-Serif" font-size="10.00">SelectSpawnPoint</text>
</a>
</g>
</g>
<!-- Node1&#45;&gt;Node28 -->
<g id="edge34" class="edge"><title>Node1&#45;&gt;Node28</title>
<path fill="none" stroke="midnightblue" d="M54.9935,-382.232C79.8107,-355.278 149.5,-279.589 181.084,-245.286"/>
<polygon fill="midnightblue" stroke="midnightblue" points="184.044,-247.239 188.243,-237.511 178.894,-242.497 184.044,-247.239"/>
</g>
<!-- Node3&#45;&gt;Node1 -->
<g id="edge3" class="edge"><title>Node3&#45;&gt;Node1</title>
<path fill="none" stroke="midnightblue" d="M182.162,-524.268C152.94,-500.197 88.309,-439.38 59.8796,-409.159"/>
<polygon fill="midnightblue" stroke="midnightblue" points="62.2109,-406.522 52.8805,-401.502 57.0443,-411.245 62.2109,-406.522"/>
</g>
<!-- Node3&#45;&gt;Node4 -->
<g id="edge4" class="edge"><title>Node3&#45;&gt;Node4</title>
<path fill="none" stroke="midnightblue" d="M202.287,-543.737C212.567,-572.648 246.993,-658.609 306,-701 317.707,-709.41 332.746,-714.113 346.353,-716.737"/>
<polygon fill="midnightblue" stroke="midnightblue" points="345.968,-720.22 356.399,-718.365 347.088,-713.311 345.968,-720.22"/>
</g>
<!-- Node3&#45;&gt;Node5 -->
<g id="edge5" class="edge"><title>Node3&#45;&gt;Node5</title>
<path fill="none" stroke="midnightblue" d="M206.765,-543.521C230.825,-573.003 302.722,-660.937 306,-663 314.373,-668.269 324.122,-672.077 333.791,-674.83"/>
<polygon fill="midnightblue" stroke="midnightblue" points="333.226,-678.296 343.777,-677.333 334.928,-671.507 333.226,-678.296"/>
</g>
<!-- Node6 -->
<g id="node6" class="node"><title>Node6</title>
<g id="a_node6"><a xlink:href="../../d1/df7/nil_8qh.html#a48cdb42ec925da155dd105031cac3f44" target="_top" xlink:title="func_null">
<polygon fill="none" stroke="black" points="355,-420.5 355,-439.5 411,-439.5 411,-420.5 355,-420.5"/>
<text text-anchor="middle" x="383" y="-427.5" font-family="Helvetica,sans-Serif" font-size="10.00">func_null</text>
</a>
</g>
</g>
<!-- Node3&#45;&gt;Node6 -->
<g id="edge6" class="edge"><title>Node3&#45;&gt;Node6</title>
<path fill="none" stroke="midnightblue" d="M208.059,-524.496C225.386,-506.886 265.147,-469.147 306,-449 318.127,-443.019 332.298,-438.818 345.096,-435.917"/>
<polygon fill="midnightblue" stroke="midnightblue" points="345.921,-439.32 355,-433.859 344.497,-432.467 345.921,-439.32"/>
</g>
<!-- Node7 -->
<g id="node7" class="node"><title>Node7</title>
<g id="a_node7"><a xlink:href="../../d3/d5a/gamemode__keepaway_8qc.html#a4aec8808850dd14dd563f20a9ce5618c" target="_top" xlink:title="ka_TimeScoring">
<polygon fill="none" stroke="black" points="339.5,-508.5 339.5,-527.5 426.5,-527.5 426.5,-508.5 339.5,-508.5"/>
<text text-anchor="middle" x="383" y="-515.5" font-family="Helvetica,sans-Serif" font-size="10.00">ka_TimeScoring</text>
</a>
</g>
</g>
<!-- Node3&#45;&gt;Node7 -->
<g id="edge7" class="edge"><title>Node3&#45;&gt;Node7</title>
<path fill="none" stroke="midnightblue" d="M240.526,-530.369C266.823,-528.07 301.065,-525.076 329.275,-522.61"/>
<polygon fill="midnightblue" stroke="midnightblue" points="329.712,-526.085 339.369,-521.727 329.102,-519.112 329.712,-526.085"/>
</g>
<!-- Node8 -->
<g id="node8" class="node"><title>Node8</title>
<g id="a_node8"><a xlink:href="../../d2/d79/scores_8qc.html#aebb89cf706a7b2fe6037e3ab4e56dfe4" target="_top" xlink:title="Adds a score to the player&#39;s scores. ">
<polygon fill="none" stroke="black" points="507,-524.5 507,-543.5 599,-543.5 599,-524.5 507,-524.5"/>
<text text-anchor="middle" x="553" y="-531.5" font-family="Helvetica,sans-Serif" font-size="10.00">PlayerScore_Add</text>
</a>
</g>
</g>
<!-- Node3&#45;&gt;Node8 -->
<g id="edge25" class="edge"><title>Node3&#45;&gt;Node8</title>
<path fill="none" stroke="midnightblue" d="M213.438,-543.672C233.285,-556.327 270.575,-577.848 306,-586 372.701,-601.349 393.807,-603.412 460,-586 486.593,-579.005 513.581,-562.377 531.387,-549.793"/>
<polygon fill="midnightblue" stroke="midnightblue" points="533.791,-552.372 539.811,-543.654 529.668,-546.715 533.791,-552.372"/>
</g>
<!-- Node10 -->
<g id="node10" class="node"><title>Node10</title>
<g id="a_node10"><a xlink:href="../../db/d15/api_8qh.html#af3180b7544df1c7106b080ca79486a19" target="_top" xlink:title="navigation_dynamicgoal\l_unset">
<polygon fill="none" stroke="black" points="322.5,-547 322.5,-577 443.5,-577 443.5,-547 322.5,-547"/>
<text text-anchor="start" x="330.5" y="-565" font-family="Helvetica,sans-Serif" font-size="10.00">navigation_dynamicgoal</text>
<text text-anchor="middle" x="383" y="-554" font-family="Helvetica,sans-Serif" font-size="10.00">_unset</text>
</a>
</g>
</g>
<!-- Node3&#45;&gt;Node10 -->
<g id="edge11" class="edge"><title>Node3&#45;&gt;Node10</title>
<path fill="none" stroke="midnightblue" d="M240.526,-540.354C261.656,-543.587 287.916,-547.605 312.053,-551.298"/>
<polygon fill="midnightblue" stroke="midnightblue" points="311.833,-554.805 322.247,-552.857 312.892,-547.885 311.833,-554.805"/>
</g>
<!-- Node11 -->
<g id="node11" class="node"><title>Node11</title>
<g id="a_node11"><a xlink:href="../../d3/d5a/gamemode__keepaway_8qc.html#af8f0e411c8293afa501c76d2f9f5f904" target="_top" xlink:title="ka_EventLog">
<polygon fill="none" stroke="black" points="346,-634.5 346,-653.5 420,-653.5 420,-634.5 346,-634.5"/>
<text text-anchor="middle" x="383" y="-641.5" font-family="Helvetica,sans-Serif" font-size="10.00">ka_EventLog</text>
</a>
</g>
</g>
<!-- Node3&#45;&gt;Node11 -->
<g id="edge12" class="edge"><title>Node3&#45;&gt;Node11</title>
<path fill="none" stroke="midnightblue" d="M208.429,-543.663C226.058,-561.219 265.867,-598.519 306,-620 315.337,-624.998 325.885,-629.152 336.084,-632.521"/>
<polygon fill="midnightblue" stroke="midnightblue" points="335.117,-635.886 345.705,-635.512 337.195,-629.201 335.117,-635.886"/>
</g>
<!-- Node21 -->
<g id="node21" class="node"><title>Node21</title>
<g id="a_node21"><a xlink:href="../../d3/d5a/gamemode__keepaway_8qc.html#aba900e001d432363ed6e93c6b5499a84" target="_top" xlink:title="ka_ballcarrier_waypointsprite\l_visible_for_player">
<polygon fill="none" stroke="black" points="311.5,-459 311.5,-489 454.5,-489 454.5,-459 311.5,-459"/>
<text text-anchor="start" x="319.5" y="-477" font-family="Helvetica,sans-Serif" font-size="10.00">ka_ballcarrier_waypointsprite</text>
<text text-anchor="middle" x="383" y="-466" font-family="Helvetica,sans-Serif" font-size="10.00">_visible_for_player</text>
</a>
</g>
</g>
<!-- Node3&#45;&gt;Node21 -->
<g id="edge26" class="edge"><title>Node3&#45;&gt;Node21</title>
<path fill="none" stroke="midnightblue" d="M227.997,-524.493C254.301,-515.868 293.807,-502.916 326.219,-492.289"/>
<polygon fill="midnightblue" stroke="midnightblue" points="327.616,-495.514 336.028,-489.073 325.435,-488.863 327.616,-495.514"/>
</g>
<!-- Node7&#45;&gt;Node8 -->
<g id="edge8" class="edge"><title>Node7&#45;&gt;Node8</title>
<path fill="none" stroke="midnightblue" d="M426.828,-522.079C448.073,-524.102 473.985,-526.57 496.711,-528.734"/>
<polygon fill="midnightblue" stroke="midnightblue" points="496.613,-532.241 506.9,-529.705 497.277,-525.272 496.613,-532.241"/>
</g>
<!-- Node8&#45;&gt;Node2 -->
<g id="edge9" class="edge"><title>Node8&#45;&gt;Node2</title>
<path fill="none" stroke="midnightblue" d="M580.107,-524.475C617.481,-509.715 686.514,-478.125 730,-432 765.96,-393.858 788.385,-334.884 798.205,-304.529"/>
<polygon fill="midnightblue" stroke="midnightblue" points="801.625,-305.32 801.255,-294.731 794.941,-303.239 801.625,-305.32"/>
</g>
<!-- Node9 -->
<g id="node9" class="node"><title>Node9</title>
<g id="a_node9"><a xlink:href="../../d8/de2/menudefs_8qc.html#ad76dc2b2895cd23f21e008f12a686158" target="_top" xlink:title="strcat">
<polygon fill="none" stroke="black" points="667.5,-539.5 667.5,-558.5 708.5,-558.5 708.5,-539.5 667.5,-539.5"/>
<text text-anchor="middle" x="688" y="-546.5" font-family="Helvetica,sans-Serif" font-size="10.00">strcat</text>
</a>
</g>
</g>
<!-- Node8&#45;&gt;Node9 -->
<g id="edge10" class="edge"><title>Node8&#45;&gt;Node9</title>
<path fill="none" stroke="midnightblue" d="M599.028,-539.078C618.249,-541.246 640.152,-543.716 657.294,-545.65"/>
<polygon fill="midnightblue" stroke="midnightblue" points="656.957,-549.134 667.286,-546.777 657.741,-542.178 656.957,-549.134"/>
</g>
<!-- Node11&#45;&gt;Node9 -->
<g id="edge24" class="edge"><title>Node11&#45;&gt;Node9</title>
<path fill="none" stroke="midnightblue" d="M406.922,-634.419C429.39,-625.214 464.723,-611.233 496,-601 552.428,-582.539 619.679,-565.313 657.448,-556.063"/>
<polygon fill="midnightblue" stroke="midnightblue" points="658.395,-559.434 667.285,-553.671 656.741,-552.633 658.395,-559.434"/>
</g>
<!-- Node12 -->
<g id="node12" class="node"><title>Node12</title>
<g id="a_node12"><a xlink:href="../../d8/de2/menudefs_8qc.html#abbb0d86741e0056b6c04f7280c185d76" target="_top" xlink:title="ftos">
<polygon fill="none" stroke="black" points="671.5,-577.5 671.5,-596.5 704.5,-596.5 704.5,-577.5 671.5,-577.5"/>
<text text-anchor="middle" x="688" y="-584.5" font-family="Helvetica,sans-Serif" font-size="10.00">ftos</text>
</a>
</g>
</g>
<!-- Node11&#45;&gt;Node12 -->
<g id="edge13" class="edge"><title>Node11&#45;&gt;Node12</title>
<path fill="none" stroke="midnightblue" d="M420.248,-637.181C482.264,-625.515 607.247,-602.003 661.216,-591.85"/>
<polygon fill="midnightblue" stroke="midnightblue" points="662.135,-595.239 671.315,-589.951 660.841,-588.36 662.135,-595.239"/>
</g>
<!-- Node13 -->
<g id="node13" class="node"><title>Node13</title>
<g id="a_node13"><a xlink:href="../../dc/dc6/server_2miscfunctions_8qc.html#ad8252ef534185c1cbbde32e65a01a5b3" target="_top" xlink:title="GameLogEcho">
<polygon fill="none" stroke="black" points="512.5,-653.5 512.5,-672.5 593.5,-672.5 593.5,-653.5 512.5,-653.5"/>
<text text-anchor="middle" x="553" y="-660.5" font-family="Helvetica,sans-Serif" font-size="10.00">GameLogEcho</text>
</a>
</g>
</g>
<!-- Node11&#45;&gt;Node13 -->
<g id="edge14" class="edge"><title>Node11&#45;&gt;Node13</title>
<path fill="none" stroke="midnightblue" d="M420.04,-648.076C444.043,-650.791 475.902,-654.394 502.303,-657.38"/>
<polygon fill="midnightblue" stroke="midnightblue" points="502.167,-660.886 512.497,-658.532 502.954,-653.931 502.167,-660.886"/>
</g>
<!-- Node13&#45;&gt;Node9 -->
<g id="edge21" class="edge"><title>Node13&#45;&gt;Node9</title>
<path fill="none" stroke="midnightblue" d="M562.594,-653.26C581.659,-631.801 627.283,-581.297 646,-568 649.771,-565.321 653.981,-562.868 658.226,-560.679"/>
<polygon fill="midnightblue" stroke="midnightblue" points="659.882,-563.767 667.422,-556.323 656.886,-557.441 659.882,-563.767"/>
</g>
<!-- Node13&#45;&gt;Node12 -->
<g id="edge20" class="edge"><title>Node13&#45;&gt;Node12</title>
<path fill="none" stroke="midnightblue" d="M581.427,-653.402C590.835,-649.557 601.203,-644.681 610,-639 628.233,-627.225 627.94,-618.039 646,-606 650.896,-602.736 656.442,-599.754 661.837,-597.169"/>
<polygon fill="midnightblue" stroke="midnightblue" points="663.518,-600.251 671.213,-592.968 660.656,-593.863 663.518,-600.251"/>
</g>
<!-- Node14 -->
<g id="node14" class="node"><title>Node14</title>
<g id="a_node14"><a xlink:href="../../d8/de2/menudefs_8qc.html#a0b350379da8a7002dee40a3598bf33c3" target="_top" xlink:title="cvar_set">
<polygon fill="none" stroke="black" points="661,-615.5 661,-634.5 715,-634.5 715,-615.5 661,-615.5"/>
<text text-anchor="middle" x="688" y="-622.5" font-family="Helvetica,sans-Serif" font-size="10.00">cvar_set</text>
</a>
</g>
</g>
<!-- Node13&#45;&gt;Node14 -->
<g id="edge15" class="edge"><title>Node13&#45;&gt;Node14</title>
<path fill="none" stroke="midnightblue" d="M587.562,-653.411C606.828,-647.906 631.028,-640.992 650.731,-635.363"/>
<polygon fill="midnightblue" stroke="midnightblue" points="651.921,-638.663 660.574,-632.55 649.998,-631.932 651.921,-638.663"/>
</g>
<!-- Node15 -->
<g id="node15" class="node"><title>Node15</title>
<g id="a_node15"><a xlink:href="../../db/d9b/server_2player_8qc.html#a0390f6703ace29f61655694b8821d84a" target="_top" xlink:title="print(), but only print if the server is not local ">
<polygon fill="none" stroke="black" points="646.5,-805.5 646.5,-824.5 729.5,-824.5 729.5,-805.5 646.5,-805.5"/>
<text text-anchor="middle" x="688" y="-812.5" font-family="Helvetica,sans-Serif" font-size="10.00">dedicated_print</text>
</a>
</g>
</g>
<!-- Node13&#45;&gt;Node15 -->
<g id="edge16" class="edge"><title>Node13&#45;&gt;Node15</title>
<path fill="none" stroke="midnightblue" d="M558.422,-672.667C569.78,-696.558 602.186,-759.111 646,-796 647.755,-797.478 649.645,-798.866 651.615,-800.166"/>
<polygon fill="midnightblue" stroke="midnightblue" points="650.183,-803.379 660.602,-805.302 653.656,-797.301 650.183,-803.379"/>
</g>
<!-- Node17 -->
<g id="node17" class="node"><title>Node17</title>
<g id="a_node17"><a xlink:href="../../d8/de2/menudefs_8qc.html#a5231f4ff2813f7de782b67d25a9e4cf9" target="_top" xlink:title="fopen">
<polygon fill="none" stroke="black" points="667.5,-767.5 667.5,-786.5 708.5,-786.5 708.5,-767.5 667.5,-767.5"/>
<text text-anchor="middle" x="688" y="-774.5" font-family="Helvetica,sans-Serif" font-size="10.00">fopen</text>
</a>
</g>
</g>
<!-- Node13&#45;&gt;Node17 -->
<g id="edge18" class="edge"><title>Node13&#45;&gt;Node17</title>
<path fill="none" stroke="midnightblue" d="M561.41,-672.766C575.93,-691.373 609.877,-732.337 646,-758 649.771,-760.679 653.981,-763.132 658.226,-765.321"/>
<polygon fill="midnightblue" stroke="midnightblue" points="656.886,-768.559 667.422,-769.677 659.882,-762.233 656.886,-768.559"/>
</g>
<!-- Node18 -->
<g id="node18" class="node"><title>Node18</title>
<g id="a_node18"><a xlink:href="../../d8/de2/menudefs_8qc.html#a33a318a59e2648521862f24200a821df" target="_top" xlink:title="fputs">
<polygon fill="none" stroke="black" points="669,-729.5 669,-748.5 707,-748.5 707,-729.5 669,-729.5"/>
<text text-anchor="middle" x="688" y="-736.5" font-family="Helvetica,sans-Serif" font-size="10.00">fputs</text>
</a>
</g>
</g>
<!-- Node13&#45;&gt;Node18 -->
<g id="edge19" class="edge"><title>Node13&#45;&gt;Node18</title>
<path fill="none" stroke="midnightblue" d="M568.338,-672.637C586.169,-684.445 617.716,-704.757 646,-720 650.347,-722.343 655.034,-724.682 659.632,-726.877"/>
<polygon fill="midnightblue" stroke="midnightblue" points="658.263,-730.101 668.807,-731.138 661.211,-723.752 658.263,-730.101"/>
</g>
<!-- Node19 -->
<g id="node19" class="node"><title>Node19</title>
<g id="a_node19"><a xlink:href="../../d8/de2/menudefs_8qc.html#a274680f571a231ddf29421b93d434bfa" target="_top" xlink:title="strlen">
<polygon fill="none" stroke="black" points="667.5,-691.5 667.5,-710.5 708.5,-710.5 708.5,-691.5 667.5,-691.5"/>
<text text-anchor="middle" x="688" y="-698.5" font-family="Helvetica,sans-Serif" font-size="10.00">strlen</text>
</a>
</g>
</g>
<!-- Node13&#45;&gt;Node19 -->
<g id="edge22" class="edge"><title>Node13&#45;&gt;Node19</title>
<path fill="none" stroke="midnightblue" d="M587.562,-672.589C609.154,-678.758 636.945,-686.699 657.656,-692.616"/>
<polygon fill="midnightblue" stroke="midnightblue" points="656.906,-696.042 667.483,-695.424 658.829,-689.311 656.906,-696.042"/>
</g>
<!-- Node20 -->
<g id="node20" class="node"><title>Node20</title>
<g id="a_node20"><a xlink:href="../../d8/de2/menudefs_8qc.html#a40f6c65c8bbcfa51df783f2809a2502b" target="_top" xlink:title="substring">
<polygon fill="none" stroke="black" points="660,-653.5 660,-672.5 716,-672.5 716,-653.5 660,-653.5"/>
<text text-anchor="middle" x="688" y="-660.5" font-family="Helvetica,sans-Serif" font-size="10.00">substring</text>
</a>
</g>
</g>
<!-- Node13&#45;&gt;Node20 -->
<g id="edge23" class="edge"><title>Node13&#45;&gt;Node20</title>
<path fill="none" stroke="midnightblue" d="M593.544,-663C611.173,-663 631.843,-663 649.255,-663"/>
<polygon fill="midnightblue" stroke="midnightblue" points="649.62,-666.5 659.62,-663 649.62,-659.5 649.62,-666.5"/>
</g>
<!-- Node16 -->
<g id="node16" class="node"><title>Node16</title>
<g id="a_node16"><a xlink:href="../../d8/de2/menudefs_8qc.html#acf9c719e766113bad854907e87812e98" target="_top" xlink:title="print">
<polygon fill="none" stroke="black" points="787.5,-805.5 787.5,-824.5 822.5,-824.5 822.5,-805.5 787.5,-805.5"/>
<text text-anchor="middle" x="805" y="-812.5" font-family="Helvetica,sans-Serif" font-size="10.00">print</text>
</a>
</g>
</g>
<!-- Node15&#45;&gt;Node16 -->
<g id="edge17" class="edge"><title>Node15&#45;&gt;Node16</title>
<path fill="none" stroke="midnightblue" d="M729.545,-815C745.416,-815 763.181,-815 777.376,-815"/>
<polygon fill="midnightblue" stroke="midnightblue" points="777.445,-818.5 787.445,-815 777.445,-811.5 777.445,-818.5"/>
</g>
<!-- Node23 -->
<g id="node23" class="node"><title>Node23</title>
<g id="a_node23"><a xlink:href="../../dc/dc6/server_2miscfunctions_8qc.html#a980a6f943699026265182e645ad4d8ef" target="_top" xlink:title="MoveToRandomLocationWithin\lBounds">
<polygon fill="none" stroke="black" points="306.5,-333 306.5,-363 459.5,-363 459.5,-333 306.5,-333"/>
<text text-anchor="start" x="314.5" y="-351" font-family="Helvetica,sans-Serif" font-size="10.00">MoveToRandomLocationWithin</text>
<text text-anchor="middle" x="383" y="-340" font-family="Helvetica,sans-Serif" font-size="10.00">Bounds</text>
</a>
</g>
</g>
<!-- Node22&#45;&gt;Node23 -->
<g id="edge28" class="edge"><title>Node22&#45;&gt;Node23</title>
<path fill="none" stroke="midnightblue" d="M270.015,-349.836C278.608,-349.695 287.455,-349.55 296.232,-349.406"/>
<polygon fill="midnightblue" stroke="midnightblue" points="296.542,-352.902 306.483,-349.238 296.427,-345.902 296.542,-352.902"/>
</g>
<!-- Node23&#45;&gt;Node2 -->
<g id="edge30" class="edge"><title>Node23&#45;&gt;Node2</title>
<path fill="none" stroke="midnightblue" d="M459.794,-348.615C530.72,-347.514 639.08,-341.505 730,-318 746.598,-313.709 764.164,-306.024 778.015,-299.15"/>
<polygon fill="midnightblue" stroke="midnightblue" points="779.648,-302.246 786.952,-294.572 776.456,-296.016 779.648,-302.246"/>
</g>
<!-- Node24 -->
<g id="node24" class="node"><title>Node24</title>
<g id="a_node24"><a xlink:href="../../d4/d0c/csprogsdefs_8qc.html#a94c5b969ccc333b040b402d69d3338a2" target="_top" xlink:title="checkpvs">
<polygon fill="none" stroke="black" points="523.5,-370.5 523.5,-389.5 582.5,-389.5 582.5,-370.5 523.5,-370.5"/>
<text text-anchor="middle" x="553" y="-377.5" font-family="Helvetica,sans-Serif" font-size="10.00">checkpvs</text>
</a>
</g>
</g>
<!-- Node23&#45;&gt;Node24 -->
<g id="edge29" class="edge"><title>Node23&#45;&gt;Node24</title>
<path fill="none" stroke="midnightblue" d="M459.645,-362.409C478.22,-365.947 497.346,-369.59 513.34,-372.636"/>
<polygon fill="midnightblue" stroke="midnightblue" points="512.883,-376.112 523.361,-374.545 514.193,-369.236 512.883,-376.112"/>
</g>
<!-- Node25 -->
<g id="node25" class="node"><title>Node25</title>
<g id="a_node25"><a xlink:href="../../d8/de2/menudefs_8qc.html#a663ea6aa3c4923b3e065cf91cc319f1b" target="_top" xlink:title="random">
<polygon fill="none" stroke="black" points="528.5,-142.5 528.5,-161.5 577.5,-161.5 577.5,-142.5 528.5,-142.5"/>
<text text-anchor="middle" x="553" y="-149.5" font-family="Helvetica,sans-Serif" font-size="10.00">random</text>
</a>
</g>
</g>
<!-- Node23&#45;&gt;Node25 -->
<g id="edge31" class="edge"><title>Node23&#45;&gt;Node25</title>
<path fill="none" stroke="midnightblue" d="M401.36,-332.838C418.18,-317.398 443.503,-292.083 460,-266 483.029,-229.59 465.911,-206.832 496,-176 502.266,-169.58 510.526,-164.779 518.772,-161.23"/>
<polygon fill="midnightblue" stroke="midnightblue" points="520.21,-164.428 528.325,-157.616 517.733,-157.881 520.21,-164.428"/>
</g>
<!-- Node23&#45;&gt;Node26 -->
<g id="edge32" class="edge"><title>Node23&#45;&gt;Node26</title>
<path fill="none" stroke="midnightblue" d="M399.762,-332.74C415.805,-316.821 440.954,-290.776 460,-266 478.261,-242.245 472.415,-227.48 496,-209 538.04,-176.061 564.952,-199.689 610,-171 629.623,-158.503 625.86,-144.645 646,-133 686.001,-109.872 739.487,-100.784 772.832,-97.2372"/>
<polygon fill="midnightblue" stroke="midnightblue" points="773.288,-100.71 782.908,-96.2696 772.619,-93.7416 773.288,-100.71"/>
</g>
<!-- Node28&#45;&gt;Node2 -->
<g id="edge35" class="edge"><title>Node28&#45;&gt;Node2</title>
<path fill="none" stroke="midnightblue" d="M220.628,-237.663C241.891,-246.685 275.502,-259.678 306,-266 480.371,-302.145 696.26,-292.452 774.197,-287.263"/>
<polygon fill="midnightblue" stroke="midnightblue" points="774.526,-290.748 784.26,-286.565 774.042,-283.765 774.526,-290.748"/>
</g>
<!-- Node28&#45;&gt;Node25 -->
<g id="edge51" class="edge"><title>Node28&#45;&gt;Node25</title>
<path fill="none" stroke="midnightblue" d="M240.803,-218.485C250.522,-215.815 260.733,-212.632 270,-209 286.844,-202.398 288.824,-195.681 306,-190 379.236,-165.776 469.942,-156.858 518.15,-153.679"/>
<polygon fill="midnightblue" stroke="midnightblue" points="518.567,-157.16 528.333,-153.052 518.137,-150.173 518.567,-157.16"/>
</g>
<!-- Node29 -->
<g id="node29" class="node"><title>Node29</title>
<g id="a_node29"><a xlink:href="../../d8/de2/menudefs_8qc.html#a53c4a8e7afd17cad92bc00adba96bb78" target="_top" xlink:title="find">
<polygon fill="none" stroke="black" points="367,-199.5 367,-218.5 399,-218.5 399,-199.5 367,-199.5"/>
<text text-anchor="middle" x="383" y="-206.5" font-family="Helvetica,sans-Serif" font-size="10.00">find</text>
</a>
</g>
</g>
<!-- Node28&#45;&gt;Node29 -->
<g id="edge36" class="edge"><title>Node28&#45;&gt;Node29</title>
<path fill="none" stroke="midnightblue" d="M246.603,-223.058C281.756,-219.408 328.238,-214.582 356.584,-211.639"/>
<polygon fill="midnightblue" stroke="midnightblue" points="357.259,-215.088 366.844,-210.574 356.536,-208.125 357.259,-215.088"/>
</g>
<!-- Node30 -->
<g id="node30" class="node"><title>Node30</title>
<g id="a_node30"><a xlink:href="../../d0/d41/spawnpoints_8qc.html#aaac98f481535c16238cdfcb66cbbf625" target="_top" xlink:title="Spawn_WeightedPoint">
<polygon fill="none" stroke="black" points="325,-104.5 325,-123.5 441,-123.5 441,-104.5 325,-104.5"/>
<text text-anchor="middle" x="383" y="-111.5" font-family="Helvetica,sans-Serif" font-size="10.00">Spawn_WeightedPoint</text>
</a>
</g>
</g>
<!-- Node28&#45;&gt;Node30 -->
<g id="edge37" class="edge"><title>Node28&#45;&gt;Node30</title>
<path fill="none" stroke="midnightblue" d="M246.853,-220.718C255.111,-217.972 263.21,-214.195 270,-209 295.306,-189.638 282.196,-168.182 306,-147 315.319,-138.708 327.045,-132.246 338.478,-127.328"/>
<polygon fill="midnightblue" stroke="midnightblue" points="339.96,-130.505 347.954,-123.552 337.369,-124.002 339.96,-130.505"/>
</g>
<!-- Node33 -->
<g id="node33" class="node"><title>Node33</title>
<g id="a_node33"><a xlink:href="../../d0/d41/spawnpoints_8qc.html#ac6bf8417de66cc27e1aad493335d2901" target="_top" xlink:title="Spawn_FilterOutBadSpots">
<polygon fill="none" stroke="black" points="317,-237.5 317,-256.5 449,-256.5 449,-237.5 317,-237.5"/>
<text text-anchor="middle" x="383" y="-244.5" font-family="Helvetica,sans-Serif" font-size="10.00">Spawn_FilterOutBadSpots</text>
</a>
</g>
</g>
<!-- Node28&#45;&gt;Node33 -->
<g id="edge41" class="edge"><title>Node28&#45;&gt;Node33</title>
<path fill="none" stroke="midnightblue" d="M246.603,-232.942C264.904,-234.842 286.274,-237.061 306.558,-239.167"/>
<polygon fill="midnightblue" stroke="midnightblue" points="306.418,-242.671 316.726,-240.223 307.141,-235.709 306.418,-242.671"/>
</g>
<!-- Node39 -->
<g id="node39" class="node"><title>Node39</title>
<g id="a_node39"><a xlink:href="../../d7/d97/g__world_8qh.html#af10c6acabd38f4b2b5eb6298e32a9b64" target="_top" xlink:title="GotoNextMap">
<polygon fill="none" stroke="black" points="344.5,-66.5 344.5,-85.5 421.5,-85.5 421.5,-66.5 344.5,-66.5"/>
<text text-anchor="middle" x="383" y="-73.5" font-family="Helvetica,sans-Serif" font-size="10.00">GotoNextMap</text>
</a>
</g>
</g>
<!-- Node28&#45;&gt;Node39 -->
<g id="edge52" class="edge"><title>Node28&#45;&gt;Node39</title>
<path fill="none" stroke="midnightblue" d="M246.756,-222.263C255.312,-219.392 263.545,-215.174 270,-209 308.395,-172.273 267.303,-131.409 306,-95 313.807,-87.6549 324.01,-83.0315 334.394,-80.1502"/>
<polygon fill="midnightblue" stroke="midnightblue" points="335.358,-83.5203 344.333,-77.8895 333.806,-76.6947 335.358,-83.5203"/>
</g>
<!-- Node30&#45;&gt;Node2 -->
<g id="edge38" class="edge"><title>Node30&#45;&gt;Node2</title>
<path fill="none" stroke="midnightblue" d="M441.252,-107.886C488.784,-105.299 556.948,-107.494 610,-133 630.967,-143.08 628.49,-155.682 646,-171 649.112,-173.722 739.696,-238.829 782.276,-269.406"/>
<polygon fill="midnightblue" stroke="midnightblue" points="780.421,-272.382 790.585,-275.371 784.503,-266.696 780.421,-272.382"/>
</g>
<!-- Node31 -->
<g id="node31" class="node"><title>Node31</title>
<g id="a_node31"><a xlink:href="../../dc/d95/random_8qc.html#a3405965b1da9657276caec225d4b3acf" target="_top" xlink:title="RandomSelection_Init">
<polygon fill="none" stroke="black" points="496.5,-28.5 496.5,-47.5 609.5,-47.5 609.5,-28.5 496.5,-28.5"/>
<text text-anchor="middle" x="553" y="-35.5" font-family="Helvetica,sans-Serif" font-size="10.00">RandomSelection_Init</text>
</a>
</g>
</g>
<!-- Node30&#45;&gt;Node31 -->
<g id="edge39" class="edge"><title>Node30&#45;&gt;Node31</title>
<path fill="none" stroke="midnightblue" d="M438.24,-104.495C445.825,-102.021 453.306,-98.9103 460,-95 480.088,-83.2652 476.411,-69.5495 496,-57 499.123,-54.9994 502.48,-53.185 505.942,-51.5442"/>
<polygon fill="midnightblue" stroke="midnightblue" points="507.421,-54.7189 515.265,-47.5975 504.692,-48.2727 507.421,-54.7189"/>
</g>
<!-- Node32 -->
<g id="node32" class="node"><title>Node32</title>
<g id="a_node32"><a xlink:href="../../d8/de2/menudefs_8qc.html#a3846d117b360dccec575f96988cf3bb7" target="_top" xlink:title="bound">
<polygon fill="none" stroke="black" points="531.5,-66.5 531.5,-85.5 574.5,-85.5 574.5,-66.5 531.5,-66.5"/>
<text text-anchor="middle" x="553" y="-73.5" font-family="Helvetica,sans-Serif" font-size="10.00">bound</text>
</a>
</g>
</g>
<!-- Node30&#45;&gt;Node32 -->
<g id="edge40" class="edge"><title>Node30&#45;&gt;Node32</title>
<path fill="none" stroke="midnightblue" d="M426.393,-104.411C455.913,-97.7339 494.605,-88.9823 521.202,-82.9662"/>
<polygon fill="midnightblue" stroke="midnightblue" points="522.123,-86.3463 531.105,-80.7263 520.579,-79.5188 522.123,-86.3463"/>
</g>
<!-- Node33&#45;&gt;Node2 -->
<g id="edge42" class="edge"><title>Node33&#45;&gt;Node2</title>
<path fill="none" stroke="midnightblue" d="M449.164,-252.896C541.488,-261.249 706.632,-276.191 774.072,-282.292"/>
<polygon fill="midnightblue" stroke="midnightblue" points="774.122,-285.811 784.397,-283.226 774.753,-278.839 774.122,-285.811"/>
</g>
<!-- Node34 -->
<g id="node34" class="node"><title>Node34</title>
<g id="a_node34"><a xlink:href="../../d0/d41/spawnpoints_8qc.html#a84d4f6b3e07681dab4898e5c42966698" target="_top" xlink:title="Spawn_ScoreAll">
<polygon fill="none" stroke="black" points="508.5,-218.5 508.5,-237.5 597.5,-237.5 597.5,-218.5 508.5,-218.5"/>
<text text-anchor="middle" x="553" y="-225.5" font-family="Helvetica,sans-Serif" font-size="10.00">Spawn_ScoreAll</text>
</a>
</g>
</g>
<!-- Node33&#45;&gt;Node34 -->
<g id="edge43" class="edge"><title>Node33&#45;&gt;Node34</title>
<path fill="none" stroke="midnightblue" d="M449.434,-239.6C465.683,-237.762 482.908,-235.814 498.508,-234.05"/>
<polygon fill="midnightblue" stroke="midnightblue" points="498.955,-237.522 508.499,-232.92 498.169,-230.566 498.955,-237.522"/>
</g>
<!-- Node34&#45;&gt;Node2 -->
<g id="edge44" class="edge"><title>Node34&#45;&gt;Node2</title>
<path fill="none" stroke="midnightblue" d="M597.741,-230.505C633.788,-233.388 685.957,-239.454 730,-252 746.112,-256.589 763.248,-264.051 776.968,-270.718"/>
<polygon fill="midnightblue" stroke="midnightblue" points="775.782,-274.039 786.292,-275.381 778.913,-267.778 775.782,-274.039"/>
</g>
<!-- Node35 -->
<g id="node35" class="node"><title>Node35</title>
<g id="a_node35"><a xlink:href="../../d0/d41/spawnpoints_8qc.html#adb306ba6ed0866d22bb8f9318d8c4488" target="_top" xlink:title="Spawn_Score">
<polygon fill="none" stroke="black" points="649.5,-142.5 649.5,-161.5 726.5,-161.5 726.5,-142.5 649.5,-142.5"/>
<text text-anchor="middle" x="688" y="-149.5" font-family="Helvetica,sans-Serif" font-size="10.00">Spawn_Score</text>
</a>
</g>
</g>
<!-- Node34&#45;&gt;Node35 -->
<g id="edge45" class="edge"><title>Node34&#45;&gt;Node35</title>
<path fill="none" stroke="midnightblue" d="M579.01,-218.467C588.865,-214.407 600.157,-209.37 610,-204 629.887,-193.15 651.127,-178.556 666.251,-167.59"/>
<polygon fill="midnightblue" stroke="midnightblue" points="668.406,-170.35 674.393,-161.608 664.262,-164.708 668.406,-170.35"/>
</g>
<!-- Node35&#45;&gt;Node2 -->
<g id="edge48" class="edge"><title>Node35&#45;&gt;Node2</title>
<path fill="none" stroke="midnightblue" d="M709.409,-161.598C716.402,-165.471 723.976,-170.366 730,-176 731.968,-177.841 771.159,-236.068 791.689,-266.646"/>
<polygon fill="midnightblue" stroke="midnightblue" points="788.921,-268.802 797.4,-275.155 794.734,-264.901 788.921,-268.802"/>
</g>
<!-- Node35&#45;&gt;Node26 -->
<g id="edge47" class="edge"><title>Node35&#45;&gt;Node26</title>
<path fill="none" stroke="midnightblue" d="M708.248,-142.459C726.657,-133.335 754.64,-119.466 775.608,-109.073"/>
<polygon fill="midnightblue" stroke="midnightblue" points="777.283,-112.149 784.689,-104.572 774.175,-105.877 777.283,-112.149"/>
</g>
<!-- Node36 -->
<g id="node36" class="node"><title>Node36</title>
<g id="a_node36"><a xlink:href="../../d8/de2/menudefs_8qc.html#a79d61ab0e4126e02af8bc36d432aedaf" target="_top" xlink:title="vlen">
<polygon fill="none" stroke="black" points="787.5,-199.5 787.5,-218.5 822.5,-218.5 822.5,-199.5 787.5,-199.5"/>
<text text-anchor="middle" x="805" y="-206.5" font-family="Helvetica,sans-Serif" font-size="10.00">vlen</text>
</a>
</g>
</g>
<!-- Node35&#45;&gt;Node36 -->
<g id="edge46" class="edge"><title>Node35&#45;&gt;Node36</title>
<path fill="none" stroke="midnightblue" d="M708.248,-161.541C727.434,-171.05 757.017,-185.713 778.222,-196.223"/>
<polygon fill="midnightblue" stroke="midnightblue" points="776.794,-199.421 787.308,-200.726 779.902,-193.15 776.794,-199.421"/>
</g>
<!-- Node37 -->
<g id="node37" class="node"><title>Node37</title>
<g id="a_node37"><a xlink:href="../../d1/d07/framework_8qc.html#aef346455b3c2def821423a45227b45dd" target="_top" xlink:title="LOG_TRACE">
<polygon fill="none" stroke="black" points="766.5,-161.5 766.5,-180.5 843.5,-180.5 843.5,-161.5 766.5,-161.5"/>
<text text-anchor="middle" x="805" y="-168.5" font-family="Helvetica,sans-Serif" font-size="10.00">LOG_TRACE</text>
</a>
</g>
</g>
<!-- Node35&#45;&gt;Node37 -->
<g id="edge49" class="edge"><title>Node35&#45;&gt;Node37</title>
<path fill="none" stroke="midnightblue" d="M726.655,-158.221C736.087,-159.78 746.331,-161.472 756.184,-163.1"/>
<polygon fill="midnightblue" stroke="midnightblue" points="755.823,-166.588 766.26,-164.765 756.964,-159.681 755.823,-166.588"/>
</g>
<!-- Node38 -->
<g id="node38" class="node"><title>Node38</title>
<g id="a_node38"><a xlink:href="../../d8/de2/menudefs_8qc.html#ab0df318f2dece7f798ff4061cd67f9d2" target="_top" xlink:title="vtos">
<polygon fill="none" stroke="black" points="787.5,-123.5 787.5,-142.5 822.5,-142.5 822.5,-123.5 787.5,-123.5"/>
<text text-anchor="middle" x="805" y="-130.5" font-family="Helvetica,sans-Serif" font-size="10.00">vtos</text>
</a>
</g>
</g>
<!-- Node35&#45;&gt;Node38 -->
<g id="edge50" class="edge"><title>Node35&#45;&gt;Node38</title>
<path fill="none" stroke="midnightblue" d="M726.655,-145.779C743.207,-143.044 762.259,-139.896 777.312,-137.409"/>
<polygon fill="midnightblue" stroke="midnightblue" points="778.178,-140.814 787.474,-135.73 777.037,-133.907 778.178,-140.814"/>
</g>
</g>
</svg>
        <g id="navigator" transform="translate(0 0)" fill="#404254">
                <rect fill="#f2f5e9" fill-opacity="0.5" stroke="#606060" stroke-width=".5" x="0" y="0" width="60" height="60"/>
                <use id="zoomplus" xlink:href="#zoomPlus" x="17" y="9" onmousedown="handleZoom(evt,'in')"/>
                <use id="zoomminus" xlink:href="#zoomMin" x="42" y="9" onmousedown="handleZoom(evt,'out')"/>
                <use id="reset" xlink:href="#resetDef" x="30" y="36" onmousedown="handleReset()"/>
                <g id="arrowUp" xlink:href="#dirArrow" transform="translate(30 24)" onmousedown="handlePan(0,-1)">
                  <use xlink:href="#rim" fill="#404040">
                        <set attributeName="fill" to="#808080" begin="arrowUp.mouseover" end="arrowUp.mouseout"/>
                  </use>
                  <path fill="none" stroke="white" stroke-width="1.5" d="M0,-3.0v7 M-2.5,-0.5L0,-3.0L2.5,-0.5"/>
                </g>
                <g id="arrowRight" xlink:href="#dirArrow" transform="rotate(90) translate(36 -43)" onmousedown="handlePan(1,0)">
                  <use xlink:href="#rim" fill="#404040">
                        <set attributeName="fill" to="#808080" begin="arrowRight.mouseover" end="arrowRight.mouseout"/>
                  </use>
                  <path fill="none" stroke="white" stroke-width="1.5" d="M0,-3.0v7 M-2.5,-0.5L0,-3.0L2.5,-0.5"/>
                </g>
                <g id="arrowDown" xlink:href="#dirArrow" transform="rotate(180) translate(-30 -48)" onmousedown="handlePan(0,1)">
                  <use xlink:href="#rim" fill="#404040">
                        <set attributeName="fill" to="#808080" begin="arrowDown.mouseover" end="arrowDown.mouseout"/>
                  </use>
                  <path fill="none" stroke="white" stroke-width="1.5" d="M0,-3.0v7 M-2.5,-0.5L0,-3.0L2.5,-0.5"/>
                </g>
                <g id="arrowLeft" xlink:href="#dirArrow" transform="rotate(270) translate(-36 17)" onmousedown="handlePan(-1,0)">
                  <use xlink:href="#rim" fill="#404040">
                        <set attributeName="fill" to="#808080" begin="arrowLeft.mouseover" end="arrowLeft.mouseout"/>
                  </use>
                  <path fill="none" stroke="white" stroke-width="1.5" d="M0,-3.0v7 M-2.5,-0.5L0,-3.0L2.5,-0.5"/>
                </g>
        </g>
        <svg viewBox="0 0 15 15" width="100%" height="30px" preserveAspectRatio="xMaxYMin meet">
         <g id="arrow_out" transform="scale(0.3 0.3)">
          <a xlink:href="gamemode__keepaway_8qc_a918f60aac6917ab91d28888e6f0fade3_cgraph_org.svg" target="_base">
           <rect id="button" ry="5" rx="5" y="6" x="6" height="38" width="38"
                fill="#f2f5e9" fill-opacity="0.5" stroke="#606060" stroke-width="1.0"/>
           <path id="arrow"
             d="M 11.500037,31.436501 C 11.940474,20.09759 22.043105,11.32322 32.158766,21.979434 L 37.068811,17.246167 C 37.068811,17.246167 37.088388,32 37.088388,32 L 22.160133,31.978069 C 22.160133,31.978069 26.997745,27.140456 26.997745,27.140456 C 18.528582,18.264221 13.291696,25.230495 11.500037,31.436501 z"
             style="fill:#404040;"/>
          </a>
         </g>
        </svg>
</svg>
