<?xml version="1.0" encoding="UTF-8" standalone="no"?>
<!DOCTYPE svg PUBLIC "-//W3C//DTD SVG 1.1//EN"
 "http://www.w3.org/Graphics/SVG/1.1/DTD/svg11.dtd">
<!-- Generated by graphviz version 2.36.0 (20140111.2315)
 -->
<!-- Title: ka_DropEvent Pages: 1 -->
<svg width="1030pt" height="915pt"
 viewBox="0.00 0.00 1030.00 915.00" xmlns="http://www.w3.org/2000/svg" xmlns:xlink="http://www.w3.org/1999/xlink">
<g id="graph0" class="graph" transform="scale(1 1) rotate(0) translate(4 911)">
<title>ka_DropEvent</title>
<!-- Node1 -->
<g id="node1" class="node"><title>Node1</title>
<polygon fill="#bfbfbf" stroke="black" points="0.5,-351.5 0.5,-370.5 79.5,-370.5 79.5,-351.5 0.5,-351.5"/>
<text text-anchor="middle" x="40" y="-358.5" font-family="Helvetica,sans-Serif" font-size="10.00">ka_DropEvent</text>
</g>
<!-- Node2 -->
<g id="node2" class="node"><title>Node2</title>
<g id="a_node2"><a xlink:href="../../d4/d0c/csprogsdefs_8qc.html#acbb54a239d76062465dccbc6a6c6e464" target="_top" xlink:title="entity">
<polygon fill="none" stroke="black" points="962.5,-697.5 962.5,-716.5 1003.5,-716.5 1003.5,-697.5 962.5,-697.5"/>
<text text-anchor="middle" x="983" y="-704.5" font-family="Helvetica,sans-Serif" font-size="10.00">entity</text>
</a>
</g>
</g>
<!-- Node1&#45;&gt;Node2 -->
<g id="edge1" class="edge"><title>Node1&#45;&gt;Node2</title>
<path fill="none" stroke="midnightblue" d="M41.8711,-370.608C48.4271,-436.665 95.8998,-821 313,-821 313,-821 313,-821 661,-821 772.665,-821 808.124,-824.938 908,-775 932.228,-762.886 954.285,-740.456 967.895,-724.678"/>
<polygon fill="midnightblue" stroke="midnightblue" points="970.828,-726.625 974.546,-716.704 965.453,-722.141 970.828,-726.625"/>
</g>
<!-- Node3 -->
<g id="node3" class="node"><title>Node3</title>
<g id="a_node3"><a xlink:href="../../d3/d5a/gamemode__keepaway_8qc.html#af8f0e411c8293afa501c76d2f9f5f904" target="_top" xlink:title="ka_EventLog">
<polygon fill="none" stroke="black" points="457,-111.5 457,-130.5 531,-130.5 531,-111.5 457,-111.5"/>
<text text-anchor="middle" x="494" y="-118.5" font-family="Helvetica,sans-Serif" font-size="10.00">ka_EventLog</text>
</a>
</g>
</g>
<!-- Node1&#45;&gt;Node3 -->
<g id="edge2" class="edge"><title>Node1&#45;&gt;Node3</title>
<path fill="none" stroke="midnightblue" d="M55.5102,-351.379C70.5101,-341.513 94.6771,-325.838 116,-313 249.844,-232.417 277.384,-199.111 422,-140 429.895,-136.773 438.508,-133.936 446.926,-131.505"/>
<polygon fill="midnightblue" stroke="midnightblue" points="447.942,-134.855 456.662,-128.839 446.093,-128.104 447.942,-134.855"/>
</g>
<!-- Node14 -->
<g id="node14" class="node"><title>Node14</title>
<g id="a_node14"><a xlink:href="../../d3/d5a/gamemode__keepaway_8qc.html#a918f60aac6917ab91d28888e6f0fade3" target="_top" xlink:title="ka_RespawnBall">
<polygon fill="none" stroke="black" points="116,-351.5 116,-370.5 206,-370.5 206,-351.5 116,-351.5"/>
<text text-anchor="middle" x="161" y="-358.5" font-family="Helvetica,sans-Serif" font-size="10.00">ka_RespawnBall</text>
</a>
</g>
</g>
<!-- Node1&#45;&gt;Node14 -->
<g id="edge15" class="edge"><title>Node1&#45;&gt;Node14</title>
<path fill="none" stroke="midnightblue" d="M79.6359,-361C87.9282,-361 96.8396,-361 105.602,-361"/>
<polygon fill="midnightblue" stroke="midnightblue" points="105.775,-364.5 115.775,-361 105.775,-357.5 105.775,-364.5"/>
</g>
<!-- Node34 -->
<g id="node34" class="node"><title>Node34</title>
<g id="a_node34"><a xlink:href="../../d4/dd7/movetypes_8qh.html#a8bf89be84cb481d218ff41140eacff78" target="_top" xlink:title="set_movetype">
<polygon fill="none" stroke="black" points="455,-389.5 455,-408.5 533,-408.5 533,-389.5 455,-389.5"/>
<text text-anchor="middle" x="494" y="-396.5" font-family="Helvetica,sans-Serif" font-size="10.00">set_movetype</text>
</a>
</g>
</g>
<!-- Node1&#45;&gt;Node34 -->
<g id="edge60" class="edge"><title>Node1&#45;&gt;Node34</title>
<path fill="none" stroke="midnightblue" d="M76.3527,-370.538C88.833,-373.751 102.996,-377.222 116,-380 171.593,-391.877 185.365,-397.093 242,-402 305.761,-407.525 322.006,-402.897 386,-402 405.195,-401.731 426.322,-401.191 444.695,-400.642"/>
<polygon fill="midnightblue" stroke="midnightblue" points="444.986,-404.134 454.874,-400.328 444.771,-397.138 444.986,-404.134"/>
</g>
<!-- Node35 -->
<g id="node35" class="node"><title>Node35</title>
<g id="a_node35"><a xlink:href="../../d3/d5a/gamemode__keepaway_8qc.html#ac4c4fbb459ed5ae28fa62d2a8d53a5a7" target="_top" xlink:title="ka_TouchEvent">
<polygon fill="none" stroke="black" points="271.5,-275.5 271.5,-294.5 356.5,-294.5 356.5,-275.5 271.5,-275.5"/>
<text text-anchor="middle" x="314" y="-282.5" font-family="Helvetica,sans-Serif" font-size="10.00">ka_TouchEvent</text>
</a>
</g>
</g>
<!-- Node1&#45;&gt;Node35 -->
<g id="edge59" class="edge"><title>Node1&#45;&gt;Node35</title>
<path fill="none" stroke="midnightblue" d="M75.1736,-351.452C124.336,-337.715 215.035,-312.373 269.101,-297.266"/>
<polygon fill="midnightblue" stroke="midnightblue" points="270.063,-300.631 278.752,-294.569 268.179,-293.889 270.063,-300.631"/>
</g>
<!-- Node4 -->
<g id="node4" class="node"><title>Node4</title>
<g id="a_node4"><a xlink:href="../../dc/dc6/server_2miscfunctions_8qc.html#ad8252ef534185c1cbbde32e65a01a5b3" target="_top" xlink:title="GameLogEcho">
<polygon fill="none" stroke="black" points="619.5,-114.5 619.5,-133.5 700.5,-133.5 700.5,-114.5 619.5,-114.5"/>
<text text-anchor="middle" x="660" y="-121.5" font-family="Helvetica,sans-Serif" font-size="10.00">GameLogEcho</text>
</a>
</g>
</g>
<!-- Node3&#45;&gt;Node4 -->
<g id="edge3" class="edge"><title>Node3&#45;&gt;Node4</title>
<path fill="none" stroke="midnightblue" d="M531.397,-121.666C554.288,-122.085 584.132,-122.63 609.201,-123.089"/>
<polygon fill="midnightblue" stroke="midnightblue" points="609.199,-126.589 619.261,-123.273 609.327,-119.591 609.199,-126.589"/>
</g>
<!-- Node10 -->
<g id="node10" class="node"><title>Node10</title>
<g id="a_node10"><a xlink:href="../../d8/de2/menudefs_8qc.html#abbb0d86741e0056b6c04f7280c185d76" target="_top" xlink:title="ftos">
<polygon fill="none" stroke="black" points="814.5,-0.5 814.5,-19.5 847.5,-19.5 847.5,-0.5 814.5,-0.5"/>
<text text-anchor="middle" x="831" y="-7.5" font-family="Helvetica,sans-Serif" font-size="10.00">ftos</text>
</a>
</g>
</g>
<!-- Node3&#45;&gt;Node10 -->
<g id="edge14" class="edge"><title>Node3&#45;&gt;Node10</title>
<path fill="none" stroke="midnightblue" d="M519.379,-111.451C564.988,-93.7867 666.519,-55.4054 754,-29 770.659,-23.9717 789.65,-19.2236 804.48,-15.7316"/>
<polygon fill="midnightblue" stroke="midnightblue" points="805.498,-19.0888 814.451,-13.4249 803.92,-12.2689 805.498,-19.0888"/>
</g>
<!-- Node11 -->
<g id="node11" class="node"><title>Node11</title>
<g id="a_node11"><a xlink:href="../../d8/de2/menudefs_8qc.html#ad76dc2b2895cd23f21e008f12a686158" target="_top" xlink:title="strcat">
<polygon fill="none" stroke="black" points="810.5,-266.5 810.5,-285.5 851.5,-285.5 851.5,-266.5 810.5,-266.5"/>
<text text-anchor="middle" x="831" y="-273.5" font-family="Helvetica,sans-Serif" font-size="10.00">strcat</text>
</a>
</g>
</g>
<!-- Node3&#45;&gt;Node11 -->
<g id="edge13" class="edge"><title>Node3&#45;&gt;Node11</title>
<path fill="none" stroke="midnightblue" d="M531.091,-128.464C542.499,-131.4 554.995,-135.229 566,-140 656.295,-179.146 663.386,-218.6 754,-257 768.813,-263.277 786.163,-267.81 800.543,-270.87"/>
<polygon fill="midnightblue" stroke="midnightblue" points="799.918,-274.315 810.41,-272.842 801.29,-267.45 799.918,-274.315"/>
</g>
<!-- Node5 -->
<g id="node5" class="node"><title>Node5</title>
<g id="a_node5"><a xlink:href="../../d8/de2/menudefs_8qc.html#a0b350379da8a7002dee40a3598bf33c3" target="_top" xlink:title="cvar_set">
<polygon fill="none" stroke="black" points="804,-228.5 804,-247.5 858,-247.5 858,-228.5 804,-228.5"/>
<text text-anchor="middle" x="831" y="-235.5" font-family="Helvetica,sans-Serif" font-size="10.00">cvar_set</text>
</a>
</g>
</g>
<!-- Node4&#45;&gt;Node5 -->
<g id="edge4" class="edge"><title>Node4&#45;&gt;Node5</title>
<path fill="none" stroke="midnightblue" d="M669.247,-133.673C688.021,-155.479 733.876,-207.464 754,-219 766.01,-225.885 780.485,-230.298 793.566,-233.118"/>
<polygon fill="midnightblue" stroke="midnightblue" points="793.204,-236.612 803.684,-235.053 794.519,-229.737 793.204,-236.612"/>
</g>
<!-- Node6 -->
<g id="node6" class="node"><title>Node6</title>
<g id="a_node6"><a xlink:href="../../db/d9b/server_2player_8qc.html#a0390f6703ace29f61655694b8821d84a" target="_top" xlink:title="print(), but only print if the server is not local ">
<polygon fill="none" stroke="black" points="789.5,-38.5 789.5,-57.5 872.5,-57.5 872.5,-38.5 789.5,-38.5"/>
<text text-anchor="middle" x="831" y="-45.5" font-family="Helvetica,sans-Serif" font-size="10.00">dedicated_print</text>
</a>
</g>
</g>
<!-- Node4&#45;&gt;Node6 -->
<g id="edge5" class="edge"><title>Node4&#45;&gt;Node6</title>
<path fill="none" stroke="midnightblue" d="M673.862,-114.344C691.204,-101.753 723.443,-79.8264 754,-67 762.109,-63.5961 770.971,-60.6996 779.687,-58.2713"/>
<polygon fill="midnightblue" stroke="midnightblue" points="780.63,-61.6426 789.419,-55.7265 778.859,-54.8703 780.63,-61.6426"/>
</g>
<!-- Node8 -->
<g id="node8" class="node"><title>Node8</title>
<g id="a_node8"><a xlink:href="../../d8/de2/menudefs_8qc.html#a5231f4ff2813f7de782b67d25a9e4cf9" target="_top" xlink:title="fopen">
<polygon fill="none" stroke="black" points="810.5,-190.5 810.5,-209.5 851.5,-209.5 851.5,-190.5 810.5,-190.5"/>
<text text-anchor="middle" x="831" y="-197.5" font-family="Helvetica,sans-Serif" font-size="10.00">fopen</text>
</a>
</g>
</g>
<!-- Node4&#45;&gt;Node8 -->
<g id="edge7" class="edge"><title>Node4&#45;&gt;Node8</title>
<path fill="none" stroke="midnightblue" d="M673.862,-133.656C691.204,-146.247 723.443,-168.174 754,-181 768.834,-187.227 786.186,-191.756 800.562,-194.826"/>
<polygon fill="midnightblue" stroke="midnightblue" points="799.931,-198.27 810.425,-196.808 801.31,-191.407 799.931,-198.27"/>
</g>
<!-- Node9 -->
<g id="node9" class="node"><title>Node9</title>
<g id="a_node9"><a xlink:href="../../d8/de2/menudefs_8qc.html#a33a318a59e2648521862f24200a821df" target="_top" xlink:title="fputs">
<polygon fill="none" stroke="black" points="812,-152.5 812,-171.5 850,-171.5 850,-152.5 812,-152.5"/>
<text text-anchor="middle" x="831" y="-159.5" font-family="Helvetica,sans-Serif" font-size="10.00">fputs</text>
</a>
</g>
</g>
<!-- Node4&#45;&gt;Node9 -->
<g id="edge8" class="edge"><title>Node4&#45;&gt;Node9</title>
<path fill="none" stroke="midnightblue" d="M700.623,-132.909C731.766,-139.912 774.367,-149.491 802.032,-155.711"/>
<polygon fill="midnightblue" stroke="midnightblue" points="801.325,-159.14 811.849,-157.919 802.86,-152.31 801.325,-159.14"/>
</g>
<!-- Node4&#45;&gt;Node10 -->
<g id="edge9" class="edge"><title>Node4&#45;&gt;Node10</title>
<path fill="none" stroke="midnightblue" d="M670.001,-114.219C691.314,-91.148 743.838,-34.8253 754,-29 769.287,-20.2372 788.565,-15.4775 803.88,-12.9135"/>
<polygon fill="midnightblue" stroke="midnightblue" points="804.826,-16.3127 814.218,-11.4087 803.818,-9.38575 804.826,-16.3127"/>
</g>
<!-- Node4&#45;&gt;Node11 -->
<g id="edge10" class="edge"><title>Node4&#45;&gt;Node11</title>
<path fill="none" stroke="midnightblue" d="M670.652,-133.536C682.656,-145.708 703.351,-167.743 718,-189 737.405,-217.157 727.079,-235.914 754,-257 767.136,-267.289 785.137,-272.08 800.323,-274.279"/>
<polygon fill="midnightblue" stroke="midnightblue" points="799.958,-277.76 810.292,-275.424 800.756,-270.806 799.958,-277.76"/>
</g>
<!-- Node12 -->
<g id="node12" class="node"><title>Node12</title>
<g id="a_node12"><a xlink:href="../../d8/de2/menudefs_8qc.html#a274680f571a231ddf29421b93d434bfa" target="_top" xlink:title="strlen">
<polygon fill="none" stroke="black" points="810.5,-114.5 810.5,-133.5 851.5,-133.5 851.5,-114.5 810.5,-114.5"/>
<text text-anchor="middle" x="831" y="-121.5" font-family="Helvetica,sans-Serif" font-size="10.00">strlen</text>
</a>
</g>
</g>
<!-- Node4&#45;&gt;Node12 -->
<g id="edge11" class="edge"><title>Node4&#45;&gt;Node12</title>
<path fill="none" stroke="midnightblue" d="M700.623,-124C730.94,-124 772.115,-124 799.799,-124"/>
<polygon fill="midnightblue" stroke="midnightblue" points="800.054,-127.5 810.054,-124 800.054,-120.5 800.054,-127.5"/>
</g>
<!-- Node13 -->
<g id="node13" class="node"><title>Node13</title>
<g id="a_node13"><a xlink:href="../../d8/de2/menudefs_8qc.html#a40f6c65c8bbcfa51df783f2809a2502b" target="_top" xlink:title="substring">
<polygon fill="none" stroke="black" points="803,-76.5 803,-95.5 859,-95.5 859,-76.5 803,-76.5"/>
<text text-anchor="middle" x="831" y="-83.5" font-family="Helvetica,sans-Serif" font-size="10.00">substring</text>
</a>
</g>
</g>
<!-- Node4&#45;&gt;Node13 -->
<g id="edge12" class="edge"><title>Node4&#45;&gt;Node13</title>
<path fill="none" stroke="midnightblue" d="M700.623,-115.091C728.479,-108.827 765.501,-100.503 792.803,-94.3637"/>
<polygon fill="midnightblue" stroke="midnightblue" points="793.763,-97.7354 802.752,-92.1268 792.228,-90.9059 793.763,-97.7354"/>
</g>
<!-- Node7 -->
<g id="node7" class="node"><title>Node7</title>
<g id="a_node7"><a xlink:href="../../d8/de2/menudefs_8qc.html#acf9c719e766113bad854907e87812e98" target="_top" xlink:title="print">
<polygon fill="none" stroke="black" points="965.5,-38.5 965.5,-57.5 1000.5,-57.5 1000.5,-38.5 965.5,-38.5"/>
<text text-anchor="middle" x="983" y="-45.5" font-family="Helvetica,sans-Serif" font-size="10.00">print</text>
</a>
</g>
</g>
<!-- Node6&#45;&gt;Node7 -->
<g id="edge6" class="edge"><title>Node6&#45;&gt;Node7</title>
<path fill="none" stroke="midnightblue" d="M872.592,-48C898.808,-48 932.184,-48 955.14,-48"/>
<polygon fill="midnightblue" stroke="midnightblue" points="955.192,-51.5001 965.192,-48 955.192,-44.5001 955.192,-51.5001"/>
</g>
<!-- Node14&#45;&gt;Node2 -->
<g id="edge23" class="edge"><title>Node14&#45;&gt;Node2</title>
<path fill="none" stroke="midnightblue" d="M162.234,-370.547C163.639,-409.353 173.462,-557.588 242,-650 317.207,-751.404 366.751,-783 493,-783 493,-783 493,-783 661,-783 772.208,-783 801.98,-776.571 908,-743 924.932,-737.639 942.869,-728.995 956.843,-721.521"/>
<polygon fill="midnightblue" stroke="midnightblue" points="958.743,-724.471 965.822,-716.589 955.372,-718.336 958.743,-724.471"/>
</g>
<!-- Node15 -->
<g id="node15" class="node"><title>Node15</title>
<g id="a_node15"><a xlink:href="../../d4/d0c/csprogsdefs_8qc.html#a4f0b78b1785821ba47129edb68e70f9e" target="_top" xlink:title="vector">
<polygon fill="none" stroke="black" points="961,-330.5 961,-349.5 1005,-349.5 1005,-330.5 961,-330.5"/>
<text text-anchor="middle" x="983" y="-337.5" font-family="Helvetica,sans-Serif" font-size="10.00">vector</text>
</a>
</g>
</g>
<!-- Node14&#45;&gt;Node15 -->
<g id="edge16" class="edge"><title>Node14&#45;&gt;Node15</title>
<path fill="none" stroke="midnightblue" d="M195.178,-351.411C209.457,-347.73 226.419,-343.948 242,-342 467.825,-313.761 526.424,-335.778 754,-334 822.442,-333.465 839.612,-331.232 908,-334 922.125,-334.572 937.73,-335.755 950.954,-336.921"/>
<polygon fill="midnightblue" stroke="midnightblue" points="950.698,-340.412 960.976,-337.84 951.337,-333.441 950.698,-340.412"/>
</g>
<!-- Node16 -->
<g id="node16" class="node"><title>Node16</title>
<g id="a_node16"><a xlink:href="../../dc/dc6/server_2miscfunctions_8qc.html#aa93bfe50de097cc229818a2822f45a45" target="_top" xlink:title="MoveToRandomMapLocation">
<polygon fill="none" stroke="black" points="242,-351.5 242,-370.5 386,-370.5 386,-351.5 242,-351.5"/>
<text text-anchor="middle" x="314" y="-358.5" font-family="Helvetica,sans-Serif" font-size="10.00">MoveToRandomMapLocation</text>
</a>
</g>
</g>
<!-- Node14&#45;&gt;Node16 -->
<g id="edge17" class="edge"><title>Node14&#45;&gt;Node16</title>
<path fill="none" stroke="midnightblue" d="M206.081,-361C214.24,-361 222.995,-361 231.854,-361"/>
<polygon fill="midnightblue" stroke="midnightblue" points="231.874,-364.5 241.874,-361 231.874,-357.5 231.874,-364.5"/>
</g>
<!-- Node20 -->
<g id="node20" class="node"><title>Node20</title>
<g id="a_node20"><a xlink:href="../../d0/d41/spawnpoints_8qc.html#a71804b6dc31803f43afa105a34e35d04" target="_top" xlink:title="SelectSpawnPoint">
<polygon fill="none" stroke="black" points="265.5,-621.5 265.5,-640.5 362.5,-640.5 362.5,-621.5 265.5,-621.5"/>
<text text-anchor="middle" x="314" y="-628.5" font-family="Helvetica,sans-Serif" font-size="10.00">SelectSpawnPoint</text>
</a>
</g>
</g>
<!-- Node14&#45;&gt;Node20 -->
<g id="edge24" class="edge"><title>Node14&#45;&gt;Node20</title>
<path fill="none" stroke="midnightblue" d="M167.374,-370.609C189.387,-409.97 272.897,-559.293 302.509,-612.242"/>
<polygon fill="midnightblue" stroke="midnightblue" points="299.597,-614.204 307.532,-621.224 305.706,-610.787 299.597,-614.204"/>
</g>
<!-- Node14&#45;&gt;Node34 -->
<g id="edge46" class="edge"><title>Node14&#45;&gt;Node34</title>
<path fill="none" stroke="midnightblue" d="M196.811,-370.529C210.763,-374.016 227.048,-377.673 242,-380 312.091,-390.906 394.207,-395.621 444.921,-397.611"/>
<polygon fill="midnightblue" stroke="midnightblue" points="444.817,-401.109 454.941,-397.984 445.078,-394.114 444.817,-401.109"/>
</g>
<!-- Node14&#45;&gt;Node35 -->
<g id="edge47" class="edge"><title>Node14&#45;&gt;Node35</title>
<path fill="none" stroke="midnightblue" d="M168.309,-351.142C181.409,-337.117 212.781,-314.157 242,-300 248.215,-296.989 254.905,-294.194 261.606,-291.737"/>
<polygon fill="midnightblue" stroke="midnightblue" points="263.051,-294.942 271.378,-288.391 260.783,-288.319 263.051,-294.942"/>
</g>
<!-- Node17 -->
<g id="node17" class="node"><title>Node17</title>
<g id="a_node17"><a xlink:href="../../dc/dc6/server_2miscfunctions_8qc.html#a980a6f943699026265182e645ad4d8ef" target="_top" xlink:title="MoveToRandomLocationWithin\lBounds">
<polygon fill="none" stroke="black" points="754.5,-344 754.5,-374 907.5,-374 907.5,-344 754.5,-344"/>
<text text-anchor="start" x="762.5" y="-362" font-family="Helvetica,sans-Serif" font-size="10.00">MoveToRandomLocationWithin</text>
<text text-anchor="middle" x="831" y="-351" font-family="Helvetica,sans-Serif" font-size="10.00">Bounds</text>
</a>
</g>
</g>
<!-- Node16&#45;&gt;Node17 -->
<g id="edge18" class="edge"><title>Node16&#45;&gt;Node17</title>
<path fill="none" stroke="midnightblue" d="M386.068,-360.724C479.571,-360.361 643.763,-359.723 744.116,-359.334"/>
<polygon fill="midnightblue" stroke="midnightblue" points="744.238,-362.833 754.225,-359.294 744.211,-355.833 744.238,-362.833"/>
</g>
<!-- Node17&#45;&gt;Node2 -->
<g id="edge20" class="edge"><title>Node17&#45;&gt;Node2</title>
<path fill="none" stroke="midnightblue" d="M888.801,-374.101C896.022,-377.994 902.719,-382.877 908,-389 927.949,-412.128 966.76,-621.719 978.533,-687.406"/>
<polygon fill="midnightblue" stroke="midnightblue" points="975.095,-688.067 980.295,-697.298 981.986,-686.839 975.095,-688.067"/>
</g>
<!-- Node17&#45;&gt;Node15 -->
<g id="edge22" class="edge"><title>Node17&#45;&gt;Node15</title>
<path fill="none" stroke="midnightblue" d="M907.879,-349.389C923.093,-347.462 938.259,-345.54 950.872,-343.943"/>
<polygon fill="midnightblue" stroke="midnightblue" points="951.331,-347.413 960.812,-342.684 950.451,-340.468 951.331,-347.413"/>
</g>
<!-- Node18 -->
<g id="node18" class="node"><title>Node18</title>
<g id="a_node18"><a xlink:href="../../d4/d0c/csprogsdefs_8qc.html#a94c5b969ccc333b040b402d69d3338a2" target="_top" xlink:title="checkpvs">
<polygon fill="none" stroke="black" points="953.5,-368.5 953.5,-387.5 1012.5,-387.5 1012.5,-368.5 953.5,-368.5"/>
<text text-anchor="middle" x="983" y="-375.5" font-family="Helvetica,sans-Serif" font-size="10.00">checkpvs</text>
</a>
</g>
</g>
<!-- Node17&#45;&gt;Node18 -->
<g id="edge19" class="edge"><title>Node17&#45;&gt;Node18</title>
<path fill="none" stroke="midnightblue" d="M907.879,-368.611C920.214,-370.174 932.517,-371.732 943.454,-373.117"/>
<polygon fill="midnightblue" stroke="midnightblue" points="943.117,-376.603 953.477,-374.387 943.996,-369.658 943.117,-376.603"/>
</g>
<!-- Node19 -->
<g id="node19" class="node"><title>Node19</title>
<g id="a_node19"><a xlink:href="../../d8/de2/menudefs_8qc.html#a663ea6aa3c4923b3e065cf91cc319f1b" target="_top" xlink:title="random">
<polygon fill="none" stroke="black" points="958.5,-469.5 958.5,-488.5 1007.5,-488.5 1007.5,-469.5 958.5,-469.5"/>
<text text-anchor="middle" x="983" y="-476.5" font-family="Helvetica,sans-Serif" font-size="10.00">random</text>
</a>
</g>
</g>
<!-- Node17&#45;&gt;Node19 -->
<g id="edge21" class="edge"><title>Node17&#45;&gt;Node19</title>
<path fill="none" stroke="midnightblue" d="M880.949,-374.07C890.386,-378.125 899.858,-383.072 908,-389 935.106,-408.734 958.133,-440.643 971,-460.688"/>
<polygon fill="midnightblue" stroke="midnightblue" points="968.062,-462.592 976.325,-469.224 974.001,-458.887 968.062,-462.592"/>
</g>
<!-- Node20&#45;&gt;Node2 -->
<g id="edge25" class="edge"><title>Node20&#45;&gt;Node2</title>
<path fill="none" stroke="midnightblue" d="M362.72,-632.253C464.037,-635.605 707.754,-647.344 908,-686 922.942,-688.884 939.244,-693.362 952.735,-697.443"/>
<polygon fill="midnightblue" stroke="midnightblue" points="951.846,-700.832 962.434,-700.453 953.921,-694.146 951.846,-700.832"/>
</g>
<!-- Node20&#45;&gt;Node19 -->
<g id="edge44" class="edge"><title>Node20&#45;&gt;Node19</title>
<path fill="none" stroke="midnightblue" d="M332.328,-621.391C353.111,-610.186 389.253,-591.711 422,-580 565.113,-528.818 604.016,-522.611 754,-498 822.401,-486.776 903.496,-482.025 948.193,-480.138"/>
<polygon fill="midnightblue" stroke="midnightblue" points="948.363,-483.634 958.216,-479.738 948.084,-476.64 948.363,-483.634"/>
</g>
<!-- Node21 -->
<g id="node21" class="node"><title>Node21</title>
<g id="a_node21"><a xlink:href="../../d8/de2/menudefs_8qc.html#a53c4a8e7afd17cad92bc00adba96bb78" target="_top" xlink:title="find">
<polygon fill="none" stroke="black" points="478,-735.5 478,-754.5 510,-754.5 510,-735.5 478,-735.5"/>
<text text-anchor="middle" x="494" y="-742.5" font-family="Helvetica,sans-Serif" font-size="10.00">find</text>
</a>
</g>
</g>
<!-- Node20&#45;&gt;Node21 -->
<g id="edge26" class="edge"><title>Node20&#45;&gt;Node21</title>
<path fill="none" stroke="midnightblue" d="M323.065,-640.701C339.589,-659.938 379.345,-703.041 422,-726 436.236,-733.663 453.773,-738.394 467.855,-741.22"/>
<polygon fill="midnightblue" stroke="midnightblue" points="467.376,-744.69 477.839,-743.025 468.622,-737.801 467.376,-744.69"/>
</g>
<!-- Node22 -->
<g id="node22" class="node"><title>Node22</title>
<g id="a_node22"><a xlink:href="../../d0/d41/spawnpoints_8qc.html#aaac98f481535c16238cdfcb66cbbf625" target="_top" xlink:title="Spawn_WeightedPoint">
<polygon fill="none" stroke="black" points="602,-554.5 602,-573.5 718,-573.5 718,-554.5 602,-554.5"/>
<text text-anchor="middle" x="660" y="-561.5" font-family="Helvetica,sans-Serif" font-size="10.00">Spawn_WeightedPoint</text>
</a>
</g>
</g>
<!-- Node20&#45;&gt;Node22 -->
<g id="edge27" class="edge"><title>Node20&#45;&gt;Node22</title>
<path fill="none" stroke="midnightblue" d="M362.832,-621.684C424.906,-609.594 533.18,-588.506 600.203,-575.452"/>
<polygon fill="midnightblue" stroke="midnightblue" points="601.04,-578.855 610.187,-573.507 599.702,-571.984 601.04,-578.855"/>
</g>
<!-- Node27 -->
<g id="node27" class="node"><title>Node27</title>
<g id="a_node27"><a xlink:href="../../d0/d41/spawnpoints_8qc.html#ac6bf8417de66cc27e1aad493335d2901" target="_top" xlink:title="Spawn_FilterOutBadSpots">
<polygon fill="none" stroke="black" points="428,-659.5 428,-678.5 560,-678.5 560,-659.5 428,-659.5"/>
<text text-anchor="middle" x="494" y="-666.5" font-family="Helvetica,sans-Serif" font-size="10.00">Spawn_FilterOutBadSpots</text>
</a>
</g>
</g>
<!-- Node20&#45;&gt;Node27 -->
<g id="edge34" class="edge"><title>Node20&#45;&gt;Node27</title>
<path fill="none" stroke="midnightblue" d="M359.917,-640.589C383.829,-645.694 413.421,-652.011 438.625,-657.392"/>
<polygon fill="midnightblue" stroke="midnightblue" points="437.896,-660.815 448.406,-659.48 439.357,-653.969 437.896,-660.815"/>
</g>
<!-- Node33 -->
<g id="node33" class="node"><title>Node33</title>
<g id="a_node33"><a xlink:href="../../d7/d97/g__world_8qh.html#af10c6acabd38f4b2b5eb6298e32a9b64" target="_top" xlink:title="GotoNextMap">
<polygon fill="none" stroke="black" points="455.5,-697.5 455.5,-716.5 532.5,-716.5 532.5,-697.5 455.5,-697.5"/>
<text text-anchor="middle" x="494" y="-704.5" font-family="Helvetica,sans-Serif" font-size="10.00">GotoNextMap</text>
</a>
</g>
</g>
<!-- Node20&#45;&gt;Node33 -->
<g id="edge45" class="edge"><title>Node20&#45;&gt;Node33</title>
<path fill="none" stroke="midnightblue" d="M330.414,-640.664C350.741,-653.064 387.928,-674.57 422,-688 429.429,-690.928 437.468,-693.56 445.376,-695.866"/>
<polygon fill="midnightblue" stroke="midnightblue" points="444.694,-699.309 455.266,-698.609 446.565,-692.563 444.694,-699.309"/>
</g>
<!-- Node22&#45;&gt;Node2 -->
<g id="edge28" class="edge"><title>Node22&#45;&gt;Node2</title>
<path fill="none" stroke="midnightblue" d="M700.771,-554.459C752.628,-544.358 844.223,-534.743 908,-574 949.485,-599.536 969.597,-657.269 977.605,-687.582"/>
<polygon fill="midnightblue" stroke="midnightblue" points="974.233,-688.527 980.024,-697.399 981.029,-686.852 974.233,-688.527"/>
</g>
<!-- Node23 -->
<g id="node23" class="node"><title>Node23</title>
<g id="a_node23"><a xlink:href="../../dc/d95/random_8qc.html#a2d70d358bbf6aa8252f2aebc596d67c1" target="_top" xlink:title="RandomSelection_Init">
<polygon fill="none" stroke="black" points="774.5,-621.5 774.5,-640.5 887.5,-640.5 887.5,-621.5 774.5,-621.5"/>
<text text-anchor="middle" x="831" y="-628.5" font-family="Helvetica,sans-Serif" font-size="10.00">RandomSelection_Init</text>
</a>
</g>
</g>
<!-- Node22&#45;&gt;Node23 -->
<g id="edge29" class="edge"><title>Node22&#45;&gt;Node23</title>
<path fill="none" stroke="midnightblue" d="M676.938,-573.679C695.054,-584.332 725.78,-601.354 754,-612 760.498,-614.451 767.427,-616.68 774.357,-618.679"/>
<polygon fill="midnightblue" stroke="midnightblue" points="773.892,-622.18 784.461,-621.44 775.738,-615.428 773.892,-622.18"/>
</g>
<!-- Node24 -->
<g id="node24" class="node"><title>Node24</title>
<g id="a_node24"><a xlink:href="../../dc/d95/random_8qc.html#a95527c538e7d69ffdd2779998fdabb42" target="_top" xlink:title="RandomSelection_Add">
<polygon fill="none" stroke="black" points="773,-507.5 773,-526.5 889,-526.5 889,-507.5 773,-507.5"/>
<text text-anchor="middle" x="831" y="-514.5" font-family="Helvetica,sans-Serif" font-size="10.00">RandomSelection_Add</text>
</a>
</g>
</g>
<!-- Node22&#45;&gt;Node24 -->
<g id="edge30" class="edge"><title>Node22&#45;&gt;Node24</title>
<path fill="none" stroke="midnightblue" d="M695.2,-554.489C721.342,-547.219 757.583,-537.14 785.904,-529.263"/>
<polygon fill="midnightblue" stroke="midnightblue" points="786.865,-532.629 795.562,-526.578 784.989,-525.885 786.865,-532.629"/>
</g>
<!-- Node25 -->
<g id="node25" class="node"><title>Node25</title>
<g id="a_node25"><a xlink:href="../../d8/de2/menudefs_8qc.html#a0476dbfc79dac7770dfaa5c8d780a87d" target="_top" xlink:title="pow">
<polygon fill="none" stroke="black" points="813.5,-431.5 813.5,-450.5 848.5,-450.5 848.5,-431.5 813.5,-431.5"/>
<text text-anchor="middle" x="831" y="-438.5" font-family="Helvetica,sans-Serif" font-size="10.00">pow</text>
</a>
</g>
</g>
<!-- Node22&#45;&gt;Node25 -->
<g id="edge32" class="edge"><title>Node22&#45;&gt;Node25</title>
<path fill="none" stroke="midnightblue" d="M674.261,-554.348C703.385,-533.152 773.154,-482.373 808.579,-456.59"/>
<polygon fill="midnightblue" stroke="midnightblue" points="810.775,-459.321 816.8,-450.607 806.656,-453.662 810.775,-459.321"/>
</g>
<!-- Node26 -->
<g id="node26" class="node"><title>Node26</title>
<g id="a_node26"><a xlink:href="../../d8/de2/menudefs_8qc.html#a3846d117b360dccec575f96988cf3bb7" target="_top" xlink:title="bound">
<polygon fill="none" stroke="black" points="809.5,-583.5 809.5,-602.5 852.5,-602.5 852.5,-583.5 809.5,-583.5"/>
<text text-anchor="middle" x="831" y="-590.5" font-family="Helvetica,sans-Serif" font-size="10.00">bound</text>
</a>
</g>
</g>
<!-- Node22&#45;&gt;Node26 -->
<g id="edge33" class="edge"><title>Node22&#45;&gt;Node26</title>
<path fill="none" stroke="midnightblue" d="M716.805,-573.576C744.319,-578.297 776.439,-583.809 799.42,-587.753"/>
<polygon fill="midnightblue" stroke="midnightblue" points="798.839,-591.204 809.287,-589.446 800.023,-584.305 798.839,-591.204"/>
</g>
<!-- Node24&#45;&gt;Node19 -->
<g id="edge31" class="edge"><title>Node24&#45;&gt;Node19</title>
<path fill="none" stroke="midnightblue" d="M869.851,-507.411C894.044,-501.282 925.136,-493.406 948.444,-487.501"/>
<polygon fill="midnightblue" stroke="midnightblue" points="949.398,-490.87 958.232,-485.021 947.679,-484.084 949.398,-490.87"/>
</g>
<!-- Node27&#45;&gt;Node2 -->
<g id="edge35" class="edge"><title>Node27&#45;&gt;Node2</title>
<path fill="none" stroke="midnightblue" d="M560.174,-674.085C666.865,-682.41 874.663,-698.625 952.029,-704.661"/>
<polygon fill="midnightblue" stroke="midnightblue" points="951.813,-708.155 962.055,-705.444 952.358,-701.176 951.813,-708.155"/>
</g>
<!-- Node28 -->
<g id="node28" class="node"><title>Node28</title>
<g id="a_node28"><a xlink:href="../../d0/d41/spawnpoints_8qc.html#a84d4f6b3e07681dab4898e5c42966698" target="_top" xlink:title="Spawn_ScoreAll">
<polygon fill="none" stroke="black" points="615.5,-735.5 615.5,-754.5 704.5,-754.5 704.5,-735.5 615.5,-735.5"/>
<text text-anchor="middle" x="660" y="-742.5" font-family="Helvetica,sans-Serif" font-size="10.00">Spawn_ScoreAll</text>
</a>
</g>
</g>
<!-- Node27&#45;&gt;Node28 -->
<g id="edge36" class="edge"><title>Node27&#45;&gt;Node28</title>
<path fill="none" stroke="midnightblue" d="M543.199,-678.522C551.073,-681.02 558.952,-684.134 566,-688 585.03,-698.439 583.729,-709.283 602,-721 608.012,-724.855 614.748,-728.328 621.426,-731.355"/>
<polygon fill="midnightblue" stroke="midnightblue" points="620.505,-734.767 631.077,-735.466 623.248,-728.327 620.505,-734.767"/>
</g>
<!-- Node28&#45;&gt;Node2 -->
<g id="edge37" class="edge"><title>Node28&#45;&gt;Node2</title>
<path fill="none" stroke="midnightblue" d="M704.868,-741.938C754.362,-738.204 837.2,-731.116 908,-721 922.605,-718.913 938.712,-715.946 952.159,-713.28"/>
<polygon fill="midnightblue" stroke="midnightblue" points="953.186,-716.643 962.293,-711.229 951.798,-709.782 953.186,-716.643"/>
</g>
<!-- Node29 -->
<g id="node29" class="node"><title>Node29</title>
<g id="a_node29"><a xlink:href="../../d0/d41/spawnpoints_8qc.html#adb306ba6ed0866d22bb8f9318d8c4488" target="_top" xlink:title="Spawn_Score">
<polygon fill="none" stroke="black" points="792.5,-849.5 792.5,-868.5 869.5,-868.5 869.5,-849.5 792.5,-849.5"/>
<text text-anchor="middle" x="831" y="-856.5" font-family="Helvetica,sans-Serif" font-size="10.00">Spawn_Score</text>
</a>
</g>
</g>
<!-- Node28&#45;&gt;Node29 -->
<g id="edge38" class="edge"><title>Node28&#45;&gt;Node29</title>
<path fill="none" stroke="midnightblue" d="M675.118,-754.523C704.247,-774.173 771.255,-819.373 806.829,-843.37"/>
<polygon fill="midnightblue" stroke="midnightblue" points="805.316,-846.571 815.564,-849.262 809.231,-840.768 805.316,-846.571"/>
</g>
<!-- Node29&#45;&gt;Node2 -->
<g id="edge41" class="edge"><title>Node29&#45;&gt;Node2</title>
<path fill="none" stroke="midnightblue" d="M869.858,-852.879C882.972,-849.327 897.1,-843.747 908,-835 944.054,-806.067 966.003,-754.495 975.85,-726.456"/>
<polygon fill="midnightblue" stroke="midnightblue" points="979.28,-727.235 979.136,-716.642 972.642,-725.013 979.28,-727.235"/>
</g>
<!-- Node29&#45;&gt;Node15 -->
<g id="edge40" class="edge"><title>Node29&#45;&gt;Node15</title>
<path fill="none" stroke="midnightblue" d="M836.454,-849.239C849.676,-819.828 888.958,-729.209 908,-650 923.231,-586.645 906.399,-412.216 944,-359 946.171,-355.928 948.985,-353.326 952.099,-351.128"/>
<polygon fill="midnightblue" stroke="midnightblue" points="953.823,-354.174 960.812,-346.211 950.383,-348.078 953.823,-354.174"/>
</g>
<!-- Node30 -->
<g id="node30" class="node"><title>Node30</title>
<g id="a_node30"><a xlink:href="../../d8/de2/menudefs_8qc.html#a79d61ab0e4126e02af8bc36d432aedaf" target="_top" xlink:title="vlen">
<polygon fill="none" stroke="black" points="965.5,-811.5 965.5,-830.5 1000.5,-830.5 1000.5,-811.5 965.5,-811.5"/>
<text text-anchor="middle" x="983" y="-818.5" font-family="Helvetica,sans-Serif" font-size="10.00">vlen</text>
</a>
</g>
</g>
<!-- Node29&#45;&gt;Node30 -->
<g id="edge39" class="edge"><title>Node29&#45;&gt;Node30</title>
<path fill="none" stroke="midnightblue" d="M869.851,-849.411C896.614,-842.631 931.821,-833.712 955.592,-827.69"/>
<polygon fill="midnightblue" stroke="midnightblue" points="956.495,-831.072 965.329,-825.223 954.776,-824.286 956.495,-831.072"/>
</g>
<!-- Node31 -->
<g id="node31" class="node"><title>Node31</title>
<g id="a_node31"><a xlink:href="../../d1/d07/framework_8qc.html#aef346455b3c2def821423a45227b45dd" target="_top" xlink:title="LOG_TRACE">
<polygon fill="none" stroke="black" points="944.5,-887.5 944.5,-906.5 1021.5,-906.5 1021.5,-887.5 944.5,-887.5"/>
<text text-anchor="middle" x="983" y="-894.5" font-family="Helvetica,sans-Serif" font-size="10.00">LOG_TRACE</text>
</a>
</g>
</g>
<!-- Node29&#45;&gt;Node31 -->
<g id="edge42" class="edge"><title>Node29&#45;&gt;Node31</title>
<path fill="none" stroke="midnightblue" d="M869.851,-868.589C889.467,-873.558 913.619,-879.677 934.479,-884.961"/>
<polygon fill="midnightblue" stroke="midnightblue" points="933.868,-888.417 944.421,-887.48 935.587,-881.631 933.868,-888.417"/>
</g>
<!-- Node32 -->
<g id="node32" class="node"><title>Node32</title>
<g id="a_node32"><a xlink:href="../../d8/de2/menudefs_8qc.html#ab0df318f2dece7f798ff4061cd67f9d2" target="_top" xlink:title="vtos">
<polygon fill="none" stroke="black" points="965.5,-849.5 965.5,-868.5 1000.5,-868.5 1000.5,-849.5 965.5,-849.5"/>
<text text-anchor="middle" x="983" y="-856.5" font-family="Helvetica,sans-Serif" font-size="10.00">vtos</text>
</a>
</g>
</g>
<!-- Node29&#45;&gt;Node32 -->
<g id="edge43" class="edge"><title>Node29&#45;&gt;Node32</title>
<path fill="none" stroke="midnightblue" d="M869.851,-859C896.494,-859 931.505,-859 955.271,-859"/>
<polygon fill="midnightblue" stroke="midnightblue" points="955.329,-862.5 965.329,-859 955.329,-855.5 955.329,-862.5"/>
</g>
<!-- Node35&#45;&gt;Node3 -->
<g id="edge56" class="edge"><title>Node35&#45;&gt;Node3</title>
<path fill="none" stroke="midnightblue" d="M323.744,-275.154C337.597,-259.367 365.158,-227.196 386,-198 403.628,-173.307 397.636,-158.08 422,-140 429.296,-134.586 438.026,-130.714 446.828,-127.944"/>
<polygon fill="midnightblue" stroke="midnightblue" points="447.987,-131.257 456.724,-125.263 446.156,-124.5 447.987,-131.257"/>
</g>
<!-- Node35&#45;&gt;Node14 -->
<g id="edge48" class="edge"><title>Node35&#45;&gt;Node14</title>
<path fill="none" stroke="midnightblue" d="M300.83,-294.52C286.393,-301.024 261.789,-308.412 242,-318 225.491,-325.999 208.295,-336.808 194.095,-345.771"/>
<polygon fill="midnightblue" stroke="midnightblue" points="191.834,-343.058 185.234,-351.346 195.562,-348.983 191.834,-343.058"/>
</g>
<!-- Node35&#45;&gt;Node34 -->
<g id="edge49" class="edge"><title>Node35&#45;&gt;Node34</title>
<path fill="none" stroke="midnightblue" d="M329.87,-294.523C360.681,-314.256 431.728,-359.758 469.072,-383.675"/>
<polygon fill="midnightblue" stroke="midnightblue" points="467.486,-386.816 477.795,-389.262 471.262,-380.921 467.486,-386.816"/>
</g>
<!-- Node36 -->
<g id="node36" class="node"><title>Node36</title>
<g id="a_node36"><a xlink:href="../../d1/df7/nil_8qh.html#a48cdb42ec925da155dd105031cac3f44" target="_top" xlink:title="func_null">
<polygon fill="none" stroke="black" points="466,-199.5 466,-218.5 522,-218.5 522,-199.5 466,-199.5"/>
<text text-anchor="middle" x="494" y="-206.5" font-family="Helvetica,sans-Serif" font-size="10.00">func_null</text>
</a>
</g>
</g>
<!-- Node35&#45;&gt;Node36 -->
<g id="edge50" class="edge"><title>Node35&#45;&gt;Node36</title>
<path fill="none" stroke="midnightblue" d="M332.858,-275.458C353.847,-264.446 389.896,-246.165 422,-233 432.876,-228.54 444.918,-224.239 455.949,-220.54"/>
<polygon fill="midnightblue" stroke="midnightblue" points="457.325,-223.772 465.732,-217.325 455.139,-217.122 457.325,-223.772"/>
</g>
<!-- Node37 -->
<g id="node37" class="node"><title>Node37</title>
<g id="a_node37"><a xlink:href="../../d3/d5a/gamemode__keepaway_8qc.html#a4aec8808850dd14dd563f20a9ce5618c" target="_top" xlink:title="ka_TimeScoring">
<polygon fill="none" stroke="black" points="450.5,-275.5 450.5,-294.5 537.5,-294.5 537.5,-275.5 450.5,-275.5"/>
<text text-anchor="middle" x="494" y="-282.5" font-family="Helvetica,sans-Serif" font-size="10.00">ka_TimeScoring</text>
</a>
</g>
</g>
<!-- Node35&#45;&gt;Node37 -->
<g id="edge51" class="edge"><title>Node35&#45;&gt;Node37</title>
<path fill="none" stroke="midnightblue" d="M356.733,-285C381.589,-285 413.374,-285 439.993,-285"/>
<polygon fill="midnightblue" stroke="midnightblue" points="440.292,-288.5 450.292,-285 440.292,-281.5 440.292,-288.5"/>
</g>
<!-- Node38 -->
<g id="node38" class="node"><title>Node38</title>
<g id="a_node38"><a xlink:href="../../d2/d79/scores_8qc.html#aebb89cf706a7b2fe6037e3ab4e56dfe4" target="_top" xlink:title="Adds a score to the player&#39;s scores. ">
<polygon fill="none" stroke="black" points="614,-275.5 614,-294.5 706,-294.5 706,-275.5 614,-275.5"/>
<text text-anchor="middle" x="660" y="-282.5" font-family="Helvetica,sans-Serif" font-size="10.00">PlayerScore_Add</text>
</a>
</g>
</g>
<!-- Node35&#45;&gt;Node38 -->
<g id="edge57" class="edge"><title>Node35&#45;&gt;Node38</title>
<path fill="none" stroke="midnightblue" d="M356.696,-275.841C376.392,-271.967 400.293,-267.912 422,-266 485.753,-260.384 502.325,-259.562 566,-266 580.777,-267.494 596.675,-270.291 611.075,-273.288"/>
<polygon fill="midnightblue" stroke="midnightblue" points="610.743,-276.797 621.257,-275.49 612.223,-269.956 610.743,-276.797"/>
</g>
<!-- Node39 -->
<g id="node39" class="node"><title>Node39</title>
<g id="a_node39"><a xlink:href="../../d3/d5a/gamemode__keepaway_8qc.html#aba900e001d432363ed6e93c6b5499a84" target="_top" xlink:title="ka_ballcarrier_waypointsprite\l_visible_for_player">
<polygon fill="none" stroke="black" points="422.5,-150 422.5,-180 565.5,-180 565.5,-150 422.5,-150"/>
<text text-anchor="start" x="430.5" y="-168" font-family="Helvetica,sans-Serif" font-size="10.00">ka_ballcarrier_waypointsprite</text>
<text text-anchor="middle" x="494" y="-157" font-family="Helvetica,sans-Serif" font-size="10.00">_visible_for_player</text>
</a>
</g>
</g>
<!-- Node35&#45;&gt;Node39 -->
<g id="edge58" class="edge"><title>Node35&#45;&gt;Node39</title>
<path fill="none" stroke="midnightblue" d="M323.481,-275.286C340.439,-256.404 380.475,-214.459 422,-190 425.448,-187.969 429.088,-186.066 432.823,-184.289"/>
<polygon fill="midnightblue" stroke="midnightblue" points="434.513,-187.37 442.252,-180.134 431.69,-180.964 434.513,-187.37"/>
</g>
<!-- Node37&#45;&gt;Node38 -->
<g id="edge52" class="edge"><title>Node37&#45;&gt;Node38</title>
<path fill="none" stroke="midnightblue" d="M537.661,-285C557.898,-285 582.325,-285 603.941,-285"/>
<polygon fill="midnightblue" stroke="midnightblue" points="603.972,-288.5 613.972,-285 603.972,-281.5 603.972,-288.5"/>
</g>
<!-- Node38&#45;&gt;Node2 -->
<g id="edge53" class="edge"><title>Node38&#45;&gt;Node2</title>
<path fill="none" stroke="midnightblue" d="M667.394,-294.798C680.89,-314.664 714.33,-359.767 754,-383 814.926,-418.681 857.925,-372.225 908,-422 946.238,-460.009 971.703,-628.877 979.483,-687.15"/>
<polygon fill="midnightblue" stroke="midnightblue" points="976.037,-687.795 980.802,-697.258 982.979,-686.889 976.037,-687.795"/>
</g>
<!-- Node38&#45;&gt;Node11 -->
<g id="edge55" class="edge"><title>Node38&#45;&gt;Node11</title>
<path fill="none" stroke="midnightblue" d="M706.289,-282.588C736.022,-281.005 774.077,-278.978 800.08,-277.593"/>
<polygon fill="midnightblue" stroke="midnightblue" points="800.288,-281.087 810.088,-277.06 799.916,-274.097 800.288,-281.087"/>
</g>
<!-- Node38&#45;&gt;Node25 -->
<g id="edge54" class="edge"><title>Node38&#45;&gt;Node25</title>
<path fill="none" stroke="midnightblue" d="M665.079,-294.59C675.882,-318.838 707.613,-383.076 754,-417 768.519,-427.618 787.891,-433.642 803.442,-436.998"/>
<polygon fill="midnightblue" stroke="midnightblue" points="803.013,-440.479 813.492,-438.92 804.327,-433.604 803.013,-440.479"/>
</g>
</g>
</svg>
