<?xml version="1.0" encoding="UTF-8" standalone="no"?>
<!DOCTYPE svg PUBLIC "-//W3C//DTD SVG 1.1//EN"
 "http://www.w3.org/Graphics/SVG/1.1/DTD/svg11.dtd">
<!-- Generated by graphviz version 2.38.0 (20140413.2041)
 -->
<!-- Title: common/gamemodes/gamemode/tdm/_mod.qh Pages: 1 -->
<svg width="2487pt" height="464pt"
 viewBox="0.00 0.00 2486.50 464.00" xmlns="http://www.w3.org/2000/svg" xmlns:xlink="http://www.w3.org/1999/xlink">
<g id="graph0" class="graph" transform="scale(1 1) rotate(0) translate(4 460)">
<title>common/gamemodes/gamemode/tdm/_mod.qh</title>
<!-- Node1 -->
<g id="node1" class="node"><title>Node1</title>
<polygon fill="#bfbfbf" stroke="black" points="1207.5,-425.5 1207.5,-455.5 1389.5,-455.5 1389.5,-425.5 1207.5,-425.5"/>
<text text-anchor="start" x="1215.5" y="-443.5" font-family="Helvetica,sans-Serif" font-size="10.00">common/gamemodes/gamemode</text>
<text text-anchor="middle" x="1298.5" y="-432.5" font-family="Helvetica,sans-Serif" font-size="10.00">/tdm/_mod.qh</text>
</g>
<!-- Node2 -->
<g id="node2" class="node"><title>Node2</title>
<g id="a_node2"><a xlink:href="../../dc/d5b/common_2gamemodes_2gamemode_2__mod_8qh.html" target="_top" xlink:title="common/gamemodes/gamemode\l/_mod.qh">
<polygon fill="none" stroke="black" points="1207.5,-358.5 1207.5,-388.5 1389.5,-388.5 1389.5,-358.5 1207.5,-358.5"/>
<text text-anchor="start" x="1215.5" y="-376.5" font-family="Helvetica,sans-Serif" font-size="10.00">common/gamemodes/gamemode</text>
<text text-anchor="middle" x="1298.5" y="-365.5" font-family="Helvetica,sans-Serif" font-size="10.00">/_mod.qh</text>
</a>
</g>
</g>
<!-- Node1&#45;&gt;Node2 -->
<g id="edge1" class="edge"><title>Node1&#45;&gt;Node2</title>
<path fill="none" stroke="midnightblue" d="M1298.5,-415.108C1298.5,-406.154 1298.5,-396.323 1298.5,-388.577"/>
<polygon fill="midnightblue" stroke="midnightblue" points="1295,-415.396 1298.5,-425.396 1302,-415.396 1295,-415.396"/>
</g>
<!-- Node3 -->
<g id="node3" class="node"><title>Node3</title>
<g id="a_node3"><a xlink:href="../../d7/d0b/common_2gamemodes_2__mod_8qh.html" target="_top" xlink:title="common/gamemodes/_mod.qh">
<polygon fill="none" stroke="black" points="1214.5,-302.5 1214.5,-321.5 1382.5,-321.5 1382.5,-302.5 1214.5,-302.5"/>
<text text-anchor="middle" x="1298.5" y="-309.5" font-family="Helvetica,sans-Serif" font-size="10.00">common/gamemodes/_mod.qh</text>
</a>
</g>
</g>
<!-- Node2&#45;&gt;Node3 -->
<g id="edge2" class="edge"><title>Node2&#45;&gt;Node3</title>
<path fill="none" stroke="midnightblue" d="M1298.5,-348.289C1298.5,-338.857 1298.5,-328.655 1298.5,-321.658"/>
<polygon fill="midnightblue" stroke="midnightblue" points="1295,-348.399 1298.5,-358.399 1302,-348.399 1295,-348.399"/>
</g>
<!-- Node4 -->
<g id="node4" class="node"><title>Node4</title>
<g id="a_node4"><a xlink:href="../../dc/d3d/csqcmodel__hooks_8qc.html" target="_top" xlink:title="client/csqcmodel_hooks.qc">
<polygon fill="none" stroke="black" points="0,-112.5 0,-131.5 145,-131.5 145,-112.5 0,-112.5"/>
<text text-anchor="middle" x="72.5" y="-119.5" font-family="Helvetica,sans-Serif" font-size="10.00">client/csqcmodel_hooks.qc</text>
</a>
</g>
</g>
<!-- Node3&#45;&gt;Node4 -->
<g id="edge3" class="edge"><title>Node3&#45;&gt;Node4</title>
<path fill="none" stroke="midnightblue" d="M1204.1,-311.07C956.4,-310.696 300.732,-305.9 211.5,-266 144.494,-236.039 93.1419,-157.633 77.4689,-131.566"/>
<polygon fill="midnightblue" stroke="midnightblue" points="1204.16,-314.57 1214.16,-311.084 1204.17,-307.57 1204.16,-314.57"/>
</g>
<!-- Node7 -->
<g id="node7" class="node"><title>Node7</title>
<g id="a_node7"><a xlink:href="../../d6/dd3/view_8qc.html" target="_top" xlink:title="client/view.qc">
<polygon fill="none" stroke="black" points="163,-112.5 163,-131.5 242,-131.5 242,-112.5 163,-112.5"/>
<text text-anchor="middle" x="202.5" y="-119.5" font-family="Helvetica,sans-Serif" font-size="10.00">client/view.qc</text>
</a>
</g>
</g>
<!-- Node3&#45;&gt;Node7 -->
<g id="edge6" class="edge"><title>Node3&#45;&gt;Node7</title>
<path fill="none" stroke="midnightblue" d="M1204.31,-311.256C963.48,-311.304 338.283,-307.389 254.5,-266 219.705,-248.811 211.738,-235.482 198.5,-199 190.117,-175.898 196.027,-146.246 199.886,-131.758"/>
<polygon fill="midnightblue" stroke="midnightblue" points="1204.45,-314.756 1214.45,-311.252 1204.44,-307.756 1204.45,-314.756"/>
</g>
<!-- Node8 -->
<g id="node8" class="node"><title>Node8</title>
<g id="a_node8"><a xlink:href="../../d7/d15/hud_8qc.html" target="_top" xlink:title="client/hud/hud.qc">
<polygon fill="none" stroke="black" points="207.5,-174 207.5,-193 305.5,-193 305.5,-174 207.5,-174"/>
<text text-anchor="middle" x="256.5" y="-181" font-family="Helvetica,sans-Serif" font-size="10.00">client/hud/hud.qc</text>
</a>
</g>
</g>
<!-- Node3&#45;&gt;Node8 -->
<g id="edge8" class="edge"><title>Node3&#45;&gt;Node8</title>
<path fill="none" stroke="midnightblue" d="M1204.32,-309.915C957.946,-306.67 310.894,-295.383 275.5,-266 253.701,-247.904 254.088,-210.089 255.509,-193.095"/>
<polygon fill="midnightblue" stroke="midnightblue" points="1204.29,-313.415 1214.33,-310.045 1204.38,-306.415 1204.29,-313.415"/>
</g>
<!-- Node10 -->
<g id="node10" class="node"><title>Node10</title>
<g id="a_node10"><a xlink:href="../../dd/d59/modicons_8qc.html" target="_top" xlink:title="client/hud/panel/modicons.qc">
<polygon fill="none" stroke="black" points="284.5,-241 284.5,-260 440.5,-260 440.5,-241 284.5,-241"/>
<text text-anchor="middle" x="362.5" y="-248" font-family="Helvetica,sans-Serif" font-size="10.00">client/hud/panel/modicons.qc</text>
</a>
</g>
</g>
<!-- Node3&#45;&gt;Node10 -->
<g id="edge11" class="edge"><title>Node3&#45;&gt;Node10</title>
<path fill="none" stroke="midnightblue" d="M1204.41,-309.457C1047.5,-306.114 722.649,-295.906 449.5,-266 435.953,-264.517 421.31,-262.312 407.971,-260.067"/>
<polygon fill="midnightblue" stroke="midnightblue" points="1204.43,-312.958 1214.5,-309.668 1204.57,-305.96 1204.43,-312.958"/>
</g>
<!-- Node12 -->
<g id="node12" class="node"><title>Node12</title>
<g id="a_node12"><a xlink:href="../../d5/dff/ent__cs_8qc.html" target="_top" xlink:title="common/ent_cs.qc">
<polygon fill="none" stroke="black" points="458.5,-241 458.5,-260 566.5,-260 566.5,-241 458.5,-241"/>
<text text-anchor="middle" x="512.5" y="-248" font-family="Helvetica,sans-Serif" font-size="10.00">common/ent_cs.qc</text>
</a>
</g>
</g>
<!-- Node3&#45;&gt;Node12 -->
<g id="edge14" class="edge"><title>Node3&#45;&gt;Node12</title>
<path fill="none" stroke="midnightblue" d="M1204.11,-310.052C1065.58,-307.548 799.368,-298.505 575.5,-266 565.504,-264.549 554.75,-262.326 545.006,-260.053"/>
<polygon fill="midnightblue" stroke="midnightblue" points="1204.21,-313.554 1214.27,-310.228 1204.33,-306.555 1204.21,-313.554"/>
</g>
<!-- Node14 -->
<g id="node14" class="node"><title>Node14</title>
<g id="a_node14"><a xlink:href="../../d2/dac/sv__buffs_8qc.html" target="_top" xlink:title="common/mutators/mutator\l/buffs/sv_buffs.qc">
<polygon fill="none" stroke="black" points="585,-235.5 585,-265.5 734,-265.5 734,-235.5 585,-235.5"/>
<text text-anchor="start" x="593" y="-253.5" font-family="Helvetica,sans-Serif" font-size="10.00">common/mutators/mutator</text>
<text text-anchor="middle" x="659.5" y="-242.5" font-family="Helvetica,sans-Serif" font-size="10.00">/buffs/sv_buffs.qc</text>
</a>
</g>
</g>
<!-- Node3&#45;&gt;Node14 -->
<g id="edge16" class="edge"><title>Node3&#45;&gt;Node14</title>
<path fill="none" stroke="midnightblue" d="M1204.27,-306.029C1093.46,-299.569 904.127,-286.614 742.5,-266 739.743,-265.648 736.938,-265.269 734.107,-264.868"/>
<polygon fill="midnightblue" stroke="midnightblue" points="1204.23,-309.532 1214.42,-306.615 1204.64,-302.544 1204.23,-309.532"/>
</g>
<!-- Node15 -->
<g id="node15" class="node"><title>Node15</title>
<g id="a_node15"><a xlink:href="../../dc/df0/sv__instagib_8qh.html" target="_top" xlink:title="common/mutators/mutator\l/instagib/sv_instagib.qh">
<polygon fill="none" stroke="black" points="2032,-235.5 2032,-265.5 2181,-265.5 2181,-235.5 2032,-235.5"/>
<text text-anchor="start" x="2040" y="-253.5" font-family="Helvetica,sans-Serif" font-size="10.00">common/mutators/mutator</text>
<text text-anchor="middle" x="2106.5" y="-242.5" font-family="Helvetica,sans-Serif" font-size="10.00">/instagib/sv_instagib.qh</text>
</a>
</g>
</g>
<!-- Node3&#45;&gt;Node15 -->
<g id="edge17" class="edge"><title>Node3&#45;&gt;Node15</title>
<path fill="none" stroke="midnightblue" d="M1392.82,-308.14C1530.63,-303.273 1794.96,-291.337 2018.5,-266 2022.81,-265.512 2027.23,-264.957 2031.68,-264.356"/>
<polygon fill="midnightblue" stroke="midnightblue" points="1392.58,-304.646 1382.71,-308.492 1392.83,-311.641 1392.58,-304.646"/>
</g>
<!-- Node17 -->
<g id="node17" class="node"><title>Node17</title>
<g id="a_node17"><a xlink:href="../../df/dd7/server_2client_8qc.html" target="_top" xlink:title="server/client.qc">
<polygon fill="none" stroke="black" points="1854,-174 1854,-193 1943,-193 1943,-174 1854,-174"/>
<text text-anchor="middle" x="1898.5" y="-181" font-family="Helvetica,sans-Serif" font-size="10.00">server/client.qc</text>
</a>
</g>
</g>
<!-- Node3&#45;&gt;Node17 -->
<g id="edge32" class="edge"><title>Node3&#45;&gt;Node17</title>
<path fill="none" stroke="midnightblue" d="M1392.97,-311.587C1567.51,-311.678 1926.34,-306.83 1964.5,-266 1988,-240.861 1940.83,-208.419 1914.52,-193.159"/>
<polygon fill="midnightblue" stroke="midnightblue" points="1392.76,-308.087 1382.76,-311.576 1392.75,-315.087 1392.76,-308.087"/>
</g>
<!-- Node20 -->
<g id="node20" class="node"><title>Node20</title>
<g id="a_node20"><a xlink:href="../../da/ded/damage_8qc.html" target="_top" xlink:title="server/damage.qc">
<polygon fill="none" stroke="black" points="2128.5,-174 2128.5,-193 2232.5,-193 2232.5,-174 2128.5,-174"/>
<text text-anchor="middle" x="2180.5" y="-181" font-family="Helvetica,sans-Serif" font-size="10.00">server/damage.qc</text>
</a>
</g>
</g>
<!-- Node3&#45;&gt;Node20 -->
<g id="edge33" class="edge"><title>Node3&#45;&gt;Node20</title>
<path fill="none" stroke="midnightblue" d="M1392.94,-309.688C1616.68,-306.118 2162.39,-294.518 2189.5,-266 2208.53,-245.986 2193.55,-209.502 2185.18,-193.004"/>
<polygon fill="midnightblue" stroke="midnightblue" points="1392.8,-306.19 1382.86,-309.847 1392.91,-313.189 1392.8,-306.19"/>
</g>
<!-- Node21 -->
<g id="node21" class="node"><title>Node21</title>
<g id="a_node21"><a xlink:href="../../da/d41/dialog__singleplayer_8qc.html" target="_top" xlink:title="menu/xonotic/dialog\l_singleplayer.qc">
<polygon fill="none" stroke="black" points="752,-235.5 752,-265.5 865,-265.5 865,-235.5 752,-235.5"/>
<text text-anchor="start" x="760" y="-253.5" font-family="Helvetica,sans-Serif" font-size="10.00">menu/xonotic/dialog</text>
<text text-anchor="middle" x="808.5" y="-242.5" font-family="Helvetica,sans-Serif" font-size="10.00">_singleplayer.qc</text>
</a>
</g>
</g>
<!-- Node3&#45;&gt;Node21 -->
<g id="edge24" class="edge"><title>Node3&#45;&gt;Node21</title>
<path fill="none" stroke="midnightblue" d="M1204.21,-304.118C1117.81,-297.077 986.542,-284.531 873.5,-266 870.762,-265.551 867.965,-265.059 865.146,-264.536"/>
<polygon fill="midnightblue" stroke="midnightblue" points="1204.01,-307.613 1214.26,-304.928 1204.57,-300.635 1204.01,-307.613"/>
</g>
<!-- Node25 -->
<g id="node25" class="node"><title>Node25</title>
<g id="a_node25"><a xlink:href="../../d2/db8/gametypelist_8qc.html" target="_top" xlink:title="menu/xonotic/gametypelist.qc">
<polygon fill="none" stroke="black" points="883,-241 883,-260 1044,-260 1044,-241 883,-241"/>
<text text-anchor="middle" x="963.5" y="-248" font-family="Helvetica,sans-Serif" font-size="10.00">menu/xonotic/gametypelist.qc</text>
</a>
</g>
</g>
<!-- Node3&#45;&gt;Node25 -->
<g id="edge28" class="edge"><title>Node3&#45;&gt;Node25</title>
<path fill="none" stroke="midnightblue" d="M1240.44,-300.688C1175.59,-289.17 1071.82,-270.738 1011.41,-260.009"/>
<polygon fill="midnightblue" stroke="midnightblue" points="1240.04,-304.172 1250.5,-302.475 1241.27,-297.28 1240.04,-304.172"/>
</g>
<!-- Node26 -->
<g id="node26" class="node"><title>Node26</title>
<g id="a_node26"><a xlink:href="../../df/d9b/menu_2xonotic_2util_8qc.html" target="_top" xlink:title="menu/xonotic/util.qc">
<polygon fill="none" stroke="black" points="1062,-241 1062,-260 1175,-260 1175,-241 1062,-241"/>
<text text-anchor="middle" x="1118.5" y="-248" font-family="Helvetica,sans-Serif" font-size="10.00">menu/xonotic/util.qc</text>
</a>
</g>
</g>
<!-- Node3&#45;&gt;Node26 -->
<g id="edge30" class="edge"><title>Node3&#45;&gt;Node26</title>
<path fill="none" stroke="midnightblue" d="M1262.9,-299.232C1227.91,-287.666 1175.36,-270.297 1144.24,-260.009"/>
<polygon fill="midnightblue" stroke="midnightblue" points="1262.12,-302.66 1272.71,-302.475 1264.31,-296.013 1262.12,-302.66"/>
</g>
<!-- Node27 -->
<g id="node27" class="node"><title>Node27</title>
<g id="a_node27"><a xlink:href="../../d4/d53/server_2impulse_8qc.html" target="_top" xlink:title="server/impulse.qc">
<polygon fill="none" stroke="black" points="2086,-112.5 2086,-131.5 2187,-131.5 2187,-112.5 2086,-112.5"/>
<text text-anchor="middle" x="2136.5" y="-119.5" font-family="Helvetica,sans-Serif" font-size="10.00">server/impulse.qc</text>
</a>
</g>
</g>
<!-- Node3&#45;&gt;Node27 -->
<g id="edge34" class="edge"><title>Node3&#45;&gt;Node27</title>
<path fill="none" stroke="midnightblue" d="M1392.9,-311.63C1611.79,-312.342 2140.46,-309.478 2207.5,-266 2246.18,-240.915 2266.88,-206.488 2241.5,-168 2228.89,-148.876 2206.29,-137.849 2185.27,-131.505"/>
<polygon fill="midnightblue" stroke="midnightblue" points="1392.72,-308.13 1382.71,-311.594 1392.7,-315.13 1392.72,-308.13"/>
</g>
<!-- Node28 -->
<g id="node28" class="node"><title>Node28</title>
<g id="a_node28"><a xlink:href="../../db/d9b/server_2player_8qc.html" target="_top" xlink:title="server/player.qc">
<polygon fill="none" stroke="black" points="2228.5,-112.5 2228.5,-131.5 2320.5,-131.5 2320.5,-112.5 2228.5,-112.5"/>
<text text-anchor="middle" x="2274.5" y="-119.5" font-family="Helvetica,sans-Serif" font-size="10.00">server/player.qc</text>
</a>
</g>
</g>
<!-- Node3&#45;&gt;Node28 -->
<g id="edge36" class="edge"><title>Node3&#45;&gt;Node28</title>
<path fill="none" stroke="midnightblue" d="M1392.88,-309.316C1624.4,-304.805 2204.12,-291.059 2237.5,-266 2280.77,-233.513 2277.85,-157.434 2275.48,-131.691"/>
<polygon fill="midnightblue" stroke="midnightblue" points="1392.72,-305.818 1382.79,-309.511 1392.85,-312.817 1392.72,-305.818"/>
</g>
<!-- Node29 -->
<g id="node29" class="node"><title>Node29</title>
<g id="a_node29"><a xlink:href="../../df/d4a/server_2race_8qc.html" target="_top" xlink:title="server/race.qc">
<polygon fill="none" stroke="black" points="1124,-112.5 1124,-131.5 1209,-131.5 1209,-112.5 1124,-112.5"/>
<text text-anchor="middle" x="1166.5" y="-119.5" font-family="Helvetica,sans-Serif" font-size="10.00">server/race.qc</text>
</a>
</g>
</g>
<!-- Node3&#45;&gt;Node29 -->
<g id="edge38" class="edge"><title>Node3&#45;&gt;Node29</title>
<path fill="none" stroke="midnightblue" d="M1281.48,-295.344C1272.91,-287.038 1262.63,-276.418 1254.5,-266 1217.54,-218.668 1183.08,-154.915 1171.03,-131.817"/>
<polygon fill="midnightblue" stroke="midnightblue" points="1279.1,-297.909 1288.76,-302.248 1283.91,-292.829 1279.1,-297.909"/>
</g>
<!-- Node30 -->
<g id="node30" class="node"><title>Node30</title>
<g id="a_node30"><a xlink:href="../../d0/d41/spawnpoints_8qc.html" target="_top" xlink:title="server/spawnpoints.qc">
<polygon fill="none" stroke="black" points="1227,-112.5 1227,-131.5 1350,-131.5 1350,-112.5 1227,-112.5"/>
<text text-anchor="middle" x="1288.5" y="-119.5" font-family="Helvetica,sans-Serif" font-size="10.00">server/spawnpoints.qc</text>
</a>
</g>
</g>
<!-- Node3&#45;&gt;Node30 -->
<g id="edge40" class="edge"><title>Node3&#45;&gt;Node30</title>
<path fill="none" stroke="midnightblue" d="M1282.79,-294.883C1276.07,-286.883 1268.99,-276.66 1265.5,-266 1251.95,-224.606 1255.31,-210.346 1265.5,-168 1268.74,-154.522 1276.75,-140.54 1282.4,-131.809"/>
<polygon fill="midnightblue" stroke="midnightblue" points="1280.2,-297.237 1289.48,-302.34 1285.4,-292.561 1280.2,-297.237"/>
</g>
<!-- Node31 -->
<g id="node31" class="node"><title>Node31</title>
<g id="a_node31"><a xlink:href="../../de/d4f/teamplay_8qc.html" target="_top" xlink:title="server/teamplay.qc">
<polygon fill="none" stroke="black" points="1368,-112.5 1368,-131.5 1475,-131.5 1475,-112.5 1368,-112.5"/>
<text text-anchor="middle" x="1421.5" y="-119.5" font-family="Helvetica,sans-Serif" font-size="10.00">server/teamplay.qc</text>
</a>
</g>
</g>
<!-- Node3&#45;&gt;Node31 -->
<g id="edge42" class="edge"><title>Node3&#45;&gt;Node31</title>
<path fill="none" stroke="midnightblue" d="M1292.35,-292.522C1283.83,-263.208 1272.27,-205.53 1298.5,-168 1308.69,-153.417 1352.39,-139.846 1384.82,-131.5"/>
<polygon fill="midnightblue" stroke="midnightblue" points="1289.07,-293.757 1295.38,-302.267 1295.75,-291.679 1289.07,-293.757"/>
</g>
<!-- Node32 -->
<g id="node32" class="node"><title>Node32</title>
<g id="a_node32"><a xlink:href="../../dd/dbe/world_8qc.html" target="_top" xlink:title="server/world.qc">
<polygon fill="none" stroke="black" points="1308,-174 1308,-193 1397,-193 1397,-174 1308,-174"/>
<text text-anchor="middle" x="1352.5" y="-181" font-family="Helvetica,sans-Serif" font-size="10.00">server/world.qc</text>
</a>
</g>
</g>
<!-- Node3&#45;&gt;Node32 -->
<g id="edge44" class="edge"><title>Node3&#45;&gt;Node32</title>
<path fill="none" stroke="midnightblue" d="M1306.17,-293.04C1317.93,-265.484 1339.99,-213.809 1348.76,-193.256"/>
<polygon fill="midnightblue" stroke="midnightblue" points="1302.92,-291.734 1302.21,-302.305 1309.36,-294.482 1302.92,-291.734"/>
</g>
<!-- Node33 -->
<g id="node33" class="node"><title>Node33</title>
<g id="a_node33"><a xlink:href="../../d7/dc4/waypoints_8qc.html" target="_top" xlink:title="server/bot/default\l/waypoints.qc">
<polygon fill="none" stroke="black" points="1346,-235.5 1346,-265.5 1447,-265.5 1447,-235.5 1346,-235.5"/>
<text text-anchor="start" x="1354" y="-253.5" font-family="Helvetica,sans-Serif" font-size="10.00">server/bot/default</text>
<text text-anchor="middle" x="1396.5" y="-242.5" font-family="Helvetica,sans-Serif" font-size="10.00">/waypoints.qc</text>
</a>
</g>
</g>
<!-- Node3&#45;&gt;Node33 -->
<g id="edge46" class="edge"><title>Node3&#45;&gt;Node33</title>
<path fill="none" stroke="midnightblue" d="M1321.1,-297.276C1336.79,-287.754 1357.61,-275.11 1373.4,-265.523"/>
<polygon fill="midnightblue" stroke="midnightblue" points="1319.27,-294.294 1312.54,-302.475 1322.91,-300.277 1319.27,-294.294"/>
</g>
<!-- Node36 -->
<g id="node36" class="node"><title>Node36</title>
<g id="a_node36"><a xlink:href="../../d8/d1d/cmd_8qc.html" target="_top" xlink:title="server/command/cmd.qc">
<polygon fill="none" stroke="black" points="1801,-241 1801,-260 1938,-260 1938,-241 1801,-241"/>
<text text-anchor="middle" x="1869.5" y="-248" font-family="Helvetica,sans-Serif" font-size="10.00">server/command/cmd.qc</text>
</a>
</g>
</g>
<!-- Node3&#45;&gt;Node36 -->
<g id="edge50" class="edge"><title>Node3&#45;&gt;Node36</title>
<path fill="none" stroke="midnightblue" d="M1392.53,-305.022C1491.95,-298.094 1653.22,-285.122 1791.5,-266 1803.23,-264.377 1815.89,-262.209 1827.52,-260.044"/>
<polygon fill="midnightblue" stroke="midnightblue" points="1392.25,-301.534 1382.51,-305.715 1392.73,-308.517 1392.25,-301.534"/>
</g>
<!-- Node38 -->
<g id="node38" class="node"><title>Node38</title>
<g id="a_node38"><a xlink:href="../../d9/d89/getreplies_8qc.html" target="_top" xlink:title="server/command/getreplies.qc">
<polygon fill="none" stroke="black" points="1465,-241 1465,-260 1628,-260 1628,-241 1465,-241"/>
<text text-anchor="middle" x="1546.5" y="-248" font-family="Helvetica,sans-Serif" font-size="10.00">server/command/getreplies.qc</text>
</a>
</g>
</g>
<!-- Node3&#45;&gt;Node38 -->
<g id="edge53" class="edge"><title>Node3&#45;&gt;Node38</title>
<path fill="none" stroke="midnightblue" d="M1343.87,-300.114C1392.01,-288.565 1467.05,-270.561 1511.03,-260.009"/>
<polygon fill="midnightblue" stroke="midnightblue" points="1342.94,-296.739 1334.03,-302.475 1344.57,-303.545 1342.94,-296.739"/>
</g>
<!-- Node39 -->
<g id="node39" class="node"><title>Node39</title>
<g id="a_node39"><a xlink:href="../../d1/dad/server_2command_2vote_8qc.html" target="_top" xlink:title="server/command/vote.qc">
<polygon fill="none" stroke="black" points="1646,-241 1646,-260 1783,-260 1783,-241 1646,-241"/>
<text text-anchor="middle" x="1714.5" y="-248" font-family="Helvetica,sans-Serif" font-size="10.00">server/command/vote.qc</text>
</a>
</g>
</g>
<!-- Node3&#45;&gt;Node39 -->
<g id="edge55" class="edge"><title>Node3&#45;&gt;Node39</title>
<path fill="none" stroke="midnightblue" d="M1381.16,-301.2C1449.69,-292.786 1549.62,-279.85 1636.5,-266 1647.65,-264.222 1659.66,-262.095 1670.84,-260.026"/>
<polygon fill="midnightblue" stroke="midnightblue" points="1380.36,-297.772 1370.85,-302.46 1381.21,-304.72 1380.36,-297.772"/>
</g>
<!-- Node40 -->
<g id="node40" class="node"><title>Node40</title>
<g id="a_node40"><a xlink:href="../../df/d42/quake3_8qc.html" target="_top" xlink:title="server/compat/quake3.qc">
<polygon fill="none" stroke="black" points="1697,-174 1697,-193 1836,-193 1836,-174 1697,-174"/>
<text text-anchor="middle" x="1766.5" y="-181" font-family="Helvetica,sans-Serif" font-size="10.00">server/compat/quake3.qc</text>
</a>
</g>
</g>
<!-- Node3&#45;&gt;Node40 -->
<g id="edge57" class="edge"><title>Node3&#45;&gt;Node40</title>
<path fill="none" stroke="midnightblue" d="M1392.95,-311.39C1563.7,-311.1 1909.58,-305.57 1946.5,-266 1955.9,-255.926 1954.82,-245.98 1946.5,-235 1937.92,-223.684 1856.96,-204.24 1806.58,-193.069"/>
<polygon fill="midnightblue" stroke="midnightblue" points="1392.7,-307.89 1382.71,-311.401 1392.71,-314.89 1392.7,-307.89"/>
</g>
<!-- Node42 -->
<g id="node42" class="node"><title>Node42</title>
<g id="a_node42"><a xlink:href="../../d3/df2/sv__cmd_8qc.html" target="_top" xlink:title="server/command/sv_cmd.qc">
<polygon fill="none" stroke="black" points="2326.5,-241 2326.5,-260 2478.5,-260 2478.5,-241 2326.5,-241"/>
<text text-anchor="middle" x="2402.5" y="-248" font-family="Helvetica,sans-Serif" font-size="10.00">server/command/sv_cmd.qc</text>
</a>
</g>
</g>
<!-- Node3&#45;&gt;Node42 -->
<g id="edge60" class="edge"><title>Node3&#45;&gt;Node42</title>
<path fill="none" stroke="midnightblue" d="M1392.74,-310.442C1572.2,-308.578 1975.24,-300.535 2312.5,-266 2326.67,-264.549 2342,-262.326 2355.92,-260.053"/>
<polygon fill="midnightblue" stroke="midnightblue" points="1392.5,-306.944 1382.54,-310.544 1392.57,-313.944 1392.5,-306.944"/>
</g>
<!-- Node5 -->
<g id="node5" class="node"><title>Node5</title>
<g id="a_node5"><a xlink:href="../../de/dbe/client_2__mod_8inc.html" target="_top" xlink:title="client/_mod.inc">
<polygon fill="none" stroke="black" points="158,-56.5 158,-75.5 247,-75.5 247,-56.5 158,-56.5"/>
<text text-anchor="middle" x="202.5" y="-63.5" font-family="Helvetica,sans-Serif" font-size="10.00">client/_mod.inc</text>
</a>
</g>
</g>
<!-- Node4&#45;&gt;Node5 -->
<g id="edge4" class="edge"><title>Node4&#45;&gt;Node5</title>
<path fill="none" stroke="midnightblue" d="M102.585,-108.503C126.957,-98.3795 160.64,-84.388 181.997,-75.5164"/>
<polygon fill="midnightblue" stroke="midnightblue" points="100.991,-105.375 93.0989,-112.444 103.677,-111.84 100.991,-105.375"/>
</g>
<!-- Node6 -->
<g id="node6" class="node"><title>Node6</title>
<g id="a_node6"><a xlink:href="../../d3/dfc/client_2progs_8inc.html" target="_top" xlink:title="client/progs.inc">
<polygon fill="none" stroke="black" points="158,-0.5 158,-19.5 247,-19.5 247,-0.5 158,-0.5"/>
<text text-anchor="middle" x="202.5" y="-7.5" font-family="Helvetica,sans-Serif" font-size="10.00">client/progs.inc</text>
</a>
</g>
</g>
<!-- Node5&#45;&gt;Node6 -->
<g id="edge5" class="edge"><title>Node5&#45;&gt;Node6</title>
<path fill="none" stroke="midnightblue" d="M202.5,-45.8045C202.5,-36.9102 202.5,-26.7798 202.5,-19.7511"/>
<polygon fill="midnightblue" stroke="midnightblue" points="199,-46.083 202.5,-56.083 206,-46.083 199,-46.083"/>
</g>
<!-- Node7&#45;&gt;Node5 -->
<g id="edge7" class="edge"><title>Node7&#45;&gt;Node5</title>
<path fill="none" stroke="midnightblue" d="M202.5,-101.805C202.5,-92.9102 202.5,-82.7798 202.5,-75.7511"/>
<polygon fill="midnightblue" stroke="midnightblue" points="199,-102.083 202.5,-112.083 206,-102.083 199,-102.083"/>
</g>
<!-- Node9 -->
<g id="node9" class="node"><title>Node9</title>
<g id="a_node9"><a xlink:href="../../db/dab/client_2hud_2__mod_8inc.html" target="_top" xlink:title="client/hud/_mod.inc">
<polygon fill="none" stroke="black" points="260.5,-112.5 260.5,-131.5 370.5,-131.5 370.5,-112.5 260.5,-112.5"/>
<text text-anchor="middle" x="315.5" y="-119.5" font-family="Helvetica,sans-Serif" font-size="10.00">client/hud/_mod.inc</text>
</a>
</g>
</g>
<!-- Node8&#45;&gt;Node9 -->
<g id="edge9" class="edge"><title>Node8&#45;&gt;Node9</title>
<path fill="none" stroke="midnightblue" d="M272.044,-166.825C283.253,-155.52 297.956,-140.693 307.062,-131.509"/>
<polygon fill="midnightblue" stroke="midnightblue" points="269.509,-164.41 264.953,-173.975 274.48,-169.339 269.509,-164.41"/>
</g>
<!-- Node9&#45;&gt;Node5 -->
<g id="edge10" class="edge"><title>Node9&#45;&gt;Node5</title>
<path fill="none" stroke="midnightblue" d="M288.497,-108.096C267.386,-98.0073 238.638,-84.2697 220.321,-75.5164"/>
<polygon fill="midnightblue" stroke="midnightblue" points="287.063,-111.29 297.595,-112.444 290.081,-104.974 287.063,-111.29"/>
</g>
<!-- Node11 -->
<g id="node11" class="node"><title>Node11</title>
<g id="a_node11"><a xlink:href="../../d8/d93/client_2hud_2panel_2__mod_8inc.html" target="_top" xlink:title="client/hud/panel/_mod.inc">
<polygon fill="none" stroke="black" points="324,-174 324,-193 463,-193 463,-174 324,-174"/>
<text text-anchor="middle" x="393.5" y="-181" font-family="Helvetica,sans-Serif" font-size="10.00">client/hud/panel/_mod.inc</text>
</a>
</g>
</g>
<!-- Node10&#45;&gt;Node11 -->
<g id="edge12" class="edge"><title>Node10&#45;&gt;Node11</title>
<path fill="none" stroke="midnightblue" d="M371.007,-231.663C376.985,-219.128 384.72,-202.91 389.385,-193.127"/>
<polygon fill="midnightblue" stroke="midnightblue" points="367.826,-230.201 366.681,-240.734 374.145,-233.214 367.826,-230.201"/>
</g>
<!-- Node11&#45;&gt;Node9 -->
<g id="edge13" class="edge"><title>Node11&#45;&gt;Node9</title>
<path fill="none" stroke="midnightblue" d="M374.221,-167.794C359.259,-156.38 339.041,-140.958 326.655,-131.509"/>
<polygon fill="midnightblue" stroke="midnightblue" points="372.251,-170.693 382.325,-173.975 376.496,-165.127 372.251,-170.693"/>
</g>
<!-- Node13 -->
<g id="node13" class="node"><title>Node13</title>
<g id="a_node13"><a xlink:href="../../dd/d1b/common_2__mod_8inc.html" target="_top" xlink:title="common/_mod.inc">
<polygon fill="none" stroke="black" points="481.5,-174 481.5,-193 587.5,-193 587.5,-174 481.5,-174"/>
<text text-anchor="middle" x="534.5" y="-181" font-family="Helvetica,sans-Serif" font-size="10.00">common/_mod.inc</text>
</a>
</g>
</g>
<!-- Node12&#45;&gt;Node13 -->
<g id="edge15" class="edge"><title>Node12&#45;&gt;Node13</title>
<path fill="none" stroke="midnightblue" d="M518.79,-230.915C522.996,-218.488 528.334,-202.717 531.58,-193.127"/>
<polygon fill="midnightblue" stroke="midnightblue" points="515.358,-230.14 515.467,-240.734 521.988,-232.384 515.358,-230.14"/>
</g>
<!-- Node16 -->
<g id="node16" class="node"><title>Node16</title>
<g id="a_node16"><a xlink:href="../../d4/db0/sv__instagib_8qc.html" target="_top" xlink:title="common/mutators/mutator\l/instagib/sv_instagib.qc">
<polygon fill="none" stroke="black" points="1961,-168.5 1961,-198.5 2110,-198.5 2110,-168.5 1961,-168.5"/>
<text text-anchor="start" x="1969" y="-186.5" font-family="Helvetica,sans-Serif" font-size="10.00">common/mutators/mutator</text>
<text text-anchor="middle" x="2035.5" y="-175.5" font-family="Helvetica,sans-Serif" font-size="10.00">/instagib/sv_instagib.qc</text>
</a>
</g>
</g>
<!-- Node15&#45;&gt;Node16 -->
<g id="edge18" class="edge"><title>Node15&#45;&gt;Node16</title>
<path fill="none" stroke="midnightblue" d="M2083.67,-228.598C2072.95,-218.783 2060.45,-207.344 2050.88,-198.577"/>
<polygon fill="midnightblue" stroke="midnightblue" points="2081.35,-231.225 2091.09,-235.396 2086.08,-226.062 2081.35,-231.225"/>
</g>
<!-- Node15&#45;&gt;Node17 -->
<g id="edge19" class="edge"><title>Node15&#45;&gt;Node17</title>
<path fill="none" stroke="midnightblue" d="M2051.88,-232.43C2011.31,-219.754 1957.7,-203.001 1925.79,-193.029"/>
<polygon fill="midnightblue" stroke="midnightblue" points="2051.03,-235.834 2061.62,-235.476 2053.12,-229.152 2051.03,-235.834"/>
</g>
<!-- Node15&#45;&gt;Node20 -->
<g id="edge22" class="edge"><title>Node15&#45;&gt;Node20</title>
<path fill="none" stroke="midnightblue" d="M2130.21,-228.672C2143.87,-216.671 2160.33,-202.22 2170.6,-193.195"/>
<polygon fill="midnightblue" stroke="midnightblue" points="2127.76,-226.167 2122.56,-235.396 2132.38,-231.426 2127.76,-226.167"/>
</g>
<!-- Node18 -->
<g id="node18" class="node"><title>Node18</title>
<g id="a_node18"><a xlink:href="../../dc/d7f/server_2__mod_8inc.html" target="_top" xlink:title="server/_mod.inc">
<polygon fill="none" stroke="black" points="1625,-56.5 1625,-75.5 1718,-75.5 1718,-56.5 1625,-56.5"/>
<text text-anchor="middle" x="1671.5" y="-63.5" font-family="Helvetica,sans-Serif" font-size="10.00">server/_mod.inc</text>
</a>
</g>
</g>
<!-- Node17&#45;&gt;Node18 -->
<g id="edge20" class="edge"><title>Node17&#45;&gt;Node18</title>
<path fill="none" stroke="midnightblue" d="M1888.58,-164.646C1878.7,-148.516 1862.07,-125.323 1841.5,-112 1804.22,-87.8483 1754.4,-76.6138 1718.34,-71.4151"/>
<polygon fill="midnightblue" stroke="midnightblue" points="1885.76,-166.76 1893.83,-173.625 1891.8,-163.226 1885.76,-166.76"/>
</g>
<!-- Node19 -->
<g id="node19" class="node"><title>Node19</title>
<g id="a_node19"><a xlink:href="../../dd/d96/server_2progs_8inc.html" target="_top" xlink:title="server/progs.inc">
<polygon fill="none" stroke="black" points="1625,-0.5 1625,-19.5 1718,-19.5 1718,-0.5 1625,-0.5"/>
<text text-anchor="middle" x="1671.5" y="-7.5" font-family="Helvetica,sans-Serif" font-size="10.00">server/progs.inc</text>
</a>
</g>
</g>
<!-- Node18&#45;&gt;Node19 -->
<g id="edge21" class="edge"><title>Node18&#45;&gt;Node19</title>
<path fill="none" stroke="midnightblue" d="M1671.5,-45.8045C1671.5,-36.9102 1671.5,-26.7798 1671.5,-19.7511"/>
<polygon fill="midnightblue" stroke="midnightblue" points="1668,-46.083 1671.5,-56.083 1675,-46.083 1668,-46.083"/>
</g>
<!-- Node20&#45;&gt;Node18 -->
<g id="edge23" class="edge"><title>Node20&#45;&gt;Node18</title>
<path fill="none" stroke="midnightblue" d="M2134.1,-171.608C2128.84,-170.385 2123.56,-169.162 2118.5,-168 1967.3,-133.238 1787.09,-92.8321 1709.79,-75.5498"/>
<polygon fill="midnightblue" stroke="midnightblue" points="2133.59,-175.082 2144.12,-173.944 2135.18,-168.265 2133.59,-175.082"/>
</g>
<!-- Node22 -->
<g id="node22" class="node"><title>Node22</title>
<g id="a_node22"><a xlink:href="../../d5/d74/menu_2xonotic_2__mod_8inc.html" target="_top" xlink:title="menu/xonotic/_mod.inc">
<polygon fill="none" stroke="black" points="899.5,-174 899.5,-193 1027.5,-193 1027.5,-174 899.5,-174"/>
<text text-anchor="middle" x="963.5" y="-181" font-family="Helvetica,sans-Serif" font-size="10.00">menu/xonotic/_mod.inc</text>
</a>
</g>
</g>
<!-- Node21&#45;&gt;Node22 -->
<g id="edge25" class="edge"><title>Node21&#45;&gt;Node22</title>
<path fill="none" stroke="midnightblue" d="M851.522,-231.458C881.469,-218.9 920.043,-202.724 943.214,-193.007"/>
<polygon fill="midnightblue" stroke="midnightblue" points="850.001,-228.301 842.133,-235.396 852.708,-234.756 850.001,-228.301"/>
</g>
<!-- Node23 -->
<g id="node23" class="node"><title>Node23</title>
<g id="a_node23"><a xlink:href="../../dc/d05/menu_2__mod_8inc.html" target="_top" xlink:title="menu/_mod.inc">
<polygon fill="none" stroke="black" points="918,-112.5 918,-131.5 1009,-131.5 1009,-112.5 918,-112.5"/>
<text text-anchor="middle" x="963.5" y="-119.5" font-family="Helvetica,sans-Serif" font-size="10.00">menu/_mod.inc</text>
</a>
</g>
</g>
<!-- Node22&#45;&gt;Node23 -->
<g id="edge26" class="edge"><title>Node22&#45;&gt;Node23</title>
<path fill="none" stroke="midnightblue" d="M963.5,-163.817C963.5,-152.996 963.5,-139.898 963.5,-131.509"/>
<polygon fill="midnightblue" stroke="midnightblue" points="960,-163.975 963.5,-173.975 967,-163.975 960,-163.975"/>
</g>
<!-- Node24 -->
<g id="node24" class="node"><title>Node24</title>
<g id="a_node24"><a xlink:href="../../d3/d70/menu_2progs_8inc.html" target="_top" xlink:title="menu/progs.inc">
<polygon fill="none" stroke="black" points="918,-56.5 918,-75.5 1009,-75.5 1009,-56.5 918,-56.5"/>
<text text-anchor="middle" x="963.5" y="-63.5" font-family="Helvetica,sans-Serif" font-size="10.00">menu/progs.inc</text>
</a>
</g>
</g>
<!-- Node23&#45;&gt;Node24 -->
<g id="edge27" class="edge"><title>Node23&#45;&gt;Node24</title>
<path fill="none" stroke="midnightblue" d="M963.5,-101.805C963.5,-92.9102 963.5,-82.7798 963.5,-75.7511"/>
<polygon fill="midnightblue" stroke="midnightblue" points="960,-102.083 963.5,-112.083 967,-102.083 960,-102.083"/>
</g>
<!-- Node25&#45;&gt;Node22 -->
<g id="edge29" class="edge"><title>Node25&#45;&gt;Node22</title>
<path fill="none" stroke="midnightblue" d="M963.5,-230.537C963.5,-218.17 963.5,-202.62 963.5,-193.127"/>
<polygon fill="midnightblue" stroke="midnightblue" points="960,-230.734 963.5,-240.734 967,-230.734 960,-230.734"/>
</g>
<!-- Node26&#45;&gt;Node22 -->
<g id="edge31" class="edge"><title>Node26&#45;&gt;Node22</title>
<path fill="none" stroke="midnightblue" d="M1088.57,-236.948C1057.88,-224.079 1010.96,-204.403 984.168,-193.167"/>
<polygon fill="midnightblue" stroke="midnightblue" points="1087.34,-240.229 1097.92,-240.869 1090.05,-233.773 1087.34,-240.229"/>
</g>
<!-- Node27&#45;&gt;Node18 -->
<g id="edge35" class="edge"><title>Node27&#45;&gt;Node18</title>
<path fill="none" stroke="midnightblue" d="M2075.64,-113.932C1981.58,-103.01 1802.94,-82.2641 1718.26,-72.4307"/>
<polygon fill="midnightblue" stroke="midnightblue" points="2075.51,-117.441 2085.85,-115.118 2076.32,-110.488 2075.51,-117.441"/>
</g>
<!-- Node28&#45;&gt;Node18 -->
<g id="edge37" class="edge"><title>Node28&#45;&gt;Node18</title>
<path fill="none" stroke="midnightblue" d="M2218.39,-114.326C2211.03,-113.509 2203.59,-112.712 2196.5,-112 2020.15,-94.2716 1810.01,-77.6021 1718.25,-70.5436"/>
<polygon fill="midnightblue" stroke="midnightblue" points="2218,-117.804 2228.33,-115.446 2218.78,-110.848 2218,-117.804"/>
</g>
<!-- Node29&#45;&gt;Node18 -->
<g id="edge39" class="edge"><title>Node29&#45;&gt;Node18</title>
<path fill="none" stroke="midnightblue" d="M1219.17,-111.859C1373.35,-90.9626 1544.35,-76.655 1624.96,-70.4406"/>
<polygon fill="midnightblue" stroke="midnightblue" points="1218.47,-108.421 1209.04,-113.244 1219.42,-115.357 1218.47,-108.421"/>
</g>
<!-- Node30&#45;&gt;Node18 -->
<g id="edge41" class="edge"><title>Node30&#45;&gt;Node18</title>
<path fill="none" stroke="midnightblue" d="M1359.34,-111.011C1436.82,-100.089 1558.74,-82.8986 1624.95,-73.5631"/>
<polygon fill="midnightblue" stroke="midnightblue" points="1358.6,-107.582 1349.19,-112.444 1359.58,-114.513 1358.6,-107.582"/>
</g>
<!-- Node31&#45;&gt;Node18 -->
<g id="edge43" class="edge"><title>Node31&#45;&gt;Node18</title>
<path fill="none" stroke="midnightblue" d="M1471.12,-110.281C1518.37,-100.077 1588.54,-84.9203 1632.07,-75.5164"/>
<polygon fill="midnightblue" stroke="midnightblue" points="1470.15,-106.911 1461.11,-112.444 1471.63,-113.753 1470.15,-106.911"/>
</g>
<!-- Node32&#45;&gt;Node18 -->
<g id="edge45" class="edge"><title>Node32&#45;&gt;Node18</title>
<path fill="none" stroke="midnightblue" d="M1386.6,-170.48C1413.28,-160.807 1451.15,-146.482 1483.5,-132 1501.28,-124.041 1504.44,-119.29 1522.5,-112 1560.71,-96.5781 1606.27,-83.5611 1636.87,-75.5565"/>
<polygon fill="midnightblue" stroke="midnightblue" points="1385.18,-167.27 1376.96,-173.95 1387.55,-173.856 1385.18,-167.27"/>
</g>
<!-- Node34 -->
<g id="node34" class="node"><title>Node34</title>
<g id="a_node34"><a xlink:href="../../d9/dfd/server_2bot_2default_2__mod_8inc.html" target="_top" xlink:title="server/bot/default\l/_mod.inc">
<polygon fill="none" stroke="black" points="1415,-168.5 1415,-198.5 1516,-198.5 1516,-168.5 1415,-168.5"/>
<text text-anchor="start" x="1423" y="-186.5" font-family="Helvetica,sans-Serif" font-size="10.00">server/bot/default</text>
<text text-anchor="middle" x="1465.5" y="-175.5" font-family="Helvetica,sans-Serif" font-size="10.00">/_mod.inc</text>
</a>
</g>
</g>
<!-- Node33&#45;&gt;Node34 -->
<g id="edge47" class="edge"><title>Node33&#45;&gt;Node34</title>
<path fill="none" stroke="midnightblue" d="M1418.99,-228.311C1429.34,-218.561 1441.34,-207.259 1450.56,-198.577"/>
<polygon fill="midnightblue" stroke="midnightblue" points="1416.35,-225.991 1411.47,-235.396 1421.15,-231.087 1416.35,-225.991"/>
</g>
<!-- Node35 -->
<g id="node35" class="node"><title>Node35</title>
<g id="a_node35"><a xlink:href="../../dc/d13/server_2bot_2__mod_8inc.html" target="_top" xlink:title="server/bot/_mod.inc">
<polygon fill="none" stroke="black" points="1531.5,-112.5 1531.5,-131.5 1643.5,-131.5 1643.5,-112.5 1531.5,-112.5"/>
<text text-anchor="middle" x="1587.5" y="-119.5" font-family="Helvetica,sans-Serif" font-size="10.00">server/bot/_mod.inc</text>
</a>
</g>
</g>
<!-- Node34&#45;&gt;Node35 -->
<g id="edge48" class="edge"><title>Node34&#45;&gt;Node35</title>
<path fill="none" stroke="midnightblue" d="M1503.56,-163.94C1525.66,-153.159 1552.47,-140.084 1569.75,-131.658"/>
<polygon fill="midnightblue" stroke="midnightblue" points="1501.87,-160.87 1494.41,-168.399 1504.93,-167.162 1501.87,-160.87"/>
</g>
<!-- Node35&#45;&gt;Node18 -->
<g id="edge49" class="edge"><title>Node35&#45;&gt;Node18</title>
<path fill="none" stroke="midnightblue" d="M1609.43,-106.901C1624.84,-96.9986 1644.95,-84.0705 1658.04,-75.6545"/>
<polygon fill="midnightblue" stroke="midnightblue" points="1607.52,-103.972 1601,-112.324 1611.3,-109.86 1607.52,-103.972"/>
</g>
<!-- Node37 -->
<g id="node37" class="node"><title>Node37</title>
<g id="a_node37"><a xlink:href="../../d8/db6/server_2command_2__mod_8inc.html" target="_top" xlink:title="server/command/_mod.inc">
<polygon fill="none" stroke="black" points="1534,-174 1534,-193 1679,-193 1679,-174 1534,-174"/>
<text text-anchor="middle" x="1606.5" y="-181" font-family="Helvetica,sans-Serif" font-size="10.00">server/command/_mod.inc</text>
</a>
</g>
</g>
<!-- Node36&#45;&gt;Node37 -->
<g id="edge51" class="edge"><title>Node36&#45;&gt;Node37</title>
<path fill="none" stroke="midnightblue" d="M1824.93,-238.484C1773.05,-225.663 1688.48,-204.76 1641.23,-193.083"/>
<polygon fill="midnightblue" stroke="midnightblue" points="1824.3,-241.934 1834.85,-240.936 1825.98,-235.138 1824.3,-241.934"/>
</g>
<!-- Node37&#45;&gt;Node18 -->
<g id="edge52" class="edge"><title>Node37&#45;&gt;Node18</title>
<path fill="none" stroke="midnightblue" d="M1624.25,-166.862C1633.83,-157.578 1645.15,-145.088 1652.5,-132 1662.86,-113.547 1668.04,-88.9085 1670.21,-75.9058"/>
<polygon fill="midnightblue" stroke="midnightblue" points="1621.68,-164.474 1616.75,-173.85 1626.45,-169.597 1621.68,-164.474"/>
</g>
<!-- Node38&#45;&gt;Node37 -->
<g id="edge54" class="edge"><title>Node38&#45;&gt;Node37</title>
<path fill="none" stroke="midnightblue" d="M1561.61,-233.135C1573.34,-220.423 1589.15,-203.298 1598.54,-193.127"/>
<polygon fill="midnightblue" stroke="midnightblue" points="1558.8,-231.012 1554.59,-240.734 1563.95,-235.76 1558.8,-231.012"/>
</g>
<!-- Node39&#45;&gt;Node37 -->
<g id="edge56" class="edge"><title>Node39&#45;&gt;Node37</title>
<path fill="none" stroke="midnightblue" d="M1691.14,-235.442C1669.75,-222.57 1638.78,-203.927 1620.83,-193.127"/>
<polygon fill="midnightblue" stroke="midnightblue" points="1689.56,-238.576 1699.93,-240.734 1693.17,-232.578 1689.56,-238.576"/>
</g>
<!-- Node41 -->
<g id="node41" class="node"><title>Node41</title>
<g id="a_node41"><a xlink:href="../../dc/dd0/server_2compat_2__mod_8inc.html" target="_top" xlink:title="server/compat/_mod.inc">
<polygon fill="none" stroke="black" points="1700,-112.5 1700,-131.5 1833,-131.5 1833,-112.5 1700,-112.5"/>
<text text-anchor="middle" x="1766.5" y="-119.5" font-family="Helvetica,sans-Serif" font-size="10.00">server/compat/_mod.inc</text>
</a>
</g>
</g>
<!-- Node40&#45;&gt;Node41 -->
<g id="edge58" class="edge"><title>Node40&#45;&gt;Node41</title>
<path fill="none" stroke="midnightblue" d="M1766.5,-163.817C1766.5,-152.996 1766.5,-139.898 1766.5,-131.509"/>
<polygon fill="midnightblue" stroke="midnightblue" points="1763,-163.975 1766.5,-173.975 1770,-163.975 1763,-163.975"/>
</g>
<!-- Node41&#45;&gt;Node18 -->
<g id="edge59" class="edge"><title>Node41&#45;&gt;Node18</title>
<path fill="none" stroke="midnightblue" d="M1742.18,-107.177C1724.7,-97.2407 1701.67,-84.1492 1686.73,-75.6545"/>
<polygon fill="midnightblue" stroke="midnightblue" points="1740.81,-110.425 1751.24,-112.324 1744.27,-104.339 1740.81,-110.425"/>
</g>
</g>
</svg>
