<?xml version="1.0" encoding="UTF-8" standalone="no"?>
<!DOCTYPE svg PUBLIC "-//W3C//DTD SVG 1.1//EN"
 "http://www.w3.org/Graphics/SVG/1.1/DTD/svg11.dtd">
<!-- Generated by graphviz version 2.36.0 (20140111.2315)
 -->
<!-- Title: kh_Key_DropAll Pages: 1 -->
<!--zoomable 1114 -->
<svg id="main" version="1.1" xmlns="http://www.w3.org/2000/svg" xmlns:xlink="http://www.w3.org/1999/xlink" xml:space="preserve" onload="init(evt)">
<style type="text/css"><![CDATA[
.edge:hover path { stroke: red; }
.edge:hover polygon { stroke: red; fill: red; }
]]></style>
<script type="text/javascript"><![CDATA[
var edges = document.getElementsByTagName('g');
if (edges && edges.length) {
  for (var i=0;i<edges.length;i++) {
    if (edges[i].id.substr(0,4)=='edge') {
      edges[i].setAttribute('class','edge');
    }
  }
}
]]></script>
        <defs>
                <circle id="rim" cx="0" cy="0" r="7"/>
                <circle id="rim2" cx="0" cy="0" r="3.5"/>
                <g id="zoomPlus">
                        <use xlink:href="#rim" fill="#404040">
                                <set attributeName="fill" to="#808080" begin="zoomplus.mouseover" end="zoomplus.mouseout"/>
                        </use>
                        <path d="M-4,0h8M0,-4v8" fill="none" stroke="white" stroke-width="1.5" pointer-events="none"/>
                </g>
                <g id="zoomMin">
                        <use xlink:href="#rim" fill="#404040">
                                <set attributeName="fill" to="#808080" begin="zoomminus.mouseover" end="zoomminus.mouseout"/>
                        </use>
                        <path d="M-4,0h8" fill="none" stroke="white" stroke-width="1.5" pointer-events="none"/>
                </g>
                <g id="dirArrow">
                        <path fill="none" stroke="white" stroke-width="1.5" d="M0,-3.0v7 M-2.5,-0.5L0,-3.0L2.5,-0.5"/>
                </g>
               <g id="resetDef">
                       <use xlink:href="#rim2" fill="#404040">
                               <set attributeName="fill" to="#808080" begin="reset.mouseover" end="reset.mouseout"/>
                       </use>
               </g>
        </defs>

<script type="text/javascript">
var viewWidth = 776;
var viewHeight = 1114;
var sectionId = 'dynsection-41';
</script>
<script xlink:href="../../svgpan.js"/>
<svg id="graph" class="graph">
<g id="viewport">
<title>kh_Key_DropAll</title>
<!-- Node1 -->
<g id="node1" class="node"><title>Node1</title>
<polygon fill="#bfbfbf" stroke="black" points="0.5,-484.5 0.5,-503.5 87.5,-503.5 87.5,-484.5 0.5,-484.5"/>
<text text-anchor="middle" x="44" y="-491.5" font-family="Helvetica,sans-Serif" font-size="10.00">kh_Key_DropAll</text>
</g>
<!-- Node2 -->
<g id="node2" class="node"><title>Node2</title>
<g id="a_node2"><a xlink:href="../../d4/d0c/csprogsdefs_8qc.html#acbb54a239d76062465dccbc6a6c6e464" target="_top" xlink:title="entity">
<polygon fill="none" stroke="black" points="705.5,-741.5 705.5,-760.5 746.5,-760.5 746.5,-741.5 705.5,-741.5"/>
<text text-anchor="middle" x="726" y="-748.5" font-family="Helvetica,sans-Serif" font-size="10.00">entity</text>
</a>
</g>
</g>
<!-- Node1&#45;&gt;Node2 -->
<g id="edge1" class="edge"><title>Node1&#45;&gt;Node2</title>
<path fill="none" stroke="midnightblue" d="M47.0786,-503.687C54.5115,-537.315 81.6086,-651.67 124,-738 188.551,-869.458 195.095,-919.199 310,-1010 383.956,-1068.44 415.318,-1068.82 508,-1086 569.18,-1097.34 599.323,-1124.76 648,-1086 698.207,-1046.02 718.403,-836.745 723.576,-770.872"/>
<polygon fill="midnightblue" stroke="midnightblue" points="727.086,-770.86 724.348,-760.625 720.106,-770.334 727.086,-770.86"/>
</g>
<!-- Node3 -->
<g id="node3" class="node"><title>Node3</title>
<g id="a_node3"><a xlink:href="../../de/d40/gamemode__keyhunt_8qc.html#a53b6f32f3cf7da87a548e0d8dd30b89a" target="_top" xlink:title="kh_Key_AssignTo">
<polygon fill="none" stroke="black" points="151,-709.5 151,-728.5 247,-728.5 247,-709.5 151,-709.5"/>
<text text-anchor="middle" x="199" y="-716.5" font-family="Helvetica,sans-Serif" font-size="10.00">kh_Key_AssignTo</text>
</a>
</g>
</g>
<!-- Node1&#45;&gt;Node3 -->
<g id="edge2" class="edge"><title>Node1&#45;&gt;Node3</title>
<path fill="none" stroke="midnightblue" d="M51.5742,-503.668C75.0165,-538.142 154.754,-655.403 185.639,-700.822"/>
<polygon fill="midnightblue" stroke="midnightblue" points="182.933,-703.067 191.45,-709.368 188.721,-699.131 182.933,-703.067"/>
</g>
<!-- Node17 -->
<g id="node17" class="node"><title>Node17</title>
<g id="a_node17"><a xlink:href="../../de/d40/gamemode__keyhunt_8qc.html#a24fba324c185ddf090d87683b01a02ce" target="_top" xlink:title="kh_Scores_Event">
<polygon fill="none" stroke="black" points="152,-484.5 152,-503.5 246,-503.5 246,-484.5 152,-484.5"/>
<text text-anchor="middle" x="199" y="-491.5" font-family="Helvetica,sans-Serif" font-size="10.00">kh_Scores_Event</text>
</a>
</g>
</g>
<!-- Node1&#45;&gt;Node17 -->
<g id="edge27" class="edge"><title>Node1&#45;&gt;Node17</title>
<path fill="none" stroke="midnightblue" d="M87.619,-494C104.402,-494 123.911,-494 141.818,-494"/>
<polygon fill="midnightblue" stroke="midnightblue" points="141.858,-497.5 151.858,-494 141.858,-490.5 141.858,-497.5"/>
</g>
<!-- Node29 -->
<g id="node29" class="node"><title>Node29</title>
<g id="a_node29"><a xlink:href="../../de/d40/gamemode__keyhunt_8qc.html#a04faf2679fdcfe0ec94f5efedf316eef" target="_top" xlink:title="kh_Team_ByID">
<polygon fill="none" stroke="black" points="156.5,-446.5 156.5,-465.5 241.5,-465.5 241.5,-446.5 156.5,-446.5"/>
<text text-anchor="middle" x="199" y="-453.5" font-family="Helvetica,sans-Serif" font-size="10.00">kh_Team_ByID</text>
</a>
</g>
</g>
<!-- Node1&#45;&gt;Node29 -->
<g id="edge41" class="edge"><title>Node1&#45;&gt;Node29</title>
<path fill="none" stroke="midnightblue" d="M83.6084,-484.411C103.707,-479.419 128.475,-473.268 149.819,-467.967"/>
<polygon fill="midnightblue" stroke="midnightblue" points="150.808,-471.327 159.669,-465.52 149.12,-464.534 150.808,-471.327"/>
</g>
<!-- Node30 -->
<g id="node30" class="node"><title>Node30</title>
<g id="a_node30"><a xlink:href="../../d2/d79/scores_8qc.html#aebb89cf706a7b2fe6037e3ab4e56dfe4" target="_top" xlink:title="Adds a score to the player&#39;s scores. ">
<polygon fill="none" stroke="black" points="345,-551.5 345,-570.5 437,-570.5 437,-551.5 345,-551.5"/>
<text text-anchor="middle" x="391" y="-558.5" font-family="Helvetica,sans-Serif" font-size="10.00">PlayerScore_Add</text>
</a>
</g>
</g>
<!-- Node1&#45;&gt;Node30 -->
<g id="edge42" class="edge"><title>Node1&#45;&gt;Node30</title>
<path fill="none" stroke="midnightblue" d="M82.6728,-503.528C95.7239,-506.704 110.472,-510.155 124,-513 196.478,-528.242 280.693,-542.934 334.624,-551.962"/>
<polygon fill="midnightblue" stroke="midnightblue" points="334.224,-555.443 344.663,-553.635 335.375,-548.538 334.224,-555.443"/>
</g>
<!-- Node32 -->
<g id="node32" class="node"><title>Node32</title>
<g id="a_node32"><a xlink:href="../../d8/de2/menudefs_8qc.html#a663ea6aa3c4923b3e065cf91cc319f1b" target="_top" xlink:title="random">
<polygon fill="none" stroke="black" points="174.5,-408.5 174.5,-427.5 223.5,-427.5 223.5,-408.5 174.5,-408.5"/>
<text text-anchor="middle" x="199" y="-415.5" font-family="Helvetica,sans-Serif" font-size="10.00">random</text>
</a>
</g>
</g>
<!-- Node1&#45;&gt;Node32 -->
<g id="edge46" class="edge"><title>Node1&#45;&gt;Node32</title>
<path fill="none" stroke="midnightblue" d="M55.426,-484.48C69.8138,-471.835 97.0459,-449.629 124,-437 136.605,-431.094 151.311,-426.837 164.278,-423.87"/>
<polygon fill="midnightblue" stroke="midnightblue" points="165.173,-427.258 174.23,-421.76 163.721,-420.41 165.173,-427.258"/>
</g>
<!-- Node33 -->
<g id="node33" class="node"><title>Node33</title>
<g id="a_node33"><a xlink:href="../../d7/d31/tracing_8qc.html#a01fdafeeb02668e5b55cce3baccf9d01" target="_top" xlink:title="W_CalculateProjectileVelocity">
<polygon fill="none" stroke="black" points="124.5,-114.5 124.5,-133.5 273.5,-133.5 273.5,-114.5 124.5,-114.5"/>
<text text-anchor="middle" x="199" y="-121.5" font-family="Helvetica,sans-Serif" font-size="10.00">W_CalculateProjectileVelocity</text>
</a>
</g>
</g>
<!-- Node1&#45;&gt;Node33 -->
<g id="edge47" class="edge"><title>Node1&#45;&gt;Node33</title>
<path fill="none" stroke="midnightblue" d="M48.9358,-484.482C69.2258,-435.415 162.138,-210.725 190.049,-143.228"/>
<polygon fill="midnightblue" stroke="midnightblue" points="193.362,-144.375 193.949,-133.796 186.893,-141.7 193.362,-144.375"/>
</g>
<!-- Node3&#45;&gt;Node2 -->
<g id="edge3" class="edge"><title>Node3&#45;&gt;Node2</title>
<path fill="none" stroke="midnightblue" d="M234.858,-709.385C256.334,-703.965 284.542,-697.745 310,-695 459.798,-678.848 502.363,-682.399 648,-721 664.338,-725.33 681.946,-732.029 696.195,-737.998"/>
<polygon fill="midnightblue" stroke="midnightblue" points="694.896,-741.25 705.466,-741.977 697.657,-734.817 694.896,-741.25"/>
</g>
<!-- Node4 -->
<g id="node4" class="node"><title>Node4</title>
<g id="a_node4"><a xlink:href="../../de/d40/gamemode__keyhunt_8qc.html#a1acc2a31bfed7c384b5de6e4bc1e4c22" target="_top" xlink:title="kh_Key_AllOwnedByWhichTeam">
<polygon fill="none" stroke="black" points="310.5,-627.5 310.5,-646.5 471.5,-646.5 471.5,-627.5 310.5,-627.5"/>
<text text-anchor="middle" x="391" y="-634.5" font-family="Helvetica,sans-Serif" font-size="10.00">kh_Key_AllOwnedByWhichTeam</text>
</a>
</g>
</g>
<!-- Node3&#45;&gt;Node4 -->
<g id="edge4" class="edge"><title>Node3&#45;&gt;Node4</title>
<path fill="none" stroke="midnightblue" d="M215.926,-709.338C236.909,-696.907 275.232,-675.224 310,-661 320.481,-656.712 332.012,-652.807 342.977,-649.45"/>
<polygon fill="midnightblue" stroke="midnightblue" points="344.249,-652.724 352.841,-646.526 342.259,-646.012 344.249,-652.724"/>
</g>
<!-- Node6 -->
<g id="node6" class="node"><title>Node6</title>
<g id="a_node6"><a xlink:href="../../de/d40/gamemode__keyhunt_8qc.html#ac424bffde3e5ff6093b81edd08b9f690" target="_top" xlink:title="kh_Key_Attach">
<polygon fill="none" stroke="black" points="349.5,-823.5 349.5,-842.5 432.5,-842.5 432.5,-823.5 349.5,-823.5"/>
<text text-anchor="middle" x="391" y="-830.5" font-family="Helvetica,sans-Serif" font-size="10.00">kh_Key_Attach</text>
</a>
</g>
</g>
<!-- Node3&#45;&gt;Node6 -->
<g id="edge7" class="edge"><title>Node3&#45;&gt;Node6</title>
<path fill="none" stroke="midnightblue" d="M215.872,-728.523C248.983,-748.39 325.623,-794.374 365.261,-818.156"/>
<polygon fill="midnightblue" stroke="midnightblue" points="363.663,-821.28 374.039,-823.423 367.265,-815.277 363.663,-821.28"/>
</g>
<!-- Node12 -->
<g id="node12" class="node"><title>Node12</title>
<g id="a_node12"><a xlink:href="../../de/d40/gamemode__keyhunt_8qc.html#a5b49f203806993cfa8819cea2b46cb58" target="_top" xlink:title="kh_Key_Detach">
<polygon fill="none" stroke="black" points="348,-981.5 348,-1000.5 434,-1000.5 434,-981.5 348,-981.5"/>
<text text-anchor="middle" x="391" y="-988.5" font-family="Helvetica,sans-Serif" font-size="10.00">kh_Key_Detach</text>
</a>
</g>
</g>
<!-- Node3&#45;&gt;Node12 -->
<g id="edge15" class="edge"><title>Node3&#45;&gt;Node12</title>
<path fill="none" stroke="midnightblue" d="M206.762,-728.681C234.638,-768.587 340.889,-920.694 377.508,-973.117"/>
<polygon fill="midnightblue" stroke="midnightblue" points="374.723,-975.242 383.319,-981.435 380.462,-971.233 374.723,-975.242"/>
</g>
<!-- Node15 -->
<g id="node15" class="node"><title>Node15</title>
<g id="a_node15"><a xlink:href="../../de/d40/gamemode__keyhunt_8qc.html#a923cf23a4a0359014c786bb93ce02cc4" target="_top" xlink:title="kh_KeyCarrier_waypointsprite\l_visible_for_player">
<polygon fill="none" stroke="black" points="317.5,-704 317.5,-734 464.5,-734 464.5,-704 317.5,-704"/>
<text text-anchor="start" x="325.5" y="-722" font-family="Helvetica,sans-Serif" font-size="10.00">kh_KeyCarrier_waypointsprite</text>
<text text-anchor="middle" x="391" y="-711" font-family="Helvetica,sans-Serif" font-size="10.00">_visible_for_player</text>
</a>
</g>
</g>
<!-- Node3&#45;&gt;Node15 -->
<g id="edge24" class="edge"><title>Node3&#45;&gt;Node15</title>
<path fill="none" stroke="midnightblue" d="M247.455,-719C265.509,-719 286.649,-719 307.037,-719"/>
<polygon fill="midnightblue" stroke="midnightblue" points="307.288,-722.5 317.288,-719 307.288,-715.5 307.288,-722.5"/>
</g>
<!-- Node16 -->
<g id="node16" class="node"><title>Node16</title>
<g id="a_node16"><a xlink:href="../../de/d40/gamemode__keyhunt_8qc.html#af0b0677c2ea223d7b4b626fa9e83ccd7" target="_top" xlink:title="kh_update_state">
<polygon fill="none" stroke="black" points="346.5,-753.5 346.5,-772.5 435.5,-772.5 435.5,-753.5 346.5,-753.5"/>
<text text-anchor="middle" x="391" y="-760.5" font-family="Helvetica,sans-Serif" font-size="10.00">kh_update_state</text>
</a>
</g>
</g>
<!-- Node3&#45;&gt;Node16 -->
<g id="edge25" class="edge"><title>Node3&#45;&gt;Node16</title>
<path fill="none" stroke="midnightblue" d="M241.227,-728.547C269.86,-735.178 308.21,-744.059 338.801,-751.143"/>
<polygon fill="midnightblue" stroke="midnightblue" points="338.321,-754.625 348.853,-753.471 339.901,-747.805 338.321,-754.625"/>
</g>
<!-- Node4&#45;&gt;Node2 -->
<g id="edge5" class="edge"><title>Node4&#45;&gt;Node2</title>
<path fill="none" stroke="midnightblue" d="M414.405,-627.45C461.343,-609.038 571.94,-574.147 648,-618 690.613,-642.569 711.784,-700.728 720.296,-731.355"/>
<polygon fill="midnightblue" stroke="midnightblue" points="716.973,-732.481 722.876,-741.279 723.748,-730.72 716.973,-732.481"/>
</g>
<!-- Node5 -->
<g id="node5" class="node"><title>Node5</title>
<g id="a_node5"><a xlink:href="../../d5/d14/scores__rules_8qc.html#ae01e878023ee1a5ecc45cc3d62c3895f" target="_top" xlink:title="NumTeams">
<polygon fill="none" stroke="black" points="544,-627.5 544,-646.5 612,-646.5 612,-627.5 544,-627.5"/>
<text text-anchor="middle" x="578" y="-634.5" font-family="Helvetica,sans-Serif" font-size="10.00">NumTeams</text>
</a>
</g>
</g>
<!-- Node4&#45;&gt;Node5 -->
<g id="edge6" class="edge"><title>Node4&#45;&gt;Node5</title>
<path fill="none" stroke="midnightblue" d="M471.53,-637C492.75,-637 514.899,-637 533.39,-637"/>
<polygon fill="midnightblue" stroke="midnightblue" points="533.538,-640.5 543.538,-637 533.538,-633.5 533.538,-640.5"/>
</g>
<!-- Node6&#45;&gt;Node2 -->
<g id="edge8" class="edge"><title>Node6&#45;&gt;Node2</title>
<path fill="none" stroke="midnightblue" d="M431.036,-823.402C481.236,-811.056 571.117,-788.946 648,-770 663.707,-766.13 681.214,-761.81 695.561,-758.269"/>
<polygon fill="midnightblue" stroke="midnightblue" points="696.509,-761.64 705.379,-755.845 694.832,-754.844 696.509,-761.64"/>
</g>
<!-- Node7 -->
<g id="node7" class="node"><title>Node7</title>
<g id="a_node7"><a xlink:href="../../d9/d51/intrusivelist_8qh.html#a385bb2612b4fc3e23b299195944d8925" target="_top" xlink:title="IL_CONTAINS">
<polygon fill="none" stroke="black" points="684.5,-1057.5 684.5,-1076.5 767.5,-1076.5 767.5,-1057.5 684.5,-1057.5"/>
<text text-anchor="middle" x="726" y="-1064.5" font-family="Helvetica,sans-Serif" font-size="10.00">IL_CONTAINS</text>
</a>
</g>
</g>
<!-- Node6&#45;&gt;Node7 -->
<g id="edge9" class="edge"><title>Node6&#45;&gt;Node7</title>
<path fill="none" stroke="midnightblue" d="M432.608,-842.016C502.678,-857.71 639.647,-889.043 648,-896 695.857,-935.861 715.187,-1011.63 721.901,-1047.39"/>
<polygon fill="midnightblue" stroke="midnightblue" points="718.497,-1048.24 723.658,-1057.5 725.394,-1047.05 718.497,-1048.24"/>
</g>
<!-- Node8 -->
<g id="node8" class="node"><title>Node8</title>
<g id="a_node8"><a xlink:href="../../d9/d51/intrusivelist_8qh.html#a174c5e1663141fca4c79834b1b4d71e1" target="_top" xlink:title="Remove any element, anywhere in the list. ">
<polygon fill="none" stroke="black" points="541,-741.5 541,-760.5 615,-760.5 615,-741.5 541,-741.5"/>
<text text-anchor="middle" x="578" y="-748.5" font-family="Helvetica,sans-Serif" font-size="10.00">IL_REMOVE</text>
</a>
</g>
</g>
<!-- Node6&#45;&gt;Node8 -->
<g id="edge10" class="edge"><title>Node6&#45;&gt;Node8</title>
<path fill="none" stroke="midnightblue" d="M409.356,-823.437C431.753,-811.305 472.11,-790.14 508,-775 517.28,-771.085 527.443,-767.29 537.047,-763.916"/>
<polygon fill="midnightblue" stroke="midnightblue" points="538.474,-767.127 546.793,-760.566 536.199,-760.507 538.474,-767.127"/>
</g>
<!-- Node9 -->
<g id="node9" class="node"><title>Node9</title>
<g id="a_node9"><a xlink:href="../../db/d15/api_8qh.html#af3180b7544df1c7106b080ca79486a19" target="_top" xlink:title="navigation_dynamicgoal\l_unset">
<polygon fill="none" stroke="black" points="517.5,-818 517.5,-848 638.5,-848 638.5,-818 517.5,-818"/>
<text text-anchor="start" x="525.5" y="-836" font-family="Helvetica,sans-Serif" font-size="10.00">navigation_dynamicgoal</text>
<text text-anchor="middle" x="578" y="-825" font-family="Helvetica,sans-Serif" font-size="10.00">_unset</text>
</a>
</g>
</g>
<!-- Node6&#45;&gt;Node9 -->
<g id="edge12" class="edge"><title>Node6&#45;&gt;Node9</title>
<path fill="none" stroke="midnightblue" d="M432.599,-833C454.381,-833 481.839,-833 506.948,-833"/>
<polygon fill="midnightblue" stroke="midnightblue" points="507.172,-836.5 517.172,-833 507.172,-829.5 507.172,-836.5"/>
</g>
<!-- Node10 -->
<g id="node10" class="node"><title>Node10</title>
<g id="a_node10"><a xlink:href="../../d4/dd7/movetypes_8qh.html#a8bf89be84cb481d218ff41140eacff78" target="_top" xlink:title="set_movetype">
<polygon fill="none" stroke="black" points="539,-905.5 539,-924.5 617,-924.5 617,-905.5 539,-905.5"/>
<text text-anchor="middle" x="578" y="-912.5" font-family="Helvetica,sans-Serif" font-size="10.00">set_movetype</text>
</a>
</g>
</g>
<!-- Node6&#45;&gt;Node10 -->
<g id="edge13" class="edge"><title>Node6&#45;&gt;Node10</title>
<path fill="none" stroke="midnightblue" d="M409.356,-842.563C431.753,-854.695 472.11,-875.86 508,-891 517.28,-894.915 527.443,-898.71 537.047,-902.084"/>
<polygon fill="midnightblue" stroke="midnightblue" points="536.199,-905.493 546.793,-905.434 538.474,-898.873 536.199,-905.493"/>
</g>
<!-- Node11 -->
<g id="node11" class="node"><title>Node11</title>
<g id="a_node11"><a xlink:href="../../d5/dff/ent__cs_8qc.html#ac459a724c1fe031c6658fff554b12ea8" target="_top" xlink:title="setorigin">
<polygon fill="none" stroke="black" points="551.5,-943.5 551.5,-962.5 604.5,-962.5 604.5,-943.5 551.5,-943.5"/>
<text text-anchor="middle" x="578" y="-950.5" font-family="Helvetica,sans-Serif" font-size="10.00">setorigin</text>
</a>
</g>
</g>
<!-- Node6&#45;&gt;Node11 -->
<g id="edge14" class="edge"><title>Node6&#45;&gt;Node11</title>
<path fill="none" stroke="midnightblue" d="M400.258,-842.658C417.942,-862.724 461.648,-909.125 508,-934 518.31,-939.533 530.372,-943.566 541.502,-946.455"/>
<polygon fill="midnightblue" stroke="midnightblue" points="540.846,-949.896 551.384,-948.795 542.46,-943.085 540.846,-949.896"/>
</g>
<!-- Node8&#45;&gt;Node2 -->
<g id="edge11" class="edge"><title>Node8&#45;&gt;Node2</title>
<path fill="none" stroke="midnightblue" d="M615.09,-751C639.729,-751 671.982,-751 695.168,-751"/>
<polygon fill="midnightblue" stroke="midnightblue" points="695.435,-754.5 705.435,-751 695.435,-747.5 695.435,-754.5"/>
</g>
<!-- Node12&#45;&gt;Node2 -->
<g id="edge16" class="edge"><title>Node12&#45;&gt;Node2</title>
<path fill="none" stroke="midnightblue" d="M412.08,-1000.52C458.749,-1021.09 576.019,-1063.69 648,-1010 687.399,-980.61 713.892,-825.779 722.207,-770.574"/>
<polygon fill="midnightblue" stroke="midnightblue" points="725.674,-771.059 723.665,-760.656 718.748,-770.041 725.674,-771.059"/>
</g>
<!-- Node12&#45;&gt;Node7 -->
<g id="edge17" class="edge"><title>Node12&#45;&gt;Node7</title>
<path fill="none" stroke="midnightblue" d="M399.691,-1000.75C416.615,-1021.31 459.463,-1068.66 508,-1086 568.298,-1107.54 643.756,-1092.28 687.946,-1079.47"/>
<polygon fill="midnightblue" stroke="midnightblue" points="689.114,-1082.77 697.681,-1076.54 687.097,-1076.07 689.114,-1082.77"/>
</g>
<!-- Node12&#45;&gt;Node10 -->
<g id="edge22" class="edge"><title>Node12&#45;&gt;Node10</title>
<path fill="none" stroke="midnightblue" d="M408.845,-981.466C431.026,-969.207 471.497,-947.853 508,-934 514.788,-931.424 522.073,-929.034 529.274,-926.879"/>
<polygon fill="midnightblue" stroke="midnightblue" points="530.34,-930.214 538.986,-924.091 528.409,-923.486 530.34,-930.214"/>
</g>
<!-- Node12&#45;&gt;Node11 -->
<g id="edge23" class="edge"><title>Node12&#45;&gt;Node11</title>
<path fill="none" stroke="midnightblue" d="M434.443,-982.282C466.837,-975.628 510.953,-966.566 541.491,-960.294"/>
<polygon fill="midnightblue" stroke="midnightblue" points="542.199,-963.721 551.29,-958.281 540.79,-956.865 542.199,-963.721"/>
</g>
<!-- Node13 -->
<g id="node13" class="node"><title>Node13</title>
<g id="a_node13"><a xlink:href="../../d9/d51/intrusivelist_8qh.html#a1dc3261f72901c53357b5e01d94cb556" target="_top" xlink:title="Push to tail. ">
<polygon fill="none" stroke="black" points="548.5,-1057.5 548.5,-1076.5 607.5,-1076.5 607.5,-1057.5 548.5,-1057.5"/>
<text text-anchor="middle" x="578" y="-1064.5" font-family="Helvetica,sans-Serif" font-size="10.00">IL_PUSH</text>
</a>
</g>
</g>
<!-- Node12&#45;&gt;Node13 -->
<g id="edge18" class="edge"><title>Node12&#45;&gt;Node13</title>
<path fill="none" stroke="midnightblue" d="M411.892,-1000.55C434.819,-1011.41 473.746,-1029.39 508,-1043 517.813,-1046.9 528.541,-1050.8 538.55,-1054.29"/>
<polygon fill="midnightblue" stroke="midnightblue" points="537.665,-1057.68 548.26,-1057.63 539.941,-1051.06 537.665,-1057.68"/>
</g>
<!-- Node14 -->
<g id="node14" class="node"><title>Node14</title>
<g id="a_node14"><a xlink:href="../../db/d15/api_8qh.html#a5848061af05382b84c2d5231c59759f1" target="_top" xlink:title="navigation_dynamicgoal_set">
<polygon fill="none" stroke="black" points="508,-981.5 508,-1000.5 648,-1000.5 648,-981.5 508,-981.5"/>
<text text-anchor="middle" x="578" y="-988.5" font-family="Helvetica,sans-Serif" font-size="10.00">navigation_dynamicgoal_set</text>
</a>
</g>
</g>
<!-- Node12&#45;&gt;Node14 -->
<g id="edge21" class="edge"><title>Node12&#45;&gt;Node14</title>
<path fill="none" stroke="midnightblue" d="M434.443,-991C453.229,-991 475.958,-991 497.695,-991"/>
<polygon fill="midnightblue" stroke="midnightblue" points="497.928,-994.5 507.928,-991 497.928,-987.5 497.928,-994.5"/>
</g>
<!-- Node13&#45;&gt;Node2 -->
<g id="edge19" class="edge"><title>Node13&#45;&gt;Node2</title>
<path fill="none" stroke="midnightblue" d="M607.629,-1063.41C621.588,-1060.24 637.574,-1054.26 648,-1043 721.515,-963.602 726.541,-822.433 725.728,-770.702"/>
<polygon fill="midnightblue" stroke="midnightblue" points="729.223,-770.472 725.471,-760.564 722.226,-770.65 729.223,-770.472"/>
</g>
<!-- Node13&#45;&gt;Node7 -->
<g id="edge20" class="edge"><title>Node13&#45;&gt;Node7</title>
<path fill="none" stroke="midnightblue" d="M607.845,-1067C626.713,-1067 651.885,-1067 674.059,-1067"/>
<polygon fill="midnightblue" stroke="midnightblue" points="674.332,-1070.5 684.332,-1067 674.332,-1063.5 674.332,-1070.5"/>
</g>
<!-- Node16&#45;&gt;Node2 -->
<g id="edge26" class="edge"><title>Node16&#45;&gt;Node2</title>
<path fill="none" stroke="midnightblue" d="M431.985,-753.433C444.802,-750.252 459.033,-746.599 472,-743 488.121,-738.525 491.453,-734.472 508,-732 569.54,-722.808 586.232,-724.492 648,-732 663.948,-733.939 681.354,-738.057 695.576,-741.965"/>
<polygon fill="midnightblue" stroke="midnightblue" points="694.727,-745.363 705.303,-744.74 696.647,-738.631 694.727,-745.363"/>
</g>
<!-- Node18 -->
<g id="node18" class="node"><title>Node18</title>
<g id="a_node18"><a xlink:href="../../d5/d26/server_2defs_8qh.html#a7e53366415188b2157d76a7250422580" target="_top" xlink:title="UpdateFrags">
<polygon fill="none" stroke="black" points="354.5,-513.5 354.5,-532.5 427.5,-532.5 427.5,-513.5 354.5,-513.5"/>
<text text-anchor="middle" x="391" y="-520.5" font-family="Helvetica,sans-Serif" font-size="10.00">UpdateFrags</text>
</a>
</g>
</g>
<!-- Node17&#45;&gt;Node18 -->
<g id="edge28" class="edge"><title>Node17&#45;&gt;Node18</title>
<path fill="none" stroke="midnightblue" d="M246.479,-501.094C276.256,-505.639 314.728,-511.511 344.343,-516.031"/>
<polygon fill="midnightblue" stroke="midnightblue" points="344.006,-519.52 354.42,-517.569 345.063,-512.601 344.006,-519.52"/>
</g>
<!-- Node19 -->
<g id="node19" class="node"><title>Node19</title>
<g id="a_node19"><a xlink:href="../../d8/de2/menudefs_8qc.html#ad76dc2b2895cd23f21e008f12a686158" target="_top" xlink:title="strcat">
<polygon fill="none" stroke="black" points="557.5,-475.5 557.5,-494.5 598.5,-494.5 598.5,-475.5 557.5,-475.5"/>
<text text-anchor="middle" x="578" y="-482.5" font-family="Helvetica,sans-Serif" font-size="10.00">strcat</text>
</a>
</g>
</g>
<!-- Node17&#45;&gt;Node19 -->
<g id="edge29" class="edge"><title>Node17&#45;&gt;Node19</title>
<path fill="none" stroke="midnightblue" d="M246.228,-492.896C324.64,-491.025 481.578,-487.278 547.141,-485.713"/>
<polygon fill="midnightblue" stroke="midnightblue" points="547.299,-489.21 557.212,-485.472 547.131,-482.212 547.299,-489.21"/>
</g>
<!-- Node20 -->
<g id="node20" class="node"><title>Node20</title>
<g id="a_node20"><a xlink:href="../../d8/de2/menudefs_8qc.html#abbb0d86741e0056b6c04f7280c185d76" target="_top" xlink:title="ftos">
<polygon fill="none" stroke="black" points="561.5,-437.5 561.5,-456.5 594.5,-456.5 594.5,-437.5 561.5,-437.5"/>
<text text-anchor="middle" x="578" y="-444.5" font-family="Helvetica,sans-Serif" font-size="10.00">ftos</text>
</a>
</g>
</g>
<!-- Node17&#45;&gt;Node20 -->
<g id="edge30" class="edge"><title>Node17&#45;&gt;Node20</title>
<path fill="none" stroke="midnightblue" d="M246.228,-488.237C326.171,-478.27 487.738,-458.128 550.877,-450.257"/>
<polygon fill="midnightblue" stroke="midnightblue" points="551.656,-453.687 561.146,-448.976 550.79,-446.741 551.656,-453.687"/>
</g>
<!-- Node21 -->
<g id="node21" class="node"><title>Node21</title>
<g id="a_node21"><a xlink:href="../../dc/dc6/server_2miscfunctions_8qc.html#ad8252ef534185c1cbbde32e65a01a5b3" target="_top" xlink:title="GameLogEcho">
<polygon fill="none" stroke="black" points="350.5,-361.5 350.5,-380.5 431.5,-380.5 431.5,-361.5 350.5,-361.5"/>
<text text-anchor="middle" x="391" y="-368.5" font-family="Helvetica,sans-Serif" font-size="10.00">GameLogEcho</text>
</a>
</g>
</g>
<!-- Node17&#45;&gt;Node21 -->
<g id="edge31" class="edge"><title>Node17&#45;&gt;Node21</title>
<path fill="none" stroke="midnightblue" d="M246.001,-486.82C255.706,-484.064 265.554,-480.257 274,-475 294.872,-462.008 292.192,-449.951 310,-433 328.149,-415.725 350.9,-398.459 367.496,-386.551"/>
<polygon fill="midnightblue" stroke="midnightblue" points="369.874,-389.155 376.014,-380.521 365.83,-383.442 369.874,-389.155"/>
</g>
<!-- Node21&#45;&gt;Node19 -->
<g id="edge38" class="edge"><title>Node21&#45;&gt;Node19</title>
<path fill="none" stroke="midnightblue" d="M400.941,-380.638C419.21,-399.764 462.917,-442.675 508,-466 520.243,-472.334 534.832,-476.746 547.436,-479.713"/>
<polygon fill="midnightblue" stroke="midnightblue" points="546.947,-483.188 557.46,-481.876 548.423,-476.346 546.947,-483.188"/>
</g>
<!-- Node21&#45;&gt;Node20 -->
<g id="edge37" class="edge"><title>Node21&#45;&gt;Node20</title>
<path fill="none" stroke="midnightblue" d="M408.845,-380.534C431.026,-392.793 471.497,-414.147 508,-428 522.116,-433.357 538.378,-437.909 551.567,-441.214"/>
<polygon fill="midnightblue" stroke="midnightblue" points="550.845,-444.64 561.387,-443.588 552.49,-437.836 550.845,-444.64"/>
</g>
<!-- Node22 -->
<g id="node22" class="node"><title>Node22</title>
<g id="a_node22"><a xlink:href="../../d8/de2/menudefs_8qc.html#a0b350379da8a7002dee40a3598bf33c3" target="_top" xlink:title="cvar_set">
<polygon fill="none" stroke="black" points="551,-285.5 551,-304.5 605,-304.5 605,-285.5 551,-285.5"/>
<text text-anchor="middle" x="578" y="-292.5" font-family="Helvetica,sans-Serif" font-size="10.00">cvar_set</text>
</a>
</g>
</g>
<!-- Node21&#45;&gt;Node22 -->
<g id="edge32" class="edge"><title>Node21&#45;&gt;Node22</title>
<path fill="none" stroke="midnightblue" d="M408.845,-361.466C431.026,-349.207 471.497,-327.853 508,-314 518.476,-310.024 530.133,-306.492 540.84,-303.584"/>
<polygon fill="midnightblue" stroke="midnightblue" points="541.956,-306.91 550.744,-300.993 540.184,-300.138 541.956,-306.91"/>
</g>
<!-- Node23 -->
<g id="node23" class="node"><title>Node23</title>
<g id="a_node23"><a xlink:href="../../db/d9b/server_2player_8qc.html#a0390f6703ace29f61655694b8821d84a" target="_top" xlink:title="print(), but only print if the server is not local ">
<polygon fill="none" stroke="black" points="536.5,-247.5 536.5,-266.5 619.5,-266.5 619.5,-247.5 536.5,-247.5"/>
<text text-anchor="middle" x="578" y="-254.5" font-family="Helvetica,sans-Serif" font-size="10.00">dedicated_print</text>
</a>
</g>
</g>
<!-- Node21&#45;&gt;Node23 -->
<g id="edge33" class="edge"><title>Node21&#45;&gt;Node23</title>
<path fill="none" stroke="midnightblue" d="M400.941,-361.362C419.21,-342.236 462.917,-299.325 508,-276 513.721,-273.04 519.955,-270.5 526.259,-268.33"/>
<polygon fill="midnightblue" stroke="midnightblue" points="527.669,-271.556 536.16,-265.22 525.571,-264.878 527.669,-271.556"/>
</g>
<!-- Node25 -->
<g id="node25" class="node"><title>Node25</title>
<g id="a_node25"><a xlink:href="../../d8/de2/menudefs_8qc.html#a5231f4ff2813f7de782b67d25a9e4cf9" target="_top" xlink:title="fopen">
<polygon fill="none" stroke="black" points="557.5,-209.5 557.5,-228.5 598.5,-228.5 598.5,-209.5 557.5,-209.5"/>
<text text-anchor="middle" x="578" y="-216.5" font-family="Helvetica,sans-Serif" font-size="10.00">fopen</text>
</a>
</g>
</g>
<!-- Node21&#45;&gt;Node25 -->
<g id="edge35" class="edge"><title>Node21&#45;&gt;Node25</title>
<path fill="none" stroke="midnightblue" d="M397.646,-361.247C412.427,-336.604 454.822,-271.424 508,-238 519.752,-230.613 534.388,-226.055 547.152,-223.264"/>
<polygon fill="midnightblue" stroke="midnightblue" points="548.168,-226.633 557.33,-221.311 546.849,-219.758 548.168,-226.633"/>
</g>
<!-- Node26 -->
<g id="node26" class="node"><title>Node26</title>
<g id="a_node26"><a xlink:href="../../d8/de2/menudefs_8qc.html#a33a318a59e2648521862f24200a821df" target="_top" xlink:title="fputs">
<polygon fill="none" stroke="black" points="559,-399.5 559,-418.5 597,-418.5 597,-399.5 559,-399.5"/>
<text text-anchor="middle" x="578" y="-406.5" font-family="Helvetica,sans-Serif" font-size="10.00">fputs</text>
</a>
</g>
</g>
<!-- Node21&#45;&gt;Node26 -->
<g id="edge36" class="edge"><title>Node21&#45;&gt;Node26</title>
<path fill="none" stroke="midnightblue" d="M431.687,-379.152C466.98,-386.401 517.7,-396.819 548.937,-403.236"/>
<polygon fill="midnightblue" stroke="midnightblue" points="548.233,-406.664 558.733,-405.248 549.641,-399.807 548.233,-406.664"/>
</g>
<!-- Node27 -->
<g id="node27" class="node"><title>Node27</title>
<g id="a_node27"><a xlink:href="../../d8/de2/menudefs_8qc.html#a274680f571a231ddf29421b93d434bfa" target="_top" xlink:title="strlen">
<polygon fill="none" stroke="black" points="557.5,-361.5 557.5,-380.5 598.5,-380.5 598.5,-361.5 557.5,-361.5"/>
<text text-anchor="middle" x="578" y="-368.5" font-family="Helvetica,sans-Serif" font-size="10.00">strlen</text>
</a>
</g>
</g>
<!-- Node21&#45;&gt;Node27 -->
<g id="edge39" class="edge"><title>Node21&#45;&gt;Node27</title>
<path fill="none" stroke="midnightblue" d="M431.687,-371C466.257,-371 515.627,-371 546.992,-371"/>
<polygon fill="midnightblue" stroke="midnightblue" points="547.281,-374.5 557.281,-371 547.281,-367.5 547.281,-374.5"/>
</g>
<!-- Node28 -->
<g id="node28" class="node"><title>Node28</title>
<g id="a_node28"><a xlink:href="../../d8/de2/menudefs_8qc.html#a40f6c65c8bbcfa51df783f2809a2502b" target="_top" xlink:title="substring">
<polygon fill="none" stroke="black" points="550,-323.5 550,-342.5 606,-342.5 606,-323.5 550,-323.5"/>
<text text-anchor="middle" x="578" y="-330.5" font-family="Helvetica,sans-Serif" font-size="10.00">substring</text>
</a>
</g>
</g>
<!-- Node21&#45;&gt;Node28 -->
<g id="edge40" class="edge"><title>Node21&#45;&gt;Node28</title>
<path fill="none" stroke="midnightblue" d="M431.687,-362.848C463.737,-356.265 508.509,-347.068 539.859,-340.629"/>
<polygon fill="midnightblue" stroke="midnightblue" points="540.847,-343.999 549.938,-338.559 539.439,-337.142 540.847,-343.999"/>
</g>
<!-- Node24 -->
<g id="node24" class="node"><title>Node24</title>
<g id="a_node24"><a xlink:href="../../d8/de2/menudefs_8qc.html#acf9c719e766113bad854907e87812e98" target="_top" xlink:title="print">
<polygon fill="none" stroke="black" points="708.5,-247.5 708.5,-266.5 743.5,-266.5 743.5,-247.5 708.5,-247.5"/>
<text text-anchor="middle" x="726" y="-254.5" font-family="Helvetica,sans-Serif" font-size="10.00">print</text>
</a>
</g>
</g>
<!-- Node23&#45;&gt;Node24 -->
<g id="edge34" class="edge"><title>Node23&#45;&gt;Node24</title>
<path fill="none" stroke="midnightblue" d="M619.669,-257C644.644,-257 675.945,-257 697.911,-257"/>
<polygon fill="midnightblue" stroke="midnightblue" points="698.17,-260.5 708.17,-257 698.17,-253.5 698.17,-260.5"/>
</g>
<!-- Node30&#45;&gt;Node2 -->
<g id="edge43" class="edge"><title>Node30&#45;&gt;Node2</title>
<path fill="none" stroke="midnightblue" d="M437.322,-554.505C492.407,-549.135 585.701,-548.445 648,-593 694.829,-626.491 714.456,-696.437 721.541,-730.912"/>
<polygon fill="midnightblue" stroke="midnightblue" points="718.179,-731.969 723.484,-741.14 725.056,-730.662 718.179,-731.969"/>
</g>
<!-- Node30&#45;&gt;Node19 -->
<g id="edge45" class="edge"><title>Node30&#45;&gt;Node19</title>
<path fill="none" stroke="midnightblue" d="M437.326,-555.003C449.136,-552.189 461.487,-548.059 472,-542 492.157,-530.384 488.053,-515.972 508,-504 519.902,-496.857 534.557,-492.329 547.295,-489.496"/>
<polygon fill="midnightblue" stroke="midnightblue" points="548.308,-492.863 557.442,-487.493 546.953,-485.996 548.308,-492.863"/>
</g>
<!-- Node31 -->
<g id="node31" class="node"><title>Node31</title>
<g id="a_node31"><a xlink:href="../../db/d9f/state_8qh.html#afdb90637f8a711359249291ee3b3fde6" target="_top" xlink:title="CS">
<polygon fill="none" stroke="black" points="562.5,-513.5 562.5,-532.5 593.5,-532.5 593.5,-513.5 562.5,-513.5"/>
<text text-anchor="middle" x="578" y="-520.5" font-family="Helvetica,sans-Serif" font-size="10.00">CS</text>
</a>
</g>
</g>
<!-- Node30&#45;&gt;Node31 -->
<g id="edge44" class="edge"><title>Node30&#45;&gt;Node31</title>
<path fill="none" stroke="midnightblue" d="M437.256,-551.704C473.65,-544.229 523.38,-534.014 552.654,-528.001"/>
<polygon fill="midnightblue" stroke="midnightblue" points="553.36,-531.429 562.451,-525.988 551.951,-524.572 553.36,-531.429"/>
</g>
<!-- Node34 -->
<g id="node34" class="node"><title>Node34</title>
<g id="a_node34"><a xlink:href="../../d4/d0c/csprogsdefs_8qc.html#a4f0b78b1785821ba47129edb68e70f9e" target="_top" xlink:title="vector">
<polygon fill="none" stroke="black" points="704,-38.5 704,-57.5 748,-57.5 748,-38.5 704,-38.5"/>
<text text-anchor="middle" x="726" y="-45.5" font-family="Helvetica,sans-Serif" font-size="10.00">vector</text>
</a>
</g>
</g>
<!-- Node33&#45;&gt;Node34 -->
<g id="edge48" class="edge"><title>Node33&#45;&gt;Node34</title>
<path fill="none" stroke="midnightblue" d="M220.948,-133.59C242.683,-142.973 277.919,-156.615 310,-162 381.007,-173.919 400.881,-173.229 472,-162 553.216,-149.176 574.889,-142.62 648,-105 669.511,-93.9312 691.436,-77.0395 706.359,-64.515"/>
<polygon fill="midnightblue" stroke="midnightblue" points="708.968,-66.8888 714.281,-57.7225 704.411,-61.5748 708.968,-66.8888"/>
</g>
<!-- Node35 -->
<g id="node35" class="node"><title>Node35</title>
<g id="a_node35"><a xlink:href="../../d5/de0/weaponsystem_8qc.html#a0a6487bdb823099d34918347cb076f98" target="_top" xlink:title="W_WeaponSpeedFactor">
<polygon fill="none" stroke="black" points="329.5,-133.5 329.5,-152.5 452.5,-152.5 452.5,-133.5 329.5,-133.5"/>
<text text-anchor="middle" x="391" y="-140.5" font-family="Helvetica,sans-Serif" font-size="10.00">W_WeaponSpeedFactor</text>
</a>
</g>
</g>
<!-- Node33&#45;&gt;Node35 -->
<g id="edge49" class="edge"><title>Node33&#45;&gt;Node35</title>
<path fill="none" stroke="midnightblue" d="M273.731,-131.373C288.647,-132.865 304.302,-134.43 319.118,-135.912"/>
<polygon fill="midnightblue" stroke="midnightblue" points="318.923,-139.41 329.221,-136.922 319.619,-132.444 318.923,-139.41"/>
</g>
<!-- Node36 -->
<g id="node36" class="node"><title>Node36</title>
<g id="a_node36"><a xlink:href="../../d8/de2/menudefs_8qc.html#ab8f7213273f7de03df213240376ce9f4" target="_top" xlink:title="normalize">
<polygon fill="none" stroke="black" points="361.5,-95.5 361.5,-114.5 420.5,-114.5 420.5,-95.5 361.5,-95.5"/>
<text text-anchor="middle" x="391" y="-102.5" font-family="Helvetica,sans-Serif" font-size="10.00">normalize</text>
</a>
</g>
</g>
<!-- Node33&#45;&gt;Node36 -->
<g id="edge50" class="edge"><title>Node33&#45;&gt;Node36</title>
<path fill="none" stroke="midnightblue" d="M273.731,-116.627C300.206,-113.979 329.004,-111.1 351.316,-108.868"/>
<polygon fill="midnightblue" stroke="midnightblue" points="351.792,-112.338 361.394,-107.861 351.095,-105.373 351.792,-112.338"/>
</g>
<!-- Node37 -->
<g id="node37" class="node"><title>Node37</title>
<g id="a_node37"><a xlink:href="../../d8/de2/menudefs_8qc.html#a79d61ab0e4126e02af8bc36d432aedaf" target="_top" xlink:title="vlen">
<polygon fill="none" stroke="black" points="373.5,-57.5 373.5,-76.5 408.5,-76.5 408.5,-57.5 373.5,-57.5"/>
<text text-anchor="middle" x="391" y="-64.5" font-family="Helvetica,sans-Serif" font-size="10.00">vlen</text>
</a>
</g>
</g>
<!-- Node33&#45;&gt;Node37 -->
<g id="edge51" class="edge"><title>Node33&#45;&gt;Node37</title>
<path fill="none" stroke="midnightblue" d="M225.55,-114.364C247.697,-106.207 280.704,-94.5163 310,-86 327.597,-80.8845 347.663,-76.1216 363.297,-72.6441"/>
<polygon fill="midnightblue" stroke="midnightblue" points="364.304,-76.0067 373.327,-70.4534 362.81,-69.1679 364.304,-76.0067"/>
</g>
<!-- Node38 -->
<g id="node38" class="node"><title>Node38</title>
<g id="a_node38"><a xlink:href="../../da/d44/common_2util_8qc.html#abc3e5951852a453cfd754b340b898427" target="_top" xlink:title="get_shotvelocity">
<polygon fill="none" stroke="black" points="347,-19.5 347,-38.5 435,-38.5 435,-19.5 347,-19.5"/>
<text text-anchor="middle" x="391" y="-26.5" font-family="Helvetica,sans-Serif" font-size="10.00">get_shotvelocity</text>
</a>
</g>
</g>
<!-- Node33&#45;&gt;Node38 -->
<g id="edge52" class="edge"><title>Node33&#45;&gt;Node38</title>
<path fill="none" stroke="midnightblue" d="M211.024,-114.261C229.93,-98.0698 270.346,-65.6554 310,-48 318.428,-44.2476 327.699,-41.1789 336.85,-38.6879"/>
<polygon fill="midnightblue" stroke="midnightblue" points="337.847,-42.0461 346.687,-36.2066 336.135,-35.2587 337.847,-42.0461"/>
</g>
<!-- Node38&#45;&gt;Node34 -->
<g id="edge57" class="edge"><title>Node38&#45;&gt;Node34</title>
<path fill="none" stroke="midnightblue" d="M435.193,-31.4644C503.117,-35.34 633.329,-42.7695 693.315,-46.1922"/>
<polygon fill="midnightblue" stroke="midnightblue" points="693.485,-49.7074 703.668,-46.7828 693.883,-42.7188 693.485,-49.7074"/>
</g>
<!-- Node39 -->
<g id="node39" class="node"><title>Node39</title>
<g id="a_node39"><a xlink:href="../../d8/de2/menudefs_8qc.html#a3846d117b360dccec575f96988cf3bb7" target="_top" xlink:title="bound">
<polygon fill="none" stroke="black" points="556.5,-76.5 556.5,-95.5 599.5,-95.5 599.5,-76.5 556.5,-76.5"/>
<text text-anchor="middle" x="578" y="-83.5" font-family="Helvetica,sans-Serif" font-size="10.00">bound</text>
</a>
</g>
</g>
<!-- Node38&#45;&gt;Node39 -->
<g id="edge53" class="edge"><title>Node38&#45;&gt;Node39</title>
<path fill="none" stroke="midnightblue" d="M435.059,-38.0783C447.105,-40.9279 460.143,-44.3057 472,-48 488.39,-53.1067 491.89,-56.068 508,-62 520.646,-66.6564 534.68,-71.5818 546.773,-75.7508"/>
<polygon fill="midnightblue" stroke="midnightblue" points="545.805,-79.1192 556.4,-79.0524 548.076,-72.4977 545.805,-79.1192"/>
</g>
<!-- Node40 -->
<g id="node40" class="node"><title>Node40</title>
<g id="a_node40"><a xlink:href="../../d0/d79/math_8qh.html#abecdd1d5bfb1c569c5d4fe16f3c0ef3a" target="_top" xlink:title="ax^2 + bx + c = 0 ">
<polygon fill="none" stroke="black" points="535.5,-0.5 535.5,-19.5 620.5,-19.5 620.5,-0.5 535.5,-0.5"/>
<text text-anchor="middle" x="578" y="-7.5" font-family="Helvetica,sans-Serif" font-size="10.00">solve_quadratic</text>
</a>
</g>
</g>
<!-- Node38&#45;&gt;Node40 -->
<g id="edge54" class="edge"><title>Node38&#45;&gt;Node40</title>
<path fill="none" stroke="midnightblue" d="M435.374,-24.5453C462.292,-21.7808 497.029,-18.2132 525.364,-15.3032"/>
<polygon fill="midnightblue" stroke="midnightblue" points="525.897,-18.7669 535.487,-14.2635 525.182,-11.8036 525.897,-18.7669"/>
</g>
<!-- Node40&#45;&gt;Node34 -->
<g id="edge56" class="edge"><title>Node40&#45;&gt;Node34</title>
<path fill="none" stroke="midnightblue" d="M615.842,-19.589C640.016,-25.881 671.268,-34.0151 694.134,-39.9664"/>
<polygon fill="midnightblue" stroke="midnightblue" points="693.435,-43.401 703.994,-42.5328 695.198,-36.6267 693.435,-43.401"/>
</g>
<!-- Node41 -->
<g id="node41" class="node"><title>Node41</title>
<g id="a_node41"><a xlink:href="../../d8/de2/menudefs_8qc.html#a83f4d3f317a80e82e6b16ea61ea5efc3" target="_top" xlink:title="sqrt">
<polygon fill="none" stroke="black" points="709.5,-0.5 709.5,-19.5 742.5,-19.5 742.5,-0.5 709.5,-0.5"/>
<text text-anchor="middle" x="726" y="-7.5" font-family="Helvetica,sans-Serif" font-size="10.00">sqrt</text>
</a>
</g>
</g>
<!-- Node40&#45;&gt;Node41 -->
<g id="edge55" class="edge"><title>Node40&#45;&gt;Node41</title>
<path fill="none" stroke="midnightblue" d="M620.838,-10C646.067,-10 677.41,-10 699.089,-10"/>
<polygon fill="midnightblue" stroke="midnightblue" points="699.173,-13.5001 709.173,-10 699.173,-6.5001 699.173,-13.5001"/>
</g>
</g>
</svg>
        <g id="navigator" transform="translate(0 0)" fill="#404254">
                <rect fill="#f2f5e9" fill-opacity="0.5" stroke="#606060" stroke-width=".5" x="0" y="0" width="60" height="60"/>
                <use id="zoomplus" xlink:href="#zoomPlus" x="17" y="9" onmousedown="handleZoom(evt,'in')"/>
                <use id="zoomminus" xlink:href="#zoomMin" x="42" y="9" onmousedown="handleZoom(evt,'out')"/>
                <use id="reset" xlink:href="#resetDef" x="30" y="36" onmousedown="handleReset()"/>
                <g id="arrowUp" xlink:href="#dirArrow" transform="translate(30 24)" onmousedown="handlePan(0,-1)">
                  <use xlink:href="#rim" fill="#404040">
                        <set attributeName="fill" to="#808080" begin="arrowUp.mouseover" end="arrowUp.mouseout"/>
                  </use>
                  <path fill="none" stroke="white" stroke-width="1.5" d="M0,-3.0v7 M-2.5,-0.5L0,-3.0L2.5,-0.5"/>
                </g>
                <g id="arrowRight" xlink:href="#dirArrow" transform="rotate(90) translate(36 -43)" onmousedown="handlePan(1,0)">
                  <use xlink:href="#rim" fill="#404040">
                        <set attributeName="fill" to="#808080" begin="arrowRight.mouseover" end="arrowRight.mouseout"/>
                  </use>
                  <path fill="none" stroke="white" stroke-width="1.5" d="M0,-3.0v7 M-2.5,-0.5L0,-3.0L2.5,-0.5"/>
                </g>
                <g id="arrowDown" xlink:href="#dirArrow" transform="rotate(180) translate(-30 -48)" onmousedown="handlePan(0,1)">
                  <use xlink:href="#rim" fill="#404040">
                        <set attributeName="fill" to="#808080" begin="arrowDown.mouseover" end="arrowDown.mouseout"/>
                  </use>
                  <path fill="none" stroke="white" stroke-width="1.5" d="M0,-3.0v7 M-2.5,-0.5L0,-3.0L2.5,-0.5"/>
                </g>
                <g id="arrowLeft" xlink:href="#dirArrow" transform="rotate(270) translate(-36 17)" onmousedown="handlePan(-1,0)">
                  <use xlink:href="#rim" fill="#404040">
                        <set attributeName="fill" to="#808080" begin="arrowLeft.mouseover" end="arrowLeft.mouseout"/>
                  </use>
                  <path fill="none" stroke="white" stroke-width="1.5" d="M0,-3.0v7 M-2.5,-0.5L0,-3.0L2.5,-0.5"/>
                </g>
        </g>
        <svg viewBox="0 0 15 15" width="100%" height="30px" preserveAspectRatio="xMaxYMin meet">
         <g id="arrow_out" transform="scale(0.3 0.3)">
          <a xlink:href="gamemode__keyhunt_8qc_ad739070280b4ac5432bf5f6f5a7f1e30_cgraph_org.svg" target="_base">
           <rect id="button" ry="5" rx="5" y="6" x="6" height="38" width="38"
                fill="#f2f5e9" fill-opacity="0.5" stroke="#606060" stroke-width="1.0"/>
           <path id="arrow"
             d="M 11.500037,31.436501 C 11.940474,20.09759 22.043105,11.32322 32.158766,21.979434 L 37.068811,17.246167 C 37.068811,17.246167 37.088388,32 37.088388,32 L 22.160133,31.978069 C 22.160133,31.978069 26.997745,27.140456 26.997745,27.140456 C 18.528582,18.264221 13.291696,25.230495 11.500037,31.436501 z"
             style="fill:#404040;"/>
          </a>
         </g>
        </svg>
</svg>
