<?xml version="1.0" encoding="UTF-8" standalone="no"?>
<!DOCTYPE svg PUBLIC "-//W3C//DTD SVG 1.1//EN"
 "http://www.w3.org/Graphics/SVG/1.1/DTD/svg11.dtd">
<!-- Generated by graphviz version 2.38.0 (20140413.2041)
 -->
<!-- Title: HUD_Quickmenu_DrawEntry Pages: 1 -->
<svg width="854pt" height="446pt"
 viewBox="0.00 0.00 854.00 446.00" xmlns="http://www.w3.org/2000/svg" xmlns:xlink="http://www.w3.org/1999/xlink">
<g id="graph0" class="graph" transform="scale(1 1) rotate(0) translate(4 442)">
<title>HUD_Quickmenu_DrawEntry</title>
<!-- Node1 -->
<g id="node1" class="node"><title>Node1</title>
<polygon fill="#bfbfbf" stroke="black" points="0,-285.5 0,-304.5 152,-304.5 152,-285.5 0,-285.5"/>
<text text-anchor="middle" x="76" y="-292.5" font-family="Helvetica,sans-Serif" font-size="10.00">HUD_Quickmenu_DrawEntry</text>
</g>
<!-- Node2 -->
<g id="node2" class="node"><title>Node2</title>
<g id="a_node2"><a xlink:href="../../d8/de2/menudefs_8qc.html#a66804fbc3a76c60d59f50aa1bc4557d1" target="_top" xlink:title="drawcolorcodedstring">
<polygon fill="none" stroke="black" points="188,-418.5 188,-437.5 307,-437.5 307,-418.5 188,-418.5"/>
<text text-anchor="middle" x="247.5" y="-425.5" font-family="Helvetica,sans-Serif" font-size="10.00">drawcolorcodedstring</text>
</a>
</g>
</g>
<!-- Node1&#45;&gt;Node2 -->
<g id="edge1" class="edge"><title>Node1&#45;&gt;Node2</title>
<path fill="none" stroke="midnightblue" d="M83.876,-304.79C99.7258,-326.655 141.085,-379.823 188,-409 191.323,-411.066 194.892,-412.93 198.571,-414.608"/>
<polygon fill="midnightblue" stroke="midnightblue" points="197.277,-417.86 207.858,-418.402 199.924,-411.38 197.277,-417.86"/>
</g>
<!-- Node3 -->
<g id="node3" class="node"><title>Node3</title>
<g id="a_node3"><a xlink:href="../../d8/de2/menudefs_8qc.html#aa466300ee80f2134cac8e75a7364ca31" target="_top" xlink:title="drawpic">
<polygon fill="none" stroke="black" points="221,-380.5 221,-399.5 274,-399.5 274,-380.5 221,-380.5"/>
<text text-anchor="middle" x="247.5" y="-387.5" font-family="Helvetica,sans-Serif" font-size="10.00">drawpic</text>
</a>
</g>
</g>
<!-- Node1&#45;&gt;Node3 -->
<g id="edge2" class="edge"><title>Node1&#45;&gt;Node3</title>
<path fill="none" stroke="midnightblue" d="M88.616,-304.638C108.087,-320.393 149.021,-351.824 188,-371 195.276,-374.58 203.383,-377.707 211.188,-380.336"/>
<polygon fill="midnightblue" stroke="midnightblue" points="210.236,-383.706 220.826,-383.396 212.354,-377.035 210.236,-383.706"/>
</g>
<!-- Node4 -->
<g id="node4" class="node"><title>Node4</title>
<g id="a_node4"><a xlink:href="../../d8/de2/menudefs_8qc.html#aebeeec7a2529f36483e14f76b1871271" target="_top" xlink:title="max">
<polygon fill="none" stroke="black" points="228.5,-342.5 228.5,-361.5 266.5,-361.5 266.5,-342.5 228.5,-342.5"/>
<text text-anchor="middle" x="247.5" y="-349.5" font-family="Helvetica,sans-Serif" font-size="10.00">max</text>
</a>
</g>
</g>
<!-- Node1&#45;&gt;Node4 -->
<g id="edge3" class="edge"><title>Node1&#45;&gt;Node4</title>
<path fill="none" stroke="midnightblue" d="M104.785,-304.648C127.213,-312.403 159.596,-323.526 188,-333 197.999,-336.335 208.985,-339.923 218.71,-343.073"/>
<polygon fill="midnightblue" stroke="midnightblue" points="217.702,-346.426 228.294,-346.168 219.853,-339.764 217.702,-346.426"/>
</g>
<!-- Node5 -->
<g id="node5" class="node"><title>Node5</title>
<g id="a_node5"><a xlink:href="../../d8/de2/menudefs_8qc.html#ab2ad6bdb33b4334fec83db0418cf72df" target="_top" xlink:title="min">
<polygon fill="none" stroke="black" points="230,-304.5 230,-323.5 265,-323.5 265,-304.5 230,-304.5"/>
<text text-anchor="middle" x="247.5" y="-311.5" font-family="Helvetica,sans-Serif" font-size="10.00">min</text>
</a>
</g>
</g>
<!-- Node1&#45;&gt;Node5 -->
<g id="edge4" class="edge"><title>Node1&#45;&gt;Node5</title>
<path fill="none" stroke="midnightblue" d="M152.332,-303.444C176.462,-306.149 201.622,-308.969 219.859,-311.014"/>
<polygon fill="midnightblue" stroke="midnightblue" points="219.665,-314.514 229.992,-312.15 220.444,-307.557 219.665,-314.514"/>
</g>
<!-- Node6 -->
<g id="node6" class="node"><title>Node6</title>
<g id="a_node6"><a xlink:href="../../d8/de2/menudefs_8qc.html#a66ae6f59199ebf4780d2bf9681f2b0c7" target="_top" xlink:title="precache_pic">
<polygon fill="none" stroke="black" points="207.5,-266.5 207.5,-285.5 287.5,-285.5 287.5,-266.5 207.5,-266.5"/>
<text text-anchor="middle" x="247.5" y="-273.5" font-family="Helvetica,sans-Serif" font-size="10.00">precache_pic</text>
</a>
</g>
</g>
<!-- Node1&#45;&gt;Node6 -->
<g id="edge5" class="edge"><title>Node1&#45;&gt;Node6</title>
<path fill="none" stroke="midnightblue" d="M152.332,-286.556C167.41,-284.866 182.89,-283.13 196.833,-281.567"/>
<polygon fill="midnightblue" stroke="midnightblue" points="197.614,-285.002 207.162,-280.41 196.835,-278.045 197.614,-285.002"/>
</g>
<!-- Node7 -->
<g id="node7" class="node"><title>Node7</title>
<g id="a_node7"><a xlink:href="../../d9/d09/notifications_2all_8inc.html#ad04f6b1a4889674503c3cdad58c55da1" target="_top" xlink:title="strcat">
<polygon fill="none" stroke="black" points="380,-228.5 380,-247.5 424,-247.5 424,-228.5 380,-228.5"/>
<text text-anchor="middle" x="402" y="-235.5" font-family="Helvetica,sans-Serif" font-size="10.00">strcat</text>
</a>
</g>
</g>
<!-- Node1&#45;&gt;Node7 -->
<g id="edge6" class="edge"><title>Node1&#45;&gt;Node7</title>
<path fill="none" stroke="midnightblue" d="M99.5059,-285.499C121.616,-276.597 156.52,-263.69 188,-257 251.64,-243.475 327.964,-239.564 369.785,-238.442"/>
<polygon fill="midnightblue" stroke="midnightblue" points="369.974,-241.938 379.89,-238.208 369.812,-234.94 369.974,-241.938"/>
</g>
<!-- Node8 -->
<g id="node8" class="node"><title>Node8</title>
<g id="a_node8"><a xlink:href="../../da/d44/common_2util_8qc.html#a73cc543cc744ae536ed0ef34b8d481c4" target="_top" xlink:title="textShortenToWidth">
<polygon fill="none" stroke="black" points="192.5,-190.5 192.5,-209.5 302.5,-209.5 302.5,-190.5 192.5,-190.5"/>
<text text-anchor="middle" x="247.5" y="-197.5" font-family="Helvetica,sans-Serif" font-size="10.00">textShortenToWidth</text>
</a>
</g>
</g>
<!-- Node1&#45;&gt;Node8 -->
<g id="edge7" class="edge"><title>Node1&#45;&gt;Node8</title>
<path fill="none" stroke="midnightblue" d="M90.2015,-285.444C110.538,-270.983 151.055,-243.196 188,-224 195.26,-220.228 203.252,-216.618 210.933,-213.395"/>
<polygon fill="midnightblue" stroke="midnightblue" points="212.474,-216.547 220.418,-209.537 209.837,-210.063 212.474,-216.547"/>
</g>
<!-- Node13 -->
<g id="node13" class="node"><title>Node13</title>
<g id="a_node13"><a xlink:href="../../da/dde/csprogsdefs_8qh.html#a2626679e4144af8478202c6c28f90cd9" target="_top" xlink:title="vector">
<polygon fill="none" stroke="black" points="520.5,-0.5 520.5,-19.5 567.5,-19.5 567.5,-0.5 520.5,-0.5"/>
<text text-anchor="middle" x="544" y="-7.5" font-family="Helvetica,sans-Serif" font-size="10.00">vector</text>
</a>
</g>
</g>
<!-- Node1&#45;&gt;Node13 -->
<g id="edge22" class="edge"><title>Node1&#45;&gt;Node13</title>
<path fill="none" stroke="midnightblue" d="M84.932,-285.355C102.239,-264.669 145.275,-215.149 188,-181 251.116,-130.554 270.475,-121.617 343,-86 400.17,-57.9242 470.481,-33.3627 510.682,-20.2035"/>
<polygon fill="midnightblue" stroke="midnightblue" points="511.794,-23.5222 520.227,-17.1084 509.635,-16.8635 511.794,-23.5222"/>
</g>
<!-- Node8&#45;&gt;Node7 -->
<g id="edge8" class="edge"><title>Node8&#45;&gt;Node7</title>
<path fill="none" stroke="midnightblue" d="M286.982,-209.589C312.654,-215.986 345.967,-224.287 369.948,-230.262"/>
<polygon fill="midnightblue" stroke="midnightblue" points="369.376,-233.727 379.926,-232.749 371.069,-226.935 369.376,-233.727"/>
</g>
<!-- Node9 -->
<g id="node9" class="node"><title>Node9</title>
<g id="a_node9"><a xlink:href="../../d8/de2/menudefs_8qc.html#a40f6c65c8bbcfa51df783f2809a2502b" target="_top" xlink:title="substring">
<polygon fill="none" stroke="black" points="785,-76.5 785,-95.5 846,-95.5 846,-76.5 785,-76.5"/>
<text text-anchor="middle" x="815.5" y="-83.5" font-family="Helvetica,sans-Serif" font-size="10.00">substring</text>
</a>
</g>
</g>
<!-- Node8&#45;&gt;Node9 -->
<g id="edge9" class="edge"><title>Node8&#45;&gt;Node9</title>
<path fill="none" stroke="midnightblue" d="M302.545,-201.497C415.485,-203.781 672.378,-204.326 749,-165 774.781,-151.768 794.242,-123.461 805.007,-104.575"/>
<polygon fill="midnightblue" stroke="midnightblue" points="808.137,-106.146 809.832,-95.6876 801.985,-102.806 808.137,-106.146"/>
</g>
<!-- Node10 -->
<g id="node10" class="node"><title>Node10</title>
<g id="a_node10"><a xlink:href="../../da/d44/common_2util_8qc.html#ab6502642132678c20db7fd26c09ddcf0" target="_top" xlink:title="textLengthUpToWidth">
<polygon fill="none" stroke="black" points="343,-95.5 343,-114.5 461,-114.5 461,-95.5 343,-95.5"/>
<text text-anchor="middle" x="402" y="-102.5" font-family="Helvetica,sans-Serif" font-size="10.00">textLengthUpToWidth</text>
</a>
</g>
</g>
<!-- Node8&#45;&gt;Node10 -->
<g id="edge10" class="edge"><title>Node8&#45;&gt;Node10</title>
<path fill="none" stroke="midnightblue" d="M263.962,-190.368C290.565,-173.796 345.181,-139.772 376.842,-120.049"/>
<polygon fill="midnightblue" stroke="midnightblue" points="378.86,-122.916 385.497,-114.657 375.159,-116.974 378.86,-122.916"/>
</g>
<!-- Node10&#45;&gt;Node9 -->
<g id="edge21" class="edge"><title>Node10&#45;&gt;Node9</title>
<path fill="none" stroke="midnightblue" d="M426.155,-114.577C483.122,-136.665 633.823,-186.098 749,-143 770.045,-135.125 788.79,-117.095 800.777,-103.407"/>
<polygon fill="midnightblue" stroke="midnightblue" points="803.598,-105.49 807.328,-95.5739 798.228,-100.999 803.598,-105.49"/>
</g>
<!-- Node11 -->
<g id="node11" class="node"><title>Node11</title>
<g id="a_node11"><a xlink:href="../../d8/de2/menudefs_8qc.html#a274680f571a231ddf29421b93d434bfa" target="_top" xlink:title="strlen">
<polygon fill="none" stroke="black" points="666,-114.5 666,-133.5 710,-133.5 710,-114.5 666,-114.5"/>
<text text-anchor="middle" x="688" y="-121.5" font-family="Helvetica,sans-Serif" font-size="10.00">strlen</text>
</a>
</g>
</g>
<!-- Node10&#45;&gt;Node11 -->
<g id="edge11" class="edge"><title>Node10&#45;&gt;Node11</title>
<path fill="none" stroke="midnightblue" d="M461.157,-108.891C520.023,-112.829 608.84,-118.771 655.62,-121.901"/>
<polygon fill="midnightblue" stroke="midnightblue" points="655.541,-125.403 665.753,-122.579 656.009,-118.419 655.541,-125.403"/>
</g>
<!-- Node12 -->
<g id="node12" class="node"><title>Node12</title>
<g id="a_node12"><a xlink:href="../../d8/de2/menudefs_8qc.html#ad5a3e16aa960bd72d3ca37a618eea802" target="_top" xlink:title="floor">
<polygon fill="none" stroke="black" points="525,-76.5 525,-95.5 563,-95.5 563,-76.5 525,-76.5"/>
<text text-anchor="middle" x="544" y="-83.5" font-family="Helvetica,sans-Serif" font-size="10.00">floor</text>
</a>
</g>
</g>
<!-- Node10&#45;&gt;Node12 -->
<g id="edge12" class="edge"><title>Node10&#45;&gt;Node12</title>
<path fill="none" stroke="midnightblue" d="M461.156,-97.1074C479.713,-94.589 499.413,-91.9154 514.834,-89.8225"/>
<polygon fill="midnightblue" stroke="midnightblue" points="515.322,-93.2885 524.76,-88.4754 514.38,-86.3521 515.322,-93.2885"/>
</g>
<!-- Node10&#45;&gt;Node13 -->
<g id="edge13" class="edge"><title>Node10&#45;&gt;Node13</title>
<path fill="none" stroke="midnightblue" d="M416.664,-95.4805C428.613,-87.0126 446.305,-74.1273 461,-62 477.741,-48.1847 478.689,-40.6547 497,-29 501.353,-26.2293 506.178,-23.7173 511.019,-21.4942"/>
<polygon fill="midnightblue" stroke="midnightblue" points="512.39,-24.7144 520.225,-17.5828 509.653,-18.2717 512.39,-24.7144"/>
</g>
<!-- Node14 -->
<g id="node14" class="node"><title>Node14</title>
<g id="a_node14"><a xlink:href="../../d2/db4/string_8qh.html#aa76b89fa1dad89003bae8721d1dc29a0" target="_top" xlink:title="checkColorCode">
<polygon fill="none" stroke="black" points="497,-38.5 497,-57.5 591,-57.5 591,-38.5 497,-38.5"/>
<text text-anchor="middle" x="544" y="-45.5" font-family="Helvetica,sans-Serif" font-size="10.00">checkColorCode</text>
</a>
</g>
</g>
<!-- Node10&#45;&gt;Node14 -->
<g id="edge14" class="edge"><title>Node10&#45;&gt;Node14</title>
<path fill="none" stroke="midnightblue" d="M426.433,-95.4595C449.349,-86.1295 484.45,-71.8384 510.147,-61.3758"/>
<polygon fill="midnightblue" stroke="midnightblue" points="511.549,-64.5842 519.491,-57.5716 508.909,-58.1009 511.549,-64.5842"/>
</g>
<!-- Node14&#45;&gt;Node9 -->
<g id="edge16" class="edge"><title>Node14&#45;&gt;Node9</title>
<path fill="none" stroke="midnightblue" d="M581.539,-57.5109C595.663,-60.9117 612.007,-64.5136 627,-67 677.599,-75.3911 736.537,-80.6301 774.628,-83.431"/>
<polygon fill="midnightblue" stroke="midnightblue" points="774.57,-86.9357 784.794,-84.1569 775.069,-79.9535 774.57,-86.9357"/>
</g>
<!-- Node14&#45;&gt;Node11 -->
<g id="edge15" class="edge"><title>Node14&#45;&gt;Node11</title>
<path fill="none" stroke="midnightblue" d="M572.545,-57.5346C578.823,-60.2037 585.314,-63.3811 591,-67 609.311,-78.6547 608.624,-88.448 627,-100 635.953,-105.628 646.447,-110.365 656.133,-114.105"/>
<polygon fill="midnightblue" stroke="midnightblue" points="655.243,-117.505 665.837,-117.636 657.637,-110.927 655.243,-117.505"/>
</g>
<!-- Node15 -->
<g id="node15" class="node"><title>Node15</title>
<g id="a_node15"><a xlink:href="../../d2/db4/string_8qh.html#a18426552ab78f160fce9ae91a94c8c2d" target="_top" xlink:title="isCaretEscaped">
<polygon fill="none" stroke="black" points="642.5,-38.5 642.5,-57.5 733.5,-57.5 733.5,-38.5 642.5,-38.5"/>
<text text-anchor="middle" x="688" y="-45.5" font-family="Helvetica,sans-Serif" font-size="10.00">isCaretEscaped</text>
</a>
</g>
</g>
<!-- Node14&#45;&gt;Node15 -->
<g id="edge17" class="edge"><title>Node14&#45;&gt;Node15</title>
<path fill="none" stroke="midnightblue" d="M591.103,-48C604.139,-48 618.457,-48 631.962,-48"/>
<polygon fill="midnightblue" stroke="midnightblue" points="632.096,-51.5001 642.096,-48 632.096,-44.5001 632.096,-51.5001"/>
</g>
<!-- Node16 -->
<g id="node16" class="node"><title>Node16</title>
<g id="a_node16"><a xlink:href="../../d2/db4/string_8qh.html#a72f521af7a18622494f4f399802d49f9" target="_top" xlink:title="isValidColorCodeValue">
<polygon fill="none" stroke="black" points="627,-0.5 627,-19.5 749,-19.5 749,-0.5 627,-0.5"/>
<text text-anchor="middle" x="688" y="-7.5" font-family="Helvetica,sans-Serif" font-size="10.00">isValidColorCodeValue</text>
</a>
</g>
</g>
<!-- Node14&#45;&gt;Node16 -->
<g id="edge19" class="edge"><title>Node14&#45;&gt;Node16</title>
<path fill="none" stroke="midnightblue" d="M580.833,-38.411C599.163,-33.5056 621.678,-27.4804 641.25,-22.2429"/>
<polygon fill="midnightblue" stroke="midnightblue" points="642.424,-25.5521 651.179,-19.5859 640.614,-18.7901 642.424,-25.5521"/>
</g>
<!-- Node15&#45;&gt;Node9 -->
<g id="edge18" class="edge"><title>Node15&#45;&gt;Node9</title>
<path fill="none" stroke="midnightblue" d="M720.669,-57.589C737.18,-62.5882 757.531,-68.7504 775.055,-74.0566"/>
<polygon fill="midnightblue" stroke="midnightblue" points="774.411,-77.5185 784.997,-77.0667 776.44,-70.8188 774.411,-77.5185"/>
</g>
<!-- Node16&#45;&gt;Node9 -->
<g id="edge20" class="edge"><title>Node16&#45;&gt;Node9</title>
<path fill="none" stroke="midnightblue" d="M727.432,-19.5871C734.822,-22.1401 742.33,-25.2568 749,-29 767.942,-39.6304 786.312,-56.3524 798.753,-68.9407"/>
<polygon fill="midnightblue" stroke="midnightblue" points="796.232,-71.3685 805.685,-76.153 801.279,-66.5178 796.232,-71.3685"/>
</g>
</g>
</svg>
