<?xml version="1.0" encoding="UTF-8" standalone="no"?>
<!DOCTYPE svg PUBLIC "-//W3C//DTD SVG 1.1//EN"
 "http://www.w3.org/Graphics/SVG/1.1/DTD/svg11.dtd">
<!-- Generated by graphviz version 2.36.0 (20140111.2315)
 -->
<!-- Title: HUD_Quickmenu_DrawEntry Pages: 1 -->
<!--zoomable 370 -->
<svg id="main" version="1.1" xmlns="http://www.w3.org/2000/svg" xmlns:xlink="http://www.w3.org/1999/xlink" xml:space="preserve" onload="init(evt)">
<style type="text/css"><![CDATA[
.edge:hover path { stroke: red; }
.edge:hover polygon { stroke: red; fill: red; }
]]></style>
<script type="text/javascript"><![CDATA[
var edges = document.getElementsByTagName('g');
if (edges && edges.length) {
  for (var i=0;i<edges.length;i++) {
    if (edges[i].id.substr(0,4)=='edge') {
      edges[i].setAttribute('class','edge');
    }
  }
}
]]></script>
        <defs>
                <circle id="rim" cx="0" cy="0" r="7"/>
                <circle id="rim2" cx="0" cy="0" r="3.5"/>
                <g id="zoomPlus">
                        <use xlink:href="#rim" fill="#404040">
                                <set attributeName="fill" to="#808080" begin="zoomplus.mouseover" end="zoomplus.mouseout"/>
                        </use>
                        <path d="M-4,0h8M0,-4v8" fill="none" stroke="white" stroke-width="1.5" pointer-events="none"/>
                </g>
                <g id="zoomMin">
                        <use xlink:href="#rim" fill="#404040">
                                <set attributeName="fill" to="#808080" begin="zoomminus.mouseover" end="zoomminus.mouseout"/>
                        </use>
                        <path d="M-4,0h8" fill="none" stroke="white" stroke-width="1.5" pointer-events="none"/>
                </g>
                <g id="dirArrow">
                        <path fill="none" stroke="white" stroke-width="1.5" d="M0,-3.0v7 M-2.5,-0.5L0,-3.0L2.5,-0.5"/>
                </g>
               <g id="resetDef">
                       <use xlink:href="#rim2" fill="#404040">
                               <set attributeName="fill" to="#808080" begin="reset.mouseover" end="reset.mouseout"/>
                       </use>
               </g>
        </defs>

<script type="text/javascript">
var viewWidth = 540;
var viewHeight = 370;
var sectionId = 'dynsection-3';
</script>
<script xlink:href="../../svgpan.js"/>
<svg id="graph" class="graph">
<g id="viewport">
<title>HUD_Quickmenu_DrawEntry</title>
<!-- Node1 -->
<g id="node1" class="node"><title>Node1</title>
<polygon fill="#bfbfbf" stroke="black" points="0,-190.5 0,-209.5 146,-209.5 146,-190.5 0,-190.5"/>
<text text-anchor="middle" x="73" y="-197.5" font-family="Helvetica,sans-Serif" font-size="10.00">HUD_Quickmenu_DrawEntry</text>
</g>
<!-- Node2 -->
<g id="node2" class="node"><title>Node2</title>
<g id="a_node2"><a xlink:href="../../d8/de2/menudefs_8qc.html#a66804fbc3a76c60d59f50aa1bc4557d1" target="_top" xlink:title="drawcolorcodedstring">
<polygon fill="none" stroke="black" points="182.5,-342.5 182.5,-361.5 291.5,-361.5 291.5,-342.5 182.5,-342.5"/>
<text text-anchor="middle" x="237" y="-349.5" font-family="Helvetica,sans-Serif" font-size="10.00">drawcolorcodedstring</text>
</a>
</g>
</g>
<!-- Node1&#45;&gt;Node2 -->
<g id="edge1" class="edge"><title>Node1&#45;&gt;Node2</title>
<path fill="none" stroke="midnightblue" d="M79.2152,-209.552C92.881,-233.725 132.145,-297.892 182,-333 184.722,-334.917 187.657,-336.658 190.701,-338.235"/>
<polygon fill="midnightblue" stroke="midnightblue" points="189.511,-341.539 200.063,-342.492 192.408,-335.167 189.511,-341.539"/>
</g>
<!-- Node3 -->
<g id="node3" class="node"><title>Node3</title>
<g id="a_node3"><a xlink:href="../../d8/de2/menudefs_8qc.html#aa466300ee80f2134cac8e75a7364ca31" target="_top" xlink:title="drawpic">
<polygon fill="none" stroke="black" points="212,-304.5 212,-323.5 262,-323.5 262,-304.5 212,-304.5"/>
<text text-anchor="middle" x="237" y="-311.5" font-family="Helvetica,sans-Serif" font-size="10.00">drawpic</text>
</a>
</g>
</g>
<!-- Node1&#45;&gt;Node3 -->
<g id="edge2" class="edge"><title>Node1&#45;&gt;Node3</title>
<path fill="none" stroke="midnightblue" d="M82.5802,-209.709C99.7302,-228.583 140.198,-270.514 182,-295 188.165,-298.611 195.126,-301.693 201.95,-304.257"/>
<polygon fill="midnightblue" stroke="midnightblue" points="201.145,-307.682 211.74,-307.645 203.435,-301.067 201.145,-307.682"/>
</g>
<!-- Node4 -->
<g id="node4" class="node"><title>Node4</title>
<g id="a_node4"><a xlink:href="../../d8/de2/menudefs_8qc.html#aebeeec7a2529f36483e14f76b1871271" target="_top" xlink:title="max">
<polygon fill="none" stroke="black" points="219.5,-266.5 219.5,-285.5 254.5,-285.5 254.5,-266.5 219.5,-266.5"/>
<text text-anchor="middle" x="237" y="-273.5" font-family="Helvetica,sans-Serif" font-size="10.00">max</text>
</a>
</g>
</g>
<!-- Node1&#45;&gt;Node4 -->
<g id="edge3" class="edge"><title>Node1&#45;&gt;Node4</title>
<path fill="none" stroke="midnightblue" d="M90.46,-209.667C111.318,-221.687 148.585,-242.398 182,-257 190.866,-260.874 200.799,-264.55 209.705,-267.618"/>
<polygon fill="midnightblue" stroke="midnightblue" points="208.618,-270.944 219.212,-270.801 210.84,-264.307 208.618,-270.944"/>
</g>
<!-- Node5 -->
<g id="node5" class="node"><title>Node5</title>
<g id="a_node5"><a xlink:href="../../d8/de2/menudefs_8qc.html#ab2ad6bdb33b4334fec83db0418cf72df" target="_top" xlink:title="min">
<polygon fill="none" stroke="black" points="221,-228.5 221,-247.5 253,-247.5 253,-228.5 221,-228.5"/>
<text text-anchor="middle" x="237" y="-235.5" font-family="Helvetica,sans-Serif" font-size="10.00">min</text>
</a>
</g>
</g>
<!-- Node1&#45;&gt;Node5 -->
<g id="edge4" class="edge"><title>Node1&#45;&gt;Node5</title>
<path fill="none" stroke="midnightblue" d="M114.879,-209.589C145.061,-216.669 185.186,-226.081 210.81,-232.091"/>
<polygon fill="midnightblue" stroke="midnightblue" points="210.297,-235.566 220.832,-234.442 211.896,-228.751 210.297,-235.566"/>
</g>
<!-- Node6 -->
<g id="node6" class="node"><title>Node6</title>
<g id="a_node6"><a xlink:href="../../d8/de2/menudefs_8qc.html#a66ae6f59199ebf4780d2bf9681f2b0c7" target="_top" xlink:title="precache_pic">
<polygon fill="none" stroke="black" points="200,-190.5 200,-209.5 274,-209.5 274,-190.5 200,-190.5"/>
<text text-anchor="middle" x="237" y="-197.5" font-family="Helvetica,sans-Serif" font-size="10.00">precache_pic</text>
</a>
</g>
</g>
<!-- Node1&#45;&gt;Node6 -->
<g id="edge5" class="edge"><title>Node1&#45;&gt;Node6</title>
<path fill="none" stroke="midnightblue" d="M146.471,-200C161.24,-200 176.392,-200 189.933,-200"/>
<polygon fill="midnightblue" stroke="midnightblue" points="189.94,-203.5 199.94,-200 189.94,-196.5 189.94,-203.5"/>
</g>
<!-- Node7 -->
<g id="node7" class="node"><title>Node7</title>
<g id="a_node7"><a xlink:href="../../d8/de2/menudefs_8qc.html#ad76dc2b2895cd23f21e008f12a686158" target="_top" xlink:title="strcat">
<polygon fill="none" stroke="black" points="363.5,-114.5 363.5,-133.5 404.5,-133.5 404.5,-114.5 363.5,-114.5"/>
<text text-anchor="middle" x="384" y="-121.5" font-family="Helvetica,sans-Serif" font-size="10.00">strcat</text>
</a>
</g>
</g>
<!-- Node1&#45;&gt;Node7 -->
<g id="edge6" class="edge"><title>Node1&#45;&gt;Node7</title>
<path fill="none" stroke="midnightblue" d="M87.8972,-190.355C107.75,-177.132 145.837,-153.789 182,-143 240.92,-125.422 313.469,-123.012 353.304,-123.237"/>
<polygon fill="midnightblue" stroke="midnightblue" points="353.36,-126.738 363.4,-123.356 353.442,-119.739 353.36,-126.738"/>
</g>
<!-- Node8 -->
<g id="node8" class="node"><title>Node8</title>
<g id="a_node8"><a xlink:href="../../d3/d05/hud_8qh.html#af74c7e53de726f384aa8ad37571c783a" target="_top" xlink:title="stringwidth_colors">
<polygon fill="none" stroke="black" points="189.5,-152.5 189.5,-171.5 284.5,-171.5 284.5,-152.5 189.5,-152.5"/>
<text text-anchor="middle" x="237" y="-159.5" font-family="Helvetica,sans-Serif" font-size="10.00">stringwidth_colors</text>
</a>
</g>
</g>
<!-- Node1&#45;&gt;Node8 -->
<g id="edge7" class="edge"><title>Node1&#45;&gt;Node8</title>
<path fill="none" stroke="midnightblue" d="M114.879,-190.411C136.353,-185.374 162.86,-179.156 185.597,-173.823"/>
<polygon fill="midnightblue" stroke="midnightblue" points="186.478,-177.211 195.415,-171.52 184.879,-170.396 186.478,-177.211"/>
</g>
<!-- Node10 -->
<g id="node10" class="node"><title>Node10</title>
<g id="a_node10"><a xlink:href="../../da/d44/common_2util_8qc.html#a73cc543cc744ae536ed0ef34b8d481c4" target="_top" xlink:title="textShortenToWidth">
<polygon fill="none" stroke="black" points="185,-76.5 185,-95.5 289,-95.5 289,-76.5 185,-76.5"/>
<text text-anchor="middle" x="237" y="-83.5" font-family="Helvetica,sans-Serif" font-size="10.00">textShortenToWidth</text>
</a>
</g>
</g>
<!-- Node1&#45;&gt;Node10 -->
<g id="edge9" class="edge"><title>Node1&#45;&gt;Node10</title>
<path fill="none" stroke="midnightblue" d="M83.6964,-190.302C101.78,-172.603 142.416,-134.623 182,-110 187.97,-106.286 194.613,-102.841 201.142,-99.7866"/>
<polygon fill="midnightblue" stroke="midnightblue" points="202.821,-102.87 210.533,-95.6053 199.974,-96.4754 202.821,-102.87"/>
</g>
<!-- Node15 -->
<g id="node15" class="node"><title>Node15</title>
<g id="a_node15"><a xlink:href="../../d4/d0c/csprogsdefs_8qc.html#a4f0b78b1785821ba47129edb68e70f9e" target="_top" xlink:title="vector">
<polygon fill="none" stroke="black" points="215,-38.5 215,-57.5 259,-57.5 259,-38.5 215,-38.5"/>
<text text-anchor="middle" x="237" y="-45.5" font-family="Helvetica,sans-Serif" font-size="10.00">vector</text>
</a>
</g>
</g>
<!-- Node1&#45;&gt;Node15 -->
<g id="edge16" class="edge"><title>Node1&#45;&gt;Node15</title>
<path fill="none" stroke="midnightblue" d="M79.2152,-190.448C92.881,-166.275 132.145,-102.108 182,-67 188.99,-62.0776 197.38,-58.3179 205.439,-55.4954"/>
<polygon fill="midnightblue" stroke="midnightblue" points="206.494,-58.8326 214.99,-52.5021 204.401,-52.153 206.494,-58.8326"/>
</g>
<!-- Node9 -->
<g id="node9" class="node"><title>Node9</title>
<g id="a_node9"><a xlink:href="../../d4/d0c/csprogsdefs_8qc.html#a94a1345eb27474381462657533afc25c" target="_top" xlink:title="stringwidth">
<polygon fill="none" stroke="black" points="352,-152.5 352,-171.5 416,-171.5 416,-152.5 352,-152.5"/>
<text text-anchor="middle" x="384" y="-159.5" font-family="Helvetica,sans-Serif" font-size="10.00">stringwidth</text>
</a>
</g>
</g>
<!-- Node8&#45;&gt;Node9 -->
<g id="edge8" class="edge"><title>Node8&#45;&gt;Node9</title>
<path fill="none" stroke="midnightblue" d="M284.677,-162C303.086,-162 324.05,-162 341.878,-162"/>
<polygon fill="midnightblue" stroke="midnightblue" points="341.969,-165.5 351.969,-162 341.969,-158.5 341.969,-165.5"/>
</g>
<!-- Node10&#45;&gt;Node7 -->
<g id="edge10" class="edge"><title>Node10&#45;&gt;Node7</title>
<path fill="none" stroke="midnightblue" d="M274.59,-95.589C299.035,-101.995 330.767,-110.311 353.576,-116.289"/>
<polygon fill="midnightblue" stroke="midnightblue" points="352.809,-119.706 363.369,-118.855 354.583,-112.935 352.809,-119.706"/>
</g>
<!-- Node11 -->
<g id="node11" class="node"><title>Node11</title>
<g id="a_node11"><a xlink:href="../../d8/de2/menudefs_8qc.html#a40f6c65c8bbcfa51df783f2809a2502b" target="_top" xlink:title="substring">
<polygon fill="none" stroke="black" points="476,-76.5 476,-95.5 532,-95.5 532,-76.5 476,-76.5"/>
<text text-anchor="middle" x="504" y="-83.5" font-family="Helvetica,sans-Serif" font-size="10.00">substring</text>
</a>
</g>
</g>
<!-- Node10&#45;&gt;Node11 -->
<g id="edge11" class="edge"><title>Node10&#45;&gt;Node11</title>
<path fill="none" stroke="midnightblue" d="M289.095,-86C340.862,-86 419.695,-86 465.81,-86"/>
<polygon fill="midnightblue" stroke="midnightblue" points="465.963,-89.5001 475.963,-86 465.963,-82.5001 465.963,-89.5001"/>
</g>
<!-- Node12 -->
<g id="node12" class="node"><title>Node12</title>
<g id="a_node12"><a xlink:href="../../da/d44/common_2util_8qc.html#ab6502642132678c20db7fd26c09ddcf0" target="_top" xlink:title="textLengthUpToWidth">
<polygon fill="none" stroke="black" points="328,-38.5 328,-57.5 440,-57.5 440,-38.5 328,-38.5"/>
<text text-anchor="middle" x="384" y="-45.5" font-family="Helvetica,sans-Serif" font-size="10.00">textLengthUpToWidth</text>
</a>
</g>
</g>
<!-- Node10&#45;&gt;Node12 -->
<g id="edge12" class="edge"><title>Node10&#45;&gt;Node12</title>
<path fill="none" stroke="midnightblue" d="M274.59,-76.411C293.465,-71.4642 316.686,-65.3789 336.788,-60.1108"/>
<polygon fill="midnightblue" stroke="midnightblue" points="337.887,-63.4409 346.673,-57.5201 336.113,-56.6695 337.887,-63.4409"/>
</g>
<!-- Node12&#45;&gt;Node11 -->
<g id="edge15" class="edge"><title>Node12&#45;&gt;Node11</title>
<path fill="none" stroke="midnightblue" d="M414.776,-57.589C430.268,-62.5779 449.356,-68.725 465.811,-74.0238"/>
<polygon fill="midnightblue" stroke="midnightblue" points="465.068,-77.4616 475.66,-77.1955 467.214,-70.7986 465.068,-77.4616"/>
</g>
<!-- Node13 -->
<g id="node13" class="node"><title>Node13</title>
<g id="a_node13"><a xlink:href="../../d8/de2/menudefs_8qc.html#a274680f571a231ddf29421b93d434bfa" target="_top" xlink:title="strlen">
<polygon fill="none" stroke="black" points="483.5,-0.5 483.5,-19.5 524.5,-19.5 524.5,-0.5 483.5,-0.5"/>
<text text-anchor="middle" x="504" y="-7.5" font-family="Helvetica,sans-Serif" font-size="10.00">strlen</text>
</a>
</g>
</g>
<!-- Node12&#45;&gt;Node13 -->
<g id="edge13" class="edge"><title>Node12&#45;&gt;Node13</title>
<path fill="none" stroke="midnightblue" d="M414.776,-38.411C432.781,-32.6129 455.643,-25.2504 473.583,-19.4733"/>
<polygon fill="midnightblue" stroke="midnightblue" points="474.795,-22.7599 483.241,-16.363 472.65,-16.0969 474.795,-22.7599"/>
</g>
<!-- Node14 -->
<g id="node14" class="node"><title>Node14</title>
<g id="a_node14"><a xlink:href="../../d8/de2/menudefs_8qc.html#ad5a3e16aa960bd72d3ca37a618eea802" target="_top" xlink:title="floor">
<polygon fill="none" stroke="black" points="486.5,-38.5 486.5,-57.5 521.5,-57.5 521.5,-38.5 486.5,-38.5"/>
<text text-anchor="middle" x="504" y="-45.5" font-family="Helvetica,sans-Serif" font-size="10.00">floor</text>
</a>
</g>
</g>
<!-- Node12&#45;&gt;Node14 -->
<g id="edge14" class="edge"><title>Node12&#45;&gt;Node14</title>
<path fill="none" stroke="midnightblue" d="M440.2,-48C452.665,-48 465.357,-48 476.038,-48"/>
<polygon fill="midnightblue" stroke="midnightblue" points="476.348,-51.5001 486.348,-48 476.348,-44.5001 476.348,-51.5001"/>
</g>
</g>
</svg>
        <g id="navigator" transform="translate(0 0)" fill="#404254">
                <rect fill="#f2f5e9" fill-opacity="0.5" stroke="#606060" stroke-width=".5" x="0" y="0" width="60" height="60"/>
                <use id="zoomplus" xlink:href="#zoomPlus" x="17" y="9" onmousedown="handleZoom(evt,'in')"/>
                <use id="zoomminus" xlink:href="#zoomMin" x="42" y="9" onmousedown="handleZoom(evt,'out')"/>
                <use id="reset" xlink:href="#resetDef" x="30" y="36" onmousedown="handleReset()"/>
                <g id="arrowUp" xlink:href="#dirArrow" transform="translate(30 24)" onmousedown="handlePan(0,-1)">
                  <use xlink:href="#rim" fill="#404040">
                        <set attributeName="fill" to="#808080" begin="arrowUp.mouseover" end="arrowUp.mouseout"/>
                  </use>
                  <path fill="none" stroke="white" stroke-width="1.5" d="M0,-3.0v7 M-2.5,-0.5L0,-3.0L2.5,-0.5"/>
                </g>
                <g id="arrowRight" xlink:href="#dirArrow" transform="rotate(90) translate(36 -43)" onmousedown="handlePan(1,0)">
                  <use xlink:href="#rim" fill="#404040">
                        <set attributeName="fill" to="#808080" begin="arrowRight.mouseover" end="arrowRight.mouseout"/>
                  </use>
                  <path fill="none" stroke="white" stroke-width="1.5" d="M0,-3.0v7 M-2.5,-0.5L0,-3.0L2.5,-0.5"/>
                </g>
                <g id="arrowDown" xlink:href="#dirArrow" transform="rotate(180) translate(-30 -48)" onmousedown="handlePan(0,1)">
                  <use xlink:href="#rim" fill="#404040">
                        <set attributeName="fill" to="#808080" begin="arrowDown.mouseover" end="arrowDown.mouseout"/>
                  </use>
                  <path fill="none" stroke="white" stroke-width="1.5" d="M0,-3.0v7 M-2.5,-0.5L0,-3.0L2.5,-0.5"/>
                </g>
                <g id="arrowLeft" xlink:href="#dirArrow" transform="rotate(270) translate(-36 17)" onmousedown="handlePan(-1,0)">
                  <use xlink:href="#rim" fill="#404040">
                        <set attributeName="fill" to="#808080" begin="arrowLeft.mouseover" end="arrowLeft.mouseout"/>
                  </use>
                  <path fill="none" stroke="white" stroke-width="1.5" d="M0,-3.0v7 M-2.5,-0.5L0,-3.0L2.5,-0.5"/>
                </g>
        </g>
        <svg viewBox="0 0 15 15" width="100%" height="30px" preserveAspectRatio="xMaxYMin meet">
         <g id="arrow_out" transform="scale(0.3 0.3)">
          <a xlink:href="quickmenu_8qc_a114ffdb36bc1b1433b8e63e97ad3facf_cgraph_org.svg" target="_base">
           <rect id="button" ry="5" rx="5" y="6" x="6" height="38" width="38"
                fill="#f2f5e9" fill-opacity="0.5" stroke="#606060" stroke-width="1.0"/>
           <path id="arrow"
             d="M 11.500037,31.436501 C 11.940474,20.09759 22.043105,11.32322 32.158766,21.979434 L 37.068811,17.246167 C 37.068811,17.246167 37.088388,32 37.088388,32 L 22.160133,31.978069 C 22.160133,31.978069 26.997745,27.140456 26.997745,27.140456 C 18.528582,18.264221 13.291696,25.230495 11.500037,31.436501 z"
             style="fill:#404040;"/>
          </a>
         </g>
        </svg>
</svg>
