<?xml version="1.0" encoding="UTF-8" standalone="no"?>
<!DOCTYPE svg PUBLIC "-//W3C//DTD SVG 1.1//EN"
 "http://www.w3.org/Graphics/SVG/1.1/DTD/svg11.dtd">
<!-- Generated by graphviz version 2.38.0 (20140413.2041)
 -->
<!-- Title: QuickMenu_Page_Load Pages: 1 -->
<!--zoomable 458 -->
<svg id="main" version="1.1" xmlns="http://www.w3.org/2000/svg" xmlns:xlink="http://www.w3.org/1999/xlink" xml:space="preserve" onload="init(evt)">
<style type="text/css"><![CDATA[
.edge:hover path { stroke: red; }
.edge:hover polygon { stroke: red; fill: red; }
]]></style>
<script type="text/javascript"><![CDATA[
var edges = document.getElementsByTagName('g');
if (edges && edges.length) {
  for (var i=0;i<edges.length;i++) {
    if (edges[i].id.substr(0,4)=='edge') {
      edges[i].setAttribute('class','edge');
    }
  }
}
]]></script>
        <defs>
                <circle id="rim" cx="0" cy="0" r="7"/>
                <circle id="rim2" cx="0" cy="0" r="3.5"/>
                <g id="zoomPlus">
                        <use xlink:href="#rim" fill="#404040">
                                <set attributeName="fill" to="#808080" begin="zoomplus.mouseover" end="zoomplus.mouseout"/>
                        </use>
                        <path d="M-4,0h8M0,-4v8" fill="none" stroke="white" stroke-width="1.5" pointer-events="none"/>
                </g>
                <g id="zoomMin">
                        <use xlink:href="#rim" fill="#404040">
                                <set attributeName="fill" to="#808080" begin="zoomminus.mouseover" end="zoomminus.mouseout"/>
                        </use>
                        <path d="M-4,0h8" fill="none" stroke="white" stroke-width="1.5" pointer-events="none"/>
                </g>
                <g id="dirArrow">
                        <path fill="none" stroke="white" stroke-width="1.5" d="M0,-3.0v7 M-2.5,-0.5L0,-3.0L2.5,-0.5"/>
                </g>
               <g id="resetDef">
                       <use xlink:href="#rim2" fill="#404040">
                               <set attributeName="fill" to="#808080" begin="reset.mouseover" end="reset.mouseout"/>
                       </use>
               </g>
        </defs>

<script type="text/javascript">
var viewWidth = 589;
var viewHeight = 458;
var sectionId = 'dynsection-28';
</script>
<script xlink:href="../../svgpan.js"/>
<svg id="graph" class="graph">
<g id="viewport">
<title>QuickMenu_Page_Load</title>
<!-- Node1 -->
<g id="node1" class="node"><title>Node1</title>
<polygon fill="#bfbfbf" stroke="black" points="0,-209.5 0,-228.5 126,-228.5 126,-209.5 0,-209.5"/>
<text text-anchor="middle" x="63" y="-216.5" font-family="Helvetica,sans-Serif" font-size="10.00">QuickMenu_Page_Load</text>
</g>
<!-- Node2 -->
<g id="node2" class="node"><title>Node2</title>
<g id="a_node2"><a xlink:href="../../d8/de2/menudefs_8qc.html#ae3e9d36eda7886f5fe58e5201291dd78" target="_top" xlink:title="argv">
<polygon fill="none" stroke="black" points="218.5,-430.5 218.5,-449.5 256.5,-449.5 256.5,-430.5 218.5,-430.5"/>
<text text-anchor="middle" x="237.5" y="-437.5" font-family="Helvetica,sans-Serif" font-size="10.00">argv</text>
</a>
</g>
</g>
<!-- Node1&#45;&gt;Node2 -->
<g id="edge1" class="edge"><title>Node1&#45;&gt;Node2</title>
<path fill="none" stroke="midnightblue" d="M65.7395,-228.807C72.0787,-261.551 97.0689,-368.018 162,-421 174.899,-431.525 192.914,-436.305 207.997,-438.439"/>
<polygon fill="midnightblue" stroke="midnightblue" points="208.026,-441.963 218.347,-439.569 208.786,-435.004 208.026,-441.963"/>
</g>
<!-- Node3 -->
<g id="node3" class="node"><title>Node3</title>
<g id="a_node3"><a xlink:href="../../d8/de2/menudefs_8qc.html#a977f9318008de123876b168dfa86ad22" target="_top" xlink:title="cmd">
<polygon fill="none" stroke="black" points="218.5,-392.5 218.5,-411.5 256.5,-411.5 256.5,-392.5 218.5,-392.5"/>
<text text-anchor="middle" x="237.5" y="-399.5" font-family="Helvetica,sans-Serif" font-size="10.00">cmd</text>
</a>
</g>
</g>
<!-- Node1&#45;&gt;Node3 -->
<g id="edge2" class="edge"><title>Node1&#45;&gt;Node3</title>
<path fill="none" stroke="midnightblue" d="M66.8199,-228.542C75.7039,-256.877 105.905,-341.152 162,-383 175.258,-392.891 193.138,-397.658 208.058,-399.944"/>
<polygon fill="midnightblue" stroke="midnightblue" points="207.937,-403.456 218.29,-401.209 208.795,-396.509 207.937,-403.456"/>
</g>
<!-- Node4 -->
<g id="node4" class="node"><title>Node4</title>
<g id="a_node4"><a xlink:href="../../d8/d19/quickmenu_8qc.html#a13bf64cdfe34bd30bd357acb7bd7364b" target="_top" xlink:title="HUD_Quickmenu_PlayerList\lEntries_Create">
<polygon fill="none" stroke="black" points="163,-343 163,-373 312,-373 312,-343 163,-343"/>
<text text-anchor="start" x="171" y="-361" font-family="Helvetica,sans-Serif" font-size="10.00">HUD_Quickmenu_PlayerList</text>
<text text-anchor="middle" x="237.5" y="-350" font-family="Helvetica,sans-Serif" font-size="10.00">Entries_Create</text>
</a>
</g>
</g>
<!-- Node1&#45;&gt;Node4 -->
<g id="edge3" class="edge"><title>Node1&#45;&gt;Node4</title>
<path fill="none" stroke="midnightblue" d="M69.7995,-228.796C83.2379,-250.672 118.691,-303.861 162,-333 164.918,-334.963 168.004,-336.785 171.195,-338.473"/>
<polygon fill="midnightblue" stroke="midnightblue" points="169.879,-341.724 180.41,-342.886 172.902,-335.41 169.879,-341.724"/>
</g>
<!-- Node8 -->
<g id="node8" class="node"><title>Node8</title>
<g id="a_node8"><a xlink:href="../../d8/d19/quickmenu_8qc.html#a46816c6fc535c6a13921c56e85c3ac25" target="_top" xlink:title="QuickMenu_Page_ClearEntry">
<polygon fill="none" stroke="black" points="349,-285.5 349,-304.5 501,-304.5 501,-285.5 349,-285.5"/>
<text text-anchor="middle" x="425" y="-292.5" font-family="Helvetica,sans-Serif" font-size="10.00">QuickMenu_Page_ClearEntry</text>
</a>
</g>
</g>
<!-- Node1&#45;&gt;Node8 -->
<g id="edge11" class="edge"><title>Node1&#45;&gt;Node8</title>
<path fill="none" stroke="midnightblue" d="M84.575,-228.553C104.099,-237.237 134.468,-249.765 162,-257 220.032,-272.25 287.01,-281.828 338.718,-287.554"/>
<polygon fill="midnightblue" stroke="midnightblue" points="338.531,-291.054 348.849,-288.648 339.283,-284.094 338.531,-291.054"/>
</g>
<!-- Node9 -->
<g id="node9" class="node"><title>Node9</title>
<g id="a_node9"><a xlink:href="../../d8/d19/quickmenu_8qc.html#a842da1e1b814366ffd55d4096c8123c1" target="_top" xlink:title="QuickMenu_Close">
<polygon fill="none" stroke="black" points="187,-304.5 187,-323.5 288,-323.5 288,-304.5 187,-304.5"/>
<text text-anchor="middle" x="237.5" y="-311.5" font-family="Helvetica,sans-Serif" font-size="10.00">QuickMenu_Close</text>
</a>
</g>
</g>
<!-- Node1&#45;&gt;Node9 -->
<g id="edge8" class="edge"><title>Node1&#45;&gt;Node9</title>
<path fill="none" stroke="midnightblue" d="M74.7135,-228.54C91.979,-243.487 127.522,-272.516 162,-290 170.545,-294.333 180.035,-298.1 189.3,-301.284"/>
<polygon fill="midnightblue" stroke="midnightblue" points="188.233,-304.617 198.825,-304.39 190.403,-297.962 188.233,-304.617"/>
</g>
<!-- Node10 -->
<g id="node10" class="node"><title>Node10</title>
<g id="a_node10"><a xlink:href="../../d8/d19/quickmenu_8qc.html#a38e09cb3ca2db7651fa2393c9fb8450f" target="_top" xlink:title="QuickMenu_Page_LoadEntry">
<polygon fill="none" stroke="black" points="162,-228.5 162,-247.5 313,-247.5 313,-228.5 162,-228.5"/>
<text text-anchor="middle" x="237.5" y="-235.5" font-family="Helvetica,sans-Serif" font-size="10.00">QuickMenu_Page_LoadEntry</text>
</a>
</g>
</g>
<!-- Node1&#45;&gt;Node10 -->
<g id="edge12" class="edge"><title>Node1&#45;&gt;Node10</title>
<path fill="none" stroke="midnightblue" d="M126.276,-225.859C134.6,-226.776 143.247,-227.729 151.873,-228.679"/>
<polygon fill="midnightblue" stroke="midnightblue" points="151.644,-232.175 161.968,-229.791 152.411,-225.217 151.644,-232.175"/>
</g>
<!-- Node11 -->
<g id="node11" class="node"><title>Node11</title>
<g id="a_node11"><a xlink:href="../../d8/d19/quickmenu_8qc.html#a3b5cdd261d16b8518c4c5d681bd42843" target="_top" xlink:title="QuickMenu_skip_submenu">
<polygon fill="none" stroke="black" points="166,-152.5 166,-171.5 309,-171.5 309,-152.5 166,-152.5"/>
<text text-anchor="middle" x="237.5" y="-159.5" font-family="Helvetica,sans-Serif" font-size="10.00">QuickMenu_skip_submenu</text>
</a>
</g>
</g>
<!-- Node1&#45;&gt;Node11 -->
<g id="edge13" class="edge"><title>Node1&#45;&gt;Node11</title>
<path fill="none" stroke="midnightblue" d="M92.2713,-209.37C111.83,-202.735 138.469,-193.752 162,-186 173.28,-182.284 185.541,-178.308 196.799,-174.683"/>
<polygon fill="midnightblue" stroke="midnightblue" points="197.934,-177.994 206.384,-171.602 195.793,-171.33 197.934,-177.994"/>
</g>
<!-- Node12 -->
<g id="node12" class="node"><title>Node12</title>
<g id="a_node12"><a xlink:href="../../d8/de2/menudefs_8qc.html#a40f6c65c8bbcfa51df783f2809a2502b" target="_top" xlink:title="substring">
<polygon fill="none" stroke="black" points="394.5,-171.5 394.5,-190.5 455.5,-190.5 455.5,-171.5 394.5,-171.5"/>
<text text-anchor="middle" x="425" y="-178.5" font-family="Helvetica,sans-Serif" font-size="10.00">substring</text>
</a>
</g>
</g>
<!-- Node1&#45;&gt;Node12 -->
<g id="edge19" class="edge"><title>Node1&#45;&gt;Node12</title>
<path fill="none" stroke="midnightblue" d="M126.296,-212.424C200.299,-204.613 321.567,-191.812 384.035,-185.219"/>
<polygon fill="midnightblue" stroke="midnightblue" points="384.688,-188.669 394.265,-184.139 383.953,-181.708 384.688,-188.669"/>
</g>
<!-- Node13 -->
<g id="node13" class="node"><title>Node13</title>
<g id="a_node13"><a xlink:href="../../d8/d19/quickmenu_8qc.html#a0ecfb0c57bb6fcc84ddf7cbac644d624" target="_top" xlink:title="QuickMenu_TimeOut_Set">
<polygon fill="none" stroke="black" points="169,-114.5 169,-133.5 306,-133.5 306,-114.5 169,-114.5"/>
<text text-anchor="middle" x="237.5" y="-121.5" font-family="Helvetica,sans-Serif" font-size="10.00">QuickMenu_TimeOut_Set</text>
</a>
</g>
</g>
<!-- Node1&#45;&gt;Node13 -->
<g id="edge15" class="edge"><title>Node1&#45;&gt;Node13</title>
<path fill="none" stroke="midnightblue" d="M73.6371,-209.266C90.2099,-193.084 125.828,-160.682 162,-143 166.872,-140.619 172.073,-138.514 177.378,-136.66"/>
<polygon fill="midnightblue" stroke="midnightblue" points="178.53,-139.966 186.987,-133.584 176.396,-133.299 178.53,-139.966"/>
</g>
<!-- Node14 -->
<g id="node14" class="node"><title>Node14</title>
<g id="a_node14"><a xlink:href="../../d8/de2/menudefs_8qc.html#a2f6d3020689c0e872cfb455d0b2cbd4a" target="_top" xlink:title="stof">
<polygon fill="none" stroke="black" points="220,-76.5 220,-95.5 255,-95.5 255,-76.5 220,-76.5"/>
<text text-anchor="middle" x="237.5" y="-83.5" font-family="Helvetica,sans-Serif" font-size="10.00">stof</text>
</a>
</g>
</g>
<!-- Node1&#45;&gt;Node14 -->
<g id="edge16" class="edge"><title>Node1&#45;&gt;Node14</title>
<path fill="none" stroke="midnightblue" d="M69.4536,-209.304C82.4306,-187.16 117.42,-132.653 162,-105 176.422,-96.0542 194.894,-91.3077 209.837,-88.7959"/>
<polygon fill="midnightblue" stroke="midnightblue" points="210.586,-92.2242 219.985,-87.3338 209.588,-85.2957 210.586,-92.2242"/>
</g>
<!-- Node15 -->
<g id="node15" class="node"><title>Node15</title>
<g id="a_node15"><a xlink:href="../../d8/de2/menudefs_8qc.html#ab64c3a0e7d347975b8b7a5cd17ab0113" target="_top" xlink:title="strunzone">
<polygon fill="none" stroke="black" points="205,-38.5 205,-57.5 270,-57.5 270,-38.5 205,-38.5"/>
<text text-anchor="middle" x="237.5" y="-45.5" font-family="Helvetica,sans-Serif" font-size="10.00">strunzone</text>
</a>
</g>
</g>
<!-- Node1&#45;&gt;Node15 -->
<g id="edge17" class="edge"><title>Node1&#45;&gt;Node15</title>
<path fill="none" stroke="midnightblue" d="M67.3113,-209.388C77.1252,-182.388 108.741,-105.338 162,-67 171.636,-60.0639 183.569,-55.6539 195.04,-52.8521"/>
<polygon fill="midnightblue" stroke="midnightblue" points="195.862,-56.256 204.933,-50.7808 194.428,-49.4045 195.862,-56.256"/>
</g>
<!-- Node16 -->
<g id="node16" class="node"><title>Node16</title>
<g id="a_node16"><a xlink:href="../../d8/de2/menudefs_8qc.html#ae06db7c87845d853670a09a1d487b1db" target="_top" xlink:title="strzone">
<polygon fill="none" stroke="black" points="211,-0.5 211,-19.5 264,-19.5 264,-0.5 211,-0.5"/>
<text text-anchor="middle" x="237.5" y="-7.5" font-family="Helvetica,sans-Serif" font-size="10.00">strzone</text>
</a>
</g>
</g>
<!-- Node1&#45;&gt;Node16 -->
<g id="edge18" class="edge"><title>Node1&#45;&gt;Node16</title>
<path fill="none" stroke="midnightblue" d="M66.0293,-209.329C73.1254,-177.998 99.8497,-78.4571 162,-29 172.879,-20.3431 187.238,-15.5853 200.444,-12.9869"/>
<polygon fill="midnightblue" stroke="midnightblue" points="201.384,-16.3805 210.7,-11.3327 200.27,-9.46983 201.384,-16.3805"/>
</g>
<!-- Node5 -->
<g id="node5" class="node"><title>Node5</title>
<g id="a_node5"><a xlink:href="../../d8/d19/quickmenu_8qc.html#a72ae9d97edf7b6fda39c874800c0d74a" target="_top" xlink:title="HUD_Quickmenu_PlayerList\lEntries">
<polygon fill="none" stroke="black" points="350.5,-362 350.5,-392 499.5,-392 499.5,-362 350.5,-362"/>
<text text-anchor="start" x="358.5" y="-380" font-family="Helvetica,sans-Serif" font-size="10.00">HUD_Quickmenu_PlayerList</text>
<text text-anchor="middle" x="425" y="-369" font-family="Helvetica,sans-Serif" font-size="10.00">Entries</text>
</a>
</g>
</g>
<!-- Node4&#45;&gt;Node5 -->
<g id="edge4" class="edge"><title>Node4&#45;&gt;Node5</title>
<path fill="none" stroke="midnightblue" d="M312.081,-365.537C321.292,-366.48 330.767,-367.451 340.121,-368.409"/>
<polygon fill="midnightblue" stroke="midnightblue" points="339.9,-371.904 350.205,-369.441 340.613,-364.941 339.9,-371.904"/>
</g>
<!-- Node7 -->
<g id="node7" class="node"><title>Node7</title>
<g id="a_node7"><a xlink:href="../../d8/d19/quickmenu_8qc.html#a769c8216135812ab340851b5b064775d" target="_top" xlink:title="QuickMenu_Buffer_Close">
<polygon fill="none" stroke="black" points="358,-323.5 358,-342.5 492,-342.5 492,-323.5 358,-323.5"/>
<text text-anchor="middle" x="425" y="-330.5" font-family="Helvetica,sans-Serif" font-size="10.00">QuickMenu_Buffer_Close</text>
</a>
</g>
</g>
<!-- Node4&#45;&gt;Node7 -->
<g id="edge6" class="edge"><title>Node4&#45;&gt;Node7</title>
<path fill="none" stroke="midnightblue" d="M312.081,-348.083C323.738,-346.512 335.818,-344.884 347.539,-343.305"/>
<polygon fill="midnightblue" stroke="midnightblue" points="348.285,-346.736 357.727,-341.932 347.35,-339.799 348.285,-346.736"/>
</g>
<!-- Node4&#45;&gt;Node8 -->
<g id="edge7" class="edge"><title>Node4&#45;&gt;Node8</title>
<path fill="none" stroke="midnightblue" d="M287.02,-342.987C295.762,-339.924 304.723,-336.545 313,-333 329.63,-325.877 332.112,-320.489 349,-314 355.402,-311.54 362.235,-309.305 369.07,-307.304"/>
<polygon fill="midnightblue" stroke="midnightblue" points="370.338,-310.585 379.039,-304.54 368.467,-303.839 370.338,-310.585"/>
</g>
<!-- Node6 -->
<g id="node6" class="node"><title>Node6</title>
<g id="a_node6"><a xlink:href="../../d4/d0c/csprogsdefs_8qc.html#acbb54a239d76062465dccbc6a6c6e464" target="_top" xlink:title="entity">
<polygon fill="none" stroke="black" points="537,-367.5 537,-386.5 581,-386.5 581,-367.5 537,-367.5"/>
<text text-anchor="middle" x="559" y="-374.5" font-family="Helvetica,sans-Serif" font-size="10.00">entity</text>
</a>
</g>
</g>
<!-- Node5&#45;&gt;Node6 -->
<g id="edge5" class="edge"><title>Node5&#45;&gt;Node6</title>
<path fill="none" stroke="midnightblue" d="M499.719,-377C509.163,-377 518.393,-377 526.622,-377"/>
<polygon fill="midnightblue" stroke="midnightblue" points="526.797,-380.5 536.796,-377 526.796,-373.5 526.797,-380.5"/>
</g>
<!-- Node9&#45;&gt;Node7 -->
<g id="edge9" class="edge"><title>Node9&#45;&gt;Node7</title>
<path fill="none" stroke="midnightblue" d="M288.211,-319.092C306.48,-320.963 327.613,-323.127 347.685,-325.183"/>
<polygon fill="midnightblue" stroke="midnightblue" points="347.444,-328.677 357.748,-326.214 348.157,-321.713 347.444,-328.677"/>
</g>
<!-- Node9&#45;&gt;Node8 -->
<g id="edge10" class="edge"><title>Node9&#45;&gt;Node8</title>
<path fill="none" stroke="midnightblue" d="M288.211,-308.908C303.731,-307.319 321.317,-305.517 338.564,-303.751"/>
<polygon fill="midnightblue" stroke="midnightblue" points="339.069,-307.217 348.661,-302.717 338.356,-300.254 339.069,-307.217"/>
</g>
<!-- Node11&#45;&gt;Node12 -->
<g id="edge14" class="edge"><title>Node11&#45;&gt;Node12</title>
<path fill="none" stroke="midnightblue" d="M309.159,-169.237C334.5,-171.833 362.176,-174.668 384.009,-176.904"/>
<polygon fill="midnightblue" stroke="midnightblue" points="383.917,-180.413 394.222,-177.95 384.631,-173.449 383.917,-180.413"/>
</g>
</g>
</svg>
        <g id="navigator" transform="translate(0 0)" fill="#404254">
                <rect fill="#f2f5e9" fill-opacity="0.5" stroke="#606060" stroke-width=".5" x="0" y="0" width="60" height="60"/>
                <use id="zoomplus" xlink:href="#zoomPlus" x="17" y="9" onmousedown="handleZoom(evt,'in')"/>
                <use id="zoomminus" xlink:href="#zoomMin" x="42" y="9" onmousedown="handleZoom(evt,'out')"/>
                <use id="reset" xlink:href="#resetDef" x="30" y="36" onmousedown="handleReset()"/>
                <g id="arrowUp" xlink:href="#dirArrow" transform="translate(30 24)" onmousedown="handlePan(0,-1)">
                  <use xlink:href="#rim" fill="#404040">
                        <set attributeName="fill" to="#808080" begin="arrowUp.mouseover" end="arrowUp.mouseout"/>
                  </use>
                  <path fill="none" stroke="white" stroke-width="1.5" d="M0,-3.0v7 M-2.5,-0.5L0,-3.0L2.5,-0.5"/>
                </g>
                <g id="arrowRight" xlink:href="#dirArrow" transform="rotate(90) translate(36 -43)" onmousedown="handlePan(1,0)">
                  <use xlink:href="#rim" fill="#404040">
                        <set attributeName="fill" to="#808080" begin="arrowRight.mouseover" end="arrowRight.mouseout"/>
                  </use>
                  <path fill="none" stroke="white" stroke-width="1.5" d="M0,-3.0v7 M-2.5,-0.5L0,-3.0L2.5,-0.5"/>
                </g>
                <g id="arrowDown" xlink:href="#dirArrow" transform="rotate(180) translate(-30 -48)" onmousedown="handlePan(0,1)">
                  <use xlink:href="#rim" fill="#404040">
                        <set attributeName="fill" to="#808080" begin="arrowDown.mouseover" end="arrowDown.mouseout"/>
                  </use>
                  <path fill="none" stroke="white" stroke-width="1.5" d="M0,-3.0v7 M-2.5,-0.5L0,-3.0L2.5,-0.5"/>
                </g>
                <g id="arrowLeft" xlink:href="#dirArrow" transform="rotate(270) translate(-36 17)" onmousedown="handlePan(-1,0)">
                  <use xlink:href="#rim" fill="#404040">
                        <set attributeName="fill" to="#808080" begin="arrowLeft.mouseover" end="arrowLeft.mouseout"/>
                  </use>
                  <path fill="none" stroke="white" stroke-width="1.5" d="M0,-3.0v7 M-2.5,-0.5L0,-3.0L2.5,-0.5"/>
                </g>
        </g>
        <svg viewBox="0 0 15 15" width="100%" height="30px" preserveAspectRatio="xMaxYMin meet">
         <g id="arrow_out" transform="scale(0.3 0.3)">
          <a xlink:href="quickmenu_8qc_a681c1a9e37ba8d6b380ec78f98523a84_cgraph_org.svg" target="_base">
           <rect id="button" ry="5" rx="5" y="6" x="6" height="38" width="38"
                fill="#f2f5e9" fill-opacity="0.5" stroke="#606060" stroke-width="1.0"/>
           <path id="arrow"
             d="M 11.500037,31.436501 C 11.940474,20.09759 22.043105,11.32322 32.158766,21.979434 L 37.068811,17.246167 C 37.068811,17.246167 37.088388,32 37.088388,32 L 22.160133,31.978069 C 22.160133,31.978069 26.997745,27.140456 26.997745,27.140456 C 18.528582,18.264221 13.291696,25.230495 11.500037,31.436501 z"
             style="fill:#404040;"/>
          </a>
         </g>
        </svg>
</svg>
