<?xml version="1.0" encoding="UTF-8" standalone="no"?>
<!DOCTYPE svg PUBLIC "-//W3C//DTD SVG 1.1//EN"
 "http://www.w3.org/Graphics/SVG/1.1/DTD/svg11.dtd">
<!-- Generated by graphviz version 2.40.1 (20161225.0304)
 -->
<!-- Title: XonoticPlayList_addToPlayList Pages: 1 -->
<svg width="279pt" height="142pt"
 viewBox="0.00 0.00 279.00 142.00" xmlns="http://www.w3.org/2000/svg" xmlns:xlink="http://www.w3.org/1999/xlink">
<g id="graph0" class="graph" transform="scale(1 1) rotate(0) translate(4 138)">
<title>XonoticPlayList_addToPlayList</title>
<!-- Node18 -->
<g id="node1" class="node">
<title>Node18</title>
<polygon fill="#bfbfbf" stroke="#000000" points="0,-57.5 0,-76.5 164,-76.5 164,-57.5 0,-57.5"/>
<text text-anchor="middle" x="82" y="-64.5" font-family="Helvetica,sans-Serif" font-size="10.00" fill="#000000">XonoticPlayList_addToPlayList</text>
</g>
<!-- Node19 -->
<g id="node2" class="node">
<title>Node19</title>
<g id="a_node2"><a xlink:href="../../d8/de2/menudefs_8qc.html#ae3e9d36eda7886f5fe58e5201291dd78" target="_top" xlink:title="argv">
<polygon fill="none" stroke="#000000" points="216.5,-114.5 216.5,-133.5 254.5,-133.5 254.5,-114.5 216.5,-114.5"/>
<text text-anchor="middle" x="235.5" y="-121.5" font-family="Helvetica,sans-Serif" font-size="10.00" fill="#000000">argv</text>
</a>
</g>
</g>
<!-- Node18&#45;&gt;Node19 -->
<g id="edge1" class="edge">
<title>Node18&#45;&gt;Node19</title>
<path fill="none" stroke="#191970" d="M107.6924,-76.5405C135.0242,-86.6898 178.1658,-102.7098 206.6474,-113.286"/>
<polygon fill="#191970" stroke="#191970" points="205.4674,-116.5813 216.0603,-116.7814 207.9042,-110.0191 205.4674,-116.5813"/>
</g>
<!-- Node20 -->
<g id="node3" class="node">
<title>Node20</title>
<g id="a_node3"><a xlink:href="../../d8/de2/menudefs_8qc.html#a0b350379da8a7002dee40a3598bf33c3" target="_top" xlink:title="cvar_set">
<polygon fill="none" stroke="#000000" points="206.5,-76.5 206.5,-95.5 264.5,-95.5 264.5,-76.5 206.5,-76.5"/>
<text text-anchor="middle" x="235.5" y="-83.5" font-family="Helvetica,sans-Serif" font-size="10.00" fill="#000000">cvar_set</text>
</a>
</g>
</g>
<!-- Node18&#45;&gt;Node20 -->
<g id="edge2" class="edge">
<title>Node18&#45;&gt;Node20</title>
<path fill="none" stroke="#191970" d="M159.1997,-76.5557C172.1177,-78.1546 185.0188,-79.7515 196.439,-81.1651"/>
<polygon fill="#191970" stroke="#191970" points="196.1143,-84.6515 206.4685,-82.4065 196.9742,-77.7045 196.1143,-84.6515"/>
</g>
<!-- Node21 -->
<g id="node4" class="node">
<title>Node21</title>
<g id="a_node4"><a xlink:href="../../d8/de2/menudefs_8qc.html#a6f8c7ef6ee4a4d851aaa5fd1789eab9a" target="_top" xlink:title="cvar_string">
<polygon fill="none" stroke="#000000" points="200,-38.5 200,-57.5 271,-57.5 271,-38.5 200,-38.5"/>
<text text-anchor="middle" x="235.5" y="-45.5" font-family="Helvetica,sans-Serif" font-size="10.00" fill="#000000">cvar_string</text>
</a>
</g>
</g>
<!-- Node18&#45;&gt;Node21 -->
<g id="edge3" class="edge">
<title>Node18&#45;&gt;Node21</title>
<path fill="none" stroke="#191970" d="M159.1997,-57.4443C169.6167,-56.1549 180.0227,-54.8669 189.65,-53.6752"/>
<polygon fill="#191970" stroke="#191970" points="190.2604,-57.1265 199.7547,-52.4245 189.4004,-50.1795 190.2604,-57.1265"/>
</g>
<!-- Node22 -->
<g id="node5" class="node">
<title>Node22</title>
<g id="a_node5"><a xlink:href="../../d9/d09/notifications_2all_8inc.html#a2001490494c160e7cca8dc9273fc93d8" target="_top" xlink:title="strcat">
<polygon fill="none" stroke="#000000" points="213.5,-.5 213.5,-19.5 257.5,-19.5 257.5,-.5 213.5,-.5"/>
<text text-anchor="middle" x="235.5" y="-7.5" font-family="Helvetica,sans-Serif" font-size="10.00" fill="#000000">strcat</text>
</a>
</g>
</g>
<!-- Node18&#45;&gt;Node22 -->
<g id="edge4" class="edge">
<title>Node18&#45;&gt;Node22</title>
<path fill="none" stroke="#191970" d="M107.6924,-57.4595C134.108,-47.6504 175.2914,-32.3576 203.7351,-21.7955"/>
<polygon fill="#191970" stroke="#191970" points="205.0634,-25.0358 213.2195,-18.2735 202.6266,-18.4736 205.0634,-25.0358"/>
</g>
</g>
</svg>
