<?xml version="1.0" encoding="UTF-8" standalone="no"?>
<!DOCTYPE svg PUBLIC "-//W3C//DTD SVG 1.1//EN"
 "http://www.w3.org/Graphics/SVG/1.1/DTD/svg11.dtd">
<!-- Generated by graphviz version 2.40.1 (20161225.0304)
 -->
<!-- Title: nmm_init_tiles Pages: 1 -->
<!--zoomable 193 -->
<svg id="main" version="1.1" xmlns="http://www.w3.org/2000/svg" xmlns:xlink="http://www.w3.org/1999/xlink" xml:space="preserve" onload="init(evt)">
<style type="text/css"><![CDATA[
.edge:hover path { stroke: red; }
.edge:hover polygon { stroke: red; fill: red; }
]]></style>
<script type="text/javascript"><![CDATA[
var edges = document.getElementsByTagName('g');
if (edges && edges.length) {
  for (var i=0;i<edges.length;i++) {
    if (edges[i].id.substr(0,4)=='edge') {
      edges[i].setAttribute('class','edge');
    }
  }
}
]]></script>
        <defs>
                <circle id="rim" cx="0" cy="0" r="7"/>
                <circle id="rim2" cx="0" cy="0" r="3.5"/>
                <g id="zoomPlus">
                        <use xlink:href="#rim" fill="#404040">
                                <set attributeName="fill" to="#808080" begin="zoomplus.mouseover" end="zoomplus.mouseout"/>
                        </use>
                        <path d="M-4,0h8M0,-4v8" fill="none" stroke="white" stroke-width="1.5" pointer-events="none"/>
                </g>
                <g id="zoomMin">
                        <use xlink:href="#rim" fill="#404040">
                                <set attributeName="fill" to="#808080" begin="zoomminus.mouseover" end="zoomminus.mouseout"/>
                        </use>
                        <path d="M-4,0h8" fill="none" stroke="white" stroke-width="1.5" pointer-events="none"/>
                </g>
                <g id="dirArrow">
                        <path fill="none" stroke="white" stroke-width="1.5" d="M0,-3.0v7 M-2.5,-0.5L0,-3.0L2.5,-0.5"/>
                </g>
               <g id="resetDef">
                       <use xlink:href="#rim2" fill="#404040">
                               <set attributeName="fill" to="#808080" begin="reset.mouseover" end="reset.mouseout"/>
                       </use>
               </g>
        </defs>

<script type="text/javascript">
var viewWidth = 843;
var viewHeight = 193;
var sectionId = 'dynsection-7';
</script>
<script xlink:href="../../svgpan.js"/>
<svg id="graph" class="graph">
<g id="viewport">
<title>nmm_init_tiles</title>
<!-- Node73 -->
<g id="node1" class="node">
<title>Node73</title>
<polygon fill="#bfbfbf" stroke="#000000" points="0,-13.1281 0,-32.1281 89,-32.1281 89,-13.1281 0,-13.1281"/>
<text text-anchor="middle" x="44.5" y="-20.1281" font-family="Helvetica,sans-Serif" font-size="10.00" fill="#000000">nmm_init_tiles</text>
</g>
<!-- Node74 -->
<g id="node2" class="node">
<title>Node74</title>
<g id="a_node2"><a xlink:href="../../db/d8b/nmm_8qc.html#afa8638351a764ca2d8d52aa25e36b9d6" target="_top" xlink:title="nmm_spawn_tile_square">
<polygon fill="none" stroke="#000000" points="125,-13.1281 125,-32.1281 263,-32.1281 263,-13.1281 125,-13.1281"/>
<text text-anchor="middle" x="194" y="-20.1281" font-family="Helvetica,sans-Serif" font-size="10.00" fill="#000000">nmm_spawn_tile_square</text>
</a>
</g>
</g>
<!-- Node73&#45;&gt;Node74 -->
<g id="edge1" class="edge">
<title>Node73&#45;&gt;Node74</title>
<path fill="none" stroke="#191970" d="M89.3549,-22.6281C97.3913,-22.6281 105.9796,-22.6281 114.6508,-22.6281"/>
<polygon fill="#191970" stroke="#191970" points="114.84,-26.1282 124.84,-22.6281 114.8399,-19.1282 114.84,-26.1282"/>
</g>
<!-- Node75 -->
<g id="node3" class="node">
<title>Node75</title>
<g id="a_node3"><a xlink:href="../../db/d8b/nmm_8qc.html#ae72b15d2d41fe254c8dfab1583e10afe" target="_top" xlink:title="nmm_spawn_tile">
<polygon fill="none" stroke="#000000" points="299,-70.1281 299,-89.1281 399,-89.1281 399,-70.1281 299,-70.1281"/>
<text text-anchor="middle" x="349" y="-77.1281" font-family="Helvetica,sans-Serif" font-size="10.00" fill="#000000">nmm_spawn_tile</text>
</a>
</g>
</g>
<!-- Node74&#45;&gt;Node75 -->
<g id="edge2" class="edge">
<title>Node74&#45;&gt;Node75</title>
<path fill="none" stroke="#191970" d="M219.9435,-32.1686C245.5379,-41.5808 284.8621,-56.0419 313.3769,-66.528"/>
<polygon fill="#191970" stroke="#191970" points="312.3783,-69.8899 322.9718,-70.0565 314.7944,-63.32 312.3783,-69.8899"/>
</g>
<!-- Node82 -->
<g id="node10" class="node">
<title>Node82</title>
<g id="a_node10"><a xlink:href="../../d8/de2/menudefs_8qc.html#ae06db7c87845d853670a09a1d487b1db" target="_top" xlink:title="strzone">
<polygon fill="none" stroke="#000000" points="469.5,-13.1281 469.5,-32.1281 522.5,-32.1281 522.5,-13.1281 469.5,-13.1281"/>
<text text-anchor="middle" x="496" y="-20.1281" font-family="Helvetica,sans-Serif" font-size="10.00" fill="#000000">strzone</text>
</a>
</g>
</g>
<!-- Node74&#45;&gt;Node82 -->
<g id="edge23" class="edge">
<title>Node74&#45;&gt;Node82</title>
<path fill="none" stroke="#191970" d="M263.2849,-22.6281C324.2863,-22.6281 410.749,-22.6281 459.2788,-22.6281"/>
<polygon fill="#191970" stroke="#191970" points="459.3238,-26.1282 469.3237,-22.6281 459.3237,-19.1282 459.3238,-26.1282"/>
</g>
<!-- Node85 -->
<g id="node13" class="node">
<title>Node85</title>
<g id="a_node13"><a xlink:href="../../d3/dbf/minigames_8qc.html#adbfd9d3db8c920f23ecda1e18d9a65ab" target="_top" xlink:title="minigame_tile_buildname">
<polygon fill="none" stroke="#000000" points="593,-13.1281 593,-32.1281 737,-32.1281 737,-13.1281 593,-13.1281"/>
<text text-anchor="middle" x="665" y="-20.1281" font-family="Helvetica,sans-Serif" font-size="10.00" fill="#000000">minigame_tile_buildname</text>
</a>
</g>
</g>
<!-- Node74&#45;&gt;Node85 -->
<g id="edge24" class="edge">
<title>Node74&#45;&gt;Node85</title>
<path fill="none" stroke="#191970" d="M263.0136,-13.3071C336.1123,-4.7695 454.8395,5.2898 557,-3.6281 574.7568,-5.1781 593.9707,-8.1357 611.2011,-11.264"/>
<polygon fill="#191970" stroke="#191970" points="610.6173,-14.7154 621.0908,-13.1162 611.906,-7.8351 610.6173,-14.7154"/>
</g>
<!-- Node76 -->
<g id="node4" class="node">
<title>Node76</title>
<g id="a_node4"><a xlink:href="../../d4/d0c/csprogsdefs_8qc.html#acbb54a239d76062465dccbc6a6c6e464" target="_top" xlink:title="entity">
<polygon fill="none" stroke="#000000" points="473.5,-89.1281 473.5,-108.1281 518.5,-108.1281 518.5,-89.1281 473.5,-89.1281"/>
<text text-anchor="middle" x="496" y="-96.1281" font-family="Helvetica,sans-Serif" font-size="10.00" fill="#000000">entity</text>
</a>
</g>
</g>
<!-- Node75&#45;&gt;Node76 -->
<g id="edge3" class="edge">
<title>Node75&#45;&gt;Node76</title>
<path fill="none" stroke="#191970" d="M399.1779,-86.1137C420.2734,-88.8403 444.2284,-91.9365 463.0331,-94.3671"/>
<polygon fill="#191970" stroke="#191970" points="462.8075,-97.8669 473.1737,-95.6778 463.7048,-90.9247 462.8075,-97.8669"/>
</g>
<!-- Node77 -->
<g id="node5" class="node">
<title>Node77</title>
<g id="a_node5"><a xlink:href="../../d3/dbf/minigames_8qc.html#ac1282b42ad31f99e60e3b12c526c360d" target="_top" xlink:title="minigame_tile_pos">
<polygon fill="none" stroke="#000000" points="441,-165.1281 441,-184.1281 551,-184.1281 551,-165.1281 441,-165.1281"/>
<text text-anchor="middle" x="496" y="-172.1281" font-family="Helvetica,sans-Serif" font-size="10.00" fill="#000000">minigame_tile_pos</text>
</a>
</g>
</g>
<!-- Node75&#45;&gt;Node77 -->
<g id="edge4" class="edge">
<title>Node75&#45;&gt;Node77</title>
<path fill="none" stroke="#191970" d="M357.2993,-89.2309C371.6102,-105.2204 402.5333,-137.3459 435,-155.6281 438.7513,-157.7405 442.7672,-159.649 446.8814,-161.3671"/>
<polygon fill="#191970" stroke="#191970" points="445.9893,-164.7716 456.5809,-165.0362 448.4661,-158.2244 445.9893,-164.7716"/>
</g>
<!-- Node75&#45;&gt;Node82 -->
<g id="edge10" class="edge">
<title>Node75&#45;&gt;Node82</title>
<path fill="none" stroke="#191970" d="M368.8885,-70.0646C386.1493,-61.9528 411.9235,-50.288 435,-41.6281 442.8999,-38.6635 451.491,-35.7831 459.6651,-33.1987"/>
<polygon fill="#191970" stroke="#191970" points="460.8319,-36.5015 469.3543,-30.2072 458.7668,-29.813 460.8319,-36.5015"/>
</g>
<!-- Node83 -->
<g id="node11" class="node">
<title>Node83</title>
<g id="a_node11"><a xlink:href="../../db/d8b/nmm_8qc.html#a7fe9193dba90c2411f104424796a190a" target="_top" xlink:title="nmm_tile_build_hmill">
<polygon fill="none" stroke="#000000" points="435,-127.1281 435,-146.1281 557,-146.1281 557,-127.1281 435,-127.1281"/>
<text text-anchor="middle" x="496" y="-134.1281" font-family="Helvetica,sans-Serif" font-size="10.00" fill="#000000">nmm_tile_build_hmill</text>
</a>
</g>
</g>
<!-- Node75&#45;&gt;Node83 -->
<g id="edge11" class="edge">
<title>Node75&#45;&gt;Node83</title>
<path fill="none" stroke="#191970" d="M368.8885,-89.1916C386.1493,-97.3034 411.9235,-108.9682 435,-117.6281 440.861,-119.8276 447.1025,-121.9807 453.2719,-124.001"/>
<polygon fill="#191970" stroke="#191970" points="452.2515,-127.3492 462.8422,-127.054 454.379,-120.6803 452.2515,-127.3492"/>
</g>
<!-- Node87 -->
<g id="node15" class="node">
<title>Node87</title>
<g id="a_node15"><a xlink:href="../../db/d8b/nmm_8qc.html#a722f8e9581a45f2201015e798bf24510" target="_top" xlink:title="nmm_tile_build_vmill">
<polygon fill="none" stroke="#000000" points="435,-51.1281 435,-70.1281 557,-70.1281 557,-51.1281 435,-51.1281"/>
<text text-anchor="middle" x="496" y="-58.1281" font-family="Helvetica,sans-Serif" font-size="10.00" fill="#000000">nmm_tile_build_vmill</text>
</a>
</g>
</g>
<!-- Node75&#45;&gt;Node87 -->
<g id="edge18" class="edge">
<title>Node75&#45;&gt;Node87</title>
<path fill="none" stroke="#191970" d="M399.1779,-73.1425C407.4277,-72.0762 416.1147,-70.9534 424.7601,-69.836"/>
<polygon fill="#191970" stroke="#191970" points="425.3923,-73.2835 434.8611,-68.5304 424.4949,-66.3412 425.3923,-73.2835"/>
</g>
<!-- Node78 -->
<g id="node6" class="node">
<title>Node78</title>
<g id="a_node6"><a xlink:href="../../d3/dbf/minigames_8qc.html#ab50b72cd401e642ccfaa7614ac58d414" target="_top" xlink:title="minigame_tile_letter">
<polygon fill="none" stroke="#000000" points="605.5,-165.1281 605.5,-184.1281 724.5,-184.1281 724.5,-165.1281 605.5,-165.1281"/>
<text text-anchor="middle" x="665" y="-172.1281" font-family="Helvetica,sans-Serif" font-size="10.00" fill="#000000">minigame_tile_letter</text>
</a>
</g>
</g>
<!-- Node77&#45;&gt;Node78 -->
<g id="edge5" class="edge">
<title>Node77&#45;&gt;Node78</title>
<path fill="none" stroke="#191970" d="M551.3369,-174.6281C565.4156,-174.6281 580.7254,-174.6281 595.4143,-174.6281"/>
<polygon fill="#191970" stroke="#191970" points="595.4615,-178.1282 605.4615,-174.6281 595.4615,-171.1282 595.4615,-178.1282"/>
</g>
<!-- Node80 -->
<g id="node8" class="node">
<title>Node80</title>
<g id="a_node8"><a xlink:href="../../d3/dbf/minigames_8qc.html#ae654db0c0ec8adbcddf96b15d435b5d4" target="_top" xlink:title="minigame_tile_number">
<polygon fill="none" stroke="#000000" points="600,-127.1281 600,-146.1281 730,-146.1281 730,-127.1281 600,-127.1281"/>
<text text-anchor="middle" x="665" y="-134.1281" font-family="Helvetica,sans-Serif" font-size="10.00" fill="#000000">minigame_tile_number</text>
</a>
</g>
</g>
<!-- Node77&#45;&gt;Node80 -->
<g id="edge7" class="edge">
<title>Node77&#45;&gt;Node80</title>
<path fill="none" stroke="#191970" d="M538.6458,-165.0391C561.1481,-159.9794 588.9482,-153.7285 612.7379,-148.3793"/>
<polygon fill="#191970" stroke="#191970" points="613.6723,-151.7567 622.6608,-146.1482 612.1366,-144.9272 613.6723,-151.7567"/>
</g>
<!-- Node79 -->
<g id="node7" class="node">
<title>Node79</title>
<g id="a_node7"><a xlink:href="../../d8/de2/menudefs_8qc.html#a40f6c65c8bbcfa51df783f2809a2502b" target="_top" xlink:title="substring">
<polygon fill="none" stroke="#000000" points="773,-165.1281 773,-184.1281 835,-184.1281 835,-165.1281 773,-165.1281"/>
<text text-anchor="middle" x="804" y="-172.1281" font-family="Helvetica,sans-Serif" font-size="10.00" fill="#000000">substring</text>
</a>
</g>
</g>
<!-- Node78&#45;&gt;Node79 -->
<g id="edge6" class="edge">
<title>Node78&#45;&gt;Node79</title>
<path fill="none" stroke="#191970" d="M724.7552,-174.6281C737.5032,-174.6281 750.6974,-174.6281 762.5763,-174.6281"/>
<polygon fill="#191970" stroke="#191970" points="762.6324,-178.1282 772.6324,-174.6281 762.6323,-171.1282 762.6324,-178.1282"/>
</g>
<!-- Node80&#45;&gt;Node79 -->
<g id="edge9" class="edge">
<title>Node80&#45;&gt;Node79</title>
<path fill="none" stroke="#191970" d="M701.6631,-146.1643C713.003,-149.1512 725.5283,-152.4882 737,-155.6281 745.3818,-157.9223 754.3385,-160.426 762.8865,-162.8406"/>
<polygon fill="#191970" stroke="#191970" points="762.0988,-166.2552 772.6744,-165.6165 764.0088,-159.5208 762.0988,-166.2552"/>
</g>
<!-- Node81 -->
<g id="node9" class="node">
<title>Node81</title>
<g id="a_node9"><a xlink:href="../../d8/de2/menudefs_8qc.html#a2f6d3020689c0e872cfb455d0b2cbd4a" target="_top" xlink:title="stof">
<polygon fill="none" stroke="#000000" points="786.5,-127.1281 786.5,-146.1281 821.5,-146.1281 821.5,-127.1281 786.5,-127.1281"/>
<text text-anchor="middle" x="804" y="-134.1281" font-family="Helvetica,sans-Serif" font-size="10.00" fill="#000000">stof</text>
</a>
</g>
</g>
<!-- Node80&#45;&gt;Node81 -->
<g id="edge8" class="edge">
<title>Node80&#45;&gt;Node81</title>
<path fill="none" stroke="#191970" d="M730.0233,-136.6281C746.2522,-136.6281 762.8081,-136.6281 776.1315,-136.6281"/>
<polygon fill="#191970" stroke="#191970" points="776.4847,-140.1282 786.4847,-136.6281 776.4846,-133.1282 776.4847,-140.1282"/>
</g>
<!-- Node83&#45;&gt;Node78 -->
<g id="edge13" class="edge">
<title>Node83&#45;&gt;Node78</title>
<path fill="none" stroke="#191970" d="M538.6458,-146.2171C561.1481,-151.2768 588.9482,-157.5277 612.7379,-162.8769"/>
<polygon fill="#191970" stroke="#191970" points="612.1366,-166.329 622.6608,-165.1081 613.6723,-159.4995 612.1366,-166.329"/>
</g>
<!-- Node83&#45;&gt;Node80 -->
<g id="edge12" class="edge">
<title>Node83&#45;&gt;Node80</title>
<path fill="none" stroke="#191970" d="M557.0129,-136.6281C567.5453,-136.6281 578.6065,-136.6281 589.4678,-136.6281"/>
<polygon fill="#191970" stroke="#191970" points="589.7962,-140.1282 599.7962,-136.6281 589.7962,-133.1282 589.7962,-140.1282"/>
</g>
<!-- Node84 -->
<g id="node12" class="node">
<title>Node84</title>
<g id="a_node12"><a xlink:href="../../d9/d09/notifications_2all_8inc.html#a2001490494c160e7cca8dc9273fc93d8" target="_top" xlink:title="strcat">
<polygon fill="none" stroke="#000000" points="782,-51.1281 782,-70.1281 826,-70.1281 826,-51.1281 782,-51.1281"/>
<text text-anchor="middle" x="804" y="-58.1281" font-family="Helvetica,sans-Serif" font-size="10.00" fill="#000000">strcat</text>
</a>
</g>
</g>
<!-- Node83&#45;&gt;Node84 -->
<g id="edge14" class="edge">
<title>Node83&#45;&gt;Node84</title>
<path fill="none" stroke="#191970" d="M534.6965,-127.0796C596.1451,-111.917 714.9022,-82.6133 771.9201,-68.5439"/>
<polygon fill="#191970" stroke="#191970" points="772.9501,-71.8948 781.8204,-66.101 771.2731,-65.0987 772.9501,-71.8948"/>
</g>
<!-- Node83&#45;&gt;Node85 -->
<g id="edge15" class="edge">
<title>Node83&#45;&gt;Node85</title>
<path fill="none" stroke="#191970" d="M535.7961,-127.0219C543.0929,-124.492 550.4617,-121.3886 557,-117.6281 575.815,-106.8066 576.7743,-99.0447 593,-84.6281 610.7303,-68.8746 631.2564,-51.2592 645.8449,-38.8428"/>
<polygon fill="#191970" stroke="#191970" points="648.326,-41.3276 653.6822,-32.1863 643.7945,-35.9922 648.326,-41.3276"/>
</g>
<!-- Node85&#45;&gt;Node84 -->
<g id="edge16" class="edge">
<title>Node85&#45;&gt;Node84</title>
<path fill="none" stroke="#191970" d="M700.0756,-32.2171C722.293,-38.2909 750.7895,-46.0813 772.3215,-51.9678"/>
<polygon fill="#191970" stroke="#191970" points="771.406,-55.3459 781.975,-54.6069 773.252,-48.5937 771.406,-55.3459"/>
</g>
<!-- Node86 -->
<g id="node14" class="node">
<title>Node86</title>
<g id="a_node14"><a xlink:href="../../d8/de2/menudefs_8qc.html#abbb0d86741e0056b6c04f7280c185d76" target="_top" xlink:title="ftos">
<polygon fill="none" stroke="#000000" points="786.5,-13.1281 786.5,-32.1281 821.5,-32.1281 821.5,-13.1281 786.5,-13.1281"/>
<text text-anchor="middle" x="804" y="-20.1281" font-family="Helvetica,sans-Serif" font-size="10.00" fill="#000000">ftos</text>
</a>
</g>
</g>
<!-- Node85&#45;&gt;Node86 -->
<g id="edge17" class="edge">
<title>Node85&#45;&gt;Node86</title>
<path fill="none" stroke="#191970" d="M737.3499,-22.6281C751.247,-22.6281 764.992,-22.6281 776.3571,-22.6281"/>
<polygon fill="#191970" stroke="#191970" points="776.4517,-26.1282 786.4517,-22.6281 776.4517,-19.1282 776.4517,-26.1282"/>
</g>
<!-- Node87&#45;&gt;Node78 -->
<g id="edge19" class="edge">
<title>Node87&#45;&gt;Node78</title>
<path fill="none" stroke="#191970" d="M541.8664,-70.25C547.3465,-72.6998 552.5617,-75.773 557,-79.6281 585.2175,-104.1375 564.2508,-131.7446 593,-155.6281 595.0448,-157.3268 597.2255,-158.8752 599.5073,-160.2864"/>
<polygon fill="#191970" stroke="#191970" points="598.2471,-163.5757 608.7349,-165.0779 601.473,-157.3633 598.2471,-163.5757"/>
</g>
<!-- Node87&#45;&gt;Node80 -->
<g id="edge20" class="edge">
<title>Node87&#45;&gt;Node80</title>
<path fill="none" stroke="#191970" d="M530.5927,-70.1921C539.3235,-72.9347 548.6006,-76.1383 557,-79.6281 586.5046,-91.8869 618.6977,-109.4653 640.1897,-121.8522"/>
<polygon fill="#191970" stroke="#191970" points="638.5822,-124.9662 648.9846,-126.9762 642.1061,-118.9179 638.5822,-124.9662"/>
</g>
<!-- Node87&#45;&gt;Node84 -->
<g id="edge21" class="edge">
<title>Node87&#45;&gt;Node84</title>
<path fill="none" stroke="#191970" d="M557.2191,-60.6281C621.75,-60.6281 720.9328,-60.6281 771.6706,-60.6281"/>
<polygon fill="#191970" stroke="#191970" points="771.7323,-64.1282 781.7323,-60.6281 771.7322,-57.1282 771.7323,-64.1282"/>
</g>
<!-- Node87&#45;&gt;Node85 -->
<g id="edge22" class="edge">
<title>Node87&#45;&gt;Node85</title>
<path fill="none" stroke="#191970" d="M538.6458,-51.0391C561.1481,-45.9794 588.9482,-39.7285 612.7379,-34.3793"/>
<polygon fill="#191970" stroke="#191970" points="613.6723,-37.7567 622.6608,-32.1482 612.1366,-30.9272 613.6723,-37.7567"/>
</g>
</g>
</svg>
        <g id="navigator" transform="translate(0 0)" fill="#404254">
                <rect fill="#f2f5e9" fill-opacity="0.5" stroke="#606060" stroke-width=".5" x="0" y="0" width="60" height="60"/>
                <use id="zoomplus" xlink:href="#zoomPlus" x="17" y="9" onmousedown="handleZoom(evt,'in')"/>
                <use id="zoomminus" xlink:href="#zoomMin" x="42" y="9" onmousedown="handleZoom(evt,'out')"/>
                <use id="reset" xlink:href="#resetDef" x="30" y="36" onmousedown="handleReset()"/>
                <g id="arrowUp" xlink:href="#dirArrow" transform="translate(30 24)" onmousedown="handlePan(0,-1)">
                  <use xlink:href="#rim" fill="#404040">
                        <set attributeName="fill" to="#808080" begin="arrowUp.mouseover" end="arrowUp.mouseout"/>
                  </use>
                  <path fill="none" stroke="white" stroke-width="1.5" d="M0,-3.0v7 M-2.5,-0.5L0,-3.0L2.5,-0.5"/>
                </g>
                <g id="arrowRight" xlink:href="#dirArrow" transform="rotate(90) translate(36 -43)" onmousedown="handlePan(1,0)">
                  <use xlink:href="#rim" fill="#404040">
                        <set attributeName="fill" to="#808080" begin="arrowRight.mouseover" end="arrowRight.mouseout"/>
                  </use>
                  <path fill="none" stroke="white" stroke-width="1.5" d="M0,-3.0v7 M-2.5,-0.5L0,-3.0L2.5,-0.5"/>
                </g>
                <g id="arrowDown" xlink:href="#dirArrow" transform="rotate(180) translate(-30 -48)" onmousedown="handlePan(0,1)">
                  <use xlink:href="#rim" fill="#404040">
                        <set attributeName="fill" to="#808080" begin="arrowDown.mouseover" end="arrowDown.mouseout"/>
                  </use>
                  <path fill="none" stroke="white" stroke-width="1.5" d="M0,-3.0v7 M-2.5,-0.5L0,-3.0L2.5,-0.5"/>
                </g>
                <g id="arrowLeft" xlink:href="#dirArrow" transform="rotate(270) translate(-36 17)" onmousedown="handlePan(-1,0)">
                  <use xlink:href="#rim" fill="#404040">
                        <set attributeName="fill" to="#808080" begin="arrowLeft.mouseover" end="arrowLeft.mouseout"/>
                  </use>
                  <path fill="none" stroke="white" stroke-width="1.5" d="M0,-3.0v7 M-2.5,-0.5L0,-3.0L2.5,-0.5"/>
                </g>
        </g>
        <svg viewBox="0 0 15 15" width="100%" height="30px" preserveAspectRatio="xMaxYMin meet">
         <g id="arrow_out" transform="scale(0.3 0.3)">
          <a xlink:href="nmm_8qc_a111c20ea512cff478ae6e4fc51c755f3_cgraph_org.svg" target="_base">
           <rect id="button" ry="5" rx="5" y="6" x="6" height="38" width="38"
                fill="#f2f5e9" fill-opacity="0.5" stroke="#606060" stroke-width="1.0"/>
           <path id="arrow"
             d="M 11.500037,31.436501 C 11.940474,20.09759 22.043105,11.32322 32.158766,21.979434 L 37.068811,17.246167 C 37.068811,17.246167 37.088388,32 37.088388,32 L 22.160133,31.978069 C 22.160133,31.978069 26.997745,27.140456 26.997745,27.140456 C 18.528582,18.264221 13.291696,25.230495 11.500037,31.436501 z"
             style="fill:#404040;"/>
          </a>
         </g>
        </svg>
</svg>
