<?xml version="1.0" encoding="UTF-8" standalone="no"?>
<!DOCTYPE svg PUBLIC "-//W3C//DTD SVG 1.1//EN"
 "http://www.w3.org/Graphics/SVG/1.1/DTD/svg11.dtd">
<!-- Generated by graphviz version 2.36.0 (20140111.2315)
 -->
<!-- Title: Team_ColorCode Pages: 1 -->
<svg width="928pt" height="1016pt"
 viewBox="0.00 0.00 928.00 1016.00" xmlns="http://www.w3.org/2000/svg" xmlns:xlink="http://www.w3.org/1999/xlink">
<g id="graph0" class="graph" transform="scale(1 1) rotate(0) translate(4 1012)">
<title>Team_ColorCode</title>
<!-- Node1 -->
<g id="node1" class="node"><title>Node1</title>
<polygon fill="#bfbfbf" stroke="black" points="0.5,-527.5 0.5,-546.5 93.5,-546.5 93.5,-527.5 0.5,-527.5"/>
<text text-anchor="middle" x="47" y="-534.5" font-family="Helvetica,sans-Serif" font-size="10.00">Team_ColorCode</text>
</g>
<!-- Node2 -->
<g id="node2" class="node"><title>Node2</title>
<g id="a_node2"><a xlink:href="../../d8/db6/client_2miscfunctions_8qh.html#a7818c3bb6c4bd63ffb9cf8ad1e23f8fe" target="_top" xlink:title="playername">
<polygon fill="none" stroke="black" points="130.5,-684.5 130.5,-703.5 197.5,-703.5 197.5,-684.5 130.5,-684.5"/>
<text text-anchor="middle" x="164" y="-691.5" font-family="Helvetica,sans-Serif" font-size="10.00">playername</text>
</a>
</g>
</g>
<!-- Node1&#45;&gt;Node2 -->
<g id="edge1" class="edge"><title>Node1&#45;&gt;Node2</title>
<path fill="none" stroke="midnightblue" d="M61.3257,-555.192C85.7552,-588.544 136.934,-658.415 155.809,-684.183"/>
<polygon fill="midnightblue" stroke="midnightblue" points="63.9266,-552.82 55.1938,-546.821 58.2794,-556.957 63.9266,-552.82"/>
</g>
<!-- Node44 -->
<g id="node44" class="node"><title>Node44</title>
<g id="a_node44"><a xlink:href="../../db/d9b/server_2player_8qc.html#abb0f165077ac886332b821ac30314b8a" target="_top" xlink:title="message &quot;&quot;: do not say, just test flood control return value: 1 = accept 0 = reject &#45;1 = fake accept ...">
<polygon fill="none" stroke="black" points="289,-95.5 289,-114.5 323,-114.5 323,-95.5 289,-95.5"/>
<text text-anchor="middle" x="306" y="-102.5" font-family="Helvetica,sans-Serif" font-size="10.00">Say</text>
</a>
</g>
</g>
<!-- Node1&#45;&gt;Node44 -->
<g id="edge62" class="edge"><title>Node1&#45;&gt;Node44</title>
<path fill="none" stroke="midnightblue" d="M55.8109,-517.853C78.7302,-462.77 149.529,-300.22 234,-181 252.581,-154.775 279.649,-128.276 294.418,-114.563"/>
<polygon fill="midnightblue" stroke="midnightblue" points="52.4538,-516.813 51.8756,-527.393 58.9248,-519.483 52.4538,-516.813"/>
</g>
<!-- Node3 -->
<g id="node3" class="node"><title>Node3</title>
<g id="a_node3"><a xlink:href="../../d6/de9/cheats_8qc.html#a65aa9a671b803d866122dfadfd359284" target="_top" xlink:title="CheatsAllowed">
<polygon fill="none" stroke="black" points="264.5,-874.5 264.5,-893.5 347.5,-893.5 347.5,-874.5 264.5,-874.5"/>
<text text-anchor="middle" x="306" y="-881.5" font-family="Helvetica,sans-Serif" font-size="10.00">CheatsAllowed</text>
</a>
</g>
</g>
<!-- Node2&#45;&gt;Node3 -->
<g id="edge2" class="edge"><title>Node2&#45;&gt;Node3</title>
<path fill="none" stroke="midnightblue" d="M167.278,-713.977C172.438,-749.713 188.353,-824.609 234,-865 242.409,-872.441 253.427,-877.011 264.266,-879.806"/>
<polygon fill="midnightblue" stroke="midnightblue" points="170.721,-713.308 165.957,-703.844 163.78,-714.213 170.721,-713.308"/>
</g>
<!-- Node4 -->
<g id="node4" class="node"><title>Node4</title>
<g id="a_node4"><a xlink:href="../../d8/d1d/cmd_8qc.html#ad5650e9ba0b92ea2dfd4ae7f533dbc3f" target="_top" xlink:title="ClientCommand_ready">
<polygon fill="none" stroke="black" points="248,-836.5 248,-855.5 364,-855.5 364,-836.5 248,-836.5"/>
<text text-anchor="middle" x="306" y="-843.5" font-family="Helvetica,sans-Serif" font-size="10.00">ClientCommand_ready</text>
</a>
</g>
</g>
<!-- Node2&#45;&gt;Node4 -->
<g id="edge3" class="edge"><title>Node2&#45;&gt;Node4</title>
<path fill="none" stroke="midnightblue" d="M169.742,-713.588C177.836,-742.768 197.139,-797.383 234,-827 238.775,-830.836 244.255,-833.902 250.008,-836.351"/>
<polygon fill="midnightblue" stroke="midnightblue" points="173.087,-712.547 167.175,-703.756 166.314,-714.315 173.087,-712.547"/>
</g>
<!-- Node5 -->
<g id="node5" class="node"><title>Node5</title>
<g id="a_node5"><a xlink:href="../../df/dd7/server_2client_8qc.html#a54fdd4fa0492ab020e0a35c817a8f472" target="_top" xlink:title=" ClientConnect ">
<polygon fill="none" stroke="black" points="266.5,-950.5 266.5,-969.5 345.5,-969.5 345.5,-950.5 266.5,-950.5"/>
<text text-anchor="middle" x="306" y="-957.5" font-family="Helvetica,sans-Serif" font-size="10.00">ClientConnect</text>
</a>
</g>
</g>
<!-- Node2&#45;&gt;Node5 -->
<g id="edge4" class="edge"><title>Node2&#45;&gt;Node5</title>
<path fill="none" stroke="midnightblue" d="M164.379,-713.967C164.07,-760.657 170.092,-877.787 234,-941 242.618,-949.525 254.618,-954.339 266.302,-957.023"/>
<polygon fill="midnightblue" stroke="midnightblue" points="167.884,-713.751 164.563,-703.69 160.885,-713.626 167.884,-713.751"/>
</g>
<!-- Node9 -->
<g id="node9" class="node"><title>Node9</title>
<g id="a_node9"><a xlink:href="../../d7/d39/shownames_8qc.html#ae84061a430077f6deea0123fa97d41b8" target="_top" xlink:title="Draw_ShowNames">
<polygon fill="none" stroke="black" points="255.5,-798.5 255.5,-817.5 356.5,-817.5 356.5,-798.5 255.5,-798.5"/>
<text text-anchor="middle" x="306" y="-805.5" font-family="Helvetica,sans-Serif" font-size="10.00">Draw_ShowNames</text>
</a>
</g>
</g>
<!-- Node2&#45;&gt;Node9 -->
<g id="edge8" class="edge"><title>Node2&#45;&gt;Node9</title>
<path fill="none" stroke="midnightblue" d="M174.764,-712.547C186.338,-732.835 207.448,-764.99 234,-784 242.675,-790.211 253.078,-794.905 263.21,-798.418"/>
<polygon fill="midnightblue" stroke="midnightblue" points="177.755,-710.722 169.866,-703.65 171.623,-714.098 177.755,-710.722"/>
</g>
<!-- Node12 -->
<g id="node12" class="node"><title>Node12</title>
<g id="a_node12"><a xlink:href="../../d7/d97/g__world_8qh.html#a1207e599d7420b0af40007a89426efec" target="_top" xlink:title="DumpStats">
<polygon fill="none" stroke="black" points="273,-722.5 273,-741.5 339,-741.5 339,-722.5 273,-722.5"/>
<text text-anchor="middle" x="306" y="-729.5" font-family="Helvetica,sans-Serif" font-size="10.00">DumpStats</text>
</a>
</g>
</g>
<!-- Node2&#45;&gt;Node12 -->
<g id="edge11" class="edge"><title>Node2&#45;&gt;Node12</title>
<path fill="none" stroke="midnightblue" d="M207.477,-705.53C228.499,-711.235 253.459,-718.01 272.865,-723.278"/>
<polygon fill="midnightblue" stroke="midnightblue" points="208.391,-702.151 197.824,-702.909 206.558,-708.907 208.391,-702.151"/>
</g>
<!-- Node15 -->
<g id="node15" class="node"><title>Node15</title>
<g id="a_node15"><a xlink:href="../../db/dcc/g__world_8qc.html#a425e54e058e6e6701cc7fca07a234be9" target="_top" xlink:title="NextLevel">
<polygon fill="none" stroke="black" points="461.5,-684.5 461.5,-703.5 522.5,-703.5 522.5,-684.5 461.5,-684.5"/>
<text text-anchor="middle" x="492" y="-691.5" font-family="Helvetica,sans-Serif" font-size="10.00">NextLevel</text>
</a>
</g>
</g>
<!-- Node2&#45;&gt;Node15 -->
<g id="edge39" class="edge"><title>Node2&#45;&gt;Node15</title>
<path fill="none" stroke="midnightblue" d="M207.981,-694C275.104,-694 403.126,-694 461.123,-694"/>
<polygon fill="midnightblue" stroke="midnightblue" points="207.751,-690.5 197.751,-694 207.751,-697.5 207.751,-690.5"/>
</g>
<!-- Node18 -->
<g id="node18" class="node"><title>Node18</title>
<g id="a_node18"><a xlink:href="../../d3/df2/sv__cmd_8qc.html#ab92199def0cfc9401c6c457b07d7e572" target="_top" xlink:title="GameCommand_adminmsg">
<polygon fill="none" stroke="black" points="423,-228.5 423,-247.5 561,-247.5 561,-228.5 423,-228.5"/>
<text text-anchor="middle" x="492" y="-235.5" font-family="Helvetica,sans-Serif" font-size="10.00">GameCommand_adminmsg</text>
</a>
</g>
</g>
<!-- Node2&#45;&gt;Node18 -->
<g id="edge18" class="edge"><title>Node2&#45;&gt;Node18</title>
<path fill="none" stroke="midnightblue" d="M166.775,-674.157C172.92,-609.19 195.073,-404.051 234,-352 280.992,-289.165 370.302,-260.292 430.257,-247.505"/>
<polygon fill="midnightblue" stroke="midnightblue" points="163.274,-674 165.841,-684.279 170.245,-674.643 163.274,-674"/>
</g>
<!-- Node20 -->
<g id="node20" class="node"><title>Node20</title>
<g id="a_node20"><a xlink:href="../../d3/df2/sv__cmd_8qc.html#adaf52acb197ff130b3fdbffa1d8564aa" target="_top" xlink:title="GameCommand_defer_clear">
<polygon fill="none" stroke="black" points="235.5,-190.5 235.5,-209.5 376.5,-209.5 376.5,-190.5 235.5,-190.5"/>
<text text-anchor="middle" x="306" y="-197.5" font-family="Helvetica,sans-Serif" font-size="10.00">GameCommand_defer_clear</text>
</a>
</g>
</g>
<!-- Node2&#45;&gt;Node20 -->
<g id="edge20" class="edge"><title>Node2&#45;&gt;Node20</title>
<path fill="none" stroke="midnightblue" d="M166.835,-674.453C173.812,-602.48 200.012,-352.707 234,-281 248.257,-250.922 277.013,-223.511 293.213,-209.6"/>
<polygon fill="midnightblue" stroke="midnightblue" points="163.35,-674.135 165.883,-684.423 170.318,-674.801 163.35,-674.135"/>
</g>
<!-- Node24 -->
<g id="node24" class="node"><title>Node24</title>
<g id="a_node24"><a xlink:href="../../d3/df2/sv__cmd_8qc.html#ac63e705f0a35924243764f3992e183a0" target="_top" xlink:title="GameCommand_moveplayer">
<polygon fill="none" stroke="black" points="234.5,-988.5 234.5,-1007.5 377.5,-1007.5 377.5,-988.5 234.5,-988.5"/>
<text text-anchor="middle" x="306" y="-995.5" font-family="Helvetica,sans-Serif" font-size="10.00">GameCommand_moveplayer</text>
</a>
</g>
</g>
<!-- Node2&#45;&gt;Node24 -->
<g id="edge24" class="edge"><title>Node2&#45;&gt;Node24</title>
<path fill="none" stroke="midnightblue" d="M167.175,-713.812C173.948,-771.979 196.491,-940.582 234,-979 237.744,-982.835 242.17,-985.922 246.955,-988.405"/>
<polygon fill="midnightblue" stroke="midnightblue" points="170.635,-713.264 166.03,-703.723 163.68,-714.053 170.635,-713.264"/>
</g>
<!-- Node26 -->
<g id="node26" class="node"><title>Node26</title>
<g id="a_node26"><a xlink:href="../../d2/d06/server_2command_2common_8qh.html#af86ebd442e5bd6b2d6b51ce1276847b6" target="_top" xlink:title="GetCallerName">
<polygon fill="none" stroke="black" points="264,-361.5 264,-380.5 348,-380.5 348,-361.5 264,-361.5"/>
<text text-anchor="middle" x="306" y="-368.5" font-family="Helvetica,sans-Serif" font-size="10.00">GetCallerName</text>
</a>
</g>
</g>
<!-- Node2&#45;&gt;Node26 -->
<g id="edge26" class="edge"><title>Node2&#45;&gt;Node26</title>
<path fill="none" stroke="midnightblue" d="M171.069,-674.49C182.126,-639.66 206.923,-564.738 234,-504 255.208,-456.426 286.347,-402.448 299.162,-380.769"/>
<polygon fill="midnightblue" stroke="midnightblue" points="167.639,-673.731 167.976,-684.321 174.316,-675.832 167.639,-673.731"/>
</g>
<!-- Node38 -->
<g id="node38" class="node"><title>Node38</title>
<g id="a_node38"><a xlink:href="../../d1/dad/server_2command_2vote_8qc.html#a4f3bd9f8d7a811cea72d9bcd0ab0573e" target="_top" xlink:title="OriginalCallerName">
<polygon fill="none" stroke="black" points="255.5,-513.5 255.5,-532.5 356.5,-532.5 356.5,-513.5 255.5,-513.5"/>
<text text-anchor="middle" x="306" y="-520.5" font-family="Helvetica,sans-Serif" font-size="10.00">OriginalCallerName</text>
</a>
</g>
</g>
<!-- Node2&#45;&gt;Node38 -->
<g id="edge40" class="edge"><title>Node2&#45;&gt;Node38</title>
<path fill="none" stroke="midnightblue" d="M177.262,-675.745C190.587,-656.245 212.819,-624.675 234,-599 254.453,-574.207 280.789,-547.149 294.939,-532.962"/>
<polygon fill="midnightblue" stroke="midnightblue" points="174.197,-674.029 171.479,-684.27 179.99,-677.959 174.197,-674.029"/>
</g>
<!-- Node43 -->
<g id="node43" class="node"><title>Node43</title>
<g id="a_node43"><a xlink:href="../../df/dd7/server_2client_8qc.html#ac4842064b7f7b032f654e24f1fa5a155" target="_top" xlink:title="PlayerPreThink">
<polygon fill="none" stroke="black" points="642.5,-760.5 642.5,-779.5 725.5,-779.5 725.5,-760.5 642.5,-760.5"/>
<text text-anchor="middle" x="684" y="-767.5" font-family="Helvetica,sans-Serif" font-size="10.00">PlayerPreThink</text>
</a>
</g>
</g>
<!-- Node2&#45;&gt;Node43 -->
<g id="edge48" class="edge"><title>Node2&#45;&gt;Node43</title>
<path fill="none" stroke="midnightblue" d="M180.171,-711.639C192.981,-725.141 212.616,-742.795 234,-751 375.68,-805.361 561.255,-788.087 642.242,-776.649"/>
<polygon fill="midnightblue" stroke="midnightblue" points="182.44,-708.933 173.122,-703.891 177.262,-713.643 182.44,-708.933"/>
</g>
<!-- Node2&#45;&gt;Node44 -->
<g id="edge50" class="edge"><title>Node2&#45;&gt;Node44</title>
<path fill="none" stroke="midnightblue" d="M167.331,-674.115C178.125,-582.414 223.182,-203.828 234,-181 247.455,-152.609 275.42,-127.702 291.954,-114.659"/>
<polygon fill="midnightblue" stroke="midnightblue" points="163.831,-673.916 166.14,-684.256 170.783,-674.733 163.831,-673.916"/>
</g>
<!-- Node49 -->
<g id="node49" class="node"><title>Node49</title>
<g id="a_node49"><a xlink:href="../../d2/d79/scores_8qc.html#a9657775baeb357bf9c34044f04305a20" target="_top" xlink:title="Score_NicePrint_Player">
<polygon fill="none" stroke="black" points="245.5,-646.5 245.5,-665.5 366.5,-665.5 366.5,-646.5 245.5,-646.5"/>
<text text-anchor="middle" x="306" y="-653.5" font-family="Helvetica,sans-Serif" font-size="10.00">Score_NicePrint_Player</text>
</a>
</g>
</g>
<!-- Node2&#45;&gt;Node49 -->
<g id="edge55" class="edge"><title>Node2&#45;&gt;Node49</title>
<path fill="none" stroke="midnightblue" d="M207.595,-682.438C227.548,-677.023 251.027,-670.65 269.935,-665.518"/>
<polygon fill="midnightblue" stroke="midnightblue" points="206.558,-679.093 197.824,-685.091 208.391,-685.849 206.558,-679.093"/>
</g>
<!-- Node53 -->
<g id="node53" class="node"><title>Node53</title>
<g id="a_node53"><a xlink:href="../../d2/d79/scores_8qc.html#a70e333bb8df9db9b1aa1244d608ce4d3" target="_top" xlink:title="Score_NicePrint_Spectator">
<polygon fill="none" stroke="black" points="238.5,-608.5 238.5,-627.5 373.5,-627.5 373.5,-608.5 238.5,-608.5"/>
<text text-anchor="middle" x="306" y="-615.5" font-family="Helvetica,sans-Serif" font-size="10.00">Score_NicePrint_Spectator</text>
</a>
</g>
</g>
<!-- Node2&#45;&gt;Node53 -->
<g id="edge59" class="edge"><title>Node2&#45;&gt;Node53</title>
<path fill="none" stroke="midnightblue" d="M181.169,-677.164C194.296,-664.414 213.871,-647.377 234,-637 241.372,-633.2 249.578,-630.104 257.719,-627.601"/>
<polygon fill="midnightblue" stroke="midnightblue" points="178.479,-674.905 173.882,-684.451 183.428,-679.855 178.479,-674.905"/>
</g>
<!-- Node54 -->
<g id="node54" class="node"><title>Node54</title>
<g id="a_node54"><a xlink:href="../../dc/d8b/hitplot_8qh.html#af89d7006f01671e454d80a1a1c5569cd" target="_top" xlink:title="W_HitPlotOpen">
<polygon fill="none" stroke="black" points="263.5,-912.5 263.5,-931.5 348.5,-931.5 348.5,-912.5 263.5,-912.5"/>
<text text-anchor="middle" x="306" y="-919.5" font-family="Helvetica,sans-Serif" font-size="10.00">W_HitPlotOpen</text>
</a>
</g>
</g>
<!-- Node2&#45;&gt;Node54 -->
<g id="edge61" class="edge"><title>Node2&#45;&gt;Node54</title>
<path fill="none" stroke="midnightblue" d="M165.569,-713.676C167.861,-754.988 179.145,-851.207 234,-903 241.979,-910.534 252.61,-915.15 263.21,-917.959"/>
<polygon fill="midnightblue" stroke="midnightblue" points="169.06,-713.403 165.132,-703.563 162.067,-713.705 169.06,-713.403"/>
</g>
<!-- Node6 -->
<g id="node6" class="node"><title>Node6</title>
<g id="a_node6"><a xlink:href="../../d1/da9/bot_8qh.html#a5e30e64bee22a5e4abf3bca9ae06f8fc" target="_top" xlink:title="bot_spawn">
<polygon fill="none" stroke="black" points="460,-950.5 460,-969.5 524,-969.5 524,-950.5 460,-950.5"/>
<text text-anchor="middle" x="492" y="-957.5" font-family="Helvetica,sans-Serif" font-size="10.00">bot_spawn</text>
</a>
</g>
</g>
<!-- Node5&#45;&gt;Node6 -->
<g id="edge5" class="edge"><title>Node5&#45;&gt;Node6</title>
<path fill="none" stroke="midnightblue" d="M355.908,-960C388.866,-960 431.355,-960 459.802,-960"/>
<polygon fill="midnightblue" stroke="midnightblue" points="355.572,-956.5 345.572,-960 355.572,-963.5 355.572,-956.5"/>
</g>
<!-- Node7 -->
<g id="node7" class="node"><title>Node7</title>
<g id="a_node7"><a xlink:href="../../d1/da9/bot_8qh.html#a2fee5495c041d9197ee7d76cccd1d889" target="_top" xlink:title="bot_fixcount">
<polygon fill="none" stroke="black" points="649,-950.5 649,-969.5 719,-969.5 719,-950.5 649,-950.5"/>
<text text-anchor="middle" x="684" y="-957.5" font-family="Helvetica,sans-Serif" font-size="10.00">bot_fixcount</text>
</a>
</g>
</g>
<!-- Node6&#45;&gt;Node7 -->
<g id="edge6" class="edge"><title>Node6&#45;&gt;Node7</title>
<path fill="none" stroke="midnightblue" d="M534.515,-960C568.713,-960 616.628,-960 648.685,-960"/>
<polygon fill="midnightblue" stroke="midnightblue" points="534.375,-956.5 524.375,-960 534.375,-963.5 534.375,-956.5"/>
</g>
<!-- Node8 -->
<g id="node8" class="node"><title>Node8</title>
<g id="a_node8"><a xlink:href="../../d1/da9/bot_8qh.html#aca1687b4e440adf8111b9438919a0b0a" target="_top" xlink:title="bot_serverframe">
<polygon fill="none" stroke="black" points="815.5,-950.5 815.5,-969.5 902.5,-969.5 902.5,-950.5 815.5,-950.5"/>
<text text-anchor="middle" x="859" y="-957.5" font-family="Helvetica,sans-Serif" font-size="10.00">bot_serverframe</text>
</a>
</g>
</g>
<!-- Node7&#45;&gt;Node8 -->
<g id="edge7" class="edge"><title>Node7&#45;&gt;Node8</title>
<path fill="none" stroke="midnightblue" d="M729.307,-960C755.748,-960 789.155,-960 815.305,-960"/>
<polygon fill="midnightblue" stroke="midnightblue" points="729.179,-956.5 719.179,-960 729.179,-963.5 729.179,-956.5"/>
</g>
<!-- Node10 -->
<g id="node10" class="node"><title>Node10</title>
<g id="a_node10"><a xlink:href="../../d8/dd7/shownames_8qh.html#a9ccf8f67a13521356d76071fce9be7c6" target="_top" xlink:title="Draw_ShowNames_All">
<polygon fill="none" stroke="black" points="433,-798.5 433,-817.5 551,-817.5 551,-798.5 433,-798.5"/>
<text text-anchor="middle" x="492" y="-805.5" font-family="Helvetica,sans-Serif" font-size="10.00">Draw_ShowNames_All</text>
</a>
</g>
</g>
<!-- Node9&#45;&gt;Node10 -->
<g id="edge9" class="edge"><title>Node9&#45;&gt;Node10</title>
<path fill="none" stroke="midnightblue" d="M366.924,-808C388.03,-808 411.711,-808 432.683,-808"/>
<polygon fill="midnightblue" stroke="midnightblue" points="366.793,-804.5 356.793,-808 366.793,-811.5 366.793,-804.5"/>
</g>
<!-- Node11 -->
<g id="node11" class="node"><title>Node11</title>
<g id="a_node11"><a xlink:href="../../d6/dd3/view_8qc.html#a7b9e2c12c6a461c93afb197bd1a93c8f" target="_top" xlink:title="CSQC_UpdateView">
<polygon fill="none" stroke="black" points="632,-798.5 632,-817.5 736,-817.5 736,-798.5 632,-798.5"/>
<text text-anchor="middle" x="684" y="-805.5" font-family="Helvetica,sans-Serif" font-size="10.00">CSQC_UpdateView</text>
</a>
</g>
</g>
<!-- Node10&#45;&gt;Node11 -->
<g id="edge10" class="edge"><title>Node10&#45;&gt;Node11</title>
<path fill="none" stroke="midnightblue" d="M561.193,-808C584.455,-808 610.054,-808 631.755,-808"/>
<polygon fill="midnightblue" stroke="midnightblue" points="561.039,-804.5 551.039,-808 561.039,-811.5 561.039,-804.5"/>
</g>
<!-- Node13 -->
<g id="node13" class="node"><title>Node13</title>
<g id="a_node13"><a xlink:href="../../d3/df2/sv__cmd_8qc.html#af264e55d093f72353367b53e48624c14" target="_top" xlink:title="GameCommand_printstats">
<polygon fill="none" stroke="black" points="425,-722.5 425,-741.5 559,-741.5 559,-722.5 425,-722.5"/>
<text text-anchor="middle" x="492" y="-729.5" font-family="Helvetica,sans-Serif" font-size="10.00">GameCommand_printstats</text>
</a>
</g>
</g>
<!-- Node12&#45;&gt;Node13 -->
<g id="edge12" class="edge"><title>Node12&#45;&gt;Node13</title>
<path fill="none" stroke="midnightblue" d="M349.21,-732C371.551,-732 399.498,-732 424.661,-732"/>
<polygon fill="midnightblue" stroke="midnightblue" points="349.05,-728.5 339.05,-732 349.05,-735.5 349.05,-728.5"/>
</g>
<!-- Node12&#45;&gt;Node15 -->
<g id="edge14" class="edge"><title>Node12&#45;&gt;Node15</title>
<path fill="none" stroke="midnightblue" d="M349.243,-723.276C383.56,-716.189 431.089,-706.373 461.444,-700.104"/>
<polygon fill="midnightblue" stroke="midnightblue" points="348.136,-719.931 339.05,-725.381 349.552,-726.786 348.136,-719.931"/>
</g>
<!-- Node14 -->
<g id="node14" class="node"><title>Node14</title>
<g id="a_node14"><a xlink:href="../../d3/df2/sv__cmd_8qc.html#a1a96e1b0fcd5737012d7ad99266c6e5a" target="_top" xlink:title="SERVER_COMMAND">
<polygon fill="none" stroke="black" points="625.5,-722.5 625.5,-741.5 742.5,-741.5 742.5,-722.5 625.5,-722.5"/>
<text text-anchor="middle" x="684" y="-729.5" font-family="Helvetica,sans-Serif" font-size="10.00">SERVER_COMMAND</text>
</a>
</g>
</g>
<!-- Node13&#45;&gt;Node14 -->
<g id="edge13" class="edge"><title>Node13&#45;&gt;Node14</title>
<path fill="none" stroke="midnightblue" d="M569.417,-732C588.051,-732 607.678,-732 625.277,-732"/>
<polygon fill="midnightblue" stroke="midnightblue" points="569.186,-728.5 559.186,-732 569.186,-735.5 569.186,-728.5"/>
</g>
<!-- Node16 -->
<g id="node16" class="node"><title>Node16</title>
<g id="a_node16"><a xlink:href="../../d7/d97/g__world_8qh.html#a233af455133bc7ba4e3e100115bf2885" target="_top" xlink:title="CheckRules_World">
<polygon fill="none" stroke="black" points="633.5,-666.5 633.5,-685.5 734.5,-685.5 734.5,-666.5 633.5,-666.5"/>
<text text-anchor="middle" x="684" y="-673.5" font-family="Helvetica,sans-Serif" font-size="10.00">CheckRules_World</text>
</a>
</g>
</g>
<!-- Node15&#45;&gt;Node16 -->
<g id="edge15" class="edge"><title>Node15&#45;&gt;Node16</title>
<path fill="none" stroke="midnightblue" d="M532.93,-690.217C562.128,-687.451 601.928,-683.681 633.204,-680.718"/>
<polygon fill="midnightblue" stroke="midnightblue" points="532.313,-686.76 522.688,-691.188 532.973,-693.729 532.313,-686.76"/>
</g>
<!-- Node16&#45;&gt;Node16 -->
<g id="edge16" class="edge"><title>Node16&#45;&gt;Node16</title>
<path fill="none" stroke="midnightblue" d="M651.44,-694.275C652.368,-699.741 663.222,-704 684,-704 714.926,-704 723.865,-694.565 710.818,-685.757"/>
<polygon fill="midnightblue" stroke="midnightblue" points="654.494,-696.005 657.182,-685.757 648.69,-692.093 654.494,-696.005"/>
</g>
<!-- Node17 -->
<g id="node17" class="node"><title>Node17</title>
<g id="a_node17"><a xlink:href="../../d3/d4f/sv__main_8qc.html#a554af7e2ac58045168dad9eca30bc8b1" target="_top" xlink:title="StartFrame">
<polygon fill="none" stroke="black" points="826.5,-713.5 826.5,-732.5 891.5,-732.5 891.5,-713.5 826.5,-713.5"/>
<text text-anchor="middle" x="859" y="-720.5" font-family="Helvetica,sans-Serif" font-size="10.00">StartFrame</text>
</a>
</g>
</g>
<!-- Node16&#45;&gt;Node17 -->
<g id="edge17" class="edge"><title>Node16&#45;&gt;Node17</title>
<path fill="none" stroke="midnightblue" d="M729.887,-688.195C760.109,-696.405 799.228,-707.033 826.247,-714.373"/>
<polygon fill="midnightblue" stroke="midnightblue" points="730.577,-684.755 720.009,-685.511 728.742,-691.511 730.577,-684.755"/>
</g>
<!-- Node19 -->
<g id="node19" class="node"><title>Node19</title>
<g id="a_node19"><a xlink:href="../../d3/df2/sv__cmd_8qc.html#ae61b803a140486053af9c24c492601fc" target="_top" xlink:title="SERVER_COMMAND">
<polygon fill="none" stroke="black" points="625.5,-228.5 625.5,-247.5 742.5,-247.5 742.5,-228.5 625.5,-228.5"/>
<text text-anchor="middle" x="684" y="-235.5" font-family="Helvetica,sans-Serif" font-size="10.00">SERVER_COMMAND</text>
</a>
</g>
</g>
<!-- Node18&#45;&gt;Node19 -->
<g id="edge19" class="edge"><title>Node18&#45;&gt;Node19</title>
<path fill="none" stroke="midnightblue" d="M571.064,-238C589.266,-238 608.326,-238 625.452,-238"/>
<polygon fill="midnightblue" stroke="midnightblue" points="571.058,-234.5 561.058,-238 571.058,-241.5 571.058,-234.5"/>
</g>
<!-- Node21 -->
<g id="node21" class="node"><title>Node21</title>
<g id="a_node21"><a xlink:href="../../d3/df2/sv__cmd_8qc.html#a695c1cde6aac025ab4681326fc7e1164" target="_top" xlink:title="GameCommand_defer_clear_all">
<polygon fill="none" stroke="black" points="414,-190.5 414,-209.5 570,-209.5 570,-190.5 414,-190.5"/>
<text text-anchor="middle" x="492" y="-197.5" font-family="Helvetica,sans-Serif" font-size="10.00">GameCommand_defer_clear_all</text>
</a>
</g>
</g>
<!-- Node20&#45;&gt;Node21 -->
<g id="edge21" class="edge"><title>Node20&#45;&gt;Node21</title>
<path fill="none" stroke="midnightblue" d="M386.687,-200C395.733,-200 404.94,-200 413.95,-200"/>
<polygon fill="midnightblue" stroke="midnightblue" points="386.563,-196.5 376.563,-200 386.562,-203.5 386.563,-196.5"/>
</g>
<!-- Node23 -->
<g id="node23" class="node"><title>Node23</title>
<g id="a_node23"><a xlink:href="../../d3/df2/sv__cmd_8qc.html#ac1960621664a65a481e3a5f14df2ebcb" target="_top" xlink:title="SERVER_COMMAND">
<polygon fill="none" stroke="black" points="433.5,-152.5 433.5,-171.5 550.5,-171.5 550.5,-152.5 433.5,-152.5"/>
<text text-anchor="middle" x="492" y="-159.5" font-family="Helvetica,sans-Serif" font-size="10.00">SERVER_COMMAND</text>
</a>
</g>
</g>
<!-- Node20&#45;&gt;Node23 -->
<g id="edge23" class="edge"><title>Node20&#45;&gt;Node23</title>
<path fill="none" stroke="midnightblue" d="M363.561,-188.319C389.654,-182.93 420.238,-176.614 444.903,-171.52"/>
<polygon fill="midnightblue" stroke="midnightblue" points="362.516,-184.961 353.431,-190.411 363.932,-191.816 362.516,-184.961"/>
</g>
<!-- Node22 -->
<g id="node22" class="node"><title>Node22</title>
<g id="a_node22"><a xlink:href="../../d3/df2/sv__cmd_8qc.html#ad38f3363e3520aebf41b8f4d592919fa" target="_top" xlink:title="SERVER_COMMAND">
<polygon fill="none" stroke="black" points="625.5,-190.5 625.5,-209.5 742.5,-209.5 742.5,-190.5 625.5,-190.5"/>
<text text-anchor="middle" x="684" y="-197.5" font-family="Helvetica,sans-Serif" font-size="10.00">SERVER_COMMAND</text>
</a>
</g>
</g>
<!-- Node21&#45;&gt;Node22 -->
<g id="edge22" class="edge"><title>Node21&#45;&gt;Node22</title>
<path fill="none" stroke="midnightblue" d="M580.062,-200C595.452,-200 611.121,-200 625.44,-200"/>
<polygon fill="midnightblue" stroke="midnightblue" points="580.006,-196.5 570.006,-200 580.006,-203.5 580.006,-196.5"/>
</g>
<!-- Node25 -->
<g id="node25" class="node"><title>Node25</title>
<g id="a_node25"><a xlink:href="../../d3/df2/sv__cmd_8qc.html#af115b83f0c63c84bd98e5dddf80feca3" target="_top" xlink:title="SERVER_COMMAND">
<polygon fill="none" stroke="black" points="433.5,-988.5 433.5,-1007.5 550.5,-1007.5 550.5,-988.5 433.5,-988.5"/>
<text text-anchor="middle" x="492" y="-995.5" font-family="Helvetica,sans-Serif" font-size="10.00">SERVER_COMMAND</text>
</a>
</g>
</g>
<!-- Node24&#45;&gt;Node25 -->
<g id="edge25" class="edge"><title>Node24&#45;&gt;Node25</title>
<path fill="none" stroke="midnightblue" d="M387.655,-998C403.059,-998 418.894,-998 433.396,-998"/>
<polygon fill="midnightblue" stroke="midnightblue" points="387.613,-994.5 377.613,-998 387.613,-1001.5 387.613,-994.5"/>
</g>
<!-- Node26&#45;&gt;Node18 -->
<g id="edge36" class="edge"><title>Node26&#45;&gt;Node18</title>
<path fill="none" stroke="midnightblue" d="M327.981,-354.98C342.808,-343.13 362.687,-326.137 378,-309 396.73,-288.04 390.858,-272.955 414,-257 419.668,-253.092 426.059,-249.986 432.675,-247.518"/>
<polygon fill="midnightblue" stroke="midnightblue" points="325.607,-352.394 319.907,-361.325 329.932,-357.898 325.607,-352.394"/>
</g>
<!-- Node27 -->
<g id="node27" class="node"><title>Node27</title>
<g id="a_node27"><a xlink:href="../../d1/dad/server_2command_2vote_8qc.html#aa5bfb7647a9b350b92d600703b23919d" target="_top" xlink:title="VoteStop">
<polygon fill="none" stroke="black" points="463.5,-418.5 463.5,-437.5 520.5,-437.5 520.5,-418.5 463.5,-418.5"/>
<text text-anchor="middle" x="492" y="-425.5" font-family="Helvetica,sans-Serif" font-size="10.00">VoteStop</text>
</a>
</g>
</g>
<!-- Node26&#45;&gt;Node27 -->
<g id="edge27" class="edge"><title>Node26&#45;&gt;Node27</title>
<path fill="none" stroke="midnightblue" d="M341.237,-384.137C362.097,-391.896 389.388,-401.613 414,-409 430.221,-413.869 448.63,-418.445 463.38,-421.886"/>
<polygon fill="midnightblue" stroke="midnightblue" points="342.439,-380.85 331.847,-380.615 339.981,-387.404 342.439,-380.85"/>
</g>
<!-- Node30 -->
<g id="node30" class="node"><title>Node30</title>
<g id="a_node30"><a xlink:href="../../d1/dad/server_2command_2vote_8qc.html#a4f1105ee7cce8f345f40291061422397" target="_top" xlink:title="VoteCommand_call">
<polygon fill="none" stroke="black" points="441,-380.5 441,-399.5 543,-399.5 543,-380.5 441,-380.5"/>
<text text-anchor="middle" x="492" y="-387.5" font-family="Helvetica,sans-Serif" font-size="10.00">VoteCommand_call</text>
</a>
</g>
</g>
<!-- Node26&#45;&gt;Node30 -->
<g id="edge30" class="edge"><title>Node26&#45;&gt;Node30</title>
<path fill="none" stroke="midnightblue" d="M358.578,-376.326C384.251,-378.977 415.166,-382.169 440.666,-384.802"/>
<polygon fill="midnightblue" stroke="midnightblue" points="358.6,-372.81 348.293,-375.264 357.881,-379.773 358.6,-372.81"/>
</g>
<!-- Node31 -->
<g id="node31" class="node"><title>Node31</title>
<g id="a_node31"><a xlink:href="../../d1/dad/server_2command_2vote_8qc.html#ae57d1ca4b4a65c6bd2200048fc0a5c62" target="_top" xlink:title="VoteCommand_master">
<polygon fill="none" stroke="black" points="433.5,-456.5 433.5,-475.5 550.5,-475.5 550.5,-456.5 433.5,-456.5"/>
<text text-anchor="middle" x="492" y="-463.5" font-family="Helvetica,sans-Serif" font-size="10.00">VoteCommand_master</text>
</a>
</g>
</g>
<!-- Node26&#45;&gt;Node31 -->
<g id="edge31" class="edge"><title>Node26&#45;&gt;Node31</title>
<path fill="none" stroke="midnightblue" d="M325.503,-387.478C345.828,-404.742 380.108,-431.466 414,-447 422.261,-450.786 431.381,-453.883 440.367,-456.394"/>
<polygon fill="midnightblue" stroke="midnightblue" points="327.541,-384.613 317.688,-380.718 322.961,-389.907 327.541,-384.613"/>
</g>
<!-- Node32 -->
<g id="node32" class="node"><title>Node32</title>
<g id="a_node32"><a xlink:href="../../d2/d06/server_2command_2common_8qh.html#adb3c2e1c0fe442a59205fb755f65c581" target="_top" xlink:title="CommonCommand_timein">
<polygon fill="none" stroke="black" points="425.5,-304.5 425.5,-323.5 558.5,-323.5 558.5,-304.5 425.5,-304.5"/>
<text text-anchor="middle" x="492" y="-311.5" font-family="Helvetica,sans-Serif" font-size="10.00">CommonCommand_timein</text>
</a>
</g>
</g>
<!-- Node26&#45;&gt;Node32 -->
<g id="edge32" class="edge"><title>Node26&#45;&gt;Node32</title>
<path fill="none" stroke="midnightblue" d="M341.237,-357.863C362.097,-350.104 389.388,-340.387 414,-333 425.342,-329.596 437.753,-326.335 449.235,-323.505"/>
<polygon fill="midnightblue" stroke="midnightblue" points="339.981,-354.596 331.847,-361.385 342.439,-361.15 339.981,-354.596"/>
</g>
<!-- Node34 -->
<g id="node34" class="node"><title>Node34</title>
<g id="a_node34"><a xlink:href="../../d2/d06/server_2command_2common_8qh.html#aa7630d6861584c34293068bbe3a9c971" target="_top" xlink:title="CommonCommand_timeout">
<polygon fill="none" stroke="black" points="422.5,-266.5 422.5,-285.5 561.5,-285.5 561.5,-266.5 422.5,-266.5"/>
<text text-anchor="middle" x="492" y="-273.5" font-family="Helvetica,sans-Serif" font-size="10.00">CommonCommand_timeout</text>
</a>
</g>
</g>
<!-- Node26&#45;&gt;Node34 -->
<g id="edge34" class="edge"><title>Node26&#45;&gt;Node34</title>
<path fill="none" stroke="midnightblue" d="M325.503,-354.522C345.828,-337.258 380.108,-310.534 414,-295 422.261,-291.214 431.381,-288.117 440.367,-285.606"/>
<polygon fill="midnightblue" stroke="midnightblue" points="322.961,-352.093 317.688,-361.282 327.541,-357.387 322.961,-352.093"/>
</g>
<!-- Node36 -->
<g id="node36" class="node"><title>Node36</title>
<g id="a_node36"><a xlink:href="../../d3/df2/sv__cmd_8qc.html#a04a93c85ed8770476a04dfc7190a511d" target="_top" xlink:title="GameCommand_stuffto">
<polygon fill="none" stroke="black" points="431.5,-342.5 431.5,-361.5 552.5,-361.5 552.5,-342.5 431.5,-342.5"/>
<text text-anchor="middle" x="492" y="-349.5" font-family="Helvetica,sans-Serif" font-size="10.00">GameCommand_stuffto</text>
</a>
</g>
</g>
<!-- Node26&#45;&gt;Node36 -->
<g id="edge37" class="edge"><title>Node26&#45;&gt;Node36</title>
<path fill="none" stroke="midnightblue" d="M358.387,-365.694C381.044,-363.354 407.812,-360.59 431.345,-358.16"/>
<polygon fill="midnightblue" stroke="midnightblue" points="357.881,-362.227 348.293,-366.736 358.6,-369.19 357.881,-362.227"/>
</g>
<!-- Node28 -->
<g id="node28" class="node"><title>Node28</title>
<g id="a_node28"><a xlink:href="../../d1/dad/server_2command_2vote_8qc.html#a8fb75ffc955e6b72f8cace4c3d2e6352" target="_top" xlink:title="VoteCommand_no">
<polygon fill="none" stroke="black" points="635,-437.5 635,-456.5 733,-456.5 733,-437.5 635,-437.5"/>
<text text-anchor="middle" x="684" y="-444.5" font-family="Helvetica,sans-Serif" font-size="10.00">VoteCommand_no</text>
</a>
</g>
</g>
<!-- Node27&#45;&gt;Node28 -->
<g id="edge28" class="edge"><title>Node27&#45;&gt;Node28</title>
<path fill="none" stroke="midnightblue" d="M530.646,-431.765C560.493,-434.749 602.413,-438.941 634.727,-442.173"/>
<polygon fill="midnightblue" stroke="midnightblue" points="530.926,-428.275 520.628,-430.763 530.23,-435.241 530.926,-428.275"/>
</g>
<!-- Node29 -->
<g id="node29" class="node"><title>Node29</title>
<g id="a_node29"><a xlink:href="../../d1/dad/server_2command_2vote_8qc.html#ae827cf9f1846cfcbcfd7094e5ac0973d" target="_top" xlink:title="VoteCommand_stop">
<polygon fill="none" stroke="black" points="631,-399.5 631,-418.5 737,-418.5 737,-399.5 631,-399.5"/>
<text text-anchor="middle" x="684" y="-406.5" font-family="Helvetica,sans-Serif" font-size="10.00">VoteCommand_stop</text>
</a>
</g>
</g>
<!-- Node27&#45;&gt;Node29 -->
<g id="edge29" class="edge"><title>Node27&#45;&gt;Node29</title>
<path fill="none" stroke="midnightblue" d="M530.66,-424.234C559.355,-421.364 599.204,-417.38 630.948,-414.205"/>
<polygon fill="midnightblue" stroke="midnightblue" points="530.23,-420.759 520.628,-425.237 530.926,-427.725 530.23,-420.759"/>
</g>
<!-- Node33 -->
<g id="node33" class="node"><title>Node33</title>
<g id="a_node33"><a xlink:href="../../d2/d06/server_2command_2common_8qh.html#a774fd3d3251f86be8bd4429f74424adb" target="_top" xlink:title="COMMON_COMMAND">
<polygon fill="none" stroke="black" points="623,-304.5 623,-323.5 745,-323.5 745,-304.5 623,-304.5"/>
<text text-anchor="middle" x="684" y="-311.5" font-family="Helvetica,sans-Serif" font-size="10.00">COMMON_COMMAND</text>
</a>
</g>
</g>
<!-- Node32&#45;&gt;Node33 -->
<g id="edge33" class="edge"><title>Node32&#45;&gt;Node33</title>
<path fill="none" stroke="midnightblue" d="M568.793,-314C586.731,-314 605.623,-314 622.764,-314"/>
<polygon fill="midnightblue" stroke="midnightblue" points="568.653,-310.5 558.653,-314 568.653,-317.5 568.653,-310.5"/>
</g>
<!-- Node35 -->
<g id="node35" class="node"><title>Node35</title>
<g id="a_node35"><a xlink:href="../../d2/d06/server_2command_2common_8qh.html#aeb66fd9ff298b82d93e8f139d80463bc" target="_top" xlink:title="COMMON_COMMAND">
<polygon fill="none" stroke="black" points="623,-266.5 623,-285.5 745,-285.5 745,-266.5 623,-266.5"/>
<text text-anchor="middle" x="684" y="-273.5" font-family="Helvetica,sans-Serif" font-size="10.00">COMMON_COMMAND</text>
</a>
</g>
</g>
<!-- Node34&#45;&gt;Node35 -->
<g id="edge35" class="edge"><title>Node34&#45;&gt;Node35</title>
<path fill="none" stroke="midnightblue" d="M571.603,-276C588.776,-276 606.686,-276 622.997,-276"/>
<polygon fill="midnightblue" stroke="midnightblue" points="571.594,-272.5 561.594,-276 571.594,-279.5 571.594,-272.5"/>
</g>
<!-- Node37 -->
<g id="node37" class="node"><title>Node37</title>
<g id="a_node37"><a xlink:href="../../d3/df2/sv__cmd_8qc.html#a305c082043dcf6b2454bdacb003340f8" target="_top" xlink:title="SERVER_COMMAND">
<polygon fill="none" stroke="black" points="625.5,-342.5 625.5,-361.5 742.5,-361.5 742.5,-342.5 625.5,-342.5"/>
<text text-anchor="middle" x="684" y="-349.5" font-family="Helvetica,sans-Serif" font-size="10.00">SERVER_COMMAND</text>
</a>
</g>
</g>
<!-- Node36&#45;&gt;Node37 -->
<g id="edge38" class="edge"><title>Node36&#45;&gt;Node37</title>
<path fill="none" stroke="midnightblue" d="M562.832,-352C583.354,-352 605.564,-352 625.241,-352"/>
<polygon fill="midnightblue" stroke="midnightblue" points="562.596,-348.5 552.596,-352 562.596,-355.5 562.596,-348.5"/>
</g>
<!-- Node38&#45;&gt;Node27 -->
<g id="edge46" class="edge"><title>Node38&#45;&gt;Node27</title>
<path fill="none" stroke="midnightblue" d="M325.503,-506.522C345.828,-489.258 380.108,-462.534 414,-447 429.646,-439.829 448.371,-435.131 463.438,-432.201"/>
<polygon fill="midnightblue" stroke="midnightblue" points="322.961,-504.093 317.688,-513.282 327.541,-509.387 322.961,-504.093"/>
</g>
<!-- Node38&#45;&gt;Node30 -->
<g id="edge42" class="edge"><title>Node38&#45;&gt;Node30</title>
<path fill="none" stroke="midnightblue" d="M318.832,-504.931C336.455,-479.507 372.062,-433.543 414,-409 422.2,-404.201 431.573,-400.609 440.892,-397.922"/>
<polygon fill="midnightblue" stroke="midnightblue" points="315.88,-503.048 313.174,-513.291 321.677,-506.971 315.88,-503.048"/>
</g>
<!-- Node38&#45;&gt;Node31 -->
<g id="edge43" class="edge"><title>Node38&#45;&gt;Node31</title>
<path fill="none" stroke="midnightblue" d="M341.237,-509.863C362.097,-502.104 389.388,-492.387 414,-485 425.342,-481.596 437.753,-478.335 449.235,-475.505"/>
<polygon fill="midnightblue" stroke="midnightblue" points="339.981,-506.596 331.847,-513.385 342.439,-513.15 339.981,-506.596"/>
</g>
<!-- Node39 -->
<g id="node39" class="node"><title>Node39</title>
<g id="a_node39"><a xlink:href="../../d1/dad/server_2command_2vote_8qc.html#afa3842ee6c4c5d4bf93d915d2a3bfe2b" target="_top" xlink:title="VoteAccept">
<polygon fill="none" stroke="black" points="458,-532.5 458,-551.5 526,-551.5 526,-532.5 458,-532.5"/>
<text text-anchor="middle" x="492" y="-539.5" font-family="Helvetica,sans-Serif" font-size="10.00">VoteAccept</text>
</a>
</g>
</g>
<!-- Node38&#45;&gt;Node39 -->
<g id="edge41" class="edge"><title>Node38&#45;&gt;Node39</title>
<path fill="none" stroke="midnightblue" d="M366.801,-529.175C396.976,-532.291 432.44,-535.953 457.73,-538.564"/>
<polygon fill="midnightblue" stroke="midnightblue" points="367.1,-525.687 356.793,-528.142 366.381,-532.65 367.1,-525.687"/>
</g>
<!-- Node40 -->
<g id="node40" class="node"><title>Node40</title>
<g id="a_node40"><a xlink:href="../../d1/dad/server_2command_2vote_8qc.html#af0d10a6ebf1c161b7c6dfd5c5ac9a31d" target="_top" xlink:title="VoteCommand_status">
<polygon fill="none" stroke="black" points="435,-494.5 435,-513.5 549,-513.5 549,-494.5 435,-494.5"/>
<text text-anchor="middle" x="492" y="-501.5" font-family="Helvetica,sans-Serif" font-size="10.00">VoteCommand_status</text>
</a>
</g>
</g>
<!-- Node38&#45;&gt;Node40 -->
<g id="edge44" class="edge"><title>Node38&#45;&gt;Node40</title>
<path fill="none" stroke="midnightblue" d="M366.911,-516.814C388.69,-514.565 413.212,-512.032 434.671,-509.817"/>
<polygon fill="midnightblue" stroke="midnightblue" points="366.381,-513.35 356.793,-517.858 367.1,-520.313 366.381,-513.35"/>
</g>
<!-- Node41 -->
<g id="node41" class="node"><title>Node41</title>
<g id="a_node41"><a xlink:href="../../d1/dad/server_2command_2vote_8qc.html#a201e32958bf8893bdfb027a7d62755b6" target="_top" xlink:title="VoteReject">
<polygon fill="none" stroke="black" points="459.5,-608.5 459.5,-627.5 524.5,-627.5 524.5,-608.5 459.5,-608.5"/>
<text text-anchor="middle" x="492" y="-615.5" font-family="Helvetica,sans-Serif" font-size="10.00">VoteReject</text>
</a>
</g>
</g>
<!-- Node38&#45;&gt;Node41 -->
<g id="edge45" class="edge"><title>Node38&#45;&gt;Node41</title>
<path fill="none" stroke="midnightblue" d="M325.503,-539.478C345.828,-556.742 380.108,-583.466 414,-599 428.269,-605.54 445.099,-610.023 459.38,-612.984"/>
<polygon fill="midnightblue" stroke="midnightblue" points="327.541,-536.613 317.688,-532.718 322.961,-541.907 327.541,-536.613"/>
</g>
<!-- Node42 -->
<g id="node42" class="node"><title>Node42</title>
<g id="a_node42"><a xlink:href="../../d1/dad/server_2command_2vote_8qc.html#a8adef0cb0c9dffb0348ed5fb19cdbebf" target="_top" xlink:title="VoteTimeout">
<polygon fill="none" stroke="black" points="456,-570.5 456,-589.5 528,-589.5 528,-570.5 456,-570.5"/>
<text text-anchor="middle" x="492" y="-577.5" font-family="Helvetica,sans-Serif" font-size="10.00">VoteTimeout</text>
</a>
</g>
</g>
<!-- Node38&#45;&gt;Node42 -->
<g id="edge47" class="edge"><title>Node38&#45;&gt;Node42</title>
<path fill="none" stroke="midnightblue" d="M341.237,-536.137C362.097,-543.896 389.388,-553.613 414,-561 427.583,-565.077 442.701,-568.949 455.92,-572.121"/>
<polygon fill="midnightblue" stroke="midnightblue" points="342.439,-532.85 331.847,-532.615 339.981,-539.404 342.439,-532.85"/>
</g>
<!-- Node43&#45;&gt;Node17 -->
<g id="edge49" class="edge"><title>Node43&#45;&gt;Node17</title>
<path fill="none" stroke="midnightblue" d="M735.035,-757.977C744.029,-755.724 753.306,-753.34 762,-751 783.627,-745.181 807.834,-738.116 826.53,-732.539"/>
<polygon fill="midnightblue" stroke="midnightblue" points="733.909,-754.65 725.046,-760.456 735.595,-761.444 733.909,-754.65"/>
</g>
<!-- Node45 -->
<g id="node45" class="node"><title>Node45</title>
<g id="a_node45"><a xlink:href="../../d8/d1d/cmd_8qc.html#abbf460d51ea76590ef45741995425f19" target="_top" xlink:title="ClientCommand_say">
<polygon fill="none" stroke="black" points="438,-0.5 438,-19.5 546,-19.5 546,-0.5 438,-0.5"/>
<text text-anchor="middle" x="492" y="-7.5" font-family="Helvetica,sans-Serif" font-size="10.00">ClientCommand_say</text>
</a>
</g>
</g>
<!-- Node44&#45;&gt;Node45 -->
<g id="edge51" class="edge"><title>Node44&#45;&gt;Node45</title>
<path fill="none" stroke="midnightblue" d="M325.503,-88.5224C345.828,-71.2584 380.108,-44.5338 414,-29 422.261,-25.2137 431.381,-22.1168 440.367,-19.6055"/>
<polygon fill="midnightblue" stroke="midnightblue" points="322.961,-86.0928 317.688,-95.2818 327.541,-91.3871 322.961,-86.0928"/>
</g>
<!-- Node46 -->
<g id="node46" class="node"><title>Node46</title>
<g id="a_node46"><a xlink:href="../../d8/d1d/cmd_8qc.html#ad58ae118ed5046354465c83ab676637e" target="_top" xlink:title="ClientCommand_say_team">
<polygon fill="none" stroke="black" points="424.5,-114.5 424.5,-133.5 559.5,-133.5 559.5,-114.5 424.5,-114.5"/>
<text text-anchor="middle" x="492" y="-121.5" font-family="Helvetica,sans-Serif" font-size="10.00">ClientCommand_say_team</text>
</a>
</g>
</g>
<!-- Node44&#45;&gt;Node46 -->
<g id="edge52" class="edge"><title>Node44&#45;&gt;Node46</title>
<path fill="none" stroke="midnightblue" d="M333.267,-107.712C356.92,-110.155 392.707,-113.85 424.217,-117.104"/>
<polygon fill="midnightblue" stroke="midnightblue" points="333.314,-104.199 323.007,-106.653 332.594,-111.162 333.314,-104.199"/>
</g>
<!-- Node47 -->
<g id="node47" class="node"><title>Node47</title>
<g id="a_node47"><a xlink:href="../../d8/d1d/cmd_8qc.html#a6a487ac8c19cb81bdc5e6be5c57e2567" target="_top" xlink:title="ClientCommand_tell">
<polygon fill="none" stroke="black" points="439.5,-76.5 439.5,-95.5 544.5,-95.5 544.5,-76.5 439.5,-76.5"/>
<text text-anchor="middle" x="492" y="-83.5" font-family="Helvetica,sans-Serif" font-size="10.00">ClientCommand_tell</text>
</a>
</g>
</g>
<!-- Node44&#45;&gt;Node47 -->
<g id="edge53" class="edge"><title>Node44&#45;&gt;Node47</title>
<path fill="none" stroke="midnightblue" d="M333.011,-102.314C360.485,-99.4771 404.533,-94.9287 439.148,-91.3543"/>
<polygon fill="midnightblue" stroke="midnightblue" points="332.594,-98.8384 323.007,-103.347 333.314,-105.801 332.594,-98.8384"/>
</g>
<!-- Node48 -->
<g id="node48" class="node"><title>Node48</title>
<g id="a_node48"><a xlink:href="../../d7/d8c/server_2matrix_8qc.html#af5102d8297bde7ad33c004e9f81e6e3b" target="_top" xlink:title="MX_Handle">
<polygon fill="none" stroke="black" points="458,-38.5 458,-57.5 526,-57.5 526,-38.5 458,-38.5"/>
<text text-anchor="middle" x="492" y="-45.5" font-family="Helvetica,sans-Serif" font-size="10.00">MX_Handle</text>
</a>
</g>
</g>
<!-- Node44&#45;&gt;Node48 -->
<g id="edge54" class="edge"><title>Node44&#45;&gt;Node48</title>
<path fill="none" stroke="midnightblue" d="M332.557,-95.116C354.088,-86.9849 385.802,-75.4634 414,-67 428.243,-62.7252 444.173,-58.6756 457.831,-55.4221"/>
<polygon fill="midnightblue" stroke="midnightblue" points="331.249,-91.869 323.149,-98.6984 333.74,-98.4109 331.249,-91.869"/>
</g>
<!-- Node50 -->
<g id="node50" class="node"><title>Node50</title>
<g id="a_node50"><a xlink:href="../../d5/dac/server_2scores_8qh.html#aa70e08e25e069e368d303726e1c91dff" target="_top" xlink:title="Prints the scores to the console of a player. ">
<polygon fill="none" stroke="black" points="448,-646.5 448,-665.5 536,-665.5 536,-646.5 448,-646.5"/>
<text text-anchor="middle" x="492" y="-653.5" font-family="Helvetica,sans-Serif" font-size="10.00">Score_NicePrint</text>
</a>
</g>
</g>
<!-- Node49&#45;&gt;Node50 -->
<g id="edge56" class="edge"><title>Node49&#45;&gt;Node50</title>
<path fill="none" stroke="midnightblue" d="M376.826,-656C400.713,-656 426.72,-656 447.871,-656"/>
<polygon fill="midnightblue" stroke="midnightblue" points="376.74,-652.5 366.74,-656 376.739,-659.5 376.74,-652.5"/>
</g>
<!-- Node51 -->
<g id="node51" class="node"><title>Node51</title>
<g id="a_node51"><a xlink:href="../../d2/d06/server_2command_2common_8qh.html#aa450e50239976de2c6d62c3cb1cbd556" target="_top" xlink:title="CommonCommand_teamstatus">
<polygon fill="none" stroke="black" points="606.5,-628.5 606.5,-647.5 761.5,-647.5 761.5,-628.5 606.5,-628.5"/>
<text text-anchor="middle" x="684" y="-635.5" font-family="Helvetica,sans-Serif" font-size="10.00">CommonCommand_teamstatus</text>
</a>
</g>
</g>
<!-- Node50&#45;&gt;Node51 -->
<g id="edge57" class="edge"><title>Node50&#45;&gt;Node51</title>
<path fill="none" stroke="midnightblue" d="M546.191,-650.961C564.874,-649.191 586.252,-647.166 606.468,-645.25"/>
<polygon fill="midnightblue" stroke="midnightblue" points="545.739,-647.488 536.114,-651.916 546.399,-654.457 545.739,-647.488"/>
</g>
<!-- Node52 -->
<g id="node52" class="node"><title>Node52</title>
<g id="a_node52"><a xlink:href="../../d2/d06/server_2command_2common_8qh.html#a27cd3abccd4cfcb24d14fa52457db206" target="_top" xlink:title="COMMON_COMMAND">
<polygon fill="none" stroke="black" points="798,-628.5 798,-647.5 920,-647.5 920,-628.5 798,-628.5"/>
<text text-anchor="middle" x="859" y="-635.5" font-family="Helvetica,sans-Serif" font-size="10.00">COMMON_COMMAND</text>
</a>
</g>
</g>
<!-- Node51&#45;&gt;Node52 -->
<g id="edge58" class="edge"><title>Node51&#45;&gt;Node52</title>
<path fill="none" stroke="midnightblue" d="M771.895,-638C780.65,-638 789.4,-638 797.786,-638"/>
<polygon fill="midnightblue" stroke="midnightblue" points="771.636,-634.5 761.636,-638 771.636,-641.5 771.636,-634.5"/>
</g>
<!-- Node53&#45;&gt;Node50 -->
<g id="edge60" class="edge"><title>Node53&#45;&gt;Node50</title>
<path fill="none" stroke="midnightblue" d="M363.558,-629.68C390.664,-635.278 422.615,-641.877 447.744,-647.067"/>
<polygon fill="midnightblue" stroke="midnightblue" points="363.932,-626.184 353.431,-627.589 362.516,-633.039 363.932,-626.184"/>
</g>
</g>
</svg>
