<?xml version="1.0" encoding="UTF-8" standalone="no"?>
<!DOCTYPE svg PUBLIC "-//W3C//DTD SVG 1.1//EN"
 "http://www.w3.org/Graphics/SVG/1.1/DTD/svg11.dtd">
<!-- Generated by graphviz version 2.40.1 (20161225.0304)
 -->
<!-- Title: WarpZone_RefSys_Add Pages: 1 -->
<!--zoomable 183 -->
<svg id="main" version="1.1" xmlns="http://www.w3.org/2000/svg" xmlns:xlink="http://www.w3.org/1999/xlink" xml:space="preserve" onload="init(evt)">
<style type="text/css"><![CDATA[
.edge:hover path { stroke: red; }
.edge:hover polygon { stroke: red; fill: red; }
]]></style>
<script type="text/javascript"><![CDATA[
var edges = document.getElementsByTagName('g');
if (edges && edges.length) {
  for (var i=0;i<edges.length;i++) {
    if (edges[i].id.substr(0,4)=='edge') {
      edges[i].setAttribute('class','edge');
    }
  }
}
]]></script>
        <defs>
                <circle id="rim" cx="0" cy="0" r="7"/>
                <circle id="rim2" cx="0" cy="0" r="3.5"/>
                <g id="zoomPlus">
                        <use xlink:href="#rim" fill="#404040">
                                <set attributeName="fill" to="#808080" begin="zoomplus.mouseover" end="zoomplus.mouseout"/>
                        </use>
                        <path d="M-4,0h8M0,-4v8" fill="none" stroke="white" stroke-width="1.5" pointer-events="none"/>
                </g>
                <g id="zoomMin">
                        <use xlink:href="#rim" fill="#404040">
                                <set attributeName="fill" to="#808080" begin="zoomminus.mouseover" end="zoomminus.mouseout"/>
                        </use>
                        <path d="M-4,0h8" fill="none" stroke="white" stroke-width="1.5" pointer-events="none"/>
                </g>
                <g id="dirArrow">
                        <path fill="none" stroke="white" stroke-width="1.5" d="M0,-3.0v7 M-2.5,-0.5L0,-3.0L2.5,-0.5"/>
                </g>
               <g id="resetDef">
                       <use xlink:href="#rim2" fill="#404040">
                               <set attributeName="fill" to="#808080" begin="reset.mouseover" end="reset.mouseout"/>
                       </use>
               </g>
        </defs>

<script type="text/javascript">
var viewWidth = 986;
var viewHeight = 183;
var sectionId = 'dynsection-24';
</script>
<script xlink:href="../../svgpan.js"/>
<svg id="graph" class="graph">
<g id="viewport">
<title>WarpZone_RefSys_Add</title>
<!-- Node860 -->
<g id="node1" class="node">
<title>Node860</title>
<polygon fill="#bfbfbf" stroke="#000000" points="0,-64.2798 0,-83.2798 128,-83.2798 128,-64.2798 0,-64.2798"/>
<text text-anchor="middle" x="64" y="-71.2798" font-family="Helvetica,sans-Serif" font-size="10.00" fill="#000000">WarpZone_RefSys_Add</text>
</g>
<!-- Node861 -->
<g id="node2" class="node">
<title>Node861</title>
<g id="a_node2"><a xlink:href="../../d1/d6a/lib_2warpzone_2common_8qc.html#a9309243a48813533b3c291f4f9490438" target="_top" xlink:title="WarpZone_RefSys_AddTransform">
<polygon fill="none" stroke="#000000" points="164,-64.2798 164,-83.2798 341,-83.2798 341,-64.2798 164,-64.2798"/>
<text text-anchor="middle" x="252.5" y="-71.2798" font-family="Helvetica,sans-Serif" font-size="10.00" fill="#000000">WarpZone_RefSys_AddTransform</text>
</a>
</g>
</g>
<!-- Node860&#45;&gt;Node861 -->
<g id="edge1" class="edge">
<title>Node860&#45;&gt;Node861</title>
<path fill="none" stroke="#191970" d="M128.0805,-73.7798C136.3655,-73.7798 144.9983,-73.7798 153.6828,-73.7798"/>
<polygon fill="#191970" stroke="#191970" points="153.8838,-77.2799 163.8838,-73.7798 153.8838,-70.2799 153.8838,-77.2799"/>
</g>
<!-- Node862 -->
<g id="node3" class="node">
<title>Node862</title>
<g id="a_node3"><a xlink:href="../../d1/d6a/lib_2warpzone_2common_8qc.html#a50f2162534b375ca0b1f6eeffe89df2a" target="_top" xlink:title="WarpZone_RefSys_CheckCreate">
<polygon fill="none" stroke="#000000" points="377,-111.2798 377,-130.2798 549,-130.2798 549,-111.2798 377,-111.2798"/>
<text text-anchor="middle" x="463" y="-118.2798" font-family="Helvetica,sans-Serif" font-size="10.00" fill="#000000">WarpZone_RefSys_CheckCreate</text>
</a>
</g>
</g>
<!-- Node861&#45;&gt;Node862 -->
<g id="edge2" class="edge">
<title>Node861&#45;&gt;Node862</title>
<path fill="none" stroke="#191970" d="M295.0978,-83.2909C328.2281,-90.6882 374.3804,-100.993 409.9148,-108.927"/>
<polygon fill="#191970" stroke="#191970" points="409.5824,-112.4389 420.1048,-111.2022 411.1078,-105.6071 409.5824,-112.4389"/>
</g>
<!-- Node865 -->
<g id="node6" class="node">
<title>Node865</title>
<g id="a_node6"><a xlink:href="../../d1/d6a/lib_2warpzone_2common_8qc.html#a2604ee52b90450a5de9a19d30aa8373f" target="_top" xlink:title="WarpZone_Accumulator\l_AddTransform">
<polygon fill="none" stroke="#000000" points="396.5,-34.7798 396.5,-64.7798 529.5,-64.7798 529.5,-34.7798 396.5,-34.7798"/>
<text text-anchor="start" x="404.5" y="-52.7798" font-family="Helvetica,sans-Serif" font-size="10.00" fill="#000000">WarpZone_Accumulator</text>
<text text-anchor="middle" x="463" y="-41.7798" font-family="Helvetica,sans-Serif" font-size="10.00" fill="#000000">_AddTransform</text>
</a>
</g>
</g>
<!-- Node861&#45;&gt;Node865 -->
<g id="edge5" class="edge">
<title>Node861&#45;&gt;Node865</title>
<path fill="none" stroke="#191970" d="M335.9975,-64.2599C352.6325,-62.3632 370.0255,-60.3802 386.4147,-58.5116"/>
<polygon fill="#191970" stroke="#191970" points="386.9347,-61.9751 396.4738,-57.3647 386.1417,-55.0201 386.9347,-61.9751"/>
</g>
<!-- Node863 -->
<g id="node4" class="node">
<title>Node863</title>
<g id="a_node4"><a xlink:href="../../d1/d6a/lib_2warpzone_2common_8qc.html#a477e969f6457aad447cae7dbaebfabc9" target="_top" xlink:title="WarpZone_RefSys_GC">
<polygon fill="none" stroke="#000000" points="594.5,-155.2798 594.5,-174.2798 718.5,-174.2798 718.5,-155.2798 594.5,-155.2798"/>
<text text-anchor="middle" x="656.5" y="-162.2798" font-family="Helvetica,sans-Serif" font-size="10.00" fill="#000000">WarpZone_RefSys_GC</text>
</a>
</g>
</g>
<!-- Node862&#45;&gt;Node863 -->
<g id="edge3" class="edge">
<title>Node862&#45;&gt;Node863</title>
<path fill="none" stroke="#191970" d="M504.9866,-130.3271C534.2735,-136.9867 573.5428,-145.9161 604.7642,-153.0155"/>
<polygon fill="#191970" stroke="#191970" points="604.0682,-156.4466 614.5953,-155.2511 605.6203,-149.6208 604.0682,-156.4466"/>
</g>
<!-- Node864 -->
<g id="node5" class="node">
<title>Node864</title>
<g id="a_node5"><a xlink:href="../../d1/d6a/lib_2warpzone_2common_8qc.html#a1ffbdf285707f8412653ec2a099b8a02" target="_top" xlink:title="WarpZone_Accumulator\l_Clear">
<polygon fill="none" stroke="#000000" points="590,-105.7798 590,-135.7798 723,-135.7798 723,-105.7798 590,-105.7798"/>
<text text-anchor="start" x="598" y="-123.7798" font-family="Helvetica,sans-Serif" font-size="10.00" fill="#000000">WarpZone_Accumulator</text>
<text text-anchor="middle" x="656.5" y="-112.7798" font-family="Helvetica,sans-Serif" font-size="10.00" fill="#000000">_Clear</text>
</a>
</g>
</g>
<!-- Node862&#45;&gt;Node864 -->
<g id="edge4" class="edge">
<title>Node862&#45;&gt;Node864</title>
<path fill="none" stroke="#191970" d="M549.2807,-120.7798C559.3785,-120.7798 569.6302,-120.7798 579.5889,-120.7798"/>
<polygon fill="#191970" stroke="#191970" points="579.8422,-124.2799 589.8421,-120.7798 579.8421,-117.2799 579.8422,-124.2799"/>
</g>
<!-- Node866 -->
<g id="node7" class="node">
<title>Node866</title>
<g id="a_node7"><a xlink:href="../../df/d13/anglestransform_8qc.html#ac06d70078794b4df23a48f86b7aabf21" target="_top" xlink:title="AnglesTransform_Multiply">
<polygon fill="none" stroke="#000000" points="585,-18.2798 585,-37.2798 728,-37.2798 728,-18.2798 585,-18.2798"/>
<text text-anchor="middle" x="656.5" y="-25.2798" font-family="Helvetica,sans-Serif" font-size="10.00" fill="#000000">AnglesTransform_Multiply</text>
</a>
</g>
</g>
<!-- Node865&#45;&gt;Node866 -->
<g id="edge6" class="edge">
<title>Node865&#45;&gt;Node866</title>
<path fill="none" stroke="#191970" d="M529.5917,-42.2086C544.07,-40.5625 559.5494,-38.8026 574.5434,-37.0978"/>
<polygon fill="#191970" stroke="#191970" points="575.2874,-40.5359 584.8279,-35.9285 574.4965,-33.5807 575.2874,-40.5359"/>
</g>
<!-- Node868 -->
<g id="node9" class="node">
<title>Node868</title>
<g id="a_node9"><a xlink:href="../../da/dde/csprogsdefs_8qh.html#a2626679e4144af8478202c6c28f90cd9" target="_top" xlink:title="vector">
<polygon fill="none" stroke="#000000" points="931,-18.2798 931,-37.2798 978,-37.2798 978,-18.2798 931,-18.2798"/>
<text text-anchor="middle" x="954.5" y="-25.2798" font-family="Helvetica,sans-Serif" font-size="10.00" fill="#000000">vector</text>
</a>
</g>
</g>
<!-- Node865&#45;&gt;Node868 -->
<g id="edge12" class="edge">
<title>Node865&#45;&gt;Node868</title>
<path fill="none" stroke="#191970" d="M497.731,-34.7453C521.734,-25.1984 554.6789,-13.7384 585,-8.7798 707.5,11.2537 855.603,-9.7837 920.8553,-21.3022"/>
<polygon fill="#191970" stroke="#191970" points="920.5011,-24.7948 930.9641,-23.1287 921.7458,-17.9063 920.5011,-24.7948"/>
</g>
<!-- Node869 -->
<g id="node10" class="node">
<title>Node869</title>
<g id="a_node10"><a xlink:href="../../df/d13/anglestransform_8qc.html#a0fdbb008cb55b09916473e7c05b0dfcc" target="_top" xlink:title="AnglesTransform_Multiply\l_GetPostShift">
<polygon fill="none" stroke="#000000" points="585,-56.7798 585,-86.7798 728,-86.7798 728,-56.7798 585,-56.7798"/>
<text text-anchor="start" x="593" y="-74.7798" font-family="Helvetica,sans-Serif" font-size="10.00" fill="#000000">AnglesTransform_Multiply</text>
<text text-anchor="middle" x="656.5" y="-63.7798" font-family="Helvetica,sans-Serif" font-size="10.00" fill="#000000">_GetPostShift</text>
</a>
</g>
</g>
<!-- Node865&#45;&gt;Node869 -->
<g id="edge10" class="edge">
<title>Node865&#45;&gt;Node869</title>
<path fill="none" stroke="#191970" d="M529.5917,-57.3509C544.07,-58.997 559.5494,-60.757 574.5434,-62.4617"/>
<polygon fill="#191970" stroke="#191970" points="574.4965,-65.9788 584.8279,-63.631 575.2874,-59.0237 574.4965,-65.9788"/>
</g>
<!-- Node867 -->
<g id="node8" class="node">
<title>Node867</title>
<g id="a_node8"><a xlink:href="../../df/d13/anglestransform_8qc.html#a6eef2b5d1dcd28a89fa2ab3146011775" target="_top" xlink:title="AnglesTransform_Apply">
<polygon fill="none" stroke="#000000" points="764,-56.2798 764,-75.2798 895,-75.2798 895,-56.2798 764,-56.2798"/>
<text text-anchor="middle" x="829.5" y="-63.2798" font-family="Helvetica,sans-Serif" font-size="10.00" fill="#000000">AnglesTransform_Apply</text>
</a>
</g>
</g>
<!-- Node866&#45;&gt;Node867 -->
<g id="edge7" class="edge">
<title>Node866&#45;&gt;Node867</title>
<path fill="none" stroke="#191970" d="M700.1552,-37.3688C723.2929,-42.4511 751.9024,-48.7352 776.3268,-54.1001"/>
<polygon fill="#191970" stroke="#191970" points="775.6406,-57.5328 786.1587,-56.2597 777.1425,-50.6958 775.6406,-57.5328"/>
</g>
<!-- Node866&#45;&gt;Node868 -->
<g id="edge9" class="edge">
<title>Node866&#45;&gt;Node868</title>
<path fill="none" stroke="#191970" d="M728.2576,-27.7798C789.2923,-27.7798 874.2281,-27.7798 920.7352,-27.7798"/>
<polygon fill="#191970" stroke="#191970" points="920.8742,-31.2799 930.8742,-27.7798 920.8741,-24.2799 920.8742,-31.2799"/>
</g>
<!-- Node867&#45;&gt;Node868 -->
<g id="edge8" class="edge">
<title>Node867&#45;&gt;Node868</title>
<path fill="none" stroke="#191970" d="M861.0428,-56.1908C879.4347,-50.5996 902.6115,-43.5539 921.2832,-37.8777"/>
<polygon fill="#191970" stroke="#191970" points="922.3102,-41.2237 930.8599,-34.9664 920.2742,-34.5263 922.3102,-41.2237"/>
</g>
<!-- Node869&#45;&gt;Node867 -->
<g id="edge11" class="edge">
<title>Node869&#45;&gt;Node867</title>
<path fill="none" stroke="#191970" d="M728.1145,-69.296C736.5074,-69.0049 745.0931,-68.7072 753.5425,-68.4141"/>
<polygon fill="#191970" stroke="#191970" points="753.8867,-71.9044 763.7593,-68.0598 753.644,-64.9086 753.8867,-71.9044"/>
</g>
</g>
</svg>
        <g id="navigator" transform="translate(0 0)" fill="#404254">
                <rect fill="#f2f5e9" fill-opacity="0.5" stroke="#606060" stroke-width=".5" x="0" y="0" width="60" height="60"/>
                <use id="zoomplus" xlink:href="#zoomPlus" x="17" y="9" onmousedown="handleZoom(evt,'in')"/>
                <use id="zoomminus" xlink:href="#zoomMin" x="42" y="9" onmousedown="handleZoom(evt,'out')"/>
                <use id="reset" xlink:href="#resetDef" x="30" y="36" onmousedown="handleReset()"/>
                <g id="arrowUp" xlink:href="#dirArrow" transform="translate(30 24)" onmousedown="handlePan(0,-1)">
                  <use xlink:href="#rim" fill="#404040">
                        <set attributeName="fill" to="#808080" begin="arrowUp.mouseover" end="arrowUp.mouseout"/>
                  </use>
                  <path fill="none" stroke="white" stroke-width="1.5" d="M0,-3.0v7 M-2.5,-0.5L0,-3.0L2.5,-0.5"/>
                </g>
                <g id="arrowRight" xlink:href="#dirArrow" transform="rotate(90) translate(36 -43)" onmousedown="handlePan(1,0)">
                  <use xlink:href="#rim" fill="#404040">
                        <set attributeName="fill" to="#808080" begin="arrowRight.mouseover" end="arrowRight.mouseout"/>
                  </use>
                  <path fill="none" stroke="white" stroke-width="1.5" d="M0,-3.0v7 M-2.5,-0.5L0,-3.0L2.5,-0.5"/>
                </g>
                <g id="arrowDown" xlink:href="#dirArrow" transform="rotate(180) translate(-30 -48)" onmousedown="handlePan(0,1)">
                  <use xlink:href="#rim" fill="#404040">
                        <set attributeName="fill" to="#808080" begin="arrowDown.mouseover" end="arrowDown.mouseout"/>
                  </use>
                  <path fill="none" stroke="white" stroke-width="1.5" d="M0,-3.0v7 M-2.5,-0.5L0,-3.0L2.5,-0.5"/>
                </g>
                <g id="arrowLeft" xlink:href="#dirArrow" transform="rotate(270) translate(-36 17)" onmousedown="handlePan(-1,0)">
                  <use xlink:href="#rim" fill="#404040">
                        <set attributeName="fill" to="#808080" begin="arrowLeft.mouseover" end="arrowLeft.mouseout"/>
                  </use>
                  <path fill="none" stroke="white" stroke-width="1.5" d="M0,-3.0v7 M-2.5,-0.5L0,-3.0L2.5,-0.5"/>
                </g>
        </g>
        <svg viewBox="0 0 15 15" width="100%" height="30px" preserveAspectRatio="xMaxYMin meet">
         <g id="arrow_out" transform="scale(0.3 0.3)">
          <a xlink:href="lib_2warpzone_2common_8qc_a11b3824974fbada338b4128822e78c90_cgraph_org.svg" target="_base">
           <rect id="button" ry="5" rx="5" y="6" x="6" height="38" width="38"
                fill="#f2f5e9" fill-opacity="0.5" stroke="#606060" stroke-width="1.0"/>
           <path id="arrow"
             d="M 11.500037,31.436501 C 11.940474,20.09759 22.043105,11.32322 32.158766,21.979434 L 37.068811,17.246167 C 37.068811,17.246167 37.088388,32 37.088388,32 L 22.160133,31.978069 C 22.160133,31.978069 26.997745,27.140456 26.997745,27.140456 C 18.528582,18.264221 13.291696,25.230495 11.500037,31.436501 z"
             style="fill:#404040;"/>
          </a>
         </g>
        </svg>
</svg>
