<?xml version="1.0" encoding="UTF-8" standalone="no"?>
<!DOCTYPE svg PUBLIC "-//W3C//DTD SVG 1.1//EN"
 "http://www.w3.org/Graphics/SVG/1.1/DTD/svg11.dtd">
<!-- Generated by graphviz version 2.36.0 (20140111.2315)
 -->
<!-- Title: WarpZoneLib_BoxTouchesBrush Pages: 1 -->
<svg width="478pt" height="66pt"
 viewBox="0.00 0.00 478.00 66.00" xmlns="http://www.w3.org/2000/svg" xmlns:xlink="http://www.w3.org/1999/xlink">
<g id="graph0" class="graph" transform="scale(1 1) rotate(0) translate(4 62)">
<title>WarpZoneLib_BoxTouchesBrush</title>
<!-- Node1 -->
<g id="node1" class="node"><title>Node1</title>
<polygon fill="#bfbfbf" stroke="black" points="0,-19.5 0,-38.5 160,-38.5 160,-19.5 0,-19.5"/>
<text text-anchor="middle" x="80" y="-26.5" font-family="Helvetica,sans-Serif" font-size="10.00">WarpZoneLib_BoxTouchesBrush</text>
</g>
<!-- Node2 -->
<g id="node2" class="node"><title>Node2</title>
<g id="a_node2"><a xlink:href="../../d1/d6a/lib_2warpzone_2common_8qc.html#a4a0631162e93630a6ea1d1f7b7b33329" target="_top" xlink:title="WarpZoneLib_BoxTouchesBrush\l_Recurse">
<polygon fill="none" stroke="black" points="196,-14 196,-44 356,-44 356,-14 196,-14"/>
<text text-anchor="start" x="204" y="-32" font-family="Helvetica,sans-Serif" font-size="10.00">WarpZoneLib_BoxTouchesBrush</text>
<text text-anchor="middle" x="276" y="-21" font-family="Helvetica,sans-Serif" font-size="10.00">_Recurse</text>
</a>
</g>
</g>
<!-- Node1&#45;&gt;Node2 -->
<g id="edge1" class="edge"><title>Node1&#45;&gt;Node2</title>
<path fill="none" stroke="midnightblue" d="M160.187,-29C168.529,-29 177.054,-29 185.502,-29"/>
<polygon fill="midnightblue" stroke="midnightblue" points="185.752,-32.5001 195.752,-29 185.752,-25.5001 185.752,-32.5001"/>
</g>
<!-- Node3 -->
<g id="node3" class="node"><title>Node3</title>
<g id="a_node3"><a xlink:href="../../d4/d0c/csprogsdefs_8qc.html#acbb54a239d76062465dccbc6a6c6e464" target="_top" xlink:title="entity">
<polygon fill="none" stroke="black" points="410.5,-38.5 410.5,-57.5 451.5,-57.5 451.5,-38.5 410.5,-38.5"/>
<text text-anchor="middle" x="431" y="-45.5" font-family="Helvetica,sans-Serif" font-size="10.00">entity</text>
</a>
</g>
</g>
<!-- Node2&#45;&gt;Node3 -->
<g id="edge2" class="edge"><title>Node2&#45;&gt;Node3</title>
<path fill="none" stroke="midnightblue" d="M356.189,-38.8339C371.911,-40.7864 387.482,-42.72 400.241,-44.3044"/>
<polygon fill="midnightblue" stroke="midnightblue" points="399.883,-47.7868 410.238,-45.5459 400.745,-40.8401 399.883,-47.7868"/>
</g>
<!-- Node4 -->
<g id="node4" class="node"><title>Node4</title>
<g id="a_node4"><a xlink:href="../../d1/d07/framework_8qc.html#aef346455b3c2def821423a45227b45dd" target="_top" xlink:title="LOG_TRACE">
<polygon fill="none" stroke="black" points="392.5,-0.5 392.5,-19.5 469.5,-19.5 469.5,-0.5 392.5,-0.5"/>
<text text-anchor="middle" x="431" y="-7.5" font-family="Helvetica,sans-Serif" font-size="10.00">LOG_TRACE</text>
</a>
</g>
</g>
<!-- Node2&#45;&gt;Node4 -->
<g id="edge3" class="edge"><title>Node2&#45;&gt;Node4</title>
<path fill="none" stroke="midnightblue" d="M356.189,-19.1661C365.007,-18.071 373.778,-16.9818 382.031,-15.9569"/>
<polygon fill="midnightblue" stroke="midnightblue" points="382.681,-19.4032 392.174,-14.6974 381.818,-12.4565 382.681,-19.4032"/>
</g>
</g>
</svg>
