<?xml version="1.0" encoding="UTF-8" standalone="no"?>
<!DOCTYPE svg PUBLIC "-//W3C//DTD SVG 1.1//EN"
 "http://www.w3.org/Graphics/SVG/1.1/DTD/svg11.dtd">
<!-- Generated by graphviz version 2.38.0 (20140413.2041)
 -->
<!-- Title: textShortenToWidth Pages: 1 -->
<svg width="636pt" height="218pt"
 viewBox="0.00 0.00 636.00 218.00" xmlns="http://www.w3.org/2000/svg" xmlns:xlink="http://www.w3.org/1999/xlink">
<g id="graph0" class="graph" transform="scale(1 1) rotate(0) translate(4 214)">
<title>textShortenToWidth</title>
<!-- Node1 -->
<g id="node1" class="node"><title>Node1</title>
<polygon fill="#bfbfbf" stroke="black" points="0,-152.5 0,-171.5 110,-171.5 110,-152.5 0,-152.5"/>
<text text-anchor="middle" x="55" y="-159.5" font-family="Helvetica,sans-Serif" font-size="10.00">textShortenToWidth</text>
</g>
<!-- Node2 -->
<g id="node2" class="node"><title>Node2</title>
<g id="a_node2"><a xlink:href="../../d9/d09/notifications_2all_8inc.html#ad04f6b1a4889674503c3cdad58c55da1" target="_top" xlink:title="strcat">
<polygon fill="none" stroke="black" points="183,-190.5 183,-209.5 227,-209.5 227,-190.5 183,-190.5"/>
<text text-anchor="middle" x="205" y="-197.5" font-family="Helvetica,sans-Serif" font-size="10.00">strcat</text>
</a>
</g>
</g>
<!-- Node1&#45;&gt;Node2 -->
<g id="edge1" class="edge"><title>Node1&#45;&gt;Node2</title>
<path fill="none" stroke="midnightblue" d="M93.3466,-171.589C117.852,-177.881 149.532,-186.015 172.711,-191.966"/>
<polygon fill="midnightblue" stroke="midnightblue" points="172.15,-195.436 182.707,-194.533 173.891,-188.656 172.15,-195.436"/>
</g>
<!-- Node3 -->
<g id="node3" class="node"><title>Node3</title>
<g id="a_node3"><a xlink:href="../../d8/de2/menudefs_8qc.html#a40f6c65c8bbcfa51df783f2809a2502b" target="_top" xlink:title="substring">
<polygon fill="none" stroke="black" points="567,-95.5 567,-114.5 628,-114.5 628,-95.5 567,-95.5"/>
<text text-anchor="middle" x="597.5" y="-102.5" font-family="Helvetica,sans-Serif" font-size="10.00">substring</text>
</a>
</g>
</g>
<!-- Node1&#45;&gt;Node3 -->
<g id="edge2" class="edge"><title>Node1&#45;&gt;Node3</title>
<path fill="none" stroke="midnightblue" d="M110.201,-160.827C198.84,-158.178 380.062,-149.696 531,-123 539.514,-121.494 548.523,-119.375 557.046,-117.116"/>
<polygon fill="midnightblue" stroke="midnightblue" points="558.061,-120.467 566.768,-114.43 556.197,-113.72 558.061,-120.467"/>
</g>
<!-- Node4 -->
<g id="node4" class="node"><title>Node4</title>
<g id="a_node4"><a xlink:href="../../da/d44/common_2util_8qc.html#ab6502642132678c20db7fd26c09ddcf0" target="_top" xlink:title="textLengthUpToWidth">
<polygon fill="none" stroke="black" points="146,-76.5 146,-95.5 264,-95.5 264,-76.5 146,-76.5"/>
<text text-anchor="middle" x="205" y="-83.5" font-family="Helvetica,sans-Serif" font-size="10.00">textLengthUpToWidth</text>
</a>
</g>
</g>
<!-- Node1&#45;&gt;Node4 -->
<g id="edge3" class="edge"><title>Node1&#45;&gt;Node4</title>
<path fill="none" stroke="midnightblue" d="M74.7443,-152.375C100.433,-139.183 146.761,-115.393 176.414,-100.166"/>
<polygon fill="midnightblue" stroke="midnightblue" points="178.111,-103.229 185.408,-95.5473 174.913,-97.0019 178.111,-103.229"/>
</g>
<!-- Node4&#45;&gt;Node3 -->
<g id="edge10" class="edge"><title>Node4&#45;&gt;Node3</title>
<path fill="none" stroke="midnightblue" d="M244.154,-95.5098C261.134,-99.2748 281.445,-103.144 300,-105 391.616,-114.166 499.953,-110.524 556.921,-107.496"/>
<polygon fill="midnightblue" stroke="midnightblue" points="557.153,-110.989 566.944,-106.942 556.766,-104 557.153,-110.989"/>
</g>
<!-- Node5 -->
<g id="node5" class="node"><title>Node5</title>
<g id="a_node5"><a xlink:href="../../d8/de2/menudefs_8qc.html#ad5a3e16aa960bd72d3ca37a618eea802" target="_top" xlink:title="floor">
<polygon fill="none" stroke="black" points="333,-76.5 333,-95.5 371,-95.5 371,-76.5 333,-76.5"/>
<text text-anchor="middle" x="352" y="-83.5" font-family="Helvetica,sans-Serif" font-size="10.00">floor</text>
</a>
</g>
</g>
<!-- Node4&#45;&gt;Node5 -->
<g id="edge4" class="edge"><title>Node4&#45;&gt;Node5</title>
<path fill="none" stroke="midnightblue" d="M264.142,-86C284.307,-86 306.016,-86 322.686,-86"/>
<polygon fill="midnightblue" stroke="midnightblue" points="322.847,-89.5001 332.847,-86 322.847,-82.5001 322.847,-89.5001"/>
</g>
<!-- Node6 -->
<g id="node6" class="node"><title>Node6</title>
<g id="a_node6"><a xlink:href="../../da/d44/common_2util_8qc.html#a0213b116f3e8b8deecdae1cfbf0c3482" target="_top" xlink:title="skipIncompleteTag">
<polygon fill="none" stroke="black" points="300,-38.5 300,-57.5 404,-57.5 404,-38.5 300,-38.5"/>
<text text-anchor="middle" x="352" y="-45.5" font-family="Helvetica,sans-Serif" font-size="10.00">skipIncompleteTag</text>
</a>
</g>
</g>
<!-- Node4&#45;&gt;Node6 -->
<g id="edge5" class="edge"><title>Node4&#45;&gt;Node6</title>
<path fill="none" stroke="midnightblue" d="M242.59,-76.411C261.465,-71.4642 284.686,-65.3789 304.788,-60.1108"/>
<polygon fill="midnightblue" stroke="midnightblue" points="305.887,-63.4409 314.673,-57.5201 304.113,-56.6695 305.887,-63.4409"/>
</g>
<!-- Node8 -->
<g id="node8" class="node"><title>Node8</title>
<g id="a_node8"><a xlink:href="../../d8/de2/menudefs_8qc.html#a274680f571a231ddf29421b93d434bfa" target="_top" xlink:title="strlen">
<polygon fill="none" stroke="black" points="330,-0.5 330,-19.5 374,-19.5 374,-0.5 330,-0.5"/>
<text text-anchor="middle" x="352" y="-7.5" font-family="Helvetica,sans-Serif" font-size="10.00">strlen</text>
</a>
</g>
</g>
<!-- Node4&#45;&gt;Node8 -->
<g id="edge9" class="edge"><title>Node4&#45;&gt;Node8</title>
<path fill="none" stroke="midnightblue" d="M219.864,-76.4471C237.802,-64.3599 270.282,-43.3871 300,-29 306.4,-25.9018 313.444,-22.9834 320.2,-20.4067"/>
<polygon fill="midnightblue" stroke="midnightblue" points="321.599,-23.6216 329.785,-16.8949 319.191,-17.0488 321.599,-23.6216"/>
</g>
<!-- Node6&#45;&gt;Node3 -->
<g id="edge8" class="edge"><title>Node6&#45;&gt;Node3</title>
<path fill="none" stroke="midnightblue" d="M393.756,-57.5405C439.099,-68.1547 511.872,-85.1898 556.789,-95.7041"/>
<polygon fill="midnightblue" stroke="midnightblue" points="556.217,-99.1649 566.752,-98.0363 557.813,-92.3491 556.217,-99.1649"/>
</g>
<!-- Node7 -->
<g id="node7" class="node"><title>Node7</title>
<g id="a_node7"><a xlink:href="../../da/d44/common_2util_8qc.html#a982fd634e013860a72d17598569dfa5b" target="_top" xlink:title="isCaretEscaped">
<polygon fill="none" stroke="black" points="440,-38.5 440,-57.5 531,-57.5 531,-38.5 440,-38.5"/>
<text text-anchor="middle" x="485.5" y="-45.5" font-family="Helvetica,sans-Serif" font-size="10.00">isCaretEscaped</text>
</a>
</g>
</g>
<!-- Node6&#45;&gt;Node7 -->
<g id="edge6" class="edge"><title>Node6&#45;&gt;Node7</title>
<path fill="none" stroke="midnightblue" d="M404.218,-48C412.524,-48 421.155,-48 429.545,-48"/>
<polygon fill="midnightblue" stroke="midnightblue" points="429.622,-51.5001 439.622,-48 429.622,-44.5001 429.622,-51.5001"/>
</g>
<!-- Node7&#45;&gt;Node3 -->
<g id="edge7" class="edge"><title>Node7&#45;&gt;Node3</title>
<path fill="none" stroke="midnightblue" d="M505.16,-57.6693C522.728,-66.7727 549.25,-80.5157 569.195,-90.8513"/>
<polygon fill="midnightblue" stroke="midnightblue" points="567.626,-93.9802 578.116,-95.4735 570.847,-87.7651 567.626,-93.9802"/>
</g>
</g>
</svg>
