<?xml version="1.0" encoding="UTF-8" standalone="no"?>
<!DOCTYPE svg PUBLIC "-//W3C//DTD SVG 1.1//EN"
 "http://www.w3.org/Graphics/SVG/1.1/DTD/svg11.dtd">
<!-- Generated by graphviz version 2.38.0 (20140413.2041)
 -->
<!-- Title: cvar_settemp Pages: 1 -->
<svg width="314pt" height="218pt"
 viewBox="0.00 0.00 314.00 218.00" xmlns="http://www.w3.org/2000/svg" xmlns:xlink="http://www.w3.org/1999/xlink">
<g id="graph0" class="graph" transform="scale(1 1) rotate(0) translate(4 214)">
<title>cvar_settemp</title>
<!-- Node1 -->
<g id="node1" class="node"><title>Node1</title>
<polygon fill="#bfbfbf" stroke="black" points="0,-95.5 0,-114.5 83,-114.5 83,-95.5 0,-95.5"/>
<text text-anchor="middle" x="41.5" y="-102.5" font-family="Helvetica,sans-Serif" font-size="10.00">cvar_settemp</text>
</g>
<!-- Node2 -->
<g id="node2" class="node"><title>Node2</title>
<g id="a_node2"><a xlink:href="../../d8/de2/menudefs_8qc.html#a0b350379da8a7002dee40a3598bf33c3" target="_top" xlink:title="cvar_set">
<polygon fill="none" stroke="black" points="126.5,-190.5 126.5,-209.5 183.5,-209.5 183.5,-190.5 126.5,-190.5"/>
<text text-anchor="middle" x="155" y="-197.5" font-family="Helvetica,sans-Serif" font-size="10.00">cvar_set</text>
</a>
</g>
</g>
<!-- Node1&#45;&gt;Node2 -->
<g id="edge1" class="edge"><title>Node1&#45;&gt;Node2</title>
<path fill="none" stroke="midnightblue" d="M50.692,-114.774C63.9351,-130.171 91.3646,-160.436 119,-181 121.038,-182.517 123.213,-183.99 125.442,-185.4"/>
<polygon fill="midnightblue" stroke="midnightblue" points="123.743,-188.461 134.142,-190.49 127.278,-182.419 123.743,-188.461"/>
</g>
<!-- Node3 -->
<g id="node3" class="node"><title>Node3</title>
<g id="a_node3"><a xlink:href="../../d8/de2/menudefs_8qc.html#a6f8c7ef6ee4a4d851aaa5fd1789eab9a" target="_top" xlink:title="cvar_string">
<polygon fill="none" stroke="black" points="120.5,-152.5 120.5,-171.5 189.5,-171.5 189.5,-152.5 120.5,-152.5"/>
<text text-anchor="middle" x="155" y="-159.5" font-family="Helvetica,sans-Serif" font-size="10.00">cvar_string</text>
</a>
</g>
</g>
<!-- Node1&#45;&gt;Node3 -->
<g id="edge2" class="edge"><title>Node1&#45;&gt;Node3</title>
<path fill="none" stroke="midnightblue" d="M61.1626,-114.541C78.9309,-123.624 105.898,-137.41 126.197,-147.787"/>
<polygon fill="midnightblue" stroke="midnightblue" points="124.779,-150.993 135.277,-152.428 127.966,-144.76 124.779,-150.993"/>
</g>
<!-- Node4 -->
<g id="node4" class="node"><title>Node4</title>
<g id="a_node4"><a xlink:href="../../d4/d0c/csprogsdefs_8qc.html#acbb54a239d76062465dccbc6a6c6e464" target="_top" xlink:title="entity">
<polygon fill="none" stroke="black" points="244.5,-114.5 244.5,-133.5 288.5,-133.5 288.5,-114.5 244.5,-114.5"/>
<text text-anchor="middle" x="266.5" y="-121.5" font-family="Helvetica,sans-Serif" font-size="10.00">entity</text>
</a>
</g>
</g>
<!-- Node1&#45;&gt;Node4 -->
<g id="edge3" class="edge"><title>Node1&#45;&gt;Node4</title>
<path fill="none" stroke="midnightblue" d="M83.1423,-108.463C126.641,-112.169 194.707,-117.968 234.217,-121.335"/>
<polygon fill="midnightblue" stroke="midnightblue" points="234.063,-124.834 244.324,-122.196 234.657,-117.859 234.063,-124.834"/>
</g>
<!-- Node5 -->
<g id="node5" class="node"><title>Node5</title>
<g id="a_node5"><a xlink:href="../../d9/d51/intrusivelist_8qh.html#a1dc3261f72901c53357b5e01d94cb556" target="_top" xlink:title="Push to tail. ">
<polygon fill="none" stroke="black" points="126.5,-76.5 126.5,-95.5 183.5,-95.5 183.5,-76.5 126.5,-76.5"/>
<text text-anchor="middle" x="155" y="-83.5" font-family="Helvetica,sans-Serif" font-size="10.00">IL_PUSH</text>
</a>
</g>
</g>
<!-- Node1&#45;&gt;Node5 -->
<g id="edge4" class="edge"><title>Node1&#45;&gt;Node5</title>
<path fill="none" stroke="midnightblue" d="M83.0695,-98.0868C93.9224,-96.2374 105.606,-94.2465 116.297,-92.4247"/>
<polygon fill="midnightblue" stroke="midnightblue" points="116.914,-95.8701 126.184,-90.7399 115.738,-88.9696 116.914,-95.8701"/>
</g>
<!-- Node7 -->
<g id="node7" class="node"><title>Node7</title>
<g id="a_node7"><a xlink:href="../../d1/d07/framework_8qc.html#aef346455b3c2def821423a45227b45dd" target="_top" xlink:title="LOG_TRACE">
<polygon fill="none" stroke="black" points="119,-38.5 119,-57.5 191,-57.5 191,-38.5 119,-38.5"/>
<text text-anchor="middle" x="155" y="-45.5" font-family="Helvetica,sans-Serif" font-size="10.00">LOG_TRACE</text>
</a>
</g>
</g>
<!-- Node1&#45;&gt;Node7 -->
<g id="edge7" class="edge"><title>Node1&#45;&gt;Node7</title>
<path fill="none" stroke="midnightblue" d="M61.1626,-95.4595C78.9309,-86.3761 105.898,-72.5904 126.197,-62.2133"/>
<polygon fill="midnightblue" stroke="midnightblue" points="127.966,-65.2399 135.277,-57.5716 124.779,-59.0071 127.966,-65.2399"/>
</g>
<!-- Node8 -->
<g id="node8" class="node"><title>Node8</title>
<g id="a_node8"><a xlink:href="../../d8/de2/menudefs_8qc.html#ae06db7c87845d853670a09a1d487b1db" target="_top" xlink:title="strzone">
<polygon fill="none" stroke="black" points="128.5,-0.5 128.5,-19.5 181.5,-19.5 181.5,-0.5 128.5,-0.5"/>
<text text-anchor="middle" x="155" y="-7.5" font-family="Helvetica,sans-Serif" font-size="10.00">strzone</text>
</a>
</g>
</g>
<!-- Node1&#45;&gt;Node8 -->
<g id="edge8" class="edge"><title>Node1&#45;&gt;Node8</title>
<path fill="none" stroke="midnightblue" d="M50.692,-95.2264C63.9351,-79.8291 91.3646,-49.5642 119,-29 121.038,-27.4831 123.213,-26.0102 125.442,-24.5999"/>
<polygon fill="midnightblue" stroke="midnightblue" points="127.278,-27.581 134.142,-19.5102 123.743,-21.5391 127.278,-27.581"/>
</g>
<!-- Node5&#45;&gt;Node4 -->
<g id="edge6" class="edge"><title>Node5&#45;&gt;Node4</title>
<path fill="none" stroke="midnightblue" d="M183.631,-95.589C199.267,-101.015 218.849,-107.811 234.942,-113.395"/>
<polygon fill="midnightblue" stroke="midnightblue" points="233.849,-116.721 244.444,-116.693 236.144,-110.108 233.849,-116.721"/>
</g>
<!-- Node6 -->
<g id="node6" class="node"><title>Node6</title>
<g id="a_node6"><a xlink:href="../../d9/d51/intrusivelist_8qh.html#a385bb2612b4fc3e23b299195944d8925" target="_top" xlink:title="IL_CONTAINS">
<polygon fill="none" stroke="black" points="227,-76.5 227,-95.5 306,-95.5 306,-76.5 227,-76.5"/>
<text text-anchor="middle" x="266.5" y="-83.5" font-family="Helvetica,sans-Serif" font-size="10.00">IL_CONTAINS</text>
</a>
</g>
</g>
<!-- Node5&#45;&gt;Node6 -->
<g id="edge5" class="edge"><title>Node5&#45;&gt;Node6</title>
<path fill="none" stroke="midnightblue" d="M183.631,-86C193.624,-86 205.229,-86 216.504,-86"/>
<polygon fill="midnightblue" stroke="midnightblue" points="216.711,-89.5001 226.711,-86 216.711,-82.5001 216.711,-89.5001"/>
</g>
</g>
</svg>
