<?xml version="1.0" encoding="UTF-8" standalone="no"?>
<!DOCTYPE svg PUBLIC "-//W3C//DTD SVG 1.1//EN"
 "http://www.w3.org/Graphics/SVG/1.1/DTD/svg11.dtd">
<!-- Generated by graphviz version 2.38.0 (20140413.2041)
 -->
<!-- Title: common/weapons/weapon/_mod.qh Pages: 1 -->
<!--zoomable 106 -->
<svg id="main" version="1.1" xmlns="http://www.w3.org/2000/svg" xmlns:xlink="http://www.w3.org/1999/xlink" xml:space="preserve" onload="init(evt)">
<style type="text/css"><![CDATA[
.edge:hover path { stroke: red; }
.edge:hover polygon { stroke: red; fill: red; }
]]></style>
<script type="text/javascript"><![CDATA[
var edges = document.getElementsByTagName('g');
if (edges && edges.length) {
  for (var i=0;i<edges.length;i++) {
    if (edges[i].id.substr(0,4)=='edge') {
      edges[i].setAttribute('class','edge');
    }
  }
}
]]></script>
        <defs>
                <circle id="rim" cx="0" cy="0" r="7"/>
                <circle id="rim2" cx="0" cy="0" r="3.5"/>
                <g id="zoomPlus">
                        <use xlink:href="#rim" fill="#404040">
                                <set attributeName="fill" to="#808080" begin="zoomplus.mouseover" end="zoomplus.mouseout"/>
                        </use>
                        <path d="M-4,0h8M0,-4v8" fill="none" stroke="white" stroke-width="1.5" pointer-events="none"/>
                </g>
                <g id="zoomMin">
                        <use xlink:href="#rim" fill="#404040">
                                <set attributeName="fill" to="#808080" begin="zoomminus.mouseover" end="zoomminus.mouseout"/>
                        </use>
                        <path d="M-4,0h8" fill="none" stroke="white" stroke-width="1.5" pointer-events="none"/>
                </g>
                <g id="dirArrow">
                        <path fill="none" stroke="white" stroke-width="1.5" d="M0,-3.0v7 M-2.5,-0.5L0,-3.0L2.5,-0.5"/>
                </g>
               <g id="resetDef">
                       <use xlink:href="#rim2" fill="#404040">
                               <set attributeName="fill" to="#808080" begin="reset.mouseover" end="reset.mouseout"/>
                       </use>
               </g>
        </defs>

<script type="text/javascript">
var viewWidth = 3230;
var viewHeight = 106;
var sectionId = 'dynsection-0';
</script>
<script xlink:href="../../svgpan.js"/>
<svg id="graph" class="graph">
<g id="viewport">
<title>common/weapons/weapon/_mod.qh</title>
<!-- Node1 -->
<g id="node1" class="node"><title>Node1</title>
<polygon fill="#bfbfbf" stroke="black" points="1539,-67.5 1539,-97.5 1683,-97.5 1683,-67.5 1539,-67.5"/>
<text text-anchor="start" x="1547" y="-85.5" font-family="Helvetica,sans-Serif" font-size="10.00">common/weapons/weapon</text>
<text text-anchor="middle" x="1611" y="-74.5" font-family="Helvetica,sans-Serif" font-size="10.00">/_mod.qh</text>
</g>
<!-- Node2 -->
<g id="node2" class="node"><title>Node2</title>
<g id="a_node2"><a xlink:href="../../de/d5b/arc_8qh.html" target="_top" xlink:title="common/weapons/weapon\l/arc.qh">
<polygon fill="none" stroke="black" points="0,-0.5 0,-30.5 144,-30.5 144,-0.5 0,-0.5"/>
<text text-anchor="start" x="8" y="-18.5" font-family="Helvetica,sans-Serif" font-size="10.00">common/weapons/weapon</text>
<text text-anchor="middle" x="72" y="-7.5" font-family="Helvetica,sans-Serif" font-size="10.00">/arc.qh</text>
</a>
</g>
</g>
<!-- Node1&#45;&gt;Node2 -->
<g id="edge1" class="edge"><title>Node1&#45;&gt;Node2</title>
<path fill="none" stroke="midnightblue" d="M1538.82,-80.3631C1286.85,-76.1836 446.284,-60.4174 154.497,-31.0296"/>
<polygon fill="midnightblue" stroke="midnightblue" points="154.658,-27.5277 144.35,-29.9785 153.936,-34.4904 154.658,-27.5277"/>
</g>
<!-- Node3 -->
<g id="node3" class="node"><title>Node3</title>
<g id="a_node3"><a xlink:href="../../d6/d80/blaster_8qh.html" target="_top" xlink:title="common/weapons/weapon\l/blaster.qh">
<polygon fill="none" stroke="black" points="162,-0.5 162,-30.5 306,-30.5 306,-0.5 162,-0.5"/>
<text text-anchor="start" x="170" y="-18.5" font-family="Helvetica,sans-Serif" font-size="10.00">common/weapons/weapon</text>
<text text-anchor="middle" x="234" y="-7.5" font-family="Helvetica,sans-Serif" font-size="10.00">/blaster.qh</text>
</a>
</g>
</g>
<!-- Node1&#45;&gt;Node3 -->
<g id="edge2" class="edge"><title>Node1&#45;&gt;Node3</title>
<path fill="none" stroke="midnightblue" d="M1538.74,-82.176C1343.17,-83.2578 787.173,-81.3785 316.409,-31.0469"/>
<polygon fill="midnightblue" stroke="midnightblue" points="316.669,-27.5548 306.352,-29.9628 315.919,-34.5145 316.669,-27.5548"/>
</g>
<!-- Node4 -->
<g id="node4" class="node"><title>Node4</title>
<g id="a_node4"><a xlink:href="../../d5/d81/crylink_8qh.html" target="_top" xlink:title="common/weapons/weapon\l/crylink.qh">
<polygon fill="none" stroke="black" points="324,-0.5 324,-30.5 468,-30.5 468,-0.5 324,-0.5"/>
<text text-anchor="start" x="332" y="-18.5" font-family="Helvetica,sans-Serif" font-size="10.00">common/weapons/weapon</text>
<text text-anchor="middle" x="396" y="-7.5" font-family="Helvetica,sans-Serif" font-size="10.00">/crylink.qh</text>
</a>
</g>
</g>
<!-- Node1&#45;&gt;Node4 -->
<g id="edge3" class="edge"><title>Node1&#45;&gt;Node4</title>
<path fill="none" stroke="midnightblue" d="M1538.77,-81.5981C1360.32,-81.1272 884.302,-75.5278 478.528,-31.0673"/>
<polygon fill="midnightblue" stroke="midnightblue" points="478.678,-27.5626 468.354,-29.9427 477.909,-34.5203 478.678,-27.5626"/>
</g>
<!-- Node5 -->
<g id="node5" class="node"><title>Node5</title>
<g id="a_node5"><a xlink:href="../../d9/dfa/devastator_8qh.html" target="_top" xlink:title="common/weapons/weapon\l/devastator.qh">
<polygon fill="none" stroke="black" points="486,-0.5 486,-30.5 630,-30.5 630,-0.5 486,-0.5"/>
<text text-anchor="start" x="494" y="-18.5" font-family="Helvetica,sans-Serif" font-size="10.00">common/weapons/weapon</text>
<text text-anchor="middle" x="558" y="-7.5" font-family="Helvetica,sans-Serif" font-size="10.00">/devastator.qh</text>
</a>
</g>
</g>
<!-- Node1&#45;&gt;Node5 -->
<g id="edge4" class="edge"><title>Node1&#45;&gt;Node5</title>
<path fill="none" stroke="midnightblue" d="M1538.8,-80.8355C1378.71,-78.6939 981.755,-69.7003 640.439,-31.0675"/>
<polygon fill="midnightblue" stroke="midnightblue" points="640.69,-27.5735 630.357,-29.9159 639.895,-34.5283 640.69,-27.5735"/>
</g>
<!-- Node6 -->
<g id="node6" class="node"><title>Node6</title>
<g id="a_node6"><a xlink:href="../../df/d02/electro_8qh.html" target="_top" xlink:title="common/weapons/weapon\l/electro.qh">
<polygon fill="none" stroke="black" points="648,-0.5 648,-30.5 792,-30.5 792,-0.5 648,-0.5"/>
<text text-anchor="start" x="656" y="-18.5" font-family="Helvetica,sans-Serif" font-size="10.00">common/weapons/weapon</text>
<text text-anchor="middle" x="720" y="-7.5" font-family="Helvetica,sans-Serif" font-size="10.00">/electro.qh</text>
</a>
</g>
</g>
<!-- Node1&#45;&gt;Node6 -->
<g id="edge5" class="edge"><title>Node1&#45;&gt;Node6</title>
<path fill="none" stroke="midnightblue" d="M1538.96,-79.7845C1398.93,-75.8447 1080.12,-63.9162 802.63,-31.1045"/>
<polygon fill="midnightblue" stroke="midnightblue" points="802.706,-27.5888 792.362,-29.8784 801.876,-34.5394 802.706,-27.5888"/>
</g>
<!-- Node7 -->
<g id="node7" class="node"><title>Node7</title>
<g id="a_node7"><a xlink:href="../../d4/d8a/fireball_8qh.html" target="_top" xlink:title="common/weapons/weapon\l/fireball.qh">
<polygon fill="none" stroke="black" points="810,-0.5 810,-30.5 954,-30.5 954,-0.5 810,-0.5"/>
<text text-anchor="start" x="818" y="-18.5" font-family="Helvetica,sans-Serif" font-size="10.00">common/weapons/weapon</text>
<text text-anchor="middle" x="882" y="-7.5" font-family="Helvetica,sans-Serif" font-size="10.00">/fireball.qh</text>
</a>
</g>
</g>
<!-- Node1&#45;&gt;Node7 -->
<g id="edge6" class="edge"><title>Node1&#45;&gt;Node7</title>
<path fill="none" stroke="midnightblue" d="M1538.84,-78.2216C1420.8,-72.3418 1178.89,-58.1318 964.554,-31.1184"/>
<polygon fill="midnightblue" stroke="midnightblue" points="964.73,-27.6128 954.369,-29.8224 963.847,-34.5568 964.73,-27.6128"/>
</g>
<!-- Node8 -->
<g id="node8" class="node"><title>Node8</title>
<g id="a_node8"><a xlink:href="../../d7/dea/hagar_8qh.html" target="_top" xlink:title="common/weapons/weapon\l/hagar.qh">
<polygon fill="none" stroke="black" points="972,-0.5 972,-30.5 1116,-30.5 1116,-0.5 972,-0.5"/>
<text text-anchor="start" x="980" y="-18.5" font-family="Helvetica,sans-Serif" font-size="10.00">common/weapons/weapon</text>
<text text-anchor="middle" x="1044" y="-7.5" font-family="Helvetica,sans-Serif" font-size="10.00">/hagar.qh</text>
</a>
</g>
</g>
<!-- Node1&#45;&gt;Node8 -->
<g id="edge7" class="edge"><title>Node1&#45;&gt;Node8</title>
<path fill="none" stroke="midnightblue" d="M1538.75,-75.665C1445.69,-67.7752 1278.73,-52.3566 1126.39,-31.1355"/>
<polygon fill="midnightblue" stroke="midnightblue" points="1126.77,-27.6543 1116.38,-29.7294 1125.8,-34.5863 1126.77,-27.6543"/>
</g>
<!-- Node9 -->
<g id="node9" class="node"><title>Node9</title>
<g id="a_node9"><a xlink:href="../../d1/dd8/hlac_8qh.html" target="_top" xlink:title="common/weapons/weapon\l/hlac.qh">
<polygon fill="none" stroke="black" points="1134,-0.5 1134,-30.5 1278,-30.5 1278,-0.5 1134,-0.5"/>
<text text-anchor="start" x="1142" y="-18.5" font-family="Helvetica,sans-Serif" font-size="10.00">common/weapons/weapon</text>
<text text-anchor="middle" x="1206" y="-7.5" font-family="Helvetica,sans-Serif" font-size="10.00">/hlac.qh</text>
</a>
</g>
</g>
<!-- Node1&#45;&gt;Node9 -->
<g id="edge8" class="edge"><title>Node1&#45;&gt;Node9</title>
<path fill="none" stroke="midnightblue" d="M1538.86,-70.7319C1475.46,-61.1592 1380.43,-46.5476 1288.45,-31.2233"/>
<polygon fill="midnightblue" stroke="midnightblue" points="1288.85,-27.7415 1278.41,-29.5455 1287.7,-34.6458 1288.85,-27.7415"/>
</g>
<!-- Node10 -->
<g id="node10" class="node"><title>Node10</title>
<g id="a_node10"><a xlink:href="../../d9/d43/common_2weapons_2weapon_2hook_8qh.html" target="_top" xlink:title="common/weapons/weapon\l/hook.qh">
<polygon fill="none" stroke="black" points="1296,-0.5 1296,-30.5 1440,-30.5 1440,-0.5 1296,-0.5"/>
<text text-anchor="start" x="1304" y="-18.5" font-family="Helvetica,sans-Serif" font-size="10.00">common/weapons/weapon</text>
<text text-anchor="middle" x="1368" y="-7.5" font-family="Helvetica,sans-Serif" font-size="10.00">/hook.qh</text>
</a>
</g>
</g>
<!-- Node1&#45;&gt;Node10 -->
<g id="edge9" class="edge"><title>Node1&#45;&gt;Node10</title>
<path fill="none" stroke="midnightblue" d="M1558.57,-67.476C1521.01,-57.4297 1470.27,-43.8564 1430.59,-33.2418"/>
<polygon fill="midnightblue" stroke="midnightblue" points="1431.32,-29.8139 1420.75,-30.6109 1429.51,-36.5762 1431.32,-29.8139"/>
</g>
<!-- Node11 -->
<g id="node11" class="node"><title>Node11</title>
<g id="a_node11"><a xlink:href="../../dd/d19/weapons_2weapon_2machinegun_8qh.html" target="_top" xlink:title="common/weapons/weapon\l/machinegun.qh">
<polygon fill="none" stroke="black" points="1458,-0.5 1458,-30.5 1602,-30.5 1602,-0.5 1458,-0.5"/>
<text text-anchor="start" x="1466" y="-18.5" font-family="Helvetica,sans-Serif" font-size="10.00">common/weapons/weapon</text>
<text text-anchor="middle" x="1530" y="-7.5" font-family="Helvetica,sans-Serif" font-size="10.00">/machinegun.qh</text>
</a>
</g>
</g>
<!-- Node1&#45;&gt;Node11 -->
<g id="edge10" class="edge"><title>Node1&#45;&gt;Node11</title>
<path fill="none" stroke="midnightblue" d="M1593.42,-67.396C1582.39,-58.5375 1567.96,-46.9604 1555.65,-37.0861"/>
<polygon fill="midnightblue" stroke="midnightblue" points="1557.53,-34.1055 1547.54,-30.5765 1553.15,-39.565 1557.53,-34.1055"/>
</g>
<!-- Node12 -->
<g id="node12" class="node"><title>Node12</title>
<g id="a_node12"><a xlink:href="../../d0/d60/minelayer_8qh.html" target="_top" xlink:title="common/weapons/weapon\l/minelayer.qh">
<polygon fill="none" stroke="black" points="1620,-0.5 1620,-30.5 1764,-30.5 1764,-0.5 1620,-0.5"/>
<text text-anchor="start" x="1628" y="-18.5" font-family="Helvetica,sans-Serif" font-size="10.00">common/weapons/weapon</text>
<text text-anchor="middle" x="1692" y="-7.5" font-family="Helvetica,sans-Serif" font-size="10.00">/minelayer.qh</text>
</a>
</g>
</g>
<!-- Node1&#45;&gt;Node12 -->
<g id="edge11" class="edge"><title>Node1&#45;&gt;Node12</title>
<path fill="none" stroke="midnightblue" d="M1628.58,-67.396C1639.61,-58.5375 1654.04,-46.9604 1666.35,-37.0861"/>
<polygon fill="midnightblue" stroke="midnightblue" points="1668.85,-39.565 1674.46,-30.5765 1664.47,-34.1055 1668.85,-39.565"/>
</g>
<!-- Node13 -->
<g id="node13" class="node"><title>Node13</title>
<g id="a_node13"><a xlink:href="../../da/d5c/mortar_8qh.html" target="_top" xlink:title="common/weapons/weapon\l/mortar.qh">
<polygon fill="none" stroke="black" points="1782,-0.5 1782,-30.5 1926,-30.5 1926,-0.5 1782,-0.5"/>
<text text-anchor="start" x="1790" y="-18.5" font-family="Helvetica,sans-Serif" font-size="10.00">common/weapons/weapon</text>
<text text-anchor="middle" x="1854" y="-7.5" font-family="Helvetica,sans-Serif" font-size="10.00">/mortar.qh</text>
</a>
</g>
</g>
<!-- Node1&#45;&gt;Node13 -->
<g id="edge12" class="edge"><title>Node1&#45;&gt;Node13</title>
<path fill="none" stroke="midnightblue" d="M1663.43,-67.476C1700.99,-57.4297 1751.73,-43.8564 1791.41,-33.2418"/>
<polygon fill="midnightblue" stroke="midnightblue" points="1792.49,-36.5762 1801.25,-30.6109 1790.68,-29.8139 1792.49,-36.5762"/>
</g>
<!-- Node14 -->
<g id="node14" class="node"><title>Node14</title>
<g id="a_node14"><a xlink:href="../../db/de6/porto_8qh.html" target="_top" xlink:title="common/weapons/weapon\l/porto.qh">
<polygon fill="none" stroke="black" points="1944,-0.5 1944,-30.5 2088,-30.5 2088,-0.5 1944,-0.5"/>
<text text-anchor="start" x="1952" y="-18.5" font-family="Helvetica,sans-Serif" font-size="10.00">common/weapons/weapon</text>
<text text-anchor="middle" x="2016" y="-7.5" font-family="Helvetica,sans-Serif" font-size="10.00">/porto.qh</text>
</a>
</g>
</g>
<!-- Node1&#45;&gt;Node14 -->
<g id="edge13" class="edge"><title>Node1&#45;&gt;Node14</title>
<path fill="none" stroke="midnightblue" d="M1683.14,-70.7319C1746.54,-61.1592 1841.57,-46.5476 1933.55,-31.2233"/>
<polygon fill="midnightblue" stroke="midnightblue" points="1934.3,-34.6458 1943.59,-29.5455 1933.15,-27.7415 1934.3,-34.6458"/>
</g>
<!-- Node15 -->
<g id="node15" class="node"><title>Node15</title>
<g id="a_node15"><a xlink:href="../../dc/d24/rifle_8qh.html" target="_top" xlink:title="common/weapons/weapon\l/rifle.qh">
<polygon fill="none" stroke="black" points="2106,-0.5 2106,-30.5 2250,-30.5 2250,-0.5 2106,-0.5"/>
<text text-anchor="start" x="2114" y="-18.5" font-family="Helvetica,sans-Serif" font-size="10.00">common/weapons/weapon</text>
<text text-anchor="middle" x="2178" y="-7.5" font-family="Helvetica,sans-Serif" font-size="10.00">/rifle.qh</text>
</a>
</g>
</g>
<!-- Node1&#45;&gt;Node15 -->
<g id="edge14" class="edge"><title>Node1&#45;&gt;Node15</title>
<path fill="none" stroke="midnightblue" d="M1683.25,-75.665C1776.31,-67.7752 1943.27,-52.3566 2095.61,-31.1355"/>
<polygon fill="midnightblue" stroke="midnightblue" points="2096.2,-34.5863 2105.62,-29.7294 2095.23,-27.6543 2096.2,-34.5863"/>
</g>
<!-- Node16 -->
<g id="node16" class="node"><title>Node16</title>
<g id="a_node16"><a xlink:href="../../d2/d66/seeker_8qh.html" target="_top" xlink:title="common/weapons/weapon\l/seeker.qh">
<polygon fill="none" stroke="black" points="2268,-0.5 2268,-30.5 2412,-30.5 2412,-0.5 2268,-0.5"/>
<text text-anchor="start" x="2276" y="-18.5" font-family="Helvetica,sans-Serif" font-size="10.00">common/weapons/weapon</text>
<text text-anchor="middle" x="2340" y="-7.5" font-family="Helvetica,sans-Serif" font-size="10.00">/seeker.qh</text>
</a>
</g>
</g>
<!-- Node1&#45;&gt;Node16 -->
<g id="edge15" class="edge"><title>Node1&#45;&gt;Node16</title>
<path fill="none" stroke="midnightblue" d="M1683.16,-78.2216C1801.2,-72.3418 2043.11,-58.1318 2257.45,-31.1184"/>
<polygon fill="midnightblue" stroke="midnightblue" points="2258.15,-34.5568 2267.63,-29.8224 2257.27,-27.6128 2258.15,-34.5568"/>
</g>
<!-- Node17 -->
<g id="node17" class="node"><title>Node17</title>
<g id="a_node17"><a xlink:href="../../da/da6/shockwave_8qh.html" target="_top" xlink:title="common/weapons/weapon\l/shockwave.qh">
<polygon fill="none" stroke="black" points="2430,-0.5 2430,-30.5 2574,-30.5 2574,-0.5 2430,-0.5"/>
<text text-anchor="start" x="2438" y="-18.5" font-family="Helvetica,sans-Serif" font-size="10.00">common/weapons/weapon</text>
<text text-anchor="middle" x="2502" y="-7.5" font-family="Helvetica,sans-Serif" font-size="10.00">/shockwave.qh</text>
</a>
</g>
</g>
<!-- Node1&#45;&gt;Node17 -->
<g id="edge16" class="edge"><title>Node1&#45;&gt;Node17</title>
<path fill="none" stroke="midnightblue" d="M1683.04,-79.7845C1823.07,-75.8447 2141.88,-63.9162 2419.37,-31.1045"/>
<polygon fill="midnightblue" stroke="midnightblue" points="2420.12,-34.5394 2429.64,-29.8784 2419.29,-27.5888 2420.12,-34.5394"/>
</g>
<!-- Node18 -->
<g id="node18" class="node"><title>Node18</title>
<g id="a_node18"><a xlink:href="../../d3/d77/shotgun_8qh.html" target="_top" xlink:title="common/weapons/weapon\l/shotgun.qh">
<polygon fill="none" stroke="black" points="2592,-0.5 2592,-30.5 2736,-30.5 2736,-0.5 2592,-0.5"/>
<text text-anchor="start" x="2600" y="-18.5" font-family="Helvetica,sans-Serif" font-size="10.00">common/weapons/weapon</text>
<text text-anchor="middle" x="2664" y="-7.5" font-family="Helvetica,sans-Serif" font-size="10.00">/shotgun.qh</text>
</a>
</g>
</g>
<!-- Node1&#45;&gt;Node18 -->
<g id="edge17" class="edge"><title>Node1&#45;&gt;Node18</title>
<path fill="none" stroke="midnightblue" d="M1683.2,-80.8355C1843.29,-78.6939 2240.25,-69.7003 2581.56,-31.0675"/>
<polygon fill="midnightblue" stroke="midnightblue" points="2582.1,-34.5283 2591.64,-29.9159 2581.31,-27.5735 2582.1,-34.5283"/>
</g>
<!-- Node19 -->
<g id="node19" class="node"><title>Node19</title>
<g id="a_node19"><a xlink:href="../../d3/ddb/tuba_8qh.html" target="_top" xlink:title="common/weapons/weapon\l/tuba.qh">
<polygon fill="none" stroke="black" points="2754,-0.5 2754,-30.5 2898,-30.5 2898,-0.5 2754,-0.5"/>
<text text-anchor="start" x="2762" y="-18.5" font-family="Helvetica,sans-Serif" font-size="10.00">common/weapons/weapon</text>
<text text-anchor="middle" x="2826" y="-7.5" font-family="Helvetica,sans-Serif" font-size="10.00">/tuba.qh</text>
</a>
</g>
</g>
<!-- Node1&#45;&gt;Node19 -->
<g id="edge18" class="edge"><title>Node1&#45;&gt;Node19</title>
<path fill="none" stroke="midnightblue" d="M1683.23,-81.5981C1861.68,-81.1272 2337.7,-75.5278 2743.47,-31.0673"/>
<polygon fill="midnightblue" stroke="midnightblue" points="2744.09,-34.5203 2753.65,-29.9427 2743.32,-27.5626 2744.09,-34.5203"/>
</g>
<!-- Node20 -->
<g id="node20" class="node"><title>Node20</title>
<g id="a_node20"><a xlink:href="../../d2/dc3/vaporizer_8qh.html" target="_top" xlink:title="common/weapons/weapon\l/vaporizer.qh">
<polygon fill="none" stroke="black" points="2916,-0.5 2916,-30.5 3060,-30.5 3060,-0.5 2916,-0.5"/>
<text text-anchor="start" x="2924" y="-18.5" font-family="Helvetica,sans-Serif" font-size="10.00">common/weapons/weapon</text>
<text text-anchor="middle" x="2988" y="-7.5" font-family="Helvetica,sans-Serif" font-size="10.00">/vaporizer.qh</text>
</a>
</g>
</g>
<!-- Node1&#45;&gt;Node20 -->
<g id="edge19" class="edge"><title>Node1&#45;&gt;Node20</title>
<path fill="none" stroke="midnightblue" d="M1683.26,-82.176C1878.83,-83.2578 2434.83,-81.3785 2905.59,-31.0469"/>
<polygon fill="midnightblue" stroke="midnightblue" points="2906.08,-34.5145 2915.65,-29.9628 2905.33,-27.5548 2906.08,-34.5145"/>
</g>
<!-- Node21 -->
<g id="node21" class="node"><title>Node21</title>
<g id="a_node21"><a xlink:href="../../d5/daa/vortex_8qh.html" target="_top" xlink:title="common/weapons/weapon\l/vortex.qh">
<polygon fill="none" stroke="black" points="3078,-0.5 3078,-30.5 3222,-30.5 3222,-0.5 3078,-0.5"/>
<text text-anchor="start" x="3086" y="-18.5" font-family="Helvetica,sans-Serif" font-size="10.00">common/weapons/weapon</text>
<text text-anchor="middle" x="3150" y="-7.5" font-family="Helvetica,sans-Serif" font-size="10.00">/vortex.qh</text>
</a>
</g>
</g>
<!-- Node1&#45;&gt;Node21 -->
<g id="edge20" class="edge"><title>Node1&#45;&gt;Node21</title>
<path fill="none" stroke="midnightblue" d="M1683.18,-80.3631C1935.15,-76.1836 2775.72,-60.4174 3067.5,-31.0296"/>
<polygon fill="midnightblue" stroke="midnightblue" points="3068.06,-34.4904 3077.65,-29.9785 3067.34,-27.5277 3068.06,-34.4904"/>
</g>
</g>
</svg>
        <g id="navigator" transform="translate(0 0)" fill="#404254">
                <rect fill="#f2f5e9" fill-opacity="0.5" stroke="#606060" stroke-width=".5" x="0" y="0" width="60" height="60"/>
                <use id="zoomplus" xlink:href="#zoomPlus" x="17" y="9" onmousedown="handleZoom(evt,'in')"/>
                <use id="zoomminus" xlink:href="#zoomMin" x="42" y="9" onmousedown="handleZoom(evt,'out')"/>
                <use id="reset" xlink:href="#resetDef" x="30" y="36" onmousedown="handleReset()"/>
                <g id="arrowUp" xlink:href="#dirArrow" transform="translate(30 24)" onmousedown="handlePan(0,-1)">
                  <use xlink:href="#rim" fill="#404040">
                        <set attributeName="fill" to="#808080" begin="arrowUp.mouseover" end="arrowUp.mouseout"/>
                  </use>
                  <path fill="none" stroke="white" stroke-width="1.5" d="M0,-3.0v7 M-2.5,-0.5L0,-3.0L2.5,-0.5"/>
                </g>
                <g id="arrowRight" xlink:href="#dirArrow" transform="rotate(90) translate(36 -43)" onmousedown="handlePan(1,0)">
                  <use xlink:href="#rim" fill="#404040">
                        <set attributeName="fill" to="#808080" begin="arrowRight.mouseover" end="arrowRight.mouseout"/>
                  </use>
                  <path fill="none" stroke="white" stroke-width="1.5" d="M0,-3.0v7 M-2.5,-0.5L0,-3.0L2.5,-0.5"/>
                </g>
                <g id="arrowDown" xlink:href="#dirArrow" transform="rotate(180) translate(-30 -48)" onmousedown="handlePan(0,1)">
                  <use xlink:href="#rim" fill="#404040">
                        <set attributeName="fill" to="#808080" begin="arrowDown.mouseover" end="arrowDown.mouseout"/>
                  </use>
                  <path fill="none" stroke="white" stroke-width="1.5" d="M0,-3.0v7 M-2.5,-0.5L0,-3.0L2.5,-0.5"/>
                </g>
                <g id="arrowLeft" xlink:href="#dirArrow" transform="rotate(270) translate(-36 17)" onmousedown="handlePan(-1,0)">
                  <use xlink:href="#rim" fill="#404040">
                        <set attributeName="fill" to="#808080" begin="arrowLeft.mouseover" end="arrowLeft.mouseout"/>
                  </use>
                  <path fill="none" stroke="white" stroke-width="1.5" d="M0,-3.0v7 M-2.5,-0.5L0,-3.0L2.5,-0.5"/>
                </g>
        </g>
        <svg viewBox="0 0 15 15" width="100%" height="30px" preserveAspectRatio="xMaxYMin meet">
         <g id="arrow_out" transform="scale(0.3 0.3)">
          <a xlink:href="common_2weapons_2weapon_2__mod_8qh__incl_org.svg" target="_base">
           <rect id="button" ry="5" rx="5" y="6" x="6" height="38" width="38"
                fill="#f2f5e9" fill-opacity="0.5" stroke="#606060" stroke-width="1.0"/>
           <path id="arrow"
             d="M 11.500037,31.436501 C 11.940474,20.09759 22.043105,11.32322 32.158766,21.979434 L 37.068811,17.246167 C 37.068811,17.246167 37.088388,32 37.088388,32 L 22.160133,31.978069 C 22.160133,31.978069 26.997745,27.140456 26.997745,27.140456 C 18.528582,18.264221 13.291696,25.230495 11.500037,31.436501 z"
             style="fill:#404040;"/>
          </a>
         </g>
        </svg>
</svg>
