<?xml version="1.0" encoding="UTF-8" standalone="no"?>
<!DOCTYPE svg PUBLIC "-//W3C//DTD SVG 1.1//EN"
 "http://www.w3.org/Graphics/SVG/1.1/DTD/svg11.dtd">
<!-- Generated by graphviz version 2.26.3 (20100126.1600)
 -->
<!-- Title: G Pages: 1 -->
<svg width="400pt" height="90pt"
 viewBox="0.00 0.00 400.00 90.00" xmlns="http://www.w3.org/2000/svg" xmlns:xlink="http://www.w3.org/1999/xlink">
<g id="graph1" class="graph" transform="scale(1 1) rotate(0) translate(4 86)">
<title>G</title>
<!-- Node1 -->
<g id="node1" class="node"><title>Node1</title>
<polygon fill="#bfbfbf" stroke="black" points="0,-20.5 0,-41.5 140,-41.5 140,-20.5 0,-20.5"/>
<text text-anchor="middle" x="70" y="-28.5" font-family="Helvetica,sans-Serif" font-size="10.00">antilag_takebackavgvelocity</text>
</g>
<!-- Node2 -->
<g id="node3" class="node"><title>Node2</title>
<a xlink:href="../../d4/dd8/antilag_8qc.html#a35f6a113079551ab09f27c14b886444c" target="_top" xlink:title="antilag_takebackorigin">
<polygon fill="none" stroke="black" points="176.5,-40.5 176.5,-61.5 289.5,-61.5 289.5,-40.5 176.5,-40.5"/>
<text text-anchor="middle" x="233" y="-48.5" font-family="Helvetica,sans-Serif" font-size="10.00">antilag_takebackorigin</text>
</a>
</g>
<!-- Node1&#45;&gt;Node2 -->
<g id="edge2" class="edge"><title>Node1&#45;&gt;Node2</title>
<path fill="none" stroke="midnightblue" d="M140.073,-39.5979C148.755,-40.6632 157.614,-41.7502 166.245,-42.8092"/>
<polygon fill="midnightblue" stroke="midnightblue" points="165.896,-46.2926 176.248,-44.0366 166.749,-39.3447 165.896,-46.2926"/>
</g>
<!-- Node5 -->
<g id="node9" class="node"><title>Node5</title>
<a xlink:href="../../d4/d0c/csprogsdefs_8qc.html#a4f0b78b1785821ba47129edb68e70f9e" target="_top" xlink:title="vector">
<polygon fill="none" stroke="black" points="211,-0.5 211,-21.5 255,-21.5 255,-0.5 211,-0.5"/>
<text text-anchor="middle" x="233" y="-8.5" font-family="Helvetica,sans-Serif" font-size="10.00">vector</text>
</a>
</g>
<!-- Node1&#45;&gt;Node5 -->
<g id="edge8" class="edge"><title>Node1&#45;&gt;Node5</title>
<path fill="none" stroke="midnightblue" d="M140.073,-22.4021C161.224,-19.8069 183.422,-17.0832 200.817,-14.9488"/>
<polygon fill="midnightblue" stroke="midnightblue" points="201.475,-18.3944 210.975,-13.7025 200.623,-11.4465 201.475,-18.3944"/>
</g>
<!-- Node3 -->
<g id="node5" class="node"><title>Node3</title>
<a xlink:href="../../d4/dd8/antilag_8qc.html#a35b4afc12038a8ae0ac17f3d26f84bb5" target="_top" xlink:title="antilag_find">
<polygon fill="none" stroke="black" points="326,-60.5 326,-81.5 392,-81.5 392,-60.5 326,-60.5"/>
<text text-anchor="middle" x="359" y="-68.5" font-family="Helvetica,sans-Serif" font-size="10.00">antilag_find</text>
</a>
</g>
<!-- Node2&#45;&gt;Node3 -->
<g id="edge4" class="edge"><title>Node2&#45;&gt;Node3</title>
<path fill="none" stroke="midnightblue" d="M289.734,-60.0054C298.557,-61.4059 307.546,-62.8327 315.999,-64.1744"/>
<polygon fill="midnightblue" stroke="midnightblue" points="315.572,-67.6503 325.997,-65.7614 316.669,-60.7369 315.572,-67.6503"/>
</g>
<!-- Node4 -->
<g id="node7" class="node"><title>Node4</title>
<a xlink:href="../../d0/d79/math_8qh.html#a26a88fb303232c6dfa1541e00a40c19c" target="_top" xlink:title="lerpv">
<polygon fill="none" stroke="black" points="340,-20.5 340,-41.5 378,-41.5 378,-20.5 340,-20.5"/>
<text text-anchor="middle" x="359" y="-28.5" font-family="Helvetica,sans-Serif" font-size="10.00">lerpv</text>
</a>
</g>
<!-- Node2&#45;&gt;Node4 -->
<g id="edge6" class="edge"><title>Node2&#45;&gt;Node4</title>
<path fill="none" stroke="midnightblue" d="M289.734,-41.9946C303.537,-39.8037 317.745,-37.5485 329.672,-35.6552"/>
<polygon fill="midnightblue" stroke="midnightblue" points="330.581,-39.0549 339.908,-34.0304 329.483,-32.1415 330.581,-39.0549"/>
</g>
</g>
</svg>
