<?xml version="1.0" encoding="UTF-8" standalone="no"?>
<!DOCTYPE svg PUBLIC "-//W3C//DTD SVG 1.1//EN"
 "http://www.w3.org/Graphics/SVG/1.1/DTD/svg11.dtd">
<!-- Generated by graphviz version 2.36.0 (20140111.2315)
 -->
<!-- Title: antilag_takeback Pages: 1 -->
<svg width="2282pt" height="266pt"
 viewBox="0.00 0.00 2282.00 266.00" xmlns="http://www.w3.org/2000/svg" xmlns:xlink="http://www.w3.org/1999/xlink">
<g id="graph0" class="graph" transform="scale(1 1) rotate(0) translate(4 262)">
<title>antilag_takeback</title>
<!-- Node1 -->
<g id="node1" class="node"><title>Node1</title>
<polygon fill="#bfbfbf" stroke="black" points="0,-35.5 0,-54.5 90,-54.5 90,-35.5 0,-35.5"/>
<text text-anchor="middle" x="45" y="-42.5" font-family="Helvetica,sans-Serif" font-size="10.00">antilag_takeback</text>
</g>
<!-- Node2 -->
<g id="node2" class="node"><title>Node2</title>
<g id="a_node2"><a xlink:href="../../d0/dd2/antilag_8qh.html#ae42be1431ef90dedfc2cb8bf7b792bfd" target="_top" xlink:title="antilag_takeback">
<polygon fill="none" stroke="black" points="126,-35.5 126,-54.5 216,-54.5 216,-35.5 126,-35.5"/>
<text text-anchor="middle" x="171" y="-42.5" font-family="Helvetica,sans-Serif" font-size="10.00">antilag_takeback</text>
</a>
</g>
</g>
<!-- Node1&#45;&gt;Node2 -->
<g id="edge1" class="edge"><title>Node1&#45;&gt;Node2</title>
<path fill="none" stroke="midnightblue" d="M100.272,-45C108.754,-45 117.432,-45 125.657,-45"/>
<polygon fill="midnightblue" stroke="midnightblue" points="100.067,-41.5001 90.0669,-45 100.067,-48.5001 100.067,-41.5001"/>
</g>
<!-- Node3 -->
<g id="node3" class="node"><title>Node3</title>
<g id="a_node3"><a xlink:href="../../d0/dd2/antilag_8qh.html#a49f979cfa6c28c22aa67a1b903160407" target="_top" xlink:title="antilag_takeback_all">
<polygon fill="none" stroke="black" points="252.5,-82.5 252.5,-101.5 357.5,-101.5 357.5,-82.5 252.5,-82.5"/>
<text text-anchor="middle" x="305" y="-89.5" font-family="Helvetica,sans-Serif" font-size="10.00">antilag_takeback_all</text>
</a>
</g>
</g>
<!-- Node1&#45;&gt;Node3 -->
<g id="edge47" class="edge"><title>Node1&#45;&gt;Node3</title>
<path fill="none" stroke="midnightblue" d="M70.7379,-59.406C86.1071,-67.5922 106.574,-77.1501 126,-82 167.591,-92.3837 216.28,-94.4589 252.212,-94.1764"/>
<polygon fill="midnightblue" stroke="midnightblue" points="72.3318,-56.2882 61.8821,-54.5404 68.9611,-62.4233 72.3318,-56.2882"/>
</g>
<!-- Node26 -->
<g id="node26" class="node"><title>Node26</title>
<g id="a_node26"><a xlink:href="../../dc/d8b/hitplot_8qh.html#aa359fe907f8329debabde7dfeb217ff0" target="_top" xlink:title="W_HitPlotAnalysis">
<polygon fill="none" stroke="black" points="740.5,-0.5 740.5,-19.5 839.5,-19.5 839.5,-0.5 740.5,-0.5"/>
<text text-anchor="middle" x="790" y="-7.5" font-family="Helvetica,sans-Serif" font-size="10.00">W_HitPlotAnalysis</text>
</a>
</g>
</g>
<!-- Node1&#45;&gt;Node26 -->
<g id="edge48" class="edge"><title>Node1&#45;&gt;Node26</title>
<path fill="none" stroke="midnightblue" d="M91.9653,-33.0299C103.053,-30.435 114.904,-27.9019 126,-26 204.417,-12.5586 224.439,-7 304,-7 304,-7 304,-7 462,-7 560.785,-7 676.35,-8.38593 740.249,-9.27378"/>
<polygon fill="midnightblue" stroke="midnightblue" points="90.9461,-29.6751 82.0403,-35.4141 92.5812,-36.4815 90.9461,-29.6751"/>
</g>
<!-- Node2&#45;&gt;Node2 -->
<g id="edge2" class="edge"><title>Node2&#45;&gt;Node2</title>
<path fill="none" stroke="midnightblue" d="M147.563,-64.0292C148.841,-69.128 156.654,-73 171,-73 193.395,-73 199.868,-63.5653 190.42,-54.7571"/>
<polygon fill="midnightblue" stroke="midnightblue" points="150.816,-65.3243 151.58,-54.7571 144.393,-62.5415 150.816,-65.3243"/>
</g>
<!-- Node2&#45;&gt;Node3 -->
<g id="edge3" class="edge"><title>Node2&#45;&gt;Node3</title>
<path fill="none" stroke="midnightblue" d="M208.25,-57.907C229.937,-65.6289 257.043,-75.2806 276.874,-82.3417"/>
<polygon fill="midnightblue" stroke="midnightblue" points="209.307,-54.5683 198.712,-54.5112 206.959,-61.1628 209.307,-54.5683"/>
</g>
<!-- Node2&#45;&gt;Node26 -->
<g id="edge46" class="edge"><title>Node2&#45;&gt;Node26</title>
<path fill="none" stroke="midnightblue" d="M226.099,-43.9876C322.091,-41.8708 528.451,-35.8766 702,-21 714.438,-19.9338 727.835,-18.422 740.299,-16.8595"/>
<polygon fill="midnightblue" stroke="midnightblue" points="225.975,-40.4894 216.052,-44.2038 226.125,-47.4878 225.975,-40.4894"/>
</g>
<!-- Node4 -->
<g id="node4" class="node"><title>Node4</title>
<g id="a_node4"><a xlink:href="../../d0/dd2/antilag_8qh.html#a16360420959782f6972ac30eec10327a" target="_top" xlink:title="tracebox_antilag_force_wz">
<polygon fill="none" stroke="black" points="394.5,-118.5 394.5,-137.5 527.5,-137.5 527.5,-118.5 394.5,-118.5"/>
<text text-anchor="middle" x="461" y="-125.5" font-family="Helvetica,sans-Serif" font-size="10.00">tracebox_antilag_force_wz</text>
</a>
</g>
</g>
<!-- Node3&#45;&gt;Node4 -->
<g id="edge4" class="edge"><title>Node3&#45;&gt;Node4</title>
<path fill="none" stroke="midnightblue" d="M356.861,-103.889C377.107,-108.622 400.088,-113.995 419.212,-118.465"/>
<polygon fill="midnightblue" stroke="midnightblue" points="357.399,-100.421 346.865,-101.553 355.806,-107.237 357.399,-100.421"/>
</g>
<!-- Node41 -->
<g id="node41" class="node"><title>Node41</title>
<g id="a_node41"><a xlink:href="../../d4/d3f/tracing_8qh.html#a9b83ae72305e6981aae3a78f1f75a13d" target="_top" xlink:title="fireBullet">
<polygon fill="none" stroke="black" points="433.5,-80.5 433.5,-99.5 488.5,-99.5 488.5,-80.5 433.5,-80.5"/>
<text text-anchor="middle" x="461" y="-87.5" font-family="Helvetica,sans-Serif" font-size="10.00">fireBullet</text>
</a>
</g>
</g>
<!-- Node3&#45;&gt;Node41 -->
<g id="edge45" class="edge"><title>Node3&#45;&gt;Node41</title>
<path fill="none" stroke="midnightblue" d="M367.992,-91.1949C390.718,-90.8998 415.259,-90.5811 433.276,-90.3471"/>
<polygon fill="midnightblue" stroke="midnightblue" points="367.662,-87.6988 357.708,-91.3285 367.753,-94.6982 367.662,-87.6988"/>
</g>
<!-- Node5 -->
<g id="node5" class="node"><title>Node5</title>
<g id="a_node5"><a xlink:href="../../d0/dd2/antilag_8qh.html#ae2572b5fa7a3e76a4ff54cd41a55cf04" target="_top" xlink:title="traceline_antilag_force">
<polygon fill="none" stroke="black" points="576,-74.5 576,-93.5 690,-93.5 690,-74.5 576,-74.5"/>
<text text-anchor="middle" x="633" y="-81.5" font-family="Helvetica,sans-Serif" font-size="10.00">traceline_antilag_force</text>
</a>
</g>
</g>
<!-- Node4&#45;&gt;Node5 -->
<g id="edge5" class="edge"><title>Node4&#45;&gt;Node5</title>
<path fill="none" stroke="midnightblue" d="M508.602,-115.938C535.867,-108.882 569.805,-100.098 595.185,-93.5287"/>
<polygon fill="midnightblue" stroke="midnightblue" points="507.691,-112.559 498.887,-118.453 509.445,-119.335 507.691,-112.559"/>
</g>
<!-- Node28 -->
<g id="node28" class="node"><title>Node28</title>
<g id="a_node28"><a xlink:href="../../d0/dd2/antilag_8qh.html#a098ba0cc6ccdbc147f0bf68b30238cc5" target="_top" xlink:title="tracebox_antilag">
<polygon fill="none" stroke="black" points="746,-114.5 746,-133.5 834,-133.5 834,-114.5 746,-114.5"/>
<text text-anchor="middle" x="790" y="-121.5" font-family="Helvetica,sans-Serif" font-size="10.00">tracebox_antilag</text>
</a>
</g>
</g>
<!-- Node4&#45;&gt;Node28 -->
<g id="edge29" class="edge"><title>Node4&#45;&gt;Node28</title>
<path fill="none" stroke="midnightblue" d="M537.909,-127.071C602.463,-126.282 692.864,-125.176 745.743,-124.529"/>
<polygon fill="midnightblue" stroke="midnightblue" points="537.736,-123.573 527.78,-127.195 537.822,-130.573 537.736,-123.573"/>
</g>
<!-- Node29 -->
<g id="node29" class="node"><title>Node29</title>
<g id="a_node29"><a xlink:href="../../d0/dd2/antilag_8qh.html#ad351eda3d83e3ac892325b85272f5f1b" target="_top" xlink:title="WarpZone_traceline\l_antilag_force">
<polygon fill="none" stroke="black" points="581,-153 581,-183 685,-183 685,-153 581,-153"/>
<text text-anchor="start" x="589" y="-171" font-family="Helvetica,sans-Serif" font-size="10.00">WarpZone_traceline</text>
<text text-anchor="middle" x="633" y="-160" font-family="Helvetica,sans-Serif" font-size="10.00">_antilag_force</text>
</a>
</g>
</g>
<!-- Node4&#45;&gt;Node29 -->
<g id="edge31" class="edge"><title>Node4&#45;&gt;Node29</title>
<path fill="none" stroke="midnightblue" d="M512.671,-139.923C534.237,-144.997 559.347,-150.905 580.954,-155.989"/>
<polygon fill="midnightblue" stroke="midnightblue" points="513.255,-136.465 502.719,-137.581 511.652,-143.278 513.255,-136.465"/>
</g>
<!-- Node40 -->
<g id="node40" class="node"><title>Node40</title>
<g id="a_node40"><a xlink:href="../../d0/dd2/antilag_8qh.html#a9cacf5619ae2d9d345af6f30d59cc9c8" target="_top" xlink:title="WarpZone_tracebox_antilag">
<polygon fill="none" stroke="black" points="564,-202.5 564,-221.5 702,-221.5 702,-202.5 564,-202.5"/>
<text text-anchor="middle" x="633" y="-209.5" font-family="Helvetica,sans-Serif" font-size="10.00">WarpZone_tracebox_antilag</text>
</a>
</g>
</g>
<!-- Node4&#45;&gt;Node40 -->
<g id="edge44" class="edge"><title>Node4&#45;&gt;Node40</title>
<path fill="none" stroke="midnightblue" d="M483.219,-143.749C503.204,-157.977 534.412,-178.673 564,-192 573.088,-196.094 583.233,-199.599 592.856,-202.478"/>
<polygon fill="midnightblue" stroke="midnightblue" points="485.027,-140.737 474.872,-137.716 480.927,-146.411 485.027,-140.737"/>
</g>
<!-- Node6 -->
<g id="node6" class="node"><title>Node6</title>
<g id="a_node6"><a xlink:href="../../dc/d73/server_2miscfunctions_8qh.html#a5edf83b72581bc3ed7f4b512f534fbfe" target="_top" xlink:title="traceline_antilag">
<polygon fill="none" stroke="black" points="746.5,-38.5 746.5,-57.5 833.5,-57.5 833.5,-38.5 746.5,-38.5"/>
<text text-anchor="middle" x="790" y="-45.5" font-family="Helvetica,sans-Serif" font-size="10.00">traceline_antilag</text>
</a>
</g>
</g>
<!-- Node5&#45;&gt;Node6 -->
<g id="edge6" class="edge"><title>Node5&#45;&gt;Node6</title>
<path fill="none" stroke="midnightblue" d="M684.912,-72.1753C705.357,-67.4268 728.611,-62.0257 747.947,-57.5349"/>
<polygon fill="midnightblue" stroke="midnightblue" points="684.079,-68.7755 675.13,-74.4472 685.663,-75.594 684.079,-68.7755"/>
</g>
<!-- Node5&#45;&gt;Node26 -->
<g id="edge26" class="edge"><title>Node5&#45;&gt;Node26</title>
<path fill="none" stroke="midnightblue" d="M676.498,-70.9285C685.186,-67.558 694.085,-63.5688 702,-59 720.038,-48.5877 719.985,-39.4512 738,-29 744.293,-25.3492 751.415,-22.1756 758.297,-19.5225"/>
<polygon fill="midnightblue" stroke="midnightblue" points="675.027,-67.7401 666.843,-74.469 677.437,-74.3122 675.027,-67.7401"/>
</g>
<!-- Node27 -->
<g id="node27" class="node"><title>Node27</title>
<g id="a_node27"><a xlink:href="../../d4/d3f/tracing_8qh.html#a52cf4ee852e785e8283028712ce0a57f" target="_top" xlink:title="W_SetupShot_Dir_Projectile\lSize_Range">
<polygon fill="none" stroke="black" points="878.5,-87 878.5,-117 1019.5,-117 1019.5,-87 878.5,-87"/>
<text text-anchor="start" x="886.5" y="-105" font-family="Helvetica,sans-Serif" font-size="10.00">W_SetupShot_Dir_Projectile</text>
<text text-anchor="middle" x="949" y="-94" font-family="Helvetica,sans-Serif" font-size="10.00">Size_Range</text>
</a>
</g>
</g>
<!-- Node5&#45;&gt;Node27 -->
<g id="edge28" class="edge"><title>Node5&#45;&gt;Node27</title>
<path fill="none" stroke="midnightblue" d="M700.306,-87.801C752.569,-90.7969 825.239,-94.9627 878.348,-98.0072"/>
<polygon fill="midnightblue" stroke="midnightblue" points="700.321,-84.2962 690.137,-87.218 699.92,-91.2847 700.321,-84.2962"/>
</g>
<!-- Node7 -->
<g id="node7" class="node"><title>Node7</title>
<g id="a_node7"><a xlink:href="../../dc/d73/server_2miscfunctions_8qh.html#a8292725ec840a49d42ef6453aaf838f6" target="_top" xlink:title="crosshair_trace">
<polygon fill="none" stroke="black" points="907.5,-38.5 907.5,-57.5 990.5,-57.5 990.5,-38.5 907.5,-38.5"/>
<text text-anchor="middle" x="949" y="-45.5" font-family="Helvetica,sans-Serif" font-size="10.00">crosshair_trace</text>
</a>
</g>
</g>
<!-- Node6&#45;&gt;Node7 -->
<g id="edge7" class="edge"><title>Node6&#45;&gt;Node7</title>
<path fill="none" stroke="midnightblue" d="M844.11,-48C864.759,-48 888.035,-48 907.313,-48"/>
<polygon fill="midnightblue" stroke="midnightblue" points="843.901,-44.5001 833.901,-48 843.901,-51.5001 843.901,-44.5001"/>
</g>
<!-- Node8 -->
<g id="node8" class="node"><title>Node8</title>
<g id="a_node8"><a xlink:href="../../d3/dca/cheats_8qh.html#a1549477544784a0c7e5134dbd72b3a28" target="_top" xlink:title="CheatCommand">
<polygon fill="none" stroke="black" points="1089,-73.5 1089,-92.5 1177,-92.5 1177,-73.5 1089,-73.5"/>
<text text-anchor="middle" x="1133" y="-80.5" font-family="Helvetica,sans-Serif" font-size="10.00">CheatCommand</text>
</a>
</g>
</g>
<!-- Node7&#45;&gt;Node8 -->
<g id="edge8" class="edge"><title>Node7&#45;&gt;Node8</title>
<path fill="none" stroke="midnightblue" d="M1000.74,-57.7571C1028.42,-63.0812 1062.34,-69.603 1088.75,-74.6836"/>
<polygon fill="midnightblue" stroke="midnightblue" points="1001.33,-54.3062 990.844,-55.8547 1000,-61.1803 1001.33,-54.3062"/>
</g>
<!-- Node25 -->
<g id="node25" class="node"><title>Node25</title>
<g id="a_node25"><a xlink:href="../../d2/d24/sv__nexball_8qc.html#ad4838152bccf650dc68ed87c6e679103" target="_top" xlink:title="MUTATOR_HOOKFUNCTION">
<polygon fill="none" stroke="black" points="1056.5,-35.5 1056.5,-54.5 1209.5,-54.5 1209.5,-35.5 1056.5,-35.5"/>
<text text-anchor="middle" x="1133" y="-42.5" font-family="Helvetica,sans-Serif" font-size="10.00">MUTATOR_HOOKFUNCTION</text>
</a>
</g>
</g>
<!-- Node7&#45;&gt;Node25 -->
<g id="edge25" class="edge"><title>Node7&#45;&gt;Node25</title>
<path fill="none" stroke="midnightblue" d="M1001.15,-47.1569C1018.22,-46.8755 1037.63,-46.5555 1056.17,-46.2499"/>
<polygon fill="midnightblue" stroke="midnightblue" points="1000.79,-43.6623 990.844,-47.3267 1000.9,-50.6614 1000.79,-43.6623"/>
</g>
<!-- Node9 -->
<g id="node9" class="node"><title>Node9</title>
<g id="a_node9"><a xlink:href="../../d3/dca/cheats_8qh.html#a73c94da2bf38acf3536154e899458024" target="_top" xlink:title="CheatImpulse">
<polygon fill="none" stroke="black" points="1279.5,-82.5 1279.5,-101.5 1356.5,-101.5 1356.5,-82.5 1279.5,-82.5"/>
<text text-anchor="middle" x="1318" y="-89.5" font-family="Helvetica,sans-Serif" font-size="10.00">CheatImpulse</text>
</a>
</g>
</g>
<!-- Node8&#45;&gt;Node9 -->
<g id="edge9" class="edge"><title>Node8&#45;&gt;Node9</title>
<path fill="none" stroke="midnightblue" d="M1187.48,-85.6304C1216.91,-87.0775 1252.71,-88.8383 1279.21,-90.1416"/>
<polygon fill="midnightblue" stroke="midnightblue" points="1187.53,-82.1284 1177.37,-85.1329 1187.18,-89.12 1187.53,-82.1284"/>
</g>
<!-- Node18 -->
<g id="node18" class="node"><title>Node18</title>
<g id="a_node18"><a xlink:href="../../d8/d1d/cmd_8qc.html#a67c2dd926692b0635c83bcef05983b3b" target="_top" xlink:title="SV_ParseClientCommand">
<polygon fill="none" stroke="black" points="1252.5,-44.5 1252.5,-63.5 1383.5,-63.5 1383.5,-44.5 1252.5,-44.5"/>
<text text-anchor="middle" x="1318" y="-51.5" font-family="Helvetica,sans-Serif" font-size="10.00">SV_ParseClientCommand</text>
</a>
</g>
</g>
<!-- Node8&#45;&gt;Node18 -->
<g id="edge18" class="edge"><title>Node8&#45;&gt;Node18</title>
<path fill="none" stroke="midnightblue" d="M1187.44,-74.5318C1209.24,-71.077 1234.55,-67.0662 1256.98,-63.5111"/>
<polygon fill="midnightblue" stroke="midnightblue" points="1186.7,-71.1053 1177.37,-76.1274 1187.79,-78.019 1186.7,-71.1053"/>
</g>
<!-- Node10 -->
<g id="node10" class="node"><title>Node10</title>
<g id="a_node10"><a xlink:href="../../d3/dd1/server_2impulse_8qh.html#a592fd33e424a2e05854957b679c37e1b" target="_top" xlink:title="ImpulseCommands">
<polygon fill="none" stroke="black" points="1440.5,-82.5 1440.5,-101.5 1541.5,-101.5 1541.5,-82.5 1440.5,-82.5"/>
<text text-anchor="middle" x="1491" y="-89.5" font-family="Helvetica,sans-Serif" font-size="10.00">ImpulseCommands</text>
</a>
</g>
</g>
<!-- Node9&#45;&gt;Node10 -->
<g id="edge10" class="edge"><title>Node9&#45;&gt;Node10</title>
<path fill="none" stroke="midnightblue" d="M1366.7,-92C1389.61,-92 1417.05,-92 1440.23,-92"/>
<polygon fill="midnightblue" stroke="midnightblue" points="1366.53,-88.5001 1356.53,-92 1366.53,-95.5001 1366.53,-88.5001"/>
</g>
<!-- Node11 -->
<g id="node11" class="node"><title>Node11</title>
<g id="a_node11"><a xlink:href="../../dd/d0c/sv__ctf_8qc.html#a8edcce745140a0191b957e969f8a2cfb" target="_top" xlink:title="ctf_FlagThink">
<polygon fill="none" stroke="black" points="1629,-139.5 1629,-158.5 1705,-158.5 1705,-139.5 1629,-139.5"/>
<text text-anchor="middle" x="1667" y="-146.5" font-family="Helvetica,sans-Serif" font-size="10.00">ctf_FlagThink</text>
</a>
</g>
</g>
<!-- Node10&#45;&gt;Node11 -->
<g id="edge11" class="edge"><title>Node10&#45;&gt;Node11</title>
<path fill="none" stroke="midnightblue" d="M1524.47,-105.396C1543.88,-113.136 1569.13,-122.744 1592,-130 1603.88,-133.771 1617.02,-137.334 1628.88,-140.334"/>
<polygon fill="midnightblue" stroke="midnightblue" points="1525.76,-102.141 1515.18,-101.654 1523.15,-108.635 1525.76,-102.141"/>
</g>
<!-- Node14 -->
<g id="node14" class="node"><title>Node14</title>
<g id="a_node14"><a xlink:href="../../df/dd7/server_2client_8qc.html#a35da2ff46a7d16ee6dd935fc1e65a72c" target="_top" xlink:title="PlayerPostThink">
<polygon fill="none" stroke="black" points="1622.5,-101.5 1622.5,-120.5 1711.5,-120.5 1711.5,-101.5 1622.5,-101.5"/>
<text text-anchor="middle" x="1667" y="-108.5" font-family="Helvetica,sans-Serif" font-size="10.00">PlayerPostThink</text>
</a>
</g>
</g>
<!-- Node10&#45;&gt;Node14 -->
<g id="edge14" class="edge"><title>Node10&#45;&gt;Node14</title>
<path fill="none" stroke="midnightblue" d="M1551.92,-98.5432C1575.06,-101.07 1601.03,-103.906 1622.34,-106.233"/>
<polygon fill="midnightblue" stroke="midnightblue" points="1552.18,-95.0509 1541.86,-97.4446 1551.42,-102.01 1552.18,-95.0509"/>
</g>
<!-- Node16 -->
<g id="node16" class="node"><title>Node16</title>
<g id="a_node16"><a xlink:href="../../df/dd7/server_2client_8qc.html#a996803179cd9557a7b4d806d08cc74f3" target="_top" xlink:title="PutPlayerInServer">
<polygon fill="none" stroke="black" points="1619,-63.5 1619,-82.5 1715,-82.5 1715,-63.5 1619,-63.5"/>
<text text-anchor="middle" x="1667" y="-70.5" font-family="Helvetica,sans-Serif" font-size="10.00">PutPlayerInServer</text>
</a>
</g>
</g>
<!-- Node10&#45;&gt;Node16 -->
<g id="edge16" class="edge"><title>Node10&#45;&gt;Node16</title>
<path fill="none" stroke="midnightblue" d="M1552.03,-85.4453C1573.88,-83.0594 1598.24,-80.3986 1618.82,-78.1516"/>
<polygon fill="midnightblue" stroke="midnightblue" points="1551.42,-81.9905 1541.86,-86.5554 1552.18,-88.9491 1551.42,-81.9905"/>
</g>
<!-- Node12 -->
<g id="node12" class="node"><title>Node12</title>
<g id="a_node12"><a xlink:href="../../dd/d0c/sv__ctf_8qc.html#ae4da0b9f3b47d57388ba498d2baed651" target="_top" xlink:title="ctf_FlagSetup">
<polygon fill="none" stroke="black" points="1801.5,-139.5 1801.5,-158.5 1878.5,-158.5 1878.5,-139.5 1801.5,-139.5"/>
<text text-anchor="middle" x="1840" y="-146.5" font-family="Helvetica,sans-Serif" font-size="10.00">ctf_FlagSetup</text>
</a>
</g>
</g>
<!-- Node11&#45;&gt;Node12 -->
<g id="edge12" class="edge"><title>Node11&#45;&gt;Node12</title>
<path fill="none" stroke="midnightblue" d="M1715.17,-149C1742.33,-149 1776,-149 1801.38,-149"/>
<polygon fill="midnightblue" stroke="midnightblue" points="1715.1,-145.5 1705.1,-149 1715.1,-152.5 1715.1,-145.5"/>
</g>
<!-- Node13 -->
<g id="node13" class="node"><title>Node13</title>
<g id="a_node13"><a xlink:href="../../dd/d0c/sv__ctf_8qc.html#a2a2129ef74628a0c8bef5d48a016e3e0" target="_top" xlink:title="spawnfunc">
<polygon fill="none" stroke="black" points="1941,-139.5 1941,-158.5 2005,-158.5 2005,-139.5 1941,-139.5"/>
<text text-anchor="middle" x="1973" y="-146.5" font-family="Helvetica,sans-Serif" font-size="10.00">spawnfunc</text>
</a>
</g>
</g>
<!-- Node12&#45;&gt;Node13 -->
<g id="edge13" class="edge"><title>Node12&#45;&gt;Node13</title>
<path fill="none" stroke="midnightblue" d="M1888.99,-149C1906.22,-149 1925.2,-149 1940.65,-149"/>
<polygon fill="midnightblue" stroke="midnightblue" points="1888.54,-145.5 1878.54,-149 1888.54,-152.5 1888.54,-145.5"/>
</g>
<!-- Node15 -->
<g id="node15" class="node"><title>Node15</title>
<g id="a_node15"><a xlink:href="../../d3/d4f/sv__main_8qc.html#a554af7e2ac58045168dad9eca30bc8b1" target="_top" xlink:title="StartFrame">
<polygon fill="none" stroke="black" points="1807.5,-101.5 1807.5,-120.5 1872.5,-120.5 1872.5,-101.5 1807.5,-101.5"/>
<text text-anchor="middle" x="1840" y="-108.5" font-family="Helvetica,sans-Serif" font-size="10.00">StartFrame</text>
</a>
</g>
</g>
<!-- Node14&#45;&gt;Node15 -->
<g id="edge15" class="edge"><title>Node14&#45;&gt;Node15</title>
<path fill="none" stroke="midnightblue" d="M1721.7,-111C1749.85,-111 1783.38,-111 1807.36,-111"/>
<polygon fill="midnightblue" stroke="midnightblue" points="1721.59,-107.5 1711.59,-111 1721.59,-114.5 1721.59,-107.5"/>
</g>
<!-- Node17 -->
<g id="node17" class="node"><title>Node17</title>
<g id="a_node17"><a xlink:href="../../df/dd7/server_2client_8qc.html#ac8cee1fb565123245189b49f1ab94951" target="_top" xlink:title="Called when a client spawns in the server. ">
<polygon fill="none" stroke="black" points="1793,-63.5 1793,-82.5 1887,-82.5 1887,-63.5 1793,-63.5"/>
<text text-anchor="middle" x="1840" y="-70.5" font-family="Helvetica,sans-Serif" font-size="10.00">PutClientInServer</text>
</a>
</g>
</g>
<!-- Node16&#45;&gt;Node17 -->
<g id="edge17" class="edge"><title>Node16&#45;&gt;Node17</title>
<path fill="none" stroke="midnightblue" d="M1725.38,-73C1747.34,-73 1772.08,-73 1792.86,-73"/>
<polygon fill="midnightblue" stroke="midnightblue" points="1725.18,-69.5001 1715.18,-73 1725.18,-76.5001 1725.18,-69.5001"/>
</g>
<!-- Node19 -->
<g id="node19" class="node"><title>Node19</title>
<g id="a_node19"><a xlink:href="../../d6/d27/scripting_8qc.html#a9337e576a1412382ff54132dd8d46b28" target="_top" xlink:title="bot_cmd_cc">
<polygon fill="none" stroke="black" points="1456,-44.5 1456,-63.5 1526,-63.5 1526,-44.5 1456,-44.5"/>
<text text-anchor="middle" x="1491" y="-51.5" font-family="Helvetica,sans-Serif" font-size="10.00">bot_cmd_cc</text>
</a>
</g>
</g>
<!-- Node18&#45;&gt;Node19 -->
<g id="edge19" class="edge"><title>Node18&#45;&gt;Node19</title>
<path fill="none" stroke="midnightblue" d="M1393.85,-54C1415.51,-54 1438.1,-54 1455.94,-54"/>
<polygon fill="midnightblue" stroke="midnightblue" points="1393.65,-50.5001 1383.65,-54 1393.65,-57.5001 1393.65,-50.5001"/>
</g>
<!-- Node20 -->
<g id="node20" class="node"><title>Node20</title>
<g id="a_node20"><a xlink:href="../../d6/d27/scripting_8qc.html#aaca537ca751853fba4204c751942df21" target="_top" xlink:title="bot_execute_commands_once">
<polygon fill="none" stroke="black" points="1592.5,-25.5 1592.5,-44.5 1741.5,-44.5 1741.5,-25.5 1592.5,-25.5"/>
<text text-anchor="middle" x="1667" y="-32.5" font-family="Helvetica,sans-Serif" font-size="10.00">bot_execute_commands_once</text>
</a>
</g>
</g>
<!-- Node19&#45;&gt;Node20 -->
<g id="edge20" class="edge"><title>Node19&#45;&gt;Node20</title>
<path fill="none" stroke="midnightblue" d="M1536.57,-49.1333C1553.59,-47.2751 1573.47,-45.1036 1592.48,-43.0282"/>
<polygon fill="midnightblue" stroke="midnightblue" points="1535.94,-45.6813 1526.38,-50.2462 1536.7,-52.6399 1535.94,-45.6813"/>
</g>
<!-- Node21 -->
<g id="node21" class="node"><title>Node21</title>
<g id="a_node21"><a xlink:href="../../d8/d14/scripting_8qh.html#abad1d3e4714ca1832aab73ee2b8862ea" target="_top" xlink:title="bot_execute_commands">
<polygon fill="none" stroke="black" points="1778.5,-25.5 1778.5,-44.5 1901.5,-44.5 1901.5,-25.5 1778.5,-25.5"/>
<text text-anchor="middle" x="1840" y="-32.5" font-family="Helvetica,sans-Serif" font-size="10.00">bot_execute_commands</text>
</a>
</g>
</g>
<!-- Node20&#45;&gt;Node21 -->
<g id="edge21" class="edge"><title>Node20&#45;&gt;Node21</title>
<path fill="none" stroke="midnightblue" d="M1751.67,-35C1760.69,-35 1769.74,-35 1778.41,-35"/>
<polygon fill="midnightblue" stroke="midnightblue" points="1751.51,-31.5001 1741.51,-35 1751.51,-38.5001 1751.51,-31.5001"/>
</g>
<!-- Node22 -->
<g id="node22" class="node"><title>Node22</title>
<g id="a_node22"><a xlink:href="../../d8/d39/havocbot_8qh.html#ade0b4e09f77eaadd022af3ee44c6a3fc" target="_top" xlink:title="havocbot_ai">
<polygon fill="none" stroke="black" points="1938.5,-25.5 1938.5,-44.5 2007.5,-44.5 2007.5,-25.5 1938.5,-25.5"/>
<text text-anchor="middle" x="1973" y="-32.5" font-family="Helvetica,sans-Serif" font-size="10.00">havocbot_ai</text>
</a>
</g>
</g>
<!-- Node21&#45;&gt;Node22 -->
<g id="edge22" class="edge"><title>Node21&#45;&gt;Node22</title>
<path fill="none" stroke="midnightblue" d="M1911.58,-35C1920.83,-35 1929.95,-35 1938.19,-35"/>
<polygon fill="midnightblue" stroke="midnightblue" points="1911.52,-31.5001 1901.52,-35 1911.51,-38.5001 1911.52,-31.5001"/>
</g>
<!-- Node23 -->
<g id="node23" class="node"><title>Node23</title>
<g id="a_node23"><a xlink:href="../../d8/d39/havocbot_8qh.html#afb882bcf6c4a44e801e4fb9eafbbf1f4" target="_top" xlink:title="havocbot_setupbot">
<polygon fill="none" stroke="black" points="2044.5,-25.5 2044.5,-44.5 2143.5,-44.5 2143.5,-25.5 2044.5,-25.5"/>
<text text-anchor="middle" x="2094" y="-32.5" font-family="Helvetica,sans-Serif" font-size="10.00">havocbot_setupbot</text>
</a>
</g>
</g>
<!-- Node22&#45;&gt;Node23 -->
<g id="edge23" class="edge"><title>Node22&#45;&gt;Node23</title>
<path fill="none" stroke="midnightblue" d="M2018.01,-35C2026.63,-35 2035.72,-35 2044.47,-35"/>
<polygon fill="midnightblue" stroke="midnightblue" points="2017.78,-31.5001 2007.78,-35 2017.78,-38.5001 2017.78,-31.5001"/>
</g>
<!-- Node24 -->
<g id="node24" class="node"><title>Node24</title>
<g id="a_node24"><a xlink:href="../../d1/da9/bot_8qh.html#abd19370e4d61d3549dbbe44826531536" target="_top" xlink:title="bot_clientconnect">
<polygon fill="none" stroke="black" points="2180.5,-25.5 2180.5,-44.5 2273.5,-44.5 2273.5,-25.5 2180.5,-25.5"/>
<text text-anchor="middle" x="2227" y="-32.5" font-family="Helvetica,sans-Serif" font-size="10.00">bot_clientconnect</text>
</a>
</g>
</g>
<!-- Node23&#45;&gt;Node24 -->
<g id="edge24" class="edge"><title>Node23&#45;&gt;Node24</title>
<path fill="none" stroke="midnightblue" d="M2154,-35C2162.79,-35 2171.75,-35 2180.22,-35"/>
<polygon fill="midnightblue" stroke="midnightblue" points="2153.78,-31.5001 2143.78,-35 2153.78,-38.5001 2153.78,-31.5001"/>
</g>
<!-- Node26&#45;&gt;Node27 -->
<g id="edge27" class="edge"><title>Node26&#45;&gt;Node27</title>
<path fill="none" stroke="midnightblue" d="M832.678,-23.6724C835.925,-25.2906 839.075,-27.0644 842,-29 861.402,-41.8373 859.312,-53.1433 878,-67 888.259,-74.6072 900.422,-81.3468 911.708,-86.8303"/>
<polygon fill="midnightblue" stroke="midnightblue" points="833.932,-20.3993 823.374,-19.5188 831.078,-26.7913 833.932,-20.3993"/>
</g>
<!-- Node28&#45;&gt;Node27 -->
<g id="edge30" class="edge"><title>Node28&#45;&gt;Node27</title>
<path fill="none" stroke="midnightblue" d="M844.49,-116.505C855.363,-114.981 866.95,-113.357 878.289,-111.768"/>
<polygon fill="midnightblue" stroke="midnightblue" points="843.734,-113.076 834.317,-117.93 844.706,-120.009 843.734,-113.076"/>
</g>
<!-- Node30 -->
<g id="node30" class="node"><title>Node30</title>
<g id="a_node30"><a xlink:href="../../dc/d73/server_2miscfunctions_8qh.html#aa349f780b5d2d608e278935b6e4c60db" target="_top" xlink:title="WarpZone_traceline\l_antilag">
<polygon fill="none" stroke="black" points="738,-153 738,-183 842,-183 842,-153 738,-153"/>
<text text-anchor="start" x="746" y="-171" font-family="Helvetica,sans-Serif" font-size="10.00">WarpZone_traceline</text>
<text text-anchor="middle" x="790" y="-160" font-family="Helvetica,sans-Serif" font-size="10.00">_antilag</text>
</a>
</g>
</g>
<!-- Node29&#45;&gt;Node30 -->
<g id="edge32" class="edge"><title>Node29&#45;&gt;Node30</title>
<path fill="none" stroke="midnightblue" d="M695.292,-168C709.396,-168 724.251,-168 737.871,-168"/>
<polygon fill="midnightblue" stroke="midnightblue" points="695.182,-164.5 685.182,-168 695.182,-171.5 695.182,-164.5"/>
</g>
<!-- Node30&#45;&gt;Node27 -->
<g id="edge34" class="edge"><title>Node30&#45;&gt;Node27</title>
<path fill="none" stroke="midnightblue" d="M835.309,-149.061C848.986,-143.241 864.105,-136.833 878,-131 888.795,-126.469 900.545,-121.583 911.28,-117.137"/>
<polygon fill="midnightblue" stroke="midnightblue" points="833.932,-145.844 826.103,-152.983 836.675,-152.284 833.932,-145.844"/>
</g>
<!-- Node31 -->
<g id="node31" class="node"><title>Node31</title>
<g id="a_node31"><a xlink:href="../../d4/d3f/tracing_8qh.html#a87e5fe4c23732ae4ad1facb488e243ce" target="_top" xlink:title="FireRailgunBullet">
<polygon fill="none" stroke="black" points="903.5,-190.5 903.5,-209.5 994.5,-209.5 994.5,-190.5 903.5,-190.5"/>
<text text-anchor="middle" x="949" y="-197.5" font-family="Helvetica,sans-Serif" font-size="10.00">FireRailgunBullet</text>
</a>
</g>
</g>
<!-- Node30&#45;&gt;Node31 -->
<g id="edge33" class="edge"><title>Node30&#45;&gt;Node31</title>
<path fill="none" stroke="midnightblue" d="M852.274,-180.489C869.299,-183.959 887.461,-187.661 903.338,-190.897"/>
<polygon fill="midnightblue" stroke="midnightblue" points="852.905,-177.046 842.408,-178.478 851.507,-183.905 852.905,-177.046"/>
</g>
<!-- Node32 -->
<g id="node32" class="node"><title>Node32</title>
<g id="a_node32"><a xlink:href="../../dc/d73/server_2miscfunctions_8qh.html#ae60e63a20482389086630191d5d8d336" target="_top" xlink:title="WarpZone_crosshair\l_trace">
<polygon fill="none" stroke="black" points="895.5,-141 895.5,-171 1002.5,-171 1002.5,-141 895.5,-141"/>
<text text-anchor="start" x="903.5" y="-159" font-family="Helvetica,sans-Serif" font-size="10.00">WarpZone_crosshair</text>
<text text-anchor="middle" x="949" y="-148" font-family="Helvetica,sans-Serif" font-size="10.00">_trace</text>
</a>
</g>
</g>
<!-- Node30&#45;&gt;Node32 -->
<g id="edge35" class="edge"><title>Node30&#45;&gt;Node32</title>
<path fill="none" stroke="midnightblue" d="M852.556,-163.295C866.72,-162.212 881.657,-161.071 895.401,-160.02"/>
<polygon fill="midnightblue" stroke="midnightblue" points="852.112,-159.819 842.408,-164.071 852.645,-166.798 852.112,-159.819"/>
</g>
<!-- Node33 -->
<g id="node33" class="node"><title>Node33</title>
<g id="a_node33"><a xlink:href="../../d7/dc4/waypoints_8qc.html#afa52e1b95c5f729f7ccaa96f8bc6a798" target="_top" xlink:title="crosshair_trace_waypoints">
<polygon fill="none" stroke="black" points="1066.5,-179.5 1066.5,-198.5 1199.5,-198.5 1199.5,-179.5 1066.5,-179.5"/>
<text text-anchor="middle" x="1133" y="-186.5" font-family="Helvetica,sans-Serif" font-size="10.00">crosshair_trace_waypoints</text>
</a>
</g>
</g>
<!-- Node32&#45;&gt;Node33 -->
<g id="edge36" class="edge"><title>Node32&#45;&gt;Node33</title>
<path fill="none" stroke="midnightblue" d="M1012.77,-167.381C1034.51,-171.324 1058.64,-175.699 1079.48,-179.476"/>
<polygon fill="midnightblue" stroke="midnightblue" points="1013.11,-163.885 1002.64,-165.545 1011.86,-170.773 1013.11,-163.885"/>
</g>
<!-- Node39 -->
<g id="node39" class="node"><title>Node39</title>
<g id="a_node39"><a xlink:href="../../d4/d53/server_2impulse_8qc.html#a27f0ad82125c1eaf612f245357ac704a" target="_top" xlink:title="IMPULSE">
<polygon fill="none" stroke="black" points="1102.5,-141.5 1102.5,-160.5 1163.5,-160.5 1163.5,-141.5 1102.5,-141.5"/>
<text text-anchor="middle" x="1133" y="-148.5" font-family="Helvetica,sans-Serif" font-size="10.00">IMPULSE</text>
</a>
</g>
</g>
<!-- Node32&#45;&gt;Node39 -->
<g id="edge43" class="edge"><title>Node32&#45;&gt;Node39</title>
<path fill="none" stroke="midnightblue" d="M1012.75,-154.276C1043.15,-153.441 1078.22,-152.478 1102.42,-151.813"/>
<polygon fill="midnightblue" stroke="midnightblue" points="1012.54,-150.78 1002.64,-154.554 1012.73,-157.778 1012.54,-150.78"/>
</g>
<!-- Node34 -->
<g id="node34" class="node"><title>Node34</title>
<g id="a_node34"><a xlink:href="../../d7/dc4/waypoints_8qc.html#a03470d04032e2bb726a91a9f32faad38" target="_top" xlink:title="waypoint_lock">
<polygon fill="none" stroke="black" points="1278.5,-238.5 1278.5,-257.5 1357.5,-257.5 1357.5,-238.5 1278.5,-238.5"/>
<text text-anchor="middle" x="1318" y="-245.5" font-family="Helvetica,sans-Serif" font-size="10.00">waypoint_lock</text>
</a>
</g>
</g>
<!-- Node33&#45;&gt;Node34 -->
<g id="edge37" class="edge"><title>Node33&#45;&gt;Node34</title>
<path fill="none" stroke="midnightblue" d="M1168.72,-202.227C1190.72,-210.399 1219.85,-220.845 1246,-229 1256.6,-232.305 1268.19,-235.557 1278.88,-238.412"/>
<polygon fill="midnightblue" stroke="midnightblue" points="1169.75,-198.873 1159.16,-198.648 1167.3,-205.43 1169.75,-198.873"/>
</g>
<!-- Node36 -->
<g id="node36" class="node"><title>Node36</title>
<g id="a_node36"><a xlink:href="../../d7/dc4/waypoints_8qc.html#aeba6f9ec460907e0848c20e92165c984" target="_top" xlink:title="waypoint_start_hardwiredlink">
<polygon fill="none" stroke="black" points="1246.5,-200.5 1246.5,-219.5 1389.5,-219.5 1389.5,-200.5 1246.5,-200.5"/>
<text text-anchor="middle" x="1318" y="-207.5" font-family="Helvetica,sans-Serif" font-size="10.00">waypoint_start_hardwiredlink</text>
</a>
</g>
</g>
<!-- Node33&#45;&gt;Node36 -->
<g id="edge39" class="edge"><title>Node33&#45;&gt;Node36</title>
<path fill="none" stroke="midnightblue" d="M1209.64,-197.68C1221.78,-199.074 1234.31,-200.511 1246.33,-201.891"/>
<polygon fill="midnightblue" stroke="midnightblue" points="1209.88,-194.185 1199.55,-196.522 1209.09,-201.139 1209.88,-194.185"/>
</g>
<!-- Node37 -->
<g id="node37" class="node"><title>Node37</title>
<g id="a_node37"><a xlink:href="../../d1/d2a/waypoints_8qh.html#adbb4b8bb3e2ced6dd51f50dd8d374054" target="_top" xlink:title="waypoint_spawn_fromeditor">
<polygon fill="none" stroke="black" points="1249,-162.5 1249,-181.5 1387,-181.5 1387,-162.5 1249,-162.5"/>
<text text-anchor="middle" x="1318" y="-169.5" font-family="Helvetica,sans-Serif" font-size="10.00">waypoint_spawn_fromeditor</text>
</a>
</g>
</g>
<!-- Node33&#45;&gt;Node37 -->
<g id="edge41" class="edge"><title>Node33&#45;&gt;Node37</title>
<path fill="none" stroke="midnightblue" d="M1209.81,-181.958C1222.74,-180.756 1236.1,-179.515 1248.82,-178.334"/>
<polygon fill="midnightblue" stroke="midnightblue" points="1209.18,-178.501 1199.55,-182.911 1209.83,-185.471 1209.18,-178.501"/>
</g>
<!-- Node38 -->
<g id="node38" class="node"><title>Node38</title>
<g id="a_node38"><a xlink:href="../../d1/d2a/waypoints_8qh.html#adc1610e5d4a39012b64c05f12d9ccd82" target="_top" xlink:title="botframe_showwaypointlinks">
<polygon fill="none" stroke="black" points="1246.5,-124.5 1246.5,-143.5 1389.5,-143.5 1389.5,-124.5 1246.5,-124.5"/>
<text text-anchor="middle" x="1318" y="-131.5" font-family="Helvetica,sans-Serif" font-size="10.00">botframe_showwaypointlinks</text>
</a>
</g>
</g>
<!-- Node33&#45;&gt;Node38 -->
<g id="edge42" class="edge"><title>Node33&#45;&gt;Node38</title>
<path fill="none" stroke="midnightblue" d="M1187.98,-176.9C1195.45,-174.822 1202.96,-172.513 1210,-170 1226.66,-164.048 1229.39,-159.089 1246,-153 1255.7,-149.443 1266.38,-146.235 1276.43,-143.511"/>
<polygon fill="midnightblue" stroke="midnightblue" points="1187.01,-173.538 1178.24,-179.495 1188.81,-180.302 1187.01,-173.538"/>
</g>
<!-- Node35 -->
<g id="node35" class="node"><title>Node35</title>
<g id="a_node35"><a xlink:href="../../d8/d1d/cmd_8qc.html#a0c42ae5ee5b88c336b9cf1d7307c0ed5" target="_top" xlink:title="ClientCommand_wpeditor">
<polygon fill="none" stroke="black" points="1426.5,-219.5 1426.5,-238.5 1555.5,-238.5 1555.5,-219.5 1426.5,-219.5"/>
<text text-anchor="middle" x="1491" y="-226.5" font-family="Helvetica,sans-Serif" font-size="10.00">ClientCommand_wpeditor</text>
</a>
</g>
</g>
<!-- Node34&#45;&gt;Node35 -->
<g id="edge38" class="edge"><title>Node34&#45;&gt;Node35</title>
<path fill="none" stroke="midnightblue" d="M1367.86,-242.571C1386.02,-240.553 1406.9,-238.233 1426.2,-236.089"/>
<polygon fill="midnightblue" stroke="midnightblue" points="1367.35,-239.106 1357.8,-243.689 1368.13,-246.063 1367.35,-239.106"/>
</g>
<!-- Node36&#45;&gt;Node35 -->
<g id="edge40" class="edge"><title>Node36&#45;&gt;Node35</title>
<path fill="none" stroke="midnightblue" d="M1399.65,-218.961C1408.65,-219.961 1417.72,-220.969 1426.47,-221.941"/>
<polygon fill="midnightblue" stroke="midnightblue" points="1399.86,-215.464 1389.54,-217.838 1399.09,-222.421 1399.86,-215.464"/>
</g>
</g>
</svg>
