<?xml version="1.0" encoding="UTF-8" standalone="no"?>
<!DOCTYPE svg PUBLIC "-//W3C//DTD SVG 1.1//EN"
 "http://www.w3.org/Graphics/SVG/1.1/DTD/svg11.dtd">
<!-- Generated by graphviz version 2.36.0 (20140111.2315)
 -->
<!-- Title: antilag_takeback_all Pages: 1 -->
<svg width="1924pt" height="287pt"
 viewBox="0.00 0.00 1924.00 287.00" xmlns="http://www.w3.org/2000/svg" xmlns:xlink="http://www.w3.org/1999/xlink">
<g id="graph0" class="graph" transform="scale(1 1) rotate(0) translate(4 283)">
<title>antilag_takeback_all</title>
<!-- Node1 -->
<g id="node1" class="node"><title>Node1</title>
<polygon fill="#bfbfbf" stroke="black" points="0.5,-85.5 0.5,-104.5 105.5,-104.5 105.5,-85.5 0.5,-85.5"/>
<text text-anchor="middle" x="53" y="-92.5" font-family="Helvetica,sans-Serif" font-size="10.00">antilag_takeback_all</text>
</g>
<!-- Node2 -->
<g id="node2" class="node"><title>Node2</title>
<g id="a_node2"><a xlink:href="../../d4/d3f/tracing_8qh.html#a551ba0023345cf92e649978ba2f88de0" target="_top" xlink:title="fireBullet">
<polygon fill="none" stroke="black" points="181.5,-104.5 181.5,-123.5 236.5,-123.5 236.5,-104.5 181.5,-104.5"/>
<text text-anchor="middle" x="209" y="-111.5" font-family="Helvetica,sans-Serif" font-size="10.00">fireBullet</text>
</a>
</g>
</g>
<!-- Node1&#45;&gt;Node2 -->
<g id="edge1" class="edge"><title>Node1&#45;&gt;Node2</title>
<path fill="none" stroke="midnightblue" d="M115.685,-102.611C138.497,-105.425 163.178,-108.47 181.276,-110.703"/>
<polygon fill="midnightblue" stroke="midnightblue" points="116.062,-99.1305 105.708,-101.38 115.204,-106.078 116.062,-99.1305"/>
</g>
<!-- Node3 -->
<g id="node3" class="node"><title>Node3</title>
<g id="a_node3"><a xlink:href="../../d0/dd2/antilag_8qh.html#a16360420959782f6972ac30eec10327a" target="_top" xlink:title="tracebox_antilag_force_wz">
<polygon fill="none" stroke="black" points="142.5,-66.5 142.5,-85.5 275.5,-85.5 275.5,-66.5 142.5,-66.5"/>
<text text-anchor="middle" x="209" y="-73.5" font-family="Helvetica,sans-Serif" font-size="10.00">tracebox_antilag_force_wz</text>
</a>
</g>
</g>
<!-- Node1&#45;&gt;Node3 -->
<g id="edge2" class="edge"><title>Node1&#45;&gt;Node3</title>
<path fill="none" stroke="midnightblue" d="M115.844,-87.3699C124.609,-86.2884 133.648,-85.1733 142.48,-84.0836"/>
<polygon fill="midnightblue" stroke="midnightblue" points="115.204,-83.9222 105.708,-88.6204 116.062,-90.8695 115.204,-83.9222"/>
</g>
<!-- Node4 -->
<g id="node4" class="node"><title>Node4</title>
<g id="a_node4"><a xlink:href="../../d0/dd2/antilag_8qh.html#ae2572b5fa7a3e76a4ff54cd41a55cf04" target="_top" xlink:title="traceline_antilag_force">
<polygon fill="none" stroke="black" points="324,-145.5 324,-164.5 438,-164.5 438,-145.5 324,-145.5"/>
<text text-anchor="middle" x="381" y="-152.5" font-family="Helvetica,sans-Serif" font-size="10.00">traceline_antilag_force</text>
</a>
</g>
</g>
<!-- Node3&#45;&gt;Node4 -->
<g id="edge3" class="edge"><title>Node3&#45;&gt;Node4</title>
<path fill="none" stroke="midnightblue" d="M258.782,-88.5834C264.659,-90.5257 270.516,-92.67 276,-95 309.765,-109.347 346.26,-132.326 365.771,-145.287"/>
<polygon fill="midnightblue" stroke="midnightblue" points="259.526,-85.149 248.937,-85.5081 257.439,-91.8306 259.526,-85.149"/>
</g>
<!-- Node23 -->
<g id="node23" class="node"><title>Node23</title>
<g id="a_node23"><a xlink:href="../../d0/dd2/antilag_8qh.html#a098ba0cc6ccdbc147f0bf68b30238cc5" target="_top" xlink:title="tracebox_antilag">
<polygon fill="none" stroke="black" points="494,-88.5 494,-107.5 582,-107.5 582,-88.5 494,-88.5"/>
<text text-anchor="middle" x="538" y="-95.5" font-family="Helvetica,sans-Serif" font-size="10.00">tracebox_antilag</text>
</a>
</g>
</g>
<!-- Node3&#45;&gt;Node23 -->
<g id="edge23" class="edge"><title>Node3&#45;&gt;Node23</title>
<path fill="none" stroke="midnightblue" d="M285.909,-81.107C350.463,-85.4501 440.864,-91.5322 493.743,-95.0897"/>
<polygon fill="midnightblue" stroke="midnightblue" points="285.992,-77.6048 275.78,-80.4256 285.522,-84.589 285.992,-77.6048"/>
</g>
<!-- Node24 -->
<g id="node24" class="node"><title>Node24</title>
<g id="a_node24"><a xlink:href="../../d0/dd2/antilag_8qh.html#ad351eda3d83e3ac892325b85272f5f1b" target="_top" xlink:title="WarpZone_traceline\l_antilag_force">
<polygon fill="none" stroke="black" points="329,-39 329,-69 433,-69 433,-39 329,-39"/>
<text text-anchor="start" x="337" y="-57" font-family="Helvetica,sans-Serif" font-size="10.00">WarpZone_traceline</text>
<text text-anchor="middle" x="381" y="-46" font-family="Helvetica,sans-Serif" font-size="10.00">_antilag_force</text>
</a>
</g>
</g>
<!-- Node3&#45;&gt;Node24 -->
<g id="edge25" class="edge"><title>Node3&#45;&gt;Node24</title>
<path fill="none" stroke="midnightblue" d="M285.762,-66.1956C300.373,-64.3047 315.353,-62.3661 328.947,-60.6069"/>
<polygon fill="midnightblue" stroke="midnightblue" points="285.195,-62.7397 275.726,-67.4942 286.093,-69.6818 285.195,-62.7397"/>
</g>
<!-- Node29 -->
<g id="node29" class="node"><title>Node29</title>
<g id="a_node29"><a xlink:href="../../d0/dd2/antilag_8qh.html#a9cacf5619ae2d9d345af6f30d59cc9c8" target="_top" xlink:title="WarpZone_tracebox_antilag">
<polygon fill="none" stroke="black" points="312,-0.5 312,-19.5 450,-19.5 450,-0.5 312,-0.5"/>
<text text-anchor="middle" x="381" y="-7.5" font-family="Helvetica,sans-Serif" font-size="10.00">WarpZone_tracebox_antilag</text>
</a>
</g>
</g>
<!-- Node3&#45;&gt;Node29 -->
<g id="edge31" class="edge"><title>Node3&#45;&gt;Node29</title>
<path fill="none" stroke="midnightblue" d="M237.386,-61.9312C257.641,-51.8858 286.089,-38.5207 312,-29 321.435,-25.5334 331.802,-22.3381 341.537,-19.5961"/>
<polygon fill="midnightblue" stroke="midnightblue" points="235.793,-58.8147 228.423,-66.4256 238.931,-65.0722 235.793,-58.8147"/>
</g>
<!-- Node5 -->
<g id="node5" class="node"><title>Node5</title>
<g id="a_node5"><a xlink:href="../../dc/d73/server_2miscfunctions_8qh.html#a5edf83b72581bc3ed7f4b512f534fbfe" target="_top" xlink:title="traceline_antilag">
<polygon fill="none" stroke="black" points="494.5,-202.5 494.5,-221.5 581.5,-221.5 581.5,-202.5 494.5,-202.5"/>
<text text-anchor="middle" x="538" y="-209.5" font-family="Helvetica,sans-Serif" font-size="10.00">traceline_antilag</text>
</a>
</g>
</g>
<!-- Node4&#45;&gt;Node5 -->
<g id="edge4" class="edge"><title>Node4&#45;&gt;Node5</title>
<path fill="none" stroke="midnightblue" d="M417.529,-168.065C446.02,-178.543 485.347,-193.005 510.972,-202.428"/>
<polygon fill="midnightblue" stroke="midnightblue" points="418.537,-164.707 407.944,-164.541 416.121,-171.277 418.537,-164.707"/>
</g>
<!-- Node21 -->
<g id="node21" class="node"><title>Node21</title>
<g id="a_node21"><a xlink:href="../../dc/d8b/hitplot_8qh.html#aa359fe907f8329debabde7dfeb217ff0" target="_top" xlink:title="W_HitPlotAnalysis">
<polygon fill="none" stroke="black" points="488.5,-164.5 488.5,-183.5 587.5,-183.5 587.5,-164.5 488.5,-164.5"/>
<text text-anchor="middle" x="538" y="-171.5" font-family="Helvetica,sans-Serif" font-size="10.00">W_HitPlotAnalysis</text>
</a>
</g>
</g>
<!-- Node4&#45;&gt;Node21 -->
<g id="edge20" class="edge"><title>Node4&#45;&gt;Node21</title>
<path fill="none" stroke="midnightblue" d="M448.507,-163.152C461.877,-164.791 475.693,-166.485 488.318,-168.033"/>
<polygon fill="midnightblue" stroke="midnightblue" points="448.749,-159.656 438.397,-161.913 447.897,-166.604 448.749,-159.656"/>
</g>
<!-- Node22 -->
<g id="node22" class="node"><title>Node22</title>
<g id="a_node22"><a xlink:href="../../d4/d3f/tracing_8qh.html#a52cf4ee852e785e8283028712ce0a57f" target="_top" xlink:title="W_SetupShot_Dir_Projectile\lSize_Range">
<polygon fill="none" stroke="black" points="626.5,-102 626.5,-132 767.5,-132 767.5,-102 626.5,-102"/>
<text text-anchor="start" x="634.5" y="-120" font-family="Helvetica,sans-Serif" font-size="10.00">W_SetupShot_Dir_Projectile</text>
<text text-anchor="middle" x="697" y="-109" font-family="Helvetica,sans-Serif" font-size="10.00">Size_Range</text>
</a>
</g>
</g>
<!-- Node4&#45;&gt;Node22 -->
<g id="edge22" class="edge"><title>Node4&#45;&gt;Node22</title>
<path fill="none" stroke="midnightblue" d="M448.306,-146.976C500.569,-140.651 573.239,-131.856 626.348,-125.429"/>
<polygon fill="midnightblue" stroke="midnightblue" points="447.644,-143.53 438.137,-148.206 448.485,-150.479 447.644,-143.53"/>
</g>
<!-- Node6 -->
<g id="node6" class="node"><title>Node6</title>
<g id="a_node6"><a xlink:href="../../dc/d73/server_2miscfunctions_8qh.html#a8292725ec840a49d42ef6453aaf838f6" target="_top" xlink:title="crosshair_trace">
<polygon fill="none" stroke="black" points="655.5,-202.5 655.5,-221.5 738.5,-221.5 738.5,-202.5 655.5,-202.5"/>
<text text-anchor="middle" x="697" y="-209.5" font-family="Helvetica,sans-Serif" font-size="10.00">crosshair_trace</text>
</a>
</g>
</g>
<!-- Node5&#45;&gt;Node6 -->
<g id="edge5" class="edge"><title>Node5&#45;&gt;Node6</title>
<path fill="none" stroke="midnightblue" d="M592.11,-212C612.759,-212 636.035,-212 655.313,-212"/>
<polygon fill="midnightblue" stroke="midnightblue" points="591.901,-208.5 581.901,-212 591.901,-215.5 591.901,-208.5"/>
</g>
<!-- Node7 -->
<g id="node7" class="node"><title>Node7</title>
<g id="a_node7"><a xlink:href="../../d3/dca/cheats_8qh.html#a1549477544784a0c7e5134dbd72b3a28" target="_top" xlink:title="CheatCommand">
<polygon fill="none" stroke="black" points="804,-202.5 804,-221.5 892,-221.5 892,-202.5 804,-202.5"/>
<text text-anchor="middle" x="848" y="-209.5" font-family="Helvetica,sans-Serif" font-size="10.00">CheatCommand</text>
</a>
</g>
</g>
<!-- Node6&#45;&gt;Node7 -->
<g id="edge6" class="edge"><title>Node6&#45;&gt;Node7</title>
<path fill="none" stroke="midnightblue" d="M748.735,-212C766.702,-212 786.728,-212 803.991,-212"/>
<polygon fill="midnightblue" stroke="midnightblue" points="748.715,-208.5 738.715,-212 748.715,-215.5 748.715,-208.5"/>
</g>
<!-- Node8 -->
<g id="node8" class="node"><title>Node8</title>
<g id="a_node8"><a xlink:href="../../d3/dca/cheats_8qh.html#a73c94da2bf38acf3536154e899458024" target="_top" xlink:title="CheatImpulse">
<polygon fill="none" stroke="black" points="955.5,-221.5 955.5,-240.5 1032.5,-240.5 1032.5,-221.5 955.5,-221.5"/>
<text text-anchor="middle" x="994" y="-228.5" font-family="Helvetica,sans-Serif" font-size="10.00">CheatImpulse</text>
</a>
</g>
</g>
<!-- Node7&#45;&gt;Node8 -->
<g id="edge7" class="edge"><title>Node7&#45;&gt;Node8</title>
<path fill="none" stroke="midnightblue" d="M902.326,-219.036C919.886,-221.353 939.039,-223.88 955.198,-226.012"/>
<polygon fill="midnightblue" stroke="midnightblue" points="902.577,-215.539 892.205,-217.701 901.661,-222.479 902.577,-215.539"/>
</g>
<!-- Node14 -->
<g id="node14" class="node"><title>Node14</title>
<g id="a_node14"><a xlink:href="../../d8/d1d/cmd_8qc.html#a67c2dd926692b0635c83bcef05983b3b" target="_top" xlink:title="SV_ParseClientCommand">
<polygon fill="none" stroke="black" points="928.5,-183.5 928.5,-202.5 1059.5,-202.5 1059.5,-183.5 928.5,-183.5"/>
<text text-anchor="middle" x="994" y="-190.5" font-family="Helvetica,sans-Serif" font-size="10.00">SV_ParseClientCommand</text>
</a>
</g>
</g>
<!-- Node7&#45;&gt;Node14 -->
<g id="edge13" class="edge"><title>Node7&#45;&gt;Node14</title>
<path fill="none" stroke="midnightblue" d="M902.299,-204.967C910.753,-203.852 919.577,-202.688 928.258,-201.542"/>
<polygon fill="midnightblue" stroke="midnightblue" points="901.661,-201.521 892.205,-206.299 902.577,-208.461 901.661,-201.521"/>
</g>
<!-- Node9 -->
<g id="node9" class="node"><title>Node9</title>
<g id="a_node9"><a xlink:href="../../d3/dd1/server_2impulse_8qh.html#a592fd33e424a2e05854957b679c37e1b" target="_top" xlink:title="ImpulseCommands">
<polygon fill="none" stroke="black" points="1096.5,-221.5 1096.5,-240.5 1197.5,-240.5 1197.5,-221.5 1096.5,-221.5"/>
<text text-anchor="middle" x="1147" y="-228.5" font-family="Helvetica,sans-Serif" font-size="10.00">ImpulseCommands</text>
</a>
</g>
</g>
<!-- Node8&#45;&gt;Node9 -->
<g id="edge8" class="edge"><title>Node8&#45;&gt;Node9</title>
<path fill="none" stroke="midnightblue" d="M1042.98,-231C1059.96,-231 1079.11,-231 1096.24,-231"/>
<polygon fill="midnightblue" stroke="midnightblue" points="1042.71,-227.5 1032.71,-231 1042.71,-234.5 1042.71,-227.5"/>
</g>
<!-- Node10 -->
<g id="node10" class="node"><title>Node10</title>
<g id="a_node10"><a xlink:href="../../df/dd7/server_2client_8qc.html#a35da2ff46a7d16ee6dd935fc1e65a72c" target="_top" xlink:title="PlayerPostThink">
<polygon fill="none" stroke="black" points="1264.5,-259.5 1264.5,-278.5 1353.5,-278.5 1353.5,-259.5 1264.5,-259.5"/>
<text text-anchor="middle" x="1309" y="-266.5" font-family="Helvetica,sans-Serif" font-size="10.00">PlayerPostThink</text>
</a>
</g>
</g>
<!-- Node9&#45;&gt;Node10 -->
<g id="edge9" class="edge"><title>Node9&#45;&gt;Node10</title>
<path fill="none" stroke="midnightblue" d="M1198.39,-242.968C1220.81,-248.293 1246.85,-254.476 1267.92,-259.48"/>
<polygon fill="midnightblue" stroke="midnightblue" points="1198.91,-239.495 1188.37,-240.589 1197.3,-246.305 1198.91,-239.495"/>
</g>
<!-- Node12 -->
<g id="node12" class="node"><title>Node12</title>
<g id="a_node12"><a xlink:href="../../df/dd7/server_2client_8qc.html#a996803179cd9557a7b4d806d08cc74f3" target="_top" xlink:title="PutPlayerInServer">
<polygon fill="none" stroke="black" points="1261,-221.5 1261,-240.5 1357,-240.5 1357,-221.5 1261,-221.5"/>
<text text-anchor="middle" x="1309" y="-228.5" font-family="Helvetica,sans-Serif" font-size="10.00">PutPlayerInServer</text>
</a>
</g>
</g>
<!-- Node9&#45;&gt;Node12 -->
<g id="edge11" class="edge"><title>Node9&#45;&gt;Node12</title>
<path fill="none" stroke="midnightblue" d="M1207.85,-231C1225.32,-231 1244.17,-231 1260.74,-231"/>
<polygon fill="midnightblue" stroke="midnightblue" points="1207.75,-227.5 1197.75,-231 1207.75,-234.5 1207.75,-227.5"/>
</g>
<!-- Node11 -->
<g id="node11" class="node"><title>Node11</title>
<g id="a_node11"><a xlink:href="../../d3/d4f/sv__main_8qc.html#a554af7e2ac58045168dad9eca30bc8b1" target="_top" xlink:title="StartFrame">
<polygon fill="none" stroke="black" points="1449.5,-259.5 1449.5,-278.5 1514.5,-278.5 1514.5,-259.5 1449.5,-259.5"/>
<text text-anchor="middle" x="1482" y="-266.5" font-family="Helvetica,sans-Serif" font-size="10.00">StartFrame</text>
</a>
</g>
</g>
<!-- Node10&#45;&gt;Node11 -->
<g id="edge10" class="edge"><title>Node10&#45;&gt;Node11</title>
<path fill="none" stroke="midnightblue" d="M1363.7,-269C1391.85,-269 1425.38,-269 1449.36,-269"/>
<polygon fill="midnightblue" stroke="midnightblue" points="1363.59,-265.5 1353.59,-269 1363.59,-272.5 1363.59,-265.5"/>
</g>
<!-- Node13 -->
<g id="node13" class="node"><title>Node13</title>
<g id="a_node13"><a xlink:href="../../df/dd7/server_2client_8qc.html#ac8cee1fb565123245189b49f1ab94951" target="_top" xlink:title="Called when a client spawns in the server. ">
<polygon fill="none" stroke="black" points="1435,-221.5 1435,-240.5 1529,-240.5 1529,-221.5 1435,-221.5"/>
<text text-anchor="middle" x="1482" y="-228.5" font-family="Helvetica,sans-Serif" font-size="10.00">PutClientInServer</text>
</a>
</g>
</g>
<!-- Node12&#45;&gt;Node13 -->
<g id="edge12" class="edge"><title>Node12&#45;&gt;Node13</title>
<path fill="none" stroke="midnightblue" d="M1367.38,-231C1389.34,-231 1414.08,-231 1434.86,-231"/>
<polygon fill="midnightblue" stroke="midnightblue" points="1367.18,-227.5 1357.18,-231 1367.18,-234.5 1367.18,-227.5"/>
</g>
<!-- Node15 -->
<g id="node15" class="node"><title>Node15</title>
<g id="a_node15"><a xlink:href="../../d6/d27/scripting_8qc.html#a9337e576a1412382ff54132dd8d46b28" target="_top" xlink:title="bot_cmd_cc">
<polygon fill="none" stroke="black" points="1112,-183.5 1112,-202.5 1182,-202.5 1182,-183.5 1112,-183.5"/>
<text text-anchor="middle" x="1147" y="-190.5" font-family="Helvetica,sans-Serif" font-size="10.00">bot_cmd_cc</text>
</a>
</g>
</g>
<!-- Node14&#45;&gt;Node15 -->
<g id="edge14" class="edge"><title>Node14&#45;&gt;Node15</title>
<path fill="none" stroke="midnightblue" d="M1070.04,-193C1084.72,-193 1099.42,-193 1111.92,-193"/>
<polygon fill="midnightblue" stroke="midnightblue" points="1069.91,-189.5 1059.91,-193 1069.91,-196.5 1069.91,-189.5"/>
</g>
<!-- Node16 -->
<g id="node16" class="node"><title>Node16</title>
<g id="a_node16"><a xlink:href="../../d6/d27/scripting_8qc.html#aaca537ca751853fba4204c751942df21" target="_top" xlink:title="bot_execute_commands_once">
<polygon fill="none" stroke="black" points="1234.5,-183.5 1234.5,-202.5 1383.5,-202.5 1383.5,-183.5 1234.5,-183.5"/>
<text text-anchor="middle" x="1309" y="-190.5" font-family="Helvetica,sans-Serif" font-size="10.00">bot_execute_commands_once</text>
</a>
</g>
</g>
<!-- Node15&#45;&gt;Node16 -->
<g id="edge15" class="edge"><title>Node15&#45;&gt;Node16</title>
<path fill="none" stroke="midnightblue" d="M1192.38,-193C1205.38,-193 1219.96,-193 1234.27,-193"/>
<polygon fill="midnightblue" stroke="midnightblue" points="1192.32,-189.5 1182.32,-193 1192.32,-196.5 1192.32,-189.5"/>
</g>
<!-- Node17 -->
<g id="node17" class="node"><title>Node17</title>
<g id="a_node17"><a xlink:href="../../d8/d14/scripting_8qh.html#abad1d3e4714ca1832aab73ee2b8862ea" target="_top" xlink:title="bot_execute_commands">
<polygon fill="none" stroke="black" points="1420.5,-183.5 1420.5,-202.5 1543.5,-202.5 1543.5,-183.5 1420.5,-183.5"/>
<text text-anchor="middle" x="1482" y="-190.5" font-family="Helvetica,sans-Serif" font-size="10.00">bot_execute_commands</text>
</a>
</g>
</g>
<!-- Node16&#45;&gt;Node17 -->
<g id="edge16" class="edge"><title>Node16&#45;&gt;Node17</title>
<path fill="none" stroke="midnightblue" d="M1393.67,-193C1402.69,-193 1411.74,-193 1420.41,-193"/>
<polygon fill="midnightblue" stroke="midnightblue" points="1393.51,-189.5 1383.51,-193 1393.51,-196.5 1393.51,-189.5"/>
</g>
<!-- Node18 -->
<g id="node18" class="node"><title>Node18</title>
<g id="a_node18"><a xlink:href="../../d8/d39/havocbot_8qh.html#ade0b4e09f77eaadd022af3ee44c6a3fc" target="_top" xlink:title="havocbot_ai">
<polygon fill="none" stroke="black" points="1580.5,-183.5 1580.5,-202.5 1649.5,-202.5 1649.5,-183.5 1580.5,-183.5"/>
<text text-anchor="middle" x="1615" y="-190.5" font-family="Helvetica,sans-Serif" font-size="10.00">havocbot_ai</text>
</a>
</g>
</g>
<!-- Node17&#45;&gt;Node18 -->
<g id="edge17" class="edge"><title>Node17&#45;&gt;Node18</title>
<path fill="none" stroke="midnightblue" d="M1553.58,-193C1562.83,-193 1571.95,-193 1580.19,-193"/>
<polygon fill="midnightblue" stroke="midnightblue" points="1553.52,-189.5 1543.52,-193 1553.51,-196.5 1553.52,-189.5"/>
</g>
<!-- Node19 -->
<g id="node19" class="node"><title>Node19</title>
<g id="a_node19"><a xlink:href="../../d8/d39/havocbot_8qh.html#afb882bcf6c4a44e801e4fb9eafbbf1f4" target="_top" xlink:title="havocbot_setupbot">
<polygon fill="none" stroke="black" points="1686.5,-183.5 1686.5,-202.5 1785.5,-202.5 1785.5,-183.5 1686.5,-183.5"/>
<text text-anchor="middle" x="1736" y="-190.5" font-family="Helvetica,sans-Serif" font-size="10.00">havocbot_setupbot</text>
</a>
</g>
</g>
<!-- Node18&#45;&gt;Node19 -->
<g id="edge18" class="edge"><title>Node18&#45;&gt;Node19</title>
<path fill="none" stroke="midnightblue" d="M1660.01,-193C1668.63,-193 1677.72,-193 1686.47,-193"/>
<polygon fill="midnightblue" stroke="midnightblue" points="1659.78,-189.5 1649.78,-193 1659.78,-196.5 1659.78,-189.5"/>
</g>
<!-- Node20 -->
<g id="node20" class="node"><title>Node20</title>
<g id="a_node20"><a xlink:href="../../d1/da9/bot_8qh.html#abd19370e4d61d3549dbbe44826531536" target="_top" xlink:title="bot_clientconnect">
<polygon fill="none" stroke="black" points="1822.5,-183.5 1822.5,-202.5 1915.5,-202.5 1915.5,-183.5 1822.5,-183.5"/>
<text text-anchor="middle" x="1869" y="-190.5" font-family="Helvetica,sans-Serif" font-size="10.00">bot_clientconnect</text>
</a>
</g>
</g>
<!-- Node19&#45;&gt;Node20 -->
<g id="edge19" class="edge"><title>Node19&#45;&gt;Node20</title>
<path fill="none" stroke="midnightblue" d="M1796,-193C1804.79,-193 1813.75,-193 1822.22,-193"/>
<polygon fill="midnightblue" stroke="midnightblue" points="1795.78,-189.5 1785.78,-193 1795.78,-196.5 1795.78,-189.5"/>
</g>
<!-- Node21&#45;&gt;Node22 -->
<g id="edge21" class="edge"><title>Node21&#45;&gt;Node22</title>
<path fill="none" stroke="midnightblue" d="M574.946,-160.949C598.66,-152.34 629.798,-141.035 654.555,-132.047"/>
<polygon fill="midnightblue" stroke="midnightblue" points="573.484,-157.757 565.278,-164.459 575.872,-164.337 573.484,-157.757"/>
</g>
<!-- Node23&#45;&gt;Node22 -->
<g id="edge24" class="edge"><title>Node23&#45;&gt;Node22</title>
<path fill="none" stroke="midnightblue" d="M592.49,-104.473C603.363,-105.789 614.95,-107.191 626.289,-108.564"/>
<polygon fill="midnightblue" stroke="midnightblue" points="592.665,-100.969 582.317,-103.242 591.824,-107.918 592.665,-100.969"/>
</g>
<!-- Node25 -->
<g id="node25" class="node"><title>Node25</title>
<g id="a_node25"><a xlink:href="../../dc/d73/server_2miscfunctions_8qh.html#aa349f780b5d2d608e278935b6e4c60db" target="_top" xlink:title="WarpZone_traceline\l_antilag">
<polygon fill="none" stroke="black" points="486,-39 486,-69 590,-69 590,-39 486,-39"/>
<text text-anchor="start" x="494" y="-57" font-family="Helvetica,sans-Serif" font-size="10.00">WarpZone_traceline</text>
<text text-anchor="middle" x="538" y="-46" font-family="Helvetica,sans-Serif" font-size="10.00">_antilag</text>
</a>
</g>
</g>
<!-- Node24&#45;&gt;Node25 -->
<g id="edge26" class="edge"><title>Node24&#45;&gt;Node25</title>
<path fill="none" stroke="midnightblue" d="M443.292,-54C457.396,-54 472.251,-54 485.871,-54"/>
<polygon fill="midnightblue" stroke="midnightblue" points="443.182,-50.5001 433.182,-54 443.182,-57.5001 443.182,-50.5001"/>
</g>
<!-- Node25&#45;&gt;Node22 -->
<g id="edge28" class="edge"><title>Node25&#45;&gt;Node22</title>
<path fill="none" stroke="midnightblue" d="M585.907,-72.8226C609.083,-82.1226 636.669,-93.1921 658.43,-101.924"/>
<polygon fill="midnightblue" stroke="midnightblue" points="587.19,-69.566 576.605,-69.0901 584.583,-76.0625 587.19,-69.566"/>
</g>
<!-- Node26 -->
<g id="node26" class="node"><title>Node26</title>
<g id="a_node26"><a xlink:href="../../d4/d3f/tracing_8qh.html#a87e5fe4c23732ae4ad1facb488e243ce" target="_top" xlink:title="FireRailgunBullet">
<polygon fill="none" stroke="black" points="651.5,-54.5 651.5,-73.5 742.5,-73.5 742.5,-54.5 651.5,-54.5"/>
<text text-anchor="middle" x="697" y="-61.5" font-family="Helvetica,sans-Serif" font-size="10.00">FireRailgunBullet</text>
</a>
</g>
</g>
<!-- Node25&#45;&gt;Node26 -->
<g id="edge27" class="edge"><title>Node25&#45;&gt;Node26</title>
<path fill="none" stroke="midnightblue" d="M600.752,-57.9332C617.638,-59.0088 635.609,-60.1534 651.338,-61.1553"/>
<polygon fill="midnightblue" stroke="midnightblue" points="600.61,-54.4172 590.408,-57.2744 600.165,-61.403 600.61,-54.4172"/>
</g>
<!-- Node27 -->
<g id="node27" class="node"><title>Node27</title>
<g id="a_node27"><a xlink:href="../../dc/d73/server_2miscfunctions_8qh.html#ae60e63a20482389086630191d5d8d336" target="_top" xlink:title="WarpZone_crosshair\l_trace">
<polygon fill="none" stroke="black" points="643.5,-5 643.5,-35 750.5,-35 750.5,-5 643.5,-5"/>
<text text-anchor="start" x="651.5" y="-23" font-family="Helvetica,sans-Serif" font-size="10.00">WarpZone_crosshair</text>
<text text-anchor="middle" x="697" y="-12" font-family="Helvetica,sans-Serif" font-size="10.00">_trace</text>
</a>
</g>
</g>
<!-- Node25&#45;&gt;Node27 -->
<g id="edge29" class="edge"><title>Node25&#45;&gt;Node27</title>
<path fill="none" stroke="midnightblue" d="M600.556,-40.6693C614.72,-37.602 629.657,-34.3673 643.401,-31.391"/>
<polygon fill="midnightblue" stroke="midnightblue" points="599.44,-37.3298 590.408,-42.8671 600.922,-44.1712 599.44,-37.3298"/>
</g>
<!-- Node28 -->
<g id="node28" class="node"><title>Node28</title>
<g id="a_node28"><a xlink:href="../../d4/d53/server_2impulse_8qc.html#a27f0ad82125c1eaf612f245357ac704a" target="_top" xlink:title="IMPULSE">
<polygon fill="none" stroke="black" points="817.5,-10.5 817.5,-29.5 878.5,-29.5 878.5,-10.5 817.5,-10.5"/>
<text text-anchor="middle" x="848" y="-17.5" font-family="Helvetica,sans-Serif" font-size="10.00">IMPULSE</text>
</a>
</g>
</g>
<!-- Node27&#45;&gt;Node28 -->
<g id="edge30" class="edge"><title>Node27&#45;&gt;Node28</title>
<path fill="none" stroke="midnightblue" d="M760.694,-20C780.382,-20 801.198,-20 817.454,-20"/>
<polygon fill="midnightblue" stroke="midnightblue" points="760.532,-16.5001 750.532,-20 760.532,-23.5001 760.532,-16.5001"/>
</g>
</g>
</svg>
