<?xml version="1.0" encoding="UTF-8" standalone="no"?>
<!DOCTYPE svg PUBLIC "-//W3C//DTD SVG 1.1//EN"
 "http://www.w3.org/Graphics/SVG/1.1/DTD/svg11.dtd">
<!-- Generated by graphviz version 2.38.0 (20140413.2041)
 -->
<!-- Title: Container_resizeNotifyLie Pages: 1 -->
<svg width="276pt" height="142pt"
 viewBox="0.00 0.00 276.00 142.00" xmlns="http://www.w3.org/2000/svg" xmlns:xlink="http://www.w3.org/1999/xlink">
<g id="graph0" class="graph" transform="scale(1 1) rotate(0) translate(4 138)">
<title>Container_resizeNotifyLie</title>
<!-- Node1 -->
<g id="node1" class="node"><title>Node1</title>
<polygon fill="#bfbfbf" stroke="black" points="0,-57.5 0,-76.5 138,-76.5 138,-57.5 0,-57.5"/>
<text text-anchor="middle" x="69" y="-64.5" font-family="Helvetica,sans-Serif" font-size="10.00">Container_resizeNotifyLie</text>
</g>
<!-- Node2 -->
<g id="node2" class="node"><title>Node2</title>
<g id="a_node2"><a xlink:href="../../d6/db1/draw_8qc.html#ad9ed2a82efe01e29eb48ff32dace86db" target="_top" xlink:title="boxToGlobal">
<polygon fill="none" stroke="black" points="184,-114.5 184,-133.5 258,-133.5 258,-114.5 184,-114.5"/>
<text text-anchor="middle" x="221" y="-121.5" font-family="Helvetica,sans-Serif" font-size="10.00">boxToGlobal</text>
</a>
</g>
</g>
<!-- Node1&#45;&gt;Node2 -->
<g id="edge1" class="edge"><title>Node1&#45;&gt;Node2</title>
<path fill="none" stroke="midnightblue" d="M95.1066,-76.5405C119.767,-85.9116 157.599,-100.288 185.164,-110.762"/>
<polygon fill="midnightblue" stroke="midnightblue" points="184.22,-114.148 194.811,-114.428 186.707,-107.604 184.22,-114.148"/>
</g>
<!-- Node3 -->
<g id="node3" class="node"><title>Node3</title>
<g id="a_node3"><a xlink:href="../../d6/db1/draw_8qc.html#ab8f2b0e7558bdad2ae9d4eadbb278257" target="_top" xlink:title="boxToGlobalSize">
<polygon fill="none" stroke="black" points="174,-76.5 174,-95.5 268,-95.5 268,-76.5 174,-76.5"/>
<text text-anchor="middle" x="221" y="-83.5" font-family="Helvetica,sans-Serif" font-size="10.00">boxToGlobalSize</text>
</a>
</g>
</g>
<!-- Node1&#45;&gt;Node3 -->
<g id="edge2" class="edge"><title>Node1&#45;&gt;Node3</title>
<path fill="none" stroke="midnightblue" d="M138.416,-75.666C146.782,-76.7258 155.259,-77.7995 163.425,-78.8339"/>
<polygon fill="midnightblue" stroke="midnightblue" points="163.211,-82.3346 173.571,-80.119 164.09,-75.39 163.211,-82.3346"/>
</g>
<!-- Node4 -->
<g id="node4" class="node"><title>Node4</title>
<g id="a_node4"><a xlink:href="../../d4/d0c/csprogsdefs_8qc.html#acbb54a239d76062465dccbc6a6c6e464" target="_top" xlink:title="entity">
<polygon fill="none" stroke="black" points="199,-38.5 199,-57.5 243,-57.5 243,-38.5 199,-38.5"/>
<text text-anchor="middle" x="221" y="-45.5" font-family="Helvetica,sans-Serif" font-size="10.00">entity</text>
</a>
</g>
</g>
<!-- Node1&#45;&gt;Node4 -->
<g id="edge3" class="edge"><title>Node1&#45;&gt;Node4</title>
<path fill="none" stroke="midnightblue" d="M138.416,-58.334C156.074,-56.0973 174.222,-53.7985 188.906,-51.9386"/>
<polygon fill="midnightblue" stroke="midnightblue" points="189.447,-55.398 198.928,-50.6691 188.568,-48.4535 189.447,-55.398"/>
</g>
<!-- Node5 -->
<g id="node5" class="node"><title>Node5</title>
<g id="a_node5"><a xlink:href="../../da/dde/csprogsdefs_8qh.html#a2626679e4144af8478202c6c28f90cd9" target="_top" xlink:title="vector">
<polygon fill="none" stroke="black" points="197.5,-0.5 197.5,-19.5 244.5,-19.5 244.5,-0.5 197.5,-0.5"/>
<text text-anchor="middle" x="221" y="-7.5" font-family="Helvetica,sans-Serif" font-size="10.00">vector</text>
</a>
</g>
</g>
<!-- Node1&#45;&gt;Node5 -->
<g id="edge4" class="edge"><title>Node1&#45;&gt;Node5</title>
<path fill="none" stroke="midnightblue" d="M95.1066,-57.4595C120.51,-47.8062 159.89,-32.8418 187.626,-22.3021"/>
<polygon fill="midnightblue" stroke="midnightblue" points="189.166,-25.4612 197.27,-18.6372 186.679,-18.9177 189.166,-25.4612"/>
</g>
</g>
</svg>
