<?xml version="1.0" encoding="UTF-8" standalone="no"?>
<!DOCTYPE svg PUBLIC "-//W3C//DTD SVG 1.1//EN"
 "http://www.w3.org/Graphics/SVG/1.1/DTD/svg11.dtd">
<!-- Generated by graphviz version 2.36.0 (20140111.2315)
 -->
<!-- Title: CSQCPlayer_LOD_Apply Pages: 1 -->
<svg width="492pt" height="38pt"
 viewBox="0.00 0.00 492.00 38.00" xmlns="http://www.w3.org/2000/svg" xmlns:xlink="http://www.w3.org/1999/xlink">
<g id="graph0" class="graph" transform="scale(1 1) rotate(0) translate(4 34)">
<title>CSQCPlayer_LOD_Apply</title>
<!-- Node1 -->
<g id="node1" class="node"><title>Node1</title>
<polygon fill="#bfbfbf" stroke="black" points="0.5,-5.5 0.5,-24.5 129.5,-24.5 129.5,-5.5 0.5,-5.5"/>
<text text-anchor="middle" x="65" y="-12.5" font-family="Helvetica,sans-Serif" font-size="10.00">CSQCPlayer_LOD_Apply</text>
</g>
<!-- Node2 -->
<g id="node2" class="node"><title>Node2</title>
<g id="a_node2"><a xlink:href="../../dc/d3d/csqcmodel__hooks_8qc.html#a2624228f82a5ae03006d9a33fc1b707c" target="_top" xlink:title="CSQCModel_Hook_PreDraw">
<polygon fill="none" stroke="black" points="166,-5.5 166,-24.5 310,-24.5 310,-5.5 166,-5.5"/>
<text text-anchor="middle" x="238" y="-12.5" font-family="Helvetica,sans-Serif" font-size="10.00">CSQCModel_Hook_PreDraw</text>
</a>
</g>
</g>
<!-- Node1&#45;&gt;Node2 -->
<g id="edge1" class="edge"><title>Node1&#45;&gt;Node2</title>
<path fill="none" stroke="midnightblue" d="M139.728,-15C148.374,-15 157.185,-15 165.796,-15"/>
<polygon fill="midnightblue" stroke="midnightblue" points="139.674,-11.5001 129.674,-15 139.674,-18.5001 139.674,-11.5001"/>
</g>
<!-- Node3 -->
<g id="node3" class="node"><title>Node3</title>
<g id="a_node3"><a xlink:href="../../dc/d3d/csqcmodel__hooks_8qc.html#a2b971c267f8e7807ea8b60a6070d3a2c" target="_top" xlink:title="CSQCModel_AutoTagIndex\l_Apply">
<polygon fill="none" stroke="black" points="346,-0 346,-30 484,-30 484,-0 346,-0"/>
<text text-anchor="start" x="354" y="-18" font-family="Helvetica,sans-Serif" font-size="10.00">CSQCModel_AutoTagIndex</text>
<text text-anchor="middle" x="415" y="-7" font-family="Helvetica,sans-Serif" font-size="10.00">_Apply</text>
</a>
</g>
</g>
<!-- Node2&#45;&gt;Node3 -->
<g id="edge2" class="edge"><title>Node2&#45;&gt;Node3</title>
<path fill="none" stroke="midnightblue" d="M320.237,-8.26539C328.854,-8.22297 337.553,-8.26824 345.996,-8.40118"/>
<polygon fill="midnightblue" stroke="midnightblue" points="320.147,-4.76596 310.179,-8.35547 320.21,-11.7657 320.147,-4.76596"/>
</g>
<!-- Node3&#45;&gt;Node2 -->
<g id="edge3" class="edge"><title>Node3&#45;&gt;Node2</title>
<path fill="none" stroke="midnightblue" d="M335.987,-21.7146C327.396,-21.7789 318.681,-21.7556 310.179,-21.6445"/>
<polygon fill="midnightblue" stroke="midnightblue" points="336.037,-25.2144 345.996,-21.5988 335.956,-18.2148 336.037,-25.2144"/>
</g>
</g>
</svg>
