<?xml version="1.0" encoding="UTF-8" standalone="no"?>
<!DOCTYPE svg PUBLIC "-//W3C//DTD SVG 1.1//EN"
 "http://www.w3.org/Graphics/SVG/1.1/DTD/svg11.dtd">
<!-- Generated by graphviz version 2.36.0 (20140111.2315)
 -->
<!-- Title: NET_HANDLE Pages: 1 -->
<!--zoomable 332 -->
<svg id="main" version="1.1" xmlns="http://www.w3.org/2000/svg" xmlns:xlink="http://www.w3.org/1999/xlink" xml:space="preserve" onload="init(evt)">
<style type="text/css"><![CDATA[
.edge:hover path { stroke: red; }
.edge:hover polygon { stroke: red; fill: red; }
]]></style>
<script type="text/javascript"><![CDATA[
var edges = document.getElementsByTagName('g');
if (edges && edges.length) {
  for (var i=0;i<edges.length;i++) {
    if (edges[i].id.substr(0,4)=='edge') {
      edges[i].setAttribute('class','edge');
    }
  }
}
]]></script>
        <defs>
                <circle id="rim" cx="0" cy="0" r="7"/>
                <circle id="rim2" cx="0" cy="0" r="3.5"/>
                <g id="zoomPlus">
                        <use xlink:href="#rim" fill="#404040">
                                <set attributeName="fill" to="#808080" begin="zoomplus.mouseover" end="zoomplus.mouseout"/>
                        </use>
                        <path d="M-4,0h8M0,-4v8" fill="none" stroke="white" stroke-width="1.5" pointer-events="none"/>
                </g>
                <g id="zoomMin">
                        <use xlink:href="#rim" fill="#404040">
                                <set attributeName="fill" to="#808080" begin="zoomminus.mouseover" end="zoomminus.mouseout"/>
                        </use>
                        <path d="M-4,0h8" fill="none" stroke="white" stroke-width="1.5" pointer-events="none"/>
                </g>
                <g id="dirArrow">
                        <path fill="none" stroke="white" stroke-width="1.5" d="M0,-3.0v7 M-2.5,-0.5L0,-3.0L2.5,-0.5"/>
                </g>
               <g id="resetDef">
                       <use xlink:href="#rim2" fill="#404040">
                               <set attributeName="fill" to="#808080" begin="reset.mouseover" end="reset.mouseout"/>
                       </use>
               </g>
        </defs>

<script type="text/javascript">
var viewWidth = 810;
var viewHeight = 332;
var sectionId = 'dynsection-3';
</script>
<script xlink:href="../../svgpan.js"/>
<svg id="graph" class="graph">
<g id="viewport">
<title>NET_HANDLE</title>
<!-- Node1 -->
<g id="node1" class="node"><title>Node1</title>
<polygon fill="#bfbfbf" stroke="black" points="0.5,-240.5 0.5,-259.5 83.5,-259.5 83.5,-240.5 0.5,-240.5"/>
<text text-anchor="middle" x="42" y="-247.5" font-family="Helvetica,sans-Serif" font-size="10.00">NET_HANDLE</text>
</g>
<!-- Node2 -->
<g id="node2" class="node"><title>Node2</title>
<g id="a_node2"><a xlink:href="../../d8/de2/menudefs_8qc.html#aebeeec7a2529f36483e14f76b1871271" target="_top" xlink:title="max">
<polygon fill="none" stroke="black" points="168.5,-278.5 168.5,-297.5 203.5,-297.5 203.5,-278.5 168.5,-278.5"/>
<text text-anchor="middle" x="186" y="-285.5" font-family="Helvetica,sans-Serif" font-size="10.00">max</text>
</a>
</g>
</g>
<!-- Node1&#45;&gt;Node2 -->
<g id="edge1" class="edge"><title>Node1&#45;&gt;Node2</title>
<path fill="none" stroke="midnightblue" d="M78.8326,-259.589C103.657,-266.232 136.156,-274.929 158.626,-280.942"/>
<polygon fill="midnightblue" stroke="midnightblue" points="157.912,-284.374 168.476,-283.578 159.721,-277.612 157.912,-284.374"/>
</g>
<!-- Node3 -->
<g id="node3" class="node"><title>Node3</title>
<g id="a_node3"><a xlink:href="../../d3/d0e/client_8qc.html#a3ffef105e69ca5cd4e07ffeae58d80e8" target="_top" xlink:title="WarpZone_Fade_PreDraw">
<polygon fill="none" stroke="black" points="120,-240.5 120,-259.5 252,-259.5 252,-240.5 120,-240.5"/>
<text text-anchor="middle" x="186" y="-247.5" font-family="Helvetica,sans-Serif" font-size="10.00">WarpZone_Fade_PreDraw</text>
</a>
</g>
</g>
<!-- Node1&#45;&gt;Node3 -->
<g id="edge2" class="edge"><title>Node1&#45;&gt;Node3</title>
<path fill="none" stroke="midnightblue" d="M83.6915,-250C91.9087,-250 100.793,-250 109.767,-250"/>
<polygon fill="midnightblue" stroke="midnightblue" points="109.908,-253.5 119.908,-250 109.907,-246.5 109.908,-253.5"/>
</g>
<!-- Node8 -->
<g id="node8" class="node"><title>Node8</title>
<g id="a_node8"><a xlink:href="../../d1/d6a/lib_2warpzone_2common_8qc.html#a09e6b343662e29bf1286a7b109d5ecd1" target="_top" xlink:title="WarpZone_SetUp">
<polygon fill="none" stroke="black" points="138.5,-126.5 138.5,-145.5 233.5,-145.5 233.5,-126.5 138.5,-126.5"/>
<text text-anchor="middle" x="186" y="-133.5" font-family="Helvetica,sans-Serif" font-size="10.00">WarpZone_SetUp</text>
</a>
</g>
</g>
<!-- Node1&#45;&gt;Node8 -->
<g id="edge7" class="edge"><title>Node1&#45;&gt;Node8</title>
<path fill="none" stroke="midnightblue" d="M55.1068,-240.28C79.5243,-220.678 134.892,-176.228 164.849,-152.177"/>
<polygon fill="midnightblue" stroke="midnightblue" points="167.317,-154.685 172.924,-145.695 162.935,-149.226 167.317,-154.685"/>
</g>
<!-- Node4 -->
<g id="node4" class="node"><title>Node4</title>
<g id="a_node4"><a xlink:href="../../d4/d0c/csprogsdefs_8qc.html#a4f0b78b1785821ba47129edb68e70f9e" target="_top" xlink:title="vector">
<polygon fill="none" stroke="black" points="719,-202.5 719,-221.5 763,-221.5 763,-202.5 719,-202.5"/>
<text text-anchor="middle" x="741" y="-209.5" font-family="Helvetica,sans-Serif" font-size="10.00">vector</text>
</a>
</g>
</g>
<!-- Node3&#45;&gt;Node4 -->
<g id="edge3" class="edge"><title>Node3&#45;&gt;Node4</title>
<path fill="none" stroke="midnightblue" d="M231.35,-259.53C238.533,-262.027 245.679,-265.139 252,-269 271.853,-281.128 266.629,-297.808 288,-307 356.591,-336.503 382.304,-318.999 456,-307 551.735,-291.412 658.764,-248.09 709.782,-225.736"/>
<polygon fill="midnightblue" stroke="midnightblue" points="711.491,-228.807 719.219,-221.559 708.658,-222.406 711.491,-228.807"/>
</g>
<!-- Node5 -->
<g id="node5" class="node"><title>Node5</title>
<g id="a_node5"><a xlink:href="../../d4/d0c/csprogsdefs_8qc.html#a94c5b969ccc333b040b402d69d3338a2" target="_top" xlink:title="checkpvs">
<polygon fill="none" stroke="black" points="342.5,-278.5 342.5,-297.5 401.5,-297.5 401.5,-278.5 342.5,-278.5"/>
<text text-anchor="middle" x="372" y="-285.5" font-family="Helvetica,sans-Serif" font-size="10.00">checkpvs</text>
</a>
</g>
</g>
<!-- Node3&#45;&gt;Node5 -->
<g id="edge4" class="edge"><title>Node3&#45;&gt;Node5</title>
<path fill="none" stroke="midnightblue" d="M233.431,-259.589C263.962,-265.894 303.451,-274.05 332.285,-280.004"/>
<polygon fill="midnightblue" stroke="midnightblue" points="331.888,-283.496 342.389,-282.091 333.303,-276.641 331.888,-283.496"/>
</g>
<!-- Node6 -->
<g id="node6" class="node"><title>Node6</title>
<g id="a_node6"><a xlink:href="../../d8/de2/menudefs_8qc.html#a3846d117b360dccec575f96988cf3bb7" target="_top" xlink:title="bound">
<polygon fill="none" stroke="black" points="350.5,-240.5 350.5,-259.5 393.5,-259.5 393.5,-240.5 350.5,-240.5"/>
<text text-anchor="middle" x="372" y="-247.5" font-family="Helvetica,sans-Serif" font-size="10.00">bound</text>
</a>
</g>
</g>
<!-- Node3&#45;&gt;Node6 -->
<g id="edge5" class="edge"><title>Node3&#45;&gt;Node6</title>
<path fill="none" stroke="midnightblue" d="M252.13,-250C282.074,-250 316.18,-250 340.156,-250"/>
<polygon fill="midnightblue" stroke="midnightblue" points="340.408,-253.5 350.408,-250 340.408,-246.5 340.408,-253.5"/>
</g>
<!-- Node7 -->
<g id="node7" class="node"><title>Node7</title>
<g id="a_node7"><a xlink:href="../../d8/de2/menudefs_8qc.html#a79d61ab0e4126e02af8bc36d432aedaf" target="_top" xlink:title="vlen">
<polygon fill="none" stroke="black" points="354.5,-202.5 354.5,-221.5 389.5,-221.5 389.5,-202.5 354.5,-202.5"/>
<text text-anchor="middle" x="372" y="-209.5" font-family="Helvetica,sans-Serif" font-size="10.00">vlen</text>
</a>
</g>
</g>
<!-- Node3&#45;&gt;Node7 -->
<g id="edge6" class="edge"><title>Node3&#45;&gt;Node7</title>
<path fill="none" stroke="midnightblue" d="M233.431,-240.411C268.513,-233.166 315.423,-223.478 344.404,-217.493"/>
<polygon fill="midnightblue" stroke="midnightblue" points="345.129,-220.917 354.214,-215.467 343.713,-214.062 345.129,-220.917"/>
</g>
<!-- Node9 -->
<g id="node9" class="node"><title>Node9</title>
<g id="a_node9"><a xlink:href="../../df/d13/anglestransform_8qc.html#a847652083025638d0721b27759d2ec92" target="_top" xlink:title="AnglesTransform_RightDivide">
<polygon fill="none" stroke="black" points="298.5,-164.5 298.5,-183.5 445.5,-183.5 445.5,-164.5 298.5,-164.5"/>
<text text-anchor="middle" x="372" y="-171.5" font-family="Helvetica,sans-Serif" font-size="10.00">AnglesTransform_RightDivide</text>
</a>
</g>
</g>
<!-- Node8&#45;&gt;Node9 -->
<g id="edge8" class="edge"><title>Node8&#45;&gt;Node9</title>
<path fill="none" stroke="midnightblue" d="M233.431,-145.589C258.149,-150.694 288.739,-157.011 314.792,-162.392"/>
<polygon fill="midnightblue" stroke="midnightblue" points="314.402,-165.885 324.903,-164.48 315.817,-159.03 314.402,-165.885"/>
</g>
<!-- Node13 -->
<g id="node13" class="node"><title>Node13</title>
<g id="a_node13"><a xlink:href="../../df/d13/anglestransform_8qc.html#a3e980438b803ac9b1cc81a157247959d" target="_top" xlink:title="AnglesTransform_TurnDirectionFR">
<polygon fill="none" stroke="black" points="288,-126.5 288,-145.5 456,-145.5 456,-126.5 288,-126.5"/>
<text text-anchor="middle" x="372" y="-133.5" font-family="Helvetica,sans-Serif" font-size="10.00">AnglesTransform_TurnDirectionFR</text>
</a>
</g>
</g>
<!-- Node8&#45;&gt;Node13 -->
<g id="edge14" class="edge"><title>Node8&#45;&gt;Node13</title>
<path fill="none" stroke="midnightblue" d="M233.907,-136C247.23,-136 262.228,-136 277.288,-136"/>
<polygon fill="midnightblue" stroke="midnightblue" points="277.704,-139.5 287.704,-136 277.704,-132.5 277.704,-139.5"/>
</g>
<!-- Node14 -->
<g id="node14" class="node"><title>Node14</title>
<g id="a_node14"><a xlink:href="../../df/d13/anglestransform_8qc.html#ab60788299d5604752e91c6e191a8af9f" target="_top" xlink:title="AnglesTransform_PrePostShift\l_GetPostShift">
<polygon fill="none" stroke="black" points="492,-115 492,-145 644,-145 644,-115 492,-115"/>
<text text-anchor="start" x="500" y="-133" font-family="Helvetica,sans-Serif" font-size="10.00">AnglesTransform_PrePostShift</text>
<text text-anchor="middle" x="568" y="-122" font-family="Helvetica,sans-Serif" font-size="10.00">_GetPostShift</text>
</a>
</g>
</g>
<!-- Node8&#45;&gt;Node14 -->
<g id="edge15" class="edge"><title>Node8&#45;&gt;Node14</title>
<path fill="none" stroke="midnightblue" d="M228.033,-126.489C246.284,-122.724 268.103,-118.855 288,-117 362.344,-110.068 381.46,-112.65 456,-117 464.353,-117.487 473.042,-118.18 481.716,-118.994"/>
<polygon fill="midnightblue" stroke="midnightblue" points="481.575,-122.497 491.871,-120 482.265,-115.531 481.575,-122.497"/>
</g>
<!-- Node15 -->
<g id="node15" class="node"><title>Node15</title>
<g id="a_node15"><a xlink:href="../../d1/d6a/lib_2warpzone_2common_8qc.html#a90c562931d2bb1db31e200ee05fa11e1" target="_top" xlink:title="WarpZone_camera_transform">
<polygon fill="none" stroke="black" points="299,-44.5 299,-63.5 445,-63.5 445,-44.5 299,-44.5"/>
<text text-anchor="middle" x="372" y="-51.5" font-family="Helvetica,sans-Serif" font-size="10.00">WarpZone_camera_transform</text>
</a>
</g>
</g>
<!-- Node8&#45;&gt;Node15 -->
<g id="edge17" class="edge"><title>Node8&#45;&gt;Node15</title>
<path fill="none" stroke="midnightblue" d="M203.832,-126.485C223.622,-115.498 257.628,-97.2421 288,-84 302.128,-77.8405 317.967,-71.8898 331.992,-66.9349"/>
<polygon fill="midnightblue" stroke="midnightblue" points="333.537,-70.1034 341.833,-63.5141 331.238,-63.4914 333.537,-70.1034"/>
</g>
<!-- Node10 -->
<g id="node10" class="node"><title>Node10</title>
<g id="a_node10"><a xlink:href="../../df/d13/anglestransform_8qc.html#a8383340e6af9aad3ed3a36610b98055d" target="_top" xlink:title="AnglesTransform_Invert">
<polygon fill="none" stroke="black" points="507.5,-202.5 507.5,-221.5 628.5,-221.5 628.5,-202.5 507.5,-202.5"/>
<text text-anchor="middle" x="568" y="-209.5" font-family="Helvetica,sans-Serif" font-size="10.00">AnglesTransform_Invert</text>
</a>
</g>
</g>
<!-- Node9&#45;&gt;Node10 -->
<g id="edge9" class="edge"><title>Node9&#45;&gt;Node10</title>
<path fill="none" stroke="midnightblue" d="M421.954,-183.589C448.247,-188.739 480.84,-195.123 508.465,-200.534"/>
<polygon fill="midnightblue" stroke="midnightblue" points="507.911,-203.992 518.398,-202.48 509.257,-197.123 507.911,-203.992"/>
</g>
<!-- Node11 -->
<g id="node11" class="node"><title>Node11</title>
<g id="a_node11"><a xlink:href="../../df/d13/anglestransform_8qc.html#ac06d70078794b4df23a48f86b7aabf21" target="_top" xlink:title="AnglesTransform_Multiply">
<polygon fill="none" stroke="black" points="503,-164.5 503,-183.5 633,-183.5 633,-164.5 503,-164.5"/>
<text text-anchor="middle" x="568" y="-171.5" font-family="Helvetica,sans-Serif" font-size="10.00">AnglesTransform_Multiply</text>
</a>
</g>
</g>
<!-- Node9&#45;&gt;Node11 -->
<g id="edge11" class="edge"><title>Node9&#45;&gt;Node11</title>
<path fill="none" stroke="midnightblue" d="M445.514,-174C460.964,-174 477.301,-174 492.812,-174"/>
<polygon fill="midnightblue" stroke="midnightblue" points="492.869,-177.5 502.869,-174 492.868,-170.5 492.869,-177.5"/>
</g>
<!-- Node10&#45;&gt;Node4 -->
<g id="edge10" class="edge"><title>Node10&#45;&gt;Node4</title>
<path fill="none" stroke="midnightblue" d="M628.808,-212C655.624,-212 686.158,-212 708.436,-212"/>
<polygon fill="midnightblue" stroke="midnightblue" points="708.656,-215.5 718.656,-212 708.656,-208.5 708.656,-215.5"/>
</g>
<!-- Node11&#45;&gt;Node4 -->
<g id="edge13" class="edge"><title>Node11&#45;&gt;Node4</title>
<path fill="none" stroke="midnightblue" d="M612.151,-183.589C642.197,-190.266 681.58,-199.018 708.652,-205.034"/>
<polygon fill="midnightblue" stroke="midnightblue" points="708.21,-208.521 718.732,-207.274 709.729,-201.688 708.21,-208.521"/>
</g>
<!-- Node12 -->
<g id="node12" class="node"><title>Node12</title>
<g id="a_node12"><a xlink:href="../../df/d13/anglestransform_8qc.html#a6eef2b5d1dcd28a89fa2ab3146011775" target="_top" xlink:title="AnglesTransform_Apply">
<polygon fill="none" stroke="black" points="680.5,-79.5 680.5,-98.5 801.5,-98.5 801.5,-79.5 680.5,-79.5"/>
<text text-anchor="middle" x="741" y="-86.5" font-family="Helvetica,sans-Serif" font-size="10.00">AnglesTransform_Apply</text>
</a>
</g>
</g>
<!-- Node11&#45;&gt;Node12 -->
<g id="edge12" class="edge"><title>Node11&#45;&gt;Node12</title>
<path fill="none" stroke="midnightblue" d="M614.669,-164.433C624.559,-161.647 634.804,-158.194 644,-154 672.615,-140.95 702.063,-119.615 720.667,-104.97"/>
<polygon fill="midnightblue" stroke="midnightblue" points="723.031,-107.561 728.644,-98.5755 718.652,-102.1 723.031,-107.561"/>
</g>
<!-- Node14&#45;&gt;Node12 -->
<g id="edge16" class="edge"><title>Node14&#45;&gt;Node12</title>
<path fill="none" stroke="midnightblue" d="M631.703,-114.966C651.005,-110.338 671.98,-105.309 690.284,-100.92"/>
<polygon fill="midnightblue" stroke="midnightblue" points="691.243,-104.29 700.151,-98.5545 689.61,-97.4826 691.243,-104.29"/>
</g>
<!-- Node16 -->
<g id="node16" class="node"><title>Node16</title>
<g id="a_node16"><a xlink:href="../../d1/d6a/lib_2warpzone_2common_8qc.html#a1322039b1ef6915cbff81278a6965ccb" target="_top" xlink:title="vector">
<polygon fill="none" stroke="black" points="546,-76.5 546,-95.5 590,-95.5 590,-76.5 546,-76.5"/>
<text text-anchor="middle" x="568" y="-83.5" font-family="Helvetica,sans-Serif" font-size="10.00">vector</text>
</a>
</g>
</g>
<!-- Node15&#45;&gt;Node16 -->
<g id="edge18" class="edge"><title>Node15&#45;&gt;Node16</title>
<path fill="none" stroke="midnightblue" d="M430.681,-63.5144C465.147,-69.1994 507.584,-76.1994 535.865,-80.8643"/>
<polygon fill="midnightblue" stroke="midnightblue" points="535.528,-84.356 545.965,-82.5303 536.668,-77.4494 535.528,-84.356"/>
</g>
<!-- Node17 -->
<g id="node17" class="node"><title>Node17</title>
<g id="a_node17"><a xlink:href="../../d1/d6a/lib_2warpzone_2common_8qc.html#a83f110aec024c6632cd713cf64cb136e" target="_top" xlink:title="WarpZone_TransformOrigin">
<polygon fill="none" stroke="black" points="499.5,-38.5 499.5,-57.5 636.5,-57.5 636.5,-38.5 499.5,-38.5"/>
<text text-anchor="middle" x="568" y="-45.5" font-family="Helvetica,sans-Serif" font-size="10.00">WarpZone_TransformOrigin</text>
</a>
</g>
</g>
<!-- Node15&#45;&gt;Node17 -->
<g id="edge19" class="edge"><title>Node15&#45;&gt;Node17</title>
<path fill="none" stroke="midnightblue" d="M445.238,-51.7658C459.455,-51.3261 474.433,-50.8629 488.834,-50.4175"/>
<polygon fill="midnightblue" stroke="midnightblue" points="489.312,-53.9045 499.199,-50.0969 489.096,-46.9078 489.312,-53.9045"/>
</g>
<!-- Node18 -->
<g id="node18" class="node"><title>Node18</title>
<g id="a_node18"><a xlink:href="../../d1/d6a/lib_2warpzone_2common_8qc.html#a44d1db135b45319600668854e74e8a22" target="_top" xlink:title="WarpZone_TransformVelocity">
<polygon fill="none" stroke="black" points="495,-0.5 495,-19.5 641,-19.5 641,-0.5 495,-0.5"/>
<text text-anchor="middle" x="568" y="-7.5" font-family="Helvetica,sans-Serif" font-size="10.00">WarpZone_TransformVelocity</text>
</a>
</g>
</g>
<!-- Node15&#45;&gt;Node18 -->
<g id="edge21" class="edge"><title>Node15&#45;&gt;Node18</title>
<path fill="none" stroke="midnightblue" d="M415.095,-44.4527C444.458,-37.7931 483.828,-28.8637 515.13,-21.7642"/>
<polygon fill="midnightblue" stroke="midnightblue" points="516.009,-25.154 524.987,-19.5287 514.461,-18.3273 516.009,-25.154"/>
</g>
<!-- Node17&#45;&gt;Node12 -->
<g id="edge20" class="edge"><title>Node17&#45;&gt;Node12</title>
<path fill="none" stroke="midnightblue" d="M608.661,-57.5093C632.962,-63.3358 664.277,-70.8442 690.234,-77.0678"/>
<polygon fill="midnightblue" stroke="midnightblue" points="689.718,-80.5432 700.259,-79.4714 691.35,-73.7362 689.718,-80.5432"/>
</g>
<!-- Node18&#45;&gt;Node12 -->
<g id="edge22" class="edge"><title>Node18&#45;&gt;Node12</title>
<path fill="none" stroke="midnightblue" d="M616.151,-19.5617C625.553,-22.1283 635.229,-25.2567 644,-29 671.622,-40.7877 700.471,-59.8795 719.242,-73.3567"/>
<polygon fill="midnightblue" stroke="midnightblue" points="717.218,-76.2124 727.357,-79.286 721.348,-70.5604 717.218,-76.2124"/>
</g>
</g>
</svg>
        <g id="navigator" transform="translate(0 0)" fill="#404254">
                <rect fill="#f2f5e9" fill-opacity="0.5" stroke="#606060" stroke-width=".5" x="0" y="0" width="60" height="60"/>
                <use id="zoomplus" xlink:href="#zoomPlus" x="17" y="9" onmousedown="handleZoom(evt,'in')"/>
                <use id="zoomminus" xlink:href="#zoomMin" x="42" y="9" onmousedown="handleZoom(evt,'out')"/>
                <use id="reset" xlink:href="#resetDef" x="30" y="36" onmousedown="handleReset()"/>
                <g id="arrowUp" xlink:href="#dirArrow" transform="translate(30 24)" onmousedown="handlePan(0,-1)">
                  <use xlink:href="#rim" fill="#404040">
                        <set attributeName="fill" to="#808080" begin="arrowUp.mouseover" end="arrowUp.mouseout"/>
                  </use>
                  <path fill="none" stroke="white" stroke-width="1.5" d="M0,-3.0v7 M-2.5,-0.5L0,-3.0L2.5,-0.5"/>
                </g>
                <g id="arrowRight" xlink:href="#dirArrow" transform="rotate(90) translate(36 -43)" onmousedown="handlePan(1,0)">
                  <use xlink:href="#rim" fill="#404040">
                        <set attributeName="fill" to="#808080" begin="arrowRight.mouseover" end="arrowRight.mouseout"/>
                  </use>
                  <path fill="none" stroke="white" stroke-width="1.5" d="M0,-3.0v7 M-2.5,-0.5L0,-3.0L2.5,-0.5"/>
                </g>
                <g id="arrowDown" xlink:href="#dirArrow" transform="rotate(180) translate(-30 -48)" onmousedown="handlePan(0,1)">
                  <use xlink:href="#rim" fill="#404040">
                        <set attributeName="fill" to="#808080" begin="arrowDown.mouseover" end="arrowDown.mouseout"/>
                  </use>
                  <path fill="none" stroke="white" stroke-width="1.5" d="M0,-3.0v7 M-2.5,-0.5L0,-3.0L2.5,-0.5"/>
                </g>
                <g id="arrowLeft" xlink:href="#dirArrow" transform="rotate(270) translate(-36 17)" onmousedown="handlePan(-1,0)">
                  <use xlink:href="#rim" fill="#404040">
                        <set attributeName="fill" to="#808080" begin="arrowLeft.mouseover" end="arrowLeft.mouseout"/>
                  </use>
                  <path fill="none" stroke="white" stroke-width="1.5" d="M0,-3.0v7 M-2.5,-0.5L0,-3.0L2.5,-0.5"/>
                </g>
        </g>
        <svg viewBox="0 0 15 15" width="100%" height="30px" preserveAspectRatio="xMaxYMin meet">
         <g id="arrow_out" transform="scale(0.3 0.3)">
          <a xlink:href="client_8qc_abdabd8f2f4e643c7ff8d28c25f700828_cgraph_org.svg" target="_base">
           <rect id="button" ry="5" rx="5" y="6" x="6" height="38" width="38"
                fill="#f2f5e9" fill-opacity="0.5" stroke="#606060" stroke-width="1.0"/>
           <path id="arrow"
             d="M 11.500037,31.436501 C 11.940474,20.09759 22.043105,11.32322 32.158766,21.979434 L 37.068811,17.246167 C 37.068811,17.246167 37.088388,32 37.088388,32 L 22.160133,31.978069 C 22.160133,31.978069 26.997745,27.140456 26.997745,27.140456 C 18.528582,18.264221 13.291696,25.230495 11.500037,31.436501 z"
             style="fill:#404040;"/>
          </a>
         </g>
        </svg>
</svg>
