<?xml version="1.0" encoding="UTF-8" standalone="no"?>
<!DOCTYPE svg PUBLIC "-//W3C//DTD SVG 1.1//EN"
 "http://www.w3.org/Graphics/SVG/1.1/DTD/svg11.dtd">
<!-- Generated by graphviz version 2.36.0 (20140111.2315)
 -->
<!-- Title: ShuffleMaplist Pages: 1 -->
<svg width="1244pt" height="123pt"
 viewBox="0.00 0.00 1244.00 123.00" xmlns="http://www.w3.org/2000/svg" xmlns:xlink="http://www.w3.org/1999/xlink">
<g id="graph0" class="graph" transform="scale(1 1) rotate(0) translate(4 119)">
<title>ShuffleMaplist</title>
<!-- Node1 -->
<g id="node1" class="node"><title>Node1</title>
<polygon fill="#bfbfbf" stroke="black" points="0.5,-38.5 0.5,-57.5 79.5,-57.5 79.5,-38.5 0.5,-38.5"/>
<text text-anchor="middle" x="40" y="-45.5" font-family="Helvetica,sans-Serif" font-size="10.00">ShuffleMaplist</text>
</g>
<!-- Node2 -->
<g id="node2" class="node"><title>Node2</title>
<g id="a_node2"><a xlink:href="../../d2/d76/server_2mapvoting_8qc.html#ac97d0f5a2d1ca2d158e76b6a58f53f85" target="_top" xlink:title="GameTypeVote_SetGametype">
<polygon fill="none" stroke="black" points="116,-76.5 116,-95.5 266,-95.5 266,-76.5 116,-76.5"/>
<text text-anchor="middle" x="191" y="-83.5" font-family="Helvetica,sans-Serif" font-size="10.00">GameTypeVote_SetGametype</text>
</a>
</g>
</g>
<!-- Node1&#45;&gt;Node2 -->
<g id="edge1" class="edge"><title>Node1&#45;&gt;Node2</title>
<path fill="none" stroke="midnightblue" d="M88.4922,-60.1121C109.244,-65.4044 133.228,-71.5213 152.671,-76.4799"/>
<polygon fill="midnightblue" stroke="midnightblue" points="89.1538,-56.6689 78.599,-57.589 87.4239,-63.4518 89.1538,-56.6689"/>
</g>
<!-- Node11 -->
<g id="node11" class="node"><title>Node11</title>
<g id="a_node11"><a xlink:href="../../db/dcc/g__world_8qc.html#a0ed61c678e0012da2e2f6d4d0ecbffc1" target="_top" xlink:title="GotoFirstMap">
<polygon fill="none" stroke="black" points="153,-38.5 153,-57.5 229,-57.5 229,-38.5 153,-38.5"/>
<text text-anchor="middle" x="191" y="-45.5" font-family="Helvetica,sans-Serif" font-size="10.00">GotoFirstMap</text>
</a>
</g>
</g>
<!-- Node1&#45;&gt;Node11 -->
<g id="edge12" class="edge"><title>Node1&#45;&gt;Node11</title>
<path fill="none" stroke="midnightblue" d="M89.879,-48C110.415,-48 133.909,-48 152.976,-48"/>
<polygon fill="midnightblue" stroke="midnightblue" points="89.7591,-44.5001 79.759,-48 89.759,-51.5001 89.7591,-44.5001"/>
</g>
<!-- Node13 -->
<g id="node13" class="node"><title>Node13</title>
<g id="a_node13"><a xlink:href="../../d2/d76/server_2mapvoting_8qc.html#a8c437df1e36d1d6bc2c656765173f4b1" target="_top" xlink:title="MapVote_Init">
<polygon fill="none" stroke="black" points="154,-0.5 154,-19.5 228,-19.5 228,-0.5 154,-0.5"/>
<text text-anchor="middle" x="191" y="-7.5" font-family="Helvetica,sans-Serif" font-size="10.00">MapVote_Init</text>
</a>
</g>
</g>
<!-- Node1&#45;&gt;Node13 -->
<g id="edge14" class="edge"><title>Node1&#45;&gt;Node13</title>
<path fill="none" stroke="midnightblue" d="M88.3976,-35.912C109.629,-30.4972 134.262,-24.2151 153.955,-19.1927"/>
<polygon fill="midnightblue" stroke="midnightblue" points="87.4239,-32.5482 78.599,-38.411 89.1538,-39.3311 87.4239,-32.5482"/>
</g>
<!-- Node3 -->
<g id="node3" class="node"><title>Node3</title>
<g id="a_node3"><a xlink:href="../../d3/d53/server_2mapvoting_8qh.html#a3e88f2b64efebdb02a339e5494f1b0ac" target="_top" xlink:title="GameTypeVote_Finished">
<polygon fill="none" stroke="black" points="302.5,-76.5 302.5,-95.5 429.5,-95.5 429.5,-76.5 302.5,-76.5"/>
<text text-anchor="middle" x="366" y="-83.5" font-family="Helvetica,sans-Serif" font-size="10.00">GameTypeVote_Finished</text>
</a>
</g>
</g>
<!-- Node2&#45;&gt;Node3 -->
<g id="edge2" class="edge"><title>Node2&#45;&gt;Node3</title>
<path fill="none" stroke="midnightblue" d="M276.391,-86C285.17,-86 293.978,-86 302.453,-86"/>
<polygon fill="midnightblue" stroke="midnightblue" points="276.12,-82.5001 266.12,-86 276.12,-89.5001 276.12,-82.5001"/>
</g>
<!-- Node4 -->
<g id="node4" class="node"><title>Node4</title>
<g id="a_node4"><a xlink:href="../../d2/d76/server_2mapvoting_8qc.html#af51679015526b11c6c6f6ba11cb5b7e4" target="_top" xlink:title="MapVote_Finished">
<polygon fill="none" stroke="black" points="466,-76.5 466,-95.5 564,-95.5 564,-76.5 466,-76.5"/>
<text text-anchor="middle" x="515" y="-83.5" font-family="Helvetica,sans-Serif" font-size="10.00">MapVote_Finished</text>
</a>
</g>
</g>
<!-- Node3&#45;&gt;Node4 -->
<g id="edge3" class="edge"><title>Node3&#45;&gt;Node4</title>
<path fill="none" stroke="midnightblue" d="M439.971,-86C448.691,-86 457.422,-86 465.671,-86"/>
<polygon fill="midnightblue" stroke="midnightblue" points="439.768,-82.5001 429.768,-86 439.768,-89.5001 439.768,-82.5001"/>
</g>
<!-- Node5 -->
<g id="node5" class="node"><title>Node5</title>
<g id="a_node5"><a xlink:href="../../d3/d53/server_2mapvoting_8qh.html#a9e23e88fcace6381b529ac8060f0ad26" target="_top" xlink:title="GameTypeVote_Start">
<polygon fill="none" stroke="black" points="762.5,-95.5 762.5,-114.5 873.5,-114.5 873.5,-95.5 762.5,-95.5"/>
<text text-anchor="middle" x="818" y="-102.5" font-family="Helvetica,sans-Serif" font-size="10.00">GameTypeVote_Start</text>
</a>
</g>
</g>
<!-- Node4&#45;&gt;Node5 -->
<g id="edge4" class="edge"><title>Node4&#45;&gt;Node5</title>
<path fill="none" stroke="midnightblue" d="M574.195,-89.6734C628.544,-93.1041 709.058,-98.1864 762.262,-101.545"/>
<polygon fill="midnightblue" stroke="midnightblue" points="574.228,-86.1686 564.027,-89.0316 573.787,-93.1547 574.228,-86.1686"/>
</g>
<!-- Node9 -->
<g id="node9" class="node"><title>Node9</title>
<g id="a_node9"><a xlink:href="../../d2/d76/server_2mapvoting_8qc.html#a76e4720691beeecd37b230f0157c4527" target="_top" xlink:title="MapVote_CheckRules_2">
<polygon fill="none" stroke="black" points="600.5,-57.5 600.5,-76.5 725.5,-76.5 725.5,-57.5 600.5,-57.5"/>
<text text-anchor="middle" x="663" y="-64.5" font-family="Helvetica,sans-Serif" font-size="10.00">MapVote_CheckRules_2</text>
</a>
</g>
</g>
<!-- Node4&#45;&gt;Node9 -->
<g id="edge9" class="edge"><title>Node4&#45;&gt;Node9</title>
<path fill="none" stroke="midnightblue" d="M574.144,-78.4333C582.745,-77.314 591.632,-76.1574 600.302,-75.0292"/>
<polygon fill="midnightblue" stroke="midnightblue" points="573.675,-74.9647 564.21,-79.726 574.579,-81.9062 573.675,-74.9647"/>
</g>
<!-- Node6 -->
<g id="node6" class="node"><title>Node6</title>
<g id="a_node6"><a xlink:href="../../d3/d53/server_2mapvoting_8qh.html#a55a404e632b9599200cdd019f8c03964" target="_top" xlink:title="MapVote_Think">
<polygon fill="none" stroke="black" points="910.5,-76.5 910.5,-95.5 995.5,-95.5 995.5,-76.5 910.5,-76.5"/>
<text text-anchor="middle" x="953" y="-83.5" font-family="Helvetica,sans-Serif" font-size="10.00">MapVote_Think</text>
</a>
</g>
</g>
<!-- Node5&#45;&gt;Node6 -->
<g id="edge5" class="edge"><title>Node5&#45;&gt;Node6</title>
<path fill="none" stroke="midnightblue" d="M883.928,-95.7245C892.887,-94.4447 901.884,-93.1594 910.269,-91.9616"/>
<polygon fill="midnightblue" stroke="midnightblue" points="883.269,-92.2832 873.864,-97.1623 884.259,-99.2128 883.269,-92.2832"/>
</g>
<!-- Node7 -->
<g id="node7" class="node"><title>Node7</title>
<g id="a_node7"><a xlink:href="../../d7/d97/g__world_8qh.html#a233af455133bc7ba4e3e100115bf2885" target="_top" xlink:title="CheckRules_World">
<polygon fill="none" stroke="black" points="1032.5,-76.5 1032.5,-95.5 1133.5,-95.5 1133.5,-76.5 1032.5,-76.5"/>
<text text-anchor="middle" x="1083" y="-83.5" font-family="Helvetica,sans-Serif" font-size="10.00">CheckRules_World</text>
</a>
</g>
</g>
<!-- Node6&#45;&gt;Node7 -->
<g id="edge6" class="edge"><title>Node6&#45;&gt;Node7</title>
<path fill="none" stroke="midnightblue" d="M1005.64,-86C1014.39,-86 1023.46,-86 1032.17,-86"/>
<polygon fill="midnightblue" stroke="midnightblue" points="1005.56,-82.5001 995.558,-86 1005.56,-89.5001 1005.56,-82.5001"/>
</g>
<!-- Node7&#45;&gt;Node7 -->
<g id="edge7" class="edge"><title>Node7&#45;&gt;Node7</title>
<path fill="none" stroke="midnightblue" d="M1060.68,-105.029C1061.9,-110.128 1069.34,-114 1083,-114 1104.33,-114 1110.49,-104.565 1101.5,-95.7571"/>
<polygon fill="midnightblue" stroke="midnightblue" points="1063.93,-106.336 1064.5,-95.7571 1057.45,-103.666 1063.93,-106.336"/>
</g>
<!-- Node8 -->
<g id="node8" class="node"><title>Node8</title>
<g id="a_node8"><a xlink:href="../../d3/d4f/sv__main_8qc.html#a554af7e2ac58045168dad9eca30bc8b1" target="_top" xlink:title="StartFrame">
<polygon fill="none" stroke="black" points="1170.5,-76.5 1170.5,-95.5 1235.5,-95.5 1235.5,-76.5 1170.5,-76.5"/>
<text text-anchor="middle" x="1203" y="-83.5" font-family="Helvetica,sans-Serif" font-size="10.00">StartFrame</text>
</a>
</g>
</g>
<!-- Node7&#45;&gt;Node8 -->
<g id="edge8" class="edge"><title>Node7&#45;&gt;Node8</title>
<path fill="none" stroke="midnightblue" d="M1143.91,-86C1152.98,-86 1162.02,-86 1170.17,-86"/>
<polygon fill="midnightblue" stroke="midnightblue" points="1143.7,-82.5001 1133.7,-86 1143.7,-89.5001 1143.7,-82.5001"/>
</g>
<!-- Node10 -->
<g id="node10" class="node"><title>Node10</title>
<g id="a_node10"><a xlink:href="../../d2/d76/server_2mapvoting_8qc.html#a5ac2229ef4b363054b5b66d314e89437" target="_top" xlink:title="MapVote_Tick">
<polygon fill="none" stroke="black" points="778,-57.5 778,-76.5 858,-76.5 858,-57.5 778,-57.5"/>
<text text-anchor="middle" x="818" y="-64.5" font-family="Helvetica,sans-Serif" font-size="10.00">MapVote_Tick</text>
</a>
</g>
</g>
<!-- Node9&#45;&gt;Node10 -->
<g id="edge10" class="edge"><title>Node9&#45;&gt;Node10</title>
<path fill="none" stroke="midnightblue" d="M736.186,-67C750.553,-67 765.124,-67 777.863,-67"/>
<polygon fill="midnightblue" stroke="midnightblue" points="735.79,-63.5001 725.79,-67 735.79,-70.5001 735.79,-63.5001"/>
</g>
<!-- Node10&#45;&gt;Node6 -->
<g id="edge11" class="edge"><title>Node10&#45;&gt;Node6</title>
<path fill="none" stroke="midnightblue" d="M868.467,-74.0666C882.234,-76.0334 897.045,-78.1493 910.317,-80.0453"/>
<polygon fill="midnightblue" stroke="midnightblue" points="868.58,-70.5473 858.185,-72.5979 867.59,-77.477 868.58,-70.5473"/>
</g>
<!-- Node12 -->
<g id="node12" class="node"><title>Node12</title>
<g id="a_node12"><a xlink:href="../../db/dcc/g__world_8qc.html#a61bd70129e557ffad13fa1c21a5d9af3" target="_top" xlink:title="spawnfunc">
<polygon fill="none" stroke="black" points="334,-38.5 334,-57.5 398,-57.5 398,-38.5 334,-38.5"/>
<text text-anchor="middle" x="366" y="-45.5" font-family="Helvetica,sans-Serif" font-size="10.00">spawnfunc</text>
</a>
</g>
</g>
<!-- Node11&#45;&gt;Node12 -->
<g id="edge13" class="edge"><title>Node11&#45;&gt;Node12</title>
<path fill="none" stroke="midnightblue" d="M239.374,-48C269.416,-48 307.435,-48 333.738,-48"/>
<polygon fill="midnightblue" stroke="midnightblue" points="239.113,-44.5001 229.113,-48 239.113,-51.5001 239.113,-44.5001"/>
</g>
</g>
</svg>
