<?xml version="1.0" encoding="UTF-8" standalone="no"?>
<!DOCTYPE svg PUBLIC "-//W3C//DTD SVG 1.1//EN"
 "http://www.w3.org/Graphics/SVG/1.1/DTD/svg11.dtd">
<!-- Generated by graphviz version 2.38.0 (20140413.2041)
 -->
<!-- Title: bot_cmd_if Pages: 1 -->
<svg width="317pt" height="218pt"
 viewBox="0.00 0.00 317.00 218.00" xmlns="http://www.w3.org/2000/svg" xmlns:xlink="http://www.w3.org/1999/xlink">
<g id="graph0" class="graph" transform="scale(1 1) rotate(0) translate(4 214)">
<title>bot_cmd_if</title>
<!-- Node1 -->
<g id="node1" class="node"><title>Node1</title>
<polygon fill="#bfbfbf" stroke="black" points="0,-57.5 0,-76.5 69,-76.5 69,-57.5 0,-57.5"/>
<text text-anchor="middle" x="34.5" y="-64.5" font-family="Helvetica,sans-Serif" font-size="10.00">bot_cmd_if</text>
</g>
<!-- Node2 -->
<g id="node2" class="node"><title>Node2</title>
<g id="a_node2"><a xlink:href="../../d6/d27/scripting_8qc.html#a6893523d5caad3e47941ebb88916a721" target="_top" xlink:title="bot_clearqueue">
<polygon fill="none" stroke="black" points="105,-114.5 105,-133.5 196,-133.5 196,-114.5 105,-114.5"/>
<text text-anchor="middle" x="150.5" y="-121.5" font-family="Helvetica,sans-Serif" font-size="10.00">bot_clearqueue</text>
</a>
</g>
</g>
<!-- Node1&#45;&gt;Node2 -->
<g id="edge1" class="edge"><title>Node1&#45;&gt;Node2</title>
<path fill="none" stroke="midnightblue" d="M51.8348,-76.5164C65.7719,-84.4936 86.4434,-95.9916 105,-105 108.637,-106.766 112.479,-108.539 116.321,-110.254"/>
<polygon fill="midnightblue" stroke="midnightblue" points="115.186,-113.578 125.752,-114.363 117.982,-107.16 115.186,-113.578"/>
</g>
<!-- Node3 -->
<g id="node3" class="node"><title>Node3</title>
<g id="a_node3"><a xlink:href="../../d6/d27/scripting_8qc.html#a0527927277c1effeb9f28f1dac4621ae" target="_top" xlink:title="bot_cmd_eval">
<polygon fill="none" stroke="black" points="109,-76.5 109,-95.5 192,-95.5 192,-76.5 109,-76.5"/>
<text text-anchor="middle" x="150.5" y="-83.5" font-family="Helvetica,sans-Serif" font-size="10.00">bot_cmd_eval</text>
</a>
</g>
</g>
<!-- Node1&#45;&gt;Node3 -->
<g id="edge2" class="edge"><title>Node1&#45;&gt;Node3</title>
<path fill="none" stroke="midnightblue" d="M69.0872,-72.5979C78.4463,-74.1577 88.8247,-75.8875 98.9301,-77.5717"/>
<polygon fill="midnightblue" stroke="midnightblue" points="98.4571,-81.0411 108.897,-79.2328 99.608,-74.1363 98.4571,-81.0411"/>
</g>
<!-- Node7 -->
<g id="node7" class="node"><title>Node7</title>
<g id="a_node7"><a xlink:href="../../d8/de2/menudefs_8qc.html#a274680f571a231ddf29421b93d434bfa" target="_top" xlink:title="strlen">
<polygon fill="none" stroke="black" points="248.5,-38.5 248.5,-57.5 292.5,-57.5 292.5,-38.5 248.5,-38.5"/>
<text text-anchor="middle" x="270.5" y="-45.5" font-family="Helvetica,sans-Serif" font-size="10.00">strlen</text>
</a>
</g>
</g>
<!-- Node1&#45;&gt;Node7 -->
<g id="edge9" class="edge"><title>Node1&#45;&gt;Node7</title>
<path fill="none" stroke="midnightblue" d="M69.0265,-64.2778C114.208,-60.6092 194.041,-54.127 238.102,-50.5494"/>
<polygon fill="midnightblue" stroke="midnightblue" points="238.548,-54.0248 248.232,-49.7269 237.982,-47.0477 238.548,-54.0248"/>
</g>
<!-- Node8 -->
<g id="node8" class="node"><title>Node8</title>
<g id="a_node8"><a xlink:href="../../d8/de2/menudefs_8qc.html#a40f6c65c8bbcfa51df783f2809a2502b" target="_top" xlink:title="substring">
<polygon fill="none" stroke="black" points="240,-0.5 240,-19.5 301,-19.5 301,-0.5 240,-0.5"/>
<text text-anchor="middle" x="270.5" y="-7.5" font-family="Helvetica,sans-Serif" font-size="10.00">substring</text>
</a>
</g>
</g>
<!-- Node1&#45;&gt;Node8 -->
<g id="edge10" class="edge"><title>Node1&#45;&gt;Node8</title>
<path fill="none" stroke="midnightblue" d="M69.0802,-58.7764C80.4809,-55.987 93.2941,-52.8549 105,-50 147.698,-39.5868 196.639,-27.6912 229.963,-19.5978"/>
<polygon fill="midnightblue" stroke="midnightblue" points="230.888,-22.975 239.78,-17.2139 229.236,-16.1727 230.888,-22.975"/>
</g>
<!-- Node4 -->
<g id="node4" class="node"><title>Node4</title>
<g id="a_node4"><a xlink:href="../../d8/de2/menudefs_8qc.html#a47b9823939aa0a157d1bede7847cb488" target="_top" xlink:title="cvar">
<polygon fill="none" stroke="black" points="252,-114.5 252,-133.5 289,-133.5 289,-114.5 252,-114.5"/>
<text text-anchor="middle" x="270.5" y="-121.5" font-family="Helvetica,sans-Serif" font-size="10.00">cvar</text>
</a>
</g>
</g>
<!-- Node3&#45;&gt;Node4 -->
<g id="edge3" class="edge"><title>Node3&#45;&gt;Node4</title>
<path fill="none" stroke="midnightblue" d="M181.276,-95.589C199.969,-101.609 223.898,-109.315 242.118,-115.182"/>
<polygon fill="midnightblue" stroke="midnightblue" points="241.251,-118.58 251.842,-118.314 243.396,-111.917 241.251,-118.58"/>
</g>
<!-- Node5 -->
<g id="node5" class="node"><title>Node5</title>
<g id="a_node5"><a xlink:href="../../d8/d06/client_2resources_8qc.html#a53ec0a3c5a395e2b64d468c08f49b63f" target="_top" xlink:title="Returns the current amount of resource the given entity has. ">
<polygon fill="none" stroke="black" points="232,-76.5 232,-95.5 309,-95.5 309,-76.5 232,-76.5"/>
<text text-anchor="middle" x="270.5" y="-83.5" font-family="Helvetica,sans-Serif" font-size="10.00">GetResource</text>
</a>
</g>
</g>
<!-- Node3&#45;&gt;Node5 -->
<g id="edge4" class="edge"><title>Node3&#45;&gt;Node5</title>
<path fill="none" stroke="midnightblue" d="M192.109,-86C201.708,-86 212.028,-86 221.906,-86"/>
<polygon fill="midnightblue" stroke="midnightblue" points="221.989,-89.5001 231.989,-86 221.989,-82.5001 221.989,-89.5001"/>
</g>
<!-- Node6 -->
<g id="node6" class="node"><title>Node6</title>
<g id="a_node6"><a xlink:href="../../d8/de2/menudefs_8qc.html#a2f6d3020689c0e872cfb455d0b2cbd4a" target="_top" xlink:title="stof">
<polygon fill="none" stroke="black" points="253,-190.5 253,-209.5 288,-209.5 288,-190.5 253,-190.5"/>
<text text-anchor="middle" x="270.5" y="-197.5" font-family="Helvetica,sans-Serif" font-size="10.00">stof</text>
</a>
</g>
</g>
<!-- Node3&#45;&gt;Node6 -->
<g id="edge5" class="edge"><title>Node3&#45;&gt;Node6</title>
<path fill="none" stroke="midnightblue" d="M182.049,-95.511C187.111,-98.0319 192.004,-101.156 196,-105 222.937,-130.91 205.925,-154.222 232,-181 235.297,-184.386 239.325,-187.274 243.504,-189.7"/>
<polygon fill="midnightblue" stroke="midnightblue" points="242.157,-192.94 252.666,-194.287 245.29,-186.681 242.157,-192.94"/>
</g>
<!-- Node3&#45;&gt;Node7 -->
<g id="edge6" class="edge"><title>Node3&#45;&gt;Node7</title>
<path fill="none" stroke="midnightblue" d="M181.276,-76.411C198.741,-70.7869 220.776,-63.6909 238.455,-57.9976"/>
<polygon fill="midnightblue" stroke="midnightblue" points="239.848,-61.2262 248.293,-54.8293 237.702,-54.5632 239.848,-61.2262"/>
</g>
<!-- Node3&#45;&gt;Node8 -->
<g id="edge7" class="edge"><title>Node3&#45;&gt;Node8</title>
<path fill="none" stroke="midnightblue" d="M163.937,-76.3215C179.429,-64.4725 206.922,-44.1193 232,-29 234.664,-27.3938 237.481,-25.7957 240.325,-24.2475"/>
<polygon fill="midnightblue" stroke="midnightblue" points="242.116,-27.261 249.353,-19.5238 238.87,-21.0587 242.116,-27.261"/>
</g>
<!-- Node9 -->
<g id="node9" class="node"><title>Node9</title>
<g id="a_node9"><a xlink:href="../../d8/de2/menudefs_8qc.html#a79d61ab0e4126e02af8bc36d432aedaf" target="_top" xlink:title="vlen">
<polygon fill="none" stroke="black" points="252.5,-152.5 252.5,-171.5 288.5,-171.5 288.5,-152.5 252.5,-152.5"/>
<text text-anchor="middle" x="270.5" y="-159.5" font-family="Helvetica,sans-Serif" font-size="10.00">vlen</text>
</a>
</g>
</g>
<!-- Node3&#45;&gt;Node9 -->
<g id="edge8" class="edge"><title>Node3&#45;&gt;Node9</title>
<path fill="none" stroke="midnightblue" d="M178.791,-95.5619C184.709,-98.1972 190.76,-101.353 196,-105 215.096,-118.289 213.349,-129.094 232,-143 235.489,-145.601 239.386,-148.021 243.314,-150.204"/>
<polygon fill="midnightblue" stroke="midnightblue" points="241.856,-153.39 252.352,-154.838 245.05,-147.161 241.856,-153.39"/>
</g>
</g>
</svg>
