<?xml version="1.0" encoding="UTF-8" standalone="no"?>
<!DOCTYPE svg PUBLIC "-//W3C//DTD SVG 1.1//EN"
 "http://www.w3.org/Graphics/SVG/1.1/DTD/svg11.dtd">
<!-- Generated by graphviz version 2.38.0 (20140413.2041)
 -->
<!-- Title: bot_getplace Pages: 1 -->
<!--zoomable 66 -->
<svg id="main" version="1.1" xmlns="http://www.w3.org/2000/svg" xmlns:xlink="http://www.w3.org/1999/xlink" xml:space="preserve" onload="init(evt)">
<style type="text/css"><![CDATA[
.edge:hover path { stroke: red; }
.edge:hover polygon { stroke: red; fill: red; }
]]></style>
<script type="text/javascript"><![CDATA[
var edges = document.getElementsByTagName('g');
if (edges && edges.length) {
  for (var i=0;i<edges.length;i++) {
    if (edges[i].id.substr(0,4)=='edge') {
      edges[i].setAttribute('class','edge');
    }
  }
}
]]></script>
        <defs>
                <circle id="rim" cx="0" cy="0" r="7"/>
                <circle id="rim2" cx="0" cy="0" r="3.5"/>
                <g id="zoomPlus">
                        <use xlink:href="#rim" fill="#404040">
                                <set attributeName="fill" to="#808080" begin="zoomplus.mouseover" end="zoomplus.mouseout"/>
                        </use>
                        <path d="M-4,0h8M0,-4v8" fill="none" stroke="white" stroke-width="1.5" pointer-events="none"/>
                </g>
                <g id="zoomMin">
                        <use xlink:href="#rim" fill="#404040">
                                <set attributeName="fill" to="#808080" begin="zoomminus.mouseover" end="zoomminus.mouseout"/>
                        </use>
                        <path d="M-4,0h8" fill="none" stroke="white" stroke-width="1.5" pointer-events="none"/>
                </g>
                <g id="dirArrow">
                        <path fill="none" stroke="white" stroke-width="1.5" d="M0,-3.0v7 M-2.5,-0.5L0,-3.0L2.5,-0.5"/>
                </g>
               <g id="resetDef">
                       <use xlink:href="#rim2" fill="#404040">
                               <set attributeName="fill" to="#808080" begin="reset.mouseover" end="reset.mouseout"/>
                       </use>
               </g>
        </defs>

<script type="text/javascript">
var viewWidth = 1016;
var viewHeight = 66;
var sectionId = 'dynsection-57';
</script>
<script xlink:href="../../svgpan.js"/>
<svg id="graph" class="graph">
<g id="viewport">
<title>bot_getplace</title>
<!-- Node1 -->
<g id="node1" class="node"><title>Node1</title>
<polygon fill="#bfbfbf" stroke="black" points="0,-19.5 0,-38.5 79,-38.5 79,-19.5 0,-19.5"/>
<text text-anchor="middle" x="39.5" y="-26.5" font-family="Helvetica,sans-Serif" font-size="10.00">bot_getplace</text>
</g>
<!-- Node2 -->
<g id="node2" class="node"><title>Node2</title>
<g id="a_node2"><a xlink:href="../../d6/d27/scripting_8qc.html#a47eb9736048313bb54659da6d88ad5e7" target="_top" xlink:title="bot_cmd_aimtarget">
<polygon fill="none" stroke="black" points="124.5,-38.5 124.5,-57.5 235.5,-57.5 235.5,-38.5 124.5,-38.5"/>
<text text-anchor="middle" x="180" y="-45.5" font-family="Helvetica,sans-Serif" font-size="10.00">bot_cmd_aimtarget</text>
</a>
</g>
</g>
<!-- Node1&#45;&gt;Node2 -->
<g id="edge1" class="edge"><title>Node1&#45;&gt;Node2</title>
<path fill="none" stroke="midnightblue" d="M89.235,-35.6857C100.583,-37.2424 112.739,-38.91 124.325,-40.4994"/>
<polygon fill="midnightblue" stroke="midnightblue" points="89.4629,-32.1842 79.08,-34.2926 88.5115,-39.1193 89.4629,-32.1842"/>
</g>
<!-- Node8 -->
<g id="node8" class="node"><title>Node8</title>
<g id="a_node8"><a xlink:href="../../d6/d27/scripting_8qc.html#a41cf5c08e469345be967440ff5f0ce4a" target="_top" xlink:title="bot_cmd_movetotarget">
<polygon fill="none" stroke="black" points="115,-0.5 115,-19.5 245,-19.5 245,-0.5 115,-0.5"/>
<text text-anchor="middle" x="180" y="-7.5" font-family="Helvetica,sans-Serif" font-size="10.00">bot_cmd_movetotarget</text>
</a>
</g>
</g>
<!-- Node1&#45;&gt;Node8 -->
<g id="edge7" class="edge"><title>Node1&#45;&gt;Node8</title>
<path fill="none" stroke="midnightblue" d="M89.0227,-22.3435C97.3849,-21.1963 106.191,-19.9882 114.889,-18.795"/>
<polygon fill="midnightblue" stroke="midnightblue" points="88.5115,-18.8807 79.08,-23.7074 89.4629,-25.8158 88.5115,-18.8807"/>
</g>
<!-- Node3 -->
<g id="node3" class="node"><title>Node3</title>
<g id="a_node3"><a xlink:href="../../d6/d27/scripting_8qc.html#aaca537ca751853fba4204c751942df21" target="_top" xlink:title="bot_execute_commands_once">
<polygon fill="none" stroke="black" points="281,-19.5 281,-38.5 445,-38.5 445,-19.5 281,-19.5"/>
<text text-anchor="middle" x="363" y="-26.5" font-family="Helvetica,sans-Serif" font-size="10.00">bot_execute_commands_once</text>
</a>
</g>
</g>
<!-- Node2&#45;&gt;Node3 -->
<g id="edge2" class="edge"><title>Node2&#45;&gt;Node3</title>
<path fill="none" stroke="midnightblue" d="M245.953,-41.1817C257.212,-39.9999 269.045,-38.7577 280.675,-37.5369"/>
<polygon fill="midnightblue" stroke="midnightblue" points="245.377,-37.7229 235.797,-42.2478 246.108,-44.6846 245.377,-37.7229"/>
</g>
<!-- Node4 -->
<g id="node4" class="node"><title>Node4</title>
<g id="a_node4"><a xlink:href="../../d8/d14/scripting_8qh.html#abad1d3e4714ca1832aab73ee2b8862ea" target="_top" xlink:title="bot_execute_commands">
<polygon fill="none" stroke="black" points="481,-19.5 481,-38.5 616,-38.5 616,-19.5 481,-19.5"/>
<text text-anchor="middle" x="548.5" y="-26.5" font-family="Helvetica,sans-Serif" font-size="10.00">bot_execute_commands</text>
</a>
</g>
</g>
<!-- Node3&#45;&gt;Node4 -->
<g id="edge3" class="edge"><title>Node3&#45;&gt;Node4</title>
<path fill="none" stroke="midnightblue" d="M455.186,-29C463.865,-29 472.55,-29 480.932,-29"/>
<polygon fill="midnightblue" stroke="midnightblue" points="455.02,-25.5001 445.02,-29 455.02,-32.5001 455.02,-25.5001"/>
</g>
<!-- Node5 -->
<g id="node5" class="node"><title>Node5</title>
<g id="a_node5"><a xlink:href="../../d8/d39/havocbot_8qh.html#ade0b4e09f77eaadd022af3ee44c6a3fc" target="_top" xlink:title="havocbot_ai">
<polygon fill="none" stroke="black" points="652,-19.5 652,-38.5 726,-38.5 726,-19.5 652,-19.5"/>
<text text-anchor="middle" x="689" y="-26.5" font-family="Helvetica,sans-Serif" font-size="10.00">havocbot_ai</text>
</a>
</g>
</g>
<!-- Node4&#45;&gt;Node5 -->
<g id="edge4" class="edge"><title>Node4&#45;&gt;Node5</title>
<path fill="none" stroke="midnightblue" d="M626.578,-29C635.284,-29 643.822,-29 651.633,-29"/>
<polygon fill="midnightblue" stroke="midnightblue" points="626.316,-25.5001 616.316,-29 626.316,-32.5001 626.316,-25.5001"/>
</g>
<!-- Node6 -->
<g id="node6" class="node"><title>Node6</title>
<g id="a_node6"><a xlink:href="../../d8/d39/havocbot_8qh.html#afb882bcf6c4a44e801e4fb9eafbbf1f4" target="_top" xlink:title="havocbot_setupbot">
<polygon fill="none" stroke="black" points="762,-19.5 762,-38.5 871,-38.5 871,-19.5 762,-19.5"/>
<text text-anchor="middle" x="816.5" y="-26.5" font-family="Helvetica,sans-Serif" font-size="10.00">havocbot_setupbot</text>
</a>
</g>
</g>
<!-- Node5&#45;&gt;Node6 -->
<g id="edge5" class="edge"><title>Node5&#45;&gt;Node6</title>
<path fill="none" stroke="midnightblue" d="M736.405,-29C744.588,-29 753.169,-29 761.537,-29"/>
<polygon fill="midnightblue" stroke="midnightblue" points="736.3,-25.5001 726.3,-29 736.3,-32.5001 736.3,-25.5001"/>
</g>
<!-- Node7 -->
<g id="node7" class="node"><title>Node7</title>
<g id="a_node7"><a xlink:href="../../d1/da9/bot_8qh.html#abd19370e4d61d3549dbbe44826531536" target="_top" xlink:title="bot_clientconnect">
<polygon fill="none" stroke="black" points="907,-19.5 907,-38.5 1008,-38.5 1008,-19.5 907,-19.5"/>
<text text-anchor="middle" x="957.5" y="-26.5" font-family="Helvetica,sans-Serif" font-size="10.00">bot_clientconnect</text>
</a>
</g>
</g>
<!-- Node6&#45;&gt;Node7 -->
<g id="edge6" class="edge"><title>Node6&#45;&gt;Node7</title>
<path fill="none" stroke="midnightblue" d="M881.286,-29C889.917,-29 898.667,-29 906.997,-29"/>
<polygon fill="midnightblue" stroke="midnightblue" points="881.241,-25.5001 871.241,-29 881.241,-32.5001 881.241,-25.5001"/>
</g>
<!-- Node8&#45;&gt;Node3 -->
<g id="edge8" class="edge"><title>Node8&#45;&gt;Node3</title>
<path fill="none" stroke="midnightblue" d="M255.26,-17.7953C263.712,-18.6825 272.36,-19.5902 280.894,-20.4861"/>
<polygon fill="midnightblue" stroke="midnightblue" points="255.379,-14.2886 245.069,-16.7254 254.648,-21.2504 255.379,-14.2886"/>
</g>
</g>
</svg>
        <g id="navigator" transform="translate(0 0)" fill="#404254">
                <rect fill="#f2f5e9" fill-opacity="0.5" stroke="#606060" stroke-width=".5" x="0" y="0" width="60" height="60"/>
                <use id="zoomplus" xlink:href="#zoomPlus" x="17" y="9" onmousedown="handleZoom(evt,'in')"/>
                <use id="zoomminus" xlink:href="#zoomMin" x="42" y="9" onmousedown="handleZoom(evt,'out')"/>
                <use id="reset" xlink:href="#resetDef" x="30" y="36" onmousedown="handleReset()"/>
                <g id="arrowUp" xlink:href="#dirArrow" transform="translate(30 24)" onmousedown="handlePan(0,-1)">
                  <use xlink:href="#rim" fill="#404040">
                        <set attributeName="fill" to="#808080" begin="arrowUp.mouseover" end="arrowUp.mouseout"/>
                  </use>
                  <path fill="none" stroke="white" stroke-width="1.5" d="M0,-3.0v7 M-2.5,-0.5L0,-3.0L2.5,-0.5"/>
                </g>
                <g id="arrowRight" xlink:href="#dirArrow" transform="rotate(90) translate(36 -43)" onmousedown="handlePan(1,0)">
                  <use xlink:href="#rim" fill="#404040">
                        <set attributeName="fill" to="#808080" begin="arrowRight.mouseover" end="arrowRight.mouseout"/>
                  </use>
                  <path fill="none" stroke="white" stroke-width="1.5" d="M0,-3.0v7 M-2.5,-0.5L0,-3.0L2.5,-0.5"/>
                </g>
                <g id="arrowDown" xlink:href="#dirArrow" transform="rotate(180) translate(-30 -48)" onmousedown="handlePan(0,1)">
                  <use xlink:href="#rim" fill="#404040">
                        <set attributeName="fill" to="#808080" begin="arrowDown.mouseover" end="arrowDown.mouseout"/>
                  </use>
                  <path fill="none" stroke="white" stroke-width="1.5" d="M0,-3.0v7 M-2.5,-0.5L0,-3.0L2.5,-0.5"/>
                </g>
                <g id="arrowLeft" xlink:href="#dirArrow" transform="rotate(270) translate(-36 17)" onmousedown="handlePan(-1,0)">
                  <use xlink:href="#rim" fill="#404040">
                        <set attributeName="fill" to="#808080" begin="arrowLeft.mouseover" end="arrowLeft.mouseout"/>
                  </use>
                  <path fill="none" stroke="white" stroke-width="1.5" d="M0,-3.0v7 M-2.5,-0.5L0,-3.0L2.5,-0.5"/>
                </g>
        </g>
        <svg viewBox="0 0 15 15" width="100%" height="30px" preserveAspectRatio="xMaxYMin meet">
         <g id="arrow_out" transform="scale(0.3 0.3)">
          <a xlink:href="scripting_8qc_a6ea8072714047f70893e023d2d7513f2_icgraph_org.svg" target="_base">
           <rect id="button" ry="5" rx="5" y="6" x="6" height="38" width="38"
                fill="#f2f5e9" fill-opacity="0.5" stroke="#606060" stroke-width="1.0"/>
           <path id="arrow"
             d="M 11.500037,31.436501 C 11.940474,20.09759 22.043105,11.32322 32.158766,21.979434 L 37.068811,17.246167 C 37.068811,17.246167 37.088388,32 37.088388,32 L 22.160133,31.978069 C 22.160133,31.978069 26.997745,27.140456 26.997745,27.140456 C 18.528582,18.264221 13.291696,25.230495 11.500037,31.436501 z"
             style="fill:#404040;"/>
          </a>
         </g>
        </svg>
</svg>
