<?xml version="1.0" encoding="UTF-8" standalone="no"?>
<!DOCTYPE svg PUBLIC "-//W3C//DTD SVG 1.1//EN"
 "http://www.w3.org/Graphics/SVG/1.1/DTD/svg11.dtd">
<!-- Generated by graphviz version 2.40.1 (20161225.0304)
 -->
<!-- Title: bot_cmd_sound Pages: 1 -->
<svg width="232pt" height="104pt"
 viewBox="0.00 0.00 232.00 104.00" xmlns="http://www.w3.org/2000/svg" xmlns:xlink="http://www.w3.org/1999/xlink">
<g id="graph0" class="graph" transform="scale(1 1) rotate(0) translate(4 100)">
<title>bot_cmd_sound</title>
<!-- Node337 -->
<g id="node1" class="node">
<title>Node337</title>
<polygon fill="#bfbfbf" stroke="#000000" points="0,-38.5 0,-57.5 93,-57.5 93,-38.5 0,-38.5"/>
<text text-anchor="middle" x="46.5" y="-45.5" font-family="Helvetica,sans-Serif" font-size="10.00" fill="#000000">bot_cmd_sound</text>
</g>
<!-- Node338 -->
<g id="node2" class="node">
<title>Node338</title>
<g id="a_node2"><a xlink:href="../../d8/de2/menudefs_8qc.html#ae3e9d36eda7886f5fe58e5201291dd78" target="_top" xlink:title="argv">
<polygon fill="none" stroke="#000000" points="157.5,-76.5 157.5,-95.5 195.5,-95.5 195.5,-76.5 157.5,-76.5"/>
<text text-anchor="middle" x="176.5" y="-83.5" font-family="Helvetica,sans-Serif" font-size="10.00" fill="#000000">argv</text>
</a>
</g>
</g>
<!-- Node337&#45;&gt;Node338 -->
<g id="edge1" class="edge">
<title>Node337&#45;&gt;Node338</title>
<path fill="none" stroke="#191970" d="M79.3045,-57.589C100.4101,-63.7583 127.5744,-71.6987 147.8177,-77.6159"/>
<polygon fill="#191970" stroke="#191970" points="146.8424,-80.9773 157.4228,-80.4236 148.8065,-74.2584 146.8424,-80.9773"/>
</g>
<!-- Node339 -->
<g id="node3" class="node">
<title>Node339</title>
<g id="a_node3"><a xlink:href="../../d8/de2/menudefs_8qc.html#a9a82a4d363a39e85151eaec7a4f8dae2" target="_top" xlink:title="precache_sound">
<polygon fill="none" stroke="#000000" points="129,-38.5 129,-57.5 224,-57.5 224,-38.5 129,-38.5"/>
<text text-anchor="middle" x="176.5" y="-45.5" font-family="Helvetica,sans-Serif" font-size="10.00" fill="#000000">precache_sound</text>
</a>
</g>
</g>
<!-- Node337&#45;&gt;Node339 -->
<g id="edge2" class="edge">
<title>Node337&#45;&gt;Node339</title>
<path fill="none" stroke="#191970" d="M93.0658,-48C101.4442,-48 110.2681,-48 118.9146,-48"/>
<polygon fill="#191970" stroke="#191970" points="118.9462,-51.5001 128.9461,-48 118.9461,-44.5001 118.9462,-51.5001"/>
</g>
<!-- Node340 -->
<g id="node4" class="node">
<title>Node340</title>
<g id="a_node4"><a xlink:href="../../d8/de2/menudefs_8qc.html#a2f6d3020689c0e872cfb455d0b2cbd4a" target="_top" xlink:title="stof">
<polygon fill="none" stroke="#000000" points="159,-.5 159,-19.5 194,-19.5 194,-.5 159,-.5"/>
<text text-anchor="middle" x="176.5" y="-7.5" font-family="Helvetica,sans-Serif" font-size="10.00" fill="#000000">stof</text>
</a>
</g>
</g>
<!-- Node337&#45;&gt;Node340 -->
<g id="edge3" class="edge">
<title>Node337&#45;&gt;Node340</title>
<path fill="none" stroke="#191970" d="M79.3045,-38.411C100.9249,-32.0912 128.9031,-23.9129 149.2864,-17.9547"/>
<polygon fill="#191970" stroke="#191970" points="150.2837,-21.3098 158.9,-15.1446 148.3197,-14.5909 150.2837,-21.3098"/>
</g>
</g>
</svg>
