<?xml version="1.0" encoding="UTF-8" standalone="no"?>
<!DOCTYPE svg PUBLIC "-//W3C//DTD SVG 1.1//EN"
 "http://www.w3.org/Graphics/SVG/1.1/DTD/svg11.dtd">
<!-- Generated by graphviz version 2.36.0 (20140111.2315)
 -->
<!-- Title: ReadyRestart Pages: 1 -->
<!--zoomable 507 -->
<svg id="main" version="1.1" xmlns="http://www.w3.org/2000/svg" xmlns:xlink="http://www.w3.org/1999/xlink" xml:space="preserve" onload="init(evt)">
<style type="text/css"><![CDATA[
.edge:hover path { stroke: red; }
.edge:hover polygon { stroke: red; fill: red; }
]]></style>
<script type="text/javascript"><![CDATA[
var edges = document.getElementsByTagName('g');
if (edges && edges.length) {
  for (var i=0;i<edges.length;i++) {
    if (edges[i].id.substr(0,4)=='edge') {
      edges[i].setAttribute('class','edge');
    }
  }
}
]]></script>
        <defs>
                <circle id="rim" cx="0" cy="0" r="7"/>
                <circle id="rim2" cx="0" cy="0" r="3.5"/>
                <g id="zoomPlus">
                        <use xlink:href="#rim" fill="#404040">
                                <set attributeName="fill" to="#808080" begin="zoomplus.mouseover" end="zoomplus.mouseout"/>
                        </use>
                        <path d="M-4,0h8M0,-4v8" fill="none" stroke="white" stroke-width="1.5" pointer-events="none"/>
                </g>
                <g id="zoomMin">
                        <use xlink:href="#rim" fill="#404040">
                                <set attributeName="fill" to="#808080" begin="zoomminus.mouseover" end="zoomminus.mouseout"/>
                        </use>
                        <path d="M-4,0h8" fill="none" stroke="white" stroke-width="1.5" pointer-events="none"/>
                </g>
                <g id="dirArrow">
                        <path fill="none" stroke="white" stroke-width="1.5" d="M0,-3.0v7 M-2.5,-0.5L0,-3.0L2.5,-0.5"/>
                </g>
               <g id="resetDef">
                       <use xlink:href="#rim2" fill="#404040">
                               <set attributeName="fill" to="#808080" begin="reset.mouseover" end="reset.mouseout"/>
                       </use>
               </g>
        </defs>

<script type="text/javascript">
var viewWidth = 756;
var viewHeight = 507;
var sectionId = 'dynsection-12';
</script>
<script xlink:href="../../svgpan.js"/>
<svg id="graph" class="graph">
<g id="viewport">
<title>ReadyRestart</title>
<!-- Node1 -->
<g id="node1" class="node"><title>Node1</title>
<polygon fill="#bfbfbf" stroke="black" points="0.5,-99.8408 0.5,-118.841 77.5,-118.841 77.5,-99.8408 0.5,-99.8408"/>
<text text-anchor="middle" x="39" y="-106.841" font-family="Helvetica,sans-Serif" font-size="10.00">ReadyRestart</text>
</g>
<!-- Node2 -->
<g id="node2" class="node"><title>Node2</title>
<g id="a_node2"><a xlink:href="../../d1/dad/server_2command_2vote_8qc.html#a6b7b78c23e6cfd78e7d1e09d1e44ed9d" target="_top" xlink:title="ReadyRestart_force">
<polygon fill="none" stroke="black" points="114,-175.841 114,-194.841 218,-194.841 218,-175.841 114,-175.841"/>
<text text-anchor="middle" x="166" y="-182.841" font-family="Helvetica,sans-Serif" font-size="10.00">ReadyRestart_force</text>
</a>
</g>
</g>
<!-- Node1&#45;&gt;Node2 -->
<g id="edge1" class="edge"><title>Node1&#45;&gt;Node2</title>
<path fill="none" stroke="midnightblue" d="M55.8313,-118.966C77.2458,-131.986 115.643,-155.332 140.718,-170.577"/>
<polygon fill="midnightblue" stroke="midnightblue" points="138.934,-173.589 149.297,-175.794 142.571,-167.608 138.934,-173.589"/>
</g>
<!-- Node13 -->
<g id="node13" class="node"><title>Node13</title>
<g id="a_node13"><a xlink:href="../../d2/d79/scores_8qc.html#a584dd2db99794927527b7a4cec056bf1" target="_top" xlink:title="Clear ALL scores (for ready&#45;restart). ">
<polygon fill="none" stroke="black" points="426,-23.8408 426,-42.8408 508,-42.8408 508,-23.8408 426,-23.8408"/>
<text text-anchor="middle" x="467" y="-30.8408" font-family="Helvetica,sans-Serif" font-size="10.00">Score_ClearAll</text>
</a>
</g>
</g>
<!-- Node1&#45;&gt;Node13 -->
<g id="edge26" class="edge"><title>Node1&#45;&gt;Node13</title>
<path fill="none" stroke="midnightblue" d="M69.4142,-99.7888C110.338,-86.8958 186.984,-64.1792 254,-52.3408 308.797,-42.6609 372.481,-37.7947 415.637,-35.4286"/>
<polygon fill="midnightblue" stroke="midnightblue" points="416.074,-38.9106 425.877,-34.893 415.708,-31.9202 416.074,-38.9106"/>
</g>
<!-- Node3 -->
<g id="node3" class="node"><title>Node3</title>
<g id="a_node3"><a xlink:href="../../d8/de2/menudefs_8qc.html#a687c7bf27ba894ccc52063de9fa79a38" target="_top" xlink:title="bprint">
<polygon fill="none" stroke="black" points="293.5,-289.841 293.5,-308.841 334.5,-308.841 334.5,-289.841 293.5,-289.841"/>
<text text-anchor="middle" x="314" y="-296.841" font-family="Helvetica,sans-Serif" font-size="10.00">bprint</text>
</a>
</g>
</g>
<!-- Node2&#45;&gt;Node3 -->
<g id="edge2" class="edge"><title>Node2&#45;&gt;Node3</title>
<path fill="none" stroke="midnightblue" d="M174.112,-195.022C187.777,-213.034 219.43,-251.976 254,-275.341 263.07,-281.471 273.949,-286.449 283.88,-290.249"/>
<polygon fill="midnightblue" stroke="midnightblue" points="282.8,-293.58 293.395,-293.656 285.16,-286.99 282.8,-293.58"/>
</g>
<!-- Node4 -->
<g id="node4" class="node"><title>Node4</title>
<g id="a_node4"><a xlink:href="../../d1/dad/server_2command_2vote_8qc.html#a72ded287363c9dfdb4770d72cc3917a4" target="_top" xlink:title="VoteReset">
<polygon fill="none" stroke="black" points="282.5,-213.841 282.5,-232.841 345.5,-232.841 345.5,-213.841 282.5,-213.841"/>
<text text-anchor="middle" x="314" y="-220.841" font-family="Helvetica,sans-Serif" font-size="10.00">VoteReset</text>
</a>
</g>
</g>
<!-- Node2&#45;&gt;Node4 -->
<g id="edge3" class="edge"><title>Node2&#45;&gt;Node4</title>
<path fill="none" stroke="midnightblue" d="M203.842,-194.93C224.699,-200.358 250.824,-207.158 272.286,-212.744"/>
<polygon fill="midnightblue" stroke="midnightblue" points="271.534,-216.165 282.093,-215.297 273.297,-209.39 271.534,-216.165"/>
</g>
<!-- Node7 -->
<g id="node7" class="node"><title>Node7</title>
<g id="a_node7"><a xlink:href="../../d8/de2/menudefs_8qc.html#abbb0d86741e0056b6c04f7280c185d76" target="_top" xlink:title="ftos">
<polygon fill="none" stroke="black" points="450.5,-251.841 450.5,-270.841 483.5,-270.841 483.5,-251.841 450.5,-251.841"/>
<text text-anchor="middle" x="467" y="-258.841" font-family="Helvetica,sans-Serif" font-size="10.00">ftos</text>
</a>
</g>
</g>
<!-- Node2&#45;&gt;Node7 -->
<g id="edge6" class="edge"><title>Node2&#45;&gt;Node7</title>
<path fill="none" stroke="midnightblue" d="M177.853,-195.051C193.439,-208.35 223.642,-231.783 254,-242.341 318.102,-264.634 399.344,-264.719 440.139,-262.987"/>
<polygon fill="midnightblue" stroke="midnightblue" points="440.482,-266.474 450.295,-262.481 440.133,-259.483 440.482,-266.474"/>
</g>
<!-- Node8 -->
<g id="node8" class="node"><title>Node8</title>
<g id="a_node8"><a xlink:href="../../d1/dad/server_2command_2vote_8qc.html#a8d1f0d6bff6c0f65f7f206d4445d0f56" target="_top" xlink:title="Nagger_ReadyCounted">
<polygon fill="none" stroke="black" points="254.5,-175.841 254.5,-194.841 373.5,-194.841 373.5,-175.841 254.5,-175.841"/>
<text text-anchor="middle" x="314" y="-182.841" font-family="Helvetica,sans-Serif" font-size="10.00">Nagger_ReadyCounted</text>
</a>
</g>
</g>
<!-- Node2&#45;&gt;Node8 -->
<g id="edge7" class="edge"><title>Node2&#45;&gt;Node8</title>
<path fill="none" stroke="midnightblue" d="M218.064,-185.341C226.516,-185.341 235.4,-185.341 244.202,-185.341"/>
<polygon fill="midnightblue" stroke="midnightblue" points="244.467,-188.841 254.467,-185.341 244.467,-181.841 244.467,-188.841"/>
</g>
<!-- Node9 -->
<g id="node9" class="node"><title>Node9</title>
<g id="a_node9"><a xlink:href="../../d5/df2/common_2util_8qh.html#ac5ad73cc4800e309d3b5a9147d1ce43f" target="_top" xlink:title="entity">
<polygon fill="none" stroke="black" points="706.5,-80.8408 706.5,-99.8408 747.5,-99.8408 747.5,-80.8408 706.5,-80.8408"/>
<text text-anchor="middle" x="727" y="-87.8408" font-family="Helvetica,sans-Serif" font-size="10.00">entity</text>
</a>
</g>
</g>
<!-- Node2&#45;&gt;Node9 -->
<g id="edge8" class="edge"><title>Node2&#45;&gt;Node9</title>
<path fill="none" stroke="midnightblue" d="M205.785,-175.793C220.771,-172.387 238.109,-168.792 254,-166.341 437.488,-138.036 495.196,-190.893 670,-128.341 683.655,-123.454 697.161,-114.445 707.488,-106.426"/>
<polygon fill="midnightblue" stroke="midnightblue" points="709.798,-109.059 715.348,-100.034 705.381,-103.628 709.798,-109.059"/>
</g>
<!-- Node10 -->
<g id="node10" class="node"><title>Node10</title>
<g id="a_node10"><a xlink:href="../../d1/dad/server_2command_2vote_8qc.html#a6fbe739342eaa3c85f447fe1d8fec8f4" target="_top" xlink:title="ReadyRestart_think">
<polygon fill="none" stroke="black" points="262,-61.8408 262,-80.8408 366,-80.8408 366,-61.8408 262,-61.8408"/>
<text text-anchor="middle" x="314" y="-68.8408" font-family="Helvetica,sans-Serif" font-size="10.00">ReadyRestart_think</text>
</a>
</g>
</g>
<!-- Node2&#45;&gt;Node10 -->
<g id="edge9" class="edge"><title>Node2&#45;&gt;Node10</title>
<path fill="none" stroke="midnightblue" d="M174.112,-175.659C187.777,-157.648 219.43,-118.705 254,-95.3408 259.848,-91.3885 266.447,-87.9151 273.06,-84.9275"/>
<polygon fill="midnightblue" stroke="midnightblue" points="274.802,-87.9922 282.672,-80.8986 272.097,-81.5364 274.802,-87.9922"/>
</g>
<!-- Node11 -->
<g id="node11" class="node"><title>Node11</title>
<g id="a_node11"><a xlink:href="../../d1/dad/server_2command_2vote_8qc.html#ab44a3a2f93e542242bc295411367283f" target="_top" xlink:title="reset_map">
<polygon fill="none" stroke="black" points="436,-80.8408 436,-99.8408 498,-99.8408 498,-80.8408 436,-80.8408"/>
<text text-anchor="middle" x="467" y="-87.8408" font-family="Helvetica,sans-Serif" font-size="10.00">reset_map</text>
</a>
</g>
</g>
<!-- Node2&#45;&gt;Node11 -->
<g id="edge17" class="edge"><title>Node2&#45;&gt;Node11</title>
<path fill="none" stroke="midnightblue" d="M179.837,-175.749C196.205,-163.986 225.776,-144.269 254,-133.341 311.428,-111.105 382.269,-99.7124 425.777,-94.3952"/>
<polygon fill="midnightblue" stroke="midnightblue" points="426.434,-97.8422 435.958,-93.2012 425.619,-90.8899 426.434,-97.8422"/>
</g>
<!-- Node15 -->
<g id="node15" class="node"><title>Node15</title>
<g id="a_node15"><a xlink:href="../../dc/dc6/server_2miscfunctions_8qc.html#ad8252ef534185c1cbbde32e65a01a5b3" target="_top" xlink:title="GameLogEcho">
<polygon fill="none" stroke="black" points="273.5,-346.841 273.5,-365.841 354.5,-365.841 354.5,-346.841 273.5,-346.841"/>
<text text-anchor="middle" x="314" y="-353.841" font-family="Helvetica,sans-Serif" font-size="10.00">GameLogEcho</text>
</a>
</g>
</g>
<!-- Node2&#45;&gt;Node15 -->
<g id="edge18" class="edge"><title>Node2&#45;&gt;Node15</title>
<path fill="none" stroke="midnightblue" d="M171.532,-195.008C182.837,-218.369 214.254,-278.876 254,-318.341 263.094,-327.371 274.676,-335.396 285.166,-341.717"/>
<polygon fill="midnightblue" stroke="midnightblue" points="283.601,-344.855 294.013,-346.816 287.096,-338.79 283.601,-344.855"/>
</g>
<!-- Node5 -->
<g id="node5" class="node"><title>Node5</title>
<g id="a_node5"><a xlink:href="../../d8/de2/menudefs_8qc.html#ab64c3a0e7d347975b8b7a5cd17ab0113" target="_top" xlink:title="strunzone">
<polygon fill="none" stroke="black" points="437.5,-175.841 437.5,-194.841 496.5,-194.841 496.5,-175.841 437.5,-175.841"/>
<text text-anchor="middle" x="467" y="-182.841" font-family="Helvetica,sans-Serif" font-size="10.00">strunzone</text>
</a>
</g>
</g>
<!-- Node4&#45;&gt;Node5 -->
<g id="edge4" class="edge"><title>Node4&#45;&gt;Node5</title>
<path fill="none" stroke="midnightblue" d="M345.557,-215.651C369.217,-209.697 402.136,-201.413 427.58,-195.009"/>
<polygon fill="midnightblue" stroke="midnightblue" points="428.435,-198.403 437.279,-192.569 426.727,-191.615 428.435,-198.403"/>
</g>
<!-- Node6 -->
<g id="node6" class="node"><title>Node6</title>
<g id="a_node6"><a xlink:href="../../d1/dad/server_2command_2vote_8qc.html#a9c49c9479913e0acfad979107e6ee3f7" target="_top" xlink:title="Nagger_VoteChanged">
<polygon fill="none" stroke="black" points="410.5,-213.841 410.5,-232.841 523.5,-232.841 523.5,-213.841 410.5,-213.841"/>
<text text-anchor="middle" x="467" y="-220.841" font-family="Helvetica,sans-Serif" font-size="10.00">Nagger_VoteChanged</text>
</a>
</g>
</g>
<!-- Node4&#45;&gt;Node6 -->
<g id="edge5" class="edge"><title>Node4&#45;&gt;Node6</title>
<path fill="none" stroke="midnightblue" d="M345.557,-223.341C361.336,-223.341 381.232,-223.341 400.282,-223.341"/>
<polygon fill="midnightblue" stroke="midnightblue" points="400.443,-226.841 410.443,-223.341 400.443,-219.841 400.443,-226.841"/>
</g>
<!-- Node10&#45;&gt;Node11 -->
<g id="edge10" class="edge"><title>Node10&#45;&gt;Node11</title>
<path fill="none" stroke="midnightblue" d="M366.122,-77.7734C385.523,-80.2146 407.33,-82.9585 425.606,-85.2582"/>
<polygon fill="midnightblue" stroke="midnightblue" points="425.277,-88.7443 435.636,-86.5202 426.151,-81.799 425.277,-88.7443"/>
</g>
<!-- Node10&#45;&gt;Node13 -->
<g id="edge14" class="edge"><title>Node10&#45;&gt;Node13</title>
<path fill="none" stroke="midnightblue" d="M353.104,-61.7518C372.94,-56.7599 397.384,-50.6085 418.448,-45.3075"/>
<polygon fill="midnightblue" stroke="midnightblue" points="419.327,-48.6956 428.17,-42.8609 417.618,-41.9072 419.327,-48.6956"/>
</g>
<!-- Node11&#45;&gt;Node9 -->
<g id="edge13" class="edge"><title>Node11&#45;&gt;Node9</title>
<path fill="none" stroke="midnightblue" d="M498.101,-90.3408C547.884,-90.3408 646.777,-90.3408 696.297,-90.3408"/>
<polygon fill="midnightblue" stroke="midnightblue" points="696.362,-93.8409 706.361,-90.3408 696.361,-86.8409 696.362,-93.8409"/>
</g>
<!-- Node12 -->
<g id="node12" class="node"><title>Node12</title>
<g id="a_node12"><a xlink:href="../../db/dfc/round__handler_8qc.html#a9f9012d50d940fe62137392d78988b0f" target="_top" xlink:title="round_handler_Reset">
<polygon fill="none" stroke="black" points="560.5,-99.8408 560.5,-118.841 669.5,-118.841 669.5,-99.8408 560.5,-99.8408"/>
<text text-anchor="middle" x="615" y="-106.841" font-family="Helvetica,sans-Serif" font-size="10.00">round_handler_Reset</text>
</a>
</g>
</g>
<!-- Node11&#45;&gt;Node12 -->
<g id="edge11" class="edge"><title>Node11&#45;&gt;Node12</title>
<path fill="none" stroke="midnightblue" d="M498.251,-94.2776C513.403,-96.2494 532.349,-98.715 550.497,-101.077"/>
<polygon fill="midnightblue" stroke="midnightblue" points="550.101,-104.555 560.469,-102.374 551.004,-97.6131 550.101,-104.555"/>
</g>
<!-- Node12&#45;&gt;Node9 -->
<g id="edge12" class="edge"><title>Node12&#45;&gt;Node9</title>
<path fill="none" stroke="midnightblue" d="M669.711,-100.063C678.914,-98.4738 688.165,-96.8759 696.433,-95.4478"/>
<polygon fill="midnightblue" stroke="midnightblue" points="697.044,-98.8942 706.302,-93.7431 695.853,-91.9964 697.044,-98.8942"/>
</g>
<!-- Node13&#45;&gt;Node9 -->
<g id="edge15" class="edge"><title>Node13&#45;&gt;Node9</title>
<path fill="none" stroke="midnightblue" d="M490.365,-23.829C529.229,-8.85076 610.738,15.6045 670,-14.3408 693.451,-26.1906 709.491,-53.0028 718.206,-71.3909"/>
<polygon fill="midnightblue" stroke="midnightblue" points="715.035,-72.8744 722.295,-80.5914 721.432,-70.0317 715.035,-72.8744"/>
</g>
<!-- Node14 -->
<g id="node14" class="node"><title>Node14</title>
<g id="a_node14"><a xlink:href="../../d8/de2/menudefs_8qc.html#a0476dbfc79dac7770dfaa5c8d780a87d" target="_top" xlink:title="pow">
<polygon fill="none" stroke="black" points="597.5,-23.8408 597.5,-42.8408 632.5,-42.8408 632.5,-23.8408 597.5,-23.8408"/>
<text text-anchor="middle" x="615" y="-30.8408" font-family="Helvetica,sans-Serif" font-size="10.00">pow</text>
</a>
</g>
</g>
<!-- Node13&#45;&gt;Node14 -->
<g id="edge16" class="edge"><title>Node13&#45;&gt;Node14</title>
<path fill="none" stroke="midnightblue" d="M508.282,-33.3408C533.409,-33.3408 565.058,-33.3408 587.149,-33.3408"/>
<polygon fill="midnightblue" stroke="midnightblue" points="587.45,-36.8409 597.449,-33.3408 587.449,-29.8409 587.45,-36.8409"/>
</g>
<!-- Node15&#45;&gt;Node7 -->
<g id="edge19" class="edge"><title>Node15&#45;&gt;Node7</title>
<path fill="none" stroke="midnightblue" d="M332.276,-346.711C344.455,-339.573 360.87,-329.229 374,-318.341 391.908,-303.491 390.411,-292.89 410,-280.341 419.239,-274.422 430.524,-270.134 440.537,-267.146"/>
<polygon fill="midnightblue" stroke="midnightblue" points="441.63,-270.476 450.371,-264.49 439.804,-263.718 441.63,-270.476"/>
</g>
<!-- Node16 -->
<g id="node16" class="node"><title>Node16</title>
<g id="a_node16"><a xlink:href="../../d8/de2/menudefs_8qc.html#a274680f571a231ddf29421b93d434bfa" target="_top" xlink:title="strlen">
<polygon fill="none" stroke="black" points="446.5,-479.841 446.5,-498.841 487.5,-498.841 487.5,-479.841 446.5,-479.841"/>
<text text-anchor="middle" x="467" y="-486.841" font-family="Helvetica,sans-Serif" font-size="10.00">strlen</text>
</a>
</g>
</g>
<!-- Node15&#45;&gt;Node16 -->
<g id="edge20" class="edge"><title>Node15&#45;&gt;Node16</title>
<path fill="none" stroke="midnightblue" d="M320.551,-366.133C333.431,-388.003 367.52,-441.18 410,-470.341 417.933,-475.787 427.564,-479.792 436.586,-482.681"/>
<polygon fill="midnightblue" stroke="midnightblue" points="435.813,-486.1 446.39,-485.486 437.738,-479.37 435.813,-486.1"/>
</g>
<!-- Node17 -->
<g id="node17" class="node"><title>Node17</title>
<g id="a_node17"><a xlink:href="../../dd/d87/effectinfo_8qc.html#a2ae584d3dad891f2ae754acead0f015a" target="_top" xlink:title="strcat">
<polygon fill="none" stroke="black" points="446.5,-441.841 446.5,-460.841 487.5,-460.841 487.5,-441.841 446.5,-441.841"/>
<text text-anchor="middle" x="467" y="-448.841" font-family="Helvetica,sans-Serif" font-size="10.00">strcat</text>
</a>
</g>
</g>
<!-- Node15&#45;&gt;Node17 -->
<g id="edge21" class="edge"><title>Node15&#45;&gt;Node17</title>
<path fill="none" stroke="midnightblue" d="M324.695,-366.049C341.005,-381.903 375.541,-413.475 410,-432.341 418.309,-436.89 427.904,-440.628 436.778,-443.549"/>
<polygon fill="midnightblue" stroke="midnightblue" points="435.797,-446.909 446.384,-446.499 437.852,-440.218 435.797,-446.909"/>
</g>
<!-- Node18 -->
<g id="node18" class="node"><title>Node18</title>
<g id="a_node18"><a xlink:href="../../d8/de2/menudefs_8qc.html#a40f6c65c8bbcfa51df783f2809a2502b" target="_top" xlink:title="substring">
<polygon fill="none" stroke="black" points="439,-403.841 439,-422.841 495,-422.841 495,-403.841 439,-403.841"/>
<text text-anchor="middle" x="467" y="-410.841" font-family="Helvetica,sans-Serif" font-size="10.00">substring</text>
</a>
</g>
</g>
<!-- Node15&#45;&gt;Node18 -->
<g id="edge22" class="edge"><title>Node15&#45;&gt;Node18</title>
<path fill="none" stroke="midnightblue" d="M337.903,-365.901C357.063,-373.802 385.172,-385.171 410,-394.341 416.131,-396.605 422.675,-398.918 429.048,-401.116"/>
<polygon fill="midnightblue" stroke="midnightblue" points="428.243,-404.539 438.838,-404.45 430.5,-397.913 428.243,-404.539"/>
</g>
<!-- Node19 -->
<g id="node19" class="node"><title>Node19</title>
<g id="a_node19"><a xlink:href="../../d8/de2/menudefs_8qc.html#a5231f4ff2813f7de782b67d25a9e4cf9" target="_top" xlink:title="fopen">
<polygon fill="none" stroke="black" points="446.5,-365.841 446.5,-384.841 487.5,-384.841 487.5,-365.841 446.5,-365.841"/>
<text text-anchor="middle" x="467" y="-372.841" font-family="Helvetica,sans-Serif" font-size="10.00">fopen</text>
</a>
</g>
</g>
<!-- Node15&#45;&gt;Node19 -->
<g id="edge23" class="edge"><title>Node15&#45;&gt;Node19</title>
<path fill="none" stroke="midnightblue" d="M354.673,-361.333C380.285,-364.556 413.058,-368.679 436.399,-371.616"/>
<polygon fill="midnightblue" stroke="midnightblue" points="436.041,-375.099 446.4,-372.875 436.915,-368.153 436.041,-375.099"/>
</g>
<!-- Node20 -->
<g id="node20" class="node"><title>Node20</title>
<g id="a_node20"><a xlink:href="../../d8/de2/menudefs_8qc.html#a33a318a59e2648521862f24200a821df" target="_top" xlink:title="fputs">
<polygon fill="none" stroke="black" points="448,-327.841 448,-346.841 486,-346.841 486,-327.841 448,-327.841"/>
<text text-anchor="middle" x="467" y="-334.841" font-family="Helvetica,sans-Serif" font-size="10.00">fputs</text>
</a>
</g>
</g>
<!-- Node15&#45;&gt;Node20 -->
<g id="edge24" class="edge"><title>Node15&#45;&gt;Node20</title>
<path fill="none" stroke="midnightblue" d="M354.673,-351.349C380.74,-348.069 414.224,-343.856 437.633,-340.91"/>
<polygon fill="midnightblue" stroke="midnightblue" points="438.132,-344.375 447.617,-339.654 437.258,-337.43 438.132,-344.375"/>
</g>
<!-- Node21 -->
<g id="node21" class="node"><title>Node21</title>
<g id="a_node21"><a xlink:href="../../d7/d7c/common_2items_2item_8qh.html#ae302aa82565a3721ffb781350f49b7af" target="_top" xlink:title="LOG_INFO">
<polygon fill="none" stroke="black" points="434,-289.841 434,-308.841 500,-308.841 500,-289.841 434,-289.841"/>
<text text-anchor="middle" x="467" y="-296.841" font-family="Helvetica,sans-Serif" font-size="10.00">LOG_INFO</text>
</a>
</g>
</g>
<!-- Node15&#45;&gt;Node21 -->
<g id="edge25" class="edge"><title>Node15&#45;&gt;Node21</title>
<path fill="none" stroke="midnightblue" d="M337.903,-346.781C357.063,-338.879 385.172,-327.511 410,-318.341 415.553,-316.29 421.445,-314.199 427.242,-312.19"/>
<polygon fill="midnightblue" stroke="midnightblue" points="428.503,-315.458 436.831,-308.909 426.236,-308.835 428.503,-315.458"/>
</g>
</g>
</svg>
        <g id="navigator" transform="translate(0 0)" fill="#404254">
                <rect fill="#f2f5e9" fill-opacity="0.5" stroke="#606060" stroke-width=".5" x="0" y="0" width="60" height="60"/>
                <use id="zoomplus" xlink:href="#zoomPlus" x="17" y="9" onmousedown="handleZoom(evt,'in')"/>
                <use id="zoomminus" xlink:href="#zoomMin" x="42" y="9" onmousedown="handleZoom(evt,'out')"/>
                <use id="reset" xlink:href="#resetDef" x="30" y="36" onmousedown="handleReset()"/>
                <g id="arrowUp" xlink:href="#dirArrow" transform="translate(30 24)" onmousedown="handlePan(0,-1)">
                  <use xlink:href="#rim" fill="#404040">
                        <set attributeName="fill" to="#808080" begin="arrowUp.mouseover" end="arrowUp.mouseout"/>
                  </use>
                  <path fill="none" stroke="white" stroke-width="1.5" d="M0,-3.0v7 M-2.5,-0.5L0,-3.0L2.5,-0.5"/>
                </g>
                <g id="arrowRight" xlink:href="#dirArrow" transform="rotate(90) translate(36 -43)" onmousedown="handlePan(1,0)">
                  <use xlink:href="#rim" fill="#404040">
                        <set attributeName="fill" to="#808080" begin="arrowRight.mouseover" end="arrowRight.mouseout"/>
                  </use>
                  <path fill="none" stroke="white" stroke-width="1.5" d="M0,-3.0v7 M-2.5,-0.5L0,-3.0L2.5,-0.5"/>
                </g>
                <g id="arrowDown" xlink:href="#dirArrow" transform="rotate(180) translate(-30 -48)" onmousedown="handlePan(0,1)">
                  <use xlink:href="#rim" fill="#404040">
                        <set attributeName="fill" to="#808080" begin="arrowDown.mouseover" end="arrowDown.mouseout"/>
                  </use>
                  <path fill="none" stroke="white" stroke-width="1.5" d="M0,-3.0v7 M-2.5,-0.5L0,-3.0L2.5,-0.5"/>
                </g>
                <g id="arrowLeft" xlink:href="#dirArrow" transform="rotate(270) translate(-36 17)" onmousedown="handlePan(-1,0)">
                  <use xlink:href="#rim" fill="#404040">
                        <set attributeName="fill" to="#808080" begin="arrowLeft.mouseover" end="arrowLeft.mouseout"/>
                  </use>
                  <path fill="none" stroke="white" stroke-width="1.5" d="M0,-3.0v7 M-2.5,-0.5L0,-3.0L2.5,-0.5"/>
                </g>
        </g>
        <svg viewBox="0 0 15 15" width="100%" height="30px" preserveAspectRatio="xMaxYMin meet">
         <g id="arrow_out" transform="scale(0.3 0.3)">
          <a xlink:href="server_2command_2vote_8qc_a033dd1158883a78b40100e1dd268815c_cgraph_org.svg" target="_base">
           <rect id="button" ry="5" rx="5" y="6" x="6" height="38" width="38"
                fill="#f2f5e9" fill-opacity="0.5" stroke="#606060" stroke-width="1.0"/>
           <path id="arrow"
             d="M 11.500037,31.436501 C 11.940474,20.09759 22.043105,11.32322 32.158766,21.979434 L 37.068811,17.246167 C 37.068811,17.246167 37.088388,32 37.088388,32 L 22.160133,31.978069 C 22.160133,31.978069 26.997745,27.140456 26.997745,27.140456 C 18.528582,18.264221 13.291696,25.230495 11.500037,31.436501 z"
             style="fill:#404040;"/>
          </a>
         </g>
        </svg>
</svg>
