<?xml version="1.0" encoding="UTF-8" standalone="no"?>
<!DOCTYPE svg PUBLIC "-//W3C//DTD SVG 1.1//EN"
 "http://www.w3.org/Graphics/SVG/1.1/DTD/svg11.dtd">
<!-- Generated by graphviz version 2.38.0 (20140413.2041)
 -->
<!-- Title: VoteCommand_status Pages: 1 -->
<svg width="358pt" height="142pt"
 viewBox="0.00 0.00 358.00 142.00" xmlns="http://www.w3.org/2000/svg" xmlns:xlink="http://www.w3.org/1999/xlink">
<g id="graph0" class="graph" transform="scale(1 1) rotate(0) translate(4 138)">
<title>VoteCommand_status</title>
<!-- Node1 -->
<g id="node1" class="node"><title>Node1</title>
<polygon fill="#bfbfbf" stroke="black" points="0,-57.5 0,-76.5 124,-76.5 124,-57.5 0,-57.5"/>
<text text-anchor="middle" x="62" y="-64.5" font-family="Helvetica,sans-Serif" font-size="10.00">VoteCommand_status</text>
</g>
<!-- Node2 -->
<g id="node2" class="node"><title>Node2</title>
<g id="a_node2"><a xlink:href="../../de/d55/server_2command_2common_8qc.html#a4114b4f1cf89f05bc62cba74db4401f6" target="_top" xlink:title="GetCommandPrefix">
<polygon fill="none" stroke="black" points="160,-114.5 160,-133.5 270,-133.5 270,-114.5 160,-114.5"/>
<text text-anchor="middle" x="215" y="-121.5" font-family="Helvetica,sans-Serif" font-size="10.00">GetCommandPrefix</text>
</a>
</g>
</g>
<!-- Node1&#45;&gt;Node2 -->
<g id="edge1" class="edge"><title>Node1&#45;&gt;Node2</title>
<path fill="none" stroke="midnightblue" d="M86.8284,-76.6039C106.409,-84.4308 134.909,-95.6744 160,-105 165.298,-106.969 170.908,-109.001 176.429,-110.971"/>
<polygon fill="midnightblue" stroke="midnightblue" points="175.589,-114.387 186.184,-114.422 177.924,-107.787 175.589,-114.387"/>
</g>
<!-- Node3 -->
<g id="node3" class="node"><title>Node3</title>
<g id="a_node3"><a xlink:href="../../d1/dad/server_2command_2vote_8qc.html#a4f3bd9f8d7a811cea72d9bcd0ab0573e" target="_top" xlink:title="OriginalCallerName">
<polygon fill="none" stroke="black" points="160.5,-76.5 160.5,-95.5 269.5,-95.5 269.5,-76.5 160.5,-76.5"/>
<text text-anchor="middle" x="215" y="-83.5" font-family="Helvetica,sans-Serif" font-size="10.00">OriginalCallerName</text>
</a>
</g>
</g>
<!-- Node1&#45;&gt;Node3 -->
<g id="edge2" class="edge"><title>Node1&#45;&gt;Node3</title>
<path fill="none" stroke="midnightblue" d="M124.417,-74.728C132.986,-75.8061 141.805,-76.9158 150.412,-77.9989"/>
<polygon fill="midnightblue" stroke="midnightblue" points="150.032,-81.4786 160.391,-79.2545 150.906,-74.5334 150.032,-81.4786"/>
</g>
<!-- Node4 -->
<g id="node4" class="node"><title>Node4</title>
<g id="a_node4"><a xlink:href="../../de/d55/server_2command_2common_8qc.html#a37f1c035bd3cc63c8ef7d58dd12958ee" target="_top" xlink:title="print_to">
<polygon fill="none" stroke="black" points="188.5,-38.5 188.5,-57.5 241.5,-57.5 241.5,-38.5 188.5,-38.5"/>
<text text-anchor="middle" x="215" y="-45.5" font-family="Helvetica,sans-Serif" font-size="10.00">print_to</text>
</a>
</g>
</g>
<!-- Node1&#45;&gt;Node4 -->
<g id="edge3" class="edge"><title>Node1&#45;&gt;Node4</title>
<path fill="none" stroke="midnightblue" d="M124.417,-59.272C142.77,-56.9627 162.273,-54.5087 178.38,-52.482"/>
<polygon fill="midnightblue" stroke="midnightblue" points="178.943,-55.9389 188.428,-51.2177 178.069,-48.9936 178.943,-55.9389"/>
</g>
<!-- Node6 -->
<g id="node6" class="node"><title>Node6</title>
<g id="a_node6"><a xlink:href="../../d9/d09/notifications_2all_8inc.html#ad04f6b1a4889674503c3cdad58c55da1" target="_top" xlink:title="strcat">
<polygon fill="none" stroke="black" points="306,-0.5 306,-19.5 350,-19.5 350,-0.5 306,-0.5"/>
<text text-anchor="middle" x="328" y="-7.5" font-family="Helvetica,sans-Serif" font-size="10.00">strcat</text>
</a>
</g>
</g>
<!-- Node1&#45;&gt;Node6 -->
<g id="edge7" class="edge"><title>Node1&#45;&gt;Node6</title>
<path fill="none" stroke="midnightblue" d="M82.9351,-57.416C102.202,-48.5838 132.441,-35.8416 160,-29 206.382,-17.4857 261.768,-12.9276 295.654,-11.1379"/>
<polygon fill="midnightblue" stroke="midnightblue" points="296.041,-14.6234 305.862,-10.6487 295.706,-7.63145 296.041,-14.6234"/>
</g>
<!-- Node5 -->
<g id="node5" class="node"><title>Node5</title>
<g id="a_node5"><a xlink:href="../../d8/de2/menudefs_8qc.html#a4ae54ed78d55acc008e6fcf8c72e779f" target="_top" xlink:title="sprint">
<polygon fill="none" stroke="black" points="306,-76.5 306,-95.5 350,-95.5 350,-76.5 306,-76.5"/>
<text text-anchor="middle" x="328" y="-83.5" font-family="Helvetica,sans-Serif" font-size="10.00">sprint</text>
</a>
</g>
</g>
<!-- Node4&#45;&gt;Node5 -->
<g id="edge4" class="edge"><title>Node4&#45;&gt;Node5</title>
<path fill="none" stroke="midnightblue" d="M241.745,-56.8135C258.02,-62.3852 279.142,-69.6161 296.29,-75.4866"/>
<polygon fill="midnightblue" stroke="midnightblue" points="295.266,-78.8354 305.86,-78.763 297.533,-72.2128 295.266,-78.8354"/>
</g>
<!-- Node4&#45;&gt;Node6 -->
<g id="edge5" class="edge"><title>Node4&#45;&gt;Node6</title>
<path fill="none" stroke="midnightblue" d="M241.745,-39.1865C258.02,-33.6148 279.142,-26.3839 296.29,-20.5134"/>
<polygon fill="midnightblue" stroke="midnightblue" points="297.533,-23.7872 305.86,-17.237 295.266,-17.1646 297.533,-23.7872"/>
</g>
<!-- Node7 -->
<g id="node7" class="node"><title>Node7</title>
<g id="a_node7"><a xlink:href="../../d8/de2/menudefs_8qc.html#acf9c719e766113bad854907e87812e98" target="_top" xlink:title="print">
<polygon fill="none" stroke="black" points="309,-38.5 309,-57.5 347,-57.5 347,-38.5 309,-38.5"/>
<text text-anchor="middle" x="328" y="-45.5" font-family="Helvetica,sans-Serif" font-size="10.00">print</text>
</a>
</g>
</g>
<!-- Node4&#45;&gt;Node7 -->
<g id="edge6" class="edge"><title>Node4&#45;&gt;Node7</title>
<path fill="none" stroke="midnightblue" d="M241.745,-48C258.716,-48 280.958,-48 298.469,-48"/>
<polygon fill="midnightblue" stroke="midnightblue" points="298.671,-51.5001 308.671,-48 298.671,-44.5001 298.671,-51.5001"/>
</g>
</g>
</svg>
