<?xml version="1.0" encoding="UTF-8" standalone="no"?>
<!DOCTYPE svg PUBLIC "-//W3C//DTD SVG 1.1//EN"
 "http://www.w3.org/Graphics/SVG/1.1/DTD/svg11.dtd">
<!-- Generated by graphviz version 2.38.0 (20140413.2041)
 -->
<!-- Title: VoteCommand_parse Pages: 1 -->
<svg width="293pt" height="66pt"
 viewBox="0.00 0.00 293.00 66.00" xmlns="http://www.w3.org/2000/svg" xmlns:xlink="http://www.w3.org/1999/xlink">
<g id="graph0" class="graph" transform="scale(1 1) rotate(0) translate(4 62)">
<title>VoteCommand_parse</title>
<!-- Node1 -->
<g id="node1" class="node"><title>Node1</title>
<polygon fill="#bfbfbf" stroke="black" points="0,-19.5 0,-38.5 121,-38.5 121,-19.5 0,-19.5"/>
<text text-anchor="middle" x="60.5" y="-26.5" font-family="Helvetica,sans-Serif" font-size="10.00">VoteCommand_parse</text>
</g>
<!-- Node2 -->
<g id="node2" class="node"><title>Node2</title>
<g id="a_node2"><a xlink:href="../../d1/dad/server_2command_2vote_8qc.html#a4f1105ee7cce8f345f40291061422397" target="_top" xlink:title="VoteCommand_call">
<polygon fill="none" stroke="black" points="166,-38.5 166,-57.5 276,-57.5 276,-38.5 166,-38.5"/>
<text text-anchor="middle" x="221" y="-45.5" font-family="Helvetica,sans-Serif" font-size="10.00">VoteCommand_call</text>
</a>
</g>
</g>
<!-- Node1&#45;&gt;Node2 -->
<g id="edge1" class="edge"><title>Node1&#45;&gt;Node2</title>
<path fill="none" stroke="midnightblue" d="M131.492,-37.3902C143.057,-38.7766 154.889,-40.195 165.985,-41.525"/>
<polygon fill="midnightblue" stroke="midnightblue" points="131.768,-33.8983 121.422,-36.1831 130.934,-40.8485 131.768,-33.8983"/>
</g>
<!-- Node3 -->
<g id="node3" class="node"><title>Node3</title>
<g id="a_node3"><a xlink:href="../../d1/dad/server_2command_2vote_8qc.html#ae57d1ca4b4a65c6bd2200048fc0a5c62" target="_top" xlink:title="VoteCommand_master">
<polygon fill="none" stroke="black" points="157,-0.5 157,-19.5 285,-19.5 285,-0.5 157,-0.5"/>
<text text-anchor="middle" x="221" y="-7.5" font-family="Helvetica,sans-Serif" font-size="10.00">VoteCommand_master</text>
</a>
</g>
</g>
<!-- Node1&#45;&gt;Node3 -->
<g id="edge2" class="edge"><title>Node1&#45;&gt;Node3</title>
<path fill="none" stroke="midnightblue" d="M131.578,-20.5995C139.982,-19.5921 148.525,-18.568 156.823,-17.5733"/>
<polygon fill="midnightblue" stroke="midnightblue" points="130.934,-17.1515 121.422,-21.8169 131.768,-24.1017 130.934,-17.1515"/>
</g>
</g>
</svg>
