<?xml version="1.0" encoding="UTF-8" standalone="no"?>
<!DOCTYPE svg PUBLIC "-//W3C//DTD SVG 1.1//EN"
 "http://www.w3.org/Graphics/SVG/1.1/DTD/svg11.dtd">
<!-- Generated by graphviz version 2.36.0 (20140111.2315)
 -->
<!-- Title: Nagger_VoteCountChanged Pages: 1 -->
<svg width="644pt" height="236pt"
 viewBox="0.00 0.00 644.00 236.00" xmlns="http://www.w3.org/2000/svg" xmlns:xlink="http://www.w3.org/1999/xlink">
<g id="graph0" class="graph" transform="scale(1 1) rotate(0) translate(4 232)">
<title>Nagger_VoteCountChanged</title>
<!-- Node1 -->
<g id="node1" class="node"><title>Node1</title>
<polygon fill="#bfbfbf" stroke="black" points="0.5,-95.5 0.5,-114.5 139.5,-114.5 139.5,-95.5 0.5,-95.5"/>
<text text-anchor="middle" x="70" y="-102.5" font-family="Helvetica,sans-Serif" font-size="10.00">Nagger_VoteCountChanged</text>
</g>
<!-- Node2 -->
<g id="node2" class="node"><title>Node2</title>
<g id="a_node2"><a xlink:href="../../d1/dad/server_2command_2vote_8qc.html#a8646fbc325b5110f96dbc1a8b324fc5f" target="_top" xlink:title="VoteCount">
<polygon fill="none" stroke="black" points="176.5,-95.5 176.5,-114.5 239.5,-114.5 239.5,-95.5 176.5,-95.5"/>
<text text-anchor="middle" x="208" y="-102.5" font-family="Helvetica,sans-Serif" font-size="10.00">VoteCount</text>
</a>
</g>
</g>
<!-- Node1&#45;&gt;Node2 -->
<g id="edge1" class="edge"><title>Node1&#45;&gt;Node2</title>
<path fill="none" stroke="midnightblue" d="M149.94,-105C159.218,-105 168.217,-105 176.222,-105"/>
<polygon fill="midnightblue" stroke="midnightblue" points="149.797,-101.5 139.797,-105 149.797,-108.5 149.797,-101.5"/>
</g>
<!-- Node3 -->
<g id="node3" class="node"><title>Node3</title>
<g id="a_node3"><a xlink:href="../../d8/d08/vote_8qh.html#a41459531ac2a8175a4f4f92436975439" target="_top" xlink:title="VoteThink">
<polygon fill="none" stroke="black" points="305.5,-190.5 305.5,-209.5 366.5,-209.5 366.5,-190.5 305.5,-190.5"/>
<text text-anchor="middle" x="336" y="-197.5" font-family="Helvetica,sans-Serif" font-size="10.00">VoteThink</text>
</a>
</g>
</g>
<!-- Node2&#45;&gt;Node3 -->
<g id="edge2" class="edge"><title>Node2&#45;&gt;Node3</title>
<path fill="none" stroke="midnightblue" d="M220.767,-123.262C232.735,-140.461 252.784,-165.793 276,-181 284.822,-186.779 295.536,-190.917 305.4,-193.825"/>
<polygon fill="midnightblue" stroke="midnightblue" points="223.467,-121.004 214.982,-114.659 217.658,-124.91 223.467,-121.004"/>
</g>
<!-- Node6 -->
<g id="node6" class="node"><title>Node6</title>
<g id="a_node6"><a xlink:href="../../d1/dad/server_2command_2vote_8qc.html#a827a6790fd39955dc53cc86c0985af0a" target="_top" xlink:title="VoteCommand_abstain">
<polygon fill="none" stroke="black" points="276.5,-152.5 276.5,-171.5 395.5,-171.5 395.5,-152.5 276.5,-152.5"/>
<text text-anchor="middle" x="336" y="-159.5" font-family="Helvetica,sans-Serif" font-size="10.00">VoteCommand_abstain</text>
</a>
</g>
</g>
<!-- Node2&#45;&gt;Node6 -->
<g id="edge6" class="edge"><title>Node2&#45;&gt;Node6</title>
<path fill="none" stroke="midnightblue" d="M232.599,-119.958C245.166,-127.515 261.072,-136.445 276,-143 283.981,-146.504 292.818,-149.693 301.171,-152.415"/>
<polygon fill="midnightblue" stroke="midnightblue" points="234.067,-116.753 223.712,-114.51 230.408,-122.72 234.067,-116.753"/>
</g>
<!-- Node7 -->
<g id="node7" class="node"><title>Node7</title>
<g id="a_node7"><a xlink:href="../../d1/dad/server_2command_2vote_8qc.html#a3cea7e5f9eb477984809aa33562e2434" target="_top" xlink:title="VoteCommand_call">
<polygon fill="none" stroke="black" points="285,-114.5 285,-133.5 387,-133.5 387,-114.5 285,-114.5"/>
<text text-anchor="middle" x="336" y="-121.5" font-family="Helvetica,sans-Serif" font-size="10.00">VoteCommand_call</text>
</a>
</g>
</g>
<!-- Node2&#45;&gt;Node7 -->
<g id="edge7" class="edge"><title>Node2&#45;&gt;Node7</title>
<path fill="none" stroke="midnightblue" d="M249.432,-111.097C260.635,-112.786 272.935,-114.641 284.63,-116.405"/>
<polygon fill="midnightblue" stroke="midnightblue" points="249.911,-107.63 239.501,-109.599 248.867,-114.551 249.911,-107.63"/>
</g>
<!-- Node8 -->
<g id="node8" class="node"><title>Node8</title>
<g id="a_node8"><a xlink:href="../../d1/dad/server_2command_2vote_8qc.html#afc5d81170122263e3548af3ce2537e7f" target="_top" xlink:title="VoteCommand_master">
<polygon fill="none" stroke="black" points="277.5,-76.5 277.5,-95.5 394.5,-95.5 394.5,-76.5 277.5,-76.5"/>
<text text-anchor="middle" x="336" y="-83.5" font-family="Helvetica,sans-Serif" font-size="10.00">VoteCommand_master</text>
</a>
</g>
</g>
<!-- Node2&#45;&gt;Node8 -->
<g id="edge8" class="edge"><title>Node2&#45;&gt;Node8</title>
<path fill="none" stroke="midnightblue" d="M249.565,-98.883C258.449,-97.5434 268.018,-96.1004 277.424,-94.682"/>
<polygon fill="midnightblue" stroke="midnightblue" points="248.867,-95.4486 239.501,-100.401 249.911,-102.37 248.867,-95.4486"/>
</g>
<!-- Node9 -->
<g id="node9" class="node"><title>Node9</title>
<g id="a_node9"><a xlink:href="../../d1/dad/server_2command_2vote_8qc.html#a47be4be6ffbff0d839465b18cf771c9a" target="_top" xlink:title="VoteCommand_no">
<polygon fill="none" stroke="black" points="287,-38.5 287,-57.5 385,-57.5 385,-38.5 287,-38.5"/>
<text text-anchor="middle" x="336" y="-45.5" font-family="Helvetica,sans-Serif" font-size="10.00">VoteCommand_no</text>
</a>
</g>
</g>
<!-- Node2&#45;&gt;Node9 -->
<g id="edge9" class="edge"><title>Node2&#45;&gt;Node9</title>
<path fill="none" stroke="midnightblue" d="M232.599,-90.0417C245.166,-82.4852 261.072,-73.5548 276,-67 283.981,-63.4957 292.818,-60.3068 301.171,-57.5846"/>
<polygon fill="midnightblue" stroke="midnightblue" points="230.408,-87.2796 223.712,-95.4903 234.067,-93.2473 230.408,-87.2796"/>
</g>
<!-- Node10 -->
<g id="node10" class="node"><title>Node10</title>
<g id="a_node10"><a xlink:href="../../d1/dad/server_2command_2vote_8qc.html#aaa71782429a29dc1281807e966deaf7a" target="_top" xlink:title="VoteCommand_yes">
<polygon fill="none" stroke="black" points="284.5,-0.5 284.5,-19.5 387.5,-19.5 387.5,-0.5 284.5,-0.5"/>
<text text-anchor="middle" x="336" y="-7.5" font-family="Helvetica,sans-Serif" font-size="10.00">VoteCommand_yes</text>
</a>
</g>
</g>
<!-- Node2&#45;&gt;Node10 -->
<g id="edge10" class="edge"><title>Node2&#45;&gt;Node10</title>
<path fill="none" stroke="midnightblue" d="M220.767,-86.7381C232.735,-69.5387 252.784,-44.2071 276,-29 281.851,-25.1673 288.535,-22.056 295.251,-19.5469"/>
<polygon fill="midnightblue" stroke="midnightblue" points="217.658,-85.0895 214.982,-95.3407 223.467,-88.9961 217.658,-85.0895"/>
</g>
<!-- Node4 -->
<g id="node4" class="node"><title>Node4</title>
<g id="a_node4"><a xlink:href="../../d7/d97/g__world_8qh.html#a233af455133bc7ba4e3e100115bf2885" target="_top" xlink:title="CheckRules_World">
<polygon fill="none" stroke="black" points="432.5,-190.5 432.5,-209.5 533.5,-209.5 533.5,-190.5 432.5,-190.5"/>
<text text-anchor="middle" x="483" y="-197.5" font-family="Helvetica,sans-Serif" font-size="10.00">CheckRules_World</text>
</a>
</g>
</g>
<!-- Node3&#45;&gt;Node4 -->
<g id="edge3" class="edge"><title>Node3&#45;&gt;Node4</title>
<path fill="none" stroke="midnightblue" d="M376.922,-200C394.063,-200 414.271,-200 432.362,-200"/>
<polygon fill="midnightblue" stroke="midnightblue" points="376.693,-196.5 366.693,-200 376.693,-203.5 376.693,-196.5"/>
</g>
<!-- Node4&#45;&gt;Node4 -->
<g id="edge4" class="edge"><title>Node4&#45;&gt;Node4</title>
<path fill="none" stroke="midnightblue" d="M460.679,-219.029C461.896,-224.128 469.337,-228 483,-228 504.328,-228 510.493,-218.565 501.495,-209.757"/>
<polygon fill="midnightblue" stroke="midnightblue" points="463.926,-220.336 464.505,-209.757 457.455,-217.666 463.926,-220.336"/>
</g>
<!-- Node5 -->
<g id="node5" class="node"><title>Node5</title>
<g id="a_node5"><a xlink:href="../../d3/d4f/sv__main_8qc.html#a554af7e2ac58045168dad9eca30bc8b1" target="_top" xlink:title="StartFrame">
<polygon fill="none" stroke="black" points="570.5,-190.5 570.5,-209.5 635.5,-209.5 635.5,-190.5 570.5,-190.5"/>
<text text-anchor="middle" x="603" y="-197.5" font-family="Helvetica,sans-Serif" font-size="10.00">StartFrame</text>
</a>
</g>
</g>
<!-- Node4&#45;&gt;Node5 -->
<g id="edge5" class="edge"><title>Node4&#45;&gt;Node5</title>
<path fill="none" stroke="midnightblue" d="M543.907,-200C552.976,-200 562.017,-200 570.172,-200"/>
<polygon fill="midnightblue" stroke="midnightblue" points="543.701,-196.5 533.701,-200 543.701,-203.5 543.701,-196.5"/>
</g>
</g>
</svg>
