<?xml version="1.0" encoding="UTF-8" standalone="no"?>
<!DOCTYPE svg PUBLIC "-//W3C//DTD SVG 1.1//EN"
 "http://www.w3.org/Graphics/SVG/1.1/DTD/svg11.dtd">
<!-- Generated by graphviz version 2.36.0 (20140111.2315)
 -->
<!-- Title: race_writeTime Pages: 1 -->
<svg width="806pt" height="66pt"
 viewBox="0.00 0.00 806.00 66.00" xmlns="http://www.w3.org/2000/svg" xmlns:xlink="http://www.w3.org/1999/xlink">
<g id="graph0" class="graph" transform="scale(1 1) rotate(0) translate(4 62)">
<title>race_writeTime</title>
<!-- Node1 -->
<g id="node1" class="node"><title>Node1</title>
<polygon fill="#bfbfbf" stroke="black" points="0.5,-19.5 0.5,-38.5 83.5,-38.5 83.5,-19.5 0.5,-19.5"/>
<text text-anchor="middle" x="42" y="-26.5" font-family="Helvetica,sans-Serif" font-size="10.00">race_writeTime</text>
</g>
<!-- Node2 -->
<g id="node2" class="node"><title>Node2</title>
<g id="a_node2"><a xlink:href="../../d4/d1b/race_8qh.html#ad40c8cd52859377201760075057590a0" target="_top" xlink:title="race_setTime">
<polygon fill="none" stroke="black" points="120,-19.5 120,-38.5 196,-38.5 196,-19.5 120,-19.5"/>
<text text-anchor="middle" x="158" y="-26.5" font-family="Helvetica,sans-Serif" font-size="10.00">race_setTime</text>
</a>
</g>
</g>
<!-- Node1&#45;&gt;Node2 -->
<g id="edge1" class="edge"><title>Node1&#45;&gt;Node2</title>
<path fill="none" stroke="midnightblue" d="M93.6423,-29C102.393,-29 111.346,-29 119.662,-29"/>
<polygon fill="midnightblue" stroke="midnightblue" points="93.5132,-25.5001 83.5131,-29 93.5131,-32.5001 93.5132,-25.5001"/>
</g>
<!-- Node3 -->
<g id="node3" class="node"><title>Node3</title>
<g id="a_node3"><a xlink:href="../../d3/d73/gamemode__ctf_8qc.html#aba1e98b6d35915f2dd8d9ec564f69c4f" target="_top" xlink:title="ctf_CaptureRecord">
<polygon fill="none" stroke="black" points="232.5,-38.5 232.5,-57.5 331.5,-57.5 331.5,-38.5 232.5,-38.5"/>
<text text-anchor="middle" x="282" y="-45.5" font-family="Helvetica,sans-Serif" font-size="10.00">ctf_CaptureRecord</text>
</a>
</g>
</g>
<!-- Node2&#45;&gt;Node3 -->
<g id="edge2" class="edge"><title>Node2&#45;&gt;Node3</title>
<path fill="none" stroke="midnightblue" d="M206.39,-36.3803C214.878,-37.7023 223.737,-39.0819 232.262,-40.4096"/>
<polygon fill="midnightblue" stroke="midnightblue" points="206.686,-32.8845 196.267,-34.8039 205.609,-39.8011 206.686,-32.8845"/>
</g>
<!-- Node8 -->
<g id="node8" class="node"><title>Node8</title>
<g id="a_node8"><a xlink:href="../../d6/d3b/race_8qc.html#a67d4330e2cc2507d55de968501e8de67" target="_top" xlink:title="race_SendTime">
<polygon fill="none" stroke="black" points="239.5,-0.5 239.5,-19.5 324.5,-19.5 324.5,-0.5 239.5,-0.5"/>
<text text-anchor="middle" x="282" y="-7.5" font-family="Helvetica,sans-Serif" font-size="10.00">race_SendTime</text>
</a>
</g>
</g>
<!-- Node2&#45;&gt;Node8 -->
<g id="edge7" class="edge"><title>Node2&#45;&gt;Node8</title>
<path fill="none" stroke="midnightblue" d="M206.424,-21.6143C217.261,-19.9266 228.699,-18.1452 239.276,-16.498"/>
<polygon fill="midnightblue" stroke="midnightblue" points="205.609,-18.1989 196.267,-23.1961 206.686,-25.1155 205.609,-18.1989"/>
</g>
<!-- Node4 -->
<g id="node4" class="node"><title>Node4</title>
<g id="a_node4"><a xlink:href="../../d3/d73/gamemode__ctf_8qc.html#a25811e1a3df660687ed3240c93c5643e" target="_top" xlink:title="ctf_Handle_Capture">
<polygon fill="none" stroke="black" points="368,-38.5 368,-57.5 472,-57.5 472,-38.5 368,-38.5"/>
<text text-anchor="middle" x="420" y="-45.5" font-family="Helvetica,sans-Serif" font-size="10.00">ctf_Handle_Capture</text>
</a>
</g>
</g>
<!-- Node3&#45;&gt;Node4 -->
<g id="edge3" class="edge"><title>Node3&#45;&gt;Node4</title>
<path fill="none" stroke="midnightblue" d="M341.782,-48C350.467,-48 359.357,-48 367.87,-48"/>
<polygon fill="midnightblue" stroke="midnightblue" points="341.715,-44.5001 331.715,-48 341.715,-51.5001 341.715,-44.5001"/>
</g>
<!-- Node5 -->
<g id="node5" class="node"><title>Node5</title>
<g id="a_node5"><a xlink:href="../../d3/d73/gamemode__ctf_8qc.html#a8edcce745140a0191b957e969f8a2cfb" target="_top" xlink:title="ctf_FlagThink">
<polygon fill="none" stroke="black" points="508,-38.5 508,-57.5 584,-57.5 584,-38.5 508,-38.5"/>
<text text-anchor="middle" x="546" y="-45.5" font-family="Helvetica,sans-Serif" font-size="10.00">ctf_FlagThink</text>
</a>
</g>
</g>
<!-- Node4&#45;&gt;Node5 -->
<g id="edge4" class="edge"><title>Node4&#45;&gt;Node5</title>
<path fill="none" stroke="midnightblue" d="M482.375,-48C491.126,-48 499.893,-48 507.98,-48"/>
<polygon fill="midnightblue" stroke="midnightblue" points="482.151,-44.5001 472.151,-48 482.151,-51.5001 482.151,-44.5001"/>
</g>
<!-- Node6 -->
<g id="node6" class="node"><title>Node6</title>
<g id="a_node6"><a xlink:href="../../d3/d73/gamemode__ctf_8qc.html#ae4da0b9f3b47d57388ba498d2baed651" target="_top" xlink:title="ctf_FlagSetup">
<polygon fill="none" stroke="black" points="620.5,-38.5 620.5,-57.5 697.5,-57.5 697.5,-38.5 620.5,-38.5"/>
<text text-anchor="middle" x="659" y="-45.5" font-family="Helvetica,sans-Serif" font-size="10.00">ctf_FlagSetup</text>
</a>
</g>
</g>
<!-- Node5&#45;&gt;Node6 -->
<g id="edge5" class="edge"><title>Node5&#45;&gt;Node6</title>
<path fill="none" stroke="midnightblue" d="M594.279,-48C602.957,-48 611.909,-48 620.261,-48"/>
<polygon fill="midnightblue" stroke="midnightblue" points="594.27,-44.5001 584.27,-48 594.27,-51.5001 594.27,-44.5001"/>
</g>
<!-- Node7 -->
<g id="node7" class="node"><title>Node7</title>
<g id="a_node7"><a xlink:href="../../d3/d73/gamemode__ctf_8qc.html#a2a2129ef74628a0c8bef5d48a016e3e0" target="_top" xlink:title="spawnfunc">
<polygon fill="none" stroke="black" points="734,-38.5 734,-57.5 798,-57.5 798,-38.5 734,-38.5"/>
<text text-anchor="middle" x="766" y="-45.5" font-family="Helvetica,sans-Serif" font-size="10.00">spawnfunc</text>
</a>
</g>
</g>
<!-- Node6&#45;&gt;Node7 -->
<g id="edge6" class="edge"><title>Node6&#45;&gt;Node7</title>
<path fill="none" stroke="midnightblue" d="M707.843,-48C716.68,-48 725.695,-48 733.875,-48"/>
<polygon fill="midnightblue" stroke="midnightblue" points="707.611,-44.5001 697.611,-48 707.611,-51.5001 707.611,-44.5001"/>
</g>
</g>
</svg>
