<?xml version="1.0" encoding="UTF-8" standalone="no"?>
<!DOCTYPE svg PUBLIC "-//W3C//DTD SVG 1.1//EN"
 "http://www.w3.org/Graphics/SVG/1.1/DTD/svg11.dtd">
<!-- Generated by graphviz version 2.36.0 (20140111.2315)
 -->
<!-- Title: trigger_race_checkpoint_verify Pages: 1 -->
<svg width="650pt" height="560pt"
 viewBox="0.00 0.00 650.00 560.00" xmlns="http://www.w3.org/2000/svg" xmlns:xlink="http://www.w3.org/1999/xlink">
<g id="graph0" class="graph" transform="scale(1 1) rotate(0) translate(4 556)">
<title>trigger_race_checkpoint_verify</title>
<!-- Node1 -->
<g id="node1" class="node"><title>Node1</title>
<polygon fill="#bfbfbf" stroke="black" points="0,-223 0,-253 120,-253 120,-223 0,-223"/>
<text text-anchor="start" x="8" y="-241" font-family="Helvetica,sans-Serif" font-size="10.00">trigger_race_checkpoint</text>
<text text-anchor="middle" x="60" y="-230" font-family="Helvetica,sans-Serif" font-size="10.00">_verify</text>
</g>
<!-- Node2 -->
<g id="node2" class="node"><title>Node2</title>
<g id="a_node2"><a xlink:href="../../d8/de2/menudefs_8qc.html#ae3e9d36eda7886f5fe58e5201291dd78" target="_top" xlink:title="argv">
<polygon fill="none" stroke="black" points="204.5,-532.5 204.5,-551.5 239.5,-551.5 239.5,-532.5 204.5,-532.5"/>
<text text-anchor="middle" x="222" y="-539.5" font-family="Helvetica,sans-Serif" font-size="10.00">argv</text>
</a>
</g>
</g>
<!-- Node1&#45;&gt;Node2 -->
<g id="edge1" class="edge"><title>Node1&#45;&gt;Node2</title>
<path fill="none" stroke="midnightblue" d="M61.7261,-253.061C64.752,-299.177 80.0791,-440.032 156,-518 166.198,-528.473 181.36,-534.411 194.475,-537.759"/>
<polygon fill="midnightblue" stroke="midnightblue" points="193.905,-541.217 204.421,-539.927 195.396,-534.378 193.905,-541.217"/>
</g>
<!-- Node3 -->
<g id="node3" class="node"><title>Node3</title>
<g id="a_node3"><a xlink:href="../../d4/d0c/csprogsdefs_8qc.html#acbb54a239d76062465dccbc6a6c6e464" target="_top" xlink:title="entity">
<polygon fill="none" stroke="black" points="582.5,-456.5 582.5,-475.5 623.5,-475.5 623.5,-456.5 582.5,-456.5"/>
<text text-anchor="middle" x="603" y="-463.5" font-family="Helvetica,sans-Serif" font-size="10.00">entity</text>
</a>
</g>
</g>
<!-- Node1&#45;&gt;Node3 -->
<g id="edge2" class="edge"><title>Node1&#45;&gt;Node3</title>
<path fill="none" stroke="midnightblue" d="M63.6657,-253.158C70.9976,-289.94 95.1163,-384.118 156,-428 285.754,-521.521 495.157,-489.226 572.265,-472.972"/>
<polygon fill="midnightblue" stroke="midnightblue" points="573.218,-476.347 582.245,-470.8 571.729,-469.507 573.218,-476.347"/>
</g>
<!-- Node4 -->
<g id="node4" class="node"><title>Node4</title>
<g id="a_node4"><a xlink:href="../../d8/de2/menudefs_8qc.html#a56b53595c8aa15ca107c03896db91fd2" target="_top" xlink:title="error">
<polygon fill="none" stroke="black" points="204,-304.5 204,-323.5 240,-323.5 240,-304.5 204,-304.5"/>
<text text-anchor="middle" x="222" y="-311.5" font-family="Helvetica,sans-Serif" font-size="10.00">error</text>
</a>
</g>
</g>
<!-- Node1&#45;&gt;Node4 -->
<g id="edge3" class="edge"><title>Node1&#45;&gt;Node4</title>
<path fill="none" stroke="midnightblue" d="M82.4062,-253.026C101.121,-265.62 129.392,-283.359 156,-295 168.08,-300.285 182.05,-304.586 193.936,-307.75"/>
<polygon fill="midnightblue" stroke="midnightblue" points="193.192,-311.172 203.745,-310.235 194.911,-304.387 193.192,-311.172"/>
</g>
<!-- Node5 -->
<g id="node5" class="node"><title>Node5</title>
<g id="a_node5"><a xlink:href="../../d8/de2/menudefs_8qc.html#a1a78b46b9db5c0d6fcee5be7697afa09" target="_top" xlink:title="fclose">
<polygon fill="none" stroke="black" points="200.5,-266.5 200.5,-285.5 243.5,-285.5 243.5,-266.5 200.5,-266.5"/>
<text text-anchor="middle" x="222" y="-273.5" font-family="Helvetica,sans-Serif" font-size="10.00">fclose</text>
</a>
</g>
</g>
<!-- Node1&#45;&gt;Node5 -->
<g id="edge4" class="edge"><title>Node1&#45;&gt;Node5</title>
<path fill="none" stroke="midnightblue" d="M120.124,-252.042C144.078,-257.731 170.718,-264.058 190.603,-268.781"/>
<polygon fill="midnightblue" stroke="midnightblue" points="189.798,-272.187 200.336,-271.092 191.416,-265.376 189.798,-272.187"/>
</g>
<!-- Node6 -->
<g id="node6" class="node"><title>Node6</title>
<g id="a_node6"><a xlink:href="../../d8/de2/menudefs_8qc.html#a0e7ecefd4e3af6c242077b24445e5f78" target="_top" xlink:title="fgets">
<polygon fill="none" stroke="black" points="203,-228.5 203,-247.5 241,-247.5 241,-228.5 203,-228.5"/>
<text text-anchor="middle" x="222" y="-235.5" font-family="Helvetica,sans-Serif" font-size="10.00">fgets</text>
</a>
</g>
</g>
<!-- Node1&#45;&gt;Node6 -->
<g id="edge5" class="edge"><title>Node1&#45;&gt;Node6</title>
<path fill="none" stroke="midnightblue" d="M120.124,-238C145.025,-238 172.827,-238 192.928,-238"/>
<polygon fill="midnightblue" stroke="midnightblue" points="192.958,-241.5 202.958,-238 192.958,-234.5 192.958,-241.5"/>
</g>
<!-- Node7 -->
<g id="node7" class="node"><title>Node7</title>
<g id="a_node7"><a xlink:href="../../d8/de2/menudefs_8qc.html#a53c4a8e7afd17cad92bc00adba96bb78" target="_top" xlink:title="find">
<polygon fill="none" stroke="black" points="587,-304.5 587,-323.5 619,-323.5 619,-304.5 587,-304.5"/>
<text text-anchor="middle" x="603" y="-311.5" font-family="Helvetica,sans-Serif" font-size="10.00">find</text>
</a>
</g>
</g>
<!-- Node1&#45;&gt;Node7 -->
<g id="edge6" class="edge"><title>Node1&#45;&gt;Node7</title>
<path fill="none" stroke="midnightblue" d="M70.3934,-253.152C85.3101,-275.592 116.78,-316.755 156,-333 305.491,-394.921 507.794,-343.205 577.336,-322.02"/>
<polygon fill="midnightblue" stroke="midnightblue" points="578.464,-325.335 586.971,-319.019 576.382,-318.651 578.464,-325.335"/>
</g>
<!-- Node8 -->
<g id="node8" class="node"><title>Node8</title>
<g id="a_node8"><a xlink:href="../../d8/de2/menudefs_8qc.html#a5231f4ff2813f7de782b67d25a9e4cf9" target="_top" xlink:title="fopen">
<polygon fill="none" stroke="black" points="201.5,-190.5 201.5,-209.5 242.5,-209.5 242.5,-190.5 201.5,-190.5"/>
<text text-anchor="middle" x="222" y="-197.5" font-family="Helvetica,sans-Serif" font-size="10.00">fopen</text>
</a>
</g>
</g>
<!-- Node1&#45;&gt;Node8 -->
<g id="edge7" class="edge"><title>Node1&#45;&gt;Node8</title>
<path fill="none" stroke="midnightblue" d="M120.124,-223.958C144.533,-218.161 171.73,-211.702 191.729,-206.952"/>
<polygon fill="midnightblue" stroke="midnightblue" points="192.557,-210.353 201.477,-204.637 190.939,-203.542 192.557,-210.353"/>
</g>
<!-- Node9 -->
<g id="node9" class="node"><title>Node9</title>
<g id="a_node9"><a xlink:href="../../d8/de2/menudefs_8qc.html#abbb0d86741e0056b6c04f7280c185d76" target="_top" xlink:title="ftos">
<polygon fill="none" stroke="black" points="205.5,-152.5 205.5,-171.5 238.5,-171.5 238.5,-152.5 205.5,-152.5"/>
<text text-anchor="middle" x="222" y="-159.5" font-family="Helvetica,sans-Serif" font-size="10.00">ftos</text>
</a>
</g>
</g>
<!-- Node1&#45;&gt;Node9 -->
<g id="edge8" class="edge"><title>Node1&#45;&gt;Node9</title>
<path fill="none" stroke="midnightblue" d="M82.4062,-222.974C101.121,-210.38 129.392,-192.641 156,-181 168.58,-175.497 183.21,-171.06 195.401,-167.863"/>
<polygon fill="midnightblue" stroke="midnightblue" points="196.518,-171.191 205.374,-165.376 194.824,-164.399 196.518,-171.191"/>
</g>
<!-- Node10 -->
<g id="node10" class="node"><title>Node10</title>
<g id="a_node10"><a xlink:href="../../db/dcc/g__world_8qc.html#a1330c9208470a4800fb84c8810728bcb" target="_top" xlink:title="GetMapname">
<polygon fill="none" stroke="black" points="184.5,-114.5 184.5,-133.5 259.5,-133.5 259.5,-114.5 184.5,-114.5"/>
<text text-anchor="middle" x="222" y="-121.5" font-family="Helvetica,sans-Serif" font-size="10.00">GetMapname</text>
</a>
</g>
</g>
<!-- Node1&#45;&gt;Node10 -->
<g id="edge9" class="edge"><title>Node1&#45;&gt;Node10</title>
<path fill="none" stroke="midnightblue" d="M72.1357,-222.811C88.3051,-201.825 120.281,-164.164 156,-143 161.776,-139.577 168.211,-136.736 174.721,-134.388"/>
<polygon fill="midnightblue" stroke="midnightblue" points="175.821,-137.71 184.247,-131.288 173.655,-131.054 175.821,-137.71"/>
</g>
<!-- Node11 -->
<g id="node11" class="node"><title>Node11</title>
<g id="a_node11"><a xlink:href="../../d6/d3b/race_8qc.html#a8a2538ef381890c5e7f7fe836e1fedaa" target="_top" xlink:title="race_NextCheckpoint">
<polygon fill="none" stroke="black" points="166.5,-76.5 166.5,-95.5 277.5,-95.5 277.5,-76.5 166.5,-76.5"/>
<text text-anchor="middle" x="222" y="-83.5" font-family="Helvetica,sans-Serif" font-size="10.00">race_NextCheckpoint</text>
</a>
</g>
</g>
<!-- Node1&#45;&gt;Node11 -->
<g id="edge10" class="edge"><title>Node1&#45;&gt;Node11</title>
<path fill="none" stroke="midnightblue" d="M67.7168,-222.7C80.6775,-194.97 111.81,-136.379 156,-105 158.732,-103.06 161.661,-101.317 164.71,-99.7498"/>
<polygon fill="midnightblue" stroke="midnightblue" points="166.421,-102.82 174.137,-95.5601 163.578,-96.423 166.421,-102.82"/>
</g>
<!-- Node12 -->
<g id="node12" class="node"><title>Node12</title>
<g id="a_node12"><a xlink:href="../../d0/d41/spawnpoints_8qc.html#ac6bf8417de66cc27e1aad493335d2901" target="_top" xlink:title="Spawn_FilterOutBadSpots">
<polygon fill="none" stroke="black" points="156,-399.5 156,-418.5 288,-418.5 288,-399.5 156,-399.5"/>
<text text-anchor="middle" x="222" y="-406.5" font-family="Helvetica,sans-Serif" font-size="10.00">Spawn_FilterOutBadSpots</text>
</a>
</g>
</g>
<!-- Node1&#45;&gt;Node12 -->
<g id="edge11" class="edge"><title>Node1&#45;&gt;Node12</title>
<path fill="none" stroke="midnightblue" d="M69.7964,-253.127C85.0578,-278.515 118.432,-330.409 156,-366 167.35,-376.752 181.696,-386.558 194.021,-394.082"/>
<polygon fill="midnightblue" stroke="midnightblue" points="192.579,-397.295 202.97,-399.368 196.14,-391.268 192.579,-397.295"/>
</g>
<!-- Node18 -->
<g id="node18" class="node"><title>Node18</title>
<g id="a_node18"><a xlink:href="../../d8/de2/menudefs_8qc.html#a2f6d3020689c0e872cfb455d0b2cbd4a" target="_top" xlink:title="stof">
<polygon fill="none" stroke="black" points="205.5,-38.5 205.5,-57.5 238.5,-57.5 238.5,-38.5 205.5,-38.5"/>
<text text-anchor="middle" x="222" y="-45.5" font-family="Helvetica,sans-Serif" font-size="10.00">stof</text>
</a>
</g>
</g>
<!-- Node1&#45;&gt;Node18 -->
<g id="edge21" class="edge"><title>Node1&#45;&gt;Node18</title>
<path fill="none" stroke="midnightblue" d="M65.1043,-222.868C74.94,-189.515 103.064,-109.288 156,-67 167.123,-58.114 182.267,-53.3833 195.139,-50.8651"/>
<polygon fill="midnightblue" stroke="midnightblue" points="195.965,-54.2771 205.279,-49.2275 194.849,-47.3667 195.965,-54.2771"/>
</g>
<!-- Node19 -->
<g id="node19" class="node"><title>Node19</title>
<g id="a_node19"><a xlink:href="../../d8/de2/menudefs_8qc.html#ad76dc2b2895cd23f21e008f12a686158" target="_top" xlink:title="strcat">
<polygon fill="none" stroke="black" points="201.5,-0.5 201.5,-19.5 242.5,-19.5 242.5,-0.5 201.5,-0.5"/>
<text text-anchor="middle" x="222" y="-7.5" font-family="Helvetica,sans-Serif" font-size="10.00">strcat</text>
</a>
</g>
</g>
<!-- Node1&#45;&gt;Node19 -->
<g id="edge22" class="edge"><title>Node1&#45;&gt;Node19</title>
<path fill="none" stroke="midnightblue" d="M63.4584,-222.793C70.4835,-184.347 94.2646,-82.5242 156,-29 165.756,-20.5414 179.105,-15.8436 191.168,-13.2364"/>
<polygon fill="midnightblue" stroke="midnightblue" points="192.078,-16.6299 201.315,-11.4415 190.858,-9.7369 192.078,-16.6299"/>
</g>
<!-- Node12&#45;&gt;Node3 -->
<g id="edge12" class="edge"><title>Node12&#45;&gt;Node3</title>
<path fill="none" stroke="midnightblue" d="M266.736,-418.569C312.298,-428.235 385.851,-442.991 450,-452 492.255,-457.934 541.487,-461.942 572.204,-464.099"/>
<polygon fill="midnightblue" stroke="midnightblue" points="572.039,-467.596 582.255,-464.785 572.516,-460.612 572.039,-467.596"/>
</g>
<!-- Node13 -->
<g id="node13" class="node"><title>Node13</title>
<g id="a_node13"><a xlink:href="../../d0/d41/spawnpoints_8qc.html#a84d4f6b3e07681dab4898e5c42966698" target="_top" xlink:title="Spawn_ScoreAll">
<polygon fill="none" stroke="black" points="324.5,-399.5 324.5,-418.5 413.5,-418.5 413.5,-399.5 324.5,-399.5"/>
<text text-anchor="middle" x="369" y="-406.5" font-family="Helvetica,sans-Serif" font-size="10.00">Spawn_ScoreAll</text>
</a>
</g>
</g>
<!-- Node12&#45;&gt;Node13 -->
<g id="edge13" class="edge"><title>Node12&#45;&gt;Node13</title>
<path fill="none" stroke="midnightblue" d="M288.289,-409C296.946,-409 305.742,-409 314.176,-409"/>
<polygon fill="midnightblue" stroke="midnightblue" points="314.251,-412.5 324.251,-409 314.251,-405.5 314.251,-412.5"/>
</g>
<!-- Node13&#45;&gt;Node3 -->
<g id="edge14" class="edge"><title>Node13&#45;&gt;Node3</title>
<path fill="none" stroke="midnightblue" d="M408.832,-418.541C454.971,-429.876 530.92,-448.536 572.51,-458.755"/>
<polygon fill="midnightblue" stroke="midnightblue" points="571.758,-462.174 582.304,-461.161 573.428,-455.376 571.758,-462.174"/>
</g>
<!-- Node14 -->
<g id="node14" class="node"><title>Node14</title>
<g id="a_node14"><a xlink:href="../../d0/d41/spawnpoints_8qc.html#adb306ba6ed0866d22bb8f9318d8c4488" target="_top" xlink:title="Spawn_Score">
<polygon fill="none" stroke="black" points="450.5,-380.5 450.5,-399.5 527.5,-399.5 527.5,-380.5 450.5,-380.5"/>
<text text-anchor="middle" x="489" y="-387.5" font-family="Helvetica,sans-Serif" font-size="10.00">Spawn_Score</text>
</a>
</g>
</g>
<!-- Node13&#45;&gt;Node14 -->
<g id="edge15" class="edge"><title>Node13&#45;&gt;Node14</title>
<path fill="none" stroke="midnightblue" d="M413.604,-401.979C422.286,-400.581 431.447,-399.106 440.26,-397.687"/>
<polygon fill="midnightblue" stroke="midnightblue" points="441.079,-401.1 450.395,-396.055 439.966,-394.189 441.079,-401.1"/>
</g>
<!-- Node14&#45;&gt;Node3 -->
<g id="edge17" class="edge"><title>Node14&#45;&gt;Node3</title>
<path fill="none" stroke="midnightblue" d="M506.704,-399.658C513.495,-403.811 521.305,-408.882 528,-414 545.244,-427.181 546.12,-434.694 564,-447 566.945,-449.027 570.137,-450.967 573.377,-452.781"/>
<polygon fill="midnightblue" stroke="midnightblue" points="571.984,-456.003 582.469,-457.526 575.223,-449.797 571.984,-456.003"/>
</g>
<!-- Node14&#45;&gt;Node7 -->
<g id="edge18" class="edge"><title>Node14&#45;&gt;Node7</title>
<path fill="none" stroke="midnightblue" d="M506.704,-380.342C513.495,-376.189 521.305,-371.118 528,-366 545.244,-352.819 546.12,-345.306 564,-333 568.185,-330.12 572.868,-327.414 577.48,-324.997"/>
<polygon fill="midnightblue" stroke="midnightblue" points="579.233,-328.036 586.66,-320.48 576.142,-321.755 579.233,-328.036"/>
</g>
<!-- Node15 -->
<g id="node15" class="node"><title>Node15</title>
<g id="a_node15"><a xlink:href="../../d8/de2/menudefs_8qc.html#a79d61ab0e4126e02af8bc36d432aedaf" target="_top" xlink:title="vlen">
<polygon fill="none" stroke="black" points="585.5,-342.5 585.5,-361.5 620.5,-361.5 620.5,-342.5 585.5,-342.5"/>
<text text-anchor="middle" x="603" y="-349.5" font-family="Helvetica,sans-Serif" font-size="10.00">vlen</text>
</a>
</g>
</g>
<!-- Node14&#45;&gt;Node15 -->
<g id="edge16" class="edge"><title>Node14&#45;&gt;Node15</title>
<path fill="none" stroke="midnightblue" d="M518.262,-380.411C535.922,-374.419 558.506,-366.757 575.768,-360.9"/>
<polygon fill="midnightblue" stroke="midnightblue" points="576.895,-364.214 585.24,-357.686 574.646,-357.585 576.895,-364.214"/>
</g>
<!-- Node16 -->
<g id="node16" class="node"><title>Node16</title>
<g id="a_node16"><a xlink:href="../../d1/d07/framework_8qc.html#aef346455b3c2def821423a45227b45dd" target="_top" xlink:title="LOG_TRACE">
<polygon fill="none" stroke="black" points="564.5,-418.5 564.5,-437.5 641.5,-437.5 641.5,-418.5 564.5,-418.5"/>
<text text-anchor="middle" x="603" y="-425.5" font-family="Helvetica,sans-Serif" font-size="10.00">LOG_TRACE</text>
</a>
</g>
</g>
<!-- Node14&#45;&gt;Node16 -->
<g id="edge19" class="edge"><title>Node14&#45;&gt;Node16</title>
<path fill="none" stroke="midnightblue" d="M518.262,-399.589C532.19,-404.314 549.18,-410.079 564.207,-415.177"/>
<polygon fill="midnightblue" stroke="midnightblue" points="563.152,-418.515 573.747,-418.414 565.401,-411.887 563.152,-418.515"/>
</g>
<!-- Node17 -->
<g id="node17" class="node"><title>Node17</title>
<g id="a_node17"><a xlink:href="../../d8/de2/menudefs_8qc.html#ab0df318f2dece7f798ff4061cd67f9d2" target="_top" xlink:title="vtos">
<polygon fill="none" stroke="black" points="585.5,-380.5 585.5,-399.5 620.5,-399.5 620.5,-380.5 585.5,-380.5"/>
<text text-anchor="middle" x="603" y="-387.5" font-family="Helvetica,sans-Serif" font-size="10.00">vtos</text>
</a>
</g>
</g>
<!-- Node14&#45;&gt;Node17 -->
<g id="edge20" class="edge"><title>Node14&#45;&gt;Node17</title>
<path fill="none" stroke="midnightblue" d="M527.606,-390C543.203,-390 560.942,-390 575.185,-390"/>
<polygon fill="midnightblue" stroke="midnightblue" points="575.302,-393.5 585.302,-390 575.302,-386.5 575.302,-393.5"/>
</g>
</g>
</svg>
