<?xml version="1.0" encoding="UTF-8" standalone="no"?>
<!DOCTYPE svg PUBLIC "-//W3C//DTD SVG 1.1//EN"
 "http://www.w3.org/Graphics/SVG/1.1/DTD/svg11.dtd">
<!-- Generated by graphviz version 2.36.0 (20140111.2315)
 -->
<!-- Title: anticheat_spectatecopy Pages: 1 -->
<!--zoomable 117 -->
<svg id="main" version="1.1" xmlns="http://www.w3.org/2000/svg" xmlns:xlink="http://www.w3.org/1999/xlink" xml:space="preserve" onload="init(evt)">
<style type="text/css"><![CDATA[
.edge:hover path { stroke: red; }
.edge:hover polygon { stroke: red; fill: red; }
]]></style>
<script type="text/javascript"><![CDATA[
var edges = document.getElementsByTagName('g');
if (edges && edges.length) {
  for (var i=0;i<edges.length;i++) {
    if (edges[i].id.substr(0,4)=='edge') {
      edges[i].setAttribute('class','edge');
    }
  }
}
]]></script>
        <defs>
                <circle id="rim" cx="0" cy="0" r="7"/>
                <circle id="rim2" cx="0" cy="0" r="3.5"/>
                <g id="zoomPlus">
                        <use xlink:href="#rim" fill="#404040">
                                <set attributeName="fill" to="#808080" begin="zoomplus.mouseover" end="zoomplus.mouseout"/>
                        </use>
                        <path d="M-4,0h8M0,-4v8" fill="none" stroke="white" stroke-width="1.5" pointer-events="none"/>
                </g>
                <g id="zoomMin">
                        <use xlink:href="#rim" fill="#404040">
                                <set attributeName="fill" to="#808080" begin="zoomminus.mouseover" end="zoomminus.mouseout"/>
                        </use>
                        <path d="M-4,0h8" fill="none" stroke="white" stroke-width="1.5" pointer-events="none"/>
                </g>
                <g id="dirArrow">
                        <path fill="none" stroke="white" stroke-width="1.5" d="M0,-3.0v7 M-2.5,-0.5L0,-3.0L2.5,-0.5"/>
                </g>
               <g id="resetDef">
                       <use xlink:href="#rim2" fill="#404040">
                               <set attributeName="fill" to="#808080" begin="reset.mouseover" end="reset.mouseout"/>
                       </use>
               </g>
        </defs>

<script type="text/javascript">
var viewWidth = 922;
var viewHeight = 117;
var sectionId = 'dynsection-14';
</script>
<script xlink:href="../../svgpan.js"/>
<svg id="graph" class="graph">
<g id="viewport">
<title>anticheat_spectatecopy</title>
<!-- Node1 -->
<g id="node1" class="node"><title>Node1</title>
<polygon fill="#bfbfbf" stroke="black" points="0,-3.58885 0,-22.5888 120,-22.5888 120,-3.58885 0,-3.58885"/>
<text text-anchor="middle" x="60" y="-10.5888" font-family="Helvetica,sans-Serif" font-size="10.00">anticheat_spectatecopy</text>
</g>
<!-- Node2 -->
<g id="node2" class="node"><title>Node2</title>
<g id="a_node2"><a xlink:href="../../df/dd7/server_2client_8qc.html#a1565df9f317d13a6dda4f158fe18478d" target="_top" xlink:title="SpectateCopy">
<polygon fill="none" stroke="black" points="156.5,-3.58885 156.5,-22.5888 235.5,-22.5888 235.5,-3.58885 156.5,-3.58885"/>
<text text-anchor="middle" x="196" y="-10.5888" font-family="Helvetica,sans-Serif" font-size="10.00">SpectateCopy</text>
</a>
</g>
</g>
<!-- Node1&#45;&gt;Node2 -->
<g id="edge1" class="edge"><title>Node1&#45;&gt;Node2</title>
<path fill="none" stroke="midnightblue" d="M130.217,-13.0888C139.13,-13.0888 147.992,-13.0888 156.169,-13.0888"/>
<polygon fill="midnightblue" stroke="midnightblue" points="130.164,-9.58894 120.164,-13.0888 130.164,-16.5889 130.164,-9.58894"/>
</g>
<!-- Node3 -->
<g id="node3" class="node"><title>Node3</title>
<g id="a_node3"><a xlink:href="../../df/dd7/server_2client_8qc.html#a3e9a26edec819b4a5e84fce635a1fa68" target="_top" xlink:title="SpectateUpdate">
<polygon fill="none" stroke="black" points="272.5,-3.58885 272.5,-22.5888 359.5,-22.5888 359.5,-3.58885 272.5,-3.58885"/>
<text text-anchor="middle" x="316" y="-10.5888" font-family="Helvetica,sans-Serif" font-size="10.00">SpectateUpdate</text>
</a>
</g>
</g>
<!-- Node2&#45;&gt;Node3 -->
<g id="edge2" class="edge"><title>Node2&#45;&gt;Node3</title>
<path fill="none" stroke="midnightblue" d="M245.746,-13.0888C254.52,-13.0888 263.606,-13.0888 272.196,-13.0888"/>
<polygon fill="midnightblue" stroke="midnightblue" points="245.638,-9.58894 235.638,-13.0888 245.638,-16.5889 245.638,-9.58894"/>
</g>
<!-- Node4 -->
<g id="node4" class="node"><title>Node4</title>
<g id="a_node4"><a xlink:href="../../df/dd7/server_2client_8qc.html#a0626fbb86c705b3c7be4d0195a73627e" target="_top" xlink:title="SpectateSet">
<polygon fill="none" stroke="black" points="396.5,-32.5888 396.5,-51.5888 467.5,-51.5888 467.5,-32.5888 396.5,-32.5888"/>
<text text-anchor="middle" x="432" y="-39.5888" font-family="Helvetica,sans-Serif" font-size="10.00">SpectateSet</text>
</a>
</g>
</g>
<!-- Node3&#45;&gt;Node4 -->
<g id="edge3" class="edge"><title>Node3&#45;&gt;Node4</title>
<path fill="none" stroke="midnightblue" d="M364.353,-25.1349C375.121,-27.874 386.361,-30.7334 396.477,-33.3067"/>
<polygon fill="midnightblue" stroke="midnightblue" points="365.198,-21.7383 354.644,-22.6649 363.472,-28.5223 365.198,-21.7383"/>
</g>
<!-- Node10 -->
<g id="node10" class="node"><title>Node10</title>
<g id="a_node10"><a xlink:href="../../df/dd7/server_2client_8qc.html#aaac35902af8d876a6517fd1156b56aa9" target="_top" xlink:title="SpectatorThink">
<polygon fill="none" stroke="black" points="629.5,-13.5888 629.5,-32.5888 712.5,-32.5888 712.5,-13.5888 629.5,-13.5888"/>
<text text-anchor="middle" x="671" y="-20.5888" font-family="Helvetica,sans-Serif" font-size="10.00">SpectatorThink</text>
</a>
</g>
</g>
<!-- Node3&#45;&gt;Node10 -->
<g id="edge12" class="edge"><title>Node3&#45;&gt;Node10</title>
<path fill="none" stroke="midnightblue" d="M369.773,-6.96093C423.368,-1.75436 508.681,3.73607 582,-4.08885 599.407,-5.94656 618.426,-9.81549 634.316,-13.5802"/>
<polygon fill="midnightblue" stroke="midnightblue" points="369.418,-3.4789 359.818,-7.96043 370.117,-10.4439 369.418,-3.4789"/>
</g>
<!-- Node5 -->
<g id="node5" class="node"><title>Node5</title>
<g id="a_node5"><a xlink:href="../../d8/de2/server_2client_8qh.html#acd1560ca258ee21a90fd35530c8127b0" target="_top" xlink:title="Spectate">
<polygon fill="none" stroke="black" points="515,-89.5888 515,-108.589 571,-108.589 571,-89.5888 515,-89.5888"/>
<text text-anchor="middle" x="543" y="-96.5888" font-family="Helvetica,sans-Serif" font-size="10.00">Spectate</text>
</a>
</g>
</g>
<!-- Node4&#45;&gt;Node5 -->
<g id="edge4" class="edge"><title>Node4&#45;&gt;Node5</title>
<path fill="none" stroke="midnightblue" d="M459.511,-56.503C472.818,-63.6801 489.212,-72.4366 504,-80.0888 510.027,-83.2075 516.629,-86.5385 522.616,-89.5265"/>
<polygon fill="midnightblue" stroke="midnightblue" points="460.896,-53.273 450.435,-51.5944 457.566,-59.4302 460.896,-53.273"/>
</g>
<!-- Node8 -->
<g id="node8" class="node"><title>Node8</title>
<g id="a_node8"><a xlink:href="../../df/dd7/server_2client_8qc.html#a9762fc4a80a93fd0e0eba75f2b14c207" target="_top" xlink:title="SpectateNext">
<polygon fill="none" stroke="black" points="504.5,-51.5888 504.5,-70.5888 581.5,-70.5888 581.5,-51.5888 504.5,-51.5888"/>
<text text-anchor="middle" x="543" y="-58.5888" font-family="Helvetica,sans-Serif" font-size="10.00">SpectateNext</text>
</a>
</g>
</g>
<!-- Node4&#45;&gt;Node8 -->
<g id="edge7" class="edge"><title>Node4&#45;&gt;Node8</title>
<path fill="none" stroke="midnightblue" d="M477.836,-49.9042C486.577,-51.4279 495.661,-53.0113 504.148,-54.4909"/>
<polygon fill="midnightblue" stroke="midnightblue" points="478.24,-46.4221 467.788,-48.1528 477.038,-53.3181 478.24,-46.4221"/>
</g>
<!-- Node11 -->
<g id="node11" class="node"><title>Node11</title>
<g id="a_node11"><a xlink:href="../../df/dd7/server_2client_8qc.html#adbc32bfd245aaa7838b6c425d30c279d" target="_top" xlink:title="SpectatePrev">
<polygon fill="none" stroke="black" points="505,-13.5888 505,-32.5888 581,-32.5888 581,-13.5888 505,-13.5888"/>
<text text-anchor="middle" x="543" y="-20.5888" font-family="Helvetica,sans-Serif" font-size="10.00">SpectatePrev</text>
</a>
</g>
</g>
<!-- Node4&#45;&gt;Node11 -->
<g id="edge10" class="edge"><title>Node4&#45;&gt;Node11</title>
<path fill="none" stroke="midnightblue" d="M477.765,-34.2857C486.789,-32.7127 496.182,-31.0755 504.909,-29.5543"/>
<polygon fill="midnightblue" stroke="midnightblue" points="477.038,-30.8596 467.788,-36.0249 478.24,-37.7556 477.038,-30.8596"/>
</g>
<!-- Node6 -->
<g id="node6" class="node"><title>Node6</title>
<g id="a_node6"><a xlink:href="../../d3/d73/gamemode__ctf_8qc.html#af718ac80b43bf3ea8caf199bb5ee907d" target="_top" xlink:title="superspec_Spectate">
<polygon fill="none" stroke="black" points="618,-89.5888 618,-108.589 724,-108.589 724,-89.5888 618,-89.5888"/>
<text text-anchor="middle" x="671" y="-96.5888" font-family="Helvetica,sans-Serif" font-size="10.00">superspec_Spectate</text>
</a>
</g>
</g>
<!-- Node5&#45;&gt;Node6 -->
<g id="edge5" class="edge"><title>Node5&#45;&gt;Node6</title>
<path fill="none" stroke="midnightblue" d="M581.143,-99.0888C592.642,-99.0888 605.531,-99.0888 617.849,-99.0888"/>
<polygon fill="midnightblue" stroke="midnightblue" points="581.03,-95.5889 571.03,-99.0888 581.03,-102.589 581.03,-95.5889"/>
</g>
<!-- Node7 -->
<g id="node7" class="node"><title>Node7</title>
<g id="a_node7"><a xlink:href="../../da/d6b/sv__superspec_8qc.html#ac2a8328e8393e2114e431c29d4899c8d" target="_top" xlink:title="MUTATOR_HOOKFUNCTION">
<polygon fill="none" stroke="black" points="760.5,-89.5888 760.5,-108.589 913.5,-108.589 913.5,-89.5888 760.5,-89.5888"/>
<text text-anchor="middle" x="837" y="-96.5888" font-family="Helvetica,sans-Serif" font-size="10.00">MUTATOR_HOOKFUNCTION</text>
</a>
</g>
</g>
<!-- Node6&#45;&gt;Node7 -->
<g id="edge6" class="edge"><title>Node6&#45;&gt;Node7</title>
<path fill="none" stroke="midnightblue" d="M734.456,-99.0888C742.889,-99.0888 751.614,-99.0888 760.246,-99.0888"/>
<polygon fill="midnightblue" stroke="midnightblue" points="734.342,-95.5889 724.342,-99.0888 734.341,-102.589 734.342,-95.5889"/>
</g>
<!-- Node9 -->
<g id="node9" class="node"><title>Node9</title>
<g id="a_node9"><a xlink:href="../../df/dd7/server_2client_8qc.html#a0624045451f22564103dbb3878f77fd6" target="_top" xlink:title="ObserverThink">
<polygon fill="none" stroke="black" points="631,-51.5888 631,-70.5888 711,-70.5888 711,-51.5888 631,-51.5888"/>
<text text-anchor="middle" x="671" y="-58.5888" font-family="Helvetica,sans-Serif" font-size="10.00">ObserverThink</text>
</a>
</g>
</g>
<!-- Node8&#45;&gt;Node9 -->
<g id="edge8" class="edge"><title>Node8&#45;&gt;Node9</title>
<path fill="none" stroke="midnightblue" d="M591.902,-61.0888C604.788,-61.0888 618.569,-61.0888 630.912,-61.0888"/>
<polygon fill="midnightblue" stroke="midnightblue" points="591.804,-57.5889 581.804,-61.0888 591.804,-64.5889 591.804,-57.5889"/>
</g>
<!-- Node8&#45;&gt;Node10 -->
<g id="edge9" class="edge"><title>Node8&#45;&gt;Node10</title>
<path fill="none" stroke="midnightblue" d="M585.564,-48.5535C602.705,-43.3841 622.25,-37.4898 638.215,-32.6748"/>
<polygon fill="midnightblue" stroke="midnightblue" points="584.359,-45.2614 575.795,-51.4998 586.38,-51.9633 584.359,-45.2614"/>
</g>
<!-- Node11&#45;&gt;Node10 -->
<g id="edge11" class="edge"><title>Node11&#45;&gt;Node10</title>
<path fill="none" stroke="midnightblue" d="M591.329,-23.0888C603.78,-23.0888 617.102,-23.0888 629.178,-23.0888"/>
<polygon fill="midnightblue" stroke="midnightblue" points="591.123,-19.5889 581.123,-23.0888 591.123,-26.5889 591.123,-19.5889"/>
</g>
</g>
</svg>
        <g id="navigator" transform="translate(0 0)" fill="#404254">
                <rect fill="#f2f5e9" fill-opacity="0.5" stroke="#606060" stroke-width=".5" x="0" y="0" width="60" height="60"/>
                <use id="zoomplus" xlink:href="#zoomPlus" x="17" y="9" onmousedown="handleZoom(evt,'in')"/>
                <use id="zoomminus" xlink:href="#zoomMin" x="42" y="9" onmousedown="handleZoom(evt,'out')"/>
                <use id="reset" xlink:href="#resetDef" x="30" y="36" onmousedown="handleReset()"/>
                <g id="arrowUp" xlink:href="#dirArrow" transform="translate(30 24)" onmousedown="handlePan(0,-1)">
                  <use xlink:href="#rim" fill="#404040">
                        <set attributeName="fill" to="#808080" begin="arrowUp.mouseover" end="arrowUp.mouseout"/>
                  </use>
                  <path fill="none" stroke="white" stroke-width="1.5" d="M0,-3.0v7 M-2.5,-0.5L0,-3.0L2.5,-0.5"/>
                </g>
                <g id="arrowRight" xlink:href="#dirArrow" transform="rotate(90) translate(36 -43)" onmousedown="handlePan(1,0)">
                  <use xlink:href="#rim" fill="#404040">
                        <set attributeName="fill" to="#808080" begin="arrowRight.mouseover" end="arrowRight.mouseout"/>
                  </use>
                  <path fill="none" stroke="white" stroke-width="1.5" d="M0,-3.0v7 M-2.5,-0.5L0,-3.0L2.5,-0.5"/>
                </g>
                <g id="arrowDown" xlink:href="#dirArrow" transform="rotate(180) translate(-30 -48)" onmousedown="handlePan(0,1)">
                  <use xlink:href="#rim" fill="#404040">
                        <set attributeName="fill" to="#808080" begin="arrowDown.mouseover" end="arrowDown.mouseout"/>
                  </use>
                  <path fill="none" stroke="white" stroke-width="1.5" d="M0,-3.0v7 M-2.5,-0.5L0,-3.0L2.5,-0.5"/>
                </g>
                <g id="arrowLeft" xlink:href="#dirArrow" transform="rotate(270) translate(-36 17)" onmousedown="handlePan(-1,0)">
                  <use xlink:href="#rim" fill="#404040">
                        <set attributeName="fill" to="#808080" begin="arrowLeft.mouseover" end="arrowLeft.mouseout"/>
                  </use>
                  <path fill="none" stroke="white" stroke-width="1.5" d="M0,-3.0v7 M-2.5,-0.5L0,-3.0L2.5,-0.5"/>
                </g>
        </g>
        <svg viewBox="0 0 15 15" width="100%" height="30px" preserveAspectRatio="xMaxYMin meet">
         <g id="arrow_out" transform="scale(0.3 0.3)">
          <a xlink:href="anticheat_8qh_a8637d5f3a3ed106d36e9d7448931bd90_icgraph_org.svg" target="_base">
           <rect id="button" ry="5" rx="5" y="6" x="6" height="38" width="38"
                fill="#f2f5e9" fill-opacity="0.5" stroke="#606060" stroke-width="1.0"/>
           <path id="arrow"
             d="M 11.500037,31.436501 C 11.940474,20.09759 22.043105,11.32322 32.158766,21.979434 L 37.068811,17.246167 C 37.068811,17.246167 37.088388,32 37.088388,32 L 22.160133,31.978069 C 22.160133,31.978069 26.997745,27.140456 26.997745,27.140456 C 18.528582,18.264221 13.291696,25.230495 11.500037,31.436501 z"
             style="fill:#404040;"/>
          </a>
         </g>
        </svg>
</svg>
