<?xml version="1.0" encoding="UTF-8" standalone="no"?>
<!DOCTYPE svg PUBLIC "-//W3C//DTD SVG 1.1//EN"
 "http://www.w3.org/Graphics/SVG/1.1/DTD/svg11.dtd">
<!-- Generated by graphviz version 2.36.0 (20140111.2315)
 -->
<!-- Title: CheckBox Pages: 1 -->
<!--zoomable 568 -->
<svg id="main" version="1.1" xmlns="http://www.w3.org/2000/svg" xmlns:xlink="http://www.w3.org/1999/xlink" xml:space="preserve" onload="init(evt)">
<style type="text/css"><![CDATA[
.edge:hover path { stroke: red; }
.edge:hover polygon { stroke: red; fill: red; }
]]></style>
<script type="text/javascript"><![CDATA[
var edges = document.getElementsByTagName('g');
if (edges && edges.length) {
  for (var i=0;i<edges.length;i++) {
    if (edges[i].id.substr(0,4)=='edge') {
      edges[i].setAttribute('class','edge');
    }
  }
}
]]></script>
        <defs>
                <circle id="rim" cx="0" cy="0" r="7"/>
                <circle id="rim2" cx="0" cy="0" r="3.5"/>
                <g id="zoomPlus">
                        <use xlink:href="#rim" fill="#404040">
                                <set attributeName="fill" to="#808080" begin="zoomplus.mouseover" end="zoomplus.mouseout"/>
                        </use>
                        <path d="M-4,0h8M0,-4v8" fill="none" stroke="white" stroke-width="1.5" pointer-events="none"/>
                </g>
                <g id="zoomMin">
                        <use xlink:href="#rim" fill="#404040">
                                <set attributeName="fill" to="#808080" begin="zoomminus.mouseover" end="zoomminus.mouseout"/>
                        </use>
                        <path d="M-4,0h8" fill="none" stroke="white" stroke-width="1.5" pointer-events="none"/>
                </g>
                <g id="dirArrow">
                        <path fill="none" stroke="white" stroke-width="1.5" d="M0,-3.0v7 M-2.5,-0.5L0,-3.0L2.5,-0.5"/>
                </g>
               <g id="resetDef">
                       <use xlink:href="#rim2" fill="#404040">
                               <set attributeName="fill" to="#808080" begin="reset.mouseover" end="reset.mouseout"/>
                       </use>
               </g>
        </defs>

<script type="text/javascript">
var viewWidth = 558;
var viewHeight = 568;
var sectionId = 'dynsection-1';
</script>
<script xlink:href="../../svgpan.js"/>
<svg id="graph" class="graph">
<g id="viewport">
<title>CheckBox</title>
<!-- Node1 -->
<g id="node1" class="node"><title>Node1</title>
<polygon fill="#bfbfbf" stroke="black" points="387.275,-0.5 387.275,-19.5 449.275,-19.5 449.275,-0.5 387.275,-0.5"/>
<text text-anchor="middle" x="418.275" y="-7.5" font-family="Helvetica,sans-Serif" font-size="10.00">CheckBox</text>
</g>
<!-- Node2 -->
<g id="node2" class="node"><title>Node2</title>
<g id="a_node2"><a xlink:href="../../d1/d19/classButton.html" target="_top" xlink:title="Button">
<polygon fill="none" stroke="black" points="313.775,-58.5 313.775,-77.5 358.775,-77.5 358.775,-58.5 313.775,-58.5"/>
<text text-anchor="middle" x="336.275" y="-65.5" font-family="Helvetica,sans-Serif" font-size="10.00">Button</text>
</a>
</g>
</g>
<!-- Node2&#45;&gt;Node1 -->
<g id="edge1" class="edge"><title>Node2&#45;&gt;Node1</title>
<path fill="none" stroke="midnightblue" d="M357.084,-52.7894C372.418,-42.317 392.775,-28.4147 405.704,-19.5852"/>
<polygon fill="midnightblue" stroke="midnightblue" points="355.014,-49.9648 348.729,-58.4948 358.961,-55.7455 355.014,-49.9648"/>
</g>
<!-- Node3 -->
<g id="node3" class="node"><title>Node3</title>
<g id="a_node3"><a xlink:href="../../d3/d1b/classLabel.html" target="_top" xlink:title="Label">
<polygon fill="none" stroke="black" points="182.275,-138.5 182.275,-157.5 222.275,-157.5 222.275,-138.5 182.275,-138.5"/>
<text text-anchor="middle" x="202.275" y="-145.5" font-family="Helvetica,sans-Serif" font-size="10.00">Label</text>
</a>
</g>
</g>
<!-- Node3&#45;&gt;Node2 -->
<g id="edge2" class="edge"><title>Node3&#45;&gt;Node2</title>
<path fill="none" stroke="midnightblue" d="M226.112,-133.125C253.696,-117.069 298.274,-91.1201 321.356,-77.6841"/>
<polygon fill="midnightblue" stroke="midnightblue" points="224.009,-130.299 217.128,-138.355 227.531,-136.349 224.009,-130.299"/>
</g>
<!-- Node4 -->
<g id="node4" class="node"><title>Node4</title>
<g id="a_node4"><a xlink:href="../../d0/dae/classItem.html" target="_top" xlink:title="Item">
<polygon fill="none" stroke="black" points="157.275,-384.5 157.275,-403.5 193.275,-403.5 193.275,-384.5 157.275,-384.5"/>
<text text-anchor="middle" x="175.275" y="-391.5" font-family="Helvetica,sans-Serif" font-size="10.00">Item</text>
</a>
</g>
</g>
<!-- Node4&#45;&gt;Node3 -->
<g id="edge3" class="edge"><title>Node4&#45;&gt;Node3</title>
<path fill="none" stroke="midnightblue" d="M177.368,-374.09C182.847,-324.571 197.46,-192.519 201.326,-157.58"/>
<polygon fill="midnightblue" stroke="midnightblue" points="173.857,-373.992 176.236,-384.316 180.815,-374.762 173.857,-373.992"/>
</g>
<!-- Node5 -->
<g id="node5" class="node"><title>Node5</title>
<g id="a_node5"><a xlink:href="../../d8/d4b/classObject.html" target="_top" xlink:title="Object">
<polygon fill="none" stroke="black" points="116.775,-540.5 116.775,-559.5 161.775,-559.5 161.775,-540.5 116.775,-540.5"/>
<text text-anchor="middle" x="139.275" y="-547.5" font-family="Helvetica,sans-Serif" font-size="10.00">Object</text>
</a>
</g>
</g>
<!-- Node5&#45;&gt;Node4 -->
<g id="edge4" class="edge"><title>Node5&#45;&gt;Node4</title>
<path fill="none" stroke="midnightblue" d="M142.654,-530.127C145.306,-515.78 149.217,-495.58 153.275,-478 159.58,-450.693 168.489,-418.73 172.778,-403.677"/>
<polygon fill="midnightblue" stroke="midnightblue" points="139.165,-529.752 140.819,-540.217 146.052,-531.005 139.165,-529.752"/>
</g>
<!-- Node6 -->
<g id="node6" class="node"><title>Node6</title>
<polygon fill="none" stroke="#bfbfbf" points="36.2753,-540.5 36.2753,-559.5 80.2753,-559.5 80.2753,-540.5 36.2753,-540.5"/>
<text text-anchor="middle" x="58.2753" y="-547.5" font-family="Helvetica,sans-Serif" font-size="10.00">vector</text>
</g>
<!-- Node6&#45;&gt;Node2 -->
<g id="edge9" class="edge"><title>Node6&#45;&gt;Node2</title>
<path fill="none" stroke="#9a32cd" stroke-dasharray="5,2" d="M49.9055,-530.98C48.838,-528.034 47.9012,-524.972 47.2753,-522 16.6764,-376.719 -38.3225,-313.328 41.2753,-188 102.119,-92.2006 255.373,-73.5226 313.469,-69.8815"/>
<polygon fill="#9a32cd" stroke="#9a32cd" points="46.6948,-532.375 53.7768,-540.255 53.1547,-529.678 46.6948,-532.375"/>
<text text-anchor="middle" x="56.2753" y="-279.5" font-family="Helvetica,sans-Serif" font-size="10.00"> color2</text>
<text text-anchor="middle" x="56.2753" y="-268.5" font-family="Helvetica,sans-Serif" font-size="10.00">colorC</text>
<text text-anchor="middle" x="56.2753" y="-257.5" font-family="Helvetica,sans-Serif" font-size="10.00">size</text>
<text text-anchor="middle" x="56.2753" y="-246.5" font-family="Helvetica,sans-Serif" font-size="10.00">colorD</text>
<text text-anchor="middle" x="56.2753" y="-235.5" font-family="Helvetica,sans-Serif" font-size="10.00">colorF</text>
<text text-anchor="middle" x="56.2753" y="-224.5" font-family="Helvetica,sans-Serif" font-size="10.00">origin</text>
<text text-anchor="middle" x="56.2753" y="-213.5" font-family="Helvetica,sans-Serif" font-size="10.00">color</text>
</g>
<!-- Node6&#45;&gt;Node3 -->
<g id="edge7" class="edge"><title>Node6&#45;&gt;Node3</title>
<path fill="none" stroke="#9a32cd" stroke-dasharray="5,2" d="M55.3977,-530.304C50.1699,-491.323 41.8552,-399.083 67.2753,-328 94.4062,-252.133 165.928,-181.923 192.313,-157.825"/>
<polygon fill="#9a32cd" stroke="#9a32cd" points="51.9355,-530.818 56.8202,-540.22 58.8646,-529.824 51.9355,-530.818"/>
<text text-anchor="middle" x="107.775" y="-408" font-family="Helvetica,sans-Serif" font-size="10.00"> realFontSize</text>
<text text-anchor="middle" x="107.775" y="-397" font-family="Helvetica,sans-Serif" font-size="10.00">colorL</text>
<text text-anchor="middle" x="107.775" y="-386" font-family="Helvetica,sans-Serif" font-size="10.00">overrideRealOrigin</text>
<text text-anchor="middle" x="107.775" y="-375" font-family="Helvetica,sans-Serif" font-size="10.00">realOrigin</text>
</g>
<!-- Node6&#45;&gt;Node4 -->
<g id="edge5" class="edge"><title>Node6&#45;&gt;Node4</title>
<path fill="none" stroke="#9a32cd" stroke-dasharray="5,2" d="M69.9094,-532.022C80.8148,-516.828 98.1199,-494.475 116.275,-478 126.956,-468.308 133.764,-470.841 143.275,-460 158.372,-442.792 168.177,-417.198 172.584,-403.84"/>
<polygon fill="#9a32cd" stroke="#9a32cd" points="66.8801,-530.245 63.9959,-540.44 72.6081,-534.269 66.8801,-530.245"/>
<text text-anchor="middle" x="128.275" y="-503" font-family="Helvetica,sans-Serif" font-size="10.00"> size</text>
<text text-anchor="middle" x="128.275" y="-492" font-family="Helvetica,sans-Serif" font-size="10.00">origin</text>
</g>
<!-- Node7 -->
<g id="node7" class="node"><title>Node7</title>
<polygon fill="none" stroke="#bfbfbf" points="292.775,-540.5 292.775,-559.5 327.775,-559.5 327.775,-540.5 292.775,-540.5"/>
<text text-anchor="middle" x="310.275" y="-547.5" font-family="Helvetica,sans-Serif" font-size="10.00">float</text>
</g>
<!-- Node7&#45;&gt;Node1 -->
<g id="edge12" class="edge"><title>Node7&#45;&gt;Node1</title>
<path fill="none" stroke="#9a32cd" stroke-dasharray="5,2" d="M336.992,-535.86C378.629,-513.282 454.275,-462.917 454.275,-395 454.275,-395 454.275,-395 454.275,-67 454.275,-47.814 439.138,-29.9634 428.495,-19.7836"/>
<polygon fill="#9a32cd" stroke="#9a32cd" points="335.153,-532.873 327.933,-540.626 338.412,-539.068 335.153,-532.873"/>
<text text-anchor="middle" x="502.275" y="-162" font-family="Helvetica,sans-Serif" font-size="10.00"> useDownAsChecked</text>
<text text-anchor="middle" x="502.275" y="-151" font-family="Helvetica,sans-Serif" font-size="10.00">srcMulti</text>
<text text-anchor="middle" x="502.275" y="-140" font-family="Helvetica,sans-Serif" font-size="10.00">checked</text>
<text text-anchor="middle" x="502.275" y="-129" font-family="Helvetica,sans-Serif" font-size="10.00">disabled</text>
</g>
<!-- Node7&#45;&gt;Node2 -->
<g id="edge10" class="edge"><title>Node7&#45;&gt;Node2</title>
<path fill="none" stroke="#9a32cd" stroke-dasharray="5,2" d="M313.317,-530.453C316.134,-512.49 320.194,-484.456 322.275,-460 335.294,-307.042 336.238,-119.421 336.28,-77.5485"/>
<polygon fill="#9a32cd" stroke="#9a32cd" points="309.843,-530.011 311.715,-540.439 316.755,-531.12 309.843,-530.011"/>
<text text-anchor="middle" x="374.275" y="-301.5" font-family="Helvetica,sans-Serif" font-size="10.00"> src2scale</text>
<text text-anchor="middle" x="374.275" y="-290.5" font-family="Helvetica,sans-Serif" font-size="10.00">pressed</text>
<text text-anchor="middle" x="374.275" y="-279.5" font-family="Helvetica,sans-Serif" font-size="10.00">clickTime</text>
<text text-anchor="middle" x="374.275" y="-268.5" font-family="Helvetica,sans-Serif" font-size="10.00">buttonLeftOfText</text>
<text text-anchor="middle" x="374.275" y="-257.5" font-family="Helvetica,sans-Serif" font-size="10.00">srcMulti</text>
<text text-anchor="middle" x="374.275" y="-246.5" font-family="Helvetica,sans-Serif" font-size="10.00">allowFocusSound</text>
<text text-anchor="middle" x="374.275" y="-235.5" font-family="Helvetica,sans-Serif" font-size="10.00">alpha2</text>
<text text-anchor="middle" x="374.275" y="-224.5" font-family="Helvetica,sans-Serif" font-size="10.00">forcePressed</text>
<text text-anchor="middle" x="374.275" y="-213.5" font-family="Helvetica,sans-Serif" font-size="10.00">disabledAlpha</text>
<text text-anchor="middle" x="374.275" y="-202.5" font-family="Helvetica,sans-Serif" font-size="10.00">focusable</text>
<text text-anchor="middle" x="374.275" y="-191.5" font-family="Helvetica,sans-Serif" font-size="10.00">...</text>
</g>
<!-- Node7&#45;&gt;Node3 -->
<g id="edge8" class="edge"><title>Node7&#45;&gt;Node3</title>
<path fill="none" stroke="#9a32cd" stroke-dasharray="5,2" d="M302.958,-530.908C296.13,-515.586 284.817,-493.675 270.275,-478 260.466,-467.427 250.899,-472.243 243.275,-460 226.795,-433.533 206.991,-205.559 202.997,-157.765"/>
<polygon fill="#9a32cd" stroke="#9a32cd" points="299.819,-532.471 306.953,-540.305 306.261,-529.732 299.819,-532.471"/>
<text text-anchor="middle" x="282.775" y="-452" font-family="Helvetica,sans-Serif" font-size="10.00"> allowColors</text>
<text text-anchor="middle" x="282.775" y="-441" font-family="Helvetica,sans-Serif" font-size="10.00">condenseFactor</text>
<text text-anchor="middle" x="282.775" y="-430" font-family="Helvetica,sans-Serif" font-size="10.00">marginLeft</text>
<text text-anchor="middle" x="282.775" y="-419" font-family="Helvetica,sans-Serif" font-size="10.00">allowWrap</text>
<text text-anchor="middle" x="282.775" y="-408" font-family="Helvetica,sans-Serif" font-size="10.00">allowCut</text>
<text text-anchor="middle" x="282.775" y="-397" font-family="Helvetica,sans-Serif" font-size="10.00">marginRight</text>
<text text-anchor="middle" x="282.775" y="-386" font-family="Helvetica,sans-Serif" font-size="10.00">disabledAlpha</text>
<text text-anchor="middle" x="282.775" y="-375" font-family="Helvetica,sans-Serif" font-size="10.00">alpha</text>
<text text-anchor="middle" x="282.775" y="-364" font-family="Helvetica,sans-Serif" font-size="10.00">recalcPos</text>
<text text-anchor="start" x="243.275" y="-353" font-family="Helvetica,sans-Serif" font-size="10.00">overrideCondense</text>
<text text-anchor="middle" x="282.775" y="-342" font-family="Helvetica,sans-Serif" font-size="10.00">Factor</text>
<text text-anchor="middle" x="282.775" y="-331" font-family="Helvetica,sans-Serif" font-size="10.00">...</text>
</g>
<!-- Node7&#45;&gt;Node4 -->
<g id="edge6" class="edge"><title>Node7&#45;&gt;Node4</title>
<path fill="none" stroke="#9a32cd" stroke-dasharray="5,2" d="M282.355,-547.558C246.37,-545.047 186.809,-538.461 173.275,-522 144.427,-486.911 163.301,-426.058 171.775,-403.626"/>
<polygon fill="#9a32cd" stroke="#9a32cd" points="282.487,-551.073 292.688,-548.212 282.93,-544.087 282.487,-551.073"/>
<text text-anchor="middle" x="221.775" y="-514" font-family="Helvetica,sans-Serif" font-size="10.00"> allowFocusSound</text>
<text text-anchor="middle" x="221.775" y="-503" font-family="Helvetica,sans-Serif" font-size="10.00">focused</text>
<text text-anchor="middle" x="221.775" y="-492" font-family="Helvetica,sans-Serif" font-size="10.00">focusable</text>
<text text-anchor="middle" x="221.775" y="-481" font-family="Helvetica,sans-Serif" font-size="10.00">preferredFocusPriority</text>
</g>
<!-- Node8 -->
<g id="node8" class="node"><title>Node8</title>
<polygon fill="none" stroke="#bfbfbf" points="364.775,-138.5 364.775,-157.5 399.775,-157.5 399.775,-138.5 364.775,-138.5"/>
<text text-anchor="middle" x="382.275" y="-145.5" font-family="Helvetica,sans-Serif" font-size="10.00">bool</text>
</g>
<!-- Node8&#45;&gt;Node2 -->
<g id="edge11" class="edge"><title>Node8&#45;&gt;Node2</title>
<path fill="none" stroke="#9a32cd" stroke-dasharray="5,2" d="M371.924,-129.448C362.483,-113.439 348.915,-90.4321 341.538,-77.9238"/>
<polygon fill="#9a32cd" stroke="#9a32cd" points="369.082,-131.519 377.177,-138.355 375.112,-127.963 369.082,-131.519"/>
<text text-anchor="middle" x="394.275" y="-99.5" font-family="Helvetica,sans-Serif" font-size="10.00"> disableOnClick</text>
</g>
</g>
</svg>
        <g id="navigator" transform="translate(0 0)" fill="#404254">
                <rect fill="#f2f5e9" fill-opacity="0.5" stroke="#606060" stroke-width=".5" x="0" y="0" width="60" height="60"/>
                <use id="zoomplus" xlink:href="#zoomPlus" x="17" y="9" onmousedown="handleZoom(evt,'in')"/>
                <use id="zoomminus" xlink:href="#zoomMin" x="42" y="9" onmousedown="handleZoom(evt,'out')"/>
                <use id="reset" xlink:href="#resetDef" x="30" y="36" onmousedown="handleReset()"/>
                <g id="arrowUp" xlink:href="#dirArrow" transform="translate(30 24)" onmousedown="handlePan(0,-1)">
                  <use xlink:href="#rim" fill="#404040">
                        <set attributeName="fill" to="#808080" begin="arrowUp.mouseover" end="arrowUp.mouseout"/>
                  </use>
                  <path fill="none" stroke="white" stroke-width="1.5" d="M0,-3.0v7 M-2.5,-0.5L0,-3.0L2.5,-0.5"/>
                </g>
                <g id="arrowRight" xlink:href="#dirArrow" transform="rotate(90) translate(36 -43)" onmousedown="handlePan(1,0)">
                  <use xlink:href="#rim" fill="#404040">
                        <set attributeName="fill" to="#808080" begin="arrowRight.mouseover" end="arrowRight.mouseout"/>
                  </use>
                  <path fill="none" stroke="white" stroke-width="1.5" d="M0,-3.0v7 M-2.5,-0.5L0,-3.0L2.5,-0.5"/>
                </g>
                <g id="arrowDown" xlink:href="#dirArrow" transform="rotate(180) translate(-30 -48)" onmousedown="handlePan(0,1)">
                  <use xlink:href="#rim" fill="#404040">
                        <set attributeName="fill" to="#808080" begin="arrowDown.mouseover" end="arrowDown.mouseout"/>
                  </use>
                  <path fill="none" stroke="white" stroke-width="1.5" d="M0,-3.0v7 M-2.5,-0.5L0,-3.0L2.5,-0.5"/>
                </g>
                <g id="arrowLeft" xlink:href="#dirArrow" transform="rotate(270) translate(-36 17)" onmousedown="handlePan(-1,0)">
                  <use xlink:href="#rim" fill="#404040">
                        <set attributeName="fill" to="#808080" begin="arrowLeft.mouseover" end="arrowLeft.mouseout"/>
                  </use>
                  <path fill="none" stroke="white" stroke-width="1.5" d="M0,-3.0v7 M-2.5,-0.5L0,-3.0L2.5,-0.5"/>
                </g>
        </g>
        <svg viewBox="0 0 15 15" width="100%" height="30px" preserveAspectRatio="xMaxYMin meet">
         <g id="arrow_out" transform="scale(0.3 0.3)">
          <a xlink:href="classCheckBox__coll__graph_org.svg" target="_base">
           <rect id="button" ry="5" rx="5" y="6" x="6" height="38" width="38"
                fill="#f2f5e9" fill-opacity="0.5" stroke="#606060" stroke-width="1.0"/>
           <path id="arrow"
             d="M 11.500037,31.436501 C 11.940474,20.09759 22.043105,11.32322 32.158766,21.979434 L 37.068811,17.246167 C 37.068811,17.246167 37.088388,32 37.088388,32 L 22.160133,31.978069 C 22.160133,31.978069 26.997745,27.140456 26.997745,27.140456 C 18.528582,18.264221 13.291696,25.230495 11.500037,31.436501 z"
             style="fill:#404040;"/>
          </a>
         </g>
        </svg>
</svg>
