<?xml version="1.0" encoding="UTF-8" standalone="no"?>
<!DOCTYPE svg PUBLIC "-//W3C//DTD SVG 1.1//EN"
 "http://www.w3.org/Graphics/SVG/1.1/DTD/svg11.dtd">
<!-- Generated by graphviz version 2.36.0 (20140111.2315)
 -->
<!-- Title: InputBox_draw Pages: 1 -->
<!--zoomable 818 -->
<svg id="main" version="1.1" xmlns="http://www.w3.org/2000/svg" xmlns:xlink="http://www.w3.org/1999/xlink" xml:space="preserve" onload="init(evt)">
<style type="text/css"><![CDATA[
.edge:hover path { stroke: red; }
.edge:hover polygon { stroke: red; fill: red; }
]]></style>
<script type="text/javascript"><![CDATA[
var edges = document.getElementsByTagName('g');
if (edges && edges.length) {
  for (var i=0;i<edges.length;i++) {
    if (edges[i].id.substr(0,4)=='edge') {
      edges[i].setAttribute('class','edge');
    }
  }
}
]]></script>
        <defs>
                <circle id="rim" cx="0" cy="0" r="7"/>
                <circle id="rim2" cx="0" cy="0" r="3.5"/>
                <g id="zoomPlus">
                        <use xlink:href="#rim" fill="#404040">
                                <set attributeName="fill" to="#808080" begin="zoomplus.mouseover" end="zoomplus.mouseout"/>
                        </use>
                        <path d="M-4,0h8M0,-4v8" fill="none" stroke="white" stroke-width="1.5" pointer-events="none"/>
                </g>
                <g id="zoomMin">
                        <use xlink:href="#rim" fill="#404040">
                                <set attributeName="fill" to="#808080" begin="zoomminus.mouseover" end="zoomminus.mouseout"/>
                        </use>
                        <path d="M-4,0h8" fill="none" stroke="white" stroke-width="1.5" pointer-events="none"/>
                </g>
                <g id="dirArrow">
                        <path fill="none" stroke="white" stroke-width="1.5" d="M0,-3.0v7 M-2.5,-0.5L0,-3.0L2.5,-0.5"/>
                </g>
               <g id="resetDef">
                       <use xlink:href="#rim2" fill="#404040">
                               <set attributeName="fill" to="#808080" begin="reset.mouseover" end="reset.mouseout"/>
                       </use>
               </g>
        </defs>

<script type="text/javascript">
var viewWidth = 506;
var viewHeight = 818;
var sectionId = 'dynsection-2';
</script>
<script xlink:href="../../svgpan.js"/>
<svg id="graph" class="graph">
<g id="viewport">
<title>InputBox_draw</title>
<!-- Node1 -->
<g id="node1" class="node"><title>Node1</title>
<polygon fill="#bfbfbf" stroke="black" points="0,-324.937 0,-343.937 82,-343.937 82,-324.937 0,-324.937"/>
<text text-anchor="middle" x="41" y="-331.937" font-family="Helvetica,sans-Serif" font-size="10.00">InputBox_draw</text>
</g>
<!-- Node2 -->
<g id="node2" class="node"><title>Node2</title>
<g id="a_node2"><a xlink:href="../../d8/de2/menudefs_8qc.html#a3846d117b360dccec575f96988cf3bb7" target="_top" xlink:title="bound">
<polygon fill="none" stroke="black" points="147.5,-790.937 147.5,-809.937 190.5,-809.937 190.5,-790.937 147.5,-790.937"/>
<text text-anchor="middle" x="169" y="-797.937" font-family="Helvetica,sans-Serif" font-size="10.00">bound</text>
</a>
</g>
</g>
<!-- Node1&#45;&gt;Node2 -->
<g id="edge1" class="edge"><title>Node1&#45;&gt;Node2</title>
<path fill="none" stroke="midnightblue" d="M42.4823,-344.206C45.5342,-402.533 63.806,-704.67 118,-776.437 123.018,-783.083 130.352,-787.977 137.865,-791.545"/>
<polygon fill="midnightblue" stroke="midnightblue" points="136.733,-794.863 147.315,-795.388 139.37,-788.379 136.733,-794.863"/>
</g>
<!-- Node3 -->
<g id="node3" class="node"><title>Node3</title>
<g id="a_node3"><a xlink:href="../../d6/db1/draw_8qc.html#aab8b9ebf8f70fb2aba148b1d1167350a" target="_top" xlink:title="draw_ButtonPicture">
<polygon fill="none" stroke="black" points="118,-448.937 118,-467.937 220,-467.937 220,-448.937 118,-448.937"/>
<text text-anchor="middle" x="169" y="-455.937" font-family="Helvetica,sans-Serif" font-size="10.00">draw_ButtonPicture</text>
</a>
</g>
</g>
<!-- Node1&#45;&gt;Node3 -->
<g id="edge2" class="edge"><title>Node1&#45;&gt;Node3</title>
<path fill="none" stroke="midnightblue" d="M46.4889,-343.992C56.5092,-364.348 82.6296,-412.341 118,-439.437 120.315,-441.211 122.815,-442.835 125.419,-444.32"/>
<polygon fill="midnightblue" stroke="midnightblue" points="124.044,-447.545 134.558,-448.847 127.151,-441.272 124.044,-447.545"/>
</g>
<!-- Node7 -->
<g id="node7" class="node"><title>Node7</title>
<g id="a_node7"><a xlink:href="../../d8/de2/menudefs_8qc.html#ad76dc2b2895cd23f21e008f12a686158" target="_top" xlink:title="strcat">
<polygon fill="none" stroke="black" points="429.5,-742.937 429.5,-761.937 470.5,-761.937 470.5,-742.937 429.5,-742.937"/>
<text text-anchor="middle" x="450" y="-749.937" font-family="Helvetica,sans-Serif" font-size="10.00">strcat</text>
</a>
</g>
</g>
<!-- Node1&#45;&gt;Node7 -->
<g id="edge47" class="edge"><title>Node1&#45;&gt;Node7</title>
<path fill="none" stroke="midnightblue" d="M43.1198,-344.195C48.8148,-392.298 75.9481,-603.815 118,-652.437 196.303,-742.974 353.44,-753.141 419.097,-753.211"/>
<polygon fill="midnightblue" stroke="midnightblue" points="419.207,-756.71 429.182,-753.141 419.158,-749.711 419.207,-756.71"/>
</g>
<!-- Node8 -->
<g id="node8" class="node"><title>Node8</title>
<g id="a_node8"><a xlink:href="../../d8/de2/menudefs_8qc.html#a274680f571a231ddf29421b93d434bfa" target="_top" xlink:title="strlen">
<polygon fill="none" stroke="black" points="429.5,-685.937 429.5,-704.937 470.5,-704.937 470.5,-685.937 429.5,-685.937"/>
<text text-anchor="middle" x="450" y="-692.937" font-family="Helvetica,sans-Serif" font-size="10.00">strlen</text>
</a>
</g>
</g>
<!-- Node1&#45;&gt;Node8 -->
<g id="edge48" class="edge"><title>Node1&#45;&gt;Node8</title>
<path fill="none" stroke="midnightblue" d="M42.2891,-344.064C43.8669,-381.268 53.9648,-517.77 118,-602.437 161.453,-659.89 187.114,-666.374 256,-687.437 311.697,-704.468 380.649,-702.073 419.237,-698.771"/>
<polygon fill="midnightblue" stroke="midnightblue" points="419.65,-702.248 429.28,-697.831 418.997,-695.278 419.65,-702.248"/>
</g>
<!-- Node9 -->
<g id="node9" class="node"><title>Node9</title>
<g id="a_node9"><a xlink:href="../../d8/de2/menudefs_8qc.html#a40f6c65c8bbcfa51df783f2809a2502b" target="_top" xlink:title="substring">
<polygon fill="none" stroke="black" points="422,-609.937 422,-628.937 478,-628.937 478,-609.937 422,-609.937"/>
<text text-anchor="middle" x="450" y="-616.937" font-family="Helvetica,sans-Serif" font-size="10.00">substring</text>
</a>
</g>
</g>
<!-- Node1&#45;&gt;Node9 -->
<g id="edge49" class="edge"><title>Node1&#45;&gt;Node9</title>
<path fill="none" stroke="midnightblue" d="M44.2003,-344.173C55.6767,-392.238 113.673,-604.42 256,-667.437 300.703,-687.23 318.782,-680.108 366,-667.437 389.468,-661.14 413.158,-646.418 429.187,-634.927"/>
<polygon fill="midnightblue" stroke="midnightblue" points="431.304,-637.715 437.254,-628.949 427.136,-632.091 431.304,-637.715"/>
</g>
<!-- Node11 -->
<g id="node11" class="node"><title>Node11</title>
<g id="a_node11"><a xlink:href="../../d4/d0c/csprogsdefs_8qc.html#a4f0b78b1785821ba47129edb68e70f9e" target="_top" xlink:title="vector">
<polygon fill="none" stroke="black" points="428,-106.937 428,-125.937 472,-125.937 472,-106.937 428,-106.937"/>
<text text-anchor="middle" x="450" y="-113.937" font-family="Helvetica,sans-Serif" font-size="10.00">vector</text>
</a>
</g>
</g>
<!-- Node1&#45;&gt;Node11 -->
<g id="edge50" class="edge"><title>Node1&#45;&gt;Node11</title>
<path fill="none" stroke="midnightblue" d="M45.4851,-324.62C54.1418,-301.586 78.7962,-243.595 118,-211.437 155.404,-180.756 187.979,-209.7 220,-173.437 265.953,-121.398 201.546,-64.5009 256,-21.4372 294.347,8.88835 324.688,4.70608 366,-21.4372 397.583,-41.4238 374.814,-71.7889 402,-97.4372 406.705,-101.876 412.583,-105.333 418.572,-108.005"/>
<polygon fill="midnightblue" stroke="midnightblue" points="417.332,-111.278 427.923,-111.586 419.836,-104.741 417.332,-111.278"/>
</g>
<!-- Node12 -->
<g id="node12" class="node"><title>Node12</title>
<g id="a_node12"><a xlink:href="../../d6/db1/draw_8qc.html#ae8b20802138b0f068ab87b7e39396805" target="_top" xlink:title="draw_ClearClip">
<polygon fill="none" stroke="black" points="127.5,-220.937 127.5,-239.937 210.5,-239.937 210.5,-220.937 127.5,-220.937"/>
<text text-anchor="middle" x="169" y="-227.937" font-family="Helvetica,sans-Serif" font-size="10.00">draw_ClearClip</text>
</a>
</g>
</g>
<!-- Node1&#45;&gt;Node12 -->
<g id="edge11" class="edge"><title>Node1&#45;&gt;Node12</title>
<path fill="none" stroke="midnightblue" d="M48.1845,-324.923C59.8715,-307.629 86.8415,-270.854 118,-249.437 120.717,-247.57 123.641,-245.855 126.664,-244.286"/>
<polygon fill="midnightblue" stroke="midnightblue" points="128.307,-247.383 135.917,-240.012 125.371,-241.028 128.307,-247.383"/>
</g>
<!-- Node15 -->
<g id="node15" class="node"><title>Node15</title>
<g id="a_node15"><a xlink:href="../../d6/db1/draw_8qc.html#ae1fc75c93136d527f4c296ce527311da" target="_top" xlink:title="draw_Fill">
<polygon fill="none" stroke="black" points="141,-410.937 141,-429.937 197,-429.937 197,-410.937 141,-410.937"/>
<text text-anchor="middle" x="169" y="-417.937" font-family="Helvetica,sans-Serif" font-size="10.00">draw_Fill</text>
</a>
</g>
</g>
<!-- Node1&#45;&gt;Node15 -->
<g id="edge14" class="edge"><title>Node1&#45;&gt;Node15</title>
<path fill="none" stroke="midnightblue" d="M55.9656,-343.969C77.631,-358.757 119.544,-387.364 145.511,-405.088"/>
<polygon fill="midnightblue" stroke="midnightblue" points="143.739,-408.116 153.972,-410.862 147.685,-402.334 143.739,-408.116"/>
</g>
<!-- Node17 -->
<g id="node17" class="node"><title>Node17</title>
<g id="a_node17"><a xlink:href="../../d6/db1/draw_8qc.html#a5fbe1f25dc4a998ac4e41ba6802253f3" target="_top" xlink:title="draw_Picture">
<polygon fill="none" stroke="black" points="132,-486.937 132,-505.937 206,-505.937 206,-486.937 132,-486.937"/>
<text text-anchor="middle" x="169" y="-493.937" font-family="Helvetica,sans-Serif" font-size="10.00">draw_Picture</text>
</a>
</g>
</g>
<!-- Node1&#45;&gt;Node17 -->
<g id="edge18" class="edge"><title>Node1&#45;&gt;Node17</title>
<path fill="none" stroke="midnightblue" d="M44.5939,-344.287C51.8204,-369.878 74.562,-439.13 118,-477.437 119.92,-479.13 122.006,-480.679 124.2,-482.095"/>
<polygon fill="midnightblue" stroke="midnightblue" points="122.618,-485.219 133.076,-486.921 125.962,-479.069 122.618,-485.219"/>
</g>
<!-- Node19 -->
<g id="node19" class="node"><title>Node19</title>
<g id="a_node19"><a xlink:href="../../d6/db1/draw_8qc.html#afe94047bbecfa66eb72ad97ed820c857" target="_top" xlink:title="draw_SetClipRect">
<polygon fill="none" stroke="black" points="121,-353.937 121,-372.937 217,-372.937 217,-353.937 121,-353.937"/>
<text text-anchor="middle" x="169" y="-360.937" font-family="Helvetica,sans-Serif" font-size="10.00">draw_SetClipRect</text>
</a>
</g>
</g>
<!-- Node1&#45;&gt;Node19 -->
<g id="edge23" class="edge"><title>Node1&#45;&gt;Node19</title>
<path fill="none" stroke="midnightblue" d="M82.2136,-343.693C93.1316,-346.206 105.105,-348.961 116.551,-351.596"/>
<polygon fill="midnightblue" stroke="midnightblue" points="115.904,-355.038 126.435,-353.871 117.474,-348.217 115.904,-355.038"/>
</g>
<!-- Node21 -->
<g id="node21" class="node"><title>Node21</title>
<g id="a_node21"><a xlink:href="../../d6/db1/draw_8qc.html#a9317e58388dd0f4801ecd46178a0f334" target="_top" xlink:title="draw_Text">
<polygon fill="none" stroke="black" points="138,-296.937 138,-315.937 200,-315.937 200,-296.937 138,-296.937"/>
<text text-anchor="middle" x="169" y="-303.937" font-family="Helvetica,sans-Serif" font-size="10.00">draw_Text</text>
</a>
</g>
</g>
<!-- Node1&#45;&gt;Node21 -->
<g id="edge29" class="edge"><title>Node1&#45;&gt;Node21</title>
<path fill="none" stroke="midnightblue" d="M82.2136,-325.501C96.8429,-322.25 113.367,-318.578 127.979,-315.331"/>
<polygon fill="midnightblue" stroke="midnightblue" points="128.741,-318.747 137.743,-313.161 127.222,-311.914 128.741,-318.747"/>
</g>
<!-- Node26 -->
<g id="node26" class="node"><title>Node26</title>
<g id="a_node26"><a xlink:href="../../d6/db1/draw_8qc.html#aa29fccebf6a85e8456bb1b2f86f9edb7" target="_top" xlink:title="draw_TextWidth">
<polygon fill="none" stroke="black" points="125,-258.937 125,-277.937 213,-277.937 213,-258.937 125,-258.937"/>
<text text-anchor="middle" x="169" y="-265.937" font-family="Helvetica,sans-Serif" font-size="10.00">draw_TextWidth</text>
</a>
</g>
</g>
<!-- Node1&#45;&gt;Node26 -->
<g id="edge36" class="edge"><title>Node1&#45;&gt;Node26</title>
<path fill="none" stroke="midnightblue" d="M55.8248,-324.767C70.7136,-314.623 95.3244,-298.629 118,-287.437 122.044,-285.441 126.353,-283.519 130.681,-281.714"/>
<polygon fill="midnightblue" stroke="midnightblue" points="132.094,-284.918 140.09,-277.967 129.504,-278.415 132.094,-284.918"/>
</g>
<!-- Node29 -->
<g id="node29" class="node"><title>Node29</title>
<g id="a_node29"><a xlink:href="../../d8/de2/menudefs_8qc.html#ad5a3e16aa960bd72d3ca37a618eea802" target="_top" xlink:title="floor">
<polygon fill="none" stroke="black" points="151.5,-144.937 151.5,-163.937 186.5,-163.937 186.5,-144.937 151.5,-144.937"/>
<text text-anchor="middle" x="169" y="-151.937" font-family="Helvetica,sans-Serif" font-size="10.00">floor</text>
</a>
</g>
</g>
<!-- Node1&#45;&gt;Node29 -->
<g id="edge43" class="edge"><title>Node1&#45;&gt;Node29</title>
<path fill="none" stroke="midnightblue" d="M44.3268,-324.7C51.1638,-297.989 73.5619,-222.617 118,-178.437 124.675,-171.801 133.542,-166.734 141.954,-163.005"/>
<polygon fill="midnightblue" stroke="midnightblue" points="143.461,-166.172 151.462,-159.228 140.876,-159.667 143.461,-166.172"/>
</g>
<!-- Node30 -->
<g id="node30" class="node"><title>Node30</title>
<g id="a_node30"><a xlink:href="../../d8/de2/menudefs_8qc.html#aebeeec7a2529f36483e14f76b1871271" target="_top" xlink:title="max">
<polygon fill="none" stroke="black" points="151.5,-106.937 151.5,-125.937 186.5,-125.937 186.5,-106.937 151.5,-106.937"/>
<text text-anchor="middle" x="169" y="-113.937" font-family="Helvetica,sans-Serif" font-size="10.00">max</text>
</a>
</g>
</g>
<!-- Node1&#45;&gt;Node30 -->
<g id="edge44" class="edge"><title>Node1&#45;&gt;Node30</title>
<path fill="none" stroke="midnightblue" d="M42.9431,-324.641C46.514,-292.844 61.9912,-191.353 118,-135.437 124.354,-129.094 133.041,-124.832 141.392,-121.984"/>
<polygon fill="midnightblue" stroke="midnightblue" points="142.582,-125.284 151.232,-119.166 140.655,-118.554 142.582,-125.284"/>
</g>
<!-- Node31 -->
<g id="node31" class="node"><title>Node31</title>
<g id="a_node31"><a xlink:href="../../d8/de2/menudefs_8qc.html#ab2ad6bdb33b4334fec83db0418cf72df" target="_top" xlink:title="min">
<polygon fill="none" stroke="black" points="153,-68.9372 153,-87.9372 185,-87.9372 185,-68.9372 153,-68.9372"/>
<text text-anchor="middle" x="169" y="-75.9372" font-family="Helvetica,sans-Serif" font-size="10.00">min</text>
</a>
</g>
</g>
<!-- Node1&#45;&gt;Node31 -->
<g id="edge45" class="edge"><title>Node1&#45;&gt;Node31</title>
<path fill="none" stroke="midnightblue" d="M42.2416,-324.839C43.6431,-289.589 53.1752,-165.781 118,-97.4372 124.686,-90.3882 134.259,-85.9273 143.241,-83.1166"/>
<polygon fill="midnightblue" stroke="midnightblue" points="144.149,-86.497 152.947,-80.5942 142.388,-79.722 144.149,-86.497"/>
</g>
<!-- Node32 -->
<g id="node32" class="node"><title>Node32</title>
<g id="a_node32"><a xlink:href="../../d8/de2/menudefs_8qc.html#a2f6d3020689c0e872cfb455d0b2cbd4a" target="_top" xlink:title="stof">
<polygon fill="none" stroke="black" points="152.5,-30.9372 152.5,-49.9372 185.5,-49.9372 185.5,-30.9372 152.5,-30.9372"/>
<text text-anchor="middle" x="169" y="-37.9372" font-family="Helvetica,sans-Serif" font-size="10.00">stof</text>
</a>
</g>
</g>
<!-- Node1&#45;&gt;Node32 -->
<g id="edge46" class="edge"><title>Node1&#45;&gt;Node32</title>
<path fill="none" stroke="midnightblue" d="M41.7368,-324.698C41.2219,-285.853 44.4641,-140.193 118,-59.4372 124.381,-52.4296 133.622,-47.9896 142.427,-45.1837"/>
<polygon fill="midnightblue" stroke="midnightblue" points="143.578,-48.5006 152.367,-42.5846 141.807,-41.7283 143.578,-48.5006"/>
</g>
<!-- Node4 -->
<g id="node4" class="node"><title>Node4</title>
<g id="a_node4"><a xlink:href="../../d6/db1/draw_8qc.html#ad9ed2a82efe01e29eb48ff32dace86db" target="_top" xlink:title="boxToGlobal">
<polygon fill="none" stroke="black" points="275.5,-448.937 275.5,-467.937 346.5,-467.937 346.5,-448.937 275.5,-448.937"/>
<text text-anchor="middle" x="311" y="-455.937" font-family="Helvetica,sans-Serif" font-size="10.00">boxToGlobal</text>
</a>
</g>
</g>
<!-- Node3&#45;&gt;Node4 -->
<g id="edge3" class="edge"><title>Node3&#45;&gt;Node4</title>
<path fill="none" stroke="midnightblue" d="M220.148,-458.437C234.795,-458.437 250.707,-458.437 265.014,-458.437"/>
<polygon fill="midnightblue" stroke="midnightblue" points="265.106,-461.937 275.106,-458.437 265.106,-454.937 265.106,-461.937"/>
</g>
<!-- Node5 -->
<g id="node5" class="node"><title>Node5</title>
<g id="a_node5"><a xlink:href="../../d6/db1/draw_8qc.html#ab8f2b0e7558bdad2ae9d4eadbb278257" target="_top" xlink:title="boxToGlobalSize">
<polygon fill="none" stroke="black" points="265.5,-410.937 265.5,-429.937 356.5,-429.937 356.5,-410.937 265.5,-410.937"/>
<text text-anchor="middle" x="311" y="-417.937" font-family="Helvetica,sans-Serif" font-size="10.00">boxToGlobalSize</text>
</a>
</g>
</g>
<!-- Node3&#45;&gt;Node5 -->
<g id="edge4" class="edge"><title>Node3&#45;&gt;Node5</title>
<path fill="none" stroke="midnightblue" d="M205.328,-448.848C223.401,-443.943 245.598,-437.918 264.895,-432.68"/>
<polygon fill="midnightblue" stroke="midnightblue" points="265.949,-436.021 274.683,-430.023 264.116,-429.265 265.949,-436.021"/>
</g>
<!-- Node6 -->
<g id="node6" class="node"><title>Node6</title>
<g id="a_node6"><a xlink:href="../../da/d44/common_2util_8qc.html#a6ae03133beaeec492cebebfa5a815214" target="_top" xlink:title="draw_UseSkinFor">
<polygon fill="none" stroke="black" points="263.5,-600.937 263.5,-619.937 358.5,-619.937 358.5,-600.937 263.5,-600.937"/>
<text text-anchor="middle" x="311" y="-607.937" font-family="Helvetica,sans-Serif" font-size="10.00">draw_UseSkinFor</text>
</a>
</g>
</g>
<!-- Node3&#45;&gt;Node6 -->
<g id="edge5" class="edge"><title>Node3&#45;&gt;Node6</title>
<path fill="none" stroke="midnightblue" d="M207.08,-468.054C211.871,-470.512 216.366,-473.589 220,-477.437 256.48,-516.068 219.044,-553.262 256,-591.437 257.4,-592.883 258.916,-594.219 260.521,-595.454"/>
<polygon fill="midnightblue" stroke="midnightblue" points="258.824,-598.52 269.167,-600.819 262.516,-592.572 258.824,-598.52"/>
</g>
<!-- Node10 -->
<g id="node10" class="node"><title>Node10</title>
<g id="a_node10"><a xlink:href="../../d4/d0c/csprogsdefs_8qc.html#a07c016e00e6f80d5012980202d770138" target="_top" xlink:title="drawsubpic">
<polygon fill="none" stroke="black" points="278,-562.937 278,-581.937 344,-581.937 344,-562.937 278,-562.937"/>
<text text-anchor="middle" x="311" y="-569.937" font-family="Helvetica,sans-Serif" font-size="10.00">drawsubpic</text>
</a>
</g>
</g>
<!-- Node3&#45;&gt;Node10 -->
<g id="edge9" class="edge"><title>Node3&#45;&gt;Node10</title>
<path fill="none" stroke="midnightblue" d="M205.246,-468.002C210.578,-470.488 215.719,-473.588 220,-477.437 246.309,-501.093 230.352,-524.066 256,-548.437 260.044,-552.28 264.806,-555.573 269.799,-558.376"/>
<polygon fill="midnightblue" stroke="midnightblue" points="268.417,-561.598 278.93,-562.907 271.528,-555.327 268.417,-561.598"/>
</g>
<!-- Node3&#45;&gt;Node11 -->
<g id="edge10" class="edge"><title>Node3&#45;&gt;Node11</title>
<path fill="none" stroke="midnightblue" d="M201.736,-468.028C208.047,-470.605 214.436,-473.73 220,-477.437 239.36,-490.338 234.629,-506.245 256,-515.437 300.911,-534.755 328.073,-546.286 366,-515.437 426.047,-466.596 444.082,-209.788 448.055,-136.175"/>
<polygon fill="midnightblue" stroke="midnightblue" points="451.56,-136.16 448.576,-125.994 444.57,-135.802 451.56,-136.16"/>
</g>
<!-- Node6&#45;&gt;Node7 -->
<g id="edge6" class="edge"><title>Node6&#45;&gt;Node7</title>
<path fill="none" stroke="midnightblue" d="M351.677,-619.999C356.904,-622.465 361.872,-625.558 366,-629.437 395.899,-657.53 377.31,-681.672 402,-714.437 408.374,-722.896 417.028,-730.592 425.174,-736.812"/>
<polygon fill="midnightblue" stroke="midnightblue" points="423.206,-739.708 433.361,-742.729 427.307,-734.035 423.206,-739.708"/>
</g>
<!-- Node6&#45;&gt;Node8 -->
<g id="edge7" class="edge"><title>Node6&#45;&gt;Node8</title>
<path fill="none" stroke="midnightblue" d="M344.744,-619.987C351.945,-622.623 359.39,-625.783 366,-629.437 390.696,-643.091 415.574,-664.056 431.563,-678.682"/>
<polygon fill="midnightblue" stroke="midnightblue" points="429.366,-681.418 439.066,-685.68 434.14,-676.299 429.366,-681.418"/>
</g>
<!-- Node6&#45;&gt;Node9 -->
<g id="edge8" class="edge"><title>Node6&#45;&gt;Node9</title>
<path fill="none" stroke="midnightblue" d="M358.764,-613.509C375.933,-614.637 395.134,-615.899 411.395,-616.967"/>
<polygon fill="midnightblue" stroke="midnightblue" points="411.399,-620.475 421.607,-617.638 411.858,-613.49 411.399,-620.475"/>
</g>
<!-- Node13 -->
<g id="node13" class="node"><title>Node13</title>
<g id="a_node13"><a xlink:href="../../d8/de2/menudefs_8qc.html#a36ec35c2aa4302297ef03b9928c473bf" target="_top" xlink:title="drawresetcliparea">
<polygon fill="none" stroke="black" points="264.5,-30.9372 264.5,-49.9372 357.5,-49.9372 357.5,-30.9372 264.5,-30.9372"/>
<text text-anchor="middle" x="311" y="-37.9372" font-family="Helvetica,sans-Serif" font-size="10.00">drawresetcliparea</text>
</a>
</g>
</g>
<!-- Node12&#45;&gt;Node13 -->
<g id="edge12" class="edge"><title>Node12&#45;&gt;Node13</title>
<path fill="none" stroke="midnightblue" d="M200.741,-220.872C207.938,-217.347 214.964,-212.643 220,-206.437 262.385,-154.208 210.828,-109.276 256,-59.4372 257.216,-58.0956 258.532,-56.8488 259.929,-55.6899"/>
<polygon fill="midnightblue" stroke="midnightblue" points="262.213,-58.3778 268.658,-49.969 258.376,-52.5231 262.213,-58.3778"/>
</g>
<!-- Node14 -->
<g id="node14" class="node"><title>Node14</title>
<g id="a_node14"><a xlink:href="../../d8/de2/menudefs_8qc.html#a56b53595c8aa15ca107c03896db91fd2" target="_top" xlink:title="error">
<polygon fill="none" stroke="black" points="293,-296.937 293,-315.937 329,-315.937 329,-296.937 293,-296.937"/>
<text text-anchor="middle" x="311" y="-303.937" font-family="Helvetica,sans-Serif" font-size="10.00">error</text>
</a>
</g>
</g>
<!-- Node12&#45;&gt;Node14 -->
<g id="edge13" class="edge"><title>Node12&#45;&gt;Node14</title>
<path fill="none" stroke="midnightblue" d="M201.736,-240.028C208.047,-242.605 214.436,-245.73 220,-249.437 239.36,-262.338 236.481,-274.778 256,-287.437 264.118,-292.702 273.872,-296.711 282.843,-299.657"/>
<polygon fill="midnightblue" stroke="midnightblue" points="281.926,-303.036 292.51,-302.542 283.928,-296.328 281.926,-303.036"/>
</g>
<!-- Node15&#45;&gt;Node4 -->
<g id="edge15" class="edge"><title>Node15&#45;&gt;Node4</title>
<path fill="none" stroke="midnightblue" d="M197.326,-427.854C216.648,-433.099 242.984,-440.247 265.336,-446.314"/>
<polygon fill="midnightblue" stroke="midnightblue" points="264.719,-449.773 275.286,-449.015 266.553,-443.018 264.719,-449.773"/>
</g>
<!-- Node15&#45;&gt;Node5 -->
<g id="edge16" class="edge"><title>Node15&#45;&gt;Node5</title>
<path fill="none" stroke="midnightblue" d="M197.326,-420.437C213.792,-420.437 235.353,-420.437 255.201,-420.437"/>
<polygon fill="midnightblue" stroke="midnightblue" points="255.388,-423.937 265.388,-420.437 255.388,-416.937 255.388,-423.937"/>
</g>
<!-- Node16 -->
<g id="node16" class="node"><title>Node16</title>
<g id="a_node16"><a xlink:href="../../d8/de2/menudefs_8qc.html#a189158f8c2db3797e9bb00cc53e80988" target="_top" xlink:title="drawfill">
<polygon fill="none" stroke="black" points="287.5,-486.937 287.5,-505.937 334.5,-505.937 334.5,-486.937 287.5,-486.937"/>
<text text-anchor="middle" x="311" y="-493.937" font-family="Helvetica,sans-Serif" font-size="10.00">drawfill</text>
</a>
</g>
</g>
<!-- Node15&#45;&gt;Node16 -->
<g id="edge17" class="edge"><title>Node15&#45;&gt;Node16</title>
<path fill="none" stroke="midnightblue" d="M197.033,-428.198C204.801,-431.079 213.045,-434.803 220,-439.437 239.36,-452.338 236.481,-464.778 256,-477.437 262.609,-481.724 270.303,-485.177 277.775,-487.903"/>
<polygon fill="midnightblue" stroke="midnightblue" points="276.769,-491.256 287.362,-491.075 278.968,-484.611 276.769,-491.256"/>
</g>
<!-- Node17&#45;&gt;Node4 -->
<g id="edge19" class="edge"><title>Node17&#45;&gt;Node4</title>
<path fill="none" stroke="midnightblue" d="M205.328,-486.848C223.539,-481.905 245.938,-475.826 265.336,-470.56"/>
<polygon fill="midnightblue" stroke="midnightblue" points="266.434,-473.889 275.168,-467.892 264.601,-467.133 266.434,-473.889"/>
</g>
<!-- Node17&#45;&gt;Node5 -->
<g id="edge20" class="edge"><title>Node17&#45;&gt;Node5</title>
<path fill="none" stroke="midnightblue" d="M201.736,-486.847C208.047,-484.27 214.436,-481.145 220,-477.437 239.36,-464.537 236.481,-452.096 256,-439.437 259.101,-437.426 262.44,-435.598 265.883,-433.943"/>
<polygon fill="midnightblue" stroke="midnightblue" points="267.345,-437.124 275.148,-429.957 264.579,-430.694 267.345,-437.124"/>
</g>
<!-- Node17&#45;&gt;Node6 -->
<g id="edge21" class="edge"><title>Node17&#45;&gt;Node6</title>
<path fill="none" stroke="midnightblue" d="M176.168,-505.957C188.884,-524.871 219.873,-567.42 256,-591.437 258.945,-593.395 262.114,-595.175 265.388,-596.79"/>
<polygon fill="midnightblue" stroke="midnightblue" points="264.231,-600.104 274.796,-600.911 267.04,-593.693 264.231,-600.104"/>
</g>
<!-- Node18 -->
<g id="node18" class="node"><title>Node18</title>
<g id="a_node18"><a xlink:href="../../d8/de2/menudefs_8qc.html#aa466300ee80f2134cac8e75a7364ca31" target="_top" xlink:title="drawpic">
<polygon fill="none" stroke="black" points="286,-638.937 286,-657.937 336,-657.937 336,-638.937 286,-638.937"/>
<text text-anchor="middle" x="311" y="-645.937" font-family="Helvetica,sans-Serif" font-size="10.00">drawpic</text>
</a>
</g>
</g>
<!-- Node17&#45;&gt;Node18 -->
<g id="edge22" class="edge"><title>Node17&#45;&gt;Node18</title>
<path fill="none" stroke="midnightblue" d="M173.609,-506.015C183.214,-530.247 211.732,-594.541 256,-629.437 261.956,-634.132 269.16,-637.717 276.338,-640.435"/>
<polygon fill="midnightblue" stroke="midnightblue" points="275.398,-643.811 285.991,-643.629 277.596,-637.165 275.398,-643.811"/>
</g>
<!-- Node19&#45;&gt;Node4 -->
<g id="edge24" class="edge"><title>Node19&#45;&gt;Node4</title>
<path fill="none" stroke="midnightblue" d="M184.058,-373.182C194.351,-380.538 208.475,-391.099 220,-401.437 237.318,-416.971 236.481,-426.778 256,-439.437 259.145,-441.477 262.536,-443.328 266.031,-445.002"/>
<polygon fill="midnightblue" stroke="midnightblue" points="264.862,-448.309 275.432,-449.027 267.616,-441.873 264.862,-448.309"/>
</g>
<!-- Node19&#45;&gt;Node5 -->
<g id="edge25" class="edge"><title>Node19&#45;&gt;Node5</title>
<path fill="none" stroke="midnightblue" d="M190.315,-372.949C207.623,-380.923 233.237,-392.419 256,-401.437 261.14,-403.473 266.595,-405.522 271.987,-407.481"/>
<polygon fill="midnightblue" stroke="midnightblue" points="270.946,-410.825 281.54,-410.889 273.298,-404.232 270.946,-410.825"/>
</g>
<!-- Node19&#45;&gt;Node11 -->
<g id="edge28" class="edge"><title>Node19&#45;&gt;Node11</title>
<path fill="none" stroke="midnightblue" d="M217.429,-359.457C268.014,-354.324 343.851,-343.797 366,-325.437 425.471,-276.14 442.594,-178.198 447.304,-136.253"/>
<polygon fill="midnightblue" stroke="midnightblue" points="450.796,-136.508 448.309,-126.209 443.83,-135.81 450.796,-136.508"/>
</g>
<!-- Node19&#45;&gt;Node14 -->
<g id="edge27" class="edge"><title>Node19&#45;&gt;Node14</title>
<path fill="none" stroke="midnightblue" d="M193.433,-353.897C218.172,-343.824 257.112,-327.97 283.091,-317.393"/>
<polygon fill="midnightblue" stroke="midnightblue" points="284.746,-320.498 292.688,-313.485 282.107,-314.015 284.746,-320.498"/>
</g>
<!-- Node20 -->
<g id="node20" class="node"><title>Node20</title>
<g id="a_node20"><a xlink:href="../../d8/de2/menudefs_8qc.html#aa3ad1e014c0deb35398ec4f64a84304d" target="_top" xlink:title="drawsetcliparea">
<polygon fill="none" stroke="black" points="268.5,-372.937 268.5,-391.937 353.5,-391.937 353.5,-372.937 268.5,-372.937"/>
<text text-anchor="middle" x="311" y="-379.937" font-family="Helvetica,sans-Serif" font-size="10.00">drawsetcliparea</text>
</a>
</g>
</g>
<!-- Node19&#45;&gt;Node20 -->
<g id="edge26" class="edge"><title>Node19&#45;&gt;Node20</title>
<path fill="none" stroke="midnightblue" d="M217.007,-369.817C230.174,-371.604 244.562,-373.556 258,-375.38"/>
<polygon fill="midnightblue" stroke="midnightblue" points="257.675,-378.868 268.055,-376.745 258.616,-371.932 257.675,-378.868"/>
</g>
<!-- Node21&#45;&gt;Node4 -->
<g id="edge30" class="edge"><title>Node21&#45;&gt;Node4</title>
<path fill="none" stroke="midnightblue" d="M187.286,-316.127C197.967,-322.87 211.257,-332.732 220,-344.437 247.022,-380.611 223.693,-407.894 256,-439.437 259.04,-442.405 262.57,-444.912 266.343,-447.029"/>
<polygon fill="midnightblue" stroke="midnightblue" points="264.926,-450.23 275.467,-451.293 267.89,-443.888 264.926,-450.23"/>
</g>
<!-- Node21&#45;&gt;Node5 -->
<g id="edge31" class="edge"><title>Node21&#45;&gt;Node5</title>
<path fill="none" stroke="midnightblue" d="M185.595,-316.147C196.096,-323.172 209.831,-333.348 220,-344.437 240.251,-366.521 232.568,-382.763 256,-401.437 258.259,-403.237 260.701,-404.874 263.255,-406.36"/>
<polygon fill="midnightblue" stroke="midnightblue" points="261.759,-409.525 272.27,-410.857 264.884,-403.261 261.759,-409.525"/>
</g>
<!-- Node22 -->
<g id="node22" class="node"><title>Node22</title>
<g id="a_node22"><a xlink:href="../../d8/de2/menudefs_8qc.html#a66804fbc3a76c60d59f50aa1bc4557d1" target="_top" xlink:title="drawcolorcodedstring">
<polygon fill="none" stroke="black" points="256.5,-182.937 256.5,-201.937 365.5,-201.937 365.5,-182.937 256.5,-182.937"/>
<text text-anchor="middle" x="311" y="-189.937" font-family="Helvetica,sans-Serif" font-size="10.00">drawcolorcodedstring</text>
</a>
</g>
</g>
<!-- Node21&#45;&gt;Node22 -->
<g id="edge32" class="edge"><title>Node21&#45;&gt;Node22</title>
<path fill="none" stroke="midnightblue" d="M200.144,-299.198C207.266,-296.41 214.407,-292.604 220,-287.437 247.454,-262.076 228.233,-236.456 256,-211.437 257.74,-209.87 259.617,-208.43 261.591,-207.107"/>
<polygon fill="midnightblue" stroke="midnightblue" points="263.698,-209.941 270.745,-202.029 260.302,-203.82 263.698,-209.941"/>
</g>
<!-- Node23 -->
<g id="node23" class="node"><title>Node23</title>
<g id="a_node23"><a xlink:href="../../d8/de2/menudefs_8qc.html#ae8ecd1beaa4d05a475bf27bbf7e0868c" target="_top" xlink:title="drawstring">
<polygon fill="none" stroke="black" points="280,-258.937 280,-277.937 342,-277.937 342,-258.937 280,-258.937"/>
<text text-anchor="middle" x="311" y="-265.937" font-family="Helvetica,sans-Serif" font-size="10.00">drawstring</text>
</a>
</g>
</g>
<!-- Node21&#45;&gt;Node23 -->
<g id="edge33" class="edge"><title>Node21&#45;&gt;Node23</title>
<path fill="none" stroke="midnightblue" d="M200.034,-298.285C220.378,-292.763 247.497,-285.402 269.713,-279.372"/>
<polygon fill="midnightblue" stroke="midnightblue" points="270.799,-282.704 279.533,-276.707 268.965,-275.949 270.799,-282.704"/>
</g>
<!-- Node24 -->
<g id="node24" class="node"><title>Node24</title>
<g id="a_node24"><a xlink:href="../../d6/db1/draw_8qc.html#aae12e9efe4b2ff652987ec77bbb1e82e" target="_top" xlink:title="globalToBoxSize">
<polygon fill="none" stroke="black" points="266,-144.937 266,-163.937 356,-163.937 356,-144.937 266,-144.937"/>
<text text-anchor="middle" x="311" y="-151.937" font-family="Helvetica,sans-Serif" font-size="10.00">globalToBoxSize</text>
</a>
</g>
</g>
<!-- Node21&#45;&gt;Node24 -->
<g id="edge34" class="edge"><title>Node21&#45;&gt;Node24</title>
<path fill="none" stroke="midnightblue" d="M200.13,-299.912C207.42,-297.104 214.644,-293.109 220,-287.437 256.48,-248.806 219.044,-211.612 256,-173.437 257.4,-171.991 258.916,-170.655 260.521,-169.421"/>
<polygon fill="midnightblue" stroke="midnightblue" points="262.516,-172.302 269.167,-164.055 258.824,-166.355 262.516,-172.302"/>
</g>
<!-- Node25 -->
<g id="node25" class="node"><title>Node25</title>
<g id="a_node25"><a xlink:href="../../d1/d07/framework_8qc.html#aef346455b3c2def821423a45227b45dd" target="_top" xlink:title="LOG_TRACE">
<polygon fill="none" stroke="black" points="272.5,-220.937 272.5,-239.937 349.5,-239.937 349.5,-220.937 272.5,-220.937"/>
<text text-anchor="middle" x="311" y="-227.937" font-family="Helvetica,sans-Serif" font-size="10.00">LOG_TRACE</text>
</a>
</g>
</g>
<!-- Node21&#45;&gt;Node25 -->
<g id="edge35" class="edge"><title>Node21&#45;&gt;Node25</title>
<path fill="none" stroke="midnightblue" d="M200.161,-297.479C206.976,-294.786 213.972,-291.454 220,-287.437 239.36,-274.537 236.481,-262.096 256,-249.437 259.101,-247.426 262.44,-245.598 265.883,-243.943"/>
<polygon fill="midnightblue" stroke="midnightblue" points="267.345,-247.124 275.148,-239.957 264.579,-240.694 267.345,-247.124"/>
</g>
<!-- Node26&#45;&gt;Node5 -->
<g id="edge37" class="edge"><title>Node26&#45;&gt;Node5</title>
<path fill="none" stroke="midnightblue" d="M207.08,-278.054C211.871,-280.512 216.366,-283.589 220,-287.437 256.48,-326.068 219.044,-363.262 256,-401.437 257.4,-402.883 258.916,-404.219 260.521,-405.454"/>
<polygon fill="midnightblue" stroke="midnightblue" points="258.824,-408.52 269.167,-410.819 262.516,-402.572 258.824,-408.52"/>
</g>
<!-- Node26&#45;&gt;Node11 -->
<g id="edge42" class="edge"><title>Node26&#45;&gt;Node11</title>
<path fill="none" stroke="midnightblue" d="M207.08,-258.82C211.871,-256.362 216.366,-253.286 220,-249.437 256.48,-210.806 214.736,-168.91 256,-135.437 302.161,-97.9922 376.439,-103.156 418.102,-109.97"/>
<polygon fill="midnightblue" stroke="midnightblue" points="417.498,-113.417 427.955,-111.712 418.717,-106.524 417.498,-113.417"/>
</g>
<!-- Node26&#45;&gt;Node24 -->
<g id="edge38" class="edge"><title>Node26&#45;&gt;Node24</title>
<path fill="none" stroke="midnightblue" d="M205.594,-258.85C210.822,-256.372 215.839,-253.281 220,-249.437 247.454,-224.076 228.233,-198.456 256,-173.437 257.74,-171.87 259.617,-170.43 261.591,-169.107"/>
<polygon fill="midnightblue" stroke="midnightblue" points="263.698,-171.941 270.745,-164.029 260.302,-165.82 263.698,-171.941"/>
</g>
<!-- Node27 -->
<g id="node27" class="node"><title>Node27</title>
<g id="a_node27"><a xlink:href="../../dc/d98/client_2miscfunctions_8qc.html#aac033ec101163a655b47a24ceb78bad5" target="_top" xlink:title="stringwidth">
<polygon fill="none" stroke="black" points="279,-68.9372 279,-87.9372 343,-87.9372 343,-68.9372 279,-68.9372"/>
<text text-anchor="middle" x="311" y="-75.9372" font-family="Helvetica,sans-Serif" font-size="10.00">stringwidth</text>
</a>
</g>
</g>
<!-- Node26&#45;&gt;Node27 -->
<g id="edge39" class="edge"><title>Node26&#45;&gt;Node27</title>
<path fill="none" stroke="midnightblue" d="M207.562,-258.901C212.226,-256.434 216.556,-253.333 220,-249.437 264.55,-199.042 212.854,-154.04 256,-102.437 259.794,-97.8993 264.618,-94.1881 269.816,-91.1613"/>
<polygon fill="midnightblue" stroke="midnightblue" points="271.408,-94.2785 278.801,-86.6887 268.289,-88.0121 271.408,-94.2785"/>
</g>
<!-- Node27&#45;&gt;Node11 -->
<g id="edge41" class="edge"><title>Node27&#45;&gt;Node11</title>
<path fill="none" stroke="midnightblue" d="M343.087,-87.06C365.543,-93.2885 395.736,-101.663 418.139,-107.877"/>
<polygon fill="midnightblue" stroke="midnightblue" points="417.257,-111.265 427.828,-110.565 419.128,-104.519 417.257,-111.265"/>
</g>
<!-- Node28 -->
<g id="node28" class="node"><title>Node28</title>
<g id="a_node28"><a xlink:href="../../d4/d0c/csprogsdefs_8qc.html#a0f275977f6aa5a693742a397723991d0" target="_top" xlink:title="stringwidth_builtin">
<polygon fill="none" stroke="black" points="402.5,-68.9372 402.5,-87.9372 497.5,-87.9372 497.5,-68.9372 402.5,-68.9372"/>
<text text-anchor="middle" x="450" y="-75.9372" font-family="Helvetica,sans-Serif" font-size="10.00">stringwidth_builtin</text>
</a>
</g>
</g>
<!-- Node27&#45;&gt;Node28 -->
<g id="edge40" class="edge"><title>Node27&#45;&gt;Node28</title>
<path fill="none" stroke="midnightblue" d="M343.087,-78.4372C357.601,-78.4372 375.348,-78.4372 392.134,-78.4372"/>
<polygon fill="midnightblue" stroke="midnightblue" points="392.424,-81.9373 402.424,-78.4372 392.424,-74.9373 392.424,-81.9373"/>
</g>
</g>
</svg>
        <g id="navigator" transform="translate(0 0)" fill="#404254">
                <rect fill="#f2f5e9" fill-opacity="0.5" stroke="#606060" stroke-width=".5" x="0" y="0" width="60" height="60"/>
                <use id="zoomplus" xlink:href="#zoomPlus" x="17" y="9" onmousedown="handleZoom(evt,'in')"/>
                <use id="zoomminus" xlink:href="#zoomMin" x="42" y="9" onmousedown="handleZoom(evt,'out')"/>
                <use id="reset" xlink:href="#resetDef" x="30" y="36" onmousedown="handleReset()"/>
                <g id="arrowUp" xlink:href="#dirArrow" transform="translate(30 24)" onmousedown="handlePan(0,-1)">
                  <use xlink:href="#rim" fill="#404040">
                        <set attributeName="fill" to="#808080" begin="arrowUp.mouseover" end="arrowUp.mouseout"/>
                  </use>
                  <path fill="none" stroke="white" stroke-width="1.5" d="M0,-3.0v7 M-2.5,-0.5L0,-3.0L2.5,-0.5"/>
                </g>
                <g id="arrowRight" xlink:href="#dirArrow" transform="rotate(90) translate(36 -43)" onmousedown="handlePan(1,0)">
                  <use xlink:href="#rim" fill="#404040">
                        <set attributeName="fill" to="#808080" begin="arrowRight.mouseover" end="arrowRight.mouseout"/>
                  </use>
                  <path fill="none" stroke="white" stroke-width="1.5" d="M0,-3.0v7 M-2.5,-0.5L0,-3.0L2.5,-0.5"/>
                </g>
                <g id="arrowDown" xlink:href="#dirArrow" transform="rotate(180) translate(-30 -48)" onmousedown="handlePan(0,1)">
                  <use xlink:href="#rim" fill="#404040">
                        <set attributeName="fill" to="#808080" begin="arrowDown.mouseover" end="arrowDown.mouseout"/>
                  </use>
                  <path fill="none" stroke="white" stroke-width="1.5" d="M0,-3.0v7 M-2.5,-0.5L0,-3.0L2.5,-0.5"/>
                </g>
                <g id="arrowLeft" xlink:href="#dirArrow" transform="rotate(270) translate(-36 17)" onmousedown="handlePan(-1,0)">
                  <use xlink:href="#rim" fill="#404040">
                        <set attributeName="fill" to="#808080" begin="arrowLeft.mouseover" end="arrowLeft.mouseout"/>
                  </use>
                  <path fill="none" stroke="white" stroke-width="1.5" d="M0,-3.0v7 M-2.5,-0.5L0,-3.0L2.5,-0.5"/>
                </g>
        </g>
        <svg viewBox="0 0 15 15" width="100%" height="30px" preserveAspectRatio="xMaxYMin meet">
         <g id="arrow_out" transform="scale(0.3 0.3)">
          <a xlink:href="item_2inputbox_8qc_a8c4345d0dd45bcb33c0802e73ef52857_cgraph_org.svg" target="_base">
           <rect id="button" ry="5" rx="5" y="6" x="6" height="38" width="38"
                fill="#f2f5e9" fill-opacity="0.5" stroke="#606060" stroke-width="1.0"/>
           <path id="arrow"
             d="M 11.500037,31.436501 C 11.940474,20.09759 22.043105,11.32322 32.158766,21.979434 L 37.068811,17.246167 C 37.068811,17.246167 37.088388,32 37.088388,32 L 22.160133,31.978069 C 22.160133,31.978069 26.997745,27.140456 26.997745,27.140456 C 18.528582,18.264221 13.291696,25.230495 11.500037,31.436501 z"
             style="fill:#404040;"/>
          </a>
         </g>
        </svg>
</svg>
