<?xml version="1.0" encoding="UTF-8" standalone="no"?>
<!DOCTYPE svg PUBLIC "-//W3C//DTD SVG 1.1//EN"
 "http://www.w3.org/Graphics/SVG/1.1/DTD/svg11.dtd">
<!-- Generated by graphviz version 2.36.0 (20140111.2315)
 -->
<!-- Title: HUD_HealthArmor Pages: 1 -->
<!--zoomable 430 -->
<svg id="main" version="1.1" xmlns="http://www.w3.org/2000/svg" xmlns:xlink="http://www.w3.org/1999/xlink" xml:space="preserve" onload="init(evt)">
<style type="text/css"><![CDATA[
.edge:hover path { stroke: red; }
.edge:hover polygon { stroke: red; fill: red; }
]]></style>
<script type="text/javascript"><![CDATA[
var edges = document.getElementsByTagName('g');
if (edges && edges.length) {
  for (var i=0;i<edges.length;i++) {
    if (edges[i].id.substr(0,4)=='edge') {
      edges[i].setAttribute('class','edge');
    }
  }
}
]]></script>
        <defs>
                <circle id="rim" cx="0" cy="0" r="7"/>
                <circle id="rim2" cx="0" cy="0" r="3.5"/>
                <g id="zoomPlus">
                        <use xlink:href="#rim" fill="#404040">
                                <set attributeName="fill" to="#808080" begin="zoomplus.mouseover" end="zoomplus.mouseout"/>
                        </use>
                        <path d="M-4,0h8M0,-4v8" fill="none" stroke="white" stroke-width="1.5" pointer-events="none"/>
                </g>
                <g id="zoomMin">
                        <use xlink:href="#rim" fill="#404040">
                                <set attributeName="fill" to="#808080" begin="zoomminus.mouseover" end="zoomminus.mouseout"/>
                        </use>
                        <path d="M-4,0h8" fill="none" stroke="white" stroke-width="1.5" pointer-events="none"/>
                </g>
                <g id="dirArrow">
                        <path fill="none" stroke="white" stroke-width="1.5" d="M0,-3.0v7 M-2.5,-0.5L0,-3.0L2.5,-0.5"/>
                </g>
               <g id="resetDef">
                       <use xlink:href="#rim2" fill="#404040">
                               <set attributeName="fill" to="#808080" begin="reset.mouseover" end="reset.mouseout"/>
                       </use>
               </g>
        </defs>

<script type="text/javascript">
var viewWidth = 954;
var viewHeight = 430;
var sectionId = 'dynsection-2';
</script>
<script xlink:href="../../svgpan.js"/>
<svg id="graph" class="graph">
<g id="viewport">
<title>HUD_HealthArmor</title>
<!-- Node1 -->
<g id="node1" class="node"><title>Node1</title>
<polygon fill="#bfbfbf" stroke="black" points="0.5,-209.5 0.5,-228.5 99.5,-228.5 99.5,-209.5 0.5,-209.5"/>
<text text-anchor="middle" x="50" y="-216.5" font-family="Helvetica,sans-Serif" font-size="10.00">HUD_HealthArmor</text>
</g>
<!-- Node2 -->
<g id="node2" class="node"><title>Node2</title>
<g id="a_node2"><a xlink:href="../../d8/de2/menudefs_8qc.html#a5b48ade84c6b8b9ccb89e94c5d95ae88" target="_top" xlink:title="cos">
<polygon fill="none" stroke="black" points="196,-342.5 196,-361.5 228,-361.5 228,-342.5 196,-342.5"/>
<text text-anchor="middle" x="212" y="-349.5" font-family="Helvetica,sans-Serif" font-size="10.00">cos</text>
</a>
</g>
</g>
<!-- Node1&#45;&gt;Node2 -->
<g id="edge1" class="edge"><title>Node1&#45;&gt;Node2</title>
<path fill="none" stroke="midnightblue" d="M55.3713,-228.707C65.8722,-250.875 94.7425,-305.429 136,-333 150.881,-342.945 170.591,-347.684 186.07,-349.943"/>
<polygon fill="midnightblue" stroke="midnightblue" points="185.652,-353.418 196,-351.144 186.492,-346.469 185.652,-353.418"/>
</g>
<!-- Node3 -->
<g id="node3" class="node"><title>Node3</title>
<g id="a_node3"><a xlink:href="../../d7/d15/hud_8qc.html#a8c5e3345294677c8a5fe0737e0980a30" target="_top" xlink:title="DrawNumIcon">
<polygon fill="none" stroke="black" points="172,-304.5 172,-323.5 252,-323.5 252,-304.5 172,-304.5"/>
<text text-anchor="middle" x="212" y="-311.5" font-family="Helvetica,sans-Serif" font-size="10.00">DrawNumIcon</text>
</a>
</g>
</g>
<!-- Node1&#45;&gt;Node3 -->
<g id="edge2" class="edge"><title>Node1&#45;&gt;Node3</title>
<path fill="none" stroke="midnightblue" d="M60.0323,-228.644C74.6511,-243.732 105,-272.952 136,-290 144.093,-294.451 153.139,-298.224 162.07,-301.367"/>
<polygon fill="midnightblue" stroke="midnightblue" points="161.073,-304.724 171.666,-304.533 163.266,-298.076 161.073,-304.724"/>
</g>
<!-- Node14 -->
<g id="node14" class="node"><title>Node14</title>
<g id="a_node14"><a xlink:href="../../d4/d0c/csprogsdefs_8qc.html#a4f0b78b1785821ba47129edb68e70f9e" target="_top" xlink:title="vector">
<polygon fill="none" stroke="black" points="541,-228.5 541,-247.5 585,-247.5 585,-228.5 541,-228.5"/>
<text text-anchor="middle" x="563" y="-235.5" font-family="Helvetica,sans-Serif" font-size="10.00">vector</text>
</a>
</g>
</g>
<!-- Node1&#45;&gt;Node14 -->
<g id="edge29" class="edge"><title>Node1&#45;&gt;Node14</title>
<path fill="none" stroke="midnightblue" d="M82.6123,-228.536C98.4952,-232.979 118.119,-237.948 136,-241 275.494,-264.814 313.024,-269.306 454,-257 480.078,-254.724 509.299,-249.411 530.764,-244.981"/>
<polygon fill="midnightblue" stroke="midnightblue" points="531.571,-248.388 540.63,-242.894 530.122,-241.539 531.571,-248.388"/>
</g>
<!-- Node15 -->
<g id="node15" class="node"><title>Node15</title>
<g id="a_node15"><a xlink:href="../../d8/de2/menudefs_8qc.html#accccfae161879454243b3a8695a9bf3b" target="_top" xlink:title="fabs">
<polygon fill="none" stroke="black" points="194.5,-76.5 194.5,-95.5 229.5,-95.5 229.5,-76.5 194.5,-76.5"/>
<text text-anchor="middle" x="212" y="-83.5" font-family="Helvetica,sans-Serif" font-size="10.00">fabs</text>
</a>
</g>
</g>
<!-- Node1&#45;&gt;Node15 -->
<g id="edge17" class="edge"><title>Node1&#45;&gt;Node15</title>
<path fill="none" stroke="midnightblue" d="M55.3713,-209.293C65.8722,-187.125 94.7425,-132.571 136,-105 150.199,-95.5112 168.793,-90.7611 183.915,-88.3832"/>
<polygon fill="midnightblue" stroke="midnightblue" points="184.739,-91.8054 194.2,-87.0372 183.83,-84.8646 184.739,-91.8054"/>
</g>
<!-- Node16 -->
<g id="node16" class="node"><title>Node16</title>
<g id="a_node16"><a xlink:href="../../d8/de2/menudefs_8qc.html#ad5a3e16aa960bd72d3ca37a618eea802" target="_top" xlink:title="floor">
<polygon fill="none" stroke="black" points="194.5,-38.5 194.5,-57.5 229.5,-57.5 229.5,-38.5 194.5,-38.5"/>
<text text-anchor="middle" x="212" y="-45.5" font-family="Helvetica,sans-Serif" font-size="10.00">floor</text>
</a>
</g>
</g>
<!-- Node1&#45;&gt;Node16 -->
<g id="edge18" class="edge"><title>Node1&#45;&gt;Node16</title>
<path fill="none" stroke="midnightblue" d="M53.4738,-209.401C60.938,-182.436 85.868,-105.469 136,-67 149.853,-56.3697 168.977,-51.6362 184.447,-49.5519"/>
<polygon fill="midnightblue" stroke="midnightblue" points="184.886,-53.025 194.463,-48.4922 184.15,-46.0638 184.886,-53.025"/>
</g>
<!-- Node17 -->
<g id="node17" class="node"><title>Node17</title>
<g id="a_node17"><a xlink:href="../../da/d44/common_2util_8qc.html#a335f5527477608b6b79c2ee4120009e0" target="_top" xlink:title="healtharmor_maxdamage">
<polygon fill="none" stroke="black" points="326,-228.5 326,-247.5 452,-247.5 452,-228.5 326,-228.5"/>
<text text-anchor="middle" x="389" y="-235.5" font-family="Helvetica,sans-Serif" font-size="10.00">healtharmor_maxdamage</text>
</a>
</g>
</g>
<!-- Node1&#45;&gt;Node17 -->
<g id="edge19" class="edge"><title>Node1&#45;&gt;Node17</title>
<path fill="none" stroke="midnightblue" d="M99.6428,-221.742C156.307,-224.937 250.465,-230.246 315.698,-233.924"/>
<polygon fill="midnightblue" stroke="midnightblue" points="315.728,-237.431 325.909,-234.499 316.122,-230.442 315.728,-237.431"/>
</g>
<!-- Node18 -->
<g id="node18" class="node"><title>Node18</title>
<g id="a_node18"><a xlink:href="../../d7/d15/hud_8qc.html#ac83f5e664b74ba1269627528078a7dbf" target="_top" xlink:title="HUD_Get_Num_Color">
<polygon fill="none" stroke="black" points="154.5,-190.5 154.5,-209.5 269.5,-209.5 269.5,-190.5 154.5,-190.5"/>
<text text-anchor="middle" x="212" y="-197.5" font-family="Helvetica,sans-Serif" font-size="10.00">HUD_Get_Num_Color</text>
</a>
</g>
</g>
<!-- Node1&#45;&gt;Node18 -->
<g id="edge21" class="edge"><title>Node1&#45;&gt;Node18</title>
<path fill="none" stroke="midnightblue" d="M99.8747,-213.196C113.838,-211.538 129.3,-209.702 144.141,-207.939"/>
<polygon fill="midnightblue" stroke="midnightblue" points="144.773,-211.389 154.291,-206.734 143.948,-204.438 144.773,-211.389"/>
</g>
<!-- Node20 -->
<g id="node20" class="node"><title>Node20</title>
<g id="a_node20"><a xlink:href="../../d7/d15/hud_8qc.html#a41b7823d1cc3d0f46d9780fadf782eba" target="_top" xlink:title="HUD_Panel_DrawProgressBar">
<polygon fill="none" stroke="black" points="136,-114.5 136,-133.5 288,-133.5 288,-114.5 136,-114.5"/>
<text text-anchor="middle" x="212" y="-121.5" font-family="Helvetica,sans-Serif" font-size="10.00">HUD_Panel_DrawProgressBar</text>
</a>
</g>
</g>
<!-- Node1&#45;&gt;Node20 -->
<g id="edge24" class="edge"><title>Node1&#45;&gt;Node20</title>
<path fill="none" stroke="midnightblue" d="M67.2222,-209.368C95.2531,-192.725 152.928,-158.48 186.08,-138.796"/>
<polygon fill="midnightblue" stroke="midnightblue" points="187.923,-141.772 194.735,-133.657 184.349,-135.753 187.923,-141.772"/>
</g>
<!-- Node4 -->
<g id="node4" class="node"><title>Node4</title>
<g id="a_node4"><a xlink:href="../../d7/d15/hud_8qc.html#ab677a00ccd816b50bfc388b934d8210a" target="_top" xlink:title="DrawNumIcon_expanding">
<polygon fill="none" stroke="black" points="324.5,-304.5 324.5,-323.5 453.5,-323.5 453.5,-304.5 324.5,-304.5"/>
<text text-anchor="middle" x="389" y="-311.5" font-family="Helvetica,sans-Serif" font-size="10.00">DrawNumIcon_expanding</text>
</a>
</g>
</g>
<!-- Node3&#45;&gt;Node4 -->
<g id="edge3" class="edge"><title>Node3&#45;&gt;Node4</title>
<path fill="none" stroke="midnightblue" d="M252.273,-314C270.629,-314 293.103,-314 314.442,-314"/>
<polygon fill="midnightblue" stroke="midnightblue" points="314.474,-317.5 324.474,-314 314.474,-310.5 314.474,-317.5"/>
</g>
<!-- Node5 -->
<g id="node5" class="node"><title>Node5</title>
<g id="a_node5"><a xlink:href="../../dc/d98/client_2miscfunctions_8qc.html#a334d31e4ab614a29942c1170de7f50a2" target="_top" xlink:title="drawpic_aspect_skin\l_expanding">
<polygon fill="none" stroke="black" points="674,-379 674,-409 782,-409 782,-379 674,-379"/>
<text text-anchor="start" x="682" y="-397" font-family="Helvetica,sans-Serif" font-size="10.00">drawpic_aspect_skin</text>
<text text-anchor="middle" x="728" y="-386" font-family="Helvetica,sans-Serif" font-size="10.00">_expanding</text>
</a>
</g>
</g>
<!-- Node4&#45;&gt;Node5 -->
<g id="edge4" class="edge"><title>Node4&#45;&gt;Node5</title>
<path fill="none" stroke="midnightblue" d="M402.751,-323.653C420.994,-336.884 456.097,-360.237 490,-371 547.016,-389.101 615.301,-394.087 663.897,-395.002"/>
<polygon fill="midnightblue" stroke="midnightblue" points="663.91,-398.502 673.956,-395.138 664.005,-391.503 663.91,-398.502"/>
</g>
<!-- Node8 -->
<g id="node8" class="node"><title>Node8</title>
<g id="a_node8"><a xlink:href="../../dc/d98/client_2miscfunctions_8qc.html#a0ded0b9dc55f9f344b7b5f7fc9a487b8" target="_top" xlink:title="drawstring_aspect">
<polygon fill="none" stroke="black" points="680,-266.5 680,-285.5 776,-285.5 776,-266.5 680,-266.5"/>
<text text-anchor="middle" x="728" y="-273.5" font-family="Helvetica,sans-Serif" font-size="10.00">drawstring_aspect</text>
</a>
</g>
</g>
<!-- Node4&#45;&gt;Node8 -->
<g id="edge7" class="edge"><title>Node4&#45;&gt;Node8</title>
<path fill="none" stroke="midnightblue" d="M434.634,-304.454C451.867,-301.049 471.786,-297.453 490,-295 550.979,-286.787 621.299,-281.697 669.406,-278.877"/>
<polygon fill="midnightblue" stroke="midnightblue" points="669.841,-282.358 679.625,-278.293 669.441,-275.369 669.841,-282.358"/>
</g>
<!-- Node10 -->
<g id="node10" class="node"><title>Node10</title>
<g id="a_node10"><a xlink:href="../../dc/d98/client_2miscfunctions_8qc.html#a9dc20609135ad937fc760141f222d88f" target="_top" xlink:title="drawstring_aspect_expanding">
<polygon fill="none" stroke="black" points="490,-342.5 490,-361.5 636,-361.5 636,-342.5 490,-342.5"/>
<text text-anchor="middle" x="563" y="-349.5" font-family="Helvetica,sans-Serif" font-size="10.00">drawstring_aspect_expanding</text>
</a>
</g>
</g>
<!-- Node4&#45;&gt;Node10 -->
<g id="edge9" class="edge"><title>Node4&#45;&gt;Node10</title>
<path fill="none" stroke="midnightblue" d="M433.403,-323.589C456.407,-328.671 484.851,-334.955 509.134,-340.32"/>
<polygon fill="midnightblue" stroke="midnightblue" points="508.39,-343.74 518.909,-342.48 509.9,-336.905 508.39,-343.74"/>
</g>
<!-- Node13 -->
<g id="node13" class="node"><title>Node13</title>
<g id="a_node13"><a xlink:href="../../d8/de2/menudefs_8qc.html#abbb0d86741e0056b6c04f7280c185d76" target="_top" xlink:title="ftos">
<polygon fill="none" stroke="black" points="546.5,-304.5 546.5,-323.5 579.5,-323.5 579.5,-304.5 546.5,-304.5"/>
<text text-anchor="middle" x="563" y="-311.5" font-family="Helvetica,sans-Serif" font-size="10.00">ftos</text>
</a>
</g>
</g>
<!-- Node4&#45;&gt;Node13 -->
<g id="edge15" class="edge"><title>Node4&#45;&gt;Node13</title>
<path fill="none" stroke="midnightblue" d="M453.558,-314C482.211,-314 514.437,-314 536.258,-314"/>
<polygon fill="midnightblue" stroke="midnightblue" points="536.36,-317.5 546.36,-314 536.36,-310.5 536.36,-317.5"/>
</g>
<!-- Node4&#45;&gt;Node14 -->
<g id="edge16" class="edge"><title>Node4&#45;&gt;Node14</title>
<path fill="none" stroke="midnightblue" d="M421.119,-304.462C431.852,-300.623 443.746,-295.734 454,-290 471.691,-280.106 472.129,-271.564 490,-262 502.742,-255.181 517.781,-249.8 530.811,-245.876"/>
<polygon fill="midnightblue" stroke="midnightblue" points="532.091,-249.15 540.748,-243.042 530.171,-242.419 532.091,-249.15"/>
</g>
<!-- Node6 -->
<g id="node6" class="node"><title>Node6</title>
<g id="a_node6"><a xlink:href="../../dc/d98/client_2miscfunctions_8qc.html#a0ac6cc94ff118e494f0845fbe95ac58b" target="_top" xlink:title="expandingbox_sizefactor\l_from_fadelerp">
<polygon fill="none" stroke="black" points="820.5,-343 820.5,-373 945.5,-373 945.5,-343 820.5,-343"/>
<text text-anchor="start" x="828.5" y="-361" font-family="Helvetica,sans-Serif" font-size="10.00">expandingbox_sizefactor</text>
<text text-anchor="middle" x="883" y="-350" font-family="Helvetica,sans-Serif" font-size="10.00">_from_fadelerp</text>
</a>
</g>
</g>
<!-- Node5&#45;&gt;Node6 -->
<g id="edge5" class="edge"><title>Node5&#45;&gt;Node6</title>
<path fill="none" stroke="midnightblue" d="M782.083,-381.51C791.243,-379.355 800.899,-377.083 810.451,-374.835"/>
<polygon fill="midnightblue" stroke="midnightblue" points="811.411,-378.205 820.343,-372.507 809.808,-371.391 811.411,-378.205"/>
</g>
<!-- Node7 -->
<g id="node7" class="node"><title>Node7</title>
<g id="a_node7"><a xlink:href="../../dc/d98/client_2miscfunctions_8qc.html#a926e636a771400ea71b84aff9f454e5d" target="_top" xlink:title="expandingbox_resize\l_centered_box_offset">
<polygon fill="none" stroke="black" points="828,-392 828,-422 938,-422 938,-392 828,-392"/>
<text text-anchor="start" x="836" y="-410" font-family="Helvetica,sans-Serif" font-size="10.00">expandingbox_resize</text>
<text text-anchor="middle" x="883" y="-399" font-family="Helvetica,sans-Serif" font-size="10.00">_centered_box_offset</text>
</a>
</g>
</g>
<!-- Node5&#45;&gt;Node7 -->
<g id="edge6" class="edge"><title>Node5&#45;&gt;Node7</title>
<path fill="none" stroke="midnightblue" d="M782.083,-398.51C793.564,-399.486 805.825,-400.528 817.685,-401.535"/>
<polygon fill="midnightblue" stroke="midnightblue" points="817.713,-405.05 827.974,-402.41 818.306,-398.075 817.713,-405.05"/>
</g>
<!-- Node9 -->
<g id="node9" class="node"><title>Node9</title>
<g id="a_node9"><a xlink:href="../../d8/de2/menudefs_8qc.html#ae8ecd1beaa4d05a475bf27bbf7e0868c" target="_top" xlink:title="drawstring">
<polygon fill="none" stroke="black" points="852,-266.5 852,-285.5 914,-285.5 914,-266.5 852,-266.5"/>
<text text-anchor="middle" x="883" y="-273.5" font-family="Helvetica,sans-Serif" font-size="10.00">drawstring</text>
</a>
</g>
</g>
<!-- Node8&#45;&gt;Node9 -->
<g id="edge8" class="edge"><title>Node8&#45;&gt;Node9</title>
<path fill="none" stroke="midnightblue" d="M776.153,-276C797.089,-276 821.481,-276 841.569,-276"/>
<polygon fill="midnightblue" stroke="midnightblue" points="841.641,-279.5 851.641,-276 841.641,-272.5 841.641,-279.5"/>
</g>
<!-- Node11 -->
<g id="node11" class="node"><title>Node11</title>
<g id="a_node11"><a xlink:href="../../dc/d98/client_2miscfunctions_8qc.html#aba0561f81895d478b94ef74ea85ddcd4" target="_top" xlink:title="drawstring_expanding">
<polygon fill="none" stroke="black" points="672.5,-340.5 672.5,-359.5 783.5,-359.5 783.5,-340.5 672.5,-340.5"/>
<text text-anchor="middle" x="728" y="-347.5" font-family="Helvetica,sans-Serif" font-size="10.00">drawstring_expanding</text>
</a>
</g>
</g>
<!-- Node10&#45;&gt;Node11 -->
<g id="edge10" class="edge"><title>Node10&#45;&gt;Node11</title>
<path fill="none" stroke="midnightblue" d="M636.443,-351.111C645.027,-351.006 653.746,-350.899 662.214,-350.795"/>
<polygon fill="midnightblue" stroke="midnightblue" points="662.436,-354.293 672.392,-350.67 662.35,-347.293 662.436,-354.293"/>
</g>
<!-- Node11&#45;&gt;Node6 -->
<g id="edge11" class="edge"><title>Node11&#45;&gt;Node6</title>
<path fill="none" stroke="midnightblue" d="M783.804,-352.866C792.402,-353.315 801.398,-353.785 810.306,-354.251"/>
<polygon fill="midnightblue" stroke="midnightblue" points="810.132,-357.747 820.301,-354.774 810.498,-350.756 810.132,-357.747"/>
</g>
<!-- Node11&#45;&gt;Node7 -->
<g id="edge13" class="edge"><title>Node11&#45;&gt;Node7</title>
<path fill="none" stroke="midnightblue" d="M755.6,-359.599C764.624,-362.875 774.759,-366.575 784,-370 799.958,-375.914 817.344,-382.448 832.982,-388.359"/>
<polygon fill="midnightblue" stroke="midnightblue" points="831.873,-391.681 842.464,-391.947 834.35,-385.134 831.873,-391.681"/>
</g>
<!-- Node11&#45;&gt;Node9 -->
<g id="edge12" class="edge"><title>Node11&#45;&gt;Node9</title>
<path fill="none" stroke="midnightblue" d="M742.601,-340.308C759.9,-328.334 791.015,-307.962 820,-295 827.003,-291.868 834.671,-289.058 842.153,-286.619"/>
<polygon fill="midnightblue" stroke="midnightblue" points="843.291,-289.931 851.811,-283.632 841.223,-283.243 843.291,-289.931"/>
</g>
<!-- Node12 -->
<g id="node12" class="node"><title>Node12</title>
<g id="a_node12"><a xlink:href="../../d4/d0c/csprogsdefs_8qc.html#a94a1345eb27474381462657533afc25c" target="_top" xlink:title="stringwidth">
<polygon fill="none" stroke="black" points="851,-304.5 851,-323.5 915,-323.5 915,-304.5 851,-304.5"/>
<text text-anchor="middle" x="883" y="-311.5" font-family="Helvetica,sans-Serif" font-size="10.00">stringwidth</text>
</a>
</g>
</g>
<!-- Node11&#45;&gt;Node12 -->
<g id="edge14" class="edge"><title>Node11&#45;&gt;Node12</title>
<path fill="none" stroke="midnightblue" d="M769.6,-340.447C791.71,-335.245 818.994,-328.825 841.144,-323.613"/>
<polygon fill="midnightblue" stroke="midnightblue" points="841.99,-327.01 850.923,-321.312 840.387,-320.196 841.99,-327.01"/>
</g>
<!-- Node17&#45;&gt;Node14 -->
<g id="edge20" class="edge"><title>Node17&#45;&gt;Node14</title>
<path fill="none" stroke="midnightblue" d="M452.096,-238C478.723,-238 508.672,-238 530.573,-238"/>
<polygon fill="midnightblue" stroke="midnightblue" points="530.629,-241.5 540.629,-238 530.629,-234.5 530.629,-241.5"/>
</g>
<!-- Node18&#45;&gt;Node14 -->
<g id="edge23" class="edge"><title>Node18&#45;&gt;Node14</title>
<path fill="none" stroke="midnightblue" d="M247.487,-190.488C294.782,-178.97 382.096,-163.189 454,-181 486.268,-188.993 519.523,-208.578 540.452,-222.556"/>
<polygon fill="midnightblue" stroke="midnightblue" points="538.663,-225.573 548.89,-228.338 542.619,-219.798 538.663,-225.573"/>
</g>
<!-- Node19 -->
<g id="node19" class="node"><title>Node19</title>
<g id="a_node19"><a xlink:href="../../d8/de2/menudefs_8qc.html#aaabd4c5f172530d93a3b9c30a9e21b88" target="_top" xlink:title="sin">
<polygon fill="none" stroke="black" points="374.5,-190.5 374.5,-209.5 403.5,-209.5 403.5,-190.5 374.5,-190.5"/>
<text text-anchor="middle" x="389" y="-197.5" font-family="Helvetica,sans-Serif" font-size="10.00">sin</text>
</a>
</g>
</g>
<!-- Node18&#45;&gt;Node19 -->
<g id="edge22" class="edge"><title>Node18&#45;&gt;Node19</title>
<path fill="none" stroke="midnightblue" d="M269.817,-200C301.84,-200 340.14,-200 364.274,-200"/>
<polygon fill="midnightblue" stroke="midnightblue" points="364.292,-203.5 374.292,-200 364.292,-196.5 364.292,-203.5"/>
</g>
<!-- Node20&#45;&gt;Node14 -->
<g id="edge28" class="edge"><title>Node20&#45;&gt;Node14</title>
<path fill="none" stroke="midnightblue" d="M288.128,-130.033C336.768,-135.782 400.731,-146.858 454,-168 487.618,-181.343 521.903,-205.8 542.57,-221.981"/>
<polygon fill="midnightblue" stroke="midnightblue" points="540.553,-224.849 550.552,-228.352 544.92,-219.378 540.553,-224.849"/>
</g>
<!-- Node21 -->
<g id="node21" class="node"><title>Node21</title>
<g id="a_node21"><a xlink:href="../../d4/d0c/csprogsdefs_8qc.html#a07c016e00e6f80d5012980202d770138" target="_top" xlink:title="drawsubpic">
<polygon fill="none" stroke="black" points="356,-76.5 356,-95.5 422,-95.5 422,-76.5 356,-76.5"/>
<text text-anchor="middle" x="389" y="-83.5" font-family="Helvetica,sans-Serif" font-size="10.00">drawsubpic</text>
</a>
</g>
</g>
<!-- Node20&#45;&gt;Node21 -->
<g id="edge25" class="edge"><title>Node20&#45;&gt;Node21</title>
<path fill="none" stroke="midnightblue" d="M257.16,-114.411C284.365,-108.504 319.047,-100.973 345.868,-95.1487"/>
<polygon fill="midnightblue" stroke="midnightblue" points="346.701,-98.5495 355.73,-93.0071 345.215,-91.7089 346.701,-98.5495"/>
</g>
<!-- Node22 -->
<g id="node22" class="node"><title>Node22</title>
<g id="a_node22"><a xlink:href="../../d8/de2/menudefs_8qc.html#a66ae6f59199ebf4780d2bf9681f2b0c7" target="_top" xlink:title="precache_pic">
<polygon fill="none" stroke="black" points="352,-38.5 352,-57.5 426,-57.5 426,-38.5 352,-38.5"/>
<text text-anchor="middle" x="389" y="-45.5" font-family="Helvetica,sans-Serif" font-size="10.00">precache_pic</text>
</a>
</g>
</g>
<!-- Node20&#45;&gt;Node22 -->
<g id="edge26" class="edge"><title>Node20&#45;&gt;Node22</title>
<path fill="none" stroke="midnightblue" d="M266.528,-114.426C274.013,-111.962 281.395,-108.872 288,-105 308.07,-93.2337 304.173,-79.17 324,-67 329.51,-63.6179 335.658,-60.8076 341.903,-58.4805"/>
<polygon fill="midnightblue" stroke="midnightblue" points="343.34,-61.6909 351.72,-55.2086 341.127,-55.05 343.34,-61.6909"/>
</g>
<!-- Node23 -->
<g id="node23" class="node"><title>Node23</title>
<g id="a_node23"><a xlink:href="../../d8/de2/menudefs_8qc.html#ad76dc2b2895cd23f21e008f12a686158" target="_top" xlink:title="strcat">
<polygon fill="none" stroke="black" points="368.5,-0.5 368.5,-19.5 409.5,-19.5 409.5,-0.5 368.5,-0.5"/>
<text text-anchor="middle" x="389" y="-7.5" font-family="Helvetica,sans-Serif" font-size="10.00">strcat</text>
</a>
</g>
</g>
<!-- Node20&#45;&gt;Node23 -->
<g id="edge27" class="edge"><title>Node20&#45;&gt;Node23</title>
<path fill="none" stroke="midnightblue" d="M272.348,-114.38C277.987,-111.916 283.332,-108.839 288,-105 316.867,-81.259 295.619,-53.3203 324,-29 333.598,-20.7752 346.633,-16.1099 358.434,-13.464"/>
<polygon fill="midnightblue" stroke="midnightblue" points="359.177,-16.886 368.371,-11.6199 357.9,-10.0035 359.177,-16.886"/>
</g>
</g>
</svg>
        <g id="navigator" transform="translate(0 0)" fill="#404254">
                <rect fill="#f2f5e9" fill-opacity="0.5" stroke="#606060" stroke-width=".5" x="0" y="0" width="60" height="60"/>
                <use id="zoomplus" xlink:href="#zoomPlus" x="17" y="9" onmousedown="handleZoom(evt,'in')"/>
                <use id="zoomminus" xlink:href="#zoomMin" x="42" y="9" onmousedown="handleZoom(evt,'out')"/>
                <use id="reset" xlink:href="#resetDef" x="30" y="36" onmousedown="handleReset()"/>
                <g id="arrowUp" xlink:href="#dirArrow" transform="translate(30 24)" onmousedown="handlePan(0,-1)">
                  <use xlink:href="#rim" fill="#404040">
                        <set attributeName="fill" to="#808080" begin="arrowUp.mouseover" end="arrowUp.mouseout"/>
                  </use>
                  <path fill="none" stroke="white" stroke-width="1.5" d="M0,-3.0v7 M-2.5,-0.5L0,-3.0L2.5,-0.5"/>
                </g>
                <g id="arrowRight" xlink:href="#dirArrow" transform="rotate(90) translate(36 -43)" onmousedown="handlePan(1,0)">
                  <use xlink:href="#rim" fill="#404040">
                        <set attributeName="fill" to="#808080" begin="arrowRight.mouseover" end="arrowRight.mouseout"/>
                  </use>
                  <path fill="none" stroke="white" stroke-width="1.5" d="M0,-3.0v7 M-2.5,-0.5L0,-3.0L2.5,-0.5"/>
                </g>
                <g id="arrowDown" xlink:href="#dirArrow" transform="rotate(180) translate(-30 -48)" onmousedown="handlePan(0,1)">
                  <use xlink:href="#rim" fill="#404040">
                        <set attributeName="fill" to="#808080" begin="arrowDown.mouseover" end="arrowDown.mouseout"/>
                  </use>
                  <path fill="none" stroke="white" stroke-width="1.5" d="M0,-3.0v7 M-2.5,-0.5L0,-3.0L2.5,-0.5"/>
                </g>
                <g id="arrowLeft" xlink:href="#dirArrow" transform="rotate(270) translate(-36 17)" onmousedown="handlePan(-1,0)">
                  <use xlink:href="#rim" fill="#404040">
                        <set attributeName="fill" to="#808080" begin="arrowLeft.mouseover" end="arrowLeft.mouseout"/>
                  </use>
                  <path fill="none" stroke="white" stroke-width="1.5" d="M0,-3.0v7 M-2.5,-0.5L0,-3.0L2.5,-0.5"/>
                </g>
        </g>
        <svg viewBox="0 0 15 15" width="100%" height="30px" preserveAspectRatio="xMaxYMin meet">
         <g id="arrow_out" transform="scale(0.3 0.3)">
          <a xlink:href="healtharmor_8qc_a160501021e3210ed1258c66ae9a881ba_cgraph_org.svg" target="_base">
           <rect id="button" ry="5" rx="5" y="6" x="6" height="38" width="38"
                fill="#f2f5e9" fill-opacity="0.5" stroke="#606060" stroke-width="1.0"/>
           <path id="arrow"
             d="M 11.500037,31.436501 C 11.940474,20.09759 22.043105,11.32322 32.158766,21.979434 L 37.068811,17.246167 C 37.068811,17.246167 37.088388,32 37.088388,32 L 22.160133,31.978069 C 22.160133,31.978069 26.997745,27.140456 26.997745,27.140456 C 18.528582,18.264221 13.291696,25.230495 11.500037,31.436501 z"
             style="fill:#404040;"/>
          </a>
         </g>
        </svg>
</svg>
