<?xml version="1.0" encoding="UTF-8" standalone="no"?>
<!DOCTYPE svg PUBLIC "-//W3C//DTD SVG 1.1//EN"
 "http://www.w3.org/Graphics/SVG/1.1/DTD/svg11.dtd">
<!-- Generated by graphviz version 2.36.0 (20140111.2315)
 -->
<!-- Title: client_hasweapon Pages: 1 -->
<!--zoomable 275 -->
<svg id="main" version="1.1" xmlns="http://www.w3.org/2000/svg" xmlns:xlink="http://www.w3.org/1999/xlink" xml:space="preserve" onload="init(evt)">
<style type="text/css"><![CDATA[
.edge:hover path { stroke: red; }
.edge:hover polygon { stroke: red; fill: red; }
]]></style>
<script type="text/javascript"><![CDATA[
var edges = document.getElementsByTagName('g');
if (edges && edges.length) {
  for (var i=0;i<edges.length;i++) {
    if (edges[i].id.substr(0,4)=='edge') {
      edges[i].setAttribute('class','edge');
    }
  }
}
]]></script>
        <defs>
                <circle id="rim" cx="0" cy="0" r="7"/>
                <circle id="rim2" cx="0" cy="0" r="3.5"/>
                <g id="zoomPlus">
                        <use xlink:href="#rim" fill="#404040">
                                <set attributeName="fill" to="#808080" begin="zoomplus.mouseover" end="zoomplus.mouseout"/>
                        </use>
                        <path d="M-4,0h8M0,-4v8" fill="none" stroke="white" stroke-width="1.5" pointer-events="none"/>
                </g>
                <g id="zoomMin">
                        <use xlink:href="#rim" fill="#404040">
                                <set attributeName="fill" to="#808080" begin="zoomminus.mouseover" end="zoomminus.mouseout"/>
                        </use>
                        <path d="M-4,0h8" fill="none" stroke="white" stroke-width="1.5" pointer-events="none"/>
                </g>
                <g id="dirArrow">
                        <path fill="none" stroke="white" stroke-width="1.5" d="M0,-3.0v7 M-2.5,-0.5L0,-3.0L2.5,-0.5"/>
                </g>
               <g id="resetDef">
                       <use xlink:href="#rim2" fill="#404040">
                               <set attributeName="fill" to="#808080" begin="reset.mouseover" end="reset.mouseout"/>
                       </use>
               </g>
        </defs>

<script type="text/javascript">
var viewWidth = 710;
var viewHeight = 275;
var sectionId = 'dynsection-2';
</script>
<script xlink:href="../../svgpan.js"/>
<svg id="graph" class="graph">
<g id="viewport">
<title>client_hasweapon</title>
<!-- Node1 -->
<g id="node1" class="node"><title>Node1</title>
<polygon fill="#bfbfbf" stroke="black" points="0.5,-114.5 0.5,-133.5 95.5,-133.5 95.5,-114.5 0.5,-114.5"/>
<text text-anchor="middle" x="48" y="-121.5" font-family="Helvetica,sans-Serif" font-size="10.00">client_hasweapon</text>
</g>
<!-- Node2 -->
<g id="node2" class="node"><title>Node2</title>
<g id="a_node2"><a xlink:href="../../d8/d6b/selection_8qh.html#adf3e13e24e532932c0396c15ad5d1228" target="_top" xlink:title="W_GetCycleWeapon">
<polygon fill="none" stroke="black" points="132.5,-152.5 132.5,-171.5 241.5,-171.5 241.5,-152.5 132.5,-152.5"/>
<text text-anchor="middle" x="187" y="-159.5" font-family="Helvetica,sans-Serif" font-size="10.00">W_GetCycleWeapon</text>
</a>
</g>
</g>
<!-- Node1&#45;&gt;Node2 -->
<g id="edge1" class="edge"><title>Node1&#45;&gt;Node2</title>
<path fill="none" stroke="midnightblue" d="M93.4108,-136.318C112.234,-141.539 133.838,-147.532 151.44,-152.414"/>
<polygon fill="midnightblue" stroke="midnightblue" points="94.1426,-132.889 83.5709,-133.589 92.2716,-139.635 94.1426,-132.889"/>
</g>
<!-- Node10 -->
<g id="node10" class="node"><title>Node10</title>
<g id="a_node10"><a xlink:href="../../d8/d6b/selection_8qh.html#ad4bf72dfdd0aaeca5bc1da4fb607fb3b" target="_top" xlink:title="W_LastWeapon">
<polygon fill="none" stroke="black" points="303,-114.5 303,-133.5 389,-133.5 389,-114.5 303,-114.5"/>
<text text-anchor="middle" x="346" y="-121.5" font-family="Helvetica,sans-Serif" font-size="10.00">W_LastWeapon</text>
</a>
</g>
</g>
<!-- Node1&#45;&gt;Node10 -->
<g id="edge9" class="edge"><title>Node1&#45;&gt;Node10</title>
<path fill="none" stroke="midnightblue" d="M105.586,-124C163.056,-124 250.754,-124 302.533,-124"/>
<polygon fill="midnightblue" stroke="midnightblue" points="105.576,-120.5 95.5756,-124 105.576,-127.5 105.576,-120.5"/>
</g>
<!-- Node12 -->
<g id="node12" class="node"><title>Node12</title>
<g id="a_node12"><a xlink:href="../../d8/d6b/selection_8qh.html#a7e2426ae180c23d1a760ea0951ddd2f1" target="_top" xlink:title="W_SwitchWeapon">
<polygon fill="none" stroke="black" points="138,-76.5 138,-95.5 236,-95.5 236,-76.5 138,-76.5"/>
<text text-anchor="middle" x="187" y="-83.5" font-family="Helvetica,sans-Serif" font-size="10.00">W_SwitchWeapon</text>
</a>
</g>
</g>
<!-- Node1&#45;&gt;Node12 -->
<g id="edge11" class="edge"><title>Node1&#45;&gt;Node12</title>
<path fill="none" stroke="midnightblue" d="M93.4108,-111.682C112.234,-106.461 133.838,-100.468 151.44,-95.5859"/>
<polygon fill="midnightblue" stroke="midnightblue" points="92.2716,-108.365 83.5709,-114.411 94.1426,-115.111 92.2716,-108.365"/>
</g>
<!-- Node3 -->
<g id="node3" class="node"><title>Node3</title>
<g id="a_node3"><a xlink:href="../../d8/d6b/selection_8qh.html#a6feb08ba7d01d611762b08aeb5dd7dd6" target="_top" xlink:title="W_CycleWeapon">
<polygon fill="none" stroke="black" points="299.5,-190.5 299.5,-209.5 392.5,-209.5 392.5,-190.5 299.5,-190.5"/>
<text text-anchor="middle" x="346" y="-197.5" font-family="Helvetica,sans-Serif" font-size="10.00">W_CycleWeapon</text>
</a>
</g>
</g>
<!-- Node2&#45;&gt;Node3 -->
<g id="edge2" class="edge"><title>Node2&#45;&gt;Node3</title>
<path fill="none" stroke="midnightblue" d="M237.447,-173.968C259.448,-179.293 284.994,-185.476 305.667,-190.48"/>
<polygon fill="midnightblue" stroke="midnightblue" points="238.16,-170.54 227.618,-171.589 236.514,-177.343 238.16,-170.54"/>
</g>
<!-- Node9 -->
<g id="node9" class="node"><title>Node9</title>
<g id="a_node9"><a xlink:href="../../d8/d6b/selection_8qh.html#aa9ed52c05bcae706e07b86117f1165df" target="_top" xlink:title="W_NextWeaponOnImpulse">
<polygon fill="none" stroke="black" points="278,-152.5 278,-171.5 414,-171.5 414,-152.5 278,-152.5"/>
<text text-anchor="middle" x="346" y="-159.5" font-family="Helvetica,sans-Serif" font-size="10.00">W_NextWeaponOnImpulse</text>
</a>
</g>
</g>
<!-- Node2&#45;&gt;Node9 -->
<g id="edge8" class="edge"><title>Node2&#45;&gt;Node9</title>
<path fill="none" stroke="midnightblue" d="M251.859,-162C260.396,-162 269.174,-162 277.768,-162"/>
<polygon fill="midnightblue" stroke="midnightblue" points="251.591,-158.5 241.591,-162 251.591,-165.5 251.591,-158.5"/>
</g>
<!-- Node4 -->
<g id="node4" class="node"><title>Node4</title>
<g id="a_node4"><a xlink:href="../../d2/d62/selection_8qc.html#a5f709942f88a08901c4e7b646b2dee9b" target="_top" xlink:title="W_NextWeapon">
<polygon fill="none" stroke="black" points="482.5,-209.5 482.5,-228.5 571.5,-228.5 571.5,-209.5 482.5,-209.5"/>
<text text-anchor="middle" x="527" y="-216.5" font-family="Helvetica,sans-Serif" font-size="10.00">W_NextWeapon</text>
</a>
</g>
</g>
<!-- Node3&#45;&gt;Node4 -->
<g id="edge3" class="edge"><title>Node3&#45;&gt;Node4</title>
<path fill="none" stroke="midnightblue" d="M402.598,-205.901C428.263,-208.626 458.293,-211.813 482.303,-214.362"/>
<polygon fill="midnightblue" stroke="midnightblue" points="402.946,-202.419 392.632,-204.844 402.207,-209.38 402.946,-202.419"/>
</g>
<!-- Node7 -->
<g id="node7" class="node"><title>Node7</title>
<g id="a_node7"><a xlink:href="../../d8/d6b/selection_8qh.html#a0f321b3257e4e705a6d2ad7ad4f00bdf" target="_top" xlink:title="W_PreviousWeapon">
<polygon fill="none" stroke="black" points="474,-171.5 474,-190.5 580,-190.5 580,-171.5 474,-171.5"/>
<text text-anchor="middle" x="527" y="-178.5" font-family="Helvetica,sans-Serif" font-size="10.00">W_PreviousWeapon</text>
</a>
</g>
</g>
<!-- Node3&#45;&gt;Node7 -->
<g id="edge6" class="edge"><title>Node3&#45;&gt;Node7</title>
<path fill="none" stroke="midnightblue" d="M402.785,-194.079C425.456,-191.672 451.507,-188.907 473.798,-186.541"/>
<polygon fill="midnightblue" stroke="midnightblue" points="402.207,-190.62 392.632,-195.156 402.946,-197.581 402.207,-190.62"/>
</g>
<!-- Node5 -->
<g id="node5" class="node"><title>Node5</title>
<g id="a_node5"><a xlink:href="../../d4/d53/server_2impulse_8qc.html#a9b9db3195bc55958c129625961fca805" target="_top" xlink:title="IMPULSE">
<polygon fill="none" stroke="black" points="640.5,-209.5 640.5,-228.5 701.5,-228.5 701.5,-209.5 640.5,-209.5"/>
<text text-anchor="middle" x="671" y="-216.5" font-family="Helvetica,sans-Serif" font-size="10.00">IMPULSE</text>
</a>
</g>
</g>
<!-- Node4&#45;&gt;Node5 -->
<g id="edge4" class="edge"><title>Node4&#45;&gt;Node5</title>
<path fill="none" stroke="midnightblue" d="M581.875,-219C601.605,-219 623.211,-219 640.091,-219"/>
<polygon fill="midnightblue" stroke="midnightblue" points="581.763,-215.5 571.763,-219 581.763,-222.5 581.763,-215.5"/>
</g>
<!-- Node6 -->
<g id="node6" class="node"><title>Node6</title>
<g id="a_node6"><a xlink:href="../../d4/d53/server_2impulse_8qc.html#a3c6cfa6ad6a3a9ae995b486602718629" target="_top" xlink:title="X">
<polygon fill="none" stroke="black" points="656.5,-247.5 656.5,-266.5 685.5,-266.5 685.5,-247.5 656.5,-247.5"/>
<text text-anchor="middle" x="671" y="-254.5" font-family="Helvetica,sans-Serif" font-size="10.00">X</text>
</a>
</g>
</g>
<!-- Node4&#45;&gt;Node6 -->
<g id="edge5" class="edge"><title>Node4&#45;&gt;Node6</title>
<path fill="none" stroke="midnightblue" d="M573.686,-231.226C602.397,-238.909 637.462,-248.293 656.36,-253.35"/>
<polygon fill="midnightblue" stroke="midnightblue" points="574.397,-227.793 563.833,-228.589 572.588,-234.555 574.397,-227.793"/>
</g>
<!-- Node8 -->
<g id="node8" class="node"><title>Node8</title>
<g id="a_node8"><a xlink:href="../../d4/d53/server_2impulse_8qc.html#a3e4c8eb269d6bdee930be3277adc905a" target="_top" xlink:title="IMPULSE">
<polygon fill="none" stroke="black" points="640.5,-171.5 640.5,-190.5 701.5,-190.5 701.5,-171.5 640.5,-171.5"/>
<text text-anchor="middle" x="671" y="-178.5" font-family="Helvetica,sans-Serif" font-size="10.00">IMPULSE</text>
</a>
</g>
</g>
<!-- Node7&#45;&gt;Node8 -->
<g id="edge7" class="edge"><title>Node7&#45;&gt;Node8</title>
<path fill="none" stroke="midnightblue" d="M590.19,-181C607.573,-181 625.673,-181 640.232,-181"/>
<polygon fill="midnightblue" stroke="midnightblue" points="590.069,-177.5 580.069,-181 590.069,-184.5 590.069,-177.5"/>
</g>
<!-- Node11 -->
<g id="node11" class="node"><title>Node11</title>
<g id="a_node11"><a xlink:href="../../d4/d53/server_2impulse_8qc.html#ad1af0b2ac8778b30ea5741423ebeacdc" target="_top" xlink:title="IMPULSE">
<polygon fill="none" stroke="black" points="496.5,-114.5 496.5,-133.5 557.5,-133.5 557.5,-114.5 496.5,-114.5"/>
<text text-anchor="middle" x="527" y="-121.5" font-family="Helvetica,sans-Serif" font-size="10.00">IMPULSE</text>
</a>
</g>
</g>
<!-- Node10&#45;&gt;Node11 -->
<g id="edge10" class="edge"><title>Node10&#45;&gt;Node11</title>
<path fill="none" stroke="midnightblue" d="M399.809,-124C431.359,-124 470.265,-124 496.468,-124"/>
<polygon fill="midnightblue" stroke="midnightblue" points="399.421,-120.5 389.421,-124 399.42,-127.5 399.421,-120.5"/>
</g>
<!-- Node12&#45;&gt;Node3 -->
<g id="edge15" class="edge"><title>Node12&#45;&gt;Node3</title>
<path fill="none" stroke="midnightblue" d="M204.248,-103.158C230.153,-130.513 277.929,-180.957 278,-181 284.516,-184.945 291.883,-188.099 299.287,-190.612"/>
<polygon fill="midnightblue" stroke="midnightblue" points="206.701,-100.658 197.283,-95.8032 201.618,-105.471 206.701,-100.658"/>
</g>
<!-- Node12&#45;&gt;Node9 -->
<g id="edge16" class="edge"><title>Node12&#45;&gt;Node9</title>
<path fill="none" stroke="midnightblue" d="M208.832,-101.648C226.473,-114.282 252.838,-131.75 278,-143 286.278,-146.701 295.457,-149.865 304.297,-152.488"/>
<polygon fill="midnightblue" stroke="midnightblue" points="210.597,-98.6035 200.454,-95.5404 206.473,-104.26 210.597,-98.6035"/>
</g>
<!-- Node12&#45;&gt;Node10 -->
<g id="edge17" class="edge"><title>Node12&#45;&gt;Node10</title>
<path fill="none" stroke="midnightblue" d="M237.447,-97.968C259.448,-103.293 284.994,-109.476 305.667,-114.48"/>
<polygon fill="midnightblue" stroke="midnightblue" points="238.16,-94.5398 227.618,-95.589 236.514,-101.343 238.16,-94.5398"/>
</g>
<!-- Node13 -->
<g id="node13" class="node"><title>Node13</title>
<g id="a_node13"><a xlink:href="../../d7/d39/sv__nix_8qc.html#a71c80b0c1234dc67733b6ae5b492b009" target="_top" xlink:title="NIX_GiveCurrentWeapon">
<polygon fill="none" stroke="black" points="282,-76.5 282,-95.5 410,-95.5 410,-76.5 282,-76.5"/>
<text text-anchor="middle" x="346" y="-83.5" font-family="Helvetica,sans-Serif" font-size="10.00">NIX_GiveCurrentWeapon</text>
</a>
</g>
</g>
<!-- Node12&#45;&gt;Node13 -->
<g id="edge12" class="edge"><title>Node12&#45;&gt;Node13</title>
<path fill="none" stroke="midnightblue" d="M246.688,-86C258.123,-86 270.158,-86 281.733,-86"/>
<polygon fill="midnightblue" stroke="midnightblue" points="246.386,-82.5001 236.386,-86 246.386,-89.5001 246.386,-82.5001"/>
</g>
<!-- Node15 -->
<g id="node15" class="node"><title>Node15</title>
<g id="a_node15"><a xlink:href="../../d4/d53/server_2impulse_8qc.html#aa49d1689e7a0abe0dd80fb31d1018e98" target="_top" xlink:title="IMPULSE">
<polygon fill="none" stroke="black" points="315.5,-38.5 315.5,-57.5 376.5,-57.5 376.5,-38.5 315.5,-38.5"/>
<text text-anchor="middle" x="346" y="-45.5" font-family="Helvetica,sans-Serif" font-size="10.00">IMPULSE</text>
</a>
</g>
</g>
<!-- Node12&#45;&gt;Node15 -->
<g id="edge14" class="edge"><title>Node12&#45;&gt;Node15</title>
<path fill="none" stroke="midnightblue" d="M237.512,-74.0161C263.069,-67.8304 293.395,-60.4905 315.308,-55.1866"/>
<polygon fill="midnightblue" stroke="midnightblue" points="236.514,-70.6567 227.618,-76.411 238.16,-77.4602 236.514,-70.6567"/>
</g>
<!-- Node16 -->
<g id="node16" class="node"><title>Node16</title>
<g id="a_node16"><a xlink:href="../../da/db7/weaponsystem_8qh.html#a9bcd792c8ccabbcc22484eb7872f70b8" target="_top" xlink:title="W_WeaponFrame">
<polygon fill="none" stroke="black" points="298.5,-0.5 298.5,-19.5 393.5,-19.5 393.5,-0.5 298.5,-0.5"/>
<text text-anchor="middle" x="346" y="-7.5" font-family="Helvetica,sans-Serif" font-size="10.00">W_WeaponFrame</text>
</a>
</g>
</g>
<!-- Node12&#45;&gt;Node16 -->
<g id="edge18" class="edge"><title>Node12&#45;&gt;Node16</title>
<path fill="none" stroke="midnightblue" d="M208.832,-70.3518C226.473,-57.7176 252.838,-40.25 278,-29 286.278,-25.2987 295.457,-22.1354 304.297,-19.5125"/>
<polygon fill="midnightblue" stroke="midnightblue" points="206.473,-67.7401 200.454,-76.4596 210.597,-73.3965 206.473,-67.7401"/>
</g>
<!-- Node14 -->
<g id="node14" class="node"><title>Node14</title>
<g id="a_node14"><a xlink:href="../../d7/d39/sv__nix_8qc.html#ac7256b175d4e46d36e04633521489e28" target="_top" xlink:title="MUTATOR_HOOKFUNCTION">
<polygon fill="none" stroke="black" points="450.5,-76.5 450.5,-95.5 603.5,-95.5 603.5,-76.5 450.5,-76.5"/>
<text text-anchor="middle" x="527" y="-83.5" font-family="Helvetica,sans-Serif" font-size="10.00">MUTATOR_HOOKFUNCTION</text>
</a>
</g>
</g>
<!-- Node13&#45;&gt;Node14 -->
<g id="edge13" class="edge"><title>Node13&#45;&gt;Node14</title>
<path fill="none" stroke="midnightblue" d="M420.292,-86C430.18,-86 440.34,-86 450.269,-86"/>
<polygon fill="midnightblue" stroke="midnightblue" points="420.109,-82.5001 410.109,-86 420.109,-89.5001 420.109,-82.5001"/>
</g>
</g>
</svg>
        <g id="navigator" transform="translate(0 0)" fill="#404254">
                <rect fill="#f2f5e9" fill-opacity="0.5" stroke="#606060" stroke-width=".5" x="0" y="0" width="60" height="60"/>
                <use id="zoomplus" xlink:href="#zoomPlus" x="17" y="9" onmousedown="handleZoom(evt,'in')"/>
                <use id="zoomminus" xlink:href="#zoomMin" x="42" y="9" onmousedown="handleZoom(evt,'out')"/>
                <use id="reset" xlink:href="#resetDef" x="30" y="36" onmousedown="handleReset()"/>
                <g id="arrowUp" xlink:href="#dirArrow" transform="translate(30 24)" onmousedown="handlePan(0,-1)">
                  <use xlink:href="#rim" fill="#404040">
                        <set attributeName="fill" to="#808080" begin="arrowUp.mouseover" end="arrowUp.mouseout"/>
                  </use>
                  <path fill="none" stroke="white" stroke-width="1.5" d="M0,-3.0v7 M-2.5,-0.5L0,-3.0L2.5,-0.5"/>
                </g>
                <g id="arrowRight" xlink:href="#dirArrow" transform="rotate(90) translate(36 -43)" onmousedown="handlePan(1,0)">
                  <use xlink:href="#rim" fill="#404040">
                        <set attributeName="fill" to="#808080" begin="arrowRight.mouseover" end="arrowRight.mouseout"/>
                  </use>
                  <path fill="none" stroke="white" stroke-width="1.5" d="M0,-3.0v7 M-2.5,-0.5L0,-3.0L2.5,-0.5"/>
                </g>
                <g id="arrowDown" xlink:href="#dirArrow" transform="rotate(180) translate(-30 -48)" onmousedown="handlePan(0,1)">
                  <use xlink:href="#rim" fill="#404040">
                        <set attributeName="fill" to="#808080" begin="arrowDown.mouseover" end="arrowDown.mouseout"/>
                  </use>
                  <path fill="none" stroke="white" stroke-width="1.5" d="M0,-3.0v7 M-2.5,-0.5L0,-3.0L2.5,-0.5"/>
                </g>
                <g id="arrowLeft" xlink:href="#dirArrow" transform="rotate(270) translate(-36 17)" onmousedown="handlePan(-1,0)">
                  <use xlink:href="#rim" fill="#404040">
                        <set attributeName="fill" to="#808080" begin="arrowLeft.mouseover" end="arrowLeft.mouseout"/>
                  </use>
                  <path fill="none" stroke="white" stroke-width="1.5" d="M0,-3.0v7 M-2.5,-0.5L0,-3.0L2.5,-0.5"/>
                </g>
        </g>
        <svg viewBox="0 0 15 15" width="100%" height="30px" preserveAspectRatio="xMaxYMin meet">
         <g id="arrow_out" transform="scale(0.3 0.3)">
          <a xlink:href="selection_8qh_aba6ed323f0e8f5773f5d7de51e2d3411_icgraph_org.svg" target="_base">
           <rect id="button" ry="5" rx="5" y="6" x="6" height="38" width="38"
                fill="#f2f5e9" fill-opacity="0.5" stroke="#606060" stroke-width="1.0"/>
           <path id="arrow"
             d="M 11.500037,31.436501 C 11.940474,20.09759 22.043105,11.32322 32.158766,21.979434 L 37.068811,17.246167 C 37.068811,17.246167 37.088388,32 37.088388,32 L 22.160133,31.978069 C 22.160133,31.978069 26.997745,27.140456 26.997745,27.140456 C 18.528582,18.264221 13.291696,25.230495 11.500037,31.436501 z"
             style="fill:#404040;"/>
          </a>
         </g>
        </svg>
</svg>
