<?xml version="1.0" encoding="UTF-8" standalone="no"?>
<!DOCTYPE svg PUBLIC "-//W3C//DTD SVG 1.1//EN"
 "http://www.w3.org/Graphics/SVG/1.1/DTD/svg11.dtd">
<!-- Generated by graphviz version 2.36.0 (20140111.2315)
 -->
<!-- Title: MUTATOR_HOOKFUNCTION Pages: 1 -->
<!--zoomable 636 -->
<svg id="main" version="1.1" xmlns="http://www.w3.org/2000/svg" xmlns:xlink="http://www.w3.org/1999/xlink" xml:space="preserve" onload="init(evt)">
<style type="text/css"><![CDATA[
.edge:hover path { stroke: red; }
.edge:hover polygon { stroke: red; fill: red; }
]]></style>
<script type="text/javascript"><![CDATA[
var edges = document.getElementsByTagName('g');
if (edges && edges.length) {
  for (var i=0;i<edges.length;i++) {
    if (edges[i].id.substr(0,4)=='edge') {
      edges[i].setAttribute('class','edge');
    }
  }
}
]]></script>
        <defs>
                <circle id="rim" cx="0" cy="0" r="7"/>
                <circle id="rim2" cx="0" cy="0" r="3.5"/>
                <g id="zoomPlus">
                        <use xlink:href="#rim" fill="#404040">
                                <set attributeName="fill" to="#808080" begin="zoomplus.mouseover" end="zoomplus.mouseout"/>
                        </use>
                        <path d="M-4,0h8M0,-4v8" fill="none" stroke="white" stroke-width="1.5" pointer-events="none"/>
                </g>
                <g id="zoomMin">
                        <use xlink:href="#rim" fill="#404040">
                                <set attributeName="fill" to="#808080" begin="zoomminus.mouseover" end="zoomminus.mouseout"/>
                        </use>
                        <path d="M-4,0h8" fill="none" stroke="white" stroke-width="1.5" pointer-events="none"/>
                </g>
                <g id="dirArrow">
                        <path fill="none" stroke="white" stroke-width="1.5" d="M0,-3.0v7 M-2.5,-0.5L0,-3.0L2.5,-0.5"/>
                </g>
               <g id="resetDef">
                       <use xlink:href="#rim2" fill="#404040">
                               <set attributeName="fill" to="#808080" begin="reset.mouseover" end="reset.mouseout"/>
                       </use>
               </g>
        </defs>

<script type="text/javascript">
var viewWidth = 620;
var viewHeight = 636;
var sectionId = 'dynsection-11';
</script>
<script xlink:href="../../svgpan.js"/>
<svg id="graph" class="graph">
<g id="viewport">
<title>MUTATOR_HOOKFUNCTION</title>
<!-- Node1 -->
<g id="node1" class="node"><title>Node1</title>
<polygon fill="#bfbfbf" stroke="black" points="0.5,-288.899 0.5,-307.899 153.5,-307.899 153.5,-288.899 0.5,-288.899"/>
<text text-anchor="middle" x="77" y="-295.899" font-family="Helvetica,sans-Serif" font-size="10.00">MUTATOR_HOOKFUNCTION</text>
</g>
<!-- Node2 -->
<g id="node2" class="node"><title>Node2</title>
<g id="a_node2"><a xlink:href="../../d4/d54/map_8qh.html#a9ef8574526bd0fc3ba024e3ca148de85" target="_top" xlink:title="db_get">
<polygon fill="none" stroke="black" points="566,-364.899 566,-383.899 612,-383.899 612,-364.899 566,-364.899"/>
<text text-anchor="middle" x="589" y="-371.899" font-family="Helvetica,sans-Serif" font-size="10.00">db_get</text>
</a>
</g>
</g>
<!-- Node1&#45;&gt;Node2 -->
<g id="edge1" class="edge"><title>Node1&#45;&gt;Node2</title>
<path fill="none" stroke="midnightblue" d="M153.599,-297.206C226.073,-297.29 338.283,-300.639 434,-317.399 477.903,-325.087 488.471,-330.217 530,-346.399 540.314,-350.418 551.325,-355.516 560.951,-360.258"/>
<polygon fill="midnightblue" stroke="midnightblue" points="559.532,-363.462 570.039,-364.827 562.677,-357.208 559.532,-363.462"/>
</g>
<!-- Node3 -->
<g id="node3" class="node"><title>Node3</title>
<g id="a_node3"><a xlink:href="../../d4/d0c/csprogsdefs_8qc.html#acbb54a239d76062465dccbc6a6c6e464" target="_top" xlink:title="entity">
<polygon fill="none" stroke="black" points="230.5,-10.8991 230.5,-29.8991 271.5,-29.8991 271.5,-10.8991 230.5,-10.8991"/>
<text text-anchor="middle" x="251" y="-17.8991" font-family="Helvetica,sans-Serif" font-size="10.00">entity</text>
</a>
</g>
</g>
<!-- Node1&#45;&gt;Node3 -->
<g id="edge2" class="edge"><title>Node1&#45;&gt;Node3</title>
<path fill="none" stroke="midnightblue" d="M79.2769,-288.76C84.7918,-250.997 110.023,-111.646 190,-39.3991 198.418,-31.7949 209.876,-27.2335 220.524,-24.4976"/>
<polygon fill="midnightblue" stroke="midnightblue" points="221.313,-27.9082 230.36,-22.3941 219.849,-21.063 221.313,-27.9082"/>
</g>
<!-- Node4 -->
<g id="node4" class="node"><title>Node4</title>
<g id="a_node4"><a xlink:href="../../db/dcc/g__world_8qc.html#a1330c9208470a4800fb84c8810728bcb" target="_top" xlink:title="GetMapname">
<polygon fill="none" stroke="black" points="353.5,-478.899 353.5,-497.899 428.5,-497.899 428.5,-478.899 353.5,-478.899"/>
<text text-anchor="middle" x="391" y="-485.899" font-family="Helvetica,sans-Serif" font-size="10.00">GetMapname</text>
</a>
</g>
</g>
<!-- Node1&#45;&gt;Node4 -->
<g id="edge3" class="edge"><title>Node1&#45;&gt;Node4</title>
<path fill="none" stroke="midnightblue" d="M83.378,-308.129C97.4786,-332.719 138.044,-397.783 190,-431.399 237.047,-461.839 300.559,-476.32 343.28,-483.005"/>
<polygon fill="midnightblue" stroke="midnightblue" points="342.997,-486.501 353.402,-484.504 344.023,-479.577 342.997,-486.501"/>
</g>
<!-- Node5 -->
<g id="node5" class="node"><title>Node5</title>
<g id="a_node5"><a xlink:href="../../d8/de2/menudefs_8qc.html#ab2ad6bdb33b4334fec83db0418cf72df" target="_top" xlink:title="min">
<polygon fill="none" stroke="black" points="375,-136.899 375,-155.899 407,-155.899 407,-136.899 375,-136.899"/>
<text text-anchor="middle" x="391" y="-143.899" font-family="Helvetica,sans-Serif" font-size="10.00">min</text>
</a>
</g>
</g>
<!-- Node1&#45;&gt;Node5 -->
<g id="edge4" class="edge"><title>Node1&#45;&gt;Node5</title>
<path fill="none" stroke="midnightblue" d="M82.6562,-288.835C95.5853,-263.463 134.656,-194.41 190,-165.399 246.756,-135.648 325.06,-138.814 364.75,-142.973"/>
<polygon fill="midnightblue" stroke="midnightblue" points="364.534,-146.472 374.87,-144.146 365.34,-139.518 364.534,-146.472"/>
</g>
<!-- Node6 -->
<g id="node6" class="node"><title>Node6</title>
<g id="a_node6"><a xlink:href="../../d6/d3b/race_8qc.html#a2dc87fbca84cbbf8ac854670fa11871b" target="_top" xlink:title="race_PreparePlayer">
<polygon fill="none" stroke="black" points="200,-231.899 200,-250.899 302,-250.899 302,-231.899 200,-231.899"/>
<text text-anchor="middle" x="251" y="-238.899" font-family="Helvetica,sans-Serif" font-size="10.00">race_PreparePlayer</text>
</a>
</g>
</g>
<!-- Node1&#45;&gt;Node6 -->
<g id="edge5" class="edge"><title>Node1&#45;&gt;Node6</title>
<path fill="none" stroke="midnightblue" d="M106.789,-288.859C135.439,-279.364 179.591,-264.732 211.296,-254.225"/>
<polygon fill="midnightblue" stroke="midnightblue" points="212.726,-257.439 221.117,-250.971 210.524,-250.794 212.726,-257.439"/>
</g>
<!-- Node9 -->
<g id="node9" class="node"><title>Node9</title>
<g id="a_node9"><a xlink:href="../../d6/d3b/race_8qc.html#ae68f84616d944507a6f89c625224d2ff" target="_top" xlink:title="race_send_rankings_cnt">
<polygon fill="none" stroke="black" points="190,-174.899 190,-193.899 312,-193.899 312,-174.899 190,-174.899"/>
<text text-anchor="middle" x="251" y="-181.899" font-family="Helvetica,sans-Serif" font-size="10.00">race_send_rankings_cnt</text>
</a>
</g>
</g>
<!-- Node1&#45;&gt;Node9 -->
<g id="edge8" class="edge"><title>Node1&#45;&gt;Node9</title>
<path fill="none" stroke="midnightblue" d="M91.6998,-288.898C112.715,-274.37 154.236,-245.85 190,-222.399 201.761,-214.687 214.953,-206.304 225.966,-199.378"/>
<polygon fill="midnightblue" stroke="midnightblue" points="228.011,-202.227 234.625,-193.95 224.293,-196.296 228.011,-202.227"/>
</g>
<!-- Node10 -->
<g id="node10" class="node"><title>Node10</title>
<g id="a_node10"><a xlink:href="../../d6/d3b/race_8qc.html#adde3148534e8ffc72f956ef1031467ab" target="_top" xlink:title="race_send_recordtime">
<polygon fill="none" stroke="black" points="194.5,-402.899 194.5,-421.899 307.5,-421.899 307.5,-402.899 194.5,-402.899"/>
<text text-anchor="middle" x="251" y="-409.899" font-family="Helvetica,sans-Serif" font-size="10.00">race_send_recordtime</text>
</a>
</g>
</g>
<!-- Node1&#45;&gt;Node10 -->
<g id="edge11" class="edge"><title>Node1&#45;&gt;Node10</title>
<path fill="none" stroke="midnightblue" d="M92.3688,-307.923C122.141,-327.656 190.793,-373.158 226.878,-397.074"/>
<polygon fill="midnightblue" stroke="midnightblue" points="225.038,-400.054 235.308,-402.661 228.906,-394.219 225.038,-400.054"/>
</g>
<!-- Node12 -->
<g id="node12" class="node"><title>Node12</title>
<g id="a_node12"><a xlink:href="../../d8/de2/menudefs_8qc.html#a2f6d3020689c0e872cfb455d0b2cbd4a" target="_top" xlink:title="stof">
<polygon fill="none" stroke="black" points="483.5,-554.899 483.5,-573.899 516.5,-573.899 516.5,-554.899 483.5,-554.899"/>
<text text-anchor="middle" x="500" y="-561.899" font-family="Helvetica,sans-Serif" font-size="10.00">stof</text>
</a>
</g>
</g>
<!-- Node1&#45;&gt;Node12 -->
<g id="edge41" class="edge"><title>Node1&#45;&gt;Node12</title>
<path fill="none" stroke="midnightblue" d="M79.9201,-307.961C87.269,-341.883 116.953,-457.264 190,-510.399 277.736,-574.219 416.048,-571.412 473.088,-567.027"/>
<polygon fill="midnightblue" stroke="midnightblue" points="473.707,-570.487 483.373,-566.148 473.111,-563.512 473.707,-570.487"/>
</g>
<!-- Node13 -->
<g id="node13" class="node"><title>Node13</title>
<g id="a_node13"><a xlink:href="../../d8/de2/menudefs_8qc.html#ad76dc2b2895cd23f21e008f12a686158" target="_top" xlink:title="strcat">
<polygon fill="none" stroke="black" points="568.5,-497.899 568.5,-516.899 609.5,-516.899 609.5,-497.899 568.5,-497.899"/>
<text text-anchor="middle" x="589" y="-504.899" font-family="Helvetica,sans-Serif" font-size="10.00">strcat</text>
</a>
</g>
</g>
<!-- Node1&#45;&gt;Node13 -->
<g id="edge42" class="edge"><title>Node1&#45;&gt;Node13</title>
<path fill="none" stroke="midnightblue" d="M79.1994,-307.911C84.4243,-345.133 108.717,-482.07 190,-547.399 308.442,-642.594 393.803,-650.787 530,-583.399 553.849,-571.599 570.573,-544.774 579.744,-526.37"/>
<polygon fill="midnightblue" stroke="midnightblue" points="582.985,-527.701 584.059,-517.16 576.647,-524.731 582.985,-527.701"/>
</g>
<!-- Node15 -->
<g id="node15" class="node"><title>Node15</title>
<g id="a_node15"><a xlink:href="../../d6/d3b/race_8qc.html#ab495eed7037d0ad7adc9a102993fb226" target="_top" xlink:title="race_send_speedaward">
<polygon fill="none" stroke="black" points="191.5,-98.8991 191.5,-117.899 310.5,-117.899 310.5,-98.8991 191.5,-98.8991"/>
<text text-anchor="middle" x="251" y="-105.899" font-family="Helvetica,sans-Serif" font-size="10.00">race_send_speedaward</text>
</a>
</g>
</g>
<!-- Node1&#45;&gt;Node15 -->
<g id="edge19" class="edge"><title>Node1&#45;&gt;Node15</title>
<path fill="none" stroke="midnightblue" d="M82.0453,-288.687C94.214,-260.577 133.18,-178.242 190,-132.399 194.985,-128.377 200.731,-124.955 206.65,-122.066"/>
<polygon fill="midnightblue" stroke="midnightblue" points="208.263,-125.181 216.011,-117.955 205.447,-118.772 208.263,-125.181"/>
</g>
<!-- Node18 -->
<g id="node18" class="node"><title>Node18</title>
<g id="a_node18"><a xlink:href="../../d6/d3b/race_8qc.html#aa77a445ff7257d62eb6cfed505be32cc" target="_top" xlink:title="race_send_speedaward\l_alltimebest">
<polygon fill="none" stroke="black" points="191.5,-49.3991 191.5,-79.3991 310.5,-79.3991 310.5,-49.3991 191.5,-49.3991"/>
<text text-anchor="start" x="199.5" y="-67.3991" font-family="Helvetica,sans-Serif" font-size="10.00">race_send_speedaward</text>
<text text-anchor="middle" x="251" y="-56.3991" font-family="Helvetica,sans-Serif" font-size="10.00">_alltimebest</text>
</a>
</g>
</g>
<!-- Node1&#45;&gt;Node18 -->
<g id="edge23" class="edge"><title>Node1&#45;&gt;Node18</title>
<path fill="none" stroke="midnightblue" d="M80.6542,-288.61C90.0059,-255.864 124.451,-148.871 190,-89.3991 191.698,-87.8589 193.504,-86.4057 195.39,-85.0354"/>
<polygon fill="midnightblue" stroke="midnightblue" points="197.501,-87.8422 204.09,-79.5457 193.765,-81.9223 197.501,-87.8422"/>
</g>
<!-- Node19 -->
<g id="node19" class="node"><title>Node19</title>
<g id="a_node19"><a xlink:href="../../d6/d3b/race_8qc.html#a2b2a6102f551e81871f8b1e030a2e9e0" target="_top" xlink:title="race_SendRankings">
<polygon fill="none" stroke="black" points="199,-326.899 199,-345.899 303,-345.899 303,-326.899 199,-326.899"/>
<text text-anchor="middle" x="251" y="-333.899" font-family="Helvetica,sans-Serif" font-size="10.00">race_SendRankings</text>
</a>
</g>
</g>
<!-- Node1&#45;&gt;Node19 -->
<g id="edge27" class="edge"><title>Node1&#45;&gt;Node19</title>
<path fill="none" stroke="midnightblue" d="M121.403,-307.988C144.407,-313.07 172.851,-319.355 197.134,-324.719"/>
<polygon fill="midnightblue" stroke="midnightblue" points="196.39,-328.139 206.909,-326.879 197.9,-321.304 196.39,-328.139"/>
</g>
<!-- Node22 -->
<g id="node22" class="node"><title>Node22</title>
<g id="a_node22"><a xlink:href="../../dc/dc6/server_2miscfunctions_8qc.html#a943d9da424f168efb8d407b4de9833a2" target="_top" xlink:title="uid2name">
<polygon fill="none" stroke="black" points="470.5,-440.899 470.5,-459.899 529.5,-459.899 529.5,-440.899 470.5,-440.899"/>
<text text-anchor="middle" x="500" y="-447.899" font-family="Helvetica,sans-Serif" font-size="10.00">uid2name</text>
</a>
</g>
</g>
<!-- Node1&#45;&gt;Node22 -->
<g id="edge43" class="edge"><title>Node1&#45;&gt;Node22</title>
<path fill="none" stroke="midnightblue" d="M81.5493,-308.247C92.6145,-337.49 129.414,-424.443 190,-467.399 279.646,-530.959 331.151,-546.107 434,-507.399 454.939,-499.519 473.531,-481.49 485.411,-467.803"/>
<polygon fill="midnightblue" stroke="midnightblue" points="488.215,-469.904 491.901,-459.971 482.825,-465.438 488.215,-469.904"/>
</g>
<!-- Node7 -->
<g id="node7" class="node"><title>Node7</title>
<g id="a_node7"><a xlink:href="../../d6/d3b/race_8qc.html#a6c1a701a84cb0c5b15f45173e3038d9b" target="_top" xlink:title="race_ClearTime">
<polygon fill="none" stroke="black" points="348,-212.899 348,-231.899 434,-231.899 434,-212.899 348,-212.899"/>
<text text-anchor="middle" x="391" y="-219.899" font-family="Helvetica,sans-Serif" font-size="10.00">race_ClearTime</text>
</a>
</g>
</g>
<!-- Node6&#45;&gt;Node7 -->
<g id="edge6" class="edge"><title>Node6&#45;&gt;Node7</title>
<path fill="none" stroke="midnightblue" d="M302.212,-234.486C313.775,-232.894 326.101,-231.197 337.748,-229.593"/>
<polygon fill="midnightblue" stroke="midnightblue" points="338.345,-233.044 347.774,-228.213 337.39,-226.11 338.345,-233.044"/>
</g>
<!-- Node8 -->
<g id="node8" class="node"><title>Node8</title>
<g id="a_node8"><a xlink:href="../../d8/de2/menudefs_8qc.html#abd23315350cd01304b6bd77c4c5c07e6" target="_top" xlink:title="WriteByte">
<polygon fill="none" stroke="black" points="470,-193.899 470,-212.899 530,-212.899 530,-193.899 470,-193.899"/>
<text text-anchor="middle" x="500" y="-200.899" font-family="Helvetica,sans-Serif" font-size="10.00">WriteByte</text>
</a>
</g>
</g>
<!-- Node7&#45;&gt;Node8 -->
<g id="edge7" class="edge"><title>Node7&#45;&gt;Node8</title>
<path fill="none" stroke="midnightblue" d="M434.289,-214.89C442.761,-213.385 451.626,-211.811 459.981,-210.328"/>
<polygon fill="midnightblue" stroke="midnightblue" points="460.625,-213.768 469.859,-208.574 459.401,-206.876 460.625,-213.768"/>
</g>
<!-- Node9&#45;&gt;Node5 -->
<g id="edge10" class="edge"><title>Node9&#45;&gt;Node5</title>
<path fill="none" stroke="midnightblue" d="M286.823,-174.81C311.114,-168.121 342.965,-159.351 364.816,-153.334"/>
<polygon fill="midnightblue" stroke="midnightblue" points="365.951,-156.652 374.663,-150.622 364.092,-149.903 365.951,-156.652"/>
</g>
<!-- Node9&#45;&gt;Node8 -->
<g id="edge9" class="edge"><title>Node9&#45;&gt;Node8</title>
<path fill="none" stroke="midnightblue" d="M312.107,-189.023C357.987,-192.552 419.88,-197.313 459.623,-200.37"/>
<polygon fill="midnightblue" stroke="midnightblue" points="459.481,-203.869 469.72,-201.147 460.018,-196.89 459.481,-203.869"/>
</g>
<!-- Node10&#45;&gt;Node4 -->
<g id="edge18" class="edge"><title>Node10&#45;&gt;Node4</title>
<path fill="none" stroke="midnightblue" d="M267.001,-422.013C285.647,-433.796 318.605,-454.084 348,-469.399 351.318,-471.128 354.825,-472.859 358.341,-474.534"/>
<polygon fill="midnightblue" stroke="midnightblue" points="357.001,-477.77 367.546,-478.795 359.942,-471.418 357.001,-477.77"/>
</g>
<!-- Node10&#45;&gt;Node8 -->
<g id="edge12" class="edge"><title>Node10&#45;&gt;Node8</title>
<path fill="none" stroke="midnightblue" d="M296.961,-402.857C343.988,-392.102 413.738,-373.719 434,-355.399 473.611,-319.585 489.979,-255.537 495.966,-223.215"/>
<polygon fill="midnightblue" stroke="midnightblue" points="499.442,-223.65 497.672,-213.204 492.542,-222.474 499.442,-223.65"/>
</g>
<!-- Node11 -->
<g id="node11" class="node"><title>Node11</title>
<g id="a_node11"><a xlink:href="../../d6/d3b/race_8qc.html#a09be8f93dea17575b988e542ee34da21" target="_top" xlink:title="race_readTime">
<polygon fill="none" stroke="black" points="350.5,-440.899 350.5,-459.899 431.5,-459.899 431.5,-440.899 350.5,-440.899"/>
<text text-anchor="middle" x="391" y="-447.899" font-family="Helvetica,sans-Serif" font-size="10.00">race_readTime</text>
</a>
</g>
</g>
<!-- Node10&#45;&gt;Node11 -->
<g id="edge13" class="edge"><title>Node10&#45;&gt;Node11</title>
<path fill="none" stroke="midnightblue" d="M286.823,-421.988C304.638,-426.894 326.518,-432.919 345.539,-438.156"/>
<polygon fill="midnightblue" stroke="midnightblue" points="344.618,-441.533 355.188,-440.813 346.476,-434.784 344.618,-441.533"/>
</g>
<!-- Node11&#45;&gt;Node2 -->
<g id="edge15" class="edge"><title>Node11&#45;&gt;Node2</title>
<path fill="none" stroke="midnightblue" d="M416.824,-440.774C452.189,-427.061 517.093,-401.894 556.02,-386.8"/>
<polygon fill="midnightblue" stroke="midnightblue" points="557.735,-389.888 565.793,-383.01 555.204,-383.362 557.735,-389.888"/>
</g>
<!-- Node11&#45;&gt;Node12 -->
<g id="edge14" class="edge"><title>Node11&#45;&gt;Node12</title>
<path fill="none" stroke="midnightblue" d="M420.321,-460.003C425.261,-462.534 430.067,-465.637 434,-469.399 459.567,-493.855 447.909,-512.764 470,-540.399 472.122,-543.054 474.578,-545.62 477.146,-548.024"/>
<polygon fill="midnightblue" stroke="midnightblue" points="475.076,-550.859 484.958,-554.678 479.615,-545.53 475.076,-550.859"/>
</g>
<!-- Node11&#45;&gt;Node13 -->
<g id="edge16" class="edge"><title>Node11&#45;&gt;Node13</title>
<path fill="none" stroke="midnightblue" d="M416.682,-459.991C422.551,-462.694 428.657,-465.872 434,-469.399 452.115,-481.355 449.943,-494.104 470,-502.399 498.224,-514.072 533.554,-513.853 558.164,-511.63"/>
<polygon fill="midnightblue" stroke="midnightblue" points="558.757,-515.087 568.328,-510.543 558.013,-508.126 558.757,-515.087"/>
</g>
<!-- Node14 -->
<g id="node14" class="node"><title>Node14</title>
<g id="a_node14"><a xlink:href="../../d8/de2/menudefs_8qc.html#abbb0d86741e0056b6c04f7280c185d76" target="_top" xlink:title="ftos">
<polygon fill="none" stroke="black" points="483.5,-364.899 483.5,-383.899 516.5,-383.899 516.5,-364.899 483.5,-364.899"/>
<text text-anchor="middle" x="500" y="-371.899" font-family="Helvetica,sans-Serif" font-size="10.00">ftos</text>
</a>
</g>
</g>
<!-- Node11&#45;&gt;Node14 -->
<g id="edge17" class="edge"><title>Node11&#45;&gt;Node14</title>
<path fill="none" stroke="midnightblue" d="M416.682,-440.807C422.551,-438.104 428.657,-434.926 434,-431.399 452.115,-419.443 453.634,-412.656 470,-398.399 472.932,-395.845 476.068,-393.182 479.154,-390.598"/>
<polygon fill="midnightblue" stroke="midnightblue" points="481.563,-393.147 487.034,-384.074 477.099,-387.755 481.563,-393.147"/>
</g>
<!-- Node15&#45;&gt;Node8 -->
<g id="edge20" class="edge"><title>Node15&#45;&gt;Node8</title>
<path fill="none" stroke="midnightblue" d="M291.913,-98.8145C338.054,-88.6638 410.651,-75.8342 434,-89.3991 469.148,-109.818 486.876,-157.149 494.393,-183.961"/>
<polygon fill="midnightblue" stroke="midnightblue" points="491.035,-184.953 496.938,-193.751 497.81,-183.192 491.035,-184.953"/>
</g>
<!-- Node16 -->
<g id="node16" class="node"><title>Node16</title>
<g id="a_node16"><a xlink:href="../../d8/de2/menudefs_8qc.html#ad5a3e16aa960bd72d3ca37a618eea802" target="_top" xlink:title="floor">
<polygon fill="none" stroke="black" points="373.5,-22.8991 373.5,-41.8991 408.5,-41.8991 408.5,-22.8991 373.5,-22.8991"/>
<text text-anchor="middle" x="391" y="-29.8991" font-family="Helvetica,sans-Serif" font-size="10.00">floor</text>
</a>
</g>
</g>
<!-- Node15&#45;&gt;Node16 -->
<g id="edge21" class="edge"><title>Node15&#45;&gt;Node16</title>
<path fill="none" stroke="midnightblue" d="M288.561,-98.8354C296.553,-96.0354 304.776,-92.5759 312,-88.3991 330.533,-77.6844 330.613,-68.8879 348,-56.3991 353.069,-52.7582 358.734,-49.2088 364.222,-46.0045"/>
<polygon fill="midnightblue" stroke="midnightblue" points="366.153,-48.9342 373.155,-40.9825 362.722,-42.8324 366.153,-48.9342"/>
</g>
<!-- Node17 -->
<g id="node17" class="node"><title>Node17</title>
<g id="a_node17"><a xlink:href="../../d8/de2/menudefs_8qc.html#a44e0d1ac6d9e4b633d85ad82f408f516" target="_top" xlink:title="WriteString">
<polygon fill="none" stroke="black" points="358.5,-98.8991 358.5,-117.899 423.5,-117.899 423.5,-98.8991 358.5,-98.8991"/>
<text text-anchor="middle" x="391" y="-105.899" font-family="Helvetica,sans-Serif" font-size="10.00">WriteString</text>
</a>
</g>
</g>
<!-- Node15&#45;&gt;Node17 -->
<g id="edge22" class="edge"><title>Node15&#45;&gt;Node17</title>
<path fill="none" stroke="midnightblue" d="M310.524,-108.399C323.251,-108.399 336.465,-108.399 348.379,-108.399"/>
<polygon fill="midnightblue" stroke="midnightblue" points="348.47,-111.899 358.47,-108.399 348.47,-104.899 348.47,-111.899"/>
</g>
<!-- Node18&#45;&gt;Node8 -->
<g id="edge24" class="edge"><title>Node18&#45;&gt;Node8</title>
<path fill="none" stroke="midnightblue" d="M291.67,-49.3971C298.58,-46.3554 305.599,-42.9808 312,-39.3991 329.224,-29.7618 329.221,-19.4714 348,-13.3991 384.368,-1.63931 402.905,8.82757 434,-13.3991 489.62,-53.1557 498.169,-143.495 499.125,-183.592"/>
<polygon fill="midnightblue" stroke="midnightblue" points="495.626,-183.729 499.225,-193.694 502.625,-183.659 495.626,-183.729"/>
</g>
<!-- Node18&#45;&gt;Node16 -->
<g id="edge25" class="edge"><title>Node18&#45;&gt;Node16</title>
<path fill="none" stroke="midnightblue" d="M310.524,-50.8282C328.849,-46.579 348.184,-42.0956 363.194,-38.615"/>
<polygon fill="midnightblue" stroke="midnightblue" points="364.332,-41.944 373.283,-36.2755 362.751,-35.1249 364.332,-41.944"/>
</g>
<!-- Node18&#45;&gt;Node17 -->
<g id="edge26" class="edge"><title>Node18&#45;&gt;Node17</title>
<path fill="none" stroke="midnightblue" d="M299.106,-79.4184C315.788,-84.7374 334.376,-90.6638 350.373,-95.7645"/>
<polygon fill="midnightblue" stroke="midnightblue" points="349.368,-99.1176 359.959,-98.8208 351.495,-92.4484 349.368,-99.1176"/>
</g>
<!-- Node19&#45;&gt;Node4 -->
<g id="edge39" class="edge"><title>Node19&#45;&gt;Node4</title>
<path fill="none" stroke="midnightblue" d="M264.807,-346.185C277.948,-356.728 298.349,-374.546 312,-393.399 333.92,-423.672 321.341,-443.203 348,-469.399 349.456,-470.829 351.038,-472.163 352.707,-473.406"/>
<polygon fill="midnightblue" stroke="midnightblue" points="351.246,-476.616 361.596,-478.88 354.917,-470.656 351.246,-476.616"/>
</g>
<!-- Node19&#45;&gt;Node8 -->
<g id="edge28" class="edge"><title>Node19&#45;&gt;Node8</title>
<path fill="none" stroke="midnightblue" d="M271.023,-326.848C304.317,-310.049 375.202,-273.908 434,-241.399 447.492,-233.94 462.348,-225.288 474.448,-218.126"/>
<polygon fill="midnightblue" stroke="midnightblue" points="476.289,-221.104 483.095,-212.984 472.711,-215.087 476.289,-221.104"/>
</g>
<!-- Node19&#45;&gt;Node11 -->
<g id="edge40" class="edge"><title>Node19&#45;&gt;Node11</title>
<path fill="none" stroke="midnightblue" d="M262.349,-345.92C274.434,-357.109 294.944,-376.319 312,-393.399 328.439,-409.861 329.047,-417.908 348,-431.399 350.384,-433.096 352.943,-434.696 355.58,-436.192"/>
<polygon fill="midnightblue" stroke="midnightblue" points="354.202,-439.418 364.697,-440.866 357.396,-433.189 354.202,-439.418"/>
</g>
<!-- Node19&#45;&gt;Node17 -->
<g id="edge30" class="edge"><title>Node19&#45;&gt;Node17</title>
<path fill="none" stroke="midnightblue" d="M262.019,-326.515C275.327,-312.838 298.698,-286.827 312,-260.399 339.533,-205.699 308.308,-174.033 348,-127.399 349.005,-126.218 350.098,-125.107 351.261,-124.063"/>
<polygon fill="midnightblue" stroke="midnightblue" points="353.582,-126.709 359.738,-118.086 349.548,-120.988 353.582,-126.709"/>
</g>
<!-- Node20 -->
<g id="node20" class="node"><title>Node20</title>
<g id="a_node20"><a xlink:href="../../d8/de2/menudefs_8qc.html#a7bb594d808e357274edee331b5ed2d35" target="_top" xlink:title="WriteShort">
<polygon fill="none" stroke="black" points="359.5,-326.899 359.5,-345.899 422.5,-345.899 422.5,-326.899 359.5,-326.899"/>
<text text-anchor="middle" x="391" y="-333.899" font-family="Helvetica,sans-Serif" font-size="10.00">WriteShort</text>
</a>
</g>
</g>
<!-- Node19&#45;&gt;Node20 -->
<g id="edge29" class="edge"><title>Node19&#45;&gt;Node20</title>
<path fill="none" stroke="midnightblue" d="M303.386,-336.399C318.556,-336.399 334.942,-336.399 349.337,-336.399"/>
<polygon fill="midnightblue" stroke="midnightblue" points="349.422,-339.899 359.421,-336.399 349.421,-332.899 349.422,-339.899"/>
</g>
<!-- Node21 -->
<g id="node21" class="node"><title>Node21</title>
<g id="a_node21"><a xlink:href="../../d6/d3b/race_8qc.html#a877adb9000854ec90f29ac4f39431939" target="_top" xlink:title="race_readName">
<polygon fill="none" stroke="black" points="348,-402.899 348,-421.899 434,-421.899 434,-402.899 348,-402.899"/>
<text text-anchor="middle" x="391" y="-409.899" font-family="Helvetica,sans-Serif" font-size="10.00">race_readName</text>
</a>
</g>
</g>
<!-- Node19&#45;&gt;Node21 -->
<g id="edge31" class="edge"><title>Node19&#45;&gt;Node21</title>
<path fill="none" stroke="midnightblue" d="M269.478,-346.025C293.223,-359.102 335.882,-382.595 363.556,-397.836"/>
<polygon fill="midnightblue" stroke="midnightblue" points="362.216,-401.094 372.664,-402.852 365.593,-394.962 362.216,-401.094"/>
</g>
<!-- Node21&#45;&gt;Node2 -->
<g id="edge36" class="edge"><title>Node21&#45;&gt;Node2</title>
<path fill="none" stroke="midnightblue" d="M410.955,-402.742C418.373,-398.664 426.81,-393.648 434,-388.399 451.531,-375.602 449.771,-363.268 470,-355.399 498.554,-344.292 533.425,-352.318 557.827,-361.102"/>
<polygon fill="midnightblue" stroke="midnightblue" points="556.683,-364.412 567.273,-364.727 559.191,-357.876 556.683,-364.412"/>
</g>
<!-- Node21&#45;&gt;Node13 -->
<g id="edge37" class="edge"><title>Node21&#45;&gt;Node13</title>
<path fill="none" stroke="midnightblue" d="M417.303,-421.932C423.029,-424.601 428.914,-427.779 434,-431.399 452.953,-444.891 450.314,-457.002 470,-469.399 497.409,-486.659 533.374,-496.758 558.361,-502.151"/>
<polygon fill="midnightblue" stroke="midnightblue" points="557.844,-505.618 568.341,-504.181 559.24,-498.758 557.844,-505.618"/>
</g>
<!-- Node21&#45;&gt;Node14 -->
<g id="edge38" class="edge"><title>Node21&#45;&gt;Node14</title>
<path fill="none" stroke="midnightblue" d="M419.001,-402.81C435.817,-396.838 457.306,-389.206 473.777,-383.357"/>
<polygon fill="midnightblue" stroke="midnightblue" points="475.046,-386.62 483.298,-379.976 472.703,-380.024 475.046,-386.62"/>
</g>
<!-- Node21&#45;&gt;Node22 -->
<g id="edge32" class="edge"><title>Node21&#45;&gt;Node22</title>
<path fill="none" stroke="midnightblue" d="M419.001,-421.988C432.18,-426.669 448.229,-432.368 462.484,-437.431"/>
<polygon fill="midnightblue" stroke="midnightblue" points="461.413,-440.765 472.008,-440.813 463.756,-434.168 461.413,-440.765"/>
</g>
<!-- Node22&#45;&gt;Node2 -->
<g id="edge33" class="edge"><title>Node22&#45;&gt;Node2</title>
<path fill="none" stroke="midnightblue" d="M512.941,-440.696C518.211,-436.367 524.455,-431.176 530,-426.399 543.522,-414.75 558.515,-401.293 569.87,-390.987"/>
<polygon fill="midnightblue" stroke="midnightblue" points="572.385,-393.431 577.422,-384.111 567.672,-388.256 572.385,-393.431"/>
</g>
<!-- Node22&#45;&gt;Node13 -->
<g id="edge35" class="edge"><title>Node22&#45;&gt;Node13</title>
<path fill="none" stroke="midnightblue" d="M515.758,-460.068C529.213,-468.883 549.307,-482.049 564.89,-492.258"/>
<polygon fill="midnightblue" stroke="midnightblue" points="563.177,-495.32 573.46,-497.873 567.013,-489.465 563.177,-495.32"/>
</g>
<!-- Node23 -->
<g id="node23" class="node"><title>Node23</title>
<g id="a_node23"><a xlink:href="../../d4/d54/map_8qh.html#ac189c2086b07ba1ebaf3e630390ae0af" target="_top" xlink:title="db_put">
<polygon fill="none" stroke="black" points="566,-440.899 566,-459.899 612,-459.899 612,-440.899 566,-440.899"/>
<text text-anchor="middle" x="589" y="-447.899" font-family="Helvetica,sans-Serif" font-size="10.00">db_put</text>
</a>
</g>
</g>
<!-- Node22&#45;&gt;Node23 -->
<g id="edge34" class="edge"><title>Node22&#45;&gt;Node23</title>
<path fill="none" stroke="midnightblue" d="M529.97,-450.399C538.172,-450.399 547.153,-450.399 555.547,-450.399"/>
<polygon fill="midnightblue" stroke="midnightblue" points="555.761,-453.899 565.761,-450.399 555.761,-446.899 555.761,-453.899"/>
</g>
</g>
</svg>
        <g id="navigator" transform="translate(0 0)" fill="#404254">
                <rect fill="#f2f5e9" fill-opacity="0.5" stroke="#606060" stroke-width=".5" x="0" y="0" width="60" height="60"/>
                <use id="zoomplus" xlink:href="#zoomPlus" x="17" y="9" onmousedown="handleZoom(evt,'in')"/>
                <use id="zoomminus" xlink:href="#zoomMin" x="42" y="9" onmousedown="handleZoom(evt,'out')"/>
                <use id="reset" xlink:href="#resetDef" x="30" y="36" onmousedown="handleReset()"/>
                <g id="arrowUp" xlink:href="#dirArrow" transform="translate(30 24)" onmousedown="handlePan(0,-1)">
                  <use xlink:href="#rim" fill="#404040">
                        <set attributeName="fill" to="#808080" begin="arrowUp.mouseover" end="arrowUp.mouseout"/>
                  </use>
                  <path fill="none" stroke="white" stroke-width="1.5" d="M0,-3.0v7 M-2.5,-0.5L0,-3.0L2.5,-0.5"/>
                </g>
                <g id="arrowRight" xlink:href="#dirArrow" transform="rotate(90) translate(36 -43)" onmousedown="handlePan(1,0)">
                  <use xlink:href="#rim" fill="#404040">
                        <set attributeName="fill" to="#808080" begin="arrowRight.mouseover" end="arrowRight.mouseout"/>
                  </use>
                  <path fill="none" stroke="white" stroke-width="1.5" d="M0,-3.0v7 M-2.5,-0.5L0,-3.0L2.5,-0.5"/>
                </g>
                <g id="arrowDown" xlink:href="#dirArrow" transform="rotate(180) translate(-30 -48)" onmousedown="handlePan(0,1)">
                  <use xlink:href="#rim" fill="#404040">
                        <set attributeName="fill" to="#808080" begin="arrowDown.mouseover" end="arrowDown.mouseout"/>
                  </use>
                  <path fill="none" stroke="white" stroke-width="1.5" d="M0,-3.0v7 M-2.5,-0.5L0,-3.0L2.5,-0.5"/>
                </g>
                <g id="arrowLeft" xlink:href="#dirArrow" transform="rotate(270) translate(-36 17)" onmousedown="handlePan(-1,0)">
                  <use xlink:href="#rim" fill="#404040">
                        <set attributeName="fill" to="#808080" begin="arrowLeft.mouseover" end="arrowLeft.mouseout"/>
                  </use>
                  <path fill="none" stroke="white" stroke-width="1.5" d="M0,-3.0v7 M-2.5,-0.5L0,-3.0L2.5,-0.5"/>
                </g>
        </g>
        <svg viewBox="0 0 15 15" width="100%" height="30px" preserveAspectRatio="xMaxYMin meet">
         <g id="arrow_out" transform="scale(0.3 0.3)">
          <a xlink:href="sv__cts_8qc_a3ac72324ed619c6db0947c5757caa66c_cgraph_org.svg" target="_base">
           <rect id="button" ry="5" rx="5" y="6" x="6" height="38" width="38"
                fill="#f2f5e9" fill-opacity="0.5" stroke="#606060" stroke-width="1.0"/>
           <path id="arrow"
             d="M 11.500037,31.436501 C 11.940474,20.09759 22.043105,11.32322 32.158766,21.979434 L 37.068811,17.246167 C 37.068811,17.246167 37.088388,32 37.088388,32 L 22.160133,31.978069 C 22.160133,31.978069 26.997745,27.140456 26.997745,27.140456 C 18.528582,18.264221 13.291696,25.230495 11.500037,31.436501 z"
             style="fill:#404040;"/>
          </a>
         </g>
        </svg>
</svg>
