<?xml version="1.0" encoding="UTF-8" standalone="no"?>
<!DOCTYPE svg PUBLIC "-//W3C//DTD SVG 1.1//EN"
 "http://www.w3.org/Graphics/SVG/1.1/DTD/svg11.dtd">
<!-- Generated by graphviz version 2.36.0 (20140111.2315)
 -->
<!-- Title: rgb_to_hsv Pages: 1 -->
<svg width="210pt" height="104pt"
 viewBox="0.00 0.00 210.00 104.00" xmlns="http://www.w3.org/2000/svg" xmlns:xlink="http://www.w3.org/1999/xlink">
<g id="graph0" class="graph" transform="scale(1 1) rotate(0) translate(4 100)">
<title>rgb_to_hsv</title>
<!-- Node1 -->
<g id="node1" class="node"><title>Node1</title>
<polygon fill="#bfbfbf" stroke="black" points="0.5,-38.5 0.5,-57.5 65.5,-57.5 65.5,-38.5 0.5,-38.5"/>
<text text-anchor="middle" x="33" y="-45.5" font-family="Helvetica,sans-Serif" font-size="10.00">rgb_to_hsv</text>
</g>
<!-- Node2 -->
<g id="node2" class="node"><title>Node2</title>
<g id="a_node2"><a xlink:href="../../d8/de2/menudefs_8qc.html#aebeeec7a2529f36483e14f76b1871271" target="_top" xlink:title="max">
<polygon fill="none" stroke="black" points="134.5,-76.5 134.5,-95.5 169.5,-95.5 169.5,-76.5 134.5,-76.5"/>
<text text-anchor="middle" x="152" y="-83.5" font-family="Helvetica,sans-Serif" font-size="10.00">max</text>
</a>
</g>
</g>
<!-- Node1&#45;&gt;Node2 -->
<g id="edge1" class="edge"><title>Node1&#45;&gt;Node2</title>
<path fill="none" stroke="midnightblue" d="M63.524,-57.589C82.2858,-63.6826 106.367,-71.5039 124.512,-77.3971"/>
<polygon fill="midnightblue" stroke="midnightblue" points="123.575,-80.7725 134.167,-80.5328 125.737,-74.1149 123.575,-80.7725"/>
</g>
<!-- Node3 -->
<g id="node3" class="node"><title>Node3</title>
<g id="a_node3"><a xlink:href="../../d8/de2/menudefs_8qc.html#ab2ad6bdb33b4334fec83db0418cf72df" target="_top" xlink:title="min">
<polygon fill="none" stroke="black" points="136,-38.5 136,-57.5 168,-57.5 168,-38.5 136,-38.5"/>
<text text-anchor="middle" x="152" y="-45.5" font-family="Helvetica,sans-Serif" font-size="10.00">min</text>
</a>
</g>
</g>
<!-- Node1&#45;&gt;Node3 -->
<g id="edge2" class="edge"><title>Node1&#45;&gt;Node3</title>
<path fill="none" stroke="midnightblue" d="M65.6619,-48C84.4927,-48 108.06,-48 125.655,-48"/>
<polygon fill="midnightblue" stroke="midnightblue" points="125.742,-51.5001 135.742,-48 125.742,-44.5001 125.742,-51.5001"/>
</g>
<!-- Node4 -->
<g id="node4" class="node"><title>Node4</title>
<g id="a_node4"><a xlink:href="../../de/d11/color_8qh.html#ad8ed2a7d3727edebd60c08c645e4ce9a" target="_top" xlink:title="rgb_mi_ma_to_hue">
<polygon fill="none" stroke="black" points="102.5,-0.5 102.5,-19.5 201.5,-19.5 201.5,-0.5 102.5,-0.5"/>
<text text-anchor="middle" x="152" y="-7.5" font-family="Helvetica,sans-Serif" font-size="10.00">rgb_mi_ma_to_hue</text>
</a>
</g>
</g>
<!-- Node1&#45;&gt;Node4 -->
<g id="edge3" class="edge"><title>Node1&#45;&gt;Node4</title>
<path fill="none" stroke="midnightblue" d="M63.524,-38.411C78.2119,-33.6406 96.1601,-27.8112 111.968,-22.6771"/>
<polygon fill="midnightblue" stroke="midnightblue" points="113.056,-26.0039 121.485,-19.5859 110.893,-19.3462 113.056,-26.0039"/>
</g>
</g>
</svg>
