<?xml version="1.0" encoding="UTF-8" standalone="no"?>
<!DOCTYPE svg PUBLIC "-//W3C//DTD SVG 1.1//EN"
 "http://www.w3.org/Graphics/SVG/1.1/DTD/svg11.dtd">
<!-- Generated by graphviz version 2.40.1 (20161225.0304)
 -->
<!-- Title: rgb_to_hsl Pages: 1 -->
<svg width="375pt" height="39pt"
 viewBox="0.00 0.00 375.00 39.00" xmlns="http://www.w3.org/2000/svg" xmlns:xlink="http://www.w3.org/1999/xlink">
<g id="graph0" class="graph" transform="scale(1 1) rotate(0) translate(4 35)">
<title>rgb_to_hsl</title>
<!-- Node52 -->
<g id="node1" class="node">
<title>Node52</title>
<polygon fill="#bfbfbf" stroke="#000000" points="0,-6 0,-25 67,-25 67,-6 0,-6"/>
<text text-anchor="middle" x="33.5" y="-13" font-family="Helvetica,sans-Serif" font-size="10.00" fill="#000000">rgb_to_hsl</text>
</g>
<!-- Node53 -->
<g id="node2" class="node">
<title>Node53</title>
<g id="a_node2"><a xlink:href="../../d8/dcc/colorpicker_8qh.html#ad991d24e2da3f4a463e3b4236b8e3b92" target="_top" xlink:title="color_hslimage">
<polygon fill="none" stroke="#000000" points="103,-6 103,-25 194,-25 194,-6 103,-6"/>
<text text-anchor="middle" x="148.5" y="-13" font-family="Helvetica,sans-Serif" font-size="10.00" fill="#000000">color_hslimage</text>
</a>
</g>
</g>
<!-- Node52&#45;&gt;Node53 -->
<g id="edge1" class="edge">
<title>Node52&#45;&gt;Node53</title>
<path fill="none" stroke="#191970" d="M77.3206,-15.5C85.6269,-15.5 94.3375,-15.5 102.703,-15.5"/>
<polygon fill="#191970" stroke="#191970" points="77.0719,-12.0001 67.0719,-15.5 77.0719,-19.0001 77.0719,-12.0001"/>
</g>
<!-- Node54 -->
<g id="node3" class="node">
<title>Node54</title>
<g id="a_node3"><a xlink:href="../../db/df7/colorpicker__string_8qc.html#a52448411886373146acf4ced2fda7793" target="_top" xlink:title="XonoticColorpickerString\l_loadCvars">
<polygon fill="none" stroke="#000000" points="230,-.5 230,-30.5 367,-30.5 367,-.5 230,-.5"/>
<text text-anchor="start" x="238" y="-18.5" font-family="Helvetica,sans-Serif" font-size="10.00" fill="#000000">XonoticColorpickerString</text>
<text text-anchor="middle" x="298.5" y="-7.5" font-family="Helvetica,sans-Serif" font-size="10.00" fill="#000000">_loadCvars</text>
</a>
</g>
</g>
<!-- Node53&#45;&gt;Node54 -->
<g id="edge2" class="edge">
<title>Node53&#45;&gt;Node54</title>
<path fill="none" stroke="#191970" d="M204.5347,-15.5C212.7623,-15.5 221.3158,-15.5 229.7626,-15.5"/>
<polygon fill="#191970" stroke="#191970" points="204.32,-12.0001 194.32,-15.5 204.32,-19.0001 204.32,-12.0001"/>
</g>
</g>
</svg>
