<?xml version="1.0" encoding="UTF-8" standalone="no"?>
<!DOCTYPE svg PUBLIC "-//W3C//DTD SVG 1.1//EN"
 "http://www.w3.org/Graphics/SVG/1.1/DTD/svg11.dtd">
<!-- Generated by graphviz version 2.36.0 (20140111.2315)
 -->
<!-- Title: makeTeamButton Pages: 1 -->
<svg width="532pt" height="47pt"
 viewBox="0.00 0.00 532.00 47.00" xmlns="http://www.w3.org/2000/svg" xmlns:xlink="http://www.w3.org/1999/xlink">
<g id="graph0" class="graph" transform="scale(1 1) rotate(0) translate(4 43)">
<title>makeTeamButton</title>
<!-- Node1 -->
<g id="node1" class="node"><title>Node1</title>
<polygon fill="#bfbfbf" stroke="black" points="0,-19.5 0,-38.5 94,-38.5 94,-19.5 0,-19.5"/>
<text text-anchor="middle" x="47" y="-26.5" font-family="Helvetica,sans-Serif" font-size="10.00">makeTeamButton</text>
</g>
<!-- Node2 -->
<g id="node2" class="node"><title>Node2</title>
<g id="a_node2"><a xlink:href="../../d6/d30/dialog__teamselect_8qc.html#a4131cee70165ea73d71de76b0f544a73" target="_top" xlink:title="makeTeamButton_T">
<polygon fill="none" stroke="black" points="130.5,-19.5 130.5,-38.5 235.5,-38.5 235.5,-19.5 130.5,-19.5"/>
<text text-anchor="middle" x="183" y="-26.5" font-family="Helvetica,sans-Serif" font-size="10.00">makeTeamButton_T</text>
</a>
</g>
</g>
<!-- Node1&#45;&gt;Node2 -->
<g id="edge1" class="edge"><title>Node1&#45;&gt;Node2</title>
<path fill="none" stroke="midnightblue" d="M94.1152,-29C102.495,-29 111.359,-29 120.106,-29"/>
<polygon fill="midnightblue" stroke="midnightblue" points="120.285,-32.5001 130.285,-29 120.285,-25.5001 120.285,-32.5001"/>
</g>
<!-- Node3 -->
<g id="node3" class="node"><title>Node3</title>
<g id="a_node3"><a xlink:href="../../d5/df2/common_2util_8qh.html#ac5ad73cc4800e309d3b5a9147d1ce43f" target="_top" xlink:title="entity">
<polygon fill="none" stroke="black" points="482.5,-19.5 482.5,-38.5 523.5,-38.5 523.5,-19.5 482.5,-19.5"/>
<text text-anchor="middle" x="503" y="-26.5" font-family="Helvetica,sans-Serif" font-size="10.00">entity</text>
</a>
</g>
</g>
<!-- Node2&#45;&gt;Node3 -->
<g id="edge2" class="edge"><title>Node2&#45;&gt;Node3</title>
<path fill="none" stroke="midnightblue" d="M235.8,-29C302.978,-29 417.943,-29 472.107,-29"/>
<polygon fill="midnightblue" stroke="midnightblue" points="472.4,-32.5001 482.4,-29 472.4,-25.5001 472.4,-32.5001"/>
</g>
<!-- Node4 -->
<g id="node4" class="node"><title>Node4</title>
<g id="a_node4"><a xlink:href="../../d7/d0d/bigcommandbutton_8qc.html#a3585c81eab0e3c921741fd4edcec39c9" target="_top" xlink:title="makeXonoticBigCommandButton_T">
<polygon fill="none" stroke="black" points="272.5,-0.5 272.5,-19.5 445.5,-19.5 445.5,-0.5 272.5,-0.5"/>
<text text-anchor="middle" x="359" y="-7.5" font-family="Helvetica,sans-Serif" font-size="10.00">makeXonoticBigCommandButton_T</text>
</a>
</g>
</g>
<!-- Node2&#45;&gt;Node4 -->
<g id="edge3" class="edge"><title>Node2&#45;&gt;Node4</title>
<path fill="none" stroke="midnightblue" d="M235.735,-23.3508C244.105,-22.4368 252.999,-21.4656 262.024,-20.4801"/>
<polygon fill="midnightblue" stroke="midnightblue" points="262.687,-23.9287 272.247,-19.3638 261.927,-16.97 262.687,-23.9287"/>
</g>
<!-- Node4&#45;&gt;Node3 -->
<g id="edge4" class="edge"><title>Node4&#45;&gt;Node3</title>
<path fill="none" stroke="midnightblue" d="M431.416,-19.5557C445.799,-21.4801 460.158,-23.4015 472.135,-25.0039"/>
<polygon fill="midnightblue" stroke="midnightblue" points="472.019,-28.5196 482.395,-26.3768 472.948,-21.5815 472.019,-28.5196"/>
</g>
</g>
</svg>
