<?xml version="1.0" encoding="UTF-8" standalone="no"?>
<!DOCTYPE svg PUBLIC "-//W3C//DTD SVG 1.1//EN"
 "http://www.w3.org/Graphics/SVG/1.1/DTD/svg11.dtd">
<!-- Generated by graphviz version 2.38.0 (20140413.2041)
 -->
<!-- Title: draw_PictureSize Pages: 1 -->
<!--zoomable 456 -->
<svg id="main" version="1.1" xmlns="http://www.w3.org/2000/svg" xmlns:xlink="http://www.w3.org/1999/xlink" xml:space="preserve" onload="init(evt)">
<style type="text/css"><![CDATA[
.edge:hover path { stroke: red; }
.edge:hover polygon { stroke: red; fill: red; }
]]></style>
<script type="text/javascript"><![CDATA[
var edges = document.getElementsByTagName('g');
if (edges && edges.length) {
  for (var i=0;i<edges.length;i++) {
    if (edges[i].id.substr(0,4)=='edge') {
      edges[i].setAttribute('class','edge');
    }
  }
}
]]></script>
        <defs>
                <circle id="rim" cx="0" cy="0" r="7"/>
                <circle id="rim2" cx="0" cy="0" r="3.5"/>
                <g id="zoomPlus">
                        <use xlink:href="#rim" fill="#404040">
                                <set attributeName="fill" to="#808080" begin="zoomplus.mouseover" end="zoomplus.mouseout"/>
                        </use>
                        <path d="M-4,0h8M0,-4v8" fill="none" stroke="white" stroke-width="1.5" pointer-events="none"/>
                </g>
                <g id="zoomMin">
                        <use xlink:href="#rim" fill="#404040">
                                <set attributeName="fill" to="#808080" begin="zoomminus.mouseover" end="zoomminus.mouseout"/>
                        </use>
                        <path d="M-4,0h8" fill="none" stroke="white" stroke-width="1.5" pointer-events="none"/>
                </g>
                <g id="dirArrow">
                        <path fill="none" stroke="white" stroke-width="1.5" d="M0,-3.0v7 M-2.5,-0.5L0,-3.0L2.5,-0.5"/>
                </g>
               <g id="resetDef">
                       <use xlink:href="#rim2" fill="#404040">
                               <set attributeName="fill" to="#808080" begin="reset.mouseover" end="reset.mouseout"/>
                       </use>
               </g>
        </defs>

<script type="text/javascript">
var viewWidth = 537;
var viewHeight = 456;
var sectionId = 'dynsection-23';
</script>
<script xlink:href="../../svgpan.js"/>
<svg id="graph" class="graph">
<g id="viewport">
<title>draw_PictureSize</title>
<!-- Node1 -->
<g id="node1" class="node"><title>Node1</title>
<polygon fill="#bfbfbf" stroke="black" points="0,-214.5 0,-233.5 98,-233.5 98,-214.5 0,-214.5"/>
<text text-anchor="middle" x="49" y="-221.5" font-family="Helvetica,sans-Serif" font-size="10.00">draw_PictureSize</text>
</g>
<!-- Node2 -->
<g id="node2" class="node"><title>Node2</title>
<g id="a_node2"><a xlink:href="../../df/dc2/menu_8qc.html#aacf8d50c65c5bd72b4bfe16ebe41af76" target="_top" xlink:title="draw_Picture_Aligned">
<polygon fill="none" stroke="black" points="161.5,-428.5 161.5,-447.5 279.5,-447.5 279.5,-428.5 161.5,-428.5"/>
<text text-anchor="middle" x="220.5" y="-435.5" font-family="Helvetica,sans-Serif" font-size="10.00">draw_Picture_Aligned</text>
</a>
</g>
</g>
<!-- Node1&#45;&gt;Node2 -->
<g id="edge1" class="edge"><title>Node1&#45;&gt;Node2</title>
<path fill="none" stroke="midnightblue" d="M52.4978,-243.46C58.6498,-283.007 78.3116,-372.911 134,-419 141.849,-425.496 151.445,-429.893 161.338,-432.845"/>
<polygon fill="midnightblue" stroke="midnightblue" points="55.956,-242.919 51.0755,-233.515 49.0265,-243.91 55.956,-242.919"/>
</g>
<!-- Node5 -->
<g id="node5" class="node"><title>Node5</title>
<g id="a_node5"><a xlink:href="../../d9/dd9/item_2image_8qc.html#aa680b33955ecee311854fa8c624e10f1" target="_top" xlink:title="Image_updateAspect">
<polygon fill="none" stroke="black" points="161,-390.5 161,-409.5 280,-409.5 280,-390.5 161,-390.5"/>
<text text-anchor="middle" x="220.5" y="-397.5" font-family="Helvetica,sans-Serif" font-size="10.00">Image_updateAspect</text>
</a>
</g>
</g>
<!-- Node1&#45;&gt;Node5 -->
<g id="edge4" class="edge"><title>Node1&#45;&gt;Node5</title>
<path fill="none" stroke="midnightblue" d="M54.7331,-243.551C63.9343,-277.178 87.5371,-345.745 134,-381 141.874,-386.974 151.261,-391.14 160.886,-394.03"/>
<polygon fill="midnightblue" stroke="midnightblue" points="58.0475,-242.388 52.1525,-233.585 51.271,-244.143 58.0475,-242.388"/>
</g>
<!-- Node6 -->
<g id="node6" class="node"><title>Node6</title>
<g id="a_node6"><a xlink:href="../../d3/d69/menu_2xonotic_2campaign_8qc.html#ac98698d95b8f7aa84664179566f957fb" target="_top" xlink:title="XonoticCampaignList\l_drawListBoxItem">
<polygon fill="none" stroke="black" points="162,-341 162,-371 279,-371 279,-341 162,-341"/>
<text text-anchor="start" x="170" y="-359" font-family="Helvetica,sans-Serif" font-size="10.00">XonoticCampaignList</text>
<text text-anchor="middle" x="220.5" y="-348" font-family="Helvetica,sans-Serif" font-size="10.00">_drawListBoxItem</text>
</a>
</g>
</g>
<!-- Node1&#45;&gt;Node6 -->
<g id="edge5" class="edge"><title>Node1&#45;&gt;Node6</title>
<path fill="none" stroke="midnightblue" d="M59.6487,-242.442C73.1152,-266.389 99.7888,-307.852 134,-331 142.326,-336.633 151.936,-341.018 161.641,-344.424"/>
<polygon fill="midnightblue" stroke="midnightblue" points="62.7078,-240.741 54.8495,-233.635 56.5612,-244.09 62.7078,-240.741"/>
</g>
<!-- Node7 -->
<g id="node7" class="node"><title>Node7</title>
<g id="a_node7"><a xlink:href="../../db/df7/colorpicker__string_8qc.html#a674519a2325794456afd27a6c198d271" target="_top" xlink:title="XonoticColorpickerString_draw">
<polygon fill="none" stroke="black" points="140,-302.5 140,-321.5 301,-321.5 301,-302.5 140,-302.5"/>
<text text-anchor="middle" x="220.5" y="-309.5" font-family="Helvetica,sans-Serif" font-size="10.00">XonoticColorpickerString_draw</text>
</a>
</g>
</g>
<!-- Node1&#45;&gt;Node7 -->
<g id="edge6" class="edge"><title>Node1&#45;&gt;Node7</title>
<path fill="none" stroke="midnightblue" d="M66.1134,-241.251C81.9044,-257.106 107.414,-280.053 134,-293 141.929,-296.861 150.654,-299.948 159.407,-302.413"/>
<polygon fill="midnightblue" stroke="midnightblue" points="68.2616,-238.438 58.7873,-233.696 63.2364,-243.311 68.2616,-238.438"/>
</g>
<!-- Node8 -->
<g id="node8" class="node"><title>Node8</title>
<g id="a_node8"><a xlink:href="../../d6/dea/crosshairpicker_8qc.html#a5c221b96cde768a1ba2bb5c09a80ca01" target="_top" xlink:title="XonoticCrosshairPicker\l_cellDraw">
<polygon fill="none" stroke="black" points="158,-253 158,-283 283,-283 283,-253 158,-253"/>
<text text-anchor="start" x="166" y="-271" font-family="Helvetica,sans-Serif" font-size="10.00">XonoticCrosshairPicker</text>
<text text-anchor="middle" x="220.5" y="-260" font-family="Helvetica,sans-Serif" font-size="10.00">_cellDraw</text>
</a>
</g>
</g>
<!-- Node1&#45;&gt;Node8 -->
<g id="edge7" class="edge"><title>Node1&#45;&gt;Node8</title>
<path fill="none" stroke="midnightblue" d="M96.6024,-236.097C116.65,-241.301 140.295,-247.439 161.464,-252.935"/>
<polygon fill="midnightblue" stroke="midnightblue" points="97.3376,-232.672 86.779,-233.547 95.5787,-239.448 97.3376,-232.672"/>
</g>
<!-- Node9 -->
<g id="node9" class="node"><title>Node9</title>
<g id="a_node9"><a xlink:href="../../dd/dcc/crosshairpreview_8qc.html#a15e369c6fcf0ac87df51eb257c2823da" target="_top" xlink:title="XonoticCrosshairPreview_draw">
<polygon fill="none" stroke="black" points="140,-214.5 140,-233.5 301,-233.5 301,-214.5 140,-214.5"/>
<text text-anchor="middle" x="220.5" y="-221.5" font-family="Helvetica,sans-Serif" font-size="10.00">XonoticCrosshairPreview_draw</text>
</a>
</g>
</g>
<!-- Node1&#45;&gt;Node9 -->
<g id="edge8" class="edge"><title>Node1&#45;&gt;Node9</title>
<path fill="none" stroke="midnightblue" d="M108.124,-224C118.346,-224 129.144,-224 139.833,-224"/>
<polygon fill="midnightblue" stroke="midnightblue" points="108.119,-220.5 98.1185,-224 108.118,-227.5 108.119,-220.5"/>
</g>
<!-- Node10 -->
<g id="node10" class="node"><title>Node10</title>
<g id="a_node10"><a xlink:href="../../df/d7d/dialog__multiplayer__create__mapinfo_8qc.html#a81b771e7581da0653ae9997c03b7d3bc" target="_top" xlink:title="XonoticMapInfoDialog\l_loadMapInfo">
<polygon fill="none" stroke="black" points="161,-165 161,-195 280,-195 280,-165 161,-165"/>
<text text-anchor="start" x="169" y="-183" font-family="Helvetica,sans-Serif" font-size="10.00">XonoticMapInfoDialog</text>
<text text-anchor="middle" x="220.5" y="-172" font-family="Helvetica,sans-Serif" font-size="10.00">_loadMapInfo</text>
</a>
</g>
</g>
<!-- Node1&#45;&gt;Node10 -->
<g id="edge9" class="edge"><title>Node1&#45;&gt;Node10</title>
<path fill="none" stroke="midnightblue" d="M96.6024,-211.903C116.65,-206.699 140.295,-200.561 161.464,-195.065"/>
<polygon fill="midnightblue" stroke="midnightblue" points="95.5787,-208.552 86.779,-214.453 97.3376,-215.328 95.5787,-208.552"/>
</g>
<!-- Node11 -->
<g id="node11" class="node"><title>Node11</title>
<g id="a_node11"><a xlink:href="../../d0/dc5/maplist_8qc.html#acd12df76ca97bd075fe87a115ea73905" target="_top" xlink:title="XonoticMapList_drawListBoxItem">
<polygon fill="none" stroke="black" points="134,-126.5 134,-145.5 307,-145.5 307,-126.5 134,-126.5"/>
<text text-anchor="middle" x="220.5" y="-133.5" font-family="Helvetica,sans-Serif" font-size="10.00">XonoticMapList_drawListBoxItem</text>
</a>
</g>
</g>
<!-- Node1&#45;&gt;Node11 -->
<g id="edge10" class="edge"><title>Node1&#45;&gt;Node11</title>
<path fill="none" stroke="midnightblue" d="M66.1947,-207.074C82.0442,-191.501 107.594,-168.924 134,-156 142.9,-151.644 152.793,-148.211 162.6,-145.512"/>
<polygon fill="midnightblue" stroke="midnightblue" points="63.3953,-204.926 58.8375,-214.49 68.3649,-209.856 63.3953,-204.926"/>
</g>
<!-- Node12 -->
<g id="node12" class="node"><title>Node12</title>
<g id="a_node12"><a xlink:href="../../de/dd6/playermodel_8qc.html#a5549bd782c34a5fa8a9aab4d5970baf0" target="_top" xlink:title="XonoticPlayerModelSelector_go">
<polygon fill="none" stroke="black" points="137,-88.5 137,-107.5 304,-107.5 304,-88.5 137,-88.5"/>
<text text-anchor="middle" x="220.5" y="-95.5" font-family="Helvetica,sans-Serif" font-size="10.00">XonoticPlayerModelSelector_go</text>
</a>
</g>
</g>
<!-- Node1&#45;&gt;Node12 -->
<g id="edge11" class="edge"><title>Node1&#45;&gt;Node12</title>
<path fill="none" stroke="midnightblue" d="M59.2267,-205.581C72.3794,-181.312 98.8702,-139.12 134,-117 140.176,-113.111 147.042,-110.012 154.122,-107.544"/>
<polygon fill="midnightblue" stroke="midnightblue" points="56.0988,-204.01 54.5622,-214.493 62.3006,-207.256 56.0988,-204.01"/>
</g>
<!-- Node13 -->
<g id="node13" class="node"><title>Node13</title>
<g id="a_node13"><a xlink:href="../../d6/d74/serverlist_8qc.html#a3d865254038d9e2657996a28421aa1cc" target="_top" xlink:title="XonoticServerList_drawList\lBoxItem">
<polygon fill="none" stroke="black" points="148.5,-39 148.5,-69 292.5,-69 292.5,-39 148.5,-39"/>
<text text-anchor="start" x="156.5" y="-57" font-family="Helvetica,sans-Serif" font-size="10.00">XonoticServerList_drawList</text>
<text text-anchor="middle" x="220.5" y="-46" font-family="Helvetica,sans-Serif" font-size="10.00">BoxItem</text>
</a>
</g>
</g>
<!-- Node1&#45;&gt;Node13 -->
<g id="edge12" class="edge"><title>Node1&#45;&gt;Node13</title>
<path fill="none" stroke="midnightblue" d="M55.9983,-204.476C66.5962,-173.258 91.6118,-112.245 134,-79 138.989,-75.0869 144.573,-71.7859 150.434,-69.0014"/>
<polygon fill="midnightblue" stroke="midnightblue" points="52.6064,-203.589 52.8461,-214.182 59.2641,-205.752 52.6064,-203.589"/>
</g>
<!-- Node14 -->
<g id="node14" class="node"><title>Node14</title>
<g id="a_node14"><a xlink:href="../../d9/da1/skinlist_8qc.html#a71b017ead59e4184f07e33419df09ca1" target="_top" xlink:title="XonoticSkinList_getSkins">
<polygon fill="none" stroke="black" points="153,-0.5 153,-19.5 288,-19.5 288,-0.5 153,-0.5"/>
<text text-anchor="middle" x="220.5" y="-7.5" font-family="Helvetica,sans-Serif" font-size="10.00">XonoticSkinList_getSkins</text>
</a>
</g>
</g>
<!-- Node1&#45;&gt;Node14 -->
<g id="edge13" class="edge"><title>Node1&#45;&gt;Node14</title>
<path fill="none" stroke="midnightblue" d="M52.6609,-204.137C59.0479,-164.603 79.022,-75.931 134,-30 139.499,-25.4063 145.86,-21.8252 152.582,-19.0398"/>
<polygon fill="midnightblue" stroke="midnightblue" points="49.1863,-203.708 51.1738,-214.114 56.1098,-204.74 49.1863,-203.708"/>
</g>
<!-- Node3 -->
<g id="node3" class="node"><title>Node3</title>
<g id="a_node3"><a xlink:href="../../df/dc2/menu_8qc.html#abb122747ce3abb1b3feef039f875adbe" target="_top" xlink:title="drawBackground">
<polygon fill="none" stroke="black" points="343,-428.5 343,-447.5 439,-447.5 439,-428.5 343,-428.5"/>
<text text-anchor="middle" x="391" y="-435.5" font-family="Helvetica,sans-Serif" font-size="10.00">drawBackground</text>
</a>
</g>
</g>
<!-- Node2&#45;&gt;Node3 -->
<g id="edge2" class="edge"><title>Node2&#45;&gt;Node3</title>
<path fill="none" stroke="midnightblue" d="M290.224,-438C307.882,-438 326.482,-438 342.776,-438"/>
<polygon fill="midnightblue" stroke="midnightblue" points="289.96,-434.5 279.96,-438 289.96,-441.5 289.96,-434.5"/>
</g>
<!-- Node4 -->
<g id="node4" class="node"><title>Node4</title>
<g id="a_node4"><a xlink:href="../../df/dc2/menu_8qc.html#a844e5015c7d134d4dc7a682948215763" target="_top" xlink:title="m_draw">
<polygon fill="none" stroke="black" points="475,-428.5 475,-447.5 529,-447.5 529,-428.5 475,-428.5"/>
<text text-anchor="middle" x="502" y="-435.5" font-family="Helvetica,sans-Serif" font-size="10.00">m_draw</text>
</a>
</g>
</g>
<!-- Node3&#45;&gt;Node4 -->
<g id="edge3" class="edge"><title>Node3&#45;&gt;Node4</title>
<path fill="none" stroke="midnightblue" d="M449.242,-438C458.166,-438 466.992,-438 474.76,-438"/>
<polygon fill="midnightblue" stroke="midnightblue" points="449.175,-434.5 439.175,-438 449.175,-441.5 449.175,-434.5"/>
</g>
</g>
</svg>
        <g id="navigator" transform="translate(0 0)" fill="#404254">
                <rect fill="#f2f5e9" fill-opacity="0.5" stroke="#606060" stroke-width=".5" x="0" y="0" width="60" height="60"/>
                <use id="zoomplus" xlink:href="#zoomPlus" x="17" y="9" onmousedown="handleZoom(evt,'in')"/>
                <use id="zoomminus" xlink:href="#zoomMin" x="42" y="9" onmousedown="handleZoom(evt,'out')"/>
                <use id="reset" xlink:href="#resetDef" x="30" y="36" onmousedown="handleReset()"/>
                <g id="arrowUp" xlink:href="#dirArrow" transform="translate(30 24)" onmousedown="handlePan(0,-1)">
                  <use xlink:href="#rim" fill="#404040">
                        <set attributeName="fill" to="#808080" begin="arrowUp.mouseover" end="arrowUp.mouseout"/>
                  </use>
                  <path fill="none" stroke="white" stroke-width="1.5" d="M0,-3.0v7 M-2.5,-0.5L0,-3.0L2.5,-0.5"/>
                </g>
                <g id="arrowRight" xlink:href="#dirArrow" transform="rotate(90) translate(36 -43)" onmousedown="handlePan(1,0)">
                  <use xlink:href="#rim" fill="#404040">
                        <set attributeName="fill" to="#808080" begin="arrowRight.mouseover" end="arrowRight.mouseout"/>
                  </use>
                  <path fill="none" stroke="white" stroke-width="1.5" d="M0,-3.0v7 M-2.5,-0.5L0,-3.0L2.5,-0.5"/>
                </g>
                <g id="arrowDown" xlink:href="#dirArrow" transform="rotate(180) translate(-30 -48)" onmousedown="handlePan(0,1)">
                  <use xlink:href="#rim" fill="#404040">
                        <set attributeName="fill" to="#808080" begin="arrowDown.mouseover" end="arrowDown.mouseout"/>
                  </use>
                  <path fill="none" stroke="white" stroke-width="1.5" d="M0,-3.0v7 M-2.5,-0.5L0,-3.0L2.5,-0.5"/>
                </g>
                <g id="arrowLeft" xlink:href="#dirArrow" transform="rotate(270) translate(-36 17)" onmousedown="handlePan(-1,0)">
                  <use xlink:href="#rim" fill="#404040">
                        <set attributeName="fill" to="#808080" begin="arrowLeft.mouseover" end="arrowLeft.mouseout"/>
                  </use>
                  <path fill="none" stroke="white" stroke-width="1.5" d="M0,-3.0v7 M-2.5,-0.5L0,-3.0L2.5,-0.5"/>
                </g>
        </g>
        <svg viewBox="0 0 15 15" width="100%" height="30px" preserveAspectRatio="xMaxYMin meet">
         <g id="arrow_out" transform="scale(0.3 0.3)">
          <a xlink:href="draw_8qc_a9b98cfffc443113a6eedb91f922160e0_icgraph_org.svg" target="_base">
           <rect id="button" ry="5" rx="5" y="6" x="6" height="38" width="38"
                fill="#f2f5e9" fill-opacity="0.5" stroke="#606060" stroke-width="1.0"/>
           <path id="arrow"
             d="M 11.500037,31.436501 C 11.940474,20.09759 22.043105,11.32322 32.158766,21.979434 L 37.068811,17.246167 C 37.068811,17.246167 37.088388,32 37.088388,32 L 22.160133,31.978069 C 22.160133,31.978069 26.997745,27.140456 26.997745,27.140456 C 18.528582,18.264221 13.291696,25.230495 11.500037,31.436501 z"
             style="fill:#404040;"/>
          </a>
         </g>
        </svg>
</svg>
