<?xml version="1.0" encoding="UTF-8" standalone="no"?>
<!DOCTYPE svg PUBLIC "-//W3C//DTD SVG 1.1//EN"
 "http://www.w3.org/Graphics/SVG/1.1/DTD/svg11.dtd">
<!-- Generated by graphviz version 2.36.0 (20140111.2315)
 -->
<!-- Title: waypoint_think Pages: 1 -->
<svg width="934pt" height="324pt"
 viewBox="0.00 0.00 934.00 324.00" xmlns="http://www.w3.org/2000/svg" xmlns:xlink="http://www.w3.org/1999/xlink">
<g id="graph0" class="graph" transform="scale(1 1) rotate(0) translate(4 320)">
<title>waypoint_think</title>
<!-- Node1 -->
<g id="node1" class="node"><title>Node1</title>
<polygon fill="#bfbfbf" stroke="black" points="0,-182.5 0,-201.5 82,-201.5 82,-182.5 0,-182.5"/>
<text text-anchor="middle" x="41" y="-189.5" font-family="Helvetica,sans-Serif" font-size="10.00">waypoint_think</text>
</g>
<!-- Node2 -->
<g id="node2" class="node"><title>Node2</title>
<g id="a_node2"><a xlink:href="../../d2/dc0/bot_8qc.html#a93e7d8dfd34f0d07a3c9f4ef59ed3888" target="_top" xlink:title="bot_calculate_stepheightvec">
<polygon fill="none" stroke="black" points="118,-296.5 118,-315.5 258,-315.5 258,-296.5 118,-296.5"/>
<text text-anchor="middle" x="188" y="-303.5" font-family="Helvetica,sans-Serif" font-size="10.00">bot_calculate_stepheightvec</text>
</a>
</g>
</g>
<!-- Node1&#45;&gt;Node2 -->
<g id="edge1" class="edge"><title>Node1&#45;&gt;Node2</title>
<path fill="none" stroke="midnightblue" d="M47.0299,-201.753C57.5111,-221.084 83.6026,-264.347 118,-287 121.142,-289.069 124.507,-290.915 127.996,-292.561"/>
<polygon fill="midnightblue" stroke="midnightblue" points="126.882,-295.888 137.461,-296.468 129.553,-289.417 126.882,-295.888"/>
</g>
<!-- Node3 -->
<g id="node3" class="node"><title>Node3</title>
<g id="a_node3"><a xlink:href="../../de/dcb/vector_8qh.html#a9d1cd3b60eb67f1ec2a17fc2022e4276" target="_top" xlink:title="requires that m2&gt;m1 in all coordinates, and that m4&gt;m3 ">
<polygon fill="none" stroke="black" points="151,-258.5 151,-277.5 225,-277.5 225,-258.5 151,-258.5"/>
<text text-anchor="middle" x="188" y="-265.5" font-family="Helvetica,sans-Serif" font-size="10.00">boxesoverlap</text>
</a>
</g>
</g>
<!-- Node1&#45;&gt;Node3 -->
<g id="edge2" class="edge"><title>Node1&#45;&gt;Node3</title>
<path fill="none" stroke="midnightblue" d="M52.4672,-201.907C66.3846,-214.57 92.2357,-236.36 118,-249 125.296,-252.579 133.368,-255.57 141.343,-258.039"/>
<polygon fill="midnightblue" stroke="midnightblue" points="140.387,-261.406 150.964,-260.797 142.316,-254.677 140.387,-261.406"/>
</g>
<!-- Node4 -->
<g id="node4" class="node"><title>Node4</title>
<g id="a_node4"><a xlink:href="../../d4/d0c/csprogsdefs_8qc.html#a94c5b969ccc333b040b402d69d3338a2" target="_top" xlink:title="checkpvs">
<polygon fill="none" stroke="black" points="158.5,-220.5 158.5,-239.5 217.5,-239.5 217.5,-220.5 158.5,-220.5"/>
<text text-anchor="middle" x="188" y="-227.5" font-family="Helvetica,sans-Serif" font-size="10.00">checkpvs</text>
</a>
</g>
</g>
<!-- Node1&#45;&gt;Node4 -->
<g id="edge3" class="edge"><title>Node1&#45;&gt;Node4</title>
<path fill="none" stroke="midnightblue" d="M78.5896,-201.589C99.883,-207.169 126.705,-214.199 148.343,-219.869"/>
<polygon fill="midnightblue" stroke="midnightblue" points="147.63,-223.3 158.19,-222.45 149.404,-216.529 147.63,-223.3"/>
</g>
<!-- Node5 -->
<g id="node5" class="node"><title>Node5</title>
<g id="a_node5"><a xlink:href="../../db/d15/api_8qh.html#ac30d35265519e728fa87ad6eb81d92e5" target="_top" xlink:title="set_tracewalk_dest_2">
<polygon fill="none" stroke="black" points="478,-144.5 478,-163.5 590,-163.5 590,-144.5 478,-144.5"/>
<text text-anchor="middle" x="534" y="-151.5" font-family="Helvetica,sans-Serif" font-size="10.00">set_tracewalk_dest_2</text>
</a>
</g>
</g>
<!-- Node1&#45;&gt;Node5 -->
<g id="edge4" class="edge"><title>Node1&#45;&gt;Node5</title>
<path fill="none" stroke="midnightblue" d="M82.0884,-183.651C93.6349,-181.509 106.278,-179.413 118,-178 240.994,-163.174 385.637,-157.44 467.595,-155.271"/>
<polygon fill="midnightblue" stroke="midnightblue" points="467.853,-158.765 477.76,-155.012 467.674,-151.768 467.853,-158.765"/>
</g>
<!-- Node7 -->
<g id="node7" class="node"><title>Node7</title>
<g id="a_node7"><a xlink:href="../../d4/d0c/csprogsdefs_8qc.html#a4f0b78b1785821ba47129edb68e70f9e" target="_top" xlink:title="vector">
<polygon fill="none" stroke="black" points="663,-163.5 663,-182.5 707,-182.5 707,-163.5 663,-163.5"/>
<text text-anchor="middle" x="685" y="-170.5" font-family="Helvetica,sans-Serif" font-size="10.00">vector</text>
</a>
</g>
</g>
<!-- Node1&#45;&gt;Node7 -->
<g id="edge8" class="edge"><title>Node1&#45;&gt;Node7</title>
<path fill="none" stroke="midnightblue" d="M82.16,-190.811C200.659,-187.304 547.155,-177.05 652.959,-173.919"/>
<polygon fill="midnightblue" stroke="midnightblue" points="653.097,-177.416 662.989,-173.622 652.89,-170.419 653.097,-177.416"/>
</g>
<!-- Node8 -->
<g id="node8" class="node"><title>Node8</title>
<g id="a_node8"><a xlink:href="../../db/d15/api_8qh.html#a6fd9d052d1e171ea3729410e8c98c218" target="_top" xlink:title="tracewalk">
<polygon fill="none" stroke="black" points="158.5,-106.5 158.5,-125.5 217.5,-125.5 217.5,-106.5 158.5,-106.5"/>
<text text-anchor="middle" x="188" y="-113.5" font-family="Helvetica,sans-Serif" font-size="10.00">tracewalk</text>
</a>
</g>
</g>
<!-- Node1&#45;&gt;Node8 -->
<g id="edge7" class="edge"><title>Node1&#45;&gt;Node8</title>
<path fill="none" stroke="midnightblue" d="M53.7534,-182.483C68.1836,-171.158 93.7366,-152.246 118,-140 127.696,-135.106 138.626,-130.801 148.879,-127.239"/>
<polygon fill="midnightblue" stroke="midnightblue" points="150.058,-130.535 158.44,-124.055 147.847,-123.894 150.058,-130.535"/>
</g>
<!-- Node9 -->
<g id="node9" class="node"><title>Node9</title>
<g id="a_node9"><a xlink:href="../../d7/dc4/waypoints_8qc.html#a78500a5fdfa2de7f46f627274085fe08" target="_top" xlink:title="waypoint_addlink">
<polygon fill="none" stroke="black" points="142,-68.5 142,-87.5 234,-87.5 234,-68.5 142,-68.5"/>
<text text-anchor="middle" x="188" y="-75.5" font-family="Helvetica,sans-Serif" font-size="10.00">waypoint_addlink</text>
</a>
</g>
</g>
<!-- Node1&#45;&gt;Node9 -->
<g id="edge9" class="edge"><title>Node1&#45;&gt;Node9</title>
<path fill="none" stroke="midnightblue" d="M47.0299,-182.247C57.5111,-162.916 83.6026,-119.653 118,-97 122.363,-94.1266 127.154,-91.6844 132.115,-89.6095"/>
<polygon fill="midnightblue" stroke="midnightblue" points="133.616,-92.787 141.797,-86.055 131.204,-86.2159 133.616,-92.787"/>
</g>
<!-- Node6 -->
<g id="node6" class="node"><title>Node6</title>
<g id="a_node6"><a xlink:href="../../d8/de2/menudefs_8qc.html#a3846d117b360dccec575f96988cf3bb7" target="_top" xlink:title="bound">
<polygon fill="none" stroke="black" points="663.5,-125.5 663.5,-144.5 706.5,-144.5 706.5,-125.5 663.5,-125.5"/>
<text text-anchor="middle" x="685" y="-132.5" font-family="Helvetica,sans-Serif" font-size="10.00">bound</text>
</a>
</g>
</g>
<!-- Node5&#45;&gt;Node6 -->
<g id="edge5" class="edge"><title>Node5&#45;&gt;Node6</title>
<path fill="none" stroke="midnightblue" d="M590.059,-146.979C611.403,-144.257 635.036,-141.244 653.258,-138.92"/>
<polygon fill="midnightblue" stroke="midnightblue" points="653.827,-142.376 663.304,-137.639 652.942,-135.432 653.827,-142.376"/>
</g>
<!-- Node5&#45;&gt;Node7 -->
<g id="edge6" class="edge"><title>Node5&#45;&gt;Node7</title>
<path fill="none" stroke="midnightblue" d="M590.059,-161.021C611.264,-163.725 634.729,-166.717 652.903,-169.035"/>
<polygon fill="midnightblue" stroke="midnightblue" points="652.572,-172.521 662.935,-170.314 653.458,-165.577 652.572,-172.521"/>
</g>
<!-- Node10 -->
<g id="node10" class="node"><title>Node10</title>
<g id="a_node10"><a xlink:href="../../d7/dc4/waypoints_8qc.html#a366118166944b7c3433ad78c7f388462" target="_top" xlink:title="waypoint_addlink_customcost">
<polygon fill="none" stroke="black" points="294,-68.5 294,-87.5 442,-87.5 442,-68.5 294,-68.5"/>
<text text-anchor="middle" x="368" y="-75.5" font-family="Helvetica,sans-Serif" font-size="10.00">waypoint_addlink_customcost</text>
</a>
</g>
</g>
<!-- Node9&#45;&gt;Node10 -->
<g id="edge10" class="edge"><title>Node9&#45;&gt;Node10</title>
<path fill="none" stroke="midnightblue" d="M234.377,-78C249.305,-78 266.407,-78 283.257,-78"/>
<polygon fill="midnightblue" stroke="midnightblue" points="283.694,-81.5001 293.694,-78 283.694,-74.5001 283.694,-81.5001"/>
</g>
<!-- Node11 -->
<g id="node11" class="node"><title>Node11</title>
<g id="a_node11"><a xlink:href="../../d7/dc4/waypoints_8qc.html#aa5407b0b7212365767c0a9bfe9656c2f" target="_top" xlink:title="waypoint_getlinkcost">
<polygon fill="none" stroke="black" points="480,-106.5 480,-125.5 588,-125.5 588,-106.5 480,-106.5"/>
<text text-anchor="middle" x="534" y="-113.5" font-family="Helvetica,sans-Serif" font-size="10.00">waypoint_getlinkcost</text>
</a>
</g>
</g>
<!-- Node10&#45;&gt;Node11 -->
<g id="edge11" class="edge"><title>Node10&#45;&gt;Node11</title>
<path fill="none" stroke="midnightblue" d="M410.384,-87.589C432.123,-92.6261 458.957,-98.8438 481.975,-104.177"/>
<polygon fill="midnightblue" stroke="midnightblue" points="481.381,-107.632 491.913,-106.48 482.962,-100.813 481.381,-107.632"/>
</g>
<!-- Node18 -->
<g id="node18" class="node"><title>Node18</title>
<g id="a_node18"><a xlink:href="../../d7/dc4/waypoints_8qc.html#a5c2ed2db425ae03dadf19dede5799956" target="_top" xlink:title="waypoint_islinked">
<polygon fill="none" stroke="black" points="487,-68.5 487,-87.5 581,-87.5 581,-68.5 487,-68.5"/>
<text text-anchor="middle" x="534" y="-75.5" font-family="Helvetica,sans-Serif" font-size="10.00">waypoint_islinked</text>
</a>
</g>
</g>
<!-- Node10&#45;&gt;Node18 -->
<g id="edge20" class="edge"><title>Node10&#45;&gt;Node18</title>
<path fill="none" stroke="midnightblue" d="M442.366,-78C453.989,-78 465.845,-78 476.988,-78"/>
<polygon fill="midnightblue" stroke="midnightblue" points="476.993,-81.5001 486.993,-78 476.993,-74.5001 476.993,-81.5001"/>
</g>
<!-- Node11&#45;&gt;Node6 -->
<g id="edge12" class="edge"><title>Node11&#45;&gt;Node6</title>
<path fill="none" stroke="midnightblue" d="M588.372,-122.806C610.112,-125.578 634.469,-128.684 653.16,-131.067"/>
<polygon fill="midnightblue" stroke="midnightblue" points="652.816,-134.552 663.178,-132.345 653.701,-127.608 652.816,-134.552"/>
</g>
<!-- Node11&#45;&gt;Node7 -->
<g id="edge13" class="edge"><title>Node11&#45;&gt;Node7</title>
<path fill="none" stroke="midnightblue" d="M565.291,-125.535C573.412,-128.342 582.122,-131.584 590,-135 606.599,-142.197 609.344,-146.937 626,-154 634.647,-157.667 644.259,-161.073 653.132,-163.958"/>
<polygon fill="midnightblue" stroke="midnightblue" points="652.155,-167.32 662.745,-166.981 654.255,-160.642 652.155,-167.32"/>
</g>
<!-- Node12 -->
<g id="node12" class="node"><title>Node12</title>
<g id="a_node12"><a xlink:href="../../d7/dc4/waypoints_8qc.html#a4ff6fb4088c04ce31f0ca8c9e688777a" target="_top" xlink:title="waypoint_gettravelcost">
<polygon fill="none" stroke="black" points="626.5,-87.5 626.5,-106.5 743.5,-106.5 743.5,-87.5 626.5,-87.5"/>
<text text-anchor="middle" x="685" y="-94.5" font-family="Helvetica,sans-Serif" font-size="10.00">waypoint_gettravelcost</text>
</a>
</g>
</g>
<!-- Node11&#45;&gt;Node12 -->
<g id="edge14" class="edge"><title>Node11&#45;&gt;Node12</title>
<path fill="none" stroke="midnightblue" d="M588.372,-109.194C597.447,-108.037 606.979,-106.821 616.365,-105.625"/>
<polygon fill="midnightblue" stroke="midnightblue" points="616.986,-109.074 626.463,-104.337 616.1,-102.13 616.986,-109.074"/>
</g>
<!-- Node13 -->
<g id="node13" class="node"><title>Node13</title>
<g id="a_node13"><a xlink:href="../../d1/d9a/navigation_8qc.html#aa11c1bcb734cd6504a02ed3d2c634163" target="_top" xlink:title="navigation_check_submerged\l_state">
<polygon fill="none" stroke="black" points="780,-164 780,-194 926,-194 926,-164 780,-164"/>
<text text-anchor="start" x="788" y="-182" font-family="Helvetica,sans-Serif" font-size="10.00">navigation_check_submerged</text>
<text text-anchor="middle" x="853" y="-171" font-family="Helvetica,sans-Serif" font-size="10.00">_state</text>
</a>
</g>
</g>
<!-- Node12&#45;&gt;Node13 -->
<g id="edge15" class="edge"><title>Node12&#45;&gt;Node13</title>
<path fill="none" stroke="midnightblue" d="M724.353,-106.566C731.171,-109.091 738.002,-112.202 744,-116 763.655,-128.446 760.455,-141.381 780,-154 783.13,-156.021 786.442,-157.9 789.859,-159.643"/>
<polygon fill="midnightblue" stroke="midnightblue" points="788.552,-162.895 799.094,-163.947 791.509,-156.55 788.552,-162.895"/>
</g>
<!-- Node14 -->
<g id="node14" class="node"><title>Node14</title>
<g id="a_node14"><a xlink:href="../../d8/de2/menudefs_8qc.html#a83f4d3f317a80e82e6b16ea61ea5efc3" target="_top" xlink:title="sqrt">
<polygon fill="none" stroke="black" points="836.5,-125.5 836.5,-144.5 869.5,-144.5 869.5,-125.5 836.5,-125.5"/>
<text text-anchor="middle" x="853" y="-132.5" font-family="Helvetica,sans-Serif" font-size="10.00">sqrt</text>
</a>
</g>
</g>
<!-- Node12&#45;&gt;Node14 -->
<g id="edge16" class="edge"><title>Node12&#45;&gt;Node14</title>
<path fill="none" stroke="midnightblue" d="M727.889,-106.589C758.954,-113.7 800.299,-123.165 826.539,-129.171"/>
<polygon fill="midnightblue" stroke="midnightblue" points="825.929,-132.622 836.458,-131.442 827.491,-125.799 825.929,-132.622"/>
</g>
<!-- Node15 -->
<g id="node15" class="node"><title>Node15</title>
<g id="a_node15"><a xlink:href="../../d8/de2/menudefs_8qc.html#a79d61ab0e4126e02af8bc36d432aedaf" target="_top" xlink:title="vlen">
<polygon fill="none" stroke="black" points="835.5,-87.5 835.5,-106.5 870.5,-106.5 870.5,-87.5 835.5,-87.5"/>
<text text-anchor="middle" x="853" y="-94.5" font-family="Helvetica,sans-Serif" font-size="10.00">vlen</text>
</a>
</g>
</g>
<!-- Node12&#45;&gt;Node15 -->
<g id="edge17" class="edge"><title>Node12&#45;&gt;Node15</title>
<path fill="none" stroke="midnightblue" d="M743.593,-97C771.31,-97 803.211,-97 825.195,-97"/>
<polygon fill="midnightblue" stroke="midnightblue" points="825.42,-100.5 835.42,-97 825.42,-93.5001 825.42,-100.5"/>
</g>
<!-- Node16 -->
<g id="node16" class="node"><title>Node16</title>
<g id="a_node16"><a xlink:href="../../d7/dc4/waypoints_8qc.html#ae6323b7e0f8ebe2aff52580a4a043072" target="_top" xlink:title="waypoint_getlinearcost">
<polygon fill="none" stroke="black" points="795,-49.5 795,-68.5 911,-68.5 911,-49.5 795,-49.5"/>
<text text-anchor="middle" x="853" y="-56.5" font-family="Helvetica,sans-Serif" font-size="10.00">waypoint_getlinearcost</text>
</a>
</g>
</g>
<!-- Node12&#45;&gt;Node16 -->
<g id="edge18" class="edge"><title>Node12&#45;&gt;Node16</title>
<path fill="none" stroke="midnightblue" d="M727.889,-87.411C749.893,-82.3739 777.055,-76.1562 800.352,-70.8229"/>
<polygon fill="midnightblue" stroke="midnightblue" points="801.446,-74.1633 810.412,-68.5201 799.884,-67.3398 801.446,-74.1633"/>
</g>
<!-- Node17 -->
<g id="node17" class="node"><title>Node17</title>
<g id="a_node17"><a xlink:href="../../d7/dc4/waypoints_8qc.html#a399549857abcd6c3f94901ec1b6b5be4" target="_top" xlink:title="waypoint_getlinearcost\l_underwater">
<polygon fill="none" stroke="black" points="795,-0 795,-30 911,-30 911,-0 795,-0"/>
<text text-anchor="start" x="803" y="-18" font-family="Helvetica,sans-Serif" font-size="10.00">waypoint_getlinearcost</text>
<text text-anchor="middle" x="853" y="-7" font-family="Helvetica,sans-Serif" font-size="10.00">_underwater</text>
</a>
</g>
</g>
<!-- Node12&#45;&gt;Node17 -->
<g id="edge19" class="edge"><title>Node12&#45;&gt;Node17</title>
<path fill="none" stroke="midnightblue" d="M699.814,-87.3418C717.698,-75.1433 750.122,-54.0531 780,-40 784.67,-37.8036 789.588,-35.6962 794.57,-33.7016"/>
<polygon fill="midnightblue" stroke="midnightblue" points="796.101,-36.8631 804.182,-30.0113 793.592,-30.3282 796.101,-36.8631"/>
</g>
</g>
</svg>
