<?xml version="1.0" encoding="UTF-8" standalone="no"?>
<!DOCTYPE svg PUBLIC "-//W3C//DTD SVG 1.1//EN"
 "http://www.w3.org/Graphics/SVG/1.1/DTD/svg11.dtd">
<!-- Generated by graphviz version 2.36.0 (20140111.2315)
 -->
<!-- Title: waypoint_schedulerelinkall Pages: 1 -->
<!--zoomable 332 -->
<svg id="main" version="1.1" xmlns="http://www.w3.org/2000/svg" xmlns:xlink="http://www.w3.org/1999/xlink" xml:space="preserve" onload="init(evt)">
<style type="text/css"><![CDATA[
.edge:hover path { stroke: red; }
.edge:hover polygon { stroke: red; fill: red; }
]]></style>
<script type="text/javascript"><![CDATA[
var edges = document.getElementsByTagName('g');
if (edges && edges.length) {
  for (var i=0;i<edges.length;i++) {
    if (edges[i].id.substr(0,4)=='edge') {
      edges[i].setAttribute('class','edge');
    }
  }
}
]]></script>
        <defs>
                <circle id="rim" cx="0" cy="0" r="7"/>
                <circle id="rim2" cx="0" cy="0" r="3.5"/>
                <g id="zoomPlus">
                        <use xlink:href="#rim" fill="#404040">
                                <set attributeName="fill" to="#808080" begin="zoomplus.mouseover" end="zoomplus.mouseout"/>
                        </use>
                        <path d="M-4,0h8M0,-4v8" fill="none" stroke="white" stroke-width="1.5" pointer-events="none"/>
                </g>
                <g id="zoomMin">
                        <use xlink:href="#rim" fill="#404040">
                                <set attributeName="fill" to="#808080" begin="zoomminus.mouseover" end="zoomminus.mouseout"/>
                        </use>
                        <path d="M-4,0h8" fill="none" stroke="white" stroke-width="1.5" pointer-events="none"/>
                </g>
                <g id="dirArrow">
                        <path fill="none" stroke="white" stroke-width="1.5" d="M0,-3.0v7 M-2.5,-0.5L0,-3.0L2.5,-0.5"/>
                </g>
               <g id="resetDef">
                       <use xlink:href="#rim2" fill="#404040">
                               <set attributeName="fill" to="#808080" begin="reset.mouseover" end="reset.mouseout"/>
                       </use>
               </g>
        </defs>

<script type="text/javascript">
var viewWidth = 1284;
var viewHeight = 332;
var sectionId = 'dynsection-31';
</script>
<script xlink:href="../../svgpan.js"/>
<svg id="graph" class="graph">
<g id="viewport">
<title>waypoint_schedulerelinkall</title>
<!-- Node1 -->
<g id="node1" class="node"><title>Node1</title>
<polygon fill="#bfbfbf" stroke="black" points="0.5,-266.5 0.5,-285.5 133.5,-285.5 133.5,-266.5 0.5,-266.5"/>
<text text-anchor="middle" x="67" y="-273.5" font-family="Helvetica,sans-Serif" font-size="10.00">waypoint_schedulerelinkall</text>
</g>
<!-- Node2 -->
<g id="node2" class="node"><title>Node2</title>
<g id="a_node2"><a xlink:href="../../d7/dc4/waypoints_8qc.html#a7b401ce3982d2ff32e2581b69ce746b5" target="_top" xlink:title="waypoint_schedulerelink">
<polygon fill="none" stroke="black" points="170.5,-266.5 170.5,-285.5 293.5,-285.5 293.5,-266.5 170.5,-266.5"/>
<text text-anchor="middle" x="232" y="-273.5" font-family="Helvetica,sans-Serif" font-size="10.00">waypoint_schedulerelink</text>
</a>
</g>
</g>
<!-- Node1&#45;&gt;Node2 -->
<g id="edge1" class="edge"><title>Node1&#45;&gt;Node2</title>
<path fill="none" stroke="midnightblue" d="M133.828,-276C142.529,-276 151.477,-276 160.255,-276"/>
<polygon fill="midnightblue" stroke="midnightblue" points="160.458,-279.5 170.458,-276 160.458,-272.5 160.458,-279.5"/>
</g>
<!-- Node3 -->
<g id="node3" class="node"><title>Node3</title>
<g id="a_node3"><a xlink:href="../../d7/dc4/waypoints_8qc.html#a38265f752edbe2d8e696ad0c88fff34d" target="_top" xlink:title="waypoint_clearlinks">
<polygon fill="none" stroke="black" points="330,-304.5 330,-323.5 432,-323.5 432,-304.5 330,-304.5"/>
<text text-anchor="middle" x="381" y="-311.5" font-family="Helvetica,sans-Serif" font-size="10.00">waypoint_clearlinks</text>
</a>
</g>
</g>
<!-- Node2&#45;&gt;Node3 -->
<g id="edge2" class="edge"><title>Node2&#45;&gt;Node3</title>
<path fill="none" stroke="midnightblue" d="M270.094,-285.589C289.318,-290.558 312.986,-296.677 333.429,-301.961"/>
<polygon fill="midnightblue" stroke="midnightblue" points="332.615,-305.366 343.172,-304.48 334.367,-298.588 332.615,-305.366"/>
</g>
<!-- Node4 -->
<g id="node4" class="node"><title>Node4</title>
<g id="a_node4"><a xlink:href="../../d7/dc4/waypoints_8qc.html#abb264e1745062ac2ad6d46a0b8c5e6c9" target="_top" xlink:title="waypoint_setupmodel">
<polygon fill="none" stroke="black" points="662.5,-266.5 662.5,-285.5 773.5,-285.5 773.5,-266.5 662.5,-266.5"/>
<text text-anchor="middle" x="718" y="-273.5" font-family="Helvetica,sans-Serif" font-size="10.00">waypoint_setupmodel</text>
</a>
</g>
</g>
<!-- Node2&#45;&gt;Node4 -->
<g id="edge3" class="edge"><title>Node2&#45;&gt;Node4</title>
<path fill="none" stroke="midnightblue" d="M293.809,-276C385.456,-276 558.224,-276 652.177,-276"/>
<polygon fill="midnightblue" stroke="midnightblue" points="652.402,-279.5 662.402,-276 652.402,-272.5 652.402,-279.5"/>
</g>
<!-- Node6 -->
<g id="node6" class="node"><title>Node6</title>
<g id="a_node6"><a xlink:href="../../d7/dc4/waypoints_8qc.html#a7ab4015afd0d98a36207a9186a62d127" target="_top" xlink:title="waypoint_think">
<polygon fill="none" stroke="black" points="340,-133.5 340,-152.5 422,-152.5 422,-133.5 340,-133.5"/>
<text text-anchor="middle" x="381" y="-140.5" font-family="Helvetica,sans-Serif" font-size="10.00">waypoint_think</text>
</a>
</g>
</g>
<!-- Node2&#45;&gt;Node6 -->
<g id="edge5" class="edge"><title>Node2&#45;&gt;Node6</title>
<path fill="none" stroke="midnightblue" d="M243.572,-266.435C268.349,-244.018 330.419,-187.859 361.567,-159.678"/>
<polygon fill="midnightblue" stroke="midnightblue" points="364.06,-162.142 369.127,-152.837 359.364,-156.951 364.06,-162.142"/>
</g>
<!-- Node5 -->
<g id="node5" class="node"><title>Node5</title>
<g id="a_node5"><a xlink:href="../../d4/d0c/csprogsdefs_8qc.html#a4f0b78b1785821ba47129edb68e70f9e" target="_top" xlink:title="vector">
<polygon fill="none" stroke="black" points="1013,-190.5 1013,-209.5 1057,-209.5 1057,-190.5 1013,-190.5"/>
<text text-anchor="middle" x="1035" y="-197.5" font-family="Helvetica,sans-Serif" font-size="10.00">vector</text>
</a>
</g>
</g>
<!-- Node4&#45;&gt;Node5 -->
<g id="edge4" class="edge"><title>Node4&#45;&gt;Node5</title>
<path fill="none" stroke="midnightblue" d="M773.82,-276.027C819.307,-274.645 885.179,-269.363 940,-252 966.465,-243.618 993.934,-227.403 1012.29,-215.298"/>
<polygon fill="midnightblue" stroke="midnightblue" points="1014.44,-218.07 1020.77,-209.572 1010.52,-212.27 1014.44,-218.07"/>
</g>
<!-- Node6&#45;&gt;Node5 -->
<g id="edge13" class="edge"><title>Node6&#45;&gt;Node5</title>
<path fill="none" stroke="midnightblue" d="M388.934,-152.605C402.053,-169.852 432.408,-205.527 468,-219 659.962,-291.666 915.237,-233.181 1002.91,-209.124"/>
<polygon fill="midnightblue" stroke="midnightblue" points="1004.06,-212.435 1012.75,-206.372 1002.18,-205.693 1004.06,-212.435"/>
</g>
<!-- Node7 -->
<g id="node7" class="node"><title>Node7</title>
<g id="a_node7"><a xlink:href="../../d2/dc0/bot_8qc.html#a93e7d8dfd34f0d07a3c9f4ef59ed3888" target="_top" xlink:title="bot_calculate_stepheightvec">
<polygon fill="none" stroke="black" points="468,-0.5 468,-19.5 608,-19.5 608,-0.5 468,-0.5"/>
<text text-anchor="middle" x="538" y="-7.5" font-family="Helvetica,sans-Serif" font-size="10.00">bot_calculate_stepheightvec</text>
</a>
</g>
</g>
<!-- Node6&#45;&gt;Node7 -->
<g id="edge6" class="edge"><title>Node6&#45;&gt;Node7</title>
<path fill="none" stroke="midnightblue" d="M386.495,-133.352C397.27,-111.308 426.777,-56.9969 468,-29 471.058,-26.9232 474.337,-25.0725 477.744,-23.4234"/>
<polygon fill="midnightblue" stroke="midnightblue" points="479.151,-26.6286 487,-19.5122 476.427,-20.1807 479.151,-26.6286"/>
</g>
<!-- Node8 -->
<g id="node8" class="node"><title>Node8</title>
<g id="a_node8"><a xlink:href="../../de/dcb/vector_8qh.html#a9d1cd3b60eb67f1ec2a17fc2022e4276" target="_top" xlink:title="requires that m2&gt;m1 in all coordinates, and that m4&gt;m3 ">
<polygon fill="none" stroke="black" points="501,-190.5 501,-209.5 575,-209.5 575,-190.5 501,-190.5"/>
<text text-anchor="middle" x="538" y="-197.5" font-family="Helvetica,sans-Serif" font-size="10.00">boxesoverlap</text>
</a>
</g>
</g>
<!-- Node6&#45;&gt;Node8 -->
<g id="edge7" class="edge"><title>Node6&#45;&gt;Node8</title>
<path fill="none" stroke="midnightblue" d="M401.477,-152.595C418.693,-160.835 444.629,-172.67 468,-181 475.406,-183.64 483.367,-186.135 491.156,-188.397"/>
<polygon fill="midnightblue" stroke="midnightblue" points="490.301,-191.792 500.875,-191.13 492.196,-185.054 490.301,-191.792"/>
</g>
<!-- Node9 -->
<g id="node9" class="node"><title>Node9</title>
<g id="a_node9"><a xlink:href="../../d4/d0c/csprogsdefs_8qc.html#a94c5b969ccc333b040b402d69d3338a2" target="_top" xlink:title="checkpvs">
<polygon fill="none" stroke="black" points="508.5,-152.5 508.5,-171.5 567.5,-171.5 567.5,-152.5 508.5,-152.5"/>
<text text-anchor="middle" x="538" y="-159.5" font-family="Helvetica,sans-Serif" font-size="10.00">checkpvs</text>
</a>
</g>
</g>
<!-- Node6&#45;&gt;Node9 -->
<g id="edge8" class="edge"><title>Node6&#45;&gt;Node9</title>
<path fill="none" stroke="midnightblue" d="M422.32,-147.942C445.656,-150.803 474.885,-154.386 497.994,-157.219"/>
<polygon fill="midnightblue" stroke="midnightblue" points="497.787,-160.719 508.138,-158.462 498.638,-153.771 497.787,-160.719"/>
</g>
<!-- Node10 -->
<g id="node10" class="node"><title>Node10</title>
<g id="a_node10"><a xlink:href="../../db/d15/api_8qh.html#ac30d35265519e728fa87ad6eb81d92e5" target="_top" xlink:title="set_tracewalk_dest_2">
<polygon fill="none" stroke="black" points="828,-133.5 828,-152.5 940,-152.5 940,-133.5 828,-133.5"/>
<text text-anchor="middle" x="884" y="-140.5" font-family="Helvetica,sans-Serif" font-size="10.00">set_tracewalk_dest_2</text>
</a>
</g>
</g>
<!-- Node6&#45;&gt;Node10 -->
<g id="edge9" class="edge"><title>Node6&#45;&gt;Node10</title>
<path fill="none" stroke="midnightblue" d="M398.116,-133.427C414.901,-124.058 442.286,-110.428 468,-105 601.868,-76.7423 764.413,-110.968 840.221,-130.784"/>
<polygon fill="midnightblue" stroke="midnightblue" points="839.766,-134.284 850.33,-133.476 841.568,-127.52 839.766,-134.284"/>
</g>
<!-- Node12 -->
<g id="node12" class="node"><title>Node12</title>
<g id="a_node12"><a xlink:href="../../db/d15/api_8qh.html#a6fd9d052d1e171ea3729410e8c98c218" target="_top" xlink:title="tracewalk">
<polygon fill="none" stroke="black" points="508.5,-114.5 508.5,-133.5 567.5,-133.5 567.5,-114.5 508.5,-114.5"/>
<text text-anchor="middle" x="538" y="-121.5" font-family="Helvetica,sans-Serif" font-size="10.00">tracewalk</text>
</a>
</g>
</g>
<!-- Node6&#45;&gt;Node12 -->
<g id="edge12" class="edge"><title>Node6&#45;&gt;Node12</title>
<path fill="none" stroke="midnightblue" d="M422.32,-138.058C445.656,-135.197 474.885,-131.614 497.994,-128.781"/>
<polygon fill="midnightblue" stroke="midnightblue" points="498.638,-132.229 508.138,-127.538 497.787,-125.281 498.638,-132.229"/>
</g>
<!-- Node13 -->
<g id="node13" class="node"><title>Node13</title>
<g id="a_node13"><a xlink:href="../../d7/dc4/waypoints_8qc.html#a78500a5fdfa2de7f46f627274085fe08" target="_top" xlink:title="waypoint_addlink">
<polygon fill="none" stroke="black" points="492,-38.5 492,-57.5 584,-57.5 584,-38.5 492,-38.5"/>
<text text-anchor="middle" x="538" y="-45.5" font-family="Helvetica,sans-Serif" font-size="10.00">waypoint_addlink</text>
</a>
</g>
</g>
<!-- Node6&#45;&gt;Node13 -->
<g id="edge14" class="edge"><title>Node6&#45;&gt;Node13</title>
<path fill="none" stroke="midnightblue" d="M391.214,-133.456C406.107,-118.504 436.951,-89.4671 468,-72 475.548,-67.7539 483.978,-64.0654 492.283,-60.9392"/>
<polygon fill="midnightblue" stroke="midnightblue" points="493.657,-64.1658 501.914,-57.5279 491.32,-57.5675 493.657,-64.1658"/>
</g>
<!-- Node10&#45;&gt;Node5 -->
<g id="edge11" class="edge"><title>Node10&#45;&gt;Node5</title>
<path fill="none" stroke="midnightblue" d="M909.939,-152.541C935.616,-162.363 975.667,-177.685 1003.28,-188.249"/>
<polygon fill="midnightblue" stroke="midnightblue" points="1002.25,-191.602 1012.84,-191.906 1004.75,-185.064 1002.25,-191.602"/>
</g>
<!-- Node11 -->
<g id="node11" class="node"><title>Node11</title>
<g id="a_node11"><a xlink:href="../../d8/de2/menudefs_8qc.html#a3846d117b360dccec575f96988cf3bb7" target="_top" xlink:title="bound">
<polygon fill="none" stroke="black" points="1013.5,-133.5 1013.5,-152.5 1056.5,-152.5 1056.5,-133.5 1013.5,-133.5"/>
<text text-anchor="middle" x="1035" y="-140.5" font-family="Helvetica,sans-Serif" font-size="10.00">bound</text>
</a>
</g>
</g>
<!-- Node10&#45;&gt;Node11 -->
<g id="edge10" class="edge"><title>Node10&#45;&gt;Node11</title>
<path fill="none" stroke="midnightblue" d="M940.059,-143C961.403,-143 985.036,-143 1003.26,-143"/>
<polygon fill="midnightblue" stroke="midnightblue" points="1003.3,-146.5 1013.3,-143 1003.3,-139.5 1003.3,-146.5"/>
</g>
<!-- Node14 -->
<g id="node14" class="node"><title>Node14</title>
<g id="a_node14"><a xlink:href="../../d7/dc4/waypoints_8qc.html#a366118166944b7c3433ad78c7f388462" target="_top" xlink:title="waypoint_addlink_customcost">
<polygon fill="none" stroke="black" points="644,-38.5 644,-57.5 792,-57.5 792,-38.5 644,-38.5"/>
<text text-anchor="middle" x="718" y="-45.5" font-family="Helvetica,sans-Serif" font-size="10.00">waypoint_addlink_customcost</text>
</a>
</g>
</g>
<!-- Node13&#45;&gt;Node14 -->
<g id="edge15" class="edge"><title>Node13&#45;&gt;Node14</title>
<path fill="none" stroke="midnightblue" d="M584.377,-48C599.305,-48 616.407,-48 633.257,-48"/>
<polygon fill="midnightblue" stroke="midnightblue" points="633.694,-51.5001 643.694,-48 633.694,-44.5001 633.694,-51.5001"/>
</g>
<!-- Node15 -->
<g id="node15" class="node"><title>Node15</title>
<g id="a_node15"><a xlink:href="../../d7/dc4/waypoints_8qc.html#aa5407b0b7212365767c0a9bfe9656c2f" target="_top" xlink:title="waypoint_getlinkcost">
<polygon fill="none" stroke="black" points="830,-95.5 830,-114.5 938,-114.5 938,-95.5 830,-95.5"/>
<text text-anchor="middle" x="884" y="-102.5" font-family="Helvetica,sans-Serif" font-size="10.00">waypoint_getlinkcost</text>
</a>
</g>
</g>
<!-- Node14&#45;&gt;Node15 -->
<g id="edge16" class="edge"><title>Node14&#45;&gt;Node15</title>
<path fill="none" stroke="midnightblue" d="M748.903,-57.6053C762.14,-61.9153 777.878,-67.1192 792,-72 810.456,-78.3786 830.905,-85.7653 847.736,-91.9309"/>
<polygon fill="midnightblue" stroke="midnightblue" points="846.592,-95.2392 857.186,-95.4032 849.006,-88.6688 846.592,-95.2392"/>
</g>
<!-- Node22 -->
<g id="node22" class="node"><title>Node22</title>
<g id="a_node22"><a xlink:href="../../d7/dc4/waypoints_8qc.html#a5c2ed2db425ae03dadf19dede5799956" target="_top" xlink:title="waypoint_islinked">
<polygon fill="none" stroke="black" points="837,-38.5 837,-57.5 931,-57.5 931,-38.5 837,-38.5"/>
<text text-anchor="middle" x="884" y="-45.5" font-family="Helvetica,sans-Serif" font-size="10.00">waypoint_islinked</text>
</a>
</g>
</g>
<!-- Node14&#45;&gt;Node22 -->
<g id="edge25" class="edge"><title>Node14&#45;&gt;Node22</title>
<path fill="none" stroke="midnightblue" d="M792.366,-48C803.989,-48 815.845,-48 826.988,-48"/>
<polygon fill="midnightblue" stroke="midnightblue" points="826.993,-51.5001 836.993,-48 826.993,-44.5001 826.993,-51.5001"/>
</g>
<!-- Node15&#45;&gt;Node5 -->
<g id="edge18" class="edge"><title>Node15&#45;&gt;Node5</title>
<path fill="none" stroke="midnightblue" d="M920.788,-114.558C927.445,-117.103 934.141,-120.224 940,-124 959.555,-136.604 958.15,-147.08 976,-162 986.073,-170.419 998.089,-178.561 1008.57,-185.135"/>
<polygon fill="midnightblue" stroke="midnightblue" points="1006.93,-188.238 1017.29,-190.475 1010.59,-182.268 1006.93,-188.238"/>
</g>
<!-- Node15&#45;&gt;Node11 -->
<g id="edge17" class="edge"><title>Node15&#45;&gt;Node11</title>
<path fill="none" stroke="midnightblue" d="M922.599,-114.589C947.682,-120.986 980.23,-129.287 1003.66,-135.262"/>
<polygon fill="midnightblue" stroke="midnightblue" points="1002.85,-138.669 1013.41,-137.749 1004.58,-131.886 1002.85,-138.669"/>
</g>
<!-- Node16 -->
<g id="node16" class="node"><title>Node16</title>
<g id="a_node16"><a xlink:href="../../d7/dc4/waypoints_8qc.html#a4ff6fb4088c04ce31f0ca8c9e688777a" target="_top" xlink:title="waypoint_gettravelcost">
<polygon fill="none" stroke="black" points="976.5,-95.5 976.5,-114.5 1093.5,-114.5 1093.5,-95.5 976.5,-95.5"/>
<text text-anchor="middle" x="1035" y="-102.5" font-family="Helvetica,sans-Serif" font-size="10.00">waypoint_gettravelcost</text>
</a>
</g>
</g>
<!-- Node15&#45;&gt;Node16 -->
<g id="edge19" class="edge"><title>Node15&#45;&gt;Node16</title>
<path fill="none" stroke="midnightblue" d="M938.372,-105C947.447,-105 956.979,-105 966.365,-105"/>
<polygon fill="midnightblue" stroke="midnightblue" points="966.463,-108.5 976.463,-105 966.463,-101.5 966.463,-108.5"/>
</g>
<!-- Node17 -->
<g id="node17" class="node"><title>Node17</title>
<g id="a_node17"><a xlink:href="../../d1/d9a/navigation_8qc.html#aa11c1bcb734cd6504a02ed3d2c634163" target="_top" xlink:title="navigation_check_submerged\l_state">
<polygon fill="none" stroke="black" points="1130,-172 1130,-202 1276,-202 1276,-172 1130,-172"/>
<text text-anchor="start" x="1138" y="-190" font-family="Helvetica,sans-Serif" font-size="10.00">navigation_check_submerged</text>
<text text-anchor="middle" x="1203" y="-179" font-family="Helvetica,sans-Serif" font-size="10.00">_state</text>
</a>
</g>
</g>
<!-- Node16&#45;&gt;Node17 -->
<g id="edge20" class="edge"><title>Node16&#45;&gt;Node17</title>
<path fill="none" stroke="midnightblue" d="M1074.35,-114.566C1081.17,-117.091 1088,-120.202 1094,-124 1113.66,-136.446 1110.46,-149.381 1130,-162 1133.13,-164.021 1136.44,-165.9 1139.86,-167.643"/>
<polygon fill="midnightblue" stroke="midnightblue" points="1138.55,-170.895 1149.09,-171.947 1141.51,-164.55 1138.55,-170.895"/>
</g>
<!-- Node18 -->
<g id="node18" class="node"><title>Node18</title>
<g id="a_node18"><a xlink:href="../../d8/de2/menudefs_8qc.html#a83f4d3f317a80e82e6b16ea61ea5efc3" target="_top" xlink:title="sqrt">
<polygon fill="none" stroke="black" points="1186.5,-133.5 1186.5,-152.5 1219.5,-152.5 1219.5,-133.5 1186.5,-133.5"/>
<text text-anchor="middle" x="1203" y="-140.5" font-family="Helvetica,sans-Serif" font-size="10.00">sqrt</text>
</a>
</g>
</g>
<!-- Node16&#45;&gt;Node18 -->
<g id="edge21" class="edge"><title>Node16&#45;&gt;Node18</title>
<path fill="none" stroke="midnightblue" d="M1077.89,-114.589C1108.95,-121.7 1150.3,-131.165 1176.54,-137.171"/>
<polygon fill="midnightblue" stroke="midnightblue" points="1175.93,-140.622 1186.46,-139.442 1177.49,-133.799 1175.93,-140.622"/>
</g>
<!-- Node19 -->
<g id="node19" class="node"><title>Node19</title>
<g id="a_node19"><a xlink:href="../../d8/de2/menudefs_8qc.html#a79d61ab0e4126e02af8bc36d432aedaf" target="_top" xlink:title="vlen">
<polygon fill="none" stroke="black" points="1185.5,-95.5 1185.5,-114.5 1220.5,-114.5 1220.5,-95.5 1185.5,-95.5"/>
<text text-anchor="middle" x="1203" y="-102.5" font-family="Helvetica,sans-Serif" font-size="10.00">vlen</text>
</a>
</g>
</g>
<!-- Node16&#45;&gt;Node19 -->
<g id="edge22" class="edge"><title>Node16&#45;&gt;Node19</title>
<path fill="none" stroke="midnightblue" d="M1093.59,-105C1121.31,-105 1153.21,-105 1175.19,-105"/>
<polygon fill="midnightblue" stroke="midnightblue" points="1175.42,-108.5 1185.42,-105 1175.42,-101.5 1175.42,-108.5"/>
</g>
<!-- Node20 -->
<g id="node20" class="node"><title>Node20</title>
<g id="a_node20"><a xlink:href="../../d7/dc4/waypoints_8qc.html#ae6323b7e0f8ebe2aff52580a4a043072" target="_top" xlink:title="waypoint_getlinearcost">
<polygon fill="none" stroke="black" points="1145,-57.5 1145,-76.5 1261,-76.5 1261,-57.5 1145,-57.5"/>
<text text-anchor="middle" x="1203" y="-64.5" font-family="Helvetica,sans-Serif" font-size="10.00">waypoint_getlinearcost</text>
</a>
</g>
</g>
<!-- Node16&#45;&gt;Node20 -->
<g id="edge23" class="edge"><title>Node16&#45;&gt;Node20</title>
<path fill="none" stroke="midnightblue" d="M1077.89,-95.411C1099.89,-90.3739 1127.05,-84.1562 1150.35,-78.8229"/>
<polygon fill="midnightblue" stroke="midnightblue" points="1151.45,-82.1633 1160.41,-76.5201 1149.88,-75.3398 1151.45,-82.1633"/>
</g>
<!-- Node21 -->
<g id="node21" class="node"><title>Node21</title>
<g id="a_node21"><a xlink:href="../../d7/dc4/waypoints_8qc.html#a399549857abcd6c3f94901ec1b6b5be4" target="_top" xlink:title="waypoint_getlinearcost\l_underwater">
<polygon fill="none" stroke="black" points="1145,-8 1145,-38 1261,-38 1261,-8 1145,-8"/>
<text text-anchor="start" x="1153" y="-26" font-family="Helvetica,sans-Serif" font-size="10.00">waypoint_getlinearcost</text>
<text text-anchor="middle" x="1203" y="-15" font-family="Helvetica,sans-Serif" font-size="10.00">_underwater</text>
</a>
</g>
</g>
<!-- Node16&#45;&gt;Node21 -->
<g id="edge24" class="edge"><title>Node16&#45;&gt;Node21</title>
<path fill="none" stroke="midnightblue" d="M1049.81,-95.3418C1067.7,-83.1433 1100.12,-62.0531 1130,-48 1134.67,-45.8036 1139.59,-43.6962 1144.57,-41.7016"/>
<polygon fill="midnightblue" stroke="midnightblue" points="1146.1,-44.8631 1154.18,-38.0113 1143.59,-38.3282 1146.1,-44.8631"/>
</g>
<!-- Node23 -->
<g id="node23" class="node"><title>Node23</title>
<g id="a_node23"><a xlink:href="../../d7/dc4/waypoints_8qc.html#aa32dd9faacb4df51d38f981d2ec47795" target="_top" xlink:title="waypoint_getlinknum">
<polygon fill="none" stroke="black" points="981,-38.5 981,-57.5 1089,-57.5 1089,-38.5 981,-38.5"/>
<text text-anchor="middle" x="1035" y="-45.5" font-family="Helvetica,sans-Serif" font-size="10.00">waypoint_getlinknum</text>
</a>
</g>
</g>
<!-- Node22&#45;&gt;Node23 -->
<g id="edge26" class="edge"><title>Node22&#45;&gt;Node23</title>
<path fill="none" stroke="midnightblue" d="M931.328,-48C943.854,-48 957.626,-48 970.903,-48"/>
<polygon fill="midnightblue" stroke="midnightblue" points="970.931,-51.5001 980.931,-48 970.93,-44.5001 970.931,-51.5001"/>
</g>
</g>
</svg>
        <g id="navigator" transform="translate(0 0)" fill="#404254">
                <rect fill="#f2f5e9" fill-opacity="0.5" stroke="#606060" stroke-width=".5" x="0" y="0" width="60" height="60"/>
                <use id="zoomplus" xlink:href="#zoomPlus" x="17" y="9" onmousedown="handleZoom(evt,'in')"/>
                <use id="zoomminus" xlink:href="#zoomMin" x="42" y="9" onmousedown="handleZoom(evt,'out')"/>
                <use id="reset" xlink:href="#resetDef" x="30" y="36" onmousedown="handleReset()"/>
                <g id="arrowUp" xlink:href="#dirArrow" transform="translate(30 24)" onmousedown="handlePan(0,-1)">
                  <use xlink:href="#rim" fill="#404040">
                        <set attributeName="fill" to="#808080" begin="arrowUp.mouseover" end="arrowUp.mouseout"/>
                  </use>
                  <path fill="none" stroke="white" stroke-width="1.5" d="M0,-3.0v7 M-2.5,-0.5L0,-3.0L2.5,-0.5"/>
                </g>
                <g id="arrowRight" xlink:href="#dirArrow" transform="rotate(90) translate(36 -43)" onmousedown="handlePan(1,0)">
                  <use xlink:href="#rim" fill="#404040">
                        <set attributeName="fill" to="#808080" begin="arrowRight.mouseover" end="arrowRight.mouseout"/>
                  </use>
                  <path fill="none" stroke="white" stroke-width="1.5" d="M0,-3.0v7 M-2.5,-0.5L0,-3.0L2.5,-0.5"/>
                </g>
                <g id="arrowDown" xlink:href="#dirArrow" transform="rotate(180) translate(-30 -48)" onmousedown="handlePan(0,1)">
                  <use xlink:href="#rim" fill="#404040">
                        <set attributeName="fill" to="#808080" begin="arrowDown.mouseover" end="arrowDown.mouseout"/>
                  </use>
                  <path fill="none" stroke="white" stroke-width="1.5" d="M0,-3.0v7 M-2.5,-0.5L0,-3.0L2.5,-0.5"/>
                </g>
                <g id="arrowLeft" xlink:href="#dirArrow" transform="rotate(270) translate(-36 17)" onmousedown="handlePan(-1,0)">
                  <use xlink:href="#rim" fill="#404040">
                        <set attributeName="fill" to="#808080" begin="arrowLeft.mouseover" end="arrowLeft.mouseout"/>
                  </use>
                  <path fill="none" stroke="white" stroke-width="1.5" d="M0,-3.0v7 M-2.5,-0.5L0,-3.0L2.5,-0.5"/>
                </g>
        </g>
        <svg viewBox="0 0 15 15" width="100%" height="30px" preserveAspectRatio="xMaxYMin meet">
         <g id="arrow_out" transform="scale(0.3 0.3)">
          <a xlink:href="waypoints_8qh_a179e3b775f919c65b3b961ef5c2262b9_cgraph_org.svg" target="_base">
           <rect id="button" ry="5" rx="5" y="6" x="6" height="38" width="38"
                fill="#f2f5e9" fill-opacity="0.5" stroke="#606060" stroke-width="1.0"/>
           <path id="arrow"
             d="M 11.500037,31.436501 C 11.940474,20.09759 22.043105,11.32322 32.158766,21.979434 L 37.068811,17.246167 C 37.068811,17.246167 37.088388,32 37.088388,32 L 22.160133,31.978069 C 22.160133,31.978069 26.997745,27.140456 26.997745,27.140456 C 18.528582,18.264221 13.291696,25.230495 11.500037,31.436501 z"
             style="fill:#404040;"/>
          </a>
         </g>
        </svg>
</svg>
