<?xml version="1.0" encoding="UTF-8" standalone="no"?>
<!DOCTYPE svg PUBLIC "-//W3C//DTD SVG 1.1//EN"
 "http://www.w3.org/Graphics/SVG/1.1/DTD/svg11.dtd">
<!-- Generated by graphviz version 2.36.0 (20140111.2315)
 -->
<!-- Title: menu/xonotic/hudskinlist.qc Pages: 1 -->
<svg width="146pt" height="308pt"
 viewBox="0.00 0.00 146.00 308.00" xmlns="http://www.w3.org/2000/svg" xmlns:xlink="http://www.w3.org/1999/xlink">
<g id="graph0" class="graph" transform="scale(1 1) rotate(0) translate(4 304)">
<title>menu/xonotic/hudskinlist.qc</title>
<!-- Node1 -->
<g id="node1" class="node"><title>Node1</title>
<polygon fill="#bfbfbf" stroke="black" points="0,-280.5 0,-299.5 138,-299.5 138,-280.5 0,-280.5"/>
<text text-anchor="middle" x="69" y="-287.5" font-family="Helvetica,sans-Serif" font-size="10.00">menu/xonotic/hudskinlist.qc</text>
</g>
<!-- Node2 -->
<g id="node2" class="node"><title>Node2</title>
<g id="a_node2"><a xlink:href="../../db/dc9/xonotic_2listbox_8qc.html" target="_top" xlink:title="listbox.qc">
<polygon fill="none" stroke="black" points="39.5,-224.5 39.5,-243.5 98.5,-243.5 98.5,-224.5 39.5,-224.5"/>
<text text-anchor="middle" x="69" y="-231.5" font-family="Helvetica,sans-Serif" font-size="10.00">listbox.qc</text>
</a>
</g>
</g>
<!-- Node1&#45;&gt;Node2 -->
<g id="edge1" class="edge"><title>Node1&#45;&gt;Node2</title>
<path fill="none" stroke="midnightblue" d="M69,-280.083C69,-273.006 69,-262.861 69,-253.986"/>
<polygon fill="midnightblue" stroke="midnightblue" points="72.5001,-253.751 69,-243.751 65.5001,-253.751 72.5001,-253.751"/>
</g>
<!-- Node3 -->
<g id="node3" class="node"><title>Node3</title>
<g id="a_node3"><a xlink:href="../../db/d8e/item_2listbox_8qc.html" target="_top" xlink:title="../item/listbox.qc">
<polygon fill="none" stroke="black" points="24.5,-168.5 24.5,-187.5 113.5,-187.5 113.5,-168.5 24.5,-168.5"/>
<text text-anchor="middle" x="69" y="-175.5" font-family="Helvetica,sans-Serif" font-size="10.00">../item/listbox.qc</text>
</a>
</g>
</g>
<!-- Node2&#45;&gt;Node3 -->
<g id="edge2" class="edge"><title>Node2&#45;&gt;Node3</title>
<path fill="none" stroke="midnightblue" d="M69,-224.083C69,-217.006 69,-206.861 69,-197.986"/>
<polygon fill="midnightblue" stroke="midnightblue" points="72.5001,-197.751 69,-187.751 65.5001,-197.751 72.5001,-197.751"/>
</g>
<!-- Node4 -->
<g id="node4" class="node"><title>Node4</title>
<g id="a_node4"><a xlink:href="../../de/d9a/item_8qc.html" target="_top" xlink:title="../item.qc">
<polygon fill="none" stroke="black" points="40,-112.5 40,-131.5 98,-131.5 98,-112.5 40,-112.5"/>
<text text-anchor="middle" x="69" y="-119.5" font-family="Helvetica,sans-Serif" font-size="10.00">../item.qc</text>
</a>
</g>
</g>
<!-- Node3&#45;&gt;Node4 -->
<g id="edge3" class="edge"><title>Node3&#45;&gt;Node4</title>
<path fill="none" stroke="midnightblue" d="M69,-168.083C69,-161.006 69,-150.861 69,-141.986"/>
<polygon fill="midnightblue" stroke="midnightblue" points="72.5001,-141.751 69,-131.751 65.5001,-141.751 72.5001,-141.751"/>
</g>
<!-- Node5 -->
<g id="node5" class="node"><title>Node5</title>
<g id="a_node5"><a xlink:href="../../d4/dcc/skin_8qh.html" target="_top" xlink:title="skin.qh">
<polygon fill="none" stroke="black" points="45,-56.5 45,-75.5 93,-75.5 93,-56.5 45,-56.5"/>
<text text-anchor="middle" x="69" y="-63.5" font-family="Helvetica,sans-Serif" font-size="10.00">skin.qh</text>
</a>
</g>
</g>
<!-- Node4&#45;&gt;Node5 -->
<g id="edge4" class="edge"><title>Node4&#45;&gt;Node5</title>
<path fill="none" stroke="midnightblue" d="M69,-112.083C69,-105.006 69,-94.8611 69,-85.9865"/>
<polygon fill="midnightblue" stroke="midnightblue" points="72.5001,-85.751 69,-75.7511 65.5001,-85.7511 72.5001,-85.751"/>
</g>
<!-- Node6 -->
<g id="node6" class="node"><title>Node6</title>
<g id="a_node6"><a xlink:href="../../d4/d90/skin-customizables_8inc.html" target="_top" xlink:title="skin&#45;customizables.inc">
<polygon fill="none" stroke="black" points="11,-0.5 11,-19.5 127,-19.5 127,-0.5 11,-0.5"/>
<text text-anchor="middle" x="69" y="-7.5" font-family="Helvetica,sans-Serif" font-size="10.00">skin&#45;customizables.inc</text>
</a>
</g>
</g>
<!-- Node5&#45;&gt;Node6 -->
<g id="edge5" class="edge"><title>Node5&#45;&gt;Node6</title>
<path fill="none" stroke="midnightblue" d="M69,-56.083C69,-49.0059 69,-38.8611 69,-29.9865"/>
<polygon fill="midnightblue" stroke="midnightblue" points="72.5001,-29.751 69,-19.7511 65.5001,-29.7511 72.5001,-29.751"/>
</g>
</g>
</svg>
