<?xml version="1.0" encoding="UTF-8" standalone="no"?>
<!DOCTYPE svg PUBLIC "-//W3C//DTD SVG 1.1//EN"
 "http://www.w3.org/Graphics/SVG/1.1/DTD/svg11.dtd">
<!-- Generated by graphviz version 2.38.0 (20140413.2041)
 -->
<!-- Title: server/mapvoting.qh Pages: 1 -->
<svg width="676pt" height="252pt"
 viewBox="0.00 0.00 675.50 252.00" xmlns="http://www.w3.org/2000/svg" xmlns:xlink="http://www.w3.org/1999/xlink">
<g id="graph0" class="graph" transform="scale(1 1) rotate(0) translate(4 248)">
<title>server/mapvoting.qh</title>
<!-- Node1 -->
<g id="node1" class="node"><title>Node1</title>
<polygon fill="#bfbfbf" stroke="black" points="262.5,-224.5 262.5,-243.5 378.5,-243.5 378.5,-224.5 262.5,-224.5"/>
<text text-anchor="middle" x="320.5" y="-231.5" font-family="Helvetica,sans-Serif" font-size="10.00">server/mapvoting.qh</text>
</g>
<!-- Node2 -->
<g id="node2" class="node"><title>Node2</title>
<g id="a_node2"><a xlink:href="../../d0/dc4/server_2chat_8qc.html" target="_top" xlink:title="server/chat.qc">
<polygon fill="none" stroke="black" points="0,-112.5 0,-131.5 85,-131.5 85,-112.5 0,-112.5"/>
<text text-anchor="middle" x="42.5" y="-119.5" font-family="Helvetica,sans-Serif" font-size="10.00">server/chat.qc</text>
</a>
</g>
</g>
<!-- Node1&#45;&gt;Node2 -->
<g id="edge1" class="edge"><title>Node1&#45;&gt;Node2</title>
<path fill="none" stroke="midnightblue" d="M289.127,-220.586C232.172,-198.05 113.141,-150.951 64.2129,-131.591"/>
<polygon fill="midnightblue" stroke="midnightblue" points="288.099,-223.944 298.686,-224.368 290.675,-217.435 288.099,-223.944"/>
</g>
<!-- Node5 -->
<g id="node5" class="node"><title>Node5</title>
<g id="a_node5"><a xlink:href="../../d6/dc4/intermission_8qc.html" target="_top" xlink:title="server/intermission.qc">
<polygon fill="none" stroke="black" points="103.5,-112.5 103.5,-131.5 225.5,-131.5 225.5,-112.5 103.5,-112.5"/>
<text text-anchor="middle" x="164.5" y="-119.5" font-family="Helvetica,sans-Serif" font-size="10.00">server/intermission.qc</text>
</a>
</g>
</g>
<!-- Node1&#45;&gt;Node5 -->
<g id="edge4" class="edge"><title>Node1&#45;&gt;Node5</title>
<path fill="none" stroke="midnightblue" d="M299.819,-218.417C266.824,-195.151 203.287,-150.35 176.684,-131.591"/>
<polygon fill="midnightblue" stroke="midnightblue" points="298.069,-221.466 308.259,-224.368 302.103,-215.745 298.069,-221.466"/>
</g>
<!-- Node6 -->
<g id="node6" class="node"><title>Node6</title>
<g id="a_node6"><a xlink:href="../../d2/d76/server_2mapvoting_8qc.html" target="_top" xlink:title="server/mapvoting.qc">
<polygon fill="none" stroke="black" points="244,-112.5 244,-131.5 359,-131.5 359,-112.5 244,-112.5"/>
<text text-anchor="middle" x="301.5" y="-119.5" font-family="Helvetica,sans-Serif" font-size="10.00">server/mapvoting.qc</text>
</a>
</g>
</g>
<!-- Node1&#45;&gt;Node6 -->
<g id="edge6" class="edge"><title>Node1&#45;&gt;Node6</title>
<path fill="none" stroke="midnightblue" d="M312.188,-215.12C308.834,-207.022 305.33,-197.215 303.5,-188 299.543,-168.067 300.162,-144.03 300.878,-131.514"/>
<polygon fill="midnightblue" stroke="midnightblue" points="308.991,-216.544 316.219,-224.291 315.399,-213.728 308.991,-216.544"/>
</g>
<!-- Node7 -->
<g id="node7" class="node"><title>Node7</title>
<g id="a_node7"><a xlink:href="../../dd/dbe/world_8qc.html" target="_top" xlink:title="server/world.qc">
<polygon fill="none" stroke="black" points="313,-168.5 313,-187.5 402,-187.5 402,-168.5 313,-168.5"/>
<text text-anchor="middle" x="357.5" y="-175.5" font-family="Helvetica,sans-Serif" font-size="10.00">server/world.qc</text>
</a>
</g>
</g>
<!-- Node1&#45;&gt;Node7 -->
<g id="edge8" class="edge"><title>Node1&#45;&gt;Node7</title>
<path fill="none" stroke="midnightblue" d="M332.446,-215.566C338.812,-206.275 346.367,-195.248 351.504,-187.751"/>
<polygon fill="midnightblue" stroke="midnightblue" points="329.375,-213.855 326.61,-224.083 335.149,-217.812 329.375,-213.855"/>
</g>
<!-- Node8 -->
<g id="node8" class="node"><title>Node8</title>
<g id="a_node8"><a xlink:href="../../d8/d1d/cmd_8qc.html" target="_top" xlink:title="server/command/cmd.qc">
<polygon fill="none" stroke="black" points="420,-168.5 420,-187.5 557,-187.5 557,-168.5 420,-168.5"/>
<text text-anchor="middle" x="488.5" y="-175.5" font-family="Helvetica,sans-Serif" font-size="10.00">server/command/cmd.qc</text>
</a>
</g>
</g>
<!-- Node1&#45;&gt;Node8 -->
<g id="edge10" class="edge"><title>Node1&#45;&gt;Node8</title>
<path fill="none" stroke="midnightblue" d="M356.886,-221.304C388.542,-211.129 433.668,-196.625 462.004,-187.516"/>
<polygon fill="midnightblue" stroke="midnightblue" points="355.569,-218.051 347.12,-224.444 357.711,-224.715 355.569,-218.051"/>
</g>
<!-- Node10 -->
<g id="node10" class="node"><title>Node10</title>
<g id="a_node10"><a xlink:href="../../db/d52/server_2__mod_8qh.html" target="_top" xlink:title="server/_mod.qh">
<polygon fill="none" stroke="black" points="575.5,-168.5 575.5,-187.5 667.5,-187.5 667.5,-168.5 575.5,-168.5"/>
<text text-anchor="middle" x="621.5" y="-175.5" font-family="Helvetica,sans-Serif" font-size="10.00">server/_mod.qh</text>
</a>
</g>
</g>
<!-- Node1&#45;&gt;Node10 -->
<g id="edge13" class="edge"><title>Node1&#45;&gt;Node10</title>
<path fill="none" stroke="midnightblue" d="M378.173,-222.653C435.412,-212.385 522.043,-196.843 575.018,-187.339"/>
<polygon fill="midnightblue" stroke="midnightblue" points="377.419,-219.233 368.194,-224.444 378.655,-226.123 377.419,-219.233"/>
</g>
<!-- Node3 -->
<g id="node3" class="node"><title>Node3</title>
<g id="a_node3"><a xlink:href="../../dc/d7f/server_2__mod_8inc.html" target="_top" xlink:title="server/_mod.inc">
<polygon fill="none" stroke="black" points="255,-56.5 255,-75.5 348,-75.5 348,-56.5 255,-56.5"/>
<text text-anchor="middle" x="301.5" y="-63.5" font-family="Helvetica,sans-Serif" font-size="10.00">server/_mod.inc</text>
</a>
</g>
</g>
<!-- Node2&#45;&gt;Node3 -->
<g id="edge2" class="edge"><title>Node2&#45;&gt;Node3</title>
<path fill="none" stroke="midnightblue" d="M93.6017,-110.346C142.548,-100.141 215.454,-84.94 260.653,-75.5164"/>
<polygon fill="midnightblue" stroke="midnightblue" points="92.6144,-106.976 83.5393,-112.444 94.0432,-113.829 92.6144,-106.976"/>
</g>
<!-- Node4 -->
<g id="node4" class="node"><title>Node4</title>
<g id="a_node4"><a xlink:href="../../dd/d96/server_2progs_8inc.html" target="_top" xlink:title="server/progs.inc">
<polygon fill="none" stroke="black" points="255,-0.5 255,-19.5 348,-19.5 348,-0.5 255,-0.5"/>
<text text-anchor="middle" x="301.5" y="-7.5" font-family="Helvetica,sans-Serif" font-size="10.00">server/progs.inc</text>
</a>
</g>
</g>
<!-- Node3&#45;&gt;Node4 -->
<g id="edge3" class="edge"><title>Node3&#45;&gt;Node4</title>
<path fill="none" stroke="midnightblue" d="M301.5,-45.8045C301.5,-36.9102 301.5,-26.7798 301.5,-19.7511"/>
<polygon fill="midnightblue" stroke="midnightblue" points="298,-46.083 301.5,-56.083 305,-46.083 298,-46.083"/>
</g>
<!-- Node5&#45;&gt;Node3 -->
<g id="edge5" class="edge"><title>Node5&#45;&gt;Node3</title>
<path fill="none" stroke="midnightblue" d="M195.523,-108.772C221.257,-98.6287 257.186,-84.4669 279.894,-75.5164"/>
<polygon fill="midnightblue" stroke="midnightblue" points="194.228,-105.52 186.208,-112.444 196.795,-112.033 194.228,-105.52"/>
</g>
<!-- Node6&#45;&gt;Node3 -->
<g id="edge7" class="edge"><title>Node6&#45;&gt;Node3</title>
<path fill="none" stroke="midnightblue" d="M301.5,-101.805C301.5,-92.9102 301.5,-82.7798 301.5,-75.7511"/>
<polygon fill="midnightblue" stroke="midnightblue" points="298,-102.083 301.5,-112.083 305,-102.083 298,-102.083"/>
</g>
<!-- Node7&#45;&gt;Node3 -->
<g id="edge9" class="edge"><title>Node7&#45;&gt;Node3</title>
<path fill="none" stroke="midnightblue" d="M365.869,-159.201C370.998,-145.554 375.237,-126.64 367.5,-112 358.363,-94.7117 339.269,-82.8163 323.959,-75.6178"/>
<polygon fill="midnightblue" stroke="midnightblue" points="362.629,-157.878 361.958,-168.452 369.076,-160.604 362.629,-157.878"/>
</g>
<!-- Node9 -->
<g id="node9" class="node"><title>Node9</title>
<g id="a_node9"><a xlink:href="../../d8/db6/server_2command_2__mod_8inc.html" target="_top" xlink:title="server/command/_mod.inc">
<polygon fill="none" stroke="black" points="416,-112.5 416,-131.5 561,-131.5 561,-112.5 416,-112.5"/>
<text text-anchor="middle" x="488.5" y="-119.5" font-family="Helvetica,sans-Serif" font-size="10.00">server/command/_mod.inc</text>
</a>
</g>
</g>
<!-- Node8&#45;&gt;Node9 -->
<g id="edge11" class="edge"><title>Node8&#45;&gt;Node9</title>
<path fill="none" stroke="midnightblue" d="M488.5,-157.805C488.5,-148.91 488.5,-138.78 488.5,-131.751"/>
<polygon fill="midnightblue" stroke="midnightblue" points="485,-158.083 488.5,-168.083 492,-158.083 485,-158.083"/>
</g>
<!-- Node9&#45;&gt;Node3 -->
<g id="edge12" class="edge"><title>Node9&#45;&gt;Node3</title>
<path fill="none" stroke="midnightblue" d="M448.91,-109.568C413.634,-99.381 362.806,-84.7034 330.992,-75.5164"/>
<polygon fill="midnightblue" stroke="midnightblue" points="448.291,-113.032 458.869,-112.444 450.233,-106.307 448.291,-113.032"/>
</g>
</g>
</svg>
