<?xml version="1.0" encoding="UTF-8" standalone="no"?>
<!DOCTYPE svg PUBLIC "-//W3C//DTD SVG 1.1//EN"
 "http://www.w3.org/Graphics/SVG/1.1/DTD/svg11.dtd">
<!-- Generated by graphviz version 2.36.0 (20140111.2315)
 -->
<!-- Title: setplayermodel Pages: 1 -->
<!--zoomable 370 -->
<svg id="main" version="1.1" xmlns="http://www.w3.org/2000/svg" xmlns:xlink="http://www.w3.org/1999/xlink" xml:space="preserve" onload="init(evt)">
<style type="text/css"><![CDATA[
.edge:hover path { stroke: red; }
.edge:hover polygon { stroke: red; fill: red; }
]]></style>
<script type="text/javascript"><![CDATA[
var edges = document.getElementsByTagName('g');
if (edges && edges.length) {
  for (var i=0;i<edges.length;i++) {
    if (edges[i].id.substr(0,4)=='edge') {
      edges[i].setAttribute('class','edge');
    }
  }
}
]]></script>
        <defs>
                <circle id="rim" cx="0" cy="0" r="7"/>
                <circle id="rim2" cx="0" cy="0" r="3.5"/>
                <g id="zoomPlus">
                        <use xlink:href="#rim" fill="#404040">
                                <set attributeName="fill" to="#808080" begin="zoomplus.mouseover" end="zoomplus.mouseout"/>
                        </use>
                        <path d="M-4,0h8M0,-4v8" fill="none" stroke="white" stroke-width="1.5" pointer-events="none"/>
                </g>
                <g id="zoomMin">
                        <use xlink:href="#rim" fill="#404040">
                                <set attributeName="fill" to="#808080" begin="zoomminus.mouseover" end="zoomminus.mouseout"/>
                        </use>
                        <path d="M-4,0h8" fill="none" stroke="white" stroke-width="1.5" pointer-events="none"/>
                </g>
                <g id="dirArrow">
                        <path fill="none" stroke="white" stroke-width="1.5" d="M0,-3.0v7 M-2.5,-0.5L0,-3.0L2.5,-0.5"/>
                </g>
               <g id="resetDef">
                       <use xlink:href="#rim2" fill="#404040">
                               <set attributeName="fill" to="#808080" begin="reset.mouseover" end="reset.mouseout"/>
                       </use>
               </g>
        </defs>

<script type="text/javascript">
var viewWidth = 928;
var viewHeight = 370;
var sectionId = 'dynsection-99';
</script>
<script xlink:href="../../svgpan.js"/>
<svg id="graph" class="graph">
<g id="viewport">
<title>setplayermodel</title>
<!-- Node1 -->
<g id="node1" class="node"><title>Node1</title>
<polygon fill="#bfbfbf" stroke="black" points="0.5,-285.5 0.5,-304.5 83.5,-304.5 83.5,-285.5 0.5,-285.5"/>
<text text-anchor="middle" x="42" y="-292.5" font-family="Helvetica,sans-Serif" font-size="10.00">setplayermodel</text>
</g>
<!-- Node2 -->
<g id="node2" class="node"><title>Node2</title>
<g id="a_node2"><a xlink:href="../../d5/d26/server_2defs_8qh.html#af02653db703c3e3f494f19b4f6f8b8b1" target="_top" xlink:title="player_setupanimsformodel">
<polygon fill="none" stroke="black" points="120,-304.5 120,-323.5 256,-323.5 256,-304.5 120,-304.5"/>
<text text-anchor="middle" x="188" y="-311.5" font-family="Helvetica,sans-Serif" font-size="10.00">player_setupanimsformodel</text>
</a>
</g>
</g>
<!-- Node1&#45;&gt;Node2 -->
<g id="edge1" class="edge"><title>Node1&#45;&gt;Node2</title>
<path fill="none" stroke="midnightblue" d="M83.8794,-300.394C92.0353,-301.47 100.851,-302.633 109.774,-303.81"/>
<polygon fill="midnightblue" stroke="midnightblue" points="109.493,-307.304 119.865,-305.142 110.409,-300.364 109.493,-307.304"/>
</g>
<!-- Node3 -->
<g id="node3" class="node"><title>Node3</title>
<g id="a_node3"><a xlink:href="../../d9/d45/globalsound_8qc.html#a38180551f3a5aaa493a6e5a181046000" target="_top" xlink:title="UpdatePlayerSounds">
<polygon fill="none" stroke="black" points="133.5,-266.5 133.5,-285.5 242.5,-285.5 242.5,-266.5 133.5,-266.5"/>
<text text-anchor="middle" x="188" y="-273.5" font-family="Helvetica,sans-Serif" font-size="10.00">UpdatePlayerSounds</text>
</a>
</g>
</g>
<!-- Node1&#45;&gt;Node3 -->
<g id="edge2" class="edge"><title>Node1&#45;&gt;Node3</title>
<path fill="none" stroke="midnightblue" d="M83.8794,-289.606C96.1375,-287.989 109.886,-286.175 123.25,-284.411"/>
<polygon fill="midnightblue" stroke="midnightblue" points="123.908,-287.855 133.364,-283.077 122.992,-280.915 123.908,-287.855"/>
</g>
<!-- Node4 -->
<g id="node4" class="node"><title>Node4</title>
<g id="a_node4"><a xlink:href="../../d9/d45/globalsound_8qc.html#acc226d4ed744cf98c0ee5ff8356757b8" target="_top" xlink:title="ClearPlayerSounds">
<polygon fill="none" stroke="black" points="302.5,-342.5 302.5,-361.5 403.5,-361.5 403.5,-342.5 302.5,-342.5"/>
<text text-anchor="middle" x="353" y="-349.5" font-family="Helvetica,sans-Serif" font-size="10.00">ClearPlayerSounds</text>
</a>
</g>
</g>
<!-- Node3&#45;&gt;Node4 -->
<g id="edge3" class="edge"><title>Node3&#45;&gt;Node4</title>
<path fill="none" stroke="midnightblue" d="M233.776,-285.55C241.441,-288.059 249.138,-291.169 256,-295 274.952,-305.58 273.624,-316.448 292,-328 298.334,-331.982 305.44,-335.518 312.485,-338.57"/>
<polygon fill="midnightblue" stroke="midnightblue" points="311.395,-341.905 321.977,-342.429 314.031,-335.42 311.395,-341.905"/>
</g>
<!-- Node5 -->
<g id="node5" class="node"><title>Node5</title>
<g id="a_node5"><a xlink:href="../../d8/de2/menudefs_8qc.html#ab64c3a0e7d347975b8b7a5cd17ab0113" target="_top" xlink:title="strunzone">
<polygon fill="none" stroke="black" points="496.5,-342.5 496.5,-361.5 555.5,-361.5 555.5,-342.5 496.5,-342.5"/>
<text text-anchor="middle" x="526" y="-349.5" font-family="Helvetica,sans-Serif" font-size="10.00">strunzone</text>
</a>
</g>
</g>
<!-- Node3&#45;&gt;Node5 -->
<g id="edge23" class="edge"><title>Node3&#45;&gt;Node5</title>
<path fill="none" stroke="midnightblue" d="M231.214,-285.548C296.997,-300.428 422.984,-328.925 486.448,-343.28"/>
<polygon fill="midnightblue" stroke="midnightblue" points="485.919,-346.749 496.445,-345.541 487.463,-339.921 485.919,-346.749"/>
</g>
<!-- Node6 -->
<g id="node6" class="node"><title>Node6</title>
<g id="a_node6"><a xlink:href="../../da/d44/common_2util_8qc.html#aa2768b93f157e5fec4abc65b6a5d8622" target="_top" xlink:title="get_model_datafilename">
<polygon fill="none" stroke="black" points="292,-266.5 292,-285.5 414,-285.5 414,-266.5 292,-266.5"/>
<text text-anchor="middle" x="353" y="-273.5" font-family="Helvetica,sans-Serif" font-size="10.00">get_model_datafilename</text>
</a>
</g>
</g>
<!-- Node3&#45;&gt;Node6 -->
<g id="edge5" class="edge"><title>Node3&#45;&gt;Node6</title>
<path fill="none" stroke="midnightblue" d="M242.824,-276C255.19,-276 268.52,-276 281.474,-276"/>
<polygon fill="midnightblue" stroke="midnightblue" points="281.756,-279.5 291.756,-276 281.756,-272.5 281.756,-279.5"/>
</g>
<!-- Node9 -->
<g id="node9" class="node"><title>Node9</title>
<g id="a_node9"><a xlink:href="../../d9/d45/globalsound_8qc.html#a3e65432ddf30f6729addae6c2bf79de9" target="_top" xlink:title="LoadPlayerSounds">
<polygon fill="none" stroke="black" points="304,-171.5 304,-190.5 402,-190.5 402,-171.5 304,-171.5"/>
<text text-anchor="middle" x="353" y="-178.5" font-family="Helvetica,sans-Serif" font-size="10.00">LoadPlayerSounds</text>
</a>
</g>
</g>
<!-- Node3&#45;&gt;Node9 -->
<g id="edge8" class="edge"><title>Node3&#45;&gt;Node9</title>
<path fill="none" stroke="midnightblue" d="M205.526,-266.368C234.083,-249.725 292.84,-215.48 326.613,-195.796"/>
<polygon fill="midnightblue" stroke="midnightblue" points="328.553,-198.717 335.43,-190.657 325.028,-192.669 328.553,-198.717"/>
</g>
<!-- Node20 -->
<g id="node20" class="node"><title>Node20</title>
<g id="a_node20"><a xlink:href="../../d8/de2/menudefs_8qc.html#ae06db7c87845d853670a09a1d487b1db" target="_top" xlink:title="strzone">
<polygon fill="none" stroke="black" points="501.5,-0.5 501.5,-19.5 550.5,-19.5 550.5,-0.5 501.5,-0.5"/>
<text text-anchor="middle" x="526" y="-7.5" font-family="Helvetica,sans-Serif" font-size="10.00">strzone</text>
</a>
</g>
</g>
<!-- Node3&#45;&gt;Node20 -->
<g id="edge24" class="edge"><title>Node3&#45;&gt;Node20</title>
<path fill="none" stroke="midnightblue" d="M195.787,-266.436C222.897,-229.032 327.876,-91.6363 450,-29 462.858,-22.4055 478.153,-17.9981 491.567,-15.1043"/>
<polygon fill="midnightblue" stroke="midnightblue" points="492.249,-18.5373 501.387,-13.1752 490.9,-11.6686 492.249,-18.5373"/>
</g>
<!-- Node4&#45;&gt;Node5 -->
<g id="edge4" class="edge"><title>Node4&#45;&gt;Node5</title>
<path fill="none" stroke="midnightblue" d="M403.92,-352C430.025,-352 461.516,-352 485.839,-352"/>
<polygon fill="midnightblue" stroke="midnightblue" points="486.125,-355.5 496.125,-352 486.125,-348.5 486.125,-355.5"/>
</g>
<!-- Node7 -->
<g id="node7" class="node"><title>Node7</title>
<g id="a_node7"><a xlink:href="../../d8/de2/menudefs_8qc.html#abbb0d86741e0056b6c04f7280c185d76" target="_top" xlink:title="ftos">
<polygon fill="none" stroke="black" points="509.5,-304.5 509.5,-323.5 542.5,-323.5 542.5,-304.5 509.5,-304.5"/>
<text text-anchor="middle" x="526" y="-311.5" font-family="Helvetica,sans-Serif" font-size="10.00">ftos</text>
</a>
</g>
</g>
<!-- Node6&#45;&gt;Node7 -->
<g id="edge6" class="edge"><title>Node6&#45;&gt;Node7</title>
<path fill="none" stroke="midnightblue" d="M397.151,-285.589C429.468,-292.771 472.586,-302.352 499.57,-308.349"/>
<polygon fill="midnightblue" stroke="midnightblue" points="498.879,-311.781 509.4,-310.533 500.397,-304.947 498.879,-311.781"/>
</g>
<!-- Node8 -->
<g id="node8" class="node"><title>Node8</title>
<g id="a_node8"><a xlink:href="../../d8/de2/menudefs_8qc.html#ad76dc2b2895cd23f21e008f12a686158" target="_top" xlink:title="strcat">
<polygon fill="none" stroke="black" points="505.5,-266.5 505.5,-285.5 546.5,-285.5 546.5,-266.5 505.5,-266.5"/>
<text text-anchor="middle" x="526" y="-273.5" font-family="Helvetica,sans-Serif" font-size="10.00">strcat</text>
</a>
</g>
</g>
<!-- Node6&#45;&gt;Node8 -->
<g id="edge7" class="edge"><title>Node6&#45;&gt;Node8</title>
<path fill="none" stroke="midnightblue" d="M414.288,-276C441.723,-276 472.961,-276 495.244,-276"/>
<polygon fill="midnightblue" stroke="midnightblue" points="495.408,-279.5 505.408,-276 495.408,-272.5 495.408,-279.5"/>
</g>
<!-- Node9&#45;&gt;Node5 -->
<g id="edge21" class="edge"><title>Node9&#45;&gt;Node5</title>
<path fill="none" stroke="midnightblue" d="M362.922,-190.786C375.379,-204.763 398.224,-231.574 414,-257 433.705,-288.759 421.133,-309.259 450,-333 460.232,-341.415 473.713,-346.167 486.421,-348.828"/>
<polygon fill="midnightblue" stroke="midnightblue" points="485.92,-352.293 496.369,-350.544 487.11,-345.395 485.92,-352.293"/>
</g>
<!-- Node9&#45;&gt;Node8 -->
<g id="edge20" class="edge"><title>Node9&#45;&gt;Node8</title>
<path fill="none" stroke="midnightblue" d="M363.396,-190.75C379.564,-206.956 414.361,-239.393 450,-257 464.107,-263.969 481.007,-268.539 495.191,-271.446"/>
<polygon fill="midnightblue" stroke="midnightblue" points="494.943,-274.96 505.416,-273.356 496.229,-268.079 494.943,-274.96"/>
</g>
<!-- Node10 -->
<g id="node10" class="node"><title>Node10</title>
<g id="a_node10"><a xlink:href="../../d8/de2/menudefs_8qc.html#ae3e9d36eda7886f5fe58e5201291dd78" target="_top" xlink:title="argv">
<polygon fill="none" stroke="black" points="508.5,-228.5 508.5,-247.5 543.5,-247.5 543.5,-228.5 508.5,-228.5"/>
<text text-anchor="middle" x="526" y="-235.5" font-family="Helvetica,sans-Serif" font-size="10.00">argv</text>
</a>
</g>
</g>
<!-- Node9&#45;&gt;Node10 -->
<g id="edge9" class="edge"><title>Node9&#45;&gt;Node10</title>
<path fill="none" stroke="midnightblue" d="M375.822,-190.571C395.091,-198.797 424.074,-210.623 450,-219 465.942,-224.151 484.153,-228.793 498.638,-232.199"/>
<polygon fill="midnightblue" stroke="midnightblue" points="497.911,-235.623 508.44,-234.45 499.478,-228.801 497.911,-235.623"/>
</g>
<!-- Node11 -->
<g id="node11" class="node"><title>Node11</title>
<g id="a_node11"><a xlink:href="../../d8/de2/menudefs_8qc.html#a1a78b46b9db5c0d6fcee5be7697afa09" target="_top" xlink:title="fclose">
<polygon fill="none" stroke="black" points="504.5,-190.5 504.5,-209.5 547.5,-209.5 547.5,-190.5 504.5,-190.5"/>
<text text-anchor="middle" x="526" y="-197.5" font-family="Helvetica,sans-Serif" font-size="10.00">fclose</text>
</a>
</g>
</g>
<!-- Node9&#45;&gt;Node11 -->
<g id="edge10" class="edge"><title>Node9&#45;&gt;Node11</title>
<path fill="none" stroke="midnightblue" d="M402.088,-186.343C431.476,-189.608 468.21,-193.69 493.831,-196.537"/>
<polygon fill="midnightblue" stroke="midnightblue" points="493.752,-200.049 504.078,-197.675 494.525,-193.092 493.752,-200.049"/>
</g>
<!-- Node12 -->
<g id="node12" class="node"><title>Node12</title>
<g id="a_node12"><a xlink:href="../../d8/de2/menudefs_8qc.html#a0e7ecefd4e3af6c242077b24445e5f78" target="_top" xlink:title="fgets">
<polygon fill="none" stroke="black" points="507,-152.5 507,-171.5 545,-171.5 545,-152.5 507,-152.5"/>
<text text-anchor="middle" x="526" y="-159.5" font-family="Helvetica,sans-Serif" font-size="10.00">fgets</text>
</a>
</g>
</g>
<!-- Node9&#45;&gt;Node12 -->
<g id="edge11" class="edge"><title>Node9&#45;&gt;Node12</title>
<path fill="none" stroke="midnightblue" d="M402.088,-175.657C432.514,-172.276 470.813,-168.021 496.502,-165.166"/>
<polygon fill="midnightblue" stroke="midnightblue" points="497.127,-168.619 506.68,-164.036 496.354,-161.661 497.127,-168.619"/>
</g>
<!-- Node13 -->
<g id="node13" class="node"><title>Node13</title>
<g id="a_node13"><a xlink:href="../../d8/de2/menudefs_8qc.html#a5231f4ff2813f7de782b67d25a9e4cf9" target="_top" xlink:title="fopen">
<polygon fill="none" stroke="black" points="505.5,-114.5 505.5,-133.5 546.5,-133.5 546.5,-114.5 505.5,-114.5"/>
<text text-anchor="middle" x="526" y="-121.5" font-family="Helvetica,sans-Serif" font-size="10.00">fopen</text>
</a>
</g>
</g>
<!-- Node9&#45;&gt;Node13 -->
<g id="edge12" class="edge"><title>Node9&#45;&gt;Node13</title>
<path fill="none" stroke="midnightblue" d="M375.822,-171.429C395.091,-163.203 424.074,-151.377 450,-143 464.769,-138.228 481.485,-133.893 495.381,-130.573"/>
<polygon fill="midnightblue" stroke="midnightblue" points="496.436,-133.921 505.38,-128.241 494.846,-127.104 496.436,-133.921"/>
</g>
<!-- Node14 -->
<g id="node14" class="node"><title>Node14</title>
<g id="a_node14"><a xlink:href="../../d9/d45/globalsound_8qc.html#a7022de3163c4d07ba4bc0547443ae346" target="_top" xlink:title="GetPlayerSoundSampleField">
<polygon fill="none" stroke="black" points="455,-76.5 455,-95.5 597,-95.5 597,-76.5 455,-76.5"/>
<text text-anchor="middle" x="526" y="-83.5" font-family="Helvetica,sans-Serif" font-size="10.00">GetPlayerSoundSampleField</text>
</a>
</g>
</g>
<!-- Node9&#45;&gt;Node14 -->
<g id="edge13" class="edge"><title>Node9&#45;&gt;Node14</title>
<path fill="none" stroke="midnightblue" d="M363.396,-171.25C379.564,-155.044 414.361,-122.607 450,-105 454.697,-102.68 459.703,-100.625 464.815,-98.8098"/>
<polygon fill="midnightblue" stroke="midnightblue" points="466.287,-102.013 474.725,-95.6056 464.133,-95.3521 466.287,-102.013"/>
</g>
<!-- Node19 -->
<g id="node19" class="node"><title>Node19</title>
<g id="a_node19"><a xlink:href="../../d9/d45/globalsound_8qc.html#a6d27dd45d58d423f7c352182ea854ef7" target="_top" xlink:title="GetVoiceMessageSampleField">
<polygon fill="none" stroke="black" points="450.5,-38.5 450.5,-57.5 601.5,-57.5 601.5,-38.5 450.5,-38.5"/>
<text text-anchor="middle" x="526" y="-45.5" font-family="Helvetica,sans-Serif" font-size="10.00">GetVoiceMessageSampleField</text>
</a>
</g>
</g>
<!-- Node9&#45;&gt;Node19 -->
<g id="edge18" class="edge"><title>Node9&#45;&gt;Node19</title>
<path fill="none" stroke="midnightblue" d="M359.286,-171.297C371.879,-149.139 405.923,-94.6041 450,-67 453.362,-64.8946 456.946,-63.0221 460.657,-61.3568"/>
<polygon fill="midnightblue" stroke="midnightblue" points="462.073,-64.5606 470.086,-57.6295 459.499,-58.0508 462.073,-64.5606"/>
</g>
<!-- Node9&#45;&gt;Node20 -->
<g id="edge22" class="edge"><title>Node9&#45;&gt;Node20</title>
<path fill="none" stroke="midnightblue" d="M359.799,-171.389C379.525,-138.758 443.18,-33.9498 450,-29 461.955,-20.324 477.478,-15.5958 491.299,-13.0247"/>
<polygon fill="midnightblue" stroke="midnightblue" points="492.103,-16.4418 501.448,-11.4493 491.029,-9.52464 492.103,-16.4418"/>
</g>
<!-- Node15 -->
<g id="node15" class="node"><title>Node15</title>
<g id="a_node15"><a xlink:href="../../d9/d45/globalsound_8qc.html#a4d5d1ba467236a8e85f9c9cf18a86852" target="_top" xlink:title="_GetPlayerSoundSampleField">
<polygon fill="none" stroke="black" points="638.5,-57.5 638.5,-76.5 785.5,-76.5 785.5,-57.5 638.5,-57.5"/>
<text text-anchor="middle" x="712" y="-64.5" font-family="Helvetica,sans-Serif" font-size="10.00">_GetPlayerSoundSampleField</text>
</a>
</g>
</g>
<!-- Node14&#45;&gt;Node15 -->
<g id="edge14" class="edge"><title>Node14&#45;&gt;Node15</title>
<path fill="none" stroke="midnightblue" d="M597.087,-78.7627C607.323,-77.7057 617.944,-76.6091 628.4,-75.5293"/>
<polygon fill="midnightblue" stroke="midnightblue" points="628.77,-79.0098 638.358,-74.5011 628.051,-72.0468 628.77,-79.0098"/>
</g>
<!-- Node16 -->
<g id="node16" class="node"><title>Node16</title>
<g id="a_node16"><a xlink:href="../../d4/d0c/csprogsdefs_8qc.html#acbb54a239d76062465dccbc6a6c6e464" target="_top" xlink:title="entity">
<polygon fill="none" stroke="black" points="850.5,-95.5 850.5,-114.5 891.5,-114.5 891.5,-95.5 850.5,-95.5"/>
<text text-anchor="middle" x="871" y="-102.5" font-family="Helvetica,sans-Serif" font-size="10.00">entity</text>
</a>
</g>
</g>
<!-- Node15&#45;&gt;Node16 -->
<g id="edge15" class="edge"><title>Node15&#45;&gt;Node16</title>
<path fill="none" stroke="midnightblue" d="M752.618,-76.589C779.96,-83.207 815.723,-91.863 840.556,-97.8734"/>
<polygon fill="midnightblue" stroke="midnightblue" points="839.93,-101.323 850.473,-100.274 841.577,-94.5194 839.93,-101.323"/>
</g>
<!-- Node17 -->
<g id="node17" class="node"><title>Node17</title>
<g id="a_node17"><a xlink:href="../../d9/d45/globalsound_8qc.html#a4fc1198a586672f2b9459c628d386ca7" target="_top" xlink:title="GetPlayerSound">
<polygon fill="none" stroke="black" points="827,-57.5 827,-76.5 915,-76.5 915,-57.5 827,-57.5"/>
<text text-anchor="middle" x="871" y="-64.5" font-family="Helvetica,sans-Serif" font-size="10.00">GetPlayerSound</text>
</a>
</g>
</g>
<!-- Node15&#45;&gt;Node17 -->
<g id="edge16" class="edge"><title>Node15&#45;&gt;Node17</title>
<path fill="none" stroke="midnightblue" d="M785.526,-67C796.021,-67 806.659,-67 816.684,-67"/>
<polygon fill="midnightblue" stroke="midnightblue" points="816.878,-70.5001 826.878,-67 816.878,-63.5001 816.878,-70.5001"/>
</g>
<!-- Node18 -->
<g id="node18" class="node"><title>Node18</title>
<g id="a_node18"><a xlink:href="../../d9/d45/globalsound_8qc.html#a0f76411e16fb1a91bf97121690907cd7" target="_top" xlink:title="GetVoiceMessage">
<polygon fill="none" stroke="black" points="822.5,-19.5 822.5,-38.5 919.5,-38.5 919.5,-19.5 822.5,-19.5"/>
<text text-anchor="middle" x="871" y="-26.5" font-family="Helvetica,sans-Serif" font-size="10.00">GetVoiceMessage</text>
</a>
</g>
</g>
<!-- Node15&#45;&gt;Node18 -->
<g id="edge17" class="edge"><title>Node15&#45;&gt;Node18</title>
<path fill="none" stroke="midnightblue" d="M752.618,-57.411C773.336,-52.3965 798.888,-46.2119 820.856,-40.8947"/>
<polygon fill="midnightblue" stroke="midnightblue" points="821.771,-44.2744 830.667,-38.5201 820.124,-37.4708 821.771,-44.2744"/>
</g>
<!-- Node19&#45;&gt;Node15 -->
<g id="edge19" class="edge"><title>Node19&#45;&gt;Node15</title>
<path fill="none" stroke="midnightblue" d="M601.575,-55.7006C610.405,-56.6124 619.457,-57.5472 628.39,-58.4697"/>
<polygon fill="midnightblue" stroke="midnightblue" points="628.101,-61.9583 638.407,-59.504 628.82,-54.9953 628.101,-61.9583"/>
</g>
</g>
</svg>
        <g id="navigator" transform="translate(0 0)" fill="#404254">
                <rect fill="#f2f5e9" fill-opacity="0.5" stroke="#606060" stroke-width=".5" x="0" y="0" width="60" height="60"/>
                <use id="zoomplus" xlink:href="#zoomPlus" x="17" y="9" onmousedown="handleZoom(evt,'in')"/>
                <use id="zoomminus" xlink:href="#zoomMin" x="42" y="9" onmousedown="handleZoom(evt,'out')"/>
                <use id="reset" xlink:href="#resetDef" x="30" y="36" onmousedown="handleReset()"/>
                <g id="arrowUp" xlink:href="#dirArrow" transform="translate(30 24)" onmousedown="handlePan(0,-1)">
                  <use xlink:href="#rim" fill="#404040">
                        <set attributeName="fill" to="#808080" begin="arrowUp.mouseover" end="arrowUp.mouseout"/>
                  </use>
                  <path fill="none" stroke="white" stroke-width="1.5" d="M0,-3.0v7 M-2.5,-0.5L0,-3.0L2.5,-0.5"/>
                </g>
                <g id="arrowRight" xlink:href="#dirArrow" transform="rotate(90) translate(36 -43)" onmousedown="handlePan(1,0)">
                  <use xlink:href="#rim" fill="#404040">
                        <set attributeName="fill" to="#808080" begin="arrowRight.mouseover" end="arrowRight.mouseout"/>
                  </use>
                  <path fill="none" stroke="white" stroke-width="1.5" d="M0,-3.0v7 M-2.5,-0.5L0,-3.0L2.5,-0.5"/>
                </g>
                <g id="arrowDown" xlink:href="#dirArrow" transform="rotate(180) translate(-30 -48)" onmousedown="handlePan(0,1)">
                  <use xlink:href="#rim" fill="#404040">
                        <set attributeName="fill" to="#808080" begin="arrowDown.mouseover" end="arrowDown.mouseout"/>
                  </use>
                  <path fill="none" stroke="white" stroke-width="1.5" d="M0,-3.0v7 M-2.5,-0.5L0,-3.0L2.5,-0.5"/>
                </g>
                <g id="arrowLeft" xlink:href="#dirArrow" transform="rotate(270) translate(-36 17)" onmousedown="handlePan(-1,0)">
                  <use xlink:href="#rim" fill="#404040">
                        <set attributeName="fill" to="#808080" begin="arrowLeft.mouseover" end="arrowLeft.mouseout"/>
                  </use>
                  <path fill="none" stroke="white" stroke-width="1.5" d="M0,-3.0v7 M-2.5,-0.5L0,-3.0L2.5,-0.5"/>
                </g>
        </g>
        <svg viewBox="0 0 15 15" width="100%" height="30px" preserveAspectRatio="xMaxYMin meet">
         <g id="arrow_out" transform="scale(0.3 0.3)">
          <a xlink:href="server_2client_8qc_af26e733ad0d007af7a721579c731e890_cgraph_org.svg" target="_base">
           <rect id="button" ry="5" rx="5" y="6" x="6" height="38" width="38"
                fill="#f2f5e9" fill-opacity="0.5" stroke="#606060" stroke-width="1.0"/>
           <path id="arrow"
             d="M 11.500037,31.436501 C 11.940474,20.09759 22.043105,11.32322 32.158766,21.979434 L 37.068811,17.246167 C 37.068811,17.246167 37.088388,32 37.088388,32 L 22.160133,31.978069 C 22.160133,31.978069 26.997745,27.140456 26.997745,27.140456 C 18.528582,18.264221 13.291696,25.230495 11.500037,31.436501 z"
             style="fill:#404040;"/>
          </a>
         </g>
        </svg>
</svg>
