<?xml version="1.0" encoding="UTF-8" standalone="no"?>
<!DOCTYPE svg PUBLIC "-//W3C//DTD SVG 1.1//EN"
 "http://www.w3.org/Graphics/SVG/1.1/DTD/svg11.dtd">
<!-- Generated by graphviz version 2.40.1 (20161225.0304)
 -->
<!-- Title: CalcRot Pages: 1 -->
<svg width="617pt" height="28pt"
 viewBox="0.00 0.00 617.00 28.00" xmlns="http://www.w3.org/2000/svg" xmlns:xlink="http://www.w3.org/1999/xlink">
<g id="graph0" class="graph" transform="scale(1 1) rotate(0) translate(4 24)">
<title>CalcRot</title>
<!-- Node10 -->
<g id="node1" class="node">
<title>Node10</title>
<polygon fill="#bfbfbf" stroke="#000000" points="0,-.5 0,-19.5 53,-19.5 53,-.5 0,-.5"/>
<text text-anchor="middle" x="26.5" y="-7.5" font-family="Helvetica,sans-Serif" font-size="10.00" fill="#000000">CalcRot</text>
</g>
<!-- Node11 -->
<g id="node2" class="node">
<title>Node11</title>
<g id="a_node2"><a xlink:href="../../df/dd7/server_2client_8qc.html#a77abb2c5fcc00dc400f722976c42e660" target="_top" xlink:title="RotRegen">
<polygon fill="none" stroke="#000000" points="89,-.5 89,-19.5 151,-19.5 151,-.5 89,-.5"/>
<text text-anchor="middle" x="120" y="-7.5" font-family="Helvetica,sans-Serif" font-size="10.00" fill="#000000">RotRegen</text>
</a>
</g>
</g>
<!-- Node10&#45;&gt;Node11 -->
<g id="edge1" class="edge">
<title>Node10&#45;&gt;Node11</title>
<path fill="none" stroke="#191970" d="M63.0814,-10C71.5676,-10 80.5236,-10 88.7562,-10"/>
<polygon fill="#191970" stroke="#191970" points="63.0433,-6.5001 53.0432,-10 63.0432,-13.5001 63.0433,-6.5001"/>
</g>
<!-- Node12 -->
<g id="node3" class="node">
<title>Node12</title>
<g id="a_node3"><a xlink:href="../../df/dd7/server_2client_8qc.html#a86d11ca9bae40e7268a22973fe720d53" target="_top" xlink:title="player_regen">
<polygon fill="none" stroke="#000000" points="187,-.5 187,-19.5 267,-19.5 267,-.5 187,-.5"/>
<text text-anchor="middle" x="227" y="-7.5" font-family="Helvetica,sans-Serif" font-size="10.00" fill="#000000">player_regen</text>
</a>
</g>
</g>
<!-- Node11&#45;&gt;Node12 -->
<g id="edge2" class="edge">
<title>Node11&#45;&gt;Node12</title>
<path fill="none" stroke="#191970" d="M161.4724,-10C169.7766,-10 178.4884,-10 186.7504,-10"/>
<polygon fill="#191970" stroke="#191970" points="161.2365,-6.5001 151.2365,-10 161.2364,-13.5001 161.2365,-6.5001"/>
</g>
<!-- Node13 -->
<g id="node4" class="node">
<title>Node13</title>
<g id="a_node4"><a xlink:href="../../df/dd7/server_2client_8qc.html#aa07f86bdc6b9c9a812296f5c5ff48f95" target="_top" xlink:title="PlayerThink">
<polygon fill="none" stroke="#000000" points="303,-.5 303,-19.5 377,-19.5 377,-.5 303,-.5"/>
<text text-anchor="middle" x="340" y="-7.5" font-family="Helvetica,sans-Serif" font-size="10.00" fill="#000000">PlayerThink</text>
</a>
</g>
</g>
<!-- Node12&#45;&gt;Node13 -->
<g id="edge3" class="edge">
<title>Node12&#45;&gt;Node13</title>
<path fill="none" stroke="#191970" d="M277.198,-10C285.8718,-10 294.7462,-10 302.9898,-10"/>
<polygon fill="#191970" stroke="#191970" points="277.1578,-6.5001 267.1577,-10 277.1577,-13.5001 277.1578,-6.5001"/>
</g>
<!-- Node14 -->
<g id="node5" class="node">
<title>Node14</title>
<g id="a_node5"><a xlink:href="../../df/dd7/server_2client_8qc.html#ac4842064b7f7b032f654e24f1fa5a155" target="_top" xlink:title="PlayerPreThink">
<polygon fill="none" stroke="#000000" points="413,-.5 413,-19.5 503,-19.5 503,-.5 413,-.5"/>
<text text-anchor="middle" x="458" y="-7.5" font-family="Helvetica,sans-Serif" font-size="10.00" fill="#000000">PlayerPreThink</text>
</a>
</g>
</g>
<!-- Node13&#45;&gt;Node14 -->
<g id="edge4" class="edge">
<title>Node13&#45;&gt;Node14</title>
<path fill="none" stroke="#191970" d="M387.1273,-10C395.599,-10 404.4114,-10 412.8262,-10"/>
<polygon fill="#191970" stroke="#191970" points="387.0122,-6.5001 377.0122,-10 387.0121,-13.5001 387.0122,-6.5001"/>
</g>
<!-- Node15 -->
<g id="node6" class="node">
<title>Node15</title>
<g id="a_node6"><a xlink:href="../../db/d95/server_2main_8qc.html#a554af7e2ac58045168dad9eca30bc8b1" target="_top" xlink:title="StartFrame">
<polygon fill="none" stroke="#000000" points="539,-.5 539,-19.5 609,-19.5 609,-.5 539,-.5"/>
<text text-anchor="middle" x="574" y="-7.5" font-family="Helvetica,sans-Serif" font-size="10.00" fill="#000000">StartFrame</text>
</a>
</g>
</g>
<!-- Node14&#45;&gt;Node15 -->
<g id="edge5" class="edge">
<title>Node14&#45;&gt;Node15</title>
<path fill="none" stroke="#191970" d="M513.2953,-10C521.983,-10 530.7519,-10 538.8198,-10"/>
<polygon fill="#191970" stroke="#191970" points="513.1808,-6.5001 503.1808,-10 513.1808,-13.5001 513.1808,-6.5001"/>
</g>
</g>
</svg>
