<?xml version="1.0" encoding="UTF-8" standalone="no"?>
<!DOCTYPE svg PUBLIC "-//W3C//DTD SVG 1.1//EN"
 "http://www.w3.org/Graphics/SVG/1.1/DTD/svg11.dtd">
<!-- Generated by graphviz version 2.36.0 (20140111.2315)
 -->
<!-- Title: PlayerInIDList Pages: 1 -->
<svg width="824pt" height="28pt"
 viewBox="0.00 0.00 824.00 28.00" xmlns="http://www.w3.org/2000/svg" xmlns:xlink="http://www.w3.org/1999/xlink">
<g id="graph0" class="graph" transform="scale(1 1) rotate(0) translate(4 24)">
<title>PlayerInIDList</title>
<!-- Node1 -->
<g id="node1" class="node"><title>Node1</title>
<polygon fill="#bfbfbf" stroke="black" points="0.5,-0.5 0.5,-19.5 79.5,-19.5 79.5,-0.5 0.5,-0.5"/>
<text text-anchor="middle" x="40" y="-7.5" font-family="Helvetica,sans-Serif" font-size="10.00">PlayerInIDList</text>
</g>
<!-- Node2 -->
<g id="node2" class="node"><title>Node2</title>
<g id="a_node2"><a xlink:href="../../d8/de2/server_2client_8qh.html#add10a2edc8021068c2d62f1117d51246" target="_top" xlink:title="PlayerInList">
<polygon fill="none" stroke="black" points="116,-0.5 116,-19.5 184,-19.5 184,-0.5 116,-0.5"/>
<text text-anchor="middle" x="150" y="-7.5" font-family="Helvetica,sans-Serif" font-size="10.00">PlayerInList</text>
</a>
</g>
</g>
<!-- Node1&#45;&gt;Node2 -->
<g id="edge1" class="edge"><title>Node1&#45;&gt;Node2</title>
<path fill="none" stroke="midnightblue" d="M89.8931,-10C98.7087,-10 107.708,-10 115.938,-10"/>
<polygon fill="midnightblue" stroke="midnightblue" points="89.6855,-6.5001 79.6854,-10 89.6854,-13.5001 89.6855,-6.5001"/>
</g>
<!-- Node3 -->
<g id="node3" class="node"><title>Node3</title>
<g id="a_node3"><a xlink:href="../../d2/d76/teamplay_8qh.html#a3b8bbfc47faa42b457bcd3268b72f2a3" target="_top" xlink:title="Determines the forced team of the player using current global config. ">
<polygon fill="none" stroke="black" points="220.5,-0.5 220.5,-19.5 369.5,-19.5 369.5,-0.5 220.5,-0.5"/>
<text text-anchor="middle" x="295" y="-7.5" font-family="Helvetica,sans-Serif" font-size="10.00">Player_DetermineForcedTeam</text>
</a>
</g>
</g>
<!-- Node2&#45;&gt;Node3 -->
<g id="edge2" class="edge"><title>Node2&#45;&gt;Node3</title>
<path fill="none" stroke="midnightblue" d="M194.27,-10C202.532,-10 211.394,-10 220.301,-10"/>
<polygon fill="midnightblue" stroke="midnightblue" points="194.167,-6.5001 184.167,-10 194.166,-13.5001 194.167,-6.5001"/>
</g>
<!-- Node4 -->
<g id="node4" class="node"><title>Node4</title>
<g id="a_node4"><a xlink:href="../../df/dd7/server_2client_8qc.html#a54fdd4fa0492ab020e0a35c817a8f472" target="_top" xlink:title=" ClientConnect ">
<polygon fill="none" stroke="black" points="406.5,-0.5 406.5,-19.5 485.5,-19.5 485.5,-0.5 406.5,-0.5"/>
<text text-anchor="middle" x="446" y="-7.5" font-family="Helvetica,sans-Serif" font-size="10.00">ClientConnect</text>
</a>
</g>
</g>
<!-- Node3&#45;&gt;Node4 -->
<g id="edge3" class="edge"><title>Node3&#45;&gt;Node4</title>
<path fill="none" stroke="midnightblue" d="M379.656,-10C388.855,-10 397.865,-10 406.113,-10"/>
<polygon fill="midnightblue" stroke="midnightblue" points="379.627,-6.5001 369.627,-10 379.627,-13.5001 379.627,-6.5001"/>
</g>
<!-- Node5 -->
<g id="node5" class="node"><title>Node5</title>
<g id="a_node5"><a xlink:href="../../d1/da9/bot_8qh.html#a5e30e64bee22a5e4abf3bca9ae06f8fc" target="_top" xlink:title="bot_spawn">
<polygon fill="none" stroke="black" points="522,-0.5 522,-19.5 586,-19.5 586,-0.5 522,-0.5"/>
<text text-anchor="middle" x="554" y="-7.5" font-family="Helvetica,sans-Serif" font-size="10.00">bot_spawn</text>
</a>
</g>
</g>
<!-- Node4&#45;&gt;Node5 -->
<g id="edge4" class="edge"><title>Node4&#45;&gt;Node5</title>
<path fill="none" stroke="midnightblue" d="M495.849,-10C504.719,-10 513.745,-10 521.925,-10"/>
<polygon fill="midnightblue" stroke="midnightblue" points="495.568,-6.5001 485.568,-10 495.568,-13.5001 495.568,-6.5001"/>
</g>
<!-- Node6 -->
<g id="node6" class="node"><title>Node6</title>
<g id="a_node6"><a xlink:href="../../d1/da9/bot_8qh.html#a24b55d27684241fa9da5c23810d49f26" target="_top" xlink:title="bot_fixcount">
<polygon fill="none" stroke="black" points="622,-0.5 622,-19.5 692,-19.5 692,-0.5 622,-0.5"/>
<text text-anchor="middle" x="657" y="-7.5" font-family="Helvetica,sans-Serif" font-size="10.00">bot_fixcount</text>
</a>
</g>
</g>
<!-- Node5&#45;&gt;Node6 -->
<g id="edge5" class="edge"><title>Node5&#45;&gt;Node6</title>
<path fill="none" stroke="midnightblue" d="M596.297,-10C604.838,-10 613.743,-10 621.989,-10"/>
<polygon fill="midnightblue" stroke="midnightblue" points="596.127,-6.5001 586.127,-10 596.127,-13.5001 596.127,-6.5001"/>
</g>
<!-- Node7 -->
<g id="node7" class="node"><title>Node7</title>
<g id="a_node7"><a xlink:href="../../d1/da9/bot_8qh.html#aca1687b4e440adf8111b9438919a0b0a" target="_top" xlink:title="bot_serverframe">
<polygon fill="none" stroke="black" points="728.5,-0.5 728.5,-19.5 815.5,-19.5 815.5,-0.5 728.5,-0.5"/>
<text text-anchor="middle" x="772" y="-7.5" font-family="Helvetica,sans-Serif" font-size="10.00">bot_serverframe</text>
</a>
</g>
</g>
<!-- Node6&#45;&gt;Node7 -->
<g id="edge6" class="edge"><title>Node6&#45;&gt;Node7</title>
<path fill="none" stroke="midnightblue" d="M702.313,-10C710.796,-10 719.664,-10 728.102,-10"/>
<polygon fill="midnightblue" stroke="midnightblue" points="702.21,-6.5001 692.21,-10 702.21,-13.5001 702.21,-6.5001"/>
</g>
</g>
</svg>
