<?xml version="1.0" encoding="UTF-8" standalone="no"?>
<!DOCTYPE svg PUBLIC "-//W3C//DTD SVG 1.1//EN"
 "http://www.w3.org/Graphics/SVG/1.1/DTD/svg11.dtd">
<!-- Generated by graphviz version 2.40.1 (20161225.0304)
 -->
<!-- Title: SpectateCopy Pages: 1 -->
<!--zoomable 161 -->
<svg id="main" version="1.1" xmlns="http://www.w3.org/2000/svg" xmlns:xlink="http://www.w3.org/1999/xlink" xml:space="preserve" onload="init(evt)">
<style type="text/css"><![CDATA[
.edge:hover path { stroke: red; }
.edge:hover polygon { stroke: red; fill: red; }
]]></style>
<script type="text/javascript"><![CDATA[
var edges = document.getElementsByTagName('g');
if (edges && edges.length) {
  for (var i=0;i<edges.length;i++) {
    if (edges[i].id.substr(0,4)=='edge') {
      edges[i].setAttribute('class','edge');
    }
  }
}
]]></script>
        <defs>
                <circle id="rim" cx="0" cy="0" r="7"/>
                <circle id="rim2" cx="0" cy="0" r="3.5"/>
                <g id="zoomPlus">
                        <use xlink:href="#rim" fill="#404040">
                                <set attributeName="fill" to="#808080" begin="zoomplus.mouseover" end="zoomplus.mouseout"/>
                        </use>
                        <path d="M-4,0h8M0,-4v8" fill="none" stroke="white" stroke-width="1.5" pointer-events="none"/>
                </g>
                <g id="zoomMin">
                        <use xlink:href="#rim" fill="#404040">
                                <set attributeName="fill" to="#808080" begin="zoomminus.mouseover" end="zoomminus.mouseout"/>
                        </use>
                        <path d="M-4,0h8" fill="none" stroke="white" stroke-width="1.5" pointer-events="none"/>
                </g>
                <g id="dirArrow">
                        <path fill="none" stroke="white" stroke-width="1.5" d="M0,-3.0v7 M-2.5,-0.5L0,-3.0L2.5,-0.5"/>
                </g>
               <g id="resetDef">
                       <use xlink:href="#rim2" fill="#404040">
                               <set attributeName="fill" to="#808080" begin="reset.mouseover" end="reset.mouseout"/>
                       </use>
               </g>
        </defs>

<script type="text/javascript">
var viewWidth = 926;
var viewHeight = 161;
var sectionId = 'dynsection-114';
</script>
<script xlink:href="../../svgpan.js"/>
<svg id="graph" class="graph">
<g id="viewport">
<title>SpectateCopy</title>
<!-- Node10797 -->
<g id="node1" class="node">
<title>Node10797</title>
<polygon fill="#bfbfbf" stroke="#000000" points="0,-.5 0,-19.5 84,-19.5 84,-.5 0,-.5"/>
<text text-anchor="middle" x="42" y="-7.5" font-family="Helvetica,sans-Serif" font-size="10.00" fill="#000000">SpectateCopy</text>
</g>
<!-- Node10798 -->
<g id="node2" class="node">
<title>Node10798</title>
<g id="a_node2"><a xlink:href="../../df/dd7/server_2client_8qc.html#a3e9a26edec819b4a5e84fce635a1fa68" target="_top" xlink:title="SpectateUpdate">
<polygon fill="none" stroke="#000000" points="120,-.5 120,-19.5 215,-19.5 215,-.5 120,-.5"/>
<text text-anchor="middle" x="167.5" y="-7.5" font-family="Helvetica,sans-Serif" font-size="10.00" fill="#000000">SpectateUpdate</text>
</a>
</g>
</g>
<!-- Node10797&#45;&gt;Node10798 -->
<g id="edge1" class="edge">
<title>Node10797&#45;&gt;Node10798</title>
<path fill="none" stroke="#191970" d="M94.2324,-10C102.6477,-10 111.3227,-10 119.6286,-10"/>
<polygon fill="#191970" stroke="#191970" points="94.1388,-6.5001 84.1388,-10 94.1388,-13.5001 94.1388,-6.5001"/>
</g>
<!-- Node10799 -->
<g id="node3" class="node">
<title>Node10799</title>
<g id="a_node3"><a xlink:href="../../df/dd7/server_2client_8qc.html#a0626fbb86c705b3c7be4d0195a73627e" target="_top" xlink:title="SpectateSet">
<polygon fill="none" stroke="#000000" points="251,-38.5 251,-57.5 326,-57.5 326,-38.5 251,-38.5"/>
<text text-anchor="middle" x="288.5" y="-45.5" font-family="Helvetica,sans-Serif" font-size="10.00" fill="#000000">SpectateSet</text>
</a>
</g>
</g>
<!-- Node10798&#45;&gt;Node10799 -->
<g id="edge2" class="edge">
<title>Node10798&#45;&gt;Node10799</title>
<path fill="none" stroke="#191970" d="M207.8771,-22.6804C224.2262,-27.8148 242.7878,-33.6441 257.9764,-38.4141"/>
<polygon fill="#191970" stroke="#191970" points="208.6227,-19.2461 198.0334,-19.589 206.5253,-25.9245 208.6227,-19.2461"/>
</g>
<!-- Node10806 -->
<g id="node10" class="node">
<title>Node10806</title>
<g id="a_node10"><a xlink:href="../../df/dd7/server_2client_8qc.html#aa3e6c71b0017507513736e75fa53b27b" target="_top" xlink:title="ObserverOrSpectatorThink">
<polygon fill="none" stroke="#000000" points="481,-19.5 481,-38.5 627,-38.5 627,-19.5 481,-19.5"/>
<text text-anchor="middle" x="554" y="-26.5" font-family="Helvetica,sans-Serif" font-size="10.00" fill="#000000">ObserverOrSpectatorThink</text>
</a>
</g>
</g>
<!-- Node10798&#45;&gt;Node10806 -->
<g id="edge14" class="edge">
<title>Node10798&#45;&gt;Node10806</title>
<path fill="none" stroke="#191970" d="M225.3593,-7.1032C281.5822,-4.9713 369.3143,-3.4529 445,-10 466.434,-11.8541 489.9765,-15.7226 509.68,-19.488"/>
<polygon fill="#191970" stroke="#191970" points="225.0907,-3.611 215.238,-7.5066 225.3695,-10.6054 225.0907,-3.611"/>
</g>
<!-- Node10800 -->
<g id="node4" class="node">
<title>Node10800</title>
<g id="a_node4"><a xlink:href="../../d8/de2/server_2client_8qh.html#acd1560ca258ee21a90fd35530c8127b0" target="_top" xlink:title="Spectate">
<polygon fill="none" stroke="#000000" points="374,-95.5 374,-114.5 433,-114.5 433,-95.5 374,-95.5"/>
<text text-anchor="middle" x="403.5" y="-102.5" font-family="Helvetica,sans-Serif" font-size="10.00" fill="#000000">Spectate</text>
</a>
</g>
</g>
<!-- Node10799&#45;&gt;Node10800 -->
<g id="edge3" class="edge">
<title>Node10799&#45;&gt;Node10800</title>
<path fill="none" stroke="#191970" d="M315.4832,-62.3426C329.3128,-69.5935 346.4703,-78.4359 362,-86 368.4116,-89.1229 375.4442,-92.3983 381.8689,-95.3331"/>
<polygon fill="#191970" stroke="#191970" points="316.9804,-59.1754 306.5015,-57.6124 313.7185,-65.369 316.9804,-59.1754"/>
</g>
<!-- Node10805 -->
<g id="node9" class="node">
<title>Node10805</title>
<g id="a_node9"><a xlink:href="../../df/dd7/server_2client_8qc.html#a9762fc4a80a93fd0e0eba75f2b14c207" target="_top" xlink:title="SpectateNext">
<polygon fill="none" stroke="#000000" points="362,-57.5 362,-76.5 445,-76.5 445,-57.5 362,-57.5"/>
<text text-anchor="middle" x="403.5" y="-64.5" font-family="Helvetica,sans-Serif" font-size="10.00" fill="#000000">SpectateNext</text>
</a>
</g>
</g>
<!-- Node10799&#45;&gt;Node10805 -->
<g id="edge8" class="edge">
<title>Node10799&#45;&gt;Node10805</title>
<path fill="none" stroke="#191970" d="M336.2855,-55.895C344.75,-57.2935 353.5038,-58.7398 361.7842,-60.1078"/>
<polygon fill="#191970" stroke="#191970" points="336.5921,-52.3983 326.1553,-54.2213 335.451,-59.3047 336.5921,-52.3983"/>
</g>
<!-- Node10809 -->
<g id="node13" class="node">
<title>Node10809</title>
<g id="a_node13"><a xlink:href="../../df/dd7/server_2client_8qc.html#adbc32bfd245aaa7838b6c425d30c279d" target="_top" xlink:title="SpectatePrev">
<polygon fill="none" stroke="#000000" points="363,-19.5 363,-38.5 444,-38.5 444,-19.5 363,-19.5"/>
<text text-anchor="middle" x="403.5" y="-26.5" font-family="Helvetica,sans-Serif" font-size="10.00" fill="#000000">SpectatePrev</text>
</a>
</g>
</g>
<!-- Node10799&#45;&gt;Node10809 -->
<g id="edge12" class="edge">
<title>Node10799&#45;&gt;Node10809</title>
<path fill="none" stroke="#191970" d="M336.0642,-40.1416C345.0077,-38.6639 354.2819,-37.1317 362.9856,-35.6937"/>
<polygon fill="#191970" stroke="#191970" points="335.451,-36.6953 326.1553,-41.7787 336.5921,-43.6017 335.451,-36.6953"/>
</g>
<!-- Node10801 -->
<g id="node5" class="node">
<title>Node10801</title>
<g id="a_node5"><a xlink:href="../../da/d6b/sv__superspec_8qc.html#af718ac80b43bf3ea8caf199bb5ee907d" target="_top" xlink:title="superspec_Spectate">
<polygon fill="none" stroke="#000000" points="497,-133.5 497,-152.5 611,-152.5 611,-133.5 497,-133.5"/>
<text text-anchor="middle" x="554" y="-140.5" font-family="Helvetica,sans-Serif" font-size="10.00" fill="#000000">superspec_Spectate</text>
</a>
</g>
</g>
<!-- Node10800&#45;&gt;Node10801 -->
<g id="edge4" class="edge">
<title>Node10800&#45;&gt;Node10801</title>
<path fill="none" stroke="#191970" d="M443.197,-115.0232C465.8237,-120.7362 494.0189,-127.8553 516.3047,-133.4822"/>
<polygon fill="#191970" stroke="#191970" points="443.7865,-111.5622 433.234,-112.5076 442.0728,-118.3492 443.7865,-111.5622"/>
</g>
<!-- Node10803 -->
<g id="node7" class="node">
<title>Node10803</title>
<g id="a_node7"><a xlink:href="../../d8/de2/server_2client_8qh.html#ae13f26bc90a0d5fc3db15d435011da8c" target="_top" xlink:title="STATIC_INIT">
<polygon fill="none" stroke="#000000" points="517,-95.5 517,-114.5 591,-114.5 591,-95.5 517,-95.5"/>
<text text-anchor="middle" x="554" y="-102.5" font-family="Helvetica,sans-Serif" font-size="10.00" fill="#000000">STATIC_INIT</text>
</a>
</g>
</g>
<!-- Node10800&#45;&gt;Node10803 -->
<g id="edge6" class="edge">
<title>Node10800&#45;&gt;Node10803</title>
<path fill="none" stroke="#191970" d="M443.2718,-105C466.0737,-105 494.5116,-105 516.8581,-105"/>
<polygon fill="#191970" stroke="#191970" points="443.234,-101.5001 433.234,-105 443.2339,-108.5001 443.234,-101.5001"/>
</g>
<!-- Node10804 -->
<g id="node8" class="node">
<title>Node10804</title>
<g id="a_node8"><a xlink:href="../../d8/d1d/cmd_8qc.html#afd416e5d7be0d4195230692e36a19919" target="_top" xlink:title="ClientCommand_spectate">
<polygon fill="none" stroke="#000000" points="482.5,-57.5 482.5,-76.5 625.5,-76.5 625.5,-57.5 482.5,-57.5"/>
<text text-anchor="middle" x="554" y="-64.5" font-family="Helvetica,sans-Serif" font-size="10.00" fill="#000000">ClientCommand_spectate</text>
</a>
</g>
</g>
<!-- Node10800&#45;&gt;Node10804 -->
<g id="edge7" class="edge">
<title>Node10800&#45;&gt;Node10804</title>
<path fill="none" stroke="#191970" d="M443.197,-94.9768C465.8237,-89.2638 494.0189,-82.1447 516.3047,-76.5178"/>
<polygon fill="#191970" stroke="#191970" points="442.0728,-91.6508 433.234,-97.4924 443.7865,-98.4378 442.0728,-91.6508"/>
</g>
<!-- Node10802 -->
<g id="node6" class="node">
<title>Node10802</title>
<g id="a_node6"><a xlink:href="../../dd/d0c/sv__ctf_8qc.html#adfd5aae63b2a5d8d688ce876a62c794f" target="_top" xlink:title="MUTATOR_HOOKFUNCTION">
<polygon fill="none" stroke="#000000" points="663,-133.5 663,-152.5 812,-152.5 812,-133.5 663,-133.5"/>
<text text-anchor="middle" x="737.5" y="-140.5" font-family="Helvetica,sans-Serif" font-size="10.00" fill="#000000">MUTATOR_HOOKFUNCTION</text>
</a>
</g>
</g>
<!-- Node10801&#45;&gt;Node10802 -->
<g id="edge5" class="edge">
<title>Node10801&#45;&gt;Node10802</title>
<path fill="none" stroke="#191970" d="M621.2494,-143C634.8056,-143 649.1319,-143 662.9214,-143"/>
<polygon fill="#191970" stroke="#191970" points="621.0547,-139.5001 611.0547,-143 621.0546,-146.5001 621.0547,-139.5001"/>
</g>
<!-- Node10805&#45;&gt;Node10806 -->
<g id="edge9" class="edge">
<title>Node10805&#45;&gt;Node10806</title>
<path fill="none" stroke="#191970" d="M451.1847,-54.96C472.2103,-49.6512 496.5674,-43.5012 516.2956,-38.5201"/>
<polygon fill="#191970" stroke="#191970" points="450.3164,-51.5693 441.4775,-57.411 452.0301,-58.3563 450.3164,-51.5693"/>
</g>
<!-- Node10807 -->
<g id="node11" class="node">
<title>Node10807</title>
<g id="a_node11"><a xlink:href="../../df/dd7/server_2client_8qc.html#ac4842064b7f7b032f654e24f1fa5a155" target="_top" xlink:title="PlayerPreThink">
<polygon fill="none" stroke="#000000" points="692.5,-19.5 692.5,-38.5 782.5,-38.5 782.5,-19.5 692.5,-19.5"/>
<text text-anchor="middle" x="737.5" y="-26.5" font-family="Helvetica,sans-Serif" font-size="10.00" fill="#000000">PlayerPreThink</text>
</a>
</g>
</g>
<!-- Node10806&#45;&gt;Node10807 -->
<g id="edge10" class="edge">
<title>Node10806&#45;&gt;Node10807</title>
<path fill="none" stroke="#191970" d="M637.2322,-29C656.2386,-29 675.7368,-29 692.4264,-29"/>
<polygon fill="#191970" stroke="#191970" points="637.0514,-25.5001 627.0513,-29 637.0513,-32.5001 637.0514,-25.5001"/>
</g>
<!-- Node10808 -->
<g id="node12" class="node">
<title>Node10808</title>
<g id="a_node12"><a xlink:href="../../db/d95/server_2main_8qc.html#a554af7e2ac58045168dad9eca30bc8b1" target="_top" xlink:title="StartFrame">
<polygon fill="none" stroke="#000000" points="848,-19.5 848,-38.5 918,-38.5 918,-19.5 848,-19.5"/>
<text text-anchor="middle" x="883" y="-26.5" font-family="Helvetica,sans-Serif" font-size="10.00" fill="#000000">StartFrame</text>
</a>
</g>
</g>
<!-- Node10807&#45;&gt;Node10808 -->
<g id="edge11" class="edge">
<title>Node10807&#45;&gt;Node10808</title>
<path fill="none" stroke="#191970" d="M792.824,-29C811.3315,-29 831.4376,-29 847.9582,-29"/>
<polygon fill="#191970" stroke="#191970" points="792.7396,-25.5001 782.7395,-29 792.7395,-32.5001 792.7396,-25.5001"/>
</g>
<!-- Node10809&#45;&gt;Node10806 -->
<g id="edge13" class="edge">
<title>Node10809&#45;&gt;Node10806</title>
<path fill="none" stroke="#191970" d="M454.3408,-29C462.8496,-29 471.8253,-29 480.7632,-29"/>
<polygon fill="#191970" stroke="#191970" points="454.2275,-25.5001 444.2275,-29 454.2274,-32.5001 454.2275,-25.5001"/>
</g>
</g>
</svg>
        <g id="navigator" transform="translate(0 0)" fill="#404254">
                <rect fill="#f2f5e9" fill-opacity="0.5" stroke="#606060" stroke-width=".5" x="0" y="0" width="60" height="60"/>
                <use id="zoomplus" xlink:href="#zoomPlus" x="17" y="9" onmousedown="handleZoom(evt,'in')"/>
                <use id="zoomminus" xlink:href="#zoomMin" x="42" y="9" onmousedown="handleZoom(evt,'out')"/>
                <use id="reset" xlink:href="#resetDef" x="30" y="36" onmousedown="handleReset()"/>
                <g id="arrowUp" xlink:href="#dirArrow" transform="translate(30 24)" onmousedown="handlePan(0,-1)">
                  <use xlink:href="#rim" fill="#404040">
                        <set attributeName="fill" to="#808080" begin="arrowUp.mouseover" end="arrowUp.mouseout"/>
                  </use>
                  <path fill="none" stroke="white" stroke-width="1.5" d="M0,-3.0v7 M-2.5,-0.5L0,-3.0L2.5,-0.5"/>
                </g>
                <g id="arrowRight" xlink:href="#dirArrow" transform="rotate(90) translate(36 -43)" onmousedown="handlePan(1,0)">
                  <use xlink:href="#rim" fill="#404040">
                        <set attributeName="fill" to="#808080" begin="arrowRight.mouseover" end="arrowRight.mouseout"/>
                  </use>
                  <path fill="none" stroke="white" stroke-width="1.5" d="M0,-3.0v7 M-2.5,-0.5L0,-3.0L2.5,-0.5"/>
                </g>
                <g id="arrowDown" xlink:href="#dirArrow" transform="rotate(180) translate(-30 -48)" onmousedown="handlePan(0,1)">
                  <use xlink:href="#rim" fill="#404040">
                        <set attributeName="fill" to="#808080" begin="arrowDown.mouseover" end="arrowDown.mouseout"/>
                  </use>
                  <path fill="none" stroke="white" stroke-width="1.5" d="M0,-3.0v7 M-2.5,-0.5L0,-3.0L2.5,-0.5"/>
                </g>
                <g id="arrowLeft" xlink:href="#dirArrow" transform="rotate(270) translate(-36 17)" onmousedown="handlePan(-1,0)">
                  <use xlink:href="#rim" fill="#404040">
                        <set attributeName="fill" to="#808080" begin="arrowLeft.mouseover" end="arrowLeft.mouseout"/>
                  </use>
                  <path fill="none" stroke="white" stroke-width="1.5" d="M0,-3.0v7 M-2.5,-0.5L0,-3.0L2.5,-0.5"/>
                </g>
        </g>
        <svg viewBox="0 0 15 15" width="100%" height="30px" preserveAspectRatio="xMaxYMin meet">
         <g id="arrow_out" transform="scale(0.3 0.3)">
          <a xlink:href="server_2client_8qc_a1565df9f317d13a6dda4f158fe18478d_icgraph_org.svg" target="_base">
           <rect id="button" ry="5" rx="5" y="6" x="6" height="38" width="38"
                fill="#f2f5e9" fill-opacity="0.5" stroke="#606060" stroke-width="1.0"/>
           <path id="arrow"
             d="M 11.500037,31.436501 C 11.940474,20.09759 22.043105,11.32322 32.158766,21.979434 L 37.068811,17.246167 C 37.068811,17.246167 37.088388,32 37.088388,32 L 22.160133,31.978069 C 22.160133,31.978069 26.997745,27.140456 26.997745,27.140456 C 18.528582,18.264221 13.291696,25.230495 11.500037,31.436501 z"
             style="fill:#404040;"/>
          </a>
         </g>
        </svg>
</svg>
