<?xml version="1.0" encoding="UTF-8" standalone="no"?>
<!DOCTYPE svg PUBLIC "-//W3C//DTD SVG 1.1//EN"
 "http://www.w3.org/Graphics/SVG/1.1/DTD/svg11.dtd">
<!-- Generated by graphviz version 2.38.0 (20140413.2041)
 -->
<!-- Title: checkSpectatorBlock Pages: 1 -->
<svg width="1546pt" height="511pt"
 viewBox="0.00 0.00 1546.00 511.20" xmlns="http://www.w3.org/2000/svg" xmlns:xlink="http://www.w3.org/1999/xlink">
<g id="graph0" class="graph" transform="scale(1 1) rotate(0) translate(4 507.195)">
<title>checkSpectatorBlock</title>
<!-- Node1 -->
<g id="node1" class="node"><title>Node1</title>
<polygon fill="#bfbfbf" stroke="black" points="0,-261.5 0,-280.5 117,-280.5 117,-261.5 0,-261.5"/>
<text text-anchor="middle" x="58.5" y="-268.5" font-family="Helvetica,sans-Serif" font-size="10.00">checkSpectatorBlock</text>
</g>
<!-- Node2 -->
<g id="node2" class="node"><title>Node2</title>
<g id="a_node2"><a xlink:href="../../db/d9f/state_8qh.html#afdb90637f8a711359249291ee3b3fde6" target="_top" xlink:title="CS">
<polygon fill="none" stroke="black" points="153,-261.5 153,-280.5 183,-280.5 183,-261.5 153,-261.5"/>
<text text-anchor="middle" x="168" y="-268.5" font-family="Helvetica,sans-Serif" font-size="10.00">CS</text>
</a>
</g>
</g>
<!-- Node1&#45;&gt;Node2 -->
<g id="edge1" class="edge"><title>Node1&#45;&gt;Node2</title>
<path fill="none" stroke="midnightblue" d="M117.027,-271C126.12,-271 135.068,-271 142.824,-271"/>
<polygon fill="midnightblue" stroke="midnightblue" points="142.884,-274.5 152.884,-271 142.884,-267.5 142.884,-274.5"/>
</g>
<!-- Node3 -->
<g id="node3" class="node"><title>Node3</title>
<g id="a_node3"><a xlink:href="../../db/d9f/state_8qh.html#afc32312bf25df126b18e078bedab7837" target="_top" xlink:title="ClientState_attach">
<polygon fill="none" stroke="black" points="220,-337.5 220,-356.5 326,-356.5 326,-337.5 220,-337.5"/>
<text text-anchor="middle" x="273" y="-344.5" font-family="Helvetica,sans-Serif" font-size="10.00">ClientState_attach</text>
</a>
</g>
</g>
<!-- Node2&#45;&gt;Node3 -->
<g id="edge2" class="edge"><title>Node2&#45;&gt;Node3</title>
<path fill="none" stroke="midnightblue" d="M176.25,-280.503C185.268,-291.815 201.611,-310.714 219,-323 224.305,-326.749 230.29,-330.128 236.278,-333.088"/>
<polygon fill="midnightblue" stroke="midnightblue" points="235.046,-336.374 245.593,-337.386 237.979,-330.018 235.046,-336.374"/>
</g>
<!-- Node4 -->
<g id="node4" class="node"><title>Node4</title>
<g id="a_node4"><a xlink:href="../../db/d9f/state_8qh.html#ae17cd2d1c2291942edc23455fc1db486" target="_top" xlink:title="ClientState_detach">
<polygon fill="none" stroke="black" points="219,-261.5 219,-280.5 327,-280.5 327,-261.5 219,-261.5"/>
<text text-anchor="middle" x="273" y="-268.5" font-family="Helvetica,sans-Serif" font-size="10.00">ClientState_detach</text>
</a>
</g>
</g>
<!-- Node2&#45;&gt;Node4 -->
<g id="edge3" class="edge"><title>Node2&#45;&gt;Node4</title>
<path fill="none" stroke="midnightblue" d="M183.322,-266.155C190.296,-265.253 199.218,-264.671 208.705,-264.41"/>
<polygon fill="midnightblue" stroke="midnightblue" points="208.793,-267.909 218.737,-264.254 208.684,-260.91 208.793,-267.909"/>
</g>
<!-- Node39 -->
<g id="node39" class="node"><title>Node39</title>
<g id="a_node39"><a xlink:href="../../d4/d0c/csprogsdefs_8qc.html#acbb54a239d76062465dccbc6a6c6e464" target="_top" xlink:title="entity">
<polygon fill="none" stroke="black" points="251,-40.5 251,-59.5 295,-59.5 295,-40.5 251,-40.5"/>
<text text-anchor="middle" x="273" y="-47.5" font-family="Helvetica,sans-Serif" font-size="10.00">entity</text>
</a>
</g>
</g>
<!-- Node2&#45;&gt;Node39 -->
<g id="edge60" class="edge"><title>Node2&#45;&gt;Node39</title>
<path fill="none" stroke="midnightblue" d="M168.674,-261.07C168.177,-229.737 170.75,-131.626 219,-74 224.826,-67.042 233.09,-62.0119 241.364,-58.4134"/>
<polygon fill="midnightblue" stroke="midnightblue" points="242.806,-61.6107 250.936,-54.817 240.344,-55.0579 242.806,-61.6107"/>
</g>
<!-- Node4&#45;&gt;Node2 -->
<g id="edge9" class="edge"><title>Node4&#45;&gt;Node2</title>
<path fill="none" stroke="midnightblue" d="M218.737,-277.746C209.843,-277.711 201.02,-277.407 193.329,-276.834"/>
<polygon fill="midnightblue" stroke="midnightblue" points="193.617,-273.345 183.322,-275.845 192.929,-280.312 193.617,-273.345"/>
</g>
<!-- Node5 -->
<g id="node5" class="node"><title>Node5</title>
<g id="a_node5"><a xlink:href="../../d0/d3f/state_8qc.html#a34f4025222e4edd5d1dcee5b90656bec" target="_top" xlink:title="accuracy_free">
<polygon fill="none" stroke="black" points="390,-242.5 390,-261.5 473,-261.5 473,-242.5 390,-242.5"/>
<text text-anchor="middle" x="431.5" y="-249.5" font-family="Helvetica,sans-Serif" font-size="10.00">accuracy_free</text>
</a>
</g>
</g>
<!-- Node4&#45;&gt;Node5 -->
<g id="edge4" class="edge"><title>Node4&#45;&gt;Node5</title>
<path fill="none" stroke="midnightblue" d="M327.421,-264.514C344.286,-262.467 362.869,-260.211 379.557,-258.185"/>
<polygon fill="midnightblue" stroke="midnightblue" points="380.165,-261.637 389.67,-256.957 379.321,-254.688 380.165,-261.637"/>
</g>
<!-- Node6 -->
<g id="node6" class="node"><title>Node6</title>
<g id="a_node6"><a xlink:href="../../d0/d3f/state_8qc.html#abbd5a2c9639d75d5ac7e98fbd60856ab" target="_top" xlink:title="anticheat_report_to\l_eventlog">
<polygon fill="none" stroke="black" points="376,-193 376,-223 487,-223 487,-193 376,-193"/>
<text text-anchor="start" x="384" y="-211" font-family="Helvetica,sans-Serif" font-size="10.00">anticheat_report_to</text>
<text text-anchor="middle" x="431.5" y="-200" font-family="Helvetica,sans-Serif" font-size="10.00">_eventlog</text>
</a>
</g>
</g>
<!-- Node4&#45;&gt;Node6 -->
<g id="edge5" class="edge"><title>Node4&#45;&gt;Node6</title>
<path fill="none" stroke="midnightblue" d="M295.459,-261.49C313.41,-253.618 339.744,-242.265 363,-233 368.355,-230.867 373.971,-228.691 379.581,-226.556"/>
<polygon fill="midnightblue" stroke="midnightblue" points="380.845,-229.82 388.969,-223.019 378.377,-223.27 380.845,-229.82"/>
</g>
<!-- Node7 -->
<g id="node7" class="node"><title>Node7</title>
<g id="a_node7"><a xlink:href="../../d0/d3f/state_8qc.html#ab10bcd46b240e1fd8154de39ddd5c40e" target="_top" xlink:title="bot_clientdisconnect">
<polygon fill="none" stroke="black" points="374,-154.5 374,-173.5 489,-173.5 489,-154.5 374,-154.5"/>
<text text-anchor="middle" x="431.5" y="-161.5" font-family="Helvetica,sans-Serif" font-size="10.00">bot_clientdisconnect</text>
</a>
</g>
</g>
<!-- Node4&#45;&gt;Node7 -->
<g id="edge6" class="edge"><title>Node4&#45;&gt;Node7</title>
<path fill="none" stroke="midnightblue" d="M280.932,-261.467C294.575,-243.399 326.754,-204.094 363,-183 366.832,-180.77 370.94,-178.789 375.168,-177.033"/>
<polygon fill="midnightblue" stroke="midnightblue" points="376.406,-180.307 384.555,-173.536 373.962,-173.748 376.406,-180.307"/>
</g>
<!-- Node8 -->
<g id="node8" class="node"><title>Node8</title>
<g id="a_node8"><a xlink:href="../../d0/d3f/state_8qc.html#a493d87cfdaad13d4de171211f5f7bc4d" target="_top" xlink:title="ClientData_Detach">
<polygon fill="none" stroke="black" points="378,-450.5 378,-469.5 485,-469.5 485,-450.5 378,-450.5"/>
<text text-anchor="middle" x="431.5" y="-457.5" font-family="Helvetica,sans-Serif" font-size="10.00">ClientData_Detach</text>
</a>
</g>
</g>
<!-- Node4&#45;&gt;Node8 -->
<g id="edge7" class="edge"><title>Node4&#45;&gt;Node8</title>
<path fill="none" stroke="midnightblue" d="M307.382,-280.623C314.72,-284.113 321.834,-288.787 327,-295 369.73,-346.388 316.52,-392.978 363,-441 364.852,-442.914 366.881,-444.639 369.042,-446.194"/>
<polygon fill="midnightblue" stroke="midnightblue" points="367.542,-449.371 377.943,-451.388 371.069,-443.325 367.542,-449.371"/>
</g>
<!-- Node9 -->
<g id="node9" class="node"><title>Node9</title>
<g id="a_node9"><a xlink:href="../../d0/d3f/state_8qc.html#ac87f3b0e72460f99913d0a56abac6990" target="_top" xlink:title="entcs_detach">
<polygon fill="none" stroke="black" points="391,-116.5 391,-135.5 472,-135.5 472,-116.5 391,-116.5"/>
<text text-anchor="middle" x="431.5" y="-123.5" font-family="Helvetica,sans-Serif" font-size="10.00">entcs_detach</text>
</a>
</g>
</g>
<!-- Node4&#45;&gt;Node9 -->
<g id="edge10" class="edge"><title>Node4&#45;&gt;Node9</title>
<path fill="none" stroke="midnightblue" d="M278.001,-261.418C288.357,-237.819 318.379,-176.527 363,-145 368.545,-141.082 374.877,-137.97 381.39,-135.498"/>
<polygon fill="midnightblue" stroke="midnightblue" points="382.601,-138.784 390.992,-132.315 380.398,-132.139 382.601,-138.784"/>
</g>
<!-- Node10 -->
<g id="node10" class="node"><title>Node10</title>
<g id="a_node10"><a xlink:href="../../d9/d89/getreplies_8qc.html#a9493fdb8b379fd22c688da7be4fc7782" target="_top" xlink:title="GetCvars">
<polygon fill="none" stroke="black" points="401,-394.5 401,-413.5 462,-413.5 462,-394.5 401,-394.5"/>
<text text-anchor="middle" x="431.5" y="-401.5" font-family="Helvetica,sans-Serif" font-size="10.00">GetCvars</text>
</a>
</g>
</g>
<!-- Node4&#45;&gt;Node10 -->
<g id="edge11" class="edge"><title>Node4&#45;&gt;Node10</title>
<path fill="none" stroke="midnightblue" d="M305.408,-280.514C313.23,-284.064 321.066,-288.795 327,-295 356.775,-326.136 330.964,-356.195 363,-385 370.74,-391.959 380.84,-396.39 390.859,-399.204"/>
<polygon fill="midnightblue" stroke="midnightblue" points="390.227,-402.65 400.761,-401.513 391.817,-395.833 390.227,-402.65"/>
</g>
<!-- Node36 -->
<g id="node36" class="node"><title>Node36</title>
<g id="a_node36"><a xlink:href="../../d0/d3f/state_8qc.html#ab6fc1ce2d31f2ad186b1180bda5b9021" target="_top" xlink:title="InventoryStorage_detach">
<polygon fill="none" stroke="black" points="363,-356.5 363,-375.5 500,-375.5 500,-356.5 363,-356.5"/>
<text text-anchor="middle" x="431.5" y="-363.5" font-family="Helvetica,sans-Serif" font-size="10.00">InventoryStorage_detach</text>
</a>
</g>
</g>
<!-- Node4&#45;&gt;Node36 -->
<g id="edge57" class="edge"><title>Node4&#45;&gt;Node36</title>
<path fill="none" stroke="midnightblue" d="M302.599,-280.6C311.012,-284.274 319.864,-289.047 327,-295 348.585,-313.006 340.12,-330.672 363,-347 365.725,-348.945 368.644,-350.691 371.683,-352.259"/>
<polygon fill="midnightblue" stroke="midnightblue" points="370.529,-355.576 381.088,-356.447 373.377,-349.182 370.529,-355.576"/>
</g>
<!-- Node37 -->
<g id="node37" class="node"><title>Node37</title>
<g id="a_node37"><a xlink:href="../../d0/d3f/state_8qc.html#a7fd595275a5ab3b24efdf5dc24933c46" target="_top" xlink:title="PlayerScore_Detach">
<polygon fill="none" stroke="black" points="375,-318.5 375,-337.5 488,-337.5 488,-318.5 375,-318.5"/>
<text text-anchor="middle" x="431.5" y="-325.5" font-family="Helvetica,sans-Serif" font-size="10.00">PlayerScore_Detach</text>
</a>
</g>
</g>
<!-- Node4&#45;&gt;Node37 -->
<g id="edge58" class="edge"><title>Node4&#45;&gt;Node37</title>
<path fill="none" stroke="midnightblue" d="M294.207,-280.515C312.056,-288.704 338.916,-300.509 363,-309 369.557,-311.312 376.548,-313.538 383.452,-315.601"/>
<polygon fill="midnightblue" stroke="midnightblue" points="382.867,-319.075 393.446,-318.499 384.816,-312.352 382.867,-319.075"/>
</g>
<!-- Node38 -->
<g id="node38" class="node"><title>Node38</title>
<g id="a_node38"><a xlink:href="../../d0/d3f/state_8qc.html#a8fe4ed7866766d38e6cf3bfd1c4b239e" target="_top" xlink:title="W_HitPlotClose">
<polygon fill="none" stroke="black" points="387.5,-280.5 387.5,-299.5 475.5,-299.5 475.5,-280.5 387.5,-280.5"/>
<text text-anchor="middle" x="431.5" y="-287.5" font-family="Helvetica,sans-Serif" font-size="10.00">W_HitPlotClose</text>
</a>
</g>
</g>
<!-- Node4&#45;&gt;Node38 -->
<g id="edge59" class="edge"><title>Node4&#45;&gt;Node38</title>
<path fill="none" stroke="midnightblue" d="M327.421,-277.486C343.474,-279.434 361.082,-281.572 377.131,-283.521"/>
<polygon fill="midnightblue" stroke="midnightblue" points="377.072,-287.039 387.421,-284.77 377.916,-280.09 377.072,-287.039"/>
</g>
<!-- Node8&#45;&gt;Node2 -->
<g id="edge8" class="edge"><title>Node8&#45;&gt;Node2</title>
<path fill="none" stroke="midnightblue" d="M377.886,-450.954C372.41,-448.401 367.289,-445.146 363,-441 325.1,-404.369 363.71,-365.824 327,-328 291.561,-291.485 266.787,-307.483 219,-290 210.444,-286.87 201.102,-283.348 192.834,-280.195"/>
<polygon fill="midnightblue" stroke="midnightblue" points="193.996,-276.892 183.405,-276.583 191.491,-283.429 193.996,-276.892"/>
</g>
<!-- Node10&#45;&gt;Node10 -->
<g id="edge14" class="edge"><title>Node10&#45;&gt;Node10</title>
<path fill="none" stroke="midnightblue" d="M407.148,-413.757C395.301,-422.565 403.418,-432 431.5,-432 449.929,-432 459.76,-427.937 460.992,-422.654"/>
<polygon fill="midnightblue" stroke="midnightblue" points="463.886,-420.665 455.852,-413.757 457.824,-424.167 463.886,-420.665"/>
</g>
<!-- Node11 -->
<g id="node11" class="node"><title>Node11</title>
<g id="a_node11"><a xlink:href="../../d1/dd8/server_2main_8qh.html#a9974b20c57efacc64d84960329620554" target="_top" xlink:title="strcat1">
<polygon fill="none" stroke="black" points="826.5,-398.5 826.5,-417.5 876.5,-417.5 876.5,-398.5 826.5,-398.5"/>
<text text-anchor="middle" x="851.5" y="-405.5" font-family="Helvetica,sans-Serif" font-size="10.00">strcat1</text>
</a>
</g>
</g>
<!-- Node10&#45;&gt;Node11 -->
<g id="edge12" class="edge"><title>Node10&#45;&gt;Node11</title>
<path fill="none" stroke="midnightblue" d="M462.226,-404.284C537.643,-405.006 736.102,-406.905 816.224,-407.672"/>
<polygon fill="midnightblue" stroke="midnightblue" points="816.246,-411.172 826.279,-407.768 816.313,-404.173 816.246,-411.172"/>
</g>
<!-- Node12 -->
<g id="node12" class="node"><title>Node12</title>
<g id="a_node12"><a xlink:href="../../d8/de2/menudefs_8qc.html#ae3e9d36eda7886f5fe58e5201291dd78" target="_top" xlink:title="argv">
<polygon fill="none" stroke="black" points="1458,-404.5 1458,-423.5 1496,-423.5 1496,-404.5 1458,-404.5"/>
<text text-anchor="middle" x="1477" y="-411.5" font-family="Helvetica,sans-Serif" font-size="10.00">argv</text>
</a>
</g>
</g>
<!-- Node10&#45;&gt;Node12 -->
<g id="edge13" class="edge"><title>Node10&#45;&gt;Node12</title>
<path fill="none" stroke="midnightblue" d="M452.695,-413.564C466.49,-420.453 484.927,-430.374 500,-441 517.497,-453.334 516.229,-464.792 536,-473 665.331,-526.691 710.467,-492 850.5,-492 850.5,-492 850.5,-492 1077.5,-492 1212.27,-492 1251.35,-511.156 1380,-471 1408.46,-462.116 1437.38,-443.327 1455.93,-429.745"/>
<polygon fill="midnightblue" stroke="midnightblue" points="1458.27,-432.369 1464.16,-423.562 1454.06,-426.773 1458.27,-432.369"/>
</g>
<!-- Node13 -->
<g id="node13" class="node"><title>Node13</title>
<g id="a_node13"><a xlink:href="../../d9/d89/getreplies_8qc.html#aad818a177c42603ffc7dc6e34406c050" target="_top" xlink:title="GetCvars_handleString\l_Fixup">
<polygon fill="none" stroke="black" points="565,-433 565,-463 692,-463 692,-433 565,-433"/>
<text text-anchor="start" x="573" y="-451" font-family="Helvetica,sans-Serif" font-size="10.00">GetCvars_handleString</text>
<text text-anchor="middle" x="628.5" y="-440" font-family="Helvetica,sans-Serif" font-size="10.00">_Fixup</text>
</a>
</g>
</g>
<!-- Node10&#45;&gt;Node13 -->
<g id="edge15" class="edge"><title>Node10&#45;&gt;Node13</title>
<path fill="none" stroke="midnightblue" d="M462.116,-410.683C486.738,-416.238 522.826,-424.381 555.013,-431.644"/>
<polygon fill="midnightblue" stroke="midnightblue" points="554.335,-435.079 564.86,-433.866 555.875,-428.25 554.335,-435.079"/>
</g>
<!-- Node16 -->
<g id="node16" class="node"><title>Node16</title>
<g id="a_node16"><a xlink:href="../../d9/d89/getreplies_8qc.html#aa4ac3dd1f661621de6a9f2bf5e6fb289" target="_top" xlink:title="W_FixWeaponOrder_ForceComplete\l_AndBuildImpulseList">
<polygon fill="none" stroke="black" points="536,-188 536,-218 721,-218 721,-188 536,-188"/>
<text text-anchor="start" x="544" y="-206" font-family="Helvetica,sans-Serif" font-size="10.00">W_FixWeaponOrder_ForceComplete</text>
<text text-anchor="middle" x="628.5" y="-195" font-family="Helvetica,sans-Serif" font-size="10.00">_AndBuildImpulseList</text>
</a>
</g>
</g>
<!-- Node10&#45;&gt;Node16 -->
<g id="edge20" class="edge"><title>Node10&#45;&gt;Node16</title>
<path fill="none" stroke="midnightblue" d="M462.339,-401.172C475.132,-398.649 489.513,-393.904 500,-385 528.798,-360.55 515.39,-339.66 536,-308 556.119,-277.094 584.742,-245.745 604.596,-225.451"/>
<polygon fill="midnightblue" stroke="midnightblue" points="607.189,-227.806 611.739,-218.238 602.216,-222.88 607.189,-227.806"/>
</g>
<!-- Node34 -->
<g id="node34" class="node"><title>Node34</title>
<g id="a_node34"><a xlink:href="../../d0/d2b/weapons_2all_8qc.html#a07ee4c440c94f2f2ec9997912dfde9e9" target="_top" xlink:title="W_FixWeaponOrder_AllowIncomplete">
<polygon fill="none" stroke="black" points="757,-306.5 757,-325.5 946,-325.5 946,-306.5 757,-306.5"/>
<text text-anchor="middle" x="851.5" y="-313.5" font-family="Helvetica,sans-Serif" font-size="10.00">W_FixWeaponOrder_AllowIncomplete</text>
</a>
</g>
</g>
<!-- Node10&#45;&gt;Node34 -->
<g id="edge51" class="edge"><title>Node10&#45;&gt;Node34</title>
<path fill="none" stroke="midnightblue" d="M462.242,-398.787C474.449,-395.86 488.407,-391.457 500,-385 518.962,-374.439 516.252,-361.008 536,-352 601.853,-321.961 683.189,-313.302 746.647,-311.975"/>
<polygon fill="midnightblue" stroke="midnightblue" points="746.727,-315.474 756.673,-311.822 746.621,-308.475 746.727,-315.474"/>
</g>
<!-- Node35 -->
<g id="node35" class="node"><title>Node35</title>
<g id="a_node35"><a xlink:href="../../d9/d89/getreplies_8qc.html#a87f18211483cf0fc854225867b1e7015" target="_top" xlink:title="GetCvars_handleFloat">
<polygon fill="none" stroke="black" points="1232.5,-404.5 1232.5,-423.5 1354.5,-423.5 1354.5,-404.5 1232.5,-404.5"/>
<text text-anchor="middle" x="1293.5" y="-411.5" font-family="Helvetica,sans-Serif" font-size="10.00">GetCvars_handleFloat</text>
</a>
</g>
</g>
<!-- Node10&#45;&gt;Node35 -->
<g id="edge53" class="edge"><title>Node10&#45;&gt;Node35</title>
<path fill="none" stroke="midnightblue" d="M462.014,-402.179C519.004,-398.763 648.183,-391.514 757,-389 840.978,-387.06 862.054,-385.976 946,-389 1041.94,-392.456 1152.53,-401.28 1222.46,-407.459"/>
<polygon fill="midnightblue" stroke="midnightblue" points="1222.21,-410.95 1232.48,-408.351 1222.83,-403.978 1222.21,-410.95"/>
</g>
<!-- Node13&#45;&gt;Node11 -->
<g id="edge19" class="edge"><title>Node13&#45;&gt;Node11</title>
<path fill="none" stroke="midnightblue" d="M692.239,-436.645C732.541,-429.35 783.34,-420.156 816.351,-414.181"/>
<polygon fill="midnightblue" stroke="midnightblue" points="817.192,-417.586 826.409,-412.36 815.945,-410.697 817.192,-417.586"/>
</g>
<!-- Node14 -->
<g id="node14" class="node"><title>Node14</title>
<g id="a_node14"><a xlink:href="../../d9/d89/getreplies_8qc.html#a7c662280a4c259425dad12e0d007f13a" target="_top" xlink:title="GetCvars_handleString">
<polygon fill="none" stroke="black" points="1230,-442.5 1230,-461.5 1357,-461.5 1357,-442.5 1230,-442.5"/>
<text text-anchor="middle" x="1293.5" y="-449.5" font-family="Helvetica,sans-Serif" font-size="10.00">GetCvars_handleString</text>
</a>
</g>
</g>
<!-- Node13&#45;&gt;Node14 -->
<g id="edge16" class="edge"><title>Node13&#45;&gt;Node14</title>
<path fill="none" stroke="midnightblue" d="M692.172,-448.378C815.371,-449.121 1088.48,-450.769 1219.55,-451.56"/>
<polygon fill="midnightblue" stroke="midnightblue" points="1219.86,-455.062 1229.88,-451.622 1219.9,-448.062 1219.86,-455.062"/>
</g>
<!-- Node14&#45;&gt;Node12 -->
<g id="edge17" class="edge"><title>Node14&#45;&gt;Node12</title>
<path fill="none" stroke="midnightblue" d="M1340.3,-442.411C1374.01,-435.353 1418.79,-425.978 1447.51,-419.965"/>
<polygon fill="midnightblue" stroke="midnightblue" points="1448.6,-423.312 1457.67,-417.837 1447.17,-416.461 1448.6,-423.312"/>
</g>
<!-- Node15 -->
<g id="node15" class="node"><title>Node15</title>
<g id="a_node15"><a xlink:href="../../d9/d09/notifications_2all_8inc.html#ad04f6b1a4889674503c3cdad58c55da1" target="_top" xlink:title="strcat">
<polygon fill="none" stroke="black" points="1455,-338.5 1455,-357.5 1499,-357.5 1499,-338.5 1455,-338.5"/>
<text text-anchor="middle" x="1477" y="-345.5" font-family="Helvetica,sans-Serif" font-size="10.00">strcat</text>
</a>
</g>
</g>
<!-- Node14&#45;&gt;Node15 -->
<g id="edge18" class="edge"><title>Node14&#45;&gt;Node15</title>
<path fill="none" stroke="midnightblue" d="M1357.3,-442.601C1365.22,-440.116 1372.99,-436.973 1380,-433 1400.24,-421.53 1398.8,-410.66 1416,-395 1428.16,-383.927 1442.66,-372.526 1454.36,-363.725"/>
<polygon fill="midnightblue" stroke="midnightblue" points="1456.73,-366.323 1462.67,-357.551 1452.56,-360.703 1456.73,-366.323"/>
</g>
<!-- Node16&#45;&gt;Node2 -->
<g id="edge42" class="edge"><title>Node16&#45;&gt;Node2</title>
<path fill="none" stroke="midnightblue" d="M614.041,-187.956C592.579,-165.227 548.089,-123.08 500,-107 442.254,-87.691 420.179,-86.07 363,-107 281.677,-136.768 210.972,-217.357 182.441,-253.291"/>
<polygon fill="midnightblue" stroke="midnightblue" points="179.502,-251.368 176.115,-261.406 185.023,-255.671 179.502,-251.368"/>
</g>
<!-- Node17 -->
<g id="node17" class="node"><title>Node17</title>
<g id="a_node17"><a xlink:href="../../d0/d2b/weapons_2all_8qc.html#a01fb8b4722cd9503ad28af6600e7e18c" target="_top" xlink:title="W_FixWeaponOrder_ForceComplete">
<polygon fill="none" stroke="black" points="759,-163.5 759,-182.5 944,-182.5 944,-163.5 759,-163.5"/>
<text text-anchor="middle" x="851.5" y="-170.5" font-family="Helvetica,sans-Serif" font-size="10.00">W_FixWeaponOrder_ForceComplete</text>
</a>
</g>
</g>
<!-- Node16&#45;&gt;Node17 -->
<g id="edge21" class="edge"><title>Node16&#45;&gt;Node17</title>
<path fill="none" stroke="midnightblue" d="M721.304,-190.538C737.453,-188.346 754.151,-186.079 769.963,-183.933"/>
<polygon fill="midnightblue" stroke="midnightblue" points="770.773,-187.355 780.211,-182.541 769.831,-180.418 770.773,-187.355"/>
</g>
<!-- Node30 -->
<g id="node30" class="node"><title>Node30</title>
<g id="a_node30"><a xlink:href="../../d0/d2b/weapons_2all_8qc.html#a6a9b42410f2d888f52a11253a2165203" target="_top" xlink:title="W_FixWeaponOrder_BuildImpulseList">
<polygon fill="none" stroke="black" points="982,-234.5 982,-253.5 1171,-253.5 1171,-234.5 982,-234.5"/>
<text text-anchor="middle" x="1076.5" y="-241.5" font-family="Helvetica,sans-Serif" font-size="10.00">W_FixWeaponOrder_BuildImpulseList</text>
</a>
</g>
</g>
<!-- Node16&#45;&gt;Node30 -->
<g id="edge43" class="edge"><title>Node16&#45;&gt;Node30</title>
<path fill="none" stroke="midnightblue" d="M721.101,-211.421C793.926,-218.115 895.815,-227.482 971.663,-234.454"/>
<polygon fill="midnightblue" stroke="midnightblue" points="971.438,-237.948 981.717,-235.379 972.079,-230.978 971.438,-237.948"/>
</g>
<!-- Node18 -->
<g id="node18" class="node"><title>Node18</title>
<g id="a_node18"><a xlink:href="../../d8/de2/menudefs_8qc.html#ad9529df35f16daeafe8583b1ab2b42b8" target="_top" xlink:title="cvar_defstring">
<polygon fill="none" stroke="black" points="1034.5,-114.5 1034.5,-133.5 1118.5,-133.5 1118.5,-114.5 1034.5,-114.5"/>
<text text-anchor="middle" x="1076.5" y="-121.5" font-family="Helvetica,sans-Serif" font-size="10.00">cvar_defstring</text>
</a>
</g>
</g>
<!-- Node17&#45;&gt;Node18 -->
<g id="edge22" class="edge"><title>Node17&#45;&gt;Node18</title>
<path fill="none" stroke="midnightblue" d="M892.398,-163.462C917.971,-157.422 951.894,-149.545 982,-143 995.806,-139.999 1010.79,-136.888 1024.64,-134.074"/>
<polygon fill="midnightblue" stroke="midnightblue" points="1025.38,-137.495 1034.49,-132.083 1023.99,-130.634 1025.38,-137.495"/>
</g>
<!-- Node19 -->
<g id="node19" class="node"><title>Node19</title>
<g id="a_node19"><a xlink:href="../../d0/d2b/weapons_2all_8qc.html#acb6d8a69c18135cd85a99ff515fe5bf6" target="_top" xlink:title="W_FixWeaponOrder">
<polygon fill="none" stroke="black" points="1023,-190.5 1023,-209.5 1130,-209.5 1130,-190.5 1023,-190.5"/>
<text text-anchor="middle" x="1076.5" y="-197.5" font-family="Helvetica,sans-Serif" font-size="10.00">W_FixWeaponOrder</text>
</a>
</g>
</g>
<!-- Node17&#45;&gt;Node19 -->
<g id="edge23" class="edge"><title>Node17&#45;&gt;Node19</title>
<path fill="none" stroke="midnightblue" d="M931.121,-182.519C957.793,-185.748 987.22,-189.311 1012.51,-192.374"/>
<polygon fill="midnightblue" stroke="midnightblue" points="1012.36,-195.881 1022.71,-193.609 1013.2,-188.932 1012.36,-195.881"/>
</g>
<!-- Node26 -->
<g id="node26" class="node"><title>Node26</title>
<g id="a_node26"><a xlink:href="../../d0/d2b/weapons_2all_8qc.html#a68c8b4f04f6cf4bd80ef078f2bea8d16" target="_top" xlink:title="W_NumberWeaponOrder">
<polygon fill="none" stroke="black" points="1009.5,-152.5 1009.5,-171.5 1143.5,-171.5 1143.5,-152.5 1009.5,-152.5"/>
<text text-anchor="middle" x="1076.5" y="-159.5" font-family="Helvetica,sans-Serif" font-size="10.00">W_NumberWeaponOrder</text>
</a>
</g>
</g>
<!-- Node17&#45;&gt;Node26 -->
<g id="edge32" class="edge"><title>Node17&#45;&gt;Node26</title>
<path fill="none" stroke="midnightblue" d="M944.168,-168.478C962.445,-167.577 981.456,-166.639 999.151,-165.766"/>
<polygon fill="midnightblue" stroke="midnightblue" points="999.587,-169.249 1009.4,-165.26 999.242,-162.257 999.587,-169.249"/>
</g>
<!-- Node20 -->
<g id="node20" class="node"><title>Node20</title>
<g id="a_node20"><a xlink:href="../../da/d44/common_2util_8qc.html#a1fa4c54efc174e1a6ec3545157865632" target="_top" xlink:title="fixPriorityList">
<polygon fill="none" stroke="black" points="1255,-114.5 1255,-133.5 1332,-133.5 1332,-114.5 1255,-114.5"/>
<text text-anchor="middle" x="1293.5" y="-121.5" font-family="Helvetica,sans-Serif" font-size="10.00">fixPriorityList</text>
</a>
</g>
</g>
<!-- Node19&#45;&gt;Node20 -->
<g id="edge24" class="edge"><title>Node19&#45;&gt;Node20</title>
<path fill="none" stroke="midnightblue" d="M1130.44,-195.035C1144.24,-192.219 1158.69,-187.83 1171,-181 1191.34,-169.715 1186.76,-154.47 1207,-143 1218.48,-136.493 1232.01,-132.214 1244.87,-129.401"/>
<polygon fill="midnightblue" stroke="midnightblue" points="1245.84,-132.779 1254.99,-127.444 1244.51,-125.906 1245.84,-132.779"/>
</g>
<!-- Node20&#45;&gt;Node12 -->
<g id="edge25" class="edge"><title>Node20&#45;&gt;Node12</title>
<path fill="none" stroke="midnightblue" d="M1332.39,-123.315C1349.21,-125.059 1367.9,-130.163 1380,-143 1449.15,-216.383 1364.78,-280.145 1416,-367 1423.82,-380.261 1436.92,-391.176 1448.9,-399.138"/>
<polygon fill="midnightblue" stroke="midnightblue" points="1447.38,-402.321 1457.72,-404.642 1451.09,-396.381 1447.38,-402.321"/>
</g>
<!-- Node20&#45;&gt;Node15 -->
<g id="edge29" class="edge"><title>Node20&#45;&gt;Node15</title>
<path fill="none" stroke="midnightblue" d="M1332.18,-125.102C1348.36,-127.291 1366.59,-132.253 1380,-143 1381,-143.799 1443.84,-278.838 1467.3,-329.282"/>
<polygon fill="midnightblue" stroke="midnightblue" points="1464.16,-330.839 1471.55,-338.431 1470.51,-327.888 1464.16,-330.839"/>
</g>
<!-- Node21 -->
<g id="node21" class="node"><title>Node21</title>
<g id="a_node21"><a xlink:href="../../d8/de2/menudefs_8qc.html#ad5a3e16aa960bd72d3ca37a618eea802" target="_top" xlink:title="floor">
<polygon fill="none" stroke="black" points="1458,-76.5 1458,-95.5 1496,-95.5 1496,-76.5 1458,-76.5"/>
<text text-anchor="middle" x="1477" y="-83.5" font-family="Helvetica,sans-Serif" font-size="10.00">floor</text>
</a>
</g>
</g>
<!-- Node20&#45;&gt;Node21 -->
<g id="edge26" class="edge"><title>Node20&#45;&gt;Node21</title>
<path fill="none" stroke="midnightblue" d="M1332.11,-116.126C1366.47,-108.931 1416.54,-98.4492 1447.64,-91.9366"/>
<polygon fill="midnightblue" stroke="midnightblue" points="1448.73,-95.2855 1457.8,-89.8104 1447.3,-88.434 1448.73,-95.2855"/>
</g>
<!-- Node22 -->
<g id="node22" class="node"><title>Node22</title>
<g id="a_node22"><a xlink:href="../../d8/de2/menudefs_8qc.html#abbb0d86741e0056b6c04f7280c185d76" target="_top" xlink:title="ftos">
<polygon fill="none" stroke="black" points="1459.5,-38.5 1459.5,-57.5 1494.5,-57.5 1494.5,-38.5 1459.5,-38.5"/>
<text text-anchor="middle" x="1477" y="-45.5" font-family="Helvetica,sans-Serif" font-size="10.00">ftos</text>
</a>
</g>
</g>
<!-- Node20&#45;&gt;Node22 -->
<g id="edge27" class="edge"><title>Node20&#45;&gt;Node22</title>
<path fill="none" stroke="midnightblue" d="M1332.17,-117.431C1347.64,-113.736 1365.32,-108.172 1380,-100 1398.97,-89.4457 1397.21,-77.8659 1416,-67 1426.32,-61.0309 1438.75,-56.6983 1449.61,-53.6916"/>
<polygon fill="midnightblue" stroke="midnightblue" points="1450.58,-57.0545 1459.42,-51.205 1448.86,-50.269 1450.58,-57.0545"/>
</g>
<!-- Node23 -->
<g id="node23" class="node"><title>Node23</title>
<g id="a_node23"><a xlink:href="../../d8/de2/menudefs_8qc.html#a2f6d3020689c0e872cfb455d0b2cbd4a" target="_top" xlink:title="stof">
<polygon fill="none" stroke="black" points="1459.5,-114.5 1459.5,-133.5 1494.5,-133.5 1494.5,-114.5 1459.5,-114.5"/>
<text text-anchor="middle" x="1477" y="-121.5" font-family="Helvetica,sans-Serif" font-size="10.00">stof</text>
</a>
</g>
</g>
<!-- Node20&#45;&gt;Node23 -->
<g id="edge28" class="edge"><title>Node20&#45;&gt;Node23</title>
<path fill="none" stroke="midnightblue" d="M1332.11,-124C1367.03,-124 1418.17,-124 1449.14,-124"/>
<polygon fill="midnightblue" stroke="midnightblue" points="1449.2,-127.5 1459.2,-124 1449.2,-120.5 1449.2,-127.5"/>
</g>
<!-- Node24 -->
<g id="node24" class="node"><title>Node24</title>
<g id="a_node24"><a xlink:href="../../d8/de2/menudefs_8qc.html#a274680f571a231ddf29421b93d434bfa" target="_top" xlink:title="strlen">
<polygon fill="none" stroke="black" points="1455,-152.5 1455,-171.5 1499,-171.5 1499,-152.5 1455,-152.5"/>
<text text-anchor="middle" x="1477" y="-159.5" font-family="Helvetica,sans-Serif" font-size="10.00">strlen</text>
</a>
</g>
</g>
<!-- Node20&#45;&gt;Node24 -->
<g id="edge30" class="edge"><title>Node20&#45;&gt;Node24</title>
<path fill="none" stroke="midnightblue" d="M1332.11,-131.874C1365.5,-138.866 1413.73,-148.962 1444.97,-155.503"/>
<polygon fill="midnightblue" stroke="midnightblue" points="1444.36,-158.952 1454.87,-157.575 1445.8,-152.1 1444.36,-158.952"/>
</g>
<!-- Node25 -->
<g id="node25" class="node"><title>Node25</title>
<g id="a_node25"><a xlink:href="../../d8/de2/menudefs_8qc.html#a40f6c65c8bbcfa51df783f2809a2502b" target="_top" xlink:title="substring">
<polygon fill="none" stroke="black" points="1446.5,-190.5 1446.5,-209.5 1507.5,-209.5 1507.5,-190.5 1446.5,-190.5"/>
<text text-anchor="middle" x="1477" y="-197.5" font-family="Helvetica,sans-Serif" font-size="10.00">substring</text>
</a>
</g>
</g>
<!-- Node20&#45;&gt;Node25 -->
<g id="edge31" class="edge"><title>Node20&#45;&gt;Node25</title>
<path fill="none" stroke="midnightblue" d="M1332.01,-127.444C1347.62,-130.086 1365.45,-134.754 1380,-143 1400.24,-154.47 1396.28,-168.651 1416,-181 1422.3,-184.947 1429.5,-188.139 1436.66,-190.697"/>
<polygon fill="midnightblue" stroke="midnightblue" points="1435.73,-194.076 1446.32,-193.805 1437.87,-187.412 1435.73,-194.076"/>
</g>
<!-- Node27 -->
<g id="node27" class="node"><title>Node27</title>
<g id="a_node27"><a xlink:href="../../da/d44/common_2util_8qc.html#ae1958a532419b5580361c8f32a53a538" target="_top" xlink:title="mapPriorityList">
<polygon fill="none" stroke="black" points="1249.5,-152.5 1249.5,-171.5 1337.5,-171.5 1337.5,-152.5 1249.5,-152.5"/>
<text text-anchor="middle" x="1293.5" y="-159.5" font-family="Helvetica,sans-Serif" font-size="10.00">mapPriorityList</text>
</a>
</g>
</g>
<!-- Node26&#45;&gt;Node27 -->
<g id="edge33" class="edge"><title>Node26&#45;&gt;Node27</title>
<path fill="none" stroke="midnightblue" d="M1143.76,-162C1174.31,-162 1210.1,-162 1238.91,-162"/>
<polygon fill="midnightblue" stroke="midnightblue" points="1239.19,-165.5 1249.19,-162 1239.19,-158.5 1239.19,-165.5"/>
</g>
<!-- Node28 -->
<g id="node28" class="node"><title>Node28</title>
<g id="a_node28"><a xlink:href="../../d0/d2b/weapons_2all_8qc.html#a6e455edb328362e8ea7fc75757394379" target="_top" xlink:title="W_NumberWeaponOrder\l_MapFunc">
<polygon fill="none" stroke="black" points="1226.5,-27 1226.5,-57 1360.5,-57 1360.5,-27 1226.5,-27"/>
<text text-anchor="start" x="1234.5" y="-45" font-family="Helvetica,sans-Serif" font-size="10.00">W_NumberWeaponOrder</text>
<text text-anchor="middle" x="1293.5" y="-34" font-family="Helvetica,sans-Serif" font-size="10.00">_MapFunc</text>
</a>
</g>
</g>
<!-- Node26&#45;&gt;Node28 -->
<g id="edge38" class="edge"><title>Node26&#45;&gt;Node28</title>
<path fill="none" stroke="midnightblue" d="M1143.61,-156.38C1153.45,-153.407 1162.96,-149.123 1171,-143 1199.14,-121.56 1180.39,-95.3156 1207,-72 1211.47,-68.0817 1216.49,-64.6664 1221.79,-61.6911"/>
<polygon fill="midnightblue" stroke="midnightblue" points="1223.57,-64.7106 1230.93,-57.0881 1220.43,-58.458 1223.57,-64.7106"/>
</g>
<!-- Node27&#45;&gt;Node12 -->
<g id="edge34" class="edge"><title>Node27&#45;&gt;Node12</title>
<path fill="none" stroke="midnightblue" d="M1317.67,-171.579C1337.22,-180.855 1364.45,-196.785 1380,-219 1418.82,-274.459 1379.33,-310.097 1416,-367 1424.34,-379.94 1437.49,-390.826 1449.36,-398.852"/>
<polygon fill="midnightblue" stroke="midnightblue" points="1447.77,-401.99 1458.08,-404.419 1451.54,-396.089 1447.77,-401.99"/>
</g>
<!-- Node27&#45;&gt;Node15 -->
<g id="edge35" class="edge"><title>Node27&#45;&gt;Node15</title>
<path fill="none" stroke="midnightblue" d="M1312.48,-171.552C1330.72,-181.777 1359.17,-199.223 1380,-219 1416.42,-253.583 1449.06,-303.268 1465.25,-329.75"/>
<polygon fill="midnightblue" stroke="midnightblue" points="1462.29,-331.621 1470.45,-338.385 1468.29,-328.012 1462.29,-331.621"/>
</g>
<!-- Node27&#45;&gt;Node24 -->
<g id="edge36" class="edge"><title>Node27&#45;&gt;Node24</title>
<path fill="none" stroke="midnightblue" d="M1337.51,-162C1370.38,-162 1414.92,-162 1444.51,-162"/>
<polygon fill="midnightblue" stroke="midnightblue" points="1444.69,-165.5 1454.69,-162 1444.69,-158.5 1444.69,-165.5"/>
</g>
<!-- Node27&#45;&gt;Node25 -->
<g id="edge37" class="edge"><title>Node27&#45;&gt;Node25</title>
<path fill="none" stroke="midnightblue" d="M1337.51,-171.005C1367.52,-177.288 1407.26,-185.608 1436.47,-191.724"/>
<polygon fill="midnightblue" stroke="midnightblue" points="1435.83,-195.165 1446.33,-193.789 1437.26,-188.314 1435.83,-195.165"/>
</g>
<!-- Node28&#45;&gt;Node22 -->
<g id="edge39" class="edge"><title>Node28&#45;&gt;Node22</title>
<path fill="none" stroke="midnightblue" d="M1360.54,-44.1831C1391.16,-45.1955 1425.85,-46.3423 1449.15,-47.1122"/>
<polygon fill="midnightblue" stroke="midnightblue" points="1449.18,-50.6153 1459.29,-47.4477 1449.41,-43.6191 1449.18,-50.6153"/>
</g>
<!-- Node28&#45;&gt;Node23 -->
<g id="edge40" class="edge"><title>Node28&#45;&gt;Node23</title>
<path fill="none" stroke="midnightblue" d="M1320.42,-57.1026C1344.61,-70.7886 1381.97,-90.9124 1416,-105 1426.75,-109.451 1438.94,-113.487 1449.51,-116.683"/>
<polygon fill="midnightblue" stroke="midnightblue" points="1448.85,-120.136 1459.43,-119.583 1450.81,-113.417 1448.85,-120.136"/>
</g>
<!-- Node29 -->
<g id="node29" class="node"><title>Node29</title>
<g id="a_node29"><a xlink:href="../../d0/d2b/weapons_2all_8qc.html#a79fb53e58c432f7bb94bc2e881f4c2b6" target="_top" xlink:title="W_UndeprecateName">
<polygon fill="none" stroke="black" points="1416,-0.5 1416,-19.5 1538,-19.5 1538,-0.5 1416,-0.5"/>
<text text-anchor="middle" x="1477" y="-7.5" font-family="Helvetica,sans-Serif" font-size="10.00">W_UndeprecateName</text>
</a>
</g>
</g>
<!-- Node28&#45;&gt;Node29 -->
<g id="edge41" class="edge"><title>Node28&#45;&gt;Node29</title>
<path fill="none" stroke="midnightblue" d="M1360.54,-30.3567C1377.24,-27.4118 1395.16,-24.2536 1411.77,-21.3247"/>
<polygon fill="midnightblue" stroke="midnightblue" points="1412.68,-24.7178 1421.92,-19.5345 1411.47,-17.8241 1412.68,-24.7178"/>
</g>
<!-- Node30&#45;&gt;Node15 -->
<g id="edge46" class="edge"><title>Node30&#45;&gt;Node15</title>
<path fill="none" stroke="midnightblue" d="M1093.21,-253.588C1116.95,-267.62 1163.79,-293.54 1207,-307 1290.58,-333.04 1394.12,-342.865 1444.92,-346.305"/>
<polygon fill="midnightblue" stroke="midnightblue" points="1444.73,-349.8 1454.93,-346.945 1445.18,-342.814 1444.73,-349.8"/>
</g>
<!-- Node30&#45;&gt;Node22 -->
<g id="edge44" class="edge"><title>Node30&#45;&gt;Node22</title>
<path fill="none" stroke="midnightblue" d="M1146.14,-234.357C1155.31,-230.703 1163.96,-225.736 1171,-219 1209.4,-182.277 1167.65,-140.704 1207,-105 1211.54,-100.88 1382.14,-66.6427 1449.26,-53.297"/>
<polygon fill="midnightblue" stroke="midnightblue" points="1449.98,-56.7232 1459.11,-51.3423 1448.62,-49.8573 1449.98,-56.7232"/>
</g>
<!-- Node30&#45;&gt;Node25 -->
<g id="edge47" class="edge"><title>Node30&#45;&gt;Node25</title>
<path fill="none" stroke="midnightblue" d="M1119.87,-234.487C1145.06,-229.165 1177.71,-222.847 1207,-219 1287.99,-208.361 1383.54,-203.398 1436.18,-201.317"/>
<polygon fill="midnightblue" stroke="midnightblue" points="1436.57,-204.804 1446.43,-200.926 1436.3,-197.809 1436.57,-204.804"/>
</g>
<!-- Node31 -->
<g id="node31" class="node"><title>Node31</title>
<g id="a_node31"><a xlink:href="../../db/def/sort_8qh.html#a819f1c3300f552419896b2c53088c05c" target="_top" xlink:title="heapsort">
<polygon fill="none" stroke="black" points="1264,-278.5 1264,-297.5 1323,-297.5 1323,-278.5 1264,-278.5"/>
<text text-anchor="middle" x="1293.5" y="-285.5" font-family="Helvetica,sans-Serif" font-size="10.00">heapsort</text>
</a>
</g>
</g>
<!-- Node30&#45;&gt;Node31 -->
<g id="edge45" class="edge"><title>Node30&#45;&gt;Node31</title>
<path fill="none" stroke="midnightblue" d="M1124.15,-253.547C1162.82,-261.461 1217.15,-272.579 1253.53,-280.024"/>
<polygon fill="midnightblue" stroke="midnightblue" points="1253.24,-283.538 1263.74,-282.114 1254.65,-276.681 1253.24,-283.538"/>
</g>
<!-- Node32 -->
<g id="node32" class="node"><title>Node32</title>
<g id="a_node32"><a xlink:href="../../d0/d2b/weapons_2all_8qc.html#a66424748bad8c2bf6beda9b93b5f12d5" target="_top" xlink:title="W_FixWeaponOrder_BuildImpulse\lList_cmp">
<polygon fill="none" stroke="black" points="1207,-355 1207,-385 1380,-385 1380,-355 1207,-355"/>
<text text-anchor="start" x="1215" y="-373" font-family="Helvetica,sans-Serif" font-size="10.00">W_FixWeaponOrder_BuildImpulse</text>
<text text-anchor="middle" x="1293.5" y="-362" font-family="Helvetica,sans-Serif" font-size="10.00">List_cmp</text>
</a>
</g>
</g>
<!-- Node30&#45;&gt;Node32 -->
<g id="edge48" class="edge"><title>Node30&#45;&gt;Node32</title>
<path fill="none" stroke="midnightblue" d="M1088.17,-253.688C1109.4,-272.546 1159.04,-314.559 1207,-340 1214.96,-344.222 1223.64,-348.057 1232.32,-351.466"/>
<polygon fill="midnightblue" stroke="midnightblue" points="1231.1,-354.75 1241.7,-354.997 1233.57,-348.199 1231.1,-354.75"/>
</g>
<!-- Node33 -->
<g id="node33" class="node"><title>Node33</title>
<g id="a_node33"><a xlink:href="../../d0/d2b/weapons_2all_8qc.html#a5ac8701317c43bb66826e117a101f71e" target="_top" xlink:title="W_FixWeaponOrder_BuildImpulse\lList_swap">
<polygon fill="none" stroke="black" points="1207,-229 1207,-259 1380,-259 1380,-229 1207,-229"/>
<text text-anchor="start" x="1215" y="-247" font-family="Helvetica,sans-Serif" font-size="10.00">W_FixWeaponOrder_BuildImpulse</text>
<text text-anchor="middle" x="1293.5" y="-236" font-family="Helvetica,sans-Serif" font-size="10.00">List_swap</text>
</a>
</g>
</g>
<!-- Node30&#45;&gt;Node33 -->
<g id="edge50" class="edge"><title>Node30&#45;&gt;Node33</title>
<path fill="none" stroke="midnightblue" d="M1171.18,-244C1179.62,-244 1188.19,-244 1196.65,-244"/>
<polygon fill="midnightblue" stroke="midnightblue" points="1196.92,-247.5 1206.92,-244 1196.92,-240.5 1196.92,-247.5"/>
</g>
<!-- Node32&#45;&gt;Node15 -->
<g id="edge49" class="edge"><title>Node32&#45;&gt;Node15</title>
<path fill="none" stroke="midnightblue" d="M1380.2,-359.612C1403.26,-356.816 1426.76,-353.968 1444.72,-351.792"/>
<polygon fill="midnightblue" stroke="midnightblue" points="1445.36,-355.24 1454.86,-350.562 1444.51,-348.291 1445.36,-355.24"/>
</g>
<!-- Node34&#45;&gt;Node19 -->
<g id="edge52" class="edge"><title>Node34&#45;&gt;Node19</title>
<path fill="none" stroke="midnightblue" d="M863.438,-306.256C884.745,-287.767 933.948,-247.44 982,-225 992.943,-219.89 1005.11,-215.678 1016.95,-212.264"/>
<polygon fill="midnightblue" stroke="midnightblue" points="1018.07,-215.589 1026.79,-209.581 1016.22,-208.835 1018.07,-215.589"/>
</g>
<!-- Node35&#45;&gt;Node12 -->
<g id="edge55" class="edge"><title>Node35&#45;&gt;Node12</title>
<path fill="none" stroke="midnightblue" d="M1354.68,-414C1385.97,-414 1422.73,-414 1447.52,-414"/>
<polygon fill="midnightblue" stroke="midnightblue" points="1447.69,-417.5 1457.69,-414 1447.69,-410.5 1447.69,-417.5"/>
</g>
<!-- Node35&#45;&gt;Node15 -->
<g id="edge56" class="edge"><title>Node35&#45;&gt;Node15</title>
<path fill="none" stroke="midnightblue" d="M1343.41,-404.485C1355.52,-401.605 1368.35,-398.098 1380,-394 1404.46,-385.394 1430.94,-372.405 1449.88,-362.422"/>
<polygon fill="midnightblue" stroke="midnightblue" points="1451.63,-365.459 1458.79,-357.655 1448.33,-359.287 1451.63,-365.459"/>
</g>
<!-- Node35&#45;&gt;Node23 -->
<g id="edge54" class="edge"><title>Node35&#45;&gt;Node23</title>
<path fill="none" stroke="midnightblue" d="M1354.65,-409.561C1364.23,-406.341 1373.2,-401.418 1380,-394 1456.13,-310.908 1343.12,-228.956 1416,-143 1424.25,-133.267 1437.46,-128.46 1449.39,-126.11"/>
<polygon fill="midnightblue" stroke="midnightblue" points="1450.01,-129.556 1459.38,-124.616 1448.98,-122.633 1450.01,-129.556"/>
</g>
</g>
</svg>
