<?xml version="1.0" encoding="UTF-8" standalone="no"?>
<!DOCTYPE svg PUBLIC "-//W3C//DTD SVG 1.1//EN"
 "http://www.w3.org/Graphics/SVG/1.1/DTD/svg11.dtd">
<!-- Generated by graphviz version 2.38.0 (20140413.2041)
 -->
<!-- Title: waypoint_spawnforteleporter_wz Pages: 1 -->
<svg width="495pt" height="39pt"
 viewBox="0.00 0.00 495.00 39.00" xmlns="http://www.w3.org/2000/svg" xmlns:xlink="http://www.w3.org/1999/xlink">
<g id="graph0" class="graph" transform="scale(1 1) rotate(0) translate(4 35)">
<title>waypoint_spawnforteleporter_wz</title>
<!-- Node1 -->
<g id="node1" class="node"><title>Node1</title>
<polygon fill="#bfbfbf" stroke="black" points="0,-6 0,-25 171,-25 171,-6 0,-6"/>
<text text-anchor="middle" x="85.5" y="-13" font-family="Helvetica,sans-Serif" font-size="10.00">waypoint_spawnforteleporter_wz</text>
</g>
<!-- Node2 -->
<g id="node2" class="node"><title>Node2</title>
<g id="a_node2"><a xlink:href="../../d3/d4f/sv__main_8qc.html#a4dc5316f2758ed54f716d22cf319ca8b" target="_top" xlink:title="WarpZone_PostInitialize\l_Callback">
<polygon fill="none" stroke="black" points="207,-0.5 207,-30.5 337,-30.5 337,-0.5 207,-0.5"/>
<text text-anchor="start" x="215" y="-18.5" font-family="Helvetica,sans-Serif" font-size="10.00">WarpZone_PostInitialize</text>
<text text-anchor="middle" x="272" y="-7.5" font-family="Helvetica,sans-Serif" font-size="10.00">_Callback</text>
</a>
</g>
</g>
<!-- Node1&#45;&gt;Node2 -->
<g id="edge1" class="edge"><title>Node1&#45;&gt;Node2</title>
<path fill="none" stroke="midnightblue" d="M181.364,-15.5C190.034,-15.5 198.673,-15.5 206.975,-15.5"/>
<polygon fill="midnightblue" stroke="midnightblue" points="181.19,-12.0001 171.19,-15.5 181.19,-19.0001 181.19,-12.0001"/>
</g>
<!-- Node3 -->
<g id="node3" class="node"><title>Node3</title>
<g id="a_node3"><a xlink:href="../../d7/d2b/server_8qc.html#a600d8b2d9c69e214ed132fff42b3e9ed" target="_top" xlink:title="WarpZone_Projectile\l_Touch">
<polygon fill="none" stroke="black" points="373,-0.5 373,-30.5 487,-30.5 487,-0.5 373,-0.5"/>
<text text-anchor="start" x="381" y="-18.5" font-family="Helvetica,sans-Serif" font-size="10.00">WarpZone_Projectile</text>
<text text-anchor="middle" x="430" y="-7.5" font-family="Helvetica,sans-Serif" font-size="10.00">_Touch</text>
</a>
</g>
</g>
<!-- Node2&#45;&gt;Node3 -->
<g id="edge2" class="edge"><title>Node2&#45;&gt;Node3</title>
<path fill="none" stroke="midnightblue" d="M347.621,-15.5C356.084,-15.5 364.6,-15.5 372.77,-15.5"/>
<polygon fill="midnightblue" stroke="midnightblue" points="347.352,-12.0001 337.352,-15.5 347.352,-19.0001 347.352,-12.0001"/>
</g>
</g>
</svg>
