<?xml version="1.0" encoding="UTF-8" standalone="no"?>
<!DOCTYPE svg PUBLIC "-//W3C//DTD SVG 1.1//EN"
 "http://www.w3.org/Graphics/SVG/1.1/DTD/svg11.dtd">
<!-- Generated by graphviz version 2.36.0 (20140111.2315)
 -->
<!-- Title: common/effects/effect.qh Pages: 1 -->
<svg width="1491pt" height="320pt"
 viewBox="0.00 0.00 1491.00 320.00" xmlns="http://www.w3.org/2000/svg" xmlns:xlink="http://www.w3.org/1999/xlink">
<g id="graph0" class="graph" transform="scale(1 1) rotate(0) translate(4 316)">
<title>common/effects/effect.qh</title>
<!-- Node1 -->
<g id="node1" class="node"><title>Node1</title>
<polygon fill="#bfbfbf" stroke="black" points="167,-292.5 167,-311.5 295,-311.5 295,-292.5 167,-292.5"/>
<text text-anchor="middle" x="231" y="-299.5" font-family="Helvetica,sans-Serif" font-size="10.00">common/effects/effect.qh</text>
</g>
<!-- Node2 -->
<g id="node2" class="node"><title>Node2</title>
<g id="a_node2"><a xlink:href="../../dd/d22/effects_2all_8qh.html" target="_top" xlink:title="common/effects/all.qh">
<polygon fill="none" stroke="black" points="670.5,-236.5 670.5,-255.5 783.5,-255.5 783.5,-236.5 670.5,-236.5"/>
<text text-anchor="middle" x="727" y="-243.5" font-family="Helvetica,sans-Serif" font-size="10.00">common/effects/all.qh</text>
</a>
</g>
</g>
<!-- Node1&#45;&gt;Node2 -->
<g id="edge1" class="edge"><title>Node1&#45;&gt;Node2</title>
<path fill="none" stroke="midnightblue" d="M305.092,-292.934C404.92,-282.065 580.443,-262.956 670.381,-253.164"/>
<polygon fill="midnightblue" stroke="midnightblue" points="304.644,-289.462 295.081,-294.023 305.401,-296.42 304.644,-289.462"/>
</g>
<!-- Node6 -->
<g id="node6" class="node"><title>Node6</title>
<g id="a_node6"><a xlink:href="../../df/d30/client_2main_8qc.html" target="_top" xlink:title="client/main.qc">
<polygon fill="none" stroke="black" points="192.5,-174.5 192.5,-193.5 269.5,-193.5 269.5,-174.5 192.5,-174.5"/>
<text text-anchor="middle" x="231" y="-181.5" font-family="Helvetica,sans-Serif" font-size="10.00">client/main.qc</text>
</a>
</g>
</g>
<!-- Node1&#45;&gt;Node6 -->
<g id="edge34" class="edge"><title>Node1&#45;&gt;Node6</title>
<path fill="none" stroke="midnightblue" d="M231,-282.025C231,-256.464 231,-212.041 231,-193.505"/>
<polygon fill="midnightblue" stroke="midnightblue" points="227.5,-282.281 231,-292.281 234.5,-282.281 227.5,-282.281"/>
</g>
<!-- Node7 -->
<g id="node7" class="node"><title>Node7</title>
<g id="a_node7"><a xlink:href="../../d3/db6/projectile_8qc.html" target="_top" xlink:title="client/weapons/projectile.qc">
<polygon fill="none" stroke="black" points="37.5,-174.5 37.5,-193.5 174.5,-193.5 174.5,-174.5 37.5,-174.5"/>
<text text-anchor="middle" x="106" y="-181.5" font-family="Helvetica,sans-Serif" font-size="10.00">client/weapons/projectile.qc</text>
</a>
</g>
</g>
<!-- Node1&#45;&gt;Node7 -->
<g id="edge35" class="edge"><title>Node1&#45;&gt;Node7</title>
<path fill="none" stroke="midnightblue" d="M214.147,-285.36C187.378,-260.519 136.039,-212.876 115.165,-193.505"/>
<polygon fill="midnightblue" stroke="midnightblue" points="211.894,-288.044 221.605,-292.281 216.655,-282.913 211.894,-288.044"/>
</g>
<!-- Node3 -->
<g id="node3" class="node"><title>Node3</title>
<g id="a_node3"><a xlink:href="../../dc/d3d/csqcmodel__hooks_8qc.html" target="_top" xlink:title="client/csqcmodel_hooks.qc">
<polygon fill="none" stroke="black" points="181.5,-112.5 181.5,-131.5 316.5,-131.5 316.5,-112.5 181.5,-112.5"/>
<text text-anchor="middle" x="249" y="-119.5" font-family="Helvetica,sans-Serif" font-size="10.00">client/csqcmodel_hooks.qc</text>
</a>
</g>
</g>
<!-- Node2&#45;&gt;Node3 -->
<g id="edge2" class="edge"><title>Node2&#45;&gt;Node3</title>
<path fill="none" stroke="midnightblue" d="M659.893,-241.551C565.883,-235.964 400.287,-223.156 345,-200 306.769,-183.988 271.351,-148.024 256.438,-131.544"/>
<polygon fill="midnightblue" stroke="midnightblue" points="659.967,-245.061 670.154,-242.149 660.374,-238.073 659.967,-245.061"/>
</g>
<!-- Node2&#45;&gt;Node6 -->
<g id="edge5" class="edge"><title>Node2&#45;&gt;Node6</title>
<path fill="none" stroke="midnightblue" d="M660.23,-241.854C573.058,-236.92 416.027,-225.189 284,-200 275.358,-198.351 266.083,-195.95 257.745,-193.551"/>
<polygon fill="midnightblue" stroke="midnightblue" points="660.072,-245.351 670.25,-242.409 660.459,-238.362 660.072,-245.351"/>
</g>
<!-- Node2&#45;&gt;Node7 -->
<g id="edge7" class="edge"><title>Node2&#45;&gt;Node7</title>
<path fill="none" stroke="midnightblue" d="M660.149,-241.84C557.265,-236.442 354.075,-223.666 183,-200 170.723,-198.302 157.445,-195.915 145.428,-193.545"/>
<polygon fill="midnightblue" stroke="midnightblue" points="660.222,-245.348 670.389,-242.37 660.584,-238.357 660.222,-245.348"/>
</g>
<!-- Node9 -->
<g id="node9" class="node"><title>Node9</title>
<g id="a_node9"><a xlink:href="../../d5/d22/effects_2all_8qc.html" target="_top" xlink:title="common/effects/all.qc">
<polygon fill="none" stroke="black" points="998.5,-174.5 998.5,-193.5 1111.5,-193.5 1111.5,-174.5 998.5,-174.5"/>
<text text-anchor="middle" x="1055" y="-181.5" font-family="Helvetica,sans-Serif" font-size="10.00">common/effects/all.qc</text>
</a>
</g>
</g>
<!-- Node2&#45;&gt;Node9 -->
<g id="edge10" class="edge"><title>Node2&#45;&gt;Node9</title>
<path fill="none" stroke="midnightblue" d="M788.874,-234.788C840.999,-226.036 917.496,-212.843 984,-200 994.267,-198.017 1005.34,-195.743 1015.62,-193.576"/>
<polygon fill="midnightblue" stroke="midnightblue" points="788.068,-231.374 778.784,-236.478 789.224,-238.278 788.068,-231.374"/>
</g>
<!-- Node11 -->
<g id="node11" class="node"><title>Node11</title>
<g id="a_node11"><a xlink:href="../../d2/d93/common_2effects_2__mod_8qh.html" target="_top" xlink:title="common/effects/_mod.qh">
<polygon fill="none" stroke="black" points="1168,-174.5 1168,-193.5 1296,-193.5 1296,-174.5 1168,-174.5"/>
<text text-anchor="middle" x="1232" y="-181.5" font-family="Helvetica,sans-Serif" font-size="10.00">common/effects/_mod.qh</text>
</a>
</g>
</g>
<!-- Node2&#45;&gt;Node11 -->
<g id="edge12" class="edge"><title>Node2&#45;&gt;Node11</title>
<path fill="none" stroke="midnightblue" d="M794.033,-239.71C878.309,-232.652 1027.3,-218.824 1154,-200 1166.14,-198.196 1179.27,-195.834 1191.23,-193.519"/>
<polygon fill="midnightblue" stroke="midnightblue" points="793.507,-236.242 783.832,-240.558 794.087,-243.217 793.507,-236.242"/>
</g>
<!-- Node12 -->
<g id="node12" class="node"><title>Node12</title>
<g id="a_node12"><a xlink:href="../../dd/d0a/effects_8inc.html" target="_top" xlink:title="common/mutators/mutator\l/nades/effects.inc">
<polygon fill="none" stroke="black" points="1352.5,-169 1352.5,-199 1483.5,-199 1483.5,-169 1352.5,-169"/>
<text text-anchor="start" x="1360.5" y="-187" font-family="Helvetica,sans-Serif" font-size="10.00">common/mutators/mutator</text>
<text text-anchor="middle" x="1418" y="-176" font-family="Helvetica,sans-Serif" font-size="10.00">/nades/effects.inc</text>
</a>
</g>
</g>
<!-- Node2&#45;&gt;Node12 -->
<g id="edge13" class="edge"><title>Node2&#45;&gt;Node12</title>
<path fill="none" stroke="midnightblue" d="M793.841,-242.525C906.481,-237.808 1141.11,-225.627 1338,-200 1342.62,-199.398 1347.39,-198.702 1352.17,-197.946"/>
<polygon fill="midnightblue" stroke="midnightblue" points="793.5,-239.036 783.653,-242.945 793.788,-246.03 793.5,-239.036"/>
</g>
<!-- Node13 -->
<g id="node13" class="node"><title>Node13</title>
<g id="a_node13"><a xlink:href="../../d6/de9/cheats_8qc.html" target="_top" xlink:title="server/cheats.qc">
<polygon fill="none" stroke="black" points="773.5,-112.5 773.5,-131.5 862.5,-131.5 862.5,-112.5 773.5,-112.5"/>
<text text-anchor="middle" x="818" y="-119.5" font-family="Helvetica,sans-Serif" font-size="10.00">server/cheats.qc</text>
</a>
</g>
</g>
<!-- Node2&#45;&gt;Node13 -->
<g id="edge14" class="edge"><title>Node2&#45;&gt;Node13</title>
<path fill="none" stroke="midnightblue" d="M739.715,-227.953C759.404,-201.558 796.554,-151.752 811.515,-131.694"/>
<polygon fill="midnightblue" stroke="midnightblue" points="736.718,-226.118 733.544,-236.226 742.329,-230.303 736.718,-226.118"/>
</g>
<!-- Node16 -->
<g id="node16" class="node"><title>Node16</title>
<g id="a_node16"><a xlink:href="../../df/dd7/server_2client_8qc.html" target="_top" xlink:title="server/client.qc">
<polygon fill="none" stroke="black" points="880.5,-112.5 880.5,-131.5 963.5,-131.5 963.5,-112.5 880.5,-112.5"/>
<text text-anchor="middle" x="922" y="-119.5" font-family="Helvetica,sans-Serif" font-size="10.00">server/client.qc</text>
</a>
</g>
</g>
<!-- Node2&#45;&gt;Node16 -->
<g id="edge17" class="edge"><title>Node2&#45;&gt;Node16</title>
<path fill="none" stroke="midnightblue" d="M793.986,-240.71C852.615,-235.393 931.409,-223.918 951,-200 968.198,-179.003 943.893,-146.759 930.218,-131.528"/>
<polygon fill="midnightblue" stroke="midnightblue" points="793.322,-237.255 783.66,-241.603 793.925,-244.229 793.322,-237.255"/>
</g>
<!-- Node17 -->
<g id="node17" class="node"><title>Node17</title>
<g id="a_node17"><a xlink:href="../../d5/dac/g__damage_8qc.html" target="_top" xlink:title="server/g_damage.qc">
<polygon fill="none" stroke="black" points="1130.5,-112.5 1130.5,-131.5 1235.5,-131.5 1235.5,-112.5 1130.5,-112.5"/>
<text text-anchor="middle" x="1183" y="-119.5" font-family="Helvetica,sans-Serif" font-size="10.00">server/g_damage.qc</text>
</a>
</g>
</g>
<!-- Node2&#45;&gt;Node17 -->
<g id="edge19" class="edge"><title>Node2&#45;&gt;Node17</title>
<path fill="none" stroke="midnightblue" d="M793.847,-243.361C890.936,-239.977 1065.34,-229.826 1120,-200 1149.41,-183.949 1170.43,-148.006 1178.88,-131.537"/>
<polygon fill="midnightblue" stroke="midnightblue" points="793.716,-239.863 783.838,-243.695 793.95,-246.859 793.716,-239.863"/>
</g>
<!-- Node18 -->
<g id="node18" class="node"><title>Node18</title>
<g id="a_node18"><a xlink:href="../../d7/de2/g__hook_8qc.html" target="_top" xlink:title="server/g_hook.qc">
<polygon fill="none" stroke="black" points="1266,-112.5 1266,-131.5 1358,-131.5 1358,-112.5 1266,-112.5"/>
<text text-anchor="middle" x="1312" y="-119.5" font-family="Helvetica,sans-Serif" font-size="10.00">server/g_hook.qc</text>
</a>
</g>
</g>
<!-- Node2&#45;&gt;Node18 -->
<g id="edge21" class="edge"><title>Node2&#45;&gt;Node18</title>
<path fill="none" stroke="midnightblue" d="M793.63,-244.547C937.927,-242.902 1269.26,-235.281 1305,-200 1323.34,-181.895 1318.11,-147.635 1314.35,-131.636"/>
<polygon fill="midnightblue" stroke="midnightblue" points="793.533,-241.048 783.571,-244.656 793.608,-248.048 793.533,-241.048"/>
</g>
<!-- Node19 -->
<g id="node19" class="node"><title>Node19</title>
<g id="a_node19"><a xlink:href="../../db/d9b/server_2player_8qc.html" target="_top" xlink:title="server/player.qc">
<polygon fill="none" stroke="black" points="335,-112.5 335,-131.5 421,-131.5 421,-112.5 335,-112.5"/>
<text text-anchor="middle" x="378" y="-119.5" font-family="Helvetica,sans-Serif" font-size="10.00">server/player.qc</text>
</a>
</g>
</g>
<!-- Node2&#45;&gt;Node19 -->
<g id="edge23" class="edge"><title>Node2&#45;&gt;Node19</title>
<path fill="none" stroke="midnightblue" d="M660.274,-241.654C558.69,-235.87 374.868,-222.416 355,-200 337.417,-180.162 358.603,-147.356 370.696,-131.759"/>
<polygon fill="midnightblue" stroke="midnightblue" points="660.26,-245.159 670.44,-242.223 660.651,-238.17 660.26,-245.159"/>
</g>
<!-- Node20 -->
<g id="node20" class="node"><title>Node20</title>
<g id="a_node20"><a xlink:href="../../de/de8/portals_8qc.html" target="_top" xlink:title="server/portals.qc">
<polygon fill="none" stroke="black" points="364.5,-174.5 364.5,-193.5 453.5,-193.5 453.5,-174.5 364.5,-174.5"/>
<text text-anchor="middle" x="409" y="-181.5" font-family="Helvetica,sans-Serif" font-size="10.00">server/portals.qc</text>
</a>
</g>
</g>
<!-- Node2&#45;&gt;Node20 -->
<g id="edge25" class="edge"><title>Node2&#45;&gt;Node20</title>
<path fill="none" stroke="midnightblue" d="M660.205,-235.692C606.386,-227.704 528.926,-215.107 462,-200 453.791,-198.147 444.963,-195.796 436.912,-193.507"/>
<polygon fill="midnightblue" stroke="midnightblue" points="659.904,-239.185 670.307,-237.178 660.923,-232.26 659.904,-239.185"/>
</g>
<!-- Node21 -->
<g id="node21" class="node"><title>Node21</title>
<g id="a_node21"><a xlink:href="../../d8/d1d/cmd_8qc.html" target="_top" xlink:title="server/command/cmd.qc">
<polygon fill="none" stroke="black" points="471.5,-174.5 471.5,-193.5 596.5,-193.5 596.5,-174.5 471.5,-174.5"/>
<text text-anchor="middle" x="534" y="-181.5" font-family="Helvetica,sans-Serif" font-size="10.00">server/command/cmd.qc</text>
</a>
</g>
</g>
<!-- Node2&#45;&gt;Node21 -->
<g id="edge27" class="edge"><title>Node2&#45;&gt;Node21</title>
<path fill="none" stroke="midnightblue" d="M689.79,-233.432C652.28,-221.771 595.257,-204.044 561.601,-193.581"/>
<polygon fill="midnightblue" stroke="midnightblue" points="688.76,-236.777 699.348,-236.403 690.838,-230.093 688.76,-236.777"/>
</g>
<!-- Node23 -->
<g id="node23" class="node"><title>Node23</title>
<g id="a_node23"><a xlink:href="../../d7/d31/tracing_8qc.html" target="_top" xlink:title="server/weapons/tracing.qc">
<polygon fill="none" stroke="black" points="614.5,-174.5 614.5,-193.5 745.5,-193.5 745.5,-174.5 614.5,-174.5"/>
<text text-anchor="middle" x="680" y="-181.5" font-family="Helvetica,sans-Serif" font-size="10.00">server/weapons/tracing.qc</text>
</a>
</g>
</g>
<!-- Node2&#45;&gt;Node23 -->
<g id="edge30" class="edge"><title>Node2&#45;&gt;Node23</title>
<path fill="none" stroke="midnightblue" d="M713.838,-228.198C705.016,-216.936 693.767,-202.574 686.721,-193.581"/>
<polygon fill="midnightblue" stroke="midnightblue" points="711.344,-230.689 720.266,-236.403 716.855,-226.373 711.344,-230.689"/>
</g>
<!-- Node25 -->
<g id="node25" class="node"><title>Node25</title>
<g id="a_node25"><a xlink:href="../../d3/df2/sv__cmd_8qc.html" target="_top" xlink:title="server/command/sv_cmd.qc">
<polygon fill="none" stroke="black" points="802,-174.5 802,-193.5 942,-193.5 942,-174.5 802,-174.5"/>
<text text-anchor="middle" x="872" y="-181.5" font-family="Helvetica,sans-Serif" font-size="10.00">server/command/sv_cmd.qc</text>
</a>
</g>
</g>
<!-- Node2&#45;&gt;Node25 -->
<g id="edge33" class="edge"><title>Node2&#45;&gt;Node25</title>
<path fill="none" stroke="midnightblue" d="M757.142,-232.527C785.313,-220.871 826.624,-203.776 851.264,-193.581"/>
<polygon fill="midnightblue" stroke="midnightblue" points="755.677,-229.346 747.775,-236.403 758.353,-235.814 755.677,-229.346"/>
</g>
<!-- Node4 -->
<g id="node4" class="node"><title>Node4</title>
<g id="a_node4"><a xlink:href="../../de/dbe/client_2__mod_8inc.html" target="_top" xlink:title="client/_mod.inc">
<polygon fill="none" stroke="black" points="111.5,-56.5 111.5,-75.5 194.5,-75.5 194.5,-56.5 111.5,-56.5"/>
<text text-anchor="middle" x="153" y="-63.5" font-family="Helvetica,sans-Serif" font-size="10.00">client/_mod.inc</text>
</a>
</g>
</g>
<!-- Node3&#45;&gt;Node4 -->
<g id="edge3" class="edge"><title>Node3&#45;&gt;Node4</title>
<path fill="none" stroke="midnightblue" d="M224.426,-107.177C206.761,-97.2407 183.487,-84.1492 168.386,-75.6545"/>
<polygon fill="midnightblue" stroke="midnightblue" points="223.144,-110.472 233.576,-112.324 226.576,-104.371 223.144,-110.472"/>
</g>
<!-- Node5 -->
<g id="node5" class="node"><title>Node5</title>
<g id="a_node5"><a xlink:href="../../d3/dfc/client_2progs_8inc.html" target="_top" xlink:title="client/progs.inc">
<polygon fill="none" stroke="black" points="111.5,-0.5 111.5,-19.5 194.5,-19.5 194.5,-0.5 111.5,-0.5"/>
<text text-anchor="middle" x="153" y="-7.5" font-family="Helvetica,sans-Serif" font-size="10.00">client/progs.inc</text>
</a>
</g>
</g>
<!-- Node4&#45;&gt;Node5 -->
<g id="edge4" class="edge"><title>Node4&#45;&gt;Node5</title>
<path fill="none" stroke="midnightblue" d="M153,-45.8045C153,-36.9102 153,-26.7798 153,-19.7511"/>
<polygon fill="midnightblue" stroke="midnightblue" points="149.5,-46.083 153,-56.083 156.5,-46.083 149.5,-46.083"/>
</g>
<!-- Node6&#45;&gt;Node4 -->
<g id="edge6" class="edge"><title>Node6&#45;&gt;Node4</title>
<path fill="none" stroke="midnightblue" d="M208.511,-168.423C196.107,-159.319 181.365,-146.573 172,-132 160.432,-113.999 155.709,-88.7401 153.945,-75.6414"/>
<polygon fill="midnightblue" stroke="midnightblue" points="206.822,-171.513 217.02,-174.383 210.837,-165.779 206.822,-171.513"/>
</g>
<!-- Node8 -->
<g id="node8" class="node"><title>Node8</title>
<g id="a_node8"><a xlink:href="../../dd/dc5/client_2weapons_2__mod_8inc.html" target="_top" xlink:title="client/weapons/_mod.inc">
<polygon fill="none" stroke="black" points="-0.5,-112.5 -0.5,-131.5 124.5,-131.5 124.5,-112.5 -0.5,-112.5"/>
<text text-anchor="middle" x="62" y="-119.5" font-family="Helvetica,sans-Serif" font-size="10.00">client/weapons/_mod.inc</text>
</a>
</g>
</g>
<!-- Node7&#45;&gt;Node8 -->
<g id="edge8" class="edge"><title>Node7&#45;&gt;Node8</title>
<path fill="none" stroke="midnightblue" d="M93.6783,-166.198C85.4194,-154.936 74.8878,-140.574 68.2924,-131.581"/>
<polygon fill="midnightblue" stroke="midnightblue" points="90.9598,-168.409 99.6959,-174.403 96.6046,-164.27 90.9598,-168.409"/>
</g>
<!-- Node8&#45;&gt;Node4 -->
<g id="edge9" class="edge"><title>Node8&#45;&gt;Node4</title>
<path fill="none" stroke="midnightblue" d="M85.2937,-107.177C102.039,-97.2407 124.1,-84.1492 138.416,-75.6545"/>
<polygon fill="midnightblue" stroke="midnightblue" points="83.4344,-104.211 76.6207,-112.324 87.0067,-110.231 83.4344,-104.211"/>
</g>
<!-- Node10 -->
<g id="node10" class="node"><title>Node10</title>
<g id="a_node10"><a xlink:href="../../d2/d24/common_2effects_2__mod_8inc.html" target="_top" xlink:title="common/effects/_mod.inc">
<polygon fill="none" stroke="black" points="982,-112.5 982,-131.5 1112,-131.5 1112,-112.5 982,-112.5"/>
<text text-anchor="middle" x="1047" y="-119.5" font-family="Helvetica,sans-Serif" font-size="10.00">common/effects/_mod.inc</text>
</a>
</g>
</g>
<!-- Node9&#45;&gt;Node10 -->
<g id="edge11" class="edge"><title>Node9&#45;&gt;Node10</title>
<path fill="none" stroke="midnightblue" d="M1052.49,-164.16C1051.03,-153.248 1049.27,-140.04 1048.14,-131.581"/>
<polygon fill="midnightblue" stroke="midnightblue" points="1049.06,-164.954 1053.85,-174.403 1056,-164.029 1049.06,-164.954"/>
</g>
<!-- Node14 -->
<g id="node14" class="node"><title>Node14</title>
<g id="a_node14"><a xlink:href="../../dc/d7f/server_2__mod_8inc.html" target="_top" xlink:title="server/_mod.inc">
<polygon fill="none" stroke="black" points="711,-56.5 711,-75.5 797,-75.5 797,-56.5 711,-56.5"/>
<text text-anchor="middle" x="754" y="-63.5" font-family="Helvetica,sans-Serif" font-size="10.00">server/_mod.inc</text>
</a>
</g>
</g>
<!-- Node13&#45;&gt;Node14 -->
<g id="edge15" class="edge"><title>Node13&#45;&gt;Node14</title>
<path fill="none" stroke="midnightblue" d="M800.009,-105.82C788.542,-96.1452 774.087,-83.9481 764.47,-75.8339"/>
<polygon fill="midnightblue" stroke="midnightblue" points="797.817,-108.55 807.717,-112.324 802.331,-103.2 797.817,-108.55"/>
</g>
<!-- Node15 -->
<g id="node15" class="node"><title>Node15</title>
<g id="a_node15"><a xlink:href="../../dd/d96/server_2progs_8inc.html" target="_top" xlink:title="server/progs.inc">
<polygon fill="none" stroke="black" points="711,-0.5 711,-19.5 797,-19.5 797,-0.5 711,-0.5"/>
<text text-anchor="middle" x="754" y="-7.5" font-family="Helvetica,sans-Serif" font-size="10.00">server/progs.inc</text>
</a>
</g>
</g>
<!-- Node14&#45;&gt;Node15 -->
<g id="edge16" class="edge"><title>Node14&#45;&gt;Node15</title>
<path fill="none" stroke="midnightblue" d="M754,-45.8045C754,-36.9102 754,-26.7798 754,-19.7511"/>
<polygon fill="midnightblue" stroke="midnightblue" points="750.5,-46.083 754,-56.083 757.5,-46.083 750.5,-46.083"/>
</g>
<!-- Node16&#45;&gt;Node14 -->
<g id="edge18" class="edge"><title>Node16&#45;&gt;Node14</title>
<path fill="none" stroke="midnightblue" d="M885.614,-109.304C853.958,-99.1294 808.832,-84.6246 780.496,-75.5164"/>
<polygon fill="midnightblue" stroke="midnightblue" points="884.789,-112.715 895.38,-112.444 886.931,-106.051 884.789,-112.715"/>
</g>
<!-- Node17&#45;&gt;Node14 -->
<g id="edge20" class="edge"><title>Node17&#45;&gt;Node14</title>
<path fill="none" stroke="midnightblue" d="M1120.24,-111.925C996.852,-95.4917 864.121,-79.7711 797.26,-71.9899"/>
<polygon fill="midnightblue" stroke="midnightblue" points="1119.87,-115.406 1130.25,-113.261 1120.8,-108.467 1119.87,-115.406"/>
</g>
<!-- Node18&#45;&gt;Node14 -->
<g id="edge22" class="edge"><title>Node18&#45;&gt;Node14</title>
<path fill="none" stroke="midnightblue" d="M1255.92,-113.398C1251.89,-112.907 1247.88,-112.435 1244,-112 1079.3,-93.5456 882.827,-77.2186 797.32,-70.3926"/>
<polygon fill="midnightblue" stroke="midnightblue" points="1255.59,-116.883 1265.94,-114.651 1256.45,-109.937 1255.59,-116.883"/>
</g>
<!-- Node19&#45;&gt;Node14 -->
<g id="edge24" class="edge"><title>Node19&#45;&gt;Node14</title>
<path fill="none" stroke="midnightblue" d="M431.197,-112.572C432.477,-112.378 433.746,-112.187 435,-112 533.6,-97.2622 649.549,-81.2311 710.884,-72.8529"/>
<polygon fill="midnightblue" stroke="midnightblue" points="430.604,-109.122 421.248,-114.095 431.663,-116.041 430.604,-109.122"/>
</g>
<!-- Node20&#45;&gt;Node14 -->
<g id="edge26" class="edge"><title>Node20&#45;&gt;Node14</title>
<path fill="none" stroke="midnightblue" d="M418.483,-165.513C428.488,-148.877 445.869,-124.576 468,-112 508.696,-88.874 641.56,-75.579 710.939,-70.0511"/>
<polygon fill="midnightblue" stroke="midnightblue" points="415.397,-163.859 413.463,-174.276 421.471,-167.338 415.397,-163.859"/>
</g>
<!-- Node22 -->
<g id="node22" class="node"><title>Node22</title>
<g id="a_node22"><a xlink:href="../../d8/db6/server_2command_2__mod_8inc.html" target="_top" xlink:title="server/command/_mod.inc">
<polygon fill="none" stroke="black" points="477,-112.5 477,-131.5 609,-131.5 609,-112.5 477,-112.5"/>
<text text-anchor="middle" x="543" y="-119.5" font-family="Helvetica,sans-Serif" font-size="10.00">server/command/_mod.inc</text>
</a>
</g>
</g>
<!-- Node21&#45;&gt;Node22 -->
<g id="edge28" class="edge"><title>Node21&#45;&gt;Node22</title>
<path fill="none" stroke="midnightblue" d="M536.775,-164.503C538.421,-153.527 540.431,-140.129 541.713,-131.581"/>
<polygon fill="midnightblue" stroke="midnightblue" points="533.312,-163.995 535.289,-174.403 540.234,-165.033 533.312,-163.995"/>
</g>
<!-- Node22&#45;&gt;Node14 -->
<g id="edge29" class="edge"><title>Node22&#45;&gt;Node14</title>
<path fill="none" stroke="midnightblue" d="M586.142,-109.959C625.994,-99.7598 684.363,-84.8217 720.723,-75.5164"/>
<polygon fill="midnightblue" stroke="midnightblue" points="585.254,-106.573 576.434,-112.444 586.989,-113.355 585.254,-106.573"/>
</g>
<!-- Node24 -->
<g id="node24" class="node"><title>Node24</title>
<g id="a_node24"><a xlink:href="../../d0/d70/server_2weapons_2__mod_8inc.html" target="_top" xlink:title="server/weapons/_mod.inc">
<polygon fill="none" stroke="black" points="627,-112.5 627,-131.5 755,-131.5 755,-112.5 627,-112.5"/>
<text text-anchor="middle" x="691" y="-119.5" font-family="Helvetica,sans-Serif" font-size="10.00">server/weapons/_mod.inc</text>
</a>
</g>
</g>
<!-- Node23&#45;&gt;Node24 -->
<g id="edge31" class="edge"><title>Node23&#45;&gt;Node24</title>
<path fill="none" stroke="midnightblue" d="M683.391,-164.503C685.403,-153.527 687.86,-140.129 689.427,-131.581"/>
<polygon fill="midnightblue" stroke="midnightblue" points="679.937,-163.936 681.576,-174.403 686.822,-165.199 679.937,-163.936"/>
</g>
<!-- Node24&#45;&gt;Node14 -->
<g id="edge32" class="edge"><title>Node24&#45;&gt;Node14</title>
<path fill="none" stroke="midnightblue" d="M709.04,-105.537C720.273,-95.9087 734.319,-83.8694 743.694,-75.8339"/>
<polygon fill="midnightblue" stroke="midnightblue" points="706.437,-103.159 701.122,-112.324 710.992,-108.473 706.437,-103.159"/>
</g>
</g>
</svg>
