<?xml version="1.0" encoding="UTF-8" standalone="no"?>
<!DOCTYPE svg PUBLIC "-//W3C//DTD SVG 1.1//EN"
 "http://www.w3.org/Graphics/SVG/1.1/DTD/svg11.dtd">
<!-- Generated by graphviz version 2.38.0 (20140413.2041)
 -->
<!-- Title: _Movetype_Physics_Follow Pages: 1 -->
<svg width="571pt" height="129pt"
 viewBox="0.00 0.00 571.00 129.00" xmlns="http://www.w3.org/2000/svg" xmlns:xlink="http://www.w3.org/1999/xlink">
<g id="graph0" class="graph" transform="scale(1 1) rotate(0) translate(4 125)">
<title>_Movetype_Physics_Follow</title>
<!-- Node1 -->
<g id="node1" class="node"><title>Node1</title>
<polygon fill="#bfbfbf" stroke="black" points="0,-63.5 0,-82.5 143,-82.5 143,-63.5 0,-63.5"/>
<text text-anchor="middle" x="71.5" y="-70.5" font-family="Helvetica,sans-Serif" font-size="10.00">_Movetype_Physics_Follow</text>
</g>
<!-- Node2 -->
<g id="node2" class="node"><title>Node2</title>
<g id="a_node2"><a xlink:href="../../d2/db1/movetypes_8qc.html#a1c681fcc84c5196534b06c2430e184ee" target="_top" xlink:title="_Movetype_LinkEdict">
<polygon fill="none" stroke="black" points="179,-63.5 179,-82.5 295,-82.5 295,-63.5 179,-63.5"/>
<text text-anchor="middle" x="237" y="-70.5" font-family="Helvetica,sans-Serif" font-size="10.00">_Movetype_LinkEdict</text>
</a>
</g>
</g>
<!-- Node1&#45;&gt;Node2 -->
<g id="edge1" class="edge"><title>Node1&#45;&gt;Node2</title>
<path fill="none" stroke="midnightblue" d="M143.263,-73C151.73,-73 160.357,-73 168.773,-73"/>
<polygon fill="midnightblue" stroke="midnightblue" points="168.907,-76.5001 178.907,-73 168.907,-69.5001 168.907,-76.5001"/>
</g>
<!-- Node3 -->
<g id="node3" class="node"><title>Node3</title>
<g id="a_node3"><a xlink:href="../../da/dde/csprogsdefs_8qh.html#a2626679e4144af8478202c6c28f90cd9" target="_top" xlink:title="vector">
<polygon fill="none" stroke="black" points="365.5,-101.5 365.5,-120.5 412.5,-120.5 412.5,-101.5 365.5,-101.5"/>
<text text-anchor="middle" x="389" y="-108.5" font-family="Helvetica,sans-Serif" font-size="10.00">vector</text>
</a>
</g>
</g>
<!-- Node1&#45;&gt;Node3 -->
<g id="edge8" class="edge"><title>Node1&#45;&gt;Node3</title>
<path fill="none" stroke="midnightblue" d="M120.873,-82.5354C139.046,-85.8788 159.92,-89.4356 179,-92 241.118,-100.349 314.126,-106.057 355.34,-108.903"/>
<polygon fill="midnightblue" stroke="midnightblue" points="355.138,-112.397 365.351,-109.581 355.611,-105.413 355.138,-112.397"/>
</g>
<!-- Node8 -->
<g id="node8" class="node"><title>Node8</title>
<g id="a_node8"><a xlink:href="../../d4/d0c/csprogsdefs_8qc.html#acbb54a239d76062465dccbc6a6c6e464" target="_top" xlink:title="entity">
<polygon fill="none" stroke="black" points="215,-25.5 215,-44.5 259,-44.5 259,-25.5 215,-25.5"/>
<text text-anchor="middle" x="237" y="-32.5" font-family="Helvetica,sans-Serif" font-size="10.00">entity</text>
</a>
</g>
</g>
<!-- Node1&#45;&gt;Node8 -->
<g id="edge7" class="edge"><title>Node1&#45;&gt;Node8</title>
<path fill="none" stroke="midnightblue" d="M113.758,-63.411C142.027,-56.8408 178.939,-48.2619 204.775,-42.2571"/>
<polygon fill="midnightblue" stroke="midnightblue" points="205.824,-45.6068 214.772,-39.9337 204.239,-38.7885 205.824,-45.6068"/>
</g>
<!-- Node2&#45;&gt;Node3 -->
<g id="edge2" class="edge"><title>Node2&#45;&gt;Node3</title>
<path fill="none" stroke="midnightblue" d="M275.851,-82.589C300.346,-88.7944 331.914,-96.7916 355.314,-102.72"/>
<polygon fill="midnightblue" stroke="midnightblue" points="354.563,-106.14 365.116,-105.203 356.282,-99.3541 354.563,-106.14"/>
</g>
<!-- Node4 -->
<g id="node4" class="node"><title>Node4</title>
<g id="a_node4"><a xlink:href="../../d5/dff/ent__cs_8qc.html#ac459a724c1fe031c6658fff554b12ea8" target="_top" xlink:title="setorigin">
<polygon fill="none" stroke="black" points="360,-63.5 360,-82.5 418,-82.5 418,-63.5 360,-63.5"/>
<text text-anchor="middle" x="389" y="-70.5" font-family="Helvetica,sans-Serif" font-size="10.00">setorigin</text>
</a>
</g>
</g>
<!-- Node2&#45;&gt;Node4 -->
<g id="edge3" class="edge"><title>Node2&#45;&gt;Node4</title>
<path fill="none" stroke="midnightblue" d="M295.136,-73C313.338,-73 333.03,-73 349.576,-73"/>
<polygon fill="midnightblue" stroke="midnightblue" points="349.948,-76.5001 359.948,-73 349.948,-69.5001 349.948,-76.5001"/>
</g>
<!-- Node5 -->
<g id="node5" class="node"><title>Node5</title>
<g id="a_node5"><a xlink:href="../../d2/db1/movetypes_8qc.html#a9eab855e43664a019197c6c63e17698b" target="_top" xlink:title="_Movetype_LinkEdict\l_TouchAreaGrid">
<polygon fill="none" stroke="black" points="331,-14 331,-44 447,-44 447,-14 331,-14"/>
<text text-anchor="start" x="339" y="-32" font-family="Helvetica,sans-Serif" font-size="10.00">_Movetype_LinkEdict</text>
<text text-anchor="middle" x="389" y="-21" font-family="Helvetica,sans-Serif" font-size="10.00">_TouchAreaGrid</text>
</a>
</g>
</g>
<!-- Node2&#45;&gt;Node5 -->
<g id="edge4" class="edge"><title>Node2&#45;&gt;Node5</title>
<path fill="none" stroke="midnightblue" d="M270.548,-63.4527C287.059,-58.6094 307.663,-52.5654 326.984,-46.898"/>
<polygon fill="midnightblue" stroke="midnightblue" points="328.03,-50.2387 336.641,-44.0654 326.06,-43.5217 328.03,-50.2387"/>
</g>
<!-- Node6 -->
<g id="node6" class="node"><title>Node6</title>
<g id="a_node6"><a xlink:href="../../d8/de2/menudefs_8qc.html#a79d61ab0e4126e02af8bc36d432aedaf" target="_top" xlink:title="vlen">
<polygon fill="none" stroke="black" points="505,-38.5 505,-57.5 541,-57.5 541,-38.5 505,-38.5"/>
<text text-anchor="middle" x="523" y="-45.5" font-family="Helvetica,sans-Serif" font-size="10.00">vlen</text>
</a>
</g>
</g>
<!-- Node5&#45;&gt;Node6 -->
<g id="edge5" class="edge"><title>Node5&#45;&gt;Node6</title>
<path fill="none" stroke="midnightblue" d="M447.129,-37.2232C463.623,-39.5973 480.87,-42.0797 494.647,-44.0629"/>
<polygon fill="midnightblue" stroke="midnightblue" points="494.476,-47.5742 504.872,-45.5346 495.473,-40.6456 494.476,-47.5742"/>
</g>
<!-- Node7 -->
<g id="node7" class="node"><title>Node7</title>
<g id="a_node7"><a xlink:href="../../de/dcb/vector_8qh.html#a9d1cd3b60eb67f1ec2a17fc2022e4276" target="_top" xlink:title="requires that m2&gt;m1 in all coordinates, and that m4&gt;m3 ">
<polygon fill="none" stroke="black" points="483,-0.5 483,-19.5 563,-19.5 563,-0.5 483,-0.5"/>
<text text-anchor="middle" x="523" y="-7.5" font-family="Helvetica,sans-Serif" font-size="10.00">boxesoverlap</text>
</a>
</g>
</g>
<!-- Node5&#45;&gt;Node7 -->
<g id="edge6" class="edge"><title>Node5&#45;&gt;Node7</title>
<path fill="none" stroke="midnightblue" d="M447.129,-20.7768C455.65,-19.5504 464.371,-18.2951 472.711,-17.0947"/>
<polygon fill="midnightblue" stroke="midnightblue" points="473.256,-20.5523 482.655,-15.6632 472.259,-13.6237 473.256,-20.5523"/>
</g>
</g>
</svg>
