<?xml version="1.0" encoding="UTF-8" standalone="no"?>
<!DOCTYPE svg PUBLIC "-//W3C//DTD SVG 1.1//EN"
 "http://www.w3.org/Graphics/SVG/1.1/DTD/svg11.dtd">
<!-- Generated by graphviz version 2.40.1 (20161225.0304)
 -->
<!-- Title: CampaignPostIntermission Pages: 1 -->
<!--zoomable 142 -->
<svg id="main" version="1.1" xmlns="http://www.w3.org/2000/svg" xmlns:xlink="http://www.w3.org/1999/xlink" xml:space="preserve" onload="init(evt)">
<style type="text/css"><![CDATA[
.edge:hover path { stroke: red; }
.edge:hover polygon { stroke: red; fill: red; }
]]></style>
<script type="text/javascript"><![CDATA[
var edges = document.getElementsByTagName('g');
if (edges && edges.length) {
  for (var i=0;i<edges.length;i++) {
    if (edges[i].id.substr(0,4)=='edge') {
      edges[i].setAttribute('class','edge');
    }
  }
}
]]></script>
        <defs>
                <circle id="rim" cx="0" cy="0" r="7"/>
                <circle id="rim2" cx="0" cy="0" r="3.5"/>
                <g id="zoomPlus">
                        <use xlink:href="#rim" fill="#404040">
                                <set attributeName="fill" to="#808080" begin="zoomplus.mouseover" end="zoomplus.mouseout"/>
                        </use>
                        <path d="M-4,0h8M0,-4v8" fill="none" stroke="white" stroke-width="1.5" pointer-events="none"/>
                </g>
                <g id="zoomMin">
                        <use xlink:href="#rim" fill="#404040">
                                <set attributeName="fill" to="#808080" begin="zoomminus.mouseover" end="zoomminus.mouseout"/>
                        </use>
                        <path d="M-4,0h8" fill="none" stroke="white" stroke-width="1.5" pointer-events="none"/>
                </g>
                <g id="dirArrow">
                        <path fill="none" stroke="white" stroke-width="1.5" d="M0,-3.0v7 M-2.5,-0.5L0,-3.0L2.5,-0.5"/>
                </g>
               <g id="resetDef">
                       <use xlink:href="#rim2" fill="#404040">
                               <set attributeName="fill" to="#808080" begin="reset.mouseover" end="reset.mouseout"/>
                       </use>
               </g>
        </defs>

<script type="text/javascript">
var viewWidth = 707;
var viewHeight = 142;
var sectionId = 'dynsection-8';
</script>
<script xlink:href="../../svgpan.js"/>
<svg id="graph" class="graph">
<g id="viewport">
<title>CampaignPostIntermission</title>
<!-- Node41 -->
<g id="node1" class="node">
<title>Node41</title>
<polygon fill="#bfbfbf" stroke="#000000" points="0,-57.5 0,-76.5 148,-76.5 148,-57.5 0,-57.5"/>
<text text-anchor="middle" x="74" y="-64.5" font-family="Helvetica,sans-Serif" font-size="10.00" fill="#000000">CampaignPostIntermission</text>
</g>
<!-- Node42 -->
<g id="node2" class="node">
<title>Node42</title>
<g id="a_node2"><a xlink:href="../../d7/d13/campaign__common_8qh.html#a60eb1da8586e91aa4e5ba36eb255b903" target="_top" xlink:title="CampaignFile_Unload">
<polygon fill="none" stroke="#000000" points="184,-95.5 184,-114.5 306,-114.5 306,-95.5 184,-95.5"/>
<text text-anchor="middle" x="245" y="-102.5" font-family="Helvetica,sans-Serif" font-size="10.00" fill="#000000">CampaignFile_Unload</text>
</a>
</g>
</g>
<!-- Node41&#45;&gt;Node42 -->
<g id="edge1" class="edge">
<title>Node41&#45;&gt;Node42</title>
<path fill="none" stroke="#191970" d="M117.1505,-76.589C139.9191,-81.6487 168.0482,-87.8996 192.1194,-93.2488"/>
<polygon fill="#191970" stroke="#191970" points="191.6386,-96.7272 202.1598,-95.4799 193.1572,-89.8939 191.6386,-96.7272"/>
</g>
<!-- Node43 -->
<g id="node3" class="node">
<title>Node43</title>
<g id="a_node3"><a xlink:href="../../d7/d13/campaign__common_8qh.html#aaa64dc89313bcf520b231ef1f80bee48" target="_top" xlink:title="CampaignSetup">
<polygon fill="none" stroke="#000000" points="198,-57.5 198,-76.5 292,-76.5 292,-57.5 198,-57.5"/>
<text text-anchor="middle" x="245" y="-64.5" font-family="Helvetica,sans-Serif" font-size="10.00" fill="#000000">CampaignSetup</text>
</a>
</g>
</g>
<!-- Node41&#45;&gt;Node43 -->
<g id="edge2" class="edge">
<title>Node41&#45;&gt;Node43</title>
<path fill="none" stroke="#191970" d="M148.0085,-67C161.1249,-67 174.6087,-67 187.1949,-67"/>
<polygon fill="#191970" stroke="#191970" points="187.5285,-70.5001 197.5284,-67 187.5284,-63.5001 187.5285,-70.5001"/>
</g>
<!-- Node52 -->
<g id="node12" class="node">
<title>Node52</title>
<g id="a_node12"><a xlink:href="../../d8/de2/menudefs_8qc.html#ab64c3a0e7d347975b8b7a5cd17ab0113" target="_top" xlink:title="strunzone">
<polygon fill="none" stroke="#000000" points="212.5,-19.5 212.5,-38.5 277.5,-38.5 277.5,-19.5 212.5,-19.5"/>
<text text-anchor="middle" x="245" y="-26.5" font-family="Helvetica,sans-Serif" font-size="10.00" fill="#000000">strunzone</text>
</a>
</g>
</g>
<!-- Node41&#45;&gt;Node52 -->
<g id="edge11" class="edge">
<title>Node41&#45;&gt;Node52</title>
<path fill="none" stroke="#191970" d="M117.1505,-57.411C143.2668,-51.6074 176.4359,-44.2365 202.4441,-38.4569"/>
<polygon fill="#191970" stroke="#191970" points="203.387,-41.8328 212.3896,-36.2468 201.8684,-34.9995 203.387,-41.8328"/>
</g>
<!-- Node44 -->
<g id="node4" class="node">
<title>Node44</title>
<g id="a_node4"><a xlink:href="../../d8/de2/menudefs_8qc.html#abbb0d86741e0056b6c04f7280c185d76" target="_top" xlink:title="ftos">
<polygon fill="none" stroke="#000000" points="376.5,-76.5 376.5,-95.5 411.5,-95.5 411.5,-76.5 376.5,-76.5"/>
<text text-anchor="middle" x="394" y="-83.5" font-family="Helvetica,sans-Serif" font-size="10.00" fill="#000000">ftos</text>
</a>
</g>
</g>
<!-- Node43&#45;&gt;Node44 -->
<g id="edge3" class="edge">
<title>Node43&#45;&gt;Node44</title>
<path fill="none" stroke="#191970" d="M292.1445,-73.0117C316.5391,-76.1224 345.4779,-79.8126 366.2635,-82.4631"/>
<polygon fill="#191970" stroke="#191970" points="365.9602,-85.9527 376.3226,-83.7458 366.8457,-79.0089 365.9602,-85.9527"/>
</g>
<!-- Node45 -->
<g id="node5" class="node">
<title>Node45</title>
<g id="a_node5"><a xlink:href="../../d3/d46/mapinfo_8qc.html#a52d7de04a91f2719a995565171513e26" target="_top" xlink:title="MapInfo_LoadMap">
<polygon fill="none" stroke="#000000" points="342,-38.5 342,-57.5 446,-57.5 446,-38.5 342,-38.5"/>
<text text-anchor="middle" x="394" y="-45.5" font-family="Helvetica,sans-Serif" font-size="10.00" fill="#000000">MapInfo_LoadMap</text>
</a>
</g>
</g>
<!-- Node43&#45;&gt;Node45 -->
<g id="edge4" class="edge">
<title>Node43&#45;&gt;Node45</title>
<path fill="none" stroke="#191970" d="M292.1445,-60.9883C304.7814,-59.3769 318.6378,-57.6099 331.9485,-55.9126"/>
<polygon fill="#191970" stroke="#191970" points="332.5147,-59.3688 341.9916,-54.6319 331.6292,-52.4251 332.5147,-59.3688"/>
</g>
<!-- Node46 -->
<g id="node6" class="node">
<title>Node46</title>
<g id="a_node6"><a xlink:href="../../da/d44/common_2util_8qc.html#a6e565570901e86f89595330fe2e6f66f" target="_top" xlink:title="cvar_settemp_restore">
<polygon fill="none" stroke="#000000" points="482,-57.5 482,-76.5 605,-76.5 605,-57.5 482,-57.5"/>
<text text-anchor="middle" x="543.5" y="-64.5" font-family="Helvetica,sans-Serif" font-size="10.00" fill="#000000">cvar_settemp_restore</text>
</a>
</g>
</g>
<!-- Node45&#45;&gt;Node46 -->
<g id="edge5" class="edge">
<title>Node45&#45;&gt;Node46</title>
<path fill="none" stroke="#191970" d="M446.2878,-54.6453C454.5186,-55.6913 463.1499,-56.7883 471.7288,-57.8786"/>
<polygon fill="#191970" stroke="#191970" points="471.387,-61.3632 481.7485,-59.152 472.2696,-54.4191 471.387,-61.3632"/>
</g>
<!-- Node51 -->
<g id="node11" class="node">
<title>Node51</title>
<g id="a_node11"><a xlink:href="../../d9/d09/notifications_2all_8inc.html#a2001490494c160e7cca8dc9273fc93d8" target="_top" xlink:title="strcat">
<polygon fill="none" stroke="#000000" points="521.5,-19.5 521.5,-38.5 565.5,-38.5 565.5,-19.5 521.5,-19.5"/>
<text text-anchor="middle" x="543.5" y="-26.5" font-family="Helvetica,sans-Serif" font-size="10.00" fill="#000000">strcat</text>
</a>
</g>
</g>
<!-- Node45&#45;&gt;Node51 -->
<g id="edge10" class="edge">
<title>Node45&#45;&gt;Node51</title>
<path fill="none" stroke="#191970" d="M446.2878,-41.3547C468.0278,-38.5918 492.5622,-35.4737 511.5444,-33.0612"/>
<polygon fill="#191970" stroke="#191970" points="511.987,-36.5332 521.4659,-31.8003 511.1044,-29.5891 511.987,-36.5332"/>
</g>
<!-- Node47 -->
<g id="node7" class="node">
<title>Node47</title>
<g id="a_node7"><a xlink:href="../../d8/de2/menudefs_8qc.html#a0b350379da8a7002dee40a3598bf33c3" target="_top" xlink:title="cvar_set">
<polygon fill="none" stroke="#000000" points="641,-114.5 641,-133.5 699,-133.5 699,-114.5 641,-114.5"/>
<text text-anchor="middle" x="670" y="-121.5" font-family="Helvetica,sans-Serif" font-size="10.00" fill="#000000">cvar_set</text>
</a>
</g>
</g>
<!-- Node46&#45;&gt;Node47 -->
<g id="edge6" class="edge">
<title>Node46&#45;&gt;Node47</title>
<path fill="none" stroke="#191970" d="M564.6733,-76.5405C585.1055,-85.7472 616.2591,-99.7847 639.3902,-110.2074"/>
<polygon fill="#191970" stroke="#191970" points="638.2026,-113.5112 648.7577,-114.4284 641.0783,-107.1291 638.2026,-113.5112"/>
</g>
<!-- Node48 -->
<g id="node8" class="node">
<title>Node48</title>
<g id="a_node8"><a xlink:href="../../d4/d0c/csprogsdefs_8qc.html#acbb54a239d76062465dccbc6a6c6e464" target="_top" xlink:title="entity">
<polygon fill="none" stroke="#000000" points="647.5,-76.5 647.5,-95.5 692.5,-95.5 692.5,-76.5 647.5,-76.5"/>
<text text-anchor="middle" x="670" y="-83.5" font-family="Helvetica,sans-Serif" font-size="10.00" fill="#000000">entity</text>
</a>
</g>
</g>
<!-- Node46&#45;&gt;Node48 -->
<g id="edge7" class="edge">
<title>Node46&#45;&gt;Node48</title>
<path fill="none" stroke="#191970" d="M605.2677,-76.2774C616.3216,-77.9376 627.436,-79.607 637.2592,-81.0824"/>
<polygon fill="#191970" stroke="#191970" points="636.9389,-84.5735 647.3478,-82.5977 637.9787,-77.6511 636.9389,-84.5735"/>
</g>
<!-- Node49 -->
<g id="node9" class="node">
<title>Node49</title>
<g id="a_node9"><a xlink:href="../../d8/de2/menudefs_8qc.html#a53c4a8e7afd17cad92bc00adba96bb78" target="_top" xlink:title="find">
<polygon fill="none" stroke="#000000" points="652.5,-38.5 652.5,-57.5 687.5,-57.5 687.5,-38.5 652.5,-38.5"/>
<text text-anchor="middle" x="670" y="-45.5" font-family="Helvetica,sans-Serif" font-size="10.00" fill="#000000">find</text>
</a>
</g>
</g>
<!-- Node46&#45;&gt;Node49 -->
<g id="edge8" class="edge">
<title>Node46&#45;&gt;Node49</title>
<path fill="none" stroke="#191970" d="M605.2677,-57.7226C618.2502,-55.7727 631.316,-53.8102 642.2757,-52.1641"/>
<polygon fill="#191970" stroke="#191970" points="643.0831,-55.5822 652.4523,-50.6356 642.0433,-48.6598 643.0831,-55.5822"/>
</g>
<!-- Node50 -->
<g id="node10" class="node">
<title>Node50</title>
<g id="a_node10"><a xlink:href="../../d8/de2/menudefs_8qc.html#acf9c719e766113bad854907e87812e98" target="_top" xlink:title="print">
<polygon fill="none" stroke="#000000" points="650.5,-.5 650.5,-19.5 689.5,-19.5 689.5,-.5 650.5,-.5"/>
<text text-anchor="middle" x="670" y="-7.5" font-family="Helvetica,sans-Serif" font-size="10.00" fill="#000000">print</text>
</a>
</g>
</g>
<!-- Node46&#45;&gt;Node50 -->
<g id="edge9" class="edge">
<title>Node46&#45;&gt;Node50</title>
<path fill="none" stroke="#191970" d="M579.4552,-57.4084C587.9685,-54.724 596.9188,-51.5541 605,-48 619.4933,-41.6259 634.823,-32.7766 646.9531,-25.2214"/>
<polygon fill="#191970" stroke="#191970" points="648.9806,-28.0798 655.5385,-19.7585 645.2227,-22.174 648.9806,-28.0798"/>
</g>
</g>
</svg>
        <g id="navigator" transform="translate(0 0)" fill="#404254">
                <rect fill="#f2f5e9" fill-opacity="0.5" stroke="#606060" stroke-width=".5" x="0" y="0" width="60" height="60"/>
                <use id="zoomplus" xlink:href="#zoomPlus" x="17" y="9" onmousedown="handleZoom(evt,'in')"/>
                <use id="zoomminus" xlink:href="#zoomMin" x="42" y="9" onmousedown="handleZoom(evt,'out')"/>
                <use id="reset" xlink:href="#resetDef" x="30" y="36" onmousedown="handleReset()"/>
                <g id="arrowUp" xlink:href="#dirArrow" transform="translate(30 24)" onmousedown="handlePan(0,-1)">
                  <use xlink:href="#rim" fill="#404040">
                        <set attributeName="fill" to="#808080" begin="arrowUp.mouseover" end="arrowUp.mouseout"/>
                  </use>
                  <path fill="none" stroke="white" stroke-width="1.5" d="M0,-3.0v7 M-2.5,-0.5L0,-3.0L2.5,-0.5"/>
                </g>
                <g id="arrowRight" xlink:href="#dirArrow" transform="rotate(90) translate(36 -43)" onmousedown="handlePan(1,0)">
                  <use xlink:href="#rim" fill="#404040">
                        <set attributeName="fill" to="#808080" begin="arrowRight.mouseover" end="arrowRight.mouseout"/>
                  </use>
                  <path fill="none" stroke="white" stroke-width="1.5" d="M0,-3.0v7 M-2.5,-0.5L0,-3.0L2.5,-0.5"/>
                </g>
                <g id="arrowDown" xlink:href="#dirArrow" transform="rotate(180) translate(-30 -48)" onmousedown="handlePan(0,1)">
                  <use xlink:href="#rim" fill="#404040">
                        <set attributeName="fill" to="#808080" begin="arrowDown.mouseover" end="arrowDown.mouseout"/>
                  </use>
                  <path fill="none" stroke="white" stroke-width="1.5" d="M0,-3.0v7 M-2.5,-0.5L0,-3.0L2.5,-0.5"/>
                </g>
                <g id="arrowLeft" xlink:href="#dirArrow" transform="rotate(270) translate(-36 17)" onmousedown="handlePan(-1,0)">
                  <use xlink:href="#rim" fill="#404040">
                        <set attributeName="fill" to="#808080" begin="arrowLeft.mouseover" end="arrowLeft.mouseout"/>
                  </use>
                  <path fill="none" stroke="white" stroke-width="1.5" d="M0,-3.0v7 M-2.5,-0.5L0,-3.0L2.5,-0.5"/>
                </g>
        </g>
        <svg viewBox="0 0 15 15" width="100%" height="30px" preserveAspectRatio="xMaxYMin meet">
         <g id="arrow_out" transform="scale(0.3 0.3)">
          <a xlink:href="server_2campaign_8qh_a2b9cdced57d7a6f892650ad7eef8c702_cgraph_org.svg" target="_base">
           <rect id="button" ry="5" rx="5" y="6" x="6" height="38" width="38"
                fill="#f2f5e9" fill-opacity="0.5" stroke="#606060" stroke-width="1.0"/>
           <path id="arrow"
             d="M 11.500037,31.436501 C 11.940474,20.09759 22.043105,11.32322 32.158766,21.979434 L 37.068811,17.246167 C 37.068811,17.246167 37.088388,32 37.088388,32 L 22.160133,31.978069 C 22.160133,31.978069 26.997745,27.140456 26.997745,27.140456 C 18.528582,18.264221 13.291696,25.230495 11.500037,31.436501 z"
             style="fill:#404040;"/>
          </a>
         </g>
        </svg>
</svg>
