<?xml version="1.0" encoding="UTF-8" standalone="no"?>
<!DOCTYPE svg PUBLIC "-//W3C//DTD SVG 1.1//EN"
 "http://www.w3.org/Graphics/SVG/1.1/DTD/svg11.dtd">
<!-- Generated by graphviz version 2.36.0 (20140111.2315)
 -->
<!-- Title: TextSlider Pages: 1 -->
<!--zoomable 544 -->
<svg id="main" version="1.1" xmlns="http://www.w3.org/2000/svg" xmlns:xlink="http://www.w3.org/1999/xlink" xml:space="preserve" onload="init(evt)">
<style type="text/css"><![CDATA[
.edge:hover path { stroke: red; }
.edge:hover polygon { stroke: red; fill: red; }
]]></style>
<script type="text/javascript"><![CDATA[
var edges = document.getElementsByTagName('g');
if (edges && edges.length) {
  for (var i=0;i<edges.length;i++) {
    if (edges[i].id.substr(0,4)=='edge') {
      edges[i].setAttribute('class','edge');
    }
  }
}
]]></script>
        <defs>
                <circle id="rim" cx="0" cy="0" r="7"/>
                <circle id="rim2" cx="0" cy="0" r="3.5"/>
                <g id="zoomPlus">
                        <use xlink:href="#rim" fill="#404040">
                                <set attributeName="fill" to="#808080" begin="zoomplus.mouseover" end="zoomplus.mouseout"/>
                        </use>
                        <path d="M-4,0h8M0,-4v8" fill="none" stroke="white" stroke-width="1.5" pointer-events="none"/>
                </g>
                <g id="zoomMin">
                        <use xlink:href="#rim" fill="#404040">
                                <set attributeName="fill" to="#808080" begin="zoomminus.mouseover" end="zoomminus.mouseout"/>
                        </use>
                        <path d="M-4,0h8" fill="none" stroke="white" stroke-width="1.5" pointer-events="none"/>
                </g>
                <g id="dirArrow">
                        <path fill="none" stroke="white" stroke-width="1.5" d="M0,-3.0v7 M-2.5,-0.5L0,-3.0L2.5,-0.5"/>
                </g>
               <g id="resetDef">
                       <use xlink:href="#rim2" fill="#404040">
                               <set attributeName="fill" to="#808080" begin="reset.mouseover" end="reset.mouseout"/>
                       </use>
               </g>
        </defs>

<script type="text/javascript">
var viewWidth = 768;
var viewHeight = 544;
var sectionId = 'dynsection-1';
</script>
<script xlink:href="../../svgpan.js"/>
<svg id="graph" class="graph">
<g id="viewport">
<title>TextSlider</title>
<!-- Node1 -->
<g id="node1" class="node"><title>Node1</title>
<polygon fill="#bfbfbf" stroke="black" points="327.797,-0.5 327.797,-19.5 388.797,-19.5 388.797,-0.5 327.797,-0.5"/>
<text text-anchor="middle" x="358.297" y="-7.5" font-family="Helvetica,sans-Serif" font-size="10.00">TextSlider</text>
</g>
<!-- Node2 -->
<g id="node2" class="node"><title>Node2</title>
<g id="a_node2"><a xlink:href="../../d3/dbe/classSlider.html" target="_top" xlink:title="Slider">
<polygon fill="none" stroke="black" points="301.797,-68.5 301.797,-87.5 342.797,-87.5 342.797,-68.5 301.797,-68.5"/>
<text text-anchor="middle" x="322.297" y="-75.5" font-family="Helvetica,sans-Serif" font-size="10.00">Slider</text>
</a>
</g>
</g>
<!-- Node2&#45;&gt;Node1 -->
<g id="edge1" class="edge"><title>Node2&#45;&gt;Node1</title>
<path fill="none" stroke="midnightblue" d="M331.809,-59.563C338.78,-46.7815 347.956,-29.9599 353.475,-19.8411"/>
<polygon fill="midnightblue" stroke="midnightblue" points="328.72,-57.9167 327.004,-68.3717 334.865,-61.2687 328.72,-57.9167"/>
</g>
<!-- Node3 -->
<g id="node3" class="node"><title>Node3</title>
<g id="a_node3"><a xlink:href="../../d3/d1b/classLabel.html" target="_top" xlink:title="Label">
<polygon fill="none" stroke="black" points="302.297,-126.5 302.297,-145.5 342.297,-145.5 342.297,-126.5 302.297,-126.5"/>
<text text-anchor="middle" x="322.297" y="-133.5" font-family="Helvetica,sans-Serif" font-size="10.00">Label</text>
</a>
</g>
</g>
<!-- Node3&#45;&gt;Node2 -->
<g id="edge2" class="edge"><title>Node3&#45;&gt;Node2</title>
<path fill="none" stroke="midnightblue" d="M322.297,-115.953C322.297,-106.287 322.297,-95.0312 322.297,-87.5052"/>
<polygon fill="midnightblue" stroke="midnightblue" points="318.798,-116.25 322.297,-126.25 325.798,-116.25 318.798,-116.25"/>
</g>
<!-- Node4 -->
<g id="node4" class="node"><title>Node4</title>
<g id="a_node4"><a xlink:href="../../d0/dae/classItem.html" target="_top" xlink:title="Item">
<polygon fill="none" stroke="black" points="304.297,-360.5 304.297,-379.5 340.297,-379.5 340.297,-360.5 304.297,-360.5"/>
<text text-anchor="middle" x="322.297" y="-367.5" font-family="Helvetica,sans-Serif" font-size="10.00">Item</text>
</a>
</g>
</g>
<!-- Node4&#45;&gt;Node3 -->
<g id="edge3" class="edge"><title>Node4&#45;&gt;Node3</title>
<path fill="none" stroke="midnightblue" d="M322.297,-350.437C322.297,-303.236 322.297,-179.963 322.297,-145.858"/>
<polygon fill="midnightblue" stroke="midnightblue" points="318.798,-350.468 322.297,-360.468 325.798,-350.468 318.798,-350.468"/>
</g>
<!-- Node5 -->
<g id="node5" class="node"><title>Node5</title>
<g id="a_node5"><a xlink:href="../../d8/d4b/classObject.html" target="_top" xlink:title="Object">
<polygon fill="none" stroke="black" points="296.797,-516.5 296.797,-535.5 341.797,-535.5 341.797,-516.5 296.797,-516.5"/>
<text text-anchor="middle" x="319.297" y="-523.5" font-family="Helvetica,sans-Serif" font-size="10.00">Object</text>
</a>
</g>
</g>
<!-- Node5&#45;&gt;Node4 -->
<g id="edge4" class="edge"><title>Node5&#45;&gt;Node4</title>
<path fill="none" stroke="midnightblue" d="M319.668,-505.982C320.323,-472.374 321.659,-403.755 322.129,-379.625"/>
<polygon fill="midnightblue" stroke="midnightblue" points="316.163,-506.213 319.467,-516.279 323.162,-506.349 316.163,-506.213"/>
</g>
<!-- Node6 -->
<g id="node6" class="node"><title>Node6</title>
<polygon fill="none" stroke="#bfbfbf" points="376.797,-516.5 376.797,-535.5 417.797,-535.5 417.797,-516.5 376.797,-516.5"/>
<text text-anchor="middle" x="397.297" y="-523.5" font-family="Helvetica,sans-Serif" font-size="10.00">string</text>
</g>
<!-- Node6&#45;&gt;Node2 -->
<g id="edge13" class="edge"><title>Node6&#45;&gt;Node2</title>
<path fill="none" stroke="#9a32cd" stroke-dasharray="5,2" d="M428.099,-523.036C462.772,-520.107 515.901,-513.212 528.297,-498 540.651,-482.841 533.087,-472.96 528.297,-454 487.548,-292.679 360.391,-126.56 329.239,-87.5513"/>
<polygon fill="#9a32cd" stroke="#9a32cd" points="427.694,-519.556 417.996,-523.822 428.238,-526.535 427.694,-519.556"/>
<text text-anchor="middle" x="467.797" y="-222.5" font-family="Helvetica,sans-Serif" font-size="10.00"> src</text>
</g>
<!-- Node6&#45;&gt;Node3 -->
<g id="edge9" class="edge"><title>Node6&#45;&gt;Node3</title>
<path fill="none" stroke="#9a32cd" stroke-dasharray="5,2" d="M396.179,-506.187C392.515,-451.825 378.573,-290.354 336.297,-164 334.153,-157.591 330.653,-150.841 327.689,-145.693"/>
<polygon fill="#9a32cd" stroke="#9a32cd" points="392.699,-506.61 396.827,-516.368 399.685,-506.165 392.699,-506.61"/>
<text text-anchor="middle" x="416.797" y="-373" font-family="Helvetica,sans-Serif" font-size="10.00"> currentText</text>
<text text-anchor="middle" x="416.797" y="-362" font-family="Helvetica,sans-Serif" font-size="10.00">text</text>
</g>
<!-- Node6&#45;&gt;Node4 -->
<g id="edge5" class="edge"><title>Node6&#45;&gt;Node4</title>
<path fill="none" stroke="#9a32cd" stroke-dasharray="5,2" d="M367.715,-511.316C362.269,-507.655 357.109,-503.228 353.297,-498 325.89,-460.403 322.498,-401.581 322.235,-379.636"/>
<polygon fill="#9a32cd" stroke="#9a32cd" points="365.969,-514.35 376.354,-516.445 369.542,-508.33 365.969,-514.35"/>
<text text-anchor="middle" x="368.297" y="-473.5" font-family="Helvetica,sans-Serif" font-size="10.00"> tooltip</text>
</g>
<!-- Node7 -->
<g id="node7" class="node"><title>Node7</title>
<polygon fill="none" stroke="#bfbfbf" points="41.2975,-516.5 41.2975,-535.5 85.2975,-535.5 85.2975,-516.5 41.2975,-516.5"/>
<text text-anchor="middle" x="63.2975" y="-523.5" font-family="Helvetica,sans-Serif" font-size="10.00">vector</text>
</g>
<!-- Node7&#45;&gt;Node2 -->
<g id="edge14" class="edge"><title>Node7&#45;&gt;Node2</title>
<path fill="none" stroke="#9a32cd" stroke-dasharray="5,2" d="M54.6577,-507.133C28.5811,-450.346 -42.7683,-271.43 37.2975,-164 69.7719,-120.427 241.536,-91.0408 301.566,-81.9715"/>
<polygon fill="#9a32cd" stroke="#9a32cd" points="51.5313,-508.709 58.9532,-516.27 57.8662,-505.731 51.5313,-508.709"/>
<text text-anchor="middle" x="57.2975" y="-250" font-family="Helvetica,sans-Serif" font-size="10.00"> colorC</text>
<text text-anchor="middle" x="57.2975" y="-239" font-family="Helvetica,sans-Serif" font-size="10.00">color2</text>
<text text-anchor="middle" x="57.2975" y="-228" font-family="Helvetica,sans-Serif" font-size="10.00">tolerance</text>
<text text-anchor="middle" x="57.2975" y="-217" font-family="Helvetica,sans-Serif" font-size="10.00">colorD</text>
<text text-anchor="middle" x="57.2975" y="-206" font-family="Helvetica,sans-Serif" font-size="10.00">colorF</text>
<text text-anchor="middle" x="57.2975" y="-195" font-family="Helvetica,sans-Serif" font-size="10.00">color</text>
</g>
<!-- Node7&#45;&gt;Node3 -->
<g id="edge11" class="edge"><title>Node7&#45;&gt;Node3</title>
<path fill="none" stroke="#9a32cd" stroke-dasharray="5,2" d="M61.3134,-505.985C56.1783,-445.683 49.225,-257.221 150.297,-164 172.128,-143.866 261.783,-138.733 302.28,-137.435"/>
<polygon fill="#9a32cd" stroke="#9a32cd" points="57.8599,-506.644 62.2836,-516.271 64.8289,-505.986 57.8599,-506.644"/>
<text text-anchor="middle" x="114.797" y="-384" font-family="Helvetica,sans-Serif" font-size="10.00"> realFontSize</text>
<text text-anchor="middle" x="114.797" y="-373" font-family="Helvetica,sans-Serif" font-size="10.00">colorL</text>
<text text-anchor="middle" x="114.797" y="-362" font-family="Helvetica,sans-Serif" font-size="10.00">overrideRealOrigin</text>
<text text-anchor="middle" x="114.797" y="-351" font-family="Helvetica,sans-Serif" font-size="10.00">realOrigin</text>
</g>
<!-- Node7&#45;&gt;Node4 -->
<g id="edge6" class="edge"><title>Node7&#45;&gt;Node4</title>
<path fill="none" stroke="#9a32cd" stroke-dasharray="5,2" d="M90.5781,-512.022C122.962,-496.908 178.819,-471.751 228.297,-454 255.305,-444.311 268.314,-454.439 290.297,-436 308.222,-420.965 316.993,-393.465 320.449,-379.55"/>
<polygon fill="#9a32cd" stroke="#9a32cd" points="88.8793,-508.953 81.3146,-516.371 91.8541,-515.29 88.8793,-508.953"/>
<text text-anchor="middle" x="240.297" y="-479" font-family="Helvetica,sans-Serif" font-size="10.00"> size</text>
<text text-anchor="middle" x="240.297" y="-468" font-family="Helvetica,sans-Serif" font-size="10.00">origin</text>
</g>
<!-- Node8 -->
<g id="node8" class="node"><title>Node8</title>
<polygon fill="none" stroke="#bfbfbf" points="219.797,-516.5 219.797,-535.5 260.797,-535.5 260.797,-516.5 219.797,-516.5"/>
<text text-anchor="middle" x="240.297" y="-523.5" font-family="Helvetica,sans-Serif" font-size="10.00">entity</text>
</g>
<!-- Node8&#45;&gt;Node2 -->
<g id="edge15" class="edge"><title>Node8&#45;&gt;Node2</title>
<path fill="none" stroke="#9a32cd" stroke-dasharray="5,2" d="M210.076,-518.152C199.428,-514.13 188.56,-507.824 182.297,-498 172.329,-482.364 142.11,-269.339 201.297,-164 223.682,-124.162 273.437,-98.6294 301.678,-86.7691"/>
<polygon fill="#9a32cd" stroke="#9a32cd" points="209.062,-521.503 219.654,-521.239 211.209,-514.84 209.062,-521.503"/>
<text text-anchor="middle" x="225.797" y="-222.5" font-family="Helvetica,sans-Serif" font-size="10.00"> sliderAnim</text>
</g>
<!-- Node8&#45;&gt;Node3 -->
<g id="edge10" class="edge"><title>Node8&#45;&gt;Node3</title>
<path fill="none" stroke="#9a32cd" stroke-dasharray="5,2" d="M238.755,-506.21C236.093,-467.695 232.425,-377.25 249.297,-304 264.071,-239.864 303.029,-169.703 317.119,-145.647"/>
<polygon fill="#9a32cd" stroke="#9a32cd" points="235.282,-506.711 239.524,-516.42 242.262,-506.185 235.282,-506.711"/>
<text text-anchor="middle" x="272.297" y="-367.5" font-family="Helvetica,sans-Serif" font-size="10.00"> textEntity</text>
</g>
<!-- Node8&#45;&gt;Node4 -->
<g id="edge7" class="edge"><title>Node8&#45;&gt;Node4</title>
<path fill="none" stroke="#9a32cd" stroke-dasharray="5,2" d="M250.321,-507.81C260.623,-489.996 276.99,-461.272 290.297,-436 300.729,-416.189 312.125,-392.503 318.101,-379.908"/>
<polygon fill="#9a32cd" stroke="#9a32cd" points="247.274,-506.088 245.281,-516.493 253.328,-509.602 247.274,-506.088"/>
<text text-anchor="middle" x="295.797" y="-473.5" font-family="Helvetica,sans-Serif" font-size="10.00"> parent</text>
</g>
<!-- Node9 -->
<g id="node9" class="node"><title>Node9</title>
<polygon fill="none" stroke="#bfbfbf" points="559.797,-516.5 559.797,-535.5 594.797,-535.5 594.797,-516.5 559.797,-516.5"/>
<text text-anchor="middle" x="577.297" y="-523.5" font-family="Helvetica,sans-Serif" font-size="10.00">float</text>
</g>
<!-- Node9&#45;&gt;Node2 -->
<g id="edge16" class="edge"><title>Node9&#45;&gt;Node2</title>
<path fill="none" stroke="#9a32cd" stroke-dasharray="5,2" d="M600.568,-510.639C622.967,-495.305 655.422,-468.728 669.297,-436 692.197,-381.987 685.398,-360.414 669.297,-304 649.192,-233.555 639.929,-209.226 582.297,-164 577.371,-160.134 403.938,-104.897 343.118,-85.5975"/>
<polygon fill="#9a32cd" stroke="#9a32cd" points="598.375,-507.893 591.958,-516.324 602.231,-513.735 598.375,-507.893"/>
<text text-anchor="middle" x="712.297" y="-277.5" font-family="Helvetica,sans-Serif" font-size="10.00"> valuePageStep</text>
<text text-anchor="middle" x="712.297" y="-266.5" font-family="Helvetica,sans-Serif" font-size="10.00">pressed</text>
<text text-anchor="middle" x="712.297" y="-255.5" font-family="Helvetica,sans-Serif" font-size="10.00">valueMin</text>
<text text-anchor="middle" x="712.297" y="-244.5" font-family="Helvetica,sans-Serif" font-size="10.00">allowFocusSound</text>
<text text-anchor="middle" x="712.297" y="-233.5" font-family="Helvetica,sans-Serif" font-size="10.00">valueStep</text>
<text text-anchor="middle" x="712.297" y="-222.5" font-family="Helvetica,sans-Serif" font-size="10.00">disabledAlpha</text>
<text text-anchor="middle" x="712.297" y="-211.5" font-family="Helvetica,sans-Serif" font-size="10.00">focusable</text>
<text text-anchor="middle" x="712.297" y="-200.5" font-family="Helvetica,sans-Serif" font-size="10.00">textSpace</text>
<text text-anchor="middle" x="712.297" y="-189.5" font-family="Helvetica,sans-Serif" font-size="10.00">valueDisplayMultiplier</text>
<text text-anchor="middle" x="712.297" y="-178.5" font-family="Helvetica,sans-Serif" font-size="10.00">sliderValue</text>
<text text-anchor="middle" x="712.297" y="-167.5" font-family="Helvetica,sans-Serif" font-size="10.00">...</text>
</g>
<!-- Node9&#45;&gt;Node3 -->
<g id="edge12" class="edge"><title>Node9&#45;&gt;Node3</title>
<path fill="none" stroke="#9a32cd" stroke-dasharray="5,2" d="M579.011,-505.827C584.595,-438.361 599.327,-213.329 552.297,-164 537.906,-148.905 395.738,-140.542 342.386,-137.915"/>
<polygon fill="#9a32cd" stroke="#9a32cd" points="575.488,-505.94 578.119,-516.203 582.462,-506.54 575.488,-505.94"/>
<text text-anchor="middle" x="625.797" y="-428" font-family="Helvetica,sans-Serif" font-size="10.00"> allowColors</text>
<text text-anchor="middle" x="625.797" y="-417" font-family="Helvetica,sans-Serif" font-size="10.00">condenseFactor</text>
<text text-anchor="middle" x="625.797" y="-406" font-family="Helvetica,sans-Serif" font-size="10.00">marginLeft</text>
<text text-anchor="middle" x="625.797" y="-395" font-family="Helvetica,sans-Serif" font-size="10.00">allowWrap</text>
<text text-anchor="middle" x="625.797" y="-384" font-family="Helvetica,sans-Serif" font-size="10.00">allowCut</text>
<text text-anchor="middle" x="625.797" y="-373" font-family="Helvetica,sans-Serif" font-size="10.00">marginRight</text>
<text text-anchor="middle" x="625.797" y="-362" font-family="Helvetica,sans-Serif" font-size="10.00">disabledAlpha</text>
<text text-anchor="middle" x="625.797" y="-351" font-family="Helvetica,sans-Serif" font-size="10.00">alpha</text>
<text text-anchor="middle" x="625.797" y="-340" font-family="Helvetica,sans-Serif" font-size="10.00">recalcPos</text>
<text text-anchor="start" x="586.297" y="-329" font-family="Helvetica,sans-Serif" font-size="10.00">overrideCondense</text>
<text text-anchor="middle" x="625.797" y="-318" font-family="Helvetica,sans-Serif" font-size="10.00">Factor</text>
<text text-anchor="middle" x="625.797" y="-307" font-family="Helvetica,sans-Serif" font-size="10.00">...</text>
</g>
<!-- Node9&#45;&gt;Node4 -->
<g id="edge8" class="edge"><title>Node9&#45;&gt;Node4</title>
<path fill="none" stroke="#9a32cd" stroke-dasharray="5,2" d="M549.646,-521.111C526.627,-517.215 493.363,-510.033 466.297,-498 421.578,-478.119 411.358,-469.086 375.297,-436 355.771,-418.084 337.221,-392.789 328.128,-379.663"/>
<polygon fill="#9a32cd" stroke="#9a32cd" points="549.32,-524.604 559.746,-522.721 550.422,-517.691 549.32,-524.604"/>
<text text-anchor="middle" x="514.797" y="-490" font-family="Helvetica,sans-Serif" font-size="10.00"> allowFocusSound</text>
<text text-anchor="middle" x="514.797" y="-479" font-family="Helvetica,sans-Serif" font-size="10.00">focused</text>
<text text-anchor="middle" x="514.797" y="-468" font-family="Helvetica,sans-Serif" font-size="10.00">focusable</text>
<text text-anchor="middle" x="514.797" y="-457" font-family="Helvetica,sans-Serif" font-size="10.00">preferredFocusPriority</text>
</g>
<!-- Node10 -->
<g id="node10" class="node"><title>Node10</title>
<polygon fill="none" stroke="#bfbfbf" points="360.797,-68.5 360.797,-87.5 389.797,-87.5 389.797,-68.5 360.797,-68.5"/>
<text text-anchor="middle" x="375.297" y="-75.5" font-family="Helvetica,sans-Serif" font-size="10.00">int</text>
</g>
<!-- Node10&#45;&gt;Node1 -->
<g id="edge17" class="edge"><title>Node10&#45;&gt;Node1</title>
<path fill="none" stroke="#9a32cd" stroke-dasharray="5,2" d="M370.513,-58.425C367.261,-45.7978 363.104,-29.6623 360.575,-19.8411"/>
<polygon fill="#9a32cd" stroke="#9a32cd" points="367.191,-59.5608 373.075,-68.3717 373.97,-57.8147 367.191,-59.5608"/>
<text text-anchor="middle" x="388.797" y="-41.5" font-family="Helvetica,sans-Serif" font-size="10.00"> nValues</text>
</g>
</g>
</svg>
        <g id="navigator" transform="translate(0 0)" fill="#404254">
                <rect fill="#f2f5e9" fill-opacity="0.5" stroke="#606060" stroke-width=".5" x="0" y="0" width="60" height="60"/>
                <use id="zoomplus" xlink:href="#zoomPlus" x="17" y="9" onmousedown="handleZoom(evt,'in')"/>
                <use id="zoomminus" xlink:href="#zoomMin" x="42" y="9" onmousedown="handleZoom(evt,'out')"/>
                <use id="reset" xlink:href="#resetDef" x="30" y="36" onmousedown="handleReset()"/>
                <g id="arrowUp" xlink:href="#dirArrow" transform="translate(30 24)" onmousedown="handlePan(0,-1)">
                  <use xlink:href="#rim" fill="#404040">
                        <set attributeName="fill" to="#808080" begin="arrowUp.mouseover" end="arrowUp.mouseout"/>
                  </use>
                  <path fill="none" stroke="white" stroke-width="1.5" d="M0,-3.0v7 M-2.5,-0.5L0,-3.0L2.5,-0.5"/>
                </g>
                <g id="arrowRight" xlink:href="#dirArrow" transform="rotate(90) translate(36 -43)" onmousedown="handlePan(1,0)">
                  <use xlink:href="#rim" fill="#404040">
                        <set attributeName="fill" to="#808080" begin="arrowRight.mouseover" end="arrowRight.mouseout"/>
                  </use>
                  <path fill="none" stroke="white" stroke-width="1.5" d="M0,-3.0v7 M-2.5,-0.5L0,-3.0L2.5,-0.5"/>
                </g>
                <g id="arrowDown" xlink:href="#dirArrow" transform="rotate(180) translate(-30 -48)" onmousedown="handlePan(0,1)">
                  <use xlink:href="#rim" fill="#404040">
                        <set attributeName="fill" to="#808080" begin="arrowDown.mouseover" end="arrowDown.mouseout"/>
                  </use>
                  <path fill="none" stroke="white" stroke-width="1.5" d="M0,-3.0v7 M-2.5,-0.5L0,-3.0L2.5,-0.5"/>
                </g>
                <g id="arrowLeft" xlink:href="#dirArrow" transform="rotate(270) translate(-36 17)" onmousedown="handlePan(-1,0)">
                  <use xlink:href="#rim" fill="#404040">
                        <set attributeName="fill" to="#808080" begin="arrowLeft.mouseover" end="arrowLeft.mouseout"/>
                  </use>
                  <path fill="none" stroke="white" stroke-width="1.5" d="M0,-3.0v7 M-2.5,-0.5L0,-3.0L2.5,-0.5"/>
                </g>
        </g>
        <svg viewBox="0 0 15 15" width="100%" height="30px" preserveAspectRatio="xMaxYMin meet">
         <g id="arrow_out" transform="scale(0.3 0.3)">
          <a xlink:href="classTextSlider__coll__graph_org.svg" target="_base">
           <rect id="button" ry="5" rx="5" y="6" x="6" height="38" width="38"
                fill="#f2f5e9" fill-opacity="0.5" stroke="#606060" stroke-width="1.0"/>
           <path id="arrow"
             d="M 11.500037,31.436501 C 11.940474,20.09759 22.043105,11.32322 32.158766,21.979434 L 37.068811,17.246167 C 37.068811,17.246167 37.088388,32 37.088388,32 L 22.160133,31.978069 C 22.160133,31.978069 26.997745,27.140456 26.997745,27.140456 C 18.528582,18.264221 13.291696,25.230495 11.500037,31.436501 z"
             style="fill:#404040;"/>
          </a>
         </g>
        </svg>
</svg>
