<?xml version="1.0" encoding="UTF-8" standalone="no"?>
<!DOCTYPE svg PUBLIC "-//W3C//DTD SVG 1.1//EN"
 "http://www.w3.org/Graphics/SVG/1.1/DTD/svg11.dtd">
<!-- Generated by graphviz version 2.40.1 (20161225.0304)
 -->
<!-- Title: Onslaught_count_generators Pages: 1 -->
<!--zoomable 256 -->
<svg id="main" version="1.1" xmlns="http://www.w3.org/2000/svg" xmlns:xlink="http://www.w3.org/1999/xlink" xml:space="preserve" onload="init(evt)">
<style type="text/css"><![CDATA[
.edge:hover path { stroke: red; }
.edge:hover polygon { stroke: red; fill: red; }
]]></style>
<script type="text/javascript"><![CDATA[
var edges = document.getElementsByTagName('g');
if (edges && edges.length) {
  for (var i=0;i<edges.length;i++) {
    if (edges[i].id.substr(0,4)=='edge') {
      edges[i].setAttribute('class','edge');
    }
  }
}
]]></script>
        <defs>
                <circle id="rim" cx="0" cy="0" r="7"/>
                <circle id="rim2" cx="0" cy="0" r="3.5"/>
                <g id="zoomPlus">
                        <use xlink:href="#rim" fill="#404040">
                                <set attributeName="fill" to="#808080" begin="zoomplus.mouseover" end="zoomplus.mouseout"/>
                        </use>
                        <path d="M-4,0h8M0,-4v8" fill="none" stroke="white" stroke-width="1.5" pointer-events="none"/>
                </g>
                <g id="zoomMin">
                        <use xlink:href="#rim" fill="#404040">
                                <set attributeName="fill" to="#808080" begin="zoomminus.mouseover" end="zoomminus.mouseout"/>
                        </use>
                        <path d="M-4,0h8" fill="none" stroke="white" stroke-width="1.5" pointer-events="none"/>
                </g>
                <g id="dirArrow">
                        <path fill="none" stroke="white" stroke-width="1.5" d="M0,-3.0v7 M-2.5,-0.5L0,-3.0L2.5,-0.5"/>
                </g>
               <g id="resetDef">
                       <use xlink:href="#rim2" fill="#404040">
                               <set attributeName="fill" to="#808080" begin="reset.mouseover" end="reset.mouseout"/>
                       </use>
               </g>
        </defs>

<script type="text/javascript">
var viewWidth = 704;
var viewHeight = 256;
var sectionId = 'dynsection-111';
</script>
<script xlink:href="../../svgpan.js"/>
<svg id="graph" class="graph">
<g id="viewport">
<title>Onslaught_count_generators</title>
<!-- Node4758 -->
<g id="node1" class="node">
<title>Node4758</title>
<polygon fill="#bfbfbf" stroke="#000000" points="0,-114.5 0,-133.5 156,-133.5 156,-114.5 0,-114.5"/>
<text text-anchor="middle" x="78" y="-121.5" font-family="Helvetica,sans-Serif" font-size="10.00" fill="#000000">Onslaught_count_generators</text>
</g>
<!-- Node4759 -->
<g id="node2" class="node">
<title>Node4759</title>
<g id="a_node2"><a xlink:href="../../d4/d0c/csprogsdefs_8qc.html#acbb54a239d76062465dccbc6a6c6e464" target="_top" xlink:title="entity">
<polygon fill="none" stroke="#000000" points="258,-228.5 258,-247.5 303,-247.5 303,-228.5 258,-228.5"/>
<text text-anchor="middle" x="280.5" y="-235.5" font-family="Helvetica,sans-Serif" font-size="10.00" fill="#000000">entity</text>
</a>
</g>
</g>
<!-- Node4758&#45;&gt;Node4759 -->
<g id="edge1" class="edge">
<title>Node4758&#45;&gt;Node4759</title>
<path fill="none" stroke="#191970" d="M86.3695,-133.5665C103.8941,-152.951 146.6,-196.895 192,-219 209.3168,-227.4314 230.3376,-232.1446 247.5465,-234.7673"/>
<polygon fill="#191970" stroke="#191970" points="247.322,-238.2688 257.7017,-236.1446 248.2629,-231.3323 247.322,-238.2688"/>
</g>
<!-- Node4760 -->
<g id="node3" class="node">
<title>Node4760</title>
<g id="a_node3"><a xlink:href="../../de/d4f/teamplay_8qc.html#a361810464bed269f4adfdde1177100bf" target="_top" xlink:title="Returns the team entity of the given entity. ">
<polygon fill="none" stroke="#000000" points="233.5,-190.5 233.5,-209.5 327.5,-209.5 327.5,-190.5 233.5,-190.5"/>
<text text-anchor="middle" x="280.5" y="-197.5" font-family="Helvetica,sans-Serif" font-size="10.00" fill="#000000">Entity_GetTeam</text>
</a>
</g>
</g>
<!-- Node4758&#45;&gt;Node4760 -->
<g id="edge2" class="edge">
<title>Node4758&#45;&gt;Node4760</title>
<path fill="none" stroke="#191970" d="M96.5687,-133.6106C118.8146,-144.8549 157.4202,-163.519 192,-176 204.1699,-180.3925 217.5325,-184.415 230.1038,-187.8596"/>
<polygon fill="#191970" stroke="#191970" points="229.4139,-191.2979 239.9782,-190.4943 231.2185,-184.5346 229.4139,-191.2979"/>
</g>
<!-- Node4764 -->
<g id="node7" class="node">
<title>Node4764</title>
<g id="a_node7"><a xlink:href="../../de/d4f/teamplay_8qc.html#ad8e889fc6c60b768543862d4e3454a49" target="_top" xlink:title="Returns the global team entity at the given index. ">
<polygon fill="none" stroke="#000000" points="405,-152.5 405,-171.5 548,-171.5 548,-152.5 405,-152.5"/>
<text text-anchor="middle" x="476.5" y="-159.5" font-family="Helvetica,sans-Serif" font-size="10.00" fill="#000000">Team_GetTeamFromIndex</text>
</a>
</g>
</g>
<!-- Node4758&#45;&gt;Node4764 -->
<g id="edge11" class="edge">
<title>Node4758&#45;&gt;Node4764</title>
<path fill="none" stroke="#191970" d="M128.6387,-133.5389C148.3537,-136.9638 171.1731,-140.5749 192,-143 260.0702,-150.926 337.7173,-155.8359 394.6773,-158.674"/>
<polygon fill="#191970" stroke="#191970" points="394.5482,-162.1718 404.7069,-159.163 394.8892,-155.1801 394.5482,-162.1718"/>
</g>
<!-- Node4765 -->
<g id="node8" class="node">
<title>Node4765</title>
<g id="a_node8"><a xlink:href="../../d8/d06/client_2resources_8qc.html#a53ec0a3c5a395e2b64d468c08f49b63f" target="_top" xlink:title="Returns the current amount of resource the given entity has. ">
<polygon fill="none" stroke="#000000" points="241.5,-114.5 241.5,-133.5 319.5,-133.5 319.5,-114.5 241.5,-114.5"/>
<text text-anchor="middle" x="280.5" y="-121.5" font-family="Helvetica,sans-Serif" font-size="10.00" fill="#000000">GetResource</text>
</a>
</g>
</g>
<!-- Node4758&#45;&gt;Node4765 -->
<g id="edge8" class="edge">
<title>Node4758&#45;&gt;Node4765</title>
<path fill="none" stroke="#191970" d="M156.0021,-124C181.3162,-124 208.6798,-124 231.2891,-124"/>
<polygon fill="#191970" stroke="#191970" points="231.3182,-127.5001 241.3182,-124 231.3181,-120.5001 231.3182,-127.5001"/>
</g>
<!-- Node4766 -->
<g id="node9" class="node">
<title>Node4766</title>
<g id="a_node9"><a xlink:href="../../d0/de4/sv__onslaught_8qc.html#ab106e734b4687c7b25b43e1e81a5899d" target="_top" xlink:title="nades_Clear">
<polygon fill="none" stroke="#000000" points="242,-76.5 242,-95.5 319,-95.5 319,-76.5 242,-76.5"/>
<text text-anchor="middle" x="280.5" y="-83.5" font-family="Helvetica,sans-Serif" font-size="10.00" fill="#000000">nades_Clear</text>
</a>
</g>
</g>
<!-- Node4758&#45;&gt;Node4766 -->
<g id="edge9" class="edge">
<title>Node4758&#45;&gt;Node4766</title>
<path fill="none" stroke="#191970" d="M128.8379,-114.46C160.3101,-108.5541 200.507,-101.011 231.6095,-95.1745"/>
<polygon fill="#191970" stroke="#191970" points="232.6,-98.5498 241.7829,-93.2654 231.3089,-91.6699 232.6,-98.5498"/>
</g>
<!-- Node4767 -->
<g id="node10" class="node">
<title>Node4767</title>
<g id="a_node10"><a xlink:href="../../de/d4f/teamplay_8qc.html#a9573f82ac68e723ed7859c26f7c2fb72" target="_top" xlink:title="Returns the number of items owned by a team. ">
<polygon fill="none" stroke="#000000" points="192,-38.5 192,-57.5 369,-57.5 369,-38.5 192,-38.5"/>
<text text-anchor="middle" x="280.5" y="-45.5" font-family="Helvetica,sans-Serif" font-size="10.00" fill="#000000">Team_GetNumberOfOwnedItems</text>
</a>
</g>
</g>
<!-- Node4758&#45;&gt;Node4767 -->
<g id="edge10" class="edge">
<title>Node4758&#45;&gt;Node4767</title>
<path fill="none" stroke="#191970" d="M94.0426,-114.3436C115.6059,-101.7518 155.4618,-79.8248 192,-67 199.59,-64.3359 207.683,-61.9776 215.7744,-59.9093"/>
<polygon fill="#191970" stroke="#191970" points="216.7133,-63.2831 225.6094,-57.5291 215.0667,-56.4796 216.7133,-63.2831"/>
</g>
<!-- Node4768 -->
<g id="node11" class="node">
<title>Node4768</title>
<g id="a_node11"><a xlink:href="../../de/d4f/teamplay_8qc.html#a8634407f7f7a25c0d6d567a2a4a90f33" target="_top" xlink:title="Sets the number of items owned by a team. ">
<polygon fill="none" stroke="#000000" points="192.5,-.5 192.5,-19.5 368.5,-19.5 368.5,-.5 192.5,-.5"/>
<text text-anchor="middle" x="280.5" y="-7.5" font-family="Helvetica,sans-Serif" font-size="10.00" fill="#000000">Team_SetNumberOfOwnedItems</text>
</a>
</g>
</g>
<!-- Node4758&#45;&gt;Node4768 -->
<g id="edge12" class="edge">
<title>Node4758&#45;&gt;Node4768</title>
<path fill="none" stroke="#191970" d="M86.3695,-114.4335C103.8941,-95.049 146.6,-51.105 192,-29 196.9451,-26.5922 202.1923,-24.4877 207.5665,-22.6485"/>
<polygon fill="#191970" stroke="#191970" points="208.8258,-25.9224 217.3395,-19.6163 206.7515,-19.2368 208.8258,-25.9224"/>
</g>
<!-- Node4761 -->
<g id="node4" class="node">
<title>Node4761</title>
<g id="a_node4"><a xlink:href="../../de/d4f/teamplay_8qc.html#a22c172b1bbd702efeb58f24a2cb5ac27" target="_top" xlink:title="Returns the team index of the given entity. ">
<polygon fill="none" stroke="#000000" points="416,-228.5 416,-247.5 537,-247.5 537,-228.5 416,-228.5"/>
<text text-anchor="middle" x="476.5" y="-235.5" font-family="Helvetica,sans-Serif" font-size="10.00" fill="#000000">Entity_GetTeamIndex</text>
</a>
</g>
</g>
<!-- Node4760&#45;&gt;Node4761 -->
<g id="edge3" class="edge">
<title>Node4760&#45;&gt;Node4761</title>
<path fill="none" stroke="#191970" d="M327.9461,-209.1987C354.904,-214.4253 388.89,-221.0144 417.5492,-226.5708"/>
<polygon fill="#191970" stroke="#191970" points="416.9606,-230.0217 427.4439,-228.4891 418.2929,-223.1497 416.9606,-230.0217"/>
</g>
<!-- Node4763 -->
<g id="node6" class="node">
<title>Node4763</title>
<g id="a_node6"><a xlink:href="../../db/d07/teams_8qh.html#a412e0e869a48ecb20307b6c916be7001" target="_top" xlink:title="Returns whether the team index is valid. ">
<polygon fill="none" stroke="#000000" points="586.5,-171.5 586.5,-190.5 693.5,-190.5 693.5,-171.5 586.5,-171.5"/>
<text text-anchor="middle" x="640" y="-178.5" font-family="Helvetica,sans-Serif" font-size="10.00" fill="#000000">Team_IsValidIndex</text>
</a>
</g>
</g>
<!-- Node4760&#45;&gt;Node4763 -->
<g id="edge5" class="edge">
<title>Node4760&#45;&gt;Node4763</title>
<path fill="none" stroke="#191970" d="M327.868,-197.4965C391.5631,-194.1302 505.0229,-188.1337 576.1894,-184.3725"/>
<polygon fill="#191970" stroke="#191970" points="576.5702,-187.8573 586.3715,-183.8343 576.2007,-180.8671 576.5702,-187.8573"/>
</g>
<!-- Node4760&#45;&gt;Node4764 -->
<g id="edge6" class="edge">
<title>Node4760&#45;&gt;Node4764</title>
<path fill="none" stroke="#191970" d="M327.9461,-190.8013C354.904,-185.5747 388.89,-178.9856 417.5492,-173.4292"/>
<polygon fill="#191970" stroke="#191970" points="418.2929,-176.8503 427.4439,-171.5109 416.9606,-169.9783 418.2929,-176.8503"/>
</g>
<!-- Node4762 -->
<g id="node5" class="node">
<title>Node4762</title>
<g id="a_node5"><a xlink:href="../../db/d07/teams_8qh.html#a897aed6be6a82e4d6622abde399e002d" target="_top" xlink:title="Converts team value into team index. ">
<polygon fill="none" stroke="#000000" points="584,-228.5 584,-247.5 696,-247.5 696,-228.5 584,-228.5"/>
<text text-anchor="middle" x="640" y="-235.5" font-family="Helvetica,sans-Serif" font-size="10.00" fill="#000000">Team_TeamToIndex</text>
</a>
</g>
</g>
<!-- Node4761&#45;&gt;Node4762 -->
<g id="edge4" class="edge">
<title>Node4761&#45;&gt;Node4762</title>
<path fill="none" stroke="#191970" d="M537.3814,-238C549.2978,-238 561.8482,-238 573.9245,-238"/>
<polygon fill="#191970" stroke="#191970" points="573.9328,-241.5001 583.9327,-238 573.9327,-234.5001 573.9328,-241.5001"/>
</g>
<!-- Node4764&#45;&gt;Node4763 -->
<g id="edge7" class="edge">
<title>Node4764&#45;&gt;Node4763</title>
<path fill="none" stroke="#191970" d="M548.2135,-170.3337C557.4398,-171.4059 566.8393,-172.4982 575.9323,-173.5548"/>
<polygon fill="#191970" stroke="#191970" points="575.7056,-177.0519 586.0427,-174.7297 576.5136,-170.0987 575.7056,-177.0519"/>
</g>
</g>
</svg>
        <g id="navigator" transform="translate(0 0)" fill="#404254">
                <rect fill="#f2f5e9" fill-opacity="0.5" stroke="#606060" stroke-width=".5" x="0" y="0" width="60" height="60"/>
                <use id="zoomplus" xlink:href="#zoomPlus" x="17" y="9" onmousedown="handleZoom(evt,'in')"/>
                <use id="zoomminus" xlink:href="#zoomMin" x="42" y="9" onmousedown="handleZoom(evt,'out')"/>
                <use id="reset" xlink:href="#resetDef" x="30" y="36" onmousedown="handleReset()"/>
                <g id="arrowUp" xlink:href="#dirArrow" transform="translate(30 24)" onmousedown="handlePan(0,-1)">
                  <use xlink:href="#rim" fill="#404040">
                        <set attributeName="fill" to="#808080" begin="arrowUp.mouseover" end="arrowUp.mouseout"/>
                  </use>
                  <path fill="none" stroke="white" stroke-width="1.5" d="M0,-3.0v7 M-2.5,-0.5L0,-3.0L2.5,-0.5"/>
                </g>
                <g id="arrowRight" xlink:href="#dirArrow" transform="rotate(90) translate(36 -43)" onmousedown="handlePan(1,0)">
                  <use xlink:href="#rim" fill="#404040">
                        <set attributeName="fill" to="#808080" begin="arrowRight.mouseover" end="arrowRight.mouseout"/>
                  </use>
                  <path fill="none" stroke="white" stroke-width="1.5" d="M0,-3.0v7 M-2.5,-0.5L0,-3.0L2.5,-0.5"/>
                </g>
                <g id="arrowDown" xlink:href="#dirArrow" transform="rotate(180) translate(-30 -48)" onmousedown="handlePan(0,1)">
                  <use xlink:href="#rim" fill="#404040">
                        <set attributeName="fill" to="#808080" begin="arrowDown.mouseover" end="arrowDown.mouseout"/>
                  </use>
                  <path fill="none" stroke="white" stroke-width="1.5" d="M0,-3.0v7 M-2.5,-0.5L0,-3.0L2.5,-0.5"/>
                </g>
                <g id="arrowLeft" xlink:href="#dirArrow" transform="rotate(270) translate(-36 17)" onmousedown="handlePan(-1,0)">
                  <use xlink:href="#rim" fill="#404040">
                        <set attributeName="fill" to="#808080" begin="arrowLeft.mouseover" end="arrowLeft.mouseout"/>
                  </use>
                  <path fill="none" stroke="white" stroke-width="1.5" d="M0,-3.0v7 M-2.5,-0.5L0,-3.0L2.5,-0.5"/>
                </g>
        </g>
        <svg viewBox="0 0 15 15" width="100%" height="30px" preserveAspectRatio="xMaxYMin meet">
         <g id="arrow_out" transform="scale(0.3 0.3)">
          <a xlink:href="sv__onslaught_8qc_a4c2ceee1997b66af4d4e5510dbbbb8aa_cgraph_org.svg" target="_base">
           <rect id="button" ry="5" rx="5" y="6" x="6" height="38" width="38"
                fill="#f2f5e9" fill-opacity="0.5" stroke="#606060" stroke-width="1.0"/>
           <path id="arrow"
             d="M 11.500037,31.436501 C 11.940474,20.09759 22.043105,11.32322 32.158766,21.979434 L 37.068811,17.246167 C 37.068811,17.246167 37.088388,32 37.088388,32 L 22.160133,31.978069 C 22.160133,31.978069 26.997745,27.140456 26.997745,27.140456 C 18.528582,18.264221 13.291696,25.230495 11.500037,31.436501 z"
             style="fill:#404040;"/>
          </a>
         </g>
        </svg>
</svg>
