<?xml version="1.0" encoding="UTF-8" standalone="no"?>
<!DOCTYPE svg PUBLIC "-//W3C//DTD SVG 1.1//EN"
 "http://www.w3.org/Graphics/SVG/1.1/DTD/svg11.dtd">
<!-- Generated by graphviz version 2.38.0 (20140413.2041)
 -->
<!-- Title: onslaught_controlpoint_icon_link Pages: 1 -->
<svg width="359pt" height="104pt"
 viewBox="0.00 0.00 359.00 104.00" xmlns="http://www.w3.org/2000/svg" xmlns:xlink="http://www.w3.org/1999/xlink">
<g id="graph0" class="graph" transform="scale(1 1) rotate(0) translate(4 100)">
<title>onslaught_controlpoint_icon_link</title>
<!-- Node1 -->
<g id="node1" class="node"><title>Node1</title>
<polygon fill="#bfbfbf" stroke="black" points="0,-33 0,-63 126,-63 126,-33 0,-33"/>
<text text-anchor="start" x="8" y="-51" font-family="Helvetica,sans-Serif" font-size="10.00">onslaught_controlpoint</text>
<text text-anchor="middle" x="63" y="-40" font-family="Helvetica,sans-Serif" font-size="10.00">_icon_link</text>
</g>
<!-- Node2 -->
<g id="node2" class="node"><title>Node2</title>
<g id="a_node2"><a xlink:href="../../de/d4d/sv__controlpoint_8qc.html#a82df6e0da0f9ef689ce91cd247f56513" target="_top" xlink:title="cpicon_send">
<polygon fill="none" stroke="black" points="162,-38.5 162,-57.5 238,-57.5 238,-38.5 162,-38.5"/>
<text text-anchor="middle" x="200" y="-45.5" font-family="Helvetica,sans-Serif" font-size="10.00">cpicon_send</text>
</a>
</g>
</g>
<!-- Node1&#45;&gt;Node2 -->
<g id="edge1" class="edge"><title>Node1&#45;&gt;Node2</title>
<path fill="none" stroke="midnightblue" d="M126.363,-48C134.912,-48 143.572,-48 151.79,-48"/>
<polygon fill="midnightblue" stroke="midnightblue" points="151.921,-51.5001 161.921,-48 151.921,-44.5001 151.921,-51.5001"/>
</g>
<!-- Node3 -->
<g id="node3" class="node"><title>Node3</title>
<g id="a_node3"><a xlink:href="../../d8/de2/menudefs_8qc.html#a22f100d9039928edd4e410c7d68858e7" target="_top" xlink:title="ceil">
<polygon fill="none" stroke="black" points="296.5,-76.5 296.5,-95.5 328.5,-95.5 328.5,-76.5 296.5,-76.5"/>
<text text-anchor="middle" x="312.5" y="-83.5" font-family="Helvetica,sans-Serif" font-size="10.00">ceil</text>
</a>
</g>
</g>
<!-- Node2&#45;&gt;Node3 -->
<g id="edge2" class="edge"><title>Node2&#45;&gt;Node3</title>
<path fill="none" stroke="midnightblue" d="M228.884,-57.589C246.568,-63.6704 269.256,-71.4726 286.381,-77.3617"/>
<polygon fill="midnightblue" stroke="midnightblue" points="285.635,-80.8064 296.23,-80.7487 287.911,-74.1869 285.635,-80.8064"/>
</g>
<!-- Node4 -->
<g id="node4" class="node"><title>Node4</title>
<g id="a_node4"><a xlink:href="../../d8/d06/client_2resources_8qc.html#a53ec0a3c5a395e2b64d468c08f49b63f" target="_top" xlink:title="Returns the current amount of resource the given entity has. ">
<polygon fill="none" stroke="black" points="274,-38.5 274,-57.5 351,-57.5 351,-38.5 274,-38.5"/>
<text text-anchor="middle" x="312.5" y="-45.5" font-family="Helvetica,sans-Serif" font-size="10.00">GetResource</text>
</a>
</g>
</g>
<!-- Node2&#45;&gt;Node4 -->
<g id="edge3" class="edge"><title>Node2&#45;&gt;Node4</title>
<path fill="none" stroke="midnightblue" d="M238.102,-48C246.304,-48 255.106,-48 263.666,-48"/>
<polygon fill="midnightblue" stroke="midnightblue" points="263.931,-51.5001 273.931,-48 263.931,-44.5001 263.931,-51.5001"/>
</g>
<!-- Node5 -->
<g id="node5" class="node"><title>Node5</title>
<g id="a_node5"><a xlink:href="../../d8/de2/menudefs_8qc.html#abd23315350cd01304b6bd77c4c5c07e6" target="_top" xlink:title="WriteByte">
<polygon fill="none" stroke="black" points="281.5,-0.5 281.5,-19.5 343.5,-19.5 343.5,-0.5 281.5,-0.5"/>
<text text-anchor="middle" x="312.5" y="-7.5" font-family="Helvetica,sans-Serif" font-size="10.00">WriteByte</text>
</a>
</g>
</g>
<!-- Node2&#45;&gt;Node5 -->
<g id="edge4" class="edge"><title>Node2&#45;&gt;Node5</title>
<path fill="none" stroke="midnightblue" d="M228.884,-38.411C242.494,-33.7306 259.068,-28.0308 273.789,-22.9685"/>
<polygon fill="midnightblue" stroke="midnightblue" points="275.307,-26.1478 283.625,-19.5859 273.03,-19.5282 275.307,-26.1478"/>
</g>
</g>
</svg>
