<?xml version="1.0" encoding="UTF-8" standalone="no"?>
<!DOCTYPE svg PUBLIC "-//W3C//DTD SVG 1.1//EN"
 "http://www.w3.org/Graphics/SVG/1.1/DTD/svg11.dtd">
<!-- Generated by graphviz version 2.36.0 (20140111.2315)
 -->
<!-- Title: ons_DelayedInit Pages: 1 -->
<!--zoomable 608 -->
<svg id="main" version="1.1" xmlns="http://www.w3.org/2000/svg" xmlns:xlink="http://www.w3.org/1999/xlink" xml:space="preserve" onload="init(evt)">
<style type="text/css"><![CDATA[
.edge:hover path { stroke: red; }
.edge:hover polygon { stroke: red; fill: red; }
]]></style>
<script type="text/javascript"><![CDATA[
var edges = document.getElementsByTagName('g');
if (edges && edges.length) {
  for (var i=0;i<edges.length;i++) {
    if (edges[i].id.substr(0,4)=='edge') {
      edges[i].setAttribute('class','edge');
    }
  }
}
]]></script>
        <defs>
                <circle id="rim" cx="0" cy="0" r="7"/>
                <circle id="rim2" cx="0" cy="0" r="3.5"/>
                <g id="zoomPlus">
                        <use xlink:href="#rim" fill="#404040">
                                <set attributeName="fill" to="#808080" begin="zoomplus.mouseover" end="zoomplus.mouseout"/>
                        </use>
                        <path d="M-4,0h8M0,-4v8" fill="none" stroke="white" stroke-width="1.5" pointer-events="none"/>
                </g>
                <g id="zoomMin">
                        <use xlink:href="#rim" fill="#404040">
                                <set attributeName="fill" to="#808080" begin="zoomminus.mouseover" end="zoomminus.mouseout"/>
                        </use>
                        <path d="M-4,0h8" fill="none" stroke="white" stroke-width="1.5" pointer-events="none"/>
                </g>
                <g id="dirArrow">
                        <path fill="none" stroke="white" stroke-width="1.5" d="M0,-3.0v7 M-2.5,-0.5L0,-3.0L2.5,-0.5"/>
                </g>
               <g id="resetDef">
                       <use xlink:href="#rim2" fill="#404040">
                               <set attributeName="fill" to="#808080" begin="reset.mouseover" end="reset.mouseout"/>
                       </use>
               </g>
        </defs>

<script type="text/javascript">
var viewWidth = 996;
var viewHeight = 608;
var sectionId = 'dynsection-77';
</script>
<script xlink:href="../../svgpan.js"/>
<svg id="graph" class="graph">
<g id="viewport">
<title>ons_DelayedInit</title>
<!-- Node1 -->
<g id="node1" class="node"><title>Node1</title>
<polygon fill="#bfbfbf" stroke="black" points="0.5,-237.5 0.5,-256.5 87.5,-256.5 87.5,-237.5 0.5,-237.5"/>
<text text-anchor="middle" x="44" y="-244.5" font-family="Helvetica,sans-Serif" font-size="10.00">ons_DelayedInit</text>
</g>
<!-- Node2 -->
<g id="node2" class="node"><title>Node2</title>
<g id="a_node2"><a xlink:href="../../d0/de4/sv__onslaught_8qc.html#a14d65ec90152a736bb77ef787a7048ce" target="_top" xlink:title="ons_ScoreRules">
<polygon fill="none" stroke="black" points="143.5,-436.5 143.5,-455.5 232.5,-455.5 232.5,-436.5 143.5,-436.5"/>
<text text-anchor="middle" x="188" y="-443.5" font-family="Helvetica,sans-Serif" font-size="10.00">ons_ScoreRules</text>
</a>
</g>
</g>
<!-- Node1&#45;&gt;Node2 -->
<g id="edge1" class="edge"><title>Node1&#45;&gt;Node2</title>
<path fill="none" stroke="midnightblue" d="M51.849,-256.598C74.2022,-287.924 145.257,-387.501 174.373,-428.304"/>
<polygon fill="midnightblue" stroke="midnightblue" points="171.562,-430.391 180.22,-436.498 177.26,-426.325 171.562,-430.391"/>
</g>
<!-- Node8 -->
<g id="node8" class="node"><title>Node8</title>
<g id="a_node8"><a xlink:href="../../d0/de4/sv__onslaught_8qc.html#a0115454fff93903533d20ef3ffe6c347" target="_top" xlink:title="Onslaught_CheckPlayers">
<polygon fill="none" stroke="black" points="124,-294.5 124,-313.5 252,-313.5 252,-294.5 124,-294.5"/>
<text text-anchor="middle" x="188" y="-301.5" font-family="Helvetica,sans-Serif" font-size="10.00">Onslaught_CheckPlayers</text>
</a>
</g>
</g>
<!-- Node1&#45;&gt;Node8 -->
<g id="edge8" class="edge"><title>Node1&#45;&gt;Node8</title>
<path fill="none" stroke="midnightblue" d="M67.3968,-256.578C83.1705,-263.269 104.812,-272.34 124,-280 133.02,-283.601 142.813,-287.389 151.929,-290.865"/>
<polygon fill="midnightblue" stroke="midnightblue" points="150.895,-294.216 161.486,-294.491 153.378,-287.671 150.895,-294.216"/>
</g>
<!-- Node9 -->
<g id="node9" class="node"><title>Node9</title>
<g id="a_node9"><a xlink:href="../../d0/de4/sv__onslaught_8qc.html#a28e07dd5d22136c5742721b8425ce1e3" target="_top" xlink:title="Onslaught_CheckWinner">
<polygon fill="none" stroke="black" points="288.5,-313.5 288.5,-332.5 413.5,-332.5 413.5,-313.5 288.5,-313.5"/>
<text text-anchor="middle" x="351" y="-320.5" font-family="Helvetica,sans-Serif" font-size="10.00">Onslaught_CheckWinner</text>
</a>
</g>
</g>
<!-- Node1&#45;&gt;Node9 -->
<g id="edge9" class="edge"><title>Node1&#45;&gt;Node9</title>
<path fill="none" stroke="midnightblue" d="M87.5584,-252.42C129.786,-258.355 196.099,-269.184 252,-285 275.027,-291.515 300.179,-301.327 319.236,-309.349"/>
<polygon fill="midnightblue" stroke="midnightblue" points="318.032,-312.64 328.603,-313.353 320.784,-306.204 318.032,-312.64"/>
</g>
<!-- Node17 -->
<g id="node17" class="node"><title>Node17</title>
<g id="a_node17"><a xlink:href="../../db/dfc/round__handler_8qc.html#a35bf06efb917c323c9e026476ca62978" target="_top" xlink:title="round_handler_Init">
<polygon fill="none" stroke="black" points="473,-218.5 473,-237.5 569,-237.5 569,-218.5 473,-218.5"/>
<text text-anchor="middle" x="521" y="-225.5" font-family="Helvetica,sans-Serif" font-size="10.00">round_handler_Init</text>
</a>
</g>
</g>
<!-- Node1&#45;&gt;Node17 -->
<g id="edge27" class="edge"><title>Node1&#45;&gt;Node17</title>
<path fill="none" stroke="midnightblue" d="M87.5711,-245.297C173.147,-241.874 366.07,-234.157 462.651,-230.294"/>
<polygon fill="midnightblue" stroke="midnightblue" points="462.963,-233.784 472.815,-229.887 462.683,-226.79 462.963,-233.784"/>
</g>
<!-- Node21 -->
<g id="node21" class="node"><title>Node21</title>
<g id="a_node21"><a xlink:href="../../d0/de4/sv__onslaught_8qc.html#a8ff94c5e74a9a374a202b8afbd672613" target="_top" xlink:title="Onslaught_RoundStart">
<polygon fill="none" stroke="black" points="789,-180.5 789,-199.5 905,-199.5 905,-180.5 789,-180.5"/>
<text text-anchor="middle" x="847" y="-187.5" font-family="Helvetica,sans-Serif" font-size="10.00">Onslaught_RoundStart</text>
</a>
</g>
</g>
<!-- Node1&#45;&gt;Node21 -->
<g id="edge25" class="edge"><title>Node1&#45;&gt;Node21</title>
<path fill="none" stroke="midnightblue" d="M62.6183,-237.368C108.498,-213.216 236.029,-152 350,-152 350,-152 350,-152 522,-152 622.799,-152 648.155,-157.165 748,-171 762.366,-172.991 777.813,-175.71 792.098,-178.47"/>
<polygon fill="midnightblue" stroke="midnightblue" points="791.774,-181.973 802.262,-180.476 793.129,-175.106 791.774,-181.973"/>
</g>
<!-- Node22 -->
<g id="node22" class="node"><title>Node22</title>
<g id="a_node22"><a xlink:href="../../db/dfc/round__handler_8qc.html#afa84ad6fb073b0cf1cbae7eb74f70e4c" target="_top" xlink:title="round_handler_Spawn">
<polygon fill="none" stroke="black" points="131.5,-85.5 131.5,-104.5 244.5,-104.5 244.5,-85.5 131.5,-85.5"/>
<text text-anchor="middle" x="188" y="-92.5" font-family="Helvetica,sans-Serif" font-size="10.00">round_handler_Spawn</text>
</a>
</g>
</g>
<!-- Node1&#45;&gt;Node22 -->
<g id="edge28" class="edge"><title>Node1&#45;&gt;Node22</title>
<path fill="none" stroke="midnightblue" d="M50.3938,-237.414C62.0012,-217.34 90.9874,-170.093 124,-138 135.047,-127.261 149.065,-117.402 161.072,-109.841"/>
<polygon fill="midnightblue" stroke="midnightblue" points="163.064,-112.725 169.779,-104.53 159.419,-106.749 163.064,-112.725"/>
</g>
<!-- Node3 -->
<g id="node3" class="node"><title>Node3</title>
<g id="a_node3"><a xlink:href="../../de/d4f/teamplay_8qc.html#a838b897a9ae86e8bf932e57c356ec987" target="_top" xlink:title="CheckAllowedTeams">
<polygon fill="none" stroke="black" points="296,-541.5 296,-560.5 406,-560.5 406,-541.5 296,-541.5"/>
<text text-anchor="middle" x="351" y="-548.5" font-family="Helvetica,sans-Serif" font-size="10.00">CheckAllowedTeams</text>
</a>
</g>
</g>
<!-- Node2&#45;&gt;Node3 -->
<g id="edge2" class="edge"><title>Node2&#45;&gt;Node3</title>
<path fill="none" stroke="midnightblue" d="M203.572,-455.503C231.448,-473.684 292.557,-513.537 326.354,-535.579"/>
<polygon fill="midnightblue" stroke="midnightblue" points="324.824,-538.759 335.112,-541.29 328.648,-532.896 324.824,-538.759"/>
</g>
<!-- Node3&#45;&gt;Node3 -->
<g id="edge3" class="edge"><title>Node3&#45;&gt;Node3</title>
<path fill="none" stroke="midnightblue" d="M326.031,-560.757C313.884,-569.565 322.207,-579 351,-579 370.345,-579 380.45,-574.741 381.314,-569.275"/>
<polygon fill="midnightblue" stroke="midnightblue" points="384.249,-567.367 375.969,-560.757 378.32,-571.088 384.249,-567.367"/>
</g>
<!-- Node4 -->
<g id="node4" class="node"><title>Node4</title>
<g id="a_node4"><a xlink:href="../../d4/d0c/csprogsdefs_8qc.html#acbb54a239d76062465dccbc6a6c6e464" target="_top" xlink:title="entity">
<polygon fill="none" stroke="black" points="946.5,-275.5 946.5,-294.5 987.5,-294.5 987.5,-275.5 946.5,-275.5"/>
<text text-anchor="middle" x="967" y="-282.5" font-family="Helvetica,sans-Serif" font-size="10.00">entity</text>
</a>
</g>
</g>
<!-- Node3&#45;&gt;Node4 -->
<g id="edge4" class="edge"><title>Node3&#45;&gt;Node4</title>
<path fill="none" stroke="midnightblue" d="M370.54,-560.583C389.805,-569.96 421.122,-583.597 450,-589 581.24,-613.554 622.073,-595.374 748,-551 823.009,-524.568 858.197,-535.344 910,-475 953.239,-424.632 963.11,-342.196 965.35,-304.689"/>
<polygon fill="midnightblue" stroke="midnightblue" points="968.852,-304.731 965.829,-294.577 961.86,-304.4 968.852,-304.731"/>
</g>
<!-- Node5 -->
<g id="node5" class="node"><title>Node5</title>
<g id="a_node5"><a xlink:href="../../d8/de2/menudefs_8qc.html#a53c4a8e7afd17cad92bc00adba96bb78" target="_top" xlink:title="find">
<polygon fill="none" stroke="black" points="505,-560.5 505,-579.5 537,-579.5 537,-560.5 505,-560.5"/>
<text text-anchor="middle" x="521" y="-567.5" font-family="Helvetica,sans-Serif" font-size="10.00">find</text>
</a>
</g>
</g>
<!-- Node3&#45;&gt;Node5 -->
<g id="edge5" class="edge"><title>Node3&#45;&gt;Node5</title>
<path fill="none" stroke="midnightblue" d="M406.081,-557.116C435.892,-560.488 471.485,-564.513 494.858,-567.157"/>
<polygon fill="midnightblue" stroke="midnightblue" points="494.641,-570.654 504.971,-568.3 495.428,-563.699 494.641,-570.654"/>
</g>
<!-- Node6 -->
<g id="node6" class="node"><title>Node6</title>
<g id="a_node6"><a xlink:href="../../d5/d14/scores__rules_8qc.html#ae9adf848be0a903b09499cbc48313cec" target="_top" xlink:title="AvailableTeams">
<polygon fill="none" stroke="black" points="478,-522.5 478,-541.5 564,-541.5 564,-522.5 478,-522.5"/>
<text text-anchor="middle" x="521" y="-529.5" font-family="Helvetica,sans-Serif" font-size="10.00">AvailableTeams</text>
</a>
</g>
</g>
<!-- Node3&#45;&gt;Node6 -->
<g id="edge6" class="edge"><title>Node3&#45;&gt;Node6</title>
<path fill="none" stroke="midnightblue" d="M406.081,-544.884C425.848,-542.648 448.158,-540.125 467.762,-537.908"/>
<polygon fill="midnightblue" stroke="midnightblue" points="468.195,-541.381 477.739,-536.78 467.409,-534.426 468.195,-541.381"/>
</g>
<!-- Node7 -->
<g id="node7" class="node"><title>Node7</title>
<g id="a_node7"><a xlink:href="../../d5/d14/scores__rules_8qc.html#ae01e878023ee1a5ecc45cc3d62c3895f" target="_top" xlink:title="NumTeams">
<polygon fill="none" stroke="black" points="654,-522.5 654,-541.5 722,-541.5 722,-522.5 654,-522.5"/>
<text text-anchor="middle" x="688" y="-529.5" font-family="Helvetica,sans-Serif" font-size="10.00">NumTeams</text>
</a>
</g>
</g>
<!-- Node6&#45;&gt;Node7 -->
<g id="edge7" class="edge"><title>Node6&#45;&gt;Node7</title>
<path fill="none" stroke="midnightblue" d="M564.063,-532C588.458,-532 619.12,-532 643.719,-532"/>
<polygon fill="midnightblue" stroke="midnightblue" points="643.855,-535.5 653.855,-532 643.855,-528.5 643.855,-535.5"/>
</g>
<!-- Node9&#45;&gt;Node4 -->
<g id="edge10" class="edge"><title>Node9&#45;&gt;Node4</title>
<path fill="none" stroke="midnightblue" d="M370.54,-332.583C389.805,-341.96 421.122,-355.597 450,-361 580.186,-385.357 617.414,-383.11 748,-361 818.428,-349.076 896.446,-316.923 937.356,-298.484"/>
<polygon fill="midnightblue" stroke="midnightblue" points="938.812,-301.667 946.457,-294.331 935.906,-295.298 938.812,-301.667"/>
</g>
<!-- Node10 -->
<g id="node10" class="node"><title>Node10</title>
<g id="a_node10"><a xlink:href="../../d8/de2/menudefs_8qc.html#aebeeec7a2529f36483e14f76b1871271" target="_top" xlink:title="max">
<polygon fill="none" stroke="black" points="503.5,-104.5 503.5,-123.5 538.5,-123.5 538.5,-104.5 503.5,-104.5"/>
<text text-anchor="middle" x="521" y="-111.5" font-family="Helvetica,sans-Serif" font-size="10.00">max</text>
</a>
</g>
</g>
<!-- Node9&#45;&gt;Node10 -->
<g id="edge11" class="edge"><title>Node9&#45;&gt;Node10</title>
<path fill="none" stroke="midnightblue" d="M359.655,-313.477C385.784,-280.971 471.713,-174.072 505.843,-131.612"/>
<polygon fill="midnightblue" stroke="midnightblue" points="508.763,-133.566 512.3,-123.579 503.307,-129.181 508.763,-133.566"/>
</g>
<!-- Node11 -->
<g id="node11" class="node"><title>Node11</title>
<g id="a_node11"><a xlink:href="../../d5/d26/server_2defs_8qh.html#a1ca977fd4fb6900884c2cea28062c8a7" target="_top" xlink:title="Damage">
<polygon fill="none" stroke="black" points="494.5,-332.5 494.5,-351.5 547.5,-351.5 547.5,-332.5 494.5,-332.5"/>
<text text-anchor="middle" x="521" y="-339.5" font-family="Helvetica,sans-Serif" font-size="10.00">Damage</text>
</a>
</g>
</g>
<!-- Node9&#45;&gt;Node11 -->
<g id="edge12" class="edge"><title>Node9&#45;&gt;Node11</title>
<path fill="none" stroke="midnightblue" d="M413.603,-329.967C437.367,-332.655 463.712,-335.634 484.241,-337.956"/>
<polygon fill="midnightblue" stroke="midnightblue" points="484.072,-341.459 494.402,-339.105 484.858,-334.503 484.072,-341.459"/>
</g>
<!-- Node12 -->
<g id="node12" class="node"><title>Node12</title>
<g id="a_node12"><a xlink:href="../../d0/de4/sv__onslaught_8qc.html#a4c2ceee1997b66af4d4e5510dbbbb8aa" target="_top" xlink:title="Onslaught_count_generators">
<polygon fill="none" stroke="black" points="450.5,-294.5 450.5,-313.5 591.5,-313.5 591.5,-294.5 450.5,-294.5"/>
<text text-anchor="middle" x="521" y="-301.5" font-family="Helvetica,sans-Serif" font-size="10.00">Onslaught_count_generators</text>
</a>
</g>
</g>
<!-- Node9&#45;&gt;Node12 -->
<g id="edge13" class="edge"><title>Node9&#45;&gt;Node12</title>
<path fill="none" stroke="midnightblue" d="M413.603,-316.033C422.312,-315.048 431.368,-314.024 440.357,-313.007"/>
<polygon fill="midnightblue" stroke="midnightblue" points="440.912,-316.467 450.455,-311.865 440.125,-309.511 440.912,-316.467"/>
</g>
<!-- Node14 -->
<g id="node14" class="node"><title>Node14</title>
<g id="a_node14"><a xlink:href="../../d0/de4/sv__onslaught_8qc.html#ad405e8650c15f62101c34ff4bc3374cf" target="_top" xlink:title="Onslaught_GetWinnerTeam">
<polygon fill="none" stroke="black" points="452.5,-256.5 452.5,-275.5 589.5,-275.5 589.5,-256.5 452.5,-256.5"/>
<text text-anchor="middle" x="521" y="-263.5" font-family="Helvetica,sans-Serif" font-size="10.00">Onslaught_GetWinnerTeam</text>
</a>
</g>
</g>
<!-- Node9&#45;&gt;Node14 -->
<g id="edge16" class="edge"><title>Node9&#45;&gt;Node14</title>
<path fill="none" stroke="midnightblue" d="M374.724,-313.407C394.43,-305.277 423.822,-293.602 450,-285 457.154,-282.649 464.785,-280.36 472.28,-278.232"/>
<polygon fill="midnightblue" stroke="midnightblue" points="473.302,-281.581 482.003,-275.536 471.431,-274.835 473.302,-281.581"/>
</g>
<!-- Node15 -->
<g id="node15" class="node"><title>Node15</title>
<g id="a_node15"><a xlink:href="../../d2/d79/scores_8qc.html#a74bac5f29749ffee855cd6a5d0e18836" target="_top" xlink:title="Adds a score to the given team. ">
<polygon fill="none" stroke="black" points="784.5,-446.5 784.5,-465.5 909.5,-465.5 909.5,-446.5 784.5,-446.5"/>
<text text-anchor="middle" x="847" y="-453.5" font-family="Helvetica,sans-Serif" font-size="10.00">TeamScore_AddToTeam</text>
</a>
</g>
</g>
<!-- Node9&#45;&gt;Node15 -->
<g id="edge17" class="edge"><title>Node9&#45;&gt;Node15</title>
<path fill="none" stroke="midnightblue" d="M354.748,-332.903C363.249,-361.376 392.106,-443.443 450,-475 568.902,-539.812 738.941,-493.78 811.285,-468.999"/>
<polygon fill="midnightblue" stroke="midnightblue" points="812.548,-472.265 820.829,-465.657 810.235,-465.659 812.548,-472.265"/>
</g>
<!-- Node16 -->
<g id="node16" class="node"><title>Node16</title>
<g id="a_node16"><a xlink:href="../../dc/d73/server_2miscfunctions_8qh.html#aa5a5ed1fd369382ba21cb76e5803fdf3" target="_top" xlink:title="play2all">
<polygon fill="none" stroke="black" points="496,-446.5 496,-465.5 546,-465.5 546,-446.5 496,-446.5"/>
<text text-anchor="middle" x="521" y="-453.5" font-family="Helvetica,sans-Serif" font-size="10.00">play2all</text>
</a>
</g>
</g>
<!-- Node9&#45;&gt;Node16 -->
<g id="edge19" class="edge"><title>Node9&#45;&gt;Node16</title>
<path fill="none" stroke="midnightblue" d="M357.483,-332.649C370.522,-354.694 405.634,-409.006 450,-437 460.708,-443.756 473.803,-448.137 485.758,-450.965"/>
<polygon fill="midnightblue" stroke="midnightblue" points="485.378,-454.461 495.882,-453.071 486.804,-447.607 485.378,-454.461"/>
</g>
<!-- Node9&#45;&gt;Node17 -->
<g id="edge20" class="edge"><title>Node9&#45;&gt;Node17</title>
<path fill="none" stroke="midnightblue" d="M361.667,-313.327C378.283,-297.233 413.965,-264.959 450,-247 454.67,-244.673 459.663,-242.601 464.75,-240.763"/>
<polygon fill="midnightblue" stroke="midnightblue" points="466.196,-243.972 474.593,-237.511 463.999,-237.325 466.196,-243.972"/>
</g>
<!-- Node20 -->
<g id="node20" class="node"><title>Node20</title>
<g id="a_node20"><a xlink:href="../../d0/de4/sv__onslaught_8qc.html#ab106e734b4687c7b25b43e1e81a5899d" target="_top" xlink:title="nades_Clear">
<polygon fill="none" stroke="black" points="485.5,-408.5 485.5,-427.5 556.5,-427.5 556.5,-408.5 485.5,-408.5"/>
<text text-anchor="middle" x="521" y="-415.5" font-family="Helvetica,sans-Serif" font-size="10.00">nades_Clear</text>
</a>
</g>
</g>
<!-- Node9&#45;&gt;Node20 -->
<g id="edge24" class="edge"><title>Node9&#45;&gt;Node20</title>
<path fill="none" stroke="midnightblue" d="M363.037,-332.708C380.459,-347.62 415.873,-376.292 450,-394 458.207,-398.258 467.332,-402.019 476.21,-405.226"/>
<polygon fill="midnightblue" stroke="midnightblue" points="475.097,-408.544 485.691,-408.485 477.372,-401.924 475.097,-408.544"/>
</g>
<!-- Node12&#45;&gt;Node4 -->
<g id="edge14" class="edge"><title>Node12&#45;&gt;Node4</title>
<path fill="none" stroke="midnightblue" d="M591.863,-301.01C690.383,-296.794 865.924,-289.283 935.949,-286.286"/>
<polygon fill="midnightblue" stroke="midnightblue" points="936.413,-289.769 946.254,-285.845 936.113,-282.776 936.413,-289.769"/>
</g>
<!-- Node13 -->
<g id="node13" class="node"><title>Node13</title>
<g id="a_node13"><a xlink:href="../../d8/d06/client_2resources_8qc.html#a41987053c5ea9c2c1c31b808887845e9" target="_top" xlink:title="Returns the current amount of resource the given entity has. ">
<polygon fill="none" stroke="black" points="634,-332.5 634,-351.5 742,-351.5 742,-332.5 634,-332.5"/>
<text text-anchor="middle" x="688" y="-339.5" font-family="Helvetica,sans-Serif" font-size="10.00">GetResourceAmount</text>
</a>
</g>
</g>
<!-- Node12&#45;&gt;Node13 -->
<g id="edge15" class="edge"><title>Node12&#45;&gt;Node13</title>
<path fill="none" stroke="midnightblue" d="M563.636,-313.589C585.508,-318.626 612.506,-324.844 635.664,-330.177"/>
<polygon fill="midnightblue" stroke="midnightblue" points="635.133,-333.646 645.663,-332.48 636.704,-326.825 635.133,-333.646"/>
</g>
<!-- Node15&#45;&gt;Node4 -->
<g id="edge18" class="edge"><title>Node15&#45;&gt;Node4</title>
<path fill="none" stroke="midnightblue" d="M859.601,-446.384C872.941,-434.908 894.933,-414.664 910,-394 931.208,-364.913 948.845,-326.659 958.367,-304.062"/>
<polygon fill="midnightblue" stroke="midnightblue" points="961.69,-305.183 962.262,-294.603 955.218,-302.517 961.69,-305.183"/>
</g>
<!-- Node17&#45;&gt;Node4 -->
<g id="edge21" class="edge"><title>Node17&#45;&gt;Node4</title>
<path fill="none" stroke="midnightblue" d="M569.119,-237.128C587.454,-240.501 608.667,-244.184 628,-247 741.32,-263.508 876.917,-276.812 936.01,-282.293"/>
<polygon fill="midnightblue" stroke="midnightblue" points="935.852,-285.793 946.131,-283.224 936.494,-278.823 935.852,-285.793"/>
</g>
<!-- Node18 -->
<g id="node18" class="node"><title>Node18</title>
<g id="a_node18"><a xlink:href="../../d8/de2/menudefs_8qc.html#accccfae161879454243b3a8695a9bf3b" target="_top" xlink:title="fabs">
<polygon fill="none" stroke="black" points="670.5,-218.5 670.5,-237.5 705.5,-237.5 705.5,-218.5 670.5,-218.5"/>
<text text-anchor="middle" x="688" y="-225.5" font-family="Helvetica,sans-Serif" font-size="10.00">fabs</text>
</a>
</g>
</g>
<!-- Node17&#45;&gt;Node18 -->
<g id="edge22" class="edge"><title>Node17&#45;&gt;Node18</title>
<path fill="none" stroke="midnightblue" d="M569.282,-228C598.814,-228 635.757,-228 660.299,-228"/>
<polygon fill="midnightblue" stroke="midnightblue" points="660.316,-231.5 670.316,-228 660.316,-224.5 660.316,-231.5"/>
</g>
<!-- Node19 -->
<g id="node19" class="node"><title>Node19</title>
<g id="a_node19"><a xlink:href="../../d8/de2/menudefs_8qc.html#ad5a3e16aa960bd72d3ca37a618eea802" target="_top" xlink:title="floor">
<polygon fill="none" stroke="black" points="670.5,-180.5 670.5,-199.5 705.5,-199.5 705.5,-180.5 670.5,-180.5"/>
<text text-anchor="middle" x="688" y="-187.5" font-family="Helvetica,sans-Serif" font-size="10.00">floor</text>
</a>
</g>
</g>
<!-- Node17&#45;&gt;Node19 -->
<g id="edge23" class="edge"><title>Node17&#45;&gt;Node19</title>
<path fill="none" stroke="midnightblue" d="M563.636,-218.411C594.011,-211.416 634.273,-202.143 660.404,-196.125"/>
<polygon fill="midnightblue" stroke="midnightblue" points="661.378,-199.492 670.338,-193.837 659.807,-192.671 661.378,-199.492"/>
</g>
<!-- Node21&#45;&gt;Node4 -->
<g id="edge26" class="edge"><title>Node21&#45;&gt;Node4</title>
<path fill="none" stroke="midnightblue" d="M860.184,-199.809C880.516,-216.178 921.55,-249.214 946.117,-268.992"/>
<polygon fill="midnightblue" stroke="midnightblue" points="944.074,-271.841 954.058,-275.386 948.464,-266.389 944.074,-271.841"/>
</g>
<!-- Node22&#45;&gt;Node4 -->
<g id="edge29" class="edge"><title>Node22&#45;&gt;Node4</title>
<path fill="none" stroke="midnightblue" d="M208.217,-85.3681C258.238,-61.2163 397.141,-1.42109e-14 520,-0 520,-0 520,-0 689,-0 750.845,-0 883.835,-64.5212 910,-95 953.239,-145.368 963.11,-227.804 965.35,-265.311"/>
<polygon fill="midnightblue" stroke="midnightblue" points="961.86,-265.6 965.829,-275.423 968.852,-265.269 961.86,-265.6"/>
</g>
<!-- Node22&#45;&gt;Node17 -->
<g id="edge38" class="edge"><title>Node22&#45;&gt;Node17</title>
<path fill="none" stroke="midnightblue" d="M212.805,-104.565C270.754,-127.85 419.302,-187.538 486.314,-214.465"/>
<polygon fill="midnightblue" stroke="midnightblue" points="485.382,-217.862 495.966,-218.343 487.992,-211.367 485.382,-217.862"/>
</g>
<!-- Node23 -->
<g id="node23" class="node"><title>Node23</title>
<g id="a_node23"><a xlink:href="../../db/dfc/round__handler_8qc.html#addd3a61b04d2110fa066146acfbbf75b" target="_top" xlink:title="round_handler_FirstThink">
<polygon fill="none" stroke="black" points="288,-66.5 288,-85.5 414,-85.5 414,-66.5 288,-66.5"/>
<text text-anchor="middle" x="351" y="-73.5" font-family="Helvetica,sans-Serif" font-size="10.00">round_handler_FirstThink</text>
</a>
</g>
</g>
<!-- Node22&#45;&gt;Node23 -->
<g id="edge30" class="edge"><title>Node22&#45;&gt;Node23</title>
<path fill="none" stroke="midnightblue" d="M244.858,-88.408C255.497,-87.1525 266.771,-85.822 277.834,-84.5165"/>
<polygon fill="midnightblue" stroke="midnightblue" points="278.388,-87.9755 287.909,-83.3275 277.568,-81.0237 278.388,-87.9755"/>
</g>
<!-- Node23&#45;&gt;Node10 -->
<g id="edge31" class="edge"><title>Node23&#45;&gt;Node10</title>
<path fill="none" stroke="midnightblue" d="M394.393,-85.589C425.491,-92.623 466.767,-101.959 493.36,-107.974"/>
<polygon fill="midnightblue" stroke="midnightblue" points="492.925,-111.464 503.451,-110.257 494.47,-104.637 492.925,-111.464"/>
</g>
<!-- Node24 -->
<g id="node24" class="node"><title>Node24</title>
<g id="a_node24"><a xlink:href="../../db/dfc/round__handler_8qc.html#abad08b2de126a7130c60aa81481278d0" target="_top" xlink:title="round_handler_Think">
<polygon fill="none" stroke="black" points="467.5,-66.5 467.5,-85.5 574.5,-85.5 574.5,-66.5 467.5,-66.5"/>
<text text-anchor="middle" x="521" y="-73.5" font-family="Helvetica,sans-Serif" font-size="10.00">round_handler_Think</text>
</a>
</g>
</g>
<!-- Node23&#45;&gt;Node24 -->
<g id="edge32" class="edge"><title>Node23&#45;&gt;Node24</title>
<path fill="none" stroke="midnightblue" d="M414.08,-76C428.145,-76 443.092,-76 457.187,-76"/>
<polygon fill="midnightblue" stroke="midnightblue" points="457.275,-79.5001 467.275,-76 457.275,-72.5001 457.275,-79.5001"/>
</g>
<!-- Node25 -->
<g id="node25" class="node"><title>Node25</title>
<g id="a_node25"><a xlink:href="../../db/dfc/round__handler_8qc.html#a9f9012d50d940fe62137392d78988b0f" target="_top" xlink:title="round_handler_Reset">
<polygon fill="none" stroke="black" points="792.5,-104.5 792.5,-123.5 901.5,-123.5 901.5,-104.5 792.5,-104.5"/>
<text text-anchor="middle" x="847" y="-111.5" font-family="Helvetica,sans-Serif" font-size="10.00">round_handler_Reset</text>
</a>
</g>
</g>
<!-- Node24&#45;&gt;Node25 -->
<g id="edge33" class="edge"><title>Node24&#45;&gt;Node25</title>
<path fill="none" stroke="midnightblue" d="M574.693,-78.8204C620.61,-81.6614 688.912,-86.8125 748,-95 762.366,-96.9907 777.813,-99.7103 792.098,-102.47"/>
<polygon fill="midnightblue" stroke="midnightblue" points="791.774,-105.973 802.262,-104.476 793.129,-99.1055 791.774,-105.973"/>
</g>
<!-- Node26 -->
<g id="node26" class="node"><title>Node26</title>
<g id="a_node26"><a xlink:href="../../db/dfc/round__handler_8qc.html#a515cacf33539a9c94c6545fb9b468602" target="_top" xlink:title="round_handler_Remove">
<polygon fill="none" stroke="black" points="628.5,-28.5 628.5,-47.5 747.5,-47.5 747.5,-28.5 628.5,-28.5"/>
<text text-anchor="middle" x="688" y="-35.5" font-family="Helvetica,sans-Serif" font-size="10.00">round_handler_Remove</text>
</a>
</g>
</g>
<!-- Node24&#45;&gt;Node26 -->
<g id="edge35" class="edge"><title>Node24&#45;&gt;Node26</title>
<path fill="none" stroke="midnightblue" d="M563.636,-66.411C585.508,-61.3739 612.506,-55.1562 635.664,-49.8229"/>
<polygon fill="midnightblue" stroke="midnightblue" points="636.704,-53.1751 645.663,-47.5201 635.133,-46.3537 636.704,-53.1751"/>
</g>
<!-- Node27 -->
<g id="node27" class="node"><title>Node27</title>
<g id="a_node27"><a xlink:href="../../d1/dad/server_2command_2vote_8qc.html#ab44a3a2f93e542242bc295411367283f" target="_top" xlink:title="reset_map">
<polygon fill="none" stroke="black" points="657,-104.5 657,-123.5 719,-123.5 719,-104.5 657,-104.5"/>
<text text-anchor="middle" x="688" y="-111.5" font-family="Helvetica,sans-Serif" font-size="10.00">reset_map</text>
</a>
</g>
</g>
<!-- Node24&#45;&gt;Node27 -->
<g id="edge36" class="edge"><title>Node24&#45;&gt;Node27</title>
<path fill="none" stroke="midnightblue" d="M563.636,-85.589C589.144,-91.4636 621.625,-98.944 646.854,-104.754"/>
<polygon fill="midnightblue" stroke="midnightblue" points="646.302,-108.219 656.832,-107.052 647.873,-101.397 646.302,-108.219"/>
</g>
<!-- Node25&#45;&gt;Node4 -->
<g id="edge34" class="edge"><title>Node25&#45;&gt;Node4</title>
<path fill="none" stroke="midnightblue" d="M861.202,-123.738C874.756,-134.243 895.816,-152.029 910,-171 932.671,-201.323 950.123,-242.254 959.158,-265.922"/>
<polygon fill="midnightblue" stroke="midnightblue" points="955.944,-267.324 962.705,-275.481 962.507,-264.888 955.944,-267.324"/>
</g>
<!-- Node27&#45;&gt;Node25 -->
<g id="edge37" class="edge"><title>Node27&#45;&gt;Node25</title>
<path fill="none" stroke="midnightblue" d="M719.271,-114C737.117,-114 760.393,-114 782.12,-114"/>
<polygon fill="midnightblue" stroke="midnightblue" points="782.299,-117.5 792.299,-114 782.299,-110.5 782.299,-117.5"/>
</g>
</g>
</svg>
        <g id="navigator" transform="translate(0 0)" fill="#404254">
                <rect fill="#f2f5e9" fill-opacity="0.5" stroke="#606060" stroke-width=".5" x="0" y="0" width="60" height="60"/>
                <use id="zoomplus" xlink:href="#zoomPlus" x="17" y="9" onmousedown="handleZoom(evt,'in')"/>
                <use id="zoomminus" xlink:href="#zoomMin" x="42" y="9" onmousedown="handleZoom(evt,'out')"/>
                <use id="reset" xlink:href="#resetDef" x="30" y="36" onmousedown="handleReset()"/>
                <g id="arrowUp" xlink:href="#dirArrow" transform="translate(30 24)" onmousedown="handlePan(0,-1)">
                  <use xlink:href="#rim" fill="#404040">
                        <set attributeName="fill" to="#808080" begin="arrowUp.mouseover" end="arrowUp.mouseout"/>
                  </use>
                  <path fill="none" stroke="white" stroke-width="1.5" d="M0,-3.0v7 M-2.5,-0.5L0,-3.0L2.5,-0.5"/>
                </g>
                <g id="arrowRight" xlink:href="#dirArrow" transform="rotate(90) translate(36 -43)" onmousedown="handlePan(1,0)">
                  <use xlink:href="#rim" fill="#404040">
                        <set attributeName="fill" to="#808080" begin="arrowRight.mouseover" end="arrowRight.mouseout"/>
                  </use>
                  <path fill="none" stroke="white" stroke-width="1.5" d="M0,-3.0v7 M-2.5,-0.5L0,-3.0L2.5,-0.5"/>
                </g>
                <g id="arrowDown" xlink:href="#dirArrow" transform="rotate(180) translate(-30 -48)" onmousedown="handlePan(0,1)">
                  <use xlink:href="#rim" fill="#404040">
                        <set attributeName="fill" to="#808080" begin="arrowDown.mouseover" end="arrowDown.mouseout"/>
                  </use>
                  <path fill="none" stroke="white" stroke-width="1.5" d="M0,-3.0v7 M-2.5,-0.5L0,-3.0L2.5,-0.5"/>
                </g>
                <g id="arrowLeft" xlink:href="#dirArrow" transform="rotate(270) translate(-36 17)" onmousedown="handlePan(-1,0)">
                  <use xlink:href="#rim" fill="#404040">
                        <set attributeName="fill" to="#808080" begin="arrowLeft.mouseover" end="arrowLeft.mouseout"/>
                  </use>
                  <path fill="none" stroke="white" stroke-width="1.5" d="M0,-3.0v7 M-2.5,-0.5L0,-3.0L2.5,-0.5"/>
                </g>
        </g>
        <svg viewBox="0 0 15 15" width="100%" height="30px" preserveAspectRatio="xMaxYMin meet">
         <g id="arrow_out" transform="scale(0.3 0.3)">
          <a xlink:href="sv__onslaught_8qc_a60f84a81d6901268f0cc3a4138813956_cgraph_org.svg" target="_base">
           <rect id="button" ry="5" rx="5" y="6" x="6" height="38" width="38"
                fill="#f2f5e9" fill-opacity="0.5" stroke="#606060" stroke-width="1.0"/>
           <path id="arrow"
             d="M 11.500037,31.436501 C 11.940474,20.09759 22.043105,11.32322 32.158766,21.979434 L 37.068811,17.246167 C 37.068811,17.246167 37.088388,32 37.088388,32 L 22.160133,31.978069 C 22.160133,31.978069 26.997745,27.140456 26.997745,27.140456 C 18.528582,18.264221 13.291696,25.230495 11.500037,31.436501 z"
             style="fill:#404040;"/>
          </a>
         </g>
        </svg>
</svg>
