<?xml version="1.0" encoding="UTF-8" standalone="no"?>
<!DOCTYPE svg PUBLIC "-//W3C//DTD SVG 1.1//EN"
 "http://www.w3.org/Graphics/SVG/1.1/DTD/svg11.dtd">
<!-- Generated by graphviz version 2.38.0 (20140413.2041)
 -->
<!-- Title: REGISTER_MUTATOR Pages: 1 -->
<svg width="460pt" height="180pt"
 viewBox="0.00 0.00 460.00 180.00" xmlns="http://www.w3.org/2000/svg" xmlns:xlink="http://www.w3.org/1999/xlink">
<g id="graph0" class="graph" transform="scale(1 1) rotate(0) translate(4 176)">
<title>REGISTER_MUTATOR</title>
<!-- Node1 -->
<g id="node1" class="node"><title>Node1</title>
<polygon fill="#bfbfbf" stroke="black" points="0,-76.5 0,-95.5 113,-95.5 113,-76.5 0,-76.5"/>
<text text-anchor="middle" x="56.5" y="-83.5" font-family="Helvetica,sans-Serif" font-size="10.00">REGISTER_MUTATOR</text>
</g>
<!-- Node2 -->
<g id="node2" class="node"><title>Node2</title>
<g id="a_node2"><a xlink:href="../../da/d44/common_2util_8qc.html#ac77daa35318f74748eb10eda07e7dd49" target="_top" xlink:title="cvar_settemp">
<polygon fill="none" stroke="black" points="149,-76.5 149,-95.5 232,-95.5 232,-76.5 149,-76.5"/>
<text text-anchor="middle" x="190.5" y="-83.5" font-family="Helvetica,sans-Serif" font-size="10.00">cvar_settemp</text>
</a>
</g>
</g>
<!-- Node1&#45;&gt;Node2 -->
<g id="edge1" class="edge"><title>Node1&#45;&gt;Node2</title>
<path fill="none" stroke="midnightblue" d="M113.097,-86C121.613,-86 130.365,-86 138.769,-86"/>
<polygon fill="midnightblue" stroke="midnightblue" points="138.806,-89.5001 148.806,-86 138.806,-82.5001 138.806,-89.5001"/>
</g>
<!-- Node3 -->
<g id="node3" class="node"><title>Node3</title>
<g id="a_node3"><a xlink:href="../../d4/d0c/csprogsdefs_8qc.html#acbb54a239d76062465dccbc6a6c6e464" target="_top" xlink:title="entity">
<polygon fill="none" stroke="black" points="390.5,-152.5 390.5,-171.5 434.5,-171.5 434.5,-152.5 390.5,-152.5"/>
<text text-anchor="middle" x="412.5" y="-159.5" font-family="Helvetica,sans-Serif" font-size="10.00">entity</text>
</a>
</g>
</g>
<!-- Node2&#45;&gt;Node3 -->
<g id="edge2" class="edge"><title>Node2&#45;&gt;Node3</title>
<path fill="none" stroke="midnightblue" d="M200.871,-95.559C214.372,-108.679 240.688,-131.901 268,-143 304.494,-157.831 350.098,-161.623 379.973,-162.334"/>
<polygon fill="midnightblue" stroke="midnightblue" points="380.176,-165.837 390.222,-162.472 380.27,-158.838 380.176,-165.837"/>
</g>
<!-- Node4 -->
<g id="node4" class="node"><title>Node4</title>
<g id="a_node4"><a xlink:href="../../d9/d51/intrusivelist_8qh.html#a1dc3261f72901c53357b5e01d94cb556" target="_top" xlink:title="Push to tail. ">
<polygon fill="none" stroke="black" points="274,-114.5 274,-133.5 331,-133.5 331,-114.5 274,-114.5"/>
<text text-anchor="middle" x="302.5" y="-121.5" font-family="Helvetica,sans-Serif" font-size="10.00">IL_PUSH</text>
</a>
</g>
</g>
<!-- Node2&#45;&gt;Node4 -->
<g id="edge3" class="edge"><title>Node2&#45;&gt;Node4</title>
<path fill="none" stroke="midnightblue" d="M219.258,-95.589C232.806,-100.269 249.305,-105.969 263.96,-111.032"/>
<polygon fill="midnightblue" stroke="midnightblue" points="263.156,-114.457 273.751,-114.414 265.442,-107.841 263.156,-114.457"/>
</g>
<!-- Node6 -->
<g id="node6" class="node"><title>Node6</title>
<g id="a_node6"><a xlink:href="../../d8/de2/menudefs_8qc.html#ae06db7c87845d853670a09a1d487b1db" target="_top" xlink:title="strzone">
<polygon fill="none" stroke="black" points="276,-76.5 276,-95.5 329,-95.5 329,-76.5 276,-76.5"/>
<text text-anchor="middle" x="302.5" y="-83.5" font-family="Helvetica,sans-Serif" font-size="10.00">strzone</text>
</a>
</g>
</g>
<!-- Node2&#45;&gt;Node6 -->
<g id="edge6" class="edge"><title>Node2&#45;&gt;Node6</title>
<path fill="none" stroke="midnightblue" d="M232.147,-86C243.072,-86 254.808,-86 265.463,-86"/>
<polygon fill="midnightblue" stroke="midnightblue" points="265.687,-89.5001 275.687,-86 265.687,-82.5001 265.687,-89.5001"/>
</g>
<!-- Node7 -->
<g id="node7" class="node"><title>Node7</title>
<g id="a_node7"><a xlink:href="../../d8/de2/menudefs_8qc.html#a6f8c7ef6ee4a4d851aaa5fd1789eab9a" target="_top" xlink:title="cvar_string">
<polygon fill="none" stroke="black" points="268,-38.5 268,-57.5 337,-57.5 337,-38.5 268,-38.5"/>
<text text-anchor="middle" x="302.5" y="-45.5" font-family="Helvetica,sans-Serif" font-size="10.00">cvar_string</text>
</a>
</g>
</g>
<!-- Node2&#45;&gt;Node7 -->
<g id="edge7" class="edge"><title>Node2&#45;&gt;Node7</title>
<path fill="none" stroke="midnightblue" d="M219.258,-76.411C232.806,-71.7306 249.305,-66.0308 263.96,-60.9685"/>
<polygon fill="midnightblue" stroke="midnightblue" points="265.442,-64.1594 273.751,-57.5859 263.156,-57.543 265.442,-64.1594"/>
</g>
<!-- Node8 -->
<g id="node8" class="node"><title>Node8</title>
<g id="a_node8"><a xlink:href="../../d8/de2/menudefs_8qc.html#a0b350379da8a7002dee40a3598bf33c3" target="_top" xlink:title="cvar_set">
<polygon fill="none" stroke="black" points="274,-0.5 274,-19.5 331,-19.5 331,-0.5 274,-0.5"/>
<text text-anchor="middle" x="302.5" y="-7.5" font-family="Helvetica,sans-Serif" font-size="10.00">cvar_set</text>
</a>
</g>
</g>
<!-- Node2&#45;&gt;Node8 -->
<g id="edge8" class="edge"><title>Node2&#45;&gt;Node8</title>
<path fill="none" stroke="midnightblue" d="M203.356,-76.4399C218.116,-64.7101 244.281,-44.4771 268,-29 270.156,-27.5933 272.421,-26.1799 274.714,-24.7938"/>
<polygon fill="midnightblue" stroke="midnightblue" points="276.648,-27.7174 283.521,-19.6539 273.12,-21.6717 276.648,-27.7174"/>
</g>
<!-- Node4&#45;&gt;Node3 -->
<g id="edge5" class="edge"><title>Node4&#45;&gt;Node3</title>
<path fill="none" stroke="midnightblue" d="M330.753,-133.589C345.926,-138.928 364.868,-145.592 380.592,-151.125"/>
<polygon fill="midnightblue" stroke="midnightblue" points="379.793,-154.554 390.388,-154.572 382.117,-147.951 379.793,-154.554"/>
</g>
<!-- Node5 -->
<g id="node5" class="node"><title>Node5</title>
<g id="a_node5"><a xlink:href="../../d9/d51/intrusivelist_8qh.html#a385bb2612b4fc3e23b299195944d8925" target="_top" xlink:title="IL_CONTAINS">
<polygon fill="none" stroke="black" points="373,-114.5 373,-133.5 452,-133.5 452,-114.5 373,-114.5"/>
<text text-anchor="middle" x="412.5" y="-121.5" font-family="Helvetica,sans-Serif" font-size="10.00">IL_CONTAINS</text>
</a>
</g>
</g>
<!-- Node4&#45;&gt;Node5 -->
<g id="edge4" class="edge"><title>Node4&#45;&gt;Node5</title>
<path fill="none" stroke="midnightblue" d="M331.032,-124C340.599,-124 351.638,-124 362.414,-124"/>
<polygon fill="midnightblue" stroke="midnightblue" points="362.609,-127.5 372.608,-124 362.608,-120.5 362.609,-127.5"/>
</g>
</g>
</svg>
