<?xml version="1.0" encoding="UTF-8" standalone="no"?>
<!DOCTYPE svg PUBLIC "-//W3C//DTD SVG 1.1//EN"
 "http://www.w3.org/Graphics/SVG/1.1/DTD/svg11.dtd">
<!-- Generated by graphviz version 2.26.3 (20100126.1600)
 -->
<!-- Title: G Pages: 1 -->
<!--zoomable 128 -->
<svg id="main" version="1.1" xmlns="http://www.w3.org/2000/svg" xmlns:xlink="http://www.w3.org/1999/xlink" xml:space="preserve" onload="init(evt)">
        <defs>
                <circle id="rim" cx="0" cy="0" r="7"/>
                <circle id="rim2" cx="0" cy="0" r="3.5"/>
                <g id="zoomPlus">
                        <use xlink:href="#rim" fill="#404040">
                                <set attributeName="fill" to="#808080" begin="zoomplus.mouseover" end="zoomplus.mouseout"/>
                        </use>
                        <path d="M-4,0h8M0,-4v8" fill="none" stroke="white" stroke-width="1.5" pointer-events="none"/>
                </g>
                <g id="zoomMin">
                        <use xlink:href="#rim" fill="#404040">
                                <set attributeName="fill" to="#808080" begin="zoomminus.mouseover" end="zoomminus.mouseout"/>
                        </use>
                        <path d="M-4,0h8" fill="none" stroke="white" stroke-width="1.5" pointer-events="none"/>
                </g>
                <g id="dirArrow">
                        <path fill="none" stroke="white" stroke-width="1.5" d="M0,-3.0v7 M-2.5,-0.5L0,-3.0L2.5,-0.5"/>
                </g>
               <g id="resetDef">
                       <use xlink:href="#rim2" fill="#404040">
                               <set attributeName="fill" to="#808080" begin="reset.mouseover" end="reset.mouseout"/>
                       </use>
               </g>
        </defs>

<script type="text/javascript">
var viewWidth = 1826;
var viewHeight = 128;
var sectionId = 'dynsection-28';
</script>
<script xlink:href="../../svgpan.js"/>
<svg id="graph" class="graph">
<g id="viewport">
<title>G</title>
<!-- Node1 -->
<g id="node1" class="node"><title>Node1</title>
<polygon fill="#bfbfbf" stroke="black" points="0,-69.5 0,-90.5 182,-90.5 182,-69.5 0,-69.5"/>
<text text-anchor="middle" x="91" y="-77.5" font-family="Helvetica,sans-Serif" font-size="10.00">CommonCommand_macro_command</text>
</g>
<!-- Node2 -->
<g id="node3" class="node"><title>Node2</title>
<a xlink:href="../../d3/df2/sv__cmd_8qc.html#ace6e22b7f453fe00f6629955c25e4fdc" target="_top" xlink:title="GameCommand">
<polygon fill="none" stroke="black" points="240,-98.5 240,-119.5 328,-119.5 328,-98.5 240,-98.5"/>
<text text-anchor="middle" x="284" y="-106.5" font-family="Helvetica,sans-Serif" font-size="10.00">GameCommand</text>
</a>
</g>
<!-- Node1&#45;&gt;Node2 -->
<g id="edge2" class="edge"><title>Node1&#45;&gt;Node2</title>
<path fill="none" stroke="midnightblue" d="M170.938,-92.0114C194.476,-95.5482 219.369,-99.2886 239.788,-102.357"/>
<polygon fill="midnightblue" stroke="midnightblue" points="171.359,-88.5355 160.95,-90.5107 170.319,-95.4578 171.359,-88.5355"/>
</g>
<!-- Node3 -->
<g id="node5" class="node"><title>Node3</title>
<a xlink:href="../../d8/d1d/cmd_8qc.html#a015860def0a51a057a4a80c048a1eb97" target="_top" xlink:title="SV_ParseClientCommand">
<polygon fill="none" stroke="black" points="218.5,-40.5 218.5,-61.5 349.5,-61.5 349.5,-40.5 218.5,-40.5"/>
<text text-anchor="middle" x="284" y="-48.5" font-family="Helvetica,sans-Serif" font-size="10.00">SV_ParseClientCommand</text>
</a>
</g>
<!-- Node1&#45;&gt;Node3 -->
<g id="edge4" class="edge"><title>Node1&#45;&gt;Node3</title>
<path fill="none" stroke="midnightblue" d="M171.191,-67.9505C186.934,-65.585 203.273,-63.13 218.467,-60.847"/>
<polygon fill="midnightblue" stroke="midnightblue" points="170.319,-64.5422 160.95,-69.4893 171.359,-71.4645 170.319,-64.5422"/>
</g>
<!-- Node3&#45;&gt;Node3 -->
<g id="edge36" class="edge"><title>Node3&#45;&gt;Node3</title>
<path fill="none" stroke="midnightblue" d="M258.804,-71.0551C260.456,-76.164 268.855,-80 284,-80 307.641,-80 314.844,-70.6531 305.609,-61.7079"/>
<polygon fill="midnightblue" stroke="midnightblue" points="262.076,-72.298 262.391,-61.7079 255.54,-69.7899 262.076,-72.298"/>
</g>
<!-- Node4 -->
<g id="node7" class="node"><title>Node4</title>
<a xlink:href="../../d6/d27/scripting_8qc.html#ab294edcf875ff4ffe8c92b09c9c1eb7d" target="_top" xlink:title="bot_cmd_cc">
<polygon fill="none" stroke="black" points="386,-40.5 386,-61.5 456,-61.5 456,-40.5 386,-40.5"/>
<text text-anchor="middle" x="421" y="-48.5" font-family="Helvetica,sans-Serif" font-size="10.00">bot_cmd_cc</text>
</a>
</g>
<!-- Node3&#45;&gt;Node4 -->
<g id="edge6" class="edge"><title>Node3&#45;&gt;Node4</title>
<path fill="none" stroke="midnightblue" d="M359.938,-51C368.977,-51 377.842,-51 385.893,-51"/>
<polygon fill="midnightblue" stroke="midnightblue" points="359.691,-47.5001 349.691,-51 359.691,-54.5001 359.691,-47.5001"/>
</g>
<!-- Node5 -->
<g id="node9" class="node"><title>Node5</title>
<a xlink:href="../../d6/d27/scripting_8qc.html#a1a22b0aa6eec47f26c13171affa86257" target="_top" xlink:title="bot_execute_commands_once">
<polygon fill="none" stroke="black" points="492.5,-40.5 492.5,-61.5 641.5,-61.5 641.5,-40.5 492.5,-40.5"/>
<text text-anchor="middle" x="567" y="-48.5" font-family="Helvetica,sans-Serif" font-size="10.00">bot_execute_commands_once</text>
</a>
</g>
<!-- Node4&#45;&gt;Node5 -->
<g id="edge8" class="edge"><title>Node4&#45;&gt;Node5</title>
<path fill="none" stroke="midnightblue" d="M466.488,-51C474.761,-51 483.587,-51 492.443,-51"/>
<polygon fill="midnightblue" stroke="midnightblue" points="466.343,-47.5001 456.343,-51 466.342,-54.5001 466.343,-47.5001"/>
</g>
<!-- Node6 -->
<g id="node11" class="node"><title>Node6</title>
<a xlink:href="../../d8/d14/scripting_8qh.html#a4329fc05705889f2cf7997d432b4eca5" target="_top" xlink:title="bot_execute_commands">
<polygon fill="none" stroke="black" points="678.5,-40.5 678.5,-61.5 801.5,-61.5 801.5,-40.5 678.5,-40.5"/>
<text text-anchor="middle" x="740" y="-48.5" font-family="Helvetica,sans-Serif" font-size="10.00">bot_execute_commands</text>
</a>
</g>
<!-- Node5&#45;&gt;Node6 -->
<g id="edge10" class="edge"><title>Node5&#45;&gt;Node6</title>
<path fill="none" stroke="midnightblue" d="M651.727,-51C660.705,-51 669.708,-51 678.349,-51"/>
<polygon fill="midnightblue" stroke="midnightblue" points="651.623,-47.5001 641.623,-51 651.623,-54.5001 651.623,-47.5001"/>
</g>
<!-- Node7 -->
<g id="node13" class="node"><title>Node7</title>
<a xlink:href="../../d8/d39/havocbot_8qh.html#a2b3ecfff0cb23c75cc8cd773153e91f2" target="_top" xlink:title="havocbot_ai">
<polygon fill="none" stroke="black" points="838.5,-40.5 838.5,-61.5 907.5,-61.5 907.5,-40.5 838.5,-40.5"/>
<text text-anchor="middle" x="873" y="-48.5" font-family="Helvetica,sans-Serif" font-size="10.00">havocbot_ai</text>
</a>
</g>
<!-- Node6&#45;&gt;Node7 -->
<g id="edge12" class="edge"><title>Node6&#45;&gt;Node7</title>
<path fill="none" stroke="midnightblue" d="M812.08,-51C821.14,-51 830.061,-51 838.164,-51"/>
<polygon fill="midnightblue" stroke="midnightblue" points="811.828,-47.5001 801.828,-51 811.828,-54.5001 811.828,-47.5001"/>
</g>
<!-- Node8 -->
<g id="node15" class="node"><title>Node8</title>
<a xlink:href="../../d8/d39/havocbot_8qh.html#a5ba0f97eb0d5ad68542d585381d00ae2" target="_top" xlink:title="havocbot_setupbot">
<polygon fill="none" stroke="black" points="944.5,-40.5 944.5,-61.5 1043.5,-61.5 1043.5,-40.5 944.5,-40.5"/>
<text text-anchor="middle" x="994" y="-48.5" font-family="Helvetica,sans-Serif" font-size="10.00">havocbot_setupbot</text>
</a>
</g>
<!-- Node7&#45;&gt;Node8 -->
<g id="edge14" class="edge"><title>Node7&#45;&gt;Node8</title>
<path fill="none" stroke="midnightblue" d="M917.935,-51C926.574,-51 935.668,-51 944.444,-51"/>
<polygon fill="midnightblue" stroke="midnightblue" points="917.674,-47.5001 907.674,-51 917.674,-54.5001 917.674,-47.5001"/>
</g>
<!-- Node9 -->
<g id="node17" class="node"><title>Node9</title>
<a xlink:href="../../d1/da9/bot_8qh.html#abd19370e4d61d3549dbbe44826531536" target="_top" xlink:title="bot_clientconnect">
<polygon fill="none" stroke="black" points="1080.5,-40.5 1080.5,-61.5 1173.5,-61.5 1173.5,-40.5 1080.5,-40.5"/>
<text text-anchor="middle" x="1127" y="-48.5" font-family="Helvetica,sans-Serif" font-size="10.00">bot_clientconnect</text>
</a>
</g>
<!-- Node8&#45;&gt;Node9 -->
<g id="edge16" class="edge"><title>Node8&#45;&gt;Node9</title>
<path fill="none" stroke="midnightblue" d="M1053.77,-51C1062.59,-51 1071.57,-51 1080.08,-51"/>
<polygon fill="midnightblue" stroke="midnightblue" points="1053.52,-47.5001 1043.52,-51 1053.52,-54.5001 1053.52,-47.5001"/>
</g>
<!-- Node10 -->
<g id="node19" class="node"><title>Node10</title>
<a xlink:href="../../da/d53/cl__client_8qc.html#a085ea0b3ff57991ce31f51def68da821" target="_top" xlink:title="============= ClientConnect">
<polygon fill="none" stroke="black" points="1210.5,-40.5 1210.5,-61.5 1289.5,-61.5 1289.5,-40.5 1210.5,-40.5"/>
<text text-anchor="middle" x="1250" y="-48.5" font-family="Helvetica,sans-Serif" font-size="10.00">ClientConnect</text>
</a>
</g>
<!-- Node9&#45;&gt;Node10 -->
<g id="edge18" class="edge"><title>Node9&#45;&gt;Node10</title>
<path fill="none" stroke="midnightblue" d="M1183.58,-51C1192.59,-51 1201.75,-51 1210.27,-51"/>
<polygon fill="midnightblue" stroke="midnightblue" points="1183.5,-47.5001 1173.5,-51 1183.5,-54.5001 1183.5,-47.5001"/>
</g>
<!-- Node11 -->
<g id="node21" class="node"><title>Node11</title>
<a xlink:href="../../d1/da9/bot_8qh.html#a5e30e64bee22a5e4abf3bca9ae06f8fc" target="_top" xlink:title="bot_spawn">
<polygon fill="none" stroke="black" points="1326,-40.5 1326,-61.5 1390,-61.5 1390,-40.5 1326,-40.5"/>
<text text-anchor="middle" x="1358" y="-48.5" font-family="Helvetica,sans-Serif" font-size="10.00">bot_spawn</text>
</a>
</g>
<!-- Node10&#45;&gt;Node11 -->
<g id="edge20" class="edge"><title>Node10&#45;&gt;Node11</title>
<path fill="none" stroke="midnightblue" d="M1299.84,-51C1308.67,-51 1317.65,-51 1325.83,-51"/>
<polygon fill="midnightblue" stroke="midnightblue" points="1299.6,-47.5001 1289.6,-51 1299.6,-54.5001 1299.6,-47.5001"/>
</g>
<!-- Node12 -->
<g id="node23" class="node"><title>Node12</title>
<a xlink:href="../../d1/da9/bot_8qh.html#a2fee5495c041d9197ee7d76cccd1d889" target="_top" xlink:title="bot_fixcount">
<polygon fill="none" stroke="black" points="1426,-40.5 1426,-61.5 1496,-61.5 1496,-40.5 1426,-40.5"/>
<text text-anchor="middle" x="1461" y="-48.5" font-family="Helvetica,sans-Serif" font-size="10.00">bot_fixcount</text>
</a>
</g>
<!-- Node11&#45;&gt;Node12 -->
<g id="edge22" class="edge"><title>Node11&#45;&gt;Node12</title>
<path fill="none" stroke="midnightblue" d="M1400.16,-51C1408.67,-51 1417.53,-51 1425.77,-51"/>
<polygon fill="midnightblue" stroke="midnightblue" points="1400.03,-47.5001 1390.03,-51 1400.03,-54.5001 1400.03,-47.5001"/>
</g>
<!-- Node13 -->
<g id="node25" class="node"><title>Node13</title>
<a xlink:href="../../d1/da9/bot_8qh.html#aca1687b4e440adf8111b9438919a0b0a" target="_top" xlink:title="bot_serverframe">
<polygon fill="none" stroke="black" points="1554.5,-80.5 1554.5,-101.5 1641.5,-101.5 1641.5,-80.5 1554.5,-80.5"/>
<text text-anchor="middle" x="1598" y="-88.5" font-family="Helvetica,sans-Serif" font-size="10.00">bot_serverframe</text>
</a>
</g>
<!-- Node12&#45;&gt;Node13 -->
<g id="edge24" class="edge"><title>Node12&#45;&gt;Node13</title>
<path fill="none" stroke="midnightblue" d="M1506.05,-64.154C1524.17,-69.444 1544.78,-75.4606 1561.88,-80.4553"/>
<polygon fill="midnightblue" stroke="midnightblue" points="1506.86,-60.744 1496.28,-61.301 1504.9,-67.4635 1506.86,-60.744"/>
</g>
<!-- Node15 -->
<g id="node29" class="node"><title>Node15</title>
<a xlink:href="../../d3/df2/sv__cmd_8qc.html#a8ad5100252af97d4e86e67f233fd6578" target="_top" xlink:title="GameCommand_bot_cmd">
<polygon fill="none" stroke="black" points="1532.5,-40.5 1532.5,-61.5 1663.5,-61.5 1663.5,-40.5 1532.5,-40.5"/>
<text text-anchor="middle" x="1598" y="-48.5" font-family="Helvetica,sans-Serif" font-size="10.00">GameCommand_bot_cmd</text>
</a>
</g>
<!-- Node12&#45;&gt;Node15 -->
<g id="edge28" class="edge"><title>Node12&#45;&gt;Node15</title>
<path fill="none" stroke="midnightblue" d="M1506.45,-51C1514.73,-51 1523.52,-51 1532.25,-51"/>
<polygon fill="midnightblue" stroke="midnightblue" points="1506.28,-47.5001 1496.28,-51 1506.28,-54.5001 1506.28,-47.5001"/>
</g>
<!-- Node17 -->
<g id="node33" class="node"><title>Node17</title>
<a xlink:href="../../d3/df2/sv__cmd_8qc.html#af60fdb24d415a53dadd63f3d2fe3d04c" target="_top" xlink:title="GameCommand_setbots">
<polygon fill="none" stroke="black" points="1535.5,-0.5 1535.5,-21.5 1660.5,-21.5 1660.5,-0.5 1535.5,-0.5"/>
<text text-anchor="middle" x="1598" y="-8.5" font-family="Helvetica,sans-Serif" font-size="10.00">GameCommand_setbots</text>
</a>
</g>
<!-- Node12&#45;&gt;Node17 -->
<g id="edge32" class="edge"><title>Node12&#45;&gt;Node17</title>
<path fill="none" stroke="midnightblue" d="M1506.05,-37.846C1524.17,-32.556 1544.78,-26.5394 1561.88,-21.5447"/>
<polygon fill="midnightblue" stroke="midnightblue" points="1504.9,-34.5365 1496.28,-40.699 1506.86,-41.256 1504.9,-34.5365"/>
</g>
<!-- Node14 -->
<g id="node27" class="node"><title>Node14</title>
<a xlink:href="../../d3/d4f/sv__main_8qc.html#a554af7e2ac58045168dad9eca30bc8b1" target="_top" xlink:title="StartFrame">
<polygon fill="none" stroke="black" points="1726.5,-80.5 1726.5,-101.5 1791.5,-101.5 1791.5,-80.5 1726.5,-80.5"/>
<text text-anchor="middle" x="1759" y="-88.5" font-family="Helvetica,sans-Serif" font-size="10.00">StartFrame</text>
</a>
</g>
<!-- Node13&#45;&gt;Node14 -->
<g id="edge26" class="edge"><title>Node13&#45;&gt;Node14</title>
<path fill="none" stroke="midnightblue" d="M1651.89,-91C1676.57,-91 1705.01,-91 1726.38,-91"/>
<polygon fill="midnightblue" stroke="midnightblue" points="1651.57,-87.5001 1641.57,-91 1651.57,-94.5001 1651.57,-87.5001"/>
</g>
<!-- Node16 -->
<g id="node31" class="node"><title>Node16</title>
<a xlink:href="../../d3/df2/sv__cmd_8qc.html#a490f715d9315ed9afe87514d6e4aac02" target="_top" xlink:title="SERVER_COMMAND">
<polygon fill="none" stroke="black" points="1700.5,-40.5 1700.5,-61.5 1817.5,-61.5 1817.5,-40.5 1700.5,-40.5"/>
<text text-anchor="middle" x="1759" y="-48.5" font-family="Helvetica,sans-Serif" font-size="10.00">SERVER_COMMAND</text>
</a>
</g>
<!-- Node15&#45;&gt;Node16 -->
<g id="edge30" class="edge"><title>Node15&#45;&gt;Node16</title>
<path fill="none" stroke="midnightblue" d="M1674.22,-51C1683.01,-51 1691.87,-51 1700.38,-51"/>
<polygon fill="midnightblue" stroke="midnightblue" points="1673.95,-47.5001 1663.95,-51 1673.95,-54.5001 1673.95,-47.5001"/>
</g>
<!-- Node18 -->
<g id="node35" class="node"><title>Node18</title>
<a xlink:href="../../d3/df2/sv__cmd_8qc.html#a53264788ea69deca9531d76139e51751" target="_top" xlink:title="SERVER_COMMAND">
<polygon fill="none" stroke="black" points="1700.5,-0.5 1700.5,-21.5 1817.5,-21.5 1817.5,-0.5 1700.5,-0.5"/>
<text text-anchor="middle" x="1759" y="-8.5" font-family="Helvetica,sans-Serif" font-size="10.00">SERVER_COMMAND</text>
</a>
</g>
<!-- Node17&#45;&gt;Node18 -->
<g id="edge34" class="edge"><title>Node17&#45;&gt;Node18</title>
<path fill="none" stroke="midnightblue" d="M1670.92,-11C1680.8,-11 1690.83,-11 1700.41,-11"/>
<polygon fill="midnightblue" stroke="midnightblue" points="1670.71,-7.5001 1660.71,-11 1670.71,-14.5001 1670.71,-7.5001"/>
</g>
</g>
</svg>
        <g id="navigator" transform="translate(0 0)" fill="#404254">
                <rect fill="#f2f5e9" fill-opacity="0.5" stroke="#606060" stroke-width=".5" x="0" y="0" width="60" height="60"/>
                <use id="zoomplus" xlink:href="#zoomPlus" x="17" y="9" onmousedown="handleZoom(evt,'in')"/>
                <use id="zoomminus" xlink:href="#zoomMin" x="42" y="9" onmousedown="handleZoom(evt,'out')"/>
                <use id="reset" xlink:href="#resetDef" x="30" y="36" onmousedown="handleReset()"/>
                <g id="arrowUp" xlink:href="#dirArrow" transform="translate(30 24)" onmousedown="handlePan(0,-1)">
                  <use xlink:href="#rim" fill="#404040">
                        <set attributeName="fill" to="#808080" begin="arrowUp.mouseover" end="arrowUp.mouseout"/>
                  </use>
                  <path fill="none" stroke="white" stroke-width="1.5" d="M0,-3.0v7 M-2.5,-0.5L0,-3.0L2.5,-0.5"/>
                </g>
                <g id="arrowRight" xlink:href="#dirArrow" transform="rotate(90) translate(36 -43)" onmousedown="handlePan(1,0)">
                  <use xlink:href="#rim" fill="#404040">
                        <set attributeName="fill" to="#808080" begin="arrowRight.mouseover" end="arrowRight.mouseout"/>
                  </use>
                  <path fill="none" stroke="white" stroke-width="1.5" d="M0,-3.0v7 M-2.5,-0.5L0,-3.0L2.5,-0.5"/>
                </g>
                <g id="arrowDown" xlink:href="#dirArrow" transform="rotate(180) translate(-30 -48)" onmousedown="handlePan(0,1)">
                  <use xlink:href="#rim" fill="#404040">
                        <set attributeName="fill" to="#808080" begin="arrowDown.mouseover" end="arrowDown.mouseout"/>
                  </use>
                  <path fill="none" stroke="white" stroke-width="1.5" d="M0,-3.0v7 M-2.5,-0.5L0,-3.0L2.5,-0.5"/>
                </g>
                <g id="arrowLeft" xlink:href="#dirArrow" transform="rotate(270) translate(-36 17)" onmousedown="handlePan(-1,0)">
                  <use xlink:href="#rim" fill="#404040">
                        <set attributeName="fill" to="#808080" begin="arrowLeft.mouseover" end="arrowLeft.mouseout"/>
                  </use>
                  <path fill="none" stroke="white" stroke-width="1.5" d="M0,-3.0v7 M-2.5,-0.5L0,-3.0L2.5,-0.5"/>
                </g>
        </g>
</svg>
