<?xml version="1.0" encoding="UTF-8" standalone="no"?>
<!DOCTYPE svg PUBLIC "-//W3C//DTD SVG 1.1//EN"
 "http://www.w3.org/Graphics/SVG/1.1/DTD/svg11.dtd">
<!-- Generated by graphviz version 2.40.1 (20161225.0304)
 -->
<!-- Title: onslaught_controlpoint_icon_link Pages: 1 -->
<svg width="899pt" height="61pt"
 viewBox="0.00 0.00 899.00 61.00" xmlns="http://www.w3.org/2000/svg" xmlns:xlink="http://www.w3.org/1999/xlink">
<g id="graph0" class="graph" transform="scale(1 1) rotate(0) translate(4 57)">
<title>onslaught_controlpoint_icon_link</title>
<!-- Node16 -->
<g id="node1" class="node">
<title>Node16</title>
<polygon fill="#bfbfbf" stroke="#000000" points="0,-.5 0,-30.5 128,-30.5 128,-.5 0,-.5"/>
<text text-anchor="start" x="8" y="-18.5" font-family="Helvetica,sans-Serif" font-size="10.00" fill="#000000">onslaught_controlpoint</text>
<text text-anchor="middle" x="64" y="-7.5" font-family="Helvetica,sans-Serif" font-size="10.00" fill="#000000">_icon_link</text>
</g>
<!-- Node17 -->
<g id="node2" class="node">
<title>Node17</title>
<g id="a_node2"><a xlink:href="../../d0/de4/sv__onslaught_8qc.html#ac838107e46dcafc3e9ff17bac7af1ee5" target="_top" xlink:title="ons_ControlPoint_Icon\l_BuildThink">
<polygon fill="none" stroke="#000000" points="164,-22.5 164,-52.5 289,-52.5 289,-22.5 164,-22.5"/>
<text text-anchor="start" x="172" y="-40.5" font-family="Helvetica,sans-Serif" font-size="10.00" fill="#000000">ons_ControlPoint_Icon</text>
<text text-anchor="middle" x="226.5" y="-29.5" font-family="Helvetica,sans-Serif" font-size="10.00" fill="#000000">_BuildThink</text>
</a>
</g>
</g>
<!-- Node16&#45;&gt;Node17 -->
<g id="edge1" class="edge">
<title>Node16&#45;&gt;Node17</title>
<path fill="none" stroke="#191970" d="M138.1991,-25.5454C146.7568,-26.704 155.4197,-27.8768 163.804,-29.0119"/>
<polygon fill="#191970" stroke="#191970" points="138.6035,-22.0683 128.2243,-24.195 137.6643,-29.005 138.6035,-22.0683"/>
</g>
<!-- Node18 -->
<g id="node3" class="node">
<title>Node18</title>
<g id="a_node3"><a xlink:href="../../d0/de4/sv__onslaught_8qc.html#aded10d9a89e3977de028f2e9b8b20a9b" target="_top" xlink:title="ons_ControlPoint_Icon\l_Spawn">
<polygon fill="none" stroke="#000000" points="325,-.5 325,-30.5 450,-30.5 450,-.5 325,-.5"/>
<text text-anchor="start" x="333" y="-18.5" font-family="Helvetica,sans-Serif" font-size="10.00" fill="#000000">ons_ControlPoint_Icon</text>
<text text-anchor="middle" x="387.5" y="-7.5" font-family="Helvetica,sans-Serif" font-size="10.00" fill="#000000">_Spawn</text>
</a>
</g>
</g>
<!-- Node16&#45;&gt;Node18 -->
<g id="edge6" class="edge">
<title>Node16&#45;&gt;Node18</title>
<path fill="none" stroke="#191970" d="M138.1804,-13.851C146.8839,-13.7065 155.6383,-13.5836 164,-13.5 219.5528,-12.9445 233.4473,-12.9361 289,-13.5 300.6303,-13.6181 313.0318,-13.8145 324.9742,-14.0394"/>
<polygon fill="#191970" stroke="#191970" points="137.9502,-10.3544 128.0132,-14.0295 138.0731,-17.3533 137.9502,-10.3544"/>
</g>
<!-- Node17&#45;&gt;Node18 -->
<g id="edge2" class="edge">
<title>Node17&#45;&gt;Node18</title>
<path fill="none" stroke="#191970" d="M299.2184,-27.5633C307.8129,-26.3889 316.5268,-25.1982 324.9633,-24.0454"/>
<polygon fill="#191970" stroke="#191970" points="298.6419,-24.1095 289.2078,-28.9312 299.5896,-31.045 298.6419,-24.1095"/>
</g>
<!-- Node19 -->
<g id="node4" class="node">
<title>Node19</title>
<g id="a_node4"><a xlink:href="../../d0/de4/sv__onslaught_8qc.html#a0b8bd7394d3f4ab45ad96a223c23f3c9" target="_top" xlink:title="ons_ControlPoint_Touch">
<polygon fill="none" stroke="#000000" points="486,-6 486,-25 618,-25 618,-6 486,-6"/>
<text text-anchor="middle" x="552" y="-13" font-family="Helvetica,sans-Serif" font-size="10.00" fill="#000000">ons_ControlPoint_Touch</text>
</a>
</g>
</g>
<!-- Node18&#45;&gt;Node19 -->
<g id="edge3" class="edge">
<title>Node18&#45;&gt;Node19</title>
<path fill="none" stroke="#191970" d="M460.433,-15.5C468.9303,-15.5 477.562,-15.5 485.9589,-15.5"/>
<polygon fill="#191970" stroke="#191970" points="460.1597,-12.0001 450.1597,-15.5 460.1596,-19.0001 460.1597,-12.0001"/>
</g>
<!-- Node20 -->
<g id="node5" class="node">
<title>Node20</title>
<g id="a_node5"><a xlink:href="../../d0/de4/sv__onslaught_8qc.html#a2849214180784c7aa4438defd7386adc" target="_top" xlink:title="ons_ControlPoint_Setup">
<polygon fill="none" stroke="#000000" points="654,-6 654,-25 786,-25 786,-6 654,-6"/>
<text text-anchor="middle" x="720" y="-13" font-family="Helvetica,sans-Serif" font-size="10.00" fill="#000000">ons_ControlPoint_Setup</text>
</a>
</g>
</g>
<!-- Node19&#45;&gt;Node20 -->
<g id="edge4" class="edge">
<title>Node19&#45;&gt;Node20</title>
<path fill="none" stroke="#191970" d="M628.5946,-15.5C637.0134,-15.5 645.5322,-15.5 653.8092,-15.5"/>
<polygon fill="#191970" stroke="#191970" points="628.3981,-12.0001 618.398,-15.5 628.398,-19.0001 628.3981,-12.0001"/>
</g>
<!-- Node21 -->
<g id="node6" class="node">
<title>Node21</title>
<g id="a_node6"><a xlink:href="../../d0/de4/sv__onslaught_8qc.html#a666d8dad9ed1b6e64643960ca9f12e7a" target="_top" xlink:title="spawnfunc">
<polygon fill="none" stroke="#000000" points="822,-6 822,-25 891,-25 891,-6 822,-6"/>
<text text-anchor="middle" x="856.5" y="-13" font-family="Helvetica,sans-Serif" font-size="10.00" fill="#000000">spawnfunc</text>
</a>
</g>
</g>
<!-- Node20&#45;&gt;Node21 -->
<g id="edge5" class="edge">
<title>Node20&#45;&gt;Node21</title>
<path fill="none" stroke="#191970" d="M796.3783,-15.5C805.3071,-15.5 814.0475,-15.5 821.9767,-15.5"/>
<polygon fill="#191970" stroke="#191970" points="796.2508,-12.0001 786.2507,-15.5 796.2507,-19.0001 796.2508,-12.0001"/>
</g>
</g>
</svg>
