<?xml version="1.0" encoding="UTF-8" standalone="no"?>
<!DOCTYPE svg PUBLIC "-//W3C//DTD SVG 1.1//EN"
 "http://www.w3.org/Graphics/SVG/1.1/DTD/svg11.dtd">
<!-- Generated by graphviz version 2.36.0 (20140111.2315)
 -->
<!-- Title: cpicon_send Pages: 1 -->
<svg width="356pt" height="104pt"
 viewBox="0.00 0.00 356.00 104.00" xmlns="http://www.w3.org/2000/svg" xmlns:xlink="http://www.w3.org/1999/xlink">
<g id="graph0" class="graph" transform="scale(1 1) rotate(0) translate(4 100)">
<title>cpicon_send</title>
<!-- Node1 -->
<g id="node1" class="node"><title>Node1</title>
<polygon fill="#bfbfbf" stroke="black" points="0.5,-38.5 0.5,-57.5 71.5,-57.5 71.5,-38.5 0.5,-38.5"/>
<text text-anchor="middle" x="36" y="-45.5" font-family="Helvetica,sans-Serif" font-size="10.00">cpicon_send</text>
</g>
<!-- Node2 -->
<g id="node2" class="node"><title>Node2</title>
<g id="a_node2"><a xlink:href="../../d8/de2/menudefs_8qc.html#a22f100d9039928edd4e410c7d68858e7" target="_top" xlink:title="ceil">
<polygon fill="none" stroke="black" points="146,-76.5 146,-95.5 178,-95.5 178,-76.5 146,-76.5"/>
<text text-anchor="middle" x="162" y="-83.5" font-family="Helvetica,sans-Serif" font-size="10.00">ceil</text>
</a>
</g>
</g>
<!-- Node1&#45;&gt;Node2 -->
<g id="edge1" class="edge"><title>Node1&#45;&gt;Node2</title>
<path fill="none" stroke="midnightblue" d="M68.2904,-57.589C89.3328,-64.0375 116.689,-72.4208 136.221,-78.4063"/>
<polygon fill="midnightblue" stroke="midnightblue" points="135.325,-81.7924 145.911,-81.3761 137.376,-75.0996 135.325,-81.7924"/>
</g>
<!-- Node3 -->
<g id="node3" class="node"><title>Node3</title>
<g id="a_node3"><a xlink:href="../../d5/d09/resources_8qc.html#a41987053c5ea9c2c1c31b808887845e9" target="_top" xlink:title="Returns the current amount of resource the given entity has. ">
<polygon fill="none" stroke="black" points="108,-38.5 108,-57.5 216,-57.5 216,-38.5 108,-38.5"/>
<text text-anchor="middle" x="162" y="-45.5" font-family="Helvetica,sans-Serif" font-size="10.00">GetResourceAmount</text>
</a>
</g>
</g>
<!-- Node1&#45;&gt;Node3 -->
<g id="edge2" class="edge"><title>Node1&#45;&gt;Node3</title>
<path fill="none" stroke="midnightblue" d="M71.5409,-48C79.6633,-48 88.5736,-48 97.5249,-48"/>
<polygon fill="midnightblue" stroke="midnightblue" points="97.6088,-51.5001 107.609,-48 97.6088,-44.5001 97.6088,-51.5001"/>
</g>
<!-- Node5 -->
<g id="node5" class="node"><title>Node5</title>
<g id="a_node5"><a xlink:href="../../d8/de2/menudefs_8qc.html#abd23315350cd01304b6bd77c4c5c07e6" target="_top" xlink:title="WriteByte">
<polygon fill="none" stroke="black" points="132,-0.5 132,-19.5 192,-19.5 192,-0.5 132,-0.5"/>
<text text-anchor="middle" x="162" y="-7.5" font-family="Helvetica,sans-Serif" font-size="10.00">WriteByte</text>
</a>
</g>
</g>
<!-- Node1&#45;&gt;Node5 -->
<g id="edge4" class="edge"><title>Node1&#45;&gt;Node5</title>
<path fill="none" stroke="midnightblue" d="M68.2904,-38.411C84.6037,-33.4118 104.712,-27.2496 122.027,-21.9434"/>
<polygon fill="midnightblue" stroke="midnightblue" points="123.314,-25.2098 131.849,-18.9333 121.263,-18.517 123.314,-25.2098"/>
</g>
<!-- Node4 -->
<g id="node4" class="node"><title>Node4</title>
<g id="a_node4"><a xlink:href="../../d5/d09/resources_8qc.html#a71dd6195c49049c92fe8bd28377ea1cf" target="_top" xlink:title="Converts resource type (a RESOURCE_* constant) to entity field. ">
<polygon fill="none" stroke="black" points="252.5,-38.5 252.5,-57.5 347.5,-57.5 347.5,-38.5 252.5,-38.5"/>
<text text-anchor="middle" x="300" y="-45.5" font-family="Helvetica,sans-Serif" font-size="10.00">GetResourceField</text>
</a>
</g>
</g>
<!-- Node3&#45;&gt;Node4 -->
<g id="edge3" class="edge"><title>Node3&#45;&gt;Node4</title>
<path fill="none" stroke="midnightblue" d="M216.36,-48C224.825,-48 233.608,-48 242.149,-48"/>
<polygon fill="midnightblue" stroke="midnightblue" points="242.411,-51.5001 252.411,-48 242.411,-44.5001 242.411,-51.5001"/>
</g>
</g>
</svg>
