<?xml version="1.0" encoding="UTF-8" standalone="no"?>
<!DOCTYPE svg PUBLIC "-//W3C//DTD SVG 1.1//EN"
 "http://www.w3.org/Graphics/SVG/1.1/DTD/svg11.dtd">
<!-- Generated by graphviz version 2.36.0 (20140111.2315)
 -->
<!-- Title: CSQC_Parse_TempEntity Pages: 1 -->
<svg width="248pt" height="66pt"
 viewBox="0.00 0.00 248.00 66.00" xmlns="http://www.w3.org/2000/svg" xmlns:xlink="http://www.w3.org/1999/xlink">
<g id="graph0" class="graph" transform="scale(1 1) rotate(0) translate(4 62)">
<title>CSQC_Parse_TempEntity</title>
<!-- Node1 -->
<g id="node1" class="node"><title>Node1</title>
<polygon fill="#bfbfbf" stroke="black" points="0,-19.5 0,-38.5 132,-38.5 132,-19.5 0,-19.5"/>
<text text-anchor="middle" x="66" y="-26.5" font-family="Helvetica,sans-Serif" font-size="10.00">CSQC_Parse_TempEntity</text>
</g>
<!-- Node2 -->
<g id="node2" class="node"><title>Node2</title>
<g id="a_node2"><a xlink:href="../../d7/d1d/model_8qh.html#a61af9d6854722dad5d5e433009d21a0a" target="_top" xlink:title="if">
<polygon fill="none" stroke="black" points="189.5,-38.5 189.5,-57.5 218.5,-57.5 218.5,-38.5 189.5,-38.5"/>
<text text-anchor="middle" x="204" y="-45.5" font-family="Helvetica,sans-Serif" font-size="10.00">if</text>
</a>
</g>
</g>
<!-- Node1&#45;&gt;Node2 -->
<g id="edge1" class="edge"><title>Node1&#45;&gt;Node2</title>
<path fill="none" stroke="midnightblue" d="M132.212,-38.1104C149.041,-40.4617 166.099,-42.8447 179.252,-44.6823"/>
<polygon fill="midnightblue" stroke="midnightblue" points="178.904,-48.1675 189.292,-46.0849 179.872,-41.2349 178.904,-48.1675"/>
</g>
<!-- Node3 -->
<g id="node3" class="node"><title>Node3</title>
<g id="a_node3"><a xlink:href="../../de/dda/pickup_8qh.html#adb402f6267948b6e377ccd990d3f1a5d" target="_top" xlink:title="LOG_INFOF">
<polygon fill="none" stroke="black" points="168,-0.5 168,-19.5 240,-19.5 240,-0.5 168,-0.5"/>
<text text-anchor="middle" x="204" y="-7.5" font-family="Helvetica,sans-Serif" font-size="10.00">LOG_INFOF</text>
</a>
</g>
</g>
<!-- Node1&#45;&gt;Node3 -->
<g id="edge2" class="edge"><title>Node1&#45;&gt;Node3</title>
<path fill="none" stroke="midnightblue" d="M132.212,-19.8896C140.84,-18.6842 149.527,-17.4704 157.718,-16.3261"/>
<polygon fill="midnightblue" stroke="midnightblue" points="158.366,-19.7697 167.786,-14.9196 157.398,-12.837 158.366,-19.7697"/>
</g>
</g>
</svg>
