<?xml version="1.0" encoding="UTF-8" standalone="no"?>
<!DOCTYPE svg PUBLIC "-//W3C//DTD SVG 1.1//EN"
 "http://www.w3.org/Graphics/SVG/1.1/DTD/svg11.dtd">
<!-- Generated by graphviz version 2.36.0 (20140111.2315)
 -->
<!-- Title: Porto_Init Pages: 1 -->
<svg width="316pt" height="104pt"
 viewBox="0.00 0.00 316.00 104.00" xmlns="http://www.w3.org/2000/svg" xmlns:xlink="http://www.w3.org/1999/xlink">
<g id="graph0" class="graph" transform="scale(1 1) rotate(0) translate(4 100)">
<title>Porto_Init</title>
<!-- Node1 -->
<g id="node1" class="node"><title>Node1</title>
<polygon fill="#bfbfbf" stroke="black" points="0.5,-38.5 0.5,-57.5 59.5,-57.5 59.5,-38.5 0.5,-38.5"/>
<text text-anchor="middle" x="30" y="-45.5" font-family="Helvetica,sans-Serif" font-size="10.00">Porto_Init</text>
</g>
<!-- Node2 -->
<g id="node2" class="node"><title>Node2</title>
<g id="a_node2"><a xlink:href="../../d6/dd3/view_8qc.html#a4fe9505f7e0a1f7a3179aab307ce75c2" target="_top" xlink:title="Porto_Draw">
<polygon fill="none" stroke="black" points="96,-38.5 96,-57.5 164,-57.5 164,-38.5 96,-38.5"/>
<text text-anchor="middle" x="130" y="-45.5" font-family="Helvetica,sans-Serif" font-size="10.00">Porto_Draw</text>
</a>
</g>
</g>
<!-- Node1&#45;&gt;Node2 -->
<g id="edge1" class="edge"><title>Node1&#45;&gt;Node2</title>
<path fill="none" stroke="midnightblue" d="M59.6091,-48C67.7304,-48 76.7613,-48 85.5509,-48"/>
<polygon fill="midnightblue" stroke="midnightblue" points="85.6892,-51.5001 95.6892,-48 85.6892,-44.5001 85.6892,-51.5001"/>
</g>
<!-- Node3 -->
<g id="node3" class="node"><title>Node3</title>
<g id="a_node3"><a xlink:href="../../d4/d0c/csprogsdefs_8qc.html#a4f0b78b1785821ba47129edb68e70f9e" target="_top" xlink:title="vector">
<polygon fill="none" stroke="black" points="232,-76.5 232,-95.5 276,-95.5 276,-76.5 232,-76.5"/>
<text text-anchor="middle" x="254" y="-83.5" font-family="Helvetica,sans-Serif" font-size="10.00">vector</text>
</a>
</g>
</g>
<!-- Node2&#45;&gt;Node3 -->
<g id="edge2" class="edge"><title>Node2&#45;&gt;Node3</title>
<path fill="none" stroke="midnightblue" d="M161.786,-57.589C180.249,-63.3399 203.653,-70.6297 222.131,-76.3852"/>
<polygon fill="midnightblue" stroke="midnightblue" points="221.239,-79.7731 231.828,-79.4053 223.321,-73.0898 221.239,-79.7731"/>
</g>
<!-- Node4 -->
<g id="node4" class="node"><title>Node4</title>
<g id="a_node4"><a xlink:href="../../db/d9f/state_8qh.html#a917978fc72821486ab248ab4253cf6e8" target="_top" xlink:title="STAT">
<polygon fill="none" stroke="black" points="233,-38.5 233,-57.5 275,-57.5 275,-38.5 233,-38.5"/>
<text text-anchor="middle" x="254" y="-45.5" font-family="Helvetica,sans-Serif" font-size="10.00">STAT</text>
</a>
</g>
</g>
<!-- Node2&#45;&gt;Node4 -->
<g id="edge3" class="edge"><title>Node2&#45;&gt;Node4</title>
<path fill="none" stroke="midnightblue" d="M164.015,-48C182.334,-48 204.952,-48 222.801,-48"/>
<polygon fill="midnightblue" stroke="midnightblue" points="222.952,-51.5001 232.952,-48 222.952,-44.5001 222.952,-51.5001"/>
</g>
<!-- Node5 -->
<g id="node5" class="node"><title>Node5</title>
<g id="a_node5"><a xlink:href="../../da/d44/common_2util_8qc.html#a033f8b5786442ed20625b8ea3f27f8b6" target="_top" xlink:title="CheckWireframeBox">
<polygon fill="none" stroke="black" points="200.5,-0.5 200.5,-19.5 307.5,-19.5 307.5,-0.5 200.5,-0.5"/>
<text text-anchor="middle" x="254" y="-7.5" font-family="Helvetica,sans-Serif" font-size="10.00">CheckWireframeBox</text>
</a>
</g>
</g>
<!-- Node2&#45;&gt;Node5 -->
<g id="edge4" class="edge"><title>Node2&#45;&gt;Node5</title>
<path fill="none" stroke="midnightblue" d="M161.786,-38.411C177.101,-33.6406 195.817,-27.8112 212.3,-22.6771"/>
<polygon fill="midnightblue" stroke="midnightblue" points="213.717,-25.9015 222.224,-19.5859 211.636,-19.2182 213.717,-25.9015"/>
</g>
</g>
</svg>
