<?xml version="1.0" encoding="UTF-8" standalone="no"?>
<!DOCTYPE svg PUBLIC "-//W3C//DTD SVG 1.1//EN"
 "http://www.w3.org/Graphics/SVG/1.1/DTD/svg11.dtd">
<!-- Generated by graphviz version 2.36.0 (20140111.2315)
 -->
<!-- Title: SetTeam Pages: 1 -->
<!--zoomable 142 -->
<svg id="main" version="1.1" xmlns="http://www.w3.org/2000/svg" xmlns:xlink="http://www.w3.org/1999/xlink" xml:space="preserve" onload="init(evt)">
<style type="text/css"><![CDATA[
.edge:hover path { stroke: red; }
.edge:hover polygon { stroke: red; fill: red; }
]]></style>
<script type="text/javascript"><![CDATA[
var edges = document.getElementsByTagName('g');
if (edges && edges.length) {
  for (var i=0;i<edges.length;i++) {
    if (edges[i].id.substr(0,4)=='edge') {
      edges[i].setAttribute('class','edge');
    }
  }
}
]]></script>
        <defs>
                <circle id="rim" cx="0" cy="0" r="7"/>
                <circle id="rim2" cx="0" cy="0" r="3.5"/>
                <g id="zoomPlus">
                        <use xlink:href="#rim" fill="#404040">
                                <set attributeName="fill" to="#808080" begin="zoomplus.mouseover" end="zoomplus.mouseout"/>
                        </use>
                        <path d="M-4,0h8M0,-4v8" fill="none" stroke="white" stroke-width="1.5" pointer-events="none"/>
                </g>
                <g id="zoomMin">
                        <use xlink:href="#rim" fill="#404040">
                                <set attributeName="fill" to="#808080" begin="zoomminus.mouseover" end="zoomminus.mouseout"/>
                        </use>
                        <path d="M-4,0h8" fill="none" stroke="white" stroke-width="1.5" pointer-events="none"/>
                </g>
                <g id="dirArrow">
                        <path fill="none" stroke="white" stroke-width="1.5" d="M0,-3.0v7 M-2.5,-0.5L0,-3.0L2.5,-0.5"/>
                </g>
               <g id="resetDef">
                       <use xlink:href="#rim2" fill="#404040">
                               <set attributeName="fill" to="#808080" begin="reset.mouseover" end="reset.mouseout"/>
                       </use>
               </g>
        </defs>

<script type="text/javascript">
var viewWidth = 554;
var viewHeight = 142;
var sectionId = 'dynsection-39';
</script>
<script xlink:href="../../svgpan.js"/>
<svg id="graph" class="graph">
<g id="viewport">
<title>SetTeam</title>
<!-- Node1 -->
<g id="node1" class="node"><title>Node1</title>
<polygon fill="#bfbfbf" stroke="black" points="0,-76.5 0,-95.5 56,-95.5 56,-76.5 0,-76.5"/>
<text text-anchor="middle" x="28" y="-83.5" font-family="Helvetica,sans-Serif" font-size="10.00">SetTeam</text>
</g>
<!-- Node2 -->
<g id="node2" class="node"><title>Node2</title>
<g id="a_node2"><a xlink:href="../../df/d30/client_2main_8qc.html#a55741734b1484ff2d8f3d76de5e7dc2f" target="_top" xlink:title="Ent_RemovePlayerScore">
<polygon fill="none" stroke="black" points="109.5,-114.5 109.5,-133.5 236.5,-133.5 236.5,-114.5 109.5,-114.5"/>
<text text-anchor="middle" x="173" y="-121.5" font-family="Helvetica,sans-Serif" font-size="10.00">Ent_RemovePlayerScore</text>
</a>
</g>
</g>
<!-- Node1&#45;&gt;Node2 -->
<g id="edge1" class="edge"><title>Node1&#45;&gt;Node2</title>
<path fill="none" stroke="midnightblue" d="M65.9029,-97.5318C74.4443,-100.089 83.5164,-102.715 92,-105 104.13,-108.266 117.374,-111.532 129.532,-114.412"/>
<polygon fill="midnightblue" stroke="midnightblue" points="66.7723,-94.1381 56.1869,-94.5867 64.7416,-100.837 66.7723,-94.1381"/>
</g>
<!-- Node4 -->
<g id="node4" class="node"><title>Node4</title>
<g id="a_node4"><a xlink:href="../../df/d30/client_2main_8qc.html#a937ea7da9d0d850374c39c3bd67a4dfe" target="_top" xlink:title="Playerchecker_Think">
<polygon fill="none" stroke="black" points="119,-76.5 119,-95.5 227,-95.5 227,-76.5 119,-76.5"/>
<text text-anchor="middle" x="173" y="-83.5" font-family="Helvetica,sans-Serif" font-size="10.00">Playerchecker_Think</text>
</a>
</g>
</g>
<!-- Node1&#45;&gt;Node4 -->
<g id="edge3" class="edge"><title>Node1&#45;&gt;Node4</title>
<path fill="none" stroke="midnightblue" d="M66.2845,-86C82.3093,-86 101.334,-86 118.798,-86"/>
<polygon fill="midnightblue" stroke="midnightblue" points="66.2338,-82.5001 56.2338,-86 66.2338,-89.5001 66.2338,-82.5001"/>
</g>
<!-- Node8 -->
<g id="node8" class="node"><title>Node8</title>
<g id="a_node8"><a xlink:href="../../d4/d2b/scoreboard_8qh.html#a786ae1643fa32d62926c79d548105082" target="_top" xlink:title="Scoreboard_UpdatePlayerTeams">
<polygon fill="none" stroke="black" points="92.5,-38.5 92.5,-57.5 253.5,-57.5 253.5,-38.5 92.5,-38.5"/>
<text text-anchor="middle" x="173" y="-45.5" font-family="Helvetica,sans-Serif" font-size="10.00">Scoreboard_UpdatePlayerTeams</text>
</a>
</g>
</g>
<!-- Node1&#45;&gt;Node8 -->
<g id="edge7" class="edge"><title>Node1&#45;&gt;Node8</title>
<path fill="none" stroke="midnightblue" d="M65.9029,-74.4682C74.4443,-71.9112 83.5164,-69.2845 92,-67 104.13,-63.7335 117.374,-60.4677 129.532,-57.5879"/>
<polygon fill="midnightblue" stroke="midnightblue" points="64.7416,-71.1629 56.1869,-77.4133 66.7723,-77.8619 64.7416,-71.1629"/>
</g>
<!-- Node3 -->
<g id="node3" class="node"><title>Node3</title>
<g id="a_node3"><a xlink:href="../../df/d30/client_2main_8qc.html#a354256327d864c9cb61a6a33dcc7e9f3" target="_top" xlink:title="NET_HANDLE">
<polygon fill="none" stroke="black" points="306.5,-114.5 306.5,-133.5 389.5,-133.5 389.5,-114.5 306.5,-114.5"/>
<text text-anchor="middle" x="348" y="-121.5" font-family="Helvetica,sans-Serif" font-size="10.00">NET_HANDLE</text>
</a>
</g>
</g>
<!-- Node2&#45;&gt;Node3 -->
<g id="edge2" class="edge"><title>Node2&#45;&gt;Node3</title>
<path fill="none" stroke="midnightblue" d="M247.131,-124C267.439,-124 288.754,-124 306.453,-124"/>
<polygon fill="midnightblue" stroke="midnightblue" points="246.946,-120.5 236.946,-124 246.946,-127.5 246.946,-120.5"/>
</g>
<!-- Node5 -->
<g id="node5" class="node"><title>Node5</title>
<g id="a_node5"><a xlink:href="../../d0/d2a/client_2main_8qh.html#a46ab77a8e6731f82b57ed43c3fe5eeea" target="_top" xlink:title="PostInit">
<polygon fill="none" stroke="black" points="323,-76.5 323,-95.5 373,-95.5 373,-76.5 323,-76.5"/>
<text text-anchor="middle" x="348" y="-83.5" font-family="Helvetica,sans-Serif" font-size="10.00">PostInit</text>
</a>
</g>
</g>
<!-- Node4&#45;&gt;Node5 -->
<g id="edge4" class="edge"><title>Node4&#45;&gt;Node5</title>
<path fill="none" stroke="midnightblue" d="M237.645,-86C267.371,-86 300.977,-86 322.995,-86"/>
<polygon fill="midnightblue" stroke="midnightblue" points="237.317,-82.5001 227.317,-86 237.317,-89.5001 237.317,-82.5001"/>
</g>
<!-- Node6 -->
<g id="node6" class="node"><title>Node6</title>
<g id="a_node6"><a xlink:href="../../df/d30/client_2main_8qc.html#a457fb0914a984ccdfa934d4b5376b495" target="_top" xlink:title="NET_HANDLE">
<polygon fill="none" stroke="black" points="452.5,-114.5 452.5,-133.5 535.5,-133.5 535.5,-114.5 452.5,-114.5"/>
<text text-anchor="middle" x="494" y="-121.5" font-family="Helvetica,sans-Serif" font-size="10.00">NET_HANDLE</text>
</a>
</g>
</g>
<!-- Node5&#45;&gt;Node6 -->
<g id="edge5" class="edge"><title>Node5&#45;&gt;Node6</title>
<path fill="none" stroke="midnightblue" d="M382.804,-94.9206C405.075,-100.798 434.208,-108.485 456.925,-114.48"/>
<polygon fill="midnightblue" stroke="midnightblue" points="383.664,-91.5278 373.102,-92.3603 381.878,-98.2961 383.664,-91.5278"/>
</g>
<!-- Node7 -->
<g id="node7" class="node"><title>Node7</title>
<g id="a_node7"><a xlink:href="../../d6/dd3/view_8qc.html#a7b9e2c12c6a461c93afb197bd1a93c8f" target="_top" xlink:title="CSQC_UpdateView">
<polygon fill="none" stroke="black" points="442,-76.5 442,-95.5 546,-95.5 546,-76.5 442,-76.5"/>
<text text-anchor="middle" x="494" y="-83.5" font-family="Helvetica,sans-Serif" font-size="10.00">CSQC_UpdateView</text>
</a>
</g>
</g>
<!-- Node5&#45;&gt;Node7 -->
<g id="edge6" class="edge"><title>Node5&#45;&gt;Node7</title>
<path fill="none" stroke="midnightblue" d="M383.408,-86C400.904,-86 422.517,-86 441.913,-86"/>
<polygon fill="midnightblue" stroke="midnightblue" points="383.102,-82.5001 373.102,-86 383.102,-89.5001 383.102,-82.5001"/>
</g>
<!-- Node9 -->
<g id="node9" class="node"><title>Node9</title>
<g id="a_node9"><a xlink:href="../../d6/d8f/score_8qc.html#a8266d5d080761ce457b269fd0a6a22c1" target="_top" xlink:title="HUD_Score_Rankings">
<polygon fill="none" stroke="black" points="290,-38.5 290,-57.5 406,-57.5 406,-38.5 290,-38.5"/>
<text text-anchor="middle" x="348" y="-45.5" font-family="Helvetica,sans-Serif" font-size="10.00">HUD_Score_Rankings</text>
</a>
</g>
</g>
<!-- Node8&#45;&gt;Node9 -->
<g id="edge8" class="edge"><title>Node8&#45;&gt;Node9</title>
<path fill="none" stroke="midnightblue" d="M263.724,-48C272.635,-48 281.5,-48 289.94,-48"/>
<polygon fill="midnightblue" stroke="midnightblue" points="263.664,-44.5001 253.664,-48 263.664,-51.5001 263.664,-44.5001"/>
</g>
<!-- Node11 -->
<g id="node11" class="node"><title>Node11</title>
<g id="a_node11"><a xlink:href="../../d4/d2b/scoreboard_8qh.html#a74fe9da906a0dda510849ac57116bba3" target="_top" xlink:title="Scoreboard_Draw">
<polygon fill="none" stroke="black" points="300.5,-0.5 300.5,-19.5 395.5,-19.5 395.5,-0.5 300.5,-0.5"/>
<text text-anchor="middle" x="348" y="-7.5" font-family="Helvetica,sans-Serif" font-size="10.00">Scoreboard_Draw</text>
</a>
</g>
</g>
<!-- Node8&#45;&gt;Node11 -->
<g id="edge10" class="edge"><title>Node8&#45;&gt;Node11</title>
<path fill="none" stroke="midnightblue" d="M227.505,-36.2474C251.967,-30.8742 280.571,-24.5914 303.659,-19.5201"/>
<polygon fill="midnightblue" stroke="midnightblue" points="226.671,-32.847 217.655,-38.411 228.173,-39.684 226.671,-32.847"/>
</g>
<!-- Node10 -->
<g id="node10" class="node"><title>Node10</title>
<g id="a_node10"><a xlink:href="../../d6/d8f/score_8qc.html#af299e2a5219b4b963a923527b78ed9a7" target="_top" xlink:title="HUD_Score">
<polygon fill="none" stroke="black" points="459,-38.5 459,-57.5 529,-57.5 529,-38.5 459,-38.5"/>
<text text-anchor="middle" x="494" y="-45.5" font-family="Helvetica,sans-Serif" font-size="10.00">HUD_Score</text>
</a>
</g>
</g>
<!-- Node9&#45;&gt;Node10 -->
<g id="edge9" class="edge"><title>Node9&#45;&gt;Node10</title>
<path fill="none" stroke="midnightblue" d="M416.398,-48C431.047,-48 445.952,-48 458.673,-48"/>
<polygon fill="midnightblue" stroke="midnightblue" points="416.326,-44.5001 406.326,-48 416.326,-51.5001 416.326,-44.5001"/>
</g>
</g>
</svg>
        <g id="navigator" transform="translate(0 0)" fill="#404254">
                <rect fill="#f2f5e9" fill-opacity="0.5" stroke="#606060" stroke-width=".5" x="0" y="0" width="60" height="60"/>
                <use id="zoomplus" xlink:href="#zoomPlus" x="17" y="9" onmousedown="handleZoom(evt,'in')"/>
                <use id="zoomminus" xlink:href="#zoomMin" x="42" y="9" onmousedown="handleZoom(evt,'out')"/>
                <use id="reset" xlink:href="#resetDef" x="30" y="36" onmousedown="handleReset()"/>
                <g id="arrowUp" xlink:href="#dirArrow" transform="translate(30 24)" onmousedown="handlePan(0,-1)">
                  <use xlink:href="#rim" fill="#404040">
                        <set attributeName="fill" to="#808080" begin="arrowUp.mouseover" end="arrowUp.mouseout"/>
                  </use>
                  <path fill="none" stroke="white" stroke-width="1.5" d="M0,-3.0v7 M-2.5,-0.5L0,-3.0L2.5,-0.5"/>
                </g>
                <g id="arrowRight" xlink:href="#dirArrow" transform="rotate(90) translate(36 -43)" onmousedown="handlePan(1,0)">
                  <use xlink:href="#rim" fill="#404040">
                        <set attributeName="fill" to="#808080" begin="arrowRight.mouseover" end="arrowRight.mouseout"/>
                  </use>
                  <path fill="none" stroke="white" stroke-width="1.5" d="M0,-3.0v7 M-2.5,-0.5L0,-3.0L2.5,-0.5"/>
                </g>
                <g id="arrowDown" xlink:href="#dirArrow" transform="rotate(180) translate(-30 -48)" onmousedown="handlePan(0,1)">
                  <use xlink:href="#rim" fill="#404040">
                        <set attributeName="fill" to="#808080" begin="arrowDown.mouseover" end="arrowDown.mouseout"/>
                  </use>
                  <path fill="none" stroke="white" stroke-width="1.5" d="M0,-3.0v7 M-2.5,-0.5L0,-3.0L2.5,-0.5"/>
                </g>
                <g id="arrowLeft" xlink:href="#dirArrow" transform="rotate(270) translate(-36 17)" onmousedown="handlePan(-1,0)">
                  <use xlink:href="#rim" fill="#404040">
                        <set attributeName="fill" to="#808080" begin="arrowLeft.mouseover" end="arrowLeft.mouseout"/>
                  </use>
                  <path fill="none" stroke="white" stroke-width="1.5" d="M0,-3.0v7 M-2.5,-0.5L0,-3.0L2.5,-0.5"/>
                </g>
        </g>
        <svg viewBox="0 0 15 15" width="100%" height="30px" preserveAspectRatio="xMaxYMin meet">
         <g id="arrow_out" transform="scale(0.3 0.3)">
          <a xlink:href="client_2main_8qc_acd252a66b7a6154e4eceea34d229112b_icgraph_org.svg" target="_base">
           <rect id="button" ry="5" rx="5" y="6" x="6" height="38" width="38"
                fill="#f2f5e9" fill-opacity="0.5" stroke="#606060" stroke-width="1.0"/>
           <path id="arrow"
             d="M 11.500037,31.436501 C 11.940474,20.09759 22.043105,11.32322 32.158766,21.979434 L 37.068811,17.246167 C 37.068811,17.246167 37.088388,32 37.088388,32 L 22.160133,31.978069 C 22.160133,31.978069 26.997745,27.140456 26.997745,27.140456 C 18.528582,18.264221 13.291696,25.230495 11.500037,31.436501 z"
             style="fill:#404040;"/>
          </a>
         </g>
        </svg>
</svg>
