<?xml version="1.0" encoding="UTF-8" standalone="no"?>
<!DOCTYPE svg PUBLIC "-//W3C//DTD SVG 1.1//EN"
 "http://www.w3.org/Graphics/SVG/1.1/DTD/svg11.dtd">
<!-- Generated by graphviz version 2.36.0 (20140111.2315)
 -->
<!-- Title: project_3d_to_2d Pages: 1 -->
<svg width="810pt" height="268pt"
 viewBox="0.00 0.00 810.00 268.00" xmlns="http://www.w3.org/2000/svg" xmlns:xlink="http://www.w3.org/1999/xlink">
<g id="graph0" class="graph" transform="scale(1 1) rotate(0) translate(4 264)">
<title>project_3d_to_2d</title>
<!-- Node1 -->
<g id="node1" class="node"><title>Node1</title>
<polygon fill="#bfbfbf" stroke="black" points="0.5,-114.5 0.5,-133.5 91.5,-133.5 91.5,-114.5 0.5,-114.5"/>
<text text-anchor="middle" x="46" y="-121.5" font-family="Helvetica,sans-Serif" font-size="10.00">project_3d_to_2d</text>
</g>
<!-- Node2 -->
<g id="node2" class="node"><title>Node2</title>
<g id="a_node2"><a xlink:href="../../d0/dee/cl__vehicles_8qc.html#aff65f9e2df55e440c56815180b375ecd" target="_top" xlink:title="AuxiliaryXhair_Draw2D">
<polygon fill="none" stroke="black" points="137,-240.5 137,-259.5 255,-259.5 255,-240.5 137,-240.5"/>
<text text-anchor="middle" x="196" y="-247.5" font-family="Helvetica,sans-Serif" font-size="10.00">AuxiliaryXhair_Draw2D</text>
</a>
</g>
</g>
<!-- Node1&#45;&gt;Node2 -->
<g id="edge1" class="edge"><title>Node1&#45;&gt;Node2</title>
<path fill="none" stroke="midnightblue" d="M56.3718,-142.562C69.2971,-166.306 94.8112,-207.089 128,-230 134.294,-234.345 141.547,-237.762 148.907,-240.446"/>
<polygon fill="midnightblue" stroke="midnightblue" points="59.373,-140.749 51.6175,-133.531 53.1789,-144.01 59.373,-140.749"/>
</g>
<!-- Node4 -->
<g id="node4" class="node"><title>Node4</title>
<g id="a_node4"><a xlink:href="../../de/d0c/classDamageText.html#a1bb3fadcd65ec6a18fd5840879e003f5" target="_top" xlink:title="DamageText::DamageText\l_draw2d">
<polygon fill="none" stroke="black" points="128.5,-191 128.5,-221 263.5,-221 263.5,-191 128.5,-191"/>
<text text-anchor="start" x="136.5" y="-209" font-family="Helvetica,sans-Serif" font-size="10.00">DamageText::DamageText</text>
<text text-anchor="middle" x="196" y="-198" font-family="Helvetica,sans-Serif" font-size="10.00">_draw2d</text>
</a>
</g>
</g>
<!-- Node1&#45;&gt;Node4 -->
<g id="edge3" class="edge"><title>Node1&#45;&gt;Node4</title>
<path fill="none" stroke="midnightblue" d="M66.4484,-139.837C82.3107,-152.211 105.668,-169.227 128,-181 134.809,-184.59 142.25,-187.907 149.617,-190.873"/>
<polygon fill="midnightblue" stroke="midnightblue" points="68.4714,-136.974 58.4613,-133.503 64.122,-142.459 68.4714,-136.974"/>
</g>
<!-- Node5 -->
<g id="node5" class="node"><title>Node5</title>
<g id="a_node5"><a xlink:href="../../d7/d39/shownames_8qc.html#ae84061a430077f6deea0123fa97d41b8" target="_top" xlink:title="Draw_ShowNames">
<polygon fill="none" stroke="black" points="145.5,-152.5 145.5,-171.5 246.5,-171.5 246.5,-152.5 145.5,-152.5"/>
<text text-anchor="middle" x="196" y="-159.5" font-family="Helvetica,sans-Serif" font-size="10.00">Draw_ShowNames</text>
</a>
</g>
</g>
<!-- Node1&#45;&gt;Node5 -->
<g id="edge4" class="edge"><title>Node1&#45;&gt;Node5</title>
<path fill="none" stroke="midnightblue" d="M94.1735,-136.112C114.786,-141.404 138.609,-147.521 157.922,-152.48"/>
<polygon fill="midnightblue" stroke="midnightblue" points="94.9029,-132.686 84.3466,-133.589 93.162,-139.466 94.9029,-132.686"/>
</g>
<!-- Node8 -->
<g id="node8" class="node"><title>Node8</title>
<g id="a_node8"><a xlink:href="../../d6/dd3/view_8qc.html#a2267e78c3964ccff16a7c2135a595efd" target="_top" xlink:title="EnemyHitCheck">
<polygon fill="none" stroke="black" points="151.5,-114.5 151.5,-133.5 240.5,-133.5 240.5,-114.5 151.5,-114.5"/>
<text text-anchor="middle" x="196" y="-121.5" font-family="Helvetica,sans-Serif" font-size="10.00">EnemyHitCheck</text>
</a>
</g>
</g>
<!-- Node1&#45;&gt;Node8 -->
<g id="edge7" class="edge"><title>Node1&#45;&gt;Node8</title>
<path fill="none" stroke="midnightblue" d="M102.245,-124C118.466,-124 135.974,-124 151.363,-124"/>
<polygon fill="midnightblue" stroke="midnightblue" points="101.807,-120.5 91.8065,-124 101.806,-127.5 101.807,-120.5"/>
</g>
<!-- Node10 -->
<g id="node10" class="node"><title>Node10</title>
<g id="a_node10"><a xlink:href="../../d6/dd3/view_8qc.html#a802dfb52366f7223086a1a95a4f08eeb" target="_top" xlink:title="HUD_Crosshair">
<polygon fill="none" stroke="black" points="422,-114.5 422,-133.5 508,-133.5 508,-114.5 422,-114.5"/>
<text text-anchor="middle" x="465" y="-121.5" font-family="Helvetica,sans-Serif" font-size="10.00">HUD_Crosshair</text>
</a>
</g>
</g>
<!-- Node1&#45;&gt;Node10 -->
<g id="edge12" class="edge"><title>Node1&#45;&gt;Node10</title>
<path fill="none" stroke="midnightblue" d="M89.7627,-112.03C102.01,-109.132 115.445,-106.453 128,-105 241.907,-91.8195 272.151,-91.3335 386,-105 401.499,-106.86 418.366,-110.73 432.437,-114.494"/>
<polygon fill="midnightblue" stroke="midnightblue" points="88.6676,-108.695 79.8,-114.493 90.3478,-115.491 88.6676,-108.695"/>
</g>
<!-- Node12 -->
<g id="node12" class="node"><title>Node12</title>
<g id="a_node12"><a xlink:href="../../df/d3f/cl__damagetext_8qc.html#a13482008cbdad1bfec342f75c39e181f" target="_top" xlink:title="NET_HANDLE">
<polygon fill="none" stroke="black" points="154.5,-38.5 154.5,-57.5 237.5,-57.5 237.5,-38.5 154.5,-38.5"/>
<text text-anchor="middle" x="196" y="-45.5" font-family="Helvetica,sans-Serif" font-size="10.00">NET_HANDLE</text>
</a>
</g>
</g>
<!-- Node1&#45;&gt;Node12 -->
<g id="edge13" class="edge"><title>Node1&#45;&gt;Node12</title>
<path fill="none" stroke="midnightblue" d="M68.4604,-108.311C84.3471,-97.1794 106.818,-82.4245 128,-72 139.308,-66.4351 152.241,-61.4946 163.709,-57.5645"/>
<polygon fill="midnightblue" stroke="midnightblue" points="66.0436,-105.735 59.927,-114.386 70.1034,-111.437 66.0436,-105.735"/>
</g>
<!-- Node13 -->
<g id="node13" class="node"><title>Node13</title>
<g id="a_node13"><a xlink:href="../../dd/d43/cl__turrets_8qc.html#a88e2b9692e03e7446a148bbfc8fc6a39" target="_top" xlink:title="turret_draw2d">
<polygon fill="none" stroke="black" points="158,-0.5 158,-19.5 234,-19.5 234,-0.5 158,-0.5"/>
<text text-anchor="middle" x="196" y="-7.5" font-family="Helvetica,sans-Serif" font-size="10.00">turret_draw2d</text>
</a>
</g>
</g>
<!-- Node1&#45;&gt;Node13 -->
<g id="edge14" class="edge"><title>Node1&#45;&gt;Node13</title>
<path fill="none" stroke="midnightblue" d="M57.816,-105.726C71.487,-84.2068 97.015,-48.8846 128,-29 136.954,-23.2535 147.67,-19.2126 157.877,-16.3837"/>
<polygon fill="midnightblue" stroke="midnightblue" points="54.8129,-103.927 52.5465,-114.277 60.7723,-107.6 54.8129,-103.927"/>
</g>
<!-- Node3 -->
<g id="node3" class="node"><title>Node3</title>
<g id="a_node3"><a xlink:href="../../d0/dee/cl__vehicles_8qc.html#ac54b03d2d5041516fe0b29fdbdd02423" target="_top" xlink:title="NET_HANDLE">
<polygon fill="none" stroke="black" points="301.5,-240.5 301.5,-259.5 384.5,-259.5 384.5,-240.5 301.5,-240.5"/>
<text text-anchor="middle" x="343" y="-247.5" font-family="Helvetica,sans-Serif" font-size="10.00">NET_HANDLE</text>
</a>
</g>
</g>
<!-- Node2&#45;&gt;Node3 -->
<g id="edge2" class="edge"><title>Node2&#45;&gt;Node3</title>
<path fill="none" stroke="midnightblue" d="M265.375,-250C277.638,-250 290.06,-250 301.23,-250"/>
<polygon fill="midnightblue" stroke="midnightblue" points="265.142,-246.5 255.142,-250 265.142,-253.5 265.142,-246.5"/>
</g>
<!-- Node6 -->
<g id="node6" class="node"><title>Node6</title>
<g id="a_node6"><a xlink:href="../../d8/dd7/shownames_8qh.html#a9ccf8f67a13521356d76071fce9be7c6" target="_top" xlink:title="Draw_ShowNames_All">
<polygon fill="none" stroke="black" points="544,-152.5 544,-171.5 662,-171.5 662,-152.5 544,-152.5"/>
<text text-anchor="middle" x="603" y="-159.5" font-family="Helvetica,sans-Serif" font-size="10.00">Draw_ShowNames_All</text>
</a>
</g>
</g>
<!-- Node5&#45;&gt;Node6 -->
<g id="edge5" class="edge"><title>Node5&#45;&gt;Node6</title>
<path fill="none" stroke="midnightblue" d="M256.702,-162C333.85,-162 467.307,-162 543.744,-162"/>
<polygon fill="midnightblue" stroke="midnightblue" points="256.661,-158.5 246.661,-162 256.661,-165.5 256.661,-158.5"/>
</g>
<!-- Node7 -->
<g id="node7" class="node"><title>Node7</title>
<g id="a_node7"><a xlink:href="../../d6/dd3/view_8qc.html#a7b9e2c12c6a461c93afb197bd1a93c8f" target="_top" xlink:title="CSQC_UpdateView">
<polygon fill="none" stroke="black" points="698,-133.5 698,-152.5 802,-152.5 802,-133.5 698,-133.5"/>
<text text-anchor="middle" x="750" y="-140.5" font-family="Helvetica,sans-Serif" font-size="10.00">CSQC_UpdateView</text>
</a>
</g>
</g>
<!-- Node6&#45;&gt;Node7 -->
<g id="edge6" class="edge"><title>Node6&#45;&gt;Node7</title>
<path fill="none" stroke="midnightblue" d="M672.21,-153.062C680.843,-151.931 689.558,-150.789 697.862,-149.701"/>
<polygon fill="midnightblue" stroke="midnightblue" points="671.602,-149.612 662.142,-154.381 672.512,-156.552 671.602,-149.612"/>
</g>
<!-- Node9 -->
<g id="node9" class="node"><title>Node9</title>
<g id="a_node9"><a xlink:href="../../d6/dd3/view_8qc.html#ada8e157cb058a1a9ae9141acda5a4d85" target="_top" xlink:title="TrueAimCheck">
<polygon fill="none" stroke="black" points="302,-114.5 302,-133.5 384,-133.5 384,-114.5 302,-114.5"/>
<text text-anchor="middle" x="343" y="-121.5" font-family="Helvetica,sans-Serif" font-size="10.00">TrueAimCheck</text>
</a>
</g>
</g>
<!-- Node8&#45;&gt;Node9 -->
<g id="edge8" class="edge"><title>Node8&#45;&gt;Node9</title>
<path fill="none" stroke="midnightblue" d="M250.831,-124C267.777,-124 286.183,-124 301.991,-124"/>
<polygon fill="midnightblue" stroke="midnightblue" points="250.505,-120.5 240.505,-124 250.505,-127.5 250.505,-120.5"/>
</g>
<!-- Node9&#45;&gt;Node10 -->
<g id="edge9" class="edge"><title>Node9&#45;&gt;Node10</title>
<path fill="none" stroke="midnightblue" d="M394.458,-124C403.618,-124 413.082,-124 421.968,-124"/>
<polygon fill="midnightblue" stroke="midnightblue" points="394.292,-120.5 384.292,-124 394.292,-127.5 394.292,-120.5"/>
</g>
<!-- Node11 -->
<g id="node11" class="node"><title>Node11</title>
<g id="a_node11"><a xlink:href="../../d6/dd3/view_8qc.html#a018a6576512f5f15b72f6a1a732d2af0" target="_top" xlink:title="HUD_Draw">
<polygon fill="none" stroke="black" points="569,-114.5 569,-133.5 637,-133.5 637,-114.5 569,-114.5"/>
<text text-anchor="middle" x="603" y="-121.5" font-family="Helvetica,sans-Serif" font-size="10.00">HUD_Draw</text>
</a>
</g>
</g>
<!-- Node10&#45;&gt;Node11 -->
<g id="edge10" class="edge"><title>Node10&#45;&gt;Node11</title>
<path fill="none" stroke="midnightblue" d="M518.59,-124C535.482,-124 553.713,-124 568.809,-124"/>
<polygon fill="midnightblue" stroke="midnightblue" points="518.286,-120.5 508.286,-124 518.286,-127.5 518.286,-120.5"/>
</g>
<!-- Node11&#45;&gt;Node7 -->
<g id="edge11" class="edge"><title>Node11&#45;&gt;Node7</title>
<path fill="none" stroke="midnightblue" d="M647.362,-129.682C663.279,-131.768 681.445,-134.148 697.973,-136.314"/>
<polygon fill="midnightblue" stroke="midnightblue" points="647.636,-126.188 637.266,-128.359 646.726,-133.129 647.636,-126.188"/>
</g>
<!-- Node14 -->
<g id="node14" class="node"><title>Node14</title>
<g id="a_node14"><a xlink:href="../../dd/d43/cl__turrets_8qc.html#a8a5aa44dc52f648c1cbbb4bcce5d119a" target="_top" xlink:title="turret_construct">
<polygon fill="none" stroke="black" points="300.5,-0.5 300.5,-19.5 385.5,-19.5 385.5,-0.5 300.5,-0.5"/>
<text text-anchor="middle" x="343" y="-7.5" font-family="Helvetica,sans-Serif" font-size="10.00">turret_construct</text>
</a>
</g>
</g>
<!-- Node13&#45;&gt;Node14 -->
<g id="edge15" class="edge"><title>Node13&#45;&gt;Node14</title>
<path fill="none" stroke="midnightblue" d="M244.391,-10C262.476,-10 282.939,-10 300.441,-10"/>
<polygon fill="midnightblue" stroke="midnightblue" points="244.341,-6.5001 234.341,-10 244.341,-13.5001 244.341,-6.5001"/>
</g>
<!-- Node15 -->
<g id="node15" class="node"><title>Node15</title>
<g id="a_node15"><a xlink:href="../../dd/d43/cl__turrets_8qc.html#a3ef76a50f8c6b47647e267278a9482a6" target="_top" xlink:title="NET_HANDLE">
<polygon fill="none" stroke="black" points="423.5,-0.5 423.5,-19.5 506.5,-19.5 506.5,-0.5 423.5,-0.5"/>
<text text-anchor="middle" x="465" y="-7.5" font-family="Helvetica,sans-Serif" font-size="10.00">NET_HANDLE</text>
</a>
</g>
</g>
<!-- Node14&#45;&gt;Node15 -->
<g id="edge16" class="edge"><title>Node14&#45;&gt;Node15</title>
<path fill="none" stroke="midnightblue" d="M395.833,-10C405.006,-10 414.438,-10 423.251,-10"/>
<polygon fill="midnightblue" stroke="midnightblue" points="395.633,-6.5001 385.633,-10 395.633,-13.5001 395.633,-6.5001"/>
</g>
</g>
</svg>
