<?xml version="1.0" encoding="UTF-8" standalone="no"?>
<!DOCTYPE svg PUBLIC "-//W3C//DTD SVG 1.1//EN"
 "http://www.w3.org/Graphics/SVG/1.1/DTD/svg11.dtd">
<!-- Generated by graphviz version 2.38.0 (20140413.2041)
 -->
<!-- Title: OtherTeam Pages: 1 -->
<svg width="387pt" height="28pt"
 viewBox="0.00 0.00 387.00 28.00" xmlns="http://www.w3.org/2000/svg" xmlns:xlink="http://www.w3.org/1999/xlink">
<g id="graph0" class="graph" transform="scale(1 1) rotate(0) translate(4 24)">
<title>OtherTeam</title>
<!-- Node1 -->
<g id="node1" class="node"><title>Node1</title>
<polygon fill="#bfbfbf" stroke="black" points="0,-0.5 0,-19.5 69,-19.5 69,-0.5 0,-0.5"/>
<text text-anchor="middle" x="34.5" y="-7.5" font-family="Helvetica,sans-Serif" font-size="10.00">OtherTeam</text>
</g>
<!-- Node2 -->
<g id="node2" class="node"><title>Node2</title>
<g id="a_node2"><a xlink:href="../../d2/d24/sv__nexball_8qc.html#a3dc8125a1d95f77b1d86fa996de9ca04" target="_top" xlink:title="GoalTouch">
<polygon fill="none" stroke="black" points="105,-0.5 105,-19.5 170,-19.5 170,-0.5 105,-0.5"/>
<text text-anchor="middle" x="137.5" y="-7.5" font-family="Helvetica,sans-Serif" font-size="10.00">GoalTouch</text>
</a>
</g>
</g>
<!-- Node1&#45;&gt;Node2 -->
<g id="edge1" class="edge"><title>Node1&#45;&gt;Node2</title>
<path fill="none" stroke="midnightblue" d="M79.3463,-10C87.8805,-10 96.6727,-10 104.725,-10"/>
<polygon fill="midnightblue" stroke="midnightblue" points="79.1316,-6.5001 69.1315,-10 79.1315,-13.5001 79.1316,-6.5001"/>
</g>
<!-- Node3 -->
<g id="node3" class="node"><title>Node3</title>
<g id="a_node3"><a xlink:href="../../d2/d24/sv__nexball_8qc.html#a4ff3897aecdbe7786823b22f2e63ec9c" target="_top" xlink:title="SpawnGoal">
<polygon fill="none" stroke="black" points="206,-0.5 206,-19.5 276,-19.5 276,-0.5 206,-0.5"/>
<text text-anchor="middle" x="241" y="-7.5" font-family="Helvetica,sans-Serif" font-size="10.00">SpawnGoal</text>
</a>
</g>
</g>
<!-- Node2&#45;&gt;Node3 -->
<g id="edge2" class="edge"><title>Node2&#45;&gt;Node3</title>
<path fill="none" stroke="midnightblue" d="M180.262,-10C188.826,-10 197.743,-10 205.995,-10"/>
<polygon fill="midnightblue" stroke="midnightblue" points="180.059,-6.5001 170.059,-10 180.059,-13.5001 180.059,-6.5001"/>
</g>
<!-- Node4 -->
<g id="node4" class="node"><title>Node4</title>
<g id="a_node4"><a xlink:href="../../d2/d24/sv__nexball_8qc.html#a37aa4b7506f9febb608a4cd455741643" target="_top" xlink:title="spawnfunc">
<polygon fill="none" stroke="black" points="312,-0.5 312,-19.5 379,-19.5 379,-0.5 312,-0.5"/>
<text text-anchor="middle" x="345.5" y="-7.5" font-family="Helvetica,sans-Serif" font-size="10.00">spawnfunc</text>
</a>
</g>
</g>
<!-- Node3&#45;&gt;Node4 -->
<g id="edge3" class="edge"><title>Node3&#45;&gt;Node4</title>
<path fill="none" stroke="midnightblue" d="M286.392,-10C294.964,-10 303.797,-10 311.908,-10"/>
<polygon fill="midnightblue" stroke="midnightblue" points="286.131,-6.5001 276.131,-10 286.131,-13.5001 286.131,-6.5001"/>
</g>
</g>
</svg>
