<?xml version="1.0" encoding="UTF-8" standalone="no"?>
<!DOCTYPE svg PUBLIC "-//W3C//DTD SVG 1.1//EN"
 "http://www.w3.org/Graphics/SVG/1.1/DTD/svg11.dtd">
<!-- Generated by graphviz version 2.36.0 (20140111.2315)
 -->
<!-- Title: Spectator Pages: 1 -->
<svg width="825pt" height="296pt"
 viewBox="0.00 0.00 825.00 296.00" xmlns="http://www.w3.org/2000/svg" xmlns:xlink="http://www.w3.org/1999/xlink">
<g id="graph0" class="graph" transform="scale(1 1) rotate(0) translate(4 292)">
<title>Spectator</title>
<!-- Node1 -->
<g id="node1" class="node"><title>Node1</title>
<polygon fill="#bfbfbf" stroke="black" points="292.5,-0.5 292.5,-19.5 351.5,-19.5 351.5,-0.5 292.5,-0.5"/>
<text text-anchor="middle" x="322" y="-7.5" font-family="Helvetica,sans-Serif" font-size="10.00">Spectator</text>
</g>
<!-- Node2 -->
<g id="node2" class="node"><title>Node2</title>
<g id="a_node2"><a xlink:href="../../d1/d37/classClient.html" target="_top" xlink:title="Client">
<polygon fill="none" stroke="black" points="301,-58.5 301,-77.5 343,-77.5 343,-58.5 301,-58.5"/>
<text text-anchor="middle" x="322" y="-65.5" font-family="Helvetica,sans-Serif" font-size="10.00">Client</text>
</a>
</g>
</g>
<!-- Node2&#45;&gt;Node1 -->
<g id="edge1" class="edge"><title>Node2&#45;&gt;Node1</title>
<path fill="none" stroke="midnightblue" d="M322,-47.953C322,-38.2875 322,-27.0312 322,-19.5052"/>
<polygon fill="midnightblue" stroke="midnightblue" points="318.5,-48.25 322,-58.25 325.5,-48.25 318.5,-48.25"/>
</g>
<!-- Node3 -->
<g id="node3" class="node"><title>Node3</title>
<g id="a_node3"><a xlink:href="../../d8/d4b/classObject.html" target="_top" xlink:title="Object">
<polygon fill="none" stroke="black" points="-0.5,-268.5 -0.5,-287.5 44.5,-287.5 44.5,-268.5 -0.5,-268.5"/>
<text text-anchor="middle" x="22" y="-275.5" font-family="Helvetica,sans-Serif" font-size="10.00">Object</text>
</a>
</g>
</g>
<!-- Node3&#45;&gt;Node2 -->
<g id="edge2" class="edge"><title>Node3&#45;&gt;Node2</title>
<path fill="none" stroke="midnightblue" d="M19.629,-258.104C16.1253,-220.825 14.3627,-137.806 61,-96 78.7236,-80.1124 241.469,-72.1703 300.63,-69.7895"/>
<polygon fill="midnightblue" stroke="midnightblue" points="16.1565,-258.548 20.7206,-268.109 23.1152,-257.788 16.1565,-258.548"/>
</g>
<!-- Node4 -->
<g id="node4" class="node"><title>Node4</title>
<polygon fill="none" stroke="#bfbfbf" points="62.5,-268.5 62.5,-287.5 103.5,-287.5 103.5,-268.5 62.5,-268.5"/>
<text text-anchor="middle" x="83" y="-275.5" font-family="Helvetica,sans-Serif" font-size="10.00">string</text>
</g>
<!-- Node4&#45;&gt;Node2 -->
<g id="edge3" class="edge"><title>Node4&#45;&gt;Node2</title>
<path fill="none" stroke="#9a32cd" stroke-dasharray="5,2" d="M77.1275,-258.613C66.7829,-222.245 50.1326,-140.779 92,-96 106.141,-80.8756 246.454,-72.609 300.724,-69.9567"/>
<polygon fill="#9a32cd" stroke="#9a32cd" points="73.8282,-259.796 80.0636,-268.361 80.5308,-257.777 73.8282,-259.796"/>
<text text-anchor="middle" x="141" y="-231" font-family="Helvetica,sans-Serif" font-size="10.00"> netaddress</text>
<text text-anchor="middle" x="141" y="-220" font-family="Helvetica,sans-Serif" font-size="10.00">cvar_g_xonoticversion</text>
<text text-anchor="middle" x="141" y="-209" font-family="Helvetica,sans-Serif" font-size="10.00">crypto_idfp</text>
<text text-anchor="middle" x="141" y="-198" font-family="Helvetica,sans-Serif" font-size="10.00">playermodel</text>
<text text-anchor="middle" x="141" y="-187" font-family="Helvetica,sans-Serif" font-size="10.00">crypto_signmethod</text>
<text text-anchor="middle" x="141" y="-176" font-family="Helvetica,sans-Serif" font-size="10.00">crypto_keyfp</text>
<text text-anchor="middle" x="141" y="-165" font-family="Helvetica,sans-Serif" font-size="10.00">netname</text>
<text text-anchor="middle" x="141" y="-154" font-family="Helvetica,sans-Serif" font-size="10.00">cvar_cl_physics</text>
<text text-anchor="start" x="92" y="-143" font-family="Helvetica,sans-Serif" font-size="10.00">cvar_cl_pokenade</text>
<text text-anchor="middle" x="141" y="-132" font-family="Helvetica,sans-Serif" font-size="10.00">_type</text>
<text text-anchor="middle" x="141" y="-121" font-family="Helvetica,sans-Serif" font-size="10.00">crypto_mykeyfp</text>
<text text-anchor="middle" x="141" y="-110" font-family="Helvetica,sans-Serif" font-size="10.00">...</text>
</g>
<!-- Node5 -->
<g id="node5" class="node"><title>Node5</title>
<polygon fill="none" stroke="#bfbfbf" points="183.5,-268.5 183.5,-287.5 224.5,-287.5 224.5,-268.5 183.5,-268.5"/>
<text text-anchor="middle" x="204" y="-275.5" font-family="Helvetica,sans-Serif" font-size="10.00">entity</text>
</g>
<!-- Node5&#45;&gt;Node2 -->
<g id="edge4" class="edge"><title>Node5&#45;&gt;Node2</title>
<path fill="none" stroke="#9a32cd" stroke-dasharray="5,2" d="M199.721,-258.008C192.77,-221.827 183.482,-142.485 223,-96 242.155,-73.4683 278.095,-68.8047 300.998,-68.3104"/>
<polygon fill="#9a32cd" stroke="#9a32cd" points="196.366,-259.066 201.83,-268.143 203.219,-257.639 196.366,-259.066"/>
<text text-anchor="middle" x="270.5" y="-198" font-family="Helvetica,sans-Serif" font-size="10.00"> scorekeeper</text>
<text text-anchor="middle" x="270.5" y="-187" font-family="Helvetica,sans-Serif" font-size="10.00">accuracy</text>
<text text-anchor="middle" x="270.5" y="-176" font-family="Helvetica,sans-Serif" font-size="10.00">teamkill_soundsource</text>
<text text-anchor="middle" x="270.5" y="-165" font-family="Helvetica,sans-Serif" font-size="10.00">active_minigame</text>
<text text-anchor="middle" x="270.5" y="-154" font-family="Helvetica,sans-Serif" font-size="10.00">clientdata</text>
<text text-anchor="middle" x="270.5" y="-143" font-family="Helvetica,sans-Serif" font-size="10.00">cursor_trace_ent</text>
</g>
<!-- Node6 -->
<g id="node6" class="node"><title>Node6</title>
<polygon fill="none" stroke="#bfbfbf" points="300,-268.5 300,-287.5 344,-287.5 344,-268.5 300,-268.5"/>
<text text-anchor="middle" x="322" y="-275.5" font-family="Helvetica,sans-Serif" font-size="10.00">vector</text>
</g>
<!-- Node6&#45;&gt;Node2 -->
<g id="edge5" class="edge"><title>Node6&#45;&gt;Node2</title>
<path fill="none" stroke="#9a32cd" stroke-dasharray="5,2" d="M322,-258.302C322,-214.934 322,-108.824 322,-77.7097"/>
<polygon fill="#9a32cd" stroke="#9a32cd" points="318.5,-258.327 322,-268.327 325.5,-258.327 318.5,-258.327"/>
<text text-anchor="middle" x="367.5" y="-203.5" font-family="Helvetica,sans-Serif" font-size="10.00"> movement</text>
<text text-anchor="middle" x="367.5" y="-192.5" font-family="Helvetica,sans-Serif" font-size="10.00">cursor_trace_start</text>
<text text-anchor="middle" x="367.5" y="-181.5" font-family="Helvetica,sans-Serif" font-size="10.00">v_angle</text>
<text text-anchor="middle" x="367.5" y="-170.5" font-family="Helvetica,sans-Serif" font-size="10.00">cursor_screen</text>
<text text-anchor="middle" x="367.5" y="-159.5" font-family="Helvetica,sans-Serif" font-size="10.00">v_angle_old</text>
<text text-anchor="middle" x="367.5" y="-148.5" font-family="Helvetica,sans-Serif" font-size="10.00">cursor_trace_endpos</text>
<text text-anchor="middle" x="367.5" y="-137.5" font-family="Helvetica,sans-Serif" font-size="10.00">movement_old</text>
</g>
<!-- Node7 -->
<g id="node7" class="node"><title>Node7</title>
<polygon fill="none" stroke="#bfbfbf" points="418.5,-268.5 418.5,-287.5 453.5,-287.5 453.5,-268.5 418.5,-268.5"/>
<text text-anchor="middle" x="436" y="-275.5" font-family="Helvetica,sans-Serif" font-size="10.00">float</text>
</g>
<!-- Node7&#45;&gt;Node2 -->
<g id="edge6" class="edge"><title>Node7&#45;&gt;Node2</title>
<path fill="none" stroke="#9a32cd" stroke-dasharray="5,2" d="M436.24,-258.383C436.386,-217.212 434.487,-120.168 414,-96 396.563,-75.4298 364.353,-70.0815 343.05,-68.9273"/>
<polygon fill="#9a32cd" stroke="#9a32cd" points="432.74,-258.379 436.159,-268.407 439.74,-258.436 432.74,-258.379"/>
<text text-anchor="middle" x="491.5" y="-231" font-family="Helvetica,sans-Serif" font-size="10.00"> cmd_floodtime</text>
<text text-anchor="middle" x="491.5" y="-220" font-family="Helvetica,sans-Serif" font-size="10.00">taunt_soundtime</text>
<text text-anchor="middle" x="491.5" y="-209" font-family="Helvetica,sans-Serif" font-size="10.00">spectatortime</text>
<text text-anchor="middle" x="491.5" y="-198" font-family="Helvetica,sans-Serif" font-size="10.00">ping</text>
<text text-anchor="middle" x="491.5" y="-187" font-family="Helvetica,sans-Serif" font-size="10.00">teamkill_complain</text>
<text text-anchor="middle" x="491.5" y="-176" font-family="Helvetica,sans-Serif" font-size="10.00">ping_packetloss</text>
<text text-anchor="middle" x="491.5" y="-165" font-family="Helvetica,sans-Serif" font-size="10.00">teamkill_soundtime</text>
<text text-anchor="middle" x="491.5" y="-154" font-family="Helvetica,sans-Serif" font-size="10.00">cvar_cl_dodging_timeout</text>
<text text-anchor="middle" x="491.5" y="-143" font-family="Helvetica,sans-Serif" font-size="10.00">cvar_cl_handicap</text>
<text text-anchor="start" x="437" y="-132" font-family="Helvetica,sans-Serif" font-size="10.00">hasweapon_complain</text>
<text text-anchor="middle" x="491.5" y="-121" font-family="Helvetica,sans-Serif" font-size="10.00">_spam</text>
<text text-anchor="middle" x="491.5" y="-110" font-family="Helvetica,sans-Serif" font-size="10.00">...</text>
</g>
<!-- Node8 -->
<g id="node8" class="node"><title>Node8</title>
<polygon fill="none" stroke="#bfbfbf" points="553.5,-268.5 553.5,-287.5 582.5,-287.5 582.5,-268.5 553.5,-268.5"/>
<text text-anchor="middle" x="568" y="-275.5" font-family="Helvetica,sans-Serif" font-size="10.00">int</text>
</g>
<!-- Node8&#45;&gt;Node2 -->
<g id="edge7" class="edge"><title>Node8&#45;&gt;Node2</title>
<path fill="none" stroke="#9a32cd" stroke-dasharray="5,2" d="M568.515,-258.13C569.227,-216.437 568.415,-118.392 546,-96 517.873,-67.9009 393.503,-67.3876 343.211,-68.3795"/>
<polygon fill="#9a32cd" stroke="#9a32cd" points="565.013,-258.21 568.291,-268.285 572.011,-258.365 565.013,-258.21"/>
<text text-anchor="middle" x="611.5" y="-231" font-family="Helvetica,sans-Serif" font-size="10.00"> cvar_cl_nade_type</text>
<text text-anchor="middle" x="611.5" y="-220" font-family="Helvetica,sans-Serif" font-size="10.00">parm_idlesince</text>
<text text-anchor="middle" x="611.5" y="-209" font-family="Helvetica,sans-Serif" font-size="10.00">button10</text>
<text text-anchor="middle" x="611.5" y="-198" font-family="Helvetica,sans-Serif" font-size="10.00">button4</text>
<text text-anchor="middle" x="611.5" y="-187" font-family="Helvetica,sans-Serif" font-size="10.00">button11</text>
<text text-anchor="middle" x="611.5" y="-176" font-family="Helvetica,sans-Serif" font-size="10.00">button5</text>
<text text-anchor="start" x="569" y="-165" font-family="Helvetica,sans-Serif" font-size="10.00">specialcommand</text>
<text text-anchor="middle" x="611.5" y="-154" font-family="Helvetica,sans-Serif" font-size="10.00">_pos</text>
<text text-anchor="middle" x="611.5" y="-143" font-family="Helvetica,sans-Serif" font-size="10.00">killcount</text>
<text text-anchor="middle" x="611.5" y="-132" font-family="Helvetica,sans-Serif" font-size="10.00">button12</text>
<text text-anchor="middle" x="611.5" y="-121" font-family="Helvetica,sans-Serif" font-size="10.00">button6</text>
<text text-anchor="middle" x="611.5" y="-110" font-family="Helvetica,sans-Serif" font-size="10.00">...</text>
</g>
<!-- Node9 -->
<g id="node9" class="node"><title>Node9</title>
<polygon fill="none" stroke="#bfbfbf" points="658.5,-268.5 658.5,-287.5 693.5,-287.5 693.5,-268.5 658.5,-268.5"/>
<text text-anchor="middle" x="676" y="-275.5" font-family="Helvetica,sans-Serif" font-size="10.00">bool</text>
</g>
<!-- Node9&#45;&gt;Node2 -->
<g id="edge8" class="edge"><title>Node9&#45;&gt;Node2</title>
<path fill="none" stroke="#9a32cd" stroke-dasharray="5,2" d="M680.447,-258.263C687.992,-221.269 698.472,-138.736 654,-96 631.588,-74.4627 412.649,-70.0572 343.095,-69.1985"/>
<polygon fill="#9a32cd" stroke="#9a32cd" points="676.994,-257.669 678.264,-268.188 683.831,-259.173 676.994,-257.669"/>
<text text-anchor="start" x="687" y="-242" font-family="Helvetica,sans-Serif" font-size="10.00"> cvar_cl_accuracy_data</text>
<text text-anchor="middle" x="752" y="-231" font-family="Helvetica,sans-Serif" font-size="10.00">_share</text>
<text text-anchor="middle" x="752" y="-220" font-family="Helvetica,sans-Serif" font-size="10.00">cvar_cl_jetpack_jump</text>
<text text-anchor="middle" x="752" y="-209" font-family="Helvetica,sans-Serif" font-size="10.00">cvar_cl_newusekeysupported</text>
<text text-anchor="start" x="687" y="-198" font-family="Helvetica,sans-Serif" font-size="10.00">cvar_cl_movement_track</text>
<text text-anchor="middle" x="752" y="-187" font-family="Helvetica,sans-Serif" font-size="10.00">_canjump</text>
<text text-anchor="middle" x="752" y="-176" font-family="Helvetica,sans-Serif" font-size="10.00">version_mismatch</text>
<text text-anchor="middle" x="752" y="-165" font-family="Helvetica,sans-Serif" font-size="10.00">muted</text>
<text text-anchor="start" x="687" y="-154" font-family="Helvetica,sans-Serif" font-size="10.00">cvar_cl_accuracy</text>
<text text-anchor="middle" x="752" y="-143" font-family="Helvetica,sans-Serif" font-size="10.00">_data_receive</text>
<text text-anchor="middle" x="752" y="-132" font-family="Helvetica,sans-Serif" font-size="10.00">wasplayer</text>
<text text-anchor="middle" x="752" y="-121" font-family="Helvetica,sans-Serif" font-size="10.00">cvar_cl_buffs_autoreplace</text>
<text text-anchor="middle" x="752" y="-110" font-family="Helvetica,sans-Serif" font-size="10.00">race_completed</text>
<text text-anchor="middle" x="752" y="-99" font-family="Helvetica,sans-Serif" font-size="10.00">...</text>
</g>
</g>
</svg>
