<?xml version="1.0" encoding="UTF-8" standalone="no"?>
<!DOCTYPE svg PUBLIC "-//W3C//DTD SVG 1.1//EN"
 "http://www.w3.org/Graphics/SVG/1.1/DTD/svg11.dtd">
<!-- Generated by graphviz version 2.36.0 (20140111.2315)
 -->
<!-- Title: explosion_calcpush_getmultiplier Pages: 1 -->
<svg width="1500pt" height="283pt"
 viewBox="0.00 0.00 1500.00 283.00" xmlns="http://www.w3.org/2000/svg" xmlns:xlink="http://www.w3.org/1999/xlink">
<g id="graph0" class="graph" transform="scale(1 1) rotate(0) translate(4 279)">
<title>explosion_calcpush_getmultiplier</title>
<!-- Node1 -->
<g id="node1" class="node"><title>Node1</title>
<polygon fill="#bfbfbf" stroke="black" points="0,-128 0,-158 102,-158 102,-128 0,-128"/>
<text text-anchor="start" x="8" y="-146" font-family="Helvetica,sans-Serif" font-size="10.00">explosion_calcpush</text>
<text text-anchor="middle" x="51" y="-135" font-family="Helvetica,sans-Serif" font-size="10.00">_getmultiplier</text>
</g>
<!-- Node2 -->
<g id="node2" class="node"><title>Node2</title>
<g id="a_node2"><a xlink:href="../../db/d81/calculations_8qh.html#a4a34221f79cad0b72ecf3df3f930bda9" target="_top" xlink:title="damage_explosion_calcpush">
<polygon fill="none" stroke="black" points="138,-133.5 138,-152.5 280,-152.5 280,-133.5 138,-133.5"/>
<text text-anchor="middle" x="209" y="-140.5" font-family="Helvetica,sans-Serif" font-size="10.00">damage_explosion_calcpush</text>
</a>
</g>
</g>
<!-- Node1&#45;&gt;Node2 -->
<g id="edge1" class="edge"><title>Node1&#45;&gt;Node2</title>
<path fill="none" stroke="midnightblue" d="M112.305,-143C120.715,-143 129.415,-143 137.986,-143"/>
<polygon fill="midnightblue" stroke="midnightblue" points="112.218,-139.5 102.218,-143 112.218,-146.5 112.218,-139.5"/>
</g>
<!-- Node3 -->
<g id="node3" class="node"><title>Node3</title>
<g id="a_node3"><a xlink:href="../../da/dbc/sv__globalforces_8qc.html#aed29bb1fa9cd3bfa774985c2e5fe838c" target="_top" xlink:title="MUTATOR_HOOKFUNCTION">
<polygon fill="none" stroke="black" points="316.5,-161.5 316.5,-180.5 469.5,-180.5 469.5,-161.5 316.5,-161.5"/>
<text text-anchor="middle" x="393" y="-168.5" font-family="Helvetica,sans-Serif" font-size="10.00">MUTATOR_HOOKFUNCTION</text>
</a>
</g>
</g>
<!-- Node2&#45;&gt;Node3 -->
<g id="edge2" class="edge"><title>Node2&#45;&gt;Node3</title>
<path fill="none" stroke="midnightblue" d="M282.139,-154.098C297.97,-156.534 314.599,-159.092 329.991,-161.46"/>
<polygon fill="midnightblue" stroke="midnightblue" points="282.287,-150.58 271.871,-152.519 281.222,-157.499 282.287,-150.58"/>
</g>
<!-- Node4 -->
<g id="node4" class="node"><title>Node4</title>
<g id="a_node4"><a xlink:href="../../dd/de4/g__damage_8qh.html#ad1d833615f56d11e3c3a9facc944aaf6" target="_top" xlink:title="Damage">
<polygon fill="none" stroke="black" points="366.5,-105.5 366.5,-124.5 419.5,-124.5 419.5,-105.5 366.5,-105.5"/>
<text text-anchor="middle" x="393" y="-112.5" font-family="Helvetica,sans-Serif" font-size="10.00">Damage</text>
</a>
</g>
</g>
<!-- Node2&#45;&gt;Node4 -->
<g id="edge3" class="edge"><title>Node2&#45;&gt;Node4</title>
<path fill="none" stroke="midnightblue" d="M281.816,-131.951C311.52,-127.382 344.081,-122.372 366.048,-118.993"/>
<polygon fill="midnightblue" stroke="midnightblue" points="281.222,-128.501 271.871,-133.481 282.287,-135.42 281.222,-128.501"/>
</g>
<!-- Node4&#45;&gt;Node4 -->
<g id="edge4" class="edge"><title>Node4&#45;&gt;Node4</title>
<path fill="none" stroke="midnightblue" d="M359.691,-131.716C358.658,-137.909 369.761,-143 393,-143 425.332,-143 434.173,-133.146 419.522,-124.177"/>
<polygon fill="midnightblue" stroke="midnightblue" points="362.388,-133.951 366.478,-124.177 357.186,-129.267 362.388,-133.951"/>
</g>
<!-- Node5 -->
<g id="node5" class="node"><title>Node5</title>
<g id="a_node5"><a xlink:href="../../dd/de4/g__damage_8qh.html#ac0534ca58f7521ce132a0694ffeb629a" target="_top" xlink:title="RadiusDamageForSource">
<polygon fill="none" stroke="black" points="506.5,-139.5 506.5,-158.5 635.5,-158.5 635.5,-139.5 506.5,-139.5"/>
<text text-anchor="middle" x="571" y="-146.5" font-family="Helvetica,sans-Serif" font-size="10.00">RadiusDamageForSource</text>
</a>
</g>
</g>
<!-- Node4&#45;&gt;Node5 -->
<g id="edge5" class="edge"><title>Node4&#45;&gt;Node5</title>
<path fill="none" stroke="midnightblue" d="M429.473,-121.853C455.687,-126.917 491.709,-133.876 520.719,-139.48"/>
<polygon fill="midnightblue" stroke="midnightblue" points="430.074,-118.404 419.592,-119.944 428.746,-125.277 430.074,-118.404"/>
</g>
<!-- Node22 -->
<g id="node22" class="node"><title>Node22</title>
<g id="a_node22"><a xlink:href="../../dd/de4/g__damage_8qh.html#abd4b4c82626ed46a05b72420db7257a1" target="_top" xlink:title="Fire_ApplyDamage">
<polygon fill="none" stroke="black" points="521,-71.5 521,-90.5 621,-90.5 621,-71.5 521,-71.5"/>
<text text-anchor="middle" x="571" y="-78.5" font-family="Helvetica,sans-Serif" font-size="10.00">Fire_ApplyDamage</text>
</a>
</g>
</g>
<!-- Node4&#45;&gt;Node22 -->
<g id="edge23" class="edge"><title>Node4&#45;&gt;Node22</title>
<path fill="none" stroke="midnightblue" d="M429.473,-108.147C455.687,-103.083 491.709,-96.1243 520.719,-90.5202"/>
<polygon fill="midnightblue" stroke="midnightblue" points="428.746,-104.723 419.592,-110.056 430.074,-111.596 428.746,-104.723"/>
</g>
<!-- Node6 -->
<g id="node6" class="node"><title>Node6</title>
<g id="a_node6"><a xlink:href="../../dd/de4/g__damage_8qh.html#a377b547a7053468290f13dffb6342b89" target="_top" xlink:title="RadiusDamage">
<polygon fill="none" stroke="black" points="675,-154.5 675,-173.5 759,-173.5 759,-154.5 675,-154.5"/>
<text text-anchor="middle" x="717" y="-161.5" font-family="Helvetica,sans-Serif" font-size="10.00">RadiusDamage</text>
</a>
</g>
</g>
<!-- Node5&#45;&gt;Node6 -->
<g id="edge6" class="edge"><title>Node5&#45;&gt;Node6</title>
<path fill="none" stroke="midnightblue" d="M645.569,-156.663C655.573,-157.706 665.537,-158.743 674.687,-159.697"/>
<polygon fill="midnightblue" stroke="midnightblue" points="645.889,-153.178 635.58,-155.623 645.163,-160.14 645.889,-153.178"/>
</g>
<!-- Node7 -->
<g id="node7" class="node"><title>Node7</title>
<g id="a_node7"><a xlink:href="../../d4/df8/sv__touchexplode_8qc.html#a8dcb3e7f9e67cb4cd164f35b3aca50eb" target="_top" xlink:title="PlayerTouchExplode">
<polygon fill="none" stroke="black" points="798.5,-236.5 798.5,-255.5 905.5,-255.5 905.5,-236.5 798.5,-236.5"/>
<text text-anchor="middle" x="852" y="-243.5" font-family="Helvetica,sans-Serif" font-size="10.00">PlayerTouchExplode</text>
</a>
</g>
</g>
<!-- Node6&#45;&gt;Node7 -->
<g id="edge7" class="edge"><title>Node6&#45;&gt;Node7</title>
<path fill="none" stroke="midnightblue" d="M742.054,-178.83C769.218,-195.578 812.615,-222.334 835.582,-236.494"/>
<polygon fill="midnightblue" stroke="midnightblue" points="743.866,-175.836 733.517,-173.567 740.192,-181.794 743.866,-175.836"/>
</g>
<!-- Node9 -->
<g id="node9" class="node"><title>Node9</title>
<g id="a_node9"><a xlink:href="../../da/d10/sv__vehicles_8qc.html#a72196919d56a565921774b27b5788785" target="_top" xlink:title="vehicles_projectile\l_explode">
<polygon fill="none" stroke="black" points="803.5,-168 803.5,-198 900.5,-198 900.5,-168 803.5,-168"/>
<text text-anchor="start" x="811.5" y="-186" font-family="Helvetica,sans-Serif" font-size="10.00">vehicles_projectile</text>
<text text-anchor="middle" x="852" y="-175" font-family="Helvetica,sans-Serif" font-size="10.00">_explode</text>
</a>
</g>
</g>
<!-- Node6&#45;&gt;Node9 -->
<g id="edge9" class="edge"><title>Node6&#45;&gt;Node9</title>
<path fill="none" stroke="midnightblue" d="M769.355,-171.336C780.471,-172.924 792.183,-174.598 803.157,-176.165"/>
<polygon fill="midnightblue" stroke="midnightblue" points="769.747,-167.857 759.353,-169.908 768.757,-174.787 769.747,-167.857"/>
</g>
<!-- Node13 -->
<g id="node13" class="node"><title>Node13</title>
<g id="a_node13"><a xlink:href="../../d3/dca/cheats_8qh.html#a73c94da2bf38acf3536154e899458024" target="_top" xlink:title="CheatImpulse">
<polygon fill="none" stroke="black" points="813.5,-129.5 813.5,-148.5 890.5,-148.5 890.5,-129.5 813.5,-129.5"/>
<text text-anchor="middle" x="852" y="-136.5" font-family="Helvetica,sans-Serif" font-size="10.00">CheatImpulse</text>
</a>
</g>
</g>
<!-- Node6&#45;&gt;Node13 -->
<g id="edge14" class="edge"><title>Node6&#45;&gt;Node13</title>
<path fill="none" stroke="midnightblue" d="M769.288,-154.359C783.933,-151.607 799.618,-148.658 813.29,-146.088"/>
<polygon fill="midnightblue" stroke="midnightblue" points="768.534,-150.94 759.353,-156.227 769.827,-157.819 768.534,-150.94"/>
</g>
<!-- Node8 -->
<g id="node8" class="node"><title>Node8</title>
<g id="a_node8"><a xlink:href="../../d4/df8/sv__touchexplode_8qc.html#a2cf518db3522b3c9f9a50a64d199656d" target="_top" xlink:title="MUTATOR_HOOKFUNCTION">
<polygon fill="none" stroke="black" points="942.5,-255.5 942.5,-274.5 1095.5,-274.5 1095.5,-255.5 942.5,-255.5"/>
<text text-anchor="middle" x="1019" y="-262.5" font-family="Helvetica,sans-Serif" font-size="10.00">MUTATOR_HOOKFUNCTION</text>
</a>
</g>
</g>
<!-- Node7&#45;&gt;Node8 -->
<g id="edge8" class="edge"><title>Node7&#45;&gt;Node8</title>
<path fill="none" stroke="midnightblue" d="M915.722,-253.223C924.437,-254.226 933.465,-255.266 942.385,-256.293"/>
<polygon fill="midnightblue" stroke="midnightblue" points="915.995,-249.731 905.661,-252.064 915.195,-256.685 915.995,-249.731"/>
</g>
<!-- Node10 -->
<g id="node10" class="node"><title>Node10</title>
<g id="a_node10"><a xlink:href="../../da/d10/sv__vehicles_8qc.html#a6e5c573964dc1f64a84660225655a8db" target="_top" xlink:title="vehicles_projectile">
<polygon fill="none" stroke="black" points="1142.5,-184.5 1142.5,-203.5 1239.5,-203.5 1239.5,-184.5 1142.5,-184.5"/>
<text text-anchor="middle" x="1191" y="-191.5" font-family="Helvetica,sans-Serif" font-size="10.00">vehicles_projectile</text>
</a>
</g>
</g>
<!-- Node9&#45;&gt;Node10 -->
<g id="edge10" class="edge"><title>Node9&#45;&gt;Node10</title>
<path fill="none" stroke="midnightblue" d="M909.342,-200.582C920.084,-203.251 931.311,-205.584 942,-207 1011.24,-216.172 1092.16,-208.53 1142.25,-201.681"/>
<polygon fill="midnightblue" stroke="midnightblue" points="910.202,-197.189 899.643,-198.053 908.436,-203.963 910.202,-197.189"/>
</g>
<!-- Node11 -->
<g id="node11" class="node"><title>Node11</title>
<g id="a_node11"><a xlink:href="../../da/d10/sv__vehicles_8qc.html#ab6d5900a2dde193aa46c678c04258373" target="_top" xlink:title="vehicles_projectile\l_explode_think">
<polygon fill="none" stroke="black" points="970.5,-168 970.5,-198 1067.5,-198 1067.5,-168 970.5,-168"/>
<text text-anchor="start" x="978.5" y="-186" font-family="Helvetica,sans-Serif" font-size="10.00">vehicles_projectile</text>
<text text-anchor="middle" x="1019" y="-175" font-family="Helvetica,sans-Serif" font-size="10.00">_explode_think</text>
</a>
</g>
</g>
<!-- Node9&#45;&gt;Node11 -->
<g id="edge11" class="edge"><title>Node9&#45;&gt;Node11</title>
<path fill="none" stroke="midnightblue" d="M910.98,-183C930.411,-183 951.838,-183 970.382,-183"/>
<polygon fill="midnightblue" stroke="midnightblue" points="910.725,-179.5 900.725,-183 910.725,-186.5 910.725,-179.5"/>
</g>
<!-- Node12 -->
<g id="node12" class="node"><title>Node12</title>
<g id="a_node12"><a xlink:href="../../da/d10/sv__vehicles_8qc.html#ad8fab4bff1fd3bd8871f5141c39085ad" target="_top" xlink:title="vehicles_projectile\l_explode_use">
<polygon fill="none" stroke="black" points="970.5,-119 970.5,-149 1067.5,-149 1067.5,-119 970.5,-119"/>
<text text-anchor="start" x="978.5" y="-137" font-family="Helvetica,sans-Serif" font-size="10.00">vehicles_projectile</text>
<text text-anchor="middle" x="1019" y="-126" font-family="Helvetica,sans-Serif" font-size="10.00">_explode_use</text>
</a>
</g>
</g>
<!-- Node9&#45;&gt;Node12 -->
<g id="edge12" class="edge"><title>Node9&#45;&gt;Node12</title>
<path fill="none" stroke="midnightblue" d="M910.443,-165.941C930.015,-160.129 951.667,-153.699 970.382,-148.141"/>
<polygon fill="midnightblue" stroke="midnightblue" points="909.315,-162.625 900.725,-168.827 911.307,-169.335 909.315,-162.625"/>
</g>
<!-- Node12&#45;&gt;Node10 -->
<g id="edge13" class="edge"><title>Node12&#45;&gt;Node10</title>
<path fill="none" stroke="midnightblue" d="M1077.41,-151.728C1083.7,-153.79 1090,-155.905 1096,-158 1120.09,-166.408 1147.28,-176.935 1166.19,-184.429"/>
<polygon fill="midnightblue" stroke="midnightblue" points="1078.17,-148.294 1067.58,-148.543 1076.01,-154.953 1078.17,-148.294"/>
</g>
<!-- Node14 -->
<g id="node14" class="node"><title>Node14</title>
<g id="a_node14"><a xlink:href="../../d3/dd1/server_2impulse_8qh.html#a592fd33e424a2e05854957b679c37e1b" target="_top" xlink:title="ImpulseCommands">
<polygon fill="none" stroke="black" points="968.5,-80.5 968.5,-99.5 1069.5,-99.5 1069.5,-80.5 968.5,-80.5"/>
<text text-anchor="middle" x="1019" y="-87.5" font-family="Helvetica,sans-Serif" font-size="10.00">ImpulseCommands</text>
</a>
</g>
</g>
<!-- Node13&#45;&gt;Node14 -->
<g id="edge15" class="edge"><title>Node13&#45;&gt;Node14</title>
<path fill="none" stroke="midnightblue" d="M889.252,-126.047C905.319,-120.496 924.506,-114.126 942,-109 953.355,-105.673 965.77,-102.413 977.212,-99.5581"/>
<polygon fill="midnightblue" stroke="midnightblue" points="887.986,-122.781 879.695,-129.378 890.29,-129.391 887.986,-122.781"/>
</g>
<!-- Node15 -->
<g id="node15" class="node"><title>Node15</title>
<g id="a_node15"><a xlink:href="../../d3/d73/gamemode__ctf_8qc.html#a8edcce745140a0191b957e969f8a2cfb" target="_top" xlink:title="ctf_FlagThink">
<polygon fill="none" stroke="black" points="1153,-114.5 1153,-133.5 1229,-133.5 1229,-114.5 1153,-114.5"/>
<text text-anchor="middle" x="1191" y="-121.5" font-family="Helvetica,sans-Serif" font-size="10.00">ctf_FlagThink</text>
</a>
</g>
</g>
<!-- Node14&#45;&gt;Node15 -->
<g id="edge16" class="edge"><title>Node14&#45;&gt;Node15</title>
<path fill="none" stroke="midnightblue" d="M1077.83,-101.566C1102.61,-106.523 1130.84,-112.168 1152.78,-116.556"/>
<polygon fill="midnightblue" stroke="midnightblue" points="1078.3,-98.0906 1067.81,-99.5614 1076.93,-104.955 1078.3,-98.0906"/>
</g>
<!-- Node18 -->
<g id="node18" class="node"><title>Node18</title>
<g id="a_node18"><a xlink:href="../../df/dd7/server_2client_8qc.html#a35da2ff46a7d16ee6dd935fc1e65a72c" target="_top" xlink:title="PlayerPostThink">
<polygon fill="none" stroke="black" points="1146.5,-76.5 1146.5,-95.5 1235.5,-95.5 1235.5,-76.5 1146.5,-76.5"/>
<text text-anchor="middle" x="1191" y="-83.5" font-family="Helvetica,sans-Serif" font-size="10.00">PlayerPostThink</text>
</a>
</g>
</g>
<!-- Node14&#45;&gt;Node18 -->
<g id="edge19" class="edge"><title>Node14&#45;&gt;Node18</title>
<path fill="none" stroke="midnightblue" d="M1079.83,-88.5921C1101.76,-88.0763 1126.14,-87.5026 1146.38,-87.0264"/>
<polygon fill="midnightblue" stroke="midnightblue" points="1079.54,-85.0979 1069.63,-88.8323 1079.71,-92.096 1079.54,-85.0979"/>
</g>
<!-- Node16 -->
<g id="node16" class="node"><title>Node16</title>
<g id="a_node16"><a xlink:href="../../d3/d73/gamemode__ctf_8qc.html#ae4da0b9f3b47d57388ba498d2baed651" target="_top" xlink:title="ctf_FlagSetup">
<polygon fill="none" stroke="black" points="1296.5,-114.5 1296.5,-133.5 1373.5,-133.5 1373.5,-114.5 1296.5,-114.5"/>
<text text-anchor="middle" x="1335" y="-121.5" font-family="Helvetica,sans-Serif" font-size="10.00">ctf_FlagSetup</text>
</a>
</g>
</g>
<!-- Node15&#45;&gt;Node16 -->
<g id="edge17" class="edge"><title>Node15&#45;&gt;Node16</title>
<path fill="none" stroke="midnightblue" d="M1239.34,-124C1257.92,-124 1278.94,-124 1296.45,-124"/>
<polygon fill="midnightblue" stroke="midnightblue" points="1239.31,-120.5 1229.31,-124 1239.31,-127.5 1239.31,-120.5"/>
</g>
<!-- Node17 -->
<g id="node17" class="node"><title>Node17</title>
<g id="a_node17"><a xlink:href="../../d3/d73/gamemode__ctf_8qc.html#a2a2129ef74628a0c8bef5d48a016e3e0" target="_top" xlink:title="spawnfunc">
<polygon fill="none" stroke="black" points="1424,-114.5 1424,-133.5 1488,-133.5 1488,-114.5 1424,-114.5"/>
<text text-anchor="middle" x="1456" y="-121.5" font-family="Helvetica,sans-Serif" font-size="10.00">spawnfunc</text>
</a>
</g>
</g>
<!-- Node16&#45;&gt;Node17 -->
<g id="edge18" class="edge"><title>Node16&#45;&gt;Node17</title>
<path fill="none" stroke="midnightblue" d="M1383.79,-124C1397.32,-124 1411.7,-124 1423.97,-124"/>
<polygon fill="midnightblue" stroke="midnightblue" points="1383.65,-120.5 1373.65,-124 1383.65,-127.5 1383.65,-120.5"/>
</g>
<!-- Node19 -->
<g id="node19" class="node"><title>Node19</title>
<g id="a_node19"><a xlink:href="../../d5/dd1/playerdemo_8qh.html#a3d6b65b19141e5215083447705deb88c" target="_top" xlink:title="playerdemo_read">
<polygon fill="none" stroke="black" points="1289.5,-76.5 1289.5,-95.5 1380.5,-95.5 1380.5,-76.5 1289.5,-76.5"/>
<text text-anchor="middle" x="1335" y="-83.5" font-family="Helvetica,sans-Serif" font-size="10.00">playerdemo_read</text>
</a>
</g>
</g>
<!-- Node18&#45;&gt;Node19 -->
<g id="edge20" class="edge"><title>Node18&#45;&gt;Node19</title>
<path fill="none" stroke="midnightblue" d="M1245.94,-86C1260.2,-86 1275.43,-86 1289.16,-86"/>
<polygon fill="midnightblue" stroke="midnightblue" points="1245.76,-82.5001 1235.76,-86 1245.76,-89.5001 1245.76,-82.5001"/>
</g>
<!-- Node21 -->
<g id="node21" class="node"><title>Node21</title>
<g id="a_node21"><a xlink:href="../../d3/d4f/sv__main_8qc.html#a554af7e2ac58045168dad9eca30bc8b1" target="_top" xlink:title="StartFrame">
<polygon fill="none" stroke="black" points="1423.5,-19.5 1423.5,-38.5 1488.5,-38.5 1488.5,-19.5 1423.5,-19.5"/>
<text text-anchor="middle" x="1456" y="-26.5" font-family="Helvetica,sans-Serif" font-size="10.00">StartFrame</text>
</a>
</g>
</g>
<!-- Node18&#45;&gt;Node21 -->
<g id="edge22" class="edge"><title>Node18&#45;&gt;Node21</title>
<path fill="none" stroke="midnightblue" d="M1245.7,-74.3627C1299.07,-62.7942 1379.16,-45.4373 1423.18,-35.8961"/>
<polygon fill="midnightblue" stroke="midnightblue" points="1244.76,-70.9848 1235.72,-76.5236 1246.24,-77.826 1244.76,-70.9848"/>
</g>
<!-- Node20 -->
<g id="node20" class="node"><title>Node20</title>
<g id="a_node20"><a xlink:href="../../db/d47/sv__physics_8qc.html#a50dd909e0a02aa3e18e75c75fffae1ec" target="_top" xlink:title="sys_phys_ai">
<polygon fill="none" stroke="black" points="1420.5,-76.5 1420.5,-95.5 1491.5,-95.5 1491.5,-76.5 1420.5,-76.5"/>
<text text-anchor="middle" x="1456" y="-83.5" font-family="Helvetica,sans-Serif" font-size="10.00">sys_phys_ai</text>
</a>
</g>
</g>
<!-- Node19&#45;&gt;Node20 -->
<g id="edge21" class="edge"><title>Node19&#45;&gt;Node20</title>
<path fill="none" stroke="midnightblue" d="M1390.91,-86C1400.85,-86 1410.97,-86 1420.14,-86"/>
<polygon fill="midnightblue" stroke="midnightblue" points="1390.65,-82.5001 1380.65,-86 1390.65,-89.5001 1390.65,-82.5001"/>
</g>
<!-- Node23 -->
<g id="node23" class="node"><title>Node23</title>
<g id="a_node23"><a xlink:href="../../df/dd7/server_2client_8qc.html#a4b793ead3ecba4010f267f2a20373890" target="_top" xlink:title="player_powerups">
<polygon fill="none" stroke="black" points="672,-94.5 672,-113.5 762,-113.5 762,-94.5 672,-94.5"/>
<text text-anchor="middle" x="717" y="-101.5" font-family="Helvetica,sans-Serif" font-size="10.00">player_powerups</text>
</a>
</g>
</g>
<!-- Node22&#45;&gt;Node23 -->
<g id="edge24" class="edge"><title>Node22&#45;&gt;Node23</title>
<path fill="none" stroke="midnightblue" d="M631.37,-90.4827C644.93,-92.6485 659.107,-94.9129 671.895,-96.9554"/>
<polygon fill="midnightblue" stroke="midnightblue" points="631.581,-86.9721 621.154,-88.851 630.477,-93.8845 631.581,-86.9721"/>
</g>
<!-- Node25 -->
<g id="node25" class="node"><title>Node25</title>
<g id="a_node25"><a xlink:href="../../dd/de4/g__damage_8qh.html#ac8e7365380b51642cac52fd3e70733aa" target="_top" xlink:title="fireburner_think">
<polygon fill="none" stroke="black" points="675.5,-56.5 675.5,-75.5 758.5,-75.5 758.5,-56.5 675.5,-56.5"/>
<text text-anchor="middle" x="717" y="-63.5" font-family="Helvetica,sans-Serif" font-size="10.00">fireburner_think</text>
</a>
</g>
</g>
<!-- Node22&#45;&gt;Node25 -->
<g id="edge26" class="edge"><title>Node22&#45;&gt;Node25</title>
<path fill="none" stroke="midnightblue" d="M631.236,-74.8296C646.015,-73.2901 661.536,-71.6733 675.199,-70.2501"/>
<polygon fill="midnightblue" stroke="midnightblue" points="630.737,-71.3625 621.154,-75.8798 631.463,-78.3248 630.737,-71.3625"/>
</g>
<!-- Node24 -->
<g id="node24" class="node"><title>Node24</title>
<g id="a_node24"><a xlink:href="../../df/dd7/server_2client_8qc.html#aa07f86bdc6b9c9a812296f5c5ff48f95" target="_top" xlink:title="PlayerThink">
<polygon fill="none" stroke="black" points="818,-91.5 818,-110.5 886,-110.5 886,-91.5 818,-91.5"/>
<text text-anchor="middle" x="852" y="-98.5" font-family="Helvetica,sans-Serif" font-size="10.00">PlayerThink</text>
</a>
</g>
</g>
<!-- Node23&#45;&gt;Node24 -->
<g id="edge25" class="edge"><title>Node23&#45;&gt;Node24</title>
<path fill="none" stroke="midnightblue" d="M772.709,-102.766C788.023,-102.421 804.198,-102.056 817.846,-101.748"/>
<polygon fill="midnightblue" stroke="midnightblue" points="772.206,-99.2763 762.287,-103.001 772.363,-106.275 772.206,-99.2763"/>
</g>
<!-- Node26 -->
<g id="node26" class="node"><title>Node26</title>
<g id="a_node26"><a xlink:href="../../dd/de4/g__damage_8qh.html#a6fa1a68d8d18ee269438276ad351c0e9" target="_top" xlink:title="Fire_AddDamage">
<polygon fill="none" stroke="black" points="806,-31.5 806,-50.5 898,-50.5 898,-31.5 806,-31.5"/>
<text text-anchor="middle" x="852" y="-38.5" font-family="Helvetica,sans-Serif" font-size="10.00">Fire_AddDamage</text>
</a>
</g>
</g>
<!-- Node25&#45;&gt;Node26 -->
<g id="edge27" class="edge"><title>Node25&#45;&gt;Node26</title>
<path fill="none" stroke="midnightblue" d="M768.711,-56.4678C780.976,-54.1624 794.001,-51.7141 805.984,-49.4617"/>
<polygon fill="midnightblue" stroke="midnightblue" points="767.808,-53.0761 758.627,-58.3633 769.102,-59.9557 767.808,-53.0761"/>
</g>
<!-- Node26&#45;&gt;Node22 -->
<g id="edge29" class="edge"><title>Node26&#45;&gt;Node22</title>
<path fill="none" stroke="midnightblue" d="M795.55,-38.6873C759.965,-38.226 712.925,-39.5266 672,-47 644.401,-52.04 614.072,-63.2002 594.134,-71.3648"/>
<polygon fill="midnightblue" stroke="midnightblue" points="795.675,-42.19 805.736,-38.8712 795.801,-35.1912 795.675,-42.19"/>
</g>
<!-- Node27 -->
<g id="node27" class="node"><title>Node27</title>
<g id="a_node27"><a xlink:href="../../d2/dac/sv__buffs_8qc.html#a51cc0da527fca3055d279eff30a78a25" target="_top" xlink:title="MUTATOR_HOOKFUNCTION">
<polygon fill="none" stroke="black" points="942.5,-38.5 942.5,-57.5 1095.5,-57.5 1095.5,-38.5 942.5,-38.5"/>
<text text-anchor="middle" x="1019" y="-45.5" font-family="Helvetica,sans-Serif" font-size="10.00">MUTATOR_HOOKFUNCTION</text>
</a>
</g>
</g>
<!-- Node26&#45;&gt;Node27 -->
<g id="edge28" class="edge"><title>Node26&#45;&gt;Node27</title>
<path fill="none" stroke="midnightblue" d="M908.277,-43.3451C919.162,-43.8069 930.76,-44.2989 942.186,-44.7836"/>
<polygon fill="midnightblue" stroke="midnightblue" points="908.226,-39.8399 898.087,-42.9128 907.93,-46.8336 908.226,-39.8399"/>
</g>
<!-- Node28 -->
<g id="node28" class="node"><title>Node28</title>
<g id="a_node28"><a xlink:href="../../d3/d4f/sv__main_8qc.html#ab040f482f9f20fab4279b2f2caf806c8" target="_top" xlink:title="CreatureFrame_hotliquids">
<polygon fill="none" stroke="black" points="955,-0.5 955,-19.5 1083,-19.5 1083,-0.5 955,-0.5"/>
<text text-anchor="middle" x="1019" y="-7.5" font-family="Helvetica,sans-Serif" font-size="10.00">CreatureFrame_hotliquids</text>
</a>
</g>
</g>
<!-- Node26&#45;&gt;Node28 -->
<g id="edge30" class="edge"><title>Node26&#45;&gt;Node28</title>
<path fill="none" stroke="midnightblue" d="M908.124,-30.6434C927.185,-27.0622 948.445,-23.0678 967.148,-19.554"/>
<polygon fill="midnightblue" stroke="midnightblue" points="907.269,-27.2427 898.087,-32.5291 908.561,-34.1224 907.269,-27.2427"/>
</g>
<!-- Node29 -->
<g id="node29" class="node"><title>Node29</title>
<g id="a_node29"><a xlink:href="../../d3/d4f/sv__main_8qc.html#a76853aeafe130f8c85d194596b3475c6" target="_top" xlink:title="CreatureFrame_Liquids">
<polygon fill="none" stroke="black" points="1132,-0.5 1132,-19.5 1250,-19.5 1250,-0.5 1132,-0.5"/>
<text text-anchor="middle" x="1191" y="-7.5" font-family="Helvetica,sans-Serif" font-size="10.00">CreatureFrame_Liquids</text>
</a>
</g>
</g>
<!-- Node28&#45;&gt;Node29 -->
<g id="edge31" class="edge"><title>Node28&#45;&gt;Node29</title>
<path fill="none" stroke="midnightblue" d="M1093.52,-10C1106.39,-10 1119.61,-10 1131.98,-10"/>
<polygon fill="midnightblue" stroke="midnightblue" points="1093.3,-6.5001 1083.3,-10 1093.3,-13.5001 1093.3,-6.5001"/>
</g>
<!-- Node30 -->
<g id="node30" class="node"><title>Node30</title>
<g id="a_node30"><a xlink:href="../../d3/d4f/sv__main_8qc.html#ad554e5161275ecc9b8656a805c57a010" target="_top" xlink:title="CreatureFrame_All">
<polygon fill="none" stroke="black" points="1286,-0.5 1286,-19.5 1384,-19.5 1384,-0.5 1286,-0.5"/>
<text text-anchor="middle" x="1335" y="-7.5" font-family="Helvetica,sans-Serif" font-size="10.00">CreatureFrame_All</text>
</a>
</g>
</g>
<!-- Node29&#45;&gt;Node30 -->
<g id="edge32" class="edge"><title>Node29&#45;&gt;Node30</title>
<path fill="none" stroke="midnightblue" d="M1260.2,-10C1268.8,-10 1277.46,-10 1285.66,-10"/>
<polygon fill="midnightblue" stroke="midnightblue" points="1260.17,-6.5001 1250.17,-10 1260.17,-13.5001 1260.17,-6.5001"/>
</g>
<!-- Node30&#45;&gt;Node21 -->
<g id="edge33" class="edge"><title>Node30&#45;&gt;Node21</title>
<path fill="none" stroke="midnightblue" d="M1394.03,-19.2655C1404.06,-20.8675 1414.15,-22.4784 1423.16,-23.9158"/>
<polygon fill="midnightblue" stroke="midnightblue" points="1394.49,-15.7938 1384.06,-17.6733 1393.38,-22.7062 1394.49,-15.7938"/>
</g>
</g>
</svg>
