<?xml version="1.0" encoding="UTF-8" standalone="no"?>
<!DOCTYPE svg PUBLIC "-//W3C//DTD SVG 1.1//EN"
 "http://www.w3.org/Graphics/SVG/1.1/DTD/svg11.dtd">
<!-- Generated by graphviz version 2.36.0 (20140111.2315)
 -->
<!-- Title: GameCommand_database Pages: 1 -->
<svg width="326pt" height="332pt"
 viewBox="0.00 0.00 326.00 332.00" xmlns="http://www.w3.org/2000/svg" xmlns:xlink="http://www.w3.org/1999/xlink">
<g id="graph0" class="graph" transform="scale(1 1) rotate(0) translate(4 328)">
<title>GameCommand_database</title>
<!-- Node1 -->
<g id="node1" class="node"><title>Node1</title>
<polygon fill="#bfbfbf" stroke="black" points="0.5,-114.5 0.5,-133.5 133.5,-133.5 133.5,-114.5 0.5,-114.5"/>
<text text-anchor="middle" x="67" y="-121.5" font-family="Helvetica,sans-Serif" font-size="10.00">GameCommand_database</text>
</g>
<!-- Node2 -->
<g id="node2" class="node"><title>Node2</title>
<g id="a_node2"><a xlink:href="../../d8/de2/menudefs_8qc.html#ae3e9d36eda7886f5fe58e5201291dd78" target="_top" xlink:title="argv">
<polygon fill="none" stroke="black" points="277.5,-304.5 277.5,-323.5 312.5,-323.5 312.5,-304.5 277.5,-304.5"/>
<text text-anchor="middle" x="295" y="-311.5" font-family="Helvetica,sans-Serif" font-size="10.00">argv</text>
</a>
</g>
</g>
<!-- Node1&#45;&gt;Node2 -->
<g id="edge1" class="edge"><title>Node1&#45;&gt;Node2</title>
<path fill="none" stroke="midnightblue" d="M75.1174,-133.716C90.6884,-154.539 129.626,-204.311 170,-238 201.252,-264.077 242.314,-287.449 268.439,-301.181"/>
<polygon fill="midnightblue" stroke="midnightblue" points="266.853,-304.302 277.343,-305.792 270.072,-298.086 266.853,-304.302"/>
</g>
<!-- Node3 -->
<g id="node3" class="node"><title>Node3</title>
<g id="a_node3"><a xlink:href="../../d5/df2/common_2util_8qh.html#a1b6c6d653a3afa9ff06bf09160575c74" target="_top" xlink:title="db_close">
<polygon fill="none" stroke="black" points="175,-38.5 175,-57.5 231,-57.5 231,-38.5 175,-38.5"/>
<text text-anchor="middle" x="203" y="-45.5" font-family="Helvetica,sans-Serif" font-size="10.00">db_close</text>
</a>
</g>
</g>
<!-- Node1&#45;&gt;Node3 -->
<g id="edge2" class="edge"><title>Node1&#45;&gt;Node3</title>
<path fill="none" stroke="midnightblue" d="M84.9712,-114.375C108.028,-101.297 149.45,-77.8043 176.322,-62.5634"/>
<polygon fill="midnightblue" stroke="midnightblue" points="178.195,-65.5252 185.167,-57.5473 174.742,-59.4363 178.195,-65.5252"/>
</g>
<!-- Node4 -->
<g id="node4" class="node"><title>Node4</title>
<g id="a_node4"><a xlink:href="../../d5/df2/common_2util_8qh.html#a101b7b86b1b5606bcc8f616de7a764d2" target="_top" xlink:title="db_dump">
<polygon fill="none" stroke="black" points="175,-152.5 175,-171.5 231,-171.5 231,-152.5 175,-152.5"/>
<text text-anchor="middle" x="203" y="-159.5" font-family="Helvetica,sans-Serif" font-size="10.00">db_dump</text>
</a>
</g>
</g>
<!-- Node1&#45;&gt;Node4 -->
<g id="edge3" class="edge"><title>Node1&#45;&gt;Node4</title>
<path fill="none" stroke="midnightblue" d="M101.814,-133.589C121.093,-139.056 145.276,-145.914 165.053,-151.522"/>
<polygon fill="midnightblue" stroke="midnightblue" points="164.368,-154.966 174.944,-154.327 166.278,-148.232 164.368,-154.966"/>
</g>
<!-- Node8 -->
<g id="node8" class="node"><title>Node8</title>
<g id="a_node8"><a xlink:href="../../dd/d87/effectinfo_8qc.html#a2ae584d3dad891f2ae754acead0f015a" target="_top" xlink:title="strcat">
<polygon fill="none" stroke="black" points="274.5,-76.5 274.5,-95.5 315.5,-95.5 315.5,-76.5 274.5,-76.5"/>
<text text-anchor="middle" x="295" y="-83.5" font-family="Helvetica,sans-Serif" font-size="10.00">strcat</text>
</a>
</g>
</g>
<!-- Node1&#45;&gt;Node8 -->
<g id="edge22" class="edge"><title>Node1&#45;&gt;Node8</title>
<path fill="none" stroke="midnightblue" d="M117.23,-114.499C133.958,-111.359 152.774,-107.923 170,-105 202.128,-99.5478 239.059,-93.9784 264.204,-90.2913"/>
<polygon fill="midnightblue" stroke="midnightblue" points="264.82,-93.7385 274.211,-88.8321 263.81,-86.8118 264.82,-93.7385"/>
</g>
<!-- Node9 -->
<g id="node9" class="node"><title>Node9</title>
<g id="a_node9"><a xlink:href="../../d5/df2/common_2util_8qh.html#ac9eefc4b70d421cb3e606c88900499d5" target="_top" xlink:title="db_load">
<polygon fill="none" stroke="black" points="178,-209.5 178,-228.5 228,-228.5 228,-209.5 178,-209.5"/>
<text text-anchor="middle" x="203" y="-216.5" font-family="Helvetica,sans-Serif" font-size="10.00">db_load</text>
</a>
</g>
</g>
<!-- Node1&#45;&gt;Node9 -->
<g id="edge9" class="edge"><title>Node1&#45;&gt;Node9</title>
<path fill="none" stroke="midnightblue" d="M81.8356,-133.809C105.126,-150.321 152.339,-183.792 180.147,-203.507"/>
<polygon fill="midnightblue" stroke="midnightblue" points="178.257,-206.458 188.439,-209.386 182.306,-200.747 178.257,-206.458"/>
</g>
<!-- Node12 -->
<g id="node12" class="node"><title>Node12</title>
<g id="a_node12"><a xlink:href="../../d5/df2/common_2util_8qh.html#ae56738e160950dacfe06255371d69391" target="_top" xlink:title="db_save">
<polygon fill="none" stroke="black" points="176.5,-114.5 176.5,-133.5 229.5,-133.5 229.5,-114.5 176.5,-114.5"/>
<text text-anchor="middle" x="203" y="-121.5" font-family="Helvetica,sans-Serif" font-size="10.00">db_save</text>
</a>
</g>
</g>
<!-- Node1&#45;&gt;Node12 -->
<g id="edge15" class="edge"><title>Node1&#45;&gt;Node12</title>
<path fill="none" stroke="midnightblue" d="M133.822,-124C144.905,-124 156.03,-124 165.985,-124"/>
<polygon fill="midnightblue" stroke="midnightblue" points="166.27,-127.5 176.27,-124 166.27,-120.5 166.27,-127.5"/>
</g>
<!-- Node14 -->
<g id="node14" class="node"><title>Node14</title>
<g id="a_node14"><a xlink:href="../../d7/d7c/common_2items_2item_8qh.html#ae302aa82565a3721ffb781350f49b7af" target="_top" xlink:title="LOG_INFO">
<polygon fill="none" stroke="black" points="170,-0.5 170,-19.5 236,-19.5 236,-0.5 170,-0.5"/>
<text text-anchor="middle" x="203" y="-7.5" font-family="Helvetica,sans-Serif" font-size="10.00">LOG_INFO</text>
</a>
</g>
</g>
<!-- Node1&#45;&gt;Node14 -->
<g id="edge21" class="edge"><title>Node1&#45;&gt;Node14</title>
<path fill="none" stroke="midnightblue" d="M76.9647,-114.379C94.0308,-96.3641 132.812,-56.8532 170,-29 171.807,-27.6468 173.716,-26.3091 175.667,-25.0078"/>
<polygon fill="midnightblue" stroke="midnightblue" points="177.678,-27.8784 184.291,-19.6013 173.959,-21.9474 177.678,-27.8784"/>
</g>
<!-- Node4&#45;&gt;Node2 -->
<g id="edge4" class="edge"><title>Node4&#45;&gt;Node2</title>
<path fill="none" stroke="midnightblue" d="M213.695,-171.613C220.63,-178.903 229.797,-189.44 236,-200 258.867,-238.933 246.121,-258 272,-295 272.531,-295.76 273.1,-296.509 273.698,-297.244"/>
<polygon fill="midnightblue" stroke="midnightblue" points="271.332,-299.829 280.842,-304.499 276.319,-294.918 271.332,-299.829"/>
</g>
<!-- Node5 -->
<g id="node5" class="node"><title>Node5</title>
<g id="a_node5"><a xlink:href="../../d8/de2/menudefs_8qc.html#a1a78b46b9db5c0d6fcee5be7697afa09" target="_top" xlink:title="fclose">
<polygon fill="none" stroke="black" points="273.5,-190.5 273.5,-209.5 316.5,-209.5 316.5,-190.5 273.5,-190.5"/>
<text text-anchor="middle" x="295" y="-197.5" font-family="Helvetica,sans-Serif" font-size="10.00">fclose</text>
</a>
</g>
</g>
<!-- Node4&#45;&gt;Node5 -->
<g id="edge5" class="edge"><title>Node4&#45;&gt;Node5</title>
<path fill="none" stroke="midnightblue" d="M226.711,-171.589C238.051,-176.377 251.919,-182.232 264.112,-187.381"/>
<polygon fill="midnightblue" stroke="midnightblue" points="262.877,-190.658 273.451,-191.324 265.6,-184.21 262.877,-190.658"/>
</g>
<!-- Node6 -->
<g id="node6" class="node"><title>Node6</title>
<g id="a_node6"><a xlink:href="../../d8/de2/menudefs_8qc.html#a5231f4ff2813f7de782b67d25a9e4cf9" target="_top" xlink:title="fopen">
<polygon fill="none" stroke="black" points="274.5,-152.5 274.5,-171.5 315.5,-171.5 315.5,-152.5 274.5,-152.5"/>
<text text-anchor="middle" x="295" y="-159.5" font-family="Helvetica,sans-Serif" font-size="10.00">fopen</text>
</a>
</g>
</g>
<!-- Node4&#45;&gt;Node6 -->
<g id="edge6" class="edge"><title>Node4&#45;&gt;Node6</title>
<path fill="none" stroke="midnightblue" d="M231.003,-162C241.488,-162 253.533,-162 264.265,-162"/>
<polygon fill="midnightblue" stroke="midnightblue" points="264.452,-165.5 274.452,-162 264.452,-158.5 264.452,-165.5"/>
</g>
<!-- Node7 -->
<g id="node7" class="node"><title>Node7</title>
<g id="a_node7"><a xlink:href="../../d8/de2/menudefs_8qc.html#a33a318a59e2648521862f24200a821df" target="_top" xlink:title="fputs">
<polygon fill="none" stroke="black" points="276,-114.5 276,-133.5 314,-133.5 314,-114.5 276,-114.5"/>
<text text-anchor="middle" x="295" y="-121.5" font-family="Helvetica,sans-Serif" font-size="10.00">fputs</text>
</a>
</g>
</g>
<!-- Node4&#45;&gt;Node7 -->
<g id="edge7" class="edge"><title>Node4&#45;&gt;Node7</title>
<path fill="none" stroke="midnightblue" d="M226.711,-152.411C238.828,-147.295 253.829,-140.961 266.591,-135.573"/>
<polygon fill="midnightblue" stroke="midnightblue" points="267.977,-138.787 275.828,-131.673 265.254,-132.338 267.977,-138.787"/>
</g>
<!-- Node4&#45;&gt;Node8 -->
<g id="edge8" class="edge"><title>Node4&#45;&gt;Node8</title>
<path fill="none" stroke="midnightblue" d="M222.183,-152.382C226.857,-149.598 231.76,-146.388 236,-143 254.176,-128.478 255.175,-121.068 272,-105 272.803,-104.233 273.63,-103.458 274.472,-102.681"/>
<polygon fill="midnightblue" stroke="midnightblue" points="277.013,-105.105 282.161,-95.8453 272.362,-99.8738 277.013,-105.105"/>
</g>
<!-- Node9&#45;&gt;Node2 -->
<g id="edge10" class="edge"><title>Node9&#45;&gt;Node2</title>
<path fill="none" stroke="midnightblue" d="M211.999,-228.718C224.343,-243.531 249.016,-272.416 272,-295 272.792,-295.778 273.61,-296.563 274.445,-297.347"/>
<polygon fill="midnightblue" stroke="midnightblue" points="272.322,-300.145 282.104,-304.213 276.994,-294.932 272.322,-300.145"/>
</g>
<!-- Node9&#45;&gt;Node5 -->
<g id="edge12" class="edge"><title>Node9&#45;&gt;Node5</title>
<path fill="none" stroke="midnightblue" d="M228.118,-213.908C238.962,-211.619 251.883,-208.891 263.399,-206.46"/>
<polygon fill="midnightblue" stroke="midnightblue" points="264.418,-209.822 273.479,-204.332 262.972,-202.973 264.418,-209.822"/>
</g>
<!-- Node9&#45;&gt;Node6 -->
<g id="edge14" class="edge"><title>Node9&#45;&gt;Node6</title>
<path fill="none" stroke="midnightblue" d="M219.267,-209.331C233.186,-200.516 253.973,-187.35 270.093,-177.141"/>
<polygon fill="midnightblue" stroke="midnightblue" points="272.383,-179.834 278.958,-171.526 268.637,-173.92 272.383,-179.834"/>
</g>
<!-- Node10 -->
<g id="node10" class="node"><title>Node10</title>
<g id="a_node10"><a xlink:href="../../d4/d54/map_8qh.html#ae5419c646d89ed2845be766723b0cb6f" target="_top" xlink:title="db_put">
<polygon fill="none" stroke="black" points="272,-228.5 272,-247.5 318,-247.5 318,-228.5 272,-228.5"/>
<text text-anchor="middle" x="295" y="-235.5" font-family="Helvetica,sans-Serif" font-size="10.00">db_put</text>
</a>
</g>
</g>
<!-- Node9&#45;&gt;Node10 -->
<g id="edge11" class="edge"><title>Node9&#45;&gt;Node10</title>
<path fill="none" stroke="midnightblue" d="M228.118,-224.092C238.563,-226.297 250.936,-228.909 262.123,-231.27"/>
<polygon fill="midnightblue" stroke="midnightblue" points="261.467,-234.709 271.975,-233.35 262.913,-227.86 261.467,-234.709"/>
</g>
<!-- Node11 -->
<g id="node11" class="node"><title>Node11</title>
<g id="a_node11"><a xlink:href="../../d8/de2/menudefs_8qc.html#a0e7ecefd4e3af6c242077b24445e5f78" target="_top" xlink:title="fgets">
<polygon fill="none" stroke="black" points="276,-266.5 276,-285.5 314,-285.5 314,-266.5 276,-266.5"/>
<text text-anchor="middle" x="295" y="-273.5" font-family="Helvetica,sans-Serif" font-size="10.00">fgets</text>
</a>
</g>
</g>
<!-- Node9&#45;&gt;Node11 -->
<g id="edge13" class="edge"><title>Node9&#45;&gt;Node11</title>
<path fill="none" stroke="midnightblue" d="M219.267,-228.669C233.186,-237.484 253.973,-250.65 270.093,-260.859"/>
<polygon fill="midnightblue" stroke="midnightblue" points="268.637,-264.08 278.958,-266.474 272.383,-258.166 268.637,-264.08"/>
</g>
<!-- Node12&#45;&gt;Node5 -->
<g id="edge16" class="edge"><title>Node12&#45;&gt;Node5</title>
<path fill="none" stroke="midnightblue" d="M222.183,-133.618C226.857,-136.402 231.76,-139.612 236,-143 254.176,-157.522 255.175,-164.932 272,-181 272.803,-181.767 273.63,-182.542 274.472,-183.319"/>
<polygon fill="midnightblue" stroke="midnightblue" points="272.362,-186.126 282.161,-190.155 277.013,-180.895 272.362,-186.126"/>
</g>
<!-- Node12&#45;&gt;Node6 -->
<g id="edge17" class="edge"><title>Node12&#45;&gt;Node6</title>
<path fill="none" stroke="midnightblue" d="M226.711,-133.589C238.298,-138.481 252.523,-144.488 264.905,-149.715"/>
<polygon fill="midnightblue" stroke="midnightblue" points="263.779,-153.039 274.353,-153.705 266.502,-146.591 263.779,-153.039"/>
</g>
<!-- Node12&#45;&gt;Node7 -->
<g id="edge18" class="edge"><title>Node12&#45;&gt;Node7</title>
<path fill="none" stroke="midnightblue" d="M229.55,-124C240.85,-124 254.176,-124 265.769,-124"/>
<polygon fill="midnightblue" stroke="midnightblue" points="265.821,-127.5 275.821,-124 265.821,-120.5 265.821,-127.5"/>
</g>
<!-- Node12&#45;&gt;Node8 -->
<g id="edge20" class="edge"><title>Node12&#45;&gt;Node8</title>
<path fill="none" stroke="midnightblue" d="M226.711,-114.411C238.298,-109.519 252.523,-103.512 264.905,-98.2848"/>
<polygon fill="midnightblue" stroke="midnightblue" points="266.502,-101.409 274.353,-94.2952 263.779,-94.9606 266.502,-101.409"/>
</g>
<!-- Node13 -->
<g id="node13" class="node"><title>Node13</title>
<g id="a_node13"><a xlink:href="../../d8/de2/menudefs_8qc.html#abbb0d86741e0056b6c04f7280c185d76" target="_top" xlink:title="ftos">
<polygon fill="none" stroke="black" points="278.5,-38.5 278.5,-57.5 311.5,-57.5 311.5,-38.5 278.5,-38.5"/>
<text text-anchor="middle" x="295" y="-45.5" font-family="Helvetica,sans-Serif" font-size="10.00">ftos</text>
</a>
</g>
</g>
<!-- Node12&#45;&gt;Node13 -->
<g id="edge19" class="edge"><title>Node12&#45;&gt;Node13</title>
<path fill="none" stroke="midnightblue" d="M215.399,-114.375C230.276,-101.811 256.538,-79.6349 274.582,-64.3975"/>
<polygon fill="midnightblue" stroke="midnightblue" points="277.312,-66.6733 282.694,-57.5473 272.796,-61.325 277.312,-66.6733"/>
</g>
</g>
</svg>
