<?xml version="1.0" encoding="UTF-8" standalone="no"?>
<!DOCTYPE svg PUBLIC "-//W3C//DTD SVG 1.1//EN"
 "http://www.w3.org/Graphics/SVG/1.1/DTD/svg11.dtd">
<!-- Generated by graphviz version 2.38.0 (20140413.2041)
 -->
<!-- Title: GameCommand_gettaginfo Pages: 1 -->
<svg width="255pt" height="370pt"
 viewBox="0.00 0.00 255.00 370.00" xmlns="http://www.w3.org/2000/svg" xmlns:xlink="http://www.w3.org/1999/xlink">
<g id="graph0" class="graph" transform="scale(1 1) rotate(0) translate(4 366)">
<title>GameCommand_gettaginfo</title>
<!-- Node1 -->
<g id="node1" class="node"><title>Node1</title>
<polygon fill="#bfbfbf" stroke="black" points="0,-171.5 0,-190.5 150,-190.5 150,-171.5 0,-171.5"/>
<text text-anchor="middle" x="75" y="-178.5" font-family="Helvetica,sans-Serif" font-size="10.00">GameCommand_gettaginfo</text>
</g>
<!-- Node2 -->
<g id="node2" class="node"><title>Node2</title>
<g id="a_node2"><a xlink:href="../../d8/de2/menudefs_8qc.html#ae3e9d36eda7886f5fe58e5201291dd78" target="_top" xlink:title="argv">
<polygon fill="none" stroke="black" points="197.5,-342.5 197.5,-361.5 235.5,-361.5 235.5,-342.5 197.5,-342.5"/>
<text text-anchor="middle" x="216.5" y="-349.5" font-family="Helvetica,sans-Serif" font-size="10.00">argv</text>
</a>
</g>
</g>
<!-- Node1&#45;&gt;Node2 -->
<g id="edge1" class="edge"><title>Node1&#45;&gt;Node2</title>
<path fill="none" stroke="midnightblue" d="M81.374,-190.849C95.742,-216.551 137.282,-286.856 186,-333 187.247,-334.181 188.576,-335.332 189.956,-336.446"/>
<polygon fill="midnightblue" stroke="midnightblue" points="188.008,-339.356 198.168,-342.36 192.099,-333.676 188.008,-339.356"/>
</g>
<!-- Node3 -->
<g id="node3" class="node"><title>Node3</title>
<g id="a_node3"><a xlink:href="../../d4/d0c/csprogsdefs_8qc.html#acbb54a239d76062465dccbc6a6c6e464" target="_top" xlink:title="entity">
<polygon fill="none" stroke="black" points="194.5,-304.5 194.5,-323.5 238.5,-323.5 238.5,-304.5 194.5,-304.5"/>
<text text-anchor="middle" x="216.5" y="-311.5" font-family="Helvetica,sans-Serif" font-size="10.00">entity</text>
</a>
</g>
</g>
<!-- Node1&#45;&gt;Node3 -->
<g id="edge2" class="edge"><title>Node1&#45;&gt;Node3</title>
<path fill="none" stroke="midnightblue" d="M83.901,-190.58C101.131,-211.141 143.922,-260.432 186,-295 187.518,-296.247 189.122,-297.482 190.766,-298.687"/>
<polygon fill="midnightblue" stroke="midnightblue" points="188.876,-301.635 199.106,-304.392 192.828,-295.857 188.876,-301.635"/>
</g>
<!-- Node4 -->
<g id="node4" class="node"><title>Node4</title>
<g id="a_node4"><a xlink:href="../../d8/de2/menudefs_8qc.html#abbb0d86741e0056b6c04f7280c185d76" target="_top" xlink:title="ftos">
<polygon fill="none" stroke="black" points="199,-266.5 199,-285.5 234,-285.5 234,-266.5 199,-266.5"/>
<text text-anchor="middle" x="216.5" y="-273.5" font-family="Helvetica,sans-Serif" font-size="10.00">ftos</text>
</a>
</g>
</g>
<!-- Node1&#45;&gt;Node4 -->
<g id="edge3" class="edge"><title>Node1&#45;&gt;Node4</title>
<path fill="none" stroke="midnightblue" d="M89.4512,-190.502C110.086,-205.032 150.859,-233.552 186,-257 187.894,-258.264 189.864,-259.563 191.847,-260.862"/>
<polygon fill="midnightblue" stroke="midnightblue" points="190.137,-263.924 200.431,-266.428 193.945,-258.051 190.137,-263.924"/>
</g>
<!-- Node5 -->
<g id="node5" class="node"><title>Node5</title>
<g id="a_node5"><a xlink:href="../../d8/de2/menudefs_8qc.html#a33e75150e29fa01dc3c2fbe55610e1fd" target="_top" xlink:title="nextent">
<polygon fill="none" stroke="black" points="190,-228.5 190,-247.5 243,-247.5 243,-228.5 190,-228.5"/>
<text text-anchor="middle" x="216.5" y="-235.5" font-family="Helvetica,sans-Serif" font-size="10.00">nextent</text>
</a>
</g>
</g>
<!-- Node1&#45;&gt;Node5 -->
<g id="edge4" class="edge"><title>Node1&#45;&gt;Node5</title>
<path fill="none" stroke="midnightblue" d="M99.3492,-190.541C122.183,-199.87 157.159,-214.162 182.765,-224.624"/>
<polygon fill="midnightblue" stroke="midnightblue" points="181.494,-227.886 192.075,-228.428 184.141,-221.406 181.494,-227.886"/>
</g>
<!-- Node6 -->
<g id="node6" class="node"><title>Node6</title>
<g id="a_node6"><a xlink:href="../../d8/de2/menudefs_8qc.html#a60338c2153150633178af678cf3ca57c" target="_top" xlink:title="spawn">
<polygon fill="none" stroke="black" points="193,-190.5 193,-209.5 240,-209.5 240,-190.5 193,-190.5"/>
<text text-anchor="middle" x="216.5" y="-197.5" font-family="Helvetica,sans-Serif" font-size="10.00">spawn</text>
</a>
</g>
</g>
<!-- Node1&#45;&gt;Node6 -->
<g id="edge5" class="edge"><title>Node1&#45;&gt;Node6</title>
<path fill="none" stroke="midnightblue" d="M146.159,-190.556C159.013,-192.306 171.848,-194.055 182.919,-195.562"/>
<polygon fill="midnightblue" stroke="midnightblue" points="182.555,-199.045 192.936,-196.927 183.499,-192.109 182.555,-199.045"/>
</g>
<!-- Node7 -->
<g id="node7" class="node"><title>Node7</title>
<g id="a_node7"><a xlink:href="../../d8/de2/menudefs_8qc.html#a2f6d3020689c0e872cfb455d0b2cbd4a" target="_top" xlink:title="stof">
<polygon fill="none" stroke="black" points="199,-152.5 199,-171.5 234,-171.5 234,-152.5 199,-152.5"/>
<text text-anchor="middle" x="216.5" y="-159.5" font-family="Helvetica,sans-Serif" font-size="10.00">stof</text>
</a>
</g>
</g>
<!-- Node1&#45;&gt;Node7 -->
<g id="edge6" class="edge"><title>Node1&#45;&gt;Node7</title>
<path fill="none" stroke="midnightblue" d="M146.159,-171.444C161.377,-169.372 176.569,-167.302 188.837,-165.631"/>
<polygon fill="midnightblue" stroke="midnightblue" points="189.357,-169.093 198.793,-164.275 188.412,-162.157 189.357,-169.093"/>
</g>
<!-- Node8 -->
<g id="node8" class="node"><title>Node8</title>
<g id="a_node8"><a xlink:href="../../d8/de2/menudefs_8qc.html#ad76dc2b2895cd23f21e008f12a686158" target="_top" xlink:title="strcat">
<polygon fill="none" stroke="black" points="194.5,-114.5 194.5,-133.5 238.5,-133.5 238.5,-114.5 194.5,-114.5"/>
<text text-anchor="middle" x="216.5" y="-121.5" font-family="Helvetica,sans-Serif" font-size="10.00">strcat</text>
</a>
</g>
</g>
<!-- Node1&#45;&gt;Node8 -->
<g id="edge7" class="edge"><title>Node1&#45;&gt;Node8</title>
<path fill="none" stroke="midnightblue" d="M99.3492,-171.459C122.871,-161.849 159.277,-146.973 185.052,-136.441"/>
<polygon fill="midnightblue" stroke="midnightblue" points="186.428,-139.66 194.362,-132.637 183.781,-133.18 186.428,-139.66"/>
</g>
<!-- Node9 -->
<g id="node9" class="node"><title>Node9</title>
<g id="a_node9"><a xlink:href="../../d8/de2/menudefs_8qc.html#a40f6c65c8bbcfa51df783f2809a2502b" target="_top" xlink:title="substring">
<polygon fill="none" stroke="black" points="186,-76.5 186,-95.5 247,-95.5 247,-76.5 186,-76.5"/>
<text text-anchor="middle" x="216.5" y="-83.5" font-family="Helvetica,sans-Serif" font-size="10.00">substring</text>
</a>
</g>
</g>
<!-- Node1&#45;&gt;Node9 -->
<g id="edge8" class="edge"><title>Node1&#45;&gt;Node9</title>
<path fill="none" stroke="midnightblue" d="M89.4512,-171.498C110.086,-156.968 150.859,-128.448 186,-105 187.894,-103.736 189.864,-102.437 191.847,-101.138"/>
<polygon fill="midnightblue" stroke="midnightblue" points="193.945,-103.949 200.431,-95.5723 190.137,-98.0759 193.945,-103.949"/>
</g>
<!-- Node10 -->
<g id="node10" class="node"><title>Node10</title>
<g id="a_node10"><a xlink:href="../../da/dde/csprogsdefs_8qh.html#a2626679e4144af8478202c6c28f90cd9" target="_top" xlink:title="vector">
<polygon fill="none" stroke="black" points="193,-38.5 193,-57.5 240,-57.5 240,-38.5 193,-38.5"/>
<text text-anchor="middle" x="216.5" y="-45.5" font-family="Helvetica,sans-Serif" font-size="10.00">vector</text>
</a>
</g>
</g>
<!-- Node1&#45;&gt;Node10 -->
<g id="edge9" class="edge"><title>Node1&#45;&gt;Node10</title>
<path fill="none" stroke="midnightblue" d="M83.901,-171.42C101.131,-150.859 143.922,-101.568 186,-67 187.518,-65.7529 189.122,-64.5185 190.766,-63.3133"/>
<polygon fill="midnightblue" stroke="midnightblue" points="192.828,-66.1429 199.106,-57.6084 188.876,-60.3652 192.828,-66.1429"/>
</g>
<!-- Node11 -->
<g id="node11" class="node"><title>Node11</title>
<g id="a_node11"><a xlink:href="../../d8/de2/menudefs_8qc.html#ab0df318f2dece7f798ff4061cd67f9d2" target="_top" xlink:title="vtos">
<polygon fill="none" stroke="black" points="198,-0.5 198,-19.5 235,-19.5 235,-0.5 198,-0.5"/>
<text text-anchor="middle" x="216.5" y="-7.5" font-family="Helvetica,sans-Serif" font-size="10.00">vtos</text>
</a>
</g>
</g>
<!-- Node1&#45;&gt;Node11 -->
<g id="edge10" class="edge"><title>Node1&#45;&gt;Node11</title>
<path fill="none" stroke="midnightblue" d="M81.374,-171.151C95.742,-145.449 137.282,-75.1445 186,-29 187.247,-27.8192 188.576,-26.668 189.956,-25.5544"/>
<polygon fill="midnightblue" stroke="midnightblue" points="192.099,-28.3244 198.168,-19.6398 188.008,-22.6443 192.099,-28.3244"/>
</g>
</g>
</svg>
