<?xml version="1.0" encoding="UTF-8" standalone="no"?>
<!DOCTYPE svg PUBLIC "-//W3C//DTD SVG 1.1//EN"
 "http://www.w3.org/Graphics/SVG/1.1/DTD/svg11.dtd">
<!-- Generated by graphviz version 2.26.3 (20100126.1600)
 -->
<!-- Title: G Pages: 1 -->
<svg width="466pt" height="30pt"
 viewBox="0.00 0.00 466.00 30.00" xmlns="http://www.w3.org/2000/svg" xmlns:xlink="http://www.w3.org/1999/xlink">
<g id="graph1" class="graph" transform="scale(1 1) rotate(0) translate(4 26)">
<title>G</title>
<!-- Node1 -->
<g id="node1" class="node"><title>Node1</title>
<polygon fill="#bfbfbf" stroke="black" points="0,-0.5 0,-21.5 110,-21.5 110,-0.5 0,-0.5"/>
<text text-anchor="middle" x="55" y="-8.5" font-family="Helvetica,sans-Serif" font-size="10.00">make_mapinfo_Think</text>
</g>
<!-- Node2 -->
<g id="node3" class="node"><title>Node2</title>
<a xlink:href="../../d3/df2/sv__cmd_8qc.html#ae4a3c514bbb6ac8031f6318e7028f429" target="_top" xlink:title="GameCommand_make_mapinfo">
<polygon fill="none" stroke="black" points="146.5,-0.5 146.5,-21.5 303.5,-21.5 303.5,-0.5 146.5,-0.5"/>
<text text-anchor="middle" x="225" y="-8.5" font-family="Helvetica,sans-Serif" font-size="10.00">GameCommand_make_mapinfo</text>
</a>
</g>
<!-- Node1&#45;&gt;Node2 -->
<g id="edge2" class="edge"><title>Node1&#45;&gt;Node2</title>
<path fill="none" stroke="midnightblue" d="M120.385,-11C128.872,-11 137.634,-11 146.309,-11"/>
<polygon fill="midnightblue" stroke="midnightblue" points="120.194,-7.5001 110.194,-11 120.194,-14.5001 120.194,-7.5001"/>
</g>
<!-- Node3 -->
<g id="node5" class="node"><title>Node3</title>
<a xlink:href="../../d3/df2/sv__cmd_8qc.html#ab8fdd59f80b6f2eb4b52c3f2e12b81e1" target="_top" xlink:title="SERVER_COMMAND">
<polygon fill="none" stroke="black" points="340.5,-0.5 340.5,-21.5 457.5,-21.5 457.5,-0.5 340.5,-0.5"/>
<text text-anchor="middle" x="399" y="-8.5" font-family="Helvetica,sans-Serif" font-size="10.00">SERVER_COMMAND</text>
</a>
</g>
<!-- Node2&#45;&gt;Node3 -->
<g id="edge4" class="edge"><title>Node2&#45;&gt;Node3</title>
<path fill="none" stroke="midnightblue" d="M313.752,-11C322.753,-11 331.728,-11 340.293,-11"/>
<polygon fill="midnightblue" stroke="midnightblue" points="313.601,-7.5001 303.601,-11 313.6,-14.5001 313.601,-7.5001"/>
</g>
</g>
</svg>
