<?xml version="1.0" encoding="UTF-8" standalone="no"?>
<!DOCTYPE svg PUBLIC "-//W3C//DTD SVG 1.1//EN"
 "http://www.w3.org/Graphics/SVG/1.1/DTD/svg11.dtd">
<!-- Generated by graphviz version 2.36.0 (20140111.2315)
 -->
<!-- Title: GameCommand_trace Pages: 1 -->
<!--zoomable 588 -->
<svg id="main" version="1.1" xmlns="http://www.w3.org/2000/svg" xmlns:xlink="http://www.w3.org/1999/xlink" xml:space="preserve" onload="init(evt)">
<style type="text/css"><![CDATA[
.edge:hover path { stroke: red; }
.edge:hover polygon { stroke: red; fill: red; }
]]></style>
<script type="text/javascript"><![CDATA[
var edges = document.getElementsByTagName('g');
if (edges && edges.length) {
  for (var i=0;i<edges.length;i++) {
    if (edges[i].id.substr(0,4)=='edge') {
      edges[i].setAttribute('class','edge');
    }
  }
}
]]></script>
        <defs>
                <circle id="rim" cx="0" cy="0" r="7"/>
                <circle id="rim2" cx="0" cy="0" r="3.5"/>
                <g id="zoomPlus">
                        <use xlink:href="#rim" fill="#404040">
                                <set attributeName="fill" to="#808080" begin="zoomplus.mouseover" end="zoomplus.mouseout"/>
                        </use>
                        <path d="M-4,0h8M0,-4v8" fill="none" stroke="white" stroke-width="1.5" pointer-events="none"/>
                </g>
                <g id="zoomMin">
                        <use xlink:href="#rim" fill="#404040">
                                <set attributeName="fill" to="#808080" begin="zoomminus.mouseover" end="zoomminus.mouseout"/>
                        </use>
                        <path d="M-4,0h8" fill="none" stroke="white" stroke-width="1.5" pointer-events="none"/>
                </g>
                <g id="dirArrow">
                        <path fill="none" stroke="white" stroke-width="1.5" d="M0,-3.0v7 M-2.5,-0.5L0,-3.0L2.5,-0.5"/>
                </g>
               <g id="resetDef">
                       <use xlink:href="#rim2" fill="#404040">
                               <set attributeName="fill" to="#808080" begin="reset.mouseover" end="reset.mouseout"/>
                       </use>
               </g>
        </defs>

<script type="text/javascript">
var viewWidth = 434;
var viewHeight = 588;
var sectionId = 'dynsection-67';
</script>
<script xlink:href="../../svgpan.js"/>
<svg id="graph" class="graph">
<g id="viewport">
<title>GameCommand_trace</title>
<!-- Node1 -->
<g id="node1" class="node"><title>Node1</title>
<polygon fill="#bfbfbf" stroke="black" points="0.5,-294.5 0.5,-313.5 115.5,-313.5 115.5,-294.5 0.5,-294.5"/>
<text text-anchor="middle" x="58" y="-301.5" font-family="Helvetica,sans-Serif" font-size="10.00">GameCommand_trace</text>
</g>
<!-- Node2 -->
<g id="node2" class="node"><title>Node2</title>
<g id="a_node2"><a xlink:href="../../d8/de2/menudefs_8qc.html#ae3e9d36eda7886f5fe58e5201291dd78" target="_top" xlink:title="argv">
<polygon fill="none" stroke="black" points="167.5,-560.5 167.5,-579.5 202.5,-579.5 202.5,-560.5 167.5,-560.5"/>
<text text-anchor="middle" x="185" y="-567.5" font-family="Helvetica,sans-Serif" font-size="10.00">argv</text>
</a>
</g>
</g>
<!-- Node1&#45;&gt;Node2 -->
<g id="edge1" class="edge"><title>Node1&#45;&gt;Node2</title>
<path fill="none" stroke="midnightblue" d="M60.2978,-313.651C65.512,-349.158 87.8374,-474.442 152,-551 153.945,-553.321 156.251,-555.429 158.72,-557.325"/>
<polygon fill="midnightblue" stroke="midnightblue" points="157.154,-560.479 167.457,-562.949 160.943,-554.593 157.154,-560.479"/>
</g>
<!-- Node3 -->
<g id="node3" class="node"><title>Node3</title>
<g id="a_node3"><a xlink:href="../../d5/df2/common_2util_8qh.html#ac5ad73cc4800e309d3b5a9147d1ce43f" target="_top" xlink:title="entity">
<polygon fill="none" stroke="black" points="164.5,-522.5 164.5,-541.5 205.5,-541.5 205.5,-522.5 164.5,-522.5"/>
<text text-anchor="middle" x="185" y="-529.5" font-family="Helvetica,sans-Serif" font-size="10.00">entity</text>
</a>
</g>
</g>
<!-- Node1&#45;&gt;Node3 -->
<g id="edge2" class="edge"><title>Node1&#45;&gt;Node3</title>
<path fill="none" stroke="midnightblue" d="M61.1279,-313.902C68.4813,-346.113 95.5242,-449.488 152,-513 153.181,-514.328 154.477,-515.59 155.85,-516.784"/>
<polygon fill="midnightblue" stroke="midnightblue" points="154.137,-519.864 164.292,-522.884 158.236,-514.19 154.137,-519.864"/>
</g>
<!-- Node4 -->
<g id="node4" class="node"><title>Node4</title>
<g id="a_node4"><a xlink:href="../../d8/de2/menudefs_8qc.html#a56b53595c8aa15ca107c03896db91fd2" target="_top" xlink:title="error">
<polygon fill="none" stroke="black" points="167,-484.5 167,-503.5 203,-503.5 203,-484.5 167,-484.5"/>
<text text-anchor="middle" x="185" y="-491.5" font-family="Helvetica,sans-Serif" font-size="10.00">error</text>
</a>
</g>
</g>
<!-- Node1&#45;&gt;Node4 -->
<g id="edge3" class="edge"><title>Node1&#45;&gt;Node4</title>
<path fill="none" stroke="midnightblue" d="M62.1609,-313.628C71.7282,-341.561 102.773,-423.882 152,-475 153.843,-476.914 155.92,-478.703 158.108,-480.359"/>
<polygon fill="midnightblue" stroke="midnightblue" points="156.55,-483.521 166.836,-486.059 160.378,-477.661 156.55,-483.521"/>
</g>
<!-- Node5 -->
<g id="node5" class="node"><title>Node5</title>
<g id="a_node5"><a xlink:href="../../d8/de2/menudefs_8qc.html#abbb0d86741e0056b6c04f7280c185d76" target="_top" xlink:title="ftos">
<polygon fill="none" stroke="black" points="168.5,-446.5 168.5,-465.5 201.5,-465.5 201.5,-446.5 168.5,-446.5"/>
<text text-anchor="middle" x="185" y="-453.5" font-family="Helvetica,sans-Serif" font-size="10.00">ftos</text>
</a>
</g>
</g>
<!-- Node1&#45;&gt;Node5 -->
<g id="edge4" class="edge"><title>Node1&#45;&gt;Node5</title>
<path fill="none" stroke="midnightblue" d="M63.9176,-313.738C76.1642,-337.258 110.08,-398.089 152,-437 154.34,-439.172 156.968,-441.213 159.687,-443.093"/>
<polygon fill="midnightblue" stroke="midnightblue" points="158.092,-446.222 168.436,-448.513 161.778,-440.271 158.092,-446.222"/>
</g>
<!-- Node6 -->
<g id="node6" class="node"><title>Node6</title>
<g id="a_node6"><a xlink:href="../../d8/de2/menudefs_8qc.html#a33e75150e29fa01dc3c2fbe55610e1fd" target="_top" xlink:title="nextent">
<polygon fill="none" stroke="black" points="160.5,-408.5 160.5,-427.5 209.5,-427.5 209.5,-408.5 160.5,-408.5"/>
<text text-anchor="middle" x="185" y="-415.5" font-family="Helvetica,sans-Serif" font-size="10.00">nextent</text>
</a>
</g>
</g>
<!-- Node1&#45;&gt;Node6 -->
<g id="edge5" class="edge"><title>Node1&#45;&gt;Node6</title>
<path fill="none" stroke="midnightblue" d="M68.1373,-313.604C84.3985,-330.519 119.692,-366.441 152,-394 155.178,-396.711 158.63,-399.473 162.051,-402.113"/>
<polygon fill="midnightblue" stroke="midnightblue" points="160.22,-405.116 170.318,-408.323 164.424,-399.519 160.22,-405.116"/>
</g>
<!-- Node7 -->
<g id="node7" class="node"><title>Node7</title>
<g id="a_node7"><a xlink:href="../../d8/de2/menudefs_8qc.html#ab8f7213273f7de03df213240376ce9f4" target="_top" xlink:title="normalize">
<polygon fill="none" stroke="black" points="270.5,-342.5 270.5,-361.5 329.5,-361.5 329.5,-342.5 270.5,-342.5"/>
<text text-anchor="middle" x="300" y="-349.5" font-family="Helvetica,sans-Serif" font-size="10.00">normalize</text>
</a>
</g>
</g>
<!-- Node1&#45;&gt;Node7 -->
<g id="edge6" class="edge"><title>Node1&#45;&gt;Node7</title>
<path fill="none" stroke="midnightblue" d="M70.0487,-313.641C86.5432,-327.326 119.193,-351.746 152,-361 187.771,-371.09 230.315,-366.82 260.406,-361.244"/>
<polygon fill="midnightblue" stroke="midnightblue" points="261.373,-364.62 270.499,-359.239 260.009,-357.755 261.373,-364.62"/>
</g>
<!-- Node8 -->
<g id="node8" class="node"><title>Node8</title>
<g id="a_node8"><a xlink:href="../../d8/de2/menudefs_8qc.html#a663ea6aa3c4923b3e065cf91cc319f1b" target="_top" xlink:title="random">
<polygon fill="none" stroke="black" points="160.5,-332.5 160.5,-351.5 209.5,-351.5 209.5,-332.5 160.5,-332.5"/>
<text text-anchor="middle" x="185" y="-339.5" font-family="Helvetica,sans-Serif" font-size="10.00">random</text>
</a>
</g>
</g>
<!-- Node1&#45;&gt;Node8 -->
<g id="edge7" class="edge"><title>Node1&#45;&gt;Node8</title>
<path fill="none" stroke="midnightblue" d="M90.5428,-313.589C108.935,-319.18 132.112,-326.226 150.783,-331.902"/>
<polygon fill="midnightblue" stroke="midnightblue" points="149.774,-335.253 160.36,-334.813 151.81,-328.556 149.774,-335.253"/>
</g>
<!-- Node9 -->
<g id="node9" class="node"><title>Node9</title>
<g id="a_node9"><a xlink:href="../../d8/de2/menudefs_8qc.html#aa156cc8dd51c39572de799ab8a0dd8d0" target="_top" xlink:title="randomvec">
<polygon fill="none" stroke="black" points="152.5,-294.5 152.5,-313.5 217.5,-313.5 217.5,-294.5 152.5,-294.5"/>
<text text-anchor="middle" x="185" y="-301.5" font-family="Helvetica,sans-Serif" font-size="10.00">randomvec</text>
</a>
</g>
</g>
<!-- Node1&#45;&gt;Node9 -->
<g id="edge8" class="edge"><title>Node1&#45;&gt;Node9</title>
<path fill="none" stroke="midnightblue" d="M115.648,-304C124.649,-304 133.814,-304 142.386,-304"/>
<polygon fill="midnightblue" stroke="midnightblue" points="142.498,-307.5 152.498,-304 142.498,-300.5 142.498,-307.5"/>
</g>
<!-- Node10 -->
<g id="node10" class="node"><title>Node10</title>
<g id="a_node10"><a xlink:href="../../d8/de2/menudefs_8qc.html#ab8b85fda1f4e4157ff583a91373b2f71" target="_top" xlink:title="rint">
<polygon fill="none" stroke="black" points="170,-256.5 170,-275.5 200,-275.5 200,-256.5 170,-256.5"/>
<text text-anchor="middle" x="185" y="-263.5" font-family="Helvetica,sans-Serif" font-size="10.00">rint</text>
</a>
</g>
</g>
<!-- Node1&#45;&gt;Node10 -->
<g id="edge9" class="edge"><title>Node1&#45;&gt;Node10</title>
<path fill="none" stroke="midnightblue" d="M90.5428,-294.411C112.123,-287.851 140.29,-279.288 160.038,-273.284"/>
<polygon fill="midnightblue" stroke="midnightblue" points="161.233,-276.579 169.783,-270.322 159.197,-269.882 161.233,-276.579"/>
</g>
<!-- Node11 -->
<g id="node11" class="node"><title>Node11</title>
<g id="a_node11"><a xlink:href="../../db/d9f/state_8qh.html#a917978fc72821486ab248ab4253cf6e8" target="_top" xlink:title="STAT">
<polygon fill="none" stroke="black" points="164,-218.5 164,-237.5 206,-237.5 206,-218.5 164,-218.5"/>
<text text-anchor="middle" x="185" y="-225.5" font-family="Helvetica,sans-Serif" font-size="10.00">STAT</text>
</a>
</g>
</g>
<!-- Node1&#45;&gt;Node11 -->
<g id="edge10" class="edge"><title>Node1&#45;&gt;Node11</title>
<path fill="none" stroke="midnightblue" d="M74.4276,-294.453C92.8444,-283.078 124.597,-263.532 152,-247 154.227,-245.657 156.544,-244.266 158.869,-242.876"/>
<polygon fill="midnightblue" stroke="midnightblue" points="160.893,-245.745 167.694,-237.622 157.311,-239.73 160.893,-245.745"/>
</g>
<!-- Node12 -->
<g id="node12" class="node"><title>Node12</title>
<g id="a_node12"><a xlink:href="../../d8/de2/menudefs_8qc.html#a65fcee980f5a018b481188a84ead405f" target="_top" xlink:title="stov">
<polygon fill="none" stroke="black" points="167.5,-180.5 167.5,-199.5 202.5,-199.5 202.5,-180.5 167.5,-180.5"/>
<text text-anchor="middle" x="185" y="-187.5" font-family="Helvetica,sans-Serif" font-size="10.00">stov</text>
</a>
</g>
</g>
<!-- Node1&#45;&gt;Node12 -->
<g id="edge11" class="edge"><title>Node1&#45;&gt;Node12</title>
<path fill="none" stroke="midnightblue" d="M66.9975,-294.289C82.2642,-276.126 117.153,-236.377 152,-209 154.045,-207.393 156.238,-205.822 158.482,-204.315"/>
<polygon fill="midnightblue" stroke="midnightblue" points="160.555,-207.147 167.183,-198.881 156.847,-201.21 160.555,-207.147"/>
</g>
<!-- Node13 -->
<g id="node13" class="node"><title>Node13</title>
<g id="a_node13"><a xlink:href="../../d1/d9a/navigation_8qc.html#ac04a7b9ea11337a93febd08c22ea7db7" target="_top" xlink:title="tracewalk">
<polygon fill="none" stroke="black" points="155.5,-142.5 155.5,-161.5 214.5,-161.5 214.5,-142.5 155.5,-142.5"/>
<text text-anchor="middle" x="185" y="-149.5" font-family="Helvetica,sans-Serif" font-size="10.00">tracewalk</text>
</a>
</g>
</g>
<!-- Node1&#45;&gt;Node13 -->
<g id="edge12" class="edge"><title>Node1&#45;&gt;Node13</title>
<path fill="none" stroke="midnightblue" d="M63.9176,-294.262C76.1642,-270.742 110.08,-209.911 152,-171 153.302,-169.791 154.694,-168.623 156.141,-167.5"/>
<polygon fill="midnightblue" stroke="midnightblue" points="158.499,-170.129 164.794,-161.607 154.558,-164.344 158.499,-170.129"/>
</g>
<!-- Node17 -->
<g id="node17" class="node"><title>Node17</title>
<g id="a_node17"><a xlink:href="../../d4/d0c/csprogsdefs_8qc.html#a4f0b78b1785821ba47129edb68e70f9e" target="_top" xlink:title="vector">
<polygon fill="none" stroke="black" points="382,-190.5 382,-209.5 426,-209.5 426,-190.5 382,-190.5"/>
<text text-anchor="middle" x="404" y="-197.5" font-family="Helvetica,sans-Serif" font-size="10.00">vector</text>
</a>
</g>
</g>
<!-- Node1&#45;&gt;Node17 -->
<g id="edge22" class="edge"><title>Node1&#45;&gt;Node17</title>
<path fill="none" stroke="midnightblue" d="M60.3712,-294.449C65.6074,-261.557 87.4094,-151.931 152,-96 217.905,-38.9304 273.218,-19.0081 346,-67 384.495,-92.3835 397.091,-149.74 401.138,-180.172"/>
<polygon fill="midnightblue" stroke="midnightblue" points="397.693,-180.856 402.306,-190.394 404.648,-180.061 397.693,-180.856"/>
</g>
<!-- Node20 -->
<g id="node20" class="node"><title>Node20</title>
<g id="a_node20"><a xlink:href="../../d8/de2/menudefs_8qc.html#a79d61ab0e4126e02af8bc36d432aedaf" target="_top" xlink:title="vlen">
<polygon fill="none" stroke="black" points="282.5,-76.5 282.5,-95.5 317.5,-95.5 317.5,-76.5 282.5,-76.5"/>
<text text-anchor="middle" x="300" y="-83.5" font-family="Helvetica,sans-Serif" font-size="10.00">vlen</text>
</a>
</g>
</g>
<!-- Node1&#45;&gt;Node20 -->
<g id="edge23" class="edge"><title>Node1&#45;&gt;Node20</title>
<path fill="none" stroke="midnightblue" d="M61.5173,-294.219C69.5049,-265.144 97.0545,-178.447 152,-133 187.058,-104.002 240.283,-92.7944 272.151,-88.5345"/>
<polygon fill="midnightblue" stroke="midnightblue" points="272.571,-92.0093 282.082,-87.3406 271.736,-85.0593 272.571,-92.0093"/>
</g>
<!-- Node21 -->
<g id="node21" class="node"><title>Node21</title>
<g id="a_node21"><a xlink:href="../../d8/de2/menudefs_8qc.html#ab0df318f2dece7f798ff4061cd67f9d2" target="_top" xlink:title="vtos">
<polygon fill="none" stroke="black" points="167.5,-0.5 167.5,-19.5 202.5,-19.5 202.5,-0.5 167.5,-0.5"/>
<text text-anchor="middle" x="185" y="-7.5" font-family="Helvetica,sans-Serif" font-size="10.00">vtos</text>
</a>
</g>
</g>
<!-- Node1&#45;&gt;Node21 -->
<g id="edge24" class="edge"><title>Node1&#45;&gt;Node21</title>
<path fill="none" stroke="midnightblue" d="M60.2253,-294.464C65.3593,-257.58 87.9308,-121.964 152,-34 154.108,-31.1056 156.665,-28.4036 159.405,-25.9338"/>
<polygon fill="midnightblue" stroke="midnightblue" points="161.715,-28.5692 167.388,-19.6214 157.373,-23.0782 161.715,-28.5692"/>
</g>
<!-- Node13&#45;&gt;Node7 -->
<g id="edge18" class="edge"><title>Node13&#45;&gt;Node7</title>
<path fill="none" stroke="midnightblue" d="M207.929,-161.714C211.752,-164.257 215.347,-167.337 218,-171 261.264,-230.735 206.769,-276.35 254,-333 256.118,-335.54 258.635,-337.747 261.38,-339.664"/>
<polygon fill="midnightblue" stroke="midnightblue" points="259.699,-342.734 270.13,-344.585 263.13,-336.633 259.699,-342.734"/>
</g>
<!-- Node14 -->
<g id="node14" class="node"><title>Node14</title>
<g id="a_node14"><a xlink:href="../../d5/df2/common_2util_8qh.html#a3385b15af8ffd7f5c33d2fbb3a9eb237" target="_top" xlink:title="requires that m2&gt;m1 in all coordinates, and that m4&gt;m3 ">
<polygon fill="none" stroke="black" points="263,-304.5 263,-323.5 337,-323.5 337,-304.5 263,-304.5"/>
<text text-anchor="middle" x="300" y="-311.5" font-family="Helvetica,sans-Serif" font-size="10.00">boxesoverlap</text>
</a>
</g>
</g>
<!-- Node13&#45;&gt;Node14 -->
<g id="edge13" class="edge"><title>Node13&#45;&gt;Node14</title>
<path fill="none" stroke="midnightblue" d="M207.417,-161.636C211.375,-164.209 215.152,-167.321 218,-171 253.129,-216.378 215.863,-252.119 254,-295 255.162,-296.307 256.43,-297.527 257.777,-298.665"/>
<polygon fill="midnightblue" stroke="midnightblue" points="255.951,-301.655 266.204,-304.328 259.856,-295.845 255.951,-301.655"/>
</g>
<!-- Node15 -->
<g id="node15" class="node"><title>Node15</title>
<g id="a_node15"><a xlink:href="../../d1/d9a/navigation_8qc.html#a0bf45026ff87072e0ec40f460996157e" target="_top" xlink:title="debugnode">
<polygon fill="none" stroke="black" points="268,-266.5 268,-285.5 332,-285.5 332,-266.5 268,-266.5"/>
<text text-anchor="middle" x="300" y="-273.5" font-family="Helvetica,sans-Serif" font-size="10.00">debugnode</text>
</a>
</g>
</g>
<!-- Node13&#45;&gt;Node15 -->
<g id="edge14" class="edge"><title>Node13&#45;&gt;Node15</title>
<path fill="none" stroke="midnightblue" d="M206.767,-161.684C210.865,-164.282 214.863,-167.392 218,-171 245.188,-202.269 224.745,-227.655 254,-257 255.605,-258.61 257.368,-260.092 259.238,-261.454"/>
<polygon fill="midnightblue" stroke="midnightblue" points="257.585,-264.544 267.961,-266.688 261.187,-258.541 257.585,-264.544"/>
</g>
<!-- Node16 -->
<g id="node16" class="node"><title>Node16</title>
<g id="a_node16"><a xlink:href="../../d1/d9a/navigation_8qc.html#a1008dfeec8545242207e62e31e2614d6" target="_top" xlink:title="debugnodestatus">
<polygon fill="none" stroke="black" points="254.5,-228.5 254.5,-247.5 345.5,-247.5 345.5,-228.5 254.5,-228.5"/>
<text text-anchor="middle" x="300" y="-235.5" font-family="Helvetica,sans-Serif" font-size="10.00">debugnodestatus</text>
</a>
</g>
</g>
<!-- Node13&#45;&gt;Node16 -->
<g id="edge15" class="edge"><title>Node13&#45;&gt;Node16</title>
<path fill="none" stroke="midnightblue" d="M204.66,-161.643C209.231,-164.385 213.964,-167.568 218,-171 236.986,-187.148 234.649,-198.291 254,-214 258.296,-217.488 263.177,-220.703 268.101,-223.571"/>
<polygon fill="midnightblue" stroke="midnightblue" points="266.434,-226.649 276.893,-228.342 269.773,-220.496 266.434,-226.649"/>
</g>
<!-- Node13&#45;&gt;Node17 -->
<g id="edge19" class="edge"><title>Node13&#45;&gt;Node17</title>
<path fill="none" stroke="midnightblue" d="M204.551,-161.568C217.948,-168.063 236.659,-176.294 254,-181 293.848,-191.813 341.401,-196.519 371.886,-198.535"/>
<polygon fill="midnightblue" stroke="midnightblue" points="371.723,-202.032 381.916,-199.142 372.146,-195.044 371.723,-202.032"/>
</g>
<!-- Node18 -->
<g id="node18" class="node"><title>Node18</title>
<g id="a_node18"><a xlink:href="../../d1/d9a/navigation_8qc.html#af6010fb90061dda5f6b7b7fe8e172489" target="_top" xlink:title="debugresetnodes">
<polygon fill="none" stroke="black" points="254.5,-152.5 254.5,-171.5 345.5,-171.5 345.5,-152.5 254.5,-152.5"/>
<text text-anchor="middle" x="300" y="-159.5" font-family="Helvetica,sans-Serif" font-size="10.00">debugresetnodes</text>
</a>
</g>
</g>
<!-- Node13&#45;&gt;Node18 -->
<g id="edge17" class="edge"><title>Node13&#45;&gt;Node18</title>
<path fill="none" stroke="midnightblue" d="M214.515,-154.523C223.537,-155.322 233.834,-156.233 244.062,-157.138"/>
<polygon fill="midnightblue" stroke="midnightblue" points="243.948,-160.642 254.218,-158.037 244.565,-153.669 243.948,-160.642"/>
</g>
<!-- Node19 -->
<g id="node19" class="node"><title>Node19</title>
<g id="a_node19"><a xlink:href="../../d8/de2/menudefs_8qc.html#a5ae2f838da18fe5ea81151c4e3735220" target="_top" xlink:title="vectoyaw">
<polygon fill="none" stroke="black" points="270.5,-114.5 270.5,-133.5 329.5,-133.5 329.5,-114.5 270.5,-114.5"/>
<text text-anchor="middle" x="300" y="-121.5" font-family="Helvetica,sans-Serif" font-size="10.00">vectoyaw</text>
</a>
</g>
</g>
<!-- Node13&#45;&gt;Node19 -->
<g id="edge20" class="edge"><title>Node13&#45;&gt;Node19</title>
<path fill="none" stroke="midnightblue" d="M214.515,-144.934C228.433,-141.486 245.382,-137.286 260.436,-133.556"/>
<polygon fill="midnightblue" stroke="midnightblue" points="261.63,-136.866 270.494,-131.063 259.946,-130.071 261.63,-136.866"/>
</g>
<!-- Node13&#45;&gt;Node20 -->
<g id="edge21" class="edge"><title>Node13&#45;&gt;Node20</title>
<path fill="none" stroke="midnightblue" d="M198.529,-142.169C211.804,-132.039 233.621,-116.19 254,-105 259.951,-101.732 266.582,-98.6499 272.884,-95.9568"/>
<polygon fill="midnightblue" stroke="midnightblue" points="274.443,-99.1005 282.373,-92.0744 271.793,-92.6218 274.443,-99.1005"/>
</g>
<!-- Node16&#45;&gt;Node17 -->
<g id="edge16" class="edge"><title>Node16&#45;&gt;Node17</title>
<path fill="none" stroke="midnightblue" d="M326.739,-228.411C340.549,-223.266 357.665,-216.89 372.18,-211.482"/>
<polygon fill="midnightblue" stroke="midnightblue" points="373.593,-214.691 381.742,-207.92 371.149,-208.131 373.593,-214.691"/>
</g>
</g>
</svg>
        <g id="navigator" transform="translate(0 0)" fill="#404254">
                <rect fill="#f2f5e9" fill-opacity="0.5" stroke="#606060" stroke-width=".5" x="0" y="0" width="60" height="60"/>
                <use id="zoomplus" xlink:href="#zoomPlus" x="17" y="9" onmousedown="handleZoom(evt,'in')"/>
                <use id="zoomminus" xlink:href="#zoomMin" x="42" y="9" onmousedown="handleZoom(evt,'out')"/>
                <use id="reset" xlink:href="#resetDef" x="30" y="36" onmousedown="handleReset()"/>
                <g id="arrowUp" xlink:href="#dirArrow" transform="translate(30 24)" onmousedown="handlePan(0,-1)">
                  <use xlink:href="#rim" fill="#404040">
                        <set attributeName="fill" to="#808080" begin="arrowUp.mouseover" end="arrowUp.mouseout"/>
                  </use>
                  <path fill="none" stroke="white" stroke-width="1.5" d="M0,-3.0v7 M-2.5,-0.5L0,-3.0L2.5,-0.5"/>
                </g>
                <g id="arrowRight" xlink:href="#dirArrow" transform="rotate(90) translate(36 -43)" onmousedown="handlePan(1,0)">
                  <use xlink:href="#rim" fill="#404040">
                        <set attributeName="fill" to="#808080" begin="arrowRight.mouseover" end="arrowRight.mouseout"/>
                  </use>
                  <path fill="none" stroke="white" stroke-width="1.5" d="M0,-3.0v7 M-2.5,-0.5L0,-3.0L2.5,-0.5"/>
                </g>
                <g id="arrowDown" xlink:href="#dirArrow" transform="rotate(180) translate(-30 -48)" onmousedown="handlePan(0,1)">
                  <use xlink:href="#rim" fill="#404040">
                        <set attributeName="fill" to="#808080" begin="arrowDown.mouseover" end="arrowDown.mouseout"/>
                  </use>
                  <path fill="none" stroke="white" stroke-width="1.5" d="M0,-3.0v7 M-2.5,-0.5L0,-3.0L2.5,-0.5"/>
                </g>
                <g id="arrowLeft" xlink:href="#dirArrow" transform="rotate(270) translate(-36 17)" onmousedown="handlePan(-1,0)">
                  <use xlink:href="#rim" fill="#404040">
                        <set attributeName="fill" to="#808080" begin="arrowLeft.mouseover" end="arrowLeft.mouseout"/>
                  </use>
                  <path fill="none" stroke="white" stroke-width="1.5" d="M0,-3.0v7 M-2.5,-0.5L0,-3.0L2.5,-0.5"/>
                </g>
        </g>
        <svg viewBox="0 0 15 15" width="100%" height="30px" preserveAspectRatio="xMaxYMin meet">
         <g id="arrow_out" transform="scale(0.3 0.3)">
          <a xlink:href="sv__cmd_8qc_aa1208343b51973d6b01b43baf6b6e315_cgraph_org.svg" target="_base">
           <rect id="button" ry="5" rx="5" y="6" x="6" height="38" width="38"
                fill="#f2f5e9" fill-opacity="0.5" stroke="#606060" stroke-width="1.0"/>
           <path id="arrow"
             d="M 11.500037,31.436501 C 11.940474,20.09759 22.043105,11.32322 32.158766,21.979434 L 37.068811,17.246167 C 37.068811,17.246167 37.088388,32 37.088388,32 L 22.160133,31.978069 C 22.160133,31.978069 26.997745,27.140456 26.997745,27.140456 C 18.528582,18.264221 13.291696,25.230495 11.500037,31.436501 z"
             style="fill:#404040;"/>
          </a>
         </g>
        </svg>
</svg>
