<?xml version="1.0" encoding="UTF-8" standalone="no"?>
<!DOCTYPE svg PUBLIC "-//W3C//DTD SVG 1.1//EN"
 "http://www.w3.org/Graphics/SVG/1.1/DTD/svg11.dtd">
<!-- Generated by graphviz version 2.36.0 (20140111.2315)
 -->
<!-- Title: GameCommand Pages: 1 -->
<!--zoomable 1083 -->
<svg id="main" version="1.1" xmlns="http://www.w3.org/2000/svg" xmlns:xlink="http://www.w3.org/1999/xlink" xml:space="preserve" onload="init(evt)">
<style type="text/css"><![CDATA[
.edge:hover path { stroke: red; }
.edge:hover polygon { stroke: red; fill: red; }
]]></style>
<script type="text/javascript"><![CDATA[
var edges = document.getElementsByTagName('g');
if (edges && edges.length) {
  for (var i=0;i<edges.length;i++) {
    if (edges[i].id.substr(0,4)=='edge') {
      edges[i].setAttribute('class','edge');
    }
  }
}
]]></script>
        <defs>
                <circle id="rim" cx="0" cy="0" r="7"/>
                <circle id="rim2" cx="0" cy="0" r="3.5"/>
                <g id="zoomPlus">
                        <use xlink:href="#rim" fill="#404040">
                                <set attributeName="fill" to="#808080" begin="zoomplus.mouseover" end="zoomplus.mouseout"/>
                        </use>
                        <path d="M-4,0h8M0,-4v8" fill="none" stroke="white" stroke-width="1.5" pointer-events="none"/>
                </g>
                <g id="zoomMin">
                        <use xlink:href="#rim" fill="#404040">
                                <set attributeName="fill" to="#808080" begin="zoomminus.mouseover" end="zoomminus.mouseout"/>
                        </use>
                        <path d="M-4,0h8" fill="none" stroke="white" stroke-width="1.5" pointer-events="none"/>
                </g>
                <g id="dirArrow">
                        <path fill="none" stroke="white" stroke-width="1.5" d="M0,-3.0v7 M-2.5,-0.5L0,-3.0L2.5,-0.5"/>
                </g>
               <g id="resetDef">
                       <use xlink:href="#rim2" fill="#404040">
                               <set attributeName="fill" to="#808080" begin="reset.mouseover" end="reset.mouseout"/>
                       </use>
               </g>
        </defs>

<script type="text/javascript">
var viewWidth = 762;
var viewHeight = 1083;
var sectionId = 'dynsection-4';
</script>
<script xlink:href="../../svgpan.js"/>
<svg id="graph" class="graph">
<g id="viewport">
<title>GameCommand</title>
<!-- Node1 -->
<g id="node1" class="node"><title>Node1</title>
<polygon fill="#bfbfbf" stroke="black" points="0,-711.463 0,-730.463 88,-730.463 88,-711.463 0,-711.463"/>
<text text-anchor="middle" x="44" y="-718.463" font-family="Helvetica,sans-Serif" font-size="10.00">GameCommand</text>
</g>
<!-- Node2 -->
<g id="node2" class="node"><title>Node2</title>
<g id="a_node2"><a xlink:href="../../d8/de2/menudefs_8qc.html#ae3e9d36eda7886f5fe58e5201291dd78" target="_top" xlink:title="argv">
<polygon fill="none" stroke="black" points="580.5,-694.463 580.5,-713.463 615.5,-713.463 615.5,-694.463 580.5,-694.463"/>
<text text-anchor="middle" x="598" y="-701.463" font-family="Helvetica,sans-Serif" font-size="10.00">argv</text>
</a>
</g>
</g>
<!-- Node1&#45;&gt;Node2 -->
<g id="edge1" class="edge"><title>Node1&#45;&gt;Node2</title>
<path fill="none" stroke="midnightblue" d="M45.1203,-711.221C46.1377,-676.715 54.7517,-559.818 124,-511.963 181.77,-472.041 216.936,-485.548 282,-511.963 302.676,-520.358 298.413,-536.27 318,-546.963 385.279,-583.693 419.557,-547.741 486,-585.963 529.86,-611.194 566.894,-659.239 585.034,-685.572"/>
<polygon fill="midnightblue" stroke="midnightblue" points="582.357,-687.862 590.841,-694.209 588.166,-683.957 582.357,-687.862"/>
</g>
<!-- Node3 -->
<g id="node3" class="node"><title>Node3</title>
<g id="a_node3"><a xlink:href="../../dd/d31/banning_8qc.html#af092a83967ab9516490e44b5736a9fe3" target="_top" xlink:title="BanCommand">
<polygon fill="none" stroke="black" points="163.5,-1015.46 163.5,-1034.46 242.5,-1034.46 242.5,-1015.46 163.5,-1015.46"/>
<text text-anchor="middle" x="203" y="-1022.46" font-family="Helvetica,sans-Serif" font-size="10.00">BanCommand</text>
</a>
</g>
</g>
<!-- Node1&#45;&gt;Node3 -->
<g id="edge2" class="edge"><title>Node1&#45;&gt;Node3</title>
<path fill="none" stroke="midnightblue" d="M44.4786,-730.512C42.8473,-770.569 42.1419,-926.641 124,-1005.96 131.97,-1013.69 142.528,-1018.44 153.293,-1021.33"/>
<polygon fill="midnightblue" stroke="midnightblue" points="152.652,-1024.77 163.169,-1023.49 154.147,-1017.94 152.652,-1024.77"/>
</g>
<!-- Node5 -->
<g id="node5" class="node"><title>Node5</title>
<g id="a_node5"><a xlink:href="../../dd/d31/banning_8qc.html#a2e1590577ece2a8d0b64ca0b13da71aa" target="_top" xlink:title="BanCommand_macro_help">
<polygon fill="none" stroke="black" points="136,-977.463 136,-996.463 270,-996.463 270,-977.463 136,-977.463"/>
<text text-anchor="middle" x="203" y="-984.463" font-family="Helvetica,sans-Serif" font-size="10.00">BanCommand_macro_help</text>
</a>
</g>
</g>
<!-- Node1&#45;&gt;Node5 -->
<g id="edge4" class="edge"><title>Node1&#45;&gt;Node5</title>
<path fill="none" stroke="midnightblue" d="M44.9505,-730.486C45.3041,-767.165 51.6982,-900.595 124,-967.963 125.53,-969.388 127.148,-970.712 128.839,-971.941"/>
<polygon fill="midnightblue" stroke="midnightblue" points="127.452,-975.19 137.829,-977.327 131.05,-969.185 127.452,-975.19"/>
</g>
<!-- Node6 -->
<g id="node6" class="node"><title>Node6</title>
<g id="a_node6"><a xlink:href="../../dd/d31/banning_8qc.html#ad6f39c7b5f08dca03286f322a3d5ebc0" target="_top" xlink:title="BanCommand_macro_usage">
<polygon fill="none" stroke="black" points="131.5,-939.463 131.5,-958.463 274.5,-958.463 274.5,-939.463 131.5,-939.463"/>
<text text-anchor="middle" x="203" y="-946.463" font-family="Helvetica,sans-Serif" font-size="10.00">BanCommand_macro_usage</text>
</a>
</g>
</g>
<!-- Node1&#45;&gt;Node6 -->
<g id="edge5" class="edge"><title>Node1&#45;&gt;Node6</title>
<path fill="none" stroke="midnightblue" d="M45.8321,-730.702C49.1391,-763.248 64.2482,-869.309 124,-924.963 128.384,-929.046 133.447,-932.435 138.846,-935.248"/>
<polygon fill="midnightblue" stroke="midnightblue" points="137.633,-938.54 148.188,-939.459 140.509,-932.159 137.633,-938.54"/>
</g>
<!-- Node7 -->
<g id="node7" class="node"><title>Node7</title>
<g id="a_node7"><a xlink:href="../../d2/d06/server_2command_2common_8qh.html#a50d98a59def9baf2a4bee69ec4e2f00a" target="_top" xlink:title="CommonCommand_macro\l_command">
<polygon fill="none" stroke="black" points="335,-644.963 335,-674.963 469,-674.963 469,-644.963 335,-644.963"/>
<text text-anchor="start" x="343" y="-662.963" font-family="Helvetica,sans-Serif" font-size="10.00">CommonCommand_macro</text>
<text text-anchor="middle" x="402" y="-651.963" font-family="Helvetica,sans-Serif" font-size="10.00">_command</text>
</a>
</g>
</g>
<!-- Node1&#45;&gt;Node7 -->
<g id="edge6" class="edge"><title>Node1&#45;&gt;Node7</title>
<path fill="none" stroke="midnightblue" d="M88.0176,-712.609C99.6832,-710.394 112.317,-708.042 124,-705.963 191.774,-693.903 269.061,-681.152 324.745,-672.141"/>
<polygon fill="midnightblue" stroke="midnightblue" points="325.57,-675.553 334.884,-670.503 324.454,-668.643 325.57,-675.553"/>
</g>
<!-- Node8 -->
<g id="node8" class="node"><title>Node8</title>
<g id="a_node8"><a xlink:href="../../d5/df2/common_2util_8qh.html#a80c7379e4891614cbb9013c11eeb5d5a" target="_top" xlink:title="strtolower">
<polygon fill="none" stroke="black" points="568.5,-754.463 568.5,-773.463 627.5,-773.463 627.5,-754.463 568.5,-754.463"/>
<text text-anchor="middle" x="598" y="-761.463" font-family="Helvetica,sans-Serif" font-size="10.00">strtolower</text>
</a>
</g>
</g>
<!-- Node1&#45;&gt;Node8 -->
<g id="edge64" class="edge"><title>Node1&#45;&gt;Node8</title>
<path fill="none" stroke="midnightblue" d="M47.9509,-730.712C55.9199,-755.347 80.276,-820.507 124,-853.963 195.079,-908.351 229.323,-895.852 318,-907.963 391.98,-918.067 418.997,-940.914 486,-907.963 539.419,-881.693 574.372,-815.98 589.076,-783.194"/>
<polygon fill="midnightblue" stroke="midnightblue" points="592.382,-784.366 593.136,-773.798 585.956,-781.59 592.382,-784.366"/>
</g>
<!-- Node9 -->
<g id="node9" class="node"><title>Node9</title>
<g id="a_node9"><a xlink:href="../../d2/d06/server_2command_2common_8qh.html#a0f6cca326c712137b206f943a0024623" target="_top" xlink:title="CommonCommand_macro_help">
<polygon fill="none" stroke="black" points="124.5,-559.463 124.5,-578.463 281.5,-578.463 281.5,-559.463 124.5,-559.463"/>
<text text-anchor="middle" x="203" y="-566.463" font-family="Helvetica,sans-Serif" font-size="10.00">CommonCommand_macro_help</text>
</a>
</g>
</g>
<!-- Node1&#45;&gt;Node9 -->
<g id="edge9" class="edge"><title>Node1&#45;&gt;Node9</title>
<path fill="none" stroke="midnightblue" d="M48.2378,-711.298C56.713,-687.482 81.8554,-625.548 124,-592.963 129.498,-588.713 135.752,-585.21 142.271,-582.324"/>
<polygon fill="midnightblue" stroke="midnightblue" points="143.924,-585.435 151.954,-578.523 141.366,-578.919 143.924,-585.435"/>
</g>
<!-- Node12 -->
<g id="node12" class="node"><title>Node12</title>
<g id="a_node12"><a xlink:href="../../d8/de2/menudefs_8qc.html#ad76dc2b2895cd23f21e008f12a686158" target="_top" xlink:title="strcat">
<polygon fill="none" stroke="black" points="577.5,-317.463 577.5,-336.463 618.5,-336.463 618.5,-317.463 577.5,-317.463"/>
<text text-anchor="middle" x="598" y="-324.463" font-family="Helvetica,sans-Serif" font-size="10.00">strcat</text>
</a>
</g>
</g>
<!-- Node1&#45;&gt;Node12 -->
<g id="edge63" class="edge"><title>Node1&#45;&gt;Node12</title>
<path fill="none" stroke="midnightblue" d="M45.2649,-711.22C46.7699,-675.456 56.825,-550.01 124,-482.963 251.393,-355.814 484.336,-332.298 566.959,-327.95"/>
<polygon fill="midnightblue" stroke="midnightblue" points="567.33,-331.436 577.156,-327.472 567.003,-324.444 567.33,-331.436"/>
</g>
<!-- Node13 -->
<g id="node13" class="node"><title>Node13</title>
<g id="a_node13"><a xlink:href="../../d2/d06/server_2command_2common_8qh.html#a54b86f9396c2cbcda360e9a4a094623d" target="_top" xlink:title="CommonCommand_macro\l_usage">
<polygon fill="none" stroke="black" points="335,-868.963 335,-898.963 469,-898.963 469,-868.963 335,-868.963"/>
<text text-anchor="start" x="343" y="-886.963" font-family="Helvetica,sans-Serif" font-size="10.00">CommonCommand_macro</text>
<text text-anchor="middle" x="402" y="-875.963" font-family="Helvetica,sans-Serif" font-size="10.00">_usage</text>
</a>
</g>
</g>
<!-- Node1&#45;&gt;Node13 -->
<g id="edge13" class="edge"><title>Node1&#45;&gt;Node13</title>
<path fill="none" stroke="midnightblue" d="M50.6211,-730.509C62.0178,-748.999 89.6999,-789.743 124,-810.963 185.469,-848.992 266.426,-867.37 324.93,-876.153"/>
<polygon fill="midnightblue" stroke="midnightblue" points="324.453,-879.62 334.85,-877.582 325.452,-872.691 324.453,-879.62"/>
</g>
<!-- Node14 -->
<g id="node14" class="node"><title>Node14</title>
<g id="a_node14"><a xlink:href="../../df/d8c/cl__cmd_8qc.html#a8ee68a14511a9aca94752cff6863af16" target="_top" xlink:title="CSQC_ConsoleCommand">
<polygon fill="none" stroke="black" points="336,-1023.46 336,-1042.46 468,-1042.46 468,-1023.46 336,-1023.46"/>
<text text-anchor="middle" x="402" y="-1030.46" font-family="Helvetica,sans-Serif" font-size="10.00">CSQC_ConsoleCommand</text>
</a>
</g>
</g>
<!-- Node1&#45;&gt;Node14 -->
<g id="edge16" class="edge"><title>Node1&#45;&gt;Node14</title>
<path fill="none" stroke="midnightblue" d="M45.7987,-730.574C50.1092,-779.851 72.3442,-1003.42 124,-1043.96 195.787,-1100.31 313.197,-1067.15 369.262,-1046.17"/>
<polygon fill="midnightblue" stroke="midnightblue" points="370.601,-1049.4 378.674,-1042.54 368.084,-1042.87 370.601,-1049.4"/>
</g>
<!-- Node17 -->
<g id="node17" class="node"><title>Node17</title>
<g id="a_node17"><a xlink:href="../../d3/df2/sv__cmd_8qc.html#abc21ede44cff03957537b33b578ba97e" target="_top" xlink:title="GameCommand_macro_command">
<polygon fill="none" stroke="black" points="318,-732.463 318,-751.463 486,-751.463 486,-732.463 318,-732.463"/>
<text text-anchor="middle" x="402" y="-739.463" font-family="Helvetica,sans-Serif" font-size="10.00">GameCommand_macro_command</text>
</a>
</g>
</g>
<!-- Node1&#45;&gt;Node17 -->
<g id="edge21" class="edge"><title>Node1&#45;&gt;Node17</title>
<path fill="none" stroke="midnightblue" d="M88.0274,-725.074C99.693,-726.107 112.325,-727.151 124,-727.963 185.147,-732.216 253.974,-735.701 307.724,-738.13"/>
<polygon fill="midnightblue" stroke="midnightblue" points="307.776,-741.636 317.922,-738.587 308.089,-734.643 307.776,-741.636"/>
</g>
<!-- Node18 -->
<g id="node18" class="node"><title>Node18</title>
<g id="a_node18"><a xlink:href="../../d3/df2/sv__cmd_8qc.html#ad1903db87ff59e0d81a728aa95d88a13" target="_top" xlink:title="GameCommand_macro_help">
<polygon fill="none" stroke="black" points="131.5,-635.463 131.5,-654.463 274.5,-654.463 274.5,-635.463 131.5,-635.463"/>
<text text-anchor="middle" x="203" y="-642.463" font-family="Helvetica,sans-Serif" font-size="10.00">GameCommand_macro_help</text>
</a>
</g>
</g>
<!-- Node1&#45;&gt;Node18 -->
<g id="edge24" class="edge"><title>Node1&#45;&gt;Node18</title>
<path fill="none" stroke="midnightblue" d="M57.2072,-711.329C72.1971,-699.888 98.7489,-680.861 124,-668.963 133.228,-664.615 143.435,-660.815 153.341,-657.597"/>
<polygon fill="midnightblue" stroke="midnightblue" points="154.581,-660.877 163.099,-654.576 152.511,-654.19 154.581,-660.877"/>
</g>
<!-- Node19 -->
<g id="node19" class="node"><title>Node19</title>
<g id="a_node19"><a xlink:href="../../d3/df2/sv__cmd_8qc.html#a922e9a7a25fa7adec3f86aa1cbbeee79" target="_top" xlink:title="GameCommand_macro_usage">
<polygon fill="none" stroke="black" points="326,-694.463 326,-713.463 478,-713.463 478,-694.463 326,-694.463"/>
<text text-anchor="middle" x="402" y="-701.463" font-family="Helvetica,sans-Serif" font-size="10.00">GameCommand_macro_usage</text>
</a>
</g>
</g>
<!-- Node1&#45;&gt;Node19 -->
<g id="edge25" class="edge"><title>Node1&#45;&gt;Node19</title>
<path fill="none" stroke="midnightblue" d="M88.2967,-718.896C144.461,-716.214 243.712,-711.474 315.356,-708.053"/>
<polygon fill="midnightblue" stroke="midnightblue" points="315.896,-711.531 325.717,-707.558 315.562,-704.539 315.896,-711.531"/>
</g>
<!-- Node20 -->
<g id="node20" class="node"><title>Node20</title>
<g id="a_node20"><a xlink:href="../../df/da7/generic_8qc.html#afc2258d0a6214950261d6dc3d0e4ad06" target="_top" xlink:title="GenericCommand">
<polygon fill="none" stroke="black" points="155.5,-241.463 155.5,-260.463 250.5,-260.463 250.5,-241.463 155.5,-241.463"/>
<text text-anchor="middle" x="203" y="-248.463" font-family="Helvetica,sans-Serif" font-size="10.00">GenericCommand</text>
</a>
</g>
</g>
<!-- Node1&#45;&gt;Node20 -->
<g id="edge28" class="edge"><title>Node1&#45;&gt;Node20</title>
<path fill="none" stroke="midnightblue" d="M45.8896,-711.243C51.111,-655.741 79.0965,-378.897 124,-307.963 135.657,-289.549 155.575,-275.144 172.365,-265.421"/>
<polygon fill="midnightblue" stroke="midnightblue" points="174.225,-268.392 181.299,-260.505 170.85,-262.26 174.225,-268.392"/>
</g>
<!-- Node33 -->
<g id="node33" class="node"><title>Node33</title>
<g id="a_node33"><a xlink:href="../../df/da7/generic_8qc.html#af21b5f0914d24ba07dcd52f606b8518e" target="_top" xlink:title="GenericCommand_macro_help">
<polygon fill="none" stroke="black" points="127.5,-521.463 127.5,-540.463 278.5,-540.463 278.5,-521.463 127.5,-521.463"/>
<text text-anchor="middle" x="203" y="-528.463" font-family="Helvetica,sans-Serif" font-size="10.00">GenericCommand_macro_help</text>
</a>
</g>
</g>
<!-- Node1&#45;&gt;Node33 -->
<g id="edge52" class="edge"><title>Node1&#45;&gt;Node33</title>
<path fill="none" stroke="midnightblue" d="M46.4544,-711.449C51.4191,-682.375 70.4628,-594.013 124,-549.963 126.025,-548.297 128.173,-546.774 130.416,-545.38"/>
<polygon fill="midnightblue" stroke="midnightblue" points="132.246,-548.373 139.474,-540.627 128.993,-542.174 132.246,-548.373"/>
</g>
<!-- Node34 -->
<g id="node34" class="node"><title>Node34</title>
<g id="a_node34"><a xlink:href="../../df/da7/generic_8qc.html#ad2ffe1c772f6454a87b6536bfdffe768" target="_top" xlink:title="GenericCommand_macro\l_usage">
<polygon fill="none" stroke="black" points="338,-595.963 338,-625.963 466,-625.963 466,-595.963 338,-595.963"/>
<text text-anchor="start" x="346" y="-613.963" font-family="Helvetica,sans-Serif" font-size="10.00">GenericCommand_macro</text>
<text text-anchor="middle" x="402" y="-602.963" font-family="Helvetica,sans-Serif" font-size="10.00">_usage</text>
</a>
</g>
</g>
<!-- Node1&#45;&gt;Node34 -->
<g id="edge53" class="edge"><title>Node1&#45;&gt;Node34</title>
<path fill="none" stroke="midnightblue" d="M49.6374,-711.174C59.8131,-690.965 86.2404,-644.935 124,-625.963 187.331,-594.143 269.387,-593.951 327.712,-599.538"/>
<polygon fill="midnightblue" stroke="midnightblue" points="327.644,-603.049 337.952,-600.601 328.367,-596.087 327.644,-603.049"/>
</g>
<!-- Node35 -->
<g id="node35" class="node"><title>Node35</title>
<g id="a_node35"><a xlink:href="../../df/d8c/cl__cmd_8qc.html#a3ceb894d5e9b99f2df88b8741d7454b4" target="_top" xlink:title="LocalCommand_macro\l_command">
<polygon fill="none" stroke="black" points="343.5,-819.963 343.5,-849.963 460.5,-849.963 460.5,-819.963 343.5,-819.963"/>
<text text-anchor="start" x="351.5" y="-837.963" font-family="Helvetica,sans-Serif" font-size="10.00">LocalCommand_macro</text>
<text text-anchor="middle" x="402" y="-826.963" font-family="Helvetica,sans-Serif" font-size="10.00">_command</text>
</a>
</g>
</g>
<!-- Node1&#45;&gt;Node35 -->
<g id="edge56" class="edge"><title>Node1&#45;&gt;Node35</title>
<path fill="none" stroke="midnightblue" d="M55.951,-730.517C70.4941,-742.695 97.4481,-763.535 124,-774.963 192.006,-804.234 275.762,-819.824 333.26,-827.704"/>
<polygon fill="midnightblue" stroke="midnightblue" points="332.95,-831.193 343.324,-829.041 333.872,-824.254 332.95,-831.193"/>
</g>
<!-- Node36 -->
<g id="node36" class="node"><title>Node36</title>
<g id="a_node36"><a xlink:href="../../df/d8c/cl__cmd_8qc.html#ac1a03af5c66e122f2e7ab5298a3df6f0" target="_top" xlink:title="LocalCommand_macro_help">
<polygon fill="none" stroke="black" points="133,-317.463 133,-336.463 273,-336.463 273,-317.463 133,-317.463"/>
<text text-anchor="middle" x="203" y="-324.463" font-family="Helvetica,sans-Serif" font-size="10.00">LocalCommand_macro_help</text>
</a>
</g>
</g>
<!-- Node1&#45;&gt;Node36 -->
<g id="edge59" class="edge"><title>Node1&#45;&gt;Node36</title>
<path fill="none" stroke="midnightblue" d="M45.7562,-711.335C50.0727,-658.733 73.2144,-406.435 124,-350.963 127.498,-347.142 131.588,-343.923 136.029,-341.212"/>
<polygon fill="midnightblue" stroke="midnightblue" points="137.668,-344.305 144.94,-336.6 134.451,-338.089 137.668,-344.305"/>
</g>
<!-- Node37 -->
<g id="node37" class="node"><title>Node37</title>
<g id="a_node37"><a xlink:href="../../df/d8c/cl__cmd_8qc.html#a1d2657033c7343e97c079ba5b3a24e66" target="_top" xlink:title="LocalCommand_macro\l_usage">
<polygon fill="none" stroke="black" points="343.5,-770.963 343.5,-800.963 460.5,-800.963 460.5,-770.963 343.5,-770.963"/>
<text text-anchor="start" x="351.5" y="-788.963" font-family="Helvetica,sans-Serif" font-size="10.00">LocalCommand_macro</text>
<text text-anchor="middle" x="402" y="-777.963" font-family="Helvetica,sans-Serif" font-size="10.00">_usage</text>
</a>
</g>
</g>
<!-- Node1&#45;&gt;Node37 -->
<g id="edge60" class="edge"><title>Node1&#45;&gt;Node37</title>
<path fill="none" stroke="midnightblue" d="M70.2886,-730.563C85.6326,-736.066 105.719,-742.704 124,-746.963 194.463,-763.381 276.723,-773.898 333.187,-779.822"/>
<polygon fill="midnightblue" stroke="midnightblue" points="333.116,-783.333 343.422,-780.875 333.832,-776.37 333.116,-783.333"/>
</g>
<!-- Node4 -->
<g id="node4" class="node"><title>Node4</title>
<g id="a_node4"><a xlink:href="../../dd/d31/banning_8qc.html#aef90e766b88f13ff4894434a476e4114" target="_top" xlink:title="BanCommand_macro_command">
<polygon fill="none" stroke="black" points="322.5,-985.463 322.5,-1004.46 481.5,-1004.46 481.5,-985.463 322.5,-985.463"/>
<text text-anchor="middle" x="402" y="-992.463" font-family="Helvetica,sans-Serif" font-size="10.00">BanCommand_macro_command</text>
</a>
</g>
</g>
<!-- Node3&#45;&gt;Node4 -->
<g id="edge3" class="edge"><title>Node3&#45;&gt;Node4</title>
<path fill="none" stroke="midnightblue" d="M242.921,-1019.04C267.295,-1015.32 299.466,-1010.43 328.42,-1006.02"/>
<polygon fill="midnightblue" stroke="midnightblue" points="329.15,-1009.45 338.509,-1004.48 328.096,-1002.53 329.15,-1009.45"/>
</g>
<!-- Node7&#45;&gt;Node2 -->
<g id="edge7" class="edge"><title>Node7&#45;&gt;Node2</title>
<path fill="none" stroke="midnightblue" d="M469.221,-674.983C503.952,-682.86 544.556,-692.069 570.51,-697.955"/>
<polygon fill="midnightblue" stroke="midnightblue" points="569.823,-701.388 580.35,-700.187 571.371,-694.562 569.823,-701.388"/>
</g>
<!-- Node7&#45;&gt;Node8 -->
<g id="edge8" class="edge"><title>Node7&#45;&gt;Node8</title>
<path fill="none" stroke="midnightblue" d="M465.729,-674.975C472.808,-677.789 479.723,-681.093 486,-684.963 505.803,-697.173 503.569,-708.767 522,-722.963 535.564,-733.411 552.135,-742.769 566.248,-749.898"/>
<polygon fill="midnightblue" stroke="midnightblue" points="565.039,-753.203 575.559,-754.463 568.121,-746.918 565.039,-753.203"/>
</g>
<!-- Node10 -->
<g id="node10" class="node"><title>Node10</title>
<g id="a_node10"><a xlink:href="../../d2/d06/server_2command_2common_8qh.html#a37f1c035bd3cc63c8ef7d58dd12958ee" target="_top" xlink:title="print_to">
<polygon fill="none" stroke="black" points="377.5,-431.463 377.5,-450.463 426.5,-450.463 426.5,-431.463 377.5,-431.463"/>
<text text-anchor="middle" x="402" y="-438.463" font-family="Helvetica,sans-Serif" font-size="10.00">print_to</text>
</a>
</g>
</g>
<!-- Node9&#45;&gt;Node10 -->
<g id="edge10" class="edge"><title>Node9&#45;&gt;Node10</title>
<path fill="none" stroke="midnightblue" d="M263.481,-559.372C270.04,-556.915 276.372,-553.831 282,-549.963 305.166,-534.043 298.086,-517.802 318,-497.963 334.823,-481.204 357.163,-466.181 374.428,-455.771"/>
<polygon fill="midnightblue" stroke="midnightblue" points="376.582,-458.564 383.43,-450.48 373.036,-452.529 376.582,-458.564"/>
</g>
<!-- Node11 -->
<g id="node11" class="node"><title>Node11</title>
<g id="a_node11"><a xlink:href="../../d8/de2/menudefs_8qc.html#a4ae54ed78d55acc008e6fcf8c72e779f" target="_top" xlink:title="sprint">
<polygon fill="none" stroke="black" points="577.5,-431.463 577.5,-450.463 618.5,-450.463 618.5,-431.463 577.5,-431.463"/>
<text text-anchor="middle" x="598" y="-438.463" font-family="Helvetica,sans-Serif" font-size="10.00">sprint</text>
</a>
</g>
</g>
<!-- Node10&#45;&gt;Node11 -->
<g id="edge11" class="edge"><title>Node10&#45;&gt;Node11</title>
<path fill="none" stroke="midnightblue" d="M426.788,-440.963C462.21,-440.963 528.77,-440.963 567.326,-440.963"/>
<polygon fill="midnightblue" stroke="midnightblue" points="567.409,-444.463 577.409,-440.963 567.409,-437.463 567.409,-444.463"/>
</g>
<!-- Node10&#45;&gt;Node12 -->
<g id="edge12" class="edge"><title>Node10&#45;&gt;Node12</title>
<path fill="none" stroke="midnightblue" d="M419.207,-431.44C453.085,-411.532 531.598,-365.395 571.996,-341.657"/>
<polygon fill="midnightblue" stroke="midnightblue" points="573.855,-344.624 580.703,-336.54 570.308,-338.589 573.855,-344.624"/>
</g>
<!-- Node13&#45;&gt;Node2 -->
<g id="edge14" class="edge"><title>Node13&#45;&gt;Node2</title>
<path fill="none" stroke="midnightblue" d="M469.384,-870.703C475.489,-867.577 481.18,-863.72 486,-858.963 523.82,-821.644 488.253,-786.003 522,-744.963 534.645,-729.586 554.633,-719.066 570.796,-712.536"/>
<polygon fill="midnightblue" stroke="midnightblue" points="572.136,-715.771 580.266,-708.977 569.674,-709.218 572.136,-715.771"/>
</g>
<!-- Node13&#45;&gt;Node8 -->
<g id="edge15" class="edge"><title>Node13&#45;&gt;Node8</title>
<path fill="none" stroke="midnightblue" d="M463.598,-868.951C471.343,-866.102 479.001,-862.789 486,-858.963 524.315,-838.02 561.294,-802.285 581.407,-781.122"/>
<polygon fill="midnightblue" stroke="midnightblue" points="584.225,-783.233 588.489,-773.534 579.108,-778.457 584.225,-783.233"/>
</g>
<!-- Node14&#45;&gt;Node2 -->
<g id="edge17" class="edge"><title>Node14&#45;&gt;Node2</title>
<path fill="none" stroke="midnightblue" d="M468.063,-1026.46C474.818,-1023.48 481.019,-1019.42 486,-1013.96 567.28,-924.839 453.715,-844.395 522,-744.963 533.409,-728.35 553.822,-717.824 570.473,-711.603"/>
<polygon fill="midnightblue" stroke="midnightblue" points="571.907,-714.812 580.241,-708.27 569.647,-708.187 571.907,-714.812"/>
</g>
<!-- Node14&#45;&gt;Node8 -->
<g id="edge20" class="edge"><title>Node14&#45;&gt;Node8</title>
<path fill="none" stroke="midnightblue" d="M468.328,-1024.31C474.709,-1021.67 480.751,-1018.29 486,-1013.96 560.5,-952.602 586.67,-831.097 594.293,-783.622"/>
<polygon fill="midnightblue" stroke="midnightblue" points="597.794,-783.872 595.816,-773.464 590.872,-782.834 597.794,-783.872"/>
</g>
<!-- Node15 -->
<g id="node15" class="node"><title>Node15</title>
<g id="a_node15"><a xlink:href="../../df/d8c/cl__cmd_8qc.html#a6497b1027ea1b049168e22a633df8c9f" target="_top" xlink:title="ConsoleCommand_macro\l_movement">
<polygon fill="none" stroke="black" points="533,-992.963 533,-1022.96 663,-1022.96 663,-992.963 533,-992.963"/>
<text text-anchor="start" x="541" y="-1010.96" font-family="Helvetica,sans-Serif" font-size="10.00">ConsoleCommand_macro</text>
<text text-anchor="middle" x="598" y="-999.963" font-family="Helvetica,sans-Serif" font-size="10.00">_movement</text>
</a>
</g>
</g>
<!-- Node14&#45;&gt;Node15 -->
<g id="edge18" class="edge"><title>Node14&#45;&gt;Node15</title>
<path fill="none" stroke="midnightblue" d="M468.139,-1024.57C485.611,-1022.32 504.635,-1019.87 522.57,-1017.55"/>
<polygon fill="midnightblue" stroke="midnightblue" points="523.222,-1021 532.692,-1016.25 522.327,-1014.06 523.222,-1021"/>
</g>
<!-- Node16 -->
<g id="node16" class="node"><title>Node16</title>
<g id="a_node16"><a xlink:href="../../df/d8c/cl__cmd_8qc.html#a38b84c56676c910a134fae17d7394781" target="_top" xlink:title="ConsoleCommand_macro\l_normal">
<polygon fill="none" stroke="black" points="533,-1041.96 533,-1071.96 663,-1071.96 663,-1041.96 533,-1041.96"/>
<text text-anchor="start" x="541" y="-1059.96" font-family="Helvetica,sans-Serif" font-size="10.00">ConsoleCommand_macro</text>
<text text-anchor="middle" x="598" y="-1048.96" font-family="Helvetica,sans-Serif" font-size="10.00">_normal</text>
</a>
</g>
</g>
<!-- Node14&#45;&gt;Node16 -->
<g id="edge19" class="edge"><title>Node14&#45;&gt;Node16</title>
<path fill="none" stroke="midnightblue" d="M468.139,-1041.02C485.611,-1043.18 504.635,-1045.54 522.57,-1047.76"/>
<polygon fill="midnightblue" stroke="midnightblue" points="522.338,-1051.25 532.692,-1049.01 523.198,-1044.31 522.338,-1051.25"/>
</g>
<!-- Node17&#45;&gt;Node2 -->
<g id="edge23" class="edge"><title>Node17&#45;&gt;Node2</title>
<path fill="none" stroke="midnightblue" d="M451.954,-732.374C489.507,-725.019 539.914,-715.145 570.342,-709.185"/>
<polygon fill="midnightblue" stroke="midnightblue" points="571.077,-712.608 580.218,-707.25 569.732,-705.738 571.077,-712.608"/>
</g>
<!-- Node17&#45;&gt;Node8 -->
<g id="edge22" class="edge"><title>Node17&#45;&gt;Node8</title>
<path fill="none" stroke="midnightblue" d="M486.118,-751.389C511.279,-754.242 537.713,-757.24 558.458,-759.593"/>
<polygon fill="midnightblue" stroke="midnightblue" points="558.121,-763.077 568.452,-760.726 558.91,-756.121 558.121,-763.077"/>
</g>
<!-- Node19&#45;&gt;Node2 -->
<g id="edge27" class="edge"><title>Node19&#45;&gt;Node2</title>
<path fill="none" stroke="midnightblue" d="M478.005,-703.963C510.552,-703.963 546.587,-703.963 570.382,-703.963"/>
<polygon fill="midnightblue" stroke="midnightblue" points="570.397,-707.463 580.397,-703.963 570.397,-700.463 570.397,-707.463"/>
</g>
<!-- Node19&#45;&gt;Node8 -->
<g id="edge26" class="edge"><title>Node19&#45;&gt;Node8</title>
<path fill="none" stroke="midnightblue" d="M449.373,-713.469C461.382,-716.233 474.241,-719.461 486,-722.963 512.806,-730.946 542.495,-742.034 564.419,-750.667"/>
<polygon fill="midnightblue" stroke="midnightblue" points="563.322,-753.997 573.907,-754.441 565.909,-747.493 563.322,-753.997"/>
</g>
<!-- Node20&#45;&gt;Node2 -->
<g id="edge29" class="edge"><title>Node20&#45;&gt;Node2</title>
<path fill="none" stroke="midnightblue" d="M224.128,-260.466C242.059,-269.978 267.62,-286.306 282,-307.963 320.402,-365.8 268.662,-411.122 318,-459.963 372.404,-513.82 425.035,-451.665 486,-497.963 550.014,-546.577 581.383,-643.1 592.33,-684.436"/>
<polygon fill="midnightblue" stroke="midnightblue" points="588.989,-685.499 594.835,-694.334 595.775,-683.781 588.989,-685.499"/>
</g>
<!-- Node20&#45;&gt;Node12 -->
<g id="edge48" class="edge"><title>Node20&#45;&gt;Node12</title>
<path fill="none" stroke="midnightblue" d="M218.364,-260.507C239.274,-273.836 279.782,-297.558 318,-307.963 406.123,-331.956 515.391,-330.947 567.142,-328.725"/>
<polygon fill="midnightblue" stroke="midnightblue" points="567.462,-332.214 577.283,-328.241 567.128,-325.222 567.462,-332.214"/>
</g>
<!-- Node21 -->
<g id="node21" class="node"><title>Node21</title>
<g id="a_node21"><a xlink:href="../../d8/de2/menudefs_8qc.html#ad5a3e16aa960bd72d3ca37a618eea802" target="_top" xlink:title="floor">
<polygon fill="none" stroke="black" points="714.5,-279.463 714.5,-298.463 749.5,-298.463 749.5,-279.463 714.5,-279.463"/>
<text text-anchor="middle" x="732" y="-286.463" font-family="Helvetica,sans-Serif" font-size="10.00">floor</text>
</a>
</g>
</g>
<!-- Node20&#45;&gt;Node21 -->
<g id="edge30" class="edge"><title>Node20&#45;&gt;Node21</title>
<path fill="none" stroke="midnightblue" d="M217.126,-260.549C246.483,-281.969 315.116,-331.932 318,-332.963 467.073,-386.301 527.724,-406.553 674,-345.963 693.091,-338.055 709.122,-320.307 719.272,-306.701"/>
<polygon fill="midnightblue" stroke="midnightblue" points="722.152,-308.689 725.065,-298.503 716.436,-304.649 722.152,-308.689"/>
</g>
<!-- Node22 -->
<g id="node22" class="node"><title>Node22</title>
<g id="a_node22"><a xlink:href="../../df/da7/generic_8qc.html#a4f11464afe3db58f51d8198dd57a703f" target="_top" xlink:title="GenericCommand_macro\l_command">
<polygon fill="none" stroke="black" points="338,-507.963 338,-537.963 466,-537.963 466,-507.963 338,-507.963"/>
<text text-anchor="start" x="346" y="-525.963" font-family="Helvetica,sans-Serif" font-size="10.00">GenericCommand_macro</text>
<text text-anchor="middle" x="402" y="-514.963" font-family="Helvetica,sans-Serif" font-size="10.00">_command</text>
</a>
</g>
</g>
<!-- Node20&#45;&gt;Node22 -->
<g id="edge31" class="edge"><title>Node20&#45;&gt;Node22</title>
<path fill="none" stroke="midnightblue" d="M224.684,-260.516C242.737,-269.963 268.15,-286.162 282,-307.963 326.916,-378.667 263.522,-429.335 318,-492.963 321.254,-496.764 325.029,-500.083 329.138,-502.982"/>
<polygon fill="midnightblue" stroke="midnightblue" points="327.621,-506.156 337.983,-508.361 331.258,-500.175 327.621,-506.156"/>
</g>
<!-- Node23 -->
<g id="node23" class="node"><title>Node23</title>
<g id="a_node23"><a xlink:href="../../dd/dee/markup_8qc.html#a088441ad2b78dddb6437e32f60ad4a01" target="_top" xlink:title="GenericCommand_markup">
<polygon fill="none" stroke="black" points="335.5,-241.463 335.5,-260.463 468.5,-260.463 468.5,-241.463 335.5,-241.463"/>
<text text-anchor="middle" x="402" y="-248.463" font-family="Helvetica,sans-Serif" font-size="10.00">GenericCommand_markup</text>
</a>
</g>
</g>
<!-- Node20&#45;&gt;Node23 -->
<g id="edge34" class="edge"><title>Node20&#45;&gt;Node23</title>
<path fill="none" stroke="midnightblue" d="M250.686,-250.963C272.887,-250.963 299.996,-250.963 325.049,-250.963"/>
<polygon fill="midnightblue" stroke="midnightblue" points="325.269,-254.463 335.269,-250.963 325.269,-247.463 325.269,-254.463"/>
</g>
<!-- Node25 -->
<g id="node25" class="node"><title>Node25</title>
<g id="a_node25"><a xlink:href="../../d8/de2/menudefs_8qc.html#a274680f571a231ddf29421b93d434bfa" target="_top" xlink:title="strlen">
<polygon fill="none" stroke="black" points="577.5,-203.463 577.5,-222.463 618.5,-222.463 618.5,-203.463 577.5,-203.463"/>
<text text-anchor="middle" x="598" y="-210.463" font-family="Helvetica,sans-Serif" font-size="10.00">strlen</text>
</a>
</g>
</g>
<!-- Node20&#45;&gt;Node25 -->
<g id="edge49" class="edge"><title>Node20&#45;&gt;Node25</title>
<path fill="none" stroke="midnightblue" d="M250.722,-242.124C271.289,-238.505 295.78,-234.565 318,-231.963 408.486,-221.367 516.227,-216.096 567.307,-214.037"/>
<polygon fill="midnightblue" stroke="midnightblue" points="567.465,-217.534 577.321,-213.646 567.192,-210.539 567.465,-217.534"/>
</g>
<!-- Node26 -->
<g id="node26" class="node"><title>Node26</title>
<g id="a_node26"><a xlink:href="../../d8/de2/menudefs_8qc.html#a40f6c65c8bbcfa51df783f2809a2502b" target="_top" xlink:title="substring">
<polygon fill="none" stroke="black" points="570,-127.463 570,-146.463 626,-146.463 626,-127.463 570,-127.463"/>
<text text-anchor="middle" x="598" y="-134.463" font-family="Helvetica,sans-Serif" font-size="10.00">substring</text>
</a>
</g>
</g>
<!-- Node20&#45;&gt;Node26 -->
<g id="edge50" class="edge"><title>Node20&#45;&gt;Node26</title>
<path fill="none" stroke="midnightblue" d="M208.645,-241.102C221.57,-214.992 260.807,-144.268 318,-117.963 398.763,-80.8174 506.726,-106.529 561.662,-124.183"/>
<polygon fill="midnightblue" stroke="midnightblue" points="560.691,-127.548 571.285,-127.369 562.891,-120.903 560.691,-127.548"/>
</g>
<!-- Node27 -->
<g id="node27" class="node"><title>Node27</title>
<g id="a_node27"><a xlink:href="../../d5/df2/common_2util_8qh.html#a981aa7efb1dbc17c92ba11492dc10c57" target="_top" xlink:title="hsl_to_rgb">
<polygon fill="none" stroke="black" points="371,-51.4633 371,-70.4633 433,-70.4633 433,-51.4633 371,-51.4633"/>
<text text-anchor="middle" x="402" y="-58.4633" font-family="Helvetica,sans-Serif" font-size="10.00">hsl_to_rgb</text>
</a>
</g>
</g>
<!-- Node20&#45;&gt;Node27 -->
<g id="edge39" class="edge"><title>Node20&#45;&gt;Node27</title>
<path fill="none" stroke="midnightblue" d="M207.785,-241.381C219.528,-212.912 258.188,-128.14 318,-84.9633 330.55,-75.9039 346.468,-70.2485 360.999,-66.7248"/>
<polygon fill="midnightblue" stroke="midnightblue" points="361.745,-70.1445 370.78,-64.6102 360.266,-63.3025 361.745,-70.1445"/>
</g>
<!-- Node29 -->
<g id="node29" class="node"><title>Node29</title>
<g id="a_node29"><a xlink:href="../../d4/d0c/csprogsdefs_8qc.html#a4f0b78b1785821ba47129edb68e70f9e" target="_top" xlink:title="vector">
<polygon fill="none" stroke="black" points="710,-32.4633 710,-51.4633 754,-51.4633 754,-32.4633 710,-32.4633"/>
<text text-anchor="middle" x="732" y="-39.4633" font-family="Helvetica,sans-Serif" font-size="10.00">vector</text>
</a>
</g>
</g>
<!-- Node20&#45;&gt;Node29 -->
<g id="edge51" class="edge"><title>Node20&#45;&gt;Node29</title>
<path fill="none" stroke="midnightblue" d="M205.761,-241.077C212.59,-206.084 240.876,-87.7465 318,-41.9633 442.29,31.8192 626.926,-10.5976 699.801,-31.9629"/>
<polygon fill="midnightblue" stroke="midnightblue" points="699.137,-35.4181 709.721,-34.9461 701.153,-28.7146 699.137,-35.4181"/>
</g>
<!-- Node30 -->
<g id="node30" class="node"><title>Node30</title>
<g id="a_node30"><a xlink:href="../../d8/de2/menudefs_8qc.html#aebeeec7a2529f36483e14f76b1871271" target="_top" xlink:title="max">
<polygon fill="none" stroke="black" points="384.5,-165.463 384.5,-184.463 419.5,-184.463 419.5,-165.463 384.5,-165.463"/>
<text text-anchor="middle" x="402" y="-172.463" font-family="Helvetica,sans-Serif" font-size="10.00">max</text>
</a>
</g>
</g>
<!-- Node20&#45;&gt;Node30 -->
<g id="edge43" class="edge"><title>Node20&#45;&gt;Node30</title>
<path fill="none" stroke="midnightblue" d="M222.605,-241.452C244.886,-230.304 283.525,-211.732 318,-198.963 336.462,-192.125 357.81,-185.99 374.232,-181.635"/>
<polygon fill="midnightblue" stroke="midnightblue" points="375.432,-184.94 384.233,-179.04 373.674,-178.164 375.432,-184.94"/>
</g>
<!-- Node31 -->
<g id="node31" class="node"><title>Node31</title>
<g id="a_node31"><a xlink:href="../../d8/de2/menudefs_8qc.html#a663ea6aa3c4923b3e065cf91cc319f1b" target="_top" xlink:title="random">
<polygon fill="none" stroke="black" points="377.5,-127.463 377.5,-146.463 426.5,-146.463 426.5,-127.463 377.5,-127.463"/>
<text text-anchor="middle" x="402" y="-134.463" font-family="Helvetica,sans-Serif" font-size="10.00">random</text>
</a>
</g>
</g>
<!-- Node20&#45;&gt;Node31 -->
<g id="edge44" class="edge"><title>Node20&#45;&gt;Node31</title>
<path fill="none" stroke="midnightblue" d="M212.394,-241.447C229.965,-222.156 272.751,-178.376 318,-155.963 333.283,-148.393 351.649,-143.788 367.215,-141.012"/>
<polygon fill="midnightblue" stroke="midnightblue" points="368.151,-144.406 377.472,-139.368 367.044,-137.494 368.151,-144.406"/>
</g>
<!-- Node32 -->
<g id="node32" class="node"><title>Node32</title>
<g id="a_node32"><a xlink:href="../../d5/df2/common_2util_8qh.html#aca8aaff26f911c335ec938226743b7ab" target="_top" xlink:title="rgb_to_hexcolor">
<polygon fill="none" stroke="black" points="359,-279.463 359,-298.463 445,-298.463 445,-279.463 359,-279.463"/>
<text text-anchor="middle" x="402" y="-286.463" font-family="Helvetica,sans-Serif" font-size="10.00">rgb_to_hexcolor</text>
</a>
</g>
</g>
<!-- Node20&#45;&gt;Node32 -->
<g id="edge45" class="edge"><title>Node20&#45;&gt;Node32</title>
<path fill="none" stroke="midnightblue" d="M250.686,-259.969C280.127,-265.648 318.201,-272.992 348.663,-278.868"/>
<polygon fill="midnightblue" stroke="midnightblue" points="348.196,-282.342 358.678,-280.8 349.522,-275.469 348.196,-282.342"/>
</g>
<!-- Node22&#45;&gt;Node2 -->
<g id="edge32" class="edge"><title>Node22&#45;&gt;Node2</title>
<path fill="none" stroke="midnightblue" d="M458.909,-538.004C468.46,-541.982 477.9,-546.909 486,-552.963 534.913,-589.523 571.769,-653.64 587.955,-685.255"/>
<polygon fill="midnightblue" stroke="midnightblue" points="584.874,-686.919 592.473,-694.301 591.136,-683.791 584.874,-686.919"/>
</g>
<!-- Node22&#45;&gt;Node8 -->
<g id="edge33" class="edge"><title>Node22&#45;&gt;Node8</title>
<path fill="none" stroke="midnightblue" d="M431.602,-538.031C449.757,-549.007 472.327,-565.509 486,-585.963 520.987,-638.302 483.215,-673.373 522,-722.963 531.508,-735.12 545.668,-744.166 559.132,-750.622"/>
<polygon fill="midnightblue" stroke="midnightblue" points="557.717,-753.823 568.276,-754.685 560.559,-747.426 557.717,-753.823"/>
</g>
<!-- Node23&#45;&gt;Node12 -->
<g id="edge36" class="edge"><title>Node23&#45;&gt;Node12</title>
<path fill="none" stroke="midnightblue" d="M454.06,-260.541C464.757,-263.132 475.862,-266.266 486,-269.963 517.164,-281.329 550.76,-299.491 572.729,-312.253"/>
<polygon fill="midnightblue" stroke="midnightblue" points="570.999,-315.296 581.391,-317.356 574.552,-309.265 570.999,-315.296"/>
</g>
<!-- Node24 -->
<g id="node24" class="node"><title>Node24</title>
<g id="a_node24"><a xlink:href="../../dd/dee/markup_8qc.html#a9c875bc4a887ef4f2209ade5560e3e0c" target="_top" xlink:title="GenericCommand_markup_init">
<polygon fill="none" stroke="black" points="522.5,-241.463 522.5,-260.463 673.5,-260.463 673.5,-241.463 522.5,-241.463"/>
<text text-anchor="middle" x="598" y="-248.463" font-family="Helvetica,sans-Serif" font-size="10.00">GenericCommand_markup_init</text>
</a>
</g>
</g>
<!-- Node23&#45;&gt;Node24 -->
<g id="edge35" class="edge"><title>Node23&#45;&gt;Node24</title>
<path fill="none" stroke="midnightblue" d="M468.68,-250.963C482.702,-250.963 497.702,-250.963 512.323,-250.963"/>
<polygon fill="midnightblue" stroke="midnightblue" points="512.367,-254.463 522.367,-250.963 512.367,-247.463 512.367,-254.463"/>
</g>
<!-- Node23&#45;&gt;Node25 -->
<g id="edge37" class="edge"><title>Node23&#45;&gt;Node25</title>
<path fill="none" stroke="midnightblue" d="M451.954,-241.374C488.303,-234.255 536.692,-224.776 567.353,-218.771"/>
<polygon fill="midnightblue" stroke="midnightblue" points="568.269,-222.158 577.409,-216.801 566.923,-215.288 568.269,-222.158"/>
</g>
<!-- Node23&#45;&gt;Node26 -->
<g id="edge38" class="edge"><title>Node23&#45;&gt;Node26</title>
<path fill="none" stroke="midnightblue" d="M419.207,-241.44C453.085,-221.532 531.598,-175.395 571.996,-151.657"/>
<polygon fill="midnightblue" stroke="midnightblue" points="573.855,-154.624 580.703,-146.54 570.308,-148.589 573.855,-154.624"/>
</g>
<!-- Node28 -->
<g id="node28" class="node"><title>Node28</title>
<g id="a_node28"><a xlink:href="../../de/d11/color_8qh.html#aa7da04bfd952907e3b7af99840772265" target="_top" xlink:title="hue_mi_ma_to_rgb">
<polygon fill="none" stroke="black" points="548.5,-51.4633 548.5,-70.4633 647.5,-70.4633 647.5,-51.4633 548.5,-51.4633"/>
<text text-anchor="middle" x="598" y="-58.4633" font-family="Helvetica,sans-Serif" font-size="10.00">hue_mi_ma_to_rgb</text>
</a>
</g>
</g>
<!-- Node27&#45;&gt;Node28 -->
<g id="edge40" class="edge"><title>Node27&#45;&gt;Node28</title>
<path fill="none" stroke="midnightblue" d="M433.312,-60.9633C461.343,-60.9633 503.775,-60.9633 538.413,-60.9633"/>
<polygon fill="midnightblue" stroke="midnightblue" points="538.421,-64.4634 548.421,-60.9633 538.421,-57.4634 538.421,-64.4634"/>
</g>
<!-- Node28&#45;&gt;Node21 -->
<g id="edge41" class="edge"><title>Node28&#45;&gt;Node21</title>
<path fill="none" stroke="midnightblue" d="M617.268,-70.5766C634.231,-80.3773 659.053,-97.0857 674,-117.963 708.206,-165.742 722.899,-235.429 728.301,-269.181"/>
<polygon fill="midnightblue" stroke="midnightblue" points="724.853,-269.792 729.792,-279.166 731.777,-268.758 724.853,-269.792"/>
</g>
<!-- Node28&#45;&gt;Node29 -->
<g id="edge42" class="edge"><title>Node28&#45;&gt;Node29</title>
<path fill="none" stroke="midnightblue" d="M647.777,-53.9424C665.201,-51.4344 684.347,-48.6785 699.877,-46.4431"/>
<polygon fill="midnightblue" stroke="midnightblue" points="700.587,-49.8771 709.986,-44.988 699.59,-42.9485 700.587,-49.8771"/>
</g>
<!-- Node32&#45;&gt;Node12 -->
<g id="edge47" class="edge"><title>Node32&#45;&gt;Node12</title>
<path fill="none" stroke="midnightblue" d="M445.095,-297.209C482.1,-304.457 535.001,-314.819 567.613,-321.207"/>
<polygon fill="midnightblue" stroke="midnightblue" points="566.957,-324.645 577.443,-323.133 568.302,-317.775 566.957,-324.645"/>
</g>
<!-- Node32&#45;&gt;Node21 -->
<g id="edge46" class="edge"><title>Node32&#45;&gt;Node21</title>
<path fill="none" stroke="midnightblue" d="M445.209,-288.963C513.661,-288.963 646.965,-288.963 704.027,-288.963"/>
<polygon fill="midnightblue" stroke="midnightblue" points="704.381,-292.463 714.381,-288.963 704.381,-285.463 704.381,-292.463"/>
</g>
<!-- Node34&#45;&gt;Node2 -->
<g id="edge54" class="edge"><title>Node34&#45;&gt;Node2</title>
<path fill="none" stroke="midnightblue" d="M462.657,-626.057C470.629,-628.697 478.6,-631.669 486,-634.963 519.341,-649.806 554.603,-673.234 576.211,-688.602"/>
<polygon fill="midnightblue" stroke="midnightblue" points="574.165,-691.442 584.324,-694.451 578.259,-685.763 574.165,-691.442"/>
</g>
<!-- Node34&#45;&gt;Node8 -->
<g id="edge55" class="edge"><title>Node34&#45;&gt;Node8</title>
<path fill="none" stroke="midnightblue" d="M466.064,-622.464C473.328,-625.665 480.198,-629.75 486,-634.963 517.433,-663.206 493.838,-691.458 522,-722.963 532.446,-734.649 547.04,-743.672 560.58,-750.239"/>
<polygon fill="midnightblue" stroke="midnightblue" points="559.17,-753.443 569.722,-754.396 562.068,-747.071 559.17,-753.443"/>
</g>
<!-- Node35&#45;&gt;Node2 -->
<g id="edge57" class="edge"><title>Node35&#45;&gt;Node2</title>
<path fill="none" stroke="midnightblue" d="M460.811,-823.91C469.847,-820.453 478.621,-815.916 486,-809.963 511.704,-789.229 498.584,-768.25 522,-744.963 535.81,-731.229 555.174,-720.801 570.766,-713.899"/>
<polygon fill="midnightblue" stroke="midnightblue" points="572.502,-716.966 580.372,-709.873 569.796,-710.51 572.502,-716.966"/>
</g>
<!-- Node35&#45;&gt;Node8 -->
<g id="edge58" class="edge"><title>Node35&#45;&gt;Node8</title>
<path fill="none" stroke="midnightblue" d="M455.948,-819.882C465.988,-816.778 476.362,-813.402 486,-809.963 513.554,-800.132 544.232,-787.267 566.341,-777.643"/>
<polygon fill="midnightblue" stroke="midnightblue" points="567.802,-780.824 575.555,-773.603 564.992,-774.413 567.802,-780.824"/>
</g>
<!-- Node37&#45;&gt;Node2 -->
<g id="edge61" class="edge"><title>Node37&#45;&gt;Node2</title>
<path fill="none" stroke="midnightblue" d="M457.959,-770.951C467.415,-767.931 477.068,-764.567 486,-760.963 516.411,-748.694 549.668,-731.005 571.772,-718.595"/>
<polygon fill="midnightblue" stroke="midnightblue" points="573.551,-721.61 580.522,-713.631 570.097,-715.522 573.551,-721.61"/>
</g>
<!-- Node37&#45;&gt;Node8 -->
<g id="edge62" class="edge"><title>Node37&#45;&gt;Node8</title>
<path fill="none" stroke="midnightblue" d="M460.681,-779.422C492.175,-775.851 530.327,-771.524 558.25,-768.358"/>
<polygon fill="midnightblue" stroke="midnightblue" points="558.873,-771.809 568.415,-767.205 558.085,-764.854 558.873,-771.809"/>
</g>
</g>
</svg>
        <g id="navigator" transform="translate(0 0)" fill="#404254">
                <rect fill="#f2f5e9" fill-opacity="0.5" stroke="#606060" stroke-width=".5" x="0" y="0" width="60" height="60"/>
                <use id="zoomplus" xlink:href="#zoomPlus" x="17" y="9" onmousedown="handleZoom(evt,'in')"/>
                <use id="zoomminus" xlink:href="#zoomMin" x="42" y="9" onmousedown="handleZoom(evt,'out')"/>
                <use id="reset" xlink:href="#resetDef" x="30" y="36" onmousedown="handleReset()"/>
                <g id="arrowUp" xlink:href="#dirArrow" transform="translate(30 24)" onmousedown="handlePan(0,-1)">
                  <use xlink:href="#rim" fill="#404040">
                        <set attributeName="fill" to="#808080" begin="arrowUp.mouseover" end="arrowUp.mouseout"/>
                  </use>
                  <path fill="none" stroke="white" stroke-width="1.5" d="M0,-3.0v7 M-2.5,-0.5L0,-3.0L2.5,-0.5"/>
                </g>
                <g id="arrowRight" xlink:href="#dirArrow" transform="rotate(90) translate(36 -43)" onmousedown="handlePan(1,0)">
                  <use xlink:href="#rim" fill="#404040">
                        <set attributeName="fill" to="#808080" begin="arrowRight.mouseover" end="arrowRight.mouseout"/>
                  </use>
                  <path fill="none" stroke="white" stroke-width="1.5" d="M0,-3.0v7 M-2.5,-0.5L0,-3.0L2.5,-0.5"/>
                </g>
                <g id="arrowDown" xlink:href="#dirArrow" transform="rotate(180) translate(-30 -48)" onmousedown="handlePan(0,1)">
                  <use xlink:href="#rim" fill="#404040">
                        <set attributeName="fill" to="#808080" begin="arrowDown.mouseover" end="arrowDown.mouseout"/>
                  </use>
                  <path fill="none" stroke="white" stroke-width="1.5" d="M0,-3.0v7 M-2.5,-0.5L0,-3.0L2.5,-0.5"/>
                </g>
                <g id="arrowLeft" xlink:href="#dirArrow" transform="rotate(270) translate(-36 17)" onmousedown="handlePan(-1,0)">
                  <use xlink:href="#rim" fill="#404040">
                        <set attributeName="fill" to="#808080" begin="arrowLeft.mouseover" end="arrowLeft.mouseout"/>
                  </use>
                  <path fill="none" stroke="white" stroke-width="1.5" d="M0,-3.0v7 M-2.5,-0.5L0,-3.0L2.5,-0.5"/>
                </g>
        </g>
        <svg viewBox="0 0 15 15" width="100%" height="30px" preserveAspectRatio="xMaxYMin meet">
         <g id="arrow_out" transform="scale(0.3 0.3)">
          <a xlink:href="sv__cmd_8qc_ace6e22b7f453fe00f6629955c25e4fdc_cgraph_org.svg" target="_base">
           <rect id="button" ry="5" rx="5" y="6" x="6" height="38" width="38"
                fill="#f2f5e9" fill-opacity="0.5" stroke="#606060" stroke-width="1.0"/>
           <path id="arrow"
             d="M 11.500037,31.436501 C 11.940474,20.09759 22.043105,11.32322 32.158766,21.979434 L 37.068811,17.246167 C 37.068811,17.246167 37.088388,32 37.088388,32 L 22.160133,31.978069 C 22.160133,31.978069 26.997745,27.140456 26.997745,27.140456 C 18.528582,18.264221 13.291696,25.230495 11.500037,31.436501 z"
             style="fill:#404040;"/>
          </a>
         </g>
        </svg>
</svg>
