<?xml version="1.0" encoding="UTF-8" standalone="no"?>
<!DOCTYPE svg PUBLIC "-//W3C//DTD SVG 1.1//EN"
 "http://www.w3.org/Graphics/SVG/1.1/DTD/svg11.dtd">
<!-- Generated by graphviz version 2.26.3 (20100126.1600)
 -->
<!-- Title: G Pages: 1 -->
<!--zoomable 368 -->
<svg id="main" version="1.1" xmlns="http://www.w3.org/2000/svg" xmlns:xlink="http://www.w3.org/1999/xlink" xml:space="preserve" onload="init(evt)">
        <defs>
                <circle id="rim" cx="0" cy="0" r="7"/>
                <circle id="rim2" cx="0" cy="0" r="3.5"/>
                <g id="zoomPlus">
                        <use xlink:href="#rim" fill="#404040">
                                <set attributeName="fill" to="#808080" begin="zoomplus.mouseover" end="zoomplus.mouseout"/>
                        </use>
                        <path d="M-4,0h8M0,-4v8" fill="none" stroke="white" stroke-width="1.5" pointer-events="none"/>
                </g>
                <g id="zoomMin">
                        <use xlink:href="#rim" fill="#404040">
                                <set attributeName="fill" to="#808080" begin="zoomminus.mouseover" end="zoomminus.mouseout"/>
                        </use>
                        <path d="M-4,0h8" fill="none" stroke="white" stroke-width="1.5" pointer-events="none"/>
                </g>
                <g id="dirArrow">
                        <path fill="none" stroke="white" stroke-width="1.5" d="M0,-3.0v7 M-2.5,-0.5L0,-3.0L2.5,-0.5"/>
                </g>
               <g id="resetDef">
                       <use xlink:href="#rim2" fill="#404040">
                               <set attributeName="fill" to="#808080" begin="reset.mouseover" end="reset.mouseout"/>
                       </use>
               </g>
        </defs>

<script type="text/javascript">
var viewWidth = 656;
var viewHeight = 368;
var sectionId = 'dynsection-82';
</script>
<script xlink:href="../../svgpan.js"/>
<svg id="graph" class="graph">
<g id="viewport">
<title>G</title>
<!-- Node1 -->
<g id="node1" class="node"><title>Node1</title>
<polygon fill="#bfbfbf" stroke="black" points="0.5,-90.5 0.5,-111.5 117.5,-111.5 117.5,-90.5 0.5,-90.5"/>
<text text-anchor="middle" x="59" y="-98.5" font-family="Helvetica,sans-Serif" font-size="10.00">SERVER_COMMAND</text>
</g>
<!-- Node2 -->
<g id="node3" class="node"><title>Node2</title>
<a xlink:href="../../d3/df2/sv__cmd_8qc.html#a9edf2e5dfa987c5647f334492c3d284e" target="_top" xlink:title="GameCommand_anticheat">
<polygon fill="none" stroke="black" points="154.5,-90.5 154.5,-111.5 287.5,-111.5 287.5,-90.5 154.5,-90.5"/>
<text text-anchor="middle" x="221" y="-98.5" font-family="Helvetica,sans-Serif" font-size="10.00">GameCommand_anticheat</text>
</a>
</g>
<!-- Node1&#45;&gt;Node2 -->
<g id="edge2" class="edge"><title>Node1&#45;&gt;Node2</title>
<path fill="none" stroke="midnightblue" d="M117.944,-101C126.462,-101 135.333,-101 144.138,-101"/>
<polygon fill="midnightblue" stroke="midnightblue" points="144.419,-104.5 154.419,-101 144.419,-97.5001 144.419,-104.5"/>
</g>
<!-- Node3 -->
<g id="node5" class="node"><title>Node3</title>
<a xlink:href="../../d6/d29/anticheat_8qc.html#aa6f21c29d0880833830be8c6fda293e1" target="_top" xlink:title="anticheat_report">
<polygon fill="none" stroke="black" points="328,-260.5 328,-281.5 414,-281.5 414,-260.5 328,-260.5"/>
<text text-anchor="middle" x="371" y="-268.5" font-family="Helvetica,sans-Serif" font-size="10.00">anticheat_report</text>
</a>
</g>
<!-- Node2&#45;&gt;Node3 -->
<g id="edge4" class="edge"><title>Node2&#45;&gt;Node3</title>
<path fill="none" stroke="midnightblue" d="M230.383,-111.634C255.322,-139.898 323.481,-217.145 354.831,-252.675"/>
<polygon fill="midnightblue" stroke="midnightblue" points="352.38,-255.187 361.62,-260.37 357.629,-250.556 352.38,-255.187"/>
</g>
<!-- Node13 -->
<g id="node29" class="node"><title>Node13</title>
<a xlink:href="../../d8/de2/menudefs_8qc.html#ae3e9d36eda7886f5fe58e5201291dd78" target="_top" xlink:title="argv">
<polygon fill="none" stroke="black" points="487.5,-158.5 487.5,-179.5 522.5,-179.5 522.5,-158.5 487.5,-158.5"/>
<text text-anchor="middle" x="505" y="-166.5" font-family="Helvetica,sans-Serif" font-size="10.00">argv</text>
</a>
</g>
<!-- Node2&#45;&gt;Node13 -->
<g id="edge32" class="edge"><title>Node2&#45;&gt;Node13</title>
<path fill="none" stroke="midnightblue" d="M265.063,-111.55C324.285,-125.73 427.818,-150.52 477.228,-162.35"/>
<polygon fill="midnightblue" stroke="midnightblue" points="476.651,-165.811 487.191,-164.736 478.281,-159.003 476.651,-165.811"/>
</g>
<!-- Node14 -->
<g id="node31" class="node"><title>Node14</title>
<a xlink:href="../../d5/df2/common_2util_8qh.html#ac5ad73cc4800e309d3b5a9147d1ce43f" target="_top" xlink:title="entity">
<polygon fill="none" stroke="black" points="484.5,-0.5 484.5,-21.5 525.5,-21.5 525.5,-0.5 484.5,-0.5"/>
<text text-anchor="middle" x="505" y="-8.5" font-family="Helvetica,sans-Serif" font-size="10.00">entity</text>
</a>
</g>
<!-- Node2&#45;&gt;Node14 -->
<g id="edge34" class="edge"><title>Node2&#45;&gt;Node14</title>
<path fill="none" stroke="midnightblue" d="M259.737,-90.4124C299.634,-79.317 363.502,-61.0233 418,-43 436.98,-36.723 458.025,-29.0032 474.662,-22.7188"/>
<polygon fill="midnightblue" stroke="midnightblue" points="476.291,-25.8438 484.393,-19.017 473.802,-19.3012 476.291,-25.8438"/>
</g>
<!-- Node15 -->
<g id="node33" class="node"><title>Node15</title>
<a xlink:href="../../de/d55/server_2command_2common_8qc.html#a227052057c08e1288dd13a4e7bfc5508" target="_top" xlink:title="GetIndexedEntity">
<polygon fill="none" stroke="black" points="325,-90.5 325,-111.5 417,-111.5 417,-90.5 325,-90.5"/>
<text text-anchor="middle" x="371" y="-98.5" font-family="Helvetica,sans-Serif" font-size="10.00">GetIndexedEntity</text>
</a>
</g>
<!-- Node2&#45;&gt;Node15 -->
<g id="edge36" class="edge"><title>Node2&#45;&gt;Node15</title>
<path fill="none" stroke="midnightblue" d="M287.666,-101C296.664,-101 305.824,-101 314.619,-101"/>
<polygon fill="midnightblue" stroke="midnightblue" points="314.746,-104.5 324.746,-101 314.745,-97.5001 314.746,-104.5"/>
</g>
<!-- Node18 -->
<g id="node42" class="node"><title>Node18</title>
<a xlink:href="../../de/d55/server_2command_2common_8qc.html#af89e91d25e1930737140b82c808de86f" target="_top" xlink:title="VerifyClientEntity">
<polygon fill="none" stroke="black" points="324.5,-12.5 324.5,-33.5 417.5,-33.5 417.5,-12.5 324.5,-12.5"/>
<text text-anchor="middle" x="371" y="-20.5" font-family="Helvetica,sans-Serif" font-size="10.00">VerifyClientEntity</text>
</a>
</g>
<!-- Node2&#45;&gt;Node18 -->
<g id="edge48" class="edge"><title>Node2&#45;&gt;Node18</title>
<path fill="none" stroke="midnightblue" d="M241.23,-90.4806C267.062,-77.0475 311.957,-53.7026 341.575,-38.3007"/>
<polygon fill="midnightblue" stroke="midnightblue" points="343.354,-41.3207 350.612,-33.6019 340.125,-35.1102 343.354,-41.3207"/>
</g>
<!-- Node4 -->
<g id="node7" class="node"><title>Node4</title>
<a xlink:href="../../d6/d29/anticheat_8qc.html#aa3505a15bb64d8c6cbdc3ba61759e85a" target="_top" xlink:title="anticheat_display">
<polygon fill="none" stroke="black" points="459,-299.5 459,-320.5 551,-320.5 551,-299.5 459,-299.5"/>
<text text-anchor="middle" x="505" y="-307.5" font-family="Helvetica,sans-Serif" font-size="10.00">anticheat_display</text>
</a>
</g>
<!-- Node3&#45;&gt;Node4 -->
<g id="edge6" class="edge"><title>Node3&#45;&gt;Node4</title>
<path fill="none" stroke="midnightblue" d="M407.262,-281.554C423.201,-286.193 442.103,-291.694 459.017,-296.617"/>
<polygon fill="midnightblue" stroke="midnightblue" points="458.129,-300.004 468.709,-299.438 460.085,-293.282 458.129,-300.004"/>
</g>
<!-- Node5 -->
<g id="node9" class="node"><title>Node5</title>
<a xlink:href="../../d8/de2/menudefs_8qc.html#abbb0d86741e0056b6c04f7280c185d76" target="_top" xlink:title="ftos">
<polygon fill="none" stroke="black" points="603.5,-298.5 603.5,-319.5 636.5,-319.5 636.5,-298.5 603.5,-298.5"/>
<text text-anchor="middle" x="620" y="-306.5" font-family="Helvetica,sans-Serif" font-size="10.00">ftos</text>
</a>
</g>
<!-- Node3&#45;&gt;Node5 -->
<g id="edge12" class="edge"><title>Node3&#45;&gt;Node5</title>
<path fill="none" stroke="midnightblue" d="M414.326,-273.164C452.035,-275.59 508.017,-280.5 556,-290 568.535,-292.482 582.144,-296.35 593.576,-299.95"/>
<polygon fill="midnightblue" stroke="midnightblue" points="592.778,-303.371 603.37,-303.133 594.942,-296.714 592.778,-303.371"/>
</g>
<!-- Node6 -->
<g id="node11" class="node"><title>Node6</title>
<a xlink:href="../../d8/de2/menudefs_8qc.html#ad76dc2b2895cd23f21e008f12a686158" target="_top" xlink:title="strcat">
<polygon fill="none" stroke="black" points="599.5,-338.5 599.5,-359.5 640.5,-359.5 640.5,-338.5 599.5,-338.5"/>
<text text-anchor="middle" x="620" y="-346.5" font-family="Helvetica,sans-Serif" font-size="10.00">strcat</text>
</a>
</g>
<!-- Node3&#45;&gt;Node6 -->
<g id="edge30" class="edge"><title>Node3&#45;&gt;Node6</title>
<path fill="none" stroke="midnightblue" d="M381.993,-281.657C396.932,-295.423 425.11,-318.929 454,-330 498.728,-347.141 554.821,-350.074 589.008,-349.997"/>
<polygon fill="midnightblue" stroke="midnightblue" points="589.336,-353.493 599.296,-349.88 589.257,-346.494 589.336,-353.493"/>
</g>
<!-- Node7 -->
<g id="node14" class="node"><title>Node7</title>
<a xlink:href="../../dc/dc6/server_2miscfunctions_8qc.html#ad8252ef534185c1cbbde32e65a01a5b3" target="_top" xlink:title="GameLogEcho">
<polygon fill="none" stroke="black" points="464.5,-220.5 464.5,-241.5 545.5,-241.5 545.5,-220.5 464.5,-220.5"/>
<text text-anchor="middle" x="505" y="-228.5" font-family="Helvetica,sans-Serif" font-size="10.00">GameLogEcho</text>
</a>
</g>
<!-- Node3&#45;&gt;Node7 -->
<g id="edge14" class="edge"><title>Node3&#45;&gt;Node7</title>
<path fill="none" stroke="midnightblue" d="M406.207,-260.49C422.542,-255.614 442.159,-249.759 459.592,-244.555"/>
<polygon fill="midnightblue" stroke="midnightblue" points="460.982,-247.792 469.563,-241.578 458.98,-241.085 460.982,-247.792"/>
</g>
<!-- Node4&#45;&gt;Node5 -->
<g id="edge8" class="edge"><title>Node4&#45;&gt;Node5</title>
<path fill="none" stroke="midnightblue" d="M551.112,-309.599C565.418,-309.475 580.704,-309.342 593.233,-309.233"/>
<polygon fill="midnightblue" stroke="midnightblue" points="593.47,-312.731 603.439,-309.144 593.409,-305.731 593.47,-312.731"/>
</g>
<!-- Node4&#45;&gt;Node6 -->
<g id="edge10" class="edge"><title>Node4&#45;&gt;Node6</title>
<path fill="none" stroke="midnightblue" d="M536.121,-320.554C552.757,-326.196 573.154,-333.113 589.669,-338.714"/>
<polygon fill="midnightblue" stroke="midnightblue" points="588.787,-342.11 599.381,-342.008 591.035,-335.481 588.787,-342.11"/>
</g>
<!-- Node7&#45;&gt;Node5 -->
<g id="edge22" class="edge"><title>Node7&#45;&gt;Node5</title>
<path fill="none" stroke="midnightblue" d="M528.817,-241.575C537.639,-245.892 547.546,-251.228 556,-257 573.68,-269.071 575.266,-275.649 592,-289 593.38,-290.101 594.815,-291.215 596.274,-292.324"/>
<polygon fill="midnightblue" stroke="midnightblue" points="594.539,-295.392 604.669,-298.494 598.684,-289.751 594.539,-295.392"/>
</g>
<!-- Node7&#45;&gt;Node6 -->
<g id="edge24" class="edge"><title>Node7&#45;&gt;Node6</title>
<path fill="none" stroke="midnightblue" d="M514.145,-241.568C534.715,-265.301 583.5,-321.355 592,-329 593.138,-330.024 594.329,-331.043 595.551,-332.048"/>
<polygon fill="midnightblue" stroke="midnightblue" points="593.757,-335.083 603.826,-338.382 598.012,-329.524 593.757,-335.083"/>
</g>
<!-- Node8 -->
<g id="node16" class="node"><title>Node8</title>
<a xlink:href="../../d8/de2/menudefs_8qc.html#a0b350379da8a7002dee40a3598bf33c3" target="_top" xlink:title="cvar_set">
<polygon fill="none" stroke="black" points="593,-258.5 593,-279.5 647,-279.5 647,-258.5 593,-258.5"/>
<text text-anchor="middle" x="620" y="-266.5" font-family="Helvetica,sans-Serif" font-size="10.00">cvar_set</text>
</a>
</g>
<!-- Node7&#45;&gt;Node8 -->
<g id="edge16" class="edge"><title>Node7&#45;&gt;Node8</title>
<path fill="none" stroke="midnightblue" d="M537.034,-241.585C551.29,-246.296 568.162,-251.871 582.957,-256.76"/>
<polygon fill="midnightblue" stroke="midnightblue" points="582.217,-260.201 592.81,-260.016 584.413,-253.555 582.217,-260.201"/>
</g>
<!-- Node9 -->
<g id="node18" class="node"><title>Node9</title>
<a xlink:href="../../d8/de2/menudefs_8qc.html#a5231f4ff2813f7de782b67d25a9e4cf9" target="_top" xlink:title="fopen">
<polygon fill="none" stroke="black" points="599.5,-218.5 599.5,-239.5 640.5,-239.5 640.5,-218.5 599.5,-218.5"/>
<text text-anchor="middle" x="620" y="-226.5" font-family="Helvetica,sans-Serif" font-size="10.00">fopen</text>
</a>
</g>
<!-- Node7&#45;&gt;Node9 -->
<g id="edge18" class="edge"><title>Node7&#45;&gt;Node9</title>
<path fill="none" stroke="midnightblue" d="M545.545,-230.295C559.934,-230.045 575.879,-229.767 589.31,-229.534"/>
<polygon fill="midnightblue" stroke="midnightblue" points="589.527,-233.031 599.464,-229.357 589.405,-226.032 589.527,-233.031"/>
</g>
<!-- Node10 -->
<g id="node20" class="node"><title>Node10</title>
<a xlink:href="../../d8/de2/menudefs_8qc.html#a33a318a59e2648521862f24200a821df" target="_top" xlink:title="fputs">
<polygon fill="none" stroke="black" points="601,-178.5 601,-199.5 639,-199.5 639,-178.5 601,-178.5"/>
<text text-anchor="middle" x="620" y="-186.5" font-family="Helvetica,sans-Serif" font-size="10.00">fputs</text>
</a>
</g>
<!-- Node7&#45;&gt;Node10 -->
<g id="edge20" class="edge"><title>Node7&#45;&gt;Node10</title>
<path fill="none" stroke="midnightblue" d="M534.019,-220.402C551.485,-214.023 573.64,-205.931 591.087,-199.56"/>
<polygon fill="midnightblue" stroke="midnightblue" points="592.551,-202.751 600.743,-196.033 590.15,-196.176 592.551,-202.751"/>
</g>
<!-- Node11 -->
<g id="node24" class="node"><title>Node11</title>
<a xlink:href="../../d8/de2/menudefs_8qc.html#a274680f571a231ddf29421b93d434bfa" target="_top" xlink:title="strlen">
<polygon fill="none" stroke="black" points="599.5,-138.5 599.5,-159.5 640.5,-159.5 640.5,-138.5 599.5,-138.5"/>
<text text-anchor="middle" x="620" y="-146.5" font-family="Helvetica,sans-Serif" font-size="10.00">strlen</text>
</a>
</g>
<!-- Node7&#45;&gt;Node11 -->
<g id="edge26" class="edge"><title>Node7&#45;&gt;Node11</title>
<path fill="none" stroke="midnightblue" d="M520.034,-220.28C539.577,-206.345 573.907,-181.866 596.802,-165.541"/>
<polygon fill="midnightblue" stroke="midnightblue" points="598.852,-168.378 604.962,-159.723 594.788,-162.679 598.852,-168.378"/>
</g>
<!-- Node12 -->
<g id="node26" class="node"><title>Node12</title>
<a xlink:href="../../d8/de2/menudefs_8qc.html#a40f6c65c8bbcfa51df783f2809a2502b" target="_top" xlink:title="substring">
<polygon fill="none" stroke="black" points="592,-98.5 592,-119.5 648,-119.5 648,-98.5 592,-98.5"/>
<text text-anchor="middle" x="620" y="-106.5" font-family="Helvetica,sans-Serif" font-size="10.00">substring</text>
</a>
</g>
<!-- Node7&#45;&gt;Node12 -->
<g id="edge28" class="edge"><title>Node7&#45;&gt;Node12</title>
<path fill="none" stroke="midnightblue" d="M520.468,-220.438C531.249,-212.586 545.519,-201.166 556,-189 576.298,-165.439 570.905,-151.85 592,-129 592.889,-128.037 593.831,-127.092 594.811,-126.17"/>
<polygon fill="midnightblue" stroke="midnightblue" points="597.301,-128.653 602.798,-119.596 592.853,-123.248 597.301,-128.653"/>
</g>
<!-- Node15&#45;&gt;Node12 -->
<g id="edge44" class="edge"><title>Node15&#45;&gt;Node12</title>
<path fill="none" stroke="midnightblue" d="M417.009,-107.539C429.023,-108.973 441.975,-110.278 454,-111 499.252,-113.716 510.672,-111.708 556,-111 564.376,-110.869 573.367,-110.642 581.885,-110.387"/>
<polygon fill="midnightblue" stroke="midnightblue" points="582.083,-113.882 591.966,-110.066 581.86,-106.886 582.083,-113.882"/>
</g>
<!-- Node15&#45;&gt;Node13 -->
<g id="edge38" class="edge"><title>Node15&#45;&gt;Node13</title>
<path fill="none" stroke="midnightblue" d="M391.062,-111.552C407.833,-120.335 432.407,-133.116 454,-144 461.888,-147.976 470.5,-152.23 478.364,-156.082"/>
<polygon fill="midnightblue" stroke="midnightblue" points="476.964,-159.293 487.486,-160.533 480.034,-153.002 476.964,-159.293"/>
</g>
<!-- Node15&#45;&gt;Node14 -->
<g id="edge40" class="edge"><title>Node15&#45;&gt;Node14</title>
<path fill="none" stroke="midnightblue" d="M395.61,-90.3C403.2,-86.3904 411.313,-81.5465 418,-76 437.713,-59.6483 433.378,-46.1905 454,-31 460.212,-26.424 467.608,-22.7398 474.815,-19.8417"/>
<polygon fill="midnightblue" stroke="midnightblue" points="476.187,-23.067 484.395,-16.367 473.801,-16.4865 476.187,-23.067"/>
</g>
<!-- Node16 -->
<g id="node37" class="node"><title>Node16</title>
<a xlink:href="../../d8/de2/menudefs_8qc.html#a2f6d3020689c0e872cfb455d0b2cbd4a" target="_top" xlink:title="stof">
<polygon fill="none" stroke="black" points="488.5,-80.5 488.5,-101.5 521.5,-101.5 521.5,-80.5 488.5,-80.5"/>
<text text-anchor="middle" x="505" y="-88.5" font-family="Helvetica,sans-Serif" font-size="10.00">stof</text>
</a>
</g>
<!-- Node15&#45;&gt;Node16 -->
<g id="edge42" class="edge"><title>Node15&#45;&gt;Node16</title>
<path fill="none" stroke="midnightblue" d="M417.115,-97.5586C437.553,-96.0333 460.873,-94.2931 478.352,-92.9886"/>
<polygon fill="midnightblue" stroke="midnightblue" points="478.691,-96.4732 488.403,-92.2386 478.17,-89.4926 478.691,-96.4732"/>
</g>
<!-- Node17 -->
<g id="node40" class="node"><title>Node17</title>
<a xlink:href="../../de/d55/server_2command_2common_8qc.html#a239726c53a65d7ecb8804925efd2b681" target="_top" xlink:title="VerifyClientNumber">
<polygon fill="none" stroke="black" points="454,-40.5 454,-61.5 556,-61.5 556,-40.5 454,-40.5"/>
<text text-anchor="middle" x="505" y="-48.5" font-family="Helvetica,sans-Serif" font-size="10.00">VerifyClientNumber</text>
</a>
</g>
<!-- Node15&#45;&gt;Node17 -->
<g id="edge46" class="edge"><title>Node15&#45;&gt;Node17</title>
<path fill="none" stroke="midnightblue" d="M399.418,-90.3963C419.138,-83.0381 445.623,-73.1558 467.132,-65.1297"/>
<polygon fill="midnightblue" stroke="midnightblue" points="468.478,-68.3636 476.623,-61.5884 466.03,-61.8052 468.478,-68.3636"/>
</g>
</g>
</svg>
        <g id="navigator" transform="translate(0 0)" fill="#404254">
                <rect fill="#f2f5e9" fill-opacity="0.5" stroke="#606060" stroke-width=".5" x="0" y="0" width="60" height="60"/>
                <use id="zoomplus" xlink:href="#zoomPlus" x="17" y="9" onmousedown="handleZoom(evt,'in')"/>
                <use id="zoomminus" xlink:href="#zoomMin" x="42" y="9" onmousedown="handleZoom(evt,'out')"/>
                <use id="reset" xlink:href="#resetDef" x="30" y="36" onmousedown="handleReset()"/>
                <g id="arrowUp" xlink:href="#dirArrow" transform="translate(30 24)" onmousedown="handlePan(0,-1)">
                  <use xlink:href="#rim" fill="#404040">
                        <set attributeName="fill" to="#808080" begin="arrowUp.mouseover" end="arrowUp.mouseout"/>
                  </use>
                  <path fill="none" stroke="white" stroke-width="1.5" d="M0,-3.0v7 M-2.5,-0.5L0,-3.0L2.5,-0.5"/>
                </g>
                <g id="arrowRight" xlink:href="#dirArrow" transform="rotate(90) translate(36 -43)" onmousedown="handlePan(1,0)">
                  <use xlink:href="#rim" fill="#404040">
                        <set attributeName="fill" to="#808080" begin="arrowRight.mouseover" end="arrowRight.mouseout"/>
                  </use>
                  <path fill="none" stroke="white" stroke-width="1.5" d="M0,-3.0v7 M-2.5,-0.5L0,-3.0L2.5,-0.5"/>
                </g>
                <g id="arrowDown" xlink:href="#dirArrow" transform="rotate(180) translate(-30 -48)" onmousedown="handlePan(0,1)">
                  <use xlink:href="#rim" fill="#404040">
                        <set attributeName="fill" to="#808080" begin="arrowDown.mouseover" end="arrowDown.mouseout"/>
                  </use>
                  <path fill="none" stroke="white" stroke-width="1.5" d="M0,-3.0v7 M-2.5,-0.5L0,-3.0L2.5,-0.5"/>
                </g>
                <g id="arrowLeft" xlink:href="#dirArrow" transform="rotate(270) translate(-36 17)" onmousedown="handlePan(-1,0)">
                  <use xlink:href="#rim" fill="#404040">
                        <set attributeName="fill" to="#808080" begin="arrowLeft.mouseover" end="arrowLeft.mouseout"/>
                  </use>
                  <path fill="none" stroke="white" stroke-width="1.5" d="M0,-3.0v7 M-2.5,-0.5L0,-3.0L2.5,-0.5"/>
                </g>
        </g>
</svg>
