<?xml version="1.0" encoding="UTF-8" standalone="no"?>
<!DOCTYPE svg PUBLIC "-//W3C//DTD SVG 1.1//EN"
 "http://www.w3.org/Graphics/SVG/1.1/DTD/svg11.dtd">
<!-- Generated by graphviz version 2.36.0 (20140111.2315)
 -->
<!-- Title: GameCommand_warp Pages: 1 -->
<svg width="794pt" height="142pt"
 viewBox="0.00 0.00 794.00 142.00" xmlns="http://www.w3.org/2000/svg" xmlns:xlink="http://www.w3.org/1999/xlink">
<g id="graph0" class="graph" transform="scale(1 1) rotate(0) translate(4 138)">
<title>GameCommand_warp</title>
<!-- Node1 -->
<g id="node1" class="node"><title>Node1</title>
<polygon fill="#bfbfbf" stroke="black" points="0,-76.5 0,-95.5 114,-95.5 114,-76.5 0,-76.5"/>
<text text-anchor="middle" x="57" y="-83.5" font-family="Helvetica,sans-Serif" font-size="10.00">GameCommand_warp</text>
</g>
<!-- Node2 -->
<g id="node2" class="node"><title>Node2</title>
<g id="a_node2"><a xlink:href="../../d8/de2/menudefs_8qc.html#ae3e9d36eda7886f5fe58e5201291dd78" target="_top" xlink:title="argv">
<polygon fill="none" stroke="black" points="186.5,-114.5 186.5,-133.5 221.5,-133.5 221.5,-114.5 186.5,-114.5"/>
<text text-anchor="middle" x="204" y="-121.5" font-family="Helvetica,sans-Serif" font-size="10.00">argv</text>
</a>
</g>
</g>
<!-- Node1&#45;&gt;Node2 -->
<g id="edge1" class="edge"><title>Node1&#45;&gt;Node2</title>
<path fill="none" stroke="midnightblue" d="M94.5896,-95.589C120.054,-102.262 153.424,-111.008 176.379,-117.024"/>
<polygon fill="midnightblue" stroke="midnightblue" points="175.567,-120.429 186.127,-119.578 177.341,-113.657 175.567,-120.429"/>
</g>
<!-- Node3 -->
<g id="node3" class="node"><title>Node3</title>
<g id="a_node3"><a xlink:href="../../de/d75/server_2campaign_8qc.html#aced14c1c4530221ef1ad4313dc1fde79" target="_top" xlink:title="CampaignLevelWarp">
<polygon fill="none" stroke="black" points="150.5,-76.5 150.5,-95.5 257.5,-95.5 257.5,-76.5 150.5,-76.5"/>
<text text-anchor="middle" x="204" y="-83.5" font-family="Helvetica,sans-Serif" font-size="10.00">CampaignLevelWarp</text>
</a>
</g>
</g>
<!-- Node1&#45;&gt;Node3 -->
<g id="edge2" class="edge"><title>Node1&#45;&gt;Node3</title>
<path fill="none" stroke="midnightblue" d="M114.061,-86C122.653,-86 131.57,-86 140.294,-86"/>
<polygon fill="midnightblue" stroke="midnightblue" points="140.416,-89.5001 150.416,-86 140.416,-82.5001 140.416,-89.5001"/>
</g>
<!-- Node13 -->
<g id="node13" class="node"><title>Node13</title>
<g id="a_node13"><a xlink:href="../../d8/de2/menudefs_8qc.html#a2f6d3020689c0e872cfb455d0b2cbd4a" target="_top" xlink:title="stof">
<polygon fill="none" stroke="black" points="187.5,-38.5 187.5,-57.5 220.5,-57.5 220.5,-38.5 187.5,-38.5"/>
<text text-anchor="middle" x="204" y="-45.5" font-family="Helvetica,sans-Serif" font-size="10.00">stof</text>
</a>
</g>
</g>
<!-- Node1&#45;&gt;Node13 -->
<g id="edge12" class="edge"><title>Node1&#45;&gt;Node13</title>
<path fill="none" stroke="midnightblue" d="M94.5896,-76.411C120.49,-69.6233 154.571,-60.6918 177.551,-54.6695"/>
<polygon fill="midnightblue" stroke="midnightblue" points="178.472,-58.0462 187.258,-52.1254 176.698,-51.2749 178.472,-58.0462"/>
</g>
<!-- Node4 -->
<g id="node4" class="node"><title>Node4</title>
<g id="a_node4"><a xlink:href="../../d7/d13/campaign__common_8qh.html#ae2f904eeb0bb4119ac6be954bf3223d3" target="_top" xlink:title="CampaignFile_Load">
<polygon fill="none" stroke="black" points="299.5,-114.5 299.5,-133.5 402.5,-133.5 402.5,-114.5 299.5,-114.5"/>
<text text-anchor="middle" x="351" y="-121.5" font-family="Helvetica,sans-Serif" font-size="10.00">CampaignFile_Load</text>
</a>
</g>
</g>
<!-- Node3&#45;&gt;Node4 -->
<g id="edge3" class="edge"><title>Node3&#45;&gt;Node4</title>
<path fill="none" stroke="midnightblue" d="M241.59,-95.589C260.465,-100.536 283.686,-106.621 303.788,-111.889"/>
<polygon fill="midnightblue" stroke="midnightblue" points="303.113,-115.33 313.673,-114.48 304.887,-108.559 303.113,-115.33"/>
</g>
<!-- Node5 -->
<g id="node5" class="node"><title>Node5</title>
<g id="a_node5"><a xlink:href="../../d7/d13/campaign__common_8qh.html#a60eb1da8586e91aa4e5ba36eb255b903" target="_top" xlink:title="CampaignFile_Unload">
<polygon fill="none" stroke="black" points="294.5,-76.5 294.5,-95.5 407.5,-95.5 407.5,-76.5 294.5,-76.5"/>
<text text-anchor="middle" x="351" y="-83.5" font-family="Helvetica,sans-Serif" font-size="10.00">CampaignFile_Unload</text>
</a>
</g>
</g>
<!-- Node3&#45;&gt;Node5 -->
<g id="edge4" class="edge"><title>Node3&#45;&gt;Node5</title>
<path fill="none" stroke="midnightblue" d="M257.759,-86C266.256,-86 275.145,-86 283.908,-86"/>
<polygon fill="midnightblue" stroke="midnightblue" points="284.106,-89.5001 294.106,-86 284.106,-82.5001 284.106,-89.5001"/>
</g>
<!-- Node6 -->
<g id="node6" class="node"><title>Node6</title>
<g id="a_node6"><a xlink:href="../../d7/d13/campaign__common_8qh.html#aaa64dc89313bcf520b231ef1f80bee48" target="_top" xlink:title="CampaignSetup">
<polygon fill="none" stroke="black" points="308,-38.5 308,-57.5 394,-57.5 394,-38.5 308,-38.5"/>
<text text-anchor="middle" x="351" y="-45.5" font-family="Helvetica,sans-Serif" font-size="10.00">CampaignSetup</text>
</a>
</g>
</g>
<!-- Node3&#45;&gt;Node6 -->
<g id="edge5" class="edge"><title>Node3&#45;&gt;Node6</title>
<path fill="none" stroke="midnightblue" d="M241.59,-76.411C260.465,-71.4642 283.686,-65.3789 303.788,-60.1108"/>
<polygon fill="midnightblue" stroke="midnightblue" points="304.887,-63.4409 313.673,-57.5201 303.113,-56.6695 304.887,-63.4409"/>
</g>
<!-- Node7 -->
<g id="node7" class="node"><title>Node7</title>
<g id="a_node7"><a xlink:href="../../d8/de2/menudefs_8qc.html#abbb0d86741e0056b6c04f7280c185d76" target="_top" xlink:title="ftos">
<polygon fill="none" stroke="black" points="476.5,-57.5 476.5,-76.5 509.5,-76.5 509.5,-57.5 476.5,-57.5"/>
<text text-anchor="middle" x="493" y="-64.5" font-family="Helvetica,sans-Serif" font-size="10.00">ftos</text>
</a>
</g>
</g>
<!-- Node6&#45;&gt;Node7 -->
<g id="edge6" class="edge"><title>Node6&#45;&gt;Node7</title>
<path fill="none" stroke="midnightblue" d="M394.005,-53.7006C417.49,-56.888 446.01,-60.7585 466.212,-63.5002"/>
<polygon fill="midnightblue" stroke="midnightblue" points="465.841,-66.9818 476.221,-64.8585 466.782,-60.0454 465.841,-66.9818"/>
</g>
<!-- Node8 -->
<g id="node8" class="node"><title>Node8</title>
<g id="a_node8"><a xlink:href="../../d3/d46/mapinfo_8qc.html#a52d7de04a91f2719a995565171513e26" target="_top" xlink:title="MapInfo_LoadMap">
<polygon fill="none" stroke="black" points="444.5,-19.5 444.5,-38.5 541.5,-38.5 541.5,-19.5 444.5,-19.5"/>
<text text-anchor="middle" x="493" y="-26.5" font-family="Helvetica,sans-Serif" font-size="10.00">MapInfo_LoadMap</text>
</a>
</g>
</g>
<!-- Node6&#45;&gt;Node8 -->
<g id="edge7" class="edge"><title>Node6&#45;&gt;Node8</title>
<path fill="none" stroke="midnightblue" d="M394.005,-42.2994C406.584,-40.5921 420.608,-38.6889 434.025,-36.8681"/>
<polygon fill="midnightblue" stroke="midnightblue" points="434.694,-40.3095 444.132,-35.4964 433.752,-33.3731 434.694,-40.3095"/>
</g>
<!-- Node9 -->
<g id="node9" class="node"><title>Node9</title>
<g id="a_node9"><a xlink:href="../../da/d44/common_2util_8qc.html#a6e565570901e86f89595330fe2e6f66f" target="_top" xlink:title="cvar_settemp_restore">
<polygon fill="none" stroke="black" points="578.5,-38.5 578.5,-57.5 689.5,-57.5 689.5,-38.5 578.5,-38.5"/>
<text text-anchor="middle" x="634" y="-45.5" font-family="Helvetica,sans-Serif" font-size="10.00">cvar_settemp_restore</text>
</a>
</g>
</g>
<!-- Node8&#45;&gt;Node9 -->
<g id="edge8" class="edge"><title>Node8&#45;&gt;Node9</title>
<path fill="none" stroke="midnightblue" d="M541.836,-35.5387C550.395,-36.7086 559.44,-37.9451 568.378,-39.1667"/>
<polygon fill="midnightblue" stroke="midnightblue" points="568.009,-42.6488 578.391,-40.5354 568.957,-35.7133 568.009,-42.6488"/>
</g>
<!-- Node12 -->
<g id="node12" class="node"><title>Node12</title>
<g id="a_node12"><a xlink:href="../../d8/de2/menudefs_8qc.html#ad76dc2b2895cd23f21e008f12a686158" target="_top" xlink:title="strcat">
<polygon fill="none" stroke="black" points="613.5,-0.5 613.5,-19.5 654.5,-19.5 654.5,-0.5 613.5,-0.5"/>
<text text-anchor="middle" x="634" y="-7.5" font-family="Helvetica,sans-Serif" font-size="10.00">strcat</text>
</a>
</g>
</g>
<!-- Node8&#45;&gt;Node12 -->
<g id="edge11" class="edge"><title>Node8&#45;&gt;Node12</title>
<path fill="none" stroke="midnightblue" d="M541.836,-22.4613C562.222,-19.6747 585.371,-16.5104 603.241,-14.0678"/>
<polygon fill="midnightblue" stroke="midnightblue" points="603.918,-17.5079 613.352,-12.6857 602.97,-10.5723 603.918,-17.5079"/>
</g>
<!-- Node10 -->
<g id="node10" class="node"><title>Node10</title>
<g id="a_node10"><a xlink:href="../../d8/de2/menudefs_8qc.html#a0b350379da8a7002dee40a3598bf33c3" target="_top" xlink:title="cvar_set">
<polygon fill="none" stroke="black" points="729,-57.5 729,-76.5 783,-76.5 783,-57.5 729,-57.5"/>
<text text-anchor="middle" x="756" y="-64.5" font-family="Helvetica,sans-Serif" font-size="10.00">cvar_set</text>
</a>
</g>
</g>
<!-- Node9&#45;&gt;Node10 -->
<g id="edge9" class="edge"><title>Node9&#45;&gt;Node10</title>
<path fill="none" stroke="midnightblue" d="M689.733,-56.666C699.613,-58.2304 709.686,-59.8252 718.867,-61.279"/>
<polygon fill="midnightblue" stroke="midnightblue" points="718.373,-64.7443 728.798,-62.8513 719.468,-57.8304 718.373,-64.7443"/>
</g>
<!-- Node11 -->
<g id="node11" class="node"><title>Node11</title>
<g id="a_node11"><a xlink:href="../../d8/de2/menudefs_8qc.html#ab64c3a0e7d347975b8b7a5cd17ab0113" target="_top" xlink:title="strunzone">
<polygon fill="none" stroke="black" points="726.5,-19.5 726.5,-38.5 785.5,-38.5 785.5,-19.5 726.5,-19.5"/>
<text text-anchor="middle" x="756" y="-26.5" font-family="Helvetica,sans-Serif" font-size="10.00">strunzone</text>
</a>
</g>
</g>
<!-- Node9&#45;&gt;Node11 -->
<g id="edge10" class="edge"><title>Node9&#45;&gt;Node11</title>
<path fill="none" stroke="midnightblue" d="M689.733,-39.334C698.698,-37.9146 707.821,-36.4701 716.293,-35.1286"/>
<polygon fill="midnightblue" stroke="midnightblue" points="716.92,-38.573 726.25,-33.5521 715.826,-31.6591 716.92,-38.573"/>
</g>
</g>
</svg>
