<?xml version="1.0" encoding="UTF-8" standalone="no"?>
<!DOCTYPE svg PUBLIC "-//W3C//DTD SVG 1.1//EN"
 "http://www.w3.org/Graphics/SVG/1.1/DTD/svg11.dtd">
<!-- Generated by graphviz version 2.36.0 (20140111.2315)
 -->
<!-- Title: PM_swim Pages: 1 -->
<!--zoomable 305 -->
<svg id="main" version="1.1" xmlns="http://www.w3.org/2000/svg" xmlns:xlink="http://www.w3.org/1999/xlink" xml:space="preserve" onload="init(evt)">
<style type="text/css"><![CDATA[
.edge:hover path { stroke: red; }
.edge:hover polygon { stroke: red; fill: red; }
]]></style>
<script type="text/javascript"><![CDATA[
var edges = document.getElementsByTagName('g');
if (edges && edges.length) {
  for (var i=0;i<edges.length;i++) {
    if (edges[i].id.substr(0,4)=='edge') {
      edges[i].setAttribute('class','edge');
    }
  }
}
]]></script>
        <defs>
                <circle id="rim" cx="0" cy="0" r="7"/>
                <circle id="rim2" cx="0" cy="0" r="3.5"/>
                <g id="zoomPlus">
                        <use xlink:href="#rim" fill="#404040">
                                <set attributeName="fill" to="#808080" begin="zoomplus.mouseover" end="zoomplus.mouseout"/>
                        </use>
                        <path d="M-4,0h8M0,-4v8" fill="none" stroke="white" stroke-width="1.5" pointer-events="none"/>
                </g>
                <g id="zoomMin">
                        <use xlink:href="#rim" fill="#404040">
                                <set attributeName="fill" to="#808080" begin="zoomminus.mouseover" end="zoomminus.mouseout"/>
                        </use>
                        <path d="M-4,0h8" fill="none" stroke="white" stroke-width="1.5" pointer-events="none"/>
                </g>
                <g id="dirArrow">
                        <path fill="none" stroke="white" stroke-width="1.5" d="M0,-3.0v7 M-2.5,-0.5L0,-3.0L2.5,-0.5"/>
                </g>
               <g id="resetDef">
                       <use xlink:href="#rim2" fill="#404040">
                               <set attributeName="fill" to="#808080" begin="reset.mouseover" end="reset.mouseout"/>
                       </use>
               </g>
        </defs>

<script type="text/javascript">
var viewWidth = 680;
var viewHeight = 305;
var sectionId = 'dynsection-48';
</script>
<script xlink:href="../../svgpan.js"/>
<svg id="graph" class="graph">
<g id="viewport">
<title>PM_swim</title>
<!-- Node1 -->
<g id="node1" class="node"><title>Node1</title>
<polygon fill="#bfbfbf" stroke="black" points="0,-182.5 0,-201.5 60,-201.5 60,-182.5 0,-182.5"/>
<text text-anchor="middle" x="30" y="-189.5" font-family="Helvetica,sans-Serif" font-size="10.00">PM_swim</text>
</g>
<!-- Node2 -->
<g id="node2" class="node"><title>Node2</title>
<g id="a_node2"><a xlink:href="../../d8/de2/menudefs_8qc.html#aebeeec7a2529f36483e14f76b1871271" target="_top" xlink:title="max">
<polygon fill="none" stroke="black" points="325.5,-277.5 325.5,-296.5 360.5,-296.5 360.5,-277.5 325.5,-277.5"/>
<text text-anchor="middle" x="343" y="-284.5" font-family="Helvetica,sans-Serif" font-size="10.00">max</text>
</a>
</g>
</g>
<!-- Node1&#45;&gt;Node2 -->
<g id="edge1" class="edge"><title>Node1&#45;&gt;Node2</title>
<path fill="none" stroke="midnightblue" d="M35.8694,-201.57C45.0316,-218.43 66.5917,-253.055 96,-268 168.273,-304.727 268.135,-297.535 315.294,-291.288"/>
<polygon fill="midnightblue" stroke="midnightblue" points="315.907,-294.736 325.316,-289.867 314.924,-287.806 315.907,-294.736"/>
</g>
<!-- Node3 -->
<g id="node3" class="node"><title>Node3</title>
<g id="a_node3"><a xlink:href="../../d8/de2/menudefs_8qc.html#ab2ad6bdb33b4334fec83db0418cf72df" target="_top" xlink:title="min">
<polygon fill="none" stroke="black" points="149,-239.5 149,-258.5 181,-258.5 181,-239.5 149,-239.5"/>
<text text-anchor="middle" x="165" y="-246.5" font-family="Helvetica,sans-Serif" font-size="10.00">min</text>
</a>
</g>
</g>
<!-- Node1&#45;&gt;Node3 -->
<g id="edge2" class="edge"><title>Node1&#45;&gt;Node3</title>
<path fill="none" stroke="midnightblue" d="M44.9062,-201.551C57.7075,-209.991 77.4646,-222.147 96,-230 109.804,-235.848 125.939,-240.445 139.027,-243.652"/>
<polygon fill="midnightblue" stroke="midnightblue" points="138.234,-247.061 148.767,-245.922 139.823,-240.243 138.234,-247.061"/>
</g>
<!-- Node4 -->
<g id="node4" class="node"><title>Node4</title>
<g id="a_node4"><a xlink:href="../../d8/de2/menudefs_8qc.html#ab8f7213273f7de03df213240376ce9f4" target="_top" xlink:title="normalize">
<polygon fill="none" stroke="black" points="135.5,-201.5 135.5,-220.5 194.5,-220.5 194.5,-201.5 135.5,-201.5"/>
<text text-anchor="middle" x="165" y="-208.5" font-family="Helvetica,sans-Serif" font-size="10.00">normalize</text>
</a>
</g>
</g>
<!-- Node1&#45;&gt;Node4 -->
<g id="edge3" class="edge"><title>Node1&#45;&gt;Node4</title>
<path fill="none" stroke="midnightblue" d="M60.1874,-196.17C79.2885,-198.898 104.462,-202.495 125.236,-205.462"/>
<polygon fill="midnightblue" stroke="midnightblue" points="124.943,-208.956 135.338,-206.905 125.933,-202.026 124.943,-208.956"/>
</g>
<!-- Node5 -->
<g id="node5" class="node"><title>Node5</title>
<g id="a_node5"><a xlink:href="../../dc/ddd/player_8qc.html#aeb4c74059f4c38415b072252c003a5aa" target="_top" xlink:title="PM_Accelerate">
<polygon fill="none" stroke="black" points="123.5,-163.5 123.5,-182.5 206.5,-182.5 206.5,-163.5 123.5,-163.5"/>
<text text-anchor="middle" x="165" y="-170.5" font-family="Helvetica,sans-Serif" font-size="10.00">PM_Accelerate</text>
</a>
</g>
</g>
<!-- Node1&#45;&gt;Node5 -->
<g id="edge4" class="edge"><title>Node1&#45;&gt;Node5</title>
<path fill="none" stroke="midnightblue" d="M60.1874,-187.83C75.7286,-185.61 95.2897,-182.816 113.23,-180.253"/>
<polygon fill="midnightblue" stroke="midnightblue" points="113.874,-183.697 123.278,-178.817 112.884,-176.767 113.874,-183.697"/>
</g>
<!-- Node11 -->
<g id="node11" class="node"><title>Node11</title>
<g id="a_node11"><a xlink:href="../../d8/de2/menudefs_8qc.html#a79d61ab0e4126e02af8bc36d432aedaf" target="_top" xlink:title="vlen">
<polygon fill="none" stroke="black" points="325.5,-87.5 325.5,-106.5 360.5,-106.5 360.5,-87.5 325.5,-87.5"/>
<text text-anchor="middle" x="343" y="-94.5" font-family="Helvetica,sans-Serif" font-size="10.00">vlen</text>
</a>
</g>
</g>
<!-- Node1&#45;&gt;Node11 -->
<g id="edge19" class="edge"><title>Node1&#45;&gt;Node11</title>
<path fill="none" stroke="midnightblue" d="M44.8247,-182.251C57.5712,-173.677 77.2934,-161.436 96,-154 172.562,-123.565 269.289,-107.097 315.313,-100.491"/>
<polygon fill="midnightblue" stroke="midnightblue" points="315.946,-103.937 325.368,-99.0906 314.981,-97.0039 315.946,-103.937"/>
</g>
<!-- Node12 -->
<g id="node12" class="node"><title>Node12</title>
<g id="a_node12"><a xlink:href="../../dc/ddd/player_8qc.html#a1dc3264eda927dc60f8f9a81e2c9ec8a" target="_top" xlink:title="PM_ClientMovement_Move">
<polygon fill="none" stroke="black" points="96.5,-49.5 96.5,-68.5 233.5,-68.5 233.5,-49.5 96.5,-49.5"/>
<text text-anchor="middle" x="165" y="-56.5" font-family="Helvetica,sans-Serif" font-size="10.00">PM_ClientMovement_Move</text>
</a>
</g>
</g>
<!-- Node1&#45;&gt;Node12 -->
<g id="edge15" class="edge"><title>Node1&#45;&gt;Node12</title>
<path fill="none" stroke="midnightblue" d="M36.2562,-182.417C46.1976,-164.904 69.1796,-127.217 96,-102 107.792,-90.9132 122.841,-81.0532 135.782,-73.5808"/>
<polygon fill="midnightblue" stroke="midnightblue" points="137.726,-76.5044 144.756,-68.5783 134.318,-70.3902 137.726,-76.5044"/>
</g>
<!-- Node5&#45;&gt;Node2 -->
<g id="edge12" class="edge"><title>Node5&#45;&gt;Node2</title>
<path fill="none" stroke="midnightblue" d="M206.769,-178.566C216.459,-181.385 226.229,-185.625 234,-192 261.354,-214.439 243.207,-239.894 270,-263 282.686,-273.941 300.531,-279.934 315.28,-283.195"/>
<polygon fill="midnightblue" stroke="midnightblue" points="314.877,-286.681 325.356,-285.119 316.189,-279.805 314.877,-286.681"/>
</g>
<!-- Node6 -->
<g id="node6" class="node"><title>Node6</title>
<g id="a_node6"><a xlink:href="../../dc/ddd/player_8qc.html#ab81c95b0e30aff82122c0e5688564397" target="_top" xlink:title="AdjustAirAccelQW">
<polygon fill="none" stroke="black" points="294,-201.5 294,-220.5 392,-220.5 392,-201.5 294,-201.5"/>
<text text-anchor="middle" x="343" y="-208.5" font-family="Helvetica,sans-Serif" font-size="10.00">AdjustAirAccelQW</text>
</a>
</g>
</g>
<!-- Node5&#45;&gt;Node6 -->
<g id="edge5" class="edge"><title>Node5&#45;&gt;Node6</title>
<path fill="none" stroke="midnightblue" d="M206.82,-181.813C230.846,-187.001 261.532,-193.626 287.594,-199.253"/>
<polygon fill="midnightblue" stroke="midnightblue" points="287.188,-202.746 297.701,-201.436 288.665,-195.904 287.188,-202.746"/>
</g>
<!-- Node7 -->
<g id="node7" class="node"><title>Node7</title>
<g id="a_node7"><a xlink:href="../../d8/de2/menudefs_8qc.html#a3846d117b360dccec575f96988cf3bb7" target="_top" xlink:title="bound">
<polygon fill="none" stroke="black" points="504.5,-277.5 504.5,-296.5 547.5,-296.5 547.5,-277.5 504.5,-277.5"/>
<text text-anchor="middle" x="526" y="-284.5" font-family="Helvetica,sans-Serif" font-size="10.00">bound</text>
</a>
</g>
</g>
<!-- Node5&#45;&gt;Node7 -->
<g id="edge10" class="edge"><title>Node5&#45;&gt;Node7</title>
<path fill="none" stroke="midnightblue" d="M206.676,-180.519C216.056,-183.278 225.706,-187.001 234,-192 253.925,-204.01 249.766,-218.518 270,-230 289.487,-241.059 430.777,-268.998 494.257,-281.176"/>
<polygon fill="midnightblue" stroke="midnightblue" points="493.976,-284.685 504.455,-283.125 495.29,-277.81 493.976,-284.685"/>
</g>
<!-- Node9 -->
<g id="node9" class="node"><title>Node9</title>
<g id="a_node9"><a xlink:href="../../d8/de2/menudefs_8qc.html#accccfae161879454243b3a8695a9bf3b" target="_top" xlink:title="fabs">
<polygon fill="none" stroke="black" points="636.5,-182.5 636.5,-201.5 671.5,-201.5 671.5,-182.5 636.5,-182.5"/>
<text text-anchor="middle" x="654" y="-189.5" font-family="Helvetica,sans-Serif" font-size="10.00">fabs</text>
</a>
</g>
</g>
<!-- Node5&#45;&gt;Node9 -->
<g id="edge11" class="edge"><title>Node5&#45;&gt;Node9</title>
<path fill="none" stroke="midnightblue" d="M206.684,-174.587C303.406,-178.361 545.053,-187.789 626.053,-190.949"/>
<polygon fill="midnightblue" stroke="midnightblue" points="626.256,-194.459 636.385,-191.352 626.529,-187.464 626.256,-194.459"/>
</g>
<!-- Node10 -->
<g id="node10" class="node"><title>Node10</title>
<g id="a_node10"><a xlink:href="../../d8/de2/menudefs_8qc.html#a83f4d3f317a80e82e6b16ea61ea5efc3" target="_top" xlink:title="sqrt">
<polygon fill="none" stroke="black" points="326.5,-125.5 326.5,-144.5 359.5,-144.5 359.5,-125.5 326.5,-125.5"/>
<text text-anchor="middle" x="343" y="-132.5" font-family="Helvetica,sans-Serif" font-size="10.00">sqrt</text>
</a>
</g>
</g>
<!-- Node5&#45;&gt;Node10 -->
<g id="edge13" class="edge"><title>Node5&#45;&gt;Node10</title>
<path fill="none" stroke="midnightblue" d="M206.82,-164.187C240.497,-156.915 287.261,-146.819 316.03,-140.607"/>
<polygon fill="midnightblue" stroke="midnightblue" points="317.074,-143.963 326.11,-138.431 315.596,-137.12 317.074,-143.963"/>
</g>
<!-- Node5&#45;&gt;Node11 -->
<g id="edge14" class="edge"><title>Node5&#45;&gt;Node11</title>
<path fill="none" stroke="midnightblue" d="M180.934,-163.289C200.638,-150.839 236.726,-129.278 270,-116 284.639,-110.158 301.666,-105.571 315.485,-102.369"/>
<polygon fill="midnightblue" stroke="midnightblue" points="316.325,-105.768 325.334,-100.192 314.815,-98.9325 316.325,-105.768"/>
</g>
<!-- Node6&#45;&gt;Node7 -->
<g id="edge6" class="edge"><title>Node6&#45;&gt;Node7</title>
<path fill="none" stroke="midnightblue" d="M382.668,-220.601C393.846,-224.235 405.779,-228.986 416,-235 434.707,-246.007 432.934,-257.627 452,-268 465.017,-275.082 480.789,-279.616 494.337,-282.47"/>
<polygon fill="midnightblue" stroke="midnightblue" points="493.705,-285.912 504.182,-284.34 495.011,-279.035 493.705,-285.912"/>
</g>
<!-- Node8 -->
<g id="node8" class="node"><title>Node8</title>
<g id="a_node8"><a xlink:href="../../df/d38/mathlib_8qc.html#a29f2602d95aa7b3950e2b77b3e268f7e" target="_top" xlink:title="copysign">
<polygon fill="none" stroke="black" points="498,-239.5 498,-258.5 554,-258.5 554,-239.5 498,-239.5"/>
<text text-anchor="middle" x="526" y="-246.5" font-family="Helvetica,sans-Serif" font-size="10.00">copysign</text>
</a>
</g>
</g>
<!-- Node6&#45;&gt;Node8 -->
<g id="edge7" class="edge"><title>Node6&#45;&gt;Node8</title>
<path fill="none" stroke="midnightblue" d="M389.674,-220.589C420.081,-226.973 459.519,-235.253 487.968,-241.225"/>
<polygon fill="midnightblue" stroke="midnightblue" points="487.409,-244.684 497.915,-243.314 488.847,-237.834 487.409,-244.684"/>
</g>
<!-- Node6&#45;&gt;Node9 -->
<g id="edge9" class="edge"><title>Node6&#45;&gt;Node9</title>
<path fill="none" stroke="midnightblue" d="M392.281,-208.031C458.204,-203.978 574.131,-196.85 626.27,-193.644"/>
<polygon fill="midnightblue" stroke="midnightblue" points="626.621,-197.129 636.387,-193.022 626.191,-190.142 626.621,-197.129"/>
</g>
<!-- Node8&#45;&gt;Node9 -->
<g id="edge8" class="edge"><title>Node8&#45;&gt;Node9</title>
<path fill="none" stroke="midnightblue" d="M554.291,-241.72C568.268,-237.571 585.376,-231.836 600,-225 610.605,-220.043 621.695,-213.395 630.973,-207.365"/>
<polygon fill="midnightblue" stroke="midnightblue" points="633.191,-210.092 639.562,-201.627 629.303,-204.272 633.191,-210.092"/>
</g>
<!-- Node12&#45;&gt;Node9 -->
<g id="edge16" class="edge"><title>Node12&#45;&gt;Node9</title>
<path fill="none" stroke="midnightblue" d="M233.72,-57.4083C284.671,-57.8193 355.776,-61.8436 416,-78 499.227,-100.327 588.547,-151.692 629.744,-177.146"/>
<polygon fill="midnightblue" stroke="midnightblue" points="627.907,-180.124 638.242,-182.453 631.614,-174.187 627.907,-180.124"/>
</g>
<!-- Node13 -->
<g id="node13" class="node"><title>Node13</title>
<g id="a_node13"><a xlink:href="../../dc/ddd/player_8qc.html#af89845d04951465adf6a5ad431a87bf3" target="_top" xlink:title="PM_ClientMovement_Update\lStatus">
<polygon fill="none" stroke="black" points="270.5,-0 270.5,-30 415.5,-30 415.5,-0 270.5,-0"/>
<text text-anchor="start" x="278.5" y="-18" font-family="Helvetica,sans-Serif" font-size="10.00">PM_ClientMovement_Update</text>
<text text-anchor="middle" x="343" y="-7" font-family="Helvetica,sans-Serif" font-size="10.00">Status</text>
</a>
</g>
</g>
<!-- Node12&#45;&gt;Node13 -->
<g id="edge17" class="edge"><title>Node12&#45;&gt;Node13</title>
<path fill="none" stroke="midnightblue" d="M204.189,-49.4527C224.005,-44.4988 248.845,-38.2888 271.958,-32.5105"/>
<polygon fill="midnightblue" stroke="midnightblue" points="272.886,-35.8863 281.739,-30.0654 271.188,-29.0953 272.886,-35.8863"/>
</g>
<!-- Node14 -->
<g id="node14" class="node"><title>Node14</title>
<g id="a_node14"><a xlink:href="../../dc/ddd/player_8qc.html#ad98ee7de5610b116cf3ced94e1af0ae5" target="_top" xlink:title="PM_ClientMovement_Unstick">
<polygon fill="none" stroke="black" points="452.5,-5.5 452.5,-24.5 599.5,-24.5 599.5,-5.5 452.5,-5.5"/>
<text text-anchor="middle" x="526" y="-12.5" font-family="Helvetica,sans-Serif" font-size="10.00">PM_ClientMovement_Unstick</text>
</a>
</g>
</g>
<!-- Node13&#45;&gt;Node14 -->
<g id="edge18" class="edge"><title>Node13&#45;&gt;Node14</title>
<path fill="none" stroke="midnightblue" d="M415.536,-15C424.201,-15 433.108,-15 441.921,-15"/>
<polygon fill="midnightblue" stroke="midnightblue" points="442.204,-18.5001 452.203,-15 442.203,-11.5001 442.204,-18.5001"/>
</g>
</g>
</svg>
        <g id="navigator" transform="translate(0 0)" fill="#404254">
                <rect fill="#f2f5e9" fill-opacity="0.5" stroke="#606060" stroke-width=".5" x="0" y="0" width="60" height="60"/>
                <use id="zoomplus" xlink:href="#zoomPlus" x="17" y="9" onmousedown="handleZoom(evt,'in')"/>
                <use id="zoomminus" xlink:href="#zoomMin" x="42" y="9" onmousedown="handleZoom(evt,'out')"/>
                <use id="reset" xlink:href="#resetDef" x="30" y="36" onmousedown="handleReset()"/>
                <g id="arrowUp" xlink:href="#dirArrow" transform="translate(30 24)" onmousedown="handlePan(0,-1)">
                  <use xlink:href="#rim" fill="#404040">
                        <set attributeName="fill" to="#808080" begin="arrowUp.mouseover" end="arrowUp.mouseout"/>
                  </use>
                  <path fill="none" stroke="white" stroke-width="1.5" d="M0,-3.0v7 M-2.5,-0.5L0,-3.0L2.5,-0.5"/>
                </g>
                <g id="arrowRight" xlink:href="#dirArrow" transform="rotate(90) translate(36 -43)" onmousedown="handlePan(1,0)">
                  <use xlink:href="#rim" fill="#404040">
                        <set attributeName="fill" to="#808080" begin="arrowRight.mouseover" end="arrowRight.mouseout"/>
                  </use>
                  <path fill="none" stroke="white" stroke-width="1.5" d="M0,-3.0v7 M-2.5,-0.5L0,-3.0L2.5,-0.5"/>
                </g>
                <g id="arrowDown" xlink:href="#dirArrow" transform="rotate(180) translate(-30 -48)" onmousedown="handlePan(0,1)">
                  <use xlink:href="#rim" fill="#404040">
                        <set attributeName="fill" to="#808080" begin="arrowDown.mouseover" end="arrowDown.mouseout"/>
                  </use>
                  <path fill="none" stroke="white" stroke-width="1.5" d="M0,-3.0v7 M-2.5,-0.5L0,-3.0L2.5,-0.5"/>
                </g>
                <g id="arrowLeft" xlink:href="#dirArrow" transform="rotate(270) translate(-36 17)" onmousedown="handlePan(-1,0)">
                  <use xlink:href="#rim" fill="#404040">
                        <set attributeName="fill" to="#808080" begin="arrowLeft.mouseover" end="arrowLeft.mouseout"/>
                  </use>
                  <path fill="none" stroke="white" stroke-width="1.5" d="M0,-3.0v7 M-2.5,-0.5L0,-3.0L2.5,-0.5"/>
                </g>
        </g>
        <svg viewBox="0 0 15 15" width="100%" height="30px" preserveAspectRatio="xMaxYMin meet">
         <g id="arrow_out" transform="scale(0.3 0.3)">
          <a xlink:href="player_8qc_a77a705e651bbca482517fc8355e3e6ea_cgraph_org.svg" target="_base">
           <rect id="button" ry="5" rx="5" y="6" x="6" height="38" width="38"
                fill="#f2f5e9" fill-opacity="0.5" stroke="#606060" stroke-width="1.0"/>
           <path id="arrow"
             d="M 11.500037,31.436501 C 11.940474,20.09759 22.043105,11.32322 32.158766,21.979434 L 37.068811,17.246167 C 37.068811,17.246167 37.088388,32 37.088388,32 L 22.160133,31.978069 C 22.160133,31.978069 26.997745,27.140456 26.997745,27.140456 C 18.528582,18.264221 13.291696,25.230495 11.500037,31.436501 z"
             style="fill:#404040;"/>
          </a>
         </g>
        </svg>
</svg>
