<?xml version="1.0" encoding="UTF-8" standalone="no"?>
<!DOCTYPE svg PUBLIC "-//W3C//DTD SVG 1.1//EN"
 "http://www.w3.org/Graphics/SVG/1.1/DTD/svg11.dtd">
<!-- Generated by graphviz version 2.38.0 (20140413.2041)
 -->
<!-- Title: m_keydown Pages: 1 -->
<svg width="360pt" height="180pt"
 viewBox="0.00 0.00 360.00 180.00" xmlns="http://www.w3.org/2000/svg" xmlns:xlink="http://www.w3.org/1999/xlink">
<g id="graph0" class="graph" transform="scale(1 1) rotate(0) translate(4 176)">
<title>m_keydown</title>
<!-- Node1 -->
<g id="node1" class="node"><title>Node1</title>
<polygon fill="#bfbfbf" stroke="black" points="0,-76.5 0,-95.5 73,-95.5 73,-76.5 0,-76.5"/>
<text text-anchor="middle" x="36.5" y="-83.5" font-family="Helvetica,sans-Serif" font-size="10.00">m_keydown</text>
</g>
<!-- Node2 -->
<g id="node2" class="node"><title>Node2</title>
<g id="a_node2"><a xlink:href="../../df/dc2/menu_8qc.html#a9fc19cb59a299c16ed665dc992bdaa1e" target="_top" xlink:title="draw_reset_cropped">
<polygon fill="none" stroke="black" points="109,-152.5 109,-171.5 222,-171.5 222,-152.5 109,-152.5"/>
<text text-anchor="middle" x="165.5" y="-159.5" font-family="Helvetica,sans-Serif" font-size="10.00">draw_reset_cropped</text>
</a>
</g>
</g>
<!-- Node1&#45;&gt;Node2 -->
<g id="edge1" class="edge"><title>Node1&#45;&gt;Node2</title>
<path fill="none" stroke="midnightblue" d="M47.3526,-95.7112C60.4516,-108.161 84.778,-129.722 109,-143 112.768,-145.065 116.801,-146.966 120.909,-148.7"/>
<polygon fill="midnightblue" stroke="midnightblue" points="119.956,-152.084 130.544,-152.443 122.491,-145.559 119.956,-152.084"/>
</g>
<!-- Node4 -->
<g id="node4" class="node"><title>Node4</title>
<g id="a_node4"><a xlink:href="../../d4/d0c/csprogsdefs_8qc.html#acbb54a239d76062465dccbc6a6c6e464" target="_top" xlink:title="entity">
<polygon fill="none" stroke="black" points="143.5,-114.5 143.5,-133.5 187.5,-133.5 187.5,-114.5 143.5,-114.5"/>
<text text-anchor="middle" x="165.5" y="-121.5" font-family="Helvetica,sans-Serif" font-size="10.00">entity</text>
</a>
</g>
</g>
<!-- Node1&#45;&gt;Node4 -->
<g id="edge3" class="edge"><title>Node1&#45;&gt;Node4</title>
<path fill="none" stroke="midnightblue" d="M69.5475,-95.589C89.1958,-101.468 114.219,-108.955 133.644,-114.768"/>
<polygon fill="midnightblue" stroke="midnightblue" points="132.65,-118.123 143.234,-117.637 134.657,-111.417 132.65,-118.123"/>
</g>
<!-- Node5 -->
<g id="node5" class="node"><title>Node5</title>
<g id="a_node5"><a xlink:href="../../d8/de2/menudefs_8qc.html#addba2eab8e095dbf65080939e1da5747" target="_top" xlink:title="getmousepos">
<polygon fill="none" stroke="black" points="124,-76.5 124,-95.5 207,-95.5 207,-76.5 124,-76.5"/>
<text text-anchor="middle" x="165.5" y="-83.5" font-family="Helvetica,sans-Serif" font-size="10.00">getmousepos</text>
</a>
</g>
</g>
<!-- Node1&#45;&gt;Node5 -->
<g id="edge4" class="edge"><title>Node1&#45;&gt;Node5</title>
<path fill="none" stroke="midnightblue" d="M73.2146,-86C85.7258,-86 100.03,-86 113.544,-86"/>
<polygon fill="midnightblue" stroke="midnightblue" points="113.682,-89.5001 123.682,-86 113.682,-82.5001 113.682,-89.5001"/>
</g>
<!-- Node6 -->
<g id="node6" class="node"><title>Node6</title>
<g id="a_node6"><a xlink:href="../../df/dc2/menu_8qc.html#a08978f0726ce3655f05b5728affde07f" target="_top" xlink:title="m_hide">
<polygon fill="none" stroke="black" points="139.5,-38.5 139.5,-57.5 191.5,-57.5 191.5,-38.5 139.5,-38.5"/>
<text text-anchor="middle" x="165.5" y="-45.5" font-family="Helvetica,sans-Serif" font-size="10.00">m_hide</text>
</a>
</g>
</g>
<!-- Node1&#45;&gt;Node6 -->
<g id="edge5" class="edge"><title>Node1&#45;&gt;Node6</title>
<path fill="none" stroke="midnightblue" d="M69.5475,-76.411C87.8599,-70.9317 110.841,-64.0553 129.608,-58.4401"/>
<polygon fill="midnightblue" stroke="midnightblue" points="130.69,-61.7699 139.267,-55.5502 128.683,-55.0637 130.69,-61.7699"/>
</g>
<!-- Node9 -->
<g id="node9" class="node"><title>Node9</title>
<g id="a_node9"><a xlink:href="../../da/dde/csprogsdefs_8qh.html#a2626679e4144af8478202c6c28f90cd9" target="_top" xlink:title="vector">
<polygon fill="none" stroke="black" points="142,-0.5 142,-19.5 189,-19.5 189,-0.5 142,-0.5"/>
<text text-anchor="middle" x="165.5" y="-7.5" font-family="Helvetica,sans-Serif" font-size="10.00">vector</text>
</a>
</g>
</g>
<!-- Node1&#45;&gt;Node9 -->
<g id="edge8" class="edge"><title>Node1&#45;&gt;Node9</title>
<path fill="none" stroke="midnightblue" d="M47.3526,-76.2888C60.4516,-63.8386 84.778,-42.2777 109,-29 116.221,-25.0415 124.418,-21.6882 132.253,-18.9525"/>
<polygon fill="midnightblue" stroke="midnightblue" points="133.458,-22.2413 141.884,-15.8187 131.291,-15.5848 133.458,-22.2413"/>
</g>
<!-- Node3 -->
<g id="node3" class="node"><title>Node3</title>
<g id="a_node3"><a xlink:href="../../df/d4c/menu_2draw_8qc.html#a38889102a2190267fcd3e711e646cad7" target="_top" xlink:title="draw_reset">
<polygon fill="none" stroke="black" points="270.5,-152.5 270.5,-171.5 339.5,-171.5 339.5,-152.5 270.5,-152.5"/>
<text text-anchor="middle" x="305" y="-159.5" font-family="Helvetica,sans-Serif" font-size="10.00">draw_reset</text>
</a>
</g>
</g>
<!-- Node2&#45;&gt;Node3 -->
<g id="edge2" class="edge"><title>Node2&#45;&gt;Node3</title>
<path fill="none" stroke="midnightblue" d="M222.03,-162C234.713,-162 248.019,-162 260.133,-162"/>
<polygon fill="midnightblue" stroke="midnightblue" points="260.427,-165.5 270.427,-162 260.427,-158.5 260.427,-165.5"/>
</g>
<!-- Node7 -->
<g id="node7" class="node"><title>Node7</title>
<g id="a_node7"><a xlink:href="../../d8/de2/menudefs_8qc.html#ab7521b2c8e673c265de5312d4ee01cd1" target="_top" xlink:title="setkeydest">
<polygon fill="none" stroke="black" points="270.5,-57.5 270.5,-76.5 339.5,-76.5 339.5,-57.5 270.5,-57.5"/>
<text text-anchor="middle" x="305" y="-64.5" font-family="Helvetica,sans-Serif" font-size="10.00">setkeydest</text>
</a>
</g>
</g>
<!-- Node6&#45;&gt;Node7 -->
<g id="edge6" class="edge"><title>Node6&#45;&gt;Node7</title>
<path fill="none" stroke="midnightblue" d="M191.72,-51.4849C210.881,-54.1326 237.706,-57.8394 260.331,-60.9658"/>
<polygon fill="midnightblue" stroke="midnightblue" points="260.003,-64.4537 270.388,-62.3555 260.962,-57.5195 260.003,-64.4537"/>
</g>
<!-- Node8 -->
<g id="node8" class="node"><title>Node8</title>
<g id="a_node8"><a xlink:href="../../d8/de2/menudefs_8qc.html#a41a71706b90388a85a4d8b388caed8ed" target="_top" xlink:title="setmousetarget">
<polygon fill="none" stroke="black" points="258,-19.5 258,-38.5 352,-38.5 352,-19.5 258,-19.5"/>
<text text-anchor="middle" x="305" y="-26.5" font-family="Helvetica,sans-Serif" font-size="10.00">setmousetarget</text>
</a>
</g>
</g>
<!-- Node6&#45;&gt;Node8 -->
<g id="edge7" class="edge"><title>Node6&#45;&gt;Node8</title>
<path fill="none" stroke="midnightblue" d="M191.72,-44.5151C207.433,-42.3439 228.299,-39.4605 247.777,-36.7689"/>
<polygon fill="midnightblue" stroke="midnightblue" points="248.375,-40.2197 257.802,-35.3837 247.417,-33.2856 248.375,-40.2197"/>
</g>
</g>
</svg>
