<?xml version="1.0" encoding="UTF-8" standalone="no"?>
<!DOCTYPE svg PUBLIC "-//W3C//DTD SVG 1.1//EN"
 "http://www.w3.org/Graphics/SVG/1.1/DTD/svg11.dtd">
<!-- Generated by graphviz version 2.36.0 (20140111.2315)
 -->
<!-- Title: Fireball Pages: 1 -->
<svg width="641pt" height="244pt"
 viewBox="0.00 0.00 640.64 244.00" xmlns="http://www.w3.org/2000/svg" xmlns:xlink="http://www.w3.org/1999/xlink">
<g id="graph0" class="graph" transform="scale(1 1) rotate(0) translate(4 240)">
<title>Fireball</title>
<!-- Node1 -->
<g id="node1" class="node"><title>Node1</title>
<polygon fill="#bfbfbf" stroke="black" points="212.642,-0.5 212.642,-19.5 260.642,-19.5 260.642,-0.5 212.642,-0.5"/>
<text text-anchor="middle" x="236.642" y="-7.5" font-family="Helvetica,sans-Serif" font-size="10.00">Fireball</text>
</g>
<!-- Node2 -->
<g id="node2" class="node"><title>Node2</title>
<g id="a_node2"><a xlink:href="../../dc/de5/classWeapon.html" target="_top" xlink:title="fields which are explicitly/manually set are marked with &quot;M&quot;, fields set automatically are marked wit...">
<polygon fill="none" stroke="black" points="277.142,-86.5 277.142,-105.5 330.142,-105.5 330.142,-86.5 277.142,-86.5"/>
<text text-anchor="middle" x="303.642" y="-93.5" font-family="Helvetica,sans-Serif" font-size="10.00">Weapon</text>
</a>
</g>
</g>
<!-- Node2&#45;&gt;Node1 -->
<g id="edge1" class="edge"><title>Node2&#45;&gt;Node1</title>
<path fill="none" stroke="midnightblue" d="M290.141,-78.0732C276.077,-60.4411 254.596,-33.5092 243.623,-19.7518"/>
<polygon fill="midnightblue" stroke="midnightblue" points="287.752,-80.6916 296.724,-86.3269 293.225,-76.3267 287.752,-80.6916"/>
</g>
<!-- Node3 -->
<g id="node3" class="node"><title>Node3</title>
<g id="a_node3"><a xlink:href="../../d8/d4b/classObject.html" target="_top" xlink:title="Object">
<polygon fill="none" stroke="black" points="113.142,-216.5 113.142,-235.5 158.142,-235.5 158.142,-216.5 113.142,-216.5"/>
<text text-anchor="middle" x="135.642" y="-223.5" font-family="Helvetica,sans-Serif" font-size="10.00">Object</text>
</a>
</g>
</g>
<!-- Node3&#45;&gt;Node2 -->
<g id="edge2" class="edge"><title>Node3&#45;&gt;Node2</title>
<path fill="none" stroke="midnightblue" d="M153.636,-209.649C157.942,-205.888 162.492,-201.84 166.642,-198 192.711,-173.882 194.421,-162.184 223.642,-142 239.35,-131.15 245.957,-133.276 262.642,-124 272.773,-118.368 283.711,-111.1 291.739,-105.524"/>
<polygon fill="midnightblue" stroke="midnightblue" points="151.107,-207.209 145.829,-216.396 155.684,-212.506 151.107,-207.209"/>
</g>
<!-- Node9 -->
<g id="node9" class="node"><title>Node9</title>
<g id="a_node9"><a xlink:href="../../d6/d18/classModel.html" target="_top" xlink:title="Model">
<polygon fill="none" stroke="black" points="74.142,-86.5 74.142,-105.5 117.142,-105.5 117.142,-86.5 74.142,-86.5"/>
<text text-anchor="middle" x="95.642" y="-93.5" font-family="Helvetica,sans-Serif" font-size="10.00">Model</text>
</a>
</g>
</g>
<!-- Node3&#45;&gt;Node9 -->
<g id="edge11" class="edge"><title>Node3&#45;&gt;Node9</title>
<path fill="none" stroke="midnightblue" d="M104.804,-211.175C99.9236,-207.598 95.5383,-203.239 92.642,-198 75.8357,-167.603 86.8213,-123.807 92.6618,-105.523"/>
<polygon fill="midnightblue" stroke="midnightblue" points="102.972,-214.158 113.31,-216.476 106.674,-208.217 102.972,-214.158"/>
</g>
<!-- Node4 -->
<g id="node4" class="node"><title>Node4</title>
<polygon fill="none" stroke="#bfbfbf" points="201.142,-216.5 201.142,-235.5 242.142,-235.5 242.142,-216.5 201.142,-216.5"/>
<text text-anchor="middle" x="221.642" y="-223.5" font-family="Helvetica,sans-Serif" font-size="10.00">string</text>
</g>
<!-- Node4&#45;&gt;Node1 -->
<g id="edge8" class="edge"><title>Node4&#45;&gt;Node1</title>
<path fill="none" stroke="#9a32cd" stroke-dasharray="5,2" d="M218.08,-206.259C213.056,-176.625 205.467,-117.253 214.642,-68 217.983,-50.0639 226.766,-30.4987 232.17,-19.5902"/>
<polygon fill="#9a32cd" stroke="#9a32cd" points="214.688,-207.171 219.9,-216.395 221.577,-205.934 214.688,-207.171"/>
<text text-anchor="middle" x="241.142" y="-115.5" font-family="Helvetica,sans-Serif" font-size="10.00"> netname</text>
<text text-anchor="middle" x="241.142" y="-104.5" font-family="Helvetica,sans-Serif" font-size="10.00">w_crosshair</text>
<text text-anchor="middle" x="241.142" y="-93.5" font-family="Helvetica,sans-Serif" font-size="10.00">model2</text>
<text text-anchor="middle" x="241.142" y="-82.5" font-family="Helvetica,sans-Serif" font-size="10.00">mdl</text>
<text text-anchor="middle" x="241.142" y="-71.5" font-family="Helvetica,sans-Serif" font-size="10.00">m_name</text>
</g>
<!-- Node4&#45;&gt;Node2 -->
<g id="edge3" class="edge"><title>Node4&#45;&gt;Node2</title>
<path fill="none" stroke="#9a32cd" stroke-dasharray="5,2" d="M225.182,-206.371C229.204,-188.644 237.044,-161.812 250.642,-142 261.024,-126.873 277.762,-113.845 289.648,-105.756"/>
<polygon fill="#9a32cd" stroke="#9a32cd" points="221.724,-205.81 223.111,-216.314 228.576,-207.237 221.724,-205.81"/>
<text text-anchor="middle" x="277.142" y="-189.5" font-family="Helvetica,sans-Serif" font-size="10.00"> netname</text>
<text text-anchor="middle" x="277.142" y="-178.5" font-family="Helvetica,sans-Serif" font-size="10.00">w_crosshair</text>
<text text-anchor="middle" x="277.142" y="-167.5" font-family="Helvetica,sans-Serif" font-size="10.00">model2</text>
<text text-anchor="middle" x="277.142" y="-156.5" font-family="Helvetica,sans-Serif" font-size="10.00">mdl</text>
<text text-anchor="middle" x="277.142" y="-145.5" font-family="Helvetica,sans-Serif" font-size="10.00">m_name</text>
</g>
<!-- Node5 -->
<g id="node5" class="node"><title>Node5</title>
<polygon fill="none" stroke="#bfbfbf" points="294.142,-216.5 294.142,-235.5 335.142,-235.5 335.142,-216.5 294.142,-216.5"/>
<text text-anchor="middle" x="314.642" y="-223.5" font-family="Helvetica,sans-Serif" font-size="10.00">entity</text>
</g>
<!-- Node5&#45;&gt;Node2 -->
<g id="edge4" class="edge"><title>Node5&#45;&gt;Node2</title>
<path fill="none" stroke="#9a32cd" stroke-dasharray="5,2" d="M313.012,-206.029C310.586,-177.803 306.125,-125.892 304.374,-105.522"/>
<polygon fill="#9a32cd" stroke="#9a32cd" points="309.542,-206.538 313.886,-216.202 316.517,-205.939 309.542,-206.538"/>
<text text-anchor="middle" x="334.142" y="-173" font-family="Helvetica,sans-Serif" font-size="10.00"> m_model</text>
<text text-anchor="middle" x="334.142" y="-162" font-family="Helvetica,sans-Serif" font-size="10.00">m_pickup</text>
</g>
<!-- Node6 -->
<g id="node6" class="node"><title>Node6</title>
<polygon fill="none" stroke="#bfbfbf" points="557.642,-216.5 557.642,-235.5 601.642,-235.5 601.642,-216.5 557.642,-216.5"/>
<text text-anchor="middle" x="579.642" y="-223.5" font-family="Helvetica,sans-Serif" font-size="10.00">vector</text>
</g>
<!-- Node6&#45;&gt;Node1 -->
<g id="edge9" class="edge"><title>Node6&#45;&gt;Node1</title>
<path fill="none" stroke="#9a32cd" stroke-dasharray="5,2" d="M594.549,-208.192C596.64,-204.999 598.473,-201.542 599.642,-198 607.442,-174.365 605.746,-166.129 599.642,-142 590.473,-105.756 589.962,-89.8733 559.642,-68 511.499,-33.2689 327.52,-17.3015 260.903,-12.5718"/>
<polygon fill="#9a32cd" stroke="#9a32cd" points="591.605,-206.279 588.302,-216.346 597.162,-210.536 591.605,-206.279"/>
<text text-anchor="middle" x="614.142" y="-93.5" font-family="Helvetica,sans-Serif" font-size="10.00"> wpcolor</text>
</g>
<!-- Node6&#45;&gt;Node2 -->
<g id="edge5" class="edge"><title>Node6&#45;&gt;Node2</title>
<path fill="none" stroke="#9a32cd" stroke-dasharray="5,2" d="M564.487,-209.038C545.795,-190.275 512.228,-159.485 477.642,-142 428.911,-117.365 365.494,-105.382 330.242,-100.265"/>
<polygon fill="#9a32cd" stroke="#9a32cd" points="562.057,-211.559 571.547,-216.269 567.065,-206.669 562.057,-211.559"/>
<text text-anchor="middle" x="574.142" y="-173" font-family="Helvetica,sans-Serif" font-size="10.00"> weapons</text>
<text text-anchor="middle" x="574.142" y="-162" font-family="Helvetica,sans-Serif" font-size="10.00">wpcolor</text>
</g>
<!-- Node7 -->
<g id="node7" class="node"><title>Node7</title>
<polygon fill="none" stroke="#bfbfbf" points="416.142,-216.5 416.142,-235.5 451.142,-235.5 451.142,-216.5 416.142,-216.5"/>
<text text-anchor="middle" x="433.642" y="-223.5" font-family="Helvetica,sans-Serif" font-size="10.00">float</text>
</g>
<!-- Node7&#45;&gt;Node1 -->
<g id="edge13" class="edge"><title>Node7&#45;&gt;Node1</title>
<path fill="none" stroke="#9a32cd" stroke-dasharray="5,2" d="M460.162,-212.472C465.569,-208.623 470.545,-203.826 473.642,-198 485.323,-176.022 486.287,-163.437 473.642,-142 426.469,-62.0253 311.023,-27.4794 260.724,-15.8671"/>
<polygon fill="#9a32cd" stroke="#9a32cd" points="458.228,-209.552 451.519,-217.753 461.877,-215.526 458.228,-209.552"/>
<text text-anchor="middle" x="508.142" y="-93.5" font-family="Helvetica,sans-Serif" font-size="10.00"> bot_pickupbasevalue</text>
</g>
<!-- Node7&#45;&gt;Node2 -->
<g id="edge6" class="edge"><title>Node7&#45;&gt;Node2</title>
<path fill="none" stroke="#9a32cd" stroke-dasharray="5,2" d="M406.466,-215.3C397.643,-211.084 388.398,-205.387 381.642,-198 363.484,-178.145 374.654,-163.623 358.642,-142 347.482,-126.929 330.185,-113.891 317.973,-105.784"/>
<polygon fill="#9a32cd" stroke="#9a32cd" points="405.168,-218.551 415.736,-219.302 407.943,-212.125 405.168,-218.551"/>
<text text-anchor="middle" x="427.642" y="-173" font-family="Helvetica,sans-Serif" font-size="10.00"> w_crosshair_size</text>
<text text-anchor="middle" x="427.642" y="-162" font-family="Helvetica,sans-Serif" font-size="10.00">bot_pickupbasevalue</text>
</g>
<!-- Node8 -->
<g id="node8" class="node"><title>Node8</title>
<polygon fill="none" stroke="#bfbfbf" points="24.142,-216.5 24.142,-235.5 53.142,-235.5 53.142,-216.5 24.142,-216.5"/>
<text text-anchor="middle" x="38.642" y="-223.5" font-family="Helvetica,sans-Serif" font-size="10.00">int</text>
</g>
<!-- Node8&#45;&gt;Node1 -->
<g id="edge14" class="edge"><title>Node8&#45;&gt;Node1</title>
<path fill="none" stroke="#9a32cd" stroke-dasharray="5,2" d="M28.3974,-207.537C11.4662,-176.135 -17.4548,-109.544 14.642,-68 38.9092,-36.5901 160.175,-19.5192 212.521,-13.5139"/>
<polygon fill="#9a32cd" stroke="#9a32cd" points="25.4354,-209.411 33.3807,-216.42 31.5404,-205.986 25.4354,-209.411"/>
<text text-anchor="middle" x="39.642" y="-99" font-family="Helvetica,sans-Serif" font-size="10.00"> impulse</text>
<text text-anchor="middle" x="39.642" y="-88" font-family="Helvetica,sans-Serif" font-size="10.00">spawnflags</text>
</g>
<!-- Node8&#45;&gt;Node2 -->
<g id="edge7" class="edge"><title>Node8&#45;&gt;Node2</title>
<path fill="none" stroke="#9a32cd" stroke-dasharray="5,2" d="M62.6965,-214.635C70.4757,-210.373 78.6346,-204.815 84.642,-198 102.547,-177.686 86.9409,-158.196 108.642,-142 163.868,-100.785 197.894,-147.587 262.642,-124 274.174,-119.799 285.705,-111.781 293.587,-105.57"/>
<polygon fill="#9a32cd" stroke="#9a32cd" points="60.9525,-211.593 53.5663,-219.189 64.0771,-217.857 60.9525,-211.593"/>
<text text-anchor="middle" x="135.642" y="-184" font-family="Helvetica,sans-Serif" font-size="10.00"> ammo_field</text>
<text text-anchor="middle" x="135.642" y="-173" font-family="Helvetica,sans-Serif" font-size="10.00">impulse</text>
<text text-anchor="middle" x="135.642" y="-162" font-family="Helvetica,sans-Serif" font-size="10.00">spawnflags</text>
<text text-anchor="middle" x="135.642" y="-151" font-family="Helvetica,sans-Serif" font-size="10.00">m_id</text>
</g>
<!-- Node8&#45;&gt;Node9 -->
<g id="edge12" class="edge"><title>Node8&#45;&gt;Node9</title>
<path fill="none" stroke="#9a32cd" stroke-dasharray="5,2" d="M39.6979,-206.244C41.3086,-188.802 45.3755,-162.498 55.642,-142 62.9444,-127.42 76.2005,-113.899 85.4426,-105.561"/>
<polygon fill="#9a32cd" stroke="#9a32cd" points="36.2031,-206.045 38.9536,-216.277 43.1839,-206.563 36.2031,-206.045"/>
<text text-anchor="middle" x="68.142" y="-167.5" font-family="Helvetica,sans-Serif" font-size="10.00"> m_id</text>
</g>
<!-- Node9&#45;&gt;Node1 -->
<g id="edge10" class="edge"><title>Node9&#45;&gt;Node1</title>
<path fill="none" stroke="#9a32cd" stroke-dasharray="5,2" d="M107.561,-77.9708C117.272,-65.2716 132.056,-48.3919 148.642,-38 168.278,-25.6968 193.902,-18.6688 212.431,-14.8872"/>
<polygon fill="#9a32cd" stroke="#9a32cd" points="104.524,-76.1927 101.432,-86.3264 110.169,-80.3327 104.524,-76.1927"/>
<text text-anchor="middle" x="170.142" y="-41.5" font-family="Helvetica,sans-Serif" font-size="10.00"> m_model</text>
</g>
</g>
</svg>
