<?xml version="1.0" encoding="UTF-8" standalone="no"?>
<!DOCTYPE svg PUBLIC "-//W3C//DTD SVG 1.1//EN"
 "http://www.w3.org/Graphics/SVG/1.1/DTD/svg11.dtd">
<!-- Generated by graphviz version 2.38.0 (20140413.2041)
 -->
<!-- Title: WinningCondition_RanOutOfSpawns Pages: 1 -->
<!--zoomable 486 -->
<svg id="main" version="1.1" xmlns="http://www.w3.org/2000/svg" xmlns:xlink="http://www.w3.org/1999/xlink" xml:space="preserve" onload="init(evt)">
<style type="text/css"><![CDATA[
.edge:hover path { stroke: red; }
.edge:hover polygon { stroke: red; fill: red; }
]]></style>
<script type="text/javascript"><![CDATA[
var edges = document.getElementsByTagName('g');
if (edges && edges.length) {
  for (var i=0;i<edges.length;i++) {
    if (edges[i].id.substr(0,4)=='edge') {
      edges[i].setAttribute('class','edge');
    }
  }
}
]]></script>
        <defs>
                <circle id="rim" cx="0" cy="0" r="7"/>
                <circle id="rim2" cx="0" cy="0" r="3.5"/>
                <g id="zoomPlus">
                        <use xlink:href="#rim" fill="#404040">
                                <set attributeName="fill" to="#808080" begin="zoomplus.mouseover" end="zoomplus.mouseout"/>
                        </use>
                        <path d="M-4,0h8M0,-4v8" fill="none" stroke="white" stroke-width="1.5" pointer-events="none"/>
                </g>
                <g id="zoomMin">
                        <use xlink:href="#rim" fill="#404040">
                                <set attributeName="fill" to="#808080" begin="zoomminus.mouseover" end="zoomminus.mouseout"/>
                        </use>
                        <path d="M-4,0h8" fill="none" stroke="white" stroke-width="1.5" pointer-events="none"/>
                </g>
                <g id="dirArrow">
                        <path fill="none" stroke="white" stroke-width="1.5" d="M0,-3.0v7 M-2.5,-0.5L0,-3.0L2.5,-0.5"/>
                </g>
               <g id="resetDef">
                       <use xlink:href="#rim2" fill="#404040">
                               <set attributeName="fill" to="#808080" begin="reset.mouseover" end="reset.mouseout"/>
                       </use>
               </g>
        </defs>

<script type="text/javascript">
var viewWidth = 904;
var viewHeight = 486;
var sectionId = 'dynsection-75';
</script>
<script xlink:href="../../svgpan.js"/>
<svg id="graph" class="graph">
<g id="viewport">
<title>WinningCondition_RanOutOfSpawns</title>
<!-- Node1 -->
<g id="node1" class="node"><title>Node1</title>
<polygon fill="#bfbfbf" stroke="black" points="0,-263.335 0,-293.335 149,-293.335 149,-263.335 0,-263.335"/>
<text text-anchor="start" x="8" y="-281.335" font-family="Helvetica,sans-Serif" font-size="10.00">WinningCondition_RanOutOf</text>
<text text-anchor="middle" x="74.5" y="-270.335" font-family="Helvetica,sans-Serif" font-size="10.00">Spawns</text>
</g>
<!-- Node2 -->
<g id="node2" class="node"><title>Node2</title>
<g id="a_node2"><a xlink:href="../../dd/dbe/world_8qc.html#a665a3549db99a167e6d8e8e63e95e9d3" target="_top" xlink:title="AddWinners">
<polygon fill="none" stroke="black" points="226,-458.835 226,-477.835 299,-477.835 299,-458.835 226,-458.835"/>
<text text-anchor="middle" x="262.5" y="-465.835" font-family="Helvetica,sans-Serif" font-size="10.00">AddWinners</text>
</a>
</g>
</g>
<!-- Node1&#45;&gt;Node2 -->
<g id="edge1" class="edge"><title>Node1&#45;&gt;Node2</title>
<path fill="none" stroke="midnightblue" d="M80.7031,-293.402C93.1036,-326.983 127.713,-408.235 185,-449.335 194.024,-455.809 205.014,-460.087 215.818,-462.912"/>
<polygon fill="midnightblue" stroke="midnightblue" points="215.101,-466.338 225.625,-465.119 216.637,-459.509 215.101,-466.338"/>
</g>
<!-- Node3 -->
<g id="node3" class="node"><title>Node3</title>
<g id="a_node3"><a xlink:href="../../dd/dbe/world_8qc.html#a1e656abc1ff1500960d4cc2f55bcd820" target="_top" xlink:title="ClearWinners">
<polygon fill="none" stroke="black" points="223,-420.835 223,-439.835 302,-439.835 302,-420.835 223,-420.835"/>
<text text-anchor="middle" x="262.5" y="-427.835" font-family="Helvetica,sans-Serif" font-size="10.00">ClearWinners</text>
</a>
</g>
</g>
<!-- Node1&#45;&gt;Node3 -->
<g id="edge2" class="edge"><title>Node1&#45;&gt;Node3</title>
<path fill="none" stroke="midnightblue" d="M83.5023,-293.372C99.1208,-321.204 136.429,-380.699 185,-411.335 193.333,-416.59 203.029,-420.393 212.663,-423.144"/>
<polygon fill="midnightblue" stroke="midnightblue" points="212.068,-426.603 222.619,-425.646 213.774,-419.814 212.068,-426.603"/>
</g>
<!-- Node4 -->
<g id="node4" class="node"><title>Node4</title>
<g id="a_node4"><a xlink:href="../../d4/d0c/csprogsdefs_8qc.html#acbb54a239d76062465dccbc6a6c6e464" target="_top" xlink:title="entity">
<polygon fill="none" stroke="black" points="437.5,-78.8345 437.5,-97.8345 481.5,-97.8345 481.5,-78.8345 437.5,-78.8345"/>
<text text-anchor="middle" x="459.5" y="-85.8345" font-family="Helvetica,sans-Serif" font-size="10.00">entity</text>
</a>
</g>
</g>
<!-- Node1&#45;&gt;Node4 -->
<g id="edge3" class="edge"><title>Node1&#45;&gt;Node4</title>
<path fill="none" stroke="midnightblue" d="M84.4871,-262.928C100.893,-236.236 138.34,-181.55 185,-153.335 225.96,-128.566 364.721,-103.593 427.362,-93.2699"/>
<polygon fill="midnightblue" stroke="midnightblue" points="428.129,-96.6912 437.435,-91.6283 427.003,-89.7823 428.129,-96.6912"/>
</g>
<!-- Node5 -->
<g id="node5" class="node"><title>Node5</title>
<g id="a_node5"><a xlink:href="../../de/d4f/teamplay_8qc.html#ad8e889fc6c60b768543862d4e3454a49" target="_top" xlink:title="Returns the global team entity at the given index. ">
<polygon fill="none" stroke="black" points="598,-21.8345 598,-40.8345 738,-40.8345 738,-21.8345 598,-21.8345"/>
<text text-anchor="middle" x="668" y="-28.8345" font-family="Helvetica,sans-Serif" font-size="10.00">Team_GetTeamFromIndex</text>
</a>
</g>
</g>
<!-- Node1&#45;&gt;Node5 -->
<g id="edge4" class="edge"><title>Node1&#45;&gt;Node5</title>
<path fill="none" stroke="midnightblue" d="M78.667,-263.316C87.7024,-224.412 117.432,-119.883 185,-69.3345 315.187,28.0595 524.298,-0.171761 618.376,-19.6836"/>
<polygon fill="midnightblue" stroke="midnightblue" points="617.683,-23.1143 628.193,-21.7752 619.142,-16.268 617.683,-23.1143"/>
</g>
<!-- Node7 -->
<g id="node7" class="node"><title>Node7</title>
<g id="a_node7"><a xlink:href="../../de/d4f/teamplay_8qc.html#aacf9c9f5e6578c248196822550d59a92" target="_top" xlink:title="Returns the score of the team. ">
<polygon fill="none" stroke="black" points="203.5,-306.835 203.5,-325.835 321.5,-325.835 321.5,-306.835 203.5,-306.835"/>
<text text-anchor="middle" x="262.5" y="-313.835" font-family="Helvetica,sans-Serif" font-size="10.00">Team_GetTeamScore</text>
</a>
</g>
</g>
<!-- Node1&#45;&gt;Node7 -->
<g id="edge6" class="edge"><title>Node1&#45;&gt;Node7</title>
<path fill="none" stroke="midnightblue" d="M149.012,-293.353C167.602,-297.151 187.279,-301.171 204.889,-304.769"/>
<polygon fill="midnightblue" stroke="midnightblue" points="204.497,-308.261 214.995,-306.834 205.898,-301.403 204.497,-308.261"/>
</g>
<!-- Node8 -->
<g id="node8" class="node"><title>Node8</title>
<g id="a_node8"><a xlink:href="../../db/d07/teams_8qh.html#aa49da3080c81857b2c70be950f953e9a" target="_top" xlink:title="Converts team index into team value. ">
<polygon fill="none" stroke="black" points="208.5,-268.835 208.5,-287.835 316.5,-287.835 316.5,-268.835 208.5,-268.835"/>
<text text-anchor="middle" x="262.5" y="-275.835" font-family="Helvetica,sans-Serif" font-size="10.00">Team_IndexToTeam</text>
</a>
</g>
</g>
<!-- Node1&#45;&gt;Node8 -->
<g id="edge7" class="edge"><title>Node1&#45;&gt;Node8</title>
<path fill="none" stroke="midnightblue" d="M149.012,-278.335C165.255,-278.335 182.328,-278.335 198.128,-278.335"/>
<polygon fill="midnightblue" stroke="midnightblue" points="198.305,-281.835 208.305,-278.335 198.305,-274.835 198.305,-281.835"/>
</g>
<!-- Node9 -->
<g id="node9" class="node"><title>Node9</title>
<g id="a_node9"><a xlink:href="../../db/d07/teams_8qh.html#a19e04bfb672edb4669be6b04609b0be7" target="_top" xlink:title="Returns whether team value is valid. ">
<polygon fill="none" stroke="black" points="408,-344.835 408,-363.835 511,-363.835 511,-344.835 408,-344.835"/>
<text text-anchor="middle" x="459.5" y="-351.835" font-family="Helvetica,sans-Serif" font-size="10.00">Team_IsValidTeam</text>
</a>
</g>
</g>
<!-- Node1&#45;&gt;Node9 -->
<g id="edge8" class="edge"><title>Node1&#45;&gt;Node9</title>
<path fill="none" stroke="midnightblue" d="M97.8406,-293.481C119.197,-307.084 152.819,-326.267 185,-335.335 256.055,-355.356 341.401,-358.092 397.641,-357.138"/>
<polygon fill="midnightblue" stroke="midnightblue" points="397.871,-360.633 407.794,-356.92 397.721,-353.635 397.871,-360.633"/>
</g>
<!-- Node10 -->
<g id="node10" class="node"><title>Node10</title>
<g id="a_node10"><a xlink:href="../../de/d4f/teamplay_8qc.html#a540cb8e04a8ee3627134ec7edbcb4aec" target="_top" xlink:title="Sets the score of the team. ">
<polygon fill="none" stroke="black" points="204,-162.835 204,-181.835 321,-181.835 321,-162.835 204,-162.835"/>
<text text-anchor="middle" x="262.5" y="-169.835" font-family="Helvetica,sans-Serif" font-size="10.00">Team_SetTeamScore</text>
</a>
</g>
</g>
<!-- Node1&#45;&gt;Node10 -->
<g id="edge9" class="edge"><title>Node1&#45;&gt;Node10</title>
<path fill="none" stroke="midnightblue" d="M90.3399,-263.017C110.131,-243.479 147.096,-209.992 185,-191.335 189.911,-188.917 195.155,-186.791 200.508,-184.925"/>
<polygon fill="midnightblue" stroke="midnightblue" points="201.744,-188.205 210.213,-181.839 199.623,-181.534 201.744,-188.205"/>
</g>
<!-- Node11 -->
<g id="node11" class="node"><title>Node11</title>
<g id="a_node11"><a xlink:href="../../de/d4f/teamplay_8qc.html#acb73b42eb788f18df47e8496810cb6e3" target="_top" xlink:title="Checks whether the player can join teams according to global configuration and mutator settings...">
<polygon fill="none" stroke="black" points="187,-201.335 187,-231.335 338,-231.335 338,-201.335 187,-201.335"/>
<text text-anchor="start" x="195" y="-219.335" font-family="Helvetica,sans-Serif" font-size="10.00">TeamBalance_CheckAllowed</text>
<text text-anchor="middle" x="262.5" y="-208.335" font-family="Helvetica,sans-Serif" font-size="10.00">Teams</text>
</a>
</g>
</g>
<!-- Node1&#45;&gt;Node11 -->
<g id="edge10" class="edge"><title>Node1&#45;&gt;Node11</title>
<path fill="none" stroke="midnightblue" d="M120.525,-263.326C146.379,-254.708 179.045,-243.82 206.42,-234.694"/>
<polygon fill="midnightblue" stroke="midnightblue" points="207.865,-237.902 216.245,-231.42 205.651,-231.262 207.865,-237.902"/>
</g>
<!-- Node22 -->
<g id="node22" class="node"><title>Node22</title>
<g id="a_node22"><a xlink:href="../../de/d4f/teamplay_8qc.html#acc837925d29f532c0c1668ff6b53a5c1" target="_top" xlink:title="Returns whether the team change to the specified team is allowed. ">
<polygon fill="none" stroke="black" points="185,-382.835 185,-401.835 340,-401.835 340,-382.835 185,-382.835"/>
<text text-anchor="middle" x="262.5" y="-389.835" font-family="Helvetica,sans-Serif" font-size="10.00">TeamBalance_IsTeamAllowed</text>
</a>
</g>
</g>
<!-- Node1&#45;&gt;Node22 -->
<g id="edge25" class="edge"><title>Node1&#45;&gt;Node22</title>
<path fill="none" stroke="midnightblue" d="M90.0748,-293.508C109.863,-313.309 147.126,-347.841 185,-368.335 193.181,-372.761 202.304,-376.512 211.32,-379.639"/>
<polygon fill="midnightblue" stroke="midnightblue" points="210.419,-383.026 221.011,-382.789 212.583,-376.369 210.419,-383.026"/>
</g>
<!-- Node23 -->
<g id="node23" class="node"><title>Node23</title>
<g id="a_node23"><a xlink:href="../../d2/d79/scores_8qc.html#a74bac5f29749ffee855cd6a5d0e18836" target="_top" xlink:title="Adds a score to the given team. ">
<polygon fill="none" stroke="black" points="198,-78.8345 198,-97.8345 327,-97.8345 327,-78.8345 198,-78.8345"/>
<text text-anchor="middle" x="262.5" y="-85.8345" font-family="Helvetica,sans-Serif" font-size="10.00">TeamScore_AddToTeam</text>
</a>
</g>
</g>
<!-- Node1&#45;&gt;Node23 -->
<g id="edge28" class="edge"><title>Node1&#45;&gt;Node23</title>
<path fill="none" stroke="midnightblue" d="M81.8729,-263.051C95.8734,-231.256 132.318,-157.529 185,-116.335 192.855,-110.193 202.185,-105.31 211.582,-101.459"/>
<polygon fill="midnightblue" stroke="midnightblue" points="212.817,-104.734 220.95,-97.9434 210.357,-98.1803 212.817,-104.734"/>
</g>
<!-- Node6 -->
<g id="node6" class="node"><title>Node6</title>
<g id="a_node6"><a xlink:href="../../db/d07/teams_8qh.html#a412e0e869a48ecb20307b6c916be7001" target="_top" xlink:title="Returns whether the team index is valid. ">
<polygon fill="none" stroke="black" points="793,-116.835 793,-135.835 896,-135.835 896,-116.835 793,-116.835"/>
<text text-anchor="middle" x="844.5" y="-123.835" font-family="Helvetica,sans-Serif" font-size="10.00">Team_IsValidIndex</text>
</a>
</g>
</g>
<!-- Node5&#45;&gt;Node6 -->
<g id="edge5" class="edge"><title>Node5&#45;&gt;Node6</title>
<path fill="none" stroke="midnightblue" d="M694.203,-40.8517C712.104,-47.9375 736.5,-58.2644 757,-69.3345 780.178,-81.851 805.15,-98.7039 822.275,-110.834"/>
<polygon fill="midnightblue" stroke="midnightblue" points="820.296,-113.722 830.464,-116.699 824.372,-108.03 820.296,-113.722"/>
</g>
<!-- Node11&#45;&gt;Node4 -->
<g id="edge13" class="edge"><title>Node11&#45;&gt;Node4</title>
<path fill="none" stroke="midnightblue" d="M325.797,-201.234C330.938,-198.47 335.773,-195.201 340,-191.335 369.971,-163.92 344.833,-133.381 376,-107.335 390.196,-95.4708 410.378,-90.6802 427.227,-88.8754"/>
<polygon fill="midnightblue" stroke="midnightblue" points="427.504,-92.3644 437.203,-88.1009 426.962,-85.3854 427.504,-92.3644"/>
</g>
<!-- Node11&#45;&gt;Node9 -->
<g id="edge16" class="edge"><title>Node11&#45;&gt;Node9</title>
<path fill="none" stroke="midnightblue" d="M300.561,-231.356C314.259,-238.299 329.089,-247.635 340,-259.335 365.492,-286.668 346.876,-311.909 376,-335.335 382.432,-340.508 390.013,-344.327 397.929,-347.135"/>
<polygon fill="midnightblue" stroke="midnightblue" points="397.111,-350.544 407.696,-350.083 399.134,-343.843 397.111,-350.544"/>
</g>
<!-- Node11&#45;&gt;Node11 -->
<g id="edge18" class="edge"><title>Node11&#45;&gt;Node11</title>
<path fill="none" stroke="midnightblue" d="M229.737,-231.494C221.837,-240.891 232.758,-249.835 262.5,-249.835 280.624,-249.835 291.759,-246.514 295.905,-241.792"/>
<polygon fill="midnightblue" stroke="midnightblue" points="299.379,-241.256 295.263,-231.494 292.392,-241.692 299.379,-241.256"/>
</g>
<!-- Node12 -->
<g id="node12" class="node"><title>Node12</title>
<g id="a_node12"><a xlink:href="../../d5/d14/scores__rules_8qc.html#ae9adf848be0a903b09499cbc48313cec" target="_top" xlink:title="AvailableTeams">
<polygon fill="none" stroke="black" points="415,-154.835 415,-173.835 504,-173.835 504,-154.835 415,-154.835"/>
<text text-anchor="middle" x="459.5" y="-161.835" font-family="Helvetica,sans-Serif" font-size="10.00">AvailableTeams</text>
</a>
</g>
</g>
<!-- Node11&#45;&gt;Node12 -->
<g id="edge11" class="edge"><title>Node11&#45;&gt;Node12</title>
<path fill="none" stroke="midnightblue" d="M312.333,-201.329C332.036,-195.453 355.028,-188.82 376,-183.335 385.287,-180.905 395.205,-178.479 404.828,-176.212"/>
<polygon fill="midnightblue" stroke="midnightblue" points="405.763,-179.588 414.71,-173.914 404.177,-172.77 405.763,-179.588"/>
</g>
<!-- Node14 -->
<g id="node14" class="node"><title>Node14</title>
<g id="a_node14"><a xlink:href="../../d8/de2/menudefs_8qc.html#a53c4a8e7afd17cad92bc00adba96bb78" target="_top" xlink:title="find">
<polygon fill="none" stroke="black" points="442.5,-306.835 442.5,-325.835 476.5,-325.835 476.5,-306.835 442.5,-306.835"/>
<text text-anchor="middle" x="459.5" y="-313.835" font-family="Helvetica,sans-Serif" font-size="10.00">find</text>
</a>
</g>
</g>
<!-- Node11&#45;&gt;Node14 -->
<g id="edge14" class="edge"><title>Node11&#45;&gt;Node14</title>
<path fill="none" stroke="midnightblue" d="M295.358,-231.49C309.635,-238.96 326.303,-248.655 340,-259.335 358.347,-273.64 355.804,-285.787 376,-297.335 393.166,-307.149 415.073,-311.895 431.998,-314.19"/>
<polygon fill="midnightblue" stroke="midnightblue" points="431.967,-317.709 442.301,-315.372 432.765,-310.755 431.967,-317.709"/>
</g>
<!-- Node15 -->
<g id="node15" class="node"><title>Node15</title>
<g id="a_node15"><a xlink:href="../../d8/de2/menudefs_8qc.html#a60338c2153150633178af678cf3ca57c" target="_top" xlink:title="spawn">
<polygon fill="none" stroke="black" points="436,-268.835 436,-287.835 483,-287.835 483,-268.835 436,-268.835"/>
<text text-anchor="middle" x="459.5" y="-275.835" font-family="Helvetica,sans-Serif" font-size="10.00">spawn</text>
</a>
</g>
</g>
<!-- Node11&#45;&gt;Node15 -->
<g id="edge15" class="edge"><title>Node11&#45;&gt;Node15</title>
<path fill="none" stroke="midnightblue" d="M299.032,-231.369C320.953,-240.279 349.798,-251.352 376,-259.335 392.222,-264.277 410.579,-268.623 425.851,-271.907"/>
<polygon fill="midnightblue" stroke="midnightblue" points="425.363,-275.381 435.868,-274.005 426.798,-268.53 425.363,-275.381"/>
</g>
<!-- Node16 -->
<g id="node16" class="node"><title>Node16</title>
<g id="a_node16"><a xlink:href="../../de/d4f/teamplay_8qc.html#a313d54cad51a44d5b27a6b03366b728a" target="_top" xlink:title="Bans team change to all teams except the given one. ">
<polygon fill="none" stroke="black" points="376,-230.835 376,-249.835 543,-249.835 543,-230.835 376,-230.835"/>
<text text-anchor="middle" x="459.5" y="-237.835" font-family="Helvetica,sans-Serif" font-size="10.00">TeamBalance_BanTeamsExcept</text>
</a>
</g>
</g>
<!-- Node11&#45;&gt;Node16 -->
<g id="edge17" class="edge"><title>Node11&#45;&gt;Node16</title>
<path fill="none" stroke="midnightblue" d="M338.056,-225.511C348.84,-226.838 360.02,-228.214 371.029,-229.569"/>
<polygon fill="midnightblue" stroke="midnightblue" points="370.721,-233.057 381.074,-230.805 371.576,-226.11 370.721,-233.057"/>
</g>
<!-- Node17 -->
<g id="node17" class="node"><title>Node17</title>
<g id="a_node17"><a xlink:href="../../de/d4f/teamplay_8qc.html#a30e7d9bb583ec1b560c17ecde4b0a681" target="_top" xlink:title="Destroy the team balance entity. ">
<polygon fill="none" stroke="black" points="398,-192.835 398,-211.835 521,-211.835 521,-192.835 398,-192.835"/>
<text text-anchor="middle" x="459.5" y="-199.835" font-family="Helvetica,sans-Serif" font-size="10.00">TeamBalance_Destroy</text>
</a>
</g>
</g>
<!-- Node11&#45;&gt;Node17 -->
<g id="edge19" class="edge"><title>Node11&#45;&gt;Node17</title>
<path fill="none" stroke="midnightblue" d="M338.056,-210.982C354.284,-209.817 371.412,-208.587 387.498,-207.432"/>
<polygon fill="midnightblue" stroke="midnightblue" points="388.175,-210.893 397.899,-206.685 387.674,-203.911 388.175,-210.893"/>
</g>
<!-- Node18 -->
<g id="node18" class="node"><title>Node18</title>
<g id="a_node18"><a xlink:href="../../de/d4f/teamplay_8qc.html#aebcef3dce1a9a78c04ff5a26d9aaf8b7" target="_top" xlink:title="Returns the team entity of the team balance entity that corresponds to the given TEAM_NUM value...">
<polygon fill="none" stroke="black" points="395.5,-116.835 395.5,-135.835 523.5,-135.835 523.5,-116.835 395.5,-116.835"/>
<text text-anchor="middle" x="459.5" y="-123.835" font-family="Helvetica,sans-Serif" font-size="10.00">TeamBalance_GetTeam</text>
</a>
</g>
</g>
<!-- Node11&#45;&gt;Node18 -->
<g id="edge20" class="edge"><title>Node11&#45;&gt;Node18</title>
<path fill="none" stroke="midnightblue" d="M322.063,-201.265C328.386,-198.468 334.508,-195.184 340,-191.335 361.26,-176.435 354.095,-159.269 376,-145.335 379.323,-143.221 382.855,-141.341 386.514,-139.67"/>
<polygon fill="midnightblue" stroke="midnightblue" points="387.853,-142.904 395.83,-135.931 385.246,-136.408 387.853,-142.904"/>
</g>
<!-- Node21 -->
<g id="node21" class="node"><title>Node21</title>
<g id="a_node21"><a xlink:href="../../de/d4f/teamplay_8qc.html#aa51e7262063512a9c4720abdc5568d48" target="_top" xlink:title="Returns whether the team change to the specified team is allowed. ">
<polygon fill="none" stroke="black" points="382,-383.335 382,-413.335 537,-413.335 537,-383.335 382,-383.335"/>
<text text-anchor="start" x="390" y="-401.335" font-family="Helvetica,sans-Serif" font-size="10.00">TeamBalance_IsTeamAllowed</text>
<text text-anchor="middle" x="459.5" y="-390.335" font-family="Helvetica,sans-Serif" font-size="10.00">Internal</text>
</a>
</g>
</g>
<!-- Node11&#45;&gt;Node21 -->
<g id="edge24" class="edge"><title>Node11&#45;&gt;Node21</title>
<path fill="none" stroke="midnightblue" d="M303.002,-231.402C316.342,-238.179 330.297,-247.392 340,-259.335 373.504,-300.572 338.211,-335.983 376,-373.335 377.477,-374.794 379.036,-376.169 380.664,-377.464"/>
<polygon fill="midnightblue" stroke="midnightblue" points="379.07,-380.61 389.318,-383.297 382.982,-374.806 379.07,-380.61"/>
</g>
<!-- Node13 -->
<g id="node13" class="node"><title>Node13</title>
<g id="a_node13"><a xlink:href="../../d5/d14/scores__rules_8qc.html#ae01e878023ee1a5ecc45cc3d62c3895f" target="_top" xlink:title="NumTeams">
<polygon fill="none" stroke="black" points="632.5,-154.835 632.5,-173.835 703.5,-173.835 703.5,-154.835 632.5,-154.835"/>
<text text-anchor="middle" x="668" y="-161.835" font-family="Helvetica,sans-Serif" font-size="10.00">NumTeams</text>
</a>
</g>
</g>
<!-- Node12&#45;&gt;Node13 -->
<g id="edge12" class="edge"><title>Node12&#45;&gt;Node13</title>
<path fill="none" stroke="midnightblue" d="M504.041,-164.335C538.678,-164.335 586.975,-164.335 621.991,-164.335"/>
<polygon fill="midnightblue" stroke="midnightblue" points="622.402,-167.835 632.402,-164.335 622.402,-160.835 622.402,-167.835"/>
</g>
<!-- Node19 -->
<g id="node19" class="node"><title>Node19</title>
<g id="a_node19"><a xlink:href="../../db/d07/teams_8qh.html#a897aed6be6a82e4d6622abde399e002d" target="_top" xlink:title="Converts team value into team index. ">
<polygon fill="none" stroke="black" points="614,-78.8345 614,-97.8345 722,-97.8345 722,-78.8345 614,-78.8345"/>
<text text-anchor="middle" x="668" y="-85.8345" font-family="Helvetica,sans-Serif" font-size="10.00">Team_TeamToIndex</text>
</a>
</g>
</g>
<!-- Node18&#45;&gt;Node19 -->
<g id="edge21" class="edge"><title>Node18&#45;&gt;Node19</title>
<path fill="none" stroke="midnightblue" d="M512.342,-116.795C540.449,-111.622 575.38,-105.194 604.929,-99.7568"/>
<polygon fill="midnightblue" stroke="midnightblue" points="605.935,-103.131 615.137,-97.8784 604.668,-96.2461 605.935,-103.131"/>
</g>
<!-- Node20 -->
<g id="node20" class="node"><title>Node20</title>
<g id="a_node20"><a xlink:href="../../de/d4f/teamplay_8qc.html#af3b1646b76af378b8a2c420213e0a4a4" target="_top" xlink:title="Returns the team entity of the team balance entity at the given index. ">
<polygon fill="none" stroke="black" points="579,-116.835 579,-135.835 757,-135.835 757,-116.835 579,-116.835"/>
<text text-anchor="middle" x="668" y="-123.835" font-family="Helvetica,sans-Serif" font-size="10.00">TeamBalance_GetTeamFromIndex</text>
</a>
</g>
</g>
<!-- Node18&#45;&gt;Node20 -->
<g id="edge22" class="edge"><title>Node18&#45;&gt;Node20</title>
<path fill="none" stroke="midnightblue" d="M523.579,-126.335C537.881,-126.335 553.402,-126.335 568.775,-126.335"/>
<polygon fill="midnightblue" stroke="midnightblue" points="568.841,-129.835 578.84,-126.335 568.84,-122.835 568.841,-129.835"/>
</g>
<!-- Node20&#45;&gt;Node6 -->
<g id="edge23" class="edge"><title>Node20&#45;&gt;Node6</title>
<path fill="none" stroke="midnightblue" d="M757.017,-126.335C765.593,-126.335 774.159,-126.335 782.384,-126.335"/>
<polygon fill="midnightblue" stroke="midnightblue" points="782.595,-129.835 792.595,-126.335 782.595,-122.835 782.595,-129.835"/>
</g>
<!-- Node22&#45;&gt;Node6 -->
<g id="edge26" class="edge"><title>Node22&#45;&gt;Node6</title>
<path fill="none" stroke="midnightblue" d="M304.551,-401.902C316.069,-404.757 328.567,-408.015 340,-411.335 356.197,-416.037 359.352,-420.633 376,-423.335 449.264,-435.224 474.345,-451.537 543,-423.335 686.695,-364.307 798.298,-199.679 832.563,-144.571"/>
<polygon fill="midnightblue" stroke="midnightblue" points="835.651,-146.232 837.889,-135.876 829.681,-142.575 835.651,-146.232"/>
</g>
<!-- Node22&#45;&gt;Node21 -->
<g id="edge27" class="edge"><title>Node22&#45;&gt;Node21</title>
<path fill="none" stroke="midnightblue" d="M340.009,-394.689C350.44,-395.01 361.207,-395.341 371.802,-395.667"/>
<polygon fill="midnightblue" stroke="midnightblue" points="371.788,-399.168 381.891,-395.977 372.003,-392.171 371.788,-399.168"/>
</g>
<!-- Node23&#45;&gt;Node4 -->
<g id="edge29" class="edge"><title>Node23&#45;&gt;Node4</title>
<path fill="none" stroke="midnightblue" d="M327.08,-88.3345C360.488,-88.3345 399.966,-88.3345 426.871,-88.3345"/>
<polygon fill="midnightblue" stroke="midnightblue" points="427.228,-91.8346 437.228,-88.3345 427.228,-84.8346 427.228,-91.8346"/>
</g>
<!-- Node24 -->
<g id="node24" class="node"><title>Node24</title>
<g id="a_node24"><a xlink:href="../../d8/de2/menudefs_8qc.html#a56b53595c8aa15ca107c03896db91fd2" target="_top" xlink:title="error">
<polygon fill="none" stroke="black" points="439.5,-40.8345 439.5,-59.8345 479.5,-59.8345 479.5,-40.8345 439.5,-40.8345"/>
<text text-anchor="middle" x="459.5" y="-47.8345" font-family="Helvetica,sans-Serif" font-size="10.00">error</text>
</a>
</g>
</g>
<!-- Node23&#45;&gt;Node24 -->
<g id="edge30" class="edge"><title>Node23&#45;&gt;Node24</title>
<path fill="none" stroke="midnightblue" d="M312.455,-78.7946C349.19,-71.636 398.267,-62.0722 429.132,-56.0575"/>
<polygon fill="midnightblue" stroke="midnightblue" points="430.094,-59.436 439.24,-54.0878 428.755,-52.5653 430.094,-59.436"/>
</g>
</g>
</svg>
        <g id="navigator" transform="translate(0 0)" fill="#404254">
                <rect fill="#f2f5e9" fill-opacity="0.5" stroke="#606060" stroke-width=".5" x="0" y="0" width="60" height="60"/>
                <use id="zoomplus" xlink:href="#zoomPlus" x="17" y="9" onmousedown="handleZoom(evt,'in')"/>
                <use id="zoomminus" xlink:href="#zoomMin" x="42" y="9" onmousedown="handleZoom(evt,'out')"/>
                <use id="reset" xlink:href="#resetDef" x="30" y="36" onmousedown="handleReset()"/>
                <g id="arrowUp" xlink:href="#dirArrow" transform="translate(30 24)" onmousedown="handlePan(0,-1)">
                  <use xlink:href="#rim" fill="#404040">
                        <set attributeName="fill" to="#808080" begin="arrowUp.mouseover" end="arrowUp.mouseout"/>
                  </use>
                  <path fill="none" stroke="white" stroke-width="1.5" d="M0,-3.0v7 M-2.5,-0.5L0,-3.0L2.5,-0.5"/>
                </g>
                <g id="arrowRight" xlink:href="#dirArrow" transform="rotate(90) translate(36 -43)" onmousedown="handlePan(1,0)">
                  <use xlink:href="#rim" fill="#404040">
                        <set attributeName="fill" to="#808080" begin="arrowRight.mouseover" end="arrowRight.mouseout"/>
                  </use>
                  <path fill="none" stroke="white" stroke-width="1.5" d="M0,-3.0v7 M-2.5,-0.5L0,-3.0L2.5,-0.5"/>
                </g>
                <g id="arrowDown" xlink:href="#dirArrow" transform="rotate(180) translate(-30 -48)" onmousedown="handlePan(0,1)">
                  <use xlink:href="#rim" fill="#404040">
                        <set attributeName="fill" to="#808080" begin="arrowDown.mouseover" end="arrowDown.mouseout"/>
                  </use>
                  <path fill="none" stroke="white" stroke-width="1.5" d="M0,-3.0v7 M-2.5,-0.5L0,-3.0L2.5,-0.5"/>
                </g>
                <g id="arrowLeft" xlink:href="#dirArrow" transform="rotate(270) translate(-36 17)" onmousedown="handlePan(-1,0)">
                  <use xlink:href="#rim" fill="#404040">
                        <set attributeName="fill" to="#808080" begin="arrowLeft.mouseover" end="arrowLeft.mouseout"/>
                  </use>
                  <path fill="none" stroke="white" stroke-width="1.5" d="M0,-3.0v7 M-2.5,-0.5L0,-3.0L2.5,-0.5"/>
                </g>
        </g>
        <svg viewBox="0 0 15 15" width="100%" height="30px" preserveAspectRatio="xMaxYMin meet">
         <g id="arrow_out" transform="scale(0.3 0.3)">
          <a xlink:href="world_8qc_ab6fe1d680f8a7a4c9b39c92861604ba8_cgraph_org.svg" target="_base">
           <rect id="button" ry="5" rx="5" y="6" x="6" height="38" width="38"
                fill="#f2f5e9" fill-opacity="0.5" stroke="#606060" stroke-width="1.0"/>
           <path id="arrow"
             d="M 11.500037,31.436501 C 11.940474,20.09759 22.043105,11.32322 32.158766,21.979434 L 37.068811,17.246167 C 37.068811,17.246167 37.088388,32 37.088388,32 L 22.160133,31.978069 C 22.160133,31.978069 26.997745,27.140456 26.997745,27.140456 C 18.528582,18.264221 13.291696,25.230495 11.500037,31.436501 z"
             style="fill:#404040;"/>
          </a>
         </g>
        </svg>
</svg>
