<?xml version="1.0" encoding="UTF-8" standalone="no"?>
<!DOCTYPE svg PUBLIC "-//W3C//DTD SVG 1.1//EN"
 "http://www.w3.org/Graphics/SVG/1.1/DTD/svg11.dtd">
<!-- Generated by graphviz version 2.40.1 (20161225.0304)
 -->
<!-- Title: GetWinningCode Pages: 1 -->
<!--zoomable 134 -->
<svg id="main" version="1.1" xmlns="http://www.w3.org/2000/svg" xmlns:xlink="http://www.w3.org/1999/xlink" xml:space="preserve" onload="init(evt)">
<style type="text/css"><![CDATA[
.edge:hover path { stroke: red; }
.edge:hover polygon { stroke: red; fill: red; }
]]></style>
<script type="text/javascript"><![CDATA[
var edges = document.getElementsByTagName('g');
if (edges && edges.length) {
  for (var i=0;i<edges.length;i++) {
    if (edges[i].id.substr(0,4)=='edge') {
      edges[i].setAttribute('class','edge');
    }
  }
}
]]></script>
        <defs>
                <circle id="rim" cx="0" cy="0" r="7"/>
                <circle id="rim2" cx="0" cy="0" r="3.5"/>
                <g id="zoomPlus">
                        <use xlink:href="#rim" fill="#404040">
                                <set attributeName="fill" to="#808080" begin="zoomplus.mouseover" end="zoomplus.mouseout"/>
                        </use>
                        <path d="M-4,0h8M0,-4v8" fill="none" stroke="white" stroke-width="1.5" pointer-events="none"/>
                </g>
                <g id="zoomMin">
                        <use xlink:href="#rim" fill="#404040">
                                <set attributeName="fill" to="#808080" begin="zoomminus.mouseover" end="zoomminus.mouseout"/>
                        </use>
                        <path d="M-4,0h8" fill="none" stroke="white" stroke-width="1.5" pointer-events="none"/>
                </g>
                <g id="dirArrow">
                        <path fill="none" stroke="white" stroke-width="1.5" d="M0,-3.0v7 M-2.5,-0.5L0,-3.0L2.5,-0.5"/>
                </g>
               <g id="resetDef">
                       <use xlink:href="#rim2" fill="#404040">
                               <set attributeName="fill" to="#808080" begin="reset.mouseover" end="reset.mouseout"/>
                       </use>
               </g>
        </defs>

<script type="text/javascript">
var viewWidth = 661;
var viewHeight = 134;
var sectionId = 'dynsection-17';
</script>
<script xlink:href="../../svgpan.js"/>
<svg id="graph" class="graph">
<g id="viewport">
<title>GetWinningCode</title>
<!-- Node407 -->
<g id="node1" class="node">
<title>Node407</title>
<polygon fill="#bfbfbf" stroke="#000000" points="0,-62.5 0,-81.5 98,-81.5 98,-62.5 0,-62.5"/>
<text text-anchor="middle" x="49" y="-69.5" font-family="Helvetica,sans-Serif" font-size="10.00" fill="#000000">GetWinningCode</text>
</g>
<!-- Node408 -->
<g id="node2" class="node">
<title>Node408</title>
<g id="a_node2"><a xlink:href="../../de/d2b/world_8qh.html#a78c0ed0111dcca8924305a46bbf880bd" target="_top" xlink:title="WinningCondition_Scores">
<polygon fill="none" stroke="#000000" points="134,-62.5 134,-81.5 274,-81.5 274,-62.5 134,-62.5"/>
<text text-anchor="middle" x="204" y="-69.5" font-family="Helvetica,sans-Serif" font-size="10.00" fill="#000000">WinningCondition_Scores</text>
</a>
</g>
</g>
<!-- Node407&#45;&gt;Node408 -->
<g id="edge1" class="edge">
<title>Node407&#45;&gt;Node408</title>
<path fill="none" stroke="#191970" d="M108.0963,-72C116.4859,-72 125.1808,-72 133.7562,-72"/>
<polygon fill="#191970" stroke="#191970" points="108.043,-68.5001 98.043,-72 108.0429,-75.5001 108.043,-68.5001"/>
</g>
<!-- Node409 -->
<g id="node3" class="node">
<title>Node409</title>
<g id="a_node3"><a xlink:href="../../db/dec/sv__race_8qc.html#aedd0fd187ff98ac747b935a639930a4f" target="_top" xlink:title="WinningCondition_Race">
<polygon fill="none" stroke="#000000" points="323,-106.5 323,-125.5 455,-125.5 455,-106.5 323,-106.5"/>
<text text-anchor="middle" x="389" y="-113.5" font-family="Helvetica,sans-Serif" font-size="10.00" fill="#000000">WinningCondition_Race</text>
</a>
</g>
</g>
<!-- Node408&#45;&gt;Node409 -->
<g id="edge2" class="edge">
<title>Node408&#45;&gt;Node409</title>
<path fill="none" stroke="#191970" d="M253.9351,-83.8764C283.7359,-90.9642 321.0747,-99.8448 348.9361,-106.4713"/>
<polygon fill="#191970" stroke="#191970" points="254.6807,-80.4562 244.1422,-81.5473 253.061,-87.2663 254.6807,-80.4562"/>
</g>
<!-- Node411 -->
<g id="node5" class="node">
<title>Node411</title>
<g id="a_node5"><a xlink:href="../../db/dec/sv__race_8qc.html#a3b261b32268df9b8054fd11440ec03dd" target="_top" xlink:title="WinningCondition_Qualifying\lThenRace">
<polygon fill="none" stroke="#000000" points="310,-57 310,-87 468,-87 468,-57 310,-57"/>
<text text-anchor="start" x="318" y="-75" font-family="Helvetica,sans-Serif" font-size="10.00" fill="#000000">WinningCondition_Qualifying</text>
<text text-anchor="middle" x="389" y="-64" font-family="Helvetica,sans-Serif" font-size="10.00" fill="#000000">ThenRace</text>
</a>
</g>
</g>
<!-- Node408&#45;&gt;Node411 -->
<g id="edge4" class="edge">
<title>Node408&#45;&gt;Node411</title>
<path fill="none" stroke="#191970" d="M284.4159,-72C292.859,-72 301.4388,-72 309.8673,-72"/>
<polygon fill="#191970" stroke="#191970" points="284.2044,-68.5001 274.2044,-72 284.2043,-75.5001 284.2044,-68.5001"/>
</g>
<!-- Node412 -->
<g id="node6" class="node">
<title>Node412</title>
<g id="a_node6"><a xlink:href="../../de/d2b/world_8qh.html#a233af455133bc7ba4e3e100115bf2885" target="_top" xlink:title="CheckRules_World">
<polygon fill="none" stroke="#000000" points="336,-.5 336,-19.5 442,-19.5 442,-.5 336,-.5"/>
<text text-anchor="middle" x="389" y="-7.5" font-family="Helvetica,sans-Serif" font-size="10.00" fill="#000000">CheckRules_World</text>
</a>
</g>
</g>
<!-- Node408&#45;&gt;Node412 -->
<g id="edge6" class="edge">
<title>Node408&#45;&gt;Node412</title>
<path fill="none" stroke="#191970" d="M242.4096,-59.1276C277.5725,-47.3433 328.8119,-30.1711 360.4668,-19.5625"/>
<polygon fill="#191970" stroke="#191970" points="240.8703,-55.9521 232.5008,-62.4484 243.0947,-62.5893 240.8703,-55.9521"/>
</g>
<!-- Node410 -->
<g id="node4" class="node">
<title>Node410</title>
<g id="a_node4"><a xlink:href="../../db/dec/sv__race_8qc.html#ad601e69c9fca1422bb42871196dba243" target="_top" xlink:title="MUTATOR_HOOKFUNCTION">
<polygon fill="none" stroke="#000000" points="504,-84.5 504,-103.5 653,-103.5 653,-84.5 504,-84.5"/>
<text text-anchor="middle" x="578.5" y="-91.5" font-family="Helvetica,sans-Serif" font-size="10.00" fill="#000000">MUTATOR_HOOKFUNCTION</text>
</a>
</g>
</g>
<!-- Node409&#45;&gt;Node410 -->
<g id="edge3" class="edge">
<title>Node409&#45;&gt;Node410</title>
<path fill="none" stroke="#191970" d="M465.1544,-107.1589C477.9506,-105.6733 491.2178,-104.133 503.9722,-102.6523"/>
<polygon fill="#191970" stroke="#191970" points="464.5415,-103.7064 455.0119,-108.3364 465.3488,-110.6597 464.5415,-103.7064"/>
</g>
<!-- Node411&#45;&gt;Node410 -->
<g id="edge5" class="edge">
<title>Node411&#45;&gt;Node410</title>
<path fill="none" stroke="#191970" d="M478.2547,-82.362C486.8003,-83.3541 495.4057,-84.3532 503.7916,-85.3267"/>
<polygon fill="#191970" stroke="#191970" points="478.604,-78.8792 468.2671,-81.2025 477.7967,-85.8325 478.604,-78.8792"/>
</g>
<!-- Node412&#45;&gt;Node412 -->
<g id="edge8" class="edge">
<title>Node412&#45;&gt;Node412</title>
<path fill="none" stroke="#191970" d="M354.5174,-27.8913C355.0224,-33.5406 366.5166,-38 389,-38 421.7031,-38 431.1564,-28.5653 417.3597,-19.7571"/>
<polygon fill="#191970" stroke="#191970" points="357.4226,-29.8515 360.6403,-19.7571 351.8299,-25.6417 357.4226,-29.8515"/>
</g>
<!-- Node413 -->
<g id="node7" class="node">
<title>Node413</title>
<g id="a_node7"><a xlink:href="../../db/d95/server_2main_8qc.html#a554af7e2ac58045168dad9eca30bc8b1" target="_top" xlink:title="StartFrame">
<polygon fill="none" stroke="#000000" points="543.5,-.5 543.5,-19.5 613.5,-19.5 613.5,-.5 543.5,-.5"/>
<text text-anchor="middle" x="578.5" y="-7.5" font-family="Helvetica,sans-Serif" font-size="10.00" fill="#000000">StartFrame</text>
</a>
</g>
</g>
<!-- Node412&#45;&gt;Node413 -->
<g id="edge7" class="edge">
<title>Node412&#45;&gt;Node413</title>
<path fill="none" stroke="#191970" d="M452.1438,-10C482.5594,-10 517.8824,-10 543.4355,-10"/>
<polygon fill="#191970" stroke="#191970" points="452.0383,-6.5001 442.0383,-10 452.0383,-13.5001 452.0383,-6.5001"/>
</g>
</g>
</svg>
        <g id="navigator" transform="translate(0 0)" fill="#404254">
                <rect fill="#f2f5e9" fill-opacity="0.5" stroke="#606060" stroke-width=".5" x="0" y="0" width="60" height="60"/>
                <use id="zoomplus" xlink:href="#zoomPlus" x="17" y="9" onmousedown="handleZoom(evt,'in')"/>
                <use id="zoomminus" xlink:href="#zoomMin" x="42" y="9" onmousedown="handleZoom(evt,'out')"/>
                <use id="reset" xlink:href="#resetDef" x="30" y="36" onmousedown="handleReset()"/>
                <g id="arrowUp" xlink:href="#dirArrow" transform="translate(30 24)" onmousedown="handlePan(0,-1)">
                  <use xlink:href="#rim" fill="#404040">
                        <set attributeName="fill" to="#808080" begin="arrowUp.mouseover" end="arrowUp.mouseout"/>
                  </use>
                  <path fill="none" stroke="white" stroke-width="1.5" d="M0,-3.0v7 M-2.5,-0.5L0,-3.0L2.5,-0.5"/>
                </g>
                <g id="arrowRight" xlink:href="#dirArrow" transform="rotate(90) translate(36 -43)" onmousedown="handlePan(1,0)">
                  <use xlink:href="#rim" fill="#404040">
                        <set attributeName="fill" to="#808080" begin="arrowRight.mouseover" end="arrowRight.mouseout"/>
                  </use>
                  <path fill="none" stroke="white" stroke-width="1.5" d="M0,-3.0v7 M-2.5,-0.5L0,-3.0L2.5,-0.5"/>
                </g>
                <g id="arrowDown" xlink:href="#dirArrow" transform="rotate(180) translate(-30 -48)" onmousedown="handlePan(0,1)">
                  <use xlink:href="#rim" fill="#404040">
                        <set attributeName="fill" to="#808080" begin="arrowDown.mouseover" end="arrowDown.mouseout"/>
                  </use>
                  <path fill="none" stroke="white" stroke-width="1.5" d="M0,-3.0v7 M-2.5,-0.5L0,-3.0L2.5,-0.5"/>
                </g>
                <g id="arrowLeft" xlink:href="#dirArrow" transform="rotate(270) translate(-36 17)" onmousedown="handlePan(-1,0)">
                  <use xlink:href="#rim" fill="#404040">
                        <set attributeName="fill" to="#808080" begin="arrowLeft.mouseover" end="arrowLeft.mouseout"/>
                  </use>
                  <path fill="none" stroke="white" stroke-width="1.5" d="M0,-3.0v7 M-2.5,-0.5L0,-3.0L2.5,-0.5"/>
                </g>
        </g>
        <svg viewBox="0 0 15 15" width="100%" height="30px" preserveAspectRatio="xMaxYMin meet">
         <g id="arrow_out" transform="scale(0.3 0.3)">
          <a xlink:href="world_8qc_abed18c6e10bb666ad939e95abcaabb5d_icgraph_org.svg" target="_base">
           <rect id="button" ry="5" rx="5" y="6" x="6" height="38" width="38"
                fill="#f2f5e9" fill-opacity="0.5" stroke="#606060" stroke-width="1.0"/>
           <path id="arrow"
             d="M 11.500037,31.436501 C 11.940474,20.09759 22.043105,11.32322 32.158766,21.979434 L 37.068811,17.246167 C 37.068811,17.246167 37.088388,32 37.088388,32 L 22.160133,31.978069 C 22.160133,31.978069 26.997745,27.140456 26.997745,27.140456 C 18.528582,18.264221 13.291696,25.230495 11.500037,31.436501 z"
             style="fill:#404040;"/>
          </a>
         </g>
        </svg>
</svg>
