<?xml version="1.0" encoding="UTF-8" standalone="no"?>
<!DOCTYPE svg PUBLIC "-//W3C//DTD SVG 1.1//EN"
 "http://www.w3.org/Graphics/SVG/1.1/DTD/svg11.dtd">
<!-- Generated by graphviz version 2.40.1 (20161225.0304)
 -->
<!-- Title: InitiateOvertime Pages: 1 -->
<svg width="199pt" height="66pt"
 viewBox="0.00 0.00 199.00 66.00" xmlns="http://www.w3.org/2000/svg" xmlns:xlink="http://www.w3.org/1999/xlink">
<g id="graph0" class="graph" transform="scale(1 1) rotate(0) translate(4 62)">
<title>InitiateOvertime</title>
<!-- Node836 -->
<g id="node1" class="node">
<title>Node836</title>
<polygon fill="#bfbfbf" stroke="#000000" points="0,-19.5 0,-38.5 97,-38.5 97,-19.5 0,-19.5"/>
<text text-anchor="middle" x="48.5" y="-26.5" font-family="Helvetica,sans-Serif" font-size="10.00" fill="#000000">InitiateOvertime</text>
</g>
<!-- Node837 -->
<g id="node2" class="node">
<title>Node837</title>
<g id="a_node2"><a xlink:href="../../d8/de2/menudefs_8qc.html#a0b350379da8a7002dee40a3598bf33c3" target="_top" xlink:title="cvar_set">
<polygon fill="none" stroke="#000000" points="133,-38.5 133,-57.5 191,-57.5 191,-38.5 133,-38.5"/>
<text text-anchor="middle" x="162" y="-45.5" font-family="Helvetica,sans-Serif" font-size="10.00" fill="#000000">cvar_set</text>
</a>
</g>
</g>
<!-- Node836&#45;&gt;Node837 -->
<g id="edge1" class="edge">
<title>Node836&#45;&gt;Node837</title>
<path fill="none" stroke="#191970" d="M97.2929,-37.168C105.8265,-38.5965 114.6051,-40.066 122.8359,-41.4439"/>
<polygon fill="#191970" stroke="#191970" points="122.4685,-44.931 132.9091,-43.1302 123.6242,-38.0271 122.4685,-44.931"/>
</g>
<!-- Node838 -->
<g id="node3" class="node">
<title>Node838</title>
<g id="a_node3"><a xlink:href="../../d8/de2/menudefs_8qc.html#abbb0d86741e0056b6c04f7280c185d76" target="_top" xlink:title="ftos">
<polygon fill="none" stroke="#000000" points="144.5,-.5 144.5,-19.5 179.5,-19.5 179.5,-.5 144.5,-.5"/>
<text text-anchor="middle" x="162" y="-7.5" font-family="Helvetica,sans-Serif" font-size="10.00" fill="#000000">ftos</text>
</a>
</g>
</g>
<!-- Node836&#45;&gt;Node838 -->
<g id="edge2" class="edge">
<title>Node836&#45;&gt;Node838</title>
<path fill="none" stroke="#191970" d="M97.2929,-20.832C109.9507,-18.7131 123.1472,-16.504 134.2961,-14.6377"/>
<polygon fill="#191970" stroke="#191970" points="134.9885,-18.0705 144.2734,-12.9674 133.8328,-11.1666 134.9885,-18.0705"/>
</g>
</g>
</svg>
