<?xml version="1.0" encoding="UTF-8" standalone="no"?>
<!DOCTYPE svg PUBLIC "-//W3C//DTD SVG 1.1//EN"
 "http://www.w3.org/Graphics/SVG/1.1/DTD/svg11.dtd">
<!-- Generated by graphviz version 2.36.0 (20140111.2315)
 -->
<!-- Title: InitTrigger Pages: 1 -->
<!--zoomable 370 -->
<svg id="main" version="1.1" xmlns="http://www.w3.org/2000/svg" xmlns:xlink="http://www.w3.org/1999/xlink" xml:space="preserve" onload="init(evt)">
<style type="text/css"><![CDATA[
.edge:hover path { stroke: red; }
.edge:hover polygon { stroke: red; fill: red; }
]]></style>
<script type="text/javascript"><![CDATA[
var edges = document.getElementsByTagName('g');
if (edges && edges.length) {
  for (var i=0;i<edges.length;i++) {
    if (edges[i].id.substr(0,4)=='edge') {
      edges[i].setAttribute('class','edge');
    }
  }
}
]]></script>
        <defs>
                <circle id="rim" cx="0" cy="0" r="7"/>
                <circle id="rim2" cx="0" cy="0" r="3.5"/>
                <g id="zoomPlus">
                        <use xlink:href="#rim" fill="#404040">
                                <set attributeName="fill" to="#808080" begin="zoomplus.mouseover" end="zoomplus.mouseout"/>
                        </use>
                        <path d="M-4,0h8M0,-4v8" fill="none" stroke="white" stroke-width="1.5" pointer-events="none"/>
                </g>
                <g id="zoomMin">
                        <use xlink:href="#rim" fill="#404040">
                                <set attributeName="fill" to="#808080" begin="zoomminus.mouseover" end="zoomminus.mouseout"/>
                        </use>
                        <path d="M-4,0h8" fill="none" stroke="white" stroke-width="1.5" pointer-events="none"/>
                </g>
                <g id="dirArrow">
                        <path fill="none" stroke="white" stroke-width="1.5" d="M0,-3.0v7 M-2.5,-0.5L0,-3.0L2.5,-0.5"/>
                </g>
               <g id="resetDef">
                       <use xlink:href="#rim2" fill="#404040">
                               <set attributeName="fill" to="#808080" begin="reset.mouseover" end="reset.mouseout"/>
                       </use>
               </g>
        </defs>

<script type="text/javascript">
var viewWidth = 596;
var viewHeight = 370;
var sectionId = 'dynsection-6';
</script>
<script xlink:href="../../svgpan.js"/>
<svg id="graph" class="graph">
<g id="viewport">
<title>InitTrigger</title>
<!-- Node1 -->
<g id="node1" class="node"><title>Node1</title>
<polygon fill="#bfbfbf" stroke="black" points="0,-133.5 0,-152.5 60,-152.5 60,-133.5 0,-133.5"/>
<text text-anchor="middle" x="30" y="-140.5" font-family="Helvetica,sans-Serif" font-size="10.00">InitTrigger</text>
</g>
<!-- Node2 -->
<g id="node2" class="node"><title>Node2</title>
<g id="a_node2"><a xlink:href="../../d4/dd7/movetypes_8qh.html#a8bf89be84cb481d218ff41140eacff78" target="_top" xlink:title="set_movetype">
<polygon fill="none" stroke="black" points="112,-171.5 112,-190.5 190,-190.5 190,-171.5 112,-171.5"/>
<text text-anchor="middle" x="151" y="-178.5" font-family="Helvetica,sans-Serif" font-size="10.00">set_movetype</text>
</a>
</g>
</g>
<!-- Node1&#45;&gt;Node2 -->
<g id="edge1" class="edge"><title>Node1&#45;&gt;Node2</title>
<path fill="none" stroke="midnightblue" d="M60.1107,-152.296C75.1539,-157.1 93.7397,-163.035 110.1,-168.259"/>
<polygon fill="midnightblue" stroke="midnightblue" points="109.356,-171.695 119.947,-171.403 111.486,-165.027 109.356,-171.695"/>
</g>
<!-- Node3 -->
<g id="node3" class="node"><title>Node3</title>
<g id="a_node3"><a xlink:href="../../d2/d11/g__subs_8qc.html#a485e7432dec762bc92b88170f858a2b4" target="_top" xlink:title="SetBrushEntityModel">
<polygon fill="none" stroke="black" points="96.5,-133.5 96.5,-152.5 205.5,-152.5 205.5,-133.5 96.5,-133.5"/>
<text text-anchor="middle" x="151" y="-140.5" font-family="Helvetica,sans-Serif" font-size="10.00">SetBrushEntityModel</text>
</a>
</g>
</g>
<!-- Node1&#45;&gt;Node3 -->
<g id="edge2" class="edge"><title>Node1&#45;&gt;Node3</title>
<path fill="none" stroke="midnightblue" d="M60.1107,-143C68.0096,-143 76.8854,-143 85.9027,-143"/>
<polygon fill="midnightblue" stroke="midnightblue" points="86.0994,-146.5 96.0993,-143 86.0993,-139.5 86.0994,-146.5"/>
</g>
<!-- Node15 -->
<g id="node15" class="node"><title>Node15</title>
<g id="a_node15"><a xlink:href="../../d2/d11/g__subs_8qc.html#a0fffd02c032443a0189a5bb8d6f47b69" target="_top" xlink:title="SetMovedir">
<polygon fill="none" stroke="black" points="118,-76.5 118,-95.5 184,-95.5 184,-76.5 118,-76.5"/>
<text text-anchor="middle" x="151" y="-83.5" font-family="Helvetica,sans-Serif" font-size="10.00">SetMovedir</text>
</a>
</g>
</g>
<!-- Node1&#45;&gt;Node15 -->
<g id="edge17" class="edge"><title>Node1&#45;&gt;Node15</title>
<path fill="none" stroke="midnightblue" d="M50.9179,-133.459C70.053,-124.294 99.1839,-110.341 120.913,-99.9324"/>
<polygon fill="midnightblue" stroke="midnightblue" points="122.51,-103.048 130.017,-95.5716 119.486,-96.735 122.51,-103.048"/>
</g>
<!-- Node4 -->
<g id="node4" class="node"><title>Node4</title>
<g id="a_node4"><a xlink:href="../../d2/d11/g__subs_8qc.html#a1a4bbd8167f5c8536222892f98565b04" target="_top" xlink:title="ApplyMinMaxScaleAngles">
<polygon fill="none" stroke="black" points="242.5,-304.5 242.5,-323.5 373.5,-323.5 373.5,-304.5 242.5,-304.5"/>
<text text-anchor="middle" x="308" y="-311.5" font-family="Helvetica,sans-Serif" font-size="10.00">ApplyMinMaxScaleAngles</text>
</a>
</g>
</g>
<!-- Node3&#45;&gt;Node4 -->
<g id="edge3" class="edge"><title>Node3&#45;&gt;Node4</title>
<path fill="none" stroke="midnightblue" d="M192.833,-152.618C197.706,-155.069 202.267,-158.144 206,-162 242.956,-200.175 208.846,-234.48 242,-276 249.965,-285.975 261.312,-293.87 272.302,-299.819"/>
<polygon fill="midnightblue" stroke="midnightblue" points="270.859,-303.011 281.367,-304.363 273.995,-296.753 270.859,-303.011"/>
</g>
<!-- Node7 -->
<g id="node7" class="node"><title>Node7</title>
<g id="a_node7"><a xlink:href="../../dc/dc6/server_2miscfunctions_8qc.html#a048269a249dd2d958fa3ebbccb21c877" target="_top" xlink:title="InitializeEntity">
<polygon fill="none" stroke="black" points="269,-247.5 269,-266.5 347,-266.5 347,-247.5 269,-247.5"/>
<text text-anchor="middle" x="308" y="-254.5" font-family="Helvetica,sans-Serif" font-size="10.00">InitializeEntity</text>
</a>
</g>
</g>
<!-- Node3&#45;&gt;Node7 -->
<g id="edge6" class="edge"><title>Node3&#45;&gt;Node7</title>
<path fill="none" stroke="midnightblue" d="M186.852,-152.52C193.481,-155.079 200.163,-158.214 206,-162 225.519,-174.659 225.236,-183.869 242,-200 256.727,-214.171 274.178,-229.394 287.288,-240.54"/>
<polygon fill="midnightblue" stroke="midnightblue" points="285.306,-243.447 295.204,-247.224 289.822,-238.099 285.306,-243.447"/>
</g>
<!-- Node9 -->
<g id="node9" class="node"><title>Node9</title>
<g id="a_node9"><a xlink:href="../../d2/d11/g__subs_8qc.html#ad6b999617407d6b8cc64860a447b4cb4" target="_top" xlink:title="LODmodel_attach">
<polygon fill="none" stroke="black" points="260.5,-171.5 260.5,-190.5 355.5,-190.5 355.5,-171.5 260.5,-171.5"/>
<text text-anchor="middle" x="308" y="-178.5" font-family="Helvetica,sans-Serif" font-size="10.00">LODmodel_attach</text>
</a>
</g>
</g>
<!-- Node3&#45;&gt;Node9 -->
<g id="edge8" class="edge"><title>Node3&#45;&gt;Node9</title>
<path fill="none" stroke="midnightblue" d="M191.113,-152.589C211.475,-157.581 236.566,-163.732 258.189,-169.033"/>
<polygon fill="midnightblue" stroke="midnightblue" points="257.622,-172.498 268.168,-171.48 259.289,-165.699 257.622,-172.498"/>
</g>
<!-- Node12 -->
<g id="node12" class="node"><title>Node12</title>
<g id="a_node12"><a xlink:href="../../d4/d0c/csprogsdefs_8qc.html#a4f0b78b1785821ba47129edb68e70f9e" target="_top" xlink:title="vector">
<polygon fill="none" stroke="black" points="544,-152.5 544,-171.5 588,-171.5 588,-152.5 544,-152.5"/>
<text text-anchor="middle" x="566" y="-159.5" font-family="Helvetica,sans-Serif" font-size="10.00">vector</text>
</a>
</g>
</g>
<!-- Node3&#45;&gt;Node12 -->
<g id="edge16" class="edge"><title>Node3&#45;&gt;Node12</title>
<path fill="none" stroke="midnightblue" d="M174.318,-133.441C232.042,-110.201 389.991,-56.1191 508,-105 527.091,-112.908 543.122,-130.656 553.272,-144.262"/>
<polygon fill="midnightblue" stroke="midnightblue" points="550.436,-146.314 559.065,-152.461 556.152,-142.274 550.436,-146.314"/>
</g>
<!-- Node14 -->
<g id="node14" class="node"><title>Node14</title>
<g id="a_node14"><a xlink:href="../../d5/dff/ent__cs_8qc.html#ac459a724c1fe031c6658fff554b12ea8" target="_top" xlink:title="setorigin">
<polygon fill="none" stroke="black" points="281.5,-38.5 281.5,-57.5 334.5,-57.5 334.5,-38.5 281.5,-38.5"/>
<text text-anchor="middle" x="308" y="-45.5" font-family="Helvetica,sans-Serif" font-size="10.00">setorigin</text>
</a>
</g>
</g>
<!-- Node3&#45;&gt;Node14 -->
<g id="edge15" class="edge"><title>Node3&#45;&gt;Node14</title>
<path fill="none" stroke="midnightblue" d="M166.579,-133.486C177.661,-126.079 193.139,-115.349 206,-105 222.91,-91.3929 223.471,-83.3047 242,-72 251.088,-66.4552 261.661,-61.8759 271.606,-58.2571"/>
<polygon fill="midnightblue" stroke="midnightblue" points="272.931,-61.503 281.263,-54.9584 270.668,-54.8788 272.931,-61.503"/>
</g>
<!-- Node5 -->
<g id="node5" class="node"><title>Node5</title>
<g id="a_node5"><a xlink:href="../../d8/de2/menudefs_8qc.html#aebeeec7a2529f36483e14f76b1871271" target="_top" xlink:title="max">
<polygon fill="none" stroke="black" points="441.5,-342.5 441.5,-361.5 476.5,-361.5 476.5,-342.5 441.5,-342.5"/>
<text text-anchor="middle" x="459" y="-349.5" font-family="Helvetica,sans-Serif" font-size="10.00">max</text>
</a>
</g>
</g>
<!-- Node4&#45;&gt;Node5 -->
<g id="edge4" class="edge"><title>Node4&#45;&gt;Node5</title>
<path fill="none" stroke="midnightblue" d="M346.599,-323.589C373.064,-330.339 407.842,-339.208 431.449,-345.229"/>
<polygon fill="midnightblue" stroke="midnightblue" points="430.885,-348.697 441.44,-347.777 432.615,-341.914 430.885,-348.697"/>
</g>
<!-- Node6 -->
<g id="node6" class="node"><title>Node6</title>
<g id="a_node6"><a xlink:href="../../d8/de2/menudefs_8qc.html#a79d61ab0e4126e02af8bc36d432aedaf" target="_top" xlink:title="vlen">
<polygon fill="none" stroke="black" points="441.5,-304.5 441.5,-323.5 476.5,-323.5 476.5,-304.5 441.5,-304.5"/>
<text text-anchor="middle" x="459" y="-311.5" font-family="Helvetica,sans-Serif" font-size="10.00">vlen</text>
</a>
</g>
</g>
<!-- Node4&#45;&gt;Node6 -->
<g id="edge5" class="edge"><title>Node4&#45;&gt;Node6</title>
<path fill="none" stroke="midnightblue" d="M373.92,-314C394.055,-314 415.139,-314 431.158,-314"/>
<polygon fill="midnightblue" stroke="midnightblue" points="431.364,-317.5 441.364,-314 431.364,-310.5 431.364,-317.5"/>
</g>
<!-- Node8 -->
<g id="node8" class="node"><title>Node8</title>
<g id="a_node8"><a xlink:href="../../d4/d0c/csprogsdefs_8qc.html#acbb54a239d76062465dccbc6a6c6e464" target="_top" xlink:title="entity">
<polygon fill="none" stroke="black" points="438.5,-266.5 438.5,-285.5 479.5,-285.5 479.5,-266.5 438.5,-266.5"/>
<text text-anchor="middle" x="459" y="-273.5" font-family="Helvetica,sans-Serif" font-size="10.00">entity</text>
</a>
</g>
</g>
<!-- Node7&#45;&gt;Node8 -->
<g id="edge7" class="edge"><title>Node7&#45;&gt;Node8</title>
<path fill="none" stroke="midnightblue" d="M347.371,-261.893C372.645,-265.116 405.238,-269.272 428.487,-272.237"/>
<polygon fill="midnightblue" stroke="midnightblue" points="428.089,-275.714 438.451,-273.507 428.975,-268.77 428.089,-275.714"/>
</g>
<!-- Node9&#45;&gt;Node8 -->
<g id="edge9" class="edge"><title>Node9&#45;&gt;Node8</title>
<path fill="none" stroke="midnightblue" d="M319.826,-190.714C337.612,-206.298 374.589,-237.146 410,-257 415.849,-260.279 422.378,-263.264 428.691,-265.847"/>
<polygon fill="midnightblue" stroke="midnightblue" points="427.715,-269.222 438.304,-269.56 430.237,-262.692 427.715,-269.222"/>
</g>
<!-- Node10 -->
<g id="node10" class="node"><title>Node10</title>
<g id="a_node10"><a xlink:href="../../d8/de2/menudefs_8qc.html#a53c4a8e7afd17cad92bc00adba96bb78" target="_top" xlink:title="find">
<polygon fill="none" stroke="black" points="443,-228.5 443,-247.5 475,-247.5 475,-228.5 443,-228.5"/>
<text text-anchor="middle" x="459" y="-235.5" font-family="Helvetica,sans-Serif" font-size="10.00">find</text>
</a>
</g>
</g>
<!-- Node9&#45;&gt;Node10 -->
<g id="edge10" class="edge"><title>Node9&#45;&gt;Node10</title>
<path fill="none" stroke="midnightblue" d="M333.939,-190.541C361.56,-201.107 405.815,-218.037 433.328,-228.562"/>
<polygon fill="midnightblue" stroke="midnightblue" points="432.393,-231.951 442.984,-232.256 434.894,-225.414 432.393,-231.951"/>
</g>
<!-- Node11 -->
<g id="node11" class="node"><title>Node11</title>
<g id="a_node11"><a xlink:href="../../d2/d11/g__subs_8qc.html#a85b02a7cb75cdb9e471532f35097b3cc" target="_top" xlink:title="LOD_customize">
<polygon fill="none" stroke="black" points="415.5,-190.5 415.5,-209.5 502.5,-209.5 502.5,-190.5 415.5,-190.5"/>
<text text-anchor="middle" x="459" y="-197.5" font-family="Helvetica,sans-Serif" font-size="10.00">LOD_customize</text>
</a>
</g>
</g>
<!-- Node9&#45;&gt;Node11 -->
<g id="edge11" class="edge"><title>Node9&#45;&gt;Node11</title>
<path fill="none" stroke="midnightblue" d="M355.736,-186.96C371.418,-188.959 389.015,-191.203 405.134,-193.259"/>
<polygon fill="midnightblue" stroke="midnightblue" points="405.115,-196.784 415.477,-194.578 406,-189.841 405.115,-196.784"/>
</g>
<!-- Node9&#45;&gt;Node12 -->
<g id="edge14" class="edge"><title>Node9&#45;&gt;Node12</title>
<path fill="none" stroke="midnightblue" d="M355.657,-177.537C407.351,-173.701 489.268,-167.621 533.754,-164.319"/>
<polygon fill="midnightblue" stroke="midnightblue" points="534.243,-167.792 543.957,-163.562 533.725,-160.812 534.243,-167.792"/>
</g>
<!-- Node13 -->
<g id="node13" class="node"><title>Node13</title>
<g id="a_node13"><a xlink:href="../../d2/d11/g__subs_8qc.html#aa3e8d68ec770fa910013f8186680b28e" target="_top" xlink:title="LOD_uncustomize">
<polygon fill="none" stroke="black" points="410,-114.5 410,-133.5 508,-133.5 508,-114.5 410,-114.5"/>
<text text-anchor="middle" x="459" y="-121.5" font-family="Helvetica,sans-Serif" font-size="10.00">LOD_uncustomize</text>
</a>
</g>
</g>
<!-- Node9&#45;&gt;Node13 -->
<g id="edge13" class="edge"><title>Node9&#45;&gt;Node13</title>
<path fill="none" stroke="midnightblue" d="M333.939,-171.459C358.435,-162.088 396.015,-147.712 423.396,-137.238"/>
<polygon fill="midnightblue" stroke="midnightblue" points="424.89,-140.414 432.979,-133.572 422.389,-133.876 424.89,-140.414"/>
</g>
<!-- Node11&#45;&gt;Node12 -->
<g id="edge12" class="edge"><title>Node11&#45;&gt;Node12</title>
<path fill="none" stroke="midnightblue" d="M486.496,-190.411C501.048,-185.144 519.166,-178.587 534.329,-173.1"/>
<polygon fill="midnightblue" stroke="midnightblue" points="535.587,-176.367 543.799,-169.673 533.205,-169.785 535.587,-176.367"/>
</g>
<!-- Node16 -->
<g id="node16" class="node"><title>Node16</title>
<g id="a_node16"><a xlink:href="../../d8/de2/menudefs_8qc.html#ab8f7213273f7de03df213240376ce9f4" target="_top" xlink:title="normalize">
<polygon fill="none" stroke="black" points="278.5,-0.5 278.5,-19.5 337.5,-19.5 337.5,-0.5 278.5,-0.5"/>
<text text-anchor="middle" x="308" y="-7.5" font-family="Helvetica,sans-Serif" font-size="10.00">normalize</text>
</a>
</g>
</g>
<!-- Node15&#45;&gt;Node16 -->
<g id="edge18" class="edge"><title>Node15&#45;&gt;Node16</title>
<path fill="none" stroke="midnightblue" d="M164.471,-76.4953C181.279,-64.0715 212.506,-42.3299 242,-29 250.329,-25.2357 259.594,-22.0055 268.458,-19.3321"/>
<polygon fill="midnightblue" stroke="midnightblue" points="269.564,-22.6561 278.224,-16.5516 267.648,-15.9237 269.564,-22.6561"/>
</g>
</g>
</svg>
        <g id="navigator" transform="translate(0 0)" fill="#404254">
                <rect fill="#f2f5e9" fill-opacity="0.5" stroke="#606060" stroke-width=".5" x="0" y="0" width="60" height="60"/>
                <use id="zoomplus" xlink:href="#zoomPlus" x="17" y="9" onmousedown="handleZoom(evt,'in')"/>
                <use id="zoomminus" xlink:href="#zoomMin" x="42" y="9" onmousedown="handleZoom(evt,'out')"/>
                <use id="reset" xlink:href="#resetDef" x="30" y="36" onmousedown="handleReset()"/>
                <g id="arrowUp" xlink:href="#dirArrow" transform="translate(30 24)" onmousedown="handlePan(0,-1)">
                  <use xlink:href="#rim" fill="#404040">
                        <set attributeName="fill" to="#808080" begin="arrowUp.mouseover" end="arrowUp.mouseout"/>
                  </use>
                  <path fill="none" stroke="white" stroke-width="1.5" d="M0,-3.0v7 M-2.5,-0.5L0,-3.0L2.5,-0.5"/>
                </g>
                <g id="arrowRight" xlink:href="#dirArrow" transform="rotate(90) translate(36 -43)" onmousedown="handlePan(1,0)">
                  <use xlink:href="#rim" fill="#404040">
                        <set attributeName="fill" to="#808080" begin="arrowRight.mouseover" end="arrowRight.mouseout"/>
                  </use>
                  <path fill="none" stroke="white" stroke-width="1.5" d="M0,-3.0v7 M-2.5,-0.5L0,-3.0L2.5,-0.5"/>
                </g>
                <g id="arrowDown" xlink:href="#dirArrow" transform="rotate(180) translate(-30 -48)" onmousedown="handlePan(0,1)">
                  <use xlink:href="#rim" fill="#404040">
                        <set attributeName="fill" to="#808080" begin="arrowDown.mouseover" end="arrowDown.mouseout"/>
                  </use>
                  <path fill="none" stroke="white" stroke-width="1.5" d="M0,-3.0v7 M-2.5,-0.5L0,-3.0L2.5,-0.5"/>
                </g>
                <g id="arrowLeft" xlink:href="#dirArrow" transform="rotate(270) translate(-36 17)" onmousedown="handlePan(-1,0)">
                  <use xlink:href="#rim" fill="#404040">
                        <set attributeName="fill" to="#808080" begin="arrowLeft.mouseover" end="arrowLeft.mouseout"/>
                  </use>
                  <path fill="none" stroke="white" stroke-width="1.5" d="M0,-3.0v7 M-2.5,-0.5L0,-3.0L2.5,-0.5"/>
                </g>
        </g>
        <svg viewBox="0 0 15 15" width="100%" height="30px" preserveAspectRatio="xMaxYMin meet">
         <g id="arrow_out" transform="scale(0.3 0.3)">
          <a xlink:href="g__subs_8qh_aebccc6fb4b4825ccb7f6eff7c3cc4bd2_cgraph_org.svg" target="_base">
           <rect id="button" ry="5" rx="5" y="6" x="6" height="38" width="38"
                fill="#f2f5e9" fill-opacity="0.5" stroke="#606060" stroke-width="1.0"/>
           <path id="arrow"
             d="M 11.500037,31.436501 C 11.940474,20.09759 22.043105,11.32322 32.158766,21.979434 L 37.068811,17.246167 C 37.068811,17.246167 37.088388,32 37.088388,32 L 22.160133,31.978069 C 22.160133,31.978069 26.997745,27.140456 26.997745,27.140456 C 18.528582,18.264221 13.291696,25.230495 11.500037,31.436501 z"
             style="fill:#404040;"/>
          </a>
         </g>
        </svg>
</svg>
