<?xml version="1.0" encoding="UTF-8" standalone="no"?>
<!DOCTYPE svg PUBLIC "-//W3C//DTD SVG 1.1//EN"
 "http://www.w3.org/Graphics/SVG/1.1/DTD/svg11.dtd">
<!-- Generated by graphviz version 2.40.1 (20161225.0304)
 -->
<!-- Title: dompoint_captured Pages: 1 -->
<svg width="520pt" height="28pt"
 viewBox="0.00 0.00 520.00 28.00" xmlns="http://www.w3.org/2000/svg" xmlns:xlink="http://www.w3.org/1999/xlink">
<g id="graph0" class="graph" transform="scale(1 1) rotate(0) translate(4 24)">
<title>dompoint_captured</title>
<!-- Node1026 -->
<g id="node1" class="node">
<title>Node1026</title>
<polygon fill="#bfbfbf" stroke="#000000" points="0,-.5 0,-19.5 111,-19.5 111,-.5 0,-.5"/>
<text text-anchor="middle" x="55.5" y="-7.5" font-family="Helvetica,sans-Serif" font-size="10.00" fill="#000000">dompoint_captured</text>
</g>
<!-- Node1027 -->
<g id="node2" class="node">
<title>Node1027</title>
<g id="a_node2"><a xlink:href="../../d3/de3/sv__domination_8qc.html#a34aa4d09cecb85b43c0b02c2354bf412" target="_top" xlink:title="dompointtouch">
<polygon fill="none" stroke="#000000" points="147,-.5 147,-19.5 237,-19.5 237,-.5 147,-.5"/>
<text text-anchor="middle" x="192" y="-7.5" font-family="Helvetica,sans-Serif" font-size="10.00" fill="#000000">dompointtouch</text>
</a>
</g>
</g>
<!-- Node1026&#45;&gt;Node1027 -->
<g id="edge1" class="edge">
<title>Node1026&#45;&gt;Node1027</title>
<path fill="none" stroke="#191970" d="M121.2027,-10C129.928,-10 138.7088,-10 146.9738,-10"/>
<polygon fill="#191970" stroke="#191970" points="121.0198,-6.5001 111.0198,-10 121.0197,-13.5001 121.0198,-6.5001"/>
</g>
<!-- Node1028 -->
<g id="node3" class="node">
<title>Node1028</title>
<g id="a_node3"><a xlink:href="../../d3/de3/sv__domination_8qc.html#a1097f7b43804df79d1b4620db195940d" target="_top" xlink:title="dom_controlpoint_setup">
<polygon fill="none" stroke="#000000" points="273,-.5 273,-19.5 407,-19.5 407,-.5 273,-.5"/>
<text text-anchor="middle" x="340" y="-7.5" font-family="Helvetica,sans-Serif" font-size="10.00" fill="#000000">dom_controlpoint_setup</text>
</a>
</g>
</g>
<!-- Node1027&#45;&gt;Node1028 -->
<g id="edge2" class="edge">
<title>Node1027&#45;&gt;Node1028</title>
<path fill="none" stroke="#191970" d="M247.2481,-10C255.6445,-10 264.3857,-10 272.9993,-10"/>
<polygon fill="#191970" stroke="#191970" points="247.2091,-6.5001 237.2091,-10 247.209,-13.5001 247.2091,-6.5001"/>
</g>
<!-- Node1029 -->
<g id="node4" class="node">
<title>Node1029</title>
<g id="a_node4"><a xlink:href="../../d3/de3/sv__domination_8qc.html#a87458461dfdf0f0304f0ef2b28d48b8c" target="_top" xlink:title="spawnfunc">
<polygon fill="none" stroke="#000000" points="443,-.5 443,-19.5 512,-19.5 512,-.5 443,-.5"/>
<text text-anchor="middle" x="477.5" y="-7.5" font-family="Helvetica,sans-Serif" font-size="10.00" fill="#000000">spawnfunc</text>
</a>
</g>
</g>
<!-- Node1028&#45;&gt;Node1029 -->
<g id="edge3" class="edge">
<title>Node1028&#45;&gt;Node1029</title>
<path fill="none" stroke="#191970" d="M417.2992,-10C426.2537,-10 435.0116,-10 442.9527,-10"/>
<polygon fill="#191970" stroke="#191970" points="417.1388,-6.5001 407.1388,-10 417.1388,-13.5001 417.1388,-6.5001"/>
</g>
</g>
</svg>
