<?xml version="1.0" encoding="UTF-8" standalone="no"?>
<!DOCTYPE svg PUBLIC "-//W3C//DTD SVG 1.1//EN"
 "http://www.w3.org/Graphics/SVG/1.1/DTD/svg11.dtd">
<!-- Generated by graphviz version 2.38.0 (20140413.2041)
 -->
<!-- Title: MUTATOR_HOOKFUNCTION Pages: 1 -->
<svg width="288pt" height="66pt"
 viewBox="0.00 0.00 288.00 66.00" xmlns="http://www.w3.org/2000/svg" xmlns:xlink="http://www.w3.org/1999/xlink">
<g id="graph0" class="graph" transform="scale(1 1) rotate(0) translate(4 62)">
<title>MUTATOR_HOOKFUNCTION</title>
<!-- Node1 -->
<g id="node1" class="node"><title>Node1</title>
<polygon fill="#bfbfbf" stroke="black" points="0,-19.5 0,-38.5 145,-38.5 145,-19.5 0,-19.5"/>
<text text-anchor="middle" x="72.5" y="-26.5" font-family="Helvetica,sans-Serif" font-size="10.00">MUTATOR_HOOKFUNCTION</text>
</g>
<!-- Node2 -->
<g id="node2" class="node"><title>Node2</title>
<g id="a_node2"><a xlink:href="../../df/dd7/server_2client_8qc.html#adc12a5d0f9848861e80fbee0c890d64a" target="_top" xlink:title="PutClientInServer">
<polygon fill="none" stroke="black" points="181,-38.5 181,-57.5 280,-57.5 280,-38.5 181,-38.5"/>
<text text-anchor="middle" x="230.5" y="-45.5" font-family="Helvetica,sans-Serif" font-size="10.00">PutClientInServer</text>
</a>
</g>
</g>
<!-- Node1&#45;&gt;Node2 -->
<g id="edge1" class="edge"><title>Node1&#45;&gt;Node2</title>
<path fill="none" stroke="midnightblue" d="M145.108,-37.7215C153.65,-38.7618 162.294,-39.8147 170.628,-40.8297"/>
<polygon fill="midnightblue" stroke="midnightblue" points="170.262,-44.3109 180.612,-42.0457 171.109,-37.3623 170.262,-44.3109"/>
</g>
<!-- Node3 -->
<g id="node3" class="node"><title>Node3</title>
<g id="a_node3"><a xlink:href="../../d3/de3/sv__domination_8qc.html#a229739fc2c2bdfcf0d5964bd98c83c57" target="_top" xlink:title="set_dom_state">
<polygon fill="none" stroke="black" points="186,-0.5 186,-19.5 275,-19.5 275,-0.5 186,-0.5"/>
<text text-anchor="middle" x="230.5" y="-7.5" font-family="Helvetica,sans-Serif" font-size="10.00">set_dom_state</text>
</a>
</g>
</g>
<!-- Node1&#45;&gt;Node3 -->
<g id="edge2" class="edge"><title>Node1&#45;&gt;Node3</title>
<path fill="none" stroke="midnightblue" d="M145.108,-20.2785C155.452,-19.0187 165.946,-17.7405 175.858,-16.5333"/>
<polygon fill="midnightblue" stroke="midnightblue" points="176.441,-19.9882 185.945,-15.3048 175.595,-13.0396 176.441,-19.9882"/>
</g>
</g>
</svg>
