<?xml version="1.0" encoding="UTF-8" standalone="no"?>
<!DOCTYPE svg PUBLIC "-//W3C//DTD SVG 1.1//EN"
 "http://www.w3.org/Graphics/SVG/1.1/DTD/svg11.dtd">
<!-- Generated by graphviz version 2.38.0 (20140413.2041)
 -->
<!-- Title: dompointtouch Pages: 1 -->
<svg width="784pt" height="594pt"
 viewBox="0.00 0.00 784.00 594.39" xmlns="http://www.w3.org/2000/svg" xmlns:xlink="http://www.w3.org/1999/xlink">
<g id="graph0" class="graph" transform="scale(1 1) rotate(0) translate(4 590.39)">
<title>dompointtouch</title>
<!-- Node1 -->
<g id="node1" class="node"><title>Node1</title>
<polygon fill="#bfbfbf" stroke="black" points="0,-494.5 0,-513.5 89,-513.5 89,-494.5 0,-494.5"/>
<text text-anchor="middle" x="44.5" y="-501.5" font-family="Helvetica,sans-Serif" font-size="10.00">dompointtouch</text>
</g>
<!-- Node2 -->
<g id="node2" class="node"><title>Node2</title>
<g id="a_node2"><a xlink:href="../../d3/de3/sv__domination_8qc.html#ae2bad2494b8ccaf3e085a9b85a46a300" target="_top" xlink:title="dompoint_captured">
<polygon fill="none" stroke="black" points="125,-418.5 125,-437.5 235,-437.5 235,-418.5 125,-418.5"/>
<text text-anchor="middle" x="180" y="-425.5" font-family="Helvetica,sans-Serif" font-size="10.00">dompoint_captured</text>
</a>
</g>
</g>
<!-- Node1&#45;&gt;Node2 -->
<g id="edge1" class="edge"><title>Node1&#45;&gt;Node2</title>
<path fill="none" stroke="midnightblue" d="M62.4079,-494.375C85.3788,-481.297 126.646,-457.804 153.418,-442.563"/>
<polygon fill="midnightblue" stroke="midnightblue" points="155.271,-445.536 162.229,-437.547 151.807,-439.453 155.271,-445.536"/>
</g>
<!-- Node15 -->
<g id="node15" class="node"><title>Node15</title>
<g id="a_node15"><a xlink:href="../../d4/d0c/csprogsdefs_8qc.html#acbb54a239d76062465dccbc6a6c6e464" target="_top" xlink:title="entity">
<polygon fill="none" stroke="black" points="720,-475.5 720,-494.5 764,-494.5 764,-475.5 720,-475.5"/>
<text text-anchor="middle" x="742" y="-482.5" font-family="Helvetica,sans-Serif" font-size="10.00">entity</text>
</a>
</g>
</g>
<!-- Node1&#45;&gt;Node15 -->
<g id="edge35" class="edge"><title>Node1&#45;&gt;Node15</title>
<path fill="none" stroke="midnightblue" d="M65.476,-513.625C109.814,-534.076 220.262,-580 318,-580 318,-580 318,-580 460.5,-580 554.879,-580 587.5,-603.036 672,-561 697.816,-548.157 718.562,-521.19 730.334,-503.083"/>
<polygon fill="midnightblue" stroke="midnightblue" points="733.337,-504.882 735.651,-494.543 727.394,-501.182 733.337,-504.882"/>
</g>
<!-- Node29 -->
<g id="node29" class="node"><title>Node29</title>
<g id="a_node29"><a xlink:href="../../d8/de2/menudefs_8qc.html#a53c4a8e7afd17cad92bc00adba96bb78" target="_top" xlink:title="find">
<polygon fill="none" stroke="black" points="595,-532.5 595,-551.5 629,-551.5 629,-532.5 595,-532.5"/>
<text text-anchor="middle" x="612" y="-539.5" font-family="Helvetica,sans-Serif" font-size="10.00">find</text>
</a>
</g>
</g>
<!-- Node1&#45;&gt;Node29 -->
<g id="edge36" class="edge"><title>Node1&#45;&gt;Node29</title>
<path fill="none" stroke="midnightblue" d="M89.4033,-506.95C201.256,-514.466 494.438,-534.167 584.379,-540.211"/>
<polygon fill="midnightblue" stroke="midnightblue" points="584.332,-543.716 594.544,-540.894 584.801,-536.732 584.332,-543.716"/>
</g>
<!-- Node31 -->
<g id="node31" class="node"><title>Node31</title>
<g id="a_node31"><a xlink:href="../../d8/d06/client_2resources_8qc.html#a53ec0a3c5a395e2b64d468c08f49b63f" target="_top" xlink:title="Returns the current amount of resource the given entity has. ">
<polygon fill="none" stroke="black" points="141.5,-380.5 141.5,-399.5 218.5,-399.5 218.5,-380.5 141.5,-380.5"/>
<text text-anchor="middle" x="180" y="-387.5" font-family="Helvetica,sans-Serif" font-size="10.00">GetResource</text>
</a>
</g>
</g>
<!-- Node1&#45;&gt;Node31 -->
<g id="edge37" class="edge"><title>Node1&#45;&gt;Node31</title>
<path fill="none" stroke="midnightblue" d="M51.0197,-494.458C62.4478,-475.507 90.5342,-432.892 125,-409 127.736,-407.103 130.681,-405.378 133.733,-403.811"/>
<polygon fill="midnightblue" stroke="midnightblue" points="135.437,-406.881 143.109,-399.574 132.555,-400.502 135.437,-406.881"/>
</g>
<!-- Node3 -->
<g id="node3" class="node"><title>Node3</title>
<g id="a_node3"><a xlink:href="../../d8/de2/menudefs_8qc.html#a687c7bf27ba894ccc52063de9fa79a38" target="_top" xlink:title="bprint">
<polygon fill="none" stroke="black" points="297,-361.5 297,-380.5 341,-380.5 341,-361.5 297,-361.5"/>
<text text-anchor="middle" x="319" y="-368.5" font-family="Helvetica,sans-Serif" font-size="10.00">bprint</text>
</a>
</g>
</g>
<!-- Node2&#45;&gt;Node3 -->
<g id="edge2" class="edge"><title>Node2&#45;&gt;Node3</title>
<path fill="none" stroke="midnightblue" d="M210.732,-418.421C218.706,-415.614 227.259,-412.383 235,-409 251.578,-401.756 254.592,-397.622 271,-390 276.188,-387.59 281.772,-385.179 287.216,-382.922"/>
<polygon fill="midnightblue" stroke="midnightblue" points="288.793,-386.06 296.748,-379.062 286.165,-379.572 288.793,-386.06"/>
</g>
<!-- Node4 -->
<g id="node4" class="node"><title>Node4</title>
<g id="a_node4"><a xlink:href="../../d3/de3/sv__domination_8qc.html#ab9a384ee374a58f83671537d2c6724b4" target="_top" xlink:title="dom_EventLog">
<polygon fill="none" stroke="black" points="275,-190.5 275,-209.5 363,-209.5 363,-190.5 275,-190.5"/>
<text text-anchor="middle" x="319" y="-197.5" font-family="Helvetica,sans-Serif" font-size="10.00">dom_EventLog</text>
</a>
</g>
</g>
<!-- Node2&#45;&gt;Node4 -->
<g id="edge3" class="edge"><title>Node2&#45;&gt;Node4</title>
<path fill="none" stroke="midnightblue" d="M221.087,-418.449C226.194,-415.984 231.018,-412.888 235,-409 267.307,-377.456 254.393,-355.987 271,-314 284.255,-280.488 300.4,-241.755 309.904,-219.158"/>
<polygon fill="midnightblue" stroke="midnightblue" points="313.223,-220.296 313.881,-209.721 306.772,-217.577 313.223,-220.296"/>
</g>
<!-- Node2&#45;&gt;Node15 -->
<g id="edge16" class="edge"><title>Node2&#45;&gt;Node15</title>
<path fill="none" stroke="midnightblue" d="M198.304,-437.525C215.981,-446.715 244.517,-460.079 271,-466 432.416,-502.089 632.613,-492.966 709.188,-487.582"/>
<polygon fill="midnightblue" stroke="midnightblue" points="709.853,-491.043 719.57,-486.82 709.341,-484.061 709.853,-491.043"/>
</g>
<!-- Node16 -->
<g id="node16" class="node"><title>Node16</title>
<g id="a_node16"><a xlink:href="../../dc/d73/server_2miscfunctions_8qh.html#aa5a5ed1fd369382ba21cb76e5803fdf3" target="_top" xlink:title="play2all">
<polygon fill="none" stroke="black" points="292.5,-399.5 292.5,-418.5 345.5,-418.5 345.5,-399.5 292.5,-399.5"/>
<text text-anchor="middle" x="319" y="-406.5" font-family="Helvetica,sans-Serif" font-size="10.00">play2all</text>
</a>
</g>
</g>
<!-- Node2&#45;&gt;Node16 -->
<g id="edge17" class="edge"><title>Node2&#45;&gt;Node16</title>
<path fill="none" stroke="midnightblue" d="M235.146,-420.491C251.035,-418.287 268.002,-415.934 282.418,-413.935"/>
<polygon fill="midnightblue" stroke="midnightblue" points="282.988,-417.389 292.412,-412.549 282.026,-410.456 282.988,-417.389"/>
</g>
<!-- Node17 -->
<g id="node17" class="node"><title>Node17</title>
<g id="a_node17"><a xlink:href="../../d3/de3/sv__domination_8qc.html#a229739fc2c2bdfcf0d5964bd98c83c57" target="_top" xlink:title="set_dom_state">
<polygon fill="none" stroke="black" points="274.5,-323.5 274.5,-342.5 363.5,-342.5 363.5,-323.5 274.5,-323.5"/>
<text text-anchor="middle" x="319" y="-330.5" font-family="Helvetica,sans-Serif" font-size="10.00">set_dom_state</text>
</a>
</g>
</g>
<!-- Node2&#45;&gt;Node17 -->
<g id="edge18" class="edge"><title>Node2&#45;&gt;Node17</title>
<path fill="none" stroke="midnightblue" d="M218.73,-418.42C224.529,-415.935 230.181,-412.84 235,-409 258.432,-390.325 248.003,-371.207 271,-352 272.951,-350.371 275.059,-348.868 277.265,-347.482"/>
<polygon fill="midnightblue" stroke="midnightblue" points="278.984,-350.532 286.129,-342.709 275.665,-344.369 278.984,-350.532"/>
</g>
<!-- Node18 -->
<g id="node18" class="node"><title>Node18</title>
<g id="a_node18"><a xlink:href="../../d6/d57/triggers_8qc.html#a3905086b3426d8a7b89fe8eff17368c6" target="_top" xlink:title="SUB_UseTargets">
<polygon fill="none" stroke="black" points="271,-437.5 271,-456.5 367,-456.5 367,-437.5 271,-437.5"/>
<text text-anchor="middle" x="319" y="-444.5" font-family="Helvetica,sans-Serif" font-size="10.00">SUB_UseTargets</text>
</a>
</g>
</g>
<!-- Node2&#45;&gt;Node18 -->
<g id="edge19" class="edge"><title>Node2&#45;&gt;Node18</title>
<path fill="none" stroke="midnightblue" d="M235.146,-435.509C243.547,-436.674 252.25,-437.881 260.718,-439.056"/>
<polygon fill="midnightblue" stroke="midnightblue" points="260.508,-442.56 270.894,-440.467 261.47,-435.626 260.508,-442.56"/>
</g>
<!-- Node5 -->
<g id="node5" class="node"><title>Node5</title>
<g id="a_node5"><a xlink:href="../../d8/de2/menudefs_8qc.html#abbb0d86741e0056b6c04f7280c185d76" target="_top" xlink:title="ftos">
<polygon fill="none" stroke="black" points="594.5,-266.5 594.5,-285.5 629.5,-285.5 629.5,-266.5 594.5,-266.5"/>
<text text-anchor="middle" x="612" y="-273.5" font-family="Helvetica,sans-Serif" font-size="10.00">ftos</text>
</a>
</g>
</g>
<!-- Node4&#45;&gt;Node5 -->
<g id="edge4" class="edge"><title>Node4&#45;&gt;Node5</title>
<path fill="none" stroke="midnightblue" d="M356.561,-209.548C415.97,-225.064 532.077,-255.388 584.359,-269.042"/>
<polygon fill="midnightblue" stroke="midnightblue" points="583.657,-272.476 594.217,-271.617 585.426,-265.703 583.657,-272.476"/>
</g>
<!-- Node6 -->
<g id="node6" class="node"><title>Node6</title>
<g id="a_node6"><a xlink:href="../../dc/dc6/server_2miscfunctions_8qc.html#ad8252ef534185c1cbbde32e65a01a5b3" target="_top" xlink:title="GameLogEcho">
<polygon fill="none" stroke="black" points="416.5,-152.5 416.5,-171.5 502.5,-171.5 502.5,-152.5 416.5,-152.5"/>
<text text-anchor="middle" x="459.5" y="-159.5" font-family="Helvetica,sans-Serif" font-size="10.00">GameLogEcho</text>
</a>
</g>
</g>
<!-- Node4&#45;&gt;Node6 -->
<g id="edge5" class="edge"><title>Node4&#45;&gt;Node6</title>
<path fill="none" stroke="midnightblue" d="M354.949,-190.411C372.828,-185.506 394.788,-179.48 413.878,-174.243"/>
<polygon fill="midnightblue" stroke="midnightblue" points="414.844,-177.607 423.562,-171.586 412.992,-170.857 414.844,-177.607"/>
</g>
<!-- Node12 -->
<g id="node12" class="node"><title>Node12</title>
<g id="a_node12"><a xlink:href="../../d8/de2/menudefs_8qc.html#ad76dc2b2895cd23f21e008f12a686158" target="_top" xlink:title="strcat">
<polygon fill="none" stroke="black" points="590,-0.5 590,-19.5 634,-19.5 634,-0.5 590,-0.5"/>
<text text-anchor="middle" x="612" y="-7.5" font-family="Helvetica,sans-Serif" font-size="10.00">strcat</text>
</a>
</g>
</g>
<!-- Node4&#45;&gt;Node12 -->
<g id="edge15" class="edge"><title>Node4&#45;&gt;Node12</title>
<path fill="none" stroke="midnightblue" d="M330.275,-190.468C361.358,-162.087 458.032,-77.1304 552,-29 560.792,-24.4967 570.865,-20.7799 580.17,-17.8647"/>
<polygon fill="midnightblue" stroke="midnightblue" points="581.259,-21.1926 589.868,-15.0167 579.287,-14.4762 581.259,-21.1926"/>
</g>
<!-- Node6&#45;&gt;Node5 -->
<g id="edge11" class="edge"><title>Node6&#45;&gt;Node5</title>
<path fill="none" stroke="midnightblue" d="M469.374,-171.739C490.382,-194.717 542.141,-250.848 552,-257 561.792,-263.11 573.734,-267.435 584.307,-270.398"/>
<polygon fill="midnightblue" stroke="midnightblue" points="583.74,-273.865 594.293,-272.924 585.456,-267.079 583.74,-273.865"/>
</g>
<!-- Node7 -->
<g id="node7" class="node"><title>Node7</title>
<g id="a_node7"><a xlink:href="../../d8/de2/menudefs_8qc.html#a0b350379da8a7002dee40a3598bf33c3" target="_top" xlink:title="cvar_set">
<polygon fill="none" stroke="black" points="583.5,-228.5 583.5,-247.5 640.5,-247.5 640.5,-228.5 583.5,-228.5"/>
<text text-anchor="middle" x="612" y="-235.5" font-family="Helvetica,sans-Serif" font-size="10.00">cvar_set</text>
</a>
</g>
</g>
<!-- Node6&#45;&gt;Node7 -->
<g id="edge6" class="edge"><title>Node6&#45;&gt;Node7</title>
<path fill="none" stroke="midnightblue" d="M473.557,-171.58C490.804,-183.889 522.459,-205.296 552,-219 558.846,-222.176 566.368,-225.037 573.682,-227.518"/>
<polygon fill="midnightblue" stroke="midnightblue" points="572.854,-230.928 583.445,-230.66 574.998,-224.265 572.854,-230.928"/>
</g>
<!-- Node8 -->
<g id="node8" class="node"><title>Node8</title>
<g id="a_node8"><a xlink:href="../../dc/dc6/server_2miscfunctions_8qc.html#a0390f6703ace29f61655694b8821d84a" target="_top" xlink:title="print(), but only print if the server is not local ">
<polygon fill="none" stroke="black" points="566.5,-114.5 566.5,-133.5 657.5,-133.5 657.5,-114.5 566.5,-114.5"/>
<text text-anchor="middle" x="612" y="-121.5" font-family="Helvetica,sans-Serif" font-size="10.00">dedicated_print</text>
</a>
</g>
</g>
<!-- Node6&#45;&gt;Node8 -->
<g id="edge7" class="edge"><title>Node6&#45;&gt;Node8</title>
<path fill="none" stroke="midnightblue" d="M498.478,-152.411C518.159,-147.442 542.391,-141.323 563.321,-136.039"/>
<polygon fill="midnightblue" stroke="midnightblue" points="564.457,-139.362 573.296,-133.52 562.743,-132.575 564.457,-139.362"/>
</g>
<!-- Node10 -->
<g id="node10" class="node"><title>Node10</title>
<g id="a_node10"><a xlink:href="../../d8/de2/menudefs_8qc.html#a5231f4ff2813f7de782b67d25a9e4cf9" target="_top" xlink:title="fopen">
<polygon fill="none" stroke="black" points="590,-190.5 590,-209.5 634,-209.5 634,-190.5 590,-190.5"/>
<text text-anchor="middle" x="612" y="-197.5" font-family="Helvetica,sans-Serif" font-size="10.00">fopen</text>
</a>
</g>
</g>
<!-- Node6&#45;&gt;Node10 -->
<g id="edge9" class="edge"><title>Node6&#45;&gt;Node10</title>
<path fill="none" stroke="midnightblue" d="M498.478,-171.589C523.661,-177.948 556.296,-186.188 579.929,-192.155"/>
<polygon fill="midnightblue" stroke="midnightblue" points="579.224,-195.586 589.776,-194.641 580.937,-188.799 579.224,-195.586"/>
</g>
<!-- Node11 -->
<g id="node11" class="node"><title>Node11</title>
<g id="a_node11"><a xlink:href="../../d8/de2/menudefs_8qc.html#a33a318a59e2648521862f24200a821df" target="_top" xlink:title="fputs">
<polygon fill="none" stroke="black" points="591.5,-152.5 591.5,-171.5 632.5,-171.5 632.5,-152.5 591.5,-152.5"/>
<text text-anchor="middle" x="612" y="-159.5" font-family="Helvetica,sans-Serif" font-size="10.00">fputs</text>
</a>
</g>
</g>
<!-- Node6&#45;&gt;Node11 -->
<g id="edge10" class="edge"><title>Node6&#45;&gt;Node11</title>
<path fill="none" stroke="midnightblue" d="M502.823,-162C527.778,-162 558.751,-162 581.152,-162"/>
<polygon fill="midnightblue" stroke="midnightblue" points="581.396,-165.5 591.396,-162 581.396,-158.5 581.396,-165.5"/>
</g>
<!-- Node6&#45;&gt;Node12 -->
<g id="edge12" class="edge"><title>Node6&#45;&gt;Node12</title>
<path fill="none" stroke="midnightblue" d="M467.02,-152.48C487.814,-122.123 551.248,-29.5596 552,-29 560.201,-22.8959 570.44,-18.7057 580.075,-15.8495"/>
<polygon fill="midnightblue" stroke="midnightblue" points="580.985,-19.2294 589.787,-13.3317 579.229,-12.4534 580.985,-19.2294"/>
</g>
<!-- Node13 -->
<g id="node13" class="node"><title>Node13</title>
<g id="a_node13"><a xlink:href="../../d8/de2/menudefs_8qc.html#a274680f571a231ddf29421b93d434bfa" target="_top" xlink:title="strlen">
<polygon fill="none" stroke="black" points="590,-76.5 590,-95.5 634,-95.5 634,-76.5 590,-76.5"/>
<text text-anchor="middle" x="612" y="-83.5" font-family="Helvetica,sans-Serif" font-size="10.00">strlen</text>
</a>
</g>
</g>
<!-- Node6&#45;&gt;Node13 -->
<g id="edge13" class="edge"><title>Node6&#45;&gt;Node13</title>
<path fill="none" stroke="midnightblue" d="M473.557,-152.42C490.804,-140.111 522.459,-118.704 552,-105 560.889,-100.876 570.92,-97.2823 580.155,-94.3628"/>
<polygon fill="midnightblue" stroke="midnightblue" points="581.207,-97.7015 589.773,-91.4665 579.188,-90.9989 581.207,-97.7015"/>
</g>
<!-- Node14 -->
<g id="node14" class="node"><title>Node14</title>
<g id="a_node14"><a xlink:href="../../d8/de2/menudefs_8qc.html#a40f6c65c8bbcfa51df783f2809a2502b" target="_top" xlink:title="substring">
<polygon fill="none" stroke="black" points="581.5,-38.5 581.5,-57.5 642.5,-57.5 642.5,-38.5 581.5,-38.5"/>
<text text-anchor="middle" x="612" y="-45.5" font-family="Helvetica,sans-Serif" font-size="10.00">substring</text>
</a>
</g>
</g>
<!-- Node6&#45;&gt;Node14 -->
<g id="edge14" class="edge"><title>Node6&#45;&gt;Node14</title>
<path fill="none" stroke="midnightblue" d="M467.157,-152.415C480.856,-133.385 514.117,-90.6379 552,-67 557.95,-63.2874 564.694,-60.2338 571.443,-57.7441"/>
<polygon fill="midnightblue" stroke="midnightblue" points="572.855,-60.9632 581.241,-54.489 570.648,-54.3202 572.855,-60.9632"/>
</g>
<!-- Node9 -->
<g id="node9" class="node"><title>Node9</title>
<g id="a_node9"><a xlink:href="../../d8/de2/menudefs_8qc.html#acf9c719e766113bad854907e87812e98" target="_top" xlink:title="print">
<polygon fill="none" stroke="black" points="723,-114.5 723,-133.5 761,-133.5 761,-114.5 723,-114.5"/>
<text text-anchor="middle" x="742" y="-121.5" font-family="Helvetica,sans-Serif" font-size="10.00">print</text>
</a>
</g>
</g>
<!-- Node8&#45;&gt;Node9 -->
<g id="edge8" class="edge"><title>Node8&#45;&gt;Node9</title>
<path fill="none" stroke="midnightblue" d="M657.768,-124C675.927,-124 696.362,-124 712.44,-124"/>
<polygon fill="midnightblue" stroke="midnightblue" points="712.792,-127.5 722.792,-124 712.792,-120.5 712.792,-127.5"/>
</g>
<!-- Node19 -->
<g id="node19" class="node"><title>Node19</title>
<g id="a_node19"><a xlink:href="../../d6/d57/triggers_8qc.html#a5f4833320883cad2bd53711c442d7fe9" target="_top" xlink:title="SUB_UseTargets_Ex">
<polygon fill="none" stroke="black" points="403,-418.5 403,-437.5 516,-437.5 516,-418.5 403,-418.5"/>
<text text-anchor="middle" x="459.5" y="-425.5" font-family="Helvetica,sans-Serif" font-size="10.00">SUB_UseTargets_Ex</text>
</a>
</g>
</g>
<!-- Node18&#45;&gt;Node19 -->
<g id="edge20" class="edge"><title>Node18&#45;&gt;Node19</title>
<path fill="none" stroke="midnightblue" d="M367.276,-440.514C375.5,-439.386 384.184,-438.195 392.796,-437.014"/>
<polygon fill="midnightblue" stroke="midnightblue" points="393.407,-440.463 402.839,-435.636 392.456,-433.528 393.407,-440.463"/>
</g>
<!-- Node19&#45;&gt;Node15 -->
<g id="edge21" class="edge"><title>Node19&#45;&gt;Node15</title>
<path fill="none" stroke="midnightblue" d="M506.099,-437.528C520.752,-440.574 537.058,-443.947 552,-447 607.601,-458.362 672.461,-471.343 709.924,-478.815"/>
<polygon fill="midnightblue" stroke="midnightblue" points="709.242,-482.247 719.733,-480.77 710.61,-475.382 709.242,-482.247"/>
</g>
<!-- Node20 -->
<g id="node20" class="node"><title>Node20</title>
<g id="a_node20"><a xlink:href="../../d6/d57/triggers_8qc.html#a1c58d77ea3f4858ed96288710690cf98" target="_top" xlink:title="DelayThink">
<polygon fill="none" stroke="black" points="578,-304.5 578,-323.5 646,-323.5 646,-304.5 578,-304.5"/>
<text text-anchor="middle" x="612" y="-311.5" font-family="Helvetica,sans-Serif" font-size="10.00">DelayThink</text>
</a>
</g>
</g>
<!-- Node19&#45;&gt;Node20 -->
<g id="edge22" class="edge"><title>Node19&#45;&gt;Node20</title>
<path fill="none" stroke="midnightblue" d="M469.374,-418.261C490.382,-395.283 542.141,-339.152 552,-333 557.03,-329.862 562.627,-327.194 568.315,-324.94"/>
<polygon fill="midnightblue" stroke="midnightblue" points="569.645,-328.182 577.889,-321.527 567.294,-321.588 569.645,-328.182"/>
</g>
<!-- Node27 -->
<g id="node27" class="node"><title>Node27</title>
<g id="a_node27"><a xlink:href="../../d8/de2/menudefs_8qc.html#aa90038262dd0464a4c251487bc5efc9f" target="_top" xlink:title="centerprint">
<polygon fill="none" stroke="black" points="577.5,-380.5 577.5,-399.5 646.5,-399.5 646.5,-380.5 577.5,-380.5"/>
<text text-anchor="middle" x="612" y="-387.5" font-family="Helvetica,sans-Serif" font-size="10.00">centerprint</text>
</a>
</g>
</g>
<!-- Node19&#45;&gt;Node27 -->
<g id="edge31" class="edge"><title>Node19&#45;&gt;Node27</title>
<path fill="none" stroke="midnightblue" d="M498.478,-418.411C519.546,-413.091 545.829,-406.455 567.694,-400.934"/>
<polygon fill="midnightblue" stroke="midnightblue" points="568.556,-404.327 577.395,-398.485 566.842,-397.54 568.556,-404.327"/>
</g>
<!-- Node28 -->
<g id="node28" class="node"><title>Node28</title>
<g id="a_node28"><a xlink:href="../../dc/d73/server_2miscfunctions_8qh.html#a3ad01a00f1af9d663eb5c97259434896" target="_top" xlink:title="play2">
<polygon fill="none" stroke="black" points="591,-342.5 591,-361.5 633,-361.5 633,-342.5 591,-342.5"/>
<text text-anchor="middle" x="612" y="-349.5" font-family="Helvetica,sans-Serif" font-size="10.00">play2</text>
</a>
</g>
</g>
<!-- Node19&#45;&gt;Node28 -->
<g id="edge32" class="edge"><title>Node19&#45;&gt;Node28</title>
<path fill="none" stroke="midnightblue" d="M473.557,-418.42C490.804,-406.111 522.459,-384.704 552,-371 561.176,-366.743 571.568,-363.051 581.046,-360.082"/>
<polygon fill="midnightblue" stroke="midnightblue" points="582.289,-363.364 590.871,-357.153 580.288,-356.656 582.289,-363.364"/>
</g>
<!-- Node19&#45;&gt;Node29 -->
<g id="edge33" class="edge"><title>Node19&#45;&gt;Node29</title>
<path fill="none" stroke="midnightblue" d="M473.073,-437.523C498.903,-457.089 558.179,-501.989 589.96,-526.063"/>
<polygon fill="midnightblue" stroke="midnightblue" points="588.059,-529.014 598.144,-532.262 592.286,-523.434 588.059,-529.014"/>
</g>
<!-- Node30 -->
<g id="node30" class="node"><title>Node30</title>
<g id="a_node30"><a xlink:href="../../dc/d95/random_8qc.html#a3405965b1da9657276caec225d4b3acf" target="_top" xlink:title="RandomSelection_Init">
<polygon fill="none" stroke="black" points="552,-418.5 552,-437.5 672,-437.5 672,-418.5 552,-418.5"/>
<text text-anchor="middle" x="612" y="-425.5" font-family="Helvetica,sans-Serif" font-size="10.00">RandomSelection_Init</text>
</a>
</g>
</g>
<!-- Node19&#45;&gt;Node30 -->
<g id="edge34" class="edge"><title>Node19&#45;&gt;Node30</title>
<path fill="none" stroke="midnightblue" d="M516.113,-428C524.479,-428 533.192,-428 541.8,-428"/>
<polygon fill="midnightblue" stroke="midnightblue" points="541.828,-431.5 551.828,-428 541.828,-424.5 541.828,-431.5"/>
</g>
<!-- Node20&#45;&gt;Node15 -->
<g id="edge24" class="edge"><title>Node20&#45;&gt;Node15</title>
<path fill="none" stroke="midnightblue" d="M646.089,-319.096C655.396,-321.902 664.902,-326.253 672,-333 704.726,-364.108 688.625,-387.216 708,-428 714.3,-441.261 722.581,-455.557 729.272,-466.515"/>
<polygon fill="midnightblue" stroke="midnightblue" points="726.402,-468.528 734.652,-475.176 732.348,-464.834 726.402,-468.528"/>
</g>
<!-- Node20&#45;&gt;Node18 -->
<g id="edge23" class="edge"><title>Node20&#45;&gt;Node18</title>
<path fill="none" stroke="midnightblue" d="M578.203,-323.533C569.579,-326.318 560.355,-329.55 552,-333 483.289,-361.373 468.985,-374.761 403,-409 386.941,-417.333 383.408,-420.378 367,-428 362.939,-429.886 358.636,-431.774 354.348,-433.586"/>
<polygon fill="midnightblue" stroke="midnightblue" points="352.992,-430.359 345.082,-437.408 355.661,-436.831 352.992,-430.359"/>
</g>
<!-- Node21 -->
<g id="node21" class="node"><title>Node21</title>
<g id="a_node21"><a xlink:href="../../d5/dff/ent__cs_8qc.html#ac459a724c1fe031c6658fff554b12ea8" target="_top" xlink:title="setorigin">
<polygon fill="none" stroke="black" points="713,-247.5 713,-266.5 771,-266.5 771,-247.5 713,-247.5"/>
<text text-anchor="middle" x="742" y="-254.5" font-family="Helvetica,sans-Serif" font-size="10.00">setorigin</text>
</a>
</g>
</g>
<!-- Node20&#45;&gt;Node21 -->
<g id="edge25" class="edge"><title>Node20&#45;&gt;Node21</title>
<path fill="none" stroke="midnightblue" d="M646.181,-304.546C654.715,-301.781 663.8,-298.54 672,-295 680.554,-291.308 699.55,-280.781 715.449,-271.74"/>
<polygon fill="midnightblue" stroke="midnightblue" points="717.405,-274.654 724.349,-266.653 713.931,-268.577 717.405,-274.654"/>
</g>
<!-- Node22 -->
<g id="node22" class="node"><title>Node22</title>
<g id="a_node22"><a xlink:href="../../d8/de2/menudefs_8qc.html#abd23315350cd01304b6bd77c4c5c07e6" target="_top" xlink:title="WriteByte">
<polygon fill="none" stroke="black" points="711,-209.5 711,-228.5 773,-228.5 773,-209.5 711,-209.5"/>
<text text-anchor="middle" x="742" y="-216.5" font-family="Helvetica,sans-Serif" font-size="10.00">WriteByte</text>
</a>
</g>
</g>
<!-- Node20&#45;&gt;Node22 -->
<g id="edge26" class="edge"><title>Node20&#45;&gt;Node22</title>
<path fill="none" stroke="midnightblue" d="M646.209,-307.689C655.206,-304.861 664.516,-300.802 672,-295 695.679,-276.641 686.384,-258.749 708,-238 709.279,-236.773 710.652,-235.594 712.085,-234.467"/>
<polygon fill="midnightblue" stroke="midnightblue" points="714.412,-237.117 720.719,-228.604 710.48,-231.326 714.412,-237.117"/>
</g>
<!-- Node23 -->
<g id="node23" class="node"><title>Node23</title>
<g id="a_node23"><a xlink:href="../../d8/de2/menudefs_8qc.html#a44e0d1ac6d9e4b633d85ad82f408f516" target="_top" xlink:title="WriteString">
<polygon fill="none" stroke="black" points="708,-399.5 708,-418.5 776,-418.5 776,-399.5 708,-399.5"/>
<text text-anchor="middle" x="742" y="-406.5" font-family="Helvetica,sans-Serif" font-size="10.00">WriteString</text>
</a>
</g>
</g>
<!-- Node20&#45;&gt;Node23 -->
<g id="edge27" class="edge"><title>Node20&#45;&gt;Node23</title>
<path fill="none" stroke="midnightblue" d="M646.209,-320.311C655.206,-323.139 664.516,-327.198 672,-333 695.679,-351.359 686.384,-369.251 708,-390 709.279,-391.227 710.652,-392.406 712.085,-393.533"/>
<polygon fill="midnightblue" stroke="midnightblue" points="710.48,-396.674 720.719,-399.396 714.412,-390.883 710.48,-396.674"/>
</g>
<!-- Node24 -->
<g id="node24" class="node"><title>Node24</title>
<g id="a_node24"><a xlink:href="../../d8/de2/menudefs_8qc.html#a7bb594d808e357274edee331b5ed2d35" target="_top" xlink:title="WriteShort">
<polygon fill="none" stroke="black" points="709,-361.5 709,-380.5 775,-380.5 775,-361.5 709,-361.5"/>
<text text-anchor="middle" x="742" y="-368.5" font-family="Helvetica,sans-Serif" font-size="10.00">WriteShort</text>
</a>
</g>
</g>
<!-- Node20&#45;&gt;Node24 -->
<g id="edge28" class="edge"><title>Node20&#45;&gt;Node24</title>
<path fill="none" stroke="midnightblue" d="M646.181,-323.454C654.715,-326.219 663.8,-329.46 672,-333 680.554,-336.692 699.55,-347.219 715.449,-356.26"/>
<polygon fill="midnightblue" stroke="midnightblue" points="713.931,-359.423 724.349,-361.347 717.405,-353.346 713.931,-359.423"/>
</g>
<!-- Node25 -->
<g id="node25" class="node"><title>Node25</title>
<g id="a_node25"><a xlink:href="../../d8/de2/menudefs_8qc.html#a3846d117b360dccec575f96988cf3bb7" target="_top" xlink:title="bound">
<polygon fill="none" stroke="black" points="718.5,-323.5 718.5,-342.5 765.5,-342.5 765.5,-323.5 718.5,-323.5"/>
<text text-anchor="middle" x="742" y="-330.5" font-family="Helvetica,sans-Serif" font-size="10.00">bound</text>
</a>
</g>
</g>
<!-- Node20&#45;&gt;Node25 -->
<g id="edge29" class="edge"><title>Node20&#45;&gt;Node25</title>
<path fill="none" stroke="midnightblue" d="M646.296,-318.942C665.421,-321.781 689.34,-325.332 708.355,-328.154"/>
<polygon fill="midnightblue" stroke="midnightblue" points="707.947,-331.632 718.352,-329.638 708.975,-324.708 707.947,-331.632"/>
</g>
<!-- Node26 -->
<g id="node26" class="node"><title>Node26</title>
<g id="a_node26"><a xlink:href="../../d8/de2/menudefs_8qc.html#ae06db7c87845d853670a09a1d487b1db" target="_top" xlink:title="strzone">
<polygon fill="none" stroke="black" points="715.5,-285.5 715.5,-304.5 768.5,-304.5 768.5,-285.5 715.5,-285.5"/>
<text text-anchor="middle" x="742" y="-292.5" font-family="Helvetica,sans-Serif" font-size="10.00">strzone</text>
</a>
</g>
</g>
<!-- Node20&#45;&gt;Node26 -->
<g id="edge30" class="edge"><title>Node20&#45;&gt;Node26</title>
<path fill="none" stroke="midnightblue" d="M646.296,-309.058C664.337,-306.38 686.644,-303.068 705.076,-300.332"/>
<polygon fill="midnightblue" stroke="midnightblue" points="705.764,-303.769 715.142,-298.838 704.736,-296.845 705.764,-303.769"/>
</g>
</g>
</svg>
