<?xml version="1.0" encoding="UTF-8" standalone="no"?>
<!DOCTYPE svg PUBLIC "-//W3C//DTD SVG 1.1//EN"
 "http://www.w3.org/Graphics/SVG/1.1/DTD/svg11.dtd">
<!-- Generated by graphviz version 2.36.0 (20140111.2315)
 -->
<!-- Title: common/triggers/target/include.qc Pages: 1 -->
<svg width="729pt" height="152pt"
 viewBox="0.00 0.00 729.00 152.00" xmlns="http://www.w3.org/2000/svg" xmlns:xlink="http://www.w3.org/1999/xlink">
<g id="graph0" class="graph" transform="scale(1 1) rotate(0) translate(4 148)">
<title>common/triggers/target/include.qc</title>
<!-- Node1 -->
<g id="node1" class="node"><title>Node1</title>
<polygon fill="#bfbfbf" stroke="black" points="286.5,-113 286.5,-143 403.5,-143 403.5,-113 286.5,-113"/>
<text text-anchor="start" x="294.5" y="-131" font-family="Helvetica,sans-Serif" font-size="10.00">common/triggers/target</text>
<text text-anchor="middle" x="345" y="-120" font-family="Helvetica,sans-Serif" font-size="10.00">/include.qc</text>
</g>
<!-- Node2 -->
<g id="node2" class="node"><title>Node2</title>
<g id="a_node2"><a xlink:href="../../dc/d38/target_2include_8qh.html" target="_top" xlink:title="include.qh">
<polygon fill="none" stroke="black" points="-0.5,-56.5 -0.5,-75.5 60.5,-75.5 60.5,-56.5 -0.5,-56.5"/>
<text text-anchor="middle" x="30" y="-63.5" font-family="Helvetica,sans-Serif" font-size="10.00">include.qh</text>
</a>
</g>
</g>
<!-- Node1&#45;&gt;Node2 -->
<g id="edge1" class="edge"><title>Node1&#45;&gt;Node2</title>
<path fill="none" stroke="midnightblue" d="M286.401,-116.797C232.818,-107.317 151.129,-92.4863 70.3889,-76.0154"/>
<polygon fill="midnightblue" stroke="midnightblue" points="71.0482,-72.5778 60.5491,-73.9989 69.6428,-79.4353 71.0482,-72.5778"/>
</g>
<!-- Node4 -->
<g id="node4" class="node"><title>Node4</title>
<g id="a_node4"><a xlink:href="../../d9/df8/changelevel_8qc.html" target="_top" xlink:title="changelevel.qc">
<polygon fill="none" stroke="black" points="153,-56.5 153,-75.5 235,-75.5 235,-56.5 153,-56.5"/>
<text text-anchor="middle" x="194" y="-63.5" font-family="Helvetica,sans-Serif" font-size="10.00">changelevel.qc</text>
</a>
</g>
</g>
<!-- Node1&#45;&gt;Node4 -->
<g id="edge3" class="edge"><title>Node1&#45;&gt;Node4</title>
<path fill="none" stroke="midnightblue" d="M309.597,-112.933C284.008,-102.765 249.762,-89.157 225.197,-79.3963"/>
<polygon fill="midnightblue" stroke="midnightblue" points="226.229,-76.0401 215.643,-75.6 223.644,-82.5454 226.229,-76.0401"/>
</g>
<!-- Node6 -->
<g id="node6" class="node"><title>Node6</title>
<g id="a_node6"><a xlink:href="../../d1/dc2/kill_8qc.html" target="_top" xlink:title="kill.qc">
<polygon fill="none" stroke="black" points="253,-56.5 253,-75.5 295,-75.5 295,-56.5 253,-56.5"/>
<text text-anchor="middle" x="274" y="-63.5" font-family="Helvetica,sans-Serif" font-size="10.00">kill.qc</text>
</a>
</g>
</g>
<!-- Node1&#45;&gt;Node6 -->
<g id="edge5" class="edge"><title>Node1&#45;&gt;Node6</title>
<path fill="none" stroke="midnightblue" d="M328.174,-112.781C317.325,-103.613 303.223,-91.6957 292.127,-82.3186"/>
<polygon fill="midnightblue" stroke="midnightblue" points="294.228,-79.5119 284.331,-75.7305 289.71,-84.8585 294.228,-79.5119"/>
</g>
<!-- Node9 -->
<g id="node9" class="node"><title>Node9</title>
<g id="a_node9"><a xlink:href="../../de/d94/levelwarp_8qc.html" target="_top" xlink:title="levelwarp.qc">
<polygon fill="none" stroke="black" points="395.5,-56.5 395.5,-75.5 466.5,-75.5 466.5,-56.5 395.5,-56.5"/>
<text text-anchor="middle" x="431" y="-63.5" font-family="Helvetica,sans-Serif" font-size="10.00">levelwarp.qc</text>
</a>
</g>
</g>
<!-- Node1&#45;&gt;Node9 -->
<g id="edge8" class="edge"><title>Node1&#45;&gt;Node9</title>
<path fill="none" stroke="midnightblue" d="M365.381,-112.781C378.99,-103.286 396.824,-90.8434 410.465,-81.3267"/>
<polygon fill="midnightblue" stroke="midnightblue" points="412.538,-84.148 418.737,-75.5557 408.533,-78.4071 412.538,-84.148"/>
</g>
<!-- Node11 -->
<g id="node11" class="node"><title>Node11</title>
<g id="a_node11"><a xlink:href="../../db/d3a/location_8qc.html" target="_top" xlink:title="location.qc">
<polygon fill="none" stroke="black" points="313,-56.5 313,-75.5 377,-75.5 377,-56.5 313,-56.5"/>
<text text-anchor="middle" x="345" y="-63.5" font-family="Helvetica,sans-Serif" font-size="10.00">location.qc</text>
</a>
</g>
</g>
<!-- Node1&#45;&gt;Node11 -->
<g id="edge10" class="edge"><title>Node1&#45;&gt;Node11</title>
<path fill="none" stroke="midnightblue" d="M345,-112.781C345,-104.781 345,-94.6887 345,-86.0168"/>
<polygon fill="midnightblue" stroke="midnightblue" points="348.5,-85.7305 345,-75.7305 341.5,-85.7306 348.5,-85.7305"/>
</g>
<!-- Node12 -->
<g id="node12" class="node"><title>Node12</title>
<g id="a_node12"><a xlink:href="../../d8/dae/music_8qc.html" target="_top" xlink:title="music.qc">
<polygon fill="none" stroke="black" points="79,-56.5 79,-75.5 135,-75.5 135,-56.5 79,-56.5"/>
<text text-anchor="middle" x="107" y="-63.5" font-family="Helvetica,sans-Serif" font-size="10.00">music.qc</text>
</a>
</g>
</g>
<!-- Node1&#45;&gt;Node12 -->
<g id="edge12" class="edge"><title>Node1&#45;&gt;Node12</title>
<path fill="none" stroke="midnightblue" d="M289.2,-112.933C244.804,-101.741 183.876,-86.3806 144.966,-76.5712"/>
<polygon fill="midnightblue" stroke="midnightblue" points="145.642,-73.1322 135.089,-74.0814 143.93,-79.9198 145.642,-73.1322"/>
</g>
<!-- Node13 -->
<g id="node13" class="node"><title>Node13</title>
<g id="a_node13"><a xlink:href="../../d1/d06/spawn_8qc.html" target="_top" xlink:title="spawn.qc">
<polygon fill="none" stroke="black" points="484.5,-56.5 484.5,-75.5 543.5,-75.5 543.5,-56.5 484.5,-56.5"/>
<text text-anchor="middle" x="514" y="-63.5" font-family="Helvetica,sans-Serif" font-size="10.00">spawn.qc</text>
</a>
</g>
</g>
<!-- Node1&#45;&gt;Node13 -->
<g id="edge14" class="edge"><title>Node1&#45;&gt;Node13</title>
<path fill="none" stroke="midnightblue" d="M384.623,-112.933C413.644,-102.629 452.615,-88.7935 480.178,-79.0079"/>
<polygon fill="midnightblue" stroke="midnightblue" points="481.524,-82.2441 489.777,-75.6 479.182,-75.6475 481.524,-82.2441"/>
</g>
<!-- Node15 -->
<g id="node15" class="node"><title>Node15</title>
<g id="a_node15"><a xlink:href="../../d5/d06/speaker_8qc.html" target="_top" xlink:title="speaker.qc">
<polygon fill="none" stroke="black" points="561.5,-56.5 561.5,-75.5 626.5,-75.5 626.5,-56.5 561.5,-56.5"/>
<text text-anchor="middle" x="594" y="-63.5" font-family="Helvetica,sans-Serif" font-size="10.00">speaker.qc</text>
</a>
</g>
</g>
<!-- Node1&#45;&gt;Node15 -->
<g id="edge16" class="edge"><title>Node1&#45;&gt;Node15</title>
<path fill="none" stroke="midnightblue" d="M403.379,-112.933C448.699,-102.012 510.486,-87.1239 551.275,-77.2953"/>
<polygon fill="midnightblue" stroke="midnightblue" points="552.268,-80.6562 561.17,-74.911 550.628,-73.851 552.268,-80.6562"/>
</g>
<!-- Node17 -->
<g id="node17" class="node"><title>Node17</title>
<g id="a_node17"><a xlink:href="../../da/dc5/voicescript_8qc.html" target="_top" xlink:title="voicescript.qc">
<polygon fill="none" stroke="black" points="644.5,-56.5 644.5,-75.5 721.5,-75.5 721.5,-56.5 644.5,-56.5"/>
<text text-anchor="middle" x="683" y="-63.5" font-family="Helvetica,sans-Serif" font-size="10.00">voicescript.qc</text>
</a>
</g>
</g>
<!-- Node1&#45;&gt;Node17 -->
<g id="edge18" class="edge"><title>Node1&#45;&gt;Node17</title>
<path fill="none" stroke="midnightblue" d="M403.633,-116.888C460.061,-107.111 548.072,-91.7444 634.51,-76.0723"/>
<polygon fill="midnightblue" stroke="midnightblue" points="635.281,-79.4896 644.495,-74.2592 634.03,-72.6022 635.281,-79.4896"/>
</g>
<!-- Node3 -->
<g id="node3" class="node"><title>Node3</title>
<g id="a_node3"><a xlink:href="../../d2/d21/music_8qh.html" target="_top" xlink:title="music.qh">
<polygon fill="none" stroke="black" points="40,-0.5 40,-19.5 96,-19.5 96,-0.5 40,-0.5"/>
<text text-anchor="middle" x="68" y="-7.5" font-family="Helvetica,sans-Serif" font-size="10.00">music.qh</text>
</a>
</g>
</g>
<!-- Node2&#45;&gt;Node3 -->
<g id="edge2" class="edge"><title>Node2&#45;&gt;Node3</title>
<path fill="none" stroke="midnightblue" d="M36.2749,-56.083C41.6425,-48.4554 49.5176,-37.2645 56.0787,-27.9408"/>
<polygon fill="midnightblue" stroke="midnightblue" points="58.9492,-29.9434 61.8418,-19.7511 53.2245,-25.9149 58.9492,-29.9434"/>
</g>
<!-- Node5 -->
<g id="node5" class="node"><title>Node5</title>
<g id="a_node5"><a xlink:href="../../dd/d1f/changelevel_8qh.html" target="_top" xlink:title="changelevel.qh">
<polygon fill="none" stroke="black" points="153,-0.5 153,-19.5 235,-19.5 235,-0.5 153,-0.5"/>
<text text-anchor="middle" x="194" y="-7.5" font-family="Helvetica,sans-Serif" font-size="10.00">changelevel.qh</text>
</a>
</g>
</g>
<!-- Node4&#45;&gt;Node5 -->
<g id="edge4" class="edge"><title>Node4&#45;&gt;Node5</title>
<path fill="none" stroke="midnightblue" d="M194,-56.083C194,-49.0059 194,-38.8611 194,-29.9865"/>
<polygon fill="midnightblue" stroke="midnightblue" points="197.5,-29.751 194,-19.7511 190.5,-29.7511 197.5,-29.751"/>
</g>
<!-- Node7 -->
<g id="node7" class="node"><title>Node7</title>
<g id="a_node7"><a xlink:href="../../d4/dd0/kill_8qh.html" target="_top" xlink:title="kill.qh">
<polygon fill="none" stroke="black" points="253,-0.5 253,-19.5 295,-19.5 295,-0.5 253,-0.5"/>
<text text-anchor="middle" x="274" y="-7.5" font-family="Helvetica,sans-Serif" font-size="10.00">kill.qh</text>
</a>
</g>
</g>
<!-- Node6&#45;&gt;Node7 -->
<g id="edge6" class="edge"><title>Node6&#45;&gt;Node7</title>
<path fill="none" stroke="midnightblue" d="M274,-56.083C274,-49.0059 274,-38.8611 274,-29.9865"/>
<polygon fill="midnightblue" stroke="midnightblue" points="277.5,-29.751 274,-19.7511 270.5,-29.7511 277.5,-29.751"/>
</g>
<!-- Node8 -->
<g id="node8" class="node"><title>Node8</title>
<g id="a_node8"><a xlink:href="../../df/dd9/location_8qh.html" target="_top" xlink:title="location.qh">
<polygon fill="none" stroke="black" points="313,-0.5 313,-19.5 377,-19.5 377,-0.5 313,-0.5"/>
<text text-anchor="middle" x="345" y="-7.5" font-family="Helvetica,sans-Serif" font-size="10.00">location.qh</text>
</a>
</g>
</g>
<!-- Node6&#45;&gt;Node8 -->
<g id="edge7" class="edge"><title>Node6&#45;&gt;Node8</title>
<path fill="none" stroke="midnightblue" d="M285.407,-56.324C296.109,-48.1849 312.341,-35.8395 325.163,-26.0874"/>
<polygon fill="midnightblue" stroke="midnightblue" points="327.544,-28.6734 333.385,-19.8339 323.307,-23.1018 327.544,-28.6734"/>
</g>
<!-- Node10 -->
<g id="node10" class="node"><title>Node10</title>
<g id="a_node10"><a xlink:href="../../d3/d7a/levelwarp_8qh.html" target="_top" xlink:title="levelwarp.qh">
<polygon fill="none" stroke="black" points="395.5,-0.5 395.5,-19.5 466.5,-19.5 466.5,-0.5 395.5,-0.5"/>
<text text-anchor="middle" x="431" y="-7.5" font-family="Helvetica,sans-Serif" font-size="10.00">levelwarp.qh</text>
</a>
</g>
</g>
<!-- Node9&#45;&gt;Node10 -->
<g id="edge9" class="edge"><title>Node9&#45;&gt;Node10</title>
<path fill="none" stroke="midnightblue" d="M431,-56.083C431,-49.0059 431,-38.8611 431,-29.9865"/>
<polygon fill="midnightblue" stroke="midnightblue" points="434.5,-29.751 431,-19.7511 427.5,-29.7511 434.5,-29.751"/>
</g>
<!-- Node11&#45;&gt;Node8 -->
<g id="edge11" class="edge"><title>Node11&#45;&gt;Node8</title>
<path fill="none" stroke="midnightblue" d="M345,-56.083C345,-49.0059 345,-38.8611 345,-29.9865"/>
<polygon fill="midnightblue" stroke="midnightblue" points="348.5,-29.751 345,-19.7511 341.5,-29.7511 348.5,-29.751"/>
</g>
<!-- Node12&#45;&gt;Node3 -->
<g id="edge13" class="edge"><title>Node12&#45;&gt;Node3</title>
<path fill="none" stroke="midnightblue" d="M100.56,-56.083C95.0511,-48.4554 86.9688,-37.2645 80.235,-27.9408"/>
<polygon fill="midnightblue" stroke="midnightblue" points="83.0126,-25.8087 74.3202,-19.7511 77.3378,-29.9071 83.0126,-25.8087"/>
</g>
<!-- Node14 -->
<g id="node14" class="node"><title>Node14</title>
<g id="a_node14"><a xlink:href="../../d0/d37/spawn_8qh.html" target="_top" xlink:title="spawn.qh">
<polygon fill="none" stroke="black" points="484.5,-0.5 484.5,-19.5 543.5,-19.5 543.5,-0.5 484.5,-0.5"/>
<text text-anchor="middle" x="514" y="-7.5" font-family="Helvetica,sans-Serif" font-size="10.00">spawn.qh</text>
</a>
</g>
</g>
<!-- Node13&#45;&gt;Node14 -->
<g id="edge15" class="edge"><title>Node13&#45;&gt;Node14</title>
<path fill="none" stroke="midnightblue" d="M514,-56.083C514,-49.0059 514,-38.8611 514,-29.9865"/>
<polygon fill="midnightblue" stroke="midnightblue" points="517.5,-29.751 514,-19.7511 510.5,-29.7511 517.5,-29.751"/>
</g>
<!-- Node16 -->
<g id="node16" class="node"><title>Node16</title>
<g id="a_node16"><a xlink:href="../../d4/d48/speaker_8qh.html" target="_top" xlink:title="speaker.qh">
<polygon fill="none" stroke="black" points="561.5,-0.5 561.5,-19.5 626.5,-19.5 626.5,-0.5 561.5,-0.5"/>
<text text-anchor="middle" x="594" y="-7.5" font-family="Helvetica,sans-Serif" font-size="10.00">speaker.qh</text>
</a>
</g>
</g>
<!-- Node15&#45;&gt;Node16 -->
<g id="edge17" class="edge"><title>Node15&#45;&gt;Node16</title>
<path fill="none" stroke="midnightblue" d="M594,-56.083C594,-49.0059 594,-38.8611 594,-29.9865"/>
<polygon fill="midnightblue" stroke="midnightblue" points="597.5,-29.751 594,-19.7511 590.5,-29.7511 597.5,-29.751"/>
</g>
<!-- Node18 -->
<g id="node18" class="node"><title>Node18</title>
<g id="a_node18"><a xlink:href="../../d4/dde/voicescript_8qh.html" target="_top" xlink:title="voicescript.qh">
<polygon fill="none" stroke="black" points="644.5,-0.5 644.5,-19.5 721.5,-19.5 721.5,-0.5 644.5,-0.5"/>
<text text-anchor="middle" x="683" y="-7.5" font-family="Helvetica,sans-Serif" font-size="10.00">voicescript.qh</text>
</a>
</g>
</g>
<!-- Node17&#45;&gt;Node18 -->
<g id="edge19" class="edge"><title>Node17&#45;&gt;Node18</title>
<path fill="none" stroke="midnightblue" d="M683,-56.083C683,-49.0059 683,-38.8611 683,-29.9865"/>
<polygon fill="midnightblue" stroke="midnightblue" points="686.5,-29.751 683,-19.7511 679.5,-29.7511 686.5,-29.751"/>
</g>
</g>
</svg>
