<?xml version="1.0" encoding="UTF-8" standalone="no"?>
<!DOCTYPE svg PUBLIC "-//W3C//DTD SVG 1.1//EN"
 "http://www.w3.org/Graphics/SVG/1.1/DTD/svg11.dtd">
<!-- Generated by graphviz version 2.36.0 (20140111.2315)
 -->
<!-- Title: XonoticCampaignList Pages: 1 -->
<svg width="906pt" height="570pt"
 viewBox="0.00 0.00 906.00 570.00" xmlns="http://www.w3.org/2000/svg" xmlns:xlink="http://www.w3.org/1999/xlink">
<g id="graph0" class="graph" transform="scale(1 1) rotate(0) translate(4 566)">
<title>XonoticCampaignList</title>
<!-- Node1 -->
<g id="node1" class="node"><title>Node1</title>
<polygon fill="#bfbfbf" stroke="black" points="383,-0.5 383,-19.5 493,-19.5 493,-0.5 383,-0.5"/>
<text text-anchor="middle" x="438" y="-7.5" font-family="Helvetica,sans-Serif" font-size="10.00">XonoticCampaignList</text>
</g>
<!-- Node2 -->
<g id="node2" class="node"><title>Node2</title>
<g id="a_node2"><a xlink:href="../../d3/db2/classXonoticListBox.html" target="_top" xlink:title="XonoticListBox">
<polygon fill="none" stroke="black" points="396.5,-58.5 396.5,-77.5 479.5,-77.5 479.5,-58.5 396.5,-58.5"/>
<text text-anchor="middle" x="438" y="-65.5" font-family="Helvetica,sans-Serif" font-size="10.00">XonoticListBox</text>
</a>
</g>
</g>
<!-- Node2&#45;&gt;Node1 -->
<g id="edge1" class="edge"><title>Node2&#45;&gt;Node1</title>
<path fill="none" stroke="midnightblue" d="M438,-47.953C438,-38.2875 438,-27.0312 438,-19.5052"/>
<polygon fill="midnightblue" stroke="midnightblue" points="434.5,-48.25 438,-58.25 441.5,-48.25 434.5,-48.25"/>
</g>
<!-- Node3 -->
<g id="node3" class="node"><title>Node3</title>
<g id="a_node3"><a xlink:href="../../d9/de9/classListBox.html" target="_top" xlink:title="ListBox">
<polygon fill="none" stroke="black" points="503,-167.5 503,-186.5 553,-186.5 553,-167.5 503,-167.5"/>
<text text-anchor="middle" x="528" y="-174.5" font-family="Helvetica,sans-Serif" font-size="10.00">ListBox</text>
</a>
</g>
</g>
<!-- Node3&#45;&gt;Node2 -->
<g id="edge2" class="edge"><title>Node3&#45;&gt;Node2</title>
<path fill="none" stroke="midnightblue" d="M513.993,-159.347C494.558,-136.241 460.125,-95.3039 445.215,-77.5782"/>
<polygon fill="midnightblue" stroke="midnightblue" points="511.519,-161.844 520.635,-167.244 516.876,-157.338 511.519,-161.844"/>
</g>
<!-- Node4 -->
<g id="node4" class="node"><title>Node4</title>
<g id="a_node4"><a xlink:href="../../d0/dae/classItem.html" target="_top" xlink:title="Item">
<polygon fill="none" stroke="black" points="558,-391.5 558,-410.5 594,-410.5 594,-391.5 558,-391.5"/>
<text text-anchor="middle" x="576" y="-398.5" font-family="Helvetica,sans-Serif" font-size="10.00">Item</text>
</a>
</g>
</g>
<!-- Node4&#45;&gt;Node3 -->
<g id="edge3" class="edge"><title>Node4&#45;&gt;Node3</title>
<path fill="none" stroke="midnightblue" d="M571.956,-381.295C562.085,-335.644 537.049,-219.854 529.921,-186.884"/>
<polygon fill="midnightblue" stroke="midnightblue" points="568.584,-382.263 574.118,-391.297 575.426,-380.784 568.584,-382.263"/>
</g>
<!-- Node5 -->
<g id="node5" class="node"><title>Node5</title>
<g id="a_node5"><a xlink:href="../../d8/d4b/classObject.html" target="_top" xlink:title="Object">
<polygon fill="none" stroke="black" points="553.5,-542.5 553.5,-561.5 598.5,-561.5 598.5,-542.5 553.5,-542.5"/>
<text text-anchor="middle" x="576" y="-549.5" font-family="Helvetica,sans-Serif" font-size="10.00">Object</text>
</a>
</g>
</g>
<!-- Node5&#45;&gt;Node4 -->
<g id="edge4" class="edge"><title>Node5&#45;&gt;Node4</title>
<path fill="none" stroke="midnightblue" d="M576,-532.105C576,-499.552 576,-434.128 576,-410.641"/>
<polygon fill="midnightblue" stroke="midnightblue" points="572.5,-532.126 576,-542.126 579.5,-532.126 572.5,-532.126"/>
</g>
<!-- Node6 -->
<g id="node6" class="node"><title>Node6</title>
<polygon fill="none" stroke="#bfbfbf" points="679.5,-542.5 679.5,-561.5 720.5,-561.5 720.5,-542.5 679.5,-542.5"/>
<text text-anchor="middle" x="700" y="-549.5" font-family="Helvetica,sans-Serif" font-size="10.00">string</text>
</g>
<!-- Node6&#45;&gt;Node1 -->
<g id="edge17" class="edge"><title>Node6&#45;&gt;Node1</title>
<path fill="none" stroke="#9a32cd" stroke-dasharray="5,2" d="M718.532,-535.094C721.701,-531.691 724.706,-527.928 727,-524 755.387,-475.394 761,-458.288 761,-402 761,-402 761,-402 761,-67 761,-40.1442 585.411,-22.4476 493.159,-15.0033"/>
<polygon fill="#9a32cd" stroke="#9a32cd" points="715.847,-532.822 711.096,-542.292 720.716,-537.852 715.847,-532.822"/>
<text text-anchor="middle" x="785.5" y="-174.5" font-family="Helvetica,sans-Serif" font-size="10.00"> cvarName</text>
</g>
<!-- Node6&#45;&gt;Node2 -->
<g id="edge14" class="edge"><title>Node6&#45;&gt;Node2</title>
<path fill="none" stroke="#9a32cd" stroke-dasharray="5,2" d="M707,-532.606C707.828,-529.762 708.541,-526.829 709,-524 728.199,-405.693 738.51,-360.037 679,-256 638.737,-185.612 628.069,-163.016 562,-116 535.552,-97.179 500.621,-84.8326 474.576,-77.5381"/>
<polygon fill="#9a32cd" stroke="#9a32cd" points="703.649,-531.588 703.74,-542.182 710.276,-533.843 703.649,-531.588"/>
<text text-anchor="middle" x="718.5" y="-286.5" font-family="Helvetica,sans-Serif" font-size="10.00"> src</text>
</g>
<!-- Node6&#45;&gt;Node3 -->
<g id="edge9" class="edge"><title>Node6&#45;&gt;Node3</title>
<path fill="none" stroke="#9a32cd" stroke-dasharray="5,2" d="M698.2,-532.221C692.194,-470.901 672.358,-279.144 657,-256 632.255,-218.71 583.011,-196.435 553.037,-185.754"/>
<polygon fill="#9a32cd" stroke="#9a32cd" points="694.735,-532.756 699.184,-542.372 701.703,-532.081 694.735,-532.756"/>
<text text-anchor="middle" x="699.5" y="-398.5" font-family="Helvetica,sans-Serif" font-size="10.00"> src</text>
</g>
<!-- Node6&#45;&gt;Node4 -->
<g id="edge5" class="edge"><title>Node6&#45;&gt;Node4</title>
<path fill="none" stroke="#9a32cd" stroke-dasharray="5,2" d="M669.619,-543.636C657.421,-539.476 643.928,-533.207 634,-524 598.748,-491.309 582.762,-432.742 577.791,-410.704"/>
<polygon fill="#9a32cd" stroke="#9a32cd" points="668.868,-547.066 679.455,-546.652 670.921,-540.374 668.868,-547.066"/>
<text text-anchor="middle" x="649" y="-499.5" font-family="Helvetica,sans-Serif" font-size="10.00"> tooltip</text>
</g>
<!-- Node7 -->
<g id="node7" class="node"><title>Node7</title>
<polygon fill="none" stroke="#bfbfbf" points="390,-542.5 390,-561.5 434,-561.5 434,-542.5 390,-542.5"/>
<text text-anchor="middle" x="412" y="-549.5" font-family="Helvetica,sans-Serif" font-size="10.00">vector</text>
</g>
<!-- Node7&#45;&gt;Node1 -->
<g id="edge19" class="edge"><title>Node7&#45;&gt;Node1</title>
<path fill="none" stroke="#9a32cd" stroke-dasharray="5,2" d="M379.768,-547.934C332.162,-541.456 244.632,-521.64 207,-462 178.065,-416.143 198.279,-393.516 207,-340 223.887,-236.379 218.402,-199.533 282,-116 318.685,-67.8161 384.115,-34.3301 417.37,-19.5408"/>
<polygon fill="#9a32cd" stroke="#9a32cd" points="379.49,-551.426 389.845,-549.186 380.353,-544.479 379.49,-551.426"/>
<text text-anchor="middle" x="319" y="-196.5" font-family="Helvetica,sans-Serif" font-size="10.00"> realFontSize</text>
<text text-anchor="middle" x="319" y="-185.5" font-family="Helvetica,sans-Serif" font-size="10.00">checkMarkSize</text>
<text text-anchor="middle" x="319" y="-174.5" font-family="Helvetica,sans-Serif" font-size="10.00">origin</text>
<text text-anchor="middle" x="319" y="-163.5" font-family="Helvetica,sans-Serif" font-size="10.00">checkMarkOrigin</text>
<text text-anchor="middle" x="319" y="-152.5" font-family="Helvetica,sans-Serif" font-size="10.00">itemAbsSize</text>
</g>
<!-- Node7&#45;&gt;Node2 -->
<g id="edge15" class="edge"><title>Node7&#45;&gt;Node2</title>
<path fill="none" stroke="#9a32cd" stroke-dasharray="5,2" d="M380.297,-543.578C370.133,-539.538 359.973,-533.369 354,-524 346.22,-511.797 316.103,-437.517 355,-256 370.704,-182.718 416.906,-103.201 432.663,-77.5099"/>
<polygon fill="#9a32cd" stroke="#9a32cd" points="379.312,-546.94 389.906,-546.834 381.559,-540.31 379.312,-546.94"/>
<text text-anchor="middle" x="375" y="-314" font-family="Helvetica,sans-Serif" font-size="10.00"> colorC</text>
<text text-anchor="middle" x="375" y="-303" font-family="Helvetica,sans-Serif" font-size="10.00">color2</text>
<text text-anchor="middle" x="375" y="-292" font-family="Helvetica,sans-Serif" font-size="10.00">tolerance</text>
<text text-anchor="middle" x="375" y="-281" font-family="Helvetica,sans-Serif" font-size="10.00">colorF</text>
<text text-anchor="middle" x="375" y="-270" font-family="Helvetica,sans-Serif" font-size="10.00">colorBG</text>
<text text-anchor="middle" x="375" y="-259" font-family="Helvetica,sans-Serif" font-size="10.00">color</text>
</g>
<!-- Node7&#45;&gt;Node3 -->
<g id="edge10" class="edge"><title>Node7&#45;&gt;Node3</title>
<path fill="none" stroke="#9a32cd" stroke-dasharray="5,2" d="M443.756,-543.381C454.049,-539.322 464.481,-533.191 471,-524 518.509,-457.011 446.575,-410.913 488,-340 495.089,-327.864 506.882,-334.119 514,-322 540.461,-276.951 533.165,-210.044 529.499,-186.538"/>
<polygon fill="#9a32cd" stroke="#9a32cd" points="442.408,-540.142 434.063,-546.67 444.658,-546.771 442.408,-540.142"/>
<text text-anchor="middle" x="518.5" y="-453.5" font-family="Helvetica,sans-Serif" font-size="10.00"> tolerance</text>
<text text-anchor="middle" x="518.5" y="-442.5" font-family="Helvetica,sans-Serif" font-size="10.00">colorC</text>
<text text-anchor="middle" x="518.5" y="-431.5" font-family="Helvetica,sans-Serif" font-size="10.00">color2</text>
<text text-anchor="middle" x="518.5" y="-420.5" font-family="Helvetica,sans-Serif" font-size="10.00">size</text>
<text text-anchor="middle" x="518.5" y="-409.5" font-family="Helvetica,sans-Serif" font-size="10.00">colorF</text>
<text text-anchor="middle" x="518.5" y="-398.5" font-family="Helvetica,sans-Serif" font-size="10.00">origin</text>
<text text-anchor="middle" x="518.5" y="-387.5" font-family="Helvetica,sans-Serif" font-size="10.00">dragScrollPos</text>
<text text-anchor="middle" x="518.5" y="-376.5" font-family="Helvetica,sans-Serif" font-size="10.00">colorBG</text>
<text text-anchor="middle" x="518.5" y="-365.5" font-family="Helvetica,sans-Serif" font-size="10.00">itemAbsSize</text>
<text text-anchor="middle" x="518.5" y="-354.5" font-family="Helvetica,sans-Serif" font-size="10.00">color</text>
<text text-anchor="middle" x="518.5" y="-343.5" font-family="Helvetica,sans-Serif" font-size="10.00">...</text>
</g>
<!-- Node7&#45;&gt;Node4 -->
<g id="edge6" class="edge"><title>Node7&#45;&gt;Node4</title>
<path fill="none" stroke="#9a32cd" stroke-dasharray="5,2" d="M444.388,-546.078C461.798,-542.23 482.927,-535.522 499,-524 540.934,-493.94 565.24,-433.26 573.134,-410.704"/>
<polygon fill="#9a32cd" stroke="#9a32cd" points="443.232,-542.739 434.106,-548.121 444.597,-549.604 443.232,-542.739"/>
<text text-anchor="middle" x="551" y="-505" font-family="Helvetica,sans-Serif" font-size="10.00"> size</text>
<text text-anchor="middle" x="551" y="-494" font-family="Helvetica,sans-Serif" font-size="10.00">origin</text>
</g>
<!-- Node8 -->
<g id="node8" class="node"><title>Node8</title>
<polygon fill="none" stroke="#bfbfbf" points="800.5,-542.5 800.5,-561.5 841.5,-561.5 841.5,-542.5 800.5,-542.5"/>
<text text-anchor="middle" x="821" y="-549.5" font-family="Helvetica,sans-Serif" font-size="10.00">entity</text>
</g>
<!-- Node8&#45;&gt;Node1 -->
<g id="edge18" class="edge"><title>Node8&#45;&gt;Node1</title>
<path fill="none" stroke="#9a32cd" stroke-dasharray="5,2" d="M826.173,-532.377C833.495,-504.335 846,-449.49 846,-402 846,-402 846,-402 846,-67 846,-31.7875 604.391,-17.6073 493.025,-12.9414"/>
<polygon fill="#9a32cd" stroke="#9a32cd" points="822.708,-531.786 823.488,-542.352 829.467,-533.606 822.708,-531.786"/>
<text text-anchor="middle" x="872" y="-185.5" font-family="Helvetica,sans-Serif" font-size="10.00"> buttonNext</text>
<text text-anchor="middle" x="872" y="-174.5" font-family="Helvetica,sans-Serif" font-size="10.00">labelTitle</text>
<text text-anchor="middle" x="872" y="-163.5" font-family="Helvetica,sans-Serif" font-size="10.00">buttonPrev</text>
</g>
<!-- Node8&#45;&gt;Node4 -->
<g id="edge7" class="edge"><title>Node8&#45;&gt;Node4</title>
<path fill="none" stroke="#9a32cd" stroke-dasharray="5,2" d="M795.954,-537.819C766.089,-522.47 714.377,-497.051 668,-480 639.865,-469.656 625.751,-481.518 603,-462 587.221,-448.464 580.231,-423.848 577.509,-410.749"/>
<polygon fill="#9a32cd" stroke="#9a32cd" points="794.359,-540.934 804.848,-542.425 797.578,-534.718 794.359,-540.934"/>
<text text-anchor="middle" x="782.5" y="-499.5" font-family="Helvetica,sans-Serif" font-size="10.00"> parent</text>
</g>
<!-- Node9 -->
<g id="node9" class="node"><title>Node9</title>
<polygon fill="none" stroke="#bfbfbf" points="169.5,-542.5 169.5,-561.5 204.5,-561.5 204.5,-542.5 169.5,-542.5"/>
<text text-anchor="middle" x="187" y="-549.5" font-family="Helvetica,sans-Serif" font-size="10.00">float</text>
</g>
<!-- Node9&#45;&gt;Node1 -->
<g id="edge20" class="edge"><title>Node9&#45;&gt;Node1</title>
<path fill="none" stroke="#9a32cd" stroke-dasharray="5,2" d="M159.834,-543.321C107.979,-526.816 0,-482.752 0,-402 0,-402 0,-402 0,-67 0,-28.8134 265.333,-16.1458 382.97,-12.4061"/>
<polygon fill="#9a32cd" stroke="#9a32cd" points="158.821,-546.671 169.407,-546.257 160.873,-539.979 158.821,-546.671"/>
<text text-anchor="middle" x="54" y="-229.5" font-family="Helvetica,sans-Serif" font-size="10.00"> realUpperMargin2</text>
<text text-anchor="middle" x="54" y="-218.5" font-family="Helvetica,sans-Serif" font-size="10.00">emptyLineHeight</text>
<text text-anchor="middle" x="54" y="-207.5" font-family="Helvetica,sans-Serif" font-size="10.00">rowsPerItem</text>
<text text-anchor="middle" x="54" y="-196.5" font-family="Helvetica,sans-Serif" font-size="10.00">campaignIndex</text>
<text text-anchor="middle" x="54" y="-185.5" font-family="Helvetica,sans-Serif" font-size="10.00">columnPreviewOrigin</text>
<text text-anchor="middle" x="54" y="-174.5" font-family="Helvetica,sans-Serif" font-size="10.00">columnCheckMarkOrigin</text>
<text text-anchor="middle" x="54" y="-163.5" font-family="Helvetica,sans-Serif" font-size="10.00">columnNameSize</text>
<text text-anchor="middle" x="54" y="-152.5" font-family="Helvetica,sans-Serif" font-size="10.00">campaignGlob</text>
<text text-anchor="middle" x="54" y="-141.5" font-family="Helvetica,sans-Serif" font-size="10.00">columnNameOrigin</text>
<text text-anchor="middle" x="54" y="-130.5" font-family="Helvetica,sans-Serif" font-size="10.00">realUpperMargin1</text>
<text text-anchor="middle" x="54" y="-119.5" font-family="Helvetica,sans-Serif" font-size="10.00">...</text>
</g>
<!-- Node9&#45;&gt;Node2 -->
<g id="edge16" class="edge"><title>Node9&#45;&gt;Node2</title>
<path fill="none" stroke="#9a32cd" stroke-dasharray="5,2" d="M179.228,-532.793C151.384,-464.42 64.8304,-221.519 192,-116 222.534,-90.6644 334.554,-77.5658 396.36,-72.1328"/>
<polygon fill="#9a32cd" stroke="#9a32cd" points="176.078,-534.333 183.151,-542.221 182.54,-531.643 176.078,-534.333"/>
<text text-anchor="middle" x="157.5" y="-303" font-family="Helvetica,sans-Serif" font-size="10.00"> rowsPerItem</text>
<text text-anchor="middle" x="157.5" y="-292" font-family="Helvetica,sans-Serif" font-size="10.00">alphaBG</text>
<text text-anchor="middle" x="157.5" y="-281" font-family="Helvetica,sans-Serif" font-size="10.00">scrollbarWidth</text>
<text text-anchor="middle" x="157.5" y="-270" font-family="Helvetica,sans-Serif" font-size="10.00">fontSize</text>
</g>
<!-- Node9&#45;&gt;Node3 -->
<g id="edge11" class="edge"><title>Node9&#45;&gt;Node3</title>
<path fill="none" stroke="#9a32cd" stroke-dasharray="5,2" d="M190.695,-532.422C201.82,-481.178 239.69,-336.322 326,-256 377.324,-208.236 461.076,-188.668 502.768,-181.564"/>
<polygon fill="#9a32cd" stroke="#9a32cd" points="187.235,-531.87 188.621,-542.374 194.088,-533.299 187.235,-531.87"/>
<text text-anchor="middle" x="301.5" y="-453.5" font-family="Helvetica,sans-Serif" font-size="10.00"> lastClickedItem</text>
<text text-anchor="middle" x="301.5" y="-442.5" font-family="Helvetica,sans-Serif" font-size="10.00">mouseMoveOffset</text>
<text text-anchor="middle" x="301.5" y="-431.5" font-family="Helvetica,sans-Serif" font-size="10.00">pressed</text>
<text text-anchor="middle" x="301.5" y="-420.5" font-family="Helvetica,sans-Serif" font-size="10.00">scrollPosTarget</text>
<text text-anchor="middle" x="301.5" y="-409.5" font-family="Helvetica,sans-Serif" font-size="10.00">lastClickedTime</text>
<text text-anchor="middle" x="301.5" y="-398.5" font-family="Helvetica,sans-Serif" font-size="10.00">nItems</text>
<text text-anchor="middle" x="301.5" y="-387.5" font-family="Helvetica,sans-Serif" font-size="10.00">controlTop</text>
<text text-anchor="middle" x="301.5" y="-376.5" font-family="Helvetica,sans-Serif" font-size="10.00">needScrollToItem</text>
<text text-anchor="middle" x="301.5" y="-365.5" font-family="Helvetica,sans-Serif" font-size="10.00">allowFocusSound</text>
<text text-anchor="middle" x="301.5" y="-354.5" font-family="Helvetica,sans-Serif" font-size="10.00">scrollPos</text>
<text text-anchor="middle" x="301.5" y="-343.5" font-family="Helvetica,sans-Serif" font-size="10.00">...</text>
</g>
<!-- Node9&#45;&gt;Node4 -->
<g id="edge8" class="edge"><title>Node9&#45;&gt;Node4</title>
<path fill="none" stroke="#9a32cd" stroke-dasharray="5,2" d="M214.218,-539.86C253.931,-524.065 330.394,-495.376 398,-480 429.876,-472.75 517.052,-480.506 544,-462 561.907,-449.703 570.604,-424.087 574.079,-410.651"/>
<polygon fill="#9a32cd" stroke="#9a32cd" points="212.69,-536.702 204.713,-543.674 215.297,-543.198 212.69,-536.702"/>
<text text-anchor="middle" x="446.5" y="-516" font-family="Helvetica,sans-Serif" font-size="10.00"> allowFocusSound</text>
<text text-anchor="middle" x="446.5" y="-505" font-family="Helvetica,sans-Serif" font-size="10.00">focused</text>
<text text-anchor="middle" x="446.5" y="-494" font-family="Helvetica,sans-Serif" font-size="10.00">focusable</text>
<text text-anchor="middle" x="446.5" y="-483" font-family="Helvetica,sans-Serif" font-size="10.00">preferredFocusPriority</text>
</g>
<!-- Node10 -->
<g id="node10" class="node"><title>Node10</title>
<polygon fill="none" stroke="#bfbfbf" points="612.5,-391.5 612.5,-410.5 641.5,-410.5 641.5,-391.5 612.5,-391.5"/>
<text text-anchor="middle" x="627" y="-398.5" font-family="Helvetica,sans-Serif" font-size="10.00">int</text>
</g>
<!-- Node10&#45;&gt;Node3 -->
<g id="edge12" class="edge"><title>Node10&#45;&gt;Node3</title>
<path fill="none" stroke="#9a32cd" stroke-dasharray="5,2" d="M619.889,-381.751C615.196,-369.827 608.855,-353.938 603,-340 587.2,-302.389 583.159,-293.01 566,-256 554.215,-230.581 539.495,-200.924 532.326,-186.605"/>
<polygon fill="#9a32cd" stroke="#9a32cd" points="616.769,-383.382 623.674,-391.417 623.287,-380.83 616.769,-383.382"/>
<text text-anchor="middle" x="624" y="-292" font-family="Helvetica,sans-Serif" font-size="10.00"> focusedItem</text>
<text text-anchor="middle" x="624" y="-281" font-family="Helvetica,sans-Serif" font-size="10.00">selectedItem</text>
</g>
<!-- Node11 -->
<g id="node11" class="node"><title>Node11</title>
<polygon fill="none" stroke="#bfbfbf" points="393.5,-391.5 393.5,-410.5 428.5,-410.5 428.5,-391.5 393.5,-391.5"/>
<text text-anchor="middle" x="411" y="-398.5" font-family="Helvetica,sans-Serif" font-size="10.00">bool</text>
</g>
<!-- Node11&#45;&gt;Node3 -->
<g id="edge13" class="edge"><title>Node11&#45;&gt;Node3</title>
<path fill="none" stroke="#9a32cd" stroke-dasharray="5,2" d="M405.888,-381.26C399.118,-352.412 390.382,-296.249 412,-256 431.291,-220.082 475.22,-197.715 503.141,-186.581"/>
<polygon fill="#9a32cd" stroke="#9a32cd" points="402.558,-382.368 408.405,-391.204 409.344,-380.65 402.558,-382.368"/>
<text text-anchor="middle" x="463" y="-286.5" font-family="Helvetica,sans-Serif" font-size="10.00"> selectionDoesntMatter</text>
</g>
</g>
</svg>
