<?xml version="1.0" encoding="UTF-8" standalone="no"?>
<!DOCTYPE svg PUBLIC "-//W3C//DTD SVG 1.1//EN"
 "http://www.w3.org/Graphics/SVG/1.1/DTD/svg11.dtd">
<!-- Generated by graphviz version 2.38.0 (20140413.2041)
 -->
<!-- Title: drawstring_aspect Pages: 1 -->
<svg width="630pt" height="553pt"
 viewBox="0.00 0.00 630.00 552.72" xmlns="http://www.w3.org/2000/svg" xmlns:xlink="http://www.w3.org/1999/xlink">
<g id="graph0" class="graph" transform="scale(1 1) rotate(0) translate(4 548.722)">
<title>drawstring_aspect</title>
<!-- Node1 -->
<g id="node1" class="node"><title>Node1</title>
<polygon fill="#bfbfbf" stroke="black" points="0,-259.222 0,-278.222 104,-278.222 104,-259.222 0,-259.222"/>
<text text-anchor="middle" x="52" y="-266.222" font-family="Helvetica,sans-Serif" font-size="10.00">drawstring_aspect</text>
</g>
<!-- Node2 -->
<g id="node2" class="node"><title>Node2</title>
<g id="a_node2"><a xlink:href="../../dd/d85/client_2hud_2panel_2ammo_8qc.html#ae7ffb410f94aaa85f977803dd74d1f71" target="_top" xlink:title="DrawAmmoItem">
<polygon fill="none" stroke="black" points="161.5,-525.222 161.5,-544.222 256.5,-544.222 256.5,-525.222 161.5,-525.222"/>
<text text-anchor="middle" x="209" y="-532.222" font-family="Helvetica,sans-Serif" font-size="10.00">DrawAmmoItem</text>
</a>
</g>
</g>
<!-- Node1&#45;&gt;Node2 -->
<g id="edge1" class="edge"><title>Node1&#45;&gt;Node2</title>
<path fill="none" stroke="midnightblue" d="M54.0131,-288.458C57.4959,-335.089 72.8419,-452.868 140,-515.722 145.996,-521.334 153.512,-525.309 161.34,-528.121"/>
<polygon fill="midnightblue" stroke="midnightblue" points="57.5038,-288.201 53.3711,-278.445 50.5182,-288.649 57.5038,-288.201"/>
</g>
<!-- Node4 -->
<g id="node4" class="node"><title>Node4</title>
<g id="a_node4"><a xlink:href="../../dd/d59/modicons_8qc.html#a2ef359c7f27b5e4f5deb34df765cf6b0" target="_top" xlink:title="DrawCAItem">
<polygon fill="none" stroke="black" points="171,-487.222 171,-506.222 247,-506.222 247,-487.222 171,-487.222"/>
<text text-anchor="middle" x="209" y="-494.222" font-family="Helvetica,sans-Serif" font-size="10.00">DrawCAItem</text>
</a>
</g>
</g>
<!-- Node1&#45;&gt;Node4 -->
<g id="edge3" class="edge"><title>Node1&#45;&gt;Node4</title>
<path fill="none" stroke="midnightblue" d="M55.452,-288.456C61.6635,-329.879 81.8868,-426.298 140,-477.722 148.537,-485.276 159.846,-489.849 170.785,-492.61"/>
<polygon fill="midnightblue" stroke="midnightblue" points="58.8867,-287.742 54.0518,-278.314 51.9525,-288.699 58.8867,-287.742"/>
</g>
<!-- Node8 -->
<g id="node8" class="node"><title>Node8</title>
<g id="a_node8"><a xlink:href="../../dd/d21/cl__domination_8qc.html#ab249e30ac1a70492e9d7d54355c61985" target="_top" xlink:title="DrawDomItem">
<polygon fill="none" stroke="black" points="166,-449.222 166,-468.222 252,-468.222 252,-449.222 166,-449.222"/>
<text text-anchor="middle" x="209" y="-456.222" font-family="Helvetica,sans-Serif" font-size="10.00">DrawDomItem</text>
</a>
</g>
</g>
<!-- Node1&#45;&gt;Node8 -->
<g id="edge7" class="edge"><title>Node1&#45;&gt;Node8</title>
<path fill="none" stroke="midnightblue" d="M57.5466,-288.739C66.7323,-324.538 90.9402,-399.534 140,-439.722 147.396,-445.78 156.598,-449.911 165.819,-452.726"/>
<polygon fill="midnightblue" stroke="midnightblue" points="60.8421,-287.478 55.0797,-278.587 54.04,-289.131 60.8421,-287.478"/>
</g>
<!-- Node11 -->
<g id="node11" class="node"><title>Node11</title>
<g id="a_node11"><a xlink:href="../../d3/d05/hud_8qh.html#a7526fd85f93fc7af908af59a70d07467" target="_top" xlink:title="DrawNumIcon_expanding">
<polygon fill="none" stroke="black" points="140,-411.222 140,-430.222 278,-430.222 278,-411.222 140,-411.222"/>
<text text-anchor="middle" x="209" y="-418.222" font-family="Helvetica,sans-Serif" font-size="10.00">DrawNumIcon_expanding</text>
</a>
</g>
</g>
<!-- Node1&#45;&gt;Node11 -->
<g id="edge10" class="edge"><title>Node1&#45;&gt;Node11</title>
<path fill="none" stroke="midnightblue" d="M60.3338,-287.923C72.4326,-317.001 99.3538,-371.962 140,-401.722 145.341,-405.632 151.454,-408.738 157.776,-411.205"/>
<polygon fill="midnightblue" stroke="midnightblue" points="63.5169,-286.457 56.549,-278.476 57.019,-289.06 63.5169,-286.457"/>
</g>
<!-- Node15 -->
<g id="node15" class="node"><title>Node15</title>
<g id="a_node15"><a xlink:href="../../d6/dd3/view_8qc.html#a018a6576512f5f15b72f6a1a732d2af0" target="_top" xlink:title="HUD_Draw">
<polygon fill="none" stroke="black" points="175,-373.222 175,-392.222 243,-392.222 243,-373.222 175,-373.222"/>
<text text-anchor="middle" x="209" y="-380.222" font-family="Helvetica,sans-Serif" font-size="10.00">HUD_Draw</text>
</a>
</g>
</g>
<!-- Node1&#45;&gt;Node15 -->
<g id="edge15" class="edge"><title>Node1&#45;&gt;Node15</title>
<path fill="none" stroke="midnightblue" d="M64.9269,-286.996C79.9144,-308.514 107.632,-343.837 140,-363.722 150.444,-370.138 163.105,-374.441 174.657,-377.302"/>
<polygon fill="midnightblue" stroke="midnightblue" points="67.641,-284.762 59.1357,-278.444 61.845,-288.687 67.641,-284.762"/>
</g>
<!-- Node17 -->
<g id="node17" class="node"><title>Node17</title>
<g id="a_node17"><a xlink:href="../../dd/d31/engineinfo_8qc.html#addd2220d49d11f3443e66dd9457a4a49" target="_top" xlink:title="HUD_EngineInfo">
<polygon fill="none" stroke="black" points="162,-335.222 162,-354.222 256,-354.222 256,-335.222 162,-335.222"/>
<text text-anchor="middle" x="209" y="-342.222" font-family="Helvetica,sans-Serif" font-size="10.00">HUD_EngineInfo</text>
</a>
</g>
</g>
<!-- Node1&#45;&gt;Node17 -->
<g id="edge17" class="edge"><title>Node1&#45;&gt;Node17</title>
<path fill="none" stroke="midnightblue" d="M73.0437,-284.435C90.041,-297.108 115.498,-314.596 140,-325.722 148.148,-329.421 157.178,-332.556 165.925,-335.147"/>
<polygon fill="midnightblue" stroke="midnightblue" points="75.0562,-281.568 64.9762,-278.306 70.8216,-287.142 75.0562,-281.568"/>
</g>
<!-- Node18 -->
<g id="node18" class="node"><title>Node18</title>
<g id="a_node18"><a xlink:href="../../dd/d59/modicons_8qc.html#a8424826bc6a1cf734a8effc14a85fc78" target="_top" xlink:title="HUD_Mod_Race">
<polygon fill="none" stroke="black" points="321,-88.2216 321,-107.222 414,-107.222 414,-88.2216 321,-88.2216"/>
<text text-anchor="middle" x="367.5" y="-95.2216" font-family="Helvetica,sans-Serif" font-size="10.00">HUD_Mod_Race</text>
</a>
</g>
</g>
<!-- Node1&#45;&gt;Node18 -->
<g id="edge18" class="edge"><title>Node1&#45;&gt;Node18</title>
<path fill="none" stroke="midnightblue" d="M52.9388,-249.018C53.989,-200.506 64.2539,-75.3492 140,-21.7216 190.058,13.7187 220.486,-0.415508 278,-21.7216 314.273,-35.1592 345.684,-70.8512 359.296,-88.1098"/>
<polygon fill="midnightblue" stroke="midnightblue" points="49.4379,-249.096 52.8349,-259.131 56.4376,-249.168 49.4379,-249.096"/>
</g>
<!-- Node21 -->
<g id="node21" class="node"><title>Node21</title>
<g id="a_node21"><a xlink:href="../../d5/d83/client_2hud_2panel_2physics_8qc.html#ac8cc1c5ddb1bf262f00de667ba2124db" target="_top" xlink:title="HUD_Physics">
<polygon fill="none" stroke="black" points="169,-259.222 169,-278.222 249,-278.222 249,-259.222 169,-259.222"/>
<text text-anchor="middle" x="209" y="-266.222" font-family="Helvetica,sans-Serif" font-size="10.00">HUD_Physics</text>
</a>
</g>
</g>
<!-- Node1&#45;&gt;Node21 -->
<g id="edge21" class="edge"><title>Node1&#45;&gt;Node21</title>
<path fill="none" stroke="midnightblue" d="M114.206,-268.722C132.535,-268.722 152.137,-268.722 168.657,-268.722"/>
<polygon fill="midnightblue" stroke="midnightblue" points="114.182,-265.222 104.182,-268.722 114.182,-272.222 114.182,-265.222"/>
</g>
<!-- Node22 -->
<g id="node22" class="node"><title>Node22</title>
<g id="a_node22"><a xlink:href="../../d6/d8f/score_8qc.html#af299e2a5219b4b963a923527b78ed9a7" target="_top" xlink:title="HUD_Score">
<polygon fill="none" stroke="black" points="331.5,-259.222 331.5,-278.222 403.5,-278.222 403.5,-259.222 331.5,-259.222"/>
<text text-anchor="middle" x="367.5" y="-266.222" font-family="Helvetica,sans-Serif" font-size="10.00">HUD_Score</text>
</a>
</g>
</g>
<!-- Node1&#45;&gt;Node22 -->
<g id="edge22" class="edge"><title>Node1&#45;&gt;Node22</title>
<path fill="none" stroke="midnightblue" d="M98.1885,-256.924C111.554,-253.96 126.281,-251.202 140,-249.722 200.979,-243.141 217.009,-243.248 278,-249.722 295.815,-251.612 315.313,-255.587 331.463,-259.414"/>
<polygon fill="midnightblue" stroke="midnightblue" points="97.2289,-253.553 88.2726,-259.213 98.8036,-260.374 97.2289,-253.553"/>
</g>
<!-- Node23 -->
<g id="node23" class="node"><title>Node23</title>
<g id="a_node23"><a xlink:href="../../d6/d8f/score_8qc.html#a8266d5d080761ce457b269fd0a6a22c1" target="_top" xlink:title="HUD_Score_Rankings">
<polygon fill="none" stroke="black" points="149,-297.222 149,-316.222 269,-316.222 269,-297.222 149,-297.222"/>
<text text-anchor="middle" x="209" y="-304.222" font-family="Helvetica,sans-Serif" font-size="10.00">HUD_Score_Rankings</text>
</a>
</g>
</g>
<!-- Node1&#45;&gt;Node23 -->
<g id="edge23" class="edge"><title>Node1&#45;&gt;Node23</title>
<path fill="none" stroke="midnightblue" d="M102.111,-280.762C123.765,-286.07 148.85,-292.22 169.168,-297.202"/>
<polygon fill="midnightblue" stroke="midnightblue" points="102.659,-277.292 92.113,-278.311 100.992,-284.091 102.659,-277.292"/>
</g>
<!-- Node24 -->
<g id="node24" class="node"><title>Node24</title>
<g id="a_node24"><a xlink:href="../../d5/dfa/timer_8qc.html#a83d664db53940b5493a6233fbc021db3" target="_top" xlink:title="HUD_Timer">
<polygon fill="none" stroke="black" points="173.5,-145.222 173.5,-164.222 244.5,-164.222 244.5,-145.222 173.5,-145.222"/>
<text text-anchor="middle" x="209" y="-152.222" font-family="Helvetica,sans-Serif" font-size="10.00">HUD_Timer</text>
</a>
</g>
</g>
<!-- Node1&#45;&gt;Node24 -->
<g id="edge25" class="edge"><title>Node1&#45;&gt;Node24</title>
<path fill="none" stroke="midnightblue" d="M64.9269,-250.447C79.9144,-228.929 107.632,-193.607 140,-173.722 150.027,-167.562 162.096,-163.35 173.265,-160.492"/>
<polygon fill="midnightblue" stroke="midnightblue" points="61.845,-248.756 59.1357,-258.999 67.641,-252.681 61.845,-248.756"/>
</g>
<!-- Node25 -->
<g id="node25" class="node"><title>Node25</title>
<g id="a_node25"><a xlink:href="../../df/d1f/client_2hud_2panel_2vote_8qc.html#a297e9e4e75bcd558a43f78eb74dd2140" target="_top" xlink:title="HUD_Vote">
<polygon fill="none" stroke="black" points="176,-107.222 176,-126.222 242,-126.222 242,-107.222 176,-107.222"/>
<text text-anchor="middle" x="209" y="-114.222" font-family="Helvetica,sans-Serif" font-size="10.00">HUD_Vote</text>
</a>
</g>
</g>
<!-- Node1&#45;&gt;Node25 -->
<g id="edge26" class="edge"><title>Node1&#45;&gt;Node25</title>
<path fill="none" stroke="midnightblue" d="M60.3338,-249.52C72.4326,-220.442 99.3538,-165.482 140,-135.722 150.385,-128.118 163.69,-123.556 175.774,-120.819"/>
<polygon fill="midnightblue" stroke="midnightblue" points="57.019,-248.383 56.549,-258.968 63.5169,-250.987 57.019,-248.383"/>
</g>
<!-- Node26 -->
<g id="node26" class="node"><title>Node26</title>
<g id="a_node26"><a xlink:href="../../d4/def/weapons_8qc.html#ab7c3acfa47aaf4f25f4775921b6be5ae" target="_top" xlink:title="HUD_Weapons">
<polygon fill="none" stroke="black" points="165.5,-69.2216 165.5,-88.2216 252.5,-88.2216 252.5,-69.2216 165.5,-69.2216"/>
<text text-anchor="middle" x="209" y="-76.2216" font-family="Helvetica,sans-Serif" font-size="10.00">HUD_Weapons</text>
</a>
</g>
</g>
<!-- Node1&#45;&gt;Node26 -->
<g id="edge27" class="edge"><title>Node1&#45;&gt;Node26</title>
<path fill="none" stroke="midnightblue" d="M57.5466,-248.704C66.7323,-212.905 90.9402,-137.909 140,-97.7216 147.301,-91.7406 156.363,-87.6386 165.464,-84.8264"/>
<polygon fill="midnightblue" stroke="midnightblue" points="54.04,-248.313 55.0797,-258.856 60.8421,-249.966 54.04,-248.313"/>
</g>
<!-- Node27 -->
<g id="node27" class="node"><title>Node27</title>
<g id="a_node27"><a xlink:href="../../d4/d90/itemstime_8qc.html#aac6c624f1067a2d9f74a8eed6b670e24" target="_top" xlink:title="Item_ItemsTime_Allow">
<polygon fill="none" stroke="black" points="147.5,-31.2216 147.5,-50.2216 270.5,-50.2216 270.5,-31.2216 147.5,-31.2216"/>
<text text-anchor="middle" x="209" y="-38.2216" font-family="Helvetica,sans-Serif" font-size="10.00">Item_ItemsTime_Allow</text>
</a>
</g>
</g>
<!-- Node1&#45;&gt;Node27 -->
<g id="edge28" class="edge"><title>Node1&#45;&gt;Node27</title>
<path fill="none" stroke="midnightblue" d="M55.452,-248.987C61.6635,-207.565 81.8868,-111.145 140,-59.7216 144.406,-55.8225 149.551,-52.7177 155.002,-50.2462"/>
<polygon fill="midnightblue" stroke="midnightblue" points="51.9525,-248.744 54.0518,-259.129 58.8867,-249.702 51.9525,-248.744"/>
</g>
<!-- Node28 -->
<g id="node28" class="node"><title>Node28</title>
<g id="a_node28"><a xlink:href="../../dd/d59/modicons_8qc.html#ac3feccee341c58ff935a2148dbed66b5" target="_top" xlink:title="race_showTime">
<polygon fill="none" stroke="black" points="164,-183.222 164,-202.222 254,-202.222 254,-183.222 164,-183.222"/>
<text text-anchor="middle" x="209" y="-190.222" font-family="Helvetica,sans-Serif" font-size="10.00">race_showTime</text>
</a>
</g>
</g>
<!-- Node1&#45;&gt;Node28 -->
<g id="edge29" class="edge"><title>Node1&#45;&gt;Node28</title>
<path fill="none" stroke="midnightblue" d="M75.7215,-253.428C92.885,-242.304 117.288,-227.387 140,-216.722 151.672,-211.241 164.96,-206.285 176.673,-202.319"/>
<polygon fill="midnightblue" stroke="midnightblue" points="73.4233,-250.75 66.9878,-259.166 77.2672,-256.6 73.4233,-250.75"/>
</g>
<!-- Node3 -->
<g id="node3" class="node"><title>Node3</title>
<g id="a_node3"><a xlink:href="../../dd/d85/client_2hud_2panel_2ammo_8qc.html#a721184b345adabdd99104e5c380dc2cd" target="_top" xlink:title="HUD_Ammo">
<polygon fill="none" stroke="black" points="329,-525.222 329,-544.222 406,-544.222 406,-525.222 329,-525.222"/>
<text text-anchor="middle" x="367.5" y="-532.222" font-family="Helvetica,sans-Serif" font-size="10.00">HUD_Ammo</text>
</a>
</g>
</g>
<!-- Node2&#45;&gt;Node3 -->
<g id="edge2" class="edge"><title>Node2&#45;&gt;Node3</title>
<path fill="none" stroke="midnightblue" d="M266.779,-534.722C287.424,-534.722 310.23,-534.722 328.815,-534.722"/>
<polygon fill="midnightblue" stroke="midnightblue" points="266.531,-531.222 256.531,-534.722 266.531,-538.222 266.531,-531.222"/>
</g>
<!-- Node5 -->
<g id="node5" class="node"><title>Node5</title>
<g id="a_node5"><a xlink:href="../../dd/d59/modicons_8qc.html#ad1d000d7f62640740c47ca71ff44ba95" target="_top" xlink:title="HUD_Mod_CA">
<polygon fill="none" stroke="black" points="326,-487.222 326,-506.222 409,-506.222 409,-487.222 326,-487.222"/>
<text text-anchor="middle" x="367.5" y="-494.222" font-family="Helvetica,sans-Serif" font-size="10.00">HUD_Mod_CA</text>
</a>
</g>
</g>
<!-- Node4&#45;&gt;Node5 -->
<g id="edge4" class="edge"><title>Node4&#45;&gt;Node5</title>
<path fill="none" stroke="midnightblue" d="M257.162,-496.722C279.049,-496.722 304.813,-496.722 325.831,-496.722"/>
<polygon fill="midnightblue" stroke="midnightblue" points="257.088,-493.222 247.088,-496.722 257.088,-500.222 257.088,-493.222"/>
</g>
<!-- Node6 -->
<g id="node6" class="node"><title>Node6</title>
<g id="a_node6"><a xlink:href="../../da/def/classClanArena.html#a31ea19377d365d501be1b128675b148d" target="_top" xlink:title="ClanArena::m_configuremenu">
<polygon fill="none" stroke="black" points="460,-487.222 460,-506.222 619,-506.222 619,-487.222 460,-487.222"/>
<text text-anchor="middle" x="539.5" y="-494.222" font-family="Helvetica,sans-Serif" font-size="10.00">ClanArena::m_configuremenu</text>
</a>
</g>
</g>
<!-- Node5&#45;&gt;Node6 -->
<g id="edge5" class="edge"><title>Node5&#45;&gt;Node6</title>
<path fill="none" stroke="midnightblue" d="M419.557,-496.722C432.239,-496.722 446.127,-496.722 459.797,-496.722"/>
<polygon fill="midnightblue" stroke="midnightblue" points="419.219,-493.222 409.219,-496.722 419.219,-500.222 419.219,-493.222"/>
</g>
<!-- Node7 -->
<g id="node7" class="node"><title>Node7</title>
<g id="a_node7"><a xlink:href="../../d1/de2/classFreezeTag.html#a20843387ebc72129fa1ffefbb246eab6" target="_top" xlink:title="FreezeTag::m_configuremenu">
<polygon fill="none" stroke="black" points="461,-525.222 461,-544.222 618,-544.222 618,-525.222 461,-525.222"/>
<text text-anchor="middle" x="539.5" y="-532.222" font-family="Helvetica,sans-Serif" font-size="10.00">FreezeTag::m_configuremenu</text>
</a>
</g>
</g>
<!-- Node5&#45;&gt;Node7 -->
<g id="edge6" class="edge"><title>Node5&#45;&gt;Node7</title>
<path fill="none" stroke="midnightblue" d="M419.025,-508.015C443.444,-513.474 472.433,-519.954 495.741,-525.164"/>
<polygon fill="midnightblue" stroke="midnightblue" points="419.742,-504.589 409.219,-505.824 418.215,-511.421 419.742,-504.589"/>
</g>
<!-- Node9 -->
<g id="node9" class="node"><title>Node9</title>
<g id="a_node9"><a xlink:href="../../dc/d32/cl__domination_8qh.html#a9245f9b7b4151715d667f06cbaf831cd" target="_top" xlink:title="HUD_Mod_Dom">
<polygon fill="none" stroke="black" points="321,-449.222 321,-468.222 414,-468.222 414,-449.222 321,-449.222"/>
<text text-anchor="middle" x="367.5" y="-456.222" font-family="Helvetica,sans-Serif" font-size="10.00">HUD_Mod_Dom</text>
</a>
</g>
</g>
<!-- Node8&#45;&gt;Node9 -->
<g id="edge8" class="edge"><title>Node8&#45;&gt;Node9</title>
<path fill="none" stroke="midnightblue" d="M262.576,-458.722C281.455,-458.722 302.576,-458.722 320.821,-458.722"/>
<polygon fill="midnightblue" stroke="midnightblue" points="262.351,-455.222 252.351,-458.722 262.351,-462.222 262.351,-455.222"/>
</g>
<!-- Node10 -->
<g id="node10" class="node"><title>Node10</title>
<g id="a_node10"><a xlink:href="../../d2/d88/classDomination.html#ac6215c33ee743f1d3f89eade0ec98b5d" target="_top" xlink:title="Domination::m_configuremenu">
<polygon fill="none" stroke="black" points="457,-449.222 457,-468.222 622,-468.222 622,-449.222 457,-449.222"/>
<text text-anchor="middle" x="539.5" y="-456.222" font-family="Helvetica,sans-Serif" font-size="10.00">Domination::m_configuremenu</text>
</a>
</g>
</g>
<!-- Node9&#45;&gt;Node10 -->
<g id="edge9" class="edge"><title>Node9&#45;&gt;Node10</title>
<path fill="none" stroke="midnightblue" d="M424.219,-458.722C434.63,-458.722 445.71,-458.722 456.717,-458.722"/>
<polygon fill="midnightblue" stroke="midnightblue" points="424.057,-455.222 414.057,-458.722 424.057,-462.222 424.057,-455.222"/>
</g>
<!-- Node12 -->
<g id="node12" class="node"><title>Node12</title>
<g id="a_node12"><a xlink:href="../../d7/d15/hud_8qc.html#a7b6e84742c9baae35fde5975fb825116" target="_top" xlink:title="DrawNumIcon">
<polygon fill="none" stroke="black" points="326,-411.222 326,-430.222 409,-430.222 409,-411.222 326,-411.222"/>
<text text-anchor="middle" x="367.5" y="-418.222" font-family="Helvetica,sans-Serif" font-size="10.00">DrawNumIcon</text>
</a>
</g>
</g>
<!-- Node11&#45;&gt;Node12 -->
<g id="edge11" class="edge"><title>Node11&#45;&gt;Node12</title>
<path fill="none" stroke="midnightblue" d="M288.561,-420.722C301.525,-420.722 314.479,-420.722 325.997,-420.722"/>
<polygon fill="midnightblue" stroke="midnightblue" points="288.188,-417.222 278.188,-420.722 288.188,-424.222 288.188,-417.222"/>
</g>
<!-- Node14 -->
<g id="node14" class="node"><title>Node14</title>
<g id="a_node14"><a xlink:href="../../df/db0/powerups_8qc.html#af6eb40a51e45bc6e790aaee84dc7e486" target="_top" xlink:title="HUD_Powerups">
<polygon fill="none" stroke="black" points="494.5,-373.222 494.5,-392.222 584.5,-392.222 584.5,-373.222 494.5,-373.222"/>
<text text-anchor="middle" x="539.5" y="-380.222" font-family="Helvetica,sans-Serif" font-size="10.00">HUD_Powerups</text>
</a>
</g>
</g>
<!-- Node11&#45;&gt;Node14 -->
<g id="edge14" class="edge"><title>Node11&#45;&gt;Node14</title>
<path fill="none" stroke="midnightblue" d="M266.571,-409.365C281.913,-406.565 298.553,-403.781 314,-401.722 376.423,-393.398 449.124,-388.029 494.486,-385.19"/>
<polygon fill="midnightblue" stroke="midnightblue" points="265.893,-405.931 256.701,-411.201 267.172,-412.813 265.893,-405.931"/>
</g>
<!-- Node13 -->
<g id="node13" class="node"><title>Node13</title>
<g id="a_node13"><a xlink:href="../../de/d66/healtharmor_8qc.html#a160501021e3210ed1258c66ae9a881ba" target="_top" xlink:title="HUD_HealthArmor">
<polygon fill="none" stroke="black" points="486.5,-411.222 486.5,-430.222 592.5,-430.222 592.5,-411.222 486.5,-411.222"/>
<text text-anchor="middle" x="539.5" y="-418.222" font-family="Helvetica,sans-Serif" font-size="10.00">HUD_HealthArmor</text>
</a>
</g>
</g>
<!-- Node12&#45;&gt;Node13 -->
<g id="edge12" class="edge"><title>Node12&#45;&gt;Node13</title>
<path fill="none" stroke="midnightblue" d="M419.287,-420.722C440.409,-420.722 464.914,-420.722 486.193,-420.722"/>
<polygon fill="midnightblue" stroke="midnightblue" points="419.219,-417.222 409.219,-420.722 419.219,-424.222 419.219,-417.222"/>
</g>
<!-- Node12&#45;&gt;Node14 -->
<g id="edge13" class="edge"><title>Node12&#45;&gt;Node14</title>
<path fill="none" stroke="midnightblue" d="M419.025,-409.428C443.444,-403.969 472.433,-397.49 495.741,-392.28"/>
<polygon fill="midnightblue" stroke="midnightblue" points="418.215,-406.022 409.219,-411.62 419.742,-412.854 418.215,-406.022"/>
</g>
<!-- Node16 -->
<g id="node16" class="node"><title>Node16</title>
<g id="a_node16"><a xlink:href="../../d6/dd3/view_8qc.html#a7b9e2c12c6a461c93afb197bd1a93c8f" target="_top" xlink:title="CSQC_UpdateView">
<polygon fill="none" stroke="black" points="314,-335.222 314,-354.222 421,-354.222 421,-335.222 314,-335.222"/>
<text text-anchor="middle" x="367.5" y="-342.222" font-family="Helvetica,sans-Serif" font-size="10.00">CSQC_UpdateView</text>
</a>
</g>
</g>
<!-- Node15&#45;&gt;Node16 -->
<g id="edge16" class="edge"><title>Node15&#45;&gt;Node16</title>
<path fill="none" stroke="midnightblue" d="M253.11,-372.254C276.306,-366.622 304.701,-359.727 327.274,-354.246"/>
<polygon fill="midnightblue" stroke="midnightblue" points="252.081,-368.902 243.19,-374.663 253.733,-375.704 252.081,-368.902"/>
</g>
<!-- Node19 -->
<g id="node19" class="node"><title>Node19</title>
<g id="a_node19"><a xlink:href="../../dd/dd0/classRace.html#ac59eca6da13b78d41f427e6a080c88db" target="_top" xlink:title="Race::m_configuremenu">
<polygon fill="none" stroke="black" points="473,-69.2216 473,-88.2216 606,-88.2216 606,-69.2216 473,-69.2216"/>
<text text-anchor="middle" x="539.5" y="-76.2216" font-family="Helvetica,sans-Serif" font-size="10.00">Race::m_configuremenu</text>
</a>
</g>
</g>
<!-- Node18&#45;&gt;Node19 -->
<g id="edge19" class="edge"><title>Node18&#45;&gt;Node19</title>
<path fill="none" stroke="midnightblue" d="M424.027,-91.5157C439.567,-89.7789 456.606,-87.8744 472.68,-86.0779"/>
<polygon fill="midnightblue" stroke="midnightblue" points="423.606,-88.0408 414.057,-92.63 424.384,-94.9975 423.606,-88.0408"/>
</g>
<!-- Node20 -->
<g id="node20" class="node"><title>Node20</title>
<g id="a_node20"><a xlink:href="../../d6/d96/classRaceCTS.html#a2f8d100643a74d4dc5bf5f95536c544a" target="_top" xlink:title="RaceCTS::m_configuremenu">
<polygon fill="none" stroke="black" points="463.5,-107.222 463.5,-126.222 615.5,-126.222 615.5,-107.222 463.5,-107.222"/>
<text text-anchor="middle" x="539.5" y="-114.222" font-family="Helvetica,sans-Serif" font-size="10.00">RaceCTS::m_configuremenu</text>
</a>
</g>
</g>
<!-- Node18&#45;&gt;Node20 -->
<g id="edge20" class="edge"><title>Node18&#45;&gt;Node20</title>
<path fill="none" stroke="midnightblue" d="M424.277,-103.956C436.744,-105.349 450.166,-106.849 463.274,-108.314"/>
<polygon fill="midnightblue" stroke="midnightblue" points="424.384,-100.446 414.057,-102.813 423.606,-107.402 424.384,-100.446"/>
</g>
<!-- Node23&#45;&gt;Node22 -->
<g id="edge24" class="edge"><title>Node23&#45;&gt;Node22</title>
<path fill="none" stroke="midnightblue" d="M259.237,-294.766C282.622,-289.088 310.034,-282.432 331.293,-277.27"/>
<polygon fill="midnightblue" stroke="midnightblue" points="258.383,-291.372 249.492,-297.133 260.035,-298.174 258.383,-291.372"/>
</g>
<!-- Node28&#45;&gt;Node18 -->
<g id="edge30" class="edge"><title>Node28&#45;&gt;Node18</title>
<path fill="none" stroke="midnightblue" d="M263.792,-180.101C268.71,-178.234 273.521,-176.117 278,-173.722 311.398,-155.864 343.226,-123.543 357.957,-107.417"/>
<polygon fill="midnightblue" stroke="midnightblue" points="262.574,-176.819 254.263,-183.39 264.858,-183.436 262.574,-176.819"/>
</g>
</g>
</svg>
