<?xml version="1.0" encoding="UTF-8" standalone="no"?>
<!DOCTYPE svg PUBLIC "-//W3C//DTD SVG 1.1//EN"
 "http://www.w3.org/Graphics/SVG/1.1/DTD/svg11.dtd">
<!-- Generated by graphviz version 2.36.0 (20140111.2315)
 -->
<!-- Title: lib/csqcmodel/common.qh Pages: 1 -->
<!--zoomable 388 -->
<svg id="main" version="1.1" xmlns="http://www.w3.org/2000/svg" xmlns:xlink="http://www.w3.org/1999/xlink" xml:space="preserve" onload="init(evt)">
<style type="text/css"><![CDATA[
.edge:hover path { stroke: red; }
.edge:hover polygon { stroke: red; fill: red; }
]]></style>
<script type="text/javascript"><![CDATA[
var edges = document.getElementsByTagName('g');
if (edges && edges.length) {
  for (var i=0;i<edges.length;i++) {
    if (edges[i].id.substr(0,4)=='edge') {
      edges[i].setAttribute('class','edge');
    }
  }
}
]]></script>
        <defs>
                <circle id="rim" cx="0" cy="0" r="7"/>
                <circle id="rim2" cx="0" cy="0" r="3.5"/>
                <g id="zoomPlus">
                        <use xlink:href="#rim" fill="#404040">
                                <set attributeName="fill" to="#808080" begin="zoomplus.mouseover" end="zoomplus.mouseout"/>
                        </use>
                        <path d="M-4,0h8M0,-4v8" fill="none" stroke="white" stroke-width="1.5" pointer-events="none"/>
                </g>
                <g id="zoomMin">
                        <use xlink:href="#rim" fill="#404040">
                                <set attributeName="fill" to="#808080" begin="zoomminus.mouseover" end="zoomminus.mouseout"/>
                        </use>
                        <path d="M-4,0h8" fill="none" stroke="white" stroke-width="1.5" pointer-events="none"/>
                </g>
                <g id="dirArrow">
                        <path fill="none" stroke="white" stroke-width="1.5" d="M0,-3.0v7 M-2.5,-0.5L0,-3.0L2.5,-0.5"/>
                </g>
               <g id="resetDef">
                       <use xlink:href="#rim2" fill="#404040">
                               <set attributeName="fill" to="#808080" begin="reset.mouseover" end="reset.mouseout"/>
                       </use>
               </g>
        </defs>

<script type="text/javascript">
var viewWidth = 1665;
var viewHeight = 388;
var sectionId = 'dynsection-1';
</script>
<script xlink:href="../../svgpan.js"/>
<svg id="graph" class="graph">
<g id="viewport">
<title>lib/csqcmodel/common.qh</title>
<!-- Node1 -->
<g id="node1" class="node"><title>Node1</title>
<polygon fill="#bfbfbf" stroke="black" points="649.775,-360.5 649.775,-379.5 780.775,-379.5 780.775,-360.5 649.775,-360.5"/>
<text text-anchor="middle" x="715.275" y="-367.5" font-family="Helvetica,sans-Serif" font-size="10.00">lib/csqcmodel/common.qh</text>
</g>
<!-- Node2 -->
<g id="node2" class="node"><title>Node2</title>
<g id="a_node2"><a xlink:href="../../df/d05/cl__model_8qh.html" target="_top" xlink:title="lib/csqcmodel/cl_model.qh">
<polygon fill="none" stroke="black" points="368.275,-304.5 368.275,-323.5 500.275,-323.5 500.275,-304.5 368.275,-304.5"/>
<text text-anchor="middle" x="434.275" y="-311.5" font-family="Helvetica,sans-Serif" font-size="10.00">lib/csqcmodel/cl_model.qh</text>
</a>
</g>
</g>
<!-- Node1&#45;&gt;Node2 -->
<g id="edge1" class="edge"><title>Node1&#45;&gt;Node2</title>
<path fill="none" stroke="midnightblue" d="M660.83,-358.537C607.723,-348.332 527.938,-332.999 478.592,-323.516"/>
<polygon fill="midnightblue" stroke="midnightblue" points="660.269,-361.993 670.75,-360.444 661.59,-355.119 660.269,-361.993"/>
</g>
<!-- Node12 -->
<g id="node12" class="node"><title>Node12</title>
<g id="a_node12"><a xlink:href="../../d5/dc9/cl__model_8qc.html" target="_top" xlink:title="lib/csqcmodel/cl_model.qc">
<polygon fill="none" stroke="black" points="649.275,-242.5 649.275,-261.5 781.275,-261.5 781.275,-242.5 649.275,-242.5"/>
<text text-anchor="middle" x="715.275" y="-249.5" font-family="Helvetica,sans-Serif" font-size="10.00">lib/csqcmodel/cl_model.qc</text>
</a>
</g>
</g>
<!-- Node1&#45;&gt;Node12 -->
<g id="edge20" class="edge"><title>Node1&#45;&gt;Node12</title>
<path fill="none" stroke="midnightblue" d="M715.275,-350.025C715.275,-324.464 715.275,-280.041 715.275,-261.505"/>
<polygon fill="midnightblue" stroke="midnightblue" points="711.775,-350.281 715.275,-360.281 718.775,-350.281 711.775,-350.281"/>
</g>
<!-- Node13 -->
<g id="node13" class="node"><title>Node13</title>
<g id="a_node13"><a xlink:href="../../d7/da2/cl__player_8qc.html" target="_top" xlink:title="lib/csqcmodel/cl_player.qc">
<polygon fill="none" stroke="black" points="88.2753,-242.5 88.2753,-261.5 220.275,-261.5 220.275,-242.5 88.2753,-242.5"/>
<text text-anchor="middle" x="154.275" y="-249.5" font-family="Helvetica,sans-Serif" font-size="10.00">lib/csqcmodel/cl_player.qc</text>
</a>
</g>
</g>
<!-- Node1&#45;&gt;Node13 -->
<g id="edge21" class="edge"><title>Node1&#45;&gt;Node13</title>
<path fill="none" stroke="midnightblue" d="M639.616,-364.014C566.993,-358.156 454.583,-346.273 359.275,-324 289.774,-307.758 210.838,-276.657 174.518,-261.596"/>
<polygon fill="midnightblue" stroke="midnightblue" points="639.349,-367.504 649.593,-364.801 639.899,-360.525 639.349,-367.504"/>
</g>
<!-- Node14 -->
<g id="node14" class="node"><title>Node14</title>
<g id="a_node14"><a xlink:href="../../d3/d64/sv__model_8qh.html" target="_top" xlink:title="lib/csqcmodel/sv_model.qh">
<polygon fill="none" stroke="black" points="1122.78,-304.5 1122.78,-323.5 1257.78,-323.5 1257.78,-304.5 1122.78,-304.5"/>
<text text-anchor="middle" x="1190.28" y="-311.5" font-family="Helvetica,sans-Serif" font-size="10.00">lib/csqcmodel/sv_model.qh</text>
</a>
</g>
</g>
<!-- Node1&#45;&gt;Node14 -->
<g id="edge22" class="edge"><title>Node1&#45;&gt;Node14</title>
<path fill="none" stroke="midnightblue" d="M790.847,-360.409C882.327,-350.009 1035,-332.653 1122.72,-322.68"/>
<polygon fill="midnightblue" stroke="midnightblue" points="790.364,-356.941 780.823,-361.548 791.155,-363.896 790.364,-356.941"/>
</g>
<!-- Node16 -->
<g id="node16" class="node"><title>Node16</title>
<g id="a_node16"><a xlink:href="../../dd/dd5/sv__model_8qc.html" target="_top" xlink:title="lib/csqcmodel/sv_model.qc">
<polygon fill="none" stroke="black" points="1521.78,-242.5 1521.78,-261.5 1656.78,-261.5 1656.78,-242.5 1521.78,-242.5"/>
<text text-anchor="middle" x="1589.28" y="-249.5" font-family="Helvetica,sans-Serif" font-size="10.00">lib/csqcmodel/sv_model.qc</text>
</a>
</g>
</g>
<!-- Node1&#45;&gt;Node16 -->
<g id="edge45" class="edge"><title>Node1&#45;&gt;Node16</title>
<path fill="none" stroke="midnightblue" d="M790.928,-366.054C897.463,-361.172 1097.55,-349.316 1266.28,-324 1373.87,-307.856 1499.16,-276.708 1556.99,-261.616"/>
<polygon fill="midnightblue" stroke="midnightblue" points="790.747,-362.558 780.914,-366.505 791.062,-369.551 790.747,-362.558"/>
</g>
<!-- Node3 -->
<g id="node3" class="node"><title>Node3</title>
<g id="a_node3"><a xlink:href="../../dc/d3d/csqcmodel__hooks_8qc.html" target="_top" xlink:title="client/csqcmodel_hooks.qc">
<polygon fill="none" stroke="black" points="230.775,-174.5 230.775,-193.5 365.775,-193.5 365.775,-174.5 230.775,-174.5"/>
<text text-anchor="middle" x="298.275" y="-181.5" font-family="Helvetica,sans-Serif" font-size="10.00">client/csqcmodel_hooks.qc</text>
</a>
</g>
</g>
<!-- Node2&#45;&gt;Node3 -->
<g id="edge2" class="edge"><title>Node2&#45;&gt;Node3</title>
<path fill="none" stroke="midnightblue" d="M423.602,-295.464C412.965,-278.895 395.482,-253.97 376.275,-236 357.254,-218.203 331.307,-202.62 314.669,-193.505"/>
<polygon fill="midnightblue" stroke="midnightblue" points="420.761,-297.521 429.036,-304.138 426.693,-293.805 420.761,-297.521"/>
</g>
<!-- Node6 -->
<g id="node6" class="node"><title>Node6</title>
<g id="a_node6"><a xlink:href="../../df/d30/client_2main_8qc.html" target="_top" xlink:title="client/main.qc">
<polygon fill="none" stroke="black" points="383.775,-174.5 383.775,-193.5 460.775,-193.5 460.775,-174.5 383.775,-174.5"/>
<text text-anchor="middle" x="422.275" y="-181.5" font-family="Helvetica,sans-Serif" font-size="10.00">client/main.qc</text>
</a>
</g>
</g>
<!-- Node2&#45;&gt;Node6 -->
<g id="edge5" class="edge"><title>Node2&#45;&gt;Node6</title>
<path fill="none" stroke="midnightblue" d="M432.497,-294.029C429.851,-265.803 424.984,-213.892 423.074,-193.522"/>
<polygon fill="midnightblue" stroke="midnightblue" points="429.032,-294.572 433.451,-304.202 436.002,-293.919 429.032,-294.572"/>
</g>
<!-- Node7 -->
<g id="node7" class="node"><title>Node7</title>
<g id="a_node7"><a xlink:href="../../dc/d98/client_2miscfunctions_8qc.html" target="_top" xlink:title="client/miscfunctions.qc">
<polygon fill="none" stroke="black" points="478.775,-174.5 478.775,-193.5 595.775,-193.5 595.775,-174.5 478.775,-174.5"/>
<text text-anchor="middle" x="537.275" y="-181.5" font-family="Helvetica,sans-Serif" font-size="10.00">client/miscfunctions.qc</text>
</a>
</g>
</g>
<!-- Node2&#45;&gt;Node7 -->
<g id="edge7" class="edge"><title>Node2&#45;&gt;Node7</title>
<path fill="none" stroke="midnightblue" d="M447.766,-296.235C470.009,-268.594 513.589,-214.436 530.417,-193.522"/>
<polygon fill="midnightblue" stroke="midnightblue" points="444.897,-294.217 441.355,-304.202 450.351,-298.605 444.897,-294.217"/>
</g>
<!-- Node8 -->
<g id="node8" class="node"><title>Node8</title>
<g id="a_node8"><a xlink:href="../../d7/d39/shownames_8qc.html" target="_top" xlink:title="client/shownames.qc">
<polygon fill="none" stroke="black" points="613.775,-174.5 613.775,-193.5 722.775,-193.5 722.775,-174.5 613.775,-174.5"/>
<text text-anchor="middle" x="668.275" y="-181.5" font-family="Helvetica,sans-Serif" font-size="10.00">client/shownames.qc</text>
</a>
</g>
</g>
<!-- Node2&#45;&gt;Node8 -->
<g id="edge9" class="edge"><title>Node2&#45;&gt;Node8</title>
<path fill="none" stroke="midnightblue" d="M458.825,-299.571C507.01,-273.213 612.738,-215.379 652.627,-193.56"/>
<polygon fill="midnightblue" stroke="midnightblue" points="457.086,-296.533 449.992,-304.403 460.445,-302.674 457.086,-296.533"/>
</g>
<!-- Node9 -->
<g id="node9" class="node"><title>Node9</title>
<g id="a_node9"><a xlink:href="../../d6/dd3/view_8qc.html" target="_top" xlink:title="client/view.qc">
<polygon fill="none" stroke="black" points="16.7753,-174.5 16.7753,-193.5 93.7753,-193.5 93.7753,-174.5 16.7753,-174.5"/>
<text text-anchor="middle" x="55.2753" y="-181.5" font-family="Helvetica,sans-Serif" font-size="10.00">client/view.qc</text>
</a>
</g>
</g>
<!-- Node2&#45;&gt;Node9 -->
<g id="edge11" class="edge"><title>Node2&#45;&gt;Node9</title>
<path fill="none" stroke="midnightblue" d="M369.28,-302.369C337.327,-295.457 298.973,-284.565 267.275,-268 247.707,-257.774 248.777,-246.353 229.275,-236 177.457,-208.49 158.451,-216.921 102.275,-200 95.5503,-197.974 88.3113,-195.707 81.5776,-193.561"/>
<polygon fill="midnightblue" stroke="midnightblue" points="368.91,-305.867 379.414,-304.475 370.335,-299.013 368.91,-305.867"/>
</g>
<!-- Node10 -->
<g id="node10" class="node"><title>Node10</title>
<g id="a_node10"><a xlink:href="../../d7/d15/hud_8qc.html" target="_top" xlink:title="client/hud/hud.qc">
<polygon fill="none" stroke="black" points="276.775,-242.5 276.775,-261.5 367.775,-261.5 367.775,-242.5 276.775,-242.5"/>
<text text-anchor="middle" x="322.275" y="-249.5" font-family="Helvetica,sans-Serif" font-size="10.00">client/hud/hud.qc</text>
</a>
</g>
</g>
<!-- Node2&#45;&gt;Node10 -->
<g id="edge13" class="edge"><title>Node2&#45;&gt;Node10</title>
<path fill="none" stroke="midnightblue" d="M409.262,-299.6C387.571,-287.98 356.826,-271.509 338.292,-261.581"/>
<polygon fill="midnightblue" stroke="midnightblue" points="407.761,-302.766 418.228,-304.403 411.066,-296.596 407.761,-302.766"/>
</g>
<!-- Node2&#45;&gt;Node12 -->
<g id="edge16" class="edge"><title>Node2&#45;&gt;Node12</title>
<path fill="none" stroke="midnightblue" d="M484.043,-302.373C538.636,-290.717 625.164,-272.241 675.451,-261.503"/>
<polygon fill="midnightblue" stroke="midnightblue" points="483.286,-298.956 474.237,-304.467 484.748,-305.802 483.286,-298.956"/>
</g>
<!-- Node2&#45;&gt;Node13 -->
<g id="edge18" class="edge"><title>Node2&#45;&gt;Node13</title>
<path fill="none" stroke="midnightblue" d="M384.345,-302.301C329.928,-290.64 243.962,-272.219 193.958,-261.503"/>
<polygon fill="midnightblue" stroke="midnightblue" points="383.944,-305.794 394.456,-304.467 385.411,-298.95 383.944,-305.794"/>
</g>
<!-- Node4 -->
<g id="node4" class="node"><title>Node4</title>
<g id="a_node4"><a xlink:href="../../de/dbe/client_2__mod_8inc.html" target="_top" xlink:title="client/_mod.inc">
<polygon fill="none" stroke="black" points="318.775,-112.5 318.775,-131.5 401.775,-131.5 401.775,-112.5 318.775,-112.5"/>
<text text-anchor="middle" x="360.275" y="-119.5" font-family="Helvetica,sans-Serif" font-size="10.00">client/_mod.inc</text>
</a>
</g>
</g>
<!-- Node3&#45;&gt;Node4 -->
<g id="edge3" class="edge"><title>Node3&#45;&gt;Node4</title>
<path fill="none" stroke="midnightblue" d="M314.609,-167.193C326.389,-155.793 341.839,-140.841 351.409,-131.581"/>
<polygon fill="midnightblue" stroke="midnightblue" points="311.91,-164.934 307.158,-174.403 316.778,-169.964 311.91,-164.934"/>
</g>
<!-- Node5 -->
<g id="node5" class="node"><title>Node5</title>
<g id="a_node5"><a xlink:href="../../d3/dfc/client_2progs_8inc.html" target="_top" xlink:title="client/progs.inc">
<polygon fill="none" stroke="black" points="318.775,-56.5 318.775,-75.5 401.775,-75.5 401.775,-56.5 318.775,-56.5"/>
<text text-anchor="middle" x="360.275" y="-63.5" font-family="Helvetica,sans-Serif" font-size="10.00">client/progs.inc</text>
</a>
</g>
</g>
<!-- Node4&#45;&gt;Node5 -->
<g id="edge4" class="edge"><title>Node4&#45;&gt;Node5</title>
<path fill="none" stroke="midnightblue" d="M360.275,-101.805C360.275,-92.9102 360.275,-82.7798 360.275,-75.7511"/>
<polygon fill="midnightblue" stroke="midnightblue" points="356.775,-102.083 360.275,-112.083 363.775,-102.083 356.775,-102.083"/>
</g>
<!-- Node6&#45;&gt;Node4 -->
<g id="edge6" class="edge"><title>Node6&#45;&gt;Node4</title>
<path fill="none" stroke="midnightblue" d="M405.941,-167.193C394.162,-155.793 378.711,-140.841 369.142,-131.581"/>
<polygon fill="midnightblue" stroke="midnightblue" points="403.772,-169.964 413.392,-174.403 408.64,-164.934 403.772,-169.964"/>
</g>
<!-- Node7&#45;&gt;Node4 -->
<g id="edge8" class="edge"><title>Node7&#45;&gt;Node4</title>
<path fill="none" stroke="midnightblue" d="M502.268,-171.133C467.862,-159.47 416.191,-141.955 385.588,-131.581"/>
<polygon fill="midnightblue" stroke="midnightblue" points="501.321,-174.508 511.916,-174.403 503.569,-167.878 501.321,-174.508"/>
</g>
<!-- Node8&#45;&gt;Node4 -->
<g id="edge10" class="edge"><title>Node8&#45;&gt;Node4</title>
<path fill="none" stroke="midnightblue" d="M623.274,-172.167C616.906,-170.718 610.433,-169.289 604.275,-168 533.443,-153.177 450.496,-138.429 401.84,-130.042"/>
<polygon fill="midnightblue" stroke="midnightblue" points="622.601,-175.604 633.132,-174.444 624.176,-168.784 622.601,-175.604"/>
</g>
<!-- Node9&#45;&gt;Node4 -->
<g id="edge12" class="edge"><title>Node9&#45;&gt;Node4</title>
<path fill="none" stroke="midnightblue" d="M89.6459,-171.439C93.8755,-170.192 98.1579,-169.011 102.275,-168 177.561,-149.512 267.007,-135.69 318.356,-128.519"/>
<polygon fill="midnightblue" stroke="midnightblue" points="88.4999,-168.13 79.9751,-174.421 90.5625,-174.819 88.4999,-168.13"/>
</g>
<!-- Node11 -->
<g id="node11" class="node"><title>Node11</title>
<g id="a_node11"><a xlink:href="../../db/dab/client_2hud_2__mod_8inc.html" target="_top" xlink:title="client/hud/_mod.inc">
<polygon fill="none" stroke="black" points="111.775,-174.5 111.775,-193.5 212.775,-193.5 212.775,-174.5 111.775,-174.5"/>
<text text-anchor="middle" x="162.275" y="-181.5" font-family="Helvetica,sans-Serif" font-size="10.00">client/hud/_mod.inc</text>
</a>
</g>
</g>
<!-- Node10&#45;&gt;Node11 -->
<g id="edge14" class="edge"><title>Node10&#45;&gt;Node11</title>
<path fill="none" stroke="midnightblue" d="M292.06,-238.536C260.143,-225.371 210.681,-204.967 182.944,-193.526"/>
<polygon fill="midnightblue" stroke="midnightblue" points="290.779,-241.794 301.358,-242.372 293.448,-235.323 290.779,-241.794"/>
</g>
<!-- Node11&#45;&gt;Node4 -->
<g id="edge15" class="edge"><title>Node11&#45;&gt;Node4</title>
<path fill="none" stroke="midnightblue" d="M200.449,-171.432C238.931,-159.771 297.432,-142.044 331.959,-131.581"/>
<polygon fill="midnightblue" stroke="midnightblue" points="199.199,-168.154 190.644,-174.403 201.229,-174.853 199.199,-168.154"/>
</g>
<!-- Node12&#45;&gt;Node5 -->
<g id="edge17" class="edge"><title>Node12&#45;&gt;Node5</title>
<path fill="none" stroke="midnightblue" d="M726.001,-233.287C735.469,-215.11 745.71,-186.89 731.275,-168 691.048,-115.357 490.148,-83.6276 401.929,-72.0298"/>
<polygon fill="midnightblue" stroke="midnightblue" points="722.825,-231.795 720.983,-242.229 728.929,-235.221 722.825,-231.795"/>
</g>
<!-- Node13&#45;&gt;Node5 -->
<g id="edge19" class="edge"><title>Node13&#45;&gt;Node5</title>
<path fill="none" stroke="midnightblue" d="M94.6421,-240.254C42.5357,-228.147 -20.7387,-205.154 7.27534,-168 45.0765,-117.866 233.738,-85.0815 318.692,-72.6326"/>
<polygon fill="midnightblue" stroke="midnightblue" points="94.0285,-243.703 104.55,-242.46 95.5498,-236.87 94.0285,-243.703"/>
</g>
<!-- Node15 -->
<g id="node15" class="node"><title>Node15</title>
<g id="a_node15"><a xlink:href="../../da/d4e/sv__monsters_8qc.html" target="_top" xlink:title="common/monsters/sv\l_monsters.qc">
<polygon fill="none" stroke="black" points="844.775,-237 844.775,-267 955.775,-267 955.775,-237 844.775,-237"/>
<text text-anchor="start" x="852.775" y="-255" font-family="Helvetica,sans-Serif" font-size="10.00">common/monsters/sv</text>
<text text-anchor="middle" x="900.275" y="-244" font-family="Helvetica,sans-Serif" font-size="10.00">_monsters.qc</text>
</a>
</g>
</g>
<!-- Node14&#45;&gt;Node15 -->
<g id="edge23" class="edge"><title>Node14&#45;&gt;Node15</title>
<path fill="none" stroke="midnightblue" d="M1138.06,-302.461C1093.46,-293.428 1027.62,-280.009 970.275,-268 965.653,-267.032 960.86,-266.021 956.05,-265.001"/>
<polygon fill="midnightblue" stroke="midnightblue" points="1137.58,-305.936 1148.08,-304.49 1138.97,-299.075 1137.58,-305.936"/>
</g>
<!-- Node14&#45;&gt;Node16 -->
<g id="edge24" class="edge"><title>Node14&#45;&gt;Node16</title>
<path fill="none" stroke="midnightblue" d="M1268.19,-303.299C1333.51,-294.882 1429.17,-281.891 1512.28,-268 1523.83,-266.069 1536.31,-263.743 1547.79,-261.504"/>
<polygon fill="midnightblue" stroke="midnightblue" points="1267.44,-299.866 1257.97,-304.611 1268.33,-306.809 1267.44,-299.866"/>
</g>
<!-- Node18 -->
<g id="node18" class="node"><title>Node18</title>
<g id="a_node18"><a xlink:href="../../d6/de9/cheats_8qc.html" target="_top" xlink:title="server/cheats.qc">
<polygon fill="none" stroke="black" points="1258.78,-112.5 1258.78,-131.5 1347.78,-131.5 1347.78,-112.5 1258.78,-112.5"/>
<text text-anchor="middle" x="1303.28" y="-119.5" font-family="Helvetica,sans-Serif" font-size="10.00">server/cheats.qc</text>
</a>
</g>
</g>
<!-- Node14&#45;&gt;Node18 -->
<g id="edge26" class="edge"><title>Node14&#45;&gt;Node18</title>
<path fill="none" stroke="midnightblue" d="M1207.01,-297.038C1227.63,-276.472 1262.37,-238.733 1282.28,-200 1294.18,-176.831 1299.93,-146.165 1302.14,-131.508"/>
<polygon fill="midnightblue" stroke="midnightblue" points="1204.31,-294.786 1199.62,-304.283 1209.21,-299.787 1204.31,-294.786"/>
</g>
<!-- Node20 -->
<g id="node20" class="node"><title>Node20</title>
<g id="a_node20"><a xlink:href="../../d5/dac/g__damage_8qc.html" target="_top" xlink:title="server/g_damage.qc">
<polygon fill="none" stroke="black" points="1365.78,-112.5 1365.78,-131.5 1470.78,-131.5 1470.78,-112.5 1365.78,-112.5"/>
<text text-anchor="middle" x="1418.28" y="-119.5" font-family="Helvetica,sans-Serif" font-size="10.00">server/g_damage.qc</text>
</a>
</g>
</g>
<!-- Node14&#45;&gt;Node20 -->
<g id="edge29" class="edge"><title>Node14&#45;&gt;Node20</title>
<path fill="none" stroke="midnightblue" d="M1214.89,-299.409C1229.23,-291.062 1247.36,-279.745 1262.28,-268 1312.15,-228.723 1317.18,-210.578 1364.28,-168 1378.76,-154.905 1396.23,-140.6 1407.3,-131.714"/>
<polygon fill="midnightblue" stroke="midnightblue" points="1213.04,-296.438 1206.09,-304.439 1216.51,-302.515 1213.04,-296.438"/>
</g>
<!-- Node21 -->
<g id="node21" class="node"><title>Node21</title>
<g id="a_node21"><a xlink:href="../../dc/dc6/server_2miscfunctions_8qc.html" target="_top" xlink:title="server/miscfunctions.qc">
<polygon fill="none" stroke="black" points="1488.78,-112.5 1488.78,-131.5 1609.78,-131.5 1609.78,-112.5 1488.78,-112.5"/>
<text text-anchor="middle" x="1549.28" y="-119.5" font-family="Helvetica,sans-Serif" font-size="10.00">server/miscfunctions.qc</text>
</a>
</g>
</g>
<!-- Node14&#45;&gt;Node21 -->
<g id="edge31" class="edge"><title>Node14&#45;&gt;Node21</title>
<path fill="none" stroke="midnightblue" d="M1221.44,-300.554C1242.31,-291.967 1270.26,-279.978 1294.28,-268 1388.84,-220.83 1497.64,-154.864 1535.47,-131.562"/>
<polygon fill="midnightblue" stroke="midnightblue" points="1220.04,-297.347 1212.1,-304.365 1222.68,-303.829 1220.04,-297.347"/>
</g>
<!-- Node22 -->
<g id="node22" class="node"><title>Node22</title>
<g id="a_node22"><a xlink:href="../../db/d9b/server_2player_8qc.html" target="_top" xlink:title="server/player.qc">
<polygon fill="none" stroke="black" points="779.275,-112.5 779.275,-131.5 865.275,-131.5 865.275,-112.5 779.275,-112.5"/>
<text text-anchor="middle" x="822.275" y="-119.5" font-family="Helvetica,sans-Serif" font-size="10.00">server/player.qc</text>
</a>
</g>
</g>
<!-- Node14&#45;&gt;Node22 -->
<g id="edge33" class="edge"><title>Node14&#45;&gt;Node22</title>
<path fill="none" stroke="midnightblue" d="M1112.31,-308.247C1013.64,-301.458 854.171,-287.601 835.275,-268 798.439,-229.787 813.289,-156.695 819.816,-131.661"/>
<polygon fill="midnightblue" stroke="midnightblue" points="1112.34,-311.757 1122.55,-308.941 1112.81,-304.773 1112.34,-311.757"/>
</g>
<!-- Node23 -->
<g id="node23" class="node"><title>Node23</title>
<g id="a_node23"><a xlink:href="../../de/de8/portals_8qc.html" target="_top" xlink:title="server/portals.qc">
<polygon fill="none" stroke="black" points="883.775,-112.5 883.775,-131.5 972.775,-131.5 972.775,-112.5 883.775,-112.5"/>
<text text-anchor="middle" x="928.275" y="-119.5" font-family="Helvetica,sans-Serif" font-size="10.00">server/portals.qc</text>
</a>
</g>
</g>
<!-- Node14&#45;&gt;Node23 -->
<g id="edge35" class="edge"><title>Node14&#45;&gt;Node23</title>
<path fill="none" stroke="midnightblue" d="M1117.73,-302.165C1090.14,-295.528 1059.53,-284.913 1035.28,-268 981.38,-230.427 943.905,-156.925 932.178,-131.723"/>
<polygon fill="midnightblue" stroke="midnightblue" points="1117.21,-305.637 1127.74,-304.434 1118.76,-298.81 1117.21,-305.637"/>
</g>
<!-- Node24 -->
<g id="node24" class="node"><title>Node24</title>
<g id="a_node24"><a xlink:href="../../d2/dc0/bot_8qc.html" target="_top" xlink:title="server/bot/default\l/bot.qc">
<polygon fill="none" stroke="black" points="1044.28,-237 1044.28,-267 1136.28,-267 1136.28,-237 1044.28,-237"/>
<text text-anchor="start" x="1052.28" y="-255" font-family="Helvetica,sans-Serif" font-size="10.00">server/bot/default</text>
<text text-anchor="middle" x="1090.28" y="-244" font-family="Helvetica,sans-Serif" font-size="10.00">/bot.qc</text>
</a>
</g>
</g>
<!-- Node14&#45;&gt;Node24 -->
<g id="edge37" class="edge"><title>Node14&#45;&gt;Node24</title>
<path fill="none" stroke="midnightblue" d="M1167.21,-299.161C1151.21,-289.559 1129.96,-276.808 1113.84,-267.141"/>
<polygon fill="midnightblue" stroke="midnightblue" points="1165.57,-302.26 1175.95,-304.403 1169.17,-296.257 1165.57,-302.26"/>
</g>
<!-- Node27 -->
<g id="node27" class="node"><title>Node27</title>
<g id="a_node27"><a xlink:href="../../d5/de0/weaponsystem_8qc.html" target="_top" xlink:title="server/weapons/weaponsystem.qc">
<polygon fill="none" stroke="black" points="1106.28,-174.5 1106.28,-193.5 1274.28,-193.5 1274.28,-174.5 1106.28,-174.5"/>
<text text-anchor="middle" x="1190.28" y="-181.5" font-family="Helvetica,sans-Serif" font-size="10.00">server/weapons/weaponsystem.qc</text>
</a>
</g>
</g>
<!-- Node14&#45;&gt;Node27 -->
<g id="edge41" class="edge"><title>Node14&#45;&gt;Node27</title>
<path fill="none" stroke="midnightblue" d="M1190.28,-294.029C1190.28,-265.803 1190.28,-213.892 1190.28,-193.522"/>
<polygon fill="midnightblue" stroke="midnightblue" points="1186.78,-294.202 1190.28,-304.202 1193.78,-294.202 1186.78,-294.202"/>
</g>
<!-- Node29 -->
<g id="node29" class="node"><title>Node29</title>
<g id="a_node29"><a xlink:href="../../d3/d4f/sv__main_8qc.html" target="_top" xlink:title="server/sv_main.qc">
<polygon fill="none" stroke="black" points="1406.78,-242.5 1406.78,-261.5 1503.78,-261.5 1503.78,-242.5 1406.78,-242.5"/>
<text text-anchor="middle" x="1455.28" y="-249.5" font-family="Helvetica,sans-Serif" font-size="10.00">server/sv_main.qc</text>
</a>
</g>
</g>
<!-- Node14&#45;&gt;Node29 -->
<g id="edge44" class="edge"><title>Node14&#45;&gt;Node29</title>
<path fill="none" stroke="midnightblue" d="M1239.4,-302.266C1280.33,-293.272 1340.15,-280.011 1392.28,-268 1401.15,-265.955 1410.72,-263.703 1419.65,-261.579"/>
<polygon fill="midnightblue" stroke="midnightblue" points="1238.43,-298.895 1229.42,-304.457 1239.93,-305.732 1238.43,-298.895"/>
</g>
<!-- Node17 -->
<g id="node17" class="node"><title>Node17</title>
<g id="a_node17"><a xlink:href="../../dd/d96/server_2progs_8inc.html" target="_top" xlink:title="server/progs.inc">
<polygon fill="none" stroke="black" points="1427.28,-0.5 1427.28,-19.5 1513.28,-19.5 1513.28,-0.5 1427.28,-0.5"/>
<text text-anchor="middle" x="1470.28" y="-7.5" font-family="Helvetica,sans-Serif" font-size="10.00">server/progs.inc</text>
</a>
</g>
</g>
<!-- Node16&#45;&gt;Node17 -->
<g id="edge25" class="edge"><title>Node16&#45;&gt;Node17</title>
<path fill="none" stroke="midnightblue" d="M1600.03,-233.479C1615.35,-206.055 1639.4,-151.991 1618.28,-112 1592.27,-62.7647 1530.27,-33.0023 1495.33,-19.5526"/>
<polygon fill="midnightblue" stroke="midnightblue" points="1596.9,-231.902 1594.88,-242.303 1602.94,-235.431 1596.9,-231.902"/>
</g>
<!-- Node19 -->
<g id="node19" class="node"><title>Node19</title>
<g id="a_node19"><a xlink:href="../../dc/d7f/server_2__mod_8inc.html" target="_top" xlink:title="server/_mod.inc">
<polygon fill="none" stroke="black" points="1196.28,-56.5 1196.28,-75.5 1282.28,-75.5 1282.28,-56.5 1196.28,-56.5"/>
<text text-anchor="middle" x="1239.28" y="-63.5" font-family="Helvetica,sans-Serif" font-size="10.00">server/_mod.inc</text>
</a>
</g>
</g>
<!-- Node18&#45;&gt;Node19 -->
<g id="edge27" class="edge"><title>Node18&#45;&gt;Node19</title>
<path fill="none" stroke="midnightblue" d="M1285.28,-105.82C1273.82,-96.1452 1259.36,-83.9481 1249.75,-75.8339"/>
<polygon fill="midnightblue" stroke="midnightblue" points="1283.09,-108.55 1292.99,-112.324 1287.61,-103.2 1283.09,-108.55"/>
</g>
<!-- Node19&#45;&gt;Node17 -->
<g id="edge28" class="edge"><title>Node19&#45;&gt;Node17</title>
<path fill="none" stroke="midnightblue" d="M1285.68,-54.1529C1329.32,-43.95 1393.78,-28.8809 1433.84,-19.5164"/>
<polygon fill="midnightblue" stroke="midnightblue" points="1284.82,-50.7591 1275.88,-56.4435 1286.41,-57.5753 1284.82,-50.7591"/>
</g>
<!-- Node20&#45;&gt;Node19 -->
<g id="edge30" class="edge"><title>Node20&#45;&gt;Node19</title>
<path fill="none" stroke="midnightblue" d="M1379.94,-109.436C1346.19,-99.2551 1297.83,-84.664 1267.51,-75.5164"/>
<polygon fill="midnightblue" stroke="midnightblue" points="1379.33,-112.906 1389.91,-112.444 1381.35,-106.204 1379.33,-112.906"/>
</g>
<!-- Node21&#45;&gt;Node19 -->
<g id="edge32" class="edge"><title>Node21&#45;&gt;Node19</title>
<path fill="none" stroke="midnightblue" d="M1489.97,-110.67C1429.38,-100.115 1336.73,-83.9765 1282.66,-74.558"/>
<polygon fill="midnightblue" stroke="midnightblue" points="1489.7,-114.175 1500.15,-112.444 1490.9,-107.279 1489.7,-114.175"/>
</g>
<!-- Node22&#45;&gt;Node19 -->
<g id="edge34" class="edge"><title>Node22&#45;&gt;Node19</title>
<path fill="none" stroke="midnightblue" d="M875.288,-111.911C997.533,-93.991 1129.63,-78.9174 1196.2,-71.6229"/>
<polygon fill="midnightblue" stroke="midnightblue" points="874.761,-108.451 865.38,-113.373 875.783,-115.376 874.761,-108.451"/>
</g>
<!-- Node23&#45;&gt;Node19 -->
<g id="edge36" class="edge"><title>Node23&#45;&gt;Node19</title>
<path fill="none" stroke="midnightblue" d="M982.979,-111.502C1043.6,-100.976 1140.12,-84.2164 1195.8,-74.5484"/>
<polygon fill="midnightblue" stroke="midnightblue" points="982.088,-108.104 972.834,-113.263 983.285,-115.001 982.088,-108.104"/>
</g>
<!-- Node25 -->
<g id="node25" class="node"><title>Node25</title>
<g id="a_node25"><a xlink:href="../../d9/dfd/server_2bot_2default_2__mod_8inc.html" target="_top" xlink:title="server/bot/default\l/_mod.inc">
<polygon fill="none" stroke="black" points="996.275,-169 996.275,-199 1088.28,-199 1088.28,-169 996.275,-169"/>
<text text-anchor="start" x="1004.28" y="-187" font-family="Helvetica,sans-Serif" font-size="10.00">server/bot/default</text>
<text text-anchor="middle" x="1042.28" y="-176" font-family="Helvetica,sans-Serif" font-size="10.00">/_mod.inc</text>
</a>
</g>
</g>
<!-- Node24&#45;&gt;Node25 -->
<g id="edge38" class="edge"><title>Node24&#45;&gt;Node25</title>
<path fill="none" stroke="midnightblue" d="M1073.78,-228.314C1066.78,-218.689 1058.83,-207.763 1052.67,-199.293"/>
<polygon fill="midnightblue" stroke="midnightblue" points="1071.15,-230.65 1079.86,-236.679 1076.81,-226.533 1071.15,-230.65"/>
</g>
<!-- Node26 -->
<g id="node26" class="node"><title>Node26</title>
<g id="a_node26"><a xlink:href="../../dc/d13/server_2bot_2__mod_8inc.html" target="_top" xlink:title="server/bot/_mod.inc">
<polygon fill="none" stroke="black" points="990.775,-112.5 990.775,-131.5 1093.78,-131.5 1093.78,-112.5 990.775,-112.5"/>
<text text-anchor="middle" x="1042.28" y="-119.5" font-family="Helvetica,sans-Serif" font-size="10.00">server/bot/_mod.inc</text>
</a>
</g>
</g>
<!-- Node25&#45;&gt;Node26 -->
<g id="edge39" class="edge"><title>Node25&#45;&gt;Node26</title>
<path fill="none" stroke="midnightblue" d="M1042.28,-158.586C1042.28,-149.074 1042.28,-138.786 1042.28,-131.731"/>
<polygon fill="midnightblue" stroke="midnightblue" points="1038.78,-158.781 1042.28,-168.781 1045.78,-158.781 1038.78,-158.781"/>
</g>
<!-- Node26&#45;&gt;Node19 -->
<g id="edge40" class="edge"><title>Node26&#45;&gt;Node19</title>
<path fill="none" stroke="midnightblue" d="M1083.5,-109.699C1120.68,-99.507 1174.55,-84.7429 1208.21,-75.5164"/>
<polygon fill="midnightblue" stroke="midnightblue" points="1082.21,-106.424 1073.49,-112.444 1084.06,-113.175 1082.21,-106.424"/>
</g>
<!-- Node28 -->
<g id="node28" class="node"><title>Node28</title>
<g id="a_node28"><a xlink:href="../../d0/d70/server_2weapons_2__mod_8inc.html" target="_top" xlink:title="server/weapons/_mod.inc">
<polygon fill="none" stroke="black" points="1112.28,-112.5 1112.28,-131.5 1240.28,-131.5 1240.28,-112.5 1112.28,-112.5"/>
<text text-anchor="middle" x="1176.28" y="-119.5" font-family="Helvetica,sans-Serif" font-size="10.00">server/weapons/_mod.inc</text>
</a>
</g>
</g>
<!-- Node27&#45;&gt;Node28 -->
<g id="edge42" class="edge"><title>Node27&#45;&gt;Node28</title>
<path fill="none" stroke="midnightblue" d="M1185.96,-164.503C1183.4,-153.527 1180.27,-140.129 1178.28,-131.581"/>
<polygon fill="midnightblue" stroke="midnightblue" points="1182.59,-165.46 1188.27,-174.403 1189.41,-163.87 1182.59,-165.46"/>
</g>
<!-- Node28&#45;&gt;Node19 -->
<g id="edge43" class="edge"><title>Node28&#45;&gt;Node19</title>
<path fill="none" stroke="midnightblue" d="M1194.32,-105.537C1205.55,-95.9087 1219.59,-83.8694 1228.97,-75.8339"/>
<polygon fill="midnightblue" stroke="midnightblue" points="1191.71,-103.159 1186.4,-112.324 1196.27,-108.473 1191.71,-103.159"/>
</g>
</g>
</svg>
        <g id="navigator" transform="translate(0 0)" fill="#404254">
                <rect fill="#f2f5e9" fill-opacity="0.5" stroke="#606060" stroke-width=".5" x="0" y="0" width="60" height="60"/>
                <use id="zoomplus" xlink:href="#zoomPlus" x="17" y="9" onmousedown="handleZoom(evt,'in')"/>
                <use id="zoomminus" xlink:href="#zoomMin" x="42" y="9" onmousedown="handleZoom(evt,'out')"/>
                <use id="reset" xlink:href="#resetDef" x="30" y="36" onmousedown="handleReset()"/>
                <g id="arrowUp" xlink:href="#dirArrow" transform="translate(30 24)" onmousedown="handlePan(0,-1)">
                  <use xlink:href="#rim" fill="#404040">
                        <set attributeName="fill" to="#808080" begin="arrowUp.mouseover" end="arrowUp.mouseout"/>
                  </use>
                  <path fill="none" stroke="white" stroke-width="1.5" d="M0,-3.0v7 M-2.5,-0.5L0,-3.0L2.5,-0.5"/>
                </g>
                <g id="arrowRight" xlink:href="#dirArrow" transform="rotate(90) translate(36 -43)" onmousedown="handlePan(1,0)">
                  <use xlink:href="#rim" fill="#404040">
                        <set attributeName="fill" to="#808080" begin="arrowRight.mouseover" end="arrowRight.mouseout"/>
                  </use>
                  <path fill="none" stroke="white" stroke-width="1.5" d="M0,-3.0v7 M-2.5,-0.5L0,-3.0L2.5,-0.5"/>
                </g>
                <g id="arrowDown" xlink:href="#dirArrow" transform="rotate(180) translate(-30 -48)" onmousedown="handlePan(0,1)">
                  <use xlink:href="#rim" fill="#404040">
                        <set attributeName="fill" to="#808080" begin="arrowDown.mouseover" end="arrowDown.mouseout"/>
                  </use>
                  <path fill="none" stroke="white" stroke-width="1.5" d="M0,-3.0v7 M-2.5,-0.5L0,-3.0L2.5,-0.5"/>
                </g>
                <g id="arrowLeft" xlink:href="#dirArrow" transform="rotate(270) translate(-36 17)" onmousedown="handlePan(-1,0)">
                  <use xlink:href="#rim" fill="#404040">
                        <set attributeName="fill" to="#808080" begin="arrowLeft.mouseover" end="arrowLeft.mouseout"/>
                  </use>
                  <path fill="none" stroke="white" stroke-width="1.5" d="M0,-3.0v7 M-2.5,-0.5L0,-3.0L2.5,-0.5"/>
                </g>
        </g>
        <svg viewBox="0 0 15 15" width="100%" height="30px" preserveAspectRatio="xMaxYMin meet">
         <g id="arrow_out" transform="scale(0.3 0.3)">
          <a xlink:href="lib_2csqcmodel_2common_8qh__dep__incl_org.svg" target="_base">
           <rect id="button" ry="5" rx="5" y="6" x="6" height="38" width="38"
                fill="#f2f5e9" fill-opacity="0.5" stroke="#606060" stroke-width="1.0"/>
           <path id="arrow"
             d="M 11.500037,31.436501 C 11.940474,20.09759 22.043105,11.32322 32.158766,21.979434 L 37.068811,17.246167 C 37.068811,17.246167 37.088388,32 37.088388,32 L 22.160133,31.978069 C 22.160133,31.978069 26.997745,27.140456 26.997745,27.140456 C 18.528582,18.264221 13.291696,25.230495 11.500037,31.436501 z"
             style="fill:#404040;"/>
          </a>
         </g>
        </svg>
</svg>
