<?xml version="1.0" encoding="UTF-8" standalone="no"?>
<!DOCTYPE svg PUBLIC "-//W3C//DTD SVG 1.1//EN"
 "http://www.w3.org/Graphics/SVG/1.1/DTD/svg11.dtd">
<!-- Generated by graphviz version 2.36.0 (20140111.2315)
 -->
<!-- Title: Monster_CalculateVelocity Pages: 1 -->
<svg width="1552pt" height="438pt"
 viewBox="0.00 0.00 1552.00 438.30" xmlns="http://www.w3.org/2000/svg" xmlns:xlink="http://www.w3.org/1999/xlink">
<g id="graph0" class="graph" transform="scale(1 1) rotate(0) translate(4 434.302)">
<title>Monster_CalculateVelocity</title>
<!-- Node1 -->
<g id="node1" class="node"><title>Node1</title>
<polygon fill="#bfbfbf" stroke="black" points="0,-382.802 0,-401.802 134,-401.802 134,-382.802 0,-382.802"/>
<text text-anchor="middle" x="67" y="-389.802" font-family="Helvetica,sans-Serif" font-size="10.00">Monster_CalculateVelocity</text>
</g>
<!-- Node2 -->
<g id="node2" class="node"><title>Node2</title>
<g id="a_node2"><a xlink:href="../../d8/de2/menudefs_8qc.html#ab8f7213273f7de03df213240376ce9f4" target="_top" xlink:title="normalize">
<polygon fill="none" stroke="black" points="719.5,-382.802 719.5,-401.802 778.5,-401.802 778.5,-382.802 719.5,-382.802"/>
<text text-anchor="middle" x="749" y="-389.802" font-family="Helvetica,sans-Serif" font-size="10.00">normalize</text>
</a>
</g>
</g>
<!-- Node1&#45;&gt;Node2 -->
<g id="edge1" class="edge"><title>Node1&#45;&gt;Node2</title>
<path fill="none" stroke="midnightblue" d="M134.129,-392.302C274.289,-392.302 597.514,-392.302 709.202,-392.302"/>
<polygon fill="midnightblue" stroke="midnightblue" points="709.337,-395.802 719.337,-392.302 709.337,-388.802 709.337,-395.802"/>
</g>
<!-- Node3 -->
<g id="node3" class="node"><title>Node3</title>
<g id="a_node3"><a xlink:href="../../d4/d0c/csprogsdefs_8qc.html#a4f0b78b1785821ba47129edb68e70f9e" target="_top" xlink:title="vector">
<polygon fill="none" stroke="black" points="1461,-277.802 1461,-296.802 1505,-296.802 1505,-277.802 1461,-277.802"/>
<text text-anchor="middle" x="1483" y="-284.802" font-family="Helvetica,sans-Serif" font-size="10.00">vector</text>
</a>
</g>
</g>
<!-- Node1&#45;&gt;Node3 -->
<g id="edge2" class="edge"><title>Node1&#45;&gt;Node3</title>
<path fill="none" stroke="midnightblue" d="M114.592,-401.842C173.719,-413.098 278.976,-430.302 370,-430.302 370,-430.302 370,-430.302 1141,-430.302 1271.51,-430.302 1409.78,-340.123 1461.18,-302.99"/>
<polygon fill="midnightblue" stroke="midnightblue" points="1463.49,-305.642 1469.48,-296.907 1459.35,-299.996 1463.49,-305.642"/>
</g>
<!-- Node4 -->
<g id="node4" class="node"><title>Node4</title>
<g id="a_node4"><a xlink:href="../../d1/d6a/lib_2warpzone_2common_8qc.html#a37f59b6a1a00560f47d41387a3666338" target="_top" xlink:title="WarpZone_TraceLine">
<polygon fill="none" stroke="black" points="170,-287.802 170,-306.802 280,-306.802 280,-287.802 170,-287.802"/>
<text text-anchor="middle" x="225" y="-294.802" font-family="Helvetica,sans-Serif" font-size="10.00">WarpZone_TraceLine</text>
</a>
</g>
</g>
<!-- Node1&#45;&gt;Node4 -->
<g id="edge3" class="edge"><title>Node1&#45;&gt;Node4</title>
<path fill="none" stroke="midnightblue" d="M83.8166,-382.67C111.03,-366.098 166.9,-332.074 199.287,-312.351"/>
<polygon fill="midnightblue" stroke="midnightblue" points="201.421,-315.15 208.142,-306.959 197.78,-309.171 201.421,-315.15"/>
</g>
<!-- Node5 -->
<g id="node5" class="node"><title>Node5</title>
<g id="a_node5"><a xlink:href="../../d1/d6a/lib_2warpzone_2common_8qc.html#a9321c18dd45fa7891473f61db9ccbe93" target="_top" xlink:title="WarpZone_TraceBox">
<polygon fill="none" stroke="black" points="316.5,-258.802 316.5,-277.802 425.5,-277.802 425.5,-258.802 316.5,-258.802"/>
<text text-anchor="middle" x="371" y="-265.802" font-family="Helvetica,sans-Serif" font-size="10.00">WarpZone_TraceBox</text>
</a>
</g>
</g>
<!-- Node4&#45;&gt;Node5 -->
<g id="edge4" class="edge"><title>Node4&#45;&gt;Node5</title>
<path fill="none" stroke="midnightblue" d="M273.55,-287.726C285.961,-285.226 299.472,-282.505 312.346,-279.913"/>
<polygon fill="midnightblue" stroke="midnightblue" points="313.388,-283.273 322.5,-277.868 312.006,-276.411 313.388,-283.273"/>
</g>
<!-- Node6 -->
<g id="node6" class="node"><title>Node6</title>
<g id="a_node6"><a xlink:href="../../d1/d6a/lib_2warpzone_2common_8qc.html#a368f7c4b2bb0959e80033bce124f640d" target="_top" xlink:title="WarpZone_TraceBox_ThroughZone">
<polygon fill="none" stroke="black" points="462.5,-230.802 462.5,-249.802 633.5,-249.802 633.5,-230.802 462.5,-230.802"/>
<text text-anchor="middle" x="548" y="-237.802" font-family="Helvetica,sans-Serif" font-size="10.00">WarpZone_TraceBox_ThroughZone</text>
</a>
</g>
</g>
<!-- Node5&#45;&gt;Node6 -->
<g id="edge5" class="edge"><title>Node5&#45;&gt;Node6</title>
<path fill="none" stroke="midnightblue" d="M425.934,-259.673C442.22,-257.067 460.336,-254.168 477.487,-251.424"/>
<polygon fill="midnightblue" stroke="midnightblue" points="478.132,-254.865 487.453,-249.829 477.026,-247.953 478.132,-254.865"/>
</g>
<!-- Node6&#45;&gt;Node2 -->
<g id="edge28" class="edge"><title>Node6&#45;&gt;Node2</title>
<path fill="none" stroke="midnightblue" d="M554.942,-250.145C570.484,-274.999 614.974,-340.633 670,-373.302 681.821,-380.32 696.111,-384.751 709.214,-387.546"/>
<polygon fill="midnightblue" stroke="midnightblue" points="708.924,-391.052 719.398,-389.455 710.214,-384.172 708.924,-391.052"/>
</g>
<!-- Node6&#45;&gt;Node3 -->
<g id="edge6" class="edge"><title>Node6&#45;&gt;Node3</title>
<path fill="none" stroke="midnightblue" d="M600.944,-249.819C622.269,-253.37 647.249,-257.077 670,-259.302 929.407,-284.672 995.478,-274.308 1256,-282.302 1325.43,-284.432 1406.89,-286.007 1450.55,-286.776"/>
<polygon fill="midnightblue" stroke="midnightblue" points="1450.75,-290.28 1460.81,-286.954 1450.87,-283.281 1450.75,-290.28"/>
</g>
<!-- Node7 -->
<g id="node7" class="node"><title>Node7</title>
<g id="a_node7"><a xlink:href="../../d4/d0c/csprogsdefs_8qc.html#acbb54a239d76062465dccbc6a6c6e464" target="_top" xlink:title="entity">
<polygon fill="none" stroke="black" points="1300.5,-94.802 1300.5,-113.802 1341.5,-113.802 1341.5,-94.802 1300.5,-94.802"/>
<text text-anchor="middle" x="1321" y="-101.802" font-family="Helvetica,sans-Serif" font-size="10.00">entity</text>
</a>
</g>
</g>
<!-- Node6&#45;&gt;Node7 -->
<g id="edge7" class="edge"><title>Node6&#45;&gt;Node7</title>
<path fill="none" stroke="midnightblue" d="M579.057,-230.652C603.374,-223.137 638.611,-212.907 670,-206.302 911.599,-155.462 977.47,-174.496 1220,-128.302 1243.9,-123.75 1270.68,-117.245 1290.51,-112.156"/>
<polygon fill="midnightblue" stroke="midnightblue" points="1291.4,-115.542 1300.2,-109.641 1289.64,-108.767 1291.4,-115.542"/>
</g>
<!-- Node8 -->
<g id="node8" class="node"><title>Node8</title>
<g id="a_node8"><a xlink:href="../../d1/d6a/lib_2warpzone_2common_8qc.html#a233e264af952b9d8e4a5ccfd7bce53c7" target="_top" xlink:title="WarpZone_Trace_InitTransform">
<polygon fill="none" stroke="black" points="671.5,-75.802 671.5,-94.802 826.5,-94.802 826.5,-75.802 671.5,-75.802"/>
<text text-anchor="middle" x="749" y="-82.802" font-family="Helvetica,sans-Serif" font-size="10.00">WarpZone_Trace_InitTransform</text>
</a>
</g>
</g>
<!-- Node6&#45;&gt;Node8 -->
<g id="edge8" class="edge"><title>Node6&#45;&gt;Node8</title>
<path fill="none" stroke="midnightblue" d="M555.013,-230.576C570.722,-205.997 615.57,-140.955 670,-107.302 675.789,-103.723 682.176,-100.71 688.727,-98.1788"/>
<polygon fill="midnightblue" stroke="midnightblue" points="690.106,-101.405 698.393,-94.8036 687.798,-94.796 690.106,-101.405"/>
</g>
<!-- Node10 -->
<g id="node10" class="node"><title>Node10</title>
<g id="a_node10"><a xlink:href="../../d1/d6a/lib_2warpzone_2common_8qc.html#a191c61933b716c17f4aaac24e9049664" target="_top" xlink:title="WarpZone_Find">
<polygon fill="none" stroke="black" points="706,-116.802 706,-135.802 792,-135.802 792,-116.802 706,-116.802"/>
<text text-anchor="middle" x="749" y="-123.802" font-family="Helvetica,sans-Serif" font-size="10.00">WarpZone_Find</text>
</a>
</g>
</g>
<!-- Node6&#45;&gt;Node10 -->
<g id="edge10" class="edge"><title>Node6&#45;&gt;Node10</title>
<path fill="none" stroke="midnightblue" d="M559.188,-230.782C579.043,-212.697 624.927,-173.141 670,-150.302 678.723,-145.882 688.413,-142.1 697.914,-138.935"/>
<polygon fill="midnightblue" stroke="midnightblue" points="699.208,-142.197 707.698,-135.858 697.108,-135.519 699.208,-142.197"/>
</g>
<!-- Node13 -->
<g id="node13" class="node"><title>Node13</title>
<g id="a_node13"><a xlink:href="../../d1/d07/framework_8qc.html#aef346455b3c2def821423a45227b45dd" target="_top" xlink:title="LOG_TRACE">
<polygon fill="none" stroke="black" points="1282.5,-42.802 1282.5,-61.802 1359.5,-61.802 1359.5,-42.802 1282.5,-42.802"/>
<text text-anchor="middle" x="1321" y="-49.802" font-family="Helvetica,sans-Serif" font-size="10.00">LOG_TRACE</text>
</a>
</g>
</g>
<!-- Node6&#45;&gt;Node13 -->
<g id="edge27" class="edge"><title>Node6&#45;&gt;Node13</title>
<path fill="none" stroke="midnightblue" d="M552.288,-230.432C563.19,-199.49 601.402,-104.203 670,-66.302 872.151,45.3863 1166.39,-12.5193 1276.38,-40.2668"/>
<polygon fill="midnightblue" stroke="midnightblue" points="1275.58,-43.6741 1286.13,-42.7713 1277.32,-36.8941 1275.58,-43.6741"/>
</g>
<!-- Node14 -->
<g id="node14" class="node"><title>Node14</title>
<g id="a_node14"><a xlink:href="../../d1/d6a/lib_2warpzone_2common_8qc.html#ade15efbb2449932e8874907371c76a39" target="_top" xlink:title="WarpZone_Trace_AddTransform">
<polygon fill="none" stroke="black" points="670,-230.802 670,-249.802 828,-249.802 828,-230.802 670,-230.802"/>
<text text-anchor="middle" x="749" y="-237.802" font-family="Helvetica,sans-Serif" font-size="10.00">WarpZone_Trace_AddTransform</text>
</a>
</g>
</g>
<!-- Node6&#45;&gt;Node14 -->
<g id="edge15" class="edge"><title>Node6&#45;&gt;Node14</title>
<path fill="none" stroke="midnightblue" d="M633.682,-240.302C642.274,-240.302 651.017,-240.302 659.646,-240.302"/>
<polygon fill="midnightblue" stroke="midnightblue" points="659.709,-243.802 669.709,-240.302 659.709,-236.802 659.709,-243.802"/>
</g>
<!-- Node20 -->
<g id="node20" class="node"><title>Node20</title>
<g id="a_node20"><a xlink:href="../../d1/d6a/lib_2warpzone_2common_8qc.html#a83f110aec024c6632cd713cf64cb136e" target="_top" xlink:title="WarpZone_TransformOrigin">
<polygon fill="none" stroke="black" points="1071.5,-192.802 1071.5,-211.802 1208.5,-211.802 1208.5,-192.802 1071.5,-192.802"/>
<text text-anchor="middle" x="1140" y="-199.802" font-family="Helvetica,sans-Serif" font-size="10.00">WarpZone_TransformOrigin</text>
</a>
</g>
</g>
<!-- Node6&#45;&gt;Node20 -->
<g id="edge24" class="edge"><title>Node6&#45;&gt;Node20</title>
<path fill="none" stroke="midnightblue" d="M600.945,-230.8C622.271,-227.25 647.251,-223.541 670,-221.302 807.185,-207.798 967.85,-203.844 1061.07,-202.716"/>
<polygon fill="midnightblue" stroke="midnightblue" points="1061.3,-206.214 1071.26,-202.601 1061.22,-199.214 1061.3,-206.214"/>
</g>
<!-- Node21 -->
<g id="node21" class="node"><title>Node21</title>
<g id="a_node21"><a xlink:href="../../d1/d6a/lib_2warpzone_2common_8qc.html#a9d0c128ebb30061395684b1563d9ad4a" target="_top" xlink:title="WarpZone_MakeAllSolid">
<polygon fill="none" stroke="black" points="687,-344.802 687,-363.802 811,-363.802 811,-344.802 687,-344.802"/>
<text text-anchor="middle" x="749" y="-351.802" font-family="Helvetica,sans-Serif" font-size="10.00">WarpZone_MakeAllSolid</text>
</a>
</g>
</g>
<!-- Node6&#45;&gt;Node21 -->
<g id="edge26" class="edge"><title>Node6&#45;&gt;Node21</title>
<path fill="none" stroke="midnightblue" d="M558.357,-250.036C577.47,-269.335 623.156,-312.542 670,-335.302 674.936,-337.7 680.199,-339.81 685.572,-341.664"/>
<polygon fill="midnightblue" stroke="midnightblue" points="684.724,-345.066 695.313,-344.731 686.826,-338.389 684.724,-345.066"/>
</g>
<!-- Node22 -->
<g id="node22" class="node"><title>Node22</title>
<g id="a_node22"><a xlink:href="../../d1/d6a/lib_2warpzone_2common_8qc.html#a709b87db314dc8aaf6df3d3adc456b1d" target="_top" xlink:title="WarpZone_MakeAllOther">
<polygon fill="none" stroke="black" points="686,-306.802 686,-325.802 812,-325.802 812,-306.802 686,-306.802"/>
<text text-anchor="middle" x="749" y="-313.802" font-family="Helvetica,sans-Serif" font-size="10.00">WarpZone_MakeAllOther</text>
</a>
</g>
</g>
<!-- Node6&#45;&gt;Node22 -->
<g id="edge29" class="edge"><title>Node6&#45;&gt;Node22</title>
<path fill="none" stroke="midnightblue" d="M569.283,-249.814C593.102,-260.798 633.945,-279.051 670,-292.302 681.006,-296.347 693.047,-300.284 704.304,-303.762"/>
<polygon fill="midnightblue" stroke="midnightblue" points="703.364,-307.134 713.95,-306.69 705.398,-300.436 703.364,-307.134"/>
</g>
<!-- Node9 -->
<g id="node9" class="node"><title>Node9</title>
<g id="a_node9"><a xlink:href="../../d1/d6a/lib_2warpzone_2common_8qc.html#a1ffbdf285707f8412653ec2a099b8a02" target="_top" xlink:title="WarpZone_Accumulator\l_Clear">
<polygon fill="none" stroke="black" points="883,-67.302 883,-97.302 1005,-97.302 1005,-67.302 883,-67.302"/>
<text text-anchor="start" x="891" y="-85.302" font-family="Helvetica,sans-Serif" font-size="10.00">WarpZone_Accumulator</text>
<text text-anchor="middle" x="944" y="-74.302" font-family="Helvetica,sans-Serif" font-size="10.00">_Clear</text>
</a>
</g>
</g>
<!-- Node8&#45;&gt;Node9 -->
<g id="edge9" class="edge"><title>Node8&#45;&gt;Node9</title>
<path fill="none" stroke="midnightblue" d="M826.556,-84.112C841.777,-83.8754 857.69,-83.628 872.689,-83.3949"/>
<polygon fill="midnightblue" stroke="midnightblue" points="872.964,-86.8911 882.908,-83.2361 872.855,-79.892 872.964,-86.8911"/>
</g>
<!-- Node11 -->
<g id="node11" class="node"><title>Node11</title>
<g id="a_node11"><a xlink:href="../../d1/d6a/lib_2warpzone_2common_8qc.html#a1b87d3cc5d237220e1d7def92aca4632" target="_top" xlink:title="WarpZoneLib_BoxTouchesBrush">
<polygon fill="none" stroke="black" points="864,-116.802 864,-135.802 1024,-135.802 1024,-116.802 864,-116.802"/>
<text text-anchor="middle" x="944" y="-123.802" font-family="Helvetica,sans-Serif" font-size="10.00">WarpZoneLib_BoxTouchesBrush</text>
</a>
</g>
</g>
<!-- Node10&#45;&gt;Node11 -->
<g id="edge11" class="edge"><title>Node10&#45;&gt;Node11</title>
<path fill="none" stroke="midnightblue" d="M792.355,-126.302C810.459,-126.302 832.323,-126.302 853.712,-126.302"/>
<polygon fill="midnightblue" stroke="midnightblue" points="853.822,-129.802 863.822,-126.302 853.822,-122.802 853.822,-129.802"/>
</g>
<!-- Node12 -->
<g id="node12" class="node"><title>Node12</title>
<g id="a_node12"><a xlink:href="../../d1/d6a/lib_2warpzone_2common_8qc.html#a4a0631162e93630a6ea1d1f7b7b33329" target="_top" xlink:title="WarpZoneLib_BoxTouchesBrush\l_Recurse">
<polygon fill="none" stroke="black" points="1060,-89.302 1060,-119.302 1220,-119.302 1220,-89.302 1060,-89.302"/>
<text text-anchor="start" x="1068" y="-107.302" font-family="Helvetica,sans-Serif" font-size="10.00">WarpZoneLib_BoxTouchesBrush</text>
<text text-anchor="middle" x="1140" y="-96.302" font-family="Helvetica,sans-Serif" font-size="10.00">_Recurse</text>
</a>
</g>
</g>
<!-- Node11&#45;&gt;Node12 -->
<g id="edge12" class="edge"><title>Node11&#45;&gt;Node12</title>
<path fill="none" stroke="midnightblue" d="M1024.19,-117.322C1032.62,-116.366 1041.24,-115.388 1049.78,-114.42"/>
<polygon fill="midnightblue" stroke="midnightblue" points="1050.21,-117.893 1059.75,-113.289 1049.42,-110.938 1050.21,-117.893"/>
</g>
<!-- Node12&#45;&gt;Node7 -->
<g id="edge13" class="edge"><title>Node12&#45;&gt;Node7</title>
<path fill="none" stroke="midnightblue" d="M1220.03,-104.302C1244.89,-104.302 1270.84,-104.302 1290.06,-104.302"/>
<polygon fill="midnightblue" stroke="midnightblue" points="1290.28,-107.802 1300.28,-104.302 1290.28,-100.802 1290.28,-107.802"/>
</g>
<!-- Node12&#45;&gt;Node13 -->
<g id="edge14" class="edge"><title>Node12&#45;&gt;Node13</title>
<path fill="none" stroke="midnightblue" d="M1192.77,-89.2614C1219.66,-81.4498 1252.12,-72.0225 1277.51,-64.6444"/>
<polygon fill="midnightblue" stroke="midnightblue" points="1278.6,-67.9739 1287.23,-61.823 1276.65,-61.2518 1278.6,-67.9739"/>
</g>
<!-- Node15 -->
<g id="node15" class="node"><title>Node15</title>
<g id="a_node15"><a xlink:href="../../d1/d6a/lib_2warpzone_2common_8qc.html#af5e5f1b36ad17b8f9170a150aa5c8967" target="_top" xlink:title="WarpZone_Accumulator_Add">
<polygon fill="none" stroke="black" points="872,-233.802 872,-252.802 1016,-252.802 1016,-233.802 872,-233.802"/>
<text text-anchor="middle" x="944" y="-240.802" font-family="Helvetica,sans-Serif" font-size="10.00">WarpZone_Accumulator_Add</text>
</a>
</g>
</g>
<!-- Node14&#45;&gt;Node15 -->
<g id="edge16" class="edge"><title>Node14&#45;&gt;Node15</title>
<path fill="none" stroke="midnightblue" d="M828.222,-241.518C839.262,-241.689 850.634,-241.866 861.729,-242.039"/>
<polygon fill="midnightblue" stroke="midnightblue" points="861.771,-245.54 871.825,-242.196 861.88,-238.541 861.771,-245.54"/>
</g>
<!-- Node16 -->
<g id="node16" class="node"><title>Node16</title>
<g id="a_node16"><a xlink:href="../../d1/d6a/lib_2warpzone_2common_8qc.html#a2604ee52b90450a5de9a19d30aa8373f" target="_top" xlink:title="WarpZone_Accumulator\l_AddTransform">
<polygon fill="none" stroke="black" points="1079,-231.302 1079,-261.302 1201,-261.302 1201,-231.302 1079,-231.302"/>
<text text-anchor="start" x="1087" y="-249.302" font-family="Helvetica,sans-Serif" font-size="10.00">WarpZone_Accumulator</text>
<text text-anchor="middle" x="1140" y="-238.302" font-family="Helvetica,sans-Serif" font-size="10.00">_AddTransform</text>
</a>
</g>
</g>
<!-- Node15&#45;&gt;Node16 -->
<g id="edge17" class="edge"><title>Node15&#45;&gt;Node16</title>
<path fill="none" stroke="midnightblue" d="M1016.14,-244.402C1033.15,-244.665 1051.31,-244.946 1068.31,-245.209"/>
<polygon fill="midnightblue" stroke="midnightblue" points="1068.66,-248.715 1078.72,-245.37 1068.77,-241.715 1068.66,-248.715"/>
</g>
<!-- Node16&#45;&gt;Node3 -->
<g id="edge18" class="edge"><title>Node16&#45;&gt;Node3</title>
<path fill="none" stroke="midnightblue" d="M1201.18,-253.538C1274.11,-262.306 1394.22,-276.748 1450.75,-283.545"/>
<polygon fill="midnightblue" stroke="midnightblue" points="1450.51,-287.041 1460.86,-284.76 1451.35,-280.091 1450.51,-287.041"/>
</g>
<!-- Node17 -->
<g id="node17" class="node"><title>Node17</title>
<g id="a_node17"><a xlink:href="../../df/d13/anglestransform_8qc.html#ac06d70078794b4df23a48f86b7aabf21" target="_top" xlink:title="AnglesTransform_Multiply">
<polygon fill="none" stroke="black" points="1256,-220.802 1256,-239.802 1386,-239.802 1386,-220.802 1256,-220.802"/>
<text text-anchor="middle" x="1321" y="-227.802" font-family="Helvetica,sans-Serif" font-size="10.00">AnglesTransform_Multiply</text>
</a>
</g>
</g>
<!-- Node16&#45;&gt;Node17 -->
<g id="edge19" class="edge"><title>Node16&#45;&gt;Node17</title>
<path fill="none" stroke="midnightblue" d="M1201.1,-240.93C1215.38,-239.654 1230.78,-238.277 1245.61,-236.952"/>
<polygon fill="midnightblue" stroke="midnightblue" points="1246.11,-240.42 1255.76,-236.044 1245.49,-233.448 1246.11,-240.42"/>
</g>
<!-- Node19 -->
<g id="node19" class="node"><title>Node19</title>
<g id="a_node19"><a xlink:href="../../df/d13/anglestransform_8qc.html#a0fdbb008cb55b09916473e7c05b0dfcc" target="_top" xlink:title="AnglesTransform_Multiply\l_GetPostShift">
<polygon fill="none" stroke="black" points="1256,-171.302 1256,-201.302 1386,-201.302 1386,-171.302 1256,-171.302"/>
<text text-anchor="start" x="1264" y="-189.302" font-family="Helvetica,sans-Serif" font-size="10.00">AnglesTransform_Multiply</text>
<text text-anchor="middle" x="1321" y="-178.302" font-family="Helvetica,sans-Serif" font-size="10.00">_GetPostShift</text>
</a>
</g>
</g>
<!-- Node16&#45;&gt;Node19 -->
<g id="edge22" class="edge"><title>Node16&#45;&gt;Node19</title>
<path fill="none" stroke="midnightblue" d="M1189.54,-231.196C1199.63,-227.985 1210.17,-224.576 1220,-221.302 1235.6,-216.104 1252.51,-210.267 1267.9,-204.872"/>
<polygon fill="midnightblue" stroke="midnightblue" points="1269.49,-208.021 1277.76,-201.402 1267.17,-201.418 1269.49,-208.021"/>
</g>
<!-- Node17&#45;&gt;Node3 -->
<g id="edge20" class="edge"><title>Node17&#45;&gt;Node3</title>
<path fill="none" stroke="midnightblue" d="M1348.78,-239.842C1377.07,-249.922 1421.62,-265.792 1451.31,-276.37"/>
<polygon fill="midnightblue" stroke="midnightblue" points="1450.17,-279.679 1460.77,-279.738 1452.52,-273.085 1450.17,-279.679"/>
</g>
<!-- Node18 -->
<g id="node18" class="node"><title>Node18</title>
<g id="a_node18"><a xlink:href="../../df/d13/anglestransform_8qc.html#a6eef2b5d1dcd28a89fa2ab3146011775" target="_top" xlink:title="AnglesTransform_Apply">
<polygon fill="none" stroke="black" points="1422.5,-176.802 1422.5,-195.802 1543.5,-195.802 1543.5,-176.802 1422.5,-176.802"/>
<text text-anchor="middle" x="1483" y="-183.802" font-family="Helvetica,sans-Serif" font-size="10.00">AnglesTransform_Apply</text>
</a>
</g>
</g>
<!-- Node17&#45;&gt;Node18 -->
<g id="edge21" class="edge"><title>Node17&#45;&gt;Node18</title>
<path fill="none" stroke="midnightblue" d="M1356.72,-220.755C1380.41,-214.239 1412,-205.551 1437.54,-198.53"/>
<polygon fill="midnightblue" stroke="midnightblue" points="1438.64,-201.857 1447.35,-195.831 1436.78,-195.108 1438.64,-201.857"/>
</g>
<!-- Node19&#45;&gt;Node18 -->
<g id="edge23" class="edge"><title>Node19&#45;&gt;Node18</title>
<path fill="none" stroke="midnightblue" d="M1386.16,-186.302C1394.78,-186.302 1403.66,-186.302 1412.37,-186.302"/>
<polygon fill="midnightblue" stroke="midnightblue" points="1412.5,-189.802 1422.5,-186.302 1412.5,-182.802 1412.5,-189.802"/>
</g>
<!-- Node20&#45;&gt;Node18 -->
<g id="edge25" class="edge"><title>Node20&#45;&gt;Node18</title>
<path fill="none" stroke="midnightblue" d="M1176.37,-192.755C1190.14,-188.728 1205.96,-183.717 1220,-178.302 1236.51,-171.936 1238.73,-165.174 1256,-161.302 1312.38,-148.66 1328.69,-153.962 1386,-161.302 1405.14,-163.753 1425.91,-168.845 1443.22,-173.798"/>
<polygon fill="midnightblue" stroke="midnightblue" points="1442.39,-177.203 1452.97,-176.678 1444.37,-170.49 1442.39,-177.203"/>
</g>
</g>
</svg>
