<?xml version="1.0" encoding="UTF-8" standalone="no"?>
<!DOCTYPE svg PUBLIC "-//W3C//DTD SVG 1.1//EN"
 "http://www.w3.org/Graphics/SVG/1.1/DTD/svg11.dtd">
<!-- Generated by graphviz version 2.36.0 (20140111.2315)
 -->
<!-- Title: Monster_CalculateVelocity Pages: 1 -->
<!--zoomable 132 -->
<svg id="main" version="1.1" xmlns="http://www.w3.org/2000/svg" xmlns:xlink="http://www.w3.org/1999/xlink" xml:space="preserve" onload="init(evt)">
<style type="text/css"><![CDATA[
.edge:hover path { stroke: red; }
.edge:hover polygon { stroke: red; fill: red; }
]]></style>
<script type="text/javascript"><![CDATA[
var edges = document.getElementsByTagName('g');
if (edges && edges.length) {
  for (var i=0;i<edges.length;i++) {
    if (edges[i].id.substr(0,4)=='edge') {
      edges[i].setAttribute('class','edge');
    }
  }
}
]]></script>
        <defs>
                <circle id="rim" cx="0" cy="0" r="7"/>
                <circle id="rim2" cx="0" cy="0" r="3.5"/>
                <g id="zoomPlus">
                        <use xlink:href="#rim" fill="#404040">
                                <set attributeName="fill" to="#808080" begin="zoomplus.mouseover" end="zoomplus.mouseout"/>
                        </use>
                        <path d="M-4,0h8M0,-4v8" fill="none" stroke="white" stroke-width="1.5" pointer-events="none"/>
                </g>
                <g id="zoomMin">
                        <use xlink:href="#rim" fill="#404040">
                                <set attributeName="fill" to="#808080" begin="zoomminus.mouseover" end="zoomminus.mouseout"/>
                        </use>
                        <path d="M-4,0h8" fill="none" stroke="white" stroke-width="1.5" pointer-events="none"/>
                </g>
                <g id="dirArrow">
                        <path fill="none" stroke="white" stroke-width="1.5" d="M0,-3.0v7 M-2.5,-0.5L0,-3.0L2.5,-0.5"/>
                </g>
               <g id="resetDef">
                       <use xlink:href="#rim2" fill="#404040">
                               <set attributeName="fill" to="#808080" begin="reset.mouseover" end="reset.mouseout"/>
                       </use>
               </g>
        </defs>

<script type="text/javascript">
var viewWidth = 1340;
var viewHeight = 132;
var sectionId = 'dynsection-16';
</script>
<script xlink:href="../../svgpan.js"/>
<svg id="graph" class="graph">
<g id="viewport">
<title>Monster_CalculateVelocity</title>
<!-- Node1 -->
<g id="node1" class="node"><title>Node1</title>
<polygon fill="#bfbfbf" stroke="black" points="0,-47.5 0,-66.5 134,-66.5 134,-47.5 0,-47.5"/>
<text text-anchor="middle" x="67" y="-54.5" font-family="Helvetica,sans-Serif" font-size="10.00">Monster_CalculateVelocity</text>
</g>
<!-- Node2 -->
<g id="node2" class="node"><title>Node2</title>
<g id="a_node2"><a xlink:href="../../da/d4e/sv__monsters_8qc.html#a37f7dbf3b68666c1a9348403d38490b8" target="_top" xlink:title="Monster_Move">
<polygon fill="none" stroke="black" points="170.5,-47.5 170.5,-66.5 251.5,-66.5 251.5,-47.5 170.5,-47.5"/>
<text text-anchor="middle" x="211" y="-54.5" font-family="Helvetica,sans-Serif" font-size="10.00">Monster_Move</text>
</a>
</g>
</g>
<!-- Node1&#45;&gt;Node2 -->
<g id="edge1" class="edge"><title>Node1&#45;&gt;Node2</title>
<path fill="none" stroke="midnightblue" d="M144.245,-57C153.294,-57 162.229,-57 170.457,-57"/>
<polygon fill="midnightblue" stroke="midnightblue" points="144.012,-53.5001 134.011,-57 144.011,-60.5001 144.012,-53.5001"/>
</g>
<!-- Node3 -->
<g id="node3" class="node"><title>Node3</title>
<g id="a_node3"><a xlink:href="../../da/d4e/sv__monsters_8qc.html#af743ad44b5406594d65a3cc6cc434503" target="_top" xlink:title="Monster_Think">
<polygon fill="none" stroke="black" points="288.5,-47.5 288.5,-66.5 369.5,-66.5 369.5,-47.5 288.5,-47.5"/>
<text text-anchor="middle" x="329" y="-54.5" font-family="Helvetica,sans-Serif" font-size="10.00">Monster_Think</text>
</a>
</g>
</g>
<!-- Node2&#45;&gt;Node3 -->
<g id="edge2" class="edge"><title>Node2&#45;&gt;Node3</title>
<path fill="none" stroke="midnightblue" d="M261.784,-57C270.606,-57 279.687,-57 288.188,-57"/>
<polygon fill="midnightblue" stroke="midnightblue" points="261.596,-53.5001 251.596,-57 261.596,-60.5001 261.596,-53.5001"/>
</g>
<!-- Node4 -->
<g id="node4" class="node"><title>Node4</title>
<g id="a_node4"><a xlink:href="../../da/d4e/sv__monsters_8qc.html#ae8583f9bde31f60a7137868d603e2b58" target="_top" xlink:title="Monster_Spawn_Setup">
<polygon fill="none" stroke="black" points="406,-47.5 406,-66.5 524,-66.5 524,-47.5 406,-47.5"/>
<text text-anchor="middle" x="465" y="-54.5" font-family="Helvetica,sans-Serif" font-size="10.00">Monster_Spawn_Setup</text>
</a>
</g>
</g>
<!-- Node3&#45;&gt;Node4 -->
<g id="edge3" class="edge"><title>Node3&#45;&gt;Node4</title>
<path fill="none" stroke="midnightblue" d="M379.879,-57C388.297,-57 397.102,-57 405.711,-57"/>
<polygon fill="midnightblue" stroke="midnightblue" points="379.842,-53.5001 369.842,-57 379.842,-60.5001 379.842,-53.5001"/>
</g>
<!-- Node5 -->
<g id="node5" class="node"><title>Node5</title>
<g id="a_node5"><a xlink:href="../../d8/dc1/sv__monsters_8qh.html#a1e264a94238b71678a588bef93292d8a" target="_top" xlink:title="Monster_Spawn">
<polygon fill="none" stroke="black" points="560.5,-47.5 560.5,-66.5 647.5,-66.5 647.5,-47.5 560.5,-47.5"/>
<text text-anchor="middle" x="604" y="-54.5" font-family="Helvetica,sans-Serif" font-size="10.00">Monster_Spawn</text>
</a>
</g>
</g>
<!-- Node4&#45;&gt;Node5 -->
<g id="edge4" class="edge"><title>Node4&#45;&gt;Node5</title>
<path fill="none" stroke="midnightblue" d="M534.385,-57C543.177,-57 551.972,-57 560.19,-57"/>
<polygon fill="midnightblue" stroke="midnightblue" points="534.1,-53.5001 524.1,-57 534.1,-60.5001 534.1,-53.5001"/>
</g>
<!-- Node6 -->
<g id="node6" class="node"><title>Node6</title>
<g id="a_node6"><a xlink:href="../../da/d4e/sv__monsters_8qc.html#a2b57b31035d01a69ccd6e8c6970ed5dd" target="_top" xlink:title="Monster_Respawn">
<polygon fill="none" stroke="black" points="684,-104.5 684,-123.5 782,-123.5 782,-104.5 684,-104.5"/>
<text text-anchor="middle" x="733" y="-111.5" font-family="Helvetica,sans-Serif" font-size="10.00">Monster_Respawn</text>
</a>
</g>
</g>
<!-- Node5&#45;&gt;Node6 -->
<g id="edge5" class="edge"><title>Node5&#45;&gt;Node6</title>
<path fill="none" stroke="midnightblue" d="M633.211,-71.1737C648.182,-78.5414 666.959,-87.5402 684,-95 691.389,-98.2347 699.515,-101.543 706.947,-104.474"/>
<polygon fill="midnightblue" stroke="midnightblue" points="634.494,-67.9031 623.979,-66.6001 631.386,-74.1756 634.494,-67.9031"/>
</g>
<!-- Node11 -->
<g id="node11" class="node"><title>Node11</title>
<g id="a_node11"><a xlink:href="../../da/d4e/sv__monsters_8qc.html#ae9c174dd3b336a7270caba2894224d0f" target="_top" xlink:title="Monster_Appear">
<polygon fill="none" stroke="black" points="689,-66.5 689,-85.5 777,-85.5 777,-66.5 689,-66.5"/>
<text text-anchor="middle" x="733" y="-73.5" font-family="Helvetica,sans-Serif" font-size="10.00">Monster_Appear</text>
</a>
</g>
</g>
<!-- Node5&#45;&gt;Node11 -->
<g id="edge11" class="edge"><title>Node5&#45;&gt;Node11</title>
<path fill="none" stroke="midnightblue" d="M657.801,-64.8993C668.13,-66.4447 678.849,-68.0483 688.821,-69.5401"/>
<polygon fill="midnightblue" stroke="midnightblue" points="658.05,-61.3978 647.642,-63.3796 657.015,-68.3207 658.05,-61.3978"/>
</g>
<!-- Node7 -->
<g id="node7" class="node"><title>Node7</title>
<g id="a_node7"><a xlink:href="../../da/d4e/sv__monsters_8qc.html#a64003301dcc44254935df433ea236780" target="_top" xlink:title="Monster_Dead_Fade">
<polygon fill="none" stroke="black" points="825.5,-94.5 825.5,-113.5 932.5,-113.5 932.5,-94.5 825.5,-94.5"/>
<text text-anchor="middle" x="879" y="-101.5" font-family="Helvetica,sans-Serif" font-size="10.00">Monster_Dead_Fade</text>
</a>
</g>
</g>
<!-- Node6&#45;&gt;Node7 -->
<g id="edge6" class="edge"><title>Node6&#45;&gt;Node7</title>
<path fill="none" stroke="midnightblue" d="M792.518,-109.936C803.29,-109.188 814.48,-108.411 825.076,-107.675"/>
<polygon fill="midnightblue" stroke="midnightblue" points="792.084,-106.458 782.351,-110.642 792.569,-113.441 792.084,-106.458"/>
</g>
<!-- Node8 -->
<g id="node8" class="node"><title>Node8</title>
<g id="a_node8"><a xlink:href="../../da/d4e/sv__monsters_8qc.html#a304ebddf2011e967eb6e3d0da5b4a760" target="_top" xlink:title="Monster_Dead_Think">
<polygon fill="none" stroke="black" points="976,-77.5 976,-96.5 1086,-96.5 1086,-77.5 976,-77.5"/>
<text text-anchor="middle" x="1031" y="-84.5" font-family="Helvetica,sans-Serif" font-size="10.00">Monster_Dead_Think</text>
</a>
</g>
</g>
<!-- Node7&#45;&gt;Node8 -->
<g id="edge7" class="edge"><title>Node7&#45;&gt;Node8</title>
<path fill="none" stroke="midnightblue" d="M942.826,-96.8797C953.791,-95.637 965.112,-94.3539 975.819,-93.1405"/>
<polygon fill="midnightblue" stroke="midnightblue" points="942.427,-93.4025 932.884,-98.0064 943.215,-100.358 942.427,-93.4025"/>
</g>
<!-- Node9 -->
<g id="node9" class="node"><title>Node9</title>
<g id="a_node9"><a xlink:href="../../da/d4e/sv__monsters_8qc.html#a9fe966953fdc6ae52562b48fe4776295" target="_top" xlink:title="Monster_Dead">
<polygon fill="none" stroke="black" points="1122,-44.5 1122,-63.5 1202,-63.5 1202,-44.5 1122,-44.5"/>
<text text-anchor="middle" x="1162" y="-51.5" font-family="Helvetica,sans-Serif" font-size="10.00">Monster_Dead</text>
</a>
</g>
</g>
<!-- Node8&#45;&gt;Node9 -->
<g id="edge8" class="edge"><title>Node8&#45;&gt;Node9</title>
<path fill="none" stroke="midnightblue" d="M1079.23,-74.9185C1093.91,-71.1634 1109.87,-67.0786 1123.77,-63.5235"/>
<polygon fill="midnightblue" stroke="midnightblue" points="1078.13,-71.5858 1069.31,-77.455 1079.87,-78.3674 1078.13,-71.5858"/>
</g>
<!-- Node10 -->
<g id="node10" class="node"><title>Node10</title>
<g id="a_node10"><a xlink:href="../../da/d4e/sv__monsters_8qc.html#a100d851a4f02e4bd6177462aad0a9d1f" target="_top" xlink:title="Monster_Damage">
<polygon fill="none" stroke="black" points="1238,-17.5 1238,-36.5 1332,-36.5 1332,-17.5 1238,-17.5"/>
<text text-anchor="middle" x="1285" y="-24.5" font-family="Helvetica,sans-Serif" font-size="10.00">Monster_Damage</text>
</a>
</g>
</g>
<!-- Node9&#45;&gt;Node10 -->
<g id="edge9" class="edge"><title>Node9&#45;&gt;Node10</title>
<path fill="none" stroke="midnightblue" d="M1212.12,-43.0389C1221.74,-40.8927 1231.76,-38.6576 1241.15,-36.5613"/>
<polygon fill="midnightblue" stroke="midnightblue" points="1211.28,-39.64 1202.29,-45.2339 1212.81,-46.4719 1211.28,-39.64"/>
</g>
<!-- Node10&#45;&gt;Node5 -->
<g id="edge10" class="edge"><title>Node10&#45;&gt;Node5</title>
<path fill="none" stroke="midnightblue" d="M1227.57,-17.4701C1176.62,-9.69846 1099.51,-3.32373e-15 1032,-0 878,-0 878,-0 878,-0 786.248,-7.10543e-15 680.743,-31.233 632.12,-47.4595"/>
<polygon fill="midnightblue" stroke="midnightblue" points="1227.29,-20.9697 1237.71,-19.0451 1228.37,-14.0526 1227.29,-20.9697"/>
</g>
<!-- Node12 -->
<g id="node12" class="node"><title>Node12</title>
<g id="a_node12"><a xlink:href="../../da/d4e/sv__monsters_8qc.html#a0c5d94fd195b12611f3bd45c0546bfca" target="_top" xlink:title="Monster_Appear_Check">
<polygon fill="none" stroke="black" points="818,-47.5 818,-66.5 940,-66.5 940,-47.5 818,-47.5"/>
<text text-anchor="middle" x="879" y="-54.5" font-family="Helvetica,sans-Serif" font-size="10.00">Monster_Appear_Check</text>
</a>
</g>
</g>
<!-- Node11&#45;&gt;Node12 -->
<g id="edge12" class="edge"><title>Node11&#45;&gt;Node12</title>
<path fill="none" stroke="midnightblue" d="M787.326,-68.964C797.247,-67.6549 807.677,-66.2787 817.788,-64.9446"/>
<polygon fill="midnightblue" stroke="midnightblue" points="786.661,-65.5213 777.205,-70.2994 787.577,-72.4611 786.661,-65.5213"/>
</g>
<!-- Node12&#45;&gt;Node5 -->
<g id="edge13" class="edge"><title>Node12&#45;&gt;Node5</title>
<path fill="none" stroke="midnightblue" d="M807.7,-57C757.086,-57 690.447,-57 647.656,-57"/>
<polygon fill="midnightblue" stroke="midnightblue" points="807.92,-60.5001 817.92,-57 807.92,-53.5001 807.92,-60.5001"/>
</g>
</g>
</svg>
        <g id="navigator" transform="translate(0 0)" fill="#404254">
                <rect fill="#f2f5e9" fill-opacity="0.5" stroke="#606060" stroke-width=".5" x="0" y="0" width="60" height="60"/>
                <use id="zoomplus" xlink:href="#zoomPlus" x="17" y="9" onmousedown="handleZoom(evt,'in')"/>
                <use id="zoomminus" xlink:href="#zoomMin" x="42" y="9" onmousedown="handleZoom(evt,'out')"/>
                <use id="reset" xlink:href="#resetDef" x="30" y="36" onmousedown="handleReset()"/>
                <g id="arrowUp" xlink:href="#dirArrow" transform="translate(30 24)" onmousedown="handlePan(0,-1)">
                  <use xlink:href="#rim" fill="#404040">
                        <set attributeName="fill" to="#808080" begin="arrowUp.mouseover" end="arrowUp.mouseout"/>
                  </use>
                  <path fill="none" stroke="white" stroke-width="1.5" d="M0,-3.0v7 M-2.5,-0.5L0,-3.0L2.5,-0.5"/>
                </g>
                <g id="arrowRight" xlink:href="#dirArrow" transform="rotate(90) translate(36 -43)" onmousedown="handlePan(1,0)">
                  <use xlink:href="#rim" fill="#404040">
                        <set attributeName="fill" to="#808080" begin="arrowRight.mouseover" end="arrowRight.mouseout"/>
                  </use>
                  <path fill="none" stroke="white" stroke-width="1.5" d="M0,-3.0v7 M-2.5,-0.5L0,-3.0L2.5,-0.5"/>
                </g>
                <g id="arrowDown" xlink:href="#dirArrow" transform="rotate(180) translate(-30 -48)" onmousedown="handlePan(0,1)">
                  <use xlink:href="#rim" fill="#404040">
                        <set attributeName="fill" to="#808080" begin="arrowDown.mouseover" end="arrowDown.mouseout"/>
                  </use>
                  <path fill="none" stroke="white" stroke-width="1.5" d="M0,-3.0v7 M-2.5,-0.5L0,-3.0L2.5,-0.5"/>
                </g>
                <g id="arrowLeft" xlink:href="#dirArrow" transform="rotate(270) translate(-36 17)" onmousedown="handlePan(-1,0)">
                  <use xlink:href="#rim" fill="#404040">
                        <set attributeName="fill" to="#808080" begin="arrowLeft.mouseover" end="arrowLeft.mouseout"/>
                  </use>
                  <path fill="none" stroke="white" stroke-width="1.5" d="M0,-3.0v7 M-2.5,-0.5L0,-3.0L2.5,-0.5"/>
                </g>
        </g>
        <svg viewBox="0 0 15 15" width="100%" height="30px" preserveAspectRatio="xMaxYMin meet">
         <g id="arrow_out" transform="scale(0.3 0.3)">
          <a xlink:href="sv__monsters_8qc_a9f4b8bc489dca284023b26ed642e5dda_icgraph_org.svg" target="_base">
           <rect id="button" ry="5" rx="5" y="6" x="6" height="38" width="38"
                fill="#f2f5e9" fill-opacity="0.5" stroke="#606060" stroke-width="1.0"/>
           <path id="arrow"
             d="M 11.500037,31.436501 C 11.940474,20.09759 22.043105,11.32322 32.158766,21.979434 L 37.068811,17.246167 C 37.068811,17.246167 37.088388,32 37.088388,32 L 22.160133,31.978069 C 22.160133,31.978069 26.997745,27.140456 26.997745,27.140456 C 18.528582,18.264221 13.291696,25.230495 11.500037,31.436501 z"
             style="fill:#404040;"/>
          </a>
         </g>
        </svg>
</svg>
