<?xml version="1.0" encoding="UTF-8" standalone="no"?>
<!DOCTYPE svg PUBLIC "-//W3C//DTD SVG 1.1//EN"
 "http://www.w3.org/Graphics/SVG/1.1/DTD/svg11.dtd">
<!-- Generated by graphviz version 2.38.0 (20140413.2041)
 -->
<!-- Title: Monster_ValidTarget Pages: 1 -->
<!--zoomable 294 -->
<svg id="main" version="1.1" xmlns="http://www.w3.org/2000/svg" xmlns:xlink="http://www.w3.org/1999/xlink" xml:space="preserve" onload="init(evt)">
<style type="text/css"><![CDATA[
.edge:hover path { stroke: red; }
.edge:hover polygon { stroke: red; fill: red; }
]]></style>
<script type="text/javascript"><![CDATA[
var edges = document.getElementsByTagName('g');
if (edges && edges.length) {
  for (var i=0;i<edges.length;i++) {
    if (edges[i].id.substr(0,4)=='edge') {
      edges[i].setAttribute('class','edge');
    }
  }
}
]]></script>
        <defs>
                <circle id="rim" cx="0" cy="0" r="7"/>
                <circle id="rim2" cx="0" cy="0" r="3.5"/>
                <g id="zoomPlus">
                        <use xlink:href="#rim" fill="#404040">
                                <set attributeName="fill" to="#808080" begin="zoomplus.mouseover" end="zoomplus.mouseout"/>
                        </use>
                        <path d="M-4,0h8M0,-4v8" fill="none" stroke="white" stroke-width="1.5" pointer-events="none"/>
                </g>
                <g id="zoomMin">
                        <use xlink:href="#rim" fill="#404040">
                                <set attributeName="fill" to="#808080" begin="zoomminus.mouseover" end="zoomminus.mouseout"/>
                        </use>
                        <path d="M-4,0h8" fill="none" stroke="white" stroke-width="1.5" pointer-events="none"/>
                </g>
                <g id="dirArrow">
                        <path fill="none" stroke="white" stroke-width="1.5" d="M0,-3.0v7 M-2.5,-0.5L0,-3.0L2.5,-0.5"/>
                </g>
               <g id="resetDef">
                       <use xlink:href="#rim2" fill="#404040">
                               <set attributeName="fill" to="#808080" begin="reset.mouseover" end="reset.mouseout"/>
                       </use>
               </g>
        </defs>

<script type="text/javascript">
var viewWidth = 1922;
var viewHeight = 294;
var sectionId = 'dynsection-82';
</script>
<script xlink:href="../../svgpan.js"/>
<svg id="graph" class="graph">
<g id="viewport">
<title>Monster_ValidTarget</title>
<!-- Node1 -->
<g id="node1" class="node"><title>Node1</title>
<polygon fill="#bfbfbf" stroke="black" points="0,-190.5 0,-209.5 113,-209.5 113,-190.5 0,-190.5"/>
<text text-anchor="middle" x="56.5" y="-197.5" font-family="Helvetica,sans-Serif" font-size="10.00">Monster_ValidTarget</text>
</g>
<!-- Node2 -->
<g id="node2" class="node"><title>Node2</title>
<g id="a_node2"><a xlink:href="../../da/d4e/sv__monsters_8qc.html#a6992e7a5de16a5cdc7d1c1840c8be1c3" target="_top" xlink:title="Monster_Delay_Action">
<polygon fill="none" stroke="black" points="149,-247.5 149,-266.5 272,-266.5 272,-247.5 149,-247.5"/>
<text text-anchor="middle" x="210.5" y="-254.5" font-family="Helvetica,sans-Serif" font-size="10.00">Monster_Delay_Action</text>
</a>
</g>
</g>
<!-- Node1&#45;&gt;Node2 -->
<g id="edge1" class="edge"><title>Node1&#45;&gt;Node2</title>
<path fill="none" stroke="midnightblue" d="M92.3413,-213.065C120.281,-223.543 158.847,-238.005 183.976,-247.428"/>
<polygon fill="midnightblue" stroke="midnightblue" points="93.5336,-209.775 82.9414,-209.541 91.0757,-216.329 93.5336,-209.775"/>
</g>
<!-- Node4 -->
<g id="node4" class="node"><title>Node4</title>
<g id="a_node4"><a xlink:href="../../d8/dc1/sv__monsters_8qh.html#a76ebe147579e46d75406196c26fe2089" target="_top" xlink:title="Monster_Touch">
<polygon fill="none" stroke="black" points="166.5,-190.5 166.5,-209.5 254.5,-209.5 254.5,-190.5 166.5,-190.5"/>
<text text-anchor="middle" x="210.5" y="-197.5" font-family="Helvetica,sans-Serif" font-size="10.00">Monster_Touch</text>
</a>
</g>
</g>
<!-- Node1&#45;&gt;Node4 -->
<g id="edge3" class="edge"><title>Node1&#45;&gt;Node4</title>
<path fill="none" stroke="midnightblue" d="M123.609,-200C138.013,-200 152.899,-200 166.149,-200"/>
<polygon fill="midnightblue" stroke="midnightblue" points="123.236,-196.5 113.236,-200 123.236,-203.5 123.236,-196.5"/>
</g>
<!-- Node27 -->
<g id="node27" class="node"><title>Node27</title>
<g id="a_node27"><a xlink:href="../../da/d4e/sv__monsters_8qc.html#a3ecdc246e0ff602e8bb252b32b298746" target="_top" xlink:title="Monster_Use">
<polygon fill="none" stroke="black" points="435,-114.5 435,-133.5 515,-133.5 515,-114.5 435,-114.5"/>
<text text-anchor="middle" x="475" y="-121.5" font-family="Helvetica,sans-Serif" font-size="10.00">Monster_Use</text>
</a>
</g>
</g>
<!-- Node1&#45;&gt;Node27 -->
<g id="edge30" class="edge"><title>Node1&#45;&gt;Node27</title>
<path fill="none" stroke="midnightblue" d="M103.622,-187.904C153.65,-175.16 236.017,-155.271 308,-143 351.179,-135.639 401.174,-130.352 434.922,-127.252"/>
<polygon fill="midnightblue" stroke="midnightblue" points="102.575,-184.559 93.7563,-190.431 104.312,-191.34 102.575,-184.559"/>
</g>
<!-- Node3 -->
<g id="node3" class="node"><title>Node3</title>
<g id="a_node3"><a xlink:href="../../d8/dc1/sv__monsters_8qh.html#a02694937ddf3dc6935c9ac7db73a7668" target="_top" xlink:title="Monster_Delay">
<polygon fill="none" stroke="black" points="308,-266.5 308,-285.5 396,-285.5 396,-266.5 308,-266.5"/>
<text text-anchor="middle" x="352" y="-273.5" font-family="Helvetica,sans-Serif" font-size="10.00">Monster_Delay</text>
</a>
</g>
</g>
<!-- Node2&#45;&gt;Node3 -->
<g id="edge2" class="edge"><title>Node2&#45;&gt;Node3</title>
<path fill="none" stroke="midnightblue" d="M282.369,-266.652C290.981,-267.825 299.57,-268.995 307.611,-270.09"/>
<polygon fill="midnightblue" stroke="midnightblue" points="282.662,-263.16 272.281,-265.278 281.717,-270.096 282.662,-263.16"/>
</g>
<!-- Node5 -->
<g id="node5" class="node"><title>Node5</title>
<g id="a_node5"><a xlink:href="../../da/d4e/sv__monsters_8qc.html#a37f7dbf3b68666c1a9348403d38490b8" target="_top" xlink:title="Monster_Move">
<polygon fill="none" stroke="black" points="309,-152.5 309,-171.5 395,-171.5 395,-152.5 309,-152.5"/>
<text text-anchor="middle" x="352" y="-159.5" font-family="Helvetica,sans-Serif" font-size="10.00">Monster_Move</text>
</a>
</g>
</g>
<!-- Node4&#45;&gt;Node5 -->
<g id="edge4" class="edge"><title>Node4&#45;&gt;Node5</title>
<path fill="none" stroke="midnightblue" d="M256.456,-187.754C275.685,-182.516 297.803,-176.491 315.81,-171.586"/>
<polygon fill="midnightblue" stroke="midnightblue" points="255.43,-184.406 246.702,-190.411 257.27,-191.16 255.43,-184.406"/>
</g>
<!-- Node8 -->
<g id="node8" class="node"><title>Node8</title>
<g id="a_node8"><a xlink:href="../../d8/dc1/sv__monsters_8qh.html#a1e264a94238b71678a588bef93292d8a" target="_top" xlink:title="Monster_Spawn">
<polygon fill="none" stroke="black" points="716,-133.5 716,-152.5 808,-152.5 808,-133.5 716,-133.5"/>
<text text-anchor="middle" x="762" y="-140.5" font-family="Helvetica,sans-Serif" font-size="10.00">Monster_Spawn</text>
</a>
</g>
</g>
<!-- Node4&#45;&gt;Node8 -->
<g id="edge29" class="edge"><title>Node4&#45;&gt;Node8</title>
<path fill="none" stroke="midnightblue" d="M264.594,-204.585C352.458,-210.687 533.001,-216.91 680,-181 704.143,-175.102 729.748,-161.733 745.556,-152.535"/>
<polygon fill="midnightblue" stroke="midnightblue" points="264.827,-201.093 254.601,-203.864 264.323,-208.075 264.827,-201.093"/>
</g>
<!-- Node12 -->
<g id="node12" class="node"><title>Node12</title>
<g id="a_node12"><a xlink:href="../../da/d4e/sv__monsters_8qc.html#a9fe966953fdc6ae52562b48fe4776295" target="_top" xlink:title="Monster_Dead">
<polygon fill="none" stroke="black" points="1376,-190.5 1376,-209.5 1462,-209.5 1462,-190.5 1376,-190.5"/>
<text text-anchor="middle" x="1419" y="-197.5" font-family="Helvetica,sans-Serif" font-size="10.00">Monster_Dead</text>
</a>
</g>
</g>
<!-- Node4&#45;&gt;Node12 -->
<g id="edge28" class="edge"><title>Node4&#45;&gt;Node12</title>
<path fill="none" stroke="midnightblue" d="M258.394,-211.96C274.082,-215.621 291.719,-219.371 308,-222 381.172,-233.817 399.88,-238 474,-238 474,-238 474,-238 1066.5,-238 1180.37,-238 1209.16,-234.304 1322,-219 1339.68,-216.602 1359,-212.975 1375.65,-209.53"/>
<polygon fill="midnightblue" stroke="midnightblue" points="258.939,-208.492 248.401,-209.58 257.318,-215.301 258.939,-208.492"/>
</g>
<!-- Node6 -->
<g id="node6" class="node"><title>Node6</title>
<g id="a_node6"><a xlink:href="../../da/d4e/sv__monsters_8qc.html#af743ad44b5406594d65a3cc6cc434503" target="_top" xlink:title="Monster_Think">
<polygon fill="none" stroke="black" points="432,-152.5 432,-171.5 518,-171.5 518,-152.5 432,-152.5"/>
<text text-anchor="middle" x="475" y="-159.5" font-family="Helvetica,sans-Serif" font-size="10.00">Monster_Think</text>
</a>
</g>
</g>
<!-- Node5&#45;&gt;Node6 -->
<g id="edge5" class="edge"><title>Node5&#45;&gt;Node6</title>
<path fill="none" stroke="midnightblue" d="M405.523,-162C414.344,-162 423.395,-162 431.908,-162"/>
<polygon fill="midnightblue" stroke="midnightblue" points="405.32,-158.5 395.32,-162 405.32,-165.5 405.32,-158.5"/>
</g>
<!-- Node7 -->
<g id="node7" class="node"><title>Node7</title>
<g id="a_node7"><a xlink:href="../../da/d4e/sv__monsters_8qc.html#ae8583f9bde31f60a7137868d603e2b58" target="_top" xlink:title="Monster_Spawn_Setup">
<polygon fill="none" stroke="black" points="554,-152.5 554,-171.5 680,-171.5 680,-152.5 554,-152.5"/>
<text text-anchor="middle" x="617" y="-159.5" font-family="Helvetica,sans-Serif" font-size="10.00">Monster_Spawn_Setup</text>
</a>
</g>
</g>
<!-- Node6&#45;&gt;Node7 -->
<g id="edge6" class="edge"><title>Node6&#45;&gt;Node7</title>
<path fill="none" stroke="midnightblue" d="M528.038,-162C536.444,-162 545.22,-162 553.836,-162"/>
<polygon fill="midnightblue" stroke="midnightblue" points="528.005,-158.5 518.005,-162 528.005,-165.5 528.005,-158.5"/>
</g>
<!-- Node7&#45;&gt;Node8 -->
<g id="edge7" class="edge"><title>Node7&#45;&gt;Node8</title>
<path fill="none" stroke="midnightblue" d="M690.392,-152.382C699.002,-151.238 707.595,-150.096 715.671,-149.023"/>
<polygon fill="midnightblue" stroke="midnightblue" points="689.758,-148.935 680.306,-153.722 690.68,-155.874 689.758,-148.935"/>
</g>
<!-- Node9 -->
<g id="node9" class="node"><title>Node9</title>
<g id="a_node9"><a xlink:href="../../da/d4e/sv__monsters_8qc.html#a2b57b31035d01a69ccd6e8c6970ed5dd" target="_top" xlink:title="Monster_Respawn">
<polygon fill="none" stroke="black" points="844,-190.5 844,-209.5 946,-209.5 946,-190.5 844,-190.5"/>
<text text-anchor="middle" x="895" y="-197.5" font-family="Helvetica,sans-Serif" font-size="10.00">Monster_Respawn</text>
</a>
</g>
</g>
<!-- Node8&#45;&gt;Node9 -->
<g id="edge8" class="edge"><title>Node8&#45;&gt;Node9</title>
<path fill="none" stroke="midnightblue" d="M794.298,-156.618C818.265,-167.046 850.723,-181.17 872.002,-190.428"/>
<polygon fill="midnightblue" stroke="midnightblue" points="795.493,-153.321 784.926,-152.541 792.7,-159.74 795.493,-153.321"/>
</g>
<!-- Node14 -->
<g id="node14" class="node"><title>Node14</title>
<g id="a_node14"><a xlink:href="../../da/d4e/sv__monsters_8qc.html#ae9c174dd3b336a7270caba2894224d0f" target="_top" xlink:title="Monster_Appear">
<polygon fill="none" stroke="black" points="847.5,-114.5 847.5,-133.5 942.5,-133.5 942.5,-114.5 847.5,-114.5"/>
<text text-anchor="middle" x="895" y="-121.5" font-family="Helvetica,sans-Serif" font-size="10.00">Monster_Appear</text>
</a>
</g>
</g>
<!-- Node8&#45;&gt;Node14 -->
<g id="edge14" class="edge"><title>Node8&#45;&gt;Node14</title>
<path fill="none" stroke="midnightblue" d="M818.119,-135.006C827.895,-133.588 837.989,-132.124 847.497,-130.745"/>
<polygon fill="midnightblue" stroke="midnightblue" points="817.477,-131.562 808.083,-136.461 818.482,-138.49 817.477,-131.562"/>
</g>
<!-- Node16 -->
<g id="node16" class="node"><title>Node16</title>
<g id="a_node16"><a xlink:href="../../d3/d3e/sv__spawn_8qh.html#a6cfe31b7427d7ec23125a64297039731" target="_top" xlink:title="spawnmonster">
<polygon fill="none" stroke="black" points="851.5,-38.5 851.5,-57.5 938.5,-57.5 938.5,-38.5 851.5,-38.5"/>
<text text-anchor="middle" x="895" y="-45.5" font-family="Helvetica,sans-Serif" font-size="10.00">spawnmonster</text>
</a>
</g>
</g>
<!-- Node8&#45;&gt;Node16 -->
<g id="edge17" class="edge"><title>Node8&#45;&gt;Node16</title>
<path fill="none" stroke="midnightblue" d="M779.586,-126.02C795.226,-110.626 819.815,-87.9704 844,-72 852.276,-66.535 861.986,-61.5825 870.637,-57.6147"/>
<polygon fill="midnightblue" stroke="midnightblue" points="776.868,-123.787 772.272,-133.333 781.818,-128.737 776.868,-123.787"/>
</g>
<!-- Node10 -->
<g id="node10" class="node"><title>Node10</title>
<g id="a_node10"><a xlink:href="../../da/d4e/sv__monsters_8qc.html#a64003301dcc44254935df433ea236780" target="_top" xlink:title="Monster_Dead_Fade">
<polygon fill="none" stroke="black" points="1008.5,-190.5 1008.5,-209.5 1122.5,-209.5 1122.5,-190.5 1008.5,-190.5"/>
<text text-anchor="middle" x="1065.5" y="-197.5" font-family="Helvetica,sans-Serif" font-size="10.00">Monster_Dead_Fade</text>
</a>
</g>
</g>
<!-- Node9&#45;&gt;Node10 -->
<g id="edge9" class="edge"><title>Node9&#45;&gt;Node10</title>
<path fill="none" stroke="midnightblue" d="M956.439,-200C973.38,-200 991.72,-200 1008.4,-200"/>
<polygon fill="midnightblue" stroke="midnightblue" points="956.099,-196.5 946.099,-200 956.099,-203.5 956.099,-196.5"/>
</g>
<!-- Node11 -->
<g id="node11" class="node"><title>Node11</title>
<g id="a_node11"><a xlink:href="../../da/d4e/sv__monsters_8qc.html#a304ebddf2011e967eb6e3d0da5b4a760" target="_top" xlink:title="Monster_Dead_Think">
<polygon fill="none" stroke="black" points="1195.5,-190.5 1195.5,-209.5 1311.5,-209.5 1311.5,-190.5 1195.5,-190.5"/>
<text text-anchor="middle" x="1253.5" y="-197.5" font-family="Helvetica,sans-Serif" font-size="10.00">Monster_Dead_Think</text>
</a>
</g>
</g>
<!-- Node10&#45;&gt;Node11 -->
<g id="edge10" class="edge"><title>Node10&#45;&gt;Node11</title>
<path fill="none" stroke="midnightblue" d="M1132.73,-200C1153.17,-200 1175.49,-200 1195.27,-200"/>
<polygon fill="midnightblue" stroke="midnightblue" points="1132.56,-196.5 1122.56,-200 1132.56,-203.5 1132.56,-196.5"/>
</g>
<!-- Node11&#45;&gt;Node12 -->
<g id="edge11" class="edge"><title>Node11&#45;&gt;Node12</title>
<path fill="none" stroke="midnightblue" d="M1321.72,-200C1340.02,-200 1359.32,-200 1375.79,-200"/>
<polygon fill="midnightblue" stroke="midnightblue" points="1321.68,-196.5 1311.68,-200 1321.68,-203.5 1321.68,-196.5"/>
</g>
<!-- Node13 -->
<g id="node13" class="node"><title>Node13</title>
<g id="a_node13"><a xlink:href="../../da/d4e/sv__monsters_8qc.html#a07727352fce183ccb8e2db2f168ad393" target="_top" xlink:title="Monster_Damage">
<polygon fill="none" stroke="black" points="1522,-171.5 1522,-190.5 1624,-190.5 1624,-171.5 1522,-171.5"/>
<text text-anchor="middle" x="1573" y="-178.5" font-family="Helvetica,sans-Serif" font-size="10.00">Monster_Damage</text>
</a>
</g>
</g>
<!-- Node12&#45;&gt;Node13 -->
<g id="edge12" class="edge"><title>Node12&#45;&gt;Node13</title>
<path fill="none" stroke="midnightblue" d="M1472.57,-193.429C1488.53,-191.434 1506.01,-189.249 1521.8,-187.274"/>
<polygon fill="midnightblue" stroke="midnightblue" points="1471.83,-189.994 1462.34,-194.707 1472.7,-196.94 1471.83,-189.994"/>
</g>
<!-- Node13&#45;&gt;Node8 -->
<g id="edge13" class="edge"><title>Node13&#45;&gt;Node8</title>
<path fill="none" stroke="midnightblue" d="M1511.46,-175.219C1447.62,-169.629 1344.08,-162 1254.5,-162 1064.5,-162 1064.5,-162 1064.5,-162 973.372,-162 867.058,-153.248 808.149,-147.624"/>
<polygon fill="midnightblue" stroke="midnightblue" points="1511.47,-178.734 1521.74,-176.132 1512.09,-171.761 1511.47,-178.734"/>
</g>
<!-- Node15 -->
<g id="node15" class="node"><title>Node15</title>
<g id="a_node15"><a xlink:href="../../da/d4e/sv__monsters_8qc.html#a0c5d94fd195b12611f3bd45c0546bfca" target="_top" xlink:title="Monster_Appear_Check">
<polygon fill="none" stroke="black" points="1000.5,-114.5 1000.5,-133.5 1130.5,-133.5 1130.5,-114.5 1000.5,-114.5"/>
<text text-anchor="middle" x="1065.5" y="-121.5" font-family="Helvetica,sans-Serif" font-size="10.00">Monster_Appear_Check</text>
</a>
</g>
</g>
<!-- Node14&#45;&gt;Node15 -->
<g id="edge15" class="edge"><title>Node14&#45;&gt;Node15</title>
<path fill="none" stroke="midnightblue" d="M953.227,-124C968.434,-124 984.955,-124 1000.5,-124"/>
<polygon fill="midnightblue" stroke="midnightblue" points="952.937,-120.5 942.937,-124 952.937,-127.5 952.937,-120.5"/>
</g>
<!-- Node15&#45;&gt;Node8 -->
<g id="edge16" class="edge"><title>Node15&#45;&gt;Node8</title>
<path fill="none" stroke="midnightblue" d="M1019.29,-112.179C974.342,-102.271 903.669,-91.699 844,-105 819.591,-110.441 793.846,-124.068 778.101,-133.433"/>
<polygon fill="midnightblue" stroke="midnightblue" points="1018.78,-115.652 1029.31,-114.47 1020.34,-108.828 1018.78,-115.652"/>
</g>
<!-- Node17 -->
<g id="node17" class="node"><title>Node17</title>
<g id="a_node17"><a xlink:href="../../db/da5/sv__invasion_8qc.html#aff0df3dfdc8b2936711b973638f070df" target="_top" xlink:title="invasion_SpawnChosenMonster">
<polygon fill="none" stroke="black" points="982,-76.5 982,-95.5 1149,-95.5 1149,-76.5 982,-76.5"/>
<text text-anchor="middle" x="1065.5" y="-83.5" font-family="Helvetica,sans-Serif" font-size="10.00">invasion_SpawnChosenMonster</text>
</a>
</g>
</g>
<!-- Node16&#45;&gt;Node17 -->
<g id="edge18" class="edge"><title>Node16&#45;&gt;Node17</title>
<path fill="none" stroke="midnightblue" d="M948.431,-59.8243C972.187,-65.1816 999.899,-71.4311 1022.29,-76.4799"/>
<polygon fill="midnightblue" stroke="midnightblue" points="949.045,-56.3748 938.52,-57.589 947.505,-63.2033 949.045,-56.3748"/>
</g>
<!-- Node23 -->
<g id="node23" class="node"><title>Node23</title>
<g id="a_node23"><a xlink:href="../../de/dbb/sv__spawner_8qc.html#a1251dfcf5b3c88b4572dfc13273f6f39" target="_top" xlink:title="spawner_use">
<polygon fill="none" stroke="black" points="1026,-38.5 1026,-57.5 1105,-57.5 1105,-38.5 1026,-38.5"/>
<text text-anchor="middle" x="1065.5" y="-45.5" font-family="Helvetica,sans-Serif" font-size="10.00">spawner_use</text>
</a>
</g>
</g>
<!-- Node16&#45;&gt;Node23 -->
<g id="edge24" class="edge"><title>Node16&#45;&gt;Node23</title>
<path fill="none" stroke="midnightblue" d="M948.563,-48C973.529,-48 1002.84,-48 1025.74,-48"/>
<polygon fill="midnightblue" stroke="midnightblue" points="948.52,-44.5001 938.52,-48 948.52,-51.5001 948.52,-44.5001"/>
</g>
<!-- Node25 -->
<g id="node25" class="node"><title>Node25</title>
<g id="a_node25"><a xlink:href="../../d2/d06/server_2command_2common_8qh.html#a31c9eecd432f1aaee8637466cb8c1bea" target="_top" xlink:title="CommonCommand_editmob">
<polygon fill="none" stroke="black" points="987.5,-0.5 987.5,-19.5 1143.5,-19.5 1143.5,-0.5 987.5,-0.5"/>
<text text-anchor="middle" x="1065.5" y="-7.5" font-family="Helvetica,sans-Serif" font-size="10.00">CommonCommand_editmob</text>
</a>
</g>
</g>
<!-- Node16&#45;&gt;Node25 -->
<g id="edge26" class="edge"><title>Node16&#45;&gt;Node25</title>
<path fill="none" stroke="midnightblue" d="M948.431,-36.1757C972.187,-30.8184 999.899,-24.5689 1022.29,-19.5201"/>
<polygon fill="midnightblue" stroke="midnightblue" points="947.505,-32.7967 938.52,-38.411 949.045,-39.6252 947.505,-32.7967"/>
</g>
<!-- Node18 -->
<g id="node18" class="node"><title>Node18</title>
<g id="a_node18"><a xlink:href="../../db/da5/sv__invasion_8qc.html#af8f2b47bd3440a92ec9100cf6dd2c870" target="_top" xlink:title="invasion_SpawnMonsters">
<polygon fill="none" stroke="black" points="1185,-76.5 1185,-95.5 1322,-95.5 1322,-76.5 1185,-76.5"/>
<text text-anchor="middle" x="1253.5" y="-83.5" font-family="Helvetica,sans-Serif" font-size="10.00">invasion_SpawnMonsters</text>
</a>
</g>
</g>
<!-- Node17&#45;&gt;Node18 -->
<g id="edge19" class="edge"><title>Node17&#45;&gt;Node18</title>
<path fill="none" stroke="midnightblue" d="M1159.27,-86C1167.9,-86 1176.52,-86 1184.86,-86"/>
<polygon fill="midnightblue" stroke="midnightblue" points="1159.17,-82.5001 1149.17,-86 1159.17,-89.5001 1159.17,-82.5001"/>
</g>
<!-- Node19 -->
<g id="node19" class="node"><title>Node19</title>
<g id="a_node19"><a xlink:href="../../db/da5/sv__invasion_8qc.html#aca840f4cbd32c801017e724fa0399374" target="_top" xlink:title="Invasion_CheckWinner">
<polygon fill="none" stroke="black" points="1358,-76.5 1358,-95.5 1480,-95.5 1480,-76.5 1358,-76.5"/>
<text text-anchor="middle" x="1419" y="-83.5" font-family="Helvetica,sans-Serif" font-size="10.00">Invasion_CheckWinner</text>
</a>
</g>
</g>
<!-- Node18&#45;&gt;Node19 -->
<g id="edge20" class="edge"><title>Node18&#45;&gt;Node19</title>
<path fill="none" stroke="midnightblue" d="M1332.69,-86C1341.15,-86 1349.66,-86 1357.86,-86"/>
<polygon fill="midnightblue" stroke="midnightblue" points="1332.42,-82.5001 1322.42,-86 1332.42,-89.5001 1332.42,-82.5001"/>
</g>
<!-- Node20 -->
<g id="node20" class="node"><title>Node20</title>
<g id="a_node20"><a xlink:href="../../db/da5/sv__invasion_8qc.html#a236fd86093117aeb98743e15f440f9d3" target="_top" xlink:title="invasion_DelayedInit">
<polygon fill="none" stroke="black" points="1516,-76.5 1516,-95.5 1630,-95.5 1630,-76.5 1516,-76.5"/>
<text text-anchor="middle" x="1573" y="-83.5" font-family="Helvetica,sans-Serif" font-size="10.00">invasion_DelayedInit</text>
</a>
</g>
</g>
<!-- Node19&#45;&gt;Node20 -->
<g id="edge21" class="edge"><title>Node19&#45;&gt;Node20</title>
<path fill="none" stroke="midnightblue" d="M1490.12,-86C1498.73,-86 1507.45,-86 1515.83,-86"/>
<polygon fill="midnightblue" stroke="midnightblue" points="1490.07,-82.5001 1480.07,-86 1490.07,-89.5001 1490.07,-82.5001"/>
</g>
<!-- Node21 -->
<g id="node21" class="node"><title>Node21</title>
<g id="a_node21"><a xlink:href="../../d2/db1/sv__invasion_8qh.html#a25529cc1c6aba9e850432cf8d26a5e93" target="_top" xlink:title="invasion_Initialize">
<polygon fill="none" stroke="black" points="1666,-76.5 1666,-95.5 1765,-95.5 1765,-76.5 1666,-76.5"/>
<text text-anchor="middle" x="1715.5" y="-83.5" font-family="Helvetica,sans-Serif" font-size="10.00">invasion_Initialize</text>
</a>
</g>
</g>
<!-- Node20&#45;&gt;Node21 -->
<g id="edge22" class="edge"><title>Node20&#45;&gt;Node21</title>
<path fill="none" stroke="midnightblue" d="M1640.35,-86C1648.95,-86 1657.61,-86 1665.84,-86"/>
<polygon fill="midnightblue" stroke="midnightblue" points="1640.34,-82.5001 1630.34,-86 1640.34,-89.5001 1640.34,-82.5001"/>
</g>
<!-- Node22 -->
<g id="node22" class="node"><title>Node22</title>
<g id="a_node22"><a xlink:href="../../d2/db1/sv__invasion_8qh.html#a6879a53e956f0f1fd079b3015609a852" target="_top" xlink:title="REGISTER_MUTATOR">
<polygon fill="none" stroke="black" points="1801,-76.5 1801,-95.5 1914,-95.5 1914,-76.5 1801,-76.5"/>
<text text-anchor="middle" x="1857.5" y="-83.5" font-family="Helvetica,sans-Serif" font-size="10.00">REGISTER_MUTATOR</text>
</a>
</g>
</g>
<!-- Node21&#45;&gt;Node22 -->
<g id="edge23" class="edge"><title>Node21&#45;&gt;Node22</title>
<path fill="none" stroke="midnightblue" d="M1775.25,-86C1783.72,-86 1792.41,-86 1800.81,-86"/>
<polygon fill="midnightblue" stroke="midnightblue" points="1775.07,-82.5001 1765.07,-86 1775.07,-89.5001 1775.07,-82.5001"/>
</g>
<!-- Node24 -->
<g id="node24" class="node"><title>Node24</title>
<g id="a_node24"><a xlink:href="../../de/dbb/sv__spawner_8qc.html#a3123c628538f58eb7dbc04b5f8435901" target="_top" xlink:title="spawnfunc">
<polygon fill="none" stroke="black" points="1220,-38.5 1220,-57.5 1287,-57.5 1287,-38.5 1220,-38.5"/>
<text text-anchor="middle" x="1253.5" y="-45.5" font-family="Helvetica,sans-Serif" font-size="10.00">spawnfunc</text>
</a>
</g>
</g>
<!-- Node23&#45;&gt;Node24 -->
<g id="edge25" class="edge"><title>Node23&#45;&gt;Node24</title>
<path fill="none" stroke="midnightblue" d="M1115.38,-48C1148.37,-48 1191,-48 1219.91,-48"/>
<polygon fill="midnightblue" stroke="midnightblue" points="1115.04,-44.5001 1105.04,-48 1115.04,-51.5001 1115.04,-44.5001"/>
</g>
<!-- Node26 -->
<g id="node26" class="node"><title>Node26</title>
<g id="a_node26"><a xlink:href="../../d2/d06/server_2command_2common_8qh.html#a61ca75686b7681834a8efe7af123bf2b" target="_top" xlink:title="COMMON_COMMAND">
<polygon fill="none" stroke="black" points="1193.5,-0.5 1193.5,-19.5 1313.5,-19.5 1313.5,-0.5 1193.5,-0.5"/>
<text text-anchor="middle" x="1253.5" y="-7.5" font-family="Helvetica,sans-Serif" font-size="10.00">COMMON_COMMAND</text>
</a>
</g>
</g>
<!-- Node25&#45;&gt;Node26 -->
<g id="edge27" class="edge"><title>Node25&#45;&gt;Node26</title>
<path fill="none" stroke="midnightblue" d="M1153.93,-10C1167.28,-10 1180.79,-10 1193.34,-10"/>
<polygon fill="midnightblue" stroke="midnightblue" points="1153.76,-6.5001 1143.76,-10 1153.76,-13.5001 1153.76,-6.5001"/>
</g>
<!-- Node27&#45;&gt;Node8 -->
<g id="edge31" class="edge"><title>Node27&#45;&gt;Node8</title>
<path fill="none" stroke="midnightblue" d="M525.32,-127.288C578.952,-130.863 663.942,-136.529 715.87,-139.991"/>
<polygon fill="midnightblue" stroke="midnightblue" points="525.241,-123.775 515.03,-126.602 524.775,-130.76 525.241,-123.775"/>
</g>
</g>
</svg>
        <g id="navigator" transform="translate(0 0)" fill="#404254">
                <rect fill="#f2f5e9" fill-opacity="0.5" stroke="#606060" stroke-width=".5" x="0" y="0" width="60" height="60"/>
                <use id="zoomplus" xlink:href="#zoomPlus" x="17" y="9" onmousedown="handleZoom(evt,'in')"/>
                <use id="zoomminus" xlink:href="#zoomMin" x="42" y="9" onmousedown="handleZoom(evt,'out')"/>
                <use id="reset" xlink:href="#resetDef" x="30" y="36" onmousedown="handleReset()"/>
                <g id="arrowUp" xlink:href="#dirArrow" transform="translate(30 24)" onmousedown="handlePan(0,-1)">
                  <use xlink:href="#rim" fill="#404040">
                        <set attributeName="fill" to="#808080" begin="arrowUp.mouseover" end="arrowUp.mouseout"/>
                  </use>
                  <path fill="none" stroke="white" stroke-width="1.5" d="M0,-3.0v7 M-2.5,-0.5L0,-3.0L2.5,-0.5"/>
                </g>
                <g id="arrowRight" xlink:href="#dirArrow" transform="rotate(90) translate(36 -43)" onmousedown="handlePan(1,0)">
                  <use xlink:href="#rim" fill="#404040">
                        <set attributeName="fill" to="#808080" begin="arrowRight.mouseover" end="arrowRight.mouseout"/>
                  </use>
                  <path fill="none" stroke="white" stroke-width="1.5" d="M0,-3.0v7 M-2.5,-0.5L0,-3.0L2.5,-0.5"/>
                </g>
                <g id="arrowDown" xlink:href="#dirArrow" transform="rotate(180) translate(-30 -48)" onmousedown="handlePan(0,1)">
                  <use xlink:href="#rim" fill="#404040">
                        <set attributeName="fill" to="#808080" begin="arrowDown.mouseover" end="arrowDown.mouseout"/>
                  </use>
                  <path fill="none" stroke="white" stroke-width="1.5" d="M0,-3.0v7 M-2.5,-0.5L0,-3.0L2.5,-0.5"/>
                </g>
                <g id="arrowLeft" xlink:href="#dirArrow" transform="rotate(270) translate(-36 17)" onmousedown="handlePan(-1,0)">
                  <use xlink:href="#rim" fill="#404040">
                        <set attributeName="fill" to="#808080" begin="arrowLeft.mouseover" end="arrowLeft.mouseout"/>
                  </use>
                  <path fill="none" stroke="white" stroke-width="1.5" d="M0,-3.0v7 M-2.5,-0.5L0,-3.0L2.5,-0.5"/>
                </g>
        </g>
        <svg viewBox="0 0 15 15" width="100%" height="30px" preserveAspectRatio="xMaxYMin meet">
         <g id="arrow_out" transform="scale(0.3 0.3)">
          <a xlink:href="sv__monsters_8qc_ac60117141e788b4429111dfa51fe263c_icgraph_org.svg" target="_base">
           <rect id="button" ry="5" rx="5" y="6" x="6" height="38" width="38"
                fill="#f2f5e9" fill-opacity="0.5" stroke="#606060" stroke-width="1.0"/>
           <path id="arrow"
             d="M 11.500037,31.436501 C 11.940474,20.09759 22.043105,11.32322 32.158766,21.979434 L 37.068811,17.246167 C 37.068811,17.246167 37.088388,32 37.088388,32 L 22.160133,31.978069 C 22.160133,31.978069 26.997745,27.140456 26.997745,27.140456 C 18.528582,18.264221 13.291696,25.230495 11.500037,31.436501 z"
             style="fill:#404040;"/>
          </a>
         </g>
        </svg>
</svg>
