<?xml version="1.0" encoding="UTF-8" standalone="no"?>
<!DOCTYPE svg PUBLIC "-//W3C//DTD SVG 1.1//EN"
 "http://www.w3.org/Graphics/SVG/1.1/DTD/svg11.dtd">
<!-- Generated by graphviz version 2.40.1 (20161225.0304)
 -->
<!-- Title: Monster_Think Pages: 1 -->
<svg width="1522pt" height="230pt"
 viewBox="0.00 0.00 1522.00 229.72" xmlns="http://www.w3.org/2000/svg" xmlns:xlink="http://www.w3.org/1999/xlink">
<g id="graph0" class="graph" transform="scale(1 1) rotate(0) translate(4 225.7214)">
<title>Monster_Think</title>
<!-- Node6761 -->
<g id="node1" class="node">
<title>Node6761</title>
<polygon fill="#bfbfbf" stroke="#000000" points="0,-132.5 0,-151.5 88,-151.5 88,-132.5 0,-132.5"/>
<text text-anchor="middle" x="44" y="-139.5" font-family="Helvetica,sans-Serif" font-size="10.00" fill="#000000">Monster_Think</text>
</g>
<!-- Node6762 -->
<g id="node2" class="node">
<title>Node6762</title>
<g id="a_node2"><a xlink:href="../../da/d4e/sv__monsters_8qc.html#ae8583f9bde31f60a7137868d603e2b58" target="_top" xlink:title="Monster_Spawn_Setup">
<polygon fill="none" stroke="#000000" points="124,-132.5 124,-151.5 250,-151.5 250,-132.5 124,-132.5"/>
<text text-anchor="middle" x="187" y="-139.5" font-family="Helvetica,sans-Serif" font-size="10.00" fill="#000000">Monster_Spawn_Setup</text>
</a>
</g>
</g>
<!-- Node6761&#45;&gt;Node6762 -->
<g id="edge1" class="edge">
<title>Node6761&#45;&gt;Node6762</title>
<path fill="none" stroke="#191970" d="M98.1296,-142C106.5421,-142 115.296,-142 123.8863,-142"/>
<polygon fill="#191970" stroke="#191970" points="98.0716,-138.5001 88.0715,-142 98.0715,-145.5001 98.0716,-138.5001"/>
</g>
<!-- Node6763 -->
<g id="node3" class="node">
<title>Node6763</title>
<g id="a_node3"><a xlink:href="../../d8/dc1/sv__monsters_8qh.html#a46a9c5071074885c3fc9703fb27e1bd7" target="_top" xlink:title="Monster_Spawn">
<polygon fill="none" stroke="#000000" points="286,-132.5 286,-151.5 379,-151.5 379,-132.5 286,-132.5"/>
<text text-anchor="middle" x="332.5" y="-139.5" font-family="Helvetica,sans-Serif" font-size="10.00" fill="#000000">Monster_Spawn</text>
</a>
</g>
</g>
<!-- Node6762&#45;&gt;Node6763 -->
<g id="edge2" class="edge">
<title>Node6762&#45;&gt;Node6763</title>
<path fill="none" stroke="#191970" d="M260.527,-142C269.177,-142 277.8124,-142 285.9439,-142"/>
<polygon fill="#191970" stroke="#191970" points="260.3952,-138.5001 250.3952,-142 260.3951,-145.5001 260.3952,-138.5001"/>
</g>
<!-- Node6764 -->
<g id="node4" class="node">
<title>Node6764</title>
<g id="a_node4"><a xlink:href="../../da/d4e/sv__monsters_8qc.html#a2b57b31035d01a69ccd6e8c6970ed5dd" target="_top" xlink:title="Monster_Respawn">
<polygon fill="none" stroke="#000000" points="415,-94.5 415,-113.5 519,-113.5 519,-94.5 415,-94.5"/>
<text text-anchor="middle" x="467" y="-101.5" font-family="Helvetica,sans-Serif" font-size="10.00" fill="#000000">Monster_Respawn</text>
</a>
</g>
</g>
<!-- Node6763&#45;&gt;Node6764 -->
<g id="edge3" class="edge">
<title>Node6763&#45;&gt;Node6764</title>
<path fill="none" stroke="#191970" d="M376.1004,-129.6817C394.5798,-124.4607 415.7895,-118.4684 433.0708,-113.5859"/>
<polygon fill="#191970" stroke="#191970" points="375.1117,-126.3239 366.44,-132.411 377.015,-133.0602 375.1117,-126.3239"/>
</g>
<!-- Node6769 -->
<g id="node9" class="node">
<title>Node6769</title>
<g id="a_node9"><a xlink:href="../../da/d4e/sv__monsters_8qc.html#ae9c174dd3b336a7270caba2894224d0f" target="_top" xlink:title="Monster_Appear">
<polygon fill="none" stroke="#000000" points="419.5,-170.5 419.5,-189.5 514.5,-189.5 514.5,-170.5 419.5,-170.5"/>
<text text-anchor="middle" x="467" y="-177.5" font-family="Helvetica,sans-Serif" font-size="10.00" fill="#000000">Monster_Appear</text>
</a>
</g>
</g>
<!-- Node6763&#45;&gt;Node6769 -->
<g id="edge9" class="edge">
<title>Node6763&#45;&gt;Node6769</title>
<path fill="none" stroke="#191970" d="M376.1004,-154.3183C394.5798,-159.5393 415.7895,-165.5316 433.0708,-170.4141"/>
<polygon fill="#191970" stroke="#191970" points="377.015,-150.9398 366.44,-151.589 375.1117,-157.6761 377.015,-150.9398"/>
</g>
<!-- Node6771 -->
<g id="node11" class="node">
<title>Node6771</title>
<g id="a_node11"><a xlink:href="../../d3/d3e/sv__spawn_8qh.html#ac615a7363e15e870bec1301869b6db5b" target="_top" xlink:title="spawnmonster">
<polygon fill="none" stroke="#000000" points="422.5,-38.5 422.5,-57.5 511.5,-57.5 511.5,-38.5 422.5,-38.5"/>
<text text-anchor="middle" x="467" y="-45.5" font-family="Helvetica,sans-Serif" font-size="10.00" fill="#000000">spawnmonster</text>
</a>
</g>
</g>
<!-- Node6763&#45;&gt;Node6771 -->
<g id="edge12" class="edge">
<title>Node6763&#45;&gt;Node6771</title>
<path fill="none" stroke="#191970" d="M354.766,-126.4387C382.8314,-106.8242 430.2013,-73.718 453.3886,-57.5128"/>
<polygon fill="#191970" stroke="#191970" points="352.5789,-123.697 346.3873,-132.2944 356.5889,-129.4347 352.5789,-123.697"/>
</g>
<!-- Node6765 -->
<g id="node5" class="node">
<title>Node6765</title>
<g id="a_node5"><a xlink:href="../../da/d4e/sv__monsters_8qc.html#a64003301dcc44254935df433ea236780" target="_top" xlink:title="Monster_Dead_Fade">
<polygon fill="none" stroke="#000000" points="583,-123.5 583,-142.5 697,-142.5 697,-123.5 583,-123.5"/>
<text text-anchor="middle" x="640" y="-130.5" font-family="Helvetica,sans-Serif" font-size="10.00" fill="#000000">Monster_Dead_Fade</text>
</a>
</g>
</g>
<!-- Node6764&#45;&gt;Node6765 -->
<g id="edge4" class="edge">
<title>Node6764&#45;&gt;Node6765</title>
<path fill="none" stroke="#191970" d="M529.5258,-114.4812C547.088,-117.4252 566.0817,-120.6091 583.285,-123.4929"/>
<polygon fill="#191970" stroke="#191970" points="529.8162,-110.9811 519.3752,-112.7797 528.6589,-117.8848 529.8162,-110.9811"/>
</g>
<!-- Node6766 -->
<g id="node6" class="node">
<title>Node6766</title>
<g id="a_node6"><a xlink:href="../../da/d4e/sv__monsters_8qc.html#a304ebddf2011e967eb6e3d0da5b4a760" target="_top" xlink:title="Monster_Dead_Think">
<polygon fill="none" stroke="#000000" points="771.5,-132.5 771.5,-151.5 890.5,-151.5 890.5,-132.5 771.5,-132.5"/>
<text text-anchor="middle" x="831" y="-139.5" font-family="Helvetica,sans-Serif" font-size="10.00" fill="#000000">Monster_Dead_Think</text>
</a>
</g>
</g>
<!-- Node6765&#45;&gt;Node6766 -->
<g id="edge5" class="edge">
<title>Node6765&#45;&gt;Node6766</title>
<path fill="none" stroke="#191970" d="M707.1251,-136.163C728.0199,-137.1475 750.908,-138.226 771.2627,-139.1852"/>
<polygon fill="#191970" stroke="#191970" points="707.2013,-132.6628 697.0476,-135.6881 706.8717,-139.655 707.2013,-132.6628"/>
</g>
<!-- Node6767 -->
<g id="node7" class="node">
<title>Node6767</title>
<g id="a_node7"><a xlink:href="../../da/d4e/sv__monsters_8qc.html#a9fe966953fdc6ae52562b48fe4776295" target="_top" xlink:title="Monster_Dead">
<polygon fill="none" stroke="#000000" points="958,-142.5 958,-161.5 1044,-161.5 1044,-142.5 958,-142.5"/>
<text text-anchor="middle" x="1001" y="-149.5" font-family="Helvetica,sans-Serif" font-size="10.00" fill="#000000">Monster_Dead</text>
</a>
</g>
</g>
<!-- Node6766&#45;&gt;Node6767 -->
<g id="edge6" class="edge">
<title>Node6766&#45;&gt;Node6767</title>
<path fill="none" stroke="#191970" d="M901.1767,-146.128C920.4024,-147.259 940.6723,-148.4513 957.8864,-149.4639"/>
<polygon fill="#191970" stroke="#191970" points="901.1239,-142.619 890.9356,-145.5256 900.7128,-149.6069 901.1239,-142.619"/>
</g>
<!-- Node6768 -->
<g id="node8" class="node">
<title>Node6768</title>
<g id="a_node8"><a xlink:href="../../da/d4e/sv__monsters_8qc.html#a07727352fce183ccb8e2db2f168ad393" target="_top" xlink:title="Monster_Damage">
<polygon fill="none" stroke="#000000" points="1109.5,-161.5 1109.5,-180.5 1211.5,-180.5 1211.5,-161.5 1109.5,-161.5"/>
<text text-anchor="middle" x="1160.5" y="-168.5" font-family="Helvetica,sans-Serif" font-size="10.00" fill="#000000">Monster_Damage</text>
</a>
</g>
</g>
<!-- Node6767&#45;&gt;Node6768 -->
<g id="edge7" class="edge">
<title>Node6767&#45;&gt;Node6768</title>
<path fill="none" stroke="#191970" d="M1054.3512,-158.3553C1072.0931,-160.4688 1091.7999,-162.8163 1109.3699,-164.9093"/>
<polygon fill="#191970" stroke="#191970" points="1054.5068,-154.8492 1044.163,-157.1417 1053.6788,-161.8 1054.5068,-154.8492"/>
</g>
<!-- Node6768&#45;&gt;Node6763 -->
<g id="edge8" class="edge">
<title>Node6768&#45;&gt;Node6763</title>
<path fill="none" stroke="#191970" d="M1110.3049,-182.6765C1045.9751,-196.5961 930.8262,-218 831,-218 640,-218 640,-218 640,-218 539.6441,-218 509.4621,-232.8854 415,-199 385.8319,-188.5368 357.3403,-165.0668 342.686,-151.7361"/>
<polygon fill="#191970" stroke="#191970" points="1111.1644,-186.0713 1120.183,-180.5112 1109.6655,-179.2336 1111.1644,-186.0713"/>
</g>
<!-- Node6770 -->
<g id="node10" class="node">
<title>Node6770</title>
<g id="a_node10"><a xlink:href="../../da/d4e/sv__monsters_8qc.html#ab273e2d348a8d06a6ab65dba3c4afbf6" target="_top" xlink:title="Monster_Appear_Check">
<polygon fill="none" stroke="#000000" points="574.5,-165.5 574.5,-184.5 705.5,-184.5 705.5,-165.5 574.5,-165.5"/>
<text text-anchor="middle" x="640" y="-172.5" font-family="Helvetica,sans-Serif" font-size="10.00" fill="#000000">Monster_Appear_Check</text>
</a>
</g>
</g>
<!-- Node6769&#45;&gt;Node6770 -->
<g id="edge10" class="edge">
<title>Node6769&#45;&gt;Node6770</title>
<path fill="none" stroke="#191970" d="M524.9109,-178.3263C540.7577,-177.8683 558.0469,-177.3686 574.2955,-176.899"/>
<polygon fill="#191970" stroke="#191970" points="524.6256,-174.833 514.731,-178.6205 524.8279,-181.83 524.6256,-174.833"/>
</g>
<!-- Node6770&#45;&gt;Node6763 -->
<g id="edge11" class="edge">
<title>Node6770&#45;&gt;Node6763</title>
<path fill="none" stroke="#191970" d="M564.1557,-166.0637C549.1929,-164.3462 533.6045,-162.5887 519,-161 471.4379,-155.826 417.0038,-150.3292 379.2722,-146.5863"/>
<polygon fill="#191970" stroke="#191970" points="564.0599,-169.5758 574.395,-167.2439 564.8615,-162.6218 564.0599,-169.5758"/>
</g>
<!-- Node6771&#45;&gt;Node6771 -->
<g id="edge19" class="edge">
<title>Node6771&#45;&gt;Node6771</title>
<path fill="none" stroke="#191970" d="M442.0745,-67.0292C443.4341,-72.128 451.7426,-76 467,-76 490.8164,-76 497.7008,-66.5653 487.6533,-57.7571"/>
<polygon fill="#191970" stroke="#191970" points="445.3407,-68.304 446.3467,-57.7571 438.9831,-65.3747 445.3407,-68.304"/>
</g>
<!-- Node6772 -->
<g id="node12" class="node">
<title>Node6772</title>
<g id="a_node12"><a xlink:href="../../db/da5/sv__invasion_8qc.html#aff0df3dfdc8b2936711b973638f070df" target="_top" xlink:title="invasion_SpawnChosenMonster">
<polygon fill="none" stroke="#000000" points="555,-.5 555,-19.5 725,-19.5 725,-.5 555,-.5"/>
<text text-anchor="middle" x="640" y="-7.5" font-family="Helvetica,sans-Serif" font-size="10.00" fill="#000000">invasion_SpawnChosenMonster</text>
</a>
</g>
</g>
<!-- Node6771&#45;&gt;Node6772 -->
<g id="edge13" class="edge">
<title>Node6771&#45;&gt;Node6772</title>
<path fill="none" stroke="#191970" d="M520.5051,-36.2474C544.9673,-30.8742 573.5707,-24.5914 596.6587,-19.5201"/>
<polygon fill="#191970" stroke="#191970" points="519.6714,-32.847 510.6552,-38.411 521.1733,-39.684 519.6714,-32.847"/>
</g>
<!-- Node6778 -->
<g id="node18" class="node">
<title>Node6778</title>
<g id="a_node18"><a xlink:href="../../de/dbb/sv__spawner_8qc.html#a1251dfcf5b3c88b4572dfc13273f6f39" target="_top" xlink:title="spawner_use">
<polygon fill="none" stroke="#000000" points="600,-76.5 600,-95.5 680,-95.5 680,-76.5 600,-76.5"/>
<text text-anchor="middle" x="640" y="-83.5" font-family="Helvetica,sans-Serif" font-size="10.00" fill="#000000">spawner_use</text>
</a>
</g>
</g>
<!-- Node6771&#45;&gt;Node6778 -->
<g id="edge20" class="edge">
<title>Node6771&#45;&gt;Node6778</title>
<path fill="none" stroke="#191970" d="M520.5883,-59.7708C546.1966,-65.3958 576.328,-72.0142 599.9163,-77.1955"/>
<polygon fill="#191970" stroke="#191970" points="521.1733,-56.316 510.6552,-57.589 519.6714,-63.153 521.1733,-56.316"/>
</g>
<!-- Node6780 -->
<g id="node20" class="node">
<title>Node6780</title>
<g id="a_node20"><a xlink:href="../../d2/d06/server_2command_2common_8qh.html#a31c9eecd432f1aaee8637466cb8c1bea" target="_top" xlink:title="CommonCommand_editmob">
<polygon fill="none" stroke="#000000" points="561.5,-38.5 561.5,-57.5 718.5,-57.5 718.5,-38.5 561.5,-38.5"/>
<text text-anchor="middle" x="640" y="-45.5" font-family="Helvetica,sans-Serif" font-size="10.00" fill="#000000">CommonCommand_editmob</text>
</a>
</g>
</g>
<!-- Node6771&#45;&gt;Node6780 -->
<g id="edge22" class="edge">
<title>Node6771&#45;&gt;Node6780</title>
<path fill="none" stroke="#191970" d="M521.8381,-48C534.407,-48 548.0105,-48 561.3621,-48"/>
<polygon fill="#191970" stroke="#191970" points="521.5518,-44.5001 511.5518,-48 521.5518,-51.5001 521.5518,-44.5001"/>
</g>
<!-- Node6773 -->
<g id="node13" class="node">
<title>Node6773</title>
<g id="a_node13"><a xlink:href="../../db/da5/sv__invasion_8qc.html#af8f2b47bd3440a92ec9100cf6dd2c870" target="_top" xlink:title="invasion_SpawnMonsters">
<polygon fill="none" stroke="#000000" points="761,-.5 761,-19.5 901,-19.5 901,-.5 761,-.5"/>
<text text-anchor="middle" x="831" y="-7.5" font-family="Helvetica,sans-Serif" font-size="10.00" fill="#000000">invasion_SpawnMonsters</text>
</a>
</g>
</g>
<!-- Node6772&#45;&gt;Node6773 -->
<g id="edge14" class="edge">
<title>Node6772&#45;&gt;Node6773</title>
<path fill="none" stroke="#191970" d="M735.2731,-10C743.8982,-10 752.5257,-10 760.8744,-10"/>
<polygon fill="#191970" stroke="#191970" points="735.166,-6.5001 725.166,-10 735.1659,-13.5001 735.166,-6.5001"/>
</g>
<!-- Node6774 -->
<g id="node14" class="node">
<title>Node6774</title>
<g id="a_node14"><a xlink:href="../../db/da5/sv__invasion_8qc.html#aca840f4cbd32c801017e724fa0399374" target="_top" xlink:title="Invasion_CheckWinner">
<polygon fill="none" stroke="#000000" points="937,-.5 937,-19.5 1065,-19.5 1065,-.5 937,-.5"/>
<text text-anchor="middle" x="1001" y="-7.5" font-family="Helvetica,sans-Serif" font-size="10.00" fill="#000000">Invasion_CheckWinner</text>
</a>
</g>
</g>
<!-- Node6773&#45;&gt;Node6774 -->
<g id="edge15" class="edge">
<title>Node6773&#45;&gt;Node6774</title>
<path fill="none" stroke="#191970" d="M911.1546,-10C919.7405,-10 928.3925,-10 936.7587,-10"/>
<polygon fill="#191970" stroke="#191970" points="911.127,-6.5001 901.127,-10 911.127,-13.5001 911.127,-6.5001"/>
</g>
<!-- Node6775 -->
<g id="node15" class="node">
<title>Node6775</title>
<g id="a_node15"><a xlink:href="../../db/da5/sv__invasion_8qc.html#a236fd86093117aeb98743e15f440f9d3" target="_top" xlink:title="invasion_DelayedInit">
<polygon fill="none" stroke="#000000" points="1101,-.5 1101,-19.5 1220,-19.5 1220,-.5 1101,-.5"/>
<text text-anchor="middle" x="1160.5" y="-7.5" font-family="Helvetica,sans-Serif" font-size="10.00" fill="#000000">invasion_DelayedInit</text>
</a>
</g>
</g>
<!-- Node6774&#45;&gt;Node6775 -->
<g id="edge16" class="edge">
<title>Node6774&#45;&gt;Node6775</title>
<path fill="none" stroke="#191970" d="M1075.6256,-10C1084.0483,-10 1092.5477,-10 1100.7456,-10"/>
<polygon fill="#191970" stroke="#191970" points="1075.415,-6.5001 1065.415,-10 1075.415,-13.5001 1075.415,-6.5001"/>
</g>
<!-- Node6776 -->
<g id="node16" class="node">
<title>Node6776</title>
<g id="a_node16"><a xlink:href="../../d2/db1/sv__invasion_8qh.html#a25529cc1c6aba9e850432cf8d26a5e93" target="_top" xlink:title="invasion_Initialize">
<polygon fill="none" stroke="#000000" points="1256,-.5 1256,-19.5 1361,-19.5 1361,-.5 1256,-.5"/>
<text text-anchor="middle" x="1308.5" y="-7.5" font-family="Helvetica,sans-Serif" font-size="10.00" fill="#000000">invasion_Initialize</text>
</a>
</g>
</g>
<!-- Node6775&#45;&gt;Node6776 -->
<g id="edge17" class="edge">
<title>Node6775&#45;&gt;Node6776</title>
<path fill="none" stroke="#191970" d="M1230.522,-10C1238.979,-10 1247.5055,-10 1255.6579,-10"/>
<polygon fill="#191970" stroke="#191970" points="1230.2707,-6.5001 1220.2707,-10 1230.2706,-13.5001 1230.2707,-6.5001"/>
</g>
<!-- Node6777 -->
<g id="node17" class="node">
<title>Node6777</title>
<g id="a_node17"><a xlink:href="../../d2/db1/sv__invasion_8qh.html#a6879a53e956f0f1fd079b3015609a852" target="_top" xlink:title="REGISTER_MUTATOR">
<polygon fill="none" stroke="#000000" points="1397,-.5 1397,-19.5 1514,-19.5 1514,-.5 1397,-.5"/>
<text text-anchor="middle" x="1455.5" y="-7.5" font-family="Helvetica,sans-Serif" font-size="10.00" fill="#000000">REGISTER_MUTATOR</text>
</a>
</g>
</g>
<!-- Node6776&#45;&gt;Node6777 -->
<g id="edge18" class="edge">
<title>Node6776&#45;&gt;Node6777</title>
<path fill="none" stroke="#191970" d="M1371.3869,-10C1379.8793,-10 1388.5647,-10 1396.9768,-10"/>
<polygon fill="#191970" stroke="#191970" points="1371.1552,-6.5001 1361.1552,-10 1371.1551,-13.5001 1371.1552,-6.5001"/>
</g>
<!-- Node6779 -->
<g id="node19" class="node">
<title>Node6779</title>
<g id="a_node19"><a xlink:href="../../de/dbb/sv__spawner_8qc.html#a3123c628538f58eb7dbc04b5f8435901" target="_top" xlink:title="spawnfunc">
<polygon fill="none" stroke="#000000" points="796.5,-76.5 796.5,-95.5 865.5,-95.5 865.5,-76.5 796.5,-76.5"/>
<text text-anchor="middle" x="831" y="-83.5" font-family="Helvetica,sans-Serif" font-size="10.00" fill="#000000">spawnfunc</text>
</a>
</g>
</g>
<!-- Node6778&#45;&gt;Node6779 -->
<g id="edge21" class="edge">
<title>Node6778&#45;&gt;Node6779</title>
<path fill="none" stroke="#191970" d="M690.0941,-86C723.5778,-86 766.7677,-86 796.4554,-86"/>
<polygon fill="#191970" stroke="#191970" points="690.0399,-82.5001 680.0399,-86 690.0398,-89.5001 690.0399,-82.5001"/>
</g>
<!-- Node6781 -->
<g id="node21" class="node">
<title>Node6781</title>
<g id="a_node21"><a xlink:href="../../d2/d06/server_2command_2common_8qh.html#a8a84d5fa25af5ead7edba7755a76ff84" target="_top" xlink:title="COMMON_COMMAND">
<polygon fill="none" stroke="#000000" points="771,-38.5 771,-57.5 891,-57.5 891,-38.5 771,-38.5"/>
<text text-anchor="middle" x="831" y="-45.5" font-family="Helvetica,sans-Serif" font-size="10.00" fill="#000000">COMMON_COMMAND</text>
</a>
</g>
</g>
<!-- Node6780&#45;&gt;Node6781 -->
<g id="edge23" class="edge">
<title>Node6780&#45;&gt;Node6781</title>
<path fill="none" stroke="#191970" d="M728.8345,-48C743.0814,-48 757.5271,-48 770.8951,-48"/>
<polygon fill="#191970" stroke="#191970" points="728.5139,-44.5001 718.5139,-48 728.5138,-51.5001 728.5139,-44.5001"/>
</g>
</g>
</svg>
