<?xml version="1.0" encoding="UTF-8" standalone="no"?>
<!DOCTYPE svg PUBLIC "-//W3C//DTD SVG 1.1//EN"
 "http://www.w3.org/Graphics/SVG/1.1/DTD/svg11.dtd">
<!-- Generated by graphviz version 2.36.0 (20140111.2315)
 -->
<!-- Title: Monster_Appear_Check Pages: 1 -->
<svg width="992pt" height="180pt"
 viewBox="0.00 0.00 992.00 180.00" xmlns="http://www.w3.org/2000/svg" xmlns:xlink="http://www.w3.org/1999/xlink">
<g id="graph0" class="graph" transform="scale(1 1) rotate(0) translate(4 176)">
<title>Monster_Appear_Check</title>
<!-- Node1 -->
<g id="node1" class="node"><title>Node1</title>
<polygon fill="#bfbfbf" stroke="black" points="0,-19.5 0,-38.5 122,-38.5 122,-19.5 0,-19.5"/>
<text text-anchor="middle" x="61" y="-26.5" font-family="Helvetica,sans-Serif" font-size="10.00">Monster_Appear_Check</text>
</g>
<!-- Node2 -->
<g id="node2" class="node"><title>Node2</title>
<g id="a_node2"><a xlink:href="../../d8/dc1/sv__monsters_8qh.html#a473e551b6c76c0037bbcfe0c4742b4e9" target="_top" xlink:title="Monster_Spawn">
<polygon fill="none" stroke="black" points="158.5,-38.5 158.5,-57.5 245.5,-57.5 245.5,-38.5 158.5,-38.5"/>
<text text-anchor="middle" x="202" y="-45.5" font-family="Helvetica,sans-Serif" font-size="10.00">Monster_Spawn</text>
</a>
</g>
</g>
<!-- Node1&#45;&gt;Node2 -->
<g id="edge1" class="edge"><title>Node1&#45;&gt;Node2</title>
<path fill="none" stroke="midnightblue" d="M132.206,-38.5965C141.127,-39.8159 150.033,-41.0332 158.335,-42.168"/>
<polygon fill="midnightblue" stroke="midnightblue" points="132.541,-35.1098 122.159,-37.2232 131.593,-42.0453 132.541,-35.1098"/>
</g>
<!-- Node3 -->
<g id="node3" class="node"><title>Node3</title>
<g id="a_node3"><a xlink:href="../../d0/de9/monsters_2spawn_8qh.html#a6d9ad964837b7b9cbcd971dcab774b49" target="_top" xlink:title="spawnmonster">
<polygon fill="none" stroke="black" points="291,-114.5 291,-133.5 371,-133.5 371,-114.5 291,-114.5"/>
<text text-anchor="middle" x="331" y="-121.5" font-family="Helvetica,sans-Serif" font-size="10.00">spawnmonster</text>
</a>
</g>
</g>
<!-- Node2&#45;&gt;Node3 -->
<g id="edge2" class="edge"><title>Node2&#45;&gt;Node3</title>
<path fill="none" stroke="midnightblue" d="M222.236,-63.9671C237.702,-76.2762 260.346,-93.1434 282,-105 288.446,-108.53 295.688,-111.747 302.553,-114.491"/>
<polygon fill="midnightblue" stroke="midnightblue" points="224.412,-61.2249 214.435,-57.6585 220.01,-66.6679 224.412,-61.2249"/>
</g>
<!-- Node7 -->
<g id="node7" class="node"><title>Node7</title>
<g id="a_node7"><a xlink:href="../../da/d4e/sv__monsters_8qc.html#a2b57b31035d01a69ccd6e8c6970ed5dd" target="_top" xlink:title="Monster_Respawn">
<polygon fill="none" stroke="black" points="282,-76.5 282,-95.5 380,-95.5 380,-76.5 282,-76.5"/>
<text text-anchor="middle" x="331" y="-83.5" font-family="Helvetica,sans-Serif" font-size="10.00">Monster_Respawn</text>
</a>
</g>
</g>
<!-- Node2&#45;&gt;Node7 -->
<g id="edge6" class="edge"><title>Node2&#45;&gt;Node7</title>
<path fill="none" stroke="midnightblue" d="M244.894,-60.5353C262.171,-65.7048 281.871,-71.5991 297.963,-76.4141"/>
<polygon fill="midnightblue" stroke="midnightblue" points="245.631,-57.1025 235.047,-57.589 243.624,-63.8088 245.631,-57.1025"/>
</g>
<!-- Node12 -->
<g id="node12" class="node"><title>Node12</title>
<g id="a_node12"><a xlink:href="../../da/d4e/sv__monsters_8qc.html#ae9c174dd3b336a7270caba2894224d0f" target="_top" xlink:title="Monster_Appear">
<polygon fill="none" stroke="black" points="287,-0.5 287,-19.5 375,-19.5 375,-0.5 287,-0.5"/>
<text text-anchor="middle" x="331" y="-7.5" font-family="Helvetica,sans-Serif" font-size="10.00">Monster_Appear</text>
</a>
</g>
</g>
<!-- Node2&#45;&gt;Node12 -->
<g id="edge12" class="edge"><title>Node2&#45;&gt;Node12</title>
<path fill="none" stroke="midnightblue" d="M244.894,-35.4647C262.171,-30.2952 281.871,-24.4009 297.963,-19.5859"/>
<polygon fill="midnightblue" stroke="midnightblue" points="243.624,-32.1912 235.047,-38.411 245.631,-38.8975 243.624,-32.1912"/>
</g>
<!-- Node4 -->
<g id="node4" class="node"><title>Node4</title>
<g id="a_node4"><a xlink:href="../../de/d55/server_2command_2common_8qc.html#a31c9eecd432f1aaee8637466cb8c1bea" target="_top" xlink:title="CommonCommand_editmob">
<polygon fill="none" stroke="black" points="424.5,-152.5 424.5,-171.5 565.5,-171.5 565.5,-152.5 424.5,-152.5"/>
<text text-anchor="middle" x="495" y="-159.5" font-family="Helvetica,sans-Serif" font-size="10.00">CommonCommand_editmob</text>
</a>
</g>
</g>
<!-- Node3&#45;&gt;Node4 -->
<g id="edge3" class="edge"><title>Node3&#45;&gt;Node4</title>
<path fill="none" stroke="midnightblue" d="M381.18,-135.536C404.301,-140.96 431.536,-147.348 453.454,-152.489"/>
<polygon fill="midnightblue" stroke="midnightblue" points="381.751,-132.075 371.216,-133.199 380.152,-138.89 381.751,-132.075"/>
</g>
<!-- Node5 -->
<g id="node5" class="node"><title>Node5</title>
<g id="a_node5"><a xlink:href="../../d5/d1f/gamemode__invasion_8qc.html#a22fee24ee369a9b96b574f26ec9f9ab3" target="_top" xlink:title="invasion_SpawnChosenMonster">
<polygon fill="none" stroke="black" points="416.5,-114.5 416.5,-133.5 573.5,-133.5 573.5,-114.5 416.5,-114.5"/>
<text text-anchor="middle" x="495" y="-121.5" font-family="Helvetica,sans-Serif" font-size="10.00">invasion_SpawnChosenMonster</text>
</a>
</g>
</g>
<!-- Node3&#45;&gt;Node5 -->
<g id="edge4" class="edge"><title>Node3&#45;&gt;Node5</title>
<path fill="none" stroke="midnightblue" d="M381.5,-124C392.559,-124 404.545,-124 416.433,-124"/>
<polygon fill="midnightblue" stroke="midnightblue" points="381.216,-120.5 371.216,-124 381.216,-127.5 381.216,-120.5"/>
</g>
<!-- Node6 -->
<g id="node6" class="node"><title>Node6</title>
<g id="a_node6"><a xlink:href="../../d5/d1f/gamemode__invasion_8qc.html#ac1638633f4da1a28f12acdc96dfbc7df" target="_top" xlink:title="invasion_SpawnMonsters">
<polygon fill="none" stroke="black" points="610,-114.5 610,-133.5 738,-133.5 738,-114.5 610,-114.5"/>
<text text-anchor="middle" x="674" y="-121.5" font-family="Helvetica,sans-Serif" font-size="10.00">invasion_SpawnMonsters</text>
</a>
</g>
</g>
<!-- Node5&#45;&gt;Node6 -->
<g id="edge5" class="edge"><title>Node5&#45;&gt;Node6</title>
<path fill="none" stroke="midnightblue" d="M583.868,-124C592.605,-124 601.351,-124 609.765,-124"/>
<polygon fill="midnightblue" stroke="midnightblue" points="583.635,-120.5 573.635,-124 583.635,-127.5 583.635,-120.5"/>
</g>
<!-- Node8 -->
<g id="node8" class="node"><title>Node8</title>
<g id="a_node8"><a xlink:href="../../da/d4e/sv__monsters_8qc.html#a64003301dcc44254935df433ea236780" target="_top" xlink:title="Monster_Dead_Fade">
<polygon fill="none" stroke="black" points="441.5,-76.5 441.5,-95.5 548.5,-95.5 548.5,-76.5 441.5,-76.5"/>
<text text-anchor="middle" x="495" y="-83.5" font-family="Helvetica,sans-Serif" font-size="10.00">Monster_Dead_Fade</text>
</a>
</g>
</g>
<!-- Node7&#45;&gt;Node8 -->
<g id="edge7" class="edge"><title>Node7&#45;&gt;Node8</title>
<path fill="none" stroke="midnightblue" d="M390.359,-86C407.063,-86 425.165,-86 441.495,-86"/>
<polygon fill="midnightblue" stroke="midnightblue" points="390.167,-82.5001 380.167,-86 390.167,-89.5001 390.167,-82.5001"/>
</g>
<!-- Node9 -->
<g id="node9" class="node"><title>Node9</title>
<g id="a_node9"><a xlink:href="../../da/d4e/sv__monsters_8qc.html#a304ebddf2011e967eb6e3d0da5b4a760" target="_top" xlink:title="Monster_Dead_Think">
<polygon fill="none" stroke="black" points="619,-76.5 619,-95.5 729,-95.5 729,-76.5 619,-76.5"/>
<text text-anchor="middle" x="674" y="-83.5" font-family="Helvetica,sans-Serif" font-size="10.00">Monster_Dead_Think</text>
</a>
</g>
</g>
<!-- Node8&#45;&gt;Node9 -->
<g id="edge8" class="edge"><title>Node8&#45;&gt;Node9</title>
<path fill="none" stroke="midnightblue" d="M558.689,-86C578.297,-86 599.758,-86 618.736,-86"/>
<polygon fill="midnightblue" stroke="midnightblue" points="558.627,-82.5001 548.627,-86 558.627,-89.5001 558.627,-82.5001"/>
</g>
<!-- Node10 -->
<g id="node10" class="node"><title>Node10</title>
<g id="a_node10"><a xlink:href="../../da/d4e/sv__monsters_8qc.html#a9fe966953fdc6ae52562b48fe4776295" target="_top" xlink:title="Monster_Dead">
<polygon fill="none" stroke="black" points="774,-76.5 774,-95.5 854,-95.5 854,-76.5 774,-76.5"/>
<text text-anchor="middle" x="814" y="-83.5" font-family="Helvetica,sans-Serif" font-size="10.00">Monster_Dead</text>
</a>
</g>
</g>
<!-- Node9&#45;&gt;Node10 -->
<g id="edge9" class="edge"><title>Node9&#45;&gt;Node10</title>
<path fill="none" stroke="midnightblue" d="M739.423,-86C751.21,-86 763.177,-86 773.938,-86"/>
<polygon fill="midnightblue" stroke="midnightblue" points="739.145,-82.5001 729.145,-86 739.145,-89.5001 739.145,-82.5001"/>
</g>
<!-- Node11 -->
<g id="node11" class="node"><title>Node11</title>
<g id="a_node11"><a xlink:href="../../da/d4e/sv__monsters_8qc.html#a100d851a4f02e4bd6177462aad0a9d1f" target="_top" xlink:title="Monster_Damage">
<polygon fill="none" stroke="black" points="890,-57.5 890,-76.5 984,-76.5 984,-57.5 890,-57.5"/>
<text text-anchor="middle" x="937" y="-64.5" font-family="Helvetica,sans-Serif" font-size="10.00">Monster_Damage</text>
</a>
</g>
</g>
<!-- Node10&#45;&gt;Node11 -->
<g id="edge10" class="edge"><title>Node10&#45;&gt;Node11</title>
<path fill="none" stroke="midnightblue" d="M864.338,-78.2527C872.738,-76.9338 881.435,-75.5681 889.751,-74.2623"/>
<polygon fill="midnightblue" stroke="midnightblue" points="863.621,-74.8223 854.285,-79.8312 864.707,-81.7376 863.621,-74.8223"/>
</g>
<!-- Node11&#45;&gt;Node2 -->
<g id="edge11" class="edge"><title>Node11&#45;&gt;Node2</title>
<path fill="none" stroke="midnightblue" d="M879.7,-60.5277C826.899,-55.0215 745.704,-48 675,-48 494,-48 494,-48 494,-48 405.841,-48 302.659,-48 245.896,-48"/>
<polygon fill="midnightblue" stroke="midnightblue" points="879.557,-64.032 889.87,-61.6062 880.295,-57.0711 879.557,-64.032"/>
</g>
<!-- Node12&#45;&gt;Node1 -->
<g id="edge13" class="edge"><title>Node12&#45;&gt;Node1</title>
<path fill="none" stroke="midnightblue" d="M276.676,-13.7804C232.094,-16.9411 168.533,-21.4473 122.144,-24.736"/>
<polygon fill="midnightblue" stroke="midnightblue" points="277.004,-17.266 286.732,-13.0675 276.509,-10.2836 277.004,-17.266"/>
</g>
</g>
</svg>
