<?xml version="1.0" encoding="UTF-8" standalone="no"?>
<!DOCTYPE svg PUBLIC "-//W3C//DTD SVG 1.1//EN"
 "http://www.w3.org/Graphics/SVG/1.1/DTD/svg11.dtd">
<!-- Generated by graphviz version 2.40.1 (20161225.0304)
 -->
<!-- Title: botframe_autowaypoints_fix_from Pages: 1 -->
<!--zoomable 39 -->
<svg id="main" version="1.1" xmlns="http://www.w3.org/2000/svg" xmlns:xlink="http://www.w3.org/1999/xlink" xml:space="preserve" onload="init(evt)">
<style type="text/css"><![CDATA[
.edge:hover path { stroke: red; }
.edge:hover polygon { stroke: red; fill: red; }
]]></style>
<script type="text/javascript"><![CDATA[
var edges = document.getElementsByTagName('g');
if (edges && edges.length) {
  for (var i=0;i<edges.length;i++) {
    if (edges[i].id.substr(0,4)=='edge') {
      edges[i].setAttribute('class','edge');
    }
  }
}
]]></script>
        <defs>
                <circle id="rim" cx="0" cy="0" r="7"/>
                <circle id="rim2" cx="0" cy="0" r="3.5"/>
                <g id="zoomPlus">
                        <use xlink:href="#rim" fill="#404040">
                                <set attributeName="fill" to="#808080" begin="zoomplus.mouseover" end="zoomplus.mouseout"/>
                        </use>
                        <path d="M-4,0h8M0,-4v8" fill="none" stroke="white" stroke-width="1.5" pointer-events="none"/>
                </g>
                <g id="zoomMin">
                        <use xlink:href="#rim" fill="#404040">
                                <set attributeName="fill" to="#808080" begin="zoomminus.mouseover" end="zoomminus.mouseout"/>
                        </use>
                        <path d="M-4,0h8" fill="none" stroke="white" stroke-width="1.5" pointer-events="none"/>
                </g>
                <g id="dirArrow">
                        <path fill="none" stroke="white" stroke-width="1.5" d="M0,-3.0v7 M-2.5,-0.5L0,-3.0L2.5,-0.5"/>
                </g>
               <g id="resetDef">
                       <use xlink:href="#rim2" fill="#404040">
                               <set attributeName="fill" to="#808080" begin="reset.mouseover" end="reset.mouseout"/>
                       </use>
               </g>
        </defs>

<script type="text/javascript">
var viewWidth = 648;
var viewHeight = 39;
var sectionId = 'dynsection-9';
</script>
<script xlink:href="../../svgpan.js"/>
<svg id="graph" class="graph">
<g id="viewport">
<title>botframe_autowaypoints_fix_from</title>
<!-- Node199 -->
<g id="node1" class="node">
<title>Node199</title>
<polygon fill="#bfbfbf" stroke="#000000" points="0,-.5 0,-30.5 139,-30.5 139,-.5 0,-.5"/>
<text text-anchor="start" x="8" y="-18.5" font-family="Helvetica,sans-Serif" font-size="10.00" fill="#000000">botframe_autowaypoints</text>
<text text-anchor="middle" x="69.5" y="-7.5" font-family="Helvetica,sans-Serif" font-size="10.00" fill="#000000">_fix_from</text>
</g>
<!-- Node200 -->
<g id="node2" class="node">
<title>Node200</title>
<g id="a_node2"><a xlink:href="../../d7/dc4/waypoints_8qc.html#a01e8fff3ff689e909ba40e64f7a65053" target="_top" xlink:title="botframe_autowaypoints_fix">
<polygon fill="none" stroke="#000000" points="175,-6 175,-25 331,-25 331,-6 175,-6"/>
<text text-anchor="middle" x="253" y="-13" font-family="Helvetica,sans-Serif" font-size="10.00" fill="#000000">botframe_autowaypoints_fix</text>
</a>
</g>
</g>
<!-- Node199&#45;&gt;Node200 -->
<g id="edge1" class="edge">
<title>Node199&#45;&gt;Node200</title>
<path fill="none" stroke="#191970" d="M149.3535,-15.5C157.8026,-15.5 166.3886,-15.5 174.8183,-15.5"/>
<polygon fill="#191970" stroke="#191970" points="149.1352,-12.0001 139.1351,-15.5 149.1351,-19.0001 149.1352,-12.0001"/>
</g>
<!-- Node201 -->
<g id="node3" class="node">
<title>Node201</title>
<g id="a_node3"><a xlink:href="../../d1/d2a/waypoints_8qh.html#aeffebe843059e44cb1df1bf5b6b7403c" target="_top" xlink:title="botframe_autowaypoints">
<polygon fill="none" stroke="#000000" points="367,-6 367,-25 506,-25 506,-6 367,-6"/>
<text text-anchor="middle" x="436.5" y="-13" font-family="Helvetica,sans-Serif" font-size="10.00" fill="#000000">botframe_autowaypoints</text>
</a>
</g>
</g>
<!-- Node200&#45;&gt;Node201 -->
<g id="edge2" class="edge">
<title>Node200&#45;&gt;Node201</title>
<path fill="none" stroke="#191970" d="M341.1839,-15.5C349.8175,-15.5 358.4932,-15.5 366.9047,-15.5"/>
<polygon fill="#191970" stroke="#191970" points="341.0866,-12.0001 331.0866,-15.5 341.0866,-19.0001 341.0866,-12.0001"/>
</g>
<!-- Node202 -->
<g id="node4" class="node">
<title>Node202</title>
<g id="a_node4"><a xlink:href="../../d1/da9/bot_8qh.html#aca1687b4e440adf8111b9438919a0b0a" target="_top" xlink:title="bot_serverframe">
<polygon fill="none" stroke="#000000" points="542,-6 542,-25 640,-25 640,-6 542,-6"/>
<text text-anchor="middle" x="591" y="-13" font-family="Helvetica,sans-Serif" font-size="10.00" fill="#000000">bot_serverframe</text>
</a>
</g>
</g>
<!-- Node201&#45;&gt;Node202 -->
<g id="edge3" class="edge">
<title>Node201&#45;&gt;Node202</title>
<path fill="none" stroke="#191970" d="M516.2366,-15.5C524.9061,-15.5 533.5337,-15.5 541.6821,-15.5"/>
<polygon fill="#191970" stroke="#191970" points="516.0665,-12.0001 506.0665,-15.5 516.0665,-19.0001 516.0665,-12.0001"/>
</g>
</g>
</svg>
        <g id="navigator" transform="translate(0 0)" fill="#404254">
                <rect fill="#f2f5e9" fill-opacity="0.5" stroke="#606060" stroke-width=".5" x="0" y="0" width="60" height="60"/>
                <use id="zoomplus" xlink:href="#zoomPlus" x="17" y="9" onmousedown="handleZoom(evt,'in')"/>
                <use id="zoomminus" xlink:href="#zoomMin" x="42" y="9" onmousedown="handleZoom(evt,'out')"/>
                <use id="reset" xlink:href="#resetDef" x="30" y="36" onmousedown="handleReset()"/>
                <g id="arrowUp" xlink:href="#dirArrow" transform="translate(30 24)" onmousedown="handlePan(0,-1)">
                  <use xlink:href="#rim" fill="#404040">
                        <set attributeName="fill" to="#808080" begin="arrowUp.mouseover" end="arrowUp.mouseout"/>
                  </use>
                  <path fill="none" stroke="white" stroke-width="1.5" d="M0,-3.0v7 M-2.5,-0.5L0,-3.0L2.5,-0.5"/>
                </g>
                <g id="arrowRight" xlink:href="#dirArrow" transform="rotate(90) translate(36 -43)" onmousedown="handlePan(1,0)">
                  <use xlink:href="#rim" fill="#404040">
                        <set attributeName="fill" to="#808080" begin="arrowRight.mouseover" end="arrowRight.mouseout"/>
                  </use>
                  <path fill="none" stroke="white" stroke-width="1.5" d="M0,-3.0v7 M-2.5,-0.5L0,-3.0L2.5,-0.5"/>
                </g>
                <g id="arrowDown" xlink:href="#dirArrow" transform="rotate(180) translate(-30 -48)" onmousedown="handlePan(0,1)">
                  <use xlink:href="#rim" fill="#404040">
                        <set attributeName="fill" to="#808080" begin="arrowDown.mouseover" end="arrowDown.mouseout"/>
                  </use>
                  <path fill="none" stroke="white" stroke-width="1.5" d="M0,-3.0v7 M-2.5,-0.5L0,-3.0L2.5,-0.5"/>
                </g>
                <g id="arrowLeft" xlink:href="#dirArrow" transform="rotate(270) translate(-36 17)" onmousedown="handlePan(-1,0)">
                  <use xlink:href="#rim" fill="#404040">
                        <set attributeName="fill" to="#808080" begin="arrowLeft.mouseover" end="arrowLeft.mouseout"/>
                  </use>
                  <path fill="none" stroke="white" stroke-width="1.5" d="M0,-3.0v7 M-2.5,-0.5L0,-3.0L2.5,-0.5"/>
                </g>
        </g>
        <svg viewBox="0 0 15 15" width="100%" height="30px" preserveAspectRatio="xMaxYMin meet">
         <g id="arrow_out" transform="scale(0.3 0.3)">
          <a xlink:href="waypoints_8qc_afe185aa6fad31214f669f13f08a37b2e_icgraph_org.svg" target="_base">
           <rect id="button" ry="5" rx="5" y="6" x="6" height="38" width="38"
                fill="#f2f5e9" fill-opacity="0.5" stroke="#606060" stroke-width="1.0"/>
           <path id="arrow"
             d="M 11.500037,31.436501 C 11.940474,20.09759 22.043105,11.32322 32.158766,21.979434 L 37.068811,17.246167 C 37.068811,17.246167 37.088388,32 37.088388,32 L 22.160133,31.978069 C 22.160133,31.978069 26.997745,27.140456 26.997745,27.140456 C 18.528582,18.264221 13.291696,25.230495 11.500037,31.436501 z"
             style="fill:#404040;"/>
          </a>
         </g>
        </svg>
</svg>
