<?xml version="1.0" encoding="UTF-8" standalone="no"?>
<!DOCTYPE svg PUBLIC "-//W3C//DTD SVG 1.1//EN"
 "http://www.w3.org/Graphics/SVG/1.1/DTD/svg11.dtd">
<!-- Generated by graphviz version 2.36.0 (20140111.2315)
 -->
<!-- Title: waypoint_addlink Pages: 1 -->
<!--zoomable 252 -->
<svg id="main" version="1.1" xmlns="http://www.w3.org/2000/svg" xmlns:xlink="http://www.w3.org/1999/xlink" xml:space="preserve" onload="init(evt)">
<style type="text/css"><![CDATA[
.edge:hover path { stroke: red; }
.edge:hover polygon { stroke: red; fill: red; }
]]></style>
<script type="text/javascript"><![CDATA[
var edges = document.getElementsByTagName('g');
if (edges && edges.length) {
  for (var i=0;i<edges.length;i++) {
    if (edges[i].id.substr(0,4)=='edge') {
      edges[i].setAttribute('class','edge');
    }
  }
}
]]></script>
        <defs>
                <circle id="rim" cx="0" cy="0" r="7"/>
                <circle id="rim2" cx="0" cy="0" r="3.5"/>
                <g id="zoomPlus">
                        <use xlink:href="#rim" fill="#404040">
                                <set attributeName="fill" to="#808080" begin="zoomplus.mouseover" end="zoomplus.mouseout"/>
                        </use>
                        <path d="M-4,0h8M0,-4v8" fill="none" stroke="white" stroke-width="1.5" pointer-events="none"/>
                </g>
                <g id="zoomMin">
                        <use xlink:href="#rim" fill="#404040">
                                <set attributeName="fill" to="#808080" begin="zoomminus.mouseover" end="zoomminus.mouseout"/>
                        </use>
                        <path d="M-4,0h8" fill="none" stroke="white" stroke-width="1.5" pointer-events="none"/>
                </g>
                <g id="dirArrow">
                        <path fill="none" stroke="white" stroke-width="1.5" d="M0,-3.0v7 M-2.5,-0.5L0,-3.0L2.5,-0.5"/>
                </g>
               <g id="resetDef">
                       <use xlink:href="#rim2" fill="#404040">
                               <set attributeName="fill" to="#808080" begin="reset.mouseover" end="reset.mouseout"/>
                       </use>
               </g>
        </defs>

<script type="text/javascript">
var viewWidth = 764;
var viewHeight = 252;
var sectionId = 'dynsection-16';
</script>
<script xlink:href="../../svgpan.js"/>
<svg id="graph" class="graph">
<g id="viewport">
<title>waypoint_addlink</title>
<!-- Node1 -->
<g id="node1" class="node"><title>Node1</title>
<polygon fill="#bfbfbf" stroke="black" points="0,-132.5 0,-151.5 92,-151.5 92,-132.5 0,-132.5"/>
<text text-anchor="middle" x="46" y="-139.5" font-family="Helvetica,sans-Serif" font-size="10.00">waypoint_addlink</text>
</g>
<!-- Node2 -->
<g id="node2" class="node"><title>Node2</title>
<g id="a_node2"><a xlink:href="../../d7/dc4/waypoints_8qc.html#a366118166944b7c3433ad78c7f388462" target="_top" xlink:title="waypoint_addlink_customcost">
<polygon fill="none" stroke="black" points="128,-154.5 128,-173.5 276,-173.5 276,-154.5 128,-154.5"/>
<text text-anchor="middle" x="202" y="-161.5" font-family="Helvetica,sans-Serif" font-size="10.00">waypoint_addlink_customcost</text>
</a>
</g>
</g>
<!-- Node1&#45;&gt;Node2 -->
<g id="edge1" class="edge"><title>Node1&#45;&gt;Node2</title>
<path fill="none" stroke="midnightblue" d="M92.3721,-148.482C102.426,-149.918 113.35,-151.479 124.267,-153.038"/>
<polygon fill="midnightblue" stroke="midnightblue" points="123.871,-156.517 134.265,-154.466 124.861,-149.587 123.871,-156.517"/>
</g>
<!-- Node15 -->
<g id="node15" class="node"><title>Node15</title>
<g id="a_node15"><a xlink:href="../../d7/dc4/waypoints_8qc.html#a9a82d97a36a9a993f59a4c2474ef68d1" target="_top" xlink:title="waypoint_addlink_for\l_custom_jumppad">
<polygon fill="none" stroke="black" points="148,-105 148,-135 256,-135 256,-105 148,-105"/>
<text text-anchor="start" x="156" y="-123" font-family="Helvetica,sans-Serif" font-size="10.00">waypoint_addlink_for</text>
<text text-anchor="middle" x="202" y="-112" font-family="Helvetica,sans-Serif" font-size="10.00">_custom_jumppad</text>
</a>
</g>
</g>
<!-- Node1&#45;&gt;Node15 -->
<g id="edge14" class="edge"><title>Node1&#45;&gt;Node15</title>
<path fill="none" stroke="midnightblue" d="M92.3721,-135.518C106.501,-133.5 122.35,-131.236 137.482,-129.074"/>
<polygon fill="midnightblue" stroke="midnightblue" points="138.409,-132.477 147.813,-127.598 137.419,-125.548 138.409,-132.477"/>
</g>
<!-- Node3 -->
<g id="node3" class="node"><title>Node3</title>
<g id="a_node3"><a xlink:href="../../d7/dc4/waypoints_8qc.html#a5c2ed2db425ae03dadf19dede5799956" target="_top" xlink:title="waypoint_islinked">
<polygon fill="none" stroke="black" points="319,-208.5 319,-227.5 413,-227.5 413,-208.5 319,-208.5"/>
<text text-anchor="middle" x="366" y="-215.5" font-family="Helvetica,sans-Serif" font-size="10.00">waypoint_islinked</text>
</a>
</g>
</g>
<!-- Node2&#45;&gt;Node3 -->
<g id="edge2" class="edge"><title>Node2&#45;&gt;Node3</title>
<path fill="none" stroke="midnightblue" d="M231.589,-173.53C257.997,-182.332 297.429,-195.476 326.58,-205.193"/>
<polygon fill="midnightblue" stroke="midnightblue" points="325.831,-208.633 336.424,-208.475 328.044,-201.992 325.831,-208.633"/>
</g>
<!-- Node5 -->
<g id="node5" class="node"><title>Node5</title>
<g id="a_node5"><a xlink:href="../../d7/dc4/waypoints_8qc.html#aa5407b0b7212365767c0a9bfe9656c2f" target="_top" xlink:title="waypoint_getlinkcost">
<polygon fill="none" stroke="black" points="312,-151.5 312,-170.5 420,-170.5 420,-151.5 312,-151.5"/>
<text text-anchor="middle" x="366" y="-158.5" font-family="Helvetica,sans-Serif" font-size="10.00">waypoint_getlinkcost</text>
</a>
</g>
</g>
<!-- Node2&#45;&gt;Node5 -->
<g id="edge4" class="edge"><title>Node2&#45;&gt;Node5</title>
<path fill="none" stroke="midnightblue" d="M276.416,-162.64C284.775,-162.486 293.242,-162.329 301.458,-162.177"/>
<polygon fill="midnightblue" stroke="midnightblue" points="301.769,-165.672 311.703,-161.987 301.64,-158.673 301.769,-165.672"/>
</g>
<!-- Node4 -->
<g id="node4" class="node"><title>Node4</title>
<g id="a_node4"><a xlink:href="../../d7/dc4/waypoints_8qc.html#aa32dd9faacb4df51d38f981d2ec47795" target="_top" xlink:title="waypoint_getlinknum">
<polygon fill="none" stroke="black" points="461,-218.5 461,-237.5 569,-237.5 569,-218.5 461,-218.5"/>
<text text-anchor="middle" x="515" y="-225.5" font-family="Helvetica,sans-Serif" font-size="10.00">waypoint_getlinknum</text>
</a>
</g>
</g>
<!-- Node3&#45;&gt;Node4 -->
<g id="edge3" class="edge"><title>Node3&#45;&gt;Node4</title>
<path fill="none" stroke="midnightblue" d="M413.108,-221.137C425.067,-221.95 438.155,-222.841 450.826,-223.702"/>
<polygon fill="midnightblue" stroke="midnightblue" points="450.653,-227.199 460.868,-224.386 451.129,-220.215 450.653,-227.199"/>
</g>
<!-- Node6 -->
<g id="node6" class="node"><title>Node6</title>
<g id="a_node6"><a xlink:href="../../d4/d0c/csprogsdefs_8qc.html#a4f0b78b1785821ba47129edb68e70f9e" target="_top" xlink:title="vector">
<polygon fill="none" stroke="black" points="493,-180.5 493,-199.5 537,-199.5 537,-180.5 493,-180.5"/>
<text text-anchor="middle" x="515" y="-187.5" font-family="Helvetica,sans-Serif" font-size="10.00">vector</text>
</a>
</g>
</g>
<!-- Node5&#45;&gt;Node6 -->
<g id="edge5" class="edge"><title>Node5&#45;&gt;Node6</title>
<path fill="none" stroke="midnightblue" d="M415.541,-170.576C437.8,-174.967 463.524,-180.042 483.096,-183.903"/>
<polygon fill="midnightblue" stroke="midnightblue" points="482.508,-187.355 492.996,-185.856 483.862,-180.487 482.508,-187.355"/>
</g>
<!-- Node7 -->
<g id="node7" class="node"><title>Node7</title>
<g id="a_node7"><a xlink:href="../../d8/de2/menudefs_8qc.html#a3846d117b360dccec575f96988cf3bb7" target="_top" xlink:title="bound">
<polygon fill="none" stroke="black" points="493.5,-142.5 493.5,-161.5 536.5,-161.5 536.5,-142.5 493.5,-142.5"/>
<text text-anchor="middle" x="515" y="-149.5" font-family="Helvetica,sans-Serif" font-size="10.00">bound</text>
</a>
</g>
</g>
<!-- Node5&#45;&gt;Node7 -->
<g id="edge6" class="edge"><title>Node5&#45;&gt;Node7</title>
<path fill="none" stroke="midnightblue" d="M420.07,-157.751C441.244,-156.454 464.876,-155.008 483.138,-153.89"/>
<polygon fill="midnightblue" stroke="midnightblue" points="483.444,-157.377 493.211,-153.273 483.016,-150.391 483.444,-157.377"/>
</g>
<!-- Node8 -->
<g id="node8" class="node"><title>Node8</title>
<g id="a_node8"><a xlink:href="../../d7/dc4/waypoints_8qc.html#a4ff6fb4088c04ce31f0ca8c9e688777a" target="_top" xlink:title="waypoint_gettravelcost">
<polygon fill="none" stroke="black" points="456.5,-104.5 456.5,-123.5 573.5,-123.5 573.5,-104.5 456.5,-104.5"/>
<text text-anchor="middle" x="515" y="-111.5" font-family="Helvetica,sans-Serif" font-size="10.00">waypoint_gettravelcost</text>
</a>
</g>
</g>
<!-- Node5&#45;&gt;Node8 -->
<g id="edge7" class="edge"><title>Node5&#45;&gt;Node8</title>
<path fill="none" stroke="midnightblue" d="M396.748,-151.489C419.089,-144.346 449.911,-134.491 474.347,-126.678"/>
<polygon fill="midnightblue" stroke="midnightblue" points="475.586,-129.957 484.045,-123.578 473.454,-123.289 475.586,-129.957"/>
</g>
<!-- Node9 -->
<g id="node9" class="node"><title>Node9</title>
<g id="a_node9"><a xlink:href="../../d1/d9a/navigation_8qc.html#aa11c1bcb734cd6504a02ed3d2c634163" target="_top" xlink:title="navigation_check_submerged\l_state">
<polygon fill="none" stroke="black" points="610,-214 610,-244 756,-244 756,-214 610,-214"/>
<text text-anchor="start" x="618" y="-232" font-family="Helvetica,sans-Serif" font-size="10.00">navigation_check_submerged</text>
<text text-anchor="middle" x="683" y="-221" font-family="Helvetica,sans-Serif" font-size="10.00">_state</text>
</a>
</g>
</g>
<!-- Node8&#45;&gt;Node9 -->
<g id="edge8" class="edge"><title>Node8&#45;&gt;Node9</title>
<path fill="none" stroke="midnightblue" d="M558.642,-123.596C564.188,-126.054 569.496,-129.136 574,-133 600.853,-156.036 583.351,-180.728 610,-204 611.919,-205.675 613.956,-207.24 616.083,-208.702"/>
<polygon fill="midnightblue" stroke="midnightblue" points="614.294,-211.71 624.672,-213.841 617.888,-205.703 614.294,-211.71"/>
</g>
<!-- Node10 -->
<g id="node10" class="node"><title>Node10</title>
<g id="a_node10"><a xlink:href="../../d7/dc4/waypoints_8qc.html#a399549857abcd6c3f94901ec1b6b5be4" target="_top" xlink:title="waypoint_getlinearcost\l_underwater">
<polygon fill="none" stroke="black" points="625,-165 625,-195 741,-195 741,-165 625,-165"/>
<text text-anchor="start" x="633" y="-183" font-family="Helvetica,sans-Serif" font-size="10.00">waypoint_getlinearcost</text>
<text text-anchor="middle" x="683" y="-172" font-family="Helvetica,sans-Serif" font-size="10.00">_underwater</text>
</a>
</g>
</g>
<!-- Node8&#45;&gt;Node10 -->
<g id="edge9" class="edge"><title>Node8&#45;&gt;Node10</title>
<path fill="none" stroke="midnightblue" d="M549.635,-123.555C557.754,-126.259 566.304,-129.447 574,-133 591.024,-140.86 593.046,-146.99 610,-155 614.593,-157.17 619.428,-159.251 624.328,-161.222"/>
<polygon fill="midnightblue" stroke="midnightblue" points="623.198,-164.537 633.787,-164.869 625.716,-158.006 623.198,-164.537"/>
</g>
<!-- Node11 -->
<g id="node11" class="node"><title>Node11</title>
<g id="a_node11"><a xlink:href="../../d8/de2/menudefs_8qc.html#a79d61ab0e4126e02af8bc36d432aedaf" target="_top" xlink:title="vlen">
<polygon fill="none" stroke="black" points="665.5,-126.5 665.5,-145.5 700.5,-145.5 700.5,-126.5 665.5,-126.5"/>
<text text-anchor="middle" x="683" y="-133.5" font-family="Helvetica,sans-Serif" font-size="10.00">vlen</text>
</a>
</g>
</g>
<!-- Node8&#45;&gt;Node11 -->
<g id="edge10" class="edge"><title>Node8&#45;&gt;Node11</title>
<path fill="none" stroke="midnightblue" d="M573.593,-121.633C601.437,-125.323 633.502,-129.573 655.495,-132.487"/>
<polygon fill="midnightblue" stroke="midnightblue" points="655.047,-135.958 665.42,-133.803 655.967,-129.019 655.047,-135.958"/>
</g>
<!-- Node12 -->
<g id="node12" class="node"><title>Node12</title>
<g id="a_node12"><a xlink:href="../../d7/dc4/waypoints_8qc.html#ac707b5aeee95d6eff3f2946ab35c0340" target="_top" xlink:title="waypoint_getlinearcost\l_crouched">
<polygon fill="none" stroke="black" points="625,-77 625,-107 741,-107 741,-77 625,-77"/>
<text text-anchor="start" x="633" y="-95" font-family="Helvetica,sans-Serif" font-size="10.00">waypoint_getlinearcost</text>
<text text-anchor="middle" x="683" y="-84" font-family="Helvetica,sans-Serif" font-size="10.00">_crouched</text>
</a>
</g>
</g>
<!-- Node8&#45;&gt;Node12 -->
<g id="edge11" class="edge"><title>Node8&#45;&gt;Node12</title>
<path fill="none" stroke="midnightblue" d="M573.593,-106.367C586.801,-104.617 600.959,-102.74 614.541,-100.94"/>
<polygon fill="midnightblue" stroke="midnightblue" points="615.336,-104.366 624.79,-99.5821 614.416,-97.4263 615.336,-104.366"/>
</g>
<!-- Node13 -->
<g id="node13" class="node"><title>Node13</title>
<g id="a_node13"><a xlink:href="../../d7/dc4/waypoints_8qc.html#ae6323b7e0f8ebe2aff52580a4a043072" target="_top" xlink:title="waypoint_getlinearcost">
<polygon fill="none" stroke="black" points="625,-38.5 625,-57.5 741,-57.5 741,-38.5 625,-38.5"/>
<text text-anchor="middle" x="683" y="-45.5" font-family="Helvetica,sans-Serif" font-size="10.00">waypoint_getlinearcost</text>
</a>
</g>
</g>
<!-- Node8&#45;&gt;Node13 -->
<g id="edge12" class="edge"><title>Node8&#45;&gt;Node13</title>
<path fill="none" stroke="midnightblue" d="M532.511,-104.435C550.926,-94.0811 581.833,-77.6287 610,-67 616.42,-64.5774 623.273,-62.3426 630.103,-60.3219"/>
<polygon fill="midnightblue" stroke="midnightblue" points="631.368,-63.6019 640.042,-57.5176 629.467,-56.8649 631.368,-63.6019"/>
</g>
<!-- Node14 -->
<g id="node14" class="node"><title>Node14</title>
<g id="a_node14"><a xlink:href="../../d8/de2/menudefs_8qc.html#a83f4d3f317a80e82e6b16ea61ea5efc3" target="_top" xlink:title="sqrt">
<polygon fill="none" stroke="black" points="666.5,-0.5 666.5,-19.5 699.5,-19.5 699.5,-0.5 666.5,-0.5"/>
<text text-anchor="middle" x="683" y="-7.5" font-family="Helvetica,sans-Serif" font-size="10.00">sqrt</text>
</a>
</g>
</g>
<!-- Node8&#45;&gt;Node14 -->
<g id="edge13" class="edge"><title>Node8&#45;&gt;Node14</title>
<path fill="none" stroke="midnightblue" d="M523.723,-104.492C538.554,-86.8756 572.858,-49.1261 610,-29 624.311,-21.2452 641.961,-16.5225 656.204,-13.7251"/>
<polygon fill="midnightblue" stroke="midnightblue" points="657.079,-17.125 666.32,-11.943 655.864,-10.2312 657.079,-17.125"/>
</g>
<!-- Node16 -->
<g id="node16" class="node"><title>Node16</title>
<g id="a_node16"><a xlink:href="../../d4/d0c/csprogsdefs_8qc.html#acbb54a239d76062465dccbc6a6c6e464" target="_top" xlink:title="entity">
<polygon fill="none" stroke="black" points="345.5,-112.5 345.5,-131.5 386.5,-131.5 386.5,-112.5 345.5,-112.5"/>
<text text-anchor="middle" x="366" y="-119.5" font-family="Helvetica,sans-Serif" font-size="10.00">entity</text>
</a>
</g>
</g>
<!-- Node15&#45;&gt;Node16 -->
<g id="edge15" class="edge"><title>Node15&#45;&gt;Node16</title>
<path fill="none" stroke="midnightblue" d="M256.045,-120.655C282.373,-120.98 313.192,-121.36 335.321,-121.634"/>
<polygon fill="midnightblue" stroke="midnightblue" points="335.386,-125.135 345.429,-121.758 335.473,-118.135 335.386,-125.135"/>
</g>
<!-- Node17 -->
<g id="node17" class="node"><title>Node17</title>
<g id="a_node17"><a xlink:href="../../de/dcb/vector_8qh.html#a9d1cd3b60eb67f1ec2a17fc2022e4276" target="_top" xlink:title="requires that m2&gt;m1 in all coordinates, and that m4&gt;m3 ">
<polygon fill="none" stroke="black" points="329,-74.5 329,-93.5 403,-93.5 403,-74.5 329,-74.5"/>
<text text-anchor="middle" x="366" y="-81.5" font-family="Helvetica,sans-Serif" font-size="10.00">boxesoverlap</text>
</a>
</g>
</g>
<!-- Node15&#45;&gt;Node17 -->
<g id="edge16" class="edge"><title>Node15&#45;&gt;Node17</title>
<path fill="none" stroke="midnightblue" d="M256.045,-108.212C276.318,-103.707 299.255,-98.6099 318.837,-94.2585"/>
<polygon fill="midnightblue" stroke="midnightblue" points="319.736,-97.6441 328.739,-92.0581 318.217,-90.8108 319.736,-97.6441"/>
</g>
</g>
</svg>
        <g id="navigator" transform="translate(0 0)" fill="#404254">
                <rect fill="#f2f5e9" fill-opacity="0.5" stroke="#606060" stroke-width=".5" x="0" y="0" width="60" height="60"/>
                <use id="zoomplus" xlink:href="#zoomPlus" x="17" y="9" onmousedown="handleZoom(evt,'in')"/>
                <use id="zoomminus" xlink:href="#zoomMin" x="42" y="9" onmousedown="handleZoom(evt,'out')"/>
                <use id="reset" xlink:href="#resetDef" x="30" y="36" onmousedown="handleReset()"/>
                <g id="arrowUp" xlink:href="#dirArrow" transform="translate(30 24)" onmousedown="handlePan(0,-1)">
                  <use xlink:href="#rim" fill="#404040">
                        <set attributeName="fill" to="#808080" begin="arrowUp.mouseover" end="arrowUp.mouseout"/>
                  </use>
                  <path fill="none" stroke="white" stroke-width="1.5" d="M0,-3.0v7 M-2.5,-0.5L0,-3.0L2.5,-0.5"/>
                </g>
                <g id="arrowRight" xlink:href="#dirArrow" transform="rotate(90) translate(36 -43)" onmousedown="handlePan(1,0)">
                  <use xlink:href="#rim" fill="#404040">
                        <set attributeName="fill" to="#808080" begin="arrowRight.mouseover" end="arrowRight.mouseout"/>
                  </use>
                  <path fill="none" stroke="white" stroke-width="1.5" d="M0,-3.0v7 M-2.5,-0.5L0,-3.0L2.5,-0.5"/>
                </g>
                <g id="arrowDown" xlink:href="#dirArrow" transform="rotate(180) translate(-30 -48)" onmousedown="handlePan(0,1)">
                  <use xlink:href="#rim" fill="#404040">
                        <set attributeName="fill" to="#808080" begin="arrowDown.mouseover" end="arrowDown.mouseout"/>
                  </use>
                  <path fill="none" stroke="white" stroke-width="1.5" d="M0,-3.0v7 M-2.5,-0.5L0,-3.0L2.5,-0.5"/>
                </g>
                <g id="arrowLeft" xlink:href="#dirArrow" transform="rotate(270) translate(-36 17)" onmousedown="handlePan(-1,0)">
                  <use xlink:href="#rim" fill="#404040">
                        <set attributeName="fill" to="#808080" begin="arrowLeft.mouseover" end="arrowLeft.mouseout"/>
                  </use>
                  <path fill="none" stroke="white" stroke-width="1.5" d="M0,-3.0v7 M-2.5,-0.5L0,-3.0L2.5,-0.5"/>
                </g>
        </g>
        <svg viewBox="0 0 15 15" width="100%" height="30px" preserveAspectRatio="xMaxYMin meet">
         <g id="arrow_out" transform="scale(0.3 0.3)">
          <a xlink:href="waypoints_8qc_a78500a5fdfa2de7f46f627274085fe08_cgraph_org.svg" target="_base">
           <rect id="button" ry="5" rx="5" y="6" x="6" height="38" width="38"
                fill="#f2f5e9" fill-opacity="0.5" stroke="#606060" stroke-width="1.0"/>
           <path id="arrow"
             d="M 11.500037,31.436501 C 11.940474,20.09759 22.043105,11.32322 32.158766,21.979434 L 37.068811,17.246167 C 37.068811,17.246167 37.088388,32 37.088388,32 L 22.160133,31.978069 C 22.160133,31.978069 26.997745,27.140456 26.997745,27.140456 C 18.528582,18.264221 13.291696,25.230495 11.500037,31.436501 z"
             style="fill:#404040;"/>
          </a>
         </g>
        </svg>
</svg>
