<?xml version="1.0" encoding="UTF-8" standalone="no"?>
<!DOCTYPE svg PUBLIC "-//W3C//DTD SVG 1.1//EN"
 "http://www.w3.org/Graphics/SVG/1.1/DTD/svg11.dtd">
<!-- Generated by graphviz version 2.36.0 (20140111.2315)
 -->
<!-- Title: findflags Pages: 1 -->
<!--zoomable 338 -->
<svg id="main" version="1.1" xmlns="http://www.w3.org/2000/svg" xmlns:xlink="http://www.w3.org/1999/xlink" xml:space="preserve" onload="init(evt)">
<style type="text/css"><![CDATA[
.edge:hover path { stroke: red; }
.edge:hover polygon { stroke: red; fill: red; }
]]></style>
<script type="text/javascript"><![CDATA[
var edges = document.getElementsByTagName('g');
if (edges && edges.length) {
  for (var i=0;i<edges.length;i++) {
    if (edges[i].id.substr(0,4)=='edge') {
      edges[i].setAttribute('class','edge');
    }
  }
}
]]></script>
        <defs>
                <circle id="rim" cx="0" cy="0" r="7"/>
                <circle id="rim2" cx="0" cy="0" r="3.5"/>
                <g id="zoomPlus">
                        <use xlink:href="#rim" fill="#404040">
                                <set attributeName="fill" to="#808080" begin="zoomplus.mouseover" end="zoomplus.mouseout"/>
                        </use>
                        <path d="M-4,0h8M0,-4v8" fill="none" stroke="white" stroke-width="1.5" pointer-events="none"/>
                </g>
                <g id="zoomMin">
                        <use xlink:href="#rim" fill="#404040">
                                <set attributeName="fill" to="#808080" begin="zoomminus.mouseover" end="zoomminus.mouseout"/>
                        </use>
                        <path d="M-4,0h8" fill="none" stroke="white" stroke-width="1.5" pointer-events="none"/>
                </g>
                <g id="dirArrow">
                        <path fill="none" stroke="white" stroke-width="1.5" d="M0,-3.0v7 M-2.5,-0.5L0,-3.0L2.5,-0.5"/>
                </g>
               <g id="resetDef">
                       <use xlink:href="#rim2" fill="#404040">
                               <set attributeName="fill" to="#808080" begin="reset.mouseover" end="reset.mouseout"/>
                       </use>
               </g>
        </defs>

<script type="text/javascript">
var viewWidth = 1538;
var viewHeight = 338;
var sectionId = 'dynsection-35';
</script>
<script xlink:href="../../svgpan.js"/>
<svg id="graph" class="graph">
<g id="viewport">
<title>findflags</title>
<!-- Node1 -->
<g id="node1" class="node"><title>Node1</title>
<polygon fill="#bfbfbf" stroke="black" points="0.5,-158.932 0.5,-177.932 53.5,-177.932 53.5,-158.932 0.5,-158.932"/>
<text text-anchor="middle" x="27" y="-165.932" font-family="Helvetica,sans-Serif" font-size="10.00">findflags</text>
</g>
<!-- Node2 -->
<g id="node2" class="node"><title>Node2</title>
<g id="a_node2"><a xlink:href="../../dc/d73/server_2miscfunctions_8qh.html#a980a6f943699026265182e645ad4d8ef" target="_top" xlink:title="MoveToRandomLocationWithin\lBounds">
<polygon fill="none" stroke="black" points="90.5,-153.432 90.5,-183.432 243.5,-183.432 243.5,-153.432 90.5,-153.432"/>
<text text-anchor="start" x="98.5" y="-171.432" font-family="Helvetica,sans-Serif" font-size="10.00">MoveToRandomLocationWithin</text>
<text text-anchor="middle" x="167" y="-160.432" font-family="Helvetica,sans-Serif" font-size="10.00">Bounds</text>
</a>
</g>
</g>
<!-- Node1&#45;&gt;Node2 -->
<g id="edge1" class="edge"><title>Node1&#45;&gt;Node2</title>
<path fill="none" stroke="midnightblue" d="M63.907,-168.432C72.1238,-168.432 81.1611,-168.432 90.3572,-168.432"/>
<polygon fill="midnightblue" stroke="midnightblue" points="63.6334,-164.932 53.6333,-168.432 63.6333,-171.932 63.6334,-164.932"/>
</g>
<!-- Node3 -->
<g id="node3" class="node"><title>Node3</title>
<g id="a_node3"><a xlink:href="../../dc/d73/server_2miscfunctions_8qh.html#aa93bfe50de097cc229818a2822f45a45" target="_top" xlink:title="MoveToRandomMapLocation">
<polygon fill="none" stroke="black" points="280,-158.932 280,-177.932 424,-177.932 424,-158.932 280,-158.932"/>
<text text-anchor="middle" x="352" y="-165.932" font-family="Helvetica,sans-Serif" font-size="10.00">MoveToRandomMapLocation</text>
</a>
</g>
</g>
<!-- Node2&#45;&gt;Node3 -->
<g id="edge2" class="edge"><title>Node2&#45;&gt;Node3</title>
<path fill="none" stroke="midnightblue" d="M253.861,-168.432C262.513,-168.432 271.233,-168.432 279.709,-168.432"/>
<polygon fill="midnightblue" stroke="midnightblue" points="253.754,-164.932 243.754,-168.432 253.754,-171.932 253.754,-164.932"/>
</g>
<!-- Node4 -->
<g id="node4" class="node"><title>Node4</title>
<g id="a_node4"><a xlink:href="../../d3/dca/cheats_8qh.html#a73c94da2bf38acf3536154e899458024" target="_top" xlink:title="CheatImpulse">
<polygon fill="none" stroke="black" points="500.5,-196.932 500.5,-215.932 577.5,-215.932 577.5,-196.932 500.5,-196.932"/>
<text text-anchor="middle" x="539" y="-203.932" font-family="Helvetica,sans-Serif" font-size="10.00">CheatImpulse</text>
</a>
</g>
</g>
<!-- Node3&#45;&gt;Node4 -->
<g id="edge3" class="edge"><title>Node3&#45;&gt;Node4</title>
<path fill="none" stroke="midnightblue" d="M409.824,-180.104C439.233,-186.144 474.323,-193.352 500.346,-198.698"/>
<polygon fill="midnightblue" stroke="midnightblue" points="410.183,-176.605 399.683,-178.021 408.775,-183.461 410.183,-176.605"/>
</g>
<!-- Node16 -->
<g id="node16" class="node"><title>Node16</title>
<g id="a_node16"><a xlink:href="../../d5/d1f/gamemode__invasion_8qc.html#a22fee24ee369a9b96b574f26ec9f9ab3" target="_top" xlink:title="invasion_SpawnChosenMonster">
<polygon fill="none" stroke="black" points="460.5,-158.932 460.5,-177.932 617.5,-177.932 617.5,-158.932 460.5,-158.932"/>
<text text-anchor="middle" x="539" y="-165.932" font-family="Helvetica,sans-Serif" font-size="10.00">invasion_SpawnChosenMonster</text>
</a>
</g>
</g>
<!-- Node3&#45;&gt;Node16 -->
<g id="edge15" class="edge"><title>Node3&#45;&gt;Node16</title>
<path fill="none" stroke="midnightblue" d="M434.321,-168.432C442.958,-168.432 451.727,-168.432 460.32,-168.432"/>
<polygon fill="midnightblue" stroke="midnightblue" points="434.261,-164.932 424.261,-168.432 434.261,-171.932 434.261,-164.932"/>
</g>
<!-- Node18 -->
<g id="node18" class="node"><title>Node18</title>
<g id="a_node18"><a xlink:href="../../d3/d5a/gamemode__keepaway_8qc.html#a918f60aac6917ab91d28888e6f0fade3" target="_top" xlink:title="ka_RespawnBall">
<polygon fill="none" stroke="black" points="494,-63.9318 494,-82.9318 584,-82.9318 584,-63.9318 494,-63.9318"/>
<text text-anchor="middle" x="539" y="-70.9318" font-family="Helvetica,sans-Serif" font-size="10.00">ka_RespawnBall</text>
</a>
</g>
</g>
<!-- Node3&#45;&gt;Node18 -->
<g id="edge17" class="edge"><title>Node3&#45;&gt;Node18</title>
<path fill="none" stroke="midnightblue" d="M380.805,-154.154C419.052,-134.513 486.857,-99.6942 519.469,-82.948"/>
<polygon fill="midnightblue" stroke="midnightblue" points="379.054,-151.118 371.757,-158.8 382.251,-157.345 379.054,-151.118"/>
</g>
<!-- Node5 -->
<g id="node5" class="node"><title>Node5</title>
<g id="a_node5"><a xlink:href="../../d2/d0a/common_2physics_2player_8qc.html#aba6bcdf9b4bf24fa41a76f0cca28fa9b" target="_top" xlink:title="SpecialCommand">
<polygon fill="none" stroke="black" points="671,-196.932 671,-215.932 765,-215.932 765,-196.932 671,-196.932"/>
<text text-anchor="middle" x="718" y="-203.932" font-family="Helvetica,sans-Serif" font-size="10.00">SpecialCommand</text>
</a>
</g>
</g>
<!-- Node4&#45;&gt;Node5 -->
<g id="edge4" class="edge"><title>Node4&#45;&gt;Node5</title>
<path fill="none" stroke="midnightblue" d="M587.814,-206.432C613.563,-206.432 645.185,-206.432 670.698,-206.432"/>
<polygon fill="midnightblue" stroke="midnightblue" points="587.537,-202.932 577.537,-206.432 587.537,-209.932 587.537,-202.932"/>
</g>
<!-- Node8 -->
<g id="node8" class="node"><title>Node8</title>
<g id="a_node8"><a xlink:href="../../d3/dd1/server_2impulse_8qh.html#a592fd33e424a2e05854957b679c37e1b" target="_top" xlink:title="ImpulseCommands">
<polygon fill="none" stroke="black" points="667.5,-234.932 667.5,-253.932 768.5,-253.932 768.5,-234.932 667.5,-234.932"/>
<text text-anchor="middle" x="718" y="-241.932" font-family="Helvetica,sans-Serif" font-size="10.00">ImpulseCommands</text>
</a>
</g>
</g>
<!-- Node4&#45;&gt;Node8 -->
<g id="edge7" class="edge"><title>Node4&#45;&gt;Node8</title>
<path fill="none" stroke="midnightblue" d="M587.351,-216.598C613.837,-222.284 646.648,-229.328 672.635,-234.907"/>
<polygon fill="midnightblue" stroke="midnightblue" points="588.049,-213.168 577.537,-214.491 586.58,-220.012 588.049,-213.168"/>
</g>
<!-- Node6 -->
<g id="node6" class="node"><title>Node6</title>
<g id="a_node6"><a xlink:href="../../d2/d0a/common_2physics_2player_8qc.html#a9eee2f2f5f376f53befdf1537abe179d" target="_top" xlink:title="PM_check_specialcommand">
<polygon fill="none" stroke="black" points="818,-196.932 818,-215.932 960,-215.932 960,-196.932 818,-196.932"/>
<text text-anchor="middle" x="889" y="-203.932" font-family="Helvetica,sans-Serif" font-size="10.00">PM_check_specialcommand</text>
</a>
</g>
</g>
<!-- Node5&#45;&gt;Node6 -->
<g id="edge5" class="edge"><title>Node5&#45;&gt;Node6</title>
<path fill="none" stroke="midnightblue" d="M775.335,-206.432C788.929,-206.432 803.623,-206.432 817.766,-206.432"/>
<polygon fill="midnightblue" stroke="midnightblue" points="775.18,-202.932 765.18,-206.432 775.18,-209.932 775.18,-202.932"/>
</g>
<!-- Node7 -->
<g id="node7" class="node"><title>Node7</title>
<g id="a_node7"><a xlink:href="../../db/d47/sv__physics_8qc.html#a042dfde0db60e8645ae713d3de8d5641" target="_top" xlink:title="sys_phys_override">
<polygon fill="none" stroke="black" points="1024,-196.932 1024,-215.932 1122,-215.932 1122,-196.932 1024,-196.932"/>
<text text-anchor="middle" x="1073" y="-203.932" font-family="Helvetica,sans-Serif" font-size="10.00">sys_phys_override</text>
</a>
</g>
</g>
<!-- Node6&#45;&gt;Node7 -->
<g id="edge6" class="edge"><title>Node6&#45;&gt;Node7</title>
<path fill="none" stroke="midnightblue" d="M970.203,-206.432C988.523,-206.432 1007.43,-206.432 1023.91,-206.432"/>
<polygon fill="midnightblue" stroke="midnightblue" points="970.106,-202.932 960.106,-206.432 970.106,-209.932 970.106,-202.932"/>
</g>
<!-- Node9 -->
<g id="node9" class="node"><title>Node9</title>
<g id="a_node9"><a xlink:href="../../d3/d73/gamemode__ctf_8qc.html#a8edcce745140a0191b957e969f8a2cfb" target="_top" xlink:title="ctf_FlagThink">
<polygon fill="none" stroke="black" points="851,-234.932 851,-253.932 927,-253.932 927,-234.932 851,-234.932"/>
<text text-anchor="middle" x="889" y="-241.932" font-family="Helvetica,sans-Serif" font-size="10.00">ctf_FlagThink</text>
</a>
</g>
</g>
<!-- Node8&#45;&gt;Node9 -->
<g id="edge8" class="edge"><title>Node8&#45;&gt;Node9</title>
<path fill="none" stroke="midnightblue" d="M778.879,-244.432C802.889,-244.432 829.806,-244.432 850.899,-244.432"/>
<polygon fill="midnightblue" stroke="midnightblue" points="778.792,-240.932 768.792,-244.432 778.791,-247.932 778.792,-240.932"/>
</g>
<!-- Node12 -->
<g id="node12" class="node"><title>Node12</title>
<g id="a_node12"><a xlink:href="../../df/dd7/server_2client_8qc.html#a35da2ff46a7d16ee6dd935fc1e65a72c" target="_top" xlink:title="PlayerPostThink">
<polygon fill="none" stroke="black" points="844.5,-272.932 844.5,-291.932 933.5,-291.932 933.5,-272.932 844.5,-272.932"/>
<text text-anchor="middle" x="889" y="-279.932" font-family="Helvetica,sans-Serif" font-size="10.00">PlayerPostThink</text>
</a>
</g>
</g>
<!-- Node8&#45;&gt;Node12 -->
<g id="edge11" class="edge"><title>Node8&#45;&gt;Node12</title>
<path fill="none" stroke="midnightblue" d="M771.587,-256.256C795.413,-261.613 823.207,-267.863 845.661,-272.912"/>
<polygon fill="midnightblue" stroke="midnightblue" points="772.17,-252.8 761.646,-254.021 770.634,-259.629 772.17,-252.8"/>
</g>
<!-- Node10 -->
<g id="node10" class="node"><title>Node10</title>
<g id="a_node10"><a xlink:href="../../d3/d73/gamemode__ctf_8qc.html#ae4da0b9f3b47d57388ba498d2baed651" target="_top" xlink:title="ctf_FlagSetup">
<polygon fill="none" stroke="black" points="1034.5,-234.932 1034.5,-253.932 1111.5,-253.932 1111.5,-234.932 1034.5,-234.932"/>
<text text-anchor="middle" x="1073" y="-241.932" font-family="Helvetica,sans-Serif" font-size="10.00">ctf_FlagSetup</text>
</a>
</g>
</g>
<!-- Node9&#45;&gt;Node10 -->
<g id="edge9" class="edge"><title>Node9&#45;&gt;Node10</title>
<path fill="none" stroke="midnightblue" d="M937.584,-244.432C967.817,-244.432 1006.4,-244.432 1034.47,-244.432"/>
<polygon fill="midnightblue" stroke="midnightblue" points="937.27,-240.932 927.27,-244.432 937.27,-247.932 937.27,-240.932"/>
</g>
<!-- Node11 -->
<g id="node11" class="node"><title>Node11</title>
<g id="a_node11"><a xlink:href="../../d3/d73/gamemode__ctf_8qc.html#a2a2129ef74628a0c8bef5d48a016e3e0" target="_top" xlink:title="spawnfunc">
<polygon fill="none" stroke="black" points="1194,-234.932 1194,-253.932 1258,-253.932 1258,-234.932 1194,-234.932"/>
<text text-anchor="middle" x="1226" y="-241.932" font-family="Helvetica,sans-Serif" font-size="10.00">spawnfunc</text>
</a>
</g>
</g>
<!-- Node10&#45;&gt;Node11 -->
<g id="edge10" class="edge"><title>Node10&#45;&gt;Node11</title>
<path fill="none" stroke="midnightblue" d="M1121.86,-244.432C1145.4,-244.432 1173.1,-244.432 1193.86,-244.432"/>
<polygon fill="midnightblue" stroke="midnightblue" points="1121.71,-240.932 1111.71,-244.432 1121.71,-247.932 1121.71,-240.932"/>
</g>
<!-- Node13 -->
<g id="node13" class="node"><title>Node13</title>
<g id="a_node13"><a xlink:href="../../d5/dd1/playerdemo_8qh.html#a3d6b65b19141e5215083447705deb88c" target="_top" xlink:title="playerdemo_read">
<polygon fill="none" stroke="black" points="1027.5,-310.932 1027.5,-329.932 1118.5,-329.932 1118.5,-310.932 1027.5,-310.932"/>
<text text-anchor="middle" x="1073" y="-317.932" font-family="Helvetica,sans-Serif" font-size="10.00">playerdemo_read</text>
</a>
</g>
</g>
<!-- Node12&#45;&gt;Node13 -->
<g id="edge12" class="edge"><title>Node12&#45;&gt;Node13</title>
<path fill="none" stroke="midnightblue" d="M943.547,-293.612C970.249,-299.187 1002.16,-305.85 1027.5,-311.14"/>
<polygon fill="midnightblue" stroke="midnightblue" points="944.098,-290.152 933.594,-291.534 942.667,-297.004 944.098,-290.152"/>
</g>
<!-- Node15 -->
<g id="node15" class="node"><title>Node15</title>
<g id="a_node15"><a xlink:href="../../d3/d4f/sv__main_8qc.html#a554af7e2ac58045168dad9eca30bc8b1" target="_top" xlink:title="StartFrame">
<polygon fill="none" stroke="black" points="1040.5,-272.932 1040.5,-291.932 1105.5,-291.932 1105.5,-272.932 1040.5,-272.932"/>
<text text-anchor="middle" x="1073" y="-279.932" font-family="Helvetica,sans-Serif" font-size="10.00">StartFrame</text>
</a>
</g>
</g>
<!-- Node12&#45;&gt;Node15 -->
<g id="edge14" class="edge"><title>Node12&#45;&gt;Node15</title>
<path fill="none" stroke="midnightblue" d="M943.95,-282.432C975.374,-282.432 1013.91,-282.432 1040.44,-282.432"/>
<polygon fill="midnightblue" stroke="midnightblue" points="943.594,-278.932 933.594,-282.432 943.594,-285.932 943.594,-278.932"/>
</g>
<!-- Node14 -->
<g id="node14" class="node"><title>Node14</title>
<g id="a_node14"><a xlink:href="../../db/d47/sv__physics_8qc.html#a50dd909e0a02aa3e18e75c75fffae1ec" target="_top" xlink:title="sys_phys_ai">
<polygon fill="none" stroke="black" points="1190.5,-310.932 1190.5,-329.932 1261.5,-329.932 1261.5,-310.932 1190.5,-310.932"/>
<text text-anchor="middle" x="1226" y="-317.932" font-family="Helvetica,sans-Serif" font-size="10.00">sys_phys_ai</text>
</a>
</g>
</g>
<!-- Node13&#45;&gt;Node14 -->
<g id="edge13" class="edge"><title>Node13&#45;&gt;Node14</title>
<path fill="none" stroke="midnightblue" d="M1129.02,-320.432C1149.42,-320.432 1171.98,-320.432 1190.1,-320.432"/>
<polygon fill="midnightblue" stroke="midnightblue" points="1128.9,-316.932 1118.9,-320.432 1128.9,-323.932 1128.9,-316.932"/>
</g>
<!-- Node17 -->
<g id="node17" class="node"><title>Node17</title>
<g id="a_node17"><a xlink:href="../../d5/d1f/gamemode__invasion_8qc.html#ac1638633f4da1a28f12acdc96dfbc7df" target="_top" xlink:title="invasion_SpawnMonsters">
<polygon fill="none" stroke="black" points="654,-158.932 654,-177.932 782,-177.932 782,-158.932 654,-158.932"/>
<text text-anchor="middle" x="718" y="-165.932" font-family="Helvetica,sans-Serif" font-size="10.00">invasion_SpawnMonsters</text>
</a>
</g>
</g>
<!-- Node16&#45;&gt;Node17 -->
<g id="edge16" class="edge"><title>Node16&#45;&gt;Node17</title>
<path fill="none" stroke="midnightblue" d="M627.868,-168.432C636.605,-168.432 645.351,-168.432 653.765,-168.432"/>
<polygon fill="midnightblue" stroke="midnightblue" points="627.635,-164.932 617.635,-168.432 627.635,-171.932 627.635,-164.932"/>
</g>
<!-- Node19 -->
<g id="node19" class="node"><title>Node19</title>
<g id="a_node19"><a xlink:href="../../d3/d5a/gamemode__keepaway_8qc.html#ac4c4fbb459ed5ae28fa62d2a8d53a5a7" target="_top" xlink:title="ka_TouchEvent">
<polygon fill="none" stroke="black" points="675.5,-6.93183 675.5,-25.9318 760.5,-25.9318 760.5,-6.93183 675.5,-6.93183"/>
<text text-anchor="middle" x="718" y="-13.9318" font-family="Helvetica,sans-Serif" font-size="10.00">ka_TouchEvent</text>
</a>
</g>
</g>
<!-- Node18&#45;&gt;Node19 -->
<g id="edge18" class="edge"><title>Node18&#45;&gt;Node19</title>
<path fill="none" stroke="midnightblue" d="M566.025,-60.1022C594.785,-48.7798 641.508,-33.4407 675.368,-24.0126"/>
<polygon fill="midnightblue" stroke="midnightblue" points="564.591,-56.9071 556.652,-63.9233 567.233,-63.3892 564.591,-56.9071"/>
</g>
<!-- Node20 -->
<g id="node20" class="node"><title>Node20</title>
<g id="a_node20"><a xlink:href="../../d1/d04/gamemode__keepaway_8qh.html#a259b3a95461e18da357a2b9d7512e2e6" target="_top" xlink:title="ka_DropEvent">
<polygon fill="none" stroke="black" points="849.5,-44.9318 849.5,-63.9318 928.5,-63.9318 928.5,-44.9318 849.5,-44.9318"/>
<text text-anchor="middle" x="889" y="-51.9318" font-family="Helvetica,sans-Serif" font-size="10.00">ka_DropEvent</text>
</a>
</g>
</g>
<!-- Node18&#45;&gt;Node20 -->
<g id="edge27" class="edge"><title>Node18&#45;&gt;Node20</title>
<path fill="none" stroke="midnightblue" d="M594.132,-70.4763C664.926,-66.6112 787.222,-59.9341 849.356,-56.5417"/>
<polygon fill="midnightblue" stroke="midnightblue" points="593.869,-66.9854 584.074,-71.0255 594.25,-73.975 593.869,-66.9854"/>
</g>
<!-- Node21 -->
<g id="node21" class="node"><title>Node21</title>
<g id="a_node21"><a xlink:href="../../d3/d5a/gamemode__keepaway_8qc.html#ad75b1b0af4cf3c4d1edc48296104d6ed" target="_top" xlink:title="used to clear the ballcarrier whenever the match switches from warmup to normal ">
<polygon fill="none" stroke="black" points="1043.5,-82.9318 1043.5,-101.932 1102.5,-101.932 1102.5,-82.9318 1043.5,-82.9318"/>
<text text-anchor="middle" x="1073" y="-89.9318" font-family="Helvetica,sans-Serif" font-size="10.00">ka_Reset</text>
</a>
</g>
</g>
<!-- Node18&#45;&gt;Node21 -->
<g id="edge28" class="edge"><title>Node18&#45;&gt;Node21</title>
<path fill="none" stroke="midnightblue" d="M594.5,-75.3782C706.357,-79.3732 958.48,-88.3776 1043.44,-91.4117"/>
<polygon fill="midnightblue" stroke="midnightblue" points="594.562,-71.8783 584.443,-75.0191 594.312,-78.8739 594.562,-71.8783"/>
</g>
<!-- Node22 -->
<g id="node22" class="node"><title>Node22</title>
<g id="a_node22"><a xlink:href="../../d3/d5a/gamemode__keepaway_8qc.html#abbf02f92af7cca347d884d06e05b7399" target="_top" xlink:title="ka_SpawnBall">
<polygon fill="none" stroke="black" points="1186.5,-82.9318 1186.5,-101.932 1265.5,-101.932 1265.5,-82.9318 1186.5,-82.9318"/>
<text text-anchor="middle" x="1226" y="-89.9318" font-family="Helvetica,sans-Serif" font-size="10.00">ka_SpawnBall</text>
</a>
</g>
</g>
<!-- Node18&#45;&gt;Node22 -->
<g id="edge29" class="edge"><title>Node18&#45;&gt;Node22</title>
<path fill="none" stroke="midnightblue" d="M594.124,-84.3085C612.999,-87.7338 634.368,-91.2014 654,-93.4318 873.18,-118.333 931.106,-138.727 1150,-111.432 1164.93,-109.57 1181.15,-105.701 1194.68,-101.937"/>
<polygon fill="midnightblue" stroke="midnightblue" points="594.683,-80.8526 584.213,-82.4732 593.408,-87.7356 594.683,-80.8526"/>
</g>
<!-- Node19&#45;&gt;Node18 -->
<g id="edge19" class="edge"><title>Node19&#45;&gt;Node18</title>
<path fill="none" stroke="midnightblue" d="M690.825,-29.8207C662.777,-40.8525 617.768,-55.6717 584.208,-65.1295"/>
<polygon fill="midnightblue" stroke="midnightblue" points="692.398,-32.9591 700.338,-25.9446 689.757,-26.4765 692.398,-32.9591"/>
</g>
<!-- Node19&#45;&gt;Node20 -->
<g id="edge20" class="edge"><title>Node19&#45;&gt;Node20</title>
<path fill="none" stroke="midnightblue" d="M770.595,-28.033C795.94,-33.732 825.967,-40.4835 849.309,-45.7321"/>
<polygon fill="midnightblue" stroke="midnightblue" points="771.3,-24.6042 760.775,-25.8251 769.764,-31.4337 771.3,-24.6042"/>
</g>
<!-- Node19&#45;&gt;Node22 -->
<g id="edge26" class="edge"><title>Node19&#45;&gt;Node22</title>
<path fill="none" stroke="midnightblue" d="M770.853,-9.03224C853.786,0.701324 1020.14,11.5239 1150,-35.4318 1177.38,-45.3308 1202.94,-69.0212 1215.98,-82.5386"/>
<polygon fill="midnightblue" stroke="midnightblue" points="770.183,-5.58788 760.679,-10.2706 771.029,-12.5366 770.183,-5.58788"/>
</g>
<!-- Node20&#45;&gt;Node21 -->
<g id="edge21" class="edge"><title>Node20&#45;&gt;Node21</title>
<path fill="none" stroke="midnightblue" d="M938.623,-64.5839C972.031,-71.5592 1015.25,-80.583 1043.29,-86.4381"/>
<polygon fill="midnightblue" stroke="midnightblue" points="939.102,-61.1084 928.598,-62.4907 937.671,-67.9607 939.102,-61.1084"/>
</g>
<!-- Node25 -->
<g id="node25" class="node"><title>Node25</title>
<g id="a_node25"><a xlink:href="../../d3/d5a/gamemode__keepaway_8qc.html#a8794086f299436c0f3ad85428fbe8e3e" target="_top" xlink:title="MUTATOR_HOOKFUNCTION">
<polygon fill="none" stroke="black" points="996.5,-44.9318 996.5,-63.9318 1149.5,-63.9318 1149.5,-44.9318 996.5,-44.9318"/>
<text text-anchor="middle" x="1073" y="-51.9318" font-family="Helvetica,sans-Serif" font-size="10.00">MUTATOR_HOOKFUNCTION</text>
</a>
</g>
</g>
<!-- Node20&#45;&gt;Node25 -->
<g id="edge25" class="edge"><title>Node20&#45;&gt;Node25</title>
<path fill="none" stroke="midnightblue" d="M938.678,-54.4318C956.387,-54.4318 976.846,-54.4318 996.339,-54.4318"/>
<polygon fill="midnightblue" stroke="midnightblue" points="938.598,-50.9319 928.598,-54.4318 938.597,-57.9319 938.598,-50.9319"/>
</g>
<!-- Node21&#45;&gt;Node22 -->
<g id="edge22" class="edge"><title>Node21&#45;&gt;Node22</title>
<path fill="none" stroke="midnightblue" d="M1113,-92.4318C1135.57,-92.4318 1163.86,-92.4318 1186.36,-92.4318"/>
<polygon fill="midnightblue" stroke="midnightblue" points="1112.76,-88.9319 1102.76,-92.4318 1112.76,-95.9319 1112.76,-88.9319"/>
</g>
<!-- Node23 -->
<g id="node23" class="node"><title>Node23</title>
<g id="a_node23"><a xlink:href="../../d1/d04/gamemode__keepaway_8qh.html#ad066a4c24559d830eee8b0e63c5e5d0e" target="_top" xlink:title="ka_Initialize">
<polygon fill="none" stroke="black" points="1302,-82.9318 1302,-101.932 1370,-101.932 1370,-82.9318 1302,-82.9318"/>
<text text-anchor="middle" x="1336" y="-89.9318" font-family="Helvetica,sans-Serif" font-size="10.00">ka_Initialize</text>
</a>
</g>
</g>
<!-- Node22&#45;&gt;Node23 -->
<g id="edge23" class="edge"><title>Node22&#45;&gt;Node23</title>
<path fill="none" stroke="midnightblue" d="M1275.89,-92.4318C1284.71,-92.4318 1293.71,-92.4318 1301.94,-92.4318"/>
<polygon fill="midnightblue" stroke="midnightblue" points="1275.69,-88.9319 1265.69,-92.4318 1275.69,-95.9319 1275.69,-88.9319"/>
</g>
<!-- Node24 -->
<g id="node24" class="node"><title>Node24</title>
<g id="a_node24"><a xlink:href="../../d1/d04/gamemode__keepaway_8qh.html#a5b9c6f34b2b2004f1dd81df0ecf52a38" target="_top" xlink:title="REGISTER_MUTATOR">
<polygon fill="none" stroke="black" points="1406.5,-82.9318 1406.5,-101.932 1529.5,-101.932 1529.5,-82.9318 1406.5,-82.9318"/>
<text text-anchor="middle" x="1468" y="-89.9318" font-family="Helvetica,sans-Serif" font-size="10.00">REGISTER_MUTATOR</text>
</a>
</g>
</g>
<!-- Node23&#45;&gt;Node24 -->
<g id="edge24" class="edge"><title>Node23&#45;&gt;Node24</title>
<path fill="none" stroke="midnightblue" d="M1380.37,-92.4318C1388.72,-92.4318 1397.6,-92.4318 1406.37,-92.4318"/>
<polygon fill="midnightblue" stroke="midnightblue" points="1380.14,-88.9319 1370.14,-92.4318 1380.14,-95.9319 1380.14,-88.9319"/>
</g>
</g>
</svg>
        <g id="navigator" transform="translate(0 0)" fill="#404254">
                <rect fill="#f2f5e9" fill-opacity="0.5" stroke="#606060" stroke-width=".5" x="0" y="0" width="60" height="60"/>
                <use id="zoomplus" xlink:href="#zoomPlus" x="17" y="9" onmousedown="handleZoom(evt,'in')"/>
                <use id="zoomminus" xlink:href="#zoomMin" x="42" y="9" onmousedown="handleZoom(evt,'out')"/>
                <use id="reset" xlink:href="#resetDef" x="30" y="36" onmousedown="handleReset()"/>
                <g id="arrowUp" xlink:href="#dirArrow" transform="translate(30 24)" onmousedown="handlePan(0,-1)">
                  <use xlink:href="#rim" fill="#404040">
                        <set attributeName="fill" to="#808080" begin="arrowUp.mouseover" end="arrowUp.mouseout"/>
                  </use>
                  <path fill="none" stroke="white" stroke-width="1.5" d="M0,-3.0v7 M-2.5,-0.5L0,-3.0L2.5,-0.5"/>
                </g>
                <g id="arrowRight" xlink:href="#dirArrow" transform="rotate(90) translate(36 -43)" onmousedown="handlePan(1,0)">
                  <use xlink:href="#rim" fill="#404040">
                        <set attributeName="fill" to="#808080" begin="arrowRight.mouseover" end="arrowRight.mouseout"/>
                  </use>
                  <path fill="none" stroke="white" stroke-width="1.5" d="M0,-3.0v7 M-2.5,-0.5L0,-3.0L2.5,-0.5"/>
                </g>
                <g id="arrowDown" xlink:href="#dirArrow" transform="rotate(180) translate(-30 -48)" onmousedown="handlePan(0,1)">
                  <use xlink:href="#rim" fill="#404040">
                        <set attributeName="fill" to="#808080" begin="arrowDown.mouseover" end="arrowDown.mouseout"/>
                  </use>
                  <path fill="none" stroke="white" stroke-width="1.5" d="M0,-3.0v7 M-2.5,-0.5L0,-3.0L2.5,-0.5"/>
                </g>
                <g id="arrowLeft" xlink:href="#dirArrow" transform="rotate(270) translate(-36 17)" onmousedown="handlePan(-1,0)">
                  <use xlink:href="#rim" fill="#404040">
                        <set attributeName="fill" to="#808080" begin="arrowLeft.mouseover" end="arrowLeft.mouseout"/>
                  </use>
                  <path fill="none" stroke="white" stroke-width="1.5" d="M0,-3.0v7 M-2.5,-0.5L0,-3.0L2.5,-0.5"/>
                </g>
        </g>
        <svg viewBox="0 0 15 15" width="100%" height="30px" preserveAspectRatio="xMaxYMin meet">
         <g id="arrow_out" transform="scale(0.3 0.3)">
          <a xlink:href="menudefs_8qc_a54329982495386f61974e026b9ce1f1b_icgraph_org.svg" target="_base">
           <rect id="button" ry="5" rx="5" y="6" x="6" height="38" width="38"
                fill="#f2f5e9" fill-opacity="0.5" stroke="#606060" stroke-width="1.0"/>
           <path id="arrow"
             d="M 11.500037,31.436501 C 11.940474,20.09759 22.043105,11.32322 32.158766,21.979434 L 37.068811,17.246167 C 37.068811,17.246167 37.088388,32 37.088388,32 L 22.160133,31.978069 C 22.160133,31.978069 26.997745,27.140456 26.997745,27.140456 C 18.528582,18.264221 13.291696,25.230495 11.500037,31.436501 z"
             style="fill:#404040;"/>
          </a>
         </g>
        </svg>
</svg>
