<?xml version="1.0" encoding="UTF-8" standalone="no"?>
<!DOCTYPE svg PUBLIC "-//W3C//DTD SVG 1.1//EN"
 "http://www.w3.org/Graphics/SVG/1.1/DTD/svg11.dtd">
<!-- Generated by graphviz version 2.36.0 (20140111.2315)
 -->
<!-- Title: drawresetcliparea Pages: 1 -->
<!--zoomable 208 -->
<svg id="main" version="1.1" xmlns="http://www.w3.org/2000/svg" xmlns:xlink="http://www.w3.org/1999/xlink" xml:space="preserve" onload="init(evt)">
<style type="text/css"><![CDATA[
.edge:hover path { stroke: red; }
.edge:hover polygon { stroke: red; fill: red; }
]]></style>
<script type="text/javascript"><![CDATA[
var edges = document.getElementsByTagName('g');
if (edges && edges.length) {
  for (var i=0;i<edges.length;i++) {
    if (edges[i].id.substr(0,4)=='edge') {
      edges[i].setAttribute('class','edge');
    }
  }
}
]]></script>
        <defs>
                <circle id="rim" cx="0" cy="0" r="7"/>
                <circle id="rim2" cx="0" cy="0" r="3.5"/>
                <g id="zoomPlus">
                        <use xlink:href="#rim" fill="#404040">
                                <set attributeName="fill" to="#808080" begin="zoomplus.mouseover" end="zoomplus.mouseout"/>
                        </use>
                        <path d="M-4,0h8M0,-4v8" fill="none" stroke="white" stroke-width="1.5" pointer-events="none"/>
                </g>
                <g id="zoomMin">
                        <use xlink:href="#rim" fill="#404040">
                                <set attributeName="fill" to="#808080" begin="zoomminus.mouseover" end="zoomminus.mouseout"/>
                        </use>
                        <path d="M-4,0h8" fill="none" stroke="white" stroke-width="1.5" pointer-events="none"/>
                </g>
                <g id="dirArrow">
                        <path fill="none" stroke="white" stroke-width="1.5" d="M0,-3.0v7 M-2.5,-0.5L0,-3.0L2.5,-0.5"/>
                </g>
               <g id="resetDef">
                       <use xlink:href="#rim2" fill="#404040">
                               <set attributeName="fill" to="#808080" begin="reset.mouseover" end="reset.mouseout"/>
                       </use>
               </g>
        </defs>

<script type="text/javascript">
var viewWidth = 654;
var viewHeight = 208;
var sectionId = 'dynsection-22';
</script>
<script xlink:href="../../svgpan.js"/>
<svg id="graph" class="graph">
<g id="viewport">
<title>drawresetcliparea</title>
<!-- Node1 -->
<g id="node1" class="node"><title>Node1</title>
<polygon fill="#bfbfbf" stroke="black" points="0.5,-57.5 0.5,-76.5 93.5,-76.5 93.5,-57.5 0.5,-57.5"/>
<text text-anchor="middle" x="47" y="-64.5" font-family="Helvetica,sans-Serif" font-size="10.00">drawresetcliparea</text>
</g>
<!-- Node2 -->
<g id="node2" class="node"><title>Node2</title>
<g id="a_node2"><a xlink:href="../../d9/d62/menu_2draw_8qh.html#ae8b20802138b0f068ab87b7e39396805" target="_top" xlink:title="draw_ClearClip">
<polygon fill="none" stroke="black" points="140.5,-133.5 140.5,-152.5 223.5,-152.5 223.5,-133.5 140.5,-133.5"/>
<text text-anchor="middle" x="182" y="-140.5" font-family="Helvetica,sans-Serif" font-size="10.00">draw_ClearClip</text>
</a>
</g>
</g>
<!-- Node1&#45;&gt;Node2 -->
<g id="edge1" class="edge"><title>Node1&#45;&gt;Node2</title>
<path fill="none" stroke="midnightblue" d="M73.6458,-81.6548C100.375,-96.9285 141.48,-120.417 164.292,-133.453"/>
<polygon fill="midnightblue" stroke="midnightblue" points="75.2635,-78.548 64.8445,-76.6255 71.7905,-84.6257 75.2635,-78.548"/>
</g>
<!-- Node6 -->
<g id="node6" class="node"><title>Node6</title>
<g id="a_node6"><a xlink:href="../../dd/d59/modicons_8qc.html#ab249e30ac1a70492e9d7d54355c61985" target="_top" xlink:title="DrawDomItem">
<polygon fill="none" stroke="black" points="142,-76.5 142,-95.5 222,-95.5 222,-76.5 142,-76.5"/>
<text text-anchor="middle" x="182" y="-83.5" font-family="Helvetica,sans-Serif" font-size="10.00">DrawDomItem</text>
</a>
</g>
</g>
<!-- Node1&#45;&gt;Node6 -->
<g id="edge5" class="edge"><title>Node1&#45;&gt;Node6</title>
<path fill="none" stroke="midnightblue" d="M103.851,-74.9787C116.609,-76.8014 129.905,-78.7007 141.793,-80.3989"/>
<polygon fill="midnightblue" stroke="midnightblue" points="104.166,-71.4882 93.7711,-73.5387 103.176,-78.4178 104.166,-71.4882"/>
</g>
<!-- Node10 -->
<g id="node10" class="node"><title>Node10</title>
<g id="a_node10"><a xlink:href="../../df/d1f/client_2hud_2panel_2vote_8qc.html#a297e9e4e75bcd558a43f78eb74dd2140" target="_top" xlink:title="Vote window (#9) ">
<polygon fill="none" stroke="black" points="149.5,-38.5 149.5,-57.5 214.5,-57.5 214.5,-38.5 149.5,-38.5"/>
<text text-anchor="middle" x="182" y="-45.5" font-family="Helvetica,sans-Serif" font-size="10.00">HUD_Vote</text>
</a>
</g>
</g>
<!-- Node1&#45;&gt;Node10 -->
<g id="edge9" class="edge"><title>Node1&#45;&gt;Node10</title>
<path fill="none" stroke="midnightblue" d="M103.844,-59.0223C119.403,-56.7996 135.761,-54.4627 149.391,-52.5155"/>
<polygon fill="midnightblue" stroke="midnightblue" points="103.176,-55.5822 93.7711,-60.4613 104.166,-62.5118 103.176,-55.5822"/>
</g>
<!-- Node11 -->
<g id="node11" class="node"><title>Node11</title>
<g id="a_node11"><a xlink:href="../../d0/dee/cl__vehicles_8qc.html#a4f2ec1d5fcb112720b7380b223f58f02" target="_top" xlink:title="Vehicles_drawHUD">
<polygon fill="none" stroke="black" points="130.5,-0.5 130.5,-19.5 233.5,-19.5 233.5,-0.5 130.5,-0.5"/>
<text text-anchor="middle" x="182" y="-7.5" font-family="Helvetica,sans-Serif" font-size="10.00">Vehicles_drawHUD</text>
</a>
</g>
</g>
<!-- Node1&#45;&gt;Node11 -->
<g id="edge10" class="edge"><title>Node1&#45;&gt;Node11</title>
<path fill="none" stroke="midnightblue" d="M76.8305,-52.9755C92.4389,-45.5518 112.132,-36.4552 130,-29 137.761,-25.7618 146.29,-22.4787 154.114,-19.5734"/>
<polygon fill="midnightblue" stroke="midnightblue" points="75.1999,-49.8757 67.6929,-57.352 78.2237,-56.1889 75.1999,-49.8757"/>
</g>
<!-- Node3 -->
<g id="node3" class="node"><title>Node3</title>
<g id="a_node3"><a xlink:href="../../d9/dd9/item_2image_8qc.html#a75270fd49e5246f060b0c49c114cf2ea" target="_top" xlink:title="Image_draw">
<polygon fill="none" stroke="black" points="280,-180.5 280,-199.5 350,-199.5 350,-180.5 280,-180.5"/>
<text text-anchor="middle" x="315" y="-187.5" font-family="Helvetica,sans-Serif" font-size="10.00">Image_draw</text>
</a>
</g>
</g>
<!-- Node2&#45;&gt;Node3 -->
<g id="edge2" class="edge"><title>Node2&#45;&gt;Node3</title>
<path fill="none" stroke="midnightblue" d="M218.975,-155.907C240.498,-163.629 267.399,-173.281 287.08,-180.342"/>
<polygon fill="midnightblue" stroke="midnightblue" points="220.104,-152.594 209.51,-152.511 217.74,-159.183 220.104,-152.594"/>
</g>
<!-- Node4 -->
<g id="node4" class="node"><title>Node4</title>
<g id="a_node4"><a xlink:href="../../d3/dd8/item_2inputbox_8qc.html#a8c4345d0dd45bcb33c0802e73ef52857" target="_top" xlink:title="InputBox_draw">
<polygon fill="none" stroke="black" points="274,-142.5 274,-161.5 356,-161.5 356,-142.5 274,-142.5"/>
<text text-anchor="middle" x="315" y="-149.5" font-family="Helvetica,sans-Serif" font-size="10.00">InputBox_draw</text>
</a>
</g>
</g>
<!-- Node2&#45;&gt;Node4 -->
<g id="edge3" class="edge"><title>Node2&#45;&gt;Node4</title>
<path fill="none" stroke="midnightblue" d="M234.07,-146.509C247.234,-147.413 261.216,-148.374 273.744,-149.234"/>
<polygon fill="midnightblue" stroke="midnightblue" points="233.948,-142.992 223.731,-145.798 233.468,-149.976 233.948,-142.992"/>
</g>
<!-- Node5 -->
<g id="node5" class="node"><title>Node5</title>
<g id="a_node5"><a xlink:href="../../db/d8e/item_2listbox_8qc.html#a0f9e0dab108c54f324b3dcfa05de7d30" target="_top" xlink:title="ListBox_draw">
<polygon fill="none" stroke="black" points="277,-104.5 277,-123.5 353,-123.5 353,-104.5 277,-104.5"/>
<text text-anchor="middle" x="315" y="-111.5" font-family="Helvetica,sans-Serif" font-size="10.00">ListBox_draw</text>
</a>
</g>
</g>
<!-- Node2&#45;&gt;Node5 -->
<g id="edge4" class="edge"><title>Node2&#45;&gt;Node5</title>
<path fill="none" stroke="midnightblue" d="M233.517,-131.817C247.941,-128.624 263.39,-125.204 276.858,-122.222"/>
<polygon fill="midnightblue" stroke="midnightblue" points="232.738,-128.404 223.731,-133.983 234.251,-135.239 232.738,-128.404"/>
</g>
<!-- Node7 -->
<g id="node7" class="node"><title>Node7</title>
<g id="a_node7"><a xlink:href="../../dd/d59/modicons_8qc.html#a9245f9b7b4151715d667f06cbaf831cd" target="_top" xlink:title="HUD_Mod_Dom">
<polygon fill="none" stroke="black" points="270.5,-66.5 270.5,-85.5 359.5,-85.5 359.5,-66.5 270.5,-66.5"/>
<text text-anchor="middle" x="315" y="-73.5" font-family="Helvetica,sans-Serif" font-size="10.00">HUD_Mod_Dom</text>
</a>
</g>
</g>
<!-- Node6&#45;&gt;Node7 -->
<g id="edge6" class="edge"><title>Node6&#45;&gt;Node7</title>
<path fill="none" stroke="midnightblue" d="M232.472,-82.2235C244.854,-81.2783 258.051,-80.2709 270.14,-79.3481"/>
<polygon fill="midnightblue" stroke="midnightblue" points="232.009,-78.7486 222.304,-82.9997 232.542,-85.7283 232.009,-78.7486"/>
</g>
<!-- Node8 -->
<g id="node8" class="node"><title>Node8</title>
<g id="a_node8"><a xlink:href="../../dd/d59/modicons_8qc.html#a845124cf856029f19ca6551fe4993975" target="_top" xlink:title="HUD_ModIcons_SetFunc">
<polygon fill="none" stroke="black" points="396.5,-66.5 396.5,-85.5 525.5,-85.5 525.5,-66.5 396.5,-66.5"/>
<text text-anchor="middle" x="461" y="-73.5" font-family="Helvetica,sans-Serif" font-size="10.00">HUD_ModIcons_SetFunc</text>
</a>
</g>
</g>
<!-- Node7&#45;&gt;Node8 -->
<g id="edge7" class="edge"><title>Node7&#45;&gt;Node8</title>
<path fill="none" stroke="midnightblue" d="M369.618,-76C378.335,-76 387.437,-76 396.365,-76"/>
<polygon fill="midnightblue" stroke="midnightblue" points="369.596,-72.5001 359.596,-76 369.595,-79.5001 369.596,-72.5001"/>
</g>
<!-- Node9 -->
<g id="node9" class="node"><title>Node9</title>
<g id="a_node9"><a xlink:href="../../df/d30/client_2main_8qc.html#a6ddef9eaa62e0cae6a23e432d4875df1" target="_top" xlink:title="NET_HANDLE">
<polygon fill="none" stroke="black" points="562.5,-66.5 562.5,-85.5 645.5,-85.5 645.5,-66.5 562.5,-66.5"/>
<text text-anchor="middle" x="604" y="-73.5" font-family="Helvetica,sans-Serif" font-size="10.00">NET_HANDLE</text>
</a>
</g>
</g>
<!-- Node8&#45;&gt;Node9 -->
<g id="edge8" class="edge"><title>Node8&#45;&gt;Node9</title>
<path fill="none" stroke="midnightblue" d="M536.09,-76C545.115,-76 554.061,-76 562.335,-76"/>
<polygon fill="midnightblue" stroke="midnightblue" points="535.899,-72.5001 525.899,-76 535.899,-79.5001 535.899,-72.5001"/>
</g>
</g>
</svg>
        <g id="navigator" transform="translate(0 0)" fill="#404254">
                <rect fill="#f2f5e9" fill-opacity="0.5" stroke="#606060" stroke-width=".5" x="0" y="0" width="60" height="60"/>
                <use id="zoomplus" xlink:href="#zoomPlus" x="17" y="9" onmousedown="handleZoom(evt,'in')"/>
                <use id="zoomminus" xlink:href="#zoomMin" x="42" y="9" onmousedown="handleZoom(evt,'out')"/>
                <use id="reset" xlink:href="#resetDef" x="30" y="36" onmousedown="handleReset()"/>
                <g id="arrowUp" xlink:href="#dirArrow" transform="translate(30 24)" onmousedown="handlePan(0,-1)">
                  <use xlink:href="#rim" fill="#404040">
                        <set attributeName="fill" to="#808080" begin="arrowUp.mouseover" end="arrowUp.mouseout"/>
                  </use>
                  <path fill="none" stroke="white" stroke-width="1.5" d="M0,-3.0v7 M-2.5,-0.5L0,-3.0L2.5,-0.5"/>
                </g>
                <g id="arrowRight" xlink:href="#dirArrow" transform="rotate(90) translate(36 -43)" onmousedown="handlePan(1,0)">
                  <use xlink:href="#rim" fill="#404040">
                        <set attributeName="fill" to="#808080" begin="arrowRight.mouseover" end="arrowRight.mouseout"/>
                  </use>
                  <path fill="none" stroke="white" stroke-width="1.5" d="M0,-3.0v7 M-2.5,-0.5L0,-3.0L2.5,-0.5"/>
                </g>
                <g id="arrowDown" xlink:href="#dirArrow" transform="rotate(180) translate(-30 -48)" onmousedown="handlePan(0,1)">
                  <use xlink:href="#rim" fill="#404040">
                        <set attributeName="fill" to="#808080" begin="arrowDown.mouseover" end="arrowDown.mouseout"/>
                  </use>
                  <path fill="none" stroke="white" stroke-width="1.5" d="M0,-3.0v7 M-2.5,-0.5L0,-3.0L2.5,-0.5"/>
                </g>
                <g id="arrowLeft" xlink:href="#dirArrow" transform="rotate(270) translate(-36 17)" onmousedown="handlePan(-1,0)">
                  <use xlink:href="#rim" fill="#404040">
                        <set attributeName="fill" to="#808080" begin="arrowLeft.mouseover" end="arrowLeft.mouseout"/>
                  </use>
                  <path fill="none" stroke="white" stroke-width="1.5" d="M0,-3.0v7 M-2.5,-0.5L0,-3.0L2.5,-0.5"/>
                </g>
        </g>
        <svg viewBox="0 0 15 15" width="100%" height="30px" preserveAspectRatio="xMaxYMin meet">
         <g id="arrow_out" transform="scale(0.3 0.3)">
          <a xlink:href="menudefs_8qc_a36ec35c2aa4302297ef03b9928c473bf_icgraph_org.svg" target="_base">
           <rect id="button" ry="5" rx="5" y="6" x="6" height="38" width="38"
                fill="#f2f5e9" fill-opacity="0.5" stroke="#606060" stroke-width="1.0"/>
           <path id="arrow"
             d="M 11.500037,31.436501 C 11.940474,20.09759 22.043105,11.32322 32.158766,21.979434 L 37.068811,17.246167 C 37.068811,17.246167 37.088388,32 37.088388,32 L 22.160133,31.978069 C 22.160133,31.978069 26.997745,27.140456 26.997745,27.140456 C 18.528582,18.264221 13.291696,25.230495 11.500037,31.436501 z"
             style="fill:#404040;"/>
          </a>
         </g>
        </svg>
</svg>
