<?xml version="1.0" encoding="UTF-8" standalone="no"?>
<!DOCTYPE svg PUBLIC "-//W3C//DTD SVG 1.1//EN"
 "http://www.w3.org/Graphics/SVG/1.1/DTD/svg11.dtd">
<!-- Generated by graphviz version 2.36.0 (20140111.2315)
 -->
<!-- Title: precache_sound Pages: 1 -->
<svg width="1662pt" height="441pt"
 viewBox="0.00 0.00 1662.00 441.40" xmlns="http://www.w3.org/2000/svg" xmlns:xlink="http://www.w3.org/1999/xlink">
<g id="graph0" class="graph" transform="scale(1 1) rotate(0) translate(4 437.396)">
<title>precache_sound</title>
<!-- Node1 -->
<g id="node1" class="node"><title>Node1</title>
<polygon fill="#bfbfbf" stroke="black" points="0,-230.896 0,-249.896 88,-249.896 88,-230.896 0,-230.896"/>
<text text-anchor="middle" x="44" y="-237.896" font-family="Helvetica,sans-Serif" font-size="10.00">precache_sound</text>
</g>
<!-- Node2 -->
<g id="node2" class="node"><title>Node2</title>
<g id="a_node2"><a xlink:href="../../d6/d27/scripting_8qc.html#a15199909a8e4e7cebad40553e188d902" target="_top" xlink:title="bot_cmd_sound">
<polygon fill="none" stroke="black" points="158,-413.896 158,-432.896 244,-432.896 244,-413.896 158,-413.896"/>
<text text-anchor="middle" x="201" y="-420.896" font-family="Helvetica,sans-Serif" font-size="10.00">bot_cmd_sound</text>
</a>
</g>
</g>
<!-- Node1&#45;&gt;Node2 -->
<g id="edge1" class="edge"><title>Node1&#45;&gt;Node2</title>
<path fill="none" stroke="midnightblue" d="M48.8135,-260.152C56.5706,-294.832 77.5447,-366.565 124,-404.396 133.597,-412.211 145.974,-416.871 157.943,-419.631"/>
<polygon fill="midnightblue" stroke="midnightblue" points="52.1453,-258.985 46.6718,-249.913 45.2936,-260.418 52.1453,-258.985"/>
</g>
<!-- Node8 -->
<g id="node8" class="node"><title>Node8</title>
<g id="a_node8"><a xlink:href="../../d8/d14/scripting_8qh.html#a3814de61b054d9dfe64c0d3b4a92191f" target="_top" xlink:title="bot_queuecommand">
<polygon fill="none" stroke="black" points="149,-375.896 149,-394.896 253,-394.896 253,-375.896 149,-375.896"/>
<text text-anchor="middle" x="201" y="-382.896" font-family="Helvetica,sans-Serif" font-size="10.00">bot_queuecommand</text>
</a>
</g>
</g>
<!-- Node1&#45;&gt;Node8 -->
<g id="edge7" class="edge"><title>Node1&#45;&gt;Node8</title>
<path fill="none" stroke="midnightblue" d="M51.8805,-259.642C62.7852,-287.331 86.7031,-338.073 124,-365.396 131.374,-370.798 140.094,-374.742 148.951,-377.622"/>
<polygon fill="midnightblue" stroke="midnightblue" points="55.0269,-258.065 48.225,-249.942 48.4766,-260.534 55.0269,-258.065"/>
</g>
<!-- Node9 -->
<g id="node9" class="node"><title>Node9</title>
<g id="a_node9"><a xlink:href="../../dc/d8f/notifications_2all_8qh.html#aebba04739a8cedbc68c1561271936be9" target="_top" xlink:title="Create_Notification\l_Entity_Annce">
<polygon fill="none" stroke="black" points="150.5,-326.396 150.5,-356.396 251.5,-356.396 251.5,-326.396 150.5,-326.396"/>
<text text-anchor="start" x="158.5" y="-344.396" font-family="Helvetica,sans-Serif" font-size="10.00">Create_Notification</text>
<text text-anchor="middle" x="201" y="-333.396" font-family="Helvetica,sans-Serif" font-size="10.00">_Entity_Annce</text>
</a>
</g>
</g>
<!-- Node1&#45;&gt;Node9 -->
<g id="edge8" class="edge"><title>Node1&#45;&gt;Node9</title>
<path fill="none" stroke="midnightblue" d="M59.1983,-258.061C73.8055,-275.173 98.036,-300.764 124,-316.396 132.092,-321.268 141.247,-325.315 150.33,-328.633"/>
<polygon fill="midnightblue" stroke="midnightblue" points="61.5645,-255.432 52.4786,-249.983 56.183,-259.909 61.5645,-255.432"/>
</g>
<!-- Node10 -->
<g id="node10" class="node"><title>Node10</title>
<g id="a_node10"><a xlink:href="../../d3/d59/sv__sandbox_8qc.html#a6f79da83c2648a1ac994c05e6fe5fc6d" target="_top" xlink:title="MUTATOR_HOOKFUNCTION">
<polygon fill="none" stroke="black" points="124.5,-287.896 124.5,-306.896 277.5,-306.896 277.5,-287.896 124.5,-287.896"/>
<text text-anchor="middle" x="201" y="-294.896" font-family="Helvetica,sans-Serif" font-size="10.00">MUTATOR_HOOKFUNCTION</text>
</a>
</g>
</g>
<!-- Node1&#45;&gt;Node10 -->
<g id="edge9" class="edge"><title>Node1&#45;&gt;Node10</title>
<path fill="none" stroke="midnightblue" d="M76.0534,-254.126C90.5089,-260.321 108.009,-267.544 124,-273.396 138.164,-278.579 154.044,-283.699 167.612,-287.87"/>
<polygon fill="midnightblue" stroke="midnightblue" points="77.1556,-250.79 66.588,-250.031 74.376,-257.214 77.1556,-250.79"/>
</g>
<!-- Node11 -->
<g id="node11" class="node"><title>Node11</title>
<g id="a_node11"><a xlink:href="../../dc/d73/server_2miscfunctions_8qh.html#a98a446c0272a8ef358d2113f9694a14a" target="_top" xlink:title="precache">
<polygon fill="none" stroke="black" points="866,-192.896 866,-211.896 922,-211.896 922,-192.896 866,-192.896"/>
<text text-anchor="middle" x="894" y="-199.896" font-family="Helvetica,sans-Serif" font-size="10.00">precache</text>
</a>
</g>
</g>
<!-- Node1&#45;&gt;Node11 -->
<g id="edge10" class="edge"><title>Node1&#45;&gt;Node11</title>
<path fill="none" stroke="midnightblue" d="M98.3661,-245.186C165.782,-250.814 285.392,-259.396 388,-259.396 388,-259.396 388,-259.396 570,-259.396 681.039,-259.396 810.326,-226.324 865.636,-210.563"/>
<polygon fill="midnightblue" stroke="midnightblue" points="98.2644,-241.665 88.005,-244.31 97.6744,-248.64 98.2644,-241.665"/>
</g>
<!-- Node13 -->
<g id="node13" class="node"><title>Node13</title>
<g id="a_node13"><a xlink:href="../../df/d6e/globalsound_8qh.html#a0115b049d32f08dfe7bb44d74939ac58" target="_top" xlink:title="PrecacheGlobalSound">
<polygon fill="none" stroke="black" points="144.5,-211.896 144.5,-230.896 257.5,-230.896 257.5,-211.896 144.5,-211.896"/>
<text text-anchor="middle" x="201" y="-218.896" font-family="Helvetica,sans-Serif" font-size="10.00">PrecacheGlobalSound</text>
</a>
</g>
</g>
<!-- Node1&#45;&gt;Node13 -->
<g id="edge12" class="edge"><title>Node1&#45;&gt;Node13</title>
<path fill="none" stroke="midnightblue" d="M98.2247,-233.872C113.09,-232.049 129.28,-230.065 144.284,-228.226"/>
<polygon fill="midnightblue" stroke="midnightblue" points="97.676,-230.413 88.1761,-235.103 98.5277,-237.361 97.676,-230.413"/>
</g>
<!-- Node32 -->
<g id="node32" class="node"><title>Node32</title>
<g id="a_node32"><a xlink:href="../../d3/d59/sv__sandbox_8qc.html#ae04de84f5572160d33a028c58e54401b" target="_top" xlink:title="sandbox_Database_Load">
<polygon fill="none" stroke="black" points="137.5,-173.896 137.5,-192.896 264.5,-192.896 264.5,-173.896 137.5,-173.896"/>
<text text-anchor="middle" x="201" y="-180.896" font-family="Helvetica,sans-Serif" font-size="10.00">sandbox_Database_Load</text>
</a>
</g>
</g>
<!-- Node1&#45;&gt;Node32 -->
<g id="edge36" class="edge"><title>Node1&#45;&gt;Node32</title>
<path fill="none" stroke="midnightblue" d="M71.6497,-225.9C86.6965,-218.146 106.035,-208.886 124,-202.396 133.977,-198.792 144.93,-195.62 155.338,-192.952"/>
<polygon fill="midnightblue" stroke="midnightblue" points="69.6673,-222.988 62.4391,-230.734 72.9202,-229.186 69.6673,-222.988"/>
</g>
<!-- Node33 -->
<g id="node33" class="node"><title>Node33</title>
<g id="a_node33"><a xlink:href="../../df/d49/classSound.html#ad3474b173c3cc7d35fa96a04929d0378" target="_top" xlink:title="Sound::sound_precache">
<polygon fill="none" stroke="black" points="140,-135.896 140,-154.896 262,-154.896 262,-135.896 140,-135.896"/>
<text text-anchor="middle" x="201" y="-142.896" font-family="Helvetica,sans-Serif" font-size="10.00">Sound::sound_precache</text>
</a>
</g>
</g>
<!-- Node1&#45;&gt;Node33 -->
<g id="edge37" class="edge"><title>Node1&#45;&gt;Node33</title>
<path fill="none" stroke="midnightblue" d="M58.7312,-222.601C73.1308,-205.173 97.3424,-179.15 124,-164.396 131.021,-160.51 138.842,-157.406 146.722,-154.93"/>
<polygon fill="midnightblue" stroke="midnightblue" points="55.661,-220.835 52.1346,-230.825 61.1216,-225.214 55.661,-220.835"/>
</g>
<!-- Node34 -->
<g id="node34" class="node"><title>Node34</title>
<g id="a_node34"><a xlink:href="../../d7/da4/item__key_8qc.html#af3a13762fb065eb4a038e6a3e897007e" target="_top" xlink:title="Spawn a key with given model, key code and color. ">
<polygon fill="none" stroke="black" points="156,-97.896 156,-116.896 246,-116.896 246,-97.896 156,-97.896"/>
<text text-anchor="middle" x="201" y="-104.896" font-family="Helvetica,sans-Serif" font-size="10.00">spawn_item_key</text>
</a>
</g>
</g>
<!-- Node1&#45;&gt;Node34 -->
<g id="edge38" class="edge"><title>Node1&#45;&gt;Node34</title>
<path fill="none" stroke="midnightblue" d="M52.978,-221.304C64.6906,-195.678 89.0091,-150.586 124,-126.396 133.397,-119.899 144.81,-115.62 155.904,-112.803"/>
<polygon fill="midnightblue" stroke="midnightblue" points="49.6759,-220.119 48.8597,-230.682 56.0852,-222.934 49.6759,-220.119"/>
</g>
<!-- Node36 -->
<g id="node36" class="node"><title>Node36</title>
<g id="a_node36"><a xlink:href="../../dc/d80/gamemode__domination_8qc.html#a708ca941e2f09c7ace1b3670dc43bf5c" target="_top" xlink:title="spawnfunc">
<polygon fill="none" stroke="black" points="169,-59.896 169,-78.896 233,-78.896 233,-59.896 169,-59.896"/>
<text text-anchor="middle" x="201" y="-66.896" font-family="Helvetica,sans-Serif" font-size="10.00">spawnfunc</text>
</a>
</g>
</g>
<!-- Node1&#45;&gt;Node36 -->
<g id="edge40" class="edge"><title>Node1&#45;&gt;Node36</title>
<path fill="none" stroke="midnightblue" d="M49.6159,-220.709C58.3254,-188.046 80.3574,-122.847 124,-88.396 136.704,-78.368 154.019,-73.5574 168.913,-71.2805"/>
<polygon fill="midnightblue" stroke="midnightblue" points="46.1224,-220.25 47.0773,-230.801 52.911,-221.957 46.1224,-220.25"/>
</g>
<!-- Node3 -->
<g id="node3" class="node"><title>Node3</title>
<g id="a_node3"><a xlink:href="../../d6/d27/scripting_8qc.html#aaca537ca751853fba4204c751942df21" target="_top" xlink:title="bot_execute_commands_once">
<polygon fill="none" stroke="black" points="314.5,-413.896 314.5,-432.896 463.5,-432.896 463.5,-413.896 314.5,-413.896"/>
<text text-anchor="middle" x="389" y="-420.896" font-family="Helvetica,sans-Serif" font-size="10.00">bot_execute_commands_once</text>
</a>
</g>
</g>
<!-- Node2&#45;&gt;Node3 -->
<g id="edge2" class="edge"><title>Node2&#45;&gt;Node3</title>
<path fill="none" stroke="midnightblue" d="M254.232,-423.396C272.826,-423.396 294.13,-423.396 314.189,-423.396"/>
<polygon fill="midnightblue" stroke="midnightblue" points="254.206,-419.896 244.206,-423.396 254.206,-426.896 254.206,-419.896"/>
</g>
<!-- Node4 -->
<g id="node4" class="node"><title>Node4</title>
<g id="a_node4"><a xlink:href="../../d8/d14/scripting_8qh.html#abad1d3e4714ca1832aab73ee2b8862ea" target="_top" xlink:title="bot_execute_commands">
<polygon fill="none" stroke="black" points="507.5,-413.896 507.5,-432.896 630.5,-432.896 630.5,-413.896 507.5,-413.896"/>
<text text-anchor="middle" x="569" y="-420.896" font-family="Helvetica,sans-Serif" font-size="10.00">bot_execute_commands</text>
</a>
</g>
</g>
<!-- Node3&#45;&gt;Node4 -->
<g id="edge3" class="edge"><title>Node3&#45;&gt;Node4</title>
<path fill="none" stroke="midnightblue" d="M473.978,-423.396C485.242,-423.396 496.614,-423.396 507.369,-423.396"/>
<polygon fill="midnightblue" stroke="midnightblue" points="473.684,-419.896 463.684,-423.396 473.684,-426.896 473.684,-419.896"/>
</g>
<!-- Node5 -->
<g id="node5" class="node"><title>Node5</title>
<g id="a_node5"><a xlink:href="../../d8/d39/havocbot_8qh.html#ade0b4e09f77eaadd022af3ee44c6a3fc" target="_top" xlink:title="havocbot_ai">
<polygon fill="none" stroke="black" points="706.5,-413.896 706.5,-432.896 775.5,-432.896 775.5,-413.896 706.5,-413.896"/>
<text text-anchor="middle" x="741" y="-420.896" font-family="Helvetica,sans-Serif" font-size="10.00">havocbot_ai</text>
</a>
</g>
</g>
<!-- Node4&#45;&gt;Node5 -->
<g id="edge4" class="edge"><title>Node4&#45;&gt;Node5</title>
<path fill="none" stroke="midnightblue" d="M641.132,-423.396C663.673,-423.396 687.551,-423.396 706.193,-423.396"/>
<polygon fill="midnightblue" stroke="midnightblue" points="640.894,-419.896 630.894,-423.396 640.894,-426.896 640.894,-419.896"/>
</g>
<!-- Node6 -->
<g id="node6" class="node"><title>Node6</title>
<g id="a_node6"><a xlink:href="../../d8/d39/havocbot_8qh.html#afb882bcf6c4a44e801e4fb9eafbbf1f4" target="_top" xlink:title="havocbot_setupbot">
<polygon fill="none" stroke="black" points="844.5,-413.896 844.5,-432.896 943.5,-432.896 943.5,-413.896 844.5,-413.896"/>
<text text-anchor="middle" x="894" y="-420.896" font-family="Helvetica,sans-Serif" font-size="10.00">havocbot_setupbot</text>
</a>
</g>
</g>
<!-- Node5&#45;&gt;Node6 -->
<g id="edge5" class="edge"><title>Node5&#45;&gt;Node6</title>
<path fill="none" stroke="midnightblue" d="M785.654,-423.396C804.039,-423.396 825.508,-423.396 844.395,-423.396"/>
<polygon fill="midnightblue" stroke="midnightblue" points="785.512,-419.896 775.512,-423.396 785.512,-426.896 785.512,-419.896"/>
</g>
<!-- Node7 -->
<g id="node7" class="node"><title>Node7</title>
<g id="a_node7"><a xlink:href="../../d1/da9/bot_8qh.html#abd19370e4d61d3549dbbe44826531536" target="_top" xlink:title="bot_clientconnect">
<polygon fill="none" stroke="black" points="995.5,-413.896 995.5,-432.896 1088.5,-432.896 1088.5,-413.896 995.5,-413.896"/>
<text text-anchor="middle" x="1042" y="-420.896" font-family="Helvetica,sans-Serif" font-size="10.00">bot_clientconnect</text>
</a>
</g>
</g>
<!-- Node6&#45;&gt;Node7 -->
<g id="edge6" class="edge"><title>Node6&#45;&gt;Node7</title>
<path fill="none" stroke="midnightblue" d="M953.927,-423.396C967.63,-423.396 982.021,-423.396 995.068,-423.396"/>
<polygon fill="midnightblue" stroke="midnightblue" points="953.616,-419.896 943.616,-423.396 953.616,-426.896 953.616,-419.896"/>
</g>
<!-- Node12 -->
<g id="node12" class="node"><title>Node12</title>
<g id="a_node12"><a xlink:href="../../db/dcc/g__world_8qc.html#aac7f083651dfcb99dbbd8afc5e339233" target="_top" xlink:title="spawnfunc">
<polygon fill="none" stroke="black" points="1010,-192.896 1010,-211.896 1074,-211.896 1074,-192.896 1010,-192.896"/>
<text text-anchor="middle" x="1042" y="-199.896" font-family="Helvetica,sans-Serif" font-size="10.00">spawnfunc</text>
</a>
</g>
</g>
<!-- Node11&#45;&gt;Node12 -->
<g id="edge11" class="edge"><title>Node11&#45;&gt;Node12</title>
<path fill="none" stroke="midnightblue" d="M932.299,-202.396C956.354,-202.396 987.27,-202.396 1009.98,-202.396"/>
<polygon fill="midnightblue" stroke="midnightblue" points="932.119,-198.896 922.119,-202.396 932.119,-205.896 932.119,-198.896"/>
</g>
<!-- Node14 -->
<g id="node14" class="node"><title>Node14</title>
<g id="a_node14"><a xlink:href="../../da/d4e/sv__monsters_8qc.html#a6fbf87679a844829e2392200356d070e" target="_top" xlink:title="Monster_Sound_Precache">
<polygon fill="none" stroke="black" points="323.5,-173.896 323.5,-192.896 454.5,-192.896 454.5,-173.896 323.5,-173.896"/>
<text text-anchor="middle" x="389" y="-180.896" font-family="Helvetica,sans-Serif" font-size="10.00">Monster_Sound_Precache</text>
</a>
</g>
</g>
<!-- Node13&#45;&gt;Node14 -->
<g id="edge13" class="edge"><title>Node13&#45;&gt;Node14</title>
<path fill="none" stroke="midnightblue" d="M258.825,-209.786C285.279,-204.382 316.358,-198.032 341.402,-192.916"/>
<polygon fill="midnightblue" stroke="midnightblue" points="258.033,-206.376 248.936,-211.807 259.434,-213.234 258.033,-206.376"/>
</g>
<!-- Node25 -->
<g id="node25" class="node"><title>Node25</title>
<g id="a_node25"><a xlink:href="../../df/d6e/globalsound_8qh.html#a8e39938ef99c4d1672b2aa03d96f023f" target="_top" xlink:title="PRECACHE">
<polygon fill="none" stroke="black" points="352,-135.896 352,-154.896 426,-154.896 426,-135.896 352,-135.896"/>
<text text-anchor="middle" x="389" y="-142.896" font-family="Helvetica,sans-Serif" font-size="10.00">PRECACHE</text>
</a>
</g>
</g>
<!-- Node13&#45;&gt;Node25 -->
<g id="edge26" class="edge"><title>Node13&#45;&gt;Node25</title>
<path fill="none" stroke="midnightblue" d="M265.733,-208.408C269.997,-206.65 274.13,-204.657 278,-202.396 298.088,-190.661 293.949,-176.194 314,-164.396 325.432,-157.669 339.224,-153.299 351.788,-150.47"/>
<polygon fill="midnightblue" stroke="midnightblue" points="264.422,-205.16 256.24,-211.891 266.834,-211.732 264.422,-205.16"/>
</g>
<!-- Node26 -->
<g id="node26" class="node"><title>Node26</title>
<g id="a_node26"><a xlink:href="../../df/d6e/globalsound_8qh.html#afff52730d3053fc9102cec5246ee16d6" target="_top" xlink:title="PrecachePlayerSounds">
<polygon fill="none" stroke="black" points="329.5,-211.896 329.5,-230.896 448.5,-230.896 448.5,-211.896 329.5,-211.896"/>
<text text-anchor="middle" x="389" y="-218.896" font-family="Helvetica,sans-Serif" font-size="10.00">PrecachePlayerSounds</text>
</a>
</g>
</g>
<!-- Node13&#45;&gt;Node26 -->
<g id="edge27" class="edge"><title>Node13&#45;&gt;Node26</title>
<path fill="none" stroke="midnightblue" d="M267.824,-221.396C287.826,-221.396 309.666,-221.396 329.176,-221.396"/>
<polygon fill="midnightblue" stroke="midnightblue" points="267.554,-217.896 257.554,-221.396 267.554,-224.896 267.554,-217.896"/>
</g>
<!-- Node15 -->
<g id="node15" class="node"><title>Node15</title>
<g id="a_node15"><a xlink:href="../../da/d4e/sv__monsters_8qc.html#a81bb05b0b8ecc49aeed340310f95d698" target="_top" xlink:title="Monster_Sounds_Precache">
<polygon fill="none" stroke="black" points="500.5,-116.896 500.5,-135.896 637.5,-135.896 637.5,-116.896 500.5,-116.896"/>
<text text-anchor="middle" x="569" y="-123.896" font-family="Helvetica,sans-Serif" font-size="10.00">Monster_Sounds_Precache</text>
</a>
</g>
</g>
<!-- Node14&#45;&gt;Node15 -->
<g id="edge14" class="edge"><title>Node14&#45;&gt;Node15</title>
<path fill="none" stroke="midnightblue" d="M439.891,-171.306C447.988,-169.138 456.255,-166.799 464,-164.396 491.723,-155.795 522.925,-144.12 543.856,-135.989"/>
<polygon fill="midnightblue" stroke="midnightblue" points="438.931,-167.939 430.144,-173.859 440.705,-174.711 438.931,-167.939"/>
</g>
<!-- Node16 -->
<g id="node16" class="node"><title>Node16</title>
<g id="a_node16"><a xlink:href="../../da/d4e/sv__monsters_8qc.html#ae8583f9bde31f60a7137868d603e2b58" target="_top" xlink:title="Monster_Spawn_Setup">
<polygon fill="none" stroke="black" points="682,-78.896 682,-97.896 800,-97.896 800,-78.896 682,-78.896"/>
<text text-anchor="middle" x="741" y="-85.896" font-family="Helvetica,sans-Serif" font-size="10.00">Monster_Spawn_Setup</text>
</a>
</g>
</g>
<!-- Node15&#45;&gt;Node16 -->
<g id="edge15" class="edge"><title>Node15&#45;&gt;Node16</title>
<path fill="none" stroke="midnightblue" d="M622.898,-114.572C646.865,-109.214 674.824,-102.965 697.41,-97.916"/>
<polygon fill="midnightblue" stroke="midnightblue" points="621.894,-111.21 612.898,-116.807 623.421,-118.041 621.894,-111.21"/>
</g>
<!-- Node17 -->
<g id="node17" class="node"><title>Node17</title>
<g id="a_node17"><a xlink:href="../../d8/dc1/sv__monsters_8qh.html#a1e264a94238b71678a588bef93292d8a" target="_top" xlink:title="Monster_Spawn">
<polygon fill="none" stroke="black" points="850.5,-69.896 850.5,-88.896 937.5,-88.896 937.5,-69.896 850.5,-69.896"/>
<text text-anchor="middle" x="894" y="-76.896" font-family="Helvetica,sans-Serif" font-size="10.00">Monster_Spawn</text>
</a>
</g>
</g>
<!-- Node16&#45;&gt;Node17 -->
<g id="edge16" class="edge"><title>Node16&#45;&gt;Node17</title>
<path fill="none" stroke="midnightblue" d="M810.61,-84.3066C824.101,-83.5025 837.888,-82.6808 850.228,-81.9453"/>
<polygon fill="midnightblue" stroke="midnightblue" points="810.155,-80.8275 800.381,-84.9163 810.571,-87.8151 810.155,-80.8275"/>
</g>
<!-- Node18 -->
<g id="node18" class="node"><title>Node18</title>
<g id="a_node18"><a xlink:href="../../da/d4e/sv__monsters_8qc.html#ae9c174dd3b336a7270caba2894224d0f" target="_top" xlink:title="Monster_Appear">
<polygon fill="none" stroke="black" points="998,-107.896 998,-126.896 1086,-126.896 1086,-107.896 998,-107.896"/>
<text text-anchor="middle" x="1042" y="-114.896" font-family="Helvetica,sans-Serif" font-size="10.00">Monster_Appear</text>
</a>
</g>
</g>
<!-- Node17&#45;&gt;Node18 -->
<g id="edge17" class="edge"><title>Node17&#45;&gt;Node18</title>
<path fill="none" stroke="midnightblue" d="M941.536,-91.5081C961.87,-96.8004 985.371,-102.917 1004.42,-107.876"/>
<polygon fill="midnightblue" stroke="midnightblue" points="942.401,-88.1167 931.842,-88.985 940.638,-94.891 942.401,-88.1167"/>
</g>
<!-- Node20 -->
<g id="node20" class="node"><title>Node20</title>
<g id="a_node20"><a xlink:href="../../da/d4e/sv__monsters_8qc.html#a2b57b31035d01a69ccd6e8c6970ed5dd" target="_top" xlink:title="Monster_Respawn">
<polygon fill="none" stroke="black" points="993,-31.896 993,-50.896 1091,-50.896 1091,-31.896 993,-31.896"/>
<text text-anchor="middle" x="1042" y="-38.896" font-family="Helvetica,sans-Serif" font-size="10.00">Monster_Respawn</text>
</a>
</g>
</g>
<!-- Node17&#45;&gt;Node20 -->
<g id="edge20" class="edge"><title>Node17&#45;&gt;Node20</title>
<path fill="none" stroke="midnightblue" d="M941.536,-67.2838C961.87,-61.9915 985.371,-55.8747 1004.42,-50.916"/>
<polygon fill="midnightblue" stroke="midnightblue" points="940.638,-63.9009 931.842,-69.807 942.401,-70.6752 940.638,-63.9009"/>
</g>
<!-- Node19 -->
<g id="node19" class="node"><title>Node19</title>
<g id="a_node19"><a xlink:href="../../da/d4e/sv__monsters_8qc.html#a0c5d94fd195b12611f3bd45c0546bfca" target="_top" xlink:title="Monster_Appear_Check">
<polygon fill="none" stroke="black" points="1140,-88.896 1140,-107.896 1262,-107.896 1262,-88.896 1140,-88.896"/>
<text text-anchor="middle" x="1201" y="-95.896" font-family="Helvetica,sans-Serif" font-size="10.00">Monster_Appear_Check</text>
</a>
</g>
</g>
<!-- Node18&#45;&gt;Node19 -->
<g id="edge18" class="edge"><title>Node18&#45;&gt;Node19</title>
<path fill="none" stroke="midnightblue" d="M1096.27,-110.95C1110.26,-109.256 1125.45,-107.417 1139.79,-105.683"/>
<polygon fill="midnightblue" stroke="midnightblue" points="1095.82,-107.478 1086.32,-112.154 1096.66,-114.427 1095.82,-107.478"/>
</g>
<!-- Node19&#45;&gt;Node17 -->
<g id="edge19" class="edge"><title>Node19&#45;&gt;Node17</title>
<path fill="none" stroke="midnightblue" d="M1129.94,-94.0317C1070.64,-90.3375 987.556,-85.1618 937.73,-82.0578"/>
<polygon fill="midnightblue" stroke="midnightblue" points="1129.79,-97.5287 1139.99,-94.6573 1130.22,-90.5423 1129.79,-97.5287"/>
</g>
<!-- Node21 -->
<g id="node21" class="node"><title>Node21</title>
<g id="a_node21"><a xlink:href="../../da/d4e/sv__monsters_8qc.html#a64003301dcc44254935df433ea236780" target="_top" xlink:title="Monster_Dead_Fade">
<polygon fill="none" stroke="black" points="1147.5,-31.896 1147.5,-50.896 1254.5,-50.896 1254.5,-31.896 1147.5,-31.896"/>
<text text-anchor="middle" x="1201" y="-38.896" font-family="Helvetica,sans-Serif" font-size="10.00">Monster_Dead_Fade</text>
</a>
</g>
</g>
<!-- Node20&#45;&gt;Node21 -->
<g id="edge21" class="edge"><title>Node20&#45;&gt;Node21</title>
<path fill="none" stroke="midnightblue" d="M1101.6,-41.396C1116.63,-41.396 1132.7,-41.396 1147.41,-41.396"/>
<polygon fill="midnightblue" stroke="midnightblue" points="1101.39,-37.8961 1091.39,-41.396 1101.39,-44.8961 1101.39,-37.8961"/>
</g>
<!-- Node22 -->
<g id="node22" class="node"><title>Node22</title>
<g id="a_node22"><a xlink:href="../../da/d4e/sv__monsters_8qc.html#a304ebddf2011e967eb6e3d0da5b4a760" target="_top" xlink:title="Monster_Dead_Think">
<polygon fill="none" stroke="black" points="1298,-31.896 1298,-50.896 1408,-50.896 1408,-31.896 1298,-31.896"/>
<text text-anchor="middle" x="1353" y="-38.896" font-family="Helvetica,sans-Serif" font-size="10.00">Monster_Dead_Think</text>
</a>
</g>
</g>
<!-- Node21&#45;&gt;Node22 -->
<g id="edge22" class="edge"><title>Node21&#45;&gt;Node22</title>
<path fill="none" stroke="midnightblue" d="M1265.16,-41.396C1276.02,-41.396 1287.22,-41.396 1297.82,-41.396"/>
<polygon fill="midnightblue" stroke="midnightblue" points="1264.88,-37.8961 1254.88,-41.396 1264.88,-44.8961 1264.88,-37.8961"/>
</g>
<!-- Node23 -->
<g id="node23" class="node"><title>Node23</title>
<g id="a_node23"><a xlink:href="../../da/d4e/sv__monsters_8qc.html#a9fe966953fdc6ae52562b48fe4776295" target="_top" xlink:title="Monster_Dead">
<polygon fill="none" stroke="black" points="1444,-31.896 1444,-50.896 1524,-50.896 1524,-31.896 1444,-31.896"/>
<text text-anchor="middle" x="1484" y="-38.896" font-family="Helvetica,sans-Serif" font-size="10.00">Monster_Dead</text>
</a>
</g>
</g>
<!-- Node22&#45;&gt;Node23 -->
<g id="edge23" class="edge"><title>Node22&#45;&gt;Node23</title>
<path fill="none" stroke="midnightblue" d="M1418.4,-41.396C1427.01,-41.396 1435.62,-41.396 1443.62,-41.396"/>
<polygon fill="midnightblue" stroke="midnightblue" points="1418.33,-37.8961 1408.33,-41.396 1418.33,-44.8961 1418.33,-37.8961"/>
</g>
<!-- Node24 -->
<g id="node24" class="node"><title>Node24</title>
<g id="a_node24"><a xlink:href="../../da/d4e/sv__monsters_8qc.html#a100d851a4f02e4bd6177462aad0a9d1f" target="_top" xlink:title="Monster_Damage">
<polygon fill="none" stroke="black" points="1560,-12.896 1560,-31.896 1654,-31.896 1654,-12.896 1560,-12.896"/>
<text text-anchor="middle" x="1607" y="-19.896" font-family="Helvetica,sans-Serif" font-size="10.00">Monster_Damage</text>
</a>
</g>
</g>
<!-- Node23&#45;&gt;Node24 -->
<g id="edge24" class="edge"><title>Node23&#45;&gt;Node24</title>
<path fill="none" stroke="midnightblue" d="M1534.34,-33.6487C1542.74,-32.3297 1551.43,-30.9641 1559.75,-29.6582"/>
<polygon fill="midnightblue" stroke="midnightblue" points="1533.62,-30.2182 1524.29,-35.2272 1534.71,-37.1335 1533.62,-30.2182"/>
</g>
<!-- Node24&#45;&gt;Node17 -->
<g id="edge25" class="edge"><title>Node24&#45;&gt;Node17</title>
<path fill="none" stroke="midnightblue" d="M1549.47,-15.6897C1498.46,-10.2208 1421.32,-3.39595 1354,-3.39595 1200,-3.39595 1200,-3.39595 1200,-3.39595 1101.86,-3.39595 1072.57,10.1879 980,-22.396 950,-32.9553 920.396,-56.6157 905.301,-69.8937"/>
<polygon fill="midnightblue" stroke="midnightblue" points="1549.31,-19.1928 1559.63,-16.7981 1550.07,-12.2341 1549.31,-19.1928"/>
</g>
<!-- Node26&#45;&gt;Node11 -->
<g id="edge28" class="edge"><title>Node26&#45;&gt;Node11</title>
<path fill="none" stroke="midnightblue" d="M458.906,-218.793C571.426,-214.543 789.712,-206.298 865.942,-203.418"/>
<polygon fill="midnightblue" stroke="midnightblue" points="458.546,-215.304 448.685,-219.179 458.81,-222.299 458.546,-215.304"/>
</g>
<!-- Node27 -->
<g id="node27" class="node"><title>Node27</title>
<g id="a_node27"><a xlink:href="../../dc/dc6/server_2miscfunctions_8qc.html#aca8c7fffaf94bfb8d4b962bc6b1dd9fe" target="_top" xlink:title="precache_playermodel">
<polygon fill="none" stroke="black" points="512,-173.896 512,-192.896 626,-192.896 626,-173.896 512,-173.896"/>
<text text-anchor="middle" x="569" y="-180.896" font-family="Helvetica,sans-Serif" font-size="10.00">precache_playermodel</text>
</a>
</g>
</g>
<!-- Node26&#45;&gt;Node27 -->
<g id="edge29" class="edge"><title>Node26&#45;&gt;Node27</title>
<path fill="none" stroke="midnightblue" d="M444.716,-209.715C469.959,-204.326 499.545,-198.01 523.406,-192.916"/>
<polygon fill="midnightblue" stroke="midnightblue" points="443.966,-206.296 434.917,-211.807 445.427,-213.142 443.966,-206.296"/>
</g>
<!-- Node28 -->
<g id="node28" class="node"><title>Node28</title>
<g id="a_node28"><a xlink:href="../../dc/d73/server_2miscfunctions_8qh.html#a5ea7bf591f44cf22ed52a48b1aa4f012" target="_top" xlink:title="precache_all_playermodels">
<polygon fill="none" stroke="black" points="674,-135.896 674,-154.896 808,-154.896 808,-135.896 674,-135.896"/>
<text text-anchor="middle" x="741" y="-142.896" font-family="Helvetica,sans-Serif" font-size="10.00">precache_all_playermodels</text>
</a>
</g>
</g>
<!-- Node27&#45;&gt;Node28 -->
<g id="edge30" class="edge"><title>Node27&#45;&gt;Node28</title>
<path fill="none" stroke="midnightblue" d="M622.898,-171.572C646.865,-166.214 674.824,-159.965 697.41,-154.916"/>
<polygon fill="midnightblue" stroke="midnightblue" points="621.894,-168.21 612.898,-173.807 623.421,-175.041 621.894,-168.21"/>
</g>
<!-- Node31 -->
<g id="node31" class="node"><title>Node31</title>
<g id="a_node31"><a xlink:href="../../dc/dc6/server_2miscfunctions_8qc.html#ac5ac170cb0adc7b07823ff7faf9fb6a5" target="_top" xlink:title="precache_playermodels">
<polygon fill="none" stroke="black" points="681.5,-173.896 681.5,-192.896 800.5,-192.896 800.5,-173.896 681.5,-173.896"/>
<text text-anchor="middle" x="741" y="-180.896" font-family="Helvetica,sans-Serif" font-size="10.00">precache_playermodels</text>
</a>
</g>
</g>
<!-- Node27&#45;&gt;Node31 -->
<g id="edge34" class="edge"><title>Node27&#45;&gt;Node31</title>
<path fill="none" stroke="midnightblue" d="M636.267,-183.396C651.121,-183.396 666.778,-183.396 681.299,-183.396"/>
<polygon fill="midnightblue" stroke="midnightblue" points="636.136,-179.896 626.135,-183.396 636.135,-186.896 636.136,-179.896"/>
</g>
<!-- Node28&#45;&gt;Node11 -->
<g id="edge33" class="edge"><title>Node28&#45;&gt;Node11</title>
<path fill="none" stroke="midnightblue" d="M788.268,-157.822C794.938,-159.871 801.679,-162.086 808,-164.396 831.077,-172.829 856.716,-184.644 873.739,-192.852"/>
<polygon fill="midnightblue" stroke="midnightblue" points="789.188,-154.444 778.605,-154.946 787.191,-161.153 789.188,-154.444"/>
</g>
<!-- Node29 -->
<g id="node29" class="node"><title>Node29</title>
<g id="a_node29"><a xlink:href="../../d8/d0c/sv__overkill_8qc.html#a03452068b9a7bb16d129885c1b7a030e" target="_top" xlink:title="ok_Initialize">
<polygon fill="none" stroke="black" points="860,-140.896 860,-159.896 928,-159.896 928,-140.896 860,-140.896"/>
<text text-anchor="middle" x="894" y="-147.896" font-family="Helvetica,sans-Serif" font-size="10.00">ok_Initialize</text>
</a>
</g>
</g>
<!-- Node28&#45;&gt;Node29 -->
<g id="edge31" class="edge"><title>Node28&#45;&gt;Node29</title>
<path fill="none" stroke="midnightblue" d="M818.352,-147.924C833,-148.409 847.606,-148.893 859.963,-149.302"/>
<polygon fill="midnightblue" stroke="midnightblue" points="818.341,-144.422 808.231,-147.589 818.109,-151.418 818.341,-144.422"/>
</g>
<!-- Node30 -->
<g id="node30" class="node"><title>Node30</title>
<g id="a_node30"><a xlink:href="../../d8/d0c/sv__overkill_8qc.html#a081aa40d5576f73ef1ed05bed19ce05d" target="_top" xlink:title="REGISTER_MUTATOR">
<polygon fill="none" stroke="black" points="980.5,-145.896 980.5,-164.896 1103.5,-164.896 1103.5,-145.896 980.5,-145.896"/>
<text text-anchor="middle" x="1042" y="-152.896" font-family="Helvetica,sans-Serif" font-size="10.00">REGISTER_MUTATOR</text>
</a>
</g>
</g>
<!-- Node29&#45;&gt;Node30 -->
<g id="edge32" class="edge"><title>Node29&#45;&gt;Node30</title>
<path fill="none" stroke="midnightblue" d="M938.344,-151.88C951.551,-152.333 966.318,-152.838 980.444,-153.322"/>
<polygon fill="midnightblue" stroke="midnightblue" points="938.244,-148.375 928.13,-151.531 938.004,-155.371 938.244,-148.375"/>
</g>
<!-- Node31&#45;&gt;Node11 -->
<g id="edge35" class="edge"><title>Node31&#45;&gt;Node11</title>
<path fill="none" stroke="midnightblue" d="M810.878,-192.063C830.28,-194.504 850.269,-197.019 865.669,-198.957"/>
<polygon fill="midnightblue" stroke="midnightblue" points="811.172,-188.572 800.813,-190.796 810.298,-195.517 811.172,-188.572"/>
</g>
<!-- Node35 -->
<g id="node35" class="node"><title>Node35</title>
<g id="a_node35"><a xlink:href="../../d7/da4/item__key_8qc.html#aa62c6db3ad5ca8078fc7cee2feef5388" target="_top" xlink:title="spawnfunc">
<polygon fill="none" stroke="black" points="357,-97.896 357,-116.896 421,-116.896 421,-97.896 357,-97.896"/>
<text text-anchor="middle" x="389" y="-104.896" font-family="Helvetica,sans-Serif" font-size="10.00">spawnfunc</text>
</a>
</g>
</g>
<!-- Node34&#45;&gt;Node35 -->
<g id="edge39" class="edge"><title>Node34&#45;&gt;Node35</title>
<path fill="none" stroke="midnightblue" d="M256.38,-107.396C289.022,-107.396 329.383,-107.396 356.742,-107.396"/>
<polygon fill="midnightblue" stroke="midnightblue" points="256.079,-103.896 246.079,-107.396 256.079,-110.896 256.079,-103.896"/>
</g>
</g>
</svg>
