<?xml version="1.0" encoding="UTF-8" standalone="no"?>
<!DOCTYPE svg PUBLIC "-//W3C//DTD SVG 1.1//EN"
 "http://www.w3.org/Graphics/SVG/1.1/DTD/svg11.dtd">
<!-- Generated by graphviz version 2.36.0 (20140111.2315)
 -->
<!-- Title: print Pages: 1 -->
<svg width="600pt" height="142pt"
 viewBox="0.00 0.00 600.00 142.00" xmlns="http://www.w3.org/2000/svg" xmlns:xlink="http://www.w3.org/1999/xlink">
<g id="graph0" class="graph" transform="scale(1 1) rotate(0) translate(4 138)">
<title>print</title>
<!-- Node1 -->
<g id="node1" class="node"><title>Node1</title>
<polygon fill="#bfbfbf" stroke="black" points="0.5,-57.5 0.5,-76.5 35.5,-76.5 35.5,-57.5 0.5,-57.5"/>
<text text-anchor="middle" x="18" y="-64.5" font-family="Helvetica,sans-Serif" font-size="10.00">print</text>
</g>
<!-- Node2 -->
<g id="node2" class="node"><title>Node2</title>
<g id="a_node2"><a xlink:href="../../df/d30/client_2main_8qc.html#a9a0b42398a104ebdd5b99b02df23747d" target="_top" xlink:title="CSQC_Parse_Print">
<polygon fill="none" stroke="black" points="72,-76.5 72,-95.5 174,-95.5 174,-76.5 72,-76.5"/>
<text text-anchor="middle" x="123" y="-83.5" font-family="Helvetica,sans-Serif" font-size="10.00">CSQC_Parse_Print</text>
</a>
</g>
</g>
<!-- Node1&#45;&gt;Node2 -->
<g id="edge1" class="edge"><title>Node1&#45;&gt;Node2</title>
<path fill="none" stroke="midnightblue" d="M45.4059,-71.871C53.4501,-73.3549 62.5753,-75.0382 71.6527,-76.7126"/>
<polygon fill="midnightblue" stroke="midnightblue" points="46.0178,-68.4249 35.5487,-70.0527 44.7479,-75.3087 46.0178,-68.4249"/>
</g>
<!-- Node3 -->
<g id="node3" class="node"><title>Node3</title>
<g id="a_node3"><a xlink:href="../../dc/de5/common_2notifications_2all_8qh.html#a4533800e729b98bacf130e45337d6e50" target="_top" xlink:title="Local_Notification">
<polygon fill="none" stroke="black" points="75.5,-38.5 75.5,-57.5 170.5,-57.5 170.5,-38.5 75.5,-38.5"/>
<text text-anchor="middle" x="123" y="-45.5" font-family="Helvetica,sans-Serif" font-size="10.00">Local_Notification</text>
</a>
</g>
</g>
<!-- Node1&#45;&gt;Node3 -->
<g id="edge2" class="edge"><title>Node1&#45;&gt;Node3</title>
<path fill="none" stroke="midnightblue" d="M45.4901,-62.1135C54.5785,-60.437 65.0393,-58.5073 75.249,-56.624"/>
<polygon fill="midnightblue" stroke="midnightblue" points="44.7479,-58.6913 35.5487,-63.9473 46.0178,-65.5751 44.7479,-58.6913"/>
</g>
<!-- Node4 -->
<g id="node4" class="node"><title>Node4</title>
<g id="a_node4"><a xlink:href="../../da/df4/announcer_8qc.html#a0e97f430de68d1ece828f58a7570a460" target="_top" xlink:title="Announcer_Countdown">
<polygon fill="none" stroke="black" points="217,-114.5 217,-133.5 335,-133.5 335,-114.5 217,-114.5"/>
<text text-anchor="middle" x="276" y="-121.5" font-family="Helvetica,sans-Serif" font-size="10.00">Announcer_Countdown</text>
</a>
</g>
</g>
<!-- Node3&#45;&gt;Node4 -->
<g id="edge3" class="edge"><title>Node3&#45;&gt;Node4</title>
<path fill="none" stroke="midnightblue" d="M164.007,-61.609C167.47,-63.2603 170.851,-65.0581 174,-67 192.475,-78.3921 191.471,-88.6953 210,-100 219.653,-105.889 230.981,-110.69 241.452,-114.406"/>
<polygon fill="midnightblue" stroke="midnightblue" points="165.316,-58.3613 154.75,-57.5812 162.523,-64.7801 165.316,-58.3613"/>
</g>
<!-- Node5 -->
<g id="node5" class="node"><title>Node5</title>
<g id="a_node5"><a xlink:href="../../da/df4/announcer_8qc.html#a6429db50567f691e555d27cb8a1bdb97" target="_top" xlink:title="Announcer_Gamestart">
<polygon fill="none" stroke="black" points="378,-95.5 378,-114.5 492,-114.5 492,-95.5 378,-95.5"/>
<text text-anchor="middle" x="435" y="-102.5" font-family="Helvetica,sans-Serif" font-size="10.00">Announcer_Gamestart</text>
</a>
</g>
</g>
<!-- Node3&#45;&gt;Node5 -->
<g id="edge6" class="edge"><title>Node3&#45;&gt;Node5</title>
<path fill="none" stroke="midnightblue" d="M175.29,-59.7665C186.695,-62.2614 198.741,-64.8026 210,-67 266.91,-78.1067 332.321,-88.9877 377.706,-96.24"/>
<polygon fill="midnightblue" stroke="midnightblue" points="175.989,-56.3365 165.469,-57.5958 174.478,-63.1716 175.989,-56.3365"/>
</g>
<!-- Node7 -->
<g id="node7" class="node"><title>Node7</title>
<g id="a_node7"><a xlink:href="../../dc/de5/common_2notifications_2all_8qh.html#ab191ea2d6864d62cf12f82140b351f66" target="_top" xlink:title="glue for networking, forwards to Local_Notification ">
<polygon fill="none" stroke="black" points="210.5,-38.5 210.5,-57.5 341.5,-57.5 341.5,-38.5 210.5,-38.5"/>
<text text-anchor="middle" x="276" y="-45.5" font-family="Helvetica,sans-Serif" font-size="10.00">Local_Notification_WOVA</text>
</a>
</g>
</g>
<!-- Node3&#45;&gt;Node7 -->
<g id="edge7" class="edge"><title>Node3&#45;&gt;Node7</title>
<path fill="none" stroke="midnightblue" d="M180.785,-41.4378C190.415,-41.2408 200.479,-41.1988 210.294,-41.3117"/>
<polygon fill="midnightblue" stroke="midnightblue" points="180.44,-37.9457 170.537,-41.7124 180.627,-44.9432 180.44,-37.9457"/>
</g>
<!-- Node8 -->
<g id="node8" class="node"><title>Node8</title>
<g id="a_node8"><a xlink:href="../../df/d30/client_2main_8qc.html#a6df675d5ce651f8a28f9d6a958c42b37" target="_top" xlink:title="NET_HANDLE">
<polygon fill="none" stroke="black" points="234.5,-0.5 234.5,-19.5 317.5,-19.5 317.5,-0.5 234.5,-0.5"/>
<text text-anchor="middle" x="276" y="-7.5" font-family="Helvetica,sans-Serif" font-size="10.00">NET_HANDLE</text>
</a>
</g>
</g>
<!-- Node3&#45;&gt;Node8 -->
<g id="edge9" class="edge"><title>Node3&#45;&gt;Node8</title>
<path fill="none" stroke="midnightblue" d="M171.843,-35.96C192.939,-30.6512 217.377,-24.5012 237.17,-19.5201"/>
<polygon fill="midnightblue" stroke="midnightblue" points="170.947,-32.5763 162.104,-38.411 172.656,-39.3646 170.947,-32.5763"/>
</g>
<!-- Node4&#45;&gt;Node5 -->
<g id="edge4" class="edge"><title>Node4&#45;&gt;Node5</title>
<path fill="none" stroke="midnightblue" d="M344.97,-115.774C355.923,-114.449 367.154,-113.09 377.791,-111.802"/>
<polygon fill="midnightblue" stroke="midnightblue" points="344.522,-112.303 335.015,-116.979 345.363,-119.252 344.522,-112.303"/>
</g>
<!-- Node6 -->
<g id="node6" class="node"><title>Node6</title>
<g id="a_node6"><a xlink:href="../../df/d71/announcer_8qh.html#abb5b4637e37634b1b1ccc43540b8b369" target="_top" xlink:title="Announcer">
<polygon fill="none" stroke="black" points="528.5,-95.5 528.5,-114.5 591.5,-114.5 591.5,-95.5 528.5,-95.5"/>
<text text-anchor="middle" x="560" y="-102.5" font-family="Helvetica,sans-Serif" font-size="10.00">Announcer</text>
</a>
</g>
</g>
<!-- Node5&#45;&gt;Node6 -->
<g id="edge5" class="edge"><title>Node5&#45;&gt;Node6</title>
<path fill="none" stroke="midnightblue" d="M502.312,-105C511.342,-105 520.232,-105 528.197,-105"/>
<polygon fill="midnightblue" stroke="midnightblue" points="502.101,-101.5 492.101,-105 502.101,-108.5 502.101,-101.5"/>
</g>
<!-- Node7&#45;&gt;Node3 -->
<g id="edge8" class="edge"><title>Node7&#45;&gt;Node3</title>
<path fill="none" stroke="midnightblue" d="M200.21,-54.7497C190.094,-54.7573 179.961,-54.6033 170.537,-54.2876"/>
<polygon fill="midnightblue" stroke="midnightblue" points="200.316,-58.2493 210.294,-54.6883 200.273,-51.2494 200.316,-58.2493"/>
</g>
</g>
</svg>
