<?xml version="1.0" encoding="UTF-8" standalone="no"?>
<!DOCTYPE svg PUBLIC "-//W3C//DTD SVG 1.1//EN"
 "http://www.w3.org/Graphics/SVG/1.1/DTD/svg11.dtd">
<!-- Generated by graphviz version 2.38.0 (20140413.2041)
 -->
<!-- Title: CSQCProjectile_SendEntity Pages: 1 -->
<svg width="257pt" height="66pt"
 viewBox="0.00 0.00 257.00 66.00" xmlns="http://www.w3.org/2000/svg" xmlns:xlink="http://www.w3.org/1999/xlink">
<g id="graph0" class="graph" transform="scale(1 1) rotate(0) translate(4 62)">
<title>CSQCProjectile_SendEntity</title>
<!-- Node1 -->
<g id="node1" class="node"><title>Node1</title>
<polygon fill="#bfbfbf" stroke="black" points="0,-19.5 0,-38.5 145,-38.5 145,-19.5 0,-19.5"/>
<text text-anchor="middle" x="72.5" y="-26.5" font-family="Helvetica,sans-Serif" font-size="10.00">CSQCProjectile_SendEntity</text>
</g>
<!-- Node2 -->
<g id="node2" class="node"><title>Node2</title>
<g id="a_node2"><a xlink:href="../../d8/de2/menudefs_8qc.html#abd23315350cd01304b6bd77c4c5c07e6" target="_top" xlink:title="WriteByte">
<polygon fill="none" stroke="black" points="184,-38.5 184,-57.5 246,-57.5 246,-38.5 184,-38.5"/>
<text text-anchor="middle" x="215" y="-45.5" font-family="Helvetica,sans-Serif" font-size="10.00">WriteByte</text>
</a>
</g>
</g>
<!-- Node1&#45;&gt;Node2 -->
<g id="edge1" class="edge"><title>Node1&#45;&gt;Node2</title>
<path fill="none" stroke="midnightblue" d="M144.162,-38.5557C154.29,-39.9253 164.407,-41.2935 173.671,-42.5462"/>
<polygon fill="midnightblue" stroke="midnightblue" points="173.343,-46.0337 183.722,-43.9054 174.281,-39.0968 173.343,-46.0337"/>
</g>
<!-- Node3 -->
<g id="node3" class="node"><title>Node3</title>
<g id="a_node3"><a xlink:href="../../d8/de2/menudefs_8qc.html#aa8c03f058fec0c574e1bba13327f5a5b" target="_top" xlink:title="WriteCoord">
<polygon fill="none" stroke="black" points="181,-0.5 181,-19.5 249,-19.5 249,-0.5 181,-0.5"/>
<text text-anchor="middle" x="215" y="-7.5" font-family="Helvetica,sans-Serif" font-size="10.00">WriteCoord</text>
</a>
</g>
</g>
<!-- Node1&#45;&gt;Node3 -->
<g id="edge2" class="edge"><title>Node1&#45;&gt;Node3</title>
<path fill="none" stroke="midnightblue" d="M144.162,-19.4443C153.295,-18.2092 162.419,-16.9754 170.916,-15.8263"/>
<polygon fill="midnightblue" stroke="midnightblue" points="171.488,-19.2809 180.929,-14.4723 170.55,-12.3441 171.488,-19.2809"/>
</g>
</g>
</svg>
