<?xml version="1.0" encoding="UTF-8" standalone="no"?>
<!DOCTYPE svg PUBLIC "-//W3C//DTD SVG 1.1//EN"
 "http://www.w3.org/Graphics/SVG/1.1/DTD/svg11.dtd">
<!-- Generated by graphviz version 2.36.0 (20140111.2315)
 -->
<!-- Title: CampaignPreInit Pages: 1 -->
<!--zoomable 588 -->
<svg id="main" version="1.1" xmlns="http://www.w3.org/2000/svg" xmlns:xlink="http://www.w3.org/1999/xlink" xml:space="preserve" onload="init(evt)">
<style type="text/css"><![CDATA[
.edge:hover path { stroke: red; }
.edge:hover polygon { stroke: red; fill: red; }
]]></style>
<script type="text/javascript"><![CDATA[
var edges = document.getElementsByTagName('g');
if (edges && edges.length) {
  for (var i=0;i<edges.length;i++) {
    if (edges[i].id.substr(0,4)=='edge') {
      edges[i].setAttribute('class','edge');
    }
  }
}
]]></script>
        <defs>
                <circle id="rim" cx="0" cy="0" r="7"/>
                <circle id="rim2" cx="0" cy="0" r="3.5"/>
                <g id="zoomPlus">
                        <use xlink:href="#rim" fill="#404040">
                                <set attributeName="fill" to="#808080" begin="zoomplus.mouseover" end="zoomplus.mouseout"/>
                        </use>
                        <path d="M-4,0h8M0,-4v8" fill="none" stroke="white" stroke-width="1.5" pointer-events="none"/>
                </g>
                <g id="zoomMin">
                        <use xlink:href="#rim" fill="#404040">
                                <set attributeName="fill" to="#808080" begin="zoomminus.mouseover" end="zoomminus.mouseout"/>
                        </use>
                        <path d="M-4,0h8" fill="none" stroke="white" stroke-width="1.5" pointer-events="none"/>
                </g>
                <g id="dirArrow">
                        <path fill="none" stroke="white" stroke-width="1.5" d="M0,-3.0v7 M-2.5,-0.5L0,-3.0L2.5,-0.5"/>
                </g>
               <g id="resetDef">
                       <use xlink:href="#rim2" fill="#404040">
                               <set attributeName="fill" to="#808080" begin="reset.mouseover" end="reset.mouseout"/>
                       </use>
               </g>
        </defs>

<script type="text/javascript">
var viewWidth = 780;
var viewHeight = 588;
var sectionId = 'dynsection-11';
</script>
<script xlink:href="../../svgpan.js"/>
<svg id="graph" class="graph">
<g id="viewport">
<title>CampaignPreInit</title>
<!-- Node1 -->
<g id="node1" class="node"><title>Node1</title>
<polygon fill="#bfbfbf" stroke="black" points="0.5,-247.5 0.5,-266.5 89.5,-266.5 89.5,-247.5 0.5,-247.5"/>
<text text-anchor="middle" x="45" y="-254.5" font-family="Helvetica,sans-Serif" font-size="10.00">CampaignPreInit</text>
</g>
<!-- Node2 -->
<g id="node2" class="node"><title>Node2</title>
<g id="a_node2"><a xlink:href="../../de/d75/server_2campaign_8qc.html#abfea39da7117c15c75361680cf612c4b" target="_top" xlink:title="Campaign_Invalid">
<polygon fill="none" stroke="black" points="146.5,-418.5 146.5,-437.5 241.5,-437.5 241.5,-418.5 146.5,-418.5"/>
<text text-anchor="middle" x="194" y="-425.5" font-family="Helvetica,sans-Serif" font-size="10.00">Campaign_Invalid</text>
</a>
</g>
</g>
<!-- Node1&#45;&gt;Node2 -->
<g id="edge1" class="edge"><title>Node1&#45;&gt;Node2</title>
<path fill="none" stroke="midnightblue" d="M48.6498,-266.795C56.2063,-292.912 80.3176,-364.879 126,-404 130.804,-408.114 136.365,-411.542 142.189,-414.394"/>
<polygon fill="midnightblue" stroke="midnightblue" points="140.919,-417.658 151.486,-418.418 143.699,-411.234 140.919,-417.658"/>
</g>
<!-- Node3 -->
<g id="node3" class="node"><title>Node3</title>
<g id="a_node3"><a xlink:href="../../de/d75/server_2campaign_8qc.html#ae3841e7cf893366d3376a80f43c1f2a3" target="_top" xlink:title="CampaignBailout">
<polygon fill="none" stroke="black" points="325.5,-342.5 325.5,-361.5 416.5,-361.5 416.5,-342.5 325.5,-342.5"/>
<text text-anchor="middle" x="371" y="-349.5" font-family="Helvetica,sans-Serif" font-size="10.00">CampaignBailout</text>
</a>
</g>
</g>
<!-- Node1&#45;&gt;Node3 -->
<g id="edge16" class="edge"><title>Node1&#45;&gt;Node3</title>
<path fill="none" stroke="midnightblue" d="M53.3674,-266.663C66.16,-282.62 94.1795,-314.096 126,-328 186.757,-354.548 263.914,-357.674 315.019,-356.053"/>
<polygon fill="midnightblue" stroke="midnightblue" points="315.34,-359.543 325.196,-355.656 315.067,-352.548 315.34,-359.543"/>
</g>
<!-- Node4 -->
<g id="node4" class="node"><title>Node4</title>
<g id="a_node4"><a xlink:href="../../d8/de2/menudefs_8qc.html#a47b9823939aa0a157d1bede7847cb488" target="_top" xlink:title="cvar">
<polygon fill="none" stroke="black" points="501.5,-456.5 501.5,-475.5 536.5,-475.5 536.5,-456.5 501.5,-456.5"/>
<text text-anchor="middle" x="519" y="-463.5" font-family="Helvetica,sans-Serif" font-size="10.00">cvar</text>
</a>
</g>
</g>
<!-- Node1&#45;&gt;Node4 -->
<g id="edge18" class="edge"><title>Node1&#45;&gt;Node4</title>
<path fill="none" stroke="midnightblue" d="M47.0026,-266.704C50.7917,-298.138 67.1658,-397.96 126,-447 234.028,-537.045 422.683,-494.241 491.726,-474.276"/>
<polygon fill="midnightblue" stroke="midnightblue" points="492.799,-477.608 501.386,-471.403 490.803,-470.899 492.799,-477.608"/>
</g>
<!-- Node7 -->
<g id="node7" class="node"><title>Node7</title>
<g id="a_node7"><a xlink:href="../../d8/de2/menudefs_8qc.html#ad76dc2b2895cd23f21e008f12a686158" target="_top" xlink:title="strcat">
<polygon fill="none" stroke="black" points="730.5,-380.5 730.5,-399.5 771.5,-399.5 771.5,-380.5 730.5,-380.5"/>
<text text-anchor="middle" x="751" y="-387.5" font-family="Helvetica,sans-Serif" font-size="10.00">strcat</text>
</a>
</g>
</g>
<!-- Node1&#45;&gt;Node7 -->
<g id="edge36" class="edge"><title>Node1&#45;&gt;Node7</title>
<path fill="none" stroke="midnightblue" d="M46.5769,-266.755C49.1435,-301.461 62.4107,-420.367 126,-486 206.865,-569.465 253.786,-580 370,-580 370,-580 370,-580 520,-580 627.085,-580 711.223,-456.066 739.63,-408.387"/>
<polygon fill="midnightblue" stroke="midnightblue" points="742.69,-410.086 744.697,-399.683 736.641,-406.564 742.69,-410.086"/>
</g>
<!-- Node9 -->
<g id="node9" class="node"><title>Node9</title>
<g id="a_node9"><a xlink:href="../../d8/de2/menudefs_8qc.html#a6f8c7ef6ee4a4d851aaa5fd1789eab9a" target="_top" xlink:title="cvar_string">
<polygon fill="none" stroke="black" points="486.5,-304.5 486.5,-323.5 551.5,-323.5 551.5,-304.5 486.5,-304.5"/>
<text text-anchor="middle" x="519" y="-311.5" font-family="Helvetica,sans-Serif" font-size="10.00">cvar_string</text>
</a>
</g>
</g>
<!-- Node1&#45;&gt;Node9 -->
<g id="edge31" class="edge"><title>Node1&#45;&gt;Node9</title>
<path fill="none" stroke="midnightblue" d="M61.5397,-266.669C77.1699,-275.83 102.288,-289.048 126,-295 250.4,-326.227 403.805,-321.804 476.297,-317.274"/>
<polygon fill="midnightblue" stroke="midnightblue" points="476.644,-320.759 486.392,-316.61 476.184,-313.774 476.644,-320.759"/>
</g>
<!-- Node13 -->
<g id="node13" class="node"><title>Node13</title>
<g id="a_node13"><a xlink:href="../../d3/d46/mapinfo_8qc.html#aad3b4f68fa5e399723f816c437136dad" target="_top" xlink:title="MapInfo_Type_FromString">
<polygon fill="none" stroke="black" points="305,-380.5 305,-399.5 437,-399.5 437,-380.5 305,-380.5"/>
<text text-anchor="middle" x="371" y="-387.5" font-family="Helvetica,sans-Serif" font-size="10.00">MapInfo_Type_FromString</text>
</a>
</g>
</g>
<!-- Node1&#45;&gt;Node13 -->
<g id="edge35" class="edge"><title>Node1&#45;&gt;Node13</title>
<path fill="none" stroke="midnightblue" d="M50.6284,-266.517C60.9879,-286.682 88.1393,-333.607 126,-355 177.239,-383.953 243.843,-391.899 294.516,-393.053"/>
<polygon fill="midnightblue" stroke="midnightblue" points="294.703,-396.556 304.752,-393.199 294.803,-389.557 294.703,-396.556"/>
</g>
<!-- Node14 -->
<g id="node14" class="node"><title>Node14</title>
<g id="a_node14"><a xlink:href="../../d7/d13/campaign__common_8qh.html#ae2f904eeb0bb4119ac6be954bf3223d3" target="_top" xlink:title="CampaignFile_Load">
<polygon fill="none" stroke="black" points="142.5,-76.5 142.5,-95.5 245.5,-95.5 245.5,-76.5 142.5,-76.5"/>
<text text-anchor="middle" x="194" y="-83.5" font-family="Helvetica,sans-Serif" font-size="10.00">CampaignFile_Load</text>
</a>
</g>
</g>
<!-- Node1&#45;&gt;Node14 -->
<g id="edge17" class="edge"><title>Node1&#45;&gt;Node14</title>
<path fill="none" stroke="midnightblue" d="M48.6498,-247.205C56.2063,-221.088 80.3176,-149.121 126,-110 130.804,-105.886 136.365,-102.458 142.189,-99.6055"/>
<polygon fill="midnightblue" stroke="midnightblue" points="143.699,-102.766 151.486,-95.5816 140.919,-96.3417 143.699,-102.766"/>
</g>
<!-- Node15 -->
<g id="node15" class="node"><title>Node15</title>
<g id="a_node15"><a xlink:href="../../de/d75/server_2campaign_8qc.html#a0e12d1cd99d88cb61980ae77f1010fa6" target="_top" xlink:title="cvar_campaignwrapper">
<polygon fill="none" stroke="black" points="135.5,-266.5 135.5,-285.5 252.5,-285.5 252.5,-266.5 135.5,-266.5"/>
<text text-anchor="middle" x="194" y="-273.5" font-family="Helvetica,sans-Serif" font-size="10.00">cvar_campaignwrapper</text>
</a>
</g>
</g>
<!-- Node1&#45;&gt;Node15 -->
<g id="edge19" class="edge"><title>Node1&#45;&gt;Node15</title>
<path fill="none" stroke="midnightblue" d="M89.7068,-262.649C100.881,-264.093 113.161,-265.681 125.233,-267.241"/>
<polygon fill="midnightblue" stroke="midnightblue" points="124.93,-270.731 135.296,-268.542 125.828,-263.789 124.93,-270.731"/>
</g>
<!-- Node16 -->
<g id="node16" class="node"><title>Node16</title>
<g id="a_node16"><a xlink:href="../../de/d75/server_2campaign_8qc.html#af0e2832ac787abadacc8f1380aab4180" target="_top" xlink:title="cvar_string_campaignwrapper">
<polygon fill="none" stroke="black" points="298,-190.5 298,-209.5 444,-209.5 444,-190.5 298,-190.5"/>
<text text-anchor="middle" x="371" y="-197.5" font-family="Helvetica,sans-Serif" font-size="10.00">cvar_string_campaignwrapper</text>
</a>
</g>
</g>
<!-- Node1&#45;&gt;Node16 -->
<g id="edge32" class="edge"><title>Node1&#45;&gt;Node16</title>
<path fill="none" stroke="midnightblue" d="M89.6961,-249.313C145.36,-239.52 241.998,-222.519 305.979,-211.263"/>
<polygon fill="midnightblue" stroke="midnightblue" points="306.714,-214.687 315.956,-209.508 305.501,-207.793 306.714,-214.687"/>
</g>
<!-- Node20 -->
<g id="node20" class="node"><title>Node20</title>
<g id="a_node20"><a xlink:href="../../de/d75/server_2campaign_8qc.html#a74ba8c22b4888d4b65a0213257212503" target="_top" xlink:title="cvar_set_campaignwrapper">
<polygon fill="none" stroke="black" points="126,-152.5 126,-171.5 262,-171.5 262,-152.5 126,-152.5"/>
<text text-anchor="middle" x="194" y="-159.5" font-family="Helvetica,sans-Serif" font-size="10.00">cvar_set_campaignwrapper</text>
</a>
</g>
</g>
<!-- Node1&#45;&gt;Node20 -->
<g id="edge26" class="edge"><title>Node1&#45;&gt;Node20</title>
<path fill="none" stroke="midnightblue" d="M54.4491,-247.444C68.1368,-232.476 96.6044,-203.418 126,-186 133.104,-181.791 141.064,-178.144 148.95,-175.052"/>
<polygon fill="midnightblue" stroke="midnightblue" points="150.29,-178.289 158.47,-171.556 147.877,-171.718 150.29,-178.289"/>
</g>
<!-- Node21 -->
<g id="node21" class="node"><title>Node21</title>
<g id="a_node21"><a xlink:href="../../d8/de2/menudefs_8qc.html#ae06db7c87845d853670a09a1d487b1db" target="_top" xlink:title="strzone">
<polygon fill="none" stroke="black" points="346.5,-152.5 346.5,-171.5 395.5,-171.5 395.5,-152.5 346.5,-152.5"/>
<text text-anchor="middle" x="371" y="-159.5" font-family="Helvetica,sans-Serif" font-size="10.00">strzone</text>
</a>
</g>
</g>
<!-- Node1&#45;&gt;Node21 -->
<g id="edge38" class="edge"><title>Node1&#45;&gt;Node21</title>
<path fill="none" stroke="midnightblue" d="M61.6973,-247.423C77.4471,-238.188 102.653,-224.409 126,-216 164.524,-202.125 278.885,-179.355 336.309,-168.349"/>
<polygon fill="midnightblue" stroke="midnightblue" points="337.171,-171.748 346.338,-166.436 335.859,-164.872 337.171,-171.748"/>
</g>
<!-- Node22 -->
<g id="node22" class="node"><title>Node22</title>
<g id="a_node22"><a xlink:href="../../d8/de2/menudefs_8qc.html#ab64c3a0e7d347975b8b7a5cd17ab0113" target="_top" xlink:title="strunzone">
<polygon fill="none" stroke="black" points="341.5,-38.5 341.5,-57.5 400.5,-57.5 400.5,-38.5 341.5,-38.5"/>
<text text-anchor="middle" x="371" y="-45.5" font-family="Helvetica,sans-Serif" font-size="10.00">strunzone</text>
</a>
</g>
</g>
<!-- Node1&#45;&gt;Node22 -->
<g id="edge37" class="edge"><title>Node1&#45;&gt;Node22</title>
<path fill="none" stroke="midnightblue" d="M49.9972,-247.362C59.6343,-225.338 86.3244,-171.067 126,-143 177.236,-106.756 207.142,-135.485 262,-105 280.973,-94.457 279.293,-83.0073 298,-72 308.364,-65.9016 320.49,-61.1012 331.803,-57.4482"/>
<polygon fill="midnightblue" stroke="midnightblue" points="332.91,-60.7703 341.472,-54.5297 330.887,-54.0689 332.91,-60.7703"/>
</g>
<!-- Node23 -->
<g id="node23" class="node"><title>Node23</title>
<g id="a_node23"><a xlink:href="../../d8/de2/menudefs_8qc.html#abbb0d86741e0056b6c04f7280c185d76" target="_top" xlink:title="ftos">
<polygon fill="none" stroke="black" points="177.5,-38.5 177.5,-57.5 210.5,-57.5 210.5,-38.5 177.5,-38.5"/>
<text text-anchor="middle" x="194" y="-45.5" font-family="Helvetica,sans-Serif" font-size="10.00">ftos</text>
</a>
</g>
</g>
<!-- Node1&#45;&gt;Node23 -->
<g id="edge33" class="edge"><title>Node1&#45;&gt;Node23</title>
<path fill="none" stroke="midnightblue" d="M47.1212,-247.434C51.2738,-216.423 68.6351,-117.751 126,-67 137.29,-57.0121 153.473,-52.2462 167.107,-49.9849"/>
<polygon fill="midnightblue" stroke="midnightblue" points="167.885,-53.4134 177.352,-48.6564 166.985,-46.4715 167.885,-53.4134"/>
</g>
<!-- Node24 -->
<g id="node24" class="node"><title>Node24</title>
<g id="a_node24"><a xlink:href="../../d3/d46/mapinfo_8qc.html#ada476473bec140818c5c187a1fa504dd" target="_top" xlink:title="MapInfo_SwitchGameType">
<polygon fill="none" stroke="black" points="126.5,-0.5 126.5,-19.5 261.5,-19.5 261.5,-0.5 126.5,-0.5"/>
<text text-anchor="middle" x="194" y="-7.5" font-family="Helvetica,sans-Serif" font-size="10.00">MapInfo_SwitchGameType</text>
</a>
</g>
</g>
<!-- Node1&#45;&gt;Node24 -->
<g id="edge34" class="edge"><title>Node1&#45;&gt;Node24</title>
<path fill="none" stroke="midnightblue" d="M46.3878,-247.08C48.316,-211.826 59.6951,-91.3708 126,-29 127.682,-27.4183 129.485,-25.9668 131.383,-24.6349"/>
<polygon fill="midnightblue" stroke="midnightblue" points="133.314,-27.5614 140.222,-19.5285 129.812,-21.5 133.314,-27.5614"/>
</g>
<!-- Node2&#45;&gt;Node3 -->
<g id="edge2" class="edge"><title>Node2&#45;&gt;Node3</title>
<path fill="none" stroke="midnightblue" d="M209.441,-418.493C228.864,-406.067 264.809,-384.324 298,-371 303.984,-368.598 310.369,-366.411 316.772,-364.446"/>
<polygon fill="midnightblue" stroke="midnightblue" points="318.162,-367.687 326.793,-361.542 316.214,-360.964 318.162,-367.687"/>
</g>
<!-- Node2&#45;&gt;Node7 -->
<g id="edge15" class="edge"><title>Node2&#45;&gt;Node7</title>
<path fill="none" stroke="midnightblue" d="M207.426,-437.656C225.93,-451.358 262.381,-475.802 298,-485 409.885,-513.894 445.48,-511.314 558,-485 624.153,-469.529 693.66,-427.764 728.05,-405.109"/>
<polygon fill="midnightblue" stroke="midnightblue" points="730.033,-407.993 736.401,-399.525 726.143,-402.174 730.033,-407.993"/>
</g>
<!-- Node11 -->
<g id="node11" class="node"><title>Node11</title>
<g id="a_node11"><a xlink:href="../../db/dcc/g__world_8qc.html#a1330c9208470a4800fb84c8810728bcb" target="_top" xlink:title="GetMapname">
<polygon fill="none" stroke="black" points="333.5,-418.5 333.5,-437.5 408.5,-437.5 408.5,-418.5 333.5,-418.5"/>
<text text-anchor="middle" x="371" y="-425.5" font-family="Helvetica,sans-Serif" font-size="10.00">GetMapname</text>
</a>
</g>
</g>
<!-- Node2&#45;&gt;Node11 -->
<g id="edge11" class="edge"><title>Node2&#45;&gt;Node11</title>
<path fill="none" stroke="midnightblue" d="M241.897,-428C267.079,-428 298.027,-428 323.196,-428"/>
<polygon fill="midnightblue" stroke="midnightblue" points="323.239,-431.5 333.239,-428 323.239,-424.5 323.239,-431.5"/>
</g>
<!-- Node12 -->
<g id="node12" class="node"><title>Node12</title>
<g id="a_node12"><a xlink:href="../../d3/d46/mapinfo_8qc.html#a52c2a072a4bb9586ee6efd008defdc3d" target="_top" xlink:title="MapInfo_CurrentGametype">
<polygon fill="none" stroke="black" points="304,-456.5 304,-475.5 438,-475.5 438,-456.5 304,-456.5"/>
<text text-anchor="middle" x="371" y="-463.5" font-family="Helvetica,sans-Serif" font-size="10.00">MapInfo_CurrentGametype</text>
</a>
</g>
</g>
<!-- Node2&#45;&gt;Node12 -->
<g id="edge12" class="edge"><title>Node2&#45;&gt;Node12</title>
<path fill="none" stroke="midnightblue" d="M239.16,-437.589C262.565,-442.671 291.505,-448.955 316.212,-454.32"/>
<polygon fill="midnightblue" stroke="midnightblue" points="315.643,-457.778 326.158,-456.48 317.128,-450.938 315.643,-457.778"/>
</g>
<!-- Node2&#45;&gt;Node13 -->
<g id="edge14" class="edge"><title>Node2&#45;&gt;Node13</title>
<path fill="none" stroke="midnightblue" d="M239.16,-418.411C262.565,-413.329 291.505,-407.045 316.212,-401.68"/>
<polygon fill="midnightblue" stroke="midnightblue" points="317.128,-405.062 326.158,-399.52 315.643,-398.222 317.128,-405.062"/>
</g>
<!-- Node3&#45;&gt;Node4 -->
<g id="edge3" class="edge"><title>Node3&#45;&gt;Node4</title>
<path fill="none" stroke="midnightblue" d="M416.771,-357.438C426.53,-360.275 436.244,-364.556 444,-371 472.749,-394.884 453.854,-420.292 480,-447 483.493,-450.568 487.795,-453.577 492.234,-456.074"/>
<polygon fill="midnightblue" stroke="midnightblue" points="490.801,-459.269 501.325,-460.494 493.862,-452.973 490.801,-459.269"/>
</g>
<!-- Node5 -->
<g id="node5" class="node"><title>Node5</title>
<g id="a_node5"><a xlink:href="../../dc/d73/server_2miscfunctions_8qh.html#a1a1c887b029cca0568b046152aea10ff" target="_top" xlink:title="cvar_normal">
<polygon fill="none" stroke="black" points="484,-418.5 484,-437.5 554,-437.5 554,-418.5 484,-418.5"/>
<text text-anchor="middle" x="519" y="-425.5" font-family="Helvetica,sans-Serif" font-size="10.00">cvar_normal</text>
</a>
</g>
</g>
<!-- Node3&#45;&gt;Node5 -->
<g id="edge4" class="edge"><title>Node3&#45;&gt;Node5</title>
<path fill="none" stroke="midnightblue" d="M416.574,-359.647C426.027,-362.376 435.66,-366.055 444,-371 464.011,-382.865 461.312,-395.143 480,-409 482.074,-410.538 484.291,-412.01 486.573,-413.406"/>
<polygon fill="midnightblue" stroke="midnightblue" points="485.094,-416.588 495.534,-418.39 488.496,-410.471 485.094,-416.588"/>
</g>
<!-- Node6 -->
<g id="node6" class="node"><title>Node6</title>
<g id="a_node6"><a xlink:href="../../dc/d73/server_2miscfunctions_8qh.html#aa3719dc578ac9c6f94b0faebb041c5d9" target="_top" xlink:title="cvar_string_normal">
<polygon fill="none" stroke="black" points="594.5,-380.5 594.5,-399.5 693.5,-399.5 693.5,-380.5 594.5,-380.5"/>
<text text-anchor="middle" x="644" y="-387.5" font-family="Helvetica,sans-Serif" font-size="10.00">cvar_string_normal</text>
</a>
</g>
</g>
<!-- Node3&#45;&gt;Node6 -->
<g id="edge9" class="edge"><title>Node3&#45;&gt;Node6</title>
<path fill="none" stroke="midnightblue" d="M416.54,-355.064C454.341,-358.019 509.939,-363.202 558,-371 570.011,-372.949 582.869,-375.55 594.855,-378.2"/>
<polygon fill="midnightblue" stroke="midnightblue" points="594.155,-381.63 604.681,-380.425 595.701,-374.803 594.155,-381.63"/>
</g>
<!-- Node3&#45;&gt;Node9 -->
<g id="edge8" class="edge"><title>Node3&#45;&gt;Node9</title>
<path fill="none" stroke="midnightblue" d="M408.842,-342.411C429.407,-337.058 455.094,-330.373 476.383,-324.832"/>
<polygon fill="midnightblue" stroke="midnightblue" points="477.333,-328.201 486.129,-322.295 475.57,-321.427 477.333,-328.201"/>
</g>
<!-- Node10 -->
<g id="node10" class="node"><title>Node10</title>
<g id="a_node10"><a xlink:href="../../d8/de2/menudefs_8qc.html#a56b53595c8aa15ca107c03896db91fd2" target="_top" xlink:title="error">
<polygon fill="none" stroke="black" points="501,-380.5 501,-399.5 537,-399.5 537,-380.5 501,-380.5"/>
<text text-anchor="middle" x="519" y="-387.5" font-family="Helvetica,sans-Serif" font-size="10.00">error</text>
</a>
</g>
</g>
<!-- Node3&#45;&gt;Node10 -->
<g id="edge10" class="edge"><title>Node3&#45;&gt;Node10</title>
<path fill="none" stroke="midnightblue" d="M408.842,-361.589C434.335,-368.224 467.699,-376.908 490.798,-382.92"/>
<polygon fill="midnightblue" stroke="midnightblue" points="490.065,-386.346 500.624,-385.478 491.828,-379.572 490.065,-386.346"/>
</g>
<!-- Node5&#45;&gt;Node6 -->
<g id="edge5" class="edge"><title>Node5&#45;&gt;Node6</title>
<path fill="none" stroke="midnightblue" d="M551.038,-418.411C566.479,-413.641 585.348,-407.811 601.966,-402.677"/>
<polygon fill="midnightblue" stroke="midnightblue" points="603.451,-405.882 611.972,-399.586 601.384,-399.194 603.451,-405.882"/>
</g>
<!-- Node8 -->
<g id="node8" class="node"><title>Node8</title>
<g id="a_node8"><a xlink:href="../../d8/de2/menudefs_8qc.html#a2f6d3020689c0e872cfb455d0b2cbd4a" target="_top" xlink:title="stof">
<polygon fill="none" stroke="black" points="627.5,-323.5 627.5,-342.5 660.5,-342.5 660.5,-323.5 627.5,-323.5"/>
<text text-anchor="middle" x="644" y="-330.5" font-family="Helvetica,sans-Serif" font-size="10.00">stof</text>
</a>
</g>
</g>
<!-- Node5&#45;&gt;Node8 -->
<g id="edge7" class="edge"><title>Node5&#45;&gt;Node8</title>
<path fill="none" stroke="midnightblue" d="M542.466,-418.39C547.772,-415.688 553.26,-412.515 558,-409 576.688,-395.143 576.758,-386.618 594,-371 602.497,-363.303 612.405,-355.434 621.079,-348.867"/>
<polygon fill="midnightblue" stroke="midnightblue" points="623.312,-351.568 629.244,-342.79 619.132,-345.953 623.312,-351.568"/>
</g>
<!-- Node6&#45;&gt;Node7 -->
<g id="edge6" class="edge"><title>Node6&#45;&gt;Node7</title>
<path fill="none" stroke="midnightblue" d="M693.504,-390C702.546,-390 711.747,-390 720.025,-390"/>
<polygon fill="midnightblue" stroke="midnightblue" points="720.286,-393.5 730.286,-390 720.286,-386.5 720.286,-393.5"/>
</g>
<!-- Node12&#45;&gt;Node4 -->
<g id="edge13" class="edge"><title>Node12&#45;&gt;Node4</title>
<path fill="none" stroke="midnightblue" d="M438.165,-466C456.986,-466 476.418,-466 491.399,-466"/>
<polygon fill="midnightblue" stroke="midnightblue" points="491.447,-469.5 501.447,-466 491.447,-462.5 491.447,-469.5"/>
</g>
<!-- Node15&#45;&gt;Node8 -->
<g id="edge20" class="edge"><title>Node15&#45;&gt;Node8</title>
<path fill="none" stroke="midnightblue" d="M252.515,-272.585C324.884,-269.744 452.473,-269.584 558,-295 579.282,-300.126 601.833,-310.462 618.356,-319.062"/>
<polygon fill="midnightblue" stroke="midnightblue" points="616.865,-322.234 627.333,-323.872 620.172,-316.064 616.865,-322.234"/>
</g>
<!-- Node15&#45;&gt;Node16 -->
<g id="edge21" class="edge"><title>Node15&#45;&gt;Node16</title>
<path fill="none" stroke="midnightblue" d="M223.615,-266.491C235.586,-262.322 249.576,-257.199 262,-252 289.926,-240.313 320.989,-225.117 342.605,-214.174"/>
<polygon fill="midnightblue" stroke="midnightblue" points="344.22,-217.279 351.54,-209.62 341.041,-211.042 344.22,-217.279"/>
</g>
<!-- Node16&#45;&gt;Node7 -->
<g id="edge22" class="edge"><title>Node16&#45;&gt;Node7</title>
<path fill="none" stroke="midnightblue" d="M428.582,-209.502C496.915,-223.206 612.779,-253.778 694,-314 714.58,-329.259 730.907,-354.221 740.502,-371.346"/>
<polygon fill="midnightblue" stroke="midnightblue" points="737.542,-373.234 745.354,-380.391 743.711,-369.924 737.542,-373.234"/>
</g>
<!-- Node17 -->
<g id="node17" class="node"><title>Node17</title>
<g id="a_node17"><a xlink:href="../../d8/de2/menudefs_8qc.html#ad9529df35f16daeafe8583b1ab2b42b8" target="_top" xlink:title="cvar_defstring">
<polygon fill="none" stroke="black" points="480,-152.5 480,-171.5 558,-171.5 558,-152.5 480,-152.5"/>
<text text-anchor="middle" x="519" y="-159.5" font-family="Helvetica,sans-Serif" font-size="10.00">cvar_defstring</text>
</a>
</g>
</g>
<!-- Node16&#45;&gt;Node17 -->
<g id="edge23" class="edge"><title>Node16&#45;&gt;Node17</title>
<path fill="none" stroke="midnightblue" d="M408.842,-190.411C427.848,-185.464 451.229,-179.379 471.469,-174.111"/>
<polygon fill="midnightblue" stroke="midnightblue" points="472.627,-177.426 481.423,-171.52 470.864,-170.652 472.627,-177.426"/>
</g>
<!-- Node18 -->
<g id="node18" class="node"><title>Node18</title>
<g id="a_node18"><a xlink:href="../../d8/de2/menudefs_8qc.html#a274680f571a231ddf29421b93d434bfa" target="_top" xlink:title="strlen">
<polygon fill="none" stroke="black" points="498.5,-114.5 498.5,-133.5 539.5,-133.5 539.5,-114.5 498.5,-114.5"/>
<text text-anchor="middle" x="519" y="-121.5" font-family="Helvetica,sans-Serif" font-size="10.00">strlen</text>
</a>
</g>
</g>
<!-- Node16&#45;&gt;Node18 -->
<g id="edge24" class="edge"><title>Node16&#45;&gt;Node18</title>
<path fill="none" stroke="midnightblue" d="M422.634,-190.473C430.078,-187.996 437.439,-184.89 444,-181 464.011,-169.135 461.312,-156.857 480,-143 482.872,-140.871 486.018,-138.867 489.232,-137.017"/>
<polygon fill="midnightblue" stroke="midnightblue" points="491.086,-139.996 498.299,-132.235 487.821,-133.804 491.086,-139.996"/>
</g>
<!-- Node19 -->
<g id="node19" class="node"><title>Node19</title>
<g id="a_node19"><a xlink:href="../../d8/de2/menudefs_8qc.html#a40f6c65c8bbcfa51df783f2809a2502b" target="_top" xlink:title="substring">
<polygon fill="none" stroke="black" points="491,-190.5 491,-209.5 547,-209.5 547,-190.5 491,-190.5"/>
<text text-anchor="middle" x="519" y="-197.5" font-family="Helvetica,sans-Serif" font-size="10.00">substring</text>
</a>
</g>
</g>
<!-- Node16&#45;&gt;Node19 -->
<g id="edge25" class="edge"><title>Node16&#45;&gt;Node19</title>
<path fill="none" stroke="midnightblue" d="M444.145,-200C456.775,-200 469.44,-200 480.626,-200"/>
<polygon fill="midnightblue" stroke="midnightblue" points="480.849,-203.5 490.849,-200 480.849,-196.5 480.849,-203.5"/>
</g>
<!-- Node20&#45;&gt;Node7 -->
<g id="edge29" class="edge"><title>Node20&#45;&gt;Node7</title>
<path fill="none" stroke="midnightblue" d="M227.051,-152.473C304.28,-130.232 498.657,-78.7012 558,-105 672.542,-155.761 728.363,-315.022 744.725,-370.618"/>
<polygon fill="midnightblue" stroke="midnightblue" points="741.374,-371.631 747.477,-380.292 748.107,-369.716 741.374,-371.631"/>
</g>
<!-- Node20&#45;&gt;Node16 -->
<g id="edge27" class="edge"><title>Node20&#45;&gt;Node16</title>
<path fill="none" stroke="midnightblue" d="M239.16,-171.589C262.565,-176.671 291.505,-182.955 316.212,-188.32"/>
<polygon fill="midnightblue" stroke="midnightblue" points="315.643,-191.778 326.158,-190.48 317.128,-184.938 315.643,-191.778"/>
</g>
<!-- Node20&#45;&gt;Node21 -->
<g id="edge28" class="edge"><title>Node20&#45;&gt;Node21</title>
<path fill="none" stroke="midnightblue" d="M262.159,-162C287.556,-162 315.373,-162 336.394,-162"/>
<polygon fill="midnightblue" stroke="midnightblue" points="336.421,-165.5 346.421,-162 336.421,-158.5 336.421,-165.5"/>
</g>
<!-- Node20&#45;&gt;Node22 -->
<g id="edge30" class="edge"><title>Node20&#45;&gt;Node22</title>
<path fill="none" stroke="midnightblue" d="M236.509,-152.413C245.596,-148.941 254.677,-144.265 262,-138 287.389,-116.278 272.371,-93.4384 298,-72 307.458,-64.0882 319.623,-58.7537 331.252,-55.1694"/>
<polygon fill="midnightblue" stroke="midnightblue" points="332.521,-58.4514 341.252,-52.4493 330.684,-51.6969 332.521,-58.4514"/>
</g>
</g>
</svg>
        <g id="navigator" transform="translate(0 0)" fill="#404254">
                <rect fill="#f2f5e9" fill-opacity="0.5" stroke="#606060" stroke-width=".5" x="0" y="0" width="60" height="60"/>
                <use id="zoomplus" xlink:href="#zoomPlus" x="17" y="9" onmousedown="handleZoom(evt,'in')"/>
                <use id="zoomminus" xlink:href="#zoomMin" x="42" y="9" onmousedown="handleZoom(evt,'out')"/>
                <use id="reset" xlink:href="#resetDef" x="30" y="36" onmousedown="handleReset()"/>
                <g id="arrowUp" xlink:href="#dirArrow" transform="translate(30 24)" onmousedown="handlePan(0,-1)">
                  <use xlink:href="#rim" fill="#404040">
                        <set attributeName="fill" to="#808080" begin="arrowUp.mouseover" end="arrowUp.mouseout"/>
                  </use>
                  <path fill="none" stroke="white" stroke-width="1.5" d="M0,-3.0v7 M-2.5,-0.5L0,-3.0L2.5,-0.5"/>
                </g>
                <g id="arrowRight" xlink:href="#dirArrow" transform="rotate(90) translate(36 -43)" onmousedown="handlePan(1,0)">
                  <use xlink:href="#rim" fill="#404040">
                        <set attributeName="fill" to="#808080" begin="arrowRight.mouseover" end="arrowRight.mouseout"/>
                  </use>
                  <path fill="none" stroke="white" stroke-width="1.5" d="M0,-3.0v7 M-2.5,-0.5L0,-3.0L2.5,-0.5"/>
                </g>
                <g id="arrowDown" xlink:href="#dirArrow" transform="rotate(180) translate(-30 -48)" onmousedown="handlePan(0,1)">
                  <use xlink:href="#rim" fill="#404040">
                        <set attributeName="fill" to="#808080" begin="arrowDown.mouseover" end="arrowDown.mouseout"/>
                  </use>
                  <path fill="none" stroke="white" stroke-width="1.5" d="M0,-3.0v7 M-2.5,-0.5L0,-3.0L2.5,-0.5"/>
                </g>
                <g id="arrowLeft" xlink:href="#dirArrow" transform="rotate(270) translate(-36 17)" onmousedown="handlePan(-1,0)">
                  <use xlink:href="#rim" fill="#404040">
                        <set attributeName="fill" to="#808080" begin="arrowLeft.mouseover" end="arrowLeft.mouseout"/>
                  </use>
                  <path fill="none" stroke="white" stroke-width="1.5" d="M0,-3.0v7 M-2.5,-0.5L0,-3.0L2.5,-0.5"/>
                </g>
        </g>
        <svg viewBox="0 0 15 15" width="100%" height="30px" preserveAspectRatio="xMaxYMin meet">
         <g id="arrow_out" transform="scale(0.3 0.3)">
          <a xlink:href="server_2campaign_8qc_ad13bdb6078e9ab062dd228765608aa7e_cgraph_org.svg" target="_base">
           <rect id="button" ry="5" rx="5" y="6" x="6" height="38" width="38"
                fill="#f2f5e9" fill-opacity="0.5" stroke="#606060" stroke-width="1.0"/>
           <path id="arrow"
             d="M 11.500037,31.436501 C 11.940474,20.09759 22.043105,11.32322 32.158766,21.979434 L 37.068811,17.246167 C 37.068811,17.246167 37.088388,32 37.088388,32 L 22.160133,31.978069 C 22.160133,31.978069 26.997745,27.140456 26.997745,27.140456 C 18.528582,18.264221 13.291696,25.230495 11.500037,31.436501 z"
             style="fill:#404040;"/>
          </a>
         </g>
        </svg>
</svg>
