<?xml version="1.0" encoding="UTF-8" standalone="no"?>
<!DOCTYPE svg PUBLIC "-//W3C//DTD SVG 1.1//EN"
 "http://www.w3.org/Graphics/SVG/1.1/DTD/svg11.dtd">
<!-- Generated by graphviz version 2.36.0 (20140111.2315)
 -->
<!-- Title: server/scores_rules.qc Pages: 1 -->
<svg width="287pt" height="140pt"
 viewBox="0.00 0.00 287.00 140.00" xmlns="http://www.w3.org/2000/svg" xmlns:xlink="http://www.w3.org/1999/xlink">
<g id="graph0" class="graph" transform="scale(1 1) rotate(0) translate(4 136)">
<title>server/scores_rules.qc</title>
<!-- Node1 -->
<g id="node1" class="node"><title>Node1</title>
<polygon fill="#bfbfbf" stroke="black" points="79,-112.5 79,-131.5 195,-131.5 195,-112.5 79,-112.5"/>
<text text-anchor="middle" x="137" y="-119.5" font-family="Helvetica,sans-Serif" font-size="10.00">server/scores_rules.qc</text>
</g>
<!-- Node2 -->
<g id="node2" class="node"><title>Node2</title>
<g id="a_node2"><a xlink:href="../../d6/d4e/scores__rules_8qh.html" target="_top" xlink:title="scores_rules.qh">
<polygon fill="none" stroke="black" points="0,-56.5 0,-75.5 86,-75.5 86,-56.5 0,-56.5"/>
<text text-anchor="middle" x="43" y="-63.5" font-family="Helvetica,sans-Serif" font-size="10.00">scores_rules.qh</text>
</a>
</g>
</g>
<!-- Node1&#45;&gt;Node2 -->
<g id="edge1" class="edge"><title>Node1&#45;&gt;Node2</title>
<path fill="none" stroke="midnightblue" d="M121.897,-112.324C107.097,-103.822 84.3058,-90.7288 67.0178,-80.7975"/>
<polygon fill="midnightblue" stroke="midnightblue" points="68.4798,-77.6009 58.0652,-75.6545 64.9929,-83.6707 68.4798,-77.6009"/>
</g>
<!-- Node3 -->
<g id="node3" class="node"><title>Node3</title>
<g id="a_node3"><a xlink:href="../../d1/d30/cl__client_8qh.html" target="_top" xlink:title="cl_client.qh">
<polygon fill="none" stroke="black" points="104,-56.5 104,-75.5 170,-75.5 170,-56.5 104,-56.5"/>
<text text-anchor="middle" x="137" y="-63.5" font-family="Helvetica,sans-Serif" font-size="10.00">cl_client.qh</text>
</a>
</g>
</g>
<!-- Node1&#45;&gt;Node3 -->
<g id="edge2" class="edge"><title>Node1&#45;&gt;Node3</title>
<path fill="none" stroke="midnightblue" d="M137,-112.083C137,-105.006 137,-94.8611 137,-85.9865"/>
<polygon fill="midnightblue" stroke="midnightblue" points="140.5,-85.751 137,-75.7511 133.5,-85.7511 140.5,-85.751"/>
</g>
<!-- Node4 -->
<g id="node4" class="node"><title>Node4</title>
<g id="a_node4"><a xlink:href="../../d3/dcd/scores_8qh.html" target="_top" xlink:title="scores.qh">
<polygon fill="none" stroke="black" points="188.5,-56.5 188.5,-75.5 247.5,-75.5 247.5,-56.5 188.5,-56.5"/>
<text text-anchor="middle" x="218" y="-63.5" font-family="Helvetica,sans-Serif" font-size="10.00">scores.qh</text>
</a>
</g>
</g>
<!-- Node1&#45;&gt;Node4 -->
<g id="edge3" class="edge"><title>Node1&#45;&gt;Node4</title>
<path fill="none" stroke="midnightblue" d="M150.014,-112.324C162.532,-103.979 181.682,-91.2122 196.471,-81.3524"/>
<polygon fill="midnightblue" stroke="midnightblue" points="198.639,-84.1137 205.018,-75.6545 194.756,-78.2894 198.639,-84.1137"/>
</g>
<!-- Node5 -->
<g id="node5" class="node"><title>Node5</title>
<g id="a_node5"><a xlink:href="../../d0/d8b/common_2constants_8qh.html" target="_top" xlink:title="../common/constants.qh">
<polygon fill="none" stroke="black" points="157,-0.5 157,-19.5 279,-19.5 279,-0.5 157,-0.5"/>
<text text-anchor="middle" x="218" y="-7.5" font-family="Helvetica,sans-Serif" font-size="10.00">../common/constants.qh</text>
</a>
</g>
</g>
<!-- Node4&#45;&gt;Node5 -->
<g id="edge4" class="edge"><title>Node4&#45;&gt;Node5</title>
<path fill="none" stroke="midnightblue" d="M218,-56.083C218,-49.0059 218,-38.8611 218,-29.9865"/>
<polygon fill="midnightblue" stroke="midnightblue" points="221.5,-29.751 218,-19.7511 214.5,-29.7511 221.5,-29.751"/>
</g>
</g>
</svg>
