<?xml version="1.0" encoding="UTF-8" standalone="no"?>
<!DOCTYPE svg PUBLIC "-//W3C//DTD SVG 1.1//EN"
 "http://www.w3.org/Graphics/SVG/1.1/DTD/svg11.dtd">
<!-- Generated by graphviz version 2.38.0 (20140413.2041)
 -->
<!-- Title: W_UndeprecateName Pages: 1 -->
<svg width="1009pt" height="241pt"
 viewBox="0.00 0.00 1009.00 241.00" xmlns="http://www.w3.org/2000/svg" xmlns:xlink="http://www.w3.org/1999/xlink">
<g id="graph0" class="graph" transform="scale(1 1) rotate(0) translate(4 237)">
<title>W_UndeprecateName</title>
<!-- Node1 -->
<g id="node1" class="node"><title>Node1</title>
<polygon fill="#bfbfbf" stroke="black" points="0,-107 0,-126 122,-126 122,-107 0,-107"/>
<text text-anchor="middle" x="61" y="-114" font-family="Helvetica,sans-Serif" font-size="10.00">W_UndeprecateName</text>
</g>
<!-- Node2 -->
<g id="node2" class="node"><title>Node2</title>
<g id="a_node2"><a xlink:href="../../d0/d2b/weapons_2all_8qc.html#a6e455edb328362e8ea7fc75757394379" target="_top" xlink:title="W_NumberWeaponOrder\l_MapFunc">
<polygon fill="none" stroke="black" points="158,-101.5 158,-131.5 292,-131.5 292,-101.5 158,-101.5"/>
<text text-anchor="start" x="166" y="-119.5" font-family="Helvetica,sans-Serif" font-size="10.00">W_NumberWeaponOrder</text>
<text text-anchor="middle" x="225" y="-108.5" font-family="Helvetica,sans-Serif" font-size="10.00">_MapFunc</text>
</a>
</g>
</g>
<!-- Node1&#45;&gt;Node2 -->
<g id="edge1" class="edge"><title>Node1&#45;&gt;Node2</title>
<path fill="none" stroke="midnightblue" d="M132.513,-116.5C140.951,-116.5 149.543,-116.5 157.915,-116.5"/>
<polygon fill="midnightblue" stroke="midnightblue" points="132.323,-113 122.323,-116.5 132.323,-120 132.323,-113"/>
</g>
<!-- Node3 -->
<g id="node3" class="node"><title>Node3</title>
<g id="a_node3"><a xlink:href="../../d2/d1c/weapons_2weapon_8qh.html#a68c8b4f04f6cf4bd80ef078f2bea8d16" target="_top" xlink:title="W_NumberWeaponOrder">
<polygon fill="none" stroke="black" points="328,-107 328,-126 462,-126 462,-107 328,-107"/>
<text text-anchor="middle" x="395" y="-114" font-family="Helvetica,sans-Serif" font-size="10.00">W_NumberWeaponOrder</text>
</a>
</g>
</g>
<!-- Node2&#45;&gt;Node3 -->
<g id="edge2" class="edge"><title>Node2&#45;&gt;Node3</title>
<path fill="none" stroke="midnightblue" d="M302.595,-116.5C311.013,-116.5 319.532,-116.5 327.809,-116.5"/>
<polygon fill="midnightblue" stroke="midnightblue" points="302.398,-113 292.398,-116.5 302.398,-120 302.398,-113"/>
</g>
<!-- Node4 -->
<g id="node4" class="node"><title>Node4</title>
<g id="a_node4"><a xlink:href="../../d1/da9/bot_8qh.html#a2106f3a69bfc83423ff921b8c7aa15a0" target="_top" xlink:title="bot_custom_weapon_priority\l_setup">
<polygon fill="none" stroke="black" points="513.5,-202.5 513.5,-232.5 667.5,-232.5 667.5,-202.5 513.5,-202.5"/>
<text text-anchor="start" x="521.5" y="-220.5" font-family="Helvetica,sans-Serif" font-size="10.00">bot_custom_weapon_priority</text>
<text text-anchor="middle" x="590.5" y="-209.5" font-family="Helvetica,sans-Serif" font-size="10.00">_setup</text>
</a>
</g>
</g>
<!-- Node3&#45;&gt;Node4 -->
<g id="edge3" class="edge"><title>Node3&#45;&gt;Node4</title>
<path fill="none" stroke="midnightblue" d="M415.458,-132.642C435.221,-148.39 467.218,-172.155 498,-187.5 509.52,-193.243 522.388,-198.245 534.751,-202.433"/>
<polygon fill="midnightblue" stroke="midnightblue" points="417.508,-129.798 407.532,-126.23 413.106,-135.24 417.508,-129.798"/>
</g>
<!-- Node6 -->
<g id="node6" class="node"><title>Node6</title>
<g id="a_node6"><a xlink:href="../../d4/def/weapons_8qc.html#ab7c3acfa47aaf4f25f4775921b6be5ae" target="_top" xlink:title="HUD_Weapons">
<polygon fill="none" stroke="black" points="768,-167 768,-186 855,-186 855,-167 768,-167"/>
<text text-anchor="middle" x="811.5" y="-174" font-family="Helvetica,sans-Serif" font-size="10.00">HUD_Weapons</text>
</a>
</g>
</g>
<!-- Node3&#45;&gt;Node6 -->
<g id="edge5" class="edge"><title>Node3&#45;&gt;Node6</title>
<path fill="none" stroke="midnightblue" d="M425.765,-130.174C445.753,-138.705 472.923,-149.065 498,-154.5 592.746,-175.037 707.057,-177.64 767.752,-177.328"/>
<polygon fill="midnightblue" stroke="midnightblue" points="427.135,-126.953 416.57,-126.162 424.336,-133.369 427.135,-126.953"/>
</g>
<!-- Node7 -->
<g id="node7" class="node"><title>Node7</title>
<g id="a_node7"><a xlink:href="../../df/d8c/cl__cmd_8qc.html#aefa88bf5523ddb9a16c2de624306cd11" target="_top" xlink:title="LocalCommand_sendcvar">
<polygon fill="none" stroke="black" points="520.5,-88 520.5,-107 660.5,-107 660.5,-88 520.5,-88"/>
<text text-anchor="middle" x="590.5" y="-95" font-family="Helvetica,sans-Serif" font-size="10.00">LocalCommand_sendcvar</text>
</a>
</g>
</g>
<!-- Node3&#45;&gt;Node7 -->
<g id="edge6" class="edge"><title>Node3&#45;&gt;Node7</title>
<path fill="none" stroke="midnightblue" d="M472.35,-109.003C488.221,-107.445 504.859,-105.811 520.449,-104.28"/>
<polygon fill="midnightblue" stroke="midnightblue" points="471.661,-105.554 462.051,-110.014 472.345,-112.52 471.661,-105.554"/>
</g>
<!-- Node9 -->
<g id="node9" class="node"><title>Node9</title>
<g id="a_node9"><a xlink:href="../../d2/d1c/weapons_2weapon_8qh.html#a01fb8b4722cd9503ad28af6600e7e18c" target="_top" xlink:title="W_FixWeaponOrder_ForceComplete">
<polygon fill="none" stroke="black" points="498,-126 498,-145 683,-145 683,-126 498,-126"/>
<text text-anchor="middle" x="590.5" y="-133" font-family="Helvetica,sans-Serif" font-size="10.00">W_FixWeaponOrder_ForceComplete</text>
</a>
</g>
</g>
<!-- Node3&#45;&gt;Node9 -->
<g id="edge8" class="edge"><title>Node3&#45;&gt;Node9</title>
<path fill="none" stroke="midnightblue" d="M472.163,-123.979C480.557,-124.803 489.167,-125.648 497.725,-126.488"/>
<polygon fill="midnightblue" stroke="midnightblue" points="472.345,-120.48 462.051,-122.986 471.661,-127.446 472.345,-120.48"/>
</g>
<!-- Node12 -->
<g id="node12" class="node"><title>Node12</title>
<g id="a_node12"><a xlink:href="../../d8/df3/weaponslist_8qc.html#ad576d15e8804939666948de29a2c60d6" target="_top" xlink:title="XonoticWeaponsList_draw">
<polygon fill="none" stroke="black" points="521,-50 521,-69 660,-69 660,-50 521,-50"/>
<text text-anchor="middle" x="590.5" y="-57" font-family="Helvetica,sans-Serif" font-size="10.00">XonoticWeaponsList_draw</text>
</a>
</g>
</g>
<!-- Node3&#45;&gt;Node12 -->
<g id="edge13" class="edge"><title>Node3&#45;&gt;Node12</title>
<path fill="none" stroke="midnightblue" d="M428.245,-103.052C448.107,-95.1304 474.234,-85.3516 498,-78.5 510.316,-74.9495 523.744,-71.781 536.425,-69.0968"/>
<polygon fill="midnightblue" stroke="midnightblue" points="426.718,-99.8943 418.757,-106.885 429.34,-106.385 426.718,-99.8943"/>
</g>
<!-- Node13 -->
<g id="node13" class="node"><title>Node13</title>
<g id="a_node13"><a xlink:href="../../d8/df3/weaponslist_8qc.html#ae5c9433e0b99f44b5a67fccba50c67ad" target="_top" xlink:title="XonoticWeaponsList\l_toString">
<polygon fill="none" stroke="black" points="535,-0.5 535,-30.5 646,-30.5 646,-0.5 535,-0.5"/>
<text text-anchor="start" x="543" y="-18.5" font-family="Helvetica,sans-Serif" font-size="10.00">XonoticWeaponsList</text>
<text text-anchor="middle" x="590.5" y="-7.5" font-family="Helvetica,sans-Serif" font-size="10.00">_toString</text>
</a>
</g>
</g>
<!-- Node3&#45;&gt;Node13 -->
<g id="edge14" class="edge"><title>Node3&#45;&gt;Node13</title>
<path fill="none" stroke="midnightblue" d="M413.571,-100.139C432.889,-82.9736 465.519,-56.332 498,-40.5 509.398,-34.9443 522.218,-30.4689 534.572,-26.9266"/>
<polygon fill="midnightblue" stroke="midnightblue" points="411.213,-97.5519 406.145,-106.856 415.909,-102.743 411.213,-97.5519"/>
</g>
<!-- Node5 -->
<g id="node5" class="node"><title>Node5</title>
<g id="a_node5"><a xlink:href="../../d1/da9/bot_8qh.html#aca1687b4e440adf8111b9438919a0b0a" target="_top" xlink:title="bot_serverframe">
<polygon fill="none" stroke="black" points="763.5,-208 763.5,-227 859.5,-227 859.5,-208 763.5,-208"/>
<text text-anchor="middle" x="811.5" y="-215" font-family="Helvetica,sans-Serif" font-size="10.00">bot_serverframe</text>
</a>
</g>
</g>
<!-- Node4&#45;&gt;Node5 -->
<g id="edge4" class="edge"><title>Node4&#45;&gt;Node5</title>
<path fill="none" stroke="midnightblue" d="M677.989,-217.5C707.138,-217.5 738.565,-217.5 763.495,-217.5"/>
<polygon fill="midnightblue" stroke="midnightblue" points="677.788,-214 667.788,-217.5 677.788,-221 677.788,-214"/>
</g>
<!-- Node8 -->
<g id="node8" class="node"><title>Node8</title>
<g id="a_node8"><a xlink:href="../../df/d8c/cl__cmd_8qc.html#a3244c6168c60506eedab5ce102f71ed5" target="_top" xlink:title="CLIENT_COMMAND">
<polygon fill="none" stroke="black" points="758,-79 758,-98 865,-98 865,-79 758,-79"/>
<text text-anchor="middle" x="811.5" y="-86" font-family="Helvetica,sans-Serif" font-size="10.00">CLIENT_COMMAND</text>
</a>
</g>
</g>
<!-- Node7&#45;&gt;Node8 -->
<g id="edge7" class="edge"><title>Node7&#45;&gt;Node8</title>
<path fill="none" stroke="midnightblue" d="M670.902,-94.2369C699.882,-93.0459 731.913,-91.7296 757.974,-90.6586"/>
<polygon fill="midnightblue" stroke="midnightblue" points="670.641,-90.7446 660.793,-94.6523 670.928,-97.7387 670.641,-90.7446"/>
</g>
<!-- Node9&#45;&gt;Node6 -->
<g id="edge9" class="edge"><title>Node9&#45;&gt;Node6</title>
<path fill="none" stroke="midnightblue" d="M652.378,-146.897C689.055,-153.764 734.865,-162.34 767.722,-168.491"/>
<polygon fill="midnightblue" stroke="midnightblue" points="652.767,-143.409 642.293,-145.009 651.479,-150.29 652.767,-143.409"/>
</g>
<!-- Node10 -->
<g id="node10" class="node"><title>Node10</title>
<g id="a_node10"><a xlink:href="../../dc/dc6/server_2miscfunctions_8qc.html#aa4ac3dd1f661621de6a9f2bf5e6fb289" target="_top" xlink:title="W_FixWeaponOrder_ForceComplete\l_AndBuildImpulseList">
<polygon fill="none" stroke="black" points="719,-117.5 719,-147.5 904,-147.5 904,-117.5 719,-117.5"/>
<text text-anchor="start" x="727" y="-135.5" font-family="Helvetica,sans-Serif" font-size="10.00">W_FixWeaponOrder_ForceComplete</text>
<text text-anchor="middle" x="811.5" y="-124.5" font-family="Helvetica,sans-Serif" font-size="10.00">_AndBuildImpulseList</text>
</a>
</g>
</g>
<!-- Node9&#45;&gt;Node10 -->
<g id="edge10" class="edge"><title>Node9&#45;&gt;Node10</title>
<path fill="none" stroke="midnightblue" d="M693.151,-134.108C701.743,-133.99 710.4,-133.871 718.908,-133.755"/>
<polygon fill="midnightblue" stroke="midnightblue" points="693.058,-130.608 683.107,-134.245 693.154,-137.608 693.058,-130.608"/>
</g>
<!-- Node11 -->
<g id="node11" class="node"><title>Node11</title>
<g id="a_node11"><a xlink:href="../../dc/d73/server_2miscfunctions_8qh.html#a9493fdb8b379fd22c688da7be4fc7782" target="_top" xlink:title="GetCvars">
<polygon fill="none" stroke="black" points="940,-123 940,-142 1001,-142 1001,-123 940,-123"/>
<text text-anchor="middle" x="970.5" y="-130" font-family="Helvetica,sans-Serif" font-size="10.00">GetCvars</text>
</a>
</g>
</g>
<!-- Node10&#45;&gt;Node11 -->
<g id="edge11" class="edge"><title>Node10&#45;&gt;Node11</title>
<path fill="none" stroke="midnightblue" d="M914.314,-132.5C923.416,-132.5 932.059,-132.5 939.688,-132.5"/>
<polygon fill="midnightblue" stroke="midnightblue" points="914.282,-129 904.282,-132.5 914.282,-136 914.282,-129"/>
</g>
<!-- Node11&#45;&gt;Node11 -->
<g id="edge12" class="edge"><title>Node11&#45;&gt;Node11</title>
<path fill="none" stroke="midnightblue" d="M941.008,-151.154C942.24,-156.437 952.071,-160.5 970.5,-160.5 998.582,-160.5 1006.7,-151.065 994.852,-142.257"/>
<polygon fill="midnightblue" stroke="midnightblue" points="944.176,-152.667 946.148,-142.257 938.114,-149.165 944.176,-152.667"/>
</g>
</g>
</svg>
