<?xml version="1.0" encoding="UTF-8" standalone="no"?>
<!DOCTYPE svg PUBLIC "-//W3C//DTD SVG 1.1//EN"
 "http://www.w3.org/Graphics/SVG/1.1/DTD/svg11.dtd">
<!-- Generated by graphviz version 2.36.0 (20140111.2315)
 -->
<!-- Title: W_NumberWeaponOrder Pages: 1 -->
<!--zoomable 240 -->
<svg id="main" version="1.1" xmlns="http://www.w3.org/2000/svg" xmlns:xlink="http://www.w3.org/1999/xlink" xml:space="preserve" onload="init(evt)">
<style type="text/css"><![CDATA[
.edge:hover path { stroke: red; }
.edge:hover polygon { stroke: red; fill: red; }
]]></style>
<script type="text/javascript"><![CDATA[
var edges = document.getElementsByTagName('g');
if (edges && edges.length) {
  for (var i=0;i<edges.length;i++) {
    if (edges[i].id.substr(0,4)=='edge') {
      edges[i].setAttribute('class','edge');
    }
  }
}
]]></script>
        <defs>
                <circle id="rim" cx="0" cy="0" r="7"/>
                <circle id="rim2" cx="0" cy="0" r="3.5"/>
                <g id="zoomPlus">
                        <use xlink:href="#rim" fill="#404040">
                                <set attributeName="fill" to="#808080" begin="zoomplus.mouseover" end="zoomplus.mouseout"/>
                        </use>
                        <path d="M-4,0h8M0,-4v8" fill="none" stroke="white" stroke-width="1.5" pointer-events="none"/>
                </g>
                <g id="zoomMin">
                        <use xlink:href="#rim" fill="#404040">
                                <set attributeName="fill" to="#808080" begin="zoomminus.mouseover" end="zoomminus.mouseout"/>
                        </use>
                        <path d="M-4,0h8" fill="none" stroke="white" stroke-width="1.5" pointer-events="none"/>
                </g>
                <g id="dirArrow">
                        <path fill="none" stroke="white" stroke-width="1.5" d="M0,-3.0v7 M-2.5,-0.5L0,-3.0L2.5,-0.5"/>
                </g>
               <g id="resetDef">
                       <use xlink:href="#rim2" fill="#404040">
                               <set attributeName="fill" to="#808080" begin="reset.mouseover" end="reset.mouseout"/>
                       </use>
               </g>
        </defs>

<script type="text/javascript">
var viewWidth = 952;
var viewHeight = 240;
var sectionId = 'dynsection-15';
</script>
<script xlink:href="../../svgpan.js"/>
<svg id="graph" class="graph">
<g id="viewport">
<title>W_NumberWeaponOrder</title>
<!-- Node1 -->
<g id="node1" class="node"><title>Node1</title>
<polygon fill="#bfbfbf" stroke="black" points="0,-106.5 0,-125.5 126,-125.5 126,-106.5 0,-106.5"/>
<text text-anchor="middle" x="63" y="-113.5" font-family="Helvetica,sans-Serif" font-size="10.00">W_NumberWeaponOrder</text>
</g>
<!-- Node2 -->
<g id="node2" class="node"><title>Node2</title>
<g id="a_node2"><a xlink:href="../../d1/da9/bot_8qh.html#a2106f3a69bfc83423ff921b8c7aa15a0" target="_top" xlink:title="bot_custom_weapon_priority\l_setup">
<polygon fill="none" stroke="black" points="180.5,-202 180.5,-232 321.5,-232 321.5,-202 180.5,-202"/>
<text text-anchor="start" x="188.5" y="-220" font-family="Helvetica,sans-Serif" font-size="10.00">bot_custom_weapon_priority</text>
<text text-anchor="middle" x="251" y="-209" font-family="Helvetica,sans-Serif" font-size="10.00">_setup</text>
</a>
</g>
</g>
<!-- Node1&#45;&gt;Node2 -->
<g id="edge1" class="edge"><title>Node1&#45;&gt;Node2</title>
<path fill="none" stroke="midnightblue" d="M81.0398,-132.565C99.5557,-149.716 130.702,-176.172 162,-192 169.512,-195.799 177.685,-199.096 185.924,-201.937"/>
<polygon fill="midnightblue" stroke="midnightblue" points="83.3645,-129.947 73.69,-125.627 78.5594,-135.037 83.3645,-129.947"/>
</g>
<!-- Node3 -->
<g id="node3" class="node"><title>Node3</title>
<g id="a_node3"><a xlink:href="../../d4/def/weapons_8qc.html#ab7c3acfa47aaf4f25f4775921b6be5ae" target="_top" xlink:title="HUD_Weapons">
<polygon fill="none" stroke="black" points="422,-125.5 422,-144.5 508,-144.5 508,-125.5 422,-125.5"/>
<text text-anchor="middle" x="465" y="-132.5" font-family="Helvetica,sans-Serif" font-size="10.00">HUD_Weapons</text>
</a>
</g>
</g>
<!-- Node1&#45;&gt;Node3 -->
<g id="edge2" class="edge"><title>Node1&#45;&gt;Node3</title>
<path fill="none" stroke="midnightblue" d="M136.215,-119.43C219.557,-123.389 353.835,-129.767 421.754,-132.993"/>
<polygon fill="midnightblue" stroke="midnightblue" points="136.216,-115.926 126.061,-118.948 135.884,-122.919 136.216,-115.926"/>
</g>
<!-- Node4 -->
<g id="node4" class="node"><title>Node4</title>
<g id="a_node4"><a xlink:href="../../df/d8c/cl__cmd_8qc.html#aefa88bf5523ddb9a16c2de624306cd11" target="_top" xlink:title="LocalCommand_sendcvar">
<polygon fill="none" stroke="black" points="186,-163.5 186,-182.5 316,-182.5 316,-163.5 186,-163.5"/>
<text text-anchor="middle" x="251" y="-170.5" font-family="Helvetica,sans-Serif" font-size="10.00">LocalCommand_sendcvar</text>
</a>
</g>
</g>
<!-- Node1&#45;&gt;Node4 -->
<g id="edge3" class="edge"><title>Node1&#45;&gt;Node4</title>
<path fill="none" stroke="midnightblue" d="M100.36,-128.809C118.752,-135.144 141.473,-142.751 162,-149 178.664,-154.073 197.255,-159.218 213.04,-163.436"/>
<polygon fill="midnightblue" stroke="midnightblue" points="101.496,-125.498 90.9008,-125.532 99.2041,-132.113 101.496,-125.498"/>
</g>
<!-- Node6 -->
<g id="node6" class="node"><title>Node6</title>
<g id="a_node6"><a xlink:href="../../d2/d1c/weapons_2weapon_8qh.html#a01fb8b4722cd9503ad28af6600e7e18c" target="_top" xlink:title="W_FixWeaponOrder_ForceComplete">
<polygon fill="none" stroke="black" points="162.5,-87.5 162.5,-106.5 339.5,-106.5 339.5,-87.5 162.5,-87.5"/>
<text text-anchor="middle" x="251" y="-94.5" font-family="Helvetica,sans-Serif" font-size="10.00">W_FixWeaponOrder_ForceComplete</text>
</a>
</g>
</g>
<!-- Node1&#45;&gt;Node6 -->
<g id="edge5" class="edge"><title>Node1&#45;&gt;Node6</title>
<path fill="none" stroke="midnightblue" d="M136.148,-108.63C144.742,-107.752 153.586,-106.849 162.367,-105.952"/>
<polygon fill="midnightblue" stroke="midnightblue" points="135.786,-105.149 126.194,-109.647 136.498,-112.112 135.786,-105.149"/>
</g>
<!-- Node14 -->
<g id="node14" class="node"><title>Node14</title>
<g id="a_node14"><a xlink:href="../../d8/df3/weaponslist_8qc.html#ad576d15e8804939666948de29a2c60d6" target="_top" xlink:title="XonoticWeaponsList_draw">
<polygon fill="none" stroke="black" points="184.5,-49.5 184.5,-68.5 317.5,-68.5 317.5,-49.5 184.5,-49.5"/>
<text text-anchor="middle" x="251" y="-56.5" font-family="Helvetica,sans-Serif" font-size="10.00">XonoticWeaponsList_draw</text>
</a>
</g>
</g>
<!-- Node1&#45;&gt;Node14 -->
<g id="edge14" class="edge"><title>Node1&#45;&gt;Node14</title>
<path fill="none" stroke="midnightblue" d="M95.2107,-102.449C114.249,-94.5484 139.226,-84.8277 162,-78 173.977,-74.4092 187.062,-71.2072 199.393,-68.5016"/>
<polygon fill="midnightblue" stroke="midnightblue" points="93.7008,-99.2869 85.8392,-106.389 96.4141,-105.74 93.7008,-99.2869"/>
</g>
<!-- Node15 -->
<g id="node15" class="node"><title>Node15</title>
<g id="a_node15"><a xlink:href="../../d8/df3/weaponslist_8qc.html#ae5c9433e0b99f44b5a67fccba50c67ad" target="_top" xlink:title="XonoticWeaponsList\l_toString">
<polygon fill="none" stroke="black" points="197.5,-0 197.5,-30 304.5,-30 304.5,-0 197.5,-0"/>
<text text-anchor="start" x="205.5" y="-18" font-family="Helvetica,sans-Serif" font-size="10.00">XonoticWeaponsList</text>
<text text-anchor="middle" x="251" y="-7" font-family="Helvetica,sans-Serif" font-size="10.00">_toString</text>
</a>
</g>
</g>
<!-- Node1&#45;&gt;Node15 -->
<g id="edge15" class="edge"><title>Node1&#45;&gt;Node15</title>
<path fill="none" stroke="midnightblue" d="M81.0398,-99.4348C99.5557,-82.2843 130.702,-55.8278 162,-40 172.913,-34.481 185.223,-30.0202 197.101,-26.4805"/>
<polygon fill="midnightblue" stroke="midnightblue" points="78.5594,-96.9631 73.69,-106.373 83.3645,-102.053 78.5594,-96.9631"/>
</g>
<!-- Node5 -->
<g id="node5" class="node"><title>Node5</title>
<g id="a_node5"><a xlink:href="../../df/d8c/cl__cmd_8qc.html#ac6ad4f76e1fab870cd7b34e038a0a6c0" target="_top" xlink:title="CLIENT_COMMAND">
<polygon fill="none" stroke="black" points="409.5,-163.5 409.5,-182.5 520.5,-182.5 520.5,-163.5 409.5,-163.5"/>
<text text-anchor="middle" x="465" y="-170.5" font-family="Helvetica,sans-Serif" font-size="10.00">CLIENT_COMMAND</text>
</a>
</g>
</g>
<!-- Node4&#45;&gt;Node5 -->
<g id="edge4" class="edge"><title>Node4&#45;&gt;Node5</title>
<path fill="none" stroke="midnightblue" d="M326.472,-173C353.757,-173 384.107,-173 409.34,-173"/>
<polygon fill="midnightblue" stroke="midnightblue" points="326.182,-169.5 316.182,-173 326.182,-176.5 326.182,-169.5"/>
</g>
<!-- Node6&#45;&gt;Node3 -->
<g id="edge6" class="edge"><title>Node6&#45;&gt;Node3</title>
<path fill="none" stroke="midnightblue" d="M315.189,-108.326C349.619,-114.498 391.292,-121.967 421.77,-127.43"/>
<polygon fill="midnightblue" stroke="midnightblue" points="315.684,-104.859 305.223,-106.54 314.448,-111.749 315.684,-104.859"/>
</g>
<!-- Node7 -->
<g id="node7" class="node"><title>Node7</title>
<g id="a_node7"><a xlink:href="../../dc/dc6/server_2miscfunctions_8qc.html#aa4ac3dd1f661621de6a9f2bf5e6fb289" target="_top" xlink:title="W_FixWeaponOrder_ForceComplete\l_AndBuildImpulseList">
<polygon fill="none" stroke="black" points="376.5,-76 376.5,-106 553.5,-106 553.5,-76 376.5,-76"/>
<text text-anchor="start" x="384.5" y="-94" font-family="Helvetica,sans-Serif" font-size="10.00">W_FixWeaponOrder_ForceComplete</text>
<text text-anchor="middle" x="465" y="-83" font-family="Helvetica,sans-Serif" font-size="10.00">_AndBuildImpulseList</text>
</a>
</g>
</g>
<!-- Node6&#45;&gt;Node7 -->
<g id="edge7" class="edge"><title>Node6&#45;&gt;Node7</title>
<path fill="none" stroke="midnightblue" d="M350.01,-94.2261C358.783,-93.9778 367.629,-93.7275 376.307,-93.4819"/>
<polygon fill="midnightblue" stroke="midnightblue" points="349.656,-90.7347 339.759,-94.5163 349.854,-97.7319 349.656,-90.7347"/>
</g>
<!-- Node8 -->
<g id="node8" class="node"><title>Node8</title>
<g id="a_node8"><a xlink:href="../../dc/dc6/server_2miscfunctions_8qc.html#a0c3e39f09e87691055f24898270c60fc" target="_top" xlink:title="GetCvars">
<polygon fill="none" stroke="black" points="590.5,-81.5 590.5,-100.5 649.5,-100.5 649.5,-81.5 590.5,-81.5"/>
<text text-anchor="middle" x="620" y="-88.5" font-family="Helvetica,sans-Serif" font-size="10.00">GetCvars</text>
</a>
</g>
</g>
<!-- Node7&#45;&gt;Node8 -->
<g id="edge8" class="edge"><title>Node7&#45;&gt;Node8</title>
<path fill="none" stroke="midnightblue" d="M563.777,-91C573.334,-91 582.411,-91 590.341,-91"/>
<polygon fill="midnightblue" stroke="midnightblue" points="563.67,-87.5001 553.67,-91 563.67,-94.5001 563.67,-87.5001"/>
</g>
<!-- Node9 -->
<g id="node9" class="node"><title>Node9</title>
<g id="a_node9"><a xlink:href="../../d8/d1d/cmd_8qc.html#a0f2b9dadcca7d1430005c2ac984b79f4" target="_top" xlink:title="ClientCommand_sentcvar">
<polygon fill="none" stroke="black" points="686,-119.5 686,-138.5 816,-138.5 816,-119.5 686,-119.5"/>
<text text-anchor="middle" x="751" y="-126.5" font-family="Helvetica,sans-Serif" font-size="10.00">ClientCommand_sentcvar</text>
</a>
</g>
</g>
<!-- Node8&#45;&gt;Node9 -->
<g id="edge9" class="edge"><title>Node8&#45;&gt;Node9</title>
<path fill="none" stroke="midnightblue" d="M659.471,-102.333C677.906,-107.763 699.748,-114.197 717.359,-119.385"/>
<polygon fill="midnightblue" stroke="midnightblue" points="660.211,-98.9018 649.629,-99.4334 658.233,-105.617 660.211,-98.9018"/>
</g>
<!-- Node10 -->
<g id="node10" class="node"><title>Node10</title>
<g id="a_node10"><a xlink:href="../../d8/de2/server_2client_8qh.html#afc32312bf25df126b18e078bedab7837" target="_top" xlink:title="ClientState_attach">
<polygon fill="none" stroke="black" points="702,-81.5 702,-100.5 800,-100.5 800,-81.5 702,-81.5"/>
<text text-anchor="middle" x="751" y="-88.5" font-family="Helvetica,sans-Serif" font-size="10.00">ClientState_attach</text>
</a>
</g>
</g>
<!-- Node8&#45;&gt;Node10 -->
<g id="edge10" class="edge"><title>Node8&#45;&gt;Node10</title>
<path fill="none" stroke="midnightblue" d="M659.83,-91C673.079,-91 688.054,-91 701.939,-91"/>
<polygon fill="midnightblue" stroke="midnightblue" points="659.629,-87.5001 649.629,-91 659.629,-94.5001 659.629,-87.5001"/>
</g>
<!-- Node12 -->
<g id="node12" class="node"><title>Node12</title>
<g id="a_node12"><a xlink:href="../../db/d9f/state_8qh.html#ae17cd2d1c2291942edc23455fc1db486" target="_top" xlink:title="ClientState_detach">
<polygon fill="none" stroke="black" points="701,-43.5 701,-62.5 801,-62.5 801,-43.5 701,-43.5"/>
<text text-anchor="middle" x="751" y="-50.5" font-family="Helvetica,sans-Serif" font-size="10.00">ClientState_detach</text>
</a>
</g>
</g>
<!-- Node8&#45;&gt;Node12 -->
<g id="edge12" class="edge"><title>Node8&#45;&gt;Node12</title>
<path fill="none" stroke="midnightblue" d="M659.471,-79.6673C677.906,-74.2371 699.748,-67.8028 717.359,-62.6151"/>
<polygon fill="midnightblue" stroke="midnightblue" points="658.233,-76.3834 649.629,-82.5666 660.211,-83.0982 658.233,-76.3834"/>
</g>
<!-- Node11 -->
<g id="node11" class="node"><title>Node11</title>
<g id="a_node11"><a xlink:href="../../d1/d37/classClient.html#ae51af7aa6b8f591496a8f6a4a87a14bf" target="_top" xlink:title="Client::Client">
<polygon fill="none" stroke="black" points="861,-81.5 861,-100.5 935,-100.5 935,-81.5 861,-81.5"/>
<text text-anchor="middle" x="898" y="-88.5" font-family="Helvetica,sans-Serif" font-size="10.00">Client::Client</text>
</a>
</g>
</g>
<!-- Node10&#45;&gt;Node11 -->
<g id="edge11" class="edge"><title>Node10&#45;&gt;Node11</title>
<path fill="none" stroke="midnightblue" d="M810.684,-91C827.662,-91 845.69,-91 860.854,-91"/>
<polygon fill="midnightblue" stroke="midnightblue" points="810.283,-87.5001 800.283,-91 810.283,-94.5001 810.283,-87.5001"/>
</g>
<!-- Node13 -->
<g id="node13" class="node"><title>Node13</title>
<g id="a_node13"><a xlink:href="../../df/dd7/server_2client_8qc.html#a159c579f136a76f2364b031fd3246182" target="_top" xlink:title="ClientDisconnect">
<polygon fill="none" stroke="black" points="852,-43.5 852,-62.5 944,-62.5 944,-43.5 852,-43.5"/>
<text text-anchor="middle" x="898" y="-50.5" font-family="Helvetica,sans-Serif" font-size="10.00">ClientDisconnect</text>
</a>
</g>
</g>
<!-- Node12&#45;&gt;Node13 -->
<g id="edge13" class="edge"><title>Node12&#45;&gt;Node13</title>
<path fill="none" stroke="midnightblue" d="M811.293,-53C824.841,-53 839.025,-53 851.866,-53"/>
<polygon fill="midnightblue" stroke="midnightblue" points="811.09,-49.5001 801.09,-53 811.09,-56.5001 811.09,-49.5001"/>
</g>
</g>
</svg>
        <g id="navigator" transform="translate(0 0)" fill="#404254">
                <rect fill="#f2f5e9" fill-opacity="0.5" stroke="#606060" stroke-width=".5" x="0" y="0" width="60" height="60"/>
                <use id="zoomplus" xlink:href="#zoomPlus" x="17" y="9" onmousedown="handleZoom(evt,'in')"/>
                <use id="zoomminus" xlink:href="#zoomMin" x="42" y="9" onmousedown="handleZoom(evt,'out')"/>
                <use id="reset" xlink:href="#resetDef" x="30" y="36" onmousedown="handleReset()"/>
                <g id="arrowUp" xlink:href="#dirArrow" transform="translate(30 24)" onmousedown="handlePan(0,-1)">
                  <use xlink:href="#rim" fill="#404040">
                        <set attributeName="fill" to="#808080" begin="arrowUp.mouseover" end="arrowUp.mouseout"/>
                  </use>
                  <path fill="none" stroke="white" stroke-width="1.5" d="M0,-3.0v7 M-2.5,-0.5L0,-3.0L2.5,-0.5"/>
                </g>
                <g id="arrowRight" xlink:href="#dirArrow" transform="rotate(90) translate(36 -43)" onmousedown="handlePan(1,0)">
                  <use xlink:href="#rim" fill="#404040">
                        <set attributeName="fill" to="#808080" begin="arrowRight.mouseover" end="arrowRight.mouseout"/>
                  </use>
                  <path fill="none" stroke="white" stroke-width="1.5" d="M0,-3.0v7 M-2.5,-0.5L0,-3.0L2.5,-0.5"/>
                </g>
                <g id="arrowDown" xlink:href="#dirArrow" transform="rotate(180) translate(-30 -48)" onmousedown="handlePan(0,1)">
                  <use xlink:href="#rim" fill="#404040">
                        <set attributeName="fill" to="#808080" begin="arrowDown.mouseover" end="arrowDown.mouseout"/>
                  </use>
                  <path fill="none" stroke="white" stroke-width="1.5" d="M0,-3.0v7 M-2.5,-0.5L0,-3.0L2.5,-0.5"/>
                </g>
                <g id="arrowLeft" xlink:href="#dirArrow" transform="rotate(270) translate(-36 17)" onmousedown="handlePan(-1,0)">
                  <use xlink:href="#rim" fill="#404040">
                        <set attributeName="fill" to="#808080" begin="arrowLeft.mouseover" end="arrowLeft.mouseout"/>
                  </use>
                  <path fill="none" stroke="white" stroke-width="1.5" d="M0,-3.0v7 M-2.5,-0.5L0,-3.0L2.5,-0.5"/>
                </g>
        </g>
        <svg viewBox="0 0 15 15" width="100%" height="30px" preserveAspectRatio="xMaxYMin meet">
         <g id="arrow_out" transform="scale(0.3 0.3)">
          <a xlink:href="weapons_2weapon_8qh_a68c8b4f04f6cf4bd80ef078f2bea8d16_icgraph_org.svg" target="_base">
           <rect id="button" ry="5" rx="5" y="6" x="6" height="38" width="38"
                fill="#f2f5e9" fill-opacity="0.5" stroke="#606060" stroke-width="1.0"/>
           <path id="arrow"
             d="M 11.500037,31.436501 C 11.940474,20.09759 22.043105,11.32322 32.158766,21.979434 L 37.068811,17.246167 C 37.068811,17.246167 37.088388,32 37.088388,32 L 22.160133,31.978069 C 22.160133,31.978069 26.997745,27.140456 26.997745,27.140456 C 18.528582,18.264221 13.291696,25.230495 11.500037,31.436501 z"
             style="fill:#404040;"/>
          </a>
         </g>
        </svg>
</svg>
