<?xml version="1.0" encoding="UTF-8" standalone="no"?>
<!DOCTYPE svg PUBLIC "-//W3C//DTD SVG 1.1//EN"
 "http://www.w3.org/Graphics/SVG/1.1/DTD/svg11.dtd">
<!-- Generated by graphviz version 2.40.1 (20161225.0304)
 -->
<!-- Title: round_handler_Spawn Pages: 1 -->
<svg width="593pt" height="180pt"
 viewBox="0.00 0.00 593.00 180.00" xmlns="http://www.w3.org/2000/svg" xmlns:xlink="http://www.w3.org/1999/xlink">
<g id="graph0" class="graph" transform="scale(1 1) rotate(0) translate(4 176)">
<title>round_handler_Spawn</title>
<!-- Node259 -->
<g id="node1" class="node">
<title>Node259</title>
<polygon fill="#bfbfbf" stroke="#000000" points="0,-76.5 0,-95.5 124,-95.5 124,-76.5 0,-76.5"/>
<text text-anchor="middle" x="62" y="-83.5" font-family="Helvetica,sans-Serif" font-size="10.00" fill="#000000">round_handler_Spawn</text>
</g>
<!-- Node260 -->
<g id="node2" class="node">
<title>Node260</title>
<g id="a_node2"><a xlink:href="../../d3/de3/sv__domination_8qc.html#a0fdb17e4b1e3d53180305c2e6e355276" target="_top" xlink:title="dom_DelayedInit">
<polygon fill="none" stroke="#000000" points="169.5,-152.5 169.5,-171.5 269.5,-171.5 269.5,-152.5 169.5,-152.5"/>
<text text-anchor="middle" x="219.5" y="-159.5" font-family="Helvetica,sans-Serif" font-size="10.00" fill="#000000">dom_DelayedInit</text>
</a>
</g>
</g>
<!-- Node259&#45;&gt;Node260 -->
<g id="edge1" class="edge">
<title>Node259&#45;&gt;Node260</title>
<path fill="none" stroke="#191970" d="M84.5316,-101.0087C103.928,-113.4577 132.9796,-130.9999 160,-143 167.9283,-146.5211 176.7119,-149.6969 185.0421,-152.3995"/>
<polygon fill="#191970" stroke="#191970" points="86.3806,-98.0362 76.089,-95.5195 82.5649,-103.9048 86.3806,-98.0362"/>
</g>
<!-- Node263 -->
<g id="node5" class="node">
<title>Node263</title>
<g id="a_node5"><a xlink:href="../../d7/d2d/sv__freezetag_8qh.html#a93dbe70f6f5e8c7e42c436e77d0d3348" target="_top" xlink:title="freezetag_Initialize">
<polygon fill="none" stroke="#000000" points="164.5,-114.5 164.5,-133.5 274.5,-133.5 274.5,-114.5 164.5,-114.5"/>
<text text-anchor="middle" x="219.5" y="-121.5" font-family="Helvetica,sans-Serif" font-size="10.00" fill="#000000">freezetag_Initialize</text>
</a>
</g>
</g>
<!-- Node259&#45;&gt;Node263 -->
<g id="edge4" class="edge">
<title>Node259&#45;&gt;Node263</title>
<path fill="none" stroke="#191970" d="M111.6041,-97.968C133.6753,-103.2931 159.3027,-109.4762 180.0419,-114.4799"/>
<polygon fill="#191970" stroke="#191970" points="112.2859,-94.5321 101.7439,-95.589 110.6441,-101.3369 112.2859,-94.5321"/>
</g>
<!-- Node265 -->
<g id="node7" class="node">
<title>Node265</title>
<g id="a_node7"><a xlink:href="../../db/da5/sv__invasion_8qc.html#a236fd86093117aeb98743e15f440f9d3" target="_top" xlink:title="invasion_DelayedInit">
<polygon fill="none" stroke="#000000" points="160,-76.5 160,-95.5 279,-95.5 279,-76.5 160,-76.5"/>
<text text-anchor="middle" x="219.5" y="-83.5" font-family="Helvetica,sans-Serif" font-size="10.00" fill="#000000">invasion_DelayedInit</text>
</a>
</g>
</g>
<!-- Node259&#45;&gt;Node265 -->
<g id="edge6" class="edge">
<title>Node259&#45;&gt;Node265</title>
<path fill="none" stroke="#191970" d="M134.4899,-86C142.9474,-86 151.5017,-86 159.7595,-86"/>
<polygon fill="#191970" stroke="#191970" points="134.2482,-82.5001 124.2482,-86 134.2481,-89.5001 134.2482,-82.5001"/>
</g>
<!-- Node268 -->
<g id="node10" class="node">
<title>Node268</title>
<g id="a_node10"><a xlink:href="../../d0/de4/sv__onslaught_8qc.html#a60f84a81d6901268f0cc3a4138813956" target="_top" xlink:title="ons_DelayedInit">
<polygon fill="none" stroke="#000000" points="172,-38.5 172,-57.5 267,-57.5 267,-38.5 172,-38.5"/>
<text text-anchor="middle" x="219.5" y="-45.5" font-family="Helvetica,sans-Serif" font-size="10.00" fill="#000000">ons_DelayedInit</text>
</a>
</g>
</g>
<!-- Node259&#45;&gt;Node268 -->
<g id="edge9" class="edge">
<title>Node259&#45;&gt;Node268</title>
<path fill="none" stroke="#191970" d="M111.6041,-74.032C133.6753,-68.7069 159.3027,-62.5238 180.0419,-57.5201"/>
<polygon fill="#191970" stroke="#191970" points="110.6441,-70.6631 101.7439,-76.411 112.2859,-77.4679 110.6441,-70.6631"/>
</g>
<!-- Node271 -->
<g id="node13" class="node">
<title>Node271</title>
<g id="a_node13"><a xlink:href="../../d1/dbf/sv__clanarena_8qh.html#abc82708949d45746dfb807463502eeac" target="_top" xlink:title="REGISTER_MUTATOR">
<polygon fill="none" stroke="#000000" points="161,-.5 161,-19.5 278,-19.5 278,-.5 161,-.5"/>
<text text-anchor="middle" x="219.5" y="-7.5" font-family="Helvetica,sans-Serif" font-size="10.00" fill="#000000">REGISTER_MUTATOR</text>
</a>
</g>
</g>
<!-- Node259&#45;&gt;Node271 -->
<g id="edge12" class="edge">
<title>Node259&#45;&gt;Node271</title>
<path fill="none" stroke="#191970" d="M84.5316,-70.9913C103.928,-58.5423 132.9796,-41.0001 160,-29 167.9283,-25.4789 176.7119,-22.3031 185.0421,-19.6005"/>
<polygon fill="#191970" stroke="#191970" points="82.5649,-68.0952 76.089,-76.4805 86.3806,-73.9638 82.5649,-68.0952"/>
</g>
<!-- Node261 -->
<g id="node3" class="node">
<title>Node261</title>
<g id="a_node3"><a xlink:href="../../da/de5/sv__domination_8qh.html#a8cec3b44ab39bf059c106e3d145e5091" target="_top" xlink:title="dom_Initialize">
<polygon fill="none" stroke="#000000" points="330.5,-152.5 330.5,-171.5 416.5,-171.5 416.5,-152.5 330.5,-152.5"/>
<text text-anchor="middle" x="373.5" y="-159.5" font-family="Helvetica,sans-Serif" font-size="10.00" fill="#000000">dom_Initialize</text>
</a>
</g>
</g>
<!-- Node260&#45;&gt;Node261 -->
<g id="edge2" class="edge">
<title>Node260&#45;&gt;Node261</title>
<path fill="none" stroke="#191970" d="M280.2126,-162C297.0082,-162 314.8873,-162 330.4521,-162"/>
<polygon fill="#191970" stroke="#191970" points="279.9254,-158.5001 269.9254,-162 279.9253,-165.5001 279.9254,-158.5001"/>
</g>
<!-- Node262 -->
<g id="node4" class="node">
<title>Node262</title>
<g id="a_node4"><a xlink:href="../../da/de5/sv__domination_8qh.html#a9f495b32344f6e3748615e42afa49971" target="_top" xlink:title="REGISTER_MUTATOR">
<polygon fill="none" stroke="#000000" points="468,-152.5 468,-171.5 585,-171.5 585,-152.5 468,-152.5"/>
<text text-anchor="middle" x="526.5" y="-159.5" font-family="Helvetica,sans-Serif" font-size="10.00" fill="#000000">REGISTER_MUTATOR</text>
</a>
</g>
</g>
<!-- Node261&#45;&gt;Node262 -->
<g id="edge3" class="edge">
<title>Node261&#45;&gt;Node262</title>
<path fill="none" stroke="#191970" d="M426.8807,-162C440.1068,-162 454.3504,-162 467.8145,-162"/>
<polygon fill="#191970" stroke="#191970" points="426.5262,-158.5001 416.5262,-162 426.5262,-165.5001 426.5262,-158.5001"/>
</g>
<!-- Node264 -->
<g id="node6" class="node">
<title>Node264</title>
<g id="a_node6"><a xlink:href="../../d7/d2d/sv__freezetag_8qh.html#a135a5720e453dd7582a0e9b98e739cb9" target="_top" xlink:title="REGISTER_MUTATOR">
<polygon fill="none" stroke="#000000" points="315,-114.5 315,-133.5 432,-133.5 432,-114.5 315,-114.5"/>
<text text-anchor="middle" x="373.5" y="-121.5" font-family="Helvetica,sans-Serif" font-size="10.00" fill="#000000">REGISTER_MUTATOR</text>
</a>
</g>
</g>
<!-- Node263&#45;&gt;Node264 -->
<g id="edge5" class="edge">
<title>Node263&#45;&gt;Node264</title>
<path fill="none" stroke="#191970" d="M284.8949,-124C294.8331,-124 305.0352,-124 314.8184,-124"/>
<polygon fill="#191970" stroke="#191970" points="284.6626,-120.5001 274.6626,-124 284.6625,-127.5001 284.6626,-120.5001"/>
</g>
<!-- Node266 -->
<g id="node8" class="node">
<title>Node266</title>
<g id="a_node8"><a xlink:href="../../d2/db1/sv__invasion_8qh.html#a25529cc1c6aba9e850432cf8d26a5e93" target="_top" xlink:title="invasion_Initialize">
<polygon fill="none" stroke="#000000" points="321,-76.5 321,-95.5 426,-95.5 426,-76.5 321,-76.5"/>
<text text-anchor="middle" x="373.5" y="-83.5" font-family="Helvetica,sans-Serif" font-size="10.00" fill="#000000">invasion_Initialize</text>
</a>
</g>
</g>
<!-- Node265&#45;&gt;Node266 -->
<g id="edge7" class="edge">
<title>Node265&#45;&gt;Node266</title>
<path fill="none" stroke="#191970" d="M289.1135,-86C299.7076,-86 310.49,-86 320.6484,-86"/>
<polygon fill="#191970" stroke="#191970" points="289.0405,-82.5001 279.0404,-86 289.0404,-89.5001 289.0405,-82.5001"/>
</g>
<!-- Node267 -->
<g id="node9" class="node">
<title>Node267</title>
<g id="a_node9"><a xlink:href="../../d2/db1/sv__invasion_8qh.html#a6879a53e956f0f1fd079b3015609a852" target="_top" xlink:title="REGISTER_MUTATOR">
<polygon fill="none" stroke="#000000" points="468,-76.5 468,-95.5 585,-95.5 585,-76.5 468,-76.5"/>
<text text-anchor="middle" x="526.5" y="-83.5" font-family="Helvetica,sans-Serif" font-size="10.00" fill="#000000">REGISTER_MUTATOR</text>
</a>
</g>
</g>
<!-- Node266&#45;&gt;Node267 -->
<g id="edge8" class="edge">
<title>Node266&#45;&gt;Node267</title>
<path fill="none" stroke="#191970" d="M436.4434,-86C446.8787,-86 457.6617,-86 467.9819,-86"/>
<polygon fill="#191970" stroke="#191970" points="436.154,-82.5001 426.1539,-86 436.1539,-89.5001 436.154,-82.5001"/>
</g>
<!-- Node269 -->
<g id="node11" class="node">
<title>Node269</title>
<g id="a_node11"><a xlink:href="../../d7/dd0/sv__onslaught_8qh.html#a9d2ee66e4d6dc89a52f994e45d589222" target="_top" xlink:title="ons_Initialize">
<polygon fill="none" stroke="#000000" points="333,-38.5 333,-57.5 414,-57.5 414,-38.5 333,-38.5"/>
<text text-anchor="middle" x="373.5" y="-45.5" font-family="Helvetica,sans-Serif" font-size="10.00" fill="#000000">ons_Initialize</text>
</a>
</g>
</g>
<!-- Node268&#45;&gt;Node269 -->
<g id="edge10" class="edge">
<title>Node268&#45;&gt;Node269</title>
<path fill="none" stroke="#191970" d="M277.452,-48C295.9189,-48 315.9455,-48 332.9093,-48"/>
<polygon fill="#191970" stroke="#191970" points="277.3824,-44.5001 267.3824,-48 277.3824,-51.5001 277.3824,-44.5001"/>
</g>
<!-- Node270 -->
<g id="node12" class="node">
<title>Node270</title>
<g id="a_node12"><a xlink:href="../../d7/dd0/sv__onslaught_8qh.html#a7cfc86894dfd752288cc5ca2c507e714" target="_top" xlink:title="REGISTER_MUTATOR">
<polygon fill="none" stroke="#000000" points="468,-38.5 468,-57.5 585,-57.5 585,-38.5 468,-38.5"/>
<text text-anchor="middle" x="526.5" y="-45.5" font-family="Helvetica,sans-Serif" font-size="10.00" fill="#000000">REGISTER_MUTATOR</text>
</a>
</g>
</g>
<!-- Node269&#45;&gt;Node270 -->
<g id="edge11" class="edge">
<title>Node269&#45;&gt;Node270</title>
<path fill="none" stroke="#191970" d="M424.4533,-48C438.3641,-48 453.5481,-48 467.8504,-48"/>
<polygon fill="#191970" stroke="#191970" points="424.0995,-44.5001 414.0995,-48 424.0995,-51.5001 424.0995,-44.5001"/>
</g>
</g>
</svg>
