<?xml version="1.0" encoding="UTF-8" standalone="no"?>
<!DOCTYPE svg PUBLIC "-//W3C//DTD SVG 1.1//EN"
 "http://www.w3.org/Graphics/SVG/1.1/DTD/svg11.dtd">
<!-- Generated by graphviz version 2.36.0 (20140111.2315)
 -->
<!-- Title: server/pathlib/utility.qh Pages: 1 -->
<svg width="705pt" height="196pt"
 viewBox="0.00 0.00 705.00 196.00" xmlns="http://www.w3.org/2000/svg" xmlns:xlink="http://www.w3.org/1999/xlink">
<g id="graph0" class="graph" transform="scale(1 1) rotate(0) translate(4 192)">
<title>server/pathlib/utility.qh</title>
<!-- Node1 -->
<g id="node1" class="node"><title>Node1</title>
<polygon fill="#bfbfbf" stroke="black" points="285.5,-168.5 285.5,-187.5 400.5,-187.5 400.5,-168.5 285.5,-168.5"/>
<text text-anchor="middle" x="343" y="-175.5" font-family="Helvetica,sans-Serif" font-size="10.00">server/pathlib/utility.qh</text>
</g>
<!-- Node2 -->
<g id="node2" class="node"><title>Node2</title>
<g id="a_node2"><a xlink:href="../../d1/dc9/expandnode_8qc.html" target="_top" xlink:title="server/pathlib/expandnode.qc">
<polygon fill="none" stroke="black" points="419,-112.5 419,-131.5 563,-131.5 563,-112.5 419,-112.5"/>
<text text-anchor="middle" x="491" y="-119.5" font-family="Helvetica,sans-Serif" font-size="10.00">server/pathlib/expandnode.qc</text>
</a>
</g>
</g>
<!-- Node1&#45;&gt;Node2 -->
<g id="edge1" class="edge"><title>Node1&#45;&gt;Node2</title>
<path fill="none" stroke="midnightblue" d="M376.147,-164.906C403.972,-154.754 443.02,-140.506 467.659,-131.516"/>
<polygon fill="midnightblue" stroke="midnightblue" points="374.646,-161.728 366.451,-168.444 377.045,-168.304 374.646,-161.728"/>
</g>
<!-- Node6 -->
<g id="node6" class="node"><title>Node6</title>
<g id="a_node6"><a xlink:href="../../df/d4c/server_2pathlib_2main_8qc.html" target="_top" xlink:title="server/pathlib/main.qc">
<polygon fill="none" stroke="black" points="-0.5,-112.5 -0.5,-131.5 112.5,-131.5 112.5,-112.5 -0.5,-112.5"/>
<text text-anchor="middle" x="56" y="-119.5" font-family="Helvetica,sans-Serif" font-size="10.00">server/pathlib/main.qc</text>
</a>
</g>
</g>
<!-- Node1&#45;&gt;Node6 -->
<g id="edge5" class="edge"><title>Node1&#45;&gt;Node6</title>
<path fill="none" stroke="midnightblue" d="M287.392,-166.537C233.151,-156.332 151.662,-140.999 101.263,-131.516"/>
<polygon fill="midnightblue" stroke="midnightblue" points="287.049,-170.034 297.524,-168.444 288.344,-163.155 287.049,-170.034"/>
</g>
<!-- Node7 -->
<g id="node7" class="node"><title>Node7</title>
<g id="a_node7"><a xlink:href="../../d5/d53/movenode_8qc.html" target="_top" xlink:title="server/pathlib/movenode.qc">
<polygon fill="none" stroke="black" points="130.5,-112.5 130.5,-131.5 267.5,-131.5 267.5,-112.5 130.5,-112.5"/>
<text text-anchor="middle" x="199" y="-119.5" font-family="Helvetica,sans-Serif" font-size="10.00">server/pathlib/movenode.qc</text>
</a>
</g>
</g>
<!-- Node1&#45;&gt;Node7 -->
<g id="edge8" class="edge"><title>Node1&#45;&gt;Node7</title>
<path fill="none" stroke="midnightblue" d="M310.749,-164.906C283.676,-154.754 245.683,-140.506 221.71,-131.516"/>
<polygon fill="midnightblue" stroke="midnightblue" points="309.591,-168.209 320.183,-168.444 312.048,-161.655 309.591,-168.209"/>
</g>
<!-- Node8 -->
<g id="node8" class="node"><title>Node8</title>
<g id="a_node8"><a xlink:href="../../dd/d1e/utility_8qc.html" target="_top" xlink:title="server/pathlib/utility.qc">
<polygon fill="none" stroke="black" points="285.5,-112.5 285.5,-131.5 400.5,-131.5 400.5,-112.5 285.5,-112.5"/>
<text text-anchor="middle" x="343" y="-119.5" font-family="Helvetica,sans-Serif" font-size="10.00">server/pathlib/utility.qc</text>
</a>
</g>
</g>
<!-- Node1&#45;&gt;Node8 -->
<g id="edge11" class="edge"><title>Node1&#45;&gt;Node8</title>
<path fill="none" stroke="midnightblue" d="M343,-157.805C343,-148.91 343,-138.78 343,-131.751"/>
<polygon fill="midnightblue" stroke="midnightblue" points="339.5,-158.083 343,-168.083 346.5,-158.083 339.5,-158.083"/>
</g>
<!-- Node9 -->
<g id="node9" class="node"><title>Node9</title>
<g id="a_node9"><a xlink:href="../../d2/dd7/server_2pathlib_2__mod_8qh.html" target="_top" xlink:title="server/pathlib/_mod.qh">
<polygon fill="none" stroke="black" points="581,-112.5 581,-131.5 697,-131.5 697,-112.5 581,-112.5"/>
<text text-anchor="middle" x="639" y="-119.5" font-family="Helvetica,sans-Serif" font-size="10.00">server/pathlib/_mod.qh</text>
</a>
</g>
</g>
<!-- Node1&#45;&gt;Node9 -->
<g id="edge14" class="edge"><title>Node1&#45;&gt;Node9</title>
<path fill="none" stroke="midnightblue" d="M400.003,-166.601C455.944,-156.395 540.23,-141.019 592.317,-131.516"/>
<polygon fill="midnightblue" stroke="midnightblue" points="399.112,-163.206 389.902,-168.444 400.368,-170.092 399.112,-163.206"/>
</g>
<!-- Node3 -->
<g id="node3" class="node"><title>Node3</title>
<g id="a_node3"><a xlink:href="../../d9/d86/server_2pathlib_2__all_8inc.html" target="_top" xlink:title="server/pathlib/_all.inc">
<polygon fill="none" stroke="black" points="147.5,-56.5 147.5,-75.5 256.5,-75.5 256.5,-56.5 147.5,-56.5"/>
<text text-anchor="middle" x="202" y="-63.5" font-family="Helvetica,sans-Serif" font-size="10.00">server/pathlib/_all.inc</text>
</a>
</g>
</g>
<!-- Node2&#45;&gt;Node3 -->
<g id="edge2" class="edge"><title>Node2&#45;&gt;Node3</title>
<path fill="none" stroke="midnightblue" d="M435.345,-110.601C380.727,-100.395 298.434,-85.0189 247.579,-75.5164"/>
<polygon fill="midnightblue" stroke="midnightblue" points="434.734,-114.047 445.207,-112.444 436.02,-107.166 434.734,-114.047"/>
</g>
<!-- Node5 -->
<g id="node5" class="node"><title>Node5</title>
<g id="a_node5"><a xlink:href="../../d8/d52/server_2pathlib_2__mod_8inc.html" target="_top" xlink:title="server/pathlib/_mod.inc">
<polygon fill="none" stroke="black" points="281,-56.5 281,-75.5 399,-75.5 399,-56.5 281,-56.5"/>
<text text-anchor="middle" x="340" y="-63.5" font-family="Helvetica,sans-Serif" font-size="10.00">server/pathlib/_mod.inc</text>
</a>
</g>
</g>
<!-- Node2&#45;&gt;Node5 -->
<g id="edge4" class="edge"><title>Node2&#45;&gt;Node5</title>
<path fill="none" stroke="midnightblue" d="M457.554,-109.039C429.142,-98.8786 389.063,-84.5457 363.814,-75.5164"/>
<polygon fill="midnightblue" stroke="midnightblue" points="456.479,-112.372 467.074,-112.444 458.836,-105.781 456.479,-112.372"/>
</g>
<!-- Node4 -->
<g id="node4" class="node"><title>Node4</title>
<g id="a_node4"><a xlink:href="../../dd/d96/server_2progs_8inc.html" target="_top" xlink:title="server/progs.inc">
<polygon fill="none" stroke="black" points="159,-0.5 159,-19.5 245,-19.5 245,-0.5 159,-0.5"/>
<text text-anchor="middle" x="202" y="-7.5" font-family="Helvetica,sans-Serif" font-size="10.00">server/progs.inc</text>
</a>
</g>
</g>
<!-- Node3&#45;&gt;Node4 -->
<g id="edge3" class="edge"><title>Node3&#45;&gt;Node4</title>
<path fill="none" stroke="midnightblue" d="M202,-45.8045C202,-36.9102 202,-26.7798 202,-19.7511"/>
<polygon fill="midnightblue" stroke="midnightblue" points="198.5,-46.083 202,-56.083 205.5,-46.083 198.5,-46.083"/>
</g>
<!-- Node6&#45;&gt;Node3 -->
<g id="edge6" class="edge"><title>Node6&#45;&gt;Node3</title>
<path fill="none" stroke="midnightblue" d="M88.6991,-108.906C116.148,-98.7536 154.668,-84.5063 178.974,-75.5164"/>
<polygon fill="midnightblue" stroke="midnightblue" points="87.299,-105.692 79.1341,-112.444 89.7273,-112.257 87.299,-105.692"/>
</g>
<!-- Node6&#45;&gt;Node5 -->
<g id="edge7" class="edge"><title>Node6&#45;&gt;Node5</title>
<path fill="none" stroke="midnightblue" d="M111.027,-110.537C164.701,-100.332 245.338,-84.9992 295.21,-75.5164"/>
<polygon fill="midnightblue" stroke="midnightblue" points="110.171,-107.137 101.001,-112.444 111.478,-114.014 110.171,-107.137"/>
</g>
<!-- Node7&#45;&gt;Node3 -->
<g id="edge9" class="edge"><title>Node7&#45;&gt;Node3</title>
<path fill="none" stroke="midnightblue" d="M200.066,-101.805C200.561,-92.9102 201.123,-82.7798 201.514,-75.7511"/>
<polygon fill="midnightblue" stroke="midnightblue" points="196.556,-101.904 199.495,-112.083 203.545,-102.293 196.556,-101.904"/>
</g>
<!-- Node7&#45;&gt;Node5 -->
<g id="edge10" class="edge"><title>Node7&#45;&gt;Node5</title>
<path fill="none" stroke="midnightblue" d="M230.929,-108.772C257.414,-98.6287 294.392,-84.4669 317.763,-75.5164"/>
<polygon fill="midnightblue" stroke="midnightblue" points="229.429,-105.599 221.342,-112.444 231.932,-112.136 229.429,-105.599"/>
</g>
<!-- Node8&#45;&gt;Node3 -->
<g id="edge12" class="edge"><title>Node8&#45;&gt;Node3</title>
<path fill="none" stroke="midnightblue" d="M311.071,-108.772C284.586,-98.6287 247.608,-84.4669 224.237,-75.5164"/>
<polygon fill="midnightblue" stroke="midnightblue" points="310.068,-112.136 320.658,-112.444 312.571,-105.599 310.068,-112.136"/>
</g>
<!-- Node8&#45;&gt;Node5 -->
<g id="edge13" class="edge"><title>Node8&#45;&gt;Node5</title>
<path fill="none" stroke="midnightblue" d="M341.934,-101.805C341.439,-92.9102 340.877,-82.7798 340.486,-75.7511"/>
<polygon fill="midnightblue" stroke="midnightblue" points="338.455,-102.293 342.505,-112.083 345.444,-101.904 338.455,-102.293"/>
</g>
</g>
</svg>
