<?xml version="1.0" encoding="UTF-8" standalone="no"?>
<!DOCTYPE svg PUBLIC "-//W3C//DTD SVG 1.1//EN"
 "http://www.w3.org/Graphics/SVG/1.1/DTD/svg11.dtd">
<!-- Generated by graphviz version 2.36.0 (20140111.2315)
 -->
<!-- Title: XonoticLanguageList_drawListBoxItem Pages: 1 -->
<!--zoomable 294 -->
<svg id="main" version="1.1" xmlns="http://www.w3.org/2000/svg" xmlns:xlink="http://www.w3.org/1999/xlink" xml:space="preserve" onload="init(evt)">
<style type="text/css"><![CDATA[
.edge:hover path { stroke: red; }
.edge:hover polygon { stroke: red; fill: red; }
]]></style>
<script type="text/javascript"><![CDATA[
var edges = document.getElementsByTagName('g');
if (edges && edges.length) {
  for (var i=0;i<edges.length;i++) {
    if (edges[i].id.substr(0,4)=='edge') {
      edges[i].setAttribute('class','edge');
    }
  }
}
]]></script>
        <defs>
                <circle id="rim" cx="0" cy="0" r="7"/>
                <circle id="rim2" cx="0" cy="0" r="3.5"/>
                <g id="zoomPlus">
                        <use xlink:href="#rim" fill="#404040">
                                <set attributeName="fill" to="#808080" begin="zoomplus.mouseover" end="zoomplus.mouseout"/>
                        </use>
                        <path d="M-4,0h8M0,-4v8" fill="none" stroke="white" stroke-width="1.5" pointer-events="none"/>
                </g>
                <g id="zoomMin">
                        <use xlink:href="#rim" fill="#404040">
                                <set attributeName="fill" to="#808080" begin="zoomminus.mouseover" end="zoomminus.mouseout"/>
                        </use>
                        <path d="M-4,0h8" fill="none" stroke="white" stroke-width="1.5" pointer-events="none"/>
                </g>
                <g id="dirArrow">
                        <path fill="none" stroke="white" stroke-width="1.5" d="M0,-3.0v7 M-2.5,-0.5L0,-3.0L2.5,-0.5"/>
                </g>
               <g id="resetDef">
                       <use xlink:href="#rim2" fill="#404040">
                               <set attributeName="fill" to="#808080" begin="reset.mouseover" end="reset.mouseout"/>
                       </use>
               </g>
        </defs>

<script type="text/javascript">
var viewWidth = 694;
var viewHeight = 294;
var sectionId = 'dynsection-6';
</script>
<script xlink:href="../../svgpan.js"/>
<svg id="graph" class="graph">
<g id="viewport">
<title>XonoticLanguageList_drawListBoxItem</title>
<!-- Node1 -->
<g id="node1" class="node"><title>Node1</title>
<polygon fill="#bfbfbf" stroke="black" points="0.5,-147 0.5,-177 107.5,-177 107.5,-147 0.5,-147"/>
<text text-anchor="start" x="8.5" y="-165" font-family="Helvetica,sans-Serif" font-size="10.00">XonoticLanguageList</text>
<text text-anchor="middle" x="54" y="-154" font-family="Helvetica,sans-Serif" font-size="10.00">_drawListBoxItem</text>
</g>
<!-- Node2 -->
<g id="node2" class="node"><title>Node2</title>
<g id="a_node2"><a xlink:href="../../d6/db1/draw_8qc.html#a691f7e44410cda1aafcee97868a0d52f" target="_top" xlink:title="draw_CondensedFontFactor">
<polygon fill="none" stroke="black" points="144,-152.5 144,-171.5 284,-171.5 284,-152.5 144,-152.5"/>
<text text-anchor="middle" x="214" y="-159.5" font-family="Helvetica,sans-Serif" font-size="10.00">draw_CondensedFontFactor</text>
</a>
</g>
</g>
<!-- Node1&#45;&gt;Node2 -->
<g id="edge1" class="edge"><title>Node1&#45;&gt;Node2</title>
<path fill="none" stroke="midnightblue" d="M107.612,-162C115.935,-162 124.7,-162 133.474,-162"/>
<polygon fill="midnightblue" stroke="midnightblue" points="133.751,-165.5 143.751,-162 133.751,-158.5 133.751,-165.5"/>
</g>
<!-- Node3 -->
<g id="node3" class="node"><title>Node3</title>
<g id="a_node3"><a xlink:href="../../d6/db1/draw_8qc.html#aa29fccebf6a85e8456bb1b2f86f9edb7" target="_top" xlink:title="draw_TextWidth">
<polygon fill="none" stroke="black" points="320,-152.5 320,-171.5 408,-171.5 408,-152.5 320,-152.5"/>
<text text-anchor="middle" x="364" y="-159.5" font-family="Helvetica,sans-Serif" font-size="10.00">draw_TextWidth</text>
</a>
</g>
</g>
<!-- Node1&#45;&gt;Node3 -->
<g id="edge18" class="edge"><title>Node1&#45;&gt;Node3</title>
<path fill="none" stroke="midnightblue" d="M107.887,-175.198C119.697,-177.61 132.216,-179.756 144,-181 205.878,-187.531 222.211,-188.326 284,-181 296.257,-179.547 309.365,-176.867 321.309,-173.97"/>
<polygon fill="midnightblue" stroke="midnightblue" points="322.192,-177.357 331.025,-171.506 320.471,-170.571 322.192,-177.357"/>
</g>
<!-- Node8 -->
<g id="node8" class="node"><title>Node8</title>
<g id="a_node8"><a xlink:href="../../d6/db1/draw_8qc.html#ae1fc75c93136d527f4c296ce527311da" target="_top" xlink:title="draw_Fill">
<polygon fill="none" stroke="black" points="336,-228.5 336,-247.5 392,-247.5 392,-228.5 336,-228.5"/>
<text text-anchor="middle" x="364" y="-235.5" font-family="Helvetica,sans-Serif" font-size="10.00">draw_Fill</text>
</a>
</g>
</g>
<!-- Node1&#45;&gt;Node8 -->
<g id="edge7" class="edge"><title>Node1&#45;&gt;Node8</title>
<path fill="none" stroke="midnightblue" d="M87.8199,-177.145C104.381,-184.303 124.952,-192.471 144,-198 206.712,-216.204 282.038,-227.802 326.011,-233.585"/>
<polygon fill="midnightblue" stroke="midnightblue" points="325.595,-237.06 335.96,-234.864 326.488,-230.118 325.595,-237.06"/>
</g>
<!-- Node11 -->
<g id="node11" class="node"><title>Node11</title>
<g id="a_node11"><a xlink:href="../../d6/db1/draw_8qc.html#a9317e58388dd0f4801ecd46178a0f334" target="_top" xlink:title="draw_Text">
<polygon fill="none" stroke="black" points="333,-114.5 333,-133.5 395,-133.5 395,-114.5 333,-114.5"/>
<text text-anchor="middle" x="364" y="-121.5" font-family="Helvetica,sans-Serif" font-size="10.00">draw_Text</text>
</a>
</g>
</g>
<!-- Node1&#45;&gt;Node11 -->
<g id="edge11" class="edge"><title>Node1&#45;&gt;Node11</title>
<path fill="none" stroke="midnightblue" d="M107.512,-149.663C119.456,-147.172 132.124,-144.776 144,-143 206.023,-133.725 278.657,-128.529 322.723,-125.996"/>
<polygon fill="midnightblue" stroke="midnightblue" points="322.961,-129.489 332.751,-125.438 322.571,-122.5 322.961,-129.489"/>
</g>
<!-- Node15 -->
<g id="node15" class="node"><title>Node15</title>
<g id="a_node15"><a xlink:href="../../df/d9b/menu_2xonotic_2util_8qc.html#ab82c9c370db86ec43c7e9ef75a7fff6c" target="_top" xlink:title="getFadedAlpha">
<polygon fill="none" stroke="black" points="173,-76.5 173,-95.5 255,-95.5 255,-76.5 173,-76.5"/>
<text text-anchor="middle" x="214" y="-83.5" font-family="Helvetica,sans-Serif" font-size="10.00">getFadedAlpha</text>
</a>
</g>
</g>
<!-- Node1&#45;&gt;Node15 -->
<g id="edge19" class="edge"><title>Node1&#45;&gt;Node15</title>
<path fill="none" stroke="midnightblue" d="M78.1281,-146.809C95.7112,-135.679 120.758,-120.709 144,-110 152.806,-105.943 162.505,-102.168 171.78,-98.87"/>
<polygon fill="midnightblue" stroke="midnightblue" points="172.92,-102.179 181.235,-95.613 170.64,-95.5606 172.92,-102.179"/>
</g>
<!-- Node2&#45;&gt;Node3 -->
<g id="edge2" class="edge"><title>Node2&#45;&gt;Node3</title>
<path fill="none" stroke="midnightblue" d="M284.233,-162C292.803,-162 301.458,-162 309.736,-162"/>
<polygon fill="midnightblue" stroke="midnightblue" points="309.986,-165.5 319.986,-162 309.986,-158.5 309.986,-165.5"/>
</g>
<!-- Node4 -->
<g id="node4" class="node"><title>Node4</title>
<g id="a_node4"><a xlink:href="../../d6/db1/draw_8qc.html#ab8f2b0e7558bdad2ae9d4eadbb278257" target="_top" xlink:title="boxToGlobalSize">
<polygon fill="none" stroke="black" points="453.5,-228.5 453.5,-247.5 544.5,-247.5 544.5,-228.5 453.5,-228.5"/>
<text text-anchor="middle" x="499" y="-235.5" font-family="Helvetica,sans-Serif" font-size="10.00">boxToGlobalSize</text>
</a>
</g>
</g>
<!-- Node3&#45;&gt;Node4 -->
<g id="edge3" class="edge"><title>Node3&#45;&gt;Node4</title>
<path fill="none" stroke="midnightblue" d="M376.096,-171.602C390.797,-183.934 417.92,-205.367 444,-219 447.972,-221.076 452.22,-223.01 456.523,-224.788"/>
<polygon fill="midnightblue" stroke="midnightblue" points="455.359,-228.09 465.948,-228.425 457.879,-221.56 455.359,-228.09"/>
</g>
<!-- Node5 -->
<g id="node5" class="node"><title>Node5</title>
<g id="a_node5"><a xlink:href="../../d6/db1/draw_8qc.html#aae12e9efe4b2ff652987ec77bbb1e82e" target="_top" xlink:title="globalToBoxSize">
<polygon fill="none" stroke="black" points="454,-114.5 454,-133.5 544,-133.5 544,-114.5 454,-114.5"/>
<text text-anchor="middle" x="499" y="-121.5" font-family="Helvetica,sans-Serif" font-size="10.00">globalToBoxSize</text>
</a>
</g>
</g>
<!-- Node3&#45;&gt;Node5 -->
<g id="edge4" class="edge"><title>Node3&#45;&gt;Node5</title>
<path fill="none" stroke="midnightblue" d="M398.562,-152.411C415.573,-147.551 436.432,-141.591 454.645,-136.387"/>
<polygon fill="midnightblue" stroke="midnightblue" points="455.796,-139.699 464.449,-133.586 453.872,-132.968 455.796,-139.699"/>
</g>
<!-- Node6 -->
<g id="node6" class="node"><title>Node6</title>
<g id="a_node6"><a xlink:href="../../dc/d98/client_2miscfunctions_8qc.html#aac033ec101163a655b47a24ceb78bad5" target="_top" xlink:title="stringwidth">
<polygon fill="none" stroke="black" points="467,-152.5 467,-171.5 531,-171.5 531,-152.5 467,-152.5"/>
<text text-anchor="middle" x="499" y="-159.5" font-family="Helvetica,sans-Serif" font-size="10.00">stringwidth</text>
</a>
</g>
</g>
<!-- Node3&#45;&gt;Node6 -->
<g id="edge5" class="edge"><title>Node3&#45;&gt;Node6</title>
<path fill="none" stroke="midnightblue" d="M408.181,-162C423.712,-162 441.185,-162 456.563,-162"/>
<polygon fill="midnightblue" stroke="midnightblue" points="456.825,-165.5 466.825,-162 456.825,-158.5 456.825,-165.5"/>
</g>
<!-- Node7 -->
<g id="node7" class="node"><title>Node7</title>
<g id="a_node7"><a xlink:href="../../d4/d0c/csprogsdefs_8qc.html#a0f275977f6aa5a693742a397723991d0" target="_top" xlink:title="stringwidth_builtin">
<polygon fill="none" stroke="black" points="590.5,-152.5 590.5,-171.5 685.5,-171.5 685.5,-152.5 590.5,-152.5"/>
<text text-anchor="middle" x="638" y="-159.5" font-family="Helvetica,sans-Serif" font-size="10.00">stringwidth_builtin</text>
</a>
</g>
</g>
<!-- Node6&#45;&gt;Node7 -->
<g id="edge6" class="edge"><title>Node6&#45;&gt;Node7</title>
<path fill="none" stroke="midnightblue" d="M531.087,-162C545.601,-162 563.348,-162 580.134,-162"/>
<polygon fill="midnightblue" stroke="midnightblue" points="580.424,-165.5 590.424,-162 580.424,-158.5 580.424,-165.5"/>
</g>
<!-- Node8&#45;&gt;Node4 -->
<g id="edge9" class="edge"><title>Node8&#45;&gt;Node4</title>
<path fill="none" stroke="midnightblue" d="M392.235,-238C406.911,-238 425.561,-238 443.1,-238"/>
<polygon fill="midnightblue" stroke="midnightblue" points="443.26,-241.5 453.26,-238 443.26,-234.5 443.26,-241.5"/>
</g>
<!-- Node9 -->
<g id="node9" class="node"><title>Node9</title>
<g id="a_node9"><a xlink:href="../../d6/db1/draw_8qc.html#ad9ed2a82efe01e29eb48ff32dace86db" target="_top" xlink:title="boxToGlobal">
<polygon fill="none" stroke="black" points="463.5,-190.5 463.5,-209.5 534.5,-209.5 534.5,-190.5 463.5,-190.5"/>
<text text-anchor="middle" x="499" y="-197.5" font-family="Helvetica,sans-Serif" font-size="10.00">boxToGlobal</text>
</a>
</g>
</g>
<!-- Node8&#45;&gt;Node9 -->
<g id="edge8" class="edge"><title>Node8&#45;&gt;Node9</title>
<path fill="none" stroke="midnightblue" d="M392.235,-230.218C410.261,-225.068 434.284,-218.205 454.878,-212.32"/>
<polygon fill="midnightblue" stroke="midnightblue" points="456.018,-215.635 464.672,-209.522 454.095,-208.904 456.018,-215.635"/>
</g>
<!-- Node10 -->
<g id="node10" class="node"><title>Node10</title>
<g id="a_node10"><a xlink:href="../../d8/de2/menudefs_8qc.html#a189158f8c2db3797e9bb00cc53e80988" target="_top" xlink:title="drawfill">
<polygon fill="none" stroke="black" points="475.5,-266.5 475.5,-285.5 522.5,-285.5 522.5,-266.5 475.5,-266.5"/>
<text text-anchor="middle" x="499" y="-273.5" font-family="Helvetica,sans-Serif" font-size="10.00">drawfill</text>
</a>
</g>
</g>
<!-- Node8&#45;&gt;Node10 -->
<g id="edge10" class="edge"><title>Node8&#45;&gt;Node10</title>
<path fill="none" stroke="midnightblue" d="M392.235,-245.782C413.457,-251.845 442.989,-260.283 465.455,-266.702"/>
<polygon fill="midnightblue" stroke="midnightblue" points="464.648,-270.111 475.225,-269.493 466.571,-263.38 464.648,-270.111"/>
</g>
<!-- Node11&#45;&gt;Node4 -->
<g id="edge13" class="edge"><title>Node11&#45;&gt;Node4</title>
<path fill="none" stroke="midnightblue" d="M394.523,-133.652C399.414,-136.158 404.141,-139.242 408,-143 434.774,-169.079 416.233,-193.982 444,-219 445.74,-220.568 447.617,-222.007 449.591,-223.33"/>
<polygon fill="midnightblue" stroke="midnightblue" points="448.302,-226.618 458.745,-228.408 451.698,-220.497 448.302,-226.618"/>
</g>
<!-- Node11&#45;&gt;Node5 -->
<g id="edge16" class="edge"><title>Node11&#45;&gt;Node5</title>
<path fill="none" stroke="midnightblue" d="M395.18,-124C409.524,-124 427.12,-124 443.674,-124"/>
<polygon fill="midnightblue" stroke="midnightblue" points="443.808,-127.5 453.808,-124 443.808,-120.5 443.808,-127.5"/>
</g>
<!-- Node11&#45;&gt;Node9 -->
<g id="edge12" class="edge"><title>Node11&#45;&gt;Node9</title>
<path fill="none" stroke="midnightblue" d="M391.363,-133.668C397.082,-136.298 402.931,-139.425 408,-143 427.012,-156.408 424.481,-168.341 444,-181 447.145,-183.04 450.536,-184.891 454.031,-186.565"/>
<polygon fill="midnightblue" stroke="midnightblue" points="452.862,-189.871 463.432,-190.589 455.616,-183.436 452.862,-189.871"/>
</g>
<!-- Node12 -->
<g id="node12" class="node"><title>Node12</title>
<g id="a_node12"><a xlink:href="../../d8/de2/menudefs_8qc.html#a66804fbc3a76c60d59f50aa1bc4557d1" target="_top" xlink:title="drawcolorcodedstring">
<polygon fill="none" stroke="black" points="444.5,-76.5 444.5,-95.5 553.5,-95.5 553.5,-76.5 444.5,-76.5"/>
<text text-anchor="middle" x="499" y="-83.5" font-family="Helvetica,sans-Serif" font-size="10.00">drawcolorcodedstring</text>
</a>
</g>
</g>
<!-- Node11&#45;&gt;Node12 -->
<g id="edge14" class="edge"><title>Node11&#45;&gt;Node12</title>
<path fill="none" stroke="midnightblue" d="M395.18,-115.377C412.801,-110.342 435.331,-103.905 454.807,-98.3407"/>
<polygon fill="midnightblue" stroke="midnightblue" points="456.018,-101.635 464.672,-95.5223 454.095,-94.9043 456.018,-101.635"/>
</g>
<!-- Node13 -->
<g id="node13" class="node"><title>Node13</title>
<g id="a_node13"><a xlink:href="../../d8/de2/menudefs_8qc.html#ae8ecd1beaa4d05a475bf27bbf7e0868c" target="_top" xlink:title="drawstring">
<polygon fill="none" stroke="black" points="468,-38.5 468,-57.5 530,-57.5 530,-38.5 468,-38.5"/>
<text text-anchor="middle" x="499" y="-45.5" font-family="Helvetica,sans-Serif" font-size="10.00">drawstring</text>
</a>
</g>
</g>
<!-- Node11&#45;&gt;Node13 -->
<g id="edge15" class="edge"><title>Node11&#45;&gt;Node13</title>
<path fill="none" stroke="midnightblue" d="M391.363,-114.332C397.082,-111.702 402.931,-108.575 408,-105 427.012,-91.5918 424.481,-79.6593 444,-67 448.421,-64.133 453.326,-61.6385 458.326,-59.4854"/>
<polygon fill="midnightblue" stroke="midnightblue" points="459.894,-62.6317 467.955,-55.7571 457.366,-56.1039 459.894,-62.6317"/>
</g>
<!-- Node14 -->
<g id="node14" class="node"><title>Node14</title>
<g id="a_node14"><a xlink:href="../../d1/d07/framework_8qc.html#aef346455b3c2def821423a45227b45dd" target="_top" xlink:title="LOG_TRACE">
<polygon fill="none" stroke="black" points="460.5,-0.5 460.5,-19.5 537.5,-19.5 537.5,-0.5 460.5,-0.5"/>
<text text-anchor="middle" x="499" y="-7.5" font-family="Helvetica,sans-Serif" font-size="10.00">LOG_TRACE</text>
</a>
</g>
</g>
<!-- Node11&#45;&gt;Node14 -->
<g id="edge17" class="edge"><title>Node11&#45;&gt;Node14</title>
<path fill="none" stroke="midnightblue" d="M394.523,-114.348C399.414,-111.842 404.141,-108.758 408,-105 434.774,-78.9214 416.233,-54.0185 444,-29 446.289,-26.9377 448.815,-25.0963 451.488,-23.4524"/>
<polygon fill="midnightblue" stroke="midnightblue" points="453.131,-26.5433 460.412,-18.8465 449.92,-20.323 453.131,-26.5433"/>
</g>
<!-- Node16 -->
<g id="node16" class="node"><title>Node16</title>
<g id="a_node16"><a xlink:href="../../d8/de2/menudefs_8qc.html#aebeeec7a2529f36483e14f76b1871271" target="_top" xlink:title="max">
<polygon fill="none" stroke="black" points="346.5,-38.5 346.5,-57.5 381.5,-57.5 381.5,-38.5 346.5,-38.5"/>
<text text-anchor="middle" x="364" y="-45.5" font-family="Helvetica,sans-Serif" font-size="10.00">max</text>
</a>
</g>
</g>
<!-- Node15&#45;&gt;Node16 -->
<g id="edge20" class="edge"><title>Node15&#45;&gt;Node16</title>
<path fill="none" stroke="midnightblue" d="M252.347,-76.411C278.486,-69.6996 312.788,-60.8922 336.229,-54.8736"/>
<polygon fill="midnightblue" stroke="midnightblue" points="337.351,-58.1991 346.167,-52.3221 335.61,-51.419 337.351,-58.1991"/>
</g>
<!-- Node17 -->
<g id="node17" class="node"><title>Node17</title>
<g id="a_node17"><a xlink:href="../../d8/de2/menudefs_8qc.html#ab2ad6bdb33b4334fec83db0418cf72df" target="_top" xlink:title="min">
<polygon fill="none" stroke="black" points="348,-76.5 348,-95.5 380,-95.5 380,-76.5 348,-76.5"/>
<text text-anchor="middle" x="364" y="-83.5" font-family="Helvetica,sans-Serif" font-size="10.00">min</text>
</a>
</g>
</g>
<!-- Node15&#45;&gt;Node17 -->
<g id="edge21" class="edge"><title>Node15&#45;&gt;Node17</title>
<path fill="none" stroke="midnightblue" d="M255.051,-86C281.388,-86 315.051,-86 337.726,-86"/>
<polygon fill="midnightblue" stroke="midnightblue" points="337.895,-89.5001 347.895,-86 337.895,-82.5001 337.895,-89.5001"/>
</g>
</g>
</svg>
        <g id="navigator" transform="translate(0 0)" fill="#404254">
                <rect fill="#f2f5e9" fill-opacity="0.5" stroke="#606060" stroke-width=".5" x="0" y="0" width="60" height="60"/>
                <use id="zoomplus" xlink:href="#zoomPlus" x="17" y="9" onmousedown="handleZoom(evt,'in')"/>
                <use id="zoomminus" xlink:href="#zoomMin" x="42" y="9" onmousedown="handleZoom(evt,'out')"/>
                <use id="reset" xlink:href="#resetDef" x="30" y="36" onmousedown="handleReset()"/>
                <g id="arrowUp" xlink:href="#dirArrow" transform="translate(30 24)" onmousedown="handlePan(0,-1)">
                  <use xlink:href="#rim" fill="#404040">
                        <set attributeName="fill" to="#808080" begin="arrowUp.mouseover" end="arrowUp.mouseout"/>
                  </use>
                  <path fill="none" stroke="white" stroke-width="1.5" d="M0,-3.0v7 M-2.5,-0.5L0,-3.0L2.5,-0.5"/>
                </g>
                <g id="arrowRight" xlink:href="#dirArrow" transform="rotate(90) translate(36 -43)" onmousedown="handlePan(1,0)">
                  <use xlink:href="#rim" fill="#404040">
                        <set attributeName="fill" to="#808080" begin="arrowRight.mouseover" end="arrowRight.mouseout"/>
                  </use>
                  <path fill="none" stroke="white" stroke-width="1.5" d="M0,-3.0v7 M-2.5,-0.5L0,-3.0L2.5,-0.5"/>
                </g>
                <g id="arrowDown" xlink:href="#dirArrow" transform="rotate(180) translate(-30 -48)" onmousedown="handlePan(0,1)">
                  <use xlink:href="#rim" fill="#404040">
                        <set attributeName="fill" to="#808080" begin="arrowDown.mouseover" end="arrowDown.mouseout"/>
                  </use>
                  <path fill="none" stroke="white" stroke-width="1.5" d="M0,-3.0v7 M-2.5,-0.5L0,-3.0L2.5,-0.5"/>
                </g>
                <g id="arrowLeft" xlink:href="#dirArrow" transform="rotate(270) translate(-36 17)" onmousedown="handlePan(-1,0)">
                  <use xlink:href="#rim" fill="#404040">
                        <set attributeName="fill" to="#808080" begin="arrowLeft.mouseover" end="arrowLeft.mouseout"/>
                  </use>
                  <path fill="none" stroke="white" stroke-width="1.5" d="M0,-3.0v7 M-2.5,-0.5L0,-3.0L2.5,-0.5"/>
                </g>
        </g>
        <svg viewBox="0 0 15 15" width="100%" height="30px" preserveAspectRatio="xMaxYMin meet">
         <g id="arrow_out" transform="scale(0.3 0.3)">
          <a xlink:href="languagelist_8qc_ae53e2ac0d6bd1a31c3dd204c35b1398d_cgraph_org.svg" target="_base">
           <rect id="button" ry="5" rx="5" y="6" x="6" height="38" width="38"
                fill="#f2f5e9" fill-opacity="0.5" stroke="#606060" stroke-width="1.0"/>
           <path id="arrow"
             d="M 11.500037,31.436501 C 11.940474,20.09759 22.043105,11.32322 32.158766,21.979434 L 37.068811,17.246167 C 37.068811,17.246167 37.088388,32 37.088388,32 L 22.160133,31.978069 C 22.160133,31.978069 26.997745,27.140456 26.997745,27.140456 C 18.528582,18.264221 13.291696,25.230495 11.500037,31.436501 z"
             style="fill:#404040;"/>
          </a>
         </g>
        </svg>
</svg>
