<?xml version="1.0" encoding="UTF-8" standalone="no"?>
<!DOCTYPE svg PUBLIC "-//W3C//DTD SVG 1.1//EN"
 "http://www.w3.org/Graphics/SVG/1.1/DTD/svg11.dtd">
<!-- Generated by graphviz version 2.36.0 (20140111.2315)
 -->
<!-- Title: menu/xonotic/dialog_hudpanel_healtharmor.qh Pages: 1 -->
<svg width="437pt" height="220pt"
 viewBox="0.00 0.00 437.00 220.00" xmlns="http://www.w3.org/2000/svg" xmlns:xlink="http://www.w3.org/1999/xlink">
<g id="graph0" class="graph" transform="scale(1 1) rotate(0) translate(4 216)">
<title>menu/xonotic/dialog_hudpanel_healtharmor.qh</title>
<!-- Node1 -->
<g id="node1" class="node"><title>Node1</title>
<polygon fill="#bfbfbf" stroke="black" points="156.5,-181 156.5,-211 287.5,-211 287.5,-181 156.5,-181"/>
<text text-anchor="start" x="164.5" y="-199" font-family="Helvetica,sans-Serif" font-size="10.00">menu/xonotic/dialog</text>
<text text-anchor="middle" x="222" y="-188" font-family="Helvetica,sans-Serif" font-size="10.00">_hudpanel_healtharmor.qh</text>
</g>
<!-- Node2 -->
<g id="node2" class="node"><title>Node2</title>
<g id="a_node2"><a xlink:href="../../d3/d83/dialog__hudpanel__healtharmor_8qc.html" target="_top" xlink:title="menu/xonotic/dialog\l_hudpanel_healtharmor.qc">
<polygon fill="none" stroke="black" points="-0.5,-113 -0.5,-143 130.5,-143 130.5,-113 -0.5,-113"/>
<text text-anchor="start" x="7.5" y="-131" font-family="Helvetica,sans-Serif" font-size="10.00">menu/xonotic/dialog</text>
<text text-anchor="middle" x="65" y="-120" font-family="Helvetica,sans-Serif" font-size="10.00">_hudpanel_healtharmor.qc</text>
</a>
</g>
</g>
<!-- Node1&#45;&gt;Node2 -->
<g id="edge1" class="edge"><title>Node1&#45;&gt;Node2</title>
<path fill="none" stroke="midnightblue" d="M178.92,-176.89C153.515,-166.21 121.849,-152.898 98.3549,-143.022"/>
<polygon fill="midnightblue" stroke="midnightblue" points="177.745,-180.192 188.32,-180.841 180.457,-173.739 177.745,-180.192"/>
</g>
<!-- Node5 -->
<g id="node5" class="node"><title>Node5</title>
<g id="a_node5"><a xlink:href="../../da/d1d/mainwindow_8qc.html" target="_top" xlink:title="menu/xonotic/mainwindow.qc">
<polygon fill="none" stroke="black" points="149,-118.5 149,-137.5 295,-137.5 295,-118.5 149,-118.5"/>
<text text-anchor="middle" x="222" y="-125.5" font-family="Helvetica,sans-Serif" font-size="10.00">menu/xonotic/mainwindow.qc</text>
</a>
</g>
</g>
<!-- Node1&#45;&gt;Node5 -->
<g id="edge4" class="edge"><title>Node1&#45;&gt;Node5</title>
<path fill="none" stroke="midnightblue" d="M222,-170.376C222,-158.971 222,-146.136 222,-137.828"/>
<polygon fill="midnightblue" stroke="midnightblue" points="218.5,-170.679 222,-180.679 225.5,-170.679 218.5,-170.679"/>
</g>
<!-- Node6 -->
<g id="node6" class="node"><title>Node6</title>
<g id="a_node6"><a xlink:href="../../d5/d14/menu_2xonotic_2__mod_8qh.html" target="_top" xlink:title="menu/xonotic/_mod.qh">
<polygon fill="none" stroke="black" points="313,-118.5 313,-137.5 429,-137.5 429,-118.5 313,-118.5"/>
<text text-anchor="middle" x="371" y="-125.5" font-family="Helvetica,sans-Serif" font-size="10.00">menu/xonotic/_mod.qh</text>
</a>
</g>
</g>
<!-- Node1&#45;&gt;Node6 -->
<g id="edge6" class="edge"><title>Node1&#45;&gt;Node6</title>
<path fill="none" stroke="midnightblue" d="M263.362,-176.679C292.106,-163.946 329.116,-147.553 351.4,-137.682"/>
<polygon fill="midnightblue" stroke="midnightblue" points="261.69,-173.591 253.964,-180.841 264.525,-179.991 261.69,-173.591"/>
</g>
<!-- Node3 -->
<g id="node3" class="node"><title>Node3</title>
<g id="a_node3"><a xlink:href="../../d5/d74/menu_2xonotic_2__mod_8inc.html" target="_top" xlink:title="menu/xonotic/_mod.inc">
<polygon fill="none" stroke="black" points="84,-56.5 84,-75.5 202,-75.5 202,-56.5 84,-56.5"/>
<text text-anchor="middle" x="143" y="-63.5" font-family="Helvetica,sans-Serif" font-size="10.00">menu/xonotic/_mod.inc</text>
</a>
</g>
</g>
<!-- Node2&#45;&gt;Node3 -->
<g id="edge2" class="edge"><title>Node2&#45;&gt;Node3</title>
<path fill="none" stroke="midnightblue" d="M91.6267,-106.518C105.282,-96.0137 121.196,-83.7727 131.65,-75.7305"/>
<polygon fill="midnightblue" stroke="midnightblue" points="89.2772,-103.91 83.4849,-112.781 93.5452,-109.458 89.2772,-103.91"/>
</g>
<!-- Node4 -->
<g id="node4" class="node"><title>Node4</title>
<g id="a_node4"><a xlink:href="../../d3/d70/menu_2progs_8inc.html" target="_top" xlink:title="menu/progs.inc">
<polygon fill="none" stroke="black" points="101.5,-0.5 101.5,-19.5 184.5,-19.5 184.5,-0.5 101.5,-0.5"/>
<text text-anchor="middle" x="143" y="-7.5" font-family="Helvetica,sans-Serif" font-size="10.00">menu/progs.inc</text>
</a>
</g>
</g>
<!-- Node3&#45;&gt;Node4 -->
<g id="edge3" class="edge"><title>Node3&#45;&gt;Node4</title>
<path fill="none" stroke="midnightblue" d="M143,-45.8045C143,-36.9102 143,-26.7798 143,-19.7511"/>
<polygon fill="midnightblue" stroke="midnightblue" points="139.5,-46.083 143,-56.083 146.5,-46.083 139.5,-46.083"/>
</g>
<!-- Node5&#45;&gt;Node3 -->
<g id="edge5" class="edge"><title>Node5&#45;&gt;Node3</title>
<path fill="none" stroke="midnightblue" d="M202.474,-112.17C187.32,-100.661 166.843,-85.1086 154.298,-75.5806"/>
<polygon fill="midnightblue" stroke="midnightblue" points="200.601,-115.142 210.681,-118.403 204.835,-109.568 200.601,-115.142"/>
</g>
</g>
</svg>
