<?xml version="1.0" encoding="UTF-8" standalone="no"?>
<!DOCTYPE svg PUBLIC "-//W3C//DTD SVG 1.1//EN"
 "http://www.w3.org/Graphics/SVG/1.1/DTD/svg11.dtd">
<!-- Generated by graphviz version 2.36.0 (20140111.2315)
 -->
<!-- Title: HUD_Notify Pages: 1 -->
<svg width="736pt" height="465pt"
 viewBox="0.00 0.00 736.00 465.00" xmlns="http://www.w3.org/2000/svg" xmlns:xlink="http://www.w3.org/1999/xlink">
<g id="graph0" class="graph" transform="scale(1 1) rotate(0) translate(4 461)">
<title>HUD_Notify</title>
<!-- Node1 -->
<g id="node1" class="node"><title>Node1</title>
<polygon fill="#bfbfbf" stroke="black" points="0.5,-209.5 0.5,-228.5 71.5,-228.5 71.5,-209.5 0.5,-209.5"/>
<text text-anchor="middle" x="36" y="-216.5" font-family="Helvetica,sans-Serif" font-size="10.00">HUD_Notify</text>
</g>
<!-- Node2 -->
<g id="node2" class="node"><title>Node2</title>
<g id="a_node2"><a xlink:href="../../d8/de2/menudefs_8qc.html#a3846d117b360dccec575f96988cf3bb7" target="_top" xlink:title="bound">
<polygon fill="none" stroke="black" points="147.5,-437.5 147.5,-456.5 190.5,-456.5 190.5,-437.5 147.5,-437.5"/>
<text text-anchor="middle" x="169" y="-444.5" font-family="Helvetica,sans-Serif" font-size="10.00">bound</text>
</a>
</g>
</g>
<!-- Node1&#45;&gt;Node2 -->
<g id="edge1" class="edge"><title>Node1&#45;&gt;Node2</title>
<path fill="none" stroke="midnightblue" d="M37.3507,-228.929C39.0668,-262.118 49.1381,-370.35 108,-428 115.845,-435.684 126.778,-440.263 137.164,-442.99"/>
<polygon fill="midnightblue" stroke="midnightblue" points="136.723,-446.475 147.235,-445.148 138.19,-439.631 136.723,-446.475"/>
</g>
<!-- Node3 -->
<g id="node3" class="node"><title>Node3</title>
<g id="a_node3"><a xlink:href="../../d2/db4/string_8qh.html#a18d360dae8acec6fc943d884ad153f8d" target="_top" xlink:title="ColorTranslateRGB">
<polygon fill="none" stroke="black" points="118,-399.5 118,-418.5 220,-418.5 220,-399.5 118,-399.5"/>
<text text-anchor="middle" x="169" y="-406.5" font-family="Helvetica,sans-Serif" font-size="10.00">ColorTranslateRGB</text>
</a>
</g>
</g>
<!-- Node1&#45;&gt;Node3 -->
<g id="edge2" class="edge"><title>Node1&#45;&gt;Node3</title>
<path fill="none" stroke="midnightblue" d="M38.1756,-228.745C42.19,-257.721 58.0029,-344.168 108,-390 109.734,-391.59 111.601,-393.046 113.566,-394.381"/>
<polygon fill="midnightblue" stroke="midnightblue" points="112.266,-397.664 122.703,-399.488 115.681,-391.554 112.266,-397.664"/>
</g>
<!-- Node4 -->
<g id="node4" class="node"><title>Node4</title>
<g id="a_node4"><a xlink:href="../../d8/de2/menudefs_8qc.html#a66804fbc3a76c60d59f50aa1bc4557d1" target="_top" xlink:title="drawcolorcodedstring">
<polygon fill="none" stroke="black" points="114.5,-361.5 114.5,-380.5 223.5,-380.5 223.5,-361.5 114.5,-361.5"/>
<text text-anchor="middle" x="169" y="-368.5" font-family="Helvetica,sans-Serif" font-size="10.00">drawcolorcodedstring</text>
</a>
</g>
</g>
<!-- Node1&#45;&gt;Node4 -->
<g id="edge3" class="edge"><title>Node1&#45;&gt;Node4</title>
<path fill="none" stroke="midnightblue" d="M39.8933,-228.801C47.331,-252.39 69.3001,-312.891 108,-347 112.529,-350.992 117.805,-354.366 123.314,-357.206"/>
<polygon fill="midnightblue" stroke="midnightblue" points="122.164,-360.528 132.715,-361.495 125.07,-354.16 122.164,-360.528"/>
</g>
<!-- Node5 -->
<g id="node5" class="node"><title>Node5</title>
<g id="a_node5"><a xlink:href="../../d8/de2/menudefs_8qc.html#ad5a3e16aa960bd72d3ca37a618eea802" target="_top" xlink:title="floor">
<polygon fill="none" stroke="black" points="446.5,-323.5 446.5,-342.5 481.5,-342.5 481.5,-323.5 446.5,-323.5"/>
<text text-anchor="middle" x="464" y="-330.5" font-family="Helvetica,sans-Serif" font-size="10.00">floor</text>
</a>
</g>
</g>
<!-- Node1&#45;&gt;Node5 -->
<g id="edge4" class="edge"><title>Node1&#45;&gt;Node5</title>
<path fill="none" stroke="midnightblue" d="M42.7699,-228.76C53.3185,-245.597 77.4666,-279.757 108,-295 219.434,-350.629 374.645,-342.342 436.259,-336.203"/>
<polygon fill="midnightblue" stroke="midnightblue" points="436.741,-339.672 446.315,-335.135 436.002,-332.711 436.741,-339.672"/>
</g>
<!-- Node6 -->
<g id="node6" class="node"><title>Node6</title>
<g id="a_node6"><a xlink:href="../../d7/d15/hud_8qc.html#a4c101d8ec9a9f35a6a6cbbb05faa99e6" target="_top" xlink:title="HUD_Panel_LoadCvars">
<polygon fill="none" stroke="black" points="108,-228.5 108,-247.5 230,-247.5 230,-228.5 108,-228.5"/>
<text text-anchor="middle" x="169" y="-235.5" font-family="Helvetica,sans-Serif" font-size="10.00">HUD_Panel_LoadCvars</text>
</a>
</g>
</g>
<!-- Node1&#45;&gt;Node6 -->
<g id="edge5" class="edge"><title>Node1&#45;&gt;Node6</title>
<path fill="none" stroke="midnightblue" d="M71.7617,-224.042C79.9445,-225.229 88.955,-226.535 98.0805,-227.859"/>
<polygon fill="midnightblue" stroke="midnightblue" points="97.5951,-231.325 107.994,-229.297 98.5999,-224.398 97.5951,-231.325"/>
</g>
<!-- Node10 -->
<g id="node10" class="node"><title>Node10</title>
<g id="a_node10"><a xlink:href="../../dc/d98/client_2miscfunctions_8qc.html#af50992ec9f2e9611b555b1986b1d0c13" target="_top" xlink:title="HUD_Scale_Disable">
<polygon fill="none" stroke="black" points="115.5,-190.5 115.5,-209.5 222.5,-209.5 222.5,-190.5 115.5,-190.5"/>
<text text-anchor="middle" x="169" y="-197.5" font-family="Helvetica,sans-Serif" font-size="10.00">HUD_Scale_Disable</text>
</a>
</g>
</g>
<!-- Node1&#45;&gt;Node10 -->
<g id="edge9" class="edge"><title>Node1&#45;&gt;Node10</title>
<path fill="none" stroke="midnightblue" d="M71.7617,-213.958C82.0799,-212.462 93.7143,-210.774 105.236,-209.103"/>
<polygon fill="midnightblue" stroke="midnightblue" points="105.901,-212.543 115.295,-207.644 104.896,-205.616 105.901,-212.543"/>
</g>
<!-- Node11 -->
<g id="node11" class="node"><title>Node11</title>
<g id="a_node11"><a xlink:href="../../dc/d98/client_2miscfunctions_8qc.html#ac250b39a33004962fd9d0ce2a4521c0f" target="_top" xlink:title="HUD_Scale_Enable">
<polygon fill="none" stroke="black" points="117,-152.5 117,-171.5 221,-171.5 221,-152.5 117,-152.5"/>
<text text-anchor="middle" x="169" y="-159.5" font-family="Helvetica,sans-Serif" font-size="10.00">HUD_Scale_Enable</text>
</a>
</g>
</g>
<!-- Node1&#45;&gt;Node11 -->
<g id="edge10" class="edge"><title>Node1&#45;&gt;Node11</title>
<path fill="none" stroke="midnightblue" d="M52.9376,-209.369C67.06,-201.105 88.4188,-189.257 108,-181 113.16,-178.824 118.658,-176.758 124.153,-174.845"/>
<polygon fill="midnightblue" stroke="midnightblue" points="125.585,-178.057 133.966,-171.576 123.373,-171.416 125.585,-178.057"/>
</g>
<!-- Node12 -->
<g id="node12" class="node"><title>Node12</title>
<g id="a_node12"><a xlink:href="../../d8/de2/menudefs_8qc.html#aebeeec7a2529f36483e14f76b1871271" target="_top" xlink:title="max">
<polygon fill="none" stroke="black" points="151.5,-114.5 151.5,-133.5 186.5,-133.5 186.5,-114.5 151.5,-114.5"/>
<text text-anchor="middle" x="169" y="-121.5" font-family="Helvetica,sans-Serif" font-size="10.00">max</text>
</a>
</g>
</g>
<!-- Node1&#45;&gt;Node12 -->
<g id="edge11" class="edge"><title>Node1&#45;&gt;Node12</title>
<path fill="none" stroke="midnightblue" d="M43.4704,-209.341C54.7235,-193.268 79.4467,-161.023 108,-143 118.153,-136.592 130.644,-132.184 141.596,-129.24"/>
<polygon fill="midnightblue" stroke="midnightblue" points="142.599,-132.599 151.498,-126.849 140.956,-125.794 142.599,-132.599"/>
</g>
<!-- Node13 -->
<g id="node13" class="node"><title>Node13</title>
<g id="a_node13"><a xlink:href="../../d8/de2/menudefs_8qc.html#ab2ad6bdb33b4334fec83db0418cf72df" target="_top" xlink:title="min">
<polygon fill="none" stroke="black" points="153,-76.5 153,-95.5 185,-95.5 185,-76.5 153,-76.5"/>
<text text-anchor="middle" x="169" y="-83.5" font-family="Helvetica,sans-Serif" font-size="10.00">min</text>
</a>
</g>
</g>
<!-- Node1&#45;&gt;Node13 -->
<g id="edge12" class="edge"><title>Node1&#45;&gt;Node13</title>
<path fill="none" stroke="midnightblue" d="M40.2976,-209.455C48.3248,-187.628 70.9829,-133.743 108,-105 118.044,-97.2015 131.355,-92.5669 142.887,-89.8311"/>
<polygon fill="midnightblue" stroke="midnightblue" points="143.728,-93.2321 152.834,-87.8163 142.338,-86.3715 143.728,-93.2321"/>
</g>
<!-- Node14 -->
<g id="node14" class="node"><title>Node14</title>
<g id="a_node14"><a xlink:href="../../dc/d98/client_2miscfunctions_8qc.html#aac033ec101163a655b47a24ceb78bad5" target="_top" xlink:title="stringwidth">
<polygon fill="none" stroke="black" points="137,-0.5 137,-19.5 201,-19.5 201,-0.5 137,-0.5"/>
<text text-anchor="middle" x="169" y="-7.5" font-family="Helvetica,sans-Serif" font-size="10.00">stringwidth</text>
</a>
</g>
</g>
<!-- Node1&#45;&gt;Node14 -->
<g id="edge13" class="edge"><title>Node1&#45;&gt;Node14</title>
<path fill="none" stroke="midnightblue" d="M38.0331,-209.086C41.7063,-178.723 56.7926,-85.9323 108,-34 113.361,-28.5627 120.113,-24.3202 127.137,-21.0214"/>
<polygon fill="midnightblue" stroke="midnightblue" points="128.844,-24.1052 136.778,-17.0845 126.197,-17.6246 128.844,-24.1052"/>
</g>
<!-- Node15 -->
<g id="node15" class="node"><title>Node15</title>
<g id="a_node15"><a xlink:href="../../d4/d0c/csprogsdefs_8qc.html#a4f0b78b1785821ba47129edb68e70f9e" target="_top" xlink:title="vector">
<polygon fill="none" stroke="black" points="300,-38.5 300,-57.5 344,-57.5 344,-38.5 300,-38.5"/>
<text text-anchor="middle" x="322" y="-45.5" font-family="Helvetica,sans-Serif" font-size="10.00">vector</text>
</a>
</g>
</g>
<!-- Node1&#45;&gt;Node15 -->
<g id="edge27" class="edge"><title>Node1&#45;&gt;Node15</title>
<path fill="none" stroke="midnightblue" d="M38.2021,-209.441C42.2241,-181.9 57.9155,-102.109 108,-67 162.6,-28.726 245.427,-34.8039 290.001,-41.8403"/>
<polygon fill="midnightblue" stroke="midnightblue" points="289.504,-45.3061 299.949,-43.5287 290.676,-38.4047 289.504,-45.3061"/>
</g>
<!-- Node17 -->
<g id="node17" class="node"><title>Node17</title>
<g id="a_node17"><a xlink:href="../../da/d44/common_2util_8qc.html#a73cc543cc744ae536ed0ef34b8d481c4" target="_top" xlink:title="textShortenToWidth">
<polygon fill="none" stroke="black" points="117,-266.5 117,-285.5 221,-285.5 221,-266.5 117,-266.5"/>
<text text-anchor="middle" x="169" y="-273.5" font-family="Helvetica,sans-Serif" font-size="10.00">textShortenToWidth</text>
</a>
</g>
</g>
<!-- Node1&#45;&gt;Node17 -->
<g id="edge16" class="edge"><title>Node1&#45;&gt;Node17</title>
<path fill="none" stroke="midnightblue" d="M52.9376,-228.631C67.06,-236.895 88.4188,-248.743 108,-257 113.16,-259.176 118.658,-261.242 124.153,-263.155"/>
<polygon fill="midnightblue" stroke="midnightblue" points="123.373,-266.584 133.966,-266.424 125.585,-259.943 123.373,-266.584"/>
</g>
<!-- Node7 -->
<g id="node7" class="node"><title>Node7</title>
<g id="a_node7"><a xlink:href="../../d8/de2/menudefs_8qc.html#a6f8c7ef6ee4a4d851aaa5fd1789eab9a" target="_top" xlink:title="cvar_string">
<polygon fill="none" stroke="black" points="289.5,-171.5 289.5,-190.5 354.5,-190.5 354.5,-171.5 289.5,-171.5"/>
<text text-anchor="middle" x="322" y="-178.5" font-family="Helvetica,sans-Serif" font-size="10.00">cvar_string</text>
</a>
</g>
</g>
<!-- Node6&#45;&gt;Node7 -->
<g id="edge6" class="edge"><title>Node6&#45;&gt;Node7</title>
<path fill="none" stroke="midnightblue" d="M203.706,-228.491C212.385,-225.727 221.633,-222.499 230,-219 246.691,-212.019 249.401,-207.197 266,-200 270.801,-197.918 275.911,-195.901 281.008,-194.008"/>
<polygon fill="midnightblue" stroke="midnightblue" points="282.474,-197.2 290.709,-190.535 280.115,-190.61 282.474,-197.2"/>
</g>
<!-- Node8 -->
<g id="node8" class="node"><title>Node8</title>
<g id="a_node8"><a xlink:href="../../d8/de2/menudefs_8qc.html#a65fcee980f5a018b481188a84ead405f" target="_top" xlink:title="stov">
<polygon fill="none" stroke="black" points="304.5,-133.5 304.5,-152.5 339.5,-152.5 339.5,-133.5 304.5,-133.5"/>
<text text-anchor="middle" x="322" y="-140.5" font-family="Helvetica,sans-Serif" font-size="10.00">stov</text>
</a>
</g>
</g>
<!-- Node6&#45;&gt;Node8 -->
<g id="edge7" class="edge"><title>Node6&#45;&gt;Node8</title>
<path fill="none" stroke="midnightblue" d="M213.151,-228.431C219.158,-225.963 224.982,-222.871 230,-219 253.724,-200.698 242.515,-180.608 266,-162 274.141,-155.55 284.614,-151.216 294.233,-148.339"/>
<polygon fill="midnightblue" stroke="midnightblue" points="295.383,-151.656 304.184,-145.758 293.626,-144.881 295.383,-151.656"/>
</g>
<!-- Node9 -->
<g id="node9" class="node"><title>Node9</title>
<g id="a_node9"><a xlink:href="../../d8/de2/menudefs_8qc.html#ad76dc2b2895cd23f21e008f12a686158" target="_top" xlink:title="strcat">
<polygon fill="none" stroke="black" points="301.5,-209.5 301.5,-228.5 342.5,-228.5 342.5,-209.5 301.5,-209.5"/>
<text text-anchor="middle" x="322" y="-216.5" font-family="Helvetica,sans-Serif" font-size="10.00">strcat</text>
</a>
</g>
</g>
<!-- Node6&#45;&gt;Node9 -->
<g id="edge8" class="edge"><title>Node6&#45;&gt;Node9</title>
<path fill="none" stroke="midnightblue" d="M230.113,-230.436C251.09,-227.797 273.723,-224.949 291.155,-222.755"/>
<polygon fill="midnightblue" stroke="midnightblue" points="291.792,-226.203 301.276,-221.482 290.918,-219.258 291.792,-226.203"/>
</g>
<!-- Node14&#45;&gt;Node15 -->
<g id="edge14" class="edge"><title>Node14&#45;&gt;Node15</title>
<path fill="none" stroke="midnightblue" d="M201.287,-17.8736C227.253,-24.4081 263.992,-33.6535 289.904,-40.1746"/>
<polygon fill="midnightblue" stroke="midnightblue" points="289.39,-43.6543 299.942,-42.7006 291.099,-36.8659 289.39,-43.6543"/>
</g>
<!-- Node16 -->
<g id="node16" class="node"><title>Node16</title>
<g id="a_node16"><a xlink:href="../../d4/d0c/csprogsdefs_8qc.html#a0f275977f6aa5a693742a397723991d0" target="_top" xlink:title="stringwidth_builtin">
<polygon fill="none" stroke="black" points="274.5,-0.5 274.5,-19.5 369.5,-19.5 369.5,-0.5 274.5,-0.5"/>
<text text-anchor="middle" x="322" y="-7.5" font-family="Helvetica,sans-Serif" font-size="10.00">stringwidth_builtin</text>
</a>
</g>
</g>
<!-- Node14&#45;&gt;Node16 -->
<g id="edge15" class="edge"><title>Node14&#45;&gt;Node16</title>
<path fill="none" stroke="midnightblue" d="M201.287,-10C219.401,-10 242.757,-10 264.023,-10"/>
<polygon fill="midnightblue" stroke="midnightblue" points="264.263,-13.5001 274.263,-10 264.263,-6.5001 264.263,-13.5001"/>
</g>
<!-- Node17&#45;&gt;Node9 -->
<g id="edge17" class="edge"><title>Node17&#45;&gt;Node9</title>
<path fill="none" stroke="midnightblue" d="M203.706,-266.491C212.385,-263.727 221.633,-260.499 230,-257 246.691,-250.019 249.401,-245.197 266,-238 274.261,-234.418 283.436,-231.028 291.887,-228.129"/>
<polygon fill="midnightblue" stroke="midnightblue" points="292.995,-231.449 301.378,-224.971 290.785,-224.807 292.995,-231.449"/>
</g>
<!-- Node18 -->
<g id="node18" class="node"><title>Node18</title>
<g id="a_node18"><a xlink:href="../../d8/de2/menudefs_8qc.html#a40f6c65c8bbcfa51df783f2809a2502b" target="_top" xlink:title="substring">
<polygon fill="none" stroke="black" points="672,-228.5 672,-247.5 728,-247.5 728,-228.5 672,-228.5"/>
<text text-anchor="middle" x="700" y="-235.5" font-family="Helvetica,sans-Serif" font-size="10.00">substring</text>
</a>
</g>
</g>
<!-- Node17&#45;&gt;Node18 -->
<g id="edge18" class="edge"><title>Node17&#45;&gt;Node18</title>
<path fill="none" stroke="midnightblue" d="M221.211,-278.629C307.575,-282.015 487.319,-284.549 636,-257 644.639,-255.399 653.773,-253.046 662.325,-250.536"/>
<polygon fill="midnightblue" stroke="midnightblue" points="663.501,-253.836 672.032,-247.554 661.446,-247.145 663.501,-253.836"/>
</g>
<!-- Node19 -->
<g id="node19" class="node"><title>Node19</title>
<g id="a_node19"><a xlink:href="../../da/d44/common_2util_8qc.html#ab6502642132678c20db7fd26c09ddcf0" target="_top" xlink:title="textLengthUpToWidth">
<polygon fill="none" stroke="black" points="266,-247.5 266,-266.5 378,-266.5 378,-247.5 266,-247.5"/>
<text text-anchor="middle" x="322" y="-254.5" font-family="Helvetica,sans-Serif" font-size="10.00">textLengthUpToWidth</text>
</a>
</g>
</g>
<!-- Node17&#45;&gt;Node19 -->
<g id="edge19" class="edge"><title>Node17&#45;&gt;Node19</title>
<path fill="none" stroke="midnightblue" d="M221.122,-269.567C232.239,-268.169 244.146,-266.67 255.727,-265.213"/>
<polygon fill="midnightblue" stroke="midnightblue" points="256.306,-268.668 265.791,-263.947 255.432,-261.723 256.306,-268.668"/>
</g>
<!-- Node19&#45;&gt;Node5 -->
<g id="edge21" class="edge"><title>Node19&#45;&gt;Node5</title>
<path fill="none" stroke="midnightblue" d="M340.731,-266.625C365.19,-279.903 409.43,-303.919 437.454,-319.132"/>
<polygon fill="midnightblue" stroke="midnightblue" points="435.826,-322.231 446.284,-323.926 439.166,-316.079 435.826,-322.231"/>
</g>
<!-- Node19&#45;&gt;Node18 -->
<g id="edge26" class="edge"><title>Node19&#45;&gt;Node18</title>
<path fill="none" stroke="midnightblue" d="M378.076,-254.217C455.718,-250.293 595.289,-243.241 661.796,-239.88"/>
<polygon fill="midnightblue" stroke="midnightblue" points="662.012,-243.374 671.823,-239.373 661.659,-236.383 662.012,-243.374"/>
</g>
<!-- Node20 -->
<g id="node20" class="node"><title>Node20</title>
<g id="a_node20"><a xlink:href="../../d8/de2/menudefs_8qc.html#a274680f571a231ddf29421b93d434bfa" target="_top" xlink:title="strlen">
<polygon fill="none" stroke="black" points="443.5,-171.5 443.5,-190.5 484.5,-190.5 484.5,-171.5 443.5,-171.5"/>
<text text-anchor="middle" x="464" y="-178.5" font-family="Helvetica,sans-Serif" font-size="10.00">strlen</text>
</a>
</g>
</g>
<!-- Node19&#45;&gt;Node20 -->
<g id="edge20" class="edge"><title>Node19&#45;&gt;Node20</title>
<path fill="none" stroke="midnightblue" d="M358.788,-247.442C365.445,-244.897 372.141,-241.776 378,-238 397.555,-225.396 394.684,-212.966 414,-200 420.006,-195.968 426.992,-192.612 433.774,-189.898"/>
<polygon fill="midnightblue" stroke="midnightblue" points="435.231,-193.093 443.428,-186.38 432.834,-186.516 435.231,-193.093"/>
</g>
<!-- Node21 -->
<g id="node21" class="node"><title>Node21</title>
<g id="a_node21"><a xlink:href="../../da/d44/common_2util_8qc.html#a0213b116f3e8b8deecdae1cfbf0c3482" target="_top" xlink:title="skipIncompleteTag">
<polygon fill="none" stroke="black" points="414.5,-209.5 414.5,-228.5 513.5,-228.5 513.5,-209.5 414.5,-209.5"/>
<text text-anchor="middle" x="464" y="-216.5" font-family="Helvetica,sans-Serif" font-size="10.00">skipIncompleteTag</text>
</a>
</g>
</g>
<!-- Node19&#45;&gt;Node21 -->
<g id="edge22" class="edge"><title>Node19&#45;&gt;Node21</title>
<path fill="none" stroke="midnightblue" d="M358.328,-247.411C376.401,-242.506 398.598,-236.48 417.895,-231.243"/>
<polygon fill="midnightblue" stroke="midnightblue" points="418.949,-234.583 427.683,-228.586 417.116,-227.828 418.949,-234.583"/>
</g>
<!-- Node21&#45;&gt;Node18 -->
<g id="edge23" class="edge"><title>Node21&#45;&gt;Node18</title>
<path fill="none" stroke="midnightblue" d="M493.063,-209.489C527.375,-199.309 586.935,-186.348 636,-200 651.69,-204.365 667.378,-213.808 679.175,-222.188"/>
<polygon fill="midnightblue" stroke="midnightblue" points="677.26,-225.127 687.373,-228.288 681.439,-219.51 677.26,-225.127"/>
</g>
<!-- Node22 -->
<g id="node22" class="node"><title>Node22</title>
<g id="a_node22"><a xlink:href="../../da/d44/common_2util_8qc.html#a982fd634e013860a72d17598569dfa5b" target="_top" xlink:title="isCaretEscaped">
<polygon fill="none" stroke="black" points="550,-209.5 550,-228.5 636,-228.5 636,-209.5 550,-209.5"/>
<text text-anchor="middle" x="593" y="-216.5" font-family="Helvetica,sans-Serif" font-size="10.00">isCaretEscaped</text>
</a>
</g>
</g>
<!-- Node21&#45;&gt;Node22 -->
<g id="edge24" class="edge"><title>Node21&#45;&gt;Node22</title>
<path fill="none" stroke="midnightblue" d="M513.738,-219C522.192,-219 531.016,-219 539.564,-219"/>
<polygon fill="midnightblue" stroke="midnightblue" points="539.81,-222.5 549.81,-219 539.81,-215.5 539.81,-222.5"/>
</g>
<!-- Node22&#45;&gt;Node18 -->
<g id="edge25" class="edge"><title>Node22&#45;&gt;Node18</title>
<path fill="none" stroke="midnightblue" d="M636.103,-226.619C644.702,-228.175 653.689,-229.801 662.09,-231.321"/>
<polygon fill="midnightblue" stroke="midnightblue" points="661.518,-234.774 671.981,-233.111 662.764,-227.886 661.518,-234.774"/>
</g>
</g>
</svg>
