<?xml version="1.0" encoding="UTF-8" standalone="no"?>
<!DOCTYPE svg PUBLIC "-//W3C//DTD SVG 1.1//EN"
 "http://www.w3.org/Graphics/SVG/1.1/DTD/svg11.dtd">
<!-- Generated by graphviz version 2.36.0 (20140111.2315)
 -->
<!-- Title: server/bot/default/havocbot/_mod.inc Pages: 1 -->
<!--zoomable 692 -->
<svg id="main" version="1.1" xmlns="http://www.w3.org/2000/svg" xmlns:xlink="http://www.w3.org/1999/xlink" xml:space="preserve" onload="init(evt)">
<style type="text/css"><![CDATA[
.edge:hover path { stroke: red; }
.edge:hover polygon { stroke: red; fill: red; }
]]></style>
<script type="text/javascript"><![CDATA[
var edges = document.getElementsByTagName('g');
if (edges && edges.length) {
  for (var i=0;i<edges.length;i++) {
    if (edges[i].id.substr(0,4)=='edge') {
      edges[i].setAttribute('class','edge');
    }
  }
}
]]></script>
        <defs>
                <circle id="rim" cx="0" cy="0" r="7"/>
                <circle id="rim2" cx="0" cy="0" r="3.5"/>
                <g id="zoomPlus">
                        <use xlink:href="#rim" fill="#404040">
                                <set attributeName="fill" to="#808080" begin="zoomplus.mouseover" end="zoomplus.mouseout"/>
                        </use>
                        <path d="M-4,0h8M0,-4v8" fill="none" stroke="white" stroke-width="1.5" pointer-events="none"/>
                </g>
                <g id="zoomMin">
                        <use xlink:href="#rim" fill="#404040">
                                <set attributeName="fill" to="#808080" begin="zoomminus.mouseover" end="zoomminus.mouseout"/>
                        </use>
                        <path d="M-4,0h8" fill="none" stroke="white" stroke-width="1.5" pointer-events="none"/>
                </g>
                <g id="dirArrow">
                        <path fill="none" stroke="white" stroke-width="1.5" d="M0,-3.0v7 M-2.5,-0.5L0,-3.0L2.5,-0.5"/>
                </g>
               <g id="resetDef">
                       <use xlink:href="#rim2" fill="#404040">
                               <set attributeName="fill" to="#808080" begin="reset.mouseover" end="reset.mouseout"/>
                       </use>
               </g>
        </defs>

<script type="text/javascript">
var viewWidth = 1694;
var viewHeight = 692;
var sectionId = 'dynsection-0';
</script>
<script xlink:href="../../svgpan.js"/>
<svg id="graph" class="graph">
<g id="viewport">
<title>server/bot/default/havocbot/_mod.inc</title>
<!-- Node1 -->
<g id="node1" class="node"><title>Node1</title>
<polygon fill="#bfbfbf" stroke="black" points="438,-653 438,-683 540,-683 540,-653 438,-653"/>
<text text-anchor="start" x="446" y="-671" font-family="Helvetica,sans-Serif" font-size="10.00">server/bot/default</text>
<text text-anchor="middle" x="489" y="-660" font-family="Helvetica,sans-Serif" font-size="10.00">/havocbot/_mod.inc</text>
</g>
<!-- Node2 -->
<g id="node2" class="node"><title>Node2</title>
<g id="a_node2"><a xlink:href="../../d2/de9/havocbot_8qc.html" target="_top" xlink:title="server/bot/default\l/havocbot/havocbot.qc">
<polygon fill="none" stroke="black" points="656,-585 656,-615 772,-615 772,-585 656,-585"/>
<text text-anchor="start" x="664" y="-603" font-family="Helvetica,sans-Serif" font-size="10.00">server/bot/default</text>
<text text-anchor="middle" x="714" y="-592" font-family="Helvetica,sans-Serif" font-size="10.00">/havocbot/havocbot.qc</text>
</a>
</g>
</g>
<!-- Node1&#45;&gt;Node2 -->
<g id="edge1" class="edge"><title>Node1&#45;&gt;Node2</title>
<path fill="none" stroke="midnightblue" d="M536.992,-652.922C571.942,-642.67 619.439,-628.738 656.432,-617.887"/>
<polygon fill="midnightblue" stroke="midnightblue" points="657.471,-621.229 666.082,-615.056 655.501,-614.512 657.471,-621.229"/>
</g>
<!-- Node35 -->
<g id="node35" class="node"><title>Node35</title>
<g id="a_node35"><a xlink:href="../../db/deb/roles_8qc.html" target="_top" xlink:title="server/bot/default\l/havocbot/roles.qc">
<polygon fill="none" stroke="black" points="178.5,-585 178.5,-615 275.5,-615 275.5,-585 178.5,-585"/>
<text text-anchor="start" x="186.5" y="-603" font-family="Helvetica,sans-Serif" font-size="10.00">server/bot/default</text>
<text text-anchor="middle" x="227" y="-592" font-family="Helvetica,sans-Serif" font-size="10.00">/havocbot/roles.qc</text>
</a>
</g>
</g>
<!-- Node1&#45;&gt;Node35 -->
<g id="edge45" class="edge"><title>Node1&#45;&gt;Node35</title>
<path fill="none" stroke="midnightblue" d="M437.862,-654.118C394.159,-643.109 331.28,-627.269 285.566,-615.753"/>
<polygon fill="midnightblue" stroke="midnightblue" points="286.346,-612.341 275.794,-613.292 284.636,-619.129 286.346,-612.341"/>
</g>
<!-- Node3 -->
<g id="node3" class="node"><title>Node3</title>
<g id="a_node3"><a xlink:href="../../d8/d39/havocbot_8qh.html" target="_top" xlink:title="havocbot.qh">
<polygon fill="none" stroke="black" points="69,-522.5 69,-541.5 139,-541.5 139,-522.5 69,-522.5"/>
<text text-anchor="middle" x="104" y="-529.5" font-family="Helvetica,sans-Serif" font-size="10.00">havocbot.qh</text>
</a>
</g>
</g>
<!-- Node2&#45;&gt;Node3 -->
<g id="edge2" class="edge"><title>Node2&#45;&gt;Node3</title>
<path fill="none" stroke="midnightblue" d="M655.878,-598.315C552.568,-596.094 330.647,-586.779 148,-548 143.826,-547.114 139.499,-545.954 135.26,-544.671"/>
<polygon fill="midnightblue" stroke="midnightblue" points="136.237,-541.308 125.644,-541.525 134.06,-547.961 136.237,-541.308"/>
</g>
<!-- Node4 -->
<g id="node4" class="node"><title>Node4</title>
<g id="a_node4"><a xlink:href="../../d6/d74/cvars_8qh.html" target="_top" xlink:title="../cvars.qh">
<polygon fill="none" stroke="black" points="157.5,-522.5 157.5,-541.5 220.5,-541.5 220.5,-522.5 157.5,-522.5"/>
<text text-anchor="middle" x="189" y="-529.5" font-family="Helvetica,sans-Serif" font-size="10.00">../cvars.qh</text>
</a>
</g>
</g>
<!-- Node2&#45;&gt;Node4 -->
<g id="edge3" class="edge"><title>Node2&#45;&gt;Node4</title>
<path fill="none" stroke="midnightblue" d="M655.718,-597.632C563.837,-594.417 380.207,-583.687 229,-548 225.576,-547.192 222.047,-546.168 218.57,-545.037"/>
<polygon fill="midnightblue" stroke="midnightblue" points="219.633,-541.7 209.039,-541.651 217.29,-548.296 219.633,-541.7"/>
</g>
<!-- Node5 -->
<g id="node5" class="node"><title>Node5</title>
<g id="a_node5"><a xlink:href="../../d3/d5a/aim_8qh.html" target="_top" xlink:title="../aim.qh">
<polygon fill="none" stroke="black" points="553.5,-522.5 553.5,-541.5 608.5,-541.5 608.5,-522.5 553.5,-522.5"/>
<text text-anchor="middle" x="581" y="-529.5" font-family="Helvetica,sans-Serif" font-size="10.00">../aim.qh</text>
</a>
</g>
</g>
<!-- Node2&#45;&gt;Node5 -->
<g id="edge4" class="edge"><title>Node2&#45;&gt;Node5</title>
<path fill="none" stroke="midnightblue" d="M685.468,-584.841C662.36,-573.374 630.053,-557.342 607.506,-546.153"/>
<polygon fill="midnightblue" stroke="midnightblue" points="609.009,-542.992 598.495,-541.682 605.897,-549.262 609.009,-542.992"/>
</g>
<!-- Node6 -->
<g id="node6" class="node"><title>Node6</title>
<g id="a_node6"><a xlink:href="../../d1/da9/bot_8qh.html" target="_top" xlink:title="../bot.qh">
<polygon fill="none" stroke="black" points="238.5,-522.5 238.5,-541.5 291.5,-541.5 291.5,-522.5 238.5,-522.5"/>
<text text-anchor="middle" x="265" y="-529.5" font-family="Helvetica,sans-Serif" font-size="10.00">../bot.qh</text>
</a>
</g>
</g>
<!-- Node2&#45;&gt;Node6 -->
<g id="edge5" class="edge"><title>Node2&#45;&gt;Node6</title>
<path fill="none" stroke="midnightblue" d="M655.754,-596.99C574.711,-593.036 423.923,-581.462 300,-548 297.339,-547.282 294.617,-546.399 291.924,-545.426"/>
<polygon fill="midnightblue" stroke="midnightblue" points="293.043,-542.104 282.459,-541.629 290.437,-548.6 293.043,-542.104"/>
</g>
<!-- Node7 -->
<g id="node7" class="node"><title>Node7</title>
<g id="a_node7"><a xlink:href="../../df/dd4/navigation_8qh.html" target="_top" xlink:title="../navigation.qh">
<polygon fill="none" stroke="black" points="309.5,-522.5 309.5,-541.5 392.5,-541.5 392.5,-522.5 309.5,-522.5"/>
<text text-anchor="middle" x="351" y="-529.5" font-family="Helvetica,sans-Serif" font-size="10.00">../navigation.qh</text>
</a>
</g>
</g>
<!-- Node2&#45;&gt;Node7 -->
<g id="edge6" class="edge"><title>Node2&#45;&gt;Node7</title>
<path fill="none" stroke="midnightblue" d="M655.793,-591.684C592.809,-583.257 489.629,-567.968 402,-548 397.298,-546.929 392.391,-545.67 387.559,-544.345"/>
<polygon fill="midnightblue" stroke="midnightblue" points="388.41,-540.948 377.833,-541.57 386.489,-547.679 388.41,-540.948"/>
</g>
<!-- Node8 -->
<g id="node8" class="node"><title>Node8</title>
<g id="a_node8"><a xlink:href="../../d8/d14/scripting_8qh.html" target="_top" xlink:title="../scripting.qh">
<polygon fill="none" stroke="black" points="627,-522.5 627,-541.5 703,-541.5 703,-522.5 627,-522.5"/>
<text text-anchor="middle" x="665" y="-529.5" font-family="Helvetica,sans-Serif" font-size="10.00">../scripting.qh</text>
</a>
</g>
</g>
<!-- Node2&#45;&gt;Node8 -->
<g id="edge7" class="edge"><title>Node2&#45;&gt;Node8</title>
<path fill="none" stroke="midnightblue" d="M703.368,-584.679C695.803,-574.49 685.609,-560.759 677.63,-550.011"/>
<polygon fill="midnightblue" stroke="midnightblue" points="680.326,-547.771 671.554,-541.828 674.705,-551.944 680.326,-547.771"/>
</g>
<!-- Node9 -->
<g id="node9" class="node"><title>Node9</title>
<g id="a_node9"><a xlink:href="../../d1/d2a/waypoints_8qh.html" target="_top" xlink:title="../waypoints.qh">
<polygon fill="none" stroke="black" points="721.5,-522.5 721.5,-541.5 804.5,-541.5 804.5,-522.5 721.5,-522.5"/>
<text text-anchor="middle" x="763" y="-529.5" font-family="Helvetica,sans-Serif" font-size="10.00">../waypoints.qh</text>
</a>
</g>
</g>
<!-- Node2&#45;&gt;Node9 -->
<g id="edge8" class="edge"><title>Node2&#45;&gt;Node9</title>
<path fill="none" stroke="midnightblue" d="M724.632,-584.679C732.197,-574.49 742.391,-560.759 750.37,-550.011"/>
<polygon fill="midnightblue" stroke="midnightblue" points="753.295,-551.944 756.446,-541.828 747.674,-547.771 753.295,-551.944"/>
</g>
<!-- Node10 -->
<g id="node10" class="node"><title>Node10</title>
<g id="a_node10"><a xlink:href="../../d0/d8b/common_2constants_8qh.html" target="_top" xlink:title="common/constants.qh">
<polygon fill="none" stroke="black" points="895.5,-0.5 895.5,-19.5 1008.5,-19.5 1008.5,-0.5 895.5,-0.5"/>
<text text-anchor="middle" x="952" y="-7.5" font-family="Helvetica,sans-Serif" font-size="10.00">common/constants.qh</text>
</a>
</g>
</g>
<!-- Node2&#45;&gt;Node10 -->
<g id="edge9" class="edge"><title>Node2&#45;&gt;Node10</title>
<path fill="none" stroke="midnightblue" d="M760.037,-584.908C779.004,-576.92 799.625,-565.03 813,-548 836.437,-518.159 833,-502.945 833,-465 833,-465 833,-465 833,-121 833,-88.3976 844.004,-79.1105 867,-56 881.177,-41.7523 900.815,-30.954 917.644,-23.5113"/>
<polygon fill="midnightblue" stroke="midnightblue" points="919.299,-26.6128 927.166,-19.5163 916.59,-20.158 919.299,-26.6128"/>
</g>
<!-- Node11 -->
<g id="node11" class="node"><title>Node11</title>
<g id="a_node11"><a xlink:href="../../d5/d08/net__linked_8qh.html" target="_top" xlink:title="common/net_linked.qh">
<polygon fill="none" stroke="black" points="861.5,-522.5 861.5,-541.5 976.5,-541.5 976.5,-522.5 861.5,-522.5"/>
<text text-anchor="middle" x="919" y="-529.5" font-family="Helvetica,sans-Serif" font-size="10.00">common/net_linked.qh</text>
</a>
</g>
</g>
<!-- Node2&#45;&gt;Node11 -->
<g id="edge10" class="edge"><title>Node2&#45;&gt;Node11</title>
<path fill="none" stroke="midnightblue" d="M757.726,-584.922C794.971,-572.931 847.853,-555.906 882.772,-544.664"/>
<polygon fill="midnightblue" stroke="midnightblue" points="884.11,-547.91 892.556,-541.514 881.964,-541.247 884.11,-547.91"/>
</g>
<!-- Node12 -->
<g id="node12" class="node"><title>Node12</title>
<g id="a_node12"><a xlink:href="../../de/d70/common_2physics_2player_8qh.html" target="_top" xlink:title="common/physics/player.qh">
<polygon fill="none" stroke="black" points="995,-522.5 995,-541.5 1129,-541.5 1129,-522.5 995,-522.5"/>
<text text-anchor="middle" x="1062" y="-529.5" font-family="Helvetica,sans-Serif" font-size="10.00">common/physics/player.qh</text>
</a>
</g>
</g>
<!-- Node2&#45;&gt;Node12 -->
<g id="edge11" class="edge"><title>Node2&#45;&gt;Node12</title>
<path fill="none" stroke="midnightblue" d="M772.171,-588.164C827.062,-577.912 911.649,-562.047 985,-548 992.618,-546.541 1000.66,-544.989 1008.55,-543.457"/>
<polygon fill="midnightblue" stroke="midnightblue" points="1009.29,-546.88 1018.44,-541.537 1007.95,-540.009 1009.29,-546.88"/>
</g>
<!-- Node13 -->
<g id="node13" class="node"><title>Node13</title>
<g id="a_node13"><a xlink:href="../../db/d9f/state_8qh.html" target="_top" xlink:title="common/state.qh">
<polygon fill="none" stroke="black" points="1147,-522.5 1147,-541.5 1239,-541.5 1239,-522.5 1147,-522.5"/>
<text text-anchor="middle" x="1193" y="-529.5" font-family="Helvetica,sans-Serif" font-size="10.00">common/state.qh</text>
</a>
</g>
</g>
<!-- Node2&#45;&gt;Node13 -->
<g id="edge12" class="edge"><title>Node2&#45;&gt;Node13</title>
<path fill="none" stroke="midnightblue" d="M772.027,-594.73C854.085,-588.08 1008.48,-573.31 1138,-548 1143.52,-546.92 1149.31,-545.58 1154.97,-544.148"/>
<polygon fill="midnightblue" stroke="midnightblue" points="1156.16,-547.454 1164.92,-541.509 1154.36,-540.688 1156.16,-547.454"/>
</g>
<!-- Node14 -->
<g id="node14" class="node"><title>Node14</title>
<g id="a_node14"><a xlink:href="../../df/df3/common_2items_2__mod_8qh.html" target="_top" xlink:title="common/items/_mod.qh">
<polygon fill="none" stroke="black" points="1257,-522.5 1257,-541.5 1379,-541.5 1379,-522.5 1257,-522.5"/>
<text text-anchor="middle" x="1318" y="-529.5" font-family="Helvetica,sans-Serif" font-size="10.00">common/items/_mod.qh</text>
</a>
</g>
</g>
<!-- Node2&#45;&gt;Node14 -->
<g id="edge13" class="edge"><title>Node2&#45;&gt;Node14</title>
<path fill="none" stroke="midnightblue" d="M772.352,-595.648C870.835,-589.495 1076.12,-574.533 1248,-548 1255.86,-546.787 1264.16,-545.243 1272.2,-543.61"/>
<polygon fill="midnightblue" stroke="midnightblue" points="1273.11,-546.994 1282.18,-541.511 1271.67,-540.144 1273.11,-546.994"/>
</g>
<!-- Node32 -->
<g id="node32" class="node"><title>Node32</title>
<g id="a_node32"><a xlink:href="../../dd/d2d/teleporters_8qh.html" target="_top" xlink:title="common/triggers/teleporters.qh">
<polygon fill="none" stroke="black" points="1397,-522.5 1397,-541.5 1549,-541.5 1549,-522.5 1397,-522.5"/>
<text text-anchor="middle" x="1473" y="-529.5" font-family="Helvetica,sans-Serif" font-size="10.00">common/triggers/teleporters.qh</text>
</a>
</g>
</g>
<!-- Node2&#45;&gt;Node32 -->
<g id="edge42" class="edge"><title>Node2&#45;&gt;Node32</title>
<path fill="none" stroke="midnightblue" d="M772.345,-596.536C889.433,-591.16 1161.25,-576.515 1388,-548 1398.15,-546.724 1408.93,-545.062 1419.28,-543.311"/>
<polygon fill="midnightblue" stroke="midnightblue" points="1420.2,-546.704 1429.45,-541.541 1419,-539.807 1420.2,-546.704"/>
</g>
<!-- Node33 -->
<g id="node33" class="node"><title>Node33</title>
<g id="a_node33"><a xlink:href="../../d9/de7/jumppads_8qh.html" target="_top" xlink:title="common/triggers/trigger\l/jumppads.qh">
<polygon fill="none" stroke="black" points="1567.5,-517 1567.5,-547 1686.5,-547 1686.5,-517 1567.5,-517"/>
<text text-anchor="start" x="1575.5" y="-535" font-family="Helvetica,sans-Serif" font-size="10.00">common/triggers/trigger</text>
<text text-anchor="middle" x="1627" y="-524" font-family="Helvetica,sans-Serif" font-size="10.00">/jumppads.qh</text>
</a>
</g>
</g>
<!-- Node2&#45;&gt;Node33 -->
<g id="edge43" class="edge"><title>Node2&#45;&gt;Node33</title>
<path fill="none" stroke="midnightblue" d="M772.118,-598.557C907.926,-596.863 1256.67,-588.694 1557.05,-547.975"/>
<polygon fill="midnightblue" stroke="midnightblue" points="1557.83,-551.4 1567.26,-546.575 1556.88,-544.465 1557.83,-551.4"/>
</g>
<!-- Node34 -->
<g id="node34" class="node"><title>Node34</title>
<g id="a_node34"><a xlink:href="../../d7/d71/lib_2warpzone_2common_8qh.html" target="_top" xlink:title="lib/warpzone/common.qh">
<polygon fill="none" stroke="black" points="410.5,-522.5 410.5,-541.5 535.5,-541.5 535.5,-522.5 410.5,-522.5"/>
<text text-anchor="middle" x="473" y="-529.5" font-family="Helvetica,sans-Serif" font-size="10.00">lib/warpzone/common.qh</text>
</a>
</g>
</g>
<!-- Node2&#45;&gt;Node34 -->
<g id="edge44" class="edge"><title>Node2&#45;&gt;Node34</title>
<path fill="none" stroke="midnightblue" d="M662.595,-584.922C618.152,-572.751 554.769,-555.393 513.754,-544.161"/>
<polygon fill="midnightblue" stroke="midnightblue" points="514.657,-540.779 504.088,-541.514 512.809,-547.531 514.657,-540.779"/>
</g>
<!-- Node15 -->
<g id="node15" class="node"><title>Node15</title>
<g id="a_node15"><a xlink:href="../../d0/d7e/items_2all_8qh.html" target="_top" xlink:title="common/items/all.qh">
<polygon fill="none" stroke="black" points="1120.5,-168.5 1120.5,-187.5 1227.5,-187.5 1227.5,-168.5 1120.5,-168.5"/>
<text text-anchor="middle" x="1174" y="-175.5" font-family="Helvetica,sans-Serif" font-size="10.00">common/items/all.qh</text>
</a>
</g>
</g>
<!-- Node14&#45;&gt;Node15 -->
<g id="edge14" class="edge"><title>Node14&#45;&gt;Node15</title>
<path fill="none" stroke="midnightblue" d="M1324.05,-522.472C1337.56,-502.568 1369,-451.082 1369,-403 1369,-403 1369,-403 1369,-289 1369,-227.49 1294.49,-199.993 1237.58,-187.962"/>
<polygon fill="midnightblue" stroke="midnightblue" points="1238.03,-184.483 1227.54,-185.958 1236.66,-191.348 1238.03,-184.483"/>
</g>
<!-- Node24 -->
<g id="node24" class="node"><title>Node24</title>
<g id="a_node24"><a xlink:href="../../d9/dd1/common_2items_2item_2__mod_8qh.html" target="_top" xlink:title="common/items/item/\l_mod.qh">
<polygon fill="none" stroke="black" points="1070,-449 1070,-479 1176,-479 1176,-449 1070,-449"/>
<text text-anchor="start" x="1078" y="-467" font-family="Helvetica,sans-Serif" font-size="10.00">common/items/item/</text>
<text text-anchor="middle" x="1123" y="-456" font-family="Helvetica,sans-Serif" font-size="10.00">_mod.qh</text>
</a>
</g>
</g>
<!-- Node14&#45;&gt;Node24 -->
<g id="edge24" class="edge"><title>Node14&#45;&gt;Node24</title>
<path fill="none" stroke="midnightblue" d="M1292.51,-522.372C1262.66,-512.268 1212.46,-495.277 1174.41,-482.402"/>
<polygon fill="midnightblue" stroke="midnightblue" points="1175.12,-478.947 1164.53,-479.056 1172.88,-485.578 1175.12,-478.947"/>
</g>
<!-- Node16 -->
<g id="node16" class="node"><title>Node16</title>
<g id="a_node16"><a xlink:href="../../d9/df2/common_2command_2__mod_8qh.html" target="_top" xlink:title="common/command/_mod.qh">
<polygon fill="none" stroke="black" points="1158,-112.5 1158,-131.5 1298,-131.5 1298,-112.5 1158,-112.5"/>
<text text-anchor="middle" x="1228" y="-119.5" font-family="Helvetica,sans-Serif" font-size="10.00">common/command/_mod.qh</text>
</a>
</g>
</g>
<!-- Node15&#45;&gt;Node16 -->
<g id="edge15" class="edge"><title>Node15&#45;&gt;Node16</title>
<path fill="none" stroke="midnightblue" d="M1182.92,-168.083C1190.78,-160.22 1202.43,-148.569 1211.92,-139.081"/>
<polygon fill="midnightblue" stroke="midnightblue" points="1214.65,-141.297 1219.25,-131.751 1209.7,-136.347 1214.65,-141.297"/>
</g>
<!-- Node22 -->
<g id="node22" class="node"><title>Node22</title>
<g id="a_node22"><a xlink:href="../../d7/d7c/common_2items_2item_8qh.html" target="_top" xlink:title="item.qh">
<polygon fill="none" stroke="black" points="998.5,-112.5 998.5,-131.5 1047.5,-131.5 1047.5,-112.5 998.5,-112.5"/>
<text text-anchor="middle" x="1023" y="-119.5" font-family="Helvetica,sans-Serif" font-size="10.00">item.qh</text>
</a>
</g>
</g>
<!-- Node15&#45;&gt;Node22 -->
<g id="edge22" class="edge"><title>Node15&#45;&gt;Node22</title>
<path fill="none" stroke="midnightblue" d="M1150.07,-168.444C1124.78,-159.399 1084.7,-145.064 1056.32,-134.916"/>
<polygon fill="midnightblue" stroke="midnightblue" points="1057.41,-131.588 1046.81,-131.516 1055.05,-138.179 1057.41,-131.588"/>
</g>
<!-- Node17 -->
<g id="node17" class="node"><title>Node17</title>
<g id="a_node17"><a xlink:href="../../d7/d88/generic_8qh.html" target="_top" xlink:title="common/command/generic.qh">
<polygon fill="none" stroke="black" points="997,-56.5 997,-75.5 1145,-75.5 1145,-56.5 997,-56.5"/>
<text text-anchor="middle" x="1071" y="-63.5" font-family="Helvetica,sans-Serif" font-size="10.00">common/command/generic.qh</text>
</a>
</g>
</g>
<!-- Node16&#45;&gt;Node17 -->
<g id="edge16" class="edge"><title>Node16&#45;&gt;Node17</title>
<path fill="none" stroke="midnightblue" d="M1203.12,-112.444C1176.71,-103.359 1134.78,-88.9388 1105.26,-78.7831"/>
<polygon fill="midnightblue" stroke="midnightblue" points="1106.36,-75.4593 1095.76,-75.5164 1104.08,-82.0787 1106.36,-75.4593"/>
</g>
<!-- Node18 -->
<g id="node18" class="node"><title>Node18</title>
<g id="a_node18"><a xlink:href="../../d8/d96/markup_8qh.html" target="_top" xlink:title="common/command/markup.qh">
<polygon fill="none" stroke="black" points="1459.5,-56.5 1459.5,-75.5 1608.5,-75.5 1608.5,-56.5 1459.5,-56.5"/>
<text text-anchor="middle" x="1534" y="-63.5" font-family="Helvetica,sans-Serif" font-size="10.00">common/command/markup.qh</text>
</a>
</g>
</g>
<!-- Node16&#45;&gt;Node18 -->
<g id="edge18" class="edge"><title>Node16&#45;&gt;Node18</title>
<path fill="none" stroke="midnightblue" d="M1276.49,-112.444C1330.54,-102.905 1417.93,-87.4834 1475.67,-77.293"/>
<polygon fill="midnightblue" stroke="midnightblue" points="1476.5,-80.7011 1485.74,-75.5164 1475.28,-73.8076 1476.5,-80.7011"/>
</g>
<!-- Node19 -->
<g id="node19" class="node"><title>Node19</title>
<g id="a_node19"><a xlink:href="../../d4/dab/common_2command_2reg_8qh.html" target="_top" xlink:title="common/command/reg.qh">
<polygon fill="none" stroke="black" points="1311,-56.5 1311,-75.5 1441,-75.5 1441,-56.5 1311,-56.5"/>
<text text-anchor="middle" x="1376" y="-63.5" font-family="Helvetica,sans-Serif" font-size="10.00">common/command/reg.qh</text>
</a>
</g>
</g>
<!-- Node16&#45;&gt;Node19 -->
<g id="edge19" class="edge"><title>Node16&#45;&gt;Node19</title>
<path fill="none" stroke="midnightblue" d="M1251.45,-112.444C1276.13,-103.438 1315.19,-89.1891 1342.98,-79.049"/>
<polygon fill="midnightblue" stroke="midnightblue" points="1344.46,-82.2321 1352.66,-75.5164 1342.06,-75.6561 1344.46,-82.2321"/>
</g>
<!-- Node21 -->
<g id="node21" class="node"><title>Node21</title>
<g id="a_node21"><a xlink:href="../../d4/db4/rpn_8qh.html" target="_top" xlink:title="common/command/rpn.qh">
<polygon fill="none" stroke="black" points="1163,-56.5 1163,-75.5 1293,-75.5 1293,-56.5 1163,-56.5"/>
<text text-anchor="middle" x="1228" y="-63.5" font-family="Helvetica,sans-Serif" font-size="10.00">common/command/rpn.qh</text>
</a>
</g>
</g>
<!-- Node16&#45;&gt;Node21 -->
<g id="edge21" class="edge"><title>Node16&#45;&gt;Node21</title>
<path fill="none" stroke="midnightblue" d="M1228,-112.083C1228,-105.006 1228,-94.8611 1228,-85.9865"/>
<polygon fill="midnightblue" stroke="midnightblue" points="1231.5,-85.751 1228,-75.7511 1224.5,-85.7511 1231.5,-85.751"/>
</g>
<!-- Node17&#45;&gt;Node10 -->
<g id="edge17" class="edge"><title>Node17&#45;&gt;Node10</title>
<path fill="none" stroke="midnightblue" d="M1052.14,-56.4435C1032.73,-47.6356 1002.27,-33.8116 980.035,-23.722"/>
<polygon fill="midnightblue" stroke="midnightblue" points="981.32,-20.4615 970.768,-19.5164 978.428,-26.836 981.32,-20.4615"/>
</g>
<!-- Node20 -->
<g id="node20" class="node"><title>Node20</title>
<g id="a_node20"><a xlink:href="../../d9/da1/common_2command_2command_8qh.html" target="_top" xlink:title="command.qh">
<polygon fill="none" stroke="black" points="1339.5,-0.5 1339.5,-19.5 1412.5,-19.5 1412.5,-0.5 1339.5,-0.5"/>
<text text-anchor="middle" x="1376" y="-7.5" font-family="Helvetica,sans-Serif" font-size="10.00">command.qh</text>
</a>
</g>
</g>
<!-- Node19&#45;&gt;Node20 -->
<g id="edge20" class="edge"><title>Node19&#45;&gt;Node20</title>
<path fill="none" stroke="midnightblue" d="M1376,-56.083C1376,-49.0059 1376,-38.8611 1376,-29.9865"/>
<polygon fill="midnightblue" stroke="midnightblue" points="1379.5,-29.751 1376,-19.7511 1372.5,-29.7511 1379.5,-29.751"/>
</g>
<!-- Node23 -->
<g id="node23" class="node"><title>Node23</title>
<g id="a_node23"><a xlink:href="../../de/d75/t__items_8qh.html" target="_top" xlink:title="common/t_items.qh">
<polygon fill="none" stroke="black" points="875.5,-56.5 875.5,-75.5 978.5,-75.5 978.5,-56.5 875.5,-56.5"/>
<text text-anchor="middle" x="927" y="-63.5" font-family="Helvetica,sans-Serif" font-size="10.00">common/t_items.qh</text>
</a>
</g>
</g>
<!-- Node22&#45;&gt;Node23 -->
<g id="edge23" class="edge"><title>Node22&#45;&gt;Node23</title>
<path fill="none" stroke="midnightblue" d="M1007.58,-112.324C992.46,-103.822 969.185,-90.7288 951.529,-80.7975"/>
<polygon fill="midnightblue" stroke="midnightblue" points="952.817,-77.5066 942.386,-75.6545 949.386,-83.6077 952.817,-77.5066"/>
</g>
<!-- Node25 -->
<g id="node25" class="node"><title>Node25</title>
<g id="a_node25"><a xlink:href="../../de/d43/common_2items_2item_2ammo_8qh.html" target="_top" xlink:title="common/items/item/ammo.qh">
<polygon fill="none" stroke="black" points="1185,-336.5 1185,-355.5 1331,-355.5 1331,-336.5 1185,-336.5"/>
<text text-anchor="middle" x="1258" y="-343.5" font-family="Helvetica,sans-Serif" font-size="10.00">common/items/item/ammo.qh</text>
</a>
</g>
</g>
<!-- Node24&#45;&gt;Node25 -->
<g id="edge25" class="edge"><title>Node24&#45;&gt;Node25</title>
<path fill="none" stroke="midnightblue" d="M1176.02,-455.855C1225.67,-447.948 1294.61,-433.422 1311,-412 1324.65,-394.148 1302.57,-374.192 1282.89,-361.16"/>
<polygon fill="midnightblue" stroke="midnightblue" points="1284.48,-358.029 1274.15,-355.692 1280.77,-363.963 1284.48,-358.029"/>
</g>
<!-- Node26 -->
<g id="node26" class="node"><title>Node26</title>
<g id="a_node26"><a xlink:href="../../de/dda/pickup_8qh.html" target="_top" xlink:title="pickup.qh">
<polygon fill="none" stroke="black" points="1041.5,-280.5 1041.5,-299.5 1100.5,-299.5 1100.5,-280.5 1041.5,-280.5"/>
<text text-anchor="middle" x="1071" y="-287.5" font-family="Helvetica,sans-Serif" font-size="10.00">pickup.qh</text>
</a>
</g>
</g>
<!-- Node24&#45;&gt;Node26 -->
<g id="edge40" class="edge"><title>Node24&#45;&gt;Node26</title>
<path fill="none" stroke="midnightblue" d="M1069.73,-458.516C1028.8,-452.908 972.439,-440.303 931,-412 905.528,-394.602 899.586,-385.319 890,-356 887.238,-347.551 884.525,-343.003 890,-336 907.187,-314.017 983.274,-301.237 1031.16,-295.232"/>
<polygon fill="midnightblue" stroke="midnightblue" points="1031.7,-298.692 1041.21,-294.019 1030.86,-291.743 1031.7,-298.692"/>
</g>
<!-- Node28 -->
<g id="node28" class="node"><title>Node28</title>
<g id="a_node28"><a xlink:href="../../d7/d60/armor_8qh.html" target="_top" xlink:title="common/items/item/armor.qh">
<polygon fill="none" stroke="black" points="899,-336.5 899,-355.5 1043,-355.5 1043,-336.5 899,-336.5"/>
<text text-anchor="middle" x="971" y="-343.5" font-family="Helvetica,sans-Serif" font-size="10.00">common/items/item/armor.qh</text>
</a>
</g>
</g>
<!-- Node24&#45;&gt;Node28 -->
<g id="edge32" class="edge"><title>Node24&#45;&gt;Node28</title>
<path fill="none" stroke="midnightblue" d="M1069.55,-455.346C1021.36,-447.222 955.708,-432.684 940,-412 928.496,-396.852 941.615,-376.751 954.153,-362.935"/>
<polygon fill="midnightblue" stroke="midnightblue" points="956.813,-365.22 961.277,-355.611 951.795,-360.339 956.813,-365.22"/>
</g>
<!-- Node29 -->
<g id="node29" class="node"><title>Node29</title>
<g id="a_node29"><a xlink:href="../../da/d6a/health_8qh.html" target="_top" xlink:title="common/items/item/health.qh">
<polygon fill="none" stroke="black" points="949,-392.5 949,-411.5 1095,-411.5 1095,-392.5 949,-392.5"/>
<text text-anchor="middle" x="1022" y="-399.5" font-family="Helvetica,sans-Serif" font-size="10.00">common/items/item/health.qh</text>
</a>
</g>
</g>
<!-- Node24&#45;&gt;Node29 -->
<g id="edge34" class="edge"><title>Node24&#45;&gt;Node29</title>
<path fill="none" stroke="midnightblue" d="M1099.32,-448.933C1083.04,-439.262 1061.52,-426.479 1045.32,-416.855"/>
<polygon fill="midnightblue" stroke="midnightblue" points="1046.86,-413.698 1036.48,-411.6 1043.29,-419.717 1046.86,-413.698"/>
</g>
<!-- Node30 -->
<g id="node30" class="node"><title>Node30</title>
<g id="a_node30"><a xlink:href="../../d2/d37/jetpack_8qh.html" target="_top" xlink:title="common/items/item/jetpack.qh">
<polygon fill="none" stroke="black" points="1151.5,-392.5 1151.5,-411.5 1302.5,-411.5 1302.5,-392.5 1151.5,-392.5"/>
<text text-anchor="middle" x="1227" y="-399.5" font-family="Helvetica,sans-Serif" font-size="10.00">common/items/item/jetpack.qh</text>
</a>
</g>
</g>
<!-- Node24&#45;&gt;Node30 -->
<g id="edge36" class="edge"><title>Node24&#45;&gt;Node30</title>
<path fill="none" stroke="midnightblue" d="M1147.38,-448.933C1164.15,-439.262 1186.3,-426.479 1202.99,-416.855"/>
<polygon fill="midnightblue" stroke="midnightblue" points="1205.18,-419.629 1212.09,-411.6 1201.68,-413.566 1205.18,-419.629"/>
</g>
<!-- Node31 -->
<g id="node31" class="node"><title>Node31</title>
<g id="a_node31"><a xlink:href="../../d6/d88/powerup_8qh.html" target="_top" xlink:title="powerup.qh">
<polygon fill="none" stroke="black" points="1099.5,-336.5 1099.5,-355.5 1166.5,-355.5 1166.5,-336.5 1099.5,-336.5"/>
<text text-anchor="middle" x="1133" y="-343.5" font-family="Helvetica,sans-Serif" font-size="10.00">powerup.qh</text>
</a>
</g>
</g>
<!-- Node24&#45;&gt;Node31 -->
<g id="edge41" class="edge"><title>Node24&#45;&gt;Node31</title>
<path fill="none" stroke="midnightblue" d="M1124.23,-448.776C1126.02,-427.971 1129.36,-389.198 1131.36,-365.981"/>
<polygon fill="midnightblue" stroke="midnightblue" points="1134.88,-365.971 1132.25,-355.707 1127.9,-365.369 1134.88,-365.971"/>
</g>
<!-- Node25&#45;&gt;Node26 -->
<g id="edge26" class="edge"><title>Node25&#45;&gt;Node26</title>
<path fill="none" stroke="midnightblue" d="M1228.37,-336.444C1196.5,-327.241 1145.67,-312.562 1110.44,-302.388"/>
<polygon fill="midnightblue" stroke="midnightblue" points="1111.07,-298.928 1100.49,-299.516 1109.13,-305.653 1111.07,-298.928"/>
</g>
<!-- Node26&#45;&gt;Node22 -->
<g id="edge30" class="edge"><title>Node26&#45;&gt;Node22</title>
<path fill="none" stroke="midnightblue" d="M1064.08,-280.247C1057.59,-271.558 1048.12,-257.605 1043,-244 1029.97,-209.41 1025.42,-166.093 1023.83,-141.789"/>
<polygon fill="midnightblue" stroke="midnightblue" points="1027.31,-141.301 1023.27,-131.508 1020.32,-141.684 1027.31,-141.301"/>
</g>
<!-- Node26&#45;&gt;Node23 -->
<g id="edge31" class="edge"><title>Node26&#45;&gt;Node23</title>
<path fill="none" stroke="midnightblue" d="M1062.99,-280.378C1054.98,-271.562 1042.51,-257.312 1033,-244 993.352,-188.514 954.047,-117.656 936.505,-84.9832"/>
<polygon fill="midnightblue" stroke="midnightblue" points="939.394,-82.9626 931.601,-75.7846 933.217,-86.2555 939.394,-82.9626"/>
</g>
<!-- Node27 -->
<g id="node27" class="node"><title>Node27</title>
<g id="a_node27"><a xlink:href="../../dc/d9d/inventory_8qh.html" target="_top" xlink:title="common/items/inventory.qh">
<polygon fill="none" stroke="black" points="1051.5,-224.5 1051.5,-243.5 1188.5,-243.5 1188.5,-224.5 1051.5,-224.5"/>
<text text-anchor="middle" x="1120" y="-231.5" font-family="Helvetica,sans-Serif" font-size="10.00">common/items/inventory.qh</text>
</a>
</g>
</g>
<!-- Node26&#45;&gt;Node27 -->
<g id="edge27" class="edge"><title>Node26&#45;&gt;Node27</title>
<path fill="none" stroke="midnightblue" d="M1073.93,-280.083C1079.46,-272.141 1089.82,-260.335 1099.46,-250.797"/>
<polygon fill="midnightblue" stroke="midnightblue" points="1102.06,-253.16 1106.93,-243.751 1097.25,-248.068 1102.06,-253.16"/>
</g>
<!-- Node27&#45;&gt;Node15 -->
<g id="edge28" class="edge"><title>Node27&#45;&gt;Node15</title>
<path fill="none" stroke="midnightblue" d="M1128.92,-224.083C1136.78,-216.22 1148.43,-204.569 1157.92,-195.081"/>
<polygon fill="midnightblue" stroke="midnightblue" points="1160.65,-197.297 1165.25,-187.751 1155.7,-192.347 1160.65,-197.297"/>
</g>
<!-- Node27&#45;&gt;Node26 -->
<g id="edge29" class="edge"><title>Node27&#45;&gt;Node26</title>
<path fill="none" stroke="midnightblue" d="M1117.13,-243.834C1111.61,-251.791 1101.17,-263.673 1091.49,-273.253"/>
<polygon fill="midnightblue" stroke="midnightblue" points="1088.86,-270.918 1083.99,-280.324 1093.66,-276.011 1088.86,-270.918"/>
</g>
<!-- Node28&#45;&gt;Node26 -->
<g id="edge33" class="edge"><title>Node28&#45;&gt;Node26</title>
<path fill="none" stroke="midnightblue" d="M987.067,-336.324C1002.96,-327.743 1027.51,-314.486 1045.96,-304.522"/>
<polygon fill="midnightblue" stroke="midnightblue" points="1047.84,-307.486 1054.97,-299.655 1044.51,-301.326 1047.84,-307.486"/>
</g>
<!-- Node29&#45;&gt;Node26 -->
<g id="edge35" class="edge"><title>Node29&#45;&gt;Node26</title>
<path fill="none" stroke="midnightblue" d="M1029.07,-392.177C1035.77,-383.436 1045.73,-369.446 1052,-356 1058.99,-341.015 1064.03,-322.879 1067.16,-309.576"/>
<polygon fill="midnightblue" stroke="midnightblue" points="1070.6,-310.233 1069.33,-299.713 1063.76,-308.724 1070.6,-310.233"/>
</g>
<!-- Node30&#45;&gt;Node25 -->
<g id="edge37" class="edge"><title>Node30&#45;&gt;Node25</title>
<path fill="none" stroke="midnightblue" d="M1232.12,-392.083C1236.41,-384.613 1242.66,-373.724 1247.94,-364.52"/>
<polygon fill="midnightblue" stroke="midnightblue" points="1251.03,-366.166 1252.98,-355.751 1244.96,-362.681 1251.03,-366.166"/>
</g>
<!-- Node30&#45;&gt;Node31 -->
<g id="edge38" class="edge"><title>Node30&#45;&gt;Node31</title>
<path fill="none" stroke="midnightblue" d="M1211.9,-392.324C1197.1,-383.822 1174.31,-370.729 1157.02,-360.797"/>
<polygon fill="midnightblue" stroke="midnightblue" points="1158.48,-357.601 1148.07,-355.655 1154.99,-363.671 1158.48,-357.601"/>
</g>
<!-- Node31&#45;&gt;Node26 -->
<g id="edge39" class="edge"><title>Node31&#45;&gt;Node26</title>
<path fill="none" stroke="midnightblue" d="M1123.04,-336.324C1113.87,-328.341 1100.06,-316.313 1088.97,-306.653"/>
<polygon fill="midnightblue" stroke="midnightblue" points="1090.98,-303.762 1081.14,-299.834 1086.38,-309.041 1090.98,-303.762"/>
</g>
<!-- Node35&#45;&gt;Node3 -->
<g id="edge47" class="edge"><title>Node35&#45;&gt;Node3</title>
<path fill="none" stroke="midnightblue" d="M200.613,-584.841C179.433,-573.476 149.898,-557.628 129.073,-546.454"/>
<polygon fill="midnightblue" stroke="midnightblue" points="130.646,-543.326 120.18,-541.682 127.337,-549.494 130.646,-543.326"/>
</g>
<!-- Node35&#45;&gt;Node4 -->
<g id="edge48" class="edge"><title>Node35&#45;&gt;Node4</title>
<path fill="none" stroke="midnightblue" d="M218.755,-584.679C213.006,-574.694 205.298,-561.307 199.168,-550.66"/>
<polygon fill="midnightblue" stroke="midnightblue" points="202.106,-548.748 194.083,-541.828 196.039,-552.241 202.106,-548.748"/>
</g>
<!-- Node35&#45;&gt;Node6 -->
<g id="edge49" class="edge"><title>Node35&#45;&gt;Node6</title>
<path fill="none" stroke="midnightblue" d="M235.245,-584.679C240.994,-574.694 248.702,-561.307 254.832,-550.66"/>
<polygon fill="midnightblue" stroke="midnightblue" points="257.961,-552.241 259.917,-541.828 251.894,-548.748 257.961,-552.241"/>
</g>
<!-- Node35&#45;&gt;Node7 -->
<g id="edge50" class="edge"><title>Node35&#45;&gt;Node7</title>
<path fill="none" stroke="midnightblue" d="M253.601,-584.841C274.953,-573.476 304.729,-557.628 325.723,-546.454"/>
<polygon fill="midnightblue" stroke="midnightblue" points="327.506,-549.47 334.689,-541.682 324.217,-543.291 327.506,-549.47"/>
</g>
<!-- Node36 -->
<g id="node36" class="node"><title>Node36</title>
<g id="a_node36"><a xlink:href="../../d3/d92/roles_8qh.html" target="_top" xlink:title="roles.qh">
<polygon fill="none" stroke="black" points="-0.5,-522.5 -0.5,-541.5 50.5,-541.5 50.5,-522.5 -0.5,-522.5"/>
<text text-anchor="middle" x="25" y="-529.5" font-family="Helvetica,sans-Serif" font-size="10.00">roles.qh</text>
</a>
</g>
</g>
<!-- Node35&#45;&gt;Node36 -->
<g id="edge46" class="edge"><title>Node35&#45;&gt;Node36</title>
<path fill="none" stroke="midnightblue" d="M178.308,-585.642C144.748,-576.068 99.289,-562.37 60,-548 57.8813,-547.225 55.7055,-546.39 53.5255,-545.525"/>
<polygon fill="midnightblue" stroke="midnightblue" points="54.6839,-542.217 44.1053,-541.632 52.0101,-548.686 54.6839,-542.217"/>
</g>
</g>
</svg>
        <g id="navigator" transform="translate(0 0)" fill="#404254">
                <rect fill="#f2f5e9" fill-opacity="0.5" stroke="#606060" stroke-width=".5" x="0" y="0" width="60" height="60"/>
                <use id="zoomplus" xlink:href="#zoomPlus" x="17" y="9" onmousedown="handleZoom(evt,'in')"/>
                <use id="zoomminus" xlink:href="#zoomMin" x="42" y="9" onmousedown="handleZoom(evt,'out')"/>
                <use id="reset" xlink:href="#resetDef" x="30" y="36" onmousedown="handleReset()"/>
                <g id="arrowUp" xlink:href="#dirArrow" transform="translate(30 24)" onmousedown="handlePan(0,-1)">
                  <use xlink:href="#rim" fill="#404040">
                        <set attributeName="fill" to="#808080" begin="arrowUp.mouseover" end="arrowUp.mouseout"/>
                  </use>
                  <path fill="none" stroke="white" stroke-width="1.5" d="M0,-3.0v7 M-2.5,-0.5L0,-3.0L2.5,-0.5"/>
                </g>
                <g id="arrowRight" xlink:href="#dirArrow" transform="rotate(90) translate(36 -43)" onmousedown="handlePan(1,0)">
                  <use xlink:href="#rim" fill="#404040">
                        <set attributeName="fill" to="#808080" begin="arrowRight.mouseover" end="arrowRight.mouseout"/>
                  </use>
                  <path fill="none" stroke="white" stroke-width="1.5" d="M0,-3.0v7 M-2.5,-0.5L0,-3.0L2.5,-0.5"/>
                </g>
                <g id="arrowDown" xlink:href="#dirArrow" transform="rotate(180) translate(-30 -48)" onmousedown="handlePan(0,1)">
                  <use xlink:href="#rim" fill="#404040">
                        <set attributeName="fill" to="#808080" begin="arrowDown.mouseover" end="arrowDown.mouseout"/>
                  </use>
                  <path fill="none" stroke="white" stroke-width="1.5" d="M0,-3.0v7 M-2.5,-0.5L0,-3.0L2.5,-0.5"/>
                </g>
                <g id="arrowLeft" xlink:href="#dirArrow" transform="rotate(270) translate(-36 17)" onmousedown="handlePan(-1,0)">
                  <use xlink:href="#rim" fill="#404040">
                        <set attributeName="fill" to="#808080" begin="arrowLeft.mouseover" end="arrowLeft.mouseout"/>
                  </use>
                  <path fill="none" stroke="white" stroke-width="1.5" d="M0,-3.0v7 M-2.5,-0.5L0,-3.0L2.5,-0.5"/>
                </g>
        </g>
        <svg viewBox="0 0 15 15" width="100%" height="30px" preserveAspectRatio="xMaxYMin meet">
         <g id="arrow_out" transform="scale(0.3 0.3)">
          <a xlink:href="server_2bot_2default_2havocbot_2__mod_8inc__incl_org.svg" target="_base">
           <rect id="button" ry="5" rx="5" y="6" x="6" height="38" width="38"
                fill="#f2f5e9" fill-opacity="0.5" stroke="#606060" stroke-width="1.0"/>
           <path id="arrow"
             d="M 11.500037,31.436501 C 11.940474,20.09759 22.043105,11.32322 32.158766,21.979434 L 37.068811,17.246167 C 37.068811,17.246167 37.088388,32 37.088388,32 L 22.160133,31.978069 C 22.160133,31.978069 26.997745,27.140456 26.997745,27.140456 C 18.528582,18.264221 13.291696,25.230495 11.500037,31.436501 z"
             style="fill:#404040;"/>
          </a>
         </g>
        </svg>
</svg>
