<?xml version="1.0" encoding="UTF-8" standalone="no"?>
<!DOCTYPE svg PUBLIC "-//W3C//DTD SVG 1.1//EN"
 "http://www.w3.org/Graphics/SVG/1.1/DTD/svg11.dtd">
<!-- Generated by graphviz version 2.36.0 (20140111.2315)
 -->
<!-- Title: server/bot/default/havocbot/_mod.inc Pages: 1 -->
<!--zoomable 692 -->
<svg id="main" version="1.1" xmlns="http://www.w3.org/2000/svg" xmlns:xlink="http://www.w3.org/1999/xlink" xml:space="preserve" onload="init(evt)">
<style type="text/css"><![CDATA[
.edge:hover path { stroke: red; }
.edge:hover polygon { stroke: red; fill: red; }
]]></style>
<script type="text/javascript"><![CDATA[
var edges = document.getElementsByTagName('g');
if (edges && edges.length) {
  for (var i=0;i<edges.length;i++) {
    if (edges[i].id.substr(0,4)=='edge') {
      edges[i].setAttribute('class','edge');
    }
  }
}
]]></script>
        <defs>
                <circle id="rim" cx="0" cy="0" r="7"/>
                <circle id="rim2" cx="0" cy="0" r="3.5"/>
                <g id="zoomPlus">
                        <use xlink:href="#rim" fill="#404040">
                                <set attributeName="fill" to="#808080" begin="zoomplus.mouseover" end="zoomplus.mouseout"/>
                        </use>
                        <path d="M-4,0h8M0,-4v8" fill="none" stroke="white" stroke-width="1.5" pointer-events="none"/>
                </g>
                <g id="zoomMin">
                        <use xlink:href="#rim" fill="#404040">
                                <set attributeName="fill" to="#808080" begin="zoomminus.mouseover" end="zoomminus.mouseout"/>
                        </use>
                        <path d="M-4,0h8" fill="none" stroke="white" stroke-width="1.5" pointer-events="none"/>
                </g>
                <g id="dirArrow">
                        <path fill="none" stroke="white" stroke-width="1.5" d="M0,-3.0v7 M-2.5,-0.5L0,-3.0L2.5,-0.5"/>
                </g>
               <g id="resetDef">
                       <use xlink:href="#rim2" fill="#404040">
                               <set attributeName="fill" to="#808080" begin="reset.mouseover" end="reset.mouseout"/>
                       </use>
               </g>
        </defs>

<script type="text/javascript">
var viewWidth = 1954;
var viewHeight = 692;
var sectionId = 'dynsection-0';
</script>
<script xlink:href="../../svgpan.js"/>
<svg id="graph" class="graph">
<g id="viewport">
<title>server/bot/default/havocbot/_mod.inc</title>
<!-- Node1 -->
<g id="node1" class="node"><title>Node1</title>
<polygon fill="#bfbfbf" stroke="black" points="503,-653 503,-683 605,-683 605,-653 503,-653"/>
<text text-anchor="start" x="511" y="-671" font-family="Helvetica,sans-Serif" font-size="10.00">server/bot/default</text>
<text text-anchor="middle" x="554" y="-660" font-family="Helvetica,sans-Serif" font-size="10.00">/havocbot/_mod.inc</text>
</g>
<!-- Node2 -->
<g id="node2" class="node"><title>Node2</title>
<g id="a_node2"><a xlink:href="../../d2/de9/havocbot_8qc.html" target="_top" xlink:title="server/bot/default\l/havocbot/havocbot.qc">
<polygon fill="none" stroke="black" points="761,-585 761,-615 877,-615 877,-585 761,-585"/>
<text text-anchor="start" x="769" y="-603" font-family="Helvetica,sans-Serif" font-size="10.00">server/bot/default</text>
<text text-anchor="middle" x="819" y="-592" font-family="Helvetica,sans-Serif" font-size="10.00">/havocbot/havocbot.qc</text>
</a>
</g>
</g>
<!-- Node1&#45;&gt;Node2 -->
<g id="edge1" class="edge"><title>Node1&#45;&gt;Node2</title>
<path fill="none" stroke="midnightblue" d="M605.095,-654.275C647.131,-643.805 707.015,-628.891 752.734,-617.504"/>
<polygon fill="midnightblue" stroke="midnightblue" points="753.699,-620.871 762.557,-615.057 752.008,-614.078 753.699,-620.871"/>
</g>
<!-- Node37 -->
<g id="node37" class="node"><title>Node37</title>
<g id="a_node37"><a xlink:href="../../db/deb/roles_8qc.html" target="_top" xlink:title="server/bot/default\l/havocbot/roles.qc">
<polygon fill="none" stroke="black" points="198.5,-585 198.5,-615 295.5,-615 295.5,-585 198.5,-585"/>
<text text-anchor="start" x="206.5" y="-603" font-family="Helvetica,sans-Serif" font-size="10.00">server/bot/default</text>
<text text-anchor="middle" x="247" y="-592" font-family="Helvetica,sans-Serif" font-size="10.00">/havocbot/roles.qc</text>
</a>
</g>
</g>
<!-- Node1&#45;&gt;Node37 -->
<g id="edge47" class="edge"><title>Node1&#45;&gt;Node37</title>
<path fill="none" stroke="midnightblue" d="M502.961,-656.027C448.595,-644.34 362.673,-625.868 305.583,-613.594"/>
<polygon fill="midnightblue" stroke="midnightblue" points="306.137,-610.134 295.625,-611.454 304.666,-616.977 306.137,-610.134"/>
</g>
<!-- Node3 -->
<g id="node3" class="node"><title>Node3</title>
<g id="a_node3"><a xlink:href="../../d8/d39/havocbot_8qh.html" target="_top" xlink:title="havocbot.qh">
<polygon fill="none" stroke="black" points="170,-522.5 170,-541.5 240,-541.5 240,-522.5 170,-522.5"/>
<text text-anchor="middle" x="205" y="-529.5" font-family="Helvetica,sans-Serif" font-size="10.00">havocbot.qh</text>
</a>
</g>
</g>
<!-- Node2&#45;&gt;Node3 -->
<g id="edge2" class="edge"><title>Node2&#45;&gt;Node3</title>
<path fill="none" stroke="midnightblue" d="M760.88,-598.368C657.018,-596.23 433.182,-587.044 249,-548 244.825,-547.115 240.498,-545.956 236.26,-544.673"/>
<polygon fill="midnightblue" stroke="midnightblue" points="237.236,-541.31 226.644,-541.528 235.06,-547.963 237.236,-541.31"/>
</g>
<!-- Node4 -->
<g id="node4" class="node"><title>Node4</title>
<g id="a_node4"><a xlink:href="../../d6/d74/cvars_8qh.html" target="_top" xlink:title="../cvars.qh">
<polygon fill="none" stroke="black" points="258.5,-522.5 258.5,-541.5 321.5,-541.5 321.5,-522.5 258.5,-522.5"/>
<text text-anchor="middle" x="290" y="-529.5" font-family="Helvetica,sans-Serif" font-size="10.00">../cvars.qh</text>
</a>
</g>
</g>
<!-- Node2&#45;&gt;Node4 -->
<g id="edge3" class="edge"><title>Node2&#45;&gt;Node4</title>
<path fill="none" stroke="midnightblue" d="M760.993,-597.712C668.608,-594.603 482.871,-584.011 330,-548 326.575,-547.193 323.047,-546.171 319.57,-545.039"/>
<polygon fill="midnightblue" stroke="midnightblue" points="320.633,-541.703 310.038,-541.654 318.29,-548.299 320.633,-541.703"/>
</g>
<!-- Node5 -->
<g id="node5" class="node"><title>Node5</title>
<g id="a_node5"><a xlink:href="../../d3/d5a/aim_8qh.html" target="_top" xlink:title="../aim.qh">
<polygon fill="none" stroke="black" points="1796.5,-522.5 1796.5,-541.5 1851.5,-541.5 1851.5,-522.5 1796.5,-522.5"/>
<text text-anchor="middle" x="1824" y="-529.5" font-family="Helvetica,sans-Serif" font-size="10.00">../aim.qh</text>
</a>
</g>
</g>
<!-- Node2&#45;&gt;Node5 -->
<g id="edge4" class="edge"><title>Node2&#45;&gt;Node5</title>
<path fill="none" stroke="midnightblue" d="M877.269,-598.457C1058.75,-596.37 1612.15,-586.897 1787,-548 1790.25,-547.278 1793.58,-546.299 1796.85,-545.185"/>
<polygon fill="midnightblue" stroke="midnightblue" points="1798.23,-548.403 1806.32,-541.561 1795.73,-541.865 1798.23,-548.403"/>
</g>
<!-- Node6 -->
<g id="node6" class="node"><title>Node6</title>
<g id="a_node6"><a xlink:href="../../d1/da9/bot_8qh.html" target="_top" xlink:title="../bot.qh">
<polygon fill="none" stroke="black" points="339.5,-522.5 339.5,-541.5 392.5,-541.5 392.5,-522.5 339.5,-522.5"/>
<text text-anchor="middle" x="366" y="-529.5" font-family="Helvetica,sans-Serif" font-size="10.00">../bot.qh</text>
</a>
</g>
</g>
<!-- Node2&#45;&gt;Node6 -->
<g id="edge5" class="edge"><title>Node2&#45;&gt;Node6</title>
<path fill="none" stroke="midnightblue" d="M760.883,-597.093C679.225,-593.252 526.475,-581.803 401,-548 398.339,-547.283 395.616,-546.402 392.923,-545.429"/>
<polygon fill="midnightblue" stroke="midnightblue" points="394.042,-542.107 383.458,-541.633 391.436,-548.604 394.042,-542.107"/>
</g>
<!-- Node7 -->
<g id="node7" class="node"><title>Node7</title>
<g id="a_node7"><a xlink:href="../../df/dd4/navigation_8qh.html" target="_top" xlink:title="../navigation.qh">
<polygon fill="none" stroke="black" points="68.5,-522.5 68.5,-541.5 151.5,-541.5 151.5,-522.5 68.5,-522.5"/>
<text text-anchor="middle" x="110" y="-529.5" font-family="Helvetica,sans-Serif" font-size="10.00">../navigation.qh</text>
</a>
</g>
</g>
<!-- Node2&#45;&gt;Node7 -->
<g id="edge6" class="edge"><title>Node2&#45;&gt;Node7</title>
<path fill="none" stroke="midnightblue" d="M760.826,-598.55C645.455,-596.766 379.905,-588.219 161,-548 155.8,-547.045 150.374,-545.766 145.083,-544.356"/>
<polygon fill="midnightblue" stroke="midnightblue" points="145.747,-540.906 135.17,-541.535 143.83,-547.639 145.747,-540.906"/>
</g>
<!-- Node8 -->
<g id="node8" class="node"><title>Node8</title>
<g id="a_node8"><a xlink:href="../../d8/d14/scripting_8qh.html" target="_top" xlink:title="../scripting.qh">
<polygon fill="none" stroke="black" points="1870,-522.5 1870,-541.5 1946,-541.5 1946,-522.5 1870,-522.5"/>
<text text-anchor="middle" x="1908" y="-529.5" font-family="Helvetica,sans-Serif" font-size="10.00">../scripting.qh</text>
</a>
</g>
</g>
<!-- Node2&#45;&gt;Node8 -->
<g id="edge7" class="edge"><title>Node2&#45;&gt;Node8</title>
<path fill="none" stroke="midnightblue" d="M877.138,-598.091C1067.21,-594.817 1668.93,-581.964 1860,-548 1864.9,-547.129 1870,-545.902 1874.96,-544.521"/>
<polygon fill="midnightblue" stroke="midnightblue" points="1876.3,-547.775 1884.86,-541.535 1874.27,-541.073 1876.3,-547.775"/>
</g>
<!-- Node9 -->
<g id="node9" class="node"><title>Node9</title>
<g id="a_node9"><a xlink:href="../../d1/d2a/waypoints_8qh.html" target="_top" xlink:title="../waypoints.qh">
<polygon fill="none" stroke="black" points="410.5,-522.5 410.5,-541.5 493.5,-541.5 493.5,-522.5 410.5,-522.5"/>
<text text-anchor="middle" x="452" y="-529.5" font-family="Helvetica,sans-Serif" font-size="10.00">../waypoints.qh</text>
</a>
</g>
</g>
<!-- Node2&#45;&gt;Node9 -->
<g id="edge8" class="edge"><title>Node2&#45;&gt;Node9</title>
<path fill="none" stroke="midnightblue" d="M760.785,-591.213C698.056,-582.414 595.453,-566.834 508,-548 502.65,-546.848 497.046,-545.508 491.538,-544.113"/>
<polygon fill="midnightblue" stroke="midnightblue" points="492.361,-540.711 481.801,-541.57 490.592,-547.484 492.361,-540.711"/>
</g>
<!-- Node10 -->
<g id="node10" class="node"><title>Node10</title>
<g id="a_node10"><a xlink:href="../../d0/d8b/common_2constants_8qh.html" target="_top" xlink:title="common/constants.qh">
<polygon fill="none" stroke="black" points="516.5,-0.5 516.5,-19.5 629.5,-19.5 629.5,-0.5 516.5,-0.5"/>
<text text-anchor="middle" x="573" y="-7.5" font-family="Helvetica,sans-Serif" font-size="10.00">common/constants.qh</text>
</a>
</g>
</g>
<!-- Node2&#45;&gt;Node10 -->
<g id="edge9" class="edge"><title>Node2&#45;&gt;Node10</title>
<path fill="none" stroke="midnightblue" d="M760.885,-595.718C688.847,-590.436 571.793,-577.479 541,-548 513.664,-521.831 522,-502.843 522,-465 522,-465 522,-465 522,-121 522,-90.9022 527.874,-83.0849 541,-56 545.851,-45.9902 552.878,-35.8098 559.113,-27.6697"/>
<polygon fill="midnightblue" stroke="midnightblue" points="561.934,-29.7452 565.426,-19.7423 556.458,-25.3844 561.934,-29.7452"/>
</g>
<!-- Node11 -->
<g id="node11" class="node"><title>Node11</title>
<g id="a_node11"><a xlink:href="../../d0/d6e/impulses_2all_8qh.html" target="_top" xlink:title="common/impulses/all.qh">
<polygon fill="none" stroke="black" points="550,-522.5 550,-541.5 672,-541.5 672,-522.5 550,-522.5"/>
<text text-anchor="middle" x="611" y="-529.5" font-family="Helvetica,sans-Serif" font-size="10.00">common/impulses/all.qh</text>
</a>
</g>
</g>
<!-- Node2&#45;&gt;Node11 -->
<g id="edge10" class="edge"><title>Node2&#45;&gt;Node11</title>
<path fill="none" stroke="midnightblue" d="M774.634,-584.922C736.844,-572.931 683.188,-555.906 647.758,-544.664"/>
<polygon fill="midnightblue" stroke="midnightblue" points="648.422,-541.202 637.831,-541.514 646.304,-547.874 648.422,-541.202"/>
</g>
<!-- Node12 -->
<g id="node12" class="node"><title>Node12</title>
<g id="a_node12"><a xlink:href="../../d5/d08/net__linked_8qh.html" target="_top" xlink:title="common/net_linked.qh">
<polygon fill="none" stroke="black" points="690.5,-522.5 690.5,-541.5 805.5,-541.5 805.5,-522.5 690.5,-522.5"/>
<text text-anchor="middle" x="748" y="-529.5" font-family="Helvetica,sans-Serif" font-size="10.00">common/net_linked.qh</text>
</a>
</g>
</g>
<!-- Node2&#45;&gt;Node12 -->
<g id="edge11" class="edge"><title>Node2&#45;&gt;Node12</title>
<path fill="none" stroke="midnightblue" d="M803.594,-584.679C792.195,-574.082 776.674,-559.655 764.928,-548.736"/>
<polygon fill="midnightblue" stroke="midnightblue" points="767.204,-546.073 757.497,-541.828 762.438,-551.2 767.204,-546.073"/>
</g>
<!-- Node13 -->
<g id="node13" class="node"><title>Node13</title>
<g id="a_node13"><a xlink:href="../../de/d70/common_2physics_2player_8qh.html" target="_top" xlink:title="common/physics/player.qh">
<polygon fill="none" stroke="black" points="824,-522.5 824,-541.5 958,-541.5 958,-522.5 824,-522.5"/>
<text text-anchor="middle" x="891" y="-529.5" font-family="Helvetica,sans-Serif" font-size="10.00">common/physics/player.qh</text>
</a>
</g>
</g>
<!-- Node2&#45;&gt;Node13 -->
<g id="edge12" class="edge"><title>Node2&#45;&gt;Node13</title>
<path fill="none" stroke="midnightblue" d="M834.623,-584.679C846.183,-574.082 861.922,-559.655 873.833,-548.736"/>
<polygon fill="midnightblue" stroke="midnightblue" points="876.363,-551.166 881.369,-541.828 871.633,-546.006 876.363,-551.166"/>
</g>
<!-- Node14 -->
<g id="node14" class="node"><title>Node14</title>
<g id="a_node14"><a xlink:href="../../db/d9f/state_8qh.html" target="_top" xlink:title="common/state.qh">
<polygon fill="none" stroke="black" points="976,-522.5 976,-541.5 1068,-541.5 1068,-522.5 976,-522.5"/>
<text text-anchor="middle" x="1022" y="-529.5" font-family="Helvetica,sans-Serif" font-size="10.00">common/state.qh</text>
</a>
</g>
</g>
<!-- Node2&#45;&gt;Node14 -->
<g id="edge13" class="edge"><title>Node2&#45;&gt;Node14</title>
<path fill="none" stroke="midnightblue" d="M862.549,-584.841C899.342,-572.879 951.415,-555.949 985.917,-544.731"/>
<polygon fill="midnightblue" stroke="midnightblue" points="987.161,-548.007 995.589,-541.587 984.997,-541.35 987.161,-548.007"/>
</g>
<!-- Node15 -->
<g id="node15" class="node"><title>Node15</title>
<g id="a_node15"><a xlink:href="../../df/df3/common_2items_2__mod_8qh.html" target="_top" xlink:title="common/items/_mod.qh">
<polygon fill="none" stroke="black" points="1086,-522.5 1086,-541.5 1208,-541.5 1208,-522.5 1086,-522.5"/>
<text text-anchor="middle" x="1147" y="-529.5" font-family="Helvetica,sans-Serif" font-size="10.00">common/items/_mod.qh</text>
</a>
</g>
</g>
<!-- Node2&#45;&gt;Node15 -->
<g id="edge14" class="edge"><title>Node2&#45;&gt;Node15</title>
<path fill="none" stroke="midnightblue" d="M877.203,-587.769C929.529,-577.607 1008.47,-562.115 1077,-548 1083.71,-546.619 1090.77,-545.137 1097.72,-543.663"/>
<polygon fill="midnightblue" stroke="midnightblue" points="1098.73,-547.027 1107.78,-541.52 1097.27,-540.181 1098.73,-547.027"/>
</g>
<!-- Node33 -->
<g id="node33" class="node"><title>Node33</title>
<g id="a_node33"><a xlink:href="../../d0/d56/wepent_8qh.html" target="_top" xlink:title="common/wepent.qh">
<polygon fill="none" stroke="black" points="1226,-522.5 1226,-541.5 1328,-541.5 1328,-522.5 1226,-522.5"/>
<text text-anchor="middle" x="1277" y="-529.5" font-family="Helvetica,sans-Serif" font-size="10.00">common/wepent.qh</text>
</a>
</g>
</g>
<!-- Node2&#45;&gt;Node33 -->
<g id="edge43" class="edge"><title>Node2&#45;&gt;Node33</title>
<path fill="none" stroke="midnightblue" d="M877.006,-593.725C954.797,-586.159 1097.03,-570.602 1217,-548 1223.16,-546.839 1229.64,-545.427 1235.96,-543.939"/>
<polygon fill="midnightblue" stroke="midnightblue" points="1236.82,-547.332 1245.7,-541.563 1235.16,-540.532 1236.82,-547.332"/>
</g>
<!-- Node34 -->
<g id="node34" class="node"><title>Node34</title>
<g id="a_node34"><a xlink:href="../../dd/d2d/teleporters_8qh.html" target="_top" xlink:title="common/triggers/teleporters.qh">
<polygon fill="none" stroke="black" points="1346,-522.5 1346,-541.5 1498,-541.5 1498,-522.5 1346,-522.5"/>
<text text-anchor="middle" x="1422" y="-529.5" font-family="Helvetica,sans-Serif" font-size="10.00">common/triggers/teleporters.qh</text>
</a>
</g>
</g>
<!-- Node2&#45;&gt;Node34 -->
<g id="edge44" class="edge"><title>Node2&#45;&gt;Node34</title>
<path fill="none" stroke="midnightblue" d="M877.315,-594.669C973.24,-587.227 1170.23,-570.602 1336,-548 1345.91,-546.649 1356.43,-544.997 1366.58,-543.29"/>
<polygon fill="midnightblue" stroke="midnightblue" points="1367.31,-546.716 1376.57,-541.573 1366.13,-539.817 1367.31,-546.716"/>
</g>
<!-- Node35 -->
<g id="node35" class="node"><title>Node35</title>
<g id="a_node35"><a xlink:href="../../d9/de7/jumppads_8qh.html" target="_top" xlink:title="common/triggers/trigger\l/jumppads.qh">
<polygon fill="none" stroke="black" points="1516.5,-517 1516.5,-547 1635.5,-547 1635.5,-517 1516.5,-517"/>
<text text-anchor="start" x="1524.5" y="-535" font-family="Helvetica,sans-Serif" font-size="10.00">common/triggers/trigger</text>
<text text-anchor="middle" x="1576" y="-524" font-family="Helvetica,sans-Serif" font-size="10.00">/jumppads.qh</text>
</a>
</g>
</g>
<!-- Node2&#45;&gt;Node35 -->
<g id="edge45" class="edge"><title>Node2&#45;&gt;Node35</title>
<path fill="none" stroke="midnightblue" d="M877.287,-597.432C994.607,-593.68 1267.67,-581.935 1506.35,-547.95"/>
<polygon fill="midnightblue" stroke="midnightblue" points="1506.86,-551.414 1516.25,-546.524 1505.86,-544.485 1506.86,-551.414"/>
</g>
<!-- Node36 -->
<g id="node36" class="node"><title>Node36</title>
<g id="a_node36"><a xlink:href="../../d7/d71/lib_2warpzone_2common_8qh.html" target="_top" xlink:title="lib/warpzone/common.qh">
<polygon fill="none" stroke="black" points="1653.5,-522.5 1653.5,-541.5 1778.5,-541.5 1778.5,-522.5 1653.5,-522.5"/>
<text text-anchor="middle" x="1716" y="-529.5" font-family="Helvetica,sans-Serif" font-size="10.00">lib/warpzone/common.qh</text>
</a>
</g>
</g>
<!-- Node2&#45;&gt;Node36 -->
<g id="edge46" class="edge"><title>Node2&#45;&gt;Node36</title>
<path fill="none" stroke="midnightblue" d="M877.04,-598.273C1012.15,-595.957 1357.95,-586.436 1644,-548 1652.46,-546.863 1661.41,-545.298 1670.02,-543.604"/>
<polygon fill="midnightblue" stroke="midnightblue" points="1670.82,-547.012 1679.92,-541.576 1669.42,-540.155 1670.82,-547.012"/>
</g>
<!-- Node16 -->
<g id="node16" class="node"><title>Node16</title>
<g id="a_node16"><a xlink:href="../../d0/d7e/items_2all_8qh.html" target="_top" xlink:title="common/items/all.qh">
<polygon fill="none" stroke="black" points="979.5,-168.5 979.5,-187.5 1086.5,-187.5 1086.5,-168.5 979.5,-168.5"/>
<text text-anchor="middle" x="1033" y="-175.5" font-family="Helvetica,sans-Serif" font-size="10.00">common/items/all.qh</text>
</a>
</g>
</g>
<!-- Node15&#45;&gt;Node16 -->
<g id="edge15" class="edge"><title>Node15&#45;&gt;Node16</title>
<path fill="none" stroke="midnightblue" d="M1113.62,-522.39C1063.86,-507.309 976,-471.048 976,-403 976,-403 976,-403 976,-289 976,-252.3 1001.32,-215.657 1018.21,-195.297"/>
<polygon fill="midnightblue" stroke="midnightblue" points="1020.95,-197.475 1024.83,-187.616 1015.65,-192.904 1020.95,-197.475"/>
</g>
<!-- Node25 -->
<g id="node25" class="node"><title>Node25</title>
<g id="a_node25"><a xlink:href="../../d9/dd1/common_2items_2item_2__mod_8qh.html" target="_top" xlink:title="common/items/item/\l_mod.qh">
<polygon fill="none" stroke="black" points="1117,-449 1117,-479 1223,-479 1223,-449 1117,-449"/>
<text text-anchor="start" x="1125" y="-467" font-family="Helvetica,sans-Serif" font-size="10.00">common/items/item/</text>
<text text-anchor="middle" x="1170" y="-456" font-family="Helvetica,sans-Serif" font-size="10.00">_mod.qh</text>
</a>
</g>
</g>
<!-- Node15&#45;&gt;Node25 -->
<g id="edge25" class="edge"><title>Node15&#45;&gt;Node25</title>
<path fill="none" stroke="midnightblue" d="M1150.01,-522.372C1152.96,-513.886 1157.61,-500.542 1161.69,-488.858"/>
<polygon fill="midnightblue" stroke="midnightblue" points="1165.07,-489.776 1165.06,-479.181 1158.46,-487.473 1165.07,-489.776"/>
</g>
<!-- Node17 -->
<g id="node17" class="node"><title>Node17</title>
<g id="a_node17"><a xlink:href="../../d9/df2/common_2command_2__mod_8qh.html" target="_top" xlink:title="common/command/_mod.qh">
<polygon fill="none" stroke="black" points="869,-112.5 869,-131.5 1009,-131.5 1009,-112.5 869,-112.5"/>
<text text-anchor="middle" x="939" y="-119.5" font-family="Helvetica,sans-Serif" font-size="10.00">common/command/_mod.qh</text>
</a>
</g>
</g>
<!-- Node16&#45;&gt;Node17 -->
<g id="edge16" class="edge"><title>Node16&#45;&gt;Node17</title>
<path fill="none" stroke="midnightblue" d="M1017.9,-168.324C1003.1,-159.822 980.306,-146.729 963.018,-136.797"/>
<polygon fill="midnightblue" stroke="midnightblue" points="964.48,-133.601 954.065,-131.655 960.993,-139.671 964.48,-133.601"/>
</g>
<!-- Node23 -->
<g id="node23" class="node"><title>Node23</title>
<g id="a_node23"><a xlink:href="../../d7/d7c/common_2items_2item_8qh.html" target="_top" xlink:title="item.qh">
<polygon fill="none" stroke="black" points="1154.5,-112.5 1154.5,-131.5 1203.5,-131.5 1203.5,-112.5 1154.5,-112.5"/>
<text text-anchor="middle" x="1179" y="-119.5" font-family="Helvetica,sans-Serif" font-size="10.00">item.qh</text>
</a>
</g>
</g>
<!-- Node16&#45;&gt;Node23 -->
<g id="edge23" class="edge"><title>Node16&#45;&gt;Node23</title>
<path fill="none" stroke="midnightblue" d="M1056.13,-168.444C1080.48,-159.438 1119.01,-145.189 1146.42,-135.049"/>
<polygon fill="midnightblue" stroke="midnightblue" points="1147.81,-138.268 1155.97,-131.516 1145.38,-131.703 1147.81,-138.268"/>
</g>
<!-- Node18 -->
<g id="node18" class="node"><title>Node18</title>
<g id="a_node18"><a xlink:href="../../d7/d88/generic_8qh.html" target="_top" xlink:title="common/command/generic.qh">
<polygon fill="none" stroke="black" points="550,-56.5 550,-75.5 698,-75.5 698,-56.5 550,-56.5"/>
<text text-anchor="middle" x="624" y="-63.5" font-family="Helvetica,sans-Serif" font-size="10.00">common/command/generic.qh</text>
</a>
</g>
</g>
<!-- Node17&#45;&gt;Node18 -->
<g id="edge17" class="edge"><title>Node17&#45;&gt;Node18</title>
<path fill="none" stroke="midnightblue" d="M889.087,-112.444C833.33,-102.885 743.114,-87.4195 683.674,-77.2298"/>
<polygon fill="midnightblue" stroke="midnightblue" points="684.127,-73.7565 673.679,-75.5164 682.944,-80.6558 684.127,-73.7565"/>
</g>
<!-- Node19 -->
<g id="node19" class="node"><title>Node19</title>
<g id="a_node19"><a xlink:href="../../d8/d96/markup_8qh.html" target="_top" xlink:title="common/command/markup.qh">
<polygon fill="none" stroke="black" points="864.5,-56.5 864.5,-75.5 1013.5,-75.5 1013.5,-56.5 864.5,-56.5"/>
<text text-anchor="middle" x="939" y="-63.5" font-family="Helvetica,sans-Serif" font-size="10.00">common/command/markup.qh</text>
</a>
</g>
</g>
<!-- Node17&#45;&gt;Node19 -->
<g id="edge19" class="edge"><title>Node17&#45;&gt;Node19</title>
<path fill="none" stroke="midnightblue" d="M939,-112.083C939,-105.006 939,-94.8611 939,-85.9865"/>
<polygon fill="midnightblue" stroke="midnightblue" points="942.5,-85.751 939,-75.7511 935.5,-85.7511 942.5,-85.751"/>
</g>
<!-- Node20 -->
<g id="node20" class="node"><title>Node20</title>
<g id="a_node20"><a xlink:href="../../d4/dab/common_2command_2reg_8qh.html" target="_top" xlink:title="common/command/reg.qh">
<polygon fill="none" stroke="black" points="1032,-56.5 1032,-75.5 1162,-75.5 1162,-56.5 1032,-56.5"/>
<text text-anchor="middle" x="1097" y="-63.5" font-family="Helvetica,sans-Serif" font-size="10.00">common/command/reg.qh</text>
</a>
</g>
</g>
<!-- Node17&#45;&gt;Node20 -->
<g id="edge20" class="edge"><title>Node17&#45;&gt;Node20</title>
<path fill="none" stroke="midnightblue" d="M964.036,-112.444C990.616,-103.359 1032.81,-88.9388 1062.52,-78.7831"/>
<polygon fill="midnightblue" stroke="midnightblue" points="1063.75,-82.0625 1072.08,-75.5164 1061.49,-75.4386 1063.75,-82.0625"/>
</g>
<!-- Node22 -->
<g id="node22" class="node"><title>Node22</title>
<g id="a_node22"><a xlink:href="../../d4/db4/rpn_8qh.html" target="_top" xlink:title="common/command/rpn.qh">
<polygon fill="none" stroke="black" points="716,-56.5 716,-75.5 846,-75.5 846,-56.5 716,-56.5"/>
<text text-anchor="middle" x="781" y="-63.5" font-family="Helvetica,sans-Serif" font-size="10.00">common/command/rpn.qh</text>
</a>
</g>
</g>
<!-- Node17&#45;&gt;Node22 -->
<g id="edge22" class="edge"><title>Node17&#45;&gt;Node22</title>
<path fill="none" stroke="midnightblue" d="M913.964,-112.444C887.384,-103.359 845.191,-88.9388 815.477,-78.7831"/>
<polygon fill="midnightblue" stroke="midnightblue" points="816.513,-75.4386 805.918,-75.5164 814.249,-82.0625 816.513,-75.4386"/>
</g>
<!-- Node18&#45;&gt;Node10 -->
<g id="edge18" class="edge"><title>Node18&#45;&gt;Node10</title>
<path fill="none" stroke="midnightblue" d="M615.578,-56.083C608.152,-48.2195 597.148,-36.5688 588.188,-27.0813"/>
<polygon fill="midnightblue" stroke="midnightblue" points="590.676,-24.618 581.265,-19.7511 585.587,-29.4244 590.676,-24.618"/>
</g>
<!-- Node21 -->
<g id="node21" class="node"><title>Node21</title>
<g id="a_node21"><a xlink:href="../../d9/da1/common_2command_2command_8qh.html" target="_top" xlink:title="command.qh">
<polygon fill="none" stroke="black" points="1060.5,-0.5 1060.5,-19.5 1133.5,-19.5 1133.5,-0.5 1060.5,-0.5"/>
<text text-anchor="middle" x="1097" y="-7.5" font-family="Helvetica,sans-Serif" font-size="10.00">command.qh</text>
</a>
</g>
</g>
<!-- Node20&#45;&gt;Node21 -->
<g id="edge21" class="edge"><title>Node20&#45;&gt;Node21</title>
<path fill="none" stroke="midnightblue" d="M1097,-56.083C1097,-49.0059 1097,-38.8611 1097,-29.9865"/>
<polygon fill="midnightblue" stroke="midnightblue" points="1100.5,-29.751 1097,-19.7511 1093.5,-29.7511 1100.5,-29.751"/>
</g>
<!-- Node24 -->
<g id="node24" class="node"><title>Node24</title>
<g id="a_node24"><a xlink:href="../../de/d75/t__items_8qh.html" target="_top" xlink:title="common/t_items.qh">
<polygon fill="none" stroke="black" points="1180.5,-56.5 1180.5,-75.5 1283.5,-75.5 1283.5,-56.5 1180.5,-56.5"/>
<text text-anchor="middle" x="1232" y="-63.5" font-family="Helvetica,sans-Serif" font-size="10.00">common/t_items.qh</text>
</a>
</g>
</g>
<!-- Node23&#45;&gt;Node24 -->
<g id="edge24" class="edge"><title>Node23&#45;&gt;Node24</title>
<path fill="none" stroke="midnightblue" d="M1187.75,-112.083C1195.47,-104.22 1206.9,-92.5688 1216.22,-83.0813"/>
<polygon fill="midnightblue" stroke="midnightblue" points="1218.9,-85.3396 1223.41,-75.7511 1213.91,-80.4363 1218.9,-85.3396"/>
</g>
<!-- Node26 -->
<g id="node26" class="node"><title>Node26</title>
<g id="a_node26"><a xlink:href="../../de/d43/common_2items_2item_2ammo_8qh.html" target="_top" xlink:title="common/items/item/ammo.qh">
<polygon fill="none" stroke="black" points="1042,-336.5 1042,-355.5 1188,-355.5 1188,-336.5 1042,-336.5"/>
<text text-anchor="middle" x="1115" y="-343.5" font-family="Helvetica,sans-Serif" font-size="10.00">common/items/item/ammo.qh</text>
</a>
</g>
</g>
<!-- Node25&#45;&gt;Node26 -->
<g id="edge26" class="edge"><title>Node25&#45;&gt;Node26</title>
<path fill="none" stroke="midnightblue" d="M1129.94,-448.978C1113.24,-440.917 1095.54,-428.95 1086,-412 1076.97,-395.948 1088.29,-376.551 1099.32,-363.147"/>
<polygon fill="midnightblue" stroke="midnightblue" points="1101.94,-365.461 1105.97,-355.66 1096.71,-360.814 1101.94,-365.461"/>
</g>
<!-- Node27 -->
<g id="node27" class="node"><title>Node27</title>
<g id="a_node27"><a xlink:href="../../de/dda/pickup_8qh.html" target="_top" xlink:title="pickup.qh">
<polygon fill="none" stroke="black" points="1157.5,-280.5 1157.5,-299.5 1216.5,-299.5 1216.5,-280.5 1157.5,-280.5"/>
<text text-anchor="middle" x="1187" y="-287.5" font-family="Helvetica,sans-Serif" font-size="10.00">pickup.qh</text>
</a>
</g>
</g>
<!-- Node25&#45;&gt;Node27 -->
<g id="edge41" class="edge"><title>Node25&#45;&gt;Node27</title>
<path fill="none" stroke="midnightblue" d="M1132.97,-448.96C1081.31,-427.252 997.693,-383.101 1033,-336 1046.75,-317.662 1106.45,-304.306 1147.35,-297.104"/>
<polygon fill="midnightblue" stroke="midnightblue" points="1148.03,-300.538 1157.3,-295.406 1146.86,-293.638 1148.03,-300.538"/>
</g>
<!-- Node29 -->
<g id="node29" class="node"><title>Node29</title>
<g id="a_node29"><a xlink:href="../../d7/d60/armor_8qh.html" target="_top" xlink:title="common/items/item/armor.qh">
<polygon fill="none" stroke="black" points="1292,-336.5 1292,-355.5 1436,-355.5 1436,-336.5 1292,-336.5"/>
<text text-anchor="middle" x="1364" y="-343.5" font-family="Helvetica,sans-Serif" font-size="10.00">common/items/item/armor.qh</text>
</a>
</g>
</g>
<!-- Node25&#45;&gt;Node29 -->
<g id="edge33" class="edge"><title>Node25&#45;&gt;Node29</title>
<path fill="none" stroke="midnightblue" d="M1200.32,-448.845C1220.44,-439.133 1247.24,-425.588 1270,-412 1296.64,-396.09 1325.82,-375.358 1344.49,-361.635"/>
<polygon fill="midnightblue" stroke="midnightblue" points="1346.8,-364.278 1352.75,-355.513 1342.63,-358.654 1346.8,-364.278"/>
</g>
<!-- Node30 -->
<g id="node30" class="node"><title>Node30</title>
<g id="a_node30"><a xlink:href="../../da/d6a/health_8qh.html" target="_top" xlink:title="common/items/item/health.qh">
<polygon fill="none" stroke="black" points="1378,-392.5 1378,-411.5 1524,-411.5 1524,-392.5 1378,-392.5"/>
<text text-anchor="middle" x="1451" y="-399.5" font-family="Helvetica,sans-Serif" font-size="10.00">common/items/item/health.qh</text>
</a>
</g>
</g>
<!-- Node25&#45;&gt;Node30 -->
<g id="edge35" class="edge"><title>Node25&#45;&gt;Node30</title>
<path fill="none" stroke="midnightblue" d="M1223.18,-451.644C1274.39,-440.71 1351.23,-424.302 1401.25,-413.622"/>
<polygon fill="midnightblue" stroke="midnightblue" points="1402.14,-417.011 1411.19,-411.5 1400.68,-410.165 1402.14,-417.011"/>
</g>
<!-- Node31 -->
<g id="node31" class="node"><title>Node31</title>
<g id="a_node31"><a xlink:href="../../d2/d37/jetpack_8qh.html" target="_top" xlink:title="common/items/item/jetpack.qh">
<polygon fill="none" stroke="black" points="1094.5,-392.5 1094.5,-411.5 1245.5,-411.5 1245.5,-392.5 1094.5,-392.5"/>
<text text-anchor="middle" x="1170" y="-399.5" font-family="Helvetica,sans-Serif" font-size="10.00">common/items/item/jetpack.qh</text>
</a>
</g>
</g>
<!-- Node25&#45;&gt;Node31 -->
<g id="edge37" class="edge"><title>Node25&#45;&gt;Node31</title>
<path fill="none" stroke="midnightblue" d="M1170,-448.781C1170,-440.781 1170,-430.689 1170,-422.017"/>
<polygon fill="midnightblue" stroke="midnightblue" points="1173.5,-421.73 1170,-411.731 1166.5,-421.731 1173.5,-421.73"/>
</g>
<!-- Node32 -->
<g id="node32" class="node"><title>Node32</title>
<g id="a_node32"><a xlink:href="../../d6/d88/powerup_8qh.html" target="_top" xlink:title="powerup.qh">
<polygon fill="none" stroke="black" points="1206.5,-336.5 1206.5,-355.5 1273.5,-355.5 1273.5,-336.5 1206.5,-336.5"/>
<text text-anchor="middle" x="1240" y="-343.5" font-family="Helvetica,sans-Serif" font-size="10.00">powerup.qh</text>
</a>
</g>
</g>
<!-- Node25&#45;&gt;Node32 -->
<g id="edge42" class="edge"><title>Node25&#45;&gt;Node32</title>
<path fill="none" stroke="midnightblue" d="M1210.06,-448.978C1226.76,-440.917 1244.46,-428.95 1254,-412 1262.29,-397.267 1256.51,-378.118 1250.05,-364.427"/>
<polygon fill="midnightblue" stroke="midnightblue" points="1253.15,-362.803 1245.42,-355.564 1246.95,-366.047 1253.15,-362.803"/>
</g>
<!-- Node26&#45;&gt;Node27 -->
<g id="edge27" class="edge"><title>Node26&#45;&gt;Node27</title>
<path fill="none" stroke="midnightblue" d="M1126.57,-336.324C1137.42,-328.185 1153.88,-315.839 1166.88,-306.087"/>
<polygon fill="midnightblue" stroke="midnightblue" points="1169.32,-308.634 1175.22,-299.834 1165.12,-303.034 1169.32,-308.634"/>
</g>
<!-- Node27&#45;&gt;Node23 -->
<g id="edge31" class="edge"><title>Node27&#45;&gt;Node23</title>
<path fill="none" stroke="midnightblue" d="M1186.57,-280.075C1185.31,-253.945 1181.61,-177.211 1179.9,-141.577"/>
<polygon fill="midnightblue" stroke="midnightblue" points="1183.39,-141.388 1179.41,-131.568 1176.4,-141.725 1183.39,-141.388"/>
</g>
<!-- Node27&#45;&gt;Node24 -->
<g id="edge32" class="edge"><title>Node27&#45;&gt;Node24</title>
<path fill="none" stroke="midnightblue" d="M1189.24,-280.403C1191.56,-271.369 1195.22,-256.73 1198,-244 1210.53,-186.548 1222.99,-118.066 1228.72,-85.7055"/>
<polygon fill="midnightblue" stroke="midnightblue" points="1232.23,-85.9608 1230.52,-75.505 1225.34,-84.7457 1232.23,-85.9608"/>
</g>
<!-- Node28 -->
<g id="node28" class="node"><title>Node28</title>
<g id="a_node28"><a xlink:href="../../dc/d9d/inventory_8qh.html" target="_top" xlink:title="common/items/inventory.qh">
<polygon fill="none" stroke="black" points="1021.5,-224.5 1021.5,-243.5 1158.5,-243.5 1158.5,-224.5 1021.5,-224.5"/>
<text text-anchor="middle" x="1090" y="-231.5" font-family="Helvetica,sans-Serif" font-size="10.00">common/items/inventory.qh</text>
</a>
</g>
</g>
<!-- Node27&#45;&gt;Node28 -->
<g id="edge28" class="edge"><title>Node27&#45;&gt;Node28</title>
<path fill="none" stroke="midnightblue" d="M1166.3,-280.324C1149.35,-271.9 1125.82,-258.971 1109.27,-249.074"/>
<polygon fill="midnightblue" stroke="midnightblue" points="1110.79,-245.899 1100.44,-243.655 1107.13,-251.866 1110.79,-245.899"/>
</g>
<!-- Node28&#45;&gt;Node16 -->
<g id="edge29" class="edge"><title>Node28&#45;&gt;Node16</title>
<path fill="none" stroke="midnightblue" d="M1080.84,-224.324C1072.5,-216.42 1059.97,-204.548 1049.82,-194.938"/>
<polygon fill="midnightblue" stroke="midnightblue" points="1051.99,-192.171 1042.32,-187.834 1047.18,-197.252 1051.99,-192.171"/>
</g>
<!-- Node28&#45;&gt;Node27 -->
<g id="edge30" class="edge"><title>Node28&#45;&gt;Node27</title>
<path fill="none" stroke="midnightblue" d="M1110.66,-243.655C1127.6,-252.071 1151.12,-264.999 1167.69,-274.901"/>
<polygon fill="midnightblue" stroke="midnightblue" points="1166.18,-278.08 1176.53,-280.324 1169.83,-272.113 1166.18,-278.08"/>
</g>
<!-- Node29&#45;&gt;Node27 -->
<g id="edge34" class="edge"><title>Node29&#45;&gt;Node27</title>
<path fill="none" stroke="midnightblue" d="M1335.95,-336.444C1305.92,-327.28 1258.09,-312.688 1224.76,-302.519"/>
<polygon fill="midnightblue" stroke="midnightblue" points="1225.5,-299.087 1214.91,-299.516 1223.46,-305.782 1225.5,-299.087"/>
</g>
<!-- Node30&#45;&gt;Node27 -->
<g id="edge36" class="edge"><title>Node30&#45;&gt;Node27</title>
<path fill="none" stroke="midnightblue" d="M1453.2,-392.105C1456.05,-378.201 1459.14,-351.327 1445,-336 1416.24,-304.817 1292.31,-295.184 1227.25,-292.253"/>
<polygon fill="midnightblue" stroke="midnightblue" points="1227.09,-288.744 1216.96,-291.823 1226.8,-295.738 1227.09,-288.744"/>
</g>
<!-- Node31&#45;&gt;Node26 -->
<g id="edge38" class="edge"><title>Node31&#45;&gt;Node26</title>
<path fill="none" stroke="midnightblue" d="M1160.92,-392.083C1152.83,-384.141 1140.8,-372.335 1131.09,-362.797"/>
<polygon fill="midnightblue" stroke="midnightblue" points="1133.5,-360.26 1123.91,-355.751 1128.6,-365.254 1133.5,-360.26"/>
</g>
<!-- Node31&#45;&gt;Node32 -->
<g id="edge39" class="edge"><title>Node31&#45;&gt;Node32</title>
<path fill="none" stroke="midnightblue" d="M1181.25,-392.324C1191.8,-384.185 1207.8,-371.839 1220.44,-362.087"/>
<polygon fill="midnightblue" stroke="midnightblue" points="1222.77,-364.713 1228.55,-355.834 1218.49,-359.171 1222.77,-364.713"/>
</g>
<!-- Node32&#45;&gt;Node27 -->
<g id="edge40" class="edge"><title>Node32&#45;&gt;Node27</title>
<path fill="none" stroke="midnightblue" d="M1231.25,-336.083C1223.53,-328.22 1212.1,-316.569 1202.78,-307.081"/>
<polygon fill="midnightblue" stroke="midnightblue" points="1205.09,-304.436 1195.59,-299.751 1200.1,-309.34 1205.09,-304.436"/>
</g>
<!-- Node37&#45;&gt;Node3 -->
<g id="edge49" class="edge"><title>Node37&#45;&gt;Node3</title>
<path fill="none" stroke="midnightblue" d="M237.887,-584.679C231.468,-574.592 222.839,-561.033 216.031,-550.335"/>
<polygon fill="midnightblue" stroke="midnightblue" points="218.94,-548.386 210.618,-541.828 213.034,-552.144 218.94,-548.386"/>
</g>
<!-- Node37&#45;&gt;Node4 -->
<g id="edge50" class="edge"><title>Node37&#45;&gt;Node4</title>
<path fill="none" stroke="midnightblue" d="M256.33,-584.679C262.902,-574.592 271.736,-561.033 278.706,-550.335"/>
<polygon fill="midnightblue" stroke="midnightblue" points="281.722,-552.118 284.248,-541.828 275.857,-548.296 281.722,-552.118"/>
</g>
<!-- Node37&#45;&gt;Node6 -->
<g id="edge51" class="edge"><title>Node37&#45;&gt;Node6</title>
<path fill="none" stroke="midnightblue" d="M272.528,-584.841C292.927,-573.528 321.338,-557.771 341.469,-546.605"/>
<polygon fill="midnightblue" stroke="midnightblue" points="343.299,-549.593 350.346,-541.682 339.904,-543.471 343.299,-549.593"/>
</g>
<!-- Node37&#45;&gt;Node7 -->
<g id="edge52" class="edge"><title>Node37&#45;&gt;Node7</title>
<path fill="none" stroke="midnightblue" d="M217.61,-584.841C193.807,-573.374 160.528,-557.342 137.303,-546.153"/>
<polygon fill="midnightblue" stroke="midnightblue" points="138.55,-542.869 128.021,-541.682 135.511,-549.175 138.55,-542.869"/>
</g>
<!-- Node38 -->
<g id="node38" class="node"><title>Node38</title>
<g id="a_node38"><a xlink:href="../../d3/d92/roles_8qh.html" target="_top" xlink:title="roles.qh">
<polygon fill="none" stroke="black" points="-0.5,-522.5 -0.5,-541.5 50.5,-541.5 50.5,-522.5 -0.5,-522.5"/>
<text text-anchor="middle" x="25" y="-529.5" font-family="Helvetica,sans-Serif" font-size="10.00">roles.qh</text>
</a>
</g>
</g>
<!-- Node37&#45;&gt;Node38 -->
<g id="edge48" class="edge"><title>Node37&#45;&gt;Node38</title>
<path fill="none" stroke="midnightblue" d="M198.479,-587.969C160.148,-578.746 105.545,-564.475 59,-548 56.8751,-547.248 54.697,-546.422 52.5196,-545.556"/>
<polygon fill="midnightblue" stroke="midnightblue" points="53.7219,-542.264 43.1473,-541.61 51.0057,-548.716 53.7219,-542.264"/>
</g>
</g>
</svg>
        <g id="navigator" transform="translate(0 0)" fill="#404254">
                <rect fill="#f2f5e9" fill-opacity="0.5" stroke="#606060" stroke-width=".5" x="0" y="0" width="60" height="60"/>
                <use id="zoomplus" xlink:href="#zoomPlus" x="17" y="9" onmousedown="handleZoom(evt,'in')"/>
                <use id="zoomminus" xlink:href="#zoomMin" x="42" y="9" onmousedown="handleZoom(evt,'out')"/>
                <use id="reset" xlink:href="#resetDef" x="30" y="36" onmousedown="handleReset()"/>
                <g id="arrowUp" xlink:href="#dirArrow" transform="translate(30 24)" onmousedown="handlePan(0,-1)">
                  <use xlink:href="#rim" fill="#404040">
                        <set attributeName="fill" to="#808080" begin="arrowUp.mouseover" end="arrowUp.mouseout"/>
                  </use>
                  <path fill="none" stroke="white" stroke-width="1.5" d="M0,-3.0v7 M-2.5,-0.5L0,-3.0L2.5,-0.5"/>
                </g>
                <g id="arrowRight" xlink:href="#dirArrow" transform="rotate(90) translate(36 -43)" onmousedown="handlePan(1,0)">
                  <use xlink:href="#rim" fill="#404040">
                        <set attributeName="fill" to="#808080" begin="arrowRight.mouseover" end="arrowRight.mouseout"/>
                  </use>
                  <path fill="none" stroke="white" stroke-width="1.5" d="M0,-3.0v7 M-2.5,-0.5L0,-3.0L2.5,-0.5"/>
                </g>
                <g id="arrowDown" xlink:href="#dirArrow" transform="rotate(180) translate(-30 -48)" onmousedown="handlePan(0,1)">
                  <use xlink:href="#rim" fill="#404040">
                        <set attributeName="fill" to="#808080" begin="arrowDown.mouseover" end="arrowDown.mouseout"/>
                  </use>
                  <path fill="none" stroke="white" stroke-width="1.5" d="M0,-3.0v7 M-2.5,-0.5L0,-3.0L2.5,-0.5"/>
                </g>
                <g id="arrowLeft" xlink:href="#dirArrow" transform="rotate(270) translate(-36 17)" onmousedown="handlePan(-1,0)">
                  <use xlink:href="#rim" fill="#404040">
                        <set attributeName="fill" to="#808080" begin="arrowLeft.mouseover" end="arrowLeft.mouseout"/>
                  </use>
                  <path fill="none" stroke="white" stroke-width="1.5" d="M0,-3.0v7 M-2.5,-0.5L0,-3.0L2.5,-0.5"/>
                </g>
        </g>
        <svg viewBox="0 0 15 15" width="100%" height="30px" preserveAspectRatio="xMaxYMin meet">
         <g id="arrow_out" transform="scale(0.3 0.3)">
          <a xlink:href="server_2bot_2default_2havocbot_2__mod_8inc__incl_org.svg" target="_base">
           <rect id="button" ry="5" rx="5" y="6" x="6" height="38" width="38"
                fill="#f2f5e9" fill-opacity="0.5" stroke="#606060" stroke-width="1.0"/>
           <path id="arrow"
             d="M 11.500037,31.436501 C 11.940474,20.09759 22.043105,11.32322 32.158766,21.979434 L 37.068811,17.246167 C 37.068811,17.246167 37.088388,32 37.088388,32 L 22.160133,31.978069 C 22.160133,31.978069 26.997745,27.140456 26.997745,27.140456 C 18.528582,18.264221 13.291696,25.230495 11.500037,31.436501 z"
             style="fill:#404040;"/>
          </a>
         </g>
        </svg>
</svg>
